<?xml version="1.0" encoding="iso-8859-1"?>
<!-- Generator: Adobe Illustrator 19.2.0, SVG Export Plug-In . SVG Version: 6.00 Build 0)  -->
<svg version="1.1" xmlns="http://www.w3.org/2000/svg" xmlns:xlink="http://www.w3.org/1999/xlink" x="0px" y="0px"
	 viewBox="0 0 72.395 75.228" style="enable-background:new 0 0 72.395 75.228;" xml:space="preserve">
<g id="_x31_5th_x5F_Festival_x5F_Internazionale_x5F_del_x5F_Teatro_x5F_Universitario">
	<path style="fill-rule:evenodd;clip-rule:evenodd;" d="M33.115,20.444c0.288,0.027,0.324,0.606,0.098,0.733
		C32.856,21.228,32.914,20.523,33.115,20.444z"/>
	<path style="fill-rule:evenodd;clip-rule:evenodd;" d="M29.153,20.493c0.216,0.198,0.186,0.778-0.098,0.88
		C28.707,21.388,28.649,20.346,29.153,20.493z"/>
	<path style="fill-rule:evenodd;clip-rule:evenodd;" d="M30.767,21.324c0.049,0,0.098,0,0.147,0c0.063,0.088,0.11,0.473-0.049,0.489
		C30.653,21.768,30.74,21.497,30.767,21.324z"/>
	<path style="fill-rule:evenodd;clip-rule:evenodd;" d="M27.588,24.699c0.15,0,0.228,0.354,0.049,0.391
		C27.396,25.117,27.491,24.755,27.588,24.699z"/>
	<path style="fill-rule:evenodd;clip-rule:evenodd;" d="M37.517,31.303c0.219,0.671,0.26,2.009,0.098,2.739
		C37.313,33.429,37.374,32.048,37.517,31.303z"/>
	<path style="fill-rule:evenodd;clip-rule:evenodd;" d="M32.284,32.721c0.147,0.002,0.151,0.399-0.049,0.342
		C32.129,32.959,32.209,32.79,32.284,32.721z"/>
	<path style="fill-rule:evenodd;clip-rule:evenodd;" d="M42.751,37.173c0.249,0.095,0.186,0.472,0.147,0.734
		C42.668,37.817,42.698,37.408,42.751,37.173z"/>
	<path style="fill-rule:evenodd;clip-rule:evenodd;" d="M40.599,37.27c0.048,0,0.098,0,0.146,0c0.101,0.188,0.268,0.666-0.049,0.734
		C40.429,37.914,40.508,37.492,40.599,37.27z"/>
	<path style="fill-rule:evenodd;clip-rule:evenodd;" d="M42.8,38.151c0.323,0.195,0.274,0.981,0.196,1.418
		C42.714,39.296,42.726,38.638,42.8,38.151z"/>
	<path style="fill-rule:evenodd;clip-rule:evenodd;" d="M22.99,38.395c0.15-0.075,0.15,0.319,0,0.245
		C22.99,38.558,22.99,38.477,22.99,38.395z"/>
	<path style="fill-rule:evenodd;clip-rule:evenodd;" d="M36.539,38.884c0.164,0.083,0.161,0.317,0.049,0.44
		C36.397,39.297,36.406,38.97,36.539,38.884z"/>
	<path style="fill-rule:evenodd;clip-rule:evenodd;" d="M41.284,42.993c0.274,0.044,0.258,0.759,0.098,0.929
		C41.103,43.875,41.024,43.124,41.284,42.993z"/>
	<path style="fill-rule:evenodd;clip-rule:evenodd;" d="M31.599,43.531c0.167,0.074,0.188,0.42,0.049,0.538
		C31.395,44.091,31.491,43.591,31.599,43.531z"/>
	<path style="fill-rule:evenodd;clip-rule:evenodd;" d="M39.082,44.265c0.233,0.037,0.329,0.771,0,0.783
		C38.922,44.915,38.956,44.405,39.082,44.265z"/>
	<path style="fill-rule:evenodd;clip-rule:evenodd;" d="M22.843,44.314c0.249,0.027,0.12,0.413,0.098,0.587
		C22.787,44.826,22.859,44.526,22.843,44.314z"/>
	<path style="fill-rule:evenodd;clip-rule:evenodd;" d="M21.816,44.509c0.13,0.531,0.26,1.294,0.196,1.859
		C21.656,46.039,21.879,45.132,21.816,44.509z"/>
	<path style="fill-rule:evenodd;clip-rule:evenodd;" d="M22.892,45.243c0.149,0.147,0.168,0.449,0.098,0.685
		C22.841,45.78,22.822,45.479,22.892,45.243z"/>
	<path style="fill-rule:evenodd;clip-rule:evenodd;" d="M40.501,50.232c0.133,0.192,0.258,0.784,0,0.93
		C40.167,51.105,40.063,50.248,40.501,50.232z"/>
	<path style="fill-rule:evenodd;clip-rule:evenodd;" d="M30.082,50.477c0.264-0.008,0.129,0.492,0.098,0.636
		C29.992,51.056,30.12,50.684,30.082,50.477z"/>
	<path style="fill-rule:evenodd;clip-rule:evenodd;" d="M29.055,51.455c0.3,0.287,0.511,0.663,1.076,0.685
		c0.214,0.292,0.122,0.829,0.049,1.223c-0.349-0.125-0.129-0.816-0.489-0.93c-0.314-0.053-0.422,0.1-0.636,0.147
		C28.883,52.362,28.929,51.683,29.055,51.455z"/>
	<path style="fill-rule:evenodd;clip-rule:evenodd;" d="M38.055,51.846c0.225-0.025,0.198,0.165,0.147,0.294
		C38.038,52.152,37.949,51.958,38.055,51.846z"/>
	<path style="fill-rule:evenodd;clip-rule:evenodd;" d="M31.501,57.178c0.288,0.096,0.363,0.925,0,0.978
		C31.365,57.978,31.339,57.351,31.501,57.178z"/>
	<path style="fill-rule:evenodd;clip-rule:evenodd;" d="M32.626,57.276c0.081,0.434,0.118,1.134,0.049,1.663
		C32.498,58.491,32.611,57.779,32.626,57.276z"/>
	<path style="fill-rule:evenodd;clip-rule:evenodd;" d="M30.376,58.156c0.234,0.516,0.719,0.781,1.32,0.929
		c0.106,0.35,0.188,1.049-0.098,1.272c-0.367-0.174-0.087-0.797-0.538-0.881c-0.233-0.043-0.489,0.131-0.587,0.44
		C30.132,59.573,30.303,58.659,30.376,58.156z"/>
	<path style="fill-rule:evenodd;clip-rule:evenodd;" d="M33.702,58.939c0.255,0.183,0.276,1.075,0.098,1.37
		C33.475,60.18,33.569,59.21,33.702,58.939z"/>
	<path style="fill-rule:evenodd;clip-rule:evenodd;" d="M30.718,0.34c0.263,0.019,0.236-0.252,0.489-0.244
		c0.385,0.154,0.71,0.359,1.076,0.049c0.317,0.025,0.341,0.344,0.733,0.293c0.32,0.034,0.524-0.322,0.88-0.392
		c0.459-0.089,1.279-0.028,1.956,0c0.971,0.041,1.786,0.027,2.446,0.245c0.26-0.033,0.413-0.173,0.734-0.146
		c0.37-0.06,0.431,0.188,0.733,0.195c0.364-0.192,1.279-0.533,1.664-0.098c0.113,0.557-0.357,0.918-0.489,1.418
		c-0.099,0.371-0.101,0.776-0.196,1.174c-0.078,0.328-0.247,0.691-0.293,1.027c-0.08,0.578,0.117,1.118,0.147,1.761
		c0.042,0.904-0.184,1.563,0,2.348c0.057,0.244,0.242,0.47,0.293,0.734c0.053,0.275-0.042,0.551,0.049,0.831
		c0.174,0.542,0.726,0.665,1.272,0.978c0.362,0.208,0.506,0.547,0.783,0.636c0.664,0.212,1.34,0.117,1.908,0.392
		c0.467,0.226,0.884,0.606,1.321,0.88c0.796,0.499,1.577,0.891,2.25,1.516c2.108,0.973,4.474,1.689,6.505,2.739
		c1.076-0.097,1.5,0.458,1.957,0.979c1.738,0.308,2.757,1.789,3.913,2.886c0.286,0.271,0.712,0.547,0.88,0.832
		c0.578,0.979,0.394,2.112,0.245,3.424c-0.063,0.559-0.35,1.188-0.293,1.712c0.046,0.427,0.665,0.927,1.027,1.419
		c0.978,1.324,1.704,3.254,2.25,4.94c0.374,1.153,0.724,2.419,1.027,3.767c0.289,1.283,0.666,2.634,0.881,3.913
		c0.111,0.666,0.064,1.342,0.146,2.005c0.096,0.766,0.537,1.409,0.783,2.201c0.22,0.709,0.098,1.507,0.293,2.201
		c0.168,0.593,1.031,0.813,1.272,1.418c0.227,0.57-0.062,1.564,0.098,2.104c0.175,0.59,0.904,0.726,1.516,0.978
		c0.419,0.397,0.737,0.894,0.88,1.565c0.173,0.381,0.578,0.531,0.538,1.125c-0.416,1.279-2.058,1.333-3.032,2.054
		c-0.364,0.028-0.841-0.059-1.125,0.049c-0.613,0.362-0.524,1.151-0.831,1.712c-0.358,0.652-1.021,1.059-1.37,1.663
		c-1.111,0.324-1.967,0.902-2.739,1.565c-1.039,0.13-1.708,0.6-2.739,1.076c-0.728,0.336-1.533,0.596-2.103,0.88
		c-0.328,0.164-0.538,0.553-0.881,0.636c-0.251,0.061-0.551-0.022-0.832,0c-0.484,0.039-0.97,0.229-1.418,0.391
		c-0.432,0.157-0.868,0.465-1.271,0.538c-0.341,0.062-0.692-0.053-1.027,0c-0.658,0.106-1.412,0.576-1.761,1.126
		c0.143,0.827,0.417,1.663,0.685,2.641c0.23,0.841,0.76,1.901,0.538,2.837c-0.107,0.453-0.534,1.041-0.929,1.419
		c-1.563,1.496-4.11,2.201-7.289,2.201c-1.48,0.001-3.047,0.098-4.646,0.098c-1.517,0-3.057,0.191-4.5,0.196
		c-1.91,0.006-3.833-0.098-5.625-0.098c-1.815,0-3.692,0.009-5.625-0.098c-1.732-0.096-3.889-0.162-5.674-0.587
		c-1.677-0.399-3.668-0.658-4.451-1.81c-0.534-0.785-0.587-2.065-0.195-2.984c0.215-0.504,0.982-1.372,0.832-2.201
		c-0.098-0.538-0.797-0.542-1.272-0.782c-1.056-0.534-1.878-1.698-3.081-2.152c-0.587-0.799-1.436-1.337-2.152-2.005
		c-0.705-0.658-1.324-1.427-2.152-1.957c-0.307-0.781-1.105-1.208-1.614-1.858c-0.155-0.199-0.239-0.432-0.391-0.636
		c-0.228-0.308-0.571-0.482-0.783-0.783c-0.143-0.204-0.236-0.524-0.391-0.783c-0.148-0.248-0.353-0.497-0.441-0.734
		C1.998,55.474,2.032,55.1,1.859,54.83c-0.172-0.269-0.665-0.29-0.929-0.587c-0.231-0.26-0.35-0.823-0.538-1.272
		C0.206,52.528,0.014,52.016,0,51.602c-0.009-0.292,0.115-0.549,0.146-0.832c0.063-0.565-0.031-1.116,0.196-1.614
		c0.295-0.647,0.76-1.076,1.272-1.517c0.277-0.081,0.713-0.004,0.929-0.146c0.216-0.295,0.089-0.577,0.098-0.93
		c0.052-2.229,0.652-4.601,1.076-6.603c0.153-0.725,0.225-1.461,0.391-2.152c0.666-2.77,1.536-5.396,2.299-7.924
		c0.813-2.693,1.556-5.313,2.543-7.679c0.978-2.343,2.82-3.974,4.304-5.87c2.369-1.383,5.114-2.605,7.777-3.815
		c0.349-0.158,0.637-0.479,0.979-0.636c0.521-0.239,1.166-0.35,1.712-0.636c0.357-0.188,0.725-0.582,1.076-0.685
		c0.787-0.231,1.642,0.087,2.495,0.049c0.983-0.044,1.464-0.536,2.103-1.076c0.295-0.634,0.587-1.272,1.125-1.663
		c0.035-0.531,0.32-1.184,0.098-1.663c-0.42,0.198,0.022,1.261-0.391,1.467c-0.418-0.161-0.072-0.756-0.049-1.223
		c0.039-0.796-0.094-1.472,0.538-1.712c-0.061-0.184-0.421-0.067-0.391-0.342c-0.135-0.688,0.016-1.37-0.049-2.005
		c-0.087-0.851-0.455-1.556-0.44-2.25C30.134-0.09,30.576,0.123,30.718,0.34z M35.267,3.079c0.865-0.162,0.08-1.887-0.636-0.88
		C34.637,2.697,34.789,3.169,35.267,3.079z M33.066,2.199c0.068,0.356,0.206,0.642,0.538,0.734c0.327-0.024,0.347-0.532,0.245-0.832
		C33.643,1.936,33.178,1.909,33.066,2.199z M36.099,2.786c0.157,0.224,0.5,0.449,0.881,0.293c0.181-0.127,0.185-0.586,0.098-0.831
		C36.717,1.903,35.909,2.03,36.099,2.786z M31.794,2.199c-0.042,0.27,0.097,0.36,0.293,0.391c0.013-0.068,0.107-0.055,0.146-0.098
		c0.036-0.149-0.05-0.178-0.049-0.293C32.074,2.168,31.891,2.102,31.794,2.199z M37.811,2.786c0.16,0.171,0.475,0.171,0.636,0
		c0.028-0.159-0.033-0.228-0.049-0.342C38.137,2.341,37.691,2.358,37.811,2.786z M35.414,5.378c-0.789-0.864-0.78,1.366-0.342,1.712
		C35.5,6.834,35.376,6.025,35.414,5.378z M32.871,5.427c0.435,0.314,0.273,1.227,0.587,1.663
		C33.935,6.591,33.744,4.476,32.871,5.427z M31.501,5.721c0.165,0.192,0.623,0.108,0.587-0.196C31.986,5.24,31.4,5.271,31.501,5.721
		z M36.784,5.427c-0.46,0.006-0.394,1.023,0.146,0.88C37.087,6.059,37.154,5.502,36.784,5.427z M30.62,5.916
		c0.161,0.024,0.206-0.282,0.049-0.293C30.613,5.681,30.614,5.796,30.62,5.916z M34.191,7.384c0.2,0.057,0.196-0.34,0.049-0.342
		C34.166,7.111,34.085,7.279,34.191,7.384z M32.528,8.46c-0.357,0.474-0.48,1.183-0.587,1.907c0.216,0.266,0.715,0.107,0.88-0.098
		c-0.044-0.768,0.836-0.85,0.587-1.663C33.207,8.409,32.832,8.44,32.528,8.46z M33.947,10.661c0.861,0.192,0.509-0.827,0.733-1.272
		c0.189-0.026,0.239,0.087,0.44,0.049c0.121-0.194,0.204-0.524,0.049-0.733c-0.247-0.035-0.337,0.087-0.489,0.147
		C33.919,7.736,33.597,10.074,33.947,10.661z M36.49,8.949c-0.569-1.222-1.104,0.495-0.636,1.223
		c0.038,0.011,0.097,0.001,0.098,0.049c0.556,0.067,0.457-0.521,0.538-0.929c0.133-0.095,0.47,0.014,0.44-0.245
		C36.889,8.909,36.666,8.953,36.49,8.949z M31.012,8.802c-0.118,0.55-0.43,0.907-0.538,1.467c0.899,0.363,0.895-0.986,1.223-1.516
		C31.579,8.41,31.142,8.612,31.012,8.802z M37.859,9.683c0.452-0.034,0.311-0.892,0.049-1.125
		C37.141,8.508,37.444,9.715,37.859,9.683z M29.789,9.829c0.369-0.12,0.52-0.458,0.538-0.929C29.974,8.849,29.85,9.429,29.789,9.829
		z M39.572,10.367c-0.047,0.323,0.455,0.547,0.587,0.245C40.097,10.414,39.81,10.231,39.572,10.367z M29.349,11.542
		c0.271,0.199,0.693-0.061,0.685-0.44C29.752,10.865,29.323,11.162,29.349,11.542z M31.11,11.688
		c0.179,0.351,0.967,0.204,0.978-0.195C31.975,10.992,31.067,11.189,31.11,11.688z M33.262,12.324
		c0.567,0.246,1.374,0.046,1.272-0.685c-0.038-0.011-0.057-0.041-0.049-0.098C33.927,11.154,32.951,11.55,33.262,12.324z
		 M36.197,11.835c0,0.17,0.202,0.382,0.538,0.342c0.027-0.07,0.076-0.12,0.146-0.146C36.877,11.518,36.196,11.347,36.197,11.835z
		 M38.789,12.031c0.134,0.115,0.659,0.295,0.685-0.049C39.478,11.664,38.669,11.497,38.789,12.031z M37.028,11.884
		c0.041,0.233,0.312,0.367,0.489,0.195C37.624,11.665,37.146,11.676,37.028,11.884z M30.082,20.444
		c-0.145-0.679-1.281-0.984-1.957-0.538c-0.191,0.55-0.067,1.918-0.098,2.788c-0.016,0.46-0.12,1.042,0.392,1.027
		c0.609-0.018,0.247-0.945,0.489-1.419c0.319-0.17,0.599-0.379,1.027-0.44c0.08,0.663-0.31,1.28-0.049,1.81
		c0.117,0.03,0.223,0.07,0.391,0.049c0.345-0.128,0.138-0.808,0.587-0.831c0.459,0.094,0.202,0.906,0.733,0.929
		c0.528-0.14,0.303-0.812,0.196-1.37c-0.18-0.937-0.054-2.186-0.489-2.739C30.552,19.436,30.294,20.02,30.082,20.444z
		 M35.903,21.177c-0.241-0.411-0.161-1.144-0.538-1.418c-0.27-0.063-0.448-0.028-0.685,0.049c-0.105,0.106-0.168,0.256-0.245,0.392
		c0.246,0.836-0.382,3.623,0.392,3.522c0.422-0.055,0.208-0.694,0.44-1.027c0.227,0.336,0.2,0.905,0.587,0.929
		c0.514,0.032,0.316-0.692,0.734-0.929c0.11,0.265,0.054,0.696,0.245,0.88c0.317,0.08,0.533-0.139,0.587-0.44
		c0.104-0.585,0.007-1.855-0.049-2.641c-0.025-0.345,0.044-0.678-0.196-0.831C36.075,19.49,36.37,20.716,35.903,21.177z
		 M37.859,21.862c-0.116,0.768-0.361,1.617,0.098,1.663c0.562,0.057,0.229-0.831,0.783-0.88c0.356,0.165,0.15,0.892,0.783,0.783
		c0.345-0.448,0.126-1.235,0.049-1.908c-0.076-0.664-0.132-1.426-0.44-1.81C37.897,19.358,38.028,20.752,37.859,21.862z
		 M32.332,19.857c-0.282,0.59-0.106,1.892-0.147,2.789c-0.024,0.525-0.158,1.283,0.538,1.174c0.445-0.174,0.041-1.199,0.392-1.467
		c0.428,0.257,0.009,1.36,0.587,1.467c0.707-0.207,0.354-1.769,0.195-2.299c0.23-0.369,0.386-1.189,0.049-1.566
		C33.606,19.695,32.758,19.609,32.332,19.857z M24.457,24.552c-0.066,0.53-0.13,1.417,0.098,1.81c0.259,0.136,0.49,0.022,0.88,0.049
		c0.247,0.216,0.337,1.272,0,1.467c-0.545-0.074-0.128-0.954-0.733-0.88c-0.41,0.05-0.381,0.883-0.196,1.223
		c0.237,0.436,0.696,0.393,1.272,0.391c0.781-0.309,0.771-2.049,0.342-2.739c-0.296-0.209-0.913-0.097-0.832-0.685
		c0.159-0.347,0.928-0.083,0.93-0.587C25.959,24.198,24.774,24.207,24.457,24.552z M41.724,24.651
		c-0.165,0.462-0.116,0.972-0.195,1.516c-0.116,0.789-0.594,1.664-0.196,2.25c0.669,0.066,0.317-0.889,0.88-0.929
		c0.361,0.21,0.138,1.004,0.832,0.88c0.413-0.264,0.182-0.839,0.147-1.321c-0.061-0.86-0.007-1.889-0.293-2.495
		C42.624,24.252,41.908,24.326,41.724,24.651z M28.028,25.384c0.226-0.183,0.221-0.593,0.049-0.832
		C26.962,23.824,26.455,25.757,28.028,25.384z M36.197,24.748c0.051,0.327,0.236,0.35,0.342,0.636
		c0.279,0.751-0.267,3.502,0.44,3.473c0.728-0.03,0.195-3.028,0.391-3.62c0.098-0.244,0.375-0.31,0.391-0.636
		C37.476,24.238,36.452,24.469,36.197,24.748z M39.523,24.406c-0.466,0.241-0.295,0.817-0.245,1.272
		c0.106,0.952,0.1,2.25,0.489,2.837c0.257,0.099,0.478,0.099,0.734,0c0.286-0.406,0.38-1.234,0.538-2.104
		c0.095-0.521,0.596-2-0.049-2.005c-0.656-0.005-0.225,1.265-0.783,1.467C39.898,25.465,40.272,24.374,39.523,24.406z M22.696,25.14
		c-0.03,0.282,0.135,0.428,0.196,0.733c0.17,0.86-0.288,2.506,0.489,2.642c0.614-0.357,0.271-1.559,0.342-2.495
		c0.037-0.488,0.056-1.135-0.098-1.517C23.192,24.322,22.741,24.72,22.696,25.14z M30.522,24.699
		c-0.127,0.773-0.051,1.988-0.049,2.935c0.001,0.538-0.168,1.229,0.44,1.37c0.619-0.175,0.211-1.31,0.342-1.858
		c0.089-0.237,0.42-0.233,0.44-0.538c-0.183-0.36-0.54-0.733-0.342-1.321c0.104-0.238,0.461-0.224,0.489-0.538
		C31.626,24.35,30.829,24.445,30.522,24.699z M38.104,24.748c-0.039,0.893,0.081,1.91,0.049,2.837
		c-0.013,0.37-0.139,1.117,0.342,1.125c0.605,0.01,0.353-1.398,0.391-2.25c0.042-0.924,0.257-1.607-0.195-2.005
		C38.331,24.388,38.237,24.588,38.104,24.748z M35.707,24.846c-0.655-0.627-2.021-0.196-1.663,1.076
		c0.093,0.498,0.716,0.993,0.929,1.468c0.104,0.231,0.313,0.763-0.098,0.929c-0.129-1.089-1.236-0.542-0.734,0.489
		c0.358,0.562,1.464,0.434,1.712-0.147c0.498-1.587-1.036-2.049-0.831-3.179c0.232,0.012,0.251,0.238,0.538,0.196
		C35.852,25.579,35.845,25.116,35.707,24.846z M32.284,24.748c-0.043,1.186-0.334,3.248,0.146,4.305
		c0.301,0.091,1.088,0.249,1.174-0.147c-0.633-0.359-0.771-1.821-0.049-2.25c-0.292-0.295-0.596-0.578-0.489-1.272
		c0.103-0.288,0.547-0.236,0.587-0.587C33.471,24.487,32.54,24.55,32.284,24.748z M43.681,24.797
		c-0.115,0.333-0.283,2.185-0.196,2.935c0.037,0.314,0.238,0.576,0.342,0.685c0.225,0.065,0.692,0.198,0.88,0
		c0.017-0.408-0.459-0.323-0.489-0.685c-0.121-1.024,0.296-2.309-0.147-3.033C43.905,24.696,43.73,24.684,43.681,24.797z
		 M41.479,29.884c-0.269,0.644-0.222,1.653-0.294,2.544c-0.052,0.642-0.458,1.493,0.098,1.809c0.51-0.06,0.19-0.951,0.685-1.027
		c0.48,0.175,0.13,1.012,0.733,0.978c0.637-0.036,0.219-1.085,0.146-1.565c-0.152-1.019-0.074-2.447-0.489-2.837
		C42.055,29.685,41.698,29.759,41.479,29.884z M43.24,30.862c0.049,1.112-0.154,2.948,0.293,3.326
		c0.265,0.081,0.775,0.085,0.978-0.049c-0.033-0.287-0.323-0.382-0.392-0.685c-0.25-1.11,0.261-2.74-0.245-3.669
		C43.109,29.561,43.212,30.219,43.24,30.862z M23.088,30.08c-0.023,0.283,0.218,0.361,0.293,0.685
		c0.223,0.955-0.596,3.708,0.245,3.766c0.485,0.034,0.468-0.689,0.489-1.174c0.044-1.007-0.03-1.895,0.147-2.69
		c0.115-0.228,0.406-0.279,0.441-0.587C24.526,29.722,23.26,29.702,23.088,30.08z M44.805,30.178c-0.093,0.338-0.01,1.108,0,1.663
		c0.015,0.82,0.185,1.676,0.098,2.25c0.203,0.223,0.572,0.479,0.978,0.342c0.121-0.273-0.228-0.437-0.293-0.783
		c-0.111-0.584,0.116-1.229,0.293-1.663c-0.219-0.287-0.351-0.66-0.293-1.223c0.079-0.263,0.386-0.299,0.391-0.636
		C45.691,29.713,44.932,29.718,44.805,30.178z M20.642,30.031c-0.122-0.041-0.192-0.134-0.342-0.147
		c-0.186,0.12-0.316,0.307-0.343,0.538c-0.122,1.065-0.107,2.961,0.147,3.913c0.381-0.089,0.548-0.089,0.929,0
		c0.39-0.336-0.059-1.21,0.294-1.565c0.458,0.415,0.149,2.035,1.125,1.614c0.226-1.307,0.181-2.885,0.293-4.305
		c-0.719-0.717-0.711,0.629-0.88,1.076c-0.323-0.313-0.139-1.133-0.636-1.272C20.932,29.832,20.895,30.04,20.642,30.031z
		 M24.995,30.276c0.104,1.388-0.095,2.771,0.049,4.207c0.183,0.226,1.232,0.377,1.32-0.049c-0.602-0.165-0.723-0.81-0.636-1.663
		c0.068-0.307,0.447-0.303,0.489-0.636c-0.358-0.259-0.573-0.793-0.342-1.37c0.17-0.189,0.495-0.223,0.685-0.392
		C26.532,29.801,25.155,29.857,24.995,30.276z M40.159,30.129c-0.155,0.366,0.087,1.131-0.147,1.418
		c-0.447-0.237-0.208-1.161-0.684-1.369c-0.189-0.01-0.36-0.002-0.489,0.049c-0.362,0.584-0.089,1.717-0.049,2.641
		c0.025,0.575-0.147,1.351,0.342,1.565c0.423-0.049,0.111-0.835,0.44-0.978c0.112,0.667,0.886,1.488,1.223,0.538
		c-0.1-1.175-0.008-2.781-0.293-3.913C40.338,29.997,40.334,30.111,40.159,30.129z M26.854,30.324c0.026,1.213-0.041,2.981,0,4.207
		c0.119,0.093,0.242,0.182,0.489,0.147c0.527-0.346-0.082-1.557,0.489-1.81c0.319,0.512-0.273,1.936,0.636,1.859
		c0.396-0.532,0.2-1.932-0.049-2.446C29.369,31.234,28.201,29.453,26.854,30.324z M38.447,33.406
		c-0.001-0.894,0.019-1.987-0.049-2.739c-0.378-0.775-1.636-0.376-1.761,0.342c0.055,1.347-0.174,2.979,0.441,3.766
		C38.185,35.07,38.448,34.524,38.447,33.406z M29.055,30.716c-0.007,0.886,0.034,1.902,0,2.642c-0.024,0.526-0.159,1.26,0.342,1.418
		c0.43-0.173-0.038-1.244,0.392-1.418c0.236,0.587,0.545,2.284,1.321,1.272c-0.081-0.716-0.049-1.552-0.049-2.397
		c0-0.629,0.174-1.417-0.294-1.663c-0.54-0.002-0.264,0.812-0.489,1.125C30.205,31.018,29.614,29.733,29.055,30.716z M35.707,32.183
		c0.048,0.585-0.272,2.734,0.342,2.739c0.159,0.001,0.346-0.196,0.392-0.392c0.095-0.411-0.025-1.33,0-2.054
		c0.018-0.541-0.104-1,0-1.467c-0.083-0.178-0.177-0.345-0.343-0.44c-0.351-0.025-0.375,0.277-0.636,0.342
		c-0.192-0.366-1.373-0.357-1.516,0.049c0.118,0.208,0.436,0.216,0.489,0.489c-0.067,1.286-0.574,2.133-0.733,3.326
		c0.156,0.448,1.209,0.34,1.516,0.098c-0.123-0.317-0.49-0.187-0.587-0.538c-0.109-0.394,0.199-1.037,0.342-1.565
		c0.166-0.607,0.217-1.222,0.538-1.418C35.607,31.592,35.683,31.881,35.707,32.183z M31.941,30.667
		c-0.364,0.594-0.305,1.704-0.44,2.592c-0.087,0.572-0.501,1.479,0.146,1.712c0.487-0.067,0.172-0.937,0.685-0.979
		c0.462,0.158,0.129,1.109,0.783,1.076c0.008-0.057,0.077-0.053,0.146-0.049c0.273-0.649-0.06-1.623-0.146-2.495
		c-0.068-0.688,0.051-1.428-0.343-1.858C32.532,30.6,32.181,30.6,31.941,30.667z M43.534,36.341
		c-0.636-0.523-1.699-0.091-1.712,0.733c0.323,0.981-0.136,2.745,0.538,3.375c0.459,0.212,1.145,0.074,1.37-0.245
		C43.915,39.035,43.851,37.327,43.534,36.341z M24.457,36.292c-0.173,0.136-0.191,0.429-0.342,0.587
		c-0.208-0.587-1.202-0.812-1.908-0.587c-0.265,0.313-0.086,0.708-0.049,1.223c0.081,1.132-0.292,2.55,0.196,3.277
		c0.957,0.274,1.505-0.246,1.761-0.831c0.135,0.272,0.107,0.708,0.342,0.88c0.46,0.064,1.217,0.222,1.37-0.245
		c-0.169-0.173-0.526-0.158-0.636-0.392c-0.167-0.346-0.096-0.996-0.049-1.418c0.082-0.261,0.478-0.207,0.489-0.538
		c-0.456-0.179-0.684-0.828-0.44-1.418c0.143-0.232,0.564-0.186,0.636-0.489C25.61,35.966,24.805,36.203,24.457,36.292z
		 M26.121,36.585c0.066,1.26,0.018,3.036-0.098,4.109c0.19,0.415,1.364,0.489,1.712,0.147c-0.017-0.375-0.523-0.259-0.636-0.538
		c-0.142-1.179,0.045-2.686-0.098-3.864C26.805,36.133,26.183,36.218,26.121,36.585z M41.773,39.227
		c-0.071-0.331-0.378-0.604-0.392-0.88c-0.021-0.418,0.32-0.826,0.245-1.223c-0.139-0.73-1.14-0.818-1.859-0.391
		c-0.14,0.532,0.061,1.841,0.098,2.69c0.024,0.542-0.084,1.506,0.489,1.418c0.622-0.096,0.016-1.378,0.44-1.761
		c0.38,0.386-0.024,1.556,0.685,1.614C41.862,40.415,41.895,39.79,41.773,39.227z M37.664,36.83
		c0.039,0.323,0.251,0.401,0.342,0.685c0.266,0.824-0.03,3.708,0.783,3.571c0.477-0.081,0.284-1.365,0.245-1.859
		c-0.053-0.666-0.272-1.342-0.196-1.81c0.046-0.282,0.29-0.363,0.293-0.685C38.752,36.557,37.946,36.604,37.664,36.83z
		 M36.001,36.977c-0.149,0.851-0.205,2.032-0.245,2.935c-0.022,0.5-0.176,1.21,0.293,1.37c0.487-0.1,0.088-1.086,0.636-1.125
		c0.493,0.12,0.201,1.162,0.881,0.978c0.448-0.122-0.002-1.487-0.098-2.103c-0.151-0.969-0.299-1.759-0.538-2.201
		C36.606,36.704,36.187,36.813,36.001,36.977z M33.555,37.123c0.045,0.953,0.147,1.912,0.147,2.837c0,0.492,0.002,1.078,0.245,1.467
		c0.364,0.065,1.104,0.141,1.223-0.196c-0.14-0.251-0.581-0.201-0.636-0.538c-0.016-0.716-0.074-1.476,0.342-1.761
		c-0.108-0.202-0.356-0.264-0.44-0.489c-0.06-0.218-0.053-0.501-0.049-0.783c0.065-0.326,0.501-0.282,0.489-0.685
		C34.527,36.786,33.743,36.845,33.555,37.123z M31.647,37.074c-0.12,0.251,0.245,0.395,0.294,0.636
		c0.113,0.427,0.074,0.9,0.098,1.418c0.043,0.953-0.036,2.309,0.733,2.396c0.011-0.038,0.041-0.057,0.098-0.049
		c0.387-1.321-0.394-3.281,0.195-4.354C32.829,36.894,31.954,36.926,31.647,37.074z M15.408,61.58
		c0.037-0.329,0.171-0.63,0.196-0.978c0.04-0.563-0.085-1.144-0.049-1.712c0.05-0.774,0.343-1.53,0.342-2.25
		c0-0.473-0.201-0.928-0.196-1.37c0.008-0.646,0.36-1.375,0.538-2.104c0.183-0.751,0.13-1.586,0.245-2.397
		c0.076-0.534,0.297-1.062,0.391-1.614c0.203-1.193,0.459-2.493,0.636-3.767c0.323-2.323,0.445-4.365-0.098-6.31
		c-0.202-0.724-0.548-1.944-1.272-1.565c-0.358,1.047,0.171,1.664,0.245,2.446c0.093,1.003-0.037,2.034-0.098,2.837
		c-0.032,0.429,0.014,0.905-0.049,1.174c-0.255,1.09-1.076,2.146-1.565,2.935c-0.192,0.31-0.345,0.648-0.587,0.929
		c-0.62,0.718-2.294,1.532-2.25,2.397c0.034,0.652,0.853,0.898,1.027,1.468c0.207,0.676,0.112,1.667-0.049,2.152
		c-0.212,0.64-1.19,1.821-1.712,2.348c-0.239,0.241-0.717,0.471-0.734,0.733c-0.041,0.658,0.912,0.795,1.321,1.272
		c0.291,0.341,0.274,0.618,0.391,1.076c0.637,0.776,1.123,1.694,1.81,2.446c0.225,0.246,0.585,0.359,0.783,0.636
		c0.191,0.27,0.157,0.635,0.391,0.88C15.646,62.958,15.346,62.143,15.408,61.58z M50.186,42.406
		c-0.287,0.72-0.276,1.897-0.636,2.837c-0.249,0.648-0.377,1.35-0.636,1.956c-0.081,0.191-0.233,0.396-0.293,0.587
		c-0.289,0.912,0.024,2.146,0.147,3.179c0.096,0.808,0.229,1.654,0.293,2.495c0.279,3.682-0.105,7.423,2.25,8.854
		c1.186-0.608,2.272-1.315,3.033-2.348c0.194-0.1,0.474-0.114,0.685-0.196c1.08-0.861,2.424-1.456,3.277-2.544
		c0.636-0.167,1.854-0.742,1.81-1.369c-0.035-0.498-0.593-0.472-1.125-0.734c-0.486-0.24-1.582-1.301-1.614-1.859
		c-0.036-0.616,0.578-0.842,0.587-1.565c-0.564-0.12-1.285,0.306-2.103,0.049c-1.541-0.677-2.387-1.982-3.082-3.62
		c-0.619-1.46-1.454-2.595-2.005-3.864c0.012-0.352-0.217-0.736-0.245-1.125c-0.021-0.301,0.234-0.761-0.146-0.88
		C50.259,42.251,50.228,42.335,50.186,42.406z M45.393,46.612c-0.081-1.286,0.582-3.988-0.489-4.304
		c-0.749-0.096-0.962,0.343-1.174,0.783c0.024,0.901,0.071,1.811-0.098,2.445c-0.191-0.278-0.203-1.076-0.195-1.565
		c0.006-0.436,0.325-1.577-0.343-1.565c-0.689,0.012-0.403,1.699-0.44,2.543c-0.041,0.937-0.011,1.995,0.587,1.908
		c0.334-0.049,0.292-0.389,0.44-0.783C43.755,46.868,44.884,47.358,45.393,46.612z M40.648,42.504
		c-0.3,0.457-0.104,1.319-0.049,2.201c0.044,0.715-0.231,2.151,0.342,2.201c0.796,0.068,0.165-1.29,0.44-1.712
		c0.147,0.637,0.081,1.949,0.88,1.614c0.458-0.909-0.241-1.807-0.245-2.396c-0.003-0.611,0.589-1.358-0.048-1.859
		C41.664,42.395,40.993,42.326,40.648,42.504z M36.539,42.651c-0.023,0.333,0.238,0.382,0.293,0.636
		c0.237,0.885-0.096,2.403,0.049,3.277c0.046,0.276,0.252,0.627,0.538,0.587c0.712-0.099,0.074-3.312,0.293-3.913
		c0.098-0.269,0.388-0.235,0.392-0.587C37.895,42.369,36.867,42.46,36.539,42.651z M38.74,42.602
		c-0.214,0.253-0.159,0.761-0.196,1.272c-0.033,0.455-0.721,3.095-0.098,3.13c0.555,0.032,0.145-0.901,0.685-0.979
		c0.435,0.136,0.188,0.954,0.685,1.027c0.219-0.01,0.303-0.153,0.44-0.245c-0.196-1.435-0.277-2.983-0.636-4.255
		C39.369,42.394,38.953,42.454,38.74,42.602z M32.822,43.629c0.028,1.11,1.514,1.631,1.125,2.739
		c-0.361-0.11-0.215-0.575-0.685-0.489c-0.669,0.123-0.166,1.395,0.538,1.467c0.386,0.04,0.523-0.08,0.93-0.293
		c1.092-1.531-1.175-2.331-0.881-3.669c0.328,0.108,0.283,0.503,0.636,0.44c0.374-0.066,0.315-0.603,0.146-0.978
		C33.837,42.177,32.797,42.675,32.822,43.629z M28.664,43.14c-0.026,0.173,0.078,0.373,0.098,0.587
		c0.108,1.155-0.163,2.92,0.342,3.571c0.412,0.046,1.14,0.135,1.223-0.293c-0.081-0.294-0.567-0.184-0.636-0.489
		c-0.288-0.716-0.015-1.532,0.44-1.81c-0.435-0.196-0.714-0.716-0.538-1.37c0.146-0.246,0.564-0.218,0.587-0.587
		C29.629,42.341,28.758,42.512,28.664,43.14z M35.414,42.602c-0.367,0.573-0.151,1.858-0.196,2.837
		c-0.033,0.723-0.211,1.776,0.636,1.712c0.45-0.465,0.225-1.404,0.196-2.201c-0.03-0.811,0.133-1.695-0.146-2.299
		C35.689,42.587,35.657,42.563,35.414,42.602z M32.332,44.656c0.012-0.358,0.287-0.598,0.294-0.978
		c0.019-1.04-1.151-1.484-2.006-0.734c0.122,1.471-0.018,2.856,0.147,4.158c0.219,0.119,0.388,0.172,0.636,0.049
		c0.288-0.42-0.033-1.344,0.244-1.858c0.335,0.488-0.16,1.863,0.734,1.908C33.107,46.747,32.314,45.219,32.332,44.656z
		 M28.077,47.053c0.162-1.338,0.264-2.736,0.489-4.011c-1.082-1.193-0.632,1.527-1.027,2.054c-0.473-0.457-0.004-2.292-0.782-2.299
		c-0.663-0.005-0.261,1.017-0.196,1.321c0.223,1.035,0.2,2.383,0.636,3.13C27.534,47.412,27.878,47.28,28.077,47.053z
		 M26.267,43.238c-0.185-0.604-0.95-0.462-1.076,0.098c-0.176-0.166-0.23-0.454-0.636-0.392c-0.301,0.074-0.196,0.554-0.294,0.832
		c-0.257-0.666-0.898-1.364-1.418-0.489c-0.215-0.535-0.875-0.403-1.076,0.049c-0.142-0.227-0.226-0.427-0.538-0.392
		c-0.497,0.057-0.364,0.645-0.342,1.125c0.044,0.956,0.09,2.226,0.146,2.837c0.22,0.58,0.958,0.903,1.517,0.538
		c0.305-0.199,0.219-0.541,0.538-0.685c0.121,0.205,0.128,0.524,0.44,0.538c0.38-0.174,0.033-1.076,0.293-1.37
		c0.469,0.358,0.172,1.503,0.93,1.468c0.964-0.045,0.131-1.811,0.538-2.446c0.177,0.766-0.384,2.397,0.734,2.348
		C26.457,46.294,25.966,44.461,26.267,43.238z M43.631,53.608c0.298,0.797,1.379,0.703,1.467-0.196c0.062-0.628,0.029-2.092,0-3.033
		c-0.038-1.228-0.983-1.399-1.712-0.587c-0.156-0.516-1.194-0.461-1.614-0.196c0.059,0.424,0.548,0.292,0.636,0.734
		c0.073,0.365-0.183,1.088-0.293,1.614c-0.123,0.584-0.19,1.23-0.489,1.467c0-0.645-0.342-1.174-0.391-1.761
		c-0.043-0.515,0.322-1.055,0.098-1.664c-0.205-0.578-1.414-0.731-1.859-0.244c-0.086,0.312,0.024,0.619,0.049,0.978
		c0.08,1.17-0.003,2.582,0.342,3.424c0.129,0.051,0.3,0.058,0.489,0.049c0.462-0.345-0.221-1.533,0.245-2.005
		c0.418,0.413,0.064,1.598,0.636,1.858c0.265-0.012,0.293-0.261,0.44-0.391c0.1,0.424,1.26,0.693,1.517,0.195
		c-0.022-0.304-0.467-0.185-0.489-0.489c-0.066-1.144,0.304-2.272,0.636-3.18C43.676,51.009,43.336,52.817,43.631,53.608z
		 M30.865,54.048c0.229-0.356,0.144-1.093,0.146-1.858c0.004-1.072,0.271-2.03-0.146-2.495c-0.534-0.484-1.519-0.171-1.81,0.293
		c-0.152-0.803-1.149-0.353-1.174,0.294c-0.007,0.191,0.19,0.364,0.245,0.636c0.208,1.035-0.339,2.925,0.294,3.277
		c0.377,0.057,0.445-0.421,0.684-0.343C29.435,54.437,30.513,54.596,30.865,54.048z M37.517,49.792
		c-0.129,0.908-0.112,2.277-0.195,3.277c-0.036,0.434-0.324,1.206,0.391,1.174c0.402-0.152-0.004-1.113,0.538-1.125
		c0.46,0.144,0.167,1.039,0.734,1.076c0.845-0.07,0.161-1.592,0.049-2.25c-0.17-0.999-0.181-1.874-0.538-2.348
		C38.134,49.485,37.7,49.578,37.517,49.792z M35.756,49.89c-0.267,0.369-0.091,1.181-0.44,1.468
		c-0.219-0.715-0.409-2.192-1.418-1.321c-0.011,0.038-0.001,0.096-0.049,0.098c0.006,0.801,0.011,1.816,0.049,2.641
		c0.03,0.634-0.042,1.452,0.538,1.565c0.31-0.18,0.008-0.971,0.294-1.174c0.357,0.279,0.22,1.051,0.733,1.174
		c0.543-0.077,0.203-1.036,0.636-1.223c0.209,0.373,0.04,1.199,0.538,1.174c0.19-0.01,0.319-0.28,0.343-0.44
		c0.061-0.411-0.162-1.21-0.196-1.956c-0.037-0.812,0.084-1.608-0.098-2.006C36.447,49.718,35.986,49.7,35.756,49.89z M27.05,49.89
		c-0.003,0.062-0.063,0.068-0.049,0.147c-0.226,0.41-0.408,0.864-0.489,1.418c-0.314,0.429-0.439,0.994-0.636,1.516
		c-0.196,0.519-0.602,1.007-0.538,1.566c0.482-0.35,0.614-1.049,0.832-1.663c0.447-0.89,0.844-1.83,1.027-2.984
		C27.147,49.89,27.099,49.89,27.05,49.89z M21.865,50.868c-0.01,0.2,0.157,0.429,0.196,0.685c0.057,0.375,0.076,0.96,0.098,1.468
		c0.033,0.735-0.178,1.603,0.441,1.614c0.889-0.64-0.116-2.607,0.489-3.375c0.415,0.652-0.255,3.537,0.733,3.375
		c0.417-0.068,0.317-0.839,0.293-1.37c-0.042-0.952,0.288-3.184-0.391-3.228c-0.285-0.019-0.316,0.276-0.685,0.44
		C22.68,49.679,21.898,50.205,21.865,50.868z M4.061,56.004c0.028,0.543,0.393,0.749,0.782,0.929
		C4.794,56.443,4.547,55.744,4.061,56.004z M30.474,56.983c-0.057,0.252,0.12,0.739-0.098,0.831
		c-0.006-0.653,0.036-1.445-0.489-1.467c-0.157-0.007-0.637,0.339-0.684,0.733c-0.036,0.289,0.208,0.73,0.244,1.272
		c0.071,1.054-0.432,2.772,0.636,2.739c0.229-0.097,0.216-0.436,0.391-0.587c0.235,0.286,0.407,0.637,0.783,0.783
		c1.072,0.143,1.246-0.612,1.467-1.32c0.059,0.577,0.268,1.004,0.685,1.223c0.819,0.135,1.105-0.265,1.467-0.587
		c0.093,0.15,0.126,0.396,0.342,0.44c0.675,0.138,0.687-1.234,0.88-1.957c0.224-0.835,0.68-2.132,0.293-2.739
		c-0.453-0.079-1.244-0.115-1.418,0.244c0.091,0.268,0.5,0.217,0.636,0.44c0.175,0.557-0.112,1.101-0.244,1.614
		c-0.137,0.531-0.103,1.169-0.489,1.516c-0.298-0.566-0.005-1.723-0.489-2.103c-0.227-0.131-0.691-0.027-0.783-0.294
		c-0.099-0.193-0.009-0.411,0.098-0.538c0.249,0.061,0.25,0.371,0.636,0.294c0.123-0.041,0.155-0.172,0.245-0.245
		c0.127-1.304-1.829-1.168-1.956-0.196C32.4,56.14,30.757,55.883,30.474,56.983z M6.311,56.396C6.076,56.42,5.861,56.75,5.87,57.08
		c0.008,0.292,0.33,0.646,0.489,0.88c0.352,0.522,0.987,1.099,1.223,0.098C7.293,57.769,6.849,56.339,6.311,56.396z M60.36,57.325
		c-0.355,0.298-0.84,0.52-0.88,0.88c0.462,0.187,0.898-0.301,1.272-0.538c0.418-0.264,0.962-0.48,1.125-0.929
		C61.334,56.293,60.807,56.949,60.36,57.325z M65.985,57.129c0.337,0.044,0.484-0.103,0.44-0.44
		C66.074,56.479,65.705,56.847,65.985,57.129z M9.196,57.129C9.24,57.39,9.47,57.688,9.734,57.57
		C9.731,57.268,9.499,56.972,9.196,57.129z M64.126,58.548c0.637-0.067,1.412-0.398,1.076-1.125
		C64.542,57.266,63.473,57.992,64.126,58.548z M61.241,59.673c-0.23,0.218-0.66,0.297-0.587,0.685
		c0.353,0.131,0.809-0.185,1.272-0.441c0.631-0.348,1.583-0.627,0.929-1.32C61.925,58.552,61.677,59.26,61.241,59.673z
		 M57.67,59.281c0.136,0.185,0.34,0.026,0.489-0.049c0-0.098,0-0.196,0-0.294C57.914,58.827,57.714,59.045,57.67,59.281z
		 M7.631,59.477c-0.031,0.337,0.494,0.719,0.734,0.979c0.634,0.687,1.08,1.188,1.663,1.761c0.31,0.305,0.6,0.807,1.027,0.538
		c0.04-0.389-0.412-0.692-0.293-1.32c-0.622-0.862-1.222-1.746-2.055-2.397C8.285,59.034,7.672,59.03,7.631,59.477z M58.257,60.602
		c-0.92,0.564-2.181,0.787-2.691,1.761c0.892,0.133,1.897-0.444,2.642-0.783c0.127-0.248,0.239-0.51,0.293-0.832
		C58.415,60.705,58.358,60.631,58.257,60.602z M12.424,63.439c-1.671-0.208,0.373,1.472,0.979,1.517
		C13.282,64.245,12.748,63.947,12.424,63.439z"/>
</g>
<g id="Layer_1">
</g>
</svg>
