<?xml version="1.0" encoding="iso-8859-1"?>
<!-- Generator: Adobe Illustrator 21.0.2, SVG Export Plug-In . SVG Version: 6.00 Build 0)  -->
<svg version="1.1" xmlns="http://www.w3.org/2000/svg" xmlns:xlink="http://www.w3.org/1999/xlink" x="0px" y="0px"
	 viewBox="0 0 16.431 10.966" style="enable-background:new 0 0 16.431 10.966;" xml:space="preserve">
<g id="A_x5F_Boivin_x5F_Publicite">
	<path d="M1.236,1.339C2.034,0.529,3.145,0.03,4.284,0c1.673,0.003,3.347,0,5.02,0.001C9.302,2.925,9.305,5.849,9.303,8.773
		c0.915-0.006,1.829-0.003,2.744-0.002c0.555-0.028,1.113-0.24,1.506-0.641c0.469-0.449,0.72-1.114,0.653-1.761
		c-0.033-0.513-0.285-0.991-0.632-1.362c-0.409-0.389-0.959-0.641-1.528-0.643c-0.746,0.001-1.491-0.004-2.237,0.003
		C9.81,2.912,9.809,1.456,9.808,0c0.745,0.001,1.49,0.001,2.234,0c-0.003,0.727,0,1.454-0.002,2.18
		c1.541-0.015,3.044,0.868,3.802,2.205c0.484,0.832,0.686,1.832,0.544,2.786c-0.161,1.157-0.808,2.241-1.757,2.923
		c-0.643,0.469-1.413,0.771-2.208,0.835c-0.503,0.063-1.011,0.022-1.517,0.034c-1.265,0.001-2.531-0.002-3.796,0.002
		c0.001-2.925,0-5.85,0-8.775C6.14,2.198,5.17,2.188,4.2,2.195C3.62,2.262,3.066,2.557,2.697,3.012
		C2.403,3.39,2.206,3.861,2.215,4.344c-0.03,0.632,0.26,1.26,0.73,1.678C3.302,6.339,3.763,6.543,4.24,6.581
		c0.788,0,1.576,0.001,2.363-0.001c0,1.462,0,2.924,0,4.386c-0.731-0.005-1.463-0.003-2.194-0.001c0-0.731-0.002-1.461,0.001-2.192
		C2.968,8.787,1.541,8.03,0.747,6.825C0.009,5.759-0.192,4.354,0.188,3.117C0.39,2.452,0.759,1.843,1.236,1.339z"/>
</g>
<g id="Layer_1">
</g>
</svg>
