<?xml version="1.0" encoding="iso-8859-1"?>
<!-- Generator: Adobe Illustrator 19.2.0, SVG Export Plug-In . SVG Version: 6.00 Build 0)  -->
<svg version="1.1" xmlns="http://www.w3.org/2000/svg" xmlns:xlink="http://www.w3.org/1999/xlink" x="0px" y="0px"
	 viewBox="0 0 76.636 76.907" style="enable-background:new 0 0 76.636 76.907;" xml:space="preserve">
<g id="A_x5F_and_x5F_M_x5F_Giuliani">
	<path style="fill-rule:evenodd;clip-rule:evenodd;" d="M45.821,0.931c0.216,4.901-0.01,10.542,0.142,15.522
		c1.297-0.114,2.408-0.546,3.597-0.757c3.888-0.69,8.355-0.227,11.594,0.899c4.325,1.504,7.669,4.238,10.316,7.382
		c1.348,1.6,2.448,3.536,3.218,5.632c0.794,2.161,1.528,4.456,1.798,7.051c0.42,4.029-0.086,8.495-0.994,11.925
		c-0.308,1.161-0.599,2.339-0.947,3.455c-0.637,2.043-1.767,4.12-2.839,6.01c-1.079,1.903-2.404,3.612-3.691,5.159
		c-4.04,4.854-9.055,8.621-15.38,11.168c-2.094,0.843-4.348,1.569-6.862,1.988c-5.023,0.837-11.049,0.737-16.042-0.521
		c-2.418-0.609-4.603-1.258-6.673-2.177C17.05,70.999,11.92,67.066,8.104,62.072c-3.774-4.939-6.77-10.85-7.761-18.787
		c-0.332-2.657-0.477-5.526-0.189-8.376c1.08-10.71,5.46-18.049,11.405-23.993c2.931-2.931,6.432-5.323,10.458-7.241
		c5.193-2.473,11.546-4.163,19.403-3.549C43.003,0.25,44.632,0.352,45.821,0.931z M36.688,15.317
		c-5.746,0.396-10.178,2.86-13.44,5.679c-2.966,2.66-5.188,5.818-6.625,9.938c-1.464,4.197-1.481,9.895-0.142,14.339
		c1.266,4.2,3.563,7.474,6.483,10.08c2.927,2.612,6.634,4.646,11.026,5.584c5.125,1.095,10.392,0.304,14.15-1.372
		c3.849-1.717,6.835-4.383,9.086-7.524c1.039-1.45,2.209-3.303,2.887-5.395c0.675-2.084,1.319-4.47,1.183-7.004
		c-0.139-2.602-0.797-4.516-2.177-6.105c-1.256-1.445-2.918-2.718-5.631-2.697c-3.204,0.024-5.568,1.863-6.72,4.022
		c-0.666,1.248-1.027,2.867-0.899,4.354c0.256,2.968,1.997,5.122,4.07,6.294c0.313,0.178,0.819,0.245,0.946,0.663
		c-2.915,0.205-6.231,0.047-9.464,0.047c-3.247,0-6.588,0.109-9.465-0.142c-1.608-3.327-1.677-8.618-0.805-12.588
		c0.446-2.028,1.086-3.801,1.893-5.442c0.815-1.658,1.973-2.997,2.839-4.496c2.305-2.495,5.051-4.83,8.329-6.247
		c0.456-0.197,1.077-0.257,1.373-0.757C43.167,15.601,40.023,15.088,36.688,15.317z"/>
</g>
<g id="Layer_1">
</g>
</svg>
