<?xml version="1.0" encoding="iso-8859-1"?>
<!-- Generator: Adobe Illustrator 19.2.0, SVG Export Plug-In . SVG Version: 6.00 Build 0)  -->
<svg version="1.1" xmlns="http://www.w3.org/2000/svg" xmlns:xlink="http://www.w3.org/1999/xlink" x="0px" y="0px"
	 viewBox="0 0 78.738 58.484" style="enable-background:new 0 0 78.738 58.484;" xml:space="preserve">
<g id="Aannemingsbedrijf_x5F_AMJ_x5F_Bergmans">
	<path style="fill-rule:evenodd;clip-rule:evenodd;" d="M31.044,0.219c-0.59,2.254-1.404,4.446-2.105,6.649
		c-0.701,2.204-1.432,4.39-2.2,6.553c-1.538,4.332-2.807,8.748-4.449,13.011c-2.784,0.174-5.985,0.096-8.993,0.096
		c-0.996,0-1.99,0.109-2.87-0.144c-0.053-0.574,0.245-1.121,0.431-1.674c2.549-7.595,4.969-15.38,7.701-23.104
		c0.249-0.702,0.321-1.416,0.909-1.531c0.873-0.169,1.992,0,2.966,0c1.955,0,3.874,0,5.836,0C29.216,0.075,30.17-0.039,31.044,0.219
		z"/>
	<path style="fill-rule:evenodd;clip-rule:evenodd;" d="M44.247,0.267c0.238,2.015,0.163,4.162,0.096,6.314
		c-0.205,6.526,0.233,13.483-0.096,19.899c-1.774,0.251-3.863,0.096-5.932,0.096c-2.017,0-4.025,0.032-5.835-0.143
		c-0.339-4.396,0.104-9.014-0.048-13.25c-0.113-3.144,0-6.538,0-9.902c0-0.555,0-1.117,0-1.674c0-0.48-0.121-1.062,0.192-1.483
		C36.392,0.086,40.537,0.085,44.247,0.267z"/>
	<path style="fill-rule:evenodd;clip-rule:evenodd;" d="M45.777,26.48c-0.158-0.926-0.156-2.469,0-3.396
		c3.951-0.088,8.218-0.232,12.102-0.048c4.603,0.218,7.863-2.701,7.462-6.936c-0.28-2.953-2.475-5.163-5.405-5.597
		c-1.123-0.166-2.398-0.048-3.587-0.048c-3.625,0.001-7.021,0.109-10.523-0.095c-0.244-0.608-0.144-1.626-0.144-2.536
		c0-1.748,0.048-3.137,0.048-5.214c0-0.715-0.193-2.268,0.335-2.392c1.113-0.261,2.811,0.059,4.209,0
		c1.227-0.052,2.664-0.048,3.922-0.048c2.768,0,5.546-0.103,8.036,0.096c5.139,0.41,8.614,2.85,11.145,5.501
		c1.6,1.832,3.309,4.277,3.444,7.653c0.146,3.638-0.823,6.569-2.439,8.658c-1.15,1.701-2.61,2.875-4.592,3.731
		c-2.068,0.893-4.541,0.813-7.51,0.813c-2.687,0-5.521,0-8.323,0C51.122,26.623,48.32,26.733,45.777,26.48z"/>
	<path style="fill-rule:evenodd;clip-rule:evenodd;" d="M21.717,27.915c0.026,0.683-0.287,1.33-0.478,1.961
		c-1.33,4.389-2.916,8.874-4.401,13.298c-0.848,2.525-1.66,5.063-2.535,7.558c-0.879,2.508-1.544,5.079-2.583,7.51
		c-2.391,0.073-4.771,0.096-7.223,0.096c-1.511,0-3.065,0.117-4.497-0.144c0.109-1.166,0.653-2.208,1.004-3.3
		c0.692-2.153,1.258-4.313,1.961-6.41c1.635-4.872,3.33-9.808,4.879-14.733c0.621-1.973,1.255-3.933,2.009-5.836
		c0.071-0.025,0.121-0.071,0.191-0.096C13.904,27.882,18.017,27.692,21.717,27.915z"/>
	<path style="fill-rule:evenodd;clip-rule:evenodd;" d="M45.777,58.337c-0.343-1.626-0.024-3.43-0.096-5.118
		c-0.073-1.734-0.048-3.487,0.096-5.166c2.332-0.171,4.69-0.096,7.032-0.096c2.397,0,4.833,0.193,7.127-0.048
		c2.043-0.214,3.578-1.206,4.736-2.44c1.192-1.271,1.977-2.93,2.009-5.166c0.033-2.277-0.895-3.893-2.009-5.166
		c-1.097-1.254-2.814-2.206-4.784-2.392c-2.253-0.213-4.708-0.048-7.128-0.048c-1.196,0-2.389,0-3.587,0
		c-1.147,0-2.335,0.111-3.444-0.144c-0.086-0.694-0.048-1.53-0.048-2.344c0-0.79-0.109-1.621,0.144-2.2
		c3.813-0.175,8.263-0.095,12.293-0.096c3.782,0,8.595-0.45,11.385,0.67c2.675,1.074,4.932,3.17,6.505,5.549
		c1.627,2.459,2.799,5.6,2.727,9.232c-0.077,3.836-1.37,6.599-3.157,8.897c-2.565,3.298-6.416,5.901-11.958,6.123
		C57.836,58.616,51.626,58.376,45.777,58.337z"/>
</g>
<g id="Layer_1">
</g>
</svg>
