<?xml version="1.0" encoding="iso-8859-1"?>
<!-- Generator: Adobe Illustrator 19.2.0, SVG Export Plug-In . SVG Version: 6.00 Build 0)  -->
<svg version="1.1" xmlns="http://www.w3.org/2000/svg" xmlns:xlink="http://www.w3.org/1999/xlink" x="0px" y="0px"
	 viewBox="0 0 79.804 61.221" style="enable-background:new 0 0 79.804 61.221;" xml:space="preserve">
<g id="Abbott">
	<path style="fill-rule:evenodd;clip-rule:evenodd;" d="M58.312,20.487c0.217,3.232,0.224,7.023,0,10.095
		c-13.701,0.443-27.863-0.192-41.812,0.197c-0.937,0.026-1.869-0.088-2.722,0.05c-1.51,0.243-2.683,1.432-2.969,2.969
		c-0.368,1.981-0.099,4.839-0.099,7.026c0,2.421-0.241,4.766,0.099,6.978c0.322,2.093,1.917,2.919,4.403,2.919
		c15.852,0.001,31.25-0.1,47.157-0.099c2.634,0,4.644-0.049,5.739-1.584c1.089-2.289,0.742-5.626,0.743-8.708
		c0-3.127-0.051-6.412-0.05-9.402c0.001-3.083,0.185-6.299,0.05-9.401c-0.134-3.034,0.353-6.25-0.792-8.561
		c-0.967-2.152-3.59-2.325-6.532-2.325c-6.045,0-11.22,0.05-17.367,0.05c-14.495,0-29.045,0.151-43.693-0.05
		c-0.189-3.248-0.155-7.064,0-10.392C1.036-0.014,1.707,0.1,2.298,0.1C19.542,0.102,37.632,0.002,54.65,0.002
		c4.135,0,7.912,0,11.976,0c1.38,0,2.778-0.023,3.958,0.099c2.477,0.257,4.4,1.236,5.69,2.425c1.68,1.318,2.975,3.106,3.315,5.789
		c0.337,2.653,0.148,5.849,0.148,8.957c0,3.021,0.061,6.077,0,9.104c-0.118,5.966,0.001,11.82,0,17.912
		c0,3.032,0.29,6.3-0.347,8.759c-0.603,2.329-1.89,4.125-3.562,5.542c-1.671,1.415-3.839,2.386-6.631,2.474
		c-3.03,0.095-6.079-0.137-9.104,0c-3.02,0.137-6.027,0.05-9.056,0.05c-11.986-0.001-23.868,0.051-35.973,0.05
		c-3.077-0.001-6.001,0.313-8.313-0.495c-2.308-0.807-3.77-2.133-5.145-3.959c-0.761-1.272-1.481-2.665-1.534-4.552
		c-0.162-5.775,0.27-12.495,0-18.21c-0.101-2.15-0.151-4.11,0.247-5.739c0.711-2.91,2.931-5.525,5.393-6.729
		c1.414-0.692,2.988-0.94,5.097-0.94C26.601,20.536,42.545,20.307,58.312,20.487z"/>
</g>
<g id="Layer_1">
</g>
</svg>
