<?xml version="1.0" encoding="iso-8859-1"?>
<!-- Generator: Adobe Illustrator 19.2.0, SVG Export Plug-In . SVG Version: 6.00 Build 0)  -->
<svg version="1.1" xmlns="http://www.w3.org/2000/svg" xmlns:xlink="http://www.w3.org/1999/xlink" x="0px" y="0px"
	 viewBox="0 0 63.337 73.053" style="enable-background:new 0 0 63.337 73.053;" xml:space="preserve">
<g id="Abraham_x5F_and_x5F_Straus">
	<path style="fill-rule:evenodd;clip-rule:evenodd;" d="M44.072,0.17c-0.334,0.51-1.192,0.344-1.967,0.344
		c-0.757,0-1.565-0.053-2.312,0c-2.09,0.15-4.017,0.898-5.558,1.723c-1.616,0.863-2.902,1.967-4.081,3.146
		c-1.141,1.141-2.168,2.627-2.901,4.377c-0.728,1.736-1.28,3.914-1.181,6.049c0.207,4.461,1.714,7.674,4.18,10.328
		c2.373,2.553,5.485,4.309,9.59,4.869c1.187,0.162,2.496,0.098,3.886,0.098c1.315,0,2.663,0.149,3.983,0
		c1.374-0.154,2.453-1.289,2.558-2.605c0.127-1.613-0.975-2.756-2.263-3.051c-1.07-0.242-2.408-0.033-3.541,0
		c-1.206,0.037-2.476,0.072-3.64,0c-1.44-0.088-2.877-0.598-3.934-1.18c-3.06-1.686-5.726-5.314-4.967-10.082
		c0.637-4.006,3.598-6.967,7.523-7.818c1.077-0.234,2.325-0.246,3.591-0.246c0.331,0,0.799-0.131,1.081,0.197
		c-0.256,0.426-0.81,0.231-1.131,0.246c-1.331,0.057-2.57,0.084-3.737,0.344c-1.425,0.318-2.542,0.957-3.59,1.818
		c-1.925,1.586-3.518,4.102-3.344,7.477c0.185,3.596,2.323,6.301,4.967,7.621c1.58,0.791,2.922,1.133,5.163,1.133
		c0.944,0,1.981-0.1,3.05-0.1c0.944,0,2.02-0.187,2.95,0.1c1.672,0.514,2.996,2.646,2.065,4.672
		c-0.375,0.816-1.359,1.709-2.262,1.918c-1.22,0.281-2.905,0.098-4.278,0.098c-1.473,0-2.899,0.023-4.229-0.149
		c-2.567-0.328-4.809-1.144-6.492-2.213c-3.664-2.324-6.149-5.647-7.278-10.131c-1.361-5.406,0.82-10.541,3.295-13.426
		c3.057-3.559,6.942-5.703,13.426-5.703C43.178,0.023,43.73-0.086,44.072,0.17z"/>
	<path style="fill-rule:evenodd;clip-rule:evenodd;" d="M44.121,1.695c-0.404,0.483-1.109,0.295-1.573,0.295
		c-1.946,0-3.478,0.123-5.017,0.541c-1.854,0.504-3.521,1.438-4.868,2.557c-2.593,2.158-4.795,5.398-5.065,9.738
		c-0.347,5.565,2.569,9.69,5.705,11.998c2.541,1.873,5.768,2.832,10.377,2.805c1.812-0.012,4.859,0.502,4.967-1.279
		c0.118-1.963-2.663-1.435-4.476-1.426c-1.308,0.006-2.502,0.092-3.786,0c-2.926-0.209-5.539-1.918-7.082-3.59
		c-1.694-1.836-3.058-4.272-3.05-7.623c0.01-3.789,1.869-6.621,4.132-8.459c1.719-1.397,3.798-2.492,6.835-2.606
		c0.498-0.019,1.033,0.024,1.574,0c0.423-0.019,0.944-0.193,1.327,0.147c-0.38,0.404-1.043,0.287-1.523,0.295
		c-1.519,0.023-2.896,0.066-4.082,0.395c-2.276,0.627-4.395,2.145-5.705,3.982c-1.562,2.193-2.567,5.391-1.721,8.851
		c0.828,3.389,3.312,6.066,6.393,7.279c1.613,0.635,3.57,0.836,6,0.836c2.154,0,4.989-0.445,5.606,1.033
		c0.488,1.17-0.302,2.279-1.23,2.605c-6.093,0.49-11.099-0.176-14.606-2.605c-1.62-1.123-3.082-2.69-4.18-4.525
		c-1.292-2.158-2.172-5.014-1.918-8.359c0.283-3.738,2.156-7.062,4.327-9.049c2.371-2.17,5.437-3.842,9.492-4.033
		c0.505-0.023,1.115,0,1.672,0C43.178,1.498,43.799,1.365,44.121,1.695z"/>
	<path style="fill-rule:evenodd;clip-rule:evenodd;" d="M44.121,3.219c-0.146,0.467-0.751,0.295-1.032,0.295
		c-3.057,0-5.4,0.377-7.426,1.525c-2.173,1.23-3.937,2.877-5.114,5.115c-0.963,1.828-1.486,4.352-1.279,6.539
		c0.219,2.301,1.007,4.223,2.065,5.853c1.98,3.047,5.572,5.311,10.328,5.459c1.279,0.039,2.928-0.035,4.278-0.1
		c0.391-0.018,0.964-0.135,1.18,0.246c-0.267,0.508-1.305,0.295-2.016,0.295c-0.799,0-1.637,0.049-2.263,0.051
		c-4.604,0.01-8.114-1.393-10.721-4.082c-1.753-1.811-3.17-4.662-3.394-7.723c-0.324-4.447,1.545-7.512,3.688-9.785
		c2.12-2.351,5.529-3.75,9.787-3.887C42.877,3,43.656,2.955,44.121,3.219z"/>
	<path style="fill-rule:evenodd;clip-rule:evenodd;" d="M44.121,7.941c-0.672,0.424-1.848,0.176-2.704,0.195
		c-4.221,0.104-7.304,3.295-7.524,7.279c-0.19,3.447,1.81,5.83,3.983,6.982c1.376,0.73,2.871,1.014,4.573,0.936
		c1.697-0.08,3.958-0.336,5.705-0.049c1.175,0.191,1.967,0.701,2.853,1.426c0.907,1.066,1.601,2.416,1.328,4.523
		c-0.572,1.934-2.062,3.787-4.427,3.984c-0.519,0.043-1.179-0.023-1.771,0c-0.532,0.021-1.146,0.195-1.426-0.197
		c0.285-0.492,1.175-0.291,1.869-0.295c0.698-0.004,1.434-0.012,1.967-0.148c1.83-0.465,3.618-2.234,3.344-4.916
		c-0.189-1.854-1.732-3.385-3.295-3.787c-1.021-0.266-2.322-0.059-3.54-0.051c-1.192,0.01-2.422,0.111-3.591,0.1
		c-3.116-0.033-5.588-1.883-6.836-3.836c-1.387-2.172-1.592-5.469-0.442-7.869c0.752-1.568,2.565-3.381,4.623-4.082
		c0.945-0.322,1.885-0.414,3.196-0.49C42.684,7.605,43.823,7.474,44.121,7.941z"/>
	<path style="fill-rule:evenodd;clip-rule:evenodd;" d="M44.17,9.465c-0.268,0.484-1.018,0.295-1.524,0.295
		c-0.657,0-1.342-0.039-1.82,0c-3.766,0.305-6.754,4.736-4.721,8.705c0.367,0.715,0.929,1.273,1.476,1.869
		c1.053,0.678,1.927,1.361,3.394,1.475c2.539,0.195,4.581-0.256,6.934-0.098c2.151,0.144,3.802,1.279,4.82,2.705
		c0.641,0.896,1.085,2.02,1.18,3.344c0.257,3.584-2.302,6.367-5.508,6.885c-0.59,0.096-1.243,0.146-1.918,0.146
		c-0.548,0-1.279,0.182-1.771-0.244c0.167-0.385,0.689-0.236,0.983-0.246c1.068-0.037,2.315,0.006,3.295-0.246
		c2.623-0.676,4.556-2.957,4.476-6.049c-0.073-2.814-2.056-4.91-4.328-5.559c-0.392-0.111-0.899-0.184-1.278-0.195
		c-3.34-0.109-7.504,0.795-9.836-0.887c-1.699-1.129-3.134-3.098-3.098-5.703c0.043-3.152,2.479-6.043,5.803-6.394
		c0.779-0.082,1.406-0.049,2.262-0.049C43.423,9.219,43.984,9.103,44.17,9.465z"/>
	<path style="fill-rule:evenodd;clip-rule:evenodd;" d="M44.17,11.136c-0.261,0.418-0.99,0.295-1.524,0.295
		c-0.61,0-1.283-0.07-1.82,0c-1.856,0.248-3.476,1.814-3.688,3.887c-0.272,2.654,1.862,4.68,4.278,4.867
		c2.25,0.176,4.388-0.27,6.59-0.098c3.394,0.266,6.081,2.627,7.082,5.459c0.518,1.467,0.673,3.514,0.098,5.213
		c-0.836,2.469-2.926,4.559-5.655,5.311c-1.05,0.291-2.363,0.344-3.688,0.344c-0.322,0-0.839,0.129-1.082-0.244
		c0.26-0.473,0.915-0.297,1.328-0.297c4.379,0.002,6.842-1.51,8.311-4.475c0.362-1.25,0.739-1.951,0.688-3.492
		c-0.041-1.234-0.438-2.266-0.787-2.998c-0.832-1.754-2.464-3.355-4.868-4.033c-2.846-0.805-7.572,0.635-10.181-0.738
		c-0.782-0.412-1.603-1.221-2.017-1.918c-1.49-2.52-0.149-5.65,1.918-6.738c0.975-0.512,2.055-0.59,3.64-0.59
		C43.305,10.89,43.952,10.742,44.17,11.136z"/>
	<path style="fill-rule:evenodd;clip-rule:evenodd;" d="M44.859,44.037c0.321-0.506,1.218-0.316,1.819-0.295
		c2.104,0.076,4.076-0.279,5.754-0.836c4.204-1.391,7.489-4.334,9.246-8.359c0.903-2.072,1.593-4.576,1.377-7.279
		c-0.456-5.713-3.491-9.688-7.574-12.147c-1.687-1.018-3.685-1.953-6.294-2.262c-1.869-0.223-4.223-0.123-6.295-0.051
		c-0.701,0.025-1.469-0.096-2.066,0.051c-1.3,0.314-2.521,1.812-2.163,3.539c0.227,1.092,1.105,1.938,2.065,2.215
		c0.658,0.19,1.421,0.049,2.213,0.049c2.064-0.002,4.458-0.336,6.541,0.098c2.176,0.453,3.687,1.574,5.016,2.902
		c1.309,1.309,2.287,3.145,2.558,5.311c0.597,4.766-2.294,8.549-5.508,10.033c-1.293,0.596-3.064,0.934-5.065,0.934
		c-0.513,0-1.275,0.209-1.673-0.295c0.508-0.428,1.369-0.234,2.165-0.246c5.085-0.078,8.538-3,9.491-7.228
		c1.254-5.567-3.136-10.387-7.672-11.067c-1.385-0.207-2.731,0.084-4.082,0.1c-1.323,0.014-2.77,0.271-4.082-0.051
		c-0.875-0.213-1.689-0.914-2.065-1.572c-1.35-2.367,0.215-5.061,2.804-5.262c1.262-0.1,2.649,0,3.983,0
		c1.359,0,2.741-0.053,3.983,0.098c4.526,0.543,8.257,2.949,10.622,5.9c1.768,2.205,3.344,4.988,3.345,9.049
		c0,1.293,0.126,2.697-0.099,3.984c-0.352,2.014-1.29,3.994-2.312,5.557c-2.043,3.123-5.044,5.566-9.099,6.639
		c-1.56,0.414-3.325,0.66-5.212,0.689C46.03,44.242,45.384,44.375,44.859,44.037z"/>
	<path style="fill-rule:evenodd;clip-rule:evenodd;" d="M44.859,42.414c0.477-0.316,1.085-0.227,1.574-0.246
		c1.787-0.066,3.308-0.131,4.819-0.539c1.798-0.488,3.434-1.387,4.771-2.41c2.661-2.041,4.727-5.018,5.31-9.049
		c0.983-6.779-2.865-11.758-7.131-14.115c-1.522-0.84-3.42-1.566-5.459-1.721c-1.287-0.098-2.653,0.049-4.032,0.049
		c-1.335,0-2.712,0.018-3.787,0.393c-0.831,0.422-0.733,1.709,0.05,2.115c0.424,0.221,1.075,0.09,1.721,0.1
		c1.782,0.021,3.861-0.119,5.558,0c2.955,0.205,5.417,1.629,7.131,3.344c1.979,1.978,3.588,4.646,3.344,8.654
		c-0.208,3.426-1.982,6.311-4.278,8.066c-2.099,1.604-4.545,2.459-8.312,2.459c-0.408,0-0.959,0.145-1.328-0.197
		c0.207-0.461,0.851-0.295,1.279-0.295c3.599,0,6.459-0.787,8.262-2.557c2.234-1.844,3.947-4.565,3.935-8.41
		c-0.008-2.481-0.961-4.549-2.213-6.246c-1.752-2.375-4.69-4.266-8.213-4.328c-0.518-0.008-1.091,0.057-1.672,0.051
		c-2.391-0.031-5.96,0.734-6.394-1.328c-0.191-0.912,0.338-1.707,0.983-2.018c1.134-0.545,3.897-0.164,5.36-0.295
		c3.753-0.336,6.769,0.848,9.147,2.361c1.799,1.144,3.545,2.824,4.573,4.574c1.3,2.209,2.27,4.947,2.017,8.457
		c-0.223,3.109-1.495,5.721-3,7.723c-2.456,3.268-6.558,5.551-11.851,5.703c-0.368,0.012-0.779-0.008-1.181,0
		C45.552,42.717,45.039,42.818,44.859,42.414z"/>
	<path style="fill-rule:evenodd;clip-rule:evenodd;" d="M24.942,24.857c0.321-0.635-0.086-1.312-0.345-1.867
		c-0.265-0.568-0.78-1.106-0.639-1.674c0.582,0.002,0.759,0.752,0.983,1.23c0.233,0.496,0.541,1.051,0.688,1.623
		c0.097,0.375,0.051,0.836,0.196,1.18c0.323,0.764,1.511,0.602,1.574,1.426c-0.575,0.307-0.813-0.467-1.377-0.393
		c-0.433,0.057-0.5,0.697-0.689,1.082c-0.219,0.445-0.501,0.75-0.688,1.082c-1.372,1.912-4.236,2.486-6.394,1.426
		c-1.319-0.649-2.614-2.105-2.804-3.934c-0.096-0.928,0.07-1.938,0.197-2.754c0.122-0.789,0.436-1.894,0.246-2.559
		c-0.231-0.803-2.219-1.43-2.901-1.918c-0.717-0.512-1.331-1.191-1.181-2.508c0.23-2.025,3.034-2.893,4.476-1.475
		c0.791,0.777,0.684,1.936,0.54,3.344c-0.059,0.58-0.287,1.25-0.196,1.769c0.083,0.473,0.911,0.883,1.377,1.131
		c1.673,0.896,3.266,1.777,4.771,2.754C23.523,24.113,24.113,24.816,24.942,24.857z M15.254,14.775
		c-1.58-0.715-3.128,0.553-2.901,2.264c0.185,0.422,0.431,0.781,0.689,1.131c0.928,0.531,1.681,1.236,2.901,1.475
		C16.56,17.955,16.827,15.488,15.254,14.775z M16.188,23.185c-0.287,2.059-0.336,3.77,0.737,5.115
		c1.028,1.289,3.363,2.264,5.41,1.426c0.544-0.223,1.261-0.815,1.721-1.328c0.371-0.414,1.244-1.559,1.082-2.359
		c-0.124-0.613-1.382-1.027-1.967-1.377c-1.506-0.904-2.851-1.658-4.279-2.51c-0.698-0.416-1.404-0.93-2.212-1.082
		C16.24,21.635,16.289,22.459,16.188,23.185z"/>
	<path style="fill-rule:evenodd;clip-rule:evenodd;" d="M44.809,40.791c0.956-0.381,2.313-0.172,3.492-0.244
		c3.909-0.244,7.054-2.316,8.901-4.723c1.953-2.541,3.324-6.435,2.262-10.572c-0.914-3.565-3.059-6.045-5.9-7.721
		c-1.44-0.85-3.243-1.492-5.213-1.574c-1.564-0.066-3.299,0.049-4.968,0.049c-0.45,0-1.05,0.152-1.475-0.197
		c0.127-0.459,0.774-0.295,1.131-0.295c2.771,0.002,5.302-0.26,7.623,0.344c2.78,0.727,5.271,2.416,6.835,4.328
		c0.938,1.146,1.834,2.729,2.312,4.279c1.07,3.478,0.442,7.1-0.983,9.736c-1.397,2.584-3.528,4.525-6.049,5.705
		c-1.754,0.82-4.386,1.246-7.131,1.23C45.391,41.135,44.877,41.232,44.809,40.791z"/>
	<path style="fill-rule:evenodd;clip-rule:evenodd;" d="M0.648,73.053c-0.398-0.189-0.247-0.848-0.247-1.377
		C0.399,57.308,0.057,42.951,0.057,28.498c0-2.146-0.129-4.428,0-6.395c0.015-0.043,0.133-0.215,0.147-0.098
		c0.033,0,0.065,0,0.099,0c0.277,1.019,0.122,2.111,0.147,3.146c0.177,7.387,0.195,15.002,0.197,22.426
		c0.001,8.047,0.196,15.976,0.196,24.049C0.844,72.076,0.996,72.666,0.648,73.053z"/>
	<path style="fill-rule:evenodd;clip-rule:evenodd;" d="M2.074,72.168c-0.335-0.373-0.197-0.955-0.197-1.377
		c0.002-13.9-0.344-27.479-0.344-41.703c0-2.068-0.135-4.293,0-6.197c-0.009-0.108,0.04-0.156,0.147-0.149
		c0.427,0.334,0.226,0.936,0.246,1.379c0.161,3.562,0.042,7.264,0.099,10.67c0.068,4.148,0.099,8.369,0.098,12.59
		c-0.001,7.81,0.196,15.66,0.197,23.459C2.32,71.244,2.498,71.873,2.074,72.168z"/>
	<path style="fill-rule:evenodd;clip-rule:evenodd;" d="M3.352,23.726c0.418,0.701,0.246,1.785,0.246,2.803
		c0,6.729,0.195,14.02,0.196,20.951c0.002,5.963,0.181,11.902,0.197,17.998c0.002,1.008-0.077,2.008-0.049,3
		c0.024,0.902,0.204,1.871-0.148,2.705c-0.423-0.289-0.245-0.887-0.245-1.277C3.548,66.47,3.5,63.064,3.5,59.48
		c0-3.935,0.02-7.969-0.147-11.951c-0.167-3.975,0.04-8.098-0.099-12.098c-0.064-1.865-0.067-3.822-0.049-5.656
		c0.02-2.039-0.163-4.105,0-5.9C3.196,23.767,3.245,23.717,3.352,23.726z"/>
	<path style="fill-rule:evenodd;clip-rule:evenodd;" d="M4.975,24.611c0.371,0.312,0.277,0.945,0.295,1.428
		c0.058,1.578,0.043,3.484,0.05,5.016c0.026,6.436,0.146,13.053,0.146,19.672c0.001,6.051,0.148,12.154,0.148,18.49
		c0,0.316,0.118,0.785-0.197,1.033c-0.352-0.328-0.192-0.881-0.196-1.279C5.106,58.066,4.878,47.008,4.877,36.219
		c0-2.863-0.008-5.738-0.099-8.607c-0.029-0.94-0.018-2.049,0.05-2.852C4.819,24.652,4.868,24.603,4.975,24.611z"/>
	<path style="fill-rule:evenodd;clip-rule:evenodd;" d="M6.598,25.547c0.397,0.256,0.238,0.805,0.245,1.18
		C7.054,37.42,6.893,47.625,7.188,58.25c0.09,3.227,0.05,6.51,0.049,9.836c0,0.359,0.135,0.883-0.196,1.18
		c-0.385-0.273-0.246-0.809-0.246-1.18c0-3.143,0.091-6.465-0.049-9.639C6.426,51.187,6.673,43.931,6.5,36.66
		c-0.088-3.668-0.018-7.35-0.049-10.967C6.504,25.648,6.465,25.511,6.598,25.547z"/>
	<path style="fill-rule:evenodd;clip-rule:evenodd;" d="M8.27,26.48c0.423,0.59,0.246,1.539,0.246,2.459
		C8.518,41.754,8.86,54.314,8.86,67.201c0,0.312,0.169,0.883-0.245,1.082c-0.26-0.717-0.168-1.521-0.149-2.262
		c0.064-2.385,0-4.857-0.049-7.328C8.211,48.281,8.17,37.226,8.074,26.629C8.116,26.556,8.147,26.472,8.27,26.48z"/>
	<path style="fill-rule:evenodd;clip-rule:evenodd;" d="M10.188,67.398c-0.395-0.223-0.246-0.748-0.246-1.082
		c0-6.309-0.075-12.539-0.196-18.689C9.651,42.804,9.787,37.57,9.548,32.529c-0.08-1.695,0.021-3.598,0.05-5.113
		c0.027-0.072,0.076-0.121,0.147-0.148c0.033,0,0.066,0,0.098,0c0.311,0.705,0.134,1.352,0.148,2.115
		c0.165,8.963,0.208,18.432,0.245,27.539c0.011,2.574,0.097,5.404,0.147,8.018c0.009,0.426-0.02,0.85,0,1.277
		C10.403,66.597,10.493,67.099,10.188,67.398z"/>
	<path style="fill-rule:evenodd;clip-rule:evenodd;" d="M11.319,28.201c0.45-0.035,0.295,1.42,0.295,2.213
		c0.001,4.166-0.03,8.049,0.099,12.148c0.151,4.791,0.148,9.715,0.148,14.508c0,2.709,0.113,5.674,0.099,8.359
		c-0.002,0.301,0.141,0.775-0.197,0.984c-0.39-0.178-0.204-0.646-0.196-0.936c0.164-5.896-0.196-12.023-0.196-18.047
		c0-4.656-0.146-9.303-0.197-14.213c-0.018-1.664-0.026-3.42,0.05-4.869C11.218,28.265,11.257,28.222,11.319,28.201z"/>
	<path style="fill-rule:evenodd;clip-rule:evenodd;" d="M12.942,28.939c1.171,0.467,2.98,1.492,4.131,2.164
		c2.7,1.578,5.211,3.025,7.918,4.525c3.991,2.209,7.944,4.496,11.95,6.688c2.341,1.279,4.642,2.555,7.033,3.885
		c0.276,0.154,0.804,0.283,0.786,0.738c-0.795,0.059-1.428-0.535-2.065-0.885c-4.513-2.48-9.127-5.041-13.671-7.574
		c-4.519-2.519-8.952-5.201-13.574-7.672c-0.651-0.348-1.249-0.889-2.017-0.984c-0.762,0.856,0.36,1.377,0.886,1.672
		c7.153,4.024,14.133,7.963,21.295,11.951c2.283,1.271,4.538,2.482,6.835,3.787c0.247,0.141,0.747,0.256,0.688,0.688
		c-0.739,0.014-1.363-0.506-1.967-0.836c-4.29-2.342-8.617-4.84-12.933-7.229c-4.306-2.381-8.582-4.861-12.885-7.279
		c-0.613-0.344-1.244-0.793-1.968-0.885c-0.536,0.852,0.5,1.309,0.984,1.574c6.781,3.721,13.374,7.484,20.113,11.262
		c2.136,1.197,4.257,2.395,6.393,3.59c0.269,0.15,0.732,0.215,0.737,0.639c-0.716,0.041-1.302-0.463-1.868-0.785
		c-4.002-2.275-8.243-4.482-12.295-6.787c-3.47-1.975-6.892-3.984-10.475-5.902c-0.574-0.307-1.154-0.654-1.722-0.982
		c-0.584-0.338-1.169-0.758-1.869-0.836c-0.527,0.85,0.383,1.24,0.886,1.523c1.704,0.961,3.563,1.957,5.213,2.902
		c1.145,0.656,2.4,1.197,3.491,1.918c3.25,2.146,6.872,3.904,10.328,5.852c1.748,0.986,3.442,1.938,5.213,2.902
		c0.525,0.285,1.318,0.463,1.524,1.131c-0.687,0.076-1.223-0.451-1.771-0.738c-3.87-2.027-7.715-4.26-11.557-6.393
		c-2.188-1.215-4.395-2.441-6.541-3.738c-1.082-0.654-2.234-1.193-3.345-1.818c-1.094-0.617-2.145-1.406-3.394-1.723
		c-0.532,0.797,0.335,1.221,0.787,1.477c2.774,1.559,5.43,2.992,8.164,4.572c2.175,1.258,4.252,2.469,6.491,3.689
		c2.731,1.488,5.433,3.031,8.164,4.524c0.486,0.266,1.283,0.41,1.426,1.082c-0.637,0.064-1.203-0.359-1.721-0.639
		c-3.582-1.926-7.194-4.125-10.869-6.049c-2.083-1.09-4.063-2.404-6.146-3.541c-1.552-0.846-3.064-1.734-4.673-2.607
		c-0.501-0.271-1.048-0.727-1.672-0.639c-0.368,0.756,0.462,1.074,0.886,1.328c1.485,0.889,3.109,1.693,4.573,2.557
		c0.997,0.588,2.026,1.152,3.049,1.723c3.018,1.68,6.067,3.447,9.147,5.162c1.778,0.99,3.569,1.955,5.36,2.951
		c0.218,0.121,0.649,0.217,0.591,0.59c-0.593,0.184-1.119-0.287-1.574-0.541c-5.289-2.943-10.691-5.939-15.983-8.949
		c-0.948-0.541-1.876-1.15-2.851-1.672c-0.981-0.525-1.964-1.158-3.05-1.477c-0.627,0.594,0.03,1.086,0.443,1.328
		c3.284,1.926,6.775,3.848,10.032,5.656c3.337,1.852,6.724,3.766,10.081,5.654c0.428,0.242,1.129,0.389,1.23,0.984
		c-0.551,0.078-1.044-0.297-1.476-0.541c-6.227-3.523-12.66-7.158-18.935-10.672c-0.423-0.236-0.9-0.586-1.426-0.541
		c-0.508,1.293,1.107,1.668,1.819,2.066c0.899,0.502,1.875,1.051,2.656,1.475c3.649,1.984,7.03,3.953,10.622,6
		c1.328,0.756,2.633,1.451,3.983,2.213c0.395,0.223,1.007,0.408,1.132,0.934c-1.02-0.027-1.78-0.775-2.606-1.229
		c-4.991-2.738-10.013-5.549-15-8.361c-0.809-0.455-1.619-1.053-2.558-1.229c-0.686,1.059,0.947,1.578,1.574,1.918
		c4.185,2.27,8.146,4.621,12.295,6.885c1.247,0.682,2.434,1.377,3.689,2.064c0.37,0.205,0.928,0.404,1.032,0.887
		c-0.453,0.18-0.875-0.199-1.229-0.395c-2.652-1.451-5.412-2.941-8.016-4.572c-1.5-0.939-3.136-1.674-4.673-2.559
		c-0.76-0.438-1.547-0.854-2.31-1.277c-0.759-0.424-1.47-1.027-2.361-1.133c-0.616,0.99,0.82,1.412,1.377,1.723
		c1.925,1.07,3.662,2.035,5.607,3.098c0.306,0.168,0.885,0.328,0.837,0.787c-0.654,0.074-1.357-0.447-1.968-0.787
		c-0.617-0.344-1.245-0.74-1.869-1.082c-1.264-0.691-2.498-1.471-3.885-1.967c-0.779,0.807,0.439,1.279,0.886,1.525
		c1.571,0.863,2.979,1.668,4.573,2.557c0.257,0.143,0.709,0.322,0.64,0.687c-0.628,0.111-1.106-0.371-1.574-0.639
		c-0.487-0.279-0.995-0.521-1.475-0.787c-0.974-0.539-1.913-1.188-3.05-1.523c-0.606,0.66,0.141,1.051,0.541,1.277
		c0.981,0.559,1.83,1.072,2.804,1.623c0.464,0.264,1.145,0.396,1.228,0.936c-0.439,0.215-0.836-0.205-1.18-0.395
		c-0.732-0.402-1.489-0.77-2.263-1.18c-0.354-0.188-0.716-0.58-1.18-0.443c-0.479,0.949,0.601,1.336,1.229,1.672
		c0.712,0.383,1.667,0.625,1.819,1.279c-1.2,0.002-1.759-1.06-2.95-1.229c-0.473,0.311-0.151,1.123,0.196,1.326
		c0.372,0.283,1.029,0.283,1.082,0.887c-0.559,0.207-0.731-0.379-1.328-0.297c-0.323,0.361-0.196,0.91-0.197,1.379
		c0,3.053,0.1,6.209,0.099,9.344c0,0.434,0.145,1.01-0.196,1.326c-0.42-0.32-0.246-0.957-0.246-1.377
		c0-10.789-0.255-21.42-0.393-32.359c-0.01-0.709,0.042-2.189,0.098-2.654C12.822,29.015,12.872,28.967,12.942,28.939z"/>
</g>
<g id="Layer_1">
</g>
</svg>
