<?xml version="1.0" encoding="iso-8859-1"?>
<!-- Generator: Adobe Illustrator 19.2.0, SVG Export Plug-In . SVG Version: 6.00 Build 0)  -->
<svg version="1.1" xmlns="http://www.w3.org/2000/svg" xmlns:xlink="http://www.w3.org/1999/xlink" x="0px" y="0px"
	 viewBox="0 0 73.597 76.388" style="enable-background:new 0 0 73.597 76.388;" xml:space="preserve">
<g id="Accurate_x5F_Diamond_x5F_Tools">
	<path style="fill-rule:evenodd;clip-rule:evenodd;" d="M45.542,48.672c-0.532,1.778-1.992,2.629-3.155,3.775
		c-2.234,1.756-4.992,3.025-8.379,3.724c-3.283,0.678-7.415,0.737-11.172,0.207c-7.046-0.994-13.073-3.253-17.068-7.138
		c-2.334-2.245-4.241-4.943-5.276-8.586c-0.524-1.844-0.375-4.224-0.362-6.568c0.053-9.896,0.155-20.351,0.155-30.724
		c0-1.114-0.342-3.056,0.569-3.259C1.74-0.094,3.381,0.052,4.681,0.051c2.477,0,4.734-0.059,7.086,0.052
		c0.915,0.044,2.943-0.273,3.362,0.207C15.363,0.579,15.317,2,15.284,2.793c-0.108,2.56,0,5.449,0,8.018
		c0,3.735,0.036,7.391,0,10.861c-0.036,3.39,0.032,7.367-0.103,10.759c-0.148,3.704,0.919,6.403,2.017,8.845
		c1.05,2.335,2.721,4.647,4.552,6.31c3.624,3.293,9.574,5.827,16.551,4.552c2.13-0.389,4.357-1.135,5.793-2.327
		C44.55,49.43,44.866,48.787,45.542,48.672z"/>
	<path style="fill-rule:evenodd;clip-rule:evenodd;" d="M73.369,0.517c0.396,2.051,0.155,4.97,0.155,7.448c0,1.212,0,2.351,0,3.775
		c0,0.989,0.236,3.229-0.207,3.673c-0.266,0.266-1.521,0.206-2.379,0.206c-6.24,0.002-11.833-0.051-17.844-0.051
		c-1.743,0-3.459,0.112-5.121,0.051c-1.69-0.061-3.366-0.124-5.017-0.051c-3.189,0.14-5.776,1.144-8.069,2.224
		c-3.332,1.569-6.495,4.059-8.431,7.086c-1.939,3.032-3.374,7.253-3.103,12.31c0.159,2.978,1.018,5.984,2.276,8.018
		c0.236,0.383,0.493,0.726,0.775,1.034c0.228,0.25,0.731,0.474,0.673,0.983c-1.176-0.17-1.873-1.265-2.69-1.966
		c-2.727-3.264-4.667-7.329-5.069-12.724c-0.415-5.576,0.362-11.116,1.759-15.672C23.08,10.329,26.97,4.838,32.87,1.965
		c2.018-0.982,4.553-1.629,7.293-1.759c2.78-0.132,5.629,0.052,8.482,0.052c6.86,0,14.188-0.071,20.948,0
		c0.647,0.007,1.315,0.072,1.965,0.052C72.166,0.291,72.838,0.13,73.369,0.517z"/>
	<path style="fill-rule:evenodd;clip-rule:evenodd;" d="M28.68,27.775c0.55-1.449,1.691-2.533,2.794-3.465
		c2.283-1.932,5.123-3.182,8.431-4.087c4.542-1.242,10.788-0.713,15.414,0.311c2.945,0.652,5.561,1.55,7.81,2.896
		c4.466,2.673,8.345,6.18,9.827,11.586c0.773,2.818,0.323,6.68,0.466,10.138c0.137,3.329,0,6.911,0,10.396
		c0,3.478-0.052,6.857-0.052,10.552c0,2.582-0.099,4.979-0.052,7.654c0.013,0.726,0.093,1.994-0.207,2.328
		c-0.415,0.463-2.446,0.259-3.465,0.259c-2.697,0-4.712,0.063-7.396,0c-0.922-0.022-3.072,0.08-3.414-0.259
		c-0.455-0.451-0.207-3.132-0.207-4.293c0-7.328,0.104-14.625,0.104-21.879c0-2.905,0.231-6.118-0.052-8.948
		c-0.252-2.522-1.181-4.744-2.224-6.775c-2.03-3.953-4.965-7.065-9.155-8.845c-1.935-0.822-4.731-1.545-7.448-1.552
		c-1.741-0.005-3.577,0.358-5.121,0.775c-1.993,0.539-3.821,1.353-5.069,2.587C29.423,27.391,29.161,27.888,28.68,27.775z"/>
	<path style="fill-rule:evenodd;clip-rule:evenodd;" d="M29.818,28.913c1.91-1.459,4.1-2.734,7.345-2.741
		c3.142-0.006,5.717,1.449,7.396,3c1.75,1.616,3.166,3.996,3.621,6.725c0.723,4.334-0.78,7.993-3.052,10.396
		c-2.147,2.271-5.617,4.223-10.035,3.466c-3.275-0.561-5.796-2.524-7.448-4.914c-1.031-1.491-1.805-3.254-2.017-5.379
		C25.145,34.628,27.103,31.393,29.818,28.913z"/>
	<path style="fill-rule:evenodd;clip-rule:evenodd;" d="M0.181,75.826c-0.274-1.065-0.155-2.382-0.155-3.724
		c0-2.701,0.052-4.725,0.052-7.604c0-0.939-0.236-3.24,0.206-3.621c0.28-0.24,1.741-0.154,2.535-0.154
		c6.153,0,12.147,0.104,18.206,0.103c3.414,0,7.163,0.19,10.5-0.052c1.625-0.117,3.118-0.444,4.5-0.879
		c4.162-1.309,7.256-3.486,9.828-6.311c1.609-1.768,3.076-4.287,3.776-6.982c0.74-2.851,1.16-6.491,0.621-9.62
		c-0.393-2.281-0.984-4.409-2.069-6c-0.347-0.508-0.859-0.933-1.138-1.552c-0.002-0.089,0.039-0.134,0.104-0.155
		c1.404,0.533,2.716,2.19,3.517,3.414c1.881,2.871,3.047,5.878,3.621,10.034c0.881,6.381-0.321,13.03-1.965,18
		c-1.144,3.457-2.786,6.438-4.862,8.792c-2.115,2.397-4.661,4.471-7.965,5.69c-3.353,1.237-8.127,0.932-12.621,0.931
		c-7.763-0.001-15.572-0.104-23.482-0.104C2.33,76.033,1.2,76.19,0.181,75.826z"/>
</g>
<g id="Layer_1">
</g>
</svg>
