<?xml version="1.0" encoding="iso-8859-1"?>
<!-- Generator: Adobe Illustrator 19.2.0, SVG Export Plug-In . SVG Version: 6.00 Build 0)  -->
<svg version="1.1" xmlns="http://www.w3.org/2000/svg" xmlns:xlink="http://www.w3.org/1999/xlink" x="0px" y="0px"
	 viewBox="0 0 81.747 68.815" style="enable-background:new 0 0 81.747 68.815;" xml:space="preserve">
<g id="Aco_x5F_machinery">
	<path style="fill-rule:evenodd;clip-rule:evenodd;" d="M29.224,53.889c-1.066,0.486-1.86,1.402-2.684,2.178
		c-2.453,2.31-5.177,4.429-7.597,6.838c-3.201,2.5-5.377,6.321-10.839,5.875c-2.472-0.202-4.207-1.32-5.673-2.785
		C0.96,64.523,0,62.799,0,60.018c0.001-2.788,1.077-4.449,2.228-6.229c4.43-6.85,9.081-13.498,13.472-20.26
		c1.104-1.699,2.223-3.402,3.394-5.064c1.164-1.652,2.156-3.446,3.291-5.166c1.111-1.681,2.259-3.359,3.344-5.064
		c2.115-3.327,4.587-6.664,6.735-10.13c1.083-1.746,2.143-3.44,3.394-5.064C37.12,1.403,38.887-0.019,41.43,0
		c2.78,0.022,4.683,1.712,5.977,3.597c1.313,1.913,2.693,3.788,3.95,5.571c1.324,1.879,2.576,3.797,3.85,5.672
		c1.946,2.867,3.945,5.532,5.926,8.357c0.657,0.938,1.214,1.957,1.874,2.887c3.935,5.545,7.951,11.103,11.8,16.764
		c1.231,1.812,2.597,3.675,3.9,5.622c1.271,1.9,2.966,3.443,3.039,6.482c0.071,2.983-1.541,4.946-3.546,5.977
		c-2.106,1.084-5.634,0.658-8.863,0.658c-8.637,0.001-19.36,0.083-28.21,0.051c-2.893-0.01-5.25-1.039-7.243-2.278
		c-0.919-0.775-1.852-1.521-2.633-2.432C30.45,55.997,29.929,54.932,29.224,53.889z M42.291,12.308
		c0.128,0.794,0.504,1.658,0.811,2.532c0.862,2.465,1.822,4.982,2.734,7.243c1.987,4.925,3.542,9.642,5.419,14.484
		c0.621,1.601,1.159,3.25,1.772,4.862c0.603,1.583,1.344,3.192,1.621,5.015c0.297,1.943-0.053,3.846-0.354,6.026
		c1.223,0.252,2.572,0.174,3.899,0.152c1.321-0.022,2.662,0.011,4.002-0.051c2.74-0.128,5.623,0.217,8.205-0.152
		c-0.407-1.059-1.122-1.992-1.773-2.887c-2.007-2.759-3.771-5.584-5.824-8.256c-1.54-2.542-3.307-4.915-5.014-7.344
		c-1.693-2.407-3.455-4.79-5.167-7.191c-0.859-1.206-1.59-2.517-2.481-3.697c-2.222-2.944-4.283-6.085-6.381-9.066
		c-0.427-0.605-0.801-1.284-1.367-1.772c-0.012-0.039-0.043-0.059-0.102-0.051C42.291,12.206,42.291,12.257,42.291,12.308z
		 M35.149,20.361c-3.388,5.184-7.072,10.183-10.332,15.396c-1.289,2.063-2.858,3.947-3.95,6.129
		c-1.924,2.729-3.689,5.57-5.521,8.356c-0.913,1.389-1.882,2.761-2.786,4.153c-0.915,1.41-1.905,2.775-2.634,4.305
		c1.424-0.827,2.547-2.026,3.748-3.089c1.209-1.071,2.452-2.106,3.596-3.241c1.853-1.585,3.611-3.256,5.369-4.913
		c2.662-2.511,5.473-4.804,8.154-7.243c2.239-2.037,4.683-4.076,8.153-4.761c0.75-0.147,1.591-0.037,2.128-0.456
		c0.001-0.659-0.326-1.271-0.558-1.873c-0.72-1.884-1.401-3.729-2.127-5.571c-0.728-1.849-1.392-3.735-2.127-5.521
		c-0.239-0.58-0.386-1.276-0.861-1.723c-0.003-0.03-0.008-0.059-0.05-0.051C35.277,20.285,35.225,20.334,35.149,20.361z
		 M39.758,44.418c-1.821,0.757-3.563,3.418-2.228,6.027c1.099,2.145,3.991,3.092,6.18,1.925c1.229-0.656,2.369-2.14,2.329-4.002
		c-0.053-2.481-2.1-4.409-4.659-4.254C40.606,44.161,40.258,44.211,39.758,44.418z"/>
</g>
<g id="Layer_1">
</g>
</svg>
