<?xml version="1.0" encoding="iso-8859-1"?>
<!-- Generator: Adobe Illustrator 19.2.0, SVG Export Plug-In . SVG Version: 6.00 Build 0)  -->
<svg version="1.1" xmlns="http://www.w3.org/2000/svg" xmlns:xlink="http://www.w3.org/1999/xlink" x="0px" y="0px"
	 viewBox="0 0 77.164 77.902" style="enable-background:new 0 0 77.164 77.902;" xml:space="preserve">
<g id="Action_x5F_for_x5F_Right_x5F_to_x5F_Life">
	<path style="fill-rule:evenodd;clip-rule:evenodd;" d="M64.942,10.793c4.563,4.148,7.639,9.178,9.897,15.54
		c0.743,2.092,1.231,4.328,1.732,6.731c1.03,4.936,0.652,10.893-0.644,15.242c-1.337,4.489-2.918,8.327-5.196,11.729
		c-4.38,6.543-10.573,12.345-18.607,15.293c-3.107,1.14-6.35,2.045-10.344,2.425c-3.996,0.38-8.288,0.012-11.58-0.791
		c-2.173-0.53-4.321-1.15-6.434-2.029c-3.824-1.591-7.384-3.932-10.442-6.533c-3.065-2.605-5.763-5.657-7.769-9.155
		c-2.028-3.535-3.814-7.56-4.801-12.174c-1.005-4.702-0.973-10.486-0.1-15.441c0.836-4.74,2.615-8.705,4.702-12.273
		c3.07-5.249,7.158-9.791,12.322-13.065c0.854-0.542,1.801-1.022,2.723-1.534c5.399-2.997,12.643-5.393,21.28-4.602
		c1.536,0.141,2.985,0.265,4.355,0.495c2.745,0.46,5.16,1.376,7.374,2.326C57.97,4.928,61.889,7.355,64.942,10.793z M15.601,23.511
		c-2.524,3.744-4.477,8.418-4.652,14.253c-0.177,5.882,1.309,11.157,3.811,14.946c2.181,3.3,4.73,6.365,7.819,8.71
		c0.448,0.34,0.827,0.782,1.287,1.089c3.759,2.507,8.907,3.959,14.995,3.959c6.106,0,10.252-2.667,12.719-6.186
		c1.298-1.852,2.223-4.513,1.979-7.473c-0.455-5.547-3.942-9.036-8.215-10.739c-2.297-0.916-5.288-1.108-8.017-1.485
		c-2.822-0.39-5.456-0.798-7.819-1.633c-2.363-0.835-4.398-1.811-6.185-3.315c-1.491-1.549-3.031-3.048-4.355-5.345
		c-0.878-1.524-1.492-3.242-2.029-5.246c-0.192-0.719-0.376-1.937-1.188-1.583C15.681,23.46,15.641,23.485,15.601,23.511z"/>
</g>
<g id="Layer_1">
</g>
</svg>
