<?xml version="1.0" encoding="iso-8859-1"?>
<!-- Generator: Adobe Illustrator 19.2.0, SVG Export Plug-In . SVG Version: 6.00 Build 0)  -->
<svg version="1.1" xmlns="http://www.w3.org/2000/svg" xmlns:xlink="http://www.w3.org/1999/xlink" x="0px" y="0px"
	 viewBox="0 0 87.432 31.554" style="enable-background:new 0 0 87.432 31.554;" xml:space="preserve">
<g id="Actualite_x5F_des_x5F_Arts_x5F_Plastiques">
	<path style="fill-rule:evenodd;clip-rule:evenodd;" d="M26.747,0.108c0.246,8.195,0.102,16.584,0.103,24.809
		c0,0.479,0.145,1.081-0.206,1.49c-0.123,0.098-0.412,0.032-0.616,0.051c-0.43-0.582-0.257-1.475-0.257-2.26
		c0-2.235,0.091-4.797-0.103-7.14c-0.355,0.112-0.401,0.555-0.514,0.822c-0.877,2.081-2.06,3.823-3.749,5.239
		c-1.856,1.555-4.229,2.866-7.243,3.082c-4.362,0.313-7.414-1.346-9.81-3.287c-1.671-1.589-3.07-3.524-3.802-6.01
		C-1.218,10.888,1.54,5.499,5.071,2.83c1.905-1.44,4.232-2.599,7.037-2.774c5.381-0.334,9.426,2.431,11.557,5.547
		c0.776,1.136,1.262,2.416,1.952,3.699c0.275-0.66,0.153-1.484,0.153-2.26c0-1.564,0.052-3.169,0.052-4.726
		c0-0.773-0.121-1.559,0.154-2.209C26.129-0.036,26.593-0.036,26.747,0.108z"/>
	<path style="fill-rule:evenodd;clip-rule:evenodd;" d="M56.281,0.108c0.274,0.883,0.154,1.959,0.154,2.979
		c0,6.992-0.039,14.713-0.052,21.573c-0.001,0.75,0.338,2.228-0.771,1.798c-0.476-0.184-0.308-1.465-0.308-2.157
		c-0.001-2.291,0.075-5.287-0.103-7.191c-0.387,0.127-0.396,0.591-0.514,0.873c-1.866,4.481-5.894,8.27-12.225,8.27
		c-3.758,0-6.781-1.498-8.938-3.544c-2.116-2.009-3.844-4.729-4.108-8.373c-0.321-4.404,1.306-7.932,3.544-10.17
		c2.25-2.249,5.201-4.098,9.554-4.109c3.422-0.009,6.12,1.267,8.115,2.825c2.085,1.628,3.401,3.889,4.521,6.369
		c0.27-0.659,0.154-1.469,0.154-2.26c0-1.576,0.014-3.198,0.051-4.777c0.019-0.754-0.166-1.577,0.205-2.157
		C55.803-0.019,56.084,0.005,56.281,0.108z"/>
	<path style="fill-rule:evenodd;clip-rule:evenodd;" d="M60.647,0.056c0.272,0.001,0.58-0.032,0.719,0.103
		c0.187,2.98-0.139,6.473,0.205,9.297c0.562-0.738,0.793-1.696,1.233-2.517c0.441-0.824,0.94-1.572,1.54-2.208
		c1.665-2.023,3.962-3.533,6.986-4.263c6.076-1.467,11.191,1.5,13.714,5.085c1.165,1.655,2.074,3.597,2.312,6.01
		c0.74,7.528-4.017,13.16-10.376,14.433c-2.359,0.473-5.05,0.228-7.242-0.565c-4.013-1.452-6.549-4.565-8.115-8.526
		c-0.302,1.066-0.154,2.268-0.154,3.493c0,3.003-0.052,6.209-0.051,9.348c0,0.553,0.123,1.203-0.154,1.695
		c-0.961,0.406-0.925-0.311-0.925-1.541c0-8.78,0-17.206,0-25.836c0-0.596,0.023-1.295,0.052-1.952c0.031-0.76-0.1-1.579,0.102-1.9
		C60.521,0.136,60.573,0.085,60.647,0.056z"/>
</g>
<g id="Layer_1">
</g>
</svg>
