<?xml version="1.0" encoding="iso-8859-1"?>
<!-- Generator: Adobe Illustrator 19.2.0, SVG Export Plug-In . SVG Version: 6.00 Build 0)  -->
<svg version="1.1" xmlns="http://www.w3.org/2000/svg" xmlns:xlink="http://www.w3.org/1999/xlink" x="0px" y="0px"
	 viewBox="0 0 102.285 125.221" style="enable-background:new 0 0 102.285 125.221;" xml:space="preserve">
<g id="AEK_x5F_Bank_x5F_1826">
	<path style="fill-rule:evenodd;clip-rule:evenodd;" d="M50.963,0c0.44,8.626,0.811,20.062,1.559,29.259
		c0.429,5.271,1.971,9.255,0.959,14.869c-0.256,1.424-0.769,3.612-2.398,3.598c-2.948-0.026-2.724-7.384-2.278-10.792
		c0.988-7.555,1.593-16.323,1.919-24.463C50.9,8.031,51.019,3.549,50.963,0z"/>
	<path style="fill-rule:evenodd;clip-rule:evenodd;" d="M82.02,15.469c0.131,0.029,0.082,0.238,0.24,0.24
		c0.07,5.838,0.079,11.369,0.479,17.147c0.397,5.728,1.573,11.29,1.439,16.428c-0.044,1.685-0.23,5.08-2.039,5.156
		c-1.466,0.061-2.024-2.586-2.158-4.316c-0.226-2.934,0.384-5.655,0.72-8.515c0.32-2.735,0.445-5.624,0.6-8.633
		C81.614,26.869,81.974,21.058,82.02,15.469z"/>
	<path style="fill-rule:evenodd;clip-rule:evenodd;" d="M19.785,16.188c0.409,7.833,0.572,17.436,1.439,25.302
		c0.304,2.759,0.918,5.428,0.719,8.394c-0.114,1.709-0.589,4.567-2.158,4.557c-2.576-0.017-2.109-6.145-1.919-8.034
		C18.816,37.018,19.649,25.523,19.785,16.188z"/>
	<path style="fill-rule:evenodd;clip-rule:evenodd;" d="M62.114,16.908c0.14-0.02,0.214,0.026,0.24,0.119
		c-1.584,12.898-2.519,26.06-5.876,37.653c-0.648,2.239-2.344,9.123-5.396,8.993c-1.67-0.071-2.733-2.443-3.358-3.837
		c-5.204-11.629-5.897-27.444-7.674-42.33c1.821,10.357,3.507,21.327,6.475,30.938c0.582,1.884,2.081,7.831,4.557,7.914
		c2.387,0.079,4.065-5.921,4.677-7.914c0.938-3.059,1.812-6.888,2.519-9.953C60.012,30.96,60.939,24.06,62.114,16.908z"/>
	<path style="fill-rule:evenodd;clip-rule:evenodd;" d="M10.672,28.779c1.709,8.605,2.686,18.123,5.396,26.141
		c0.652,1.932,1.763,6.665,3.837,6.596c1.892-0.064,3.269-5.033,3.717-6.596c2.278-7.923,3.773-16.986,5.276-25.541
		c-1.016,10.177-1.928,21.305-4.677,30.577c-0.574,1.941-1.767,7.391-4.196,7.555c-2.507,0.17-3.876-5.148-4.557-7.435
		c-0.874-2.93-1.725-6.692-2.159-9.713C12.214,42.739,11.108,36.146,10.672,28.779z"/>
	<path style="fill-rule:evenodd;clip-rule:evenodd;" d="M91.134,29.018c-0.604,10.043-2.156,21.363-4.557,30.818
		c-0.597,2.346-1.959,7.483-4.317,7.554c-2.553,0.076-3.951-5.342-4.557-7.314c-2.85-9.278-3.47-20.016-4.677-30.697
		c1.615,8.425,2.779,17.439,5.276,25.421c0.542,1.733,1.569,6.408,3.598,6.596c2.136,0.197,3.315-4.389,3.957-6.356
		c1.72-5.271,2.701-11.185,3.717-16.907C90.123,35.042,90.742,32.026,91.134,29.018z"/>
	<path style="fill-rule:evenodd;clip-rule:evenodd;fill:#FFFFFF;" d="M38.491,53.121c1.314,4.105,3.042,9.364,4.557,13.79
		c1.298,3.79,3.682,9.78,7.075,10.673c4.939,1.298,7.784-7.191,9.113-10.673c1.746-4.571,2.854-9.16,4.197-13.79
		c0.789,1.41,1.073,3.154,1.559,4.917c0.435,1.577,1.464,3.505,1.439,4.916c-0.028,1.614-2.103,4.949-2.758,6.355
		c-2.07,4.448-3.875,7.814-6.716,11.512c-1.175,1.53-3.356,4.447-6.235,4.077c-3.891-0.5-7.147-6.695-8.873-9.713
		c-1.713-2.992-3.137-5.71-4.677-9.233c-0.461-1.054-1.382-2.441-1.439-3.118c-0.105-1.233,0.888-3.138,1.319-4.676
		C37.595,56.223,37.925,54.622,38.491,53.121z"/>
	<path style="fill-rule:evenodd;clip-rule:evenodd;" d="M74.825,67.99c-0.502,1.567-1.845,3.404-1.799,5.156
		c0.029,1.118,1.102,2.571,1.679,3.598c0.69,1.228,1.438,2.297,2.039,3.238c1.163,1.821,3.368,5.554,6.115,4.916
		c2.699-0.627,4.866-4.429,6.235-6.835c4.439-7.802,8.534-19.089,11.632-27.221C97.75,62.07,94.512,76.323,88.975,85.737
		c-1.786,3.038-5.566,7.727-9.713,4.677c-3.61-2.656-5.413-8.668-7.674-12.471c-0.294,1.316-2.174,3.8-2.159,5.276
		c0.008,0.712,1.241,2.355,1.799,3.237c2.403,3.801,5.015,8.852,9.594,10.073c2.246,0.599,4.206-0.461,5.756-1.56
		c3.548-2.514,6.819-8.668,8.993-12.71c2.67-4.969,4.522-10.291,6.715-14.87c-1.462,6.237-3.664,12.867-6.115,19.066
		c-2.416,6.108-6.332,13.482-11.871,16.429c-0.883,4.485-1.093,9.629-1.319,14.509c-0.468,0.104-1.117,0.212-1.559,0
		c-0.164-3.483-0.433-6.89-0.84-10.552c-0.12-1.081-0.01-2.822-0.359-3.598c-0.262-0.579-1.496-0.932-2.159-1.439
		c-4.775-3.658-6.949-9.751-9.832-15.229c-3.995,7.597-6.973,16.211-14.51,20.266c-0.863,5.771-1.36,11.909-1.559,18.347
		c-0.837,0.019-1.201,0.103-1.919-0.12c-0.065-4.262-0.511-8.965-0.959-13.55c-0.129-1.317-0.029-3.572-0.481-4.438
		c-0.362-0.696-2.482-1.64-3.357-2.398c-2.262-1.96-3.525-3.748-5.156-6.355c-2.368-3.788-4.27-7.187-6.115-11.871
		c-3.487,6.065-5.79,13.316-12.231,16.429c-0.756,4.695-0.924,10.006-1.438,14.629c-0.439,0-0.88,0-1.319,0
		c-0.412-2.299-0.217-4.674-0.479-7.314c-0.205-2.056-0.062-5.562-0.959-7.075c-0.31-0.521-1.416-0.853-2.039-1.319
		c-4.113-3.08-7.019-8.771-9.113-14.029C4.102,81.515,1.636,75.662,0,67.99c2.977,6.95,6.844,15.589,11.271,22.064
		c2.377,3.476,6.465,8.691,11.991,5.756c4.469-2.374,6.605-8.541,9.593-12.471c-0.758-1.76-1.357-3.68-2.158-5.396
		c-1.344,2.108-2.458,4.837-3.957,7.435c-1.595,2.762-4.744,7.974-9.113,5.516c-3.25-1.827-5.196-6.556-6.955-10.432
		c-3.805-8.383-7.197-20.068-9.113-29.379c3.038,7.65,6.251,18.155,10.552,25.661c1.42,2.478,3.107,5.358,5.037,6.955
		c4.771,3.949,8.542-3.669,10.312-7.194c0.482-0.962,1.474-2.359,1.559-3.118c0.234-2.108-1.493-3.597-1.679-5.636
		c-1.198,1.938-1.698,4.293-2.878,6.595c-0.855,1.67-2.402,4.838-4.677,4.797c-2.842-0.052-5.108-5.543-5.996-7.794
		c-3.871-9.819-6.505-21.649-8.514-32.617c2.468,9.012,5.154,19.026,8.994,27.461c0.879,1.931,2.877,7.238,5.875,6.954
		c2.504-0.236,4.693-5.507,5.517-7.554c3.757-9.345,6.628-19.451,9.352-29.619c2.733,8.292,5.074,18.908,9.114,26.741
		c1.295,2.512,3.717,8.242,7.435,7.914c2.791-0.246,4.758-4.457,5.875-6.596c4.362-8.346,6.598-18.334,9.354-28.06
		c1.294,2.808,1.766,6.065,2.638,9.233c0.82,2.977,1.795,5.965,2.759,8.993c1.914,6.021,3.858,12.281,6.955,16.668
		c0.692,0.982,1.729,2.441,3.357,2.278c2.449-0.245,4.262-4.978,5.156-6.835c3.938-8.183,6.047-17.79,8.873-26.86
		c-1.805,9.33-4.356,22.24-8.273,31.657c-1.106,2.659-3.131,8.221-6.355,7.914c-2.249-0.214-3.36-2.918-4.317-4.796
		C76.433,71.969,75.708,69.761,74.825,67.99z M65.353,44.128c-0.452,2.292-1.551,4.859-1.44,6.715
		c0.093,1.539,1.149,3.289,1.679,4.677c0.623,1.635,1.115,3.128,1.799,4.677c0.86-2.055,3.057-4.986,3.118-7.435
		c0.023-0.961-0.542-2.517-0.84-3.837c-0.794-3.524-1.938-8.717-2.878-11.872C66.446,39.317,65.847,41.622,65.353,44.128z
		 M33.335,44.968c-0.566,2.472-1.902,5.36-1.798,7.315c0.063,1.21,1.141,2.722,1.559,3.837c0.521,1.389,0.792,2.698,1.679,3.718
		c0.688-2.948,3.133-5.942,3.237-9.113c0.057-1.707-0.898-4.192-1.438-6.596c-0.583-2.592-0.897-5.462-1.56-6.955
		C34.353,39.376,34.008,42.033,33.335,44.968z M37.053,58.158c-0.432,1.538-1.425,3.442-1.319,4.676
		c0.058,0.677,0.979,2.064,1.439,3.118c1.54,3.523,2.964,6.241,4.677,9.233c1.726,3.018,4.983,9.213,8.873,9.713
		c2.879,0.37,5.061-2.547,6.235-4.077c2.841-3.697,4.645-7.063,6.716-11.512c0.654-1.406,2.729-4.741,2.758-6.355
		c0.024-1.411-1.005-3.339-1.439-4.916c-0.485-1.763-0.77-3.507-1.559-4.917c-1.343,4.63-2.451,9.219-4.197,13.79
		c-1.329,3.481-4.174,11.971-9.113,10.673c-3.394-0.893-5.777-6.883-7.075-10.673c-1.515-4.426-3.242-9.685-4.557-13.79
		C37.925,54.622,37.595,56.223,37.053,58.158z M29.378,60.436c-0.528,1.876-1.746,4.297-1.679,5.636
		c0.093,1.825,1.771,3.291,2.398,4.916c0.688-1.222,1.251-2.584,1.919-4.077c0.554-1.238,1.719-3.091,1.679-4.437
		c-0.021-0.688-0.594-2.279-0.96-3.478c-0.55-1.803-1.241-3.676-1.679-4.557C30.599,56.134,30.039,58.092,29.378,60.436z
		 M68.59,63.314c0.129,1.278,1.146,2.744,1.679,3.957c0.604,1.374,0.98,2.804,1.919,3.837c0.36-1.848,1.994-3.136,2.038-5.036
		c0.032-1.378-0.995-3.392-1.559-5.276c-0.652-2.181-1.086-4.728-1.799-5.636C70.673,57.097,68.402,61.455,68.59,63.314z
		 M33.096,70.749c-0.469,1.334-1.486,3.128-1.439,4.077c0.085,1.694,2.282,3.934,2.878,5.156c0.487-2.222,2.852-3.894,2.878-6.236
		c0.019-1.625-2.382-6.26-2.758-7.314C34.219,67.703,33.701,69.021,33.096,70.749z M64.872,73.866
		c0.052,2.299,2.131,4.335,2.998,6.235c0.536-1.877,2.493-3.257,2.519-5.275c0.024-1.992-2.66-6.578-2.998-8.035
		C67.011,69.183,64.817,71.399,64.872,73.866z M35.613,82.38c0.065,1.029,1.344,2.378,1.919,3.357
		c1.999,3.404,3.925,6.957,6.355,9.474c1.933,2.001,5.905,4.963,9.233,3.837c3.395-1.147,6.087-4.711,7.914-7.194
		c0.945-1.285,1.724-2.749,2.878-4.677c0.732-1.221,2.741-3.422,2.758-4.916c0.01-0.86-0.83-2.327-1.199-3.358
		c-0.401-1.123-0.582-2.386-1.438-3.117c-2.694,5.546-4.77,12.889-9.713,16.068c-1.626,1.045-3.809,1.346-5.756,0.239
		c-5.397-3.065-7.353-10.956-10.433-16.428c-0.007-0.073-0.018-0.142-0.12-0.12C37.751,76.791,35.543,81.267,35.613,82.38z"/>
</g>
<g id="Layer_1">
</g>
</svg>
