<?xml version="1.0" encoding="iso-8859-1"?>
<!-- Generator: Adobe Illustrator 21.0.2, SVG Export Plug-In . SVG Version: 6.00 Build 0)  -->
<svg version="1.1" xmlns="http://www.w3.org/2000/svg" xmlns:xlink="http://www.w3.org/1999/xlink" x="0px" y="0px"
	 viewBox="0 0 13.095 13.088" style="enable-background:new 0 0 13.095 13.088;" xml:space="preserve">
<g id="A_x5F_and_x5F_F_x5F_Baillargeon_x5F_Express_x5F_Inc">
	<path d="M0,0.001c3.12,0,6.24,0.003,9.361-0.001c1.089,1.886,2.159,3.783,3.243,5.673c0.163,0.29,0.333,0.576,0.491,0.869
		c-1.245,2.182-2.492,4.362-3.733,6.546c-2.038-0.015-4.076-0.001-6.114-0.006c-1.081,0.001-2.161-0.002-3.242,0.001
		C0.013,8.865,0.007,4.646,0.01,0.428C0.009,0.285,0.013,0.143,0,0.001z M4.132,0.016C4.139,4.361,4.13,8.707,4.137,13.052
		c1.053-1.417,2.108-2.833,3.157-4.253C6.423,8.797,5.552,8.802,4.681,8.797c0-1.511-0.004-3.022,0.002-4.532
		c0.869,0.007,1.739-0.006,2.608,0.007C6.24,2.852,5.183,1.436,4.132,0.016z"/>
</g>
<g id="Layer_1">
</g>
</svg>
