<?xml version="1.0" encoding="iso-8859-1"?>
<!-- Generator: Adobe Illustrator 21.0.2, SVG Export Plug-In . SVG Version: 6.00 Build 0)  -->
<svg version="1.1" xmlns="http://www.w3.org/2000/svg" xmlns:xlink="http://www.w3.org/1999/xlink" x="0px" y="0px"
	 viewBox="0 0 16.572 14.183" style="enable-background:new 0 0 16.572 14.183;" xml:space="preserve">
<g id="Agence_x5F_Arma_x5F_Publicite">
	<path d="M7.802,0.912C7.993,0.613,8.14,0.286,8.353,0c0.254,0.166,0.523,0.311,0.754,0.51c0.726,0.602,1.224,1.469,1.389,2.398
		c0.096,0.388,0.07,0.79,0.066,1.186C10.487,5.072,10.05,6.02,9.346,6.704C8.533,7.558,7.309,7.931,6.152,7.877
		C5.868,7.84,5.582,7.805,5.309,7.72C5.047,7.656,4.811,7.517,4.55,7.451c0.403,0.76,0.862,1.49,1.29,2.237
		c0.625,1.1,1.298,2.172,1.947,3.258c0.177,0.284,0.342,0.576,0.524,0.857c0.207-0.266,0.343-0.578,0.534-0.854
		c0.631-1.077,1.254-2.157,1.894-3.228c0.469-0.744,0.893-1.515,1.361-2.259c0.088-0.153,0.175-0.309,0.295-0.44
		c0.225,0.358,0.423,0.731,0.641,1.093c0.176,0.296,0.371,0.581,0.529,0.888c0.739,1.273,1.454,2.56,2.21,3.822
		c0.258,0.457,0.521,0.91,0.796,1.357c-5.333,0-10.667,0-16.001,0C0.381,14.181,0.19,14.189,0,14.169
		c0.226-0.431,0.49-0.84,0.719-1.27c0.434-0.771,0.887-1.532,1.319-2.304c0.267-0.418,0.503-0.854,0.768-1.272
		C3.54,8.111,4.29,6.908,4.985,5.674C5.54,4.728,6.082,3.775,6.646,2.836C7.031,2.194,7.402,1.544,7.802,0.912z"/>
</g>
<g id="Layer_1">
</g>
</svg>
