<?xml version="1.0" encoding="iso-8859-1"?>
<!-- Generator: Adobe Illustrator 19.2.0, SVG Export Plug-In . SVG Version: 6.00 Build 0)  -->
<svg version="1.1" xmlns="http://www.w3.org/2000/svg" xmlns:xlink="http://www.w3.org/1999/xlink" x="0px" y="0px"
	 viewBox="0 0 62.007 71.115" style="enable-background:new 0 0 62.007 71.115;" xml:space="preserve">
<g id="Agroquimica_x5F_Rafard">
	<path style="fill-rule:evenodd;clip-rule:evenodd;" d="M61.699,20.727c-0.792-0.15-1.413-0.708-2.091-1.094
		c-2.738-1.556-5.497-3.217-8.224-4.849c-6.102-3.651-12.482-7.112-18.491-10.934c-0.994-0.631-1.954-1.274-2.995-1.9
		c-0.302-0.183-0.799-0.303-0.855-0.761c0.097-0.501,1.227-1.156,1.711-1.188c0.536-0.036,1.506,0.722,2.044,1.093
		c1.868,1.292,3.939,2.294,5.847,3.423c6.55,3.874,12.95,7.727,19.49,11.551c1.302,0.762,2.644,1.498,3.755,2.425
		C61.937,19.217,62.099,20.241,61.699,20.727z"/>
	<path style="fill-rule:evenodd;clip-rule:evenodd;" d="M61.747,26.953c-0.689-0.049-1.357-0.567-2.092-0.998
		c-0.303-0.178-0.644-0.415-0.999-0.618c-0.3-0.172-0.788-0.515-1.045-0.523c-0.357-0.011-0.465,0.328-0.808,0.333
		c-0.838-0.304-1.517-0.765-2.139-1.283c-1.74-0.8-3.532-2.038-5.324-3.091c-0.51-0.299-1.444-0.67-1.711-1.093
		c-0.119-0.188-0.139-0.653-0.285-0.903c-0.302-0.515-1.721-1.204-2.282-1.521c-1.702-0.964-3.168-1.778-4.849-2.757
		c-0.77-0.448-1.75-1.294-2.472-1.331c-0.237-0.012-0.577,0.153-0.855,0.143c-0.612-0.024-1.898-0.961-2.424-1.283
		c-1.575-0.967-3.055-1.922-4.611-2.805c-0.801-0.455-1.572-0.916-2.234-1.474c-0.11-0.159-0.101-0.438-0.095-0.713
		c-0.551-0.559-1.294-0.941-1.997-1.379c-0.663-0.414-1.537-0.706-1.854-1.474c0.377-0.415,1.197-0.952,1.759-1.093
		c0.63-0.158,1.776,0.785,2.52,1.235c0.343,0.208,0.746,0.434,1.141,0.666c0.392,0.231,0.83,0.589,1.141,0.618
		c0.315,0.029,0.639-0.208,0.903-0.19c0.594,0.039,2.313,1.208,2.709,1.664c0.301,0.346,0.538,0.985,0.903,1.331
		c0.512,0.483,1.549,0.976,2.234,1.378c3.639,2.129,7.511,4.366,11.266,6.655c0.681,0.415,1.463,0.86,2.281,1.331
		c0.722,0.414,1.751,1.141,2.33,1.235c0.554,0.091,1.022-0.058,1.426,0.048c0.5,0.13,0.983,0.524,1.474,0.809
		c0.721,0.416,1.461,0.606,1.521,1.616c0.794,0.834,2.295,1.616,3.47,2.329c0.403,0.243,0.942,0.482,1.093,0.808
		C62.08,25.139,61.991,26.392,61.747,26.953z"/>
	<path style="fill-rule:evenodd;clip-rule:evenodd;" d="M61.747,33.133c-1.061-0.261-2.114-1.093-3.09-1.664
		c-0.667-0.39-1.151-0.701-1.901-0.237c-2.207-1.159-4.519-2.701-6.797-4.04c-1.042-0.613-2.368-0.935-2.709-2.188
		c-3.917-2.51-8.604-5.164-12.93-7.7c-0.614-0.359-1.344-0.918-1.901-1.046c-0.259-0.059-0.573,0.039-0.808,0
		c-0.569-0.095-1.825-1.055-2.329-1.379c-1.584-1.017-2.943-1.72-4.611-2.709c-0.678-0.402-1.875-0.931-2.234-1.426
		c-0.111-0.154-0.173-0.484-0.238-0.713c-0.524-0.567-1.291-0.888-1.997-1.284c-0.668-0.375-1.467-0.721-1.854-1.378
		c0.066-0.436,1.282-1.286,1.711-1.236c0.809,0.093,1.535,0.816,2.377,1.283c0.337,0.187,0.729,0.441,1.141,0.666
		c0.352,0.191,0.9,0.542,1.236,0.57c0.346,0.029,0.664-0.176,0.998-0.143c0.482,0.048,1.038,0.576,1.521,0.856
		c0.529,0.306,1.03,0.524,1.521,0.808c1.091,0.631,1.954,1.291,2.852,1.854c1.13,0.709,2.474,1.316,3.375,2.044
		c0.074,0.179,0.005,0.502,0.095,0.665c1.818,1.392,3.928,2.395,5.895,3.613c1.974,1.222,4.026,2.321,6.037,3.47
		c0.24-0.017,0.548-0.121,0.76-0.095c0.649,0.08,1.69,0.871,2.377,1.283c1.591,0.955,2.921,1.756,4.516,2.71
		c0.331,0.197,0.711,0.44,1.093,0.713c0.68,0.485,1.367,0.528,1.474,1.474c0.595,0.479,1.354,0.972,2.282,1.521
		c0.652,0.387,2.034,0.861,2.282,1.521C62.092,31.487,62.026,32.671,61.747,33.133z"/>
	<path style="fill-rule:evenodd;clip-rule:evenodd;" d="M61.699,39.313c-1.106-0.392-1.997-1.056-3.09-1.664
		c-0.3-0.167-0.773-0.524-1.045-0.523c-0.286,0-0.521,0.369-0.809,0.38c-0.317,0.013-0.867-0.395-1.236-0.618
		c-2.661-1.61-5.382-3.144-7.938-4.801c-0.089-1.278-1.449-1.817-2.615-2.472c-4.297-2.416-8.425-4.921-12.692-7.415
		c-0.758-0.443-1.559-1.062-2.472-1.569c-0.765-0.425-1.873-1.339-2.566-1.426c-0.276-0.034-0.708,0.157-0.951,0.143
		c-0.295-0.018-0.884-0.39-1.283-0.618c-2.733-1.563-5.538-3.276-8.081-4.943c-0.128-0.245-0.035-0.449-0.095-0.713
		c-0.863-0.701-1.916-1.348-3.042-1.949c-0.347-0.186-0.898-0.348-0.903-0.713c-0.006-0.394,1.558-1.236,2.044-1.189
		c0.669,0.065,1.563,0.732,2.33,1.189c0.336,0.2,0.696,0.428,1.093,0.666c0.336,0.201,0.849,0.546,1.141,0.569
		c0.331,0.027,0.567-0.174,0.951-0.143c0.336,0.028,0.848,0.362,1.283,0.618c2.663,1.566,5.733,3.461,8.129,4.944
		c0.076,0.193,0.027,0.512,0.095,0.713c2.574,1.974,5.697,3.398,8.414,5.229c2.343,1.251,5.052,2.968,7.558,4.373
		c0.383,0.215,0.816,0.536,1.093,0.571c0.315,0.039,0.596-0.121,0.855-0.096c0.457,0.045,1.936,0.997,2.377,1.283
		c1.5,0.973,2.977,1.778,4.516,2.71c0.799,0.483,1.787,0.858,2.234,1.378c0.179,0.208,0.255,0.594,0.38,0.762
		c0.398,0.533,1.526,1.068,2.282,1.521c0.632,0.378,2.026,0.932,2.234,1.521C62.111,37.659,61.979,38.809,61.699,39.313z"/>
	<path style="fill-rule:evenodd;clip-rule:evenodd;" d="M61.699,45.492c-0.838-0.151-1.464-0.665-2.091-1.046
		c-0.659-0.399-1.28-0.789-2.044-1.094c-0.312,0.006-0.441,0.193-0.761,0.19c-3.115-1.702-6.095-3.539-9.127-5.324
		c-0.751-1.412-2.517-2.043-3.945-2.899c-3.154-1.891-6.251-3.675-9.459-5.514c-2.134-1.223-4.143-2.614-6.227-3.803
		c-2.143-1.223-4.195-2.504-6.323-3.66c-0.302-0.018-0.485,0.084-0.808,0.047c-3.107-1.854-6.348-3.571-9.365-5.514
		c-0.082-0.187-0.087-0.451-0.142-0.666c-1.061-1.125-2.86-1.513-3.898-2.661c0.28-0.589,1.183-1.044,1.759-1.236
		c0.079-0.026,0.111-0.074,0.238-0.048c0.672,0.144,1.561,0.803,2.282,1.236c0.497,0.299,1.588,1.18,2.234,1.235
		c0.354,0.031,0.65-0.227,1.045-0.19c0.342,0.032,0.814,0.428,1.236,0.665c2.69,1.513,5.772,3.357,8.176,4.896
		c0.097,0.156,0.026,0.482,0.047,0.713c0.828,0.696,1.789,1.244,2.71,1.807c0.933,0.569,1.896,1.072,2.852,1.616
		c0.923,0.525,1.769,1.224,2.709,1.759c4.187,2.382,8.47,4.842,12.692,7.415c0.453,0.276,1.155,0.74,1.474,0.761
		c0.281,0.019,0.522-0.202,0.855-0.189c0.358,0.013,0.813,0.383,1.236,0.617c2.679,1.485,5.599,3.211,8.034,4.802
		c0.208,1.229,1.611,1.733,2.567,2.329c0.836,0.521,1.716,0.882,2.187,1.615C61.877,43.961,62.038,45.1,61.699,45.492z"/>
	<path style="fill-rule:evenodd;clip-rule:evenodd;" d="M61.747,51.577c-0.76-0.085-1.387-0.649-2.092-1.094
		c-0.312-0.196-0.666-0.35-1.046-0.57c-0.309-0.18-0.767-0.515-1.045-0.523c-0.369-0.011-0.493,0.317-0.856,0.333
		c-1.575-0.838-3.088-1.796-4.611-2.709c-1.522-0.913-3.115-1.699-4.516-2.758c-0.132-0.231-0.184-0.545-0.286-0.808
		c-0.549-0.503-1.222-0.844-1.854-1.236c-1.847-1.145-3.846-2.215-5.799-3.327c-2.567-1.462-5.117-2.993-7.701-4.516
		c-0.634-0.373-1.208-0.869-1.854-1.236c-3.249-1.848-6.279-3.73-9.65-5.609c-0.561-0.312-1.247-0.708-1.901-1.141
		c-0.592-0.391-1.406-1.028-1.949-1.093c-0.295-0.035-0.717,0.127-1.046,0.095c-0.657-0.063-1.891-0.953-2.472-1.283
		c-2.356-1.339-4.83-2.796-6.987-4.23c-0.136-0.239,0.076-0.535-0.048-0.761c-0.569-0.495-1.252-0.781-1.997-1.236
		c-0.429-0.262-1.829-0.804-1.806-1.378c0.008-0.214,1.376-1.243,1.806-1.189c0.725,0.092,1.555,0.721,2.377,1.189
		c0.753,0.429,1.559,1.129,2.329,1.235c0.299,0.041,0.621-0.155,0.903-0.143c0.75,0.035,1.698,0.83,2.472,1.283
		c2.356,1.382,5.029,2.787,6.988,4.278c0.178,0.179-0.032,0.449,0.095,0.666c0.976,0.898,2.204,1.539,3.375,2.187
		c3.509,1.938,7.02,4.117,10.41,6.226c3.367,1.974,6.957,4.084,10.505,6.133c0.508,0.293,1.126,0.612,1.759,0.998
		c0.837,0.51,1.558,1.315,2.614,0.808c3.141,1.677,6.119,3.515,9.08,5.372c0.331,1.239,1.511,1.578,2.709,2.329
		c0.759,0.476,1.968,0.917,2.234,1.616C62.084,49.995,61.959,50.976,61.747,51.577z"/>
	<path style="fill-rule:evenodd;clip-rule:evenodd;" d="M13.736,26.194c0.137,0.222-0.041,0.481,0,0.76
		c1.255,1.016,2.727,1.722,4.136,2.519c1.388,0.787,2.755,1.655,4.136,2.472c4.149,2.455,8.278,4.941,12.454,7.416
		c3.805,2.254,7.497,4.496,11.504,6.702c0.401,0.221,0.822,0.559,1.046,0.57c0.299,0.017,0.558-0.287,0.855-0.285
		c0.561,0.005,1.91,1.013,2.377,1.283c2.3,1.333,4.809,2.752,6.798,4.184c0.172,1.745,2.292,1.542,2.947,2.805
		c-0.035,0.439-0.457,0.559-0.808,0.761c-0.314,0.18-0.689,0.471-1.045,0.476c-0.399,0.004-1.017-0.473-1.616-0.809
		c-1.135-0.637-1.955-1.116-3.043-1.807c-0.494-0.313-1.034-0.656-1.521-0.855c-0.643-0.263-1.368-0.12-1.949-0.237
		c-0.398-0.081-0.806-0.411-1.236-0.666c-0.407-0.24-0.96-0.466-1.141-0.713c-0.158-0.215-0.175-0.74-0.333-0.998
		c-0.242-0.396-1.693-1.153-2.187-1.427c-3.923-2.173-7.667-4.282-11.456-6.606c-5.954-3.654-12.02-7.053-18.111-10.791
		c-0.675-0.414-1.435-0.896-2.282-1.331c-0.7-0.359-1.744-1.197-2.33-1.235c-0.381-0.025-0.674,0.254-0.998,0.237
		c-0.386-0.02-0.854-0.428-1.283-0.665c-0.449-0.249-0.914-0.431-1.188-0.713c-0.418-0.431-0.58-1.147-1.046-1.569
		c-0.432-0.392-1.084-0.633-1.616-0.951c-0.542-0.324-1.067-0.666-1.568-0.998c-1.063-0.701-2.277-1.127-3.042-2.044
		c-0.001-0.652-0.231-1.804,0.095-2.187c0.793-0.284,2.136,1.245,2.995,1.331c0.358,0.035,0.748-0.207,1.045-0.19
		c0.725,0.042,1.732,0.932,2.424,1.331c0.822,0.475,1.656,0.961,2.377,1.379C10.76,24.287,12.414,25.196,13.736,26.194z"/>
	<path style="fill-rule:evenodd;clip-rule:evenodd;" d="M0.331,25.718c0.539-0.014,1.316,0.58,1.854,0.903
		c1.72,1.032,3.468,1.973,5.086,2.994c8.448,5.074,17.16,9.761,25.432,15.021c1.655,1.053,3.419,1.976,5.134,2.947
		c1.71,0.969,3.393,2.003,5.087,2.994c1.695,0.993,3.405,1.956,5.038,3.043c1.623,0.854,3.383,1.952,5.134,2.947
		c0.354,0.2,1.497,0.709,1.521,1.141c0.027,0.488-1.365,1.192-1.807,1.188c-0.498-0.005-1.198-0.594-1.759-0.903
		c-3.893-2.153-7.715-4.496-11.551-6.75c-2.233-1.314-4.478-2.529-6.655-3.803c-1.088-0.637-2.094-1.415-3.185-2.044
		c-5.456-3.15-11.078-6.456-16.495-9.65c-3.208-1.892-6.583-3.762-9.887-5.799c-0.462-0.285-1.025-0.671-1.616-0.998
		c-0.622-0.345-1.386-0.71-1.522-1.094c-0.197-0.559-0.007-1.622,0.048-1.996C0.215,25.792,0.263,25.744,0.331,25.718z"/>
	<path style="fill-rule:evenodd;clip-rule:evenodd;" d="M0.378,31.85c0.879,0.225,2.446,1.223,3.233,1.711
		c5.038,3.132,10.283,5.903,15.307,9.032c4.042,2.517,8.204,4.629,12.216,7.226c1.984,1.283,4.075,2.427,6.084,3.66
		c3.031,1.86,6.136,3.595,9.222,5.371c1.002,0.577,2.109,1.075,2.947,1.901c-0.284,0.369-1.124,1.174-1.759,1.188
		c-0.36,0.009-1.037-0.435-1.521-0.713c-4.213-2.421-8.392-4.885-12.597-7.273c-0.936-0.531-1.757-1.194-2.662-1.759
		c-1.828-1.14-3.714-2.167-5.561-3.232C17.721,44.601,10.25,40.198,3.04,35.89c-0.429-0.208-0.966-0.534-1.521-0.856
		c-0.471-0.272-1.141-0.543-1.331-0.998c-0.19-0.452-0.053-1.38,0.047-2.044C0.263,31.924,0.31,31.876,0.378,31.85z"/>
	<path style="fill-rule:evenodd;clip-rule:evenodd;" d="M44.063,63.889c-0.45,0.442-1.047,1.041-1.806,1.046
		c-0.485,0.003-1-0.435-1.521-0.714c-1.05-0.561-1.788-1.018-2.853-1.615c-0.399-0.225-1.056-0.725-1.474-0.762
		c-0.292-0.025-0.589,0.206-0.855,0.191c-0.418-0.024-1.367-0.657-1.949-0.999c-0.688-0.403-1.259-0.759-1.807-1.093
		c-3.641-2.223-7.298-4.369-11.028-6.513c-1.231-0.707-2.378-1.563-3.613-2.234c-3.7-2.01-7.498-4.359-11.076-6.465
		c-0.113-0.236-0.193-0.505-0.238-0.808c-1.144-0.917-2.903-1.846-4.421-2.758c-0.512-0.307-1.099-0.619-1.284-1.093
		c-0.179-0.459-0.195-1.509,0.143-1.949c0.483-0.17,1.235,0.461,1.854,0.808c1.136,0.638,1.969,1.236,3.138,1.902
		c0.488,0.278,1.254,0.816,1.664,0.855c0.221,0.022,0.556-0.158,0.855-0.143c0.49,0.025,1.32,0.669,1.901,1.046
		c0.661,0.427,1.304,0.719,1.854,1.046c7.443,4.426,14.619,8.523,22.009,13.072c0.522,0.321,1.204,0.642,1.854,1.045
		c0.563,0.35,1.507,0.745,1.806,1.094c0.199,0.232,0.195,0.639,0.38,0.903c0.3,0.429,1.094,0.757,1.616,1.046
		c1.228,0.678,2.2,1.26,3.375,1.949C43.126,63.063,43.806,63.283,44.063,63.889z"/>
	<path style="fill-rule:evenodd;clip-rule:evenodd;" d="M0.331,44.209c0.546,0.086,1.356,0.607,1.997,0.998
		c0.605,0.371,1.323,0.983,1.901,1.046c0.285,0.03,0.502-0.235,0.856-0.238c0.505-0.003,1.347,0.726,1.901,1.046
		c4.343,2.51,8.792,5.068,13.025,7.606c5.08,3.046,10.139,5.715,14.736,8.794c0.095,0.237,0.053,0.612,0.19,0.808
		c0.435,0.468,1.138,0.803,1.996,1.283c0.494,0.277,1.88,0.854,1.902,1.331c0.028,0.617-1.382,0.987-1.854,1.188
		c-0.641-0.108-1.101-0.485-1.616-0.808c-0.426-0.266-1.024-0.774-1.569-0.809c-0.367-0.022-0.56,0.215-0.903,0.19
		c-0.398-0.028-1.302-0.736-1.854-1.094c-1.804-1.165-3.799-2.146-5.562-3.231c-4.924-3.031-9.827-5.638-14.831-8.652
		c-1.764-1.062-3.589-2.164-5.562-3.232c-0.929-0.503-1.863-0.829-1.949-1.901c-0.33-0.393-0.911-0.676-1.521-1.045
		c-0.49-0.297-1.272-0.602-1.474-1.046c-0.246-0.546-0.129-1.479,0.048-2.14C0.223,44.26,0.275,44.232,0.331,44.209z"/>
	<path style="fill-rule:evenodd;clip-rule:evenodd;" d="M0.331,50.532c1.154,0.584,3.089,1.659,4.23,2.377
		c4.091,2.57,8.233,4.749,12.455,7.225c2.666,1.564,5.527,3.295,8.271,4.849c1.984,1.124,4.217,2.318,6.18,3.66
		c0.413,0.283,1.875,0.875,1.901,1.331c0.025,0.447-1.334,1.138-1.711,1.142c-0.483,0.004-1.416-0.739-2.044-1.094
		c-2-1.13-4.046-2.343-5.942-3.47c-3.902-2.321-7.835-4.645-11.884-6.893c-2.75-1.527-5.139-2.991-7.939-4.611
		c-0.596-0.345-1.263-0.753-1.949-1.189c-0.667-0.423-1.636-0.801-1.807-1.283c-0.177-0.501-0.071-1.51,0.095-1.949
		C0.223,50.582,0.275,50.555,0.331,50.532z"/>
</g>
<g id="Layer_1">
</g>
</svg>
