<?xml version="1.0" encoding="iso-8859-1"?>
<!-- Generator: Adobe Illustrator 21.0.2, SVG Export Plug-In . SVG Version: 6.00 Build 0)  -->
<svg version="1.1" xmlns="http://www.w3.org/2000/svg" xmlns:xlink="http://www.w3.org/1999/xlink" x="0px" y="0px"
	 viewBox="0 0 8.001 7.417" style="enable-background:new 0 0 8.001 7.417;" xml:space="preserve">
<g id="Agromundo">
	<path d="M7.554,4c0,0,0.256-0.13,0.382-0.474C7.979,3.4,8.001,3.268,8.001,3.13c0-0.325-0.127-0.631-0.357-0.86
		c-0.23-0.23-0.535-0.357-0.86-0.357c-0.325,0-0.631,0.127-0.861,0.357l-1.221,1.22C4.651,3.539,4.571,3.54,4.519,3.492l-0.01-0.01
		C4.461,3.43,4.462,3.348,4.514,3.297l1.217-1.22c0.475-0.475,0.475-1.247,0-1.722C5.497,0.121,5.189,0.002,4.88,0
		C4.229,0.001,4.001,0.45,4.001,0.45S3.772,0,3.118,0C3.112,0,3.106,0,3.1,0C2.786,0.007,2.493,0.133,2.27,0.355
		c-0.23,0.23-0.357,0.536-0.357,0.861c0,0.309,0.114,0.599,0.322,0.825h0l1.254,1.254c0.05,0.051,0.051,0.131,0.005,0.185
		L3.481,3.493C3.428,3.54,3.348,3.537,3.297,3.487L2.078,2.269c-0.23-0.23-0.535-0.357-0.86-0.357c-0.326,0-0.631,0.127-0.861,0.357
		C0.126,2.499,0,2.805,0,3.13c0,0.13,0.021,0.257,0.06,0.378C0.183,3.865,0.448,4,0.448,4S0.177,4.138,0.056,4.505
		C0.019,4.621,0,4.744,0,4.87c0,0.325,0.126,0.631,0.356,0.86c0.23,0.23,0.536,0.357,0.861,0.357l0,0c0.325,0,0.63-0.127,0.86-0.357
		l1.827-1.827c0.052-0.051,0.133-0.052,0.186-0.004l0.009,0.01c0.048,0.053,0.047,0.135-0.004,0.186L3.804,4.389
		c-0.027,0.024-0.045,0.06-0.045,0.101c0,0.001,0,0.002,0,0.003l0,0L3.757,7.304h0.001c0,0-0.015,0.113,0.116,0.113H4.23
		c0.099,0,0.115-0.064,0.117-0.097V7.308c0-0.003-0.001-0.004-0.001-0.004h0.001V4.743c0-0.003-0.001-0.004-0.001-0.007
		c0-0.037,0.015-0.07,0.039-0.094L4.385,4.642L4.61,4.417L5.923,5.73l0,0c0.229,0.23,0.536,0.357,0.861,0.357
		c0.325,0,0.631-0.127,0.86-0.357c0.23-0.229,0.357-0.535,0.357-0.86c0-0.134-0.021-0.264-0.062-0.386C7.815,4.133,7.554,4,7.554,4z
		 M1.661,5.365C1.543,5.484,1.385,5.55,1.218,5.55c-0.168,0-0.326-0.065-0.444-0.185C0.655,5.247,0.59,5.09,0.59,4.922
		c0-0.168,0.065-0.325,0.184-0.444c0.019-0.019,0.04-0.037,0.061-0.054c0.244-0.215,0.603-0.314,0.771-0.352h0
		c0.009-0.001,0.016-0.008,0.016-0.018c0-0.009-0.006-0.016-0.014-0.017V4.037c-0.184-0.04-0.6-0.155-0.839-0.418
		C0.682,3.532,0.626,3.424,0.602,3.306c0,0,0,0,0-0.001C0.594,3.266,0.59,3.224,0.59,3.182c0-0.167,0.065-0.325,0.184-0.443
		C0.892,2.619,1.05,2.555,1.218,2.555c0.167,0,0.325,0.064,0.443,0.184l1.314,1.313L1.661,5.365z M4.001,3.025L2.687,1.712
		C2.568,1.594,2.503,1.436,2.503,1.269c0-0.167,0.065-0.325,0.184-0.443c0.119-0.119,0.276-0.185,0.444-0.185
		c0.042,0,0.082,0.004,0.123,0.013c0,0,0,0,0,0c0.118,0.024,0.226,0.08,0.314,0.165c0.262,0.24,0.378,0.656,0.418,0.84h0
		c0.002,0.008,0.008,0.014,0.018,0.014c0.009,0,0.016-0.007,0.017-0.016h0.001c0.037-0.168,0.136-0.526,0.351-0.77
		C4.39,0.865,4.408,0.845,4.427,0.824c0.118-0.118,0.276-0.184,0.444-0.184c0.168,0,0.325,0.066,0.443,0.185
		c0.119,0.118,0.185,0.276,0.185,0.443c0,0.168-0.066,0.325-0.184,0.443L4.001,3.025z M6.395,4.038
		C6.387,4.039,6.38,4.046,6.38,4.055c0,0.01,0.007,0.017,0.016,0.018l0,0c0.168,0.037,0.526,0.137,0.77,0.352
		C7.187,4.44,7.208,4.459,7.228,4.477c0.119,0.119,0.184,0.276,0.184,0.444c0,0.168-0.065,0.325-0.184,0.443
		C7.109,5.484,6.952,5.55,6.784,5.55c-0.168,0-0.325-0.065-0.444-0.185L5.027,4.052L6.34,2.738c0.119-0.119,0.276-0.184,0.444-0.184
		c0.167,0,0.325,0.064,0.443,0.184c0.119,0.118,0.184,0.276,0.184,0.443c0,0.042-0.004,0.084-0.012,0.123c0,0.001,0,0.001,0,0.001
		C7.376,3.424,7.319,3.532,7.233,3.619C6.994,3.882,6.578,3.997,6.395,4.038L6.395,4.038z"/>
</g>
<g id="Layer_1">
</g>
</svg>
