<?xml version="1.0" encoding="iso-8859-1"?>
<!-- Generator: Adobe Illustrator 21.0.2, SVG Export Plug-In . SVG Version: 6.00 Build 0)  -->
<svg version="1.1" xmlns="http://www.w3.org/2000/svg" xmlns:xlink="http://www.w3.org/1999/xlink" x="0px" y="0px"
	 viewBox="0 0 15.096 18.169" style="enable-background:new 0 0 15.096 18.169;" xml:space="preserve">
<g id="Agro_x5F_Consult">
	<path d="M0,13.058C2.517,8.705,5.032,4.351,7.551,0c2.51,4.355,5.032,8.704,7.545,13.058c-0.952,0-1.904,0-2.856,0
		c0.015,1.704-0.009,3.407,0.012,5.11c-0.546-0.001-1.092-0.003-1.638,0.001c0.02-1.704-0.006-3.407,0.012-5.111
		c-0.756-0.001-1.512,0-2.268,0c0.001,1.704,0.001,3.407,0.001,5.11c-0.54,0-1.08,0-1.621,0c0.001-1.703,0-3.406,0.001-5.11
		c-0.728,0-1.457,0-2.185,0c0.015,1.704-0.007,3.408,0.011,5.112c-0.545-0.003-1.089-0.002-1.634,0
		c0.02-1.703-0.01-3.408,0.015-5.111C1.964,13.059,0.982,13.057,0,13.058z M3.918,6.785c0.074,0.108,0.136,0.222,0.203,0.334
		c0.871,1.513,1.757,3.018,2.617,4.537c0.002-1.624,0-3.247,0.001-4.871C5.798,6.786,4.858,6.786,3.918,6.785z M8.358,6.785
		c0.001,1.624-0.001,3.248,0,4.872c0.562-1.001,1.147-1.989,1.718-2.986c0.372-0.626,0.719-1.266,1.102-1.885
		C10.238,6.786,9.298,6.786,8.358,6.785z"/>
</g>
<g id="Layer_1">
</g>
</svg>
