<?xml version="1.0" encoding="iso-8859-1"?>
<!-- Generator: Adobe Illustrator 19.2.0, SVG Export Plug-In . SVG Version: 6.00 Build 0)  -->
<svg version="1.1" xmlns="http://www.w3.org/2000/svg" xmlns:xlink="http://www.w3.org/1999/xlink" x="0px" y="0px"
	 viewBox="0 0 55.399 77.743" style="enable-background:new 0 0 55.399 77.743;" xml:space="preserve">
<g id="aid_x5F_association_x5F_for_x5F_lutherans">
	<path style="fill-rule:evenodd;clip-rule:evenodd;" d="M28.833,4.02c-1.715,1.216-3.693-0.136-3.661-1.806
		c0.021-1.087,0.943-2.12,2.057-2.207C29.375-0.161,30.224,2.657,28.833,4.02z"/>
	<path style="fill-rule:evenodd;clip-rule:evenodd;" d="M21.611,0.709c2.777-0.591,3.449,4.105,0.803,4.414
		c-1.02,0.119-2.134-0.7-2.458-1.354C19.351,2.545,20.288,0.927,21.611,0.709z"/>
	<path style="fill-rule:evenodd;clip-rule:evenodd;" d="M34.299,4.621c-1.508,1.246-3.577,0.002-3.711-1.555
		c-0.098-1.127,0.801-2.317,1.955-2.407C34.708,0.49,35.346,3.021,34.299,4.621z"/>
	<path style="fill-rule:evenodd;clip-rule:evenodd;" d="M16.445,2.465c1.697-0.425,3.31,1.696,2.608,3.26
		c-0.985,2.195-4.582,1.049-4.213-1.755C14.925,3.324,15.541,2.615,16.445,2.465z"/>
	<path style="fill-rule:evenodd;clip-rule:evenodd;" d="M40.117,5.324c-0.271,1.459-2.43,2.1-3.611,0.953
		c-0.58-0.564-0.973-1.747-0.651-2.608c0.176-0.472,1.024-1.198,1.755-1.254C39.231,2.29,40.149,3.628,40.117,5.324z"/>
	<path style="fill-rule:evenodd;clip-rule:evenodd;" d="M44.53,8.483c-0.441,0.682-1.14,1.363-2.307,1.153
		c-2.193-0.604-2.237-4.068,0.05-4.563C43.868,4.727,45.24,6.471,44.53,8.483z"/>
	<path style="fill-rule:evenodd;clip-rule:evenodd;" d="M12.182,5.123c2.593-0.321,3.241,3.386,1.254,4.363
		c-1.387,0.681-3.306-0.5-3.109-2.408C10.433,6.047,11.25,5.239,12.182,5.123z"/>
	<path style="fill-rule:evenodd;clip-rule:evenodd;" d="M27.228,5.474c1.447-0.186,2.47,0.691,2.607,1.856
		c0.153,1.297-0.651,2.278-1.304,2.558c-1.628,0.698-3.421-0.977-3.06-2.758C25.649,6.259,26.253,5.741,27.228,5.474z"/>
	<path style="fill-rule:evenodd;clip-rule:evenodd;" d="M32.444,6.126c3.009-0.631,3.322,4.44,0.651,4.564
		C30.343,10.817,29.8,6.581,32.444,6.126z"/>
	<path style="fill-rule:evenodd;clip-rule:evenodd;" d="M22.113,6.176c0.995-0.081,1.769,0.511,2.056,1.053
		c0.747,1.412,0.062,2.746-0.702,3.21c-1.558,0.948-3.566-0.424-3.41-2.357C20.144,6.983,20.859,6.278,22.113,6.176z"/>
	<path style="fill-rule:evenodd;clip-rule:evenodd;" d="M15.141,11.091c-0.064-1.625,0.589-2.794,1.906-2.909
		c3.116-0.271,3.213,4.871-0.051,4.514C16.041,12.591,15.507,11.983,15.141,11.091z"/>
	<path style="fill-rule:evenodd;clip-rule:evenodd;" d="M37.458,8.282c1.419-0.243,2.558,0.998,2.558,2.307
		c0,2.401-3.487,3.023-4.312,0.803C35.203,10.045,36.146,8.482,37.458,8.282z"/>
	<path style="fill-rule:evenodd;clip-rule:evenodd;" d="M8.019,8.834c3.186-0.604,3.614,4.74,0.051,4.363
		C5.816,12.746,5.783,9.363,8.019,8.834z"/>
	<path style="fill-rule:evenodd;clip-rule:evenodd;" d="M46.385,8.834c1.287-0.185,2.513,1.086,2.407,2.457
		c-0.164,2.156-3.306,2.596-4.061,1.003c-0.332-0.699-0.197-1.894,0.05-2.407C45.028,9.372,45.647,8.94,46.385,8.834z"/>
	<path style="fill-rule:evenodd;clip-rule:evenodd;" d="M27.529,10.84c1.151-0.088,2.299,0.857,2.307,2.156
		c0.017,2.721-4.27,2.943-4.413,0.201C25.356,11.923,26.167,10.944,27.529,10.84z"/>
	<path style="fill-rule:evenodd;clip-rule:evenodd;" d="M11.48,15.404c-1.275-1.368-0.467-3.704,1.404-3.761
		c1.589-0.048,2.712,1.495,2.156,3.009C14.574,15.926,12.667,16.461,11.48,15.404z"/>
	<path style="fill-rule:evenodd;clip-rule:evenodd;" d="M41.922,11.693c1.542-0.187,2.929,1.169,2.357,2.858
		c-0.178,0.525-0.754,1.097-1.203,1.304c-1.63,0.751-3.829-0.926-2.959-2.909C40.329,12.463,40.905,11.816,41.922,11.693z"/>
	<path style="fill-rule:evenodd;clip-rule:evenodd;" d="M32.444,11.743c0.811-0.111,1.769,0.404,2.056,0.852
		c0.911,1.429,0.028,3.346-1.404,3.511c-0.925,0.107-1.995-0.557-2.307-1.354C30.264,13.413,30.995,11.941,32.444,11.743z"/>
	<path style="fill-rule:evenodd;clip-rule:evenodd;" d="M22.012,11.843c3.023-0.614,3.375,4.168,0.552,4.313
		C19.709,16.303,19.428,12.14,22.012,11.843z"/>
	<path style="fill-rule:evenodd;clip-rule:evenodd;" d="M49.445,13.247c3.165-0.489,3.359,4.739-0.101,4.413
		c-1.485-0.258-2.345-2.494-1.203-3.761C48.522,13.629,48.85,13.304,49.445,13.247z"/>
	<path style="fill-rule:evenodd;clip-rule:evenodd;" d="M4.81,13.348c2.959-0.554,3.447,3.899,0.752,4.313
		c-1.933,0.297-2.986-1.895-2.006-3.611C3.904,13.745,4.22,13.411,4.81,13.348z"/>
	<path style="fill-rule:evenodd;clip-rule:evenodd;" d="M18.1,18.814c-2.98,0.526-3.602-4.067-0.752-4.363
		C20.308,14.143,20.597,18.367,18.1,18.814z"/>
	<path style="fill-rule:evenodd;clip-rule:evenodd;" d="M37.057,14.551c2.332-0.504,3.367,2.33,1.956,3.711
		c-1.827,1.789-4.549-0.523-3.46-2.658C35.761,15.196,36.348,14.72,37.057,14.551z"/>
	<path style="fill-rule:evenodd;clip-rule:evenodd;" d="M44.931,15.855c3.057-0.652,3.374,4.43,0.351,4.413
		C42.88,20.255,42.435,16.161,44.931,15.855z"/>
	<path style="fill-rule:evenodd;clip-rule:evenodd;" d="M9.423,15.955c1.193-0.146,2.316,0.647,2.458,1.806
		c0.42,3.421-4.704,3.303-4.363,0C7.608,16.888,8.289,16.095,9.423,15.955z"/>
	<path style="fill-rule:evenodd;clip-rule:evenodd;" d="M27.428,15.955c1.554-0.211,2.971,1.393,2.257,3.109
		c-0.816,1.962-3.94,1.587-4.213-0.602C25.299,17.069,26.242,16.117,27.428,15.955z"/>
	<path style="fill-rule:evenodd;clip-rule:evenodd;" d="M34.249,17.911c1.479,1.682-0.119,4.762-2.407,3.661
		c-1.359-0.654-1.549-2.695-0.651-3.611C31.892,17.244,33.44,17.124,34.249,17.911z"/>
	<path style="fill-rule:evenodd;clip-rule:evenodd;" d="M22.262,17.41c1.223-0.118,2.385,0.849,2.407,2.106
		c0.037,2.041-2.429,2.987-3.761,1.655c-0.573-0.573-0.839-1.524-0.502-2.458C20.609,18.156,21.32,17.501,22.262,17.41z"/>
	<path style="fill-rule:evenodd;clip-rule:evenodd;" d="M51.551,22.626c-2.35-0.472-2.222-4.409,0.401-4.514
		C54.876,17.995,54.884,23.145,51.551,22.626z"/>
	<path style="fill-rule:evenodd;clip-rule:evenodd;" d="M3.406,18.162c2.338,0.383,2.329,4.324-0.15,4.464
		c-2.467,0.139-3.072-3.872-0.702-4.414C2.729,18.172,3.071,18.141,3.406,18.162z"/>
	<path style="fill-rule:evenodd;clip-rule:evenodd;" d="M43.076,21.171c-0.314,2.025-3.298,2.306-4.112,0.602
		c-0.805-1.681,0.614-3.966,2.708-3.209C42.551,18.881,43.212,19.833,43.076,21.171z"/>
	<path style="fill-rule:evenodd;clip-rule:evenodd;" d="M13.937,18.563c1.926-0.383,3.253,2.064,2.107,3.611
		c-0.282,0.381-0.864,0.733-1.305,0.803c-1.536,0.244-3.369-1.327-2.407-3.26C12.482,19.417,13.16,18.659,13.937,18.563z"/>
	<path style="fill-rule:evenodd;clip-rule:evenodd;" d="M47.137,20.87c1.558-0.205,3.057,1.552,2.207,3.31
		c-1.012,2.095-4.282,1.125-4.112-1.304C45.298,21.936,45.875,21.037,47.137,20.87z"/>
	<path style="fill-rule:evenodd;clip-rule:evenodd;" d="M7.318,20.92c1.416-0.218,2.574,0.931,2.558,2.307
		c-0.017,1.277-1.16,2.167-2.157,2.157c-0.958-0.01-2.096-0.869-2.206-1.956C5.382,22.15,6.217,21.09,7.318,20.92z"/>
	<path style="fill-rule:evenodd;clip-rule:evenodd;" d="M18.501,21.222c1.301-0.129,2.486,0.835,2.457,2.257
		c-0.03,1.486-1.325,2.228-2.307,2.156c-1.436-0.105-2.579-1.655-1.906-3.26C16.943,21.906,17.439,21.327,18.501,21.222z"/>
	<path style="fill-rule:evenodd;clip-rule:evenodd;" d="M36.054,21.222c0.186-0.116,0.585-0.018,0.853-0.05
		c0.973,0.404,1.631,0.966,1.756,1.906c0.402,3.021-4.178,3.492-4.264,0.401C34.37,22.394,34.919,21.473,36.054,21.222z"/>
	<path style="fill-rule:evenodd;clip-rule:evenodd;" d="M42.574,23.628c1.688-0.203,2.826,1.674,2.057,3.311
		c-0.993,2.111-4.893,0.855-3.861-1.956C40.959,24.461,41.627,23.743,42.574,23.628z"/>
	<path style="fill-rule:evenodd;clip-rule:evenodd;" d="M52.956,23.628c1.136-0.125,2.26,0.714,2.407,1.856
		c0.143,1.109-0.528,2.115-1.454,2.408c-1.485,0.469-3.493-0.965-2.809-2.859C51.301,24.474,51.889,23.747,52.956,23.628z"/>
	<path style="fill-rule:evenodd;clip-rule:evenodd;" d="M1.801,23.679c0.159-0.091,0.64-0.073,0.802,0
		c1.786,0.442,2.058,3.207,0.601,4.062c-1.025,0.602-2.635,0-3.059-1.153C-0.36,25.208,0.511,23.934,1.801,23.679z"/>
	<path style="fill-rule:evenodd;clip-rule:evenodd;" d="M14.64,25.535c0.271,3.556-5.11,3.012-4.264-0.351
		c0.155-0.615,0.895-1.406,1.806-1.504C13.648,23.52,14.25,24.497,14.64,25.535z"/>
	<path style="fill-rule:evenodd;clip-rule:evenodd;" d="M6.816,26.387c2.556-0.266,3.245,3.503,0.953,4.263
		c-1.738,0.576-3.543-1.129-2.758-3.009C5.204,27.179,5.878,26.485,6.816,26.387z"/>
	<path style="fill-rule:evenodd;clip-rule:evenodd;" d="M47.89,26.387c1.231-0.173,2.362,0.773,2.457,1.956
		c0.1,1.24-0.848,2.385-2.006,2.457c-1.541,0.097-2.685-1.359-2.307-2.858C46.204,27.272,46.933,26.522,47.89,26.387z"/>
	<path style="fill-rule:evenodd;clip-rule:evenodd;" d="M37.559,26.488c1.662-0.158,2.603,0.84,2.508,2.607
		c-0.341,2.076-3.646,2.277-4.213,0.251C35.501,28.087,36.132,26.721,37.559,26.488z"/>
	<path style="fill-rule:evenodd;clip-rule:evenodd;" d="M16.947,26.537c0.218-0.116,0.651-0.018,0.953-0.05
		c2.38,0.475,1.901,4.309-0.451,4.312c-1.261,0.002-2.555-1.186-2.157-2.908C15.664,27.26,16.047,26.641,16.947,26.537z"/>
	<path style="fill-rule:evenodd;clip-rule:evenodd;" d="M52.805,29.045c1.638-0.219,3.047,1.325,2.457,2.959
		c-0.383,1.061-1.925,1.781-3.059,1.203c-0.632-0.321-1.287-1.257-1.254-2.156c0.032-0.886,0.437-1.125,0.602-1.304
		C51.847,29.426,52.079,29.142,52.805,29.045z"/>
	<path style="fill-rule:evenodd;clip-rule:evenodd;" d="M1.851,29.095c1.123-0.163,2.011,0.508,2.307,1.505
		c0.282,0.948-0.161,2.309-0.953,2.708c-1.443,0.728-2.934-0.55-3.109-1.705C-0.088,30.389,0.542,29.285,1.851,29.095z"/>
	<path style="fill-rule:evenodd;clip-rule:evenodd;" d="M12.132,29.245c2.668-0.435,3.41,3.368,1.253,4.213
		c-1.024,0.401-2.483-0.12-2.908-1.204c-0.108-0.276-0.288-0.906,0-1.705C10.615,30.169,11.173,29.402,12.132,29.245z"/>
	<path style="fill-rule:evenodd;clip-rule:evenodd;" d="M42.423,29.245c2.03-0.408,2.809,1.598,2.207,3.36
		c-0.56,0.78-1.565,1.272-2.508,0.953C40.112,32.877,40.091,29.557,42.423,29.245z"/>
	<path style="fill-rule:evenodd;clip-rule:evenodd;" d="M36.255,31.603c1.414-0.238,2.657,1.005,2.507,2.457
		c-0.104,1.016-1.047,1.904-2.105,1.956c-1.527,0.075-2.8-1.48-2.007-3.209C34.808,32.462,35.412,31.744,36.255,31.603z"/>
	<path style="fill-rule:evenodd;clip-rule:evenodd;" d="M18.452,31.653c3.062-0.483,3.274,4.171,0.551,4.363
		c-1.857,0.131-3.096-2.116-1.806-3.711C17.56,32.032,17.896,31.733,18.452,31.653z"/>
	<path style="fill-rule:evenodd;clip-rule:evenodd;" d="M7.417,31.904c2.224-0.473,3.28,2.408,1.906,3.761
		c-1.828,1.591-4.434-0.454-3.511-2.558C6.027,32.619,6.655,32.021,7.417,31.904z"/>
	<path style="fill-rule:evenodd;clip-rule:evenodd;" d="M45.282,34.612c-0.086-1.597,0.645-2.641,1.906-2.758
		c1.594-0.149,2.541,1.162,2.407,2.507C49.366,36.676,45.802,36.906,45.282,34.612z"/>
	<path style="fill-rule:evenodd;clip-rule:evenodd;" d="M13.937,34.261c0.186-0.116,0.585-0.017,0.852-0.05
		c1.167,0.5,1.783,1.066,1.756,2.257c-0.061,2.688-4.145,2.714-4.363,0.1C12.079,35.328,12.921,34.551,13.937,34.261z"/>
	<path style="fill-rule:evenodd;clip-rule:evenodd;" d="M40.769,34.261c1.306-0.184,2.492,0.789,2.507,2.106
		c0.02,1.724-1.584,2.532-2.908,2.157c-1.623-0.459-1.859-2.667-1.003-3.611C39.659,34.588,40.098,34.355,40.769,34.261z"/>
	<path style="fill-rule:evenodd;clip-rule:evenodd;" d="M3.054,34.411c1.032-0.069,2.074,0.742,2.207,1.805
		c0.156,1.255-0.728,2.163-1.404,2.408c-1.391,0.502-2.812-0.787-2.809-2.157C1.05,35.34,1.88,34.49,3.054,34.411z"/>
	<path style="fill-rule:evenodd;clip-rule:evenodd;" d="M51.652,34.562c-0.01-0.043,0.02-0.047,0.05-0.05
		c1.587-0.014,2.732,0.8,2.508,2.507c-0.154,1.169-1.482,2.201-2.859,1.755c-1.019-0.331-1.897-1.638-1.304-3.009
		C50.279,35.23,50.833,34.778,51.652,34.562z"/>
	<path style="fill-rule:evenodd;clip-rule:evenodd;" d="M22.363,35.515c1.342-0.142,2.561,0.861,2.407,2.407
		c-0.063,0.644-0.577,1.436-1.153,1.705c-1.639,0.766-3.613-0.792-3.109-2.558C20.74,36.256,21.317,35.625,22.363,35.515z"/>
	<path style="fill-rule:evenodd;clip-rule:evenodd;" d="M32.444,35.515c2.589-0.656,3.335,3.328,1.354,4.163
		c-1.009,0.425-2.116-0.053-2.607-0.702C30.288,37.784,30.894,35.771,32.444,35.515z"/>
	<path style="fill-rule:evenodd;clip-rule:evenodd;" d="M9.423,36.869c1.565-0.256,2.612,1.001,2.559,2.307
		c-0.07,1.687-2.085,2.684-3.511,1.605C6.979,39.651,7.707,37.05,9.423,36.869z"/>
	<path style="fill-rule:evenodd;clip-rule:evenodd;" d="M27.628,36.869c0.931-0.089,1.935,0.521,2.207,1.304
		c0.638,1.829-1.017,3.592-2.809,2.909C25.098,40.346,25.178,37.104,27.628,36.869z"/>
	<path style="fill-rule:evenodd;clip-rule:evenodd;" d="M45.182,36.869c1.558-0.196,3.278,1.813,1.955,3.561
		c-0.751,0.993-2.401,0.993-3.209,0.15C42.678,39.277,43.476,37.084,45.182,36.869z"/>
	<path style="fill-rule:evenodd;clip-rule:evenodd;" d="M35.502,39.978c0.391-0.854,0.98-1.656,2.057-1.705
		c2.442-0.11,3.063,3.545,0.853,4.363C36.784,43.239,35.267,41.966,35.502,39.978z"/>
	<path style="fill-rule:evenodd;clip-rule:evenodd;" d="M17.348,38.373c1.088-0.186,2.12,0.466,2.457,1.304
		c0.514,1.277-0.431,2.956-1.855,3.059c-1.425,0.103-2.419-1.143-2.358-2.408C15.645,39.256,16.391,38.643,17.348,38.373z"/>
	<path style="fill-rule:evenodd;clip-rule:evenodd;" d="M49.545,39.427c-0.01-0.043,0.02-0.047,0.05-0.05
		c3.015-0.321,3.174,3.976,0.652,4.363C47.302,44.242,46.944,39.577,49.545,39.427z"/>
	<path style="fill-rule:evenodd;clip-rule:evenodd;" d="M5.011,39.476c1.018-0.152,1.973,0.442,2.307,1.104
		c1.176,2.334-2.144,4.46-3.56,2.558c-0.282-0.378-0.443-1.073-0.452-1.455C3.279,40.473,3.904,39.642,5.011,39.476z"/>
	<path style="fill-rule:evenodd;clip-rule:evenodd;" d="M22.463,41.132c0.902-0.066,1.887,0.606,2.156,1.354
		c0.542,1.5-0.584,2.986-1.905,3.059c-1.062,0.059-2.048-0.71-2.257-1.655C20.167,42.576,21.008,41.239,22.463,41.132z"/>
	<path style="fill-rule:evenodd;clip-rule:evenodd;" d="M32.543,41.132c0.465-0.163,0.96,0.077,1.355,0.15
		c1.838,1.04,1.257,4.259-0.903,4.263c-0.854,0.002-1.883-0.755-2.106-1.504C30.512,42.777,31.32,41.284,32.543,41.132z"/>
	<path style="fill-rule:evenodd;clip-rule:evenodd;" d="M42.073,41.132c0.954-0.126,1.881,0.442,2.206,1.103
		c0.773,1.574-0.524,3.351-2.006,3.31c-0.845-0.023-1.737-0.648-2.006-1.404C39.716,42.589,40.832,41.295,42.073,41.132z"/>
	<path style="fill-rule:evenodd;clip-rule:evenodd;" d="M12.633,41.182c1.574-0.294,3.225,1.228,2.508,3.009
		c-0.636,1.582-2.846,1.714-3.761,0.552C10.378,43.47,11.124,41.363,12.633,41.182z"/>
	<path style="fill-rule:evenodd;clip-rule:evenodd;" d="M27.478,42.084c1.349-0.298,2.435,0.882,2.508,2.006
		c0.075,1.163-0.902,2.392-2.156,2.407c-1.265,0.015-2.271-0.996-2.207-2.658C25.936,42.949,26.448,42.258,27.478,42.084z"/>
	<path style="fill-rule:evenodd;clip-rule:evenodd;" d="M46.537,43.84c2.246-0.216,3.309,3.145,1.203,4.163
		c-1.79,0.865-3.815-0.856-2.909-3.059C45.008,44.512,45.611,43.929,46.537,43.84z"/>
	<path style="fill-rule:evenodd;clip-rule:evenodd;" d="M8.07,44.091c1.488-0.19,2.93,1.2,2.307,2.958
		c-0.753,2.129-4.311,1.815-4.263-0.853C6.134,45.077,7.082,44.217,8.07,44.091z"/>
	<path style="fill-rule:evenodd;clip-rule:evenodd;" d="M37.91,44.542c0.935-0.029,1.854,0.52,2.157,1.455
		c0.38,1.173-0.335,2.507-1.455,2.858c-1.831,0.575-3.633-1.596-2.507-3.36C36.413,45.011,37.071,44.568,37.91,44.542z"/>
	<path style="fill-rule:evenodd;clip-rule:evenodd;" d="M16.997,44.592c-0.009-0.043,0.02-0.047,0.051-0.05c0.25,0,0.501,0,0.752,0
		c0.923,0.298,1.565,0.882,1.755,1.605c0.365,1.39-0.612,2.712-1.856,2.809C14.917,49.17,14.417,45.058,16.997,44.592z"/>
	<path style="fill-rule:evenodd;clip-rule:evenodd;" d="M35.101,49.256c-0.233,0.836-0.786,1.353-1.555,1.655
		c-1.792,0.037-2.693-0.817-2.607-2.658c0.353-0.856,0.804-1.599,1.806-1.705C34.233,46.39,35.239,47.574,35.101,49.256z"/>
	<path style="fill-rule:evenodd;clip-rule:evenodd;" d="M22.062,46.698c1.331-0.32,2.474,0.71,2.607,1.755
		c0.256,1.983-1.629,3.02-3.108,2.357C19.759,50.005,19.965,47.062,22.062,46.698z"/>
	<path style="fill-rule:evenodd;clip-rule:evenodd;" d="M27.529,47.3c1.501-0.205,2.838,1.153,2.356,2.758
		c-0.258,0.861-1.16,1.594-2.056,1.605c-0.95,0.012-2.122-0.794-2.207-2.006C25.54,48.463,26.441,47.449,27.529,47.3z"/>
	<path style="fill-rule:evenodd;clip-rule:evenodd;" d="M42.825,47.451c1.585-0.093,2.795,1.805,1.855,3.46
		c-0.851,1.502-3.897,1.029-3.911-1.253C40.761,48.536,41.605,47.522,42.825,47.451z"/>
	<path style="fill-rule:evenodd;clip-rule:evenodd;" d="M12.182,47.551c2.654-0.496,3.486,3.421,1.103,4.212
		C9.951,52.426,9.458,48.146,12.182,47.551z"/>
	<path style="fill-rule:evenodd;clip-rule:evenodd;" d="M16.245,50.41c1.618-0.683,3.701,0.608,3.159,2.558
		c-0.244,0.879-1.279,1.608-2.207,1.555C15.175,54.406,14.399,51.395,16.245,50.41z"/>
	<path style="fill-rule:evenodd;clip-rule:evenodd;" d="M38.111,50.259c2.477-0.195,3.037,3.203,1.053,4.112
		c-1.431,0.655-3.074-0.593-3.059-2.106c0.008-0.821,0.484-1.36,0.802-1.604C37.212,50.425,37.486,50.308,38.111,50.259z"/>
	<path style="fill-rule:evenodd;clip-rule:evenodd;" d="M34.851,55.375c-1.167,1.497-3.576,0.683-3.762-1.103
		c-0.127-1.214,0.653-2.403,2.006-2.458C34.885,51.742,35.799,53.838,34.851,55.375z"/>
	<path style="fill-rule:evenodd;clip-rule:evenodd;" d="M22.012,51.914c1.271-0.183,2.12,0.625,2.356,1.154
		c1.19,2.659-2.435,4.072-3.761,2.207C19.691,53.985,20.547,52.125,22.012,51.914z"/>
	<path style="fill-rule:evenodd;clip-rule:evenodd;" d="M27.628,52.415c2.327-0.254,3.16,3.268,1.004,4.213
		c-1.392,0.61-3-0.492-3.06-1.906C25.517,53.404,26.464,52.543,27.628,52.415z"/>
	<path style="fill-rule:evenodd;clip-rule:evenodd;" d="M33.998,61.393c-3.051,0.466-3.291-4.144-0.602-4.363
		C36.07,56.811,36.425,60.915,33.998,61.393z"/>
	<path style="fill-rule:evenodd;clip-rule:evenodd;" d="M19.906,58.785c0.37-0.874,0.93-1.651,2.006-1.705
		c1.673-0.083,2.816,1.604,2.156,3.109C23.201,62.167,19.439,61.85,19.906,58.785z"/>
	<path style="fill-rule:evenodd;clip-rule:evenodd;" d="M27.579,57.631c0.989-0.118,1.942,0.582,2.207,1.304
		c0.582,1.586-0.764,3.284-2.407,3.059c-0.547-0.075-1.463-0.614-1.705-1.404C25.189,59.014,26.294,57.785,27.579,57.631z"/>
	<path style="fill-rule:evenodd;clip-rule:evenodd;" d="M33.597,62.346c1.358-0.191,2.502,0.999,2.407,2.357
		c-0.158,2.267-3.147,2.541-4.012,0.802C31.285,64.083,32.251,62.535,33.597,62.346z"/>
	<path style="fill-rule:evenodd;clip-rule:evenodd;" d="M21.209,62.396c1.257-0.19,2.128,0.443,2.457,1.404
		c0.494,1.438-0.553,3.027-2.206,2.959C18.92,66.654,18.767,62.765,21.209,62.396z"/>
	<path style="fill-rule:evenodd;clip-rule:evenodd;" d="M27.478,62.797c1.432-0.213,2.954,1.098,2.357,2.859
		c-0.481,1.421-2.705,2.094-3.811,0.652C24.929,64.88,26.056,63.01,27.478,62.797z"/>
	<path style="fill-rule:evenodd;clip-rule:evenodd;" d="M22.463,68.013c1.66,1.506,0.103,4.731-2.307,3.812
		c-0.869-0.332-1.359-1.193-1.305-2.558C19.044,67.749,21.24,66.882,22.463,68.013z"/>
	<path style="fill-rule:evenodd;clip-rule:evenodd;" d="M32.543,68.615c0.453-0.536,0.95-1.137,1.806-1.154
		c2.57-0.05,2.889,3.803,0.652,4.413C33.232,72.357,31.809,70.501,32.543,68.615z"/>
	<path style="fill-rule:evenodd;clip-rule:evenodd;" d="M27.579,68.063c1.404-0.15,2.631,1.137,2.307,2.658
		c-0.224,1.053-1.302,1.898-2.457,1.755C24.88,72.161,25.044,68.335,27.579,68.063z"/>
	<path style="fill-rule:evenodd;clip-rule:evenodd;" d="M19.956,72.777c2.236-0.315,3.504,2.629,1.555,3.962
		c-1.273,0.871-3.388,0.005-3.41-1.806C18.084,73.7,18.93,72.922,19.956,72.777z"/>
	<path style="fill-rule:evenodd;clip-rule:evenodd;" d="M36.456,73.279c1.613,1.594,0.134,4.489-2.106,3.761
		c-1.986-0.646-1.755-4.143,0.502-4.313C35.582,72.672,35.959,73,36.456,73.279z"/>
	<path style="fill-rule:evenodd;clip-rule:evenodd;" d="M27.579,73.328c1.149-0.09,2.267,0.863,2.307,2.106
		c0.04,1.222-0.97,2.281-2.105,2.307c-1.568,0.036-2.809-1.625-2.007-3.26C25.991,74.04,26.71,73.397,27.579,73.328z"/>
</g>
<g id="Layer_1">
</g>
</svg>
