<?xml version="1.0" encoding="iso-8859-1"?>
<!-- Generator: Adobe Illustrator 19.2.0, SVG Export Plug-In . SVG Version: 6.00 Build 0)  -->
<svg version="1.1" xmlns="http://www.w3.org/2000/svg" xmlns:xlink="http://www.w3.org/1999/xlink" x="0px" y="0px"
	 viewBox="0 0 80.984 80.16" style="enable-background:new 0 0 80.984 80.16;" xml:space="preserve">
<g id="Ainsa-Articilos_x5F_Industriales">
	<path style="fill-rule:evenodd;clip-rule:evenodd;" d="M80.835,0.399c0.277,13.758-0.202,26.816,0.05,40.437
		c0.23,12.376-0.01,25.931-0.05,39.141c-0.727,0.268-1.537,0.118-2.293,0.149c-2.277,0.097-4.911-0.05-7.479-0.05
		c-23.568,0.001-47.239-0.143-70.853-0.249c-0.021-0.044-0.044-0.089-0.1-0.1c-0.05-23.102-0.101-47.122-0.1-70.055
		c0-2.499-0.025-5.037,0-7.379C0.019,1.532-0.014,0.731,0.21,0c26.483,0.031,53.903,0.036,80.476,0.299
		C80.796,0.272,80.757,0.394,80.835,0.399z M21.202,0.948c-6.509,0-13.483-0.111-19.994,0C0.886,1.202,1.008,1.675,1.008,1.995
		c0,2.831-0.055,5.576,0,8.327c0.13,6.585-0.112,12.993-0.05,19.396c0.154,15.753,0.102,30.981,0.1,46.72
		c0,0.785-0.117,1.631,0.149,2.393c26.396,0.219,52.732,0.305,78.581,0.2c0.267-0.734,0.15-1.541,0.15-2.294
		c-0.001-5.797,0-11.55,0-17.302c-0.001-3.178,0.049-6.35-0.051-9.523c-0.101-3.225,0.17-6.474,0.051-9.673
		c-0.118-3.152-0.051-6.378-0.051-9.623c0.002-9.109-0.001-18.196,0-27.025c0-0.773,0.12-1.595-0.149-2.344
		C60.069,1.065,40.174,0.948,21.202,0.948z"/>
	<path style="fill-rule:evenodd;clip-rule:evenodd;" d="M25.34,2.743c0.576,0.339,1.701,1.261,2.294,1.745
		c5.108,4.178,10.456,8.299,15.606,12.315c6.029,4.703,11.818,9.583,17.7,14.211c1.989,1.551,4.091,2.989,5.884,4.736
		c1.973,1.568,4.069,3.012,5.884,4.737c0.051,12.034,0.149,24.548-0.05,36.498c-0.512-0.327-0.674-0.984-0.897-1.496
		c-1.175-2.689-2.462-5.438-3.689-8.227c-0.484-1.1-1.113-2.148-1.496-3.241c-0.102-0.293-0.142-0.602-0.249-0.897
		c-0.371-1.029-0.896-2.035-1.347-3.042c-0.444-0.991-0.825-2.059-1.495-2.892c-0.268,1.551-0.15,3.213-0.15,4.886
		c0.001,4.892,0.119,10.214-0.149,14.909c-0.604-0.738-0.908-1.678-1.296-2.543c-2.358-5.249-4.582-10.689-6.832-16.005
		c-0.363-0.86-0.658-1.803-1.246-2.543c-0.749,0.228-1.154,0.951-1.695,1.446c-1.613,1.477-3.229,3.039-4.836,4.587
		c-2.135,2.056-4.263,4.115-6.532,6.033c-3.328,0-6.604,0-9.972,0c-1.072,0-2.315-0.189-3.291,0
		c-0.771,0.15-1.622,1.419-2.145,2.044c-0.602,0.721-1.37,1.469-2.044,2.094c-1.483,1.376-2.815,2.755-4.238,4.088
		c-0.398,0.319-0.702,0.99-1.247,0.997c-0.315-2.473,0.143-5.885-0.249-8.127c-0.93,0.43-1.542,1.293-2.243,1.994
		c-1.756,1.756-3.604,3.453-5.386,5.235c-0.322,0.323-0.634,0.818-1.146,0.848C8.539,64.092,8.852,50.369,8.587,37.147
		c-0.802-0.267-1.931-0.15-2.942-0.15c-1.04,0-2.018,0.025-2.792-0.149c-0.182-4.979-0.1-10.409-0.1-15.606
		c0-1.728-0.116-3.463,0.149-5.086c0.425,0.184,0.524,0.711,0.698,1.097c0.513,1.14,1.115,2.495,1.845,3.491
		c0.213-0.624,0.199-1.452,0.199-2.194c0-1.689-0.092-3.537,0.101-5.135c0.499,0.25,0.575,0.879,0.798,1.346
		c0.219,0.46,0.48,0.928,0.697,1.396c0.453,0.97,0.825,2,1.446,2.792c0.596-0.085,0.713-0.65,1.146-0.897
		c2.408-2.346,4.763-4.744,7.18-7.08c2.707-2.729,5.399-5.472,8.178-8.127C25.227,2.796,25.282,2.767,25.34,2.743z"/>
	<path style="fill-rule:evenodd;clip-rule:evenodd;" d="M74.354,41.734c0.617,0.274,1.287,0.905,1.994,1.446
		c0.467,0.357,1.621,1.02,1.795,1.496c0.21,0.572,0.05,1.744,0.05,2.543c0,1.721,0.03,3.487,0,5.186
		c-0.014,0.802,0.119,1.619-0.149,2.343c-0.776-0.306-1.353-0.78-2.044-1.246c-0.426-0.288-1.67-0.912-1.845-1.446
		c-0.169-0.517-0.001-1.703,0-2.493c0-2.396-0.041-5.589,0.05-7.678C74.233,41.811,74.282,41.762,74.354,41.734z"/>
</g>
<g id="Layer_1">
</g>
</svg>
