<?xml version="1.0" encoding="iso-8859-1"?>
<!-- Generator: Adobe Illustrator 19.2.0, SVG Export Plug-In . SVG Version: 6.00 Build 0)  -->
<svg version="1.1" xmlns="http://www.w3.org/2000/svg" xmlns:xlink="http://www.w3.org/1999/xlink" x="0px" y="0px"
	 viewBox="0 0 356.095 36.896" style="enable-background:new 0 0 356.095 36.896;" xml:space="preserve">
<g id="Akademie_x5F_der_x5F_Bilden_x5F_Kunste_x5F_Munchen">
	<path style="fill-rule:evenodd;clip-rule:evenodd;" d="M5.344,9.446c-1.677,0-3.354,0-5.032,0C0.163,5.651-0.822-0.897,3.547,0.102
		C6.537,0.785,5.213,6.665,5.344,9.446z"/>
	<path style="fill-rule:evenodd;clip-rule:evenodd;" d="M13.97,9.446c-1.965-0.041-3.626,0.121-5.151,0
		c0.358-2.553-0.48-5.365,0-7.308c0.591-2.393,4.006-2.691,4.912-0.479C14.638,3.877,13.531,6.681,13.97,9.446z"/>
	<path style="fill-rule:evenodd;clip-rule:evenodd;" d="M22.236,9.446c-1.597,0-3.194,0-4.792,0
		c0.003-3.332-1.185-10.557,3.235-9.225C23.664,1.122,22.04,6.371,22.236,9.446z"/>
	<path style="fill-rule:evenodd;clip-rule:evenodd;" d="M164.318,9.446c-1.595,0.253-3.832,0.106-5.151,0
		c0.62-2.488-0.81-4.89,0.12-7.547c0.76-2.175,4.317-2.205,5.032,0.12C165.014,4.282,163.905,7.149,164.318,9.446z"/>
	<path style="fill-rule:evenodd;clip-rule:evenodd;" d="M172.824,9.446c-1.663,0.156-3.578,0.206-5.031-0.119
		c0.506-2.712-0.678-5.056,0.12-7.428c0.702-2.088,3.702-2.195,4.672-0.359C173.716,3.68,172.485,7.169,172.824,9.446z"/>
	<path style="fill-rule:evenodd;clip-rule:evenodd;" d="M181.45,9.566c-1.677,0-3.354,0-5.032,0
		c-0.014-3.237-0.941-10.963,3.594-9.225C182.495,1.294,181.361,6.915,181.45,9.566z"/>
	<path style="fill-rule:evenodd;clip-rule:evenodd;" d="M189.956,9.446c-1.443,0.275-3.391,0.044-5.032,0.12
		c0.126-3.129-1.341-9.765,2.755-9.345C190.92,0.554,189.734,5.605,189.956,9.446z"/>
	<path style="fill-rule:evenodd;clip-rule:evenodd;" d="M198.341,9.566c-1.598,0-3.194,0-4.792,0c0.205-2.496-0.802-5.492,0-7.667
		c0.526-1.428,2.253-2.078,3.594-1.438C199.494,1.585,198.194,6.824,198.341,9.566z"/>
	<path style="fill-rule:evenodd;clip-rule:evenodd;" d="M339.106,9.566c-1.426,0.251-3.294,0.061-4.912,0.12
		c0.104-3.076-1.132-8.773,1.797-9.345C340.386-0.517,339.099,6.154,339.106,9.566z"/>
	<path style="fill-rule:evenodd;clip-rule:evenodd;" d="M347.492,9.566c-1.406,0.198-3.625,0.198-5.031,0
		c-0.003-4.001-0.782-10.03,3.234-9.225C348.74,0.953,347.154,6.592,347.492,9.566z"/>
	<path style="fill-rule:evenodd;clip-rule:evenodd;" d="M355.877,9.566c-1.411,0.167-3.509,0.216-4.911,0
		c-0.02-3.344-1.221-10.225,3.234-9.225C357.158,1.006,355.532,6.825,355.877,9.566z"/>
	<path style="fill-rule:evenodd;clip-rule:evenodd;" d="M5.225,22.984c-1.754-0.044-3.781,0.102-5.032-0.12
		c-0.078-4.112-0.779-10.53,3.594-9.104C6.56,14.663,5.164,20.518,5.225,22.984z"/>
	<path style="fill-rule:evenodd;clip-rule:evenodd;" d="M13.85,22.984c-1.677,0-3.354,0-5.032,0
		c0.283-2.891-1.228-9.204,2.396-9.345C14.912,13.496,13.973,19.307,13.85,22.984z"/>
	<path style="fill-rule:evenodd;clip-rule:evenodd;" d="M22.356,22.864c-1.403,0.274-3.311,0.044-4.912,0.12
		c0.381-3.371-1.283-8.751,1.917-9.345C23.498,12.872,22.208,19.13,22.356,22.864z"/>
	<path style="fill-rule:evenodd;clip-rule:evenodd;" d="M33.737,22.864c-1.403,0.274-3.311,0.044-4.912,0.12
		c0.247-2.564-0.626-4.634-0.12-7.189c0.367-1.852,2.631-2.825,4.193-1.558C34.755,15.747,33.249,19.935,33.737,22.864z"/>
	<path style="fill-rule:evenodd;clip-rule:evenodd;" d="M50.628,22.864c-1.363,0.273-3.231,0.044-4.792,0.12
		c0.249-2.786-0.919-6.555,0.359-8.387c0.787-1.126,2.598-1.228,3.594-0.478C51.546,15.44,50.526,20.423,50.628,22.864z"/>
	<path style="fill-rule:evenodd;clip-rule:evenodd;" d="M59.134,22.984c-1.677,0-3.354,0-5.032,0
		c-0.027-3.086-1.065-10.724,3.474-9.225C60.206,14.628,58.757,19.63,59.134,22.984z"/>
	<path style="fill-rule:evenodd;clip-rule:evenodd;" d="M67.64,22.864c-1.443,0.274-3.391,0.044-5.032,0.12
		c0.519-2.549-0.755-5.044,0-7.548c0.549-1.82,3.325-2.433,4.552-0.839C68.625,16.499,67.102,19.693,67.64,22.864z"/>
	<path style="fill-rule:evenodd;clip-rule:evenodd;" d="M42.123,22.864c-1.443,0.274-3.39,0.044-5.031,0.12
		c0.336-3.376-1.001-8.178,1.557-9.105C43.401,12.156,42.211,19.858,42.123,22.864z"/>
	<path style="fill-rule:evenodd;clip-rule:evenodd;" d="M76.026,22.864c-1.482,0.274-3.47,0.044-5.151,0.12
		c0.274-3.031-1.028-8.669,1.917-9.225C77.06,12.953,75.904,19.049,76.026,22.864z"/>
	<path style="fill-rule:evenodd;clip-rule:evenodd;" d="M84.532,22.984c-1.841,0.021-3.089-0.089-4.792,0
		c-0.254-3.213-1.197-10.459,3.234-9.105C85.626,14.689,84.464,19.774,84.532,22.984z"/>
	<path style="fill-rule:evenodd;clip-rule:evenodd;" d="M92.798,22.984c-1.637,0-3.274,0-4.912,0
		c0.11-3.662-1.013-10.333,3.354-9.225C93.96,14.449,92.71,20.107,92.798,22.984z"/>
	<path style="fill-rule:evenodd;clip-rule:evenodd;" d="M101.543,22.984c-1.267,0.121-3.175-0.064-5.032,0
		c0.309-2.445-0.475-5.472,0.24-7.548c0.561-1.629,2.825-2.399,4.193-0.958C102.779,16.411,100.97,19.805,101.543,22.984z"/>
	<path style="fill-rule:evenodd;clip-rule:evenodd;" d="M109.81,22.984c-1.498,0.088-3.32,0.006-4.792,0
		c0.18-2.781-1.029-7.647,1.078-8.865C110.665,11.477,110.487,19.983,109.81,22.984z"/>
	<path style="fill-rule:evenodd;clip-rule:evenodd;" d="M118.555,22.984c-1.517,0.296-3.815,0.028-5.032,0
		c-0.254-2.851,0.061-4.913,0-7.428c0.602-1.312,1.993-2.189,3.475-1.678C119.623,14.786,118.184,19.765,118.555,22.984z"/>
	<path style="fill-rule:evenodd;clip-rule:evenodd;" d="M126.701,23.103c-1.402-0.08-3.493,0.115-4.792-0.119
		c-0.02-2.738-1.343-10.132,3.115-9.225C127.963,14.357,126.868,20.447,126.701,23.103z"/>
	<path style="fill-rule:evenodd;clip-rule:evenodd;" d="M135.566,22.984c-1.687,0.136-3.37,0.192-5.032,0
		c-0.003-3.548-1.143-8.888,2.156-9.225C136.732,13.346,135.322,19.751,135.566,22.984z M132.691,15.077
		c-0.027-0.212,0.121-0.6-0.239-0.479C132.418,14.871,132.48,15.049,132.691,15.077z M132.931,15.556
		C133.009,15.635,132.88,15.506,132.931,15.556L132.931,15.556z"/>
	<path style="fill-rule:evenodd;clip-rule:evenodd;" d="M143.713,22.984c-1.337,0.188-3.458,0.205-4.792,0
		c-0.006-3.291-1.052-8.716,1.917-9.225C144.668,13.103,143.912,19.231,143.713,22.984z"/>
	<path style="fill-rule:evenodd;clip-rule:evenodd;" d="M152.458,23.103c-1.677,0-3.354,0-5.032,0
		c0.299-3.014-1.141-9.032,2.276-9.344C153.623,13.402,152.54,19.387,152.458,23.103z M149.942,14.597
		c0.241-0.454-0.545-0.475-0.599-0.239C149.572,14.409,149.56,14.701,149.942,14.597z"/>
	<path style="fill-rule:evenodd;clip-rule:evenodd;" d="M164.318,22.984c-1.603,0.133-4.048,0.298-5.151-0.12
		c0.581-2.284-0.854-5.348,0.239-7.667c0.865-1.837,3.981-1.94,4.792,0.119C165.245,17.974,163.783,19.732,164.318,22.984z"/>
	<path style="fill-rule:evenodd;clip-rule:evenodd;" d="M172.704,23.103c-1.796-0.17-2.919,0.019-4.792,0
		c-0.638-3.396-0.525-11.831,3.833-8.984C173.9,15.525,172.604,20.873,172.704,23.103z"/>
	<path style="fill-rule:evenodd;clip-rule:evenodd;" d="M181.45,22.984c-1.704,0.276-3.222,0.003-5.032,0.119
		c-0.201-3.851-0.676-11.044,3.714-9.104C182.86,15.204,180.881,19.637,181.45,22.984z"/>
	<path style="fill-rule:evenodd;clip-rule:evenodd;" d="M189.835,22.984c-1.403,0.273-3.311,0.044-4.912,0.119
		c0.264-3.174-1.25-8.308,1.557-9.225C191.002,12.403,189.95,19.835,189.835,22.984z"/>
	<path style="fill-rule:evenodd;clip-rule:evenodd;" d="M198.341,23.103c-1.638,0-3.274,0-4.912,0c0.416-2.156-0.52-5.018,0-7.308
		c0.627-2.757,4.436-2.387,5.032-0.239C199.084,17.803,198.1,20.554,198.341,23.103z"/>
	<path style="fill-rule:evenodd;clip-rule:evenodd;" d="M218.348,22.984c-1.643,0.254-3.071,0.022-4.912,0.119
		c-0.239-2.643-0.857-11.472,3.714-9.104C219.456,15.194,218.024,19.741,218.348,22.984z"/>
	<path style="fill-rule:evenodd;clip-rule:evenodd;" d="M235.24,23.103c-1.707,0.043-3.389-0.071-4.792,0
		c-0.266-3.859-0.96-10.604,3.354-9.225C236.503,14.743,235.091,19.809,235.24,23.103z"/>
	<path style="fill-rule:evenodd;clip-rule:evenodd;" d="M252.011,23.103c-1.562-0.075-3.429,0.154-4.792-0.119
		c-0.042-2.976-1.118-8.963,2.156-9.225C253.138,13.458,252.053,19.894,252.011,23.103z"/>
	<path style="fill-rule:evenodd;clip-rule:evenodd;" d="M210.202,22.984c-1.443,0.273-3.391,0.044-5.032,0.119
		c-0.109-2.745-1.323-11.206,3.714-9.104C211.548,15.111,209.702,19.759,210.202,22.984z"/>
	<path style="fill-rule:evenodd;clip-rule:evenodd;" d="M226.854,23.103c-1.638,0-3.275,0-4.912,0
		c0.005-3.433-0.944-10.968,3.594-9.104C227.881,14.962,226.783,20.033,226.854,23.103z"/>
	<path style="fill-rule:evenodd;clip-rule:evenodd;" d="M243.746,23.103c-1.638,0-3.274,0-4.912,0
		c-0.518-3.337-0.558-11.394,3.834-8.984C244.889,15.338,243.452,20.399,243.746,23.103z"/>
	<path style="fill-rule:evenodd;clip-rule:evenodd;" d="M260.517,22.984c-1.548,0.232-3.778,0.124-4.912,0.119
		c0.461-2.111-0.836-5.348,0.12-7.787c1.01-2.572,4.646-1.479,4.912,1.198C260.875,18.921,260.278,20.465,260.517,22.984z"/>
	<path style="fill-rule:evenodd;clip-rule:evenodd;" d="M268.903,23.103c-1.282,0.039-3.267-0.025-4.911,0
		c0.327-2.259-0.634-5.191,0-7.427c0.428-1.513,2.346-2.386,3.833-1.558C269.951,15.302,268.765,20.301,268.903,23.103z"/>
	<path style="fill-rule:evenodd;clip-rule:evenodd;" d="M277.409,23.103c-1.275,0.165-3.479-0.209-4.911,0.12
		c-0.349-3.762-0.875-10.986,3.594-9.225C278.891,15.102,276.879,20.6,277.409,23.103z"/>
	<path style="fill-rule:evenodd;clip-rule:evenodd;" d="M285.675,23.103c-1.423,0.055-3.282,0.233-4.912-0.119
		c0.572-2.431-0.875-6.128,0.359-8.027c0.805-1.237,2.932-1.515,3.953-0.478C286.631,16.054,285.456,20.966,285.675,23.103z"/>
	<path style="fill-rule:evenodd;clip-rule:evenodd;" d="M294.3,22.984c-1.412,0.244-3.8,0.087-5.031,0.119
		c0.376-2.722-1.128-8.663,2.037-9.225C295.484,13.137,294.104,19.171,294.3,22.984z"/>
	<path style="fill-rule:evenodd;clip-rule:evenodd;" d="M302.806,23.103c-1.392,0.188-3.571,0.166-4.911,0
		c0.085-2.335-0.514-5.112,0-7.188c0.418-1.691,2.26-2.691,3.833-1.678C303.834,15.596,302.367,20.074,302.806,23.103z"/>
	<path style="fill-rule:evenodd;clip-rule:evenodd;" d="M311.193,22.984c-1.546,0.138-3.573,0.41-5.151,0.119
		c-0.064-3.925-0.843-10.825,3.594-9.104C312.112,14.959,310.899,19.611,311.193,22.984z"/>
	<path style="fill-rule:evenodd;clip-rule:evenodd;" d="M319.458,23.103c-1.449,0.088-3.469,0.229-4.912,0
		c-0.026-3.139-1.292-10.04,3.115-9.225C320.84,14.468,319.105,20.376,319.458,23.103z"/>
	<path style="fill-rule:evenodd;clip-rule:evenodd;" d="M327.964,23.103c-1.337,0.057-3.267,0.256-5.031,0
		c0.253-3.43-0.986-8.662,1.916-9.225C329.164,13.044,328.049,19.869,327.964,23.103z"/>
	<path style="fill-rule:evenodd;clip-rule:evenodd;" d="M339.106,23.103c-1.581-0.016-3.411,0.332-4.912,0
		c-0.17-3.007-1.113-10.872,3.475-9.104C340.14,14.952,339.018,20.635,339.106,23.103z"/>
	<path style="fill-rule:evenodd;clip-rule:evenodd;" d="M347.492,23.103c-1.403,0.274-3.31,0.044-4.912,0.12
		c0.042-3.415-1.151-8.966,2.156-9.345C348.654,13.43,347.555,19.902,347.492,23.103z"/>
	<path style="fill-rule:evenodd;clip-rule:evenodd;" d="M355.877,23.103c-1.085,0.088-3.598,0.272-5.031,0
		c0.753-2.323-0.683-5.478,0.239-7.667c0.837-1.987,4.219-2.033,4.792,0.24C356.544,18.317,355.422,20.001,355.877,23.103z
		 M353.96,17.353C354.458,17.468,353.985,16.995,353.96,17.353L353.96,17.353z M354.919,18.192
		C355.416,18.306,354.944,17.833,354.919,18.192L354.919,18.192z"/>
	<path style="fill-rule:evenodd;clip-rule:evenodd;" d="M5.225,36.641c-1.642-0.076-3.589,0.154-5.032-0.12
		c0.418-2.361-0.596-4.923,0-7.308c0.384-1.537,2.428-2.482,3.953-1.678C6.443,28.75,5.034,33.828,5.225,36.641z"/>
	<path style="fill-rule:evenodd;clip-rule:evenodd;" d="M13.85,36.641c-1.641-0.076-3.589,0.154-5.032-0.12
		c0.334-2.355-0.535-4.338,0-7.068c0.534-2.728,4.209-2.705,5.032-0.359C14.791,31.776,13.373,34.409,13.85,36.641z"/>
	<path style="fill-rule:evenodd;clip-rule:evenodd;" d="M22.236,36.641c-1.597,0-3.194,0-4.792,0c0.433-2.014-0.707-5.073,0-7.548
		c0.579-2.024,3.705-2.489,4.672-0.48C23.079,30.614,21.991,34.195,22.236,36.641z"/>
	<path style="fill-rule:evenodd;clip-rule:evenodd;" d="M33.737,36.521c-1.443,0.274-3.391,0.044-5.032,0.12
		c-0.191-3.927-0.657-11.177,3.594-9.106C34.737,28.724,33.352,33.142,33.737,36.521z"/>
	<path style="fill-rule:evenodd;clip-rule:evenodd;" d="M42.003,36.641c-1.597,0-3.195,0-4.792,0
		c-0.37-3.257-0.943-11.197,3.594-9.106C43.226,28.652,41.911,34.082,42.003,36.641z"/>
	<path style="fill-rule:evenodd;clip-rule:evenodd;" d="M50.628,36.641c-1.637,0-3.274,0-4.912,0
		c0.415-1.943-0.713-5.453,0.12-7.787c0.476-1.332,2.373-2.098,3.833-1.198C51.624,28.859,50.497,33.785,50.628,36.641z"/>
	<path style="fill-rule:evenodd;clip-rule:evenodd;" d="M58.894,36.641c-1.597,0-3.195,0-4.792,0
		c0.435-3.259-1.453-9.142,2.396-9.345C60.59,27.081,58.848,34.18,58.894,36.641z"/>
	<path style="fill-rule:evenodd;clip-rule:evenodd;" d="M67.52,36.641c-1.647-0.069-3.58,0.144-5.031-0.12
		c0.22-1.825-0.144-3.732,0-6.11c0.216-3.569,4.453-4.199,5.151-1.078C68.155,31.637,67.353,34.304,67.52,36.641z"/>
	<path style="fill-rule:evenodd;clip-rule:evenodd;" d="M75.786,36.641c-1.637,0-3.274,0-4.912,0
		c0.429-2.265-0.648-5.479,0.12-7.668c0.581-1.655,2.935-2.237,4.193-0.958C76.788,29.641,75.548,33.888,75.786,36.641z"/>
	<path style="fill-rule:evenodd;clip-rule:evenodd;" d="M84.532,36.641c-1.677,0-3.354,0-5.032,0
		c-0.093-3.661-0.843-10.885,3.594-9.225C85.682,28.385,84.36,34.221,84.532,36.641z"/>
	<path style="fill-rule:evenodd;clip-rule:evenodd;" d="M101.423,36.641c-1.597,0-3.194,0-4.792,0
		c0.229-2.417-0.82-5.933,0.12-7.907c0.874-1.835,3.728-1.781,4.552,0C102.32,30.93,101.133,34.317,101.423,36.641z"/>
	<path style="fill-rule:evenodd;clip-rule:evenodd;" d="M92.798,36.641c-1.637,0-3.274,0-4.912,0
		c-0.081-3.487-0.861-11.114,3.714-9.106C93.82,28.512,92.699,33.694,92.798,36.641z"/>
	<path style="fill-rule:evenodd;clip-rule:evenodd;" d="M109.929,36.641c-1.516,0.07-2.981,0.128-4.912,0
		c0.221-2.679-0.718-4.675-0.12-7.309c0.625-2.752,4.643-2.396,5.151,0.24C110.573,32.29,109.547,33.964,109.929,36.641z"/>
	<path style="fill-rule:evenodd;clip-rule:evenodd;" d="M118.435,36.641c-1.504,0.069-3.454,0.237-5.032-0.12
		c-0.481-4.068-0.193-11.413,4.073-8.745C119.709,29.172,118.029,34.129,118.435,36.641z"/>
	<path style="fill-rule:evenodd;clip-rule:evenodd;" d="M126.821,36.641c-1.825,0.173-3.312,0.042-5.031,0
		c-0.083-2.354,0.02-3.892,0.12-5.511c0.03-0.493-0.207-1.156-0.12-1.678c0.301-1.806,2.69-2.753,4.193-1.558
		C127.955,29.466,126.291,34.046,126.821,36.641z M122.149,30.292C122.646,30.406,122.173,29.932,122.149,30.292L122.149,30.292z"/>
	<path style="fill-rule:evenodd;clip-rule:evenodd;" d="M135.566,36.641c-1.455,0.189-3.699,0.204-5.151,0
		c0.453-2.123-0.574-4.606,0-7.189c0.431-1.94,3.4-2.933,4.672-1.078C136.763,30.819,134.677,34.441,135.566,36.641z"/>
	<path style="fill-rule:evenodd;clip-rule:evenodd;" d="M143.832,36.521c-1.676,0.454-3.555,0.134-5.032,0.12
		c-0.015-3.12-1.166-10.345,3.235-9.225C144.8,28.12,143.553,33.081,143.832,36.521z"/>
	<path style="fill-rule:evenodd;clip-rule:evenodd;" d="M152.458,36.641c-1.367,0.198-3.545,0.198-4.912,0
		c-0.185-2.307-1.285-10.944,3.474-9.106C153.691,28.568,152.161,34.27,152.458,36.641z"/>
	<path style="fill-rule:evenodd;clip-rule:evenodd;" d="M164.198,36.641c-1.589,0.246-3.87,0.143-5.031-0.12
		c0.322-3.003-0.907-7.72,1.318-8.865C165.007,25.327,164.651,33.384,164.198,36.641z"/>
	<path style="fill-rule:evenodd;clip-rule:evenodd;" d="M172.704,36.761c-1.976-0.066-3.464,0.047-4.912-0.119
		c0.146-3.907-1.109-10.2,3.234-9.225C173.934,28.069,172.585,33.408,172.704,36.761z"/>
	<path style="fill-rule:evenodd;clip-rule:evenodd;" d="M181.45,36.641c-1.134,0.136-3.564,0.237-5.032,0
		c0.421-2.513-1.121-7.177,0.958-8.746c1.454-1.098,3.466-0.283,3.953,1.198C182.024,31.207,181.058,34.279,181.45,36.641z"/>
	<path style="fill-rule:evenodd;clip-rule:evenodd;" d="M189.835,36.641c-1.426,0.251-3.294,0.059-4.912,0.119
		c0.098-2.471-0.52-5.158-0.12-7.308c0.474-2.546,4.317-2.618,5.032-0.239C190.496,31.41,189.436,34.075,189.835,36.641z"/>
	<path style="fill-rule:evenodd;clip-rule:evenodd;" d="M198.341,36.761c-1.602-0.075-3.509,0.154-4.912-0.119
		c0.35-1.913-0.914-6.239,0.479-8.267c0.911-1.324,3.342-1.272,4.193,0.12C199.421,30.653,197.899,35.039,198.341,36.761z"/>
	<path style="fill-rule:evenodd;clip-rule:evenodd;" d="M210.202,36.641c-1.443,0.273-3.391,0.043-5.032,0.119
		c0.039-3.41-1.183-8.912,2.037-9.344C211.051,26.9,210.159,32.64,210.202,36.641z"/>
	<path style="fill-rule:evenodd;clip-rule:evenodd;" d="M218.228,36.641c-1.488,0.132-3.525,0.182-4.912,0
		c0.628-2.937-0.654-4.935,0.12-7.548c0.646-2.179,4.575-2.208,4.912,0.12c0.106,0.738-0.238,1.341-0.24,2.156
		C218.105,33.066,218.709,34.99,218.228,36.641z"/>
	<path style="fill-rule:evenodd;clip-rule:evenodd;" d="M226.973,36.641c-1.415,0.189-3.618,0.204-5.031,0
		c0.581-2.525-0.875-6.161,0.359-8.147c0.929-1.495,3.312-1.341,4.192,0C227.778,30.449,226.481,34.798,226.973,36.641z"/>
	<path style="fill-rule:evenodd;clip-rule:evenodd;" d="M235.24,36.761c-1.404-0.071-3.085,0.043-4.792,0
		c0.047-2.218-1.096-7.422,0.958-7.787c0.266-0.42-0.089-0.721,0.12-1.197C236.349,25.761,235.461,32.956,235.24,36.761z
		 M232.245,34.964c0.375,0.056,0.534-0.104,0.479-0.479C232.349,34.429,232.189,34.589,232.245,34.964z"/>
	<path style="fill-rule:evenodd;clip-rule:evenodd;" d="M243.746,36.761c-1.638,0-3.274,0-4.912,0
		c0.022-0.102-0.047-0.112-0.12-0.119c0.299-2.795-0.425-5.514,0.12-7.309c0.755-2.488,4.206-2.41,4.912,0
		C244.451,31.745,243.328,33.983,243.746,36.761z"/>
	<path style="fill-rule:evenodd;clip-rule:evenodd;" d="M252.011,36.761c-1.861-0.07-3.369,0.123-4.911-0.119
		c0.362-2.553-0.618-5.25,0-7.428c0.443-1.565,2.463-2.302,3.833-1.438C253.007,29.084,251.569,34.15,252.011,36.761z"/>
	<path style="fill-rule:evenodd;clip-rule:evenodd;" d="M260.397,36.761c-1.622,0.042-3.521-0.063-4.792,0
		c0.465-2.669-0.867-5.752,0.12-7.906c0.655-1.429,2.646-1.855,3.834-0.959C261.435,29.314,260.196,34.324,260.397,36.761z"/>
	<path style="fill-rule:evenodd;clip-rule:evenodd;" d="M268.903,36.761c-1.637,0-3.274,0-4.911,0
		c0.363-2.244-0.88-5.829,0.239-8.026c0.949-1.863,3.993-1.614,4.672,0.359C269.664,31.304,268.622,34.659,268.903,36.761z"/>
	<path style="fill-rule:evenodd;clip-rule:evenodd;" d="M277.409,36.761c-2.02-0.111-3.477,0.203-5.031,0
		c0.406-2.581-0.543-4.957,0-7.308c0.465-2.015,3.314-2.736,4.553-1.078C278.357,30.286,276.845,34.012,277.409,36.761z"/>
	<path style="fill-rule:evenodd;clip-rule:evenodd;" d="M294.181,36.761c-1.638,0-3.275,0-4.912,0
		c-0.301-3.922-0.479-11.286,3.714-9.105C295.276,28.849,294.013,33.719,294.181,36.761z"/>
	<path style="fill-rule:evenodd;clip-rule:evenodd;" d="M285.675,36.761c-1.638,0-3.274,0-4.912,0c0.443-1.97-0.75-5.553,0.12-7.787
		c0.43-1.103,2.02-1.9,3.474-1.317C286.822,28.643,285.482,33.853,285.675,36.761z"/>
	<path style="fill-rule:evenodd;clip-rule:evenodd;" d="M302.687,36.761c-1.561,0.137-3.517,0.094-4.912,0
		c0.325-3.367-1.076-8.667,1.917-9.225C303.877,26.757,302.777,33.096,302.687,36.761z"/>
	<path style="fill-rule:evenodd;clip-rule:evenodd;" d="M311.073,36.761c-1.638,0-3.275,0-4.912,0c0.104-2.998-1.3-8.53,1.678-9.225
		C312.569,26.432,310.864,33.986,311.073,36.761z"/>
	<path style="fill-rule:evenodd;clip-rule:evenodd;" d="M319.338,36.761c-1.597,0-3.194,0-4.792,0
		c-0.227-3.795-1.022-10.571,3.354-9.105C320.464,28.515,319.237,33.625,319.338,36.761z"/>
	<path style="fill-rule:evenodd;clip-rule:evenodd;" d="M327.964,36.761c-1.65-0.066-3.637,0.232-5.031-0.119
		c0.095-3.89-1.057-10.238,3.354-9.106C329.283,28.305,327.517,33.403,327.964,36.761z"/>
	<path style="fill-rule:evenodd;clip-rule:evenodd;" d="M339.106,36.761c-1.77-0.151-3.545,0.262-5.032,0
		c-0.135-3.893-0.688-11.051,3.714-8.984C340.078,28.851,338.74,33.535,339.106,36.761z"/>
	<path style="fill-rule:evenodd;clip-rule:evenodd;" d="M347.372,36.881c-1.507-0.16-3.339,0.194-4.911-0.12
		c0.485-2.861-0.726-5.73,0.239-7.787c0.879-1.874,3.665-1.905,4.553-0.119C348.33,31.022,347.039,34.533,347.372,36.881z"/>
	<path style="fill-rule:evenodd;clip-rule:evenodd;" d="M355.758,36.881c-1.694-0.125-3.256,0.163-4.912-0.12
		c0.387-2.459-1.452-10.391,3.354-9.225C356.908,28.193,355.669,34.142,355.758,36.881z"/>
</g>
<g id="Layer_1">
</g>
</svg>
