<?xml version="1.0" encoding="iso-8859-1"?>
<!-- Generator: Adobe Illustrator 21.0.2, SVG Export Plug-In . SVG Version: 6.00 Build 0)  -->
<svg version="1.1" xmlns="http://www.w3.org/2000/svg" xmlns:xlink="http://www.w3.org/1999/xlink" x="0px" y="0px"
	 viewBox="0 0 49.56 49.622" style="enable-background:new 0 0 49.56 49.622;" xml:space="preserve">
<g id="Aker_x5F_Brygge">
	<g>
		<path d="M24.39,0.005C24.716,0,25.042-0.002,25.368,0.003C25.367,0.781,25.4,1.559,25.41,2.336
			c-0.356,0.053-0.716,0.019-1.074,0.04C24.357,1.585,24.402,0.797,24.39,0.005z"/>
		<path d="M27.633,0.16c0.333-0.014,0.657,0.074,0.982,0.132c-0.098,0.776-0.172,1.557-0.278,2.332
			c-0.357-0.067-0.722-0.071-1.075-0.152C27.414,1.706,27.509,0.93,27.633,0.16z"/>
		<path d="M21.155,0.294c0.332-0.028,0.657-0.122,0.992-0.126c0.047,0.78,0.256,1.544,0.32,2.324
			c-0.353,0.058-0.711,0.09-1.066,0.131C21.29,1.85,21.251,1.068,21.155,0.294z"/>
		<path d="M18.036,1c0.307-0.1,0.62-0.202,0.944-0.225c0.192,0.745,0.423,1.479,0.578,2.234c-0.329,0.1-0.654,0.247-1.002,0.257
			C18.382,2.511,18.181,1.762,18.036,1z"/>
		<path d="M30.777,0.78c0.329,0.015,0.642,0.127,0.954,0.222c-0.137,0.773-0.378,1.523-0.532,2.292
			c-0.342-0.069-0.704-0.139-1.015-0.286C30.264,2.247,30.648,1.54,30.777,0.78z"/>
		<path d="M14.954,2.088c0.3-0.124,0.601-0.246,0.904-0.361c0.321,0.718,0.626,1.443,0.949,2.161
			c-0.332,0.126-0.654,0.279-0.992,0.39C15.495,3.562,15.232,2.821,14.954,2.088z"/>
		<path d="M33.91,1.739c0.288,0.147,0.597,0.246,0.892,0.377c-0.289,0.736-0.548,1.484-0.873,2.205
			c-0.333-0.129-0.659-0.278-0.99-0.411C33.279,3.193,33.557,2.449,33.91,1.739z"/>
		<path d="M12.071,3.579c0.27-0.167,0.551-0.316,0.826-0.474c0.417,0.649,0.824,1.308,1.203,1.978
			c-0.254,0.228-0.609,0.378-0.918,0.545C12.8,4.952,12.43,4.268,12.071,3.579z"/>
		<path d="M36.843,3.143c0.285,0.135,0.546,0.314,0.828,0.454c-0.316,0.708-0.721,1.389-1.129,2.048
			c-0.324-0.081-0.636-0.315-0.929-0.5C36.023,4.478,36.411,3.797,36.843,3.143z"/>
		<path d="M22.993,3.662c0.258-0.171,0.625-0.078,0.927-0.149c0.119,0.778,0.172,1.564,0.204,2.349
			c-0.347,0.001-0.688,0.091-1.036,0.067C23.036,5.174,22.986,4.415,22.993,3.662z"/>
		<path d="M25.738,3.516c0.329,0.008,0.658,0.024,0.984,0.071c0.017,0.782-0.039,1.563-0.113,2.338
			c-0.35,0.006-0.695-0.062-1.043-0.077C25.593,5.069,25.731,4.298,25.738,3.516z"/>
		<path d="M20.203,4.082c0.309-0.116,0.641-0.144,0.959-0.224c0.206,0.747,0.334,1.512,0.524,2.263
			c-0.349,0.08-0.709,0.236-1.068,0.196C20.464,5.575,20.397,4.816,20.203,4.082z"/>
		<path d="M28.048,6.113c0.11-0.773,0.336-1.526,0.498-2.289c0.316,0.079,0.635,0.141,0.955,0.202
			c-0.144,0.769-0.28,1.538-0.422,2.306C28.728,6.296,28.385,6.214,28.048,6.113z"/>
		<path d="M17.591,4.81c0.306-0.106,0.613-0.206,0.92-0.309c0.249,0.748,0.558,1.479,0.773,2.236
			c-0.335,0.082-0.651,0.275-0.995,0.29C18.029,6.3,17.813,5.552,17.591,4.81z"/>
		<path d="M31.183,4.552c0.022-0.009,0.065-0.029,0.086-0.039c0.278,0.127,0.588,0.18,0.858,0.321
			c-0.226,0.748-0.463,1.497-0.712,2.24c-0.346-0.099-0.698-0.197-1.013-0.378C30.671,5.984,30.92,5.264,31.183,4.552z"/>
		<path d="M9.415,5.436c0.227-0.225,0.497-0.403,0.754-0.591c0.483,0.619,0.987,1.223,1.461,1.849
			c-0.271,0.223-0.551,0.441-0.851,0.623C10.298,6.712,9.838,6.081,9.415,5.436z"/>
		<path d="M39.569,4.933c0.246,0.182,0.97,0.446,0.588,0.821c-0.414,0.544-0.796,1.112-1.218,1.65
			c-0.274-0.233-0.573-0.433-0.844-0.67C38.595,6.144,39.028,5.481,39.569,4.933z"/>
		<path d="M15.135,6.191c-0.226-0.465,0.519-0.467,0.776-0.682c0.347,0.704,0.736,1.387,1.068,2.098
			c-0.305,0.184-0.64,0.311-0.958,0.468C15.728,7.447,15.437,6.817,15.135,6.191z"/>
		<path d="M32.727,7.656c0.315-0.728,0.725-1.417,1.071-2.133c0.289,0.138,0.573,0.285,0.87,0.407
			c-0.281,0.746-0.655,1.455-0.986,2.18C33.362,7.961,33.057,7.78,32.727,7.656z"/>
		<path d="M12.683,7.432c0.155-0.265,0.519-0.386,0.771-0.571c0.468,0.623,0.895,1.279,1.34,1.919
			c-0.277,0.224-0.581,0.411-0.884,0.595C13.493,8.733,13.071,8.089,12.683,7.432z"/>
		<path d="M34.904,8.793c0.455-0.644,0.878-1.312,1.369-1.929c0.244,0.217,0.539,0.362,0.792,0.567
			c-0.449,0.646-0.827,1.337-1.285,1.977C35.482,9.213,35.167,9.036,34.904,8.793z"/>
		<path d="M7.034,7.632c0.213-0.245,0.45-0.468,0.696-0.68C8.295,7.471,8.822,8.029,9.35,8.586c-0.226,0.257-0.48,0.486-0.718,0.732
			C8.095,8.761,7.559,8.201,7.034,7.632z"/>
		<path d="M40.565,8.409c0.483-0.473,0.948-0.967,1.47-1.397c0.218,0.23,0.449,0.449,0.651,0.694
			c-0.557,0.551-1.042,1.181-1.644,1.682C40.912,9.047,40.12,8.771,40.565,8.409z"/>
		<path d="M11.18,8.502c0.557,0.555,1.081,1.145,1.594,1.741c-0.259,0.245-0.524,0.483-0.809,0.698
			c-0.485-0.609-1.015-1.182-1.49-1.799C10.712,8.93,10.944,8.714,11.18,8.502z"/>
		<path d="M36.905,10.275c0.523-0.584,1.05-1.166,1.587-1.738c0.246,0.199,0.474,0.419,0.717,0.622
			c-0.43,0.638-0.971,1.205-1.48,1.777C37.415,10.814,37.172,10.495,36.905,10.275z"/>
		<path d="M5.504,9.335c0.629,0.464,1.271,0.91,1.881,1.399c-0.18,0.304-0.409,0.576-0.635,0.845
			c-0.613-0.492-1.244-0.963-1.831-1.486C5.121,9.846,5.328,9.603,5.504,9.335z"/>
		<path d="M42.288,10.822c0.627-0.458,1.24-0.939,1.891-1.361c0.258,0.188,0.416,0.49,0.615,0.738
			c-0.611,0.481-1.223,0.959-1.818,1.46C42.71,11.412,42.537,11.086,42.288,10.822z"/>
		<path d="M8.581,11.146c0.164-0.269,0.397-0.484,0.603-0.72c0.588,0.496,1.192,0.98,1.759,1.498
			c-0.121,0.32-0.474,0.535-0.66,0.835C9.71,12.23,9.097,11.733,8.581,11.146z"/>
		<path d="M38.734,11.982c0.56-0.514,1.157-1,1.74-1.493c0.266,0.153,0.436,0.457,0.616,0.706c-0.506,0.588-1.114,1.086-1.686,1.61
			C39.184,12.528,38.905,12.293,38.734,11.982z"/>
		<path d="M3.162,12.863c0.156-0.28,0.298-0.567,0.472-0.836c0.702,0.325,1.363,0.736,2.036,1.114
			c-0.108,0.329-0.327,0.619-0.488,0.927C4.479,13.728,3.841,13.254,3.162,12.863z"/>
		<path d="M44.009,13.227c0.691-0.35,1.346-0.771,2.045-1.102c0.168,0.271,0.323,0.55,0.474,0.831
			c-0.658,0.432-1.332,0.839-2.014,1.23C44.348,13.864,44.122,13.573,44.009,13.227z"/>
		<path d="M7.468,12.61c0.659,0.396,1.313,0.827,1.917,1.296c-0.167,0.305-0.374,0.588-0.572,0.874
			c-0.598-0.481-1.262-0.879-1.853-1.364C7.057,13.116,7.296,12.874,7.468,12.61z"/>
		<path d="M40.261,13.947c0.65-0.432,1.273-0.911,1.967-1.269c0.138,0.282,0.412,0.509,0.47,0.82
			c-0.587,0.472-1.254,0.843-1.821,1.338C40.637,14.566,40.469,14.242,40.261,13.947z"/>
		<path d="M18.985,14.599c3.439,0.034,6.881-0.095,10.317,0.018c0.168,0.04,0.219,0.224,0.254,0.371
			c1.504,6.272,3.11,12.522,4.662,18.784c0.245,0.452,0.899,0.148,1.317,0.232c0.399-0.079,0.411,0.379,0.351,0.649
			c-0.043,0.217,0.104,0.652-0.239,0.653c-2.597-0.006-5.199,0.024-7.793-0.071c-0.072-0.387-0.168-0.902,0.048-1.236
			c0.863-0.093,1.753,0.005,2.623-0.015c0.093-0.028,0.143-0.143,0.122-0.233c-1.363-5.835-2.856-11.645-4.283-17.467
			c-0.039-0.359-0.464-0.303-0.726-0.283c-0.818,0.005-1.637,0.007-2.455,0.019c-0.252-0.011-0.27,0.283-0.332,0.46
			c-1.518,5.769-3.082,11.522-4.519,17.307c-0.012,0.096,0.072,0.187,0.17,0.18c0.783,0.016,1.568,0.009,2.35,0.035
			c0.247,0.122,0.125,0.463,0.155,0.684c-0.008,0.206,0.056,0.613-0.261,0.584c-2.255-0.002-4.51-0.009-6.764-0.01
			c-0.176-0.024-0.526,0.026-0.478-0.25c0.055-0.333-0.115-0.755,0.104-1.03c0.814-0.054,1.638,0.004,2.456-0.021
			c0.141-0.003,0.273-0.104,0.308-0.241c0.74-2.931,1.544-5.847,2.328-8.767c0.736-2.768,1.395-5.555,2.17-8.313
			c0.034-0.211,0.282-0.61-0.082-0.644c-0.673,0.016-1.351,0.021-2.022-0.027c-0.259-0.203-0.035-0.593-0.107-0.874
			C18.609,14.861,18.679,14.538,18.985,14.599z"/>
		<path d="M2.147,14.934c0.735,0.27,1.5,0.513,2.186,0.887c-0.191,0.286-0.265,0.628-0.432,0.927
			c-0.714-0.297-1.415-0.621-2.124-0.928C1.858,15.509,2.008,15.223,2.147,14.934z"/>
		<path d="M5.575,15.866c0.146-0.295,0.284-0.594,0.447-0.879c0.697,0.346,1.413,0.652,2.102,1.014
			c-0.141,0.321-0.296,0.635-0.467,0.941C6.956,16.599,6.274,16.216,5.575,15.866z"/>
		<path d="M41.525,16.044c0.703-0.346,1.43-0.642,2.131-0.992c0.118,0.291,0.342,0.584,0.373,0.884
			c-0.646,0.402-1.363,0.696-2.03,1.068C41.821,16.695,41.653,16.377,41.525,16.044z"/>
		<path d="M45.349,15.86c0.738-0.253,1.447-0.599,2.197-0.809c0.122,0.286,0.229,0.577,0.355,0.861
			c-0.712,0.337-1.442,0.636-2.163,0.953C45.603,16.532,45.453,16.205,45.349,15.86z"/>
		<path d="M4.882,17.51c0.732,0.263,1.484,0.461,2.216,0.723c-0.081,0.348-0.206,0.687-0.347,1.015
			c-0.729-0.261-1.458-0.523-2.175-0.818C4.656,18.116,4.753,17.807,4.882,17.51z"/>
		<path d="M42.526,18.308c0.732-0.252,1.476-0.487,2.223-0.679c0.155,0.28,0.212,0.602,0.317,0.903
			c-0.741,0.249-1.464,0.549-2.211,0.777C42.753,18.973,42.6,18.65,42.526,18.308z"/>
		<path d="M0.764,18.887c0.054-0.319,0.172-0.622,0.25-0.935c0.77,0.164,1.526,0.387,2.294,0.556
			c-0.083,0.351-0.179,0.698-0.297,1.038C2.263,19.324,1.506,19.13,0.764,18.887z"/>
		<path d="M46.346,18.628c0.765-0.148,1.502-0.431,2.274-0.535c0.087,0.308,0.17,0.618,0.245,0.93
			c-0.752,0.224-1.508,0.433-2.263,0.644C46.527,19.318,46.394,18.983,46.346,18.628z"/>
		<path d="M3.88,21.173c0.082-0.32,0.098-0.654,0.205-0.967c0.765,0.138,1.543,0.239,2.297,0.425
			c-0.008,0.345-0.146,0.668-0.175,1.01C5.422,21.578,4.665,21.268,3.88,21.173z"/>
		<path d="M43.23,20.706c0.76-0.169,1.533-0.289,2.304-0.404c0.071,0.312,0.153,0.625,0.162,0.947
			c-0.755,0.176-1.512,0.336-2.268,0.506C43.341,21.41,43.3,21.055,43.23,20.706z"/>
		<path d="M0.328,21.135c0.77,0.085,1.542,0.163,2.309,0.266c-0.001,0.348-0.091,0.688-0.121,1.034
			c-0.786-0.058-1.565-0.217-2.341-0.344C0.248,21.775,0.231,21.445,0.328,21.135z"/>
		<path d="M46.979,21.538c0.757-0.141,1.536-0.184,2.302-0.282c0.063,0.325,0.148,0.652,0.139,0.986
			c-0.782,0.083-1.549,0.286-2.335,0.317C47.086,22.215,46.992,21.881,46.979,21.538z"/>
		<path d="M3.639,22.958c0.782,0.052,1.566,0.05,2.349,0.102c-0.004,0.36-0.051,0.718-0.093,1.076
			c-0.767-0.051-1.532-0.154-2.3-0.194C3.526,23.613,3.634,23.286,3.639,22.958z"/>
		<path d="M43.604,23.159c0.794-0.085,1.593-0.061,2.388-0.11c-0.011,0.325-0.021,0.651,0.023,0.975
			c-0.78,0.086-1.565,0.116-2.346,0.209C43.634,23.877,43.6,23.518,43.604,23.159z"/>
		<g>
			<path d="M12.69,23.44c0.312-0.191,0.731-0.159,1.067-0.056c0.589,0.244,0.601,1.16,0.015,1.418
				c0.624,0.232,0.719,1.182,0.172,1.547c-0.506,0.323-1.351,0.25-1.645-0.325c-0.177-0.456-0.022-1.05,0.472-1.228
				C12.215,24.572,12.169,23.727,12.69,23.44z M13.069,23.543c-0.405,0.026-0.603,0.519-0.402,0.847
				c0.257,0.453,1.06,0.416,1.247-0.082C14.127,23.789,13.537,23.381,13.069,23.543z M13.11,24.92
				c-0.48,0.024-0.769,0.587-0.55,1.004c0.242,0.535,1.135,0.511,1.406,0.011C14.259,25.385,13.69,24.76,13.11,24.92z"/>
		</g>
		<path d="M10.746,23.784c0.225-0.175,0.379-0.498,0.707-0.476c-0.009,1.061,0.019,2.124-0.021,3.184
			c-0.079-0.001-0.159-0.001-0.238-0.002c-0.037-0.926,0.015-1.856-0.02-2.783c-0.262,0.172-0.446,0.433-0.698,0.617
			C10.317,24.088,10.599,23.928,10.746,23.784z"/>
		<path d="M35.319,23.399c0.564-0.032,1.131-0.008,1.696-0.007c0.002,0.076,0.003,0.151,0.005,0.228
			c-0.508,0.039-1.019-0.015-1.526,0.031c-0.03,0.327-0.024,0.657-0.015,0.985c0.358-0.276,0.874-0.362,1.268-0.107
			c0.528,0.354,0.533,1.142,0.249,1.651c-0.461,0.765-1.944,0.476-1.849-0.511c0.086-0.002,0.172-0.002,0.259,0
			c-0.04,0.791,1.165,0.944,1.419,0.253c0.189-0.507,0.017-1.344-0.659-1.305c-0.438-0.106-0.56,0.512-0.97,0.442
			C35.235,24.508,35.156,23.929,35.319,23.399z"/>
		<g>
			<path d="M39.194,23.563c0.101-0.151,0.277-0.194,0.449-0.181c0.003,1.058,0.034,2.12-0.022,3.178
				c-0.08-0.004-0.159-0.007-0.237-0.009c-0.056-0.289-0.031-0.582-0.039-0.874c-0.543-0.015-1.089,0.026-1.63-0.031
				c-0.012-0.149,0.004-0.303,0.113-0.415C38.279,24.672,38.743,24.123,39.194,23.563z M38.041,25.393
				c0.437,0.063,0.885,0.067,1.323,0.017c0.033-0.54-0.018-1.081,0.013-1.62C38.867,24.257,38.481,24.858,38.041,25.393z"/>
		</g>
		<path d="M0.02,24.372c0.785,0.017,1.568-0.024,2.352-0.056c0.003,0.355,0.037,0.713-0.015,1.066
			c-0.777-0.015-1.562-0.03-2.342-0.049C0.016,25.012-0.023,24.691,0.02,24.372z"/>
		<path d="M47.225,24.453c0.778,0.019,1.554,0.051,2.331,0.062c-0.011,0.319,0.025,0.642-0.015,0.959
			c-0.771,0.013-1.544,0.034-2.316,0.056C47.222,25.171,47.22,24.812,47.225,24.453z"/>
		<g>
			<path d="M22.065,25.149c-0.025-0.149,0.123-0.24,0.256-0.222c1.013,0.01,2.026-0.042,3.039-0.022
				c0.519,0.019,1.049,0.181,1.427,0.552c0.852,0.826,0.73,2.492-0.427,2.985c1.453,0.481,1.545,2.663,0.382,3.494
				c-0.84,0.519-1.862,0.355-2.797,0.377c-0.558,0.042-1.117,0.025-1.676,0.03c-0.138,0.01-0.24-0.121-0.234-0.251
				C22.035,29.778,22.071,27.463,22.065,25.149z M23.243,25.88c-0.118,0.016-0.118,0.153-0.117,0.246
				c0.007,0.566-0.003,1.133,0.005,1.699c-0.022,0.142,0.153,0.142,0.252,0.146c0.714-0.016,1.431,0.014,2.143-0.054
				c0.856-0.07,0.999-1.384,0.417-1.852C25.107,25.667,24.135,25.912,23.243,25.88z M23.109,29.169
				c0.03,0.718-0.043,1.443,0.034,2.158c0.822-0.007,1.647,0.016,2.468-0.02c1.042-0.09,1.175-1.732,0.379-2.216
				c-0.755-0.321-1.606-0.122-2.403-0.174C23.39,28.903,23.091,28.891,23.109,29.169z"/>
		</g>
		<path d="M3.568,25.755c0.774-0.112,1.555-0.161,2.335-0.2c0.05,0.345,0.034,0.696,0.077,1.042
			c-0.788,0.043-1.573,0.114-2.362,0.108C3.619,26.387,3.557,26.073,3.568,25.755z"/>
		<path d="M43.651,25.631c0.79,0.068,1.584,0.106,2.369,0.222c-0.045,0.325-0.056,0.652-0.054,0.98
			c-0.791-0.073-1.584-0.07-2.375-0.127C43.586,26.346,43.644,25.99,43.651,25.631z"/>
		<path d="M0.165,27.613c0.768-0.086,1.529-0.273,2.3-0.306c0.099,0.322,0.12,0.679,0.153,1.019
			c-0.773,0.104-1.553,0.174-2.33,0.248C0.2,28.261,0.214,27.933,0.165,27.613z"/>
		<path d="M47.071,27.428c0.784,0.028,1.553,0.22,2.329,0.323c0.009,0.33-0.083,0.65-0.129,0.975
			c-0.776-0.09-1.559-0.152-2.328-0.286C46.982,28.102,47.059,27.768,47.071,27.428z"/>
		<path d="M3.869,28.522c0.765-0.187,1.538-0.331,2.302-0.52c0.039,0.361,0.171,0.708,0.173,1.073
			c-0.756,0.149-1.524,0.235-2.279,0.396C3.95,29.167,3.925,28.84,3.869,28.522z"/>
		<path d="M43.399,28.11c0.77,0.151,1.547,0.298,2.296,0.525c-0.046,0.312-0.108,0.621-0.194,0.924
			c-0.768-0.148-1.543-0.248-2.307-0.412C43.277,28.804,43.325,28.455,43.399,28.11z"/>
		<path d="M0.729,30.819c0.742-0.232,1.493-0.433,2.24-0.65c0.108,0.342,0.215,0.687,0.268,1.043c-0.765,0.175-1.521,0.42-2.3,0.513
			C0.88,31.419,0.762,31.129,0.729,30.819z"/>
		<path d="M46.561,30.316c0.762,0.184,1.525,0.401,2.264,0.669c-0.082,0.311-0.155,0.625-0.256,0.931
			c-0.764-0.148-1.493-0.435-2.263-0.562C46.367,31.002,46.491,30.666,46.561,30.316z"/>
		<path d="M4.54,31.215c0.728-0.248,1.444-0.532,2.175-0.771c0.145,0.322,0.268,0.657,0.343,1.002
			c-0.748,0.232-1.486,0.502-2.242,0.712C4.734,31.841,4.56,31.547,4.54,31.215z"/>
		<path d="M42.48,31.504c0.122-0.322,0.213-0.655,0.348-0.973c0.746,0.225,1.468,0.526,2.199,0.8
			c-0.108,0.316-0.194,0.64-0.307,0.954C43.985,31.988,43.195,31.85,42.48,31.504z"/>
		<path d="M5.528,33.874c0.687-0.37,1.383-0.727,2.079-1.08c0.17,0.321,0.331,0.648,0.469,0.984
			c-0.717,0.308-1.417,0.655-2.138,0.952C5.796,34.447,5.646,34.168,5.528,33.874z"/>
		<path d="M41.945,32.876c0.695,0.352,1.387,0.711,2.073,1.082c-0.13,0.292-0.288,0.569-0.43,0.855
			c-0.713-0.311-1.429-0.622-2.119-0.982C41.606,33.502,41.769,33.185,41.945,32.876z"/>
		<path d="M1.694,33.963c0.726-0.297,1.427-0.653,2.161-0.928c0.122,0.326,0.266,0.642,0.403,0.962
			c-0.717,0.31-1.45,0.607-2.202,0.819C1.916,34.541,1.787,34.258,1.694,33.963z"/>
		<path d="M45.685,33.152c0.721,0.31,1.446,0.616,2.149,0.959c-0.141,0.271-0.207,0.62-0.403,0.838
			c-0.723-0.236-1.436-0.526-2.148-0.803C45.411,33.813,45.527,33.473,45.685,33.152z"/>
		<path d="M6.881,36.251c0.586-0.448,1.239-0.813,1.841-1.241c0.256,0.224,0.396,0.558,0.616,0.82
			c-0.656,0.401-1.279,0.856-1.952,1.23C7.207,36.799,6.984,36.549,6.881,36.251z"/>
		<path d="M40.189,35.902c0.195-0.284,0.376-0.623,0.627-0.84c0.592,0.454,1.265,0.81,1.84,1.284
			c-0.135,0.288-0.365,0.519-0.514,0.801C41.464,36.778,40.862,36.284,40.189,35.902z"/>
		<path d="M3.058,36.855c0.652-0.399,1.304-0.831,1.993-1.153c0.254,0.205,0.375,0.572,0.548,0.857
			c-0.675,0.388-1.356,0.77-2.05,1.124C3.367,37.418,3.226,37.128,3.058,36.855z"/>
		<path d="M43.905,36.673c0.167-0.311,0.34-0.619,0.538-0.911c0.667,0.402,1.344,0.789,1.994,1.22
			c-0.154,0.275-0.304,0.553-0.466,0.824C45.256,37.482,44.581,37.068,43.905,36.673z"/>
		<path d="M8.496,38.533c0.528-0.573,1.127-1.075,1.703-1.596c0.221,0.279,0.464,0.541,0.683,0.822
			c-0.593,0.507-1.188,1.012-1.8,1.495C8.871,39.028,8.688,38.776,8.496,38.533z"/>
		<path d="M38.615,37.813c0.244-0.269,0.479-0.546,0.708-0.828c0.556,0.559,1.177,1.049,1.73,1.611
			c-0.193,0.255-0.416,0.485-0.633,0.72C39.802,38.835,39.214,38.317,38.615,37.813z"/>
		<path d="M4.815,39.594c0.599-0.494,1.214-0.969,1.822-1.453c0.185,0.312,0.917,0.788,0.371,1.07
			c-0.546,0.355-1.045,0.782-1.604,1.117C5.164,40.131,5,39.844,4.815,39.594z"/>
		<path d="M42.813,38.274c0.68,0.383,1.23,0.973,1.864,1.432c-0.176,0.273-0.392,0.518-0.614,0.755
			c-0.622-0.459-1.254-0.905-1.868-1.375C42.389,38.806,42.62,38.554,42.813,38.274z"/>
		<path d="M10.392,40.526c0.459-0.608,0.998-1.172,1.488-1.763c0.28,0.2,0.52,0.448,0.781,0.671
			c-0.457,0.592-0.99,1.135-1.517,1.666C10.851,41.057,10.594,40.731,10.392,40.526z"/>
		<path d="M36.821,39.499c0.28-0.202,0.503-0.532,0.823-0.649c0.517,0.564,0.987,1.174,1.49,1.753
			c-0.306,0.149-0.64,0.842-0.957,0.401C37.725,40.502,37.245,40.024,36.821,39.499z"/>
		<path d="M13.801,40.301c0.291,0.213,0.603,0.397,0.9,0.603c-0.445,0.622-0.919,1.223-1.331,1.868
			c-0.303-0.127-0.565-0.327-0.825-0.524C12.931,41.579,13.397,40.959,13.801,40.301z"/>
		<path d="M34.796,40.925c0.308-0.172,0.585-0.393,0.892-0.566c0.439,0.636,0.849,1.291,1.262,1.943
			c-0.276,0.154-0.527,0.449-0.836,0.488C35.654,42.189,35.216,41.558,34.796,40.925z"/>
		<path d="M6.898,42.034c0.543-0.531,1.061-1.102,1.622-1.605c0.264,0.189,0.481,0.482,0.718,0.719
			c-0.551,0.517-1.064,1.084-1.659,1.548C7.312,42.524,7.111,42.267,6.898,42.034z"/>
		<path d="M40.235,41.214c0.241-0.248,0.496-0.482,0.741-0.726c0.524,0.556,1.079,1.083,1.586,1.656
			c-0.215,0.233-0.437,0.46-0.678,0.667C41.291,42.324,40.795,41.734,40.235,41.214z"/>
		<path d="M15.93,41.592c0.286,0.174,0.662,0.27,0.898,0.479c-0.282,0.709-0.694,1.375-1.061,2.047
			c-0.282-0.14-0.567-0.275-0.844-0.426C15.228,42.979,15.555,42.272,15.93,41.592z"/>
		<path d="M32.616,42.083c0.317-0.158,0.634-0.319,0.954-0.471c0.319,0.714,0.699,1.402,0.982,2.132
			c-0.287,0.141-0.574,0.283-0.863,0.421C33.325,43.474,32.939,42.792,32.616,42.083z"/>
		<path d="M9.254,44.233c0.45-0.632,0.911-1.258,1.392-1.866c0.284,0.209,0.565,0.423,0.843,0.641
			c-0.481,0.61-0.978,1.207-1.47,1.808C9.76,44.627,9.492,44.449,9.254,44.233z"/>
		<path d="M37.982,43.091c0.231-0.27,0.558-0.441,0.831-0.666c0.457,0.636,0.95,1.247,1.394,1.892
			c-0.263,0.178-0.502,0.424-0.793,0.542C38.914,44.289,38.441,43.691,37.982,43.091z"/>
		<path d="M17.483,44.786c0.198-0.737,0.449-1.463,0.697-2.186c0.331,0.104,0.664,0.209,0.982,0.348
			c-0.213,0.728-0.489,1.454-0.797,2.146C18.087,45.064,17.737,44.943,17.483,44.786z"/>
		<path d="M30.291,42.949c0.336-0.102,0.657-0.279,1.006-0.317c0.265,0.721,0.492,1.463,0.707,2.204
			c-0.295,0.125-0.601,0.237-0.915,0.299C30.802,44.417,30.54,43.682,30.291,42.949z"/>
		<path d="M20.512,43.295c0.351,0.09,0.709,0.149,1.063,0.223c-0.195,0.745-0.356,1.498-0.528,2.248
			c-0.327-0.013-0.649-0.083-0.966-0.157C20.234,44.84,20.355,44.064,20.512,43.295z"/>
		<path d="M27.931,43.466c0.342-0.024,0.673-0.11,1.008-0.175c0.192,0.758,0.299,1.547,0.408,2.319
			c-0.319,0.056-0.635,0.137-0.959,0.152C28.247,44.994,28.026,44.239,27.931,43.466z"/>
		<path d="M22.959,43.693c0.359,0.001,0.717,0.056,1.077,0.039c-0.103,0.767-0.118,1.541-0.231,2.307
			c-0.32-0.009-0.642,0.018-0.96-0.021C22.864,45.242,22.922,44.468,22.959,43.693z"/>
		<path d="M25.456,43.728c0.346-0.018,0.693-0.024,1.037-0.069c0.109,0.773,0.028,1.558,0.116,2.334
			c-0.324,0.072-0.657,0.023-0.985,0.045C25.561,45.268,25.464,44.501,25.456,43.728z"/>
		<path d="M11.91,46.1c0.35-0.702,0.752-1.377,1.137-2.06c0.301,0.181,0.626,0.339,0.906,0.545
			c-0.383,0.669-0.798,1.321-1.201,1.979C12.463,46.425,12.19,46.256,11.91,46.1z"/>
		<path d="M35.466,44.627c0.323-0.175,0.626-0.402,0.982-0.508c0.314,0.704,0.755,1.343,1.073,2.045
			c-0.271,0.173-0.564,0.308-0.84,0.47C36.263,45.973,35.868,45.298,35.466,44.627z"/>
		<path d="M15.658,45.411c0.33,0.137,0.664,0.268,0.993,0.409c-0.338,0.691-0.616,1.417-0.974,2.094
			c-0.302-0.041-0.595-0.241-0.892-0.347C15.079,46.849,15.341,46.115,15.658,45.411z"/>
		<path d="M32.786,45.851c0.338-0.133,0.671-0.287,1.019-0.391c0.249,0.732,0.589,1.429,0.816,2.169
			c-0.291,0.136-0.592,0.246-0.894,0.352C33.4,47.277,33.105,46.558,32.786,45.851z"/>
		<path d="M18.405,46.451c0.344,0.041,0.707,0.129,1.011,0.29c-0.174,0.722-0.424,1.438-0.624,2.158
			c-0.317-0.018-0.618-0.129-0.923-0.211C17.978,47.93,18.226,47.196,18.405,46.451z"/>
		<path d="M30.026,46.739c0.319-0.15,0.669-0.225,1.014-0.288c0.135,0.76,0.409,1.492,0.508,2.258
			c-0.304,0.089-0.609,0.186-0.926,0.214C30.388,48.204,30.243,47.463,30.026,46.739z"/>
		<path d="M21.24,47.051c0.341,0.079,0.694,0.062,1.035,0.136c-0.028,0.776-0.25,1.532-0.322,2.306
			c-0.325-0.004-0.643-0.082-0.963-0.13C21.064,48.591,21.133,47.82,21.24,47.051z"/>
		<path d="M27.099,47.186c0.355-0.088,0.727-0.063,1.085-0.139c0.062,0.774,0.175,1.544,0.246,2.317
			c-0.328,0.041-0.654,0.095-0.982,0.135C27.362,48.723,27.218,47.957,27.099,47.186z"/>
		<path d="M24.165,47.287c0.361,0.01,0.722-0.011,1.083,0.005c-0.021,0.771-0.073,1.543-0.061,2.316
			c-0.327,0.021-0.653,0.001-0.98,0.014C24.208,48.843,24.193,48.064,24.165,47.287z"/>
	</g>
</g>
<g id="Layer_1">
</g>
</svg>
