<?xml version="1.0" encoding="iso-8859-1"?>
<!-- Generator: Adobe Illustrator 19.2.0, SVG Export Plug-In . SVG Version: 6.00 Build 0)  -->
<svg version="1.1" xmlns="http://www.w3.org/2000/svg" xmlns:xlink="http://www.w3.org/1999/xlink" x="0px" y="0px"
	 viewBox="0 0 76.106 73.798" style="enable-background:new 0 0 76.106 73.798;" xml:space="preserve">
<g id="Akkumulatorenbau_x5F_Leipzig">
	<path style="fill-rule:evenodd;clip-rule:evenodd;" d="M23.847,0.045c0.53,0.367,0.69,1.084,0.915,1.678
		c0.465,1.231,0.987,2.492,1.475,3.713c0.24,0.6,0.379,1.307,0.916,1.678c1.173-0.1,1.799-1.014,2.898-1.018
		c0.148,1.068-0.571,1.971-0.915,2.898c-0.364,0.978-0.797,1.918-1.068,2.949c0.405,0.561,1.908,0.023,2.542,0.356
		c0.254,0.627-0.044,1.807,0.204,2.439c1.087,0.248,2.959,0.213,4.118,0.053c0.37-0.547-0.036-1.867,0.254-2.492
		c1.602-0.168,3.889-0.168,5.491,0c0.257,0.625-0.055,1.816,0.204,2.439c1.025,0.279,2.908,0.19,4.017,0.053
		c0.449-0.484,0.002-1.863,0.305-2.492c0.603-0.262,1.8,0.072,2.339-0.254c0.005-1.123-0.435-2.105-0.813-3.051
		c-0.374-0.936-0.832-1.924-0.712-3c0.633,0.025,0.993,0.268,1.475,0.508c0.396,0.201,0.848,0.666,1.322,0.611
		c0.586-0.068,0.777-1.096,0.966-1.627c0.252-0.709,0.54-1.289,0.711-1.83c0.454-1.434,0.843-2.781,1.475-3.611
		c0.116,0.07,0.191-0.131,0.203,0c6.83,2.695,12.238,7.135,16.321,12.609c0.957,1.283,1.704,2.672,2.542,4.068
		c2.48,4.133,4.097,8.898,4.83,14.896c1.035,8.469-1.341,16.174-4.169,21.658c-2.967,5.754-7.282,10.328-12.406,13.881
		c-5.199,3.605-11.539,6.248-19.727,6.609c-4.088,0.18-8.305-0.467-11.694-1.475c-6.844-2.035-12.175-5.211-16.625-9.66
		c-2.155-2.154-4.046-4.697-5.745-7.422c-3.294-5.285-5.555-12.26-5.491-20.693c0.021-2.832,0.471-5.527,1.068-7.932
		C3.548,16.6,9.049,9.036,16.424,3.86c1.127-0.791,2.336-1.404,3.559-2.086C21.177,1.11,22.313,0.381,23.847,0.045z M23.389,7.418
		c-0.255-0.342-0.565-0.885-1.017-0.916c-0.621-0.041-1.718,0.84-2.288,1.221C19.393,8.186,18.62,8.704,18,9.147
		c-2.84,2.033-4.909,4.432-6.915,7.117c-1.04,1.393-1.691,3.072-2.593,4.475c-2.515,5.178-4.119,11.926-3.101,19.117
		c0.916,6.469,3.568,11.963,6.813,16.066c1.684,2.131,3.636,3.955,5.745,5.644c2.114,1.693,4.551,3.004,7.22,4.219
		c2.481,1.129,5.637,2.092,8.999,2.441c3.392,0.352,7.139,0.377,10.575-0.357c2.988-0.637,5.743-1.752,8.287-3.1
		c7.419-3.938,13.224-10.08,16.118-18.203c1.976-5.545,2.516-13.662,0.66-19.828c-0.454-1.512-0.867-2.918-1.474-4.221
		c-1.841-3.947-4.063-7.32-6.915-10.269c-1.552-1.541-3.754-3.295-5.847-4.678c-0.612-0.404-2.019-1.332-2.593-1.068
		c-0.431,0.539-1.343,1.238-1.22,2.035c0.154,0.996,2.521,1.006,2.644,1.983c-0.353,0.535-1.129,0.627-1.779,0.812
		c-0.694,0.201-1.405,0.412-2.034,0.611c0.039,0.293,0.189,0.606,0.204,1.117c0.017,0.578-0.086,1.256,0.102,1.678
		c1.16,0.434,3.314-0.127,4.474,0.307c0.227,13.256,0,26.689,0,39.758c0,1.109,0.124,2.236-0.152,3.305
		c-10.504,0.117-22.007,0.051-32.844,0.051c-0.674,0-1.416,0.123-2.034-0.203c-0.031-13.42,0.001-27.053,0-40.369
		c0-0.861-0.117-1.766,0.153-2.592c1.229-0.346,3.181,0.119,4.423-0.305c0.19-0.744,0.064-2.07,0.203-2.695
		c-1.017-0.695-2.914-0.51-3.711-1.424c0.579-0.963,2.063-1.021,2.695-1.932C24.032,8.157,23.712,7.852,23.389,7.418z
		 M28.118,20.028c-0.806,0-1.705-0.145-2.39-0.051c-0.379,0.051-0.49-0.119-0.559,0.711c-0.043,0.516,0,0.748,0,1.068
		c0,7.615-0.051,15.535-0.051,23.082c0,2.859-0.083,5.955,0.102,8.389c1.602,0.186,3.611,0.17,5.237,0
		c0.272-1.303,0.152-2.666,0.152-4.016c0-8.547,0-16.774,0-25.117c0-1.369,0.097-2.715-0.152-3.965
		C29.805,19.954,28.962,20.028,28.118,20.028z M35.49,20.028c-0.06,0.023-0.115,0.055-0.152,0.101
		c-0.191,0.096-0.202,1.348-0.204,1.932c-0.006,2.02,0,4.18,0,6.102c-0.001,8.375-0.083,17.156,0.102,25.064
		c0.685,0.264,1.695,0.154,2.643,0.154c0.966-0.002,1.986,0.098,2.644-0.205c0.195-8.205,0.102-16.672,0.102-24.963
		c0-2.744,0.129-5.428-0.102-8.033C39.136,19.838,37.127,20.118,35.49,20.028z M45.607,20.129c-0.276,0.863-0.152,1.803-0.152,2.693
		c0,6.707-0.073,13.32-0.051,19.576c0.006,1.74,0,3.574,0,5.389c0,1.854-0.124,3.725,0.152,5.49c1.531,0.119,3.472,0.176,5.135,0
		c0.274-1.342,0.152-2.746,0.152-4.117c0-4.236-0.034-8.426,0-12.508c0.022-2.707,0.137-5.486,0.051-8.236
		c-0.086-2.756,0.174-5.555-0.152-8.236C49.334,19.993,47.169,19.95,45.607,20.129z"/>
</g>
<g id="Layer_1">
</g>
</svg>
