<?xml version="1.0" encoding="iso-8859-1"?>
<!-- Generator: Adobe Illustrator 19.2.0, SVG Export Plug-In . SVG Version: 6.00 Build 0)  -->
<svg version="1.1" xmlns="http://www.w3.org/2000/svg" xmlns:xlink="http://www.w3.org/1999/xlink" x="0px" y="0px"
	 viewBox="0 0 84.773 65.166" style="enable-background:new 0 0 84.773 65.166;" xml:space="preserve">
<g id="Aktieselskabet_x5F_C_x5F_Olesen">
	<path style="fill-rule:evenodd;clip-rule:evenodd;" d="M84.387,21.803c-0.827-0.23-0.808-1.243-0.997-1.836
		c-0.677-2.129-1.425-4.17-2.519-5.93c-2.843-4.573-7.225-7.755-13.329-9.236c-2.124-0.515-5.027-0.711-7.766-0.524
		c-0.783,0.053-1.703-0.014-2.204,0.577c0.16,0.681,0.825,1.049,1.312,1.417c0.523,0.395,1.02,0.792,1.469,1.259
		c3.478,3.461,6.357,7.06,8.501,11.912c2.037,4.611,3.537,10.382,2.676,17.055c-0.724,5.612-3.299,10.641-5.982,14.431
		c-0.706,0.998-1.423,1.953-2.203,2.886c-0.741,0.885-1.66,1.641-2.519,2.571c-0.777,0.842-1.594,1.641-2.624,2.466
		c-0.431,0.345-0.888,0.662-1.469,1.101c-0.276,0.209-1.329,0.849-1.259,1.26c0.077,0.455,1.744,0.543,2.204,0.63
		c2.42,0.455,5.57,0.266,7.819-0.105c3.242-0.535,5.896-1.879,8.081-3.201c2.424-1.467,4.153-3.285,5.772-5.51
		c1.176-1.617,2.198-3.375,2.886-5.615c0.176-0.573,0.282-1.766,1.207-1.575c0.703,0.146,0.307,1.257,0.21,2.046
		c-0.292,2.386-0.818,4.653-1.101,6.927c-0.111,0.891-0.135,1.646-0.263,2.414c-0.267,1.601-0.339,2.885-0.525,4.828
		c-0.078,0.827-0.106,1.838-0.682,1.942c-0.441,0.079-0.886-0.068-1.05-0.892c-0.272-1.368-0.416-2.624-1.679-2.991
		c-1.069-0.311-2.476,0.226-3.254,0.525c-4.471,1.719-9.545,3.675-15.952,3.201c-1.691-0.124-3.451-0.359-5.038-0.734
		c-0.563-0.133-1.117-0.431-1.627-0.367c-0.785,0.097-1.638,0.659-2.466,0.944c-2.458,0.847-5.274,1.618-8.659,1.469
		c-3.19-0.14-6.176-0.612-8.711-1.521c-0.932-0.334-1.747-0.959-2.834-0.892c-0.49,0.03-0.99,0.254-1.521,0.367
		c-3.58,0.758-8.133,0.773-11.859,0c-1.928-0.4-3.845-0.956-5.72-1.784c-2.005-0.886-5.561-2.964-6.874-0.682
		c-0.165,0.287-0.355,0.787-0.472,1.417c-0.152,0.817-0.213,1.586-1.102,1.26c-0.641-0.235-0.743-3.479-0.84-4.303
		c-0.479-4.072-0.697-7.638-1.259-11.597c-0.099-0.698-0.364-1.55,0.105-2.099c1.104-0.372,1.217,0.693,1.364,1.312
		c0.526,2.215,1.407,4.118,2.571,5.772c1.536,2.182,3.229,4.099,5.457,5.667c2.068,1.455,4.748,2.666,7.661,3.463
		c2.14,0.586,5.213,0.538,7.609,0.21c0.784-0.107,1.662-0.005,2.204-0.524c-0.03-0.604-0.646-0.812-0.997-1.102
		c-0.394-0.326-0.758-0.652-1.155-0.944c-0.754-0.628-1.506-1.258-2.204-1.942c-1.902-1.795-3.578-3.729-4.985-5.982
		c-0.468-0.75-0.808-1.563-1.26-2.361c-0.884-1.561-1.578-3.226-2.204-5.09c-1.197-3.565-2.171-7.742-1.837-12.646
		c0.412-6.04,2.565-11.009,4.985-15.113c0.23-0.391,0.353-0.84,0.577-1.207c0.544-0.893,1.337-1.892,2.099-2.781
		c1.896-2.211,3.801-4.17,6.245-5.982c0.393-0.292,1.239-0.818,1.207-1.207c-0.049-0.584-1.279-0.723-1.994-0.84
		c-2.41-0.395-5.533-0.258-7.767,0.158C14.45,4.803,12.053,5.737,9.768,7.32c-2.149,1.488-4.123,3.49-5.51,5.772
		c-0.998,1.642-2.127,3.562-2.624,5.825c-0.125,0.566-0.169,1.865-0.944,1.836c-0.782-0.029-0.455-1.407-0.368-2.099
		c0.104-0.813,0.261-1.728,0.368-2.414c0.227-1.464,0.214-3.924,0.629-4.88c0.366-0.842,1.76-1.765,2.571-2.466
		c4.556-3.938,9.903-6.778,18.052-7.137c2.312-0.102,4.773,0.224,6.822,0.735c0.738,0.184,1.435,0.476,2.046,0.419
		c0.755-0.069,1.548-0.68,2.309-0.997c2.286-0.953,5.119-1.747,8.133-1.89c4.733-0.224,8.591,1.055,11.807,2.519
		c0.495,0.225,1.005,0.531,1.469,0.577c0.494,0.05,1.085-0.148,1.679-0.315c1.454-0.407,3.636-0.616,5.3-0.629
		c7.592-0.063,13.81,2.881,18.366,6.455c0.683,0.535,1.435,1.112,2.257,1.889c0.6,0.567,1.798,1.534,1.993,2.257
		c0.161,0.592,0.044,1.529,0.105,2.361c0.114,1.54,0.223,3.087,0.42,4.618C84.736,20.424,84.98,21.33,84.387,21.803z M49.177,3.227
		c-2.183-0.638-5.083-1.432-7.662-1.311c-2.347,0.109-4.42,0.432-6.14,1.154C34.968,3.241,34,3.61,34.011,4.014
		c0.009,0.316,0.618,0.596,0.944,0.735c2.252,0.96,3.741,1.73,5.562,2.991c0.612,0.424,1.359,1.325,2.151,1.312
		c0.6-0.009,1.542-0.858,2.099-1.207c1.484-0.93,2.759-1.746,4.25-2.466c0.761-0.368,1.7-0.487,2.151-1.207
		C50.81,3.577,49.937,3.449,49.177,3.227z M28.711,7.739c-2.163,2.164-3.953,4.76-5.3,7.452c-1.925,3.846-3.355,8.119-3.935,13.066
		c-0.637,5.428-0.095,10.699,0.944,15.428c1.034,4.704,2.853,8.767,5.195,11.859c0.659,0.923,1.284,1.732,2.256,2.624
		c0.63,0.579,1.747,2.008,2.781,2.099c0.73,0.064,1.822-0.472,2.466-0.787c1.583-0.775,2.747-1.446,4.198-2.414
		c0.54-0.36,1.733-0.983,1.732-1.574c0-0.322-0.464-0.692-0.84-1.102c-1.004-1.097-1.865-2.207-2.676-3.253
		c-2.375-3.066-4.016-6.242-5.195-10.548c-0.561-2.048-1.067-4.503-1.049-6.874c0.018-2.477,0.59-4.89,1.101-7.084
		c0.239-1.024,0.636-2.084,1.05-3.044c1.682-3.904,3.866-6.957,6.507-9.865c0.335-0.369,1.903-1.702,1.889-2.204
		c-0.015-0.517-1.313-1.396-1.784-1.784c-1.545-1.272-2.617-1.962-4.303-2.938c-0.819-0.474-1.94-1.224-2.624-1.049
		C30.397,5.967,29.408,7.043,28.711,7.739z M51.17,7.058c-1.56,0.817-2.698,1.677-4.093,2.729c-0.504,0.38-1.764,1.008-1.784,1.627
		c-0.019,0.59,1.141,1.383,1.627,1.889c1.766,1.839,3.196,3.959,4.408,6.14c1.654,2.976,3.173,6.502,3.516,10.548
		c0.383,4.521-0.463,8.581-1.626,12.122c-1.15,3.499-2.959,6.352-5.09,8.973c-0.921,1.161-1.836,2.079-2.938,3.096
		c-0.337,0.312-0.903,0.697-0.892,1.154c0.014,0.589,1.081,1.36,1.521,1.679c0.779,0.565,1.346,0.892,1.994,1.26
		c1.488,0.843,3.08,1.829,4.46,2.046c0.675,0.106,1.874-1.225,2.414-1.731c0.733-0.688,1.436-1.354,2.046-2.047
		c1.311-1.486,2.657-2.927,3.516-4.618c0.322-0.634,0.556-1.367,0.892-2.047c0.329-0.664,0.634-1.348,0.892-2.046
		c1.552-4.194,2.834-9.434,2.834-14.903c0-4.019-0.326-7.512-1.102-10.705c-0.665-2.735-1.671-5.378-2.677-7.661
		c-1.197-2.718-3.059-5.223-5.195-7.242c-0.543-0.513-1.56-1.633-2.361-1.364C52.77,6.235,51.967,6.64,51.17,7.058z M41.043,16.346
		c-0.45,0.708-0.86,1.335-1.207,1.941c-1.692,2.952-2.518,5.714-3.148,9.341c-0.301,1.732-0.577,3.803-0.578,5.72
		c0,7.361,1.488,13.065,4.303,17.631c0.377,0.612,0.958,1.657,1.522,1.627c0.457-0.024,1.087-1.063,1.469-1.627
		c0.468-0.689,0.863-1.374,1.154-1.994c1.996-4.251,3.665-9.172,3.726-15.06c0.043-4.112-0.185-7.575-1.364-11.177
		c-0.779-2.378-1.592-4.537-2.834-6.559c-0.382-0.622-0.911-1.744-1.574-1.627C41.914,14.668,41.389,15.8,41.043,16.346z
		 M35.376,62.734c1.988,0.591,4.693,1.071,7.242,0.944c2.003-0.1,3.858-0.456,5.458-0.997c0.459-0.156,1.417-0.354,1.417-0.787
		c0-0.401-1.359-0.938-1.836-1.207c-1.508-0.85-2.53-1.399-3.883-2.204c-0.584-0.348-1.846-1.37-2.519-0.997
		c-1.833,1.017-3.753,2.282-5.772,3.201c-0.669,0.304-1.504,0.5-1.889,1.154C33.918,62.409,34.693,62.531,35.376,62.734z"/>
</g>
<g id="Layer_1">
</g>
</svg>
