<?xml version="1.0" encoding="iso-8859-1"?>
<!-- Generator: Adobe Illustrator 19.2.0, SVG Export Plug-In . SVG Version: 6.00 Build 0)  -->
<svg version="1.1" xmlns="http://www.w3.org/2000/svg" xmlns:xlink="http://www.w3.org/1999/xlink" x="0px" y="0px"
	 viewBox="0 0 81.272 82.01" style="enable-background:new 0 0 81.272 82.01;" xml:space="preserve">
<g id="akustik-ground_x5F_tongerate">
	<path style="fill-rule:evenodd;clip-rule:evenodd;" d="M78.678,0.162c-0.001,0.803-0.96,1.085-1.278,1.739
		c-6.581,6.733-13.153,13.475-19.741,20.201c-0.507,0.486-0.929,1.031-1.483,1.586c-0.452,0.452-1.046,1.266-1.637,1.432
		c-0.854,0.24-2.199,0.051-3.375,0.051c-16.416,0.001-34.374,0.008-50.733-0.205c0.125-0.679,0.84-1.147,1.329-1.637
		c1.018-1.018,1.997-2.061,3.018-3.12c0.506-0.526,0.915-1.119,1.432-1.637c4.109-4.109,7.916-8.12,12.172-12.376
		c1.433-1.433,3.003-3.057,4.5-4.705c0.422-0.465,1.211-1.34,1.636-1.432c0.617-0.134,1.472,0,2.199,0
		C44.319,0.059,61.18,0.086,78.678,0.162z"/>
	<path style="fill-rule:evenodd;clip-rule:evenodd;" d="M80.979,2.105c0.041,0.01,0.051,0.051,0.102,0.051
		c0.201,16.859,0.101,34.156,0.103,51.653c0,1.127,0.199,2.488,0,3.375c-0.115,0.512-0.939,1.195-1.432,1.688
		c-7.55,7.55-14.886,14.936-22.4,22.451c-0.222,0.223-0.487,0.619-0.87,0.562c-0.414-11.407,0.202-23.144-0.102-34.521
		c-0.062-2.29,0.142-4.602,0.051-6.802c-0.133-3.24,0-6.825,0-10.33c0-1.203-0.196-2.556,0-3.478
		c0.096-0.45,0.973-1.178,1.432-1.637c6.731-6.732,13.188-13.188,19.894-19.894C78.786,4.196,79.892,2.935,80.979,2.105z"/>
	<path style="fill-rule:evenodd;clip-rule:evenodd;" d="M24.774,27.114c0.225,6.665,0.052,13.914,0.051,20.814
		c0,1.667,0.099,3.569,0.051,5.268c-0.016,0.569,0.057,1.147-0.051,1.585c-0.165,0.668-0.884,1.14-1.432,1.688
		c-1.619,1.619-3.012,3.129-4.705,4.654C13.596,66.395,8.284,71.449,3.294,76.824c-0.775,0.728-1.604,1.49-2.352,2.301
		c-0.224,0.243-0.477,0.641-0.87,0.562C-0.051,64.51,0.021,49.289,0.021,33.251c0-1.779,0.051-3.085,0.051-4.91
		c0-0.801-0.134-1.261,0.512-1.381c0.748-0.139,2.099,0.051,3.018,0.051C10.61,27.011,17.926,26.927,24.774,27.114z"/>
	<path style="fill-rule:evenodd;clip-rule:evenodd;" d="M54.079,57.185c0.244,0.972,0.191,2.008,0.153,3.018
		c-0.257,6.856,0.302,14.382-0.153,21.633c-2.083,0.318-4.218,0.103-6.342,0.103c-15.024,0-30.535-0.011-45.517-0.153
		c0.238-0.696,0.878-1.185,1.381-1.688c3.555-3.555,6.922-7.126,10.586-10.79c2.951-2.951,6.116-6.09,9.206-9.155
		c0.444-0.44,0.964-1.022,1.483-1.585c0.447-0.484,1.162-1.247,1.636-1.381c1.187-0.333,3.463,0.065,4.756-0.051
		c0.078-0.007,0.092-0.051,0.153-0.051C38.492,57.07,46.77,57.029,54.079,57.185z"/>
</g>
<g id="Layer_1">
</g>
</svg>
