<?xml version="1.0" encoding="iso-8859-1"?>
<!-- Generator: Adobe Illustrator 21.0.2, SVG Export Plug-In . SVG Version: 6.00 Build 0)  -->
<svg version="1.1" xmlns="http://www.w3.org/2000/svg" xmlns:xlink="http://www.w3.org/1999/xlink" x="0px" y="0px"
	 viewBox="0 0 36.583 34.692" style="enable-background:new 0 0 36.583 34.692;" xml:space="preserve">
<g id="Aleksa">
	<path d="M12.748,0.041c2.54,0,5.076-0.062,7.618-0.034c0.875,0.053,1.724,0.578,2.137,1.355c4.662,11.093,9.47,22.125,14.08,33.241
		c-2.406,0.027-4.815-0.032-7.22,0.043c-1.223,0.122-2.503-0.633-2.838-1.845c-1.602-3.861-3.172-7.736-4.76-11.603
		c-2.382-0.006-4.765,0.015-7.147,0.001c-1.628,3.937-3.207,7.895-4.848,11.83c-0.359,1.02-1.453,1.752-2.538,1.644
		C4.821,34.648,2.405,34.724,0,34.675c1.861-4.693,3.836-9.338,5.746-14.011c0.354-0.749,1.103-1.304,1.918-1.436
		c4.405-0.083,8.813-0.034,13.22-0.064C18.13,12.81,15.281,6.49,12.748,0.041z"/>
</g>
<g id="Layer_1">
</g>
</svg>
