<?xml version="1.0" encoding="iso-8859-1"?>
<!-- Generator: Adobe Illustrator 19.2.0, SVG Export Plug-In . SVG Version: 6.00 Build 0)  -->
<svg version="1.1" xmlns="http://www.w3.org/2000/svg" xmlns:xlink="http://www.w3.org/1999/xlink" x="0px" y="0px"
	 viewBox="0 0 170.291 63.725" style="enable-background:new 0 0 170.291 63.725;" xml:space="preserve">
<g id="Alfieri_x5F_and_x5F_Lacroix">
	<path style="fill-rule:evenodd;clip-rule:evenodd;" d="M114.676,0.163c0.248,4.372,0.089,8.745,0.145,13.116
		c0.054,4.357-0.045,8.725,0,13.067c0.022,2.189,0.044,4.394-0.048,6.581c-0.089,2.131,0.075,4.265,0.048,6.39
		c-0.055,4.295-0.157,8.656,0.048,12.924c1.071,0.3,2.198,0.177,3.315,0.144c3.353-0.099,6.85,0.049,10.329,0.049
		c4.666-0.001,9.369,0,14.076,0c9.342-0.001,18.722-0.104,27.576,0.096c0.195,1.756,0.067,3.623,0.096,5.429
		c0.028,1.755,0.094,3.713-0.143,5.381c-32.144,0.23-64.358,0.045-97.142,0.048c-1.075,0-2.261,0.164-3.123,0
		c-0.705-0.135-1.54-1.328-2.066-1.873c-1.939-2.014-3.956-3.853-5.765-5.909c0.687-1.041,1.693-1.934,2.594-2.835
		c0.449-0.448,0.945-0.849,1.394-1.297c0.433-0.433,0.923-0.88,1.153-1.441c-3.638-0.312-7.413-0.097-11.146-0.096
		c-10.143,0-20.727-0.097-31.227-0.097c-0.981,0-2.064-0.154-2.835,0c-0.699,0.14-1.383,1.191-1.874,1.682
		c-0.634,0.634-1.214,1.182-1.778,1.729c-3.048,3.018-6.141,6.122-9.272,9.224c-0.319,0.317-1.024,1.219-1.345,1.25
		c-0.572,0.054-1.709-1.518-2.018-1.826C3.74,59.967,1.788,58.121,0,56.132c0.419-0.696,1.063-1.256,1.633-1.826
		c8.559-8.56,17.217-17.076,25.847-25.702c6.784-6.783,13.678-13.823,20.562-20.706c1.935-1.935,4.088-3.877,6.053-6.005
		c0.305-0.331,0.77-0.758,0.913-0.769c0.503-0.038,1.85,1.562,2.21,1.922c4.18,4.18,8.241,8.24,12.395,12.395
		c0.681,0.681,1.303,1.478,2.162,1.97c10.451,0.043,21.441,0.146,31.996-0.048c0.254-0.643,0.144-1.364,0.144-2.065
		c0-4.911-0.079-10.317,0.096-15.134C107.317-0.127,111.32,0.033,114.676,0.163z M52.125,19.428
		C46.6,24.953,41.179,30.375,35.743,35.81c-0.916,0.916-1.989,1.713-2.594,2.883c1.211,0.259,2.494,0.143,3.747,0.143
		c3.889,0,7.811,0.059,11.626,0.049c9.58-0.027,18.991,0.075,28.441-0.145c-0.098-0.502-0.586-0.786-0.913-1.105
		c-0.359-0.35-0.664-0.711-1.009-1.057c-4.81-4.81-9.552-9.647-14.316-14.46c-0.953-0.874-1.867-1.783-2.787-2.691
		c-0.923-0.911-1.746-1.949-2.834-2.69c-0.002-0.029-0.007-0.057-0.048-0.048C54.089,17.385,53.074,18.48,52.125,19.428z
		 M85.323,28.507c-0.826,0.039-1.753-0.138-2.45,0.145c0.309,0.629,0.806,0.95,1.345,1.489c0.263,0.263,1.049,1.347,1.489,1.346
		c0.224-0.001,0.623-0.432,0.816-0.625c0.554-0.554,0.955-0.954,1.441-1.441c0.231-0.23,0.577-0.484,0.577-0.816
		C87.6,28.376,86.438,28.456,85.323,28.507z M103.531,29.517c-2.512,2.432-4.962,4.957-7.447,7.351
		c-0.835,0.804-1.738,1.575-2.402,2.546c0.649,1.02,1.643,1.729,2.45,2.594c2.034,2.18,4.225,4.272,6.294,6.342
		c0.41,0.41,0.774,1.003,1.393,1.153c0.175-5.665,0.096-11.921,0.096-17.68c0-0.814,0.11-1.644-0.144-2.402
		c-0.032,0-0.064,0-0.096,0C103.618,29.444,103.566,29.472,103.531,29.517z M89.31,50.943c-0.758-0.812-1.536-1.632-2.354-2.449
		c-0.345-0.346-1.09-1.304-1.538-0.961c-0.877,0.672-1.522,1.523-2.306,2.306c-0.386,0.387-0.774,0.786-1.153,1.153
		c-0.379,0.367-0.925,0.692-1.009,1.249c2.934,0.158,6.531,0.161,9.464,0C90.258,51.654,89.702,51.364,89.31,50.943z"/>
</g>
<g id="Layer_1">
</g>
</svg>
