<?xml version="1.0" encoding="iso-8859-1"?>
<!-- Generator: Adobe Illustrator 19.2.0, SVG Export Plug-In . SVG Version: 6.00 Build 0)  -->
<svg version="1.1" xmlns="http://www.w3.org/2000/svg" xmlns:xlink="http://www.w3.org/1999/xlink" x="0px" y="0px"
	 viewBox="0 0 79.241 69.197" style="enable-background:new 0 0 79.241 69.197;" xml:space="preserve">
<g id="Alitalia">
	<path style="fill-rule:evenodd;clip-rule:evenodd;" d="M79.128,0.22c0.169,5.674,0.1,11.404,0.099,17.137
		c0,17.111-0.032,34.664-0.149,51.654c-0.045,0.021-0.089,0.043-0.1,0.1c-5.583,0.127-11.684,0.115-17.434-0.049
		c-0.271-1.186-0.149-2.408-0.149-3.627c0-18.348,0.18-37.582,0-55.578c-0.294-0.078-0.514,0.274-0.646,0.447
		c-1.158,1.525-2.282,3.254-3.427,4.867c-1.304,1.838-2.597,3.703-3.874,5.562c-1.287,1.875-2.516,3.795-3.825,5.662
		c-6.457,9.221-12.959,18.643-19.47,27.814c-2.958,4.326-6.006,8.553-9.04,13.014c-0.36,0.529-0.995,1.641-1.49,1.738
		c-0.724,0.143-1.589,0.029-2.434,0c-5.323-0.186-11.919,0.191-17.185-0.1c-0.06-0.49,0.351-0.889,0.596-1.242
		c0.264-0.381,0.502-0.771,0.795-1.092c0.476-0.781,0.985-1.531,1.539-2.236C16.034,44.865,29.975,25.021,43.466,5.537
		c1.007-1.455,1.932-2.803,3.377-3.727c1.384-0.883,3.451-1.586,5.513-1.738c2.207-0.162,4.522,0,6.755,0c5.651,0,11.13,0,16.788,0
		C76.977,0.072,78.076-0.041,79.128,0.22z"/>
	<path style="fill-rule:evenodd;clip-rule:evenodd;" d="M55.436,28.929c0.348,0.254,0.198,0.754,0.198,1.092
		c0,6.266,0,12.686,0,18.775c0,6.635,0.105,13.66-0.149,20.215c-8.687,0.094-18.748,0.123-27.665-0.049
		c-0.013-0.537,0.425-0.947,0.695-1.342c4.256-6.182,8.599-12.467,12.963-18.625c4.662-6.578,9.152-13.299,13.758-19.918
		C55.28,29.006,55.311,28.922,55.436,28.929z"/>
</g>
<g id="Layer_1">
</g>
</svg>
