<?xml version="1.0" encoding="iso-8859-1"?>
<!-- Generator: Adobe Illustrator 21.0.2, SVG Export Plug-In . SVG Version: 6.00 Build 0)  -->
<svg version="1.1" xmlns="http://www.w3.org/2000/svg" xmlns:xlink="http://www.w3.org/1999/xlink" x="0px" y="0px"
	 viewBox="0 0 61.899 55.565" style="enable-background:new 0 0 61.899 55.565;" xml:space="preserve">
<g id="Allegion">
	<path d="M19.706,0.019c5.683-0.014,11.368-0.027,17.05,0c-0.021,5.719,0.118,11.457-0.096,17.164
		c-5.676-0.018-11.354,0.022-17.028-0.017C19.687,11.453,19.698,5.736,19.706,0.019z"/>
	<path d="M38.878,0.034c9.144-0.48,17.442,8.146,16.889,17.14c-5.637,0.007-11.273,0.018-16.911-0.009
		C38.845,11.456,38.87,5.744,38.878,0.034z"/>
	<path d="M0.103,17.195C-0.14,7.992,8.239-0.172,17.39,0.003c0.184,5.703,0.017,11.439,0.025,17.174
		C11.645,17.2,5.873,17.197,0.103,17.195z"/>
	<path d="M0.091,19.24c5.759-0.103,11.545-0.07,17.319-0.073c0.024,5.72-0.021,11.445-0.015,17.167
		c-5.78,0.017-11.653,0.231-17.382-0.044C0.044,30.607-0.032,24.917,0.091,19.24z"/>
	<path d="M38.856,19.166c5.637-0.027,11.276-0.003,16.913-0.007c0.173,5.632-0.013,11.467,0.031,17.178
		c-5.653,0.03-11.308,0.005-16.963-0.002C38.687,30.63,38.884,24.889,38.856,19.166z"/>
	<path d="M0.005,38.525c5.786-0.003,11.554-0.172,17.3-0.039c0.186,5.678-0.031,11.388-0.032,17.076
		C8.183,55.747-0.24,47.713,0.005,38.525z"/>
	<path d="M19.573,38.503c5.623-0.105,11.378-0.122,17.003-0.015c0.454,9.091-8.014,17.289-17.071,17.069
		C19.481,49.856,19.61,44.205,19.573,38.503z"/>
	<path d="M38.829,38.491c5.602-0.163,11.309-0.035,16.951-0.056c-0.05,5.694,0.157,11.498-0.134,17.123
		C46.702,55.64,38.437,47.446,38.829,38.491z"/>
	<path d="M57.744,53.387c0.578-0.164,1.171,0.009,1.762-0.022c-0.007,0.063-0.02,0.188-0.027,0.25c-0.221,0.014-0.445,0-0.664,0.022
		c-0.069,0.633,0.017,1.272-0.054,1.904c-0.075-0.016-0.226-0.048-0.301-0.065c-0.022-0.612,0.03-1.227-0.01-1.838
		c-0.226-0.015-0.45-0.008-0.673-0.031C57.768,53.553,57.752,53.443,57.744,53.387z"/>
	<path d="M59.796,53.361c0.15-0.006,0.325-0.044,0.46,0.051c0.16,0.499,0.309,1.002,0.461,1.504
		c0.451-0.248,0.427-1.084,0.744-1.546c0.88,0,0.123,1.492,0.36,2.136c-0.066-0.005-0.198-0.015-0.265-0.02
		c-0.017-0.455,0.029-0.914-0.037-1.366c-0.324,0.368-0.36,0.893-0.568,1.326c-0.093,0.06-0.193,0.073-0.297,0.038
		c-0.226-0.442-0.255-0.979-0.578-1.367c-0.054,0.454-0.002,0.911-0.015,1.367c-0.11,0.01-0.217,0.007-0.322-0.01
		C59.759,54.773,59.675,54.045,59.796,53.361z"/>
</g>
<g id="Layer_1">
</g>
</svg>
