<?xml version="1.0" encoding="iso-8859-1"?>
<!-- Generator: Adobe Illustrator 19.2.0, SVG Export Plug-In . SVG Version: 6.00 Build 0)  -->
<svg version="1.1" xmlns="http://www.w3.org/2000/svg" xmlns:xlink="http://www.w3.org/1999/xlink" x="0px" y="0px"
	 viewBox="0 0 83.783 73.365" style="enable-background:new 0 0 83.783 73.365;" xml:space="preserve">
<g id="Alpha_x5F_Techno_x5F_Japan">
	<path style="fill-rule:evenodd;clip-rule:evenodd;" d="M41.475,0.002c0.04-0.009,0.045,0.019,0.048,0.048
		c0.653,0.552,1.02,1.39,1.445,2.168c1.688,2.967,3.474,5.89,5.154,8.863c1.68,2.976,3.335,5.965,5.058,8.912
		c3.451,5.903,6.775,11.871,10.212,17.774c3.435,5.901,6.846,11.806,10.309,17.679c1.732,2.938,3.34,5.946,5.106,8.863
		c1.542,2.548,2.972,5.146,4.479,7.756c0.198,0.343,0.577,0.711,0.482,1.156c-6.862,0.274-14.205,0.004-21.34,0.096
		c-1.136-1.327-1.755-2.984-2.649-4.479c-0.893-1.491-1.685-3.061-2.553-4.576c-1.294-2.257-2.616-4.479-3.95-6.744
		c-0.428-0.727-0.808-1.512-1.397-2.119c-0.675,0.569-1.012,1.428-1.444,2.167c-2.611,4.454-5.243,8.991-7.805,13.584
		c-0.417,0.749-0.788,1.556-1.396,2.168C27.442,73.444,13.814,73.3,0,73.125c0.138-0.887,0.741-1.597,1.155-2.36
		c4.569-8.425,9.475-16.654,14.21-25.097c0.854-1.521,1.731-3.044,2.602-4.576c2.575-4.531,5.02-9.21,7.707-13.728
		c1.805-3.032,3.443-6.164,5.203-9.104c3.622-6.053,6.755-12.315,10.405-18.209C41.382,0.07,41.409,0.017,41.475,0.002z
		 M50.289,52.363c-1.428-2.452-2.816-4.905-4.19-7.37c-0.904-1.622-1.811-3.288-2.794-4.913c-0.991-1.638-1.869-3.353-3.131-4.576
		c-1.99-1.928-4.887-3.464-8.912-3.228c-3.498,0.205-6.137,2.071-7.852,3.998c-1.117,1.255-2.031,3.098-2.408,5.058
		c-0.914,4.759,1.447,8.566,3.805,10.742c1.258,1.161,2.862,2.123,4.914,2.553c1.991,0.418,4.6,0.444,7.081,0.386
		c3.394-0.079,7.564-0.048,11.127-0.048c1.214,0,2.458,0.116,3.613-0.145C51.329,53.925,50.757,53.166,50.289,52.363z"/>
</g>
<g id="Layer_1">
</g>
</svg>
