<?xml version="1.0" encoding="iso-8859-1"?>
<!-- Generator: Adobe Illustrator 19.2.0, SVG Export Plug-In . SVG Version: 6.00 Build 0)  -->
<svg version="1.1" xmlns="http://www.w3.org/2000/svg" xmlns:xlink="http://www.w3.org/1999/xlink" x="0px" y="0px"
	 viewBox="0 0 73.353 74.666" style="enable-background:new 0 0 73.353 74.666;" xml:space="preserve">
<g id="Aluchrome_x5F_Corrosion_x5F_Treatment">
	<path style="fill-rule:evenodd;clip-rule:evenodd;" d="M73.16,47.566c-0.446,0.304-1.37,0.198-2.23,0.198
		c-0.981,0-2.023,0.111-2.479-0.248c-0.582-0.459-0.688-2.16-0.941-3.023c-0.916-3.119-2.73-5.242-5.057-6.741
		c-1.652-0.879-3.247-1.49-5.354-1.586c-2.208-0.102-4.08,0.363-5.75,1.14c-3.016,1.403-5.336,4.133-6.295,7.485
		c-0.487,1.7-0.376,4.301-0.942,5.948c-0.583,1.698-1.656,2.933-2.974,3.916c-1.326,0.989-3.463,1.718-5.305,1.487
		c-3.585-0.449-6.452-3.319-6.939-6.891c-0.16-1.17-0.06-2.224-0.248-3.222c-0.172-0.915-0.456-1.717-0.843-2.578
		c-1.438-3.204-3.815-5.423-7.237-6.543C14.344,34.872,8.78,38.42,6.588,42.411c-0.596,1.085-1.125,2.313-1.388,3.817
		c-0.154,0.885-0.188,1.493-0.991,1.784c-0.502,0.182-1.277,0.1-2.033,0.1c-0.734-0.001-1.516,0.097-1.982-0.149
		C-0.025,34.845,0.046,21.802,0.045,7.91c0-1.872-0.254-4.071,0.446-5.353c0.558-1.022,1.634-1.933,2.825-2.23
		c1.725-0.431,4.262-0.148,6.395-0.148c10.922,0,21.49-0.099,32.171-0.099c4.292-0.001,8.671,0.2,12.987,0
		c3.804-0.178,8.232,0,12.243,0c1.484,0,2.662-0.071,3.619,0.395c1.035,0.506,2.045,1.398,2.379,2.678
		c0.402,1.533,0.148,3.576,0.149,5.502c0.001,5.652-0.001,11.293,0,16.854C73.261,33.082,73.355,40.55,73.16,47.566z"/>
	<path style="fill-rule:evenodd;clip-rule:evenodd;" d="M73.11,56.489c0.324,1.49,0.199,3.31,0.199,5.105
		c-0.001,1.771-0.04,3.574,0,5.255c0.042,1.767,0.164,3.564-0.348,4.809c-0.506,1.229-1.727,2.281-3.123,2.626
		c-1.086,0.27-2.587,0.202-4.015,0.149c-1.383-0.052-2.82,0-4.114,0c-13.813,0.001-27.5,0.149-41.738,0.148
		c-4.121,0-8.355,0.05-12.541,0.05c-1.45,0-2.942,0.125-4.114-0.1c-1.473-0.282-2.834-1.421-3.123-2.775
		c-0.234-1.101-0.064-2.502-0.099-3.768c-0.065-2.451,0-5.055,0-7.534c-0.001-1.31-0.12-2.611,0.148-3.768
		c2.76-0.274,6.254,0.017,9.617-0.1c1.102-0.038,2.666,0.04,3.122-0.347c0.446-0.378,0.522-0.983,0.496-1.834
		c-0.023-0.746,0.075-1.532,0.05-2.181c-0.137-3.387-0.184-6.065,2.131-7.139c2.099-0.973,3.97,0.588,4.561,2.032
		c0.349,0.851,0.279,1.918,0.396,2.825c0.83,6.433,4.138,10.77,9.121,13.186c2.907,1.409,6.925,1.981,10.757,1.041
		c3.354-0.824,5.819-2.515,7.98-4.759c1.901-2.066,3.649-5.042,4.264-8.526c0.213-1.217,0.086-2.502,0.445-3.767
		c0.365-1.284,1.464-2.437,2.925-2.527c2.138-0.134,3.592,1.466,3.768,3.321c0.157,1.672,0.022,4.3,0,5.948
		c-0.017,1.199,0.238,1.946,1.041,2.329c0.694,0.332,1.946,0.198,2.925,0.198C66.885,56.39,70.322,56.31,73.11,56.489z"/>
</g>
<g id="Layer_1">
</g>
</svg>
