<?xml version="1.0" encoding="iso-8859-1"?>
<!-- Generator: Adobe Illustrator 19.2.0, SVG Export Plug-In . SVG Version: 6.00 Build 0)  -->
<svg version="1.1" xmlns="http://www.w3.org/2000/svg" xmlns:xlink="http://www.w3.org/1999/xlink" x="0px" y="0px"
	 viewBox="0 0 104.47 83.298" style="enable-background:new 0 0 104.47 83.298;" xml:space="preserve">
<g id="Amango_x5F_de">
	<path style="fill-rule:evenodd;clip-rule:evenodd;" d="M51.164,0.019c5.612-0.34,11.21,3.951,11.034,10.674
		c-0.173,6.596-5.455,10.708-11.753,10.194c-5.54-0.452-10.016-5.174-9.354-11.633c0.154-1.5,1.22-3.987,1.679-4.677
		C44.387,2.145,47.359,0.25,51.164,0.019z"/>
	<path style="fill-rule:evenodd;clip-rule:evenodd;" d="M103.574,20.527c0.102-0.022,0.113,0.047,0.12,0.12
		c0.685,1.038,0.338,2.367,0.36,3.478c0.271,13.688,0.64,31.648,0.24,45.453c-0.147,5.083,0.303,8.999-3.478,11.514
		c-3.098,2.06-9.378,1.439-14.752,1.439c-22.927,0-47.811-0.034-68,0.6c-4.023,0.126-7.936,0.44-11.034-0.36
		c-3.67-0.947-6.164-3.542-6.596-7.076c-0.556-4.544-0.038-9.558-0.24-14.152c-0.38-8.652,0.02-17.292-0.12-27.224
		c-0.044-3.154,0-6.561,0-10.074c0-0.748-0.385-2.722,0.6-2.878c1.015-0.161,1.623,3.474,1.919,4.317
		c5.716,16.294,18.584,27.582,35.979,32.381c6.398,1.765,14.775,1.9,22.787,1.08c5.496-0.563,10.683-2.832,14.992-5.037
		c11.716-5.997,21.119-16.43,25.665-29.503C102.489,23.242,102.707,21.533,103.574,20.527z"/>
</g>
<g id="Layer_1">
</g>
</svg>
