<?xml version="1.0" encoding="iso-8859-1"?>
<!-- Generator: Adobe Illustrator 19.2.0, SVG Export Plug-In . SVG Version: 6.00 Build 0)  -->
<svg version="1.1" xmlns="http://www.w3.org/2000/svg" xmlns:xlink="http://www.w3.org/1999/xlink" x="0px" y="0px"
	 viewBox="0 0 72.399 75.328" style="enable-background:new 0 0 72.399 75.328;" xml:space="preserve">
<g id="American_x5F_Can_x5F_Company">
	<path style="fill-rule:evenodd;clip-rule:evenodd;" d="M46.286,18.63c0.676,0.045,1.12-0.578,1.558-0.934
		c1.356-1.104,3.072-2.054,5.191-2.441c2.946-0.536,6.179-0.061,8.41,1.246c2.031,1.19,3.623,3.187,5.191,5.035
		c1.092,1.288,2.424,2.624,4.049,3.582c0.558,0.329,1.306,0.663,1.505,1.039c0.238,0.448,0.295,2.193,0.052,2.803
		c-0.23,0.578-0.812,0.649-1.35,1.09c-1.34,1.099-2.233,2.501-2.648,4.517c-0.547,2.657-0.224,6.174-0.363,9.24
		c-0.142,3.113-0.052,6.364-0.052,9.552c0,3.245-0.179,6.459-0.104,9.5c0.142,5.753-3.492,9.84-7.579,11.524
		c-2.402,0.99-5.466,1.264-8.15,0.519c-2.418-0.671-4.275-2.021-5.918-3.685c-0.597-0.458-0.697-1.716-1.454-1.765
		c-0.399-0.026-0.748,0.617-1.09,1.039c-0.957,1.176-2.038,2.158-3.27,2.959c-1.587,1.031-3.964,1.912-6.489,1.817
		c-4.508-0.169-7.615-2.092-9.76-4.828c-0.326-0.415-0.661-1.082-0.986-1.09c-0.722-0.019-0.758,1.146-1.35,1.402
		c-1.817,2.044-3.688,3.42-6.489,4.101c-6.807,1.654-11.739-2.115-13.912-6.437c-0.621-1.234-1.148-2.461-1.194-4.101
		c-0.19-6.815,0-14.189,0-21.181c0-1.816-0.137-3.608,0.104-5.191c0.238-1.561,0.723-2.827,1.35-3.945
		c1.585-2.827,3.797-4.846,7.268-5.97c0.627-0.203,1.731-0.277,2.024-0.727c0.345-0.529,0.156-2.259,0.156-3.27
		c0-6.58,0-13.362,0-20.35c0-1.047-0.203-2.755,0.156-3.271c0.213-0.307,0.881-0.339,1.401-0.363c2.167-0.103,4.403,0,6.593,0
		c4.28,0,8.766,0.052,13.03,0.052c2.088,0,3.804,0.612,5.243,1.298c2.882,1.372,5.306,3.555,6.853,6.281
		c0.779,1.374,1.477,3.008,1.713,4.828C46.215,14.353,46.18,16.354,46.286,18.63z M30.713,15.671
		c0.694,0.322,0.694,1.248,1.142,1.713c0.278,0.288,0.969,0.745,1.661,0.83c2.228,0.276,3.608-1.656,3.219-3.79
		c-0.401-2.195-2.113-4.052-3.997-4.672c-2.875-0.947-5.312,0.485-6.489,1.92c-0.772,0.941-1.361,2.3-1.401,3.842
		c-0.079,3.011,1.752,5.781,3.582,7.112c0.566,0.412,1.25,0.815,1.921,1.09c3.095,1.269,6.865,0.587,9.137-1.142
		c1.827-1.391,3.282-3.617,3.53-6.178c0.336-3.472-0.955-6.529-2.855-8.877c-1.906-1.844-4.163-3.845-7.735-4.101
		c-2.717-0.194-5.759-0.045-8.618-0.052c-1.404-0.003-2.91,0-4.413,0c-1.456,0-3.071-0.225-4.413,0
		c-1.094,0.184-0.778,1.653-0.778,3.062c0,6.258-0.052,11.858-0.052,18.118c0,0.998-0.078,2.441,0.208,2.855
		c0.272,0.395,1.212,0.436,1.765,0.623c1.57,0.533,2.829,1.288,3.945,2.128c0.351,0.264,0.647,0.795,1.246,0.727
		c0.358-0.505,0.208-1.177,0.208-1.765c0-1.989,0.069-3.964,0-5.97c-0.044-1.295,0.052-2.597,0.052-3.894
		c0-3.663,0.147-6.487,1.506-8.669c0.88-1.415,2.461-2.93,4.205-3.634c0.764-0.308,1.715-0.593,2.595-0.675
		c2.998-0.28,5.415,0.834,7.06,2.284c2.2,1.939,4.362,6.747,2.077,10.175c-0.955,1.431-2.873,2.85-5.243,2.751
		c-1.181-0.049-1.887-0.484-2.907-0.882c-1.412-1.081-2.881-2.378-2.803-4.776C28.579,15.462,30.032,15.356,30.713,15.671z
		 M65.286,24.911c-1.696-1.813-3.231-4.352-5.658-5.659c-1.169-0.629-2.84-1.154-4.672-0.986c-2.193,0.201-4.001,1.027-5.347,2.077
		c-2.066,1.611-3.641,4.429-3.375,7.891c0.383,4.975,4.145,8.229,9.033,8.565c0.034,0.002,0.069,0,0.104,0
		c5.527,0.034,7.697-4.115,10.486-6.904c0.823-0.823,1.795-1.444,2.492-2.336C67.415,26.59,66.297,25.804,65.286,24.911z
		 M24.95,24.289c-0.179,0.406-0.104,1.632-0.104,2.491c0,11.127-0.114,22.364,0,33.224c0.02,1.95-0.208,4.141,0.208,5.555
		c1.125,3.824,5.248,7.129,10.33,6.229c2.022-0.358,3.827-1.408,5.087-2.751c1.221-1.302,2.278-3.086,2.336-5.503
		c0.06-2.487,0-5.241,0-7.891c0-9.157,0-18.417,0-27.462c0-1.282,0.124-2.564-0.156-3.79c-0.382-0.098-0.692,0.269-0.934,0.467
		c-1.715,1.406-4.728,3.088-7.891,2.855c-2.807-0.207-5.064-1.052-6.904-2.284c-0.592-0.396-1.202-1.144-1.817-1.298
		C25.031,24.162,24.98,24.213,24.95,24.289z M6.002,33.269c-1.323,1.228-2.419,2.93-2.751,5.087
		c-0.304,1.978,0.141,4.361,0.727,5.606c1.94,4.125,7.487,6.456,12.303,4.205c2.061-0.963,4.141-2.957,4.88-5.658
		c0.752-2.746,0.211-5.392-1.038-7.371c-0.773-1.227-1.876-2.46-3.115-3.167c-1.165-0.665-3.127-1.237-4.88-1.142
		C9.515,30.971,7.352,32.017,6.002,33.269z M63.106,37.422c-1.425,1.068-3.076,1.866-5.139,2.284
		c-2.977,0.603-6.041-0.012-8.254-1.143c-1.151-0.597-2.018-1.477-3.115-2.128c-0.013-0.134-0.089,0.071-0.208,0
		c-0.279,2.165-0.156,4.437-0.156,6.749c0,4.61,0,9.33,0,13.913c0,2.37-0.2,4.767,0,6.956c0.276,3.016,2.308,5.443,4.36,6.644
		c1.15,0.673,2.446,1.165,3.894,1.298c3,0.276,5.426-0.828,7.164-2.388c1.76-1.579,2.818-3.844,3.011-6.593
		c0.155-2.206-0.069-4.475,0-6.697c0.207-6.591-0.052-13.221-0.104-19.779C63.939,36.506,63.538,37.098,63.106,37.422z
		 M3.251,52.113c0,3.375-0.072,6.924,0,9.916c0.028,1.179-0.076,2.179,0.104,3.114c0.628,3.262,3.222,5.701,6.334,6.489
		c5.006,1.269,9.285-1.628,10.85-4.88c0.383-0.795,0.624-1.488,0.779-2.388c0.224-1.3,0.052-2.881,0.052-4.361
		c0-3.234,0-6.311,0-9.552c0-0.63,0.155-1.916-0.571-1.454c-0.594,0.378-1.05,0.884-1.609,1.246
		c-1.697,1.097-3.793,2.003-6.489,2.076c-1.474,0.04-3.234-0.214-4.309-0.571c-1.209-0.402-2.39-1.02-3.374-1.713
		c-0.505-0.356-0.87-0.989-1.609-1.09C3.123,49.971,3.251,51.071,3.251,52.113z"/>
</g>
<g id="Layer_1">
</g>
</svg>
