<?xml version="1.0" encoding="iso-8859-1"?>
<!-- Generator: Adobe Illustrator 19.2.0, SVG Export Plug-In . SVG Version: 6.00 Build 0)  -->
<svg version="1.1" xmlns="http://www.w3.org/2000/svg" xmlns:xlink="http://www.w3.org/1999/xlink" x="0px" y="0px"
	 viewBox="0 0 79.754 73.394" style="enable-background:new 0 0 79.754 73.394;" xml:space="preserve">
<g id="American_x5F_Foundation_x5F_on_x5F_Automation_x5F_and_x5F_Employment">
	<path style="fill-rule:evenodd;clip-rule:evenodd;" d="M51.798,6.067c2.221-0.819,4.199-2.019,6.262-3.056
		c1.546-0.777,3.095-1.568,4.658-2.355c0.502-0.252,1.015-0.617,1.603-0.601c0.256,9.229,0.051,18.341,0.051,27.752
		c-0.001,1.296-0.138,2.74,0.05,3.958c0.096,0.624,0.671,1.447,1.052,2.204c0.374,0.745,0.678,1.56,1.002,2.204
		c1.835,3.653,3.347,7.054,5.159,10.721c2.507,5.07,5.007,9.997,7.515,15.179c0.247,0.511,0.646,1.156,0.602,1.453
		c-0.071,0.467-1.486,1.066-2.005,1.353c-4.356,2.408-8.426,4.729-12.774,7.114c-0.702,0.385-1.356,0.961-2.204,1.102
		c-2.765-4.951-5.324-10.039-7.966-15.079c-2.639-5.037-5.286-10.069-7.814-15.179c-0.003-7.955-0.001-16.795,0-25.248
		c0.001-1.937,0.051-3.962,0.051-6.162c0-0.979,0.136-2.017-0.851-1.653c-0.464,0.415-0.227,1.133-0.251,1.653
		c-0.418,8.872,0.308,19.003-0.2,27.703c-0.564-0.402-0.791-1.12-1.102-1.704c-3.501-6.562-6.781-13.477-10.319-20.087
		c-0.967-1.807-1.842-3.642-2.806-5.46c-0.31-0.586-0.484-1.294-1.052-1.704c-0.775,0.908-1.262,2.072-1.854,3.156
		c-0.597,1.093-1.045,2.247-1.602,3.356c-3.283,6.529-6.991,12.974-10.319,19.486c-0.092,0.269-0.264,0.693-0.552,0.602
		c-0.079-9.282-0.104-18.637,0.051-27.853c2.698-1.671,5.63-3.029,8.466-4.509c2.115-1.104,4.129-2.309,6.311-3.406
		c0.686-0.345,1.364-0.87,2.154-0.952c0.242,1.157,0.045,2.433,0.101,3.657c0.054,1.193-0.131,2.397,0.2,3.406
		c1.285-0.405,2.503-1.094,3.757-1.703c3.511-1.707,7.461-3.635,10.871-5.36c0.603-0.306,0.966,0.734,1.252,1.303
		c0.325,0.646,0.564,1.132,0.802,1.603C50.722,4.207,51.067,5.302,51.798,6.067z"/>
	<path style="fill-rule:evenodd;clip-rule:evenodd;" d="M30.457,12.429c0.034,0,0.067,0,0.101,0c1.696,3.169,3.47,6.558,5.159,9.919
		c0.243,0.482,0.594,1.119,0.601,1.503c0.012,0.587-0.503,1.251-0.751,1.803c-0.821,1.825-1.668,3.439-2.305,5.36
		c0.382,0.337,1.007,0.2,1.553,0.2c1.579,0,3.496,0.058,5.109,0.1c0.632,0.591,0.962,1.44,1.352,2.204
		c0.804,1.571,1.517,3.184,2.354,4.759c0.414,0.778,0.9,1.535,1.103,2.404c-0.469,0.268-1.038,0.14-1.553,0.15
		c-7.974,0.157-16.603-0.049-24.797,0c-0.808,0.005-1.572-0.017-2.354-0.15c0.319-1.281,1.099-2.367,1.652-3.557
		c0.549-1.178,1.221-2.328,1.804-3.507c1.149-2.323,2.374-4.662,3.607-7.013c1.167-2.225,2.358-4.666,3.607-7.013
		c0.895-1.681,1.724-3.57,2.655-5.31c0.32-0.6,0.561-1.302,0.951-1.753C30.344,12.482,30.398,12.453,30.457,12.429z"/>
	<path style="fill-rule:evenodd;clip-rule:evenodd;" d="M32.461,42.586c0.199,1.776,0.1,3.645,0.101,5.51
		c0.001,5.7,0.032,10.865-0.101,16.431c-1.274,0.893-2.717,1.489-4.107,2.204c-1.359,0.699-2.683,1.513-4.058,2.204
		c-2.096,1.054-4.196,2.078-6.313,3.156c-0.683,0.349-1.363,0.831-2.153,0.952c-0.122-7.687-0.2-15.613-0.051-22.943
		c0.051-2.498-0.162-5.05,0.15-7.514C21.214,42.424,27.326,42.412,32.461,42.586z"/>
	<path style="fill-rule:evenodd;clip-rule:evenodd;" d="M14.527,44.64c0.033,0,0.066,0,0.1,0c0.055,6.77,0.147,14.439-0.05,21.291
		c-0.462,0.521-1.155,0.749-1.753,1.052c-3.573,1.81-7.265,3.822-10.921,5.661c-0.601,0.302-1.218,0.7-1.903,0.751
		c2.203-4.883,4.772-9.572,7.163-14.327c2.4-4.774,4.657-9.601,7.214-14.277C14.405,44.718,14.455,44.668,14.527,44.64z"/>
	<path style="fill-rule:evenodd;clip-rule:evenodd;" d="M57.959,67.032c-0.738,0.743-1.745,1.121-2.654,1.604
		c-1.814,0.962-3.633,1.969-5.461,3.005c-0.898,0.51-1.785,1.119-2.805,1.403c-0.183-7.436-0.101-15.558-0.1-23.394
		c0-1.094-0.072-2.569,0.1-3.306c-0.037-0.082,0.099-0.218,0.1-0.1c0.033,0,0.067,0,0.101,0c1.852,3.428,3.654,6.877,5.41,10.37
		C54.392,60.079,56.343,63.464,57.959,67.032z"/>
</g>
<g id="Layer_1">
</g>
</svg>
