<?xml version="1.0" encoding="iso-8859-1"?>
<!-- Generator: Adobe Illustrator 19.2.0, SVG Export Plug-In . SVG Version: 6.00 Build 0)  -->
<svg version="1.1" xmlns="http://www.w3.org/2000/svg" xmlns:xlink="http://www.w3.org/1999/xlink" x="0px" y="0px"
	 viewBox="0 0 85.333 69.783" style="enable-background:new 0 0 85.333 69.783;" xml:space="preserve">
<g id="Amerika_x5F_Haus_x5F_Berlin">
	<path style="fill-rule:evenodd;clip-rule:evenodd;" d="M32.709,0.165c-0.389,1.547-1.178,2.934-1.763,4.406
		c-1.151,2.903-2.439,5.779-3.68,8.657c-0.632,1.466-1.104,2.987-1.711,4.457c-4.771,11.564-9.889,22.994-14.722,34.575
		c-2.11,5.058-4.309,10.108-6.376,15.188c-0.284,0.699-0.512,1.462-0.984,2.074C2.447,69.58,0.942,69.67,0,69.471
		c0.079-0.788,0.464-1.529,0.778-2.229c4.767-10.652,8.966-21.689,13.736-32.45c3.764-8.49,7.311-17.274,11.041-25.97
		c0.298-0.695,0.664-1.423,0.934-2.177c0.266-0.745,0.452-1.507,0.777-2.281c0.261-0.623,0.58-1.335,0.933-2.125
		c0.284-0.634,0.753-1.822,1.037-2.073c0.038-0.048,0.095-0.079,0.155-0.104C30.47,0.124,31.802-0.067,32.709,0.165z"/>
	<path style="fill-rule:evenodd;clip-rule:evenodd;" d="M40.381,0.165c-0.033,0.806-0.479,1.512-0.777,2.229
		c-3.902,9.351-7.942,18.747-11.922,28.147c-0.616,1.454-1.158,2.941-1.763,4.406c-3.596,8.714-7.381,17.319-10.989,26.022
		c-0.599,1.443-1.233,2.865-1.866,4.303c-0.621,1.41-1.085,2.913-1.866,4.25c-0.981,0.199-2.536,0.133-3.474-0.052
		c0.046-0.802,0.472-1.517,0.778-2.229c4.616-10.729,9.183-21.575,13.736-32.45c2.391-5.71,4.853-11.517,7.258-17.417
		c2.024-4.971,4.275-10.004,6.428-15.136c0.295-0.703,0.715-1.773,1.036-2.073c0.038-0.048,0.095-0.079,0.155-0.104
		C38.18,0.121,39.486-0.063,40.381,0.165z"/>
	<path style="fill-rule:evenodd;clip-rule:evenodd;" d="M47.846,0.165c-0.221,1.179-0.828,2.231-1.296,3.317
		c-4.121,9.57-8.154,19.341-12.285,28.977c-0.913,2.13-1.872,4.282-2.747,6.428c-1.779,4.36-3.859,8.616-5.34,13.011
		c-0.507,1.505-1.256,2.959-1.866,4.458c-1.214,2.982-2.564,5.879-3.783,8.864c-0.597,1.459-1.13,2.981-1.919,4.354
		c-0.928,0.108-2.493,0.117-3.473-0.052c0.035-0.804,0.473-1.522,0.777-2.229c2.149-4.987,4.335-10.117,6.428-15.188
		c2.398-5.808,4.832-11.616,7.257-17.417c3.631-8.683,7.297-17.323,11.042-25.97c1.244-2.875,2.288-5.829,3.732-8.605
		C45.407,0.056,46.896-0.033,47.846,0.165z"/>
	<path style="fill-rule:evenodd;clip-rule:evenodd;" d="M55.673,0.165c3.596,7.944,6.983,16.047,10.471,24.104
		c2.624,6.062,5.035,12.21,7.725,18.247c0.669,1.504,1.276,2.987,1.917,4.561c0.197,0.483,0.519,1,0.467,1.555
		c-11.337,0.148-23.637,0-35.715,0c-1.792,0-3.759-0.042-5.288,0.052c-0.609,0.98-1.098,2.081-1.399,3.369
		c0.865,0.282,1.799,0.156,2.695,0.156c13.836,0,27.907,0.072,41.366,0.208c0.598,0.94,1.091,1.984,1.399,3.214
		c-1.884,0.324-3.811,0.104-5.754,0.104c-13.663,0-27.82-0.132-41.21,0c-0.45,0.35-0.603,0.974-0.829,1.503
		c-0.232,0.541-0.525,1.098-0.622,1.71c0.944,0.362,2.014,0.208,3.006,0.208c15.627-0.001,31.931-0.004,47.017,0.208
		c0.412,0.403,0.54,1.036,0.777,1.606c0.217,0.523,0.645,1.063,0.57,1.659c-17.524,0.226-35.561-0.184-52.874,0
		c-0.669,0.972-1.136,2.147-1.503,3.421c1.07,0.303,2.216,0.132,3.317,0.156c8.177,0.178,16.574,0.052,24.778,0.052
		c9.476,0,18.97,0.065,27.939,0.208c0.47,0.338,0.585,1.008,0.829,1.555c0.238,0.532,0.646,1.101,0.571,1.711
		c-20.918,0.111-41.97,0.042-62.464-0.156c0.024-0.798,0.487-1.504,0.777-2.229c0.294-0.733,0.634-1.449,0.934-2.177
		c0.597-1.454,1.319-2.903,1.762-4.406c0.443-1.501,1.2-2.918,1.814-4.406C35.306,39.014,42.851,21.689,50.23,4.26
		c0.278-0.658,0.602-1.373,0.933-2.177c0.352-0.853,0.58-1.907,1.296-2.022C53.504-0.106,54.695,0.118,55.673,0.165z M42.092,32.355
		c-0.488,0.927-0.916,2.092-1.348,3.162c-0.864,2.142-1.803,4.211-2.695,6.272c-0.451,1.042-0.985,2.103-1.192,3.214
		c2.042,0.32,4.321,0.104,6.531,0.104c1.479,0,3.105,0.234,4.458-0.104c-0.197-1.125-0.774-2.176-1.244-3.266
		c-1.16-2.688-2.278-5.305-3.474-8.034c-0.218-0.499-0.482-1.457-0.881-1.503C42.173,32.229,42.121,32.281,42.092,32.355z"/>
</g>
<g id="Layer_1">
</g>
</svg>
