<?xml version="1.0" encoding="iso-8859-1"?>
<!-- Generator: Adobe Illustrator 19.2.0, SVG Export Plug-In . SVG Version: 6.00 Build 0)  -->
<svg version="1.1" xmlns="http://www.w3.org/2000/svg" xmlns:xlink="http://www.w3.org/1999/xlink" x="0px" y="0px"
	 viewBox="0 0 75.506 76.206" style="enable-background:new 0 0 75.506 76.206;" xml:space="preserve">
<g id="America_x5F_Institute_x5F_of_x5F_Interior_x5F_Designers">
	<path style="fill-rule:evenodd;clip-rule:evenodd;" d="M47.735,0c0.033,0,0.067,0,0.1,0c1.729,1.57,3.301,3.308,4.904,5.004
		c1.596,1.688,3.205,3.368,4.753,5.103c1.555,1.742,3.259,3.345,4.854,5.054c1.584,1.698,3.253,3.321,4.854,5.004
		c1.104,1.099,2.18,2.223,3.252,3.352c1.062,1.119,2.154,2.224,3.103,3.453c-3.919-3.437-7.557-7.154-11.309-10.758
		c-3.744-3.597-7.416-7.26-11.108-10.908c-0.717-0.799-1.497-1.51-2.351-2.352c-0.273-0.268-0.556-0.642-0.9-0.65
		c-0.707-0.016-1.324,1.099-1.802,1.551c-0.643,0.609-1.16,1.092-1.701,1.651c-1.06,1.158-2.085,2.351-3.152,3.502
		c-5.492,5.546-11.501,11.952-17.263,17.713c-0.37,0.37-0.791,0.752-1.251,1.251c-0.389,0.421-1.031,1.09-1.351,1.101
		c-0.464,0.016-1.39-0.795-1.401-1.301c-0.018-0.808,1.417-1.307,1.651-1.852c4.159-4.297,8.601-8.406,13.01-12.909
		c1.044-1.066,2.232-2.062,3.302-3.203c1.563-1.666,3.227-3.182,4.804-4.903c1.021-1.116,2.029-2.206,3.152-3.303
		C46.459,1.04,47.166,0.321,47.735,0z"/>
	<path style="fill-rule:evenodd;clip-rule:evenodd;" d="M27.22,1.051c0.085-0.018,0.094,0.039,0.1,0.1
		c-4.176,4.497-8.223,9.122-12.609,13.41C11.037,18.4,7.41,22.313,3.553,26.169c-0.424,0.424-1.44,1.262-1.451,1.801
		c-0.012,0.554,1.031,1.391,1.501,1.852c3.899,3.821,7.77,7.85,11.708,11.508c2.281,2.119,4.444,4.417,6.705,6.555
		c1.145,1.082,2.303,2.153,3.402,3.252c1.112,1.112,2.379,2.082,3.252,3.353c-0.286,0.489-0.702,1.384-1.301,1.401
		c-0.417,0.012-1.018-0.818-1.401-1.201c-3.91-3.91-7.788-7.838-11.659-11.709c-2.547-2.546-5.158-5.301-7.755-7.755
		c-1.021-1.273-2.171-2.293-3.352-3.553c-0.507-0.54-0.967-1.204-1.601-1.851C1.16,29.371,0.016,28.601,0,27.971
		c-0.015-0.588,1.14-1.34,1.601-1.801c0.658-0.658,1.067-1.218,1.601-1.752c3.333-3.333,7.059-6.692,10.258-9.957
		C18.176,10.121,22.55,5.437,27.22,1.051z"/>
	<path style="fill-rule:evenodd;clip-rule:evenodd;" d="M31.123,1.151c0.089-0.014,0.103,0.047,0.05,0.05
		c-0.652,0.964-1.53,1.743-2.302,2.602c-5.33,5.933-11.1,11.631-16.612,17.463c-1.047,1.122-2.139,2.198-3.202,3.303
		C8.507,25.1,8.103,25.635,7.506,26.27c-0.314,0.333-1.48,1.083-1.501,1.701c-0.018,0.515,1.047,1.347,1.401,1.701
		c3.523,3.523,7.405,7.261,10.858,10.608c2.108,1.985,4.112,3.957,6.255,6.054c1.479,1.448,3.068,2.984,4.703,4.503
		c0.407,0.377,1.438,1.21,1.451,1.602c0.017,0.476-0.829,1.241-1.201,1.25c-0.539,0.014-1.308-1.057-1.751-1.501
		c-1.634-1.634-3.276-3.213-4.803-4.803c-5.314-5.532-10.81-10.563-16.012-16.162c-0.511-0.55-1.111-1.046-1.601-1.601
		c-0.501-0.567-1.166-1.032-1.451-1.751c0.265-0.809,1.036-1.236,1.601-1.801c1.651-1.651,3.42-3.27,5.104-4.954
		c1.122-1.122,2.227-2.272,3.402-3.352c3.48-3.199,6.804-6.554,10.208-9.958c1.103-1.103,2.332-2.129,3.452-3.252
		C28.783,3.388,29.892,2.156,31.123,1.151z"/>
	<path style="fill-rule:evenodd;clip-rule:evenodd;" d="M38.879,1.601c0.043-0.009,0.047,0.02,0.05,0.05
		c-0.01,0.041-0.05,0.05-0.05,0.1C32.78,8.249,26.696,14.885,20.315,21.266c-1.501,1.502-2.989,3.25-4.654,4.854
		c-0.435,0.419-1.445,1.258-1.451,1.701c-0.005,0.4,0.614,0.882,1,1.251c1.074,1.024,2.48,2.36,3.403,3.352
		c1.497,1.611,3.114,2.964,4.553,4.403c3.056,3.056,6.144,5.804,9.107,8.807c0.314,0.422,0.829,0.798,1.301,1.251
		c0.404,0.388,1.129,0.93,1.151,1.401c0.025,0.533-0.781,1.362-1.301,1.351c-0.484-0.011-1.084-0.833-1.501-1.251
		c-1.361-1.361-2.655-2.841-3.953-4.153c-4.505-4.535-9.047-9.033-13.41-13.71c-0.516-0.384-0.909-0.892-1.351-1.351
		c-0.43-0.446-0.994-0.852-1.201-1.501c0.941-1.254,2.154-2.254,3.252-3.353c1.101-1.101,2.301-2.101,3.402-3.202
		c2.193-2.193,4.415-4.358,6.705-6.455c4.452-4.338,8.83-8.75,13.41-12.959C38.791,1.647,38.878,1.668,38.879,1.601z"/>
	<path style="fill-rule:evenodd;clip-rule:evenodd;" d="M34.526,1.801c-0.346,0.655-0.968,1.1-1.451,1.651
		C31.633,5.1,30.058,6.73,28.521,8.356c-2.055,2.174-4.086,4.39-6.205,6.455c-3.046,3.292-6.19,6.486-9.307,9.707
		c-0.773,0.762-1.451,1.583-2.302,2.452c-0.263,0.268-0.683,0.519-0.7,0.85c-0.022,0.419,0.898,1.249,1.251,1.602
		c1.397,1.397,2.908,2.758,4.303,4.153c3.86,3.86,7.672,7.372,11.458,11.158c1.36,1.359,2.86,2.718,4.353,4.153
		c0.391,0.375,1.28,1.142,1.301,1.501c0.029,0.506-0.911,1.4-1.301,1.401c-0.382,0-1.066-0.765-1.451-1.151
		c-2.305-2.305-4.23-4.43-6.405-6.605c-4.295-4.295-8.544-8.597-12.859-13.01c-0.304-0.483-0.921-0.942-1.451-1.501
		c-0.43-0.453-1.301-1.063-1.301-1.651c0-0.575,1.074-1.274,1.551-1.752c0.606-0.606,1.139-1.139,1.651-1.651
		c3.27-3.27,6.675-6.426,9.957-9.708c1.088-1.087,2.213-2.165,3.353-3.202c3.383-3.081,6.54-6.677,10.007-9.657
		C34.438,1.847,34.525,1.868,34.526,1.801z"/>
	<path style="fill-rule:evenodd;clip-rule:evenodd;" d="M42.131,2.251c0.057,0.01,0.028,0.051,0,0.05
		c-1.737,2.352-4.052,4.209-5.954,6.455c-1.864,2.201-3.956,4.262-6.004,6.355c-3.502,3.577-7.071,7.299-10.658,11.008
		c-0.404,0.418-1.384,1.218-1.401,1.651c-0.015,0.385,0.688,0.943,1.051,1.301c5.49,5.424,10.992,10.608,16.462,15.962
		c0.332,0.325,1.03,0.947,1.051,1.251c0.034,0.508-0.811,1.291-1.201,1.301c-0.467,0.011-1.102-0.896-1.351-1.151
		c-2.82-2.889-5.82-5.87-8.556-8.606c-2.455-2.455-4.757-4.907-7.306-7.455c-0.349-0.349-0.721-0.804-1.201-1.251
		c-0.366-0.341-1.126-0.816-1.151-1.301c-0.018-0.348,0.346-0.719,0.65-1c1.966-1.814,3.847-3.711,5.754-5.504
		c6.59-6.286,13.015-12.738,19.664-18.964C42.018,2.305,42.072,2.276,42.131,2.251z"/>
	<path style="fill-rule:evenodd;clip-rule:evenodd;" d="M73.654,31.023c-4.045-3.306-7.479-7.237-11.309-10.758
		c-3.827-3.518-7.439-7.28-11.208-10.858c-0.488-0.563-1.062-1.04-1.551-1.602c-0.668-0.308-0.908-1.409-1.701-1.451
		c-0.619-0.033-1.251,0.95-1.701,1.401c-1.524,1.524-3.064,3.399-4.403,4.803c-1.465,1.629-3.14,3.022-4.603,4.653
		c-1.429,1.593-3.075,3.026-4.553,4.654c-2.489,2.74-5.205,5.405-7.956,8.156c-0.397,0.398-0.881,1.034-1.251,1.051
		c-0.514,0.024-1.256-0.836-1.251-1.25c0.005-0.401,0.861-1.111,1.251-1.501c3.198-3.198,6.386-6.286,9.557-9.457
		c3.173-3.172,6.5-6.223,9.607-9.456c0.448-0.466,0.762-1.029,1.201-1.502c1.213-1.304,2.622-2.482,3.853-3.653
		c0.567-0.35,1.449,0.949,1.952,1.451c1.682,1.682,3.185,3.362,4.803,5.104c1.067,1.148,2.239,2.198,3.252,3.352
		c1.024,1.165,2.135,2.285,3.203,3.353c2.223,2.223,4.344,4.496,6.455,6.705C69.471,26.49,71.703,28.691,73.654,31.023z"/>
	<path style="fill-rule:evenodd;clip-rule:evenodd;" d="M47.835,8.256c0.043-0.009,0.047,0.02,0.05,0.05
		c0.705,0.293,1.108,0.982,1.601,1.501c3.458,3.643,7.084,7.301,10.608,10.958c2.011,2.088,3.954,4.255,6.004,6.305
		c1.026,1.026,1.976,2.127,3.002,3.152c1.02,1.019,2.121,2.004,2.952,3.203c-1.1-0.828-2.081-1.833-3.102-2.802
		c-2.983-2.831-5.855-5.811-8.907-8.706c-1.943-1.845-3.975-3.765-6.004-5.754c-1.424-1.396-2.916-2.823-4.503-4.303
		c-0.451-0.421-1.078-1.298-1.602-1.301c-0.778-0.005-0.941,1.019-1.601,1.251c-3.253,3.67-6.816,6.994-10.308,10.808
		c-2.879,3.145-6.101,6.048-9.157,9.307c-0.367,0.392-1.037,1.191-1.401,1.201c-0.431,0.012-1.337-0.847-1.351-1.351
		c-0.015-0.526,0.862-1.116,1.351-1.601c5.372-5.329,11.001-10.643,16.312-16.012c1.42-1.435,2.957-2.88,4.403-4.403
		C46.718,9.195,47.286,8.503,47.835,8.256z"/>
	<path style="fill-rule:evenodd;clip-rule:evenodd;" d="M73.204,38.679c-0.634-0.329-1.139-0.876-1.651-1.351
		c-5.818-5.405-11.409-11.023-17.163-16.662c-1.489-1.46-3.112-2.963-4.703-4.554c-0.43-0.43-1.246-1.335-1.702-1.351
		c-0.445-0.016-1.044,0.795-1.401,1.151c-3.003,3.002-5.85,6.199-8.756,9.106c-3.022,3.022-5.763,5.914-8.857,9.006
		C28.597,34.4,28,35.214,27.62,35.226c-0.513,0.016-1.34-0.938-1.351-1.351c-0.013-0.496,0.75-1.05,1.201-1.502
		c3.174-3.173,6.395-6.145,9.407-9.156c1.747-1.746,3.59-3.476,5.404-5.254c0.877-0.859,1.707-1.807,2.602-2.702
		c0.43-0.43,0.955-0.804,1.401-1.251c0.469-0.469,0.868-0.988,1.401-1.301c0.738-0.39,1.496,0.835,2.001,1.351
		c3.612,3.69,7.624,7.823,11.008,11.458C64.882,29.888,69.087,34.239,73.204,38.679z"/>
	<path style="fill-rule:evenodd;clip-rule:evenodd;" d="M49.687,17.914c3.953,4.136,7.919,8.259,11.859,12.409
		c1.975,2.081,4.007,4.092,5.904,6.255c1.399,1.596,2.984,3.084,4.503,4.603c0.497,0.496,1.124,0.925,1.401,1.601
		c-3.809-3.413-7.497-6.947-11.108-10.558c-3.603-3.602-7.359-7.051-10.958-10.658c-0.473-0.45-1.016-0.916-1.601-1.501
		c-0.341-0.341-1.079-1.39-1.651-1.401c-0.371-0.007-0.95,0.647-1.301,1.051c-1.097,1.262-2.454,2.271-3.403,3.502
		c-0.676,0.878-1.502,1.612-2.251,2.402c-2.257,2.378-4.667,4.69-6.855,7.005c-1.071,1.133-2.218,2.212-3.403,3.502
		c-0.308,0.336-0.939,1.041-1.251,1.051c-0.551,0.019-1.068-0.773-1.251-1.301c0.124-0.608,0.704-0.954,1.101-1.351
		c4.356-4.355,8.963-8.763,13.41-13.209c0.771-0.771,1.594-1.645,2.401-2.452c0.358-0.357,0.848-0.744,1.251-1.151
		c0.365-0.368,0.991-1.369,1.451-1.301C48.655,16.518,49.119,17.527,49.687,17.914z"/>
	<path style="fill-rule:evenodd;clip-rule:evenodd;" d="M47.935,75.105c4.018-4.689,8.506-8.907,12.709-13.41
		c3.657-3.871,7.488-7.604,11.208-11.609c0.402-0.432,1.486-1.271,1.501-1.751c0.017-0.512-1.102-1.353-1.551-1.801
		c-3.864-3.864-7.956-7.655-11.759-11.459c-2.201-2.201-4.465-4.403-6.705-6.555c-1.135-1.091-2.301-2.151-3.402-3.252
		c-1.112-1.112-2.355-2.105-3.202-3.402c0.188-0.432,0.809-1.423,1.301-1.351c0.563,0.083,1.155,0.905,1.651,1.401
		c7.433,7.432,15.245,15.494,22.517,22.767c0.497,0.481,1.125,1.049,1.751,1.701c0.351,0.365,1.527,1.333,1.551,1.851
		c0.024,0.536-1.112,1.383-1.551,1.852c-0.616,0.656-1.178,1.178-1.702,1.701c-1.141,1.141-2.346,2.287-3.453,3.353
		c-2.364,2.277-4.7,4.5-6.905,6.705c-2.289,2.289-4.675,4.445-6.905,6.705c-0.562,0.569-1.209,1.063-1.801,1.601
		c-0.59,0.536-1.112,1.158-1.701,1.701C50.298,72.951,49.196,74.133,47.935,75.105z"/>
	<path style="fill-rule:evenodd;clip-rule:evenodd;" d="M43.882,75.205c0.891-1.249,2.004-2.355,3.102-3.453
		c3.25-3.25,6.416-6.542,9.657-9.957c3.647-3.842,7.498-7.665,11.208-11.658c0.395-0.425,1.48-1.292,1.501-1.752
		c0.024-0.521-1.062-1.374-1.401-1.701c-1.599-1.541-3.072-2.928-4.653-4.503c-2.079-2.007-4.159-4.014-6.205-6.055
		c-2.128-1.958-4.118-4.055-6.205-6.054c-1.095-0.94-2.109-1.96-3.102-3.002c-0.986-1.034-2.281-1.808-3.003-3.102
		c0.138-0.531,0.552-1.166,1.001-1.251c0.806-0.152,1.3,1.121,1.851,1.451c7.544,7.402,14.924,15.144,22.517,22.667
		c0.498,0.493,1.395,1.151,1.401,1.601c0.007,0.521-1.145,1.344-1.602,1.801c-3.981,3.981-8.142,7.742-12.108,11.708
		C53.237,66.551,48.653,70.913,43.882,75.205z"/>
	<path style="fill-rule:evenodd;clip-rule:evenodd;" d="M61.695,42.381c1.461,1.485,2.92,2.957,4.403,4.453
		c0.478,0.482,1.047,0.969,1.351,1.601c-0.235,0.762-0.93,1.271-1.501,1.751c-0.588,0.495-1.106,1.083-1.651,1.601
		c-3.306,3.138-6.651,6.351-9.908,9.607c-3.25,3.251-6.654,6.324-9.957,9.557c-1.096,1.073-2.057,2.28-3.302,3.203
		c0.449-0.855,1.399-1.683,2.151-2.452c0.393-0.402,0.659-0.909,1.051-1.301c5.021-5.021,10.062-10.309,15.011-15.461
		c0.979-1.106,2.02-2.149,3.052-3.202c1.019-1.04,2.149-2.004,2.952-3.252c-0.756-1.08-1.762-1.993-2.752-2.902
		c-0.959-0.881-1.865-1.865-2.802-2.802c-4.649-4.649-9.504-9.054-14.261-13.81c-0.421-0.421-0.868-0.868-1.401-1.401
		c-0.411-0.411-1.236-1.094-1.251-1.551c-0.019-0.574,0.625-0.889,0.901-1.301c0.508-0.348,1.013,0.467,1.451,0.901
		C50.704,31.031,56.41,37.044,61.695,42.381z"/>
	<path style="fill-rule:evenodd;clip-rule:evenodd;" d="M35.777,75.255c4.124-4.547,8.46-8.887,12.709-13.31
		c3.184-3.314,6.291-6.69,9.557-9.957c1.08-1.08,2.173-2.201,3.052-3.453c-0.65-1.018-1.61-1.81-2.452-2.652
		c-2.516-2.516-5.19-4.971-7.706-7.556c-1.374-1.178-2.677-2.427-3.953-3.703c-1.275-1.275-2.605-2.5-3.753-3.903
		c-0.374-0.358-0.812-0.797-1.301-1.251c-0.412-0.382-1.134-0.867-1.151-1.351c-0.009-0.278,0.902-1.441,1.301-1.351
		c0.914,0.208,1.157,1.109,1.751,1.751c0.388,0.418,0.883,0.775,1.301,1.201c2.764,2.819,5.638,5.984,8.507,8.757
		c2.824,2.847,5.63,5.836,8.506,8.806c0.417,0.431,1.094,0.89,1.101,1.351c0.006,0.389-0.668,0.968-1.051,1.351
		c-1.211,1.212-2.554,2.327-3.703,3.453c-1.668,1.635-3.219,3.275-4.803,4.753c-2.446,2.281-4.867,4.666-7.255,7.055
		c-0.811,0.81-1.743,1.47-2.502,2.252c-0.333,0.343-0.551,0.771-0.9,1.101c-0.343,0.324-0.695,0.626-1.051,0.951
		C39.96,71.392,37.952,73.585,35.777,75.255z"/>
	<path style="fill-rule:evenodd;clip-rule:evenodd;" d="M52.689,55.341c-6.76,6.6-13.436,13.284-20.415,19.665
		c0.024-0.396,0.408-0.634,0.651-0.901c1.745-1.919,3.639-3.839,5.504-5.704c2.118-2.118,4.159-4.323,6.254-6.605
		c1.999-2.177,4.204-4.198,6.355-6.505c1.542-1.653,3.042-3.242,4.703-4.903c0.419-0.419,1.451-1.325,1.451-1.752
		c0-0.562-1.165-1.415-1.651-1.901c-3.603-3.603-7.201-6.9-10.808-10.508c-0.61-0.609-1.107-1.254-1.651-1.851
		c-0.938-1.031-2.106-2.088-3.252-3.152c-0.34-0.316-0.946-0.812-0.951-1.151c-0.004-0.283,0.826-1.336,1.201-1.251
		c0.64,0.145,1.162,0.889,1.501,1.251c0.48,0.512,1.004,0.93,1.401,1.351c0.347,0.368,0.549,0.835,0.901,1.201
		c4.432,4.613,9.033,8.992,13.56,13.76c0.298,0.314,0.636,0.659,1.05,1.051c0.312,0.294,0.896,0.946,0.901,1.201
		c0.009,0.496-1.228,1.496-1.551,1.801C56.038,52.143,54.514,53.635,52.689,55.341z"/>
	<path style="fill-rule:evenodd;clip-rule:evenodd;" d="M2.502,34.325c0.957,0.785,2.105,1.905,3.152,2.952
		c1.017,1.017,2.185,1.931,3.103,2.902c1.902,2.012,4.054,4.016,6.104,5.954c3.001,2.838,6.111,5.934,9.257,8.856
		c0.46,0.428,0.91,0.964,1.501,1.501c0.444,0.403,1.266,1.331,1.651,1.351c0.502,0.026,0.991-0.665,1.301-1.001
		c0.42-0.455,0.832-0.877,1.151-1.151c2.217-2.386,4.531-4.676,6.805-7.005c1.997-2.254,4.605-4.557,6.755-7.055
		c0.304-0.354,0.633-0.829,1.051-1.251c0.265-0.268,0.953-0.983,1.251-1.001c0.629-0.038,1.088,0.69,1.301,1.201
		c-0.432,1.203-1.601,1.668-2.302,2.602c-4.745,5.012-9.767,9.748-14.661,14.611c-0.33,0.347-0.73,0.78-1.201,1.251
		c-0.316,0.316-0.887,1.045-1.351,1.051c-0.492,0.006-1.27-1.02-1.701-1.451c-1.6-1.6-3.043-3.292-4.604-4.854
		c-2.153-2.153-4.256-4.282-6.205-6.404c-4.119-4.488-8.56-8.501-12.309-12.91C2.493,34.467,2.509,34.384,2.502,34.325z"/>
	<path style="fill-rule:evenodd;clip-rule:evenodd;" d="M3.002,38.729c0.043-0.009,0.047,0.019,0.05,0.05
		c2.784,2.391,5.422,4.927,8.056,7.505c4.312,4.22,8.769,8.478,13.11,12.759c0.58,0.384,0.926,0.924,1.501,1.451
		c0.409,0.375,1.142,1.301,1.651,1.301c0.498,0,1.078-0.827,1.401-1.15c0.501-0.501,0.837-0.869,1.251-1.301
		c2.471-2.616,5.022-5.152,7.456-7.806c1.698-1.61,3.226-3.287,5.054-5.154c0.783-0.8,1.486-1.815,2.402-2.702
		c0.377-0.366,0.778-0.698,1.301-1.251c0.38-0.402,0.857-1.135,1.351-1.151c0.604-0.019,1.386,0.874,1.401,1.251
		c0.024,0.583-0.79,1.081-1.201,1.501c-1.388,1.421-2.812,2.663-4.053,4.053c-1.758,1.97-3.612,3.568-5.404,5.354
		c-3.149,3.122-6.303,6.245-9.507,9.357c-0.446,0.433-0.832,1.001-1.451,1.201c-0.767-0.179-1.167-0.939-1.651-1.451
		c-3.467-3.668-7.034-7.362-10.608-11.008c-1.014-1.034-2.005-2.103-3.052-3.152c-1.023-1.026-1.982-2.133-3.002-3.152
		C6.954,43.131,4.853,40.971,3.002,38.729z"/>
	<path style="fill-rule:evenodd;clip-rule:evenodd;" d="M49.736,43.282c0.502,0.103,1.341,0.891,1.351,1.351
		c0.013,0.581-0.797,1.148-1.301,1.651c-1.497,1.496-2.975,3.029-4.453,4.403c-1.03,0.956-1.875,2.067-2.902,3.002
		c-1.025,0.934-1.961,1.932-2.952,2.902c-2.061,2.017-3.846,3.89-5.904,5.904c-1.404,1.374-2.917,2.89-4.503,4.353
		c-0.436,0.402-1.18,1.334-1.551,1.351c-0.773,0.036-1.062-1.095-1.601-1.451c-3.8-3.723-7.347-7.698-11.108-11.459
		c-0.939-0.939-1.87-1.907-2.752-2.902c-0.877-0.989-1.917-1.867-2.852-2.802c-0.942-0.942-1.81-1.96-2.752-2.902
		c-0.934-0.934-1.895-1.89-2.602-3.002c7.485,6.842,14.659,13.996,21.916,21.065c0.673,0.258,0.82,1.224,1.601,1.251
		c0.549,0.02,1.128-0.827,1.551-1.251c1.386-1.386,2.921-3.014,4.153-4.253c2.561-2.847,5.45-5.499,8.256-8.556
		c1.269-1.382,2.613-2.896,4.053-4.354c0.627-0.635,1.408-1.339,2.102-2.101C48.195,44.704,48.951,43.703,49.736,43.282z"/>
	<path style="fill-rule:evenodd;clip-rule:evenodd;" d="M53.089,46.584c-0.825,1.271-1.992,2.292-3.052,3.352
		c-1.604,1.604-3.229,3.129-4.854,4.754c-0.534,0.534-1.116,1.066-1.551,1.651c-0.906,1.219-2.122,2.154-3.152,3.252
		c-2.062,2.199-4.273,4.274-6.405,6.405c-1.597,1.597-3.239,3.139-4.853,4.754c-0.524,0.524-1.005,1.199-1.751,1.451
		c-0.797-0.27-1.053-1.083-1.702-1.501c-0.436-0.632-1.088-1.046-1.551-1.651c-5.327-5.347-10.467-10.882-15.762-16.262
		c-1.572-1.625-3.088-3.288-4.704-4.904c-0.524-0.524-1.092-1.082-1.451-1.751c1.687,1.37,3.233,2.913,4.804,4.404
		c4.686,4.447,9.304,9.064,14.01,13.559c1.363,1.377,3.11,2.99,4.704,4.504c0.405,0.385,1.134,1.383,1.651,1.401
		c0.594,0.021,1.313-0.99,1.701-1.351c0.598-0.556,0.972-1.072,1.501-1.551c3.271-3.483,6.862-6.886,10.508-10.858
		c2.503-2.727,5.093-5.494,7.806-8.207c0.768-0.768,1.866-2.308,2.702-2.652C52.191,45.176,52.924,46.042,53.089,46.584z"/>
	<path style="fill-rule:evenodd;clip-rule:evenodd;" d="M53.739,47.335c0.543-0.042,1.489,0.875,1.501,1.301
		c0.016,0.522-0.965,1.207-1.401,1.651c-2.538,2.592-4.956,5.056-7.505,7.605c-2.055,2.055-3.934,3.984-6.004,6.055
		c-2.983,2.983-6.13,6.033-9.107,8.957c-0.781,0.758-1.636,1.722-2.552,2.602c-0.23,0.221-0.714,0.696-1.001,0.7
		c-0.368,0.005-0.971-0.71-1.301-1.051c-5.705-5.89-11.79-12.099-17.363-17.913c-1.752-1.838-3.604-3.698-5.354-5.604
		c-0.225-0.245-0.598-0.472-0.6-0.851c0.875,0.602,1.631,1.373,2.401,2.102c5.32,5.029,10.568,10.331,15.912,15.411
		c1.457,1.3,2.988,2.935,4.553,4.403c0.372,0.349,1.102,1.291,1.651,1.301c0.635,0.012,1.38-1.129,1.751-1.551
		c0.574-0.653,1.152-1.064,1.651-1.651c1.083-1.103,2.18-2.19,3.252-3.303C40.815,60.863,47.03,53.853,53.739,47.335z"/>
	<path style="fill-rule:evenodd;clip-rule:evenodd;" d="M40.73,74.455c0.078,0.196-0.217,0.449-0.45,0.5
		C40.341,74.699,40.596,74.638,40.73,74.455z"/>
	<path style="fill-rule:evenodd;clip-rule:evenodd;" d="M47.685,75.406c-0.016,0.117-0.155,0.112-0.2,0.2
		C47.36,75.541,47.538,75.363,47.685,75.406z"/>
</g>
<g id="Layer_1">
</g>
</svg>
