<?xml version="1.0" encoding="iso-8859-1"?>
<!-- Generator: Adobe Illustrator 19.2.0, SVG Export Plug-In . SVG Version: 6.00 Build 0)  -->
<svg version="1.1" xmlns="http://www.w3.org/2000/svg" xmlns:xlink="http://www.w3.org/1999/xlink" x="0px" y="0px"
	 viewBox="0 0 74.797 59.982" style="enable-background:new 0 0 74.797 59.982;" xml:space="preserve">
<g id="Amfac">
	<path style="fill-rule:evenodd;clip-rule:evenodd;" d="M37.082,0.02c5.113-0.274,9.362,2.37,11.81,5.098
		c1.317,1.468,2.343,3.286,3.381,5.047c3.17,5.375,6.13,10.627,9.387,15.948c3.393,5.543,6.205,10.563,9.438,15.898
		c1.065,1.757,2.258,3.532,3.028,5.4c0.898,2.18,0.888,4.96,0,7.016c-1.185,2.742-3.904,4.875-7.318,5.35
		c-1.195,0.166-2.594,0.101-4.088,0.101c-16.396,0-32.795,0.101-49.914,0.101c-2.891,0-5.768,0.097-7.671-0.757
		c-3.298-1.48-6.487-6.282-4.543-11.255c0.351-0.897,0.916-1.854,1.464-2.775c0.533-0.896,0.955-1.871,1.463-2.725
		c3.215-5.405,6.043-10.359,9.387-15.948c1.045-1.747,2.197-3.444,3.129-5.3c0.93-1.85,2.077-3.628,3.079-5.35
		c0.97-1.665,1.985-3.537,3.079-5.35c1.063-1.762,2.025-3.577,3.381-5.047c1.956-2.119,4.371-4.003,7.773-4.896
		C34.54,0.262,35.844,0.087,37.082,0.02z M32.641,6.278c-1.327,0.606-2.364,1.322-3.23,2.171c-1.835,1.798-3.098,4.261-4.34,6.41
		c-1.338,2.315-2.646,4.571-3.937,6.813c-1.321,2.295-2.722,4.477-4.038,6.763c-3.273,5.687-6.61,11.279-10.044,16.857
		c-0.715,1.162-1.484,2.261-1.867,3.533c-0.991,3.293,1.294,5.791,4.038,6.258c2.394,0.407,5.135,0.202,7.772,0.202
		c7.924,0,16.385,0,24.074,0c4.964,0,10.3,0.05,15.747,0.05c2.704,0,5.651,0.194,7.974-0.101c2.335-0.296,3.908-1.715,4.492-3.633
		c0.869-2.857-1.451-5.326-2.422-7.016c-1.251-2.175-2.515-4.208-3.685-6.207c-1.308-2.237-2.325-4.128-3.583-6.258
		c-2.464-4.171-5.032-8.237-7.318-12.416c-1.127-2.06-2.335-4.183-3.583-6.309c-0.611-1.042-1.197-2.043-1.867-3.028
		c-1.379-2.025-2.936-3.452-5.451-4.441c-1.279-0.503-2.932-0.721-4.29-0.656C35.477,5.345,33.969,5.673,32.641,6.278z"/>
	<path style="fill-rule:evenodd;clip-rule:evenodd;" d="M59.137,47.31c-0.829,0.401-1.949,0.157-3.028,0.151
		c-3.053-0.017-6.493,0.157-9.589,0c-0.624-0.368-0.897-1.113-1.262-1.716c-0.371-0.612-0.798-1.246-1.009-1.968
		c-4.373-7.679-9.128-15.02-13.476-22.762c-0.609-1.085-1.424-2.115-1.817-3.331c0.891-0.265,1.885-0.151,2.877-0.151
		c3.297,0,7.271-0.05,10.295,0.05c1.127,1.261,1.78,2.885,2.574,4.492c1.061,2.148,2.438,4.196,3.634,6.309
		c3.267,5.768,6.743,11.494,10.043,17.311C58.664,46.195,59.065,46.712,59.137,47.31z"/>
	<path style="fill-rule:evenodd;clip-rule:evenodd;" d="M32.489,32.724c-0.514,0.275-1.32,0.151-2.069,0.151
		c-2.082,0.001-4.549,0.082-6.511-0.101c0.117-0.73,0.604-1.326,0.959-1.917c1.059-1.766,2.092-3.67,3.231-5.4
		c0.037-0.047,0.091-0.077,0.151-0.101c0.033,0,0.067,0,0.101,0c1.12,1.764,2.187,3.626,3.23,5.501
		C31.914,31.455,32.427,32.011,32.489,32.724z"/>
	<path style="fill-rule:evenodd;clip-rule:evenodd;" d="M34.205,36.964c-0.222,1.003-0.946,1.806-1.463,2.675
		c-0.527,0.885-1.05,1.782-1.564,2.675c-1.03,1.787-2.056,3.605-3.281,5.198c-4.173-0.078-8.707,0.151-12.567-0.101
		c0.283-1.008,0.963-1.846,1.464-2.725c0.998-1.754,1.968-3.536,3.028-5.299c0.513-0.853,0.948-1.781,1.666-2.473
		C25.56,36.846,30.09,36.769,34.205,36.964z"/>
</g>
<g id="Layer_1">
</g>
</svg>
