<?xml version="1.0" encoding="iso-8859-1"?>
<!-- Generator: Adobe Illustrator 19.2.0, SVG Export Plug-In . SVG Version: 6.00 Build 0)  -->
<svg version="1.1" xmlns="http://www.w3.org/2000/svg" xmlns:xlink="http://www.w3.org/1999/xlink" x="0px" y="0px"
	 viewBox="0 0 73.503 83.101" style="enable-background:new 0 0 73.503 83.101;" xml:space="preserve">
<g id="Amitalia_x5F_Fund_x5F_Company">
	<path style="fill-rule:evenodd;clip-rule:evenodd;" d="M73.229,0.183c0.218,3.9,0.236,8.739,0.053,12.838
		c-1.239,0.25-2.59,0.104-3.95,0.104c-2.704,0.001-5.368-0.032-8.056,0.052c-1.316,0.042-2.637,0.079-3.846-0.155
		c-0.172-4.04-0.175-8.799,0-12.838C62.335-0.023,68.341-0.096,73.229,0.183z"/>
	<path style="fill-rule:evenodd;clip-rule:evenodd;" d="M56.753,0.183c0.068,0.504-0.26,0.991-0.467,1.403
		c-3.273,6.512-6.427,13.3-9.667,19.854c-3.034,6.139-6.055,12.327-8.991,18.555c-0.405,0.858-0.928,1.742-1.092,2.702
		c0.748,0.313,1.611,0.156,2.442,0.156c6.101-0.001,12.255,0.019,18.243-0.156c0.28-0.959,0.155-2.011,0.155-3.015
		c0.001-7.289-0.05-14.79,0.053-21.672c1.249-0.279,2.606-0.156,3.949-0.156c4.024,0,8.012-0.1,11.85,0.104
		c0.281,1.312,0.156,2.67,0.156,4.001c0,6.628,0.053,13.479,0.052,20.166c-0.001,13.37,0.181,26.834-0.052,40.643
		c-5.002,0.171-10.744,0.173-15.8,0c-0.357-8.579,0.055-16.934-0.26-25.935c-1.102-0.279-2.294-0.156-3.43-0.156
		c-8.107-0.001-16.447,0.145-24.115,0.104c-0.043,0.01-0.053,0.052-0.104,0.052c-0.473,0.395-0.633,1.03-0.884,1.56
		c-0.262,0.553-0.574,1.066-0.831,1.61c-0.527,1.117-0.903,2.28-1.455,3.378c-3.221,6.408-6.198,13.148-9.511,19.542
		c-0.061-0.009-0.093,0.012-0.104,0.052c-2.758,0.095-5.678,0.052-8.575,0.053C5.47,83.027,2.52,83.25,0,82.923
		c0.2-0.962,0.733-1.83,1.143-2.702C8.83,63.873,17.089,47.586,24.79,31.158c0.821-1.751,1.688-3.447,2.392-5.249
		c0.341-0.873,0.828-1.728,1.247-2.599c3.68-7.659,7.549-15.403,11.33-23.076c0.06,0.01,0.093-0.011,0.104-0.052
		C45.632,0.146,51.144-0.034,56.753,0.183z"/>
</g>
<g id="Layer_1">
</g>
</svg>
