<?xml version="1.0" encoding="iso-8859-1"?>
<!-- Generator: Adobe Illustrator 21.0.2, SVG Export Plug-In . SVG Version: 6.00 Build 0)  -->
<svg version="1.1" xmlns="http://www.w3.org/2000/svg" xmlns:xlink="http://www.w3.org/1999/xlink" x="0px" y="0px"
	 viewBox="0 0 13.994 23.91" style="enable-background:new 0 0 13.994 23.91;" xml:space="preserve">
<g id="Amnesty">
	<path d="M4.666,3.084C5.692,1.937,7.234,1.33,8.075,0c0.675,0.688,1.419,1.324,1.97,2.124c0.127,0.184,0.234,0.383,0.324,0.587
		c0.178,0.391,0.205,0.849,0.024,1.244c-0.038,0.072-0.074,0.145-0.108,0.218C9.899,4.812,9.279,5.253,8.8,5.815
		c-0.211,0.223-0.393,0.47-0.566,0.724c-0.18,0.268-0.317,0.561-0.453,0.853c-0.036,0.091-0.07,0.182-0.109,0.271
		C7.641,7.761,7.609,7.858,7.592,7.96c0.794,0.004,1.588,0.001,2.382,0c0.226,0.002,0.467,0.093,0.586,0.296
		c0.038,0.152,0.025,0.311-0.021,0.461c-0.137,0.467-0.287,0.93-0.423,1.397c0.043,0.193,0.193,0.353,0.286,0.529
		c0.029-0.096,0.062-0.19,0.098-0.282c0.075-0.003,0.151-0.003,0.227-0.003c0.026,0.117,0.057,0.232,0.091,0.347
		c0.176,0.019,0.274-0.142,0.395-0.237c0.051,0.023,0.103,0.045,0.154,0.068c-0.025,0.067-0.053,0.134-0.081,0.201
		c0.139,0.028,0.279,0.051,0.421,0.071c0.143,0.035,0.285,0.069,0.429,0.102c0.607,0.17,1.286,0.448,1.554,1.068
		c0.103-0.065,0.211-0.07,0.305,0.017c-0.084,0.125-0.181,0.24-0.272,0.359c0.081,0.087,0.157,0.178,0.239,0.265
		c-0.005,0.067-0.009,0.135-0.014,0.202c-0.124-0.001-0.239-0.044-0.352-0.09c-0.168,0.345-0.453,0.614-0.738,0.862
		c-0.53,0.414-1.189,0.615-1.837,0.757c0.092,0.091,0.189,0.177,0.26,0.286c0.04,0.112-0.099,0.165-0.168,0.218
		c-0.13-0.105-0.259-0.211-0.384-0.322c-0.085,0.121-0.175,0.238-0.269,0.353c-0.062-0.043-0.125-0.087-0.185-0.132
		c0.049-0.094,0.104-0.184,0.161-0.274c-0.166,0.015-0.332,0.038-0.495,0.074C9.933,15.3,9.96,16.046,9.92,16.791
		c0,1.075,0,2.15,0.012,3.225c0.101,0.003,0.201,0.005,0.303,0.007c0.003-0.066,0.008-0.13,0.016-0.194
		c0.061-0.115,0.204-0.067,0.309-0.081c0.004,0.076,0.008,0.152,0.012,0.229c0.71-0.153,1.441-0.193,2.153-0.344
		c-0.004-0.029-0.009-0.086-0.012-0.114c-0.014-0.031-0.041-0.094-0.056-0.125c0.091-0.053,0.19-0.089,0.287-0.134
		c0.052,0.114,0.099,0.232,0.173,0.335c0.027-0.008,0.084-0.024,0.111-0.031c0.062-0.042,0.116-0.091,0.174-0.137
		c0.194,0,0.389,0,0.583,0.01c-0.066,0.167-0.235,0.247-0.38,0.334c-0.067,0.026-0.135,0.049-0.198,0.081
		c0.06,0.107,0.136,0.203,0.203,0.306c-0.046,0.07-0.105,0.13-0.157,0.195c-0.094-0.072-0.189-0.144-0.278-0.224
		c-0.056,0-0.111,0-0.167,0c-0.068,0.073-0.136,0.148-0.209,0.218c-0.069-0.007-0.133-0.04-0.198-0.059
		c-0.011-0.048-0.021-0.096-0.032-0.144c-0.489,0.108-0.976,0.225-1.466,0.325c0.002,0.027,0.006,0.081,0.008,0.108
		c0.119,0.097-0.021,0.174-0.074,0.253c-0.146-0.094-0.296-0.181-0.452-0.253c-0.087,0.078-0.165,0.167-0.261,0.235
		c-0.064-0.026-0.128-0.054-0.189-0.084c0.001-0.045,0.003-0.136,0.004-0.182c-0.068,0.025-0.177,0.008-0.206,0.093
		c-0.004,1.09,0.004,2.182-0.004,3.273c-0.439-0.094-0.873-0.214-1.315-0.292c-0.02-0.009-0.058-0.026-0.077-0.035
		c-1.091-0.215-2.169-0.499-3.258-0.72C5.258,22.856,5.22,22.838,5.2,22.83c-0.596-0.105-1.181-0.268-1.775-0.382
		c-0.005-0.634,0-1.267,0.004-1.9c-0.166-0.085-0.326-0.181-0.5-0.247c-0.12,0.09-0.225,0.201-0.336,0.303
		c-0.052-0.049-0.104-0.098-0.154-0.146c0.08-0.128,0.165-0.255,0.245-0.385c-0.819-0.258-1.574-0.705-2.222-1.266
		c-0.099,0.107-0.199,0.213-0.3,0.319C0.106,19.072,0.049,19.021,0,18.962c0.048-0.09,0.103-0.174,0.163-0.256
		c0.157-0.182,0.024-0.405-0.029-0.599c-0.074-0.355-0.105-0.724,0-1.078c0.027-0.068,0.051-0.138,0.079-0.205
		c0.027-0.058,0.056-0.115,0.083-0.173c0.206-0.335,0.525-0.583,0.87-0.763c0.111-0.046,0.224-0.091,0.335-0.137
		c0.052-0.02,0.104-0.038,0.156-0.054c0.15-0.064,0.326-0.061,0.461-0.155c-0.013-0.064-0.037-0.126-0.053-0.189
		c0.041-0.036,0.084-0.067,0.129-0.095c0.203-0.149,0.178,0.323,0.377,0.147c0.275-0.066,0.558-0.104,0.838-0.128
		c0.006-1.219,0.009-2.438,0.012-3.656c0.017-0.118-0.071-0.258-0.202-0.211c-0.093,0.082-0.176,0.172-0.263,0.259
		c-0.061-0.036-0.124-0.071-0.184-0.106c0.05-0.089,0.093-0.182,0.133-0.276c-0.372,0.073-0.74,0.156-1.095,0.292
		c-0.063,0.032-0.128,0.062-0.188,0.1c0,0.106,0.107,0.163,0.156,0.247c-0.052,0.049-0.111,0.09-0.174,0.125
		c-0.082,0.021-0.146-0.056-0.211-0.089c-0.088-0.053-0.171-0.111-0.268-0.143c-0.1,0.21-0.282,0.378-0.517,0.412
		c0-0.122-0.007-0.246,0.024-0.364c0.091-0.142,0.223-0.248,0.348-0.358c-0.052-0.12-0.113-0.235-0.156-0.357
		c0.066-0.05,0.14-0.091,0.215-0.127c0.081,0.095,0.157,0.196,0.24,0.291c0.114-0.04,0.224-0.09,0.332-0.141
		c0.052-0.019,0.104-0.037,0.156-0.055c0.379-0.139,0.782-0.171,1.172-0.264c-0.035-0.06-0.071-0.12-0.105-0.179
		c0.058-0.033,0.115-0.066,0.174-0.099c0.161-0.117,0.185,0.14,0.254,0.237c0.037,0,0.11,0,0.148,0
		c0.011-0.953,0.001-1.907,0.005-2.86c1.084,0.01,2.168,0.011,3.253-0.001C6.559,7.753,6.347,7.648,6.193,7.489
		c-0.667-0.597-1.516-1.041-1.96-1.85C3.789,4.81,4.054,3.755,4.666,3.084z M7.712,1.175C7.317,1.573,6.863,1.915,6.524,2.364
		C6.007,3.019,5.762,3.839,5.628,4.651c-0.1,0.584-0.057,1.219,0.265,1.731C6.18,6.84,6.628,7.162,6.924,7.613
		c0.063,0.104,0.121,0.212,0.179,0.319C7.175,7.81,7.237,7.681,7.298,7.553c0.167-0.338,0.32-0.681,0.483-1.02
		c0.038-0.073,0.073-0.146,0.109-0.22c0.014-0.026,0.04-0.08,0.054-0.106C8.119,5.854,8.278,5.493,8.45,5.139
		c0.015-0.027,0.042-0.081,0.056-0.107c0.117-0.229,0.207-0.471,0.323-0.7c0.094-0.196,0.17-0.4,0.271-0.593
		C9.253,3.372,9.299,2.974,9.275,2.58C9.209,1.801,8.874,1.013,8.24,0.528C8.072,0.75,7.91,0.979,7.712,1.175z M4.375,8.823
		c0,1.849,0,3.697,0,5.545c0.002,0.243-0.033,0.487,0.009,0.727c0.684-0.139,1.381-0.214,2.061-0.366
		c-0.012-0.041-0.035-0.124-0.046-0.165c0.083-0.045,0.168-0.087,0.252-0.13c0.013,0.02,0.038,0.06,0.051,0.08
		c0.004,0.041,0.012,0.124,0.015,0.166c0.717-0.094,1.431-0.205,2.147-0.297C8.856,12.53,8.877,10.676,8.85,8.823
		C7.357,8.822,5.866,8.823,4.375,8.823z M11.342,11.178c-0.019,0.09-0.036,0.181-0.052,0.271c-0.112-0.051-0.225-0.101-0.338-0.149
		c-0.186-0.121-0.343,0.101-0.506,0.166c-0.067,0.395-0.131,0.793-0.251,1.176c-0.031,0.109-0.08,0.226-0.035,0.339
		c0.085,0.255,0.125,0.524,0.091,0.792c-0.02,0.137-0.101,0.309,0.028,0.414c0.044-0.021,0.131-0.064,0.175-0.085
		c-0.023-0.09-0.051-0.178-0.079-0.265c0.087-0.028,0.173-0.057,0.259-0.088c0.068,0.097,0.118,0.209,0.204,0.293
		C10.947,14,11.045,13.925,11.16,13.9c0.125,0.01,0.253,0.028,0.375-0.013c0.58-0.147,1.145-0.444,1.524-0.917
		c0.066-0.078-0.052-0.147-0.083-0.214c0.13-0.171,0.25-0.382,0.187-0.605c-0.099-0.268-0.36-0.421-0.602-0.545
		C12.172,11.421,11.756,11.296,11.342,11.178z M7.188,15.12c0.037,0.1,0.081,0.196,0.133,0.29c-0.019,0.094-0.091,0.186-0.195,0.182
		c-0.124-0.086-0.233-0.192-0.351-0.287c-0.105,0.095-0.18,0.23-0.306,0.297c-0.205,0.004-0.127-0.221-0.107-0.345
		c-0.665,0.117-1.33,0.24-1.997,0.345c0.001,1.186,0,2.372,0,3.558c0.011,0.849-0.021,1.699,0.016,2.547
		c1.424,0.335,2.854,0.644,4.276,0.98c0.072,0.022,0.148,0.022,0.224,0.027c-0.005-2.618-0.015-5.236-0.017-7.855
		C8.311,14.985,7.752,15.078,7.188,15.12z M2.795,15.884c0.056,0.071,0.113,0.14,0.172,0.208c-0.044,0.066-0.088,0.133-0.133,0.199
		c-0.09-0.066-0.183-0.129-0.267-0.2c-0.066-0.001-0.131-0.001-0.196-0.002c-0.057,0.073-0.113,0.145-0.169,0.217
		c-0.056-0.001-0.109-0.001-0.164-0.003c-0.027-0.063-0.055-0.127-0.083-0.189c-0.08,0.02-0.161,0.04-0.24,0.065
		c-0.075,0.026-0.15,0.055-0.225,0.083c-0.335,0.141-0.646,0.353-0.846,0.663c-0.026,0.051-0.054,0.103-0.081,0.154
		c-0.095,0.26-0.095,0.561-0.023,0.825c0.006,0.024,0.017,0.073,0.023,0.097c0.038,0.077,0.071,0.156,0.105,0.236
		c0.093-0.049,0.192-0.098,0.302-0.069c-0.056,0.117-0.114,0.231-0.173,0.345c0.438,0.518,1.045,0.872,1.7,1.042
		c0.095-0.043,0.189-0.086,0.286-0.127c0.08,0.124,0.182,0.232,0.302,0.317c0.115-0.037,0.229-0.078,0.341-0.123
		c0.001-1.275,0.002-2.55,0-3.825C3.211,15.772,2.993,15.795,2.795,15.884z"/>
</g>
<g id="Layer_1">
</g>
</svg>
