<?xml version="1.0" encoding="iso-8859-1"?>
<!-- Generator: Adobe Illustrator 19.2.0, SVG Export Plug-In . SVG Version: 6.00 Build 0)  -->
<svg version="1.1" xmlns="http://www.w3.org/2000/svg" xmlns:xlink="http://www.w3.org/1999/xlink" x="0px" y="0px"
	 viewBox="0 0 70.5 72.267" style="enable-background:new 0 0 70.5 72.267;" xml:space="preserve">
<g id="Ando_x5F_Sekimen_x5F_Kogyo">
	<path style="fill-rule:evenodd;clip-rule:evenodd;" d="M49.704,10.148c2.254,4.388,5.376,7.854,9.824,10.227
		c2.305,1.23,4.903,1.918,6.65,3.375c1.845,1.539,3.194,3.423,3.779,6.247c0.595,2.876,0.654,6.36,0.403,9.32
		c-0.27,3.188-0.986,5.669-2.519,7.507c-1.623,1.945-3.536,2.86-6.096,3.93c-2.325,0.97-4.36,2.283-6.197,3.828
		c-2.207,2.084-4.267,4.606-5.643,7.759c-0.71,1.627-1.163,3.312-2.015,4.685c-0.873,1.407-1.778,2.541-3.224,3.426
		c-2.719,1.664-7.146,2.023-11.436,1.713c-2.229-0.161-4.054-0.341-5.693-1.008c-1.584-0.644-2.771-1.615-3.778-2.871
		c-1.552-1.613-2.072-3.901-2.972-5.945c-1.786-4.051-4.725-7.267-8.212-9.622c-0.882-0.596-1.866-1.168-2.872-1.612
		c-0.989-0.438-2.089-0.731-3.174-1.26c-1.968-0.957-3.474-2.497-4.584-4.332c-1.163-1.922-1.587-4.332-1.814-7.104
		c-0.474-5.798,0.272-11.337,3.376-14.207c1.21-1.183,2.671-1.886,4.232-2.47c6.186-2.312,11.13-7.027,13.451-13.3
		c0.612-1.654,1.238-3.132,2.267-4.383c1.061-1.29,2.36-2.141,3.879-2.821c1.563-0.7,3.604-1.024,5.693-1.158
		c4.57-0.293,8.759,0.286,11.436,1.964C47.254,3.786,48.483,6.678,49.704,10.148z M57.563,21.735
		c-2.996-1.797-5.539-4.368-7.557-7.204c-0.993-1.394-1.895-3.073-2.57-4.786c-0.384-0.976-0.578-1.895-1.007-2.67
		c-1.255-2.261-3.496-4.06-6.499-4.534c-2.035-0.321-4.523-0.467-7.104-0.302c-3.468,0.222-5.564,0.929-7.406,2.771
		c-1.604,1.604-2.324,4.257-3.476,6.549c-2.793,5.555-7.127,9.579-13.048,11.94c-1.263,0.504-2.43,0.949-3.275,1.713
		c-1.014,0.917-1.71,1.609-2.267,2.721c-1.584,3.16-1.515,9.312-0.856,13.3c0.352,2.131,1.189,3.829,2.469,5.038
		c0.43,0.406,0.917,0.897,1.36,1.159c0.883,0.521,1.908,0.847,2.821,1.209c6.886,2.733,11.265,7.5,14.056,14.308
		c0.83,2.025,1.574,3.667,3.123,4.937c0.799,0.655,1.515,1.188,2.519,1.512c2.895,0.93,8.013,0.921,11.134,0.453
		c3.391-0.508,5.726-2.447,6.953-5.189c0.41-0.915,0.595-1.955,1.058-2.972c2.486-5.46,6.478-9.869,11.889-12.444
		c1.986-0.945,3.875-1.549,5.34-2.771c1.458-1.216,2.44-2.878,2.872-5.24c0.434-2.377,0.416-5.012,0.302-7.506
		c-0.111-2.446-0.49-4.549-1.713-6.398C64.671,24.083,60.564,23.536,57.563,21.735z"/>
	<path style="fill-rule:evenodd;clip-rule:evenodd;" d="M34.59,7.025c3.61-0.282,6.244,1.816,7.305,3.829
		c3.016,5.72-1.337,12.147-7.305,11.688c-2.023-0.156-3.822-1.273-5.038-2.62c-1.138-1.259-2.041-2.878-2.066-5.188
		c-0.024-2.294,0.935-4.038,2.066-5.29C30.729,8.14,32.291,7.205,34.59,7.025z"/>
	<path style="fill-rule:evenodd;clip-rule:evenodd;" d="M33.079,29.846c0.224,0.84,0.201,1.877,0.201,3.023
		c0,1.01-0.302,2.692,0.454,3.073c0.521,0.262,1.539,0.101,2.418,0.101c0.895,0,1.839,0.096,2.116-0.354
		c0.157-0.339,0.08-1.009,0.1-1.561c0.046-1.238-0.325-3.972,0.353-4.383c0.324-0.196,1.536-0.26,1.965,0
		c0.545,0.331,0.365,1.894,0.353,2.671c-0.014,0.848-0.049,2.136-0.05,2.871c-0.002,1.089,0.388,2.797-0.353,3.274
		c-0.922,0.595-2.724-0.231-3.275,0.605c-0.531,0.807,0.25,2.446-0.403,3.224c-0.584,0.322-1.81,0.485-2.217-0.05
		c-0.513-0.676,0.072-2.556-0.353-3.225c-0.558-0.88-2.999,0.1-3.577-0.856c-0.417-0.691-0.151-3.309-0.151-4.333
		c0-0.766,0-1.554,0-2.267c0-0.716-0.152-1.498,0.302-1.915C31.588,29.612,32.656,29.491,33.079,29.846z"/>
	<path style="fill-rule:evenodd;clip-rule:evenodd;" d="M50.46,42.391c-0.514-0.88,0.184-2.972-0.655-3.526
		c-0.732-0.216-1.405-0.151-2.167-0.151c-0.662,0-1.647-0.144-2.065,0.201c-0.756,0.623,0.028,2.775-0.554,3.427
		c-0.387,0.432-1.872,0.438-2.217,0c-0.359-0.457-0.168-2.633-0.201-3.427c-0.098-2.312,0.101-4.209,0-6.448
		c-0.045-0.985-0.238-2.068,0.302-2.721c2.481-0.238,5.213-0.102,8.01-0.101c0.594,0,1.409-0.055,1.663,0.151
		c0.533,0.432,0.251,3.741,0.251,4.735c0.001,1.72,0,3.471,0,4.887c0,0.899,0.315,2.457-0.201,2.973
		C52.235,42.782,50.844,42.739,50.46,42.391z M45.371,35.69c0.339,0.499,1.346,0.354,2.167,0.354c0.69,0,1.968,0.125,2.368-0.202
		c0.383-0.312,0.494-2.692,0.151-3.224c-0.33-0.513-3.031-0.594-4.081-0.352c-0.303,0.069-0.457,0.149-0.655,0.402
		C45.438,33.621,44.934,35.046,45.371,35.69z"/>
	<path style="fill-rule:evenodd;clip-rule:evenodd;" d="M13.934,32.315c-0.597-0.168-1.445-0.101-2.317-0.101
		c-0.732,0-1.803-0.196-2.216,0.202c-0.295,0.282-0.253,1.611-0.253,2.367c0,1.879,0.051,3.265,0.051,5.139
		c0,0.823,0.122,2.014-0.151,2.419c-0.311,0.461-1.575,0.521-2.166,0.101c-0.352-1.13-0.201-2.556-0.201-3.93
		c0-2.023-0.016-3.774,0-5.743c0.007-0.923-0.219-2.45,0.151-2.872c0.237-0.27,1.277-0.25,1.612-0.252
		c1.776-0.013,3.971-0.001,6.247,0c0.719,0,1.644-0.058,1.915,0.151c0.562,0.435,0.302,2.945,0.302,3.879
		c0,1.372,0.091,2.794-0.05,4.03c-0.455,1.151-3.134,0.081-3.325,1.26c-0.261,1.613,2.304,0.63,3.073,1.158
		c0.439,0.302,0.626,1.99-0.05,2.419c-0.396,0.25-1.801,0.15-2.771,0.151c-0.974,0-2.231,0.144-2.62-0.252
		c-0.425-0.434-0.262-2.326-0.302-3.175c-0.039-0.821-0.25-2.77,0.151-3.324c0.509-0.706,2.448,0.104,3.123-0.655
		C14.651,34.709,14.381,32.786,13.934,32.315z"/>
	<path style="fill-rule:evenodd;clip-rule:evenodd;" d="M28.696,29.796c0.38,0.883,0.302,2.015,0.302,3.073c0,2.185,0,3.96,0,6.448
		c0,1.047,0.155,2.667-0.251,3.073c-0.341,0.341-1.579,0.252-2.419,0.252c-2.102,0.001-3.219,0.02-5.088,0
		c-0.768-0.008-1.896,0.202-2.317-0.201c-0.431-0.414-0.252-2.15-0.252-3.124c0-2.301-0.101-4.189-0.101-6.549
		c0-1.097-0.206-2.29,0.302-3.023c1.356-0.174,3.413-0.102,5.239-0.101C25.746,29.646,27.375,29.526,28.696,29.796z M26.328,36.245
		c-0.044-0.89,0.299-3.077-0.151-3.728c-0.324-0.47-1.278-0.375-1.764-0.353c-1.087,0.05-2.562-0.142-3.073,0.402
		c-0.272,1.452-0.101,2.727-0.101,4.433c0,0.767-0.152,2.123,0.151,2.569c0.493,0.726,2.196,0.36,3.274,0.302
		c0.491-0.025,1.011,0.067,1.36-0.1C26.594,39.077,26.391,37.522,26.328,36.245z"/>
	<path style="fill-rule:evenodd;clip-rule:evenodd;" d="M55.095,29.645c0.511,0.052,1.401-0.127,1.763,0.151
		c0.536,0.412,0.253,1.721,0.252,2.469c-0.003,1.012,0.051,2.256,0.051,3.778c0,1.076-0.241,3.084,0.252,3.627
		c0.392,0.433,1.412,0.317,2.167,0.303c0.835-0.017,1.623-0.014,2.317-0.151c0.965-0.87-0.102-2.858,0.706-3.577
		c0.397-0.354,1.575-0.298,1.915,0c0.454,0.397,0.302,1.96,0.302,3.022c0,0.803,0.219,2.691-0.202,3.124
		c-0.341,0.351-1.732,0.201-2.469,0.201c-1.82,0-3.186,0.051-5.189,0.051c-0.769,0-1.972,0.133-2.267-0.353
		c-0.188-0.311-0.151-1.366-0.151-2.116c0-2.186,0-4.602,0-6.549C54.54,32.453,54.129,29.909,55.095,29.645z"/>
	<path style="fill-rule:evenodd;clip-rule:evenodd;" d="M34.641,49.696c3.156-0.299,5.626,1.326,6.801,2.973
		c3.89,5.451-0.087,13.738-7.154,12.646c-2.67-0.413-4.728-2.258-5.693-4.081c-0.602-1.137-1.008-2.874-0.907-4.383
		c0.108-1.614,0.821-3.069,1.411-3.879C30.288,51.336,31.958,49.951,34.641,49.696z"/>
</g>
<g id="Layer_1">
</g>
</svg>
