<?xml version="1.0" encoding="iso-8859-1"?>
<!-- Generator: Adobe Illustrator 19.2.0, SVG Export Plug-In . SVG Version: 6.00 Build 0)  -->
<svg version="1.1" xmlns="http://www.w3.org/2000/svg" xmlns:xlink="http://www.w3.org/1999/xlink" x="0px" y="0px"
	 viewBox="0 0 74.218 76.877" style="enable-background:new 0 0 74.218 76.877;" xml:space="preserve">
<g id="Animex_x5F_PL">
	<path style="fill-rule:evenodd;clip-rule:evenodd;" d="M47.007,0.15c0.299,14.551-0.154,29.818,0.05,44.352
		c1.045,0.266,2.217,0.15,3.358,0.15c3.371,0,6.994-0.025,10.273,0.102c-0.268,0.834-1.078,1.269-1.654,1.853
		c-3.963,4.018-8.22,7.924-12.077,12.127c-0.155,6.113,0.109,12.328-0.201,18.143c-0.479-0.102-0.649-0.617-0.902-0.953
		c-1.789-2.375-3.501-5.041-5.462-7.316c-0.668,0.418-0.971,1.188-1.403,1.805c-1.287,1.836-2.671,3.684-4.059,5.461
		c-0.28,0.322-0.363,0.84-0.902,0.902c-0.208-5.807,0.144-12.016-0.1-17.689c-1.084-0.436-2.233-0.475-3.308-0.701
		c-3.245-0.689-6.117-1.807-8.77-3.209C13.16,50.588,7.635,42.869,6.615,30.57c-0.199-2.406-0.096-4.953-0.05-7.617
		C4.789,22.441,1.94,23.002,0,22.652c0.096-0.479,0.496-0.846,0.802-1.203c2.117-2.467,4.508-4.859,6.715-7.316
		c2.522-2.807,5.041-5.615,7.567-8.42c0.808-0.961,1.667-1.873,2.506-2.805c0.416-0.434,0.825-0.938,1.253-1.404
		c0.416-0.453,0.782-1.051,1.353-1.203c0.223,6.984,0.05,14.518,0.05,21.699c0,3.707-0.194,7.508-0.05,10.926
		c0.14,3.316,1.653,5.77,3.308,7.617c2.381,2.348,5.804,4.184,10.424,3.959c0.271-0.883,0.15-1.836,0.15-2.756
		c0-6.264,0.05-12.58,0.05-19.344c0-3.682,0.128-7.531,0.1-11.377c-0.02-2.609-0.06-5.562,0-8.168
		c0.017-0.762-0.117-2.482,0.15-2.756C34.415,0.055,34.47,0.025,34.529,0C38.707,0.031,42.995-0.045,47.007,0.15z"/>
	<path style="fill-rule:evenodd;clip-rule:evenodd;" d="M74.119,0.252c0.242,10.447-0.04,20.631,0,31.271
		c-1.518,1.74-3.182,3.332-4.811,4.961c-1.628,1.629-3.292,3.223-4.911,4.861c-0.508,0.543-1.106,1.055-1.654,1.604
		c-0.517,0.516-0.966,1.26-1.704,1.402c-0.094-9.258,0.05-18.654,0.05-27.813c0-5.525-0.027-10.891,0.151-16.287
		C65.437,0.086,69.922,0.01,74.119,0.252z"/>
</g>
<g id="Layer_1">
</g>
</svg>
