<?xml version="1.0" encoding="iso-8859-1"?>
<!-- Generator: Adobe Illustrator 19.2.0, SVG Export Plug-In . SVG Version: 6.00 Build 0)  -->
<svg version="1.1" xmlns="http://www.w3.org/2000/svg" xmlns:xlink="http://www.w3.org/1999/xlink" x="0px" y="0px"
	 viewBox="0 0 74.93 75.486" style="enable-background:new 0 0 74.93 75.486;" xml:space="preserve">
<g id="Anivo_x5F_BE">
	<path style="fill-rule:evenodd;clip-rule:evenodd;" d="M0.329,0.015c14.747,0.06,30.048-0.122,44.584,0.093
		c0.205,2.41,0.072,4.923,0.094,7.455c0.063,7.36-0.125,15.249,0.094,22.643c1.19,0.34,2.443,0.14,3.657,0.141
		c8.564,0.007,17.433-0.001,26.02,0.094c0.263,3.633,0.094,7.353,0.094,11.111c0,11.082,0.078,22.726-0.094,33.849
		c-1.228,0.095-2.537,0.046-3.844,0.047c-3.732,0-7.758,0.131-11.393-0.094c-0.26-9.855,0.058-19.77-0.14-29.395
		c-1.085-0.254-2.283-0.141-3.47-0.141c-3.522,0-7.305-0.039-10.783,0.047c-0.253,1.172-0.141,2.426-0.141,3.657
		c0,6.212-0.138,12.758,0,18.894c0.028,1.238-0.09,2.476-0.047,3.656c0.042,1.153,0.128,2.271-0.094,3.329
		c-14.772,0.006-29.847,0.201-44.725-0.094c-0.25-7.227-0.094-14.788-0.094-22.363c0-5.643,0-11.272,0-17.018
		c0-1.854-0.115-3.72,0.141-5.532c7.103-0.096,14.608-0.047,22.035-0.047c2.456,0,4.912,0.114,7.266-0.141
		c0.302-2.21-0.024-4.716,0.094-7.22c0.118-2.492,0.086-5.028-0.047-7.36c-0.54-0.249-1.153-0.141-1.735-0.141
		c-4.261,0-8.683,0-13.033,0c-4.977,0-9.977,0.09-14.627-0.141c-0.148-4.755-0.161-10.31,0-15.19
		C0.238,0.142,0.234,0.029,0.329,0.015z M22.786,0.624c-7.301,0-14.562-0.032-21.847-0.046C0.884,0.6,0.832,0.628,0.798,0.672
		C0.52,0.81,0.611,1.691,0.611,2.312c0,4.163-0.076,8.711,0.094,12.471c1.151,0.25,2.373,0.141,3.563,0.141
		c8.599,0,17.457-0.078,25.832,0.094c0.009,3.756,0.229,8.104,0.047,11.954c-0.062,1.319,0.19,2.644-0.094,3.844
		c-6.087,0.139-12.416,0.094-18.472,0.094c-3.16,0-6.159-0.047-9.142-0.046c-0.574,0-1.192-0.109-1.734,0.14
		C0.481,44.01,0.673,56.832,0.564,69.588c-0.015,1.751-0.042,3.471,0.141,5.157c14.338,0.263,29.347,0.125,43.553,0.047
		c0.01-0.053,0.052-0.073,0.094-0.094c0.168-8.356,0.094-17.245,0.094-25.785c0-1.208-0.112-2.446,0.141-3.61
		c4.224-0.248,9.245,0.161,13.643-0.046c0.603-0.029,1.247-0.139,1.782,0.14c0.024,9.163-0.001,18.215,0,27.661
		c0,0.576-0.109,1.197,0.141,1.735c4.631,0.145,9.556,0.196,14.018,0c0.254-1.749,0.141-3.541,0.141-5.345
		c0-10.987-0.066-22.267,0.047-33.099c0.019-1.773,0.079-3.569-0.141-5.297c-1.194-0.253-2.425-0.141-3.657-0.141
		c-2.487,0-4.952-0.021-7.408,0c-3.7,0.032-7.496-0.023-11.251,0.047c-1.868,0.035-3.765,0.089-5.625,0
		c-0.583-0.027-1.191,0.033-1.735-0.188c-0.147-8.853-0.094-17.625-0.094-26.348c0-1.238,0.171-2.498-0.094-3.704
		C37.343,0.436,29.968,0.624,22.786,0.624z"/>
	<path style="fill-rule:evenodd;clip-rule:evenodd;" d="M59.729,0.062c5.001,0.062,10.25-0.124,15.096,0.094
		c0.102,4.8,0.174,10.202,0,15.284c-2.411,0.171-5.052,0.094-7.642,0.094c-2.606,0-5.231,0.112-7.595-0.141
		c-0.173-4.225-0.094-8.837-0.094-13.315c0-0.653-0.069-1.541,0.094-1.875C59.614,0.135,59.661,0.088,59.729,0.062z M60.338,0.624
		c-0.056,0.023-0.106,0.05-0.141,0.094c-0.249,0.175-0.118,1.147-0.141,1.688c-0.167,3.965,0.048,8.561,0.094,12.424
		c1.07,0.252,2.26,0.141,3.422,0.141c3.619,0,7.278,0.087,10.642-0.094c0.249-1.121,0.141-2.35,0.141-3.563
		c0-1.224,0.055-2.479,0-3.657c-0.111-2.392,0.135-4.771-0.141-6.939C69.776,0.5,64.933,0.686,60.338,0.624z"/>
	<path style="fill-rule:evenodd;clip-rule:evenodd;" d="M30.1,45.303c0.055,4.713,0.133,10.308-0.047,15.143
		c-1.179,0.25-2.469,0.141-3.751,0.141c-3.73,0-7.819,0.077-11.439-0.094c-0.181-4.452-0.094-9.291-0.094-13.783
		c0-0.489-0.15-1.104,0.234-1.453C19.841,45.232,25.069,45.114,30.1,45.303z M22.832,45.819c-1.157,0-2.34,0-3.516,0
		c-1.193,0-2.441-0.176-3.517-0.047c-0.68,0.082-0.516,0.713-0.516,1.5c0,4.312-0.072,8.685,0.094,12.611
		c1.018,0.181,2.204,0.141,3.376,0.141c3.637,0,7.398,0.064,10.689-0.141c0.254-1.07,0.141-2.244,0.141-3.422
		c0-3.441,0.08-7.147-0.094-10.548C27.411,45.639,25.146,45.819,22.832,45.819z"/>
</g>
<g id="Layer_1">
</g>
</svg>
