<?xml version="1.0" encoding="iso-8859-1"?>
<!-- Generator: Adobe Illustrator 19.2.0, SVG Export Plug-In . SVG Version: 6.00 Build 0)  -->
<svg version="1.1" xmlns="http://www.w3.org/2000/svg" xmlns:xlink="http://www.w3.org/1999/xlink" x="0px" y="0px"
	 viewBox="0 0 79.423 79.801" style="enable-background:new 0 0 79.423 79.801;" xml:space="preserve">
<g id="Antigorio">
	<path style="fill-rule:evenodd;clip-rule:evenodd;" d="M38.082,0.045c6.534-0.311,12.228,1.027,16.937,2.978
		c7.055,2.926,12.521,7.492,16.688,13.213c3.968,5.445,7.464,13.086,7.699,22.102c0.258,9.943-2.436,17.336-6.358,23.443
		c-0.636,0.99-1.477,1.879-2.086,2.881c-0.627,1.033-1.448,1.916-2.234,2.732c-6.451,6.697-15.249,11.824-27.417,12.367
		c-9.769,0.436-17.33-2.758-23.245-6.557C12.064,69.351,7.254,64.012,4.01,57.41c-2.173-4.42-3.7-9.662-3.974-15.893
		c-0.278-6.32,1.079-12.121,2.931-16.789c1.927-4.855,4.544-8.565,7.798-12.119c4.69-5.123,10.799-9.035,18.575-11.273
		C32.014,0.566,34.91,0.195,38.082,0.045z M35.102,5.955c-5.646,0.674-10.762,2.949-14.553,5.562
		c-3.931,2.711-7.354,6.399-9.834,10.33c-2.536,4.021-4.439,9.238-4.967,15.15c-0.511,5.707,0.597,11.246,2.186,15.248
		c0.222,0.559,0.344,1.271,0.894,1.639c2.449-3.883,4.57-7.939,6.854-11.92c4.571-7.967,9.191-15.869,13.708-23.842
		c1.133-1.998,2.188-4.055,3.328-6.059c0.566-0.998,1.185-1.984,1.738-2.98c0.567-1.024,1.233-2.006,1.59-3.129
		C35.774,5.83,35.306,5.93,35.102,5.955z M73.843,40.176c0.164-4.73-1.035-9.035-2.284-12.416c-0.202-0.549-0.312-1.119-0.497-1.641
		c-0.454-1.281-1.27-2.607-2.036-3.873c-0.757-1.248-1.61-2.443-2.434-3.477c-3.519-4.416-7.762-8.035-13.361-10.381
		c-2.592-1.086-6.199-2.318-9.586-2.434C43.6,6.553,44.01,7.064,44.29,7.545c4.373,7.457,8.524,15.041,12.814,22.498
		c2.297,3.992,4.505,8.047,6.805,12.021c2.013,3.477,3.906,7.111,5.91,10.529c0.281,0.479,0.5,1.072,0.994,1.391
		C72.731,50.01,73.66,45.451,73.843,40.176z M38.43,13.504c-0.386,0.656-0.769,1.35-1.143,1.986
		c-1.912,3.262-3.856,6.598-5.662,9.836c-0.376,0.674-0.845,1.342-1.142,1.986c-0.119,0.258-0.134,0.547-0.248,0.795
		c-0.273,0.586-0.781,1.037-0.845,1.738c0.587-0.209,0.885-0.705,1.242-1.143c1.75-1.234,3.676-2.457,6.108-2.932
		c4.336-0.844,8.244,0.328,10.878,2.037c0.956,0.621,1.708,1.387,2.583,1.938c-0.647-1.666-1.59-3.174-2.434-4.719
		c-0.837-1.531-1.802-2.992-2.633-4.52c-1.673-3.072-3.425-6.115-5.265-9.09c-0.033,0-0.067,0-0.1,0
		C39.265,11.939,38.865,12.762,38.43,13.504z M34.059,33.322c-1.29,1.146-2.272,2.498-2.731,4.371
		c-0.829,3.383,0.507,6.414,2.086,8.096c1.335,1.422,3.153,2.648,5.513,2.83c3.276,0.252,5.465-1.008,7.054-2.633
		c1.337-1.365,2.331-3.242,2.483-5.512c0.2-2.99-1.105-5.277-2.533-6.705c-1.479-1.48-3.829-2.762-6.755-2.533
		C37.006,31.404,35.3,32.219,34.059,33.322z M47.568,51.998c-2.366,1.498-5.543,2.566-9.039,2.283
		c-3.224-0.26-6.223-1.662-8.047-3.377c-0.394-0.371-0.765-0.887-1.192-1.34c-1.201-1.283-2.263-2.994-2.88-4.769
		c-0.893-2.566-1.134-5.898-0.398-8.94c-0.003-0.031-0.008-0.059-0.05-0.051c-0.059,0.025-0.113,0.055-0.149,0.1
		c-0.927,1.314-1.775,2.976-2.682,4.57c-2.166,3.805-4.456,7.568-6.606,11.424c-0.396,0.709-0.896,2.043-1.391,2.234
		c-0.357,0.139-0.97,0.035-1.49,0.051c-1.231,0.035-2.217-0.045-3.178-0.051c-0.573-0.004-1.204-0.072-1.49,0.199
		c0.148,0.732,0.528,1.455,0.894,2.135c0.365,0.68,0.817,1.348,1.241,1.938c2.571,4.062,6.062,7.598,10.282,10.281
		c4.206,2.674,9.119,4.752,15.198,5.365c6.687,0.672,12.746-0.773,17.334-2.932c4.755-2.236,8.654-5.107,11.772-8.84
		c1.03-1.08,1.922-2.297,2.732-3.576c0.809-1.279,1.729-2.582,2.185-4.172c-1.895-0.226-4.204-0.035-6.158-0.199
		c-1.074-1.359-1.807-2.98-2.683-4.52c-2.394-4.209-4.789-8.6-7.202-12.717c-0.196-0.334-0.363-0.834-0.794-0.943
		C55.233,43.584,52.062,49.152,47.568,51.998z"/>
</g>
<g id="Layer_1">
</g>
</svg>
