<?xml version="1.0" encoding="iso-8859-1"?>
<!-- Generator: Adobe Illustrator 19.2.0, SVG Export Plug-In . SVG Version: 6.00 Build 0)  -->
<svg version="1.1" xmlns="http://www.w3.org/2000/svg" xmlns:xlink="http://www.w3.org/1999/xlink" x="0px" y="0px"
	 viewBox="0 0 75.385 38.51" style="enable-background:new 0 0 75.385 38.51;" xml:space="preserve">
<g id="Antonio_x5F_Corona">
	<path style="fill-rule:evenodd;clip-rule:evenodd;" d="M25.417,9.901c0.419-0.354,0.473-0.93,0.636-1.371
		c1.204-3.236,3.631-5.72,6.706-7.195c0.565-0.271,1.126-0.498,1.664-0.637c6.237-1.6,11.205,1.387,13.804,4.944
		c0.476,0.65,0.842,1.374,1.175,2.105c0.335,0.734,0.533,1.538,0.979,2.251c0.493-0.405,0.529-1.05,0.733-1.566
		c1.471-3.711,4.331-6.154,8.272-7.489c3.901-1.321,8.318,0.065,10.769,1.762c0.863,0.597,1.77,1.304,2.35,2.154
		c1.304,1.908,2.337,3.552,2.741,6.314c0.818,5.583-2.104,10.097-5.434,12.286c-0.897,0.59-1.879,1.153-2.985,1.517
		c-1.124,0.37-2.35,0.479-3.72,0.685c-0.293,1.036-0.13,2.16-0.098,3.23c0.089,3.053-0.062,6.319-0.099,9.545
		c-16.756,0.052-33.236,0.155-49.927-0.049c-0.256-4.192,0.036-8.932-0.196-13.02c-0.494-0.359-1.368-0.219-1.958-0.294
		c-1.139-0.144-2.542-0.646-3.476-1.126c-1.036-0.533-1.932-1.203-2.79-1.811c-2.496-2.532-5.366-6.282-4.357-11.699
		c0.544-2.914,2.088-5.345,4.161-7.146c2.059-1.788,4.878-3.124,8.174-3.279c3.585-0.169,6.413,1.299,8.469,2.937
		c1.553,1.237,2.756,2.974,3.573,4.944C24.856,8.55,25.018,9.272,25.417,9.901z M19.249,22.432c2.948-2.065,5.554-6.01,5.188-10.818
		c-0.305-4.01-2.538-7.275-5.482-9.006c-1.336-0.786-3.676-1.716-5.58-1.517c-0.429,0.781-0.244,1.784-0.244,2.692
		c0,5.701,0.098,11.773,0.098,17.523c0,0.954-0.119,1.94,0.146,2.839C15.612,24.24,17.679,23.329,19.249,22.432z M45.925,21.11
		c1.891-1.891,3.283-4.434,3.476-7.538c0.146-2.358-0.54-4.975-1.615-6.804c-1.77-3.01-4.929-5.228-9.3-5.482
		c-0.544,0.426-0.289,1.249-0.294,1.909c-0.048,5.898,0.048,11.502,0.049,17.573c0,1.227-0.116,2.459,0.147,3.622
		C41.521,24.562,44.038,22.998,45.925,21.11z M69.274,22.823c1.027-0.682,2.241-1.789,2.888-2.79
		c0.256-0.396,0.475-0.956,0.734-1.469c0.732-1.445,1.38-3.317,1.42-5.286c0.059-2.899-0.895-5.253-2.056-7.342
		c-2.042-2.348-4.58-4.459-8.811-4.455c-0.474,0.716-0.319,1.74-0.294,2.644c0.16,5.798,0.099,11.813,0.098,17.572
		c0,0.964-0.117,1.942,0.146,2.839C65.591,24.654,67.707,23.864,69.274,22.823z M32.71,24.39c-1.227-0.589-2.461-1.531-3.426-2.497
		c-1.776-1.776-3.01-3.741-3.818-6.363c-0.049,0-0.059-0.04-0.098-0.049c-0.071,0.027-0.119,0.076-0.148,0.147
		c-0.461,1.579-1.154,2.925-1.909,4.21c-1.885,2.415-4.461,4.356-7.88,5.14c-0.508,0.116-1.06,0.001-1.566,0.294
		c-0.275,2.438,0.635,4.489,1.615,6.119c1.029,1.711,2.373,3.004,4.014,3.965c1.26,0.738,3.362,1.608,5.14,1.664
		c1.741,0.055,3.482-0.215,4.895-0.734c1.827-0.671,3.699-2.09,4.944-3.671c1.365-1.735,2.431-4.277,2.349-7.049
		C35.373,25.117,33.927,24.974,32.71,24.39z M50.233,15.775c-0.655,1.936-1.447,3.705-2.643,5.14
		c-1.137,1.364-2.677,2.629-4.356,3.426c-1.295,0.614-2.766,0.862-4.357,1.224c-0.159,3.883,1.609,6.678,3.77,8.566
		c2.08,1.988,5.372,3.473,9.496,2.839c2.847-0.438,5.246-1.803,6.901-3.671c1.665-1.878,3.005-4.376,2.888-7.587
		c-0.68-0.312-1.395-0.459-2.055-0.636c-4.996-1.335-7.84-4.705-9.398-9.447c-0.033,0-0.065,0-0.098,0
		C50.31,15.655,50.26,15.704,50.233,15.775z M44.702,36.724c-3.485-1.822-5.718-4.766-6.804-8.957c-0.032,0-0.066,0-0.098,0
		c-0.07,0.027-0.119,0.076-0.146,0.146c-0.703,2.857-2.059,4.996-3.867,6.706c-0.988,0.935-2.051,1.678-3.328,2.251
		c-0.373,0.167-0.915,0.254-1.126,0.686c5.317,0.245,11.429,0.206,16.789,0C45.814,37.032,45.172,36.97,44.702,36.724z
		 M20.326,36.871c-0.4-0.188-0.841-0.329-1.175-0.587c-0.726-0.448-1.445-0.904-2.056-1.468c-1.234-1.099-2.207-2.46-3.084-3.916
		c-0.049,0-0.098,0-0.146,0c-0.003,0.063-0.062,0.068-0.049,0.147c-0.052,2.026-0.143,4.516,0.049,6.461
		c0.854,0.262,1.876,0.147,2.888,0.147c1.576,0,3.184,0.117,4.602-0.098C21.14,37.225,20.704,37.05,20.326,36.871z M61.981,30.949
		c-0.05,0-0.059-0.04-0.098-0.049c-0.081,0.007-0.11,0.105-0.147,0.147c-0.556,0.632-0.859,1.427-1.37,2.056
		c-1.25,1.537-2.878,2.924-4.699,3.818c-0.343,0.168-0.876,0.171-1.077,0.637c1.109,0.169,2.444,0.098,3.72,0.098
		c1.309,0,2.629,0.153,3.672-0.098C62.173,35.608,62.12,33.008,61.981,30.949z"/>
</g>
<g id="Layer_1">
</g>
</svg>
