<?xml version="1.0" encoding="iso-8859-1"?>
<!-- Generator: Adobe Illustrator 19.2.0, SVG Export Plug-In . SVG Version: 6.00 Build 0)  -->
<svg version="1.1" xmlns="http://www.w3.org/2000/svg" xmlns:xlink="http://www.w3.org/1999/xlink" x="0px" y="0px"
	 viewBox="0 0 82.498 81.794" style="enable-background:new 0 0 82.498 81.794;" xml:space="preserve">
<g id="antriebe-gesellschaft">
	<path style="fill-rule:evenodd;clip-rule:evenodd;" d="M40.694,0.038c6.669-0.318,12.52,1.402,17.065,3.484
		c1.215,0.556,2.367,1.076,3.484,1.666c1.105,0.583,2.107,1.264,3.13,1.969c4.023,2.773,7.691,6.109,10.502,10.047
		c1.37,1.92,2.585,4.114,3.787,6.463c1.101,2.151,1.818,4.942,2.575,7.674c0.777,2.806,1.262,5.857,1.262,8.987
		c-0.001,3.455-0.277,6.508-0.858,9.441c-0.276,1.391-0.671,2.787-1.061,4.089c-1.956,6.549-5.44,11.549-9.744,15.853
		c-5.133,5.133-11.587,8.877-19.842,10.956c-2.796,0.705-5.983,0.967-9.138,1.111c-1.558,0.071-3.276-0.131-4.847-0.303
		c-4.531-0.498-8.612-1.798-12.117-3.282C15.255,74.115,8.399,67.33,3.888,58.151c-1.111-2.259-1.983-4.864-2.676-7.574
		C0.512,47.839,0,44.75,0,41.54c0-6.724,1.418-12.295,3.534-17.015c3.239-7.227,7.754-12.515,13.884-16.913
		c4.939-3.543,10.934-6.275,18.378-7.271C37.347,0.134,38.926,0.123,40.694,0.038z M55.234,6.501
		c-4.371-1.795-9.769-3.045-16.055-2.676c-5.075,0.298-9.565,1.501-13.329,3.231C16.497,11.355,9.671,18.204,5.907,28.009
		c-0.767,2-1.422,4.267-1.767,6.463c-0.804,5.119-0.618,10.343,0.454,14.793c2.118,8.788,6.722,15.181,12.622,20.145
		c2.974,2.502,6.56,4.519,10.401,6.008c4.097,1.589,8.472,2.485,13.581,2.676c2.646,0.099,5.148-0.251,7.573-0.606
		c2.197-0.322,4.443-1.098,6.311-1.868c2.012-0.831,3.82-1.629,5.554-2.626c8.5-4.886,15.019-12.59,17.52-23.427
		c0.513-2.223,0.96-4.65,0.96-7.22c0-2.601-0.136-5.148-0.606-7.624c-1.726-9.096-5.941-15.734-11.713-21.053
		C63.596,10.63,59.731,8.348,55.234,6.501z"/>
	<path style="fill-rule:evenodd;clip-rule:evenodd;" d="M42.31,6.652c5.261-0.023,10.136,1.522,13.783,3.231
		c5.946,2.788,10.217,6.526,13.783,11.663c2.872,4.137,5.186,8.953,6.008,15.197c0.149,1.131,0.515,3.023,0.151,3.787
		c-0.414,0.869-2.614,1.018-3.181,0.101c-0.208-0.336-0.198-1.105-0.253-1.717c-0.584-6.552-2.763-11.254-5.756-15.601
		c-3.151-4.577-7.328-8.102-12.874-10.451c-2.729-1.155-5.639-2.039-9.189-2.474c-1.194-0.146-2.674,0.007-3.181-0.656
		C41.033,8.986,41.184,6.672,42.31,6.652z"/>
	<path style="fill-rule:evenodd;clip-rule:evenodd;" d="M64.676,31.745c-0.963-0.442-1.209-1.542-1.666-2.373
		c-1.398-2.541-3.339-4.773-5.503-6.614c-1.434-1.314-3.033-2.344-4.796-3.282c-3.331-1.772-7.676-3.037-13.127-2.727
		c-1.671,0.095-3.487,0.403-5.049,0.858c-0.572,0.167-1.131,0.452-1.565,0.404c-0.805-0.089-1.833-1.728-1.717-2.575
		c0.153-1.119,2.135-1.476,3.231-1.717c2.828-0.622,5.2-0.908,8.735-0.707c3.039,0.173,5.834,0.935,8.431,1.919
		c6.741,2.553,11.67,7.289,14.945,13.48c0.664,1.255,1.135,2.3-0.303,2.928C65.776,31.566,65.39,31.74,64.676,31.745z"/>
	<path style="fill-rule:evenodd;clip-rule:evenodd;" d="M54.527,28.11c-0.866-0.09-1.422-0.775-2.02-1.211
		c-1.778-1.301-3.882-2.501-6.361-3.181c-1.563-0.429-3.574-0.768-5.604-0.656c-4.455,0.247-8.065,1.999-10.754,4.14
		c-0.425,0.338-0.868,0.798-1.312,0.808c-0.973,0.023-1.968-1.361-2.171-2.171c0.038-0.689,0.673-1.119,1.162-1.515
		c1.404-1.139,3-2.296,4.796-3.08c2.479-1.081,5.272-1.711,8.633-1.868c6.176-0.287,11.124,2.17,14.541,5.049
		c0.471,0.397,1.203,1.017,1.212,1.565C56.663,26.906,55.285,27.875,54.527,28.11z"/>
	<path style="fill-rule:evenodd;clip-rule:evenodd;" d="M40.391,25.737c0.989-0.073,2.583-0.054,3.938,0.252
		c1.03,0.233,2.663,0.445,2.828,1.363c0.126,0.704-0.302,1.206-0.505,1.616c-0.234,0.472-0.545,0.956-1.061,1.06
		c-0.569,0.115-1.521-0.293-2.221-0.404c-4.678-0.736-8.567,1.336-10.754,3.787c-0.345,0.387-0.753,0.943-1.111,1.515
		c-0.329,0.525-0.721,1.23-1.262,1.312c-0.593,0.091-1.157-0.255-1.667-0.454c-1.574-0.617-1.106-1.738-0.303-2.978
		c1.767-2.729,4.222-4.956,7.573-6.059C37.269,26.279,38.723,25.86,40.391,25.737z"/>
	<path style="fill-rule:evenodd;clip-rule:evenodd;" d="M41.451,32.755c0.181,0.593,0.312,2.19-0.152,2.727
		c-0.462,0.535-1.467,0.526-2.171,0.909c-0.927,0.503-1.715,1.413-2.221,2.373c-0.35,0.664-0.521,1.837-1.313,2.171
		c-1.079,0.455-2.789,0.122-3.029-0.808c0.501-4.372,3.682-7.134,7.624-7.927C40.75,32.086,41.156,32.312,41.451,32.755z"/>
	<path style="fill-rule:evenodd;clip-rule:evenodd;" d="M41.249,38.915c1.216-0.124,2.464,0.869,2.423,2.221
		c-0.027,0.903-0.725,1.836-1.615,2.07c-1.399,0.367-3.45-1.004-2.676-2.979C39.613,39.635,40.363,39.004,41.249,38.915z"/>
	<path style="fill-rule:evenodd;clip-rule:evenodd;" d="M8.684,40.984c1.906,0.007,1.454,2.107,1.716,3.989
		c1.092,7.835,4.573,13.357,9.038,17.822c2.601,2.601,5.667,4.509,9.29,6.109c2.959,1.308,6.461,2.508,10.653,2.777
		c0.963,0.061,1.587-0.005,2.02,0.555c0.533,0.691,0.398,2.621-0.353,2.979c-0.763,0.363-2.786-0.01-3.938-0.151
		c-3.761-0.461-7.163-1.612-9.997-2.878c-3.899-1.742-7.308-4.077-10.199-6.968c-4.785-4.785-8.946-11.291-10.047-19.993
		c-0.137-1.085-0.493-3.282,0.051-3.888C7.279,40.934,7.826,40.981,8.684,40.984z"/>
	<path style="fill-rule:evenodd;clip-rule:evenodd;" d="M47.661,41.187c0.999-0.14,2.556-0.192,2.726,0.808
		c0.146,0.855-0.396,2.05-0.757,2.828c-1.244,2.677-4.155,4.82-7.271,4.999c-0.361-0.128-0.579-0.398-0.808-0.657
		c-0.105-0.603-0.217-1.349-0.101-2.019c0.22-0.928,1.466-0.979,2.221-1.312c0.991-0.439,1.972-1.346,2.525-2.323
		c0.431-0.761,0.42-1.93,1.363-2.322C47.594,41.187,47.627,41.187,47.661,41.187z"/>
	<path style="fill-rule:evenodd;clip-rule:evenodd;" d="M52.71,45.933c-0.009-0.043,0.02-0.048,0.05-0.051
		c0.928,0.13,2.576,0.45,2.676,1.464c0.082,0.822-0.908,1.892-1.312,2.475c-1.523,2.194-3.501,4.033-6.109,5.149
		c-2.513,1.076-6.085,1.858-9.492,1.061c-0.938-0.22-2.102-0.33-2.424-1.313c0.208-1.139,0.496-2.197,1.414-2.625
		c1.792,0.295,3.264,0.62,5.402,0.455c3.31-0.255,6.118-2.251,7.826-4.342C51.351,47.458,51.925,46.187,52.71,45.933z"/>
	<path style="fill-rule:evenodd;clip-rule:evenodd;" d="M17.873,50.628c0.848-0.078,1.254,0.722,1.667,1.464
		c1.126,2.03,2.309,3.773,3.837,5.301c2.108,2.108,4.412,3.726,7.018,5.15c3.819,2.087,9.423,3.351,15.248,2.424
		c0.748-0.119,1.712-0.371,2.474-0.556c0.648-0.157,1.743-0.703,2.424-0.606c0.457,0.065,0.84,0.618,1.06,1.01
		c0.215,0.381,0.566,0.929,0.505,1.514c-0.083,0.795-1.19,1.142-2.12,1.414c-2.754,0.806-5.762,1.231-9.24,1.212
		c-2.182-0.012-4.292-0.438-6.109-0.909c-5.589-1.449-9.755-4.049-13.329-7.624c-1.708-1.708-3.214-3.563-4.544-5.907
		c-0.36-0.635-1.157-1.688-1.111-2.373C15.704,51.349,17.014,50.707,17.873,50.628z"/>
	<path style="fill-rule:evenodd;clip-rule:evenodd;" d="M28.778,54.263c0.691-0.034,2.151,1.316,2.777,1.716
		c2.632,1.683,5.75,3.012,10.047,3.029c2.763,0.012,5.217-0.635,7.22-1.515c0.941-0.413,1.988-0.91,2.878-1.515
		c0.754-0.512,1.823-1.704,2.625-1.716c0.592-0.01,0.94,0.478,1.312,0.808c0.353,0.312,0.869,0.596,0.858,1.262
		c-0.015,0.988-1.994,2.154-2.676,2.625c-3.131,2.165-7.235,3.636-12.269,3.635c-3.351,0-6.212-0.7-8.735-1.868
		c-1.757-0.814-3.377-1.836-4.948-3.029c-0.541-0.411-1.203-0.845-1.212-1.414C26.647,55.627,28.078,54.297,28.778,54.263z"/>
</g>
<g id="Layer_1">
</g>
</svg>
