<?xml version="1.0" encoding="iso-8859-1"?>
<!-- Generator: Adobe Illustrator 19.2.0, SVG Export Plug-In . SVG Version: 6.00 Build 0)  -->
<svg version="1.1" xmlns="http://www.w3.org/2000/svg" xmlns:xlink="http://www.w3.org/1999/xlink" x="0px" y="0px"
	 viewBox="0 0 71.875 72.157" style="enable-background:new 0 0 71.875 72.157;" xml:space="preserve">
<g id="Anzen_x5F_Kogaku_x5F_Kenkyujo">
	<path style="fill-rule:evenodd;clip-rule:evenodd;" d="M71.552,39.424c-14.677,0.217-29.824,0.047-44.689,0.047
		c-0.405,0-0.894-0.119-1.232,0.189c0.06,1.299,0.923,2.205,1.469,3.176c2.117,2.58,5.002,4.379,9.667,4.455
		c0.181,0.979,0.095,2.162,0.095,3.316c0,1.156,0.112,2.361-0.142,3.316c-4.158,0.303-7.577-0.951-10.236-2.652
		c-2.654-1.697-4.899-3.994-6.35-6.73c-1.513-2.852-2.488-6.883-1.991-10.805c0.475-3.742,1.997-6.695,3.934-9.146
		c1.905-2.41,4.544-4.273,7.583-5.496c3.215-1.295,7.618-1.389,11.231-0.332c3.283,0.961,5.867,2.842,8.009,5.07
		c2.164,2.252,3.562,5.223,4.502,8.578c0.459,0.213,1.677,0.232,2.133,0c0.117-1.049-0.247-2.07-0.569-2.986
		c-2.162-6.15-6.795-10.748-13.127-12.748c-3.947-1.246-9.094-1.229-12.748,0.189c-3.592,1.396-6.342,3.377-8.672,6.113
		c-2.241,2.633-4.033,6.111-4.597,10.236c-0.612,4.473,0.45,9.031,2.18,12.227c1.748,3.229,4.135,5.691,7.156,7.678
		c3.009,1.981,6.809,3.17,11.564,3.223c0.021,0.043,0.042,0.084,0.095,0.094c0.128,2,0.099,4.475-0.047,6.494
		c-0.755,0.268-1.59,0.145-2.322,0.094c-5.322-0.363-9.575-2.08-13.08-4.359c-6.034-3.924-10.507-9.539-11.99-17.914
		c-0.518-2.926-0.526-6.035-0.047-9.146c0.862-5.598,3.452-9.988,6.398-13.506c3.035-3.529,6.988-6.316,12.037-7.914
		c2.554-0.809,5.613-1.358,8.672-1.279c3.006,0.078,5.913,0.676,8.388,1.564c8.296,2.977,14.287,9.209,16.871,17.961
		c0.373,1.262,0.606,2.605,0.995,3.98c0.468,0.223,1.678,0.234,2.085-0.047c-0.01-1.605-0.388-3.105-0.806-4.502
		c-1.229-4.111-3.133-7.664-5.639-10.568c-4.223-5.111-10.023-8.982-18.15-10.189c-2.741-0.406-5.639-0.398-8.672,0
		c-5.372,0.707-9.577,2.943-13.269,5.639c-3.579,2.615-6.561,6.359-8.53,10.332c-2.1,4.234-3.503,9.853-2.891,15.732
		c0.589,5.666,2.449,10.072,5.023,13.84c2.49,3.641,6.013,6.721,9.952,8.908c3.077,1.709,6.513,2.865,10.663,3.506
		c1.377,0.213,2.816,0.098,4.312,0.381c0.207,1.85,0.125,4.557,0,6.539c-0.68,0.225-1.458,0.188-2.133,0.143
		c-4.772-0.32-8.968-1.424-12.605-2.986c-4.118-1.768-7.852-4.109-10.805-7.061C5.329,56.18,0.589,48.58,0.041,37.576
		c-0.283-5.668,0.938-10.982,2.701-15.166c3.546-8.416,9.442-14.553,17.155-18.576c2.964-1.547,6.217-2.648,10.046-3.318
		c1.3-0.227,2.734-0.404,4.17-0.473c6.514-0.309,11.914,1.066,16.302,3.08c4.467,2.049,8.222,4.715,11.421,7.961
		c5.251,5.801,9.546,13.145,9.999,23.885C71.898,36.438,71.933,38,71.552,39.424z M45.298,30.325
		c-1.144-1.889-3.044-3.541-5.071-4.455c-3.751-1.691-9.102-0.787-11.373,1.565c-0.749,0.584-1.458,1.289-2.038,2.086
		c-0.567,0.777-1.185,1.709-1.279,2.795c0.728,0.334,1.596,0.189,2.417,0.189c5.388,0,10.424,0.029,15.686,0.049
		c0.803,0.002,1.662,0.109,2.417-0.143C46.088,31.676,45.668,30.936,45.298,30.325z"/>
</g>
<g id="Layer_1">
</g>
</svg>
