<?xml version="1.0" encoding="iso-8859-1"?>
<!-- Generator: Adobe Illustrator 19.2.0, SVG Export Plug-In . SVG Version: 6.00 Build 0)  -->
<svg version="1.1" xmlns="http://www.w3.org/2000/svg" xmlns:xlink="http://www.w3.org/1999/xlink" x="0px" y="0px"
	 viewBox="0 0 60.749 81.052" style="enable-background:new 0 0 60.749 81.052;" xml:space="preserve">
<g id="Applied_x5F_art_x5F_Center_x5F_Sofia">
	<path style="fill-rule:evenodd;clip-rule:evenodd;" d="M60.748,0.382c0.013,1.726-0.417,3.407-0.67,5.101
		c-3.26,21.829-7.024,43.686-10.357,65.544c-0.387,2.532-0.745,5.057-1.186,7.575c-0.133,0.762-0.174,1.603-0.618,2.267
		c-2.783,0.416-5.655-0.022-8.502,0.104c-2.771,0.122-5.568-0.013-8.348,0c-3.923,0.017-8.242-0.051-12.676-0.052
		c-3.497,0-6.615,0.434-6.544-3.195c0.021-1.039,0.385-2.161,0.618-3.298c0.457-2.223,0.72-4.38,1.134-6.699
		c0.425-2.382,0.858-4.712-1.443-5.359c-0.173-0.048-0.332-0.078-0.515-0.103c-3.825-0.523-11.084,1.4-11.594-2.628
		c-0.205-1.614,0.294-3.632,0.566-5.204c1.45-8.364,2.556-16.628,3.916-24.94c0.408-2.493,0.741-4.981,1.185-7.472
		c0.134-0.753,0.057-1.654,0.566-2.319c1.879,0.302,3.175,1.238,3.864,2.731c0.797,1.722,0.752,5.108,0.413,7.472
		c-0.16,1.115-0.255,2.483-0.31,3.864c-0.049,1.231-0.144,2.942,0.31,3.71c0.53,0.9,2.202,0.992,2.988,0.155
		c0.668-0.711,1.038-2.731,1.288-4.071c0.293-1.571,0.643-3.039,0.928-4.38c0.629-2.957,1.171-5.857,1.855-8.811
		c0.988-4.27,1.806-8.697,2.73-13.243c0.289-1.419,0.681-3.292,1.752-3.556c1.847-0.453,2.068,1.426,1.906,3.401
		c-0.543,6.599-1.062,13.573-1.494,20.199c-0.126,1.936-0.86,4.604,1.34,4.637c0.839,0.013,1.251-0.44,1.598-0.928
		c0.826-2.276,1.249-4.918,1.803-7.471c0.825-3.801,1.798-7.518,2.525-11.388c0.236-1.255,0.518-2.52,0.824-3.813
		c0.26-1.1,0.489-2.351,0.824-3.813c0.332-1.449,0.849-3.656,2.783-2.834c0.857,0.365,0.896,1.773,0.824,3.041
		c-0.154,2.698-0.353,4.744-0.516,7.42c-0.22,3.609-0.481,7.487-0.824,11.079c-0.114,1.195-0.2,2.23-0.258,3.71
		c-0.073,1.895-0.841,4.592,0.979,4.947c0.956,0.186,1.825-0.422,2.164-0.979c0.482-0.792,0.623-2.286,0.928-3.504
		c0.314-1.261,0.559-2.532,0.824-3.556c0.61-2.35,1.065-4.767,1.649-7.163c0.547-2.25,1.001-5.018,1.545-7.265
		c0.135-0.555,0.266-1.16,0.413-1.804c0.338-1.485,0.642-4.371,2.215-4.38c1.225-0.007,1.543,1.225,1.34,2.577
		c-0.608,7.206-1.503,14.69-2.216,22.105c-0.179,1.863-0.786,4.496,1.443,4.38c1.007-0.052,1.371-1.248,1.7-2.113
		c0.376-0.987,0.561-2.093,0.824-2.937c0.589-1.882,1.17-4.058,1.649-5.874c0.771-2.927,1.535-5.925,2.473-8.811
		c0.287-0.884,0.654-2.048,1.804-1.958c1.581-0.086,1.146,2.507,0.928,3.761c-0.286,1.644-0.354,3.076-0.618,4.432
		c-0.568,2.924-0.945,6.025-1.34,8.812c-0.416,2.941-0.98,5.854-1.34,8.812c-0.36,2.964-0.81,5.948-1.288,8.862
		c-0.964,5.883-1.347,12.354-3.556,16.747c-1.647,3.273-4.348,5.939-5.256,9.945c-0.152,0.671-0.241,1.415-0.36,2.164
		c-0.099,0.619-0.468,1.44,0.052,2.061c0.643-0.22,0.533-1.232,0.617-1.906c0.097-0.766,0.191-1.564,0.31-2.216
		c0.236-1.308,0.919-2.431,1.495-3.504c1.178-2.198,2.67-4.134,3.71-6.287c0.538-1.116,0.989-2.324,1.442-3.607
		c0.443-1.256,0.629-2.712,0.824-4.174c0.383-2.859,0.968-5.852,1.288-8.708c0.323-2.878,0.799-5.823,1.288-8.76
		c0.72-4.313,1.339-8.621,1.959-13.037c0.397-2.836,0.976-5.591,1.391-8.605c0.196-1.422,0.644-3.303,0.206-4.38
		c-0.371-0.913-1.39-1.304-2.474-0.979c-0.644,0.193-0.977,0.719-1.391,1.185c-0.6,1.694-1.049,3.463-1.494,5.256
		c-0.436,1.753-1.051,3.469-1.495,5.256c-0.641,2.585-1.34,5.184-2.164,7.986c-0.234,0.799-0.589,1.993-1.442,1.907
		c-0.98-0.098-0.664-2.135-0.567-3.04c0.377-3.506,0.776-7.097,1.083-10.512c0.321-3.589,0.691-6.837,1.133-10.461
		c0.256-2.092,0.53-4.54-1.288-5.049c-1.573-0.441-2.374,0.583-2.782,1.597c-0.414,1.027-0.528,2.252-0.824,3.452
		c-0.291,1.18-0.434,2.412-0.722,3.556c-0.606,2.408-0.993,4.766-1.546,7.008c-0.841,3.407-1.625,6.839-2.422,10.409
		c-0.223,0.998-0.348,2.493-1.648,2.628c-0.034,0-0.069,0-0.104,0c-1.281-0.38-0.831-1.898-0.772-2.885
		c0.209-3.55,0.59-7.069,0.824-10.667c0.238-3.658,0.551-7.169,0.824-10.717c0.117-1.523,0.496-3.565,0-4.741
		c-0.29-0.689-1.111-1.351-2.009-1.392c-2.357,0.202-2.638,2.301-3.093,4.638c-1.276,6.565-2.734,12.603-4.173,19.168
		c-0.238,1.086-0.568,2.498-0.877,3.813c-0.29,1.24-0.529,3.003-1.7,2.834c-0.921-0.133-0.84-1.46-0.722-2.73
		c0.32-3.428,0.41-7.089,0.773-10.203c0.258-2.215,0.279-4.519,0.464-6.853c0.079-1.004,0.178-2.213,0.258-3.401
		c0.075-1.124,0.278-2.438,0.052-3.349c-0.278-1.115-1.162-1.984-2.577-1.701c-0.674,0.135-1.217,0.681-1.546,1.237
		c-0.546,0.923-0.815,2.713-1.082,4.174c-0.277,1.513-0.617,3.106-0.876,4.38c-1.468,7.217-3.001,14.297-4.534,21.693
		c-0.25,1.208-0.732,3.298-1.906,3.298c-1.099,0-1.303-1.56-1.237-3.04c0.055-1.243,0.156-2.8,0.258-3.968
		c0.243-2.783,0.719-6.346-0.309-8.502c-0.873-1.831-2.743-2.629-4.483-3.452c0.043-1.581,0.368-3.171,0.618-4.792
		c0.6-3.88,1.28-7.922,1.907-11.851c0.113-0.715,0.048-1.604,0.669-2.061c12.938-0.068,25.725,0.051,38.646,0.051
		c3.165,0,6.209,0.103,9.532,0.103C58.715,0.175,59.778,0.012,60.748,0.382z M18.856,39.44c-4.106,0.595-7.637,2.657-9.996,5.307
		c-0.405,0.455-0.884,0.988-0.877,1.34c0.013,0.574,1.006,1.488,1.443,1.958c1.599,1.721,3.748,3.291,6.028,4.225
		c2.754,1.129,6.295,1.591,9.585,0.928c1.008-0.203,2.084-0.451,2.937-0.773c0.668-0.252,1.338-0.741,2.061-1.134
		c1.543-0.838,2.422-1.561,3.71-2.73c0.455-0.414,1.363-1.297,1.34-1.907c-0.018-0.444-0.687-1.121-1.082-1.597
		c-1.204-1.451-2.981-2.818-4.432-3.608c-2.443-1.329-5.382-2.269-8.657-2.112C19.978,39.382,19.567,39.337,18.856,39.44z"/>
	<path style="fill-rule:evenodd;clip-rule:evenodd;" d="M21.071,40.058c2.088-0.217,4.237,0.958,5.309,2.267
		c0.25,0.307,0.795,1.146,1.03,1.752c1.411,3.634-0.838,7.174-3.453,8.245c-0.873,0.357-1.797,0.432-2.628,0.413
		c-3.16-0.077-5.732-2.651-6.028-5.823c-0.325-3.48,2.018-5.962,4.586-6.699C20.242,40.111,20.716,40.095,21.071,40.058z"/>
</g>
<g id="Layer_1">
</g>
</svg>
