<?xml version="1.0" encoding="iso-8859-1"?>
<!-- Generator: Adobe Illustrator 19.2.0, SVG Export Plug-In . SVG Version: 6.00 Build 0)  -->
<svg version="1.1" xmlns="http://www.w3.org/2000/svg" xmlns:xlink="http://www.w3.org/1999/xlink" x="0px" y="0px"
	 viewBox="0 0 83.943 83.916" style="enable-background:new 0 0 83.943 83.916;" xml:space="preserve">
<g id="Architekturburo_x5F_Hans_x5F_Bosshard">
	<path style="fill-rule:evenodd;clip-rule:evenodd;" d="M53.163,0.33c0.077,8.458,0.221,17.993,0,26.788
		c-8.46,0.226-17.477,0.094-26-0.053c-0.21-4.254-0.196-8.841-0.105-13.446c0.079-3.967,0-8.009,0-12.029
		c0-0.758-0.151-1.393,0.473-1.523c0.854-0.178,2.122,0.052,3.204,0.052c6.439,0.002,12.939,0.053,19.382,0.053
		C51.147,0.173,52.188,0.053,53.163,0.33z"/>
	<path style="fill-rule:evenodd;clip-rule:evenodd;" d="M83.838,73.183c-0.554-0.062-0.758-0.748-1.051-1.207
		c-0.301-0.474-0.684-0.94-0.893-1.419c-8.997-14.132-17.94-28.318-26.946-42.44c-0.032-8.937-0.127-17.479,0.053-26.684
		c-0.004-0.074-0.009-0.148,0.052-0.157c0.647,0.44,1.478,1.984,1.944,2.731c4.11,6.593,8.46,13.176,12.554,19.697
		c4.16,6.627,8.169,13.111,12.554,19.749c0.258,0.392,0.587,0.92,0.893,1.419c0.325,0.53,0.77,1.067,0.84,1.418
		c0.18,0.9,0.08,2.362,0.052,3.309C83.671,57.232,84.091,65.214,83.838,73.183z"/>
	<path style="fill-rule:evenodd;clip-rule:evenodd;" d="M25.535,9.522c0.042,0.01,0.052,0.054,0.105,0.053
		c0.154,5.608,0.105,10.871,0.105,16.703c0,0.809-0.118,1.684,0,2.416c0.08,0.501,0.638,1.265,0.945,1.733
		c2.18,3.323,4.105,6.333,6.25,9.771c0.329,0.526,0.933,1.252,0.945,1.681c0.014,0.468-0.636,1.354-0.893,1.838
		c-1.543,2.919-3.118,5.797-4.728,8.667c-0.646,1.152-1.126,2.388-1.996,3.362c-8.519,0.163-17.426,0.17-25.895,0
		c0.216-1.01,0.827-1.625,1.208-2.469c1.732-3.781,3.869-7.35,5.831-11.031c3.896-7.312,8.008-14.319,11.976-21.745
		c1.402-2.624,3.027-5.439,4.465-8.142c0.513-0.964,0.963-1.924,1.523-2.731C25.416,9.578,25.472,9.547,25.535,9.522z"/>
	<path style="fill-rule:evenodd;clip-rule:evenodd;" d="M27.898,28.903c8.917,0.003,16.896-0.004,25.685,0.105
		c1.386,1.717,2.441,3.657,3.625,5.516c1.173,1.841,2.411,3.653,3.572,5.515c6.395,10.256,13.025,20.431,19.33,30.833
		c0.567,0.937,1.331,1.804,1.628,2.889c-8.378,0.159-17.34,0.131-26.001,0.053c-0.729-0.803-1.333-1.76-1.891-2.679
		c-2.268-3.738-4.67-7.453-7.038-11.188c-1.761-2.776-3.259-5.762-5.095-8.562c-3.557-5.424-7.069-11.048-10.61-16.703
		c-0.824-1.315-1.686-2.75-2.626-4.202c-0.316-0.488-0.894-1.106-0.735-1.471C27.779,28.96,27.836,28.93,27.898,28.903z"/>
	<path style="fill-rule:evenodd;clip-rule:evenodd;" d="M34.989,43.821c0.498,0.067,0.908,1.069,1.26,1.628
		c2.223,3.521,4.239,6.869,6.461,10.453c0.35,0.563,0.992,1.32,0.998,1.786c0.005,0.387-0.497,1.064-0.788,1.522
		c-4.388,6.893-8.679,13.994-13.026,20.854c-0.677,1.038-1.152,2.279-2.101,3.046c-0.232-7.338-0.158-15.078-0.158-22.743
		c0-1.101-0.168-2.316,0-3.257c0.086-0.481,0.594-1.144,0.893-1.681c2.106-3.787,4.226-7.816,6.303-11.451
		C34.861,43.903,34.913,43.851,34.989,43.821z"/>
	<path style="fill-rule:evenodd;clip-rule:evenodd;" d="M26.112,57.32c0.249,6.364,0.157,13.284,0.157,19.96
		c0,2.217,0.108,4.399-0.105,6.461c-8.412,0.229-17.307,0.218-26,0.053c-0.195-8.84-0.222-17.664-0.053-26.369
		c3.775-0.143,7.707-0.158,11.661-0.157C16.614,57.269,21.608,57.201,26.112,57.32z"/>
</g>
<g id="Layer_1">
</g>
</svg>
