<?xml version="1.0" encoding="iso-8859-1"?>
<!-- Generator: Adobe Illustrator 19.2.0, SVG Export Plug-In . SVG Version: 6.00 Build 0)  -->
<svg version="1.1" xmlns="http://www.w3.org/2000/svg" xmlns:xlink="http://www.w3.org/1999/xlink" x="0px" y="0px"
	 viewBox="0 0 77.401 77.88" style="enable-background:new 0 0 77.401 77.88;" xml:space="preserve">
<g id="Arflex">
	<path style="fill-rule:evenodd;clip-rule:evenodd;" d="M77.253,0.264c0.428,1.508-0.773,2.326-1.502,3.055
		c-0.802,0.802-1.648,1.588-2.354,2.404c-1.483,1.285-2.684,2.861-4.107,4.207c-4.25,4.018-8.168,8.318-12.369,12.519
		c-1.345,1.345-2.778,2.748-4.106,4.207c-3.326,3.652-6.582,7.075-10.166,10.616c-0.582,0.575-1.934,1.567-1.953,2.153
		c-0.012,0.371,0.686,0.903,1.052,1.302c1.116,1.215,2.33,2.494,3.455,3.555c1.665,1.57,3.161,3.211,4.657,4.708
		c3.088,3.088,6.386,6.241,9.314,9.415c1.49,1.614,3.179,3.066,4.708,4.657c3.818,3.974,7.725,7.775,11.668,11.718
		c0.728,0.728,1.989,1.5,1.752,2.804c-0.269,0.373-1.321,0.321-1.803,0.201c-0.804-0.202-1.721-1.52-2.404-2.204
		c-0.82-0.82-1.527-1.577-2.253-2.304c-4.569-4.569-9.303-9.072-13.722-13.671c-4.497-4.681-9.128-9.107-13.621-13.771
		c-1.124-1.167-2.289-2.239-3.455-3.405c-0.363-0.362-0.68-0.907-1.252-1.002c-1.025,0.386-1.714,1.324-2.404,2.104
		c-4.884,5.517-10.485,10.531-15.474,16.025c-0.701,0.772-1.514,1.499-2.253,2.253c-2.199,2.244-4.363,4.614-6.61,6.861
		c-2.996,2.997-5.817,6.168-8.914,9.064c-0.904-0.03-1.933,0.063-2.754-0.05c-0.013-0.575,0.547-0.998,0.901-1.353
		c1.143-1.143,2.345-2.345,3.456-3.555c9.908-10.34,19.859-20.639,29.847-30.898c0.363-0.399,0.803-0.644,1.202-1.152
		c0.261-0.332,0.945-0.921,0.952-1.352c0.006-0.417-0.718-0.976-1.001-1.353c-0.989-1.312-2.368-2.468-3.456-3.555
		c-1.686-1.687-3.14-3.271-4.657-4.657c-4.165-4.398-8.488-8.639-12.77-12.92c-2.144-2.144-4.23-4.352-6.46-6.41
		C6.174,8.429,4.283,6.046,2.136,3.92C1.513,2.839-0.664,2.087,0.234,0.114c0.124-0.042,0.268-0.065,0.451-0.05
		c1.01-0.263,1.872,1.086,2.554,1.753c2.09,2.04,4.17,4.137,6.06,6.26c0.639,0.718,1.341,1.389,2.053,2.053
		c7.718,7.199,15.181,15.432,22.585,22.635c1.087,1.071,2.234,2.376,3.405,3.656c0.326,0.356,0.897,0.994,1.302,1.002
		c0.36,0.006,0.894-0.639,1.302-1.052c2.723-2.76,5.499-5.41,8.113-8.213c3.861-4.139,7.742-7.809,11.618-11.768
		c0.769-0.785,1.603-1.559,2.304-2.354c1.473-1.67,3.174-3.074,4.707-4.607c1.499-1.498,2.942-3.142,4.557-4.757
		c0.708-0.708,1.524-1.523,2.304-2.354c0.631-0.673,1.691-2.069,2.454-2.203C76.516,0.023,76.971,0.106,77.253,0.264z"/>
	<path style="fill-rule:evenodd;clip-rule:evenodd;" d="M38.743,32.114c0.651-0.3,1.16-0.863,1.653-1.352
		c2.452-2.433,5-4.966,7.361-7.561c2.81-3.089,5.729-6.18,8.713-9.165c1.986-1.986,4.167-3.778,6.009-5.909
		c2.639-2.653,5.11-5.473,7.862-8.012c0.91,0.038,1.756-0.131,2.504,0.1c-0.384,1.068-1.423,1.481-2.003,2.354
		c-1.283,1.234-2.452,2.595-3.756,3.806c-1.311,1.217-2.39,2.642-3.706,3.856c-1.309,1.208-2.496,2.546-3.755,3.806
		c-1.252,1.252-2.542,2.466-3.706,3.806c-2.853,2.906-5.69,5.827-8.513,8.764c-2.026,2.298-4.286,4.361-6.36,6.61
		c-0.353,0.303-0.689,0.655-1.102,1.051c-0.312,0.3-0.813,0.957-1.202,0.952c-0.624-0.009-1.17-1.243-1.652-1.502
		c-4.643-4.73-9.399-9.599-14.122-14.322c-1.403-1.403-2.852-2.767-4.107-4.307C14.893,11.684,11.279,7.699,7.545,3.97
		C6.616,3.042,5.743,2.068,4.791,1.115C4.542,0.867,3.976,0.547,4.19,0.064c0.661-0.107,1.512-0.024,2.253-0.05
		C7.951,1.179,9.21,2.63,10.549,3.97c1.342,1.342,2.737,2.644,4.006,4.056c1.276,1.42,2.694,2.644,4.056,4.006
		c1.336,1.336,2.729,2.612,4.056,3.956c4.005,4.053,8.023,8.073,12.069,12.119C36.072,29.443,37.158,31.03,38.743,32.114z"/>
	<path style="fill-rule:evenodd;clip-rule:evenodd;" d="M11.952,0.014c1.325,0.855,2.291,2.143,3.455,3.205
		c1.165,1.062,2.238,2.188,3.355,3.305c2.187,2.186,4.37,4.454,6.66,6.66c3.313,3.191,6.556,6.707,9.916,10.066
		c0.436,0.436,0.98,1.13,1.602,1.752c0.435,0.435,1.246,1.538,1.753,1.552c0.562,0.017,1.439-1.139,1.803-1.503
		c1.693-1.693,3.245-3.268,4.958-4.958c3.173-3.418,6.349-6.842,9.765-10.016c1.708-1.586,3.083-3.479,4.808-5.058
		c1.717-1.572,3.186-3.392,4.957-4.908c0.854,0.03,1.833-0.063,2.604,0.05c0.026,0.45-0.388,0.811-0.651,1.102
		c-1.968,2.17-4.392,4.175-6.31,6.46c-2.964,3.128-6.068,6.118-9.114,9.164c-1.524,1.525-2.837,3.28-4.407,4.757
		c-1.562,1.471-2.916,3.164-4.507,4.607c-0.719,0.806-1.795,1.833-2.754,2.754c-0.307,0.295-0.65,0.796-1.001,0.801
		c-0.408,0.006-0.796-0.524-1.052-0.801c-0.339-0.368-0.639-0.616-0.951-0.901c-4.458-4.753-9.094-9.394-13.722-14.022
		c-1.155-1.155-2.301-2.353-3.505-3.455c-2.391-2.189-4.594-4.594-6.911-6.911c-0.862-0.862-1.718-1.718-2.604-2.604
		c-0.247-0.247-0.685-0.559-0.6-1.001C10.13-0.105,11.156,0.07,11.952,0.014z"/>
	<path style="fill-rule:evenodd;clip-rule:evenodd;" d="M62.13,0.214c-0.121,0.737-0.855,1.118-1.302,1.603
		c-2.329,2.523-4.796,5.096-7.261,7.562c-2.935,2.936-5.845,5.995-8.814,8.964c-0.991,0.992-1.886,2.059-2.904,3.005
		c-1.02,0.948-1.862,2.101-3.055,2.854c-1.175-0.578-1.806-1.699-2.805-2.454c-0.114-0.252-0.3-0.434-0.4-0.701
		c-3.845-3.762-7.48-7.675-11.418-11.368c-0.404-0.379-0.734-0.797-1.102-1.202c-1.766-1.945-3.727-3.808-5.609-5.709
		c-0.598-0.613-1.327-1.268-1.953-1.953c-0.163-0.178-0.502-0.462-0.301-0.751c0.809-0.109,1.814-0.022,2.704-0.05
		c1.911,1.571,3.575,3.408,5.258,5.208c1.681,1.797,3.501,3.485,5.158,5.308c2.625,2.524,5.233,5.105,7.762,7.912
		c0.328,0.365,0.762,0.863,1.251,1.353c0.328,0.328,1.006,1.185,1.402,1.202c0.512,0.022,1.062-0.811,1.453-1.202
		c3.02-3.02,6.238-6.033,9.114-9.165c2.544-2.384,5.126-5.326,7.762-7.962c0.364-0.364,0.845-0.781,1.302-1.302
		c0.411-0.468,0.895-1.129,1.352-1.252C60.433-0.077,61.474,0.176,62.13,0.214z"/>
	<path style="fill-rule:evenodd;clip-rule:evenodd;" d="M77.153,4.47c0.439,0.529,0.087,1.85,0.201,2.705
		c-0.965,1.642-2.485,2.836-3.806,4.156c-3.937,3.937-7.933,7.913-11.768,12.019c-2.714,2.568-5.133,5.312-7.862,8.013
		c-2.245,2.221-4.563,4.668-6.861,7.061c-0.305,0.317-0.844,0.848-0.851,1.102c-0.016,0.543,1.309,1.66,1.803,2.153
		c1.994,1.994,4.011,4.011,5.909,5.909c2.675,2.675,5.205,5.401,7.812,7.913c1.277,1.23,2.635,2.611,3.906,3.956
		c2.577,2.726,5.16,5.105,7.862,7.862c0.58,0.592,1.258,1.309,1.953,2.003c0.603,0.602,1.66,1.406,1.853,2.053
		c0.219,0.735,0.01,2.013-0.05,2.554c-0.463-0.115-0.829-0.552-1.151-0.902c-1.002-1.085-2.107-2.221-3.155-3.305
		c-4.99-5.025-10.069-9.962-15.023-15.023c-2.476-2.53-5.108-4.909-7.612-7.412c-1.251-1.251-2.478-2.531-3.706-3.806
		c-1.213-1.26-2.611-2.39-3.605-3.856c0.385-1.007,1.339-1.561,2.053-2.303c0.704-0.733,1.342-1.529,2.053-2.254
		c7.058-7.201,14.228-14.509,21.283-21.834c2.066-2.144,4.4-4.21,6.46-6.46c0.751-0.82,1.42-1.673,2.253-2.304
		C77.12,4.47,77.136,4.47,77.153,4.47z"/>
	<path style="fill-rule:evenodd;clip-rule:evenodd;" d="M0.234,4.671c0.721,0.307,1.733,1.533,2.303,2.103
		C3.326,7.563,3.965,8.308,4.59,9.028c1.39,1.599,3.119,2.78,4.357,4.307c4.301,4.337,8.627,8.526,13.02,12.92
		c3.73,3.73,7.393,7.593,11.267,11.468c0.416,0.415,1.491,1.301,1.502,1.703c0.011,0.37-0.604,0.841-1.001,1.202
		c-1.147,1.042-2.215,2.265-3.255,3.305c-3.015,3.015-5.715,5.815-8.714,8.814c-1.467,1.467-2.819,3.045-4.307,4.407
		c-0.74,0.678-1.457,1.495-2.153,2.254c-2.061,2.245-4.322,4.421-6.41,6.66c-1.406,1.507-2.889,2.963-4.307,4.456
		c-1.046,1.102-2.103,2.253-3.205,3.355c-0.351,0.351-0.65,0.879-1.202,0.952c-0.052-0.573-0.259-2.031-0.1-2.754
		c0.152-0.692,1.255-1.606,1.853-2.204c2.02-2.021,3.962-4.162,5.909-6.109c5.394-5.395,10.343-10.887,15.825-16.325
		c2.309-2.292,4.709-4.558,7.011-7.062c0.344-0.374,0.896-0.844,0.901-1.102c0.01-0.407-0.601-0.792-0.901-1.102
		c-0.975-1.004-2.07-2.092-2.955-3.005c-6.518-6.685-13.294-13.114-19.781-19.83c-2.612-2.663-5.521-5.029-7.862-7.962
		c-0.068-0.873-0.033-1.67,0-2.554C0.111,4.749,0.161,4.699,0.234,4.671z"/>
	<path style="fill-rule:evenodd;clip-rule:evenodd;" d="M0.234,10.33c0.853,0.483,2.19,1.817,2.904,2.604
		c1.797,1.979,3.603,3.602,5.458,5.458c4.506,4.506,9.128,9.175,13.571,13.622c1.745,1.877,3.682,3.562,5.358,5.508
		c0.314,0.458,1.734,1.105,1.752,1.853c0.021,0.863-1.366,1.253-1.702,2.003C19.501,49.311,11.871,57.69,3.939,65.766
		c-0.66,0.571-1.163,1.313-1.803,1.903c-0.627,0.579-1.145,1.319-1.953,1.703c-0.022-0.837-0.32-1.91-0.1-2.705
		c0.167-0.603,1.124-1.274,1.603-1.752c1.656-1.656,3.323-3.586,4.857-5.158c3.205-3.457,6.605-6.618,9.866-10.165
		c2.751-2.994,5.626-5.857,8.563-8.964c0.377-0.399,1.104-0.938,1.102-1.353c-0.002-0.423-1.111-1.311-1.553-1.752
		c-1.675-1.675-3.245-3.245-4.908-4.908c-2.748-2.747-5.442-5.542-8.263-8.163c-2.857-2.654-5.283-5.464-8.113-8.263
		c-0.481-0.476-1.018-1.029-1.602-1.652c-0.492-0.524-1.401-1.174-1.553-1.703c-0.185-0.644-0.005-1.704,0-2.354
		C0.111,10.408,0.161,10.358,0.234,10.33z"/>
	<path style="fill-rule:evenodd;clip-rule:evenodd;" d="M77.153,10.33c0.403,0.434,0.155,1.779,0.15,2.454
		c-0.829,1.33-2.02,2.371-3.104,3.455c-1.094,1.093-2.196,2.178-3.255,3.305c-5.452,5.465-10.732,11.103-16.225,16.525
		c-0.458,0.624-0.99,1.04-1.603,1.653c-0.396,0.397-1.478,1.196-1.502,1.753c-0.029,0.651,1.005,1.386,1.452,1.803
		c0.625,0.583,1.008,1.186,1.603,1.652c2.791,2.804,5.626,5.663,8.563,8.413c0.969,0.908,1.929,1.862,2.804,2.854
		c1.708,1.938,3.745,3.745,5.659,5.659c1.309,1.31,2.821,2.771,4.257,4.207c0.483,0.483,1.145,1.025,1.302,1.502
		c0.254,0.772,0.092,2.063,0,2.804c-0.766-0.342-1.319-1.019-1.903-1.602c-7.771-7.771-15.546-15.647-23.386-23.486
		c-0.541-0.541-1.173-1.119-1.853-1.753c-0.43-0.401-1.638-1.434-1.652-1.903c-0.018-0.551,1.21-1.51,1.652-1.953
		c8.981-8.982,17.801-18.351,26.842-27.242c0.037-0.047,0.091-0.076,0.15-0.1C77.12,10.33,77.136,10.33,77.153,10.33z"/>
	<path style="fill-rule:evenodd;clip-rule:evenodd;" d="M77.153,15.788c0.338,0.202,0.201,0.768,0.201,1.202
		c0,0.461,0.038,0.978-0.05,1.302c-0.272,0.996-1.891,2.003-2.454,2.754c-4.218,4.428-8.455,8.839-12.82,13.12
		c-1.104,1.453-2.564,2.503-3.856,3.957c-0.323,0.363-1.102,0.994-1.102,1.452c0,0.645,1.349,1.599,1.803,2.053
		c4.433,4.433,9.333,8.985,13.571,13.371c1.571,1.834,3.469,3.342,4.908,5.308c-0.058,0.844,0.12,1.923-0.101,2.604
		c-0.623-0.315-1.111-0.861-1.602-1.352c-3.368-3.368-6.644-6.873-10.166-10.216c-1.93-1.832-3.862-3.812-5.859-5.809
		c-1.439-1.438-2.849-2.849-4.357-4.356c-0.414-0.414-1.335-1.103-1.352-1.553c-0.022-0.585,0.906-1.257,1.302-1.652
		c0.545-0.545,1.021-1.094,1.452-1.452c3.408-3.42,6.702-6.953,10.116-10.366c3.405-3.405,6.72-6.901,10.166-10.266
		c0.037-0.047,0.091-0.076,0.15-0.1C77.12,15.788,77.136,15.788,77.153,15.788z"/>
	<path style="fill-rule:evenodd;clip-rule:evenodd;" d="M0.183,15.888c0.456,0.022,1.131,0.858,1.653,1.352
		c1.519,1.44,2.932,3.083,4.357,4.507c1.941,1.942,3.917,3.868,5.909,5.859c1.894,1.895,3.983,3.774,5.959,5.809
		c1.456,1.499,2.865,2.916,4.407,4.457c0.434,0.434,1.352,1.115,1.352,1.552c0,0.531-1.069,1.27-1.402,1.603
		c-0.566,0.566-1.087,1.092-1.452,1.552c-6.05,6.184-12.253,12.228-18.128,18.629c-0.417,0.455-0.867,0.867-1.302,1.302
		c-0.422,0.422-0.724,1.072-1.353,1.252c-0.069-0.771-0.252-1.839-0.1-2.554c0.222-1.042,2.086-1.899,2.504-2.804
		c0.904-0.865,1.705-1.834,2.604-2.704c4.215-4.599,8.739-8.889,12.97-13.471c0.414-0.301,0.799-0.849,1.302-1.352
		c0.344-0.344,1.173-0.927,1.202-1.402c0.028-0.464-0.746-1.08-1.152-1.452c-3.109-2.854-6.077-6.26-9.164-9.064
		c-0.899-0.817-1.744-1.744-2.604-2.604c-1.742-1.742-3.507-3.407-5.258-5.158c-0.865-0.864-1.746-1.732-2.454-2.704
		c0.03-0.805-0.062-1.732,0.05-2.454C0.126,15.998,0.113,15.902,0.183,15.888z"/>
	<path style="fill-rule:evenodd;clip-rule:evenodd;" d="M64.233,69.071c1.388,1.434,2.701,2.942,4.156,4.307
		c1.087,1.019,2.127,2.077,3.205,3.155c0.332,0.332,0.881,0.634,0.901,1.202c-0.749,0.215-1.912,0.066-2.754,0.05
		c-7.701-7.351-15.366-15.417-23.085-23.136c-1.905-1.905-3.772-3.822-5.759-5.809c-0.499-0.499-1.44-1.785-2.003-1.803
		c-0.595-0.018-1.7,1.399-2.053,1.753c-0.693,0.692-1.3,1.431-1.853,1.953c-4.381,4.501-8.795,8.964-13.121,13.521
		c-2.157,2.273-4.343,4.544-6.56,6.76c-2.22,2.22-4.292,4.588-6.61,6.711c-0.86-0.058-1.956,0.121-2.654-0.1
		c0.053-0.505,0.491-0.869,0.801-1.202c0.968-1.038,2.103-2.031,3.104-3.105c1.322-1.417,2.668-2.869,4.057-4.257
		c2.739-2.739,5.355-5.655,8.163-8.463c2.71-2.71,5.538-5.595,8.213-8.413c1.275-1.344,2.688-2.807,4.106-4.207
		c0.355-0.35,0.725-0.629,1.052-1.052c0.295-0.383,0.605-0.756,0.951-1.102c0.709-0.709,1.396-1.554,2.103-2.003
		c0.525-0.334,1.471,0.869,1.953,1.352C48.433,53.072,56.295,61.423,64.233,69.071z"/>
	<path style="fill-rule:evenodd;clip-rule:evenodd;" d="M67.137,77.685c-0.726,0.169-1.963,0.313-2.754,0.05
		c-0.483-0.161-0.957-0.895-1.452-1.352c-3.347-3.089-6.489-6.489-9.666-9.665C49.46,62.911,45.865,59.18,42.249,55.6
		c-0.513-0.527-0.959-1.009-1.552-1.603c-0.33-0.33-1.152-1.427-1.703-1.452c-0.509-0.023-1.4,1.049-1.753,1.402
		c-1.13,1.13-1.902,2.103-3.004,3.205c-2.582,2.582-5.227,5.513-7.662,7.912c-4.093,4.22-8.001,8.625-12.269,12.67
		c-0.824-0.061-1.895,0.126-2.554-0.1c-0.061-0.47,0.394-0.739,0.651-1.001c1.955-1.995,3.843-4.156,5.859-6.21
		c4.563-4.65,8.871-9.322,13.571-14.022c1.089-1.089,2.247-2.264,3.405-3.506c0.988-1.059,2.108-2.712,3.355-3.505
		c0.591-0.376,1.699,1.048,2.154,1.502c4.122,4.122,8.332,8.473,12.269,12.57c4.163,4.117,8.243,8.315,12.469,12.369
		C65.971,76.514,66.875,76.778,67.137,77.685z"/>
	<path style="fill-rule:evenodd;clip-rule:evenodd;" d="M61.228,77.685c-0.559,0.309-1.53-0.002-2.354,0.1
		c-5.073-4.843-9.944-9.888-14.873-14.874c-1.258-1.172-2.395-2.395-3.706-3.706c-0.309-0.309-0.978-1.084-1.352-1.102
		c-0.395-0.019-0.98,0.71-1.352,1.102c-2.715,2.861-5.447,5.898-8.263,8.714c-1.513,1.513-3.34,3.327-4.808,4.907
		c-1.093,1.177-2.301,2.452-3.555,3.706c-0.401,0.4-0.915,1.043-1.252,1.152c-0.607,0.195-2.204,0.065-2.705-0.101
		c0.17-0.651,0.752-1.102,1.202-1.552c3.198-3.198,6.291-6.441,9.565-9.715c1.779-1.779,3.547-3.848,5.358-5.659
		c1.331-1.331,2.658-2.808,4.057-4.207c0.34-0.34,1.193-1.487,1.603-1.452c0.524,0.045,1.087,0.837,1.552,1.302
		c1.415,1.415,2.959,2.809,4.307,4.157c1.864,1.864,3.732,3.933,5.559,5.759c1.918,1.918,3.88,3.731,5.659,5.659
		c1.36,1.473,2.732,2.881,4.157,4.307C60.473,76.629,61.076,77.029,61.228,77.685z"/>
</g>
<g id="Layer_1">
</g>
</svg>
