<?xml version="1.0" encoding="iso-8859-1"?>
<!-- Generator: Adobe Illustrator 19.2.0, SVG Export Plug-In . SVG Version: 6.00 Build 0)  -->
<svg version="1.1" xmlns="http://www.w3.org/2000/svg" xmlns:xlink="http://www.w3.org/1999/xlink" x="0px" y="0px"
	 viewBox="0 0 78.015 70.726" style="enable-background:new 0 0 78.015 70.726;" xml:space="preserve">
<g id="Argus_x5F_Press">
	<path style="fill-rule:evenodd;clip-rule:evenodd;" d="M77.856,40.085c0.175,9.862,0.228,19.63,0.05,29.591
		c-1.3,0.261-2.652,0.148-4.009,0.148c-4.011-0.001-8.395,0.116-12.32-0.05c-5.114-0.216-9.431-1.736-12.965-3.514
		c-5.473-2.751-9.534-7.086-12.37-12.42c-0.726-1.365-1.277-2.802-1.931-4.255c-0.193-0.432-0.267-1.016-0.742-1.287
		c-0.533,0.978,0.129,2.847-0.296,3.909c-2.312,0.268-4.905,0.149-7.472,0.148c-2.553,0-5.158,0.082-7.521-0.099
		c-0.249-3.467-0.149-7.603-0.149-11.481c0.001-1.276-0.116-2.559,0.149-3.711c3.449-0.286,7.451,0.099,10.737-0.247
		c-0.038-1.316-0.784-2.348-1.287-3.364c-1.409-1.244-2.828-2.448-4.948-2.97c-2.144-0.527-4.717-0.352-7.422-0.346
		c-3.757,0.009-7.887-0.074-11.579-0.05c-1.247,0.008-2.492,0.165-3.612-0.099c-0.193-9.172-0.147-18.49-0.149-28.304
		c0-0.796-0.186-1.55,0.594-1.633c1.142-0.122,2.408,0,3.612,0c3.554,0,7.235,0,10.887,0c4.807,0,10.081-0.242,14.102,0.593
		c8.056,1.675,14.169,5.514,18.308,11.035c1.091,1.455,2.036,2.879,2.821,4.553c0.773,1.65,1.345,3.412,2.078,5.244
		c1.416,3.541,2.824,7.162,4.156,10.54c1.358,3.447,2.871,6.833,6.928,7.769c2.056,0.475,4.67,0.198,7.125,0.198
		C73.045,39.985,75.522,39.905,77.856,40.085z"/>
	<path style="fill-rule:evenodd;clip-rule:evenodd;" d="M14.914,37.066c0.263,1.173,0.148,2.465,0.148,3.761
		c-0.001,3.738,0.045,7.888-0.049,11.431c-2.182,0.257-4.874,0.148-7.423,0.148c-2.586,0-5.154,0.064-7.373-0.099
		c-0.264-4.161-0.148-9.025-0.148-13.509c0-0.589-0.142-1.251,0.198-1.732C5.034,36.984,10.148,36.984,14.914,37.066z"/>
	<path style="fill-rule:evenodd;clip-rule:evenodd;" d="M33.223,55.078c0.271,3.582,0.148,7.757,0.148,11.678
		c0,1.305,0.093,2.572-0.099,3.761c-4.748,0.202-10.191,0.231-14.993,0.05c-0.166-5.002-0.173-10.685-0.05-15.439
		c2.302-0.178,5.13-0.148,7.817-0.148C28.448,54.979,30.867,54.897,33.223,55.078z"/>
	<path style="fill-rule:evenodd;clip-rule:evenodd;" d="M14.964,55.176c0.174,3.581,0.148,7.68,0.148,11.629
		c0,1.296,0.118,2.621-0.148,3.81c-4.028,0.034-7.973,0.519-10.787-0.841c-2.193-1.06-3.464-2.955-3.909-5.641
		c-0.339-2.039-0.198-4.476-0.198-6.978c0-0.738-0.158-1.952,0.297-2.078c0.062-0.018,0.233-0.042,0.297-0.049
		c2.307-0.277,4.821,0.14,7.274,0.049c1.182-0.044,2.368-0.049,3.513-0.049C12.653,55.028,13.849,54.908,14.964,55.176z"/>
</g>
<g id="Layer_1">
</g>
</svg>
