<?xml version="1.0" encoding="iso-8859-1"?>
<!-- Generator: Adobe Illustrator 21.0.2, SVG Export Plug-In . SVG Version: 6.00 Build 0)  -->
<svg version="1.1" xmlns="http://www.w3.org/2000/svg" xmlns:xlink="http://www.w3.org/1999/xlink" x="0px" y="0px"
	 viewBox="0 0 24.321 28.391" style="enable-background:new 0 0 24.321 28.391;" xml:space="preserve">
<g id="Art_x5F_Angels">
	<g>
		<path d="M8.668,0.067c0.24-0.127,0.545-0.026,0.811-0.064c3.508,7.991,7.067,15.963,10.734,23.885
			c0.813,1.576,1.886,3.338,3.785,3.678c0.402,0.002,0.316,0.4,0.314,0.674c-3.898,0.063-7.805,0.065-11.698,0.074
			c0.005-0.197,0.006-0.394-0.004-0.589c1.072-0.14,2.349-0.128,3.102-1.033c0.613-0.822,0.181-1.854-0.149-2.694
			c-2.952-6.51-5.794-13.066-8.731-19.584C7.497,2.989,8,1.49,8.668,0.067z"/>
		<path d="M2.596,14.718c0.252-0.005,0.505-0.003,0.757-0.004c1.255,2.652,2.436,5.344,3.665,8.01
			c0.563,1.352,1.277,2.657,2.249,3.76c0.627,0.69,1.531,1.021,2.411,1.251c-0.052,0.192,0.146,0.628-0.174,0.608
			c-3.826-0.014-7.651,0.06-11.475,0.046c-0.022-0.198-0.031-0.397-0.027-0.597c1.173-0.128,2.712-0.176,3.307-1.392
			c0.284-0.757-0.068-1.54-0.323-2.252c-0.726-1.659-1.506-3.297-2.217-4.959C1.315,17.682,2.014,16.219,2.596,14.718z"/>
	</g>
</g>
<g id="Layer_1">
</g>
</svg>
