<?xml version="1.0" encoding="iso-8859-1"?>
<!-- Generator: Adobe Illustrator 21.0.2, SVG Export Plug-In . SVG Version: 6.00 Build 0)  -->
<svg version="1.1" xmlns="http://www.w3.org/2000/svg" xmlns:xlink="http://www.w3.org/1999/xlink" x="0px" y="0px"
	 viewBox="0 0 44.169 37.646" style="enable-background:new 0 0 44.169 37.646;" xml:space="preserve">
<g id="Arteria">
	<path d="M11.41,0.169c1.548-0.228,3.116-0.089,4.673-0.147C20.653,0.01,25.228,0.01,29.8,0.006c2.007-0.05,4.055,0.216,5.905,1.03
		c1.928,0.776,3.55,2.211,4.716,3.917c1.579,2.162,2.421,4.765,2.952,7.363c0.627,3.124,0.788,6.319,0.763,9.499
		c-0.01,5.255,0.035,10.506,0.034,15.761c-6.676,0.062-13.359,0.024-20.034,0.036c-0.056-3.964-0.012-7.929-0.043-11.893
		c-0.021-0.102-0.161-0.055-0.235-0.067c-1.326,0.02-2.655-0.034-3.979,0.031c0.012,3.976-0.007,7.953,0.029,11.928
		c-6.622,0.058-13.247,0.025-19.87,0.033c-0.004-5.427-0.03-10.851-0.036-16.277c-0.013-3.389,0.162-6.809,0.958-10.115
		c0.834-3.232,2.213-6.51,4.83-8.703C7.369,1.213,9.379,0.467,11.41,0.169z M10.073,2.389C8.662,2.798,7.357,3.572,6.332,4.627
		c-1.789,1.798-2.801,4.205-3.478,6.612c-0.878,3.348-1.033,6.833-1.023,10.278c0.003,4.731,0.04,9.46,0.029,14.191
		c5.4,0.003,10.806-0.007,16.208-0.01c0.015-7.789-0.044-15.578-0.024-23.369c0.088-1.991,0.619-3.974,1.608-5.71
		c1.062-1.93,2.685-3.506,4.522-4.702c-3.12-0.013-6.241,0.009-9.361,0.001C13.224,1.922,11.607,1.916,10.073,2.389z M22.85,5.448
		c-0.164,0.132,0.095,0.249,0.176,0.343c1.812,1.742,2.808,4.246,2.86,6.744c0.02,3.724,0,7.45,0.037,11.172
		c2.558,0.006,5.116-0.003,7.675-0.001c0.008,0.646,0.003,1.293,0,1.939c-2.556-0.006-5.113,0.002-7.669,0.004
		c-0.011,3.348,0.009,6.695,0.005,10.043c5.446-0.025,10.895-0.019,16.342-0.032c0.035-4.934-0.029-9.877-0.011-14.817
		c-0.043-4.373-0.41-8.878-2.246-12.909c-0.774-1.704-1.964-3.236-3.511-4.304c-1.613-1.14-3.599-1.623-5.55-1.708
		C27.903,1.809,24.964,3.311,22.85,5.448z M21.597,7.05c-1.121,1.643-1.704,3.627-1.751,5.608c-0.001,3.689,0.036,7.374,0.03,11.063
		c1.407,0.013,2.819,0.025,4.223-0.017c-0.006-3.597-0.032-7.189-0.034-10.785C24.099,10.745,23.253,8.495,21.597,7.05z"/>
</g>
<g id="Layer_1">
</g>
</svg>
