<?xml version="1.0" encoding="iso-8859-1"?>
<!-- Generator: Adobe Illustrator 19.2.0, SVG Export Plug-In . SVG Version: 6.00 Build 0)  -->
<svg version="1.1" xmlns="http://www.w3.org/2000/svg" xmlns:xlink="http://www.w3.org/1999/xlink" x="0px" y="0px"
	 viewBox="0 0 79.94 65.358" style="enable-background:new 0 0 79.94 65.358;" xml:space="preserve">
<g id="Artemis_x5F_Verlag_x5F_40s">
	<path style="fill-rule:evenodd;clip-rule:evenodd;" d="M36.431,0c0.448,0.143,0.788,1.65,1.038,2.406
		c1.957,5.911,3.892,12.048,5.758,17.98c1.079,3.431,2.26,6.85,3.304,10.24c0.8,2.602,1.549,5.188,2.406,7.787
		c0.266,0.806,0.449,1.689,0.991,2.359c3.965,0.134,8.201-0.001,12.223,0c1.325,0,2.65,0.115,3.869-0.095
		c-0.006-0.472-0.477-0.693-0.755-0.944c-0.879-0.788-1.739-1.634-2.689-2.406c-0.918-0.773-1.773-1.602-2.69-2.406
		c-0.29-0.255-0.74-0.455-0.803-0.896c0.468-0.157,0.919,0.179,1.322,0.33c3.036,1.134,6.117,2.31,9.154,3.492
		c3.024,1.177,6.141,2.264,9.155,3.539c0.41,0.174,0.911,0.222,1.227,0.566c-0.232,0.457-0.813,0.516-1.227,0.66
		c-3.141,1.1-6.272,2.365-9.391,3.587c-2.701,1.058-5.466,1.987-8.164,3.021c-0.881,0.337-1.713,0.896-2.69,0.896
		c-0.009-0.448,0.482-0.719,0.803-0.991c0.336-0.286,0.696-0.578,1.038-0.802c0.617-0.61,1.313-1.141,1.981-1.699
		c0.621-0.622,1.358-1.128,1.982-1.746c0.664-0.563,1.512-0.941,1.841-1.841c-0.523-0.327-1.222-0.188-1.841-0.188
		c-1.96,0-3.949-0.02-5.852,0.047c-2.643,0.094-5.368-0.185-7.834,0.142c-0.032,0.8,0.327,1.566,0.566,2.312
		c1.168,3.646,2.461,7.394,3.634,11.185c0.536,1.731,0.951,4.038,2.076,5.097c1.449,1.362,4.37,0.415,6.89,0.802
		c0.221,0.389,0.133,1.248,0,1.699c-6.732,0.251-14.159,0.147-20.952,0.095c-0.21-0.409-0.212-1.389,0.047-1.746
		c1.874-0.434,5.312,0.759,5.616-1.274c0.101-0.675-0.246-1.707-0.472-2.454c-1.357-4.485-2.822-8.875-4.248-13.308
		c-0.231-0.718-0.4-1.461-0.849-2.029c-0.353,0.298-0.485,0.809-0.614,1.227c-1.992,6.475-4.007,13.06-6.135,19.49
		c-0.137,0.413-0.169,0.944-0.565,1.227c-0.398-0.168-0.373-0.667-0.473-0.991c-1.189-3.866-2.648-7.864-4.011-11.75
		c-0.25-0.712-0.444-1.46-0.708-2.171c-0.557-1.499-0.947-3.094-1.511-4.719c-0.285-0.825-0.507-1.689-0.99-2.407
		c-0.44,0.51-0.528,1.373-0.708,2.124c-1.055,4.409-2.207,8.952-3.304,13.544c-0.193,0.81-0.503,1.695-0.33,2.359
		c0.535,2.061,3.975,0.668,5.852,1.227c0.133,0.437,0.171,1.329-0.047,1.699c-4.862,0.188-10.256,0.095-15.195,0.047
		c-0.157-0.389-0.144-1.308,0-1.699c1.858-0.337,3.862,0.142,5.474-0.188c2.381-0.487,2.727-3.828,3.351-6.229
		c1.064-4.101,2.147-9.03,2.973-13.072c-0.855-0.253-1.921-0.142-2.973-0.142c-1.041,0-2.213-0.197-3.067,0.047
		c-0.424,0.121-0.874,0.682-1.274,1.038c-1.207,1.078-2.478,2.299-3.681,3.209c-1.295-0.045-2.439,0.139-3.539-0.047
		c0.049-0.618,0.797-0.928,1.18-1.368c0.446-0.419,0.929-0.801,1.368-1.228c0.888-0.858,1.868-1.624,2.644-2.595
		c-0.471-0.768-1.2-1.334-1.841-1.936c-0.649-0.608-1.287-1.229-1.935-1.841c-0.343-0.43-1.05-0.739-1.085-1.32
		c1.39,0.034,2.506-0.336,3.634-0.048c0.758,0.194,1.619,1.394,2.312,2.029c0.349,0.319,0.769,0.642,1.133,0.991
		c0.391,0.376,0.743,0.834,1.132,0.944c0.907,0.256,2.127,0.047,3.21,0.047c1.131,0,2.236,0.075,3.256-0.095
		c0.507-0.702,0.551-1.604,0.755-2.406c0.635-2.497,1.228-5.069,1.841-7.645c0.407-1.712,0.714-3.462,1.132-5.19
		c1.614-6.673,3.268-13.603,4.908-20.34c0.202-0.829,0.475-1.664,0.66-2.501c0.197-0.885,0.328-1.767,0.566-2.596
		C36.315,0.073,36.363,0.025,36.431,0z M34.166,15.855c-0.261,0.67-0.471,1.609-0.708,2.501c-1.363,5.122-2.412,10.289-3.634,15.337
		c-0.221,0.91-0.32,1.783-0.472,2.69c-0.245,1.463-0.877,2.869-0.896,4.341c1.062,0.386,2.393,0.139,3.633,0.143
		c1.79,0.005,3.642,0.087,5.475,0c1.564-0.075,3.135,0.17,4.578-0.143c-0.46-2.166-1.2-4.237-1.841-6.323
		c-1.937-6.303-3.854-12.503-5.898-18.687c-0.032,0-0.063,0-0.095,0C34.239,15.74,34.192,15.787,34.166,15.855z M37.327,42.943
		c-1.538-0.001-3.316-0.102-4.294,0.142c-0.01,0.818,0.403,1.55,0.66,2.312c0.814,2.408,1.416,4.797,2.312,7.032
		c0.136,0.5,0.346,1.038,0.519,1.557c0.166,0.497,0.26,1.116,0.708,1.369c0.386-0.384,0.369-0.986,0.519-1.463
		c0.799-2.539,1.657-5.092,2.454-7.646c0.323-1.033,0.741-2.066,0.802-3.161C40.003,42.832,38.672,42.943,37.327,42.943z"/>
	<path style="fill-rule:evenodd;clip-rule:evenodd;" d="M5.615,47.19c0.183-0.699,0.88-0.883,1.274-1.369
		c1.053-0.893,2.007-1.812,3.114-2.831c0.205-0.188,0.934-0.746,0.944-1.038c0.015-0.427-0.894-0.939-1.228-1.228
		c-0.871-0.75-1.619-1.693-2.454-2.454c-0.415-0.378-0.957-0.695-1.18-1.273c0.965-0.205,2.328-0.09,3.445-0.047
		c1.111,0.618,1.786,1.674,2.784,2.406c0.295,0.366,0.801,0.79,1.321,1.274c0.358,0.333,1.214,0.92,1.228,1.321
		c0.022,0.686-0.957,0.945-1.274,1.463c-0.484,0.428-0.944,0.881-1.416,1.321c-0.977,0.848-1.873,1.776-2.926,2.548
		C8.14,47.333,6.678,47.344,5.615,47.19z"/>
	<path style="fill-rule:evenodd;clip-rule:evenodd;" d="M0.33,36.902c1.148,0,2.297,0,3.444,0c1.254,1.011,2.68,2.482,4.059,3.728
		c0.406,0.366,1.183,0.903,1.18,1.368c-0.003,0.695-0.984,0.904-1.273,1.463c-1.475,1.248-2.784,2.658-4.342,3.822
		C2.294,47.225,0.947,47.406,0,47.19c0.139-0.597,0.767-0.894,1.18-1.274c1.284-1.185,2.733-2.408,3.917-3.729
		c-0.593-1.09-1.657-1.751-2.502-2.595c-0.428-0.429-0.871-0.819-1.321-1.228c-0.42-0.382-0.896-0.827-1.133-1.368
		C0.211,36.973,0.26,36.927,0.33,36.902z"/>
</g>
<g id="Layer_1">
</g>
</svg>
