<?xml version="1.0" encoding="iso-8859-1"?>
<!-- Generator: Adobe Illustrator 21.0.2, SVG Export Plug-In . SVG Version: 6.00 Build 0)  -->
<svg version="1.1" xmlns="http://www.w3.org/2000/svg" xmlns:xlink="http://www.w3.org/1999/xlink" x="0px" y="0px"
	 viewBox="0 0 17.707 17.918" style="enable-background:new 0 0 17.707 17.918;" xml:space="preserve">
<g id="Arvin_x5F_Industries">
	<path d="M13.155,0.031c0.315-0.05,0.636-0.023,0.953-0.026c1.461,0.109,2.846,1.077,3.382,2.452
		c0.147,0.405,0.233,0.837,0.214,1.269c-0.001,3.511-0.002,7.021,0.001,10.531c-0.007,1.316-0.803,2.581-1.976,3.172
		c-0.536,0.278-1.139,0.409-1.74,0.432c-0.499-0.032-1.005-0.104-1.462-0.32c-0.925-0.378-1.666-1.168-2.011-2.103
		c-0.205-0.541-0.238-1.126-0.229-1.698c0.001-2.899-0.001-5.799,0.001-8.698c0.015-0.36-0.206-0.728-0.561-0.83
		C9.403,4.129,9.027,4.17,8.768,4.396c-0.184,0.158-0.255,0.41-0.269,0.645c0.001,2.975,0,5.951,0.001,8.927
		c-0.015,0.881-0.337,1.749-0.878,2.442c-0.31,0.342-0.639,0.676-1.045,0.902c-0.562,0.335-1.202,0.53-1.851,0.6
		c-0.308,0.009-0.617,0.006-0.926,0.001c-1.035-0.115-2.034-0.604-2.728-1.385c-0.773-0.853-1.182-2.042-1.046-3.19
		c0.057-0.604,0.302-1.172,0.591-1.698c0.563-1.051,1.462-1.854,2.288-2.693c0.364-0.301,0.686-0.648,1.021-0.98
		C4.834,7.101,5.689,6.178,6.613,5.33c0.512-0.48,1-0.985,1.502-1.477C8.69,3.365,9.188,2.792,9.765,2.305
		c0.41-0.412,0.853-0.788,1.291-1.171C11.641,0.593,12.347,0.132,13.155,0.031z"/>
</g>
<g id="Layer_1">
</g>
</svg>
