<?xml version="1.0" encoding="iso-8859-1"?>
<!-- Generator: Adobe Illustrator 19.2.0, SVG Export Plug-In . SVG Version: 6.00 Build 0)  -->
<svg version="1.1" xmlns="http://www.w3.org/2000/svg" xmlns:xlink="http://www.w3.org/1999/xlink" x="0px" y="0px"
	 viewBox="0 0 81.288 82.475" style="enable-background:new 0 0 81.288 82.475;" xml:space="preserve">
<g id="Asahi_x5F_Kasei">
	<path style="fill-rule:evenodd;clip-rule:evenodd;" d="M11.586,0.122c0.023,0.046,0.045,0.093,0.104,0.103
		c0.09,5.804,0.104,11.464,0.104,17.142c0,5.745-0.283,11.421-0.053,17.193c0.111,2.756-0.059,5.635,0,8.493
		c0.029,1.371-0.022,2.784,0,4.194c0.023,1.427-0.011,2.847,0.053,4.194c0.066,1.432-0.121,2.875-0.053,4.351
		c0.182,3.877-0.6,9.214,1.088,12.015c1.228,2.038,3.039,2.641,6.37,2.641c8.622,0.001,17.718,0.052,26.618,0.053
		c11.82,0,23.879-0.215,35.268,0c0.01,0.041,0.051,0.051,0.051,0.103c0.143,3.593,0.174,7.91,0,11.652
		c-1.625,0.312-3.312,0.137-4.971,0.103c-4.992-0.099-10.088,0.051-15.227,0.052c-13.553,0.003-27.553,0.05-41.17,0.052
		c-1.838,0-3.543,0.078-5.023-0.155c-4.371-0.691-7.543-2.543-10.098-5.334C2.234,74.338,0.204,70.8,0.089,65.995
		c-0.2-8.38,0.001-17.259,0-25.583C0.088,28.234,0.035,16.943,0.037,4.835c0-1.249,0.017-2.462,0.052-3.728
		C0.098,0.76-0.037,0.318,0.296,0.07C3.932,0.007,8.031-0.071,11.586,0.122z"/>
	<path style="fill-rule:evenodd;clip-rule:evenodd;" d="M81.084,58.641c-19.133,0.131-38.574,0.26-57.795,0.052
		c-0.205-1.37-0.104-2.823-0.104-4.247c0-10.074-0.151-20.552,0.052-30.45c1.321-0.243,2.702-0.107,4.091-0.155
		c1.375-0.048,2.777,0.052,4.195,0.052c8.535-0.002,17.785-0.188,26.463,0.052c0.166,1.827,0.15,3.796,0.104,5.748
		c-0.047,1.925,0.266,3.976-0.104,5.749c-7.359,0.287-15.381-0.088-22.734,0.206c-0.273,0.792-0.156,1.733-0.156,2.642
		c0,2.668-0.084,5.739,0.105,8.285c1.279,0.281,2.742,0.156,4.246,0.156c4.148,0,8.49-0.052,12.791-0.052
		c5.822-0.001,11.607,0.097,17.193-0.155c0.215-8.201,0.104-16.743,0.104-25.272c0-1.737,0.121-3.453-0.26-4.816
		c-0.731-2.619-2.736-4.234-5.645-4.557c-1.621-0.18-3.367-0.052-5.074-0.052c-10.17-0.001-20.471,0.053-30.4,0.052
		c-1.643,0-3.305,0.118-4.919-0.155c-0.173-3.576-0.171-7.869,0-11.445c2.649-0.266,5.388-0.103,8.183-0.103
		c6.949,0,14.215-0.05,21.336-0.052c3.262-0.001,6.357,0.001,9.477,0c1.734,0,3.451-0.06,5.023,0.207
		c2.77,0.473,5.279,1.801,7.146,3.314c3.73,3.023,6.783,7.364,6.785,14.086c0,3.436-0.002,6.975,0,10.461
		c0,3.416-0.232,6.829,0,10.099c0.229,3.243-0.002,6.728,0,10.15C81.187,51.833,81.34,55.248,81.084,58.641z"/>
</g>
<g id="Layer_1">
</g>
</svg>
