<?xml version="1.0" encoding="iso-8859-1"?>
<!-- Generator: Adobe Illustrator 19.2.0, SVG Export Plug-In . SVG Version: 6.00 Build 0)  -->
<svg version="1.1" xmlns="http://www.w3.org/2000/svg" xmlns:xlink="http://www.w3.org/1999/xlink" x="0px" y="0px"
	 viewBox="0 0 79.481 69.406" style="enable-background:new 0 0 79.481 69.406;" xml:space="preserve">
<g id="Asakura_x5F_Architects_x5F_and_x5F_Associates">
	<path style="fill-rule:evenodd;clip-rule:evenodd;" d="M39.741,0c0.032,0,0.064,0,0.097,0c3.365,5.744,6.601,11.554,9.971,17.293
		c3.368,5.734,6.6,11.553,9.971,17.293c5.05,8.598,9.892,17.325,14.981,25.915c1.269,2.141,2.458,4.332,3.757,6.503
		c0.421,0.704,0.915,1.462,0.963,2.312c-10.789,0.102-22.114,0.048-33.189,0.048c-0.746,0-1.696,0.116-2.167-0.048
		c-0.538-0.188-1.121-1.649-1.493-2.312c-0.484-0.862-0.965-1.646-1.397-2.409c-0.943-1.664-1.792-3.404-2.649-4.914
		c-3.784-6.661-7.227-12.81-10.934-19.413c-1.543-2.748-3.175-5.613-4.817-8.478c-0.226-0.395-0.621-1.043-0.626-1.252
		c-0.012-0.439,0.744-1.498,1.011-1.975c1.068-1.905,2.215-3.842,3.276-5.685c4.391-7.628,8.846-15.12,13.102-22.736
		C39.623,0.075,39.672,0.027,39.741,0z"/>
	<path style="fill-rule:evenodd;clip-rule:evenodd;" d="M19.509,35.309c0.032,0,0.065,0,0.097,0
		c3.367,5.535,6.456,11.24,9.634,16.908c2.37,4.227,4.79,8.437,7.226,12.669c0.407,0.707,0.748,1.461,1.156,2.167
		c0.403,0.698,0.969,1.343,1.108,2.168c-1.777,0.186-3.662,0.096-5.54,0.096c-5.527,0-11.049-0.009-16.571-0.048
		c-0.824-1.116-1.454-2.355-2.168-3.564c-1.758-2.981-3.463-5.986-5.202-9.104c-0.279-0.5-0.951-1.469-0.963-1.879
		c-0.018-0.577,1.074-1.967,1.349-2.456c2.734-4.869,5.476-9.708,8.286-14.5c0.468-0.799,0.964-1.63,1.445-2.36
		C19.4,35.36,19.452,35.332,19.509,35.309z"/>
	<path style="fill-rule:evenodd;clip-rule:evenodd;" d="M5.588,59.442c0.041-0.009,0.046,0.019,0.048,0.048
		c0.628,0.683,1.023,1.549,1.493,2.36c0.915,1.58,1.831,3.218,2.746,4.865c0.45,0.81,1.079,1.543,1.253,2.456
		c-0.834,0.253-1.787,0.145-2.746,0.145c-1.846,0-3.788,0-5.684,0c-0.94,0-1.885,0.116-2.698-0.145
		c0.198-0.934,0.787-1.711,1.253-2.505c0.929-1.583,1.817-3.165,2.746-4.769c0.46-0.794,0.945-1.63,1.445-2.36
		C5.479,59.494,5.531,59.466,5.588,59.442z"/>
</g>
<g id="Layer_1">
</g>
</svg>
