<?xml version="1.0" encoding="iso-8859-1"?>
<!-- Generator: Adobe Illustrator 19.2.0, SVG Export Plug-In . SVG Version: 6.00 Build 0)  -->
<svg version="1.1" xmlns="http://www.w3.org/2000/svg" xmlns:xlink="http://www.w3.org/1999/xlink" x="0px" y="0px"
	 viewBox="0 0 83.059 42.378" style="enable-background:new 0 0 83.059 42.378;" xml:space="preserve">
<g id="Asama_x5F_Motor_x5F_Lodge">
	<path style="fill-rule:evenodd;clip-rule:evenodd;" d="M51.987,33.9c3.203,0.16,7.075,0.161,10.277,0
		c0.343-0.828,0.193-1.939,0.193-3.039c0-7.237,0.102-14.536-0.096-22.001c-3.263-0.315-6.646,0.056-9.939-0.193
		c0.038-0.38,0.509-0.478,0.772-0.627c4.105-2.326,8.383-4.49,12.545-6.899c0.493-0.286,1.533-0.961,1.978-0.965
		c0.426-0.004,1.395,0.658,1.882,0.917c4.212,2.241,8.499,4.668,12.641,6.948c0.294,0.188,0.769,0.195,0.82,0.627
		c-3.22,0.253-6.977-0.029-10.277,0.145c-0.26,1.382-0.144,2.863-0.144,4.342c0,4.363-0.001,8.921,0,13.316
		c0,3.088,0.232,6.19-0.048,8.878c-0.257,2.464-1.794,4.336-3.426,5.452c-0.846,0.578-1.918,1.116-3.136,1.351
		c-1.186,0.229-2.739,0.126-4.198,0.145c-2.861,0.036-5.894,0.134-8.637,0.048c-1.547-0.049-3.07,0.048-4.342-0.097
		c-3.81-0.434-5.807-3.053-7.092-6.224c-0.455,0.253-0.46,0.824-0.627,1.206c-1.2,2.75-3.705,4.774-7.479,5.018
		c-2.224,0.144-4.657,0-7.092,0c-4.796,0-9.458,0-14.233,0c-2.421,0-4.73,0.161-6.61-0.531c-3.476-1.279-5.5-4.187-5.5-8.83
		c0-2.454,0-4.918,0-7.189c0-2.437,0.647-4.125,1.688-5.452c1.046-1.331,2.481-2.393,4.294-2.895c1.809-0.5,4.338-0.289,6.851-0.289
		c9.429,0,18.985,0.053,28.322-0.048c0.323-1.097,0.193-2.546,0.193-3.957c0-1.395,0.111-2.868-0.145-4.004
		c-5.002-0.177-10.169-0.097-15.294-0.097c-5.146,0-10.293-0.101-15.247,0.097c-0.374,0.961,0.058,2.727-0.241,3.763
		c-3.339,0.184-7.253,0.115-10.518-0.096C-0.623,5.667,2.065,0.416,8.419,0.078c3.316-0.176,6.601,0,9.843,0
		c6.465,0,12.757,0.048,19.492,0.048c3.058,0,7.009-0.256,9.119,0.675c1.193,0.526,1.916,1.26,2.75,2.171
		c0.824,0.9,1.457,1.831,1.882,3.04C51.747,6.7,51.807,7.3,51.891,8.088c0.073,0.683-0.021,1.41-0.048,2.219
		c-0.054,1.545,0,3.175,0,4.777c0,3.186-0.05,6.365,0.048,9.504C51.989,27.713,51.641,30.846,51.987,33.9z M26.609,25.602
		c-5.209,0.18-11.116-0.261-15.922,0.096c-0.16,2.513-0.161,5.69,0,8.202c0.578,0.253,1.242,0.145,1.881,0.145
		c6.062,0,11.617,0,17.514,0c3.807,0,7.627,0.164,11.338-0.097c0.18-2.388,0.147-5.717,0-8.25
		C36.629,25.646,31.637,25.427,26.609,25.602z"/>
</g>
<g id="Layer_1">
</g>
</svg>
