<?xml version="1.0" encoding="iso-8859-1"?>
<!-- Generator: Adobe Illustrator 19.2.0, SVG Export Plug-In . SVG Version: 6.00 Build 0)  -->
<svg version="1.1" xmlns="http://www.w3.org/2000/svg" xmlns:xlink="http://www.w3.org/1999/xlink" x="0px" y="0px"
	 viewBox="0 0 77.317 77.763" style="enable-background:new 0 0 77.317 77.763;" xml:space="preserve">
<g id="asgard-Verlag_x5F_Dr_x5F_Werner_x5F_Hippe">
	<path style="fill-rule:evenodd;clip-rule:evenodd;" d="M77.157,0.117c0.158,25.455,0.241,51.476,0.049,77.481
		c-6.216,0.176-12.574,0.097-18.854,0.096c-6.229,0-12.479,0.206-18.517-0.096c-0.16-10.336-0.16-21.357,0-31.743
		c1.83-0.293,3.8-0.053,5.675-0.096c1.829-0.042,3.71-0.093,5.531,0.096c0.224,6.567-0.129,13.794,0.144,20.681
		c0.527-0.103,0.617-0.734,0.817-1.106c3.014-5.605,6.013-11.426,8.994-17.122c0.45-0.86,0.787-1.816,1.442-2.549
		c3.905-0.134,8.319,0.097,12.312-0.145c0.256-0.853,0.145-1.768,0.145-2.645c0-4.547-0.001-9.253,0-13.755
		c0-1.802-0.133-3.622-0.048-5.387c0.164-3.444-0.108-7.006,0.048-10.437c0.166-3.66-0.083-7.213-0.145-10.821
		c-1.447-0.361-2.939-0.026-4.425-0.097c-4.248-0.202-8.924,0-13.467,0c-18.215,0.002-36.075-0.079-54.299,0
		C2.22,3.26,2.418,4.132,2.418,4.974c0.001,13.567-0.083,27.001,0.096,40.544c0.615,0.241,1.335,0.183,2.02,0.192
		c5.007,0.067,10.763,0.048,15.919,0.048c5.212,0,10.36-0.023,15.535-0.048c0.675-0.003,1.382-0.066,2.019,0.144
		c0.193,5.348,0.097,10.612,0.097,15.92c0,2.615,0.121,5.288,0.048,7.936c-0.072,2.638,0.044,5.319-0.145,7.888
		c-1.48,0.263-3.03,0.096-4.568,0.096c-1.598,0-3.215,0.108-4.81,0.048c-4.71-0.178-9.267-0.048-14.092-0.048
		c-4.78,0-9.622,0.08-14.381-0.096c-0.267-3.242-0.097-6.774-0.096-10.292c0-3.513-0.124-7.031,0.096-10.293
		c7.479-0.225,15.262-0.048,22.797-0.048c1.035,0,2.065,0.113,3.03-0.145c0.127-0.333,0.129-0.954,0.048-1.347
		c-1.024-0.299-2.105-0.096-3.174-0.144c-3.143-0.143-6.368-0.049-9.571-0.048c-4.375,0.001-8.813,0.079-13.13-0.096
		C0.003,36.835-0.079,18.667,0.109,0.117C7.39-0.114,15.29,0.069,22.761,0.069C40.993,0.069,59.007-0.02,77.157,0.117z
		 M73.598,49.366c-2.079,4.049-4.274,8.09-6.252,12.024c-2.062,4.1-4.149,8.029-6.253,11.976c-0.3,0.563-0.726,1.118-0.77,1.78
		c1.019,0.185,2.186,0.144,3.367,0.144c3.832-0.001,7.75,0.065,11.109-0.144c0.16-8.992,0.16-18.617,0-27.559
		c-0.048,0-0.057-0.04-0.096-0.048C74.261,47.974,73.939,48.702,73.598,49.366z M15.259,66.248c-0.833,0-2.052-0.187-2.692,0
		c-0.505,0.147-0.465,0.98-0.241,1.491c4.449,0.143,9.398,0.207,13.659,0c0.156-0.332,0.151-1.121-0.048-1.395
		C22.585,66.217,18.961,66.248,15.259,66.248z"/>
</g>
<g id="Layer_1">
</g>
</svg>
