<?xml version="1.0" encoding="iso-8859-1"?>
<!-- Generator: Adobe Illustrator 21.0.2, SVG Export Plug-In . SVG Version: 6.00 Build 0)  -->
<svg version="1.1" xmlns="http://www.w3.org/2000/svg" xmlns:xlink="http://www.w3.org/1999/xlink" x="0px" y="0px"
	 viewBox="0 0 56.071 25.372" style="enable-background:new 0 0 56.071 25.372;" xml:space="preserve">
<g id="Aspect">
	<g>
		<path d="M9.904,2.168c0.765-1.517,2.599-2.452,4.272-2.09c0.543,0.027,1.003,0.427,1.502,0.509
			c1.728-1.101,4.152-0.522,5.303,1.14c3.207,6.6,6.447,13.192,9.847,19.697c0.013-4.983,0.053-9.959,0.058-14.942
			c-0.113-1.293,0.968-2.567,2.268-2.647c0.54-0.013,1.08,0.008,1.62-0.008c0.019-0.578-0.038-1.161,0.047-1.735
			c0.223-0.987,1.035-1.837,2.056-1.983c1.565-0.118,3.15,0.027,4.721-0.057c2.544,0.05,5.092,0.01,7.637,0.023
			c2.074-0.023,4.151,0.938,5.409,2.602c1.532,1.916,1.867,4.707,0.829,6.929c-0.056,0.501,0.09,1.007-0.003,1.512
			c-0.203,3.534-3.579,6.495-7.114,6.196c-3.068-0.04-6.14,0.014-9.208-0.034c-1.584-0.137-2.641-2-1.95-3.432
			c0.389-0.888,1.331-1.485,2.298-1.475c2.548,0.007,5.098-0.013,7.643,0.024c1.552-0.057,3.239,0.238,4.662-0.552
			c1.035-0.489,1.961-1.317,2.438-2.363c-0.418-2.375-2.586-4.303-4.99-4.463c-2.217-0.052-4.439-0.008-6.658-0.028
			c-2.227,0.016-4.457-0.072-6.683-0.005c-0.041,5.202-0.043,10.401-0.062,15.606c-0.024,1.23,0.158,2.543-0.41,3.683
			c-0.866,1.471-3.181,1.415-4.179,0.106c-0.545,0.587-1.337,0.891-2.126,0.932c-1.262,0.059-2.443-0.722-3.073-1.784
			c-3.39-6.789-6.575-13.673-9.908-20.489c-0.149-0.333-0.304-0.672-0.567-0.931c-0.156,0.212-0.325,0.419-0.44,0.658
			c-1.816,3.704-3.669,7.39-5.517,11.08C8.009,17.224,6.321,20.57,4.628,23.91c-0.727,1.351-2.774,1.635-3.86,0.565
			c-0.938-0.79-0.973-2.232-0.342-3.223C3.57,14.884,6.817,8.563,9.904,2.168z M10.822,2.854C7.704,9.328,4.412,15.721,1.25,22.175
			c-0.41,0.797,0.26,1.879,1.16,1.833c0.543,0.06,1.053-0.281,1.285-0.76c3.331-6.599,6.574-13.238,9.865-19.857
			c0.349-0.657,0.615-1.366,1.088-1.948C13.293,0.658,11.425,1.461,10.822,2.854z M16.568,1.412c0.002,0.03,0.006,0.091,0.007,0.121
			c0.416,0.43,0.567,1.025,0.865,1.528c3.151,6.619,6.307,13.23,9.56,19.805c0.566,1.358,2.64,1.868,3.544,0.578
			c-3.48-6.891-7.053-13.741-10.307-20.739C19.603,1.417,17.871,0.756,16.568,1.412z M35.903,2.671c0,0.387-0.003,0.774-0.002,1.161
			c4.341,0.02,8.673,0.021,13.01,0.042c2.526-0.03,4.859,1.605,5.971,3.829c0.06-0.612,0.1-1.23-0.038-1.836
			c-0.361-2.538-2.715-4.582-5.268-4.646c-4.096-0.024-8.192-0.003-12.288-0.019C36.525,1.185,35.846,1.914,35.903,2.671z
			 M33.284,4.958c-0.657,0.073-1.273,0.65-1.273,1.333c0.002,5.062-0.033,10.118-0.045,15.179c0.007,0.599-0.009,1.205-0.16,1.788
			c0.396,0.7,1.244,1.237,2.052,0.908c0.852-0.214,0.819-1.276,0.861-1.974c0.01-5.626,0.011-11.253,0.058-16.876
			c0.003-0.117-0.016-0.233-0.033-0.348C34.257,4.949,33.77,4.958,33.284,4.958z M49.436,13.543
			c-3.378-0.011-6.756-0.002-10.133-0.006c-0.769,0.035-1.356,0.902-1.14,1.631c0.186,0.814,1.098,1.089,1.836,0.998
			c2.964,0,5.928,0,8.892,0.008c2.643-0.026,5.083-2.142,5.405-4.778C53.05,12.717,51.268,13.574,49.436,13.543z"/>
	</g>
</g>
<g id="Layer_1">
</g>
</svg>
