<?xml version="1.0" encoding="iso-8859-1"?>
<!-- Generator: Adobe Illustrator 19.2.0, SVG Export Plug-In . SVG Version: 6.00 Build 0)  -->
<svg version="1.1" xmlns="http://www.w3.org/2000/svg" xmlns:xlink="http://www.w3.org/1999/xlink" x="0px" y="0px"
	 viewBox="0 0 66.079 76.522" style="enable-background:new 0 0 66.079 76.522;" xml:space="preserve">
<g id="Associazione_x5F_Pittura_x5F_Pavia">
	<path style="fill-rule:evenodd;clip-rule:evenodd;" d="M44.772,31.047c-0.432,1.395-1.6,2.343-2.543,3.322
		c-1.915,1.988-3.909,3.884-5.918,5.814c-0.496,0.476-0.962,0.978-1.454,1.453c-0.486,0.471-0.943,1.02-1.558,1.35
		c-0.997-0.466-1.595-1.44-2.336-2.181c-2.212-2.212-4.473-4.477-6.696-6.749c-0.76-0.676-1.405-1.479-2.284-2.233
		c-0.211-0.181-0.648-0.459-0.675-0.778c-0.032-0.399,0.384-0.822,0.468-1.142c0.243-0.938,0.163-2.434,0.103-3.789
		c-0.049-1.109,0.215-3.029-0.727-3.115c-0.962-0.088-1.542,1.366-1.765,2.18c-0.135,0.495-0.231,1.052-0.312,1.557
		c-0.083,0.524,0.043,1.138-0.312,1.505c-0.647-0.113-0.299-1.224-0.83-1.453c-0.247-0.117-0.67-0.058-0.935-0.156
		c-1.069-0.644-1.823-1.648-2.699-2.492c-0.864-0.832-1.783-1.671-2.44-2.7c0.636-1.09,1.615-1.927,2.492-2.803
		c0.896-0.896,1.787-1.737,2.647-2.647c1.713-1.812,3.376-3.687,5.14-5.451c1.766-1.766,3.632-3.425,5.347-5.243
		c1.712-1.815,3.539-3.523,5.347-5.243c0.146,0.042,0.135-0.074,0.26-0.052c0.706,0.029,1.19,0.642,1.609,1.09
		c2.952,3.164,6.192,6.245,9.292,9.344c2.659,2.659,5.28,5.356,7.891,8.098c0.426,0.447,0.872,0.892,1.298,1.35
		c0.422,0.453,1.008,0.853,1.143,1.505c-0.1,0.681-0.714,1.101-1.143,1.557c-1.261,1.345-2.538,2.737-3.997,3.945
		c-0.408,0.104-0.724,0.005-1.038,0.208c-0.436,0.281-0.384,1.54-0.831,1.557c-0.479,0.019-0.363-0.975-0.415-1.454
		c-0.059-0.548-0.119-1.166-0.208-1.609c-0.146-0.736-0.564-2.243-1.401-2.284c-1.069-0.052-1.077,1.517-1.09,2.751
		c-0.015,1.363-0.236,2.656-0.052,3.738C44.243,30.35,44.661,30.426,44.772,31.047z M36.362,18.847c0.036-0.976,0.075-2.032,0-3.011
		c-0.1-1.298-0.786-3.632-2.076-3.582c-0.59,0.023-0.783,0.902-0.831,1.609c-0.115,1.713,0.108,3.711,0.052,5.243
		c0.702,0.962,1.503,2.172,2.596,2.543C36.542,20.972,36.324,19.872,36.362,18.847z M31.379,20.664
		c0.412-0.447,0.966-0.792,1.194-1.297c0.501-1.112,0.07-3.228,0.155-4.776c0.044-0.805,0.032-2.645-1.038-2.284
		c-2.317,0.782-1.89,5.159-1.921,7.995c-0.006,0.541-0.245,1.097,0.207,1.454C30.576,21.663,30.971,21.106,31.379,20.664z
		 M27.797,24.246c0.379-0.399,0.891-0.772,1.09-1.35c0.211-0.612,0.047-1.661,0.104-2.699c0.069-1.235,0.268-2.166,0.156-3.063
		c-0.166-1.34-1.228-1.437-1.869-0.571c-0.479,0.647-0.902,1.871-1.038,3.219c-0.091,0.897,0,1.903,0,2.855
		c0,0.971-0.184,2.022,0.26,2.648C27.044,25.258,27.422,24.616,27.797,24.246z M39.893,22.013c-0.038-0.823,0.085-1.644,0.052-2.388
		c-0.065-1.475-0.761-3.423-1.921-3.582c-0.537-0.074-0.826,0.797-0.883,1.402c-0.088,0.945-0.084,2.056-0.104,3.115
		c-0.013,0.685-0.075,1.697,0.155,2.336c0.191,0.529,0.695,0.89,1.091,1.246c0.441,0.398,0.854,0.901,1.35,1.038
		C40.122,24.469,39.95,23.257,39.893,22.013z M24.215,27.828c0.434-0.407,0.912-0.8,1.193-1.35c0.157-0.701,0.089-1.86,0.053-2.596
		c-0.069-1.387,0.166-3.187-0.156-3.841c-0.477-0.973-1.621-0.122-1.921,0.467c-0.816,1.385-0.83,3.797-0.83,6.074
		c0,0.828-0.1,1.71,0.26,2.336C23.439,28.777,23.807,28.211,24.215,27.828z M43.371,26.271c0-0.89,0.132-1.86,0.104-2.751
		c-0.043-1.306-0.771-3.985-2.025-3.79c-1.434,0.223-0.54,5.019-0.778,6.593c0.206,0.58,0.688,0.948,1.09,1.35
		c0.388,0.387,0.722,0.97,1.35,1.09C43.5,28.205,43.37,27.232,43.371,26.271z"/>
	<path style="fill-rule:evenodd;clip-rule:evenodd;" d="M65.849,22.325c0.331,0.76,0.208,1.648,0.207,2.492
		c-0.001,6.061,0.044,12.604-0.052,18.636c-0.372,0.77-1.043,1.412-1.661,1.973c-1.883,1.71-3.622,3.621-5.45,5.45
		c-2.421,2.421-4.874,4.821-7.32,7.216c-4.896,4.794-9.766,9.615-14.639,14.432c-0.908,1.096-2.031,2.014-3.167,3.062
		c-0.278,0.257-0.723,0.915-1.09,0.935c-0.677,0.036-1.831-1.52-2.233-1.92c-0.752-0.752-1.368-1.388-1.973-2.129
		c-4.822-4.764-9.479-9.694-14.225-14.535c-3.559-3.632-7.118-7.25-10.693-10.902c-1.176-1.201-2.512-2.302-3.427-3.738
		c-0.179-6.25-0.105-12.477-0.104-18.689c0-0.862-0.113-1.735,0.156-2.543c0.118,0.071,0.195-0.134,0.207,0
		c1.641,1.076,2.686,2.748,4.205,3.945c6.675,6.788,13.383,13.541,20.038,20.35c1.377,1.31,2.521,2.739,3.997,4.101
		c1.025,0.946,1.951,1.956,3.063,3.011c0.394,0.375,0.749,0.832,1.142,0.831c0.541-0.001,1.56-1.067,2.024-1.557
		c1.771-1.868,3.613-3.561,5.348-5.295c7.089-7.089,14.548-14.252,21.491-21.18c0.575-0.773,1.299-1.402,1.973-2.077
		C64.322,23.539,64.831,22.591,65.849,22.325z"/>
</g>
<g id="Layer_1">
</g>
</svg>
