<?xml version="1.0" encoding="iso-8859-1"?>
<!-- Generator: Adobe Illustrator 19.2.0, SVG Export Plug-In . SVG Version: 6.00 Build 0)  -->
<svg version="1.1" xmlns="http://www.w3.org/2000/svg" xmlns:xlink="http://www.w3.org/1999/xlink" x="0px" y="0px"
	 viewBox="0 0 77.065 65.845" style="enable-background:new 0 0 77.065 65.845;" xml:space="preserve">
<g id="Association_x5F_dHospitalisation_x5F_du_x5F_Quebec">
	<path style="fill-rule:evenodd;clip-rule:evenodd;" d="M0.131,33.966c0.607-0.254,1.347-0.146,2.055-0.146
		c0.732,0,1.469-0.022,2.201,0c1.427,0.042,2.925-0.147,4.158,0.146c0.29,2.53-0.095,5.736,0.195,8.267
		c4.94,0.106,10.305,0.207,15.359,0.049c0.178-1.251,0.098-2.747,0.098-4.207c0-1.462-0.087-2.916,0.146-4.06
		c2.585-0.349,5.796,0.14,8.608-0.146c0.135-4.212,0.148-8.214,0.148-12.18c0-1.354-0.042-2.719,0.049-4.011
		c0.354-5.067,2.697-9.338,5.527-12.228c2.16-2.207,4.998-4.031,8.413-4.892c1.182-0.297,2.637-0.471,4.06-0.538
		c4.006-0.189,7.5,1.048,10.32,2.25c1.418,0.604,2.747,1.518,3.913,2.397c5.77,4.35,10.056,11.222,11.3,20.055
		c1.117,7.936-0.315,15.748-2.936,21.277c-1.358,2.869-2.857,5.535-4.842,7.729c-0.976,1.078-2.052,2.096-3.18,3.081
		c-3.363,2.939-7.246,5.2-11.935,6.897c-3.062,1.108-6.654,1.851-10.468,2.054c-8.519,0.453-15.799-0.948-21.913-3.081
		c-3.137-1.094-5.88-2.489-8.364-4.207c-2.47-1.707-4.512-3.769-6.555-5.968c-3.119-3.356-4.948-7.348-5.87-12.962
		C0.333,37.789-0.041,35.911,0.131,33.966z M41.855,6.085c-0.913,1.785,0.348,3.794,1.663,4.353
		c2.031,0.863,4.443-0.747,4.353-3.033c-0.072-1.854-1.71-3.227-3.864-2.886C43.053,4.706,42.232,5.349,41.855,6.085z
		 M33.785,23.743c-1.022,4.16,0.64,7.891,2.837,10.271c1.874,2.031,4.863,3.369,7.924,3.522c3.446,0.171,6.334-1.345,8.218-3.229
		c1.968-1.967,3.473-4.331,3.521-7.973c0.042-3.15-1.315-5.884-2.886-7.68c-1.646-1.881-4.098-3.247-6.945-3.668
		c-3.56-0.527-6.357,0.725-8.365,2.152C35.927,18.715,34.505,20.809,33.785,23.743z"/>
	<path style="fill-rule:evenodd;clip-rule:evenodd;" d="M23.806,9.607c0.351,2.757-0.135,5.96,0.244,8.707
		c2.647,0.257,5.818-0.014,8.462,0.245c0.156,4.758,0.164,10.041,0,14.968c-1.159,0.222-2.678,0.146-4.206,0.146
		c-1.476,0-2.972-0.108-4.305,0c-0.258,0.572-0.146,1.304-0.146,2.005c0,0.701,0,1.436,0,2.152c0,1.438,0.117,2.93-0.146,4.109
		c-1.08,0.212-2.282,0.098-3.522,0.098c-2.402,0-4.971-0.01-7.483-0.049c-1.237-0.019-2.47,0.123-3.571-0.098
		c-0.291-2.513,0.097-5.704-0.195-8.217c-2.189-0.164-4.47-0.146-6.652-0.146c-0.74,0-1.502,0.111-2.152-0.147
		c-0.188-4.907-0.162-9.882,0-14.968c2.786-0.27,6.098,0.143,8.805-0.146c0.26-0.931,0.146-2.22,0.147-3.522
		c0-1.246,0.039-2.521,0.048-3.571c0.006-0.583-0.192-1.293,0.147-1.614C9.315,9.512,9.368,9.484,9.425,9.46
		C14.192,9.536,19.162,9.409,23.806,9.607z"/>
</g>
<g id="Layer_1">
</g>
</svg>
