<?xml version="1.0" encoding="iso-8859-1"?>
<!-- Generator: Adobe Illustrator 19.2.0, SVG Export Plug-In . SVG Version: 6.00 Build 0)  -->
<svg version="1.1" xmlns="http://www.w3.org/2000/svg" xmlns:xlink="http://www.w3.org/1999/xlink" x="0px" y="0px"
	 viewBox="0 0 73.61 77.887" style="enable-background:new 0 0 73.61 77.887;" xml:space="preserve">
<g id="associated_x5F_colleges_x5F_of_x5F_the_x5F_midwest">
	<path style="fill-rule:evenodd;clip-rule:evenodd;" d="M24.893,0c0.039,0.009,0.049,0.049,0.098,0.049
		c1.053,1.93,1.969,3.95,2.967,5.931c0.996,1.983,1.813,4.043,2.867,5.981c1.061,1.95,1.924,4.005,2.918,5.979
		c0.492,0.98,0.971,1.981,1.459,2.966c0.48,0.974,0.883,2.006,1.555,2.869c0.438-0.328,0.637-0.884,0.875-1.361
		c1.713-3.434,3.32-7.042,5.154-10.453c0.527-0.984,0.945-2.029,1.41-3.064c0.9-2.014,1.912-4.031,2.916-6.028
		C47.6,1.896,48.02,0.873,48.668,0c0.5,0.392,0.713,1.046,0.971,1.604c2.91,6.242,6.111,12.472,9.141,18.767
		c0.547,1.135,1.139,2.283,1.703,3.403c0.568,1.13,1.205,2.272,1.652,3.403c1.621,4.1,3.803,8.035,5.688,12.057
		c1.561,3.326,3.373,6.957,5.105,10.405c0.266,0.527,0.674,1.118,0.682,1.507c0.008,0.435-0.461,1.22-0.73,1.75
		c-1.957,3.858-3.852,7.785-5.736,11.62c-1.106,2.249-2.111,4.524-3.209,6.709c-0.559,1.111-1.18,2.2-1.604,3.355
		c-0.422,1.147-1.012,2.259-1.703,3.257c-0.492-0.313-0.6-0.929-0.826-1.41c-1.6-3.393-3.447-6.903-5.152-10.355
		c-1.711-3.459-3.383-6.979-5.106-10.404c-0.236-0.469-0.353-1.054-0.826-1.361c-0.48,0.289-0.656,0.902-0.877,1.361
		c-3.051,6.413-6.4,12.881-9.479,19.35c-0.469,0.983-0.92,1.992-1.557,2.868c-0.432-0.34-0.621-0.889-0.875-1.361
		c-0.766-1.424-1.439-2.984-2.188-4.473c-1.965-3.907-3.83-7.975-5.785-11.96c-0.977-1.987-1.895-3.966-3.016-5.834
		c-0.531,0.214-0.588,0.903-0.875,1.361c-1.74,3.765-3.602,7.498-5.396,11.231c-1.572,3.267-3.127,6.513-4.766,9.772
		c-0.217,0.434-0.412,0.924-0.777,1.264c-0.504-0.373-0.672-1.026-0.924-1.556c-2.899-6.119-5.996-12.074-8.945-18.329
		c-0.715-1.514-1.67-3.286-2.48-4.959C0.52,52.508,0.014,51.753,0,51.341c-0.023-0.693,0.906-2.075,1.312-2.917
		c5.984-12.358,11.92-24.581,17.99-36.853c0.467-0.946,0.91-1.913,1.361-2.869c0.445-0.947,0.977-1.883,1.361-2.82
		c0.215-0.526,0.322-1.053,0.582-1.556c0.234-0.449,0.5-0.894,0.73-1.361c0.49-1.001,0.871-2.092,1.408-2.869
		C24.784,0.052,24.836,0.023,24.893,0z M24.7,5.591c-0.506,0.85-0.963,1.913-1.41,2.868c-0.223,0.474-0.471,0.936-0.682,1.41
		c-0.227,0.511-0.363,1.05-0.582,1.556c-0.51,1.174-1.17,2.326-1.752,3.5c-1.438,2.909-2.961,5.919-4.326,8.8
		c-0.275,0.583-0.644,1.184-0.68,1.848c5.34,0.22,11.279,0.097,17.016,0.097c0.801,0,1.637,0.117,2.383-0.146
		c-0.234-0.911-0.709-1.749-1.119-2.577c-1.252-2.531-2.449-5.011-3.695-7.487c-1.666-3.314-3.096-6.742-4.91-9.966
		c-0.031,0-0.064,0-0.098,0C24.788,5.517,24.735,5.546,24.7,5.591z M48.473,5.64c-2.842,5.775-5.639,11.594-8.459,17.357
		c-0.4,0.818-0.959,1.596-1.07,2.528c1.521,0.307,3.127,0.097,4.766,0.097c4.106,0,8.318,0,12.396,0
		c0.793,0,1.645,0.155,2.334-0.195c-0.152-0.906-0.674-1.699-1.068-2.528c-0.396-0.829-0.797-1.692-1.217-2.528
		c-2.277-4.531-4.449-9.117-6.758-13.71C49.17,6.21,48.993,5.477,48.62,5.494C48.549,5.521,48.5,5.57,48.473,5.64z M43.321,28.004
		c-0.059,0-0.072,0.042-0.146,0.048c-1.367,0.123-2.949-0.211-4.23,0.146c0.182,0.932,0.721,1.735,1.119,2.577
		c2.393,5.051,4.922,10.142,7.342,15.071c0.396,0.81,0.635,1.782,1.361,2.382c1.732-3.236,3.383-6.588,4.959-9.967
		c1.189-2.554,2.453-5.079,3.646-7.584c0.391-0.822,0.99-1.629,1.068-2.577C53.424,27.967,48.286,27.995,43.321,28.004z
		 M32.43,28.053c-5.584,0-11.627-0.04-17.066,0.049c-0.285,0.308,0.025,0.712,0.146,0.972c1.932,4.11,4.004,8.369,6.029,12.398
		c0.34,0.676,0.535,1.353,0.826,2.042c0.514,1.221,1.215,2.485,1.799,3.646c0.186,0.37,0.359,0.886,0.777,1.069
		c0.572-0.708,0.912-1.584,1.312-2.382c2.498-4.969,4.822-10.106,7.293-15.023c0.422-0.84,0.887-1.704,1.119-2.625
		C33.965,27.939,33.176,28.053,32.43,28.053z M59.17,32.477c-1.123,2.5-2.459,5.044-3.6,7.439c-0.793,1.669-1.633,3.295-2.381,4.959
		c-0.756,1.681-1.781,3.255-2.334,5.008c0.693,0.261,1.492,0.175,2.236,0.145c5.801-0.232,11.537,0.237,17.162-0.097
		c-0.156-0.937-0.703-1.738-1.117-2.577c-2.076-4.198-3.996-8.284-6.078-12.495c-0.582-1.178-1.076-2.595-1.701-3.841
		c-0.221-0.437-0.498-1.147-0.828-1.118C60.022,30.612,59.579,31.567,59.17,32.477z M11.668,32.526
		c-2.34,5.017-4.914,10.013-7.244,14.926c-0.389,0.819-0.912,1.63-1.068,2.528c1.531,0.263,3.178,0.146,4.812,0.146
		c4.361,0,8.973-0.048,13.516-0.048c0.338,0,0.824,0.133,1.07-0.194c-0.223-0.881-0.615-1.755-1.021-2.577
		c-2.674-5.408-5.203-10.801-7.875-16.238c-0.219-0.442-0.496-1.146-0.828-1.118C12.504,30.709,12.086,31.632,11.668,32.526z
		 M35.346,32.575c-2.402,4.896-4.813,9.96-7.195,14.78c-0.414,0.838-0.938,1.651-1.119,2.577c0.738,0.257,1.551,0.146,2.334,0.146
		c5.047,0,10.068-0.049,14.83-0.049c0.793,0,1.627,0.115,2.381-0.145c-0.227-0.905-0.697-1.741-1.117-2.577
		c-2.701-5.375-5.201-10.821-7.926-16.238c-0.217-0.433-0.496-1.148-0.826-1.118C36.153,30.67,35.782,31.688,35.346,32.575z
		 M55.426,52.313c-0.059,0.001-0.072,0.042-0.146,0.049c-1.432,0.128-3.076-0.215-4.424,0.146c0.148,0.902,0.656,1.718,1.07,2.528
		c2.514,4.936,4.943,10.107,7.389,14.975c0.404,0.804,0.627,1.786,1.361,2.382c1.416-2.517,2.525-5.132,3.744-7.73
		c1.592-3.398,3.391-6.7,4.959-10.064c0.326-0.699,0.764-1.364,0.875-2.139C65.358,52.371,60.311,52.219,55.426,52.313z
		 M20.616,52.362c-2.373,0.001-5.223,0.048-7.926,0.048c-3.275,0-6.668-0.093-9.334,0.146c0.139,0.919,0.666,1.714,1.068,2.528
		c2.066,4.178,4.109,8.387,6.127,12.495c0.609,1.243,1.162,2.545,1.799,3.743c0.199,0.376,0.359,0.897,0.777,1.118
		c0.59-0.586,0.85-1.41,1.215-2.139c1.135-2.256,2.17-4.545,3.307-6.807c1.803-3.587,3.699-7.109,5.154-10.939
		C22.188,52.354,21.307,52.362,20.616,52.362z M44.34,52.362c-2.418,0-4.807,0-7.195,0c-3.225,0-6.418-0.1-9.236,0.048
		c-0.312,0.017-0.773-0.123-0.877,0.194c0.207,0.886,0.713,1.673,1.119,2.48c2.693,5.358,5.309,10.947,7.926,16.238
		c0.186,0.376,0.322,0.935,0.777,1.118c1.773-3.21,3.346-6.554,4.959-9.87c1.209-2.485,2.475-4.979,3.646-7.438
		c0.408-0.856,0.873-1.702,1.117-2.625C45.881,52.246,45.096,52.362,44.34,52.362z"/>
</g>
<g id="Layer_1">
</g>
</svg>
