<?xml version="1.0" encoding="iso-8859-1"?>
<!-- Generator: Adobe Illustrator 19.2.0, SVG Export Plug-In . SVG Version: 6.00 Build 0)  -->
<svg version="1.1" xmlns="http://www.w3.org/2000/svg" xmlns:xlink="http://www.w3.org/1999/xlink" x="0px" y="0px"
	 viewBox="0 0 161.709 108.323" style="enable-background:new 0 0 161.709 108.323;" xml:space="preserve">
<g id="Atlas_x5F_Corpotation">
	<path style="fill-rule:evenodd;clip-rule:evenodd;" d="M80.876,0c0.411-0.023,1.058,1.065,1.438,1.569
		c1.286,1.704,2.537,3.46,3.791,5.098c0.865,1.13,1.629,2.342,2.483,3.442c4.271,5.498,8.481,11.344,12.637,16.864
		c5.09,6.76,10.104,13.502,15.208,20.263c1.691,2.24,3.46,4.445,5.099,6.711c0.421,0.581,0.75,1.206,1.177,1.787
		c2.886,3.924,5.89,7.914,8.889,11.809c3.438,4.461,6.725,9.03,10.11,13.508c1.7,2.249,3.399,4.504,5.098,6.755
		c1.698,2.25,3.298,4.572,5.012,6.797c2.588,3.359,5.028,6.766,7.538,10.197c0.414,0.566,0.855,1.131,1.264,1.699
		c0.396,0.55,0.903,1.071,1.09,1.743c-9.733,0.184-19.71-0.001-29.283,0c-1.473,0-3.078,0.035-4.444-0.044
		c-3.532-4.493-6.773-9.203-10.197-13.77c-10.258-13.681-20.562-27.363-30.808-41.092c-1.575-2.358-3.381-4.495-5.098-6.885
		c-0.221-0.307-0.597-0.863-0.828-0.872c-0.376-0.014-0.733,0.696-1.002,1.046c-2.036,2.643-4.128,5.432-6.145,8.061
		c-4.694,6.142-9.292,12.38-13.988,18.521c-1.754,2.298-3.498,4.578-5.229,6.928c-0.572,0.777-1.238,1.51-1.656,2.397
		c0.967,0.237,1.971,0.131,2.963,0.131c7.057,0,14.264,0.087,21.396,0.087c8.132,0,16.241-0.004,24.141,0.219
		c-0.033,0.681-0.648,1.15-1.003,1.655c-2.912,3.902-5.796,7.822-8.759,11.679c-2.958,3.852-5.777,7.801-8.715,11.678
		c-25.949,0.089-52.048-0.26-77.956-0.261c-1.704-0.001-3.411,0.106-5.099-0.131c0.203-0.695,0.747-1.238,1.177-1.787
		c1.269-1.621,2.525-3.328,3.791-5.011c2.526-3.36,5.079-6.64,7.625-10.022c0.845-1.121,1.728-2.249,2.44-3.442
		c0.703-1.178,1.681-2.247,2.527-3.356c4.228-5.533,8.468-11.124,12.638-16.776c1.657-2.248,3.448-4.4,5.098-6.668
		c1.647-2.263,3.369-4.476,5.055-6.71c3.358-4.448,6.783-8.888,10.153-13.378c0.428-0.57,0.753-1.216,1.177-1.786
		c6.258-8.416,12.544-16.685,18.955-25.143c2.892-3.814,5.91-7.834,8.846-11.722C79.951,1.165,80.372,0.528,80.876,0z"/>
</g>
<g id="Layer_1">
</g>
</svg>
