<?xml version="1.0" encoding="iso-8859-1"?>
<!-- Generator: Adobe Illustrator 19.2.0, SVG Export Plug-In . SVG Version: 6.00 Build 0)  -->
<svg version="1.1" xmlns="http://www.w3.org/2000/svg" xmlns:xlink="http://www.w3.org/1999/xlink" x="0px" y="0px"
	 viewBox="0 0 79.064 79.588" style="enable-background:new 0 0 79.064 79.588;" xml:space="preserve">
<g id="audax">
	<path style="fill-rule:evenodd;clip-rule:evenodd;" d="M11.328,11.875C17.215,6.139,24.301,1.661,34.464,0.307
		c0.725-0.097,1.473-0.203,2.235-0.243c6.548-0.343,12.332,0.722,17.158,2.624c4.259,1.68,7.715,3.873,10.888,6.465
		c3.223,2.632,5.953,5.647,8.215,9.138c0.563,0.871,1.011,1.888,1.506,2.868c1.432,2.825,2.742,5.95,3.549,9.43
		c1.139,4.912,1.377,10.616,0.583,15.7c-0.753,4.821-2.383,9.301-4.423,12.929c-0.541,0.961-1.021,1.889-1.604,2.771
		c-3.944,5.967-9.434,10.918-16.38,13.95c-4.163,1.817-8.396,3.126-13.804,3.548c-2.871,0.224-5.624,0.057-8.215-0.292
		c-2.485-0.334-4.854-0.894-6.999-1.653c-8.441-2.986-15.146-8.171-19.88-14.825c-2.365-3.324-4.398-7.172-5.639-11.714
		c-1.226-4.488-2.105-9.934-1.409-15.554C1.515,25.18,5.582,17.925,11.328,11.875z M31.013,9.493
		c-2.082,0.564-3.979,1.402-5.639,2.236c-5.276,2.653-9.257,6.528-12.297,11.228c-1.026,1.586-1.869,3.367-2.625,5.249
		c-1.521,3.789-2.442,8.339-2.09,13.415c0.674,9.717,4.666,16.123,10.11,21.29c2.608,2.476,5.849,4.655,9.575,6.124
		c3.817,1.505,8.228,2.46,13.415,2.236c4.664-0.202,8.845-1.623,12.346-3.354c3.543-1.752,6.409-4.169,8.943-6.756
		c2.594-2.647,4.599-5.865,6.076-9.624c1.492-3.796,2.415-8.267,2.139-13.464c-0.247-4.644-1.489-8.915-3.306-12.394
		c-3.587-6.872-8.833-12.058-16.331-15.068C47.63,9.127,42.888,8,37.818,8.375C35.363,8.557,33.154,8.913,31.013,9.493z"/>
	<path style="fill-rule:evenodd;clip-rule:evenodd;" d="M45.011,53.141c-3.407,0.219-7.284,0.133-10.839,0
		c0.029-1.708,0.297-3.425,0.535-5.104c1.646-11.598,3.073-23.436,4.715-35.142c0.041-0.039,0.028-0.133,0.097-0.146
		c0.032,0,0.064,0,0.098,0c1.819,11.649,3.099,23.558,4.812,35.337C44.671,49.759,44.973,51.448,45.011,53.141z"/>
	<path style="fill-rule:evenodd;clip-rule:evenodd;" d="M45.254,55.086c0.297,0.857,0.404,1.815,0.535,2.771
		c0.26,1.898,0.494,3.893,0.777,5.833c0.142,0.969,0.34,1.936,0.243,2.868c-4.538,0.163-9.752,0.161-14.29,0
		c-0.028-2.523,0.791-5.556,0.972-8.214c0.053-0.773,0.047-2.726,0.438-3.208c0.036-0.045,0.089-0.074,0.146-0.097
		C37.786,55.07,41.626,54.973,45.254,55.086z"/>
</g>
<g id="Layer_1">
</g>
</svg>
