<?xml version="1.0" encoding="iso-8859-1"?>
<!-- Generator: Adobe Illustrator 19.2.0, SVG Export Plug-In . SVG Version: 6.00 Build 0)  -->
<svg version="1.1" xmlns="http://www.w3.org/2000/svg" xmlns:xlink="http://www.w3.org/1999/xlink" x="0px" y="0px"
	 viewBox="0 0 73.373 72.366" style="enable-background:new 0 0 73.373 72.366;" xml:space="preserve">
<g id="audiomat">
	<path style="fill-rule:evenodd;clip-rule:evenodd;" d="M6.25,0.076C18.169-0.12,30.799,0.125,42.918,0.125
		c7.587,0,15.139,0.045,22.829,0.047c1.659,0,3.074-0.057,4.189,0.424c2.213,0.951,3.218,2.82,3.154,6.072
		c-0.102,5.146,0,11.848,0,17.793c0,8.732,0.142,18.16,0.141,27.065c0,4.51,0.141,8.982,0.141,13.51c0,1.59-0.026,2.895-0.471,4.049
		c-0.61,1.582-1.973,2.898-3.766,3.154c-0.653,0.092-1.422,0.006-2.259,0.047c-1.492,0.07-3.057,0.117-4.566,0.047
		c-1.485-0.07-2.951,0.055-4.425,0c-2.969-0.111-6.021-0.047-9.084-0.047c-12.58,0-23.724-0.051-36.574-0.047
		c-1.502,0-3.006-0.002-4.519,0c-1.543,0-2.979,0.017-4.095-0.424c-2.15-0.852-3.342-2.938-3.342-5.885
		c0-14.941-0.188-30.086-0.188-44.717c0-3.152,0.244-6.166,0-9.133c-0.057-0.695,0.06-1.406,0-2.117
		c-0.17-1.998-0.103-4.689,0.424-6.309c0.397-1.221,1.11-2.002,1.977-2.635C3.602,0.201,4.543,0.105,6.25,0.076z M5.449,1.066
		C2.793,1.455,1.412,2.968,1.119,5.679c-0.14,1.293,0.061,2.762,0,4.283c-0.1,2.496-0.044,6.131-0.094,8.66
		c-0.049,2.49,0,5.789,0,8.709c0,11.562,0.094,23.736,0.094,35.539c0,1.627-0.099,3.107,0.094,4.377
		c0.38,2.498,2.249,3.834,4.895,4.047c1.35,0.109,2.895,0.049,4.425,0.049c4.314-0.002,8.718,0,13.133,0
		c7.397-0.002,14.099,0.047,21.793,0.047c5.902-0.002,11.8,0.047,17.699,0.047c3.094,0,6.277,0.314,7.861-1.082
		c1.679-1.482,1.759-3.998,1.601-7.344c-0.135-2.846-0.094-5.934-0.094-8.85c0-2.932-0.094-5.889-0.094-8.897
		c0-11.805-0.142-23.437-0.141-35.303c0-1.353,0.021-3.041,0-4.379c-0.041-2.699-1.892-4.41-4.425-4.518
		c-1.365-0.059-2.911,0-4.472,0C45.526,1.07,27.435,0.839,9.921,0.97C8.471,0.982,6.706,0.88,5.449,1.066z"/>
	<path style="fill-rule:evenodd;clip-rule:evenodd;" d="M57.604,14.386c4.558,4.43,8.057,9.811,9.226,17.275
		c1.345,8.592-1.298,15.947-4.66,21.182c-0.796,1.24-1.844,2.551-2.965,3.672c-1.103,1.102-2.204,2.258-3.437,3.201
		c-2.553,1.951-5.345,3.652-8.52,4.707c-1.731,0.574-3.316,1.162-5.178,1.459c-1.895,0.301-3.913,0.424-6.166,0.424
		c-2.149,0-4.09-0.355-5.884-0.754c-1.732-0.385-3.405-0.92-4.989-1.6c-6.158-2.641-10.934-6.547-14.404-12.098
		C7.39,46.677,5.03,38.865,6.72,30.437c1.437-7.162,5.011-12.787,9.696-16.805c2.466-2.113,5.132-3.744,8.191-5.035
		c2.371-1,4.817-1.726,7.767-2.166c0.982-0.146,2.146-0.232,3.201-0.281c5.133-0.242,9.241,0.881,12.803,2.353
		C51.932,9.972,55.021,11.982,57.604,14.386z M39.105,28.978c2.463-2.662,5.017-5.08,7.531-7.719
		c0.439-0.461,1.048-0.973,1.036-1.506c-0.019-0.85-1.31-1.459-1.977-1.789c-2.552-1.262-5.499-2.289-9.132-2.213
		c-2.63,0.057-5.074,0.637-7.155,1.412c-5.029,1.877-8.767,5.355-11.156,9.885c-0.492,0.934-1.002,2.049-0.941,3.201
		c0.496,1.137,2.169,0.918,3.719,0.848c1.431-0.066,3.411,0.322,4.566-0.141c1.398-0.562,1.083-2.789,1.083-4.756
		c0-1.322-0.111-2.723,0-3.859c0.233-2.377,2.35-4.328,4.801-4.473c2.791-0.162,4.804,1.879,5.319,4.002
		c0.419,1.728,0.189,4.381,0.189,6.402c0,0.598-0.113,1.389,0.565,1.647C38.213,29.947,38.721,29.394,39.105,28.978z M54.968,44.183
		c1.152-0.197,1.475-2.014,1.789-3.342c0.672-2.844,0.61-6.445-0.047-9.18c-0.3-1.25-0.74-3.143-1.977-3.201
		c-0.79-0.037-1.935,1.262-2.448,1.742c-1.349,1.264-2.547,2.519-3.907,3.906c-0.6,0.611-1.6,1.479-1.553,2.4
		c0.033,0.666,0.785,1.305,1.224,1.742c1.643,1.643,2.856,2.814,4.566,4.377C53.262,43.289,53.921,44.361,54.968,44.183z
		 M45.366,49.925c-0.74-0.797-1.58-1.576-2.401-2.447c-1.117-1.188-2.493-2.379-3.671-3.625c-0.361-0.381-0.876-1.09-1.413-1.035
		c-1.059,0.105-0.605,2.406-0.659,3.576c-0.054,1.17,0.096,2.977-0.141,4.096c-0.341,1.606-1.565,2.896-2.73,3.484
		c-3.075,1.549-6.22-0.357-7.155-2.637c-0.506-1.236-0.542-2.963-0.47-4.754c0.052-1.295,0.203-3.814-0.424-4.707
		c-0.735-1.045-2.261-0.709-3.907-0.754c-1.164-0.031-2.587-0.125-3.389-0.047c-3.081,0.303-1.153,3.373-0.377,4.848
		c1.038,1.879,2.369,3.664,4.048,5.131c1.583,1.385,3.477,2.746,5.554,3.625c2.029,0.859,4.659,1.664,7.39,1.789
		c2.799,0.127,5.746-0.189,8.096-1.082c0.703-0.268,1.515-0.635,2.212-0.99c0.672-0.34,1.368-0.846,1.506-1.693
		C47.182,51.435,46.117,50.734,45.366,49.925z"/>
</g>
<g id="Layer_1">
</g>
</svg>
