<?xml version="1.0" encoding="iso-8859-1"?>
<!-- Generator: Adobe Illustrator 19.2.0, SVG Export Plug-In . SVG Version: 6.00 Build 0)  -->
<svg version="1.1" xmlns="http://www.w3.org/2000/svg" xmlns:xlink="http://www.w3.org/1999/xlink" x="0px" y="0px"
	 viewBox="0 0 75.979 79.427" style="enable-background:new 0 0 75.979 79.427;" xml:space="preserve">
<g id="ault_x5F_and_x5F_wiborg">
	<path style="fill-rule:evenodd;clip-rule:evenodd;" d="M18.465,0c0.033,0,0.065,0,0.099,0c3.961,7.971,7.733,16.102,11.572,24.276
		c0.378,0.807,0.783,1.619,1.182,2.413c0.411,0.818,0.656,1.686,1.034,2.511c1.12,2.445,2.312,4.852,3.447,7.288
		c0.373,0.799,0.857,1.575,0.985,2.462c-4.601,0.213-9.134,0.049-13.886,0.049c-7.421,0-15.16,0.071-22.897-0.099
		c0.088-0.899,0.641-1.68,1.034-2.462c1.188-2.364,2.29-4.808,3.447-7.239c1.518-3.188,3.051-6.421,4.579-9.7
		c2.593-5.564,5.505-11.222,8.076-16.939C17.531,1.683,17.939,0.602,18.465,0z"/>
	<path style="fill-rule:evenodd;clip-rule:evenodd;" d="M75.979,40.624c-0.146,0.896-0.679,1.706-1.083,2.511
		c-0.407,0.81-0.812,1.623-1.231,2.413c-0.861,1.624-1.566,3.301-2.413,4.924c-1.68,3.22-3.214,6.496-4.924,9.701
		c-3.193,5.986-6.051,12.152-9.257,18.17c-0.194,0.365-0.288,0.904-0.739,1.084c-2.461-4.33-4.51-8.885-6.845-13.345
		c-3.068-5.862-6.151-11.793-9.109-17.776c-0.724-1.463-1.415-2.99-2.364-4.333c-0.714,0.752-1.115,1.742-1.576,2.659
		c-0.932,1.853-1.857,3.689-2.807,5.564c-1.573,3.105-3.051,6.479-4.727,9.553c-3.137,5.75-5.89,11.84-9.061,17.579
		c-0.531-0.412-0.797-1.105-1.083-1.674c-0.902-1.794-1.828-3.657-2.757-5.515c-3.622-7.237-7.54-14.518-11.178-21.813
		c-1.219-2.46-2.474-4.822-3.693-7.288C0.736,42.235,0.181,41.455,0,40.526c1.716-0.268,3.545-0.148,5.367-0.148
		c7.358,0,14.509,0,21.913,0c5.41,0,10.827,0.099,16.25,0.099C54.421,40.477,65.34,40.329,75.979,40.624z"/>
</g>
<g id="Layer_1">
</g>
</svg>
