<?xml version="1.0" encoding="iso-8859-1"?>
<!-- Generator: Adobe Illustrator 19.2.0, SVG Export Plug-In . SVG Version: 6.00 Build 0)  -->
<svg version="1.1" xmlns="http://www.w3.org/2000/svg" xmlns:xlink="http://www.w3.org/1999/xlink" x="0px" y="0px"
	 viewBox="0 0 76.319 76.929" style="enable-background:new 0 0 76.319 76.929;" xml:space="preserve">
<g id="Autopistas">
	<path style="fill-rule:evenodd;clip-rule:evenodd;" d="M76.153,0.143c0.021,0.043,0.043,0.087,0.097,0.097
		c0.119,9.462,0.048,19.15,0.048,28.9c0.001,16.189,0.071,31.153-0.048,47.621c-0.729,0.253-1.53,0.145-2.268,0.145
		c-24.604,0-49.679,0.07-73.82-0.097C0.118,67.341-0.11,57.101,0.066,47.715c0.056-2.995,0.069-6.329,0-9.457
		c-0.068-3.07,0.075-6.291,0-9.409c-0.076-3.167,0-6.428,0-9.649c0-5.65,0-11.245,0-16.935c0-0.535-0.164-1.993,0.338-2.123
		c1.117-0.289,3.548-0.048,4.921-0.048C28.959,0.094,52.701,0.205,76.153,0.143z M70.798,1.107
		C58.586,1.076,45.391,0.973,33.164,1.204c0.551,0.538,1.317,0.627,1.979,0.869c2.028,0.74,3.908,1.828,5.597,2.991
		c2.266,1.56,4.313,3.315,5.983,5.5c1.63,2.133,3.029,4.649,4.149,7.285c0.568,1.337,1.055,2.742,1.64,4.101
		c0.439,1.019,0.93,2.011,1.303,2.992c0.562,1.477,1.092,2.662,1.688,4.053c0.428,0.994,0.863,2.008,1.303,2.991
		c2.682,6.001,5.152,12.11,7.816,18.045c3.343,7.446,6.585,15.075,9.843,22.484c0.212,0.481,0.299,1.078,0.772,1.399
		c0.256-2.954,0.145-6.201,0.145-9.408c0-2.395,0-4.827,0-7.141c0-0.761,0.112-1.56-0.145-2.268
		c-1.167,0.249-2.017,0.815-2.943,1.303c-1.071,0.344-1.831,1-2.896,1.351c-0.643-0.594-0.862-1.53-1.206-2.316
		c-0.364-0.834-0.716-1.669-1.062-2.509c-0.688-1.674-1.507-3.316-2.171-4.97c0.256-0.427,0.784-0.588,1.206-0.772
		c2.736-1.194,5.375-2.75,7.913-4.053c0.424-0.218,0.985-0.324,1.254-0.772c0.094-6.83,0.049-13.709,0.049-20.65
		c-0.001-6.93,0.096-13.854-0.097-20.505C73.817,0.886,72.29,1.111,70.798,1.107z M65.539,74.445
		c-0.195-0.475-0.472-0.933-0.676-1.399c-2.93-6.693-5.774-13.377-8.732-20.071c-0.632-1.429-1.363-2.845-1.93-4.198
		c-0.211-0.503-0.279-1.064-0.482-1.592c-0.368-0.956-0.836-1.903-1.255-2.847c-1.294-2.92-2.48-5.771-3.715-8.636
		c-2.06-4.78-4.058-9.752-6.369-14.185c-2.464-4.727-5.098-8.315-10.036-10.566c-3.918-1.786-8.907-1.93-14.523-1.93
		c-5.465-0.001-11.013,0-16.501,0C0.988,9.063,0.982,9.618,1.079,9.937c0.485,0.434,1.166,0.196,1.737,0.193
		c4.434-0.021,9.459,0,14.04,0c2.803,0,5.453-0.13,7.864,0.145c2.366,0.27,4.57,0.839,6.514,1.641
		c7.662,3.162,10.546,11.132,13.992,18.527c2.586,5.552,4.903,11.373,7.285,17.08c0.804,1.925,1.515,3.885,2.364,5.79
		c0.839,1.88,1.598,3.808,2.412,5.693c0.822,1.902,1.715,3.75,2.509,5.645c0.799,1.903,1.725,3.755,2.51,5.645
		c0.603,1.454,1.157,2.947,1.785,4.294c0.203,0.437,0.347,0.998,0.771,1.303c0.247,0.084,0.813,0.074,1.062,0
		C65.999,75.386,65.721,74.89,65.539,74.445z M1.61,52.83c0.368-1.17,0.758-2.108,1.254-3.088c1.944-3.839,4.993-6.705,8.781-8.733
		c2.536-1.357,5.337-2.438,8.154-3.474c2.874-1.056,5.637-2.078,8.057-3.619c2.298-1.463,4.352-3.779,4.053-7.479
		c-0.268-3.314-2.22-5.645-4.969-6.706c-1.405-0.542-3.021-0.751-4.97-0.772c-6.833-0.071-14.369-0.029-20.843,0.097
		c-0.255,11.495-0.139,22.968,0,34.739C1.478,53.603,1.514,53.133,1.61,52.83z M38.375,38.065c-0.287,0.577-0.583,1.124-0.868,1.592
		c-0.936,1.54-2.005,2.664-3.522,3.715c-3.731,2.586-8.695,4.192-13.268,6.079c-2.153,0.889-4.625,1.948-6.08,3.619
		c-1.903,2.188-3.367,5.63-1.64,8.974c0.419,0.812,1.085,1.793,1.737,2.364c1.993,1.748,5.124,2.062,8.443,1.689
		c3.136-0.352,5.649-1.376,8.106-2.316c4.436-1.697,8.406-3.682,12.593-5.646c0.468-0.219,1.439-0.846,1.833-0.771
		c0.383,0.072,0.542,0.703,0.675,1.062c0.819,2.208,1.707,4.072,2.605,6.127c0.264,0.603,1.159,1.891,0.965,2.461
		c-0.101,0.298-0.667,0.396-1.158,0.627c-2.951,1.387-5.914,2.695-8.781,4.004c-2.895,1.322-5.947,2.774-9.119,3.667
		c-0.456,0.128-1.004,0.091-1.351,0.482c0.93,0.253,1.936,0.145,2.895,0.145c6.521,0,12.517,0.049,19.01,0.048
		c1.102,0,2.254,0.147,3.281-0.193c-0.551-1.638-1.166-3.262-1.833-4.873c-0.664-1.602-1.215-3.253-1.93-4.825
		c-1.415-3.114-2.744-6.261-4.101-9.409c-1.33-3.085-2.682-6.24-4.053-9.456c-0.989-2.32-2.032-4.686-3.04-7.093
		c-0.273-0.651-0.801-2.084-1.254-2.171C38.463,37.993,38.41,38.021,38.375,38.065z M1.079,63.493
		c-0.017,0.896-0.122,2.15-0.097,3.232c0.07,2.908-0.164,6.323,0.145,9.119c2.936,0.149,6.293,0.096,9.36,0.096
		c0.642,0,1.317,0.041,1.881-0.193c-0.57-0.459-1.261-0.693-1.881-1.013c-0.64-0.331-1.26-0.687-1.833-1.11
		c-3.402-2.506-5.975-5.803-7.382-10.277c-0.048,0-0.097,0-0.145,0C1.125,63.41,1.065,63.415,1.079,63.493z"/>
</g>
<g id="Layer_1">
</g>
</svg>
