<?xml version="1.0" encoding="iso-8859-1"?>
<!-- Generator: Adobe Illustrator 19.2.0, SVG Export Plug-In . SVG Version: 6.00 Build 0)  -->
<svg version="1.1" xmlns="http://www.w3.org/2000/svg" xmlns:xlink="http://www.w3.org/1999/xlink" x="0px" y="0px"
	 viewBox="0 0 181.169 130.498" style="enable-background:new 0 0 181.169 130.498;" xml:space="preserve">
<g id="Autoroute_x5F_Rhone-Alpes">
	<path style="fill-rule:evenodd;clip-rule:evenodd;" d="M160.195,93.43c-21.632,0.162-43.767,0.13-65.762-0.048
		c-0.307-6.972,0.077-15.355-0.192-22.226c-0.043-0.021-0.086-0.042-0.097-0.096c-1.151-0.041-2.799-0.172-3.8,0.096
		c-0.285,7.214,0.124,15.061-0.193,22.273c-11.238,0.129-22.677,0.098-34.251,0.097c-11.598-0.001-23.374,0.001-34.685-0.192
		c0.347-1.097,1.027-2.044,1.587-3.031c3.862-6.797,7.945-13.586,11.882-20.396c2.254-3.898,4.466-7.83,6.687-11.738
		c2.222-3.911,4.517-7.767,6.783-11.642c6.797-11.623,13.685-23.165,20.397-34.877c1.682-2.935,3.355-5.857,5.099-8.755
		c0.565-0.938,1.026-1.973,1.78-2.79c11.52-0.16,23.095-0.115,34.733,0c0.456,0.297,0.657,0.843,0.914,1.299
		c1.842,3.256,3.63,6.702,5.388,10.054c0.498,0.951,1.116,1.905,1.539,2.886c1.305,3.024,3.035,5.786,4.57,8.659
		c4.095,7.664,8.277,15.287,12.364,22.947c4.083,7.655,8.238,15.293,12.411,22.899c4.189,7.635,8.207,15.35,12.219,23.091
		C159.778,92.406,160.263,92.844,160.195,93.43z M90.344,11.312c-0.378,3.721,0.087,7.557-0.097,11.401
		c-0.181,3.808,0,7.631,0,11.497c0,7.863-0.08,15.83,0.097,23.669c1.156,0.159,2.823,0.252,3.848,0c0.16-15.329,0.16-31.29,0-46.568
		C93.087,11.117,91.51,11.166,90.344,11.312z"/>
	<path style="fill-rule:evenodd;clip-rule:evenodd;" d="M49.742,96.894c0.157,9.615,0.145,19.228,0.144,29.249
		c0,1.375,0.118,2.761-0.144,4.089c-4.879,0.193-10.538,0.181-15.442-0.048c-0.301-1.559,0.138-3.857-0.24-5.34
		c-3.497-0.191-7.536-0.098-11.113-0.048c-0.504,0.248-0.689,0.847-0.962,1.299c-0.812,1.342-1.551,2.922-2.549,4.137
		c-3.134,0.072-6.433,0.048-9.718,0.048c-3.288,0.001-6.625,0.111-9.717-0.144c0.206-0.792,0.684-1.511,1.106-2.214
		c2.896-4.812,5.62-9.651,8.515-14.624c2.801-4.811,5.652-9.643,8.515-14.624c0.389-0.677,0.942-1.831,1.587-1.925
		c1.162-0.167,2.563,0,3.849,0C32.361,96.749,40.935,96.706,49.742,96.894z M32.76,104.976c-1.601,3.236-3.709,7.081-5.003,10.054
		c0.79,0.339,1.991,0.193,3.079,0.193c1.131,0,2.304,0.076,3.224-0.097c0.141-0.614,0.145-1.279,0.144-1.972
		c-0.003-2.319-0.038-5.019,0-7.168c0.014-0.81,0.08-1.627-0.192-2.309C33.329,103.475,33.048,104.394,32.76,104.976z"/>
	<path style="fill-rule:evenodd;clip-rule:evenodd;" d="M181.169,130.184c-5.538,0.164-11.154,0.144-16.934,0.144
		c-0.867,0.001-1.83,0.038-2.55-0.048c-1.309-1.658-2.125-3.809-3.416-5.483c-3.446,0.017-7.476-0.099-11.016,0.096
		c-0.4,1.438,0.102,3.84-0.289,5.34c-4.972,0.16-10.615,0.16-15.586,0c-0.16-10.851-0.16-22.39,0-33.29
		c2.308-0.427,4.946,0.074,7.36-0.144c0.073-0.007,0.085-0.047,0.144-0.049c7.53-0.139,15.315,0.031,22.755,0.097
		c0.647,0.493,0.954,1.304,1.347,1.972c4.447,7.584,8.96,15.332,13.47,22.947c1.231,2.08,2.424,4.172,3.656,6.302
		C180.503,128.745,181.06,129.384,181.169,130.184z M152.113,112.144c-1.169-2.362-2.436-4.837-3.656-7.265
		c-0.247-0.49-0.628-1.523-1.251-1.106c-0.197,0.929-0.094,2.044-0.097,2.935c-0.008,2.809-0.193,5.833,0.097,8.467
		c0.92,0.172,2.074,0.097,3.175,0.097c1.115,0,2.259,0.114,3.126-0.145C153.209,114.158,152.619,113.167,152.113,112.144z"/>
	<path style="fill-rule:evenodd;clip-rule:evenodd;" d="M90.633,130.376c-5.103,0.108-10.401,0.171-15.683,0
		c-0.174-1.425-0.096-3.041-0.096-4.667c0-1.576,0.114-3.219-0.144-4.569c-1.435-0.161-3.521-0.158-4.955,0
		c-0.257,0.663-0.145,1.476-0.145,2.261c0,2.241,0.105,4.87-0.144,6.927c-2.471,0.259-5.216,0.145-7.89,0.145
		c-2.672,0-5.364,0.074-7.841-0.096c-0.261-1.341-0.145-2.737-0.145-4.137c0.001-4.177,0-8.458,0-12.701
		c0.001-5.616-0.093-11.259,0.097-16.548c4.267-0.125,8.606-0.098,13.037-0.097c4.393,0.001,8.89,0.204,13.277,0
		c1.096-0.051,2.379,0.055,3.56,0c1.115-0.052,2.266-0.127,3.175,0.097c2.195,0.538,3.675,2.126,3.945,4.377
		c0.145,1.21,0.112,2.575,0.048,3.993c-0.09,1.995,0.315,3.983-0.289,5.628c-0.45,1.227-1.518,2.259-2.742,2.791
		c-0.599,0.26-1.762,0.306-1.828,0.866c-0.077,0.655,0.736,0.784,1.347,1.01c1.579,0.584,3.03,1.743,3.416,3.512
		c0.363,1.666,0.144,3.786,0.144,5.629c0,1,0,1.942,0,2.886C90.777,128.604,90.889,129.537,90.633,130.376z M69.802,106.13
		c-0.337,0.697-0.192,1.798-0.192,2.79c0,1.01-0.197,2.085,0.096,2.839c1.477,0.122,3.655,0.219,5.003,0
		c0.151-1.678,0.162-3.898,0.048-5.532C73.388,105.938,71.328,106.106,69.802,106.13z"/>
	<path style="fill-rule:evenodd;clip-rule:evenodd;" d="M127.289,96.99c0.151,2.81,0.175,6.198,0,8.899
		c-5.597,0.358-11.756-0.155-17.414,0.24c-0.279,0.671-0.129,2.015-0.096,2.839c0.664,0.255,1.398,0.144,2.117,0.144
		c5.016,0.001,10.423-0.009,15.394,0.145c0.16,2.728,0.161,6.123,0,8.852c-5.646,0.323-11.646-0.1-17.414,0.192
		c-0.259,0.682-0.177,2.128-0.048,2.887c5.577,0.28,11.775-0.012,17.462,0.24c0.161,2.745,0.16,6.155,0,8.899
		c-1.328,0.261-2.72,0.145-4.089,0.145c-4.19,0-8.36-0.047-12.508-0.048c-5.499-0.001-11.107,0.167-16.26-0.097
		c-0.188-8.523-0.096-17.028-0.096-25.352c0-2.119,0.048-4.265,0-6.35c-0.014-0.593-0.184-1.239,0.192-1.732
		C105.208,96.9,116.716,96.752,127.289,96.99z"/>
</g>
<g id="Layer_1">
</g>
</svg>
