<?xml version="1.0" encoding="iso-8859-1"?>
<!-- Generator: Adobe Illustrator 19.2.0, SVG Export Plug-In . SVG Version: 6.00 Build 0)  -->
<svg version="1.1" xmlns="http://www.w3.org/2000/svg" xmlns:xlink="http://www.w3.org/1999/xlink" x="0px" y="0px"
	 viewBox="0 0 85.461 64.88" style="enable-background:new 0 0 85.461 64.88;" xml:space="preserve">
<g id="Aval_x5F_Publicistas">
	<path style="fill-rule:evenodd;clip-rule:evenodd;" d="M63.613,0.136c0.023,0.046,0.045,0.093,0.104,0.103
		c0.095,3.605,0.052,7.175,0.052,10.73c0,7.057,0.001,13.758,0,20.787c0,3.507-0.147,6.991,0.104,10.316
		c0.819,0.284,1.715,0.146,2.592,0.155c6.084,0.064,12.824,0.018,18.973,0.104c0.134,0.396-0.305,0.616-0.519,0.83
		c-0.683,0.683-1.36,1.412-2.073,2.125c-2.782,2.782-5.547,5.676-8.397,8.449C70.713,57.5,66.983,61.27,63.094,64.88
		c-21.21-0.041-41.96,0.046-62.93-0.259C-0.025,51.547,0.06,37.86,0.061,24.447c0-0.918-0.138-1.904,0-2.644
		c0.083-0.446,0.788-1.076,1.244-1.503C8.417,13.632,14.929,6.677,21.988,0.032C35.712-0.015,50.1-0.031,63.613,0.136z
		 M42.567,2.054c-6.392,0-13.343-0.137-19.645,0C16.697,7.89,10.696,13.95,4.623,19.937c-0.416,0.306-0.868,0.765-1.348,1.244
		c-0.422,0.421-1.083,0.904-1.192,1.4c-0.306,1.388-0.052,3.462-0.052,5.132c0,5.117-0.001,10.06,0,15.084
		c0,5.069,0.051,10.064,0.052,14.929c0,1.659-0.185,3.328,0.103,4.925c9.82,0.227,19.865,0.208,29.495,0.207
		c1.682,0,3.378,0.03,5.028,0c1.635-0.03,3.253,0.217,4.82-0.104c0.173-5.768,0.173-12.221,0-17.936
		c-3.452-0.405-7.121,0.01-10.678-0.155c-2.653-0.124-5.332-0.052-7.983-0.052c-0.874,0-1.771,0.122-2.592-0.156
		c-0.159-6.654-0.102-13.66-0.103-20.476c0-0.944-0.126-1.942,0.155-2.851c6.627-0.235,13.849-0.052,20.527-0.052
		c0.915,0,1.852-0.059,2.695,0.156c0.215,13.479-0.11,26.635,0.208,39.758c0.575-0.078,0.872-0.64,1.244-0.984
		c0.393-0.365,0.769-0.769,1.141-1.141c4.594-4.595,8.819-9.224,13.426-13.892c0.642-0.651,1.969-1.572,2.177-2.385
		c0.154-0.604,0-1.584,0-2.436c0.001-6.15,0-11.68,0-17.832c0-5.064,0-10.161,0-15.292c0-1.696,0.121-3.35-0.104-4.873
		C55.53,1.943,49.13,2.054,42.567,2.054z M22.403,23.1c-0.449,0.777-0.219,1.747-0.208,2.643c0.06,4.709-0.039,10.051-0.052,14.877
		c-0.002,0.65-0.023,1.331,0.207,1.918c4.664,0.08,9.821,0.227,14.515,0.156c1.586-0.024,3.191,0.138,4.665-0.156
		c0.176-4.544,0.104-9.721,0.104-14.514c-0.001-1.626,0.124-3.262-0.156-4.769C35.425,22.946,28.533,23.151,22.403,23.1z
		 M63.251,44.249c-5.765,5.64-11.287,11.522-16.899,17.313c-0.32,0.374-0.971,0.684-0.933,1.244
		c5.392,0.241,11.23,0.035,16.795,0.104c3.249-2.902,6.201-6.101,9.382-9.072c1.48-1.558,3.02-3.122,4.562-4.665
		c1.16-1.16,2.458-2.241,3.474-3.473c0.322-0.391,0.843-0.79,0.881-1.348C75.065,44.176,68.856,44.242,63.251,44.249z"/>
</g>
<g id="Layer_1">
</g>
</svg>
