<?xml version="1.0" encoding="iso-8859-1"?>
<!-- Generator: Adobe Illustrator 21.0.2, SVG Export Plug-In . SVG Version: 6.00 Build 0)  -->
<svg version="1.1" xmlns="http://www.w3.org/2000/svg" xmlns:xlink="http://www.w3.org/1999/xlink" x="0px" y="0px"
	 viewBox="0 0 18.143 18.33" style="enable-background:new 0 0 18.143 18.33;" xml:space="preserve">
<g id="Avery_x5F_Products_x5F_Corporation">
	<path d="M9.776,0c0.162,0.017,0.327,0.002,0.487,0.04c-0.006,0.065-0.016,0.13-0.051,0.187C9.584,1.54,8.956,2.852,8.331,4.166
		C7.918,5.052,7.481,5.927,7.043,6.8c-0.16,0.182-0.314,0.383-0.527,0.507c0.288-0.721,0.638-1.418,0.941-2.133
		C8.035,3.866,8.616,2.56,9.199,1.255C9.397,0.839,9.563,0.409,9.776,0z"/>
	<path d="M6.945,0.351c0.174-0.06,0.352-0.108,0.534-0.133c-0.094,0.507-0.147,1.02-0.222,1.529
		C7.003,3.536,6.726,5.323,6.471,7.113C6.416,7.351,6.429,7.618,6.28,7.824C6.201,7.938,6.146,8.065,6.09,8.191
		C6.043,8.04,6.081,7.881,6.086,7.727C6.38,5.269,6.633,2.806,6.945,0.351z"/>
	<path d="M10.182,3.231c0.793-0.886,1.555-1.8,2.356-2.68c0.154,0.07,0.31,0.136,0.469,0.193c-0.236,0.452-0.668,0.758-0.987,1.148
		c-0.237,0.289-0.528,0.527-0.76,0.822c-0.288,0.309-0.594,0.6-0.864,0.927C10.08,3.94,9.815,4.286,9.502,4.588
		C9.317,4.783,9.134,4.98,8.956,5.182c-0.351,0.345-0.65,0.74-1.022,1.064C7.728,6.367,7.523,6.493,7.295,6.569
		C8.24,5.441,9.232,4.355,10.182,3.231z"/>
	<path d="M4.319,1.57c0.124-0.146,0.293-0.241,0.466-0.318C4.91,1.549,4.901,1.877,4.971,2.187C5.319,4.282,5.673,6.376,6.029,8.47
		c-0.027,0.229-0.107,0.45-0.15,0.678C5.732,8.921,5.752,8.639,5.68,8.387C5.229,6.114,4.774,3.843,4.319,1.57z"/>
	<path d="M8.312,6.029c2.209-1.353,4.407-2.725,6.617-4.075c0.164,0.094,0.301,0.227,0.417,0.376
		c-1.962,1.117-3.917,2.246-5.88,3.362C9.214,5.83,8.974,6.016,8.681,6.05C8.535,6.076,8.389,6.105,8.243,6.135
		C8.261,6.108,8.295,6.055,8.312,6.029z"/>
	<path d="M2.158,3.561c0.043-0.207,0.213-0.341,0.359-0.478c0.048,0.04,0.097,0.082,0.122,0.141
		c1.048,2.114,2.193,4.176,3.269,6.274c0.041,0.219,0.069,0.446,0.083,0.67c-0.042-0.031-0.078-0.068-0.108-0.109
		C4.652,7.887,3.407,5.723,2.158,3.561z"/>
	<path d="M11.897,5.254c1.61-0.391,3.223-0.767,4.821-1.202c0.189,0.099,0.261,0.316,0.33,0.504
		C14.773,5.037,12.5,5.53,10.223,6.006C9.9,6.08,9.549,6.09,9.238,5.963c0.506-0.201,1.047-0.285,1.572-0.421
		C11.168,5.429,11.531,5.333,11.897,5.254z"/>
	<path d="M0.676,6.028C0.737,5.842,0.79,5.652,0.89,5.483c0.089,0.092,0.178,0.184,0.279,0.265c0.311,0.248,0.565,0.561,0.87,0.817
		c0.354,0.306,0.663,0.661,1.024,0.959c0.41,0.384,0.793,0.799,1.223,1.161c0.355,0.375,0.76,0.696,1.119,1.068
		c0.149,0.148,0.295,0.303,0.467,0.427c0.269,0.185,0.311,0.533,0.474,0.796c-0.141-0.002-0.229-0.116-0.321-0.205
		c-1.261-1.106-2.51-2.225-3.761-3.342C1.727,6.97,1.222,6.476,0.676,6.028z"/>
	<path d="M10.13,6.122c0.256-0.055,0.519,0.025,0.778,0.021c2.327,0.198,4.662,0.314,6.988,0.534
		c0.052,0.179,0.079,0.364,0.107,0.548c-0.571-0.019-1.137-0.12-1.707-0.172c-1.828-0.204-3.657-0.411-5.485-0.619
		C10.577,6.355,10.349,6.242,10.13,6.122z"/>
	<path d="M11.08,6.584c1.738,0.737,3.48,1.468,5.217,2.207c0.615,0.272,1.262,0.48,1.845,0.819c-0.038,0.171-0.056,0.347-0.1,0.518
		c-1.808-0.815-3.604-1.657-5.397-2.502c-0.359-0.17-0.727-0.322-1.078-0.508C11.4,6.947,11.192,6.798,11.08,6.584z"/>
	<path d="M11.721,7.299c0.419,0.308,0.812,0.651,1.186,1.011c0.535,0.438,1.033,0.92,1.561,1.367
		c0.91,0.812,1.831,1.613,2.742,2.424c0.081,0.075,0.213,0.129,0.215,0.256c0.008,0.187-0.108,0.342-0.189,0.501
		c-0.329-0.206-0.581-0.505-0.857-0.771c-0.339-0.306-0.673-0.619-0.996-0.942C14.901,10.736,14.481,10.26,14,9.85
		c-0.404-0.408-0.843-0.78-1.246-1.19c-0.229-0.237-0.514-0.417-0.714-0.682C11.925,7.756,11.816,7.53,11.721,7.299z"/>
	<path d="M0.07,8.263c2.138,1.009,4.3,1.967,6.447,2.956c0.172,0.165,0.355,0.325,0.495,0.519c-0.082-0.022-0.165-0.042-0.243-0.075
		c-2.239-0.952-4.486-1.885-6.736-2.81C-0.054,8.662,0.055,8.458,0.07,8.263z"/>
	<path d="M12.176,8.579c-0.008-0.111-0.058-0.232,0.012-0.334c1.235,2.207,2.533,4.378,3.791,6.571
		c-0.131,0.157-0.252,0.323-0.388,0.476c-0.13-0.172-0.207-0.375-0.313-0.561c-0.988-1.888-1.991-3.768-3.001-5.645
		C12.173,8.937,12.192,8.752,12.176,8.579z"/>
	<path d="M12.098,9.908c0.018-0.207,0.08-0.408,0.108-0.615c0.04,0.099,0.082,0.198,0.116,0.3c0.469,2.398,1.026,4.779,1.472,7.182
		c-0.148,0.112-0.307,0.206-0.459,0.311c-0.22-0.498-0.147-1.062-0.318-1.574C12.705,13.645,12.408,11.775,12.098,9.908z"/>
	<path d="M11.736,10.744c0.067-0.167,0.159-0.324,0.269-0.466c-0.226,2.341-0.509,4.678-0.763,7.017
		c-0.032,0.236-0.035,0.476-0.088,0.709c-0.175,0.039-0.349,0.08-0.524,0.117c-0.026-0.424,0.091-0.834,0.131-1.252
		c0.22-1.469,0.429-2.939,0.66-4.407C11.558,11.894,11.503,11.289,11.736,10.744z"/>
	<path d="M0.111,11.148c0.591,0.047,1.183,0.104,1.77,0.185c1.817,0.196,3.635,0.399,5.45,0.613c0.202,0.06,0.385,0.181,0.559,0.298
		c-0.467-0.05-0.937-0.061-1.405-0.094c-1.671-0.112-3.341-0.249-5.012-0.364c-0.385-0.05-0.775-0.053-1.159-0.112
		C0.098,11.61,0.15,11.323,0.111,11.148z"/>
	<path d="M10.874,11.869c0.117-0.32,0.424-0.504,0.633-0.759c-0.005,0.087-0.009,0.176-0.051,0.254
		c-1.039,2.312-2.077,4.624-3.104,6.941c-0.183,0.052-0.371,0.018-0.542-0.057c0.33-0.686,0.627-1.388,0.968-2.069
		C9.478,14.743,10.177,13.307,10.874,11.869z"/>
	<path d="M10.338,12.032c0.138-0.054,0.261-0.139,0.394-0.202c-0.096,0.19-0.238,0.355-0.386,0.507
		c-1.411,1.618-2.845,3.214-4.247,4.839c-0.185,0.172-0.32,0.389-0.507,0.56c-0.155-0.032-0.305-0.082-0.447-0.152
		c0.001-0.028,0.002-0.085,0.003-0.113c0.253-0.325,0.579-0.585,0.836-0.905c0.21-0.254,0.467-0.463,0.677-0.716
		c0.289-0.354,0.647-0.642,0.931-1c0.499-0.497,0.953-1.035,1.461-1.523c0.239-0.273,0.482-0.543,0.745-0.795
		C9.981,12.368,10.092,12.114,10.338,12.032z"/>
	<path d="M7.508,12.432c0.223-0.038,0.441-0.104,0.665-0.135c0.223,0.025,0.443,0.077,0.665,0.116
		c-0.55,0.163-1.115,0.275-1.669,0.422c-1.556,0.382-3.111,0.765-4.668,1.143c-0.389,0.112-0.792,0.17-1.175,0.306
		c-0.108-0.134-0.181-0.29-0.267-0.438c0.274-0.149,0.592-0.168,0.892-0.237c0.901-0.186,1.801-0.378,2.704-0.561
		C5.607,12.844,6.565,12.669,7.508,12.432z"/>
	<path d="M9.407,12.341c0.132-0.022,0.262-0.061,0.398-0.057c-0.732,0.528-1.52,0.971-2.286,1.446
		c-0.736,0.438-1.463,0.889-2.198,1.327c-0.722,0.446-1.458,0.868-2.172,1.327c-0.135-0.109-0.255-0.235-0.383-0.353
		c1.417-0.845,2.854-1.657,4.3-2.451c0.61-0.336,1.213-0.684,1.829-1.009C9.063,12.488,9.212,12.349,9.407,12.341z"/>
</g>
<g id="Layer_1">
</g>
</svg>
