<?xml version="1.0" encoding="iso-8859-1"?>
<!-- Generator: Adobe Illustrator 19.2.0, SVG Export Plug-In . SVG Version: 6.00 Build 0)  -->
<svg version="1.1" xmlns="http://www.w3.org/2000/svg" xmlns:xlink="http://www.w3.org/1999/xlink" x="0px" y="0px"
	 viewBox="0 0 70.764 75.317" style="enable-background:new 0 0 70.764 75.317;" xml:space="preserve">
<g id="Azote_x5F_TR">
	<path style="fill-rule:evenodd;clip-rule:evenodd;" d="M46.179,0.135c-0.112,0.761-0.553,1.462-0.94,2.128
		c-0.382,0.656-0.733,1.338-1.088,2.028c-0.707,1.375-1.634,2.68-2.178,4.058c-0.916,2.32,0.587,4.186,1.484,5.79
		c1.371,2.447,2.988,5.067,4.354,7.522c0.946,1.699,1.972,3.336,2.92,4.997c2.861,5.017,5.922,10.058,8.758,15.043
		c1.921,3.376,3.7,6.797,5.69,10.144c0.939,1.579,1.954,3.311,2.97,4.998c1.065,1.771,2.02,3.202,2.424,5.493
		c0.887,5.021-1.447,8.851-4.453,10.985c-1.165,0.827-2.61,1.515-4.206,1.781c-0.563,0.094-1.194,0.015-1.93,0.049
		c-2.442,0.115-5.174,0.05-7.868,0.05c-10.485-0.002-20.835,0.049-31.569,0.049c-5.156,0-11.283,0.512-14.548-1.287
		c-1.675-0.922-3.121-2.178-4.255-3.711c-1.141-1.542-1.848-3.633-1.732-6.186c0.112-2.457,1.019-4.232,2.029-5.888
		c2.017-3.304,3.854-6.686,5.839-10.045c3.924-6.645,7.602-13.356,11.529-20.139c0.963-1.663,1.836-3.467,2.771-5.146
		c1.349-2.425,2.815-5.062,4.205-7.67c0.379-0.71,1.045-2.375,1.584-2.375c0.492,0,0.842,0.944,1.088,1.385
		c0.912,1.635,1.799,3.103,2.623,4.75c6.516,10.717,12.322,21.977,18.803,32.807c1.88,3.141,3.636,6.323,5.493,9.55
		c0.246,0.429,0.674,0.843,0.642,1.385c-3.287,0.234-7.585,0.21-11.083,0.049c-0.59-0.433-0.842-1.143-1.188-1.732
		c-3.93-6.691-7.736-13.324-11.678-20.188c-0.915-1.594-2.084-3.601-3.167-5.542c-0.272-0.49-0.863-1.579-1.286-1.583
		c-0.546-0.006-1.03,1.215-1.286,1.633c-1.101,1.792-2.188,3.795-3.167,5.592c-0.686,1.258-1.473,2.469-2.078,3.76
		c-1.842,3.929-4.181,7.457-6.334,11.183c-0.972,1.681-2.056,3.715-3.167,5.592c-0.34,0.574-0.923,1.378-0.791,2.078
		c0.148,0.794,1.207,0.885,2.177,0.891c10.759,0.058,22.666-0.159,33.252-0.05c2.961,0.031,5.968-0.049,9.055-0.049
		c1.454,0,3.494,0.272,3.662-1.039c0.069-0.542-0.508-1.492-0.891-2.128c-4.168-6.927-8.107-13.984-12.222-20.881
		c-1.427-2.391-3.017-5.249-4.355-7.67c-1.422-2.573-2.969-5.086-4.403-7.669c-1.415-2.55-3.023-4.997-4.453-7.571
		c-1.329-2.391-3.113-5.18-2.326-9.303c0.497-2.602,1.726-4.183,2.82-6.235c0.312-0.583,0.725-1.711,1.436-1.781
		c0.839-0.082,1.807,0,2.721,0C40.585,0.036,43.543-0.045,46.179,0.135z"/>
	<path style="fill-rule:evenodd;clip-rule:evenodd;" d="M27.178,44.917c2.148-0.184,4.01,0.366,5.344,1.089
		c2.493,1.35,4.626,4.056,4.701,7.966c0.061,3.169-1.351,5.724-3.117,7.274c-1.919,1.683-4.919,2.754-7.918,2.177
		c-2.667-0.513-4.585-1.99-5.839-3.909c-1.581-2.422-2.104-6.51-0.544-9.6C21.08,47.392,23.58,45.225,27.178,44.917z"/>
</g>
<g id="Layer_1">
</g>
</svg>
