<?xml version="1.0" encoding="iso-8859-1"?>
<!-- Generator: Adobe Illustrator 19.2.0, SVG Export Plug-In . SVG Version: 6.00 Build 0)  -->
<svg version="1.1" xmlns="http://www.w3.org/2000/svg" xmlns:xlink="http://www.w3.org/1999/xlink" x="0px" y="0px"
	 viewBox="0 0 126.628 74.679" style="enable-background:new 0 0 126.628 74.679;" xml:space="preserve">
<g id="B2B_x5F_Equality">
	<path style="fill-rule:evenodd;clip-rule:evenodd;" d="M126.628,46.372c-0.404,0.979-1.776,0.5-2.636,0.479
		c-5.982-0.145-8.045,1.29-11.74,3.714c-4.771,3.129-10.279,6.711-14.496,10.183c-4.27,3.516-8.881,7.203-13.537,11.142
		c-1.458,1.233-3.226,3.064-5.151,2.755c-1.386-0.222-2.579-1.583-2.755-2.755c-0.472-3.13,2.802-5.418,4.433-6.948
		c0.911-0.856,5.73-4.135,4.672-6.47c-0.614-1.356-7.756-0.719-9.584-0.719c-7.283,0-11.549-0.225-18.809-0.12
		c-2.608,0.038-7.057,0.589-8.266-0.958c-1.294-1.653-0.275-4.099,0.958-4.672c2.003-0.932,8.147-0.359,10.542-0.359
		c2.109,0,9.146,0.906,10.303-0.6c0.38-0.494,0.605-1.833,0.12-2.636c-0.871-1.439-4.911-0.654-6.948-0.719
		c-5.54-0.173-9.105,0.038-14.376,0c-1.952-0.014-5.212,0.113-5.99-1.797c-0.682-1.674,0.424-3.389,1.198-3.833
		c1.537-0.884,5.434-0.359,8.506-0.359c5.122-0.001,11.76,0.031,17.49,0c3.294-0.019,9.931,1.135,8.746-2.875
		c-0.53-1.794-3.773-1.318-6.709-1.318c-6.038,0-10.156,0-16.054,0c-2.395,0-5.967,0.425-7.667-0.239
		c-1.11-0.435-2.615-2.313-1.438-4.313c1.068-1.813,5.963-1.075,8.506-1.078c8.129-0.009,15.439,0.204,23.96,0
		c1.967-0.047,3.223-0.507,3.354-1.797c0.335-3.28-4.197-2.396-7.548-2.396c-4.884,0-9.029-0.001-13.417,0
		c-3.318,0-6.906,0.564-7.907-1.558c-0.514-1.089-0.241-3.247,0.719-3.834c1.197-0.731,4.189-0.417,6.47-0.359
		c1.472,0.038,4.325,0.111,5.989,0.12c3.628,0.02,10.354,0.936,10.423-2.036c0.076-3.291-6.684-2.006-8.984-2.037
		c-6.082-0.082-12.904-0.143-18.09,0c-2.854,0.078-9.268,0.361-10.063-1.198c-1.456-2.856,2.81-5.729,4.073-6.948
		c1.621-1.564,5.059-4.012,4.912-6.469c-0.063-1.062-1.001-2.428-2.276-2.516c-1.515-0.105-3.576,2.054-4.792,3.114
		c-4.217,3.679-8.704,7.468-12.818,10.902c-2.479,2.068-5.985,4.777-9.225,6.589c-3.443,1.925-6.76,4.527-9.943,5.75
		C7.632,28.413,3.737,27.927,0,27.684c0.576-1.059,2.482-0.694,3.714-0.719c2.421-0.049,4.656,0.126,6.469-0.479
		c3.257-1.087,5.999-3.386,8.985-5.031c5.185-2.857,9.816-7.143,14.017-10.423c2.11-1.648,4.408-3.637,6.589-5.631
		c1.757-1.605,5.392-5.244,7.308-5.391c1.706-0.131,3.329,1.058,3.594,2.875c0.478,3.27-2.623,5.024-4.433,6.829
		c-0.982,0.98-1.802,1.704-2.875,2.755c-0.894,0.874-2.182,2.06-1.797,3.475c0.446,1.641,5.721,1.078,8.267,1.078
		c6.073,0,11.284,0,17.97,0c2.657,0,7.152-0.607,9.225,0.119c1.268,0.445,2.326,2.672,1.558,4.193
		c-1.132,2.237-9.089,1.324-11.98,1.317c-1.94-0.004-3.501,0-6.35,0c-2.404,0-4.868-0.378-5.27,1.438
		c-0.836,3.765,4.486,2.512,7.427,2.636c4.865,0.206,9.118-0.114,13.898,0c3.881,0.094,8.538-0.66,7.787,3.714
		c-0.543,3.163-6.435,2.276-10.184,2.276c-5.837,0-11.047,0-17.131,0c-3.518,0-9.802-1.205-8.626,2.636
		c0.518,1.689,4.63,1.351,6.709,1.317c5.099-0.081,10.685,0,16.053,0c2.331,0,6.3-0.666,8.027,0.359
		c1.453,0.864,1.611,3.984,0.239,5.032c-1.363,1.04-6.544,0.479-9.104,0.479c-7.628,0.001-10.835,0-18.69,0
		c-3.559,0.001-7.471-0.767-7.308,2.276c0.111,2.059,2.449,1.917,5.271,1.917c5.324,0,9.294-0.14,13.657,0
		c4.168,0.133,8.621-0.948,8.865,2.636c0.312,4.602-7.203,3.234-12.579,3.234c-3.273,0-10.163-0.922-10.303,1.917
		c-0.174,3.511,6.839,2.114,9.104,2.156c5.589,0.104,12.044,0.239,18.21,0.12c2.996-0.059,9.697-1.04,10.062,2.036
		c0.353,2.964-2.96,4.66-4.672,6.35c-1.362,1.345-4.788,3.979-4.553,6.35c0.105,1.058,1.171,2.199,2.276,2.275
		c1.657,0.115,3.555-2.025,4.912-3.114C91.992,64.552,98.516,59,106.621,53.2c1.481-1.06,3.279-1.909,4.912-2.994
		c3.292-2.189,4.927-4.138,9.943-4.313c0.847-0.029,1.774,0.097,2.636,0.12C124.942,46.035,126.016,45.688,126.628,46.372z"/>
</g>
<g id="Layer_1">
</g>
</svg>
