<?xml version="1.0" encoding="iso-8859-1"?>
<!-- Generator: Adobe Illustrator 19.2.0, SVG Export Plug-In . SVG Version: 6.00 Build 0)  -->
<svg version="1.1" xmlns="http://www.w3.org/2000/svg" xmlns:xlink="http://www.w3.org/1999/xlink" x="0px" y="0px"
	 viewBox="0 0 60.796 78.355" style="enable-background:new 0 0 60.796 78.355;" xml:space="preserve">
<g id="Bagel_x5F_Druck">
	<path style="fill-rule:evenodd;clip-rule:evenodd;" d="M30.55,27.267c-0.299,0.906-0.239,1.935-0.195,2.927
		c0.299,6.798-0.28,14.267,0.098,20.928c0.995,0.284,2.208,0.17,3.464,0.195c3.603,0.072,7.309,0,10.927,0
		c2.559,0,4.854,0.106,6.732,0.683c1.86,0.572,3.342,1.548,4.683,2.732c2.624,2.317,4.537,5.625,4.537,10.342
		c0,4.597-2.18,7.684-4.781,10.049c-2.02,1.745-4.498,2.92-8,3.171c-1.121,0.08-2.347,0.049-3.659,0.049
		c-14.707-0.003-29.653,0.063-44.198-0.098c-0.158-6.04-0.17-12.817,0-18.782c9.49-0.281,19.063,0.048,28.636-0.244
		c0.2-1.84,0.14-4.432,0-6.391c-3.299-0.213-6.772-0.097-10.342-0.098c-3.524,0-7.013,0.207-9.708-0.83
		c-2.439-0.938-4.583-2.56-6.049-4.585c-1.463-2.022-2.672-4.577-2.683-7.952c-0.011-3.254,1.153-6.048,2.586-8.049
		c2.138-2.987,5.59-5.36,10.342-5.61c5.047-0.265,10.808,0.281,15.806-0.098c0.322-0.828,0.174-1.942,0.195-3.024
		c0.022-1.081,0.006-2.244-0.098-3.22c-0.971-0.345-2.207-0.195-3.463-0.195c-8.407-0.001-16.822,0.134-25.221-0.048
		C0.009,12.949-0.084,6.447,0.109,0.192c0.908-0.264,1.903-0.146,2.878-0.146c0.973,0,1.985,0,2.976,0
		c10.869-0.001,21.376,0.001,32.392,0c4.489-0.001,9.317-0.289,12.733,0.586c3.396,0.87,5.968,3.125,7.61,5.708
		c1.814,2.852,2.609,7.008,1.659,10.781c-0.855,3.395-3.001,6.028-5.561,7.757c-1.363,0.92-2.923,1.617-4.683,2
		c-1.825,0.397-3.995,0.292-6.342,0.292C39.386,27.17,34.945,27.088,30.55,27.267z M42.161,25.706c4.027,0,7.601,0.221,10.391-1.22
		c2.491-1.287,4.579-3.308,5.756-6.049c1.2-2.794,1.43-6.679,0-9.757c-1.792-3.858-5.267-6.806-10.537-7.123
		c-1.788-0.107-3.721,0.019-5.854-0.049c-3.604-0.113-7.432,0.001-11.318,0c-5.51,0-10.745,0.001-16.147,0
		c-2.93,0-5.831,0.001-8.683,0c-1.407,0-2.845-0.118-4.195,0.147c-0.178,3.815-0.097,8.119-0.098,12.05
		c0,1.35-0.117,2.711,0.146,3.951c4.743,0.172,9.597,0.098,14.342,0.098c4.11,0,8.535-0.19,12.635,0
		c0.565,0.026,1.181-0.13,1.707,0.146c0.203,2.431-0.168,5.437,0.195,7.708C34.153,25.786,38.26,25.706,42.161,25.706z
		 M19.477,27.17c-1.984,0-3.959-0.009-5.757,0c-3.703,0.021-6.301,1.429-8.342,3.171c-1.921,2.06-3.628,4.456-3.854,8.098
		c-0.209,3.362,0.878,5.939,2.244,7.854c1.368,1.917,3.296,3.424,5.805,4.293c2.619,0.907,5.88,0.799,9.22,0.683
		c3.3-0.115,6.766,0.167,10.001-0.098c0.28-4.034,0.098-8.151,0.098-12.147c0-3.99,0.138-7.924-0.098-11.757
		C25.891,27.053,22.756,27.17,19.477,27.17z M42.795,76.88c1.872,0,3.603,0.071,5.171,0c1.603-0.073,3.016-0.502,4.195-1.024
		c2.381-1.056,4.126-2.758,5.463-4.927c1.275-2.068,2.167-5.226,1.513-8.488c-0.55-2.742-2.055-4.944-3.805-6.586
		c-1.223-1.023-2.591-1.971-4.391-2.537c-1.798-0.566-3.936-0.631-6.293-0.537c-4.439,0.177-9.666-0.274-14.05,0
		c-0.399,0.443-0.244,1.205-0.244,1.854c0,2.067,0.101,4.366-0.097,6.098c-8.437,0.081-16.851,0.097-25.124,0.098
		c-1.181,0-2.4-0.118-3.561,0.146c-0.041,5.249-0.191,11.022,0.049,15.806C15.252,76.924,28.97,76.879,42.795,76.88z"/>
	<path style="fill-rule:evenodd;clip-rule:evenodd;" d="M46.259,5.9c2.239-0.198,4.113,0.452,5.414,1.415
		c1.83,1.353,3.587,3.975,3.074,7.464c-0.409,2.773-2.107,4.78-4.146,5.805c-2.309,1.16-5.422,1.14-7.806-0.488
		c-2.16-1.476-3.48-3.454-3.464-6.488c0.009-1.504,0.415-2.938,1.025-3.952c0.778-1.293,2.226-2.67,3.951-3.317
		C44.813,6.15,45.461,5.971,46.259,5.9z"/>
	<path style="fill-rule:evenodd;clip-rule:evenodd;" d="M13.427,31.56c3.078-0.068,5.383,1.586,6.586,3.366
		c1.334,1.976,1.834,5.202,0.585,7.806c-1.371,2.857-4.629,4.96-8.489,4.195c-3.473-0.688-6.601-3.661-6.244-8.293
		c0.114-1.479,0.863-3.016,1.463-3.854C8.651,32.935,10.495,31.626,13.427,31.56z"/>
	<path style="fill-rule:evenodd;clip-rule:evenodd;" d="M46.6,57.123c1.993-0.156,3.636,0.478,4.878,1.317
		c1.515,1.023,2.728,2.608,3.171,4.683c1.232,5.779-3.956,10.624-9.415,9.22c-2.781-0.715-5.139-2.816-5.757-5.902
		c-0.718-3.589,0.886-6.112,2.781-7.659C43.377,57.869,44.699,57.272,46.6,57.123z"/>
</g>
<g id="Layer_1">
</g>
</svg>
