<?xml version="1.0" encoding="iso-8859-1"?>
<!-- Generator: Adobe Illustrator 19.2.0, SVG Export Plug-In . SVG Version: 6.00 Build 0)  -->
<svg version="1.1" xmlns="http://www.w3.org/2000/svg" xmlns:xlink="http://www.w3.org/1999/xlink" x="0px" y="0px"
	 viewBox="0 0 61.208 82.245" style="enable-background:new 0 0 61.208 82.245;" xml:space="preserve">
<g id="Bagnasco">
	<path style="fill-rule:evenodd;clip-rule:evenodd;" d="M30.624,36.955c0.146,0.471,0.763,0.441,1.264,0.455
		c1.101,0.03,2.196,0.05,3.336,0c0.53-0.023,1.155,0.063,1.567-0.051c0.599-0.166,1.122-1.061,1.517-1.668
		c0.445-0.686,0.959-1.256,1.365-1.769c0.487-0.617,0.859-1.276,1.314-1.87c1.343-1.755,2.778-3.602,4.094-5.358
		c0.442-0.589,0.887-1.196,1.365-1.769c0.464-0.555,0.915-1.282,1.668-1.466c0.764,0.046,1.155,0.76,1.516,1.264
		c0.776,1.083,1.499,2.043,2.274,3.286c0.278,0.445,0.958,1.286,0.96,1.819c0.003,0.676-0.778,1.368-1.163,1.87
		c-0.499,0.653-0.867,1.245-1.264,1.77c-0.925,1.224-1.953,2.063-2.527,3.488c0.309,0.557,1.027,0.417,1.567,0.404
		c1.831-0.044,3.874-0.063,5.711,0c1.375,0.047,2.651-0.016,3.589,0.354c1.612,0.635,3.026,2.542,2.174,4.751
		c-0.703,1.82-2.502,3.541-3.741,5.105c-0.656,0.829-1.374,1.615-2.022,2.426c-4.556,5.7-8.987,11.56-13.496,17.388
		c-1.261,1.629-2.646,3.276-3.741,5.055c-1.565,2.542-3.875,5.02-5.712,7.531c-0.316,0.432-1.397,2.274-2.123,2.274
		c-0.533,0.001-1.068-0.951-1.415-1.415c-0.883-1.183-1.53-2.057-2.375-3.235c-0.328-0.457-0.995-1.205-1.011-1.77
		c-0.021-0.706,0.855-1.486,1.314-2.072c1.451-1.853,3.037-3.852,4.397-5.611c2.026-2.62,3.867-5.087,5.813-7.531
		c1.01-1.269,1.927-2.584,2.881-3.841c2.389-3.148,4.9-6.19,7.33-9.351c0.477-0.622,1.069-1.244,1.314-2.023
		c-0.244-0.49-0.92-0.34-1.466-0.353c-1.633-0.039-3.523,0.001-5.206,0c-1.187,0.706-1.922,1.92-2.73,2.982
		c-0.816,1.074-1.577,2.202-2.375,3.286c-1.585,2.153-3.266,4.28-4.954,6.369c-1.695,2.098-3.23,4.354-4.903,6.47
		c-0.823,1.041-1.695,2.082-2.527,3.134c-0.808,1.022-1.566,2.299-2.881,2.78c-0.675-0.112-1.011-0.783-1.365-1.264
		c-0.371-0.503-0.759-1.021-1.112-1.516c-0.714-1.001-1.574-1.99-2.022-3.184c0.24-1.003,0.922-1.834,1.516-2.578
		c1.794-2.248,3.497-4.482,5.358-6.824c1.763-2.218,3.456-4.475,5.358-6.824c0.25-0.309,0.532-0.706,0.859-1.163
		c0.31-0.433,0.79-0.978,0.707-1.315c-0.129-0.527-2.102-0.349-2.881-0.353c-1.483-0.008-2.702-0.176-3.538,0.151
		c-0.581,0.228-1.067,0.97-1.517,1.567c-2.196,2.917-4.428,5.864-6.723,8.694c-0.924,1.139-1.787,2.307-3.033,3.134
		c-0.712-0.161-1.02-0.865-1.415-1.365c-0.41-0.519-0.792-1.047-1.162-1.567c-0.746-1.045-1.787-1.97-2.174-3.286
		c0.433-1.482,1.425-2.315,2.325-3.488c0.383-0.499,0.789-1.038,1.264-1.667c0.302-0.401,1.19-1.311,1.011-1.77
		c-0.143-0.366-1.608-0.386-2.375-0.353c-0.921,0.039-1.618,0.015-2.578,0c-3.321-0.054-6.649,0.352-7.632-2.427
		c-0.237-0.67-0.281-1.959,0-2.679c0.289-0.738,1.029-1.506,1.618-2.274c0.589-0.771,1.147-1.548,1.668-2.174
		c1.216-1.46,2.279-2.993,3.336-4.398c6.611-8.782,13.404-17.719,20.067-26.284c0.538-0.745,1.231-1.604,1.921-2.477
		c0.671-0.849,1.275-1.94,2.123-2.325c0.674-0.307,1.303,0.713,1.668,1.213c0.796,1.088,1.556,2.107,2.325,3.134
		c0.372,0.497,0.966,1.099,1.011,1.719c0.091,1.255-1.209,2.348-1.87,3.184c-2.266,2.867-4.534,5.515-6.672,8.441
		c-2.96,4.052-5.924,7.799-8.694,11.474c-1.605,2.294-3.344,4.488-5.055,6.723c-0.222,0.29-0.596,0.632-0.505,1.062
		c0.539,0.599,1.859,0.354,2.881,0.354c1.002,0,2.316,0.153,3.083-0.101c0.886-0.294,1.482-1.451,2.123-2.224
		c1.953-2.353,3.753-4.957,5.611-7.279c2.67-3.336,5.03-6.618,7.43-9.755c0.882-1.022,1.539-2.117,2.476-3.235
		c0.381-0.454,0.883-0.95,1.315-1.567c0.342-0.489,0.88-1.322,1.517-1.314c0.479,0.006,1.068,0.875,1.415,1.314
		c0.919,1.163,1.477,1.909,2.325,3.134c0.328,0.473,0.966,1.106,0.96,1.719c-0.004,0.464-0.46,1.017-0.708,1.365
		c-0.89,1.249-1.73,2.25-2.628,3.437c-2.656,3.489-5.112,7.084-7.734,10.615C32.34,34.628,31.146,35.56,30.624,36.955z"/>
</g>
<g id="Layer_1">
</g>
</svg>
