<?xml version="1.0" encoding="iso-8859-1"?>
<!-- Generator: Adobe Illustrator 19.2.0, SVG Export Plug-In . SVG Version: 6.00 Build 0)  -->
<svg version="1.1" xmlns="http://www.w3.org/2000/svg" xmlns:xlink="http://www.w3.org/1999/xlink" x="0px" y="0px"
	 viewBox="0 0 71.971 76.277" style="enable-background:new 0 0 71.971 76.277;" xml:space="preserve">
<g id="Ballard_x5F_Todd_x5F_and_x5F_Snibbe">
	<path style="fill-rule:evenodd;clip-rule:evenodd;" d="M35.803,0.002c0.417-0.054,1.009,1.302,1.148,1.566
		c0.902,1.701,1.663,3.711,2.297,5.532c0.938,2.698,1.637,5.527,1.878,8.611c0.491,6.27-1.249,10.806-3.653,14.509
		c-0.353,0.544-0.961,1.188-1.043,1.775c-0.213,1.512,0.052,3.46,0.052,5.271c0,1.884-0.103,3.706,0.104,5.115
		c0.43-0.079,0.532-0.592,0.679-0.887c2.687-5.436,7.385-8.868,14.561-9.969c4.09-0.628,8.289,0.089,11.43,1.253
		c2.436,0.903,4.684,1.832,6.785,3.027c0.683,0.389,1.385,0.771,1.931,1.305c-0.353,0.764-1.305,0.989-2.035,1.357
		c-2.151,1.082-4.61,2.323-7.15,2.975c-3.746,0.961-8.221,1.261-12.16,0.574c-3.662-0.638-6.835-2.484-9.238-4.28
		c-0.766,0.358-1.378,1.154-1.878,1.931c-0.484,0.751-0.92,1.626-1.305,2.453c-0.79,1.694-1.556,3.639-1.723,5.845
		c-0.167,2.2,0,4.577,0,6.889c0,2.268-0.001,4.556,0.053,6.785c0.051,2.134,0.147,4.522,0.052,6.785
		c-0.095,2.261-0.1,4.622,0.679,6.054c0.164,0.302,0.394,0.558,0.626,0.835c0.193,0.23,0.543,0.503,0.47,0.835
		c-1.297,0.169-3.297,0.176-4.593,0c-0.079-0.418,0.32-0.646,0.521-0.94c0.616-0.895,1.037-2.1,1.148-3.549
		c0.102-1.317,0.053-3.179,0.053-4.593c-0.001-3.493,0-7.47,0-11.43c-0.001-4.026,0.073-7.947-0.836-10.803
		c-0.672-2.113-1.899-4.005-3.34-5.585c-0.426-0.467-1.015-1.386-1.514-1.409c-0.394-0.018-1.061,0.641-1.514,0.939
		c-3.368,2.225-7.819,3.917-13.674,3.288c-4.497-0.482-8.026-1.66-11.481-3.235C2.058,38.341,0.89,37.907,0,37.109
		c0.344-0.753,1.242-0.951,1.932-1.357c4.586-2.981,11.987-5.749,19.467-3.81c5.612,1.455,9.695,4.757,12.525,9.029
		c0.39,0.589,0.656,1.32,1.253,1.774c0.275-0.715,0.192-1.587,0.209-2.453c0.033-1.765,0.004-3.562-0.053-5.375
		c-0.028-0.935,0.146-1.905,0-2.714c-0.093-0.516-0.672-1.055-0.991-1.566c-2.222-3.552-4.181-7.776-3.862-13.726
		c0.353-6.596,2.682-11.898,5.167-16.753C35.676,0.084,35.728,0.031,35.803,0.002z M34.916,4.125
		c-1.459,3.817-3.497,8.131-3.497,13.465c0,2.396,0.462,4.76,1.044,6.785c0.432,1.505,1.145,2.795,1.826,4.019
		c0.225,0.402,0.358,1.001,0.888,1.096c0.283-0.981,0.157-2.099,0.156-3.184c-0.001-6.513,0.005-14.429,0.053-20.719
		c0.005-0.648,0.13-1.643-0.313-1.618C34.997,3.998,34.945,4.049,34.916,4.125z M37.525,28.132c1.738-3.1,2.992-7.16,2.609-12.213
		c-0.343-4.525-1.896-8.527-3.34-11.847c-0.035,0-0.07,0-0.104,0c0.016-0.106-0.151,0.011-0.156,0.052
		c-0.18,0.806-0.104,2.606-0.104,3.81c0,1.371,0,2.728,0,3.914c0,2.758-0.193,5.144-0.053,7.672
		c0.171,3.086-0.143,6.688,0.209,9.759C37.081,29.13,37.293,28.547,37.525,28.132z M26.096,34.969
		c-1.636-1.007-3.391-1.595-5.584-2.14c-1.579-0.392-3.442-0.434-4.906-0.366c-4.376,0.204-7.862,1.38-10.96,2.871
		c-0.369,0.178-0.966,0.357-1.044,0.835c7.756,0.174,16.201,0.173,23.903,0C27.319,35.599,26.628,35.297,26.096,34.969z
		 M66.908,35.491c-2.652-1.14-5.302-2.31-8.663-2.766c-5.758-0.783-10.675,0.391-14.145,2.609c-0.285,0.183-0.816,0.388-0.782,0.835
		c7.554,0.174,15.832,0.261,23.434,0.261c0.464,0,1.01,0.093,1.409-0.209C67.946,35.757,67.35,35.681,66.908,35.491z M21.764,37.474
		c-5.879,0-12.616-0.085-18.214,0.104c0.007,0.508,0.688,0.624,1.044,0.783c3.014,1.349,6.934,2.466,10.855,2.714
		c3.867,0.245,7.196-0.716,9.707-1.879c0.878-0.407,1.848-0.821,2.349-1.566C25.693,37.351,23.747,37.474,21.764,37.474z
		 M48.067,37.526c-1.555,0-3.378-0.181-4.488,0.104c0.067,0.458,0.579,0.727,0.94,0.939c2.746,1.625,6.501,2.623,10.595,2.662
		c3.97,0.038,7.556-1.042,10.49-2.087c1-0.356,2.227-0.648,2.818-1.409C61.887,37.511,54.823,37.526,48.067,37.526z"/>
</g>
<g id="Layer_1">
</g>
</svg>
