<?xml version="1.0" encoding="iso-8859-1"?>
<!-- Generator: Adobe Illustrator 19.2.0, SVG Export Plug-In . SVG Version: 6.00 Build 0)  -->
<svg version="1.1" xmlns="http://www.w3.org/2000/svg" xmlns:xlink="http://www.w3.org/1999/xlink" x="0px" y="0px"
	 viewBox="0 0 68.083 83.162" style="enable-background:new 0 0 68.083 83.162;" xml:space="preserve">
<g id="Banco_x5F_de_x5F_Credito_x5F_Territorial">
	<path style="fill-rule:evenodd;clip-rule:evenodd;" d="M67.9,0.107c0.283,2.557,0.148,5.31,0.104,7.975
		c-0.043,2.593,0.266,5.389-0.104,7.872c-7.572,0.282-15.807-0.071-23.355,0.259c0.67,0.55,1.516,0.733,2.279,1.036
		c6.889,2.729,12.562,7.559,16.26,13.568c0.84,1.364,1.469,2.875,2.176,4.454c0.684,1.526,1.262,3.163,1.709,4.92
		c0.436,1.71,0.975,3.547,0.881,5.489c-4.824,0.206-10.268,0.104-15.227,0.052c-0.496-1.583-0.852-3.13-1.5-4.505
		c-1.246-2.639-2.994-4.952-5.18-6.732c-1.086-0.884-2.293-1.76-3.729-2.227c-0.279,0.95-0.154,1.999-0.154,3.003
		c-0.002,6.158,0,12.56,0,18.799c0,0.986,0.119,2.016-0.156,2.952c-3.762,0.184-7.961,0.103-11.963,0.103
		c-1.32,0-2.637,0.124-3.832-0.155c-0.191-6.135-0.104-12.622-0.104-18.643c0-2.036,0.119-4.082-0.156-6.007
		c-0.822,0.068-1.494,0.633-2.123,1.036c-1.838,1.175-3.199,2.718-4.557,4.454c-2.461,3.149-4.221,7.762-3.574,13.413
		c0.371,3.236,1.475,6.063,3.16,8.39c1.578,2.178,3.523,4.248,5.904,5.593c2.525,1.427,5.527,2.485,9.062,2.486
		c7.215,0.002,12.207-3.374,15.381-7.664c1.25-1.691,2.211-3.476,2.898-5.749c0.213-0.702,0.316-1.465,0.674-2.175
		c4.975-0.098,10.236-0.148,15.174,0.052c-0.131,3.499-1.023,6.753-2.176,9.581c-1.17,2.876-2.437,5.353-4.193,7.664
		c-3.441,4.528-7.781,8.124-13.051,10.668c-5.307,2.562-12.969,3.843-20.041,2.641c-6.787-1.154-11.803-3.92-16.211-7.509
		c-4.355-3.547-7.664-8.179-9.891-13.827c-2.215-5.62-3.094-13.364-1.398-20.456c1.496-6.257,4.582-11.301,8.391-15.329
		c2.932-3.102,6.184-5.545,10.254-7.509c1.305-0.63,2.738-1.078,4.09-1.812c-0.906-0.276-1.883-0.155-2.848-0.155
		c-6.793,0-13.889,0.063-20.611-0.104C-0.024,12.235,0.06,8.006,0.06,3.991c0-1.322-0.123-2.638,0.154-3.832
		C12.206-0.03,24.777,0.057,37.14,0.055C47.312,0.054,57.78-0.098,67.9,0.107z"/>
</g>
<g id="Layer_1">
</g>
</svg>
