<?xml version="1.0" encoding="iso-8859-1"?>
<!-- Generator: Adobe Illustrator 19.2.0, SVG Export Plug-In . SVG Version: 6.00 Build 0)  -->
<svg version="1.1" xmlns="http://www.w3.org/2000/svg" xmlns:xlink="http://www.w3.org/1999/xlink" x="0px" y="0px"
	 viewBox="0 0 74.584 74.283" style="enable-background:new 0 0 74.584 74.283;" xml:space="preserve">
<g id="Banco_x5F_de_x5F_Desenvolvimento_x5F_do_x5F_Parana">
	<path style="fill-rule:evenodd;clip-rule:evenodd;" d="M30.815,0.201c0.183,3.293,0.101,6.621,0.1,9.953
		c0,9.674-0.003,19.746-0.149,29.658c-3.957,0.146-7.695,0.162-11.153,0c-3.557-0.166-6.414-0.969-8.953-2.352
		c-4.872-2.654-8.38-6.805-9.952-12.703c-1.85-6.936,0.729-13.644,3.95-17.605c2.91-3.578,7.232-6.264,12.904-6.951
		C18.4,0.1,19.433,0,20.362,0C23.741,0,27.397,0.109,30.815,0.201z M18.862,7.803c-3.813,0.277-6.217,2.18-8.203,4.4
		c-1.448,1.777-2.542,3.852-2.75,6.703c-0.217,2.961,0.659,5.512,1.9,7.502c2.086,3.346,5.565,5.652,10.953,5.652
		c0.719,0,1.519,0.117,2.25-0.15c0.252-7.728,0.205-16.256,0.051-24.008C21.767,7.775,20.273,7.699,18.862,7.803z"/>
	<path style="fill-rule:evenodd;clip-rule:evenodd;" d="M74.428,31.16c-13.037,0.1-26.059,0.078-39.312-0.201
		c-0.256-1.891-0.112-3.852-0.1-5.752c0.015-2.094-0.091-4.15,0-6.102c0.352-7.545,4.206-12.609,9.103-15.754
		c2.57-1.65,5.77-2.978,9.453-3.15c4.243-0.201,7.77,0.832,10.603,2.4c2.845,1.574,5.069,3.689,6.802,6.201
		c1.771,2.568,3.121,5.656,3.501,9.502c0.205,2.076,0.05,4.254,0.05,6.453C74.528,26.838,74.612,29,74.428,31.16z M62.775,11.104
		c-2.078-1.973-4.98-3.473-9.104-3.15c-3.315,0.258-6.209,2.07-8.002,4.15c-2.226,2.584-3.374,6.342-2.851,11.104
		c1.823,0.266,3.804,0.15,5.802,0.15c4.017,0,8.138-0.029,12.153,0.049c2.022,0.041,4.018,0.197,5.901-0.1
		C67.558,17.629,65.502,13.693,62.775,11.104z"/>
	<path style="fill-rule:evenodd;clip-rule:evenodd;" d="M43.769,74.072c-0.288-9.688,0.182-20.107-0.05-29.76
		c-0.058-2.359-0.026-4.883,0-7.352c0.007-0.672-0.008-2.18,0.199-2.35c0.037-0.047,0.092-0.076,0.15-0.102
		c4.529,0.115,8.623-0.207,12.504,0.15c3.772,0.35,6.763,1.647,9.253,3.4c4.648,3.277,8.652,8.699,8.652,16.605
		c-0.001,7.75-4.104,13.234-8.903,16.355c-2.574,1.674-5.597,2.93-9.452,3.201c-1.95,0.137-4.062,0-6.202,0
		C47.89,74.223,45.804,74.332,43.769,74.072z M53.772,66.52c2.468,0,4.461-0.275,6.052-1.051c3.23-1.572,6.018-4.703,6.702-8.701
		c0.399-2.336,0.165-4.641-0.601-6.703c-1.123-3.023-3.461-5.35-6.252-6.652c-1.915-0.893-5.134-1.301-8.002-1.049
		c-0.276,0.9-0.203,1.881-0.2,2.85c0.021,6.812-0.099,14.412,0.1,21.156C52.284,66.633,53.055,66.52,53.772,66.52z"/>
	<path style="fill-rule:evenodd;clip-rule:evenodd;" d="M39.518,43.412c0.184,2.096,0.1,4.189,0.1,6.252
		c0,2.154,0.133,4.311-0.05,6.303c-0.69,7.508-4.683,12.326-9.903,15.504c-2.725,1.66-6.088,2.603-10.103,2.602
		c-3.96-0.002-7.186-1.273-9.853-2.852c-2.676-1.582-4.877-3.73-6.451-6.252c-1.64-2.625-2.887-5.67-3.151-9.553
		c-0.238-3.49,0-7.219,0-10.902c0-0.418-0.144-0.994,0.2-1.35c9.538-0.082,19.723,0.1,29.509,0.1
		C33.092,43.264,36.343,43.143,39.518,43.412z M7.958,51.016c-0.239,0.711-0.173,2.355-0.15,3.301
		c0.081,3.396,1.326,5.842,2.751,7.553c2.055,2.291,4.931,4.51,9.202,4.5c4.299-0.008,7.244-1.988,9.354-4.35
		c2.06-2.377,3.219-6.182,2.65-10.854c-3.825-0.217-7.812-0.201-11.753-0.201c-3.97,0-7.94-0.049-11.904-0.049
		C8.049,50.939,7.996,50.969,7.958,51.016z"/>
</g>
<g id="Layer_1">
</g>
</svg>
