<?xml version="1.0" encoding="iso-8859-1"?>
<!-- Generator: Adobe Illustrator 19.2.0, SVG Export Plug-In . SVG Version: 6.00 Build 0)  -->
<svg version="1.1" xmlns="http://www.w3.org/2000/svg" xmlns:xlink="http://www.w3.org/1999/xlink" x="0px" y="0px"
	 viewBox="0 0 77.771 42.479" style="enable-background:new 0 0 77.771 42.479;" xml:space="preserve">
<g id="Banco_x5F_Andrade_x5F_Arnaud">
	<path style="fill-rule:evenodd;clip-rule:evenodd;" d="M51.348,18.874c-0.688-0.546-1.119-1.355-1.604-2.068
		c-0.49-0.723-0.928-1.469-1.448-2.172c-1.897-2.567-5.334-4.913-9.824-4.757c-2.034,0.07-3.997,0.752-5.585,1.655
		c-2.613,1.485-4.435,4.411-6.102,7.032c-1.295,2.037-2.578,3.89-3.93,5.895c-0.431,0.639-0.898,1.31-1.293,1.965
		c-1.64,2.722-3.51,5.266-5.171,7.912c-0.841,1.339-1.72,2.645-2.637,3.93c-0.918,1.286-1.409,2.876-2.586,3.93
		C7.564,42.3,3.61,42.406,0,42.143c-0.008-0.546,0.439-0.939,0.725-1.344c2.039-2.898,3.995-5.995,5.998-8.997
		c1.142-1.713,2.269-3.437,3.412-5.171c1.129-1.711,2.371-3.418,3.206-5.326c-0.746-1.982-2.14-3.565-3.206-5.326
		c-1.061-1.753-2.312-3.399-3.412-5.119C5.068,8.273,3.514,5.601,1.758,3.051C1.18,2.211,0.54,1.353,0.207,0.363
		C3.738,0.14,7.594,0.254,11.221,0.259c0.539,0.291,0.803,0.896,1.138,1.396c0.983,1.468,1.768,3.214,2.845,4.654
		c0.651,1.021,1.308,2.035,1.913,3.102c0.386,0.447,0.59,0.962,0.982,1.551c0.221,0.332,0.729,1.333,1.138,1.345
		c0.56,0.016,1.434-1.817,1.706-2.275c2.47-4.146,6.207-6.919,10.962-8.791C33.843,0.478,36.405,0.012,38.782,0
		c4.382-0.023,8.044,1.352,11.117,3.154c1.94,1.138,4.292,2.939,5.636,5.067c0.362,0.573,1.301,1.582,1.293,2.224
		c-0.009,0.672-0.874,1.422-1.189,1.965c-0.181,0.312-0.281,0.677-0.465,0.983c-0.573,0.953-1.279,1.826-1.913,2.741
		C52.632,17.04,52.18,18.096,51.348,18.874z"/>
	<path style="fill-rule:evenodd;clip-rule:evenodd;" d="M77.771,0.156c-0.338,1.022-1.046,1.849-1.604,2.74
		c-1.635,2.615-3.358,5.281-5.067,7.912c-1.126,1.734-2.212,3.535-3.412,5.223c-1.204,1.691-2.386,3.407-3.413,5.223
		c0.857,1.891,2.183,3.486,3.258,5.223c2.147,3.47,4.387,6.88,6.67,10.29c0.847,1.264,1.627,2.582,2.482,3.878
		c0.288,0.436,0.698,0.836,0.724,1.396c-3.559,0.183-7.754,0.129-11.065,0.103c-0.864-0.769-1.421-1.883-2.068-2.896
		c-1.259-1.969-2.57-3.941-3.878-5.946c-0.635-0.973-1.133-2.114-2.068-2.844c-0.697,0.621-1.191,1.459-1.707,2.275
		c-0.239,0.38-0.489,0.805-0.775,1.189c-0.281,0.379-0.485,0.817-0.775,1.189c-0.403,0.517-1.073,1.043-1.654,1.603
		c-3.686,3.549-9.473,6.265-16.702,5.688c-5.729-0.457-9.965-3.087-13.186-6.308c-0.705-0.706-1.488-1.65-2.172-2.689
		c-0.215-0.328-0.563-0.761-0.568-1.034c-0.008-0.512,1.015-1.848,1.293-2.275c0.987-1.519,1.882-2.81,2.844-4.292
		c0.459-0.707,0.862-1.476,1.552-1.965c0.788,0.689,1.273,1.701,1.81,2.637c1.566,2.734,3.864,4.936,7.239,5.998
		c5.334,1.678,10.307-1.189,12.565-4.137c0.844-1.102,1.523-2.355,2.326-3.516c0.801-1.157,1.533-2.358,2.327-3.516
		c1.59-2.319,2.961-4.776,4.551-7.084c1.607-2.335,3.054-4.762,4.602-7.084c0.786-1.178,1.487-2.405,2.275-3.568
		c0.776-1.146,1.433-2.396,2.379-3.413C70.172,0.083,74.066-0.072,77.771,0.156z"/>
	<path style="fill-rule:evenodd;clip-rule:evenodd;" d="M38.368,12.307c4.34-0.339,7.263,2.08,8.688,4.809
		c2.152,4.125,0.438,9.22-2.482,11.427c-2.407,1.82-6.535,2.71-9.876,1.034c-2.772-1.389-5.411-4.619-5.067-9.152
		c0.203-2.689,1.825-4.999,3.567-6.309C34.471,13.16,36.189,12.477,38.368,12.307z"/>
</g>
<g id="Layer_1">
</g>
</svg>
