<?xml version="1.0" encoding="iso-8859-1"?>
<!-- Generator: Adobe Illustrator 19.2.0, SVG Export Plug-In . SVG Version: 6.00 Build 0)  -->
<svg version="1.1" xmlns="http://www.w3.org/2000/svg" xmlns:xlink="http://www.w3.org/1999/xlink" x="0px" y="0px"
	 viewBox="0 0 86.432 70.398" style="enable-background:new 0 0 86.432 70.398;" xml:space="preserve">
<g id="Banco_x5F_Itau_x5F_America">
	<path style="fill-rule:evenodd;clip-rule:evenodd;" d="M64.578,0.175c-0.105,0.689-0.541,1.275-0.881,1.864
		c-0.998,1.729-2.016,3.544-3.057,5.334c-1.375,2.37-2.684,4.81-4.193,7.043c-8.746,0.194-17.531-0.112-26.049,0.207
		c0.08,0.822,0.637,1.523,1.035,2.227c0.4,0.708,0.762,1.452,1.244,2.072c14.215,0.131,28.518-0.193,42.619,0.052
		c-0.211,1.264-0.977,2.351-1.605,3.418c-4.369,7.406-8.881,14.94-13.258,22.424c-4.393,7.514-8.768,14.979-13.205,22.475
		c-0.617,1.043-1.149,2.185-1.967,3.107c-0.562-0.398-0.803-1.083-1.141-1.657c-2.004-3.416-4.012-6.912-6.059-10.461
		c-0.303-0.526-0.928-1.321-0.932-1.812c-0.004-0.426,0.486-1.018,0.777-1.502c3.137-5.241,6.016-10.476,9.062-15.743
		c0.822-1.424,1.686-2.8,2.537-4.246c0.279-0.474,0.658-0.932,0.725-1.502c-0.652-0.278-1.455-0.155-2.227-0.155
		c-2.262,0-4.764-0.11-6.785,0.155c0.08,0.669,0.459,1.214,0.83,1.812c0.275,0.445,0.963,1.208,0.982,1.761
		c0.02,0.493-0.73,1.399-1.035,1.916c-2.223,3.766-4.314,7.505-6.473,11.238c-0.348,0.6-0.564,1.381-1.191,1.761
		c-1.088-1.448-1.754-3.15-2.641-4.713c-1.756-3.089-3.574-6.174-5.387-9.322c-0.887-1.542-1.713-3.148-2.797-4.557
		c-4.848-0.048-10.242,0.078-15.172-0.052c-1.537-2.244-2.891-4.666-4.299-7.043c-1.053-1.775-2.09-3.528-3.16-5.334
		C0.543,20.371,0.068,19.815,0,19.129c3.77-0.197,7.604-0.104,11.443-0.104c1.26,0,2.568,0.124,3.729-0.156
		c-0.213-0.916-0.809-1.643-1.242-2.434C11.395,11.82,8.629,7.253,5.955,2.661C5.506,1.889,4.969,1.125,4.764,0.227
		c14.131-0.114,29.072-0.158,43.5-0.155c4.93,0.001,9.912,0.225,14.76,0C63.482,0.05,64.17-0.094,64.578,0.175z"/>
	<path style="fill-rule:evenodd;clip-rule:evenodd;" d="M86.432,0.123c-0.076,0.693-0.531,1.281-0.881,1.864
		c-1.738,2.906-3.455,6.038-5.281,8.959c-0.725,1.154-1.303,2.428-2.229,3.418c-4.039,0.106-8.336,0.104-12.635,0.103
		c-1.006,0-2.047,0.122-3.004-0.155c0.481-1.329,1.338-2.47,2.02-3.677c0.682-1.205,1.367-2.399,2.072-3.573
		c1.412-2.355,2.766-4.733,4.297-6.991C75.734,0.02,81.514-0.083,86.432,0.123z"/>
</g>
<g id="Layer_1">
</g>
</svg>
