<?xml version="1.0" encoding="iso-8859-1"?>
<!-- Generator: Adobe Illustrator 21.0.2, SVG Export Plug-In . SVG Version: 6.00 Build 0)  -->
<svg version="1.1" xmlns="http://www.w3.org/2000/svg" xmlns:xlink="http://www.w3.org/1999/xlink" x="0px" y="0px"
	 viewBox="0 0 22.275 24.51" style="enable-background:new 0 0 22.275 24.51;" xml:space="preserve">
<g id="Banco_x5F_Zaragozano">
	<path d="M8.187,0.064C12.87,0.041,17.554,0.022,22.236,0c0.002,1.361,0.001,2.721,0.004,4.082
		c-1.331,1.355-2.657,2.715-3.974,4.082c1.325,0.008,2.649-0.022,3.974-0.016c0.023,2.714,0.021,5.429,0.035,8.144
		c-2.662,2.726-5.327,5.448-8.012,8.152c-4.727,0.02-9.454,0.048-14.181,0.066c-0.028-1.356-0.009-2.715-0.019-4.072
		c1.336-1.364,2.727-2.673,4.048-4.05c-1.361-0.008-2.72,0.017-4.081,0.016C0.011,13.692,0.011,10.978,0,8.266
		c1.35-1.386,2.729-2.75,4.108-4.108C4.101,6.872,4.13,9.587,4.134,12.302c1.346,0.005,2.693-0.032,4.038-0.008
		c-1.301,1.361-2.644,2.683-3.967,4.024c-0.071,0.066-0.031,0.172-0.042,0.257c0.01,1.28-0.007,2.561,0.019,3.84
		c4.699-0.021,9.398-0.039,14.096-0.068c-0.018-2.699-0.007-5.401-0.036-8.099c-1.344-0.015-2.693,0.039-4.033-0.001
		c1.346-1.354,2.671-2.731,4.02-4.08c0.006-1.352-0.007-2.713-0.004-4.068C13.52,4.11,8.816,4.147,4.112,4.155
		c1.186-1.176,2.372-2.356,3.522-3.569C7.826,0.422,7.983,0.207,8.187,0.064z"/>
	<path d="M8.158,8.218c1.346-0.017,2.695-0.018,4.043-0.015c-1.352,1.354-2.681,2.734-4.029,4.091
		C8.155,10.937,8.162,9.577,8.158,8.218z"/>
	<path d="M14.176,12.271c0.009,0.001,0.028,0.003,0.038,0.004c-0.007,1.353,0.005,2.706,0.003,4.058
		c-1.348,0.003-2.696,0.023-4.045,0.016C11.494,14.977,12.846,13.636,14.176,12.271z"/>
</g>
<g id="Layer_1">
</g>
</svg>
