<?xml version="1.0" encoding="iso-8859-1"?>
<!-- Generator: Adobe Illustrator 19.2.0, SVG Export Plug-In . SVG Version: 6.00 Build 0)  -->
<svg version="1.1" xmlns="http://www.w3.org/2000/svg" xmlns:xlink="http://www.w3.org/1999/xlink" x="0px" y="0px"
	 viewBox="0 0 80.019 73.028" style="enable-background:new 0 0 80.019 73.028;" xml:space="preserve">
<g id="Banque_x5F_Transatlantique">
	<path style="fill-rule:evenodd;clip-rule:evenodd;" d="M37.062,0.16c0.272,1.695,0.15,3.457,0.15,5.202c0,3.484,0,6.974,0,10.403
		c0,1.766,0.126,3.487-0.05,5.151c-0.659,6.235-3.889,10.478-7.853,13.354c-3.691,2.6-8.626,4.01-14.104,3.101
		c-4.718-0.783-8.394-3.383-11.003-6.652c-1.366-1.711-2.368-3.457-3.151-5.702c-0.748-2.142-1-4.844-1-7.802
		c0-4.09,0-8.467,0-13.054c0-1.14-0.235-3.969,0.3-4.101c0.544-0.135,1.667,0,2.5,0C14.353,0.06,25.78-0.049,37.062,0.16z"/>
	<path style="fill-rule:evenodd;clip-rule:evenodd;" d="M43.064,0.06c12.283,0.093,24.515-0.028,36.711,0.1
		c0.332,1.02,0.194,2.151,0.2,3.251c0.019,3.442,0,7.106,0,10.603c0.001,2.496,0.15,4.835-0.1,6.952
		c-0.715,6.072-3.708,10.484-7.802,13.354c-2.777,1.947-6.224,3.351-10.753,3.351c-4.35,0-7.896-1.371-10.753-3.351
		c-1.327-0.92-2.593-2.088-3.551-3.501c-0.989-1.459-2.079-2.747-2.701-4.352c-0.665-1.713-1.205-3.574-1.4-5.651
		c-0.404-4.292,0.12-9.164-0.1-13.904c-0.073-1.561-0.097-3.37-0.05-5.051c0.015-0.547,0.019-1.371,0.15-1.65
		C42.942,0.138,42.992,0.088,43.064,0.06z"/>
	<path style="fill-rule:evenodd;clip-rule:evenodd;" d="M58.468,72.931c-12.254,0.171-24.853,0.091-36.96-0.05
		c-0.198-4.556-0.1-9.291-0.1-13.604c0-2.524-0.112-4.821,0.1-6.902c0.6-5.906,3.903-10.525,7.802-13.154
		c2.138-1.441,4.441-2.556,7.452-3.051c0.988-0.162,2.175-0.349,3.301-0.35c4.479-0.003,7.865,1.592,10.553,3.451
		c2.699,1.866,4.923,4.484,6.352,7.602c1.492,3.255,1.821,7.683,1.601,12.304C58.351,63.76,58.894,68.504,58.468,72.931z"/>
</g>
<g id="Layer_1">
</g>
</svg>
