<?xml version="1.0" encoding="iso-8859-1"?>
<!-- Generator: Adobe Illustrator 19.2.0, SVG Export Plug-In . SVG Version: 6.00 Build 0)  -->
<svg version="1.1" xmlns="http://www.w3.org/2000/svg" xmlns:xlink="http://www.w3.org/1999/xlink" x="0px" y="0px"
	 viewBox="0 0 82.626 36.101" style="enable-background:new 0 0 82.626 36.101;" xml:space="preserve">
<g id="Banque_x5F_National_x5F_de_x5F_Paris">
	<path style="fill-rule:evenodd;clip-rule:evenodd;" d="M42.553,14.011c-0.685-0.093-1.043-0.805-1.359-1.309
		c-1-1.6-1.863-3.391-2.818-5.085c-0.947-1.679-1.879-3.415-2.77-5.186c-0.289-0.576-0.729-1.189-0.654-1.863
		c0.357-0.674,1.83-0.547,2.719-0.554c0.754-0.005,1.644-0.079,2.266,0.151c0.654,0.241,1.22,1.213,1.61,1.812
		c0.505,0.773,1.148,1.768,1.259,2.719c0.159,1.371,0,3.135,0,4.783c0,0.817,0,1.647,0,2.417
		C42.805,12.63,42.986,13.455,42.553,14.011z"/>
	<path style="fill-rule:evenodd;clip-rule:evenodd;" d="M23.926,13.81c0.535,1.192,1.745,1.426,2.215,2.819
		c0.466,1.38,0.323,3.608,0.352,5.538c0.03,1.986-0.379,4.031,0.353,5.438c0.602,0.214,1.542,0.184,2.417,0.151
		c0.811-0.03,1.713,0.043,2.164-0.353c0.574-0.503,0.457-1.959,0.504-3.071c0.098-2.317,0.098-4.552,0.151-6.796
		c0.027-1.171-0.033-2.359,0.351-3.172c0.574,0.008,0.805,0.632,1.058,1.057c1.276,2.146,2.423,4.317,3.675,6.646
		c0.58,1.078,1.334,2.033,1.46,3.222c0.039,0.362-0.049,0.917-0.05,1.309c-0.005,1.898,0.181,4.757,0.05,7.048
		c-0.045,0.792-0.125,1.729-0.554,2.014c-0.655,0.436-3.961,0.298-4.732,0.05c-0.614-0.198-0.905-0.682-1.309-1.259
		c-0.378-0.541-0.879-0.952-1.208-1.359c-0.82-1.014-1.442-1.953-2.216-2.87c-0.572-0.552-0.873-1.375-1.711-1.661
		c-0.686,0.416-0.764,1.266-0.957,1.863c-0.635,1.959-1.804,3.805-3.776,4.682c-2.115,0.941-5.339,0.554-8.256,0.554
		c-1.41,0-2.956-0.041-4.38,0.05c-1.498,0.095-3.269,0.169-4.329-0.403c-0.581-0.314-1.079-0.971-1.561-1.51
		c-0.946-1.061-1.64-2.19-2.568-3.474c-0.393-0.543-1.176-1.282-1.058-1.863c0.19-0.927,1.857-0.755,3.374-0.755
		c2.811,0,5.3,0,8.055,0c1.29,0,2.717,0.111,4.078,0c2.189-0.179,3.776-1.641,4.178-3.776c0.184-0.972,0.144-2.402,0.151-3.826
		c0.012-1.998,0.19-3.72-0.604-5.034c-0.143-0.236-0.357-0.528-0.604-0.806c-0.229-0.257-0.542-0.492-0.554-0.806
		c-0.014-0.366,0.426-0.693,0.654-0.957c1.099-1.264,1.137-2.258,1.259-4.883c0.113-2.438,0.217-4.547-0.654-6.192
		c-0.306-0.576-0.646-1.138,0.351-1.258c2.922-0.352,5.195,0.822,6.193,2.618c0.519,1.055,0.503,2.742,0.503,4.531
		c0,1.551,0.012,3.232-0.453,4.178C25.396,12.602,24.375,12.822,23.926,13.81z"/>
	<path style="fill-rule:evenodd;clip-rule:evenodd;" d="M55.643,28.661c-0.447,0.25-0.435,0.946-0.453,1.56
		c-0.017,0.601-0.05,1.281-0.05,1.913c0,1.072,0.147,2.937-0.453,3.474c-0.604,0.539-2.498,0.302-3.726,0.302
		c-1.406,0-2.938,0.236-3.877-0.151c-0.722-0.297-1.203-1.071-1.661-1.611c-0.534-0.628-1.048-1.235-1.41-1.862
		c-0.928-1.237-2.03-2.3-2.668-3.827c0.534-0.788,1.888-0.604,3.121-0.604c0.973,0,2.837,0.234,3.474-0.251
		c0.528-0.403,0.453-1.954,0.453-3.071c0-3.369,0.193-6.478,0.102-9.817c-0.099-3.559-0.001-6.913,0-10.421
		c0-1.047-0.098-2.26,0.553-2.92c0.819,0.15,1.265,0.875,1.763,1.41c1.04,1.115,1.864,2.065,2.97,3.272
		c0.513,0.56,1.118,1.226,1.31,1.812c0.396,1.212,0.215,3.521,0.151,5.034c-0.173,4.093-0.05,8.423-0.051,12.788
		c0,0.744-0.088,1.594,0.453,2.114c0.059-0.008,0.09,0.011,0.101,0.05c1.459,0.114,3.521-0.077,5.186-0.05
		c0.61,0.01,1.181,0.172,1.611-0.101c0.696-0.441,0.503-2.325,0.503-3.323c0-1.352-0.144-2.732,0.252-3.575
		c0.575-0.451,1.406-0.316,2.215-0.352c0.825-0.038,1.732,0,2.618,0c1.749,0,3.635,0.161,4.934-0.302
		c0.811-0.289,2.105-1.527,2.417-2.316c0.578-1.462,0.369-3.839,0.402-5.991c0.038-2.438,0.248-5.168,0.101-7.199
		c-0.046-0.639-0.237-1.358-0.453-1.812C75.161,2.06,74.433,1.493,74.17,0.72c0.205-0.36,0.714-0.439,1.157-0.453
		c1.414-0.045,2.612,0.392,3.625,0.855c1.519,0.697,2.797,1.838,3.272,3.474c0.34,1.172,0.302,2.782,0.302,4.229
		c0,2.964,0.223,5.787,0,8.86c-0.11,1.517,0.01,2.973-0.252,4.229c-0.77,3.692-3.037,6.005-7.4,6.142
		c-0.71,0.022-1.426-0.023-2.266,0c-0.702,0.019-1.609-0.011-1.963,0.251c-0.676,0.502-0.366,2.502-0.403,3.675
		c-0.046,1.479,0.01,2.763-0.352,3.675c-0.896,0.559-2.396,0.402-3.827,0.402c-1.323,0-3.008,0.172-4.027-0.201
		c-0.894-0.328-1.887-1.938-2.467-2.668c-0.806-1.014-1.58-1.934-2.215-2.87C56.731,29.822,56.483,28.945,55.643,28.661z"/>
	<path style="fill-rule:evenodd;clip-rule:evenodd;" d="M7.161,9.682C6.965,9.149,7.01,8.406,7.011,7.617
		c0-1.459-0.143-2.369,1.107-2.618c1.217-0.243,3.359-0.076,3.725,0.705c0.229,0.489,0.151,1.615,0.151,2.366
		c0,0.515-0.119,1.217-0.353,1.51C10.926,10.481,7.93,10.519,7.161,9.682z"/>
	<path style="fill-rule:evenodd;clip-rule:evenodd;" d="M63.496,14.817c-0.397-1.066-0.251-2.757-0.251-4.481
		c-0.001-0.736,0-1.545,0-2.366c-0.001-1.312-0.143-2.586,0.956-2.719c1.391-0.167,3.467-0.1,3.927,0.957
		c0.355,0.815,0.107,2.753,0.101,4.028c-0.01,1.864,0.322,4.21-0.956,4.782c-0.571,0.256-1.386,0.173-2.014,0.151
		C64.676,15.149,64.016,15.193,63.496,14.817z"/>
	<path style="fill-rule:evenodd;clip-rule:evenodd;" d="M11.541,21.462c-0.798,0.658-3.504,0.972-4.38,0.151
		c-0.302-0.867-0.101-2.478-0.101-3.574c0-1.392-0.041-2.121,1.359-2.266c1.82-0.188,3.409,0.065,3.574,1.662
		C12.141,18.849,12.064,20.564,11.541,21.462z"/>
</g>
<g id="Layer_1">
</g>
</svg>
