<?xml version="1.0" encoding="iso-8859-1"?>
<!-- Generator: Adobe Illustrator 19.2.0, SVG Export Plug-In . SVG Version: 6.00 Build 0)  -->
<svg version="1.1" xmlns="http://www.w3.org/2000/svg" xmlns:xlink="http://www.w3.org/1999/xlink" x="0px" y="0px"
	 viewBox="0 0 66.53 81.357" style="enable-background:new 0 0 66.53 81.357;" xml:space="preserve">
<g id="Barazzoni_x5F_Fratelli">
	<path style="fill-rule:evenodd;clip-rule:evenodd;" d="M0.171,81.128c-0.336-5.389-0.078-11.392-0.05-16.911
		c0.474-0.263,1.05-0.151,1.564-0.151c8.349,0,17.046,0.101,25.24,0.101c4.632,0,9.318,0.253,13.629-0.051
		c2.036-0.143,3.749-0.733,5.099-1.716c1.271-0.925,2.483-2.275,3.13-3.686c0.204-0.445,0.288-1.028,0.454-1.564
		c0.496-1.601,0.211-3.558-0.353-5.048c-0.432-1.139-1.425-2.234-2.373-3.029c-1.021-0.856-2.178-1.506-3.584-1.767
		c-1.776-0.328-3.321,0.015-4.695,0.505c-0.677,0.242-1.165,0.601-1.716,0.959c-0.526,0.343-0.985,0.848-1.666,1.01
		c-0.786-1.032-1.335-2.313-2.019-3.534c-1.633-2.913-3.169-5.948-4.897-8.985c-0.254-0.446-0.916-1.421-0.858-1.868
		c0.088-0.685,1.883-1.549,2.423-1.868c0.987-0.582,1.688-1.133,2.373-1.868c1.154-1.499,2.015-3.037,2.12-5.351
		c0.208-4.599-2.547-7.804-6.007-8.935c-1.836-0.6-4.328-0.455-6.159,0.505c-1.78,0.934-2.902,2.136-3.786,3.685
		c-0.964,1.69-1.11,3.556-1.11,6.36c0,4.761,0.084,9.884-0.101,14.791c-5.394,0.214-11.296,0.141-16.658-0.101
		c-0.186-5.75-0.1-11.401-0.101-16.709c-0.001-5.305,1.503-9.677,3.584-13.175C7.249,6.688,12.63,1.864,20.666,0.412
		c5.518-0.997,11.873-0.14,15.801,2.12c3.056,1.759,5.806,3.959,7.874,6.512c1.066,1.316,1.942,2.83,2.827,4.392
		c0.896,1.581,1.506,3.316,2.02,5.199c0.518,1.902,0.855,4.07,0.959,6.259c0.104,2.219-0.336,4.392-0.556,6.613
		c0.741,0.808,1.843,1.027,2.726,1.464c2.773,1.369,5.101,3.173,7.169,5.351c2.688,2.833,4.894,6.313,6.058,10.651
		c0.613,2.285,1.111,4.881,0.959,7.319c-0.486,7.759-3.304,13.349-7.471,17.517c-4.198,4.198-9.117,7.521-17.567,7.521
		C27.674,81.331,13.693,81.466,0.171,81.128z"/>
</g>
<g id="Layer_1">
</g>
</svg>
