<?xml version="1.0" encoding="iso-8859-1"?>
<!-- Generator: Adobe Illustrator 19.2.0, SVG Export Plug-In . SVG Version: 6.00 Build 0)  -->
<svg version="1.1" xmlns="http://www.w3.org/2000/svg" xmlns:xlink="http://www.w3.org/1999/xlink" x="0px" y="0px"
	 viewBox="0 0 76.179 57.996" style="enable-background:new 0 0 76.179 57.996;" xml:space="preserve">
<g id="Barton_x5F_Realty">
	<path style="fill-rule:evenodd;clip-rule:evenodd;" d="M0.049,0.547C-0.039,0.024,0.521,0.08,0.828,0.061
		c2.142-0.137,4.341,0,6.518,0C22.332,0.065,38.06,0.151,53.412,0.11c3.601,0.766,6.355,2.324,8.562,4.621
		c2.047,2.129,3.781,5.566,3.453,9.631c-0.326,4.047-2.065,6.75-4.329,8.853c-1.863,1.732-3.722,2.537-7.005,2.871
		c-0.428,0.043-1.007,0.105-1.508,0.145c-0.357,0.029-1.092-0.076-1.021,0.584c-0.209,0.719,0.791,0.496,1.362,0.486
		c3.949-0.062,7.625,0.383,10.118,1.898c2.784,1.691,4.945,4.336,5.789,8.025c0.841,3.676,0.15,9.238,0.486,13.281
		c0.291,3.492,2.33,6.041,5.595,6.518c0.739,0.107,1.249,0.076,1.265,0.438c0.023,0.561-1.642,0.432-1.995,0.438
		c-12.241,0.244-24.12-0.049-35.899-0.047c-11.102,0-22.556-0.049-33.808-0.049c-0.528-0.002-1.533,0-2.433,0
		C1.563,57.801,0.026,57.989,0,57.461c-0.026-0.547,1.257-0.377,1.752-0.486c1.661-0.367,3.087-1.74,3.746-3.307
		c0.684-1.629,0.438-4.172,0.438-6.568c0-9.506-0.001-18.482,0-27.922c0-2.297,0.143-4.596,0.048-6.859
		C5.885,9.983,6.132,7.623,5.935,5.364C5.713,2.817,3.741,0.979,0.974,0.936C0.709,0.932,0.098,1.082,0.049,0.547z M37.36,57.17
		c1.663,0.029,3.392,0.119,5.01-0.049c2.963-0.309,5.484-1.395,7.346-2.725c1.979-1.414,3.092-3.623,3.892-6.227
		c0.837-2.727,1.036-6.201,0.34-8.853c-0.705-2.684-1.795-5.104-3.405-6.713c-1.733-1.732-3.761-2.992-6.421-3.697
		c-2.031-0.537-4.271-0.682-6.908-0.68c-0.759,0-1.913,0.268-2.141-0.391c0.027-0.234-0.037-0.285,0-0.438
		c0.133-0.545,2.538-0.256,3.211-0.291c3.404-0.182,6.142-1.227,7.929-2.676c1.378-1.018,2.412-2.312,3.211-3.844
		c0.797-1.527,1.404-3.367,1.557-5.496c0.247-3.439-0.953-6.238-2.286-8.416c-1.978-3.23-5.603-5.424-10.216-5.838
		c-1.57-0.141-3.293-0.047-5.107-0.049c-2.563,0-5.228-0.059-7.686,0.049c-0.898,0.039-1.794-0.164-2.627-0.049
		c-0.754,0.105-0.583,0.734-0.583,1.557c0,1.93,0,3.893,0,5.4c0,12.264-0.049,23.799-0.049,35.607c0,3.545,0.113,6.986,0.049,10.41
		c-0.021,1.113-0.22,2.32,0.146,3.309C27.673,57.307,32.56,57.08,37.36,57.17z"/>
</g>
<g id="Layer_1">
</g>
</svg>
