<?xml version="1.0" encoding="iso-8859-1"?>
<!-- Generator: Adobe Illustrator 19.2.0, SVG Export Plug-In . SVG Version: 6.00 Build 0)  -->
<svg version="1.1" xmlns="http://www.w3.org/2000/svg" xmlns:xlink="http://www.w3.org/1999/xlink" x="0px" y="0px"
	 viewBox="0 0 74.343 78.266" style="enable-background:new 0 0 74.343 78.266;" xml:space="preserve">
<g id="Bathing_x5F_Facilities_x5F_80">
	<path style="fill-rule:evenodd;clip-rule:evenodd;" d="M65.479,11.802c-0.601,0.011-1.004-0.522-1.423-0.814
		c-3.111-2.163-7.339-3.513-12.561-3.458c-6.073,0.064-10.394,1.796-13.679,4.78c-3.118,2.832-5.656,6.973-6.204,12.255
		c-0.29,2.793-0.083,5.924-0.052,9.001c0.032,3.02,0.067,6.068-0.152,9.052c-4.374,0.029-8.531,0.478-12.51-0.051
		c-3.896-0.518-6.962-1.693-9.56-3.56c-4.626-3.323-8.793-9.882-7.323-18.307C3.251,13.613,8.037,8.868,13.151,5.547
		c2.7-1.753,5.84-3.009,9.205-3.915C25.878,0.682,29.66,0.252,33.9,0.055c6.695-0.311,13.066,0.733,18.002,2.39
		c5.171,1.736,9.384,4.261,12.561,7.679C64.755,10.729,65.406,10.976,65.479,11.802z"/>
	<path style="fill-rule:evenodd;clip-rule:evenodd;" d="M74.175,33.669c-13.307,0.13-27.124,0.188-40.733,0
		c-0.751-7.596,0.894-13.464,4.119-17.595c3.218-4.121,8.271-6.832,14.9-7.221c3.622-0.213,7.15,0.76,9.814,1.932
		c2.523,1.11,4.936,3.113,6.662,5.034c1.802,2.005,3.252,4.664,4.119,7.578C73.935,26.348,74.69,29.863,74.175,33.669z"/>
	<path style="fill-rule:evenodd;clip-rule:evenodd;" d="M8.778,66.469c0.555,0.023,1.022,0.46,1.475,0.763
		c0.461,0.309,0.918,0.621,1.373,0.915c3.794,1.979,8.895,3.27,14.392,2.441c3.696-0.558,6.979-1.696,9.356-3.662
		c2.336-1.931,4.249-4.314,5.645-7.374c0.91-1.995,1.608-4.399,1.678-6.967c0.128-4.669,0-10.135,0-15.104
		c0.001-0.618-0.156-1.357,0.255-1.881c4.442,0.098,9.4-0.356,13.476,0.204c6.497,0.891,10.68,4.585,13.527,9.204
		c1.16,1.883,2.042,4.092,2.391,6.712c0.363,2.735,0.136,5.656-0.661,8.137c-1.444,4.49-4.21,8.037-7.475,10.73
		c-4.779,3.94-11.732,6.567-19.985,7.323c-2.797,0.256-5.771,0.497-8.543,0.254c-5.689-0.499-10.66-1.379-15.104-3.102
		c-4.34-1.683-8.053-4.049-10.984-7.221C9.323,67.412,8.657,67.119,8.778,66.469z"/>
	<path style="fill-rule:evenodd;clip-rule:evenodd;" d="M40.816,44.704c0.109,1.882,0.176,3.741,0.101,5.492
		c-0.221,5.223-2.08,9.348-4.628,12.408c-2.458,2.954-6.121,5.3-10.729,6.306c-5.104,1.113-10.384,0.056-14.138-1.831
		c-2.518-1.266-4.748-2.907-6.407-4.933c-3.389-4.139-5.462-9.988-4.933-17.443c10.881-0.173,23.077-0.102,34.428-0.102
		c1.091,0,2.194,0.025,3.255,0C38.799,44.577,39.839,44.399,40.816,44.704z"/>
</g>
<g id="Layer_1">
</g>
</svg>
