<?xml version="1.0" encoding="iso-8859-1"?>
<!-- Generator: Adobe Illustrator 19.2.0, SVG Export Plug-In . SVG Version: 6.00 Build 0)  -->
<svg version="1.1" xmlns="http://www.w3.org/2000/svg" xmlns:xlink="http://www.w3.org/1999/xlink" x="0px" y="0px"
	 viewBox="0 0 84.33 46.32" style="enable-background:new 0 0 84.33 46.32;" xml:space="preserve">
<g id="Bau_x5F_und_x5F_Montagekombinat_x5F_Erfurt">
	<path style="fill-rule:evenodd;clip-rule:evenodd;" d="M84.105,0.15c0.266,0.896,0.149,1.847,0.149,2.776
		c-0.001,13.614,0.049,26.935,0.05,40.448c0,0.909,0.118,1.846-0.149,2.727c-4.034,0.038-8.727,0.201-12.938,0
		c-0.269-1.25-0.148-2.649-0.148-4.015c0-4.045,0.059-8.452-0.1-12.145c-0.598,0.033-1.054,0.508-1.487,0.843
		c-3.093,2.393-6.411,4.709-9.517,7.188c-3.553,2.835-7.162,5.623-10.855,8.278c-4.526-0.014-9.091,0.022-13.483,0
		c-1.916-1.234-3.678-2.695-5.502-4.064c-4.523-3.395-9.143-6.753-13.582-10.311c-0.432-0.346-0.877-0.703-1.338-1.04
		c-0.428-0.315-0.869-0.781-1.438-0.843c-0.269,1.294-0.149,2.704-0.148,4.065c0,3.965,0.103,8.03-0.1,12.095
		c-1.021,0.28-2.155,0.124-3.271,0.148c-1.13,0.025-2.279,0-3.42,0c-2.276,0-4.62,0.09-6.643-0.148
		c-0.123-7.495-0.216-15.106-0.099-22.752c0.118-7.675-0.283-15.51,0.05-23.099C27.346,0.039,54.321,0.197,81.18,0.001
		C82.067-0.006,83.223,0.03,84.105,0.15z M49.308,13.633c-0.274,4.913-0.146,10.492,0,15.564c0.796-0.196,1.322-0.855,1.933-1.338
		c4.325-3.42,8.544-6.811,12.739-10.311c1.202-0.925,2.541-1.886,3.718-2.826c0.376-0.299,0.94-0.615,0.991-1.14
		C62.446,13.398,55.701,13.507,49.308,13.633z M26.704,13.583c-3.617,0-7.478-0.097-10.806,0.099c0.1,0.487,0.614,0.655,0.942,0.942
		c0.355,0.311,0.623,0.659,0.991,0.942c5.059,3.887,9.925,7.988,14.97,11.847c0.845,0.56,1.581,1.492,2.528,1.784
		c0.258-0.554,0.149-1.231,0.149-1.834c0-2.072,0-3.96,0-5.948c0-2.683,0.038-5.395-0.149-7.733
		C32.609,13.41,29.667,13.583,26.704,13.583z"/>
</g>
<g id="Layer_1">
</g>
</svg>
