<?xml version="1.0" encoding="iso-8859-1"?>
<!-- Generator: Adobe Illustrator 19.2.0, SVG Export Plug-In . SVG Version: 6.00 Build 0)  -->
<svg version="1.1" xmlns="http://www.w3.org/2000/svg" xmlns:xlink="http://www.w3.org/1999/xlink" x="0px" y="0px"
	 viewBox="0 0 78.015 64.646" style="enable-background:new 0 0 78.015 64.646;" xml:space="preserve">
<g id="BBB_x5F_Furniture">
	<path style="fill-rule:evenodd;clip-rule:evenodd;" d="M17.19,0.178c0.203,5.378,0.098,10.678,0.098,16.001
		c0,2.696-0.093,5.41,0,8.098c0.183,5.277,0.049,10.512,0.049,15.806c0,7.948,0.067,16.094-0.098,24.343
		c-5.731,0.111-11.627,0.256-17.074,0c-0.201-2.582-0.098-5.244-0.098-7.903c0-17.976-0.179-37.409,0.049-56.345
		c3.99-0.144,8.159-0.146,12.245-0.146C14.003,0.032,15.651-0.086,17.19,0.178z"/>
	<path style="fill-rule:evenodd;clip-rule:evenodd;" d="M17.97,32.082c-0.186-4.029-0.158-8.62,0-12.879
		c2.609-0.208,5.089,0.292,6.244-1.415c1.264-1.866-0.022-4.277-1.854-4.683c-1.333-0.295-3.051,0.198-4.391-0.147
		c-0.25-0.933-0.132-1.996-0.098-3.074c0.082-2.619,0-5.515,0-8.342c0-0.49-0.118-1.068,0.195-1.463
		c2.919-0.2,6.19-0.047,8.391,0.683c2.321,0.769,4.103,1.859,5.708,3.22c0.763,0.647,1.404,1.551,2.098,2.39
		c0.686,0.83,1.354,1.701,1.805,2.634c1.011,2.095,1.512,4.437,1.512,7.317c0,2.909-0.594,5.183-1.659,7.269
		c-1.978,3.876-5.309,6.643-9.854,8c-1.739,0.519-3.785,0.634-6.049,0.634C19.361,32.229,18.626,32.342,17.97,32.082z"/>
	<path style="fill-rule:evenodd;clip-rule:evenodd;" d="M38.216,32.18c-0.262-1.971-0.146-4.258-0.146-6.488
		c0-1.105,0-2.229,0-3.317c0-1.083-0.117-2.166,0.146-3.122c1.465-0.346,3.222,0.172,4.537-0.195c1.2-0.336,1.792-1.173,2.146-2.342
		c0.12-1.783-0.654-2.954-1.902-3.415c-1.327-0.49-3.166,0.086-4.83-0.341C38.064,9.098,37.97,5.34,38.118,1.641
		c0.02-0.502-0.122-1.058,0.146-1.512c6.248-0.573,11.07,1.157,14.147,3.903c0.544,0.486,1.083,1.154,1.609,1.756
		c1.545,1.766,2.814,3.951,3.415,6.635c0.879,3.931,0.311,7.952-1.317,11.122C53.162,29.305,47.449,33.099,38.216,32.18z"/>
	<path style="fill-rule:evenodd;clip-rule:evenodd;" d="M58.461,32.18c-0.264-0.978-0.146-2.081-0.146-3.171
		c0-3.166-0.08-6.706,0.098-9.757c1.542-0.32,3.392,0.209,4.732-0.244c0.826-0.279,1.515-0.974,1.805-1.708
		c0.678-1.714-0.323-3.669-2.098-4.098c-1.4-0.338-2.981,0.173-4.488-0.244c-0.093-2.937-0.049-6.431-0.049-9.659
		c0-1.08-0.117-2.165,0.146-3.122c2.633-0.237,6.288-0.029,8.391,0.634c2.215,0.698,4.219,1.846,5.707,3.171
		c0.781,0.695,1.395,1.574,2.098,2.39c0.695,0.806,1.262,1.699,1.756,2.683c0.976,1.945,1.659,4.671,1.561,7.317
		c-0.056,1.507-0.198,2.842-0.439,4.049c-0.679,3.399-2.842,6.196-5.171,8.147C69.154,31.26,64.515,32.837,58.461,32.18z"/>
	<path style="fill-rule:evenodd;clip-rule:evenodd;" d="M18.019,64.426c-0.26-1.962-0.146-4.181-0.146-6.391
		c0-2.176-0.08-4.399,0.098-6.391c1.663-0.31,3.333,0.151,4.683-0.293c0.849-0.279,1.505-0.905,1.805-1.561
		c0.728-1.595-0.082-3.463-1.561-4.049c-1.289-0.511-3.494,0.098-4.927-0.342c-0.094-3.493-0.209-7.709-0.098-11.268
		c0.015-0.489-0.122-1.04,0.146-1.464c2.895-0.315,6.354-0.017,8.585,0.732c2.34,0.785,4.005,1.841,5.61,3.22
		c3.179,2.728,5.464,6.712,5.464,12.245c0,5.274-2.578,9.472-5.708,12C28.716,63.495,24.248,65.083,18.019,64.426z"/>
	<path style="fill-rule:evenodd;clip-rule:evenodd;" d="M38.216,64.475c-0.177-3.959-0.154-8.704,0-12.83
		c1.507-0.241,3.215,0.206,4.585-0.195c1.712-0.501,2.693-2.441,1.805-4.244c-0.373-0.756-1.189-1.383-2.049-1.561
		c-1.404-0.291-2.973,0.204-4.391-0.195c-0.073-3.409-0.098-7.538-0.098-11.317c0-0.491-0.118-1.066,0.195-1.464
		c2.724-0.181,6.044,0.058,8.245,0.732c2.363,0.724,4.215,1.759,5.805,3.122c3.149,2.7,5.58,6.649,5.61,12.196
		c0.029,5.409-2.588,9.501-5.708,12.147C49.018,63.578,44.445,65.162,38.216,64.475z"/>
	<path style="fill-rule:evenodd;clip-rule:evenodd;" d="M58.461,64.475c-0.259-0.993-0.146-2.102-0.146-3.22
		c0-2.185,0.073-4.42,0-6.537c-0.037-1.066-0.077-2.134,0.146-3.073c1.584-0.216,3.614,0.22,4.83-0.293
		c2.681-1.131,2.33-5.126-0.585-5.708c-1.359-0.271-2.643,0.155-4.293-0.195c-0.17-2.947-0.098-6.385-0.098-9.562
		c0-0.843-0.106-2.665,0.146-3.122c0.036-0.045,0.089-0.074,0.146-0.098c7.676-0.481,12.569,1.847,15.854,5.805
		c1.414,1.703,2.673,3.984,3.171,6.342c0.514,2.433,0.472,5.032,0.098,7.415c-0.313,1.997-1.382,4.013-2.439,5.513
		C72.093,62.28,66.546,65.428,58.461,64.475z"/>
</g>
<g id="Layer_1">
</g>
</svg>
