<?xml version="1.0" encoding="iso-8859-1"?>
<!-- Generator: Adobe Illustrator 19.2.0, SVG Export Plug-In . SVG Version: 6.00 Build 0)  -->
<svg version="1.1" xmlns="http://www.w3.org/2000/svg" xmlns:xlink="http://www.w3.org/1999/xlink" x="0px" y="0px"
	 viewBox="0 0 77.509 67.821" style="enable-background:new 0 0 77.509 67.821;" xml:space="preserve">
<g id="Beba_x5F_Beton">
	<path style="fill-rule:evenodd;clip-rule:evenodd;" d="M47.018,0c0.033,0,0.065,0,0.098,0c1.397,1.253,2.679,2.622,3.951,4
		c1.259,1.364,2.664,2.611,3.951,3.951c2.582,2.688,5.196,5.338,7.852,7.95c0.177,0.46,0.897,0.626,0.781,1.219
		c-2.733,0.268-6.348-0.08-9.219,0.195c-0.265,0.957-0.146,2.054-0.146,3.121c0,3.176-0.065,6.647,0.049,9.657
		c1.756,0.395,3.98,0.019,6.146,0.146c1.91,0.112,3.772,0.65,5.17,1.268c3.035,1.341,5.519,3.12,7.462,5.414
		c2.79,3.299,4.531,7.396,4.39,13.315c-0.061,2.548-0.841,5.047-1.805,7.072c-0.938,1.971-2.288,3.839-3.658,5.17
		c-2.966,2.88-7.013,5.065-12.388,5.316c-5.893,0.275-9.829-1.905-13.169-4.536c-0.423-0.65-1.061-1.085-1.561-1.658
		c-0.532-0.541-0.838-1.308-1.561-1.658c-0.64,0.327-0.95,1.006-1.415,1.512c-0.459,0.501-0.959,0.96-1.415,1.463
		c-3.517,3.115-8.599,5.588-15.217,4.731c-5.819-0.754-9.841-3.962-12.632-7.658c-1.639-2.156-2.93-4.888-3.414-8.194
		c-0.258-1.765-0.097-3.742-0.097-5.706c0-9.452,0.083-19.713-0.098-28.825C6.205,17.028,2.869,17.258,0,17.022
		c0.025-0.502,0.505-0.847,0.829-1.17c1.014-1.014,2.077-2.029,3.122-3.073c2.727-2.727,5.262-5.652,8.047-8.438
		c0.954-0.953,1.991-2.04,3.073-3.122c0.314-0.314,0.855-0.914,1.122-0.927c0.548-0.025,1.323,1.08,1.805,1.561
		c3.896,3.896,7.788,7.803,11.608,11.706c0.157,0.388,0.596,0.542,0.976,0.927c0.335,0.339,0.576,0.86,1.024,0.878
		c0.519,0.021,1.749-1.407,2.097-1.756c4.383-4.384,8.85-9.292,13.169-13.51C46.907,0.052,46.96,0.024,47.018,0z M36.726,17.168
		c-4.521,0-9.228-0.117-13.218,0.098c-0.178,2.08-0.098,4.333-0.098,6.536c0,2.203-0.171,4.376,0.098,6.292
		c4.17,0.183,8.327,0.147,12.34,0.146c1.407,0,2.832,0.118,4.145-0.146c0.042-4.327,0.168-8.667-0.048-12.778
		C38.941,17.051,37.815,17.168,36.726,17.168z M22.631,45.994c-0.824,1.309-1.158,3.671-0.292,5.511
		c1.094,2.327,3.899,3.926,6.877,3.219c1.247-0.296,2.317-0.996,3.073-1.902c0.958-1.149,1.931-3.435,0.927-5.95
		c-0.479-1.2-1.144-1.977-2.146-2.683c-0.912-0.642-2.267-1.18-3.804-1.025C24.951,43.398,23.405,44.765,22.631,45.994z
		 M54.383,45.164c-0.739,0.812-1.595,2.11-1.61,3.853c-0.008,1.027,0.32,2.092,0.683,2.731c0.851,1.497,2.339,2.729,4.097,3.024
		c5.2,0.87,8.967-4.276,6.292-8.73c-0.841-1.4-2.806-3.029-5.755-2.731C56.372,43.485,55.229,44.233,54.383,45.164z"/>
</g>
<g id="Layer_1">
</g>
</svg>
