<?xml version="1.0" encoding="iso-8859-1"?>
<!-- Generator: Adobe Illustrator 19.2.0, SVG Export Plug-In . SVG Version: 6.00 Build 0)  -->
<svg version="1.1" xmlns="http://www.w3.org/2000/svg" xmlns:xlink="http://www.w3.org/1999/xlink" x="0px" y="0px"
	 viewBox="0 0 79.634 41.278" style="enable-background:new 0 0 79.634 41.278;" xml:space="preserve">
<g id="Beckers_x5F_SE">
	<path style="fill-rule:evenodd;clip-rule:evenodd;" d="M79.437,41.002c-8.857,0.281-17.469,0.186-26.297,0.1
		c-0.352-0.965-0.345-1.918-0.552-2.81c-0.614-2.646-1.877-4.754-3.563-6.474c-2.047-2.088-5.196-4.064-9.334-4.065
		c-4.073,0-7.24,1.816-9.435,3.965c-2.297,2.249-3.63,5.3-4.015,9.334c-1.03,0.27-2.143,0.15-3.212,0.151
		c-6.486,0.001-13.064,0.05-19.723,0.05c-1.058,0-2.152,0.118-3.162-0.151c-0.207-0.706-0.144-1.494-0.1-2.208
		c0.235-3.889,0.888-7.231,1.856-10.438c0.387-1.279,0.713-2.562,1.205-3.714c3.922-9.173,10.177-16.055,18.97-20.476
		c4.524-2.274,9.578-3.858,15.658-4.215c3.445-0.203,6.618,0.233,9.586,0.803c2.916,0.56,5.523,1.454,7.879,2.509
		c9.649,4.325,16.391,11.204,20.776,20.777c1.635,3.569,2.761,7.455,3.363,12.195C79.524,37.812,79.843,39.434,79.437,41.002z
		 M76.727,31.015c-0.63-2.541-1.539-4.929-2.559-7.076c-2.049-4.31-4.809-8.021-8.03-11.242c-3.126-3.126-7.014-5.821-11.492-7.778
		c-4.246-1.856-9.893-3.503-16.059-3.212c-11.862,0.56-19.709,5.342-26.046,11.542C9.478,16.355,6.961,20.1,4.962,24.39
		c-0.96,2.062-1.906,4.471-2.359,6.976c-0.232,1.281-0.448,2.639-0.652,4.015c-0.2,1.351-0.442,2.783-0.201,4.216
		c0.87,0.166,2.028,0.144,2.911,0c0.474-1.234,0.38-2.55,0.552-3.764c0.177-1.25,0.418-2.448,0.703-3.613
		c2.249-9.198,7.326-15.835,14.001-20.626c1.661-1.191,3.467-2.378,5.47-3.211c4.028-1.676,8.666-3.171,14.102-3.112
		c5.512,0.06,10.174,1.266,14.203,3.112c4.008,1.836,7.348,4.286,10.188,7.126c5.032,5.033,8.904,11.382,10.238,20.024
		c0.189,1.226,0.268,2.521,0.552,3.814c0.887,0.174,2.297,0.205,3.162-0.05C78.017,36.337,77.363,33.576,76.727,31.015z
		 M71.759,32.219c-0.622-2.184-1.344-4.162-2.258-6.022c-1.806-3.674-4.053-7.007-6.875-9.686c-2.744-2.604-5.954-5.044-9.837-6.725
		c-4.602-1.993-11.303-3.461-17.665-2.459c-3.546,0.559-6.659,1.429-9.435,2.76c-3.612,1.733-6.751,4.041-9.485,6.775
		c-4.621,4.622-8.121,11.042-9.385,19.02c-0.19,1.198-0.42,2.485-0.15,3.613c0.793,0.208,2.424,0.312,3.111,0
		c0.277-1.093,0.317-2.176,0.452-3.212c0.413-3.182,1.436-5.93,2.609-8.431c3.137-6.68,7.971-11.566,14.705-14.704
		c3.388-1.579,7.471-2.66,12.094-2.66c4.787,0,8.563,1.172,11.995,2.71c3.413,1.53,6.194,3.689,8.682,6.022
		c2.497,2.342,4.63,5.31,6.123,8.582c1.155,2.534,2.169,5.261,2.66,8.381c0.164,1.041,0.169,2.134,0.502,3.212
		c0.801,0.264,2.326,0.179,3.111-0.05C72.868,36.809,72.377,34.388,71.759,32.219z M67.493,36.485
		c-1.22-6.891-4.203-12.128-8.331-16.109c-2.347-2.264-4.969-4.161-8.281-5.671c-3.174-1.447-7.059-2.631-11.392-2.509
		c-8.748,0.247-14.867,3.668-19.572,8.23c-3.832,4.039-7.14,9.233-8.13,16.06c-0.142,0.982-0.327,2.044-0.1,3.061
		c0.349,0.235,0.912,0.15,1.556,0.15c0.544,0,1.294,0.089,1.556-0.15c0.174-0.159,0.196-0.737,0.251-1.204
		c0.765-6.529,3.568-11.5,7.026-15.056c3.937-3.851,8.829-7.058,16.009-7.528c3.962-0.26,7.726,0.512,10.64,1.857
		c3.017,1.393,5.473,2.813,7.628,4.968c3.669,3.669,6.792,8.131,7.728,14.303c0.13,0.856,0.12,1.804,0.502,2.66
		c0.856,0.118,2.159,0.118,3.011,0C67.929,38.529,67.666,37.459,67.493,36.485z M61.922,34.678
		c-2.269-7.459-6.823-12.468-13.6-15.407c-2.739-1.188-6.097-2.005-9.836-1.806c-6.609,0.351-11.575,3.293-15.206,6.925
		c-1.874,1.873-3.279,3.956-4.467,6.474c-1.174,2.49-2.238,5.352-2.158,8.632c0.658,0.347,2.252,0.233,3.061,0.101
		c0.325-0.639,0.295-1.358,0.402-2.007c0.985-5.968,4.421-10.31,8.481-13.199c2.735-1.947,6.546-3.445,10.991-3.513
		c2.966-0.045,5.66,0.761,7.879,1.757c2.242,1.006,4.181,2.447,5.771,3.914c1.708,1.577,2.905,3.505,4.015,5.621
		c0.87,1.66,1.349,3.43,1.807,5.42c0.15,0.65,0.14,1.343,0.502,1.957c0.794,0.262,2.187,0.124,3.062,0
		C62.783,37.806,62.368,36.141,61.922,34.678z M55.7,32.47c-1.01-2.009-2.384-3.754-4.015-5.119
		c-3.127-2.653-7.405-5.237-13.5-4.717c-2.666,0.227-4.991,1.028-6.976,2.057c-3.955,2.052-6.97,5.56-8.631,9.887
		c-0.573,1.493-1.096,3.184-1.004,4.968c0.664,0.362,2.289,0.221,3.111,0.101c0.407-0.891,0.439-1.847,0.703-2.71
		c0.807-2.637,2.163-4.755,3.814-6.524c1.742-1.751,3.87-2.924,6.524-3.764c2.793-0.884,6.165-0.706,8.833,0.301
		c4.794,1.81,8.363,5.806,9.585,11.091c0.114,0.495,0.142,1.104,0.452,1.556c0.805,0.124,2.412,0.258,3.061-0.101
		C57.629,36.757,56.691,34.442,55.7,32.47z"/>
</g>
<g id="Layer_1">
</g>
</svg>
