<?xml version="1.0" encoding="iso-8859-1"?>
<!-- Generator: Adobe Illustrator 19.2.0, SVG Export Plug-In . SVG Version: 6.00 Build 0)  -->
<svg version="1.1" xmlns="http://www.w3.org/2000/svg" xmlns:xlink="http://www.w3.org/1999/xlink" x="0px" y="0px"
	 viewBox="0 0 144.308 175.739" style="enable-background:new 0 0 144.308 175.739;" xml:space="preserve">
<g id="Bell_x5F_Canada_x5F_78">
	<path style="fill-rule:evenodd;clip-rule:evenodd;" d="M127.364,120.096c-7.549,7.412-15.119,14.973-22.646,22.501
		c-1.253,1.253-2.384,2.627-3.637,3.88c-6.188,6.188-12.375,12.649-18.476,19.155c-2.28,2.432-4.842,5.202-7.565,7.468
		c-1.113,0.927-3.007,2.463-4.898,2.619c-2.218,0.182-3.865-0.823-5.237-2.279c-6.747-6.637-13.519-13.25-20.028-20.125
		c-3.286-3.386-6.489-6.876-9.844-10.232c-3.338-3.339-6.839-6.553-10.038-10.039c-4.8-5.23-9.995-10.058-14.79-15.323
		c-2.401-2.638-4.982-5.006-7.274-7.808c-0.749-0.916-1.58-1.858-2.085-2.91c-1.021-2.125-0.727-6.104-0.727-9.311
		c0-13.238,0.039-26.645-0.097-39.667c-0.017-1.598-0.039-3.259,0-4.85c0.039-1.653,0.038-3.215,0.485-4.51
		c0.86-2.497,2.613-4.122,4.171-5.819c6.685-6.683,13.127-13.608,19.736-20.367c1.527-1.819,3.161-3.53,4.801-5.237
		c4.891-5.091,9.681-10.385,14.645-15.469c0.853-0.901,1.88-1.521,3.443-1.601c4.837-0.246,10.02-0.049,14.936-0.048
		c6.605,0,13.263-0.033,19.785-0.097c4.087-0.04,8.279,0.083,12.463,0c1.035-0.021,2.142-0.048,3.152,0
		c1.069,0.051,2.034-0.037,2.861,0.194c1.551,0.433,2.732,1.581,3.201,3.055c0.269,0.85,0.187,1.742,0.242,2.91
		c0.143,3.009,0.049,6.232,0.048,9.068c0,6.503,0.103,12.476,0.049,18.767c-0.009,1.003-0.079,2.16,0,3.055
		c0.157,1.775,1.111,3.162,2.425,3.831c0.777,0.396,1.635,0.388,2.764,0.388c8.323,0,16.162,0,24.587,0
		c2.085,0,4.228-0.162,6.208,0.049c1.785,0.19,3.031,1.181,3.733,2.57c0.71,1.405,0.533,3.519,0.533,5.723
		c0.001,12.523-0.048,25.15-0.048,37.291c0,4.398,0.048,8.309,0.048,12.511c0,1.675-0.054,2.98-0.728,3.977
		c-1.01,1.497-2.269,2.802-3.637,4.17C135.755,111.754,131.735,115.775,127.364,120.096z M66.36,23.303
		c-2.362,0-4.886,0.097-7.419,0.097c-3.546,0-7.673,0.032-11.202,0.194c-2.296,0.105-4.763,0.189-4.946,2.23
		c-0.136,1.514,1,2.31,1.746,3.152c0.587,0.663,1.276,1.328,1.891,1.891c1.286,1.177,2.92,2.447,3.394,4.122
		c0.536,1.893-1.08,3.535-1.94,4.51c-0.695,0.788-1.472,1.569-2.182,2.279c-4.516,4.516-9.016,9.064-13.433,13.481
		c-4.476,4.476-8.937,9.034-13.384,13.481c-1.503,1.504-3.09,2.925-4.461,4.51c-0.741,0.857-1.398,1.547-1.794,2.667
		c-0.407,1.153-0.311,2.566,0.146,3.734c0.845,2.161,2.395,3.51,3.928,5.043c1.474,1.474,3.105,2.863,4.607,4.364
		c4.52,4.52,8.914,9.06,13.384,13.53c5.956,5.955,11.901,12.143,17.797,18.039c3.015,3.015,5.978,5.978,8.971,8.971
		c1.643,1.643,2.93,3.108,4.995,3.977c2.772,1.167,4.861-0.005,6.546-1.358c3.351-2.688,6.057-5.801,9.068-8.874
		c2.951-3.011,5.889-6.034,8.874-9.02c3.762-3.762,7.606-7.411,11.299-11.105c0.741-0.74,1.409-1.57,2.182-2.328
		c1.412-1.381,2.819-3.501,4.752-4.219c1.377-0.511,2.518,0.114,3.346,0.728c1.81,1.34,3.03,2.84,4.461,4.51
		c0.581,0.678,1.464,1.677,2.521,1.988c3.088,0.908,3.085-3.382,2.958-6.062c-0.08-1.692,0.002-3.347,0.048-4.849
		c0.209-6.645-0.127-12.903,0.097-19.397c0.106-3.06,0.078-6.816-1.455-8.487c-1.552-1.69-4.691-1.854-8.147-1.697
		c-3.255,0.147-6.744,0.048-9.795,0.048c-5.012,0-9.954-0.099-14.936,0c-2.814,0.056-6.607,0.43-5.334,3.54
		c1.258,3.074,5.676,4.603,6.741,7.856c0.56,1.709-0.817,3.204-1.697,4.17c-2.363,2.595-4.714,5.005-7.08,7.371
		c-1.625,1.625-3.206,3.061-4.898,4.753c-1.359,1.359-3.241,3.821-5.431,4.219c-1.476,0.269-2.586-0.567-3.395-1.309
		c-0.947-0.87-1.61-1.706-2.376-2.473c-1.705-1.705-3.38-3.359-4.898-4.753c-2.646-2.429-4.662-4.856-7.128-7.322
		c-1.064-1.064-2.634-2.732-2.085-4.801c0.56-2.112,2.914-3.642,4.365-5.092c2.504-2.505,4.695-4.695,7.08-7.08
		c0.802-0.802,1.727-1.59,2.328-2.425c0.609-0.846,1.41-1.623,2.279-2.425c0.848-0.782,2.182-1.968,3.734-1.648
		c1.613,0.333,2.989,1.979,4.025,2.958c1.289,1.218,2.358,2.688,3.588,3.443c0.443,0.272,1.202,0.66,2.134,0.388
		c2.151-0.627,2.085-5.448,2.085-8.486c0-3.477,0.049-6.596,0.048-9.699c0-3.144,0.214-6.232,0.097-9.602
		c-0.108-3.095,0.328-6.777-0.485-9.165c-0.906-2.66-4.596-2.933-8.147-2.764C71.588,23.216,68.927,23.303,66.36,23.303z"/>
</g>
<g id="Layer_1">
</g>
</svg>
