<?xml version="1.0" encoding="iso-8859-1"?>
<!-- Generator: Adobe Illustrator 19.2.0, SVG Export Plug-In . SVG Version: 6.00 Build 0)  -->
<svg version="1.1" xmlns="http://www.w3.org/2000/svg" xmlns:xlink="http://www.w3.org/1999/xlink" x="0px" y="0px"
	 viewBox="0 0 103.979 104.22" style="enable-background:new 0 0 103.979 104.22;" xml:space="preserve">
<g id="Bennett_x5F_Schneider">
	<path style="fill-rule:evenodd;clip-rule:evenodd;" d="M51.93,0c0.58,1.585,1.043,3.131,2.278,4.558
		c0.78,0.901,2.601,2.801,3.478,2.878c1.408,0.124,5.429-2.735,6.236-3.718c0.498-0.606,0.599-1.864,1.319-1.919
		c0.672,0.256,0.21,0.991,0.24,1.56c0.154,2.959,2.115,5.344,3.598,7.195c2.593-0.595,5.226-0.885,6.956-2.278
		c0.607-0.489,0.782-1.624,1.799-1.319c-1.059,2.813-0.016,6.903,1.079,9.354c2.345,0.49,5.602,0.71,7.676-0.24
		c0.77-0.353,1.096-1.223,1.919-0.839c0.272,0.817-0.667,1.214-0.959,1.919c-0.655,1.577-1.067,5.652-0.36,7.075
		c0.543,1.093,5.803,2.415,7.795,2.039c0.705-0.133,1.32-0.855,1.919-0.359c-0.062,1.083-1.289,1.379-1.919,2.518
		c-0.828,1.498-1.867,4.935-1.559,6.236c0.318,1.344,4.871,3.725,6.716,3.838c0.766,0.047,1.635-0.601,1.918,0.239
		c-1.594,1.058-2.816,2.057-3.957,4.078c-0.566,1.002-1.626,2.613-1.559,3.478c0.099,1.275,3.729,4.515,5.277,5.157
		c0.68,0.282,1.873,0.128,2.159,0.84c-0.331,0.679-0.958,0.432-1.559,0.6c-2.628,0.733-4.254,3.373-5.876,5.276
		c0.984,2.103,2.248,5.07,3.838,6.236c0.358,0.264,1.833,0.53,1.799,1.199c-0.04,0.769-0.937,0.186-1.799,0.24
		c-2.527,0.156-5.109,2.263-6.836,3.598c0.187,2.755,0.674,4.957,1.799,6.716c0.529,0.827,1.502,1.229,1.679,2.279
		c-0.88,0.248-1.621-0.441-2.759-0.479c-2.362-0.079-4.949,1.045-6.596,1.799c-0.368,2.329-0.488,4.859,0.12,6.956
		c0.292,1.006,1.248,1.644,1.08,2.638c-0.794,0.191-1.016-0.606-1.799-0.959c-2.215-0.997-5.715-0.637-8.155-0.12
		c-0.753,1.876-1.925,4.721-1.439,7.196c0.129,0.654,0.728,1.11,0.36,1.799c-0.771,0.273-1.073-0.912-1.559-1.319
		c-0.88-0.737-5.547-2.782-7.196-2.159c-1.697,0.643-3.595,6.227-3.598,8.755c-1.031-0.343-1.026-1.605-1.799-2.398
		c-0.718-0.736-4.374-3.439-5.757-3.357c-0.883,0.052-2.35,1.698-3.118,2.519c-0.878,0.936-1.986,2.37-2.278,3.237
		c-0.194,0.577,0.138,1.627-0.6,1.68c-0.557-0.491-0.525-1.592-0.84-2.279c-0.383-0.838-1.338-2.039-2.159-2.878
		c-0.657-0.672-2.003-2.18-2.758-2.278c-1.688-0.223-5.888,3.137-6.596,4.317c-0.313,0.521-0.12,1.486-0.96,1.438
		c-0.629-0.5-0.188-1.33-0.24-2.038c-0.202-2.767-2.225-4.865-3.478-6.717c-2.494,0.235-4.8,0.751-6.476,1.8
		c-0.842,0.525-1.158,1.459-2.039,1.679c-0.394-0.654,0.261-1.274,0.36-2.039c0.347-2.674-0.971-5.541-1.679-7.436
		c-2.507-0.511-4.547-0.157-7.436-0.12c-0.093,0.48-1.264,1.677-2.039,1.079c-0.153-0.58,0.697-1.085,0.959-1.679
		c0.722-1.638,1.144-5.436,0.359-6.956c-0.616-1.195-5.942-2.387-8.035-2.039c-0.648,0.108-1.337,0.812-1.919,0.24
		c0.335-1.051,1.599-1.629,2.279-3.118c0.675-1.479,1.578-4.411,1.319-5.517c-0.29-1.238-4.945-3.667-6.477-3.838
		c-0.716-0.08-1.957,0.594-2.278-0.12c0.07-0.856,0.843-0.786,1.319-1.079c2.204-1.358,3.107-3.977,4.318-6.356
		c-1.453-1.92-3.073-4.377-5.517-5.277C1.3,52.781,0.254,53.098,0,52.17c0.249-0.656,1.283-0.392,1.919-0.6
		c0.918-0.302,2.254-1.414,3.118-2.279c0.654-0.653,2.346-2.232,2.399-2.998c0.074-1.067-2.163-4.579-2.878-5.396
		c-0.877-1.001-1.956-1.23-2.878-2.159c0.391-0.675,1.214-0.207,1.799-0.239c2.854-0.161,5.045-2.299,6.956-3.599
		c-0.314-2.786-0.774-5.292-2.039-7.075c-0.5-0.706-1.319-0.919-1.559-1.799c0.838-0.474,1.582,0.29,2.518,0.359
		c2.503,0.187,5.233-1.076,7.076-1.799c0.229-1.921,0.471-3.855,0.24-5.637c-0.207-1.599-1.046-2.649-1.439-3.838
		c1.331,0.126,2.242,1.264,4.317,1.439c1.52,0.128,4.248,0.199,5.157-0.24c1.144-0.553,2.204-5.618,1.799-7.436
		c-0.15-0.673-0.897-1.298-0.36-1.919c0.737-0.098,0.712,0.567,0.959,0.959c1.981,1.388,4.86,2.482,7.675,2.639
		c0.96-2.034,3.139-3.905,3.358-6.596c0.054-0.669-0.336-1.772,0.24-2.159c0.924,0.349,0.996,1.403,1.679,2.159
		c0.744,0.822,4.251,3.58,5.757,3.478c0.574-0.039,1.912-1.249,2.399-1.679c1.65-1.457,2.714-3.428,3.118-5.396
		c0.032-0.156,0.192-0.287,0.36-0.36C51.77,0,51.85,0,51.93,0z M51.69,2.759c-1.064,2.134-2.913,3.482-4.437,5.156
		c1.63,0.222,3.078,1.884,4.677,1.8c1.3-0.068,3.402-1.692,4.437-2.039C54.514,6.331,53.219,4.428,51.69,2.759z M58.886,8.275
		c1.375,0.426,2.388,2.583,3.958,2.878c1.362,0.256,3.172-0.538,4.797-0.6c-1.172-1.946-2.271-3.965-3.118-6.236
		C63.123,6.116,60.648,6.84,58.886,8.275z M35.979,10.674c1.813-0.096,3.356,0.771,4.797,0.479c1.594-0.322,2.618-2.452,3.958-2.998
		c-2.044-1.113-3.986-2.33-5.757-3.718C38.459,6.997,37.046,8.662,35.979,10.674z M45.934,8.635
		c-0.517,0.087-1.361,1.025-1.799,1.319c-0.678,0.456-1.563,0.775-1.679,1.56c1.628-0.018,2.725,1.417,4.078,1.319
		c1.439-0.104,2.56-2.009,3.838-2.639C48.852,9.996,47.393,8.39,45.934,8.635z M57.447,8.635c-1.417-0.102-2.712,1.272-4.198,1.56
		c1.308,0.646,2.364,2.546,3.838,2.639c1.408,0.088,2.593-1.474,4.317-1.439C60.171,10.721,58.963,8.743,57.447,8.635z
		 M70.04,11.394c-0.013,0.851,0.852,1.298,1.439,2.039c0.433,0.545,0.937,1.776,1.559,2.038c1.406,0.592,3.052,0.021,4.677,0.72
		c-0.343-1.88-1.396-4.512-1.319-6.836C74.417,10.175,72.498,11.054,70.04,11.394z M26.385,15.831
		c1.743-0.578,3.65,0.002,4.917-0.72c1.296-0.738,1.577-2.689,2.639-3.598c-2.293-0.546-4.561-1.116-6.476-2.039
		C27.227,11.646,26.654,14.087,26.385,15.831z M51.69,10.794c-1.478,0.092-2.725,1.909-3.957,2.639
		c1.445,0.873,2.814,1.822,4.078,2.878c1.145-1.214,2.825-1.892,3.958-3.118C54.422,12.586,53.255,10.696,51.69,10.794z
		 M68.36,11.514c-1.136-0.269-2.821,0.516-4.317,0.479c0.765,1.394,2.069,2.248,2.878,3.598c1.391-0.287,3.172-0.186,4.557-0.479
		C70.367,14.326,69.866,11.87,68.36,11.514z M32.621,14.991c1.152,0.367,2.883,0.155,4.078,0.479
		c0.97-1.108,2.072-2.086,2.878-3.357c-1.197-0.442-2.96-0.318-4.438-0.479C34.217,12.669,33.31,13.721,32.621,14.991z
		 M41.136,12.233c-1.354,0.319-2.224,2.462-2.998,3.478c1.615,0.424,2.975,1.103,4.437,1.679c0.985-1.293,2.102-2.455,2.999-3.838
		C44.168,13.202,42.607,11.885,41.136,12.233z M62.364,12.233c-1.502-0.288-2.922,0.878-4.317,1.318
		c0.883,1.476,2.102,2.615,3.118,3.958c1.536-0.583,2.934-1.304,4.557-1.799C64.789,14.694,63.935,12.533,62.364,12.233z
		 M46.653,14.032c-0.61,1.318-3.147,2.33-2.998,3.838c0.065,0.66,1.614,1.535,2.159,2.038c0.844,0.779,1.339,1.552,2.159,2.039
		c0.897-1.781,1.978-3.379,3.118-4.917C49.864,15.778,48.452,14.712,46.653,14.032z M56.607,14.151
		c-1.507,0.001-2.846,2.075-3.958,2.999c1.203,1.476,2.117,3.24,3.238,4.797c1.304-1.494,2.868-2.729,4.317-4.077
		C59.107,16.764,58.3,14.151,56.607,14.151z M31.662,16.19c-0.811,1.348-1.756,2.562-2.278,4.198
		c1.524,0.233,3.249,0.268,4.557,0.719c0.712-1.566,1.383-3.174,2.039-4.797C34.733,16.11,32.997,15.92,31.662,16.19z
		 M67.641,16.551c0.735,1.423,1.455,2.862,2.039,4.438c1.673-0.086,2.878-0.641,4.797-0.481c-0.299-1.436-1.248-3.217-2.279-4.317
		C70.561,16.191,68.864,16.135,67.641,16.551z M25.665,17.03c-0.649,1.39-1.327,2.75-1.918,4.197c1.264,0.115,2.696-0.56,4.197-0.6
		c0.739-1.46,1.747-2.649,2.279-4.317C28.392,16.238,27.249,16.855,25.665,17.03z M37.418,16.551
		c-1.289,0.323-1.93,3.417-2.398,4.797c1.939,0.739,3.508,1.849,5.396,2.639c0.353-2.087,1-3.878,1.679-5.637
		C40.744,17.865,38.911,16.176,37.418,16.551z M75.676,20.508c1.571,0.189,2.881,0.638,4.438,0.84
		c-0.064-1.264-1.218-2.453-1.559-3.838c-1.351-0.527-2.931-0.826-4.678-0.959C74.305,18.041,75.178,19.088,75.676,20.508z
		 M66.322,16.671c-1.433-0.343-3.172,1.26-4.558,1.679c0.412,1.986,1.372,3.425,1.559,5.637c1.879-0.8,3.573-1.784,5.277-2.759
		C67.879,19.816,67.826,17.03,66.322,16.671z M17.15,17.15c0.484,1.842,0.648,4.483,0.359,6.716
		c1.611-0.194,3.186-1.446,4.917-1.919c0.519-1.639,1.396-2.921,1.919-4.558C21.64,17.645,19.353,17.339,17.15,17.15z M79.634,17.63
		c0.432,1.526,1.452,2.466,1.679,4.197c1.765,0.555,3.222,1.416,4.917,2.039c-0.269-2.06,0.033-4.906,0.24-6.716
		C84.589,17.704,81.684,17.613,79.634,17.63z M53.369,26.265c0.447-0.953,1.651-2.358,1.679-3.238
		c0.044-1.393-2.332-4.4-3.358-5.156c-0.8,1.743-3.174,3.248-2.998,5.276c0.077,0.887,1.347,2.19,1.799,3.118
		c0.611,1.254,0.779,2.414,1.439,3.479C52.444,28.649,52.763,27.556,53.369,26.265z M46.653,25.905
		c0.202-0.895,0.949-1.896,0.84-2.639c-0.186-1.259-3.349-3.578-4.437-4.317c-1.009,1.55-1.557,3.56-1.799,5.876
		c1.833,1.725,3.276,3.841,4.917,5.757C46.447,28.98,46.325,27.363,46.653,25.905z M60.805,19.069
		c-1.454,1.168-4.25,2.26-4.437,4.317c-0.189,2.074,1.512,4.336,1.319,6.956c1.474-1.405,2.938-3.858,4.797-5.277
		C62.389,22.602,61.653,20.779,60.805,19.069z M70.04,22.067c0.156,1.83,0.316,4.204,0.24,5.877c1.61-0.195,3.643-0.991,5.637-1.2
		c0.301-1.907-0.386-3.847-0.96-5.276C73.368,21.34,71.363,21.56,70.04,22.067z M28.903,21.468
		c-0.797,1.321-1.063,3.174-1.079,5.276c2.069,0.213,4.241,0.951,5.756,1.319c-0.065-2.145,0.036-4.121,0.24-5.996
		C32.544,21.505,30.811,21.399,28.903,21.468z M23.027,22.787c-0.483,1.642-0.877,2.801-1.08,4.557
		c1.388,0.1,2.95-0.641,4.797-0.479c0.191-1.733,0.754-3.716,0.72-5.276C25.896,21.899,24.262,22.143,23.027,22.787z M76.995,26.744
		c1.698,0.181,3.329,0.43,4.917,0.72c0.158-1.605-0.628-3.283-0.959-4.797c-1.526-0.393-2.857-0.981-4.797-0.96
		C76.63,23.191,76.672,25.108,76.995,26.744z M40.177,25.306c-1.474-1.244-3.191-2.246-5.277-2.879
		c-0.768,1.596-0.579,4.103-0.36,6.117c2.224,1.254,4.217,2.739,6.236,4.197C40.477,30.36,40.035,27.761,40.177,25.306z
		 M63.563,25.545c0.103,2.661-0.092,5.025-0.479,7.196c2.071-1.327,3.826-2.971,6.116-4.078c0.36-1.918,0.356-4.589-0.24-6.236
		C66.767,23.072,64.958,24.103,63.563,25.545z M83.112,27.944c1.544,0.414,2.612,1.306,4.078,1.799
		c0.004-1.804-0.572-3.026-0.72-4.678c-1.558-0.48-2.59-1.487-4.317-1.799C82.399,24.899,82.869,26.308,83.112,27.944z
		 M17.27,25.425c-0.707,1.103-0.352,2.766-0.719,4.437c1.556-0.522,2.799-1.357,4.317-1.918c0.268-1.571,0.608-3.069,0.959-4.558
		C20.449,24.021,18.038,24.228,17.27,25.425z M47.253,32.381c-1.773,0.922-2.155-1.841-2.879-2.878
		c-0.99-1.417-2.272-2.344-3.238-2.998c-0.123,3.121,0.581,5.416,1.08,7.915c-1.192,0.899-2.594-1.326-3.718-2.158
		c-1.283-0.95-2.322-1.782-3.598-2.039c0.404,1.384,0.55,2.492,1.199,3.958c0.409,0.923,2,2.514,1.799,3.357
		c-0.286,1.197-1.772,0.075-2.398-0.239c-1.62-0.813-3.408-1.894-5.277-2.039c0.306,1.085,1.089,2.233,2.039,3.478
		c0.931,1.22,3.15,2.956,1.799,3.838c-2.01-0.689-4.967-1.505-7.436-0.959c0.489,1.199,1.57,1.819,2.999,2.758
		c0.988,0.65,3.474,1.805,2.998,2.998c-2.761,0.277-5.96,0.116-7.795,1.319c0.934,0.65,1.884,1.496,3.238,2.039
		c0.954,0.383,4.431,0.518,3.957,1.919c-0.141,0.416-1.54,0.611-1.919,0.72c-2.236,0.639-4.249,1.358-5.277,2.759
		c2.213,0.643,5.115,1.04,7.676,0.959c0.858,1.227-0.432,1.218-1.08,1.559c-1.543,0.813-4.118,2.659-4.677,4.198
		c2.598,0.293,5.546-0.667,7.675-0.84c0.514,1.251-1.355,2.526-2.159,3.598c-0.913,1.218-1.549,2.268-1.918,3.478
		c1.267-0.179,2.379-0.557,3.718-1.199c1.04-0.5,2.36-1.806,3.238-1.68c1.689,0.243-0.687,3.064-1.079,3.958
		c-0.629,1.434-0.886,2.535-1.199,3.958c1.129-0.304,2.307-0.851,3.598-1.919c0.991-0.82,2.531-3.262,3.598-2.398
		c-0.344,2.614-1.215,4.702-0.959,7.915c1.148-0.235,1.749-1.459,2.758-2.759c0.834-1.074,1.822-3.577,2.998-3.237
		c0.429,2.649,0.27,5.887,1.199,8.035c1.05-0.771,1.413-1.922,2.039-3.479c0.204-0.508,0.99-3.839,1.559-3.957
		c0.993-0.207,1.646,3.045,1.919,3.718c0.667,1.646,0.894,2.813,1.919,3.718c1.064-2.042,1.027-5.456,1.199-8.035
		c1.51-0.371,2.243,2.212,2.998,3.237c0.981,1.333,1.823,2.299,2.878,2.879c0.229-2.727-0.436-5.547-0.959-7.916
		c1.199-0.776,2.621,1.297,3.718,2.159c1.252,0.984,2.2,1.782,3.358,2.159c-0.132-2.869-1.819-5.216-2.878-7.556
		c0.315-0.165,0.454-0.505,0.839-0.6c2.001,1.357,4.269,2.446,7.076,2.998c-0.847-2.911-3.008-4.508-4.677-6.597
		c0.365-0.074,0.234-0.645,0.6-0.719c2.271,0.606,4.574,1.182,7.556,1.079c-0.611-1.576-3.2-3.597-4.677-4.317
		c-0.519-0.254-1.243-0.076-1.319-0.72c-0.143-1.204,1.9-0.796,2.759-0.84c1.759-0.09,4.149-0.429,5.037-1.199
		c-0.957-0.682-1.944-1.245-3.358-1.799c-0.716-0.28-3.619-0.707-3.718-1.56c-0.114-0.982,1.271-0.878,1.919-1.079
		c1.641-0.51,4.21-1.609,5.277-2.758c-2.197-0.752-5.329-1.192-7.675-1.08c-0.007-0.393-0.341-0.458-0.24-0.959
		c2.077-1.482,4.874-2.879,5.877-5.037c-2.671-0.311-5.481,0.695-7.556,0.959c-0.246-0.193-0.302-0.577-0.48-0.839
		c1.754-1.807,3.843-3.911,4.558-6.356c-2.938,0.46-4.911,1.885-7.196,2.998c-1.237-0.868,0.457-2.744,1.079-4.197
		c0.615-1.438,1.036-2.692,1.2-3.958c-1.351,0.499-2.261,1.162-3.478,2.159c-0.461,0.377-2.386,2.688-2.999,2.638
		c-1.324-0.107-0.309-1.849-0.12-2.758c0.398-1.918,0.419-3.941,0.479-5.637c-1.022,0.31-1.842,1.339-2.878,2.758
		c-0.919,1.259-1.835,4.227-3.238,3.118c0.001-3-0.039-5.958-1.2-7.795c-0.733,0.823-1.157,1.947-1.799,3.598
		c-0.397,1.021-0.647,3.552-1.559,3.838c-0.85,0.267-1.394-2.808-1.799-3.838c-0.596-1.518-1.391-3.312-2.159-3.598
		C47.439,26.765,47.057,29.741,47.253,32.381z M88.269,30.582c1.437,1.082,2.752,2.285,4.198,3.358
		c0.543-2.336,1.085-4.672,2.039-6.597c-2.676-0.162-4.712-0.964-6.956-1.559C87.682,27.491,88.142,28.87,88.269,30.582z
		 M9.355,27.344c0.816,2.022,1.531,4.146,2.039,6.476c0.966-1.03,3.439-1.681,4.078-3.118c0.626-1.41,0.195-3.247,0.6-4.797
		C13.879,26.432,11.992,27.263,9.355,27.344z M21.828,28.663c-0.295,1.717-0.091,3.913,0.36,5.277
		c1.853-0.226,3.978-0.18,5.876-0.359c-0.605-1.714-1.038-3.601-1.199-5.757C24.802,27.72,23.279,28.155,21.828,28.663z
		 M29.383,33.94c0.467,0.354,1.17,0.191,1.799,0.359c1.622,0.436,3.411,1.668,4.917,2.159c-0.874-2.244-1.879-4.358-2.279-7.076
		c-1.618-0.9-3.567-1.47-5.996-1.559C28.007,29.82,28.311,33.126,29.383,33.94z M70.159,29.263
		c-0.622,2.496-1.438,4.799-2.398,6.956c2.062-0.42,4.079-1.915,6.716-2.158c0.888-1.67,1.438-3.679,1.559-6.116
		C73.802,27.634,71.899,28.681,70.159,29.263z M76.995,27.824c-0.206,2.072-0.747,3.81-1.079,5.757
		c1.796,0.167,4.394,0.155,5.757,0.359c0.566-1.357,0.763-3.571,0.479-5.396C80.615,28.122,79.076,27.702,76.995,27.824z
		 M83.232,29.144c-0.146,1.465-0.059,3.528-0.48,5.037c1.644,0.514,2.965,1.353,4.558,1.918c0.303-1.379,0.319-3.4,0.12-4.917
		C86.233,30.374,84.675,29.306,83.232,29.144z M20.388,29.144c-1.146,0.932-3.241,0.98-3.958,2.398c-0.597,1.18-0.093,2.866,0,4.557
		c1.842-0.356,2.952-1.445,4.797-1.799C20.713,32.652,21.27,30.158,20.388,29.144z M88.269,36.818
		c1.26,0.979,2.318,2.16,3.598,3.118c0.214-1.54,0.863-3.148,0.479-4.557c-0.393-1.444-2.808-2.334-3.837-3.118
		C88.576,33.927,88.268,35.218,88.269,36.818z M11.514,35.38c-0.405,1.319,0.487,2.808,0.359,4.438
		c0.784-0.698,3.473-1.987,3.718-3.119c0.282-1.3-0.66-2.827-0.36-4.317C14.457,32.859,11.77,34.546,11.514,35.38z M28.543,34.899
		c-1.752-0.434-4.488-0.492-5.997,0.24c0.758,1.461,1.454,4.875,2.998,5.396c2.285,0.773,4.891-0.551,7.196,0.48
		C31.342,38.977,29.899,36.982,28.543,34.899z M75.316,34.78c-0.722,0.393-1.441,2.637-1.919,3.357
		c-0.816,1.232-1.829,1.977-1.919,2.879c2.249-0.336,4.468-0.69,6.956-0.48c1.233-1.605,2.508-3.168,2.878-5.637
		C79.543,34.945,76.778,33.985,75.316,34.78z M21.587,35.38c-1.726,0.157-3.685,1.107-4.917,2.158
		c0.784,1.425,0.58,4.49,2.039,4.797c0.605,0.128,1.774-0.726,2.519-0.959c1.013-0.317,1.923-0.431,2.878-0.72
		C23.531,39.108,22.127,37.362,21.587,35.38z M82.512,35.26c-0.716,1.962-1.805,3.552-2.639,5.396
		c2.103,0.336,3.796,1.081,5.637,1.679c0.698-1.5,1.379-3.018,1.679-4.917C86.041,36.288,84.411,35.64,82.512,35.26z M4.438,39.337
		c1.522,1.717,2.453,4.023,3.838,5.877c0.401-1.638,2.654-2.607,2.878-4.317c0.176-1.346-0.754-2.854-0.6-4.678
		C8.556,37.3,6.845,38.666,4.438,39.337z M92.826,41.136c0.373,1.64,2.361,2.72,2.998,4.078c1.002-2.236,2.287-4.19,3.718-5.996
		c-2.537-0.542-4.16-1.997-6.236-2.999C93.495,38.112,92.487,39.648,92.826,41.136z M86.47,42.936
		c1.457,0.901,2.632,2.085,3.958,3.118c0.311-1.552,1.678-3.101,1.319-4.678c-0.358-1.573-2.641-2.371-3.718-3.358
		C87.595,39.743,86.88,41.187,86.47,42.936z M12.233,41.376c-0.42,1.604,0.892,3.278,1.44,4.558
		c1.281-1.078,2.659-2.059,3.957-3.118c-0.795-1.404-1.189-3.209-2.039-4.558C14.776,39.21,12.59,40.013,12.233,41.376z
		 M25.186,41.616c-0.093-0.081-0.213-0.095-0.36-0.12c-1.85-0.319-3.889,1.315-5.637,1.799c0.908,1.317,2.621,4.424,4.438,4.558
		c1.652,0.121,4.639-1.856,7.076-1.319C28.748,45.498,26.912,43.105,25.186,41.616z M78.914,41.616
		c-1.498,1.939-3.629,3.246-5.396,4.917c2.15-0.454,5.365,1.572,7.076,1.319c1.903-0.281,3.288-3.498,4.317-4.558
		C83.361,42.286,81.32,41.769,78.914,41.616z M8.635,46.653c-0.087,1.491,1.155,2.934,1.679,4.317
		c0.227-1.58,2.398-2.455,2.519-3.958c0.073-0.911-1.564-3.975-1.679-4.317C10.621,44.05,8.731,45.026,8.635,46.653z M91.147,47.013
		c0.111,1.232,2.253,2.885,2.639,3.838c0.319-1.526,1.748-2.937,1.559-4.438c-0.113-0.903-2.411-3.4-2.879-3.718
		C92.589,44.442,91.024,45.649,91.147,47.013z M89.828,47.133c-0.209-1.603-2.883-2.355-4.078-3.358
		c-0.924,1.875-2.651,2.946-3.718,4.678c1.913,0.725,3.24,2.036,4.917,2.998C87.768,50.183,90.038,48.747,89.828,47.133z
		 M18.35,43.895c-1.258,0.623-4.086,2.241-4.198,3.358c-0.142,1.424,2.465,3.513,3.118,4.197c1.574-1.104,3.142-2.215,4.917-3.118
		C20.908,46.853,19.32,45.683,18.35,43.895z M9.714,52.409c-0.724-1.555-0.999-3.558-2.039-4.797
		C6.34,49.436,4.687,50.94,2.878,52.29c1.92,1.317,3.348,3.128,5.037,4.677C8.499,55.432,8.972,53.786,9.714,52.409z M94.385,52.17
		c-0.051,1.682,1.366,2.932,1.559,4.677c1.609-1.271,3.421-3.372,5.277-4.797c-2.277-0.961-3.352-3.125-5.277-4.438
		C95.84,49.339,94.434,50.562,94.385,52.17z M16.311,52.17c-0.02-0.443-0.993-1.149-1.559-1.919
		c-0.655-0.891-0.951-1.868-1.439-2.159c-0.636,1.358-2.532,2.59-2.519,4.198c0.012,1.524,1.755,2.852,2.639,3.957
		C13.599,54.984,16.364,53.34,16.311,52.17z M93.186,52.17c-0.021-1.532-1.771-2.758-2.519-3.958
		c-0.057,0.42-2.912,3.394-2.878,4.078c0.064,1.302,2.835,2.646,2.758,4.077C91.353,55.125,93.208,53.776,93.186,52.17z
		 M23.146,49.052c-1.705-0.028-3.813,2.345-5.037,3.238c1.424,0.999,3.252,3.441,5.157,3.237c0.818-0.087,2.249-1.363,3.118-1.799
		c1.252-0.627,2.356-0.858,3.358-1.559C27.412,52.191,24.942,49.081,23.146,49.052z M80.953,49.052c-0.044-0.015-0.321-0.022-0.36,0
		c-1.878,1.104-4.28,2.51-6.356,3.357c2.239,0.024,4.664,2.881,6.477,2.999c1.929,0.125,4.248-2.333,5.277-3.238
		C84.74,50.795,82.647,49.63,80.953,49.052z M17.03,53.009c-1.021,1.379-2.239,2.559-2.878,4.318
		c1.036,1.362,2.539,2.258,4.078,3.118c1.176-1.542,2.68-2.758,3.958-4.198C20.302,55.334,18.726,54.112,17.03,53.009z
		 M84.551,58.646c0.426,0.439,0.843,1.62,1.439,1.68c0.701,0.069,3.781-2.398,3.838-3.118c0.106-1.357-2.358-3.514-2.999-4.198
		c-1.452,1.227-3.072,2.285-4.917,3.119C82.412,57.141,83.693,57.761,84.551,58.646z M8.635,58.046
		c0.065,0.431,0.877,1.553,1.199,2.039c0.394,0.595,1.102,1.153,1.559,1.56c0.01-1.627,1.589-2.839,1.439-4.198
		c-0.089-0.813-2.49-3.353-2.758-3.718C9.936,55.304,8.42,56.635,8.635,58.046z M91.147,57.566c0.7,1.139,0.992,2.686,1.439,4.078
		c1.255-0.864,1.658-2.58,2.758-3.599c-0.514-1.524-0.759-3.318-1.799-4.317C92.907,55.169,91.903,56.244,91.147,57.566z
		 M23.747,56.728c-0.053-0.015-0.312-0.025-0.36,0c-1.646,0.835-3.222,2.629-4.078,4.437c1.79,0.362,3.733,2.155,5.756,1.56
		c0.855-0.252,1.781-2.028,2.639-2.759c1.114-0.948,2.136-1.047,2.878-1.919C28.024,57.982,25.632,57.247,23.747,56.728z
		 M83.232,58.646c-0.625-0.567-2.213-2.121-3.118-1.918c-1.913,0.428-4.437,1.121-6.716,1.438c1.508,0.619,2.289,1.343,3.478,2.519
		c0.674,0.668,1.712,1.921,2.279,2.039c1.914,0.398,4.125-1.201,5.756-1.799C84.524,60.084,83.985,59.33,83.232,58.646z
		 M13.672,58.406c-0.58,1.239-1.76,2.933-1.44,4.438c0.326,1.525,2.721,2.562,3.838,3.357c0.316-1.843,1.129-3.187,1.679-4.797
		C16.269,60.526,15.115,59.322,13.672,58.406z M86.59,61.404c-0.109,0.471,0.255,0.681,0.479,1.199
		c0.378,0.873,0.81,2.308,1.199,3.358c0.998-0.806,3.304-1.783,3.598-3.238c0.285-1.409-0.875-3.226-1.559-4.317
		C89.631,59.107,86.7,60.929,86.59,61.404z M4.438,65.002c2.365,0.713,4.132,2.024,6.117,3.118c-0.119-1.824,0.873-3.496,0.6-4.917
		c-0.205-1.066-2.684-3.428-3.118-4.077C7.085,61.334,5.873,63.279,4.438,65.002z M92.826,63.203
		c-0.247,1.369,0.643,3.039,0.6,4.798c1.754-0.809,3.663-2.491,6.116-2.999c-1.415-1.822-2.529-3.946-3.837-5.876
		C95.314,60.64,93.123,61.555,92.826,63.203z M87.31,66.682c0.45-1.585-1.314-3.301-1.679-4.798
		c-1.831,0.768-4.062,1.136-5.757,2.039c1.17,1.429,1.74,3.458,2.758,5.037C83.894,68.464,86.885,68.177,87.31,66.682z
		 M18.709,62.004c-0.898,1.341-1.406,3.071-1.799,4.917c1.188,1.091,2.816,1.741,4.677,2.159c0.652-1.987,1.809-3.469,2.519-5.397
		C22.075,63.356,20.512,62.561,18.709,62.004z M78.435,63.803c-1.794-0.62-6.273,0.108-7.076-0.479
		c1.396,1.962,2.874,3.842,3.958,6.116c1.834,0.345,4.426,0.361,6.116-0.12C80.76,67.696,79.861,64.297,78.435,63.803z
		 M25.665,63.803c-1.391,1.447-2.442,3.235-2.998,5.517c1.575,0.613,4.181,0.497,5.997,0.12c1.219-2.179,2.786-4.01,4.078-6.116
		C30.566,63.667,28.312,63.932,25.665,63.803z M88.509,67.521c-0.296,1.146,0.507,2.7,0.36,4.317
		c0.897-0.768,3.205-1.613,3.598-2.998c0.394-1.389-0.242-3.307-0.6-4.558C91.293,65.593,88.894,66.03,88.509,67.521z M11.514,68.84
		c0.42,1.556,3.043,2.51,4.197,3.358c-0.063-1.213-0.005-3.261,0.12-4.678c-1.353-0.965-2.379-2.258-3.838-3.118
		C12.033,66.009,11.157,67.521,11.514,68.84z M36.099,68.12c-0.026-0.093-0.101-0.139-0.24-0.119
		c-0.854,0.453-1.86,1.004-3.118,1.439c-1.067,0.369-2.629,0.532-3.238,0.96c-1.533,1.077-1.096,3.706-1.559,5.996
		c2.129,0.195,4.251-0.615,5.876-1.319C34.329,72.506,35.15,70.25,36.099,68.12z M70.04,74.837c1.492,0.956,3.927,1.576,5.997,1.559
		c0.04-2.479-0.655-4.222-1.319-5.996c-2.471-0.608-4.653-1.504-6.836-2.398C68.593,70.286,69.743,72.135,70.04,74.837z
		 M82.872,70.159c0.12,1.719,0.305,3.373,0.479,5.037c1.687-0.553,3.054-1.424,4.438-2.278c0.031-1.696,0.357-3.434-0.36-4.798
		C85.957,68.847,84.391,69.48,82.872,70.159z M16.67,73.157c1.377,0.742,2.387,1.851,4.317,2.039
		c-0.068-1.867,0.055-3.543,0.36-5.037c-1.637-0.521-3.057-1.26-4.557-1.919C16.428,69.509,16.545,71.454,16.67,73.157z
		 M9.355,76.995c2.813,0.105,4.893,0.943,7.196,1.56c-0.073-1.806-0.611-3.147-0.72-4.917c-1.693-0.865-2.689-2.428-4.437-3.238
		C10.862,72.745,10.34,75.103,9.355,76.995z M22.547,70.399c-0.811,1.083-0.839,3.537-0.6,5.276c1.348,0.611,3.062,0.856,5.037,0.84
		c0.071-2.288,0.756-3.962,1.08-5.997C26.356,70.76,24.129,70.665,22.547,70.399z M76.036,70.639
		c0.155,1.689,0.868,3.846,1.079,5.877c1.929-0.03,3.638-0.279,5.037-0.84c0.242-1.738,0.095-3.863-0.36-5.276
		C79.996,70.565,77.686,70.709,76.036,70.639z M92.346,70.399c-0.698,1.277-3.047,1.696-3.718,3.118
		c-0.657,1.393-0.112,3.318-0.6,4.797c2.063-0.578,4.317-1.322,6.596-1.319C93.62,75.042,93.274,72.43,92.346,70.399z M34.66,75.796
		c-0.204,2.056-0.364,4.38,0.24,6.116c1.667-0.984,4.534-1.155,5.277-2.998c0.267-0.661,0.043-2.005,0.12-3.358
		c0.099-1.733,0.764-3.388,0.36-3.957C38.958,73.298,36.73,74.468,34.66,75.796z M63.683,78.794
		c0.459,1.387,3.935,2.518,5.277,3.118c0.705-1.631,0.66-4.244,0.36-6.236c-2.333-1.105-4.097-2.778-6.236-4.077
		C64.284,73.784,62.912,76.468,63.683,78.794z M43.655,76.995c-0.765,0.899-2.122,1.929-2.279,2.759
		c-0.363,1.913,1.162,3.795,1.679,5.517c0.879-0.53,1.959-1.122,2.758-1.919c0.421-0.42,1.586-1.648,1.679-2.278
		c0.167-1.125-1.655-6.12-1.439-7.316C45.368,74.661,44.763,75.693,43.655,76.995z M56.367,81.192
		c1.337,1.502,2.542,3.135,4.437,4.078c0.517-1.699,2.34-3.856,1.799-5.877c-0.147-0.553-1.739-1.854-2.398-2.638
		c-1.111-1.323-1.812-2.538-2.519-2.999C57.63,76.619,57.014,78.921,56.367,81.192z M83.112,76.516
		c-0.85,1.158-0.152,3.073-1.08,4.438c1.71-0.095,3.276-1.357,4.797-2.039c0.264-1.495,0.716-2.802,0.72-4.558
		C86.359,75.4,84.015,75.284,83.112,76.516z M51.09,77.115c-0.663,1.648-2.235,3.191-2.279,4.317
		c-0.074,1.955,2.193,3.361,2.999,5.037c1.187-1.393,3.483-3.271,3.358-5.277c-0.044-0.71-1.107-2.126-1.559-3.118
		c-0.667-1.465-1.247-2.793-1.679-3.478C51.493,75.334,51.498,76.102,51.09,77.115z M17.75,79.034
		c0.759,1.363,2.937,1.344,4.317,2.158c-0.263-1.615-0.816-2.941-0.96-4.677c-1.401-0.559-2.606-1.312-4.078-1.799
		C17.395,76.378,17.121,77.904,17.75,79.034z M70.04,82.152c1.272,0.52,3.217,0.896,4.917,0.6c0.733-1.386,1.077-3.161,1.08-5.277
		c-1.981-0.258-3.795-0.683-5.517-1.199C70.294,78.169,70.443,80.437,70.04,82.152z M27.944,77.595
		c-0.095,1.674,0.396,3.747,0.959,5.157c1.635,0.231,3.833,0.107,5.037-0.479c-0.207-1.833-0.528-3.916-0.24-5.877
		C31.794,76.808,29.967,77.299,27.944,77.595z M22.187,76.995c-0.022,1.941,0.707,3.131,1.079,4.678
		c1.275,0.45,2.977,1.092,4.438,0.959c-0.145-1.382-0.562-3.51-0.839-5.157C25.047,77.647,23.47,76.962,22.187,76.995z
		 M76.995,77.595c-0.183,1.736-0.352,3.485-0.839,4.917c1.568-0.13,3.396,0.082,4.438-0.72c1.182-0.909,0.881-3.223,1.319-4.917
		C80.336,77.178,78.698,77.419,76.995,77.595z M35.14,83.111c0.737,1.425,0.846,4.094,2.399,4.438
		c1.562,0.347,3.172-1.272,4.677-1.679c-0.763-1.716-1.251-3.706-1.919-5.517C38.693,81.389,36.886,82.22,35.14,83.111z
		 M61.764,85.99c1.425,0.667,3.01,1.77,4.797,1.679c0.937-1.381,1.769-2.868,2.279-4.677c-1.924-0.715-3.479-1.798-5.277-2.639
		C63.135,82.403,62.47,84.217,61.764,85.99z M81.553,82.512c-1.106,1.053-1.175,2.931-1.919,4.438
		c2.472-0.337,5.385,0.088,7.316,0.24c-0.446-1.953-0.367-4.431-0.36-6.836c-0.08,0-0.16,0-0.24,0
		C84.969,81.438,82.743,81.38,81.553,82.512z M17.51,87.069c1.975-0.574,4.547-0.525,6.956-0.359
		c-0.621-1.156-0.887-3.186-1.679-4.078c-1.043-1.176-3.455-0.991-4.797-2.039C17.963,82.551,18.134,85.353,17.51,87.069z
		 M52.89,87.31c0.067,0.727,3.377,2.923,3.958,2.878c0.695-0.054,1.77-1.42,2.279-2.039c0.194-0.235,1.153-1.458,1.079-1.919
		c-0.065-0.407-1.451-1.249-2.039-1.799c-1.024-0.956-1.576-1.764-2.279-2.038C55.936,83.392,52.812,86.47,52.89,87.31z
		 M43.655,86.23c1.003,1.16,1.896,3.904,3.478,3.958c1.532,0.053,2.856-2.193,4.078-2.998c-1.226-1.413-2.124-3.153-3.238-4.678
		C46.524,83.742,45.233,85.13,43.655,86.23z M25.905,86.949c1.461,0.159,2.999,0.812,4.438,0.6c-0.74-1.259-1.468-2.529-2.159-3.838
		c-1.579-0.06-2.821-0.456-4.197-0.719C24.309,84.628,25.153,85.743,25.905,86.949z M75.556,83.831
		c-0.248,1.597-1.507,2.803-1.679,4.078c1.357,0.107,3.137-0.374,4.438-0.72c0.536-1.463,1.422-2.576,1.799-4.197
		C78.655,83.332,77.054,83.53,75.556,83.831z M69.799,83.232c-0.56,1.719-1.487,3.07-2.039,4.798
		c1.23,0.329,2.888,0.229,4.438,0.239c0.939-1.299,1.761-2.716,2.398-4.317C73.269,83.584,71.331,83.681,69.799,83.232z
		 M29.623,83.951c0.738,1.148,0.939,3.091,2.039,3.838c1.051,0.715,2.912,0.092,4.438-0.12c-0.717-1.362-1.316-2.841-1.919-4.317
		C32.569,83.619,31.385,83.73,29.623,83.951z M42.815,86.829c-1.508,0.571-2.965,1.193-4.558,1.68
		c0.783,1.102,1.691,3.229,3.238,3.478c1.414,0.229,3.043-0.907,4.317-1.438C44.715,89.406,43.668,88.216,42.815,86.829z
		 M61.285,86.949c-1.114,0.171-2.247,3.302-2.998,3.718c1.26,0.475,2.959,1.698,4.437,1.319c1.274-0.326,2.208-2.377,2.878-3.357
		C64.125,88.674,62.266,86.799,61.285,86.949z M27.584,94.745c1.628-0.774,4.474-1.36,6.477-2.159
		c-1.007-1.231-1.921-2.556-2.878-3.838c-1.802,0.004-3.05-0.547-4.797-0.6C26.9,90.237,27.552,92.538,27.584,94.745z M52.05,93.426
		c0.566-0.044,3.878-2.05,3.838-2.519c-0.037-0.424-1.72-1.092-2.039-1.319c-0.452-0.322-1.723-1.822-2.159-1.439
		c-1.244,1.097-2.606,2.133-3.718,2.879C49.093,91.419,50.233,93.566,52.05,93.426z M72.918,89.108
		c-1.346,0.561-1.979,2.802-2.878,3.718c2.361,0.438,4.519,1.078,6.356,2.039c0.14-2.38,0.616-4.422,1.319-6.236
		C76.085,88.894,74.327,88.522,72.918,89.108z M32.741,88.988c0.611,1.066,1.32,3.223,2.638,3.598
		c1.325,0.378,2.891-0.371,4.438-0.359c-0.721-1.397-2.085-2.152-2.878-3.479C35.424,88.713,34.27,89.038,32.741,88.988z
		 M67.161,88.988c-1.421,0.312-2.042,2.441-2.998,3.238c3.992,1.343,5.874-0.422,7.076-2.879
		C69.685,89.482,68.268,88.745,67.161,88.988z M46.653,91.387c-1.247-0.066-2.669,1.295-4.078,1.56
		c1.168,0.533,2.213,2.519,3.718,2.639c1.358,0.107,3.18-1.12,4.317-1.8C48.991,93.623,48.143,91.466,46.653,91.387z M57.087,91.387
		c-1.142,0.977-2.613,1.625-3.718,2.639c1.446,0.339,2.885,1.736,4.317,1.56c1.437-0.178,2.468-2.082,3.598-2.759
		C59.856,92.375,58.402,91.95,57.087,91.387z M40.776,93.065c-1.395-0.175-2.976,0.555-4.677,0.601
		c1.289,1.868,2.409,3.907,3.358,6.116c1.286-1.833,3.805-2.433,5.397-3.958C43.501,95.313,42.445,93.275,40.776,93.065z
		 M62.844,93.186c-1.238,0.258-2.93,2.262-3.718,2.879c1.919,1.158,3.966,2.19,5.517,3.718c0.866-2.213,1.964-4.192,3.118-6.116
		C65.945,93.754,64.373,92.868,62.844,93.186z M52.17,94.625c-1.675-0.119-3.337,1.243-4.677,1.919
		c1.791,1.367,3.196,3.12,4.557,4.917c1.136-2.103,3.057-3.419,4.438-5.276C54.957,96.074,53.687,94.733,52.17,94.625z"/>
</g>
<g id="Layer_1">
</g>
</svg>
