<?xml version="1.0" encoding="iso-8859-1"?>
<!-- Generator: Adobe Illustrator 19.2.0, SVG Export Plug-In . SVG Version: 6.00 Build 0)  -->
<svg version="1.1" xmlns="http://www.w3.org/2000/svg" xmlns:xlink="http://www.w3.org/1999/xlink" x="0px" y="0px"
	 viewBox="0 0 77.491 76.108" style="enable-background:new 0 0 77.491 76.108;" xml:space="preserve">
<g id="Bernhard_x5F_Gieseke">
	<path style="fill-rule:evenodd;clip-rule:evenodd;" d="M44.246,28.394c-0.41-0.445-0.258-1.114-0.293-1.658
		c-0.253-3.951-0.659-8.332-0.927-12.49c-0.271-4.208-0.451-8.505-0.781-12.636C42.203,1.079,42.046,0.444,42.44,0
		c2.954,0.06,6.203,0.878,8.586,1.658c7.547,2.472,13.496,6.868,17.759,12.295c0.423,0.376,0.794,0.992,1.269,1.609
		c0.239,0.311,1.157,1.247,1.073,1.757c-0.056,0.344-1.012,0.659-1.512,0.878c-1.676,0.731-3.361,1.426-5.025,2.098
		c-4.626,1.869-8.905,3.733-13.465,5.562c-1.142,0.458-2.311,0.908-3.464,1.317C46.497,27.587,45.397,28.15,44.246,28.394z"/>
	<path style="fill-rule:evenodd;clip-rule:evenodd;" d="M35.61,0.098c0.021,0.043,0.042,0.087,0.098,0.098
		c-0.282,6.293-0.733,12.617-1.074,18.978c-0.509,9.521-1.254,18.989-1.659,28.59c-0.133,3.156-0.506,6.328-0.585,9.464
		c-0.12,4.73-0.557,9.427-0.829,14.246c-0.088,1.55-0.045,3.153-0.44,4.586c-2.485-0.128-4.716-1.151-6.83-1.951
		c-6.297-2.382-11.405-6.361-15.416-11.124c-1.37-1.625-2.618-3.308-3.708-5.171c-1.064-1.82-1.901-3.884-2.732-6.099
		c-0.793-2.116-1.366-4.528-1.853-6.977c-1.625-8.155,0.4-16.647,3.073-22.393c0.489-1.05,0.94-2.032,1.464-2.976
		c2.62-4.72,6.136-8.473,10.343-11.758c3.336-2.604,6.982-4.621,11.66-6.001C29.789,0.822,32.496-0.21,35.61,0.098z"/>
	<path style="fill-rule:evenodd;clip-rule:evenodd;" d="M77.323,37.37c0.251,0.648,0.146,1.395,0.146,2.05
		c0,2.168-0.003,4.235-0.342,6.146c-0.432,2.441-1.124,4.695-1.951,6.733c-1.708,4.205-3.705,7.936-6.342,11.025
		c-4.565,5.348-10.54,9.85-18.295,12.1c-1.117,0.323-2.292,0.694-3.513,0.683c-0.341-0.705-0.284-1.52-0.341-2.293
		c-0.414-5.594-0.659-11.394-1.025-17.075c-0.209-3.253-0.413-6.517-0.585-9.758c-0.173-3.248-0.592-6.469-0.488-9.66
		c0.634-0.216,1.625-0.181,2.342-0.194c2.462-0.048,5.027,0.048,7.611,0.049c6.152,0,12.831-0.001,19.125,0
		C74.887,37.176,76.154,37.021,77.323,37.37z"/>
</g>
<g id="Layer_1">
</g>
</svg>
