<?xml version="1.0" encoding="iso-8859-1"?>
<!-- Generator: Adobe Illustrator 19.2.0, SVG Export Plug-In . SVG Version: 6.00 Build 0)  -->
<svg version="1.1" xmlns="http://www.w3.org/2000/svg" xmlns:xlink="http://www.w3.org/1999/xlink" x="0px" y="0px"
	 viewBox="0 0 47.04 78.329" style="enable-background:new 0 0 47.04 78.329;" xml:space="preserve">
<g id="Bertelsmann_x5F_Verlag">
	<path style="fill-rule:evenodd;clip-rule:evenodd;" d="M30.81,71.662c0.016,0.63-0.548,1.112-0.929,1.516
		c-0.411,0.435-0.885,0.863-1.369,1.174c-1.895,1.586-3.757,2.806-6.453,3.421c-2.683,0.612-5.844,0.822-8.75,0.099
		c-4.873-1.214-9.155-4.39-11.243-8.457c-1.198-2.335-1.938-4.769-2.053-7.821c-0.122-3.251,0.54-5.864,1.613-8.213
		c2.05-4.487,5.143-8.097,7.919-11.78c2.774-3.68,5.696-7.36,8.897-10.804c1.575-1.694,2.981-3.573,4.595-5.279
		c1.592-1.684,3.11-3.454,4.692-5.133c3.123-3.312,6.298-6.769,9.581-10.118C39.673,7.858,42.07,5.2,44.449,2.64
		c0.875-0.941,1.61-1.961,2.493-2.64c0.033,0,0.066,0,0.098,0c-0.579,1.735-1.437,3.391-2.347,4.986
		c-0.891,1.563-1.611,3.227-2.493,4.79c-1.772,3.143-3.278,6.439-4.986,9.63c-1.282,2.397-2.369,4.901-3.666,7.333
		c-0.427,0.8-0.734,1.662-1.173,2.443c-0.888,1.581-1.634,3.25-2.444,4.889c-2.429,4.913-4.943,9.456-7.43,14.47
		c-1.631,3.288-3.521,6.382-4.692,9.923c-0.663,2.004-1.058,4.109-0.636,6.306c0.682,3.553,3.441,6.781,7.186,7.431
		c1.11,0.192,2.345,0.139,3.47,0C28.853,72.074,29.761,71.708,30.81,71.662z"/>
	<path style="fill-rule:evenodd;clip-rule:evenodd;" d="M23.087,68.534c-1.51-1.574-2.841-2.974-2.933-5.72
		c-0.101-2.997,1.494-5.54,3.617-6.941c1.302-0.858,2.864-1.34,4.937-1.173c2.813,0.228,4.831,2.022,5.964,4.008
		c2.013,3.528,0.476,7.897-1.955,9.875c-1.164,0.946-2.818,1.69-4.839,1.662C25.872,70.217,24.459,69.49,23.087,68.534z"/>
</g>
<g id="Layer_1">
</g>
</svg>
