<?xml version="1.0" encoding="iso-8859-1"?>
<!-- Generator: Adobe Illustrator 19.2.0, SVG Export Plug-In . SVG Version: 6.00 Build 0)  -->
<svg version="1.1" xmlns="http://www.w3.org/2000/svg" xmlns:xlink="http://www.w3.org/1999/xlink" x="0px" y="0px"
	 viewBox="0 0 79.874 70.503" style="enable-background:new 0 0 79.874 70.503;" xml:space="preserve">
<g id="Besana_x5F_Mobili">
	<path style="fill-rule:evenodd;clip-rule:evenodd;" d="M10.942,0.163c0.14,6.152,0.154,12.422,0.154,18.641
		c0,0.828-0.121,1.721,0.154,2.51c0.684-0.084,1.231-0.52,1.792-0.871c1.59-0.992,3.389-1.826,5.275-2.561
		c4.938-1.924,10.393-3.654,16.849-4.148c3.211-0.244,6.525-0.182,9.935,0.103c3.087,0.256,5.992,1.02,8.758,1.74
		c2.696,0.703,5.3,1.772,7.63,2.816c4.841,2.17,9,5.215,12.599,8.348c2.09,1.887,4.18,3.775,5.787,6.146
		c-0.355,0.83-1.047,1.459-1.639,2.1c-1.742,1.883-3.516,3.854-5.633,5.428c-3.876,3.389-8.495,6.184-13.827,8.348
		c-5.244,2.131-11.259,3.738-18.437,3.74c-14.394,0-24.762-5.039-32.878-11.473c-2.006-1.678-3.885-3.459-5.685-5.377
		c-0.59-0.631-1.285-1.213-1.69-1.998C0.026,23.444,0.033,12.68,0.033,1.954c0-0.611-0.156-1.346,0.205-1.894
		c1.599-0.17,3.68,0.088,5.531,0C7.547-0.025,9.326,0.003,10.942,0.163z M38.699,22.952c-10.365,0.482-17.343,3.334-23.814,7.785
		c-0.439,0.301-2.407,1.553-2.407,2.15c0,0.293,0.707,0.885,1.075,1.229c0.471,0.44,0.94,0.733,1.332,1.025
		c1.902,1.414,3.747,2.471,5.838,3.533c3.133,1.59,6.574,2.869,10.447,3.635c2.609,0.518,5.451,0.969,8.45,0.922
		c5.781-0.088,11.598-1.113,15.722-3.02c3.722-1.723,7.317-3.642,10.396-6.045c0.395-0.307,1.136-0.916,1.126-1.229
		c-0.012-0.359-0.841-0.84-1.229-1.127c-4.206-3.119-8.747-5.656-14.186-7.221c-3.601-1.035-7.978-1.861-12.649-1.639
		C38.767,22.954,38.733,22.95,38.699,22.952z"/>
	<path style="fill-rule:evenodd;clip-rule:evenodd;" d="M79.106,40.415c0.041,0.01,0.051,0.053,0.102,0.053
		c0.25,9.559,0.171,20.084,0.103,29.754c-3.319,0.268-7.511,0.203-10.908,0.051c-0.287-3.469,0.02-7.246-0.256-10.754
		c-0.582-0.078-1.092,0.281-1.587,0.512c-3.408,1.584-7.193,2.842-11.216,3.943c-4.465,1.223-9.813,1.945-15.415,1.945
		c-9.81,0.002-18.338-2.156-25.35-5.07c-1.034-0.428-2.008-0.957-3.073-1.229c-0.411,0.686-0.256,1.67-0.256,2.561
		c0,2.682,0.169,5.67-0.051,8.195c-2.552,0.186-5.556,0.102-8.348,0.102c-0.91,0-1.831,0.119-2.612-0.154
		c-0.144-10.146-0.226-19.67-0.051-29.805c0.77,0.152,1.172,1.113,1.895,1.484c4.59,4.166,10.025,7.881,16.439,10.447
		c6.4,2.562,13.946,4.479,22.738,4.149c13.056-0.49,22.254-4.557,30.318-10.037c1.992-1.354,3.839-2.855,5.634-4.455
		C77.838,41.546,78.421,40.876,79.106,40.415z"/>
</g>
<g id="Layer_1">
</g>
</svg>
