<?xml version="1.0" encoding="iso-8859-1"?>
<!-- Generator: Adobe Illustrator 19.2.0, SVG Export Plug-In . SVG Version: 6.00 Build 0)  -->
<svg version="1.1" xmlns="http://www.w3.org/2000/svg" xmlns:xlink="http://www.w3.org/1999/xlink" x="0px" y="0px"
	 viewBox="0 0 90.076 89.678" style="enable-background:new 0 0 90.076 89.678;" xml:space="preserve">
<g id="Betlemska_x5F_Kaple">
	<path style="fill-rule:evenodd;clip-rule:evenodd;" d="M40.795,0c-1.077,3.036-1.99,6.236-2.516,9.823
		c1.161,4.332,6.234,4.953,5.271,11.022c-0.16,1.01-0.338,2.296-0.24,3.354c-1.507,0.741-3.976,0.991-5.989,1.558
		c0.233-1.729,0.082-3.786-0.359-5.75c-0.733-0.442-0.885-1.546-1.678-2.276c-0.907-0.838-2.047-1.318-2.875-2.156
		c-1.397-1.414-2.432-4.733-1.677-5.99c-0.227-2.819,0.458-4.088,0.719-7.428C34.171,1.06,37.695-0.018,40.795,0z"/>
	<path style="fill-rule:evenodd;clip-rule:evenodd;" d="M59.005,2.277c-1.389,1.695-4.097,3.779-5.87,5.87
		c-0.572,0.675-1.546,2.072-1.558,3.114c-0.016,1.279,0.831,3.806,1.438,5.151c0.265,0.587,0.832,1.006,0.958,1.678
		c0.533,2.829-2.119,5.039-2.875,7.547c-2.044-0.553-4.173-0.93-6.109-1.078c0.534-1.875,1.877-3.303,2.036-5.391
		c0.206-2.702-1.838-4.877-2.755-6.829c-0.866-1.684-0.402-2.835-0.12-4.432c0.238-0.002,0.152-0.327,0.479-0.24
		c0.401-2.679,2.824-4.278,3.953-5.99c0.42-0.636,0.304-1.439,1.317-1.557c1.15-0.133,2.917,0.447,4.313,0.719
		C55.961,1.178,57.642,1.811,59.005,2.277z"/>
	<path style="fill-rule:evenodd;clip-rule:evenodd;" d="M24.622,4.792c0.506,5.803-0.714,14.46,6.589,14.615
		c2.57,1.344,3.753,4.074,4.912,6.829c-2.164,1.07-3.823,2.646-5.631,4.073c-1.281-1.667-1.257-3.779-2.516-5.272
		c-0.347-0.411-0.954-0.441-1.318-0.719c-0.513-0.391-0.718-0.938-1.318-1.198c-1.522-0.66-3.534-0.983-5.031-1.917
		c-2.735-2.519-3.143-7.331-3.714-11.141c0.103-0.377,0.453-0.506,0.479-0.959C19.782,7.938,21.855,5.501,24.622,4.792z"/>
	<path style="fill-rule:evenodd;clip-rule:evenodd;" d="M73.979,10.542c-2.411,1.559-5.411,2.643-7.906,4.673
		c-0.748,0.607-1.605,1.539-1.917,2.636c-0.53,1.864,0.264,4.528-0.24,6.229c-0.444,1.502-3.174,3.908-4.073,4.552
		c-0.39,0.279-1.434,0.845-1.797,0.839c-0.722-0.013-1.025-0.821-1.557-1.198c-1.191-0.843-2.832-1.467-4.073-2.156
		c1.952-2.319,5.188-2.961,4.911-6.709c-0.256-3.465-0.069-7.205,2.516-9.464c1.466-0.634,2.221-1.92,3.595-2.875
		c2.158-1.501,2.896-1.74,5.031-0.359C70.321,7.907,72.317,9.222,73.979,10.542z"/>
	<path style="fill-rule:evenodd;clip-rule:evenodd;" d="M83.923,22.523c-3.566,1.178-7.388,1.129-10.303,2.995
		c-1.666,1.066-1.399,4.042-2.396,5.87c-1.441,2.644-5.223,3.755-8.746,4.433c-0.936-1.94-2.304-3.446-3.354-5.272
		c2.03-1.052,3.95-1.271,5.631-2.396c2.551-1.708,1.583-5.807,3.234-8.506c2.052-1.954,6.11-3.212,9.704-4.073
		c0.853-0.205,1.385-0.108,1.917,0.359C81.161,17.295,82.817,20.33,83.923,22.523z"/>
	<path style="fill-rule:evenodd;clip-rule:evenodd;" d="M29.534,31.507c-1.318,1.358-2.456,2.895-3.115,4.912
		c-0.369,0.084-0.23,0.084-0.599,0c-1.107-0.904-2.181-2.282-3.474-3.114c-0.758-0.488-2.199-1.405-3.115-1.558
		c-1.415-0.235-2.918,0.466-4.432,0.359c-1.355-0.096-2.191-0.755-3.594-1.078c-1.568-1.305-3.118-2.805-4.433-4.673
		c-0.636-0.903-2.126-1.703-1.917-3.114c0.082-0.555,0.793-0.977,1.198-1.558c0.452-0.646,0.574-1.406,0.958-1.917
		c0.833-1.107,2.288-1.6,2.755-2.875c0.366-0.087,0.437,0.123,0.719,0.12c1.435,2.478,3.019,4.808,5.151,6.589
		c1.379,3.803,5.28,1.212,8.506,2.636c1.503,0.663,3.22,3.146,4.552,4.192C29.089,30.739,29.51,30.736,29.534,31.507z"/>
	<path style="fill-rule:evenodd;clip-rule:evenodd;" d="M89.673,38.696c-3.593,0.068-9.2-2.957-12.339,0.12
		c-0.563,1.473-1.683,2.39-2.396,3.713c-3.018,2.018-6.647,1.18-10.304,1.558c0.379-2.04-0.807-4.916-1.078-6.948
		c3.012-0.084,5.174,0.415,7.188-0.599c2.999-1.511,3.264-5.968,6.109-7.667c3.298-0.766,7.115,0.259,10.184,0.359
		C88.865,31.674,88.697,35.319,89.673,38.696z"/>
	<path style="fill-rule:evenodd;clip-rule:evenodd;" d="M25.7,37.019c0.299,2.08-1.625,4.637-1.078,7.308
		c-0.139-0.02-0.213,0.026-0.239,0.119c-1.788-0.919-4.063-2.372-6.829-1.917c-2.405,0.396-4.417,3.535-7.308,3.714
		c-1.825,0.113-3.752-1.003-4.792-1.916c-0.717-0.631-1.887-0.946-2.755-1.558c-2.004-1.413-2.963-2.052-2.635-4.792
		c0.246-2.056,1.141-4.239,1.677-6.229c3.141,1,5.784,4.592,9.464,5.391c0.703,0.152,2.212,0.182,3.115-0.119
		c0.931-0.311,2.483-1.764,3.714-2.037C20.735,34.38,22.97,36.899,25.7,37.019z"/>
	<path style="fill-rule:evenodd;clip-rule:evenodd;" d="M90.032,47.081c0.274,3.319-0.779,6.104-1.438,8.865
		c-3.94-1.32-6.623-5.525-11.381-4.553c-2.093,2.189-5.259,3.712-8.745,2.157c-0.34-0.152-0.482-0.518-0.839-0.719
		c-1.447-0.819-2.82-0.829-3.714-1.917c0.628-2.022,0.767-3.767,0.959-6.11c1.162,0.351,2.437,1.29,3.833,1.558
		c0.338,0.064,0.754-0.129,1.078,0c0.504,0.2,1.167,1.023,2.276,0.839c0.977-0.163,2.434-1.236,3.235-1.917
		c0.98-0.832,1.998-1.724,2.755-2.636C82.747,41.482,86.657,44.856,90.032,47.081z"/>
	<path style="fill-rule:evenodd;clip-rule:evenodd;" d="M24.502,45.524c0.92,1.756,0.711,4.64,1.438,6.589
		c-0.986,0.453-1.689,0.04-2.875,0.12c-3.743,0.254-5.913,3.104-7.547,5.751C11.623,61.082,6.5,58.562,1.86,58.343
		c-0.999-3.17-1.56-5.743-1.797-9.345c3.728,1.106,8.759,4.029,12.339,1.438c2.051-1.146,3.099-4.494,5.75-5.031
		C20.18,44.993,22.197,45.531,24.502,45.524z"/>
	<path style="fill-rule:evenodd;clip-rule:evenodd;" d="M63.317,52.353c2.269,1.863,3.342,4.35,7.308,4.073
		c2.425-0.169,4.339-1.584,7.188-0.479c2.456,1.547,4.794,4.535,6.708,7.188c0.344,0.476,0.933,1.021,0.959,1.317
		c0.125,1.422-2.432,3.585-2.756,5.151c-1.131,0.474-1.273,2.55-2.396,2.636c-1.22-1.276-2.066-2.959-3.115-4.553
		c-1.261-1.917-2.55-4.341-5.63-4.312c-1.079,0.01-2.359-0.013-3.354,0.359c-3.957-0.795-5.983-3.521-8.267-5.99
		C61.172,56.037,62.391,54.342,63.317,52.353z"/>
	<path style="fill-rule:evenodd;clip-rule:evenodd;" d="M30.612,58.942c-2.418,0.757-4.335,0.727-6.11,2.156
		c-2.323,1.871-1.222,6.644-2.636,9.345c-1.539,2.94-7.55,3.385-11.501,3.114c-1.957-2.715-4.041-5.304-5.511-8.506
		c3.497-0.622,8.534,0.278,11.141-1.797c-0.076-0.855,0.711-0.967,1.078-1.558c1.217-1.954,1.59-4.674,3.354-5.87
		c1.802-1.222,3.865-1.47,6.229-2.396C27.746,55.498,29.153,57.246,30.612,58.942z"/>
	<path style="fill-rule:evenodd;clip-rule:evenodd;" d="M58.764,58.702c1.783,1.43,1.279,4.08,2.876,5.63
		c0.777,0.755,2.458,0.833,3.714,1.198c1.813,0.528,4.85,1.526,5.989,2.516c0.255,0.222,0.01,0.863,0.719,0.719
		c0.877,1.782,1.782,3.365,2.516,5.99c0.168,0.599,0.808,2.485,0.72,2.995c-0.124,0.718-1.963,1.792-2.636,2.276
		c-1.908,1.373-3.337,2.465-5.392,3.594c-0.927-2.594,0.075-6.807-1.317-9.584c-1.258-2.509-5.988-2.065-7.907-4.073
		c-1.996-2.089-2.274-4.533-4.192-7.428C55.094,60.861,57.537,60.39,58.764,58.702z"/>
	<path style="fill-rule:evenodd;clip-rule:evenodd;" d="M37.321,63.374c-0.926,2.046-3.62,2.824-4.433,5.031
		c-1.025,2.786,0.914,6.677,0.359,9.465c-0.517,2.595-2.693,4.44-4.792,5.87c-0.661,0.45-2.267,1.61-3.115,1.317
		c-2.881-0.996-5.995-3.639-8.266-5.151c0.822-0.934,1.916-1.132,2.875-1.677c0.856-0.488,1.569-1.275,2.396-1.797
		c1.196-0.756,3.227-1.314,3.713-3.115c0.451-1.669-0.25-2.438-0.239-4.073c0.003-0.481-0.009-1.364,0-2.036
		c0.057-4.134,3.512-5.113,5.75-7.428C33.801,60.665,35.094,62.486,37.321,63.374z"/>
	<path style="fill-rule:evenodd;clip-rule:evenodd;" d="M59.843,87.095c-3.144,0.636-6.537,2.211-9.823,1.916
		c1.131-2.814,1.868-5.68,2.516-8.745c-0.046-2.984-2.49-4.12-3.833-5.87c-1.96-2.555-2.042-6.177-2.156-9.823
		c0.426-0.396,0.968-0.162,1.557-0.24c1.691-0.223,3.539-1.36,4.912-1.437c0.226,2.204-0.119,4.342,0.479,6.11
		c1.049,3.102,5.295,3.842,6.708,6.589C61.359,78.991,60.845,83.523,59.843,87.095z"/>
	<path style="fill-rule:evenodd;clip-rule:evenodd;" d="M45.468,64.572c-0.234,1.91-1.858,3.384-2.157,5.391
		c-0.371,2.498,0.948,4.323,2.157,5.99c1.539,3.081,1.5,6.425,0,9.225c-0.408,0.76-2.556,4.324-3.235,4.433
		c-2.772,0.44-6.277-1.432-9.464-1.558c0.382-1.224,1.704-1.612,2.516-2.636c0.536-0.677,0.859-1.874,1.318-2.755
		c0.245-0.474,0.716-0.729,0.838-1.079c0.099-0.28,0.437-1.811,0.479-2.275c0.258-2.876-2.42-4.924-2.036-8.626
		c0.228-2.197,1.08-4.798,2.036-6.469C38.65,62.935,43.456,65.172,45.468,64.572z"/>
</g>
<g id="Layer_1">
</g>
</svg>
