<?xml version="1.0" encoding="iso-8859-1"?>
<!-- Generator: Adobe Illustrator 19.2.0, SVG Export Plug-In . SVG Version: 6.00 Build 0)  -->
<svg version="1.1" xmlns="http://www.w3.org/2000/svg" xmlns:xlink="http://www.w3.org/1999/xlink" x="0px" y="0px"
	 viewBox="0 0 70.021 49.556" style="enable-background:new 0 0 70.021 49.556;" xml:space="preserve">
<g id="Betonwerke_x5F_Berlin">
	<path style="fill-rule:evenodd;clip-rule:evenodd;" d="M33.701,0.21c0.138,6.871,0.146,13.568,0.146,20.617
		c0,0.949,0.107,1.926-0.146,2.826c-7.001,0.248-15.065-0.223-22.419,0.098c-0.25,0.268-0.151,1.1-0.098,1.512
		c0.864,0.293,1.803,0.123,2.729,0.098c6.594-0.186,13.548,0.156,19.788,0.145c0.259,7.635,0.19,16.168,0.049,23.932
		c-11.114,0.109-22.515,0.137-33.58,0c-0.236-3.979-0.06-8.055-0.098-12.137C-0.036,25.294-0.025,12.508,0.121,0.21
		c4.433-0.4,9.039,0.062,13.549-0.144c3.14-0.146,6.88,0,10.138,0C27.151,0.065,30.468,0.085,33.701,0.21z M20.396,6.303
		c-0.917,0-1.908,0-2.875,0c-2.206,0-4.697-0.109-6.287,0.145c-0.277,1.492-0.07,3.232-0.098,4.924
		c-0.034,2.076-0.141,4.182,0.098,6.043c3.843,0.129,8.014,0.111,11.843-0.049c0.258-0.789,0.146-1.717,0.146-2.631
		c0-0.928,0-1.885,0-2.828c0-1.887,0.115-3.828-0.146-5.459C22.273,6.192,21.346,6.303,20.396,6.303z M20.445,31.257
		c-0.944,0-1.93,0-2.924,0c-2.001,0-4.107-0.211-5.849,0c-0.072,0.008-0.172,0.031-0.244,0.049
		c-0.521,0.125-0.292,2.105-0.292,2.777c0,3.018-0.078,6.572,0.098,9.115c0.821,0.277,1.779,0.096,2.778,0.098
		c2.021,0,4.154-0.002,6.141,0c1.038,0,2.078,0.115,2.973-0.146c0.163-3.689,0.162-8.057,0-11.746
		C22.322,31.171,21.383,31.257,20.445,31.257z"/>
	<path style="fill-rule:evenodd;clip-rule:evenodd;" d="M69.864,0.21c0.179,3.775,0.098,7.768,0.098,11.746
		c0,3.973,0.095,7.945-0.098,11.648c-7.342,0.291-15.132-0.09-22.419,0.195c-0.246,0.268-0.178,1.168-0.049,1.512
		c7.675,0.34,15.054-0.1,22.468,0.242c0.211,7.834,0.188,15.926,0.049,23.883c-5.293,0.166-11.054,0.098-16.766,0.098
		c-5.712-0.002-11.445,0.094-16.814-0.098c-0.332-3.955,0.006-7.984-0.146-12.039c-0.077-2.045,0-4.111,0-6.19
		c0-9.367,0-18.521,0-28.023c0-0.998-0.116-2.006,0.146-2.975C47.496,0.042,58.677,0.046,69.864,0.21z M47.494,6.401
		c-0.343,0.744-0.195,1.725-0.195,2.631c0,2.793-0.079,5.826,0.098,8.383c2.811,0.145,5.976,0.146,8.919,0.146
		c1.013,0,2.025,0.104,2.924-0.146c0.258-1.637,0.146-3.566,0.146-5.459c0-1.887,0.116-3.828-0.146-5.459
		C55.622,6.2,51.272,6.376,47.494,6.401z M47.64,31.305c-0.058,0.023-0.11,0.051-0.146,0.098c-0.244,0.434-0.195,1.922-0.195,2.777
		c0,2.178,0,4.129,0,6.141c0,1.037-0.108,2.055,0.147,2.926c3.706,0.16,8.089,0.162,11.794,0c0.262-0.873,0.146-1.877,0.146-2.877
		c0-2.016,0-4.076,0-6.043c0-1.018,0.112-2.037-0.146-2.924C55.567,31.176,51.475,31.37,47.64,31.305z"/>
</g>
<g id="Layer_1">
</g>
</svg>
