<?xml version="1.0" encoding="iso-8859-1"?>
<!-- Generator: Adobe Illustrator 19.2.0, SVG Export Plug-In . SVG Version: 6.00 Build 0)  -->
<svg version="1.1" xmlns="http://www.w3.org/2000/svg" xmlns:xlink="http://www.w3.org/1999/xlink" x="0px" y="0px"
	 viewBox="0 0 71.998 72.273" style="enable-background:new 0 0 71.998 72.273;" xml:space="preserve">
<g id="Bill_x5F_Bantey_x5F_and_x5F_Associates">
	<path style="fill-rule:evenodd;clip-rule:evenodd;" d="M61.684,36.44c0.176,0.474,0.728,0.595,1.083,0.788
		c1.194,0.648,2.295,1.325,3.346,2.214c1.274,1.079,2.307,2.652,3.199,4.232c1.759,3.114,3.12,7.22,2.559,12.006
		c-0.496,4.23-1.88,7.903-4.33,10.53c-2.31,2.476-5.274,4.893-9.153,5.708c-2.1,0.441-4.518,0.344-6.987,0.344
		c-16.857-0.001-34.424-0.078-51.226-0.295c-0.32-2.894-0.098-5.904-0.098-8.956c0-5.807-0.172-11.843,0-18.01
		c0.124-4.468,0-8.882,0-13.385c0-9.752-0.054-19.512,0-29.524C0.08,1.418,0.04,0.68,0.273,0.027
		c9.658-0.097,19.95,0.099,29.673,0.099c4.777,0,9.884-0.101,14.663,0.049c4.894,0.153,10.235-0.387,14.222,0.59
		c3.573,0.876,6.789,3.473,8.857,5.954c2.362,2.834,3.889,6.169,4.231,10.58c0.376,4.827-0.812,8.903-2.51,12.105
		c-0.804,1.516-2.104,2.898-3.346,4.035c-0.643,0.588-1.307,1.206-2.066,1.624C63.232,35.483,62.303,35.71,61.684,36.44z
		 M18.972,30.732c2.766,0,5.548,0.23,7.479-0.688c1.156-0.55,2.219-1.6,3.149-2.608c0.96-1.041,1.697-2.397,2.116-3.69
		c1.109-3.429,0.177-7.11-1.329-9.3c-1.531-2.227-3.782-3.957-7.479-4.084c-3.737-0.129-8.061-0.021-11.761,0
		C10.885,11.119,11,11.951,11,12.772c0,0.833,0,1.705,0,2.559c0,5.058-0.214,10.41,0.099,15.254
		C13.673,30.727,16.335,30.732,18.972,30.732z M47.463,30.831c3.008,0,5.849-0.005,7.972-1.033c1.456-0.705,2.849-1.975,3.838-3.199
		c0.999-1.234,1.986-3.069,2.165-4.921c0.408-4.218-0.723-6.432-2.706-8.415c-1.278-1.278-3.022-2.201-5.02-2.559
		c-2.181-0.391-4.68-0.246-7.331-0.246c-2.428,0-4.968-0.179-7.332-0.049c-0.854,0.047,0.059,0.765,0.245,0.984
		c1.997,2.345,3.544,4.968,3.544,9.103c0,3.656-1.062,6.271-2.56,8.218c-0.503,0.656-1.166,1.188-1.574,1.969
		C41.555,30.833,44.504,30.831,47.463,30.831z M14.839,61.684c1.309,0,2.615-0.054,3.887,0c2.556,0.108,5.126,0.153,7.136-0.492
		c3.823-1.228,6.026-4.618,6.348-9.251c0.327-4.733-2.642-8.249-6.004-9.497c-1.859-0.69-4.675-0.521-7.184-0.59
		c-2.44-0.068-5.489-0.13-7.874,0.049C10.878,42.64,11,43.468,11,44.265c0,4.204-0.049,8.24-0.049,12.449
		c0,1.654-0.073,3.288,0.147,4.823C12.293,61.803,13.585,61.684,14.839,61.684z M46.43,61.782c2.694,0,5.332,0.188,7.577-0.295
		c2.11-0.453,3.718-1.549,4.971-2.953c2.115-2.37,2.813-6.533,1.378-9.94c-1.584-3.758-5.134-6.292-10.039-6.643
		c-3.779-0.271-7.697,0.135-11.268,0.049c-0.041,0.43,0.4,0.65,0.64,0.886c1.857,1.831,3.14,4.816,3.346,8.218
		c0.266,4.381-1.621,7.46-3.592,9.596c-0.274,0.295-0.643,0.54-0.787,0.935C41.225,61.902,43.869,61.783,46.43,61.782z"/>
</g>
<g id="Layer_1">
</g>
</svg>
