<?xml version="1.0" encoding="iso-8859-1"?>
<!-- Generator: Adobe Illustrator 19.2.0, SVG Export Plug-In . SVG Version: 6.00 Build 0)  -->
<svg version="1.1" xmlns="http://www.w3.org/2000/svg" xmlns:xlink="http://www.w3.org/1999/xlink" x="0px" y="0px"
	 viewBox="0 0 80.776 80.838" style="enable-background:new 0 0 80.776 80.838;" xml:space="preserve">
<g id="Bilumen_x5F_IT">
	<path style="fill-rule:evenodd;clip-rule:evenodd;" d="M24.39,0.191c0.168,26.564,0.168,53.848,0,80.465
		c-0.608,0.169-1.864,0.161-2.474,0c-0.196-27.147-0.107-54.216,0-80.465C22.677,0.062,23.755-0.052,24.39,0.191z"/>
	<path style="fill-rule:evenodd;clip-rule:evenodd;" d="M32.467,0.141c0.184,3.366,0.101,6.755,0.101,10.146
		c0,6.845,0,13.612,0,20.393c0,8.173-0.05,16.714-0.05,25.139c0,6.604,0.05,13.065,0.05,19.889c0,1.642,0.124,3.312-0.151,4.947
		c-0.645,0.165-1.93,0.165-2.574,0c-0.234-16.893-0.051-34.07-0.05-50.833c0.001-9.239-0.051-17.813-0.051-27.41
		c0-0.771-0.13-1.596,0.202-2.322C30.667,0.038,31.825-0.053,32.467,0.141z"/>
	<path style="fill-rule:evenodd;clip-rule:evenodd;" d="M40.291,0.141c0.184,25.859,0.102,52.315,0.101,78.192
		c0,0.793,0.119,1.608-0.151,2.373c-0.906,0.059-2.254,0.138-3.08-0.051c-0.043-5.873-0.29-11.806-0.101-17.819
		c0.222-7.084,0-15.251,0-22.767c0-12.94-0.001-24.898,0-37.708c0-0.784-0.179-1.735,0.252-2.272
		C38.187,0.036,39.499-0.051,40.291,0.141z"/>
	<path style="fill-rule:evenodd;clip-rule:evenodd;" d="M48.519,0.191c0.252,26.373,0.081,53.528,0.051,80.414
		c-0.045,0.022-0.09,0.045-0.101,0.101c-0.649,0.072-1.428,0.125-2.17,0.101c-0.744-0.023-1.563,0.029-2.171-0.202
		c-0.156-22.7-0.051-46.556-0.05-70.62c0-2.768,0-5.857,0-8.885c0-0.847-0.053-0.962,0.454-1.061
		c0.622-0.121,1.385,0.077,2.07,0.051C47.286,0.064,47.931,0.01,48.519,0.191z"/>
	<path style="fill-rule:evenodd;clip-rule:evenodd;" d="M0.513,80.707c-0.754-0.13-0.455-1.39-0.455-2.12
		c0-25.305,0-49.686,0-75.922c0-0.859-0.072-2.016,0.101-2.474C1.085-0.538,0.866,1.507,0.866,2.16c0,26.199,0,50.659,0,76.376
		c0,0.386,0.006,0.868,0,1.262C0.862,80.1,0.993,80.667,0.513,80.707z"/>
	<path style="fill-rule:evenodd;clip-rule:evenodd;" d="M7.934,80.756c-0.747-0.127-0.454-1.353-0.454-2.12
		c-0.002-26.364-0.106-51.78,0.1-78.445c0.893-0.725,0.656,1.538,0.656,2.12c0,23.428,0.15,45.378,0.151,68.603
		c0.001,2.823,0.105,6.044,0,9.035C8.376,80.281,8.464,80.796,7.934,80.756z"/>
	<path style="fill-rule:evenodd;clip-rule:evenodd;" d="M15.051,0.09c0.278,0.025,0.661-0.056,0.858,0.051
		c0.273,0.762,0.151,1.601,0.152,2.423c0.001,22.781-0.001,45.795,0,68.45c0,2.313,0,4.917,0,7.622c0,1.234,0.291,2.409-0.858,2.171
		c-0.638-0.133-0.454-1.306-0.454-2.12c-0.001-16.335,0.05-32.599,0.05-48.713c0-5.199-0.096-10.001,0-14.942
		c0.075-3.869-0.05-8.098-0.05-12.417c0-0.901-0.084-2.155,0.151-2.424C14.937,0.144,14.992,0.115,15.051,0.09z"/>
	<path style="fill-rule:evenodd;clip-rule:evenodd;" d="M56.545,0.191c0.175,27.181,0.151,53.89,0,80.516
		c-1.419,0.166-3.528,0.169-4.947,0c-0.059,0.008-0.09-0.012-0.101-0.051c-0.234-20.212-0.053-41.135-0.051-60.979
		c0-3.258-0.001-6.544-0.05-9.793c-0.038-2.515,0.079-4.984,0.05-7.521c-0.008-0.73-0.195-1.555,0.202-2.221
		C53.154,0.087,55.124-0.005,56.545,0.191z"/>
	<path style="fill-rule:evenodd;clip-rule:evenodd;" d="M64.37,0.544c0.185,6.029,0.101,12.347,0.101,18.627
		c0,7.058,0.029,14.266-0.05,20.697c-0.218,0.337-0.886,0.225-1.212,0.454c0.177,0.429,1.042,0.169,1.212,0.605
		c0.164,4.909-0.137,9.69,0,14.79c0.21,7.852,0.009,16.259-0.051,24.584c-1.443,0.529-3.838,0.632-5.704,0.404
		c-0.272-1.065-0.151-2.203-0.151-3.281c-0.001-16.879-0.064-34.167,0-50.984c0.03-7.822,0.042-15.687,0.05-23.171
		c0.001-1.046-0.226-2.129,0.151-3.129C60.601,0.077,62.91,0.017,64.37,0.544z"/>
	<path style="fill-rule:evenodd;clip-rule:evenodd;" d="M66.137,0.949c1.103,0.164,2.686,0.835,3.584,1.312
		c1.101,0.585,2.139,1.147,2.877,1.918c0.109,11.128,0.141,21.29,0,32.105c-0.763,0.88-1.861,1.429-2.928,1.969
		c-1.067,0.541-2.244,1.104-3.584,1.312c-0.213-0.718-0.214-1.516-0.202-2.271c0.164-10.304,0.05-20.716,0.05-31.348
		c0-1.631-0.041-3.463,0.051-4.846C66.014,1.027,66.064,0.977,66.137,0.949z"/>
	<path style="fill-rule:evenodd;clip-rule:evenodd;" d="M73.709,5.038c0.043-0.01,0.048,0.019,0.051,0.051
		c3.833,3.314,7.017,8.171,7.017,15.244c-0.001,6.119-2.643,10.707-5.705,13.933c-0.432,0.455-0.85,1.099-1.514,1.161
		c-0.084-9.962-0.084-20.275,0-30.237C73.585,5.116,73.636,5.066,73.709,5.038z"/>
	<path style="fill-rule:evenodd;clip-rule:evenodd;" d="M66.137,41.231c1.149,0.222,2.536,0.785,3.584,1.312
		c1.087,0.547,2.159,1.14,2.877,1.918c0.118,10.618,0.017,21.454,0.05,32.156c-0.781,0.843-1.872,1.491-2.978,2.018
		c-1.114,0.532-2.308,1.144-3.635,1.263c-0.103-10.857-0.219-22.454-0.101-33.67c0.018-1.648-0.055-3.361,0.051-4.847
		C66.014,41.31,66.064,41.259,66.137,41.231z"/>
	<path style="fill-rule:evenodd;clip-rule:evenodd;" d="M73.658,45.32c2.02,1.333,3.829,3.974,4.997,6.26
		c1.299,2.539,2.07,5.693,2.07,9.086c-0.001,6.128-2.557,10.669-5.654,13.933c-0.426,0.449-0.85,1.119-1.514,1.161
		c-0.143-10.165-0.04-19.967-0.05-30.288C73.535,45.399,73.585,45.348,73.658,45.32z"/>
</g>
<g id="Layer_1">
</g>
</svg>
