<?xml version="1.0" encoding="iso-8859-1"?>
<!-- Generator: Adobe Illustrator 19.2.0, SVG Export Plug-In . SVG Version: 6.00 Build 0)  -->
<svg version="1.1" xmlns="http://www.w3.org/2000/svg" xmlns:xlink="http://www.w3.org/1999/xlink" x="0px" y="0px"
	 viewBox="0 0 71.974 71.34" style="enable-background:new 0 0 71.974 71.34;" xml:space="preserve">
<g id="Biocom_x5F_96">
	<path style="fill-rule:evenodd;clip-rule:evenodd;" d="M65.789,35.529c0.199,0.653,0.785,0.92,1.152,1.405
		c3.13,3.824,5.25,8.232,5.016,14.543c-0.225,6.054-2.777,10.399-5.968,13.642c-1.534,1.56-3.573,3.041-5.768,4.062
		c-2.122,0.988-4.749,1.938-7.724,2.056c-5.548,0.223-9.966-1.4-13.29-3.811c-0.339-0.247-1.271-0.704-1.304-1.104
		c-0.037-0.455,1.141-1.411,1.504-1.806c3.62-3.922,6.662-8.592,7.373-15.447c0.451-4.356-0.716-7.923-1.956-10.982
		c-1.267-3.125-2.952-5.668-4.564-8.477c-1.555-2.708-3.189-5.452-4.464-8.575c-1.208-2.962-2.484-7.019-1.254-10.783
		c1.058-3.236,3.216-5.428,5.868-7.172c2.719-1.787,6.191-2.871,10.181-3.059c5.108-0.24,9.071,1.483,12.237,3.561
		c3.185,2.09,5.682,5.085,7.221,8.526c1.59,3.55,2.514,8.415,1.356,13.29C70.394,29.649,68.38,32.824,65.789,35.529z"/>
	<path style="fill-rule:evenodd;clip-rule:evenodd;" d="M34.292,5.138c-0.243,0.633-0.799,1.014-1.203,1.454
		c-2.875,3.134-5.545,6.705-6.871,11.485c-0.762,2.742-1.03,6.355-0.552,9.378c0.493,3.115,1.421,5.414,2.658,7.824
		c2.376,4.627,5.25,8.771,7.473,13.54c0.554,1.188,1.036,2.454,1.454,3.812c0.393,1.272,0.836,2.705,0.902,4.312
		c0.146,3.47-0.848,5.979-2.507,7.975c-3.146,3.78-8.19,6.335-14.494,6.419c-6.515,0.087-11.546-2.843-14.895-6.118
		c-3.382-3.308-6.219-8.132-6.22-14.795c0-5.382,1.682-8.723,3.861-11.886c0.299-0.433,0.661-1.017,1.105-1.505
		c0.312-0.345,1.194-1.008,1.204-1.404c0.006-0.289-0.569-0.796-0.853-1.104c-3.266-3.537-5.877-8.825-5.266-15.798
		c0.199-2.271,0.766-4.41,1.555-6.169C4.341,6.552,9.477,1.967,16.639,0.474C23.804-1.02,30.638,1.69,34.292,5.138z"/>
</g>
<g id="Layer_1">
</g>
</svg>
