<?xml version="1.0" encoding="iso-8859-1"?>
<!-- Generator: Adobe Illustrator 19.2.0, SVG Export Plug-In . SVG Version: 6.00 Build 0)  -->
<svg version="1.1" xmlns="http://www.w3.org/2000/svg" xmlns:xlink="http://www.w3.org/1999/xlink" x="0px" y="0px"
	 viewBox="0 0 80.954 68.683" style="enable-background:new 0 0 80.954 68.683;" xml:space="preserve">
<g id="Bit_x5F_67">
	<path style="fill-rule:evenodd;clip-rule:evenodd;" d="M19.845,0.102c0.272,1.179,0.151,2.569,0.151,3.975
		c-0.001,8.993,0.05,17.484,0.05,26.264c0,0.601-0.116,1.289,0.151,1.862c0.762-0.59,0.913-1.719,1.358-2.566
		c1.33-2.531,3.089-4.673,5.786-5.937c4.139-1.941,9.118-0.547,12.125,1.509c3.088,2.111,5.396,4.854,7.245,8.402
		c1.796,3.447,2.878,7.875,2.516,12.931c-0.169,2.36-0.683,4.533-1.308,6.541c-0.617,1.981-1.453,3.772-2.516,5.283
		c-2.193,3.116-4.798,5.697-8.201,7.446c-1.738,0.894-3.82,1.575-6.088,1.761c-2.476,0.203-4.717-0.333-6.591-1.107
		c-1.804-0.745-3.45-1.712-4.78-3.069c-0.588-0.601-1.076-1.336-1.711-2.214c-0.419-0.579-1.197-2.008-1.912-1.962
		c-0.442,0.028-0.568,0.542-0.805,1.006c-1.232,2.414-2.639,4.598-3.522,7.295c-0.131,0.401-0.173,0.937-0.603,1.157
		c-0.289-0.013-0.642,0.038-0.856-0.05c-0.264-0.56-0.201-1.199-0.201-1.812c0.002-19.551-0.051-37.736-0.05-57.509
		c0-1.954,0.374-4.164-0.956-4.78C8.067,4.038,6.239,4.278,4.701,4.278c-1.695,0-3.345,0.079-4.528-0.101
		c-0.242-0.416-0.201-1.525-0.05-2.013c3.023-0.513,6.226-0.729,9.409-1.107c3.21-0.381,6.445-0.576,9.509-1.006
		C19.222,0.026,19.589-0.074,19.845,0.102z M27.09,25.309c-0.638,0.417-1.338,1.059-1.912,1.61c-4.358,4.187-4.83,11.12-4.83,19.824
		c0,4.044,0.327,9.127,1.409,12.729c0.537,1.787,1.375,3.267,2.616,4.428c1.217,1.138,2.813,2.078,4.88,2.214
		c2.187,0.144,3.762-0.697,5.082-1.861c2.577-2.273,3.635-5.828,4.125-10.013c0.252-2.151,0.206-4.394,0.403-6.692
		c0.183-2.139-0.018-4.452-0.151-6.692c-0.276-4.667-0.605-8.591-2.214-11.924c-0.645-1.334-2.034-3.172-3.22-3.874
		c-0.931-0.551-2.49-0.725-3.622-0.604C28.587,24.568,27.679,24.925,27.09,25.309z"/>
	<path style="fill-rule:evenodd;clip-rule:evenodd;" d="M49.581,0.454c3.191-0.294,5.475,2.342,5.686,5.182
		c0.238,3.211-2.125,6.01-5.535,5.887c-2.351-0.084-3.896-1.701-4.579-3.321c-1.181-2.797,0.217-5.973,2.415-7.195
		C48.108,0.708,48.792,0.527,49.581,0.454z"/>
	<path style="fill-rule:evenodd;clip-rule:evenodd;" d="M68.399,4.077c0.294,6.258-0.095,13.424,0.201,19.824
		c0.899,0.267,1.935,0.151,2.918,0.151c3.02,0,6.061-0.141,8.905,0.05c0.16,0.712,0.168,2.057,0,2.767
		c-3.606,0.385-8.042-0.059-11.724,0.252c-0.27,0.675-0.15,1.441-0.15,2.163c0,8.299,0.051,16.597,0.051,24.956
		c0,3.019-0.418,6.389,0.704,8.302c1.164,1.986,3.852,3.188,6.39,1.761c2.723-1.531,3.529-4.43,3.724-8.503
		c0.136-2.86-0.062-6.038,0.05-9.006c0.036-0.952-0.171-1.933,0.101-2.817c0.24-0.166,0.894-0.118,1.208-0.05
		c0.216,1.014,0.192,2.124,0.15,3.17c-0.123,3.084,0.091,6.702,0,9.962c-0.121,4.376-1.751,7.277-4.729,8.856
		c-3.014,1.597-8.137,1.636-11.32,0.352c-2.815-1.135-5.542-3.984-6.138-7.396c-0.21-1.201-0.151-2.548-0.151-3.875
		c0-9.282,0.059-18.22-0.151-27.22c-2.425-0.418-5.499,0.124-7.95-0.251c-0.16-0.364-0.16-1.296,0-1.66
		c2.327-0.191,3.834-0.447,5.384-1.258c0.465-0.243,0.841-0.582,1.308-0.905c1.711-1.188,3.153-2.34,4.479-4.327
		c1.068-1.602,2.218-3.896,2.817-5.988c0.667-2.33,1.343-4.811,1.509-7.295c0.068-1.009-0.282-2.042,0.504-2.163
		C66.987,3.848,67.89,4.008,68.399,4.077z"/>
</g>
<g id="Layer_1">
</g>
</svg>
