<?xml version="1.0" encoding="iso-8859-1"?>
<!-- Generator: Adobe Illustrator 19.2.0, SVG Export Plug-In . SVG Version: 6.00 Build 0)  -->
<svg version="1.1" xmlns="http://www.w3.org/2000/svg" xmlns:xlink="http://www.w3.org/1999/xlink" x="0px" y="0px"
	 viewBox="0 0 173.808 174.705" style="enable-background:new 0 0 173.808 174.705;" xml:space="preserve">
<g id="blue_x5F_circle_x5F_group">
	<path style="fill-rule:evenodd;clip-rule:evenodd;" d="M25.713,149.499c-4.669-4.425-8.528-9.597-12.149-15.1
		c-1.819-2.768-3.353-5.708-4.887-8.76c-1.533-3.048-2.778-6.276-3.921-9.679c-2.236-6.662-4.106-14.337-4.598-22.65
		c-0.505-8.528,0.211-17.396,1.839-24.925c0.793-3.667,1.836-7.212,3.049-10.599c0.299-0.835,0.66-1.641,0.969-2.468
		c0.314-0.844,0.515-1.703,0.871-2.517C15.792,32.427,30.766,17.43,50.492,7.938c8.916-3.972,18.449-6.961,30.392-7.744
		C86.896-0.2,93.447,0.012,99.083,0.775c5.961,0.808,11.307,2.347,16.406,4.017c1.713,0.561,3.301,1.244,4.937,1.887
		c3.233,1.272,6.174,2.87,9.099,4.501c8.697,4.848,16.251,10.986,22.602,18.294c4.24,4.88,8.165,10.01,11.276,15.971
		c0.771,1.478,1.707,2.96,2.227,4.598c0.25,0.79,0.66,1.585,1.016,2.372c1.737,3.841,3.2,8.195,4.357,12.68
		c0.934,3.625,1.716,7.4,2.178,11.422c0.494,4.303,0.628,8.458,0.629,12.922c0.001,4.3-0.54,8.482-1.161,12.438
		c-1.202,7.653-3.692,14.576-6.292,20.956c-0.657,1.613-1.328,3.16-2.13,4.694c-2.287,4.383-5.006,8.656-7.937,12.486
		c-5.901,7.712-12.802,14.566-21.005,19.892c-2.752,1.787-5.546,3.465-8.518,5.082c-5.846,3.18-12.487,5.669-19.794,7.453
		c-7.288,1.779-16.065,2.54-24.683,2.178c-8.518-0.358-16.118-2.221-22.892-4.355c-6.892-2.172-12.904-5.303-18.488-8.76
		C35.301,158.029,30.333,154.074,25.713,149.499z M49.96,69.693c-1.864,4.05-3.367,8.692-3.727,14.18
		c-0.82,12.499,2.915,20.934,7.84,27.828c4.733,6.624,12.113,12.305,20.859,14.906c4.637,1.379,10.15,2.142,15.923,1.597
		c5.315-0.501,9.805-2.031,13.939-3.969c3.91-1.833,7.451-4.403,10.453-7.404c4.583-4.583,8.047-9.79,10.405-16.455
		c0.389-1.098,0.59-2.358,0.871-3.581c1.393-6.059,1.498-13.71-0.193-19.891c-0.329-1.201-0.598-2.383-0.968-3.484
		c-0.743-2.214-1.666-4.281-2.759-6.146c-3.928-6.709-8.895-11.773-15.632-15.73c-1.861-1.093-3.926-2.097-6.099-2.855
		c-4.435-1.547-9.517-2.748-15.438-2.468c-1.63,0.077-3.317,0.24-4.791,0.484c-10.184,1.681-17.588,6.392-23.425,12.39
		C54.327,62.246,51.821,65.649,49.96,69.693z"/>
</g>
<g id="Layer_1">
</g>
</svg>
