<?xml version="1.0" encoding="iso-8859-1"?>
<!-- Generator: Adobe Illustrator 19.2.0, SVG Export Plug-In . SVG Version: 6.00 Build 0)  -->
<svg version="1.1" xmlns="http://www.w3.org/2000/svg" xmlns:xlink="http://www.w3.org/1999/xlink" x="0px" y="0px"
	 viewBox="0 0 78.561 79.087" style="enable-background:new 0 0 78.561 79.087;" xml:space="preserve">
<g id="Boffi_x5F_IT">
	<path style="fill-rule:evenodd;clip-rule:evenodd;" d="M78.347,0.301c0.26,3.25,0.146,6.545,0.146,9.852
		c-0.002,14.738,0.002,29.958,0,44.92c-0.001,6.593,0.01,12.942,0,19.266c-0.003,1.567,0.208,3.147-0.098,4.683
		c-19.279,0.171-39.341-0.051-58.821-0.049c-6.578,0.001-13.012,0.065-19.363-0.146c-0.281-3.142-0.108-6.367-0.146-9.608
		c-0.039-3.261,0.06-6.562,0-9.852c-0.187-9.948,0.096-20.126,0-29.898c-0.091-9.191,0-17.953,0-27.118
		c0-0.762-0.118-1.594,0.146-2.342c4.744-0.019,9.921,0,14.876,0c7.779,0.001,16.312,0.048,24.241,0.049
		C52.464,0.059,65.478,0.097,78.347,0.301z M16.94,6.886c-0.943,0-1.916-0.047-2.877,0c-0.989,0.047-1.984-0.162-2.829-0.049
		c-0.68,0.091-0.585,0.779-0.586,1.463c0,11.745,0.001,22.807,0,34.19c0,2.547-0.022,4.82,0.391,6.877
		c0.834,4.168,2.337,7.158,4.341,10.193c2.85,4.315,6.855,7.719,11.706,9.999c4.888,2.298,11.793,3.45,18.339,2.146
		c3.948-0.786,7.256-2.311,10.291-4.243c2.88-1.833,5.417-4.239,7.414-7.071c2.934-4.163,5.344-9.629,5.413-16.291
		c0.075-7.141-2.14-12.472-5.023-16.778c-1.898-2.834-4.169-5.444-7.121-7.364c-3.033-1.973-6.28-3.547-10.047-4.487
		c-3.863-0.965-8.954-1.079-13.023-0.195c-3.495,0.759-6.495,1.999-9.121,3.561c-0.37,0.22-0.76,0.579-1.269,0.585
		c-0.29-3.903,0.096-8.484-0.194-12.389C20.955,6.769,18.951,6.886,16.94,6.886z"/>
	<path style="fill-rule:evenodd;clip-rule:evenodd;" d="M51.814,54.733c-2.779,2.911-6.205,4.966-11.316,5.365
		c-2.596,0.202-5.173-0.399-7.169-1.171c-2.01-0.776-3.719-1.942-5.122-3.17c-2.867-2.509-5.089-6.536-5.413-11.219
		c-0.394-5.667,1.754-9.253,4.341-12.29c2.815-2.755,6.237-5.037,11.364-5.365c3.913-0.251,7.356,0.958,9.9,2.585
		c2.591,1.656,4.645,3.895,5.951,6.535c1.443,2.92,2.183,6.499,1.561,10.341C55.35,49.803,53.724,52.499,51.814,54.733z"/>
</g>
<g id="Layer_1">
</g>
</svg>
