<?xml version="1.0" encoding="iso-8859-1"?>
<!-- Generator: Adobe Illustrator 21.0.2, SVG Export Plug-In . SVG Version: 6.00 Build 0)  -->
<svg version="1.1" xmlns="http://www.w3.org/2000/svg" xmlns:xlink="http://www.w3.org/1999/xlink" x="0px" y="0px"
	 viewBox="0 0 13.541 13.501" style="enable-background:new 0 0 13.541 13.501;" xml:space="preserve">
<g id="Boise_x5F_Cascade_x5F_Corp">
	<path d="M6.037,0.041c1.868-0.211,3.82,0.392,5.22,1.651c0.793,0.689,1.409,1.575,1.803,2.548c0.37,0.936,0.534,1.956,0.466,2.96
		c-0.077,1.146-0.446,2.274-1.078,3.235c-0.215,0.336-0.472,0.641-0.733,0.94c-0.632,0.653-1.381,1.199-2.218,1.559
		c-0.933,0.406-1.959,0.603-2.976,0.56c-2.019-0.051-3.984-1.08-5.181-2.705C0.394,9.537-0.082,7.94,0.012,6.374
		c0.078-1.45,0.638-2.872,1.581-3.978C2.695,1.078,4.326,0.213,6.037,0.041z M4.069,1.951C3.207,2.432,2.48,3.15,1.991,4.008
		c-0.594,1.017-0.838,2.233-0.689,3.4c0.135,1.155,0.663,2.257,1.465,3.096c0.867,0.922,2.061,1.536,3.32,1.685
		c-0.004-0.91-0.009-1.82,0.003-2.73c-0.667,0.529-1.333,1.059-2.002,1.585c-0.324-0.387-0.655-0.77-0.996-1.143
		c0.109-0.073,0.206-0.162,0.311-0.24C4.294,8.945,5.195,8.239,6.09,7.527c-0.011-0.3-0.003-0.601-0.005-0.901
		C5.409,7.15,4.747,7.693,4.071,8.217C3.75,7.827,3.426,7.437,3.097,7.054C3.481,6.77,3.846,6.46,4.223,6.167
		c0.621-0.497,1.25-0.983,1.87-1.482C6.091,4.381,6.09,4.078,6.094,3.775C5.408,4.315,4.73,4.866,4.042,5.403
		C3.741,4.998,3.416,4.611,3.104,4.214C4.01,3.497,4.916,2.781,5.819,2.061C6.152,1.81,6.465,1.532,6.805,1.29
		c1.225,0.979,2.457,1.949,3.685,2.926c-0.313,0.398-0.632,0.792-0.943,1.191C8.873,4.858,8.187,4.327,7.512,3.782
		C7.516,4.09,7.508,4.399,7.516,4.707c0.137,0.092,0.261,0.2,0.391,0.301c0.866,0.682,1.731,1.366,2.59,2.056
		c-0.333,0.38-0.659,0.767-0.975,1.161C8.856,7.683,8.173,7.162,7.512,6.615c0.003,0.306-0.001,0.613,0.002,0.92
		c0.997,0.788,1.991,1.581,2.987,2.37c-0.342,0.37-0.661,0.76-0.999,1.135c-0.322-0.246-0.635-0.505-0.956-0.753
		C8.208,10.006,7.847,9.751,7.52,9.458c-0.006,0.908-0.001,1.817-0.003,2.725c1.488-0.196,2.873-1.04,3.74-2.262
		c0.724-1.007,1.093-2.264,1.013-3.502c-0.063-1.249-0.587-2.462-1.429-3.382c-0.132-0.131-0.262-0.262-0.393-0.393
		C9.867,2.14,9.191,1.735,8.455,1.502C7.016,1.037,5.382,1.194,4.069,1.951z"/>
</g>
<g id="Layer_1">
</g>
</svg>
