<?xml version="1.0" encoding="iso-8859-1"?>
<!-- Generator: Adobe Illustrator 19.2.0, SVG Export Plug-In . SVG Version: 6.00 Build 0)  -->
<svg version="1.1" xmlns="http://www.w3.org/2000/svg" xmlns:xlink="http://www.w3.org/1999/xlink" x="0px" y="0px"
	 viewBox="0 0 78.059 78.877" style="enable-background:new 0 0 78.059 78.877;" xml:space="preserve">
<g id="boise_x5F_cascade_x5F_corporation">
	<path style="fill-rule:evenodd;clip-rule:evenodd;" d="M37.364,0.044C43.74-0.26,49.579,1.049,54.036,3.009
		c4.605,2.025,8.51,4.573,11.763,7.826c3.391,3.39,6.173,6.694,8.263,11.374c0.972,2.173,1.973,4.596,2.674,7.144
		c0.722,2.622,1.254,5.518,1.312,8.458c0.134,6.756-0.926,11.832-2.868,16.671c-0.95,2.37-1.998,4.555-3.257,6.562
		c-1.235,1.972-2.676,3.806-4.277,5.493c-6.312,6.648-14.809,11.72-26.927,12.297c-6.33,0.301-11.946-1.034-16.575-2.965
		C14.937,72.027,8.372,65.42,4.021,56.767c-2.197-4.371-3.737-9.469-3.985-15.603c-0.394-9.714,2.557-17.259,6.222-23.137
		C9.972,12.07,15.266,7.392,21.762,4.127c2.142-1.077,4.427-2.023,7.048-2.771C31.421,0.611,34.288,0.19,37.364,0.044z
		 M34.788,6.994c-4.352,0.541-8.163,1.945-11.422,3.791c-6.409,3.631-11.371,8.958-14.291,16.138
		c-1.476,3.63-2.526,7.855-2.527,12.734c0,9.836,4.027,16.602,8.749,22.019c3.703,3.928,8.229,7.219,13.999,9.041
		c1.939,0.612,4.025,1.251,6.319,1.312c0.256-0.865,0.146-1.807,0.146-2.722c0.001-4.797-0.001-9.624,0-14.242
		c0-1.91,0.11-3.792-0.146-5.59c-0.739,0.354-1.276,1.033-1.848,1.604c-0.576,0.576-1.12,1.169-1.701,1.75
		c-2.876,2.876-5.733,5.782-8.651,8.7c-0.259,0.258-1.455,1.655-1.848,1.653c-0.331-0.002-0.97-0.775-1.215-1.021
		c-1.2-1.2-2.336-2.25-3.305-3.5c3.018-3.267,6.236-6.335,9.38-9.478c3.144-3.143,6.333-6.24,9.284-9.576
		c-0.063-2.107,0.127-4.469-0.097-6.416c-0.613,0.103-1.02,0.679-1.41,1.069c-0.443,0.444-0.81,0.948-1.215,1.41
		c-0.392,0.445-0.926,0.818-1.361,1.264c-1.317,1.346-2.635,2.608-3.889,3.985c-0.843,0.926-1.825,1.692-2.625,2.625
		c-1.286,1.046-2.201,2.464-3.597,3.402c-1.232-1.04-2.375-2.221-3.45-3.354c-0.365-0.384-0.844-0.73-1.02-1.264
		c3.009-3.2,6.05-6.219,9.38-9.478c0.789-0.772,1.625-1.492,2.382-2.333c1.551-1.723,3.02-3.048,4.569-4.861
		c0.315-0.37,0.75-0.768,1.167-1.166c0.395-0.378,1.009-0.92,1.117-1.264c0.278-0.878,0.049-2.249,0.049-3.305
		c0-1.216,0.076-2.308-0.097-3.305c-0.425,0.012-0.704,0.412-0.973,0.68c-0.901,0.901-1.67,1.836-2.576,2.722
		c-2.99,2.926-5.763,5.909-8.749,8.894c-0.289,0.289-1.388,1.765-1.799,1.75c-0.38-0.014-0.899-0.851-1.166-1.118
		c-0.817-0.817-1.461-1.51-2.284-2.333c-0.294-0.292-1.085-0.859-1.069-1.264c0.007-0.206,0.645-0.816,0.923-1.118
		c0.388-0.419,0.776-0.776,1.021-1.021c4.757-4.757,9.562-9.697,14.242-14.338c0.22-0.558,0.791-0.764,1.069-1.264
		c0.238-0.15,0.372-0.405,0.583-0.583c0.13-0.109,0.66-0.536,0.194-0.632C34.99,6.852,34.875,7.023,34.788,6.994z M42.76,7.043
		c-0.017,0.308,0.696,0.939,1.021,1.264c1.204,1.204,2.441,2.407,3.451,3.548c3.989,3.832,8.17,8.267,12.2,12.297
		c0.353,0.353,1.663,1.394,1.652,1.896c-0.008,0.358-0.758,1.001-1.021,1.263c-0.845,0.845-1.528,1.514-2.284,2.285
		c-0.372,0.379-0.666,0.911-1.216,1.118c-4.508-4.264-8.644-9.139-13.172-13.318c-0.274-0.253-0.498-0.756-0.972-0.729
		c-0.224,2.012-0.035,4.437-0.098,6.611c3.093,3.242,6.243,6.427,9.381,9.624c2.8,2.692,5.575,5.478,8.36,8.263
		c0.297,0.297,1.081,0.985,1.069,1.312c-0.014,0.368-0.8,0.896-1.069,1.167c-0.819,0.82-1.394,1.47-2.188,2.284
		c-0.268,0.275-0.947,1.024-1.264,1.021c-0.234-0.002-0.691-0.498-0.972-0.778c-0.915-0.915-1.777-1.874-2.576-2.673
		c-2.369-2.369-4.667-4.667-7-6.999c-0.875-0.876-1.746-1.821-2.624-2.625c-0.277-0.253-0.603-0.662-1.021-0.632
		c-0.151,2.061-0.09,4.352-0.049,6.465c3.062,3.167,6.074,6.22,9.381,9.527c2.674,2.674,5.648,5.442,8.311,8.214
		c0.327,0.34,1.07,1.019,1.069,1.312c-0.001,0.355-0.731,0.926-1.021,1.215c-0.854,0.854-1.411,1.411-2.236,2.236
		c-0.293,0.293-0.895,1.021-1.215,1.021c-0.485,0-1.393-1.246-1.799-1.652c-3.556-3.556-7.041-6.993-10.498-10.45
		c-0.571-0.571-1.125-1.253-1.896-1.604c-0.136,3.62-0.164,7.484-0.097,11.228c0.069,3.866-0.143,7.717,0.097,11.276
		c0.831,0.14,1.645-0.111,2.431-0.243c2.509-0.422,4.628-1.142,6.659-1.993c8.025-3.36,14.062-9.408,17.498-17.207
		c2.285-5.187,3.477-13.1,1.896-19.734c-1.484-6.229-4.139-11.354-7.825-15.311c-4.872-5.4-11.133-9.412-20.221-10.596
		C42.848,6.969,42.796,6.997,42.76,7.043z"/>
</g>
<g id="Layer_1">
</g>
</svg>
