<?xml version="1.0" encoding="iso-8859-1"?>
<!-- Generator: Adobe Illustrator 19.2.0, SVG Export Plug-In . SVG Version: 6.00 Build 0)  -->
<svg version="1.1" xmlns="http://www.w3.org/2000/svg" xmlns:xlink="http://www.w3.org/1999/xlink" x="0px" y="0px"
	 viewBox="0 0 39.66 75.185" style="enable-background:new 0 0 39.66 75.185;" xml:space="preserve">
<g id="Bonifatius_x5F_Druck_x5F_Buch_x5F_Verlag">
	<path style="fill-rule:evenodd;clip-rule:evenodd;" d="M5.497,0.149c0.181,24.947,0.172,49.638,0.097,74.868
		C4.85,75.313,3.88,75.12,2.911,75.114c-0.934-0.005-1.941,0.082-2.731-0.098c-0.215-24.023-0.149-48.3-0.145-72.819
		c0-0.698-0.155-1.492,0.194-2.146C1.913-0.035,3.906-0.019,5.497,0.149z"/>
	<path style="fill-rule:evenodd;clip-rule:evenodd;" d="M39.541,0.198c0.173,25.052,0.129,50.455,0.048,74.868
		c-6.46,0.178-13.394,0.098-20.192,0.098c-0.777,0-2.29,0.13-2.633-0.244c-0.422-0.459-0.195-2.222-0.195-2.926
		c0-1.092-0.11-2.176,0.146-2.926c0.428,0.135,0.489,0.661,0.634,0.976c0.841,1.832,2.372,3.312,4.438,4.048
		c0.782,0.279,1.872,0.521,2.828,0.537c2.789,0.044,4.989-1.311,6.585-2.683c1.688-1.451,2.929-3.278,3.56-5.707
		c0.649-2.5,0.341-5.867,0.341-8.926c0-9.28-0.047-18.197-0.048-26.825c-0.001-2.91-0.992-5.023-2.585-6.682
		c-1.481-1.542-3.783-2.78-6.438-2.78c-3.605,0-6.284,1.462-7.755,3.658c-0.249,0.372-0.531,0.733-0.78,1.122
		c-0.244,0.379-0.318,0.843-0.684,1.17c-0.461-0.302-0.292-0.973-0.292-1.414c0.001-7.323-0.001-14.658,0-22.143
		c0-0.898-0.103-2.841,0.146-3.268c0.035-0.045,0.088-0.074,0.146-0.098c6.588,0,13.376,0,20.047,0
		C37.759,0.051,38.687-0.058,39.541,0.198z"/>
	<path style="fill-rule:evenodd;clip-rule:evenodd;" d="M19.202,30.047c0.305-0.046,1.408-0.071,1.951,0.146
		c0.985,0.396,2.051,1.692,2.39,2.829c0.295,0.991,0.195,2.359,0.195,3.805c-0.002,8.09,0.048,15.329,0.049,23.313
		c0,1.438,0.085,2.847-0.244,3.707c-0.312,0.815-1.137,1.68-1.756,2c-1.818,0.939-4.264-0.03-4.878-1.512
		c-0.531-1.284-0.342-3.56-0.341-5.462c0.002-7.544-0.164-15.111-0.049-22.583c0.02-1.268-0.146-2.643,0.098-3.658
		C16.94,31.281,17.863,30.25,19.202,30.047z"/>
</g>
<g id="Layer_1">
</g>
</svg>
