<?xml version="1.0" encoding="iso-8859-1"?>
<!-- Generator: Adobe Illustrator 19.2.0, SVG Export Plug-In . SVG Version: 6.00 Build 0)  -->
<svg version="1.1" xmlns="http://www.w3.org/2000/svg" xmlns:xlink="http://www.w3.org/1999/xlink" x="0px" y="0px"
	 viewBox="0 0 131.123 131.792" style="enable-background:new 0 0 131.123 131.792;" xml:space="preserve">
<g id="Boston">
	<path style="fill-rule:evenodd;clip-rule:evenodd;" d="M42.948,127.833c0.005-0.205-0.089-0.311-0.24-0.36
		c1.095-3.161,2.872-5.014,3.959-8.038c0.157-0.122,0.442-0.118,0.6-0.24c2.006-4.912,4.645-9.191,7.318-13.436
		c16.078-31.23,32.453-60.718,49.066-91.413c-1.782,1.017-2.888,2.71-4.198,4.199c-1.744,1.695-3.551,3.327-4.919,5.399
		c-1.969,1.07-2.795,3.283-4.679,4.438c-1.91,2.928-4.745,4.933-6.718,7.798C65.726,53.92,49.581,72.924,32.271,90.764
		c-5.306,6.275-10.761,12.128-16.556,18.115c-5.69-6.745-10.79-15.457-12.956-24.593c-5.19-15.101-2.692-34.447,4.438-48.466
		c3.91-6.276,7.427-12.231,12.956-16.915c0.651-1.509,2.39-1.93,3.119-3.359c2.65-1.509,4.58-3.739,7.438-5.039
		C41.292,2.786,58.796-1.182,73.179,0.31c0.628,0.615,1.778,0.286,2.759,0.48c3.36,0.666,7.532,1.56,9.598,2.639
		c5.012,1.106,8.77,3.466,12.956,5.398c1.538,1.541,4.062,2.097,5.278,3.959c5.221,2.817,8.748,7.327,12.716,11.396
		c1.493,2.346,3.024,4.654,4.799,6.718c0.107,0.652,0.128,1.392,0.84,1.439c3.83,7.893,8.031,16.495,8.277,25.913
		c0.04,1.54,0.417,3.025,0.481,4.559c0.077,1.895,0.26,3.773,0.239,5.638c-0.021,1.898-0.622,3.934-0.84,5.998
		c-0.195,1.856-0.277,4.067-0.959,5.518c-0.102,2.605-1.225,3.971-1.439,6.358c-3.789,9.407-8.125,18.268-14.996,24.593
		c-4.653,5.183-10.946,9.923-17.875,13.316c-0.454,0.223-0.667,0.745-1.199,0.96c-5.434,2.199-10.149,4.278-15.836,5.038
		c-1.745,0.233-3.667,1.146-5.158,1.08c-1.691-0.075-3.81,0.066-5.639,0.48C58.481,131.67,50.47,130.332,42.948,127.833z
		 M103.65,14.106C103.729,14.185,103.6,14.056,103.65,14.106L103.65,14.106z"/>
	<path style="fill-rule:evenodd;clip-rule:evenodd;fill:#FFFFFF;" d="M103.65,14.106C103.6,14.056,103.729,14.185,103.65,14.106
		L103.65,14.106z"/>
</g>
<g id="Layer_1">
</g>
</svg>
