<?xml version="1.0" encoding="iso-8859-1"?>
<!-- Generator: Adobe Illustrator 19.2.0, SVG Export Plug-In . SVG Version: 6.00 Build 0)  -->
<svg version="1.1" xmlns="http://www.w3.org/2000/svg" xmlns:xlink="http://www.w3.org/1999/xlink" x="0px" y="0px"
	 viewBox="0 0 73.464 77.802" style="enable-background:new 0 0 73.464 77.802;" xml:space="preserve">
<g id="Bostleman_x5F_Corporation">
	<path style="fill-rule:evenodd;clip-rule:evenodd;" d="M64.674,38.583c0.263,0.455,0.826,0.511,1.23,0.689
		c3.008,1.323,5.14,3.75,6.348,6.988c1.39,3.724,1.034,9.053,1.034,14.073c0,5.402-0.381,9.414-2.657,12.548
		c-2.145,2.953-5.191,4.921-10.285,4.921c-20.091-0.001-40.278-0.039-60.181-0.148c-0.022-0.044-0.043-0.088-0.099-0.098
		C-0.042,52.822,0.016,27.726,0.016,2.317c0-0.733-0.07-1.511,0.197-2.214c9.787,0.048,20.764-0.254,30.361,0
		c2.416,0.064,4.876,0.043,7.332-0.049c2.487-0.093,5.037,0.049,7.529,0.049c4.97,0.001,9.912,0.049,14.713,0.049
		c5.119,0,8.225,1.839,10.481,4.675c1.138,1.43,2.014,3.112,2.411,5.167c0.411,2.122,0.394,4.448,0.394,7.184
		c0,4.974,0.323,10.302-1.132,13.926c-0.363,0.904-0.793,1.703-1.329,2.46c-1.081,1.53-2.191,2.772-3.887,3.69
		c-0.389,0.21-0.817,0.441-1.23,0.64C65.461,38.083,64.909,38.11,64.674,38.583z M35.297,1.038
		c-5.129,6.61-10.44,13.266-15.501,19.88c-0.321,0.419-0.806,0.849-0.836,1.427c1.175,0.177,2.577,0.098,3.937,0.098
		c1.391,0,2.797-0.116,3.936,0.148c0.272,16.377-0.089,32.678,0.197,49.256c5.597,0.166,11.644,0.151,17.223,0.049
		c0.318-1.396,0.082-2.896,0.148-4.379c0.064-1.461,0.062-2.949,0.049-4.379c-0.058-6.693,0-13.555,0-20.372
		c0-6.856-0.176-13.682,0.099-20.175c2.419-0.299,5.346,0.111,7.676-0.197c0.033-0.6-0.621-0.913-0.836-1.427
		c-1.111-1.283-2.076-2.713-3.199-3.986c-1.667-2.411-3.852-4.657-5.511-7.037c-1.7-2.439-3.598-4.747-5.511-7.086
		c-0.468-0.572-1.181-1.753-1.722-1.919C35.387,0.964,35.334,0.992,35.297,1.038z"/>
</g>
<g id="Layer_1">
</g>
</svg>
