<?xml version="1.0" encoding="iso-8859-1"?>
<!-- Generator: Adobe Illustrator 19.2.0, SVG Export Plug-In . SVG Version: 6.00 Build 0)  -->
<svg version="1.1" xmlns="http://www.w3.org/2000/svg" xmlns:xlink="http://www.w3.org/1999/xlink" x="0px" y="0px"
	 viewBox="0 0 83.225 75.459" style="enable-background:new 0 0 83.225 75.459;" xml:space="preserve">
<g id="Brabo_x5F_64">
	<path style="fill-rule:evenodd;clip-rule:evenodd;" d="M15.138,0.162c0.331,19.754-0.146,39.876,0.205,59.336
		c0.994,0.23,2.073,0.154,3.104,0.154c16.378,0,32.925,0.178,49.312,0.05c0.37-1.773,0.029-3.617,0.103-5.445
		c0.073-1.85,0.051-3.711,0.051-5.598c-0.001-11.168,0.084-23.05-0.102-34.248c-0.707-0.271-1.501-0.153-2.239-0.153
		c-11.544-0.001-23.389-0.081-34.962-0.203c-0.182-4.213-0.16-9.426,0-13.841c4.37-0.166,8.734-0.104,13.079-0.102
		c4.322,0,8.653-0.101,13.027,0.051c8.793,0.305,17.636-0.163,26.311,0.203c0.353,4.521-0.014,9.182,0.152,13.74
		c0.056,1.528,0.069,3.107,0,4.631c-0.139,3.047,0.056,6.093-0.051,9.16c-0.108,3.114-0.001,6.275,0,9.415
		c0.002,12.627,0.083,25.358-0.102,37.963c-1.601,0.218-3.232,0.159-4.886,0.103c-1.624-0.057-3.318,0.032-4.987,0.051
		c-10.226,0.108-20.887-0.101-31.398-0.102c-13.994-0.003-27.9-0.095-41.577-0.255c-0.268-1.475-0.153-3.019-0.153-4.529
		c0-22.302,0.048-45.104,0.051-68.242c0-0.801-0.09-1.846,0.204-2.188c0.038-0.048,0.092-0.077,0.153-0.102c2.421,0,4.976,0,7.481,0
		C10.413,0.009,12.926-0.056,15.138,0.162z"/>
	<path style="fill-rule:evenodd;clip-rule:evenodd;" d="M30.762,29.576c5.469,0.018,10.914-0.003,16.488,0
		c1.812,0,3.626-0.122,5.343,0.152c0.228,4.689,0.211,9.809,0,14.504c-3.498,0.347-7.224,0.023-10.94,0.152
		c-1.849,0.063-3.724-0.051-5.599-0.051c-1.854,0-3.742,0.124-5.496-0.152c-0.131-3.967-0.105-8.527-0.051-12.723
		c0.009-0.637-0.08-1.458,0.102-1.781C30.646,29.631,30.702,29.601,30.762,29.576z"/>
</g>
<g id="Layer_1">
</g>
</svg>
