<?xml version="1.0" encoding="iso-8859-1"?>
<!-- Generator: Adobe Illustrator 21.0.2, SVG Export Plug-In . SVG Version: 6.00 Build 0)  -->
<svg version="1.1" xmlns="http://www.w3.org/2000/svg" xmlns:xlink="http://www.w3.org/1999/xlink" x="0px" y="0px"
	 viewBox="0 0 38.709 34.87" style="enable-background:new 0 0 38.709 34.87;" xml:space="preserve">
<g id="Bradaric_x5F_Ohmae">
	<g>
		<g>
			<path d="M4.335,2.541C5.89,0.917,8.116,0.023,10.354,0c2.655,0.024,5.312,0.052,7.968,0.002c3.129-0.003,6.258,0.06,9.387,0.051
				c2.702,0.021,5.323,1.436,6.826,3.68c0.156,0.276,0.461,0.403,0.701,0.591c2.293,1.605,3.619,4.442,3.46,7.224
				c-0.113,2.328-1.265,4.571-3.072,6.04c2.105,1.724,3.3,4.52,3.007,7.232c-0.219,2.549-1.76,4.9-3.955,6.195
				c-1.483,2.262-4.076,3.826-6.807,3.856c-1.828-0.011-3.657,0.015-5.484-0.031c-4.042-0.029-8.085,0.013-12.128-0.013
				c-2.331,0.046-4.594-1.02-6.185-2.693C2.719,32.091,1.357,32.105,0,32.096C0.008,22.31,0.061,12.523,0.083,2.735
				c1.316-0.002,2.633,0.001,3.949,0.001C4.17,2.752,4.252,2.627,4.335,2.541z M9.838,0.967C8.257,1.066,6.675,1.645,5.507,2.736
				c2.69,0.05,5.381,0.02,8.072,0.038c0.796,0.002,1.592,0.052,2.388,0.001c3.968-0.031,7.936,0.025,11.903,0.042
				c2.255,0.027,4.304,1.643,5.024,3.75c0.245,0.689,0.324,1.426,0.311,2.154c0.011,2.025-0.033,4.051-0.002,6.073
				c0.644-0.487,1.156-1.139,1.468-1.884c0.569-1.38,0.318-2.899,0.375-4.35c0.097-2.9-1.714-5.702-4.33-6.913
				c-1.216-0.568-2.585-0.697-3.91-0.624c-4.065-0.031-8.133-0.093-12.199-0.032C13.017,0.954,11.427,0.968,9.838,0.967z
				 M1.014,3.668C0.988,8.061,0.98,12.455,0.976,16.85c0.005,0.119-0.008,0.239-0.039,0.354c0.08,0.35,0.017,0.711,0.022,1.065
				c-0.005,4.308-0.017,8.616-0.034,12.923c5.024,0.02,10.05,0.023,15.074,0.053c3.988-0.095,7.977,0.043,11.967-0.002
				c1.276-0.108,2.534-0.749,3.299-1.787c-4.186,0.01-8.373-0.033-12.558-0.06c-5.316,0.044-10.636-0.007-15.95-0.042
				c0.019-3.738,0.036-7.475,0.036-11.214C2.849,13.932,2.787,9.717,2.85,5.51c4.729,0.015,9.457,0.051,14.186,0.032
				c4.761-0.021,9.521,0.066,14.282,0.038c-0.908-1.302-2.568-1.944-4.125-1.844c-3.205,0.024-6.41-0.09-9.614-0.036
				C12.056,3.729,6.537,3.653,1.014,3.668z M35.609,5.922c0.533,1.746,0.307,3.578,0.342,5.372
				c-0.027,2.593-2.113,4.956-4.669,5.344c-4.632,0.044-9.265-0.053-13.897-0.035c-3.641,0.03-7.282-0.023-10.922-0.012
				c0.006,0.582-0.003,1.164,0.003,1.746c-0.011,0.11,0.142,0.062,0.21,0.075c3.817-0.018,7.635,0.075,11.452,0.007
				c4.339,0.005,8.678,0.073,13.018,0.057c2.215,0.274,4.12,2.063,4.615,4.228c0.19,0.647,0.158,1.328,0.157,1.994
				c-0.015,1.492,0.1,3.019-0.384,4.456c1.003-0.866,1.631-2.098,1.994-3.358c0.844-3.131-0.717-6.662-3.552-8.21
				c1.426-0.817,2.587-2.086,3.225-3.605C38.379,11.308,37.725,7.944,35.609,5.922z M3.76,6.439
				c-0.03,7.337-0.054,14.673-0.071,22.01c0.612,0.03,1.226,0.02,1.839,0.023c0.025-7.341,0.059-14.683,0.06-22.026
				C4.979,6.434,4.37,6.443,3.76,6.439z M6.502,6.449c-0.005,3.066-0.039,6.13-0.027,9.197c2.862,0.038,5.727,0.008,8.589,0.052
				c5.392-0.083,10.787,0.059,16.179,0.007c0.341-0.078,0.692-0.185,0.998-0.347c0.044-2.189,0.023-4.381,0.033-6.57
				c0.025-0.773-0.062-1.568-0.4-2.272c-2.625-0.015-5.25,0.007-7.875-0.02c-2.473-0.026-4.947-0.075-7.419-0.022
				C13.22,6.487,9.861,6.432,6.502,6.449z M6.46,19.345c-0.006,3.04-0.032,6.08-0.029,9.12c4.156,0.017,8.314,0.086,12.47,0.02
				c4.304,0.043,8.609,0.066,12.914,0.061c0.393-0.828,0.432-1.763,0.417-2.665c-0.002-2.039,0.009-4.078,0.008-6.117
				c-0.433-0.185-0.889-0.409-1.372-0.361c-5.441,0.009-10.882-0.099-16.322-0.032C11.852,19.337,9.156,19.347,6.46,19.345z
				 M33.136,27.023c-0.085,1.714-1.082,3.296-2.471,4.268c-0.994,0.659-2.2,0.937-3.383,0.9c-2.643,0.01-5.286-0.029-7.928-0.06
				c-4.639,0.075-9.278-0.025-13.917-0.001c1.214,1.099,2.838,1.698,4.466,1.762c1.99-0.004,3.979,0.035,5.968,0.034
				c4.14-0.097,8.283,0.07,12.421,0c3.132-0.215,5.91-2.696,6.547-5.756c0.265-1.23,0.094-2.494,0.172-3.74
				c0.079-1.556-0.574-3.148-1.831-4.096C33.16,22.564,33.177,24.794,33.136,27.023z"/>
		</g>
	</g>
</g>
<g id="Layer_1">
</g>
</svg>
