<?xml version="1.0" encoding="iso-8859-1"?>
<!-- Generator: Adobe Illustrator 19.2.0, SVG Export Plug-In . SVG Version: 6.00 Build 0)  -->
<svg version="1.1" xmlns="http://www.w3.org/2000/svg" xmlns:xlink="http://www.w3.org/1999/xlink" x="0px" y="0px"
	 viewBox="0 0 79.382 44.533" style="enable-background:new 0 0 79.382 44.533;" xml:space="preserve">
<g id="Brandeis_x5F_University_x5F_Womens_x5F_Committee">
	<path style="fill-rule:evenodd;clip-rule:evenodd;" d="M0.183,44.252c-0.333-3.616-0.045-7.331-0.147-11.022
		c-0.104-3.707,0.049-7.413,0.049-11.071c0-7.397-0.158-14.757,0.099-22.045c20.999-0.221,42.216-0.05,63.183-0.049
		c2.086,0,4.229-0.212,6.003,0.146c3.293,0.667,5.676,2.503,7.43,4.823c1.74,2.302,3.068,5.49,2.411,9.546
		c-0.42,2.593-1.423,4.728-2.854,6.348c-0.298,0.338-1.459,1.3-1.378,1.771c0.061,0.354,0.387,0.652,0.689,0.984
		c1.84,2.023,3.175,4.588,3.346,8.267c0.195,4.198-1.816,7.321-3.888,9.35c-1.141,1.117-2.562,1.96-4.133,2.51
		c-0.847,0.297-1.71,0.6-2.706,0.64c-4.849,0.194-10.586-0.01-15.943,0C35.21,44.48,17.896,44.413,0.183,44.252z M7.121,19.402
		c9.021-0.001,18.473,0.113,27.261,0c1.453-0.019,2.783,0.152,3.986-0.099c2.5-0.521,4.501-3.037,4.921-5.412
		c0.792-4.488-2.302-8.079-6.299-8.366c-2.545-0.183-5.205,0.001-7.873,0c-5.229,0-10.653,0.001-15.796,0
		c-1.884,0-3.779-0.107-5.659-0.049c-0.952,0.03-2.064-0.134-2.559,0.296C4.97,6.328,5.415,6.744,5.645,7.199
		c1.203,2.37,1.439,5.824,0.689,8.759c-0.286,1.119-0.906,2.04-1.033,3.15C5.787,19.577,6.526,19.402,7.121,19.402z M49.834,19.452
		c0.972-0.001,1.965,0,2.953,0c3.969-0.001,7.788-0.126,11.564,0.049c2,0.093,4.33,0.167,5.659-0.442
		c1.329-0.61,2.274-1.677,2.952-2.854c1.376-2.391,1.049-5.591-0.295-7.578c-0.863-1.276-2.218-2.364-3.789-2.805
		c-1.376-0.386-3.303-0.246-5.118-0.246c-4.558,0-8.881,0-13.434,0c-0.896,0-2.027-0.179-2.707,0c-0.794,0.209-0.235,1.037,0,1.525
		c0.731,1.521,1.132,3.244,1.132,5.265c0,2.246-0.523,3.847-1.132,5.266c-0.24,0.56-0.512,0.81-0.492,1.574
		C47.945,19.637,48.941,19.452,49.834,19.452z M7.121,39.036c8.442,0.001,16.622,0,24.949,0c2.867,0.001,6.037,0.389,7.873-0.886
		c1.263-0.877,2.18-2.187,2.707-3.739c1.299-3.836-1.148-7.326-3.642-8.562c-1.526-0.757-3.528-0.585-5.708-0.688
		c-4.229-0.202-8.653,0-12.942,0c-4.348-0.001-8.663-0.063-12.793-0.05c-0.546,0.002-2.035-0.088-2.264,0.345
		c-0.198,0.374,0.176,0.991,0.394,1.477c0.24,0.533,0.449,1.072,0.59,1.525c0.914,2.92,0.419,6.61-0.59,8.808
		c-0.192,0.418-0.562,0.825-0.541,1.476C5.686,39.212,6.469,39.036,7.121,39.036z M49.49,39.086
		c0.916-0.026,1.861,0.049,2.805,0.049c3.774-0.001,7.573-0.066,11.072-0.049c1.908,0.009,3.988,0.283,5.56-0.05
		c1.467-0.311,2.771-1.469,3.544-2.559c0.86-1.213,1.533-2.921,1.329-5.02c-0.239-2.442-1.883-4.576-3.74-5.559
		c-1.727-0.915-4.709-0.641-7.43-0.641c-3.338,0.001-6.847-0.154-10.087,0c-1.761,0.084-3.449-0.245-5.068-0.049
		c-0.282,0.034-0.559,0.039-0.64,0.345c-0.128,0.556,0.333,0.963,0.541,1.427c0.654,1.457,1.083,3.103,1.083,5.117
		c0,2.094-0.45,3.778-1.033,5.167c-0.21,0.501-0.545,1.015-0.443,1.575C47.709,39.27,48.647,39.109,49.49,39.086z"/>
</g>
<g id="Layer_1">
</g>
</svg>
