<?xml version="1.0" encoding="iso-8859-1"?>
<!-- Generator: Adobe Illustrator 19.2.0, SVG Export Plug-In . SVG Version: 6.00 Build 0)  -->
<svg version="1.1" xmlns="http://www.w3.org/2000/svg" xmlns:xlink="http://www.w3.org/1999/xlink" x="0px" y="0px"
	 viewBox="0 0 51.466 77.269" style="enable-background:new 0 0 51.466 77.269;" xml:space="preserve">
<g id="Bras_x5F_food">
	<path style="fill-rule:evenodd;clip-rule:evenodd;" d="M0.12,77.141c-0.185-12.998-0.101-26.201-0.101-39.172
		c0-3.3-0.066-6.559,0.05-9.793c0.114-3.147-0.124-6.296-0.05-9.389c0.075-3.117,0.036-6.253,0.05-9.389
		c0.011-2.411,0.074-4.851,0-7.219c-0.021-0.688-0.174-1.485,0.202-2.12c7.74-0.088,16.471-0.051,24.23-0.051
		c4.135,0.001,8.344-0.099,11.358,0.808c6.158,1.853,10.643,5.488,13.326,10.954c1.37,2.792,2.342,5.936,2.171,9.995
		c-0.151,3.583-1.28,6.965-2.625,9.541c-1.001,1.918-2.325,3.637-3.887,5.199c-0.486,0.486-1.244,1.146-1.262,1.767
		c-0.021,0.696,0.783,1.389,1.262,1.868c1.497,1.497,2.934,3.405,3.938,5.301c1.406,2.654,2.561,5.706,2.675,9.692
		c0.115,3.978-0.876,7.257-2.17,10.096c-1.302,2.856-3.05,5.026-5.351,6.966c-3.416,2.708-7.512,4.861-13.478,5.048
		c-1.888,0.06-3.897,0-6.058,0C16.632,77.243,7.864,77.328,0.12,77.141z M25.763,9.095c-3.3,1.418-5.817,3.866-7.219,6.916
		c-1.059,2.304-1.291,5.448-0.656,8.077c0.58,2.398,1.957,4.503,3.433,6.007c2.64,2.689,7.258,4.749,11.863,3.584
		c4.136-1.046,7.075-3.691,8.784-7.37c0.894-1.924,1.274-4.413,0.959-6.916c-0.263-2.083-1.264-4.355-2.322-5.754
		c-2.188-2.894-5.725-5.654-10.853-5.351C28.36,8.369,26.927,8.595,25.763,9.095z M21.17,47.106c-1.9,2.075-3.868,5.126-3.584,9.238
		c0.268,3.888,1.907,6.55,4.089,8.733c2.068,2.068,5.19,3.784,9.188,3.635c3.732-0.14,6.601-1.858,8.682-4.089
		c2.003-2.147,3.667-5.261,3.483-9.238c-0.189-4.093-1.825-6.671-3.988-8.834c-1.953-1.953-5.246-3.926-9.188-3.634
		C26.088,43.195,23.063,45.037,21.17,47.106z"/>
</g>
<g id="Layer_1">
</g>
</svg>
