<?xml version="1.0" encoding="iso-8859-1"?>
<!-- Generator: Adobe Illustrator 21.0.2, SVG Export Plug-In . SVG Version: 6.00 Build 0)  -->
<svg version="1.1" xmlns="http://www.w3.org/2000/svg" xmlns:xlink="http://www.w3.org/1999/xlink" x="0px" y="0px"
	 viewBox="0 0 13.854 7.565" style="enable-background:new 0 0 13.854 7.565;" xml:space="preserve">
<g id="Breakfast_x5F_Club">
	<path d="M1.039,2.46C3.698,5.66,5.376,7.565,7.191,7.565c2.463,0,3.06-2.325,3.591-3.647c0.763-1.894,1.135-2.344,2.295-2.344
		c0.373,0,0.669,0,0.777,0V1.492c0,0-2.463-0.944-2.983-0.944c-0.894,0-1.213,0.369-1.635,0.689c-0.465,0.354-1.909,1.94-3.1,2.759
		C5.324,4.553,4.47,4.458,3.904,3.799c-0.643-0.755-1.43-2.153-1.77-2.723c-0.644-1.08-0.975-1.355-1.754-0.79
		C-0.383,0.839,0.089,1.318,1.039,2.46z M10.479,1.497c0-0.218,0.177-0.395,0.394-0.395c0.218,0,0.394,0.177,0.394,0.395
		c0,0.217-0.177,0.395-0.394,0.395C10.656,1.891,10.479,1.713,10.479,1.497z"/>
</g>
<g id="Layer_1">
</g>
</svg>
