<?xml version="1.0" encoding="iso-8859-1"?>
<!-- Generator: Adobe Illustrator 21.0.2, SVG Export Plug-In . SVG Version: 6.00 Build 0)  -->
<svg version="1.1" xmlns="http://www.w3.org/2000/svg" xmlns:xlink="http://www.w3.org/1999/xlink" x="0px" y="0px"
	 viewBox="0 0 26.394 30.493" style="enable-background:new 0 0 26.394 30.493;" xml:space="preserve">
<g id="Bretherton_x5F_Day">
	<path d="M0.066,0.133C4.317,0.155,8.567,0.109,12.817,0.04c3.061-0.132,6.316-0.013,9.019,1.603
		c2.081,1.287,3.424,3.779,3.146,6.238c-0.289,3.326-3.18,6.034-6.419,6.514c2.239,0.313,4.533,1.151,6.087,2.858
		c1.422,1.527,1.906,3.725,1.698,5.758c-0.146,2.142-1.469,4.052-3.13,5.335c-3.493,2.523-8.038,2.12-12.109,2.128
		c-3.7-0.041-7.406-0.037-11.108-0.033c-0.003-0.407,0-0.815,0.006-1.221c1.223,0.061,2.58-0.144,3.485-1.043
		c0.884-0.917,1.111-2.241,1.236-3.46c0.157-2.619-0.427-5.229-0.194-7.847c0.065-1.303,1.387-1.997,2.56-2.019
		c-0.001-0.242-0.002-0.484-0.001-0.725c-0.701-0.078-1.47-0.165-2.02-0.653c-0.759-0.716-0.647-1.859-0.581-2.805
		c0.044-2.407,0.561-4.875-0.07-7.242C3.819,1.688,1.661,1.351,0.058,1.394C0.061,0.974,0.048,0.553,0.066,0.133z M10.619,1.388
		c0.022,4.14-0.03,8.282-0.005,12.418c1.663-0.03,3.393,0.192,4.98-0.43c1.725-0.567,2.723-2.31,2.93-4.035
		c0.261-2.26,0.173-4.77-1.156-6.707C15.633,0.816,12.873,1.291,10.619,1.388z M10.597,15.059
		c-0.037,4.708-0.011,9.417-0.028,14.126c1.584,0.073,3.185,0.105,4.769,0.001c1.946-0.202,3.317-1.897,3.837-3.673
		c0.585-2.106,0.551-4.368,0.013-6.48c-0.311-1.261-1.011-2.474-2.116-3.194C15.119,14.658,12.757,15.157,10.597,15.059z"/>
</g>
<g id="Layer_1">
</g>
</svg>
