<?xml version="1.0" encoding="iso-8859-1"?>
<!-- Generator: Adobe Illustrator 19.2.0, SVG Export Plug-In . SVG Version: 6.00 Build 0)  -->
<svg version="1.1" xmlns="http://www.w3.org/2000/svg" xmlns:xlink="http://www.w3.org/1999/xlink" x="0px" y="0px"
	 viewBox="0 0 44.42 79.311" style="enable-background:new 0 0 44.42 79.311;" xml:space="preserve">
<g id="British_x5F_Aluminium_x5F_UK">
	<path style="fill-rule:evenodd;clip-rule:evenodd;" d="M16.823,0.1c0.301,5-0.105,10.116,0.248,14.733
		c0.607-0.096,1.034-0.586,1.493-0.896c3.062-2.068,8.355-3.533,13.39-2.24c2.468,0.635,4.447,1.752,6.321,3.186
		c3.224,2.467,5.262,5.9,5.973,10.701c0.326,2.206,0.175,4.562-0.349,6.52c-1.489,5.572-4.813,9.502-10.004,11.498
		c-1.758,0.675-3.855,1.205-6.023,1.144c-3.496-0.097-6.199-0.892-8.511-2.239c-0.734-0.429-1.383-0.987-2.191-1.345
		c-0.395,1.048,0.066,2.953-0.248,4.081c-5.201,0.145-10.892,0.22-15.978-0.049C0.704,31.657,0.797,16.984,0.796,2.837
		c0-0.844-0.097-2.399,0.149-2.737C0.982,0.054,1.035,0.024,1.094,0C6.336,0.051,11.766,0.01,16.823,0.1z M16.624,15.529
		c-1.57,1.252-3.053,3.2-4.032,5.276c-1.01,2.142-1.642,4.616-1.593,7.416c0.085,4.842,2.119,8.694,4.579,11.298
		c0.346,0.366,0.763,0.855,1.295,0.896c0.274-7.688,0.049-16.265,0.05-23.892c0-0.285,0.159-0.849-0.249-0.995
		C16.657,15.529,16.641,15.529,16.624,15.529z"/>
	<path style="fill-rule:evenodd;clip-rule:evenodd;" d="M43.451,45.394c0.239,8.241,0.149,17.491,0.149,26.528
		c0,1.257,0,2.499,0,3.733c0,1.162,0.179,2.354-0.1,3.484c-5.03,0.238-10.677,0.202-15.928,0.05
		c-0.298-0.913,0.007-2.429-0.248-3.385c-0.572,0.087-1,0.514-1.443,0.796c-3.038,1.935-7.503,3.346-12.493,2.39
		c-3.67-0.704-6.471-2.379-8.711-4.679c-1.745-1.793-3.001-3.791-3.882-6.471C0.299,66.329,0,64.617,0,62.764
		c0-3.85,1.041-6.572,2.538-9.258c2.027-3.637,6.054-6.189,10.701-7.267c2.58-0.598,5.523-0.406,7.914,0.249
		c2.395,0.655,4.152,1.711,6.072,2.887c0.219-0.539,0.188-1.302,0.199-1.991c0.011-0.69-0.12-1.391,0.05-1.99
		c3.532-0.26,8.274-0.15,12.344-0.15C41.07,45.244,42.317,45.123,43.451,45.394z M27.523,50.171
		c-0.264,3.203,0.019,6.511-0.049,9.756c-0.104,5.004-0.008,10.039,0.099,15.081c0.542-0.029,0.909-0.534,1.245-0.896
		c2.523-2.716,4.578-6.362,4.579-11.398c0-5.844-2.494-9.891-5.625-12.643c-0.032,0-0.065,0-0.099,0
		C27.614,50.096,27.561,50.125,27.523,50.171z"/>
</g>
<g id="Layer_1">
</g>
</svg>
