<?xml version="1.0" encoding="iso-8859-1"?>
<!-- Generator: Adobe Illustrator 19.2.0, SVG Export Plug-In . SVG Version: 6.00 Build 0)  -->
<svg version="1.1" xmlns="http://www.w3.org/2000/svg" xmlns:xlink="http://www.w3.org/1999/xlink" x="0px" y="0px"
	 viewBox="0 0 188.125 123.562" style="enable-background:new 0 0 188.125 123.562;" xml:space="preserve">
<g id="British_x5F_Celanese">
	<path style="fill-rule:evenodd;clip-rule:evenodd;" d="M111.913,90.782c-0.26,2.665-0.15,5.454-0.15,8.213
		c0,2.734-0.014,5.455,0,8.111c0.03,5.48-0.005,11.052-0.2,16.424c-11.869,0.025-23.492,0.091-35.301-0.101
		c-0.333-10.744,0.184-21.797-0.15-32.647c-0.818-0.269-1.715-0.149-2.553-0.149c-11.416-0.001-23.021-0.148-34.551-0.15
		c-1.853-0.001-3.796,0.039-5.458-0.05c-3.347-4.055-6.452-8.312-9.614-12.569c-5.197-6.996-10.449-14.138-15.623-21.23
		c-2.403-3.238-4.925-6.47-7.36-9.864C0.689,46.402,0.015,45.599,0,45.267c-0.017-0.388,0.648-1.15,0.952-1.553
		c2.467-3.274,4.924-6.661,7.36-9.914c7.416-9.826,14.801-19.774,22.232-29.643C31.605,2.749,32.568,1.265,33.8,0
		c35.556,0.054,70.258,0.245,105.804,0.251c5,0,10.119-0.044,15.022,0.1c0.517,0.315,0.8,0.897,1.152,1.352
		c2.471,3.196,4.87,6.628,7.311,9.915c1.406,1.894,2.735,3.832,4.106,5.758c1.346,1.893,2.804,3.737,4.206,5.608
		c4.2,5.602,8.4,11.229,12.618,16.925c0.996,1.346,2.03,2.759,3.104,4.257c0.287,0.398,0.987,1.141,1.002,1.452
		c0.017,0.356-0.673,1.047-1.002,1.502c-2.39,3.313-4.941,6.647-7.311,9.864c-2.754,3.74-5.709,7.48-8.362,11.267
		c-2.008,2.865-4.169,5.628-6.309,8.412c-0.713,0.928-1.309,1.956-2.002,2.904c-2.759,3.776-5.649,7.452-8.513,11.116
		c-6.919,0.378-14.693-0.161-21.631,0.1c-3.581,0.136-7.132-0.143-10.616-0.05C118.839,90.827,115.359,90.524,111.913,90.782z
		 M73.908,3.556c-2.075,2.793-4.266,5.605-6.209,8.312c-7.791,10.856-15.986,21.072-23.785,31.896
		c-0.346,0.48-0.961,1.233-0.951,1.503c0.009,0.263,0.659,1.064,0.951,1.452c2.452,3.248,4.9,6.754,7.21,9.864
		c5.531,7.445,11.052,15.001,16.524,22.433c2.415,3.279,4.898,6.563,7.311,9.764c0.32,0.426,0.631,1.156,1.202,1.152
		c0.129-14.675,0.15-29.835,0.15-44.865c0-14.645,0.1-28.473,0.1-43.113c0-0.392,0.138-0.922-0.2-1.252
		C75.383,1.463,74.66,2.543,73.908,3.556z M112.014,0.901c-0.082,1.662-0.074,3.6-0.1,5.458c-0.026,1.844,0.05,3.7,0.05,5.458
		c0,26.039-0.26,52.357-0.1,78.264c0.337,0.149,0.503-0.266,0.651-0.45c1.256-1.568,2.482-3.271,3.655-4.857
		c4.287-5.46,8.224-11.271,12.418-16.824c5.114-7.026,10.425-13.904,15.523-21.03c0.317-0.443,0.971-1.083,0.951-1.503
		c-0.013-0.289-0.624-1.003-0.951-1.451c-1.063-1.454-2.069-2.88-3.055-4.207c-4.176-5.622-8.304-11.207-12.418-16.674
		c-2.807-3.73-5.31-7.419-8.112-11.267c-1.992-2.734-4.159-5.547-6.209-8.362c-0.544-0.747-1.536-2.258-2.204-2.704
		C112.051,0.771,112.011,0.816,112.014,0.901z"/>
</g>
<g id="Layer_1">
</g>
</svg>
