<?xml version="1.0" encoding="iso-8859-1"?>
<!-- Generator: Adobe Illustrator 19.2.0, SVG Export Plug-In . SVG Version: 6.00 Build 0)  -->
<svg version="1.1" xmlns="http://www.w3.org/2000/svg" xmlns:xlink="http://www.w3.org/1999/xlink" x="0px" y="0px"
	 viewBox="0 0 171.566 172.365" style="enable-background:new 0 0 171.566 172.365;" xml:space="preserve">
<g id="British_x5F_Organisation_x5F_for_x5F_the_x5F_Development_x5F_of_x5F_Exports">
	<path style="fill-rule:evenodd;clip-rule:evenodd;" d="M114.357,0.109c0.332,18.6,0.042,38.115,0.241,56.936
		c0.044,0.021,0.087,0.041,0.097,0.096c14.016,0.16,28.427,0,42.69,0c3.487,0,6.903-0.049,10.479-0.049
		c1.143,0,2.316-0.113,3.43,0.146c0.044,13.869,0.339,28.248,0.192,42.109c-0.034,3.269,0.092,7.062,0,10.334
		c-0.033,1.215,0.195,2.541,0,3.525c-0.11,0.559-1.163,1.453-1.69,1.98c-0.661,0.662-1.202,1.396-1.738,1.932
		c-3.677,3.678-7.38,7.527-10.865,11.154c-1.192,1.242-2.444,2.457-3.622,3.719c-2.354,2.525-4.782,4.975-7.195,7.486
		c-0.885,0.922-1.818,1.818-2.753,2.752c-0.27,0.27-0.531,0.793-1.014,0.725c-0.212-2.93-0.097-5.934-0.097-8.934
		c0-4.541-0.048-9.031-0.048-13.619c-0.001-0.771-0.014-1.525,0.048-2.27c0.028-0.344,0.153-0.697,0.145-1.014
		c-0.008-0.316-0.176-0.619-0.192-0.967c-0.106-2.18,0.143-4.357,0-6.471c-0.047-0.69-0.09-1.416,0.145-2.076
		c-0.285-1.592-0.193-3.324-0.193-5.07c0-3.477,0.035-7.102-0.048-10.576c-0.043-1.773,0.181-3.494-0.097-5.119
		c-1.102-0.23-2.243-0.145-3.381-0.145c-17.518-0.006-35.715,0.141-53.169,0.193c-0.23,18.338,0.099,37.443-0.048,55.777
		c-0.396,0.807-1.082,1.42-1.69,2.027c-0.611,0.611-1.249,1.197-1.835,1.836c-3.569,3.77-7.272,7.408-10.866,11.154
		c-4.479,4.633-8.983,9.371-13.569,13.957c-0.267,0.266-0.566,0.709-1.015,0.725c-0.329-18.658,0.065-37.857-0.289-56.164
		c-0.044-0.021-0.087-0.041-0.097-0.096c-18.223-0.109-37.817,0.266-56.308-0.098c-0.051-0.445,0.41-0.75,0.676-1.014
		c0.873-0.873,1.768-1.799,2.656-2.705c3.504-3.574,7.029-7.289,10.478-10.961c3.667-3.604,6.936-7.131,10.625-10.818
		c0.529-0.529,1.176-1.141,1.786-1.787c0.642-0.678,1.306-1.785,2.366-1.785c18.856-0.002,37.984-0.01,56.888-0.242
		c0.182-1.135,0.168-2.316,0.145-3.477c-0.141-6.988,0.087-14.137-0.048-21.441c-0.063-3.406-0.107-7.131-0.049-10.77
		c0.094-5.746-0.001-11.82,0-17.867c0.001-1.139,0.067-2.311-0.145-3.43c-1.115-0.195-2.294-0.096-3.429-0.096
		c-17.694,0-35.333,0.119-53.024,0.047c-0.252-0.445,0.467-0.668,0.628-1.014c7.907-8.352,15.906-16.609,23.76-25.016
		c1.242-1.154,2.222-2.574,3.622-3.572c6.539,0.031,13.158,0,19.992,0C89.458,0.058,101.541-0.102,114.357,0.109z"/>
</g>
<g id="Layer_1">
</g>
</svg>
