<?xml version="1.0" encoding="iso-8859-1"?>
<!-- Generator: Adobe Illustrator 19.2.0, SVG Export Plug-In . SVG Version: 6.00 Build 0)  -->
<svg version="1.1" xmlns="http://www.w3.org/2000/svg" xmlns:xlink="http://www.w3.org/1999/xlink" x="0px" y="0px"
	 viewBox="0 0 74.88 66.037" style="enable-background:new 0 0 74.88 66.037;" xml:space="preserve">
<g id="British_x5F_Tissues_x5F_76">
	<path style="fill-rule:evenodd;clip-rule:evenodd;" d="M4.943,0.17c0.144,7.506,0.051,15.025,0.051,22.942
		c-0.002,5.542,0,11.47,0,17.156c0,1.817,0.361,3.464,0.791,5.043c1.619,5.979,5.572,10.055,10.531,12.855
		c2.568,1.451,5.717,2.275,9.395,2.275c7.395,0,12.207-3.492,15.871-7.516c1.838-2.018,3.229-4.764,4.004-7.663
		c0.834-3.112,0.984-7.174,0.197-10.433c-0.713-2.961-2.17-5.775-3.758-7.911c-1.637-2.206-3.824-3.984-6.279-5.439
		c-2.486-1.476-5.531-2.518-8.949-2.719c-5.83-0.345-10.201,1.657-13.398,4.104c-0.858,0.656-1.654,1.209-2.422,1.978
		c-0.197,0.198-0.459,0.595-0.842,0.495C9.986,17.217,9.932,8.14,10.186,0.17c0.682-0.167,1.592-0.111,2.422-0.099
		c0.844,0.013,1.709-0.025,2.324,0.197c0.164,4.479,0.098,9.096,0.098,13.598c0.002,0.573-0.1,1.241,0.348,1.631
		c1.437-0.146,2.676-0.899,4.103-1.235c1.424-0.336,2.998-0.564,4.646-0.644c9.666-0.459,16.02,3.759,20.568,8.554
		c0.408,0.431,0.736,1.074,1.385,1.236c0.508-0.597,0.297-1.718,0.297-2.72c0-5.816,0.049-11.637,0.049-17.602
		c0-0.95-0.105-1.889,0.1-2.769c1.373-0.165,3.422-0.163,4.797,0c0.291,12.231,0.098,26.334,0.098,38.813
		c0,2.574,0.314,5.002,0.99,6.971c1.363,3.978,3.475,7.017,6.279,9.592c1.869,1.599,4.037,3.079,6.674,3.956
		c2.662,0.885,5.775,1.183,9.246,1.335c0.164,1.407,0.164,3.487,0,4.895c-3.281,0.448-6.357-0.144-8.998-0.791
		c-2.654-0.65-4.996-1.723-7.07-3.016c-0.932-0.58-1.863-1.447-2.818-2.226c-0.914-0.744-1.83-1.637-2.572-2.472
		c-1.115-1.259-2.229-2.723-3.213-4.351c-0.283-0.467-0.678-1.379-1.088-1.384c-0.549-0.007-1.41,1.932-1.682,2.373
		c-1.469,2.4-3.635,4.651-5.785,6.279c-3.012,2.279-6.721,4.124-11.123,4.944c-4.926,0.917-10.117,0.075-13.894-1.384
		c-0.984-0.382-1.877-0.838-2.77-1.286c-0.887-0.445-1.603-1.027-2.422-1.582c-1.629-1.105-3.062-2.275-4.303-3.708
		c-2.527-2.922-4.742-6.047-5.883-10.186C0.402,44.966,0,42.691,0,40.021C0,27.22,0.025,13.485,0.148,0.22
		C1.406-0.144,3.539,0.02,4.943,0.17z"/>
	<path style="fill-rule:evenodd;clip-rule:evenodd;" d="M61.309,0.417c0.197,3.356,0.051,6.602,0.051,10.186
		c0,1.126-0.117,2.266,0.148,3.312c4.195,0.33,9.156-0.047,13.201,0.297c0.164,1.383,0.16,3.411,0,4.796
		c-5.771,0.101-12.352,0.112-18.246-0.049c-0.232-1.443-0.168-2.994-0.098-4.549c0.068-1.507,0-3.086,0-4.599
		c0-2.42,0-4.822,0-7.269c0-0.74-0.119-1.53,0.148-2.225C57.834,0.241,59.988,0.166,61.309,0.417z"/>
	<path style="fill-rule:evenodd;clip-rule:evenodd;" d="M15.08,51.492c-2.607-2.467-4.832-5.932-5.242-10.68
		c-0.443-5.15,1.629-9.004,3.957-11.817c2.639-2.934,5.752-4.794,10.68-5.39c3.264-0.394,6.166,0.729,8.207,1.731
		c2.283,1.12,4.039,2.616,5.488,4.449c1.385,1.752,2.555,4.255,3.064,6.873c0.568,2.906,0.084,6.161-0.84,8.702
		c-1.695,4.66-5.453,8.171-10.283,9.592c-2.582,0.759-5.813,0.864-8.654,0.099C18.865,54.353,16.912,53.14,15.08,51.492z
		 M21.014,29.836c-0.996,0.5-1.928,0.974-2.621,1.632c-0.461,0.437-0.828,1.02-1.236,1.532c-1.203,1.509-2.176,3.709-2.274,6.181
		c-0.07,1.755,0.344,3.443,0.988,4.846c1.236,2.695,2.965,4.492,5.736,5.686c4.215,1.816,9.08,0.198,11.52-2.323
		c1.625-1.682,3.006-3.869,3.213-6.774c0.184-2.556-0.414-4.602-1.385-6.279c-0.959-1.657-2.273-3.045-3.707-3.955
		c-1.652-1.048-3.98-1.706-6.824-1.483C23.154,28.996,21.941,29.369,21.014,29.836z"/>
	<path style="fill-rule:evenodd;clip-rule:evenodd;" d="M74.758,24.496c0.162,1.412,0.164,3.483,0,4.895
		c-4.205,0.215-9.002-0.093-13.35,0.1c-0.252,1.014-0.146,2.137-0.197,3.263c-0.053,1.132,0,2.31,0,3.461
		c0,2.289-0.062,4.611,0.443,6.428c1.086,3.895,4.041,6.979,8.209,7.812c0.725,0.145,1.471,0.353,2.273,0.396
		c0.791,0.042,1.654-0.148,2.521,0.148c0.088,1.357,0.121,3.47-0.049,4.895c-6.346,0.529-10.725-1.678-13.844-4.796
		c-1.707-1.706-2.676-3.456-3.512-5.982c-0.27-0.82-0.561-1.618-0.691-2.473c-0.281-1.854-0.197-3.788-0.197-6.032
		c0-2.951-0.049-6.072-0.051-9.295c0-1.006-0.115-2.054,0.148-3.016c5.062-0.056,10.98,0.048,16.168,0.049
		C73.35,24.348,74.098,24.239,74.758,24.496z"/>
</g>
<g id="Layer_1">
</g>
</svg>
