<?xml version="1.0" encoding="iso-8859-1"?>
<!-- Generator: Adobe Illustrator 19.2.0, SVG Export Plug-In . SVG Version: 6.00 Build 0)  -->
<svg version="1.1" xmlns="http://www.w3.org/2000/svg" xmlns:xlink="http://www.w3.org/1999/xlink" x="0px" y="0px"
	 viewBox="0 0 78.636 78.319" style="enable-background:new 0 0 78.636 78.319;" xml:space="preserve">
<g id="Brno_x5F_Balance">
	<path style="fill-rule:evenodd;clip-rule:evenodd;" d="M38.498,13.366c0.265-2.005,0.148-4.327,0.148-6.594
		c-0.001-2.251,0.036-4.555-0.05-6.544c6.844-0.213,14.18,0,21.504,0c1.059,0,2.117-0.117,3.051,0.049
		C63.595,0.356,64,0.688,64.53,0.867c1.427,0.483,3.01,1.034,4.183,1.624c1.754,0.882,3.176,2.038,4.429,3.346
		c1.907,1.99,3.421,4.188,4.429,7.233c0.158,0.476,0.332,0.997,0.492,1.476c0.178,0.533,0.426,0.941,0.492,1.427
		c0.129,0.956,0.049,2.086,0.049,3.149c0,1.012,0.098,2.205-0.099,3.1c-0.099,0.453-0.394,0.938-0.541,1.427
		c-2.234,7.442-7.306,12.118-15.255,13.877c2.14,0.725,4.127,1.294,5.856,2.312c4.213,2.481,7.294,6.322,8.955,11.465
		c0.165,0.509,0.289,1.038,0.443,1.575c0.173,0.601,0.5,1.077,0.591,1.722c0.149,1.066,0.049,2.273,0.049,3.543
		c0,1.226,0.097,2.56-0.099,3.494c-0.099,0.477-0.399,0.951-0.541,1.477c-0.988,3.659-2.594,6.562-4.772,9.054
		c-2.109,2.412-4.977,4.226-8.514,5.363c-0.235,0.076-0.528,0.124-0.738,0.246c-0.297,0.174-0.331,0.405-0.738,0.443
		c-1.984,0.187-4.109,0.049-6.249,0.049c-6.098-0.001-12.586-0.053-18.403-0.197c0.174-4.532,0.123-9.747,0-14.271
		c-0.41,0.285-0.45,0.831-0.591,1.23c-1.65,4.688-4.693,8.537-8.808,10.875c-1.098,0.623-2.43,1.112-3.789,1.575
		c-0.62,0.21-1.007,0.572-1.723,0.64c-1.867,0.175-3.881-0.028-5.855-0.049c-5.909-0.063-12.119,0.134-17.665-0.147
		c-0.18-24.138-0.101-48.89-0.099-73.271c0-0.815-0.017-1.659,0-2.46C0.033,1.472-0.054,0.697,0.265,0.03
		C5.858-0.061,12.36,0.084,18.078,0.08c1.849-0.001,3.775-0.177,5.659,0.049c0.681,0.082,1.043,0.391,1.673,0.59
		c5.729,1.819,9.677,5.092,12.056,10.285C37.817,11.77,37.997,12.629,38.498,13.366z M38.647,37.921
		c-0.158-4.579,0.225-9.269-0.148-13.582c-0.003-0.03-0.007-0.058-0.049-0.049c-0.071,0.027-0.12,0.077-0.147,0.147
		c-1.153,3.488-3.038,6.246-5.462,8.463c-2.1,1.881-4.826,3.405-8.021,4.133c-0.439,0.101-1.002,0.033-1.377,0.394
		c7.388,1.755,12.137,6.378,14.467,13.089c0.146,0.424,0.258,0.923,0.59,1.279C38.634,47.304,38.807,42.562,38.647,37.921z"/>
</g>
<g id="Layer_1">
</g>
</svg>
