<?xml version="1.0" encoding="iso-8859-1"?>
<!-- Generator: Adobe Illustrator 19.2.0, SVG Export Plug-In . SVG Version: 6.00 Build 0)  -->
<svg version="1.1" xmlns="http://www.w3.org/2000/svg" xmlns:xlink="http://www.w3.org/1999/xlink" x="0px" y="0px"
	 viewBox="0 0 71.528 66.235" style="enable-background:new 0 0 71.528 66.235;" xml:space="preserve">
<g id="brode_x5F_soyland">
	<path style="fill-rule:evenodd;clip-rule:evenodd;" d="M41.934,15.116c-0.268,0.917-0.149,1.959-0.149,2.983
		c0,2.872-0.093,6.045,0.1,9.048c0.904-0.14,1.723-0.587,2.635-0.895c2.652-0.893,5.854-1.409,9.445-0.994
		c4.089,0.473,7.513,2.392,9.992,4.375c3.783,3.227,6.627,7.174,7.407,13.223c0.828,6.416-1.601,11.978-4.623,15.61
		c-3.138,3.771-7.463,6.473-13.323,7.308c-6.749,0.961-11.906-1.949-15.46-4.822c-0.336-0.24-0.596-0.503-0.944-0.845
		c-0.251-0.246-0.646-0.789-0.995-0.795c-0.244-0.005-0.794,0.522-1.044,0.795c-2.002,2.187-4.69,3.832-7.706,4.921
		c-3.286,1.187-8.465,1.755-12.428,0.497C7.549,63.21,2.812,58.404,0.672,50.86c-1.206-4.252-0.678-9.016,0.696-12.478
		c1.401-3.53,3.369-6.143,6.016-8.402c2.463-2.103,5.834-3.937,9.893-4.524c3.445-0.498,6.74-0.106,9.545,0.795
		c0.883,0.284,1.737,0.671,2.685,0.895c0.325-0.872,0.119-1.908,0.149-2.933c0.084-2.895,0.018-6.366-0.099-9.296
		c-0.815-0.016-1.511,0.518-2.188,0.845c-0.703,0.34-1.406,0.651-2.088,0.995c-1.374,0.691-2.714,1.435-4.176,1.988
		c-0.593-0.612-0.945-1.447-1.342-2.237c-0.989-1.967-1.984-3.859-3.033-5.915c-0.187-0.366-0.545-0.94-0.497-1.243
		c0.081-0.508,1.622-1.007,2.237-1.293c2.378-1.107,4.726-2.324,7.009-3.43c3.143-1.522,6.454-3.151,9.346-4.573
		c0.131-0.052,0.305-0.06,0.497-0.05c1.722,0.66,3.335,1.447,4.921,2.237c3.189,1.589,6.233,3.122,9.545,4.772
		c0.718,0.358,1.492,0.797,2.386,1.193c0.57,0.252,2.182,0.843,2.287,1.293c0.077,0.327-0.328,0.926-0.497,1.292
		c-0.965,2.095-1.842,3.671-2.983,5.717c-0.306,0.549-0.761,2.073-1.292,2.188c-0.543,0.117-1.572-0.632-1.989-0.845
		c-1.333-0.681-2.537-1.193-3.778-1.889C43.351,15.641,42.747,15.269,41.934,15.116z M43.823,39.575
		c-1.05,1.389-2.156,3.816-2.039,6.313c0.106,2.266,1.142,4.528,2.436,5.916c1.342,1.438,3.027,2.606,5.419,2.983
		c4.214,0.663,7.41-1.457,9.247-4.027c0.88-1.231,1.649-2.825,1.79-4.971c0.135-2.061-0.41-3.929-1.342-5.418
		c-1.537-2.455-4.459-4.753-8.799-4.424C47.335,36.212,45.251,37.686,43.823,39.575z M15.437,37.487
		c-0.723,0.419-1.502,1.151-2.038,1.74c-1.35,1.482-2.55,3.814-2.536,6.562c0.016,2.944,1.427,5.155,2.933,6.662
		c0.528,0.528,1.144,1.134,1.74,1.492c2.634,1.583,6.361,1.532,8.799,0.398c2.318-1.078,4.366-3.192,5.17-5.717
		c0.968-3.038,0.173-6.526-1.342-8.551c-1.659-2.215-4.588-4.121-8.55-3.828C17.959,36.366,16.517,36.861,15.437,37.487z"/>
</g>
<g id="Layer_1">
</g>
</svg>
