<?xml version="1.0" encoding="iso-8859-1"?>
<!-- Generator: Adobe Illustrator 19.2.0, SVG Export Plug-In . SVG Version: 6.00 Build 0)  -->
<svg version="1.1" xmlns="http://www.w3.org/2000/svg" xmlns:xlink="http://www.w3.org/1999/xlink" x="0px" y="0px"
	 viewBox="0 0 74.975 68.321" style="enable-background:new 0 0 74.975 68.321;" xml:space="preserve">
<g id="Broome_x5F_County">
	<path style="fill-rule:evenodd;clip-rule:evenodd;" d="M62.138,48.053c0.133,0.904,0.453,1.713,0.682,2.576
		c0.231,0.879,0.438,1.756,0.438,2.869c0,4.373-1.229,7.453-3.404,9.918c-2.153,2.439-4.583,4.154-8.557,4.717
		c-5.402,0.764-9.562-1.434-12.204-4.133c-0.289-0.295-1.149-1.682-1.604-1.701c-0.56-0.025-1.098,1.061-1.41,1.408
		c-1.999,2.23-4.753,3.828-8.217,4.426c-3.907,0.674-7.533-0.547-10.016-2.236c-3.573-2.434-6.425-6.535-6.175-12.787
		c0.078-1.979,0.731-3.334,1.215-5.057c-0.302-0.428-0.859-0.346-1.264-0.438c-3.148-0.727-5.758-2.102-7.73-4.133
		C1.732,41.26,0.001,38.113,0,33.856c0-6.207,3.475-10.453,7.731-12.594c0.796-0.4,1.652-0.586,2.528-0.875
		c0.851-0.281,1.733-0.412,2.625-0.728c0.059-0.842-0.353-1.561-0.534-2.287c-0.634-2.533-0.536-5.279,0.292-7.777
		c0.702-2.123,1.895-4.176,3.451-5.592c0.543-0.494,1.063-1.029,1.605-1.41c1.501-1.057,3.434-1.875,5.349-2.285
		c5.154-1.105,9.729,0.955,12.302,3.353c0.335,0.315,0.82,0.66,1.215,1.119c0.281,0.326,0.717,1.152,1.118,1.168
		c0.493,0.018,1.246-1.133,1.702-1.605c2.543-2.641,6.628-4.859,11.96-4.133c1.887,0.256,3.519,0.889,4.911,1.605
		c2.596,1.332,5.027,4.109,6.127,7c0.931,2.451,1.28,5.598,0.583,8.461c-0.202,0.83-0.601,1.588-0.681,2.479
		c0.286,0.449,0.854,0.355,1.265,0.439c3.281,0.664,5.568,2.164,7.584,4.18c2.168,2.17,3.904,5.475,3.841,9.627
		c-0.063,4.225-1.738,7.312-3.89,9.578c-1.902,2.006-4.369,3.49-7.633,4.133C63.037,47.793,62.508,47.723,62.138,48.053z
		 M46.239,5.314c-2.649,0.994-4.746,3.082-5.64,5.834c-0.756,2.326-0.263,5.037,0.632,6.856c0.636,1.293,1.601,2.715,2.382,4.084
		c0.354,0.621,0.775,1.234,1.216,1.994c0.283,0.488,0.79,1.83,1.361,1.896c0.398,0.047,0.934-0.406,1.361-0.633
		c1.317-0.699,2.787-1.502,3.89-2.139c1.756-1.016,3.546-1.684,4.959-3.111c1.479-1.496,2.629-3.963,2.432-6.856
		c-0.174-2.553-1.424-4.557-3.063-6.078C53.877,5.098,49.597,4.055,46.239,5.314z M24.019,23.354
		c1.213,0.678,2.358,1.367,3.646,2.09c0.455,0.256,0.99,0.619,1.41,0.535c0.264-0.055,0.711-0.725,0.973-1.168
		c0.851-1.445,1.611-2.869,2.382-4.133c1.142-1.869,2.499-3.627,2.675-6.027c0.151-2.082-0.248-3.416-0.925-4.814
		c-1.446-2.988-4.466-5.365-8.946-5.057c-2.471,0.17-4.998,1.41-6.271,2.965c-0.533,0.652-1.024,1.578-1.459,2.481
		c-0.463,0.963-0.759,2.047-0.826,3.16c-0.205,3.369,1.227,4.977,2.625,7.002C20.771,21.537,22.288,22.385,24.019,23.354z
		 M46.871,37.695c-2.716-4.539-5.199-9.203-7.925-13.76c-0.338-0.564-0.97-2.06-1.557-2.09c-0.087-0.006-0.168,0.041-0.194,0.098
		c-0.483,0.539-0.979,1.412-1.409,2.188c-0.897,1.615-1.794,2.971-2.626,4.521c-1.664,3.102-3.551,6.055-5.251,9.043
		c-0.437,0.768-1.066,1.475-1.216,2.383c0.807,0.264,1.701,0.147,2.577,0.147c4.536,0,9.143,0,13.613,0
		c1.888,0,3.666,0.121,5.154-0.195C47.969,39.135,47.318,38.443,46.871,37.695z M10.357,25.248c-1.11,0.492-2.185,1.285-2.967,2.092
		c-1.525,1.572-2.864,3.961-2.625,7.244c0.178,2.435,1.393,4.42,2.917,5.883c1.502,1.441,3.794,2.486,6.321,2.48
		c2.353-0.006,4.234-0.834,5.64-1.896c1.206-0.912,1.937-1.943,2.771-3.258c0.458-0.721,0.882-1.565,1.361-2.383
		c0.655-1.119,1.405-2.32,2.091-3.549c0.188-0.338,0.68-0.861,0.632-1.264c-0.038-0.316-0.522-0.561-1.021-0.826
		c-2.178-1.162-3.918-2.346-5.932-3.502c-1.749-1.004-3.431-1.885-6.078-1.701C12.146,24.66,11.213,24.869,10.357,25.248z
		 M58.93,42.801c2.242,0.631,4.52,0.205,6.271-0.68c2.591-1.311,4.454-3.746,4.911-6.809c0.515-3.447-0.916-6.516-3.063-8.41
		c-1.509-1.332-3.843-2.463-6.904-2.236c-2.478,0.182-4.266,1.598-6.028,2.576c-1.167,0.646-2.347,1.225-3.356,1.896
		c-0.392,0.137-0.701,0.396-1.118,0.633c-0.314,0.178-0.926,0.424-0.973,0.826c-0.036,0.307,0.377,0.91,0.584,1.264
		c1.594,2.727,3.263,5.891,5.008,8.119C55.541,41.471,56.981,42.252,58.93,42.801z M40.064,48.004c0,3.162-0.401,6.965,0.486,9.383
		c1.077,2.938,3.634,5.293,6.952,5.932c2.118,0.408,4.334,0.02,5.884-0.68c3.489-1.574,6.167-5.908,5.106-10.6
		c-0.902-3.986-4.177-6.896-8.703-7.148c-1.54-0.084-2.75,0-4.328,0c-1.623,0.002-3.578,0.021-5.202,0.146
		C39.958,45.959,40.064,47.008,40.064,48.004z M32.576,44.939c-0.762,0-1.523,0-2.285,0c-2.705,0-5.587-0.289-7.584,0.389
		c-1.455,0.496-2.429,1.371-3.502,2.141c-1.476,1.791-3.02,4.238-2.771,7.439c0.13,1.668,0.894,3.477,1.653,4.57
		c1.178,1.693,2.588,2.889,4.716,3.598c3.079,1.025,6.496,0.047,8.411-1.41c1.828-1.391,3.243-3.494,3.599-6.225
		c0.208-1.594,0.049-3.441,0.049-5.25c0-1.828,0.066-3.6-0.147-5.105C34.071,44.83,33.296,44.939,32.576,44.939z"/>
</g>
<g id="Layer_1">
</g>
</svg>
