<?xml version="1.0" encoding="iso-8859-1"?>
<!-- Generator: Adobe Illustrator 19.2.0, SVG Export Plug-In . SVG Version: 6.00 Build 0)  -->
<svg version="1.1" xmlns="http://www.w3.org/2000/svg" xmlns:xlink="http://www.w3.org/1999/xlink" x="0px" y="0px"
	 viewBox="0 0 79.025 79.412" style="enable-background:new 0 0 79.025 79.412;" xml:space="preserve">
<g id="brookvent">
	<path style="fill-rule:evenodd;clip-rule:evenodd;" d="M44.053,8.836c1.428,0.092,2.82-0.097,4.175-0.097
		c4.378,0,7.956,0.87,11.064,2.184c8.412,3.556,14.158,9.254,17.52,17.908c0.825,2.125,1.542,4.465,1.844,7.037
		c0.152,1.297,0.213,2.644,0.291,4.028c0.077,1.363,0.162,2.791-0.097,4.222c-2.025,0.181-4.287,0.146-6.601,0.146
		c-0.726,0-1.464-0.113-2.087,0.146c0.199,2.904,0.272,5.634-0.048,8.25c-0.644,5.258-2.429,9.147-4.757,12.813
		c-2.346,3.694-5.161,6.317-8.784,8.784c-5.146,3.504-11.986,5.788-21.014,4.999c-0.215-0.613-0.185-1.358-0.194-2.087
		c-0.01-0.705,0-1.449,0-2.184c0-1.489,0.116-3.066-0.146-4.368c-1.408-0.122-2.776,0.146-4.125,0.146
		c-4.316,0-8.05-0.833-11.211-2.038c-2.146-0.819-4.102-1.777-5.824-3.058c-1.717-1.276-3.369-2.554-4.854-3.979
		C6.301,58.894,3.885,55.18,2.17,51.01c-1.74-4.232-2.499-9.532-2.037-15.384c0.612-0.252,1.366-0.146,2.086-0.146
		c2.113,0,4.6,0.079,6.601-0.097c0.218-0.581,0.075-1.235,0.049-1.844c-0.085-1.922-0.158-4.014,0.048-5.921
		c0.799-7.385,4.01-12.89,7.717-17.326C21.844,4.543,29.305,0.294,39.88,0.003c0.672-0.018,1.324,0.051,2.038,0.146
		c0.611,0.081,1.524,0.037,1.796,0.388c0.252,0.326,0.146,1.342,0.146,2.038c0,0.725,0,1.495,0,2.135
		C43.859,6.231,43.72,7.692,44.053,8.836z M28.863,15.582c1.369-1.122,3.053-2.1,4.756-3.106c0.509-0.301,1.48-0.665,1.65-1.02
		c0.156-0.328,0.326-2.333-0.292-2.427c-0.18-0.027-0.241,0.028-0.34,0.049c-4.378,0.946-8.011,3.26-10.822,5.872
		c-2.872,2.668-5.024,6.24-6.163,10.58c-0.578,2.2-0.678,4.695-0.777,7.571c-0.039,1.166-0.041,2.364,0.389,2.427
		c0.781,0.114,0.625-1.467,0.68-1.941c0.108-0.93,0.279-1.672,0.438-2.184c1.284-4.191,2.936-7.565,5.24-10.532
		C25.165,18.87,26.704,17.352,28.863,15.582z M68.805,31.355c-1.479-3.612-3.677-6.603-6.504-8.93
		c-3.765-3.1-8.554-5.467-15.384-5.144c-0.585,0.028-2.891-0.196-2.864,0.485c0.023,0.581,2.127,0.615,2.573,0.68
		c3.967,0.577,6.831,2.249,9.415,3.979c2.136,1.43,4.002,2.961,5.727,4.756c1.159,1.206,2.114,2.536,3.105,3.882
		c1.001,1.359,1.639,2.96,2.67,4.368c0.654,0.041,1.776,0.171,2.281-0.097C69.857,33.831,69.292,32.544,68.805,31.355z
		 M35.026,21.502c-1.065,0.726-2.216,1.701-3.203,2.718c-1.913,1.971-3.333,4.24-4.465,6.892c-0.569,1.333-1.155,2.78-1.262,4.319
		c0.438,0.25,0.986,0.146,1.504,0.146c0.519,0,1.067,0.013,1.602,0c2.051-0.049,4.203,0.182,5.969-0.146
		c0.315-0.391,0.145-0.964,0.146-1.456c0.009-3.408-0.09-7.413,0.049-10.871c0.021-0.515,0.178-1.243-0.291-1.602
		C35.059,21.502,35.043,21.502,35.026,21.502z M44.15,26.793c-0.237,0.242-0.146,1.519-0.146,2.135c0,2.281-0.096,4.775,0.097,6.503
		c1.99,0.304,4.304,0.097,6.552,0.097c1.712,0,3.45,0,5.097,0c0.503,0,1.101,0.131,1.504-0.194c0.008-0.42-0.335-0.799-0.582-1.116
		c-1.875-2.404-4.028-4.271-6.94-5.679c-1.413-0.683-3.663-1.688-5.436-1.844C44.238,26.719,44.186,26.748,44.15,26.793z
		 M33.667,61.541c-0.58-0.095-1.146-0.245-1.698-0.389c-7.67-1.988-13.237-6.328-17.423-11.793c-0.568-1.09-1.573-2.528-2.232-3.786
		c-0.191-0.366-0.439-1.083-0.776-1.262c-0.476-0.252-1.8-0.045-2.33-0.048c-0.492,0.459-0.082,1.128,0.049,1.602
		c0.962,3.493,2.514,6.096,4.514,8.444c0.348,0.409,0.598,0.899,0.922,1.262c0.794,0.887,1.928,1.724,3.01,2.524
		c1.067,0.79,2.266,1.52,3.494,2.086c3.463,1.6,7.049,2.144,11.695,2.33c0.864,0.034,2.219,0.24,2.379-0.485
		C34.924,61.456,34.164,61.622,33.667,61.541z M21.535,44.41c0.105,0.832,0.693,1.182,1.115,1.698
		c2.62,2.945,6.086,5.622,10.532,6.698c0.626,0.151,1.314,0.413,1.989,0.291c0.333-0.546,0.194-1.318,0.194-2.038
		c0-0.74,0-1.528,0-2.281c0-1.538,0.147-3.174-0.194-4.368C30.814,44.287,25.745,44.18,21.535,44.41z M48.664,44.264
		c-1.463,0-3.192-0.023-4.368,0.048c-0.431,0.294-0.291,0.931-0.291,1.408c0,3.485,0,7.085,0,10.482c0,0.527-0.14,1.137,0.194,1.553
		c0.639-0.072,1.133-0.616,1.602-1.019c2.974-2.56,5.235-5.9,6.454-10.143c0.196-0.682,0.579-1.424,0.389-2.184
		C51.496,44.148,50.087,44.264,48.664,44.264z M48.421,69.209c3.964-1.71,6.784-4.179,9.271-7.522
		c2.406-3.237,3.893-7.081,4.27-12.473c0.039-0.548,0.145-1.657,0.146-2.669c0.001-0.873,0.112-2.644-0.777-2.232
		c-0.308,0.666-0.314,1.413-0.436,2.087c-0.903,4.993-3.154,8.926-5.63,12.327c-2.163,2.953-4.908,5.406-8.007,7.376
		c-1.051,0.669-2.229,1.137-3.204,1.941c-0.039,0.694-0.169,1.835,0.098,2.378C45.764,70.321,47.162,69.753,48.421,69.209z"/>
</g>
<g id="Layer_1">
</g>
</svg>
