<?xml version="1.0" encoding="iso-8859-1"?>
<!-- Generator: Adobe Illustrator 21.0.2, SVG Export Plug-In . SVG Version: 6.00 Build 0)  -->
<svg version="1.1" xmlns="http://www.w3.org/2000/svg" xmlns:xlink="http://www.w3.org/1999/xlink" x="0px" y="0px"
	 viewBox="0 0 33.641 33.618" style="enable-background:new 0 0 33.641 33.618;" xml:space="preserve">
<g id="Brother_x5F_Film_x5F_Co">
	<path d="M16.917,0c4.105,4.169,8.353,8.196,12.409,12.413c1.394,1.484,2.937,2.823,4.314,4.324
		c-2.58,2.665-5.146,5.348-7.753,7.988c1.837-3.185,1.333-7.542-1.326-10.118c-1.083-1.029-2.452-1.771-3.896-2.154
		c1.711-1.01,2.52-3.291,1.725-5.131c-0.584-1.444-2.037-2.482-3.594-2.564c-2.198-0.061-4.395,0.054-6.593,0.018
		C13.795,3.202,15.325,1.57,16.917,0z"/>
	<path d="M0,16.874c3.762-3.767,7.558-7.505,11.331-11.266c1.641,0.074,3.065,1.512,3.055,3.166c0.107,1.77-1.447,3.393-3.223,3.361
		c-0.049,0.291-0.037,0.588-0.038,0.883c3.152,0.001,6.248,2.016,7.189,5.084c0.856,2.455,0.332,5.343-1.36,7.322
		c-1.348,1.625-3.407,2.64-5.521,2.697C7.586,24.41,3.774,20.656,0,16.874z"/>
	<path d="M17.23,28.927c1.942,0.098,3.947-0.16,5.644-1.17c-1.947,1.964-3.946,3.871-5.869,5.861
		c-1.577-1.556-3.121-3.146-4.726-4.671C13.93,28.932,15.58,28.937,17.23,28.927z"/>
</g>
<g id="Layer_1">
</g>
</svg>
