<?xml version="1.0" encoding="iso-8859-1"?>
<!-- Generator: Adobe Illustrator 19.2.0, SVG Export Plug-In . SVG Version: 6.00 Build 0)  -->
<svg version="1.1" xmlns="http://www.w3.org/2000/svg" xmlns:xlink="http://www.w3.org/1999/xlink" x="0px" y="0px"
	 viewBox="0 0 74.505 73.713" style="enable-background:new 0 0 74.505 73.713;" xml:space="preserve">
<g id="Brown_x5F_and_x5F_Company">
	<path style="fill-rule:evenodd;clip-rule:evenodd;" d="M30.372,17.822c0.741,0.4,1.646,0.265,2.452,0.25
		c11.826-0.214,24.678-0.001,37.127,0c0.84,0,1.701-0.113,2.502,0.15c0.328,0.486,0.2,1.344,0.2,2.151
		c0,0.781,0.085,1.624-0.15,2.152c-0.792,0.417-1.772,0.25-2.701,0.25c-5.697,0-11.465,0-17.314,0c-0.901,0-1.885-0.152-2.702,0.2
		c0.301,1.404,1.759,1.201,3.703,1.201c4.638,0.001,9.199,0.169,13.811,0c0.614-0.022,1.629,0.045,2.602,0
		c0.634-0.029,2.262-0.051,2.552,0.2c0.39,0.337,0.212,1.498,0.2,2.102c-0.015,0.779,0.111,1.676-0.15,2.202
		c-1.164,0.395-2.627,0.15-4.103,0.2c-3.369,0.114-7.029,0-10.608,0c-0.628,0-1.35-0.129-1.801,0.3
		c-0.035,0.487,0.406,0.807,0.7,1.101c4.423,4.422,8.978,8.915,13.26,13.56c0.77,0.815,1.673,1.497,2.353,2.402
		c0.764,0.82,1.769,1.4,2.201,2.552c-0.12,0.718-0.672,1.121-1.201,1.651c-0.384,0.384-1.015,1.227-1.602,1.251
		c-0.72,0.03-1.725-1.342-2.251-1.851c-3.448-3.335-6.45-6.83-10.058-10.208c-0.994-0.931-1.941-1.931-3.052-3.052
		c-0.349-0.352-0.772-0.921-1.151-0.851c-0.393,0.073-0.46,0.855-0.351,1.351c0.199,0.897,1.038,1.428,1.752,2.202
		c0.645,0.699,1.389,1.352,1.951,1.952c1.778,1.848,3.736,3.634,5.805,5.904c0.867,0.952,1.833,1.965,2.902,2.952
		c0.462,0.426,0.849,1.028,1.4,1.551c0.492,0.467,1.295,1.038,1.301,1.651c0.006,0.579-0.755,1.239-1.15,1.601
		c-0.536,0.491-0.911,0.964-1.602,1.151c-1.173-0.45-1.899-1.554-2.752-2.402c-2.541-2.528-5.087-5.096-7.655-7.655
		c-0.598-0.161-0.902-1.427-1.651-1.251c-0.542,0.127-0.351,2.469-0.351,3.202c0.002,7.178-0.051,14.257-0.05,21.066
		c0,0.978,0.2,3-0.25,3.352c-0.355,0.278-1.428,0.15-2.202,0.15c-0.82,0-1.73,0.165-2.051-0.251c-0.354-0.457-0.15-1.808-0.15-2.952
		c-0.001-5.001,0.054-9.816,0-14.961c-0.011-0.987-0.074-2.013-0.05-3.002c0.021-0.887,0.224-1.95-0.351-2.602
		c-0.562,0.005-0.697,0.437-1.001,0.7c-0.142,6.577-0.131,14.615-0.149,21.066c-0.002,0.626,0.198,1.403-0.2,1.851
		c-0.528,0.251-1.413,0.15-2.252,0.15c-0.607,0-1.812,0.155-2.202-0.15c-0.396-0.309-0.261-1.225-0.25-1.951
		c0.059-3.841,0-7.476,0-11.208c0-1.493,0.031-3.096-0.149-4.253c-0.669-0.075-0.935,0.66-1.451,0.9
		c-4.496,4.486-8.922,8.971-13.51,13.56c-0.678,0.678-1.42,1.371-2.252,2.251c-0.314,0.333-0.708,0.692-1.151,1.101
		c-0.397,0.367-0.872,0.951-1.301,0.951c-0.567,0-1.133-0.751-1.551-1.201c-0.383-0.412-1.136-1.004-1.151-1.551
		c-0.017-0.644,1.064-1.514,1.552-2.002c0.286-0.286,0.602-0.574,0.9-0.901c0.289-0.315,0.485-0.731,0.75-1.001
		c3.535-3.586,7.385-7.077,10.658-10.658c0.419-0.25,0.673-0.57,1.051-1.001c0.238-0.271,0.92-0.707,0.801-1.201
		c-0.129-0.537-1.101-0.348-1.551-0.15c-0.542,0.238-0.758,0.654-1.151,0.901c-0.693,0.69-1.333,1.434-2.052,2.101
		c-2.665,2.838-5.632,5.376-8.206,8.306c-1.038,0.975-2.045,1.964-3.102,3.102c-0.329,0.354-0.716,0.84-1.201,0.851
		c-0.71,0.016-1.315-0.864-1.651-1.201c-0.371-0.371-1.183-1.064-1.201-1.651c-0.018-0.576,0.847-1.356,1.201-1.751
		c1.376-1.533,3.153-2.891,4.453-4.403c1.458-1.453,2.763-2.994,4.354-4.503c0.345-0.327,1.409-1.176,1.251-1.601
		c-0.184-0.495-2.158-0.3-3.103-0.3c-6.74,0-13.064,0-19.914,0c-1.121,0-2.266,0.11-3.203-0.15c-0.353-0.468-0.29-1.345-0.25-2.202
		c0.028-0.593-0.193-1.905,0.25-2.302c0.37-0.331,1.947-0.2,2.752-0.2c5.994,0,11.182,0,17.313,0c0.962,0,1.951,0.147,2.702-0.2
		c-0.066-0.667-0.588-0.88-0.951-1.251c-6.257,0.029-12.714,0-19.314,0c-0.894,0-2.215,0.169-2.552-0.15
		c-0.407-0.386-0.2-1.521-0.2-2.301c0-0.843-0.172-1.841,0.2-2.202c0.47-0.455,3.254-0.2,4.153-0.2c3.641,0,7.166,0.073,10.708-0.05
		c0.698-0.024,1.43,0.154,1.951-0.201c-0.339-1.191-1.491-1.676-2.102-2.652c-0.858-0.709-1.605-1.531-2.352-2.352
		c-3.886-4.018-8.382-8.231-12.51-12.359C1.166,24.743,0.007,23.794,0,23.176c-0.006-0.605,0.768-1.168,1.151-1.551
		c0.485-0.485,0.766-1.073,1.5-1.201c1.14,0.212,1.477,1.226,2.252,1.801c2.062,1.94,4.026,3.979,6.055,5.954
		c1.759,1.598,3.31,3.371,5.054,5.004c0.689,0.645,1.285,1.325,2.002,2.001c0.326,0.31,0.606,0.85,1.15,0.851
		c0.833-1.709-0.735-2.737-1.651-3.653c-3.825-3.824-7.6-7.599-11.508-11.508c-0.538-0.538-1.688-1.435-1.701-2.102
		c-0.015-0.65,0.813-1.265,1.2-1.651c0.52-0.521,0.873-1.032,1.602-1.201c0.753,0.114,1.172,0.823,1.651,1.301
		c2.39,2.39,4.822,4.937,7.356,7.255c1.008,0.923,1.794,2.15,3.052,2.802c0.44-0.34,0.265-0.976,0.25-1.451
		c-0.119-3.829,0.05-7.722,0.051-11.759c0-3.383-0.139-7.06,0-10.507c0.044-1.099-0.202-2.961,0.3-3.403
		c0.558-0.169,1.287-0.1,2.151-0.1c0.734,0,1.723-0.111,2.002,0.2c0.255,0.284,0.177,1.682,0.149,2.402
		c-0.101,2.693,0.067,5.162,0,7.556c-0.096,3.434,0.001,6.838,0,10.207c0,7.003,0.01,13.977,0,20.765
		c1.044,1.673,2.36,2.761,3.753,4.153c0.595,0.594,1.252,1.303,1.952,2.002c0.593,0.593,1.325,1.645,2.101,1.851
		c0.684,0.182,1.665,0,2.552,0c1.886,0,3.074,0,5.005,0c0.919,0,1.933,0.113,2.602-0.05c0.807-0.198,1.725-1.375,2.201-1.852
		c1.461-1.46,2.512-2.512,4.003-4.003c0.588-0.587,1.562-1.28,1.802-2.202c0.185-0.711,0.05-1.771,0.05-2.602
		c0-1.734,0-3.353,0-5.254c0-0.939,0.08-2.082-0.1-2.652c-0.257-0.81-1.178-1.514-1.852-2.151c-0.759-0.716-1.333-1.383-1.951-2.001
		c-0.727-0.726-1.278-1.228-2.002-2.002c-0.539-0.577-1.426-1.603-2.151-1.801c-0.723-0.197-1.793-0.05-2.702-0.05
		c-1.778,0-3.441,0.045-5.204,0.05c-0.908,0.003-1.808-0.126-2.502,0.1c-0.515,0.168-1.109,0.759-1.501,1.151
		c-0.888,0.887-1.699,1.699-2.652,2.652c-0.337,0.337-1.002,1.218-1.5,1.001c-0.576-0.251-0.268-2.146-0.301-3.153
		c-0.212-6.746,0-13.948,0-21.015c0-1.136-0.224-2.392,0.25-3.152c0.71-0.233,1.547-0.218,2.652-0.2
		c0.527,0.008,1.269,0.08,1.501,0.35c0.311,0.362,0.2,1.424,0.2,2.051c0,2.193-0.029,4.686,0,6.606
		C30.324,12.397,30.152,15.305,30.372,17.822z"/>
	<path style="fill-rule:evenodd;clip-rule:evenodd;" d="M41.53,47.344c-3.095,0.119-5.968,0.034-9.106,0.05
		c-1.317-0.9-2.341-2.141-3.452-3.252c-1.101-1.101-2.322-2.143-3.152-3.502c-0.105-3.233-0.131-6.76,0-9.857
		c0.762-1.423,2.059-2.31,3.152-3.402c1.182-1.003,1.995-2.374,3.402-3.152c2.274-0.068,4.573-0.051,7.005-0.05
		c0.712,0,1.501-0.103,2.052,0.05c0.686,0.191,1.269,1.105,1.852,1.651c1.223,1.148,2.205,2.205,3.452,3.452
		c0.604,0.604,1.373,1.132,1.602,1.852c0.331,1.043,0.1,3.438,0.1,4.653c0,1.289,0.27,3.425-0.1,4.653
		c-0.213,0.706-0.945,1.296-1.552,1.901c-0.623,0.623-1.237,1.237-1.701,1.702C43.915,45.26,42.902,46.433,41.53,47.344z
		 M36.026,28.931c-0.67,0.03-1.344-0.102-1.901,0.05c-0.748,0.204-1.514,1.212-2.102,1.752c-0.334,0.307-0.73,0.718-0.95,0.951
		c-0.709,0.746-0.856,1.264-0.851,2.552c0.002,0.519,0.034,1.007,0.05,1.451c0.039,1.081-0.245,2.153,0.05,3.052
		c0.139,0.421,0.535,0.735,0.901,1.101c0.361,0.362,0.638,0.769,0.95,1.101c0.521,0.553,1.487,1.651,2.251,1.851
		c0.67,0.176,1.72,0.05,2.553,0.05c0.674,0,1.858,0.146,2.552-0.05c0.765-0.217,1.753-1.321,2.302-1.901
		c0.687-0.728,1.661-1.412,1.951-2.302c0.307-0.942,0.118-2.904,0.1-4.003c-0.005-0.359,0.057-0.849-0.05-1.251
		c-0.117-0.441-0.671-1.001-0.9-1.251c-0.317-0.346-0.725-0.724-1.1-1.101c-0.688-0.687-1.484-1.792-2.353-2.051
		c-0.354-0.106-1.302-0.053-1.5-0.05C37.325,28.891,36.673,28.901,36.026,28.931z"/>
</g>
<g id="Layer_1">
</g>
</svg>
