<?xml version="1.0" encoding="iso-8859-1"?>
<!-- Generator: Adobe Illustrator 19.2.0, SVG Export Plug-In . SVG Version: 6.00 Build 0)  -->
<svg version="1.1" xmlns="http://www.w3.org/2000/svg" xmlns:xlink="http://www.w3.org/1999/xlink" x="0px" y="0px"
	 viewBox="0 0 79.674 66.925" style="enable-background:new 0 0 79.674 66.925;" xml:space="preserve">
<g id="Budimex_x5F_PL">
	<path style="fill-rule:evenodd;clip-rule:evenodd;" d="M4.434,0.089c2.401-0.167,5.252-0.048,7.816-0.048
		c3.988,0,7.393,0.048,11.483,0.048c1.303,0,2.665-0.118,3.812,0.048c2.085,0.302,3.563,1.745,3.956,3.764
		c0.345,1.77,0.094,3.945,0.146,6.079c0.057,2.368-0.048,3.982-0.049,5.935c-0.001,14.135,0.002,28.403,0,42.7
		c0,2.208,0.109,4.277-0.578,5.597c-0.694,1.329-1.917,2.337-3.667,2.509c-1.938,0.19-3.957,0-6.176,0
		c-3.763,0-8.005-0.048-12.352-0.048c-2.295,0-4.306,0.201-5.79-0.386c-1.422-0.563-2.503-1.706-2.847-3.33
		c-0.224-1.055-0.09-2.264-0.144-3.57c-0.155-3.684,0.158-7.636,0.048-11.291C-0.128,40.8,0.16,33.543,0.044,26.239
		c-0.04-2.468,0.048-4.952,0.048-7.382c0-2.517-0.165-5.072-0.048-7.527C0.159,8.912-0.142,6.487,0.141,4.19
		C0.445,1.701,2.292,0.237,4.434,0.089z"/>
	<path style="fill-rule:evenodd;clip-rule:evenodd;" d="M38.497,0.186c1.434-0.127,3.3-0.049,4.825-0.049
		c9.354,0.001,18.214,0.098,28.129,0.097c1.628,0,3.349-0.16,4.583,0.145C77.65,0.778,79.08,2.145,79.46,3.9
		c0.374,1.727,0.145,4.074,0.146,6.176c0,5.101,0.015,10.374,0,15.584c-0.003,1.032,0.05,2.154-0.097,3.04
		c-0.308,1.858-1.532,3.207-3.137,3.715c-1.471,0.467-3.692,0.242-5.597,0.241c-9.419,0-19.133-0.048-28.9-0.048
		c-2.2,0-3.89,0.111-5.211-0.579c-1.226-0.64-2.218-1.714-2.509-3.281c-0.203-1.09-0.097-2.473-0.097-3.763
		c0-1.302-0.062-2.619,0.145-3.666c0.399-2.027,1.962-3.488,3.908-3.764c1.02-0.145,2.23-0.048,3.426-0.048
		c5.847-0.001,11.824,0.048,17.659,0.048c0.975,0,2.225-0.005,3.377,0.048c1.108,0.051,2.235,0,2.268-1.158
		c0.034-1.206-0.961-1.191-2.461-1.254c-5.909-0.249-11.481-0.097-17.369-0.096c-2.191,0-4.554,0.232-6.852-0.048
		c-2.031-0.248-3.661-1.801-4.004-3.811c-0.194-1.139-0.097-2.489-0.097-3.764c0-1.262-0.099-2.5,0.193-3.667
		C34.733,1.88,36.067,0.4,38.497,0.186z"/>
	<path style="fill-rule:evenodd;clip-rule:evenodd;" d="M46.314,34.345c6.695-0.014,14.726,0.096,21.953,0.096
		c2.446,0,5.021-0.217,7.237,0.048c2.007,0.241,3.521,1.69,3.956,3.57c0.388,1.673,0.038,4.138,0.097,6.224
		c0.117,4.176-0.001,8.076,0,12.641c0.001,2.16,0.268,4.476-0.097,6.176c-0.334,1.562-1.459,3.033-3.088,3.522
		c-1.609,0.483-4.082,0.241-6.32,0.241c-9.473,0.001-19.316-0.097-29.142-0.096c-1.157,0-2.289,0.103-3.185-0.097
		c-1.76-0.393-3.268-1.904-3.57-3.667c-0.186-1.076-0.097-2.501-0.097-3.86c0-1.388-0.112-2.683,0.145-3.763
		c0.554-2.322,2.49-3.75,5.452-3.619c2.766,0.122,5.798,0.048,8.733,0.048c2.87,0,5.629,0,8.685,0c0.954,0,2.924-0.064,4.535,0
		c1.451,0.058,3.433,0.276,3.232-1.254c-0.122-0.933-0.826-1.11-2.412-1.11c-5.83,0.001-11.621-0.049-17.466-0.048
		c-2.123,0-5.061,0.199-6.948-0.096c-2.001-0.313-3.5-1.932-3.859-3.957c-0.276-1.556-0.035-3.943-0.048-5.645
		c-0.004-0.492-0.072-1.043,0.096-1.737c0.5-2.06,2.083-3.426,4.053-3.619c1.295-0.126,2.663,0,4.005,0
		C43.577,34.345,44.928,34.348,46.314,34.345z"/>
</g>
<g id="Layer_1">
</g>
</svg>
