<?xml version="1.0" encoding="iso-8859-1"?>
<!-- Generator: Adobe Illustrator 19.2.0, SVG Export Plug-In . SVG Version: 6.00 Build 0)  -->
<svg version="1.1" xmlns="http://www.w3.org/2000/svg" xmlns:xlink="http://www.w3.org/1999/xlink" x="0px" y="0px"
	 viewBox="0 0 26.626 76.514" style="enable-background:new 0 0 26.626 76.514;" xml:space="preserve">
<g id="Buhler_x5F_Buchdruck">
	<path style="fill-rule:evenodd;clip-rule:evenodd;" d="M17.594,15.786c0.646,0.811,1.399,1.148,1.55,2.481
		c0.182,1.621-0.001,3.537,0,5.32c0,2.266,0.441,5.209-0.414,6.662c-1.509,2.566-6.772,0.979-10.434,1.652
		c0.483,0.422,1.304,0.311,2.015,0.311c0.735,0,1.499,0,2.272,0c2.103,0,4.431,0.152,5.683-0.516
		c0.811-0.676,1.429-1.723,1.549-3.152c0.066-0.785-0.165-1.807,0.155-2.531c1.854-0.182,4.353-0.254,6.25-0.051
		c0.331,0.996,0.252,2.182,0.207,3.203c-0.045,1.002-0.262,2.039-0.568,2.789c-1.196,2.918-4.098,5.826-7.852,6.146
		c-1.457,0.123-3.125,0.051-4.7,0.051c-1.646,0.002-3.327,0.109-4.856,0c-2.206-0.156-3.849-1.152-5.217-2.064
		c-1.624-1.594-3.101-3.647-3.203-6.922C0,28.14-0.065,27.013,0.187,26.013c2.062-0.332,4.945,0.158,6.922-0.258
		c0.275-0.988,0.155-2.049,0.155-3.098C7.262,15.29,7.101,7.505,7.315,0.187c1.022-0.127,2.383-0.156,3.409-0.154
		c3.411,0.006,7.734-0.559,8.109,2.789c0.221,1.965,0,3.783,0,5.992c0,0.855,0,1.947,0,2.996
		C18.834,13.835,18.921,15.109,17.594,15.786z M12.842,5.972c-0.197,1.647-0.052,3.68-0.052,5.477c0,0.416-0.162,1.033,0.258,1.238
		c0.421-0.297,0.259-1.002,0.259-1.549c-0.001-1.221,0-2.453,0-3.615c0-0.596,0.129-1.262-0.207-1.654
		C12.972,5.863,12.886,5.896,12.842,5.972z M12.894,18.575c0.002,0.072-0.024,0.113-0.052,0.156c-0.097,1.432-0.069,3.617,0,5.268
		c0.024,0.553-0.181,1.154,0.206,1.551c0.488-0.254,0.311-0.998,0.311-1.602c-0.001-1.273,0-2.609,0-3.822
		c0-0.59,0.14-1.312-0.362-1.551C12.962,18.575,12.928,18.575,12.894,18.575z"/>
	<path style="fill-rule:evenodd;clip-rule:evenodd;" d="M26.478,50.601c-1.974,0.471-4.858,0.033-7.076,0.258
		c-0.276,0.785-0.155,1.662-0.154,2.48c0.001,7.674,0.12,15.637-0.052,22.984c-2.589,0.025-5.999,0.338-8.523,0.104
		c-1.274-0.119-2.467-0.939-2.841-1.91c-0.26-0.678-0.155-1.926-0.155-2.996c0.001-2.145,0-4.082,0-6.303
		c0.001-1.066-0.128-2.281,0.104-3.047c0.205-0.678,0.692-0.893,1.033-1.395c-0.302-0.543-0.968-0.824-1.239-1.445
		c-0.173-0.398-0.238-0.973-0.259-1.5c-0.114-2.963,0.096-7.246,0-10.33c0.33-1.205,0.917-2.07,2.118-2.428
		c1.171-0.348,2.765-0.08,4.339-0.154c1.537-0.072,3.075,0.062,4.287-0.207c-0.511-0.406-1.286-0.258-1.963-0.258
		c-0.733,0-1.473,0-2.221,0c-1.524,0-3.073-0.189-4.442,0c-2.647,0.363-2.841,3.258-2.944,6.197
		c-0.876,0.336-1.996,0.084-3.048,0.104c-1.056,0.021-2.127,0.174-3.047-0.051c-0.325-0.512-0.207-1.188-0.207-1.756
		c0-1.506-0.008-2.941,0.361-4.082c0.35-1.078,1.313-2.547,2.015-3.357c0.941-1.088,2.574-2.105,4.184-2.633
		c1.983-0.65,4.67-0.303,7.129-0.414c1.227-0.057,2.474-0.133,3.719-0.051c2.381,0.156,4.829,1.234,6.198,2.736
		C25.776,43.325,27.08,46.298,26.478,50.601z M13.359,51.116c-0.062,0.025-0.117,0.057-0.155,0.104
		c-0.268,0.818-0.141,2.379-0.155,3.719c-0.006,0.586-0.016,1.201,0,1.758c0.015,0.51-0.058,1.217,0.465,1.342
		c0.248-1.469,0.103-3.059,0.103-4.699c0-0.774,0.115-1.582-0.155-2.223C13.427,51.116,13.393,51.116,13.359,51.116z M13.411,63.876
		c-0.061,0.023-0.117,0.055-0.155,0.104c-0.239,0.189-0.155,1.086-0.155,1.703c0,1.383-0.017,2.389,0,3.514
		c0.009,0.562-0.201,1.342,0.361,1.498c0.351-0.35,0.207-1.004,0.207-1.551c0-1.211,0-2.455,0-3.615
		c0-0.568,0.152-1.242-0.207-1.601C13.459,63.896,13.455,63.866,13.411,63.876z"/>
</g>
<g id="Layer_1">
</g>
</svg>
