<?xml version="1.0" encoding="iso-8859-1"?>
<!-- Generator: Adobe Illustrator 21.0.2, SVG Export Plug-In . SVG Version: 6.00 Build 0)  -->
<svg version="1.1" xmlns="http://www.w3.org/2000/svg" xmlns:xlink="http://www.w3.org/1999/xlink" x="0px" y="0px"
	 viewBox="0 0 8.81 8.81" style="enable-background:new 0 0 8.81 8.81;" xml:space="preserve">
<g id="Bulbo">
	<g>
		<path style="fill:#231F20;" d="M2.452,2.607C2.116,3.004,1.919,3.583,1.919,4.195c0,0.637,0.207,1.207,0.533,1.59
			c0.326-0.383,0.534-0.953,0.534-1.59C2.986,3.583,2.789,3.004,2.452,2.607 M4.405,2.607C4.069,3.003,3.872,3.583,3.872,4.195
			c0,0.637,0.207,1.207,0.533,1.59c0.326-0.383,0.533-0.953,0.533-1.59C4.938,3.583,4.742,3.003,4.405,2.607 M6.358,2.607
			C6.022,3.003,5.825,3.583,5.825,4.195c0,0.637,0.207,1.207,0.534,1.59c0.326-0.383,0.533-0.953,0.533-1.59
			C6.892,3.583,6.694,3.003,6.358,2.607 M7.334,6.635c-0.358,0-0.692-0.133-0.976-0.363c-0.568,0.46-1.385,0.46-1.953,0
			c-0.569,0.46-1.385,0.46-1.953,0c-0.284,0.23-0.619,0.363-0.977,0.363c-0.098,0-0.176-0.079-0.176-0.177
			c0-0.098,0.079-0.177,0.176-0.177c0.262,0,0.509-0.093,0.724-0.255C1.811,5.579,1.566,4.924,1.566,4.195
			c0-0.777,0.285-1.515,0.764-1.972c0.068-0.065,0.175-0.065,0.244,0c0.478,0.457,0.765,1.193,0.765,1.972
			c0,0.728-0.246,1.384-0.634,1.831c0.43,0.325,1.018,0.325,1.447,0C3.764,5.579,3.52,4.924,3.52,4.195
			c0-0.777,0.285-1.515,0.764-1.972c0.068-0.065,0.175-0.065,0.244,0C5.005,2.68,5.291,3.417,5.291,4.195
			c0,0.728-0.245,1.384-0.633,1.831c0.43,0.325,1.017,0.325,1.447,0C5.718,5.579,5.472,4.924,5.472,4.195
			c0-0.778,0.286-1.515,0.764-1.972c0.067-0.065,0.175-0.065,0.243,0c0.478,0.457,0.765,1.193,0.765,1.972
			c0,0.728-0.245,1.384-0.633,1.831c0.215,0.162,0.461,0.255,0.723,0.255c0.098,0,0.177,0.079,0.177,0.177
			C7.511,6.556,7.432,6.635,7.334,6.635"/>
		<path style="fill:#231F20;" d="M4.405,0.352c-2.234,0-4.052,1.817-4.052,4.053c0,2.233,1.817,4.052,4.052,4.052
			s4.052-1.818,4.052-4.052C8.457,2.17,6.639,0.352,4.405,0.352 M4.405,8.81C1.976,8.81,0,6.833,0,4.405C0,1.976,1.976,0,4.405,0
			C6.834,0,8.81,1.976,8.81,4.405C8.81,6.833,6.834,8.81,4.405,8.81"/>
	</g>
</g>
<g id="Layer_1">
</g>
</svg>
