<?xml version="1.0" encoding="iso-8859-1"?>
<!-- Generator: Adobe Illustrator 19.2.0, SVG Export Plug-In . SVG Version: 6.00 Build 0)  -->
<svg version="1.1" xmlns="http://www.w3.org/2000/svg" xmlns:xlink="http://www.w3.org/1999/xlink" x="0px" y="0px"
	 viewBox="0 0 80.625 71.109" style="enable-background:new 0 0 80.625 71.109;" xml:space="preserve">
<g id="Bundesverband_x5F_der_x5F_Deutschen_x5F_Luft_x5F_und_x5F_Raumfahrtindustrie">
	<path style="fill-rule:evenodd;clip-rule:evenodd;" d="M0.18,0C17.33,0.087,35.429-0.043,52.963,0.146
		c0.042,0.487-0.707,0.593-1.026,0.88c-8.78,5.157-17.635,10.336-26.538,15.542c-2.393,1.399-4.549,2.735-7.233,4.252
		c-1.114,0.629-2.37,1.407-3.616,2.102c-0.402,0.224-1.07,0.656-1.27,0.635c-0.302-0.031-0.756-0.92-0.978-1.32
		C8.709,15.748,5.182,9.598,1.549,3.128c-0.23-0.411-0.516-0.92-0.831-1.466c-0.291-0.504-0.86-1.145-0.684-1.564
		C0.069,0.052,0.123,0.023,0.18,0z"/>
	<path style="fill-rule:evenodd;clip-rule:evenodd;" d="M80.625,0.244c-0.521,1.38-1.362,2.627-2.103,3.959
		c-1.771,3.188-3.608,6.309-5.424,9.628c-0.35,0.638-0.731,1.636-1.174,2.004c-0.382,0.318-0.965,0.583-1.466,0.879
		c-3.451,2.044-6.781,4.018-10.312,6.06c-2.01,1.162-4.037,2.212-5.963,3.421c-1.875,1.177-3.867,2.396-5.865,3.47
		c-5.939,3.193-11.828,6.908-17.838,10.214c-1.303,0.717-2.972,1.646-4.496,2.542c-0.464,0.272-1.281,0.812-1.516,0.782
		c-0.405-0.052-0.944-1.309-1.222-1.808c-2.492-4.478-5.194-8.99-7.624-13.391c0.274-0.515,0.887-0.688,1.368-0.977
		c0.48-0.288,0.94-0.671,1.467-0.879c7.215-4.336,14.611-8.628,22.139-13.049c5.493-3.226,11.097-6.389,16.666-9.726
		c1.34-0.803,2.779-1.595,4.203-2.395c0.528-0.297,0.987-0.782,1.563-0.88c1.347-0.23,3.007,0.043,4.447,0
		c1.502-0.045,3.062,0,4.496,0C74.968,0.098,77.857,0.05,80.625,0.244z"/>
	<path style="fill-rule:evenodd;clip-rule:evenodd;" d="M66.891,24.29c0.326,0.232-0.058,0.556-0.147,0.733
		c-0.376,0.749-0.809,1.497-1.223,2.249c-0.547,0.996-0.999,2.053-1.563,3.03c-5.584,9.66-11.146,19.507-16.764,29.226
		c-2.252,3.896-4.324,7.873-6.793,11.583c-0.745-0.794-1.275-1.848-1.857-2.835c-3.707-6.285-7.273-12.777-10.996-19.207
		c-0.241-0.417-0.827-1.187-0.782-1.515c0.06-0.429,2.005-1.344,2.394-1.563c5.845-3.296,11.691-6.815,17.546-10.068
		c3.309-1.946,6.669-3.869,10.019-5.767c1.679-0.951,3.412-1.82,5.034-2.834c1.63-1.019,3.232-2.063,4.937-2.933
		c0.035-0.045,0.088-0.074,0.146-0.098C66.858,24.29,66.875,24.29,66.891,24.29z"/>
</g>
<g id="Layer_1">
</g>
</svg>
