<?xml version="1.0" encoding="iso-8859-1"?>
<!-- Generator: Adobe Illustrator 19.2.0, SVG Export Plug-In . SVG Version: 6.00 Build 0)  -->
<svg version="1.1" xmlns="http://www.w3.org/2000/svg" xmlns:xlink="http://www.w3.org/1999/xlink" x="0px" y="0px"
	 viewBox="0 0 79.022 106.676" style="enable-background:new 0 0 79.022 106.676;" xml:space="preserve">
<g id="Burton_x5F_Kramer">
	<path style="fill-rule:evenodd;clip-rule:evenodd;" d="M63.295,0c1.471,0.697,2.816,1.518,4.064,2.438
		c-0.185,0.604-0.748,0.951-1.168,1.372c-0.415,0.415-0.812,0.847-1.219,1.27c-2.431,2.523-5,5.015-7.468,7.57
		c-1.043,1.447-2.43,2.583-3.658,3.861c-1.227,1.277-2.459,2.54-3.709,3.811c-3.716,3.776-7.567,7.422-11.227,11.278
		c-3.031,3.193-6.154,6.357-9.297,9.5c-0.302,0.301-0.673,0.598-0.966,0.915c-0.272,0.295-0.497,0.758-0.965,0.762
		c-0.119-7.709,0-15.456,0-23.166c0-2.533,0.145-5.06-0.102-7.417c-0.852,0.132-1.283,0.979-1.829,1.524
		c-3.856,3.856-7.822,7.807-11.482,11.939c-0.236,23.983,0.045,47.694-0.152,71.329c-1.513,0.229-3.163,0.044-4.725,0
		C9.149,72.243,9.346,47.808,9.341,23.624c0.624-0.884,1.471-1.599,2.235-2.388c1.478-1.526,3.128-2.937,4.522-4.623
		c0.687-0.831,1.469-1.556,2.235-2.337c2.563-2.611,5.09-5.502,7.926-8.078c0.316-0.288,0.839-1.091,1.168-1.118
		c0.355-0.028,0.973,0.543,1.321,0.762c1.326,0.836,2.683,1.382,3.759,2.438c0.204,5.708-0.12,11.438,0.051,16.867
		c0.058,1.847-0.243,3.691,0.101,5.436c0.908-0.086,1.354-1.202,2.083-1.676c9.591-9.478,18.775-19.362,28.4-28.806
		C63.179,0.054,63.234,0.024,63.295,0z"/>
	<path style="fill-rule:evenodd;clip-rule:evenodd;" d="M18.435,0.152c1.503,0.681,2.803,1.566,4.115,2.438
		c-0.446,0.842-1.249,1.398-1.88,2.083c-0.625,0.678-1.275,1.347-1.93,1.981c-1.339,1.297-2.454,2.778-3.811,4.014
		c-1.361,1.239-2.579,2.668-3.861,4.013c-1.271,1.334-2.649,2.569-3.912,3.912c-0.46,0.754-1.871,1.39-2.134,2.337
		c-0.167,0.604-0.081,1.5-0.051,2.337c0.091,2.512,0.002,5.187,0,7.519c-0.005,6.518-0.051,13.059-0.051,19.915
		c0,1.675,0.011,3.334-0.051,4.979c-0.063,1.697,0.119,3.372,0.051,4.979c-0.142,3.373,0,6.813,0,10.211
		c0,10.175-0.079,20.702,0.102,30.584c0.587,0.339,1.329,0.203,1.982,0.203c1.386,0,2.731,0.051,4.268,0.051
		c0.714,0,1.519,0.121,2.134,0c0.44-0.086,0.978-0.756,1.372-1.117c0.88-0.808,1.596-1.606,2.489-2.439
		c0.404-0.377,0.999-0.841,1.118-1.321c0.142-0.57-0.013-1.371,0-2.185c0.033-2.065,0.122-4.319,0.051-6.3
		c-0.214-5.929,0.057-11.408,0-17.324c-0.136-14.088,0.039-29.381,0.051-43.793c1.064-1.271,2.408-2.362,3.557-3.607
		c0.366-0.397,0.653-0.966,1.219-1.067c0.091,15.936,0,32.188,0,48.162c0,4.848,0.09,9.38,0.051,14.073
		c-0.026,3.145-0.04,6.03-0.051,9.399c-0.005,1.498,0.316,3.553,0,4.775c-0.146,0.562-0.956,1.095-1.422,1.524
		c-1.547,1.421-2.984,2.875-4.522,4.217c-0.615,0.364-1.268,1.597-2.032,1.829c-1.043,0.317-2.512-0.001-3.811,0
		c-3.906,0-7.841,0.011-11.38-0.153c-0.107-7.256-0.051-14.597-0.05-21.896c0-7.2-0.099-14.527,0-21.846
		c0.093-6.904-0.001-14.061,0-21.744c0-6.425,0.05-12.651,0.05-19.204c0-0.943-0.156-1.983,0-2.692
		c0.155-0.703,1.677-1.931,2.185-2.439c2.319-2.319,4.662-4.814,6.858-7.011c3.111-3.111,6.134-6.114,9.144-9.297
		C18.319,0.206,18.375,0.177,18.435,0.152z"/>
	<path style="fill-rule:evenodd;clip-rule:evenodd;" d="M72.134,4.725c0.904,0.292,2.185,1.24,2.998,1.727
		c1.035,0.621,2.1,1.067,2.845,1.829c0.063,6.968,0,14.573,0,21.896c0,1.057,0.192,2.362-0.051,3.201
		c-0.188,0.65-1.458,1.766-1.931,2.286c-0.726,0.799-1.489,1.438-2.134,2.083c-1.521,1.521-2.836,2.916-4.166,4.268
		c-2.815,2.861-5.525,5.706-8.383,8.433c-1.072-0.64-1.708-1.525-2.591-2.489c-0.223-0.244-0.762-0.619-0.762-0.915
		c0-0.282,0.646-0.727,0.915-1.016c3.437-3.684,7.07-7.131,10.466-10.77c1.261-1.352,2.718-2.504,3.759-3.963
		c0.032-5.878,0.05-11.695,0.051-17.781c0-0.802,0.115-1.638-0.152-2.388c-0.546,0.102-0.913,0.607-1.27,0.965
		c-2.521,2.522-4.976,5.295-7.621,7.773C59.863,24.173,55.594,28.762,51,33.175c-0.548,0.527-1.015,1.171-1.575,1.727
		c-3.293,3.266-6.53,6.563-9.856,9.958c-0.439,0.448-1.507,1.301-1.524,1.778c-0.018,0.507,0.578,0.811,0.864,1.118
		c0.372,0.399,0.587,0.774,0.914,1.067c7.302,7.127,14.454,14.402,21.592,21.693c1.828,2.091,3.951,3.883,5.842,5.944
		c0.621,0.677,1.373,1.249,1.88,2.032c0.107,8.368,0.152,16.726,0,25.148c-1.227,0.769-2.898,1.47-4.42,2.235
		c-0.391,0.197-1.18,0.671-1.524,0.661c-0.451-0.015-1.292-1.056-1.728-1.524c-1.109-1.194-2.18-2.098-3.251-3.251
		c-0.533-0.573-0.974-1.161-1.474-1.727c-1.012-1.147-2.224-2.087-3.252-3.201c-3.114-3.374-6.36-6.31-9.704-9.653
		c-1.542-1.541-3.111-3.264-4.775-4.928c-0.505-0.505-1.422-1.14-1.575-1.625c-0.134-0.426-0.077-1.128-0.051-1.727
		c0.07-1.594-0.057-3.527,0.102-4.877c0.736,0.334,1.229,1.025,1.778,1.575c1.631,1.631,3.309,3.317,4.928,5.03
		c2.148,2.272,4.551,4.307,6.655,6.604c2.108,2.303,4.401,4.439,6.554,6.706c1.88,1.981,3.837,3.887,5.792,5.842
		c0.248,0.248,0.524,0.626,0.915,0.61c0.356-0.713,0.203-1.556,0.203-2.337c0-4.917,0.001-9.719,0-14.937
		c0-0.867,0.129-1.841-0.051-2.489c-0.109-0.392-0.583-0.817-0.965-1.169c-2.61-2.396-4.802-4.966-7.214-7.468
		c-6.169-6.071-12.466-12.703-18.848-18.95c-1.045-1.023-2.028-2.034-3.201-3.099c-0.484-0.44-1.016-0.969-1.575-1.575
		c-0.376-0.408-1.41-1.327-1.422-1.677c-0.016-0.462,0.84-0.992,1.219-1.372c0.488-0.488,0.945-0.985,1.27-1.32
		c12.845-13.033,25.657-26.094,38.458-39.17C72.02,4.778,72.075,4.749,72.134,4.725z"/>
	<path style="fill-rule:evenodd;clip-rule:evenodd;" d="M69.036,21.388c0.041,0.009,0.05,0.051,0.102,0.051
		c0.129,1.574,0,3.297,0.051,4.877c0.017,0.523,0.098,1.167,0,1.626c-0.075,0.351-0.689,0.893-1.067,1.27
		c-2.706,2.706-5.489,5.59-8.129,8.23c-1.499,1.499-2.954,3.156-4.572,4.775c-1.121,1.121-2.275,2.261-3.455,3.556
		c-0.339,0.373-1.065,0.881-1.067,1.219c-0.002,0.494,1.319,1.574,1.626,1.88c0.641,0.642,1.229,1.096,1.778,1.677
		c3.591,3.318,6.987,6.832,10.567,10.161c2.418,2.188,4.765,4.447,7.112,6.706c2.345,2.261,4.818,4.394,7.011,6.808
		c-0.04,8.401,0.118,16.721-0.05,24.793c-0.679,0.513-1.531,0.835-2.337,1.219c-0.795,0.378-1.59,0.882-2.438,1.016
		c-0.141-8.314,0.015-16.692-0.102-24.996c-1.124-1.365-2.461-2.519-3.709-3.759c-1.234-1.228-2.528-2.434-3.81-3.607
		c-2.582-2.363-5.029-4.86-7.621-7.214c-0.648-0.588-1.196-1.261-1.778-1.931c-0.564-0.649-1.313-1.185-1.931-1.778
		c-1.255-1.206-2.488-2.456-3.759-3.658c-2.541-2.402-5.236-4.657-7.57-7.265c2.016-2.201,4.087-4.347,6.198-6.452
		c2.111-2.106,4.141-4.293,6.249-6.401c1.059-1.058,2.041-2.193,3.099-3.251c3.121-3.122,6.345-6.242,9.449-9.45
		C68.92,21.442,68.975,21.413,69.036,21.388z"/>
	<path style="fill-rule:evenodd;clip-rule:evenodd;" d="M59.84,89.161c-0.413,0.076-0.691-0.4-0.914-0.61
		c-0.565-0.53-1.189-1.052-1.676-1.677c-1.174-1.503-2.688-2.941-4.065-4.318c-6.129-6.129-12.278-12.329-18.442-18.493
		c-0.551-0.551-1.027-1.251-1.778-1.575c-0.395,0.982-0.165,2.106-0.204,3.149c-0.117,3.144-0.056,6.38-0.051,9.602
		c0.006,4.345,0,8.758,0,12.904c0,0.443,0.122,0.896,0,1.321c-0.146,0.511-0.721,0.831-1.118,1.219
		c-0.415,0.406-0.791,0.775-1.168,1.118c-0.372,0.407-0.779,0.779-1.169,1.169c-0.366,0.366-0.77,0.802-1.321,0.965
		c-0.111-14.418-0.046-29.068-0.051-43.285c0.028-0.073,0.079-0.124,0.152-0.152c0.043-0.01,0.048,0.019,0.051,0.051
		c2.753,2.583,5.334,5.332,8.078,7.925c2.73,2.582,5.172,5.47,7.925,8.027c2.748,2.554,5.321,5.321,7.976,7.977
		c1.997,1.997,3.919,4.041,5.893,6.096c0.644,0.67,1.349,1.306,1.88,2.083C59.793,84.858,59.984,87.025,59.84,89.161z"/>
</g>
<g id="Layer_1">
</g>
</svg>
