<?xml version="1.0" encoding="iso-8859-1"?>
<!-- Generator: Adobe Illustrator 19.2.0, SVG Export Plug-In . SVG Version: 6.00 Build 0)  -->
<svg version="1.1" xmlns="http://www.w3.org/2000/svg" xmlns:xlink="http://www.w3.org/1999/xlink" x="0px" y="0px"
	 viewBox="0 0 72.245 71.987" style="enable-background:new 0 0 72.245 71.987;" xml:space="preserve">
<g id="Cafeteria_x5F_ES">
	<path style="fill-rule:evenodd;clip-rule:evenodd;" d="M66.685,0.269c-0.205,0.573-0.928,0.591-1.375,0.736
		c-3.626,1.179-6.877,2.88-9.916,4.762c-0.843,0.521-1.628,1.165-2.406,1.816c-0.758,0.635-1.557,1.239-2.307,1.865
		c-1.525,1.272-2.843,2.754-4.173,4.173c-2.674,2.851-4.896,6.367-6.578,10.162c-0.858,1.935-1.678,3.937-2.308,6.087
		c-0.159,0.542-0.222,1.153-0.393,1.718c-0.327,1.08-0.507,2.154-0.736,3.436c-0.09,0.501-0.004,1.186-0.491,1.571
		c-0.657-0.18-0.528-0.968-0.589-1.424c-0.219-1.642-0.691-3.321-1.08-4.909c-0.496-2.029-1.346-3.967-2.16-5.792
		c-3.244-7.273-8.146-12.989-14.384-17.428c-2.309-1.643-4.779-3.145-7.512-4.418c-1.481-0.69-2.873-1.256-4.565-1.816
		c-0.555-0.183-1.45-0.129-1.522-0.785c13.024-0.072,26.152,0.048,39.176,0.049c7.176,0.001,14.274-0.001,21.551,0
		C65.479,0.072,66.162-0.079,66.685,0.269z M7.48,0.661C7.693,1.116,8.265,1.24,8.659,1.397c3.231,1.296,6.034,2.909,8.689,4.762
		c8.593,5.998,15.229,14.345,18.017,26.166c0.193,0.823,0.527,2.254,0.933,0.884c0.538-1.823,0.884-3.642,1.424-5.204
		c1.972-5.71,4.697-10.477,8.247-14.482c4.473-5.046,9.797-9.239,16.445-11.978c0.394-0.162,1.035-0.198,1.179-0.736
		c-1.107-0.268-2.255-0.147-3.388-0.147C42.711,0.662,25.614,0.592,7.676,0.562C7.604,0.588,7.553,0.635,7.48,0.661z"/>
	<path style="fill-rule:evenodd;clip-rule:evenodd;" d="M72.086,71.795c-1.35,0.266-2.802,0.147-4.271,0.147
		c-2.864,0-6.005,0.129-8.787-0.049c-6.712-0.429-11.287-3.646-14.58-7.462c-4.051-4.882-6.53-11.174-7.266-19.244
		c-0.777-8.526,1.243-16.12,4.123-21.944c2.906-5.875,6.973-10.545,11.881-14.58c2.39-1.965,5.055-3.567,8.198-5.057
		c1.448-0.686,3.015-1.343,4.762-1.865c1.771-0.53,3.687-1.079,5.449-1.326c0.796-0.111,0.638,0.989,0.639,1.816
		c0,2.26-0.001,4.922,0,6.774C72.235,29.536,72.221,50.873,72.086,71.795z"/>
	<path style="fill-rule:evenodd;clip-rule:evenodd;" d="M0.362,0.514c4.9,0.746,9.084,2.677,12.911,4.713
		c0.911,0.484,1.744,1.18,2.651,1.767c6.202,4.012,11.033,9.479,14.481,16.298c1.985,3.924,3.478,8.361,4.173,13.402
		c0.779,5.656,0.221,11.317-0.981,15.955c-1.172,4.52-2.996,8.874-5.548,12.028c-2.62,3.24-6.082,5.901-10.75,6.873
		c-2.583,0.537-5.47,0.343-8.444,0.343c-2.872,0.001-5.691-0.113-8.641-0.147c-0.021-0.044-0.043-0.088-0.098-0.099
		c-0.179-8.799-0.1-17.778-0.099-26.755c0.002-13.706,0.05-27.876,0.049-42.17c0-0.721-0.081-1.832,0.147-2.111
		C0.251,0.566,0.304,0.537,0.362,0.514z"/>
</g>
<g id="Layer_1">
</g>
</svg>
