<?xml version="1.0" encoding="iso-8859-1"?>
<!-- Generator: Adobe Illustrator 21.0.2, SVG Export Plug-In . SVG Version: 6.00 Build 0)  -->
<svg version="1.1" xmlns="http://www.w3.org/2000/svg" xmlns:xlink="http://www.w3.org/1999/xlink" x="0px" y="0px"
	 viewBox="0 0 17.212 17.03" style="enable-background:new 0 0 17.212 17.03;" xml:space="preserve">
<g id="Caisse_x5F_Populaire_x5F_St-Alphonse_x5F_d_x5F_Youville_x5F_50th_x5F_Anniversary">
	<path d="M5.454,0.065c0.68-0.158,1.435-0.022,1.991,0.41c0.41,0.295,0.699,0.742,0.844,1.223c0.109,0.349,0.087,0.72,0.089,1.081
		c0.002,1.836-0.005,3.672,0.004,5.508c-2.045,0-4.089-0.001-6.133,0C1.302,8.257,0.42,7.593,0.125,6.696
		c-0.239-0.675-0.13-1.458,0.276-2.046c0.128-0.204,0.315-0.361,0.486-0.527c0.435-0.346,0.995-0.527,1.549-0.519
		c0.635,0.015,1.243,0.3,1.708,0.724c0.104,0.111,0.235,0.192,0.343,0.298C4.978,5.119,5.469,5.611,5.965,6.1
		c0.002,0.333,0.004,0.667,0.002,1c-0.697-0.01-1.394,0-2.092-0.006C3.578,6.782,3.264,6.488,2.968,6.176
		C3.56,6.174,4.153,6.177,4.746,6.175C4.419,5.838,4.083,5.51,3.753,5.177c-0.309-0.262-0.646-0.513-1.046-0.61
		C2.334,4.462,1.924,4.542,1.599,4.746c-0.417,0.246-0.66,0.725-0.682,1.2c0.017,0.357,0.145,0.719,0.402,0.976
		c0.279,0.307,0.703,0.47,1.115,0.45c1.677-0.003,3.353,0.005,5.03-0.004c-0.008-1.665,0.002-3.33-0.005-4.995
		C7.46,1.869,7.193,1.371,6.752,1.12C6.553,0.987,6.314,0.938,6.08,0.91C5.501,0.886,4.921,1.239,4.693,1.775
		C4.566,2.04,4.571,2.343,4.605,2.627c0.185,0.754,0.814,1.259,1.332,1.79c0.098,0.104,0.225,0.178,0.307,0.297
		c0.001-0.59-0.001-1.18,0.001-1.769c0.314,0.292,0.606,0.607,0.918,0.901c0.007,0.684-0.008,1.369,0.007,2.053
		c-0.333,0-0.667-0.002-1.001-0.001C5.57,5.283,4.947,4.692,4.35,4.074C3.991,3.646,3.699,3.127,3.664,2.559
		C3.588,1.907,3.828,1.24,4.266,0.757C4.585,0.424,5,0.168,5.454,0.065z"/>
	<path d="M9.409,0.804c0.492-0.567,1.272-0.875,2.02-0.79c0.994,0.07,1.881,0.861,2.081,1.835c0.085,0.433,0.063,0.894-0.094,1.309
		c-0.142,0.364-0.357,0.697-0.62,0.986c-0.579,0.589-1.173,1.163-1.75,1.754c-0.338,0.002-0.677,0-1.014,0.002
		c-0.001-0.686,0.001-1.372-0.001-2.058c0.095-0.1,0.19-0.199,0.302-0.279c0.223-0.196,0.415-0.424,0.637-0.621
		c-0.015,0.595,0.013,1.191-0.013,1.785c0.255-0.339,0.612-0.574,0.896-0.884c0.386-0.421,0.798-0.918,0.775-1.524
		c0.02-0.301-0.109-0.585-0.274-0.829c-0.32-0.43-0.898-0.663-1.425-0.551c-0.637,0.109-1.159,0.699-1.171,1.349
		C9.749,3.982,9.76,5.677,9.752,7.37c1.738,0.002,3.477,0.003,5.215,0c0.539-0.044,1.043-0.412,1.225-0.926
		c0.073-0.222,0.141-0.463,0.078-0.696c-0.081-0.563-0.521-1.054-1.078-1.18c-0.365-0.107-0.756-0.019-1.085,0.154
		c-0.486,0.237-0.84,0.657-1.219,1.029c-0.14,0.141-0.284,0.279-0.419,0.424c0.577,0.002,1.155-0.001,1.733,0.001
		c-0.222,0.242-0.475,0.456-0.678,0.715c-0.069,0.072-0.127,0.163-0.217,0.208c-0.685-0.008-1.371-0.003-2.057-0.003
		c-0.001-0.332-0.001-0.664-0.001-0.996c0.32-0.312,0.633-0.631,0.95-0.947c0.436-0.421,0.849-0.88,1.374-1.196
		c0.565-0.338,1.267-0.45,1.903-0.265c0.979,0.251,1.721,1.194,1.736,2.205c0.003,0.622-0.223,1.27-0.697,1.689
		c-0.295,0.337-0.715,0.542-1.145,0.646c-0.298,0.075-0.606,0.049-0.91,0.053c-1.876,0-3.752-0.001-5.628,0
		C8.844,6.268,8.833,4.249,8.836,2.23C8.855,1.706,9.061,1.195,9.409,0.804z"/>
	<path d="M0.092,10.442C0.353,9.476,1.294,8.75,2.295,8.744c2.028,0,4.056-0.003,6.084,0.001c-0.005,2.004,0,4.008-0.003,6.012
		c-0.012,0.549-0.226,1.09-0.599,1.493c-0.404,0.443-0.979,0.741-1.582,0.771c-0.645,0.056-1.314-0.168-1.784-0.617
		c-0.672-0.587-0.93-1.587-0.65-2.431c0.157-0.478,0.452-0.904,0.817-1.248c0.524-0.536,1.068-1.055,1.591-1.592
		c0.331-0.003,0.663-0.001,0.994-0.001c-0.005,0.682,0.01,1.366-0.006,2.047c-0.295,0.313-0.609,0.606-0.913,0.909
		c-0.002-0.594,0.001-1.188-0.001-1.781c-0.346,0.349-0.696,0.694-1.041,1.043c-0.321,0.382-0.65,0.837-0.614,1.361
		c-0.035,0.689,0.557,1.304,1.225,1.388c0.54,0.082,1.113-0.178,1.409-0.637c0.184-0.257,0.23-0.58,0.239-0.888
		c0.001-1.637-0.005-3.275,0.002-4.912c-1.6-0.004-3.2-0.001-4.8-0.001c-0.23,0.007-0.468-0.031-0.69,0.047
		c-0.494,0.134-0.902,0.556-1.009,1.057c-0.126,0.443,0.04,0.929,0.333,1.271c0.303,0.315,0.744,0.504,1.183,0.47
		c0.52-0.064,0.969-0.372,1.343-0.721c0.309-0.313,0.626-0.619,0.93-0.936c-0.595,0.008-1.19,0-1.785,0.006
		c0.296-0.312,0.611-0.606,0.907-0.917c0.697-0.006,1.394,0.004,2.092-0.004c0.003,0.332,0.003,0.664-0.001,0.996
		c-0.48,0.473-0.958,0.95-1.434,1.427c-0.307,0.26-0.589,0.555-0.949,0.746c-0.484,0.269-1.064,0.389-1.611,0.281
		c-0.657-0.099-1.244-0.508-1.607-1.058C0.011,11.776-0.097,11.071,0.092,10.442z"/>
	<path d="M8.833,8.747c2.045-0.008,4.089-0.002,6.134-0.002c1.076,0.029,2.064,0.899,2.21,1.969
		c0.185,0.997-0.394,2.054-1.307,2.476c-0.628,0.304-1.386,0.313-2.021,0.025c-0.323-0.148-0.622-0.35-0.874-0.6
		c-0.159-0.114-0.297-0.252-0.43-0.394c-0.436-0.427-0.862-0.863-1.298-1.29c0.001-0.331,0.001-0.662,0.002-0.993
		c0.696,0.004,1.395-0.009,2.09,0.007c0.304,0.302,0.61,0.603,0.908,0.912c-0.596-0.007-1.191,0.003-1.787-0.007
		c0.321,0.332,0.653,0.655,0.978,0.983c0.32,0.278,0.675,0.542,1.096,0.638c0.464,0.13,0.961-0.055,1.313-0.361
		c0.269-0.269,0.421-0.643,0.448-1.02c-0.023-0.357-0.142-0.722-0.4-0.979c-0.238-0.258-0.577-0.429-0.929-0.448
		c-1.738,0.002-3.477-0.001-5.215,0.001c0.009,1.681-0.001,3.361,0.005,5.042c0,0.687,0.561,1.318,1.244,1.395
		c0.575,0.088,1.188-0.213,1.459-0.729c0.172-0.276,0.19-0.61,0.157-0.925c-0.106-0.503-0.438-0.918-0.785-1.281
		c-0.283-0.297-0.622-0.536-0.877-0.86c0.033,0.594,0.001,1.191,0.015,1.787c-0.315-0.295-0.595-0.629-0.936-0.894
		c-0.005-0.689,0.005-1.377-0.006-2.064c0.339,0.001,0.679-0.001,1.018,0.001c0.592,0.607,1.203,1.196,1.796,1.802
		c0.355,0.411,0.64,0.909,0.699,1.457c0.053,0.475-0.017,0.973-0.257,1.392c-0.144,0.312-0.401,0.548-0.653,0.772
		c-0.485,0.357-1.107,0.532-1.706,0.456c-0.911-0.085-1.734-0.761-1.991-1.64c-0.13-0.391-0.091-0.806-0.096-1.211
		C8.835,12.357,8.841,10.552,8.833,8.747z"/>
</g>
<g id="Layer_1">
</g>
</svg>
