<?xml version="1.0" encoding="iso-8859-1"?>
<!-- Generator: Adobe Illustrator 19.2.0, SVG Export Plug-In . SVG Version: 6.00 Build 0)  -->
<svg version="1.1" xmlns="http://www.w3.org/2000/svg" xmlns:xlink="http://www.w3.org/1999/xlink" x="0px" y="0px"
	 viewBox="0 0 71.993 37.976" style="enable-background:new 0 0 71.993 37.976;" xml:space="preserve">
<g id="Camer_x5F_Plastics">
	<path style="fill-rule:evenodd;clip-rule:evenodd;" d="M68.234,2.854c2.017,1.9,3.613,4.313,3.75,7.737
		c0.141,3.516-1.503,6.446-3.323,8.116c-1.583,1.452-3.239,2.429-5.696,2.943c-2.364,0.495-5.353,0.285-8.307,0.284
		c-1.878,0-3.971-0.043-5.649,0.096c-0.639,0.529-0.958,1.361-1.376,2.088c-0.417,0.726-0.869,1.434-1.282,2.137
		c-0.573,1.506-1.534,2.821-2.278,4.177c-0.784,1.427-1.507,2.767-2.564,3.893c-2.111,2.251-4.909,3.513-9.398,3.513
		c-4.227,0-8.606,0.047-12.863,0.047c-3.975,0-9.19,0.482-12.152-0.759c-3.072-1.287-5.2-3.409-6.408-6.504
		c-1.365-3.497-0.568-7.693,1.234-10.157c1.766-2.414,4.312-4.42,8.212-4.699c2.956-0.212,6.284-0.047,9.541-0.048
		c1.1,0,2.236,0.035,3.228-0.048c0.984-1.071,1.569-2.469,2.326-3.75c0.744-1.259,1.477-2.545,2.231-3.797
		c1.514-2.512,2.833-5.216,5.506-6.598c2.514-1.82,6.515-1.473,10.633-1.472c3.939,0.001,8.302,0.175,12.057,0
		c1.083-0.051,2.704-0.048,3.987-0.048c1.323,0,2.564-0.054,3.607,0.19C65.384,0.695,67.023,1.727,68.234,2.854z M58.979,15.528
		c1.016,0.004,1.976,0.144,2.848-0.048c1.727-0.379,3.083-1.71,3.513-3.37c0.34-1.314-0.01-2.742-0.665-3.702
		c-0.959-1.406-3.227-2.558-5.553-1.805c-2.246,0.727-3.16,3.217-4.32,5.175c-0.358,0.604-0.705,1.218-1.044,1.804
		c-0.365,0.632-0.885,1.218-0.902,1.898C54.748,15.709,56.978,15.52,58.979,15.528z M47.207,6.556c-1,0-2.052-0.048-3.085-0.047
		c-2.143,0-4.298-0.179-6.313,0c-2.44,0.215-3.551,2.613-4.557,4.366c-3.603,6.279-7.41,12.559-10.917,18.75
		c-0.275,0.486-0.612,1.003-0.664,1.566c1.921,0.205,4.04,0.048,6.17,0.047c2.174,0,4.378,0.207,6.361,0
		c2.695-0.28,3.577-2.934,4.699-4.937c0.78-1.393,1.592-2.767,2.326-4.034c1.146-1.98,2.317-4.05,3.513-5.981
		c0.417-0.674,0.875-1.322,1.187-1.993c0.708-1.522,1.542-2.753,2.326-4.13c0.322-0.566,0.616-1.141,0.949-1.709
		c0.325-0.554,0.828-1.075,0.902-1.756C49.219,6.363,48.203,6.556,47.207,6.556z M16.875,22.315c-2.113,0-4.412-0.159-6.456,0
		c-3.123,0.243-4.852,3.926-3.275,6.979c0.952,1.842,4.102,2.747,6.266,1.565c1.087-0.593,1.654-1.646,2.279-2.705
		c0.754-1.279,1.459-2.484,2.184-3.702c0.369-0.621,0.859-1.211,0.997-1.994C18.259,22.207,17.556,22.315,16.875,22.315z"/>
</g>
<g id="Layer_1">
</g>
</svg>
