<?xml version="1.0" encoding="iso-8859-1"?>
<!-- Generator: Adobe Illustrator 19.2.0, SVG Export Plug-In . SVG Version: 6.00 Build 0)  -->
<svg version="1.1" xmlns="http://www.w3.org/2000/svg" xmlns:xlink="http://www.w3.org/1999/xlink" x="0px" y="0px"
	 viewBox="0 0 178.29 70.693" style="enable-background:new 0 0 178.29 70.693;" xml:space="preserve">
<g id="Canadian_x5F_National_x5F_Railway_x5F_59">
	<path style="fill-rule:evenodd;clip-rule:evenodd;" d="M165.448,0.213c3.988-0.191,8.519-0.097,12.587-0.048
		c0.257,0.914,0.145,1.9,0.145,2.835c0,2.909,0,5.904,0,8.888c0,11.856,0.047,22.654,0.048,34.782c0,3.863,0.329,8.346-0.528,11.338
		c-0.862,3.004-2.562,5.349-4.516,7.302c-1.87,1.869-4.441,3.47-7.351,4.468c-1.401,0.48-3.139,0.884-4.996,0.913
		c-1.802,0.027-3.317-0.419-4.9-1.009c-2.812-1.049-5.4-2.584-7.303-4.564c-0.947-0.986-1.824-2.106-2.739-3.17
		c-6.398-7.445-12.626-15.003-19.024-22.388c-5.465-6.307-10.841-12.762-16.286-19.169c-1.242-1.4-2.421-2.864-3.699-4.228
		c-0.898-1.03-1.76-1.605-3.171-1.682c-2.886-0.156-5.066,1.721-5.237,4.372c-0.09,1.397,0,2.944,0,4.709
		c0.001,6.19,0,12.482,0,18.544c0,3.224,0.086,6.328,0,9.416c-0.049,1.757,0.047,3.241-0.192,4.612
		c-0.228,1.308-0.662,2.489-1.201,3.603c-2.017,4.167-5.328,7.63-9.849,9.369c-1.121,0.431-2.54,0.759-3.988,0.817
		c-4.689,0.188-9.395,0-14.028,0c-15.939,0.001-31.262-0.048-47.417-0.048c-3.107,0-6.694,0.358-9.224-0.288
		c-5.011-1.281-8.374-4.761-10.617-8.648c-0.318-0.55-0.573-1.05-0.817-1.585c-0.752-1.653-1.057-3.842-1.057-6.149
		c0-9.312,0-19.028,0-28.73c0-3.316-0.25-6.351,0.096-9.224C0.866,9.594,3.687,5.934,7.486,3.336
		c1.856-1.269,4.223-2.373,6.726-2.882c2.73-0.556,5.961-0.336,9.272-0.336c15.779,0,31.505,0.018,47.273,0.096
		c0.009,0.039,0.048,0.048,0.048,0.096c0.232,4.173,0.118,9.087,0,13.5c0.008,0.056-0.01,0.085-0.048,0.096
		c-16.524,0.184-33.233,0.048-50.06,0.048c-1.301,0-2.52-0.112-3.507,0.096c-1.921,0.404-3.601,1.267-3.843,3.411
		c-0.113,0.995-0.101,2.287-0.048,3.459c0.109,2.394,0,4.613,0,6.966c0,6.958,0.008,13.916,0.048,21.283
		c0.019,3.592,0.828,6.455,4.131,6.726c1.141,0.094,2.355,0,3.603,0c11.933,0,23.511,0.046,35.647,0.048
		c6.765,0,14.231-0.001,21.427,0c2.722,0,4.481-0.031,5.477-1.729c0.919-1.568,0.913-3.772,0.913-6.342
		c0-7.197-0.048-14.714-0.048-21.571c0-2.527-0.089-4.925,0-7.158c0.274-6.857,3.131-11.059,7.014-14.653
		c2.92-2.301,6.261-4.237,11.146-4.468c4.588-0.217,8.08,1.237,10.857,2.93c0.778,0.475,1.43,0.875,2.018,1.441
		c0.566,0.546,1.037,1.172,1.585,1.826c1.037,1.236,2.019,2.542,3.075,3.795c4.232,5.024,8.52,9.962,12.635,14.893
		c8.425,10.097,17.059,19.857,25.126,29.882c0.763,0.818,1.447,1.358,2.594,1.538c2.5,0.39,4.235-1.574,4.708-3.459
		c0.277-1.104,0.145-2.454,0.145-3.987C165.403,32.177,165.297,16.374,165.448,0.213z"/>
</g>
<g id="Layer_1">
</g>
</svg>
