<?xml version="1.0" encoding="iso-8859-1"?>
<!-- Generator: Adobe Illustrator 19.2.0, SVG Export Plug-In . SVG Version: 6.00 Build 0)  -->
<svg version="1.1" xmlns="http://www.w3.org/2000/svg" xmlns:xlink="http://www.w3.org/1999/xlink" x="0px" y="0px"
	 viewBox="0 0 84.581 84.556" style="enable-background:new 0 0 84.581 84.556;" xml:space="preserve">
<g id="Canadian_x5F_Conference_x5F_on_x5F_Church_x5F_and_x5F_Society">
	<path style="fill-rule:evenodd;clip-rule:evenodd;" d="M27.911,0.098C28.218,1.909,27.849,4.274,28.12,6
		c0.803,0.275,1.7,0.156,2.559,0.156c5.235,0,10.715,0,16.032,0c0.838,0,1.721-0.118,2.507,0.157c0.174,1.972,0.172,4.66,0,6.632
		c-6.869,0.396-14.028-0.139-21.045,0.209c-0.283,1.512-0.156,3.219-0.156,4.96c0,11.795,0.027,23.724-0.104,34.623
		c-1.925,0.205-4.726,0.291-6.632,0c-0.354-12.943,0.171-26.668-0.209-39.531c-0.805-0.283-1.695-0.157-2.559-0.157
		c-2.371,0-5.137-0.052-7.833-0.052c-3.575,0-7.219,0.12-10.549-0.157c-0.101-1.819-0.124-4.606,0.052-6.632
		c1.566-0.282,3.242-0.07,4.961-0.104C10.212,6.002,15.947,6.266,21.07,6c0.422-1.615-0.075-4.149,0.261-5.849
		C23.251-0.116,25.896,0.041,27.911,0.098z"/>
	<path style="fill-rule:evenodd;clip-rule:evenodd;" d="M78.408,0.203c0.333,5.968-0.224,12.591,0.053,18.852
		c0.036,0.819-0.117,1.647,0.156,2.402c1.695,0.306,4.102-0.098,5.797,0.209c0.298,0.936,0.104,2.163,0.104,3.342
		c0,1.18,0.079,2.39-0.104,3.395c-1.715,0.304-4.134-0.095-5.849,0.209c-0.196,5.234-0.106,10.614-0.105,15.927
		c0,1.777,0.126,3.547-0.157,5.222c-1.955,0.172-4.625,0.174-6.579,0c-0.204-5.18-0.104-10.529-0.104-15.875
		c-0.001-1.788,0.115-3.571-0.157-5.274c-12.571-0.318-26.49,0.148-39.165-0.261c-0.219-1.929-0.145-4.632,0-6.685
		c1.579-0.224,3.224-0.232,4.856-0.157c1.613,0.075,3.259,0.081,4.909,0.052c9.611-0.17,19.957,0.215,29.453-0.105
		c0.204-3.3,0.104-6.963,0.104-10.601c-0.001-3.603,0.004-7.249,0.156-10.653C73.771,0.087,76.408-0.102,78.408,0.203z"/>
	<path style="fill-rule:evenodd;clip-rule:evenodd;" d="M63.108,32.058C63.433,45.071,63,58.661,63.265,71.537
		c0.805,0.275,1.69,0.156,2.559,0.156c6.035,0,12.607-0.086,18.538,0.104c0.282,1.888,0.114,4.576,0,6.58
		c-6.791,0.245-14.194-0.041-21.045,0.156c-0.266,0.861-0.084,1.887-0.104,2.872c-0.021,0.992-0.026,2.003-0.104,2.977
		c-1.851,0.219-4.376,0.226-6.476,0.053c-0.406-1.613,0.064-4.103-0.261-5.797c-0.798-0.282-1.711-0.157-2.559-0.156
		c-5.261,0-10.603-0.053-16.032-0.053c-0.826,0-1.722,0.123-2.507-0.156c-0.205-1.972-0.119-4.633,0-6.476
		c0.814-0.308,1.722-0.143,2.559-0.104c2.662,0.121,5.378-0.052,8.042-0.052c1.74,0,3.515,0.135,5.274,0.052
		c1.746-0.082,3.521,0.178,5.222-0.156c0.357-12.86-0.036-26.505,0.261-39.479C58.605,31.927,61.259,31.809,63.108,32.058z"/>
	<path style="fill-rule:evenodd;clip-rule:evenodd;" d="M6.396,35.034c2.108,0.067,4.488-0.137,6.423,0.104
		c0.289,6.489-0.089,14.097,0.208,21.045c13.056,0.38,26.57-0.013,39.166,0.261c0.234,0.952,0.092,2.138,0.104,3.29
		c0.012,1.146,0.085,2.317-0.104,3.342c-12.193,0.37-26.118-0.093-39.114,0.156c-0.29,0.742-0.205,1.579-0.208,2.402
		c-0.029,6.119,0.113,12.877-0.104,18.747c-2.04,0.054-4.575,0.155-6.528-0.052c-0.275-0.804-0.157-1.7-0.157-2.559
		c0-5.236,0-10.714,0-16.032c0-0.837,0.123-1.721-0.157-2.507c-1.683-0.336-4.198,0.16-5.796-0.261c-0.174-1.956-0.171-4.624,0-6.58
		c1.716-0.303,4.132,0.094,5.849-0.209c0.278-0.471,0.104-1.072,0.104-1.619c0-6.516-0.039-13.012,0.104-19.374
		C6.294,35.175,6.29,35.049,6.396,35.034z"/>
</g>
<g id="Layer_1">
</g>
</svg>
