<?xml version="1.0" encoding="iso-8859-1"?>
<!-- Generator: Adobe Illustrator 19.2.0, SVG Export Plug-In . SVG Version: 6.00 Build 0)  -->
<svg version="1.1" xmlns="http://www.w3.org/2000/svg" xmlns:xlink="http://www.w3.org/1999/xlink" x="0px" y="0px"
	 viewBox="0 0 73.838 73.913" style="enable-background:new 0 0 73.838 73.913;" xml:space="preserve">
<g id="Canadian_x5F_Council_x5F_on_x5F_Urban_x5F_and_x5F_Regional_x5F_Research">
	<path style="fill-rule:evenodd;clip-rule:evenodd;" d="M41.258,73.792c-0.303-0.718-0.18-1.582-0.203-2.454
		c-0.068-2.478-0.027-5.491,0.101-8.025c0.684-0.708,1.75-0.911,2.658-1.38c2.637-1.361,4.508-3.409,5.879-6.134
		c0.924-1.837,1.527-4.208,1.432-6.595c-0.096-2.355-0.854-4.415-1.842-6.134c-1.902-3.314-5.094-6.017-9.303-6.748
		c-5.025-0.873-9.441,0.76-12.064,3.425c-3.156,2.707-5.406,8.583-3.525,14.262c0.781,2.364,2.17,4.231,3.832,5.776
		c0.437,0.405,0.779,0.869,1.228,1.176c0.914,0.627,2.049,1.184,3.168,1.636c0.527,0.213,1.166,0.277,1.637,0.716
		c0.127,2.371,0.101,5.336,0.101,8.025c0,0.903,0.147,1.831-0.203,2.556c-1.32,0.103-2.605-0.236-3.836-0.46
		c-1.238-0.225-2.441-0.559-3.578-0.92c-4.594-1.461-8.535-3.342-11.91-6.083c-1.656-1.345-3.326-2.671-4.703-4.243
		c-1.41-1.609-2.772-3.267-3.936-5.061C2.66,51.69,0.182,45.288,0.006,36.425c-0.113-5.742,1.439-10.627,3.221-14.773
		c0.902-2.1,2.025-3.926,3.271-5.726c2.479-3.58,5.447-6.498,8.895-9.048c1.732-1.28,3.619-2.263,5.674-3.272
		c4.109-2.017,8.842-3.308,14.568-3.579c2.834-0.133,5.723,0.215,8.332,0.716c2.6,0.499,4.955,1.112,7.004,2.045
		c8.385,3.817,14.672,9.447,18.812,17.38c0.266,0.51,0.545,0.996,0.766,1.534c0.221,0.532,0.338,1.122,0.562,1.687
		c1.295,3.238,2.096,6.794,2.557,10.99c0.627,5.71-0.57,11.283-2.149,15.642c-1.656,4.58-3.783,8.085-6.594,11.501
		c-1.348,1.64-3.018,2.993-4.65,4.396c-1.639,1.407-3.506,2.564-5.42,3.629c-2.932,1.633-6.09,2.818-9.814,3.732
		c-0.604,0.148-1.236,0.215-1.891,0.357C42.56,73.767,41.875,73.912,41.258,73.792z M62.217,44.144
		c0.133-0.53,0.299-1.055,0.41-1.584c0.68-3.28,0.814-7.254,0.051-10.684c-1.918-8.609-6.832-14.301-13.547-18.044
		c-1.621-0.904-3.574-1.61-5.725-2.147c-4.389-1.096-10.06-1.042-14.058,0.205c-1.94,0.605-3.699,1.488-5.367,2.454
		c-6.57,3.804-11.414,9.48-12.83,18.402c-0.557,3.507-0.162,7.667,0.562,10.633c0.242,0.995,0.416,2.101,1.277,2.658
		c1.287-6.175,3.869-11.058,7.873-14.518c3.928-3.337,8.824-6.249,16.102-6.288c7.211-0.039,12.49,2.636,16.357,6.083
		c3.668,3.278,6.598,7.573,7.873,13.137c0.076,0.336-0.035,0.854,0.408,1.022C62.043,45.213,62.103,44.595,62.217,44.144z"/>
</g>
<g id="Layer_1">
</g>
</svg>
