<?xml version="1.0" encoding="iso-8859-1"?>
<!-- Generator: Adobe Illustrator 19.2.0, SVG Export Plug-In . SVG Version: 6.00 Build 0)  -->
<svg version="1.1" xmlns="http://www.w3.org/2000/svg" xmlns:xlink="http://www.w3.org/1999/xlink" x="0px" y="0px"
	 viewBox="0 0 74.646 73.824" style="enable-background:new 0 0 74.646 73.824;" xml:space="preserve">
<g id="canadian_x5F_guild_x5F_of_x5F_crafts">
	<path style="fill-rule:evenodd;clip-rule:evenodd;" d="M59.263,29.696c-1.085,0.23-2.27,0.096-3.495,0.098
		c-3.475,0-7.466,0.174-11.065-0.049c-0.431-1-0.399-2.105-0.631-3.105c-0.682-2.941-2.135-5.31-3.931-7.184
		c-1.267-1.18-2.624-2.332-4.319-3.106c-1.711-0.781-3.69-1.144-5.872-1.506c-0.096-3.852-0.049-8.879-0.049-13.152
		c0-0.779-0.164-1.537,0.485-1.648c0.881-0.152,2.395,0.125,3.397,0.291c7.371,1.219,12.66,4.457,16.938,8.734
		c2.449,2.451,4.493,5.422,5.97,8.736C58.19,21.171,59.45,25.183,59.263,29.696z"/>
	<path style="fill-rule:evenodd;clip-rule:evenodd;" d="M29.707,15.136c0.239,3.481,0.072,7.186,0.146,10.92
		c0.017,0.883,0.25,3.18-0.146,3.641c-0.191,0.223-0.89,0.217-1.601,0.291c-3.703,0.387-6.596,2.131-8.688,4.223
		c-2.645,2.644-4.065,5.406-4.61,10.143C11.313,44.53,7.32,44.45,3.597,44.45c-1.22,0-2.442,0.242-3.494-0.146
		c-0.216-1.082-0.046-2.225,0.097-3.252c1.308-9.387,6.224-15.697,12.327-20.334c3.409-2.588,7.751-4.344,12.861-5.289
		C26.721,15.181,28.301,14.989,29.707,15.136z"/>
	<path style="fill-rule:evenodd;clip-rule:evenodd;" d="M74.453,29.89c0.399,1.102,0.074,2.266-0.048,3.301
		c-0.886,7.506-4.375,13.16-8.59,17.375c-4.255,4.254-10.064,7.408-17.569,8.443c-1.072,0.148-2.184,0.092-3.3,0.389
		c-0.177,4.018-0.097,8.525-0.097,12.764c0,0.557,0.109,1.154-0.146,1.65c-4.558,0.15-8.555-1.129-11.939-2.67
		c-6.743-3.068-11.691-7.961-14.899-14.608c-1.618-3.352-2.709-7.363-2.621-11.939c1.098-0.342,2.376-0.193,3.64-0.193
		c3.522,0,7.67-0.17,11.065,0.049c0.368,1.029,0.381,2.108,0.63,3.106c0.732,2.934,2.121,5.258,3.931,7.135
		c1.277,1.098,2.621,2.295,4.319,3.057c1.662,0.746,3.622,1.432,5.873,1.311c0.257-0.523,0.146-1.166,0.146-1.746
		c0-2.986,0-6.205,0-9.27c0-1.223-0.115-2.443,0.146-3.543c1.072-0.27,2.127-0.35,3.106-0.582c2.897-0.691,5.215-2.115,7.037-3.932
		c2.136-2.1,3.798-4.801,4.319-8.541c0.069-0.498,0.012-1.051,0.243-1.555C64.62,29.73,69.56,29.665,74.453,29.89z"/>
</g>
<g id="Layer_1">
</g>
</svg>
