<?xml version="1.0" encoding="iso-8859-1"?>
<!-- Generator: Adobe Illustrator 19.2.0, SVG Export Plug-In . SVG Version: 6.00 Build 0)  -->
<svg version="1.1" xmlns="http://www.w3.org/2000/svg" xmlns:xlink="http://www.w3.org/1999/xlink" x="0px" y="0px"
	 viewBox="0 0 77.556 83.14" style="enable-background:new 0 0 77.556 83.14;" xml:space="preserve">
<g id="Canaco_x5F_Monterrey">
	<path style="fill-rule:evenodd;clip-rule:evenodd;" d="M39.592,0.028c2.72,0.851,4.85,2.535,7.216,3.79
		c2.315,1.228,4.522,2.721,6.904,4.049c3.987,2.223,8.16,4.622,12.199,7.06c0.665,0.402,1.405,0.689,1.609,1.246
		c0.239,0.65,0.174,1.882,0.156,2.7c-0.043,1.918,0.052,3.46,0.052,5.451c0,1.004-0.044,1.996,0.26,2.751
		c0.34,0.845,1.229,1.402,2.128,1.921c1.841,1.061,3.265,2.002,5.087,3.011c0.829,0.458,1.723,0.933,2.284,1.713
		c0.1,9.353,0.052,18.518,0.052,27.462c0,1.273,0.075,2.571-0.104,3.738c-0.478,3.123-3.683,4.088-6.074,5.606
		c-2.541,1.614-5.136,2.833-7.475,4.205c-3.691,2.165-7.351,4.246-11.161,6.385c-1.146,0.644-2.606,1.907-3.894,1.921
		c-0.994,0.011-1.874-0.815-2.751-1.298c-1.605-0.883-3.048-1.664-4.62-2.647c-0.868-0.543-1.79-1.263-2.855-1.194
		c-0.806,0.052-1.619,0.796-2.439,1.297c-1.683,1.029-2.979,1.747-4.776,2.7c-0.752,0.399-1.72,1.255-2.492,1.246
		c-0.481-0.005-1.174-0.494-1.713-0.779c-3.718-1.969-7.454-4.444-11.109-6.333c-3.195-1.751-6.378-3.519-9.552-5.399
		c-1.6-0.947-3.345-1.645-4.672-2.803c-0.705-0.616-1.254-1.241-1.557-2.18c-0.278-0.864-0.208-2.138-0.208-3.478
		c0-2.572,0.036-5.012,0-7.372c-0.035-2.294,0.065-4.643-0.052-7.112c-0.109-2.296,0.176-4.601,0.052-7.216
		c-0.05-1.053-0.001-2.235,0-3.53c0.001-1.078-0.227-2.612,0.052-3.426c0.197-0.575,1.451-1.119,2.18-1.558
		c1.718-1.032,3.107-1.707,4.776-2.699c1.173-0.698,2.51-1.161,2.907-2.44c0.455-1.465,0.143-3.566,0.207-5.451
		c0.031-0.906-0.04-1.91-0.052-2.855c-0.011-0.905-0.078-1.959,0.156-2.595c0.213-0.582,0.873-0.813,1.557-1.194
		c4.002-2.229,8.069-4.809,12.044-6.905c3.283-1.958,6.793-3.957,10.331-5.97C35.876,0.917,37.138-0.191,39.592,0.028z
		 M47.327,24.738c0-2.904,0.025-6.008-0.052-8.617c-1.004-0.928-2.281-1.59-3.582-2.336c-1.219-0.699-2.478-1.752-4.049-1.921
		c-1.905-0.206-3.017,0.635-4.153,1.246c-1.027,0.552-2.239,1.268-3.27,1.869c-0.566,0.329-1.369,0.716-1.505,1.09
		c-0.179,0.486-0.058,1.803-0.052,2.543c0.015,1.988,0,3.487,0,5.503c0,0.604-0.188,2.114,0.416,2.336
		c0.368,0.136,1.137-0.378,1.609-0.623c0.592-0.307,1.087-0.593,1.506-0.831c0.896-0.509,2.165-1.365,3.062-1.661
		c1.872-0.619,3.756,0.157,4.932,0.831c1.098,0.628,2.077,1.203,3.114,1.817c0.502,0.297,0.944,0.794,1.765,0.727
		C47.474,26.182,47.327,25.422,47.327,24.738z M13.169,36.834c0.772-0.424,1.482-0.941,2.336-1.298
		c0.905-0.661,1.407-0.825,2.284-1.35c0.608-0.364,1.81-0.689,2.129-1.505c0.26-0.667,0.052-1.828,0.052-2.596
		c0-1.841,0.01-4.153,0-6.074c-0.004-0.853,0.088-1.502-0.467-1.558c-0.55-0.055-1.579,0.807-2.077,1.09
		c-0.625,0.357-1.288,0.691-1.869,1.039c-1.969,1.178-4.244,2.158-4.88,4.516c-0.335,1.243-0.208,2.792-0.208,4.361
		c0,1.493-0.125,3.063,0.156,4.464C11.618,37.746,12.398,37.257,13.169,36.834z M60.773,23.908c-0.81-0.495-1.813-1.354-2.596-1.09
		c-0.188,2.385-0.104,5.269-0.104,7.839c0,0.844-0.167,2.027,0.052,2.648c0.17,0.483,0.979,0.803,1.505,1.142
		c1.757,1.13,3.343,2.045,5.087,3.011c0.736,0.39,1.417,1.107,2.388,1.09c0.363-0.689,0.208-1.611,0.208-2.491
		c0-2.517,0.389-5.915-0.519-7.631c-0.87-1.644-2.263-2.347-3.79-3.219C62.425,24.778,61.607,24.417,60.773,23.908z M37.36,35.432
		c-1.158,0.447-2.196,1.138-3.478,1.869c-0.767,0.437-2.918,1.441-3.167,2.232c-0.159,0.504-0.052,1.544-0.052,2.44
		c0,2.561-0.237,5.427,0.623,7.008c1.029,1.893,3.374,2.665,5.243,3.842c0.554,0.349,1.121,1.032,1.817,1.09
		c0.669,0.056,1.421-0.373,2.024-0.727c2.417-1.417,5.598-2.476,6.645-4.983c0.427-1.021,0.312-2.821,0.312-4.257
		c0-0.641,0-1.293,0-2.128c0-0.647,0.123-1.584-0.052-2.128c-0.188-0.582-0.883-0.932-1.506-1.298
		c-0.612-0.36-1.299-0.738-1.817-1.039c-1.341-0.776-2.42-1.607-3.686-2.024c-0.479-0.158-1.272-0.186-1.609-0.156
		C38.237,35.21,37.737,35.286,37.36,35.432z M17.062,64.607c0.588,0.34,1.284,0.971,2.077,0.934
		c0.697-0.032,1.587-0.751,2.284-1.194c0.682-0.434,1.49-0.868,2.232-1.298c0.667-0.386,1.288-0.873,2.128-1.35
		c0.538-0.305,1.988-0.878,1.973-1.558c-0.008-0.375-0.76-0.761-1.35-1.142c-2.542-1.642-6.09-2.809-6.333-6.438
		c-0.113-1.694-0.087-3.818-0.052-5.191c0.024-0.902,0.253-2.082-0.726-1.662c-0.765,0.328-1.473,0.874-2.233,1.298
		c-1.594,0.889-2.876,1.674-4.517,2.544c-0.671,0.357-1.817,0.849-2.024,1.505c-0.302,0.959-0.016,2.568,0,3.634
		c0.021,1.343-0.11,2.487,0,3.738c0.262,2.978,2.518,3.862,4.568,5.139C15.772,63.887,16.37,64.207,17.062,64.607z M57.917,49.344
		c-0.082,1.183,0.029,2.176-0.052,3.219c-0.279,3.584-3.506,4.792-5.866,6.178c-0.563,0.331-2.125,1.095-2.128,1.557
		c-0.004,0.571,1.684,1.368,2.025,1.558c1.639,0.913,3.121,1.751,4.516,2.647c0.671,0.431,1.554,1.121,2.544,1.038
		c0.628-0.052,1.137-0.522,1.713-0.831c2.013-1.077,4.715-1.96,5.814-3.789c0.848-1.412,0.831-3.803,0.831-6.281
		c0-0.986,0.176-2.666-0.104-3.322c-0.212-0.499-1.331-1.146-1.973-1.505c-1.566-0.877-3.031-1.604-4.464-2.492
		c-0.511-0.316-1.857-1.245-2.596-1.038C57.856,46.672,57.951,48.861,57.917,49.344z M38.502,66.58
		c-1.056,0.519-1.814,1.039-2.855,1.609c-1.352,0.739-2.458,1.405-3.841,2.232c-0.507,0.303-1.677,0.842-1.661,1.402
		c0.014,0.465,1.123,1.092,1.609,1.35c1.511,0.801,2.441,1.446,3.841,2.18c0.665,0.348,1.34,0.788,2.025,0.986
		c2.453,0.71,4.456-0.928,6.021-1.817c0.712-0.404,1.446-0.822,2.129-1.194c0.729-0.397,1.586-0.759,1.869-1.505
		c-0.08-0.435-0.545-0.668-0.883-0.883c-1.847-1.174-3.721-2.056-5.607-3.271c-0.711-0.458-1.852-1.296-2.544-1.09
		C38.571,66.58,38.537,66.58,38.502,66.58z"/>
</g>
<g id="Layer_1">
</g>
</svg>
