<?xml version="1.0" encoding="iso-8859-1"?>
<!-- Generator: Adobe Illustrator 19.2.0, SVG Export Plug-In . SVG Version: 6.00 Build 0)  -->
<svg version="1.1" xmlns="http://www.w3.org/2000/svg" xmlns:xlink="http://www.w3.org/1999/xlink" x="0px" y="0px"
	 viewBox="0 0 73.809 78.687" style="enable-background:new 0 0 73.809 78.687;" xml:space="preserve">
<g id="Canadian_x5F_Crafts_x5F_Council">
	<path style="fill-rule:evenodd;clip-rule:evenodd;" d="M51.904,12.947c2.774,0.085,6.517,0.219,9.218,0.1
		c1.497-0.066,3.1-0.238,4.309,0.2c1.071,0.389,2.096,1.043,2.756,1.904c0.496,0.647,0.874,1.475,1.353,2.255
		c0.931,1.516,1.738,2.996,2.655,4.559c0.934,1.592,2.058,3.476,1.253,6.012c-0.314,0.988-0.892,1.948-1.453,2.906
		c-1.35,2.302-2.685,4.473-4.008,6.914c-0.238,0.439-0.748,1.129-0.701,1.553c0.052,0.478,0.521,1.142,0.751,1.553
		c1.408,2.515,2.771,4.727,4.259,7.214c0.582,0.973,1.174,2.008,1.402,3.156c0.564,2.83-1.137,4.846-2.254,6.713
		c-0.571,0.954-1.092,1.97-1.653,2.956c-1.103,1.934-2.103,3.817-4.609,4.359c-1.216,0.263-2.679,0.17-4.208,0.201
		c-2.004,0.04-4.286,0-6.514,0c-0.75,0-1.726-0.118-2.204,0.1c-0.648,0.294-0.901,1.557-1.303,2.254
		c-1.26,2.188-2.634,4.604-3.857,6.764c-0.959,1.693-1.669,2.854-3.507,3.607c-1.679,0.687-4.198,0.4-6.664,0.4
		c-2.538,0-5.059,0.183-6.613-0.501c-1.673-0.736-2.456-2.122-3.356-3.707c-1.253-2.206-2.54-4.516-3.857-6.764
		c-0.413-0.703-0.792-1.512-1.453-2.054c-2.461-0.177-5.373-0.1-8.066-0.1c-3.156,0-5.163,0.109-6.914-1.253
		c-1.457-1.132-2.33-3.243-3.307-4.859c-0.492-0.815-0.99-1.73-1.503-2.605c-0.52-0.886-1.108-1.732-1.403-2.655
		c-0.525-1.647-0.105-3.298,0.501-4.459c1.544-2.958,3.094-5.57,4.809-8.517c0.307-0.527,0.897-1.292,0.902-1.753
		c0.005-0.472-0.547-1.132-0.852-1.653c-1.604-2.743-2.944-5.139-4.559-7.866c-0.61-1.03-1.26-2.302-1.253-3.707
		c0.006-1.191,0.544-2.365,1.103-3.307c0.551-0.929,1.114-1.924,1.603-2.756c1.619-2.756,2.741-6.117,6.263-6.864
		c1.167-0.247,2.553-0.195,4.008-0.15c2.823,0.088,5.838-0.15,8.567-0.05c0.583-0.388,0.86-1.097,1.202-1.703
		c1.013-1.796,2.098-3.584,3.157-5.461c1.412-2.503,2.498-5.479,5.912-5.812c1.64-0.16,3.4,0,5.06,0c1.66,0.001,3.424-0.147,5.01,0
		c1.499,0.14,2.987,1.194,3.757,2.254c1.157,1.594,2.081,3.496,3.156,5.31c0.52,0.878,1.027,1.779,1.553,2.656
		C50.886,11.183,51.319,12.116,51.904,12.947z M27.105,29.931c2.767-4.885,5.421-9.831,8.367-14.629
		c0.491-0.799,0.98-1.899,1.704-2.154c0.924-0.326,2.549-0.088,3.757-0.1c0.296-0.003,0.589-0.053,0.852-0.05
		c0.688,0.006,1.544,0.265,2.104-0.201c-0.049-0.61-0.432-1.119-0.702-1.603c-0.575-1.032-1.132-2.001-1.753-3.056
		c-0.238-0.403-0.661-1.198-1.102-1.353c-0.562-0.197-1.783-0.05-2.655-0.05c-0.852,0-1.88-0.058-2.656-0.05
		c-0.37,0.004-1.337-0.046-1.753,0.1c-0.647,0.229-1.143,1.579-1.553,2.255c-1.48,2.439-2.928,4.963-4.208,7.314
		c-1.468,2.399-2.852,4.821-4.208,7.265c-0.457,0.822-1.076,1.621-1.253,2.605c0.683,1.663,1.639,3.183,2.505,4.659
		c0.279,0.476,0.498,1.116,1.052,1.353C26.223,31.583,26.652,30.729,27.105,29.931z M65.08,29.279
		c0.251-0.418,0.539-0.954,0.852-1.503c0.288-0.506,0.762-1.081,0.752-1.653c-0.01-0.576-0.563-1.299-0.802-1.703
		c-0.749-1.271-1.156-1.938-1.903-3.207c-0.316-0.536-0.732-1.322-1.102-1.453c-0.438-0.155-1.364-0.05-2.004-0.05
		c-5.953-0.001-11.649,0.05-17.234,0.05c-0.95,0-2.141-0.166-2.756,0.05c-0.413,0.145-0.834,0.959-1.052,1.353
		c-0.604,1.091-1.166,2.106-1.753,3.106c-0.29,0.493-0.693,1.022-0.702,1.653c1.65,0.33,3.789,0.094,5.661,0.1
		c3.777,0.012,8.048,0.042,12.025,0c1.183-0.012,3.164-0.234,4.058,0.1c0.896,0.335,1.596,2.221,2.055,3.006
		c0.316,0.542,0.654,1.046,0.951,1.553c0.305,0.518,0.504,1.201,1.103,1.453C64.067,31.328,64.432,30.361,65.08,29.279z
		 M14.329,19.811c-1.128,0-2.311-0.121-3.306,0c-0.75,0.09-0.924,0.85-1.303,1.453c-0.71,1.133-1.259,2.136-1.854,3.206
		c-0.28,0.504-0.758,1.271-0.752,1.804c0.009,0.754,0.841,1.798,1.253,2.505c0.512,0.879,0.929,1.71,1.352,2.455
		c2.339,4.11,4.495,7.921,6.864,12.024c0.398,0.689,0.969,1.977,1.553,2.254c0.751,0.357,2.341,0.15,3.457,0.15
		c1.367,0,2.725,0.11,3.507-0.15c-0.198-0.916-0.788-1.668-1.252-2.455c-0.467-0.79-0.891-1.624-1.353-2.405
		c-2.322-3.92-4.638-7.856-6.864-11.773c-0.458-0.807-1.011-1.588-1.252-2.505c0.235-1.283,0.979-2.247,1.553-3.256
		c0.29-0.509,0.564-1.04,0.852-1.553c0.276-0.492,0.728-0.968,0.702-1.604C16.557,19.698,15.429,19.81,14.329,19.811z
		 M44.088,32.887c-1.26,0.06-2.536-0.09-3.808-0.05c-2.579,0.081-5.443-0.164-7.815,0.05c-2.124,0.191-4.415-0.267-6.413,0.15
		c0.093,0.704,0.503,1.316,0.852,1.903c1.744,2.937,3.443,5.893,5.11,8.818c0.663,1.164,1.405,2.306,2.104,3.457
		c0.434,0.782,0.857,1.611,1.303,2.405c0.442,0.788,0.848,1.668,1.553,2.204c0.657-0.624,0.999-1.484,1.453-2.254
		c2.977-5.049,5.95-10.248,8.817-15.28c0.217-0.381,0.557-0.824,0.501-1.303C46.585,32.704,45.318,32.828,44.088,32.887z
		 M59.72,58.638c0.935,0,2.559,0.223,3.406-0.15c0.402-0.177,0.841-0.917,1.103-1.353c0.702-1.17,1.128-1.998,1.804-3.106
		c0.297-0.487,0.775-1.212,0.752-1.753c-0.032-0.729-0.881-1.775-1.303-2.505c-2.858-4.939-5.586-9.744-8.517-14.629
		c-0.409-0.68-1.002-2.045-1.604-2.254c-0.73-0.254-2.162-0.05-3.106-0.05c-1.304,0-2.639-0.035-3.407,0.05
		c-0.325,0.411,0.109,0.92,0.301,1.252c0.227,0.394,0.481,0.827,0.702,1.202c1.423,2.427,2.613,4.887,4.108,7.315
		c1.408,2.288,2.807,4.807,4.209,7.214c0.396,0.679,1.276,1.804,1.252,2.555c-0.017,0.528-0.476,1.068-0.751,1.553
		c-0.312,0.546-0.554,1.079-0.802,1.503c-0.604,1.032-1.326,1.863-1.503,3.006C57.426,58.757,58.604,58.638,59.72,58.638z
		 M48.097,46.414c-0.444,0.456-1.02,1.586-1.453,2.354c-2.778,4.925-5.503,9.501-8.267,14.429c-0.457,0.815-0.958,1.953-1.603,2.204
		c-0.733,0.286-2.417,0.1-3.557,0.101c-0.571,0-1.151,0.024-1.704,0.05c-0.534,0.025-1.214-0.193-1.553,0.25
		c-0.038,0.588,0.42,1.089,0.702,1.604c0.277,0.507,0.542,1.032,0.852,1.553c0.46,0.774,1.171,2.565,2.004,2.856
		c0.837,0.292,2.513,0.1,3.507,0.1c0.956,0.001,2.749,0.251,3.557-0.1c0.537-0.233,1.035-1.419,1.453-2.154
		c2.656-4.669,5.257-9.292,7.916-13.828c0.453-0.773,1.018-1.552,1.353-2.305c0.416-0.935,0.34-1.535-0.05-2.405
		c-0.736-1.642-2.042-3.525-2.906-4.809c-0.033,0-0.066,0-0.1,0C48.188,46.338,48.133,46.367,48.097,46.414z M10.271,46.464
		c-0.734,1.407-1.548,2.839-2.355,4.309c-0.233,0.426-0.716,1.036-0.701,1.553c0.015,0.522,0.529,1.24,0.801,1.704
		c0.697,1.189,1.231,1.927,1.854,3.156c0.285,0.562,0.477,1.317,1.002,1.503c0.62,0.219,1.83,0.05,2.705,0.05
		c6.606,0,13.041,0.086,19.338,0c0.851-0.789,1.328-1.907,1.904-2.906c0.29-0.503,0.603-0.994,0.902-1.503
		c0.301-0.513,0.724-1.046,0.751-1.703c-0.831-0.269-1.766-0.15-2.655-0.15c-5.7,0-11.036,0-16.533,0
		c-0.919,0-2.133,0.155-2.755-0.05c-0.418-0.138-0.833-0.819-1.152-1.353c-0.734-1.227-1.123-2.073-1.804-3.256
		c-0.26-0.453-0.733-1.402-1.152-1.453C10.362,46.388,10.308,46.417,10.271,46.464z"/>
</g>
<g id="Layer_1">
</g>
</svg>
