<?xml version="1.0" encoding="iso-8859-1"?>
<!-- Generator: Adobe Illustrator 19.2.0, SVG Export Plug-In . SVG Version: 6.00 Build 0)  -->
<svg version="1.1" xmlns="http://www.w3.org/2000/svg" xmlns:xlink="http://www.w3.org/1999/xlink" x="0px" y="0px"
	 viewBox="0 0 79.038 55.63" style="enable-background:new 0 0 79.038 55.63;" xml:space="preserve">
<g id="Canadian_x5F_Industrial_x5F_Advertisers_x5F_68">
	<path style="fill-rule:evenodd;clip-rule:evenodd;" d="M46.483,0.118c0.318,1.582,0.014,3.402,0.099,5.211
		c0.084,1.779,0.16,3.709-0.099,5.361c-3.26,0.197-7.08,0.1-10.422,0.049c-0.366-1.603-0.021-3.512-0.099-5.359
		c-0.058-1.375,0-2.754,0-4.119c0-0.383-0.131-0.908,0.198-1.191C39.47,0.019,43.255-0.079,46.483,0.118z"/>
	<path style="fill-rule:evenodd;clip-rule:evenodd;" d="M34.721,11.98c0.022,0.045,0.043,0.09,0.099,0.1
		c0.056,4.43,0.144,9.734-0.049,14.242c-2.356,0.522-5.743-0.223-8.189,0.248c-2.237,0.434-3.889,1.838-4.913,3.525
		c-1.178,1.939-1.219,4.771-0.297,6.748c0.826,1.773,2.523,3.379,4.516,3.871c1.414,0.35,3.225,0.148,4.913,0.148
		c1.724,0,3.438,0.082,4.963-0.098c0.243-4.479,0.099-9.381,0.099-14.293c0-2.432,0-4.893,0-7.295c0-2.44-0.032-4.84,0.199-7.147
		c8.508-0.234,17.303-0.021,25.21-0.051c0.702,0.723,0.864,1.748,1.241,2.631c1.908,4.465,3.685,9.057,5.559,13.598
		c1.487,3.605,2.894,7.244,4.416,10.918c0.743,1.791,1.559,3.592,2.233,5.41c1.368,3.686,3.126,7.203,4.317,10.967
		c-4.696,0.162-9.985,0.158-14.54,0.051c-4.588-10.551-8.841-21.432-13.301-32.109c-0.969-2.76-2.106-5.531-3.126-8.238
		c-0.328-0.869-0.623-1.84-1.241-2.531c-0.265,3.551-0.149,7.189-0.149,10.818c0.001,9.113-0.095,18.092-0.049,26.75
		c0.009,1.779,0.212,3.543-0.1,5.26c-3.874,0.182-7.822,0.1-11.761,0.1c-10.378-0.002-21.504-0.098-31.861-0.1
		c-0.916,0-1.881,0.119-2.779-0.149c-0.341-3.631,0.111-7.31-0.05-10.969c-0.162-3.662,0.138-7.334,0-11.016
		c-0.13-3.467,0-7.086,0-10.721c0-2.678,0-5.281,0-8.09c0-0.869-0.111-1.789,0.149-2.629C11.732,11.812,23.194,11.917,34.721,11.98z
		"/>
</g>
<g id="Layer_1">
</g>
</svg>
