<?xml version="1.0" encoding="iso-8859-1"?>
<!-- Generator: Adobe Illustrator 19.2.0, SVG Export Plug-In . SVG Version: 6.00 Build 0)  -->
<svg version="1.1" xmlns="http://www.w3.org/2000/svg" xmlns:xlink="http://www.w3.org/1999/xlink" x="0px" y="0px"
	 viewBox="0 0 72.753 59.993" style="enable-background:new 0 0 72.753 59.993;" xml:space="preserve">
<g id="capital_x5F_planning_x5F_resources">
	<path style="fill-rule:evenodd;clip-rule:evenodd;" d="M29.937,0.158c0.245,7.109,0.091,14.197,0.091,21.394
		c-0.001,2.378,0.146,4.772-0.091,7.071c-1.197,0.244-2.435,0.136-3.672,0.136c-7.97-0.001-16.198-0.091-24.432-0.09
		c-0.547,0-1.179,0.117-1.677-0.182c-0.248-1.06,0.001-2.131,0.136-3.127c0.949-7.033,4.184-12.353,8.159-16.408
		c4.697-4.513,10.512-8.479,19.219-8.884C28.323,0.037,29.355-0.109,29.937,0.158z"/>
	<path style="fill-rule:evenodd;clip-rule:evenodd;" d="M31.885,28.623c-0.2-2.396-0.136-4.822-0.136-7.253
		c0.002-6.396,0.046-12.928,0.046-19.672c0-0.539-0.122-1.15,0.181-1.632c5.994-0.079,13.046,0,19.038,0
		c3.186,0,5.907,0.336,8.158,1.36c2.23,1.014,3.944,2.415,5.395,4.124c1.483,1.582,2.704,3.686,3.264,6.255
		c0.188,0.867,0.178,1.908,0.227,2.946c0.202,4.278-1.408,7.167-3.354,9.337c-1.522,1.702-3.252,3.06-5.62,3.898
		c-2.45,0.867-5.304,0.816-8.703,0.816c-4.443,0-9.233,0-14.007,0c-0.808,0-1.609,0.017-2.401,0
		C33.273,28.79,32.534,28.834,31.885,28.623z"/>
	<path style="fill-rule:evenodd;clip-rule:evenodd;" d="M29.982,30.708c0.108,8.189,0.092,16.963,0.091,25.655
		c0,1.181,0.143,2.396-0.182,3.49c-1.149,0.27-2.329,0.063-3.399-0.091c-7.604-1.096-13.169-4.255-17.587-8.522
		C4.416,46.574,0.795,40.67,0.111,32.068c-0.038-0.48-0.297-1.14,0.136-1.541c9.396-0.06,18.559-0.001,28.058,0
		C28.857,30.527,29.471,30.403,29.982,30.708z"/>
	<path style="fill-rule:evenodd;clip-rule:evenodd;" d="M72.544,59.899c-12.521,0.179-25.278,0.047-38.256,0.045
		c-0.794,0-1.65,0.13-2.403-0.181c-0.312-4.686,0.097-9.679-0.136-14.686c-0.055-1.18-0.038-2.437,0-3.671
		c0.094-2.957,0.046-5.677,0.046-9.02c0-0.644-0.095-1.615,0.181-1.723c0.033-0.042,0.083-0.069,0.137-0.091
		c5.954,0.23,11.955-0.404,17.224,0.272c5.034,0.646,9.089,2.625,12.42,5.122c3.328,2.496,5.945,5.601,8.022,9.519
		c1.509,2.844,2.513,6.277,2.856,10.334C72.743,57.109,72.871,58.539,72.544,59.899z"/>
</g>
<g id="Layer_1">
</g>
</svg>
