<?xml version="1.0" encoding="iso-8859-1"?>
<!-- Generator: Adobe Illustrator 19.2.0, SVG Export Plug-In . SVG Version: 6.00 Build 0)  -->
<svg version="1.1" xmlns="http://www.w3.org/2000/svg" xmlns:xlink="http://www.w3.org/1999/xlink" x="0px" y="0px"
	 viewBox="0 0 58.22 80.279" style="enable-background:new 0 0 58.22 80.279;" xml:space="preserve">
<g id="Carlo_x5F_Tiscornia">
	<path style="fill-rule:evenodd;clip-rule:evenodd;" d="M28.966,13.341c0.901,0.393,2.182,0.153,3.371,0.201
		c1.169,0.047,2.348-0.059,3.271,0.151c0.161,0.393,0.161,1.367,0,1.761c-2.014,0.391-4.703-0.075-6.993,0.151
		c-0.458,1.135-0.539,2.394-0.755,3.623c-1.488,8.45-3.154,17.016-4.73,25.66c-1.543,8.467-3.069,17.088-4.68,25.71
		c-0.275,1.476-1.196,4.366,0.503,4.579c1.049-0.08,1.637-0.982,2.113-1.711c1.029-1.572,1.568-3.455,2.265-5.384
		c0.346-0.956,0.573-1.945,1.107-2.717c0.376-0.067,0.883,0.15,1.106,0.402c-0.303,1.399-0.815,2.737-1.258,4.076
		c-0.436,1.315-0.897,2.581-1.561,3.723c-1.256,2.165-3.126,4.169-5.333,5.283c-2.288,1.156-6.057,1.861-8.905,1.006
		c-2.67-0.801-4.668-2.477-6.037-4.528c-1.257-1.738-2.13-3.888-2.365-6.491c-0.245-2.715,0.064-5.445,0.554-8
		c0.948-4.954,1.867-10.151,2.666-14.994c1.666-10.088,3.706-20.042,5.233-30.088c-0.975-0.34-2.304-0.201-3.572-0.201
		c-1.292,0-2.596,0.077-3.674-0.101c-0.234-0.365-0.234-1.497,0-1.861c2.193-0.231,5.17,0.099,7.598-0.151
		c0.595-1.217,0.485-3.137,1.007-4.427c2.823-0.124,5.267-0.609,7.597-1.309c3.38-1.015,6.267-2.657,8.806-4.478
		c0.562-0.404,1.237-0.945,1.811-1.509c0.562-0.552,1.069-1.35,1.711-1.66c0.348-0.133,1.063-0.043,1.258,0.302
		c0.18,0.317-0.008,1.158-0.101,1.661C30.321,5.575,29.371,10.09,28.966,13.341z"/>
	<path style="fill-rule:evenodd;clip-rule:evenodd;" d="M57.192,75.479c0.294,0.108,0.359,0.446,0.554,0.654
		c-0.14,0.524-0.748,0.791-1.158,1.057c-3.027,1.966-6.968,3.432-12.074,3.019c-5.349-0.433-8.932-2.842-11.875-5.635
		c-2.196-2.085-4.029-4.657-5.081-8.05c-0.351-1.135-0.754-2.285-0.855-3.522c-0.464-5.654,0.822-10.515,3.421-13.887
		c2.842-3.815,6.962-6.8,12.378-8.05c2.103-0.485,4.87-0.336,7.145,0c3.746,0.555,6.103,1.752,7.698,4.629
		c1.169,2.109,1.184,4.989-0.051,7.044c-0.861,1.434-2.533,2.907-4.327,3.472c-2.206,0.694-4.851,0.183-6.44-1.006
		c-1.497-1.126-2.761-2.877-3.019-5.333c-0.267-2.534,0.744-4.605,2.113-6.038c0.196-0.521,1.14-0.647,1.006-1.358
		c-0.117-0.629-1.606-0.525-2.264-0.402c-1.234,0.231-2.301,1.208-2.717,2.164c-0.391,0.897-0.302,2.399-0.302,3.874
		c0,8.431,0.049,16.229,0.05,24.603c0,1.426-0.145,3.229,0.252,4.176c1.282,3.067,6.565,2.458,9.66,1.509
		c1.855-0.569,3.065-1.288,4.478-2.214C56.203,75.908,56.638,75.479,57.192,75.479z"/>
</g>
<g id="Layer_1">
</g>
</svg>
