<?xml version="1.0" encoding="iso-8859-1"?>
<!-- Generator: Adobe Illustrator 19.2.0, SVG Export Plug-In . SVG Version: 6.00 Build 0)  -->
<svg version="1.1" xmlns="http://www.w3.org/2000/svg" xmlns:xlink="http://www.w3.org/1999/xlink" x="0px" y="0px"
	 viewBox="0 0 62.419 70.12" style="enable-background:new 0 0 62.419 70.12;" xml:space="preserve">
<g id="carolina_x5F_trade_x5F_zone">
	<path style="fill-rule:evenodd;clip-rule:evenodd;" d="M28.458,0.016c1.194-0.147,2.232,0.773,2.562,1.837
		c0.359,1.16,0.145,2.891,0.145,4.447c0,2.649-0.358,4.909,1.643,5.559c0.89,0.289,2.181,0.144,3.48,0.145
		c7.537,0.002,13.675-0.003,21.365,0c2.274,0,4.029,0.01,4.592,1.836c0.223,0.725,0.097,1.821,0.097,2.949c0,5.072,0,9.998,0,15.08
		c0,1.791,0.248,4.702-0.145,5.897c-0.368,1.12-1.522,2.136-3.045,1.74c-0.568-0.147-1.284-0.803-1.837-1.306
		c-1.616-1.468-3.122-3.199-4.64-4.641c-4.313-4.093-8.099-8.186-12.422-12.373c-0.991-0.96-2.06-1.964-3.142-3.046
		c-0.926-0.926-2.084-2.725-3.818-2.609c-0.908,0.06-1.698,0.703-1.982,1.498c-0.395,1.105-0.145,2.792-0.145,4.205
		c0,2.745,0.258,5.05-1.402,6.091c-0.568,0.355-2.088,0.241-3.287,0.241c-6.382,0-11.991-0.048-18.271-0.049
		c-0.915,0-2.226,0.149-2.997-0.096c-0.907-0.289-1.909-1.401-1.595-2.949c0.246-1.215,1.791-2.37,2.707-3.286
		c3.073-3.072,5.867-6.012,8.991-8.942c3.261-3.059,5.909-5.764,9.039-8.893c0.475-0.476,0.974-0.994,1.45-1.547
		C26.462,1.036,27.286,0.161,28.458,0.016z"/>
	<path style="fill-rule:evenodd;clip-rule:evenodd;" d="M21.45,47.82c1.246,1.513,3.071,2.913,4.398,4.592
		c0.661,0.835,1.568,1.807,3.045,1.547c2.156-0.379,2.094-2.761,2.03-5.462c-0.067-2.844-0.357-5.505,1.885-6.188
		c0.739-0.225,1.929-0.096,3.045-0.097c2.989,0,6.247-0.049,9.28-0.048c2.938,0.001,6.177,0.049,9.184,0.048
		c1.054,0,2.202-0.114,2.948,0.146c1.036,0.36,2.091,1.855,1.401,3.383c-0.454,1.009-1.753,1.947-2.61,2.804
		c-6.256,6.257-12.678,12.557-18.851,18.706c-0.991,0.608-1.834,2.449-3.335,2.804c-1.326,0.313-2.469-0.557-2.852-1.595
		c-0.369-0.997-0.197-2.967-0.145-4.351c0.057-1.536,0.092-3.21-0.097-4.302c-0.154-0.891-0.737-1.625-1.595-1.934
		c-0.822-0.296-2.057-0.193-3.287-0.193c-6.574,0-13.487-0.05-20.591-0.048c-2.467,0-4.595,0.211-5.172-1.644
		c-0.227-0.729-0.097-1.96-0.097-3.046c0-6.366,0-11.942,0-18.318c0-2.533-0.125-4.307,1.981-4.737
		c1.696-0.348,2.8,1.253,3.722,2.175C10.95,37.271,16.441,42.603,21.45,47.82z"/>
</g>
<g id="Layer_1">
</g>
</svg>
