<?xml version="1.0" encoding="iso-8859-1"?>
<!-- Generator: Adobe Illustrator 21.0.2, SVG Export Plug-In . SVG Version: 6.00 Build 0)  -->
<svg version="1.1" xmlns="http://www.w3.org/2000/svg" xmlns:xlink="http://www.w3.org/1999/xlink" x="0px" y="0px"
	 viewBox="0 0 15.398 20.784" style="enable-background:new 0 0 15.398 20.784;" xml:space="preserve">
<g id="Casa_x5F_Nostra">
	<path d="M6.229,1.172C6.413,0.48,7.107-0.064,7.834,0.006c0.822,0.015,1.496,0.79,1.474,1.599c0.008,0.708-0.519,1.363-1.2,1.538
		C8.103,3.38,8.1,3.617,8.103,3.854c0.416,0.067,0.847,0.143,1.204,0.381c0.512,0.338,0.808,0.906,1.275,1.291
		c0.482-0.344,0.896-0.807,1.459-1.029c0.041,0.089,0.083,0.177,0.121,0.268c-0.973,0.546-1.735,1.419-2.225,2.41
		C9.396,6.406,9.05,5.381,8.109,5.004C8.11,5.851,8.104,6.698,8.108,7.545c0.933,0.321,1.895,0.556,2.85,0.8
		c0.469-0.943,0.991-1.97,2.018-2.406c0.05,0.089,0.099,0.18,0.144,0.273c-0.894,0.444-1.41,1.33-1.77,2.223
		c1.1,0.334,2.324,0.883,2.746,2.043c0.569,1.734,0.18,3.868-1.274,5.06c-0.622,0.574-1.419,0.881-2.177,1.225
		c-0.265,0.073-0.559,0.02-0.77-0.159c-0.649-0.478-1.043-1.245-1.759-1.64c0.018,0.411-0.049,0.837,0.036,1.239
		c0.352,0.471,0.731,1.012,1.307,1.213c1.445,0.036,2.93-0.327,4.133-1.146c0.774-0.529,1.48-1.339,1.485-2.326
		c0.106,0,0.213,0,0.32,0c-0.007,1.805-1.485,3.051-2.592,4.289c-0.3,0.382-0.486,0.846-0.784,1.225
		c-1.181,0.515-2.388,1-3.653,1.266c-0.792,0.179-1.587-0.074-2.338-0.308C5.256,20.149,4.487,19.857,3.75,19.5
		c-0.348-0.446-0.439-1.111-0.943-1.428c-0.634,0.127-1.283,0.313-1.936,0.208c-0.437-0.072-0.77-0.465-0.835-0.892
		c-0.146-0.803,0.157-1.613,0.628-2.255c-0.128-0.374-0.152-0.77-0.175-1.161c0.128-0.002,0.255-0.004,0.383-0.003
		c0,0.26,0.036,0.521,0.136,0.762c1.669-1.595,4.167-2.155,6.389-1.624c0.021-0.365-0.019-0.728-0.018-1.092
		c-1.032-0.38-2.122-0.711-2.945-1.48c-0.534-0.478-0.99-1.15-0.953-1.896c0.046-0.842,0.482-1.6,1.011-2.235
		c0.086,0.021,0.172,0.047,0.257,0.074C4.424,6.922,4.108,7.416,4.08,7.983c0.027,0.479,0.352,0.878,0.697,1.184
		c0.733,0.645,1.693,0.904,2.6,1.2c0.031-0.476,0.019-0.954,0-1.431c-0.811-0.321-1.695-0.74-2.067-1.587
		C4.969,6.567,5.049,5.619,5.465,4.881c0.393-0.668,1.157-1.019,1.912-1.053C7.379,3.599,7.383,3.369,7.382,3.14
		C6.533,2.957,5.977,2.002,6.229,1.172z M7.588,0.778C6.993,0.862,6.714,1.666,7.103,2.115c0.375,0.522,1.284,0.329,1.421-0.298
		C8.705,1.263,8.163,0.645,7.588,0.778z M5.609,5.747c0.233,0.795,1.093,1.155,1.774,1.499C7.381,6.434,7.419,5.622,7.381,4.81
		C6.694,4.637,5.547,4.831,5.609,5.747z M8.111,9.197c0,0.468-0.007,0.936-0.001,1.405c0.446,0.159,0.893,0.349,1.355,0.446
		c0.31-0.376,0.57-0.796,0.787-1.232C9.536,9.614,8.827,9.394,8.111,9.197z M10.606,9.925c-0.226,0.433-0.49,0.846-0.76,1.253
		c0.69,0.21,1.426,0.39,1.994,0.859c0.454,0.431,0.59,1.198,0.24,1.733c-0.314,0.513-0.759,0.933-1.204,1.331
		c-0.051-0.068-0.166-0.116-0.166-0.206c0.266-0.308,0.601-0.566,0.801-0.927c0.102-0.352-0.273-0.571-0.542-0.693
		c-0.612-0.248-1.247-0.451-1.881-0.629c-0.233,0.258-0.422,0.554-0.63,0.832c1.059,0.567,1.813,1.548,2.522,2.491
		c0.542-0.226,1.113-0.429,1.557-0.828c0.675-0.589,0.888-1.535,0.854-2.397c0.023-0.66-0.159-1.363-0.649-1.831
		C12.155,10.369,11.361,10.136,10.606,9.925z M8.113,12.31c0,0.237-0.013,0.474,0.005,0.71c0.191-0.146,0.319-0.353,0.453-0.549
		C8.422,12.408,8.27,12.351,8.113,12.31z M1.352,15.42c0.552,0.815,1.423,1.37,2.347,1.677c0.866-0.602,1.609-1.36,2.316-2.137
		c0.211-0.226,0.089-0.718-0.271-0.664C4.228,14.315,2.656,14.612,1.352,15.42z M4.588,17.301c0.471,0.09,0.962,0.157,1.439,0.094
		c0.577-0.229,0.966-0.754,1.345-1.221c0.067-0.362,0.029-0.748,0.007-1.117C6.56,15.931,5.612,16.68,4.588,17.301z M0.525,17.745
		c0.581,0.395,1.326,0.109,1.952-0.012c-0.559-0.617-1.137-1.229-1.548-1.961C0.382,16.223,0.047,17.138,0.525,17.745z"/>
	<path d="M2.852,9.081C2.94,9.129,3.027,9.179,3.114,9.23c-0.582,0.279-0.835,1.415-0.089,1.653
		c0.673,0.399,1.537,0.946,1.466,1.842c-0.382,0.457-0.981,0.075-1.343-0.208c-0.122-0.143-0.298-0.07-0.443-0.012
		c-0.312-0.308-0.635-0.605-0.947-0.913c0.203-0.002,0.405,0.002,0.608,0.001C1.994,10.745,2.272,9.762,2.852,9.081z M3.851,12.359
		c-0.159,0.034-0.052,0.306,0.096,0.266C4.142,12.619,4.006,12.308,3.851,12.359z"/>
</g>
<g id="Layer_1">
</g>
</svg>
