<?xml version="1.0" encoding="iso-8859-1"?>
<!-- Generator: Adobe Illustrator 21.0.2, SVG Export Plug-In . SVG Version: 6.00 Build 0)  -->
<svg version="1.1" xmlns="http://www.w3.org/2000/svg" xmlns:xlink="http://www.w3.org/1999/xlink" x="0px" y="0px"
	 viewBox="0 0 16.078 15.255" style="enable-background:new 0 0 16.078 15.255;" xml:space="preserve">
<g id="Casas_x5F_Boulton">
	<path d="M6.737,0.009c2.36-0.018,4.72-0.002,7.08-0.008c0.78-0.003,1.54,0.424,1.941,1.091c0.373,0.609,0.423,1.398,0.134,2.051
		c-0.298,0.691-0.971,1.22-1.722,1.308c0.091,0.038,0.188,0.057,0.284,0.076c0.905,0.253,1.612,1.126,1.618,2.073
		c0.038,0.638-0.234,1.286-0.709,1.712c-0.127,0.148-0.294,0.251-0.431,0.389c-2.332,2.052-4.665,4.105-6.997,6.158
		c-0.167,0.122-0.289,0.298-0.477,0.392c-2.486,0-4.973-0.007-7.459,0.003c0.006-3.031-0.002-6.061,0.004-9.092
		c0.202-0.171,0.401-0.345,0.587-0.534c0.223-0.156,0.386-0.38,0.605-0.54C1.34,4.974,1.452,4.823,1.601,4.714
		c0.173-0.125,0.302-0.302,0.473-0.431c0.181-0.131,0.31-0.319,0.494-0.446c0.166-0.133,0.298-0.304,0.469-0.431
		c0.101-0.077,0.187-0.17,0.277-0.26C3.301,3.3,3.302,3.454,3.303,3.609C3.3,4.907,3.31,6.205,3.298,7.502c2.208,0,4.416,0,6.624,0
		c0.222-0.003,0.446,0.016,0.663-0.035c0.934-0.158,1.715-0.983,1.797-1.93c0-0.177,0.007-0.354-0.006-0.531
		c-0.079-0.476-0.302-0.937-0.661-1.264c-0.394-0.396-0.951-0.607-1.504-0.623C7.921,3.121,5.631,3.112,3.34,3.122
		C3.587,2.924,3.799,2.687,4.046,2.49c0.118-0.102,0.217-0.223,0.337-0.322C4.598,2.017,4.754,1.799,4.97,1.65
		c0.248-0.26,0.535-0.476,0.784-0.734c0.182-0.129,0.327-0.3,0.494-0.448C6.43,0.336,6.578,0.166,6.737,0.009z M3.302,7.625
		c0.001,1.463,0.005,2.926-0.002,4.389c2.345-0.004,4.69,0,7.034-0.002c1.038-0.048,1.969-0.927,2.048-1.967
		c0.002-0.165,0.005-0.329-0.004-0.493c-0.087-0.594-0.411-1.162-0.912-1.502c-0.43-0.32-0.977-0.434-1.504-0.423
		C7.743,7.626,5.522,7.627,3.302,7.625z"/>
</g>
<g id="Layer_1">
</g>
</svg>
