<?xml version="1.0" encoding="iso-8859-1"?>
<!-- Generator: Adobe Illustrator 19.2.0, SVG Export Plug-In . SVG Version: 6.00 Build 0)  -->
<svg version="1.1" xmlns="http://www.w3.org/2000/svg" xmlns:xlink="http://www.w3.org/1999/xlink" x="0px" y="0px"
	 viewBox="0 0 80.001 46.764" style="enable-background:new 0 0 80.001 46.764;" xml:space="preserve">
<g id="Casagrande_x5F_Impianti">
	<path style="fill-rule:evenodd;clip-rule:evenodd;" d="M79.014,1.86c2.151,2.773,0.481,6.132-2.079,7.06
		c-1.352,0.49-3.447,0.29-5.271,0.29C58.857,9.212,46.807,9.113,34.039,9.114c-3.848,0.001-7.566-0.159-10.978,0
		c-3.452,0.161-6.115,1.152-8.317,2.757c-3.04,2.214-5.56,5.937-5.658,10.93c-0.106,5.402,2.31,8.895,5.271,11.316
		c2.05,1.676,4.55,2.857,7.786,3.289c3.167,0.422,7.243,0.241,10.784,0.241c13.299,0.001,25.436,0.097,38.64,0.097
		c0.888,0,1.854-0.028,2.756,0c0.937,0.03,1.879-0.023,2.612,0.146c1.857,0.428,3.175,2.107,3.046,4.497
		c-0.114,2.132-1.646,3.62-3.385,4.159c-1.239,0.385-3.156,0.146-4.787,0.146c-13.59,0-26.323-0.095-40.043-0.097
		c-3.434-0.001-6.887,0.084-9.962-0.097c-2.946-0.173-5.757-0.966-8.028-1.983c-4.546-2.035-8.133-5.29-10.639-9.479
		c-2.407-4.024-3.973-10.232-2.66-16.346C1.721,12.9,4.341,9.053,7.73,5.874c3.084-2.891,6.972-4.768,12.042-5.562
		c2.767-0.433,6.52-0.29,9.672-0.29c2.434,0,4.868,0.049,7.303,0.049C49.08,0.07,60.863,0.167,73.355,0.168
		C75.685,0.168,77.889,0.243,79.014,1.86z"/>
	<path style="fill-rule:evenodd;clip-rule:evenodd;" d="M23.399,12.548c3.958-0.188,8.676,0,13.154,0
		c12.077,0,24.565,0.147,36.512,0.146c1.427,0,2.842-0.11,3.917,0.241c1.713,0.56,2.913,1.999,2.902,4.159
		c-0.012,2.04-1.27,3.64-2.95,4.11c-0.877,0.246-2.066,0.146-3.337,0.146c-15.65-0.003-30.765-0.144-46.378-0.146
		c-2.571,0-5.969-0.456-5.996,1.983c-0.031,2.716,4.81,2.031,7.544,2.031c6.762-0.001,13.948,0.048,20.602,0.048
		c6.892,0,13.736,0.048,20.698,0.048c1.127,0,2.276-0.022,3.385,0c1.117,0.022,2.296-0.042,3.289,0.146
		c1.82,0.344,3.143,1.911,3.239,3.82c0.113,2.213-1.322,3.561-2.756,4.256c-1.659,0.804-3.612,0.773-6.238,0.773
		c-13.593,0.001-27.999-0.145-41.832-0.145c-2.287,0-4.652,0.087-6.722-0.193c-4.067-0.552-6.595-2.739-8.463-5.561
		c-0.913-1.378-1.541-3.481-1.402-5.562c0.294-4.422,2.266-7.003,5.271-8.753C19.283,13.254,21.038,12.66,23.399,12.548z"/>
</g>
<g id="Layer_1">
</g>
</svg>
