<?xml version="1.0" encoding="iso-8859-1"?>
<!-- Generator: Adobe Illustrator 19.2.0, SVG Export Plug-In . SVG Version: 6.00 Build 0)  -->
<svg version="1.1" xmlns="http://www.w3.org/2000/svg" xmlns:xlink="http://www.w3.org/1999/xlink" x="0px" y="0px"
	 viewBox="0 0 77.482 44.849" style="enable-background:new 0 0 77.482 44.849;" xml:space="preserve">
<g id="Cashmart_x5F_Wholesale_x5F_Grocers">
	<path style="fill-rule:evenodd;clip-rule:evenodd;" d="M44.355,0.018c0.433-0.156,0.353,0.712,0.353,1.208
		c0,7.34,0.142,15.746,0,22.504c0.223,1.455,0.011,3.345,0.201,4.833c1.478,0.351,3.341,0.201,5.085,0.202c1.78,0,3.594,0,5.286,0
		c0.561,0.411,0.983,1.091,1.46,1.762c0.398,0.56,1.1,1.284,1.258,1.913c0.432,1.711-0.245,3.645,0.151,5.387
		c0.719,0.316,1.59,0.221,2.416,0.252c2.481,0.093,5.258-0.157,7.803,0.101c-0.044,0.51-0.418,0.69-0.755,0.906
		c-3.32,0.176-7.259,0.161-10.522-0.05c-0.487-1.732,0.175-3.866-0.252-5.538c-0.164-0.645-0.826-1.351-1.208-1.914
		c-0.439-0.646-0.792-1.336-1.359-1.711c-1.654-0.091-3.455-0.05-5.236-0.05c-1.771,0-3.591,0.12-5.135-0.151
		c-0.416-1.246,0.129-3.719-0.353-4.732c0.116-0.539,0.709-0.6,0.856-1.108c-0.12-0.45-0.531-0.61-0.654-1.057
		c-0.072-7.262-0.048-14.619-0.05-21.95C43.838,0.475,44.082,0.232,44.355,0.018z"/>
	<path style="fill-rule:evenodd;clip-rule:evenodd;" d="M68.067,0.573c0.034,0,0.067,0,0.101,0c0.018,0.586-0.383,1.091-0.655,1.561
		c-1.628,2.817-3.242,5.728-4.934,8.659c-0.199,0.346-0.695,1.304-0.957,1.309c-0.774,0.015-0.139-1.101-0.05-1.259
		c1.671-2.976,3.393-6.092,5.084-9.011C67.16,1.444,67.487,0.882,68.067,0.573z"/>
	<path style="fill-rule:evenodd;clip-rule:evenodd;" d="M43.147,25.342c0.061,1.651-0.126,3.549,0.101,5.035
		c1.583,0.308,3.438,0.103,5.185,0.151c1.731,0.048,3.433-0.067,4.984,0.101c0.62,0.371,0.901,1.128,1.359,1.812
		c0.376,0.562,1.077,1.236,1.258,1.863c0.466,1.61-0.363,3.966,0.202,5.538c0.737,0.32,1.602,0.083,2.467,0.101
		c2.446,0.047,5.338-0.013,7.753,0.151c0.006,0.476-0.352,0.588-0.554,0.856c-2.518,0.126-5.489,0.176-8.156,0.05
		c-0.869-0.041-1.767,0.181-2.518-0.101c-0.474-1.724,0.104-3.6-0.201-5.387c-0.121-0.706-0.797-1.378-1.208-1.963
		c-0.403-0.575-0.811-1.568-1.359-1.812c-0.509-0.227-1.818-0.093-2.517-0.101c-0.852-0.009-1.74,0-2.568,0
		c-1.851,0.001-3.638,0.119-5.185-0.151c-0.32-1.274,0.151-3.339-0.252-4.531c-0.901,0.118-0.654,1.429-0.654,2.417
		c0,1.036-0.101,2.216,0.151,2.87c1.734,0.268,3.761,0.104,6.142,0.151c0.652,0.013,1.324,0.033,2.014,0
		c0.717-0.034,1.529-0.075,1.963,0.101c0.583,0.237,1,1.24,1.41,1.863c0.424,0.645,1.058,1.208,1.258,1.964
		c0.36,1.351-0.167,3.806,0.151,5.387c0.71,0.334,1.619,0.21,2.467,0.201c2.412-0.025,5.288-0.075,7.753,0.101
		c-0.028,0.508-0.38,0.694-0.755,0.856c-3.127,0.083-7.021,0.078-10.371,0c-0.693-1.624,0.11-3.9-0.302-5.588
		c-0.166-0.679-0.754-1.356-1.158-1.963c-0.378-0.568-0.851-1.491-1.359-1.712c-0.558-0.242-1.795-0.101-2.567-0.1
		c-2.623,0-5.349,0.021-7.754-0.151c-0.416-1.162,0.117-3.271-0.302-4.43c-0.879,0.125-0.604,1.442-0.604,2.366
		c0,1.038-0.074,2.163,0.101,2.87c2.591,0.119,5.413,0.229,8.055,0.201c0.645-0.007,1.539-0.141,2.114,0.051
		c0.533,0.177,1.109,1.361,1.41,1.812c0.483,0.724,0.884,1.275,1.259,1.963c0.063,1.783-0.129,3.821,0.101,5.437
		c1.087,0.313,2.338,0.107,3.574,0.101c2.269-0.012,4.624-0.078,6.696,0.151c-0.19,1.106-1.285,0.911-2.567,0.906
		c-0.938-0.004-1.802-0.048-2.668-0.05c-2.167-0.006-4.304,0.341-6.092-0.101c-0.379-1.644,0.17-3.779-0.202-5.387
		c-0.18-0.782-0.764-1.304-1.208-1.964c-0.379-0.564-0.835-1.617-1.359-1.812c-0.571-0.213-1.853-0.05-2.567-0.05
		c-2.488,0-5.213-0.009-7.602-0.151c-0.411-1.313,0.102-3.345-0.352-4.531c-0.84,0.187-0.604,1.396-0.604,2.366
		c0,1.01-0.074,2.162,0.101,2.87c0.744,0.262,1.631,0.151,2.467,0.151c2.58,0,5.236,0.035,7.703,0.05
		c0.704,0.563,1.444,1.804,2.064,2.769c0.209,0.325,0.566,0.724,0.554,1.007c-0.016,0.368-0.443,0.655-0.805,0.805
		c-1.117-0.947-1.516-2.612-2.719-3.474c-2.456-0.118-5.219-0.101-7.854-0.101c-0.86,0-1.718,0.113-2.467-0.151
		c-0.353-1.266,0.062-3.246-0.252-4.431c-0.893,0.137-0.654,1.407-0.654,2.367c0,1.049-0.074,2.199,0.101,2.92
		c3.367,0.28,6.81,0.026,10.321,0.201c0.915,1.133,1.687,2.408,2.467,3.675c-0.158,0.386-0.424,0.925-0.856,0.906
		c-0.435-0.019-1.031-1.221-1.359-1.711c-0.371-0.554-0.799-1.576-1.309-1.762c-0.634-0.232-1.792-0.05-2.618-0.05
		c-2.577,0.001-5.192-0.056-7.652-0.101c-0.533-1.095,0.101-3.356-0.353-4.531c-0.858,0.201-0.654,1.362-0.654,2.315
		c0,1,0.031,2.09,0.101,2.87c0.699,0.322,1.505,0.155,2.316,0.151c2.114-0.009,4.212,0.042,6.343,0
		c0.533-0.011,1.235-0.025,1.611,0.101c0.571,0.191,1.054,1.304,1.359,1.762c0.468,0.702,0.895,1.2,1.208,1.913
		c-0.125,0.429-0.418,0.689-0.806,0.855c-0.613-0.385-0.929-1.06-1.359-1.711c-0.288-0.436-0.804-1.53-1.309-1.712
		c-0.668-0.241-1.902,0.034-2.668,0c-2.511-0.11-5.351,0.121-7.753-0.151c-0.316-1.278,0.147-3.336-0.251-4.531
		c-0.886,0.113-0.554,1.186-0.554,2.014c0,0.987-0.272,2.375,0.05,3.272c2.411,0.183,5.257,0.101,7.904,0.101
		c0.857,0,1.729-0.113,2.467,0.151c0.042,0.5-0.575,0.764-0.956,1.007c-2.662,0.018-5.227-0.05-8.005-0.05
		c-0.854,0-1.744,0.118-2.517-0.151c-0.144-0.697-0.165-1.486-0.151-2.266c0.013-0.749,0.149-1.59-0.151-2.215
		c-0.738,0.029-0.592,0.927-0.604,1.662c-0.02,1.188-0.135,2.525,0.05,3.574c0.708,0.344,1.648,0.201,2.517,0.201
		c2.553,0,5.494-0.082,7.904,0.101c-0.067,0.57-0.513,0.763-0.906,1.007c-3.45-0.186-7.331,0.121-10.522-0.101
		c-0.426-1.218,0.125-3.415-0.302-4.632c-0.846,0.373-1.464,1.048-2.215,1.561c-2.546,1.736-6.176,3.146-10.724,2.87
		c-5.178-0.313-9.333-2.919-11.931-6.041c-1.126-1.353-1.697-2.578-2.417-4.279c-0.787-1.861-1.411-4.194-1.46-6.847
		c-0.049-2.64,0.756-4.946,1.56-6.847c1.065-2.516,2.706-4.667,4.631-6.444c4.303-3.971,8.179-8.351,12.436-12.385
		c0.012-0.055,0.1-0.034,0.101-0.1c0.059-0.008,0.089,0.011,0.101,0.05c-1.92,3.176-3.462,6.676-3.122,11.428
		c0.299,4.178,2.184,7.715,4.431,10.169c2.362,2.581,5.617,4.448,9.464,5.186c4.562,0.875,9.045-0.432,11.982-2.114
		C42.122,25.941,42.443,25.562,43.147,25.342z M15.659,6.111c-1.096,1.994-1.863,4.618-1.863,7.451c0,5.535,2.636,9.51,5.387,12.284
		c3.031,2.647,7.245,4.902,13.19,4.531c2.303-0.143,4.264-0.828,5.89-1.762c-2.797,0.891-5.963,1.381-8.86,0.906
		c-2.835-0.464-5.376-1.526-7.3-2.819c-3.821-2.569-7.072-6.959-7.451-12.737c-0.212-3.234,0.426-5.5,1.158-7.955
		c-0.011-0.039-0.042-0.059-0.101-0.05C15.712,6.029,15.686,6.07,15.659,6.111z M13.695,8.275c-1.329,2.424-1.905,5.624-1.561,8.81
		c0.57,5.273,3.115,9.111,6.444,11.579c1.484,1.101,3.105,1.923,4.934,2.568c4.107,1.449,10.116,1.298,13.392-1.057
		c-3.191,1.189-7.259,1.656-10.724,0.805c-6.571-1.615-11.031-5.841-12.787-12.082c-0.95-3.375-0.639-7.732,0.453-10.723
		c-0.003-0.031-0.008-0.06-0.051-0.05C13.784,8.196,13.714,8.209,13.695,8.275z M10.977,12.051c-1.065,3.207-1.026,7.084-0.05,10.22
		c0.97,3.119,2.888,5.873,5.437,7.904c3.465,2.761,8.173,4.679,14.046,3.574c1.318-0.248,2.663-0.529,3.624-1.259
		c-5.06,1.643-10.53,0.74-14.146-1.258c-3.67-2.029-6.578-5.177-7.954-9.213c-0.474-1.389-0.856-3.07-0.957-4.581
		c-0.216-3.226,0.561-5.482,1.208-7.753c-0.003-0.031-0.007-0.06-0.05-0.05C11.673,10.353,11.263,11.189,10.977,12.051z
		 M10.222,11.598c-1.368,2.416-2.119,5.843-1.762,9.011c0.367,3.259,1.506,5.899,2.97,8.005c1.388,1.997,3.451,4.038,5.74,5.236
		c2.345,1.228,5.548,2.309,8.961,2.064c1.785-0.128,3.712-0.47,5.034-1.007c0.442-0.179,0.981-0.338,1.209-0.705
		c-3.11,1.062-7.424,1.239-10.623,0.302c-3.205-0.939-5.839-2.487-7.753-4.531c-1.879-1.981-3.614-4.607-4.38-7.854
		c-0.831-3.524-0.37-7.613,0.755-10.623c-0.011-0.04-0.042-0.059-0.101-0.05C10.274,11.516,10.249,11.558,10.222,11.598z
		 M8.208,13.813c-0.311,0.458-0.6,1.213-0.806,1.812c-0.224,0.652-0.427,1.372-0.554,2.014c-0.989,5.002,0.489,9.607,2.416,12.485
		c2.585,3.86,7.06,7.323,12.989,7.652c3.361,0.187,6.173-0.455,8.256-1.51c0.292-0.148,0.735-0.284,0.654-0.503
		c-1.413,0.456-2.649,0.907-4.128,1.108c-7.37,0.999-12.369-2.109-15.758-6.041c-1.776-2.061-2.972-4.391-3.625-7.401
		c-0.713-3.291-0.238-7.121,0.705-9.716c-0.003-0.03-0.007-0.06-0.05-0.05C8.297,13.734,8.226,13.747,8.208,13.813z M6.295,15.726
		c-0.334,0.421-0.534,1.198-0.755,1.812c-0.244,0.676-0.434,1.353-0.554,2.014c-0.897,4.941,0.41,9.287,2.316,12.284
		c3.068,4.825,9.323,9.141,17.621,7.552c1.445-0.277,2.856-0.75,3.927-1.51c-2.438,0.627-4.77,1.275-7.501,1.057
		c-6.081-0.485-10.512-3.603-13.14-7.753c-1.488-2.35-2.801-5.314-2.819-8.66c-0.015-2.759,0.494-4.775,1.057-6.897
		c-0.003-0.031-0.007-0.06-0.05-0.05C6.383,15.647,6.313,15.66,6.295,15.726z M3.627,19.301C1.765,24.664,3.151,30.048,5.489,33.8
		c2.392,3.835,6.205,6.406,10.673,7.4c3.364,0.75,7.637,0.219,9.968-1.007c0.126-0.066,0.445-0.064,0.403-0.302
		c-0.858,0.159-1.487,0.453-2.266,0.604c-7.208,1.397-13.146-1.435-16.513-5.437c-1.73-2.057-3.122-4.417-3.826-7.501
		c-0.716-3.139-0.472-6.733,0.554-9.918c0.028,0,0.057-0.041,0-0.05C4.172,18.12,3.818,18.75,3.627,19.301z M13.897,42.006
		C7.393,39.988,2.414,34.543,1.865,26.701c-0.113-1.616,0.175-3.21,0.352-4.682c0.056-0.462,0.002-0.855,0.101-1.259
		c0.202-0.83,0.759-1.565,0.956-2.517c-0.506,0.434-1.021,1.294-1.007,2.417c-1.442,2.74-1.513,7.257-0.554,10.421
		c0.319,1.054,0.53,2.103,0.957,2.971c0.85,1.728,2.011,3.219,3.323,4.531c3.449,3.449,9.118,5.927,15.607,4.43
		c1.133-0.261,2.951-0.76,3.574-1.46c-0.007,0.008-0.041-0.006-0.05,0C21.673,42.752,17.285,43.057,13.897,42.006z"/>
	<path style="fill-rule:evenodd;clip-rule:evenodd;" d="M42.694,1.831c0.479-0.096,0.302,1.712,0.302,2.265
		c0,5.595,0.277,11.781,0,17.671c-0.436,0.082-0.653-0.44-0.906-0.705c-0.026-5.318-0.151-10.381-0.151-15.858
		c0-1.339-0.242-2.778,0.604-3.222C42.571,1.91,42.621,1.859,42.694,1.831z"/>
	<path style="fill-rule:evenodd;clip-rule:evenodd;" d="M40.932,3.593c0.033,0,0.067,0,0.101,0c0.266,0.553,0.151,1.21,0.151,1.813
		c0,3.016,0.101,6.391,0.101,9.465c0,1.761-0.041,3.423-0.151,5.034c-0.446,0.071-0.75-0.42-0.957-0.755
		c-0.198-3.185,0.116-7.366-0.05-11.025C40.048,6.406,39.677,4.101,40.932,3.593z"/>
	<path style="fill-rule:evenodd;clip-rule:evenodd;" d="M64.493,4.046c0.045,0.022,0.09,0.044,0.101,0.101
		c-0.83,1.734-1.845,3.375-2.819,5.035c-0.3,0.511-0.503,1.209-1.107,1.46c-0.665-0.889,0.676-1.941,0.956-2.668
		C62.38,6.464,63.177,4.996,64.493,4.046z"/>
	<path style="fill-rule:evenodd;clip-rule:evenodd;" d="M36.552,16.834c-0.289-0.732-0.189-1.594-0.202-2.416
		c-0.022-1.467-0.05-2.801-0.05-4.38c0-0.604,0.095-1.355-0.05-1.812c-0.133-0.42-0.993-1.023-1.46-1.259
		c-1.692-0.855-4.615-0.998-6.041,0.151c0.608,0.129,1.115-0.127,1.712-0.151c2.128-0.085,4.085,0.841,5.034,2.064
		c-0.001,1.961,0.051,4.245,0.051,6.444c0,0.673,0.144,1.438-0.202,1.963c-0.178,0.074-0.373,0.131-0.654,0.101
		c-0.356-1.015-0.202-2.442-0.202-3.725c0-1.316-0.059-2.647-0.101-3.826c-0.832-1.198-2.741-2.02-4.732-1.964
		c-0.883,0.025-1.573,0.387-2.366,0.403c0.181-0.454,0.514-1,0.855-1.41c1.916-2.295,7.461-2.492,9.213,0.252
		c-0.011,3.015,0.015,6.26,0,9.112C37.164,16.606,36.988,16.851,36.552,16.834z"/>
	<path style="fill-rule:evenodd;clip-rule:evenodd;" d="M39.019,5.557c0.033,0,0.067,0,0.1,0c0.266,0.955,0.151,2.056,0.151,3.122
		c0,2.079,0.05,4.21,0.05,6.394c0,1.048,0.121,2.102-0.101,3.021c-1.165-0.143-0.893-1.218-0.957-2.718
		c-0.101-2.394-0.063-5.22-0.05-7.602C38.219,6.602,38.192,5.915,39.019,5.557z"/>
	<path style="fill-rule:evenodd;clip-rule:evenodd;" d="M60.818,7.822c-0.035,0.523-0.42,1.121-0.805,1.46
		c-0.213-0.005-0.271-0.165-0.353-0.302C59.847,8.396,60.289,8.066,60.818,7.822z"/>
	<path style="fill-rule:evenodd;clip-rule:evenodd;" d="M33.38,17.74c-0.151,0-0.302,0-0.453,0
		c-0.391-0.248-0.332-0.831-0.353-1.259c-0.065-1.376,0.292-3.322-0.05-4.531c-0.134-0.473-0.864-1-1.36-1.259
		c-0.827-0.432-2.183-0.812-3.423-0.755c-0.392,0.018-0.758,0.206-1.107-0.05c-0.021-0.853,0.956-0.99,1.611-1.058
		c2.26-0.233,4.414,0.785,5.387,1.963c0.004,1.58,0.042,3.586,0.05,5.236C33.685,16.63,33.836,17.353,33.38,17.74z"/>
	<path style="fill-rule:evenodd;clip-rule:evenodd;" d="M31.618,17.438c-0.247,0.126-0.517-0.108-0.705-0.202
		c-0.422-1.237,0.138-2.613-0.252-3.625c-0.261-0.677-1.364-1.243-1.913-1.46c-0.563-0.223-1.99-0.215-2.215-0.654
		c-0.16-0.312-0.021-0.72,0.302-0.806c2.33-0.032,3.856,0.742,4.934,1.963c0.087,0.705,0.05,1.619,0.05,2.467
		C31.819,15.961,31.972,16.901,31.618,17.438z"/>
	<path style="fill-rule:evenodd;clip-rule:evenodd;" d="M29.806,16.582c-0.558,0.092-0.802-0.531-0.856-1.107
		c-0.602-0.93-2.173-1.145-2.064-2.618c1.194-0.093,2.317,0.73,3.021,1.46C29.929,14.967,30.103,16.095,29.806,16.582z"/>
	<path style="fill-rule:evenodd;clip-rule:evenodd;" d="M61.724,34.353c0.693,0.317,1.563,0.202,2.417,0.202
		c2.452,0,5.292-0.082,7.602,0.101c-0.05,1.013-1.264,0.856-2.165,0.856c-2.713,0-6.129,0.182-8.811-0.05
		c-0.611-1.766,0.18-4.165-0.302-5.689c-0.223-0.706-0.817-1.307-1.258-2.014c-0.852-1.366-1.704-2.494-2.618-3.876
		c-0.714-1.079-1.609-1.808-1.259-3.625c-0.002-0.086,0.038-0.13,0.101-0.151c0.578,0.314,1.221,1.598,1.611,2.165
		c1.508,2.188,3.106,4.416,4.48,6.595C61.547,30.738,61.537,32.644,61.724,34.353z"/>
	<path style="fill-rule:evenodd;clip-rule:evenodd;" d="M66.909,20.257c0.016,0.004,0.035-0.005,0.05,0
		c0.349,0.116,0.224,2.119,0.251,2.718c0.098,2.076-0.107,3.761,0.151,5.689c0.632,0.264,1.427,0.151,2.165,0.151
		c2.161,0,4.728,0,6.797,0.05c0.433,0.01,0.821-0.127,1.158,0.101c-0.031,0.557-0.467,0.708-0.806,0.956
		c-3.594-0.08-6.968,0.121-10.371-0.101c-0.146-1.148-0.149-2.631-0.101-4.179c0.048-1.537-0.328-3.127-0.05-4.229
		C66.266,20.972,66.668,20.556,66.909,20.257z"/>
	<path style="fill-rule:evenodd;clip-rule:evenodd;" d="M65.097,23.227c0.034,0,0.067,0,0.101,0c0.294,2.24-0.007,5.075,0.252,7.35
		c0.74,0.266,1.616,0.151,2.467,0.151c2.479,0,5.339-0.082,7.703,0.101c-0.003,0.551-0.457,0.65-0.755,0.906
		c-3.498-0.079-6.956,0.218-10.371-0.05c-0.273-0.896-0.145-2.065-0.151-3.272c-0.011-1.999-0.404-4.152,0.604-5.085
		C64.983,23.281,65.037,23.252,65.097,23.227z"/>
	<path style="fill-rule:evenodd;clip-rule:evenodd;" d="M59.962,36.065c0.686,0.329,1.559,0.201,2.416,0.201
		c2.485,0,5.36-0.082,7.703,0.101c-0.075,1.254-1.477,0.962-2.769,0.957c-1.248-0.005-2.757,0.05-4.229,0.05
		c-1.535,0-3.078,0.152-4.179-0.201c-0.424-1.732,0.131-3.663-0.151-5.387c-0.073-0.443-0.477-1-0.806-1.46
		c-0.919-1.288-1.917-2.671-2.668-3.978c0.031-0.573-0.064-1.272,0.05-1.762c-0.002-0.086,0.038-0.13,0.101-0.151
		c0.949,0.813,1.526,1.998,2.266,3.021c0.756,0.989,1.429,2.061,2.114,3.121C59.981,32.287,59.709,34.439,59.962,36.065z"/>
	<path style="fill-rule:evenodd;clip-rule:evenodd;" d="M63.184,26.298c0.034,0,0.067,0,0.101,0c0.343,1.808,0.065,4.1,0.252,6.142
		c0.735,0.322,1.639,0.202,2.517,0.202c2.357,0,5.074-0.179,7.652,0.05c0.112,0.488-0.471,0.698-0.755,0.957
		c-2.638,0.075-5.596,0.05-8.408,0.05c-0.68,0-1.41,0.117-2.014-0.151c-0.128-1.077-0.148-2.448-0.151-3.726
		C62.374,28.32,62.276,26.934,63.184,26.298z"/>
</g>
<g id="Layer_1">
</g>
</svg>
