<?xml version="1.0" encoding="iso-8859-1"?>
<!-- Generator: Adobe Illustrator 19.2.0, SVG Export Plug-In . SVG Version: 6.00 Build 0)  -->
<svg version="1.1" xmlns="http://www.w3.org/2000/svg" xmlns:xlink="http://www.w3.org/1999/xlink" x="0px" y="0px"
	 viewBox="0 0 77.857 81.828" style="enable-background:new 0 0 77.857 81.828;" xml:space="preserve">
<g id="Caterpillar_x5F_Tractor">
	<path style="fill-rule:evenodd;clip-rule:evenodd;" d="M77.73,0.326c0.143,26.15,0.102,52.238,0.102,79.025
		c0,0.797,0.115,1.623-0.152,2.387c-25.449,0.189-51.802,0.035-77.502-0.051c-0.268-0.781-0.152-1.621-0.152-2.438
		c0-26.254-0.089-53.141,0.102-79.025C4.11-0.037,8.106,0.24,12.112,0.072c4.086-0.174,8.195,0.193,12.341,0
		c1.964-0.092,4.651-0.1,6.755,0c2.257,0.104,4.552-0.035,6.704,0.049c4.494,0.18,9.076,0.053,13.408,0.051
		c4.472,0,8.903-0.17,13.255-0.051c4.397,0.123,8.73-0.1,13.002,0.154C77.66,0.259,77.665,0.322,77.73,0.326z M67.166,30.088
		c-1.657-4.734-4.129-8.6-7.313-11.783c-2.088-2.09-4.315-3.996-7.212-5.537c-2.588-1.377-6.081-2.996-9.548-3.352
		c-0.465,0.75-0.324,1.934-0.305,2.895c0.13,6.559,0,13.236,0,19.707c0,1.051-0.034,2.152,0.204,3.148
		c2.066,0.291,4.196,0.137,6.348,0.152c5.149,0.037,11.071,0.021,16.049,0.051c1.058,0.006,2.173,0.127,2.996-0.254
		C68.323,33.32,67.719,31.664,67.166,30.088z M31.768,68.33c0-3.748,0-7.685,0-11.631c0-14.893-0.051-30.656-0.051-45.557
		c0-0.656,0.175-1.682-0.66-1.523c-1.688,0.32-3.659,1.059-5.231,1.777c-4.648,2.129-8.535,5.435-11.326,9.193
		c-1.992,2.682-3.399,5.566-4.622,9.041c-1.181,3.356-1.996,7.381-1.93,11.731c0.131,8.57,2.881,15.441,6.907,20.418
		c3.6,4.449,8.027,7.84,14.018,9.852c0.851,0.287,1.777,0.686,2.742,0.51C31.89,70.976,31.768,69.619,31.768,68.33z M65.44,46.746
		c-5.965-0.002-11.937,0.002-17.877,0c-1.728-0.002-3.301-0.16-4.622,0.152c-0.295,7.018-0.101,14.998-0.101,22.397
		c0,1.039-0.156,2.146,0.204,3.1c0.896,0.172,1.782-0.154,2.59-0.357c2.556-0.635,4.794-1.68,6.856-2.742
		c1.977-1.158,3.871-2.482,5.536-4.062c2.532-2.404,4.77-4.717,6.551-7.82c1.166-2.033,2.311-4.18,2.997-6.604
		c0.347-1.225,0.79-2.543,0.711-3.91C67.379,46.623,66.405,46.746,65.44,46.746z"/>
</g>
<g id="Layer_1">
</g>
</svg>
