<?xml version="1.0" encoding="iso-8859-1"?>
<!-- Generator: Adobe Illustrator 19.2.0, SVG Export Plug-In . SVG Version: 6.00 Build 0)  -->
<svg version="1.1" xmlns="http://www.w3.org/2000/svg" xmlns:xlink="http://www.w3.org/1999/xlink" x="0px" y="0px"
	 viewBox="0 0 79.338 57.196" style="enable-background:new 0 0 79.338 57.196;" xml:space="preserve">
<g id="cedec">
	<path style="fill-rule:evenodd;clip-rule:evenodd;" d="M73.834,30.623c0.604,0.025,0.968-0.602,1.358-0.957
		c0.975-0.769,1.866-1.717,2.819-2.567c0.29-0.259,0.605-0.676,1.057-0.604c0.466,0.502,0.198,1.261,0.151,1.812
		c-0.367,4.375-1.913,8.093-3.625,11.176c-1.457,2.625-3.529,4.995-5.839,6.896c-3.831,3.154-8.711,5.469-15.454,5.739
		c-4.525,0.181-9.926-0.051-14.599-0.051c-0.598,0-1.351-0.171-1.862,0.252c0.035,0.526,0.586,0.861,0.956,1.208
		c0.387,0.363,0.824,0.69,1.158,1.058c0.424,0.304,0.843,0.636,1.208,1.006c0.352,0.357,0.883,0.647,1.007,1.208
		c-0.511,0.309-1.188,0.305-1.763,0.302c-4.475-0.023-9.53,0.391-13.541-0.353c-4.55-0.843-8.248-2.476-11.326-4.883
		c-4.483-3.506-8.168-8.086-9.615-14.749c-0.488-2.251-0.828-4.801-0.654-7.45c0.059-0.889,0.432-1.914,0.15-2.718
		c-0.735,0.069-0.857,0.752-1.409,1.007c-0.566,0.589-1.183,1.188-1.812,1.762c-0.611,0.559-1.2,1.254-1.963,1.51
		c-0.374-0.424-0.205-1.263-0.15-1.913C0.459,24.832,1.817,21,3.66,17.938c2.119-3.523,4.975-6.455,8.406-8.659
		c3.487-2.239,7.726-3.697,13.038-4.027c2.597-0.161,5.485,0.05,8.406,0.051c2.122,0,4.239-0.068,6.394,0
		c0.622,0.019,1.304,0.198,1.862-0.151c-0.023-0.63-0.602-0.928-0.956-1.309c-0.367-0.393-0.741-0.766-1.107-1.158
		c-0.723-0.77-1.672-1.375-2.114-2.416c0.538-0.366,1.671-0.241,2.668-0.252c1.98-0.02,4.346-0.038,6.242,0.051
		c1.45,0.067,2.836-0.078,4.178,0.05c6.302,0.6,10.917,3.077,14.649,6.293c1.494,1.288,2.72,2.831,3.927,4.48
		c2.35,3.212,4.111,7.184,4.681,12.082c0.225,1.923,0.253,3.931,0,5.89C73.862,29.418,73.647,30.031,73.834,30.623z M52.388,26.093
		c-0.485,0-1.089,0.095-1.511,0c-0.458-0.104-0.525-0.513-0.805-0.856c-0.791-0.967-2.271-0.855-4.078-0.855
		c-5.609,0-10.896-0.064-15.957,0c-2.095,0.026-4.302-0.111-6.041,0.353c-1.671,0.444-3.002,1.497-3.826,2.718
		c-0.967,1.433-1.144,3.238-0.956,5.437c0.329,3.84,2.478,6.445,4.883,8.256c1.299,0.978,2.628,1.712,4.53,2.014
		c1.784,0.282,4.077,0.318,6.192,0.252c2.08-0.065,4.309,0.062,6.494,0.05c2.214-0.012,4.412-0.146,6.443-0.05
		c4.316,0.204,8.949,0.087,11.931-1.107c3.183-1.275,5.482-3.135,7.45-5.688c1.124-1.532,2.017-3.267,2.668-5.185
		c0.677-1.996,1.059-4.34,0.806-6.997c-0.416-4.355-2.043-8.702-4.179-11.578c-2.275-3.064-5.038-5.345-8.659-7.098
		c-2.7-1.308-5.805-2.055-9.715-2.114c-1.266-0.02-2.59-0.161-3.876-0.101c-0.608,0.029-1.519-0.053-1.763,0.453
		C42.427,4.34,42.394,4.725,42.471,5c0.419,0.523,1.155,0.352,1.712,0.352c1.919,0,4.105-0.159,6.04,0.05
		c7.413,0.799,12.24,4.44,15.505,9.363c2.161,3.259,3.683,7.994,3.071,13.29c-0.572,4.954-2.906,8.093-6.041,10.571
		c-1.565,1.172-3.369,2.026-5.639,2.618c-2.293,0.598-4.897,0.554-7.752,0.554c-5.465,0-10.854,0.124-16.059,0
		c-1.517-0.036-2.806,0.043-3.977-0.151c-1.148-0.191-2.08-0.575-3.02-1.108c-1.738-0.985-3.231-2.212-4.279-4.027
		c-0.905-1.57-1.88-4.414-1.157-6.746c0.307-0.989,0.949-1.78,1.711-2.416c0.716-0.598,1.646-1.326,2.92-1.158
		c0.326,0.681,0.07,1.944,0.151,2.87c-0.508,0.779-1.323,0.824-1.51,1.862c-0.14,0.768,0.044,1.829,0.251,2.517
		c0.451,1.5,1.592,2.863,2.819,3.675c2.746,1.816,8.36,1.023,12.636,1.107c1.391,0.028,2.944-0.118,4.479-0.05
		c3.136,0.138,6.298,0.081,9.112-0.05c5.819-0.271,9.375-3.315,11.225-7.299c1.044-2.247,1.223-5.434,0.604-7.954
		c-1.232-5.029-3.49-8.539-7.399-11.125c-1.857-1.217-4.002-2.132-6.645-2.567c-2.662-0.438-5.734-0.302-8.86-0.302
		c-3.037,0-6.112,0-9.162,0c-3.029,0-6.061-0.208-8.961,0c-5.518,0.396-9.773,2.618-13.088,5.437
		c-1.614,1.373-3.13,3.119-4.278,4.983c-0.588,0.954-1.008,2.05-1.511,3.121c-0.487,1.038-1.136,2.193-1.007,3.423
		c1.683,0.808,1.844-1.033,2.165-1.812c1.298-3.156,2.974-5.806,5.336-7.954c3.038-2.763,6.878-4.999,12.182-5.487
		c2.667-0.246,5.735-0.051,8.659-0.051c2.982,0,5.934-0.177,8.809-0.05c2.855,0.125,5.873-0.133,8.558,0.101
		c2.666,0.231,4.702,1.161,6.544,2.315c1.808,1.133,3.316,2.515,4.53,4.279c1.198,1.74,2.19,3.859,2.618,6.242
		c1.089,6.075-1.854,9.831-5.487,11.83c-2.096,1.153-4.374,1.208-7.501,1.208c-4.348,0-8.657,0-12.987,0
		c-1.405,0-2.88,0.066-4.329,0c-1.464-0.066-2.887,0.047-4.027-0.302c-1.933-0.592-3.231-2.031-3.322-4.229
		c0.285-0.287,0.75-0.201,1.157-0.201c0.458,0,1.009-0.086,1.41,0c0.397,0.085,0.561,0.452,0.805,0.705
		c1.122,1.159,3.822,0.701,6.041,0.806c3.782,0.179,6.842-0.05,10.32-0.051c1.796,0,3.587-0.12,5.336-0.05
		c1.836,0.073,3.449,0.037,4.782-0.454c2.469-0.907,4.407-3.139,4.581-6.191c0.129-2.267-0.733-4.877-1.661-6.393
		c-1.648-2.691-4.249-4.938-7.753-5.688c-1.44-0.309-3.076-0.292-4.983-0.302c-3.414-0.019-6.991,0-10.571,0
		c-3.503,0-7.105-0.251-10.672,0c-6.42,0.453-10.825,3.811-13.491,8.004c-1.413,2.221-2.463,4.867-2.668,8.054
		c-0.223,3.448,0.443,6.553,1.46,9.212c1.912,5.005,5.459,8.985,9.967,11.528c3.508,1.979,7.83,2.761,13.29,2.869
		c1.509,0.03,4.131,0.762,3.926-1.259c-0.283-0.509-0.852-0.448-1.308-0.453c-1.892-0.02-3.56,0.173-5.236,0
		c-2.235-0.229-4.3-0.422-6.141-1.057c-3.631-1.251-6.397-3.047-8.809-5.588c-2.216-2.334-4.108-5.695-4.984-9.414
		c-0.486-2.069-0.66-4.358-0.453-6.544c0.398-4.202,2.553-7.183,4.883-9.514c2.461-2.461,5.678-3.964,10.169-4.228
		c2.204-0.13,4.589,0,6.997,0c4.644,0,9.46-0.051,14.146-0.051c2.555,0,4.559,0.148,6.242,0.957c1.54,0.739,2.972,1.883,3.978,3.272
		c1.365,1.889,2.748,5.588,1.61,8.508c-0.885,1.565-2.225,2.942-4.479,2.97c-0.319-0.722-0.075-2.006-0.151-2.97
		c0.588-0.776,1.392-0.99,1.611-2.064c0.248-1.219-0.295-2.649-0.806-3.474c-1.186-1.914-2.843-3.508-5.588-3.675
		c-1.306-0.079-2.777-0.008-4.279,0c-2.995,0.016-5.859,0.05-8.558,0.05c-2.97,0-5.59,0.212-8.558,0.101
		c-2.858-0.107-5.582,0.334-7.35,1.359c-1.446,0.838-2.84,2.004-3.826,3.222c-1.07,1.322-1.82,2.897-2.265,4.782
		c-0.951,4.032,0.441,8.54,2.113,11.377c2.601,4.408,6.621,7.644,12.838,8.306c1.995,0.212,4.567,0.201,6.896,0.201
		c4.531,0,9.295,0.05,13.943,0.05c2.41,0,4.671,0.045,6.746-0.302c6.066-1.013,10.371-3.63,13.592-7.601
		c1.846-2.276,3.338-4.879,4.379-7.954c0.137-0.402,0.464-0.948,0.051-1.359c-1.652-0.496-1.695,1.191-2.014,2.014
		c-1.2,3.104-2.906,5.618-5.034,7.803c-1.388,1.425-3.023,2.538-4.983,3.524c-1.914,0.962-4.069,1.809-6.494,2.063
		c-2.632,0.276-5.503,0.151-8.356,0.151c-2.855,0-5.713-0.101-8.457-0.101c-2.765,0-5.646,0.193-8.356-0.051
		c-2.924-0.263-4.939-0.618-6.897-1.661c-3.678-1.959-6.491-4.995-7.803-9.262c-0.7-2.282-1.103-5.011-0.402-7.4
		c1.2-4.099,4.621-7.104,9.614-7.451c2.585-0.179,5.423,0.02,8.307-0.05c4.176-0.101,8.526-0.15,12.685-0.05
		c1.438,0.035,2.832-0.115,3.876,0.302c1.703,0.68,3.202,2.349,3.172,4.581C53.359,26.164,52.854,26.093,52.388,26.093z"/>
</g>
<g id="Layer_1">
</g>
</svg>
