<?xml version="1.0" encoding="iso-8859-1"?>
<!-- Generator: Adobe Illustrator 19.2.0, SVG Export Plug-In . SVG Version: 6.00 Build 0)  -->
<svg version="1.1" xmlns="http://www.w3.org/2000/svg" xmlns:xlink="http://www.w3.org/1999/xlink" x="0px" y="0px"
	 viewBox="0 0 68.651 77.913" style="enable-background:new 0 0 68.651 77.913;" xml:space="preserve">
<g id="Cefina_x5F_JMW">
	<path style="fill-rule:evenodd;clip-rule:evenodd;" d="M23.548,18.188c2.49-4.453,5.26-8.993,7.786-13.531
		c0.365-0.656,0.787-1.299,1.092-1.946c0.425-0.9,0.771-1.86,1.424-2.611c0.361-0.377,0.712,0.429,0.854,0.665
		c2.386,3.943,4.432,7.795,6.789,11.68c0.286,0.471,0.978,1.469,0.949,1.851c-0.03,0.414-0.888,0.989-1.472,0.902
		c-0.434-0.064-0.746-0.851-0.997-1.282c-1.646-2.828-3.282-5.543-4.985-8.451c-0.129-0.221-0.573-1.232-0.997-1.234
		c-0.477-0.003-1.072,1.411-1.282,1.852c-1.284,2.702-2.906,5.288-4.415,7.881c-2.717,4.667-5.391,9.573-8.213,14.291
		c-1.005,1.68-1.974,3.509-3.039,5.365c-0.243,0.423-0.81,1.594-1.187,1.614c-0.427,0.023-1.078-1.046-1.092-1.424
		c-0.022-0.604,0.676-1.541,0.997-2.089C18.402,27.203,20.924,22.726,23.548,18.188z"/>
	<path style="fill-rule:evenodd;clip-rule:evenodd;" d="M34.088,6.033c0.04-0.009,0.045,0.019,0.047,0.047
		c0.729,0.585,1.072,1.508,1.519,2.327c1.119,2.048,2.311,3.857,3.561,6.029c0.207,0.36,0.632,0.963,0.617,1.282
		c-0.021,0.446-0.812,1.064-1.187,1.045c-0.51-0.025-0.986-1.207-1.234-1.662c-0.716-1.311-1.32-2.389-2.089-3.703
		c-0.218-0.372-0.767-1.631-1.187-1.662c-0.518-0.038-1.244,1.566-1.424,1.947c-0.133,0.28-0.184,0.546-0.285,0.854
		c-4.506,7.873-9.244,15.778-13.721,23.833c-0.245,0.44-0.687,1.436-0.997,1.472c-0.459,0.053-1.033-0.963-1.045-1.33
		c-0.016-0.502,0.698-1.492,0.997-1.994c2.585-4.34,5.075-9.047,7.596-13.246c1.433-2.529,2.891-5.04,4.368-7.549
		c1.479-2.512,2.764-5.136,4.273-7.644C33.998,6.101,34.024,6.049,34.088,6.033z"/>
	<path style="fill-rule:evenodd;clip-rule:evenodd;" d="M34.088,11.921c0.441-0.005,0.746,0.778,1.044,1.282
		c0.579,0.977,1.109,1.87,1.662,2.849c0.174,0.308,0.731,1.058,0.712,1.52c-0.019,0.467-0.676,1.17-1.092,1.139
		c-0.516-0.039-0.852-1.037-1.139-1.566c-0.196-0.361-0.65-1.522-1.14-1.519c-0.371,0.002-0.571,0.601-0.76,0.95
		c-0.242,0.445-0.516,0.743-0.665,1.044c-0.122,0.249-0.154,0.532-0.285,0.807c-0.447,0.941-1.051,1.864-1.567,2.801
		c-1.519,2.76-3.232,5.503-4.795,8.309c-1.556,2.792-3.158,5.52-4.795,8.309c-0.535,0.911-0.964,1.901-1.709,2.659
		c-0.494-0.227-1.038-0.749-1.045-1.329c-0.004-0.353,0.483-1.086,0.807-1.614c0.923-1.505,1.821-3.181,2.611-4.605
		c2.869-5.169,5.886-10.049,8.783-15.192c0.58-1.029,1.289-2.017,1.757-3.039c0.407-0.89,0.886-2.091,1.472-2.706
		C33.98,11.971,34.032,11.944,34.088,11.921z"/>
	<path style="fill-rule:evenodd;clip-rule:evenodd;" d="M23.406,16.526c-2.216-0.473-4.873-0.389-6.789,0.095
		c-2.79,0.705-5.358,2.382-6.979,4.415c-2.204,2.766-4.083,7.043-2.801,11.87c0.889,3.346,2.599,5.555,4.368,8.023
		c1.951,2.837,3.949,5.704,5.982,8.499c0.27,0.37,0.656,0.783,0.665,1.282c-0.427,0.399-1.528,0.282-1.946,0.095
		c-0.852-0.381-1.126-1.807-1.804-2.279c-1.927-2.758-3.77-5.516-5.745-8.403c-1.924-2.813-3.818-5.736-3.846-10.255
		c-0.027-4.5,1.967-8.586,4.558-11.015c2.09-1.959,4.295-3.395,7.454-4.226c1.688-0.443,3.968-0.504,5.934-0.237
		c0.67,0.091,1.407,0.262,1.757,0.665C24.24,15.654,23.824,16.214,23.406,16.526z"/>
	<path style="fill-rule:evenodd;clip-rule:evenodd;" d="M35.227,31.386c-0.348,0.241-1.385,0.362-1.709-0.047
		c-0.29-0.366-0.106-1.496-0.143-2.231c-0.073-1.467-0.478-3.083-0.854-4.368c-0.285-0.972-1.03-1.513-1.044-2.374
		c-0.011-0.645,0.518-1.146,0.807-1.377c0.968,0.631,1.113,2.084,1.946,2.849c0.692-0.51,0.892-1.514,1.377-2.231
		c2.649-3.892,6.556-7.108,12.866-7.406c0.016-0.001,0.032,0,0.048,0c4.891,0.002,8.615,1.951,11.204,4.51
		c2.388,2.353,4.824,6.083,4.843,10.872c0.016,3.991-1.17,7.15-2.991,9.543c-0.219,0.457-0.521,0.761-0.854,1.234
		c-0.216,0.307-0.567,1.118-0.949,1.14c-0.469,0.026-1.084-1.148-1.092-1.52c-0.013-0.596,0.738-1.321,1.092-1.852
		c0.447-0.668,0.914-1.219,1.187-1.756c0.922-1.818,1.707-4.227,1.52-7.312c-0.241-3.979-2.171-7.055-4.558-9.258
		c-2.35-2.169-6.023-3.827-10.255-3.466c-3.915,0.335-7.03,2.354-9.068,4.748c-1.576,1.851-2.801,4.153-3.133,7.216
		C35.36,29.266,35.554,30.299,35.227,31.386z"/>
	<path style="fill-rule:evenodd;clip-rule:evenodd;" d="M22.741,17.665c-0.111,0.696-0.439,1.176-0.902,1.519
		c-3.787-0.471-6.958,0.793-8.973,2.706c-2.34,2.221-4.155,5.457-3.371,9.875c0.416,2.344,1.741,4.208,2.991,5.982
		c2.487,3.529,5.025,7.217,7.549,10.73c0.514,0.715,1.125,1.393,1.377,2.231c-0.367,0.205-1.295,0.361-1.899,0.142
		c-0.468-0.169-1.141-1.349-1.566-1.946c-1.484-2.083-2.844-4.25-4.273-6.267c-0.945-1.333-2.011-2.702-2.944-4.083
		c-1.638-2.427-3.418-4.767-3.418-8.784c0-3.656,1.52-6.583,3.466-8.641c1.925-2.036,4.494-3.692,8.119-3.988
		C20.268,17.031,21.972,17.042,22.741,17.665z"/>
	<path style="fill-rule:evenodd;clip-rule:evenodd;" d="M57.019,37.178c0.178-0.804,0.724-1.239,1.092-1.851
		c0.975-1.862,1.542-3.809,1.377-6.267c-0.162-2.415-1.299-4.649-2.659-6.22c-1.424-1.646-3.526-2.822-5.555-3.323
		c-1.012-0.25-2.62-0.328-3.798-0.142c-2.63,0.414-4.692,1.573-6.219,3.228c-1.465,1.587-2.76,3.893-2.896,6.552
		c-0.034,0.668,0.213,1.888-0.19,2.279c-0.32,0.31-1.236,0.219-1.614-0.048c-0.531-2.469,0.11-5.157,0.997-6.979
		c1.82-3.741,5.629-6.833,10.54-7.122c2.648-0.156,5.093,0.558,6.884,1.614c1.813,1.07,3.432,2.421,4.463,4.036
		c1.303,2.041,2.372,4.958,1.994,8.451c-0.243,2.245-1.065,4.197-2.184,5.792c-0.261,0.372-0.81,1.412-1.234,1.424
		C57.515,38.617,57.135,37.608,57.019,37.178z"/>
	<path style="fill-rule:evenodd;clip-rule:evenodd;" d="M21.174,20.371c-0.121,0.708-0.361,1.282-0.854,1.519
		c-0.397,0.191-0.847,0.091-1.377,0.142c-2.88,0.279-5.059,2.329-6.077,4.463c-0.519,1.087-0.785,2.409-0.712,3.608
		c0.148,2.428,1.424,4.075,2.611,5.792c3.295,4.527,6.503,9.205,9.733,13.863c0.194,0.281,0.594,0.537,0.522,0.95
		c-0.285,0.352-1.318,0.345-1.852,0.142c-0.656-0.249-1.381-1.664-1.899-2.421c-0.64-0.937-1.238-1.721-1.804-2.517
		c-2.398-3.369-4.792-6.809-7.074-10.16c-1.14-1.674-2.247-3.654-2.089-6.504c0.163-2.942,1.596-5.153,3.276-6.647
		c1.369-1.217,3.166-2.333,5.65-2.516C19.935,20.035,20.77,20.016,21.174,20.371z"/>
	<path style="fill-rule:evenodd;clip-rule:evenodd;" d="M41.067,31.434c-0.375,0.262-1.295,0.267-1.614-0.048
		c-0.26-0.957-0.276-1.852-0.143-2.801c0.487-3.459,2.826-6.329,5.745-7.596c2.138-0.928,5.135-1.069,7.454-0.095
		c3.768,1.583,7.45,6.204,5.65,12.012c-0.146,0.469-0.406,1.084-0.712,1.662c-0.179,0.338-0.692,1.282-1.092,1.282
		c-0.411,0-0.938-0.972-0.95-1.329c-0.014-0.422,0.385-0.893,0.522-1.187c0.481-1.033,0.843-2.382,0.712-4.083
		c-0.181-2.346-1.545-4.38-3.133-5.555c-1.52-1.124-3.915-1.793-6.077-1.33c-3.247,0.696-5.879,3.335-6.172,7.074
		C41.21,30.045,41.322,30.737,41.067,31.434z"/>
	<path style="fill-rule:evenodd;clip-rule:evenodd;" d="M68.651,59.824c-0.714,0.299-1.575,0.227-2.374,0.19
		c-4.74-0.215-10.117-0.047-15.098-0.047c-0.784,0-1.631,0.145-2.326-0.19c0.082-0.529,0.625-1.575,1.139-1.756
		c0.437-0.154,1.293-0.047,1.947-0.048c3.919,0,7.899,0.001,11.679,0c0.611,0,1.259,0.11,1.804-0.142
		c0.105-0.438-0.238-0.814-0.427-1.14c-0.593-1.018-1.193-2.123-1.852-3.133c-4.075-7.003-8.145-14.012-12.249-20.985
		c-1.385-2.215-2.856-4.863-4.32-7.312c-0.215-0.358-0.591-0.749-0.522-1.139c0.064-0.366,0.9-0.688,1.234-0.712
		c0.79-0.058,1.359,1.319,1.71,1.947c2.934,5.262,6.47,10.931,9.305,16c3.041,5.378,6.218,10.648,9.211,16.095
		C67.929,58.21,68.582,58.911,68.651,59.824z"/>
	<path style="fill-rule:evenodd;clip-rule:evenodd;" d="M32.474,31.291c-0.293,0.406-1.432,0.396-1.709,0.047
		c-0.252-0.317-0.112-1.287-0.143-1.899c-0.037-0.746-0.168-1.494-0.333-2.184c-0.157-0.659-0.583-1.311-0.522-1.994
		c0.033-0.37,0.681-1.6,0.997-1.519c0.575,0.148,0.999,1.597,1.187,2.184C32.443,27.459,32.677,29.282,32.474,31.291z"/>
	<path style="fill-rule:evenodd;clip-rule:evenodd;" d="M63.619,56.786c-0.885,0.391-1.972,0.222-3.038,0.19
		c-2.074-0.062-4.318-0.001-6.552,0c-1.097,0-2.215,0.147-3.133-0.19c-0.01-0.693,0.591-1.179,1.044-1.566
		c1.913-0.083,4.188-0.048,6.267-0.047c0.653,0,1.416,0.164,1.852-0.237c0.005-0.711-0.463-1.362-0.807-1.947
		c-2.454-4.167-4.854-8.202-7.264-12.582c-2.303-4.185-4.822-8.307-7.312-12.581c-0.257-0.442-0.964-1.314-0.949-1.852
		c0.012-0.442,0.832-1.271,1.139-1.235c0.521,0.063,1.02,1.221,1.377,1.804c1.213,1.982,2.375,4.088,3.514,6.03
		c4.314,7.357,8.638,14.691,12.866,22.124C63,55.362,63.513,56.009,63.619,56.786z"/>
	<path style="fill-rule:evenodd;clip-rule:evenodd;" d="M28.818,26.923c0.609,0.08,0.725,1.595,0.807,2.611
		c0.055,0.679,0.04,1.459-0.19,1.852c-0.331,0.259-1.188,0.259-1.519,0C27.353,29.688,27.815,27.68,28.818,26.923z"/>
	<path style="fill-rule:evenodd;clip-rule:evenodd;" d="M58.396,53.843c-0.673,0.333-1.759,0.19-2.754,0.19
		c-0.974,0-2.039,0.111-2.753-0.142c-0.022-0.492,0.503-1.392,0.997-1.566c0.375-0.132,0.909,0.092,1.187-0.285
		c0.083-0.576-0.356-1.068-0.617-1.519c-4.037-6.973-8.038-14.115-12.107-21.127c0.027-0.859,0.113-1.913,0.712-2.042
		c0.386,0.082,0.791,1.057,1.092,1.567c2.245,3.806,4.603,7.724,6.742,11.537c2.199,3.92,4.427,7.713,6.647,11.631
		C57.862,52.652,58.305,53.179,58.396,53.843z"/>
	<path style="fill-rule:evenodd;clip-rule:evenodd;" d="M9.21,43.588c0.581,0.305,0.903,0.869,1.092,1.566
		c-0.414,1.145-1.052,2.218-1.662,3.229c-0.621,1.029-1.17,2.063-1.757,3.086c-1.179,2.057-2.477,4.037-3.465,6.267
		c0.486,0.469,1.267,0.285,1.899,0.285c9.178,0,18.622,0,28.011,0c0.708,0,1.431,0.081,2.137,0.047
		c0.609-0.029,1.324-0.211,1.851,0.19c-0.041,0.745-0.628,1.326-1.186,1.709c-11.428-0.066-22.464-0.045-33.851-0.047
		c-0.766,0-1.609,0.147-2.279-0.19c0.164-0.784,0.647-1.479,1.044-2.137c2.728-4.52,5.179-9.448,7.976-13.958
		C9.12,43.655,9.146,43.603,9.21,43.588z"/>
	<path style="fill-rule:evenodd;clip-rule:evenodd;" d="M30.433,61.344c0.648-0.24,1.419-0.335,1.946-0.095
		c0.34,0.155,0.719,1.007,0.997,1.425c0.225,0.336,0.755,1.258,1.14,1.282c0.357,0.021,0.806-0.671,1.092-1.092
		c3.799-5.595,7.646-11.027,11.442-16.617c0.267-0.392,0.589-0.846,0.902-1.282c0.33-0.459,0.637-0.983,0.949-1.234
		c0.521-0.377,1.14,0.956,1.14,1.329c-0.001,0.416-0.521,1.025-0.854,1.52c-4.123,6.105-8.268,12.124-12.582,18.278
		c-0.301,0.43-0.605,0.936-0.95,1.424c-0.291,0.413-0.798,1.229-1.092,1.234c-0.368,0.006-0.673-0.669-0.902-0.997
		c-0.805-1.149-1.486-2.299-2.279-3.466C31.03,62.536,30.571,62.033,30.433,61.344z"/>
	<path style="fill-rule:evenodd;clip-rule:evenodd;" d="M8.403,54.887c0.437,0.425,1.113,0.253,1.662,0.238
		c7.363-0.205,14.223,0.047,21.507,0.047c1.989,0,3.962,0,5.982,0c0.563,0,1.241-0.136,1.756,0.19
		c0.042,0.709-0.535,1.204-0.997,1.566c-10.389,0.057-20.701,0-31.192,0c-0.63,0-1.333,0.138-1.899-0.189
		c0.011-0.524,0.376-0.944,0.617-1.377c1.166-2.094,2.349-4.186,3.608-6.314c0.501-0.848,0.898-1.86,1.472-2.517
		c0.423-0.384,1.158,0.638,1.187,1.14c0.032,0.546-0.531,1.346-0.855,1.899c-0.662,1.133-1.326,2.361-1.994,3.466
		C8.897,53.632,8.441,54.192,8.403,54.887z"/>
	<path style="fill-rule:evenodd;clip-rule:evenodd;" d="M50.61,46.436c0.701,0.122,0.874,0.772,1.044,1.424
		c-0.168,0.632-0.584,1.2-0.95,1.709c-1.084,1.512-2.063,3.118-3.229,4.605c-3.752,5.709-8.026,11.733-11.964,17.566
		c-0.259,0.383-0.616,1.001-0.95,0.997c-0.404-0.005-0.707-0.716-0.902-0.997c-0.469-0.674-0.911-1.125-1.14-1.899
		c-1.759-2.376-3.423-4.876-5.127-7.358c-0.223-0.325-0.596-0.695-0.522-1.14c0.299-0.202,1.294-0.309,1.804-0.143
		c0.457,0.149,1.291,1.517,1.567,1.947c0.503,0.784,0.928,1.475,1.377,2.089c1.099,1.504,1.698,3.123,2.896,4.083
		c0.553-0.202,0.884-0.782,1.187-1.234c2.251-3.36,4.556-6.707,6.837-10.113c1.882-2.81,3.879-5.745,5.887-8.641
		C49.133,48.313,49.871,47.23,50.61,46.436z"/>
	<path style="fill-rule:evenodd;clip-rule:evenodd;" d="M12.914,49.095c0.572,0.172,1.066,0.734,1.092,1.282
		c0.028,0.596-0.608,0.958-0.569,1.567c0.441,0.356,1.442,0.31,2.184,0.285c6.149-0.213,13.072,0.039,19.418,0
		c1.566-0.009,3.247,0.048,4.985,0.047c0.491,0,1.072-0.117,1.472,0.19c-0.171,0.715-0.627,1.146-1.14,1.52
		c-9.307,0.078-18.952-0.023-28.438,0.047c-0.553,0.004-1.183,0.038-1.662-0.237c0.257-0.856,0.761-1.611,1.187-2.373
		c0.42-0.753,0.88-1.557,1.329-2.231C12.833,49.173,12.846,49.106,12.914,49.095z"/>
	<path style="fill-rule:evenodd;clip-rule:evenodd;" d="M37.08,74.685c-0.344,0.606-0.756,1.143-1.14,1.709
		c-0.364,0.241-0.681,1.524-1.33,1.519c-0.354-0.003-0.772-0.728-0.997-1.044c-0.76-1.071-1.077-1.799-1.804-2.849
		c-2.401-3.468-5.127-7.348-7.454-10.825c-0.347-0.65-0.962-1.032-1.092-1.899c0.362-0.256,1.345-0.143,1.851-0.095
		c0.548,0.173,0.749,0.764,1.045,1.187c1.462,2.094,2.959,4.324,4.463,6.457c0.609,0.865,1.299,1.693,1.804,2.563
		c0.293,0.505,0.53,1.049,0.949,1.614c0.265,0.357,0.768,1.309,1.187,1.33c0.399,0.019,0.971-0.911,1.282-1.377
		c2.507-3.759,5.123-7.389,7.549-11.062c2.444-3.701,5.069-7.294,7.596-11.015c0.39-0.573,0.766-1.295,1.14-1.567
		c0.556-0.351,1.239,1.093,1.234,1.472c-0.004,0.419-0.583,1.15-0.902,1.614c-1.037,1.508-2.16,2.946-3.133,4.415
		C45.38,62.796,40.971,69.089,37.08,74.685z"/>
</g>
<g id="Layer_1">
</g>
</svg>
