<?xml version="1.0" encoding="iso-8859-1"?>
<!-- Generator: Adobe Illustrator 19.2.0, SVG Export Plug-In . SVG Version: 6.00 Build 0)  -->
<svg version="1.1" xmlns="http://www.w3.org/2000/svg" xmlns:xlink="http://www.w3.org/1999/xlink" x="0px" y="0px"
	 viewBox="0 0 73.418 80.396" style="enable-background:new 0 0 73.418 80.396;" xml:space="preserve">
<g id="Cellulose_x5F_and_x5F_Paper_x5F_Factory">
	<path style="fill-rule:evenodd;clip-rule:evenodd;" d="M27.805,0c5.404,0.064,11.078-0.014,16.423,0.102
		c0.159,3.658,0.153,7.293,0.153,10.965c0,2.76-0.117,5.674-0.051,8.416c0.02,0.894-0.103,2.168,0.102,2.856
		c0.106,0.359,0.466,0.66,0.815,1.122c3.062,4.033,6.107,8.021,9.079,12.087c3.225,4.415,6.577,8.699,9.945,13.107
		c1.091,1.428,2.155,2.965,3.264,4.437c2.224,2.953,4.395,5.867,5.458,9.895c0.539,2.048,0.573,4.483,0.051,6.732
		c-0.93,4.002-3.312,7.015-6.528,8.823c-1.558,0.876-3.713,1.559-5.968,1.734c-2.334,0.182-4.984-0.031-7.599,0.051
		c-4.912,0.154-10.268,0-15.25,0c-2.558,0-5.116,0-7.701,0c-2.522,0-5.138-0.141-7.548-0.051c-2.483,0.093-5.101,0.007-7.497-0.102
		C8.025,79.861,2.981,76.409,1.03,71.045c-0.671-1.844-1.215-4.126-0.97-6.63c0.2-2.04,1.227-3.743,2.193-5.458
		c0.936-1.658,1.804-3.312,2.856-4.845c1.039-1.513,2.164-2.95,3.264-4.437c2.191-2.962,4.236-6.003,6.376-8.976
		c4.266-5.927,8.536-11.827,12.75-17.952c0-6.4,0.001-13.283,0-19.942c0-0.868-0.096-2.299,0.153-2.703
		C27.69,0.055,27.745,0.025,27.805,0z M34.895,41.464c0.198,0.269,0.549,0.16,0.663,0.561c0.062,0.215,0.029,0.587-0.101,0.816
		c-0.351,0.229-1.15,0.006-1.582,0.153c-0.51,0.408-0.895,0.941-1.122,1.632c0.788,0.245,1.993,0.001,2.704,0.204
		c0.182,0.259,0.23,0.927,0,1.173c-1.062,0.231-2.545,0.04-3.774,0.102c-0.45,0.369-0.975,0.927-1.021,1.53
		c1.515,0.298,3.382-0.047,4.845,0.255c0.071,0.291,0.113,0.905-0.05,1.122c-1.838,0.151-4.028-0.049-5.865,0.102
		c-0.414,0.472-0.994,1.044-1.071,1.683c1.993,0.391,5.021-0.053,6.937,0.255c0.214,0.3,0.177,0.955-0.052,1.224
		c-2.35,0.03-5.3-0.02-7.956,0c-0.495,0.409-1.042,1.029-1.122,1.683c2.822,0.306,6.271-0.014,9.13,0.255
		c0.197,0.269,0.191,0.856,0,1.122c-3.319,0.154-7-0.035-10.252,0.051c-0.423,0.478-0.922,0.88-1.071,1.632
		c3.483,0.413,7.939-0.105,11.373,0.306c0.12,0.307,0.17,0.886-0.05,1.122c-3.999,0.248-8.142-0.047-12.395,0.051
		c-0.509,0.443-0.974,0.93-1.173,1.683c3.101,0.24,6.868,0.153,10.252,0.153c1.171,0,2.32-0.114,3.365,0.153
		c0.078,0.298,0.116,0.908-0.102,1.071c-5.003,0.175-9.773-0.108-14.638,0.051c-0.495,0.575-1.046,1.096-1.274,1.938
		c5.074,0.384,10.952-0.07,15.964,0.306c0.417,4.32-0.08,9.575,0.255,13.924c0.229,0.209,0.881,0.196,1.173,0.051
		c0.424-4.421-0.093-9.595,0.255-13.975c4.338-0.244,8.739-0.102,13.005-0.102c1.041,0,2.12,0.118,3.111-0.153
		c-0.246-0.825-0.748-1.394-1.275-1.938c-3.938-0.11-8.218-0.009-12.189,0c-0.905,0.002-1.85,0.037-2.703-0.153
		c-0.071-0.278-0.109-0.866,0.052-1.071c4.225-0.235,9.26,0.06,13.719-0.204c-0.049-0.639-0.64-1.157-1.019-1.632
		c-4.188-0.203-8.578,0.112-12.699-0.153c-0.159-0.246-0.17-0.993,0.051-1.173c2.884-0.148,6.215-0.102,9.282-0.102
		c0.747,0,1.531,0.12,2.193-0.153c-0.186-0.698-0.629-1.139-1.071-1.581c-3.236-0.2-7.286,0.163-10.455-0.153
		c-0.154-0.208-0.154-0.863,0-1.071c1.419-0.184,3.079-0.102,4.691-0.102c1.628,0,3.276,0.122,4.642-0.153
		c-0.16-0.74-0.633-1.169-1.071-1.632c-2.634-0.152-5.671,0.186-8.262-0.102c-0.156-0.231-0.156-0.942,0-1.173
		c2.042-0.264,4.83,0.076,7.089-0.204c-0.176-0.57-0.586-1.532-1.122-1.734c-0.325-0.123-0.76-0.017-1.173,0
		c-1.466,0.059-3.536,0.035-4.794-0.102c-0.162-0.326-0.212-0.929,0.051-1.173c1.474-0.175,3.417,0.119,4.743-0.204
		c-0.094-0.502-0.483-1.304-1.019-1.479c-1.084-0.352-2.784,0.28-3.826-0.204c-0.071-0.256-0.118-0.891,0.052-1.071
		c0.698-0.288,2.075,0.103,2.703-0.255c-0.178-0.517-0.649-1.455-1.122-1.632c-0.457-0.171-1.1,0.101-1.633-0.153
		c-0.126-0.179-0.104-0.508-0.102-0.816c0.119-0.439,0.596-0.212,0.663-0.612c0.049-0.29-1.083-1.754-1.428-1.785
		C35.686,40.148,35.235,40.751,34.895,41.464z"/>
</g>
<g id="Layer_1">
</g>
</svg>
