<?xml version="1.0" encoding="iso-8859-1"?>
<!-- Generator: Adobe Illustrator 19.2.0, SVG Export Plug-In . SVG Version: 6.00 Build 0)  -->
<svg version="1.1" xmlns="http://www.w3.org/2000/svg" xmlns:xlink="http://www.w3.org/1999/xlink" x="0px" y="0px"
	 viewBox="0 0 80.981 36.687" style="enable-background:new 0 0 80.981 36.687;" xml:space="preserve">
<g id="Centro_x5F_Tecnico_x5F_Confederale">
	<path style="fill-rule:evenodd;clip-rule:evenodd;" d="M29.656,11.293c-1.845,2.692-4.83,5.066-7.121,7.579
		c-1.623,1.601-3.151,3.253-4.781,4.883c-0.514,0.514-1.259,0.973-1.424,1.78c-0.007,0.884,0.713,1.466,1.221,1.984
		c1.572,1.603,3.206,3.174,4.73,4.883c0.604,0.799,1.755,1.184,1.882,2.339c0.215,1.965-1.993,1.679-3.815,1.679
		c-2.387,0-4.478,0-6.918,0c-1.094,0-2.773,0.119-3.459-0.102c-0.939-0.302-1.886-1.55-2.696-2.441
		C5.09,31.472,3.3,29.635,1.018,27.316c-0.483-0.491-1.047-0.957-1.017-1.73c0.012-1.047,0.982-1.604,1.628-2.238
		c1.928-1.892,3.792-3.923,5.697-5.9c1.885-1.957,3.758-3.86,5.748-5.85c0.641-0.641,1.413-1.526,2.136-1.78
		c0.799-0.281,2.205-0.102,3.306-0.102c2.139,0.001,4.346,0.051,6.663,0.051c1.071,0,2.49-0.188,3.306,0.051
		c0.62,0.181,0.781,0.767,1.17,1.271c0.086-1.268,0.704-1.743,1.526-2.543c2.501-2.435,4.892-4.892,7.426-7.427
		c0.463-0.462,0.921-1.098,1.577-1.119c1.91-0.061,1.424,3.004,1.424,4.985c0,1.692-0.337,4.221,0.56,4.781
		c0.747,0.467,2.587,0.187,4.222,0.203c0.67,0.007,1.509,0.051,2.136,0.051c1.526,0,3.011-0.088,2.95,1.526
		c-0.044,1.16-1.695,2.306-2.391,3.001c-0.444,0.444-0.832,0.948-1.271,1.424c-0.437,0.474-0.973,0.865-1.374,1.323
		c-0.775,0.887-1.684,1.786-2.645,2.747c-0.627,0.627-3.207,2.479-1.882,3.866c0.655,0.686,2.681,0.458,4.171,0.458
		c0.726,0,1.569,0.051,2.289,0.051c1.861,0,2.889,0.012,3.255,1.424c-0.355,1.273-1.513,2.05-2.34,2.95
		c-1.684,1.835-3.434,3.591-5.29,5.29c-0.903,0.827-1.592,2.007-2.849,2.391c-0.821,0.084-1.304-0.591-1.78-1.068
		c-2.821-2.822-5.545-5.581-8.342-8.596c-0.428-0.461-1.085-1.09-1.221-1.577c-0.254-0.915-0.081-2.478-0.102-3.51
		C29.637,18.174,30.001,14.591,29.656,11.293z"/>
	<path style="fill-rule:evenodd;clip-rule:evenodd;" d="M68.161,25.841c0.193,1.158,1.138,1.8,1.831,2.493
		c0.72,0.72,1.407,1.477,2.086,2.238c0.87,0.747,1.41,1.331,2.187,2.137c0.609,0.632,1.83,1.405,1.729,2.594
		c-0.095,1.124-1.128,1.358-2.594,1.374c-3.168,0.033-6.222-0.016-9.461-0.051c-0.55-0.006-1.171,0.114-1.78-0.051
		c-0.512-0.139-1.024-0.719-1.475-1.17c-1.393-1.393-2.549-2.572-3.917-4.019c-1.217-1.287-2.68-2.523-3.968-3.967
		c-0.418-0.469-1.051-1.001-1.068-1.526c-0.027-0.811,1.091-1.65,1.679-2.238c3.924-3.924,7.612-7.765,11.546-11.699
		c0.625-0.625,1.344-1.582,2.085-1.78c1.738-0.464,4.077,0.067,5.952-0.102c0.979-0.088,2.397-0.051,3.814-0.051
		c1.909,0,4.103-0.27,4.171,1.475c0.034,0.867-0.795,1.538-1.322,2.085c-3.366,3.494-6.856,6.758-10.123,10.275
		C69.015,24.416,68.268,24.975,68.161,25.841z"/>
</g>
<g id="Layer_1">
</g>
</svg>
