<?xml version="1.0" encoding="iso-8859-1"?>
<!-- Generator: Adobe Illustrator 19.2.0, SVG Export Plug-In . SVG Version: 6.00 Build 0)  -->
<svg version="1.1" xmlns="http://www.w3.org/2000/svg" xmlns:xlink="http://www.w3.org/1999/xlink" x="0px" y="0px"
	 viewBox="0 0 65.217 74.234" style="enable-background:new 0 0 65.217 74.234;" xml:space="preserve">
<g id="center_x5F_for_x5F_advanced_x5F_engineering_x5F_study">
	<path style="fill-rule:evenodd;clip-rule:evenodd;" d="M20.979,71.206c-6.982-7.196-14.144-14.212-20.96-21.575
		c0.062-2.414-0.124-5.077,0.095-7.333c1.004,0.244,1.461,1.441,2.271,2.035c0.713,0.737,1.371,1.531,2.224,2.129
		c-1.415-1.786-3.229-3.174-4.542-5.062c-0.102-2.195-0.076-5.149,0-7.333c0.758,0.22,1.068,0.887,1.56,1.372
		c2.773,2.775,5.852,6.009,8.849,8.895c0.359,0.347,0.934,1.129,1.372,1.136c0.796,0.012,1.082-1.261,1.655-1.373
		c1.521-1.507,3.115-2.941,4.495-4.589c-0.463,0.121-0.812,0.764-1.419,0.898c-0.181-2.346-0.093-5.202-0.095-7.569
		c-0.865,0.362-1.535,1.108-2.177,1.75C12.673,36.221,11,37.799,9.34,39.459c-0.292,0.292-0.646,0.693-1.089,0.757
		c-0.219-2.177-0.032-4.762-0.094-7.097c1.086-1.295,2.378-2.384,3.405-3.738c-0.579,0.328-1.139,0.906-1.655,1.466
		c-0.499,0.541-0.938,1.276-1.656,1.42c-0.238-2.352-0.15-5.271-0.094-7.759C15.67,16.731,23.567,9.194,31.294,1.466
		c0.41-0.411,1.169-1.454,1.608-1.466c0.426-0.013,1.198,1.07,1.609,1.514c3.463,3.754,7.172,7.29,10.597,10.977
		c0.992,1.067,2.054,2.079,3.076,3.123c2.517,2.57,5.008,5.144,7.569,7.854c0.447,0.473,1.292,1.204,1.42,1.656
		c0.287,1.016-0.017,2.922,0.047,4.353c0.032,0.719,0.221,2.414,0,3.075c-0.062,0.184-0.015,0.249-0.331,0.378
		c0.543,0.899,1.319,1.603,2.035,2.318c1.778,1.779,3.441,3.63,5.299,5.488c0.297,0.297,0.983,0.799,0.993,1.136
		c0.009,0.295-0.634,0.87-0.899,1.136c-2.316,2.316-4.672,4.66-7.001,6.907c-2.769,2.547-5.267,5.364-8.139,7.807
		c-2.499-0.045-5.005,0.125-7.38-0.095c-0.005-0.363,0.378-0.597,0.614-0.852c0.44-0.475,0.887-0.833,1.277-1.372
		c0.01-0.039,0.047-0.047,0.047-0.095c-1.71,1.435-3.338,3.055-4.968,4.684c-3.208,3.208-6.442,6.253-9.746,9.557
		c-1.191,1.192-2.41,2.318-3.69,3.548c-0.35,0.336-0.938,1.124-1.277,1.136c-0.505,0.016-1.355-1.144-1.609-1.467
		C21.955,72.138,21.385,71.633,20.979,71.206z M49.32,25.313c0.645,0.301,0.961,0.932,1.514,1.324
		c-5.19-5.905-11.049-11.948-16.702-17.6c-0.323-0.324-0.94-1.051-1.277-1.041c-0.415,0.013-0.946,0.757-1.229,1.041
		c-1.257,1.256-2.518,2.116-3.407,3.548c0.162-0.021,0.427-0.108,0.568,0c3.37,3.207,6.442,6.711,9.746,9.983
		c1.153,1.055,2.037,2.379,3.359,3.264c-0.003-0.143-0.144-0.421,0.048-0.473C44.304,25.25,46.876,25.344,49.32,25.313z
		 M23.156,17.6c0.096-0.095,0.368-0.26,0.283-0.378C23.358,17.332,23.046,17.458,23.156,17.6z M28.217,20.865
		c0.189,0,0.38,0,0.568,0C28.808,20.456,28.224,20.546,28.217,20.865z M30.584,22.569c-0.187-0.114-0.287-0.312-0.473-0.426
		C30.178,22.344,30.387,22.653,30.584,22.569z M17.052,23.846c0.443-0.393,1.031-0.893,1.229-1.372
		C17.885,22.912,17.216,23.332,17.052,23.846z M25.38,23.656c0.171-0.004,0.389-0.208,0.283-0.331
		C25.584,23.451,25.408,23.48,25.38,23.656z M24.007,25.123c0.049-0.125,0.187-0.16,0.236-0.284
		C24.118,24.858,23.903,25.031,24.007,25.123z M15.017,25.833c0.318-0.123,0.517-0.367,0.663-0.662
		C15.371,25.303,15.164,25.537,15.017,25.833z M14.639,26.306c0.065-0.14,0.219-0.192,0.283-0.332
		C14.783,26.011,14.546,26.195,14.639,26.306z M42.838,26.732c-0.139-0.065-0.191-0.219-0.331-0.284
		C42.544,26.588,42.727,26.824,42.838,26.732z M52.206,28.057c-0.241-0.232-0.52-0.679-0.804-0.71
		C51.617,27.605,51.925,28.02,52.206,28.057z M12.699,28.246c0.14-0.036,0.377-0.22,0.285-0.332
		C12.892,28.028,12.718,28.059,12.699,28.246z M11.895,29.003c0.174-0.031,0.235-0.175,0.331-0.284
		C12.039,28.736,11.953,28.856,11.895,29.003z M30.536,31.085c-0.308-0.333-0.601-0.72-0.946-1.088
		c-0.311-0.332-0.863-1.058-1.23-0.899c-0.962,0.416-1.659,1.589-2.461,2.413c-0.809,0.831-1.797,1.458-2.27,2.366
		c0.149,0.161,0.276,0.249,0.331,0.473c0.201,0.845-0.001,2.188,0,3.454c0,1.69,0.142,3.256-0.237,4.164
		c1.192-0.243,2.841-0.143,4.399-0.143c1.268,0,2.569-0.112,3.597,0.143c0.03,0.299-0.131,0.405-0.236,0.567
		c0.421-0.288,0.909-0.509,1.088-1.041c-0.45-0.799-1.179-1.39-1.799-2.034c-1.559-1.623-3.272-3.173-4.778-4.778
		c-0.309-0.331-0.741-0.618-0.851-1.088c2.306-0.187,5.138-0.097,7.522-0.047c0.446,0.106,0.633,0.723,0.993,0.757
		C32.712,33.066,31.652,32.293,30.536,31.085z M37.255,29.57c-0.124-0.049-0.158-0.188-0.283-0.236
		C36.99,29.46,37.164,29.674,37.255,29.57z M19.465,29.855c0.015-0.115,0.291-0.21,0.188-0.284
		C19.606,29.652,19.329,29.746,19.465,29.855z M46.007,30.138c-0.095-0.065-0.205-0.359-0.331-0.236
		C45.755,29.984,45.911,30.233,46.007,30.138z M46.907,31.227c-0.066-0.17-0.136-0.338-0.331-0.379
		C46.603,31.057,46.743,31.153,46.907,31.227z M17.383,32.031c0.15-0.134,0.456-0.362,0.426-0.52
		C17.72,31.707,17.323,31.843,17.383,32.031z M16.911,32.409c0.139-0.021,0.341-0.224,0.283-0.284
		C17.1,32.221,16.97,32.28,16.911,32.409z M56.558,43.055c0.284-0.284,1.003-0.91,0.994-1.231c-0.01-0.307-0.679-0.909-0.946-1.183
		c-1.813-1.847-3.75-3.562-5.441-5.394c-0.694-0.753-1.385-1.529-2.271-2.082c-0.011-0.037-0.04-0.055-0.096-0.047
		c0,0.047,0,0.094,0,0.142c-0.049,1.12-0.047,2.567-0.047,3.88c0,0.627,0,1.285,0,1.893c0,0.621,0.115,1.269-0.143,1.798
		c-0.776-0.502-1.392-1.204-2.033-1.845c-0.654-0.654-1.255-1.363-1.94-1.987c-1.264-1.339-2.438-2.767-3.974-3.833
		c-0.015,1.888,0.019,4.002,0,5.867c-0.007,0.623,0.034,1.281-0.19,1.798c-0.34-0.006-0.449-0.244-0.709-0.332
		c0.085,0.49,0.642,0.629,0.614,1.136c-0.017,0.33-0.544,0.782-0.851,1.088c-1.004,1.002-2.176,2.061-2.981,2.886
		c-1.364,1.253-2.602,2.634-4.068,3.785c-1.738,0.065-3.693-0.004-5.394,0c-0.729,0.002-1.507,0.176-2.081-0.142
		c-0.062-0.307,0.366-0.51,0.473-0.805c-0.322,0.351-1.325,0.688-1.325,1.325c0,0.341,0.604,0.784,0.853,1.041
		c1.912,1.975,3.815,3.844,5.582,5.772c0.297,0.325,0.834,0.532,0.851,1.041c-1.629,0.17-3.657,0.095-5.441,0.095
		c-0.557,0-1.405,0.107-1.845-0.047c-0.196-0.069-0.488-0.394-0.71-0.615c-0.704-0.705-1.101-1.34-1.797-1.987
		c-1.264-1.173-2.467-2.603-3.691-3.691c-0.256-0.754-1.527-0.918-1.515-1.798c0.006-0.385,0.519-0.759,0.851-1.088
		c1.011-0.999,2.187-2.075,2.934-2.98c-1.382,1.125-2.64,2.509-4.259,3.832c-1.11,0.909-2.025,2.063-3.074,3.028
		c-0.278,0.255-0.807,0.899-1.136,0.899c-0.574,0-0.9-0.886-1.324-0.946c1.751,2.264,3.897,4.148,5.865,6.198
		c1.972,2.051,3.884,4.16,5.962,6.103c0.401,0.496,1.131,1.741,1.846,1.704c0.472-0.025,1.182-0.945,1.608-1.372
		c4.579-4.579,9.255-8.97,13.721-13.437c1.016-1.017,2.08-1.986,3.075-2.981c1.003-1.002,1.96-2.076,2.98-3.028
		c0.522-0.487,0.992-1.037,1.515-1.514c0.528-0.484,1.028-1.024,1.655-1.372c0.135,2.543,0.254,5.608,0,7.854
		C51.32,48.125,54.025,45.587,56.558,43.055z M34.7,35.438c-0.046-0.191-0.207-0.267-0.332-0.379
		C34.415,35.25,34.576,35.325,34.7,35.438z M19.56,37.992c0.132-0.151,0.364-0.204,0.425-0.426
		C19.8,37.634,19.548,37.885,19.56,37.992z M38.58,39.27c-0.401-0.214-0.54-0.69-0.946-0.899
		C37.858,38.731,38.209,39.214,38.58,39.27z M18.188,39.364c0.14-0.191,0.425-0.237,0.473-0.52
		C18.416,38.9,18.143,39.177,18.188,39.364z M39.289,40.027c-0.071-0.26-0.378-0.535-0.567-0.52
		C38.868,39.722,39.038,39.915,39.289,40.027z M31.057,42.96c0.17-0.052,0.404-0.288,0.378-0.378
		C31.301,42.7,31.154,42.805,31.057,42.96z M21.547,44.19c0.167-0.039,0.388-0.272,0.331-0.378
		C21.767,43.938,21.583,43.99,21.547,44.19z M27.556,46.414c0.166-0.07,0.443-0.279,0.378-0.426
		C27.779,46.101,27.651,46.241,27.556,46.414z M6.454,48.259c-0.514-0.622-1.122-1.401-1.798-1.703
		C5.138,47.241,5.759,47.788,6.454,48.259z M26.704,47.313c0.088-0.213,0.494-0.357,0.426-0.568
		C27.043,46.958,26.636,47.102,26.704,47.313z M25.711,48.259c0.064-0.095,0.359-0.205,0.236-0.331
		C25.893,48.034,25.599,48.144,25.711,48.259z M8.536,50.436c-0.45-0.685-1.005-1.267-1.655-1.75
		C7.296,49.403,7.883,49.953,8.536,50.436z M46.812,52.234c0.586-0.439,1.305-0.998,1.561-1.609
		C47.78,51.088,47.267,51.632,46.812,52.234z M9.955,51.808c-0.186-0.272-0.402-0.512-0.709-0.663
		C9.383,51.433,9.627,51.868,9.955,51.808z M45.393,53.558c-0.226,0.227-0.624,0.361-0.616,0.709
		c0.593-0.622,1.462-1.219,1.846-1.892C46.136,52.649,45.786,53.161,45.393,53.558z"/>
</g>
<g id="Layer_1">
</g>
</svg>
