<?xml version="1.0" encoding="iso-8859-1"?>
<!-- Generator: Adobe Illustrator 19.2.0, SVG Export Plug-In . SVG Version: 6.00 Build 0)  -->
<svg version="1.1" xmlns="http://www.w3.org/2000/svg" xmlns:xlink="http://www.w3.org/1999/xlink" x="0px" y="0px"
	 viewBox="0 0 46.193 76.836" style="enable-background:new 0 0 46.193 76.836;" xml:space="preserve">
<g id="Central_x5F_Puppet_x5F_Theater_x5F_Sofia">
	<path style="fill-rule:evenodd;clip-rule:evenodd;" d="M28.763,0.145c0.155,0.554-0.203,1.032-0.383,1.484
		c-0.547,1.367-0.974,2.84-1.389,4.358c-0.537,1.959-1.105,3.949-1.533,6.129c-0.635,3.232-0.91,6.645-0.909,10.63
		c0,0.944-0.309,3.179,0.767,3.064c0.606-0.065,0.935-1.885,1.148-2.538c1.827-5.569,4.149-10.203,7.183-14.701
		c0.491-0.728,0.944-1.7,1.629-2.011c0.567-0.258,1.364-0.308,2.106-0.383c0.716-0.073,1.567-0.131,2.203,0.191
		c-0.032,1.053-0.733,1.921-1.149,2.873c-2.07,4.729-3.623,9.995-5.028,15.562c-1.155,4.58-1.673,11.633,2.729,12.833
		c2.354,0.176,3.483-1.211,4.405-2.49c0.478-0.663,0.998-1.314,1.389-2.059c0.391-0.744,0.665-1.561,1.197-2.203
		c0.801,0.327,1.265,1.116,1.725,1.772c0.478,0.683,0.996,1.377,1.34,2.155c-0.25,2.684-1.052,5.085-2.106,7.183
		c-0.497,0.989-0.932,2.019-1.532,3.112c-0.467,0.848-1.187,2.316-2.012,2.634c-0.764,0.295-1.868,0.261-2.777,0.288
		c-1.961,0.056-3.764-0.313-5.362-0.767c-0.694-0.197-1.689-0.817-2.203-0.096c0.281,0.67,1.158,0.814,1.819,1.054
		c1.756,0.635,3.812,0.89,6.129,1.053c0.385,0.027,0.815-0.053,1.149,0.144c-0.08,0.726-0.705,1.235-1.149,1.724
		c-1.396,1.537-2.919,2.856-4.788,3.975c-1.87,1.119-3.922,1.962-6.32,2.49c-0.777,0.171-1.602,0.203-2.395,0.527
		c0.346,0.4,0.869,0.48,1.293,0.67c4.768,2.133,7.597,6.696,9.529,11.78c0.706,1.86,1.539,3.852,1.676,5.985
		c-0.608,0.383-1.384,0.24-2.06,0.24c-7.119,0-14.81-0.047-21.883-0.048c-1.637,0-3.254-0.048-4.837-0.048
		c-0.442,0-1.005,0.124-1.389-0.192c-0.076-0.54,0.221-1.04,0.336-1.532c1.311-5.617,3.383-10.724,7.135-13.982
		c0.718-0.624,1.322-1.202,2.154-1.676c0.816-0.465,1.66-0.788,2.586-1.245c-0.436-0.346-1.009-0.333-1.484-0.431
		c-3.58-0.739-6.31-2.625-8.523-4.884c-2.459-2.509-4.519-5.556-5.843-9.434C2.063,39.606,1,35.683,0.463,30.935
		c-0.121-1.067-0.338-2.214-0.384-3.448c-0.091-2.427-0.12-4.935,0-7.47c0.057-1.201,0.069-2.468,0.432-3.352
		c0.429-1.048,1.507-1.796,2.394-2.586c0.341-0.303,0.624-0.768,0.958-0.67c0.379,0.11,0.378,1.603,0.431,2.203
		c0.309,3.494,0.547,6.582,1.389,9.625c0.462,1.67,1.025,3.2,1.629,4.693c0.188,0.468,0.329,1.029,0.813,1.245
		c0.346-0.069,0.465-0.365,0.67-0.575c-0.131-2.093-0.33-4.248-0.431-6.417c-0.101-2.165,0.147-4.392,0.431-6.417
		c0.571-4.082,1.325-8.01,2.49-11.349c0.558-0.478,1.225-0.923,1.916-1.293c0.672-0.36,1.399-0.803,2.202-0.862
		c0.248,0.831-0.028,1.727-0.096,2.634c-0.337,4.537-0.788,9.573-0.239,14.366c0.101,0.888,0.264,1.81,0.335,2.682
		c0.071,0.859-0.124,1.845,0.527,2.442c1.366-0.012,0.948-1.895,1.053-3.064c0.329-3.677,1.144-7.02,2.012-10.295
		c0.581-2.194,1.256-4.043,2.107-6.082c0.356-0.854,0.817-1.879,1.293-2.825c0.411-0.816,0.913-2.029,1.484-2.586
		c0.857-0.835,2.87-1.234,4.166-1.484C28.232,0.013,28.578-0.078,28.763,0.145z M27.853,43.768c0.915-0.729,1.606-1.874,1.867-3.112
		c0.532-2.529-0.811-4.461-2.441-5.603c-3.562-1.755-7.378,0.34-7.949,3.783c-0.103,0.626-0.198,1.518,0.287,2.107
		c0.374-0.316,0.37-0.826,0.623-1.245c0.949-1.58,3.529-2.278,5.268-1.149c0.744,0.653,1.463,1.509,1.58,2.777
		c0.146,1.58-0.67,2.276-1.054,3.256C26.734,44.52,27.373,44.151,27.853,43.768z"/>
</g>
<g id="Layer_1">
</g>
</svg>
