<?xml version="1.0" encoding="iso-8859-1"?>
<!-- Generator: Adobe Illustrator 19.2.0, SVG Export Plug-In . SVG Version: 6.00 Build 0)  -->
<svg version="1.1" xmlns="http://www.w3.org/2000/svg" xmlns:xlink="http://www.w3.org/1999/xlink" x="0px" y="0px"
	 viewBox="0 0 78.797 61.061" style="enable-background:new 0 0 78.797 61.061;" xml:space="preserve">
<g id="central_x5F_national_x5F_bank">
	<path style="fill-rule:evenodd;clip-rule:evenodd;" d="M78.797,52.346c-0.66,0.919-1.551,1.644-2.4,2.307
		c-4.313,3.36-9.97,5.864-17.182,6.354c-2.812,0.191-5.747-0.143-8.378-0.8c-4.82-1.204-9.156-3.17-12.662-6.12
		c-1.574-1.324-3.384-3.074-4.613-4.801c-1.328-1.867-2.667-3.748-3.577-5.789c-1.973-4.423-3.274-9.751-2.777-15.722
		c0.686-8.236,4.435-14.649,8.991-19.205c1.547-1.547,3.391-2.762,5.319-4.048c5.097-3.398,13.408-5.625,21.559-3.954
		c5.938,1.218,10.349,3.712,14.357,6.967c0.363,0.295,0.927,0.655,0.941,0.988c0.022,0.528-1.458,1.741-1.789,2.071
		c-1.73,1.731-3.062,3.063-4.801,4.801c-0.298,0.297-0.682,0.84-1.036,0.847c-0.44,0.009-1.031-0.707-1.364-0.988
		c-1.305-1.102-2.74-1.918-4.331-2.636c-2.065-0.931-4.828-1.547-7.72-1.6c-1.787-0.033-3.777,0.351-5.272,0.8
		c-4.611,1.385-8.097,3.999-10.544,7.578c-1.638,2.396-2.825,5.267-3.295,8.802c-0.488,3.675,0.234,7.428,1.506,10.262
		c1.2,2.674,3.082,5.078,5.272,6.825c2.304,1.838,4.752,3.292,7.908,4.143c3.368,0.907,7.607,0.709,10.543-0.33
		c1.442-0.511,2.968-1.027,4.237-1.788c0.514-0.31,1.182-0.773,1.788-1.224c0.329-0.245,1.175-1.297,1.694-1.318
		c0.591-0.024,1.671,1.435,2.024,1.788c1.334,1.334,2.523,2.523,3.812,3.813C77.622,50.984,78.429,51.467,78.797,52.346z"/>
	<path style="fill-rule:evenodd;clip-rule:evenodd;" d="M21.182,0.991c0.032,0.629-0.507,1.039-0.848,1.459
		c-1.024,1.267-1.962,2.749-2.871,4.189c-3.603,5.714-6.166,12.796-6.684,21.606c-0.363,6.183,0.726,11.691,2.259,16.428
		c1.53,4.723,3.991,8.785,6.402,12.427c0.293,0.539,0.761,0.902,1.036,1.459c0.312,0.458,0.981,0.805,0.988,1.412
		c-4.001,0.188-8.535,0.095-12.615,0.047c-0.981-0.613-1.367-1.83-1.977-2.824c-1.795-2.925-3.098-6.49-4.284-10.073
		C1.009,42.347,0,36.789,0,30.599c0-9.448,2.057-16.971,5.084-23.63c0.699-1.539,1.463-3.276,2.447-4.754
		c0.318-0.477,0.73-1.201,1.036-1.318c0.696-0.267,2.66-0.047,3.53-0.047c2.92,0,5.039-0.117,7.814,0
		C20.338,0.868,20.826,0.729,21.182,0.991z"/>
	<path style="fill-rule:evenodd;clip-rule:evenodd;" d="M43.682,0.991c-0.512,0.643-1.388,0.676-2.024,1.036
		c-7.101,4.011-12.568,9.531-15.534,17.84c-0.516,1.444-0.998,3.101-1.271,4.801c-0.282,1.758-0.565,3.626-0.565,5.507
		c0,7.832,2.44,13.768,5.743,18.546c1.682,2.433,3.562,4.545,5.743,6.402c1.642,1.398,3.384,2.716,5.413,3.719
		c0.629,0.311,1.405,0.525,1.883,1.129c-2.887,0.266-5.971,0.114-8.944,0.142c-3.009,0.027-6.05-0.096-8.99-0.047
		c-3.636-3.372-6.416-8.071-8.473-13.18c-1.035-2.57-1.907-5.294-2.495-8.332c-0.592-3.06-0.753-6.432-0.706-9.932
		c0.039-2.858,0.627-5.792,1.224-8.379c0.59-2.556,1.434-4.93,2.448-7.107c1.017-2.186,1.975-4.383,3.295-6.308
		c0.643-0.938,1.319-1.874,2.024-2.777c0.686-0.878,1.403-1.857,2.165-2.589c0.28-0.269,0.642-0.558,0.989-0.612
		c1.333-0.209,3.133,0,4.565,0c3.82,0,7.545,0,11.392,0C42.262,0.85,43.015,0.741,43.682,0.991z"/>
	<path style="fill-rule:evenodd;clip-rule:evenodd;" d="M67.077,19.161c2.399,2.113,3.898,4.788,4.66,8.332
		c0.839,3.907-0.129,7.883-1.836,10.497c-1.685,2.58-3.861,4.787-6.92,6.072c-3.114,1.308-7.632,1.262-10.826-0.047
		c-2.957-1.212-5.277-3.408-7.107-5.884c-1.879-2.541-2.756-6.307-2.26-10.45c0.217-1.807,0.875-3.477,1.601-4.896
		c0.712-1.391,1.698-2.587,2.824-3.671c2.168-2.088,5.129-3.816,9.085-4.048c2.473-0.145,4.577,0.427,6.307,1.13
		C64.356,16.906,65.857,17.965,67.077,19.161z"/>
</g>
<g id="Layer_1">
</g>
</svg>
