<?xml version="1.0" encoding="iso-8859-1"?>
<!-- Generator: Adobe Illustrator 21.0.2, SVG Export Plug-In . SVG Version: 6.00 Build 0)  -->
<svg version="1.1" xmlns="http://www.w3.org/2000/svg" xmlns:xlink="http://www.w3.org/1999/xlink" x="0px" y="0px"
	 viewBox="0 0 18.948 15.188" style="enable-background:new 0 0 18.948 15.188;" xml:space="preserve">
<g id="Centralny_x5F_Zarzad_x5F_Spotdzielczosci_x5F_Pracy">
	<path d="M3.941,1.47C4.803,0.989,5.651,0.483,6.512,0c1.806,1.047,3.621,2.079,5.432,3.119c0.356,0.21,0.724,0.399,1.067,0.63
		c-0.021,2.547,0,5.095-0.01,7.642c-0.579,0.33-1.151,0.673-1.722,1.015c-0.428-0.265-0.871-0.507-1.296-0.778
		c0.565-0.322,1.138-0.631,1.703-0.954c-0.002-2.049-0.002-4.098,0-6.147c-0.714-0.42-1.45-0.805-2.155-1.24
		C8.73,3.75,7.922,4.198,7.122,4.661C7.118,6.68,7.12,8.699,7.121,10.718c0.807,0.462,1.633,0.891,2.436,1.358
		c0.773,0.428,1.55,0.851,2.317,1.29c0.165,0.078,0.317,0.195,0.489,0.254c0.766-0.428,1.524-0.87,2.295-1.289
		c0.799-0.453,1.596-0.909,2.4-1.352c0.171-0.105,0.356-0.185,0.519-0.302c-0.001-2.005,0-4.01-0.001-6.014
		c-1.716-1.014-3.438-2.018-5.156-3.031c-0.314,0.185-0.635,0.358-0.945,0.548c-0.455-0.28-0.928-0.529-1.383-0.808
		c0.635-0.328,1.238-0.719,1.867-1.06c0.177-0.104,0.356-0.204,0.533-0.308c2.153,1.262,4.3,2.535,6.452,3.798
		c0.005,2.43,0,4.86,0.003,7.29c0,0.1,0,0.201-0.008,0.301c-0.698,0.377-1.369,0.803-2.066,1.182
		c-1.505,0.876-3.019,1.737-4.524,2.613c-0.556-0.332-1.125-0.645-1.682-0.975c-0.421-0.237-0.833-0.492-1.261-0.716
		c-0.975,0.551-1.932,1.132-2.903,1.691c-2.125-1.26-4.269-2.486-6.394-3.747c-0.042-0.032-0.12-0.056-0.107-0.123
		C0,8.793,0.002,6.268,0,3.743C1.302,2.967,2.631,2.235,3.941,1.47z M6.494,1.566C4.775,2.558,3.052,3.543,1.329,4.527
		C1.34,4.949,1.333,5.372,1.335,5.795c-0.004,1.627,0.008,3.253-0.006,4.879c0.861,0.494,1.729,0.976,2.583,1.481
		c0.817,0.463,1.636,0.923,2.443,1.404c0.541-0.297,1.069-0.615,1.611-0.909c-0.743-0.403-1.463-0.848-2.201-1.26
		C5.756,8.888,5.773,6.385,5.757,3.882c0.796-0.461,1.584-0.938,2.395-1.374C7.608,2.195,7.067,1.876,6.521,1.566L6.494,1.566z"/>
</g>
<g id="Layer_1">
</g>
</svg>
