<?xml version="1.0" encoding="iso-8859-1"?>
<!-- Generator: Adobe Illustrator 19.2.0, SVG Export Plug-In . SVG Version: 6.00 Build 0)  -->
<svg version="1.1" xmlns="http://www.w3.org/2000/svg" xmlns:xlink="http://www.w3.org/1999/xlink" x="0px" y="0px"
	 viewBox="0 0 75.115 75.189" style="enable-background:new 0 0 75.115 75.189;" xml:space="preserve">
<g id="Centre_x5F_de_x5F_Cration_x5F_Industrielle_x5F_69">
	<path style="fill-rule:evenodd;clip-rule:evenodd;" d="M40.71,0.072c1.84-0.068,5.222-0.221,6.835,0.336
		c1.057,0.363,1.872,1.164,2.103,2.293c0.304,1.486,0.096,3.287,0.096,4.924c0,3.172,0.114,6.82,0.048,9.894
		c-0.034,1.57,0.146,3.344-0.144,4.781c-0.234,1.16-0.837,1.844-1.721,2.342c-0.988,0.555-2.094,0.559-3.441,0.572
		c-2.48,0.025-5.573-0.142-7.839,0.049c-4.565,0.385-7.98,2.875-9.847,6.262c-1.514,2.748-1.999,6.537-0.86,9.846
		c0.957,2.781,2.997,5.125,5.497,6.598c1.704,1.002,3.647,1.734,6.31,1.721c2.749-0.016,4.638-0.812,6.262-1.816
		c3.33-2.062,5.494-5.289,5.832-10.324c0.159-2.371-0.03-5.018,0-7.84c0.026-2.547,0.981-4.289,3.489-4.59
		c2.359-0.281,5.343-0.047,7.982-0.047c2.403,0,5.095-0.047,7.839-0.049c1.238,0,2.762-0.072,3.728,0.287
		c1.055,0.395,1.906,1.318,2.104,2.629c0.204,1.354,0.096,2.969,0.096,4.59c0,3.035-0.001,6.334,0,9.561
		c0,1.689,0.108,3.32-0.048,4.779c-0.227,2.119-1.688,3.086-4.016,3.154c-3.887,0.115-8.723-0.406-11.95,0.479
		c-1.61,0.439-3.017,1.227-4.158,2.104c-2.419,1.857-4.112,4.184-4.685,7.838c-0.278,1.775-0.238,3.928-0.287,5.975
		c-0.049,2.059,0.399,5.051-0.383,6.644c-0.55,1.121-1.649,1.844-3.25,2.008c-1.57,0.162-3.301,0.139-5.067,0.049
		c-3.484-0.178-6.794-0.252-9.703-0.766c-5.82-1.027-10.689-3.287-14.914-6.023c-4.043-2.617-7.792-6.348-10.468-10.467
		c-1.687-2.598-3.29-5.5-4.35-8.748c-0.213-0.654-0.278-1.371-0.478-2.104c-0.364-1.334-0.754-2.824-0.956-4.254
		c-0.945-6.672,0.023-13.271,1.864-18.307c1.844-5.045,4.804-9.354,8.125-12.811C13.815,8.043,18,5.251,22.833,3.179
		c2.477-1.062,5.122-1.902,8.03-2.438C33.853,0.191,37.211,0.203,40.71,0.072z"/>
</g>
<g id="Layer_1">
</g>
</svg>
