<?xml version="1.0" encoding="iso-8859-1"?>
<!-- Generator: Adobe Illustrator 19.2.0, SVG Export Plug-In . SVG Version: 6.00 Build 0)  -->
<svg version="1.1" xmlns="http://www.w3.org/2000/svg" xmlns:xlink="http://www.w3.org/1999/xlink" x="0px" y="0px"
	 viewBox="0 0 70.598 71.004" style="enable-background:new 0 0 70.598 71.004;" xml:space="preserve">
<g id="Ceramica_x5F_Zanon">
	<path style="fill-rule:evenodd;clip-rule:evenodd;" d="M46.329,34.858c3.13-2.678,6.091-5.523,9.218-8.204
		c1.039-0.975,1.932-1.675,2.896-2.558c1.896-1.736,3.79-3.49,4.44-6.467c0.326-1.497,0.127-3.162-0.435-4.585
		c-1.011-2.56-2.982-4.452-5.888-5.019c-1.503-0.293-3.307-0.241-5.212-0.241c-5.404,0-10.681-0.097-16.022-0.097
		c-8.747,0-17.765-0.144-26.687-0.145C6.797,7.542,4.986,7.63,3.475,7.302C1.791,6.936-0.157,5.308,0.29,3.103
		c0.278-1.372,1.273-2.377,2.558-2.799c1.221-0.4,2.77-0.29,4.344-0.29c8.426,0.002,16.553-0.001,25.046,0
		c6.68,0.002,13.695,0.147,20.028,0.146c3.661-0.001,6.93-0.038,10.038,0.048c4.746,0.132,7.676,2.788,8.059,7.384
		c0.129,1.543,0,3.231,0.049,4.971c0.095,3.387-0.001,6.715,0,10.183c0,3.325,0.048,6.678,0.048,10.038c0,3.35-0.137,6.757,0,10.183
		c0.127,3.18,0.428,7.214-0.627,9.459c-1.059,2.251-3.022,3.962-5.984,4.295c-3.209,0.361-6.814,0.145-10.135,0.146
		c-6.707,0-13.437-0.001-20.365,0c-1.662,0-2.964-0.348-3.909-1.255c-0.896-0.862-1.517-2.189-0.965-3.765
		c0.672-1.92,2.656-3.306,4.102-4.633C37.23,42.939,41.671,39.118,46.329,34.858z"/>
	<path style="fill-rule:evenodd;clip-rule:evenodd;" d="M16.216,43.641c-1.038,0.983-1.936,1.808-2.895,2.654
		c-2.686,2.371-6.703,5.15-5.453,10.811c0.647,2.934,2.677,4.951,5.212,5.888c1.397,0.517,3.185,0.435,5.115,0.435
		c5.539,0,10.837,0.089,16.408-0.146c1.804-0.076,3.694-0.058,5.55,0c5.346,0.168,11.034,0.048,16.215,0.049
		c1.754,0,3.576-0.021,5.454,0c1.767,0.018,3.568-0.219,5.212,0.048c1.837,0.298,3.612,1.97,3.185,4.344
		c-0.207,1.152-0.997,1.94-1.882,2.509c-0.989,0.636-2.211,0.676-3.716,0.676c-6.014,0-11.405,0.097-17.277,0.097
		c-2.912,0-5.813-0.145-8.59-0.145c-8.578,0-17.099,0.048-25.674,0.048c-2.862,0-6.172,0.218-8.156-0.579
		c-1.958-0.786-3.492-2.457-4.198-4.584c-0.734-2.21-0.408-5.299-0.531-8.012c-0.125-2.766,0.048-5.701,0.048-8.59
		C0.242,40.354,0,31.99,0,23.566c0-2.953,0.328-5.256,1.834-6.901c1.39-1.518,3.381-2.74,6.274-2.654
		c2.98,0.088,6.073,0.081,9.169,0.048c5.924-0.063,12.173,0.159,18.193-0.048c3.303-0.114,5.722,0.391,6.612,2.654
		c0.76,1.932-0.42,3.683-1.496,4.729c-3.485,3.389-7.075,6.343-10.425,9.556c-2.302,2.207-4.693,4.24-6.997,6.321
		C20.849,39.364,18.693,41.574,16.216,43.641z"/>
</g>
<g id="Layer_1">
</g>
</svg>
