<?xml version="1.0" encoding="iso-8859-1"?>
<!-- Generator: Adobe Illustrator 19.2.0, SVG Export Plug-In . SVG Version: 6.00 Build 0)  -->
<svg version="1.1" xmlns="http://www.w3.org/2000/svg" xmlns:xlink="http://www.w3.org/1999/xlink" x="0px" y="0px"
	 viewBox="0 0 89.933 37.665" style="enable-background:new 0 0 89.933 37.665;" xml:space="preserve">
<g id="Cercle_x5F_du_x5F_Livre_x5F_Economique">
	<path style="fill-rule:evenodd;clip-rule:evenodd;" d="M22.342,0.655c0.171,2.377,0.171,5.462,0,7.838
		c-0.735-0.027-1.361-0.434-2.114-0.619c-3.754-0.92-7.57,0.87-9.54,2.63c-2.372,2.12-3.876,6.09-3.3,9.849
		c0.685,4.464,3.369,7.82,7.374,9.179c1.163,0.395,2.589,0.562,3.919,0.516c1.302-0.045,2.49-0.453,3.661-0.722
		c0.267,1.082,0.154,2.373,0.154,3.764c0,1.045,0.286,3.106-0.154,3.764c-0.366,0.546-2.251,0.711-3.249,0.773
		c-6.124,0.381-10.428-2.189-13.459-5.156c-2.939-2.878-5.411-7.397-5.62-12.995c-0.22-5.887,2.175-10.678,5.002-13.613
		c2.665-2.767,5.906-5.037,10.571-5.672C17.741-0.103,20.511-0.134,22.342,0.655z"/>
	<path style="fill-rule:evenodd;clip-rule:evenodd;" d="M24.043,1.325c3.244,0.708,5.692,3.034,7.529,5.105
		c1,1.128,1.847,2.39,2.526,3.765c0.706,1.428,1.062,3.018,1.753,4.538c3.044,0.12,6.58,0.191,9.85,0.103
		c1.037-0.028,2.083-0.119,2.99,0.104c0.156,2.497,0.247,5.306,0.052,7.838c-4.029,0.302-8.758-0.095-12.788,0.206
		c-0.589,0.969-0.785,2.137-1.237,3.249c-1.029,2.53-2.664,4.786-4.59,6.549c-1.058,0.969-2.125,1.842-3.506,2.579
		c-0.827,0.44-1.677,0.969-2.63,1.185c-0.268-0.403-0.155-0.968-0.155-1.495c0-1.551,0.018-3.357,0-4.847
		c-0.007-0.56-0.143-1.167,0-1.65c0.109-0.368,0.77-0.869,1.135-1.186c1.223-1.062,2.307-2.338,2.991-3.919
		c1.602-3.705,0.809-8.413-1.186-11.19c-0.821-1.143-1.868-1.811-2.94-2.888c-0.064-2.501-0.135-5.688,0.052-7.941
		C23.926,1.38,23.983,1.35,24.043,1.325z"/>
	<path style="fill-rule:evenodd;clip-rule:evenodd;" d="M75.403,14.99c0.271,0.793,0.155,1.727,0.155,2.63
		c0,2.653,0.042,5.595-0.052,8.199c-1.189,0.512-2.563,0.84-3.403,1.702c-0.822,1.118-1.529,2.364-1.65,4.229
		c-0.114,1.761,0.085,3.745-0.154,5.517c-1.192,0.115-2.534,0.051-3.867,0.051c-1.322,0-2.732,0.122-3.868-0.154
		c-0.25-4.251,0.018-9.463-0.154-14.078c-0.509-0.332-1.229-0.169-1.856-0.155c-3.186,0.077-6.979-0.06-10.21-0.154
		c-0.184-1.611-0.103-3.907-0.104-5.93c0-0.598-0.101-1.701,0.155-1.908c0.038-0.048,0.094-0.078,0.154-0.104
		C58.965,14.872,67.254,14.743,75.403,14.99z"/>
	<path style="fill-rule:evenodd;clip-rule:evenodd;" d="M89.79,15.042c0.235,7.345,0.125,15.087,0.051,22.225
		c-2.395,0.173-5.493,0.169-7.89,0c-0.523-2.275,0.085-4.964-0.412-6.91c-0.438-1.711-1.589-3.157-3.042-3.816
		c-0.485-0.22-1.076-0.199-1.547-0.516c-0.113-2.718-0.052-5.656-0.052-8.457c0-0.899-0.138-1.81,0.154-2.579
		C81.033,14.798,85.829,14.909,89.79,15.042z"/>
</g>
<g id="Layer_1">
</g>
</svg>
