<?xml version="1.0" encoding="iso-8859-1"?>
<!-- Generator: Adobe Illustrator 19.2.0, SVG Export Plug-In . SVG Version: 6.00 Build 0)  -->
<svg version="1.1" xmlns="http://www.w3.org/2000/svg" xmlns:xlink="http://www.w3.org/1999/xlink" x="0px" y="0px"
	 viewBox="0 0 77.922 79.321" style="enable-background:new 0 0 77.922 79.321;" xml:space="preserve">
<g id="Ceskoslovenske_x5F_Statni_x5F_Aerolinie">
	<path style="fill-rule:evenodd;clip-rule:evenodd;" d="M77.734,0.193c0.248,1.556,0.133,3.158,0.15,4.77
		c0.084,7.975,0.001,16.437,0,24.649c-0.001,3.326,0.112,6.659-0.15,9.89c-3.655,0.105-7.46,0.211-11.095,0.051
		c-3.706-0.163-7.612,0.349-11.245-0.101c-0.381-0.457-0.441-1.104-0.603-1.657c-0.487-1.669-0.864-3.447-1.405-5.221
		c-0.696-2.278-1.263-4.615-1.958-6.877c-0.7-2.279-1.464-4.541-2.059-6.827c-0.594-2.288-1.28-4.551-2.108-6.728
		c-3.92-0.095-7.822-0.049-11.747-0.051c-11.915-0.003-23.475,0.05-35.342-0.15c-0.227-2.221-0.05-6.103-0.05-9.036
		c0-0.671-0.204-2.634,0.301-2.761c1.152-0.291,3.654-0.05,5.07-0.05C29.169,0.092,54.431,0.161,77.734,0.193z"/>
	<path style="fill-rule:evenodd;clip-rule:evenodd;" d="M28.335,39.451c-9.269,0.193-19.07,0.137-28.213-0.051
		c-0.149-7.218,0-15.675,0-23.092c0-0.941-0.107-2.799,0.15-3.264c0.78-0.153,1.937,0.319,2.912,0.602
		c6.123,1.777,11.212,4.767,15.512,8.384c1.263,1.062,2.526,2.033,3.615,3.213c2.146,2.326,3.812,5.29,5.02,8.635
		C27.938,35.559,28.467,37.453,28.335,39.451z"/>
	<path style="fill-rule:evenodd;clip-rule:evenodd;" d="M77.734,41.86c0.171,9.151,0.05,18.071,0.05,27.359
		c0,3.034,0.097,6.074-0.101,9.087c-1.213,0.271-2.629,0.15-4.066,0.15c-8.983-0.001-18.059,0.001-27.209,0
		c-0.635,0-1.312,0.112-1.908-0.15c0.076-0.993,0.584-1.9,0.954-2.812c1.079-2.662,2.338-5.316,3.564-7.932
		c1.412-3.013,3.03-5.879,4.719-8.685c0.25-0.416,0.366-0.896,0.602-1.306c0.561-0.972,1.272-1.907,1.908-2.861
		c1.877-2.814,4.158-5.348,6.726-7.479c3.531-2.931,8.024-4.755,13.555-5.422C76.773,41.781,77.38,41.658,77.734,41.86z"/>
	<path style="fill-rule:evenodd;clip-rule:evenodd;" d="M27.934,53.457c-0.058,4.104-1.305,7.596-2.811,10.593
		c-1.5,2.983-3.573,5.544-5.823,7.681c-2.257,2.143-5.092,3.883-8.233,5.271c-3.138,1.388-6.833,2.437-10.944,2.31
		c-0.132-2.067-0.141-4.185-0.05-6.325c0.091-2.146-0.142-4.343-0.05-6.526c0.182-4.304-0.115-8.739,0.151-13.052
		C9.255,53.236,18.962,53.225,27.934,53.457z"/>
</g>
<g id="Layer_1">
</g>
</svg>
