<?xml version="1.0" encoding="iso-8859-1"?>
<!-- Generator: Adobe Illustrator 19.2.0, SVG Export Plug-In . SVG Version: 6.00 Build 0)  -->
<svg version="1.1" xmlns="http://www.w3.org/2000/svg" xmlns:xlink="http://www.w3.org/1999/xlink" x="0px" y="0px"
	 viewBox="0 0 102.104 100.187" style="enable-background:new 0 0 102.104 100.187;" xml:space="preserve">
<g id="CEZA">
	<path style="fill-rule:evenodd;clip-rule:evenodd;" d="M100.816,38.449c-12.062-4.297-48.58-19.493-49.404-19.546
		C50.568,18.849,2.345,38.801,1.408,38.569c1.225-5.767,3.58-11.047,6.476-15.469c4.191-6.4,9.623-11.577,16.068-15.588
		c6.771-3.035,14.722-6.818,24.103-7.435c1.738-0.114,3.745-0.149,5.156,0.24c4.613-0.117,9.732,0.98,14.149,2.398
		c3.873,1.243,7.28,3.1,10.553,5.037c1.645,0.973,3.302,1.925,4.916,3.118c1.015,0.749,1.795,1.693,2.758,2.518
		c2.412,2.065,4.907,4.243,6.595,6.715c1.352,1.981,2.474,4.389,4.077,6.235C97.941,30.132,100.081,34.107,100.816,38.449z
		 M93.381,27.657c0.08,0,0.16,0,0.24,0c0.186-0.295-0.407-0.352-0.36-0.12C93.334,27.544,93.403,27.554,93.381,27.657z"/>
	<path style="fill-rule:evenodd;clip-rule:evenodd;" d="M101.535,41.207c-0.081,0.902,0.6,1.694,0.12,2.278
		c-7.808-1.464-38.031-8.365-40.891-8.993c-3.88-0.853-7.655-2.16-11.271-1.559c-4.277,0.71-42.004,9.641-49.165,10.552
		c0.083-0.877,0.307-1.611,0.6-2.278c3.884-1.272,46.98-14.812,47.965-15.109c1.353-0.408,2.414-0.54,4.197,0
		C57.18,27.335,101.215,41.047,101.535,41.207z"/>
	<path style="fill-rule:evenodd;clip-rule:evenodd;" d="M102.015,45.884c-0.111,0.983,0.227,1.984-0.12,2.518
		c-15.626-0.475-33.235-1.426-49.404-1.918c-0.346-0.011-0.734-0.214-1.079-0.24c-3.146-0.233-6.581,0.478-9.953,0.72
		c-8.332,0.597-36.102,1.536-41.25,1.559c-0.425-0.814-0.101-1.675,0.12-2.518c12.693-1.68,46.81-6.783,50.963-6.955
		C52.746,38.988,87.055,44.414,102.015,45.884z"/>
	<path style="fill-rule:evenodd;clip-rule:evenodd;" d="M102.015,50.68c0.162,0.869,0.068,1.749,0,2.518
		c-11.125,2.176-47.864,7.533-52.881,6.955c-13.105-1.51-46.381-6.083-48.924-6.835c-0.193-0.815-0.444-1.966,0.24-2.398
		c3.597,0.206,42.119,2.194,50.603,2.278C54.343,53.231,93.884,51.458,102.015,50.68z"/>
	<path style="fill-rule:evenodd;clip-rule:evenodd;" d="M101.655,55.596c0.009,0.86,0.174,2.139-0.36,2.518
		c-1.984,1.408-29.144,9.158-30.578,9.593c-2.902,0.881-10.156,3.376-11.272,3.598c-3.327,0.659-6.498,3.412-9.473,2.638
		C47.598,73.325,7.138,60.59,2.248,58.714c-0.39-0.069-0.558,0.082-0.84,0.12c-0.163-0.277-0.21-0.669-0.719-0.6
		c0.366-1.075-0.677-1.512,0-2.519c6.078,1.238,49.982,11.407,50.843,11.392C52.276,67.096,86.099,59.676,101.655,55.596z"/>
	<path style="fill-rule:evenodd;clip-rule:evenodd;" d="M100.696,60.993C97.305,74.804,89.544,85.244,78.752,92.05
		c-9.351,4.638-17.867,9.208-32.376,7.915c-23.552-2.1-38.879-18.268-44.848-38.853c0.194,0.034,0.207-0.113,0.36-0.119
		c12.412,4.99,44.588,17.806,46.766,18.706c1.099,0.454,1.913,1.148,2.878,1.079c1.471-0.105,2.993-1.455,4.197-1.919
		C60.232,77.125,98.218,61.116,100.696,60.993z"/>
</g>
<g id="Layer_1">
</g>
</svg>
