<?xml version="1.0" encoding="iso-8859-1"?>
<!-- Generator: Adobe Illustrator 19.2.0, SVG Export Plug-In . SVG Version: 6.00 Build 0)  -->
<svg version="1.1" xmlns="http://www.w3.org/2000/svg" xmlns:xlink="http://www.w3.org/1999/xlink" x="0px" y="0px"
	 viewBox="0 0 84.066 74.554" style="enable-background:new 0 0 84.066 74.554;" xml:space="preserve">
<g id="Champlain_x5F_Container_x5F_Corporation">
	<path style="fill-rule:evenodd;clip-rule:evenodd;" d="M83.946,0.471c0.271,9.791,0,19.645,0,29.639
		c-0.001,9.94,0.101,20.049-0.157,29.795c-3.183,0.204-6.727,0.053-10.245,0.053c-1.14,0-2.308,0.116-3.346-0.157
		c-0.228-15.238,0.156-30.961-0.052-45.843c-0.773-0.305-1.636-0.209-2.457-0.209c-13.018,0.002-25.973-0.292-38.891-0.053
		c-0.228,14.398-0.211,28.519-0.209,43.177c0,0.907,0.121,1.878-0.157,2.771c-4.289,0.096-9.054,0.09-13.382-0.105
		c-0.249-18.43,0.053-37.023,0.053-55.826c0-0.56,0.021-1.141,0.052-1.83c0.032-0.674-0.121-1.603,0.157-1.777
		C15.35,0.056,15.407,0.025,15.469,0C32.473,0.005,49.716,0.262,66.8,0.262C72.535,0.262,78.269,0.206,83.946,0.471z"/>
	<path style="fill-rule:evenodd;clip-rule:evenodd;" d="M13.796,14.846c0.276,15.252-0.204,30.494,0.105,45.896
		c13.402,0.312,27.115,0.307,41.19,0.261c0.023-0.046,0.046-0.094,0.104-0.104c0.213-7.619,0.156-15.395,0.156-23.104
		c0.001-6.733,0.053-13.192,0.053-20.072c0-0.894-0.042-1.845,0.209-2.718c2.156-0.148,4.457-0.001,6.743,0
		c2.245,0,4.599-0.093,6.586,0.104c0.289,1.131,0.086,2.321,0.105,3.502c0.133,8.408-0.052,17.445-0.053,26.189
		c-0.001,10.068,0.01,20.173-0.209,29.69c-19.928,0.228-40.11-0.206-60.375-0.209c-2.125,0-4.229-0.052-6.377-0.053
		c-0.649,0-1.361,0.118-1.986-0.156C0.01,55.055-0.077,35.446,0.153,16.414c0.007-0.557-0.14-1.197,0.209-1.673
		C4.937,14.711,9.412,14.552,13.796,14.846z"/>
</g>
<g id="Layer_1">
</g>
</svg>
