<?xml version="1.0" encoding="iso-8859-1"?>
<!-- Generator: Adobe Illustrator 19.2.0, SVG Export Plug-In . SVG Version: 6.00 Build 0)  -->
<svg version="1.1" xmlns="http://www.w3.org/2000/svg" xmlns:xlink="http://www.w3.org/1999/xlink" x="0px" y="0px"
	 viewBox="0 0 109.748 108.361" style="enable-background:new 0 0 109.748 108.361;" xml:space="preserve">
<g id="Charter_x5F_Club_x5F_Macys">
	<path style="fill-rule:evenodd;clip-rule:evenodd;" d="M77.504,28.847c-0.999,0.252-1.979,1.124-2.998,0.959
		C74.276,18.312,65.967,8.315,53.758,8.459c-3.21,0.038-6.142,1.14-8.396,2.398c-6.452,3.602-10.774,11.237-9.834,20.748
		c0.342,3.458,1.356,7.735,3.238,10.314c1.114,1.528,4.364,4.827,6.476,4.197c1.097-0.326,1.321-2.042,0.72-3.238
		c-1.391-2.766-5.015-4.966-7.436-6.596c-0.11-0.689-0.269-1.33-0.359-2.039c3.129,2.039,7.674,4.609,9.354,8.155
		c1.697,3.583-0.629,6.564-5.037,5.277c-5.354-1.562-9.186-9.561-10.194-15.351c-0.688-3.951-1.261-8.018-0.359-12.353
		c1.559-7.499,6.565-14.597,12.712-17.51c3.556-1.685,8.31-2.95,13.192-2.279c10.618,1.459,18.486,11.035,19.789,21.947
		C77.881,24.288,77.787,26.481,77.504,28.847z"/>
	<path style="fill-rule:evenodd;clip-rule:evenodd;" d="M29.292,31.245c0.26,1.06,0.881,1.757,1.079,2.878
		c-12.028,0.142-21.78,8.367-21.827,20.148c-0.023,5.867,2.708,9.896,5.996,13.672c5.153,5.09,17.097,7.03,25.426,2.998
		c1.643-0.795,7.678-4.878,5.996-7.675c-0.982-1.636-3.704,0.085-4.917,1.079c-1.981,1.625-3.49,3.761-4.917,5.877
		c-0.788-0.068-1.161,0.279-1.919,0.24c1.325-2.556,3.208-4.686,5.276-6.836c1.26-1.309,4.75-4.413,7.437-2.278
		c0.996,0.792,1.247,3.24,0.839,4.917c-0.669,2.747-3.508,5.095-5.396,6.236c-3.574,2.16-8.332,3.709-13.192,4.317
		c-7.94,0.993-14.684-1.417-20.028-5.397C3.69,67.362-1.215,59.77,0.268,50.554c1.22-7.573,6.649-14.054,12.713-17.03
		c3.661-1.797,6.791-2.052,11.993-2.519C26.237,30.892,27.582,30.911,29.292,31.245z"/>
	<path style="fill-rule:evenodd;clip-rule:evenodd;" d="M79.062,74.66c12.448,0.166,22.514-9.286,22.067-20.988
		c-0.307-8.049-6.057-14.509-12.593-16.79c-5.827-2.034-14.135-1.507-19.309,0.959c-2.232,1.064-5.169,3.607-5.757,5.876
		c-0.889,3.435,2.524,2.538,4.078,1.439c0.938-0.664,2.249-1.858,3.238-2.999c1.327-1.532,1.844-4.122,4.437-3.838
		c-2.298,3.381-4.573,7.731-8.395,9.354c-3.325,1.413-5.923-0.59-5.277-4.317c0.34-1.961,1.851-4.103,2.998-5.157
		c2.688-2.466,8.035-4.862,12.354-5.517c4.714-0.715,9.514-0.998,14.512,0c1.867,0.373,4.159,1.463,5.996,2.519
		c7.769,4.466,14.586,13.775,11.633,25.305c-2.162,8.447-10.659,15.521-18.948,17.03c-1.85,0.337-4.455,0.595-6.717,0.6
		c-0.683,0.002-2.263,0.036-2.998-0.479C79.542,77.07,79.53,75.833,79.062,74.66z M99.331,37.961
		C99.829,38.076,99.355,37.602,99.331,37.961L99.331,37.961z M100.41,44.557C100.489,44.636,100.36,44.507,100.41,44.557
		L100.41,44.557z"/>
	<path style="fill-rule:evenodd;clip-rule:evenodd;" d="M31.69,80.057c0.897-0.622,1.999-1.039,3.238-1.319
		c0.22,4.231,1.069,7.698,2.519,10.554c3.938,7.763,15.045,13.815,25.186,9.235c6.544-2.956,11.804-10.423,11.513-18.949
		c-0.218-6.386-1.876-12.48-5.996-15.711c-1.521-1.192-6.33-2.821-4.558,1.439c0.959,2.305,3.237,4.145,5.277,5.637
		c1.116,0.817,2.752,1.106,2.398,3.238c-3.134-2.04-7.036-4.203-8.875-7.316c-1.543-2.612-1.517-6.62,2.998-6.356
		c1.855,0.108,3.735,1.16,4.797,2.039c7.103,5.879,10.04,22.606,5.037,32.861c-2.094,4.293-5.241,7.291-8.874,9.475
		c-3.077,1.848-7.493,3.478-12.353,3.478c-4.987-0.001-9.925-2.491-13.192-4.797c-1.947-1.375-3.763-4.01-5.276-6.117
		C32.624,93.405,31.245,86.978,31.69,80.057z"/>
</g>
<g id="Layer_1">
</g>
</svg>
