<?xml version="1.0" encoding="iso-8859-1"?>
<!-- Generator: Adobe Illustrator 19.2.0, SVG Export Plug-In . SVG Version: 6.00 Build 0)  -->
<svg version="1.1" xmlns="http://www.w3.org/2000/svg" xmlns:xlink="http://www.w3.org/1999/xlink" x="0px" y="0px"
	 viewBox="0 0 146.577 147.859" style="enable-background:new 0 0 146.577 147.859;" xml:space="preserve">
<g id="Chartered_x5F_Society_x5F_of_x5F_Designers">
	<path style="fill-rule:evenodd;clip-rule:evenodd;" d="M125.856,125.624c-7.946,7.978-16.576,14.076-28.078,18.118
		c-11.248,3.953-26.576,5.589-40.197,2.521c-11.932-2.689-21.958-8.172-30.718-15.239c-4.157-3.354-8.034-7.31-11.279-11.759
		C8.904,110.106,3.52,100.621,1.185,87.467c-3.739-21.065,1.733-41.485,11.279-54.716c3.234-4.483,6.465-8.842,10.559-12.6
		c8.059-7.396,17.294-13.43,29.158-16.919c3.001-0.882,6.06-1.545,9.359-2.159c20.263-3.775,41.044,2.95,53.036,11.759
		c5.695,4.184,10.32,8.201,14.519,13.199c4.194,4.992,7.627,10.498,10.679,16.919c5.942,12.501,8.771,30.227,5.279,46.557
		C141.864,104.431,134.679,116.127,125.856,125.624z M43.782,11.872c-7.909,4.085-14.184,8.788-19.918,14.639
		c-2.892,2.951-5.486,6.054-7.559,9.72c-1.906,3.37-4.358,7.149-6.119,11.159c-3.435,7.82-5.7,18.514-5.28,29.038
		c0.635,15.896,6.45,28.267,13.199,38.277c2.287,3.392,5.04,6.239,8.039,9.239c11.2,11.2,27.792,19.919,49.316,19.318
		c10.488-0.293,19.836-2.846,27.718-6.72c7.792-3.83,14.495-8.391,20.039-14.519c2.759-3.051,5.014-6.375,7.559-9.72
		c2.46-3.231,4.261-7.245,5.999-11.279c3.427-7.953,5.904-18.003,5.4-28.678c-1.021-21.603-9.601-36.599-20.999-47.996
		C110.369,13.544,93.273,3.991,71.38,5.033C60.744,5.539,51.327,7.975,43.782,11.872z"/>
	<path style="fill-rule:evenodd;clip-rule:evenodd;" d="M71.98,10.792c9.597-0.456,19.177,1.879,26.278,4.92
		c14.666,6.28,25.487,16.979,32.158,31.078c3.366,7.114,5.932,15.93,6.12,25.438c0.41,20.757-7.315,34.983-17.399,45.837
		c-10.144,10.918-24.635,18.605-43.557,19.438c-20.043,0.882-35.16-7.882-45.356-17.639c-5.392-5.159-9.908-11.136-13.199-18.479
		c-3.245-7.239-5.889-15.795-6.12-25.438c-0.232-9.705,2.042-18.616,4.92-26.277c2.898-7.718,7.071-13.709,12.359-19.199
		c5.146-5.342,11.013-9.752,18.239-13.438C53.449,13.445,62.007,11.266,71.98,10.792z M86.019,23.751
		c-6.137,4.521-8.517,13.397-6.24,23.398c1.964,8.625,5.159,16.037,9.839,21.839c5.005,6.204,14.449,13.338,24.478,7.439
		c1.584-0.932,3.177-2.782,4.08-4.2c3.171-4.98,4.268-14.192,2.4-22.078c-1.611-6.801-5.439-13.772-9.119-18.959
		c-3.307-4.659-10.184-10.851-17.519-10.438C90.812,20.927,88.075,22.237,86.019,23.751z M80.499,22.432
		c-4.338,1.133-7.726,3.844-11.279,6.119C61.73,33.348,53.757,38.935,46.182,43.91c-1.252,0.822-4.232,2.648-4.32,3.359
		c-0.066,0.539,0.617,1.824,1.2,1.92c0.825,0.136,3.867-2.441,4.68-3c3.233-2.223,6.061-4.012,9.239-6.119
		c2.091-1.387,4.105-3.658,6.839-3.48c3.443,0.225,6.922,7,5.04,10.559c-0.95,1.797-4.13,1.626-5.759,0.48
		c-1.652-1.161-2.484-3.435-3-5.52c-6.047,3.537-12.025,7.628-17.639,11.519c-1.887,1.309-4.016,2.361-5.4,4.08
		c12.082,2.297,27.129-2.893,35.878,3.72c4.885,3.691,6.58,10.561,9.719,16.079c2.431,4.272,4.756,8.824,9.959,10.559
		c1.038-3.442,3.013-5.946,5.4-8.039c-8.684-4.382-14.391-12.298-18.479-22.078c-4.127-9.874-6.205-24.693,0.24-32.758
		c0.759-0.95,1.945-1.332,2.52-2.64C81.761,22.058,80.93,22.319,80.499,22.432z M79.18,76.667c-1.823-3.318-2.816-6.804-4.799-9.599
		c-2.315-3.262-5.649-5.888-10.56-6.479c-6.909-0.833-15.485,0.571-22.438,0c-2.34-0.192-4.451-1.038-6.72-1.32
		c-1.029-0.128-3.35,1.634-3.6,2.28c5.191,1.517,11.273,1.8,17.519,1.8c6.3,0,12.575-1.077,17.399,0.479
		c3.996,1.29,5.862,4.581,7.559,8.279c1.31,2.856,2.61,5.565,3.96,8.04c3.377,6.192,7.607,12.846,15.719,14.278
		c0.106-0.911,0.389-2.312,0-2.999C85.905,89.165,82.648,82.98,79.18,76.667z M92.739,96.946c-0.959-0.36-2.221-0.129-2.999-0.601
		c-0.503-0.304-0.678-1.139-1.08-1.56c-0.683-0.716-2.113-1.494-3.24-2.399c-1.12-0.9-2.064-2.146-3.12-2.641
		c-0.8-0.373-1.984-0.246-2.88-0.84c-1.01-0.669-1.981-2.829-2.16-4.199c-0.337-2.584-0.602-4.94-2.399-6.84
		c-0.852-0.898-2.126-1.225-2.64-1.92c-0.86-1.161-0.271-2.736-0.6-4.439c-0.245-1.27-1.88-2.778-2.879-3.6
		c-1.719-1.413-4.441-2.546-7.32-2.76c-5.054-0.376-12.282,0.459-18.238,0.12c-1.348-0.077-3.046-0.663-3.84-0.12
		c-1.491,2.431-2.463,5.629-3.96,8.999c-0.626,1.41-1.277,2.73-2.04,4.439c-0.647,1.452-2.03,3.543-1.68,4.8
		c0.46,1.651,4.609,1.307,4.92,2.52c0.292,1.142-1.352,1.563-1.32,2.641c0.027,0.914,1.485,1.96,2.28,2.039
		c1.755,0.177,4.137-1.854,5.399-0.359c-1.254,0.966-4.891,0.429-4.919,2.279c-0.021,1.348,1.581,1.262,1.8,2.16
		c0.678,2.779-2.586,3.424-1.92,6.239c0.254,1.072,2.043,2.189,2.76,2.521c3.751,1.729,14.577,2.827,18.839,1.319
		c0.73-0.258,2.238-1.585,2.879-1.199c1.615,0.971-1.558,1.991-2.039,2.159c-3.115,1.091-6.204,1.571-10.199,1.8
		c-0.976,6.523-0.445,13.522-0.12,19.919c3.626-1.266,6.94-3.51,10.679-5.16c5.741-2.533,13.738-4.397,21.238-2.76
		c0.269-1.69,0.048-3.871,0.12-5.759c-1.882-0.778-3.703-1.005-5.039-2.16c-1.695-1.465-1.626-4.503-3.48-5.64
		c-2.634-1.614-7.026-1.77-6.599-6.119c1.599,0.738,1.962,2.246,3.479,3.359c1.539,1.129,3.848,1.472,5.04,2.76
		c1.403,1.516,1.605,3.821,3.36,4.92c2.818,1.764,8.191,1.568,8.279,5.52c0.999-0.487,1.559-1.805,1.2-3.36
		c-0.631-2.732-4.346-2.689-6.48-3.72c-2.034-0.981-2.317-3.189-3.72-4.919c-2.524-3.112-7.667-3.86-10.319-6.96
		c-1.178-1.376-2.243-3.861-2.64-5.88c-0.365-1.854-0.21-3.553-1.2-5.039c-1.364-2.048-4.498-3.376-5.52-6.359
		c-1.097-3.203,0.729-6.857,0-10.68c-0.173-0.907-0.786-1.593-0.48-2.64c2.97-1.62,2.6,4.329,2.4,7.079
		c-0.087,1.199-0.463,2.262-0.48,3.48c-0.047,3.346,3.562,5.771,5.039,7.799c2.091,2.871,1.883,7.525,3.72,10.199
		c2.421,3.527,6.983,4.33,9.599,6.6c1.507,1.308,2.156,3.877,3.6,5.04c2.187,1.762,6.224,1.32,7.559,4.439
		c0.313,0.731,0.179,1.604,0.6,2.399c2.114-0.618,2.222-3.938,1.44-5.399c-1.406-2.626-6.133-2.549-8.399-4.319
		c-1.416-1.106-2.068-2.972-3.36-4.319c-2.983-3.114-7.861-2.929-9.719-7.2c-1.016-2.336-0.821-4.758-1.68-7.079
		c-1.154-3.12-5.619-5.087-6.24-8.399c-0.428-2.285,0.515-4.864,0.36-7.319c-0.068-1.077-0.491-1.9-0.24-2.88
		c2.384-0.28,1.978,2.575,1.92,4.319c-0.064,1.906-0.594,4.099-0.36,5.52c0.491,2.994,3.786,4.331,5.279,6.72
		c1.78,2.847,1.856,9.626,4.8,11.039c2.895,1.391,5.457,1.759,7.199,3.36c1.216,1.117,1.482,2.716,2.88,3.959
		c2.954,2.629,9.043,2.229,9.719,7.439c1.003-0.244,1.846-1.677,1.56-3.359c-0.656-3.858-6.02-3.793-8.999-6.119
		c-1.27-0.992-2.265-3.207-3.479-4.2c-2.189-1.79-6.288-2.077-8.04-4.08c-1.829-2.091-1.637-6.33-2.88-8.759
		c-0.487-0.952-1.233-1.868-1.8-2.52c-1.355-1.561-3.486-2.395-3.72-4.561c-0.246-2.285,0.178-5.17-0.12-7.559
		c1.289,0.638,2.297,0.941,2.64,2.159c0.506,1.797-0.841,4.207-0.12,5.88c0.863,2.003,3.612,3.212,4.68,4.92
		c1.474,2.357,1.051,5.18,2.4,7.919c1.547,3.143,7.225,3.317,9.599,6.239c0.917,1.13,1.44,2.331,2.52,3.12
		c1.556,1.137,3.703,1.282,5.399,2.28c1.387,0.815,1.921,2.038,3.36,2.76C97.188,99.968,95.142,97.848,92.739,96.946z"/>
	<path style="fill-rule:evenodd;clip-rule:evenodd;" d="M41.862,66.948c-0.019,0.14,0.027,0.214,0.12,0.24
		c-2.006,2.771,2.395,6.203-0.36,8.159c0.063-2.223-0.916-3.404-3-3.479c0.132-0.349,0.108-0.852,0.24-1.2
		c0.25-0.189,0.797-0.083,1.08-0.24c0.154-0.664,0.023-1.074,0.12-1.92c-0.08-0.359-0.698-0.182-0.84-0.479
		c-0.065-0.625,0.036-1.084,0.24-1.44C40.557,66.629,41.304,66.324,41.862,66.948z"/>
	<path style="fill-rule:evenodd;clip-rule:evenodd;" d="M56.861,73.788c-3.58,0.931-2.188-4.762-2.64-6.96
		c3.674-1.244,0.633,4.959,2.76,5.88C56.957,73.083,57.062,73.589,56.861,73.788z"/>
	<path style="fill-rule:evenodd;clip-rule:evenodd;" d="M52.302,66.828c0.77,3.254-0.988,6.99,1.68,8.52
		c0.959,0.55,3.197,0.178,2.4,1.92c-5.99,1.104-6.21-4.948-5.879-10.199C50.527,66.402,51.901,66.755,52.302,66.828z"/>
	<path style="fill-rule:evenodd;clip-rule:evenodd;" d="M43.782,71.147c-0.396-0.81,0.002-1.258-0.24-2.159
		c-0.028-0.104-0.796-1.131-0.72-1.44c0.312-1.274,4.776-0.411,4.44,1.32c-0.12,0.618-1.242,0.816-1.8,1.2
		C44.736,70.566,44.548,71.403,43.782,71.147z"/>
	<path style="fill-rule:evenodd;clip-rule:evenodd;" d="M39.223,84.827c-0.343-1.696-1.618-2.462-3.24-2.88
		c0.37-1.934,3.689-0.108,4.08,0.96c2.243,0.34,0.296-3.01,1.56-3.24c0.328-0.06,0.753,0.562,0.84,0.96
		C42.876,82.52,41.255,84.943,39.223,84.827z"/>
</g>
<g id="Layer_1">
</g>
</svg>
