<?xml version="1.0" encoding="iso-8859-1"?>
<!-- Generator: Adobe Illustrator 19.2.0, SVG Export Plug-In . SVG Version: 6.00 Build 0)  -->
<svg version="1.1" xmlns="http://www.w3.org/2000/svg" xmlns:xlink="http://www.w3.org/1999/xlink" x="0px" y="0px"
	 viewBox="0 0 78.094 78.24" style="enable-background:new 0 0 78.094 78.24;" xml:space="preserve">
<g id="chicago_x5F_for_x5F_research_x5F_studies">
	<path style="fill-rule:evenodd;clip-rule:evenodd;" d="M36.941,0.057c6.334-0.339,12.182,0.861,16.77,2.77
		c4.674,1.945,8.598,4.489,11.908,7.631c6.647,6.309,11.569,14.578,12.395,26.685c0.442,6.483-0.993,11.961-2.819,16.624
		c-1.82,4.65-4.3,8.87-7.484,12.054c-1.688,1.687-3.319,3.233-5.152,4.618c-5.504,4.155-12.388,7.146-21.533,7.728
		c-9.371,0.598-17.162-2.57-22.941-6.173c-3.985-2.484-7.377-5.725-10.159-9.381c-1.388-1.824-2.629-3.812-3.742-6.027
		c-2.155-4.284-3.859-9.535-4.132-15.408c-0.453-9.781,2.283-17.305,6.076-23.137c3.881-5.968,8.768-10.543,15.407-13.901
		C25.875,1.943,30.805,0.386,36.941,0.057z M65.667,28.638c-1.874-4.731-4.721-8.487-8.36-11.471
		c-4.641-3.805-11.043-7.122-19.782-6.659c-5.453,0.289-10.108,2.045-13.659,4.423c-7.106,4.759-12.581,11.646-13.268,22.504
		c-0.358,5.639,1.186,10.61,3.208,14.631c3.91,7.779,11.188,13.503,20.608,15.213c5.603,1.017,11.197-0.033,15.408-1.701
		c4.31-1.708,7.587-4.182,10.499-7.437c2.439-2.642,4.412-5.876,5.735-9.575c0.45-1.261,0.894-2.62,0.973-4.083
		c-1.56-0.287-3.351-0.112-5.056-0.146c-1.66-0.033-3.396-0.151-4.957,0.049c-0.508,1.001-0.84,1.993-1.312,2.916
		c-1.506,2.934-3.369,5.003-5.931,6.902c-3.194,2.369-7.88,4.079-13.463,3.256c-4.726-0.696-8.484-3.188-11.034-6.076
		c-2.634-2.983-4.764-6.963-4.764-12.346c0.001-5.377,2.003-9.456,4.715-12.395c1.323-1.433,2.861-2.811,4.715-3.84
		c1.828-1.014,3.987-1.911,6.368-2.187c5.695-0.66,10.091,0.902,13.463,3.256c2.964,2.069,5.232,4.845,6.61,8.36
		c0.188,0.476,0.229,1.079,0.681,1.458c3.136,0.139,6.814,0.248,9.965,0.048C66.891,31.895,66.283,30.192,65.667,28.638z
		 M38.643,47.06c2.543,0.13,4.685-0.878,6.172-2.382c1.19-1.202,2.144-2.964,2.285-4.909c0.327-4.498-2.66-7.871-6.465-8.652
		c-0.62-0.127-1.28-0.18-2.041-0.146c-3.415,0.151-5.605,2.207-6.757,4.715c-0.364,0.794-0.66,1.673-0.729,2.576
		c-0.217,2.849,0.803,4.239,1.798,6.027C34.446,45.836,36.182,46.934,38.643,47.06z"/>
</g>
<g id="Layer_1">
</g>
</svg>
