<?xml version="1.0" encoding="iso-8859-1"?>
<!-- Generator: Adobe Illustrator 19.2.0, SVG Export Plug-In . SVG Version: 6.00 Build 0)  -->
<svg version="1.1" xmlns="http://www.w3.org/2000/svg" xmlns:xlink="http://www.w3.org/1999/xlink" x="0px" y="0px"
	 viewBox="0 0 66.312 74.146" style="enable-background:new 0 0 66.312 74.146;" xml:space="preserve">
<g id="Child_x5F_Ltd_x5F_64">
	<path style="fill-rule:evenodd;clip-rule:evenodd;" d="M41.986,21.672c0.594,0.076,0.941-0.48,1.321-0.831
		c1.881-1.737,3.54-3.826,5.724-5.382c0.829-0.591,1.977-1.306,2.984-1.418c1.308-0.147,3.26,0.244,4.061,0.88
		c1.184,0.089,2.282,0.262,3.229,0.587c0.357,0.048-0.087,0.402,0.147,0.489c3.093,0.065,5.102,1.509,6.115,3.62
		c0.799,1.665,0.732,4.256,0,5.822c-0.206,0.441-0.523,0.756-0.146,1.32c-0.299,0.99-0.496,2.081-1.027,2.838
		c0.164,0.956-0.321,2.465-0.783,3.18c-0.984,1.521-3.584,2.327-5.675,2.838c-1.73,0.422-3.519,0.681-5.234,1.174
		c-0.521,0.15-1.137,0.22-1.468,0.636c0.189,0.498,0.776,0.711,1.223,0.881c1.529,0.581,3.377,0.746,5.039,1.224
		c2.978,0.854,6.352,2.345,6.506,5.87c-0.524-0.168-0.591-0.602-0.88-0.93c-2.381-2.7-6.917-3.077-10.812-4.305
		c-0.673-0.213-1.287-0.343-1.859-0.636c-0.54-0.278-0.95-0.717-1.565-0.832c-0.016,0.528,0.396,0.896,0.734,1.174
		c1.34,1.099,3.581,1.507,5.675,2.006c2.051,0.489,4.265,0.926,5.871,1.762c1.067,0.555,1.734,1.353,2.642,2.005
		c0.552,0.852,1.111,1.694,1.37,2.838c0.011,0.349-0.163,0.375-0.147,0.685c0.017,0.32,0.359,0.72,0.489,0.979
		c0.482,0.959,0.87,2.18,0.783,3.62c-0.173,2.859-2.621,5.125-5.479,5.479c-0.399,0.05-0.887-0.064-1.419,0.049
		c-0.264,0.056-0.446,0.342-0.734,0.44c-0.522,0.18-1.227,0.226-1.859,0.294c-0.626,0.067-1.289,0.078-1.957-0.05
		c-0.255,0.007-0.053,0.469-0.293,0.49c-0.972,0.092-2.021,0.374-2.837,0.146c-1.959-0.546-3.542-1.941-4.99-3.278
		c-0.713-0.658-1.463-1.312-2.103-2.006c-0.678-0.734-1.225-1.604-2.055-2.055c-0.315,0.796,0.102,1.627,0.293,2.397
		c0.379,1.527,0.969,2.984,1.223,4.647c0.163,1.067,0.596,2.689,0.196,3.767c-0.2,0.539-0.591,1.13-0.979,1.664
		c-0.38,0.524-0.716,1.258-1.272,1.271c-0.065-0.588,0.279-1.219,0.392-1.956c0.574-3.784-1.178-6.941-1.859-10.274
		c-0.132-0.644-0.272-1.429-0.245-2.152c0.025-0.635,0.3-1.653-0.587-1.81c-0.583,0.387-0.442,1.86-0.392,2.69
		c0.127,2.094,1.042,3.819,1.566,5.773c0.616,2.298,1.1,4.647,0.929,7.583c-0.372,1.259-1.212,2.049-1.908,2.984
		c-0.198,0.08-0.47,0.085-0.636,0.195c-0.873,2.073-2.315,3.814-4.941,4.061c-3.511,0.33-6.076-2.174-7.338-4.354
		c-0.244-0.016-0.292,0.164-0.587,0.098c-0.791-0.628-1.43-1.407-1.81-2.446c-0.812-0.287-1.174-0.911-1.663-1.712
		c-0.581-0.949-1.052-1.862-0.93-3.474c0.123-1.624,0.677-3.193,1.174-4.696c0.25-0.756,0.447-1.532,0.685-2.251
		c0.247-0.747,0.647-1.456,0.587-2.201c-1.038,0.161-1.753,1.117-2.446,1.811c-0.723,0.723-1.418,1.486-2.104,2.201
		c-0.585,0.669-1.4,1.391-2.299,2.055c-0.804,0.594-1.893,1.518-3.082,1.468c-0.44-0.018-0.97-0.196-1.517-0.294
		c-0.5-0.089-1.151-0.035-1.37-0.44c0.288-0.361,0.767-0.271,1.125-0.342c2.64-0.522,4.465-2.451,6.066-4.158
		c0.875-0.934,1.893-1.976,3.033-2.838c0.51-0.387,1.012-0.82,1.712-1.224c0.564-0.324,1.85-0.636,1.516-1.418
		c-0.665-0.413-1.398,0.177-1.908,0.489c-1.638,1.003-3.244,2.333-4.501,3.767c-1.308,1.492-2.541,2.884-4.305,4.012
		c-0.549,0.351-1.165,0.796-1.712,1.027c-1.133,0.479-2.798,0.415-4.207,0.147c-0.358,0.064-0.159-0.43-0.44-0.44
		c-4.518,0.293-7.891-2.634-7.534-7.339c0.093-1.233,0.547-2.064,1.174-2.936c-0.436-1.168,0.427-2.428,0.881-3.326
		c0-0.229,0-0.457,0-0.685c0.628-1.879,1.352-3.312,2.984-4.158c2.015-1.045,4.657-1.467,7.192-2.055
		c0.816-0.189,1.752-0.116,2.397-0.685c-0.7-0.689-1.922-0.977-3.082-1.224C9.752,36.01,7.4,35.445,5.637,34.294
		c-1.666-1.087-2.67-2.356-3.327-4.501c-0.076-0.32,0.14-0.554,0.049-0.733c-0.67-0.961-1.161-2.101-1.565-3.327
		c-0.052-0.297,0.389-0.306,0.245-0.538c-0.382-0.882-0.816-1.677-0.979-2.593c-0.204-1.147,0.156-2.258,0.489-3.033
		c0.851-1.977,2.712-3.275,4.941-3.865c0.308-0.081,0.684-0.075,1.028-0.195c0.29-0.102,0.472-0.421,0.733-0.538
		c0.625-0.279,1.999-0.509,2.788-0.538c0.247-0.009,0.557,0.095,0.832,0.049c0.415-0.069,0.42-0.382,0.832-0.489
		c0.372-0.097,0.922-0.135,1.37-0.195c0.587-0.08,1.332-0.126,1.81,0c1.53,0.4,2.877,1.465,3.963,2.495
		c1.167,1.107,2.212,2.225,3.082,3.375c0.37,0.345,0.732,0.708,1.076,1.077c0.329,0.352,0.551,0.882,1.076,1.027
		c0.245-0.984-0.112-2.054-0.391-3.033c-0.527-1.847-1.299-3.677-1.565-5.871c-0.136-1.117-0.091-2.754,0.391-3.669
		c0.278-0.528,0.726-1.057,1.125-1.565c0.414-0.528,0.94-0.964,1.272-1.419c0.717-0.985,0.995-1.868,1.908-2.544
		c0.183-0.135,0.439-0.183,0.636-0.343c0.607-0.491,0.917-1.188,1.467-1.663C29.936,0.789,31.427,0.028,33.18,0
		c1.045-0.017,2.027,0.438,2.74,0.88c1.243,0.77,2.367,1.847,3.082,3.082c0.21,0.094,0.342-0.006,0.538,0.05
		c0.69,0.81,1.595,1.404,1.957,2.544c0.167,0.158,0.47,0.182,0.685,0.293c0.867,1.345,1.855,2.648,2.006,4.599
		C44.505,15.578,42.636,18.411,41.986,21.672z M36.164,3.278C34.432,2.15,31.61,2.343,30,3.327
		c-0.509,0.311-1.122,0.658-1.125,1.175c1.334-0.776,2.893-1.606,5.039-1.419c1.584,0.138,2.569,1.07,3.571,1.614
		C37.181,4.181,36.726,3.644,36.164,3.278z M26.673,4.746c-0.207,0.591-0.365,1.204-0.44,1.712c-0.844,5.7,2.832,9.99,2.789,15.02
		c-0.005,0.546-0.029,1.207-0.196,1.761c-0.13,0.434-0.647,0.75-0.44,1.272c0.506,0.087,0.74-0.459,0.93-0.832
		c0.427-0.838,0.526-2.003,0.44-3.277c-0.359-5.35-4.167-9.416-2.887-15.753c-0.011-0.038-0.041-0.058-0.098-0.049
		C26.759,4.668,26.69,4.681,26.673,4.746z M39.344,4.843c0.61,3.792-0.462,6.707-1.272,9.785c-0.59,2.242-1.497,4.366-1.468,6.8
		c0.013,1.046,0.146,2.293,0.832,2.788c-0.053-0.87-0.227-1.699-0.147-2.69c0.401-4.96,3.29-8.715,2.936-13.991
		c-0.072-1.077-0.351-1.754-0.734-2.74c-0.07-0.012-0.082-0.08-0.147-0.098C39.344,4.746,39.344,4.794,39.344,4.843z M30.342,5.675
		c-0.692,0.423-1.479,1.005-1.664,1.81c0.482-0.152,0.723-0.592,1.077-0.88c0.721-0.588,1.666-1.013,2.837-1.126
		c1.386-0.134,2.398,0.281,3.229,0.734c0.642,0.35,1.096,0.95,1.761,1.125C36.629,4.882,32.741,4.209,30.342,5.675z M47.709,31.212
		c0.82-0.681,2.026-1.378,3.376-1.81c1.286-0.412,2.826-0.874,4.207-0.979c1.49-0.114,2.933-0.13,4.159-0.734
		c1.232-3.731-1.062-7.262-4.697-7.436c-1.307,0.909-2.261,2.158-3.327,3.376c-0.563,0.645-1.205,1.258-1.859,1.859
		c-1.314,1.209-2.703,2.544-4.452,2.984c-2.35,0.591-3.539-0.999-4.892-1.811c-0.991-0.346-1.696-0.978-2.397-1.614
		c-0.244,0.015-0.449-0.008-0.636-0.049c-2.034-0.814-2.303-3.861-2.055-6.409c0.138-1.415,0.662-3.13,1.027-4.402
		c0.146-0.509,0.222-1.023,0.342-1.517c0.182-0.748,0.964-2.256,0.881-2.984c-0.052-0.453-0.983-1.319-1.468-1.615
		c-1.63-0.993-4.114-0.921-5.626,0c-0.574,0.351-1.402,1.051-1.468,1.566c-0.086,0.682,0.384,1.828,0.636,2.642
		c0.271,0.875,0.68,1.714,0.929,2.397c0.579,1.59,1.071,3.69,1.125,5.529c0.075,2.534-0.742,4.285-2.446,5.087
		c-0.995,0.469-2.436,0.198-3.375-0.146c-2.013-0.738-3.752-2.441-5.137-3.963c-0.7-0.77-1.458-1.565-2.201-2.348
		c-1.737-1.831-3.337-3.742-6.213-4.306c0.09,0.461,0.635,0.483,0.93,0.637c2.541,1.315,4.287,3.646,6.164,5.626
		c2.161,2.276,4.161,4.982,8.366,5.137c-0.153,0.483-0.952,0.744-1.517,0.88c-2.336,0.56-4.66-1.076-5.919-2.152
		c-2.565-2.191-4.247-5.054-6.849-7.045c-1.271-0.972-2.722-2.248-4.745-2.006c1.936,0.674,3.417,1.802,4.843,2.984
		c1.66,1.664,3.109,3.649,4.794,5.333c1.3,1.299,2.64,2.449,4.599,3.033c0.745,0.222,1.433,0.152,2.104,0.342
		c-0.667,0.899-2.042,1.227-3.425,0.881c-2.114-0.529-3.951-2.141-5.479-3.669c-1.074-1.074-2.17-2.405-3.277-3.571
		c-0.399-0.421-0.894-0.97-1.272-1.027c-0.736-0.111-1.763,0.307-2.349,0.685c-1.837,1.188-3.241,3.876-2.103,6.653
		c4.001,1.601,10.333,1.823,12.916,4.99c0.259,0.318,0.52,0.703,0.636,1.125c0.373,1.356-0.057,2.671-0.44,3.816
		c0.123,0.219,0.231,0.161,0.293,0.44c0.16,0.712-0.226,1.918-0.489,2.348c-0.254,0.415-0.87,0.835-1.321,1.175
		c-2.826,2.126-7.683,2.034-11.203,3.375c-1.834,0.699-3.41,1.4-4.599,2.495c-0.155,0.367-0.653,0.651-0.636,1.027
		c3.119-2.65,8.8-3.453,13.405-4.745c1.481-0.416,3.153-1.046,4.012-2.055c0.298-0.351,0.295-0.896,0.734-1.125
		c0.379,0.256,0.119,1.153,0.195,1.712c-0.27,0.659-0.715,1.144-1.174,1.614c-1.572,1.08-3.486,1.917-5.626,2.544
		c-2.136,0.626-4.611,0.726-6.604,1.614c-1.093,2.853,0.78,5.706,2.69,6.752c0.427,0.233,1.183,0.581,1.712,0.488
		c0.366-0.063,0.812-0.665,1.174-1.027c1.18-1.18,2.21-2.357,3.278-3.424c1.402-1.402,3.242-2.978,5.332-3.62
		c0.425-0.131,0.981-0.304,1.517-0.294c1.015,0.017,1.866,0.674,2.349,1.076c1.288,1.074,1.638,2.775,1.467,4.99
		c-0.15,1.947-0.934,3.745-1.565,5.626c-0.632,1.884-1.165,3.785-1.223,6.018c-0.021,0.798-0.02,1.59,0.392,2.152
		c0.071-3.136,0.885-6.196,1.859-9.002c0.738-2.125,1.723-4.589,1.027-7.289c-0.121-0.469-0.417-0.776-0.391-1.37
		c1.286,0.561,2.205,1.638,2.348,3.181c0.316,3.396-0.835,5.571-1.663,8.072c-0.642,1.939-1.301,4.004-1.273,6.359
		c0.011,0.919,0.129,2.354,0.685,2.984c-0.045-1.587-0.124-3.072,0.245-4.452c0.691-2.585,1.411-4.958,2.104-7.485
		c0.523-1.907,0.889-4.08,0.293-5.919c-0.163-0.502-0.583-0.797-0.539-1.419c3.708,0.573,2.695,6.521,1.81,9.735
		c-0.214,0.778-0.608,1.592-0.88,2.446c-0.246,0.769-0.825,2.059-0.734,2.642c0.09,0.576,1.058,1.158,1.565,1.419
		c0.955,0.491,2.274,0.935,3.571,0.685c0.724-0.139,1.761-0.575,2.299-1.027c0.291-0.243,0.848-0.893,0.881-1.271
		c0.036-0.409-0.248-0.916-0.392-1.468c-0.142-0.549-0.168-1.157-0.293-1.614c-0.196-0.715-0.597-1.48-0.832-2.349
		c-0.223-0.826-0.426-1.713-0.587-2.593c-0.691-3.782,0.163-7.586,4.06-7.437c4.723,1.338,6.784,5.34,10.127,8.072
		c1.405,1.148,2.765,2.43,4.892,2.691c-2.664-1.402-4.821-3.223-6.849-5.479c-1.748-1.946-3.884-4.877-6.996-5.333
		c-0.447-0.066-1.073,0.157-1.272-0.293c0.37-0.642,1.287-0.735,2.202-0.832c0.968-1.972,3.99-1.187,5.675-0.343
		c2.927,1.468,4.772,4.11,6.849,6.36c0.401,0.435,1.07,1.131,1.468,1.174c0.537,0.059,1.352-0.349,1.761-0.587
		c1.918-1.115,3.547-4.143,2.104-6.8c-2.05-0.659-4.572-1.258-6.947-1.908c-2.26-0.619-4.585-1.702-5.675-3.229
		c-0.268-0.377-0.597-1.054-0.636-1.517c-0.077-0.903,0.447-1.845,0.44-2.545c-0.003-0.273-0.169-0.553-0.196-0.831
		c-0.103-1.074,0.155-2.018,0.587-2.788c2.667-3.924,10.299-2.882,14.628-5.089c1.195-0.608,2.406-1.359,2.886-2.642
		c-1.158,0.747-2.251,1.57-3.718,2.104c-1.479,0.538-3.114,0.774-4.843,1.027c-3.156,0.465-6.775,1.338-8.463,3.229
		c-0.339,0.38-0.375,0.879-0.93,1.125C45.985,33.076,46.868,31.911,47.709,31.212z M41.937,7.876
		c0.225,1.646,0.077,3.389-0.293,4.99c-0.27,1.163-0.531,2.308-0.881,3.376c-0.733,2.239-1.558,4.493-1.664,6.8
		c-0.052,1.142,0.118,2.1,0.734,2.69c-0.646-6.152,3.114-9.435,2.691-15.753c-0.049-0.729-0.165-1.497-0.392-2.152
		c-0.07-0.012-0.082-0.081-0.146-0.098C41.983,7.792,41.923,7.797,41.937,7.876z M24.178,8.122c-0.865,3.229,0.066,6.257,0.88,8.903
		c0.546,1.774,1.228,3.564,1.174,5.382c-0.011,0.389-0.373,1.332,0.147,1.419c0.567,0.095,0.659-1.073,0.685-1.37
		c0.028-0.322,0.021-0.663,0-0.979c-0.3-4.48-3.099-8.336-2.691-13.453c-0.011-0.039-0.04-0.058-0.098-0.05
		C24.264,8.044,24.195,8.057,24.178,8.122z M48.737,18.248c-1.604,1.448-2.894,3.279-4.452,4.55
		c-0.473,0.386-0.988,0.685-1.468,0.978c-0.459,0.28-1.115,0.441-1.321,1.126c0.255,0.354,0.812,0.114,1.125,0
		c1.644-0.604,2.62-1.788,3.767-2.984c1.684-1.755,3.317-3.767,5.284-5.088c0.529-0.355,1.094-0.636,1.663-0.93
		c0.553-0.286,1.183-0.483,1.712-0.93C52.354,14.958,50.308,16.829,48.737,18.248z M58.032,15.949
		c-3.63,0.435-6.146,3.07-8.121,5.234c-1.884,1.803-3.451,4.192-6.115,5.186c-0.412,0.152-1.02,0.126-1.321,0.538
		c0.633,0.488,1.554,0.171,2.152-0.05c0.663-0.243,1.369-0.622,1.81-0.929c2.12-1.479,3.615-3.788,5.431-5.724
		c1.864-1.989,4.048-3.258,6.898-4.257C58.494,15.834,58.189,15.93,58.032,15.949z M6.811,17.074
		c-1.103,0.071-2.47,1.029-3.229,1.908c-0.768,0.889-1.283,2.06-1.37,3.278c-0.055,0.774,0.002,2.441,0.636,2.494
		c-0.25-3.545,1.146-5.77,3.375-6.849c0.371-0.18,0.871-0.274,1.125-0.685C7.219,17.022,6.98,17.063,6.811,17.074z M64.196,23.972
		c0.362-3.396-2.163-5.937-4.745-6.458c-0.038,0.011-0.057,0.041-0.049,0.098c0,0.033,0,0.065,0,0.099
		c2.742,1.189,4.594,3.266,4.452,7.338C64.059,24.747,64.157,24.337,64.196,23.972z M8.816,18.493
		c-2.544,0.848-4.627,2.643-4.354,6.017c0.059,0.724,0.089,1.743,0.783,1.907c-0.073-0.831-0.359-1.537-0.294-2.396
		c0.095-1.231,0.432-2.299,1.126-3.229c0.607-0.815,1.526-1.655,2.397-2.007c0.289-0.116,0.626-0.03,0.832-0.342
		C9.12,18.421,8.909,18.461,8.816,18.493z M61.946,25.733c0.084-0.47,0.196-1.013,0.196-1.418c0-2.887-2.529-5.459-5.186-5.529
		c-0.067-0.002-0.107,0.024-0.147,0.05c0.229,0.541,0.89,0.525,1.321,0.733c1.463,0.708,2.868,2.318,3.229,4.061
		c0.193,0.931,0.151,2.36,0.049,3.18C61.901,26.715,61.871,26.154,61.946,25.733z M1.625,26.222
		c1.138,1.781,2.973,2.791,5.039,3.718c2.523,1.133,5.492,1.498,8.268,2.3c1.22,0.353,2.467,0.869,3.474,1.517
		c0.582,0.374,0.867,0.999,1.468,1.174c0.133-0.911-0.655-1.439-1.223-1.858c-1.866-1.375-4.418-2.038-6.996-2.544
		c-3.624-0.711-6.84-1.702-9.148-3.571c-0.299-0.272-0.484-0.658-0.881-0.832c-0.003-0.029-0.007-0.058-0.049-0.049
		C1.584,26.133,1.568,26.214,1.625,26.222z M3.288,30.136c2.622,3.609,9.024,3.877,13.209,5.871c0.532,0.253,1.201,0.911,1.81,0.439
		c-0.175-0.576-0.752-0.933-1.223-1.174c-0.497-0.255-1.091-0.445-1.664-0.685c-1.717-0.718-3.733-1.157-5.626-1.565
		C7.16,32.454,5.08,31.249,3.239,29.99C3.237,30.057,3.263,30.097,3.288,30.136z M63.658,30.43
		c-0.898,0.659-1.836,1.264-2.984,1.663c-1.076,0.374-2.217,0.764-3.424,1.027c-2.403,0.524-4.985,0.73-7.094,1.761
		c-0.57,0.41-1.316,0.645-1.859,1.076c-0.535,0.427-1.147,0.916-1.321,1.664c0.757-0.303,1.097-0.928,1.81-1.321
		c3.046-1.683,7.614-1.82,11.057-3.033c1.177-0.414,2.38-0.876,3.131-1.565c0.301-0.276,0.833-0.922,0.734-1.271
		C63.691,30.43,63.674,30.43,63.658,30.43z M19.922,37.376c0,0.065-0.086,0.045-0.098,0.098c-2.187,1.899-5.752,2.735-9.197,3.474
		c-1.654,0.354-3.238,0.666-4.599,1.321c-0.958,0.461-1.913,1.118-2.446,2.006c1.104-0.527,2.203-1.188,3.473-1.713
		c3.801-1.568,9.022-1.268,11.938-3.718c0.343-0.472,0.901-0.729,1.027-1.419C20.009,37.388,19.979,37.369,19.922,37.376z
		 M57.054,44.226c-3.065-0.699-6.598-1.217-8.806-2.887c-0.417-0.315-0.659-0.855-1.076-1.027c-0.001,0.098-0.133,0.062-0.098,0.195
		c0.113,0.734,0.631,1.065,1.027,1.517c2.238,1.617,5.351,2.272,8.415,3.033c1.55,0.386,3.018,0.747,4.354,1.37
		c1.029,0.479,1.939,0.948,2.789,1.517c0.27,0.18,0.535,0.446,0.88,0.489C62.946,46.161,60.189,44.941,57.054,44.226z
		 M22.906,47.748c-2.69,0.812-4.625,2.875-6.507,4.941c-1.87,2.054-3.934,4.108-6.213,5.284c-0.449,0.23-0.996,0.306-1.37,0.831
		c6.978-1.118,8.439-8.285,14.383-10.322c0.345-0.118,0.862-0.146,1.125-0.538C24.067,47.588,23.33,47.62,22.906,47.748z
		 M56.907,58.56c-2.527-1.272-4.226-2.932-6.115-4.893c-2.282-2.368-4.114-5.459-8.317-5.821c-0.049-0.001-0.059,0.039-0.098,0.049
		c-0.019,0.07-0.059,0.082,0,0.146c1.402,0.637,2.77,1.308,3.914,2.202c2.355,2.346,4.511,5.176,7.387,7.093
		c1.231,0.821,2.395,1.676,4.109,1.811C57.599,58.827,57.197,58.706,56.907,58.56z M61.506,49.069
		c0.462,2.781-0.455,4.733-1.811,5.92c-0.749,0.655-1.708,0.839-2.495,1.467c0.571,0.176,1.166-0.177,1.664-0.391
		c2.326-1.001,4.197-3.973,2.837-7.094c-0.062-0.003-0.067-0.062-0.146-0.049C61.552,48.985,61.492,48.99,61.506,49.069z
		 M8.523,55.673c-1.108-0.877-2.272-1.587-2.886-2.984C5.259,51.83,5.085,50.785,5,49.558c-0.01-0.055-0.054-0.076-0.098-0.098
		C4.086,52.612,6.134,55.083,8.523,55.673z M2.848,49.705c-0.058,0.024-0.111,0.053-0.147,0.099c-0.234,0.375-0.36,1.205-0.343,1.81
		c0.08,2.723,1.986,4.922,4.305,5.431c-0.149-0.343-0.514-0.354-0.783-0.538c-1.559-1.07-2.86-2.828-2.984-5.187
		c-0.033-0.638,0.218-1.136,0.049-1.614C2.913,49.705,2.881,49.705,2.848,49.705z M63.805,50.488c0.292,3.174-0.9,5.198-2.642,6.262
		c-0.458,0.28-1.036,0.425-1.37,0.881c1.018-0.092,1.827-0.53,2.495-1.076c1.503-1.229,2.65-3.729,1.712-6.164
		c-0.062-0.003-0.068-0.063-0.146-0.049C63.851,50.404,63.791,50.409,63.805,50.488z M36.751,54.841
		c0.181,2.351,1.262,4.403,1.859,6.654c0.63,2.379,1.023,4.669,0.929,7.582c0.348-0.108,0.427-0.525,0.489-0.831
		c0.638-3.15-0.339-6.225-1.174-8.806c-0.685-2.118-1.635-4.794-1.468-7.485c0.031-0.501,0.318-1.132,0.049-1.517
		c-0.049,0-0.098,0-0.147,0C36.437,50.99,36.655,53.592,36.751,54.841z M36.8,67.953c-1.157,0.406-2.294,1.096-3.767,0.979
		c-1.318-0.104-2.495-0.868-3.571-1.174C30.492,69.804,35.66,70.162,36.8,67.953z M29.07,70.007
		c0.962,1.231,2.835,2.109,5.137,1.908c0.722-0.064,1.398-0.312,1.957-0.636c0.538-0.312,1.126-0.761,1.321-1.321
		c-0.375,0.007-0.585,0.356-0.881,0.538c-0.635,0.392-1.516,0.742-2.397,0.832c-2.285,0.234-4.039-0.643-5.185-1.517
		C29.017,69.897,29.032,69.964,29.07,70.007z"/>
</g>
<g id="Layer_1">
</g>
</svg>
