<?xml version="1.0" encoding="iso-8859-1"?>
<!-- Generator: Adobe Illustrator 19.2.0, SVG Export Plug-In . SVG Version: 6.00 Build 0)  -->
<svg version="1.1" xmlns="http://www.w3.org/2000/svg" xmlns:xlink="http://www.w3.org/1999/xlink" x="0px" y="0px"
	 viewBox="0 0 68.592 74.978" style="enable-background:new 0 0 68.592 74.978;" xml:space="preserve">
<g id="Chimetal_x5F_IT">
	<path style="fill-rule:evenodd;clip-rule:evenodd;" d="M68.585,17.433c-12.765,0.069-26.189,0.263-39.216,0.094
		c-0.825-0.011-1.692-0.101-2.486,0.141c-0.172,9.771-0.094,20.046-0.094,29.975c0,3.301-0.116,6.595,0.094,9.757
		c6.636,0.251,13.86,0.141,20.687,0.141c7.037,0,14.08-0.078,21.015,0.094c-0.584,1.399-1.608,2.539-2.533,3.659
		c-2.791,3.376-6.024,6.205-9.945,8.537c-5.006,2.978-11.536,5.478-19.42,5.113c-2.047-0.095-3.901-0.185-5.676-0.516
		c-12.03-2.242-20.099-8.673-25.659-17.45c-1.455-2.7-2.792-5.439-3.753-8.584c-0.951-3.115-1.667-6.811-1.595-10.742
		c0.113-6.066,1.283-10.887,3.237-15.245c0.636-1.418,1.266-2.85,2.017-4.128C9.759,10.626,16.789,4.9,25.851,1.859
		c2.346-0.787,4.817-1.364,7.647-1.595C34.44,0.187,35.529,0.076,36.5,0.03c3.917-0.186,7.733,0.519,10.93,1.501
		c9.213,2.83,15.749,7.786,20.686,14.917C68.312,16.731,68.641,17.042,68.585,17.433z"/>
</g>
<g id="Layer_1">
</g>
</svg>
