<?xml version="1.0" encoding="iso-8859-1"?>
<!-- Generator: Adobe Illustrator 19.2.0, SVG Export Plug-In . SVG Version: 6.00 Build 0)  -->
<svg version="1.1" xmlns="http://www.w3.org/2000/svg" xmlns:xlink="http://www.w3.org/1999/xlink" x="0px" y="0px"
	 viewBox="0 0 89.731 55.95" style="enable-background:new 0 0 89.731 55.95;" xml:space="preserve">
<g id="chribska">
	<path style="fill-rule:evenodd;clip-rule:evenodd;" d="M29.07,0.047c0.402,1.147-0.068,3.171,0.252,4.401
		c0.617-0.055,1.152-0.469,1.67-0.759c3.734-2.101,8.141-3.642,14.014-3.642c5.682,0,10.301,1.552,13.963,3.693
		c0.52,0.304,1.006,0.745,1.619,0.859c0.367-1.201,0.006-3.132,0.305-4.401c1.059-0.262,2.143-0.083,3.186,0
		c3.232,0.258,6.16,1.047,8.602,2.125c3.344,1.477,6.174,3.342,8.549,5.717c4.717,4.714,8.359,11.004,8.5,20.033
		c0.068,4.453-1.121,8.313-2.58,11.586c-1.494,3.35-3.6,6.027-5.92,8.347c-1.188,1.188-2.404,2.328-3.844,3.289
		c-4.176,2.783-9.572,4.915-16.645,4.553c-0.287-1.248,0.084-3.153-0.203-4.4c-0.635,0.025-1.139,0.508-1.67,0.809
		c-3.59,2.04-8.373,3.744-14.014,3.693c-4.838-0.044-8.883-1.237-12.293-2.884c-1.144-0.553-2.131-1.34-3.287-1.771
		c-0.387,1.183,0.055,3.192-0.305,4.401c-1.07,0.285-2.168,0.069-3.188,0c-3.16-0.216-6.002-1.025-8.449-2.024
		c-6.49-2.649-11.281-7.316-14.367-13.457c-1.555-3.093-2.742-6.73-2.934-10.978C-0.377,20.225,3.279,13.462,7.518,8.9
		c2.289-2.462,4.82-4.294,7.943-5.97C19.027,1.018,23.736-0.266,29.07,0.047z M15.967,17.247c-2.34,2.891-4.391,6.585-3.996,11.939
		c0.351,4.77,2.773,8.116,5.312,10.624c2.104,1.764,4.807,3.351,8.094,3.896c1.102,0.183,2.359,0.423,3.592,0.101
		c0.268-1.685,0.152-3.668,0.152-5.616c0-1.943-0.121-3.938,0.152-5.615c0.639,1.078,0.996,2.229,1.568,3.237
		c0.572,1.014,1.27,1.934,2.021,2.783c2.707,3.052,7.135,5.704,12.801,5.413c6.609-0.34,10.887-3.915,13.457-8.297
		c0.541-0.924,0.83-1.997,1.467-2.935c0.328,3.499-0.158,7.82,0.254,11.181c2.611,0.333,5.029-0.214,6.981-1.012
		c3.965-1.621,6.766-4.24,8.551-8.044c0.893-1.907,1.617-4.275,1.568-6.779c-0.106-5.271-2.26-8.887-5.01-11.636
		c-2.779-2.778-6.668-4.706-11.99-4.451c-0.279,0.839-0.133,1.82-0.15,2.781c-0.02,0.935-0.051,1.922-0.051,2.885
		c0,1.96,0.117,3.988-0.152,5.716c-0.562-0.977-0.863-2.033-1.365-2.984c-2.406-4.547-6.943-8.085-13.406-8.499
		c-5.912-0.379-10.205,2.242-12.953,5.362c-1.168,1.215-2.129,2.816-2.832,4.452c-0.246,0.573-0.42,1.264-0.809,1.518
		c-0.094-2.712-0.102-5.64-0.102-8.55c0-0.965,0.135-1.964-0.101-2.833C22.922,11.521,18.906,14.115,15.967,17.247z"/>
</g>
<g id="Layer_1">
</g>
</svg>
