<?xml version="1.0" encoding="iso-8859-1"?>
<!-- Generator: Adobe Illustrator 19.2.0, SVG Export Plug-In . SVG Version: 6.00 Build 0)  -->
<svg version="1.1" xmlns="http://www.w3.org/2000/svg" xmlns:xlink="http://www.w3.org/1999/xlink" x="0px" y="0px"
	 viewBox="0 0 148.081 110.791" style="enable-background:new 0 0 148.081 110.791;" xml:space="preserve">
<g id="Layer_4">
	<path style="fill-rule:evenodd;clip-rule:evenodd;" d="M73.86,0c0.708,3.099-0.008,5.864-1.678,7.674
		c-3.279,3.553-9.146,6.077-14.389,8.034c-13.307,4.965-30.404,6.765-48.082,5.995C6.341,21.556,2.881,21.377,0,20.264
		c14.92,1.52,30.22-0.158,43.646-3.717C55.666,13.36,66.927,8.109,73.501,0.24C73.593,0.131,73.717,0.056,73.86,0z"/>
	<path style="fill-rule:evenodd;clip-rule:evenodd;" d="M0,27.098c30.81,2.058,58.639-4.409,73.86-20.264
		c1.389,5.505-2.145,8.592-5.635,10.671c-15.684,9.344-39.54,12.74-63.43,10.552C3.197,27.911,1.349,28,0,27.098z"/>
	<path style="fill-rule:evenodd;clip-rule:evenodd;" d="M73.86,13.429c1.244,4.393-0.998,7.618-3.717,9.712
		c-3.766,2.901-9.075,5.23-14.508,6.834c-5.439,1.606-11.104,3.299-17.146,4.197C25.471,36.107,11.831,36.137,0,34.053
		c14.661,1.092,30.056-0.334,42.565-3.597c12.598-3.286,23.91-8.479,31.056-16.787C73.65,13.539,73.859,13.588,73.86,13.429z"/>
	<path style="fill-rule:evenodd;clip-rule:evenodd;" d="M0,40.647c19.595,1.467,38.062-0.602,52.758-6.714
		c8.274-3.442,15.661-7.268,20.743-13.189c0.09-0.104,0.163-0.341,0.359-0.36c0.103-0.022,0.113,0.047,0.12,0.12
		c1.101,6.516-2.932,9.065-6.954,11.391c-7.311,4.226-15.808,6.525-25.3,8.513c-3.316,0.694-6.73,0.701-10.191,1.079
		c-9.216,1.008-19.892,0.303-29.377-0.24C1.469,41.208,0.389,41.475,0,40.647z"/>
	<path style="fill-rule:evenodd;clip-rule:evenodd;" d="M147.602,22.542c-22.808-1.34-45.132,1.902-60.432,10.432
		c-3.872,2.159-7.407,4.537-10.671,7.434c-1.022,0.907-2.515,1.959-2.398,3.597c7.136-8.093,20.3-12.247,33.813-14.508
		c12.534-2.098,27.149-2.324,39.808-0.24c-1.316,0.574-2.717-0.014-4.076-0.12c-23.087-1.811-44.636,4.42-59.713,12.23
		c-1.96,1.016-3.769,2.549-5.516,3.957c-1.705,1.375-3.814,2.983-4.196,5.276c5.916-7.373,17.321-10.983,28.657-13.429
		c13.204-2.849,30.118-3.518,44.844-1.079c-8.09-0.279-16.524-0.605-24.58,0.359c-14.514,1.739-27.385,5.18-37.769,10.912
		c-2.273,1.254-4.562,2.674-6.476,4.316c-1.88,1.614-4.056,3.346-4.676,5.755c0.76-0.104,0.922-0.965,1.318-1.439
		c2.961-3.538,7.621-5.753,12.471-7.674c13.654-5.409,31.252-7.776,49.76-6.834c1.733,0.088,3.477,0.22,5.156,0.36
		c1.628,0.135,3.37,0.216,4.796,0.959C127.562,40.92,108.106,44.507,93.405,50c-5.134,2.82-11.191,5.415-15.588,9.473
		c-1.408,1.299-3.187,2.775-3.477,4.916c6.448-8.264,20.262-12.392,33.333-14.748c9.355-1.687,20.159-1.994,30.456-1.319
		c3.305,0.217,6.677,0.135,9.592,1.319c-24.11-1.81-47.814,2.373-63.549,11.991c-1.871,1.144-3.959,2.635-5.636,4.077
		c-1.691,1.454-3.741,3.187-4.077,5.516c6.263-8.199,20.203-12.43,33.094-14.748c9.404-1.691,20.421-2.042,30.815-1.439
		c3.265,0.189,6.622,0.404,9.473,1.439c-21.286-1.919-41.987,1.755-57.074,8.753c-6.566,3.045-12.159,6.505-16.308,11.63
		c-0.352-0.886-0.133-2.344-0.359-3.357c-5.91,7.016-16.173,10.886-27.218,13.429c-12.389,2.854-28.16,3.729-42.207,2.158
		c-1.521-0.17-3.263-0.105-4.316-0.959c22.525,1.78,44.729-1.836,60.552-10.192c2.562-1.352,5.155-2.946,7.435-4.676
		c2.252-1.71,4.833-3.582,5.755-6.354c-1.052,0.624-1.583,1.637-2.399,2.398c-2.6,2.429-5.865,3.995-9.352,5.755
		c-4.423,2.234-9.907,3.579-15.228,4.916c-12.608,3.169-27.716,3.862-41.727,2.398c-1.798-0.187-3.754-0.189-5.036-1.079
		c27.129,2.107,54.698-3.635,69.904-16.307c1.554-1.295,3.182-2.894,3.717-5.036c-2.512,2.92-5.696,5.504-9.712,7.434
		C47.954,75.225,22.966,78.273,0.359,74.7c1.023-0.495,2.548,0.041,3.598,0.12c22.012,1.671,43.086-3.259,57.674-11.031
		c2.445-1.303,4.782-2.888,6.954-4.556c2.164-1.663,4.653-3.39,5.396-6.115c-1.027,0.616-1.685,1.902-2.758,2.877
		c-2.918,2.654-6.903,4.621-11.031,6.235c-15.6,6.1-39.908,9.402-59.952,5.635c7.304,0.222,15.184,0.663,22.542-0.24
		c7.373-0.904,14.244-1.805,20.504-3.597c9.34-2.674,18.025-6.051,24.941-11.271c2.233-1.686,4.671-3.638,5.635-6.355
		c-1.42,0.794-2.064,2.337-3.356,3.357c-9.38,7.405-24.679,10.784-40.168,12.47c-2.667,0.29-5.644,0.002-8.394,0.12
		C14.476,62.67,6.93,62.662,0.12,61.031c27.154,1.827,52.093-3.554,67.865-15.108c1.124-0.823,2.327-1.629,3.357-2.638
		c0.973-0.953,2.287-2.021,2.518-3.478c-1.001,0.599-1.815,1.825-2.877,2.758c-3,2.634-7.152,4.516-11.271,6.115
		c-13.701,5.322-31.348,7.892-49.521,6.714C6.74,55.172,3.154,55.283,0,54.077c19.63,1.463,37.888-0.893,52.398-6.595
		c8.386-3.295,16.074-7.334,21.582-13.429c0.131,0.987,0.205,2.541,0.12,3.357c10.288-11.336,30.76-15.653,51.799-16.427
		C132.917,20.725,140.822,21.251,147.602,22.542z"/>
	<path style="fill-rule:evenodd;clip-rule:evenodd;" d="M73.741,27.338c1.429,4.063-0.787,7.084-3.118,8.993
		c-2.172,1.778-5.272,3.684-7.793,4.556c-7.053,2.44-14.876,5.443-23.741,6.595c-12.228,1.589-27.106,2.306-39.089,0
		c0.623-0.608,1.567-0.184,2.278-0.12c12.996,1.17,27.562-0.283,38.609-3.118c5.971-1.532,11.893-3.304,17.026-5.755
		c6.062-2.895,12.051-6.313,15.707-11.151C73.661,27.338,73.701,27.338,73.741,27.338z"/>
	<path style="fill-rule:evenodd;clip-rule:evenodd;" d="M147.842,63.07c-7.105-0.311-14.107-0.333-20.983,0.12
		c-19.989,1.318-37.935,7.462-49.88,17.626c-0.717,0.969-1.68,2.308-2.519,2.758c-1.397-7.389,4.687-10.698,9.833-13.189
		c7.206-3.489,15.598-5.883,24.58-7.314C121.006,61.136,135.778,61.088,147.842,63.07z"/>
	<path style="fill-rule:evenodd;clip-rule:evenodd;" d="M147.962,69.904c-3.249,0.175-7.22-0.312-10.552-0.36
		c-13.065-0.188-25.535,2.049-36.451,5.396c-10.814,3.315-20.351,8.401-26.499,15.468c-1.518-6.911,4.499-10.505,9.233-12.95
		C99.86,69.109,125.706,66.474,147.962,69.904z"/>
	<path style="fill-rule:evenodd;clip-rule:evenodd;" d="M148.081,76.979c-15.031-1.498-30.207,0.013-42.685,3.477
		c-12.534,3.479-23.821,8.397-30.936,16.906c-0.672-2.566-0.1-5.579,1.319-7.313c4.505-5.51,13.85-8.557,21.822-10.791
		c14.028-3.932,29.429-4.758,45.563-3.357C144.836,76.044,146.804,75.957,148.081,76.979z"/>
	<path style="fill-rule:evenodd;clip-rule:evenodd;" d="M148.081,83.693c-14.258-0.922-28.903-0.389-41.246,3.118
		C93.848,90.5,81.747,95.307,74.46,104.077c-0.624-2.22-0.227-5.036,0.84-6.595c1.871-2.736,5.895-5.258,9.353-6.834
		c7.319-3.337,16.026-5.708,25.18-7.195c10.689-1.735,21.732-1.62,32.974-0.719C144.629,82.88,146.585,82.82,148.081,83.693z"/>
	<path style="fill-rule:evenodd;clip-rule:evenodd;" d="M148.081,90.408c-14.068-1.035-28.518,0.069-40.647,3.117
		c-13.524,3.399-25.766,8.841-33.093,17.267c-1.335-7.077,4.26-10.225,8.992-12.59c7.717-3.856,16.123-6.361,25.899-7.914
		c5.189-0.823,10.747-1.214,15.947-1.438C132.983,88.511,141.415,89.114,148.081,90.408z"/>
</g>
<g id="Layer_1">
</g>
</svg>
