<?xml version="1.0" encoding="iso-8859-1"?>
<!-- Generator: Adobe Illustrator 21.0.2, SVG Export Plug-In . SVG Version: 6.00 Build 0)  -->
<svg version="1.1" xmlns="http://www.w3.org/2000/svg" xmlns:xlink="http://www.w3.org/1999/xlink" x="0px" y="0px"
	 viewBox="0 0 35.074 35.397" style="enable-background:new 0 0 35.074 35.397;" xml:space="preserve">
<g id="Circo_x5F_Bar">
	<path d="M16.322,0.043c4.614-0.331,9.351,1.26,12.779,4.375c-0.284,0.505-0.808,0.983-1.269,1.339
		C23.566,1.99,17.163,0.77,11.875,2.954C9.339,3.869,7.159,5.586,5.428,7.628C0.5,13.354,0.651,22.719,5.83,28.245
		c0.48-0.477,1.112-0.94,1.403-1.525c-3.804-4.224-4.403-10.93-1.563-15.833c1.455-2.72,3.972-4.768,6.795-5.946
		c4.594-1.93,10.186-0.935,13.928,2.329c-1.245,1.195-2.449,2.44-3.659,3.673c-0.152,0.178-0.376,0.498-0.606,0.225
		c-3.006-2.255-7.687-1.965-10.223,0.872c-3.166,2.934-3.126,8.517,0.077,11.409c2.626,2.86,7.413,3.027,10.383,0.603
		c0.417,0.456,0.961,0.852,1.285,1.361c-2.699,2.17-6.621,2.768-9.832,1.428c-3.573-1.305-6.026-4.991-6.103-8.762
		c-0.175-3.394,1.554-6.841,4.433-8.668c2.859-2.035,6.872-2.118,9.935-0.478c0.494-0.457,0.921-0.986,1.451-1.403
		c-3.46-2.14-8.126-2.289-11.652-0.222c-2.597,1.221-4.461,3.677-5.449,6.326c-1.644,4.519-0.325,10.08,3.469,13.12
		c-1.351,1.38-2.693,2.767-4.039,4.151c-3.715-3.258-5.923-8.174-5.86-13.122c-0.094-4.633,1.785-9.241,5.052-12.518
		C8.009,2.234,12.09,0.304,16.322,0.043z"/>
	<path d="M26.426,9.903c1.349-1.374,2.71-2.741,4.101-4.067c5.141,5.476,6.017,14.37,2.141,20.786c-2,3.385-5.105,6.144-8.79,7.557
		c-5.386,2.188-11.835,1.386-16.526-2.044c1.328-1.435,2.701-2.833,4.089-4.209c0.328-0.001,0.627,0.298,0.936,0.427
		c4.035,2.086,9.221,1.358,12.663-1.557c0.537,0.207,0.907,0.85,1.375,1.232c-3.845,3.503-9.836,4.418-14.533,2.156
		c-0.551,0.494-1.081,1.012-1.584,1.557c3.307,1.788,7.288,2.246,10.931,1.339c6.319-1.518,11.391-7.292,11.913-13.794
		c0.423-3.753-0.616-7.616-2.771-10.708c-0.49,0.479-1.196,0.993-1.419,1.587c3.237,4.943,2.896,12.053-1.127,16.442
		c-1.432-1.232-2.697-2.648-4.054-3.961c2.252-2.834,2.249-7.155-0.062-9.955c0.443-0.426,0.827-0.981,1.344-1.289
		c2.529,2.968,2.967,7.446,1.16,10.888c0.255,0.604,0.948,1.012,1.383,1.533C30.247,19.567,29.725,13.666,26.426,9.903z"/>
	<path d="M13.448,13.069c2.024-1.881,5.379-2.051,7.578-0.378c-0.435,0.449-0.887,0.883-1.319,1.336
		c-1.679-1.037-4.051-0.755-5.348,0.761c-1.721,1.777-1.398,4.98,0.646,6.376c1.171,0.861,2.795,1.051,4.125,0.462
		c0.778-0.591,1.327,0.635,1.823,1.081c-2.145,1.637-5.433,1.467-7.434-0.351C10.811,20.042,10.782,15.423,13.448,13.069z"/>
</g>
<g id="Layer_1">
</g>
</svg>
