<?xml version="1.0" encoding="iso-8859-1"?>
<!-- Generator: Adobe Illustrator 19.2.0, SVG Export Plug-In . SVG Version: 6.00 Build 0)  -->
<svg version="1.1" xmlns="http://www.w3.org/2000/svg" xmlns:xlink="http://www.w3.org/1999/xlink" x="0px" y="0px"
	 viewBox="0 0 172.04 168.391" style="enable-background:new 0 0 172.04 168.391;" xml:space="preserve">
<g id="Circolo_x5F_Nautico_x5F_Imperia">
	<path style="fill-rule:evenodd;clip-rule:evenodd;" d="M171.406,0.073c0.257,27.639,0.27,55.202,0.246,83.407
		c-10.514,0.26-21.135,0.195-31.812,0.196c-7.948,0.001-15.963,0.099-23.858,0.099c-21.009-0.002-41.798,0.096-63.328,0.098
		c-7.651,0.001-14.176-1.913-19.686-4.418c-10.941-4.975-19.59-12.804-25.38-22.877c-3.889-6.765-6.889-14.731-7.364-24.791
		c-0.244-5.153-0.146-10.604-0.197-15.808C-0.025,10.83-0.006,5.634,0.124,0.318C3.485,0.132,6.86,0.171,10.237,0.171
		c37.766,0.001,74.721-0.048,112.616-0.05c6.61,0,13.405-0.098,20.177-0.098c5.081,0,10.244,0,15.317,0
		C162.764,0.024,167.136-0.054,171.406,0.073z"/>
	<path style="fill-rule:evenodd;clip-rule:evenodd;" d="M33.408,89.862c0.765-0.643,1.942-0.873,2.945-1.276
		c21.805-0.017,42.366-0.148,63.967-0.147c23.345,0.002,46.537-0.146,70.054-0.147c0.587,0,1.24-0.128,1.374,0.344
		c0.355,1.241-0.846,0.982-1.865,0.982c-2.329-0.001-4.262-0.1-6.382,0c-3.16,0.147-5.723-0.094-8.738,0.049
		c-2.888,0.136-5.74-0.128-8.493,0c-2.786,0.13-5.652,0.049-8.591,0.049c-4.331,0-8.684,0.05-13.108,0.05
		c-1.409-0.001-2.874-0.06-4.271,0c-5.811,0.247-11.633-0.09-17.379,0.049c-5.778,0.139-11.649,0.098-17.477,0.098
		c-5.856,0.001-11.72,0-17.526,0c-8.735,0.002-17.343,0.048-26.165,0.05C38.869,89.96,36.034,90.081,33.408,89.862z"/>
	<path style="fill-rule:evenodd;clip-rule:evenodd;" d="M23.59,95.458c0.027-0.363,0.394-0.573,0.638-0.736
		c0.287-0.192,0.64-0.412,0.982-0.491c0.596-0.138,1.431-0.038,2.258,0c2.058,0.096,4.468,0.001,6.726,0
		c3.108,0,6.277,0.001,9.229,0c9.117-0.001,18.09-0.002,27.197-0.099c3.032-0.031,6.083,0.109,9.082,0.05
		c6.032-0.121,12.139-0.099,17.968-0.099c18.473,0.001,36.603-0.098,54.786-0.098c6.127,0,12.273,0.089,18.41-0.05
		c0.554-0.012,1.196,0.084,0.883,0.982c-0.093,0.268-0.097,0.282-0.883,0.294c-11.964,0.184-24.484,0.094-36.131,0.099
		C97.469,95.325,60.433,95.678,23.59,95.458z"/>
	<path style="fill-rule:evenodd;clip-rule:evenodd;" d="M16.913,101.055c-0.016-0.419,0.542-1.021,0.933-1.179
		c0.712-0.288,3.354-0.049,4.467-0.049c4.559-0.002,9.496,0.065,13.647,0c6.356-0.099,12.337-0.05,18.262-0.05
		c24.705,0.004,48.947-0.095,73.343-0.098c6.104-0.001,12.193-0.098,18.262-0.099c3.059,0,6.126,0.083,9.18,0.05
		c3.02-0.033,6.055,0.089,9.033-0.05c1.842-0.086,4.403-0.048,6.234-0.049c0.576,0,1.571-0.289,1.473,0.639
		c0.511,0.891-1.408,0.631-2.16,0.638c-11.753,0.116-24.455,0.096-36.377,0.099c-13.288,0.002-25.795,0.096-38.685,0.098
		C68.433,101.009,42.585,101.252,16.913,101.055z"/>
	<path style="fill-rule:evenodd;clip-rule:evenodd;" d="M11.955,106.651c-0.073-0.567,0.476-0.928,0.834-1.228
		c18.588-0.003,37.639-0.095,56.161-0.098c18.952-0.004,37.986-0.096,56.554-0.099c11.004-0.001,22.128-0.097,32.94-0.098
		c4.028,0,7.328-0.049,11.537-0.049c0.91,0,2.243-0.234,1.767,1.03c-0.156,0.386-0.711,0.286-0.981,0.295
		c-2.89,0.101-5.909,0-8.788,0C111.928,106.416,61.375,106.847,11.955,106.651z"/>
	<path style="fill-rule:evenodd;clip-rule:evenodd;" d="M8.126,112.199c0.07-0.768,0.458-1.109,1.129-1.178
		c2.152-0.223,4.963-0.021,7.069-0.099c1.529-0.058,3.126,0,4.664,0c14.385,0,28.457-0.001,42.759,0c9.59,0,18.672-0.05,28.276-0.05
		c18.768,0.001,37.209-0.144,56.407-0.146c3.179-0.001,6.376,0.146,9.524,0c3.881-0.182,8.313-0.049,12.42-0.05
		c0.939,0,1.769-0.129,1.424,0.982c-0.136,0.438-1.533,0.317-2.209,0.344c-2.528,0.095-5.384,0-7.708,0
		c-10.715,0.001-19.959,0.048-30.731,0.049c-13.489,0.001-27.951,0.273-40.992,0.099c-3.416-0.046-6.868,0.049-10.309,0.049
		c-21.936,0-44.731,0.103-66.814,0.098c-0.847,0-1.674,0.022-2.503,0C9.729,112.275,8.885,112.493,8.126,112.199z"/>
	<path style="fill-rule:evenodd;clip-rule:evenodd;" d="M5.23,117.795c-0.123-1.687,2.271-1.179,3.829-1.179
		c3.512,0.001,6.612-0.054,9.966-0.049c34.559,0.045,70.316-0.199,104.86-0.196c3.361,0,6.73-0.049,10.113-0.05
		c8.552-0.002,16.539-0.049,24.939-0.049c3.909,0,7.39,0.027,11.242-0.049c0.791-0.016,1.799-0.224,1.669,0.736
		c0,0.896-1.27,0.589-2.062,0.589c-48.487,0.003-95.784,0.353-144.036,0.344c-5.89-0.001-11.872,0.049-18.065,0.049
		C6.869,117.942,6.013,118.063,5.23,117.795z"/>
	<path style="fill-rule:evenodd;clip-rule:evenodd;" d="M3.119,123.342c-0.01-0.04-0.05-0.049-0.049-0.098
		c0.047-1.098,0.712-1.031,1.522-1.031c5.87,0,11.883-0.099,17.673-0.098c26.632,0.004,53.059-0.108,79.873-0.099
		c10.104,0.003,20.041-0.099,30.191-0.099c6.828,0.001,13.469,0,20.128,0c1.636,0,3.308,0.042,4.958,0
		c4.593-0.117,8.661-0.05,13.402-0.049c0.3,0,0.776-0.135,0.982,0.196c0.125,0.861,0.187,1.08-0.982,1.08
		c-41.93,0.002-84.169,0.288-126.019,0.295c-13.291,0.002-26.044,0.099-39.225,0.098c-0.429,0-0.871,0.012-1.325,0
		C3.893,123.53,3.432,123.596,3.119,123.342z"/>
	<path style="fill-rule:evenodd;clip-rule:evenodd;" d="M1.597,128.89c0.035-0.248-0.03-0.845,0.393-1.031
		c0.257-0.113,0.817-0.101,1.178-0.098c12.788,0.091,25.646,0,38.537,0c20.232-0.001,40.554-0.15,61.119-0.147
		c18.787,0.003,37.736-0.146,56.456-0.147c3.193,0,5.87,0,9.033,0c0.646,0,1.299,0.023,1.915,0c0.533-0.021,1.192-0.225,1.571,0.196
		c0.094,0.118,0.031,0.395,0.049,0.589c0.012,0.582-0.654,0.438-0.933,0.442c-3.117,0.047-6.301-0.059-9.278,0
		c-7.02,0.139-14.034,0.098-21.306,0.098c-42.979-0.002-85.225,0.284-128.326,0.295c-3.235,0.001-6.203-0.001-9.278,0
		C2.386,129.086,1.873,129.227,1.597,128.89z"/>
	<path style="fill-rule:evenodd;clip-rule:evenodd;" d="M171.847,133.259c0,0.196,0,0.393,0,0.589
		c0.015,0.607-0.631,0.389-0.884,0.393c-13.54,0.189-27.903,0.151-41.532,0.147c-35.948-0.011-71.592,0.248-107.511,0.245
		c-6.525,0-13.237,0.048-20.127,0.049c-0.938,0.001-1.271-0.119-0.982-0.933c0.17-0.477,1.293-0.36,2.013-0.393
		c0.894-0.039,1.565,0.05,2.308,0.05c2.055,0,3.143-0.05,4.614-0.05c28.451,0,55.721-0.149,84.242-0.146
		c6.292,0,12.308-0.051,18.41-0.05c11.003,0.002,21.711-0.098,32.891-0.099c8.336,0,16.828-0.053,25.43-0.049
		C171.056,133.013,171.617,132.852,171.847,133.259z"/>
	<path style="fill-rule:evenodd;clip-rule:evenodd;" d="M171.847,139.396c0.035,0.623-0.66,0.439-0.933,0.441
		c-6.52,0.068-13.402,0.05-20.128,0.049c-21.536-0.003-43.175,0.192-64.654,0.196c-21.529,0.005-43.54,0.094-64.703,0.099
		c-6.51,0.001-13.287,0.133-19.981,0.098c-0.312-0.001-0.852,0.134-1.031-0.294c0.072-0.834-0.289-1.008,0.884-1.031
		c2.921-0.058,6.205,0.125,8.885,0c3.45-0.161,6.935-0.098,10.015-0.098c36.358-0.002,73.519-0.205,110.162-0.196
		c8.181,0.001,16.875,0.107,24.939-0.05c4.693-0.092,8.931-0.048,13.942-0.049c0.688,0,2.472-0.211,2.602,0.295
		C171.877,138.971,171.825,139.21,171.847,139.396z"/>
	<path style="fill-rule:evenodd;clip-rule:evenodd;" d="M171.896,144.599c0,0.114,0,0.229,0,0.344
		c-0.084,0.876-1.387,0.54-2.209,0.54c-42.395,0.001-84.312,0.34-126.755,0.344c-7.102,0.001-14.004-0.05-21.453-0.05
		c-3.371,0.001-6.922-0.095-10.751,0.05c-2.629,0.099-6.241,0.109-9.327,0.049c-0.855-0.017-1.037-0.069-0.933-0.884
		c-0.003-0.527,0.618-0.431,0.884-0.441c1.287-0.056,2.525,0.05,3.78,0c1.704-0.068,3.471,0,5.155,0
		c16.869,0.001,33.983-0.097,51.153-0.099c3.401,0,6.805-0.074,10.211-0.049c5.051,0.038,10.021,0.001,15.022,0
		c15.137-0.001,30.741-0.147,46.097-0.147c6.952,0,13.696,0,20.275,0c3.427,0,6.864,0.108,10.26-0.049
		c1.806-0.084,4.714-0.05,6.824-0.049C170.733,144.158,171.705,143.87,171.896,144.599z"/>
	<path style="fill-rule:evenodd;clip-rule:evenodd;" d="M0.468,151.226c0.032-0.246-0.065-0.62,0.049-0.785
		c0.188-0.402,0.725-0.286,1.031-0.294c2.881-0.08,5.928-0.001,8.984,0c10.019,0.001,20.442-0.046,30.731-0.05
		c33.817-0.011,67.971-0.247,102.455-0.245c4.946,0,9.936-0.048,15.169-0.049c3.983-0.001,7.405-0.05,11.389-0.05
		c0.814,0,1.471-0.149,1.62,0.442c0.197,0.783,0.089,0.883-1.031,0.884c-10.343,0.002-20.679,0.097-31.026,0.098
		c-3.573,0.001-7.282-0.108-10.849,0.049c-3.493,0.155-7.103-0.17-10.702,0c-3.607,0.172-7.229,0.049-10.85,0.05
		c-35.267,0.003-69.408,0.194-104.615,0.196C2.021,151.472,1.008,151.753,0.468,151.226z"/>
	<path style="fill-rule:evenodd;clip-rule:evenodd;" d="M0.517,156.185c0.107-0.483,0.703-0.34,0.982-0.344
		c13.38-0.205,26.504-0.052,39.42-0.049c13.686,0.002,27.494-0.099,41.385-0.099c12.034,0,23.781-0.097,35.837-0.098
		c13.471-0.002,27.594-0.145,41.041-0.147c3.889-0.001,7.379,0.081,11.144-0.049c0.992-0.035,1.807-0.136,1.62,0.883
		c-0.064,0.352-0.323,0.393-0.982,0.393c-3.153,0.001-6.294,0.049-9.278,0.05c-21.499,0.004-42.837,0.196-64.507,0.196
		c-7.249,0-14.308,0.05-21.6,0.049c-21.476-0.001-42.746,0.145-64.703,0.147c-1.602,0-3.527,0.013-5.4,0.049
		c-0.914,0.019-2.62-0.041-4.025-0.049C0.615,157.113,0.295,157.049,0.517,156.185z"/>
	<path style="fill-rule:evenodd;clip-rule:evenodd;" d="M0.517,162.321c0-0.13,0-0.262,0-0.393c0.076-0.788,1.293-0.49,2.013-0.49
		c20.699,0.004,41.194-0.098,61.855-0.099c17.939-0.001,36.019-0.148,53.903-0.148c11.444,0.001,23.127-0.095,34.806-0.098
		c5.841-0.002,11.217-0.051,17.428-0.049c0.731,0,1.298-0.12,1.424,0.343c0.253,0.934-0.126,0.857-1.08,0.884
		c-6.822,0.19-13.703,0.101-20.373,0.099c-7.591-0.002-14.179,0.049-21.453,0.049c-14.053,0.001-29.048,0.149-43.054,0.147
		c-26.702-0.003-53.879,0.194-80.658,0.196c-1.326,0-2.61-0.062-3.977-0.049C1.06,162.717,0.51,162.876,0.517,162.321z"/>
	<path style="fill-rule:evenodd;clip-rule:evenodd;" d="M0.566,167.181c0.697-0.238,1.554-0.196,2.406-0.196
		c22.807,0.003,46.115-0.087,68.532-0.147c16.35-0.043,33.892-0.097,50.761-0.098c6.762-0.001,13.566-0.1,20.373-0.099
		c3.385,0.001,6.819-0.094,10.211,0c3.392,0.095,6.845,0.157,10.211,0c2.017-0.094,4.661-0.056,7.118-0.049
		c0.863,0.003,2.118-0.289,1.816,0.981c-0.081,0.346-0.274,0.386-0.982,0.393c-7.06,0.074-13.222,0.051-20.029,0.05
		c-7.654-0.001-14.271,0.05-21.306,0.049c-7.152-0.001-14.413,0.101-21.649,0.098c-32.206-0.01-64.561,0.185-96.956,0.197
		c-3.211,0.001-6.288-0.001-9.426,0c-0.32,0-0.865,0.16-1.08-0.246C0.479,167.868,0.508,167.432,0.566,167.181z"/>
</g>
<g id="Layer_1">
</g>
</svg>
