<?xml version="1.0" encoding="iso-8859-1"?>
<!-- Generator: Adobe Illustrator 19.2.0, SVG Export Plug-In . SVG Version: 6.00 Build 0)  -->
<svg version="1.1" xmlns="http://www.w3.org/2000/svg" xmlns:xlink="http://www.w3.org/1999/xlink" x="0px" y="0px"
	 viewBox="0 0 77.319 46.815" style="enable-background:new 0 0 77.319 46.815;" xml:space="preserve">
<g id="City-Druck_x5F_CH">
	<path style="fill-rule:evenodd;clip-rule:evenodd;" d="M22.802,46.636c-0.262-1.731-0.097-3.664-0.097-5.586
		c0-5.718,0.001-11.689,0-17.626c0-5.859,0.05-11.772,0.049-17.818c0-1.683,0-2.642,0-4.382c0-0.932,0.002-1.058,0.529-1.156
		c0.819-0.153,1.957-0.013,2.938,0.097c6.348,0.705,10.714,3.265,14.303,6.597c2.082,1.935,3.581,4.369,4.864,7.128
		c1.354,2.91,2.051,6,1.975,9.872c-0.152,7.683-3.166,12.718-7.272,16.662c-1.983,1.907-4.614,3.453-7.367,4.575
		c-1.416,0.577-3.028,0.896-4.672,1.301C26.422,46.7,24.619,47.034,22.802,46.636z M42.45,27.421
		c0.833-3.619,0.467-7.799-0.819-11.076c-1.124-2.866-3.14-5.442-5.441-7.416c-2.375-2.037-5.729-3.716-8.909-4.189
		c-0.372,0.613-0.263,1.418-0.24,2.118c0.071,2.286,0,4.74,0,7.128c-0.001,8.232-0.05,15.356-0.049,23.404
		c0,1.547-0.111,3.092,0.144,4.574c2.473-0.103,4.541-1.105,6.309-2.118c1.804-1.034,3.396-2.36,4.672-3.901
		C40.297,33.72,41.642,30.928,42.45,27.421z"/>
	<path style="fill-rule:evenodd;clip-rule:evenodd;" d="M21.308,0.501c0.14,1.1,0.287,2.844,0,3.9
		c-1.806,0.578-3.623,0.826-5.2,1.589C11.586,8.181,8,11.388,5.947,16.056c-1.381,3.139-1.976,7.737-1.012,11.51
		c0.916,3.587,2.606,6.442,4.767,8.716c2.134,2.335,4.875,4.102,8.234,5.249c1.1,0.377,2.278,0.58,3.371,1.108
		c0.129,1.094,0.213,2.885-0.048,3.9c-1.204,0.232-2.38-0.211-3.467-0.481c-3.196-0.794-6.117-2.198-8.38-3.997
		c-3.087-2.454-5.743-5.423-7.416-9.102c-1.676-3.685-2.613-8.867-1.541-14.014c0.252-1.211,0.505-2.236,0.866-3.275
		c1.04-2.987,2.673-5.584,4.624-7.753c2.593-2.878,6.002-5.045,10.112-6.405C17.64,0.989,19.383,0.509,21.308,0.501z"/>
	<path style="fill-rule:evenodd;clip-rule:evenodd;" d="M53.863,23.375c0.055,0.426,0.5,0.529,0.674,0.964
		c0.198,0.491,0.183,1.221,0.241,1.878c0.058,0.655,0.229,1.318,0.145,1.878c-0.828,0.483-1.932,0.218-2.264-0.289
		c-0.457-0.695,0.215-3.838-1.3-3.419c-1.153,0.318,0.231,3.043-0.578,3.708c-0.402,0.33-1.395,0.097-1.83-0.097
		c-0.188-1.965-0.097-4.24-0.097-6.404c0-1.159-0.102-2.317,0.144-3.322c0.808-0.244,2.989-0.25,4.191-0.146
		c0.576,0.051,1.36,0.631,1.541,1.06c0.264,0.633,0.325,2.531,0,3.227C54.534,22.831,54.117,22.932,53.863,23.375z M51.07,19.861
		c-0.113,0.67-0.184,1.8,0,2.456c1.353,0.919,1.852-1.155,1.349-2.312C52.199,19.661,51.372,19.432,51.07,19.861z"/>
	<path style="fill-rule:evenodd;clip-rule:evenodd;" d="M69.803,21.642c-0.362,0.327-1.467,0.41-1.974,0.145
		c-0.489-0.681,0.066-2.099-0.819-2.215c-0.914-0.12-0.912,1.227-0.866,2.359c0.029,0.741,0.096,1.903,0.096,2.842
		c0,0.984-0.059,2.162,0.723,2.167c1.025,0.006,0.5-1.52,0.915-2.216c0.38-0.225,1.383-0.194,1.83-0.048
		c0.389,0.852,0.331,2.058-0.049,2.745c-0.724,1.31-4.248,1.403-5.152,0.289c-0.787-0.971-0.569-4.469-0.578-6.164
		c-0.007-1.392,0.105-2.77,1.06-3.228c0.359-0.171,1.049-0.158,1.541-0.192c1.233-0.083,2.588-0.016,3.082,0.771
		C70.04,19.582,69.918,20.541,69.803,21.642z"/>
	<path style="fill-rule:evenodd;clip-rule:evenodd;" d="M62.242,18.512c0.245,0.621,0.145,1.411,0.145,2.167
		c0,0.743,0.045,1.521,0.049,2.264c0.005,1.03,0.116,2.635,0,3.756c-0.103,0.983-0.754,1.685-1.782,1.83
		c-1.728,0.243-3.592,0.018-4.045-1.155c-0.365-0.945-0.193-3.161-0.193-4.479c0.001-1.717-0.117-3.284,0.193-4.383
		c0.417-0.204,1.516-0.237,1.926,0c0.315,0.563,0.192,1.409,0.192,2.215c0.001,1.497,0.03,2.867,0.049,4.575
		c0.008,0.828,0.037,1.642,0.674,1.686c1.228,0.085,0.77-2.664,0.77-3.853c0-1.625-0.139-3.169,0.097-4.526
		C60.676,18.238,61.775,18.234,62.242,18.512z"/>
	<path style="fill-rule:evenodd;clip-rule:evenodd;" d="M77.267,18.415c0.231,0.929-0.374,1.606-0.723,2.312
		c-0.25,0.507-0.957,1.593-0.963,2.264c-0.006,0.564,0.524,1.328,0.818,1.926c0.499,1.017,1.089,1.792,0.818,3.227
		c-0.37,0.149-1.021,0.036-1.492,0c-0.959-0.663-0.981-2.263-1.927-2.938c-0.5,0.574,0.107,2.258-0.385,2.841
		c-0.391,0.229-1.485,0.216-1.878,0c-0.323-0.422-0.168-0.972-0.144-1.493c0.074-1.691-0.035-3.696,0-5.441
		c0.018-0.915-0.172-1.961,0.24-2.648c0.398-0.15,1.287-0.15,1.686,0c0.499,0.673,0.066,2.277,0.434,3.082
		c0.553-0.175,0.616-0.915,0.915-1.493C75.227,18.969,75.442,17.88,77.267,18.415z"/>
	<path style="fill-rule:evenodd;clip-rule:evenodd;" d="M8.306,18.56c0.228,1.368,0.048,2.853,0.048,4.286
		c0,1.817,0.207,3.688-0.097,5.346c-0.433,0.249-1.531,0.192-1.926-0.048c-0.19-2.12-0.096-4.349-0.096-6.55
		c0-1.088-0.142-2.201,0.192-3.13C6.955,18.315,7.878,18.323,8.306,18.56z"/>
	<path style="fill-rule:evenodd;clip-rule:evenodd;" d="M18.034,21.449c0.507-0.183,0.64-0.862,0.915-1.444
		c0.484-1.026,1.016-2.031,2.504-1.396c-0.03,1.102-0.646,2.018-1.107,2.985c-0.218,0.458-0.386,1.004-0.626,1.493
		c-0.245,0.497-0.528,0.944-0.626,1.444c-0.221,1.126,0.273,2.707-0.24,3.708c-0.415,0.193-1.164,0.138-1.638,0
		c-0.565-1.028-0.011-2.688-0.289-3.852c-0.174-0.726-0.734-1.494-1.108-2.167c-0.394-0.71-0.759-1.489-1.349-1.878
		c-0.371,0.03-0.882-0.079-1.107,0.096c-0.26,0.939-0.145,2.036-0.145,3.131c0,1.597,0.075,3.22-0.145,4.623
		c-0.498,0.221-1.45,0.173-1.927,0c-0.233-1.434-0.145-3.938-0.145-5.972c0-0.582,0.13-1.591-0.192-1.83
		c-0.411-0.305-0.971,0.099-1.349-0.24c-0.223-0.348-0.259-1.468,0.097-1.686c2.105-0.081,4.54-0.079,6.645,0
		C17.091,19.182,17.155,20.723,18.034,21.449z"/>
</g>
<g id="Layer_1">
</g>
</svg>
