<?xml version="1.0" encoding="iso-8859-1"?>
<!-- Generator: Adobe Illustrator 21.0.2, SVG Export Plug-In . SVG Version: 6.00 Build 0)  -->
<svg version="1.1" xmlns="http://www.w3.org/2000/svg" xmlns:xlink="http://www.w3.org/1999/xlink" x="0px" y="0px"
	 viewBox="0 0 13.573 13.719" style="enable-background:new 0 0 13.573 13.719;" xml:space="preserve">
<g id="City_x5F_Of_x5F_Dallas">
	<path d="M0,0.001c1.743-0.003,3.486,0.007,5.23,0.005C6.044,0.002,6.858-0.001,7.672,0c0.434,0.03,0.863,0.131,1.271,0.283
		c1.764,0.635,3.281,1.982,4.042,3.704c0.627,1.392,0.723,2.984,0.43,4.471c-0.277,1.363-0.967,2.646-1.982,3.601
		c-0.821,0.764-1.842,1.322-2.945,1.545c-0.422,0.084-0.852,0.111-1.282,0.106c-2.401,0.016-4.802,0.007-7.204,0
		c0.004-2.679,0.003-5.359,0.001-8.038c0.229,0.008,0.459,0.007,0.689,0c0.012,2.464,0.002,4.927,0.005,7.391
		c2.208-0.004,4.417-0.001,6.625-0.002c0.479,0.014,0.955-0.072,1.41-0.215c0.655-0.219,1.277-0.543,1.818-0.973
		c1.308-1,2.124-2.571,2.316-4.196c0.082-0.635,0.094-1.284-0.019-1.916c-0.189-1.16-0.773-2.234-1.563-3.093
		C10.483,1.814,9.481,1.13,8.356,0.788c-0.31-0.096-0.632-0.145-0.957-0.141C4.934,0.649,2.468,0.642,0.002,0.65
		C0.004,0.434,0.008,0.217,0,0.001z"/>
	<path d="M0,1.242c2.428,0,4.855,0,7.283,0c0.836-0.013,1.656,0.267,2.363,0.702c1.009,0.604,1.791,1.552,2.25,2.63
		c0.606,1.473,0.609,3.195-0.033,4.657c-0.553,1.242-1.534,2.303-2.765,2.894c-0.48,0.238-1.005,0.383-1.539,0.427
		c-2.106,0.056-4.212,0.027-6.318,0.008c-0.003-2.297-0.001-4.593-0.001-6.89c0.23,0.01,0.461,0.007,0.692,0.002
		C1.95,6.494,1.931,7.317,1.938,8.139c-0.001,1.232,0.002,2.464-0.001,3.695c1.73-0.006,3.461-0.003,5.192-0.002
		c0.342,0.011,0.687-0.02,1.018-0.114c1.375-0.375,2.519-1.419,3.12-2.699c0.304-0.678,0.472-1.418,0.481-2.161
		c0.03-1.028-0.295-2.067-0.918-2.887c-0.461-0.648-1.088-1.164-1.78-1.549C8.551,2.154,8.007,1.949,7.44,1.902
		c-2.479-0.003-4.958-0.007-7.438,0C0.005,1.682,0.007,1.462,0,1.242z"/>
	<path d="M0,2.446C2.441,2.444,4.882,2.438,7.323,2.45c1.295,0.068,2.476,0.878,3.133,1.976c0.82,1.363,0.895,3.152,0.162,4.568
		c-0.542,1.063-1.506,1.938-2.669,2.254c-0.281,0.071-0.57,0.116-0.861,0.109c-1.535-0.002-3.069,0.004-4.604-0.003
		C2.494,9.46,2.489,7.566,2.488,5.672c0.249,0.005,0.498,0.004,0.747,0C3.232,7.348,3.238,9.024,3.232,10.7l0.026,0.022
		c1.083,0.019,2.167,0.008,3.25,0.01c0.373-0.009,0.754,0.019,1.119-0.078c0.503-0.13,0.966-0.394,1.363-0.725
		c0.385-0.344,0.746-0.724,0.992-1.181c0.405-0.703,0.585-1.534,0.496-2.341c-0.09-0.776-0.44-1.512-0.947-2.103
		C8.961,3.629,8.146,3.112,7.246,3.07C4.831,3.071,2.417,3.069,0.003,3.071C0.005,2.863,0.006,2.654,0,2.446z"/>
	<path d="M6.168,4.738c0.223-0.352,0.444-0.705,0.661-1.06c0.207,0.394,0.447,0.77,0.647,1.168c0.127,0.239,0.265,0.497,0.24,0.778
		C7.682,5.924,7.508,6.182,7.366,6.44C7.173,6.765,7.001,7.103,6.793,7.419C6.538,6.975,6.289,6.528,6.049,6.075
		C5.923,5.847,5.798,5.585,5.863,5.318C5.905,5.097,6.057,4.926,6.168,4.738z"/>
	<path d="M3.515,5.672c0.53,0.006,1.06,0,1.59,0.003c0.218-0.003,0.424,0.133,0.522,0.325c0.308,0.622,0.671,1.214,0.998,1.826
		C6.084,7.8,5.542,7.829,5,7.812C4.765,7.8,4.572,7.626,4.471,7.423C4.152,6.84,3.82,6.262,3.515,5.672z"/>
	<path d="M7.901,6.162C8.084,5.926,8.33,5.699,8.642,5.676c0.498-0.01,0.996,0.01,1.493-0.011c-0.032,0.107-0.102,0.195-0.153,0.292
		c-0.2,0.356-0.4,0.712-0.599,1.069C9.294,7.178,9.228,7.35,9.096,7.472C8.917,7.667,8.668,7.808,8.4,7.821
		C7.918,7.836,7.436,7.815,6.955,7.824c0.039-0.113,0.106-0.213,0.165-0.317C7.377,7.058,7.63,6.605,7.901,6.162z"/>
	<path d="M6.436,8.1c0.221-0.003,0.443-0.001,0.663-0.005C7.114,8.73,7.132,9.365,7.156,10C6.87,10.012,6.585,9.997,6.299,10.01
		C6.342,9.373,6.401,8.737,6.436,8.1z"/>
</g>
<g id="Layer_1">
</g>
</svg>
