<?xml version="1.0" encoding="iso-8859-1"?>
<!-- Generator: Adobe Illustrator 19.2.0, SVG Export Plug-In . SVG Version: 6.00 Build 0)  -->
<svg version="1.1" xmlns="http://www.w3.org/2000/svg" xmlns:xlink="http://www.w3.org/1999/xlink" x="0px" y="0px"
	 viewBox="0 0 79.472 41.695" style="enable-background:new 0 0 79.472 41.695;" xml:space="preserve">
<g id="Clay-Adams">
	<path style="fill-rule:evenodd;clip-rule:evenodd;" d="M53.346,0.054C58.96-0.407,63.454,2.152,65.845,5.2
		c2.572,3.279,5.125,6.764,7.597,10.049c1.235,1.641,2.437,3.363,3.578,5.244c1.114,1.836,2.161,3.861,2.402,6.422
		c0.193,2.062-0.199,4.06-0.784,5.637c-0.205,0.549-0.349,1.131-0.588,1.617c-0.915,1.855-2.422,3.449-4.117,4.656
		c-1.766,1.256-3.835,2.188-6.372,2.449c-2.418,0.252-5.331,0.344-8.43,0.197c-2.778-0.133-5.936,0.049-8.676,0.049
		c-1.537,0-2.953,0.08-4.117-0.293c-2.024-0.652-3.822-2.283-4.362-4.461c-0.314-1.267-0.174-2.74,0.294-3.824
		c0.85-1.965,2.655-3.408,5.048-3.773c1.369-0.209,2.922-0.072,4.215-0.098c2.68-0.053,5.703,0.088,8.676-0.049
		c2.57-0.119,5.535,0.656,5.637-1.961c0.03-0.771-0.518-1.643-0.932-2.256c-2.161-3.199-4.394-5.877-6.666-9.018
		c-0.705-0.975-1.735-3.082-3.333-3.137c-1.393-0.049-2.266,1.209-2.99,2.156c-2.253,2.945-4.326,6.018-6.519,8.871
		c-1.477,1.922-3.009,3.941-4.265,5.98c-0.619,1.006-1.424,1.984-2.107,3.039c-2.045,3.158-4.665,5.234-8.431,6.959
		c-2.421,1.109-5.11,1.861-8.234,2.01c-6.517,0.311-11.696-2.027-15.292-5.098c-1.959-1.672-3.395-3.389-4.607-5.686
		c-1.186-2.244-2.161-4.744-2.402-7.842c-0.524-6.738,2.087-11.586,5.147-15.144c2.879-3.35,7.498-6.408,13.332-7.207
		c2.935-0.4,6.452-0.342,9.901-0.342c1.657,0,3.384,0.078,5.049,0c2.89-0.139,7.611-0.674,7.156,2.646
		c-0.134,0.975-0.809,1.643-1.324,2.354c-1.075,1.48-1.91,2.904-3.039,4.313c-0.571,0.713-1.092,1.418-1.764,1.863
		c-1.484,0.979-3.958,0.783-6.078,0.783c-2.212,0-4.47-0.166-6.813,0.049c-2.106,0.193-3.7,0.504-5.195,1.666
		c-1.362,1.061-2.335,2.203-3.039,3.775c-0.783,1.748-1.051,3.996-0.441,5.734c1.062,3.023,3.91,5.904,7.941,5.734
		c3.997-0.168,6.401-2.715,8.528-5.146c2.115-2.418,3.961-5.205,5.882-7.842c0.98-1.348,1.992-2.601,2.794-4.019
		c0.359-0.637,0.955-1.299,1.47-1.961c1.443-1.857,2.923-4.055,4.46-5.783c1.068-1.201,2.342-2.148,3.921-2.941
		C49.557,0.769,51.489,0.206,53.346,0.054z M32.564,2.749c-0.561,1.953,2.411,2.201,2.696,0.688
		C35.583,1.599,32.92,1.374,32.564,2.749z"/>
</g>
<g id="Layer_1">
</g>
</svg>
