<?xml version="1.0" encoding="iso-8859-1"?>
<!-- Generator: Adobe Illustrator 19.2.0, SVG Export Plug-In . SVG Version: 6.00 Build 0)  -->
<svg version="1.1" xmlns="http://www.w3.org/2000/svg" xmlns:xlink="http://www.w3.org/1999/xlink" x="0px" y="0px"
	 viewBox="0 0 106.058 104.792" style="enable-background:new 0 0 106.058 104.792;" xml:space="preserve">
<g id="Clearwater_x5F_Inc">
	<path style="fill-rule:evenodd;clip-rule:evenodd;" d="M49.983,0.07c8.333-0.396,16.519,0.906,22.892,3.596
		c3.19,1.347,6.417,2.443,8.989,4.195c12.77,8.695,22.793,21.562,24.09,41.828c1.048,16.369-5.917,29.551-13.903,38.112
		c-8.468,9.079-19.792,15.988-35.835,16.899c-16.579,0.942-30.027-5.568-38.832-13.543C8.205,82.844,1.181,71.445,0.124,55.681
		c-1.141-17.015,5.745-30.183,13.663-38.832C20.014,10.047,28.074,5.1,38.477,1.988C42.026,0.926,45.979,0.261,49.983,0.07z
		 M56.335,14.932c1.016-3.768-4.355-5.706-5.993-2.637c-1.215,2.277,0.564,4.198,2.397,5.033c-0.233,2.959,0.665,6.786-0.24,9.708
		c-2.293-1.382-3.719-3.632-5.633-5.394c2.14-3.534-0.629-7.093-4.195-6.352c-3.881,0.807-3.76,7.79,0.959,7.79
		c0.925,0,1.172-0.785,2.397-0.599c0.838,0.127,1.934,1.983,2.756,2.756c1.125,1.059,2.162,1.637,2.637,2.997
		c-2.624,0.563-6.494,0.105-9.588,0.239c-0.25-3.945-7.505-3.638-6.472,1.198c0.637,2.98,5.78,2.735,6.472-0.239
		c2.656,0.321,6.7-0.392,9.588,0.359c-0.497,1.344-1.578,1.88-2.756,2.877c-0.849,0.717-1.964,2.548-3.116,2.637
		c-1.114,0.085-1.255-0.535-2.157-0.48c-4.205,0.259-3.53,6.954,0.839,6.352c1.044-0.144,2.509-1.394,2.637-2.876
		c0.038-0.438-0.506-1.162-0.359-1.918c0.185-0.952,2.148-2.03,2.996-2.876c1.131-1.129,1.698-2.284,3.116-2.518
		c0.485,2.219-0.084,5.404,0.12,8.39c-3.36,0.742-3.324,6.067,0.12,6.473c4.127,0.484,4.978-5.772,0.839-6.473
		c0.199-3.132-0.351-6.456,0.479-8.509c1.371,0.586,1.857,1.846,2.996,2.996c0.763,0.77,2.77,2.029,2.997,2.996
		c0.086,0.368-0.252,0.957-0.24,1.318c0.056,1.736,1.71,3.117,3.595,2.757c3.744-0.716,1.967-7.884-2.517-5.154
		c-2.171-1.743-4.224-3.605-5.753-5.992c1.728-0.387,5.563-0.062,7.551,0c1.112,3.687,7.184,3.49,7.67-0.479
		c0.677-5.524-7.496-5.89-7.91-0.6c-2.089-0.088-5.411,0.289-7.191-0.479c0.648-1.327,1.82-2.085,3.116-3.357
		c0.885-0.868,2.665-2.811,3.596-2.996c0.745-0.147,1.308,0.291,1.917,0.12c0.715-0.201,1.499-0.913,1.678-1.679
		c1.182-5.045-7.256-3.534-4.555,0.84c-1.09,1.035-2.339,2.022-3.476,3.115c-1.083,1.043-2.14,2.448-3.596,2.757
		c-0.569-3.491-0.201-6.204-0.359-9.827C54.986,16.529,56.013,16.125,56.335,14.932z M20.259,84.805
		c7.278,6.881,17.715,12.705,31.521,12.704c14.056,0,24.886-4.363,32.839-11.386c7.864-6.943,13.57-16.237,14.981-29.363
		c-4.242,3.474-15.065,4.312-19.896,0c-0.992-0.886-1.379-1.898-2.397-2.637c-2.897,7.071-20.017,7.391-24.21,1.198
		c-2.246,3.993-8.736,4.847-14.862,4.195c-4.258-0.454-7.392-2.883-9.228-5.394c-2.202,3.817-8.093,6.069-13.663,5.394
		c-3.95-0.48-6.687-3.139-8.749-5.273c-0.027-0.094-0.1-0.14-0.24-0.12C7.396,68.17,12.206,77.192,20.259,84.805z"/>
	<path style="fill-rule:evenodd;clip-rule:evenodd;" d="M43.51,16.73c3.716-0.442,3.288,5.152,0,4.913
		C40.918,21.456,40.37,17.103,43.51,16.73z"/>
	<path style="fill-rule:evenodd;clip-rule:evenodd;" d="M66.282,26.318c2.97-0.436,3.687,3.664,1.438,4.674
		C64.413,32.478,62.735,26.837,66.282,26.318z"/>
	<path style="fill-rule:evenodd;clip-rule:evenodd;" d="M52.739,40.82c3.767-0.972,3.045,4.59-0.12,3.835
		C51.376,44.359,50.476,41.404,52.739,40.82z"/>
	<path style="fill-rule:evenodd;clip-rule:evenodd;" d="M66.522,75.097c2.064-1.61,3.164-4.187,5.153-5.872
		c0.061,5.58-0.203,9.443-0.12,15.101c-0.919-0.233-1.592-1.339-2.517-2.276c-0.56-0.569-1.872-2.466-2.517-2.518
		c-0.648-0.052-2.667,2.118-3.476,2.757c-4.138,3.267-10.896,6.32-18.458,4.914c-4.179-0.777-7.828-3.112-10.666-5.873
		c-0.668-0.649-2.489-2.198-2.517-2.996c-0.034-0.981,2.103-3.565,2.637-4.195c3.282-3.863,7.499-5.907,14.022-6.352
		C56.494,67.211,61.753,71.588,66.522,75.097z M38.716,79.052c3.243,0.132,2.683-4.866-0.719-3.715
		C36.09,75.983,36.437,78.959,38.716,79.052z"/>
</g>
<g id="Layer_1">
</g>
</svg>
