<?xml version="1.0" encoding="iso-8859-1"?>
<!-- Generator: Adobe Illustrator 19.2.0, SVG Export Plug-In . SVG Version: 6.00 Build 0)  -->
<svg version="1.1" xmlns="http://www.w3.org/2000/svg" xmlns:xlink="http://www.w3.org/1999/xlink" x="0px" y="0px"
	 viewBox="0 0 184.619 149.585" style="enable-background:new 0 0 184.619 149.585;" xml:space="preserve">
<g id="Clichy_x5F_Distugil">
	<path style="fill-rule:evenodd;clip-rule:evenodd;" d="M0.591,149.086c-0.606-0.078-0.455-0.224-0.503-0.552
		c-0.199-1.39,0-3.15,0-4.773c0.002-17.509-0.001-34.122,0-51.093c0.002-17.857,0.195-37.015,0.101-55.615
		c-0.052-10.306-0.05-20.829-0.05-31.902c0-0.748-0.036-1.589,0-2.361c0.038-0.815-0.092-1.73,0.05-2.31
		c0.138-0.561,0.607-0.398,1.056-0.452c0.589-0.072,1.27,0.021,1.909,0.05c1.913,0.09,3.94,0,5.878,0
		C32.418,0.076,56.986,0.33,80.773,0.328c5.308,0,10.672-0.119,16.077,0.051c8.125,0.254,16.234-0.271,23.462,0.804
		c2.398,0.357,4.728,0.684,6.832,1.256c4.312,1.171,8.446,2.278,12.158,4.069c1.869,0.902,3.763,1.644,5.526,2.612
		c8.765,4.809,16.158,10.609,22.407,18.137c4.845,5.835,9.135,12.452,12.208,20.246c0.38,0.965,0.643,2.025,1.005,3.064
		c2.386,6.862,4.169,15.104,4.17,24.216c0,9.699-1.461,17.29-3.869,24.567c-0.329,0.995-0.735,1.959-1.055,2.964
		c-1.252,3.943-3.215,7.607-5.225,11.002c-6.043,10.205-14.108,18.17-24.015,24.668c-3.235,2.123-6.874,3.941-10.65,5.576
		c-7.58,3.283-16.09,5.561-26.477,5.979c-2.566,0.103-5.258-0.001-7.938,0c-8.111,0.002-16.023-0.101-24.216-0.101
		C54.428,149.437,27.41,149.172,0.591,149.086z M32.845,120.852c2.494,0.118,5.13,0.022,7.736,0.051
		c15.412,0.163,31.416,0.203,47.074,0.2c1.759,0,3.528,0.098,5.275,0.051c6.984-0.187,14.003,0.459,20.548-0.402
		c3.103-0.407,5.984-1.069,8.592-2.01c5.214-1.879,9.821-4.313,13.715-7.485c1.964-1.6,3.707-3.382,5.426-5.225
		c3.405-3.651,6.22-7.883,8.29-12.911c2.077-5.048,3.565-10.748,3.566-17.685c0.001-6.908-1.336-12.686-3.466-17.734
		c-4.224-10.008-10.814-17.531-19.694-22.709c-4.541-2.648-9.678-4.373-15.725-5.525c-3.043-0.58-6.471-0.604-9.897-0.604
		c-24.779,0.002-48.901-0.233-73.551-0.251c-0.06,0.024-0.113,0.054-0.15,0.101c-0.269,0.388-0.151,0.897-0.151,1.306
		c0.001,3.376-0.123,6.523,0,9.797c0.143,3.804-0.05,7.66-0.05,11.505c-0.001,22.749-0.036,46.498,0.05,69.431
		C31.215,121.004,32.037,120.814,32.845,120.852z"/>
	<path style="fill-rule:evenodd;clip-rule:evenodd;" d="M32.342,74.883c0.567-0.527,1.322-0.817,2.01-1.155
		c4.929-2.421,10.101-4.559,15.021-7.033c5.564-2.799,11.237-5.469,16.981-8.189c5.667-2.685,11.272-5.406,17.081-8.139
		c5.75-2.705,11.127-6.067,18.89-6.482c4.721-0.251,8.891,0.629,12.41,1.959c7.011,2.653,12.078,6.898,15.825,12.861
		c1.824,2.906,3.343,6.455,4.069,10.25c0.842,4.397,0.76,8.994-0.15,13.012c-1.326,5.843-3.939,10.362-7.336,14.167
		c-3.277,3.671-7.781,6.765-13.012,8.44c-3.887,1.245-8.062,1.836-12.66,1.507c-2.137-0.152-4.146-0.616-6.029-1.155
		c-1.853-0.529-3.634-1.185-5.174-1.959c-3.217-1.617-6.522-3.052-9.747-4.622c-3.24-1.578-6.495-3.099-9.696-4.622
		c-3.227-1.536-6.412-3.202-9.645-4.723c-1.62-0.762-3.237-1.53-4.823-2.361c-1.58-0.828-3.245-1.501-4.822-2.311
		c-4.774-2.452-9.686-4.594-14.47-7.034c-0.788-0.401-1.606-0.778-2.411-1.155C33.873,75.773,33.005,75.474,32.342,74.883z"/>
</g>
<g id="Layer_1">
</g>
</svg>
