<?xml version="1.0" encoding="iso-8859-1"?>
<!-- Generator: Adobe Illustrator 19.2.0, SVG Export Plug-In . SVG Version: 6.00 Build 0)  -->
<svg version="1.1" xmlns="http://www.w3.org/2000/svg" xmlns:xlink="http://www.w3.org/1999/xlink" x="0px" y="0px"
	 viewBox="0 0 95.49 77.491" style="enable-background:new 0 0 95.49 77.491;" xml:space="preserve">
<g id="Cloud_x5F_Shield">
	<path style="fill-rule:evenodd;clip-rule:evenodd;" d="M47.736,0.001c15.15-0.083,26.197,6.405,34.27,14.499
		c3.881,3.891,7.309,8.817,9.706,14.619c0.843,2.039,2.169,5.481,2.876,9.107c1.106,5.668,2.217,13.956-3.355,14.858
		c-2.219,0.359-4.186-0.441-5.271-2.037c-1.477-2.168-1.006-5.938-1.439-8.748c-1.395-9.067-4.859-14.922-10.065-20.37
		C68.388,15.576,58.15,9.806,45.34,10.665c-11.19,0.75-19.585,6.225-25.044,12.342c-5.005,5.609-9.058,13.079-9.586,22.887
		c-0.073,1.363-0.011,2.942-0.48,4.074c-1.649,3.984-8.221,4.412-9.825-0.359c-0.926-2.751-0.066-7.172,0.599-10.545
		C3.127,28.3,7.769,21.2,13.466,14.859c3.764-4.189,8.708-7.829,14.14-10.305C33.345,1.937,39.236,0.048,47.736,0.001z"/>
	<path style="fill-rule:evenodd;clip-rule:evenodd;" d="M46.538,18.933c0.856-0.046,2.481-0.154,3.475,0.24
		c3.936,1.557,3.859,7.925,0.239,9.586c-2.29,1.051-3.816,0.429-6.231,0.958c-6.788,1.488-12.131,5.979-14.14,12.582
		C25.98,55.124,34.883,65.024,45.1,66.624c1.43,0.224,3.254,0.059,4.793,0.719c3.909,1.676,3.985,8.267-0.239,9.706
		c-4.289,1.46-11.203-1.059-14.019-2.277c-3.808-1.646-7.394-4.98-9.466-7.19c-5.426-5.785-9.095-15.142-7.07-25.403
		c1.3-6.589,4.809-12.01,9.347-15.937C33.077,22.234,38.705,19.352,46.538,18.933z M30.482,63.748
		C30.191,64.15,30.883,63.458,30.482,63.748L30.482,63.748z"/>
	<path style="fill-rule:evenodd;clip-rule:evenodd;" d="M47.496,37.266c6.557-0.308,11.817,5.534,10.665,12.342
		c-0.796,4.698-4.298,7.856-8.028,8.628c-8.18,1.693-14.383-5.744-12.462-13.181C38.75,40.876,42.093,37.52,47.496,37.266z"/>
</g>
<g id="Layer_1">
</g>
</svg>
