<?xml version="1.0" encoding="iso-8859-1"?>
<!-- Generator: Adobe Illustrator 19.2.0, SVG Export Plug-In . SVG Version: 6.00 Build 0)  -->
<svg version="1.1" xmlns="http://www.w3.org/2000/svg" xmlns:xlink="http://www.w3.org/1999/xlink" x="0px" y="0px"
	 viewBox="0 0 61.242 74.19" style="enable-background:new 0 0 61.242 74.19;" xml:space="preserve">
<g id="Club_x5F_Selector">
	<path style="fill-rule:evenodd;clip-rule:evenodd;" d="M28.587,9.339c3.77-5.236,8.854-8.922,17.387-9.318
		c3.403-0.158,6.354,0.606,8.79,1.537c1.853,0.708,3.34,1.596,4.947,2.689c0.481,0.328,1.239,0.7,1.393,1.153
		c0.16,0.472,0.044,1.319,0.048,2.018c0.01,1.876-0.06,4.134,0,6.052c0.204,6.517,0,12.896,0,20.077
		c0,1.325,0.223,3.069-0.048,4.035c-0.139,0.495-0.859,0.923-1.297,1.249c-3.294,2.447-7.566,4.309-13.112,4.419
		c-4.883,0.097-8.673-1.253-11.815-3.122c-1.033-0.614-1.872-1.434-2.786-2.209c-3.484-2.958-6.308-7.331-7.204-12.824
		C23.821,18.554,25.819,13.21,28.587,9.339z"/>
	<path style="fill-rule:evenodd;clip-rule:evenodd;" d="M0.057,68.321c-0.074-9.279,0-18.069,0-27.666c0-0.648,0.03-1.343,0-2.017
		c-0.029-0.651-0.111-1.397,0-1.921c0.095-0.446,0.821-0.862,1.249-1.201c3.129-2.474,7.292-4.412,12.536-4.659
		c7.235-0.341,11.952,2.38,15.802,5.668c1.273,1.087,2.466,2.378,3.314,3.842c0.312,0.539,0.511,1.132,0.816,1.681
		c1.979,3.554,3.418,8.736,2.402,14.361c-0.386,2.135-0.953,3.956-1.825,5.667c-0.273,0.537-0.667,1.015-0.913,1.585
		c-0.955,2.211-2.681,3.971-4.467,5.476c-1.764,1.486-3.937,2.677-6.388,3.602c-2.419,0.913-5.349,1.539-8.502,1.441
		c-3.119-0.097-5.744-0.87-8.069-1.873C3.751,71.331,1.69,70.075,0.057,68.321z"/>
</g>
<g id="Layer_1">
</g>
</svg>
