<?xml version="1.0" encoding="iso-8859-1"?>
<!-- Generator: Adobe Illustrator 19.2.0, SVG Export Plug-In . SVG Version: 6.00 Build 0)  -->
<svg version="1.1" xmlns="http://www.w3.org/2000/svg" xmlns:xlink="http://www.w3.org/1999/xlink" x="0px" y="0px"
	 viewBox="0 0 79.899 80.079" style="enable-background:new 0 0 79.899 80.079;" xml:space="preserve">
<g id="Cochrane_x5F_Photographic_x5F_Studio">
	<path style="fill-rule:evenodd;clip-rule:evenodd;" d="M16.256,0.175c0.2,14.426,0.101,29.453,0.05,44.01
		c-0.553,0.052-0.793-0.568-1.105-0.854c-2.447-2.24-4.747-4.848-7.134-7.234c-2.739-2.738-5.54-5.463-7.988-8.439
		c0.025-2.248-0.107-4.537,0-6.833c0.108-2.336-0.155-4.672-0.05-6.983c0.177-3.906,0.05-8.009,0.05-12.208
		c0-0.503-0.152-1.127,0.201-1.558C5.344,0.043,11.29-0.123,16.256,0.175z"/>
	<path style="fill-rule:evenodd;clip-rule:evenodd;" d="M46.751,0.225c-0.361,0.734-1.05,1.252-1.608,1.809
		c-1.664,1.664-3.242,3.512-5.024,5.125c-6.285,6.373-12.689,12.64-19.041,18.99c-0.406,0.406-0.758,0.98-1.356,1.155
		c-0.356-5.074,0.107-10.738-0.101-16.277c-0.103-2.75,0-5.445,0-8.289c0-0.871-0.119-1.783,0.151-2.612
		C28.419-0.002,38.125-0.02,46.751,0.225z"/>
	<path style="fill-rule:evenodd;clip-rule:evenodd;" d="M79.759,0.175c0.261,3.901,0.073,8.221,0.101,12.409
		c0.009,1.337,0.104,2.651-0.101,3.868c-14.707,0.183-29.669,0.151-43.909-0.05c0.054-0.542,0.565-0.816,0.904-1.155
		c0.993-0.993,2.026-2.067,3.064-3.066c1.396-1.342,2.664-2.771,4.069-4.069c1.417-1.307,2.808-2.656,4.17-4.02
		c1.355-1.354,2.646-2.784,4.17-3.968C61.534,0.13,70.653,0.03,79.759,0.175z"/>
	<path style="fill-rule:evenodd;clip-rule:evenodd;" d="M79.759,19.919c0.18,9.601,0.165,19.58,0,29.44
		c-0.446-0.084-0.761-0.511-1.055-0.804c-2.107-2.108-4.302-4.313-6.431-6.481c-6.879-6.875-13.84-13.788-20.749-20.698
		c-0.406-0.406-1.049-0.892-1.156-1.508C59.882,19.801,70.006,19.7,79.759,19.919z"/>
	<path style="fill-rule:evenodd;clip-rule:evenodd;" d="M79.759,79.904c-2.631,0.316-5.513,0.101-8.239,0.101
		c-1.992,0-3.894,0.05-6.079,0.051c-0.656,0-1.348,0.112-1.959-0.151c-0.276-12.64,0.11-25.29-0.151-37.528
		c-0.531-0.34-1.22-0.201-1.859-0.201c-4.58,0.001-9.739-0.037-14.117,0.05c-0.463,0.58-0.599,1.269-0.955,1.859
		c-0.96,1.596-2.704,3.16-4.773,3.668c-6.434,1.576-12.152-5-9.143-11.254c1.163-2.416,3.496-4.376,6.833-4.572
		c3.494-0.204,6.015,2.033,7.234,4.221c0.333,0.596,0.422,1.292,0.854,1.858c3.666,0.049,8.06,0.085,11.957,0.101
		c1.273,0.005,2.772-0.254,3.868,0c0.863,0.2,1.505,1.571,2.21,2.01c1.853,1.81,3.642,3.664,5.426,5.576
		c2.319,2.486,4.844,4.944,7.285,7.386c0.597,0.597,1.23,1.202,1.708,1.909C79.788,63.345,80,71.908,79.759,79.904z"/>
	<path style="fill-rule:evenodd;clip-rule:evenodd;" d="M27.108,60.663c-8.929,0.156-18.167,0.118-26.929,0
		c-0.244-1.051-0.137-2.157-0.15-3.266c-0.065-5.452,0.05-11.453,0.05-17.132c0-2.268-0.079-4.643,0.05-6.682
		c-0.002-0.086,0.037-0.13,0.1-0.15c0.043-0.01,0.048,0.02,0.05,0.05c1.188,1.069,2.282,2.231,3.417,3.366
		c7.279,7.278,14.538,14.783,21.955,22.005c0.277,0.27,0.52,0.63,0.804,0.904C26.707,60.003,27.177,60.226,27.108,60.663z"/>
	<path style="fill-rule:evenodd;clip-rule:evenodd;" d="M59.412,50.615c0.44-0.186,0.301,1.168,0.301,1.607
		c0,8.077,0,16.098,0,24.165c0,1.229,0.122,2.442-0.151,3.567c-9.603,0.199-19.874,0.068-29.239-0.051
		c0.021-0.498,0.504-0.755,0.804-1.055c2.066-2.066,4.229-4.219,6.28-6.38C44.789,65.231,51.999,57.823,59.412,50.615z"/>
	<path style="fill-rule:evenodd;clip-rule:evenodd;" d="M41.526,63.627c-0.058,0.497-0.536,0.807-0.854,1.105
		c-3.912,3.669-7.498,7.391-11.455,11.203c-0.983,0.948-2.008,2.026-3.115,3.064c-0.384,0.36-0.767,0.808-1.106,0.904
		c-0.792,0.227-2.044,0.051-3.115,0.051c-7.215,0.003-14.785,0.073-21.704-0.101c-0.286-1.1-0.147-2.746-0.1-4.12
		c0.088-2.556-0.161-5.578-0.05-8.339c0.021-0.533,0.05-1.325,0.05-2.11c0-1.012-0.209-1.721,0.553-1.809c0.775-0.09,1.68,0,2.512,0
		C15.901,63.477,28.991,63.485,41.526,63.627z"/>
</g>
<g id="Layer_1">
</g>
</svg>
