<?xml version="1.0" encoding="iso-8859-1"?>
<!-- Generator: Adobe Illustrator 19.2.0, SVG Export Plug-In . SVG Version: 6.00 Build 0)  -->
<svg version="1.1" xmlns="http://www.w3.org/2000/svg" xmlns:xlink="http://www.w3.org/1999/xlink" x="0px" y="0px"
	 viewBox="0 0 77.212 71.715" style="enable-background:new 0 0 77.212 71.715;" xml:space="preserve">
<g id="Color_x5F_Research_x5F_Center_x5F_JP">
	<path style="fill-rule:evenodd;clip-rule:evenodd;" d="M12.488,24.916c0.622,0.291,1.055-0.38,1.429-0.663
		c2.972-2.245,6.331-4.355,10.408-5.611c4.673-1.441,10.306-2.07,16.071-1.072c4.946,0.857,9.238,2.863,12.754,5.511
		c1.593,1.199,3.252,3.008,4.286,4.847c1.076,1.912,2.039,4.398,2.143,6.989c0.235,5.878-2.202,10.013-5.306,12.959
		c-1.581,1.5-3.526,2.424-5.561,3.571c-3.941,2.224-8.82,3.521-14.745,3.521c-5.86-0.001-10.698-1.52-14.744-3.521
		c-1.576-0.779-2.932-1.594-4.336-2.551c-0.431-0.293-0.913-0.742-1.48-0.663c-0.379,0.82,0.425,1.508,0.816,2.092
		c2.918,4.357,7.334,7.87,12.551,9.847c3.148,1.191,7.168,1.929,11.02,1.683c3.9-0.248,7.176-1.189,10.153-2.652
		c4.271-2.1,7.74-5.162,10.204-9.03c0.822-1.29,1.486-2.678,2.347-4.03c2.803-4.407,7.317-7.689,13.622-8.775
		c1.07-0.185,2.258-0.363,2.704,0.051c0.403,0.375,0.266,1.192,0.306,1.938c0.121,2.253,0.1,4.896,0,6.888
		c-0.306,0.938-2,0.896-2.959,1.174c-2.422,0.702-4.281,2.254-5.561,4.234c-0.444,0.688-0.73,1.443-1.123,2.143
		c-1.154,2.059-2.57,3.851-4.133,5.663c-3.725,4.129-7.934,7.214-13.315,9.541c-2.62,1.132-5.654,2.006-9.03,2.397
		c-3.322,0.385-7.002,0.503-10.561-0.102c-4.848-0.825-9.037-2.362-12.602-4.541c-1.191-0.728-2.351-1.503-3.418-2.296
		c-2.235-1.66-4.113-3.463-5.918-5.51c-1.78-2.019-3.171-4.409-4.49-6.888c-1.355-2.545-2.262-5.239-3.062-8.367
		c-0.796-3.117-1.134-6.713-0.867-10.459c0.487-6.825,2.649-12.487,5.663-17.143c0.784-1.21,1.489-2.33,2.347-3.367
		c2.522-3.046,5.715-5.67,9.285-7.806c2.476-1.48,5.088-2.512,7.959-3.47c2.165-0.721,4.623-1.103,7.245-1.326
		c4.827-0.409,9.826,0.259,13.622,1.378c5.207,1.535,9.478,4.037,13.265,7.193c2.933,2.445,5.456,5.326,7.55,8.826
		c1.837,3.069,3.958,5.407,8.061,6.225c0.849,0.169,1.452,0.124,1.786,0.715c0.246,0.434,0.153,1.454,0.153,2.244
		c0,0.87-0.012,1.624,0,2.397c0.02,1.299,0.363,3.806-0.306,4.388c-0.483,0.421-1.89,0.231-2.857,0.103
		c-2.859-0.382-5.319-1.368-7.194-2.5c-2.856-1.724-4.98-3.637-6.734-6.225c-0.875-1.289-1.637-2.684-2.551-3.929
		c-1.897-2.582-3.976-4.464-6.633-6.326c-4.873-3.415-12.481-5.991-20.509-4.081c-7.82,1.86-13.325,6.013-16.939,12.193
		C12.929,23.363,12.306,24.066,12.488,24.916z M49.578,37.467c0.599-2.411-0.305-4.665-1.429-5.969
		c-0.694-0.807-1.805-1.607-2.857-2.194c-1.062-0.592-2.356-1.03-3.622-1.429c-2.719-0.853-5.659-1.347-8.928-1.173
		c-2.331,0.124-5.286,0.844-7.398,1.888c-2.63,1.301-5.779,3.167-6.836,5.867c-1.225,3.129,0.771,5.57,2.449,7.04
		c0.884,0.775,2.053,1.374,3.163,1.939c1.167,0.594,2.47,0.878,3.827,1.275c1.445,0.424,2.872,0.698,4.336,0.765
		c6.716,0.311,12.107-1.497,15.612-4.795C48.557,39.571,49.267,38.719,49.578,37.467z"/>
</g>
<g id="Layer_1">
</g>
</svg>
