<?xml version="1.0" encoding="iso-8859-1"?>
<!-- Generator: Adobe Illustrator 21.0.2, SVG Export Plug-In . SVG Version: 6.00 Build 0)  -->
<svg version="1.1" xmlns="http://www.w3.org/2000/svg" xmlns:xlink="http://www.w3.org/1999/xlink" x="0px" y="0px"
	 viewBox="0 0 13.71 12.5" style="enable-background:new 0 0 13.71 12.5;" xml:space="preserve">
<g id="Comercial_x5F_Mexicana">
	<path d="M0,0.001c2.752-0.001,5.504,0,8.256,0c1.178,0.003,2.353,0.389,3.294,1.1c0.214,0.136,0.374,0.334,0.573,0.487
		c0.213,0.243,0.443,0.472,0.621,0.744c0.578,0.81,0.913,1.787,0.966,2.78c-0.001,0.758,0,1.516,0,2.274
		c-0.05,1.068-0.435,2.117-1.087,2.965c-0.891,1.181-2.285,1.969-3.756,2.123c-0.174,0.028-0.352,0.035-0.527,0.02
		c-0.241-0.104-0.529-0.195-0.666-0.437c-0.083-0.158-0.014-0.336-0.024-0.503c-0.011-0.313,0.035-0.624,0.042-0.937
		c0.523-0.111,1.035-0.306,1.47-0.621c0.301-0.225,0.576-0.485,0.811-0.779c0.296-0.301,0.559-0.632,0.811-0.97
		c0.238-0.318,0.423-0.669,0.613-1.016c-0.52,0.012-1.041-0.013-1.56,0.035c0.178-0.379,0.379-0.746,0.553-1.127
		C9.74,6.136,9.093,6.138,8.447,6.098C7.836,6.097,7.224,6.101,6.614,6.068C6.207,6.045,5.797,6.205,5.501,6.484
		c-0.548,0.52-0.671,1.43-0.272,2.073c0.183,0.273,0.477,0.45,0.792,0.531C6.255,9.157,6.5,9.177,6.742,9.203
		c0.628-0.044,1.186-0.378,1.69-0.732c0.216-0.15,0.428-0.307,0.635-0.47c0.072-0.051,0.172-0.105,0.259-0.058
		C9.366,7.994,9.36,8.066,9.35,8.127C9.22,8.28,9.054,8.393,8.899,8.519C8.443,8.886,7.948,9.23,7.375,9.382
		C6.847,9.525,6.276,9.491,5.762,9.311c-0.467-0.158-0.841-0.544-1-1.008c-0.106-0.318-0.19-0.665-0.103-0.997
		c0.115-0.559,0.52-1.007,0.955-1.351c0.301-0.25,0.637-0.451,0.96-0.669c0.558-0.38,1.073-0.818,1.597-1.243
		c0.167-0.148,0.36-0.267,0.514-0.431c0.119-0.126,0.143-0.306,0.176-0.469C8.94,2.74,9.049,2.314,9.356,2.02
		C9.233,1.953,9.141,1.844,9.022,1.772C8.595,1.493,8.09,1.293,7.573,1.326C7.309,1.355,7.021,1.477,6.915,1.739
		C5.24,2.098,3.562,2.44,1.887,2.795C1.718,2.832,1.539,2.85,1.389,2.941c-0.205,0.123-0.371,0.338-0.37,0.586
		c1.974-0.396,3.944-0.812,5.916-1.214c0.198-0.022,0.391,0.085,0.52,0.23c0.244,0.234,0.226,0.718-0.078,0.894
		C7.15,3.6,6.951,3.796,6.742,3.977c-0.371,0.315-0.796,0.555-1.225,0.78c-0.353,0.174-0.678,0.399-0.98,0.649
		C4.356,5.579,4.181,5.759,4.005,5.937c-0.348,0.415-0.63,0.906-0.707,1.448C3.224,7.918,3.37,8.468,3.65,8.924
		c0.308,0.527,0.802,0.92,1.337,1.2c0.456,0.24,0.95,0.394,1.45,0.512c0.028,0.441,0.049,0.884,0.037,1.326
		c-0.078,0.307-0.404,0.455-0.684,0.531c-0.239,0.007-0.478,0.003-0.717,0.003c-1.267-0.082-2.502-0.623-3.416-1.505
		C0.688,10.079,0.074,8.792,0,7.461C0,4.974,0,2.487,0,0.001z M6.909,2.553C6.845,2.57,6.793,2.609,6.749,2.657
		C6.611,2.766,6.632,2.989,6.737,3.114c0.095,0.095,0.24,0.136,0.37,0.098c0.129-0.058,0.248-0.184,0.241-0.334
		C7.351,2.666,7.111,2.482,6.909,2.553z M1.126,3.757C1.2,3.808,1.279,3.856,1.333,3.931C1.459,4.1,1.461,4.321,1.556,4.506
		c0.342,0.676,1.083,1.164,1.852,1.115c0.385-0.02,0.747-0.209,1.012-0.483c0.661-0.82,1.343-1.624,1.992-2.453
		C4.652,3.052,2.887,3.395,1.126,3.757z"/>
</g>
<g id="Layer_1">
</g>
</svg>
