<?xml version="1.0" encoding="iso-8859-1"?>
<!-- Generator: Adobe Illustrator 19.2.0, SVG Export Plug-In . SVG Version: 6.00 Build 0)  -->
<svg version="1.1" xmlns="http://www.w3.org/2000/svg" xmlns:xlink="http://www.w3.org/1999/xlink" x="0px" y="0px"
	 viewBox="0 0 87.576 63.89" style="enable-background:new 0 0 87.576 63.89;" xml:space="preserve">
<g id="Comediens_x5F_Associes_x5F_du_x5F_Quebec">
	<path style="fill-rule:evenodd;clip-rule:evenodd;" d="M67.399,59.85c-3.023,2.104-6.719,3.696-11.608,3.903
		c-1.606,0.068-3.328-0.06-5.17,0c-3.259,0.106-6.737,0.05-10.189,0.051c-3.466,0.001-7.008,0.192-10.341,0
		c-2.946-0.171-5.69-1.2-7.856-2.483c-4.478-2.654-7.497-6.109-9.227-11.456c-0.432-1.336-0.762-2.749-0.861-4.31
		c-0.101-1.565,0.086-3.209-0.152-4.917c-0.35-0.87-2.483-0.659-3.498-0.659c-3.241,0-5.077-1.127-6.64-2.889
		c-1.018-1.148-1.695-2.65-1.825-4.562c-0.119-1.745,0.11-3.894,0.608-5.627c1.821-6.341,6.048-11.047,11.912-13.483
		c0.906-0.635,1.423-1.997,1.927-2.991c1.301-2.568,3.145-4.463,5.322-6.184c2.853-2.255,6.273-3.867,11.203-4.157
		c2.199-0.13,4.453,0.16,6.792,0.051c2.205-0.103,4.512-0.051,6.742-0.051c4.657-0.001,9.524-0.271,13.839,0.152
		c4.212,0.412,7.363,2.217,9.834,4.207c1.338,1.078,2.294,2.306,3.346,3.65c0.496,0.634,1.005,1.335,1.419,2.078
		c0.547,0.981,0.9,2.322,1.876,2.99c0.686,0.47,1.472,0.705,2.129,1.064c1.999,1.094,3.91,2.45,5.373,4.156
		c2.783,3.246,5.282,7.6,5.222,13.687c-0.039,3.838-2.479,6.231-5.475,7.198c-0.783,0.252-1.863,0.361-2.788,0.405
		c-1.26,0.06-3.108-0.271-3.65,0.811c-0.364,0.728-0.156,2.328-0.202,3.296c-0.164,3.466-0.678,6.071-1.825,8.516
		c-0.771,1.644-1.752,2.977-2.737,4.157C69.855,57.702,68.985,58.827,67.399,59.85z M59.289,8.551
		c-2.418-0.821-6.212-0.456-9.276-0.456c-3.275-0.001-6.575-0.07-9.581,0c-0.062,0.001-0.074,0.043-0.151,0.05
		C36.583,8.48,32.371,7.72,29.128,8.348c-2.016,0.39-3.645,1.465-4.968,2.585c-2.059,1.743-3.732,3.948-4.207,7.198
		c-0.087,0.591-0.021,1.159-0.254,1.724c-0.495,0.266-1.105,0.17-1.622,0.253c-2.951,0.478-5.445,2.009-7.147,3.903
		c-1.729,1.924-3.194,4.606-2.94,7.959c3.227,0.247,6.545,0.041,9.632,0.051c1.615,0.005,3.142-0.064,4.562,0.151
		c4.176,0.638,7.292,2.497,9.732,4.969c0.736,0.745,1.59,1.629,2.231,2.687c0.836,1.381,1.659,2.676,1.571,4.714
		c-0.543,1.97-1.984,3.615-4.512,3.295c-2.649-0.335-3.141-3.276-4.612-4.917c-0.747-0.832-1.772-1.567-2.737-2.027
		c-1.042-0.497-2.393-0.919-3.802-0.761c-0.279,0.622-0.135,1.298-0.152,1.927c-0.058,2.089,0.014,3.925,0.558,5.576
		c0.702,2.132,1.872,3.792,3.295,5.068c1.429,1.281,3.17,2.48,5.475,2.89c2.25,0.399,5.322,0.203,8.161,0.203
		c5.181,0,11.018-0.051,16.322-0.051c1.479,0,2.801,0.07,4.005-0.152c3.421-0.634,6.028-2.528,7.705-4.866
		c0.641-0.78,1.371-1.736,1.419-2.94c-0.89-0.303-1.805-0.377-2.687-0.558c-2.73-0.559-4.891-1.676-6.792-2.99
		c-1.077-0.875-2.262-1.971-3.245-3.295c-0.938-1.267-1.99-2.633-2.28-4.259c-0.667-3.736,3.479-6.15,6.234-3.903
		c1.417,1.156,1.904,3.276,3.549,4.613c1.554,1.264,3.299,2.133,5.88,2.18c0.486-1.194,0.507-2.394,1.014-3.396
		c0.198-0.391,0.523-0.877,0.812-1.267c1.564-2.116,3.862-3.194,7.451-3.194c0.884,0.001,1.854,0.117,2.737-0.151
		c0.199-1.815-0.389-3.423-1.014-4.766c-1.612-3.461-4.374-5.603-8.263-6.691c-0.79-0.221-1.677-0.111-2.534-0.456
		C67.137,13.698,64.259,10.238,59.289,8.551z"/>
	<path style="fill-rule:evenodd;clip-rule:evenodd;" d="M55.233,15.394c2.772-0.296,5.202,1.913,4.918,4.968
		c-0.241,2.592-2.54,4.256-4.715,4.207c-2.255-0.05-4.027-1.798-4.258-3.853c-0.179-1.592,0.396-3.117,1.217-3.954
		C53.034,16.112,54.004,15.526,55.233,15.394z"/>
	<path style="fill-rule:evenodd;clip-rule:evenodd;" d="M31.004,15.445c3.68-0.57,6.29,3.088,5.018,6.336
		c-0.524,1.34-1.813,2.404-3.041,2.737c-1.91,0.519-3.937-0.356-4.815-1.673c-0.984-1.473-1.065-3.965-0.051-5.575
		C28.707,16.328,29.7,15.776,31.004,15.445z"/>
</g>
<g id="Layer_1">
</g>
</svg>
