<?xml version="1.0" encoding="iso-8859-1"?>
<!-- Generator: Adobe Illustrator 19.2.0, SVG Export Plug-In . SVG Version: 6.00 Build 0)  -->
<svg version="1.1" xmlns="http://www.w3.org/2000/svg" xmlns:xlink="http://www.w3.org/1999/xlink" x="0px" y="0px"
	 viewBox="0 0 90.638 180.156" style="enable-background:new 0 0 90.638 180.156;" xml:space="preserve">
<g id="Comforto">
	<path style="fill-rule:evenodd;clip-rule:evenodd;" d="M89.902,0.028c0.241,3.734,0.142,8.361,0.097,12.248
		c0.013,0.076-0.046,0.082-0.048,0.142c-9.357,0.377-17.632,1.711-24.832,4.322c-4.737,1.719-9.29,3.625-13.353,6.102
		c-12.104,7.377-21.918,16.81-29.059,29.201c-3.545,6.152-6.298,13.01-8.214,20.895c-1.278,5.264-2.018,11.117-2.017,17.387
		c0.001,12.547,2.849,23.033,6.916,31.939c4.076,8.928,9.521,16.438,15.946,22.863c3.206,3.207,6.79,6.197,10.663,8.789
		c3.891,2.605,7.941,5.051,12.392,7.014c8.975,3.955,19.422,6.695,31.988,6.82c0.078-0.014,0.083,0.045,0.145,0.047
		c0.061,3.822,0.218,8.367,0,12.297c-0.039,0.008-0.048,0.049-0.097,0.047c-7.294,0.139-13.993-0.711-20.124-2.064
		c-9.187-2.027-17.004-5.344-24.208-9.365c-2.396-1.338-4.741-2.742-6.916-4.275c-8.844-6.234-16.468-13.295-22.671-22.094
		c-0.741-1.053-1.485-2.209-2.257-3.363c-1.533-2.287-2.756-4.594-4.083-7.107c-5.147-9.746-8.873-21.084-9.942-34.822
		c-0.693-8.906,0.267-18.17,1.825-25.648C3.351,65.18,5.247,59.594,7.53,54.494c2.332-5.211,4.861-10.072,7.877-14.506
		c6.067-8.924,13.339-16.399,21.998-22.768C45.96,10.928,55.891,5.858,67.76,2.813c2.984-0.766,6.084-1.418,9.317-1.873
		c1.657-0.232,3.323-0.391,5.044-0.576C84.616,0.094,87.195-0.068,89.902,0.028z"/>
	<path style="fill-rule:evenodd;clip-rule:evenodd;" d="M89.999,30.381c-14.487,0.547-25.218,4.734-34.054,10.904
		c-2.945,2.057-5.459,4.432-8.069,6.867c-2.498,2.332-4.794,5.311-6.772,8.215C35.156,65.1,30.345,75.998,30.344,90.469
		c-0.001,9.674,2.241,17.754,5.331,24.639c3.111,6.932,7.463,12.602,12.392,17.531c2.516,2.516,5.153,4.867,8.118,6.869
		c8.885,5.998,19.6,10.344,34.245,10.615c0.132,3.848,0.245,8.291,0.049,12.248c-5.893,0.219-11.314-0.531-16.283-1.635
		c-4.91-1.09-9.446-2.68-13.593-4.467c-2.104-0.906-4.132-1.885-6.052-2.977c-1.908-1.086-3.686-2.322-5.475-3.555
		c-10.712-7.375-18.993-16.928-24.832-29.348c-3.739-7.951-6.531-18.035-6.532-29.586c-0.002-11.789,2.58-21.49,6.34-29.828
		c2.831-6.277,6.216-11.803,10.375-16.713c4.082-4.822,8.734-9.355,14.072-13.017c1.799-1.233,3.531-2.51,5.428-3.602
		c5.67-3.27,12.013-6.074,19.309-7.781c2.425-0.568,4.919-1.16,7.541-1.488c2.846-0.357,6.015-0.59,9.029-0.576
		c0.44,0.254,0.288,0.893,0.288,1.344c0,2.621,0,5.477,0,8.166C90.094,28.391,90.274,29.459,89.999,30.381z"/>
	<path style="fill-rule:evenodd;clip-rule:evenodd;" d="M90.094,48.01c-1.68,0.232-3.292,0.252-4.851,0.432
		c-4.691,0.541-8.704,1.857-12.345,3.506c-4.834,2.191-8.982,5.045-12.535,8.598c-3.407,3.406-6.551,7.568-8.694,12.439
		c-0.271,0.617-0.359,1.344-0.624,2.018c-1.699,4.334-2.976,9.438-2.979,15.467c0,6.855,1.672,12.4,3.699,17.436
		c1.461,3.629,3.749,6.93,6.148,9.701c5.677,6.561,13.038,11.59,23.102,13.832c1.467,0.328,2.946,0.561,4.516,0.77
		c1.569,0.209,3.164,0.193,4.851,0.385c0.159,3.893,0.145,8.467,0.048,12.295c-8.838,0.23-16.327-1.816-22.526-4.611
		c-6.273-2.828-11.774-6.428-16.234-11.047c-3.369-3.416-6.418-7.225-8.934-11.574c-2.489-4.307-4.642-9.135-5.859-14.602
		c-0.624-2.803-1.167-5.875-1.345-8.887c-0.603-10.195,1.522-18.92,4.61-25.889c2.631-5.938,6.095-11.023,10.231-15.418
		c0.831-0.883,1.614-1.777,2.497-2.592c5.279-4.873,11.601-8.844,19.116-11.576c4.999-1.818,10.886-3.061,17.339-3.123
		c0.139,0,0.239-0.074,0.48,0c0.555,0.174,0.324,2.029,0.336,2.834C90.19,41.53,90.168,45.487,90.094,48.01z"/>
	<path style="fill-rule:evenodd;clip-rule:evenodd;" d="M90.046,53.725c0.021,0.043,0.042,0.086,0.096,0.096
		c0.028,3.992,0.229,8.32,0,12.248c-1.884,0.244-3.675,0.357-5.331,0.77c-4.76,1.182-8.761,3.404-11.72,6.482
		c-3.861,4.02-7.109,9.439-7.108,17.148c0.001,7.568,3.277,13.219,7.156,17.098c4.09,4.09,9.479,6.736,17.147,7.109
		c0.262,3.734,0.182,8.387,0.048,12.248c-5.869,0.213-10.872-1.24-15.13-3.074c-4.186-1.803-7.936-4.414-10.902-7.445
		c-2.985-3.049-5.631-6.551-7.589-10.807c-1.938-4.209-3.266-9.225-3.267-15.082c-0.001-5.934,1.353-10.826,3.267-15.129
		c1.895-4.26,4.479-7.844,7.492-10.855C70.256,58.485,78.387,54.014,90.046,53.725z"/>
</g>
<g id="Layer_1">
</g>
</svg>
