<?xml version="1.0" encoding="iso-8859-1"?>
<!-- Generator: Adobe Illustrator 19.2.0, SVG Export Plug-In . SVG Version: 6.00 Build 0)  -->
<svg version="1.1" xmlns="http://www.w3.org/2000/svg" xmlns:xlink="http://www.w3.org/1999/xlink" x="0px" y="0px"
	 viewBox="0 0 64.932 63.657" style="enable-background:new 0 0 64.932 63.657;" xml:space="preserve">
<g id="Comitato_x5F_per_x5F_la_x5F_Seta_x5F_Italiana">
	<path style="fill-rule:evenodd;clip-rule:evenodd;" d="M64.494,29.315c-0.859,0.292-1.973,0.125-2.995,0.097
		c-1.036-0.029-2.087,0.043-2.995,0.145c0.105,0.898,1.032,1.381,1.401,2.174c1.211,1.487,2.42,2.974,3.624,4.638
		c0.371,0.513,1.01,1.058,1.159,1.594c0.158,0.569,0.048,1.496,0.048,2.319c0,2.2,0.097,4.762,0.097,6.86
		c0,1.521-0.07,3.062,0,4.541c0.072,1.52,0.156,3.081,0.048,4.589c-0.152,2.125-1.249,3.917-2.367,5.024
		c-1.881,1.862-5.289,2.99-8.503,1.884c-2.648-0.912-4.456-3.095-5.362-5.846c-0.373,0.213-0.405,0.691-0.531,1.015
		c-0.949,2.44-2.947,4.412-5.749,5.072c-1.791,0.422-3.781,0.278-5.266-0.435c-2.373-1.139-3.691-2.892-4.589-5.459
		c-0.442,0.249-0.468,0.787-0.628,1.159c-1.115,2.601-3.747,4.856-7.439,4.928c-3.299,0.064-5.608-1.639-7.005-3.623
		c-0.187-0.267-0.473-0.661-0.676-1.111c-0.211-0.469-0.311-1.094-0.628-1.111c-0.374-0.02-0.581,0.807-0.725,1.111
		c-0.246,0.52-0.413,0.914-0.628,1.16c-1.703,2.419-5.029,4.235-8.889,3.236c-2.857-0.739-5.499-3.476-5.797-6.859
		c-0.083-0.949-0.093-2.168-0.097-3.092c-0.016-4.101,0.073-8.348,0.097-12.706c0.008-1.389-0.223-2.804,0.097-4.154
		c1.616-0.413,4.184,0.125,5.797-0.29c-0.29-0.827-0.943-1.46-1.449-2.125c-1.511-1.988-3.002-4.019-4.493-6.087
		c-0.057-4.493,0.097-9.094,0.097-13.671c0-2.372-0.082-4.823,0.097-6.908c0.18-2.1,1.125-3.553,2.174-4.783
		c0.572-0.388,1.027-0.962,1.691-1.352c2.773-1.631,7.579-1.168,9.42,0.966c1.328,0.862,1.899,2.481,2.609,3.961
		c0.554-0.76,0.697-1.72,1.207-2.464c0.506-0.736,1.155-1.309,1.836-1.836c1.354-1.087,3.21-1.956,5.556-1.788
		c4.082,0.293,6.361,2.995,7.536,6.136c0.422-0.295,0.484-0.866,0.676-1.305c0.199-0.456,0.332-0.994,0.58-1.401
		c0.607-0.996,1.762-1.821,2.85-2.367c1.197-0.601,2.747-1.103,4.155-1.015c3.408,0.217,5.782,2.071,7.053,4.638
		c0.218,0.441,0.287,0.968,0.676,1.401c0.456-0.691,0.625-1.487,1.062-2.223c1.106-1.856,3.459-3.661,6.135-3.913
		c3.121-0.293,5.668,1.074,7.053,2.657c0.768,0.878,1.312,2.002,1.643,3.188c0.371,1.327,0.338,2.825,0.338,4.493
		c0,4.681,0.097,9.662,0.097,14.396C64.591,26.409,64.72,27.962,64.494,29.315z M25.75,9.122c0.015-0.576,0.117-1.252-0.096-1.739
		c-0.562-1.285-2.44-1.144-2.947,0.048c-0.379,0.892-0.172,2.996-0.145,4.348c0.075,3.803,0.048,7.33,0.048,11.208
		c0,0.794-0.108,1.658,0.048,2.222c0.088,0.318,0.414,0.676,0.677,1.014c0.525,0.675,0.939,1.323,1.449,1.933
		c0.268,0.32,0.557,0.764,0.917,0.725C26.045,22.79,25.597,15.04,25.75,9.122z M58.069,26.368c0-5.429-0.145-11.002-0.145-16.328
		c0-0.849,0.145-2.058-0.097-2.657c-0.217-0.539-0.917-1.065-1.69-0.966c-1.439,0.185-1.353,1.587-1.353,3.285
		c0,3.837,0.048,7.157,0.048,10.966c0,1.503-0.242,3.283,0.048,4.396c0.1,0.382,0.413,0.66,0.676,1.015
		c0.533,0.719,0.999,1.334,1.498,1.98c0.257,0.332,0.506,0.796,0.918,0.821C58.178,28.1,58.069,27.219,58.069,26.368z M9.664,24.436
		c0-4.672,0.048-10.032,0.048-14.396c0-1.694-0.032-3.771-1.884-3.527c-1.863,0.246-1.352,3.215-1.352,5.459
		c0,3.833-0.02,7.484,0,11.159c0.004,0.812-0.109,1.653,0.048,2.222c0.16,0.582,1.005,1.478,1.353,1.933
		c0.518,0.677,1.002,1.432,1.594,1.739C9.808,27.622,9.664,26.037,9.664,24.436z M41.789,22.117
		c0.014-3.517,0.053-7.322-0.048-10.966c-0.029-1.059,0.237-2.724-0.097-3.575c-0.222-0.567-1.136-1.239-1.884-0.966
		c-1.197,0.391-1.111,1.504-1.111,3.092c0,5.312,0.003,10.688,0,15.314c0.551,1.178,1.383,2.162,2.125,3.091
		c0.253,0.316,0.479,0.767,0.919,0.87C41.985,27.072,41.78,24.44,41.789,22.117z M53.238,34.146
		c-0.511-0.63-1.024-1.257-1.498-1.933c-1.109-1.182-1.924-2.647-3.092-3.72c-0.002-0.029-0.007-0.057-0.048-0.048
		c-0.057,0.024-0.109,0.052-0.145,0.097c-0.13,0.321-0.045,0.857-0.387,0.966c-1.808,0.134-4.145-0.143-5.845,0.193
		c-0.004,0.449,0.386,0.738,0.628,1.063c1.463,1.97,2.954,3.982,4.493,5.797c0.256,0.302,0.489,0.733,0.918,0.821
		c0.25-0.136,0.064-0.708,0.242-0.917c1.714-0.415,4.404,0.241,6.086-0.29C54.292,35.385,53.734,34.757,53.238,34.146z
		 M20.872,34.194c-0.496-0.616-0.931-1.284-1.449-1.836c-0.925-1.281-1.904-2.508-2.898-3.72c-0.033,0-0.064,0-0.097,0
		c-0.01-0.058-0.054-0.03-0.097,0c-0.03,0.002-0.057,0.007-0.048,0.048c-0.184,0.171-0.057,0.652-0.29,0.773
		c-1.657,0.378-4.232-0.102-5.99,0.29c0.247,0.88,0.927,1.327,1.352,2.029c1.106,1.408,2.256,2.947,3.382,4.299
		c0.357,0.428,0.651,1.101,1.256,1.208c0.236-0.215,0.073-0.829,0.387-0.966c1.348-0.086,3.044-0.048,4.444-0.048
		c0.478,0,1.054,0.138,1.352-0.193C21.922,35.39,21.354,34.794,20.872,34.194z M37.683,35.16c-1.24-1.569-2.407-3.186-3.623-4.734
		c-0.494-0.628-0.83-1.386-1.498-1.836c-0.282,0.186-0.097,0.837-0.483,0.918c-0.917,0.049-1.96,0.097-2.995,0.048
		c-0.982-0.046-2.111-0.217-2.85,0.145c0.196,0.788,0.802,1.414,1.304,2.029c1.049,1.286,2.034,2.558,3.043,3.816
		c0.502,0.626,0.863,1.476,1.642,1.787c0.231-0.204,0.06-0.81,0.338-0.966c1.331-0.087,3.012-0.048,4.396-0.048
		c0.458,0,1.021,0.137,1.305-0.193C38.244,35.735,37.913,35.451,37.683,35.16z M55.074,36.996c-0.107,1.351-0.048,3.037-0.048,4.686
		c0,3.888,0.055,8.171,0.097,12.125c0.017,1.61,0.055,3.283,1.594,3.285c1.957,0.003,1.594-2.45,1.594-4.396
		c0-3.017-0.028-5.277-0.048-8.02c-0.009-1.104,0.159-3.145-0.097-4.106c-0.172-0.648-0.883-1.247-1.401-1.932
		c-0.455-0.602-1.093-1.63-1.594-1.788C55.11,36.871,55.072,36.914,55.074,36.996z M22.707,36.996
		c-0.18,0.402-0.078,1.59-0.097,2.416c-0.09,3.989,0,8.376,0,12.174c0,2.153-0.39,5.456,1.642,5.459
		c1.197,0.001,1.593-1.133,1.643-2.319c0.09-2.138,0.017-4.581,0-6.812c-0.007-1.012,0-2.331,0-3.624c0-1.24,0.15-2.726-0.096-3.623
		c-0.168-0.607-0.869-1.3-1.353-1.932c-0.539-0.704-1.131-1.503-1.594-1.836C22.795,36.923,22.743,36.951,22.707,36.996z
		 M38.794,37.093c-0.208,1.911-0.07,4.769-0.048,7.005c0.03,3.095,0.03,6.101,0,9.227c-0.017,1.635-0.083,3.542,1.353,3.72
		c1.639,0.202,1.939-1.389,1.884-2.995c-0.112-3.257-0.097-6.906-0.097-10.532c0-1.032,0.122-2.16-0.048-2.802
		c-0.181-0.679-0.874-1.229-1.401-1.932c-0.401-0.536-1.048-1.553-1.546-1.836C38.83,36.967,38.792,37.01,38.794,37.093z
		 M6.476,37.141c-0.158,1.215-0.001,2.965-0.048,4.493c-0.104,3.324-0.048,7.518-0.048,11.063c0,2.116-0.213,4.275,1.594,4.444
		c2.198,0.004,1.691-2.64,1.691-4.734c0-3.479,0.006-6.44,0.048-9.71c0.009-0.714,0.069-1.449-0.048-1.884
		c-0.201-0.75-0.92-1.268-1.45-1.981c-0.469-0.631-1.08-1.744-1.642-1.835C6.504,37.008,6.517,37.102,6.476,37.141z"/>
</g>
<g id="Layer_1">
</g>
</svg>
