<?xml version="1.0" encoding="iso-8859-1"?>
<!-- Generator: Adobe Illustrator 19.2.0, SVG Export Plug-In . SVG Version: 6.00 Build 0)  -->
<svg version="1.1" xmlns="http://www.w3.org/2000/svg" xmlns:xlink="http://www.w3.org/1999/xlink" x="0px" y="0px"
	 viewBox="0 0 65.151 65.677" style="enable-background:new 0 0 65.151 65.677;" xml:space="preserve">
<g id="Comite_x5F_de_x5F_Solidaridad_x5F_con_x5F_Vietnam">
	<path style="fill-rule:evenodd;clip-rule:evenodd;" d="M33.16,0c0.366-0.016,0.736,0.538,1.09,0.892
		c2.227,2.228,4.54,4.556,6.642,6.791c1.197,1.364,2.581,2.542,3.767,3.916c1.26,1.285,2.659,2.43,3.768,3.866
		c-0.253,0.656-0.864,1.062-1.339,1.537c-3.262,3.262-6.414,6.811-9.715,10.111C26.05,38.436,14.71,49.841,3.37,61.216
		c-0.728,0.745-1.513,1.513-2.28,2.28c-0.225,0.225-0.481,0.601-0.843,0.545C0.11,55.412,0.099,46.466,0.099,37.572
		c0-1.297-0.211-2.755,0-3.817c0.134-0.676,1.375-1.573,1.983-2.181c2.089-2.089,4.197-4.197,6.245-6.246
		c2.843-2.842,5.488-5.686,8.228-8.426C22.204,11.253,27.498,5.518,33.012,0.1C33.048,0.053,33.101,0.024,33.16,0z"/>
	<path style="fill-rule:evenodd;clip-rule:evenodd;" d="M0.149,30.038C-0.04,20.332-0.02,10.315,0.05,0.446
		c0.015-0.044,0.134-0.217,0.148-0.099c1.098,0.849,2.707,2.608,3.767,3.668c3.087,3.087,6.09,5.918,9.121,9.219
		c0.236,0.257,0.611,0.545,0.942,0.892c0.329,0.345,0.79,0.778,0.793,1.041c0.005,0.508-1.408,1.656-1.735,1.982
		c-1.877,1.877-3.644,3.745-5.453,5.601c-2.088,2.211-4.271,4.321-6.443,6.494C0.9,29.534,0.594,29.951,0.149,30.038z"/>
	<path style="fill-rule:evenodd;clip-rule:evenodd;" d="M64.734,2.132c0.351,0.109,0.186,0.583,0.198,0.793
		c0.125,2.118,0.049,4.55,0.049,6.84c0.001,6.445,0.096,13.032,0.05,19.331c-0.009,1.22,0.262,2.778,0,3.817
		c-0.166,0.657-1.314,1.562-1.933,2.181C54.93,43.263,46.853,51.438,38.712,59.58c-0.669,0.668-1.255,1.453-1.933,2.131
		c-1.358,1.358-2.686,2.753-4.164,3.966c-0.821-0.442-1.389-1.204-2.032-1.834c-4.139-4.057-8.31-8.21-12.491-12.392
		c-0.297-0.297-0.842-0.778-0.842-1.041c0-0.481,1.012-1.118,1.438-1.586c3.33-3.667,7.001-6.951,10.359-10.508
		c3.997-3.95,7.906-7.988,11.896-11.945c7.203-7.533,14.734-15.069,22.107-22.652C63.62,3.13,64.113,2.533,64.734,2.132z"/>
	<path style="fill-rule:evenodd;clip-rule:evenodd;" d="M64.883,36.333c0.04,0.009,0.049,0.05,0.099,0.049
		c0.224,9.332,0.191,19.48,0.099,28.848c-0.817-0.335-1.341-1.094-1.933-1.686c-2.962-2.962-6.086-5.937-9.121-8.971
		c-0.826-0.826-1.736-1.786-2.677-2.726c-0.279-0.279-0.832-0.694-0.842-0.942c-0.02-0.455,1.394-1.637,1.685-1.934
		c4.112-4.195,8.384-8.431,12.541-12.54C64.77,36.386,64.825,36.357,64.883,36.333z"/>
</g>
<g id="Layer_1">
</g>
</svg>
