<?xml version="1.0" encoding="iso-8859-1"?>
<!-- Generator: Adobe Illustrator 19.2.0, SVG Export Plug-In . SVG Version: 6.00 Build 0)  -->
<svg version="1.1" xmlns="http://www.w3.org/2000/svg" xmlns:xlink="http://www.w3.org/1999/xlink" x="0px" y="0px"
	 viewBox="0 0 73.225 68.843" style="enable-background:new 0 0 73.225 68.843;" xml:space="preserve">
<g id="Commerce_x5F_Bank_x5F_US">
	<path style="fill-rule:evenodd;clip-rule:evenodd;" d="M73.225,0.123c-0.107,1.402-0.628,2.734-0.985,4.08
		c-1.793,6.75-3.751,13.467-5.535,20.266c-0.709,2.701-1.495,5.369-2.298,8.019c-10.236,0.178-21.352-0.014-31.288,0.096
		c-0.696,0.977-0.953,2.393-1.313,3.705c0.587,0.246,1.258,0.141,1.876,0.141c4.389,0,9.244,0.047,13.744,0.047
		c5.322,0,10.701-0.086,15.808,0.094c0.02,0.883-0.379,1.686-0.61,2.486c-0.73,2.535-1.398,4.777-2.486,6.942
		c-2.125,4.229-4.682,7.871-7.881,11.07c-5.204,5.205-11.399,9.65-20.358,11.164c-1.854,0.314-3.771,0.611-5.723,0.611
		c-1.982,0-3.893-0.242-5.676-0.611c-3.53-0.729-6.385-1.906-8.913-3.705c-2.337-1.662-4.58-3.928-6.286-6.285
		c-3.623-5.01-5.645-11.652-5.253-19.889c0.181-3.811,1.063-7.312,2.158-10.461c1.065-3.062,2.54-5.971,4.128-8.443
		c3.305-5.148,7.294-9.6,12.337-12.9c4.525-2.963,9.117-5.412,15.808-6.238c3.582-0.443,8.036-0.281,12.102-0.281
		C55.614,0.027,64.318,0.006,73.225,0.123z"/>
</g>
<g id="Layer_1">
</g>
</svg>
