<?xml version="1.0" encoding="iso-8859-1"?>
<!-- Generator: Adobe Illustrator 21.0.2, SVG Export Plug-In . SVG Version: 6.00 Build 0)  -->
<svg version="1.1" xmlns="http://www.w3.org/2000/svg" xmlns:xlink="http://www.w3.org/1999/xlink" x="0px" y="0px"
	 viewBox="0 0 16.793 16.273" style="enable-background:new 0 0 16.793 16.273;" xml:space="preserve">
<g id="CommuniCore">
	<path d="M2.858,1.925C3.984,0.921,5.4,0.251,6.888,0.003c0.296,1.826,0.624,3.647,0.929,5.471c-0.702,0.093-1.351,0.505-1.747,1.09
		C5.704,7.072,5.562,7.716,5.609,8.336c0.033,1.177,0.981,2.26,2.15,2.429c-0.298,1.834-0.61,3.666-0.912,5.499
		c-1.442-0.248-2.81-0.901-3.924-1.85c-0.315-0.262-0.593-0.566-0.882-0.856c-1.261-1.462-2.069-3.363-2.037-5.31
		C-0.073,5.85,1.05,3.479,2.858,1.925z M3.53,2.555C3.262,2.774,3.01,3.015,2.792,3.283c-1.046,1.174-1.703,2.685-1.856,4.25
		C2.18,7.535,3.424,7.534,4.668,7.534c0.055-0.562,0.294-1.104,0.65-1.541c0.333-0.449,0.777-0.806,1.257-1.087
		C6.389,3.869,6.232,2.828,6.058,1.789c-0.033-0.211-0.081-0.42-0.095-0.634C5.08,1.479,4.239,1.935,3.53,2.555z M0.936,8.627
		c0.048,0.443,0.096,0.89,0.213,1.321c0.309,1.186,0.911,2.3,1.76,3.186c0.832,0.891,1.888,1.579,3.051,1.95
		c0.199-1.241,0.396-2.483,0.614-3.721c-0.308-0.18-0.612-0.376-0.86-0.635c-0.583-0.543-0.963-1.302-1.048-2.094
		C3.423,8.625,2.179,8.641,0.936,8.627z"/>
	<path d="M9.937,0c2.295,0.366,4.367,1.808,5.579,3.779c0.843,1.343,1.291,2.929,1.277,4.514c-0.044,0.782-0.148,1.567-0.403,2.31
		c-0.379,1.152-0.999,2.23-1.833,3.111c-1.047,1.112-2.388,1.954-3.86,2.371c-0.234,0.073-0.476,0.122-0.712,0.187
		c-0.054-0.09-0.049-0.198-0.073-0.297c-0.18-0.966-0.347-1.934-0.533-2.899c-0.139-0.768-0.265-1.54-0.425-2.304
		c0.665-0.11,1.284-0.479,1.692-1.015c0.404-0.492,0.594-1.142,0.563-1.772c-0.035-0.6-0.272-1.184-0.667-1.637
		c-0.404-0.469-0.983-0.79-1.597-0.877c0.188-1.03,0.366-2.063,0.555-3.093C9.653,1.587,9.768,0.788,9.937,0z M10.819,1.161
		c-0.218,1.244-0.412,2.493-0.629,3.737c0.314,0.17,0.615,0.367,0.87,0.619c0.544,0.551,0.889,1.269,1.067,2.017
		c1.233-0.003,2.466,0.001,3.7-0.002c-0.113-1.453-0.713-2.857-1.656-3.964c-0.236-0.268-0.459-0.551-0.742-0.772
		C12.672,2.092,11.774,1.551,10.819,1.161z M12.126,8.626c-0.103,0.649-0.342,1.292-0.775,1.794
		c-0.302,0.405-0.728,0.697-1.164,0.942c0.224,1.239,0.411,2.485,0.631,3.724c1.108-0.359,2.111-1.002,2.937-1.819
		c0.801-0.835,1.428-1.845,1.768-2.953c0.185-0.546,0.269-1.116,0.333-1.686C14.612,8.634,13.369,8.637,12.126,8.626z"/>
</g>
<g id="Layer_1">
</g>
</svg>
