<?xml version="1.0" encoding="iso-8859-1"?>
<!-- Generator: Adobe Illustrator 19.2.0, SVG Export Plug-In . SVG Version: 6.00 Build 0)  -->
<svg version="1.1" xmlns="http://www.w3.org/2000/svg" xmlns:xlink="http://www.w3.org/1999/xlink" x="0px" y="0px"
	 viewBox="0 0 84.189 47.81" style="enable-background:new 0 0 84.189 47.81;" xml:space="preserve">
<g id="committee_x5F_of_x5F_aluminiuim_x5F_producers">
	<path style="fill-rule:evenodd;clip-rule:evenodd;" d="M72.381,21.505c0.2,1.153,0.9,2.227,1.532,3.112
		c1.42,0.139,2.822,0.007,4.199,0.148c0.826,0.639,1.129,1.802,1.63,2.767c1.175,2.063,2.245,4.169,3.409,6.423
		c0.303,0.585,1.017,1.598,1.037,2.224c0.028,0.825-1.081,2.357-1.433,3.014c-1.062,1.989-2.047,3.863-3.062,5.83
		c-0.495,0.958-0.94,1.959-1.631,2.767c-1.348-0.085-3.044,0.179-4.149-0.148c0.135-0.826,0.672-1.476,1.037-2.174
		c0.724-1.383,1.431-2.731,2.174-4.149c0.358-0.685,0.802-1.378,0.988-2.175c-0.906-0.319-1.904-0.197-2.865-0.197
		c-11.338-0.001-22.034,0.051-33.251,0.049c-3.964,0-8.2,0.289-10.425-1.778c-1.106-1.032-1.849-2.382-2.619-3.755
		c-0.765-1.363-1.399-2.841-2.371-4.002c-5.49-0.061-11.243-0.12-16.649-0.099C9.232,29.885,9,30.79,8.598,31.535
		c-0.798,1.473-1.645,2.942-2.471,4.446c-0.403,0.734-0.677,1.59-1.285,2.174c-0.754,0.09-1.645,0.05-2.52,0.05
		c-0.831,0-1.71,0.172-2.322-0.099c0.206-0.819,0.68-1.55,1.087-2.272c2.78-4.929,5.386-10.127,8.103-15.168
		c1.494-2.771,3.139-5.93,4.744-8.548c0.896-1.462,1.913-2.503,3.655-3.014c1.642-0.481,3.638-0.543,5.979-0.543
		c16.606-0.002,32.766-0.048,49.506-0.05c1,0,2.096,0.115,3.014-0.197c-0.161-0.786-0.609-1.482-0.988-2.174
		c-0.92-1.675-1.84-3.32-2.767-5.04c-0.144-0.267-0.556-0.711-0.197-1.037c1.353-0.062,2.961-0.122,4.15,0.05
		c0.674,0.713,1.064,1.685,1.531,2.568c0.474,0.895,1.014,1.76,1.433,2.668c0.722,1.274,1.396,2.615,2.174,4.002
		c0.202,0.36,0.637,1.03,0.643,1.384c0.006,0.312-0.377,1.014-0.593,1.433c-1.162,2.26-2.344,4.425-3.508,6.62
		c-0.479,0.902-0.797,1.881-1.482,2.521C75.249,21.507,73.455,21.146,72.381,21.505z M72.282,13.057
		c-11.62-0.002-22.913,0.05-34.387,0.049c-4.158,0-8.323,0.001-12.451,0c-1.766,0-4.578-0.296-6.077,0.198
		c-1.57,0.518-2.18,2.03-2.914,3.408c-1.18,2.211-2.262,4.338-3.41,6.473c-0.211,0.395-0.611,0.802-0.543,1.334
		c0.864,0.261,1.861,0.149,2.866,0.149c2.409,0,5.099,0.099,7.312,0.099c0.425,0,0.99,0.107,1.285-0.247
		c-0.183-0.756-0.624-1.439-0.988-2.124c-0.753-1.415-1.562-2.81-2.322-4.2c-0.383-0.7-0.851-1.389-0.988-2.174
		c1.421-0.194,3.39-0.101,4.892-0.05c0.671,0.518,0.895,1.398,1.284,2.125c0.399,0.746,0.827,1.481,1.235,2.223
		c0.829,1.508,1.477,3.113,2.52,4.397c11.968-0.005,25.2,0.079,37.055-0.049c0.794-0.009,1.691,0.217,2.224-0.198
		c-0.125-0.781-0.604-1.445-0.938-2.124c-0.713-1.441-1.491-2.782-2.224-4.2c-0.364-0.705-0.833-1.409-0.988-2.223
		c1.324-0.244,3.007-0.118,4.397-0.099c0.604,0.762,1.017,1.717,1.433,2.668c0.609,0.773,0.776,1.99,1.581,2.569
		c0.508-0.498,0.834-1.185,1.137-1.828c0.641-1.364,1.361-2.612,2.025-3.903c0.34-0.661,0.736-1.365,0.89-2.125
		C74.929,12.937,73.593,13.057,72.282,13.057z M74.802,27.977c-0.65,0.951-1.152,2.107-1.729,3.163
		c-0.284,0.519-0.564,1.055-0.84,1.58c-0.277,0.529-0.703,1.044-0.742,1.681c0.952,0.266,2.244,0.147,3.459,0.147
		c1.23,0,2.472,0.112,3.409-0.099c0.078-0.628-0.411-1.121-0.692-1.68c-0.582-1.157-1.062-2.163-1.68-3.359
		c-0.239-0.465-0.592-1.514-1.037-1.532C74.892,27.903,74.838,27.931,74.802,27.977z M65.711,29.361
		c-3.118-0.001-6.307-0.063-9.535,0.05c-4.18,0.145-8.848-0.188-12.896,0c-2.74,0.127-5.738-0.001-8.448,0
		c-0.901,0-1.803-0.068-2.618,0.149c-0.095,0.466,0.257,0.972,0.494,1.432c0.654,1.274,1.399,2.889,2.667,3.41
		c0.841,0.345,2.234,0.296,3.558,0.296c7.832,0,15.179-0.05,23.32-0.05c1.191,0.001,3.218,0.229,3.903-0.099
		c0.295-0.141,0.576-0.741,0.79-1.136c0.516-0.951,0.897-1.65,1.334-2.52c0.229-0.456,0.524-0.93,0.494-1.384
		C67.785,29.246,66.741,29.361,65.711,29.361z"/>
</g>
<g id="Layer_1">
</g>
</svg>
