<?xml version="1.0" encoding="iso-8859-1"?>
<!-- Generator: Adobe Illustrator 19.2.0, SVG Export Plug-In . SVG Version: 6.00 Build 0)  -->
<svg version="1.1" xmlns="http://www.w3.org/2000/svg" xmlns:xlink="http://www.w3.org/1999/xlink" x="0px" y="0px"
	 viewBox="0 0 70.389 69.974" style="enable-background:new 0 0 70.389 69.974;" xml:space="preserve">
<g id="Companhia_x5F_Coronado_x5F_de_x5F_Hotels">
	<path style="fill-rule:evenodd;clip-rule:evenodd;" d="M34.184,34.137c-11.101,0.068-22.905,0.153-33.937,0
		c-0.279-5.317,1.111-9.966,2.889-13.863c1.756-3.852,4.139-7.22,6.979-9.916c2.877-2.73,6.028-5.106,10.012-6.932
		c1.956-0.896,3.961-1.609,6.258-2.215c2.283-0.602,4.804-1.294,7.365-1.203c0.258,0.01,0.429-0.104,0.481,0.674
		c0.163,2.407-0.063,5.27,0.048,7.605c0.07,1.481,0.013,2.885-0.048,4.188c-0.065,1.374,0,2.749,0,4.235
		C34.232,22.494,34.409,28.352,34.184,34.137z"/>
	<path style="fill-rule:evenodd;clip-rule:evenodd;" d="M70.382,34.088c-0.563,0.29-1.249,0.169-1.877,0.144
		c-2.02-0.075-4.309,0-6.547,0c-2.92,0-5.926,0-8.809,0c-5.906,0-11.36,0.173-16.944-0.096c-0.162-10.153-0.096-21.555-0.096-32.011
		c0-0.65-0.039-1.353,0.192-1.974c1.172-0.002,2.683,0.327,3.996,0.481c3.746,0.439,7.18,1.408,10.012,2.695
		c3.928,1.785,7.396,4.171,10.109,6.884c2.837,2.838,5.224,6.152,6.932,10.06C69.068,24.204,70.499,28.778,70.382,34.088z"/>
	<path style="fill-rule:evenodd;clip-rule:evenodd;" d="M70.142,69.854c-8.398,0.072-16.971,0.097-25.32,0.097
		c-2.829,0-5.673,0.11-8.424-0.145c-0.144-5.294,1.03-10.021,2.792-13.815c3.539-7.615,9.128-13.422,16.751-16.848
		c3.051-1.371,5.86-2.346,9.676-2.889c1.23-0.175,2.498-0.18,3.851-0.337c0.416-0.048,0.616-0.188,0.722,0.53
		c0.142,0.964,0.017,2.338,0.048,3.129c0.176,4.395,0.001,8.877,0,13.141c0,2.975,0.001,5.905,0,8.761
		C70.238,64.443,70.351,67.294,70.142,69.854z"/>
	<path style="fill-rule:evenodd;clip-rule:evenodd;" d="M34.184,36.254c0.142,11.392,0.189,22.695,0.048,33.552
		c-2.696,0.265-5.267-0.236-7.605-0.771c-4.604-1.052-8.49-2.804-11.89-5.15C8.041,59.263,3.194,52.853,0.826,43.716
		C0.52,42.536,0.3,41.343,0.2,40.058c-0.095-1.216-0.337-2.477-0.096-3.755c0.769-0.259,1.601-0.145,2.407-0.145
		c0.804,0,1.635-0.049,2.455-0.048c3.32,0.001,6.637-0.001,9.916,0c5.296,0.001,10.478-0.002,15.885,0
		C31.912,36.111,33.084,35.999,34.184,36.254z"/>
</g>
<g id="Layer_1">
</g>
</svg>
