<?xml version="1.0" encoding="iso-8859-1"?>
<!-- Generator: Adobe Illustrator 19.2.0, SVG Export Plug-In . SVG Version: 6.00 Build 0)  -->
<svg version="1.1" xmlns="http://www.w3.org/2000/svg" xmlns:xlink="http://www.w3.org/1999/xlink" x="0px" y="0px"
	 viewBox="0 0 80.502 35.285" style="enable-background:new 0 0 80.502 35.285;" xml:space="preserve">
<g id="Compagnia_x5F_Amministratrice_x5F_Fiduciaria">
	<path style="fill-rule:evenodd;clip-rule:evenodd;" d="M31.546,7.561c-1.181,1.602-2.627,2.971-3.97,4.417
		c-1.002,1.078-1.985,2.152-3.027,3.226c-0.335,0.345-0.689,0.751-1.142,0.943c-0.412-0.531-0.421-1.035-0.694-1.539
		c-1.128-2.076-3.73-3.742-6.948-2.928c-2.647,0.669-4.547,3.203-4.516,5.955c0.039,3.457,3.271,6.961,7.643,5.906
		c1.257-0.304,2.362-1.221,3.226-2.084c0.88-0.88,1.776-1.851,2.58-2.729c2.151-2.35,4.25-4.591,6.402-6.898
		c0.43-0.46,0.736-1.003,1.142-1.489c0.785-0.94,1.708-1.803,2.58-2.729c1.175-1.247,2.535-2.783,3.821-4.119
		c0.428-0.443,0.962-1.12,1.39-1.241c0.631-0.177,1.627-0.049,2.531-0.049c5.664,0,11.895,0,17.618,0
		c7.015,0,13.795-0.041,20.148,0.149c0.192,3.12,0.107,7.034,0.05,10.074c-0.73,0.241-1.537,0.137-2.333,0.099
		c-2.436-0.115-5.138,0.05-7.741,0.05c-3.434,0-6.918-0.039-10.224,0.05c-0.25,0.698-0.196,2.155-0.05,2.928
		c6.5,0.412,13.902-0.124,20.298,0.199c0.113,1.694,0.17,3.519,0.148,5.31c-0.02,1.714,0.132,3.572-0.148,5.161
		c-6.835,0.274-13.739-0.003-20.248,0.198c-0.405,2.54,0.076,5.966-0.248,8.586c-2.779,0.18-5.907,0.099-8.734,0.099
		c-0.938,0-1.904,0.136-2.729-0.099c-0.306-2.623,0.029-5.775-0.248-8.586c-4.638-0.322-10.031,0.069-14.889-0.148
		c-0.64,0.358-1.102,0.93-1.489,1.489c-0.41,0.593-0.917,1.023-1.389,1.538c-1.904,2.08-3.931,3.695-6.898,4.863
		c-1.401,0.551-3.012,0.992-4.765,1.092c-7.381,0.42-12.726-3.296-15.633-7.791c-1.575-2.437-2.825-5.107-3.027-8.734
		C-0.38,11.316,3.192,6.018,7.725,2.995c2.463-1.642,5.256-2.802,8.983-2.978c3.569-0.168,6.738,0.942,9.031,2.184
		C28.181,3.523,30.116,5.317,31.546,7.561z M47.973,9.993c-0.059,0.024-0.112,0.053-0.148,0.099c-1.199,1.34-2.491,2.63-3.673,3.92
		c-0.404,0.442-0.882,0.904-1.092,1.489c1.467,0.166,3.595,0.161,5.062,0c0.125-1.148,0.155-2.505,0.149-3.722
		c-0.003-0.551,0.047-1.431-0.248-1.787C48.006,9.993,47.989,9.993,47.973,9.993z"/>
</g>
<g id="Layer_1">
</g>
</svg>
