<?xml version="1.0" encoding="iso-8859-1"?>
<!-- Generator: Adobe Illustrator 19.2.0, SVG Export Plug-In . SVG Version: 6.00 Build 0)  -->
<svg version="1.1" xmlns="http://www.w3.org/2000/svg" xmlns:xlink="http://www.w3.org/1999/xlink" x="0px" y="0px"
	 viewBox="0 0 86.072 81.572" style="enable-background:new 0 0 86.072 81.572;" xml:space="preserve">
<g id="companhia_x5F_de_x5F_cigarros_x5F_souza_x5F_cruz">
	<path style="fill-rule:evenodd;clip-rule:evenodd;" d="M43.317,0c0.396,0.048,0.819,0.831,1.074,1.228
		c0.331,0.516,0.593,1.025,0.818,1.432c3.799,5.874,7.359,11.962,11.2,18.002c0.26,0.409,0.71,0.958,0.716,1.228
		c0.007,0.315-0.483,0.966-0.768,1.38c-3.146,4.603-6.584,9.091-9.666,13.757c-0.556,0.842-1.149,1.686-1.738,2.506
		c-0.59,0.822-1.123,1.694-1.842,2.403c-0.853-0.632-1.369-1.575-1.994-2.403c-4.011-5.321-8.042-10.794-12.12-16.212
		c-0.312-0.414-0.854-1.006-0.869-1.278c-0.022-0.375,0.543-1.031,0.869-1.483c2.267-3.146,4.413-6.336,6.598-9.512
		c1.915-2.786,3.676-5.469,5.625-8.234C41.905,1.841,42.591,0.858,43.317,0z"/>
	<path style="fill-rule:evenodd;clip-rule:evenodd;" d="M0,31.197c0.838-0.572,1.984-0.668,3.068-0.972
		c7.051-1.977,15.046-3.991,22.043-5.983c0.703-0.201,1.787,1.75,2.147,2.25c0.649,0.901,1.236,1.652,1.739,2.455
		c3.115,4.204,6.215,8.512,9.308,12.785c0.424,0.585,0.968,1.135,1.177,1.841c-0.321,0.394-0.869,0.496-1.33,0.665
		c-6.078,2.234-12.203,4.56-18.463,6.802c-0.398,0.143-0.887,0.359-1.381,0.562c-0.469,0.193-1.15,0.499-1.483,0.46
		c-0.517-0.059-0.824-0.791-1.177-1.227c-0.403-0.499-0.827-0.904-1.073-1.279c-4.213-5.197-8.424-10.396-12.582-15.649
		C1.411,32.922,0.458,32.308,0,31.197z"/>
	<path style="fill-rule:evenodd;clip-rule:evenodd;" d="M60.399,24.242c7.507,1.929,15.078,4.074,22.604,6.086
		c1.029,0.275,2.1,0.509,3.068,0.972c-0.343,1.005-1.335,1.801-1.943,2.71c-2.082,2.623-4.129,5.281-6.291,7.825
		c-2.075,2.629-4.24,5.169-6.341,7.773c-0.262,0.357-0.677,0.791-1.074,1.278c-0.344,0.422-0.685,1.156-1.125,1.228
		c-0.3,0.049-1.051-0.288-1.534-0.46c-3.297-1.177-6.942-2.581-10.178-3.733c-1.98-0.706-3.944-1.398-5.83-2.097
		c-1.971-0.73-3.967-1.335-5.728-2.199c0.328-1.07,1.159-1.637,1.688-2.506c4.175-5.576,8.22-11.282,12.479-16.775
		C60.271,24.317,60.323,24.268,60.399,24.242z"/>
	<path style="fill-rule:evenodd;clip-rule:evenodd;" d="M44.903,47.409c5.722,1.9,11.771,3.909,17.49,5.933
		c1.922,0.68,3.92,1.141,5.728,2.046c0.239,4.315,0.458,8.717,0.665,13.092c0.208,4.394,0.474,8.778,0.409,13.092
		c-2.168-0.622-4.237-1.475-6.342-2.251c-4.1-1.512-8.155-3.252-12.325-4.756c-2.065-0.745-4.129-1.507-6.137-2.404
		c-0.231-4.053,0.051-8.273,0.051-12.428c0.001-4.166,0.033-8.305,0.256-12.274C44.806,47.482,44.834,47.425,44.903,47.409z"/>
	<path style="fill-rule:evenodd;clip-rule:evenodd;" d="M41.169,72.06c-0.905,0.622-1.997,0.89-3.017,1.278
		c-5.053,1.923-10.302,3.955-15.445,5.933c-1.033,0.397-2.08,0.767-3.119,1.176c-0.998,0.392-1.976,0.984-3.068,1.074
		c-0.034-4.282,0.1-8.696,0.307-13.092c0.207-4.382,0.256-8.784,0.562-13.041c0.711-0.579,1.77-0.792,2.762-1.125
		c6.612-2.219,13.477-4.434,20.099-6.751c0.762-0.267,0.665,0.475,0.665,1.227C40.914,56.4,41.252,64.668,41.169,72.06z"/>
</g>
<g id="Layer_1">
</g>
</svg>
