<?xml version="1.0" encoding="iso-8859-1"?>
<!-- Generator: Adobe Illustrator 19.2.0, SVG Export Plug-In . SVG Version: 6.00 Build 0)  -->
<svg version="1.1" xmlns="http://www.w3.org/2000/svg" xmlns:xlink="http://www.w3.org/1999/xlink" x="0px" y="0px"
	 viewBox="0 0 74.759 61.745" style="enable-background:new 0 0 74.759 61.745;" xml:space="preserve">
<g id="comsip_x5F_automation">
	<path style="fill-rule:evenodd;clip-rule:evenodd;" d="M71.176,20.292c-2.704,0.271-6.089,0.112-8.881,0
		c-0.477-4.752-2.722-8.089-6.33-9.765c-1.987-0.922-4.417-1.284-6.722-0.834c-4.108,0.801-7.206,3.9-8.292,7.753
		c-0.299,1.06-0.458,2.24-0.54,3.484c-0.243,3.687-0.011,7.998-0.981,11.09c-0.649,2.067-1.57,3.779-2.453,5.544
		c0.839,0.265,1.772,0.147,2.649,0.147c5.894,0.001,12.81,0.122,18.99-0.098c-0.216-0.758-0.84-1.307-1.325-1.865
		c-3.403-3.917-7.137-7.737-10.55-11.727c-0.3-0.306-0.564-0.646-0.883-0.933c-0.146-0.398-0.772-0.564-0.638-1.08
		c2.37-0.14,5.493-0.098,8.293-0.098c0.973,0,2.007-0.133,2.747,0.049c0.617,0.152,0.908,0.78,1.325,1.128
		c4.354,4.678,8.537,9.541,12.954,14.328c1.045,1.132,2.1,2.306,3.239,3.582c0.325,0.364,0.979,0.986,0.981,1.276
		c0.002,0.338-0.77,0.958-1.129,1.325c-5.678,5.802-11.334,11.187-17.076,16.929c-0.414,0.414-0.94,1.042-1.374,1.128
		c-0.825,0.165-1.849,0.049-2.846,0.049c-2.75,0-5.938,0.08-8.489-0.098c-0.02-0.487,0.488-0.708,0.785-0.981
		c4.043-3.731,7.847-7.993,11.777-11.924c0.599-0.599,1.37-1.109,1.717-1.914c-5.912-0.178-12.058-0.099-18.155-0.098
		c-5.387,0-10.646-0.099-16.045-0.098c-0.725,0-1.448,0.107-2.159,0.098c-7.404-0.099-12.452-2.649-16.192-6.575
		c-3.639-3.818-6.038-9.406-5.496-17.076c3.025-0.153,6.477-0.189,9.323,0c-0.123,1.256-0.373,2.515-0.245,4.023
		c0.327,3.875,2.319,6.726,4.858,8.391c1.884,1.236,4.157,2.02,6.918,1.815c2.488-0.184,4.564-1.117,6.231-2.6
		c1.53-1.361,2.837-3.254,3.386-5.447c0.579-2.311,0.459-5.205,0.491-8.244c0.03-2.882,0.489-5.335,1.325-7.507
		c1.865-4.849,4.852-8.433,9.127-10.893c2.316-1.333,5.613-2.383,8.783-2.551c3.235-0.171,6.376,0.497,8.734,1.619
		c4.872,2.319,8.08,5.477,10.402,10.305C70.522,14.262,71.365,17.07,71.176,20.292z"/>
</g>
<g id="Layer_1">
</g>
</svg>
