<?xml version="1.0" encoding="iso-8859-1"?>
<!-- Generator: Adobe Illustrator 19.2.0, SVG Export Plug-In . SVG Version: 6.00 Build 0)  -->
<svg version="1.1" xmlns="http://www.w3.org/2000/svg" xmlns:xlink="http://www.w3.org/1999/xlink" x="0px" y="0px"
	 viewBox="0 0 76.404 77.659" style="enable-background:new 0 0 76.404 77.659;" xml:space="preserve">
<g id="Concordia_x5F_SPRL">
	<path style="fill-rule:evenodd;clip-rule:evenodd;" d="M76.329,38.115c-1.227,0.203-2.578,0.109-3.938,0.102
		c-2.664-0.014-5.355-0.051-8.127-0.051c-1.332,0-2.701,0.122-3.936-0.153c-0.598-6.417-2.916-11.095-6.492-14.671
		c-3.471-3.47-8.121-6.164-14.568-6.543c-6.721-0.396-12.033,2.229-15.592,5.469c-1.828,1.665-3.686,3.5-4.652,5.931
		c-0.238,0.602-0.605,1.165-0.869,1.789c-0.254,0.604-0.508,1.228-0.715,1.892c-0.404,1.292-0.938,2.682-0.818,4.242
		c0.961,0.229,2.037,0.204,3.119,0.204c3.195,0.001,6.662,0.061,9.609-0.051c0.543-0.639,0.643-1.312,1.021-1.942
		c0.992-1.647,2.523-2.95,4.244-3.783c1.883-0.911,4.652-0.924,6.748-0.153c1.803,0.664,3.387,2.058,4.395,3.63
		c1.027,1.597,1.828,3.755,1.482,6.339c-0.303,2.267-1.365,3.952-2.76,5.265c-1.387,1.305-3.152,2.432-5.469,2.556
		c-4.422,0.236-7.377-2.075-8.945-5.009c-0.184-0.34-0.377-1.101-0.717-1.278c-0.645-0.336-2.178-0.051-3.117-0.051
		c-2.242-0.001-4.248-0.052-6.492-0.052c-1.076,0-2.156-0.15-3.068,0.103c-0.133,1.545,0.406,2.952,0.818,4.243
		c1.254,3.917,3.412,7.122,6.186,9.559c3.73,3.144,8.566,5.738,15.488,5.521c6.449-0.202,11.23-3.095,14.568-6.44
		c2.937-3.037,5.488-6.929,6.289-12.115c0.109-0.72,0.078-1.497,0.357-2.249c3.777-0.187,8.051-0.103,12.065-0.103
		c1.328,0,2.637-0.037,3.832,0.205c0.271,1.076,0.039,2.186-0.051,3.22c-0.266,3.093-1.213,5.995-2.146,8.537
		c-1.264,3.438-2.889,6.619-4.906,9.304c-4.158,5.528-8.869,9.851-15.592,12.83c-3.268,1.448-7.006,2.529-11.246,3.017
		c-4.311,0.495-8.963,0.194-12.984-0.818c-7.441-1.873-13.334-5.563-18.096-10.325C6.69,61.715,2.708,55.462,1.032,48.031
		c-0.93-4.114-1.264-8.477-0.869-12.83c0.775-8.588,3.822-15.031,7.973-20.447c4.017-5.241,9.473-9.59,16.154-12.269
		c5.516-2.211,13.951-3.327,21.061-1.738c2.76,0.617,5.277,1.264,7.566,2.249c4.666,2.012,8.387,4.725,11.654,7.924
		c3.285,3.216,6.037,7.058,8.127,11.45c1.049,2.202,1.971,4.582,2.607,7.208C75.936,32.184,76.483,35.051,76.329,38.115z
		 M74.591,34.486c-0.883-7.342-3.688-13.141-7.156-17.892c-1.902-2.604-4.396-4.844-6.697-7.003
		c-0.787-0.738-1.668-1.325-2.607-1.942c-1.799-1.184-3.676-2.265-5.98-3.17c-4.275-1.678-9.359-3.1-15.539-2.812
		c-8.537,0.398-14.758,3.071-20.039,7.004C11.325,12.577,7.37,17.624,4.61,23.802c-1.363,3.047-2.416,6.773-2.813,10.734
		c-0.414,4.14-0.252,8.209,0.563,12.269c1.422,7.09,5.141,13.432,9.355,17.738c5.543,5.664,12.649,10.173,22.543,11.297
		c2.113,0.24,4.309,0.229,6.49,0.103c7.236-0.422,12.982-2.983,17.688-5.981c0.707-0.449,1.469-0.889,2.045-1.38
		c0.297-0.254,0.518-0.607,0.818-0.869c0.305-0.267,0.623-0.497,0.92-0.767c5.244-4.769,9.6-10.918,11.502-18.965
		c0.43-1.816,1.002-3.735,0.818-5.776c-0.965-0.274-2.086-0.153-3.17-0.153c-1.086,0-2.189,0-3.271,0
		c-2.232,0-4.49-0.171-6.34,0.103c-0.512,1.439-0.643,2.948-1.021,4.447c-0.658,2.611-2.203,4.953-3.68,6.952
		c-4.312,5.829-12.023,10.52-22.391,9.099c-5.934-0.813-10.613-3.816-13.904-7.412c-1.691-1.848-3.018-4.145-4.09-6.595
		c-0.814-1.862-1.486-3.868-1.84-6.134c-0.113-0.729-0.269-1.584-0.051-2.352c1.215-0.209,2.537-0.103,3.885-0.103
		c2.775,0.001,5.438,0.051,8.025,0.052c1.361,0,2.748-0.121,3.988,0.153c0.361,0.589,0.389,1.299,0.664,1.892
		c1.192,2.571,3.965,4.793,7.975,4.345c2.908-0.325,5.076-2.539,5.877-4.805c1.141-3.22-0.043-6.332-1.736-8.025
		c-1.758-1.757-5.191-2.856-8.025-1.637c-1.775,0.765-3.254,2.188-4.039,3.937c-0.271,0.603-0.324,1.329-0.768,1.942
		c-0.461,0.175-1.252,0.052-1.992,0.051c-3.455-0.001-6.69,0.088-9.969-0.051c-1.34-0.057-2.682,0.167-3.885-0.153
		c-0.135-1.737,0.139-3.445,0.562-4.958c1.258-4.487,3.324-8.13,6.186-10.991c3.736-3.737,8.99-6.567,16.051-6.85
		c3.531-0.141,6.74,0.734,9.508,1.841c2.754,1.101,5.152,2.599,7.055,4.396c1.951,1.845,3.744,3.981,5.01,6.441
		c0.635,1.234,1.307,2.613,1.635,4.089c0.17,0.762,0.359,1.557,0.512,2.351c0.148,0.772,0.148,1.617,0.562,2.352
		c2.908,0.162,6.377,0.153,9.559,0.153c1.106,0,2.201,0.12,3.17-0.153C74.864,35.814,74.663,35.095,74.591,34.486z"/>
</g>
<g id="Layer_1">
</g>
</svg>
