<?xml version="1.0" encoding="iso-8859-1"?>
<!-- Generator: Adobe Illustrator 19.2.0, SVG Export Plug-In . SVG Version: 6.00 Build 0)  -->
<svg version="1.1" xmlns="http://www.w3.org/2000/svg" xmlns:xlink="http://www.w3.org/1999/xlink" x="0px" y="0px"
	 viewBox="0 0 84.109 59.455" style="enable-background:new 0 0 84.109 59.455;" xml:space="preserve">
<g id="Conditionarento_x5F_Nord_x5F_Italia">
	<path style="fill-rule:evenodd;clip-rule:evenodd;" d="M75.018,0.05c3.304-0.324,5.212,0.967,6.717,2.571
		C83.232,4.219,84.512,6.5,83.99,9.81c-0.616,3.921-4.074,7.234-8.291,7.189c-3.838-0.041-6.699-2.724-7.766-5.667
		c-1.845-5.089,1.354-9.524,5.143-10.863C73.632,0.273,74.192,0.131,75.018,0.05z"/>
	<path style="fill-rule:evenodd;clip-rule:evenodd;" d="M23.696,20.778c0.191,1.836,0.105,3.915,0.105,5.93
		c0.001,1.998,0.118,3.985-0.105,5.667c-2.767,0.162-5.241-0.067-7.084,0.787c-1.793,0.832-3.087,2.158-3.831,4.093
		c-1.844,4.798,1.368,8.774,5.09,9.708c2.47,0.62,5.229,0.095,6.718-0.787c1.649-0.977,2.93-2.592,3.411-4.513
		c0.309-1.239,0.218-2.484,0.314-3.673c0.298-3.673,1.067-6.7,2.676-9.183c1.945-3.003,4.95-5.908,8.658-7.189
		c2.096-0.724,4.371-1.087,6.928-0.892c4.869,0.371,8.071,2.404,10.757,5.09c2.626,2.627,4.61,6.052,5.038,10.81
		c0.115,1.286,0.015,2.599,0.052,3.936c0.046,1.646-0.142,3.623,0.473,4.88c0.624,1.276,1.954,2.236,3.516,2.046
		c1.429-0.174,2.56-1.23,2.938-2.571c0.439-1.554,0.21-3.672,0.211-5.562c0-5.582-0.09-11.798,0.104-17.002
		c3.784-0.162,8.006-0.242,11.701-0.052c0.155,5.823,0.156,11.429,0.158,17.212c0,1.949,0.084,3.898,0,5.825
		c-0.115,2.621-1.082,4.766-2.047,6.717c-0.308,0.623-0.768,1.151-1.207,1.679c-1.834,2.205-4.1,3.767-6.821,4.828
		c-2.99,1.165-6.992,1.147-9.971,0.21c-5.826-1.833-9.678-6-11.02-12.279c-0.339-1.585-0.372-3.404-0.42-5.405
		c-0.044-1.826,0.151-3.954-0.367-5.458c-0.647-1.876-2.863-3.527-5.457-2.886c-1.217,0.301-2.249,1.194-2.887,2.309
		c-0.877,1.535-0.821,4.511-0.997,6.77c-0.176,2.247-0.867,4.455-1.627,6.087c-1.611,3.465-3.997,6.298-7.188,8.291
		c-3.323,2.075-7.367,3.017-12.646,2.833c-4.892-0.169-8.569-1.668-11.492-3.935c-2.829-2.194-5.101-5.354-6.35-9.131
		c-0.674-2.035-1.155-4.315-0.997-6.664c0.156-2.331,0.616-4.384,1.364-6.35c1.496-3.931,3.793-6.458,6.769-8.711
		c2.191-1.658,4.917-2.925,8.187-3.411C18.645,20.489,21.256,20.663,23.696,20.778z"/>
</g>
<g id="Layer_1">
</g>
</svg>
