<?xml version="1.0" encoding="iso-8859-1"?>
<!-- Generator: Adobe Illustrator 19.2.0, SVG Export Plug-In . SVG Version: 6.00 Build 0)  -->
<svg version="1.1" xmlns="http://www.w3.org/2000/svg" xmlns:xlink="http://www.w3.org/1999/xlink" x="0px" y="0px"
	 viewBox="0 0 63.74 74.826" style="enable-background:new 0 0 63.74 74.826;" xml:space="preserve">
<g id="Conrad_x5F_Bailey">
	<path style="fill-rule:evenodd;clip-rule:evenodd;" d="M37.435,0.166c0.152,12.64,0.099,24.666,0.098,37.409
		c-0.002,12.606,0.045,24.937-0.146,37.214c-4.391,0.24-8.322-0.733-11.804-1.901C18.67,70.566,13.321,66.624,9.049,61.62
		c-3.262-3.819-5.767-8.03-7.463-13.412c-1.658-5.263-2.15-12.21-0.828-18.34c1.636-7.583,5.153-13.438,9.56-18.192
		C13.33,8.652,16.82,5.84,20.999,3.823c4.155-2.005,9.036-3.489,14.73-3.756C36.203,0.046,37.032-0.12,37.435,0.166z"/>
	<path style="fill-rule:evenodd;clip-rule:evenodd;" d="M39.142,74.74c-0.261-1.01-0.146-2.074-0.146-3.121
		c0-14.873,0-30.372,0-45.019c0-1.001-0.154-2.067,0.195-3.023c3.759,0.048,7.493,1.253,10.096,2.634
		c2.828,1.5,5.21,3.249,7.17,5.365c4.349,4.542,8.245,11.464,7.072,20.68c-1.066,8.37-5.171,13.437-10.389,17.851
		c-0.761,0.644-1.978,1.303-2.927,1.806C47.264,73.475,43.464,74.983,39.142,74.74z"/>
</g>
<g id="Layer_1">
</g>
</svg>
