<?xml version="1.0" encoding="iso-8859-1"?>
<!-- Generator: Adobe Illustrator 19.2.0, SVG Export Plug-In . SVG Version: 6.00 Build 0)  -->
<svg version="1.1" xmlns="http://www.w3.org/2000/svg" xmlns:xlink="http://www.w3.org/1999/xlink" x="0px" y="0px"
	 viewBox="0 0 75.345 78.909" style="enable-background:new 0 0 75.345 78.909;" xml:space="preserve">
<g id="conseil_x5F_du_x5F_centenaire_x5F_de_x5F_la_x5F_confederation">
	<path style="fill-rule:evenodd;clip-rule:evenodd;" d="M44.882,11.231c-2.16-0.407-4.581-0.83-7.097-0.844
		c-2.518-0.014-4.937,0.488-7.147,0.794c-0.769-0.931-0.947-2.269-0.844-3.722c0.283-3.949,3.583-7.154,7.692-7.444
		c2.451-0.173,4.857,1.138,6.253,2.73c1.265,1.442,2.186,3.551,2.035,5.856C45.708,9.622,45.503,10.583,44.882,11.231z"/>
	<path style="fill-rule:evenodd;clip-rule:evenodd;" d="M48.406,12.323c0.756-3.553,3.532-5.677,7.245-6.104
		c3.87-0.446,6.934,2.405,7.99,4.913c0.6,1.423,0.82,3.536,0.298,5.31c-0.382,1.296-1.249,2.509-2.184,3.424
		c-0.363,0.355-1.102,1.044-1.489,1.043c-0.484-0.002-0.982-0.858-1.34-1.241c-2.07-2.22-4.415-4.116-7.146-5.608
		C50.684,13.461,49.519,12.986,48.406,12.323z"/>
	<path style="fill-rule:evenodd;clip-rule:evenodd;" d="M27.016,12.273c-0.924,0.564-1.881,1.062-2.828,1.539
		c-2.846,1.431-5.318,3.424-7.444,5.657c-0.511,0.303-0.647,1.14-1.29,1.191c-0.471,0.038-1.176-0.65-1.538-0.992
		c-1.477-1.396-2.738-3.564-2.481-6.502c0.16-1.834,1.261-3.346,2.481-4.516c1.655-1.586,3.59-2.589,6.749-2.283
		c2.431,0.235,4.298,2.046,5.559,3.821C26.637,10.773,26.987,11.291,27.016,12.273z"/>
	<path style="fill-rule:evenodd;clip-rule:evenodd;" d="M8.804,37.533c-2.278,0.417-4.23-0.44-5.608-1.439
		c-1.805-1.309-3.367-3.736-3.176-6.898c0.194-3.204,1.867-5.377,4.069-6.7c1.248-0.75,3.358-1.292,5.459-0.894
		c0.623,0.119,1.524,0.47,2.134,0.794c0.427,0.227,1.544,0.753,1.588,1.34c0.026,0.349-0.517,1.133-0.744,1.538
		c-1.39,2.475-2.361,5.218-3.077,8.337C9.159,34.88,9.151,36.18,8.804,37.533z"/>
	<path style="fill-rule:evenodd;clip-rule:evenodd;" d="M66.718,37.88c-0.279-1.382-0.364-2.741-0.596-4.02
		c-0.69-3.811-2.232-6.985-3.871-9.875c0.882-1.393,2.637-1.943,4.715-2.184c1.804-0.208,3.827,0.632,5.062,1.588
		c1.728,1.339,3.033,3.231,3.275,5.807c0.444,4.728-2.751,7.978-6.699,8.684C68.031,37.983,67.331,38.183,66.718,37.88z"/>
	<path style="fill-rule:evenodd;clip-rule:evenodd;" d="M8.853,41.205c0.395,2.82,0.767,5.094,1.588,7.543
		c0.528,1.573,1.271,3.193,2.135,4.715c0.274,0.484,0.774,1.114,0.744,1.538c-0.042,0.597-1.215,1.231-1.736,1.489
		c-0.785,0.387-1.613,0.639-2.433,0.744c-2.988,0.385-5.253-0.772-6.699-2.184C1.03,53.663-0.17,51.507,0.02,48.6
		c0.095-1.445,0.505-2.663,1.142-3.722c1.112-1.851,3.351-3.603,6.352-3.821C7.95,41.025,8.51,40.919,8.853,41.205z"/>
	<path style="fill-rule:evenodd;clip-rule:evenodd;" d="M66.916,41.404c2.516-0.209,4.498,0.863,5.807,2.134
		c1.55,1.506,2.688,3.75,2.48,6.65c-0.126,1.754-0.744,3.145-1.638,4.317c-1.463,1.923-4.18,3.626-7.642,2.978
		c-1.07-0.2-2.175-0.749-3.077-1.389c-0.271-0.192-0.709-0.418-0.744-0.745c-0.042-0.379,0.521-1.067,0.794-1.539
		c1.714-2.961,3.07-6.447,3.523-10.471c0.07-0.627,0.022-1.315,0.347-1.935C66.817,41.404,66.867,41.404,66.916,41.404z"/>
	<path style="fill-rule:evenodd;clip-rule:evenodd;" d="M15.305,58.128c0.533-0.216,1.05,0.72,1.439,1.141
		c2.41,2.612,5.339,4.646,8.635,6.303c0.525,0.264,1.087,0.506,1.539,0.943c0.131,0.745-0.179,1.287-0.398,1.787
		c-0.945,2.163-2.682,3.894-5.309,4.516c-6.473,1.533-11.531-4.741-9.429-10.62C12.313,60.711,13.856,58.769,15.305,58.128z"/>
	<path style="fill-rule:evenodd;clip-rule:evenodd;" d="M48.058,66.813c0.356-0.523,1.033-0.698,1.588-0.943
		c1.675-0.738,3.337-1.654,4.765-2.68c1.953-1.371,3.647-3.002,5.261-4.714c0.398-0.304,1.165,0.36,1.488,0.645
		c1.448,1.277,2.686,3.255,2.68,6.055c-0.005,2.367-1.137,4.299-2.482,5.756c-1.279,1.387-3.434,2.426-5.806,2.382
		c-2.516-0.046-5.196-1.765-6.303-3.424C48.652,68.993,48.352,68.156,48.058,66.813z"/>
	<path style="fill-rule:evenodd;clip-rule:evenodd;" d="M44.535,67.706c0.877,0.717,0.999,2.028,1.042,3.176
		c0.141,3.73-2.613,6.392-5.161,7.494c-1.026,0.444-2.491,0.615-3.722,0.496c-2.66-0.258-4.664-1.833-5.905-3.722
		c-1.14-1.733-1.958-5.384-0.298-7.444c0.13,0.04,0.129-0.066,0.248-0.05c2.037,0.288,4.407,0.795,6.897,0.795
		C40.087,68.45,42.418,68.077,44.535,67.706z"/>
</g>
<g id="Layer_1">
</g>
</svg>
