<?xml version="1.0" encoding="iso-8859-1"?>
<!-- Generator: Adobe Illustrator 19.2.0, SVG Export Plug-In . SVG Version: 6.00 Build 0)  -->
<svg version="1.1" xmlns="http://www.w3.org/2000/svg" xmlns:xlink="http://www.w3.org/1999/xlink" x="0px" y="0px"
	 viewBox="0 0 81.471 79.211" style="enable-background:new 0 0 81.471 79.211;" xml:space="preserve">
<g id="Constant_x5F_Haute_x5F_Coiffure">
	<path style="fill-rule:evenodd;clip-rule:evenodd;" d="M70.466,63.984c5.006-5.85,8.663-13.102,9.815-22.936
		c0.06-0.51-0.041-1.367,0.65-1.502c0.791,0.127,0.487,0.954,0.451,1.352c-0.747,8.321-3.847,14.857-7.462,20.332
		c-1.473,2.23-3.203,4.252-5.107,6.06c-0.633,0.6-1.318,1.133-1.953,1.753c-2.526,2.466-5.696,4.367-8.864,5.959
		c-6.246,3.14-15.59,5.327-24.889,3.605c-2.123-0.393-4.096-0.835-5.959-1.452c-5.433-1.798-10.075-4.764-13.922-8.313
		C8.095,64.106,3.958,58.294,1.71,50.663c-0.581-1.972-1.071-3.94-1.352-6.109c-0.578-4.464-0.461-9.548,0.4-13.621
		C2.892,20.841,8.109,13.65,14.98,8.047c2.767-2.256,6.008-3.934,9.465-5.358c1.822-0.751,3.648-1.301,5.658-1.753
		c3.388-0.762,7.765-1.163,11.818-0.802c4.701,0.419,8.754,1.761,12.37,3.455c7.2,3.375,12.324,8.678,16.125,15.524
		c1.244,2.241,2.436,4.801,3.154,7.411c1.495,5.431,1.955,12.747,0.451,18.729c-1.38,5.488-3.819,10.267-6.961,14.172
		c-0.828,1.028-1.532,2.033-2.404,2.905c-2.613,2.613-5.709,4.723-9.264,6.51c-4.649,2.337-10.526,4.094-17.277,3.606
		c-6.598-0.477-11.471-2.292-15.975-5.108c-4.357-2.724-7.854-6.272-10.517-10.616c-2.634-4.297-4.702-9.427-5.008-16.075
		C6.3,33.749,7.885,28.186,10.423,23.521c2.491-4.58,5.701-8.185,9.966-11.117c4.154-2.857,8.815-5.082,15.474-5.659
		c6.988-0.606,12.915,1.203,17.178,3.706c5.512,3.237,9.741,7.674,12.669,13.721c0.282,0.583,0.595,1.203,0.802,1.853
		c0.851,2.679,1.543,5.376,1.803,8.713c0.077,0.994,0.209,2.082-0.351,2.153c-0.73,0.093-0.614-0.63-0.651-1.402
		c-0.099-2.069-0.375-3.629-0.65-5.508c-0.163-1.107-0.603-2.247-0.952-3.155c-1.88-4.892-4.753-8.751-8.413-12.019
		c-2.805-2.504-6.449-4.593-10.517-5.859c-4.16-1.294-9.558-1.419-14.522-0.601c-4.32,0.712-8.275,2.815-11.367,5.008
		c-3.244,2.3-5.959,4.913-8.163,8.213c-3.209,4.807-5.493,11.077-5.107,19.33c0.114,2.463,0.628,4.762,1.252,6.911
		c2.442,8.415,7.228,14.548,14.021,18.729c3.372,2.075,7.403,3.688,11.919,4.456c3.689,0.628,7.764,0.465,11.217-0.15
		c1.134-0.202,2.207-0.497,3.255-0.802c8.472-2.461,14.53-7.225,18.83-13.921c2.023-3.151,4.062-7.076,4.958-11.418
		c0.936-4.538,1.228-9.899,0.25-14.773c-0.446-2.223-1.139-4.321-1.903-6.309c-0.742-1.93-1.649-3.851-2.704-5.458
		c-1.09-1.663-2.124-3.381-3.405-4.808c-1.281-1.426-2.538-2.88-4.056-4.106c-3.092-2.497-6.415-4.421-10.417-5.959
		c-3.865-1.486-8.677-2.392-14.071-2.153c-5.034,0.222-9.492,1.341-13.271,3.104c-3.759,1.754-7.166,3.754-9.965,6.41
		C7.924,15.968,3.465,22.483,1.609,31.433c-1.039,5.015-0.761,10.379,0.05,15.023c0.789,4.512,2.501,8.675,4.407,11.969
		c1.919,3.314,4.381,6.715,7.212,9.164c2.941,2.545,6.047,4.886,9.715,6.61c1.864,0.877,3.789,1.724,5.909,2.304
		c2.204,0.603,4.419,1.031,6.811,1.352c5.024,0.674,10.437,0.042,14.772-1.152c5.279-1.454,9.826-3.872,13.672-6.81
		C66.535,68.075,68.44,66.392,70.466,63.984z"/>
	<path style="fill-rule:evenodd;clip-rule:evenodd;" d="M64.807,14.607c2.61,3.279,4.598,6.82,6.109,11.118
		c1.48,4.206,2.246,9.462,1.604,15.073c-0.563,4.911-2.144,9.236-4.257,12.92c-1.056,1.839-2.192,3.562-3.506,5.108
		c-3.894,4.584-9.03,8.144-15.624,10.116c-4.469,1.336-10.117,1.679-15.273,0.701c-4.74-0.898-8.611-2.821-12.019-5.158
		c-3.34-2.29-6.11-5.458-8.312-8.864c-2.231-3.448-3.889-7.868-4.507-12.669c-0.697-5.414,0.039-11.007,1.702-14.974
		c3.272-7.799,9.169-14.092,17.177-17.176c4.131-1.591,9.839-2.494,14.923-1.653c4.78,0.79,8.841,2.711,12.069,5.108
		c4.851,3.602,8.548,8.637,10.466,15.324c0.485,1.692,0.78,3.508,0.901,5.559c0.029,0.491,0.338,1.342-0.3,1.703
		c-0.814-0.007-0.671-0.909-0.701-1.353c-0.648-9.408-4.895-15.613-10.616-20.081C50.321,12.035,43.77,9.236,35.813,10
		c-7.369,0.707-12.422,3.664-16.877,7.662c-2.938,2.636-5.292,5.936-6.86,9.515c-1.67,3.808-2.64,8.26-2.254,13.921
		c0.341,5,1.731,9.018,3.706,12.62c1.84,3.354,4.479,6.492,7.512,8.864c4.626,3.618,10.176,6.308,17.928,6.661
		c2.47,0.112,5.062-0.268,7.411-0.751c4.353-0.897,8.355-2.631,11.468-4.858c6.365-4.553,11.141-10.908,13.07-19.681
		c1-4.543,0.971-10.141-0.05-14.723c-0.701-3.15-1.978-6.236-3.455-8.814c-0.491-0.857-0.888-1.789-1.452-2.604
		c-3.248-4.686-7.765-8.783-13.271-11.317C49.1,4.842,44.488,3.34,39.468,3.339c-2.698,0-5.079,0.148-7.562,0.601
		c-4.541,0.829-8.344,2.503-11.719,4.607c-6.545,4.08-11.877,10.11-14.823,17.928C3.859,30.47,3.026,35.25,3.212,40.598
		c0.173,5,1.443,9.383,3.105,13.221c3.339,7.71,8.598,13.034,15.524,17.227c0.815,0.493,1.777,0.913,2.754,1.352
		c0.952,0.427,1.843,0.926,2.855,1.252c3.954,1.272,8.828,2.516,14.071,2.153c7.534-0.522,13.623-2.806,18.629-5.909
		c6.665-4.131,11.761-10.135,14.974-17.728c1.426-3.371,2.522-7.016,2.904-11.418c0.04-0.458-0.046-1.256,0.802-1.202
		c0.679,0.144,0.438,0.931,0.4,1.302c-0.767,7.698-3.599,14.223-7.161,19.23c-2.002,2.813-4.14,5.318-6.661,7.462
		c-2.538,2.159-5.377,3.982-8.513,5.559c-6.02,3.027-14.834,4.879-23.637,3.255c-7.559-1.394-13.906-4.771-18.829-9.314
		c-4.806-4.435-8.701-10.31-10.767-17.427c-1.094-3.77-1.668-8.158-1.503-12.569c0.167-4.443,1.232-8.16,2.504-11.568
		c1.228-3.291,3.053-6.306,5.108-9.014c4.019-5.296,9.457-9.451,16.125-12.018c1.756-0.677,3.552-1.15,5.509-1.553
		c1.958-0.403,4.208-0.616,6.51-0.701c6.402-0.235,11.759,1.586,15.976,3.706C58.307,8.114,61.909,11.019,64.807,14.607z"/>
	<path style="fill-rule:evenodd;clip-rule:evenodd;" d="M76.475,39.546c0.691,0.209,0.383,1.357,0.301,2.003
		c-0.64,5.07-2.275,9.56-4.256,13.221c-2.354,4.348-5.29,8.141-8.764,11.168c-2.497,1.927-5.188,3.659-8.113,5.158
		c-3.815,1.776-8.115,3.008-13.221,3.405c-5.397,0.419-10.362-0.479-14.473-1.953C20.1,69.73,13.612,64.285,9.672,57.624
		c-1.985-3.358-3.831-7.473-4.606-12.018c-0.849-4.972-0.793-10.476,0.4-15.024c1.164-4.438,2.861-8.156,5.157-11.468
		c2.262-3.262,5.094-5.994,8.264-8.313c5.243-3.859,11.627-6.221,20.382-6.36c2.823-0.045,5.491,0.569,7.861,1.252
		c6.984,2.011,12.508,5.959,16.376,10.917c1.897,2.247,3.212,4.657,4.407,7.562c0.379,0.921,0.785,1.848,1.102,2.854
		c1.278,4.063,1.886,8.968,1.252,14.072c-0.403,3.242-1.449,6.574-2.755,9.214c-0.446,0.904-0.818,1.856-1.302,2.654
		c-2.013,3.327-4.564,6.292-7.411,8.513c-2.947,2.299-6.41,4.282-10.517,5.408c-4.178,1.147-9.46,1.539-14.222,0.601
		c-4.346-0.856-7.969-2.6-11.067-4.857c-3.098-2.256-5.617-4.958-7.662-8.263c-2.007-3.242-3.669-7.182-4.206-11.719
		c-1.254-10.569,2.626-18.355,7.861-23.486c4.042-3.96,8.987-7.011,15.976-7.912c7.822-1.009,14.245,1.515,18.679,4.807
		c4.476,3.324,8.058,8.018,9.665,14.222c0.264,1.018,0.501,2.074,0.651,3.355c0.11,0.946,0.52,3.237-0.301,3.255
		c-0.576,0.013-0.566-0.806-0.602-1.352c-0.272-4.285-1.302-7.521-2.904-10.416c-1.777-3.21-4.249-6.079-7.11-8.163
		c-4.159-3.029-10.307-5.615-17.878-4.607c-6.675,0.889-11.454,3.59-15.374,7.512c-2.638,2.638-4.692,5.512-6.109,9.114
		c-1.474,3.747-2.171,8.273-1.603,13.17c0.512,4.417,1.976,8.13,3.906,11.317c3.815,6.3,9.788,10.997,17.627,12.87
		c4.366,1.043,9.561,0.767,13.571-0.3c8.135-2.165,13.607-6.692,17.678-12.82c1.026-1.545,1.766-3.247,2.503-5.108
		c0.728-1.833,1.275-3.8,1.703-5.909c0.89-4.385,0.476-9.679-0.65-13.621c-1.159-4.057-2.595-7.357-4.908-10.316
		c-4.588-5.867-10.25-10.169-18.479-12.019c-6.646-1.494-14.555-0.417-19.53,1.953c-1.766,0.841-3.359,1.702-4.908,2.705
		C14.58,14.794,9.642,20.609,7.168,27.977c-1.297,3.865-2.03,8.407-1.652,13.321c0.711,9.236,4.428,15.989,9.164,21.333
		c3.494,3.943,8.403,7.007,13.872,9.014c1.861,0.683,3.91,1.143,6.109,1.502c4.404,0.719,9.56,0.367,13.771-0.651
		c6.17-1.493,10.928-4.321,15.073-7.812c1.388-1.169,2.544-2.445,3.756-3.856c4.269-4.972,7.659-11.737,8.563-20.031
		C75.872,40.369,75.733,39.544,76.475,39.546z"/>
</g>
<g id="Layer_1">
</g>
</svg>
