<?xml version="1.0" encoding="iso-8859-1"?>
<!-- Generator: Adobe Illustrator 19.2.0, SVG Export Plug-In . SVG Version: 6.00 Build 0)  -->
<svg version="1.1" xmlns="http://www.w3.org/2000/svg" xmlns:xlink="http://www.w3.org/1999/xlink" x="0px" y="0px"
	 viewBox="0 0 78.783 72.245" style="enable-background:new 0 0 78.783 72.245;" xml:space="preserve">
<g id="Consorzio_x5F_Vini_x5F_di_x5F_Carema">
	<path style="fill-rule:evenodd;clip-rule:evenodd;" d="M78.732,29.279c-4.706,0.15-10.33,0.146-15.122,0.05
		c-0.443-0.361-0.536-0.981-0.703-1.457c-1.305-3.727-3.283-6.717-5.777-9.345c-4.135-4.356-10.007-7.504-18.539-7.335
		c-2.57,0.051-5.16,0.645-7.234,1.407c-4.232,1.555-7.66,3.889-10.248,6.983c-4.274,4.708-7.618,12.799-5.677,21.855
		c1.556,7.261,6.391,13.403,12.258,16.478c3.187,1.671,6.748,3.064,11.304,3.064c4.612,0,8.502-0.862,11.706-2.562
		c5.365-2.846,9.604-7.32,11.856-13.313c0.316-0.84,0.503-1.756,1.005-2.562c4.793-0.042,10.222-0.202,15.223,0
		c-0.204,1.943-0.784,3.736-1.407,5.426c-1.86,5.045-4.463,9.381-7.987,12.811c-4.096,4.245-8.879,7.182-15.022,9.244
		c-1.489,0.499-3.174,0.823-4.874,1.206c-4.921,1.108-11.005,1.336-16.629,0.553c-7.008-0.977-12.996-3.073-17.785-6.481
		c-4.754-3.383-8.557-7.746-11.204-13.012C1.252,47.07-0.729,40.19,0.258,32.143c0.435-3.546,1.232-6.739,2.462-9.646
		c1.19-2.815,2.629-5.477,4.371-7.737c1.762-2.288,3.639-4.508,5.928-6.229c1.167-0.877,2.259-1.793,3.517-2.562
		c4.956-3.033,11.151-5.101,18.438-5.778c4.61-0.428,9.452-0.101,13.615,0.653c4.85,0.879,8.932,2.224,12.561,4.22
		c8.075,4.443,13.872,11.389,16.88,20.95C78.355,27.051,78.786,28.124,78.732,29.279z"/>
	<path style="fill-rule:evenodd;clip-rule:evenodd;" d="M41.153,13.102c0.167,1.733,0.165,4.144,0,5.878
		c-0.82,0.139-2.375,0.219-3.115-0.05c-0.052-1.811-0.147-4.1,0.05-5.828C38.961,12.899,40.276,12.911,41.153,13.102z"/>
	<path style="fill-rule:evenodd;clip-rule:evenodd;" d="M38.44,21.341c2.698-0.483,5.084,0.976,6.18,2.612
		c0.56,0.836,1.031,2.119,1.055,3.316c0.049,2.438-1.344,4.388-2.964,5.376c-1.772,1.08-4.591,0.889-6.129-0.05
		c-0.913-0.557-2-1.751-2.361-2.663C32.592,25.822,34.896,22.322,38.44,21.341z"/>
	<path style="fill-rule:evenodd;clip-rule:evenodd;" d="M52.507,21.341c2.23-0.33,3.917,0.652,4.923,1.658
		c0.92,0.92,1.84,2.508,1.758,4.522c-0.12,2.964-2.092,5.211-4.772,5.727c-3.625,0.698-6.983-2.168-7.034-5.928
		c-0.025-1.893,0.963-3.582,1.909-4.471C50.046,22.139,51.168,21.562,52.507,21.341z"/>
	<path style="fill-rule:evenodd;clip-rule:evenodd;" d="M25.378,21.392c2.71-0.24,4.457,1.204,5.476,2.863
		c0.488,0.795,0.938,1.873,0.955,3.115c0.036,2.704-1.37,4.402-2.964,5.325c-0.727,0.42-2.073,0.784-2.914,0.804
		c-2.889,0.069-4.844-1.712-5.627-3.567c-1.589-3.765,0.977-7.528,3.919-8.39C24.519,21.455,24.944,21.43,25.378,21.392z"/>
	<path style="fill-rule:evenodd;clip-rule:evenodd;" d="M31.909,33.65c0.929-0.099,2.202,0.092,2.964,0.452
		c1.693,0.8,3.268,2.329,3.566,4.471c0.391,2.805-1.015,5.01-2.713,6.079c-3.581,2.254-7.873,0.158-8.942-3.416
		c-0.443-1.48-0.058-3.449,0.452-4.421C27.991,35.378,29.702,33.886,31.909,33.65z"/>
	<path style="fill-rule:evenodd;clip-rule:evenodd;" d="M46.127,33.75c0.444-0.048,1.444-0.046,1.909,0.05
		c2.884,0.599,5.598,3.694,4.521,7.536c-0.76,2.713-4.289,5.514-8.089,3.869c-1.802-0.78-3.533-2.843-3.567-5.476
		c-0.015-1.171,0.596-2.728,0.955-3.316C42.618,35.163,44.247,33.951,46.127,33.75z"/>
	<path style="fill-rule:evenodd;clip-rule:evenodd;" d="M43.866,56.057c-1.421,1.535-4.083,2.27-6.28,1.507
		c-1.889-0.656-3.53-2.533-3.919-4.622c-0.501-2.697,0.736-5.086,2.763-6.38c3.775-2.411,8.749,0.373,9.144,4.421
		C45.812,53.42,44.913,54.697,43.866,56.057z"/>
</g>
<g id="Layer_1">
</g>
</svg>
