<?xml version="1.0" encoding="iso-8859-1"?>
<!-- Generator: Adobe Illustrator 21.0.2, SVG Export Plug-In . SVG Version: 6.00 Build 0)  -->
<svg version="1.1" xmlns="http://www.w3.org/2000/svg" xmlns:xlink="http://www.w3.org/1999/xlink" x="0px" y="0px"
	 viewBox="0 0 14.705 14.555" style="enable-background:new 0 0 14.705 14.555;" xml:space="preserve">
<g id="Constructions_x5F_Metalique">
	<path d="M11.791,0.013c0.971-0.006,1.943,0.013,2.914-0.01c-0.005,1.999,0.003,3.999-0.004,5.999
		c-0.018,1.243-0.003,2.487-0.008,3.732c-0.007,1.605,0.015,3.209,0.012,4.813c-2.611,0.009-5.222,0.01-7.833,0.008
		c-0.227-0.002-0.453,0.005-0.68-0.008c0.001-1.972,0-3.943,0-5.914c0.03-0.519,0.022-1.039,0.011-1.558
		C6.035,7.167,5.928,7.336,5.777,7.452c-0.239,0.183-0.428,0.42-0.663,0.606C4.903,8.23,4.732,8.443,4.519,8.612
		C4.309,8.78,4.139,8.991,3.931,9.161C3.709,9.333,3.532,9.555,3.313,9.73c-0.205,0.161-0.367,0.368-0.571,0.529
		c-0.147,0.116-0.275,0.253-0.407,0.384c-0.132,0.133-0.286,0.24-0.418,0.373c-0.117,0.118-0.232,0.239-0.362,0.342
		c-0.221,0.172-0.394,0.397-0.615,0.569c-0.206,0.163-0.369,0.37-0.574,0.533c-0.123,0.099-0.234,0.212-0.348,0.32
		c0-1.382,0-2.764,0-4.146c0-0.119-0.018-0.236-0.017-0.355c0-1.89,0.001-3.779,0-5.668c0.033-0.865,0.01-1.731,0.017-2.597
		C0.867,0.003,1.717,0.028,2.567,0C4.412,0.001,6.257,0,8.102,0C9.331,0.025,10.561,0.007,11.791,0.013z M2.507,2.535
		c0,1.08,0,2.161,0,3.241c0.02,0.401,0.01,0.803,0.012,1.204c0.11-0.1,0.222-0.199,0.336-0.294c0.201-0.179,0.376-0.387,0.593-0.549
		c0.215-0.196,0.41-0.414,0.641-0.593c0.311-0.32,0.663-0.596,0.972-0.919c0.279-0.214,0.504-0.489,0.78-0.708
		c0.182-0.154,0.335-0.34,0.522-0.49c0.222-0.174,0.398-0.398,0.619-0.574c0.124-0.1,0.238-0.211,0.345-0.329
		C6.853,2.527,6.379,2.522,5.904,2.527c-0.395-0.01-0.791,0.025-1.186-0.003c-0.16,0.014-0.322,0.009-0.483,0.009
		C3.659,2.535,3.083,2.533,2.507,2.535z M7.38,2.526C7.525,2.68,7.677,2.828,7.844,2.958c0.413,0.396,0.851,0.762,1.265,1.157
		c0.209,0.153,0.37,0.36,0.579,0.513c0.87,0.792,1.742,1.581,2.615,2.37c0.007-1.487,0.001-2.974,0.003-4.461
		c-0.141-0.003-0.281-0.013-0.421-0.012C10.383,2.526,8.881,2.524,7.38,2.526z M8.653,7.028c-0.009,1.649,0,3.297-0.004,4.946
		c0.012,0.087-0.05,0.197,0.036,0.259c1.181,0.007,2.363,0.002,3.544,0.002c0.067,0.007,0.104-0.071,0.091-0.128
		c-0.001-0.58,0-1.16,0-1.74c-0.178-0.197-0.402-0.343-0.582-0.537C10.704,8.904,9.684,7.959,8.653,7.028z"/>
</g>
<g id="Layer_1">
</g>
</svg>
