<?xml version="1.0" encoding="iso-8859-1"?>
<!-- Generator: Adobe Illustrator 19.2.0, SVG Export Plug-In . SVG Version: 6.00 Build 0)  -->
<svg version="1.1" xmlns="http://www.w3.org/2000/svg" xmlns:xlink="http://www.w3.org/1999/xlink" x="0px" y="0px"
	 viewBox="0 0 72.643 83.27" style="enable-background:new 0 0 72.643 83.27;" xml:space="preserve">
<g id="Continental_x5F_Savings_x5F_and_x5F_Loan_x5F_US">
	<path style="fill-rule:evenodd;clip-rule:evenodd;" d="M41.117,0.097c0.358,1.618-0.048,4.292,0.251,6.23
		c1.066,0.247,2.247,0.15,3.417,0.15c3.542,0,7.369,0,10.952,0c2.621,0,5.037-0.172,7.134,0.151c2.087,0.321,3.673,1.088,5.125,2.16
		c2.977,2.198,4.622,5.089,4.622,9.948c0,3.524,0,7.317,0,10.952c0,1.17,0.119,2.35-0.15,3.467c-3.501,0.2-7.569,0.101-11.153,0.05
		c-0.265-0.879-0.151-1.927-0.151-2.964c0-0.997,0-2.031,0-3.064c0-2.157,0.236-4.456-0.1-6.079
		c-0.277-1.335-1.372-2.727-2.613-3.065c-1.158-0.315-2.697-0.201-4.12-0.201c-4.102,0-9.036,0.045-12.912,0.101
		c-0.301,0.841-0.129,2.412-0.101,3.417c1.188,0.269,2.568,0.15,3.969,0.15c1.337,0,2.699,0.034,4.019,0.05
		c2.677,0.034,5.518-0.39,6.983,1.106c1.39,1.071,1.206,3.486,1.205,6.229c0,1.602,0.116,3.253-0.15,4.421
		c-2.997,0.128-6.604,0.009-9.847,0.05c-0.506-0.509-0.493-1.212-1.256-1.507c-1.23-0.475-3.214,0.103-4.672-0.05
		c-0.278,1.016-0.182,2.87-0.05,3.969c2.043,0.192,4.404,0.151,6.733,0.151c2.808,0,5.796-0.375,7.435,0.703
		c0.612,0.402,1.092,0.88,1.407,1.608c0.523,1.209,0.383,3.736,0.402,5.526c0.043,4.112,0,7.538,0,11.455
		c0,2.038,0.309,5.02-0.653,6.129c-0.966,1.113-2.959,0.954-5.024,0.954c-3.587,0-7.289-0.075-10.4,0.05
		c-0.276,0.801-0.183,2.433-0.05,3.316c0.604,0.337,1.368,0.201,2.06,0.201c3.687,0.001,7.488,0,11.304,0
		c1.486,0,3.198,0.231,4.22-0.201c0.915-0.386,1.757-1.387,2.06-2.462c0.249-0.884,0.201-2.054,0.201-3.165
		c0.001-3.207-0.041-7,0.05-10.048c1.588-0.195,3.575-0.151,5.577-0.151c1.978,0,4.062-0.099,5.677,0.151
		c0.185,4.828,0.101,9.792,0.101,14.469c0,4.646-1.742,7.778-4.572,9.947c-1.41,1.08-3.223,1.648-5.175,2.11
		c-2.013,0.476-4.438,0.252-6.983,0.252c-4.771,0-9.846-0.042-14.469,0.05c-0.41,1.725,0.076,4.42-0.251,6.28
		c-0.768,0.202-1.663,0.1-2.562,0.1c-0.86,0-1.757-0.009-2.612,0c-1.756,0.019-3.636,0.213-5.225-0.1
		c-0.293-1.851,0.09-4.378-0.201-6.229c-0.947-0.266-1.978-0.151-2.964-0.151c-2.91,0-6.052-0.001-9.093,0
		c-4.341,0-7.907-0.06-10.852-1.507c-1.407-0.692-2.654-1.593-3.617-2.612c-1.908-2.019-3.381-5.107-3.818-8.541
		c-0.227-1.782-0.136-3.696-0.151-5.928c-0.076-11.653-0.05-24.631-0.05-36.876c0-2.159-0.161-4.116,0.402-5.778
		c0.537-1.586,1.129-2.884,2.06-4.119c1.109-1.782,2.612-2.84,4.421-3.818c1.946-1.052,4.016-1.106,7.134-1.106
		c5.359,0,11.238,0.042,16.428-0.05c0.461-1.593-0.017-4.351,0.302-6.229C34.291-0.006,37.661-0.066,41.117,0.097z M15.646,17.832
		c-0.989,0.046-1.793,0.021-2.462,0.352c-0.589,0.291-1.239,0.899-1.507,1.608c-0.457,1.207-0.239,3.476-0.201,5.125
		c0.087,3.738-0.008,6.918-0.05,10.248c-0.068,5.375-0.004,10.599,0.05,15.775c0.02,1.837,0,3.644,0,5.426
		c0,1.805-0.145,3.649,0,5.426c0.142,1.729,1.128,2.958,2.361,3.567c1.214,0.6,3.084,0.452,4.924,0.452c3.339,0,6.892,0,9.947,0
		c0.621,0,1.301,0.115,1.859-0.15c0.156-1.009,0.113-2.367-0.05-3.316c-2.026-0.197-4.349-0.101-6.682-0.101
		c-3.714,0-7.664,0.58-8.591-2.11c-0.461-1.338-0.201-3.379-0.201-5.175c0-1.864-0.156-3.648,0.1-5.125
		c2.976-0.195,6.752-0.106,9.646-0.05c0.281,0.625,0.086,1.251,0.653,1.607c0.481,0.303,1.674,0.201,2.562,0.201
		c0.994,0,2.007,0.051,2.612-0.151c0.166-1.264,0.166-3.207,0-4.471c-5.535-0.864-13.994,1.618-15.424-3.366
		c-0.349-1.216-0.201-2.976-0.201-4.622c0-3.283,0-6.429,0-9.646c0-2.267-0.269-5.146,0.553-6.481
		c0.969-1.403,2.751-1.372,4.923-1.406c3.333-0.054,7.132,0.2,10.048-0.101c0.162-0.921,0.167-2.497,0-3.417
		C25.571,17.825,20.533,17.605,15.646,17.832z M26.146,31.698c-0.451,0.013-0.929,0.618-1.005,0.804
		c-0.285,0.692-0.195,1.995,0,2.512c0.372,0.987,1.724,0.854,3.115,0.854c0.831,0,1.679,0.075,2.311-0.101
		c0.272-0.993,0.191-2.845,0.05-3.918C29.288,31.75,27.463,31.659,26.146,31.698z M46.744,50.789
		c0.279-0.642,0.325-2.405,0.05-3.064c-0.609-1.459-3.209-0.635-5.075-0.854c-0.059,0.024-0.114,0.054-0.15,0.101
		c-0.251,0.31-0.151,1.493-0.151,2.261c0,0.888-0.07,1.736,0.1,2.261C43.198,51.522,46.176,52.098,46.744,50.789z"/>
</g>
<g id="Layer_1">
</g>
</svg>
