<?xml version="1.0" encoding="iso-8859-1"?>
<!-- Generator: Adobe Illustrator 19.2.0, SVG Export Plug-In . SVG Version: 6.00 Build 0)  -->
<svg version="1.1" xmlns="http://www.w3.org/2000/svg" xmlns:xlink="http://www.w3.org/1999/xlink" x="0px" y="0px"
	 viewBox="0 0 153.106 166.674" style="enable-background:new 0 0 153.106 166.674;" xml:space="preserve">
<g id="Continental_x5F_Can">
	<path style="fill-rule:evenodd;clip-rule:evenodd;" d="M137.955,47.485c-1.049-1.253-1.912-2.638-2.861-3.94
		c-2.823-3.875-6.237-7.399-9.897-10.507c-4.897-4.159-10.381-7.774-16.746-10.46c-6.165-2.602-13.724-4.764-22.047-5.16
		C77.669,17,69.497,18.261,62.621,20.513c-8.545,2.797-15.774,6.793-21.953,12.055c-3.645,3.103-7.074,6.554-9.991,10.414
		c-7.706,10.195-13.649,23.235-13.65,40.716c-0.001,8.735,1.73,16.356,4.269,22.938c2.558,6.63,5.931,12.322,9.851,17.356
		c2.973,3.817,6.383,7.167,10.085,10.32c6.088,5.184,13.492,9.184,22.047,11.914c6.854,2.188,15.448,3.475,24.11,2.814
		c8.315-0.634,15.456-2.755,21.719-5.488c6.332-2.763,11.714-6.421,16.559-10.648c4.834-4.217,8.948-9.127,12.524-14.635
		c0.582,0.035,1.398,0.741,2.018,1.125c3.125,1.943,6.192,3.829,9.287,5.723c1.237,0.757,2.47,1.493,3.612,2.345
		c-1.2,2.188-2.666,4.229-4.175,6.192c-7.417,9.652-16.635,17.972-28.004,23.688c-1.143,0.574-2.229,1.243-3.378,1.783
		c-3.51,1.648-7.262,2.926-11.305,4.175c-10.05,3.104-24.528,4.506-36.87,2.298c-11.717-2.096-21.681-5.946-29.974-11.352
		c-8.371-5.232-15.841-11.746-21.813-19.561c-3.018-3.948-5.686-8.066-8.115-12.572c-1.216-2.256-2.193-4.629-3.283-7.036
		c-1.089-2.402-1.847-5.029-2.627-7.693C2.029,102.15,0.822,96.289,0.28,89.983c-0.559-6.502-0.259-13.434,0.703-19.373
		C2.9,58.776,6.635,48.596,11.913,40.214c6.098-10.039,13.884-18.297,23.267-25.002c6.633-4.74,14.306-8.723,22.984-11.399
		c6.217-1.916,12.805-3.105,20.452-3.659C83.92-0.23,89.916,0.139,94.799,0.858c9.954,1.466,18.191,4.287,25.706,8.209
		c7.417,3.871,14.014,8.385,19.748,14.12c1.129,1.129,2.305,2.212,3.424,3.377c2.23,2.32,4.09,4.685,6.145,7.412
		c0.455,0.603,0.91,1.244,1.408,1.97c0.356,0.52,1.345,1.653,1.312,2.064c-0.028,0.374-1.411,1.114-1.734,1.313
		C146.424,42.021,142.495,44.932,137.955,47.485z"/>
	<path style="fill-rule:evenodd;clip-rule:evenodd;" d="M131.528,51.566c-0.403,0.612-1.121,0.889-1.688,1.266
		c-3.495,2.331-7.267,4.426-10.742,6.989c-0.211,0.156-0.559,0.356-0.891,0.563c-0.309,0.193-0.756,0.532-0.938,0.516
		c-0.301-0.027-0.665-0.789-0.938-1.172c-4.374-6.162-10.195-10.974-17.497-14.12c-3.99-1.719-8.314-2.817-13.697-3.19
		c-5.514-0.382-10.497,0.439-14.729,1.923c-2.167,0.76-4.153,1.474-6.004,2.439c-9.077,4.738-15.951,12.145-19.748,22.375
		c-0.741,1.998-1.426,4.176-1.877,6.567c-0.221,1.172-0.288,2.521-0.375,3.847c-0.218,3.319-0.197,6.706,0.234,9.804
		c0.091,0.646,0.091,1.31,0.188,1.923c0.367,2.307,1.098,4.58,1.877,6.567c3.107,7.921,8.145,14.295,14.776,18.904
		c6.547,4.551,14.917,8.024,26.174,7.364c5.229-0.307,9.605-1.649,13.51-3.33c5.946-2.562,10.585-6.163,14.541-10.742
		c0.99-1.146,1.835-2.229,2.767-3.565c0.195-0.279,0.729-1.096,0.938-1.125c0.329-0.046,1.621,0.83,1.923,1.032
		c0.689,0.457,1.222,0.851,1.736,1.172c3.314,2.069,6.438,3.979,9.897,6.099c0.238,0.146,0.763,0.42,0.797,0.656
		c0.051,0.343-0.636,1.18-0.891,1.548c-2.294,3.314-4.931,6.478-7.646,9.194c-3.277,3.277-6.83,5.992-10.836,8.443
		c-3.984,2.439-8.407,4.459-13.369,5.91c-4.981,1.457-10.483,2.379-16.887,2.346c-6.262-0.033-11.746-1.118-16.699-2.58
		c-4.903-1.447-9.279-3.638-13.229-6.051c-8.04-4.914-14.296-11.606-19.139-19.373c-4.263-6.838-7.458-15.057-8.442-25.331
		c-0.144-1.492-0.283-3.116-0.188-4.597c0.099-1.544,0.026-3.071,0.094-4.55c0.198-4.372,1.092-8.617,2.158-12.29
		c2.129-7.335,5.508-13.712,9.663-19.232c4.057-5.389,9.13-10.253,14.916-13.932c3.891-2.474,8.289-4.576,13.088-6.192
		c4.863-1.638,10.262-2.626,16.324-2.908c6.117-0.285,12.583,0.621,17.402,2.017C113.18,31.124,124.058,39.8,131.528,51.566z"/>
	<path style="fill-rule:evenodd;clip-rule:evenodd;" d="M110.794,64.981c-0.402,0.653-1.176,0.921-1.782,1.313
		c-1.833,1.186-3.637,2.429-5.535,3.659c-1.873,1.213-3.72,2.315-5.676,3.565c-0.243,0.155-1.542,1.158-1.923,1.126
		c-0.244-0.021-0.543-0.565-0.751-0.844c-2.412-3.235-5.938-5.72-11.07-6.192c-6.028-0.554-10.396,2.213-13.181,5.488
		c-1.886,2.217-3.395,5.155-3.472,9.053c-0.08,4.089,1.05,7.18,2.908,9.663c2.595,3.466,6.702,6.239,12.571,6.239
		c3.811,0,7.04-1.536,9.288-3.284c1.173-0.912,2.021-2.068,3.143-3.096c2.665,1.523,5.24,3.206,7.834,4.831
		c2.595,1.627,5.281,3.089,7.787,4.832c-0.601,1.239-1.434,2.298-2.252,3.284c-4.106,4.948-9.636,8.946-16.699,10.977
		c-2.928,0.842-6.12,1.22-9.851,1.22c-3.504,0-6.642-0.644-9.476-1.595c-2.797-0.94-5.314-2.071-7.552-3.519
		c-4.386-2.836-8.321-6.651-10.931-11.164c-2.773-4.799-4.69-10.357-4.69-17.45c0-7.08,2.049-12.559,4.879-17.215
		c2.819-4.641,6.464-8.271,11.023-11.117c3.969-2.478,8.6-4.406,14.494-4.878c0.843-0.067,1.84-0.179,2.721-0.188
		c6.946-0.068,12.571,2.008,17.122,4.597C104.386,56.939,108.007,60.572,110.794,64.981z"/>
</g>
<g id="Layer_1">
</g>
</svg>
