<?xml version="1.0" encoding="iso-8859-1"?>
<!-- Generator: Adobe Illustrator 19.2.0, SVG Export Plug-In . SVG Version: 6.00 Build 0)  -->
<svg version="1.1" xmlns="http://www.w3.org/2000/svg" xmlns:xlink="http://www.w3.org/1999/xlink" x="0px" y="0px"
	 viewBox="0 0 183.505 118.782" style="enable-background:new 0 0 183.505 118.782;" xml:space="preserve">
<g id="Continental_x5F_Petroleum">
	<path style="fill-rule:evenodd;clip-rule:evenodd;" d="M86.076,0.297c0.187,6.83,0.101,13.959,0.102,21.035
		c0.001,7.045,0.102,14.096-0.102,20.678c0.008,0.059-0.012,0.091-0.052,0.102c-12.41,0.125-24.804,0-37.332,0
		c-2.199,0-4.109-0.094-5.45,0.866c-1.148,0.822-2.21,2.089-2.139,4.125c0.065,1.886,1.1,3.236,2.292,4.023
		c1.365,0.902,3.282,0.793,5.398,0.815c1.995,0.021,4.154,0,6.315,0c9.335,0,18.641,0.102,28.012,0.102
		c0.987,0,2.012-0.117,2.955,0.152c0.212,13.127,0.233,26.931,0.051,40.694c-0.797,0.273-1.676,0.153-2.496,0.153
		c-2.479,0-5.109-0.051-7.741-0.051c-10.282,0.001-20.878,0.052-30.915-0.102c-13.658-0.208-22.755-5.26-29.948-11.816
		c-3.012-2.849-5.623-5.958-7.843-9.575c-4.259-6.938-7.652-16.158-7.131-27.656c0.235-5.182,1.317-10.222,2.954-14.414
		C6.243,21.14,11.291,14.59,17.778,9.413c1.653-1.319,3.299-2.506,5.143-3.565c4.555-2.614,9.884-4.601,16.247-5.45
		c1.323-0.177,2.832-0.24,4.228-0.306c3.552-0.168,7.206-0.071,10.797,0C64.578,0.299,75.539-0.062,86.076,0.297z"/>
	<path style="fill-rule:evenodd;clip-rule:evenodd;" d="M137.517,93.246c-0.278,0.996-0.153,2.061-0.153,3.107
		c0,7.322,0.06,14.854-0.102,22.308c-10.167,0.238-20.726,0.051-31.017,0.051c-3.432,0-6.854,0.116-10.187-0.153
		c-0.256-21.866-0.152-43.599-0.103-66.262c0.046-0.022,0.091-0.044,0.103-0.102c12.325-0.113,25.263,0,37.943,0
		c2.36,0,4.245,0.132,5.704-0.764c1.286-0.789,2.281-2.045,2.343-4.074c0.061-1.997-0.993-3.375-2.189-4.177
		c-1.397-0.936-3.372-0.815-5.603-0.815c-8.354,0.001-17.034-0.102-25.567-0.101c-4.259,0-8.593,0.12-12.682-0.153
		c-0.187-12.666-0.103-26.197-0.103-39.268c0-0.807-0.099-2.228,0.153-2.496c0.037-0.048,0.093-0.077,0.152-0.102
		c14.099-0.024,28.37,0.103,42.171,0.102c4.491,0,8.73,0.642,12.428,1.731c10.803,3.184,18.7,9.674,24.498,17.979
		c3.851,5.518,6.78,12.279,7.792,20.525c0.54,4.398,0.573,8.994-0.102,13.242c-0.663,4.17-1.662,7.791-3.005,11.154
		c-3.92,9.818-10.988,17.63-19.863,22.613C154.055,91.005,146.85,93.307,137.517,93.246z"/>
</g>
<g id="Layer_1">
</g>
</svg>
