<?xml version="1.0" encoding="iso-8859-1"?>
<!-- Generator: Adobe Illustrator 19.2.0, SVG Export Plug-In . SVG Version: 6.00 Build 0)  -->
<svg version="1.1" xmlns="http://www.w3.org/2000/svg" xmlns:xlink="http://www.w3.org/1999/xlink" x="0px" y="0px"
	 viewBox="0 0 78.899 47.983" style="enable-background:new 0 0 78.899 47.983;" xml:space="preserve">
<g id="Cooperativa_x5F_Central_x5F_dos_x5F_Produtores_x5F_de_x5F_cucar_x5F_e_x5F_Alcool_x5F_do_x5F_Estado_x5F_de_x5F_Sao_x5F_Paulo">
	<path style="fill-rule:evenodd;clip-rule:evenodd;" d="M37.015,0.307c-0.057,0.849-0.649,1.467-1.062,2.125
		c-0.408,0.649-0.779,1.365-1.164,2.023c-0.77,1.316-1.453,2.721-2.479,3.845c-3.264,0.068-7.143-0.064-10.623,0.102
		c-3.592,0.171-7.351-0.438-9.611,1.163c-1.791,1.166-2.91,2.512-3.491,4.602c-0.643,2.317,0.037,4.642,0.86,6.627
		c0.778,1.877,1.698,3.593,2.833,5.261c1.078,1.585,2.216,3.136,3.743,4.351c1.622,1.289,3.742,1.824,6.374,1.719
		c6.504-0.258,13.188,0.051,19.879,0.051c1.252,0.001,3.115-0.251,3.946,0.051c0.546,0.199,0.874,1.162,1.264,1.872
		c0.776,1.409,1.541,2.594,2.327,3.945c0.399,0.686,0.902,1.332,1.012,2.125c-0.98,0.274-2.14,0.151-3.339,0.151
		c-5.726,0.001-11.22,0.16-16.996-0.102c-2.255-0.102-4.576-0.056-6.879,0c-2.275,0.055-4.714,0.218-6.525-0.202
		C9.871,38.342,6.168,32.374,2.922,26.509c-0.827-1.495-1.551-3.225-2.074-4.856c-1.209-3.772-1.141-8.172,0.303-11.583
		C3.103,5.46,7.061,1.747,12.33,0.458c2-0.489,4.223-0.302,6.677-0.404c2.874-0.121,6.038,0,9.105,0c2.273,0,4.51,0.051,6.829,0.05
		C35.64,0.104,36.392-0.038,37.015,0.307z"/>
	<path style="fill-rule:evenodd;clip-rule:evenodd;" d="M22.043,29.999c0.029-0.736,0.553-1.354,0.911-1.973
		c3.232-5.599,6.598-11.147,9.864-16.895c1.775-3.124,3.584-6.092,5.514-9.307c0.41-0.683,0.771-1.648,1.467-1.721
		c0.897-0.091,1.927,0.051,2.883,0.051c2.837,0.001,5.864,0.081,8.599,0c3.797-0.112,7.711,0.159,11.331,0
		c3.778-0.165,6.883,0.979,9.105,2.529c2.34,1.634,4.29,3.768,5.463,6.172c1.236,2.534,2.141,6.077,1.518,9.812
		c-0.519,3.111-1.745,6.08-3.086,8.549c-1.309,2.41-2.917,4.725-4.704,6.931c-1.259,1.555-2.717,2.938-4.653,4.097
		c-0.579,0.346-1.454,0.947-2.023,0.86c-0.583-0.089-0.917-1.118-1.214-1.669c-0.693-1.284-1.368-2.372-2.074-3.592
		c-0.333-0.574-0.849-1.114-0.86-1.872c0.354-0.53,1.066-0.647,1.619-0.961c0.556-0.315,1.078-0.646,1.518-1.062
		c2.927-3.043,5.35-6.7,6.778-11.229c0.87-2.761,0.354-5.099-1.012-6.98c-1.229-1.692-3.164-3.083-5.666-3.288
		c-3.071-0.251-6.172,0-9.611,0c-2.228,0-4.59,0-7.132,0c-0.859,0-1.673-0.113-2.226,0.102c-0.694,0.271-1.339,1.805-1.77,2.579
		c-0.547,0.983-1.061,1.89-1.568,2.732c-1.087,1.807-2.151,3.884-3.085,5.514c-1.025,1.788-2.158,3.597-3.187,5.412
		c-0.517,0.913-1.007,1.857-1.568,2.731c-0.564,0.88-0.977,1.856-1.72,2.58c-2.451,0.042-4.924-0.021-7.132,0
		C23.544,30.108,22.752,30.312,22.043,29.999z"/>
	<path style="fill-rule:evenodd;clip-rule:evenodd;" d="M45.109,10.373c0.033,0,0.067,0,0.101,0
		c1.156,1.375,2.012,2.999,2.883,4.552c4.827,8.608,10.094,17.062,14.922,25.748c1.085,1.951,2.228,3.917,3.389,5.867
		c0.222,0.372,0.503,0.809,0.455,1.265c-0.266,0.272-0.728,0.152-1.062,0.152c-2.608,0-5.256,0.062-8.093-0.051
		c-0.611-0.362-0.95-1.08-1.265-1.67c-1.003-1.877-2.141-3.693-3.237-5.563c-3.966-6.763-7.881-13.574-11.786-20.437
		c-0.349-0.614-0.764-1.233-0.961-1.922c0.506-1.48,1.379-2.752,2.175-3.996c0.815-1.273,1.377-2.664,2.276-3.896
		C45.013,10.444,45.041,10.389,45.109,10.373z"/>
	<path style="fill-rule:evenodd;clip-rule:evenodd;" d="M24.167,42.393c0.1,0.588-0.352,1.022-0.607,1.467
		c-0.556,0.967-0.928,1.69-1.568,2.782c-0.291,0.495-0.518,1.072-0.911,1.214c-0.538,0.193-1.588,0.051-2.327,0.051
		c-1.584,0-3.16-0.001-4.755,0c-0.772,0-1.568,0.114-2.226-0.152c-0.075-0.558,0.42-0.972,0.658-1.416
		c0.729-1.364,1.436-2.934,2.478-4.047c2.401-0.176,5.326,0.062,7.739-0.051C23.163,42.217,23.772,42.075,24.167,42.393z"/>
</g>
<g id="Layer_1">
</g>
</svg>
