<?xml version="1.0" encoding="iso-8859-1"?>
<!-- Generator: Adobe Illustrator 19.2.0, SVG Export Plug-In . SVG Version: 6.00 Build 0)  -->
<svg version="1.1" xmlns="http://www.w3.org/2000/svg" xmlns:xlink="http://www.w3.org/1999/xlink" x="0px" y="0px"
	 viewBox="0 0 80.992 53.981" style="enable-background:new 0 0 80.992 53.981;" xml:space="preserve">
<g id="Cooperative_x5F_Kopernik">
	<path style="fill-rule:evenodd;clip-rule:evenodd;" d="M74.997,18.685c2.325,1.38,4.468,3.139,5.463,5.726
		c1.289,3.353,0.038,6.537-1.629,8.456c-2.922,3.364-7.679,5.465-12.659,6.828c-0.716,0.196-1.635,0.323-2.153,0.631
		c-0.382,0.227-0.696,0.891-0.998,1.365c-0.915,1.437-2.084,2.782-3.099,3.939c-2.742,2.796-5.914,4.995-9.823,6.566
		c-3.812,1.532-9.091,2.284-14.234,1.418c-6.874-1.158-12.037-4.415-15.915-8.667c-0.834-0.914-1.857-2.24-2.679-3.467
		c-0.288-0.43-0.532-1.017-0.84-1.208c-0.412-0.256-1.234-0.365-1.786-0.525c-4.109-1.193-8.037-2.653-10.977-5.147
		c-1.67-1.417-3.079-3.321-3.52-5.673c-0.844-4.504,2.095-7.707,4.727-9.56c3.091-2.176,6.931-3.512,11.03-4.728
		c0.752-0.866,1.211-1.931,1.838-2.836c3.101-4.473,7.621-8.139,13.184-10.19c2.321-0.855,5.101-1.408,7.984-1.576
		c3.316-0.191,6.283,0.373,8.825,1.104c6.932,1.991,12.198,6.285,15.652,11.818c0.296,0.474,0.612,1.22,0.998,1.471
		c0.699,0.454,1.986,0.562,2.889,0.841C70.084,16.135,72.809,17.24,74.997,18.685z M49.995,10.385
		c-2.586-1.555-6.531-2.798-10.243-2.626c-4.555,0.212-7.932,1.561-10.715,3.519c-0.377,0.265-0.956,0.477-1.051,0.998
		c4.253-0.209,8.894-0.606,13.5-0.578c3.759,0.024,7.447,0.566,10.873,0.525C51.889,11.46,50.921,10.943,49.995,10.385z
		 M59.449,24.095c-0.116-0.754-0.281-2.485-0.788-2.941c-0.328-0.295-1.596-0.432-2.206-0.525c-0.937-0.144-1.727-0.226-2.469-0.315
		c-4.905-0.595-10.418-1.09-15.811-0.84c-6.115,0.283-11.665,0.456-16.44,1.785c-1.36,3.319-1.254,9.348,0.315,12.344
		c10.642,2.127,25.707,2.324,36.348,0.053C59.618,31.267,59.951,27.354,59.449,24.095z M67.328,23.674
		c0.156,2.294,0.068,5.15-0.052,7.406c1.252-0.044,2.282-0.616,3.362-1.155c0.959-0.479,2.213-1.067,2.521-2.101
		c0.24-0.805-0.116-1.565-0.525-1.996c-1.114-1.173-3.52-1.745-5.147-2.312C67.41,23.546,67.358,23.599,67.328,23.674z
		 M12.596,23.833c-1.392,0.494-3.611,1.292-4.517,2.416c-1.487,1.846,0.858,3.262,2.259,3.887c0.93,0.415,1.9,0.932,2.836,0.894
		c0.081-1.09-0.123-2.338-0.158-3.572c-0.036-1.282,0.172-2.547,0.052-3.624C12.873,23.75,12.718,23.79,12.596,23.833z
		 M29.142,42.532c0.225,0.563,1.432,1.128,2.206,1.523c2.468,1.259,5.455,2.154,8.877,2.153c4.151-0.001,7.567-1.117,10.137-2.731
		c0.348-0.218,0.832-0.467,0.946-0.893c-3.442-0.047-7.201,0.498-10.978,0.367c-3.762-0.13-7.523-0.229-11.031-0.525
		C29.237,42.453,29.18,42.483,29.142,42.532z"/>
</g>
<g id="Layer_1">
</g>
</svg>
