<?xml version="1.0" encoding="iso-8859-1"?>
<!-- Generator: Adobe Illustrator 19.2.0, SVG Export Plug-In . SVG Version: 6.00 Build 0)  -->
<svg version="1.1" xmlns="http://www.w3.org/2000/svg" xmlns:xlink="http://www.w3.org/1999/xlink" x="0px" y="0px"
	 viewBox="0 0 79.681 79.426" style="enable-background:new 0 0 79.681 79.426;" xml:space="preserve">
<g id="Cordon_x5F_Bleu_x5F_de_x5F_Venezuela">
	<path style="fill-rule:evenodd;clip-rule:evenodd;" d="M49.927,0.634c0.065,0.58-0.344,1.057-0.619,1.495
		c-0.294,0.467-0.533,0.933-0.774,1.444c-0.46,0.975-1.281,1.79-1.444,2.991c0.51-0.153,0.778-0.686,1.083-1.083
		c0.613-0.797,1.247-1.627,1.856-2.475c0.26-0.362,0.483-0.995,1.031-0.98c0.07,0.618-0.384,1.167-0.67,1.65
		c-0.296,0.501-0.577,1.016-0.877,1.496c-0.617,0.988-1.278,1.996-1.547,3.145c0.529-0.051,0.789-0.641,1.083-1.031
		c0.616-0.817,1.265-1.654,1.908-2.527c0.278-0.377,0.566-1.038,1.134-0.98c0.09,0.567-0.38,0.958-0.619,1.392
		c-0.717,1.307-1.527,2.602-2.114,4.074c0.437-0.102,0.746-0.555,1.031-0.928c0.578-0.754,1.141-1.556,1.753-2.372
		c0.253-0.337,0.568-0.883,1.083-0.825c0.175,0.5-0.253,0.87-0.464,1.237c-1.085,1.885-2.136,3.567-3.352,5.517
		c-0.335,0.537-0.901,1.954-1.496,2.011c-0.565,0.055-0.882-0.786-1.496-0.773c-0.612,0.013-1.123,1.195-1.495,1.753
		c-0.968,1.451-1.584,2.373-2.527,3.868c-0.325,0.515-1.101,1.464-1.134,2.062c-0.06,1.052,0.99,1.637,1.289,2.424
		c2.607,3.852,5.125,7.708,7.786,11.705c0.385,0.579,0.835,1.222,1.29,1.959c0.319,0.519,0.935,1.7,1.495,1.702
		c0.525,0.002,0.948-0.999,1.289-1.547c1.025-1.648,2.258-3.78,3.249-5.26c3.854-5.756,7.49-11.254,11.241-17.12
		c0.337-0.527,0.69-1.088,1.135-1.702c0.355-0.492,0.981-1.304,1.031-1.753c0.127-1.157-0.895-1.912-0.825-2.939
		c0.041-0.605,0.893-1.408,1.289-1.908c1.003-1.264,1.841-2.305,2.784-3.558c0.468-0.621,0.853-1.377,1.547-1.598
		c-0.758,2.026-2.097,3.472-2.784,5.569c0.563,0.051,0.86-0.561,1.135-0.928c0.588-0.788,1.224-1.572,1.856-2.372
		c0.303-0.383,0.514-0.956,1.031-1.083c-0.214,1.118-0.97,1.976-1.496,2.939c-0.521,0.953-1.212,1.844-1.495,2.991
		c0.58,0.094,0.806-0.6,1.135-0.928c0.749-0.695,1.229-1.658,1.908-2.423c0.384-0.321,0.463-0.946,1.03-1.083
		c0.133,0.669-0.413,1.095-0.67,1.547c-0.574,1.098-1.221,2.146-1.856,3.249c-0.192,0.333-0.528,0.708-0.464,1.135
		c0.559-0.012,0.78-0.636,1.083-1.031c0.607-0.795,1.31-1.608,1.959-2.424c0.3-0.376,0.497-0.994,1.031-1.031
		c-0.145,0.778-0.64,1.514-1.083,2.269c-1.02,1.74-2.063,3.544-3.196,5.414c-0.206,0.339-0.452,0.882-0.773,0.928
		c-0.719,0.104-1.036-0.859-1.702-0.773c-0.722,0.117-0.957,0.884-1.289,1.392c-1.03,1.579-2.165,3.15-3.197,4.796
		c-3.716,5.927-7.78,11.74-11.55,17.687c-0.353,0.556-0.618,1.098-0.928,1.702c-0.308,0.598-1.059,1.197-1.083,1.959
		c-0.025,0.788,0.718,1.433,1.031,2.011c0.124,0.229,0.184,0.491,0.31,0.722c0.843,1.552,1.964,3.013,2.939,4.538
		c2.862,4.475,6.018,8.855,9.024,13.252c3.525,5.154,6.83,10.418,10.52,15.47c0.525,0.719,1.161,1.438,1.393,2.321
		c-0.685,0.531-1.739,0.309-2.63,0.309c-7.654,0-15.784,0.144-23.514,0c-1.135-0.949-2.472-3.103-3.352-4.383
		c-2.605-3.789-5.082-7.441-7.684-11.293c-0.379-0.562-1.175-2.052-1.702-2.062c-0.513-0.011-1.052,1.081-1.392,1.598
		c-0.934,1.42-1.532,2.222-2.372,3.61c-0.373,0.617-0.996,1.252-1.082,1.856c-0.158,1.092,0.686,1.832,0.67,2.681
		c-0.013,0.704-0.897,1.654-1.289,2.217c-0.514,0.739-1.085,1.345-1.547,1.908c-0.822,1.003-1.435,2.043-2.217,3.043
		c-0.236,0.302-0.477,0.723-0.876,0.825c-0.06-0.658,0.482-1.099,0.773-1.599c0.293-0.503,0.576-1.04,0.876-1.547
		c0.598-1.01,1.363-1.983,1.65-3.249c-0.566,0.041-0.882,0.632-1.186,1.031c-0.656,0.864-1.316,1.772-2.011,2.63
		c-0.339,0.418-0.646,0.961-1.186,1.134c0.352-1.218,1.106-2.164,1.702-3.146c0.306-0.504,0.585-1.022,0.876-1.547
		c0.273-0.492,0.767-0.945,0.773-1.599c-0.643-0.099-0.888,0.627-1.186,1.032c-0.335,0.455-0.724,0.878-1.082,1.237
		c-0.296,0.46-0.684,0.852-1.032,1.289c-0.319,0.402-0.592,1.003-1.186,1.135c0.007-0.565,0.384-1.05,0.67-1.496
		c0.848-1.316,1.869-2.633,2.475-4.229c-0.432-0.079-0.655,0.402-0.877,0.67c-0.699,0.849-1.503,1.781-2.217,2.63
		c-0.434,0.223-0.561,1.016-1.134,0.928c0.059-0.85,0.771-1.47,1.237-2.217c0.93-1.491,1.68-2.829,2.63-4.486
		c0.19-0.331,1.033-1.98,1.496-2.062c0.802-0.143,1.153,0.759,1.805,0.722c0.598-0.034,1.196-1.171,1.444-1.547
		c0.843-1.276,1.593-2.392,2.372-3.609c0.315-0.493,1.078-1.312,1.083-1.908c0.006-0.693-0.982-1.878-1.34-2.423
		c-1.499-2.281-3.199-4.339-4.589-6.652c-1.808-2.545-3.43-5.115-5.363-7.787c-0.248-0.342-0.612-0.957-0.877-0.979
		c-0.507-0.043-0.998,0.97-1.34,1.495c-4.11,6.303-8.299,12.37-12.376,18.667c-0.347,0.537-0.64,1.223-1.031,1.805
		c-0.799,1.188-1.365,2.126-2.217,3.403c-0.388,0.583-0.884,1.281-0.928,1.856c-0.08,1.045,0.71,1.715,0.67,2.578
		c-0.031,0.67-0.875,1.616-1.289,2.166c-1.287,1.71-2.46,3.212-3.713,4.95c-0.233,0.324-0.408,0.818-0.876,0.825
		c0-0.606,0.403-1.094,0.67-1.547c0.804-1.363,1.69-2.656,2.217-4.332c-0.829,0.359-1.333,1.26-1.959,2.011
		c-0.308,0.369-0.588,0.758-0.877,1.134c-0.264,0.345-0.57,0.844-1.031,0.877c0.834-2.174,2.358-3.659,3.094-5.93
		c-0.559-0.059-0.816,0.577-1.083,0.928c-0.861,1.134-1.957,2.35-3.042,3.3c0.721-1.96,2.142-3.222,2.785-5.26
		c-0.94,0.178-1.307,1.373-2.011,1.959c-0.322,0.327-0.625,0.711-0.928,1.134c-0.252,0.353-0.473,0.972-0.979,0.928
		c0.12-0.787,0.638-1.518,1.082-2.269c1.032-1.744,2.045-3.543,3.197-5.414c0.191-0.312,0.48-0.881,0.773-0.928
		c0.762-0.122,1.044,0.918,1.805,0.773c0.724-0.24,1.053-1.029,1.444-1.599c0.825-1.2,1.7-2.324,2.527-3.558
		c0.819-1.223,1.46-2.532,2.321-3.764c0.428-0.613,0.772-1.282,1.186-1.908c2.425-3.672,4.938-7.492,7.374-11.189
		c0.847-1.149,1.618-2.403,2.475-3.713c0.279-0.426,0.695-0.887,0.722-1.34c0.046-0.784-0.967-1.847-1.444-2.527
		c-1.631-2.323-3.154-4.779-4.744-7.013c-1.672-2.35-3.168-4.652-4.796-7.013c-0.668-0.97-1.307-1.898-1.805-2.991
		C8.93,14.039,4.802,7.817,0.631,1.562c-0.264-0.395-0.709-0.795-0.619-1.34C0.994-0.082,2.139,0.015,3.26,0.015
		c6.814,0.001,13.943-0.001,21.142,0c0.864,0,2.036-0.068,2.475,0.104c0.635,0.247,1.279,1.55,1.702,2.217
		c1.527,2.413,3.106,4.745,4.692,7.065c1.518,2.22,3.111,4.608,4.692,7.064c0.379,0.588,1.293,2.083,1.753,2.114
		c0.533,0.035,1.161-1.14,1.495-1.65c1.129-1.727,1.932-3.103,3.094-4.795c0.208-0.304,0.525-0.732,0.567-0.98
		c0.204-1.193-0.844-2.01-0.774-2.991c0.045-0.628,0.971-1.557,1.341-2.011c1.309-1.609,2.298-3.168,3.609-4.744
		C49.294,1.115,49.527,0.713,49.927,0.634z"/>
</g>
<g id="Layer_1">
</g>
</svg>
