<?xml version="1.0" encoding="iso-8859-1"?>
<!-- Generator: Adobe Illustrator 19.2.0, SVG Export Plug-In . SVG Version: 6.00 Build 0)  -->
<svg version="1.1" xmlns="http://www.w3.org/2000/svg" xmlns:xlink="http://www.w3.org/1999/xlink" x="0px" y="0px"
	 viewBox="0 0 93.391 74.603" style="enable-background:new 0 0 93.391 74.603;" xml:space="preserve">
<g id="corning_x5F_class">
	<path style="fill-rule:evenodd;clip-rule:evenodd;" d="M35.941,5.29c-0.463,0.261-1.24,0.209-1.631,0.543
		c-0.033,0.732,0.246,1.405,0.494,2.027c1.406,3.515,3.924,6.519,7.318,7.91c1.851,0.759,4.197,1.052,6.18,0.791
		c1.957-0.258,3.635-1.176,4.992-2.126c2.732-1.913,4.77-4.877,5.785-8.404c-0.287-0.504-1.24-0.343-1.682-0.692
		c0.094-0.595,0.594-0.998,0.939-1.434c0.689-0.867,1.34-1.721,2.027-2.62c0.318-0.417,0.631-0.964,1.137-1.186
		c0.412,0.987,0.574,2.111,0.84,3.213c0.26,1.078,0.652,2.174,0.693,3.263c-0.514,0.145-0.969-0.181-1.533-0.148
		c-0.564,0.601-0.729,1.421-1.039,2.125c-0.936,2.136-2.148,4.038-3.658,5.686c-1.924,2.102-4.732,3.843-8.107,4.4
		c-3.848,0.635-7.494-0.696-9.887-2.323c-1.244-0.845-2.268-1.831-3.215-3.016c-0.895-1.121-1.871-2.528-2.373-3.856
		c-0.41-1.087-0.516-2.171-1.137-3.115C31.59,6.224,31,6.636,30.455,6.477c-0.109-0.5,0.074-1.059,0.197-1.582
		c0.123-0.52,0.229-1.051,0.346-1.582c0.236-1.069,0.529-2.166,0.742-3.164C31.768,0.077,31.816,0.028,31.889,0
		c0.033,0,0.066,0,0.098,0c0.483,0.49,0.951,0.995,1.236,1.681c0.478,0.577,0.975,1.139,1.434,1.731
		C35.107,3.992,35.676,4.545,35.941,5.29z"/>
	<path style="fill-rule:evenodd;clip-rule:evenodd;" d="M11.074,13.497c2.242,0.328,4.441,0.701,6.477,1.236
		c-0.084,0.69-0.645,0.904-0.84,1.483c0.75,0.92,1.889,1.457,2.916,2.077c3.037,1.83,6.436,3.504,10.135,4.746
		c4.965,1.666,10.289,3.064,16.76,3.065c9.793,0.002,17.346-2.449,23.979-5.784c1.059-0.532,2.182-1.146,3.115-1.83
		c0.971-0.711,2.1-1.174,2.916-2.026c-0.043-0.749-0.717-0.867-0.742-1.632c2.053-0.436,4.391-0.85,6.527-1.038
		c-0.023,0.576-0.428,1.04-0.693,1.533c-0.771,1.429-1.533,3.024-2.471,4.351c-0.691-0.151-0.627-1.216-1.287-1.286
		c-0.359-0.038-1.15,0.632-1.631,0.939c-7.734,4.946-17.055,8.85-29.713,8.85c-6.803-0.001-12.334-1.403-17.451-3.115
		c-5.082-1.701-9.5-4.174-13.695-6.872c-0.625,0.232-0.654,1.058-1.285,1.286c-1.158-1.825-2.106-3.86-3.113-5.834
		C11.018,13.605,11.006,13.51,11.074,13.497z"/>
	<path style="fill-rule:evenodd;clip-rule:evenodd;" d="M5.883,34.113c0.527,0.183,0.049,1.37,0.348,1.78
		c26.623,0.249,53.812,0.37,80.881,0.296c0.336-0.322-0.014-1.332,0.248-1.73c1.145,0.247,2.117,0.914,3.113,1.384
		c1.014,0.478,2.09,0.811,2.918,1.533c-0.377,0.417-0.939,0.557-1.434,0.791c-0.973,0.461-1.969,0.942-3.016,1.434
		c-0.496,0.232-0.994,0.611-1.582,0.643c-0.219-0.392-0.008-1.213-0.15-1.681c-0.721-0.333-1.568-0.198-2.322-0.198
		c-25.65-0.004-51.559-0.301-77.025-0.247c-0.484,0.001-1.104-0.163-1.582,0.049c-0.342,0.316,0.022,1.341-0.248,1.73
		c-0.559-0.007-1.082-0.356-1.582-0.593c-1.014-0.482-2.019-0.997-3.064-1.483c-0.494-0.23-1.1-0.412-1.385-0.89
		C1.855,35.886,3.895,35.025,5.883,34.113z"/>
	<path style="fill-rule:evenodd;clip-rule:evenodd;" d="M79.152,55.173c0.676,0.876,1.057,1.939,1.582,2.917
		c0.521,0.973,1.141,1.922,1.482,3.016c-1.104-0.023-2.242-0.293-3.361-0.495c-1.09-0.196-2.197-0.412-3.164-0.742
		c0.072-0.686,0.648-0.867,0.791-1.483c-0.654-0.938-1.805-1.309-2.719-1.978c-0.908-0.662-1.893-1.223-2.918-1.73
		c-4.102-2.028-8.574-3.815-13.645-4.993c-4.902-1.139-11.322-1.592-17.057-0.89c-8.168,1-14.816,4.086-20.566,7.366
		c-0.914,0.733-2.148,1.148-2.916,2.027c0.047,0.677,0.779,0.934,0.74,1.533c-0.426,0.29-1.014,0.311-1.533,0.395
		c-1.545,0.253-3.32,0.656-4.992,0.692c0.381-1.076,1-2.042,1.533-3.016c0.525-0.962,0.982-1.987,1.68-2.818
		c0.621,0.22,0.641,1.041,1.236,1.286c8.107-5.056,16.535-9.249,29.17-9.838c7.141-0.333,13.752,1.053,18.934,2.818
		c2.617,0.891,5.281,1.986,7.664,3.164c1.658,0.82,3.428,1.906,5.092,3.016c0.48,0.32,1.402,1.014,1.68,0.988
		C78.5,56.353,78.455,55.275,79.152,55.173z"/>
	<path style="fill-rule:evenodd;clip-rule:evenodd;" d="M61.254,68.324c0.553,0.156,1.09-0.348,1.682-0.148
		c-0.086,1.085-0.338,2.209-0.594,3.312c-0.246,1.065-0.475,2.163-0.84,3.115c-0.525-0.219-0.854-0.767-1.188-1.187
		c-0.344-0.435-0.695-0.857-1.037-1.286c-0.686-0.859-1.486-1.693-1.979-2.719c0.471-0.305,1.33-0.221,1.682-0.643
		c-0.779-3.018-2.135-5.583-4.152-7.465c-1.992-1.859-4.672-3.244-8.207-3.362c-3.475-0.116-6.381,1.751-8.158,3.461
		c-2.027,1.953-3.467,4.26-4.35,7.218c0.281,0.526,1.291,0.324,1.73,0.692c-0.051,0.552-0.562,0.955-0.891,1.384
		c-0.342,0.451-0.658,0.916-1.037,1.286c-0.744,0.806-1.115,1.984-2.076,2.57c-0.361-1.01-0.58-2.119-0.842-3.213
		c-0.256-1.075-0.605-2.165-0.643-3.263c0.562-0.21,0.939,0.288,1.484,0.148c0.41-0.105,0.514-0.919,0.74-1.483
		c0.762-1.899,1.465-3.416,2.67-4.994c0.799-1.043,1.76-1.953,2.719-2.719c1.963-1.565,4.641-3.027,7.812-3.214
		c4.471-0.263,7.91,1.59,10.232,3.758c1.832,1.707,3.211,3.828,4.252,6.278C60.604,66.646,60.812,67.516,61.254,68.324z"/>
</g>
<g id="Layer_1">
</g>
</svg>
