<?xml version="1.0" encoding="iso-8859-1"?>
<!-- Generator: Adobe Illustrator 21.0.2, SVG Export Plug-In . SVG Version: 6.00 Build 0)  -->
<svg version="1.1" xmlns="http://www.w3.org/2000/svg" xmlns:xlink="http://www.w3.org/1999/xlink" x="0px" y="0px"
	 viewBox="0 0 15.031 15.007" style="enable-background:new 0 0 15.031 15.007;" xml:space="preserve">
<g id="Corporate_x5F_Express">
	<path d="M3.92,0.473c0.274-0.265,0.63-0.454,1.017-0.468C5.573,0,6.209,0.006,6.845,0.002c0.299-0.001,0.608,0.067,0.856,0.24
		C7.921,0.388,8.093,0.588,8.28,0.77c0.816,0.816,1.631,1.631,2.446,2.446c0.663,0.67,1.347,1.318,2.007,1.991
		c0.201,0.207,0.436,0.41,0.74,0.425c-0.005,0.103-0.005,0.206-0.003,0.309c-0.494,0.003-0.987-0.001-1.481,0.003
		c-0.38,0.002-0.768-0.13-1.04-0.403c-0.355-0.352-0.708-0.708-1.06-1.063C9.513,4.148,9.175,3.776,8.814,3.428
		c-0.86-0.856-1.712-1.721-2.576-2.573C6.142,0.76,6.013,0.676,5.873,0.719C5.674,0.808,5.54,0.986,5.387,1.132
		c-1.075,1.067-2.14,2.143-3.214,3.21C1.735,4.784,1.298,5.227,0.843,5.65c-0.264,0.246-0.508,0.556-0.52,0.933
		C0.215,6.584,0.107,6.586,0,6.589c0.006-0.525,0.003-1.051,0.002-1.576C0.009,4.616,0.136,4.2,0.451,3.94
		C1.608,2.784,2.763,1.628,3.92,0.473z"/>
	<path d="M8.46,0c0.511,0.007,1.022,0.001,1.533,0.003c0.379,0.011,0.768,0.119,1.046,0.389c1.128,1.128,2.263,2.248,3.388,3.378
		c0.311,0.294,0.586,0.673,0.602,1.117c-0.001,0.695,0,1.389-0.001,2.084c-0.007,0.37-0.189,0.719-0.448,0.976
		c-0.424,0.44-0.866,0.863-1.29,1.303c-0.537,0.513-1.043,1.057-1.587,1.561c-0.549,0.557-1.108,1.105-1.658,1.66
		c-0.276,0.275-0.613,0.551-0.66,0.966c-0.104,0-0.207-0.001-0.311-0.001c0.003-0.468,0.001-0.936,0.001-1.404
		c0.007-0.227,0.027-0.458,0.116-0.669c0.115-0.274,0.324-0.495,0.536-0.699c0.131-0.139,0.267-0.272,0.413-0.394
		c1.077-1.065,2.138-2.146,3.218-3.209c0.311-0.341,0.695-0.62,0.948-1.012c0.087-0.147-0.046-0.297-0.135-0.407
		c-1.608-1.612-3.221-3.219-4.83-4.829C9.116,0.556,8.808,0.345,8.458,0.326C8.459,0.217,8.46,0.108,8.46,0z"/>
	<path d="M5.649,1.571c0.103-0.001,0.206,0,0.308-0.003C5.95,2.05,5.956,2.532,5.953,3.013c0.009,0.343-0.09,0.702-0.311,0.968
		C4.061,5.564,2.479,7.145,0.897,8.727C0.81,8.832,0.681,8.943,0.713,9.095c0.006,0.1,0.073,0.182,0.14,0.251
		c1.697,1.693,3.389,3.392,5.089,5.082c0.185,0.141,0.411,0.244,0.647,0.251c-0.002,0.109-0.002,0.219-0.001,0.329
		c-0.51-0.006-1.02-0.002-1.53-0.004c-0.249-0.013-0.501-0.048-0.727-0.159c-0.22-0.09-0.376-0.275-0.54-0.438
		c-1.093-1.092-2.183-2.185-3.277-3.276c-0.29-0.272-0.503-0.647-0.511-1.052C0.005,9.385,0.002,8.692,0.004,8
		C0.027,7.561,0.298,7.194,0.6,6.896c1.073-1.068,2.142-2.142,3.214-3.212c0.47-0.422,0.898-0.888,1.352-1.328
		C5.389,2.142,5.615,1.894,5.649,1.571z"/>
	<path d="M14.725,8.417c0.102,0.003,0.204,0.004,0.306,0.002c-0.003,0.538,0,1.076-0.001,1.615c-0.003,0.343-0.12,0.687-0.347,0.946
		c-1.165,1.176-2.348,2.334-3.513,3.509c-0.168,0.147-0.34,0.295-0.545,0.388c-0.182,0.089-0.388,0.116-0.588,0.127
		c-0.638,0.001-1.276-0.002-1.914,0.001c-0.346-0.01-0.688-0.132-0.947-0.365c-0.596-0.552-1.155-1.143-1.735-1.712
		c-0.545-0.547-1.093-1.09-1.636-1.64c-0.456-0.408-0.873-0.858-1.31-1.285C2.226,9.743,1.98,9.394,1.571,9.373
		c0-0.108-0.002-0.215-0.002-0.323c0.496,0.014,0.994,0.001,1.491,0.006c0.336,0.011,0.684,0.105,0.944,0.329
		c1.398,1.396,2.804,2.784,4.197,4.185c0.245,0.237,0.471,0.503,0.756,0.693c0.171,0.102,0.341-0.053,0.469-0.156
		c1.677-1.671,3.35-3.347,5.024-5.02C14.614,8.903,14.691,8.658,14.725,8.417z"/>
</g>
<g id="Layer_1">
</g>
</svg>
