<?xml version="1.0" encoding="iso-8859-1"?>
<!-- Generator: Adobe Illustrator 19.2.0, SVG Export Plug-In . SVG Version: 6.00 Build 0)  -->
<svg version="1.1" xmlns="http://www.w3.org/2000/svg" xmlns:xlink="http://www.w3.org/1999/xlink" x="0px" y="0px"
	 viewBox="0 0 70.925 70.891" style="enable-background:new 0 0 70.925 70.891;" xml:space="preserve">
<g id="Cosmetics_x5F_69">
	<path style="fill-rule:evenodd;clip-rule:evenodd;" d="M26.506,69.859c-2.202-0.413-4.18-1.287-6.029-2.149
		c-5.523-2.575-9.822-6.414-13.459-10.936c-3.333-4.87-6.196-10.295-6.776-17.665c-0.159-2.03-0.331-3.858-0.187-5.748
		c0.721-9.459,4.241-15.877,9.02-21.451c0.907-1.059,2.002-2.098,3.084-3.037c4.401-3.824,9.543-6.628,16.217-8.179
		c1.722-0.4,3.682-0.563,5.607-0.654C39.931-0.24,44.773,0.98,48.89,2.704c4.134,1.73,7.753,3.986,10.655,6.916
		c1.388,1.21,2.641,2.517,3.785,3.926c1.155,1.421,2.095,2.944,3.038,4.627c2.71,4.833,4.797,10.934,4.533,18.553
		c-0.213,6.144-1.742,10.96-3.879,15.282c-0.427,0.862-0.831,1.756-1.309,2.523c-3.83,6.161-9.551,11.033-16.684,14.019
		c-1.637,0.686-3.716,1.335-5.889,1.823c-2.168,0.487-4.617,0.777-6.729,0.186c-1.948-0.544-3.421-1.78-4.439-3.225
		c-0.954-1.352-1.778-3.627-1.309-6.169c0.39-2.113,1.297-3.791,2.196-5.515c0.878-1.681,2.005-3.199,3.084-4.579
		c1.146-1.465,2.138-3.062,3.179-4.533c3.192-4.517,6.324-8.852,9.065-13.974c0.882-1.646,1.604-3.439,2.29-5.374
		c0.691-1.943,1.251-4.019,1.356-6.309c0.117-2.566-0.578-4.609-1.309-6.402c-0.695-1.708-1.976-3.32-3.271-4.393
		c-1.358-1.125-2.821-2.153-4.813-2.851c-1.831-0.642-4.245-1.091-6.683-0.608c-3.159,0.626-5.676,2.077-7.57,3.972
		c-0.621,0.621-1.113,1.393-1.636,2.196c-0.909,1.398-1.833,3.455-2.104,5.561c-0.223,1.741-0.216,3.647-0.047,5.515
		c0.051,0.556,0.071,1.311,0.233,1.683c0.242,0.551,1.243,0.806,1.776,1.215c0.516,0.397,0.801,0.68,1.168,1.168
		c0.92,1.771,1.32,3.883,1.869,6.169c0.242,1.004,0.309,2.167,0.608,3.412c0.113,0.47,0.286,1.005,0.374,1.636
		c0.08,0.577,0.04,1.505,0.561,1.448c0.448-0.049,0.327-1.33,0.327-1.729c0-4.686-0.046-9.021-0.047-13.832
		c-0.001-4.072-0.138-8.146,1.589-10.562c1.327-1.857,3.795-3.285,7.01-2.897c1.68,0.203,3.026,1.063,4.02,2.057
		c1.03,1.03,1.816,2.288,2.009,4.065c0.191,1.755-0.115,3.435-0.653,5.187c-0.919,2.993-2.451,5.701-3.973,8.132
		c-1.587,2.535-3.327,4.832-5.001,7.104c-1.676,2.274-3.409,4.619-5.186,6.916c-1.776,2.296-3.375,4.749-4.907,7.197
		c-1.551,2.478-3.085,5.199-3.085,9.02c0,3.327,1.421,5.781,2.898,7.711C26.18,69.22,26.574,69.466,26.506,69.859z"/>
</g>
<g id="Layer_1">
</g>
</svg>
