<?xml version="1.0" encoding="iso-8859-1"?>
<!-- Generator: Adobe Illustrator 19.2.0, SVG Export Plug-In . SVG Version: 6.00 Build 0)  -->
<svg version="1.1" xmlns="http://www.w3.org/2000/svg" xmlns:xlink="http://www.w3.org/1999/xlink" x="0px" y="0px"
	 viewBox="0 0 66.597 82.561" style="enable-background:new 0 0 66.597 82.561;" xml:space="preserve">
<g id="cousances">
	<path style="fill-rule:evenodd;clip-rule:evenodd;" d="M66.405,0.17c0.267,1.114,0.151,2.288,0.151,3.416
		c-0.001,12.777,0,26.129,0,38.181c-0.001,4.636,0.07,9.172,0,13.765c-0.067,4.406,0.16,9.314-0.05,13.464
		c-0.104,2.056-1.343,3.425-2.512,4.521c-1.28,1.2-2.859,1.756-4.873,2.16c-5.726,1.149-12.063,2.166-17.985,3.165
		c-1.934,0.327-3.857,0.673-5.526,1.507c-0.459,0.36-0.856,0.627-1.306,1.256c-0.239,0.334-0.5,0.942-0.905,0.955
		c-0.46,0.014-0.654-0.542-0.854-0.854c-1.193-1.863-4.12-2.358-6.833-2.763c-6.134-0.917-11.881-2.248-17.985-3.165
		c-2.044-0.308-3.699-0.94-4.974-2.11c-1.18-1.084-2.363-2.477-2.663-4.371c-0.167-1.058-0.05-2.282-0.05-3.466
		c-0.001-17.33,0.001-35.129,0-52.198c0-3.395-0.107-6.792,0.05-10.098c0.052-1.095-0.25-2.229,0.1-3.316
		c0.398-0.263,1.105-0.138,1.658-0.15c5.243-0.118,10.621-0.051,16.026-0.05C34.142,0.02,50.698-0.051,66.405,0.17z M19.13,3.134
		c-3.284,0-6.603,0-9.847,0c-1.364,0-2.758-0.146-3.969,0c-0.497,0.06-1.36-0.049-1.809,0.201C3.238,4.315,3.356,5.412,3.355,6.5
		c0,3.194-0.396,7.079,0.502,9.495c1.15,3.093,4.207,5.69,8.29,5.727c2.942,0.027,5.153-1.388,6.581-2.863
		c0.617-0.637,1.272-1.587,1.658-2.412c0.799-1.708,0.713-3.977,0.603-6.28c-0.107-2.257,0.171-4.623-0.101-6.832
		C20.377,3.01,19.725,3.134,19.13,3.134z M40.13,3.134c-4.982,0-10.543-0.041-15.373,0.05c-0.432,0.713-0.252,1.637-0.252,2.461
		c0,0.892,0,1.817,0,2.713c0,1.802-0.151,3.686,0,5.426c0.185,2.114,1.342,4.057,2.663,5.325c1.351,1.298,3.378,2.322,5.677,2.462
		c2.948,0.178,5.75-1.236,7.083-2.813c0.816-0.964,1.614-2.372,1.959-3.768c0.433-1.752,0.232-3.665,0.302-5.677
		c0.067-1.951-0.054-3.978-0.151-5.928C41.481,3.039,40.787,3.134,40.13,3.134z M59.07,3.185c-4.327,0-8.841-0.094-13.213,0.1
		c-0.357,1.092-0.201,2.329-0.201,3.517c0,2.466-0.198,5.249,0.101,7.435c0.229,1.671,1.116,3.291,2.01,4.27
		c1.355,1.486,3.397,2.802,6.028,3.015c4.353,0.352,7.488-2.255,8.792-5.024c0.875-1.858,0.898-4.816,0.804-7.536
		c-0.033-0.957,0.039-1.902,0-2.864c-0.037-0.92,0.046-1.882-0.201-2.763C61.891,3.063,60.475,3.185,59.07,3.185z M21.19,23.983
		c0.037-0.936,0.384-2.842-0.503-2.361c-2.466,2.62-8.157,4.641-12.911,2.713c-0.813-0.33-1.652-0.791-2.311-1.256
		c-0.717-0.504-1.256-1.216-2.11-1.457c-0.366,0.682-0.153,1.503-0.15,2.261c0.002,0.78-0.05,1.565-0.05,2.361
		c-0.001,12.541,0.001,23.824,0,36.523c0,2.213-0.265,5.346,0.452,6.833c0.359,0.745,1.113,1.625,1.708,2.06
		c0.89,0.651,2.589,0.9,3.868,1.105c1.525,0.245,2.895,0.555,4.22,0.753c1.448,0.217,2.827,0.582,4.22,0.753
		c1.413,0.174,2.822,0.596,4.32,0.452c0.174-0.6-0.232-1.298-0.301-2.06c-0.077-0.85,0.078-1.708,0.1-2.562
		c-1.132-1.52-2.238-2.432-2.612-4.622c-0.444-2.597,0.569-4.752,1.658-6.079c0.258-0.314,0.737-0.818,0.704-1.105
		c-0.047-0.41-0.715-0.638-1.055-1.005c-0.289-0.311-0.48-0.988-0.854-1.005c-0.368-0.016-0.74,0.589-0.905,0.754
		c-0.843,0.843-1.94,1.609-2.964,2.06c-2.167,0.953-5.403,0.815-7.888,0.201c-0.617-0.153-1.95-0.347-2.16-0.955
		c-0.149-0.433,0.039-1.251,0.1-1.859c0.513-5.074,3.005-8.193,6.983-9.545c0.417-0.142,1.018-0.244,1.206-0.703
		c-0.125-0.744-0.767-1.518-0.854-2.562c-0.058-0.696,0.13-1.361,0.101-2.06c-0.432-0.366-1.003-0.341-1.457-0.452
		c-2.649-0.651-4.472-3.003-3.718-6.28c0.703-3.052,3.203-5.354,6.129-6.631c2.06-0.899,4.389-1.316,6.682-1.658
		C21.133,26.207,21.142,25.176,21.19,23.983z M63.441,24.485c0-0.795,0.246-3.386-0.553-2.864c-1.144,0.749-1.962,1.56-3.165,2.11
		c-1.196,0.548-2.428,0.976-4.12,1.156c-3.07,0.325-6.145-0.686-8.239-2.161c-0.534-0.376-0.759-0.913-1.607-1.055
		c-0.417,0.59-0.22,1.625-0.151,2.512c0.071,0.908,0.062,1.884,0.352,2.512c0.778,0.303,1.623,0.268,2.412,0.352
		c2.465,0.262,4.297,1.154,6.029,2.261c1.964,1.255,4.378,3.574,4.371,6.682c-0.007,2.68-1.7,4.601-3.818,5.174
		c-0.438,0.119-1.007,0.022-1.407,0.402c-0.115,0.819,0.237,1.699,0.05,2.612c-0.175,0.856-0.813,1.56-0.854,2.261
		c0.587,0.492,1.362,0.522,2.01,0.754c2.354,0.843,4.087,2.879,5.074,5.124c0.761,1.731,1.327,3.845,1.155,6.229
		c-0.039,0.011-0.059,0.042-0.05,0.101c-0.813,0.561-2.031,0.738-3.215,0.904c-1.24,0.174-2.621,0.333-3.969,0.201
		c-1.879-0.184-3.573-1.127-4.672-1.96c-0.313-0.222-0.534-0.466-0.854-0.753c-0.212-0.191-0.615-0.691-1.005-0.653
		c-0.473,0.046-0.752,0.863-1.156,1.206c-0.312,0.265-0.98,0.479-1.004,0.854c-0.017,0.243,0.454,0.728,0.754,1.105
		c0.886,1.116,1.487,2.431,1.607,4.12c0.151,2.104-0.505,3.622-1.356,4.823c-0.376,0.531-1.17,1.018-1.256,1.607
		c-0.056,0.389,0.127,0.833,0.151,1.206c0.078,1.229-0.302,2.272-0.352,3.416c0.578,0.323,1.243,0.031,1.859-0.1
		c0.637-0.137,1.336-0.189,2.009-0.302c2.525-0.424,5.209-0.961,7.787-1.407c1.365-0.236,2.747-0.361,3.868-0.753
		c1.516-0.53,2.819-1.959,3.266-3.366C63.432,54.077,63.442,39.625,63.441,24.485z M34.604,32.825
		c1.265-2.339,3.327-3.94,5.828-4.973c0.68-0.281,1.569-0.304,2.11-0.955c0.055-0.779-0.046-1.728-0.1-2.663
		c-0.052-0.896,0.114-2.046-0.302-2.613c-0.504,0.008-0.871,0.436-1.206,0.704c-0.368,0.295-0.708,0.644-1.106,0.904
		c-1.52,0.996-3.627,1.732-5.928,1.859c-2.986,0.165-5.542-0.965-7.335-2.16c-0.537-0.358-1.378-1.064-1.909-1.307
		c-0.014-0.119-0.134,0.058-0.201,0.05c-0.28,0.74-0.127,1.669-0.201,2.562c-0.052,0.625-0.353,2.172-0.101,2.612
		c0.183,0.317,1.118,0.485,1.658,0.653c3.321,1.033,5.87,3.435,6.983,6.431c0.163,0.438,0.144,1.128,0.703,1.457
		C33.951,34.504,34.178,33.613,34.604,32.825z M19.331,29.911c-1.908,0.167-3.733,0.825-5.225,1.859
		c-1.337,0.927-2.712,2.16-3.015,3.718c-0.542,2.792,2.583,3.476,4.622,2.411c1.253-0.654,2.237-1.909,3.014-3.265
		c0.761-1.328,1.49-2.878,1.558-4.622C20.07,29.749,19.605,29.887,19.331,29.911z M46.912,32.021
		c0.736,1.911,1.496,3.819,2.864,5.024c0.77,0.678,2.043,1.462,3.266,1.457c1.239-0.006,2.249-0.737,2.512-1.708
		c0.41-1.513-0.573-2.937-1.256-3.668c-1.586-1.698-4.716-3.311-7.687-3.115C46.328,30.653,46.677,31.409,46.912,32.021z
		 M26.365,44.731c2.241-1.481,4.26-3.974,3.918-7.887c-0.253-2.901-2.35-5.257-4.621-6.23c-0.55-0.235-1.496-0.503-1.909-0.301
		c-0.622,1.375-0.832,2.876-1.407,4.17c-0.282,0.635-0.654,1.288-1.004,1.859c-0.364,0.592-0.934,1.09-1.055,1.809
		c1.001,0.799,2.054,1.314,2.813,2.411c0.922,1.332,1.153,2.989,1.206,5.125C25.143,45.734,25.777,45.12,26.365,44.731z
		 M42.642,44.43c0.01-2.523,1.026-4.326,2.462-5.426c0.449-0.344,1.275-0.611,1.306-1.055c0.035-0.511-0.325-0.657-0.502-0.904
		c-1.016-1.413-1.733-3.024-2.261-4.873c-0.226-0.792-0.339-2.002-1.206-1.809c-3.629,0.812-6.656,4.391-5.778,8.942
		c0.313,1.619,1.174,2.992,2.16,4.069c0.571,0.624,1.273,1.3,1.859,1.708c0.474,0.33,1.133,0.717,1.859,0.704
		C42.842,45.356,42.64,44.845,42.642,44.43z M38.573,50.459c0.477-0.782,1.385-1.116,1.758-1.96
		c-0.102-0.507-0.663-0.635-1.005-0.854c-1.174-0.754-2.234-1.575-3.115-2.612c-1.196-1.411-1.932-3.05-2.663-4.974
		c-0.033,0-0.067,0-0.101,0c-0.072,0.028-0.123,0.079-0.15,0.151c-0.348,0.946-0.615,1.815-1.005,2.562
		c-1.13,2.165-2.693,3.701-4.772,4.974c-0.373,0.228-0.813,0.27-1.055,0.803c0.244,0.544,0.792,0.782,1.205,1.156
		c0.305,0.433,0.672,0.794,0.955,1.306c0.315,0.571,0.332,1.334,0.854,1.758c0.995-0.244,1.977-0.78,3.165-0.854
		c0.421-0.026,0.875-0.031,1.306,0c1.442,0.105,2.491,0.77,3.617,1.005C38.063,52.121,38.12,51.202,38.573,50.459z M50.428,43.777
		c0.143-1.498-0.271-3.563-1.607-3.416c-0.478,0.053-1.167,0.435-1.557,0.703c-1.457,1.003-2.053,3.777-1.356,5.476
		C48.156,46.756,49.804,45.518,50.428,43.777z M21.241,44.681c-0.024-2.235-1.43-3.875-3.366-4.27
		c-0.057-0.012-0.182,0.029-0.251,0.05c-0.969,0.29-1.565,1.933-1.256,3.266c0.414,1.783,2.412,2.889,4.371,2.763
		C21.199,45.968,21.247,45.295,21.241,44.681z M18.427,49.404c-5.465-0.472-8.891,2.176-9.495,6.732
		c0.579,0.629,1.945,0.735,2.964,0.653c2.933-0.237,4.968-2.202,6.28-4.019c0.564-0.913,1.39-1.819,1.457-3.064
		C19.336,49.388,18.848,49.44,18.427,49.404z M49.374,49.353c-0.811,0.012-1.799-0.038-2.261,0.402
		c-0.049,0.646,0.389,1.243,0.704,1.809c1.301,2.337,3.279,4.419,6.129,5.074c1.071,0.246,3.105,0.304,3.818-0.502
		C57.232,51.873,54.254,49.283,49.374,49.353z M26.515,54.176c-0.156-2.027-2.186-3.926-3.718-3.617
		c-0.28,0.239-0.456,0.87-0.553,1.256c-0.729,2.911,1.317,4.744,3.768,4.723C26.561,56.042,26.592,55.165,26.515,54.176z
		 M44.802,53.071c0-0.809-0.34-2.499-1.004-2.612c-0.976-0.168-1.77,0.932-2.412,1.205c-0.949,0.786-1.521,3.271-0.854,4.874
		C42.59,56.494,44.802,55.402,44.802,53.071z M37.266,57.542c-0.236-0.49-0.817-1.157-1.256-1.507
		c-2.725-2.172-6.896-0.133-7.034,3.165c-0.017,0.399,0.18,0.815-0.1,1.206c-0.948-0.177-1.805-0.555-2.814-0.452
		c-2.105,0.216-3.664,1.972-3.768,4.019c-0.103,2.033,1.211,3.542,2.562,4.12c0.422,0.18,0.93,0.102,1.256,0.503
		c-0.199,0.665-0.838,1.187-1.055,1.959c-0.512,1.826,0.316,3.587,1.306,4.421c0.499,0.239,0.952,0.679,1.507,0.854
		c1.438,0.453,3.18,0.033,4.169-0.804c0.555-0.469,0.701-1.129,1.356-1.407c0.457,0.314,0.676,0.865,1.055,1.256
		c1.272,1.378,4.292,1.487,5.727,0.301c0.948-0.783,1.626-2.332,1.457-3.969c-0.126-1.222-0.968-1.763-1.155-2.713
		c0.291-0.434,0.913-0.359,1.356-0.553c0.734-0.319,1.358-0.993,1.708-1.557c1.671-2.696-0.318-6.397-3.517-6.481
		c-0.951-0.025-1.498,0.386-2.311,0.302C37.619,59.258,37.635,58.308,37.266,57.542z"/>
	<path style="fill-rule:evenodd;clip-rule:evenodd;" d="M32.444,60.306c1.653-0.194,2.964,0.204,3.918,0.753
		c1.821,1.048,3.36,3.045,3.064,5.928c-0.352,3.436-4.362,6.535-8.39,4.873c-0.882-0.364-1.807-0.999-2.462-1.759
		c-1.464-1.699-1.861-4.629-0.502-6.933C28.807,61.924,30.487,60.535,32.444,60.306z M30.786,64.978
		c-1.066,2.022,0.657,4.157,2.561,4.12c1.726-0.034,3.372-1.935,2.713-3.768c-0.387-1.077-1.661-2.013-3.114-1.809
		C31.97,63.658,31.137,64.31,30.786,64.978z"/>
</g>
<g id="Layer_1">
</g>
</svg>
