<?xml version="1.0" encoding="iso-8859-1"?>
<!-- Generator: Adobe Illustrator 19.2.0, SVG Export Plug-In . SVG Version: 6.00 Build 0)  -->
<svg version="1.1" xmlns="http://www.w3.org/2000/svg" xmlns:xlink="http://www.w3.org/1999/xlink" x="0px" y="0px"
	 viewBox="0 0 74.679 75.012" style="enable-background:new 0 0 74.679 75.012;" xml:space="preserve">
<g id="Crea-Filmi">
	<path style="fill-rule:evenodd;clip-rule:evenodd;" d="M74.641,35.821c-5.237,0.198-10.979,0.089-16.464,0.047
		c-0.318-0.707-0.29-1.47-0.422-2.158c-0.927-4.802-3.294-8.564-6.332-11.398c-3.265-3.045-8.459-5.678-14.776-5.441
		c-6.253,0.235-10.807,2.798-14.072,6.239c-3.26,3.435-5.816,7.995-5.816,14.495c0,4.882,1.662,8.604,3.659,11.586
		c1.981,2.958,4.773,5.423,8.209,7.036c2.329,1.093,5.043,1.873,8.162,1.97c6.508,0.204,11.42-2.303,14.776-5.535
		c3.492-3.364,5.881-7.58,6.567-13.697c2.636-0.23,5.361-0.109,8.115-0.094c2.745,0.015,5.616-0.096,8.396,0.094
		c0.155,2.155-0.188,4.239-0.609,6.145c-1.255,5.673-3.334,10.428-6.333,14.401c-3.982,5.275-8.996,9.584-15.292,12.337
		c-3.218,1.406-6.77,2.481-10.883,2.955c-4.262,0.491-8.649,0.091-12.524-0.844c-7.292-1.761-13.183-5.255-17.778-9.851
		c-4.602-4.602-8.344-10.205-10.085-17.59c-0.918-3.891-1.402-8.171-0.985-12.477c0.396-4.091,1.407-7.851,2.768-11.023
		C5.68,16.576,9.776,11.549,15.068,7.488c5.347-4.103,11.64-6.786,20.217-7.412c4.644-0.339,9.229,0.494,12.712,1.501
		c3.709,1.072,6.887,2.654,9.663,4.457c5.852,3.8,10.114,8.749,13.275,14.917c1.039,2.049,1.899,4.343,2.58,6.802
		C74.195,30.209,74.714,32.925,74.641,35.821z"/>
	<path style="fill-rule:evenodd;clip-rule:evenodd;" d="M41.008,18.136c3.236-0.137,5.856,1.152,7.505,2.674
		c1.686,1.556,3.113,3.8,3.424,6.755c0.346,3.291-0.672,5.912-2.158,7.833c-1.48,1.914-3.576,3.261-6.286,3.847
		c-3.186,0.688-6.098-0.4-8.068-1.736c-2.066-1.401-3.599-3.484-4.222-5.957c-0.774-3.075-0.105-6.223,1.125-8.303
		c1.098-1.856,3.083-3.732,5.535-4.597C38.779,18.33,39.641,18.195,41.008,18.136z"/>
</g>
<g id="Layer_1">
</g>
</svg>
