<?xml version="1.0" encoding="iso-8859-1"?>
<!-- Generator: Adobe Illustrator 21.0.2, SVG Export Plug-In . SVG Version: 6.00 Build 0)  -->
<svg version="1.1" xmlns="http://www.w3.org/2000/svg" xmlns:xlink="http://www.w3.org/1999/xlink" x="0px" y="0px"
	 viewBox="0 0 26.757 30.527" style="enable-background:new 0 0 26.757 30.527;" xml:space="preserve">
<g id="Creative_x5F_Metrics">
	<path d="M13.715,0.048c0.943-0.069,1.885-0.057,2.828-0.006c-0.167,1.894-0.254,3.818-0.498,5.692
		c-0.197-1.696-0.187-3.452-0.479-5.112c-0.173,1.728-0.243,3.473-0.457,5.192c-0.132-1.753-0.278-3.506-0.412-5.26
		c-0.297,1.718-0.299,3.512-0.522,5.253C13.981,3.892,13.884,1.965,13.715,0.048z"/>
	<path d="M9.881,0.931c0.902-0.284,1.81-0.57,2.744-0.723c0.319,1.908,0.707,3.807,0.987,5.72c-0.615-1.626-1.079-3.32-1.766-4.913
		c0.247,1.696,0.592,3.385,0.866,5.079c-0.687-1.613-1.095-3.353-1.813-4.958c0.284,1.75,0.662,3.489,0.896,5.245
		C11.164,4.562,10.492,2.755,9.881,0.931z"/>
	<path d="M17.658,0.208c0.923,0.171,1.824,0.436,2.718,0.717c-0.567,1.837-1.264,3.639-1.911,5.449
		c0.22-1.716,0.672-3.41,0.876-5.132c-0.678,1.589-1.139,3.276-1.81,4.866c0.264-1.723,0.685-3.427,0.891-5.158
		c-0.635,1.628-1.157,3.303-1.782,4.933C16.945,3.989,17.303,2.096,17.658,0.208z"/>
	<path d="M6.379,2.817c0.783-0.54,1.602-1.039,2.47-1.43c0.82,1.743,1.644,3.487,2.449,5.236c-1.055-1.369-1.916-2.89-2.983-4.245
		c0.654,1.583,1.459,3.108,2.121,4.686C9.405,5.675,8.51,4.181,7.479,2.79C8.12,4.408,8.965,5.947,9.626,7.557
		C8.512,6.002,7.481,4.382,6.379,2.817z"/>
	<path d="M21.443,1.385c0.846,0.411,1.658,0.886,2.443,1.405c-1.034,1.636-2.172,3.212-3.264,4.81
		c0.675-1.607,1.495-3.155,2.182-4.759c-1.07,1.362-1.972,2.86-2.992,4.262c0.615-1.571,1.509-3.042,2.078-4.626
		c-1.008,1.342-1.902,2.772-2.887,4.13C19.752,4.842,20.631,3.125,21.443,1.385z"/>
	<path d="M3.498,5.524C4.136,4.822,4.77,4.087,5.525,3.515C6.717,4.978,8.002,6.386,9.127,7.89c-1.293-1.063-2.513-2.219-3.83-3.252
		c0.989,1.378,2.186,2.614,3.229,3.957C7.165,7.554,5.947,6.323,4.588,5.281c1.012,1.373,2.224,2.602,3.229,3.973
		C6.352,8.041,4.931,6.774,3.498,5.524z"/>
	<path d="M21.061,7.932c1.202-1.497,2.451-2.964,3.701-4.422c0.724,0.612,1.366,1.31,1.994,2.018
		c-1.419,1.269-2.858,2.523-4.327,3.731c0.995-1.314,2.15-2.53,3.134-3.854c-1.348,0.971-2.51,2.202-3.841,3.201
		c1.056-1.33,2.202-2.593,3.231-3.943C23.598,5.676,22.399,6.901,21.061,7.932z"/>
	<path d="M2.742,6.526c0.061-0.122,0.197-0.023,0.272,0.029c1.502,1.045,3.004,2.092,4.488,3.16C5.924,9.095,4.46,8.191,2.876,7.579
		c1.353,1.015,2.771,1.951,4.132,2.956C5.448,9.912,3.985,9.038,2.423,8.409c1.325,1.005,2.708,1.947,4.09,2.872
		c-1.653-0.608-3.224-1.474-4.836-2.207C1.567,9.02,1.359,8.968,1.454,8.805C1.831,8.017,2.256,7.251,2.742,6.526z"/>
	<path d="M0.951,9.975c1.777,0.651,3.614,1.139,5.352,1.888c-1.628-0.214-3.234-0.655-4.87-0.813
		c1.519,0.639,3.109,1.119,4.648,1.714c-1.586-0.128-3.148-0.645-4.725-0.742c1.454,0.646,3.01,1.061,4.479,1.679
		c-1.865-0.247-3.711-0.694-5.576-0.966C0.33,11.787,0.696,10.886,0.951,9.975z"/>
	<path d="M0.067,13.804c1.899,0.171,3.805,0.267,5.7,0.471c-1.66,0.247-3.372,0.227-5.015,0.513
		c1.647,0.203,3.314,0.252,4.962,0.442c-1.597,0.264-3.244,0.227-4.84,0.499c1.608,0.264,3.276,0.229,4.891,0.486
		c-1.898,0.169-3.797,0.33-5.697,0.49C-0.041,15.745-0.001,14.768,0.067,13.804z"/>
	<path d="M0.237,17.809c1.847-0.326,3.681-0.77,5.539-1.005c-1.556,0.635-3.193,1.096-4.719,1.78c1.651-0.25,3.286-0.62,4.937-0.885
		c-1.521,0.71-3.183,1.117-4.71,1.808c1.668-0.233,3.316-0.644,4.984-0.885c-1.753,0.719-3.558,1.325-5.339,1.975
		C0.658,19.68,0.321,18.764,0.237,17.809z"/>
	<path d="M1.366,21.638c1.71-0.829,3.405-1.701,5.138-2.477c-1.371,1.036-2.807,1.986-4.182,3.015C3.92,21.539,5.416,20.65,7,19.976
		c-1.371,1.032-2.805,1.987-4.178,3.015c1.567-0.622,3.034-1.497,4.589-2.153c-1.526,1.128-3.071,2.261-4.666,3.286
		C2.239,23.322,1.741,22.51,1.366,21.638z"/>
	<path d="M3.48,25.007c1.445-1.244,2.86-2.522,4.324-3.743c-1.053,1.389-2.263,2.662-3.306,4.062
		c1.361-1.067,2.615-2.292,3.971-3.363c-1.056,1.351-2.229,2.612-3.262,3.983c1.358-1.027,2.573-2.247,3.912-3.302
		c-1.189,1.484-2.411,2.953-3.656,4.39C4.74,26.481,4.046,25.744,3.48,25.007z"/>
	<path d="M22.401,21.327c1.47,1.213,2.911,2.469,4.346,3.725c-0.628,0.703-1.246,1.479-2.039,1.986
		c-1.225-1.449-2.483-2.894-3.668-4.378c1.321,1.042,2.54,2.219,3.87,3.246c-0.959-1.371-2.185-2.564-3.18-3.914
		c1.339,1.078,2.593,2.271,3.953,3.325C24.639,23.951,23.438,22.698,22.401,21.327z"/>
	<path d="M20.564,23.022c1.111,1.546,2.17,3.136,3.259,4.696c-0.796,0.508-1.585,1.087-2.477,1.398
		c-0.774-1.728-1.696-3.4-2.403-5.149c0.967,1.408,1.92,2.828,2.948,4.189c-0.625-1.576-1.489-3.064-2.133-4.635
		c0.999,1.352,1.885,2.793,2.923,4.117C22.058,26.074,21.219,24.58,20.564,23.022z"/>
	<path d="M6.354,27.729c1.04-1.555,2.102-3.124,3.178-4.663c-0.642,1.558-1.424,3.07-2.106,4.611c1.07-1.28,1.911-2.748,2.888-4.104
		c-0.567,1.569-1.444,3.03-2.056,4.577c1.034-1.352,1.962-2.783,2.931-4.183c-0.696,1.759-1.635,3.422-2.396,5.158
		C7.92,28.776,7.146,28.225,6.354,27.729z"/>
	<path d="M18.394,24.15c0.609,1.828,1.35,3.613,1.922,5.452c-0.895,0.281-1.795,0.576-2.728,0.7
		c-0.344-1.862-0.729-3.727-1.002-5.596c0.594,1.583,1.094,3.213,1.761,4.763c-0.214-1.673-0.618-3.323-0.868-4.992
		c0.619,1.568,1.128,3.186,1.765,4.749C19.076,27.52,18.588,25.854,18.394,24.15z"/>
	<path d="M9.82,29.584c0.57-1.82,1.318-3.579,1.91-5.392c-0.207,1.734-0.649,3.439-0.885,5.17c0.664-1.591,1.156-3.267,1.796-4.864
		c-0.25,1.687-0.646,3.359-0.863,5.053c0.618-1.599,1.165-3.234,1.757-4.843c-0.275,1.868-0.669,3.723-0.978,5.588
		C11.622,30.168,10.716,29.87,9.82,29.584z"/>
	<path d="M14.117,24.767c0.197,1.725,0.212,3.493,0.506,5.195c0.136-1.696,0.297-3.39,0.406-5.089
		c0.016-0.001,0.048-0.003,0.064-0.004c0.165,1.66,0.164,3.419,0.48,5.014c0.102-1.673,0.272-3.34,0.399-5.01
		c0.016,0.001,0.046,0.001,0.062,0.001c0.123,1.865,0.299,3.727,0.444,5.591c-0.94,0.086-1.887,0.078-2.828,0
		C13.802,28.566,13.922,26.661,14.117,24.767z"/>
</g>
<g id="Layer_1">
</g>
</svg>
