<?xml version="1.0" encoding="iso-8859-1"?>
<!-- Generator: Adobe Illustrator 19.2.0, SVG Export Plug-In . SVG Version: 6.00 Build 0)  -->
<svg version="1.1" xmlns="http://www.w3.org/2000/svg" xmlns:xlink="http://www.w3.org/1999/xlink" x="0px" y="0px"
	 viewBox="0 0 81.116 59.009" style="enable-background:new 0 0 81.116 59.009;" xml:space="preserve">
<g id="credit_x5F_mutuel_x5F_hypothecaire">
	<path style="fill-rule:evenodd;clip-rule:evenodd;" d="M40.432,0.159c0.058,0.393-0.241,0.731-0.441,1.03
		c-5.943,8.875-12.107,17.753-18.253,26.644c-0.347,0.501-1.174,1.489-1.178,1.914c-0.005,0.521,0.874,1.413,1.178,1.816
		c1.321,1.75,2.429,3.401,3.68,5.201c5.05,6.792,9.887,13.796,14.966,20.559c0.396,0.186,0.645,0.395,0.981,0.491
		c1.916,0.549,3.469-0.476,3.926-1.914c0.287-0.904,0.196-2.065,0.196-3.288c0-7.869,0.133-16.902,0.049-24.78
		c-0.095-8.893-0.027-18.502,0.098-27.674c11.19-0.095,23.637-0.091,34.839,0c0.089,0.397-0.252,0.743-0.442,1.03
		c-4.681,7.089-9.65,14.11-14.524,21.148c-1.216,1.756-2.471,3.633-3.778,5.545c-0.325,0.475-1.223,1.405-1.227,1.864
		c-0.004,0.446,0.891,1.445,1.227,1.914c5.623,7.838,11.332,15.679,16.978,23.504c0.657,0.91,1.316,1.817,1.962,2.748
		c0.188,0.27,0.496,0.606,0.442,0.981c-19.963,0.213-40.273,0.067-60.109,0.049c-1.058-1.064-1.805-2.396-2.699-3.583
		c-3.569-4.741-6.978-9.72-10.55-14.524c-0.454-0.61-0.804-1.275-1.227-1.914C4.501,35.865,1.985,32.962,0,29.796
		c0.701-1.315,1.648-2.51,2.502-3.778c1.246-1.851,2.59-3.659,3.876-5.545c0.43-0.631,0.728-1.332,1.177-1.963
		c3.869-5.437,7.712-10.988,11.58-16.683c0.42-0.618,1.002-1.66,1.57-1.766c0.722-0.135,1.683-0.004,2.502,0
		C28.611,0.09,34.84-0.04,40.432,0.159z"/>
</g>
<g id="Layer_1">
</g>
</svg>
