<?xml version="1.0" encoding="iso-8859-1"?>
<!-- Generator: Adobe Illustrator 19.2.0, SVG Export Plug-In . SVG Version: 6.00 Build 0)  -->
<svg version="1.1" xmlns="http://www.w3.org/2000/svg" xmlns:xlink="http://www.w3.org/1999/xlink" x="0px" y="0px"
	 viewBox="0 0 75.075 75.565" style="enable-background:new 0 0 75.075 75.565;" xml:space="preserve">
<g id="credit_x5F_lyonnais_x5F_bank">
	<path style="fill-rule:evenodd;clip-rule:evenodd;" d="M40.128,0.222c-0.021,0.511-0.512,0.77-0.823,1.08
		c-4.666,4.667-9.261,9.62-13.994,14.303c-5.061,5.006-10.043,10.091-15.023,15.177c-2.768,3.044-5.913,5.856-8.695,8.952
		c-0.363,0.404-0.654,0.989-1.234,1.132c-0.411-0.41-0.259-1.132-0.308-1.75c-0.158-1.972,0.1-4.224,0.257-6.019
		c2.435-2.903,5.177-5.534,7.872-8.283c2.602-2.656,5.228-5.383,7.974-8.129c2.638-2.638,5.32-5.423,8.026-8.129
		c1.897-1.897,3.979-4.031,6.019-6.071c0.618-0.618,1.357-1.792,1.955-2.058c1.064-0.474,2.803-0.299,4.116-0.36
		C37.579,0.006,39.015-0.101,40.128,0.222z"/>
	<path style="fill-rule:evenodd;clip-rule:evenodd;" d="M48.719,1.919c-0.246,0.579-0.754,1.012-1.183,1.441
		c-0.845,0.844-1.697,1.705-2.573,2.572c-0.438,0.435-0.763,0.945-1.183,1.389c-4.169,4.411-8.544,8.646-12.862,12.965
		c-7.694,7.695-15.28,15.707-22.997,23.46c-1.4,1.544-2.884,2.987-4.373,4.476c-0.479,0.478-0.884,1.149-1.595,1.338
		c-0.531-1.247-0.864-2.63-1.183-4.219c-0.099-0.494-0.269-1.12-0.206-1.543c0.069-0.465,0.769-1.027,1.184-1.492
		c1.271-1.424,2.675-2.787,3.91-4.116c0.866-0.932,1.869-1.736,2.676-2.675c0.83-0.967,1.698-1.923,2.572-2.778
		c3.723-3.644,7.228-7.23,10.65-10.701c1.623-1.835,3.593-3.446,5.351-5.351c3.313-3.59,7.046-7.117,10.547-10.804
		c1.258-1.325,2.602-2.65,3.91-4.116c0.404-0.453,1.156-1.288,1.543-1.337c0.437-0.056,1.034,0.198,1.544,0.309
		C46.015,1.077,47.528,1.227,48.719,1.919z"/>
	<path style="fill-rule:evenodd;clip-rule:evenodd;" d="M28.243,1.251c0.022,0.43-0.417,0.725-0.669,0.977
		c-5.38,5.38-10.731,10.988-16.154,16.412c-2.851,2.851-5.614,5.768-8.489,8.643c-0.278,0.279-0.609,0.516-0.875,0.823
		C1.8,28.404,1.649,28.874,1.181,28.93c-0.059-1.109,0.473-2.007,0.72-3.036c0.274-1.14,0.52-2.002,0.977-3.087
		C5,17.782,8.238,13.612,11.831,10.151c4.312-4.154,9.654-7.152,15.897-8.849C27.824,1.276,28.045,1.223,28.243,1.251z"/>
	<path style="fill-rule:evenodd;clip-rule:evenodd;" d="M56.128,5.161c-0.297,0.71-0.914,1.263-1.441,1.801
		c-3.132,3.199-6.408,6.458-9.621,9.672c-0.531,0.532-0.96,1.167-1.492,1.698c-2.133,2.133-4.276,4.276-6.431,6.431
		c-8.515,8.515-16.772,17.338-25.415,25.981c-1.514,1.514-3.11,3.198-4.733,4.888c-0.399,0.416-1.3,1.57-1.647,1.544
		c-0.353-0.027-0.636-0.79-0.823-1.132c-0.504-0.922-0.851-1.587-1.286-2.572c-0.182-0.412-0.535-1.003-0.514-1.389
		c0.028-0.523,0.966-1.275,1.389-1.698c3.451-3.451,7.221-7.207,10.547-10.753C26.738,27.356,39.008,15.274,50.829,2.743
		c0.873-0.048,1.984,0.587,2.933,1.029C54.682,4.2,55.591,4.644,56.128,5.161z"/>
	<path style="fill-rule:evenodd;clip-rule:evenodd;" d="M57.672,6.344c0.461-0.32,1.017,0.316,1.44,0.618
		c0.767,0.543,1.387,0.991,2.161,1.646c0.339,0.287,0.917,0.602,0.926,0.977c0.01,0.411-1.165,1.422-1.543,1.801
		c-1.658,1.658-3.344,3.274-4.939,4.991c-4.35,4.682-8.772,8.698-13.119,13.377c-2.123,2.285-4.293,4.586-6.534,6.688
		c-2.3,2.157-4.334,4.54-6.534,6.739c-1.111,1.111-2.239,2.187-3.344,3.293c-1.094,1.094-2.079,2.285-3.19,3.395
		c-2.149,2.149-4.368,4.38-6.586,6.689c-1.02,1.062-2.225,2.276-3.292,3.344c-0.486,0.486-0.949,1.109-1.595,1.697
		c-0.422,0.385-1.453,1.492-1.801,1.492c-0.403,0.001-0.738-0.589-0.977-0.875c-0.659-0.787-1.046-1.229-1.646-2.058
		c-0.229-0.317-0.671-0.826-0.669-1.183c0.002-0.465,0.89-1.199,1.492-1.801c3.666-3.666,7.628-7.961,11.216-11.473
		c4.529-4.434,8.588-8.846,12.862-13.12c3.174-3.174,6.434-6.588,9.672-9.827c1.08-1.08,2.093-2.269,3.19-3.293
		c1.109-1.035,2.129-2.191,3.189-3.292C51.202,12.9,54.589,9.754,57.672,6.344z"/>
	<path style="fill-rule:evenodd;clip-rule:evenodd;" d="M73.569,27.747c-0.82-0.294-1.137-1.092-1.852-1.492
		c-3.256-3.081-6.686-6.828-10.187-10.033c-0.368-0.336-1.328-1.05-1.337-1.543c-0.013-0.662,1.18-1.438,1.595-1.853
		c0.635-0.635,1.059-1.215,1.646-1.749c0.634-0.359,1.533,0.981,2.006,1.492c3.242,3.503,5.656,7.695,7.46,12.605
		C73.199,25.989,73.592,26.867,73.569,27.747z"/>
	<path style="fill-rule:evenodd;clip-rule:evenodd;" d="M58.649,16.222c0.034,0,0.069,0,0.103,0
		c2.637,2.404,5.191,4.832,7.923,7.563c2.208,2.208,4.483,4.471,6.894,6.688c0.369,0.339,0.802,0.698,0.926,0.978
		c0.401,0.906,0.397,2.713,0.463,3.91c0.076,1.373,0.244,2.816-0.051,4.064c-0.619-0.151-0.994-0.686-1.389-1.081
		c-0.41-0.41-0.821-0.829-1.286-1.183c-0.816-0.83-1.594-1.699-2.47-2.47c-2.5-2.421-5.04-4.806-7.46-7.306
		c-1.206-1.246-2.511-2.391-3.704-3.653c-1.188-1.257-2.639-2.274-3.653-3.704c0.334-0.715,1.058-1.316,1.698-1.956
		C57.28,17.436,57.965,16.571,58.649,16.222z"/>
	<path style="fill-rule:evenodd;clip-rule:evenodd;" d="M73.363,48.583c-0.656-0.161-1.172-0.76-1.647-1.235
		c-1.432-1.432-2.933-2.94-4.424-4.373c-3.925-3.771-7.874-7.607-11.885-11.576c-1.382-1.368-2.926-2.906-4.425-4.373
		c-0.432-0.423-1.378-1.086-1.389-1.543c-0.014-0.565,1.209-1.43,1.698-1.955c0.716-0.77,1.222-1.4,1.852-1.8
		c0.6-0.382,1.25,0.65,1.698,1.08c0.508,0.488,1.014,0.867,1.337,1.287c0.939,0.81,1.784,1.715,2.676,2.572
		c4.423,4.414,9.391,9.082,13.994,13.685c0.534,0.534,1.766,1.379,1.904,2.007c0.104,0.47-0.124,1.19-0.206,1.698
		C74.292,45.632,73.965,47.335,73.363,48.583z"/>
	<path style="fill-rule:evenodd;clip-rule:evenodd;" d="M48.154,27.026c1.161,0.826,2.088,1.947,3.139,2.933
		c3.096,2.904,6.133,5.876,9.209,8.952c1.96,1.959,4.046,3.892,6.123,5.968c1.514,1.514,3.05,2.895,4.63,4.476
		c0.422,0.422,1.347,1.225,1.389,1.595c0.046,0.403-0.336,1.001-0.515,1.44c-0.566,1.391-1.126,2.768-1.955,3.807
		c-1.347-0.796-2.175-2.113-3.396-3.036c-1.736-1.854-3.724-3.672-5.608-5.556c-3.658-3.657-7.529-7.221-11.318-11.01
		c-1.395-1.395-2.761-2.723-4.271-4.116c-0.404-0.373-1.276-1.028-1.286-1.492c-0.014-0.627,1.155-1.553,1.698-2.058
		C46.831,28.151,47.367,27.27,48.154,27.026z"/>
	<path style="fill-rule:evenodd;clip-rule:evenodd;" d="M62.353,59.233c-6.705-6.483-13.407-12.968-20.064-19.499
		c-1.071-1.124-2.306-2.084-3.242-3.344c0.427-0.764,1.046-1.406,1.646-2.006c0.6-0.6,1.238-1.163,1.801-1.801
		c0.758-0.18,1.457,0.948,1.955,1.492c0.576,0.629,1.183,1.149,1.646,1.595c5.462,5.248,10.998,10.684,16.463,15.949
		c1.546,1.489,3.25,3.199,4.888,4.836c0.489,0.489,1.504,1.186,1.544,1.698c0.028,0.372-0.396,0.904-0.618,1.235
		c-0.546,0.815-0.94,1.305-1.595,2.109c-0.252,0.309-0.656,0.857-0.926,0.875C65.316,62.407,64.3,61.2,64,60.879
		C63.397,60.237,62.873,59.885,62.353,59.233z"/>
	<path style="fill-rule:evenodd;clip-rule:evenodd;" d="M57.775,65.458c-4.209-4.076-8.391-8.269-12.708-12.296
		c-0.709-0.662-1.344-1.446-2.058-2.109c-0.361-0.335-0.714-0.691-1.08-1.029c-0.322-0.297-0.609-0.812-1.132-0.823
		c-0.358,0.401-0.206,1.015-0.206,1.492c0,8.235,0.04,16.828-0.154,24.695c-0.771,0.263-1.853,0.154-2.881,0.154
		c-1.025,0-2.098,0.079-2.83-0.206c-0.191-7.51-0.103-15.161-0.103-22.997c0-1.021,0.091-2.106-0.309-2.984
		c-0.623,0.05-0.949,0.64-1.338,1.029c-5.087,5.087-10.094,10.301-15.28,15.486c-0.332,0.332-0.746,0.717-1.183,1.183
		c-0.351,0.374-0.885,1.06-1.235,1.081c-0.438,0.026-0.854-0.468-1.183-0.72c-0.401-0.307-0.781-0.562-1.029-0.874
		c-0.398-0.218-0.641-0.511-1.029-0.875c-0.291-0.272-0.864-0.576-0.875-1.029c-0.01-0.436,1.06-1.405,1.492-1.801
		c1.754-1.605,3.333-3.324,4.991-4.888c2.301-2.169,4.434-4.504,6.482-6.688c4.232-4.512,8.714-8.88,13.068-13.222
		c0.601-0.414,1.684,1.036,2.058,1.389c0.565,0.535,1.18,1.105,1.698,1.595c4.528,4.281,8.847,8.812,13.428,13.068
		c2.824,2.624,5.381,5.497,8.386,8.129c0.147,0.129,1.571,1.329,1.595,1.698c0.04,0.628-1.447,1.704-1.853,2.058
		c-0.339,0.297-0.603,0.577-1.029,0.926c-0.243,0.2-0.845,0.762-1.132,0.772c-0.43,0.015-1.04-0.783-1.337-1.081
		C58.611,66.192,58.297,65.824,57.775,65.458z"/>
</g>
<g id="Layer_1">
</g>
</svg>
