<?xml version="1.0" encoding="iso-8859-1"?>
<!-- Generator: Adobe Illustrator 19.2.0, SVG Export Plug-In . SVG Version: 6.00 Build 0)  -->
<svg version="1.1" xmlns="http://www.w3.org/2000/svg" xmlns:xlink="http://www.w3.org/1999/xlink" x="0px" y="0px"
	 viewBox="0 0 172.132 171.419" style="enable-background:new 0 0 172.132 171.419;" xml:space="preserve">
<g id="cristallerie_x5F_daum">
	<path style="fill-rule:evenodd;clip-rule:evenodd;" d="M34.427,6.066c3.106,3.427,5.91,7.842,5.91,14.354
		c0,6.446-2.662,11.044-5.864,14.401c-2.249,2.132-4.559,3.902-7.74,4.925c-3.249,1.045-7.409,1.274-11.164,0.469
		C9.18,38.846,4.41,34.336,1.778,28.722C0.365,25.708-0.31,21.688,0.136,17.98c0.45-3.743,1.697-6.702,3.424-9.194
		c2.513-3.624,6.268-6.655,11.023-7.975c0.824-0.229,1.653-0.489,2.533-0.61c0.929-0.127,2.124-0.189,3.096-0.188
		C26.885,0.023,30.895,2.816,34.427,6.066z"/>
	<path style="fill-rule:evenodd;clip-rule:evenodd;" d="M62.056,0.108c6.529-0.51,11.831,2.137,15.011,5.254
		c3.357,3.29,6.217,7.399,6.614,13.603c0.428,6.681-1.941,11.437-5.019,15.058c-1.523,1.791-3.472,3.318-5.676,4.456
		c-2.246,1.16-4.826,2.019-7.833,2.252c-6.525,0.505-11.635-2.175-15.011-5.16c-1.803-1.595-3.266-3.466-4.409-5.723
		c-1.137-2.246-2.081-4.802-2.298-7.787c-0.497-6.817,2.033-11.758,5.066-15.198c1.551-1.759,3.403-3.266,5.676-4.457
		C56.377,1.253,58.968,0.349,62.056,0.108z"/>
	<path style="fill-rule:evenodd;clip-rule:evenodd;" d="M120.457,5.268c3.719,3.628,6.975,8.607,6.661,16.042
		c-0.097,2.302-0.554,4.434-1.267,6.332c-1.343,3.582-3.529,6.522-6.426,8.772c-2.869,2.228-6.401,4.001-10.883,4.316
		c-4.898,0.343-8.95-1.076-12.103-3.003c-3.249-1.985-5.563-4.664-7.271-7.927c-1.749-3.343-2.839-7.791-2.111-12.525
		c0.662-4.299,2.444-7.65,4.832-10.32c3.052-3.413,7.45-6.451,13.51-6.895C112.263-0.443,116.848,2.245,120.457,5.268z"/>
	<path style="fill-rule:evenodd;clip-rule:evenodd;" d="M151.558,43.452c2.995-0.143,6.181,0.686,8.444,1.688
		c2.393,1.061,4.36,2.437,6.004,4.081c3.355,3.355,5.759,7.749,6.051,14.167c0.145,3.195-0.678,6.149-1.689,8.444
		c-1.039,2.358-2.466,4.354-4.081,6.004c-3.324,3.396-8.024,5.909-14.073,6.098c-3.23,0.101-6.028-0.702-8.396-1.735
		c-4.667-2.037-8.107-5.438-10.226-9.992c-1.1-2.364-1.783-4.97-1.923-8.162c-0.141-3.2,0.714-6.117,1.688-8.443
		c1.971-4.707,5.35-8.016,9.945-10.226C145.694,44.224,148.228,43.611,151.558,43.452z"/>
	<path style="fill-rule:evenodd;clip-rule:evenodd;" d="M5.39,50.019c3.41-3.336,7.501-6.233,13.791-6.567
		c3.01-0.16,5.544,0.433,7.74,1.125c1.088,0.343,2.021,0.891,2.956,1.455c0.955,0.576,1.889,1.083,2.721,1.688
		c0.827,0.603,1.602,1.403,2.298,2.158c3.36,3.641,6.248,9.139,5.395,16.418c-0.581,4.957-2.848,9.139-5.817,11.867
		c-1.564,1.438-3.183,2.605-5.066,3.753c-0.938,0.572-2.096,0.852-3.237,1.22c-3.293,1.065-7.961,1.103-11.493,0.047
		c-4.541-1.356-7.879-3.897-10.507-7.177c-2.611-3.258-4.322-7.884-4.081-13.604c0.113-2.682,0.854-5.089,1.782-7.083
		C2.799,53.326,3.936,51.536,5.39,50.019z"/>
	<path style="fill-rule:evenodd;clip-rule:evenodd;" d="M62.384,43.546c3.242-0.253,6.257,0.429,8.725,1.407
		c2.403,0.952,4.563,2.3,6.192,3.894c1.775,1.738,3.233,3.448,4.362,5.77c1.118,2.299,2.044,4.899,2.158,7.928
		c0.25,6.645-1.959,11.396-5.253,14.87c-3.254,3.433-7.563,6.185-13.604,6.567c-6.384,0.404-11.463-2.185-14.87-5.254
		c-3.521-3.173-6.178-7.611-6.614-13.604c-0.492-6.758,2.225-11.57,5.207-15.011c1.503-1.735,3.519-3.195,5.723-4.363
		C56.611,44.585,59.309,43.786,62.384,43.546z"/>
	<path style="fill-rule:evenodd;clip-rule:evenodd;" d="M122.099,77.226c-3.316,3.533-7.35,6.195-13.51,6.708
		c-6.368,0.53-11.729-2.128-14.964-5.113c-3.474-3.206-6.203-7.618-6.661-13.51c-0.528-6.783,1.974-11.358,5.019-15.058
		c3.251-3.549,7.468-6.015,13.463-6.708c0.072-0.008,0.083-0.043,0.141-0.047c4.999-0.344,8.882,1.144,12.103,3.049
		c3.105,1.836,5.786,4.688,7.318,7.834c1.665,3.419,2.776,7.932,1.97,12.619C126.243,71.271,124.543,74.575,122.099,77.226z"/>
	<path style="fill-rule:evenodd;clip-rule:evenodd;" d="M165.771,92.753c3.431,3.46,6.011,7.607,6.333,13.933
		c0.403,7.923-3.605,13.621-8.068,17.121c-2.685,2.104-6.62,3.844-11.165,4.034c-6.801,0.286-11.031-2.343-14.729-5.488
		c-2.591-2.537-4.604-5.583-5.676-9.522c-1.164-4.278-0.766-9.092,0.75-12.899c1.375-3.453,3.65-6.394,6.614-8.585
		c3.042-2.249,6.726-3.915,11.211-4.128c3.386-0.16,6.248,0.541,8.584,1.548C162.001,89.789,164.064,91.088,165.771,92.753z"/>
	<path style="fill-rule:evenodd;clip-rule:evenodd;" d="M33.911,92.659c3.374,3.395,6.236,7.418,6.567,13.65
		c0.429,8.063-3.241,13.838-7.833,17.356c-2.73,2.092-6.372,4.017-10.977,4.175c-6.819,0.235-11.256-2.066-14.964-5.254
		c-2.662-2.513-4.579-5.543-5.77-9.429c-1.282-4.183-0.837-9.157,0.61-12.946c1.348-3.529,3.519-6.434,6.474-8.678
		c2.941-2.235,6.703-4.013,11.07-4.27C25.987,86.859,30.395,89.63,33.911,92.659z"/>
	<path style="fill-rule:evenodd;clip-rule:evenodd;" d="M48.734,94.019c3.378-3.383,7.426-6.339,13.697-6.708
		c5.89-0.347,10.317,1.696,13.557,4.175c3.291,2.52,5.874,6.065,7.177,10.555c0.708,2.439,0.986,5.336,0.657,8.022
		c-0.916,7.473-5.327,12.73-10.93,15.62c-2.014,1.04-4.143,1.841-6.755,2.111c-2.781,0.288-5.51,0.033-7.927-0.656
		c-4.486-1.279-7.87-3.965-10.461-7.225c-2.566-3.228-4.464-7.936-4.175-13.369C43.864,101.088,45.918,97.335,48.734,94.019z"/>
	<path style="fill-rule:evenodd;clip-rule:evenodd;" d="M105.681,87.358c6.572-0.456,11.757,2.128,15.058,5.207
		c3.254,3.035,6.284,7.65,6.567,13.65c0.312,6.594-2.001,11.381-5.16,14.964c-3.01,3.413-7.512,6.279-13.557,6.661
		c-6.384,0.404-11.563-2.065-14.917-5.16c-3.523-3.251-6.164-7.514-6.614-13.604c-0.48-6.499,1.953-11.644,5.066-14.964
		c2.454-2.616,5.225-4.638,9.241-5.957C102.657,87.731,104.229,87.459,105.681,87.358z"/>
	<path style="fill-rule:evenodd;clip-rule:evenodd;" d="M19.65,130.889c6.426-0.344,11.305,2.534,14.635,5.583
		c0.876,0.801,1.68,1.806,2.346,2.721c2.075,2.852,3.735,6.566,3.893,11.258c0.32,9.474-4.867,15.451-11.164,18.951
		c-1.063,0.591-2.415,0.949-3.753,1.313c-7.59,2.066-15.289-1.029-19.139-4.879c-3.392-3.392-5.942-7.613-6.239-13.979
		c-0.225-4.841,1.365-8.859,3.284-11.821c2.535-3.914,6.471-7.067,11.68-8.49C16.582,131.168,18.153,130.969,19.65,130.889z"/>
	<path style="fill-rule:evenodd;clip-rule:evenodd;" d="M48.78,137.597c3.385-3.375,7.423-6.293,13.698-6.661
		c5.875-0.344,10.305,1.644,13.557,4.129c3.317,2.534,5.922,6.061,7.177,10.46c0.698,2.446,0.953,5.305,0.657,7.975
		c-0.28,2.52-1.055,4.857-2.018,6.802c-1.913,3.868-4.998,6.954-8.772,8.866c-1.997,1.011-4.276,1.831-6.755,2.11
		c-2.85,0.321-5.59-0.017-7.974-0.656c-4.418-1.187-8.09-3.879-10.508-7.131c-2.507-3.371-4.484-7.629-4.222-13.416
		C43.869,144.598,46.063,140.942,48.78,137.597z"/>
	<path style="fill-rule:evenodd;clip-rule:evenodd;" d="M120.786,136.143c3.037,2.995,5.415,6.496,6.286,11.398
		c0.996,5.612-0.53,10.775-2.721,14.355c-2.137,3.492-5.494,6.341-9.616,8.021c-2.176,0.888-4.538,1.501-7.318,1.501
		c-2.775,0-5.165-0.521-7.412-1.407c-4.171-1.644-7.436-4.225-9.757-7.928c-2.226-3.55-3.932-8.473-2.956-14.213
		c0.851-5.001,3.063-8.567,6.146-11.493c2.807-2.664,7.179-5.165,12.384-5.441C112.765,130.568,117.124,133.126,120.786,136.143z"/>
</g>
<g id="Layer_1">
</g>
</svg>
