<?xml version="1.0" encoding="iso-8859-1"?>
<!-- Generator: Adobe Illustrator 19.2.0, SVG Export Plug-In . SVG Version: 6.00 Build 0)  -->
<svg version="1.1" xmlns="http://www.w3.org/2000/svg" xmlns:xlink="http://www.w3.org/1999/xlink" x="0px" y="0px"
	 viewBox="0 0 79.818 70.772" style="enable-background:new 0 0 79.818 70.772;" xml:space="preserve">
<g id="Crivelli_x5F_Arte">
	<path style="fill-rule:evenodd;clip-rule:evenodd;" d="M39.452,0c0.488,0.105,0.491,0.697,0.771,1.011
		c2.477,4.301,5.011,8.531,7.466,12.91c0.813,1.449,1.542,2.973,2.409,4.384c1.73,2.817,3.35,5.726,4.961,8.622
		c4.821,8.662,10.059,17.143,14.933,25.819c2.842,5.06,5.837,10.013,8.719,15.078c0.409,0.718,0.872,1.461,1.108,2.264
		c-2.5,0.258-5.099,0.144-7.707,0.144c-7.782-0.002-15.774,0.06-23.315-0.048c-0.014-0.644,0.755-0.912,1.108-1.35
		c2.955-2.607,5.758-6.51,5.347-12.38c-0.194-2.773-0.905-5.432-1.831-7.659c-0.252-0.607-0.546-1.715-1.301-1.733
		c-0.403,0.478,0.117,1.054,0.289,1.444c1.458,3.315,2.586,7.681,1.686,12.38c-0.441,2.303-1.531,4.049-2.842,5.636
		c-1.286,1.556-2.878,2.886-4.769,3.662c-5.036,2.066-9.113-1.792-11.561-4.239c-2.877-2.878-4.898-6.261-7.033-9.875
		c-2.045-3.463-4.094-7.386-5.251-11.706c-0.598-2.23-1.119-5.067-0.675-7.418c0.455-2.4,1.887-3.54,3.998-4.432
		c4.765-2.012,9.709,0.796,12.814,2.697c3.069,1.881,5.761,4.146,8.092,6.744c0.301,0.335,0.526,0.949,1.108,0.963
		c0.481-0.394-0.009-0.929-0.192-1.252c-2.389-4.209-4.687-8.278-7.178-12.524c-0.402-0.685-0.876-1.421-1.349-2.264
		c-0.29-0.519-0.941-2.127-1.59-1.976c-0.5,0.118-0.139,1.198-0.192,1.782c-0.227,2.467-2.822,3.507-5.347,3.902
		c-1.215,0.19-2.454,0.208-3.613,0.434c-1.117,0.218-2.156,0.55-3.083,0.963c-4.054,1.807-6.221,4.656-8.526,7.563
		c3.534-6.736,7.36-13.28,11.079-19.847c3.727-6.579,7.516-13.091,11.32-19.605C39.342,0.051,39.395,0.023,39.452,0z"/>
	<path style="fill-rule:evenodd;clip-rule:evenodd;" d="M15.848,41.426c0.041-0.008,0.045,0.02,0.048,0.049
		c-0.778,1.788-1.398,3.673-1.975,5.732c-1.77,6.316,0.08,14.066,2.938,18.111c0.954,1.35,2.002,2.441,3.131,3.613
		c0.353,0.367,0.851,0.679,1.011,1.204c-5.943,0.185-12.184,0.098-18.497,0.097c-0.829,0-1.719,0.114-2.504-0.144
		c1.407-2.762,2.947-5.548,4.576-8.286c1.196-2.011,2.298-4.128,3.468-6.214c0.379-0.676,0.839-1.345,1.156-2.022
		c1.418-3.034,3.282-6.192,4.962-9.249C14.726,43.29,15.232,42.222,15.848,41.426z"/>
</g>
<g id="Layer_1">
</g>
</svg>
