<?xml version="1.0" encoding="iso-8859-1"?>
<!-- Generator: Adobe Illustrator 19.2.0, SVG Export Plug-In . SVG Version: 6.00 Build 0)  -->
<svg version="1.1" xmlns="http://www.w3.org/2000/svg" xmlns:xlink="http://www.w3.org/1999/xlink" x="0px" y="0px"
	 viewBox="0 0 81.607 25.927" style="enable-background:new 0 0 81.607 25.927;" xml:space="preserve">
<g id="ctv_x5F_television_x5F_network_x5F_toronto">
	<path style="fill-rule:evenodd;clip-rule:evenodd;" d="M12.57,0.003c4.436-0.088,7.957,1.816,10.144,4.333
		c1.849,2.129,3.463,5.451,3.151,9.799c-0.194,2.713-1.35,5.026-2.757,6.795c-1.507,1.893-3.328,3.192-5.466,4.087
		c-2.557,1.071-5.45,1.168-8.125,0.443C4.885,24.205,1.26,20.66,0.26,15.662c-0.529-2.642-0.251-5.514,0.837-7.977
		c0.89-2.015,2.226-3.772,4.284-5.269C7.23,1.071,9.456,0.065,12.57,0.003z"/>
	<path style="fill-rule:evenodd;clip-rule:evenodd;" d="M51.766,1.037c0.251,5.617,0.158,12.585,0.099,18.663
		c-0.018,1.764,0.216,3.53-0.099,5.17c-5.474,0.249-11.67,0.098-17.776,0.098c-1.006,0-2.021-0.01-3.004-0.049
		c-0.975-0.039-1.946,0.141-2.856-0.147c-0.26-1.714-0.147-3.93-0.147-5.958c0-5.371-0.008-11.204,0.049-16.692
		c0.006-0.588-0.15-1.16,0.443-1.28c0.392-0.079,0.909,0.044,1.428,0.049C37.104,0.965,44.564,0.844,51.766,1.037z"/>
	<path style="fill-rule:evenodd;clip-rule:evenodd;" d="M81.607,1.086c-0.044,0.61-0.444,1.127-0.739,1.625
		c-0.883,1.49-1.752,3.041-2.659,4.58c-1.205,2.044-2.275,4.186-3.447,6.253c-1.167,2.062-2.353,4.127-3.545,6.155
		c-1.198,2.037-2.324,4.093-3.594,6.057c-0.555-0.284-0.761-0.931-1.034-1.428c-3.129-5.686-6.655-11.387-9.898-17.086
		c-0.892-1.568-1.746-3.138-2.659-4.727c-0.27-0.47-0.782-0.962-0.64-1.575c7.933-0.116,15.435,0,23.34,0
		C78.378,0.939,80.022,0.853,81.607,1.086z"/>
</g>
<g id="Layer_1">
</g>
</svg>
