<?xml version="1.0" encoding="iso-8859-1"?>
<!-- Generator: Adobe Illustrator 19.2.0, SVG Export Plug-In . SVG Version: 6.00 Build 0)  -->
<svg version="1.1" xmlns="http://www.w3.org/2000/svg" xmlns:xlink="http://www.w3.org/1999/xlink" x="0px" y="0px"
	 viewBox="0 0 90.371 24.662" style="enable-background:new 0 0 90.371 24.662;" xml:space="preserve">
<g id="curling_x5F_club_x5F_basel">
	<path style="fill-rule:evenodd;clip-rule:evenodd;" d="M53.344,5.132c3.583,0.078,6.346,1.519,8.038,3.768
		c0.915,1.215,1.61,2.895,1.758,4.622c-0.707,0.265-1.499,0.151-2.26,0.151c-5.463,0-11.254-0.11-16.579,0.15
		c-0.143,0.17-0.136,0.719-0.05,0.955c0.577,0.446,1.389,0.215,2.109,0.201c5.441-0.107,11.483-0.002,16.779,0.101
		c0.19,2.966-1.344,5.492-3.014,6.983c-0.969,0.865-2.387,1.67-3.818,2.11c-1.49,0.458-3.544,0.352-5.526,0.352
		c-1.905,0-3.962,0-5.928,0c-2.058,0-4.339,0.247-5.979-0.251c-2.802-0.853-5.173-3.117-6.129-5.526
		c-0.525-1.323-0.826-3.063-0.703-4.773c0.12-1.686,0.753-3.097,1.457-4.22c1.49-2.38,3.929-4.279,7.485-4.521
		c1.391-0.095,2.745,0,4.271,0c0.646,0,1.459,0,2.261,0c0.671,0,1.552,0.142,2.16-0.05c0.603-0.192,0.938-0.817,1.005-1.658
		c-0.481-2.843-5.346-0.993-7.988-1.658c-0.151-0.454-0.312-1.522,0.101-1.808c1.572-0.088,4.613-0.05,6.682-0.05
		c0.836,0,1.701-0.048,2.21,0.1c1.579,0.46,2.457,1.919,2.211,3.567C53.802,4.311,53.481,4.393,53.344,5.132z"/>
	<path style="fill-rule:evenodd;clip-rule:evenodd;" d="M21.393,5.132c0.95,0.269,1.849,0.144,2.713,0.352
		c2.239,0.538,4.334,2.036,5.476,3.718c0.768,1.131,1.49,2.564,1.457,4.371c-1.462,0.268-3.066,0.15-4.673,0.151
		c-3.142,0-6.475,0-9.645,0c-1.539,0-3.031-0.034-4.37,0.15c-0.148,0.182-0.134,0.756-0.051,1.005
		c0.651,0.347,1.465,0.201,2.211,0.201c5.294-0.001,11.335-0.151,16.528,0c0.316,1.83-0.343,3.562-1.055,4.773
		c-1.373,2.334-4.073,4.464-7.234,4.723c-2.405,0.196-4.997-0.001-7.386,0c-2.49,0-4.863,0.182-7.233,0
		c-2.619-0.202-4.875-2.067-6.229-3.869c-1.286-1.708-2.097-4.053-1.859-6.782c0.2-2.292,1.522-4.433,2.813-5.777
		c1.363-1.419,3.376-2.631,5.777-2.813c3.059-0.232,5.793,0.13,9.043-0.05c0.544-0.349,1.055-0.829,1.055-1.608
		c0-2.85-5.606-1.137-8.038-1.758c-0.249-0.344-0.203-1.353,0-1.708c1.915-0.161,4.165-0.151,6.38-0.151
		c1.018,0,1.993-0.071,2.713,0.151c1.387,0.427,2.396,1.657,2.161,3.466C21.862,4.306,21.436,4.474,21.393,5.132z"/>
	<path style="fill-rule:evenodd;clip-rule:evenodd;" d="M64.446,13.572c-0.269-1.168-0.15-2.703-0.15-4.17c0-0.715,0-1.457,0-2.16
		c0-0.669-0.095-1.426,0.251-1.909c5.544-0.067,11.404-0.082,17.231-0.05c1.669,0.009,4.151-0.204,5.376,0.302
		c0.962,0.397,1.596,1.068,2.06,1.859c1.37,2.336,0.062,5.434-2.461,6.079c-1.563,0.399-3.63,0.055-5.477,0.101
		C75.704,13.761,69.893,13.707,64.446,13.572z"/>
	<path style="fill-rule:evenodd;clip-rule:evenodd;" d="M64.446,24.474c-0.192-2.92-0.218-6.258-0.05-9.344
		c0.407-0.2,1.231-0.198,1.708-0.201c4.626-0.034,10.138,0.05,15.071,0.05c1.666,0,3.37-0.142,4.924,0
		c3.247,0.299,5.375,4.022,3.667,7.134c-0.62,1.13-2.043,2.304-3.718,2.462c-1.635,0.154-3.534-0.001-5.426,0
		C75.46,24.575,69.23,24.655,64.446,24.474z"/>
</g>
<g id="Layer_1">
</g>
</svg>
