<?xml version="1.0" encoding="iso-8859-1"?>
<!-- Generator: Adobe Illustrator 21.0.2, SVG Export Plug-In . SVG Version: 6.00 Build 0)  -->
<svg version="1.1" xmlns="http://www.w3.org/2000/svg" xmlns:xlink="http://www.w3.org/1999/xlink" x="0px" y="0px"
	 viewBox="0 0 12.625 11.173" style="enable-background:new 0 0 12.625 11.173;" xml:space="preserve">
<g id="CV_x5F_Photography">
	<path d="M0.356,0c3.972,0.034,7.945,0.066,11.917,0.101c-1.58,1.053-3.443,1.696-5.342,1.794C4.612,2.015,2.253,1.342,0.356,0z"/>
	<path d="M0,0.678c2.712,1.331,4.752,3.915,5.482,6.84c0.302,1.187,0.397,2.427,0.278,3.645C3.845,7.666,1.927,4.17,0,0.678z"/>
	<path d="M8.57,4.216c1.035-1.462,2.436-2.675,4.055-3.449c-0.581,0.997-1.119,2.018-1.72,3.003
		c-1.409,2.464-2.812,4.932-4.21,7.402C6.49,8.73,7.151,6.218,8.57,4.216z"/>
</g>
<g id="Layer_1">
</g>
</svg>
