<?xml version="1.0" encoding="iso-8859-1"?>
<!-- Generator: Adobe Illustrator 19.2.0, SVG Export Plug-In . SVG Version: 6.00 Build 0)  -->
<svg version="1.1" xmlns="http://www.w3.org/2000/svg" xmlns:xlink="http://www.w3.org/1999/xlink" x="0px" y="0px"
	 viewBox="0 0 78.197 78.06" style="enable-background:new 0 0 78.197 78.06;" xml:space="preserve">
<g id="Cygnet_x5F_73">
	<path style="fill-rule:evenodd;clip-rule:evenodd;" d="M78.092,26.682c-0.622,0.233-1.192,0.174-1.708,0.351
		c-1.375,0.474-2.565,1.534-3.216,2.864c-0.967,1.976-0.153,5.097-0.603,7.636c-0.334,0.135-0.909,0.125-1.307,0.051
		c-0.353-1.171-0.201-2.531-0.201-3.818c0.001-3.662-0.026-7.609,0.051-11.655c0.75-0.72,1.747-0.971,1.658-2.361
		c-0.064-0.995-0.733-1.686-1.608-1.859c-2.142-0.426-3.064,2.345-1.657,3.517c0.178,0.148,0.849,0.328,1.004,0.754
		c0.171,0.464-0.004,1.199,0,1.909c0.025,3.782,0.001,7.6,0,11.655c0,0.621,0.114,1.27-0.15,1.809c-0.3,0.152-1.057,0.152-1.356,0
		c-0.414-2.635,0.366-5.696-0.553-7.686c-0.846-1.832-2.655-2.893-5.074-3.215c-0.36-2.686,0.188-5.866-0.1-8.441
		c-0.155-1.386-1.087-2.766-2.211-3.266c-2.621-1.165-6.159,0.303-8.139,1.356c-2.323,1.235-4.096,2.834-5.677,4.571
		c-1.645,1.808-3.226,3.707-4.17,6.08c-0.989,2.484-1.062,6.053,0.452,8.188c1.301,2.272,3.128,3.72,5.476,4.823
		c1.205,0.565,2.516,0.971,3.969,1.155c1.491,0.189,3.178,0.1,5.024,0.101c4.918,0,10.211,0.178,15.223-0.051
		c1.666-0.075,3.33-0.057,4.873,0.151c0.14,11.956,0.14,24.326,0,36.574c-1.25,0.273-2.658,0.15-4.12,0.15
		c-6.964,0-14.108,0-21.05,0c-11.271,0-21.618,0-33.208,0c-2.639,0-5.832,0.215-7.988-0.452c-3.976-1.229-7.532-4.128-9.395-7.536
		c-2.03-3.714-2.837-8.696-2.01-14.117c0.355-2.328,1.064-4.556,1.809-6.682c2.181-6.229,5.79-11.091,9.345-15.977
		c5.855-7.364,13.219-13.588,20.799-19.794c1.902-1.558,3.799-3.03,5.777-4.37c1.989-1.349,4.089-2.544,6.28-3.869
		c4.188-2.533,9.081-4.786,15.072-5.175c9.563-0.621,15.329,4.058,17.986,10.751c0.582,1.469,0.804,2.967,0.804,4.924
		C78.193,19.197,78.172,23.077,78.092,26.682z"/>
</g>
<g id="Layer_1">
</g>
</svg>
