<?xml version="1.0" encoding="iso-8859-1"?>
<!-- Generator: Adobe Illustrator 19.2.0, SVG Export Plug-In . SVG Version: 6.00 Build 0)  -->
<svg version="1.1" xmlns="http://www.w3.org/2000/svg" xmlns:xlink="http://www.w3.org/1999/xlink" x="0px" y="0px"
	 viewBox="0 0 73.826 81.234" style="enable-background:new 0 0 73.826 81.234;" xml:space="preserve">
<g id="DW_x5F_Graham_x5F_and_x5F_Associates">
	<path style="fill-rule:evenodd;clip-rule:evenodd;" d="M50.168,14.923c-0.457-2.766-1.42-5.026-3.022-6.648
		c-1.735-1.593-4.217-3.086-7.505-2.972c-1.575,0.055-2.948,0.523-4.13,1.108c-1.154,0.57-2.277,1.326-2.82,2.367
		c2.275-0.404,4.097,0.617,4.482,2.568c0.498,3.102-2.78,4.794-5.037,3.325c-0.749-0.488-1.044-1.324-1.511-2.166
		c-0.43,0.323-0.441,1.027-0.504,1.611c-0.397,3.701,0.939,6.294,2.821,8.312c1.469,1.573,3.689,2.812,6.095,3.022
		c2.368,0.206,4.255-0.476,5.944-1.21c0.052,0.289-0.312,0.461-0.504,0.604c-1.529,1.155-3.956,2.187-6.447,2.368
		c-5.345,0.389-8.85-2.196-11.484-4.634c-0.37-0.786-0.93-1.463-1.36-2.217c-0.431-0.757-0.749-1.558-1.259-2.267
		c-0.152-1.574-0.602-2.858-0.604-4.483c-0.007-3.936,1.581-7.273,3.828-9.519c2.346-2.346,5.208-3.892,9.268-4.08
		c3.479-0.161,6.58,1.108,8.714,2.821c1.781,1.429,3.434,3.473,4.282,5.54C50.131,10.127,50.608,12.76,50.168,14.923z"/>
	<path style="fill-rule:evenodd;clip-rule:evenodd;" d="M23.623,18.097c-3.352-1.065-6.43,0.555-6.901,3.476
		c0.47-0.047,0.697-0.615,1.108-0.907c2.212-1.57,5.265,0.09,5.188,2.721c-0.062,2.131-1.698,3.459-4.231,3.173
		c0.286,0.656,1.318,0.942,2.166,1.008c3.256,0.251,4.906-2.065,5.49-4.533c0.417,0.336,0.456,0.99,0.554,1.511
		c0.191,1.012,0.322,2.109,0.252,3.375c-0.359,6.483-5.059,11.558-10.829,12.743c-1.754,0.36-3.674,0.19-5.591,0
		c-3.205-0.895-5.688-2.351-7.556-4.634C1.472,33.824,0,30.889,0,27.163c0-3.985,1.629-7.095,3.727-9.369
		c2.109-2.284,5.072-3.989,8.814-4.281c4.546-0.353,7.959,1.473,10.275,3.526C23.142,17.326,23.564,17.643,23.623,18.097z"/>
	<path style="fill-rule:evenodd;clip-rule:evenodd;" d="M65.581,39.605c-0.084-0.339,0.319-0.533,0.504-0.705
		c1.529-1.432,3.01-3.823,2.821-6.951c-0.134-2.217-1.043-3.664-2.065-5.088c-1.591-1.628-3.914-3.287-7.102-2.82
		c0.351,0.542,0.766,0.574,1.108,0.957c1.731,1.935,0.456,5.375-2.267,5.44c-2.259,0.054-4.057-2.06-3.173-4.735
		c-0.623,0.03-1.132,0.621-1.562,1.108c-1.178,1.337-2.236,3.584-2.115,6.095c0.122,2.537,1.293,4.284,2.519,5.742
		c0.419,0.356,1.05,0.76,1.209,1.209c-3.059-0.965-5.086-2.821-6.649-5.238c-1.593-2.464-2.626-5.592-2.116-9.419
		c0.445-3.338,1.977-5.906,3.979-7.908c2.282-2.284,5.773-4.035,10.426-3.778c3.639,0.201,6.475,1.822,8.563,3.828
		c2.026,1.947,3.771,4.952,4.03,8.312c0.315,4.099-0.82,7.171-2.569,9.62C69.736,37.215,67.868,38.719,65.581,39.605z"/>
	<path style="fill-rule:evenodd;clip-rule:evenodd;" d="M51.176,64.185c1.113,0.321,1.862,0.726,3.073,0.807
		c4.706,0.315,8.452-3.271,8.462-7.757c0.002-0.559-0.055-1.148-0.302-1.562c-0.757,1.247-1.28,2.327-2.821,2.519
		c-2.873,0.355-4.768-2.777-3.274-5.088c0.654-1.011,2.137-1.652,3.979-1.26c-0.34-0.811-1.197-1.278-1.964-1.661
		c-0.794-0.397-1.728-0.73-2.771-0.807c-4.841-0.351-7.852,3.125-8.513,7.203c-0.334-0.461-0.369-1.041-0.403-1.511
		c-0.455-6.243,3.28-10.981,7.354-12.996c0.855-0.422,1.692-0.784,2.619-1.058c4.994-1.471,10.281,0.611,12.894,3.274
		c2.242,2.195,4.016,4.907,4.282,8.865c0.298,4.441-1.382,8.182-3.878,10.678c-2.523,2.523-6.045,4.298-10.477,4.03
		c-2.851-0.173-5.329-1.237-7.203-2.569C51.843,65.016,51.363,64.687,51.176,64.185z"/>
	<path style="fill-rule:evenodd;clip-rule:evenodd;" d="M10.225,41.116c0.281,0.162-0.165,0.467-0.353,0.654
		c-0.216,0.216-0.489,0.454-0.655,0.605c-2.177,2.316-1.299,7.6,1.561,8.411c-0.051-0.585-0.394-0.883-0.503-1.41
		c-0.414-1.996,1.011-3.767,2.77-3.929c2.044-0.188,3.663,1.28,3.677,3.224c0.008,1.006-0.554,1.725-0.957,2.569
		c1.038-0.231,1.911-0.984,2.518-1.763c0.695-0.892,1.262-2.191,1.159-3.778c-0.101-1.539-0.798-2.813-1.662-3.677
		c-0.264-0.264-0.685-0.487-0.755-0.906c3.311,0.702,5.564,2.461,7.354,4.684c1.721,2.246,3.18,5.17,2.922,9.117
		c-0.28,4.275-2.171,7.376-4.534,9.47c-2.557,2.308-5.632,3.818-10.426,3.476c-3.303-0.237-6.437-1.984-8.261-3.929
		c-2.085-2.223-3.584-4.961-3.878-8.311c-0.338-3.842,0.762-7.06,2.519-9.47c1.723-2.365,4.017-4.03,7.152-4.986
		C9.976,41.135,10.037,41.103,10.225,41.116z"/>
	<path style="fill-rule:evenodd;clip-rule:evenodd;" d="M23.976,64.538c0.368,2.322,1.389,4.186,3.073,5.389
		c1.054,0.754,2.68,1.353,4.684,1.209c1.296-0.093,2.58-0.63,3.274-1.46c-0.458-0.15-1.038,0.015-1.562-0.102
		c-0.868-0.193-1.692-0.824-2.065-1.46c-1.227-2.093,0.147-4.746,2.368-4.987c1.818-0.196,3.236,1.058,3.778,2.821
		c0.413-0.418,0.404-1.202,0.403-1.764c-0.011-4.377-4.058-7.959-8.865-6.698c-0.453,0.118-0.912,0.411-1.461,0.503
		c0.763-1.116,2.057-1.941,3.375-2.619c1.363-0.7,3.075-1.234,4.785-1.36c4.959-0.364,8.335,1.752,10.83,3.979
		c1.834,2.218,3.612,4.703,3.878,8.361c0.292,4.015-0.775,7.009-2.519,9.318c-1.719,2.278-4.012,4.072-6.901,4.987
		c-2.062,0.652-4.412,0.727-6.498,0.352c-5.323-0.956-9.454-4.992-10.728-10.325c-0.236-0.988-0.353-2.071-0.353-3.174
		C23.472,66.554,23.477,65.471,23.976,64.538z"/>
</g>
<g id="Layer_1">
</g>
</svg>
