<?xml version="1.0" encoding="iso-8859-1"?>
<!-- Generator: Adobe Illustrator 19.2.0, SVG Export Plug-In . SVG Version: 6.00 Build 0)  -->
<svg version="1.1" xmlns="http://www.w3.org/2000/svg" xmlns:xlink="http://www.w3.org/1999/xlink" x="0px" y="0px"
	 viewBox="0 0 165.539 176.017" style="enable-background:new 0 0 165.539 176.017;" xml:space="preserve">
<g id="Dai-ichi_x5F_shoji">
	<path style="fill-rule:evenodd;clip-rule:evenodd;" d="M88.032,0c0.034,0,0.068,0,0.103,0c0.315,3.128,0.119,6.272,0.102,9.439
		c-0.113,20.787-0.001,42.392,0,64.126c0.001,0.837,0.089,1.913-0.153,2.257c-0.357,0.509-1.504,0.127-1.898,0.719
		c-0.339,0.509-0.205,1.848-0.205,2.872c0,5.31-0.024,9.917-0.051,14.826c-0.012,2.106-0.14,4.075,0.205,5.899
		c0.292,0.563,1.445,0.266,2.001,0.565c0.081,25.172,0.109,50.145-0.103,75.31c-0.367,0.045-0.674-0.337-0.923-0.564
		c-0.771-0.705-1.525-1.625-2.36-2.309c-0.786-1.283-2.133-2.005-2.924-3.283c-0.058-10.017,0-20.041,0-30.576
		c0-3.421,0.117-6.861,0-10.26c-0.118-3.422,0.136-6.808,0-10.209c-0.133-3.312,0.069-6.68,0.052-10.003
		c-0.146-27.312,0.047-54.633,0.051-81.979c0.001-5.152,0.186-10.399,0-15.441c-0.062-1.682,0.094-3.559,0.103-5.13
		c0.315-0.645,0.893-1.149,1.386-1.642c1.467-1.469,2.884-3.089,4.463-4.515C87.916,0.055,87.972,0.024,88.032,0z"/>
	<path style="fill-rule:evenodd;clip-rule:evenodd;" d="M95.83,6.412c0.034,0,0.068,0,0.103,0c0.877,0.901,1.83,1.728,2.719,2.617
		c0.877,0.876,1.768,1.766,2.514,2.77c0.001,10.557,0,21.441,0,32.422c0.001,9.042-0.051,18.291-0.051,27.601
		c0,0.638-0.01,1.371,0,2.052c0.011,0.696,0.133,1.43,0,1.898c-0.117,0.415-1.032,0.6-1.18,1.077
		c-0.213,0.688-0.052,1.898-0.052,2.924c0.001,5.762-0.051,11.301-0.051,17.237c0,1.39-0.256,3.044,0.564,3.488
		c0.316,0.172,0.521,0.05,0.667,0.411c0.125,0.312,0.033,1.141,0.051,1.897c0.048,1.975-0.036,4.105-0.051,5.849
		c-0.108,12.459,0,26.624,0,39.553c-0.001,3.959-0.051,7.888-0.052,11.953c0,1.288,0.229,2.98-0.052,4.053
		c-0.136,0.519-0.812,1.018-1.23,1.437c-0.961,0.961-1.789,1.686-2.719,2.616c-0.437,0.436-0.796,1.083-1.436,1.129
		c-0.116-10.008-0.052-20.221-0.052-30.678c0-41.103,0.101-84.109,0.103-127.021c0-1.705,0.056-3.579,0.103-5.13
		C95.726,6.479,95.766,6.434,95.83,6.412z"/>
	<path style="fill-rule:evenodd;clip-rule:evenodd;" d="M75.874,12.261c0.365,0.379,0.205,1.17,0.205,1.847
		c0,7.337,0.051,14.484,0.052,22.008c0.001,13.187-0.013,26.336-0.154,39.81c-0.468,0.326-1.803-0.034-2.257,0.411
		c-0.423,0.415-0.308,1.758-0.308,2.821c0,3.29,0,5.973,0,9.08c0,3.031,0.042,6.134-0.052,9.132
		c-0.029,0.934-0.038,2.397,0.308,2.77c0.427,0.46,1.713,0.292,2.258,0.462c0.189,1.205,0.149,2.47,0.103,3.694
		c-0.05,1.323,0,2.656,0,4.001c-0.001,18.16,0.104,37.202-0.154,55.457c-0.46,0.119-0.77-0.424-1.025-0.667
		c-2.149-2.039-4.445-4.312-6.465-6.516c-0.029-30.662,0.053-62.649,0.052-94.291c0-12.831,0.052-25.096,0.052-38.22
		c0-1.474-0.227-3.178,0-4.31c0.129-0.648,1.187-1.444,1.692-1.948c1.847-1.847,3.632-3.644,5.489-5.387
		C75.714,12.34,75.746,12.252,75.874,12.261z"/>
	<path style="fill-rule:evenodd;clip-rule:evenodd;" d="M109.322,20.059c0.804,0.366,1.623,1.573,2.309,2.206
		c0.392,0.361,0.777,0.65,1.18,1.077c0.341,0.36,0.899,0.886,0.976,1.231c0.187,0.861,0,2.077,0,3.181
		c-0.001,15.458,0.022,32.061,0,48.12c-0.278,0.441-1.084,0.532-1.231,1.077c-0.169,0.622-0.011,1.472,0,2.154
		c0.081,5.311-0.051,12.459-0.052,18.264c0,0.895-0.118,2.001,0.052,2.565c0.175,0.58,0.842,0.58,1.18,1.025
		c-0.002,15.444,0.001,32.151,0,47.607c0,1.103,0.153,2.315-0.052,3.129c-0.204,0.812-1.644,1.85-2.206,2.411
		c-0.398,0.399-0.806,0.763-1.18,1.129c-0.362,0.355-0.655,0.932-1.231,0.924c-0.073-19.656,0.001-39.136,0-59.304
		c-0.001-25.717,0.1-52.156,0.104-76.645C109.197,20.139,109.248,20.087,109.322,20.059z"/>
	<path style="fill-rule:evenodd;clip-rule:evenodd;" d="M62.792,25.343c0.044-0.01,0.049,0.02,0.052,0.051
		c0.243,0.423,0.185,0.97,0.205,1.436c0.164,3.594,0,7.448,0,11.132c0.002,12.568-0.035,25.087-0.103,37.912
		c-0.46,0.312-1.844-0.05-2.309,0.513c-0.395,0.479-0.256,1.87-0.257,2.873c0,3.241-0.089,6.025,0,8.978
		c0.032,1.062,0.044,2.101,0,3.129c-0.084,1.999-0.051,3.722-0.051,6.003c0,1.063-0.099,2.341,0.308,2.77
		c0.454,0.479,1.555,0.278,2.206,0.411c0.272,1.967,0.103,4.035,0.103,6.104c0,14.418,0.075,29.454-0.103,44.17
		c-0.409,0.235-0.667-0.309-0.872-0.513c-1.755-1.754-3.76-3.623-5.54-5.387c-0.496-0.863-1.725-1.2-1.95-2.206
		c-0.194-0.867,0-2.208,0-3.386c0-17.191,0.051-34.78,0.052-50.993c0-18.379-0.013-36.707,0.051-54.789
		c1.154-1.549,2.676-2.729,4.002-4.105c1.31-1.375,2.672-2.697,4.053-4.001C62.676,25.397,62.731,25.367,62.792,25.343z"/>
	<path style="fill-rule:evenodd;clip-rule:evenodd;" d="M122.917,33.653c0.658,0.407,1.386,1.282,2.206,2.104
		c0.675,0.675,1.782,1.395,2.001,2.154c0.155,0.543,0.093,1.494,0.102,2.309c0.135,11.295-0.124,24.483-0.154,35.808
		c-0.355,0.335-1.142,0.289-1.385,0.719c-0.269,0.476-0.154,1.962-0.153,2.873c0,5.902,0.009,11.987-0.052,17.698
		c-0.016,1.452-0.223,3,0.77,3.335c0.346,0.116,0.778,0.022,0.82,0.308c0.004,11.417,0.156,23.946,0.052,35.347
		c-0.007,0.738,0.094,1.679-0.052,2.206c-0.143,0.519-1.072,1.362-1.487,1.744c-0.6,0.55-1.13,1.133-1.642,1.59
		c-0.444,0.274-0.585,0.852-1.231,0.924c-0.162-34.145,0.054-67.641,0.051-102.089c0-2.304-0.042-4.755,0.052-6.874
		C122.812,33.719,122.853,33.674,122.917,33.653z"/>
	<path style="fill-rule:evenodd;clip-rule:evenodd;" d="M49.864,38.219c0.042,0.01,0.052,0.052,0.103,0.052
		c0.2,3.035,0.201,6.16,0.102,9.285c-0.1,3.145,0,6.343,0,9.491c0.001,4.671,0,9.246,0,14.21c0,1.583,0.125,3.164-0.153,4.72
		c-0.608,0.213-1.67-0.117-2.154,0.359c-0.44,0.432-0.267,1.72-0.309,2.821c-0.185,4.965-0.051,10.062-0.051,15.236
		c0,0.93,0,1.991,0,3.13c0,1.027-0.141,2.305,0.359,2.719c0.432,0.357,1.745,0.093,2.154,0.308
		c0.193,6.047,0.103,12.376,0.103,18.674c0,6.323,0.082,12.698-0.103,18.878c-0.533-0.025-0.901-0.512-1.282-0.872
		c-1.915-1.81-3.653-3.691-5.592-5.643c-0.291-0.293-0.645-0.747-1.078-1.18c-0.42-0.421-0.945-0.808-1.025-1.18
		c-0.147-0.683,0-1.705,0-2.617c0-19.403,0.051-39.7,0.051-58.842c0-5.578,0-11.941,0-17.904c0-0.88-0.14-1.861,0-2.565
		c0.162-0.813,1.571-1.677,2.103-2.36c0.702-0.903,1.469-1.572,2.155-2.258c0.723-0.722,1.461-1.461,2.205-2.206
		C48.249,39.681,49.079,38.81,49.864,38.219z"/>
	<path style="fill-rule:evenodd;clip-rule:evenodd;" d="M136.922,47.863c0.513,0.224,1.132,0.931,1.745,1.591
		c0.521,0.562,1.369,1.15,1.539,1.692c0.188,0.605,0.051,2.18,0.051,3.078c0,1.088,0.005,2.256,0,3.232
		c-0.033,6.093,0.036,12.983-0.154,18.725c-0.58,0.206-1.54,0.033-1.847,0.513c-0.341,1.787-0.065,3.92-0.153,6.003
		c-0.162,3.849-0.052,7.843-0.052,11.953c0,0.958,0,1.95,0,3.078c0,1.024-0.083,2.312,0.309,2.719
		c0.342,0.354,1.229,0.231,1.743,0.462c0.177,8.487,0.053,16.254,0.052,24.675c-0.652,0.976-1.613,1.768-2.462,2.617
		c-0.252,0.251-0.565,0.659-0.976,0.615c-0.156-19.731,0.002-40.904,0-60.535c0-4.798,0.001-10.131,0-15.287
		c0-1.7-0.04-3.655,0.052-5.079C136.774,47.874,136.938,47.759,136.922,47.863z"/>
	<path style="fill-rule:evenodd;clip-rule:evenodd;" d="M37.039,51.198c0.408,0.309,0.276,0.921,0.257,1.334
		c-0.161,3.457-0.051,7.093-0.051,10.773c-0.001,4.241,0.085,8.577-0.104,12.619c-0.608,0.247-1.775-0.065-2.206,0.359
		c-0.466,0.742-0.308,1.765-0.308,2.719c0,5.959,0,12,0,18.161c0,0.93-0.142,2.43,0.154,2.873c0.362,0.543,1.714,0.329,2.309,0.513
		c0.201,1.979,0.102,4.081,0.102,6.156c0.001,6.193,0.106,12.332-0.102,18.622c-0.6-0.003-0.872-0.767-1.385-1.026
		c-2.009-2.13-4.188-4.089-6.156-6.259c-0.446-0.334-0.853-0.75-1.283-1.18c-0.394-0.395-0.987-0.833-1.128-1.334
		c-0.226-0.801,0-2.162,0-3.386c-0.001-15.433,0.206-31.986,0-47.71c-0.016-1.148-0.166-2.524,0.051-3.386
		c0.213-0.844,1.682-1.881,2.36-2.514c2.465-2.3,4.936-5.051,7.284-7.233c0.038-0.048,0.094-0.078,0.154-0.103
		C37.005,51.198,37.022,51.198,37.039,51.198z"/>
	<path style="fill-rule:evenodd;clip-rule:evenodd;" d="M152.672,76.182c-0.47,0.258-1.729,0.221-2.206,0
		c-0.102-4.604-0.077-9.723,0-14.569c0.037-0.048,0.094-0.078,0.154-0.103c0.547,0.65,1.806,1.182,2.103,2.154
		c0.245,0.803,0.052,2.052,0.052,3.129C152.774,69.813,152.856,73.488,152.672,76.182z"/>
	<path style="fill-rule:evenodd;clip-rule:evenodd;" d="M24.471,63.613c0.034,0,0.068,0,0.103,0
		c0.278,1.075,0.154,2.283,0.154,3.437c0,2.899,0.094,5.924-0.104,8.824c-0.457,0.312-1.977-0.045-2.565,0.308
		c-0.85,0.511-0.462,4.468-0.462,5.849c0.001,5.28,0.086,10.113-0.051,15.031c-0.028,1.009-0.087,2.468,0.205,2.924
		c0.453,0.709,2.059,0.31,2.872,0.564c0.152,4.024,0.121,8.249,0,12.414c-0.37,0.107-0.576-0.32-0.769-0.513
		c-3.368-3.366-7.028-6.743-10.209-10.362c-0.014-8.136-0.005-16.662,0.051-24.163c0.009-1.098-0.23-2.426,0-3.488
		c0.095-0.436,0.829-1.034,1.231-1.437c1.321-1.321,2.817-2.715,4.053-3.95c0.893-0.893,1.822-1.744,2.668-2.668
		C22.521,65.431,23.48,64.442,24.471,63.613z"/>
	<path style="fill-rule:evenodd;clip-rule:evenodd;" d="M164.881,75.874c0.035,0,0.069,0,0.104,0
		c0.773,0.61,0.513,1.854,0.513,2.872c-0.001,6.701-0.051,13.162-0.052,19.854c0,0.94,0.363,2.297-0.666,2.564
		c-0.192-6.858-0.102-14.629-0.103-22.008c-0.001-1.104-0.041-2.227,0.051-3.13C164.757,75.954,164.808,75.903,164.881,75.874z"/>
	<path style="fill-rule:evenodd;clip-rule:evenodd;" d="M11.851,76.232c0.33,0.159,0.245,0.82,0.257,1.231
		c0.091,3.27-0.043,6.767-0.052,10.055c-0.011,4.358,0.169,8.752-0.051,12.774c-0.665-0.115-1.137-0.812-1.642-1.282
		c-2.569-2.387-4.993-5.044-7.542-7.593c-0.682-0.682-1.415-1.458-2.154-2.359C0.386,88.715,0,88.506,0,88.237
		c0-0.337,1.011-1.308,1.334-1.642c3.327-3.435,7.147-7.075,10.466-10.363C11.816,76.232,11.834,76.233,11.851,76.232z"/>
	<path style="fill-rule:evenodd;clip-rule:evenodd;" d="M152.672,100.909c0.119,4.001,0.017,8.225,0.051,12.312
		c-0.67,0.783-1.254,1.653-2.257,2.104c-0.187-4.019-0.103-8.654-0.103-12.928c0-0.542-0.164-1.209,0.257-1.591
		C151.232,100.729,152.194,100.687,152.672,100.909z"/>
</g>
<g id="Layer_1">
</g>
</svg>
