<?xml version="1.0" encoding="iso-8859-1"?>
<!-- Generator: Adobe Illustrator 19.2.0, SVG Export Plug-In . SVG Version: 6.00 Build 0)  -->
<svg version="1.1" xmlns="http://www.w3.org/2000/svg" xmlns:xlink="http://www.w3.org/1999/xlink" x="0px" y="0px"
	 viewBox="0 0 79.368 79.655" style="enable-background:new 0 0 79.368 79.655;" xml:space="preserve">
<g id="Dai_x5F_Nippon_x5F_Printing_x5F_54">
	<path style="fill-rule:evenodd;clip-rule:evenodd;" d="M38.185,0.037c6.428-0.305,12.199,1.299,16.728,3.168
		c4.726,1.951,8.747,4.645,12,7.897c6.642,6.642,11.817,14.726,12.417,27.379c0.153,3.232-0.164,6.295-0.779,9.092
		c-0.612,2.781-1.278,5.354-2.234,7.689c-1.929,4.711-4.763,8.686-7.845,12.051c-0.772,0.846-1.704,1.609-2.598,2.391
		c-2.652,2.32-5.513,4.359-8.883,6.025c-4.543,2.248-9.797,3.615-15.949,3.896c-3.036,0.139-6.1-0.234-8.936-0.727
		c-2.835-0.492-5.397-1.297-7.741-2.182c-1.146-0.434-2.213-1.068-3.325-1.662c-1.108-0.594-2.218-1.131-3.169-1.818
		c-1.952-1.414-3.869-2.779-5.506-4.416c-0.413-0.414-0.726-0.928-1.143-1.352c-4.513-4.576-7.92-10.211-9.923-17.455
		c-1.437-5.197-1.785-12.096-0.52-17.715c0.319-1.416,0.581-2.746,0.987-4c0.399-1.236,0.888-2.396,1.299-3.637
		c0.8-2.42,2.092-4.769,3.273-6.703c1.233-2.018,2.7-3.998,4.312-5.609c0.848-0.848,1.522-1.805,2.441-2.547
		c2.64-2.133,5.641-4.436,8.988-5.922c4.458-1.98,9.684-3.846,16-3.844C38.115,0.037,38.15,0.039,38.185,0.037z M77.2,46.584
		c0.823-4.232,0.826-8.928,0.052-13.143c-0.73-3.979-1.918-7.801-3.584-10.807c-1.699-3.064-3.526-5.979-5.871-8.467
		c-1.125-1.195-2.392-2.352-3.74-3.43c-1.317-1.053-2.657-2.223-4.104-3.117c-1.42-0.877-2.997-1.744-4.624-2.545
		c-1.604-0.789-3.314-1.547-5.143-2.027c-4.321-1.135-10.466-2.111-15.689-1.246c-9.551,1.582-16.512,5.24-22.079,10.807
		c-1.977,1.975-3.713,4.311-5.299,6.701c-1.568,2.363-2.89,5.101-3.845,8.103c-0.973,3.061-1.746,6.414-1.974,9.975
		C0.92,43.311,1.928,48.592,3.533,52.871c2.651,7.07,7.144,12.943,12.624,17.299c3.405,2.707,7.354,4.609,11.792,6.131
		c1.509,0.518,3.103,0.848,4.78,1.246c3.417,0.814,7.677,0.723,11.169,0.365c3.621-0.373,6.932-1.191,9.663-2.338
		c5.717-2.402,10.226-5.477,14.131-9.82C72.45,60.873,75.638,54.617,77.2,46.584z"/>
	<path style="fill-rule:evenodd;clip-rule:evenodd;" d="M44.003,9.076c-0.124,1.551-0.649,2.99-0.987,4.467
		c-0.168,0.736-0.39,1.465-0.624,2.184c-1.145,3.523-1.956,7.193-2.909,10.908c0.48,0.584,1.309,0.517,1.922,0.625
		c2.168,0.377,3.912,0.988,5.455,2.129c2.497,1.846,4.458,4.369,5.248,8c0.188,0.869,0.087,1.838,0.467,2.701
		c1.91,0.443,3.602,0.643,5.091,1.352c4.498,2.143,7.971,6.883,7.741,13.404c-0.039,1.098-0.452,2.275-0.831,3.221
		c-1.122,2.793-3.183,5.086-5.663,6.441c-1.834,1.004-3.635,1.641-6.442,1.611c-1.667-0.02-3.604-0.482-4.987-1.092
		c-0.403-0.178-1.092-0.584-1.455-0.52c-0.728,0.129-1.051,2.119-1.299,2.857c-0.36,1.072-0.607,2.256-1.091,3.064
		c-2.865,0.107-6.255,0.168-9.195-0.051c0.651-2.588,1.471-5.078,2.286-7.637c0.778-2.441,1.561-4.953,2.286-7.586
		c1.031-3.746,2.241-7.588,3.376-11.48c0.379-1.301,0.97-2.812,0.936-4c-0.05-1.713-1.391-3.166-2.753-3.586
		c-1.734-0.531-3.222,0.377-4.156,1.455c-1.542,3.014-2.204,6.906-3.221,10.443c-2.88,0.17-6.472,0.174-9.351,0
		c0.071-1.498,0.632-2.869,0.987-4.262c0.358-1.404,0.753-2.797,0.987-4.311c-0.511-0.564-1.449-0.422-2.182-0.572
		c-3.222-0.664-5.588-2.395-7.378-4.676c-1.753-2.234-3.102-5.586-2.701-9.143c0.412-3.656,1.743-6.037,3.948-8.105
		c2.017-1.891,4.763-3.41,8.52-3.48c2.776-0.051,4.653,1.117,6.806,1.818c0.485-0.289,0.529-0.924,0.675-1.455
		c0.426-1.537,0.902-3.367,1.506-4.779C36.14,8.84,38.252,8.92,39.691,8.92C41.242,8.92,42.772,8.797,44.003,9.076z M22.443,24.922
		c-1.014,2.682,1.383,5.172,3.792,4.986c1.666-0.129,3.755-1.65,3.585-4c-0.147-2.021-2.057-3.777-4.364-3.428
		C24.02,22.696,22.872,23.789,22.443,24.922z M49.094,52.664c0,0.432,0,0.865,0,1.299c0.548,1.906,2.289,3.611,4.571,3.064
		c1.658-0.398,3.025-2.025,2.857-4.312c-0.476-1.637-1.592-2.633-3.169-3.168C50.818,49.469,49.708,50.819,49.094,52.664z"/>
</g>
<g id="Layer_1">
</g>
</svg>
