<?xml version="1.0" encoding="iso-8859-1"?>
<!-- Generator: Adobe Illustrator 19.2.0, SVG Export Plug-In . SVG Version: 6.00 Build 0)  -->
<svg version="1.1" xmlns="http://www.w3.org/2000/svg" xmlns:xlink="http://www.w3.org/1999/xlink" x="0px" y="0px"
	 viewBox="0 0 76.688 70.579" style="enable-background:new 0 0 76.688 70.579;" xml:space="preserve">
<g id="Daimaru_x5F_Shokuhin">
	<path style="fill-rule:evenodd;clip-rule:evenodd;" d="M33.53,70.408c-0.417-7.107,0.129-14.398-0.19-21.279
		c-0.166-3.567-0.619-6.607-1.523-9.426c-0.868-2.705-2.11-5.15-3.523-7.379c-2.838-4.475-6.562-8-11.139-10.711
		c-3.845-2.277-8.818-4.187-14.615-4.475c-0.787-0.039-1.61,0.146-2.428-0.096C0.004,11.695-0.093,5.338,0.159,0.095
		c5.128-0.172,10.476-0.049,15.948-0.047c3.942,0,7.977-0.049,12.044-0.048c4.714,0,9.145-0.001,13.996,0
		c3.183,0,6.239,0.451,8.712,1.189c5.188,1.549,9.397,3.853,12.949,6.808c5.246,4.508,9.569,10.349,11.663,18.042
		c1.085,3.987,1.519,8.874,0.999,13.377c-0.496,4.302-1.796,8.136-3.38,11.426c-1.568,3.259-3.618,6.192-6.046,8.807
		c-2.341,2.521-5.187,4.86-8.236,6.569c-3.093,1.734-6.747,3.369-10.901,3.951C43.598,70.773,38.619,70.485,33.53,70.408z"/>
	<path style="fill-rule:evenodd;clip-rule:evenodd;" d="M31.721,70.408c-5.191,0.272-10.582,0.114-15.9,0.143
		c-5.254,0.028-10.515,0.076-15.614-0.095c-0.109-15.64-0.267-31.68-0.143-47.558c0.007-0.938-0.009-1.992-0.047-3.047
		c-0.027-0.744-0.027-1.197,0.571-1.285c0.698-0.101,1.608,0.067,2.476,0.143c0.839,0.073,1.628,0.166,2.332,0.286
		c1.61,0.274,3.016,0.438,4.332,0.904c2.682,0.949,5.062,2.041,7.141,3.285c4.441,2.656,7.704,6.274,10.378,10.473
		c1.286,2.021,2.365,4.537,3.189,7.236c0.83,2.716,1.438,5.761,1.333,9.092C31.559,56.673,32.018,63.71,31.721,70.408z"/>
</g>
<g id="Layer_1">
</g>
</svg>
