<?xml version="1.0" encoding="iso-8859-1"?>
<!-- Generator: Adobe Illustrator 19.2.0, SVG Export Plug-In . SVG Version: 6.00 Build 0)  -->
<svg version="1.1" xmlns="http://www.w3.org/2000/svg" xmlns:xlink="http://www.w3.org/1999/xlink" x="0px" y="0px"
	 viewBox="0 0 86.21 73.649" style="enable-background:new 0 0 86.21 73.649;" xml:space="preserve">
<g id="Daishowa_x5F_2">
	<path style="fill-rule:evenodd;clip-rule:evenodd;" d="M64.47,73.649c-10.736-0.026-22.11-0.267-32.739-0.266
		c-3.405,0-6.86-0.008-10.205-0.106c-0.701-0.548-1.048-1.434-1.488-2.179c-1.322-2.243-2.73-4.53-3.986-6.856
		c-4.037-6.74-8.12-13.56-12.117-20.516c-0.938-1.633-1.948-3.367-2.977-5.156c-0.284-0.494-0.937-1.352-0.957-1.754
		c-0.024-0.488,0.634-1.239,0.957-1.807c4.968-8.734,10.333-17.303,15.36-25.937c1.283-2.02,2.681-4.472,4.092-6.909
		c0.409-0.706,1.055-2.03,1.808-2.126c0.812-0.104,1.795,0.043,2.71,0.053c6.135,0.064,12.691,0.125,18.603,0.266
		c7.426,0.177,14.493-0.176,21.313,0.053c0.685,0.863,1.2,1.859,1.754,2.817c2.183,3.782,4.307,7.734,6.644,11.48
		c0.58,0.931,1.208,1.852,1.7,2.817c1.015,1.988,2.28,3.795,3.296,5.74c0.331,0.636,0.548,1.215,0.956,1.807
		c1.097,1.588,1.878,3.427,2.924,5.208c0.314,0.537,0.746,1.063,1.062,1.701c0.615,1.243,1.132,2.254,1.913,3.508
		c0.281,0.45,1.084,1.194,1.116,1.594c0.045,0.556-0.945,1.721-1.328,2.338c-0.521,0.841-0.932,1.625-1.329,2.339
		c-0.892,1.603-1.831,3.167-2.711,4.571c-0.919,1.467-1.943,3.015-2.604,4.677c-0.315,0.792-0.956,1.477-1.436,2.232
		c-0.979,1.542-1.74,2.998-2.657,4.624c-0.428,0.758-1.01,1.434-1.436,2.179c-0.879,1.54-1.772,3.056-2.764,4.518
		c-0.994,1.466-1.676,3.114-2.711,4.571C66.218,70.562,65.551,72.244,64.47,73.649z M53.15,5.033c-5.038,0-10.183-0.052-15.2-0.106
		c-1.988-0.021-4.335-0.177-6.272-0.053c-0.264,0.017-0.604-0.046-0.797,0.266C31.776,5.92,32.87,6.421,33.91,7
		c3.146,1.749,6.156,3.75,9.354,5.421c1.502-0.635,2.906-1.452,4.306-2.286c2.102-1.252,4.244-2.449,6.377-3.614
		c0.706-0.385,1.574-0.628,2.073-1.329C55.133,4.916,54.137,5.033,53.15,5.033z M26.363,8.435c-0.182,0.298-0.106,1.18-0.106,1.86
		c0,3.286,0.098,6.463,0,9.567c-0.021,0.66-0.271,1.492,0.266,1.913c1.406-0.436,2.629-1.517,4.093-2.073
		c1.347,2.239,3.08,5.071,4.411,7.334c0.534,0.907,0.851,2.646,1.808,3.03c0.651,0.261,1.623-0.033,2.285,0.106
		c0.483-0.454,1.136-1.105,1.116-1.753c-0.012-0.374-0.44-0.952-0.691-1.382c-0.844-1.45-1.417-2.488-2.285-3.933
		c-0.46-0.765-1.067-1.625-1.541-2.604c-0.207-0.426-0.362-0.958-0.638-1.435c-0.247-0.426-0.777-1.024-0.691-1.435
		c0.056-0.265,0.592-0.496,0.903-0.691c0.414-0.258,0.755-0.423,1.063-0.584c0.771-0.402,1.501-0.708,1.966-1.276
		c-0.766-0.775-1.936-1.146-2.816-1.807c-2.122-1.271-4.409-2.489-6.643-3.773c-0.688-0.395-1.724-1.133-2.339-1.222
		C26.446,8.305,26.392,8.358,26.363,8.435z M59.634,8.754c-1.83,0.957-3.815,2.129-5.581,3.136c-1.417,0.692-2.74,1.56-4.198,2.339
		c-0.396,0.211-1.296,0.525-1.276,0.957c0.018,0.372,1.238,0.935,1.755,1.222c0.586,0.327,1.75,0.595,1.807,1.169
		c0.03,0.314-0.524,0.956-0.744,1.329c-1.36,2.309-2.571,4.52-3.88,6.644c-0.52,0.843-1.03,1.731-1.434,2.764
		c0.197,0.776,0.559,1.39,1.062,1.86c0.549-0.011,1.611,0.227,2.126-0.053c0.243-0.133,0.591-0.871,0.851-1.276
		c0.322-0.503,0.574-0.94,0.797-1.329c1.333-2.326,2.671-4.494,3.934-6.697c0.256-0.448,0.361-1.078,0.903-1.275
		c1.631,0.602,2.633,1.831,4.358,2.338c0.293-0.793,0.104-1.751,0.106-2.658c0.007-2.682,0.001-5.585,0-8.185
		c0-0.817,0.232-1.65-0.106-2.392C59.857,8.589,59.724,8.706,59.634,8.754z M18.125,15.291c-3.105,5.065-5.962,10.244-9.035,15.201
		c-0.244,0.422-0.726,0.855-0.638,1.435c1.24-0.333,2.251-1.151,3.348-1.754c1.089-0.598,2.145-1.28,3.242-1.86
		c1.663-0.878,3.371-1.788,4.943-2.711c0.532-0.311,1.149-0.564,1.541-1.062c0.171-4.293-0.025-8.934,0.053-13.234
		c0.007-0.341,0.235-1.321-0.266-1.169C20.148,11.699,19.198,13.541,18.125,15.291z M65.003,10.72c-0.057,1.289,0,3.067,0,4.784
		c-0.001,2.684,0,4.638,0,7.122c0,0.81-0.159,1.78,0.053,2.179c0.156,0.294,1.036,0.679,1.488,0.957
		c3.144,1.927,6.313,3.615,9.354,5.421c0.503,0.299,1.016,0.72,1.647,0.744c-0.147-1.008-0.975-1.786-1.328-2.764
		c-1.829-2.98-3.635-6.095-5.528-9.301c-1.344-2.275-2.613-4.73-4.039-7.069c-0.347-0.568-0.957-2.07-1.488-2.232
		c-0.017-0.005-0.037,0.004-0.053,0C65.034,10.575,65.049,10.677,65.003,10.72z M42.999,18.161c-0.443,0.216-1.935,0.854-2.02,1.275
		c-0.076,0.374,0.233,0.731,0.425,1.063c0.597,1.034,1.026,2.155,1.807,2.817c1.054-1.073,1.584-2.668,2.392-3.986
		C45.225,18.934,43.835,17.753,42.999,18.161z M57.242,26.24c-0.442,0.586-0.74,1.235-1.115,1.86
		c-0.357,0.594-0.896,1.175-1.01,1.966c0.449,0.277,1.141,0.16,1.754,0.16c1.143,0,2.302,0.115,3.188-0.106
		c0.29-0.55,0.155-1.785,0.106-2.498C59.562,27.142,58.045,25.983,57.242,26.24z M29.871,27.941c-0.37-0.658-0.67-1.635-1.329-1.701
		c-0.626-0.062-1.717,0.984-2.231,1.222c-0.155,0.695-0.118,1.81,0.105,2.445c1.108,0.319,3.289,0.323,4.465,0.053
		C30.898,29.304,30.291,28.689,29.871,27.941z M18.072,31.927c-0.94,0.536-1.878,1.115-2.817,1.648
		c-0.951,0.538-1.943,1.034-2.87,1.594c-0.922,0.558-2.027,0.882-2.711,1.754c0.701,0.862,1.799,1.3,2.765,1.807
		c2.001,1.049,3.882,2.253,5.793,3.348c0.98,0.562,1.993,1.183,3.082,1.542c0.579-1.141-0.156-3.594,0.426-4.73
		c3.925-0.062,8.414,0.053,12.277,0.053c0.4-0.542,1.191-1.125,1.169-1.86c-0.011-0.379-0.421-0.816-0.638-1.17
		c-0.25-0.408-0.381-0.885-0.744-1.063c-2.889-0.14-6.301-0.159-9.248-0.159c-1.055,0-2.079,0.118-2.977-0.106
		c-0.166-0.521-0.006-1.399,0-2.392c0.005-0.655,0.145-2.084-0.478-1.966C20.14,30.845,19.092,31.345,18.072,31.927z M65.003,30.598
		c-0.332,1.192,0.151,3.199-0.266,4.305c-3.909,0.257-8.427-0.112-12.49,0.053c-0.486,0.485-1.258,1.142-1.223,1.914
		c0.017,0.362,0.388,0.834,0.585,1.169c0.235,0.402,0.458,0.863,0.85,0.957c3.909,0.272,8.474-0.111,12.278,0.266
		c0.177,0.616,0.105,1.502,0.106,2.338c0,0.842-0.173,1.754,0.212,2.179c0.563-0.037,1.028-0.405,1.488-0.691
		c0.476-0.296,0.975-0.59,1.488-0.85c2.54-1.287,4.843-2.855,7.44-4.093c0.434-0.207,1.354-0.652,1.329-1.01
		c-0.024-0.35-1.065-0.763-1.329-0.904c-2.549-1.36-4.896-2.786-7.334-4.092c-0.862-0.462-2.083-1.367-2.977-1.647
		C65.099,30.517,65.041,30.548,65.003,30.598z M45.177,36.976c-0.008-0.539-0.784-1.657-1.169-1.807
		c-0.486-0.188-1.559-0.23-2.019,0c-0.412,0.206-1.181,1.559-1.169,2.02c0.01,0.444,0.697,1.594,1.01,1.754
		c0.538,0.276,1.252,0.013,2.019,0.106C44.273,38.612,45.188,37.707,45.177,36.976z M21.367,49.254
		c-0.404-0.669-1.039-0.73-1.647-1.063c-0.448-0.245-0.844-0.557-1.329-0.797c-3.205-1.59-6.335-3.889-9.62-5.368
		c-0.042,0.006-0.161,0.176-0.053,0.159c0.213,0.733,0.946,2.005,1.435,2.817c3.471,5.767,6.869,11.373,10.151,17.167
		c0.226,0.397,0.477,1.009,1.01,1.116C21.514,58.967,21.422,53.895,21.367,49.254z M73.931,44.47
		c-1.966,1.221-4.083,2.301-6.112,3.348c-1.024,0.529-2.091,1.026-2.976,1.754c-0.001,3.701-0.054,7.129-0.054,10.789
		c0,0.903-0.128,1.838,0.159,2.658c0.51-0.138,0.689-0.742,0.904-1.116c0.256-0.447,0.483-0.901,0.744-1.329
		c3.342-5.499,6.785-11.07,10.098-16.529c0.23-0.378,0.669-0.873,0.479-1.382c-0.035,0-0.07,0-0.107,0
		C75.933,43.117,74.981,43.818,73.931,44.47z M26.469,43.672c-0.441,0.527-0.268,1.916-0.267,2.711
		c0.256,0.313,2.011,1.475,2.498,1.382c0.305-0.058,0.505-0.581,0.691-0.904c0.609-1.052,1.418-2.077,1.754-3.083
		C29.906,43.456,27.882,43.647,26.469,43.672z M36.939,43.726c-0.869,0.286-0.857,1.672-1.541,2.179
		c-0.253,1.059-0.868,1.689-1.382,2.605c-0.767,1.365-1.476,2.446-2.285,3.827c-0.249,0.425-0.75,1.808-1.223,1.86
		c-0.289,0.032-0.707-0.363-1.01-0.532c-0.399-0.222-0.752-0.443-1.01-0.585c-0.816-0.448-1.288-0.802-2.179-1.01
		c-0.473,1.266-0.088,2.73-0.107,4.146c-0.025,1.941,0.004,4.344,0,6.165c-0.001,0.934-0.365,2.072,0.107,2.87
		c0.587-0.023,1.063-0.401,1.541-0.691c2.415-1.461,5.007-2.631,7.281-4.146c0.916-0.61,2.066-0.911,2.764-1.807
		c-0.485-0.571-1.177-0.801-1.967-1.222c-0.273-0.147-0.543-0.412-0.956-0.638c-0.39-0.213-0.929-0.286-0.957-0.691
		c-0.018-0.276,0.377-0.627,0.585-0.957c0.234-0.373,0.475-0.731,0.584-0.957c0.938-1.935,2.392-4.253,3.614-6.271
		c0.36-0.594,1.178-1.635,1.169-2.179c-0.004-0.321-0.293-0.722-0.478-1.063c-0.181-0.334-0.413-0.69-0.691-0.903
		C38.008,43.821,37.435,43.563,36.939,43.726z M57.774,53.346c-0.28,0.149-0.667,0.303-1.063,0.532
		c-0.316,0.183-0.748,0.564-1.062,0.531c-0.4-0.042-0.645-0.762-0.903-1.222c-1.382-2.459-2.611-4.316-3.934-6.697
		c-0.249-0.449-1.215-2.388-1.647-2.604c-0.363-0.183-1.719-0.186-2.073-0.107c-0.495,0.112-1.334,1.359-1.328,1.914
		c0.004,0.383,0.444,0.959,0.691,1.382c1.618,2.769,3.097,5.15,4.729,7.919c0.212,0.359,0.816,0.993,0.744,1.382
		c-0.079,0.429-1.642,0.944-1.967,1.116c-0.727,0.386-1.439,0.723-1.859,1.276c0.814,0.748,1.881,1.157,2.87,1.701
		c0.977,0.538,1.935,1.15,2.923,1.648c0.974,0.542,1.964,1.079,2.923,1.647c0.953,0.564,1.894,1.305,3.029,1.488
		c0.282-0.335,0.124-0.855,0.106-1.276c-0.111-2.774-0.043-6.062,0.054-8.876c0.033-0.955,0.212-1.915-0.106-2.764
		C58.901,52.446,58.549,52.935,57.774,53.346z M55.329,43.832c-0.175,0.704,0.46,1.408,0.904,2.179
		c0.238,0.414,0.896,1.892,1.382,1.966c0.411,0.063,0.889-0.378,1.275-0.584c0.469-0.251,0.938-0.366,1.116-0.797
		c-0.041-0.882,0.423-2.097-0.106-2.657C58.569,43.801,56.755,43.824,55.329,43.832z M41.51,52.708
		c-0.305,0.474-1.075,1.324-0.957,1.86c0.084,0.378,0.844,0.566,1.169,0.744c0.418,0.228,0.876,0.64,1.276,0.638
		c0.419-0.002,0.782-0.314,1.223-0.532c1.149-0.568,1.133-0.757,0.478-1.807c-0.489-0.784-0.755-1.139-1.169-1.914
		c-0.238-0.446-0.535-1.136-0.957-0.744C42.215,51.361,41.967,51.996,41.51,52.708z M54.532,67.802
		c-0.454-0.284-0.946-0.584-1.435-0.744c-2.555-1.521-5.906-3.276-8.504-4.677c-0.696-0.375-1.172-1.054-1.914-0.744
		c-1.062,0.443-2.023,1.151-3.082,1.701c-1.049,0.543-2.085,1.108-3.136,1.648c-1.037,0.532-2.008,1.208-3.03,1.754
		c-0.517,0.276-1.043,0.555-1.541,0.851c-0.483,0.287-1.108,0.481-1.382,1.01c1.446,0.345,2.938,0.103,4.411,0.106
		c3.072,0.006,6.293,0.17,9.195,0.106c3.675-0.082,7.657,0.113,11.533-0.053C55.57,68.279,54.957,68.067,54.532,67.802z"/>
</g>
<g id="Layer_1">
</g>
</svg>
