<?xml version="1.0" encoding="iso-8859-1"?>
<!-- Generator: Adobe Illustrator 19.2.0, SVG Export Plug-In . SVG Version: 6.00 Build 0)  -->
<svg version="1.1" xmlns="http://www.w3.org/2000/svg" xmlns:xlink="http://www.w3.org/1999/xlink" x="0px" y="0px"
	 viewBox="0 0 73.236 74.131" style="enable-background:new 0 0 73.236 74.131;" xml:space="preserve">
<g id="Dassen_x5F_Elektrotechniek">
	<path style="fill-rule:evenodd;clip-rule:evenodd;" d="M36.529,31.847c0.786-0.509,1.415-1.223,2.066-1.874
		c4.5-4.498,8.956-9.211,13.5-13.74c4.48-4.522,8.856-9.193,13.451-13.788c0.655-0.654,1.339-1.459,2.066-1.825
		c2.373-1.196,4.647,0.341,5.236,2.162c0.865,2.673-1.364,4.247-2.546,5.429c-2.695,2.694-5.586,5.559-8.167,8.311
		c-1.33,1.417-2.79,2.711-4.132,4.132c-1.346,1.423-2.613,2.901-3.987,4.275c-2.063,2.062-4.07,4.166-6.149,6.245
		c-0.675,0.674-1.484,1.279-1.922,2.162c1.944,0.258,3.99,0.145,6.053,0.145c5.021-0.002,10.093,0.047,15.326,0.048
		c1.04,0,2.104-0.101,2.979,0.096c1.717,0.386,2.981,1.7,2.931,3.747c-0.047,1.83-1.34,3.307-3.123,3.508
		c-1.905,0.214-4.048-0.001-6.101,0c-5.944,0-12.252-0.153-18.016,0.048c-0.015,0.525,0.532,0.82,0.865,1.153
		c0.349,0.349,0.69,0.721,1.009,1.057c5.23,5.073,10.062,10.542,15.276,15.758c1.251,1.25,2.638,2.522,3.892,3.892
		c1.248,1.362,2.632,2.599,3.796,3.938c0.503,0.579,1.394,1.298,1.777,2.114c1.496,3.181-1.937,6.645-5.236,4.756
		c-0.688-0.394-1.362-1.218-2.017-1.873c-4.527-4.526-8.922-9.235-13.357-13.788c-4.46-4.569-8.914-9.155-13.451-13.692
		c-0.636-0.635-1.168-1.411-1.97-1.873c-0.797,0.516-1.393,1.2-2.019,1.825c-4.441,4.441-8.881,8.978-13.355,13.452
		c-1.221,1.22-2.603,2.519-3.795,3.892c-1.228,1.414-2.545,2.688-3.748,3.891c-1.189,1.19-2.47,2.586-3.843,3.844
		c-1.35,1.235-2.416,2.835-3.796,3.843c-2.399,1.757-5.531,0.05-5.908-2.449c-0.225-1.488-0.049-3.248-0.049-4.853
		c0.001-3.341,0.049-6.165,0.049-9.561C0.113,40.535,0.162,23.826,0.162,7.586c0-1.643-0.18-3.409,0.096-4.757
		C0.675,0.79,3.285-0.794,5.591,0.427C6.32,0.813,7.009,1.604,7.656,2.301c1.857,1.998,3.884,4.028,5.765,5.909
		c2.724,2.723,5.064,5.414,7.64,7.927c3.849,3.943,7.665,7.905,11.578,11.818C33.936,29.253,35.112,30.67,36.529,31.847z
		 M7.608,13.303c-0.199,0.505-0.043,1.27-0.048,1.873C7.44,29.973,7.456,46.392,7.608,60.72c0.677-0.188,1.081-0.841,1.537-1.297
		c2.458-2.458,4.868-4.964,7.303-7.398c0.991-0.991,1.899-2.044,2.882-3.026c3.427-3.428,6.808-6.925,10.281-10.329
		c0.387-0.379,1.403-1.161,1.394-1.586c-0.009-0.391-1.018-1.162-1.394-1.537c-0.551-0.551-1.011-1.031-1.441-1.489
		c-2.019-2.154-3.926-3.845-5.86-5.957c-0.966-1.055-2.017-1.98-2.931-2.978c-1.905-2.081-3.761-4.056-5.669-6.102
		c-0.896-0.961-1.99-1.842-2.979-2.931c-0.768-0.846-2.128-2.347-3.027-2.931C7.645,13.178,7.606,13.22,7.608,13.303z"/>
</g>
<g id="Layer_1">
</g>
</svg>
