<?xml version="1.0" encoding="iso-8859-1"?>
<!-- Generator: Adobe Illustrator 19.2.0, SVG Export Plug-In . SVG Version: 6.00 Build 0)  -->
<svg version="1.1" xmlns="http://www.w3.org/2000/svg" xmlns:xlink="http://www.w3.org/1999/xlink" x="0px" y="0px"
	 viewBox="0 0 78.889 52.249" style="enable-background:new 0 0 78.889 52.249;" xml:space="preserve">
<g id="data_x5F_pathing">
	<path style="fill-rule:evenodd;clip-rule:evenodd;" d="M44.628,0.12c0.249,5.691,0.099,11.648,0.099,17.732
		c0,0.808,0.105,1.637-0.099,2.371c-10.287,0.17-21.161-0.002-31.611-0.099c-0.193-2.963-0.128-6.513,0.049-9.434
		c6.802-0.248,14.232-0.008,21.041-0.099c0.343-0.724,0.157-1.569,0.148-2.42C34.231,5.639,34.245,2.7,34.404,0.12
		C37.611-0.071,41.41-0.005,44.628,0.12z"/>
	<path style="fill-rule:evenodd;clip-rule:evenodd;" d="M10.597,10.74c0.165,2.9,0.163,6.483,0,9.384
		c-1.283,0.292-2.784,0.104-4.297,0.099c-2.087-0.007-4.193,0.171-6.174-0.099c-0.193-2.691-0.049-5.471-0.049-8.396
		c0-0.367-0.12-0.832,0.197-1.087c2.546-0.097,5.165,0.015,7.853,0C8.975,10.636,9.839,10.45,10.597,10.74z"/>
	<path style="fill-rule:evenodd;clip-rule:evenodd;" d="M78.759,10.887c0.165,2.9,0.164,6.484,0,9.384
		c-1.243,0.269-2.561,0.099-3.853,0.099c-9.352,0-18.523-0.029-27.759-0.099c-0.217-1.425-0.174-3.069-0.099-4.692
		c0.075-1.605-0.177-3.346,0.148-4.791c7.688-0.208,16.033-0.049,23.856-0.049C73.666,10.74,76.251,10.622,78.759,10.887z"/>
	<path style="fill-rule:evenodd;clip-rule:evenodd;" d="M10.597,21.013c0.138,0.925,0.211,2.56-0.049,3.408
		c-3.264,0.198-7.092,0.113-10.373,0c-0.198-0.378-0.137-1.096-0.148-1.828c-0.01-0.662-0.165-1.65,0.494-1.729
		c0.665-0.08,1.58,0.045,2.371,0.05C5.483,20.928,8.604,20.735,10.597,21.013z"/>
	<path style="fill-rule:evenodd;clip-rule:evenodd;" d="M23.439,20.964c0.137,0.94,0.214,2.596-0.049,3.457
		c-3.408,0.079-7.117,0.099-10.323,0c-0.229-0.286-0.148-1.08-0.148-1.828c0-0.766-0.208-1.645,0.494-1.729
		c1.367-0.164,3.28,0,5.087,0C20.304,20.865,22.074,20.787,23.439,20.964z"/>
	<path style="fill-rule:evenodd;clip-rule:evenodd;" d="M44.678,21.062c0.053,1.012,0.142,2.477-0.05,3.408
		c-3.309,0.17-7.007,0.167-10.323,0c-0.116-0.941-0.266-2.722,0.099-3.507C37.919,20.933,41.236,20.847,44.678,21.062z"/>
	<path style="fill-rule:evenodd;clip-rule:evenodd;" d="M57.619,21.062c0.165,0.92,0.16,2.487,0,3.408
		c-2.088,0.107-4.356,0.217-6.52,0.148c-1.375-0.044-2.741,0.1-4.001-0.148c-0.024-0.713-0.266-2.957,0.099-3.408
		c0.036-0.046,0.089-0.075,0.148-0.099C50.738,21.029,54.39,20.833,57.619,21.062z"/>
	<path style="fill-rule:evenodd;clip-rule:evenodd;" d="M78.759,21.161c0.14,0.934,0.207,2.551-0.049,3.408
		c-3.308,0.126-7.306,0.099-10.668-0.049c-0.236-0.399-0.148-1.148-0.148-1.828c0-0.64-0.132-1.399,0.247-1.679
		C71.468,20.974,75.381,20.854,78.759,21.161z"/>
	<path style="fill-rule:evenodd;clip-rule:evenodd;" d="M10.548,27.533c0.163,1.032,0.163,2.723,0,3.754
		c-3.246,0.165-7.175,0.163-10.422,0c-0.161-0.51-0.099-1.26-0.099-1.976c0-0.695-0.135-1.477,0.198-1.877
		c1.489-0.021,3.634-0.071,5.334-0.049C7.309,27.408,9.053,27.251,10.548,27.533z"/>
	<path style="fill-rule:evenodd;clip-rule:evenodd;" d="M23.39,27.483c0.131,1.075,0.218,2.801,0,3.754
		c-3.158,0.226-7.06,0.206-10.372,0.049c-0.169-0.504-0.099-1.261-0.099-1.976c0-0.69-0.141-1.488,0.197-1.877
		C16.41,27.385,20.178,27.286,23.39,27.483z"/>
	<path style="fill-rule:evenodd;clip-rule:evenodd;" d="M44.628,27.582c0.098,1.085,0.168,2.626,0,3.753
		c-3.213,0.164-7.11,0.164-10.323,0c-0.163-1.047-0.163-2.755,0-3.803C37.352,27.454,41.377,27.404,44.628,27.582z"/>
	<path style="fill-rule:evenodd;clip-rule:evenodd;" d="M57.569,27.582c0.259,1.031,0.159,2.639,0.049,3.753
		c-0.998,0.219-2.136,0.146-3.26,0.148c-1.967,0.003-4.032-0.113-5.877-0.049c-0.472,0.016-0.96,0.148-1.383-0.099
		c-0.099-0.529-0.099-1.257-0.099-1.976c0-0.674-0.134-1.466,0.247-1.828C50.557,27.483,54.34,27.386,57.569,27.582z"/>
	<path style="fill-rule:evenodd;clip-rule:evenodd;" d="M78.709,27.632c0.163,1.048,0.163,2.755,0,3.803
		c-3.329,0.131-7.337,0.095-10.718-0.049c-0.132-1.023-0.224-2.813,0.05-3.754c0.036-0.046,0.089-0.075,0.148-0.099
		C71.685,27.576,75.368,27.433,78.709,27.632z"/>
	<path style="fill-rule:evenodd;clip-rule:evenodd;" d="M44.579,32.225c0.26,0.653,0.148,1.456,0.148,2.223
		c0,2.234,0.08,4.847-0.099,6.965c-10.37,0.231-21.523-0.033-31.611-0.05c-0.179-2.168-0.099-4.678-0.099-7.211
		c0-0.901-0.247-2.007,0.543-2.124c0.567-0.085,1.268,0.029,1.926,0c4.476-0.197,9.349-0.055,13.682,0.049
		C34.327,32.202,39.55,31.983,44.579,32.225z"/>
	<path style="fill-rule:evenodd;clip-rule:evenodd;" d="M10.548,32.176c0.141,1.449,0.148,3.067,0.148,4.643
		c0,1.569,0.091,3.167-0.148,4.544c-3.247,0.164-7.175,0.164-10.422,0c-0.268-2.023-0.003-4.605-0.049-6.964
		c-0.013-0.67-0.195-1.913,0.099-2.223c0.036-0.046,0.09-0.075,0.148-0.099C3.699,32.142,7.336,31.946,10.548,32.176z"/>
	<path style="fill-rule:evenodd;clip-rule:evenodd;" d="M78.709,32.324c0.237,2.875,0.242,6.66,0,9.533
		c-6.79,0.165-14.131-0.092-20.893,0.099c-0.267,0.766-0.148,1.663-0.148,2.519c0,2.455,0.047,5.143-0.099,7.606
		c-2.421,0.266-5.118,0.09-7.656,0.099c-0.924,0.004-1.968,0.207-2.816-0.099c-0.088-5.476-0.161-11.739-0.099-17.683
		c0.008-0.766-0.107-1.562,0.198-2.223c7.757-0.247,16,0.196,23.807-0.049C73.617,32.044,76.202,32.171,78.709,32.324z"/>
</g>
<g id="Layer_1">
</g>
</svg>
