<?xml version="1.0" encoding="iso-8859-1"?>
<!-- Generator: Adobe Illustrator 19.2.0, SVG Export Plug-In . SVG Version: 6.00 Build 0)  -->
<svg version="1.1" xmlns="http://www.w3.org/2000/svg" xmlns:xlink="http://www.w3.org/1999/xlink" x="0px" y="0px"
	 viewBox="0 0 75.714 52.092" style="enable-background:new 0 0 75.714 52.092;" xml:space="preserve">
<g id="David_x5F_Osbourne">
	<path style="fill-rule:evenodd;clip-rule:evenodd;" d="M0.153,51.93c-0.326-2.043-0.016-4.128-0.096-6.236
		c-0.078-2.115-0.074-4.282,0-6.427c0.074-2.11-0.058-4.28,0-6.427c0.031-1.102,0-2.229,0-3.332c0-9.5-0.082-19.562,0.096-29.325
		c5.311-0.362,10.848,0.155,16.234-0.095c3.572-0.166,8.023-0.048,11.566-0.048c3.861,0.001,7.738,0,11.521,0
		c4.113,0.001,7.777,0.033,11.045,0.666C57.129,1.989,62.213,4.4,66.61,8.039c2.117,1.753,4.07,3.868,5.521,6.188
		c1.508,2.411,2.793,5.077,3.332,8.378c0.559,3.411,0.152,7.184-0.904,10.33c-0.986,2.941-2.496,5.379-4.236,7.474
		c-3.455,4.163-8.295,7.42-13.996,9.426c-2.969,1.045-6.217,1.71-9.664,2.047c-3.738,0.365-7.676,0.143-11.568,0.143
		C23.415,52.026,11.696,52.113,0.153,51.93z M31.62,2.135c-7.148,0.337-12.502,3.983-16.186,7.807
		c-3.551,4.187-6.666,9.701-6.187,17.519c0.447,7.339,3.668,12.413,7.615,16.186c4.164,3.62,9.604,6.713,17.471,6.236
		c7.33-0.444,12.414-3.724,16.139-7.712c3.748-4.095,6.605-9.628,6.236-17.471c-0.348-7.375-3.711-12.426-7.617-16.186
		C44.961,4.818,39.549,1.761,31.62,2.135z"/>
	<path style="fill-rule:evenodd;clip-rule:evenodd;" d="M32.381,7.467c0.383-0.049,1.188-0.043,1.715,0.143
		c2.848,1.008,4.252,4.258,5.188,7.045c0.475,1.413,0.947,3.12,1.238,4.903c0.887,5.43,0.519,11.775-0.809,16.567
		c-0.939,3.391-2.477,6.958-5.189,8.235c-1.662,0.783-3.549,0.048-4.666-1.047c-2.17-2.128-3.318-5.218-4.094-8.664
		c-1.115-4.965-1.07-12.713,0.096-17.519c0.402-1.656,0.963-3.324,1.619-4.761c0.654-1.435,1.529-2.93,2.57-3.808
		C30.563,8.128,31.42,7.59,32.381,7.467z"/>
</g>
<g id="Layer_1">
</g>
</svg>
