<?xml version="1.0" encoding="iso-8859-1"?>
<!-- Generator: Adobe Illustrator 19.2.0, SVG Export Plug-In . SVG Version: 6.00 Build 0)  -->
<svg version="1.1" xmlns="http://www.w3.org/2000/svg" xmlns:xlink="http://www.w3.org/1999/xlink" x="0px" y="0px"
	 viewBox="0 0 76.867 77.277" style="enable-background:new 0 0 76.867 77.277;" xml:space="preserve">
<g id="David_x5F_Edmunds_x5F_86">
	<path style="fill-rule:evenodd;clip-rule:evenodd;" d="M66.209,65.546c-4.091,4.104-8.717,7.377-14.64,9.487
		c-5.794,2.064-13.967,3.052-20.996,1.445c-6.396-1.463-11.663-4.24-16.229-7.85c-2.233-1.766-4.303-3.786-6.02-6.02
		C3.25,56.002-0.809,47.045,0.138,35.062c0.572-7.233,3.05-12.982,6.213-17.866c1.532-2.369,3.39-4.62,5.489-6.55
		c2.115-1.943,4.345-3.825,6.79-5.249c4.495-2.617,9.552-4.556,15.893-5.201c8.106-0.824,15.502,1.043,20.804,3.708
		c4.688,2.356,9.024,5.51,12.279,9.391c0.536,0.638,1.017,1.384,1.541,2.071c1.541,2.015,2.914,4.403,4.046,6.79
		c1.51,3.185,2.807,6.942,3.322,11.124c0.534,4.328,0.515,9.102-0.433,13.244C74.278,54.408,70.865,60.496,66.209,65.546z
		 M63.513,9.973c-1.301-1.128-2.659-2.174-4.094-3.13c-5.632-3.755-13.048-6.757-22.537-6.309
		C26.616,1.019,19.314,4.932,13.478,9.828c-0.288,0.394-0.947,0.647-0.915,1.204c1.121,0.098,2.371,0.096,3.66,0.096
		c1.154,0,2.868-0.23,3.852,0.048c0.486,0.138,0.893,0.792,1.203,1.156c0.372,0.436,0.719,0.885,1.108,1.3
		c0.699,0.906,1.502,1.708,2.215,2.601c3.783,4.494,7.654,9.173,11.51,13.628c0.279,0.324,1.316,1.847,1.781,1.83
		c0.334-0.012,0.855-0.854,1.156-1.204c2.625-3.063,5.155-6.015,7.657-9.005c2.193-2.574,4.403-5.131,6.597-7.705
		c0.388-0.392,0.658-0.857,1.06-1.3c0.295-0.324,0.826-1.063,1.253-1.156c0.838-0.182,2.009-0.023,2.985,0
		c2.026,0.049,4.087,0.084,6.02-0.096C64.466,10.673,63.934,10.337,63.513,9.973z M66.595,64.39c0.381-0.403,0.766-0.844,1.059-1.3
		c0.608-0.946,1.346-1.815,2.023-2.745c1.32-1.812,2.404-3.956,3.371-6.116c1.925-4.301,3.417-9.487,3.371-15.603
		c-0.046-5.979-1.376-11.073-3.323-15.507c-1.121-2.553-2.73-5.256-4.382-7.368c-0.334-0.427-0.588-0.94-0.964-1.396
		c-0.293-0.357-0.633-0.838-1.06-1.3c-0.435-0.472-1.04-1.298-1.492-0.963c-3.146,3.661-6.276,7.336-9.343,11.076
		c-2.388,2.717-4.694,5.515-7.031,8.283c-0.415,0.435-0.813,0.89-1.203,1.348c-0.374,0.439-0.861,0.904-1.012,1.541
		c4.462,0.246,9.434,0.103,13.966,0.193c1.518,0.03,3.028-0.103,4.431,0.145c0.288,1.292-0.019,2.717,0,4.045
		c0.018,1.312,0.302,2.783-0.049,3.997c-5.703,0.125-11.361,0.001-17.048,0c-0.309,0-0.745-0.117-1.011,0.145
		c0.127,0.583,0.598,1.026,0.963,1.493c1.126,1.44,2.385,2.811,3.516,4.19c3.505,4.235,6.899,8.586,10.402,12.762
		c1.177,1.403,2.285,2.883,3.563,4.189C65.848,65.281,66.218,64.789,66.595,64.39z M10.925,12.38
		c-2.92,2.967-5.308,6.5-7.175,10.595c-1.886,4.134-2.976,8.888-3.226,14.591C0.272,43.304,1.537,48.272,3.22,52.543
		c1.699,4.312,4.002,8.075,6.694,11.124c0.445,0.325,0.575,0.966,1.252,1.06c0.247-16.492,0.142-33.882,0.145-50.95
		c0-0.54,0.15-1.223-0.192-1.493C11.029,12.29,10.957,12.316,10.925,12.38z M19.786,24.468c-0.037,9.656-0.176,18.886,0.048,28.22
		c0.712-0.344,1.172-1.038,1.686-1.589c0.536-0.575,0.991-1.223,1.541-1.782c1.049-1.167,2.086-2.344,3.082-3.563
		c1.112-1.104,2.042-2.389,3.034-3.612c1.012-1.204,2.183-2.248,3.034-3.612c-1.879-2.406-3.952-4.733-6.021-7.176
		c-1.467-1.733-3.03-3.558-4.574-5.345c-0.438-0.506-1.26-1.522-1.686-1.686C19.862,24.351,19.813,24.398,19.786,24.468z
		 M37.316,45.079c-0.392,0.295-0.727,0.844-1.108,1.3c-2.532,3.027-5.165,6.113-7.561,9.102c-0.704,0.879-1.316,1.824-2.023,2.697
		c-0.711,0.881-1.468,1.724-2.167,2.601c-1.06,1.329-2.149,2.657-3.227,3.9c-0.365,0.422-0.688,0.936-1.204,1.204
		c-2.491,0.181-5.214-0.127-7.561,0.145c0.127,0.497,0.589,0.827,0.964,1.156c2.67,2.344,5.708,4.376,9.102,5.971
		c3.896,1.832,8.419,3.344,13.628,3.564c11.428,0.481,19.678-3.293,26.053-8.235c0.447-0.324,0.849-0.693,1.253-1.06
		c0.359-0.411,0.958-0.582,1.059-1.252c-2.703-0.234-5.875,0-8.668-0.145c-3.242-3.323-6.042-7.089-9.149-10.546
		c-2.564-3.031-5.271-6.212-7.946-9.246c-0.385-0.437-0.889-1.178-1.301-1.252C37.403,45.006,37.351,45.034,37.316,45.079z"/>
</g>
<g id="Layer_1">
</g>
</svg>
