<?xml version="1.0" encoding="iso-8859-1"?>
<!-- Generator: Adobe Illustrator 21.0.2, SVG Export Plug-In . SVG Version: 6.00 Build 0)  -->
<svg version="1.1" xmlns="http://www.w3.org/2000/svg" xmlns:xlink="http://www.w3.org/1999/xlink" x="0px" y="0px"
	 viewBox="0 0 31.296 26.943" style="enable-background:new 0 0 31.296 26.943;" xml:space="preserve">
<g id="DDC_x5F_Thick_x5F_Lines_x5F_Heart">
	<g>
		<path style="fill:#010101;" d="M4.756,4.756c-1.779,1.779-1.779,4.675,0,6.454l13.312,13.312l1.614-1.614L6.37,9.597
			c-0.89-0.89-0.89-2.337,0-3.227c0.89-0.89,2.337-0.89,3.227,0l13.312,13.312l1.614-1.614L11.211,4.756
			C9.431,2.977,6.536,2.977,4.756,4.756z"/>
		<path style="fill:#010101;" d="M7.21,7.21c-0.446,0.446-0.446,1.168,0,1.614l13.279,13.279l1.614-1.614L8.824,7.21
			C8.378,6.765,7.656,6.765,7.21,7.21z"/>
		<path style="fill:#010101;" d="M28.96,2.336c-3.114-3.114-8.181-3.114-11.295,0l-2.017,2.017l-2.017-2.017
			c-3.114-3.114-8.181-3.114-11.295,0c-3.114,3.114-3.114,8.181,0,11.295l13.312,13.312l1.614-1.614L3.949,12.017
			c-2.224-2.224-2.224-5.844,0-8.068s5.844-2.224,8.068,0L25.33,17.262l3.631-3.631C32.075,10.517,32.075,5.45,28.96,2.336z
			 M24.086,7.21c-0.446-0.446-1.168-0.446-1.614,0l-1.983,1.983l-0.807-0.807l2.017-2.017c0.89-0.89,2.337-0.89,3.227,0
			c0.89,0.89,0.89,2.337,0,3.227l-2.017,2.017l-0.807-0.807l1.983-1.983C24.531,8.378,24.531,7.656,24.086,7.21z M25.33,14.034
			l-0.807-0.807l2.017-2.017c1.779-1.779,1.779-4.675,0-6.454c-1.779-1.779-4.675-1.779-6.454,0l-2.017,2.017l-0.807-0.807
			l2.017-2.017c2.224-2.224,5.844-2.224,8.068,0s2.224,5.844,0,8.068L25.33,14.034z"/>
	</g>
</g>
<g id="Layer_1">
</g>
</svg>
