<?xml version="1.0" encoding="iso-8859-1"?>
<!-- Generator: Adobe Illustrator 21.0.2, SVG Export Plug-In . SVG Version: 6.00 Build 0)  -->
<svg version="1.1" xmlns="http://www.w3.org/2000/svg" xmlns:xlink="http://www.w3.org/1999/xlink" x="0px" y="0px"
	 viewBox="0 0 12.427 14.189" style="enable-background:new 0 0 12.427 14.189;" xml:space="preserve">
<g id="de_x5F_Bijenkorf_x5F_90_x5F_Jaar_x5F_een_x5F_Stap_x5F_Voor_x5F_Beehive_x5F_Department_x5F_Store_x5F_90th_x5F_Anniversary">
	<path d="M3.025,1.825C4.082,1.208,5.161,0.626,6.213,0C6.804,0.357,7.411,0.687,8.01,1.031c1.475,0.832,2.936,1.688,4.413,2.516
		c0.007,2.366,0.003,4.732,0.002,7.098c-1.175,0.661-2.341,1.336-3.511,2.004c-0.9,0.512-1.802,1.021-2.699,1.539
		c-1.239-0.717-2.491-1.412-3.73-2.129c-0.826-0.474-1.652-0.949-2.482-1.415c0-2.367-0.002-4.733,0.001-7.1
		C1.018,2.986,2.016,2.396,3.025,1.825z M4.852,1.89C3.561,2.638,2.259,3.368,0.965,4.111c0.006,1.992,0.006,3.984,0,5.977
		c1.411,0.795,2.817,1.6,4.22,2.406c0.176,0.11,0.37,0.193,0.535,0.32c-0.001-0.895,0-1.791,0-2.686c-1.309,0-2.618,0.001-3.927,0
		c0-0.766,0.01-1.532-0.005-2.297c0.582,0.002,1.164,0,1.745,0.001c0-1.081,0.001-2.162,0-3.243
		c0.036-0.605,0.315-1.192,0.769-1.594c0.39-0.344,0.895-0.58,1.419-0.595C5.718,2.06,5.72,1.719,5.72,1.379
		C5.444,1.569,5.142,1.721,4.852,1.89z M6.707,1.377c0,0.601,0.002,1.201-0.001,1.801c-0.25,0.002-0.502-0.012-0.749,0.027
		C5.552,3.261,5.162,3.453,4.89,3.761C4.648,4.038,4.503,4.399,4.505,4.768c0,1.305-0.001,2.61,0.001,3.915
		C3.93,8.683,3.355,8.679,2.779,8.684C2.781,8.862,2.781,9.041,2.777,9.22c1.31-0.004,2.62,0.001,3.93-0.003
		c0.002,1.199,0,2.397,0.001,3.596c0.307-0.207,0.643-0.369,0.958-0.563c1.262-0.728,2.533-1.441,3.796-2.168
		c-0.004-1.991-0.003-3.982,0-5.973c-1.394-0.794-2.789-1.584-4.178-2.386C7.09,1.608,6.884,1.515,6.707,1.377z"/>
</g>
<g id="Layer_1">
</g>
</svg>
