<?xml version="1.0" encoding="iso-8859-1"?>
<!-- Generator: Adobe Illustrator 19.2.0, SVG Export Plug-In . SVG Version: 6.00 Build 0)  -->
<svg version="1.1" xmlns="http://www.w3.org/2000/svg" xmlns:xlink="http://www.w3.org/1999/xlink" x="0px" y="0px"
	 viewBox="0 0 80.337 53.831" style="enable-background:new 0 0 80.337 53.831;" xml:space="preserve">
<g id="Decoradora_x5F_Marina_x5F_Blanco">
	<path style="fill-rule:evenodd;clip-rule:evenodd;" d="M21.605,0c7.311,3.052,12.99,8.047,16.116,15.289
		c0.518,1.199,1.066,2.451,1.446,3.77c0.382,1.326,0.604,2.734,1.084,4.132c0.575-0.84,0.562-1.971,0.878-3.047
		c0.891-3.023,1.991-5.669,3.512-8.109c1.995-3.199,4.331-6.032,7.438-8.11c1.477-1.059,3.019-2.131,4.804-2.944
		c0.571-0.26,1.18-0.65,1.859-0.62c0.188,3.867,0.103,8.292,0.103,12.397c0,1.32-0.152,2.644,0.104,3.822
		c0.521,0.337,1.402,0.084,1.963,0.051c4.908-0.284,8.485,1.363,11.415,3.358c3.134,2.134,5.139,4.601,6.56,8.212
		c0.675,1.715,1.418,3.791,1.446,5.94c0.097,7.293-2.627,12.138-6.715,15.444c-2.927,2.368-6.07,3.831-10.589,4.184
		c-4.772,0.374-8.688-1.019-11.673-2.996c-2.984-1.977-4.953-4.798-6.922-7.852c-1.427-2.212-2.61-4.873-3.357-7.696
		c-0.251-0.948-0.28-1.983-0.775-2.893c-0.391,0.252-0.334,0.769-0.413,1.137c-0.954,4.462-2.876,8.344-5.269,11.519
		c-0.869,1.152-1.714,2.387-2.738,3.357c-2.014,1.91-4.6,3.544-7.696,4.545c-3.05,0.986-7.242,1.165-10.64,0.207
		c-4.578-1.291-8.117-4.18-10.434-7.903c-1.575-2.53-3.004-5.113-3.099-9.091C-0.031,34.24,0,32.188,0.582,30.579
		c0.926-2.557,2.3-4.814,3.822-6.87c1.725-2.328,4.256-4.239,7.128-5.527c2.576-1.155,5.702-1.818,9.453-1.446
		c0.415-1.1,0.258-2.595,0.258-4.081c0-3.562,0.052-7.078,0.052-10.537c0-0.675-0.097-1.78,0.155-2.015
		C21.488,0.055,21.544,0.025,21.605,0z"/>
</g>
<g id="Layer_1">
</g>
</svg>
