<?xml version="1.0" encoding="iso-8859-1"?>
<!-- Generator: Adobe Illustrator 21.0.2, SVG Export Plug-In . SVG Version: 6.00 Build 0)  -->
<svg version="1.1" xmlns="http://www.w3.org/2000/svg" xmlns:xlink="http://www.w3.org/1999/xlink" x="0px" y="0px"
	 viewBox="0 0 18.67 8.128" style="enable-background:new 0 0 18.67 8.128;" xml:space="preserve">
<g id="Deering_x5F_Milliken">
	<path d="M4.775,0.822c0.071-0.126,0.148-0.25,0.22-0.376C4.939,0.289,4.832,0.146,4.746,0C4.721,0.001,4.671,0.002,4.645,0.003
		C4.316,0.62,3.952,1.218,3.609,1.827C2.408,3.924,1.197,6.017,0,8.116c0.198,0,0.396,0,0.593,0c0.3-0.547,0.618-1.084,0.93-1.625
		C2.601,4.598,3.693,2.713,4.775,0.822z"/>
	<path d="M13.653,1.61c0.227-0.389,0.442-0.785,0.678-1.169c-0.08-0.149-0.16-0.299-0.258-0.437c-0.024,0-0.072-0.001-0.096-0.001
		c-0.059,0.132-0.14,0.253-0.209,0.38c-0.073-0.127-0.136-0.259-0.219-0.38C13.353,0.003,13.157,0,12.962,0.007
		c0.179,0.292,0.342,0.593,0.516,0.889c-0.066,0.112-0.135,0.222-0.196,0.336c-0.242-0.406-0.47-0.821-0.71-1.229
		c-0.194,0.002-0.387-0.007-0.58,0.005c0.327,0.583,0.661,1.163,0.999,1.741c-0.071,0.108-0.142,0.216-0.193,0.335
		c-0.407-0.689-0.807-1.383-1.199-2.08c-0.196,0-0.392-0.002-0.588,0.002c0.497,0.864,0.984,1.735,1.492,2.593
		c-0.074,0.108-0.139,0.221-0.195,0.338c-0.571-0.972-1.132-1.951-1.686-2.933c-0.202-0.001-0.404-0.001-0.605,0
		c0.191,0.297,0.359,0.608,0.537,0.914c0.49,0.843,0.967,1.693,1.462,2.532c-0.077,0.105-0.137,0.221-0.192,0.338
		c-0.105-0.152-0.188-0.317-0.282-0.475c-0.423-0.738-0.847-1.475-1.27-2.213c-0.204-0.368-0.423-0.727-0.623-1.097
		c-0.202-0.002-0.403,0-0.604,0c0.843,1.423,1.644,2.871,2.483,4.296c-0.076,0.111-0.141,0.23-0.201,0.35
		c-0.81-1.422-1.628-2.84-2.438-4.263C8.813,0.26,8.741,0.133,8.673,0.003c-0.201-0.002-0.402,0-0.603,0
		c0.208,0.335,0.393,0.685,0.594,1.024c0.794,1.374,1.575,2.756,2.369,4.13c-0.076,0.11-0.136,0.23-0.2,0.347
		c-0.283-0.53-0.597-1.043-0.89-1.567C9.387,2.966,8.829,1.995,8.271,1.024c-0.192-0.341-0.398-0.674-0.579-1.02
		C7.494,0.002,7.295,0.002,7.097,0.003c0.513,0.884,1.02,1.772,1.527,2.659c0.641,1.113,1.271,2.232,1.923,3.339
		c-0.071,0.114-0.136,0.232-0.208,0.346c-0.231-0.441-0.497-0.864-0.738-1.3C9.174,4.304,8.748,3.56,8.32,2.818
		C7.788,1.882,7.244,0.954,6.716,0.016C6.522-0.016,6.32,0.011,6.123,0.003C6.65,0.914,7.167,1.831,7.692,2.742
		c0.788,1.369,1.567,2.745,2.363,4.109C9.988,6.966,9.924,7.084,9.858,7.2C9.01,5.709,8.152,4.223,7.299,2.736
		c-0.526-0.91-1.041-1.828-1.575-2.733c-0.193,0-0.387-0.001-0.58,0.001c0.285,0.499,0.579,0.993,0.871,1.488
		c1.097,1.879,2.206,3.752,3.3,5.633c0.207,0.331,0.388,0.677,0.601,1.003c0.195-0.367,0.412-0.723,0.617-1.086
		C11.571,5.23,12.613,3.421,13.653,1.61z"/>
	<path d="M5.487,1.301C5.391,1.118,5.289,0.94,5.188,0.76L5.175,0.787c-0.132,0.27-0.297,0.521-0.441,0.784
		c-0.979,1.708-1.96,3.415-2.939,5.123C1.52,7.168,1.257,7.649,0.972,8.116c0.198,0.001,0.397,0.001,0.595,0
		c0.076-0.153,0.168-0.298,0.254-0.445c1.063-1.856,2.134-3.708,3.195-5.565C5.174,1.838,5.321,1.564,5.487,1.301z"/>
	<path d="M13.828,3.012c0.329-0.569,0.647-1.146,0.987-1.708c-0.094-0.184-0.198-0.361-0.301-0.54
		c-0.179,0.359-0.399,0.696-0.59,1.049c-1.054,1.834-2.106,3.669-3.164,5.501c-0.149,0.27-0.307,0.534-0.46,0.802
		c0.199,0,0.398,0.001,0.597,0c0.122-0.238,0.264-0.465,0.393-0.699C12.136,5.948,12.98,4.479,13.828,3.012z"/>
	<path d="M5.972,2.152c-0.09-0.157-0.184-0.311-0.264-0.473C5.7,1.664,5.681,1.634,5.672,1.619c-0.088,0.189-0.199,0.365-0.3,0.547
		c-1.069,1.858-2.13,3.72-3.198,5.578C2.098,7.868,2.031,7.998,1.945,8.116c0.198,0,0.397,0,0.595,0
		c0.144-0.26,0.296-0.516,0.445-0.773C3.985,5.615,4.968,3.877,5.972,2.152z"/>
	<path d="M6.458,3.005c-0.11-0.163-0.195-0.341-0.303-0.505C5.259,4.064,4.36,5.629,3.463,7.194
		C3.277,7.499,3.123,7.823,2.919,8.116c0.203,0.001,0.405,0.001,0.608,0C3.679,7.835,3.843,7.561,4,7.284
		C4.826,5.861,5.629,4.425,6.458,3.005z"/>
	<path d="M7.127,4.211c-0.71,1.259-1.44,2.507-2.161,3.759c-0.029,0.049-0.06,0.097-0.09,0.146c0.199,0,0.398,0,0.597,0
		C5.507,8.058,5.542,8,5.577,7.943c0.612-1.078,1.243-2.145,1.85-3.226C7.324,4.55,7.238,4.374,7.127,4.211z"/>
	<path d="M7.911,5.587c-0.095-0.177-0.2-0.348-0.293-0.526C7.061,6.037,6.498,7.01,5.945,7.988C5.921,8.03,5.898,8.073,5.876,8.116
		c0.191,0.002,0.381,0,0.572,0c0.247-0.42,0.491-0.843,0.732-1.267C7.425,6.429,7.666,6.007,7.911,5.587z"/>
	<path d="M8.103,5.915c-0.176,0.323-0.366,0.639-0.545,0.96C7.323,7.289,7.079,7.699,6.849,8.116c0.191,0.001,0.381,0,0.572,0
		C7.546,7.93,7.649,7.73,7.765,7.538C7.978,7.17,8.189,6.8,8.395,6.429C8.29,6.262,8.194,6.089,8.103,5.915z"/>
	<path d="M14.635,3.304c0.226-0.382,0.43-0.776,0.667-1.151c-0.099-0.176-0.201-0.35-0.297-0.528c-0.241,0.443-0.5,0.874-0.75,1.311
		c-0.888,1.553-1.779,3.105-2.67,4.656c-0.106,0.174-0.192,0.359-0.311,0.524c0.199,0,0.398,0,0.597,0
		c0.151-0.276,0.312-0.547,0.467-0.821C13.103,5.964,13.869,4.634,14.635,3.304z"/>
	<path d="M15.789,3.005c-0.112-0.161-0.192-0.342-0.304-0.503c-0.224,0.389-0.449,0.778-0.67,1.17
		c-0.757,1.304-1.497,2.619-2.255,3.923c-0.101,0.175-0.191,0.357-0.309,0.523c0.2-0.002,0.4,0,0.599-0.001
		c0.524-0.928,1.063-1.848,1.595-2.771C14.892,4.565,15.33,3.779,15.789,3.005z"/>
	<path d="M6.64,3.357C5.828,4.771,5.024,6.191,4.204,7.601C4.102,7.774,4.016,7.958,3.891,8.116c0.203,0,0.406,0.002,0.61,0
		C4.556,8.018,4.61,7.919,4.668,7.822C5.426,6.5,6.183,5.178,6.946,3.858C6.84,3.693,6.749,3.519,6.64,3.357z"/>
	<path d="M16.273,3.862c-0.112-0.162-0.191-0.345-0.303-0.507c-0.444,0.778-0.894,1.553-1.336,2.332
		c-0.473,0.808-0.918,1.632-1.408,2.43c0.202-0.003,0.404-0.001,0.607-0.002c0.238-0.437,0.498-0.862,0.739-1.296
		C15.146,5.839,15.69,4.839,16.273,3.862z"/>
	<path d="M17.239,5.587c-0.09-0.18-0.199-0.349-0.293-0.527c-0.584,1.02-1.164,2.043-1.763,3.055
		c0.198,0.002,0.396,0.001,0.594,0.001c0.031-0.053,0.062-0.107,0.092-0.16c0.329-0.577,0.664-1.151,0.993-1.728
		C16.984,6.012,17.119,5.804,17.239,5.587z"/>
	<path d="M8.584,6.785C8.408,7.099,8.227,7.409,8.05,7.721C7.978,7.854,7.896,7.982,7.824,8.116c0.198-0.01,0.402,0.023,0.596-0.015
		c0.105-0.183,0.208-0.367,0.312-0.55C8.781,7.466,8.829,7.38,8.88,7.295C8.774,7.129,8.684,6.954,8.584,6.785z"/>
	<path d="M18.4,7.629c-0.081,0.168-0.187,0.321-0.27,0.487c0.18,0,0.36,0.001,0.54,0C18.586,7.95,18.478,7.798,18.4,7.629z"/>
	<path d="M16.458,4.209c-0.748,1.303-1.491,2.608-2.247,3.906c0.197,0.001,0.395,0,0.592,0c0.651-1.131,1.302-2.263,1.951-3.395
		C16.655,4.55,16.558,4.379,16.458,4.209z"/>
	<path d="M17.428,5.914c-0.087,0.189-0.203,0.364-0.305,0.544c-0.227,0.394-0.451,0.789-0.677,1.183
		c-0.09,0.157-0.183,0.312-0.267,0.473c0.191,0.003,0.382,0,0.573,0.002c0.333-0.556,0.652-1.119,0.974-1.681
		C17.623,6.263,17.527,6.088,17.428,5.914z"/>
	<path d="M17.913,6.783c-0.246,0.448-0.52,0.88-0.757,1.333c0.189,0,0.378,0,0.567,0c0.18-0.26,0.315-0.548,0.489-0.813
		C18.107,7.132,18.013,6.955,17.913,6.783z"/>
	<path d="M8.8,8.116c0.18,0,0.359,0.001,0.539,0c-0.083-0.164-0.184-0.318-0.27-0.479C8.987,7.801,8.883,7.952,8.8,8.116z"/>
</g>
<g id="Layer_1">
</g>
</svg>
