<?xml version="1.0" encoding="iso-8859-1"?>
<!-- Generator: Adobe Illustrator 19.2.0, SVG Export Plug-In . SVG Version: 6.00 Build 0)  -->
<svg version="1.1" xmlns="http://www.w3.org/2000/svg" xmlns:xlink="http://www.w3.org/1999/xlink" x="0px" y="0px"
	 viewBox="0 0 72.824 63.961" style="enable-background:new 0 0 72.824 63.961;" xml:space="preserve">
<g id="Delaware_x5F_Management_x5F_Fund">
	<path style="fill-rule:evenodd;clip-rule:evenodd;" d="M0.397,63.919c-0.021-0.043-0.042-0.086-0.096-0.096
		C0.158,57.05,0.157,49.46,0.157,42.161c0-1.061-0.178-2.287,0-3.123c0.078-0.369,0.855-1,1.248-1.393
		c1.322-1.322,2.676-2.627,3.938-3.891c1.843-1.842,3.409-3.695,5.091-5.379c3.546-3.547,6.953-7.182,10.423-10.52
		c3.404-3.564,6.955-7.051,10.422-10.518c2.69-2.689,5.3-5.078,9.318-6.389c1.356-0.441,2.835-0.789,4.515-0.912
		c3.224-0.236,6.304,0.674,8.646,1.633c2.557,1.047,4.556,2.398,6.436,3.842c3.857,2.965,7.09,6.738,9.27,11.24
		c2.164,4.471,3.767,10.42,3.266,17.193c-0.451,6.098-2.708,11.076-5.331,15.178c-1.306,2.043-2.964,3.83-4.707,5.572
		c-3.351,3.352-7.908,6.098-12.92,7.637c-2.623,0.807-5.41,1.23-8.838,1.393c-3.325,0.158-6.728,0.078-10.134,0.145
		C20.6,64.071,10.577,63.87,0.397,63.919z"/>
	<path style="fill-rule:evenodd;clip-rule:evenodd;" d="M28.495,0.325c0.067,0.478-0.451,0.74-0.72,1.01
		c-0.865,0.863-1.81,1.758-2.642,2.689C18.874,10.178,12.67,16.46,6.497,22.757c-1.031,1.051-2.082,2.08-3.122,3.121
		c-0.776,0.775-1.539,1.533-2.306,2.353c-0.211,0.227-0.501,0.568-0.864,0.576c-0.218-8.492-0.123-17.834-0.144-26.271
		C0.06,1.872-0.126,1.009,0.157,0.423C9.317,0.305,19.135,0.301,28.495,0.325z"/>
</g>
<g id="Layer_1">
</g>
</svg>
