<?xml version="1.0" encoding="iso-8859-1"?>
<!-- Generator: Adobe Illustrator 19.2.0, SVG Export Plug-In . SVG Version: 6.00 Build 0)  -->
<svg version="1.1" xmlns="http://www.w3.org/2000/svg" xmlns:xlink="http://www.w3.org/1999/xlink" x="0px" y="0px"
	 viewBox="0 0 163.817 152.791" style="enable-background:new 0 0 163.817 152.791;" xml:space="preserve">
<g id="Delfim_x5F_Araujo_x5F_SA">
	<path style="fill-rule:evenodd;clip-rule:evenodd;" d="M64.923,43.581c-3.243-3.098-5.855-6.781-7.182-11.676
		c-0.702-2.588-1.091-5.602-0.88-8.433c0.213-2.864,0.841-5.329,1.76-7.645c1.722-4.337,4.495-8.065,8.109-10.749
		c3.625-2.692,8.378-4.791,13.946-5.051c5.058-0.235,9.337,1.056,12.742,2.873c3.41,1.819,6.263,4.291,8.479,7.228
		c2.222,2.944,4.035,6.66,4.772,10.936c0.799,4.636,0.032,9.742-1.483,13.529c-2.916,7.29-8.819,12.567-16.587,14.827
		c-4.327,1.258-9.515,1.1-13.715-0.14C70.826,48.083,67.691,46.133,64.923,43.581z"/>
	<path style="fill-rule:evenodd;clip-rule:evenodd;" d="M34.11,59.196c4.231-4.204,9.312-7.607,17.144-8.108
		c3.558-0.228,6.911,0.429,9.638,1.39c2.786,0.983,5.101,2.305,7.089,3.892c4.163,3.324,7.207,7.433,8.803,13.16
		c0.845,3.032,1.123,6.552,0.742,9.868c-0.353,3.064-1.367,6.061-2.595,8.387c-2.541,4.811-6.247,8.461-11.074,10.889
		c-2.539,1.277-5.202,2.142-8.433,2.549c-3.452,0.435-6.896,0.027-9.823-0.788c-5.453-1.52-9.984-4.936-12.974-8.989
		c-3.028-4.104-5.618-9.707-5.05-16.819C28.119,67.832,30.553,63.288,34.11,59.196z"/>
	<path style="fill-rule:evenodd;clip-rule:evenodd;" d="M94.391,59.011c4.271-4.213,9.45-7.404,17.468-7.784
		c3.469-0.164,6.754,0.586,9.36,1.622c2.704,1.074,5.041,2.341,7.043,3.938c4.063,3.244,7.208,7.668,8.618,13.345
		c0.776,3.128,1.01,6.63,0.556,9.962c-0.409,2.998-1.514,5.899-2.78,8.201c-2.619,4.761-6.284,8.44-11.167,10.796
		c-2.537,1.224-5.394,2.084-8.618,2.363c-3.635,0.314-6.883-0.207-9.776-1.112c-5.406-1.691-9.823-5.049-12.742-9.221
		c-2.956-4.225-5.446-9.836-4.772-17.005C88.201,67.508,90.803,62.977,94.391,59.011z"/>
	<path style="fill-rule:evenodd;clip-rule:evenodd;" d="M43.192,144.59c-2.534,2.89-5.551,4.879-9.313,6.394
		c-3.723,1.501-8.808,2.096-13.622,1.206c-6.177-1.143-11.221-4.65-14.688-8.805c-2.29-2.743-4.189-6.476-5.051-10.656
		c-0.46-2.237-0.612-4.868-0.463-7.182c0.312-4.854,1.907-8.392,3.799-11.861c0.846-1.552,2.201-2.989,3.522-4.31
		c3.822-3.821,9.454-6.85,16.495-7.182c6.137-0.289,11.106,1.698,14.781,4.03c1.928,1.225,3.519,2.78,4.958,4.448
		c2.89,3.354,5.237,7.393,6.07,12.743c0.437,2.811,0.308,5.82-0.186,8.664C48.585,137.321,46.16,141.345,43.192,144.59z"/>
	<path style="fill-rule:evenodd;clip-rule:evenodd;" d="M99.627,145.331c-2.762,2.611-5.807,4.706-9.683,6.023
		c-1.945,0.661-4.287,1.188-6.58,1.297c-2.457,0.118-4.882-0.184-7.136-0.694c-7.927-1.796-14.154-7.452-17.189-14.225
		c-1.677-3.741-2.605-8.309-2.039-13.298c0.509-4.486,2.115-8.303,4.263-11.444c3.173-4.641,7.782-8.038,13.761-9.776
		c1.57-0.457,3.123-0.75,5.004-0.881c6.87-0.476,12.214,1.772,16.263,4.541c3.886,2.656,6.534,6.047,8.478,10.379
		c0.973,2.165,1.768,4.647,2.086,7.367c0.334,2.865,0.053,5.901-0.556,8.572C105.138,138.281,102.729,142.153,99.627,145.331z"/>
	<path style="fill-rule:evenodd;clip-rule:evenodd;" d="M139.011,102.426c3.64-0.118,7.66,1.045,10.287,2.271
		c2.926,1.365,5.34,3.078,7.32,5.235c2.076,2.263,3.735,4.446,5.051,7.507c1.271,2.959,2.292,6.379,2.131,10.286
		c-0.174,4.216-0.904,7.403-2.225,10.332c-2.548,5.651-6.725,9.952-12.51,12.604c-2.983,1.366-6.486,2.131-10.378,2.131
		c-3.929,0-7.437-0.991-10.287-2.27c-2.911-1.307-5.302-3.03-7.367-5.19c-0.988-1.032-2.147-2.118-2.873-3.429
		c-0.719-1.298-1.515-2.592-2.178-4.077c-1.26-2.824-2.304-6.543-2.177-10.333c0.137-4.097,0.928-7.356,2.27-10.285
		c1.364-2.979,2.822-5.372,5.004-7.553c2.052-2.052,4.587-3.744,7.46-5.098c2.89-1.361,6.301-2.127,10.378-2.131
		C138.949,102.426,138.98,102.427,139.011,102.426z"/>
</g>
<g id="Layer_1">
</g>
</svg>
