<?xml version="1.0" encoding="iso-8859-1"?>
<!-- Generator: Adobe Illustrator 19.2.0, SVG Export Plug-In . SVG Version: 6.00 Build 0)  -->
<svg version="1.1" xmlns="http://www.w3.org/2000/svg" xmlns:xlink="http://www.w3.org/1999/xlink" x="0px" y="0px"
	 viewBox="0 0 178.539 179.648" style="enable-background:new 0 0 178.539 179.648;" xml:space="preserve">
<g id="Delta_x5F_67_x5F_DE">
	<path style="fill-rule:evenodd;clip-rule:evenodd;" d="M89.144,0c0.033,0,0.067,0,0.101,0c2.834,2.784,5.636,5.585,8.461,8.411
		c0.932,0.932,1.737,1.989,2.67,2.921c3.735,3.735,7.445,7.496,11.18,11.231c3.736,3.735,7.496,7.446,11.231,11.181
		c4.683,4.683,9.306,9.355,14.001,14.052c2.792,2.791,5.484,5.686,8.311,8.511c7.461,7.46,14.883,14.983,22.361,22.462
		c3.737,3.737,7.48,7.476,11.08,11.332c-0.316,0.596-0.832,1.034-1.31,1.511c-21.854,21.858-43.797,43.613-65.624,65.674
		c-5.539,5.599-11.01,11.212-16.67,16.872c-1.328,1.328-2.666,2.789-4.181,4.18c-0.442,0.407-1.154,1.298-1.46,1.31
		c-0.375,0.014-1.181-0.979-1.511-1.31c-3.238-3.239-6.592-6.657-9.771-9.821c-7.404-7.753-15.287-15.089-22.563-23.016
		c-0.725-0.79-1.558-1.508-2.316-2.267c-2.254-2.254-4.527-4.55-6.799-6.85c-4.506-4.56-9.091-9.091-13.649-13.649
		c-4.564-4.563-9.073-9.074-13.648-13.648c-1.523-1.524-2.956-3.107-4.482-4.633c-3.035-3.036-5.995-6.125-9.065-9.116
		c-1.229-1.327-2.819-2.77-4.23-4.181C0.913,90.812,0.014,90.081,0,89.647c-0.014-0.428,1.064-1.367,1.511-1.813
		c3.872-3.873,7.784-7.734,11.634-11.584c2.229-2.228,4.341-4.542,6.547-6.749c11.008-11.007,22.287-22.278,33.14-33.139
		c1.286-1.208,2.544-2.521,3.828-3.777c0.964-0.944,1.813-1.942,2.82-2.871c0.293-0.27,0.521-0.788,1.007-0.755
		c0.275,8.878-0.061,18.319,0.201,26.995c0.046,0.022,0.091,0.044,0.102,0.101c9.143,0.241,18.344,0.012,27.549,0.201
		c0.048,0.547-0.515,0.846-0.856,1.159c-1.038,0.95-2.03,2.129-3.072,3.122c-4.802,4.868-9.67,9.67-14.505,14.505
		c-4.826,4.827-9.712,9.594-14.303,14.656c0.101,0.539,0.631,0.802,0.957,1.159c0.341,0.373,0.64,0.761,0.957,1.158
		c0.618,0.777,1.43,1.416,2.115,2.115c6.96,7.11,13.94,14.041,21.052,21.153c2.387,2.387,4.87,4.971,7.354,7.454
		c0.333,0.333,0.921,1.005,1.208,0.957c0.313-0.053,0.844-0.643,1.158-0.957c1.073-1.073,2.118-2.067,3.173-3.122
		c1.451-1.451,2.939-2.753,4.23-4.18c0.349-0.385,0.592-0.802,0.957-1.158c7.756-7.55,15.377-15.428,23.117-23.168
		c0.332-0.332,0.948-0.84,0.957-1.108c0.017-0.488-1.479-1.73-1.813-2.065c-1.938-1.939-3.869-3.97-5.741-5.842
		c-2.631-2.631-5.112-5.273-7.706-7.706c-1.335-1.252-2.556-2.628-3.878-3.878c-1.318-1.247-2.56-2.61-3.827-3.878
		c-2.575-2.576-4.997-5.27-7.555-7.857c-9.438-9.472-19.341-19.341-28.959-28.959c-0.267-0.267-0.583-0.574-0.957-0.957
		c-0.3-0.307-0.846-0.881-0.856-1.058c-0.026-0.474,1.314-1.566,1.612-1.863c0.633-0.633,1.231-1.228,1.763-1.662
		c1.927-2.079,3.966-4.075,6.043-6.044c2.046-1.938,3.92-4.07,5.943-6.094c2.952-2.952,6.003-6.003,9.065-9.065
		C86.998,2.045,88.089,0.774,89.144,0z M47.039,49.155c-0.301,0.542-0.594,1.259-0.654,2.266c-0.148,2.452,1.374,4.31,3.072,5.087
		c0.762,0.349,1.814,0.526,2.619,0.453c2.564-0.233,5.074-2.452,4.684-5.943c-0.065-0.576-0.302-1.306-0.654-1.914
		c-0.868-1.494-2.749-2.818-5.238-2.518C49.042,46.806,47.719,47.933,47.039,49.155z"/>
</g>
<g id="Layer_1">
</g>
</svg>
