<?xml version="1.0" encoding="iso-8859-1"?>
<!-- Generator: Adobe Illustrator 19.2.0, SVG Export Plug-In . SVG Version: 6.00 Build 0)  -->
<svg version="1.1" xmlns="http://www.w3.org/2000/svg" xmlns:xlink="http://www.w3.org/1999/xlink" x="0px" y="0px"
	 viewBox="0 0 145.297 134.841" style="enable-background:new 0 0 145.297 134.841;" xml:space="preserve">
<g id="Demenz_x5F_Support_x5F_Stuttgart_x5F_GmbH">
	<g>
		<path style="fill-rule:evenodd;clip-rule:evenodd;" d="M30.011,0c6.68,6.595,13.362,12.984,20.034,19.674
			c6.685,6.702,13.13,13.214,22.674,16.916c4.959,1.923,9.971,3.118,15.835,3.719c6.016,0.616,12.499,0.24,19.555,0.239
			c12.576-0.001,24.472,0.029,37.188,0.24c-0.023,7.933-0.165,15.224-0.239,22.913c-15.385-0.339-28.706,0.484-43.907,0.12
			c-7.805-0.186-14.842,0.054-21.834-0.84C59.646,60.468,47.111,49.73,35.89,38.509c-7.43-7.429-14.68-14.694-22.194-21.954
			C18.754,10.737,24.681,5.146,30.011,0z"/>
		<path style="fill-rule:evenodd;clip-rule:evenodd;" d="M144.938,68.5c0.199,4.36,0.199,9.556,0,13.916
			c-48.198,0.001-96.994-0.001-144.798,0C-0.139,78.017,0.1,73.1,0.02,68.5C48.371,68.497,96.21,68.501,144.938,68.5z"/>
		<path style="fill-rule:evenodd;clip-rule:evenodd;" d="M145.058,87.215c0.004,3.299-0.018,5.946,0,9.117
			c-8.647,0.621-19.927-0.479-28.792,0.24c-6.011,0.486-10.339,3.647-13.796,7.197c-10.297,10.576-21.237,20.935-31.551,31.071
			c-2.4-1.878-4.198-4.359-6.598-6.238c7.545-7.634,15.525-15.521,23.513-23.394c7.728-7.615,14.52-17.646,28.672-18.114
			C125.285,86.805,135.492,87.236,145.058,87.215z"/>
	</g>
</g>
<g id="Layer_1">
</g>
</svg>
