<?xml version="1.0" encoding="iso-8859-1"?>
<!-- Generator: Adobe Illustrator 19.2.0, SVG Export Plug-In . SVG Version: 6.00 Build 0)  -->
<svg version="1.1" xmlns="http://www.w3.org/2000/svg" xmlns:xlink="http://www.w3.org/1999/xlink" x="0px" y="0px"
	 viewBox="0 0 78.416 70.7" style="enable-background:new 0 0 78.416 70.7;" xml:space="preserve">
<g id="Dent_x5F_Everyman_x5F_60s">
	<path style="fill-rule:evenodd;clip-rule:evenodd;" d="M21.534,0.145c0.022,0.044,0.043,0.089,0.1,0.1
		c0.159,8.348,0.138,16.188-0.05,24.645c-0.045,0.022-0.089,0.044-0.1,0.1c-2.793-0.1-5.272,0.015-7.518,0.498
		C9.51,26.446,6.179,28.571,3.71,31.611c-1.267,1.56-2.191,3.331-2.688,5.477c-1.197,5.166,0.929,9.699,3.386,12.297
		c2.595,2.746,6.324,5.028,11.8,4.282c4.675-0.637,8.125-3.009,9.958-6.422c1.937-3.609,1.493-8.993,1.494-14.687
		c0-9.521,0.05-18.853,0.05-28.429c0-1.326-0.121-2.649,0.149-3.933c1.004-0.27,2.054-0.149,3.086-0.149
		c15.151,0,29.287,0.101,44.262,0.1c0.999,0,2.053-0.118,3.037,0.149c0.242,1.342,0.164,2.739,0.149,4.132
		c-0.209,20.048-0.099,41.095-0.1,61.886c0,1.403,0.064,2.824-0.149,4.182c-0.784,0.265-1.641,0.149-2.489,0.149
		c-4.271-0.001-8.769,0.154-13.044-0.05c-1.716-0.082-3.44,0.283-5.028-0.1c-0.27-1.302-0.149-2.729-0.149-4.132
		c0-4.234-0.078-8.581,0.1-12.646c0.045-0.022,0.089-0.043,0.1-0.099c1.202-0.323,2.406-0.1,3.535-0.1
		c3.823,0,6.546-1.001,8.961-2.539c3.115-1.983,5.517-4.81,6.921-8.364c1.689-4.275,0.71-8.951-1.394-11.999
		c-1.967-2.849-5.143-5.352-9.46-5.825c-2.614-0.287-4.706,0.156-6.572,0.896c-3.623,1.435-6.38,3.909-7.418,7.916
		c-0.532,2.053-0.548,4.366-0.548,7.07c0,10.075,0.042,20.179-0.149,29.823c-1.003,0.288-2.056,0.147-3.087,0.1
		c-3.232-0.15-6.502,0-9.758,0c-6.542,0-13.11,0.066-19.517,0c-5.35-0.056-10.455-0.05-15.982-0.05
		c-1.009,0-2.035,0.079-2.987-0.199c-0.268-1.42-0.149-2.896-0.149-4.331C0.025,45.741,0.124,24.67,0.126,4.128
		c0-0.711,0.014-1.441,0-2.141C0.113,1.334,0.03,0.623,0.375,0.045C7.666,0.005,14.395-0.067,21.534,0.145z M39.309,29.769
		c1.181,0.003,2.337-0.005,3.485,0.05c7.492,0.356,12.462-2.657,14.588-7.717c0.771-1.834,1.233-4.124,0.896-6.323
		c-0.31-2.023-1.169-3.857-2.241-5.228c-1.028-1.315-2.284-2.611-3.933-3.485c-1.58-0.838-3.598-1.653-5.925-1.543
		c-3.177,0.15-5.689,1.205-7.916,2.639c-2.064,1.329-3.875,3.283-5.079,5.327c-2.552,4.334-4.059,10.281-3.186,16.978
		c0.767,5.879,3.251,10.573,6.423,14.339c2.746,3.259,6.328,5.898,10.555,7.617c0.612,0.249,1.296,0.618,1.992,0.548
		c0.336-0.656,0.199-1.646,0.199-2.589c0-0.941,0.04-1.937-0.05-2.738c-0.614-0.781-1.589-1.049-2.39-1.493
		c-2.471-1.37-4.576-3.278-6.323-5.377c-1.721-2.068-3.245-4.632-4.082-7.567c-0.288-1.01-0.601-2.145-0.448-3.286
		C37,29.679,38.191,29.765,39.309,29.769z"/>
	<path style="fill-rule:evenodd;clip-rule:evenodd;" d="M35.674,24.54c-0.185-1.663,0.38-3.309,0.896-4.779
		c0.503-1.433,1.018-2.839,1.842-4.033c1.517-2.197,3.949-4.546,7.12-4.78c2.038-0.15,3.691,0.705,4.779,1.643
		c1.922,1.656,3.156,4.582,1.992,7.468c-0.926,2.296-3.299,4.423-6.473,4.68c-2.418,0.196-5.219,0-7.767,0
		C37.255,24.74,36.394,24.887,35.674,24.54z"/>
	<path style="fill-rule:evenodd;clip-rule:evenodd;" d="M57.531,47.692c-0.02-2.091-0.143-4.305-0.05-6.423
		c0.114-2.592-0.319-5.117,0.448-6.871c0.868-1.982,2.947-3.781,5.626-4.033c2.907-0.273,4.733,0.858,6.124,2.141
		c1.373,1.267,2.447,3.301,2.44,5.775c-0.008,2.618-1.142,4.635-2.44,6.224c-1.322,1.619-3.069,2.917-5.078,3.535
		C62.647,48.642,59.316,48.86,57.531,47.692z"/>
	<path style="fill-rule:evenodd;clip-rule:evenodd;" d="M21.634,30.864c0.132,3.748,0.157,7.126,0.149,10.406
		c-0.007,3.29-1.668,5.237-4.132,6.173c-2.136,0.812-4.73,0.756-6.722-0.149c-1.168-0.531-2.673-1.847-3.286-2.987
		c-0.271-0.506-0.66-1.558-0.847-2.34c-0.359-1.503-0.098-3.656,0.349-4.929c0.162-0.461,0.271-0.952,0.448-1.294
		c0.732-1.418,2.598-2.789,4.083-3.535c1.771-0.891,3.859-1.423,6.174-1.594C19.117,30.522,20.559,30.635,21.634,30.864z"/>
</g>
<g id="Layer_1">
</g>
</svg>
