<?xml version="1.0" encoding="iso-8859-1"?>
<!-- Generator: Adobe Illustrator 19.2.0, SVG Export Plug-In . SVG Version: 6.00 Build 0)  -->
<svg version="1.1" xmlns="http://www.w3.org/2000/svg" xmlns:xlink="http://www.w3.org/1999/xlink" x="0px" y="0px"
	 viewBox="0 0 82.861 83.899" style="enable-background:new 0 0 82.861 83.899;" xml:space="preserve">
<g id="departement_x5F_de_x5F_la_x5F_creuse">
	<path style="fill-rule:evenodd;clip-rule:evenodd;" d="M40.774,0.032C47.18-0.274,53.525,1.65,58.047,3.599
		c2.398,1.033,4.635,2.34,6.675,3.77c6.195,4.344,10.928,9.795,14.318,16.916c2.227,4.678,3.821,10.575,3.821,17.019
		c0.001,6.993-1.37,12.366-3.516,17.324c-2.095,4.841-4.921,8.916-8.357,12.482c-3.333,3.462-7.282,6.587-12.025,8.815
		c-4.711,2.214-10.324,3.976-16.814,3.974c-13.493-0.003-22.897-5.062-29.756-11.922c-0.814-0.815-1.688-1.77-2.497-2.752
		c-2.325-2.823-4.381-5.995-6.013-9.579C1.68,54.804,0.172,49.368,0.012,42.68c-0.162-6.761,1.391-12.586,3.465-17.375
		c4.182-9.658,10.88-16.831,20.381-21.299c4.66-2.19,10.154-3.973,16.814-3.974C40.705,0.032,40.74,0.033,40.774,0.032z
		 M32.723,68.767c0.686-2.214,2.323-3.645,3.821-5.044c0.787-0.69,1.554-1.401,2.293-2.14c0.39-0.226,0.717-0.656,1.172-1.07
		c0.327-0.298,0.848-0.932,1.325-0.917c0.38,0.011,0.715,0.549,1.121,0.917c1.088,0.988,2.232,2.079,3.159,3.006
		c1.383,1.384,3.145,2.617,3.77,4.433c0.18,0.521,0.327,1.245,0.459,1.835c0.146,0.649,0.031,1.438,0.561,1.732
		c0.97,0.014,1.822-0.485,2.649-0.815c5.869-2.346,10.522-6.455,13.808-11.362c3.664-5.473,6.61-13.483,4.942-22.878
		c-1.432-8.064-5.392-13.436-10.445-18.292c-2.384-2.291-5.513-3.942-9.019-5.35c-3.273-1.314-7.963-2.197-12.483-1.987
		c-4.206,0.195-7.977,1.258-11.159,2.751c-3.183,1.495-6.098,3.244-8.407,5.554c-4.687,4.688-8.328,10.377-9.477,18.395
		c-1.291,9.004,1.472,16.843,5.146,22.113c1.92,2.755,4.185,5.084,6.777,7.133c1.891,1.495,4.273,2.854,6.675,3.771
		c0.821,0.313,1.659,0.838,2.599,0.815C32.513,70.649,32.479,69.555,32.723,68.767z"/>
	<path style="fill-rule:evenodd;clip-rule:evenodd;" d="M41.436,19.393c1.461,1.227,2.689,2.641,4.127,4.025
		c0.636,0.613,1.359,1.31,2.038,2.038c1.152,1.234,1.891,2.473,2.395,4.28c0.615,2.204,0.133,4.674-0.662,6.471
		c-0.735,1.66-2.425,2.986-3.771,4.331c-1.028,1.028-1.989,2.056-3.057,3.058c-0.336,0.315-0.629,0.78-1.121,0.866
		c-0.899-0.427-1.507-1.304-2.191-1.987c-0.678-0.679-1.3-1.403-1.987-2.141c-1.287-1.38-2.971-2.643-3.77-4.534
		c-0.124-0.293-0.145-0.643-0.255-0.968c-0.102-0.302-0.27-0.573-0.356-0.866c-0.208-0.705-0.269-1.463-0.255-2.191
		c0.088-4.544,3.687-7.014,6.063-9.63c0.368-0.405,0.782-0.898,1.223-1.376C40.281,20.31,40.844,19.498,41.436,19.393z"/>
	<path style="fill-rule:evenodd;clip-rule:evenodd;" d="M40.621,58.475c-1.604,0.261-3.287,0.059-4.892,0.102
		c-1.73,0.047-3.434,0.073-4.942-0.051c-2.887-0.237-5.011-1.89-6.318-3.821c-0.642-0.949-1.253-2.171-1.376-3.669
		c-0.062-0.771,0.005-1.595,0-2.445c-0.013-2.462-0.032-5.055,0.051-7.541c2.892-0.476,6.424,0.112,9.375-0.153
		c1.417-0.127,2.958,0.481,3.873,1.019c2.128,1.252,4.095,3.594,4.331,6.624C40.949,51.443,40.643,54.889,40.621,58.475z"/>
	<path style="fill-rule:evenodd;clip-rule:evenodd;" d="M59.423,40.998c0.276,2.856,0.152,5.964,0.153,8.764
		c0,2.802-1.033,4.803-2.548,6.318c-1.551,1.551-3.464,2.548-6.318,2.548c-2.698-0.001-5.68,0.057-8.611-0.153
		c-0.059-3.467-0.277-6.865-0.102-9.681c0.179-2.89,1.929-5.312,3.872-6.573c0.876-0.569,2.237-1.218,3.618-1.325
		C52.568,40.657,56.254,40.99,59.423,40.998z"/>
</g>
<g id="Layer_1">
</g>
</svg>
