<?xml version="1.0" encoding="iso-8859-1"?>
<!-- Generator: Adobe Illustrator 19.2.0, SVG Export Plug-In . SVG Version: 6.00 Build 0)  -->
<svg version="1.1" xmlns="http://www.w3.org/2000/svg" xmlns:xlink="http://www.w3.org/1999/xlink" x="0px" y="0px"
	 viewBox="0 0 72.88 73.458" style="enable-background:new 0 0 72.88 73.458;" xml:space="preserve">
<g id="Department_x5F_of_x5F_Trademarks_x5F_and_x5F_Licensing">
	<path style="fill-rule:evenodd;clip-rule:evenodd;" d="M22.636,0.125c0.134,1.637,0.108,3.347,0.144,5.113
		c0.033,1.724-0.179,3.59,0.142,5.208c0.704-1.08,0.948-2.307,1.529-3.44c0.776-1.515,1.978-2.633,3.25-3.775
		c1.218-1.094,2.907-1.977,4.588-2.437c3.63-0.994,8.504-0.622,13.236-0.621c2.271,0,4.577-0.026,6.882,0.047
		c2.26,0.073,4.537-0.082,6.785-0.047c3.944,0.06,7.883,0.096,11.899,0.095c0.518,0,1.099-0.101,1.577,0.144
		c0.244,1.32,0.217,3.295,0.096,4.683c-0.043,0.021-0.086,0.042-0.096,0.096c-2.125,0.113-4.416,0.048-6.738,0.048
		c-4.517-0.001-9.065,0-13.763,0c-2.311,0-4.609-0.099-6.69,0c-4.926,0.234-9.536-0.492-13.284,0.573
		c-1.77,0.503-3.172,1.465-4.54,2.533c-2.19,1.708-3.576,3.791-4.444,6.833c-0.293,1.028-0.788,2.304-0.287,3.537
		c0.514-0.354,0.614-1.019,0.86-1.529c0.126-0.261,0.315-0.496,0.431-0.765c0.116-0.272,0.152-0.601,0.286-0.86
		c0.362-0.698,0.995-1.354,1.529-1.959c0.551-0.625,1.109-1.194,1.768-1.721c1.28-1.022,2.882-1.982,4.588-2.389
		c1.927-0.459,4.1-0.526,6.451-0.525c4.498,0,9.064,0.037,13.62-0.048c5.715-0.107,11.47,0.047,17.012,0.048
		c1.096,0,2.214-0.159,3.25,0.143c0.267,1.292,0.161,3.267,0,4.588c-4.661,0.328-9.828,0.119-14.814,0.095
		c-2.457-0.012-4.883,0.096-7.312,0.096c-4.833,0-10.209-0.024-14.909,0.048c-2.32,0.036-4.331,0.728-6.021,1.624
		c-1.596,0.847-2.994,2.097-4.157,3.537c-0.569,0.705-0.968,1.518-1.434,2.389c-0.779,1.458-1.752,3.201-1.195,5.591
		c0.598-0.277,0.656-1.024,0.908-1.529c0.265-0.531,0.48-1.133,0.765-1.625c0.387-0.669,1.029-1.318,1.577-1.911
		c1.554-1.684,3.791-3.335,6.356-3.966c1.875-0.462,4.078-0.478,6.451-0.478c10.934,0,22.597-0.284,33.786,0
		c0.286,1.386,0.119,3.429,0,4.875c-2.976,0.353-6.678-0.041-9.605,0.238c0.231,0.428,0.779,0.587,1.194,0.765
		c1.298,0.556,2.555,1.276,3.536,2.198c2.341,2.092,4.233,4.79,4.779,8.649c0.141,0.996,0.139,2.094,0.191,3.202
		c0.051,1.081,0.081,2.207,0.048,3.297c-0.171,5.464-0.145,10.653-0.144,16.343c0,4.144-0.07,8.851-0.048,12.95
		c0.006,1.074,0.112,2.172-0.144,3.202c-1.261,0.248-3.301,0.187-4.635,0.048c-0.274-1.24-0.145-2.556-0.145-3.871
		c0.001-3.854,0-8.015,0-12.09c0.001-2.641,0.104-5.317,0.096-7.933c-0.007-2.7-0.212-5.366-0.096-7.933
		c0.132-2.875,0.161-5.583-0.238-7.79c-0.395-2.184-1.347-4.098-2.485-5.639c-1.068-1.447-2.523-2.929-4.253-3.871
		c-1.713-0.933-3.831-1.831-6.403-1.529c0.327,0.465,0.928,0.55,1.386,0.765c2.397,1.124,4.238,2.645,5.782,4.731
		c0.582,0.785,1.209,1.723,1.529,2.676c0.448,1.332,0.72,2.995,0.86,4.636c0.195,2.278,0.074,4.818,0.096,7.311
		c0.016,1.846-0.087,3.869,0,5.926c0.114,2.698-0.067,5.479,0,8.267c0.064,2.688-0.001,5.461,0,8.172
		c0,2.789,0.088,5.536-0.144,8.124c-0.649,0.231-1.558,0.169-2.39,0.143c-0.834-0.026-1.678,0.063-2.294-0.143
		c-0.188-4.868-0.096-10.05-0.095-15.149c0-2.6-0.048-5.179,0-7.742c0.047-2.576-0.123-5.14-0.048-7.693
		c0.075-2.563,0.016-5.247-0.096-7.551c-0.229-4.711-2.644-7.837-5.688-9.987c-0.765-0.541-1.473-1.056-2.437-1.482
		c-1.354-0.599-2.8-1.39-4.875-0.956c-0.013,0.432,0.705,0.534,1.004,0.812c4.771,2.564,8.433,6.498,8.315,13.858
		c-0.186,11.635,0.318,24.206-0.048,35.889c-0.631,0.247-1.52,0.143-2.39,0.143c-0.837,0-1.727,0.075-2.39-0.095
		c-0.312-0.698-0.167-1.543-0.19-2.39c-0.068-2.388,0.259-5.637-0.191-7.789c-0.415,0.322-0.501,0.876-0.669,1.29
		c-1.267,3.115-3.449,5.533-6.355,7.12c-1.742,0.952-3.817,1.362-6.165,1.577c-2.281,0.209-4.838,0.026-7.312,0
		c-4.768-0.05-9.803,0.056-14.623,0.048c-2.52-0.004-5.04,0.047-7.502,0.048c-1.847,0-3.533,0.015-5.544-0.048
		c-0.554-0.018-1.146,0.07-1.673-0.144c-0.158-1.424-0.158-3.498,0-4.922c10.02-0.075,21.018-0.047,31.492-0.048
		c2.922,0,5.482,0.131,7.694-0.334c5.328-1.121,8.719-4.717,10.417-9.653c0.342-0.993,0.665-2.179,0.287-3.393
		c-0.442,0.087-0.536,0.608-0.669,0.908c-1.708,3.853-4.527,6.937-8.889,8.22c-2.798,0.823-6.415,0.409-9.939,0.573
		c-1.442,0.067-2.912-0.129-4.349,0c-1.407,0.126-2.892,0.033-4.349,0c-4.261-0.095-8.864,0.099-13.285,0
		c-2.88-0.064-5.741,0.066-8.458-0.239c-0.165-1.448-0.134-3.3,0-4.683c1.23-0.274,2.536-0.123,3.822-0.144
		c8.863-0.144,18.598,0.081,27.573-0.096c2.832-0.056,5.386,0.166,7.599-0.287c4.38-0.896,7.355-3.304,9.414-6.69
		c0.971-1.598,2.081-3.591,1.577-6.165c-0.464,0.008-0.615,0.574-0.765,0.86c-0.594,1.138-1.146,2.184-1.912,3.202
		c-1.859,2.472-4.804,4.546-8.649,5.018c-1.979,0.243-3.993,0.253-6.26,0.191c-4.049-0.112-8.211,0.018-12.138,0.095
		c-0.67,0.014-1.374-0.015-2.055-0.047c-0.65-0.031-1.278,0.063-1.912,0.047c-5.386-0.13-10.94,0.163-16.248-0.239
		c-0.253-0.637-0.144-1.583-0.143-2.437c0-0.89-0.035-1.768,0.143-2.438c3.017-0.374,6.42,0.235,9.51-0.191
		c-0.721-0.578-1.6-0.8-2.341-1.195c-2.304-1.225-4.142-3.1-5.496-5.4c-0.922-1.566-1.542-3.404-1.769-5.496
		c-0.249-2.31-0.049-5.309-0.095-7.885c-0.072-4.017,0.294-8.384,0.095-12.759c-0.095-2.104-0.049-4.272,0.049-6.355
		c0.1-2.172-0.073-4.302-0.049-6.308C0.146,3.325,0.183,1.678,0.32,0.125c0.649-0.166,1.536-0.096,2.389-0.096
		c0.836,0,1.74-0.124,2.294,0.191c0.187,4.075,0.104,8.284,0.096,12.425C5.09,16.73,4.863,20.91,5.051,25.166
		c0.133,3.017-0.001,6.09,0,9.366c0,3.254,0.289,5.954,1.386,8.172c0.713,1.442,1.618,2.595,2.58,3.823
		c2.478,1.7,5.068,4.279,9.51,3.632c-0.258-0.44-0.802-0.543-1.194-0.717c-4.609-2.037-8.065-6.019-8.363-12.425
		c-0.216-4.646-0.069-9.927-0.095-14.766c-0.014-2.459-0.1-4.988,0-7.455C9.075,9.765,8.803,4.7,9.112,0.125
		c1.363-0.158,3.368-0.158,4.731,0c0.319,6.973-0.166,15.032,0,22.317c0.111,4.931-0.276,10.626,0.048,15.291
		c0.385,5.542,3.965,9.382,8.075,11.421c1.42,0.704,3.286,1.663,5.544,1.003c-0.16-0.492-0.902-0.404-1.242-0.717
		c-4.927-2.533-8.625-6.435-8.507-13.667c0.038-2.314-0.174-4.748-0.096-7.216c0.144-4.491-0.138-9.372,0-14.097
		c0.129-4.391,0.116-8.682,0-12.855c-0.014-0.507-0.134-1.145,0.239-1.577C19.463,0.066,21.14-0.11,22.636,0.125z M26.746,26.79
		c-1.059,1.093-1.9,2.198-2.532,3.584c-0.607,1.328-1.211,2.991-1.339,4.778c-0.218,3.052,0.431,5.426,1.339,7.312
		c0.239,0.497,0.381,1.017,0.621,1.433c0.848,1.474,2.268,2.871,3.68,3.823c2.959,1.999,7.412,3.345,11.851,1.959
		c3.088-0.965,5.235-2.569,6.978-4.827c1.828-2.371,3.208-5.647,2.819-9.892c-0.158-1.728-0.86-3.747-1.577-4.97
		c-2.347-4.001-6.15-7.521-12.568-7.216C31.763,22.978,29.027,24.434,26.746,26.79z"/>
</g>
<g id="Layer_1">
</g>
</svg>
