<?xml version="1.0" encoding="iso-8859-1"?>
<!-- Generator: Adobe Illustrator 19.2.0, SVG Export Plug-In . SVG Version: 6.00 Build 0)  -->
<svg version="1.1" xmlns="http://www.w3.org/2000/svg" xmlns:xlink="http://www.w3.org/1999/xlink" x="0px" y="0px"
	 viewBox="0 0 81.111 81.023" style="enable-background:new 0 0 81.111 81.023;" xml:space="preserve">
<g id="design_x5F_workshops_x5F_london">
	<path style="fill-rule:evenodd;clip-rule:evenodd;" d="M41.742,39.606c-0.319-1.42-0.087-3.169-0.151-4.787
		c-0.201-5.032,0-9.872,0-15.014c0-5.718,0-11.68,0-17.635c0-0.662-0.22-2.036,0.454-2.116c1.035-0.123,2.562,0,3.829,0
		c3.621,0.001,7.396-0.001,11.034,0c2.482,0.001,4.981-0.109,7.104,0.252c6.182,1.051,10.569,4.166,13.553,8.565
		c2.031,2.995,3.325,6.609,3.325,11.387c0,4.59-1.604,8.356-3.627,11.134c-3.001,4.12-7.445,7.556-13.805,8.263
		c-2.197,0.245-4.62,0.151-7.205,0.151C51.423,39.807,46.359,39.941,41.742,39.606z"/>
	<path style="fill-rule:evenodd;clip-rule:evenodd;" d="M39.525,41.621c0.272,1.164,0.151,2.394,0.151,3.578
		c0,3.559,0,7.25,0,10.983c0,2.633,0.098,5.072-0.151,7.306c-0.699,6.274-4.189,10.926-8.364,13.906
		c-2.776,1.981-6.654,3.559-11.286,3.577c-4.817,0.019-8.38-1.597-11.336-3.577c-2.926-1.96-5.157-4.843-6.701-8.162
		c-0.793-1.704-1.408-3.654-1.663-5.794c-0.264-2.217-0.151-4.664-0.151-7.255c0-4.397,0.051-8.612,0.051-12.898
		c0-0.541-0.114-1.157,0.151-1.663C13.074,41.445,27.185,41.466,39.525,41.621z"/>
	<path style="fill-rule:evenodd;clip-rule:evenodd;" d="M80.991,41.722c0.183,5.069,0.1,9.801,0.101,14.712
		c0,2.653,0.112,5.049-0.202,7.255c-0.902,6.357-4.132,10.837-8.515,13.855c-2.947,2.029-6.555,3.426-11.387,3.477
		c-4.544,0.047-8.426-1.563-11.236-3.678c-2.893-2.177-5.121-4.914-6.6-8.263c-0.757-1.713-1.346-3.662-1.612-5.845
		c-0.291-2.379-0.1-4.859-0.1-7.356c0-3.926-0.022-9.039,0.05-12.797c0.016-0.816-0.176-1.432,0.503-1.562
		c0.663-0.126,1.639-0.039,2.469,0c5.535,0.262,11.61,0.049,17.181,0.05c3.341,0,6.63-0.001,9.875,0
		C74.757,41.571,77.945,41.473,80.991,41.722z"/>
</g>
<g id="Layer_1">
</g>
</svg>
