<svg id="Layer_1" data-name="Layer 1" xmlns="http://www.w3.org/2000/svg" viewBox="0 0 272.13 136.06"><defs><style>.cls-1{fill:#fff;}</style></defs><title>Detroit_Underground_logo</title><path d="M100,396V328h68a68,68,0,1,1-68,68Z" transform="translate(-100 -328)"/><path d="M236.06,396V328H372.13v68a68,68,0,1,1-136.06,0Z" transform="translate(-100 -328)"/><polygon class="cls-1" points="253.78 11.56 253.78 4.58 251.21 4.58 251.21 2.99 258.23 2.99 258.23 4.58 255.67 4.58 255.67 11.56 253.78 11.56 253.78 11.56"/><polygon class="cls-1" points="259.89 11.56 259.89 2.99 262.55 2.99 264.55 8.89 264.58 8.89 266.47 2.99 269.12 2.99 269.12 11.56 267.36 11.56 267.36 5.49 267.34 5.49 265.24 11.56 263.78 11.56 261.69 5.55 261.66 5.55 261.66 11.56 259.89 11.56 259.89 11.56"/></svg>