<?xml version="1.0" encoding="iso-8859-1"?>
<!-- Generator: Adobe Illustrator 19.2.0, SVG Export Plug-In . SVG Version: 6.00 Build 0)  -->
<svg version="1.1" xmlns="http://www.w3.org/2000/svg" xmlns:xlink="http://www.w3.org/1999/xlink" x="0px" y="0px"
	 viewBox="0 0 72.349 64.899" style="enable-background:new 0 0 72.349 64.899;" xml:space="preserve">
<g id="Deutscher_x5F_Arbeiterjungenkongress">
	<path style="fill-rule:evenodd;clip-rule:evenodd;" d="M44.007,17.526c0.25,0.783,2.373,1.042,3.117,0.307
		c0.68-0.673,0.888-3.18,1.124-4.293c0.646-3.04,1.112-5.62,1.941-8.89c0.363-1.431,0.567-3.613,1.432-4.139
		c0.692-0.422,2.806-0.153,3.934-0.153c2.607,0,5.083,0.051,7.971,0.051c1.142,0,3.376-0.229,3.781,0.408
		C67.651,1.358,67.148,2.881,67,3.678c-0.192,1.043-0.482,1.831-0.664,2.811c-0.901,4.854-2.033,9.389-2.913,14.461
		c-0.179,1.036-0.559,2.013-0.408,2.963c0.134,0.839,0.743,1.79,1.124,2.657c2.283,5.197,4.7,10.127,7.153,15.227
		c0.37,0.768,1.244,2.143,1.021,2.759c-0.285,0.792-2.781,0.511-3.832,0.511c-3.684,0.001-7.172-0.051-10.781-0.051
		c-0.753,0-1.713,0.042-2.196-0.153c-1-0.404-1.63-2.354-2.147-3.525c-0.589-1.337-1.326-2.552-1.891-3.731
		c-0.92-1.922-1.728-3.733-2.708-5.723c-0.346-0.701-0.676-1.416-1.175-1.635c-0.808-0.354-2.894-0.197-3.321,0.102
		c-0.814,0.57-0.503,3.344-0.562,4.753c-0.202,4.804,0.103,9.784-0.052,14.255c-0.056,1.614,0.075,3.188,0.052,4.752
		c-0.05,3.292,0.021,6.084-1.533,7.971c-0.672,0.816-1.545,1.711-2.657,2.146c-1.602,0.627-3.773,0.612-5.773,0.613
		c-0.918,0-2.186,0.085-3.168,0.051c-0.906-0.031-2.462,0.091-2.913-0.46c-0.416-0.509-0.147-3.334-0.152-4.241
		c-0.024-4.339,0.042-8.838-0.103-12.723c-0.165-4.42-0.001-8.05,0-12.773c0-1.814,0.332-4.146-0.716-4.649
		c-1.716-0.18-4.178-0.154-6.335-0.154c-0.836,0-1.818-0.025-2.197,0.307c-0.683,0.846-0.72,2.216-0.767,3.476
		c-0.101,2.679-0.465,4.913-0.767,7.664c-0.128,1.168-0.103,2.936-0.868,3.321c-0.739,0.371-2.914,0.102-3.935,0.102
		c-2.885,0-4.895-0.051-8.022-0.051c-1.287,0-3.253,0.199-3.679-0.511c-0.276-0.462,0.015-1.909,0.102-2.76
		c0.688-6.628,1.231-12.683,2.095-19.16C3.152,15.99,3.801,9.802,4.664,3.372c0.191-1.428,0.081-3.067,1.379-3.27
		c1.413-0.221,3.197-0.025,4.804,0.051c1.588,0.075,3.258,0,4.803,0c7.79,0.001,15.278,0.103,23.555,0.103
		c1.501,0,4.059-0.245,4.548,0.613c0.412,0.723,0.2,2.897,0.153,4.139C43.746,9.239,43.859,13.643,44.007,17.526z M66.54,38.986
		c-0.986-2.121-1.874-4.186-2.912-6.285c-1.011-2.044-2.011-4.185-3.015-6.183c-0.347-0.689-0.812-1.509-0.92-2.146
		c-0.146-0.859,0.202-1.942,0.409-2.811c0.203-0.854,0.358-1.746,0.511-2.555c0.838-4.446,1.697-8.272,2.605-12.672
		c0.161-0.777,0.584-2.004,0.307-2.555c-0.303-0.602-1.191-0.493-2.095-0.511c-1.975-0.039-3.294,0.006-5.059-0.051
		c-0.931-0.03-1.87-0.02-2.35,0.307c-0.47,0.318-0.693,1.297-0.869,2.095c-0.896,4.073-1.646,7.57-2.401,11.547
		c-0.239,1.261-0.402,3.808-1.328,4.292c-0.49,0.257-1.309,0.106-2.096,0.102c-0.745-0.004-1.483,0-2.196,0
		c-1.444,0-3.474,0.168-4.037-0.357c-0.481-0.449-0.307-1.349-0.307-2.452c0-3.147,0.078-6.12,0.103-8.891
		c0.006-0.701-0.103-1.428-0.103-2.147c0-1.415,0.252-3.637-0.255-4.292c-0.484-0.625-2.394-0.46-3.68-0.46
		c-7.253-0.001-13.017,0.1-20.233,0.102c-1.3,0-2.642,0.051-4.189,0.051c-1.059,0-3.184-0.283-3.986,0.153
		C7.676,3.688,7.717,4.84,7.576,5.927C7.472,6.734,7.36,7.605,7.27,8.277c-0.642,4.83-1.088,9.37-1.839,14.103
		c-0.503,3.166-0.842,6.269-1.125,9.504c-0.19,2.182-0.528,4.822-0.766,7.204c-0.081,0.81-0.273,2.015,0,2.402
		c0.487,0.69,3.362,0.408,4.649,0.408c0.839,0,1.587,0.03,2.452,0c0.842-0.029,1.728,0.042,2.146-0.204
		c0.848-0.499,0.756-2.276,0.869-3.475c0.253-2.699,0.577-5.11,0.868-7.817c0.12-1.114,0.168-3.057,0.767-3.577
		c0.619-0.539,2.851-0.307,4.087-0.307c2.819,0.001,4.758,0.051,7.511,0.052c1.156,0,3.014-0.118,3.476,0.408
		c0.47,0.538,0.286,2.536,0.255,3.526c-0.112,3.585,0.068,7.002,0,10.474c-0.102,5.259,0.053,11.148,0,16.862
		c-0.015,1.618-0.283,3.474,0.664,3.934c3.602,0.326,7.546,0.522,8.84-2.044c0.607-1.205,0.589-2.823,0.562-4.599
		c-0.085-5.654,0.051-11.121,0.052-16.452c0-2.833,0.119-5.545,0-8.175c-0.063-1.385-0.265-2.97,0.562-3.628
		c1.909-0.203,4.196-0.099,6.183-0.052c0.681,0.017,1.542-0.039,1.993,0.153c0.443,0.19,0.872,0.989,1.175,1.636
		c1.553,3.306,2.983,6.351,4.548,9.605c0.562,1.172,1.127,3.102,2.196,3.475c0.663,0.23,1.699,0.103,2.606,0.103
		c1.814-0.001,3.37,0,5.212,0c0.787-0.001,1.767,0.139,2.095-0.613C67.372,40.373,66.865,39.682,66.54,38.986z"/>
	<path style="fill-rule:evenodd;clip-rule:evenodd;" d="M28.116,9.043c1.104,0.986,1.96,1.768,2.351,3.373
		c0.338,1.387,0.204,2.67,0.205,4.547c0,1.378,0.311,3.703-0.358,4.241c-0.522,0.42-2.501,0.308-3.628,0.255
		c-2.628-0.122-4.802-0.051-7.613-0.051c-1.107,0-2.861,0.17-3.219-0.613c-0.237-0.521,0.145-2.306,0.256-3.219
		c0.295-2.448,0.524-3.967,0.817-6.54c0.115-1.018,0.161-2.474,0.868-2.811c0.537-0.255,1.592-0.069,2.3-0.102
		C22.856,7.995,26.317,7.916,28.116,9.043z M23.058,17.934c1.42-0.024,2.785,0.098,3.781-0.102c0.682-0.226,0.671-1.56,0.665-2.3
		c-0.009-0.906-0.062-1.684-0.307-2.248c-0.68-1.561-2.65-2.131-4.65-1.891c-0.465,0.057-1.233-0.061-1.737,0.103
		c-1.011,0.328-1.003,1.861-1.124,3.168c-0.088,0.947-0.254,1.858-0.204,2.605C19.884,18.199,21.71,17.958,23.058,17.934z"/>
</g>
<g id="Layer_1">
</g>
</svg>
