<?xml version="1.0" encoding="iso-8859-1"?>
<!-- Generator: Adobe Illustrator 19.2.0, SVG Export Plug-In . SVG Version: 6.00 Build 0)  -->
<svg version="1.1" xmlns="http://www.w3.org/2000/svg" xmlns:xlink="http://www.w3.org/1999/xlink" x="0px" y="0px"
	 viewBox="0 0 76.882 78.356" style="enable-background:new 0 0 76.882 78.356;" xml:space="preserve">
<g id="Deutsche_x5F_Stahllamelle_x5F_Hunnebeck">
	<path style="fill-rule:evenodd;clip-rule:evenodd;" d="M34.757,0.239c0.252,1.343,0.144,2.81,0.144,4.253
		c0,4.225-0.175,8.881,0,13.19c1.126,0.283,2.498,0.106,3.775,0.143c0.591,0.018,1.216,0.048,1.816,0.048
		c0.634,0,1.294,0.108,1.816-0.143c0.19-1.338,0.096-2.805,0.096-4.253c0-4.183,0.087-8.751,0.191-13.047
		c0.646-0.253,1.367-0.143,2.055-0.143c10.698,0,21.656,0.068,32.116,0.287c0.085,5.753,0.186,11.768,0.047,17.492
		c-0.103,4.279-0.095,8.595-0.095,13.143c0,1.448,0.113,2.894-0.144,4.301c-4.328,0.075-8.984,0.063-13.19-0.144
		c-0.209-4.65-0.048-10.102-0.048-15.149c0-0.641,0.135-1.766-0.048-2.007c-0.198-0.261-1.182-0.191-1.672-0.191
		c-1.806,0-3.908-0.077-5.496,0.096c-0.235,4.145-0.191,8.584-0.191,13.047c0,1.453,0.103,2.916-0.143,4.206
		c-8.72,0.199-17.47-0.096-25.999-0.095c-2.867,0-5.743,0.016-8.555-0.192c-0.324-5.299,0.141-11.663-0.143-17.205
		c-1.009-0.254-2.267-0.143-3.489-0.143c-1.229,0-2.476-0.038-3.585,0.048c-0.242,0.631-0.191,1.36-0.191,2.055
		c0,2.194,0.003,4.399-0.048,6.548c-0.071,2.946,0.16,5.956-0.144,8.746C9.274,35.212,4.587,35.196,0.3,35.031
		c-0.222-2.78-0.096-5.695-0.096-8.65c0-7.304,0.143-14.418,0.143-22.032c0-0.672,0.033-1.378,0-2.15
		c-0.03-0.718-0.078-1.964,0.191-2.103C0.574,0.051,0.625,0.023,0.682,0C12.352,0.034,23.74-0.022,34.757,0.239z"/>
	<path style="fill-rule:evenodd;clip-rule:evenodd;" d="M13.633,43.347c0.199,5.729-0.141,11.617,0.096,17.157
		c1.017,0.25,2.32,0.143,3.585,0.143c1.264,0,2.568,0.107,3.584-0.143c0.305-5.51-0.063-11.693,0.287-17.157
		c2.787-0.236,5.698-0.048,8.602-0.048c2.898,0,5.802,0.095,8.698,0.096c5.852,0,11.713,0.004,17.301,0.191
		c0.012,4.295,0.167,8.808,0,12.999c-0.057,1.427-0.073,2.867,0.143,4.206c2.213,0.163,4.887,0.146,7.073,0.047
		c0.259-1.343,0.144-2.789,0.144-4.253c0-4.2-0.016-8.853,0.191-12.952c4.347-0.205,9.037-0.048,13.191,0.096
		c0.181,2.813,0.096,5.778,0.096,8.698c0,8.191-0.096,15.684-0.096,23.944c0,0.664,0.056,1.345-0.143,1.959
		c-8.573,0.091-17.331-0.096-25.712-0.096c-2.17,0-4.292,0-6.452,0c-0.653,0-1.376,0.109-2.007-0.144
		c-0.178-5.309,0.045-11.496-0.048-17.014c-0.445-0.335-1.104-0.239-1.721-0.239c-1.78,0-4.011-0.168-5.735,0.048
		c-0.323,5.673,0.001,11.53-0.287,17.157C23.155,78.085,11.373,78.098,0.108,77.9c-0.244-8.551,0-17.504,0-26.333
		c0-2.517-0.03-5.067,0.048-7.599c0.024-0.775,0.066-0.748,0.526-0.812c0.487-0.069,1.043,0.02,1.577,0
		c1.531-0.057,3.262,0.048,4.923,0.048C9.384,43.204,11.572,43.09,13.633,43.347z"/>
</g>
<g id="Layer_1">
</g>
</svg>
