<?xml version="1.0" encoding="iso-8859-1"?>
<!-- Generator: Adobe Illustrator 19.2.0, SVG Export Plug-In . SVG Version: 6.00 Build 0)  -->
<svg version="1.1" xmlns="http://www.w3.org/2000/svg" xmlns:xlink="http://www.w3.org/1999/xlink" x="0px" y="0px"
	 viewBox="0 0 65.848 73.913" style="enable-background:new 0 0 65.848 73.913;" xml:space="preserve">
<g id="Deutscher_x5F_Heilverband">
	<path style="fill-rule:evenodd;clip-rule:evenodd;" d="M43.906,24.813c-2.24,2.482-5.088,4.297-9.068,4.887
		c-1.316,0.195-2.619,0.159-4.182-0.051c-4.859-0.653-8.84-3.597-10.881-7.657c-1.08-2.147-1.697-4.396-1.664-7.607
		c0.029-2.774,0.822-5.281,2.066-7.204c2.459-3.798,6.033-6.49,11.435-7.103c3.447-0.392,6.859,0.783,9.119,2.166
		c2.373,1.453,4.111,3.46,5.289,5.844c1.264,2.553,2.084,5.707,1.512,9.22C47.035,20.38,45.651,22.84,43.906,24.813z"/>
	<path style="fill-rule:evenodd;clip-rule:evenodd;" d="M65.619,5.266c0.043-0.01,0.049,0.019,0.051,0.05
		c0.271,2.638,0.15,5.329,0.152,8.011c0.002,10.791-0.051,21.754,0,32.596c0.024,5.226-0.002,10.377,0,15.768
		c0,2.666,0.092,5.33-0.152,7.96c-0.443-0.615-0.379-1.525-0.553-2.368c-0.33-1.595-0.734-3.13-1.26-4.584
		c-1.271-3.514-2.965-6.646-5.139-9.32c-3.422-4.211-7.93-7.828-13.352-9.875c-2.791-1.054-5.859-1.849-9.471-2.166
		c-11.465-1.009-19.707,3.638-25.492,8.968c-3.869,3.797-7.213,8.319-8.816,14.408c-0.389,1.477-0.949,2.939-1.209,4.585
		c-0.086,0.539,0.076,1.145-0.252,1.662c-0.185-16.17-0.1-32.654-0.102-48.868c0-5.434-0.117-10.84,0.15-16.172
		c0.482,0.952,0.545,2.015,0.807,2.973c1.295,4.72,3.74,8.813,6.5,12.191c1.113,1.365,2.4,2.615,3.729,3.729
		c5.383,4.517,12.271,7.958,21.914,7.96c4.81,0.001,8.81-1.133,12.443-2.52c3.4-1.296,6.648-3.509,9.17-5.743
		c2.639-2.339,5.051-4.99,6.852-8.11c1.828-3.168,2.904-6.878,3.93-10.983C65.537,5.35,65.608,5.337,65.619,5.266z"/>
	<path style="fill-rule:evenodd;clip-rule:evenodd;" d="M31.613,44.209c2.963-0.316,5.641,0.404,7.76,1.359
		c1.553,0.7,3.059,1.777,4.131,2.872c2.213,2.263,4.051,5.61,4.332,9.622c0.398,5.686-2.291,9.564-5.139,12.192
		c-2.846,2.626-8.037,4.558-13.148,3.225c-4.465-1.165-7.51-3.633-9.521-7.355c-1.182-2.183-2.09-5.271-1.764-8.666
		c0.303-3.162,1.543-5.524,3.072-7.557C23.551,46.962,26.899,44.712,31.613,44.209z"/>
</g>
<g id="Layer_1">
</g>
</svg>
