<?xml version="1.0" encoding="iso-8859-1"?>
<!-- Generator: Adobe Illustrator 19.2.0, SVG Export Plug-In . SVG Version: 6.00 Build 0)  -->
<svg version="1.1" xmlns="http://www.w3.org/2000/svg" xmlns:xlink="http://www.w3.org/1999/xlink" x="0px" y="0px"
	 viewBox="0 0 71.604 72.207" style="enable-background:new 0 0 71.604 72.207;" xml:space="preserve">
<g id="Deutsche_x5F_Grundbesitz-Investmentgesellschaft">
	<path style="fill-rule:evenodd;clip-rule:evenodd;" d="M71.485,0.343c0.269,18.188,0,35.739,0,53.684
		c0,6.025,0.049,12.065-0.15,17.995c-1.331,0.182-2.81,0.114-4.349,0.149c-4.395,0.102-8.838-0.05-13.296-0.05
		c-16.753-0.002-32.374-0.15-49.236-0.149c-1.466,0-2.955,0.121-4.398-0.15c-0.149-20.403,0.05-42.03,0.05-62.981
		c0-2.067,0-4.406,0-6.799c0-1.099-0.166-1.885,0.5-1.999c0.621-0.107,1.462,0.023,2.199,0c1.832-0.058,4.284,0.05,6.498,0.05
		C29.983,0.096,51.339,0.215,71.485,0.343z M3.604,0.843c-0.75,0-1.596-0.117-2.199,0c-0.465,0.09-0.477,0.188-0.5,0.85
		c-0.097,2.782,0,4.923,0,7.548c0,11.697-0.1,24.075-0.1,35.54c0,8.608-0.149,17.31,0.05,26.242c1.408,0.272,2.876,0.15,4.298,0.149
		c7.464,0,14.658,0.05,21.994,0.051c8.729,0,16.931,0.099,25.592,0.1c5.85,0.001,11.731,0.13,17.745,0
		c0.01-0.056,0.055-0.077,0.1-0.1c0.14-11.792,0.149-23.645,0.15-35.39c0.001-9.811,0.289-20.613,0.05-30.492
		c-0.034-1.41,0.229-2.833-0.1-4.198C48.655,0.993,25.995,0.846,3.604,0.843z"/>
	<path style="fill-rule:evenodd;clip-rule:evenodd;" d="M63.487,1.942c0.045,3.889,0.213,8.028-0.05,11.797
		c-0.939,0.211-1.987,0.128-3.049,0.149c-3.092,0.061-6.681-0.068-9.747-0.149c-0.153-3.825-0.167-8.063,0.05-11.847
		C54.885,1.708,59.47,1.685,63.487,1.942z"/>
	<path style="fill-rule:evenodd;clip-rule:evenodd;" d="M36.095,17.838c0.409-0.661-0.049-1.974,0.3-2.749
		c3.958-0.197,8.528-0.08,12.596,0.05c0.286,1.329,0.15,2.8,0.15,4.249c0,7.49-0.01,14.696-0.05,22.043
		c-0.016,2.941,0.091,5.884-0.15,8.698c-3.023,0.213-6.359,0.05-9.547,0.05c-1.047-0.001-2.136,0.108-3.099-0.15
		c-0.341-0.492,0.027-1.692-0.25-2.249c-0.681,0.059-1.203,0.5-1.75,0.8c-1.61,0.882-3.583,1.652-5.899,1.899
		c-3.275,0.35-6.502,0.008-9.047-1.05c-4.68-1.944-8.468-5.739-10.247-10.597c-1.026-2.802-1.328-6.148-0.8-9.147
		c0.517-2.934,1.629-5.332,3.049-7.348c2.767-3.931,7.398-7.055,13.546-7.448c3.665-0.234,6.398,0.701,8.847,1.8
		C34.633,16.967,35.187,17.579,36.095,17.838z M27.497,24.685c-3.781,0.451-6.295,3.174-6.798,6.748
		c-0.366,2.598,0.655,5.106,2.199,6.599c1.55,1.496,3.818,2.559,6.648,2.299c1.879-0.172,3.683-1.259,4.799-2.499
		c1.167-1.297,2.125-2.993,2.149-5.148c0.029-2.594-0.978-4.426-2.549-5.898C32.522,25.396,30.299,24.352,27.497,24.685z"/>
	<path style="fill-rule:evenodd;clip-rule:evenodd;" d="M63.437,15.188c0.21,5.675,0.1,11.589,0.1,17.545
		c0,5.835,0.029,11.772-0.2,17.445c-4.049,0.163-8.712,0.082-12.796-0.05c-0.113-8.62-0.082-17.806,0-26.593
		c0.013-1.392-0.047-2.775,0-4.148c0.049-1.439-0.161-2.9,0.15-4.299C54.941,15.016,59.4,14.965,63.437,15.188z"/>
	<path style="fill-rule:evenodd;clip-rule:evenodd;" d="M18.949,51.578c0.224,0.458,0.128,0.868,0.25,1.35
		c0.94,3.725,5.389,5.957,9.697,5.648c2.221-0.159,4.356-1.164,5.599-2.549c1.03-1.148,1.524-2.559,1.799-4.399
		c4.068-0.16,8.709-0.099,12.696,0.101c0.132,2.873-1.051,5.272-2.149,7.247c-2.108,3.358-4.89,6.286-8.547,8.198
		c-3.597,1.879-8.462,3.055-13.846,1.899c-6.587-1.414-11.393-5.581-14.096-11.047c-0.929-1.878-1.713-4.035-1.799-6.448
		C11.75,51.269,15.676,51.47,18.949,51.578z"/>
</g>
<g id="Layer_1">
</g>
</svg>
