<?xml version="1.0" encoding="iso-8859-1"?>
<!-- Generator: Adobe Illustrator 19.2.0, SVG Export Plug-In . SVG Version: 6.00 Build 0)  -->
<svg version="1.1" xmlns="http://www.w3.org/2000/svg" xmlns:xlink="http://www.w3.org/1999/xlink" x="0px" y="0px"
	 viewBox="0 0 74.586 75.679" style="enable-background:new 0 0 74.586 75.679;" xml:space="preserve">
<g id="Deutsche_x5F_Medizin-Messe">
	<path style="fill-rule:evenodd;clip-rule:evenodd;" d="M35.176,0.086c4.602-0.36,9.143,0.469,12.575,1.533
		c5.783,1.792,10.881,4.94,14.773,8.69c6.407,6.173,10.985,14.057,11.961,25.609c0.488,5.773-0.865,11.737-2.556,15.949
		c-1.848,4.604-4.351,8.203-7.259,11.502c-0.729,0.827-1.617,1.487-2.453,2.249c-0.834,0.759-1.638,1.524-2.505,2.197
		c-1.785,1.387-3.617,2.608-5.674,3.732c-1.961,1.07-4.246,2.096-6.697,2.709c-2.513,0.629-5.208,1.265-7.974,1.38
		c-12.399,0.521-21.394-3.884-27.604-9.865c-0.821-0.791-1.54-1.551-2.249-2.454c-0.342-0.435-0.719-0.854-1.074-1.278
		c-0.365-0.436-0.628-0.916-0.971-1.38c-3.319-4.487-5.961-9.852-7.003-16.511c-0.632-4.038-0.612-8.908,0-12.933
		c0.804-5.283,2.793-9.793,5.214-13.598c0.573-0.9,1.219-1.846,1.943-2.761c0.698-0.884,1.294-1.851,1.993-2.658
		C12.434,8.95,16.28,6.148,20.3,4.073c4.099-2.117,8.946-3.796,14.773-3.987C35.107,0.084,35.142,0.087,35.176,0.086z
		 M30.524,36.532c0.31,0.338,0.805,0.998,1.278,0.972c0.325-0.018,1.024-0.769,1.278-1.023c2.046-2.048,3.815-4.019,5.776-5.98
		c0.547-0.547,1.987-1.601,2.249-2.454c0.338-1.1,0.102-3.181,0.102-4.754c0-5.299,0.115-11.096-0.051-15.54
		c-0.029-0.772,0.219-1.985-0.102-2.505c-0.238-0.384-1.326-0.426-2.045-0.46c-1.752-0.084-2.765-0.217-3.885,0.205
		c-0.209,6.608-0.153,14.309-0.154,21.316c0,0.963,0.163,2.275-0.051,3.016c-0.167,0.575-0.839,1.056-1.278,1.533
		c-0.494,0.537-1.03,1.004-1.483,1.38c-0.804,1.088-2.009,1.774-2.607,3.067C29.713,35.794,30.122,36.094,30.524,36.532z
		 M29.297,5.709c-0.92,0.262-1.966,0.526-2.914,0.868c-0.968,0.35-1.966,0.661-2.556,1.278c-0.242,7.485-0.021,14.108-0.153,21.571
		c-1.046,1.371-2.792,2.764-4.089,4.192c-0.367,0.403-1.195,1.156-1.176,1.584c0.019,0.439,0.718,0.989,1.022,1.278
		c0.453,0.431,0.704,0.857,1.329,0.971c0.568-0.121,0.962-0.604,1.329-0.971c2.365-2.365,4.595-4.67,6.901-7.156
		c0.368-0.396,0.993-0.814,1.125-1.227c0.21-0.659,0.051-1.825,0.051-2.761c0-5.897,0.051-11.344,0.051-17.022
		c0-0.869,0.183-1.856-0.255-2.606C29.718,5.627,29.442,5.667,29.297,5.709z M49.233,7.139c-1.097-0.447-2.457-1.103-3.374-0.971
		c-0.42,0.27-0.202,1.495-0.204,2.146c-0.021,6.687-0.14,14.474-0.103,21.061c-0.666,1.072-1.715,1.762-2.505,2.71
		c-0.443,0.432-0.777,0.785-1.278,1.328c-0.301,0.327-1.183,0.965-1.175,1.483c0.006,0.472,0.655,1.012,0.971,1.328
		c0.329,0.328,0.761,1.038,1.329,1.022c0.339-0.009,0.987-0.651,1.278-0.971c2.54-2.79,5.575-5.515,7.77-8.281
		c0.04-6.413,0.153-13.229,0-19.374C51.329,8.021,50.271,7.563,49.233,7.139z M18.562,10.564c-1.034,0.547-2.072,1.475-3.016,2.352
		c-1.934,1.797-3.538,3.532-5.112,5.623c-0.767,1.02-1.586,2.176-2.096,3.322c-1.402,3.157-3.026,6.571-3.425,10.479
		c0.62,1.022,1.405,1.763,2.3,2.658c0.372,0.372,0.709,0.819,1.176,1.329c0.313,0.344,0.974,1.088,1.431,1.073
		c0.389-0.012,0.915-0.659,1.278-1.022c2.02-2.02,3.764-3.89,5.674-5.878c0.534-0.557,2.023-1.672,2.249-2.402
		c0.17-0.547,0.051-1.429,0.051-2.198c0-4.769,0.051-8.921,0.051-13.393c0-0.661,0.207-1.495-0.307-1.993
		C18.683,10.524,18.647,10.519,18.562,10.564z M51.329,34.948c0.014,0.451,0.705,1.018,0.972,1.329
		c0.345,0.403,0.842,0.994,1.329,0.971c0.395-0.019,0.916-0.659,1.33-1.073c2.157-2.157,3.916-3.968,5.98-6.032
		c0.657-0.656,2.027-1.766,2.3-2.556c0.185-0.534,0.143-1.328,0.154-2.096c0.023-1.628,0-3.279,0-4.805
		c0-0.729,0.12-1.667-0.052-2.352c-0.146-0.585-0.883-1.435-1.278-1.892c-1.051-1.216-1.887-2.144-3.118-3.221
		c-0.377-0.33-1.655-1.605-2.096-1.176c-0.214,3.957-0.153,8.687-0.153,12.831c0,1.269,0.264,3.248-0.102,4.294
		c-0.274,0.782-1.395,1.597-1.994,2.146c-0.736,0.677-1.397,1.347-1.993,2.148C52.235,34.079,51.305,34.131,51.329,34.948z
		 M67.482,26.667c-0.133,0.77,0.027,1.833-0.103,2.607c-0.711,1.043-1.82,1.688-2.556,2.709c-0.439,0.425-0.865,0.878-1.278,1.329
		c-0.411,0.449-0.946,0.879-1.124,1.533c0.77,1.566,2.244,2.425,3.322,3.681c0.561,0.598,1.136,1.183,1.738,1.737
		c0.614,0.562,1.003,1.35,1.942,1.586c0.48-0.414,0.366-1.19,0.409-1.841c0.297-4.561-0.377-8.443-1.38-11.962
		c-0.159-0.556-0.443-1.518-0.818-1.533C67.562,26.542,67.511,26.592,67.482,26.667z M53.476,66.539
		c0.534-0.274,1.053-0.63,1.584-0.972c0.636-0.407,2.568-1.488,2.812-2.249c0.291-0.91,0.051-2.706,0.052-3.782
		c0-3.969,0.041-7.898-0.052-11.604c-0.583-0.974-1.438-1.777-2.249-2.556c-2.065-1.983-4.099-4.047-6.032-6.083
		c-0.387-0.407-0.779-0.971-1.432-1.022c-0.383,0.109-2.096,1.742-2.096,2.198c0,0.515,0.938,1.193,1.329,1.585
		c1.141,1.141,1.82,1.782,2.863,2.965c0.441,0.5,1.181,1.056,1.329,1.584c0.173,0.619,0.029,1.55,0,2.403
		c-0.118,3.394,0.018,6.696,0.051,9.764c0.004,0.339-0.109,0.658-0.102,0.971c0.01,0.43,0.153,0.861,0.153,1.329
		c0,1.58-0.111,3.323-0.153,4.856c-0.012,0.449-0.076,1.002,0.255,1.329C52.407,67.222,52.94,66.815,53.476,66.539z M43.713,70.423
		c0.917-0.194,2.532-0.4,2.964-1.022c0.287-0.412,0.205-1.542,0.205-2.505c0.001-5.274,0.102-10.634,0.102-16.051
		c0-0.938,0.132-2.002-0.051-2.658c-0.269-0.967-1.815-1.891-2.352-2.505c-1.633-1.807-3.658-3.682-5.521-5.521
		c-0.567-0.56-1.208-1.57-1.994-1.688c-0.449-0.067-2.163,1.785-2.147,2.199c0.017,0.429,0.805,1.093,1.227,1.481
		c1.09,1.007,1.726,1.829,2.709,2.812c0.477,0.477,1.136,0.932,1.278,1.482c0.27,1.052,0,2.58,0,3.886
		c-0.001,5.587,0.051,10.785,0.051,16.153c0,1.496-0.123,3.006,0.153,4.242C41.402,70.966,42.531,70.673,43.713,70.423z
		 M25.003,66.283c-0.042-5.976,0.142-12.086,0.051-18.045c-0.627-1.009-1.619-1.652-2.403-2.504
		c-1.631-1.809-3.669-3.67-5.521-5.521c-0.516-0.516-1.32-1.639-2.044-1.686c-0.381-0.025-2.06,1.858-2.044,2.198
		c0.02,0.454,0.994,1.193,1.329,1.533c1.076,1.091,1.84,1.902,2.914,2.914c0.427,0.401,1.235,1.114,1.329,1.584
		c0.131,0.658,0,1.508,0,2.301c0,5.503-0.136,10.922,0,16.153c0.728,0.875,1.829,1.432,2.862,1.993
		c1.02,0.556,2.095,1.311,3.374,1.381C25.128,67.862,25.009,67.06,25.003,66.283z M26.639,43.74c0.355,0.354,0.869,0.818,1.38,1.329
		c0.354,0.354,1.127,0.997,1.227,1.482c0.163,0.791,0,1.961,0,2.965c0,6.069-0.051,11.637-0.051,17.687
		c0,0.983-0.134,2.456,0.154,2.863c0.393,0.557,2.265,0.631,3.067,0.716c0.908,0.096,2.772,0.579,3.271,0.101
		c0.306-0.293,0.256-1.754,0.256-2.658c0-6.132,0-11.691,0-17.533c0-1.028,0.192-2.171,0-2.862c-0.121-0.435-0.648-0.929-1.022-1.33
		c-1.175-1.26-2.55-2.345-3.629-3.476c-0.912-0.922-2.378-2.46-3.527-3.526c-0.442-0.411-0.887-1.002-1.431-0.972
		c-0.444,0.024-0.95,0.789-1.329,1.176c-0.378,0.386-0.854,0.771-0.92,1.227C24.868,42.123,25.652,42.754,26.639,43.74z
		 M56.799,40.519c0.015,0.523,0.882,1.138,1.278,1.534c1.062,1.062,1.808,1.808,2.812,2.812c0.394,0.394,1.184,1.061,1.277,1.533
		c0.155,0.778,0,1.725,0,2.556c0,2.622,0.052,4.516,0.052,7.105c-0.001,0.784-0.127,1.681,0.255,2.403
		c0.509,0.037,0.757-0.521,1.022-0.869c0.287-0.376,0.625-0.778,0.869-1.176c1.312-2.144,2.562-4.201,3.425-6.799
		c0.172-0.518,0.503-1.2,0.46-1.585c-0.044-0.403-0.647-0.921-1.022-1.329c-1.977-2.15-3.988-3.938-5.98-5.93
		c-0.71-0.709-1.744-2.017-2.607-2.249C58.179,38.901,56.778,39.797,56.799,40.519z M4.607,38.782
		c-0.259,0.837-0.008,2.55,0.153,3.578c1.081,6.903,3.444,12.284,6.952,16.562c0.559,0.682,1.152,1.55,2.044,1.789
		c0.273-0.969,0.154-2.029,0.153-3.118c0-2.17,0-4.362,0-6.544c0-0.991,0.186-2.401-0.051-3.22
		c-0.112-0.387-0.637-0.812-1.023-1.228c-1.93-2.077-3.727-3.789-5.674-5.725c-0.697-0.693-1.7-1.963-2.402-2.198
		C4.7,38.704,4.645,38.734,4.607,38.782z"/>
</g>
<g id="Layer_1">
</g>
</svg>
