<?xml version="1.0" encoding="iso-8859-1"?>
<!-- Generator: Adobe Illustrator 21.0.2, SVG Export Plug-In . SVG Version: 6.00 Build 0)  -->
<svg version="1.1" xmlns="http://www.w3.org/2000/svg" xmlns:xlink="http://www.w3.org/1999/xlink" x="0px" y="0px"
	 viewBox="0 0 15.384 10.782" style="enable-background:new 0 0 15.384 10.782;" xml:space="preserve">
<g id="Dialogue_x5F_Communications">
	<path d="M0.058,0.004c1.29,0.003,2.58,0.001,3.869,0.001c1.184-0.016,2.37,0.371,3.32,1.079c0.155,0.113,0.307,0.232,0.438,0.373
		c0.951-0.885,2.231-1.407,3.528-1.451C12.584,0,13.956,0.013,15.327,0c-0.001,0.084-0.001,0.167,0,0.25
		c-1.384-0.001-2.769,0-4.153,0C9.966,0.318,8.771,0.792,7.885,1.621C8.182,1.948,8.47,2.287,8.693,2.67
		c0.586-0.544,1.331-0.924,2.126-1.035c0.157-0.038,0.32-0.021,0.48-0.043c1.342-0.011,2.685,0.009,4.027-0.01
		c-0.001,0.084,0,0.168,0.001,0.253c-1.36,0.001-2.719,0.001-4.079,0c-0.899,0.054-1.809,0.412-2.42,1.089
		C9.105,3.42,9.283,3.97,9.373,4.531c0.292-0.685,0.955-1.188,1.69-1.297c0.137-0.009,0.274-0.038,0.412-0.039
		c1.284,0.001,2.568,0.001,3.852,0c-0.001,0.088-0.001,0.176,0,0.264c-1.359-0.002-2.719-0.002-4.078,0
		c-0.488,0.044-0.961,0.27-1.292,0.633C9.628,4.437,9.452,4.909,9.438,5.383c0.013,0.394,0.135,0.785,0.367,1.106
		c0.336,0.478,0.901,0.777,1.48,0.819c1.347,0.002,2.695,0,4.042,0.001c-0.001,0.084-0.002,0.168-0.001,0.253
		c-1.107-0.017-2.214-0.003-3.321-0.007c-0.375-0.009-0.756,0.032-1.124-0.06c-0.33-0.083-0.648-0.233-0.905-0.458
		c-0.149-0.153-0.321-0.291-0.43-0.478C9.479,6.457,9.431,6.346,9.373,6.241C9.293,6.808,9.1,7.361,8.834,7.868
		c0.697,0.703,1.694,1.085,2.681,1.061c1.271-0.001,2.542,0.001,3.812-0.001c-0.001,0.078-0.001,0.155,0,0.234
		c-1.41-0.003-2.819,0-4.229-0.002c-0.66-0.044-1.301-0.276-1.856-0.635C9.049,8.399,8.878,8.244,8.699,8.1
		C8.477,8.49,8.193,8.841,7.88,9.16c0.737,0.699,1.701,1.144,2.7,1.312c0.271,0.049,0.546,0.053,0.82,0.079
		c1.309,0.002,2.618,0.002,3.927,0c-0.001,0.077-0.001,0.154,0,0.231c-1.385-0.002-2.769-0.001-4.153-0.001
		c-1.28-0.054-2.534-0.574-3.479-1.439c-0.944,0.859-2.188,1.38-3.464,1.44c-1.392-0.003-2.783,0.001-4.175-0.003
		c0.003-0.074,0.003-0.149-0.001-0.223c1.127-0.008,2.255-0.002,3.382-0.004c0.57,0.007,1.146-0.017,1.703-0.147
		c0.742-0.169,1.445-0.502,2.047-0.968c0.12-0.076,0.205-0.195,0.33-0.264c-0.335-0.323-0.61-0.705-0.855-1.1
		C5.986,8.758,5.038,9.155,4.08,9.196C2.721,9.194,1.362,9.197,0.003,9.194c0-0.085,0-0.169-0.002-0.253
		C0.97,8.962,1.94,8.944,2.909,8.95c0.479-0.007,0.959,0.019,1.437-0.023C5.171,8.829,5.964,8.444,6.54,7.844
		C6.329,7.451,6.179,7.028,6.074,6.595C6.044,6.49,6.047,6.377,6.001,6.276c-0.309,0.732-1.057,1.24-1.845,1.298
		c-1.367,0-2.734,0.002-4.1-0.002c0.003-0.075,0.002-0.15-0.002-0.225c1.305-0.008,2.609,0,3.914-0.004
		C4.308,7.325,4.649,7.251,4.947,7.08C5.412,6.817,5.77,6.36,5.889,5.836c0.061-0.209,0.038-0.43,0.039-0.644
		C5.862,4.66,5.569,4.153,5.125,3.848C4.79,3.606,4.377,3.48,3.965,3.477c-1.303,0-2.605,0-3.907,0c0.001-0.082,0-0.163-0.004-0.245
		c1.316-0.002,2.633,0,3.95-0.002c0.84,0.002,1.662,0.527,1.994,1.303c0.115-0.543,0.26-1.09,0.542-1.573
		C5.909,2.332,5.052,1.918,4.156,1.872c-1.385,0-2.77,0.001-4.154,0c0-0.087,0.001-0.175,0-0.263c1.347,0.003,2.694,0,4.04,0.001
		C4.4,1.64,4.759,1.682,5.102,1.796C5.685,1.98,6.225,2.303,6.661,2.732c0.231-0.408,0.517-0.786,0.857-1.109
		C6.6,0.795,5.392,0.293,4.155,0.25c-1.367,0-2.733,0-4.1,0C0.059,0.168,0.059,0.086,0.058,0.004z M6.839,2.915
		c0.369,0.436,0.678,0.943,0.805,1.506c0.04-0.069,0.061-0.145,0.084-0.22c0.159-0.498,0.447-0.943,0.778-1.343
		C8.285,2.465,8.002,2.112,7.689,1.792C7.361,2.13,7.075,2.507,6.839,2.915z M7.815,5.799C7.888,6.489,8.196,7.145,8.646,7.67
		c0.734-1.402,0.732-3.169-0.01-4.568C8.012,3.838,7.677,4.837,7.815,5.799z M6.702,3.152C6.476,3.672,6.286,4.214,6.229,4.78
		c-0.133,0.978,0.058,1.988,0.49,2.873c0.297-0.374,0.542-0.796,0.674-1.258C7.727,5.289,7.463,4.023,6.702,3.152z M7.646,6.423
		C7.496,6.964,7.213,7.464,6.846,7.887c0.236,0.402,0.517,0.777,0.847,1.106c0.321-0.32,0.598-0.685,0.826-1.078
		C8.142,7.472,7.814,6.963,7.686,6.388C7.676,6.397,7.656,6.415,7.646,6.423z"/>
	<path d="M1.495,3.859c0.48-0.035,0.965,0.164,1.292,0.516c0.241,0.292,0.411,0.662,0.389,1.048c0.026,0.615-0.4,1.187-0.954,1.423
		C1.631,7.103,0.885,6.964,0.444,6.49c-0.506-0.487-0.591-1.336-0.195-1.916C0.518,4.156,0.998,3.88,1.495,3.859z"/>
	<path d="M13.685,3.858c0.425-0.027,0.862,0.115,1.179,0.402c0.288,0.259,0.485,0.623,0.512,1.012
		c0.053,0.47-0.142,0.945-0.476,1.272c-0.194,0.158-0.408,0.302-0.653,0.366c-0.448,0.13-0.953,0.059-1.343-0.2
		c-0.447-0.279-0.708-0.805-0.711-1.327c0.02-0.273,0.092-0.545,0.24-0.778C12.702,4.178,13.176,3.881,13.685,3.858z"/>
</g>
<g id="Layer_1">
</g>
</svg>
