<?xml version="1.0" encoding="iso-8859-1"?>
<!-- Generator: Adobe Illustrator 19.2.0, SVG Export Plug-In . SVG Version: 6.00 Build 0)  -->
<svg version="1.1" xmlns="http://www.w3.org/2000/svg" xmlns:xlink="http://www.w3.org/1999/xlink" x="0px" y="0px"
	 viewBox="0 0 57.843 75.844" style="enable-background:new 0 0 57.843 75.844;" xml:space="preserve">
<g id="Diamti_x5F_France">
	<path style="fill-rule:evenodd;clip-rule:evenodd;" d="M9.182,12.247c1.726-0.224,3.774-0.047,5.645,0
		c0.022,0.045,0.045,0.09,0.102,0.101c0.137,3.774,0.101,7.898,0.101,12.097c0,4.108-0.125,8.313,0.05,12.298
		c0.193,4.382,0.051,7.736,0.051,12.147c0,2.745-0.125,6.259,0.051,9.123c0.065,1.072,0.496,1.952,1.461,1.865
		c1.729-0.156,1.493-2.037,1.513-3.881c0.08-7.592-0.15-14.74-0.151-22.126c0-3.957-0.195-8.753-0.101-12.802
		c0.022-0.968-0.087-2.023-0.051-3.075c0.036-1.034,0.101-2.095,0.051-3.175c-0.103-2.205-0.09-4.152-0.857-5.544
		c-0.755-1.37-2.016-2.559-3.73-2.974c-1.961-0.475-3.733,0.136-5.191,1.21c-1.077,1.07-1.917,2.331-2.117,4.183
		c-0.203,1.887-0.05,4.143-0.05,6.2c0,12.393,0.202,24.479,0.201,36.592c0,2.226-0.171,4.416,0.102,6.199
		c0.77,5.047,4.069,8.819,9.576,9.173c2.094,0.135,4.069,0.117,5.997,0.202c0.927,0.041,1.88-0.181,2.824-0.303
		c4.621-0.594,8.352-1.852,11.742-3.881c2.668-1.596,4.957-3.349,7.057-5.494c3.086-3.152,5.389-7.023,7.107-11.693
		c0.275-0.751,0.432-1.607,0.705-2.419c0.783-2.328,0.906-5.408,0.908-8.467c0-1.993-0.266-3.794-0.606-5.645
		c-1.258-6.833-4.574-12.286-8.67-16.381c-3.648-3.648-8.074-6.563-13.961-7.963c-0.807-0.192-1.66-0.306-2.469-0.655
		c0.014-1.897-0.279-4.234,0.051-5.947c2.838,0.206,5.488,0.967,7.861,1.915c4.703,1.878,8.709,4.375,11.996,7.661
		c0.848,0.848,1.639,1.664,2.42,2.52c0.781,0.858,1.418,1.797,2.117,2.772c1.358,1.895,2.619,3.939,3.578,6.3
		c0.945,2.332,2.115,4.619,2.469,7.359c0.363,2.826,1.01,5.718,0.857,8.871c-0.076,1.577-0.121,3.049-0.303,4.536
		c-0.521,4.262-1.521,8.171-3.125,11.643c-1.029,2.229-2.32,4.393-3.68,6.149c-2.906,3.754-6.16,6.854-10.231,9.425
		c-3.891,2.456-8.834,4.382-14.566,5.141c-2.971,0.394-6.427,0.402-9.577,0.252c-3.108-0.148-5.661-0.781-7.863-1.966
		c-4.902-2.879-8.215-7.509-8.215-15.423c-0.001-5.674-0.051-11.514-0.051-17.439c0-0.949-0.006-1.883-0.051-2.823
		c-0.043-0.927,0.054-1.854,0.051-2.772C0.202,31.808,0.11,28.027,0.11,24.193c0-3.872,0.058-7.818-0.101-11.593
		c-0.151-3.59,1.523-6.748,3.125-8.669C3.996,2.897,5.222,2.035,6.461,1.36c2.264-1.233,5.841-1.872,8.921-0.856
		c3.328,1.097,5.867,3.602,7.258,6.653c0.511,1.122,0.867,2.3,1.009,3.679c0.139,1.354,0.1,2.823,0.1,4.334
		c0,9.068-0.1,18.335,0.051,27.318c0.068,4.047,0.049,9.103,0.051,13.659c0,1.631,0.088,3.06-0.252,4.284
		c-0.701,2.523-2.303,4.066-4.385,4.939c-2.627,1.101-5.257,0.472-7.057-1.008c-1.704-1.401-2.807-3.23-2.924-6.351
		c-0.025-0.693,0.113-1.411,0.051-2.167c-0.174-2.116-0.051-4.694-0.051-6.905c0-3.038-0.05-6.109-0.05-9.173
		C9.182,30.757,9.009,21.339,9.182,12.247z"/>
</g>
<g id="Layer_1">
</g>
</svg>
