<?xml version="1.0" encoding="iso-8859-1"?>
<!-- Generator: Adobe Illustrator 19.2.0, SVG Export Plug-In . SVG Version: 6.00 Build 0)  -->
<svg version="1.1" xmlns="http://www.w3.org/2000/svg" xmlns:xlink="http://www.w3.org/1999/xlink" x="0px" y="0px"
	 viewBox="0 0 77.851 79.159" style="enable-background:new 0 0 77.851 79.159;" xml:space="preserve">
<g id="Diffusion_x5F_Industrielle_x5F_a_x5F_Ceramique">
	<path style="fill-rule:evenodd;clip-rule:evenodd;" d="M22.596,13.376c0.257-0.973,0.148-2.061,0.148-3.143
		c0-3.193-0.071-6.704,0.099-9.775c0.811-0.28,1.685-0.099,2.555-0.099c5.409,0.001,10.789-0.074,16.357,0.049
		c0.869,0.02,1.827-0.108,2.554,0.05c0.565,0.121,1.336,1.152,1.77,1.62c1.15,1.248,2.139,2.14,3.389,3.39
		c0.407,0.408,1.222,1.604,1.72,1.621c0.445,0.017,1.209-0.949,1.571-1.277c1.476-1.333,3.169-2.512,5.011-3.389
		c1.797-0.855,3.934-1.622,6.484-1.965c0.768-0.104,1.855-0.299,2.652-0.148c0.471,0.089,1.048,0.899,1.475,1.326
		c2.786,2.786,5.398,5.633,8.104,8.449c0.404,0.421,1.161,1.152,1.277,1.571c0.155,0.56,0.068,1.361,0.049,2.162
		c-0.11,4.608-0.049,10.081-0.049,14.491c0,2.776,0,5.665,0,8.547c0,2.9-0.129,5.777,0,8.548c0.263,5.654-0.206,11.375-0.049,16.996
		c0.039,1.402-0.001,2.805,0,4.225c0,2.798-0.001,5.608,0,8.449c0,1.36,0.104,2.745-0.147,4.077
		c-4.237,0.109-7.677-1.055-10.513-2.604c-2.904-1.587-5.044-3.87-7.221-6.092c-1.055-1.152-2.153-2.236-3.242-3.389
		c-0.346-0.366-0.723-0.817-1.227-0.982c-0.274,0.447-0.128,1.014-0.149,1.522c-0.143,3.585,0.086,7.885-0.146,11.445
		c-7.131,0.271-14.381-0.097-21.81,0c0.009-0.041-0.02-0.046-0.05-0.049c-0.717-0.387-1.211-1.063-1.769-1.621
		c-1.108-1.109-2.255-2.206-3.389-3.34c-0.55-0.55-1.066-1.186-1.769-1.572c-1.017,0.734-2.024,1.575-3.144,2.407
		c-1.039,0.771-2.204,1.425-3.439,2.062c-2.448,1.266-5.598,2.307-8.989,1.966c-0.504-0.051-1.075-0.986-1.474-1.425
		c-1.334-1.47-2.754-2.778-3.979-4.274C3.471,71.308,1.647,69.448,0,67.411c0.024-11.427,0-22.49,0-33.846
		c-0.001-10.618,0.049-20.72,0.049-31.537c0-0.645-0.112-1.346,0.147-1.965C2.079-0.201,4.662,0.419,6.19,0.85
		c5.209,1.471,8.669,4.904,11.838,8.204c1.141,1.08,2.214,2.213,3.341,3.34C21.728,12.753,22.058,13.244,22.596,13.376z
		 M18.912,13.131c-0.987-2.299-2.396-4.292-3.931-5.944C11.836,3.795,7.38,1.452,1.62,0.801c-0.147,0-0.295,0-0.441,0
		C1.12,0.824,1.066,0.853,1.031,0.899C0.757,1.165,0.916,2.673,0.884,3.355c-0.117,2.456-0.05,5.073-0.05,7.467
		c0.001,3.553-0.08,7.005,0.099,10.218c0.726,0.263,1.527,0.148,2.309,0.148c5.69,0.001,11.788,0.22,17.291,0
		C20.623,18.129,19.902,15.437,18.912,13.131z M23.873,1.145c-0.058,0.023-0.111,0.053-0.148,0.098
		c-0.243,0.254-0.147,1.713-0.147,2.407c0,5.925-0.147,12.209,0.049,17.537c0.745,0.257,1.562,0.147,2.358,0.147
		c5.012,0,10.07,0.049,15.081,0.049c0.807,0,1.652,0.118,2.406-0.148c0.18-6.375,0.226-13.128,0.05-19.894
		C36.987,1.031,30.272,1.247,23.873,1.145z M65.038,1.193c-3.392,0.318-6.16,1.41-8.548,2.85c-1.941,1.17-3.486,2.591-4.912,4.175
		c-2.938,3.265-4.949,7.645-5.06,13.066c0.741,0.258,1.578,0.149,2.358,0.149c5.013-0.001,9.997,0.099,14.933,0.098
		c0.793,0,1.621,0.109,2.358-0.147c0.204-4.387,0.081-9.129,0.098-13.705c0.009-2.173,0.208-4.398-0.098-6.436
		C65.824,1.041,65.37,1.162,65.038,1.193z M1.031,23.986c-0.336,0.403-0.197,1.026-0.197,1.523
		c0.001,6.188-0.169,12.159,0.05,18.322c6.578,0.161,13.135,0.274,19.698,0.099c0.231-6.241,0.199-13.272,0.049-19.797
		C14.353,23.894,7.325,23.885,1.031,23.986z M38.757,24.085c-5.007-0.236-10.093,0.194-14.884-0.05
		c-0.058,0.024-0.111,0.053-0.148,0.099c-0.311,0.198-0.196,1.67-0.196,2.407c0,4.416,0.04,8.539,0,12.674
		c-0.017,1.666-0.191,3.282,0.098,4.765c6.635,0.145,13.371,0.214,19.797,0.049c0.247-6.197,0.201-13.391,0.049-19.747
		C41.972,23.98,40.359,24.16,38.757,24.085z M56.589,24.233c-3.269-0.001-6.602-0.102-9.874-0.05
		c-0.058,0.024-0.111,0.053-0.148,0.099c-0.243,0.254-0.146,1.677-0.146,2.357c0,5.736-0.184,11.971,0.049,17.39
		c0.733,0.266,1.568,0.147,2.357,0.147c4.237,0,8.516,0.06,12.625,0.099c1.627,0.016,3.212,0.059,4.667-0.148
		c0.263-3.234,0.129-6.762,0.196-10.07c0.032-1.615,0.023-3.269,0-4.863c-0.025-1.647,0.107-3.281-0.148-4.813
		C63.11,24.15,59.877,24.233,56.589,24.233z M10.954,46.436c-3.213-0.063-6.973-0.01-9.923,0c-0.346,0.703-0.197,1.556-0.197,2.357
		c0.001,5.941-0.087,12.126,0.099,17.734c2.349,0.072,4.58-0.474,6.533-1.229c3.906-1.511,6.753-3.792,9.137-6.828
		c1.168-1.486,2.291-3.3,2.85-5.158c0.616-2.048,1.241-4.242,1.08-6.681C17.493,46.377,14.239,46.5,10.954,46.436z M47.01,46.632
		c-0.1,0.001-0.262,0.033-0.344,0.05c-0.37,0.075-0.229,0.996-0.147,1.719c0.882,7.803,5.317,13.089,10.905,16.112
		c2.349,1.271,5.256,2.515,8.646,2.309c0.209-5.518,0.147-11.668,0.147-17.536c0-0.828,0.111-1.683-0.147-2.456
		C59.802,46.716,52.998,46.614,47.01,46.632z M38.659,46.878c-4.938,0-9.749-0.07-14.835-0.049
		c-0.059,0.023-0.111,0.052-0.147,0.098c-0.254,0.271-0.144,1.604-0.147,2.309c-0.026,5.537-0.163,12.063,0.049,17.439
		c1.582,0.235,3.244,0.147,4.912,0.147c5.113,0,10.146,0.103,14.885-0.049c0.257-0.745,0.147-1.554,0.147-2.357
		c0-5.913,0.117-12.031-0.099-17.39C41.871,46.752,40.264,46.878,38.659,46.878z"/>
</g>
<g id="Layer_1">
</g>
</svg>
