<?xml version="1.0" encoding="iso-8859-1"?>
<!-- Generator: Adobe Illustrator 21.0.2, SVG Export Plug-In . SVG Version: 6.00 Build 0)  -->
<svg version="1.1" xmlns="http://www.w3.org/2000/svg" xmlns:xlink="http://www.w3.org/1999/xlink" x="0px" y="0px"
	 viewBox="0 0 11.078 10.938" style="enable-background:new 0 0 11.078 10.938;" xml:space="preserve">
<g id="Dipresa">
	<path d="M0.001,0.002c1.242,0.009,2.484,0,3.726,0.005C3.721,0.812,3.726,1.617,3.725,2.423c0.494-0.004,0.991,0.012,1.485-0.008
		c0.404-0.385,0.79-0.789,1.189-1.18C5.9,1.266,5.399,1.232,4.901,1.254c0.001-0.418,0-0.836,0-1.254
		c1.237,0.01,2.475,0.006,3.712,0.002C8.605,0.809,8.612,1.617,8.609,2.424c0.823,0,1.646-0.001,2.468,0.001
		c-0.004,1.225,0.001,2.45-0.003,3.675c-0.423-0.001-0.847,0.002-1.27-0.001c0-0.522-0.006-1.044,0.004-1.566
		C9.407,4.928,9.013,5.331,8.61,5.724c0,0.512-0.002,1.025,0.001,1.538c0.818-0.002,1.636-0.001,2.455,0
		c-0.013,1.225-0.002,2.451-0.005,3.676c-0.419,0-0.838,0-1.257,0c-0.001-0.52,0.001-1.04-0.001-1.56
		C9.622,9.545,9.461,9.733,9.265,9.884c-0.183,0.172-0.355,0.355-0.537,0.528c-0.203,0.153-0.37,0.347-0.551,0.524
		c-1.092,0.003-2.184,0.001-3.276,0.001c0-0.52,0-1.04-0.001-1.56c-0.518,0.521-1.039,1.04-1.558,1.56
		C2.229,10.938,1.114,10.937,0,10.937c0-1.124,0-2.249,0-3.373c0.428-0.426,0.857-0.849,1.283-1.277
		C1.357,6.225,1.438,6.17,1.501,6.096c-0.5,0.005-0.999,0.006-1.499,0.002c-0.005-1.155,0-2.311-0.002-3.467
		c0.469-0.463,0.932-0.932,1.4-1.396C0.935,1.264,0.467,1.238,0,1.248C0.001,0.832,0,0.417,0.001,0.002z M1.258,3.404
		c0,0.48,0,0.959,0,1.439c0.5,0,1.001,0,1.501,0C3.153,4.443,3.551,4.049,3.95,3.655C3.451,3.681,2.951,3.656,2.451,3.668
		c0.004-0.484-0.005-0.969,0.005-1.453C2.055,2.609,1.662,3.012,1.258,3.404z M7.007,2.563c-0.281,0.281-0.561,0.564-0.848,0.84
		c0.003,0.48,0.002,0.959,0,1.438c0.49,0.001,0.98,0,1.469,0C7.742,4.725,7.857,4.61,7.975,4.498C8.26,4.221,8.53,3.926,8.83,3.666
		c-0.493,0.006-0.987-0.013-1.479,0.01c0.001-0.485,0.001-0.97,0.001-1.456C7.267,2.364,7.116,2.442,7.007,2.563z M3.709,5.822
		c0,0.479,0.001,0.959,0,1.439c0.49,0,0.981-0.001,1.471,0C5.373,7.063,5.571,6.87,5.765,6.673C5.984,6.5,6.17,6.29,6.369,6.096
		C5.88,6.104,5.391,6.097,4.902,6.099c-0.001-0.488,0-0.976-0.001-1.464C4.502,5.029,4.109,5.43,3.709,5.822z M1.258,8.241
		c0,0.48,0.001,0.959,0,1.439c0.49-0.001,0.979,0,1.469-0.001C3.118,9.288,3.506,8.891,3.91,8.512
		c-0.486,0.014-0.973,0.002-1.46,0.006C2.449,8.03,2.452,7.543,2.45,7.056C2.049,7.448,1.658,7.848,1.258,8.241z M6.815,7.594
		C6.597,7.811,6.379,8.028,6.159,8.242C6.163,8.722,6.161,9.201,6.16,9.68c0.5-0.002,1,0,1.5-0.001
		c0.382-0.393,0.779-0.773,1.162-1.166c-0.49,0.009-0.98,0.001-1.47,0.004c-0.001-0.486,0.001-0.973,0-1.459
		C7.193,7.256,7.005,7.429,6.815,7.594z"/>
</g>
<g id="Layer_1">
</g>
</svg>
