<?xml version="1.0" encoding="iso-8859-1"?>
<!-- Generator: Adobe Illustrator 19.2.0, SVG Export Plug-In . SVG Version: 6.00 Build 0)  -->
<svg version="1.1" xmlns="http://www.w3.org/2000/svg" xmlns:xlink="http://www.w3.org/1999/xlink" x="0px" y="0px"
	 viewBox="0 0 60.188 76.767" style="enable-background:new 0 0 60.188 76.767;" xml:space="preserve">
<g id="Dismero_x5F_textiles">
	<path style="fill-rule:evenodd;clip-rule:evenodd;" d="M34.699,23.449c-1.014,0.24-2.948,0.234-3.963,0
		c-0.374-0.797-0.142-1.713-0.145-2.609c-0.019-5.086,0-11.262,0-16.865c0-0.951-0.102-2.064,0.145-2.658
		c0.254-0.613,1.028-1.236,1.74-1.307c1.072-0.103,1.985,0.66,2.271,1.307c0.285,0.641,0.143,1.709,0.145,2.609
		c0.009,4.846,0,10.019,0,15.416C34.893,20.765,35.042,22.183,34.699,23.449z"/>
	<path style="fill-rule:evenodd;clip-rule:evenodd;" d="M39.58,32.148c-0.457-1.145-0.193-2.48-0.193-3.77
		c0-3.939,0.08-8.076,0-11.84c-0.055-2.594,0.11-5.234,0.048-7.83c-0.062-2.578-0.141-5.166,0.241-7.588
		c0.645-1.375,3.081-1.291,3.722,0.34c0.321,0.816,0.145,2.367,0.145,3.721c0.001,6.533-0.001,13.129,0,19.381
		c0,1.186,0.063,2.523,0,3.963c-0.045,1.021,0.127,3.23-0.29,3.623C42.7,32.674,40.124,32.363,39.58,32.148z"/>
	<path style="fill-rule:evenodd;clip-rule:evenodd;" d="M52.097,23.498c-0.483,0.242-1.296,0.145-2.029,0.145
		c-0.749,0-1.537,0.107-1.982-0.193c-0.257-0.85-0.145-1.781-0.145-2.705c0-5.322,0.05-10.988,0.049-16.48
		c0-0.951-0.131-2.016,0.097-2.707c0.318-0.965,1.474-1.869,2.899-1.354c0.457,0.166,1.079,0.795,1.257,1.305
		c0.239,0.689,0.066,1.809,0.048,2.707c-0.094,4.541,0,9.115,0,13.822c0,0.961,0,1.926,0,2.852
		C52.291,21.789,52.431,22.716,52.097,23.498z"/>
	<path style="fill-rule:evenodd;clip-rule:evenodd;" d="M8.649,63.515c2.662,3.525,6.183,6.178,10.73,7.588
		c2.397,0.742,5.258,1.246,7.974,1.014c2.686-0.229,5.204-0.734,7.395-1.74c4.576-2.098,7.404-4.781,9.762-8.553
		c1.692-2.705,3.084-6.158,3.19-10.537c0.013-0.516,0.074-1.354,0.097-2.174c0.024-0.926-0.123-1.609,0.241-1.934
		c0.334-0.297,1.322-0.193,2.03-0.193c0.601,0,1.711-0.094,2.029,0.193c0.38,0.342,0.252,1.34,0.193,2.127
		c-0.067,0.918-0.023,1.705-0.048,2.416c-0.165,4.775-1.695,8.355-3.335,11.6c-1.166,1.893-2.313,3.51-3.673,5.025
		c-1.376,1.535-3.063,2.672-4.688,4.012c-1.425,1.174-3.763,2.312-5.751,2.947c-2.246,0.719-4.669,1.225-7.298,1.402
		c-5.559,0.375-10.398-1.096-14.112-3.189c-3.659-2.062-6.782-4.918-9.086-8.266c-1.147-1.666-2.196-3.672-2.899-5.799
		c-0.353-1.066-0.564-2.32-0.822-3.527c-0.262-1.23-0.458-2.527-0.532-3.818c-0.313-5.504,0.971-10.42,3.045-14.258
		c2.97-5.494,7.712-9.787,14.064-12.033c2.114-0.748,4.646-1.377,7.298-1.547c3.358-0.215,6.956,0,10.584,0
		c0.967,0,2.777-0.195,3.189,0.242c0.34,0.359,0.193,1.383,0.193,2.127c0,0.736,0.142,1.838-0.242,2.174
		c-0.302,0.266-1.361,0.193-2.126,0.193c-3.818,0-7.491-0.049-11.212-0.049c-1.522,0-2.921,0.188-4.06,0.484
		c-7.136,1.863-12.113,6.478-14.789,12.711C5.065,44.31,4.389,46.763,4.3,49.595C4.115,55.478,5.958,59.648,8.649,63.515z"/>
	<path style="fill-rule:evenodd;clip-rule:evenodd;" d="M59.492,28.234c-0.495,0.318-0.96,0.705-1.643,0.773
		c-1.999,0.201-4.37-0.1-6.718,0c-1.091,0.045-2.187,0-3.238,0c-1.121,0-2.234,0.113-3.19-0.145
		c-0.345-0.336-0.242-1.439-0.242-2.416c0-1.145-0.107-1.977,0.725-2.127c0.899-0.162,2.269,0,3.48,0
		c2.085,0,4.736,0.029,6.814,0.049c1.343,0.012,2.728-0.178,3.576,0.338C60.11,25.345,60.563,27.146,59.492,28.234z"/>
	<path style="fill-rule:evenodd;clip-rule:evenodd;" d="M30.543,29.925c0.874-0.473,3.207-0.408,4.156-0.049
		c0.368,0.631,0.242,1.67,0.242,2.658c0,1.965,0,3.773,0,5.801c0,0.871,0.11,2.211-0.29,2.561c-0.342,0.301-1.418,0.219-2.03,0.193
		c-0.607-0.025-1.709,0.15-2.078-0.242c-0.336-0.355-0.211-1.932-0.193-2.609C30.423,35.361,30.143,32.422,30.543,29.925z"/>
	<path style="fill-rule:evenodd;clip-rule:evenodd;" d="M52.291,30.119c0.235,2.4,0.111,5.531,0.097,8.217
		c-0.004,0.836,0.122,2.189-0.241,2.561c-0.334,0.342-1.403,0.242-2.127,0.242c-0.683,0-1.683,0.131-2.029-0.291
		c-0.348-0.422-0.104-1.711-0.146-2.609c-0.121-2.682-0.051-5.561,0.097-8.168c0.167-0.09,0.236-0.279,0.435-0.338
		C49.592,29.759,51.649,29.357,52.291,30.119z"/>
	<path style="fill-rule:evenodd;clip-rule:evenodd;" d="M43.35,38.625c0.259,0.961,0.145,2.01,0.145,2.996
		c0,5.031,0.352,10.723-1.015,14.5c-0.406,1.121-0.935,2.164-1.498,3.141c-0.198,0.344-0.292,0.744-0.483,1.062
		c-0.686,1.146-1.7,2.088-2.658,2.998c-2.726,2.588-7.121,4.787-12.324,4.59c-3.567-0.133-6.312-1.152-8.699-2.609
		c-2.302-1.402-4.215-3.305-5.606-5.654c-1.486-2.51-2.562-5.266-2.562-8.748c0-7.137,3.273-11.834,7.685-14.885
		c2.766-1.912,6.093-3.039,10.777-2.947c0.727,0.014,1.792-0.096,2.127,0.24c0.252,0.254,0.296,1.418,0.29,2.078
		c-0.006,0.596-0.08,1.809-0.338,2.031c-0.367,0.316-1.359,0.193-2.03,0.193c-0.736,0-1.553-0.078-2.175-0.049
		c-1.384,0.064-2.703,0.424-3.625,0.773c-3.968,1.502-7.151,4.785-8.168,9.424c-0.54,2.463-0.22,5.254,0.725,7.49
		c1.642,3.887,4.809,7.211,9.666,7.975c5.831,0.918,9.883-1.379,12.614-4.494c1.705-2.164,2.948-4.549,2.948-8.797
		c0-2.824,0-5.705,0-8.699c0-0.871-0.122-2.359,0.242-2.658c0.361-0.295,1.491-0.121,1.981-0.145
		C42.093,38.398,42.881,38.394,43.35,38.625z"/>
	<path style="fill-rule:evenodd;clip-rule:evenodd;" d="M35.666,33.55c0.422-0.734,2.026-0.482,3.383-0.482
		c1.784,0,3.424,0.047,5.171,0.047c0.81,0,2.11-0.129,2.562,0.146c0.459,0.277,0.338,1.389,0.338,2.174
		c0,0.723,0.18,1.799-0.338,2.127c-0.51,0.322-3.204,0.094-4.108,0.096c-0.949,0.004-2.204,0-3.528,0
		c-1.061,0-2.917,0.195-3.335-0.289C35.128,36.578,35.785,34.693,35.666,33.55z"/>
	<path style="fill-rule:evenodd;clip-rule:evenodd;" d="M53.79,33.164c2.516-0.025,6.074-0.551,6.379,1.836
		c0.136,1.066-0.436,2.248-1.547,2.562c-1.42,0.4-3.476,0.016-5.122,0c-0.077-0.117-0.173-0.213-0.29-0.291
		c-0.185-1.031-0.101-2.562-0.049-3.672C53.33,33.414,53.458,33.187,53.79,33.164z"/>
	<path style="fill-rule:evenodd;clip-rule:evenodd;" d="M34.603,47.082c0.443,0.842,0.219,1.832,0.193,2.658
		c-0.09,2.879-0.824,4.967-2.223,6.525c-1.263,1.406-3.387,2.727-5.751,2.9c-2.596,0.189-4.928-0.811-6.428-2.176
		c-1.898-1.727-3.258-3.85-2.997-7.441c0.171-2.354,1.313-4.135,2.803-5.463c1.594-1.418,3.369-2.24,6.042-2.367
		c2.967-0.141,6.165,0.049,9.134,0.049c0.969,0,1.985-0.166,2.803,0.24c0.356,0.441,0.193,1.172,0.193,2.031
		c0,0.723,0.099,1.713-0.242,2.029c-0.478,0.443-2.532,0.193-3.334,0.193c-1.331,0-2.402,0-3.48,0c-2.157,0-5.45-0.324-6.959,0.338
		c-1.276,0.561-2.083,1.578-2.417,2.754c-0.858,3.035,1.981,5.938,5.171,5.123c1.471-0.375,2.81-1.67,3.093-3.285
		c0.139-0.797-0.227-3.642,0.338-4.109c0.33-0.271,1.374-0.145,2.03-0.145C33.352,46.937,34.079,46.845,34.603,47.082z"/>
	<path style="fill-rule:evenodd;clip-rule:evenodd;" d="M60.121,44.521c-0.257,0.666-0.679,1.338-1.306,1.596
		c-0.849,0.348-2.328,0.191-3.527,0.193c-2.465,0-4.74-0.002-7.347,0c-0.802,0-3.026,0.186-3.431-0.242
		c-0.329-0.348-0.193-1.467-0.193-2.078c0-0.764-0.115-1.641,0.242-1.982c0.442-0.424,3.667-0.266,4.398-0.289
		c1.474-0.047,3.319-0.037,5.268,0.049C57.051,41.89,60.474,41.261,60.121,44.521z"/>
</g>
<g id="Layer_1">
</g>
</svg>
