<?xml version="1.0" encoding="iso-8859-1"?>
<!-- Generator: Adobe Illustrator 21.0.2, SVG Export Plug-In . SVG Version: 6.00 Build 0)  -->
<svg version="1.1" xmlns="http://www.w3.org/2000/svg" xmlns:xlink="http://www.w3.org/1999/xlink" x="0px" y="0px"
	 viewBox="0 0 24.48 36.478" style="enable-background:new 0 0 24.48 36.478;" xml:space="preserve">
<g id="Distil_x5F_Studio">
	<path d="M19.93,0.008C20.788-0.003,21.648,0.002,22.506,0c0.008,5.311,0.074,10.619,0.067,15.931
		c-0.088,3.49-0.77,7.282-3.348,9.842c-2.491,2.471-6.216,2.989-9.57,2.803c-0.029-0.013-0.086-0.038-0.115-0.051l0.012,0.055
		c-2.383-0.204-4.784-0.901-6.71-2.363c-1.672-1.225-2.903-3.192-2.84-5.313c-0.01-2.368,1.619-4.421,3.556-5.621
		c5.042-2.854,11.632-2.313,16.419,0.809C19.975,10.731,19.99,5.369,19.93,0.008z M9.864,15.98c-2.31,0.19-4.74,0.918-6.354,2.666
		c-1.079,1.106-1.324,2.912-0.395,4.19c2.858-1.972,6.484-2.494,9.878-2.117c1.926,0.195,3.837,0.802,5.408,1.956
		c0.658-1.056,1.026-2.268,1.251-3.483C17.093,16.698,13.356,15.77,9.864,15.98z M5.136,24.643c1.759,0.991,3.806,1.414,5.815,1.358
		c1.952-0.01,4.008-0.292,5.656-1.416c-1.279-0.864-2.83-1.202-4.348-1.324C9.83,23.055,7.257,23.372,5.136,24.643z"/>
	<path d="M23.082,19.387c2.627,4.173,1.418,10.244-2.52,13.176c-3.672,2.856-8.649,3.845-13.171,2.878
		c-2.059-0.455-4.045-1.4-5.542-2.906c-1.936-1.809-2.412-4.954-1.026-7.229c0.561,0.703,1.198,1.345,1.93,1.872
		c-0.902,2.494,1.544,4.632,3.703,5.313c2.672,0.928,5.615,0.935,8.325,0.156c1.782-0.382,3.415-1.333,4.752-2.557
		c-0.119-0.979-0.431-1.921-0.754-2.848c0.677-0.534,1.257-1.176,1.788-1.855c0.332,0.729,0.545,1.502,0.745,2.276
		c0.675-1.362,0.824-2.944,0.586-4.432C22.434,22.002,22.87,20.718,23.082,19.387z"/>
	<path d="M20.313,33.881c0.653-0.701,1.446-1.258,2.097-1.963c0.036,1.168,0.141,2.342,0.001,3.507
		c-0.151,0.777-1.083,1.328-1.804,0.909C19.721,35.864,19.678,34.579,20.313,33.881z"/>
</g>
<g id="Layer_1">
</g>
</svg>
