<?xml version="1.0" encoding="iso-8859-1"?>
<!-- Generator: Adobe Illustrator 19.2.0, SVG Export Plug-In . SVG Version: 6.00 Build 0)  -->
<svg version="1.1" xmlns="http://www.w3.org/2000/svg" xmlns:xlink="http://www.w3.org/1999/xlink" x="0px" y="0px"
	 viewBox="0 0 61.692 76.844" style="enable-background:new 0 0 61.692 76.844;" xml:space="preserve">
<g id="Ditta_x5F_Commerciale">
	<path style="fill-rule:evenodd;clip-rule:evenodd;" d="M44.665,14.958c5.395,0.339,11.5-0.033,16.912,0.289
		c0.258,10.233,0.002,20.646,0,31.039c0,3.454,0.098,6.875-0.145,10.186c-4.945,0.155-10.764,0-16.047,0
		c-0.723,0-1.496,0.111-2.162-0.145c-0.287-7.683,0.094-16.051-0.193-23.784c-0.746-0.207-1.691-0.191-2.594-0.191
		c-11.176,0.001-23.965-0.01-35.268-0.049c-0.867-0.003-1.746-0.086-2.596-0.048c-0.822,0.037-1.666,0.113-2.449-0.096
		c-0.127-5.623-0.197-11.51,0.047-17.106c5.113-0.242,10.832-0.007,15.953-0.097c0.072-4.504,1.512-7.9,3.844-10.426
		c2.357-2.555,5.445-4.307,9.898-4.517c4.25-0.201,7.729,1.552,10.09,3.699C42.747,6.254,44.623,9.817,44.665,14.958z
		 M16.315,15.151c0.07,2.534,1.018,5.018,2.115,6.679c2.158,3.271,5.494,5.875,10.137,6.535c4.478,0.636,8.615-1.194,11.1-3.412
		c1.277-1.139,2.459-2.538,3.268-4.083c0.842-1.61,1.535-3.556,1.537-5.767c-9.041-0.097-18.631-0.068-28.012-0.096
		C16.391,15.033,16.342,15.082,16.315,15.151z"/>
	<path style="fill-rule:evenodd;clip-rule:evenodd;" d="M18.43,37.445c0.252,0.728,0.143,1.524,0.143,2.306
		c0,5.61,0.045,11.269-0.143,16.577c-5.824,0.114-12.379,0.101-18.307-0.048c-0.176-5.332-0.096-11.159-0.096-16.721
		c-0.002-0.732-0.107-1.521,0.143-2.211C6.256,37.292,12.473,37.221,18.43,37.445z"/>
	<path style="fill-rule:evenodd;clip-rule:evenodd;" d="M61.432,60.942c0.121,4.948,0.217,10.757-0.047,15.855
		c-20.293,0.119-40.918-0.005-61.262-0.192c-0.197-3.581-0.096-7.914-0.096-11.964c-0.002-0.685,0-1.357,0-2.018
		c-0.002-0.633-0.119-1.306,0.143-1.874C20.161,60.64,41.53,60.692,61.432,60.942z"/>
</g>
<g id="Layer_1">
</g>
</svg>
