<?xml version="1.0" encoding="iso-8859-1"?>
<!-- Generator: Adobe Illustrator 21.0.2, SVG Export Plug-In . SVG Version: 6.00 Build 0)  -->
<svg version="1.1" xmlns="http://www.w3.org/2000/svg" xmlns:xlink="http://www.w3.org/1999/xlink" x="0px" y="0px"
	 viewBox="0 0 44.756 44.756" style="enable-background:new 0 0 44.756 44.756;" xml:space="preserve">
<g id="Domenico_x5F_Melchiorre2">
	<g id="Layer_2_3_">
		<g id="Layer_1-2_3_">
			<path d="M22.533,9.222c-1.647,0-2.989,1.314-2.989,3.167v1.66l2.949,1.321l3.031-1.356v-1.613
				C25.525,10.541,24.181,9.222,22.533,9.222z"/>
			<path d="M38.201,6.554c-8.739-8.739-22.908-8.739-31.647,0s-8.739,22.908,0,31.647s22.908,8.739,31.647,0
				S46.941,15.293,38.201,6.554z M32.524,32.84h-4.187v-1.514h1.339l-0.01-2.548l1.514,0.559l0.01,1.989h1.334V32.84z
				 M33.747,27.675h-5.048l-0.559-1.515h1.527v-5.977h-8.459l-0.559-1.514h4.877v-2.74l-3.029,1.299l-7.173-3.074v4.518h2.71v-2.261
				l1.514,0.838v8.913h5.978v-4.876l1.514,0.559v11.307c0,2.212-2.02,4.205-4.503,4.205s-4.502-1.999-4.502-4.216v-4.364
				l1.514,0.559v3.805c0,1.382,1.341,2.702,2.989,2.702s2.989-1.314,2.989-2.69v-5.478h-8.542l-0.559-1.515h1.606v-5.977h-7.81
				v5.977h3.587v-4.873l1.514,0.559v9.48h1.361v1.514h-4.188v-1.514h1.313v-3.651h-5.1V18.67h5.1v-7.195l4.224,1.896V12.39
				c0-2.69,2.02-4.682,4.502-4.682s4.503,1.998,4.503,4.694v6.268h2.63v-4.518l-0.983,0.422l-0.697-1.665l3.194-1.434v14.686h2.566
				c1.622,0,2.941-1.341,2.941-2.989s-1.314-2.989-2.93-2.989h-0.915l-0.559-1.514h1.474c2.451,0,4.444,2.02,4.444,4.502
				S36.203,27.675,33.747,27.675z"/>
		</g>
	</g>
</g>
<g id="Layer_1">
</g>
</svg>
