<?xml version="1.0" encoding="iso-8859-1"?>
<!-- Generator: Adobe Illustrator 19.2.0, SVG Export Plug-In . SVG Version: 6.00 Build 0)  -->
<svg version="1.1" xmlns="http://www.w3.org/2000/svg" xmlns:xlink="http://www.w3.org/1999/xlink" x="0px" y="0px"
	 viewBox="0 0 78.366 78.733" style="enable-background:new 0 0 78.366 78.733;" xml:space="preserve">
<g id="Dr_x5F_Madaus_x5F_und_x5F_Co">
	<path style="fill-rule:evenodd;clip-rule:evenodd;" d="M11.943,67.52c-4.971-4.886-8.869-10.882-10.79-18.686
		c-1.004-4.081-1.459-8.962-0.932-13.389c0.513-4.3,1.534-8.317,3.041-11.673c3.056-6.804,7.424-12.19,13.095-16.331
		c2.829-2.066,6.017-3.866,9.563-5.149c2.711-0.981,5.619-1.808,8.926-2.109C39.817-0.27,45.341,0.12,49.413,1.311
		c3.303,0.967,5.981,2.029,8.729,3.531c2.678,1.463,5.023,3.178,7.21,5.052c2.27,1.946,4.02,4.165,5.737,6.522
		c3.434,4.713,5.945,10.732,6.915,17.656c1.065,7.598-0.329,15.262-2.844,20.893c-0.643,1.44-1.308,2.814-2.06,4.119
		c-0.741,1.287-1.611,2.45-2.452,3.679c-0.433,0.634-0.787,1.248-1.274,1.814c-5.151,5.986-11.795,10.798-20.746,12.948
		c-3.254,0.781-7.107,1.344-11.084,1.177c-3.717-0.156-7.24-0.958-10.348-1.913C21.002,74.888,16.083,71.562,11.943,67.52z
		 M52.894,4.941c-1.307-0.509-2.696-1.066-4.168-1.472C44.41,2.281,37.994,1.988,33.13,2.783c-4.122,0.674-7.647,2.148-10.888,3.776
		c-0.586,0.295-1.667,0.707-1.765,1.177c-0.067,0.32,0.215,1.105,0.343,1.619c1.873,7.478,3.951,14.628,5.836,21.972
		c0.126,0.489,0.431,1.037,0.245,1.568c-1.268,0.508-1.234-0.881-1.422-1.618c-1.344-5.28-2.772-10.341-4.169-15.498
		c-0.228-0.838-0.359-1.745-0.833-2.452c-0.264,1.545-0.147,3.21-0.147,4.855c0,4.094,0.049,8.292,0.049,12.408
		c0,0.79,0.152,1.653-0.196,2.354c-0.218,0.086-0.727,0.086-0.883-0.05c-0.142-5.92-0.195-12.303-0.196-18.293
		c0-1.015,0.096-2.041,0.049-3.041c-0.045-0.982,0.051-1.966-0.195-2.894c-0.72,0.164-1.248,0.709-1.814,1.129
		c-3.931,2.905-7.28,6.707-9.761,11.034c-2.853,4.98-5.147,11.122-5.051,18.735c0.096,7.611,2.217,13.636,5.149,18.636
		c2.551,4.349,5.998,7.963,9.857,10.938c0.552,0.425,1.157,0.941,1.864,1.03c0.291-3.307,0.098-6.841,0.098-10.397
		c0-2.674-0.049-5.4-0.049-8.044c0-0.86-0.153-1.783,0.196-2.55c0.192-0.09,0.637-0.064,0.834,0
		c0.282,0.848,0.125,1.748,0.146,2.648c0.151,6.251-0.018,12.914,0.148,19.323c0.985,0.854,2.263,1.366,3.531,1.913
		c2.523,1.087,5.203,2.142,8.239,2.697c1.533,0.28,3.174,0.55,4.855,0.441c-0.09-1.156-0.463-2.269-0.785-3.385
		c-1.942-6.718-3.555-13.527-5.394-20.206c-0.309-1.118-0.674-2.266-0.784-3.433c0.149-0.178,0.585-0.068,0.882-0.099
		c0.373,0.369,0.453,0.934,0.589,1.423c0.146,0.523,0.304,1.083,0.441,1.618c1.816,7.061,3.799,14.182,5.641,21.138
		c0.122,0.463,0.11,1.12,0.588,1.373c0.688-1.991,1.27-4.178,1.814-6.375c1.491-6.01,3.256-11.811,4.758-17.901
		c0.234-0.952,0.441-1.729,1.471-1.275c-0.084,1.161-0.493,2.272-0.784,3.385c-1.475,5.639-3.113,11.355-4.513,16.969
		c-0.567,2.277-1.365,4.496-1.716,6.817c0.814,0.233,1.701,0.109,2.501,0.049c5.093-0.388,9.421-1.745,13.143-3.483
		c0.615-0.286,1.3-0.552,1.717-1.079c-0.044-3.243,0.225-6.753,0.049-10.445c-0.166-3.504,0.044-7.166-0.049-10.3
		c-0.027-0.919-0.325-2.538,0.932-2.011c0.321,0.316,0.196,0.825,0.196,1.226c-0.001,6.051,0.212,12.219,0.098,18.098
		c-0.018,0.902-0.107,1.811,0.147,2.648c0.717-0.138,1.298-0.643,1.864-1.03c1.776-1.219,3.338-2.537,4.855-3.972
		c1.903-1.966,3.877-3.922,5.296-6.425c2.004-3.534,3.877-7.226,4.904-11.722c1.047-4.577,1.304-10.017,0.393-15.057
		c-0.843-4.663-2.457-8.555-4.512-12.114c-0.522-0.904-0.95-1.823-1.521-2.648c-1.701-2.46-3.771-4.616-5.935-6.571
		c-1.285-1.045-2.633-2.191-4.021-3.09C59,8.023,58.486,7.621,57.897,7.59c-0.26,0.939-0.148,1.964-0.148,2.991
		c-0.001,6.647,0.01,14.216,0.099,20.844c0.006,0.44,0.143,1.078-0.295,1.373c-0.181,0.094-0.61,0.071-0.735-0.049
		c-0.266-0.736-0.146-1.573-0.147-2.354c0-2.542-0.048-5.006-0.049-7.504c0-3.381,0.113-6.8-0.146-9.955
		c-0.498,0.686-0.67,1.604-0.884,2.452c-1.355,5.385-2.75,10.556-4.267,15.841c-0.204,0.712-0.278,2.244-1.52,1.472
		c2.157-8.746,4.641-17.168,6.816-25.896C55.575,5.99,54.25,5.468,52.894,4.941z"/>
	<path style="fill-rule:evenodd;clip-rule:evenodd;" d="M71.336,38.192c-0.185,0.097-0.719,0.188-0.883,0
		c-0.321-0.259-0.239-0.79-0.393-1.128c-0.943-2.082-5.98-1.837-5.64,1.079c0.234,2.018,3.558,1.597,5.541,2.501
		c0.564,0.258,1.287,0.816,1.569,1.324c0.483,0.869,0.386,2.866-0.49,3.58c-2.349,2.247-8.962,1.183-7.994-2.844
		c0.188-0.133,0.585-0.116,0.834-0.049c0.278,0.483,0.244,0.992,0.441,1.422c0.822,1.793,3.898,2.127,5.64,1.029
		c0.894-0.696,0.977-2.436,0.049-3.188c-0.669-0.542-1.97-0.667-2.942-0.883c-1.458-0.323-3.133-0.715-3.629-2.011
		c-0.409-1.07-0.044-2.425,0.54-3.09c1.062-1.212,4.084-1.698,5.786-0.686C70.561,35.723,71.443,36.834,71.336,38.192z"/>
	<path style="fill-rule:evenodd;clip-rule:evenodd;" d="M60.251,35.005c0.26,0.02,0.619-0.063,0.736,0.099
		c0.034,3.7,0.972,9.178-1.422,10.838c-2.453,1.701-6.334,0.649-7.161-1.717c-0.425-1.216-0.294-2.887-0.294-4.512
		c0-0.798-0.049-1.642-0.049-2.403c0-0.79-0.013-1.566,0.195-2.206c0.196-0.074,0.589-0.074,0.785,0
		c0.669,2.763-0.531,7.075,0.687,9.269c1.03,1.857,4.825,1.91,5.837-0.049c0.412-0.799,0.388-1.864,0.392-3.09
		c0.004-1.258,0-3.026,0-4.659c0-0.496-0.071-1.274,0.148-1.471C60.14,35.058,60.194,35.029,60.251,35.005z"/>
	<path style="fill-rule:evenodd;clip-rule:evenodd;" d="M46.372,35.103c1.319,2.706,2.28,5.592,3.482,8.436
		c0.393,0.93,0.822,1.88,1.029,2.894c-0.252,0.199-0.537,0.081-0.932,0.098c-0.755-0.977-0.894-2.572-1.667-3.531
		c-1.551-0.079-3.471-0.104-4.954,0.049c-0.859,0.856-0.883,2.55-1.667,3.482c-0.234,0.129-0.703,0.136-0.883-0.049
		c-0.065-0.523,0.255-1.009,0.441-1.472c0.572-1.419,1.145-2.85,1.716-4.267c0.771-1.911,1.419-3.867,2.354-5.64
		C45.592,35.03,46.073,35.03,46.372,35.103z M45.685,36.672c-0.79,1.598-1.451,3.323-2.011,5.15c0.467,0.318,1.307,0.196,2.06,0.196
		c0.782,0,1.61,0.044,2.109-0.196c-0.335-1.418-0.99-2.745-1.472-3.973c-0.16-0.408-0.187-0.971-0.638-1.178
		C45.719,36.672,45.702,36.672,45.685,36.672z"/>
	<path style="fill-rule:evenodd;clip-rule:evenodd;" d="M30.678,46.53c-0.19-2.845-0.146-5.482-0.146-8.681
		c0-0.615-0.229-2.544,0.294-2.697c0.077-0.022,0.144-0.043,0.196-0.049c1.194-0.145,2.799-0.071,4.07,0.049
		c1.287,0.121,2.337,0.504,3.041,1.03c2.003,1.396,2.312,6.316,0.834,8.483C37.537,46.763,34.126,46.845,30.678,46.53z
		 M36.906,45.107c2.349-1.241,2.595-6.72,0.295-8.288c-1.155-0.787-3.613-0.86-5.346-0.687c-0.343,0.597-0.196,1.434-0.196,2.207
		c-0.001,2.405-0.116,5.121,0.146,7.209C33.702,45.761,35.703,45.745,36.906,45.107z"/>
	<path style="fill-rule:evenodd;clip-rule:evenodd;" d="M24.842,35.25c1.595,3.653,3.138,7.357,4.513,11.231
		c-0.158,0.213-0.691,0.162-0.982,0.098c-0.727-0.988-0.867-2.565-1.668-3.481c-1.527-0.088-3.374-0.074-4.903,0
		c-0.837,0.896-0.89,2.576-1.668,3.53c-0.254,0.093-0.8,0.091-0.932-0.098c1.068-3.238,2.646-6.75,3.973-10.054
		C23.511,35.638,23.612,34.809,24.842,35.25z M24.155,36.77c-0.762,1.642-1.512,3.294-2.011,5.198
		c0.502,0.255,1.303,0.147,2.06,0.147c0.769,0,1.597,0.107,2.109-0.147c-0.38-1.397-0.916-2.754-1.423-4.022
		c-0.158-0.395-0.276-0.955-0.686-1.177C24.187,36.77,24.172,36.77,24.155,36.77z"/>
	<path style="fill-rule:evenodd;clip-rule:evenodd;" d="M17.681,35.299c0.264,1.05,0.146,2.231,0.146,3.385
		c0.001,2.638,0.14,5.379-0.049,7.896c-0.174,0.148-0.69,0.12-0.932,0.049c-0.403-2.652,0.118-6.226-0.294-8.975
		c-0.4,0.178-0.448,0.686-0.589,1.03c-0.443,1.088-0.898,2.298-1.373,3.481c-0.618,1.54-1.202,3.108-1.913,4.513
		c-0.195,0.082-0.517,0.038-0.784,0.049c-0.535-0.61-0.77-1.438-1.079-2.207c-0.311-0.771-0.621-1.57-0.932-2.354
		c-0.623-1.57-1.23-3.166-2.011-4.561c-0.343,0.602-0.196,1.434-0.196,2.207c0,0.771,0,1.58,0,2.354
		c0,1.571,0.217,3.196-0.099,4.513c-0.167,0.114-0.564,0.135-0.784,0.049c-0.301-0.595-0.196-1.315-0.196-2.011
		c0-3.062-0.092-6.403,0.098-9.318c0.28-0.162,1.022-0.122,1.374-0.049c0.586,0.638,0.755,1.548,1.078,2.354
		c0.637,1.585,1.357,3.207,2.011,4.855c0.315,0.795,0.536,1.661,1.079,2.305c0.808-1.255,1.221-2.886,2.011-4.855
		c0.424-1.056,0.986-2.418,1.472-3.678c0.179-0.464,0.355-0.961,0.687-1.079C16.803,35.109,17.307,35.187,17.681,35.299z"/>
</g>
<g id="Layer_1">
</g>
</svg>
