<?xml version="1.0" encoding="iso-8859-1"?>
<!-- Generator: Adobe Illustrator 19.2.0, SVG Export Plug-In . SVG Version: 6.00 Build 0)  -->
<svg version="1.1" xmlns="http://www.w3.org/2000/svg" xmlns:xlink="http://www.w3.org/1999/xlink" x="0px" y="0px"
	 viewBox="0 0 180.58 180.532" style="enable-background:new 0 0 180.58 180.532;" xml:space="preserve">
<g id="Dr_x5F_O_x5F_S_x5F_Rechenauer">
	<path style="fill-rule:evenodd;clip-rule:evenodd;" d="M73.335,72.113c-6.688,6.975-15.979,11.593-29.263,11.592
		c-13.138,0-22.738-4.74-29.212-11.644C8.301,65.067,4.137,55.089,4.137,41.93c0-13.376,4.056-23.014,10.571-30.232
		C21.25,4.579,30.5,0.132,43.919,0.002c9.736-0.095,17.905,2.625,23.849,6.792c6.091,4.271,10.37,10.233,13.125,17.517
		c2.733,7.227,3.945,17.869,2.196,26.913c-0.829,4.285-1.899,8.262-3.626,11.694C77.736,66.355,75.97,69.573,73.335,72.113z
		 M39.579,14.353c-2.753,0.508-4.873,1.543-6.741,2.707c-2.644,1.646-4.715,3.869-6.282,6.332
		c-3.087,4.854-5.442,11.985-4.902,20.173c0.518,7.859,2.581,14.149,6.435,18.742c1.925,2.294,4.128,4.271,6.997,5.617
		c2.975,1.396,6.479,2.104,10.623,1.89c3.747-0.192,7.019-1.376,9.55-3.013c2.562-1.657,4.583-3.88,6.281-6.333
		c1.675-2.418,2.998-5.512,3.779-8.784c0.402-1.685,0.843-3.443,0.97-5.311c0.132-1.935,0.258-3.905,0.204-6.026
		c-0.198-7.818-2.743-14.309-6.332-18.845c-3.646-4.606-9.519-8.036-17.721-7.507C41.495,14.056,40.535,14.176,39.579,14.353z"/>
	<path style="fill-rule:evenodd;clip-rule:evenodd;" d="M171.388,0.156c0.769,0.399,1.788,1.742,2.4,2.4
		c2.3,2.475,4.648,4.97,6.792,7.456c0,0.051,0,0.103,0,0.153c-3.237,3.446-6.678,6.674-10.01,10.061
		c-2.194,2.23-4.443,4.393-6.689,6.639c-3.309,3.309-6.615,6.718-9.959,10.061c-8.902,8.903-17.907,17.704-26.811,26.606
		c-4.452,4.451-8.826,8.98-13.278,13.432c-4.452,4.451-8.877,8.929-13.329,13.38c-2.23,2.229-4.539,4.38-6.792,6.588
		c-6.704,6.569-13.384,13.261-20.07,19.917c-5.374,5.316-10.793,10.588-16.138,15.933c-4.006,4.007-8.081,7.928-12.104,11.951
		c-1.337,1.337-2.62,2.712-3.983,3.982c-2.768,2.582-5.302,5.385-8.069,7.967c-2.75,2.567-5.354,5.309-8.069,7.916
		c-5.442,5.227-10.619,10.731-16.087,15.934c-0.567-0.162-0.92-0.689-1.277-1.072c-2.213-2.382-4.493-4.697-6.894-7.099
		c-0.325-0.325-1.011-0.917-1.021-1.277c-0.009-0.32,0.761-1.054,1.226-1.48c1.395-1.281,2.755-2.703,4.035-3.983
		c8.977-8.977,18.011-17.656,26.914-26.556c3.556-3.556,7.107-7.107,10.673-10.674c6.216-6.215,12.543-12.39,18.793-18.64
		c6.181-6.181,12.576-12.371,18.794-18.59c8.875-8.876,17.796-17.846,26.709-26.76c14.285-14.286,28.376-28.373,42.745-42.745
		c1.76-1.76,3.504-3.629,5.362-5.362c1.379-1.286,2.685-2.634,4.035-3.983c0.444-0.444,0.787-0.982,1.225-1.43
		c2.587-2.643,5.312-5.31,8.019-8.018C169.52,1.87,170.516,0.831,171.388,0.156z"/>
	<path style="fill-rule:evenodd;clip-rule:evenodd;" d="M163.779,143.047c0.227,0.392,0.744,0.376,1.123,0.511
		c1.095,0.391,2.285,1.004,3.166,1.686c4.365,3.018,6.48,8.696,6.996,15.678c0.459,6.188,0.504,12.688,2.4,17.414
		c0.258,0.644,0.787,1.184,0.817,1.891c-5.505,0.175-11.36,0.113-16.903,0.051c-0.083,0.014-0.088-0.049-0.154-0.051
		c-3.334-7.611-1.033-20.411-5.566-26.658c-1.158-1.598-2.801-2.65-4.749-3.32c-2.083-0.716-4.531-0.766-7.303-0.766
		c-5.245,0-10.857-0.02-15.934,0.153c-0.225,0.542-0.198,1.196-0.204,1.787c-0.094,9.481,0.28,19.515,0,28.905
		c-4.036,0.258-8.599,0.151-12.921,0.153c-1.433,0-2.872,0.121-4.188-0.153c-0.206-6.27-0.204-13.062-0.204-19.661
		c0-20.124-0.176-39.335,0-59.139c8.723-0.129,17.818-0.155,26.76-0.153c3.008,0.001,6.037,0.137,8.988,0
		c3.216-0.148,7.414-0.22,10.469,0.153c3.148,0.385,5.818,1.364,8.019,2.452c4.712,2.328,8.123,6.068,10.06,10.928
		c2.089,5.24,2.036,12.55-0.102,17.722c-1.834,4.436-4.822,7.273-8.938,9.447C164.879,142.359,164.223,142.547,163.779,143.047z
		 M146.006,137.122c6.212,0.001,10.551-1.691,12.053-6.639c0.805-2.649,0.9-5.686,0.256-8.272
		c-1.289-5.173-5.221-7.058-11.389-7.304c-1.481-0.059-3.053,0.073-4.596,0c-1.514-0.071-3.22-0.179-4.699,0
		c-3.327,0.403-6.944-0.285-10.111,0.204c-0.194,3.438-0.102,7.154-0.102,10.878c0,3.744-0.083,7.534,0.152,11.083
		C133.67,137.266,140.07,137.122,146.006,137.122z"/>
</g>
<g id="Layer_1">
</g>
</svg>
