<?xml version="1.0" encoding="iso-8859-1"?>
<!-- Generator: Adobe Illustrator 19.2.0, SVG Export Plug-In . SVG Version: 6.00 Build 0)  -->
<svg version="1.1" xmlns="http://www.w3.org/2000/svg" xmlns:xlink="http://www.w3.org/1999/xlink" x="0px" y="0px"
	 viewBox="0 0 177.037 174.295" style="enable-background:new 0 0 177.037 174.295;" xml:space="preserve">
<g id="Drevo_x5F_Industries">
	<path style="fill-rule:evenodd;clip-rule:evenodd;" d="M84.999,0.496c0.152,29.153-0.046,57.65-0.05,86.895
		c-0.003,21.551-0.051,43.443-0.05,65.282c0.001,7.23,0.034,14.4-0.148,21.414c0.016,0.131-0.104,0.128-0.198,0.148
		c-3.558,0.112-7.099,0-10.657,0c-3.471,0-6.989,0.09-10.459-0.049c-7.004-0.281-14.053,0.041-21.117-0.1
		c-13.701-0.272-28.286,0.056-42.133-0.298c-0.028-0.071-0.078-0.12-0.149-0.148c-0.085-10.943,0.001-21.689,0-32.616
		c0-14.839,0.05-28.341,0.05-43.423c0-3.635-0.122-7.309,0.05-10.905c0.169-3.551-0.131-7.18,0-10.806
		c0.126-3.495,0.061-7.016,0.05-10.509c-0.07-20.81,0.05-41.336,0.049-62.705c0-0.853-0.121-1.746,0.149-2.578
		C0.421,0.053,0.475,0.024,0.534,0c17.226,0.007,34.968,0.196,52.593,0.198c9.59,0.001,19.237,0.098,28.898,0.1
		C83.136,0.298,84.405,0.162,84.999,0.496z M41.825,4.263c-6.17,0.011-11.18,1.623-15.516,3.619
		c-4.412,2.031-8.039,4.767-11.202,7.931c-1.614,1.615-2.884,3.491-4.164,5.403c-2.521,3.765-4.585,8.23-5.7,13.434
		C4.666,37.335,4.45,40.25,4.45,43.373c0,6.003,1.645,11.14,3.618,15.515c2.002,4.438,4.646,8.087,7.882,11.253
		c3.271,3.201,6.867,5.617,11.45,7.683c4.312,1.944,9.889,3.427,15.912,3.173c3.015-0.127,5.894-0.416,8.525-1.041
		c2.501-0.594,4.887-1.49,7.039-2.528c4.291-2.07,8.053-4.675,11.153-7.98c5.97-6.366,11.054-15.063,10.757-27.461
		c-0.217-8.999-3.249-16.112-7.089-21.612c-3.922-5.617-9.205-9.847-15.813-12.888c-4.076-1.877-10.047-3.503-15.961-3.223
		C41.891,4.265,41.858,4.263,41.825,4.263z"/>
	<path style="fill-rule:evenodd;clip-rule:evenodd;" d="M88.618,0.347c10.838-0.061,20.278,1.634,28.553,4.412
		c8.226,2.763,15.482,6.435,21.958,10.955c12.912,9.014,23.188,20.908,30.089,35.739c1.712,3.679,3.196,7.727,4.461,12.045
		c0.622,2.122,1.082,4.399,1.537,6.692c1.317,6.638,2.167,14.847,1.686,22.801c-0.386,6.361-1.378,12.401-2.825,17.746
		c-0.3,1.104-0.516,2.214-0.844,3.271c-4.506,14.54-12.382,26.181-21.958,35.641c-3.699,3.652-7.747,6.859-12.096,9.864
		c-4.345,3.003-9.136,5.459-14.226,7.732c-10.129,4.525-22.226,7.23-36.632,7.039c-0.022-0.044-0.044-0.089-0.1-0.099
		c-0.229-14.248-0.05-28.621-0.049-43.126c0.001-43.33,0.147-84.023,0.148-127.69c0-1.06-0.107-2.231,0.148-2.925
		C88.505,0.399,88.559,0.371,88.618,0.347z"/>
</g>
<g id="Layer_1">
</g>
</svg>
