<?xml version="1.0" encoding="iso-8859-1"?>
<!-- Generator: Adobe Illustrator 19.2.0, SVG Export Plug-In . SVG Version: 6.00 Build 0)  -->
<svg version="1.1" xmlns="http://www.w3.org/2000/svg" xmlns:xlink="http://www.w3.org/1999/xlink" x="0px" y="0px"
	 viewBox="0 0 59.709 73.261" style="enable-background:new 0 0 59.709 73.261;" xml:space="preserve">
<g id="Dril_x5F_de_x5F_Mexico">
	<path style="fill-rule:evenodd;clip-rule:evenodd;" d="M37.925,0.194c0.177,4.369,0.097,8.867,0.097,13.291
		c0,4.432-0.354,8.891,0.339,12.855c0.343,1.967,0.966,3.561,1.691,5.027c0.718,1.451,1.755,2.656,2.609,4.059
		c1.617,2.654,2.867,6.49,2.078,10.777c-0.997,5.418-4.407,9.088-8.602,11.068c-2.324,1.096-5.403,1.611-8.313,1.256
		c-5.531-0.674-9.295-4.072-11.454-8.215c-1.128-2.166-1.889-4.904-1.691-8.023c0.199-3.145,1.102-5.391,2.416-7.395
		c0.667-1.016,1.455-1.867,2.03-2.9c0.559-1,1.081-2.152,1.45-3.432c0.135-0.467,0.178-1.029,0.289-1.594
		c0.49-2.467,0.387-5.859,0.387-8.941c0-1.209-0.066-2.393,0.146-3.478c0.641-0.541,1.691-0.59,2.658-0.774
		c0.954-0.184,1.986-0.502,2.899-0.34c0.345,1.076,0.193,2.256,0.193,3.385c-0.001,3.355,0.003,6.894-0.821,9.713
		c-0.838,2.865-2.131,4.885-3.866,6.863c-1.589,1.811-3.143,3.992-3.528,7.057c-0.193,1.541,0.025,3.006,0.387,4.301
		c0.768,2.752,2.108,4.445,4.156,5.992c1.059,0.801,2.365,1.461,3.625,1.74c3.465,0.768,6.398-0.131,8.602-1.547
		c2.119-1.359,3.897-3.463,4.591-6.137c0.835-3.223,0.088-6.502-1.257-8.699c-0.671-1.098-1.558-1.977-2.416-2.949
		c-2.476-2.803-4.301-6.404-4.301-11.791c-0.001-5.029,0.048-10.609,0.048-15.949c0-1.768-0.116-3.521,0.145-5.221
		c0.931-0.32,2.247-0.086,3.48-0.145C36.68,0.016,37.407-0.097,37.925,0.194z"/>
	<path style="fill-rule:evenodd;clip-rule:evenodd;" d="M48.654,0.243c0.266,6.367,0.193,13.002,0.193,19.816
		c-0.001,1.611,0.048,3.322,0.048,4.977c0,1.748-0.001,3.412,0.242,4.881c0.475,2.873,1.77,5.246,2.416,7.83
		c0.714,2.857,0.989,6.275,0.483,9.279c-0.973,5.779-3.677,9.977-7.249,13.242c-1.76,1.609-3.968,3.076-6.331,3.914
		c-2.664,0.947-5.15,1.742-8.507,1.74c-3.366,0-6.083-0.646-8.554-1.691c-4.68-1.977-8.489-5.373-10.971-9.522
		c-2.532-4.23-3.856-10.746-2.514-16.818c0.579-2.615,1.992-4.9,2.466-7.781c0.486-2.963,0.186-6.465,0.386-9.811
		c0.296-0.84,1.68-1.658,2.417-2.125c0.959-0.611,1.835-1.35,2.899-1.402c0.424,0.611,0.191,1.4,0.193,2.078
		c0.008,2.021,0.191,4.502,0,6.572c-0.259,2.793-1.161,5.129-2.271,7.152c-1.132,2.064-2.114,4.258-2.416,7.008
		c-0.661,6.025,1.597,10.947,4.446,14.162c1.462,1.648,3.253,3.193,5.219,4.203c2.021,1.039,4.548,1.982,7.298,2.127
		c2.869,0.15,5.563-0.371,7.975-1.305c4.438-1.717,7.844-4.807,9.763-9.086c1.013-2.26,1.788-4.592,1.788-7.637
		c0-3.002-0.627-5.439-1.644-7.732c-0.463-1.045-1.067-2.066-1.595-3.141c-0.532-1.086-0.907-2.23-1.208-3.48
		c-0.583-2.422-0.531-5.707-0.532-8.844c0-6.254-0.084-12.461,0.145-18.559c0.425-0.273,1.168-0.24,1.788-0.242
		C46.243,0.048,47.658,0.042,48.654,0.243z"/>
	<path style="fill-rule:evenodd;clip-rule:evenodd;" d="M59.576,0.341c0.217,1.807,0.097,3.648,0.097,5.51
		c0,9.705-0.046,18.988-0.048,28.658c-0.001,3.867,0.189,7.795,0,11.6c-0.17,3.4-1.233,6.564-2.32,9.279
		c-1.098,2.744-2.704,5.164-4.446,7.152c-0.942,1.076-1.788,2.107-2.803,2.996c-3.083,2.701-6.583,4.906-11.067,6.332
		c-3.031,0.963-6.546,1.561-10.053,1.352c-3.552-0.209-6.868-0.809-9.666-1.932c-5.357-2.152-10.127-5.68-13.242-9.957
		c-3.23-4.434-5.648-9.955-5.992-17.205c-0.31-6.531,1.484-12.119,3.963-16.238c0.167-0.277,0.377-0.58,0.58-0.869
		c0.174-0.25,0.361-0.688,0.773-0.629c0.431,3.256,0.085,6.436-0.532,9.328c-0.614,2.879-0.99,6.078-0.531,9.279
		c0.843,5.877,3.226,10.346,6.476,13.918c2.526,2.883,5.35,4.76,8.941,6.379c3.471,1.566,8.229,2.637,13.001,2.031
		c4.351-0.553,8.043-1.992,11.26-4.061c2.986-1.92,5.793-4.646,7.637-7.684c1.925-3.174,3.454-6.812,3.817-11.502
		c0.195-2.518,0.017-4.924-0.387-7.105c-0.406-2.203-0.967-4.135-0.966-6.67c0.001-8.832,0.047-17.348,0.048-26.629
		c0-0.766-0.071-1.947,0.048-2.852c0.081-0.603,0.089-0.594,0.483-0.676c0.717-0.15,1.726,0,2.562,0
		C58.087,0.147,58.968,0.007,59.576,0.341z"/>
	<path style="fill-rule:evenodd;clip-rule:evenodd;" d="M29.612,27.839c0.524,0.201,0.6,1.205,0.725,1.596
		c0.959,2.992,2.16,5.176,4.012,7.297c1.492,1.711,3.249,3.469,3.238,6.574c-0.009,2.469-1.054,4.533-2.514,5.897
		c-1.203,1.121-3.005,2.109-4.977,2.174c-2.054,0.067-4.076-0.803-5.316-1.836c-1.633-1.361-3.39-3.949-2.852-7.443
		c0.367-2.381,1.86-3.908,3.142-5.412c0.663-0.779,1.304-1.551,1.885-2.465c0.613-0.965,1.016-1.912,1.45-2.9
		c0.447-1.018,0.704-2.084,1.064-3.334C29.494,27.915,29.543,27.866,29.612,27.839z"/>
</g>
<g id="Layer_1">
</g>
</svg>
