<?xml version="1.0" encoding="iso-8859-1"?>
<!-- Generator: Adobe Illustrator 19.2.0, SVG Export Plug-In . SVG Version: 6.00 Build 0)  -->
<svg version="1.1" xmlns="http://www.w3.org/2000/svg" xmlns:xlink="http://www.w3.org/1999/xlink" x="0px" y="0px"
	 viewBox="0 0 81.016 36.27" style="enable-background:new 0 0 81.016 36.27;" xml:space="preserve">
<g id="Drogerie_x5F_Kohler">
	<path style="fill-rule:evenodd;clip-rule:evenodd;" d="M36.05,0.158c0.205,1.281,0.139,2.936,0.14,4.527
		c0,0.963-0.105,1.933,0.138,2.726c3.054,0,5.213,0.93,6.422,2.911c1.121,1.836,0.785,5.072,0.785,8.084
		c0,5.794,0.117,11.895-0.093,17.277c-0.691,0.149-1.988,0.154-2.68,0c-0.199-3.473-0.147-7.467-0.138-11.457
		c0.004-1.867-0.037-3.764,0.046-5.59c0.091-1.987,0.145-4.055-0.046-5.774c-0.18-1.616-1.553-2.689-3.419-2.726
		c-0.411-0.008-1.038-0.102-1.062,0.324c-0.03,0.542,0.97,0.301,1.57,0.416c0.976,0.185,1.811,0.841,2.033,1.709
		c0.208,0.81,0.092,1.878,0.092,2.91c0,6.575,0.037,13.896-0.092,20.188c-0.671,0.228-2.049,0.201-2.726,0
		c0.006-6.394-0.263-13.578-0.047-19.818c0.016-0.419,0.157-2.281-0.415-2.31c-0.762-0.038-0.434,1.888-0.416,2.402
		c0.093,2.665-0.161,5.577-0.046,8.454c0.15,3.783,0.001,7.595-0.093,11.272c-0.664,0.151-1.923,0.151-2.587,0
		c-0.285-2.191-0.106-4.381-0.092-6.56c0.026-4.368,0.034-8.724,0-13.073c-0.042-5.231-0.065-10.823,0.046-15.891
		C34.157,0.014,35.31-0.03,36.05,0.158z"/>
	<path style="fill-rule:evenodd;clip-rule:evenodd;" d="M47.276,0.112c0.224,11.556,0.199,23.976,0.046,35.524
		c-0.642,0.241-2.012,0.177-2.726,0.046c-0.209-5.655-0.092-11.734-0.093-17.693c0-5.257,0.001-10.579,0-15.892
		c0-0.662-0.181-1.465,0.231-2.032C45.48,0.01,46.603-0.056,47.276,0.112z"/>
	<path style="fill-rule:evenodd;clip-rule:evenodd;" d="M50.879,0.158c0.202,10.114,0.138,20.883,0.139,31.274
		c0,0.732-0.025,1.44,0,2.171c0.023,0.678,0.087,1.42-0.139,2.079c-0.718,0.146-2.073,0.177-2.726-0.046
		C47.979,24.792,48.06,13.37,48.061,2.098c0-0.664-0.14-1.421,0.185-2.032C49.014,0.032,50.256-0.105,50.879,0.158z"/>
	<path style="fill-rule:evenodd;clip-rule:evenodd;" d="M29.906,0.066c0.84,0.054,1.898-0.113,2.587,0.092
		c0.232,2.81,0.14,5.832,0.139,8.823c-0.001,8.867,0.095,17.99-0.093,26.701c-0.721,0.149-2.051,0.154-2.771,0
		c-0.377-5.741,0.078-11.769-0.093-17.878c-0.121-4.356,0.026-8.767,0-13.351c-0.003-0.611-0.073-1.381-0.046-2.125
		c0.028-0.763,0.01-1.786,0.139-2.171C29.802,0.115,29.851,0.088,29.906,0.066z"/>
	<path style="fill-rule:evenodd;clip-rule:evenodd;" d="M2.697,0.204c0.204,2.756,0.139,5.67,0.139,8.639
		c-0.001,8.178,0.001,16.562,0,24.807c0,0.678,0.107,1.425-0.139,2.079c-0.669,0.156-1.917,0.145-2.587,0
		C-0.058,24.985,0.016,13.457,0.017,2.329c0-0.687-0.09-1.94,0.139-2.125C0.19,0.161,0.24,0.134,0.295,0.112
		C1.073,0.164,2.069,0.001,2.697,0.204z"/>
	<path style="fill-rule:evenodd;clip-rule:evenodd;" d="M6.115,0.158c0.247,1.153,0.139,2.426,0.139,3.695
		C6.255,7.579,6.181,11.7,6.346,15.079c1.315,0.155,3.179,0.229,4.527,0.046c0.248-1.07,0.139-2.39,0.139-3.696
		c0-1.276-0.074-2.592,0.092-3.695c0.632-0.242,1.88-0.162,2.587-0.046c0.184,1.247,0.071,2.609,0.093,3.973
		c0.021,1.333,0.151,2.714,0.046,3.88c-0.073,0.809-0.826,1.804-1.477,2.033c-0.957,0.335-3.543,0.094-4.713,0.139
		c-0.623,0.023-1.283-0.108-1.293,0.37c-0.014,0.663,2.06,0.416,2.772,0.416c1.147,0,2.239-0.048,2.957,0.231
		c0.936,0.364,1.708,1.311,1.755,2.633c0.078,2.195,0,4.771,0,7.299c0,1.21-0.016,2.438-0.046,3.604
		c-0.032,1.218,0.151,2.413-0.093,3.464c-0.644,0.176-1.774,0.098-2.494,0.046c-0.215-1.038-0.176-2.223-0.185-3.373
		c-0.029-3.653,0.186-7.68-0.047-11.179c-0.575-0.244-1.442-0.138-2.217-0.138c-0.782,0-1.569-0.128-2.171,0.046
		c-0.212,1.163-0.19,2.433-0.14,3.649c0.15,3.559-0.012,7.312-0.092,10.948c-0.715,0.15-2.011,0.15-2.726,0
		c-0.274-2.905-0.093-5.951-0.093-8.962c0-6.118,0.001-11.57,0-17.646c0-2.112,0-4.469,0-6.745c0-0.685-0.094-1.995,0.139-2.171
		c0.034-0.043,0.084-0.07,0.139-0.092C4.563,0.139,5.434,0.054,6.115,0.158z"/>
	<path style="fill-rule:evenodd;clip-rule:evenodd;" d="M21.729,7.134c2.717-0.075,4.991,1.634,5.959,3.418
		c0.151,0.278,0.223,0.665,0.37,1.016c0.942,2.256,0.601,6.823,0.601,9.932c0,1.556-0.002,3.1,0.046,4.62
		c0.094,2.966,0.038,5.302-1.017,7.068c-0.667,1.119-1.816,2-3.002,2.495c-1.405,0.586-2.982,0.78-4.62,0.369
		c-2.588-0.649-4.756-2.824-5.22-5.682c-0.182-1.117-0.046-2.921-0.046-4.389c0-1.43,0-2.815,0-4.204c0-2.773-0.18-5.99,0-8.315
		c0.029-0.383,0.107-0.809,0.185-1.109C15.68,9.654,17.994,7.236,21.729,7.134z M17.757,13.277c-0.26,1.325-0.082,2.566-0.046,4.065
		c0.031,1.313-0.053,2.735,0,4.25c0.056,1.604,0.046,2.668,0.046,4.204c0,1.386-0.175,3.239,0.046,4.296
		c0.317,1.516,1.559,2.874,3.096,3.188c2.188,0.447,3.798-0.633,4.527-1.986c0.716-1.329,0.508-3.959,0.508-6.052
		c0-1.509-0.046-2.927-0.046-4.389c0-2.398,0.349-6.629-0.416-8.407c-0.607-1.412-2.369-2.603-4.111-2.402
		C19.404,10.269,18.103,11.507,17.757,13.277z"/>
	<path style="fill-rule:evenodd;clip-rule:evenodd;" d="M65.8,21.085c-0.929,0.152-2.048,0.092-3.141,0.092
		c-1.095,0-2.269,0.109-3.188-0.139c-0.154-0.623-0.146-1.824,0-2.449c0.891-0.326,2.427-0.005,3.465-0.184
		c0.253-0.774,0.113-1.673,0.138-2.541c0.026-0.904,0.021-2.073-0.138-2.725c-0.589-2.42-3.444-3.888-5.867-2.679
		c-0.912,0.455-1.835,1.44-2.125,2.633c-0.287,1.183-0.08,2.956-0.046,4.204c0.077,2.859,0,5.738,0,8.592
		c-0.001,1.495-0.152,3.271,0.139,4.389c0.491,1.89,2.285,3.172,4.389,2.956c1.178-0.121,2.187-0.849,2.771-1.663
		c1.622-2.254,0.463-6.416,0.97-9.748c0.701-0.144,2.045-0.179,2.68,0.046c0.169,2.173,0.092,4.209,0.092,6.19
		c0,2.302-0.265,3.64-1.2,5.035c-1.208,1.8-3.571,3.359-6.515,3.049c-2.5-0.264-4.654-1.861-5.635-3.973
		c-0.97-2.087-0.693-5.827-0.693-8.962c0-1.518,0-3.188,0-4.805c0-2.819-0.203-5.296,0.647-7.114
		c0.965-2.064,2.989-3.913,5.867-4.111c3.124-0.215,5.351,1.356,6.467,3.326c0.395,0.697,0.752,1.673,0.924,2.633
		c0.313,1.74,0.139,4.041,0.139,6.052C65.938,19.812,66.044,20.499,65.8,21.085z"/>
	<path style="fill-rule:evenodd;clip-rule:evenodd;" d="M9.903,7.734c0.152,1.975,0.154,4.585,0,6.559
		c-0.66,0.163-1.875,0.135-2.54,0C7.196,12.815,7.27,10.867,7.27,9.166c0-0.547-0.127-1.149,0.185-1.524
		C8.212,7.559,9.251,7.562,9.903,7.734z"/>
	<path style="fill-rule:evenodd;clip-rule:evenodd;" d="M69.635,7.734c0.169,9.482,0.207,18.533,0,27.948
		c-0.707,0.144-1.975,0.154-2.68,0c-0.246-1.118-0.139-2.293-0.139-3.465c0-7.136,0-13.898,0-21.111
		c0-1.152-0.111-2.319,0.139-3.418C67.739,7.545,68.886,7.565,69.635,7.734z"/>
	<path style="fill-rule:evenodd;clip-rule:evenodd;" d="M80.86,20.9c-0.756,0.146-2.111,0.157-2.864,0
		c-0.302-2.289,0.086-5.434-0.093-7.576c-0.154-1.854-1.672-3.002-3.695-3.002c-0.36,0-0.871-0.01-1.017,0.277
		c0.249,0.572,1.04,0.278,1.524,0.323c1.021,0.095,2.041,0.794,2.356,1.663c0.379,1.046,0.276,2.645,0.277,4.157
		c0,1.492,0.04,2.993-0.139,4.158c-0.9,0.123-2.182,0.211-2.91,0c-0.167-1.634-0.093-3.86-0.093-5.774
		c0-0.557,0.228-1.424-0.369-1.571c-0.655,0.074-0.416,0.915-0.416,1.34c-0.001,7.008,0.017,13.833-0.139,20.742
		c-0.655,0.241-2.045,0.179-2.771,0.046c-0.244-2.026-0.151-4.317-0.093-6.514c0.109-4.082-0.046-8.639-0.046-13.165
		c0-2.255,0.114-4.519,0.046-6.699c-0.021-0.683-0.264-1.628,0.415-1.709c0.746-0.09,1.615,0,2.449,0
		c1.622,0,3.063-0.049,4.157,0.416c1.639,0.696,3.312,2.5,3.511,4.712c0.109,1.206,0.046,2.696,0.046,4.158
		C80.999,18.249,81.08,19.664,80.86,20.9z"/>
	<path style="fill-rule:evenodd;clip-rule:evenodd;" d="M25.194,29.631c-0.458,1.51-1.261,2.56-2.633,2.864
		c-1.761,0.389-3.467-0.795-3.927-2.356c-0.299-1.013-0.201-3.016-0.185-4.343c0.035-2.94-0.001-5.69,0-8.823
		c0-1.438-0.227-3.199,0.185-4.204c0.41-1.001,1.611-1.877,2.771-1.986c1.618-0.152,2.88,0.875,3.372,1.94
		c0.465,1.003,0.37,2.468,0.37,3.973C25.148,20.976,25.205,25.522,25.194,29.631z M21.452,13.555
		c-0.167,4.394-0.092,9.84-0.092,14.598c0,0.896-0.236,2.103,0.646,1.848c0.457-0.429,0.277-1.182,0.277-1.802
		c0-3.538-0.001-7.097,0-10.579c0-1.418,0.111-2.836-0.139-4.112C21.958,13.437,21.582,13.431,21.452,13.555z"/>
	<path style="fill-rule:evenodd;clip-rule:evenodd;" d="M62.243,17.666c-0.715,0.151-2.01,0.151-2.726,0
		c-0.232-0.512-0.139-1.397-0.139-2.217c0-0.752,0.237-1.736-0.369-1.94c-0.678,0.147-0.416,1.15-0.416,1.756
		c0,4.379,0,8.565,0,12.934c0,0.565-0.144,1.725,0.369,1.755c0.584,0.035,0.416-1.229,0.416-1.755c0-2.136-0.074-4.422,0.093-6.329
		c0.637-0.246,2.015-0.174,2.726-0.046c0.055,2.381,0.32,5.263,0.139,7.345c-0.132,1.508-1.046,2.763-2.264,3.233
		c-1.582,0.612-3.257-0.209-4.02-1.478c-0.513-0.853-0.508-2.283-0.508-3.788c0-1.474,0-2.902,0-4.296
		c0-3.035-0.154-5.834-0.046-8.408c0.081-1.942,1.267-3.522,3.187-3.649c1.221-0.081,2.202,0.486,2.772,1.108
		C62.601,13.142,62.393,15.364,62.243,17.666z"/>
	<path style="fill-rule:evenodd;clip-rule:evenodd;" d="M10.042,21.916c0.241,4.439,0.136,9.225,0,13.813
		c-0.696,0.195-1.833,0.14-2.587,0c-0.251-1.098-0.139-2.306-0.139-3.511c0-3.078,0-5.771,0-8.823c0-0.514-0.163-1.187,0.232-1.571
		C8.257,21.811,9.36,21.753,10.042,21.916z"/>
</g>
<g id="Layer_1">
</g>
</svg>
