<?xml version="1.0" encoding="iso-8859-1"?>
<!-- Generator: Adobe Illustrator 19.2.0, SVG Export Plug-In . SVG Version: 6.00 Build 0)  -->
<svg version="1.1" xmlns="http://www.w3.org/2000/svg" xmlns:xlink="http://www.w3.org/1999/xlink" x="0px" y="0px"
	 viewBox="0 0 79.289 64.077" style="enable-background:new 0 0 79.289 64.077;" xml:space="preserve">
<g id="Dupan_x5F_Sogefor">
	<path style="fill-rule:evenodd;clip-rule:evenodd;" d="M67.666,0.153c0.168,3.331,0.097,6.99,0.097,10.536
		c0,3.546,0.301,6.952-0.58,9.714c-1.238,3.888-3.817,6.796-7.346,8.554c-1.19,0.593-2.61,0.993-4.06,1.208
		c-1.646,0.244-3.46,0.096-5.22,0.096c-10.398,0-20.756,0-31.124,0c-1.772,0-3.649-0.217-5.171,0.097
		c-1.107,0.229-1.925,0.953-2.368,1.788c-0.53,0.998-0.387,2.846-0.387,4.543c-0.001,3.565-0.171,5.797,0,9.57
		c0.071,1.562-0.045,3.436,0.434,4.446c0.518,1.087,1.449,1.789,2.9,2.03c1.337,0.222,3.041,0.193,4.688,0.193
		c3.327,0,6.618,0,9.763,0c13.253,0,25.547-0.1,38.325,0.193c0.19,1.721,0.077,3.631,0.097,5.51
		c0.019,1.848,0.203,3.772-0.097,5.413c-14.047,0.073-27.888,0-42.53,0c-3.841,0-7.281,0.061-10.632-0.097
		c-6.635-0.313-10.774-3.888-13.049-8.603c-1.202-2.491-1.353-5.551-1.353-9.424c0-3.394-0.074-7.066-0.049-10.487
		c0.014-1.849-0.051-3.548,0.29-5.026c0.33-1.428,0.896-2.68,1.595-3.818c2.777-4.524,6.939-7.298,14.354-7.298
		c10.583,0,20.981,0.048,32.042,0.048c1.873,0,3.838,0.146,5.268-0.145c1.392-0.283,2.442-1.269,2.804-2.562
		c0.311-1.116,0.144-2.698,0.144-4.059c0-3.591,0.001-6.756,0-10.488c0-0.63-0.098-1.81,0.146-1.981
		c0.035-0.045,0.088-0.073,0.145-0.097C60.521,0.058,64.38-0.111,67.666,0.153z"/>
	<path style="fill-rule:evenodd;clip-rule:evenodd;" d="M79.169,36.013c0.148,3.609,0.171,7.51,0,11.067
		c-18.559,0.185-37.686,0.154-56.594-0.048c-0.176-3.042-0.097-6.626-0.097-9.908c0-0.402-0.111-0.905,0.193-1.208
		C41.325,35.92,60.246,35.772,79.169,36.013z"/>
</g>
<g id="Layer_1">
</g>
</svg>
