<?xml version="1.0" encoding="iso-8859-1"?>
<!-- Generator: Adobe Illustrator 19.2.0, SVG Export Plug-In . SVG Version: 6.00 Build 0)  -->
<svg version="1.1" xmlns="http://www.w3.org/2000/svg" xmlns:xlink="http://www.w3.org/1999/xlink" x="0px" y="0px"
	 viewBox="0 0 74.204 69.758" style="enable-background:new 0 0 74.204 69.758;" xml:space="preserve">
<g id="dynastructures">
	<path style="fill-rule:evenodd;clip-rule:evenodd;" d="M17.828,0.168c0.162,7.555,0.163,15.804,0,23.409
		c-3.256,0.31-7.009-0.128-10.241,0.146c0.173,0.464,0.722,0.664,1.122,0.879c3.077,1.646,6.327,3.276,9.51,4.876
		c2.748,1.382,5.507,2.675,8.242,4.146c0.875,0.47,1.784,0.929,2.584,1.512c-0.73,0.719-1.746,1.003-2.633,1.463
		c-2.668,1.385-5.42,2.728-8.144,4.097c-2.72,1.367-5.328,2.832-8.095,4.193c-0.884,0.435-1.852,0.776-2.585,1.464
		c0.741,0.265,1.611,0.143,2.439,0.146c2.381,0.011,5.28,0.005,7.803,0.146c0.16,7.695,0.153,15.835-0.049,23.019
		c-5.812,0.174-11.728,0.085-17.654-0.049C-0.047,55.162,0.028,40.53,0.028,25.771c0-4.325-0.064-8.696,0-12.875
		C0.082,9.355,0.077,6.095,0.077,2.168c0-0.777-0.104-1.935,0.195-2.049c0.036-0.045,0.089-0.073,0.146-0.097
		c4.447-0.062,8.995,0.084,13.313,0C15.121-0.005,16.525-0.046,17.828,0.168z"/>
	<path style="fill-rule:evenodd;clip-rule:evenodd;" d="M40.896,0.168c7.91,0.607,14.055,3.108,18.921,6.73
		c4.888,3.638,8.851,8.221,11.412,14.191c1.71,3.987,2.949,8.645,2.975,14.045c0.025,5.31-1.281,10.145-3.023,14.045
		c-1.756,3.932-4.173,7.345-6.925,10.095c-4.31,4.309-9.408,7.609-16.191,9.412c-2.236,0.595-4.723,1.051-7.364,0.927
		c-0.211-6.508-0.097-13.193-0.098-20.189c0-0.936-0.117-1.894,0.146-2.78c3.022-0.188,6.897,0.121,9.997-0.146
		c-0.244-0.464-0.804-0.614-1.219-0.829c-3.1-1.601-6.21-3.339-9.363-4.925c-3.612-1.816-7.231-3.621-10.729-5.559
		c0.691-0.674,1.701-1.03,2.633-1.463c5.43-2.816,10.94-5.724,16.435-8.485c0.765-0.385,1.664-0.649,2.243-1.317
		c-3.059-0.402-7.034,0.109-10.046-0.341c-0.168-6.327-0.097-13.608-0.098-20.482c0-0.934-0.019-2.272,0.146-2.829
		C40.785,0.221,40.837,0.192,40.896,0.168z"/>
</g>
<g id="Layer_1">
</g>
</svg>
