<?xml version="1.0" encoding="iso-8859-1"?>
<!-- Generator: Adobe Illustrator 19.2.0, SVG Export Plug-In . SVG Version: 6.00 Build 0)  -->
<svg version="1.1" xmlns="http://www.w3.org/2000/svg" xmlns:xlink="http://www.w3.org/1999/xlink" x="0px" y="0px"
	 viewBox="0 0 78.439 78.69" style="enable-background:new 0 0 78.439 78.69;" xml:space="preserve">
<g id="E_x5F_Merck_x5F_68">
	<path style="fill-rule:evenodd;clip-rule:evenodd;" d="M78.27,0.106c0.139,13.074,0.146,26.09,0.146,39.205
		c0,9.703,0,19.422,0,29.427c0,3.28,0.094,6.549-0.098,9.777c-25.603,0.204-51.683,0.195-78.018,0.146
		c-0.021-0.044-0.043-0.087-0.099-0.098C0.075,72.163,0,65.705,0.106,59.255c0.08-4.892-0.227-9.869-0.05-14.567
		c0.061-1.607,0.049-3.233,0.05-4.839c0-12.933-0.101-26.399,0.049-39.644c6.613-0.152,13.187-0.146,20.188-0.147
		c4.557,0,8.842,0.001,13.394,0C48.428,0.056,63.791-0.098,78.27,0.106z M65.755,4.75C60.303,4.75,55.079,4.799,49.966,4.799
		c-1.114-0.001-2.555,0.062-3.96,0C44.891,4.75,43.052,4.53,41.998,4.75c-0.703,0.147-0.489,1.306-0.489,2.493
		c-0.001,12.933,0.001,25.921,0,38.667c0,0.903,0.116,1.88-0.146,2.64c-1.303,0.08-3.306,0.346-4.448-0.049
		c-0.059-3.43-0.001-7.027,0-10.656c0.001-3.706-0.057-7.451,0-11.097c0.058-3.72,0.121-7.393,0.049-11.048
		c-0.034-1.742-0.007-3.479-0.049-5.231c-0.044-1.849,0.152-3.731-0.146-5.572c-10.766-0.17-21.62-0.158-31.921,0.049
		C4.657,16.198,4.75,27.75,4.749,39.31c-0.001,10.059,0,20.245,0,30.21c0,1.411-0.12,2.826,0.146,4.204
		c3.047,0.21,6.743,0.099,10.119,0.098c1.167,0,2.333,0.118,3.372-0.146c0.139-7.305,0.138-14.815,0.099-22.095
		c-0.04-7.25-0.129-14.481,0.098-21.509c0.65-0.162,1.505-0.097,2.346-0.098c0.814,0,1.709-0.11,2.298,0.147
		c0.25,13.999-0.075,29.111,0.196,43.555c1.276,0.264,2.602,0.147,3.91,0.146c6.338-0.001,13.184-0.049,19.847-0.049
		c2.693,0,5.397,0.113,8.017-0.146c0.105-13.574,0.027-27.616,0.098-41.062c0.005-0.865-0.165-1.767,0.146-2.591
		c1.408-0.051,3.268-0.142,4.596,0.049c0.321,14.307-0.158,29.426,0.244,43.604c2.2,0.132,4.47,0.156,6.696,0.146
		c2.2-0.009,4.5,0.104,6.648-0.146c0.132-11.479,0.158-22.991,0.098-34.414c-0.03-5.69-0.192-11.491,0-17.207
		c0.145-4.311-0.084-8.686,0-12.856c0.028-1.407,0.096-2.859-0.146-4.253C71.001,4.65,68.389,4.75,65.755,4.75z"/>
</g>
<g id="Layer_1">
</g>
</svg>
