<?xml version="1.0" encoding="iso-8859-1"?>
<!-- Generator: Adobe Illustrator 19.2.0, SVG Export Plug-In . SVG Version: 6.00 Build 0)  -->
<svg version="1.1" xmlns="http://www.w3.org/2000/svg" xmlns:xlink="http://www.w3.org/1999/xlink" x="0px" y="0px"
	 viewBox="0 0 70.487 72.316" style="enable-background:new 0 0 70.487 72.316;" xml:space="preserve">
<g id="Easons_x5F_Advertising_x5F_Service">
	<path style="fill-rule:evenodd;clip-rule:evenodd;" d="M70.28,40.072c-0.043,0.021-0.086,0.042-0.096,0.095
		c-4.864,0.271-9.824-0.004-14.833,0.095c-12.403,0.245-25.253-0.083-37.77,0.047c-1.248,0.013-2.506-0.047-3.744-0.047
		c-1.207,0-2.436-0.126-3.602,0.19c-0.009,0.039-0.047,0.047-0.047,0.095c-0.116,0.76,0.094,1.561,0.285,2.274
		c1.318,4.944,3.792,9.096,7.061,12.132c1.876,2.198,4.399,3.752,7.25,5.118c2.676,1.282,6.208,2.301,9.999,2.37
		c5.144,0.094,9.474-1.767,12.843-3.602c4.219-2.298,7.829-6.145,10.046-10.52c0.436-0.861,0.729-1.886,1.517-2.559
		c2.335-0.086,5.032-0.047,7.535-0.047c0.803,0,1.686-0.166,2.274,0.237c0.047,0.882-0.295,1.724-0.568,2.512
		c-0.267,0.768-0.627,1.523-0.948,2.227c-3.299,7.235-8.201,12.958-14.928,16.824c-1.367,0.786-2.714,1.558-4.217,2.133
		c-4.269,1.63-10.284,3.26-16.161,2.464c-1.888-0.255-3.641-0.516-5.355-0.995c-1.697-0.475-3.309-0.901-4.787-1.517
		c-5.922-2.467-10.596-6.404-14.359-10.994c-0.984-1.2-1.863-2.401-2.654-3.697c-0.408-0.666-0.671-1.392-1.043-2.132
		c-1.753-3.486-3.136-7.483-3.696-12.132c-0.485-4.02-0.352-8.145,0.426-11.706c0.374-1.709,0.971-3.26,1.517-4.833
		c0.53-1.527,1.318-2.905,1.895-4.407c0.512-1.331,1.49-2.731,2.37-3.981c0.89-1.264,1.942-2.416,2.938-3.412
		c2.137-2.137,4.369-4.129,6.824-5.829c2.572-1.78,5.3-3.198,8.341-4.36c1.533-0.585,3.125-1.229,4.833-1.516
		c1.773-0.298,3.613-0.47,5.734-0.569c6.107-0.284,11.336,1.681,15.402,3.649c3.23,1.564,5.925,3.461,8.34,5.876
		c0.797,0.795,1.699,1.483,2.418,2.275c4.532,4.991,7.791,11.112,8.909,19.524c0.278,2.098,0.271,4.478,0.237,6.682
		C70.457,38.738,70.59,39.453,70.28,40.072z M27.201,12.112c-3.974,1.35-7.565,3.721-10.331,6.635
		c-2.063,2.173-3.839,4.707-5.071,7.63c-0.42,0.997-0.966,2.036-0.995,3.175c0.487,0.445,1.224,0.284,1.848,0.284
		c4.862,0,10.224,0.127,14.88-0.047c0.54-0.02,1.346,0.137,1.706-0.189c-0.088-0.525-0.583-0.613-0.9-0.9
		c-2.417-2.186-4.264-5.342-3.791-10.189c0.016-0.159,0.06-0.318,0.095-0.474c0.387-1.728,1.232-3.297,2.132-4.597
		c0.336-0.421,0.876-0.64,0.996-1.279C27.574,12.011,27.339,12.065,27.201,12.112z M42.319,12.254
		c-0.092,0.358,0.221,0.458,0.475,0.806c1.338,1.837,2.416,3.848,2.605,6.682c0.131,1.941-0.334,3.515-0.9,4.833
		c-0.623,1.454-1.672,2.974-2.701,3.934c-0.357,0.334-0.92,0.468-1.09,1.137c0.603,0.326,1.358,0.19,2.038,0.19
		c1.982,0,4.249,0.048,6.444,0.048c2.197,0,4.598-0.048,6.92-0.048c1.143,0,2.34,0.224,3.223-0.237
		c0.023-1.206-0.518-2.265-0.9-3.27c-1.18-3.093-3.092-5.559-5.071-7.819c-2.876-2.874-6.284-5.215-10.9-6.351
		C42.405,12.182,42.354,12.21,42.319,12.254z"/>
</g>
<g id="Layer_1">
</g>
</svg>
