<?xml version="1.0" encoding="iso-8859-1"?>
<!-- Generator: Adobe Illustrator 19.2.0, SVG Export Plug-In . SVG Version: 6.00 Build 0)  -->
<svg version="1.1" xmlns="http://www.w3.org/2000/svg" xmlns:xlink="http://www.w3.org/1999/xlink" x="0px" y="0px"
	 viewBox="0 0 77.168 78.161" style="enable-background:new 0 0 77.168 78.161;" xml:space="preserve">
<g id="eastman_x5F_machine_x5F_co">
	<path style="fill-rule:evenodd;clip-rule:evenodd;" d="M37.332,17.372c-0.377,0.276-0.882,0.212-1.363,0.304
		c-8.16,1.556-13.65,5.682-16.762,12.369c-0.796,1.712-1.282,3.471-1.666,5.604c-0.114,0.635-0.133,1.339-0.454,1.969
		c-2.815-0.614-5.685-1.684-8.634-2.523c-2.003-0.571-4.229-1.295-6.412-1.97c-0.61-0.188-1.803-0.432-1.969-0.808
		c-0.275-0.623,0.315-2.081,0.454-2.625C1,27.843,1.42,26.481,2.041,24.895c0.297-0.758,0.457-1.583,1.01-2.121
		c1.829,0.302,3.751,0.981,5.655,1.565c0.572,0.176,1.385,0.597,1.868,0.505c0.801-0.152,0.755-1.634,1.414-2.07
		c0.089-0.658,1.281-1.424,1.262-2.171c-0.012-0.516-0.891-1.093-1.312-1.515c-1.057-1.057-1.649-1.699-2.777-2.827
		c-0.386-0.386-1.239-1.161-1.262-1.515c-0.04-0.613,1.053-1.567,1.464-2.019c1.499-1.648,2.727-2.765,4.494-4.241
		c0.305-0.255,0.672-0.694,1.01-0.707c0.571-0.02,1.178,0.9,1.515,1.263c0.507,0.547,0.939,0.926,1.363,1.414
		c0.482,0.339,0.903,0.853,1.414,1.363c0.385,0.384,1.012,1.214,1.515,1.262c0.864,0.082,1.583-1.118,2.373-1.262
		c0.64-0.556,1.716-0.675,2.171-1.414c-0.233-1.342-0.643-2.592-1.01-3.837c-0.362-1.23-0.819-2.439-0.959-3.736
		c0.411-0.587,1.23-0.704,1.919-0.959c1.986-0.737,4.407-1.47,6.766-1.817c0.118-0.019,0.353-0.114,0.605,0
		c0.384,0.172,0.608,1.448,0.757,2.019c0.564,2.164,1.233,4.448,1.818,6.514c0.398,1.406,1.016,2.851,1.262,4.291
		c0.139,0.814,0.29,1.532,0.505,2.272C37.097,15.904,37.383,16.65,37.332,17.372z"/>
	<path style="fill-rule:evenodd;clip-rule:evenodd;" d="M54.549,3.185c-0.327,1.977-0.993,3.713-1.565,5.654
		c-0.131,0.445-0.546,1.436-0.454,1.919c0.107,0.558,1.645,1.122,2.121,1.414c0.8,0.49,1.343,0.993,2.171,1.311
		c1.192-0.675,1.9-1.836,2.928-2.675c0.487-0.439,0.88-0.881,1.414-1.414c0.341-0.341,1.004-1.25,1.515-1.263
		c0.542-0.012,1.64,1.135,2.019,1.465c1.294,1.122,2.322,2.241,3.383,3.483c0.547,0.641,1.22,1.184,1.464,1.97
		c-0.189,0.694-0.845,1.097-1.312,1.564c-1.384,1.384-2.859,2.789-4.14,4.342c0.344,0.912,0.885,1.553,1.414,2.424
		c0.368,0.606,0.797,2.143,1.515,2.271c0.47,0.085,1.46-0.323,1.918-0.454c0.651-0.186,1.286-0.34,1.818-0.505
		c1.285-0.398,2.402-0.833,3.635-0.959c0.628,0.427,0.805,1.313,1.061,2.02c0.271,0.748,0.531,1.538,0.757,2.322
		c0.457,1.586,0.91,3.346,0.959,5.1c-1.206,0.716-2.732,0.924-4.19,1.362c-3.52,1.061-7.166,2.078-10.704,3.182
		c-0.69,0.216-1.435,0.498-2.171,0.354c-0.349-0.498-0.352-1.312-0.455-2.02c-0.691-4.764-2.745-8.661-5.453-11.562
		c-3.109-3.331-7.342-5.874-12.723-6.766c-0.475-0.078-1.115-0.008-1.515-0.303c-0.051-0.764,0.299-1.498,0.505-2.222
		c1.22-4.285,2.446-8.442,3.787-12.874c0.189-0.625,0.494-1.747,0.757-2.07c0.685-0.222,1.888,0.171,2.828,0.404
		c1.678,0.416,3.215,0.859,4.695,1.464C53.29,2.435,54.06,2.684,54.549,3.185z"/>
	<path style="fill-rule:evenodd;clip-rule:evenodd;" d="M37.434,30.398c4.386-0.443,7.308,1.923,8.684,4.443
		c1.464,2.682,1.31,6.352-0.151,8.785c-0.645,1.073-1.567,1.987-2.474,2.625c-2.864,2.016-6.907,1.978-9.643,0.101
		c-2.31-1.584-4.123-4.405-3.837-8.179c0.137-1.81,0.858-3.248,1.414-4.039c0.706-1.006,1.661-2.02,2.777-2.676
		C35.025,30.975,36.106,30.533,37.434,30.398z"/>
	<path style="fill-rule:evenodd;clip-rule:evenodd;" d="M37.231,60.792c-0.032,1.038-0.549,1.946-0.757,2.929
		c-0.143,0.672-0.16,1.319-0.353,1.969c-0.859,2.887-1.841,6.026-2.676,8.936c-0.335,1.169-0.55,2.387-1.161,3.434
		c-0.866,0.139-1.732-0.204-2.575-0.403c-0.834-0.198-1.667-0.462-2.474-0.707c-1.614-0.49-3.267-0.987-4.494-1.868
		c0.461-1.94,1.018-3.656,1.616-5.654c0.164-0.549,0.602-1.381,0.505-1.919c-0.109-0.605-1.689-1.172-2.171-1.465
		c-0.324-0.196-0.697-0.438-1.111-0.706c-0.337-0.218-0.777-0.615-1.161-0.606c-0.579,0.014-1.147,0.895-1.565,1.312
		c-0.554,0.555-1.023,1.024-1.414,1.414c-1.001,1.001-1.779,2.103-2.979,2.677c-2.352-1.596-4.319-3.65-6.16-5.958
		c-0.265-0.332-0.695-0.692-0.707-1.01c-0.019-0.528,0.897-1.149,1.313-1.566c1.05-1.05,1.754-1.794,2.827-2.827
		c0.349-0.336,1.271-1.055,1.312-1.515c0.029-0.32-0.419-0.913-0.605-1.212c-0.24-0.384-0.478-0.802-0.656-1.111
		c-0.458-0.793-0.75-1.508-1.414-2.12c-1.984,0.39-3.676,0.985-5.654,1.565c-0.423,0.124-1.474,0.523-1.868,0.404
		c-0.51-0.155-0.838-1.455-1.06-2.07c-0.275-0.763-0.558-1.606-0.757-2.323c-0.482-1.73-0.941-3.29-1.01-5.099
		c0.52-0.468,1.275-0.618,1.918-0.808c4.836-1.428,9.806-2.859,14.642-4.241c0.736-0.21,0.742,1.227,0.858,1.867
		c0.914,5.062,3.074,9.032,6.008,11.967c3.116,3.115,6.72,5.148,11.764,6.21C35.854,60.422,36.599,60.402,37.231,60.792z"/>
	<path style="fill-rule:evenodd;clip-rule:evenodd;" d="M60.254,40.395c4.913,1.426,9.911,3.136,14.844,4.594
		c0.669,0.198,1.437,0.258,1.969,0.758c-0.222,2.725-1.015,5.034-1.919,7.473c-0.22,0.594-0.601,1.897-1.111,2.02
		c-0.438,0.104-1.577-0.346-1.969-0.454c-1.271-0.356-2.321-0.779-3.635-1.162c-0.568-0.165-1.416-0.527-1.868-0.403
		c-0.476,0.13-1.1,1.487-1.414,2.02c-0.177,0.299-0.343,0.713-0.606,1.11c-0.219,0.332-0.615,0.705-0.606,1.061
		c0.013,0.503,0.82,1.106,1.262,1.565c0.965,1.002,1.795,1.794,2.828,2.827c0.325,0.325,1.284,1.08,1.312,1.515
		c0.021,0.323-0.438,0.836-0.656,1.11c-1.619,2.034-3.25,3.584-5.251,5.302c-0.283,0.243-0.691,0.698-1.01,0.707
		c-0.587,0.015-1.211-0.94-1.565-1.313c-0.529-0.557-0.915-0.883-1.363-1.464c-0.533-0.412-0.92-0.87-1.464-1.413
		c-0.368-0.368-0.957-1.275-1.515-1.313c-0.337-0.022-0.896,0.404-1.211,0.606c-0.407,0.26-0.807,0.523-1.111,0.707
		c-0.847,0.509-1.669,0.761-2.221,1.413c0.485,2.695,1.593,5.037,1.969,7.674c-0.452,0.626-1.309,0.797-2.019,1.061
		c-2.135,0.793-4.606,1.627-7.22,1.768c-0.59-0.483-0.611-1.335-0.808-2.02c-1.229-4.28-2.584-8.761-3.787-13.178
		c-0.194-0.715-0.593-1.415-0.454-2.171c0.426-0.343,1.042-0.33,1.515-0.404c1.616-0.253,3.12-0.584,4.544-1.06
		c4.043-1.353,7.183-4,9.593-7.019c2.104-2.637,3.729-5.964,4.393-10.098c0.081-0.505,0.14-1.561,0.404-1.717
		C60.14,40.449,60.195,40.419,60.254,40.395z"/>
</g>
<g id="Layer_1">
</g>
</svg>
