<?xml version="1.0" encoding="iso-8859-1"?>
<!-- Generator: Adobe Illustrator 19.2.0, SVG Export Plug-In . SVG Version: 6.00 Build 0)  -->
<svg version="1.1" xmlns="http://www.w3.org/2000/svg" xmlns:xlink="http://www.w3.org/1999/xlink" x="0px" y="0px"
	 viewBox="0 0 81.085 81.601" style="enable-background:new 0 0 81.085 81.601;" xml:space="preserve">
<g id="echter_x5F_verlag">
	<path style="fill-rule:evenodd;clip-rule:evenodd;" d="M81.077,40.215c-3.699,0.251-8.011,0.195-11.696,0.05
		c-0.361-1.825-0.496-3.561-0.899-5.198c-1.181-4.785-3.482-8.68-6.248-11.946c-3.659-4.32-8.595-7.765-15.144-9.147
		c-0.354,0.863-0.2,2.007-0.2,3.149c0.001,7.644,0.148,15.695-0.05,23.192c-4.102,0.145-8.562,0.197-12.546,0.05
		c-0.186-1.006-0.15-2.085-0.15-3.149c0-6.557,0.237-13.449-0.051-19.993c-0.047-1.078,0.154-2.179-0.149-3.199
		c-1.673,0.156-3.159,0.836-4.599,1.399c-2.885,1.13-5.345,2.813-7.547,4.648c-1.115,0.93-2.053,1.981-3.049,3.049
		c-1.981,2.123-3.413,4.666-4.649,7.547c-0.922,2.151-1.643,4.427-2.049,7.097c-0.129,0.847-0.092,1.741-0.399,2.599
		c-3.79,0.065-7.875,0.144-11.646-0.05c-0.111-6.437,1.41-11.808,3.498-16.394C7.625,14.867,14.377,7.874,23.497,3.728
		c2.358-1.072,4.783-1.991,7.447-2.599c2.745-0.627,5.607-0.947,8.897-1.1c3.164-0.147,6.729,0.284,9.396,0.9
		c8.479,1.957,14.488,5.665,19.793,10.746c3.46,3.314,6.318,7.392,8.347,11.996C79.435,28.342,81.217,33.78,81.077,40.215z"/>
	<path style="fill-rule:evenodd;clip-rule:evenodd;" d="M80.927,43.764c0.057,1.489-0.131,2.971-0.399,4.349
		c-1.335,6.854-4,12.291-7.447,17.044c-4.133,5.696-9.527,9.839-16.345,13.045c-4.504,2.118-9.95,3.398-16.194,3.399
		c-6.336,0.001-11.593-1.462-16.294-3.349c-2.253-0.904-4.417-2.155-6.349-3.449c-1.877-1.258-3.763-2.863-5.348-4.448
		C6.811,64.615,2.417,57.787,0.605,48.012c-0.252-1.354-0.58-2.776-0.451-4.249c16.615-0.03,33.742-0.05,50.483-0.05
		c4.134,0,8.267-0.05,12.545-0.05c4.851,0,9.61,0,14.546,0C78.81,43.664,79.902,43.522,80.927,43.764z"/>
</g>
<g id="Layer_1">
</g>
</svg>
