<?xml version="1.0" encoding="iso-8859-1"?>
<!-- Generator: Adobe Illustrator 19.2.0, SVG Export Plug-In . SVG Version: 6.00 Build 0)  -->
<svg version="1.1" xmlns="http://www.w3.org/2000/svg" xmlns:xlink="http://www.w3.org/1999/xlink" x="0px" y="0px"
	 viewBox="0 0 81.166 22.422" style="enable-background:new 0 0 81.166 22.422;" xml:space="preserve">
<g id="Economic_x5F_and_x5F_Investment_x5F_Bank">
	<path style="fill-rule:evenodd;clip-rule:evenodd;" d="M31.52,0.216c0.158,1.382,0.17,3.426,0,4.807
		c-4.083,0.297-8.558-0.107-12.619,0.201c0.234,0.896,0.842,1.623,1.302,2.403c0.452,0.765,0.899,1.544,1.353,2.303
		c0.922,1.541,1.899,3.081,2.703,4.657c0.441,0.864,0.723,1.809,1.503,2.454c0.639-0.549,0.967-1.357,1.402-2.053
		c2.592-4.145,5.18-8.562,7.711-12.818c0.417-0.702,0.723-1.507,1.352-2.053c0.978-0.091,2.109-0.05,3.205-0.05
		c1.065,0,2.122-0.112,2.904,0.1c-0.329,1.057-1.002,1.965-1.552,2.904c-2.684,4.575-5.475,9.202-8.263,13.77
		c-1.107,1.813-2.094,3.725-3.405,5.408c-2.187,0.056-4.441,0.03-6.609-0.05c-0.66-0.505-0.981-1.334-1.402-2.053
		c-0.423-0.723-0.926-1.417-1.302-2.153c-2.675-4.219-5.11-8.677-7.861-12.819c-3.689-0.257-7.914,0.078-11.817-0.2
		c-0.161-1.38-0.169-3.428,0-4.807c1.729-0.358,4.18-0.013,6.359-0.1c1.832-0.073,3.696-0.045,5.508-0.05
		c4.923-0.014,9.925,0.05,14.722,0.05C28.342,0.066,29.963-0.056,31.52,0.216z"/>
	<path style="fill-rule:evenodd;clip-rule:evenodd;" d="M50.397,0.166c-0.313,1.055-0.98,1.99-1.553,2.904
		c-2.827,4.523-5.566,9.184-8.361,13.77c-1.11,1.822-2.212,3.668-3.455,5.408c-1.906,0.051-4.286,0.149-6.109-0.05
		c0.299-1.073,0.992-1.964,1.553-2.904c1.617-2.718,3.269-5.539,4.957-8.262c2.264-3.651,4.353-7.38,6.76-10.915
		C46.128,0.066,48.541-0.033,50.397,0.166z"/>
	<path style="fill-rule:evenodd;clip-rule:evenodd;" d="M81.042,17.491c0.166,1.376,0.166,3.432,0,4.807
		c-10.279,0.178-21.307,0.166-31.445-0.05c-0.255-1.306-0.202-3.425-0.05-4.807c3.047-0.182,6.547-0.101,9.813-0.101
		c1.084,0,2.188,0.122,3.155-0.15c-0.408-1.111-1.095-2.083-1.653-3.105c-1.088-1.993-2.4-3.876-3.504-5.909
		c-0.543-0.998-1.036-2.059-1.804-2.904c-0.656,0.511-1.038,1.309-1.451,2.003c-2.542,4.261-5.164,8.66-7.712,12.919
		c-0.42,0.701-0.709,1.513-1.352,2.053c-1.929,0.024-4.445,0.206-6.209-0.1c0.336-1.05,1.042-1.928,1.602-2.854
		c1.648-2.726,3.281-5.449,5.008-8.212c1.924-3.078,3.867-6.38,5.858-9.564c0.308-0.491,0.563-1.146,0.901-1.352
		c0.037-0.047,0.091-0.076,0.15-0.1c2.171,0.032,4.471-0.065,6.56,0.05c1.313,1.573,2.236,3.539,3.354,5.308
		c1.121,1.75,2.143,3.599,3.255,5.357c0.533,1.326,1.319,2.506,2.053,3.706c0.586,0.958,1.108,1.983,1.853,2.804
		c2.795,0.091,5.869,0.05,8.813,0.05C79.201,17.341,80.186,17.223,81.042,17.491z"/>
</g>
<g id="Layer_1">
</g>
</svg>
