<?xml version="1.0" encoding="iso-8859-1"?>
<!-- Generator: Adobe Illustrator 19.2.0, SVG Export Plug-In . SVG Version: 6.00 Build 0)  -->
<svg version="1.1" xmlns="http://www.w3.org/2000/svg" xmlns:xlink="http://www.w3.org/1999/xlink" x="0px" y="0px"
	 viewBox="0 0 79.285 79.359" style="enable-background:new 0 0 79.285 79.359;" xml:space="preserve">
<g id="Ed_x5F_Suter_x5F_69">
	<path style="fill-rule:evenodd;clip-rule:evenodd;" d="M75.579,23.266c-0.779,0.346-1.708,0.195-2.581,0.195
		c-6.315,0-12.984,0.138-18.992-0.097c-0.551-0.539,0.164-2.169-0.34-2.678c-0.243-0.245-1.573-0.15-2.338-0.146
		c-2.494,0.014-4.664,0.376-6.817,0.633c-7.334,0.875-13.327,3.23-19.04,5.795c-0.564,0.253-1.167,0.494-1.705,0.779
		c-0.512,0.271-1.149,0.534-1.411,1.071c0.928,0.337,2.11,0.194,3.311,0.195c17.384,0,34.704-0.092,52.105,0.097
		c0.496,1.174,0.656,2.524,0.876,3.847c0.226,1.359,0.413,2.764,0.536,4.188c0.254,2.948,0.014,6.057-0.438,8.814
		c-1.74,10.601-7.037,18.219-13.732,23.958c-5.088,4.361-11.33,7.696-19.332,8.96c-8.818,1.393-17.861-0.354-23.618-3.652
		c-2.057-1.178-4.074-2.216-5.892-3.555c-1.785-1.314-3.444-2.782-4.967-4.431c-1.494-1.618-3.046-3.234-4.334-5.113
		c-0.941-1.373-1.811-2.872-2.582-4.48c-0.256-0.534-0.642-1.071-0.633-1.705c0.793-0.287,1.67-0.14,2.532-0.146
		c5.171-0.034,10.659,0,16.07,0c0.859,0,1.763-0.11,2.58,0.146c0.362,0.714-0.208,2.182,0.293,2.678
		c0.235,0.233,1.629,0.182,2.386,0.146c10.266-0.485,18.816-3.014,26.102-6.477c0.564-0.269,1.147-0.553,1.704-0.828
		c0.525-0.26,1.17-0.489,1.461-1.022c-0.972-0.273-2.131-0.195-3.36-0.195c-14.983,0-30.093,0-45.385,0
		c-1.168,0-2.344-0.028-3.506,0c-1.089,0.026-2.209,0.095-3.263-0.146c-0.496-1.471-0.725-3.076-0.926-4.675
		c-1.602-12.76,2.63-23.245,8.231-30.094c3.409-4.17,7.243-7.616,12.027-10.275c4.839-2.69,10.545-4.69,17.434-5.016
		c4.912-0.231,9.509,0.63,13.392,1.802c7.798,2.355,13.547,6.729,18.358,12.028c0.577,0.635,1.102,1.409,1.655,2.142
		c1.104,1.462,2.045,2.926,2.971,4.626C74.863,21.469,75.425,22.296,75.579,23.266z"/>
</g>
<g id="Layer_1">
</g>
</svg>
