<?xml version="1.0" encoding="iso-8859-1"?>
<!-- Generator: Adobe Illustrator 19.2.0, SVG Export Plug-In . SVG Version: 6.00 Build 0)  -->
<svg version="1.1" xmlns="http://www.w3.org/2000/svg" xmlns:xlink="http://www.w3.org/1999/xlink" x="0px" y="0px"
	 viewBox="0 0 65.132 75.166" style="enable-background:new 0 0 65.132 75.166;" xml:space="preserve">
<g id="Ediciones_x5F_Unidas">
	<path style="fill-rule:evenodd;clip-rule:evenodd;" d="M33.486,0c1.138,0.385,2.9,1.609,3.958,2.199
		c3.917,2.184,7.752,4.652,11.583,6.744c2.63,1.438,5.156,3.039,7.722,4.496c1.936,1.102,3.842,2.217,5.767,3.373
		c0.628,0.377,1.366,0.604,1.857,1.172c-0.347,0.725-1.176,0.973-1.809,1.32c-3.316,1.822-6.554,3.855-9.823,5.816
		c-1.3,0.779-2.546,1.676-3.958,2.248c-0.567-0.453-0.913-1.129-1.222-1.711c-0.716-1.35-1.411-2.771-2.199-4.154
		c-0.4-0.703-0.815-1.426-1.222-2.15c-2.861-5.102-5.72-10.336-8.65-15.492c-0.342-0.602-0.735-1.205-1.075-1.809
		c-0.372-0.66-0.795-1.264-1.026-1.906C33.431,0.107,33.417,0.014,33.486,0z"/>
	<path style="fill-rule:evenodd;clip-rule:evenodd;" d="M31.189,0.049c0.468,0.223-0.047,0.658-0.147,0.83
		c-1.124,1.947-2.174,4.072-3.324,6.06c-3.305,5.719-6.429,11.242-9.726,17.154c-0.28,0.504-0.613,1.023-0.977,1.711
		c-0.245,0.461-0.746,1.49-1.076,1.564c-0.583,0.129-1.571-0.691-2.052-0.979C10.022,24.1,6.49,21.822,2.55,19.549
		c-0.247-0.143-0.622-0.408-0.928-0.586c-0.278-0.16-0.855-0.342-0.88-0.635c-0.028-0.35,1.244-1.051,1.711-1.32
		c4.37-2.525,8.895-5.49,13.245-7.967c2.634-1.498,5.147-3.016,7.673-4.447c2.624-1.486,5.151-3.096,7.77-4.545
		C31.157,0.049,31.173,0.049,31.189,0.049z"/>
	<path style="fill-rule:evenodd;clip-rule:evenodd;" d="M31.825,1.467c0.033,0,0.065,0,0.098,0c0.256,0.682,0.147,1.447,0.147,2.15
		c0,7.625,0,16.186,0,24.436c0,1.494,0.041,2.986,0,4.447c-0.04,1.418,0.226,2.842-0.147,4.154
		c-0.785-0.057-1.367-0.619-2.003-0.977c-2.499-1.406-5.028-2.883-7.575-4.301c-0.631-0.351-1.185-0.857-1.809-1.174
		c-0.654-0.332-1.318-0.647-1.955-1.025c-0.584-0.348-1.255-0.69-1.711-1.223c0.413-1.225,1.161-2.289,1.759-3.42
		c1.746-3.301,3.819-6.535,5.572-9.873c1.169-2.227,2.522-4.353,3.763-6.549c1.232-2.182,2.426-4.391,3.714-6.549
		C31.714,1.518,31.767,1.49,31.825,1.467z"/>
	<path style="fill-rule:evenodd;clip-rule:evenodd;" d="M33.046,36.654c-0.264-0.729-0.146-1.545-0.146-2.297
		c0-8.231,0.001-16.762,0-25.268c0-1.236,0.062-2.518,0.049-3.762c-0.013-1.215-0.096-2.562,0-3.617
		c-0.002-0.084,0.037-0.127,0.098-0.146c0.688,0.561,1.471,2.312,2.004,3.176c2.651,4.301,4.924,8.598,7.429,13.098
		c0.921,1.656,1.767,3.246,2.786,4.938c0.636,1.057,1.065,2.154,1.76,3.322c0.281,0.475,0.877,1.381,0.831,1.711
		c-0.061,0.434-1.276,0.947-1.71,1.271c-0.672,0.5-1.279,0.812-1.809,1.123c-2.565,1.504-4.852,3.025-7.428,4.398
		c-0.643,0.344-1.279,0.693-1.906,1.076C34.401,36.043,33.794,36.525,33.046,36.654z"/>
	<path style="fill-rule:evenodd;clip-rule:evenodd;" d="M64.96,55.178c-0.556-0.361-0.808-1.022-1.124-1.565
		c-2.238-3.844-4.598-7.834-6.842-11.73c-2.386-4.037-4.404-7.682-6.842-11.729c-0.25-0.414-0.906-1.389-0.88-1.76
		c0.039-0.553,1.212-1.004,1.759-1.318c1.981-1.139,3.932-2.385,5.719-3.471c2.653-1.611,5.09-2.994,7.77-4.496
		c0.562-0.314,0.537,0.426,0.537,1.125c0,3.434,0,7.354,0,10.752c0,6.262,0.041,12.234,0,18.229
		C65.045,51.195,65.286,53.383,64.96,55.178z"/>
	<path style="fill-rule:evenodd;clip-rule:evenodd;" d="M0.204,19.207c2.697,1.201,5.195,3.029,7.722,4.496
		c1.802,1.047,3.745,2.264,5.718,3.373c0.511,0.287,1.695,0.887,1.76,1.27c0.087,0.523-0.64,1.353-0.88,1.76
		c-1.008,1.701-1.812,3.44-2.884,4.984c-0.928,1.684-1.845,3.41-2.835,5.084c-0.976,1.652-2.045,3.293-2.834,5.033
		c-0.79,1.742-1.899,3.354-2.834,5.033c-0.471,0.846-0.945,1.707-1.417,2.543c-0.462,0.814-0.834,1.738-1.564,2.346
		C0.013,44.902,0.008,34.652,0.009,23.898c0-1.514-0.039-3.215,0.049-4.545C0.085,19.283,0.134,19.234,0.204,19.207z"/>
	<path style="fill-rule:evenodd;clip-rule:evenodd;" d="M33.144,75.166c-0.281-0.717-0.11-1.484-0.146-2.248
		c-0.25-5.289-0.001-11.104-0.098-16.275c-0.098-5.273,0-10.516,0-16.273c0-0.799-0.123-1.754,0.049-2.297
		c0.157-0.498,1.192-0.949,1.759-1.271c4.565-2.59,8.815-5.232,13.196-7.867c0.628-0.473,1.056,0.619,1.369,1.172
		c4.249,7.524,9.165,15.594,13.293,23.02c0.599,1.176,1.534,2.277,1.906,3.518c-0.381,0.68-1.176,0.957-1.809,1.32
		c-5.215,2.994-10.544,6.078-15.786,9.187c-0.642,0.381-1.259,0.824-1.906,1.223c-3.2,1.969-6.534,3.9-9.824,5.816
		C34.525,74.551,33.9,75.074,33.144,75.166z"/>
	<path style="fill-rule:evenodd;clip-rule:evenodd;" d="M32.069,38.023c0.078,5.594,0.098,11.08,0.098,16.762
		c0,5.664-0.16,11.348,0,17.107c0.03,1.092,0.066,2.213-0.147,3.273c-0.762-0.09-1.401-0.613-2.052-0.977
		c-0.672-0.375-1.301-0.807-1.955-1.174c-6.883-3.986-13.75-8.07-20.673-12.072c-1.724-0.996-3.396-2.055-5.131-3.078
		c-0.541-0.318-1.215-0.545-1.613-1.074c0.25-0.881,0.79-1.654,1.222-2.445c0.842-1.539,1.779-3.016,2.639-4.594
		c0.418-0.766,0.943-1.514,1.32-2.297c0.142-0.295,0.198-0.635,0.342-0.928c0.737-1.502,1.697-2.936,2.541-4.398
		c2.102-3.643,4.15-7.227,6.255-10.996c0.419-0.75,0.9-1.631,1.32-2.152c0.592-0.174,1.555,0.557,2.248,0.979
		c1.889,1.15,3.975,2.35,5.865,3.422c1.367,0.775,2.729,1.477,3.959,2.248C29.6,36.439,31.033,36.973,32.069,38.023z"/>
</g>
<g id="Layer_1">
</g>
</svg>
