<?xml version="1.0" encoding="iso-8859-1"?>
<!-- Generator: Adobe Illustrator 19.2.0, SVG Export Plug-In . SVG Version: 6.00 Build 0)  -->
<svg version="1.1" xmlns="http://www.w3.org/2000/svg" xmlns:xlink="http://www.w3.org/1999/xlink" x="0px" y="0px"
	 viewBox="0 0 56.476 64.114" style="enable-background:new 0 0 56.476 64.114;" xml:space="preserve">
<g id="Editorial_x5F_Tiempo_x5F_Nuevo">
	<path style="fill-rule:evenodd;clip-rule:evenodd;" d="M0.632,0.081c0.492-0.279,1.443,0.238,2,0.477
		c1.573,0.67,3.333,1.495,4.858,2.143c4.628,1.967,8.625,3.405,13.384,5.382c2.067,0.858,4.879,1.876,5.621,3.811
		c0.452,1.181,0.286,3.076,0.286,4.858c0,5.227,0,10.097,0,15.337c0,5.16,0,9.995,0,14.956c0,2.743,0.294,4.896-1,6.288
		c-1.854,1.534-4.721,2.508-7.24,3.477c-5.539,2.131-10.725,4.51-16.194,6.858c-0.486,0.209-1.125,0.522-1.524,0.43
		c-1.142-0.264-0.762-3.013-0.762-4.525c0-5.222-0.081-10.636,0.095-15.575c0.66-0.978,1.904-1.263,2.953-1.763
		c1.057-0.503,2.188-0.987,3.287-1.429c4.51-1.812,8.749-3.648,13.288-5.573c1.582-0.67,3.276-1.313,4.954-2.096
		c0.489-0.228,1.407-0.529,1.429-0.905c0.024-0.417-0.868-0.759-1.381-1c-1.628-0.764-3.474-1.409-5.002-2.144
		c-2.218-1.066-4.555-2.059-6.621-2.857c-2.183-0.844-4.421-1.893-6.668-2.81c-1.058-0.431-2.168-0.974-3.287-1.476
		c-1.266-0.569-2.499-0.818-2.953-1.906c-0.212-0.509-0.126-1.49-0.095-2.334c0.101-2.681-0.009-4.766,0-7.192
		c0.009-2.303,0.001-4.89,0-7.478C0.06,1.763-0.205,0.471,0.632,0.081z"/>
	<path style="fill-rule:evenodd;clip-rule:evenodd;" d="M54.836,0.367c1.617-0.313,1.524,1.109,1.524,2.857
		c0,5.31,0.176,12.372-0.048,17.147c-0.618,1.036-1.925,1.326-3.001,1.762c-3.338,1.354-6.716,2.705-10.003,4.145
		c-3.704,1.622-7.744,3.25-11.622,4.953c-0.592,0.26-1.334,0.477-1.334,1c0,0.76,2.181,1.397,3.001,1.763
		c1.239,0.553,2.28,0.93,3.334,1.381c1.096,0.471,2.187,1.024,3.287,1.478c4.49,1.847,8.716,3.71,13.48,5.477
		c0.989,0.367,2.62,0.947,2.905,1.81c0.198,0.601,0.048,1.727,0.048,2.572c0,4.388-0.001,8.45,0,12.86
		c0,1.601,0.404,4.208-0.763,4.525c-1.268-0.187-2.425-0.727-3.525-1.239c-2.197-1.024-4.427-1.833-6.716-2.81
		c-1.109-0.474-2.279-0.828-3.334-1.382c-2.003-1.052-4.364-1.816-6.764-2.763c-2.412-0.95-4.859-1.511-5.478-4.001
		c-0.34-1.371-0.19-3.197-0.19-4.953c0-10.403,0-20.25,0-30.341c0-1.777-0.126-3.846,0.381-4.954c0.892-1.95,3.407-2.533,5.572-3.43
		c2.245-0.93,4.364-1.727,6.383-2.619c1.028-0.455,2.065-0.951,3.144-1.382c2.153-0.86,4.169-1.748,6.383-2.619
		C52.613,1.167,53.733,0.67,54.836,0.367z"/>
</g>
<g id="Layer_1">
</g>
</svg>
