<?xml version="1.0" encoding="iso-8859-1"?>
<!-- Generator: Adobe Illustrator 19.2.0, SVG Export Plug-In . SVG Version: 6.00 Build 0)  -->
<svg version="1.1" xmlns="http://www.w3.org/2000/svg" xmlns:xlink="http://www.w3.org/1999/xlink" x="0px" y="0px"
	 viewBox="0 0 77.195 70.609" style="enable-background:new 0 0 77.195 70.609;" xml:space="preserve">
<g id="Editora_x5F_Delta">
	<path style="fill-rule:evenodd;clip-rule:evenodd;" d="M72.642,51.105c-0.7,0.697-1.692,1.102-2.602,1.59
		c-1.942,1.152-3.942,2.322-5.925,3.468c-0.636,0.368-1.408,0.612-1.83,1.252c4.6,0.393,10.061-0.074,14.74,0.241
		c0.258,0.989,0.145,2.079,0.145,3.179c0,2.136-0.001,4.316,0,6.503c0,1.08,0.113,2.161-0.145,3.131
		c-19.411,0.145-38.903,0.202-58.383,0.048c-0.262-0.933-0.144-2.018-0.144-3.083c-0.001-3.061,0.104-6.566-0.145-9.2
		c-0.516,0.324-0.725,0.952-1.012,1.445c-1.777,3.054-3.552,6.167-5.299,9.345c-0.231,0.42-0.618,1.384-0.964,1.445
		c-0.314,0.056-1.164-0.542-1.493-0.723c-2.379-1.308-4.558-2.65-6.888-3.95c-0.93-0.518-1.938-0.9-2.698-1.638
		C4.155,56.15,8.977,48.5,13.247,40.555c2.135-3.971,4.405-7.872,6.6-11.802c2.199-3.94,4.586-7.774,6.6-11.802
		c0.344-0.688,0.735-1.345,1.107-2.023c0.352-0.639,0.696-1.333,1.204-1.879c0.967,0.368,1.873,0.905,2.746,1.397
		c0.894,0.504,1.779,0.981,2.65,1.493c1.72,1.013,3.414,2.119,5.347,2.891c-0.347-1.114-0.989-2.156-1.589-3.18
		c-1.496-2.55-2.838-4.978-4.336-7.707c-0.233-0.426-0.824-1.293-0.771-1.638c0.049-0.318,0.865-0.703,1.252-0.915
		c1.386-0.761,2.818-1.554,4.095-2.264c1.745-0.972,3.562-2.196,5.443-3.083c0.612-0.289,0.975,0.911,1.252,1.397
		c0.9,1.582,1.91,3.349,2.746,4.768c5.768,10.289,11.439,20.588,17.342,30.781c0.266,0.458,0.531,0.933,0.771,1.397
		c0.251,0.489,0.408,1.015,0.674,1.493C68.459,43.611,70.695,47.277,72.642,51.105z M66.765,50.479
		c0.363-0.197,1.156-0.521,1.204-0.867c0.059-0.42-0.648-1.305-0.915-1.782c-0.372-0.668-0.742-1.289-0.964-1.782
		c-0.542-1.211-1.059-2.128-1.686-3.228c-3.433-6.024-6.693-11.77-10.116-17.872c-3.518-6.273-7.102-12.833-10.742-19.172
		c-0.309-0.54-0.622-1.282-1.155-0.963c-1.527,0.914-3.626,1.936-4.962,2.986c1.94,3.842,4.123,7.569,6.214,11.32
		c2.091,3.751,4.181,7.499,6.358,11.175c2.19,3.697,4.139,7.527,6.311,11.224c1.633,2.778,3.178,5.633,4.768,8.382
		c0.539,0.931,0.937,1.957,1.687,2.746C64.103,52.214,65.47,51.179,66.765,50.479z M29.722,17.915
		c-2.2,3.564-4.135,7.432-6.263,11.176c-3.147,5.54-6.264,11.18-9.441,16.715c-2.927,5.099-5.773,10.226-8.622,15.367
		c-0.25,0.45-0.781,1.162-0.723,1.493c0.063,0.361,0.796,0.633,1.204,0.867c1.411,0.809,2.769,1.613,4.095,2.216
		c0.707-0.787,1.16-1.773,1.686-2.698c1.593-2.798,3.178-5.597,4.721-8.43c2.032-3.73,4.304-7.396,6.359-11.176
		c3.802-6.991,7.891-14.139,11.753-21.099c0.232-0.417,0.777-1.213,0.723-1.493c-0.05-0.255-0.804-0.623-1.204-0.867
		c-1.314-0.801-2.992-1.649-4.095-2.167C29.843,17.844,29.793,17.89,29.722,17.915z M38.104,22.684
		c-3.425,5.974-6.688,11.827-10.02,17.727c-0.554,0.98-1.208,1.935-1.686,2.938c-0.303,0.636-0.521,1.241-0.867,1.83
		c-2.008,3.419-3.979,7.037-5.925,10.453c-0.32,0.564-0.756,1.151-0.818,1.83c0.818,0.26,1.693,0.145,2.553,0.145
		c12.672,0.001,25.336-0.046,37.38-0.048c0.87,0,1.76,0.113,2.601-0.145c-0.24-0.882-0.752-1.669-1.204-2.457
		c-6.31-10.979-12.362-22.083-18.69-33.045c-0.376-0.652-1.036-2.06-1.493-2.264C39.291,20.415,38.701,21.64,38.104,22.684z
		 M66.428,60.884c-2.401,0-4.845-0.115-7.322-0.048c-4.758,0.128-9.94-0.167-14.548,0.048c-3.747,0.174-7.553,0-11.319,0
		c-2.869,0-5.78,0-8.43,0c-0.876,0-1.804-0.107-2.649,0.192c-0.172,0.89-0.097,2.013-0.097,3.083c0,1.086-0.114,2.196,0.145,3.035
		c8.436,0.091,17.188,0.048,25.819,0.048c8.678,0,17.214,0.038,25.482-0.145c0.076-1.815,0.238-4.311-0.049-6.118
		C71.171,60.775,68.823,60.884,66.428,60.884z"/>
</g>
<g id="Layer_1">
</g>
</svg>
