<?xml version="1.0" encoding="iso-8859-1"?>
<!-- Generator: Adobe Illustrator 21.0.2, SVG Export Plug-In . SVG Version: 6.00 Build 0)  -->
<svg version="1.1" xmlns="http://www.w3.org/2000/svg" xmlns:xlink="http://www.w3.org/1999/xlink" x="0px" y="0px"
	 viewBox="0 0 15.17 8.35" style="enable-background:new 0 0 15.17 8.35;" xml:space="preserve">
<g id="Edward_x5F_and_x5F_Martin">
	<path d="M0.157,0.57c0.203-0.341,0.582-0.564,0.98-0.569c4.257,0,8.515,0.001,12.772,0c0.294-0.013,0.602,0.059,0.833,0.248
		c0.18,0.123,0.284,0.322,0.375,0.513c0.074,0.203,0.042,0.421,0.048,0.632c0.003,2.318-0.005,4.636,0.004,6.954
		c-4.614,0-9.227-0.001-13.84,0C0.984,8.36,0.611,8.279,0.362,8.023C0.142,7.828,0.019,7.539,0,7.249
		c0.002-2.066-0.001-4.133,0.001-6.2C0.023,0.928,0.04,0.801,0.1,0.691C0.119,0.651,0.138,0.611,0.157,0.57z M0.55,1.126
		c0.002,2.042-0.001,4.084,0.002,6.125c0.007,0.244,0.201,0.435,0.415,0.525c0.07,0.011,0.14,0.023,0.211,0.023
		C3.918,7.8,6.658,7.798,9.398,7.8c-0.001-1.74-0.005-3.481,0.002-5.221c0.178,0.018,0.358,0.013,0.536,0.003
		c-0.002,1.74,0.002,3.48-0.002,5.22c0.688-0.004,1.376-0.007,2.063,0.002c-0.001-1.74,0-3.481,0-5.22
		c0.18,0.013,0.361,0.006,0.542,0.005c0,1.738,0,3.476,0,5.214c0.696-0.005,1.393-0.007,2.089,0c0.005-2.226,0-4.451,0.003-6.678
		c0.004-0.263-0.198-0.48-0.436-0.565c-1.197-0.017-2.395-0.002-3.592-0.007c-3.167,0-6.335,0-9.501,0
		C0.809,0.562,0.546,0.831,0.55,1.126z"/>
	<path d="M2.639,2.586C3.989,2.594,5.338,2.588,6.687,2.59c0.204-0.002,0.409,0.006,0.612-0.007c0.001,1.06,0.001,2.119,0,3.179
		c-1.553,0-3.106-0.002-4.659,0.001c0.002-0.185,0.001-0.37-0.004-0.555c1.376,0.003,2.751-0.005,4.127,0.004
		c-0.001-0.696,0-1.393,0-2.089c-1.375,0.011-2.751,0-4.126,0.006C2.643,2.949,2.642,2.768,2.639,2.586z"/>
</g>
<g id="Layer_1">
</g>
</svg>
