<?xml version="1.0" encoding="iso-8859-1"?>
<!-- Generator: Adobe Illustrator 19.2.0, SVG Export Plug-In . SVG Version: 6.00 Build 0)  -->
<svg version="1.1" xmlns="http://www.w3.org/2000/svg" xmlns:xlink="http://www.w3.org/1999/xlink" x="0px" y="0px"
	 viewBox="0 0 34.992 21.605" style="enable-background:new 0 0 34.992 21.605;" xml:space="preserve">
<g id="Egebank">
	<g>
		<polygon points="6.523,0 0,6.549 16.803,6.547 16.803,0 		"/>
		<polygon points="6.523,21.603 16.803,21.603 16.803,15.057 0,15.055 		"/>
		<g>
			<path d="M25.536,6.508c0,0,0.754-0.057,0.786,0.529c0,0,0.026,0.559-0.791,0.51H0.012v6.562h25.524c0,0,0.763-0.066,0.786,0.463
				c0,0,0.044,0.623-0.793,0.547h-7.801v6.486h10.276l6.983-7.027l-3.789-3.725l3.793-3.811L27.997,0L17.726,0.004v6.545
				L25.536,6.508z"/>
		</g>
	</g>
</g>
<g id="Layer_1">
</g>
</svg>
