<?xml version="1.0" encoding="iso-8859-1"?>
<!-- Generator: Adobe Illustrator 19.2.0, SVG Export Plug-In . SVG Version: 6.00 Build 0)  -->
<svg version="1.1" xmlns="http://www.w3.org/2000/svg" xmlns:xlink="http://www.w3.org/1999/xlink" x="0px" y="0px"
	 viewBox="0 0 74.915 43.591" style="enable-background:new 0 0 74.915 43.591;" xml:space="preserve">
<g id="Eidgenossisches_x5F_Institut_x5F_fur_x5F_Reaktorforschung">
	<path style="fill-rule:evenodd;clip-rule:evenodd;" d="M44.466,0.169c0.28,3.455-0.092,7.561,0.188,11.017
		c1.169,0.279,2.402,0.099,3.61,0.14c3.67,0.127,7.535-0.205,11.298-0.046c5.011,0.211,10.123-0.102,15.191,0.094
		c0.246,0.901,0.141,1.935,0.141,2.954c0,2.991,0.062,6.358-0.094,9.001c-1.484,0.277-3.076,0.094-4.642,0.094
		c-4.431,0-9.313-0.038-13.877,0.094c-0.155,1.565-0.141,3.215-0.141,4.876c0,4.843,0.131,10.101-0.094,15.049
		c-9.37,0.195-18.654,0.094-27.988,0.094c-9.19,0-18.581,0.176-27.942-0.094c-0.161-10.432-0.146-21.934,0-32.02
		c9.969-0.282,20.538,0.108,30.005-0.234c0.229-0.794,0.141-1.72,0.141-2.625c0-2.705-0.075-5.801,0.094-8.392
		c2.864-0.072,5.846-0.234,8.814-0.141C40.955,0.084,42.757-0.127,44.466,0.169z M37.668,2.653c-1.576,0-3.368-0.036-4.547,0.047
		c-0.383,0.335-0.235,0.94-0.235,1.407c0,1.698-0.03,3.33-0.047,4.875c-0.008,0.792-0.077,1.601,0.141,2.25
		c2.654,0.14,6.039,0.121,8.815-0.046c0.25-0.61,0.141-1.358,0.141-2.063c-0.001-2.052,0.09-4.255-0.094-6.329
		C40.664,2.543,39.171,2.653,37.668,2.653z M39.356,13.952c-2.135,0-4.398-0.085-6.376,0.094c-0.286,4.284-0.073,8.996-0.141,13.408
		c-0.066,4.381-0.104,8.897,0.047,13.315c0.656,0.283,1.416,0.114,2.157,0.093c2.152-0.06,4.578,0.188,6.751-0.093
		c0.253-1.041,0.141-2.149,0.141-3.235c-0.002-7.799,0.08-15.734-0.094-23.44C41.106,13.79,40.213,13.952,39.356,13.952z
		 M44.7,14.046c-0.253,1.035-0.141,2.155-0.141,3.235c-0.001,7.837-0.079,15.998,0.094,23.488c0.653,0.253,1.39,0.127,2.109,0.093
		c2.359-0.111,4.514,0.206,6.658-0.093c0.186-3.086,0.158-6.601,0.14-9.94c-0.009-1.683,0.006-3.361,0-5.016
		c-0.005-1.673-0.176-3.341,0.095-4.922C59.51,20.584,66.151,21,72.079,20.703c0.253-0.993,0.153-2.185,0.141-3.282
		c-0.013-1.135,0.16-2.355-0.141-3.375C62.694,13.902,53.749,13.837,44.7,14.046z M10.195,13.952c-2.418,0-5.382-0.104-7.454,0.141
		c-0.156,8.718-0.156,18.053,0,26.723c1.993,0.228,4.216,0.094,6.517,0.094c6.89,0,14.332,0.105,20.769-0.141
		c0.21-0.961,0.141-2.181,0.141-3.376c0-1.215,0.075-2.456-0.094-3.516c-0.62-0.295-1.337-0.171-2.016-0.141
		c-5.241,0.23-10.869-0.097-15.893-0.094c-0.183-0.593-0.253-1.907,0-2.485c4.308-0.171,9.085-0.094,13.502-0.094
		c1.5,0,3.005,0.107,4.407-0.141c0.187-4.776,0.14-9.767,0.141-14.815c0-0.682,0.105-1.421-0.141-2.062
		C23.729,13.875,16.736,13.952,10.195,13.952z"/>
	<path style="fill-rule:evenodd;clip-rule:evenodd;" d="M21.025,20.891c0.181,0.626,0.097,1.734,0.048,2.438
		c-1.654,0.298-3.6,0.102-5.438,0.094c-1.062-0.005-2.424,0.066-3.47-0.047c-0.287-0.626-0.095-1.816-0.047-2.438
		c0.106-0.081,0.262-0.113,0.469-0.094C15.257,20.858,18.445,20.726,21.025,20.891z"/>
</g>
<g id="Layer_1">
</g>
</svg>
