<?xml version="1.0" encoding="iso-8859-1"?>
<!-- Generator: Adobe Illustrator 21.0.2, SVG Export Plug-In . SVG Version: 6.00 Build 0)  -->
<svg version="1.1" xmlns="http://www.w3.org/2000/svg" xmlns:xlink="http://www.w3.org/1999/xlink" x="0px" y="0px"
	 viewBox="0 0 11.255 11.249" style="enable-background:new 0 0 11.255 11.249;" xml:space="preserve">
<g id="Eigh">
	<g>
		<g>
			<path d="M3.702,9.293c-0.539,0-0.976,0.436-0.976,0.976c0,0.54,0.438,0.979,0.976,0.979V9.293z"/>
			<path d="M0.797,7.549c0-0.398,0.238-0.743,0.58-0.896C1.256,6.599,1.122,6.57,0.979,6.57C0.438,6.57,0,7.007,0,7.549
				c0,0.54,0.438,0.976,0.979,0.976c0.143,0,0.276-0.028,0.397-0.084C1.035,8.291,0.797,7.946,0.797,7.549z"/>
			<path d="M0.531,3.7c0-0.45,0.302-0.824,0.713-0.941c-0.084-0.026-0.173-0.04-0.265-0.04C0.438,2.719,0,3.16,0,3.7
				c0,0.54,0.438,0.979,0.979,0.979c0.092,0,0.181-0.017,0.265-0.039C0.833,4.523,0.531,4.149,0.531,3.7z"/>
			<path d="M2.99,0.977c0-0.493,0.368-0.9,0.845-0.965C3.792,0.005,3.748,0,3.702,0C3.163,0,2.726,0.437,2.726,0.977
				c0,0.54,0.438,0.98,0.976,0.98c0.046,0,0.09-0.004,0.133-0.009C3.358,1.883,2.99,1.475,2.99,0.977z"/>
			<path d="M7.554,9.293C7.428,9.293,7.2,9.658,7.2,10.27c0,0.612,0.228,0.979,0.354,0.979c0.542,0,0.979-0.439,0.979-0.979
				C8.533,9.729,8.096,9.293,7.554,9.293z"/>
			<path d="M10.277,6.57c-0.128,0-0.705,0.18-0.705,0.979c0,0.797,0.577,0.976,0.705,0.976c0.54,0,0.978-0.436,0.978-0.976
				C11.255,7.007,10.817,6.57,10.277,6.57z"/>
			<path d="M10.277,2.719c-0.36,0-0.885,0.28-0.885,0.981c0,0.698,0.524,0.979,0.885,0.979c0.54,0,0.978-0.439,0.978-0.979
				C11.255,3.16,10.817,2.719,10.277,2.719z"/>
			<circle cx="7.554" cy="0.978" r="0.979"/>
		</g>
	</g>
</g>
<g id="Layer_1">
</g>
</svg>
