<?xml version="1.0" encoding="iso-8859-1"?>
<!-- Generator: Adobe Illustrator 19.2.0, SVG Export Plug-In . SVG Version: 6.00 Build 0)  -->
<svg version="1.1" xmlns="http://www.w3.org/2000/svg" xmlns:xlink="http://www.w3.org/1999/xlink" x="0px" y="0px"
	 viewBox="0 0 66.448 80.662" style="enable-background:new 0 0 66.448 80.662;" xml:space="preserve">
<g id="eiran_x5F_lampo">
	<path style="fill-rule:evenodd;clip-rule:evenodd;" d="M19.247,77.29c0.375-0.951,1.131-1.522,1.813-2.167
		c0.631-0.696,1.262-1.391,1.915-2.065c3.012-2.927,5.83-6.033,8.817-9.019c0.989-0.989,2.022-1.947,2.872-3.073
		c-0.382-0.894-1.193-1.359-1.813-2.016c-6.953-6.936-13.969-13.809-20.91-20.758c-1.997-1.807-3.634-3.905-5.643-5.744
		c-0.649-0.595-1.33-1.265-1.663-2.116c0.21-0.899,0.847-1.627,1.36-2.318c1.531-2.058,2.99-4.226,4.938-5.945
		C18.164,14.79,25.187,7.302,32.447,0.051c0.729-0.267,1.24,0.572,1.764,1.058c1.307,1.214,2.779,2.755,3.829,3.879
		c2.564,2.265,4.772,4.877,7.255,7.255c1.231,1.179,2.456,2.354,3.678,3.577c0.402,0.402,0.702,0.895,1.108,1.31
		c2.356,2.406,4.974,4.645,7.306,7.154c3.047,3.28,5.598,7.217,7.255,12.092c0.408,1.2,0.743,2.439,1.059,3.779
		c0.899,3.831,1.032,8.878,0.15,13.201C63.749,63.659,57.858,71.33,49.93,76.081c-3.959,2.372-8.775,4.248-14.813,4.535
		c-4.904,0.233-9.084-0.418-12.697-1.713c-0.568-0.204-1.139-0.484-1.713-0.705C20.176,77.992,19.528,77.843,19.247,77.29z"/>
	<path style="fill-rule:evenodd;clip-rule:evenodd;" d="M17.483,45.498c-0.894,1.253-2.027,2.314-3.073,3.426
		c-3.097,3.29-6.29,6.602-9.473,9.875c-0.645,0.514-1.111,1.475-1.914,1.663c-0.562-0.158-0.65-0.882-0.857-1.36
		c-0.65-1.505-1.057-3.348-1.461-5.189c-0.519-2.368-0.833-5.143-0.655-8.061c0.258-4.23,0.977-7.657,2.267-10.983
		c0.286-0.737,1.015-3.169,1.663-3.074c0.559,0.083,1.473,1.058,1.914,1.512c0.623,0.641,1.101,1.251,1.612,1.763
		c0.59,0.59,1.058,1.259,1.612,1.814c2.266,2.266,4.6,4.498,6.852,6.751C16.529,44.192,17.138,44.763,17.483,45.498z"/>
</g>
<g id="Layer_1">
</g>
</svg>
