<?xml version="1.0" encoding="iso-8859-1"?>
<!-- Generator: Adobe Illustrator 21.0.2, SVG Export Plug-In . SVG Version: 6.00 Build 0)  -->
<svg version="1.1" xmlns="http://www.w3.org/2000/svg" xmlns:xlink="http://www.w3.org/1999/xlink" x="0px" y="0px"
	 viewBox="0 0 16.603 38.771" style="enable-background:new 0 0 16.603 38.771;" xml:space="preserve">
<g id="El_x5F_Terrat_x5F_de_x5F_Produccions">
	<path d="M0.184,3.054C1.226,2.038,2.276,1.028,3.307,0c3.437-0.005,6.873,0.031,10.31,0.034c0.95,1.021,1.931,2.012,2.911,3.003
		c0.126,0.13,0.055,0.331,0.059,0.493c-0.03,5.092-0.058,10.182-0.101,15.273c-2.499,0.007-5-0.011-7.5-0.014
		c-0.004-3.191,0.031-6.385,0.041-9.578C8.625,9.201,8.223,9.209,7.821,9.204C7.756,15.986,7.738,22.768,7.696,29.55
		c0.404,0.001,0.807,0.001,1.21,0.002c0.034-3.183,0.035-6.369,0.063-9.553c2.506-0.007,5.009,0.02,7.514,0.026
		c-0.025,5.232-0.07,10.464-0.078,15.695c-1.004,1.014-2.019,2.038-3.024,3.052c-3.365-0.006-6.733-0.021-10.1-0.022
		c-0.088,0.007-0.18-0.007-0.236-0.082c-0.97-0.972-1.956-1.926-2.942-2.881c-0.106-0.071-0.109-0.197-0.102-0.313
		C0.048,24.667,0.105,13.86,0.184,3.054z"/>
</g>
<g id="Layer_1">
</g>
</svg>
