<?xml version="1.0" encoding="iso-8859-1"?>
<!-- Generator: Adobe Illustrator 19.2.0, SVG Export Plug-In . SVG Version: 6.00 Build 0)  -->
<svg version="1.1" xmlns="http://www.w3.org/2000/svg" xmlns:xlink="http://www.w3.org/1999/xlink" x="0px" y="0px"
	 viewBox="0 0 79.396 79.69" style="enable-background:new 0 0 79.396 79.69;" xml:space="preserve">
<g id="Electro_x5F_Physical_x5F_Instruments">
	<path style="fill-rule:evenodd;clip-rule:evenodd;" d="M79.223,0.114c0.238,12.221,0.14,25.256,0,38.482
		c-2.475,0.146-5.005,0.037-7.579,0.098c-7.957,0.188-15.93-0.202-23.862,0.049c-0.39,0.928-0.408,2.087-0.538,3.227
		c-0.376,3.301-0.733,6.796-1.125,10.171c-0.26,2.24-0.569,4.469-0.831,6.699c-0.26,2.212-0.472,4.439-0.929,6.552
		c-0.331-0.538-0.314-1.209-0.391-1.809c-1.224-9.552-2.431-19.3-3.667-28.947c-1.323-10.319-2.483-20.693-3.961-30.854
		c-0.531-0.192-1.456-0.177-2.103-0.098c-0.022,0.043-0.043,0.087-0.098,0.098c-0.516,2.832-0.777,5.733-1.125,8.655
		c-0.864,7.266-1.668,14.537-2.591,21.857c-0.177,1.405-0.303,2.813-0.685,4.156c-9.913,0.061-19.503,0.168-29.583-0.049
		c-0.28-1.506-0.098-3.077-0.098-4.646c-0.001-10.251,0.001-20.605,0-31.343c0-0.756-0.115-1.564,0.147-2.298
		C26.268-0.05,53.281-0.026,79.223,0.114z"/>
	<path style="fill-rule:evenodd;clip-rule:evenodd;" d="M35.265,14.734c0.042-0.009,0.046,0.019,0.049,0.049
		c0.042-0.009,0.046,0.019,0.049,0.049c2.45,17.756,4.45,35.843,6.846,53.689c0.338,2.522,0.551,5.054,1.076,7.53
		c0.524,0.154,1.578,0.154,2.103,0c0.33-0.641,0.329-1.401,0.391-2.103c0.187-2.091,0.519-4.337,0.783-6.552
		c0.35-2.943,0.641-5.916,0.978-8.85c0.503-4.384,1.102-8.71,1.613-13.105c0.167-1.427,0.272-2.879,0.636-4.254
		c4.655-0.262,9.744-0.146,14.718-0.147c4.983,0,9.967-0.066,14.718,0.098c0.298,6.458-0.06,12.96,0.098,19.461
		c0.153,6.325,0.045,12.74-0.098,18.972c-19.712,0.144-39.766,0.095-59.312,0.098c-6.594,0.001-13.322,0.096-19.754-0.147
		c-0.2-13.06-0.121-25.467-0.049-38.531c2.604-0.277,5.313-0.098,8.019-0.098c5.301,0,10.617,0,16.039,0
		c2.59,0,5.171,0.034,7.628-0.147c0.381-1.004,0.361-2.104,0.489-3.179c0.377-3.16,0.803-6.497,1.223-9.779
		c0.555-4.348,1.008-8.725,1.711-12.909C35.202,14.802,35.262,14.797,35.265,14.734z"/>
</g>
<g id="Layer_1">
</g>
</svg>
