<?xml version="1.0" encoding="iso-8859-1"?>
<!-- Generator: Adobe Illustrator 19.2.0, SVG Export Plug-In . SVG Version: 6.00 Build 0)  -->
<svg version="1.1" xmlns="http://www.w3.org/2000/svg" xmlns:xlink="http://www.w3.org/1999/xlink" x="0px" y="0px"
	 viewBox="0 0 78.773 79.243" style="enable-background:new 0 0 78.773 79.243;" xml:space="preserve">
<g id="electron_x5F_optics">
	<path style="fill-rule:evenodd;clip-rule:evenodd;" d="M78.587,39.565c-5.921,0.242-12.476,0.05-18.883,0.051
		c-0.926,0-2.016,0-3.181,0c-0.946,0-2.483-0.162-2.928,0.151c-0.427,0.301-0.363,1.71-0.505,2.475
		c-0.763,4.103-2.877,6.897-5.705,8.986c-2.106,1.556-5.436,2.861-9.088,2.475c-4.2-0.446-7.274-2.642-9.441-5.201
		c-0.439-0.518-0.737-1.183-1.363-1.564c0.082,1.365,0.784,2.55,1.363,3.635c1.745,3.266,4.203,5.954,7.119,8.078
		c1.936,1.419,4.201,2.479,6.867,3.282c1.24,0.373,2.706,0.736,4.19,0.857c8.395,0.689,14.35-2.676,18.529-6.562
		c2.541-2.534,4.529-5.586,5.806-9.391c0.428-1.275,0.586-2.634,1.01-4.04c0.903-0.179,2.019-0.101,3.13-0.101
		c1.066,0,2.196-0.114,3.029,0.151c0.171,3.027-0.45,5.798-1.212,8.28c-2.247,7.317-6.3,13.15-11.259,17.822
		c-5.106,4.586-11.404,7.984-19.438,9.643c-6.464,1.334-13.948,0.463-19.236-1.263C14.903,73.257,6.158,64.394,1.896,51.986
		c-0.932-2.712-1.477-5.826-1.767-9.139c-0.095-1.084-0.257-2.228,0.05-3.332c0.981-0.273,2.055-0.151,3.08-0.151
		c7.369-0.001,15.212,0.08,22.467-0.102c0.526-0.779,0.374-1.686,0.555-2.474c1.241-5.387,5.291-8.982,10.805-10.199
		c3.837-0.846,7.349,0.457,9.744,1.868c1.889,1.113,3.375,2.623,4.544,4.443c0.377,0.588,0.527,1.385,1.161,1.817
		c0.077-1.274-0.348-2.682-0.757-3.888c-1.962-5.783-5.951-10.185-11.007-12.976c-2.073-1.143-4.596-2.054-7.119-2.474
		c-6.262-1.042-11.559,0.641-15.601,2.878c-3.526,1.952-6.245,5.006-8.33,8.482c-1.237,2.061-2.155,4.405-2.727,7.271
		c-0.128,0.645-0.171,1.383-0.555,1.968c-1.868,0.139-4.525,0.228-6.311-0.05c-0.127-2.767,0.722-5.323,1.414-7.725
		c2.76-9.584,8.518-16.325,15.752-21.509c3.597-2.577,7.89-4.521,12.875-5.705c2.558-0.608,5.275-0.816,8.331-0.959
		c6.177-0.287,11.652,1.338,15.955,3.08c4.63,1.874,8.366,4.384,11.562,7.371c3.199,2.906,6,6.525,8.229,10.704
		c2.169,4.064,4.091,8.941,4.292,14.49C78.58,36.859,79.013,38.349,78.587,39.565z"/>
</g>
<g id="Layer_1">
</g>
</svg>
