<?xml version="1.0" encoding="iso-8859-1"?>
<!-- Generator: Adobe Illustrator 19.2.0, SVG Export Plug-In . SVG Version: 6.00 Build 0)  -->
<svg version="1.1" xmlns="http://www.w3.org/2000/svg" xmlns:xlink="http://www.w3.org/1999/xlink" x="0px" y="0px"
	 viewBox="0 0 77.787 78.8" style="enable-background:new 0 0 77.787 78.8;" xml:space="preserve">
<g id="Electra_x5F_Editrice">
	<path style="fill-rule:evenodd;clip-rule:evenodd;" d="M38.851,33.941c0.377-0.541,0.377-1.209,0.488-1.805
		c0.812-4.346,2.375-8.207,4.242-11.654c2.12-3.914,4.799-7.344,7.997-10.144c3.189-2.791,6.723-5.277,11.021-7.119
		c4.242-1.816,9.249-3.039,15.067-2.877c0.16,0.764,0.16,2.162,0,2.926C66.396,3.684,58.458,7.846,52.554,13.752
		c-2.885,2.885-5.513,6.363-7.363,10.435c-1.851,4.072-3.316,8.834-3.219,14.385c0.645,0.309,1.4,0.201,2.097,0.195
		c5.047-0.043,10.668,0.051,15.8,0.049c5.353,0,10.484,0.049,15.8,0.049c0.666,0,1.424-0.121,2.048,0.195
		c0.08,0.33,0.078,0.852-0.049,1.121c-11.765,0.207-23.868-0.145-35.646,0.049c-0.291,1.305-0.051,2.756,0.146,4.049
		c1.002,6.557,3.125,11.643,6.339,16.043c1.275,1.744,2.578,3.426,4.048,4.875c5.588,5.516,12.736,9.711,23.163,10.436
		c0.622,0.045,1.325-0.049,1.95,0.244c0.221,0.816,0.046,2.01,0,2.877c-2.908,0.188-5.655-0.223-8.143-0.779
		c-7.411-1.656-13.162-5.016-17.897-9.363c-5.404-5.078-9.894-11.445-11.85-19.992c-0.272-1.193-0.47-2.432-0.878-3.658
		c-0.436,1.232-0.602,2.488-0.877,3.707c-1.903,8.391-6.444,14.904-11.851,19.894c-3.049,2.816-6.821,5.281-11.069,7.07
		c-2.118,0.895-4.441,1.646-6.925,2.146c-2.508,0.504-5.23,0.959-8.095,0.684c-0.084-0.955-0.091-1.939,0-2.879
		c1.436-0.228,2.82-0.189,4.146-0.34c8.969-1.02,15.917-5.092,20.969-10.145c5.846-5.846,10.399-13.633,10.68-24.82
		c-1.448-0.266-2.954-0.146-4.438-0.146c-9.806,0-19.37-0.098-29.307-0.098c-0.684,0-1.403,0.066-2.049-0.193
		c-0.073-0.352-0.071-0.828,0.049-1.123c11.563-0.283,23.862,0.236,35.745-0.098c0.161-2.805-0.403-5.402-0.976-7.801
		c-1.698-7.125-5.252-12.762-9.655-17.166c-2.937-2.936-6.464-5.471-10.533-7.363C11.623,4.853,8.156,3.857,4.18,3.365
		c-1.301-0.16-2.664-0.074-4.048-0.391C0.033,2.203-0.169,0.545,0.278,0c5.695,0.098,11.083,1.248,15.117,3.121
		C27.736,8.853,36.099,18.811,38.851,33.941z"/>
</g>
<g id="Layer_1">
</g>
</svg>
