<?xml version="1.0" encoding="iso-8859-1"?>
<!-- Generator: Adobe Illustrator 19.2.0, SVG Export Plug-In . SVG Version: 6.00 Build 0)  -->
<svg version="1.1" xmlns="http://www.w3.org/2000/svg" xmlns:xlink="http://www.w3.org/1999/xlink" x="0px" y="0px"
	 viewBox="0 0 62.897 81.96" style="enable-background:new 0 0 62.897 81.96;" xml:space="preserve">
<g id="Electricite_x5F_de_x5F_France-Gaz_x5F_de_x5F_France">
	<path style="fill-rule:evenodd;clip-rule:evenodd;" d="M45.766,0.001c0.281,0.478,0.154,1.262,0.154,1.951
		c0.002,10.443-0.052,21.053-0.052,31.18c0.001,11.215,0.126,22.297-0.153,33.385c-0.365-0.182-0.206-0.699-0.206-1.027
		c0.001-2.689,0.082-5.906-0.103-8.475c-0.612,0.473-0.73,1.385-1.079,2.105c-2.33,4.828-6.729,8.076-13.355,8.732
		c-0.438,0.73-0.393,1.584-0.564,2.312c-0.521,2.207-1.582,4.082-2.825,5.701c-2.979,3.877-9.108,7.502-16.129,5.547
		c-2.883-0.803-5.26-2.443-7.088-4.264c-1.209-1.246-2.279-2.742-3.03-4.52c-0.732-1.73-1.439-3.771-1.232-6.113
		c0.36,0.051,0.234,0.471,0.257,0.668c0.464,4.195,1.86,7.164,4.212,9.605c2.344,2.434,5.55,4.539,10.016,4.725
		c4.777,0.201,8.291-1.59,10.838-3.902c1.923-1.746,3.486-3.881,4.366-6.678c0.28-0.891,0.612-1.926,0.462-2.979
		c-0.675-0.32-1.398-0.229-2.055-0.309c-1.286-0.158-2.524-0.51-3.698-0.977c-0.539-0.213-1.139-0.65-1.644-0.666
		c-0.555-0.018-1.365,0.484-1.849,0.666c-1.854,0.699-3.788,1.203-6.473,1.08c-2.989-0.139-5.504-1.193-7.499-2.568
		C3.284,62.595-0.034,58.521,0,52.085c0.032-6.006,3.275-10.627,7.14-12.996c2.014-1.234,4.573-2.328,7.602-2.465
		c3.208-0.146,5.708,0.73,8.115,1.9c2.056-0.908,4.272-1.764,7.037-1.85c2.719-0.084,5.299,0.59,7.242,1.592
		c2.856,1.475,5.259,3.643,6.78,6.473c0.511,0.949,0.794,2.041,1.437,2.979c0.246-0.967,0.176-1.996,0.206-3.031
		c0.194-6.803-0.062-15.039-0.103-22.086c-0.555,0.309-0.566,0.975-0.771,1.439c-2.32,5.248-7.099,9.48-14.793,9.398
		c-2.17-0.021-3.818-0.504-5.444-1.182c-0.442-0.184-1.126-0.602-1.541-0.615c-0.549-0.018-1.386,0.535-1.85,0.719
		c-1.881,0.746-3.776,1.162-6.42,1.027c-3.021-0.154-5.522-1.082-7.551-2.518C3.333,28.212,0.033,24.124,0,17.825
		c-0.015-3.016,0.927-5.771,2.209-7.91C3.472,7.808,5.158,5.962,7.14,4.778c2.212-1.32,4.478-2.256,7.653-2.414
		c2.484-0.125,4.487,0.35,6.369,1.078c0.472,0.182,1.197,0.752,1.747,0.772c0.424,0.014,1.113-0.49,1.541-0.668
		c1.605-0.67,3.257-1.082,5.444-1.182c5.563-0.254,9.619,2.488,12.225,5.393c1.383,1.541,2.255,3.48,3.235,5.547
		c0.346-0.98,0.211-2.147,0.257-3.236c0.138-3.242-0.149-6.479,0-9.912C45.603,0.044,45.655-0.009,45.766,0.001z M19.621,3.288
		c-2.45-0.662-5.838-0.783-8.32-0.051c-2.934,0.863-5.657,2.699-7.5,5.033c-1.892,2.396-3.475,5.484-3.235,9.143
		c1.073,0.275,2.254,0.154,3.441,0.154c3.553,0,7.374,0.18,10.786-0.051c0.274-1.557,0.406-2.971,0.822-4.264
		c1.041-3.238,2.909-5.709,5.239-7.551c0.467-0.369,1.004-0.697,1.387-1.182C21.627,3.905,20.615,3.558,19.621,3.288z
		 M34.466,32.566c3.293-0.93,5.951-2.902,7.858-5.238c1.867-2.287,3.42-5.916,3.236-9.863c-0.188-4.037-1.647-7.012-3.698-9.449
		c-2.675-2.871-6.546-5.594-12.225-5.291c-1.129,0.06-2.122,0.262-3.39,0.617c-0.49,0.135-2.565,0.721-2.569,1.23
		c-0.002,0.305,1.044,0.91,1.388,1.182c0.528,0.42,0.966,0.863,1.335,1.232c2.624,2.625,4.515,6.103,4.418,10.941
		c-0.031,0.004-0.062,0.008-0.052,0.051c-5.048,0.191-10.447-0.125-15.307,0.154c-0.3,0.726-0.056,1.525,0.052,2.209
		c0.568,3.611,2.285,6.424,4.417,8.424c0.884,0.83,1.822,1.74,2.979,2.158c1.756-0.797,3.156-2.152,4.263-3.545
		c0.358-0.451,0.638-1.225,1.233-1.283c-0.47,1.17-1.336,2.002-2.157,2.824c-0.417,0.416-0.815,0.857-1.284,1.232
		c-0.449,0.359-1.091,0.596-1.336,1.182C26.234,33.114,31.019,33.54,34.466,32.566z M29.792,13.253
		c-0.831-2.611-2.098-4.551-3.904-6.318c-0.511-0.5-2.446-2.371-3.287-1.951c-0.917,0.457-1.799,1.135-2.517,1.797
		c-1.087,1.004-2.239,2.424-3.03,3.904c-1.024,1.916-1.788,4.269-1.645,6.779c1.158,0.303,2.437,0.125,3.698,0.154
		c2.451,0.059,4.981,0.053,7.551,0.053c1.293,0,2.581,0.121,3.75-0.154C30.619,16.023,30.195,14.521,29.792,13.253z M7.86,17.978
		c-2.182-0.098-5.32-0.113-7.242,0.053c-0.32,0.688-0.103,1.455,0,2.106c0.757,4.834,3.329,8.012,6.574,10.375
		c1.774,1.293,4.188,2.199,7.14,2.518c2.289,0.246,4.535-0.299,6.215-0.924c0.541-0.203,1.582-0.438,1.593-0.875
		c0.007-0.324-1.026-0.935-1.336-1.18c-1.522-1.209-2.629-2.539-3.646-4.059c-0.588-1.082-1.13-2.23-1.541-3.545
		c-0.414-1.322-0.521-2.818-0.822-4.314C12.675,17.771,10.298,18.089,7.86,17.978z M5.394,40.888
		c-2.336,2.189-4.254,5.037-4.828,8.783C-0.11,54.079,1.113,57.89,2.877,60.56c1.846,2.791,4.35,4.775,7.602,6.01
		c2.649,1.004,6.345,1.014,9.194,0.205c0.791-0.225,2.401-0.727,2.414-1.182c0.007-0.234-0.905-0.852-1.13-1.027
		c-2.882-2.252-5.107-5.463-5.856-9.502c-0.505-2.727-0.162-5.584,0.564-7.705c1.057-3.08,2.607-5.279,4.829-7.088
		c0.231-0.189,1.693-1.129,1.643-1.49c-0.039-0.277-0.97-0.609-1.387-0.77c-1.583-0.609-3.959-0.988-5.548-0.977
		C11.014,37.066,7.591,38.827,5.394,40.888z M36.983,65.952c1.696-0.834,3.173-1.904,4.366-3.184
		c2.375-2.549,4.318-6.25,4.16-10.891c-0.156-4.607-2.041-7.947-4.622-10.529c-3.005-3.004-8.713-5.389-14.485-3.75
		c-0.548,0.156-2.709,0.74-2.723,1.285c-0.007,0.299,0.723,0.656,1.131,0.975c2.745,2.152,4.855,5.219,5.701,9.092
		c0.515,2.359,0.359,5.307,0.359,8.065c0,2.906,0.079,5.578,0,8.269c-0.018,0.627-0.203,1.387,0.102,2.004
		C33.259,67.435,35.329,66.765,36.983,65.952z M19.725,41.452c-2.5,2.477-4.469,6.004-4.469,10.939
		c-0.001,5.537,2.739,9.537,6.009,11.969c0.35,0.26,1.162,0.943,1.644,0.924c0.514-0.019,1.159-0.637,1.541-0.924
		c0.528-0.399,1.009-0.774,1.387-1.131c2.756-2.604,5.486-7.596,4.468-13.354c-0.647-3.666-2.39-6.738-4.725-8.834
		c-0.637-0.574-1.923-1.756-2.825-1.799C21.703,39.655,20.55,40.634,19.725,41.452z M30.202,57.015
		c-0.445,0.906-0.811,1.873-1.283,2.723c-0.896,1.609-2.065,3-3.339,4.16c-0.634,0.578-1.388,1.031-2.004,1.746
		c0.716,0.672,1.851,1.002,2.979,1.285c1.131,0.281,2.457,0.613,3.749,0.359c0.274-0.945,0.154-2.014,0.154-3.082
		c0-2.406,0.097-4.914-0.103-7.139C30.291,57.064,30.285,57.001,30.202,57.015z"/>
	<path style="fill-rule:evenodd;clip-rule:evenodd;" d="M62.87,5.753c-0.384-0.117-0.308-0.619-0.359-0.873
		c-0.558-2.701-3.227-5.207-6.883-4.264C54.561,0.894,53.824,1.53,53.06,2.21c-0.458,0.865-1.157,1.853-1.284,3.082
		c-0.202,1.957,0,4.273,0,6.523c0,2.236-0.083,4.483,0.103,6.42c1.575,0.33,3.493,0.205,5.393,0.205c0.919,0,1.868,0,2.774,0
		c0.916,0,1.846-0.125,2.62,0.154c-0.258,0.326-0.812,0.24-1.182,0.256c-3.135,0.144-6.674-0.215-9.554,0.053
		c-0.269,0.52-0.154,1.156-0.154,1.746c0,3.672-0.052,7.686-0.052,11.352c0,0.564,0.166,1.246-0.205,1.695
		c-0.371-0.438-0.205-1.129-0.205-1.695c0-7.709,0.051-15.646,0.051-24.09c0-2.072,0.105-3.832,0.873-5.086
		c0.311-0.506,0.799-0.865,1.027-1.334c0.975-0.693,2.029-1.346,3.493-1.439c2.354-0.148,4.381,1.141,5.394,2.826
		C62.627,3.671,63.001,4.755,62.87,5.753z"/>
	<path style="fill-rule:evenodd;clip-rule:evenodd;" d="M62.82,39.243c-0.414-0.264-0.31-0.941-0.463-1.437
		c-0.739-2.4-3.657-4.785-7.088-3.596c-1.065,0.369-1.807,1.078-2.568,1.848c-1.355,2.031-0.976,5.76-0.976,9.35
		c0,2.215-0.083,4.436,0.104,6.369c0.794,0.35,1.742,0.162,2.671,0.205c1.728,0.08,3.559-0.027,5.547,0
		c0.877,0.012,1.787-0.131,2.568,0.154c-0.228,0.398-0.789,0.256-1.182,0.256c-3.165,0-6.713-0.121-9.604,0.053
		c-0.198,4.033-0.155,8.572-0.154,12.994c0,0.572,0.124,1.232-0.154,1.746c-0.347-0.102-0.193-0.551-0.205-0.77
		c-0.12-2.115,0-4.467,0-6.729c0-5.184-0.001-10.232,0-15.615c0-2.496-0.254-5.451,0.565-7.191c0.265-0.562,0.761-1.022,1.027-1.643
		c1.237-1.002,2.537-1.854,4.932-1.645c1.594,0.139,3.133,1.158,4.006,2.363C62.49,36.849,63.01,38.093,62.82,39.243z"/>
</g>
<g id="Layer_1">
</g>
</svg>
