<?xml version="1.0" encoding="iso-8859-1"?>
<!-- Generator: Adobe Illustrator 19.2.0, SVG Export Plug-In . SVG Version: 6.00 Build 0)  -->
<svg version="1.1" xmlns="http://www.w3.org/2000/svg" xmlns:xlink="http://www.w3.org/1999/xlink" x="0px" y="0px"
	 viewBox="0 0 79.607 80.317" style="enable-background:new 0 0 79.607 80.317;" xml:space="preserve">
<g id="Elektrochemie_x5F_und_x5F_Plaste_x5F_Halle">
	<path style="fill-rule:evenodd;clip-rule:evenodd;" d="M79.444,0.194c0.266,13.298,0.096,26.394,0.098,39.738
		c0,3.277,0.049,6.615,0.049,9.995c-0.002,8.489,0,16.854,0,25.375c-0.002,0.859,0.039,1.732,0,2.572
		c-0.037,0.764,0.119,1.548-0.146,2.281c-8.949,0.333-18.662,0.049-27.898,0.048c-0.547,0-1.176,0.112-1.699-0.146
		c-0.07-5.686-0.16-11.665,0.049-17.273c4.027-0.988,8.014-2.013,11.354-3.688c5.395-2.812,9.609-6.601,12.227-12.227
		c1.301-2.796,2.357-5.731,2.719-9.51c0.344-3.6-0.059-7.622-1.117-10.771c-2.025-6.028-5.383-10.836-10.334-14.12
		c-4.91-3.255-10.727-5.515-18.051-6.356c-3.926-0.451-7.805-0.533-11.547-0.291c-3.713,0.24-7.226,0.95-10.383,1.844
		c-6.404,1.812-11.555,4.83-15.283,9.121c-3.713,4.273-6.504,10.139-6.502,17.904c0,3.945,0.895,7.217,2.086,10.141
		c1.168,2.869,2.65,5.371,4.658,7.52c3.416,4.089,8.084,6.924,13.828,8.734c1.889,0.595,3.877,0.986,5.92,1.552
		c0.16,5.56,0.16,11.809,0,17.419c-10.101,0.192-19.34,0.072-29.307,0c-0.022-0.044-0.043-0.087-0.098-0.097
		C-0.021,54.458,0.012,28.293,0.018,2.475c0-0.779-0.094-2.135,0.145-2.378C0.198,0.052,0.251,0.024,0.307,0
		C26.774,0.053,53.579,0.034,79.444,0.194z"/>
	<path style="fill-rule:evenodd;clip-rule:evenodd;" d="M29.711,18.681c0.42,0.189,0.242,0.783,0.242,1.164c0,1.292,0,2.73,0,4.076
		c0,1.85,0.186,3.731-0.098,5.288c-1.746,0.175-3.986,0.098-5.967,0.097c-0.643,0-1.328,0.128-1.795-0.194
		c0.07-1.216,0.58-2.33,1.066-3.299c0.5-0.995,1.061-1.938,1.748-2.717c1.297-1.758,2.906-3.207,4.754-4.415
		C29.678,18.681,29.696,18.681,29.711,18.681z"/>
	<path style="fill-rule:evenodd;clip-rule:evenodd;" d="M49.555,18.826c2.48,1.377,4.555,3.833,6.018,6.211
		c1.57,2.553,2.703,5.931,2.619,9.558c-0.15,6.505-3.055,11.445-6.842,14.508c-0.541,0.438-1.119,0.969-1.844,1.067
		c-0.275-0.611-0.098-1.201-0.096-1.795c0.025-7.935-0.049-17.21-0.049-25.715c0-1.307-0.035-2.656,0.049-3.688
		C49.438,18.902,49.485,18.853,49.555,18.826z"/>
	<path style="fill-rule:evenodd;clip-rule:evenodd;" d="M29.905,39.447c0.064,2.722,0.18,5.711,0.049,8.588
		c-0.035,0.768,0.141,1.545-0.147,2.231c-1.238-0.361-1.955-1.247-2.812-1.989c-2.092-1.875-3.897-4.588-4.9-7.667
		c-0.123-0.372-0.459-0.952-0.049-1.31c1.074-0.006,2.65,0,4.074,0C27.465,39.301,28.831,39.188,29.905,39.447z"/>
</g>
<g id="Layer_1">
</g>
</svg>
