<?xml version="1.0" encoding="iso-8859-1"?>
<!-- Generator: Adobe Illustrator 19.2.0, SVG Export Plug-In . SVG Version: 6.00 Build 0)  -->
<svg version="1.1" xmlns="http://www.w3.org/2000/svg" xmlns:xlink="http://www.w3.org/1999/xlink" x="0px" y="0px"
	 viewBox="0 0 79.447 80.509" style="enable-background:new 0 0 79.447 80.509;" xml:space="preserve">
<g id="Elektrotekchnicky_x5F_Ustav">
	<path style="fill-rule:evenodd;clip-rule:evenodd;" d="M38.085,0.06c3.145-0.219,6.414,0.198,9.319,0.709
		c8.548,1.503,14.47,5.441,19.702,10.23c3.606,3.302,6.06,6.969,8.357,11.648c2.233,4.553,3.673,9.899,3.95,16.005
		c0.152,3.34-0.209,6.445-0.759,9.269c-1.602,8.218-5.31,14.809-10.079,19.853c-3.203,3.389-6.905,6.392-11.446,8.509
		c-4.534,2.114-9.779,3.898-15.751,4.204c-1.605,0.082-3.236-0.082-4.812-0.203c-4.633-0.355-8.594-1.438-12.104-2.887
		c-4.821-1.989-8.699-4.575-12.156-7.8c-3.459-3.227-6.256-6.992-8.458-11.547c-1.042-2.156-2.219-4.629-2.633-7.345
		c-0.21-1.377-0.594-2.753-0.81-4.203c-0.646-4.332-0.507-9.702,0.354-13.827c0.301-1.438,0.446-2.818,0.912-4.102
		c1.323-3.65,2.648-7.277,4.66-10.281C10.287,12.38,15.45,7.443,22.08,4.111c3.213-1.615,7.045-2.929,11.396-3.596
		C34.973,0.285,36.566,0.164,38.085,0.06z M32.26,40.628c1.582,0,3.138-0.074,4.609,0.051c0.669,0.502,0.948,1.347,1.418,2.025
		c0.475,0.685,0.993,1.314,1.519,1.925c2.189,2.333,4.554,4.1,8.002,4.963c1.873,0.47,3.813,0.725,5.773,0.507
		c1.915-0.212,3.558-0.629,5.167-1.317c5.697-2.436,10.255-7.77,10.028-15.953c-0.11-3.961-1.61-7.036-3.343-9.623
		c-3.534-5.279-8.019-9.119-14.333-11.648c-1.51-0.605-3.204-1.216-4.913-1.57c-2.814-0.585-6.624-0.758-9.825-0.456
		c-1.165,0.109-2.263,0.31-3.343,0.557c-6.336,1.452-11.044,4.367-15.042,8.358c-1.193,1.368-2.461,2.763-3.495,4.254
		c-0.344,0.497-0.739,1.116-0.76,1.773c0.487,0.249,0.866-0.229,1.266-0.405c0.436-0.193,0.938-0.296,1.367-0.507
		c2.445-1.202,5.47-2.232,8.863-2.381c9.842-0.432,16.383,3.43,20.918,8.863c1.12,1.342,2.168,2.859,3.038,4.457
		c0.897,1.646,1.837,3.417,2.026,5.42c-0.597,0.337-1.4,0.202-2.178,0.202c-2.341,0.001-4.94,0.079-7.04-0.102
		c-0.75-0.901-1.221-1.947-1.925-2.836c-2.126-2.683-4.775-4.736-8.458-5.824c-2.661-0.786-5.732-0.772-8.408-0.202
		c-2.523,0.535-4.686,1.771-6.381,3.14c-1.718,1.388-3.268,3.118-4.305,5.217c-1.057,2.139-1.945,4.664-1.874,7.647
		c0.143,5.981,2.912,9.703,5.774,13.32c5.116,5.851,12.149,10.157,22.69,10.636c5.299,0.241,9.821-1.229,13.624-2.938
		c3.888-1.746,7.062-4.309,9.572-7.142c1.13-1.224,2.194-2.632,3.09-4.052c0.303-0.479,0.697-1.06,0.658-1.671
		c-0.484-0.066-0.933,0.245-1.317,0.456c-2.842,1.56-6.228,2.901-10.028,3.343c-2.485,0.288-4.83,0.109-7.04-0.253
		c-2.156-0.354-4.016-1.113-5.774-1.875c-3.491-1.512-6.404-3.718-8.863-6.381c-1.769-1.917-3.417-4.416-4.406-6.989
		c-0.349-0.907-0.9-1.815-0.912-2.837C29.043,40.388,30.712,40.628,32.26,40.628z"/>
</g>
<g id="Layer_1">
</g>
</svg>
