<?xml version="1.0" encoding="iso-8859-1"?>
<!-- Generator: Adobe Illustrator 21.0.2, SVG Export Plug-In . SVG Version: 6.00 Build 0)  -->
<svg version="1.1" xmlns="http://www.w3.org/2000/svg" xmlns:xlink="http://www.w3.org/1999/xlink" x="0px" y="0px"
	 viewBox="0 0 11.361 12.765" style="enable-background:new 0 0 11.361 12.765;" xml:space="preserve">
<g id="Elevadores_x5F_Atlas">
	<path d="M5.048,1.287C5.276,0.863,5.493,0.433,5.705,0C6.009,0.62,6.33,1.231,6.633,1.852c0.646,1.281,1.3,2.557,1.939,3.841
		C8.724,5.983,8.86,6.282,9.017,6.57C9.15,6.805,9.255,7.055,9.38,7.294c0.361,0.697,0.708,1.402,1.062,2.103
		c0.241,0.501,0.512,0.987,0.752,1.489c0.052,0.106,0.104,0.213,0.168,0.314c-0.895,0.001-1.79-0.002-2.685,0.001
		C8.269,10.385,7.853,9.573,7.45,8.755c-0.594,1.333-1.166,2.676-1.759,4.01c-0.537-1.212-1.066-2.427-1.608-3.637
		C4.024,9.003,3.981,8.871,3.909,8.754C3.539,9.583,3.092,10.376,2.71,11.2C1.807,11.199,0.903,11.2,0,11.2
		c0.29-0.581,0.583-1.16,0.885-1.735c0.323-0.649,0.654-1.294,0.987-1.937c0.346-0.704,0.716-1.394,1.067-2.094
		c0.192-0.393,0.396-0.78,0.6-1.168C4.032,3.268,4.555,2.285,5.048,1.287z M4.498,7.606c-0.191,0.382-0.39,0.76-0.575,1.145
		c1.174-0.004,2.349-0.005,3.524,0.001c-0.265-0.535-0.535-1.068-0.81-1.599C6.331,6.504,5.978,5.88,5.679,5.229
		C5.285,6.021,4.877,6.807,4.498,7.606z"/>
</g>
<g id="Layer_1">
</g>
</svg>
