<?xml version="1.0" encoding="iso-8859-1"?>
<!-- Generator: Adobe Illustrator 19.2.0, SVG Export Plug-In . SVG Version: 6.00 Build 0)  -->
<svg version="1.1" xmlns="http://www.w3.org/2000/svg" xmlns:xlink="http://www.w3.org/1999/xlink" x="0px" y="0px"
	 viewBox="0 0 401.863 334.935" style="enable-background:new 0 0 401.863 334.935;" xml:space="preserve">
<g id="Elevance">
	<path d="M296.792,151.837c-32.58,0-63.587-24.511-77.794-38.554c13.547-13.382,45.079-39.07,84.778-39.07
		c48.586,0,71.23,20.705,71.23,39.07C375.007,133.515,345.364,151.837,296.792,151.837 M277.895,236.727H124.313v-31.381h153.582
		V236.727z M277.895,264.355c-10.971,6.182-66.136,37.355-76.79,43.349c-10.611-5.994-65.822-37.167-76.791-43.349v-0.112h153.582
		V264.355z M26.9,113.043c0-18.388,22.42-38.89,71.007-38.89c39.714,0,71.439,25.493,84.973,38.89
		c-5.965,5.89-15.167,14.132-26.526,21.514l-14.493,8.19c-11.225,5.373-23.693,9.134-36.732,9.134
		C56.574,151.881,26.9,133.634,26.9,113.043 M201.104,133.928c17.443,15.479,38.215,33.329,76.13,43.933H124.972
		C157.148,169.715,182.955,150.749,201.104,133.928 M304.002,48.953c-51.913,0-90.58,34.44-101.205,44.968l-1.692,1.715
		l-1.724-1.715c-10.595-10.528-49.142-44.937-101.474-44.937C42.098,48.983,0,76.513,0,113.043c0,34.896,39.819,61.138,96.828,63.82
		l2.277,0.112v95.435c0,4.1,2.218,7.905,5.815,9.914l90.593,51.133c3.493,1.979,7.704,1.964,11.226,0l90.562-51.133
		c3.553-2.009,5.755-5.814,5.755-9.914v-95.284l2.294-0.104c46.488-2.339,96.513-23.253,96.513-63.739
		C401.863,76.611,359.811,48.953,304.002,48.953"/>
	<path d="M212.253,20.591c0,11.33,9.263,20.555,20.622,20.555c11.33,0,20.532-9.225,20.532-20.555C253.407,9.24,244.205,0,232.875,0
		C221.516,0,212.253,9.24,212.253,20.591"/>
	<path d="M148.456,20.591c0,11.33,9.248,20.555,20.607,20.555c11.315,0,20.561-9.225,20.561-20.555
		C189.623,9.24,180.377,0,169.062,0C157.704,0,148.456,9.24,148.456,20.591"/>
</g>
<g id="Layer_1">
</g>
</svg>
