<?xml version="1.0" encoding="iso-8859-1"?>
<!-- Generator: Adobe Illustrator 19.2.0, SVG Export Plug-In . SVG Version: 6.00 Build 0)  -->
<svg version="1.1" xmlns="http://www.w3.org/2000/svg" xmlns:xlink="http://www.w3.org/1999/xlink" x="0px" y="0px"
	 viewBox="0 0 79.28 60.526" style="enable-background:new 0 0 79.28 60.526;" xml:space="preserve">
<g id="elitera_x5F_verlag">
	<path style="fill-rule:evenodd;clip-rule:evenodd;" d="M46.209,0.373c-0.11,1.135-1.208,1.57-1.863,2.265
		c-0.708,0.751-1.24,1.627-1.963,2.366c-2.096,2.142-4.391,4.203-6.393,6.494c0.792,0.288,1.72,0.185,2.668,0.201
		c1.902,0.033,3.962,0,5.94,0c0.977,0,1.976-0.118,2.819,0.151c0.168,1.152,0.164,2.975,0,4.128c-0.841,0.267-1.82,0.15-2.769,0.15
		c-2.796,0-5.98-0.082-8.659,0.101c-0.059,0.402,0.367,0.653,0.604,0.855c1.371,1.175,2.644,2.542,3.977,3.826
		c0.986,0.949,1.773,1.99,2.869,2.92c0.957,0.811,1.85,1.648,2.769,2.567c0.426,0.426,1.084,0.881,1.057,1.611
		c-0.499,0.494-1.306,0.302-1.963,0.302c-4.164,0-8.749,0-13.29,0c-0.779,0-1.606,0.101-2.165-0.05
		c-0.638-0.173-1.219-0.855-1.762-1.359c-0.539-0.502-1.043-1.062-1.561-1.511c-1.124-0.975-2.285-1.92-3.222-2.97
		c-0.552-0.619-1.013-1.243-1.611-1.812c-0.574-0.547-1.132-1.139-1.661-1.762c-0.627-0.484-1.139-1.101-1.762-1.661
		c-0.986-0.886-2.222-2-1.661-4.228c0.163-0.648,0.927-1.236,1.41-1.762c1.428-1.555,3.419-3.397,4.682-4.832
		c1.465-1.569,3.134-3.129,4.682-4.833c0.501-0.552,1.042-1.24,1.711-1.46c4.801-0.091,10.34-0.05,15.303-0.05
		C45.022,0.02,45.767-0.127,46.209,0.373z"/>
	<path style="fill-rule:evenodd;clip-rule:evenodd;" d="M78.678,10.038c0.043-0.009,0.048,0.019,0.051,0.05
		c0.781,0.319,0.503,1.277,0.503,1.863c0,3.838-0.071,7.699-0.05,11.578c0.01,1.813,0.313,4.031-0.252,5.286
		c-0.276,0.612-0.858,1.1-1.46,1.762c-1.54,1.697-3.074,3.326-4.682,4.934c-1.018,1.018-2.09,2.104-3.121,3.272
		c-0.929,1.052-2.073,2.82-3.271,3.272c-0.733,0.276-2.096,0.308-2.819,0.05c-0.637-0.226-1.24-1.039-1.762-1.561
		c-1.684-1.685-3.41-3.226-4.833-5.084c-1.724-1.427-3.366-3.115-5.084-4.832c-0.593-0.592-1.343-1.218-1.56-1.862
		c-0.38-1.125-0.157-3.071-0.202-4.48c-0.12-3.842-0.05-7.373-0.05-11.326c0-0.646-0.205-1.5,0.353-1.963
		c0.859,0.066,1.339,0.87,1.812,1.409c0.488,0.557,1.064,1.088,1.561,1.611c1.472,1.551,3.166,3.135,4.732,4.783
		c1.041,1.094,2.114,1.963,3.171,3.171c0.874,0.998,2.071,2.108,3.877,1.41c1.254-0.486,2.243-2.244,3.271-3.272
		c2.303-2.302,4.222-4.281,6.394-6.695c0.471-0.523,1.023-1.106,1.611-1.661C77.491,11.159,77.968,10.317,78.678,10.038z"/>
	<path style="fill-rule:evenodd;clip-rule:evenodd;" d="M12.38,17.79c0.45-0.131,1.86-0.073,2.366,0.151
		c0.946,0.42,1.699,1.582,2.466,2.366c0.814,0.832,1.495,1.727,2.316,2.517c1.829,1.762,3.436,3.235,4.883,4.732
		c0.526,0.409,0.963,1.021,1.56,1.662c0.512,0.548,1.266,0.965,1.46,1.711c0.147,0.568,0.017,1.38,0.05,2.165
		c0.19,4.522,0,8.634,0,13.441c0,0.871,0.029,1.722-0.403,1.862c-0.538,0.175-1.061-0.713-1.359-1.007
		c-2.721-3-5.642-5.801-8.558-8.608c-0.867-1.259-2.077-3.055-4.329-2.316c-0.931,0.306-1.772,1.571-2.467,2.316
		c-2.271,2.435-4.748,5.043-6.745,7.45c-0.461,0.566-0.917,1.128-1.46,1.712c-0.372,0.4-1.022,1.532-1.661,1.359
		c-0.55-0.149-0.466-1.161-0.454-1.963c0.061-3.746,0.051-7.636,0.051-11.629c0-1.494-0.25-3.428,0.05-4.682
		c0.296-1.237,1.448-2.029,2.265-2.919c0.453-0.494,0.861-1.047,1.309-1.561c0.45-0.517,0.965-0.949,1.409-1.46
		c0.878-1.01,1.88-1.906,2.819-2.97c0.445-0.505,0.951-0.959,1.409-1.46C10.25,19.687,11.124,18.111,12.38,17.79z"/>
	<path style="fill-rule:evenodd;clip-rule:evenodd;" d="M31.006,60.025c0.224-0.823,1.064-1.175,1.611-1.711
		c0.475-0.466,0.917-1.017,1.409-1.51c0.473-0.473,1.024-0.924,1.46-1.409c0.537-0.598,0.97-1.272,1.51-1.863
		c0.529-0.578,1.091-1.172,1.661-1.711c1.145-1.083,2.398-2.087,3.222-3.474c-0.855-0.267-1.858-0.151-2.819-0.151
		c-1.948,0-3.957-0.035-5.89-0.05c-0.976-0.008-1.929,0.222-2.769-0.101c-0.17-1.138-0.162-2.938,0-4.078
		c0.863-0.264,1.867-0.151,2.869-0.151c0.988,0,2.018,0,3.021,0c2.028,0,4.089,0.091,5.789-0.101
		c-0.113-0.504-0.608-0.802-0.957-1.107c-1.748-1.53-3.363-3.35-5.084-4.983c-0.698-0.663-1.25-1.415-1.913-2.114
		c-0.571-0.603-1.296-1.092-1.913-1.662c-0.296-0.273-0.556-0.631-0.856-0.906c-0.302-0.276-0.791-0.497-0.755-1.007
		c-0.028-0.28,0.175-0.328,0.302-0.453c4.737-0.091,10.212-0.05,15.203-0.05c0.748,0,1.542-0.103,2.063,0.05
		c0.703,0.207,1.278,1.111,1.762,1.561c0.627,0.583,1.181,1.051,1.711,1.561c2.195,2.168,4.488,4.237,6.443,6.645
		c0.831,1.143,2.563,1.968,3.172,3.373c0.318,0.735,0.343,2.06-0.051,2.869c-0.288,0.591-0.884,1.171-1.41,1.762
		c-0.503,0.566-1.089,1.104-1.56,1.611c-1.494,1.607-2.965,3.26-4.581,4.883c-1.064,1.068-1.956,2.006-3.121,3.171
		c-0.571,0.571-1.148,1.317-1.661,1.46c-1.083,0.301-3.306,0.05-4.581,0.05c-3.924,0-7.675,0.074-11.427,0
		C32.243,60.416,31.423,60.557,31.006,60.025z"/>
</g>
<g id="Layer_1">
</g>
</svg>
