<?xml version="1.0" encoding="iso-8859-1"?>
<!-- Generator: Adobe Illustrator 19.2.0, SVG Export Plug-In . SVG Version: 6.00 Build 0)  -->
<svg version="1.1" xmlns="http://www.w3.org/2000/svg" xmlns:xlink="http://www.w3.org/1999/xlink" x="0px" y="0px"
	 viewBox="0 0 73.382 74.647" style="enable-background:new 0 0 73.382 74.647;" xml:space="preserve">
<g id="Emme_x5F_Edizioni">
	<path style="fill-rule:evenodd;clip-rule:evenodd;" d="M4.157,3.231c1.689-1.508,3.568-2.833,6.336-3.168
		c1.379-0.167,2.963,0.051,4.497,0.051c14.755-0.001,29.625,0.203,44.555,0.205c1.448,0,3.072-0.141,4.395,0.102
		c2.291,0.42,4.315,1.824,5.773,3.27c1.556,1.543,2.611,3.476,3.219,5.773c0.644,2.432,0.409,5.571,0.409,8.636
		c-0.001,11.915-0.155,23.658-0.153,35.562c0,3,0.141,5.995,0,8.993c-0.13,2.742-0.955,5.009-2.248,6.796
		c-1.921,2.654-4.422,4.578-8.431,5.109c-1.32,0.175-2.74,0.026-4.344,0.051c-2.934,0.045-6.1,0.016-8.941,0
		c-6.168-0.033-11.841,0.04-17.781-0.051c-5.763-0.088-11.734,0.113-17.475-0.103c-1.624-0.061-2.95-0.074-4.189-0.357
		c-4.567-1.041-8.029-4.284-9.248-8.788c-0.327-1.208-0.392-2.472-0.46-4.037c-0.122-2.776-0.046-5.918-0.052-8.891
		c-0.005-2.901,0.051-5.967,0.052-8.891c0.001-8.71,0.015-17.554,0.102-26.518c0.028-2.856-0.227-5.846,0.512-8.227
		C1.412,6.397,2.483,4.782,4.157,3.231z M32.923,2.004c-4.898-0.17-9.962,0.044-14.868-0.102c-2.017-0.061-4.027-0.09-5.927,0
		C9.123,2.043,7.031,3.258,5.333,4.764c-1.544,1.537-2.99,3.499-3.117,6.233c0.791,0.396,1.773,0.307,2.708,0.307
		c2.956-0.001,6.07,0.07,8.993,0c2.771-0.067,5.709-0.092,8.635,0c0.989,0.03,1.995-0.143,2.912,0.153
		c0.151,0.388,0.186,1.318-0.051,1.635c-0.828,0.339-1.795,0.204-2.708,0.204c-6.812,0-13.728-0.188-20.489,0.051
		c-0.429,1.429-0.172,3.191-0.204,4.905c-0.017,0.851-0.051,1.721-0.052,2.607c0,0.864-0.118,1.787,0.154,2.555
		c0.802,0.387,1.783,0.255,2.707,0.255c0.993,0.001,2.015,0,3.016,0c4.034,0.001,7.924-0.134,11.803,0.052
		c1.962,0.094,3.921-0.194,5.774,0.153c0.245,0.367,0.23,1.428-0.051,1.737c-3.461,0.293-7.627,0.103-11.752,0.102
		c-2.782,0-5.795,0.1-8.737,0.052c-0.83-0.014-2.432-0.22-2.759,0.153c-0.302,0.342-0.141,1.846-0.154,2.401
		c-0.02,0.86-0.051,1.797-0.051,2.555c0,1.812-0.119,3.643,0.153,5.059c1.221,0.452,2.593,0.25,3.934,0.307
		c0.677,0.028,1.384-0.009,2.095-0.052c2.108-0.127,4.129,0,6.233,0c5.642,0,11.768-0.065,17.168,0.103
		c1.408,0.044,2.843,0.155,4.191-0.103c0.306-1.341,0.168-2.758,0.153-4.139c-0.046-4.357,0-8.731,0-13.029
		c0-2.812,0.067-5.597,0.051-8.38c-0.017-2.809,0.065-5.635-0.153-8.43C34.845,1.962,33.885,2.038,32.923,2.004z M42.223,2.055
		c-1.415,0.066-2.985-0.17-4.292,0.154c-0.301,5.448-0.205,11.21-0.204,16.963c0,4.312-0.102,8.689-0.103,12.876
		c0,1.405-0.071,2.798,0.204,4.139c2.744,0.262,5.551,0.13,8.38,0.103c2.824-0.027,5.686,0.133,8.533,0.102
		c4.26-0.045,8.505,0,12.62,0.052c1.367,0.018,2.775,0.185,4.088-0.153c0.379-2.087-0.003-4.28,0.102-6.592
		c0.095-2.082-0.052-4.304-0.052-6.488c0-2.108,0-4.459,0-6.745c0-3.188-0.026-6.023-0.919-8.124
		c-0.226-0.529-0.41-1.113-0.665-1.532c-0.707-1.166-1.954-2.27-3.116-3.016c-1.229-0.789-2.822-1.498-4.548-1.431
		c-0.38,0.836-0.182,1.837-0.204,2.76c-0.141,5.805-0.052,11.97-0.052,17.781c0,0.959,0.118,1.939-0.204,2.81
		c-0.351,0.189-1.089,0.226-1.431,0c-0.357-1.82-0.205-3.835-0.204-5.824c0.001-5.107-0.001-10.027,0-14.767
		c0-0.95,0.114-1.951-0.153-2.861c-1.435-0.216-3.192-0.153-4.956-0.153c-1.755,0-3.546-0.117-4.956,0.102
		c-0.425,0.803-0.256,1.827-0.256,2.759c-0.001,6.162,0.094,12.013-0.051,18.036c-0.023,0.934,0.096,1.953-0.307,2.76
		c-0.457,0.143-1.132,0.13-1.38-0.153c-0.338-0.387-0.097-2.005-0.103-2.81c-0.007-1.053-0.051-1.915-0.051-2.861
		c0-5.145,0.186-10.216,0-14.868c-0.041-1.026,0.142-2.043-0.153-2.913C46.033,1.983,44.125,1.967,42.223,2.055z M4.719,38.128
		c-0.735,0-1.576-0.097-2.197,0c-0.904,0.143-0.613,2.02-0.613,2.861c0,5.732,0.052,10.767,0.051,16.3
		c0,2.161-0.155,4.495,0.154,6.387c0.55,3.368,2.623,5.703,5.007,7.205c2.155,1.356,4.62,1.361,7.613,1.481
		c0.977,0.039,1.955-0.078,2.912-0.051c5.128,0.143,10.631-0.038,15.789,0.153c0.703,0.025,1.457,0.2,2.145-0.103
		c0.291-1.269,0.187-2.671,0.153-4.088c-0.033-1.409,0.051-2.882,0.051-4.343c0.002-7.335,0.052-13.758,0.052-21.205
		c0-0.782,0.234-3.81-0.153-4.24c-0.347-0.385-1.653-0.172-2.351-0.205c-0.975-0.046-1.763-0.051-2.555-0.051
		c-1.815,0-3.643-0.112-5.059,0.153c-0.459,1.861-0.204,3.929-0.204,5.979c0,4.215,0.051,8.409,0.051,12.518
		c0,2.054,0.356,4.141-0.103,6.029c-0.429,0.13-1.317,0.219-1.583-0.052c-0.413-0.419-0.153-2.937-0.153-3.935
		c-0.001-4.226,0.09-8.233,0.051-12.313c-0.013-1.26-0.142-2.714-0.103-4.139c0.041-1.463,0.197-2.949-0.103-4.088
		c-1.415-0.385-3.07-0.086-5.007-0.153c-0.723-0.024-1.577-0.052-2.605-0.051c-0.808,0-2.079-0.221-2.453,0.153
		c-0.419,0.419-0.204,2.072-0.204,2.963c0,6.286,0.103,11.884,0.102,18.497c-0.001,0.888,0.184,2.691-0.153,3.065
		c-0.318,0.353-1.389,0.211-1.584-0.051c-0.355-0.474-0.097-1.833-0.102-2.912c-0.008-1.425-0.062-2.08-0.052-2.913
		c0.081-5.64-0.05-10.275-0.05-15.687c-0.001-1.01,0.115-2.055-0.154-3.015C9.226,38.125,6.908,38.128,4.719,38.128z M68.333,38.231
		c-3.365,0.159-6.723,0-10.065,0c-4.378,0-8.792-0.176-13.029-0.051c-0.062,0.002-0.075,0.044-0.153,0.051
		c-2.347,0.215-5.023-0.198-7.256,0.256c-0.263,1.49-0.208,3.252-0.152,5.007c0.054,1.746-0.2,3.643,0.204,5.11
		c0.906,0.271,1.905,0.152,2.861,0.152c6.139,0,12.149-0.037,18.036,0.052c0.975,0.015,1.991-0.13,2.913,0.153
		c0.193,0.382,0.286,1.402,0,1.686c-0.333,0.329-2.065,0.18-2.811,0.153c-1.159-0.04-2.051,0.011-3.015,0
		c-4.28-0.045-8.006,0.052-12.109,0.052c-2.078,0-4.255-0.161-5.928,0.152c-0.291,1.5-0.152,3.233-0.152,4.905
		c-0.001,1.679-0.057,3.399,0.102,4.956c1.791,0.65,3.964,0.122,6.029,0.205c0.718,0.028,1.447,0.113,2.146,0.101
		c2.562-0.042,5.287,0.072,7.869-0.051c1.397-0.066,2.777,0.102,4.139,0.051c1.289-0.048,2.607-0.189,3.781,0.205
		c0.128,0.44,0.226,1.36-0.051,1.635c-0.321,0.317-2.064,0.153-2.913,0.153c-3.196,0-5.996,0-8.992,0c-3.021,0-6.098-0.104-9.096,0
		c-0.98,0.034-1.995-0.071-2.81,0.256c-0.37,1.314-0.086,2.909-0.153,4.445c-0.068,1.549-0.173,3.19,0.153,4.496
		c1.391,0.275,2.9,0.153,4.394,0.153c6.18,0.002,12.018,0.102,17.781,0.102c1.488-0.001,2.886-0.149,4.088-0.46
		c2.107-0.546,4.316-2.158,5.365-3.781c0.547-0.848,0.907-1.826,1.277-2.811c0.403-1.074,0.535-2.156,0.613-3.475
		c0.137-2.327,0.027-5.055,0.153-7.817c0.12-2.654,0.05-5.371,0.051-8.021c0-1.354,0.077-2.71,0.051-4.037
		c-0.025-1.3,0.069-2.62-0.255-3.832C70.43,38.012,69.34,38.183,68.333,38.231z"/>
</g>
<g id="Layer_1">
</g>
</svg>
