<?xml version="1.0" encoding="iso-8859-1"?>
<!-- Generator: Adobe Illustrator 19.2.0, SVG Export Plug-In . SVG Version: 6.00 Build 0)  -->
<svg version="1.1" xmlns="http://www.w3.org/2000/svg" xmlns:xlink="http://www.w3.org/1999/xlink" x="0px" y="0px"
	 viewBox="0 0 49.678 145.243" style="enable-background:new 0 0 49.678 145.243;" xml:space="preserve">
<g id="Encore_x5F_Careers">
	<path style="fill-rule:evenodd;clip-rule:evenodd;" d="M29.383,0.008c11.922-0.337,21.464,9.969,20.148,22.067
		c-1.049,9.642-9.578,17.91-20.868,17.39c-6.596-0.304-12.482-4.096-15.471-8.515c-2.935-4.341-4.173-11.268-2.519-16.79
		C13.149,5.897,19.732,0.281,29.383,0.008z M32.501,1.447C32.579,1.526,32.451,1.397,32.501,1.447L32.501,1.447z"/>
	<path style="fill-rule:evenodd;clip-rule:evenodd;fill:#FFFFFF;" d="M32.501,1.447C32.451,1.397,32.579,1.526,32.501,1.447
		L32.501,1.447z"/>
	<path style="fill-rule:evenodd;clip-rule:evenodd;" d="M7.795,145.243c-2.911-2.885-5.122-6.471-7.795-9.594
		c4.232-3.692,8.772-7.417,12.712-11.873c3.836-4.339,7.923-8.896,10.194-14.392c0.468-1.133,1.77-4.419,1.319-5.397
		c-0.42-0.91-2.629-1.107-3.119-1.319c-5.938-2.566-11.395-8.436-11.273-17.27c0.148-10.733,9.104-18.221,19.669-18.109
		c15.687,0.165,23.51,16.071,18.829,32.74c-0.701,2.497-1.563,5.149-2.519,7.196C37.875,124.236,23.549,135.615,7.795,145.243z"/>
</g>
<g id="Layer_1">
</g>
</svg>
