<?xml version="1.0" encoding="iso-8859-1"?>
<!-- Generator: Adobe Illustrator 19.2.0, SVG Export Plug-In . SVG Version: 6.00 Build 0)  -->
<svg version="1.1" xmlns="http://www.w3.org/2000/svg" xmlns:xlink="http://www.w3.org/1999/xlink" x="0px" y="0px"
	 viewBox="0 0 77.013 45.227" style="enable-background:new 0 0 77.013 45.227;" xml:space="preserve">
<g id="Engineering_x5F_Products_x5F_of_x5F_Canada">
	<path style="fill-rule:evenodd;clip-rule:evenodd;" d="M34.154,0.207c0.259,4.589,0.205,9.759,0.05,14.346
		c-0.557,0.272-1.266,0.105-1.899,0.101c-4.288-0.038-8.594,0-13.046,0c-0.56-0.001-1.217-0.119-1.749,0.149
		c-0.107,0.312-0.107,0.688,0,1c0.547,0.261,1.261,0.199,1.898,0.199c1.95,0.004,4.168,0,6.349,0
		c2.911,0.001,5.864-0.114,8.447,0.15c0.167,4.067,0.167,8.829,0,12.896c-3.983,0.182-8.434,0.101-12.645,0.1
		c-1.392,0-2.778-0.213-4.049,0.101c-0.093,0.24-0.034,0.632-0.051,0.949c0.54,0.402,1.308,0.25,2,0.25c2.143,0.001,4.416,0,6.498,0
		c2.817,0.001,5.61-0.034,8.247,0.15c0.183,2.288,0.101,4.819,0.101,7.298c0,2.479,0.118,4.974-0.15,7.197
		c-5.362,0.008-11.226,0.273-16.995,0c-1.944-0.092-3.718-0.003-5.448-0.35c-3.136-0.627-5.495-2.245-7.447-4.199
		c-1.998-1.997-3.36-4.415-3.949-7.647c-0.63-3.456-0.09-7.537-0.25-11.196c-0.077-1.755,0-3.629,0-5.498
		c0-5.793,1.949-9.531,4.998-12.447c1.857-1.776,4.786-3.47,7.898-3.699c1.741-0.128,3.572,0,5.398,0
		C23.483,0.058,28.974,0.059,34.154,0.207z"/>
	<path style="fill-rule:evenodd;clip-rule:evenodd;" d="M54.698,0.207c0.267,0.881,0.15,1.832,0.15,2.749
		c0,6.559,0.025,13.56,0.05,19.845c0.024,6.249-0.051,12.793-0.05,19.645c0,0.891,0.112,1.825-0.15,2.699
		c-5.774,0.045-12.668,0.159-18.744,0c-0.186-12.704-0.098-26.396-0.101-39.639c0-1.463,0.001-2.537,0-4.249
		c0-0.937-0.028-1.062,0.5-1.149c0.671-0.111,1.568,0.05,2.35,0.05C43.849,0.157,49.391-0.01,54.698,0.207z"/>
	<path style="fill-rule:evenodd;clip-rule:evenodd;" d="M56.498,29.549c-0.274-0.541-0.136-1.167-0.149-1.75
		c-0.201-8.449-0.002-17.003,0-25.893c0-0.555-0.114-1.179,0.149-1.699c3.091-0.023,7.196-0.29,9.897,0.4
		c1.38,0.352,2.57,0.881,3.599,1.499c1.078,0.649,1.876,1.477,2.749,2.35c3.175,3.174,5.61,9.15,3.449,15.346
		c-0.48,1.378-1.324,2.788-2.199,3.948c-2.137,2.835-4.821,4.967-9.147,5.699C62.315,29.877,59.512,29.644,56.498,29.549z"/>
</g>
<g id="Layer_1">
</g>
</svg>
