<?xml version="1.0" encoding="iso-8859-1"?>
<!-- Generator: Adobe Illustrator 19.2.0, SVG Export Plug-In . SVG Version: 6.00 Build 0)  -->
<svg version="1.1" xmlns="http://www.w3.org/2000/svg" xmlns:xlink="http://www.w3.org/1999/xlink" x="0px" y="0px"
	 viewBox="0 0 79.125 80.509" style="enable-background:new 0 0 79.125 80.509;" xml:space="preserve">
<g id="Enrico_x5F_Tronconi">
	<path style="fill-rule:evenodd;clip-rule:evenodd;" d="M7.822,2.985c0.363-0.228,0.325-0.668,0.522-0.993
		c0.795-1.308,2.733-2.227,4.336-1.411c0.328,0.167,0.708,0.304,0.941,0.47c0.688,0.493,0.877,1.425,1.306,2.09
		c0.562-0.564,0.652-1.405,1.254-1.985c1.255-1.211,3.744-1.285,4.911,0.105c0.407,0.464,0.512,1.23,0.993,1.62
		c0.492-0.569,0.645-1.338,1.202-1.829c0.446-0.393,1.155-0.841,1.829-0.941c2.251-0.333,3.32,1.351,4.023,2.874
		c0.341-0.171,0.272-0.54,0.418-0.836c0.592-1.199,1.932-2.224,3.605-2.038c1.714,0.19,2.401,1.443,3.083,2.769
		c0.451-0.441,0.52-1.103,0.94-1.567c0.48-0.53,1.319-1.091,2.09-1.202c1.527-0.219,3.09,0.665,3.657,1.829
		c0.18,0.369,0.078,0.808,0.47,1.045c0.362-0.2,0.326-0.737,0.523-1.097c0.659-1.205,2.503-2.361,4.232-1.672
		c1.019,0.406,1.764,1.703,2.299,2.717c0.361-0.283,0.451-0.837,0.679-1.254c0.634-0.985,2.266-2.079,3.919-1.515
		c0.556,0.189,0.963,0.678,1.463,0.94c0.441,0.447,0.62,1.157,1.097,1.567c0.397-0.275,0.397-0.745,0.627-1.097
		c1.275-1.957,4.716-2.089,6.008,0.157c0.181,0.314,0.143,0.691,0.47,0.94c0.531-0.516,0.761-1.233,1.306-1.724
		c0.274-0.247,0.694-0.581,1.045-0.731c1.444-0.619,3.266,0.199,4.023,1.149c0.326,0.409,0.379,0.942,0.836,1.306
		c0.501-0.562,0.761-1.363,1.358-1.829c2.349-1.901,6.111-0.1,5.799,3.239c-0.071,0.755-0.474,1.609-0.94,2.09
		c-0.425,0.438-1.033,0.614-1.463,1.097c0.147,0.41,0.677,0.438,0.993,0.679c0.74,0.764,1.418,1.749,1.411,3.03
		c-0.011,1.878-1.353,2.942-2.56,3.657c0.41,0.508,1.072,0.602,1.515,1.045c0.725,0.725,1.23,1.723,1.045,3.396
		c-0.166,1.496-1.324,2.08-2.247,2.926c0.287,0.532,0.965,0.672,1.358,1.098c0.22,0.422,0.531,0.697,0.679,1.097
		c0.874,2.358-0.847,4.297-2.351,5.068c0.221,0.444,0.707,0.487,1.045,0.731c0.846,0.61,1.538,1.731,1.358,3.396
		c-0.171,1.59-1.308,2.364-2.456,3.083c0.351,0.602,1.068,0.682,1.515,1.149c0.569,0.595,1.033,1.581,0.94,2.874
		c-0.052,0.731-0.297,1.444-0.679,1.933c-0.467,0.598-1.18,0.918-1.724,1.463c0.358,0.443,1.026,0.576,1.411,0.993
		c1.545,1.395,1.141,4.309-0.366,5.486c-0.448,0.35-0.928,0.339-1.254,0.836c0.217,0.408,0.697,0.402,1.045,0.627
		c0.956,0.618,1.69,1.847,1.515,3.553c-0.165,1.613-1.312,2.345-2.351,3.135c0.218,0.468,0.666,0.476,0.993,0.731
		c0.446,0.348,0.944,0.979,1.149,1.463c0.919,2.17-0.513,4.252-2.194,5.068c0.543,0.614,1.241,0.781,1.776,1.567
		c1.032,1.515,0.685,4.056-0.627,5.12c-0.398,0.351-1.024,0.474-1.411,0.836c0.196,0.443,0.696,0.404,1.045,0.627
		c0.816,0.52,1.5,1.704,1.515,2.926c0.039,3.105-3.66,4.746-5.852,2.821c-0.605-0.531-0.827-1.264-1.254-2.142
		c-0.514,0.767-0.797,1.686-1.515,2.246c-0.584,0.456-1.551,0.785-2.769,0.628c-1.616-0.209-2.21-1.551-2.978-2.717
		c-0.744,1.385-1.688,2.759-3.605,2.769c-1.911,0.01-2.933-1.427-3.553-2.925c-0.416,0.332-0.52,0.871-0.836,1.306
		c-0.513,0.706-1.285,1.418-2.456,1.516c-1.862,0.154-3.262-1.278-3.814-2.769c-0.6,0.534-0.751,1.284-1.254,1.829
		c-0.586,0.634-1.712,0.914-2.612,0.835c-1.812-0.157-2.604-1.574-3.24-2.873c-0.569,0.558-0.796,1.528-1.515,2.089
		c-1.204,0.941-3.738,0.944-4.754-0.366c-0.385-0.45-0.54-1.132-0.993-1.515c-0.518,0.301-0.63,1.007-1.045,1.411
		c-0.705,0.555-1.433,1.11-2.508,1.149c-1.929,0.071-3.004-1.451-3.657-2.769c-0.414,0.202-0.424,0.725-0.679,1.097
		c-0.889,1.294-2.786,2.202-4.389,1.358c-0.571-0.301-1.239-0.924-1.567-1.515c-0.213-0.383-0.216-0.867-0.575-1.149
		c-0.594,0.912-1.048,1.957-2.038,2.456c-1.561,0.785-3.604,0.215-4.493-1.149c-0.256-0.393-0.271-0.828-0.627-1.202
		c-0.434,0.104-0.462,0.602-0.627,0.888c-0.543,0.944-1.684,1.964-3.344,1.829C9.16,79.909,8.293,79.36,7.77,78.69
		c-0.384-0.491-0.455-1.158-0.888-1.672c-0.278,0.255-0.264,0.534-0.366,0.784c-1.267,3.121-6.024,2.523-6.478-0.784
		c-0.17-1.236,0.268-1.954,0.627-2.769c0.572-0.682,1.368-1.141,2.142-1.62c-0.937-0.586-1.818-1.031-2.299-1.985
		c-0.781-1.548-0.231-3.502,0.836-4.441c0.494-0.435,1.188-0.554,1.724-0.94c-0.205-0.386-0.657-0.373-0.993-0.575
		c-1.311-0.787-2.328-2.728-1.515-4.807c0.583-0.81,1.427-1.359,2.247-1.933c-0.206-0.328-0.602-0.328-0.888-0.522
		C1.1,56.867,0.54,56.043,0.247,54.97c-0.181-1.992,0.586-3.036,1.672-3.762c0.378-0.144,0.834-0.21,0.993-0.575
		c-0.219-0.381-0.67-0.417-0.993-0.627c-0.83-0.539-1.284-1.372-1.567-2.456c-0.19-2.455,1.202-3.326,2.664-4.127
		c-1.345-0.922-2.815-1.778-2.508-4.284c0.182-1.485,1.459-2.263,2.456-2.978c-0.613-0.606-1.469-0.907-1.934-1.62
		c-0.241-0.37-0.509-0.974-0.574-1.515c-0.26-2.146,1.189-3.267,2.508-4.128c-0.196-0.414-0.7-0.52-1.045-0.783
		c-0.518-0.552-1.174-1.22-1.306-2.143c-0.305-2.122,1.104-3.613,2.56-4.232c-0.155-0.434-0.619-0.449-0.94-0.679
		c-1.001-0.715-1.637-1.804-1.567-3.604c0.345-1.484,1.323-2.334,2.456-3.031c-0.54-0.668-1.376-0.982-1.829-1.724
		c-0.615-1.009-0.739-2.82-0.052-3.971C1.688,7.98,2.451,7.63,3.225,7.112c-0.19-0.517-0.66-0.483-1.045-0.784
		c-1.357-1.06-1.832-3.376-0.732-5.016c0.852-1.3,3.824-1.838,5.016-0.47C7.066,1.407,7.265,2.375,7.822,2.985z M14.249,8.941
		c-1.656-2.659-6.432-1.684-6.426,1.933c0.002,1.263,0.695,2.318,1.62,2.926c1.296,0.852,3.103,0.616,4.127-0.314
		c0.664-0.602,0.875-1.513,1.358-2.194c0.502,1.628,1.508,2.933,3.344,3.082c1.203,0.098,2.403-0.676,2.926-1.411
		c0.357-0.502,0.359-1.164,0.836-1.567c0.461,1.716,1.594,2.76,3.396,3.135c-1.136,0.413-2.227,0.829-2.821,1.776
		c-0.257,0.41-0.225,0.946-0.679,1.254c-0.546-1.496-1.776-3.213-3.866-2.926c-1.845,0.254-2.718,1.753-3.292,3.396
		c-0.284-1.742-1.559-3.351-3.396-3.448c-1.001-0.053-2.081,0.547-2.717,1.202c-1.021,1.05-1.172,2.756-0.575,3.971
		c0.496,1.007,1.497,1.396,2.403,1.985c-0.331,0.474-0.99,0.519-1.463,0.889c-0.623,0.486-1.258,1.407-1.358,2.298
		c-0.152,1.352,0.508,2.262,1.149,3.083c0.728,0.414,1.484,0.869,2.456,0.836c1.825-0.063,2.846-1.504,3.448-2.821
		c0.325,0.442,0.546,0.987,0.784,1.516c0.826,0.85,2.271,1.771,3.918,1.201c0.512-0.177,1.204-0.69,1.567-1.097
		c0.428-0.479,0.469-1.134,0.888-1.568c0.678,1.651,1.97,3.095,4.18,2.821c0.949-0.117,1.848-0.822,2.299-1.515
		c0.154-0.236,0.375-1.283,0.679-1.254c0.193,0.018,0.389,0.854,0.47,0.992c0.242,0.413,0.67,0.805,1.045,1.098
		c0.424,0.331,0.951,0.429,1.358,0.836c-1.318,0.663-2.642,1.472-2.821,3.135c-0.19,1.766,0.7,2.789,1.62,3.396
		c0.328,0.216,0.833,0.309,1.045,0.731c-0.64,0.422-1.277,0.621-1.776,1.097c-1.605,1.529-1.028,4.241,0.366,5.329
		c0.405,0.316,1.003,0.336,1.254,0.836c-0.457,0.392-1.053,0.481-1.515,0.888c-1.027,0.904-1.472,2.41-0.94,4.075
		c0.574,1.185,1.682,1.836,3.03,2.246c-1.869,0.42-3.609,1.787-3.344,4.128c0.154,1.355,1.007,2.129,1.985,2.769
		c0.287,0.131,0.761,0.075,0.784,0.47c-1.406,0.671-2.581,1.441-2.769,3.135c-0.225,2.031,1.282,3.907,3.292,3.971
		c2.162,0.069,3.076-1.537,3.709-3.135c0.621,1.598,1.489,3.163,3.5,3.239c1.743,0.066,3.36-1.351,3.553-2.926
		c0.214-1.743-0.594-3.023-1.672-3.657c-0.29-0.17-0.71-0.158-0.888-0.522c0.216-0.394,0.697-0.522,1.097-0.731
		c0.832-0.596,1.307-1.55,1.672-2.612c0.399,0.901,0.661,1.767,1.358,2.351c0.559,0.469,1.281,0.699,2.09,0.94
		c1.953-0.171,3.498-1.57,3.5-3.501c0.003-2.97-3.356-4.85-5.747-2.665c-0.559,0.556-0.809,1.421-1.202,2.142
		c-0.544-1.468-1.596-3.13-3.5-3.187c-1.163-0.035-2.163,0.722-2.874,1.411c-0.383,0.488-0.468,1.273-0.888,1.724
		c-0.215-0.546-0.271-1.076-0.522-1.515c-0.578-1.008-1.654-1.417-2.769-1.881c1.192-0.33,2.225-0.801,2.821-1.724
		c0.241-0.373,0.21-0.867,0.627-1.149c0.669,1.542,1.643,2.78,3.709,2.926c0.992-0.321,1.894-0.585,2.508-1.254
		c0.515-0.562,0.592-1.319,1.045-1.985c0.407,1.618,1.709,3.28,3.552,3.292c2.177,0.013,3.805-2.454,3.188-4.545
		c-0.406-1.374-1.619-2.205-3.03-2.612c1.333-0.243,2.458-1.158,2.926-2.194c0.778-1.726-0.131-3.77-1.411-4.598
		c-0.303-0.196-0.669-0.16-0.888-0.522c1.421-0.791,3.057-2.1,2.56-4.337c-0.322-1.451-1.484-2.322-2.821-2.873
		c1.13-0.534,2.199-1.093,2.717-2.247c0.134-0.298,0.096-0.659,0.366-0.94c0.524,1.783,1.792,3.366,4.127,3.03
		c1.676-0.24,2.383-1.646,2.978-3.083c0.53,1.476,1.32,2.861,2.978,3.083c2.456,0.329,3.534-1.267,4.232-2.978
		c0.322,1.851,2.464,3.856,4.911,2.874c0.32-0.128,0.509-0.417,0.888-0.574c1.914-1.408,1.309-4.626-0.366-5.643
		c-0.429-0.26-1.037-0.273-1.306-0.732c1.418-0.585,2.763-1.483,2.926-3.187c0.206-2.143-1.518-4.004-3.448-4.023
		c-1.875-0.018-3.235,1.782-3.605,3.344c-0.6-1.702-1.405-3.082-3.292-3.291c-1.829-0.202-3.577,1.365-3.814,3.135
		c-0.213,1.589,0.733,2.884,1.672,3.448c0.348,0.21,0.81,0.215,0.993,0.627c-0.351,0.368-0.824,0.431-1.202,0.731
		c-0.789,0.629-1.163,1.534-1.62,2.508c-0.395-1.245-1.03-2.312-2.09-2.821c-0.294-0.141-0.722-0.095-0.888-0.47
		c1.293-0.614,2.526-1.498,2.873-2.926c0.535-2.197-1.779-4.803-4.18-4.18c-1.505,0.391-2.38,1.812-2.821,3.291
		c-0.528-1.911-1.422-3.454-3.918-3.396c-1.004,0.285-1.715,0.862-2.351,1.515c-0.339,0.497-0.431,1.242-0.784,1.724
		c-0.421-1.686-1.709-3.536-3.866-3.291c-0.893,0.101-1.443,0.643-2.142,1.045c-0.509,0.518-0.732,1.323-1.149,1.933
		c-0.277-0.344-0.258-0.757-0.418-1.097c-0.526-1.12-1.59-1.574-2.717-2.09c0.623-0.36,1.261-0.469,1.776-0.888
		c0.756-0.615,0.981-1.543,1.463-2.455c0.263,0.899,0.585,1.745,1.254,2.351c0.555,0.503,1.557,1.034,2.612,0.888
		c1.658-0.228,2.945-1.672,3.083-3.187c0.228-2.502-2.026-4.291-4.232-3.762c-1.428,0.343-2.329,1.595-2.769,3.135
		c-0.458-1.603-1.361-3.001-3.083-3.187c-2.239-0.241-3.561,1.504-4.075,3.396c-0.431-1.684-1.233-3.15-3.03-3.344
		c-1.401-0.151-2.458,0.494-3.082,1.202c-0.456,0.518-0.526,1.253-0.993,1.776c-0.425-1.928-2.265-3.659-4.65-2.821
		c-1.295,0.455-1.945,1.656-2.403,3.03C14.599,9.977,14.545,9.417,14.249,8.941z M44.813,8.209
		c-2.262,1.857-1.113,6.054,1.934,6.217c1.921,0.103,3.531-1.655,3.605-3.396c0.094-2.21-1.719-3.876-3.971-3.553
		C45.758,7.617,45.244,7.855,44.813,8.209z M53.225,7.478c-2.054,0.574-3.32,2.949-2.299,5.016c0.49,0.993,1.821,2.027,3.082,1.985
		c2.005-0.067,3.203-1.846,3.5-3.605c0.333,1.834,1.505,3.61,3.657,3.553c2.015-0.054,3.396-1.768,3.396-3.553
		c0-2.309-1.985-3.69-4.023-3.448c-1.032,0.123-1.98,0.869-2.455,1.724c-0.253,0.454-0.208,0.892-0.627,1.411
		C56.947,8.65,55.783,7.172,53.225,7.478z M64.876,10.926c0,3.185,3.918,4.496,5.904,2.403c2.088-2.2,0.33-6.257-2.874-5.799
		C66.216,7.826,64.876,9.14,64.876,10.926z M14.719,33.601c-0.052,0-0.104,0-0.157,0c-0.519,1.118-1.399,1.875-2.351,2.56
		c0.388,0.5,1.035,0.741,1.463,1.202c0.345,0.508,0.592,1.114,0.94,1.62c0.347-0.389,0.367-0.863,0.627-1.254
		c0.466-0.701,1.33-0.905,1.881-1.515C16.095,35.569,15.194,34.797,14.719,33.601z M23.026,35.325
		c-0.501-0.487-0.693-1.172-1.202-1.672c-0.035,0-0.07,0-0.104,0c-0.001,0.069-0.091,0.047-0.104,0.104
		c-0.157,0.383-0.404,0.675-0.575,1.045c-0.452,0.592-1.228,0.861-1.672,1.463c0.279,0.296,0.687,0.462,1.045,0.679
		c0.608,0.42,0.78,1.275,1.411,1.671c0.542-1.025,1.39-1.745,2.403-2.298C23.968,35.818,23.405,35.694,23.026,35.325z M64.51,33.653
		c-0.003,0.067-0.067,0.072-0.052,0.156c-0.321,0.742-0.701,1.424-1.306,1.881c-0.35,0.277-0.853,0.401-1.097,0.784
		c1.093,0.614,1.96,1.453,2.508,2.612c0.461-0.218,0.556-0.802,0.836-1.202c0.473-0.572,1.226-0.864,1.724-1.411
		c-0.546-0.45-1.137-0.755-1.567-1.307c-0.377-0.483-0.509-1.058-0.94-1.515C64.58,33.653,64.545,33.653,64.51,33.653z
		 M8.031,34.542c-0.173-0.279-0.261-0.595-0.522-0.836c-0.052,0-0.104,0-0.157,0c-0.595,1.045-1.42,1.749-2.299,2.456
		c1.05,0.604,1.798,1.51,2.247,2.717c0.466-0.479,0.652-1.047,1.097-1.515c0.222-0.234,0.422-0.461,0.679-0.627
		c0.262-0.169,0.666-0.203,0.784-0.574C9.203,35.613,8.491,35.282,8.031,34.542z M72.974,35.429
		c-0.454-0.467-0.717-1.055-0.993-1.724c-0.052,0-0.104,0-0.157,0c-0.312,0.553-0.496,1.156-0.888,1.62
		c-0.438,0.518-1.004,0.714-1.567,1.202c0.511,0.604,1.393,0.836,1.776,1.567c0.259,0.333,0.254,0.93,0.731,1.045
		c0.579-1.145,1.481-1.967,2.612-2.561C74.049,36.09,73.425,35.894,72.974,35.429z M58.711,35.587
		c-0.548-0.491-0.764-1.21-1.306-1.724c-0.035,0-0.07,0-0.104,0c-0.308,0.605-0.567,1.089-0.993,1.515
		c-0.394,0.394-0.854,0.588-1.254,1.045c0.208,0.296,0.561,0.45,0.888,0.626c0.664,0.521,1.006,1.362,1.567,1.986
		c0.363-0.38,0.45-0.875,0.784-1.254c0.481-0.546,1.162-0.831,1.724-1.306C59.656,36.035,59.115,35.948,58.711,35.587z
		 M14.614,40.498c-0.052,0-0.104,0-0.157,0c-0.003,0.066-0.067,0.072-0.052,0.157c-0.312,0.576-0.564,1.212-1.045,1.62
		c-0.369,0.519-1.176,0.6-1.515,1.149c0.658,0.308,1.162,0.572,1.62,1.045c0.466,0.481,0.66,1.09,1.149,1.567
		c0.304-0.306,0.448-0.771,0.679-1.149c0.498-0.565,1.271-0.854,1.776-1.411C15.971,42.763,14.979,41.944,14.614,40.498z
		 M8.972,42.744c-0.729-0.491-1.064-1.374-1.567-2.09C7.393,40.613,7.36,40.593,7.3,40.602c-0.508,1.199-1.26,2.154-2.403,2.717
		c0.44,0.485,0.983,0.721,1.411,1.202c0.444,0.499,0.567,1.122,1.045,1.62c0.585-1.226,1.436-2.186,2.717-2.717
		C9.863,43.037,9.366,42.942,8.972,42.744z M21.877,41.072c-0.072,0.002-0.115-0.024-0.157-0.052
		c-0.001,0.069-0.091,0.047-0.104,0.104c-0.463,0.676-0.832,1.321-1.515,1.776c-0.278,0.185-0.592,0.222-0.784,0.575
		c0.586,0.599,1.391,0.932,1.829,1.672c0.187,0.315,0.177,0.716,0.575,0.888c0.394-0.346,0.451-0.835,0.784-1.202
		c0.485-0.535,1.231-0.773,1.672-1.358C23.238,42.846,22.353,42.163,21.877,41.072z M57.561,41.229
		c-0.072,0.002-0.115-0.025-0.157-0.052c-0.001,0.069-0.092,0.048-0.104,0.104c-0.296,0.536-0.592,1.042-0.993,1.463
		c-0.411,0.43-0.947,0.603-1.358,1.097c0.699,0.463,1.38,0.85,1.829,1.567c0.207,0.332,0.242,0.826,0.679,0.993
		c0.351-0.464,0.485-0.984,0.888-1.411c0.498-0.527,1.333-0.775,1.672-1.254C58.851,43.248,58.077,42.367,57.561,41.229z
		 M71.72,41.177c-0.013,0.074-0.086,0.088-0.104,0.157c-0.443,1.159-1.396,1.808-2.299,2.508c0.494,0.411,1.114,0.697,1.567,1.149
		c0.394,0.407,0.467,1.135,0.993,1.411c0.473-0.851,1.049-1.599,1.881-2.09c0.216-0.167,0.6-0.166,0.679-0.47
		c-0.637-0.39-1.258-0.797-1.776-1.306c-0.311-0.421-0.446-1.017-0.836-1.358C71.79,41.177,71.755,41.177,71.72,41.177z
		 M65.555,42.588c-0.38-0.404-0.456-1.111-1.045-1.306c-0.364,0.412-0.485,0.914-0.836,1.306c-0.463,0.517-1.194,0.689-1.62,1.254
		c0.31,0.369,0.861,0.497,1.254,0.784c0.601,0.409,0.73,1.29,1.306,1.724c0.361-0.16,0.353-0.559,0.522-0.836
		c0.475-0.778,1.381-1.175,2.038-1.724C66.632,43.391,66.04,43.043,65.555,42.588z M7.457,47.864
		C7.39,47.861,7.384,47.798,7.3,47.812c-0.342,0.372-0.497,0.931-0.731,1.411c-0.491,0.589-1.236,0.924-1.829,1.411
		c0.646,0.399,1.238,0.749,1.672,1.358c0.322,0.453,0.292,1.115,0.836,1.411c0.527-1.04,1.151-1.984,2.247-2.456
		c0.227-0.104,0.532-0.129,0.627-0.366C8.869,50.039,7.894,49.221,7.457,47.864z M13.726,49.118
		c-0.324,0.263-0.577,0.593-0.94,0.836c-0.348,0.232-0.871,0.304-1.045,0.731c0.291,0.232,0.683,0.362,1.045,0.522
		c0.333,0.321,0.671,0.591,0.94,0.993c0.265,0.395,0.316,0.98,0.784,1.202c0.477-0.999,1.043-1.824,1.985-2.351
		c0.231-0.129,0.537-0.125,0.679-0.418c-0.583-0.388-1.11-0.662-1.567-1.149c-0.465-0.497-0.658-1.127-1.149-1.62
		C14.169,48.237,13.965,48.696,13.726,49.118z M21.563,47.917c-0.012,0.074-0.086,0.088-0.104,0.157
		c-0.348,1.324-1.467,1.876-2.456,2.56c0.271,0.426,0.854,0.539,1.254,0.836c0.659,0.421,0.772,1.387,1.411,1.829
		c0.563-1.161,1.449-1.999,2.664-2.508c-0.526-0.553-1.349-0.811-1.829-1.411c-0.363-0.403-0.435-1.098-0.836-1.463
		C21.633,47.917,21.598,47.917,21.563,47.917z M64.667,48.387c-0.052,0-0.105,0-0.157,0c-0.35,0.574-0.667,1.179-1.097,1.672
		c-0.426,0.41-1.107,0.564-1.463,1.045c0.497,0.403,1.076,0.606,1.515,1.045c0.457,0.457,0.591,1.085,1.045,1.567
		c0.302-0.064,0.315-0.416,0.418-0.679c0.274-0.227,0.352-0.531,0.575-0.784c0.474-0.538,1.236-0.683,1.672-1.254
		C65.999,50.468,65.239,49.522,64.667,48.387z M57.248,48.439c-0.001,0.069-0.092,0.048-0.104,0.104
		c-0.435,1.202-1.485,1.789-2.403,2.508c0.267,0.255,0.64,0.405,0.993,0.575c0.723,0.478,1.027,1.376,1.62,1.985
		c0.42-0.372,0.541-0.892,0.888-1.306c0.46-0.549,1.19-0.71,1.672-1.254c-0.294-0.333-0.774-0.479-1.149-0.731
		c-0.636-0.461-0.851-1.343-1.411-1.881C57.318,48.439,57.282,48.439,57.248,48.439z M71.877,48.491c-0.052,0-0.104,0-0.157,0
		c-0.013,0.074-0.086,0.088-0.104,0.157c-0.305,0.343-0.4,0.758-0.679,1.097c-0.488,0.593-1.275,0.827-1.776,1.411
		c0.786,0.52,1.555,0.967,2.038,1.776c0.186,0.311,0.211,0.744,0.627,0.888c0.412-0.539,0.622-1.12,1.097-1.567
		c0.487-0.458,1.151-0.6,1.62-1.097C73.33,50.591,72.419,49.726,71.877,48.491z M15.189,56.485
		c-0.313-0.409-0.395-0.879-0.731-1.306c-0.012-0.04-0.044-0.06-0.105-0.052c-0.013,0.075-0.086,0.088-0.104,0.157
		c-0.247,0.519-0.513,1.02-0.836,1.463c-0.474,0.537-1.281,0.739-1.724,1.306c1.289,0.557,2.132,1.56,2.612,2.926
		c0.464-0.389,0.557-1.15,0.94-1.62c0.298-0.259,0.578-0.537,0.888-0.784c0.278-0.227,0.791-0.219,0.94-0.575
		C16.381,57.532,15.687,57.135,15.189,56.485z M5.471,57.425c-0.259,0.162-0.592,0.171-0.732,0.522
		c0.157,0.317,0.479,0.258,0.732,0.418c0.861,0.545,1.19,1.571,1.62,2.56c0.476-0.325,0.539-1.063,0.888-1.515
		c0.307-0.247,0.547-0.55,0.888-0.784c0.326-0.223,0.83-0.274,0.993-0.679c-0.1-0.214-0.394-0.233-0.627-0.313
		c-0.361-0.356-0.812-0.551-1.149-0.94c-0.392-0.453-0.45-1.127-0.94-1.515C6.61,56.001,6.299,56.908,5.471,57.425z M21.406,55.283
		c0.003,0.072-0.024,0.115-0.052,0.157c-0.207,0.42-0.458,0.795-0.679,1.202c-0.453,0.609-1.285,0.84-1.776,1.411
		c0.349,0.226,0.745,0.405,1.097,0.627c0.283,0.378,0.677,0.679,0.94,1.097c0.282,0.447,0.276,0.992,0.627,1.411
		c0.332-0.429,0.321-0.935,0.575-1.358c0.481-0.8,1.369-1.165,2.09-1.724c-0.101-0.317-0.5-0.336-0.784-0.47
		c-0.39-0.324-0.776-0.652-1.097-1.045c-0.392-0.322-0.32-1.108-0.836-1.306C21.476,55.283,21.441,55.283,21.406,55.283z
		 M64.614,55.754c-0.052,0-0.104,0-0.157,0c-0.563,1.109-1.329,2.015-2.403,2.612c0.362,0.544,1.075,0.736,1.515,1.202
		c0.4,0.436,0.532,1.14,0.993,1.515c0.463-0.696,0.815-1.385,1.463-1.881c0.337-0.258,0.811-0.345,0.993-0.784
		C65.988,57.758,65.07,56.986,64.614,55.754z M71.668,55.806c-0.585,1.122-1.357,2.057-2.508,2.612
		c0.265,0.441,0.8,0.503,1.149,0.784c0.615,0.495,0.873,1.303,1.463,1.776c0.444-0.427,0.697-1.045,1.097-1.515
		c0.42-0.399,1.143-0.494,1.411-1.045c-0.541-0.364-1.185-0.626-1.62-1.097c-0.388-0.43-0.42-1.217-0.94-1.515
		C71.702,55.806,71.685,55.806,71.668,55.806z M57.875,56.694c-0.228-0.277-0.189-0.821-0.679-0.836
		c-0.266,0.295-0.383,0.668-0.627,0.993c-0.183,0.243-0.387,0.527-0.627,0.731c-0.37,0.315-0.862,0.308-1.097,0.836
		c0.498,0.338,1.017,0.655,1.463,1.045c0.412,0.406,0.539,1.099,1.097,1.358c0.223-0.16,0.307-0.459,0.418-0.731
		c0.497-0.687,1.267-1.102,1.881-1.672C59.112,57.825,58.263,57.489,57.875,56.694z M49.933,62.911
		c0.442-1.825-0.5-3.071-1.411-3.971c-1.053-0.672-2.34-0.636-3.396-0.104c-0.983,0.495-1.788,1.737-1.881,2.769
		c-0.214,2.374,1.556,3.31,3.187,4.023c-2.267,0.433-3.919,2.776-2.821,5.225c0.788,1.758,3.425,2.594,5.172,1.254
		c0.708-0.847,1.344-1.802,1.306-3.03c-0.056-1.809-1.562-3.145-3.134-3.501C48.325,65.216,49.588,64.334,49.933,62.911z
		 M21.406,62.232c-0.23,0.746-0.561,1.389-1.045,1.881c-0.455,0.521-1.228,0.723-1.724,1.202c0.335,0.335,0.733,0.353,1.097,0.575
		c0.917,0.559,1.143,1.564,1.776,2.351c0.422-0.747,0.673-1.508,1.306-2.038c0.445-0.371,1.08-0.388,1.463-0.888
		c-1.313-0.62-2.294-1.572-2.665-3.135c-0.011-0.059-0.058-0.081-0.105-0.104C21.498,62.15,21.425,62.163,21.406,62.232z
		 M14.405,62.128c-0.052,0-0.104,0-0.157,0c-0.003,0.067-0.067,0.072-0.052,0.157c-0.405,1.11-0.996,2.035-1.985,2.56
		c-0.255,0.145-0.64,0.162-0.731,0.47c1.29,0.608,2.346,1.451,2.717,2.978c0.36-0.313,0.43-0.778,0.679-1.149
		c0.23-0.343,0.504-0.775,0.836-1.045c0.441-0.358,1.049-0.369,1.463-0.836C15.858,64.611,14.812,63.689,14.405,62.128z
		 M7.195,62.18c-0.052,0-0.105,0-0.157,0c-0.398,0.903-0.69,1.738-1.411,2.299c-0.413,0.321-0.93,0.374-1.306,0.784
		c0.46,0.185,0.89,0.399,1.306,0.627c0.279,0.406,0.727,0.719,0.94,1.254c0.189,0.474,0.067,1.091,0.47,1.463
		c0.162-0.238,0.274-0.527,0.313-0.888c0.185-0.268,0.317-0.588,0.47-0.888c0.528-0.709,1.457-1.016,2.142-1.567
		C8.671,64.605,7.565,63.761,7.195,62.18z M64.353,63.12c-0.467,1.17-1.34,1.935-2.351,2.56c0.672,0.566,1.41,0.867,1.881,1.62
		c0.201,0.321,0.229,0.772,0.679,0.888c0.339-0.205,0.346-0.597,0.523-0.888c0.424-0.698,1.138-0.988,1.724-1.515
		c-0.043-0.374-0.418-0.418-0.679-0.575c-0.324-0.303-0.638-0.616-0.94-0.94c-0.276-0.351-0.313-0.94-0.731-1.149
		C64.422,63.12,64.388,63.12,64.353,63.12z M57.352,63.225c-0.052,0-0.104,0-0.157,0c0,0.069-0.092,0.048-0.104,0.104
		c-0.238,0.24-0.334,0.647-0.522,0.888c-0.471,0.603-1.23,0.897-1.672,1.515c0.216,0.236,0.521,0.385,0.836,0.522
		c0.686,0.463,0.978,1.321,1.567,1.881c0.378-0.137,0.35-0.5,0.523-0.784c0.467-0.767,1.275-1.083,1.933-1.672
		C58.701,65.115,57.945,64.252,57.352,63.225z M71.615,63.329c-0.501,1.065-1.367,1.768-2.247,2.456
		c0.386,0.449,0.902,0.68,1.306,1.097c0.412,0.426,0.592,1.009,1.097,1.358c0.499-0.525,0.735-1.183,1.306-1.62
		c0.385-0.294,0.923-0.349,1.149-0.836c-0.282-0.258-0.644-0.436-0.993-0.627c-0.27-0.292-0.542-0.568-0.784-0.888
		c-0.238-0.315-0.354-0.758-0.731-0.94C71.685,63.329,71.651,63.329,71.615,63.329z M31.908,65.576
		c-2.056,0.229-3.623,2.335-3.03,4.754c0.263,0.451,0.525,0.903,0.836,1.306c0.648,0.431,1.265,0.978,2.246,1.045
		c1.371,0.094,2.411-0.648,3.083-1.411c0.328-0.507,0.5-1.171,0.835-1.672c0.274,1.366,1.209,2.462,2.247,2.926
		c1.815,0.812,3.976-0.478,4.546-1.985c0.656-1.735-0.207-3.587-1.359-4.337c-0.503-0.328-1.278-0.575-1.881-0.575
		c-1.896,0-3.081,1.427-3.657,3.082C35.222,66.938,33.943,65.349,31.908,65.576z M6.882,69.442
		c-0.194,0.332-0.145,0.687-0.261,0.993c-0.408,1.071-1.383,1.534-2.194,2.194c0.379,0.381,0.884,0.396,1.254,0.731
		c0.643,0.584,0.804,1.508,1.306,2.246c0.418-0.511,0.513-1.158,0.94-1.62c0.546-0.59,1.315-0.821,1.933-1.358
		c-1.511-0.526-2.385-1.689-2.821-3.292c-0.012-0.04-0.044-0.06-0.104-0.052C6.931,69.352,6.867,69.358,6.882,69.442z
		 M21.302,69.599c-0.151,0.633-0.451,1.117-0.731,1.62c-0.508,0.624-1.309,0.955-1.933,1.463c1.387,0.587,2.177,1.593,2.769,2.926
		c0.622-1.329,1.511-2.39,3.03-2.821c-0.128-0.375-0.522-0.292-0.784-0.417c-1.106-0.534-1.771-1.549-2.09-2.874
		c-0.067-0.003-0.072-0.067-0.157-0.052C21.394,69.517,21.32,69.53,21.302,69.599z M14.353,69.599
		c-0.067-0.003-0.072-0.067-0.157-0.052c-0.029,0.075-0.082,0.127-0.157,0.157c-0.157,0.732-0.519,1.258-0.888,1.776
		c-0.452,0.488-1.149,0.732-1.62,1.202c0.691,0.463,1.389,0.767,1.881,1.411c0.319,0.418,0.379,0.923,0.784,1.307
		c0.662-1.279,1.523-2.134,2.769-2.77C15.708,72.006,14.716,71.116,14.353,69.599z M59.233,72.734
		c-0.858-0.45-1.374-1.241-1.829-2.09c-0.072,0.002-0.115-0.025-0.157-0.052c-0.014,0.074-0.115,0.06-0.157,0.104
		c-0.417,0.825-0.959,1.521-1.724,1.985c-0.239,0.145-0.616,0.164-0.679,0.522c0.899,0.473,1.638,1.031,2.09,1.933
		c0.131,0.262,0.119,0.669,0.522,0.732c0.489-0.755,0.835-1.519,1.567-2.038c0.361-0.256,0.841-0.291,1.149-0.679
		C59.841,72.85,59.495,72.871,59.233,72.734z M65.712,72.159c-0.474-0.461-0.825-0.984-1.149-1.567c-0.052,0-0.104,0-0.157,0
		c-0.459,0.651-0.793,1.347-1.411,1.829c-0.368,0.287-0.808,0.374-1.149,0.731c0.22,0.372,0.769,0.414,1.097,0.679
		c0.312,0.319,0.584,0.662,0.836,1.045c0.252,0.384,0.349,0.883,0.731,1.149c0.554-1.292,1.462-2.23,2.717-2.821
		C66.804,72.848,66.176,72.611,65.712,72.159z M72.399,71.741c-0.27-0.352-0.432-1.055-0.836-1.045
		c-0.012,0.075-0.086,0.088-0.104,0.157c-0.367,0.629-0.752,1.188-1.306,1.62c-0.374,0.292-0.848,0.394-1.149,0.784
		c1.227,0.602,2.053,1.605,2.612,2.874c0.403-0.27,0.503-0.751,0.731-1.098c0.248-0.376,0.515-0.707,0.888-0.993
		c0.379-0.29,0.862-0.304,1.15-0.731C73.604,72.822,72.938,72.445,72.399,71.741z"/>
	<path style="fill-rule:evenodd;clip-rule:evenodd;" d="M29.034,10.874c0.359,1.069,0.697,2.159,1.515,2.769
		c0.48,0.391,1.255,0.486,1.724,0.888c-1.604,0.503-2.723,1.492-3.187,3.135c-0.419-0.329-0.466-1.032-0.784-1.463
		c-0.53-0.845-1.497-1.254-2.508-1.62c0.607-0.368,1.408-0.543,1.933-0.993C28.393,12.914,28.855,12.035,29.034,10.874z"/>
	<path style="fill-rule:evenodd;clip-rule:evenodd;" d="M14.823,18.606c0.241,0.343,0.389,1.018,0.679,1.463
		c0.587,0.901,1.803,1.746,2.978,1.672c0.972-0.061,2.011-0.663,2.56-1.306c0.413-0.484,0.51-1.114,0.888-1.62
		c0.722,1.404,1.472,2.777,3.396,2.978c-0.862,0.445-1.719,0.657-2.351,1.307c-0.498,0.513-0.694,1.18-1.045,1.881
		c-0.458-0.821-0.762-1.868-1.567-2.404c-0.464-0.309-1.275-0.699-1.933-0.731c-1.059-0.053-2.472,0.815-3.03,1.672
		c-0.258,0.397-0.363,0.939-0.575,1.358c-0.445-0.442-0.523-1.253-0.94-1.724c-0.196-0.152-0.37-0.326-0.523-0.522
		c-0.464-0.355-1.154-0.484-1.62-0.836c0.37-0.419,0.923-0.459,1.358-0.732c0.809-0.505,1.254-1.296,1.567-2.299
		C14.696,18.688,14.748,18.635,14.823,18.606z"/>
	<path style="fill-rule:evenodd;clip-rule:evenodd;" d="M43.297,18.606c0.044-0.009,0.05,0.021,0.053,0.052
		c0.431,1.291,1.04,2.318,2.194,2.873c0.257,0.124,0.584,0.087,0.783,0.366c-0.406,0.423-0.992,0.528-1.462,0.888
		c-0.765,0.586-1.469,1.533-1.463,2.717c0.01,1.972,1.506,3.067,3.188,3.605c-0.85,0.397-1.514,0.625-2.142,1.254
		c-0.568,0.569-0.933,1.249-1.15,2.194c-0.462-1.872-1.573-3.095-3.553-3.449c1.761-0.49,3.385-1.478,3.448-3.5
		c0.065-2.052-1.526-3.3-3.396-3.709C41.591,21.427,42.836,20.408,43.297,18.606z"/>
	<path style="fill-rule:evenodd;clip-rule:evenodd;" d="M64.667,18.658c0.046,0.023,0.093,0.046,0.104,0.104
		c0.343,1.093,0.834,1.988,1.724,2.56c0.368,0.237,0.86,0.261,1.202,0.627c-0.504,0.501-1.231,0.581-1.724,1.045
		c-0.606,0.57-0.971,1.252-1.254,2.142c-0.413-0.765-0.619-1.523-1.202-2.09c-0.486-0.472-1.127-0.593-1.672-1.045
		c0.334-0.485,0.932-0.562,1.358-0.888c0.731-0.56,1.07-1.341,1.411-2.299C64.6,18.731,64.664,18.725,64.667,18.658z"/>
	<path style="fill-rule:evenodd;clip-rule:evenodd;" d="M36.14,18.711c0.637,1.541,1.568,2.786,3.396,3.135
		c-1.645,0.427-2.801,1.344-3.396,2.821c-0.431-0.544-0.682-1.269-1.149-1.776c-0.547-0.567-1.551-0.678-2.194-1.149
		C34.516,21.337,35.559,20.255,36.14,18.711z"/>
	<path style="fill-rule:evenodd;clip-rule:evenodd;" d="M50.351,18.711c0.061-0.008,0.093,0.012,0.104,0.052
		c0.337,1.7,1.553,2.523,2.926,3.187c-0.431,0.438-1.014,0.497-1.463,0.836c-0.771,0.583-1.106,1.35-1.515,2.299
		c-0.365-0.55-0.454-1.129-0.836-1.62c-0.533-0.683-1.233-1.091-2.038-1.515c0.144-0.359,0.507-0.329,0.784-0.47
		c0.986-0.504,1.571-1.515,1.985-2.612C50.284,18.783,50.348,18.777,50.351,18.711z"/>
	<path style="fill-rule:evenodd;clip-rule:evenodd;" d="M28.982,18.763c0.052,0,0.104,0,0.157,0c0.437,1.688,1.644,2.606,3.344,3.03
		c-1.713,0.429-2.853,1.432-3.448,2.978c-0.476-0.691-0.762-1.571-1.411-2.09c-0.575-0.331-1.252-0.559-1.881-0.836
		C27.368,21.364,28.476,20.364,28.982,18.763z"/>
	<path style="fill-rule:evenodd;clip-rule:evenodd;" d="M39.38,29.056c-0.674,0.354-1.447,0.608-2.038,1.045
		c-0.566,0.514-0.815,1.344-1.306,1.933c-0.421-1.529-1.519-2.382-2.874-2.978c0.521-0.44,1.173-0.595,1.672-1.045
		c0.477-0.43,0.802-0.995,1.097-1.62c0.019-0.068,0.092-0.082,0.104-0.156c0.084-0.015,0.09,0.049,0.157,0.052
		C36.733,27.732,37.815,28.634,39.38,29.056z"/>
	<path style="fill-rule:evenodd;clip-rule:evenodd;" d="M43.193,33.027c0.061-0.009,0.093,0.011,0.104,0.052
		c0.217,0.853,0.547,1.491,1.045,2.038c0.517,0.567,1.169,0.812,1.829,1.254c-0.495,0.498-1.323,0.663-1.829,1.149
		c-0.507,0.59-0.89,1.305-1.045,2.247c-0.391-0.578-0.446-1.233-0.783-1.777c-0.48-0.773-1.246-1.103-1.985-1.619
		c0.446-0.599,1.292-0.798,1.776-1.358C42.678,34.426,43.087,33.878,43.193,33.027z"/>
	<path style="fill-rule:evenodd;clip-rule:evenodd;" d="M36.088,33.392c0.383,0.505,0.623,1.153,0.993,1.672
		c0.412,0.581,1.299,0.687,1.672,1.306c-1.29,0.574-2.224,1.503-2.717,2.874c-0.434-0.632-0.637-1.256-1.149-1.776
		c-0.502-0.51-1.095-0.79-1.724-1.202c0.391-0.393,1.089-0.479,1.515-0.836c0.484-0.561,1.001-1.088,1.254-1.881
		c-0.015-0.084,0.049-0.089,0.053-0.156C36.018,33.392,36.053,33.392,36.088,33.392z"/>
	<path style="fill-rule:evenodd;clip-rule:evenodd;" d="M43.193,40.132c0.045-0.01,0.05,0.02,0.053,0.052
		c0.38,1.866,1.566,2.927,3.239,3.5c-1.614,0.633-2.962,1.532-3.239,3.5c-0.415-1.919-1.462-3.206-3.449-3.553
		C41.514,43.05,42.854,42.091,43.193,40.132z"/>
	<path style="fill-rule:evenodd;clip-rule:evenodd;" d="M35.931,40.445c0.052,0,0.104,0,0.157,0
		c0.271,0.771,0.542,1.416,1.045,1.933c0.542,0.557,1.312,0.763,1.933,1.253c-0.756,0.235-1.362,0.542-1.881,0.993
		c-0.538,0.468-0.777,1.072-1.201,1.672c-0.484-0.576-0.652-1.293-1.202-1.776c-0.467-0.411-1.095-0.498-1.567-0.94
		c0.179-0.448,0.731-0.493,1.097-0.731c0.367-0.239,0.612-0.581,0.94-0.836c0.243-0.437,0.491-0.868,0.627-1.411
		C35.906,40.56,35.933,40.517,35.931,40.445z"/>
	<path style="fill-rule:evenodd;clip-rule:evenodd;" d="M35.826,54.918c0.084-0.015,0.09,0.049,0.157,0.052
		c0.19,1.099,0.773,1.804,1.411,2.456c0.375,0.287,0.973,0.351,1.201,0.784c-0.516,0.529-1.221,0.684-1.724,1.202
		c-0.512,0.527-0.661,1.183-0.993,1.933c-0.484-1.031-0.857-2.018-1.776-2.612c-0.378-0.244-0.88-0.239-1.149-0.679
		C34.36,57.457,35.434,56.528,35.826,54.918z"/>
</g>
<g id="Layer_1">
</g>
</svg>
