<?xml version="1.0" encoding="iso-8859-1"?>
<!-- Generator: Adobe Illustrator 19.2.0, SVG Export Plug-In . SVG Version: 6.00 Build 0)  -->
<svg version="1.1" xmlns="http://www.w3.org/2000/svg" xmlns:xlink="http://www.w3.org/1999/xlink" x="0px" y="0px"
	 viewBox="0 0 71.195 77.57" style="enable-background:new 0 0 71.195 77.57;" xml:space="preserve">
<g id="Ensamblaje">
	<path style="fill-rule:evenodd;clip-rule:evenodd;" d="M71.098,18.461c-0.456,0.34-1.081,0.195-1.609,0.195
		c-4.022,0-8.297,0-12.386,0c-4.182,0-7.979,0-12.045,0c-0.507,0-1.114-0.143-1.559,0.195c-0.012,0.458,0.491,0.671,0.78,0.878
		c4.325,3.1,7.977,7.286,10.045,12.727c0.159,0.419,0.275,0.871,0.439,1.317c0.138,0.376,0.437,0.828,0.243,1.268
		c-0.4,0.342-0.981,0.195-1.463,0.195c-3.678-0.001-7.608,0-11.362,0c-10.604-0.002-20.795-0.048-31.696-0.049
		c-0.979,0-2.102-0.021-3.219-0.049c-0.881-0.021-2.498-0.136-2.975,0.146c-0.623,0.37-0.547,2.499-0.536,3.511
		c0.016,1.435,0.11,2.583,0.438,3.609c1.015,0.257,2.074,0.146,3.121,0.146c7.408,0,14.942,0.049,22.285,0.049
		c4.318,0,8.618-0.11,12.874,0.049c2.098,0.079,4.208-0.14,6.291-0.049c1.062,0.047,2.119,0.049,3.169,0.049
		c1.024,0,2.072-0.12,3.072,0.146c-0.162,1.371-0.724,2.635-1.268,3.804c-1.611,3.458-3.697,6.507-6.438,8.924
		c-0.818,0.884-1.783,1.6-2.779,2.34c-0.302,0.225-0.783,0.391-0.877,0.829c1.082,0.265,2.231,0.146,3.364,0.146
		c7.458,0,15.189,0.047,22.626,0.048c0.505,0,1.084-0.109,1.561,0.146c-0.08,0.794-0.714,1.4-1.121,2
		c-1.269,1.866-2.807,3.578-4.438,5.12c-2.19,2.07-4.475,3.986-7.12,5.657c-5.251,3.315-11.627,5.592-19.749,5.754
		c-4.099,0.082-7.988-0.568-11.167-1.609c-3.261-1.067-6.127-2.321-8.826-3.901c-2.663-1.56-4.887-3.536-7.168-5.608
		c-1.085-0.985-2.139-2.177-3.072-3.316c-2.909-3.547-5.103-7.525-6.729-12.386C0.734,47.545,0,43.819,0,39.82
		c0-4.179,0.44-7.91,1.316-11.362c0.845-3.322,2.248-6.153,3.755-8.973c1.436-2.685,3.357-5.106,5.413-7.363
		c4.035-4.43,9.29-7.779,15.458-10.045c2.335-0.857,5.011-1.471,7.754-1.804c8.604-1.044,16.524,1.058,22.139,3.901
		c0.701,0.356,1.368,0.821,2.048,1.219c4.82,2.826,8.998,6.436,12.094,11.021C70.399,17.038,70.979,17.67,71.098,18.461z
		 M62.662,13.633c-0.396-0.363-0.773-0.789-1.171-1.171c-0.767-0.737-1.723-1.387-2.584-2.048
		c-4.384-3.363-9.861-5.516-16.727-6.437c-1.448-0.194-3.059-0.41-4.437-0.244c-1.505,0.181-3.155,0.116-4.535,0.39
		c-1.354,0.268-2.633,0.537-3.901,0.878c-7.528,2.02-13.135,6.039-17.458,11.167c-0.756,1.064-1.775,1.866-2.194,3.267
		c0.479,0.073,0.787-0.352,1.121-0.585c2.527-1.765,5.665-3.035,9.363-3.56c4.31-0.612,9.316-0.292,14.385-0.292
		c8.983,0,18.406,0.05,27.455,0.049c0.541,0,1.157,0.081,1.657-0.195C63.578,14.292,63.038,13.978,62.662,13.633z M48.814,29.872
		c-2.044-3.214-4.57-5.646-7.754-7.656c-0.921-0.582-1.812-1.153-2.828-1.561c-3.075-1.232-7.055-1.937-11.362-1.853
		c-2.207,0.043-4.458-0.017-6.291,0.244c-5.605,0.798-9.073,3.31-12.19,6.827c-0.9,1.172-1.909,2.399-2.536,3.804
		c-0.215,0.482-0.546,0.985-0.487,1.561c0.82,0.345,1.772,0.195,2.633,0.195c10.437-0.002,20.137,0.05,30.332,0.049
		c2.784,0,5.595,0,8.387,0c0.896,0,1.847,0.114,2.732-0.147C49.499,30.776,49.089,30.306,48.814,29.872z M47.252,45.964
		c-11.923,0-24.084-0.048-35.987-0.049c-1.952,0-4.286-0.122-5.9,0.098c-0.128,0.786,0.366,1.507,0.683,2.146
		c0.666,1.347,1.527,2.531,2.439,3.609c0.465,0.55,0.898,1.094,1.414,1.609c0.987,0.987,2.196,1.77,3.462,2.584
		c2.574,1.655,5.29,2.829,9.315,2.829c3.901,0,8.246,0.242,11.557-0.439c2.405-0.495,4.663-1.303,6.389-2.39
		c0.562-0.354,1.176-0.669,1.706-1.024c2.696-1.805,4.933-4.318,6.632-7.022c0.349-0.555,0.795-1.128,0.829-1.804
		C48.987,45.798,48.092,45.964,47.252,45.964z M9.899,58.448c0.278,0.836,1.132,1.777,1.804,2.584
		c1.414,1.698,2.799,2.974,4.291,4.437c0.756,0.741,1.622,1.385,2.438,1.951c3.492,2.417,7.584,4.368,12.094,5.413
		c4.911,1.138,10.873,1.284,15.653,0.098c4.691-1.165,8.773-2.899,12.143-5.364c1.422-1.081,2.883-2.123,4.096-3.414
		c0.396-0.388,1.105-0.712,1.073-1.365c-1.125-0.253-2.301-0.098-3.463-0.098c-3.554,0-7.162-0.048-10.825-0.049
		c-7.276-0.001-14.405,0.041-21.651,0c-2.478-0.014-4.887,0.157-7.023-0.195c-2.16-0.356-4.006-0.844-5.754-1.56
		c-1.671-0.685-3.263-1.792-4.778-2.584C9.936,58.321,9.898,58.364,9.899,58.448z"/>
</g>
<g id="Layer_1">
</g>
</svg>
