<?xml version="1.0" encoding="iso-8859-1"?>
<!-- Generator: Adobe Illustrator 19.2.0, SVG Export Plug-In . SVG Version: 6.00 Build 0)  -->
<svg version="1.1" xmlns="http://www.w3.org/2000/svg" xmlns:xlink="http://www.w3.org/1999/xlink" x="0px" y="0px"
	 viewBox="0 0 77.71 77.237" style="enable-background:new 0 0 77.71 77.237;" xml:space="preserve">
<g id="envair_x5F_corporation">
	<path style="fill-rule:evenodd;clip-rule:evenodd;" d="M66.753,14.934c-1.021-1.195-2.138-2.297-3.325-3.326
		C57.112,6.176,49.683,2.21,38.415,2.21c-5.439,0-10.145,1.258-14.168,3.036c-6.123,2.708-10.623,6.461-14.507,11.277
		c-1.283,1.593-2.304,3.352-3.325,5.253c-2.023,3.766-3.537,8.163-4,13.205c-1.051,11.449,2.869,19.939,7.759,26.217
		c2.409,3.093,5.649,5.973,9.108,8.097c5.388,3.308,11.672,5.738,20.097,5.735c2.678-0.001,5.236-0.415,7.663-0.916
		c4.585-0.946,8.722-2.915,12.097-5.061c5.224-3.32,9.378-7.828,12.385-13.445c0.488-0.912,0.83-1.99,1.254-3.036
		c0.414-1.024,0.846-2.097,1.156-3.133c1.329-4.435,2.017-9.917,1.35-15.277c-0.292-2.346-0.955-4.825-1.639-6.939
		c-0.316-0.979-0.801-1.955-1.205-3.085c-0.155-0.434-0.3-1.016-0.578-1.59c-0.202-0.418-0.7-1.123-0.675-1.445
		c0.027-0.343,0.407-0.518,0.675-0.724c0.283-0.218,0.514-0.521,0.819-0.482c0.699,0.72,1.035,1.688,1.445,2.555
		c1.256,2.648,2.29,5.73,2.94,9.061c0.896,4.59,0.819,9.995,0,14.65c-0.375,2.129-1.113,4.215-1.831,6.169
		c-0.711,1.933-1.561,3.802-2.555,5.445c-0.532,0.88-0.911,1.754-1.446,2.555c-3.684,5.521-8.792,9.829-15.036,12.916
		c-3.599,1.779-7.672,3.047-12.337,3.662c-10.327,1.362-19.345-1.716-25.591-5.687c-6.486-4.125-11.63-9.608-14.939-17.061
		C1.7,50.49,0.468,46.2,0.103,41.392c-0.383-5.023,0.338-10.001,1.59-14.169c1.175-3.911,3.039-7.629,5.301-10.699
		c3.407-4.624,7.373-8.608,12.531-11.422c4.332-2.363,9.077-4.195,15.132-4.867c8.788-0.976,16.69,1.217,22.313,4.241
		c1.281,0.688,2.476,1.325,3.614,2.12c1.108,0.774,2.151,1.556,3.23,2.458c1.555,1.301,2.936,2.6,4.386,4.192
		c0.358,0.395,1.262,1.217,1.253,1.591c-0.008,0.291-1.139,1.224-1.542,1.205C67.241,16.01,67.272,15.164,66.753,14.934z"/>
	<path style="fill-rule:evenodd;clip-rule:evenodd;" d="M72.103,27.464c-2.06-5.852-5.281-10.369-9.397-14.169
		c-4.088-3.774-8.977-6.725-15.229-8.29c-4.868-1.218-10.742-1.542-15.711-0.337c-1.602,0.389-3.137,0.727-4.626,1.253
		c-5.717,2.02-10.324,5.35-14.121,9.397c-3.694,3.94-6.781,9.213-8.144,15.422C4.13,34.127,3.788,37.763,4.102,41.44
		c0.307,3.578,1.04,6.731,2.169,9.591c3.531,8.941,10.145,15.567,18.844,19.421c0.703,0.312,1.439,0.482,2.168,0.771
		c1.434,0.568,2.939,0.885,4.482,1.397c-0.548,0.101-1.135-0.101-1.639-0.241c-7.965-2.225-14.19-6.39-18.747-12.096
		c-4.796-6.007-8.364-14.327-7.47-25.06c0.204-2.445,0.759-4.727,1.398-6.844c1.872-6.198,5.263-11.296,9.494-15.181
		c4.947-4.542,11.149-8.144,19.566-9.205c0.502-0.063,1.238-0.146,1.88-0.192c0.58-0.042,1.405,0.027,1.879-0.049
		c0.078,0.014,0.083-0.045,0.145-0.048C45.418,3.64,51,5.479,55.669,7.946c4.678,2.472,8.451,5.967,11.566,10.023
		c0.959,1.413,1.996,2.813,2.795,4.387C70.824,23.917,71.644,25.572,72.103,27.464z"/>
	<path style="fill-rule:evenodd;clip-rule:evenodd;" d="M11.042,19.946c0.491,0.006,0.607,0.389,0.916,0.578
		c1.069,0.456,0.497,1.213,0,2.024c-1.629,2.657-3.072,5.927-3.808,9.398c-0.892,4.207-0.879,9.435,0.096,13.542
		c1.9,7.997,6.176,13.962,12.001,18.218c5.536,4.044,13.816,7.337,23.614,5.734c8.639-1.412,14.523-5.384,19.373-10.795
		c4.251-5.513,8.058-12.736,7.085-22.844c-0.839-8.719-5.008-15.471-10.072-20.145c-2.581-2.382-5.714-4.404-9.253-5.88
		c-3.635-1.515-7.791-2.361-12.724-2.361c-5.016,0-8.933,1.237-12.337,2.747c-2.928,1.298-5.604,3.186-8,5.205
		c-0.279,0.235-0.804,0.806-1.06,0.819c-0.324,0.017-1.577-0.858-1.59-1.253c-0.013-0.379,0.705-0.823,0.964-1.06
		c0.411-0.378,0.701-0.623,1.06-0.916c5.245-4.181,11.371-7.339,20.289-7.759c9.271-0.436,16.482,2.918,21.639,6.747
		c2.743,2.037,5.032,4.508,7.037,7.181c3.951,5.271,6.785,12.654,6.168,22.12c-0.137,2.104-0.357,4.299-0.916,6.169
		c-0.554,1.852-1.172,3.604-1.879,5.205c-2.822,6.387-7.741,11.344-13.542,14.795c-3.027,1.802-6.32,3.005-10.313,3.904
		c-3.798,0.854-8.84,1.03-12.916,0.192c-7.72-1.586-13.791-5.043-18.409-9.928C9.85,56.703,6.544,50.672,5.451,42.21
		c-0.562-4.36-0.092-8.995,1.013-12.675C7.554,25.904,8.978,22.788,11.042,19.946z"/>
	<path style="fill-rule:evenodd;clip-rule:evenodd;" d="M72.392,28.765c0.057-0.008,0.086,0.011,0.096,0.048
		c1.239,3.81,1.932,9.162,1.205,13.929c0.342-4.666,0.006-10.006-1.301-13.832C72.392,28.861,72.392,28.813,72.392,28.765z"/>
	<path style="fill-rule:evenodd;clip-rule:evenodd;" d="M73.597,43.174c-0.017,1.591-0.413,3.236-0.819,4.627
		c-0.107,0.367-0.13,0.826-0.434,1.061C72.81,47.014,73.288,45.179,73.597,43.174z"/>
	<path style="fill-rule:evenodd;clip-rule:evenodd;" d="M71.958,50.307c0.043,0.021,0.086,0.043,0.097,0.097
		c-3.153,8.673-8.947,15.287-16.916,19.229c-3.988,1.974-8.5,3.468-14.266,3.808c-0.861,0.051-1.695,0.084-2.603,0.048
		c-0.208-0.008-0.579,0.125-0.723-0.145c9.406,0.019,16.513-2.621,21.977-6.65c5.462-4.028,9.887-9.278,12.385-16.241
		C71.935,50.413,71.96,50.373,71.958,50.307z"/>
</g>
<g id="Layer_1">
</g>
</svg>
