<?xml version="1.0" encoding="iso-8859-1"?>
<!-- Generator: Adobe Illustrator 21.0.2, SVG Export Plug-In . SVG Version: 6.00 Build 0)  -->
<svg version="1.1" xmlns="http://www.w3.org/2000/svg" xmlns:xlink="http://www.w3.org/1999/xlink" x="0px" y="0px"
	 viewBox="0 0 27.935 28.37" style="enable-background:new 0 0 27.935 28.37;" xml:space="preserve">
<g id="Environmental_x5F_Choice">
	<path d="M13.912,0c0.023,0.003,0.07,0.011,0.094,0.015c0.452,0.851,0.902,1.702,1.34,2.56c0.155,0.285,0.294,0.578,0.449,0.862
		c0.073,0.156,0.152,0.308,0.231,0.462c0.07,0.127,0.134,0.256,0.194,0.388c0.168,0.252,0.24,0.568,0.452,0.788
		c0.116,0.129,0.279,0.062,0.41,0.001c0.472-0.305,0.946-0.609,1.421-0.91c0.081-0.054,0.164-0.106,0.244-0.16
		c0.091-0.054,0.18-0.11,0.271-0.163c0.08-0.056,0.162-0.107,0.243-0.16c0.217-0.117,0.403-0.288,0.638-0.369
		c-0.551,2.49-1.158,4.968-1.702,7.46c-0.07,0.301,0,0.607,0.059,0.903c0.049-0.034,0.097-0.071,0.143-0.109
		c1.231-1.238,2.346-2.583,3.524-3.871c0.028-0.001,0.082-0.003,0.11-0.003c0.204,0.419,0.354,0.86,0.545,1.285
		c0.136,0.292,0.264,0.59,0.439,0.861c0.025,0.072,0.11,0.043,0.164,0.039c1.042-0.156,2.056-0.448,3.078-0.699
		C26.586,9.114,26.903,9,27.237,8.984c-0.125,0.617-0.313,1.219-0.479,1.826c-0.205,0.75-0.399,1.502-0.583,2.258
		c-0.03,0.18-0.092,0.354-0.097,0.538c-0.025,0.121,0.095,0.147,0.175,0.194c0.063,0.016,0.126,0.036,0.189,0.057
		c0.107,0.045,0.215,0.087,0.321,0.134c0.109,0.041,0.218,0.082,0.326,0.128c0.09,0.032,0.18,0.066,0.271,0.098
		c0.08,0.032,0.162,0.063,0.243,0.096c0.111,0.045,0.222,0.094,0.332,0.145c-0.207,0.281-0.524,0.448-0.765,0.694
		c-1.913,1.608-3.875,3.158-5.851,4.687c-0.221,0.131-0.383,0.35-0.454,0.595c0.012,0.14,0.091,0.267,0.138,0.399
		c0.045,0.107,0.087,0.215,0.129,0.323c0.127,0.324,0.257,0.646,0.387,0.969c0.048,0.105,0.092,0.212,0.132,0.321
		c0.045,0.107,0.085,0.217,0.129,0.325c0.04,0.092,0.073,0.187,0.106,0.282c-0.653-0.019-1.295-0.193-1.945-0.266
		c-1.439-0.239-2.879-0.467-4.32-0.698c-0.416-0.074-0.841-0.102-1.247-0.222c-0.059,0.845-0.042,1.696-0.045,2.544
		c0.001,1.278-0.002,2.556,0.001,3.835c-0.144,0.083-0.306,0.113-0.469,0.123c-0.045-0.082-0.111-0.163-0.1-0.262
		c-0.028-1.49-0.006-2.982-0.015-4.473c-0.048-0.568-0.002-1.139-0.039-1.708c-1.061,0.032-2.07,0.44-3.123,0.55
		C9.2,22.702,7.821,22.951,6.443,23.2c-0.057,0.004-0.171,0.013-0.228,0.017c0.216-0.729,0.496-1.439,0.79-2.139
		c0.021-0.061,0.043-0.121,0.067-0.18c0.074-0.163,0.094-0.339,0.083-0.516c-0.153-0.232-0.394-0.376-0.615-0.533
		c-0.751-0.626-1.555-1.187-2.319-1.798c-0.946-0.715-1.885-1.438-2.831-2.152c-0.285-0.236-0.586-0.453-0.88-0.678
		C0.337,15.081,0.15,14.958,0,14.794c0.661-0.266,1.339-0.505,1.949-0.878c0.031-0.297-0.116-0.58-0.173-0.868
		c-0.273-1.036-0.61-2.055-0.893-3.088C0.827,9.738,0.709,9.526,0.727,9.291C1.174,9.333,1.609,9.455,2.05,9.533
		c0.98,0.182,1.957,0.385,2.936,0.568C5.158,9.967,5.212,9.75,5.288,9.558c0.222-0.539,0.419-1.089,0.654-1.623
		c0.01-0.083,0.104-0.043,0.156-0.06C6.603,8.45,7.133,9.004,7.642,9.576c0.655,0.684,1.258,1.414,1.917,2.094
		c0.231,0.275,0.455,0.575,0.765,0.767c-0.005-0.12-0.001-0.241-0.031-0.357c-0.273-1.399-0.671-2.769-1.04-4.145
		C9.024,6.999,8.764,6.073,8.523,5.14C8.429,4.802,8.347,4.46,8.245,4.124C8.226,4.035,8.207,3.947,8.182,3.86
		C8.144,3.719,8.11,3.576,8.081,3.433c1.043,0.522,1.997,1.201,3.02,1.76c0.1-0.005,0.218,0.01,0.267-0.102
		c0.22-0.407,0.408-0.831,0.622-1.24c0.423-0.888,0.888-1.755,1.315-2.641C13.507,0.807,13.706,0.401,13.912,0z M13.955,1.343
		c-0.105,0.17-0.199,0.346-0.284,0.527c-0.483,1.015-1.017,2.005-1.473,3.033c-0.112,0.239-0.218,0.494-0.419,0.674
		C11.588,5.769,11.3,5.879,11.031,5.8c-0.71-0.167-1.216-0.752-1.884-1.014c-0.025,0.032-0.05,0.063-0.075,0.095
		c0.378,1.472,0.787,2.936,1.165,4.409c0.263,1.005,0.535,2.011,0.724,3.033c0.023,0.285,0.131,0.562,0.128,0.847
		c-0.135,0.343-0.47,0.556-0.795,0.695c-0.069,0.02-0.136,0.043-0.202,0.068c-0.419,0.049-0.836,0.1-1.26,0.074
		c-0.432,0.038-0.951,0.138-1.184,0.549c-0.03,0.062-0.061,0.124-0.093,0.186c-0.134,0.26-0.176,0.553-0.256,0.832
		c-0.039,0.187-0.115,0.371-0.097,0.567c0.156,0,0.312-0.007,0.467,0.003c0.223,0.051,0.42,0.175,0.61,0.299
		c0.386,0.254,0.688,0.619,1.095,0.845c0.034,0.016,0.101,0.049,0.135,0.066c0.106,0.036,0.213,0.072,0.321,0.102
		c0.282,0.092,0.583,0.019,0.873,0.05c0.602-0.113,1.233-0.271,1.716-0.666c0.025-0.786,0.116-1.588-0.109-2.355
		c-0.088-0.115-0.219-0.183-0.332-0.267c-0.232-0.162-0.46-0.328-0.688-0.496c0-0.019,0.001-0.056,0.001-0.074
		c0.226-0.202,0.489-0.354,0.736-0.528c0.157-0.095,0.31-0.196,0.465-0.293c0.37-0.216,0.696-0.501,1.086-0.682
		c0.632-0.252,1.321-0.128,1.948,0.069c0.061,0.032,0.122,0.065,0.184,0.098c0.339,0.105,0.639,0.305,0.933,0.5
		c0.456,0.098,0.872-0.2,1.08-0.586c-0.004-0.026-0.012-0.078-0.015-0.103c-0.03-0.08-0.059-0.161-0.09-0.24
		c-0.027-0.259-0.09-0.516-0.078-0.777c0.017-0.4,0.156-0.778,0.231-1.169c0.359-1.518,0.696-3.042,1.05-4.562
		c0.052-0.229,0.116-0.457,0.101-0.694c-0.04,0.016-0.121,0.047-0.162,0.063c-0.135,0.073-0.266,0.155-0.397,0.234
		c-0.292,0.193-0.595,0.37-0.893,0.551c-0.09,0.033-0.18,0.067-0.27,0.096c-0.204,0.078-0.416,0.134-0.635,0.111
		c-0.226-0.146-0.458-0.305-0.576-0.556c-0.015-0.032-0.045-0.098-0.06-0.131c-0.188-0.37-0.404-0.724-0.584-1.097
		c-0.315-0.615-0.608-1.242-0.943-1.847C14.259,1.847,14.138,1.575,13.955,1.343z M21.044,9.608
		c-1.186,1.264-2.252,2.656-3.617,3.738c-0.086,0.032-0.171,0.065-0.255,0.101c-0.745,0.108-1.337-0.422-1.967-0.718
		c-0.325-0.153-0.683-0.165-1.035-0.137c-0.129,0.052-0.262,0.089-0.392,0.136c-0.481,0.277-0.926,0.615-1.391,0.918
		c-0.031,0.105,0.097,0.142,0.158,0.202c0.205,0.13,0.306,0.361,0.414,0.569c0.174,0.67,0.065,1.365,0.115,2.047
		c0.376-0.147,0.675-0.436,1.024-0.635c0.486-0.337,1.06-0.519,1.639-0.613c0.513-0.063,1.025,0.114,1.45,0.394
		c0.617,0.414,1.14,0.95,1.759,1.362c0.003,0.026,0.01,0.077,0.012,0.103c-0.182,0.087-0.368,0.162-0.555,0.24
		c-0.182,0.083-0.361,0.194-0.449,0.381c-0.198,0.406-0.227,0.867-0.324,1.303c-0.242,1.049-1.005,1.962-2.007,2.365
		c-0.033,0.019-0.098,0.059-0.13,0.079c0.519,0.129,1.051,0.19,1.577,0.283c1.224,0.22,2.459,0.378,3.68,0.613
		c0.029-0.016,0.088-0.049,0.118-0.065c-0.019-0.192-0.093-0.372-0.157-0.551c-0.064-0.152-0.129-0.302-0.198-0.451
		c-0.167-0.396-0.381-0.875-0.134-1.282c0.161-0.344,0.514-0.519,0.786-0.762c1.545-1.207,3.073-2.437,4.585-3.687
		c0.298-0.272,0.646-0.489,0.917-0.788c0.056-0.113-0.094-0.138-0.16-0.189c-0.125-0.052-0.253-0.099-0.378-0.149
		c-0.224-0.099-0.491-0.182-0.61-0.417c-0.112-0.143-0.084-0.338-0.061-0.505c0.174-0.661,0.375-1.315,0.549-1.976
		c0.125-0.563,0.324-1.107,0.441-1.671c-0.354,0.02-0.694,0.13-1.039,0.202c-0.591,0.147-1.191,0.257-1.779,0.419
		c-0.309,0.001-0.646,0.101-0.933-0.052c-0.487-0.42-0.547-1.099-0.876-1.62C21.517,9.02,21.302,9.337,21.044,9.608z M6.165,9.05
		c-0.225,0.491-0.308,1.069-0.697,1.469c-0.264,0.256-0.656,0.182-0.983,0.136c-0.792-0.133-1.575-0.32-2.37-0.447
		c-0.17-0.037-0.344-0.055-0.518-0.054c0.048,0.356,0.183,0.693,0.277,1.038c0.232,0.81,0.482,1.615,0.721,2.423
		c0.076,0.218,0.047,0.474-0.081,0.667c-0.315,0.395-0.878,0.421-1.237,0.754c0.534,0.441,1.098,0.844,1.637,1.279
		c1.518,1.149,3.021,2.318,4.54,3.464c0.109,0.091,0.169,0.223,0.243,0.342c0.264,0.67-0.186,1.304-0.414,1.91
		c-0.046,0.135-0.054,0.279-0.057,0.421c0.103-0.012,0.206-0.025,0.307-0.047c1.554-0.288,3.119-0.515,4.665-0.84
		c0.825-0.147,1.638-0.346,2.441-0.584c0.42-0.117,0.834-0.262,1.223-0.46c0.468-0.224,0.836-0.644,0.99-1.141
		c0.182-0.555,0.247-1.14,0.436-1.692c0.1-0.306,0.298-0.56,0.522-0.785c-0.198-0.205-0.447-0.35-0.671-0.522
		c-0.191-0.14-0.372-0.295-0.58-0.409c-0.424-0.165-0.898-0.128-1.328-0.005c-0.461,0.131-0.818,0.467-1.229,0.696
		c-0.923,0.599-1.865,1.246-2.969,1.445c-0.641,0.154-1.322,0.023-1.905-0.268c-0.475-0.226-0.869-0.582-1.247-0.941
		c-0.489-0.323-1.063-0.01-1.585,0.028c0.136-0.596,0.263-1.195,0.421-1.786c0.024-0.067,0.046-0.133,0.066-0.2
		c0.032-0.081,0.058-0.165,0.088-0.248c0.042-0.088,0.085-0.175,0.128-0.261c0.211-0.362,0.509-0.677,0.887-0.865
		c0.503-0.275,1.088-0.059,1.626-0.178c0.189-0.044,0.46-0.022,0.559-0.224c-0.109-0.154-0.264-0.268-0.378-0.418
		c-0.268-0.349-0.619-0.623-0.886-0.971c-0.163-0.204-0.361-0.376-0.539-0.566C7.619,10.482,6.995,9.73,6.29,9.052
		C6.259,9.052,6.196,9.051,6.165,9.05z"/>
	<path d="M13.753,13.595c0.044-0.18,0.155-0.388,0.373-0.365c0.368-0.071,0.447,0.467,0.205,0.657
		c-0.052,0.007-0.157,0.023-0.209,0.03c-0.098-0.034-0.194-0.072-0.286-0.118C13.808,13.73,13.781,13.663,13.753,13.595z"/>
	<path d="M8.008,14.847c0.137-0.069,0.314-0.107,0.449-0.012c0.155,0.089,0.208,0.296,0.111,0.447
		c-0.047,0.05-0.093,0.102-0.138,0.153c-0.118,0.012-0.236,0.011-0.353-0.003c-0.05-0.053-0.099-0.105-0.149-0.157
		c0.001-0.089,0.001-0.178,0.003-0.266C7.95,14.968,7.988,14.887,8.008,14.847z"/>
	<path d="M15.596,16.577c0.096-0.168,0.308-0.206,0.485-0.218c0.032,0.023,0.096,0.07,0.129,0.094
		c0.02,0.031,0.061,0.092,0.082,0.123c0.003,0.144-0.025,0.286-0.08,0.419c-0.193,0.083-0.385,0.06-0.556-0.058
		C15.599,16.828,15.538,16.7,15.596,16.577z"/>
</g>
<g id="Layer_1">
</g>
</svg>
