<?xml version="1.0" encoding="iso-8859-1"?>
<!-- Generator: Adobe Illustrator 19.2.0, SVG Export Plug-In . SVG Version: 6.00 Build 0)  -->
<svg version="1.1" xmlns="http://www.w3.org/2000/svg" xmlns:xlink="http://www.w3.org/1999/xlink" x="0px" y="0px"
	 viewBox="0 0 86.174 55.205" style="enable-background:new 0 0 86.174 55.205;" xml:space="preserve">
<g id="Equipamento_x5F_de_x5F_Hoy">
	<path style="fill-rule:evenodd;clip-rule:evenodd;" d="M59.006,47.796c-0.587,0.453-0.955,1.079-1.344,1.603
		c-1.965,2.649-5.144,4.927-9.251,5.479c-1.687,0.227-3.646,0.155-5.686,0.155c-3.799,0-7.792-0.052-11.732-0.052
		c-3.968,0-7.892,0.115-11.475-0.052c-2.22-0.104-4.009,0.083-5.685-0.104c-1.706-0.189-3.18-0.702-4.549-1.344
		c-2.558-1.199-4.784-2.973-6.356-5.375c-1.534-2.342-2.822-5.103-2.843-8.942c-0.021-3.848-0.052-7.421-0.052-11.577
		c0-4.133-0.105-7.811,0.052-11.526c0.161-3.837,1.14-6.602,2.739-8.993c2.326-3.48,5.942-6.048,10.905-6.771
		c1.662-0.242,3.453-0.259,5.582-0.259c7.605,0,15.565,0.103,23.206,0.103c2.114,0,4.084-0.133,5.841,0.052
		c4.089,0.431,7.298,2.635,9.354,5.324c0.287,0.376,0.917,1.585,1.292,1.602c0.356,0.016,0.872-0.888,1.138-1.24
		c2.289-3.041,5.509-5.474,10.492-5.841c3.137-0.23,6.068,0.582,8.166,1.758c0.688,0.385,1.202,0.922,1.86,1.447
		c2.498,1.991,4.169,4.66,5.066,8.114c0.474,1.828,0.413,3.958,0.413,6.202c0,4.225,0.073,8.401,0,12.921
		c-0.034,2.163,0.08,4.32,0,6.46c-0.091,2.412,0.018,4.503-0.311,6.306c-0.652,3.576-2.397,6.395-4.806,8.424
		c-2.216,1.867-5.497,3.738-9.666,3.515c-4.874-0.261-8.631-2.609-10.905-5.582C59.994,49.004,59.625,48.309,59.006,47.796z
		 M56.474,10.221c-0.694-1.62-1.72-2.955-2.946-3.98c-1.796-1.728-4.438-2.584-7.804-2.584c-6.878,0-13.923-0.052-20.829-0.052
		c-3.49,0-7.024-0.299-10.389-0.052c-2.356,0.173-4.314,1.15-5.841,2.274C7.076,6.999,5.84,8.222,4.893,9.963
		c-1.918,3.526-1.602,8.607-1.602,14.11c-0.001,2.693,0,5.127,0,7.805c-0.001,2.623-0.154,5.296,0.052,7.856
		c0.378,4.688,2.765,7.961,5.841,9.975c1.533,1.004,3.624,1.757,6.15,1.757c7.775,0,16.015,0.052,23.258,0.052
		c5.781,0,10.389,0.398,13.748-1.964c2.283-1.606,4.161-3.907,4.703-7.185c0.194-1.173,0.096-2.388,0.361-3.618
		c0.788,0.038,2.693-0.469,3.257,0.052c0.454,0.418,0.166,2.17,0.207,2.739c0.186,2.597,1.356,4.744,2.636,6.202
		c1.73,1.974,4.381,3.701,7.959,3.824c1.784,0.062,3.571-0.36,4.91-0.982c2.679-1.244,4.537-3.536,5.53-6.254
		c0.505-1.381,0.694-3.104,0.724-5.065c0.121-8.036,0.001-15.137,0-23.051c0-2.079-0.138-3.679-0.672-5.22
		c-0.565-1.633-1.304-2.51-2.119-3.773c-1.341-2.077-4.796-3.719-8.114-3.67c-3.725,0.055-6.457,1.706-8.166,3.722
		c-1.369,1.614-2.38,3.518-2.636,6.254c-0.043,0.455,0.076,2.358-0.311,2.688c-0.274,0.234-1.048,0.161-1.654,0.155
		c-0.623-0.007-1.2,0.035-1.551-0.259C57.37,13.92,57.18,11.867,56.474,10.221z"/>
	<path style="fill-rule:evenodd;clip-rule:evenodd;" d="M39.832,9.395c0.689-0.299,1.077-0.969,1.706-1.396
		c1.427-0.969,3.198-1.628,5.271-1.551c2.021,0.076,3.561,0.917,4.807,2.016c1.246,0.972,2.12,2.376,2.584,4.238
		c0.459,1.842,0.094,4.241,0.362,6.409c1.24,0.312,2.936,0.128,4.496,0.103c0.613-0.01,1.37,0.052,2.274,0.052
		c0.667,0,1.893,0.141,2.223-0.104c0.396-0.294,0.169-2.141,0.206-2.946c0.048-1.027-0.013-2.147,0.104-2.946
		c0.504-3.459,2.786-5.793,5.996-6.615c1.725-0.442,3.817-0.177,5.323,0.517c2.905,1.337,4.652,3.769,4.651,7.96
		c0,7.896,0.001,17.207,0,24.964c0,4.151-1.805,6.491-4.703,7.856c-3.565,1.679-7.219,0.251-9.2-1.861
		c-1.011-1.078-1.822-2.513-2.067-4.238c-0.259-1.821,0.197-3.791-0.207-5.944c-1.338-0.322-2.972-0.165-4.496-0.155
		c-1.564,0.01-3.186-0.1-4.651,0.104c-0.281,1.201-0.155,2.503-0.155,3.67c0,3.868-1.321,6.075-3.617,7.701
		c-1.539,1.089-3.691,1.716-5.944,1.292c-2.068-0.389-3.462-1.572-4.858-2.688c-0.702,0.211-0.938,0.888-1.602,1.137
		c-0.69,0.442-1.096,0.944-1.809,1.188c-2.017,0.691-5.479,0.658-8.062,0.569c-4.607-0.159-8.535,0.237-12.974,0
		c-3.81-0.204-6.501-2.372-7.959-5.065c-1.035-1.911-1.285-4.34-1.24-7.494c0.084-5.89,0-10.768,0-16.849
		c-0.001-2.84,0.094-5.575,1.033-7.546c1.084-2.274,3.145-4.072,5.737-4.91c1.021-0.33,1.987-0.371,3.204-0.517
		c0.652-0.079,1.437,0.088,2.274,0.051c2.164-0.095,4.333-0.051,6.563-0.051c3.131,0,6.279-0.127,8.941,0.051
		C36.728,6.577,38.372,8.022,39.832,9.395z M19.261,19.576c0.377-0.414,2.656-0.207,3.617-0.207c2.75,0,4.896-0.052,7.547,0
		c1.248,0.025,2.617,0.12,3.773,0c2.11-0.217,3.3-1.554,3.773-3.411c0.465-1.823-0.197-3.467-0.982-4.548
		c-1.147-1.562-3.463-1.579-6.202-1.551c-3.394,0.036-6.919,0-10.078,0c-1.66,0-3.452-0.127-5.014,0
		c-1.846,0.151-3.219,0.876-4.29,2.016c-1.236,1.315-1.653,3.269-1.653,5.789c-0.001,5.837-0.208,12.55,0,18.193
		c0.045,1.249-0.115,2.496,0,3.67c0.142,1.46,0.899,2.701,1.498,3.514c0.542,0.488,1.226,1.188,1.965,1.551
		c1.197,0.589,3.033,0.655,4.961,0.62c3.287-0.06,7.527-0.093,10.854,0c1.938,0.054,3.902,0.227,5.583-0.104
		c2.542-0.499,4.365-3.443,3.308-6.305c-0.233-0.63-0.622-1.355-0.982-1.757c-1.279-1.431-3.434-1.292-6.099-1.292
		c-2.515,0-5.132-0.144-7.701-0.051c-1.344,0.048-2.65,0.191-3.824-0.104c-0.236-0.778-0.258-2.431,0-3.205
		c1.143-0.294,2.461-0.207,3.824-0.207c2.608,0,5.249,0,7.856,0c1.412,0,2.804,0.093,3.876-0.207c2.188-0.612,3.9-3.106,3.205-5.737
		c-0.208-0.786-0.706-1.778-1.292-2.326c-1.691-1.578-5.305-1.188-8.632-1.188c-1.63,0-3.202,0.021-4.651-0.052
		c-1.536-0.077-2.999,0.259-4.238-0.155C19.265,22,18.771,20.114,19.261,19.576z M49.962,11.513
		c-0.767-0.909-2.147-1.79-3.929-1.654c-2.616,0.2-4.203,2.152-4.393,4.807c-0.156,2.17,0,4.446,0,6.771
		c-0.001,5.516,0.027,11.686,0.051,16.901c0.005,1.116-0.114,2.231,0.052,3.153c0.763,4.229,6.271,4.791,8.425,1.654
		c0.351-0.51,0.695-1.338,0.775-2.119c0.159-1.555-0.038-2.992-0.104-4.393c-0.034-0.734,0-1.441,0-2.223
		c0-0.638-0.117-1.36,0.155-2.119c1.17-0.351,2.535-0.207,3.876-0.207c2.758,0,5.566,0,8.271,0c1.355,0,2.732-0.121,3.928,0.207
		c0.269,1.732-0.008,3.325,0.052,4.91c0.058,1.546-0.209,3.139,0.206,4.652c0.518,1.885,2.271,3.272,4.29,3.359
		c2.263,0.098,3.887-1.154,4.601-3.049c0.629-1.672,0.36-4.876,0.258-7.029c-0.117-2.475,0.039-4.964,0.052-7.339
		c0.021-3.723,0.052-7.287,0.052-10.905c0-1.277,0.115-2.623-0.155-3.566c-0.523-1.825-2.299-3.339-4.342-3.411
		c-2.513-0.088-4.374,1.485-4.807,3.67c-0.135,0.683-0.066,1.497-0.103,2.274c-0.078,1.631,0,3.19,0,4.755
		c0,0.706,0.111,1.525-0.311,2.119c-3.678-0.001-7.918-0.134-11.784,0c-1.341,0.046-2.704,0.088-3.928-0.155
		C50.539,18.68,52.029,13.964,49.962,11.513z"/>
	<path style="fill-rule:evenodd;clip-rule:evenodd;" d="M16.315,16.423c-0.425,1.308-0.177,2.993-0.206,4.497
		c-0.03,1.528-0.162,3.1,0.103,4.497c1.407,0.198,2.944,0.157,4.497,0.104c2.963-0.103,6.141,0.052,9.354,0.052
		c1.562,0,3.138-0.161,4.445,0.31c1.258,0.616,1.046,2.614,0,3.205c-0.916,0.517-2.808,0.37-4.393,0.362
		c-4.409-0.024-9.727-0.144-13.852,0.052c-0.277,1.316-0.154,3.007-0.154,4.6c-0.001,1.63-0.086,3.232,0.154,4.497
		c1.524,0.288,3.082,0.139,4.601,0.155c3.144,0.034,6.009,0.007,9.354,0c1.82-0.004,4.426-0.486,4.962,1.034
		c0.305,0.865-0.11,1.991-0.982,2.326c-0.92,0.353-3.239,0.104-4.703,0.104c-4.071,0-8.16-0.131-11.991,0.051
		c-2.349,0.112-3.824-0.373-4.496-2.016c-0.526-1.286-0.297-4.376-0.311-6.15c-0.03-4.219-0.052-8.376-0.052-12.456
		c0.001-3.789-0.471-7.258,1.81-8.425c1.122-0.574,3.083-0.387,4.755-0.361c0.729,0.011,1.483-0.029,2.171,0
		c2.694,0.114,5.746-0.062,8.838,0c1.132,0.022,3.226-0.221,4.135,0.258c1.257,0.663,0.926,2.634-0.155,3.101
		c-1.012,0.438-3.139,0.155-4.496,0.155C25.073,16.372,20.683,16.164,16.315,16.423z"/>
	<path style="fill-rule:evenodd;clip-rule:evenodd;" d="M48.153,25.468c0.85,0.243,1.778,0.195,2.688,0.155
		c5.986-0.263,12.884,0.266,19.227-0.104c0.125-2.554,0.155-5.931,0.155-8.941c0-1.815-0.198-3.556,1.499-3.67
		c2.106-0.142,1.86,2.318,1.86,4.496c0.002,6.899-0.09,14.08-0.052,21.036c0.007,1.166,0.073,2.467-0.31,3.049
		c-0.628,0.953-2.187,0.971-2.791-0.104c-0.383-0.68-0.311-1.818-0.311-2.843c0.001-3.101,0.088-6.193-0.104-8.941
		c-3.356-0.268-7.159-0.155-10.905-0.155c-3.727,0-7.514-0.085-11.009,0.103c-0.224,0.795-0.173,1.847-0.155,2.946
		c0.031,1.921,0.07,4.185,0.104,6.203c0.029,1.724,0.011,3.355-1.653,3.463c-2.059-0.048-1.758-2.115-1.758-4.445
		c0.002-6.97-0.052-13.822-0.052-20.829c0.001-1.988-0.126-3.895,1.551-4.031c2.784-0.227,1.912,4.163,1.912,6.667
		C48.049,21.773,47.97,23.863,48.153,25.468z"/>
</g>
<g id="Layer_1">
</g>
</svg>
