<?xml version="1.0" encoding="iso-8859-1"?>
<!-- Generator: Adobe Illustrator 19.2.0, SVG Export Plug-In . SVG Version: 6.00 Build 0)  -->
<svg version="1.1" xmlns="http://www.w3.org/2000/svg" xmlns:xlink="http://www.w3.org/1999/xlink" x="0px" y="0px"
	 viewBox="0 0 86.806 85.992" style="enable-background:new 0 0 86.806 85.992;" xml:space="preserve">
<g id="Erez_x5F_Gordon_x5F_Consultants">
	<path style="fill-rule:evenodd;clip-rule:evenodd;" d="M39.008,0.02c2.441,0.078,5.195-0.158,7.437,0.12
		c0.134,3.522,0.062,8.339,0.12,12.594c0.019,1.422-0.4,3.524,0,4.438c0.229,0.521,1.656,0.963,2.278,1.319
		c1.922,1.098,3.888,2.642,4.318,5.277c0.414,2.539,0,5.651,0,8.516c-0.002,19.718-0.117,36.819-0.12,53.493
		c-0.97-0.07-2.225,0.146-2.998-0.12c-0.181-7.454-0.12-15.625-0.12-23.748c0-1.916,0.506-7.136-0.6-7.556
		c-2.763-1.048-1.919,4.576-1.919,6.477c-0.001,7.923,0.002,16.697,0,24.828c-4.84,0.278-10.194,0.041-15.232,0.12
		c-0.205-13.764-0.119-31.057-0.12-46.177c-0.001-5.29-0.353-10.542,0-14.992c0.308-3.875,3.46-6.086,6.717-7.196
		C39.196,11.468,38.444,5.64,39.008,0.02z M46.085,1.459C46.163,1.537,46.034,1.409,46.085,1.459L46.085,1.459z M43.326,62.148
		c0.12,0,0.239,0,0.359,0c0.016-0.215-0.119-0.28-0.359-0.24C43.326,61.988,43.326,62.068,43.326,62.148z M33.491,83.737
		C33.989,83.852,33.516,83.378,33.491,83.737L33.491,83.737z"/>
	<path style="fill-rule:evenodd;clip-rule:evenodd;" d="M70.072,0.139c0.069,10.022,0,17.711,0,27.466
		c0,9.699-0.095,19.201,0,26.866c2.812,1.297,5.575,3.215,5.877,7.316c0.492,6.688-0.278,17.25-0.12,23.868
		c-0.627,0.196-2.011,0.196-2.639,0c-0.007-5.578,0-10.763,0-16.671c0.001-1.688,0.343-4.528-0.72-4.798
		c-2.092-0.531-1.559,2.682-1.559,4.318c0.001,5.855,0.009,11.358,0,17.151c-1.022,0.243-2.137,0.161-2.999,0.12
		c-0.215-4.558-0.12-10.845-0.119-16.432c0-1.765,0.616-5.309-1.2-5.158c-1.597,0.134-1.07,3.168-1.079,4.678
		c-0.027,4.765,0.046,12.182,0,16.792c-0.78,0.197-2.338,0.197-3.118,0c-0.014-5.707,0-11.027,0-17.031
		c0-1.482,0.391-4.258-0.96-4.438c-1.791-0.238-1.325,2.883-1.319,4.798c0.016,4.682,0.018,12.542,0,16.671
		c-0.693,0.206-2.232,0.138-2.759,0.12c0.694-7.982-0.926-17.411,0-24.708c0.276-2.174,1.775-4.13,3.358-5.277
		c0.797-0.578,2.224-0.864,2.52-1.44c0.662-1.289,0.119-4.652,0.119-6.716c0-14.154,0.387-26.656,0-40.54
		c-0.063-2.276-0.131-5.678,0.24-6.957C65.509,0.037,67.931,0.153,70.072,0.139z"/>
	<path style="fill-rule:evenodd;clip-rule:evenodd;" d="M11.063,0.139c0.814,0.066,1.899-0.141,2.519,0.12
		c-0.002,5.354,0.04,11.583,0,16.671c-0.01,1.295-0.45,6.423,1.919,4.558c0.649-0.511,0.36-3.956,0.36-5.157
		c-0.001-5.408,0-11.384,0-16.192c1.009,0.071,2.306-0.147,3.118,0.12c0.11,5.414-0.057,11.225,0.12,17.031
		c0.04,1.34-0.721,4.769,1.319,4.438c1.242-0.202,0.839-3.143,0.839-4.918c0-5.768,0.054-11.471,0-16.551
		c0.812-0.267,2.109-0.049,3.119-0.12c0.276,6.736-0.21,13.743,0.359,21.349c2.37,1.268,1.919-2.058,1.919-3.598
		c0-5.925,0.008-12.318,0-17.751c0.841,0.079,1.998-0.158,2.639,0.12c0.216,3.562,0.12,8.022,0.12,12.593
		c0,5.599,0.798,12.045-1.199,15.112c-1.16,1.782-2.843,2.503-4.678,3.479c-0.213,16.663,0.041,35.583-0.24,54.333
		c-1.864,0.002-4.537,0.018-6.477,0c-0.343-18.324,0.059-38.622-0.12-54.212c-2.591-1.319-5.043-2.913-5.757-6.237
		c-0.42-1.954,0.023-4.738,0-6.956c-0.064-6.104-0.182-13.082-0.12-17.871C10.817,0.294,10.912,0.189,11.063,0.139z"/>
	<path style="fill-rule:evenodd;clip-rule:evenodd;" d="M6.864,0.499c-0.033,8.086,0.062,16.345,0,23.268
		c-0.024,2.658-0.498,5.761,0,8.156c0.175,0.839,0.991,1.703,1.439,2.639c3.05,6.357,3.887,15.047,3.838,24.588
		c-0.036,7.16-0.817,15.187-2.878,21.349c-0.597,1.781-1.544,4.855-2.759,5.277C4.761,86.381,2,85.517,0.388,85.536
		c-0.466-13.25-0.467-28.01-0.24-41.619c0.23-13.796-0.356-29.477,0.24-43.538C2.637,0.284,4.698,0.15,6.864,0.499z"/>
	<path style="fill-rule:evenodd;clip-rule:evenodd;" d="M86.384,0.499c0.642,7.234,0.36,14.6,0.36,21.709
		c-0.002,21.042-0.051,41.076-0.24,63.568c-2.159,0-4.317,0-6.477,0c-0.217-7.099-0.12-15.933-0.12-23.868
		c0-2.621,0.449-5.587,0-7.676c-0.265-1.233-1.306-2.241-1.919-3.718c-2.673-6.435-3.688-15.541-3.358-24.468
		c0.345-9.351,0.959-17.868,4.198-23.868c0.321-0.596,1.036-1.746,1.559-1.919C82.273-0.364,84.538,0.553,86.384,0.499z
		 M82.307,30.124C82.805,30.239,82.33,29.765,82.307,30.124L82.307,30.124z"/>
	<path style="fill-rule:evenodd;clip-rule:evenodd;fill:#FFFFFF;" d="M46.085,1.459C46.034,1.409,46.163,1.537,46.085,1.459
		L46.085,1.459z"/>
	<path style="fill-rule:evenodd;clip-rule:evenodd;fill:#FFFFFF;" d="M82.307,30.124C82.33,29.765,82.805,30.239,82.307,30.124
		L82.307,30.124z"/>
	<path style="fill-rule:evenodd;clip-rule:evenodd;fill:#FFFFFF;" d="M43.326,61.908c0.24-0.041,0.375,0.024,0.359,0.24
		c-0.12,0-0.239,0-0.359,0C43.326,62.068,43.326,61.988,43.326,61.908z"/>
	<path style="fill-rule:evenodd;clip-rule:evenodd;fill:#FFFFFF;" d="M33.491,83.737C33.516,83.378,33.989,83.852,33.491,83.737
		L33.491,83.737z"/>
</g>
<g id="Layer_1">
</g>
</svg>
