<?xml version="1.0" encoding="iso-8859-1"?>
<!-- Generator: Adobe Illustrator 19.2.0, SVG Export Plug-In . SVG Version: 6.00 Build 0)  -->
<svg version="1.1" xmlns="http://www.w3.org/2000/svg" xmlns:xlink="http://www.w3.org/1999/xlink" x="0px" y="0px"
	 viewBox="0 0 72.974 60.205" style="enable-background:new 0 0 72.974 60.205;" xml:space="preserve">
<g id="Erik_x5F_Jorgensen_x5F_Mobelfabrik">
	<path style="fill-rule:evenodd;clip-rule:evenodd;" d="M22.56,19.493c0.909,0.397,1.965,0.256,2.963,0.256
		c5.337,0,10.313,0.051,15.942,0.051c1.714,0,5.333-0.249,5.978,0.665c0.281,0.397,0.131,1.155,0.153,1.941
		c0.096,3.244-0.052,7.156-0.051,10.576c0,1.573,0.205,3.644-0.613,4.139c-0.619,0.375-1.799,0.153-2.912,0.153
		c-5.104,0-10.349-0.1-15.431-0.103c-0.945,0-1.988-0.045-3.066,0c-1.379,0.059-2.764-0.31-3.321,0.46
		c-0.526,0.728-0.254,2.34,0.512,2.709c0.672,0.323,2.162,0.186,3.219,0.152c1.214-0.037,2.439-0.005,3.423,0
		c3.94,0.022,9.27,0.073,13.285,0.052c1.701-0.01,4.742,0.381,6.54-0.103c0.982-0.264,1.801-1.12,2.146-2.095
		c0.41-1.16,0.231-2.836,0.306-4.445c0.22-4.691,0.009-9.847,0.154-14.204c0.099-2.954,0-5.891,0-9.607
		c-0.001-1.938,0.016-4.964,0.051-7.256c0.018-1.151-0.098-1.951,0.307-2.299c0.678-0.583,4.031-0.232,5.007-0.204
		c4.59,0.132,8.43,0.052,13.183,0.051c0.942,0,2.061,0.011,2.351,0.307c0.513,0.522,0.185,2.786,0.204,3.934
		c0.161,9.024-0.152,19.413-0.153,28.767c0,2.799-0.023,5.587-0.051,8.227c-0.088,8.378-3.583,12.824-8.993,16.146
		c-1.712,1.052-3.689,1.875-6.131,2.248c-2.382,0.365-5.179,0.103-8.073,0.103c-11.108,0.001-21.553-0.152-33.059-0.153
		c-3.845-0.001-8.107-0.102-12.365-0.103c-1.209,0-3.386,0.159-3.832-0.357c-0.34-0.393-0.204-2.226-0.204-3.525
		c-0.001-8.703,0.204-17.156,0.204-25.804c0-4.796,0.047-9.851,0.204-14.868c0.117-3.732,0.102-7.312,0.102-11.189
		c0-1.869-0.463-3.939,1.073-4.088c0.874-0.085,1.856,0.065,2.811,0.051C14.94-0.081,25.377,0.18,36.355,0.179
		c2.887,0,5.732,0.055,8.686,0.102c1.016,0.017,2.129-0.132,2.504,0.307c0.513,0.601,0.204,2.835,0.204,3.935
		c0,2.839-0.102,5.346-0.101,8.328c0,1.343,0.164,3.401-0.46,3.935c-0.479,0.409-1.772,0.218-2.861,0.256
		c-1.207,0.042-2.253-0.008-3.22-0.052c-2.286-0.103-4.163,0-6.284,0c-2.146,0-4.251-0.051-6.541-0.051
		c-0.981,0-2.037,0.056-3.219,0c-1.087-0.051-2.306-0.074-2.708,0.46C21.99,17.885,21.928,18.986,22.56,19.493z M25.165,13.209
		c5.229,0,10.274,0.051,15.635,0.051c1.045,0,2.388,0.089,2.811-0.357c0.368-0.39,0.275-1.242,0.307-2.095
		c0.064-1.69-0.065-3.042,0-4.804c0.028-0.769,0.137-1.708-0.255-2.095c-0.593-0.582-3.222-0.307-4.599-0.307
		c-5.011-0.001-9.687,0.046-14.614-0.051c-4.865-0.096-9.724,0.1-14.511-0.103C8.368,3.384,6.477,3.173,5.034,3.398
		C3.785,3.594,4.063,5.314,4.063,6.924c0.001,8.005-0.364,15.052-0.153,22.636c0.121,4.331-0.102,8.733-0.103,13.028
		c0,3.118,0.052,6.682,0.052,9.812c0,0.916-0.115,2.733,0.153,3.116c0.493,0.705,2.118,0.511,3.475,0.511
		c1.394,0,2.716-0.034,3.729,0c7.241,0.25,15.004,0.156,22.124,0.153c4.919-0.002,9.229,0.103,14.46,0.103
		c2.552,0,5.034-0.055,7.256,0.051c2.413,0.114,4.295-0.668,5.927-1.532c3.187-1.689,5.668-4.351,6.898-7.972
		c0.599-1.761,1.152-3.96,1.073-6.336c-0.078-2.346,0.037-4.85,0.051-7.306c0.046-8.585,0.206-17.074,0.204-25.701
		c0-1.169,0.187-2.947-0.204-3.424c-0.406-0.496-2.224-0.409-3.321-0.408c-1.459,0-2.331,0.029-3.423,0.051
		c-1.305,0.025-2.273-0.144-3.476-0.103c-1.094,0.038-2.674-0.175-3.167,0.307c-0.4,0.391-0.307,1.527-0.307,2.606
		c-0.001,2.901-0.052,5.444-0.052,8.226c0,3.536-0.102,7.088-0.102,10.576c0,3.319-0.188,7.054,0,10.985
		c0.088,1.846,0.002,3.464-0.613,4.803c-0.54,1.175-1.547,2.332-2.759,2.76c-1.879,0.663-5.558,0.501-8.227,0.408
		c-2.769-0.096-5.715-0.074-8.328-0.102c-4.091-0.043-8.552-0.052-12.825-0.052c-1.409,0-3.412,0.228-3.985-0.357
		c-0.513-0.523-0.323-1.629-0.307-2.452c0.044-2.272,0.084-3.228,0.101-5.161c0.008-0.854-0.106-1.919,0.256-2.351
		c0.429-0.511,1.874-0.463,3.168-0.408c1.367,0.058,2.423,0.051,3.116,0.051c4.46-0.001,8.3,0.052,12.518,0.051
		c0.971,0,1.959,0.001,3.168,0c1.158,0,2.396,0.241,2.913-0.153c0.494-0.376,0.322-1.432,0.357-2.35c0.034-0.92,0-1.653,0-2.401
		c0-1.459,0.146-4.07-0.357-4.65c-0.523-0.6-2.192-0.408-3.475-0.408c-5.477,0-10.402-0.051-15.84-0.052
		c-1.647,0-5.098,0.332-5.62-0.767c-0.206-0.431-0.082-1.444-0.052-2.146c0.036-0.817,0-1.525,0-2.299
		c0-1.964-0.335-4.422,0.817-4.957C21.07,13.017,23.122,13.209,25.165,13.209z"/>
</g>
<g id="Layer_1">
</g>
</svg>
