<?xml version="1.0" encoding="iso-8859-1"?>
<!-- Generator: Adobe Illustrator 19.2.0, SVG Export Plug-In . SVG Version: 6.00 Build 0)  -->
<svg version="1.1" xmlns="http://www.w3.org/2000/svg" xmlns:xlink="http://www.w3.org/1999/xlink" x="0px" y="0px"
	 viewBox="0 0 30.456 26.192" style="enable-background:new 0 0 30.456 26.192;" xml:space="preserve">
<g id="Erpa">
	<g>
		<polygon points="20.7,10.886 24.956,3.637 23.463,1.066 19.206,8.316 		"/>
		<polygon points="9.789,15.186 5.485,22.531 6.893,24.955 11.196,17.627 		"/>
		<polygon points="18.688,0 14.426,7.273 17.273,7.273 21.543,0 		"/>
		<polygon points="19.826,26.192 22.842,26.192 30.456,13.097 28.993,10.578 		"/>
		<polygon points="7.613,0 0,13.097 1.53,15.731 10.748,0 		"/>
		<polygon points="14.26,26.192 17.28,26.192 27.726,8.4 26.224,5.814 		"/>
		<polygon points="13.033,18.833 8.713,26.192 11.717,26.192 11.802,26.049 16.034,18.833 		"/>
		<polygon points="17.338,9.469 15.984,9.469 13.152,9.469 11.067,13.009 12.475,15.449 13.16,16.638 14.322,16.638 17.304,16.638 
			19.42,13.049 17.931,10.488 		"/>
		<polygon points="13.292,0 2.798,17.91 4.218,20.354 8.526,12.998 8.653,12.781 16.143,0 		"/>
	</g>
</g>
<g id="Layer_1">
</g>
</svg>
