<?xml version="1.0" encoding="iso-8859-1"?>
<!-- Generator: Adobe Illustrator 19.2.0, SVG Export Plug-In . SVG Version: 6.00 Build 0)  -->
<svg version="1.1" xmlns="http://www.w3.org/2000/svg" xmlns:xlink="http://www.w3.org/1999/xlink" x="0px" y="0px"
	 viewBox="0 0 144.134 133.877" style="enable-background:new 0 0 144.134 133.877;" xml:space="preserve">
<g id="ESB_x5F_electronics">
	<path style="fill-rule:evenodd;clip-rule:evenodd;" d="M106.468,8.401c1.486,15.129,6.12,29.299,13.075,40.305
		c2.733,4.104,5.717,7.959,8.637,11.876c3.45,3.787,7.179,7.295,10.916,10.796c1.967,0.727,3.064,2.912,5.038,3.239
		c-1.312,27.733-14.783,47.096-33.348,59.139c-2.093-1.191-4.841-2.452-7.317-3.359c-4.109-1.505-8.634-2.709-13.195-3.719
		c-2.073-0.459-4.792-0.82-6.958-1.08c-0.626-0.075-1.381-0.188-2.039-0.24c-8.869-0.695-20.035-0.209-30.229,2.279
		c-2.611,0.637-5.109,1.737-8.397,2.519c-2.293,0.545-3.638,1.498-5.877,2.279c-1.302,0.454-2.527,1.496-2.999,1.44
		c-0.417-0.05-0.409-0.482-0.72-0.72c-0.915-0.698-2.253-1.124-3.359-1.919c-0.766-0.552-1.591-1.288-2.399-1.919
		c-1.371-1.071-2.282-2.357-3.839-3.119c-3.413-3.465-6.496-7.259-9.836-10.796c-2.029-3.333-4.426-6.758-6.238-10.676
		c-1.053-2.277-1.623-4.921-2.759-7.317C1.83,91.511,0.948,85.159,0.186,78.336c-0.074-0.663-0.296-2.164-0.12-2.759
		c0.258-0.873,3.459-2.735,4.438-3.479c3.254-2.47,5.947-6.075,8.997-8.637C26.005,50.025,35.606,32.715,38.452,10.8
		c0.091-0.702-0.269-1.595,0.12-2.159c0.536-0.776,3.584-1.651,5.038-2.279c2.909-1.255,6.265-3,9.236-3.838
		c2.342-0.66,4.804-0.986,6.958-1.319c3.746-0.581,7.465-1.262,11.036-1.2c2.447,0.043,4.51-0.02,6.718,0.12
		C88.562,0.822,97.782,3.964,106.468,8.401z M104.548,10.68c-5.593,11.166-13.001,21.806-21.472,30.109
		c-1.684,1.651-3.605,3.428-5.638,4.438c-2.34,2.498-5.016,4.66-8.037,6.478c-0.243,0.157-0.165,0.635-0.48,0.72
		c-7.037,4.28-13.788,9.483-21.952,12.235c-0.562,0.929-2.595,1.407-4.079,2.04c-6.618,2.82-12.952,4.902-19.553,6.598
		c-3.572,0.521-7.393,1.495-11.396,1.559c-1.703,0.028-3.422,0.067-5.038,0.12c-1.383,0.045-3.861-0.202-4.679,1.08
		c0.674,0.391,1.595,0.51,2.399,0.48c9.024-0.342,17.806-0.077,26.15,1.679c4.103,1.227,9.253,1.746,14.155,3.959
		c1.999,0.445,4.233,0.901,6.238,1.68c1.898,0.737,3.555,1.844,5.398,2.639c0.39,0.168,1.118,0.042,1.56,0.24
		c0.594,0.267,1.059,0.91,1.679,1.199c2.174,1.015,4.663,1.749,6.718,2.759c1.381,0.679,2.861,1.987,3.958,2.639
		c1.634,0.972,2.851,1.686,4.439,2.759c4.228,2.859,8.61,6.06,12.116,9.356c1.356,1.276,3.032,2.406,4.438,3.719
		c3.511,3.279,6.748,7.082,9.597,10.437c0.401,0.472,0.957,0.722,1.319,1.199c1.229,1.617,2.323,3.274,3.479,4.918
		c0.326,0.464,1.155,1.083,1.56,1.679c1.095,1.618,2.575,5.772,3.479,3.119c-0.843-0.917-1.351-2.169-2.279-2.999
		c-2.26-4.173-4.916-7.824-7.077-12.235c-1.435-2.929-2.002-6.404-3.359-9.597c-1.551-3.651-2.23-7.322-3.239-11.156
		c-0.415-1.576-0.733-3.484-1.2-4.558c-2.276-11.941-2.3-25.167-1.439-37.307c0.257-3.619,1.284-7.68,1.92-10.556
		c0.418-1.892,0.514-3.849,0.959-5.758c0.311-1.331,0.963-2.559,1.319-3.838c2.208-7.929,4.919-15.001,8.877-21.592
		C105.009,10.94,104.987,10.601,104.548,10.68z"/>
</g>
<g id="Layer_1">
</g>
</svg>
