<?xml version="1.0" encoding="iso-8859-1"?>
<!-- Generator: Adobe Illustrator 19.2.0, SVG Export Plug-In . SVG Version: 6.00 Build 0)  -->
<svg version="1.1" xmlns="http://www.w3.org/2000/svg" xmlns:xlink="http://www.w3.org/1999/xlink" x="0px" y="0px"
	 viewBox="0 0 64.791 76.028" style="enable-background:new 0 0 64.791 76.028;" xml:space="preserve">
<g id="Escuela_x5F_Superior_x5F_de_x5F_Administracion_x5F_Publica">
	<path style="fill-rule:evenodd;clip-rule:evenodd;" d="M13.403,0c2.169,0.975,4.473,2.685,6.472,3.835
		c10.876,6.261,21.394,12.815,32.213,19.079c2.153,1.247,4.233,2.644,6.376,3.883c1.081,0.625,2.144,1.271,3.212,1.917
		c1.045,0.633,2.187,1.148,3.115,1.965c-0.339,0.533-0.979,0.748-1.485,1.055c-3.607,2.183-7.438,4.315-11.025,6.567
		c0.296,0.572,0.99,0.742,1.485,1.055c2.512,1.583,5.189,3.161,7.813,4.697c1.049,0.614,2.141,1.154,3.068,1.917
		c-0.346,0.524-0.967,0.796-1.486,1.103c-3.71,2.191-7.506,4.391-11.265,6.567c-6.439,3.727-12.927,7.43-19.318,11.265
		c-4.243,2.546-8.628,4.888-12.896,7.478c-1.579,0.959-3.142,1.914-4.745,2.876c-0.519,0.311-1.051,0.706-1.678,0.767
		c-0.279-4.794,0.097-10.363-0.24-14.957c-0.62,0.067-1.159,0.473-1.678,0.767c-3.165,1.793-6.38,3.771-9.587,5.608
		c-0.511,0.293-1.016,0.719-1.63,0.767c-0.203-10.31-0.098-21.28-0.096-32.117C0.03,26.446-0.024,16.972,0.173,7.766
		C0.811,7.873,1.327,8.315,1.85,8.629c2.602,1.561,5.309,3.179,7.957,4.746c1.046,0.618,2.024,1.414,3.212,1.822
		c0.252-0.474,0.189-1.087,0.191-1.63c0.024-4.317-0.031-9.144,0.049-13.422C13.286,0.075,13.334,0.027,13.403,0z M18.724,9.348
		c-0.159,0.473-0.097,1.642-0.097,2.541c0,1.842,0,3.489,0,5.273c0,0.833,0.022,1.8,1.007,1.534c0.374-0.378,0.239-1.04,0.24-1.629
		c0-1.287,0.009-2.62,0.048-3.787c0.02-0.597-0.174-1.241,0.191-1.63c1.421,0.616,2.714,1.479,4.026,2.301
		c3.951,2.473,7.975,4.798,11.984,7.143c2.663,1.557,5.285,3.208,7.958,4.746c2.023,1.165,4.061,2.326,6.039,3.5
		c0.65,0.385,1.45,0.647,1.918,1.294c-0.404,0.506-1.032,0.795-1.582,1.103c-4.034,2.256-7.96,4.649-11.936,6.951
		c-3.423,1.98-6.869,3.97-10.259,5.896c-1.134,0.644-2.373,1.177-3.308,2.109c0.022,0.377-0.082,0.881,0.144,1.055
		c0.725-0.12,1.311-0.599,1.918-0.959c6.71-3.981,13.62-7.755,20.325-11.744c1.784-1.062,3.623-2.189,5.512-3.26
		c0.475-0.268,1.748-0.795,1.774-1.15c0.024-0.339-0.612-0.595-0.959-0.815c-2.584-1.642-5.413-3.091-7.909-4.602
		c-2.947-1.784-5.973-3.68-8.917-5.369c-4.61-2.646-8.886-5.346-13.422-8.005c-1.292-0.758-3.223-2.039-4.554-2.637
		C18.799,9.231,18.751,9.279,18.724,9.348z M5.59,17.162c-0.135,0.481-0.048,1.689-0.048,2.493
		C5.54,31.952,5.493,44.322,5.493,56.518c0,0.834-0.11,1.694,0.145,2.493c0.388,0.062,0.728-0.233,1.055-0.432
		c1.69-1.027,3.313-1.886,4.985-2.924c0.606-0.376,1.728-0.725,1.198-1.822c-0.596-0.088-1.085,0.343-1.534,0.623
		c-0.952,0.595-1.938,1.088-2.876,1.63c-0.467,0.269-0.915,0.698-1.486,0.719c-0.258-1.113-0.144-2.266-0.144-3.404
		c0.002-10.914,0.048-21.168,0.048-31.638c0-0.775-0.152-1.62,0.191-2.301c1.217,0.471,2.282,1.248,3.404,1.918
		c3.37,2.014,6.693,3.887,10.114,5.896c3.278,1.925,6.634,4.072,10.019,5.992c0.527,0.299,1.11,0.568,1.726,0.959
		c0.897,0.569,2.041,1.469,2.685,0.288c-0.308-0.68-1.106-0.873-1.678-1.198c-0.618-0.353-1.222-0.742-1.821-1.103
		c-3.665-2.205-7.284-4.397-11.025-6.519c-2.389-1.356-4.783-2.946-7.334-4.362c-1.79-0.993-3.641-2.211-5.466-3.308
		c-0.597-0.359-1.518-0.97-1.965-1.007C5.664,17.044,5.616,17.092,5.59,17.162z M25.099,20.948
		c-0.631,1.329,0.817,1.837,1.726,2.349c0.742,0.42,1.372,0.798,1.966,1.15c3.272,1.941,6.626,3.831,9.875,5.753
		c0.642,0.379,1.537,1.12,2.061,1.102c0.4-0.013,0.935-0.272,0.911-0.671c-0.016-0.258-0.571-0.525-0.911-0.719
		c-1.098-0.629-2.094-1.261-3.067-1.822c-4.172-2.401-8.248-4.949-12.416-7.238C25.186,20.876,25.135,20.904,25.099,20.948z
		 M12.013,28.475c-0.201,0.379-0.144,1.481-0.144,2.253c0,5.476-0.028,10.853,0,16.154c0.002,0.313-0.128,0.806,0.24,1.007
		c0.841,0.094,0.91-0.738,0.91-1.486c0-5.815,0.04-11.85-0.048-17.401c-0.168-0.311-0.425-0.534-0.814-0.623
		C12.1,28.402,12.048,28.43,12.013,28.475z M18.724,32.501c-0.16,0.506-0.12,1.902-0.145,2.78c-0.029,1.065,0.001,2.018,0,2.876
		c-0.001,5.713,0.064,11.627,0.048,17.305c-0.009,3.08-0.047,6.363-0.048,9.587c0,0.565-0.167,1.265,0.24,1.726
		c0.802-0.257,1.526-0.725,2.253-1.15c2.246-1.317,4.484-2.57,6.711-3.883c5.988-3.533,11.803-6.871,17.929-10.307
		c2.09-1.172,4.448-2.68,6.663-3.931c0.362-0.205,2.11-1.007,2.108-1.438c-0.001-0.401-1.269-1.031-1.725-1.294
		c-1.333-0.769-2.562-1.472-3.836-2.205c-0.44-0.254-1.375-1.049-2.013-1.006c-0.342,0.023-0.863,0.345-0.863,0.623
		c0,0.397,0.94,0.772,1.391,1.055c1.131,0.709,1.995,1.144,3.115,1.774c0.488,0.274,1.132,0.549,1.438,1.055
		c-0.48,0.605-1.232,0.91-1.87,1.294c-0.659,0.397-1.304,0.816-1.965,1.199c-8.69,5.03-17.488,10.004-26.125,15.004
		c-0.675,0.391-1.296,0.909-2.061,1.103c-0.252-0.581-0.144-1.256-0.144-1.869c0-0.675,0-1.338,0-2.014
		c0-3.821-0.168-7.767,0-11.936c0.149-3.732,0-7.908,0-11.84c0-1.652,0.529-4.43-0.959-4.602
		C18.811,32.429,18.76,32.457,18.724,32.501z M26.922,39.404c0.312-0.191,1.579-0.754,1.581-1.15
		c0.002-0.23-0.449-0.498-0.671-0.623c-0.879-0.499-1.864-1.176-2.685-1.39c-0.068,0.027-0.117,0.075-0.144,0.144
		c-0.117,0.492-0.044,1.03-0.048,1.629c-0.006,0.814-0.257,1.775,0.191,2.253C25.777,40.199,26.295,39.787,26.922,39.404z
		 M40.2,45.396c-1.262,0.639-2.515,1.421-3.836,2.157c-3.159,1.762-6.368,3.708-9.539,5.513c-1.062,0.604-2.413,1.022-1.726,2.397
		c0.798-0.151,1.433-0.714,2.109-1.103c4.142-2.381,8.294-4.833,12.416-7.095c0.675-0.37,1.424-0.738,1.917-1.342
		C41.322,45.47,40.659,45.163,40.2,45.396z"/>
</g>
<g id="Layer_1">
</g>
</svg>
