<?xml version="1.0" encoding="iso-8859-1"?>
<!-- Generator: Adobe Illustrator 19.2.0, SVG Export Plug-In . SVG Version: 6.00 Build 0)  -->
<svg version="1.1" xmlns="http://www.w3.org/2000/svg" xmlns:xlink="http://www.w3.org/1999/xlink" x="0px" y="0px"
	 viewBox="0 0 77.354 44.079" style="enable-background:new 0 0 77.354 44.079;" xml:space="preserve">
<g id="estro_x5F_armonico_x5F_club">
	<path style="fill-rule:evenodd;clip-rule:evenodd;" d="M25.517,0.148c0.291,4.057,0.099,8.557,0.099,13.088
		c0,4.486,0.167,9.084-0.049,13.387c-1.203,0.203-2.55,0.143-3.952,0.149c-1.38,0.004-2.837-0.002-4.297,0
		c-2.946,0-5.952-0.107-8.545,0.146c-0.141,2.633-0.191,5.859-0.049,8.447c1.006,0.268,2.106,0.146,3.161,0.149
		c7.404,0,15.113-0.024,22.474-0.051c0.295-11.486-0.098-23.68,0.197-35.217c12.324-0.223,25.011-0.047,37.489-0.049
		c1.741,0,3.489-0.121,5.186,0.148c0.164,14.287,0.164,29.275,0,43.613c-8.255,0.184-17.607,0.137-25.635,0
		c-0.197-8.42-0.099-17.432-0.049-25.98c0.044-0.021,0.088-0.043,0.099-0.1c4.167-0.217,8.475-0.049,12.793-0.049
		c1.427,0,2.869,0.119,4.198-0.149c0.164-2.703,0.164-6.086,0-8.791c-8.297-0.207-17.241-0.168-25.585-0.1
		c-0.022,0.045-0.044,0.088-0.099,0.1c-0.267,1.418-0.148,2.883-0.148,4.346c0,1.395-0.064,2.801,0,4.199
		c0.066,1.436,0,2.914,0,4.395c0,1.461,0,2.957,0,4.447c0,5.934,0.132,12.002-0.099,17.633c-1.714,0.244-3.478,0.098-5.236,0.098
		c-12.327,0-24.775-0.025-37.34-0.148C-0.051,30.396,0.03,16.269,0.03,2.468c0-0.699-0.193-2.295,0.396-2.369
		c1.73-0.223,4.474,0,6.421,0C13.105,0.097,19.338-0.077,25.517,0.148z M8.674,9.136c-0.265,1.242-0.148,2.754-0.148,4.248
		c0,1.477-0.079,3.008,0.099,4.297c2.622,0.164,5.924,0.166,8.545,0c0.179-1.305,0.099-2.836,0.099-4.346
		c0-1.502,0.109-3.016-0.099-4.248C14.548,8.925,11.228,8.904,8.674,9.136z M60.19,26.82c-0.179,1.318-0.099,2.871-0.099,4.396
		c0,1.492-0.18,3.057,0.148,4.246c2.588,0.164,5.858,0.164,8.446,0c0.265-1.238,0.148-2.795,0.148-4.297c0-0.74,0-1.498,0-2.223
		c0-0.748,0.11-1.508-0.148-2.123C66.002,26.663,62.778,26.64,60.19,26.82z"/>
</g>
<g id="Layer_1">
</g>
</svg>
