<?xml version="1.0" encoding="iso-8859-1"?>
<!-- Generator: Adobe Illustrator 19.2.0, SVG Export Plug-In . SVG Version: 6.00 Build 0)  -->
<svg version="1.1" xmlns="http://www.w3.org/2000/svg" xmlns:xlink="http://www.w3.org/1999/xlink" x="0px" y="0px"
	 viewBox="0 0 83.859 74.521" style="enable-background:new 0 0 83.859 74.521;" xml:space="preserve">
<g id="Estudio_x5F_Uno">
	<path style="fill-rule:evenodd;clip-rule:evenodd;" d="M26.209,0.165c-0.256,0.947-1.003,1.646-1.561,2.395
		c-3.877,5.191-8.075,10.197-11.863,15.557c-0.403,0.289-0.495,0.893-1.093,0.988c-0.159-1.426,0.78-2.137,1.457-3.018
		c0.593-0.772,1.192-1.414,1.613-2.342c2.927-3.539,6.325-8.189,9.366-12.07C24.626,1.038,25.385-0.349,26.209,0.165z"/>
	<path style="fill-rule:evenodd;clip-rule:evenodd;" d="M31.62,0.165c-0.23,1.215-1.427,1.898-1.977,2.967
		c-4.772,6.156-9.578,12.363-14.413,18.521c-0.599,0.764-1.078,1.598-1.665,2.395c-0.765,1.039-1.58,2.121-2.445,3.121
		c-0.341,0.475-0.539,1.092-1.197,1.25c-0.285-1.258,0.781-2.195,1.457-3.019c0.711-0.867,1.331-1.863,1.977-2.705
		c4.036-5.25,8.074-10.559,12.175-15.766c1.057-1.404,2.794-3.609,4.058-5.254C30.018,1.118,30.847-0.339,31.62,0.165z"/>
	<path style="fill-rule:evenodd;clip-rule:evenodd;" d="M41.818,0.165c0.01,0.699-0.585,1.189-0.937,1.666
		c-0.765,1.035-1.495,1.982-2.289,3.068c-0.372,0.51-0.882,0.967-1.145,1.51c-0.354,0.732-0.504,1.787-0.676,2.758
		c-1.024,5.773-2.195,11.371-3.33,17.223c-0.189,0.977-0.254,2.012-0.572,2.809c-0.208,0.521-0.64,0.873-1.092,1.404
		c-0.387,0.455-0.706,1.025-1.041,1.457c-1.486,1.914-2.807,3.641-4.37,5.568c-0.324,0.398-0.703,0.932-1.093,1.404
		c-0.396,0.482-0.851,0.943-1.04,1.404c-0.399,0.969-0.509,2.271-0.729,3.434c-0.639,3.383-1.309,7-2.029,10.303
		c-0.734,3.367-1.251,6.898-2.029,10.354c-0.262,1.16-0.276,2.436-0.677,3.434c-0.258,0.643-0.817,1.182-1.301,1.77
		c-0.476,0.58-0.875,1.23-1.301,1.77c-0.425,0.537-0.995,1.104-1.405,1.666c-0.384,0.525-0.634,1.633-1.613,1.248
		c-0.093-0.75,0.61-1.172,0.988-1.666c0.384-0.5,0.736-1.078,1.145-1.611c0.36-0.471,0.777-1.029,1.196-1.562
		c0.403-0.51,0.978-1.047,1.197-1.561c0.378-0.887,0.463-2.422,0.677-3.486c1.576-7.855,3.211-16.416,4.787-24.09
		c2.37-3.41,4.966-6.418,7.544-9.834c0.351-0.465,0.864-0.969,1.041-1.404c0.314-0.775,0.356-1.867,0.572-2.861
		c0.616-2.832,1.071-5.711,1.613-8.533c0.543-2.826,1.176-5.592,1.665-8.48c0.161-0.951,0.248-2.232,0.625-2.914
		c0.622-1.129,1.526-2.024,2.445-3.227c0.413-0.539,0.841-1.07,1.249-1.613C40.347,0.967,40.976-0.359,41.818,0.165z"/>
	<path style="fill-rule:evenodd;clip-rule:evenodd;" d="M44.42,0.114c0.172,0.736-0.525,1.234-0.884,1.717
		c-0.79,1.059-1.588,2.031-2.394,3.121c-0.406,0.551-0.962,1.133-1.197,1.717c-0.322,0.803-0.358,1.855-0.572,2.811
		c-0.619,2.754-1.164,5.672-1.717,8.428c-0.55,2.742-1.103,5.658-1.613,8.533c-0.171,0.967-0.217,2.023-0.52,2.861
		c-0.327,0.904-1.476,2.088-2.082,2.863c-1.455,1.861-2.873,3.6-4.318,5.514c-0.72,0.955-1.669,1.873-2.081,2.811
		c-0.407,0.926-0.542,2.33-0.78,3.486c-1.387,6.719-2.516,13.633-4.006,20.447c-0.259,1.184-0.247,2.447-0.625,3.434
		c-0.237,0.621-0.879,1.229-1.353,1.822c-0.974,1.221-1.813,2.318-2.81,3.486c-0.438,0.512-0.837,1.443-1.717,1.299
		c-0.25-0.775,0.534-1.285,0.936-1.768c0.879-1.057,1.664-2.133,2.549-3.279c0.419-0.541,0.974-1.088,1.197-1.664
		c0.188-0.484,0.2-1.127,0.312-1.717c1.568-8.248,3.472-17.184,4.943-25.443c2.434-3.146,4.949-6.504,7.545-9.73
		c0.411-0.51,0.896-1.016,1.093-1.611c0.291-0.885,0.306-1.883,0.52-2.861c1.407-6.416,2.473-13.336,3.902-19.721
		c0.819-1.43,2.512-3.484,3.694-4.994C42.934,1.045,43.497-0.249,44.42,0.114z"/>
	<path style="fill-rule:evenodd;clip-rule:evenodd;" d="M46.865,0.008c0.583,0.506-0.357,1.359-0.676,1.769
		c-0.871,1.123-1.703,2.098-2.549,3.277c-0.41,0.572-0.908,1.18-1.145,1.77c-0.322,0.803-0.389,1.853-0.572,2.81
		c-1.084,5.629-2.291,11.201-3.33,16.961c-0.171,0.947-0.201,2.045-0.521,2.811c-0.185,0.441-0.684,0.898-1.093,1.404
		c-1.872,2.315-3.584,4.676-5.463,7.024c-0.32,0.4-0.73,0.902-1.093,1.406c-0.736,1.019-1.034,1.564-1.353,3.018
		c-0.118,0.535-0.216,1.092-0.312,1.611c-0.986,5.309-2.152,10.65-3.07,16.025c-0.365,2.143-0.95,4.203-1.301,6.297
		c-0.101,0.605-0.046,1.246-0.26,1.82c-0.205,0.551-0.917,1.219-1.353,1.77c-0.97,1.227-1.788,2.256-2.757,3.434
		c-0.425,0.516-0.822,1.381-1.665,1.301c-0.283-0.793,0.61-1.244,0.884-1.82c0.669-0.697,1.266-1.555,1.925-2.395
		c0.637-0.811,1.587-1.707,1.925-2.549c0.391-0.975,0.494-2.264,0.729-3.383c0.705-3.35,1.331-6.873,1.977-10.197
		c0.76-3.904,1.517-7.908,2.29-11.914c0.112-0.58,0.136-1.242,0.312-1.719c0.161-0.435,0.706-0.928,1.092-1.404
		c1.142-1.404,2.084-2.842,3.226-4.215c0.744-0.893,1.453-1.836,2.185-2.809c0.666-0.885,1.725-1.861,2.081-2.861
		c0.3-0.844,0.374-1.895,0.572-2.861c0.953-4.635,1.881-9.414,2.758-14.152c0.167-0.904,0.425-1.879,0.572-2.811
		c0.155-0.981,0.243-2.012,0.572-2.811c0.499-1.209,1.745-2.252,2.498-3.328c0.75-0.779,1.571-2.668,2.602-3.227
		C46.636,0.016,46.75,0.043,46.865,0.008z"/>
	<path style="fill-rule:evenodd;clip-rule:evenodd;" d="M52.432,0.114c-0.006,0.711-0.576,1.223-0.937,1.717
		c-0.777,1.06-1.558,2.039-2.394,3.121c-0.393,0.51-0.9,1.021-1.145,1.56c-0.344,0.76-0.516,1.832-0.676,2.811
		c-0.159,0.971-0.408,1.963-0.572,2.861c-0.721,3.928-1.497,7.553-2.237,11.498c-0.259,1.379-0.593,2.92-0.833,4.318
		c-0.087,0.51-0.101,1.053-0.26,1.457c-0.175,0.443-0.687,0.922-1.093,1.404c-1.508,1.799-2.794,3.666-4.214,5.568
		c-0.691,0.926-1.446,1.672-2.185,2.705c-0.368,0.516-0.809,0.994-0.989,1.457c-0.382,0.984-0.504,2.223-0.729,3.383
		c-0.646,3.342-1.38,6.873-2.029,10.197c-0.649,3.324-1.221,6.883-1.925,10.354c-0.109,0.541-0.267,1.104-0.364,1.666
		c-0.102,0.588-0.123,1.238-0.312,1.717c-0.223,0.562-0.915,1.209-1.353,1.77c-0.958,1.227-1.797,2.299-2.757,3.486
		c-0.411,0.506-0.844,1.4-1.717,1.299c-0.16-0.699,0.548-1.219,0.937-1.717c0.43-0.551,0.88-1.084,1.248-1.611
		c0.496-0.48,0.818-1.076,1.249-1.613c0.424-0.529,1-1.004,1.249-1.613c0.401-0.982,0.417-2.262,0.676-3.434
		c1.008-4.557,1.859-9.152,2.706-13.736c0.422-2.291,0.868-4.52,1.301-6.92c0.205-1.137,0.351-2.408,0.729-3.383
		c0.382-0.988,1.37-1.965,2.081-2.861c1.817-2.293,3.563-4.492,5.359-6.92c0.375-0.506,0.871-0.975,1.041-1.404
		c0.315-0.797,0.374-1.904,0.572-2.861c0.577-2.785,1.048-5.818,1.613-8.533c0.372-1.789,0.788-3.754,1.145-5.672
		c0.167-0.9,0.405-1.873,0.572-2.811c0.177-0.99,0.224-1.99,0.572-2.809c0.248-0.582,0.735-1.193,1.145-1.717
		c1.237-1.584,2.484-3.131,3.798-4.734C51.853-0.031,52.283-0.031,52.432,0.114z"/>
	<path style="fill-rule:evenodd;clip-rule:evenodd;" d="M28.967,74.36c-0.091-0.725,0.587-1.201,0.988-1.664
		c0.873-1.008,1.618-2.125,2.498-3.227c0.413-0.518,0.972-1.062,1.197-1.613c0.391-0.953,0.504-2.266,0.729-3.381
		c1.379-6.875,2.669-13.643,3.954-20.606c0.211-1.141,0.305-2.455,0.676-3.381c0.181-0.453,0.647-0.967,1.041-1.457
		c1.821-2.27,3.496-4.629,5.411-6.92c0.343-0.41,0.678-0.891,1.041-1.404c0.365-0.518,0.858-0.926,1.041-1.406
		c0.318-0.84,0.324-1.912,0.572-2.912c0.238-0.961,0.4-1.961,0.572-2.863c0.915-4.799,1.88-9.457,2.758-14.412
		c0.169-0.955,0.298-2.074,0.624-2.809c0.223-0.502,0.782-1.064,1.197-1.613c0.799-1.059,1.58-2.047,2.445-3.174
		c0.424-0.553,0.978-1.457,1.509-1.457c0.838,0.359-0.188,1.385-0.468,1.77c-0.848,1.189-1.848,2.418-2.758,3.693
		c-0.311,0.436-0.701,0.791-0.885,1.248c-0.265,0.662-0.369,1.572-0.52,2.394c-0.732,3.981-1.54,8.068-2.341,12.07
		c-0.338,1.689-0.553,3.367-0.937,4.84c-0.091,0.35-0.179,0.658-0.417,0.935c0.146,0.934,0.042,1.965-0.26,2.654
		c-0.194,0.441-0.711,0.859-1.093,1.354c-1.776,2.297-3.485,4.436-5.307,6.764c-0.342,0.435-0.665,0.959-1.04,1.404
		c-0.387,0.459-0.818,0.953-0.989,1.404c-0.185,0.488-0.222,1.121-0.364,1.717c-1.452,6.078-2.242,12.588-3.694,18.73
		c-0.382,1.619-0.728,3.361-0.988,5.1c-0.088,0.59-0.185,1.307-0.364,1.77c-0.211,0.543-0.828,1.27-1.301,1.82
		c-0.978,1.141-1.877,2.244-2.81,3.436C30.276,73.684,29.879,74.715,28.967,74.36z"/>
	<path style="fill-rule:evenodd;clip-rule:evenodd;" d="M60.289,0.114c0.129,0.467-0.306,0.803-0.521,1.092
		c-0.252,0.34-0.492,0.68-0.729,0.988c-0.493,0.645-1.077,1.268-1.509,1.926c-0.271,0.412-0.479,0.908-0.78,1.353
		c-0.293,0.43-0.696,0.793-0.885,1.248c-0.32,0.773-0.452,1.828-0.625,2.758c-1.043,5.629-2.245,11.215-3.329,16.961
		c-0.18,0.953-0.219,2.031-0.521,2.811c-0.328,0.85-1.522,2.074-2.133,2.809c-1.554,1.869-2.749,3.605-4.318,5.568
		c-0.328,0.408-0.729,0.906-1.093,1.404c-0.36,0.492-0.818,0.992-0.989,1.457c-0.356,0.973-0.47,2.326-0.676,3.434
		c-1.479,7.957-3.209,15.916-4.735,23.934c-1.145,1.855-2.699,3.58-4.058,5.359c-0.395,0.518-0.912,1.428-1.717,1.197
		c-0.055-0.727,0.606-1.228,0.988-1.717c0.825-1.053,1.594-2.062,2.446-3.174c0.419-0.549,0.956-1.043,1.196-1.613
		c0.202-0.479,0.255-1.113,0.364-1.717c0.699-3.885,1.694-8.191,2.394-12.02c0.605-3.316,1.38-6.92,2.029-10.303
		c0.223-1.16,0.265-2.445,0.676-3.434c0.407-0.976,1.369-1.879,2.081-2.809c1.428-1.865,2.84-3.598,4.267-5.516
		c0.315-0.424,0.753-0.871,1.092-1.353c0.347-0.49,0.791-0.973,0.989-1.457c0.338-0.826,0.362-1.869,0.573-2.861
		c1.205-5.674,2.362-11.365,3.382-17.17c0.169-0.963,0.296-1.957,0.624-2.758c0.503-1.227,1.573-2.053,2.341-3.225
		c0.724-1.15,1.478-2.27,2.446-3.174C59.674-0.066,60.162-0.007,60.289,0.114z"/>
	<path style="fill-rule:evenodd;clip-rule:evenodd;" d="M62.735,0.061c0.186,0.721-0.467,1.314-0.833,1.77
		c-0.844,1.049-1.628,2.029-2.445,3.174c-0.389,0.543-0.884,1.074-1.145,1.664c-0.718,1.627-0.766,3.793-1.093,5.723
		c-0.66,3.9-1.505,7.422-2.185,11.344c-0.156,0.902-0.368,1.851-0.572,2.808c-0.209,0.979-0.218,2.049-0.521,2.863
		c-0.336,0.902-1.381,1.906-2.081,2.809c-1.783,2.297-3.607,4.428-5.359,6.816c-0.375,0.51-0.84,1.021-1.041,1.613
		c-0.348,1.025-0.499,2.211-0.728,3.381c-0.662,3.379-1.339,6.871-2.029,10.303c-0.683,3.396-1.222,6.916-1.977,10.353
		c-0.122,0.555-0.268,1.1-0.364,1.666c-0.098,0.57-0.144,1.238-0.312,1.717c-0.165,0.467-0.62,0.863-0.988,1.301
		c-1.057,1.254-1.879,2.613-3.018,3.799c-0.47,0.471-0.705,1.438-1.664,1.248c-0.168-0.754,0.547-1.242,0.937-1.717
		c0.838-1.025,1.636-2.072,2.497-3.174c0.407-0.521,0.985-1.092,1.197-1.613c0.187-0.461,0.268-1.131,0.364-1.717
		c0.272-1.643,0.675-3.494,1.041-5.152c0.525-2.383,0.877-4.699,1.301-6.92c0.634-3.322,1.402-6.822,2.029-10.301
		c0.207-1.148,0.303-2.473,0.676-3.434c0.32-0.826,1.399-1.933,2.133-2.81c1.482-1.772,2.708-3.588,4.163-5.41
		c0.682-0.857,1.806-1.953,2.081-2.81c0.287-0.894,0.357-1.912,0.572-2.914c1.244-5.762,2.327-11.51,3.434-17.482
		c0.184-0.992,0.288-2.109,0.625-2.809c0.245-0.508,0.786-0.967,1.196-1.51c0.385-0.508,0.802-1.002,1.197-1.508
		c0.807-1.035,1.596-2.477,2.446-3.017C62.384,0.038,62.483-0.056,62.735,0.061z"/>
	<path style="fill-rule:evenodd;clip-rule:evenodd;" d="M65.544,0.114c0.112,0.797-0.589,1.207-0.937,1.717
		c-0.536,0.793-1.173,1.551-1.77,2.34c-0.594,0.787-1.359,1.539-1.769,2.342c-0.323,0.635-0.5,1.943-0.677,2.861
		c-0.894,4.66-1.9,9.408-2.757,14.102c-0.171,0.939-0.285,1.971-0.417,2.965c-0.127,0.965-0.225,2.029-0.52,2.811
		c-0.197,0.518-0.609,0.904-1.041,1.404c-0.379,0.439-0.708,0.976-1.041,1.404c-0.746,0.961-1.382,1.832-2.133,2.707
		c-1.094,1.273-2.12,2.773-3.174,4.162c-0.365,0.481-0.903,0.912-1.093,1.457c-0.17,0.486-0.241,1.121-0.364,1.717
		c-0.815,3.922-1.685,8.1-2.445,12.07c-0.644,3.365-1.319,6.969-1.977,10.459c-0.106,0.561-0.26,1.139-0.364,1.717
		c-0.109,0.604-0.157,1.189-0.364,1.664c-0.267,0.611-0.839,1.186-1.301,1.77c-0.901,1.141-1.782,2.242-2.706,3.383
		c-0.406,0.5-0.777,1.383-1.665,1.248c-0.173-0.754,0.543-1.232,0.937-1.717c0.828-1.018,1.619-2.105,2.498-3.174
		c0.43-0.523,0.962-1.078,1.197-1.613c0.401-0.916,0.478-2.268,0.728-3.434c0.729-3.398,1.345-6.953,1.977-10.356
		c0.639-3.43,1.375-6.883,2.029-10.354c0.221-1.17,0.379-2.373,0.677-3.434c0.122-0.435,0.717-1.045,1.092-1.51
		c1.862-2.297,3.478-4.6,5.359-6.867c0.329-0.396,0.729-0.885,1.092-1.354c0.379-0.486,0.822-0.979,0.989-1.404
		c0.244-0.621,0.255-1.439,0.416-2.186c0.157-0.727,0.291-1.467,0.416-2.185c0.259-1.483,0.742-2.934,0.885-4.318
		c0.361-3.498,1.231-7.055,1.873-10.51c0.214-1.15,0.352-2.432,0.728-3.383c0.207-0.52,0.696-1.148,1.145-1.717
		c0.854-1.08,1.632-2.103,2.497-3.225C64.065,1.028,64.651-0.218,65.544,0.114z"/>
	<path style="fill-rule:evenodd;clip-rule:evenodd;" d="M68.198,0.165c-0.044,0.674-0.575,1.176-0.937,1.666
		c-0.76,1.029-1.553,1.975-2.342,3.068c-0.384,0.533-0.893,1.006-1.144,1.562c-0.358,0.791-0.456,1.818-0.624,2.809
		c-0.476,2.814-1.178,5.764-1.717,8.533c-0.544,2.799-0.994,5.729-1.665,8.637c-0.23,1-0.217,2.039-0.521,2.861
		c-0.165,0.447-0.672,0.926-1.041,1.406c-0.368,0.479-0.684,1-0.989,1.457c-0.66,0.986-1.446,1.826-2.133,2.705
		c-0.695,0.889-1.325,1.82-2.082,2.758c-0.703,0.871-1.687,1.775-2.081,2.758c-0.39,0.971-0.544,2.264-0.728,3.434
		c-0.181,1.146-0.48,2.324-0.676,3.434c-0.412,2.318-0.876,4.664-1.353,6.867c-0.729,3.371-1.377,6.873-2.029,10.356
		c-0.105,0.557-0.263,1.146-0.364,1.717c-0.106,0.588-0.128,1.227-0.312,1.717c-0.268,0.711-0.884,1.205-1.353,1.77
		c-0.473,0.568-0.84,1.184-1.353,1.768c-0.416,0.527-0.885,1.178-1.352,1.77c-0.41,0.518-0.931,1.41-1.769,1.145
		c-0.162-0.705,0.596-1.154,0.989-1.664c0.414-0.537,0.774-1.152,1.249-1.561c0.589-1.234,1.871-1.998,2.393-3.279
		c0.202-0.494,0.267-1.115,0.365-1.717c0.264-1.631,0.59-3.414,0.988-5.15c1.417-6.184,2.465-12.404,3.746-18.836
		c0.115-0.576,0.176-1.225,0.364-1.664c0.206-0.479,0.683-0.916,1.041-1.406c1.728-2.363,3.613-4.519,5.359-6.867
		c0.316-0.426,0.736-0.893,1.041-1.404c0.311-0.523,0.768-1.043,0.937-1.51c0.297-0.822,0.354-1.889,0.572-2.861
		c0.626-2.789,1.123-5.699,1.665-8.48c0.546-2.801,1.131-5.758,1.613-8.586c0.162-0.949,0.346-2.141,0.625-2.861
		c0.457-1.184,1.509-2.185,2.394-3.277c0.435-0.537,0.783-1.072,1.196-1.613C66.616,1.036,67.399-0.339,68.198,0.165z"/>
	<path style="fill-rule:evenodd;clip-rule:evenodd;" d="M70.747,0.061c0.178,0.689-0.481,1.258-0.833,1.717
		c-0.391,0.512-0.819,1.02-1.196,1.51c-0.775,1.008-1.728,2.025-2.289,3.121c-0.408,0.795-0.564,2.166-0.781,3.277
		c-1.071,5.502-2.086,11.18-3.277,16.754c-0.204,0.953-0.201,2.016-0.521,2.861c-0.359,0.951-1.407,1.883-2.133,2.863
		c-0.72,0.971-1.567,1.879-2.185,2.809c-1.448,2.176-2.963,3.803-4.214,5.775c-1.357,6.557-2.654,13.717-4.059,20.553
		c-0.225,1.096-0.414,2.285-0.676,3.434c-0.249,1.09-0.28,2.453-0.676,3.383c-0.232,0.541-0.844,1.16-1.301,1.715
		c-0.947,1.152-1.72,2.16-2.654,3.332c-0.396,0.496-0.831,1.303-1.613,1.248c-0.162-0.705,0.515-1.268,0.885-1.717
		c0.838-1.021,1.558-2.006,2.445-3.07c0.413-0.494,0.93-1.08,1.145-1.613c0.399-0.992,0.458-2.291,0.729-3.434
		c0.275-1.162,0.415-2.363,0.676-3.486c0.533-2.291,0.911-4.678,1.353-6.92c0.773-3.926,1.613-8.07,2.394-12.123
		c0.117-0.609,0.127-1.268,0.312-1.717c0.179-0.435,0.718-0.914,1.092-1.404c1.787-2.348,3.48-4.641,5.307-7.025
		c0.646-0.842,1.698-1.848,2.081-2.861c0.315-0.834,0.366-1.885,0.572-2.861c1.202-5.674,2.163-11.355,3.278-17.066
		c0.186-0.951,0.238-2.049,0.572-2.809c0.233-0.533,0.802-1.098,1.196-1.613c0.414-0.541,0.926-0.984,1.249-1.561
		C68.401,2.633,69.485-0.185,70.747,0.061z"/>
	<path style="fill-rule:evenodd;clip-rule:evenodd;" d="M83.859,0.165c0.017,0.691-0.591,1.186-0.936,1.666
		c-0.775,1.076-1.49,1.978-2.289,3.121c-0.37,0.529-0.9,1.027-1.145,1.56c-0.34,0.744-0.438,1.846-0.625,2.811
		c-0.191,0.992-0.411,1.98-0.572,2.861c-0.724,3.947-1.509,7.572-2.237,11.498c-0.174,0.941-0.304,1.955-0.52,2.914
		c-0.224,0.986-0.22,2.029-0.521,2.861c-0.18,0.496-0.812,1.041-1.249,1.613c-1.235,1.615-2.609,3.207-3.746,4.787
		c-0.812,1.127-1.659,2.186-2.498,3.174c-1.748,2.062-3.248,4.264-4.994,6.348c-0.875,1.045-1.719,2.107-2.498,3.174
		c-0.793,1.088-1.71,2.086-2.497,3.174c-0.592,0.818-1.092,1.701-1.769,2.498c-0.178,0.209-0.409,0.613-0.781,0.52
		c0.011-1.959,1.332-2.613,2.029-3.693c0.161-0.25,0.234-0.566,0.417-0.834c0.299-0.438,0.746-0.795,1.092-1.248
		c2.317-3.027,4.854-6.129,7.181-9.209c1.889-2.502,4.177-5.242,6.191-7.857c0.664-0.861,1.559-1.809,1.977-2.652
		c0.322-0.648,0.436-2.02,0.625-2.967c0.98-4.895,1.76-9.357,2.705-14.309c0.171-0.894,0.404-1.842,0.572-2.809
		c0.167-0.957,0.277-1.955,0.625-2.758c0.479-1.109,1.49-2.051,2.394-3.227c0.379-0.492,0.765-1.031,1.196-1.613
		C82.408,1.001,83.103-0.357,83.859,0.165z"/>
	<path style="fill-rule:evenodd;clip-rule:evenodd;" d="M23.556,0.217c-0.028,0.81-0.785,1.326-1.197,1.924
		c-0.456,0.604-0.898,1.219-1.405,1.77c-1.864,2.385-3.62,4.879-5.567,7.182c-0.403,0.631-0.841,1.262-1.301,1.873
		c-0.441,0.584-0.732,1.41-1.509,1.664c-0.186-1.533,1.114-2.297,1.873-3.434c0.458-0.688,0.826-1.281,1.405-1.978
		c2.029-2.438,3.919-5.137,5.879-7.699C22.16,0.961,22.808-0.248,23.556,0.217z"/>
	<path style="fill-rule:evenodd;clip-rule:evenodd;" d="M28.811,0.165c0.008,0.518-0.394,0.961-0.677,1.354
		c-0.828,1.146-1.792,2.262-2.653,3.434c-1.139,1.549-2.37,3.062-3.538,4.578c-2.353,3.055-4.735,6.074-7.128,9.105
		c-0.817,1.459-1.993,2.777-3.018,4.111c-0.266,0.346-0.472,0.851-0.936,0.935c-0.353-0.676,0.188-1.312,0.52-1.768
		c1.067-1.467,2.287-2.863,3.278-4.424c0.631-0.992,1.474-1.957,2.237-2.914c3-3.758,5.924-7.656,9.001-11.551
		c0.782-0.988,1.475-2.111,2.29-2.861C28.27,0.002,28.723,0.026,28.811,0.165z"/>
	<path style="fill-rule:evenodd;clip-rule:evenodd;" d="M34.17,0.165c-0.229,0.986-0.941,1.488-1.457,2.186
		c-1.525,2.1-3.095,4.154-4.683,6.191c-3.19,4.004-6.216,8.246-9.521,12.228c-1.652,1.99-3.071,4.174-4.63,6.242
		c-1.351,1.793-2.637,3.643-4.111,5.412c-0.167,0.201-0.385,0.582-0.728,0.52c-0.024-1.402,0.866-2.148,1.665-3.174
		c1.503-1.93,3.073-4.041,4.474-5.982c1.985-2.752,4.094-5.369,6.088-7.91c2.068-2.635,4.13-5.244,6.14-7.855
		c2.034-2.645,3.96-5.334,6.087-7.858C33.622,0.04,34.052-0.001,34.17,0.165z"/>
	<path style="fill-rule:evenodd;clip-rule:evenodd;" d="M36.771,0.217c-0.32,1.066-1.106,1.668-1.664,2.498
		c-2.237,2.889-4.417,5.863-6.712,8.74c-2.297,2.877-4.378,5.916-6.712,8.74c-2.331,2.82-4.565,5.766-6.764,8.689
		c-0.285,0.379-0.494,0.809-0.781,1.197c-1.596,2.158-3.321,4.379-4.995,6.557c-0.237,0.309-0.469,0.865-0.989,0.832
		c-0.037-1.541,0.874-2.223,1.821-3.434c0.616-0.789,1.255-1.561,1.769-2.238c1.205-1.588,2.28-3.195,3.382-4.631
		c2.259-2.939,4.65-6.137,6.972-9.053c4.164-5.232,8.088-10.428,12.279-15.766C35.022,1.53,35.816-0.265,36.771,0.217z"/>
	<path style="fill-rule:evenodd;clip-rule:evenodd;" d="M49.623,0.061c0.499,0.621-0.506,1.211-0.78,1.717
		c-0.398,0.574-0.865,1.078-1.249,1.666c-0.765,1.168-1.974,2.082-2.445,3.328c-0.307,0.814-0.349,1.883-0.52,2.863
		c-0.816,4.666-1.955,9.223-2.758,13.996c-0.151,0.895-0.336,1.856-0.521,2.809c-0.183,0.943-0.207,2.02-0.52,2.811
		c-0.182,0.461-0.682,0.902-1.093,1.404c-0.398,0.486-0.725,1.029-1.041,1.457c-0.697,0.945-1.533,1.797-2.237,2.705
		c-0.693,0.893-1.431,1.867-2.133,2.811c-0.667,0.895-1.702,1.922-2.081,2.861c-0.388,0.961-0.544,2.242-0.729,3.381
		c-0.551,3.398-1.399,6.955-2.029,10.303c-0.411,2.182-0.733,4.592-1.301,6.92c-0.269,1.102-0.423,2.281-0.676,3.434
		c-0.25,1.137-0.304,2.379-0.676,3.383c-0.232,0.625-0.832,1.213-1.301,1.82c-0.94,1.215-1.824,2.266-2.758,3.486
		c-0.408,0.533-0.867,1.467-1.717,1.197c-0.064-0.725,0.599-1.228,0.988-1.717c0.412-0.518,0.853-1.01,1.249-1.561
		c0.773-1.08,1.922-2.051,2.393-3.227c0.379-0.947,0.5-2.316,0.729-3.383c0.727-3.381,1.322-6.92,1.978-10.25
		c0.65-3.303,1.32-6.875,1.977-10.301c0.219-1.146,0.303-2.412,0.676-3.383c0.381-0.992,1.386-1.795,2.133-2.809
		c1.774-2.41,3.561-4.529,5.359-6.973c0.382-0.52,0.848-0.928,1.041-1.404c0.341-0.846,0.354-1.857,0.572-2.863
		c1.027-4.736,1.981-9.414,2.809-14.307c0.154-0.906,0.409-1.891,0.573-2.863c0.163-0.967,0.301-1.996,0.624-2.758
		c0.469-1.102,1.539-2.197,2.446-3.328c0.435-0.543,0.839-1.051,1.249-1.613C48.278,1.09,48.787,0.069,49.623,0.061z"/>
	<path style="fill-rule:evenodd;clip-rule:evenodd;" d="M55.086,0.165c0.002,0.701-0.55,1.223-0.937,1.717
		c-0.401,0.514-0.801,1.055-1.197,1.562c-0.793,1.014-1.772,2.021-2.341,3.172c-0.334,0.676-0.491,1.943-0.677,2.914
		c-0.903,4.74-1.937,9.41-2.81,14.205c-0.167,0.914-0.36,1.908-0.572,2.861c-0.22,0.99-0.233,2-0.572,2.811
		c-0.394,0.939-1.358,1.916-2.081,2.861c-1.426,1.863-2.879,3.576-4.319,5.516c-0.631,0.85-1.729,1.9-2.081,2.809
		c-0.381,0.986-0.459,2.279-0.676,3.434c-0.636,3.379-1.405,6.975-2.029,10.303c-0.631,3.359-1.265,6.848-1.977,10.353
		c-0.234,1.15-0.334,2.424-0.729,3.383c-0.239,0.58-0.899,1.141-1.353,1.717c-0.936,1.191-1.754,2.283-2.706,3.434
		c-0.404,0.49-0.775,1.383-1.665,1.248c-0.185-0.727,0.545-1.27,0.936-1.768c0.44-0.562,0.887-1.107,1.301-1.613
		c0.387-0.518,0.8-1.092,1.248-1.666c0.419-0.535,0.995-1.025,1.249-1.611c0.398-0.92,0.511-2.258,0.729-3.383
		c1.126-5.822,2.18-11.418,3.33-17.223c0.213-1.074,0.499-2.258,0.676-3.434c0.177-1.172,0.286-2.463,0.676-3.434
		c0.194-0.482,0.651-0.916,1.04-1.404c1.816-2.275,3.452-4.43,5.255-6.713c0.714-0.904,1.61-1.85,2.029-2.758
		c0.339-0.734,0.455-2.039,0.676-3.068c1.012-4.713,1.895-9.408,2.757-14.258c0.16-0.898,0.423-1.859,0.573-2.809
		c0.151-0.963,0.259-2.008,0.572-2.811c0.202-0.516,0.771-1.082,1.197-1.664c0.806-1.104,1.567-2.092,2.445-3.227
		C53.572,0.956,54.221-0.234,55.086,0.165z"/>
	<path style="fill-rule:evenodd;clip-rule:evenodd;" d="M73.505,0.114c0.102,0.771-0.561,1.232-0.938,1.717
		c-0.797,1.025-1.606,2.016-2.393,3.121c-0.385,0.541-0.845,1.103-1.093,1.664c-0.355,0.805-0.443,1.828-0.625,2.811
		c-0.874,4.742-1.918,9.422-2.81,14.205c-0.168,0.902-0.327,1.9-0.52,2.861c-0.192,0.959-0.277,2.031-0.572,2.809
		c-0.282,0.744-1.11,1.58-1.718,2.342c-1.284,1.611-2.399,2.898-3.59,4.527c-0.599,0.82-1.278,1.529-1.769,2.236
		c-0.262,0.379-0.387,0.816-0.676,1.197c-0.271,0.355-0.53,0.688-0.728,1.092c-0.818,4.371-1.703,8.842-2.653,13.477
		c-0.675,3.295-1.381,6.758-1.977,10.146c-0.092,0.523-0.258,1.082-0.365,1.664c-0.104,0.568-0.131,1.213-0.312,1.666
		c-0.186,0.461-0.666,0.926-1.041,1.404c-1.014,1.291-2.179,2.766-3.226,3.953c-0.498,0.496-0.7,1.549-1.665,1.406
		c-0.104-0.639,0.544-1.275,0.937-1.769c0.845-1.066,1.739-2.084,2.601-3.227c0.411-0.543,1.064-1.191,1.249-1.768
		c0.337-1.051,0.458-2.266,0.676-3.436c0.209-1.113,0.476-2.248,0.728-3.381c0.496-2.225,0.744-4.578,1.301-6.869
		c0.525-2.162,0.946-4.539,1.353-6.867c0.182-1.041,0.516-2.219,0.729-3.383c0.213-1.166,0.29-2.494,0.677-3.381
		c0.201-0.463,0.683-0.939,1.04-1.404c1.007-1.31,2.045-2.793,3.07-4.111c1.021-1.312,2.07-2.703,3.174-4.059
		c0.368-0.451,0.814-0.977,0.988-1.404c0.324-0.793,0.408-1.855,0.625-2.811c0.64-2.83,1.13-5.848,1.664-8.637
		c0.544-2.836,1.142-5.711,1.665-8.637c0.171-0.953,0.274-2.066,0.572-2.809c0.199-0.496,0.852-1.057,1.249-1.613
		c0.779-1.096,1.571-2.096,2.394-3.227C71.946,1.047,72.644-0.142,73.505,0.114z"/>
	<path style="fill-rule:evenodd;clip-rule:evenodd;" d="M76.107,0.165c-0.023,0.709-0.612,1.201-0.989,1.717
		c-0.783,1.074-1.595,2.061-2.445,3.174c-0.396,0.52-0.909,1.082-1.145,1.613c-0.463,1.045-0.477,2.439-0.728,3.695
		c-0.151,0.752-0.384,1.488-0.521,2.289c-0.65,3.824-1.53,7.725-2.237,11.602c-0.141,0.775-0.299,1.531-0.468,2.289
		c-0.227,1.018-0.186,2.162-0.572,2.967c-0.253,0.525-0.791,0.994-1.197,1.51c-1.199,1.519-2.331,3.027-3.538,4.525
		c-1.112,1.561-2.383,3.023-3.538,4.578c-0.357,0.482-0.612,1.219-1.301,1.354c-0.204-1.482,1.15-2.275,1.769-3.277
		c1.703-2.272,3.345-4.293,5.15-6.607c0.517-0.662,1.348-1.488,1.665-2.238c0.322-0.76,0.426-1.857,0.625-2.811
		c0.197-0.943,0.365-1.951,0.52-2.861c0.665-3.894,1.411-7.471,2.185-11.445c0.17-0.873,0.37-1.867,0.572-2.811
		c0.196-0.912,0.256-2.064,0.572-2.811c0.219-0.512,0.762-1.113,1.197-1.664c0.841-1.063,1.665-2.121,2.497-3.227
		C74.62,1.143,75.253-0.146,76.107,0.165z"/>
	<path style="fill-rule:evenodd;clip-rule:evenodd;" d="M78.707,0.165c0.046,0.748-0.619,1.199-0.988,1.717
		c-0.756,1.061-1.669,2.057-2.445,3.174c-0.373,0.537-0.863,1.094-1.093,1.666c-0.312,0.779-0.451,1.842-0.624,2.809
		c-1.161,6.49-2.711,13.467-3.851,19.928c-0.953,1.459-2.068,2.816-3.174,4.164c-2.194,2.672-4.341,5.438-6.452,8.221
		c-0.779,1.027-1.588,2.016-2.393,3.068c-0.247,0.324-0.464,0.781-0.885,0.938c-0.278-1.41,0.742-2.342,1.405-3.227
		c1.42-1.893,3.022-3.836,4.422-5.723c1.401-1.891,3-3.707,4.475-5.672c0.476-0.633,1.164-1.338,1.405-1.926
		c0.328-0.797,0.357-1.883,0.572-2.861c0.207-0.943,0.403-1.912,0.572-2.809c0.893-4.738,1.826-9.355,2.758-14.205
		c0.186-0.965,0.265-2.059,0.572-2.811c0.228-0.555,0.825-1.092,1.249-1.664c0.808-1.092,1.637-2.166,2.497-3.277
		C77.141,1.143,77.826-0.242,78.707,0.165z"/>
	<path style="fill-rule:evenodd;clip-rule:evenodd;" d="M81.309,0.217c-0.02,0.73-0.653,1.154-1.04,1.664
		c-0.776,1.023-1.513,1.99-2.29,3.07C77.63,5.436,77,6.092,76.834,6.616c-0.282,0.894-0.369,1.863-0.572,2.863
		c-0.934,4.59-1.944,9.455-2.81,14.256c-0.17,0.943-0.316,1.949-0.52,2.914c-0.204,0.963-0.269,2.01-0.573,2.809
		c-0.283,0.744-1.226,1.732-1.82,2.445c-1.916,2.303-3.903,4.836-5.62,7.129c-1.246,1.664-2.588,3.16-3.798,4.734
		c-1.223,1.592-2.466,3.145-3.746,4.734c-0.316,0.709-0.793,1.529-1.457,1.717c-0.165-1.164,0.513-1.594,1.093-2.445
		c1.982-2.91,4.341-5.623,6.504-8.48c1.163-1.537,2.456-3.174,3.798-4.787c0.311-0.371,0.598-0.828,0.937-1.248
		c0.316-0.392,0.707-0.744,0.989-1.145c0.615-0.873,1.521-1.719,1.873-2.549c0.343-0.814,0.446-1.869,0.624-2.863
		c0.862-4.82,1.792-9.592,2.758-14.463c0.186-0.936,0.42-1.897,0.572-2.863c0.158-1.002,0.257-2.162,0.624-2.965
		c0.238-0.52,0.782-1.068,1.197-1.613c0.826-1.088,1.559-2.062,2.445-3.174C79.781,1.059,80.42-0.347,81.309,0.217z"/>
	<path style="fill-rule:evenodd;clip-rule:evenodd;" d="M39.165,0.217c0.022,0.705-0.609,1.166-0.989,1.664
		c-0.398,0.523-0.75,1.109-1.197,1.562c-0.45,0.475-0.762,1.065-1.144,1.611c-0.383,0.549-0.904,1.025-1.145,1.613
		c-0.315,0.771-0.396,1.852-0.573,2.811c-0.503,2.728-1.089,5.629-1.612,8.428c-0.339,1.811-0.808,3.715-1.093,5.619
		c-0.204,1.363-0.535,2.852-0.781,4.267c-0.253,1.461-0.515,1.832-1.353,2.809c-1.95,2.275-3.543,4.66-5.463,7.025
		c-0.337,0.414-0.729,0.912-1.093,1.404c-0.349,0.473-0.835,0.955-1.041,1.404c-0.387,0.85-0.528,2.322-0.728,3.383
		c-0.634,3.359-1.381,6.998-2.029,10.301c-0.667,3.4-1.277,6.863-1.977,10.356c-0.111,0.553-0.274,1.131-0.364,1.717
		c-0.098,0.627-0.16,1.299-0.364,1.768c-0.248,0.568-0.839,1.148-1.301,1.77c-0.897,1.209-1.72,2.303-2.654,3.486
		c-0.403,0.512-0.829,1.418-1.665,1.248c-0.164-0.672,0.479-1.277,0.884-1.768c0.854-1.033,1.685-2.07,2.55-3.174
		c0.412-0.525,0.867-1.176,1.092-1.77c0.388-1.021,0.407-2.271,0.676-3.434c1.32-5.693,2.269-11.332,3.382-17.17
		c0.206-1.078,0.472-2.268,0.677-3.436c0.203-1.154,0.287-2.463,0.676-3.381c0.203-0.478,0.7-0.924,1.093-1.404
		c1.078-1.32,2.133-2.873,3.226-4.162c0.731-0.863,1.464-1.816,2.185-2.758c0.728-0.951,1.858-2.018,2.185-3.123
		c0.257-0.869,0.383-1.873,0.572-2.808c0.57-2.815,1.091-5.619,1.613-8.377c0.341-1.801,0.714-3.668,1.041-5.619
		c0.144-0.861,0.425-1.826,0.572-2.758c0.15-0.955,0.267-2.012,0.572-2.758c0.226-0.553,0.756-1.045,1.197-1.613
		c0.809-1.043,1.586-2.131,2.393-3.227C37.655,1.092,38.341-0.115,39.165,0.217z"/>
	<path style="fill-rule:evenodd;clip-rule:evenodd;" d="M81.413,6.409c0.539,0.307,0.242,0.893,0.156,1.301
		c-1.101,5.242-2.047,10.758-3.07,16.182c-0.174,0.924-0.351,1.93-0.572,2.914c-0.222,0.986-0.261,2.076-0.572,2.912
		c-0.169,0.455-0.603,0.975-0.988,1.51c-1.019,1.412-2.269,2.816-3.278,4.162c-0.73,0.975-1.475,1.896-2.185,2.811
		c-3.575,4.602-7.388,9.234-10.927,13.893c-1.688,2.16-3.295,4.404-4.995,6.607c-0.215,0.279-0.464,0.719-0.884,0.728
		c-0.138-1.476,0.794-2.051,1.509-3.07c1.245-1.775,2.686-3.713,4.006-5.359c3.775-4.711,7.217-9.287,11.03-14.049
		c1.294-1.615,2.762-3.498,4.11-5.254c0.498-0.648,1.146-1.238,1.405-1.873c0.333-0.814,0.4-1.941,0.624-2.967
		c1.089-4.986,1.873-9.939,2.862-15.088c0.177-0.926,0.449-1.969,0.624-2.967C80.415,7.961,80.324,6.454,81.413,6.409z"/>
	<path style="fill-rule:evenodd;clip-rule:evenodd;" d="M30.84,10.155c0.838,0.297-0.417,1.924-0.572,2.185
		c-0.587,0.524-0.95,1.27-1.509,1.82c-4.123,5.365-8.383,10.986-12.695,16.441c-0.839,1.062-1.562,2.258-2.445,3.383
		c-1.217,1.551-2.458,3.338-3.746,4.994c-0.447,0.574-0.96,1.168-1.197,1.717c-0.417,0.969-0.492,2.231-0.728,3.486
		c-1.41,7.492-2.941,15.17-4.423,22.789c-0.088,0.455-0.02,1.291-0.832,1.25c-0.717-0.262-0.342-1.055-0.26-1.51
		c0.73-4.062,1.597-8.096,2.289-12.176c0.594-3.5,1.451-6.844,2.029-10.404c0.193-1.188,0.315-2.502,0.676-3.436
		c0.236-0.607,0.868-1.328,1.353-2.029c0.464-0.668,1.044-1.305,1.457-1.871c0.982-1.352,1.997-2.605,2.914-3.799
		c2.02-2.629,3.85-5.246,5.775-7.648c4.038-5.039,7.864-10.23,11.759-15.09C30.722,10.21,30.779,10.18,30.84,10.155z"/>
	<path style="fill-rule:evenodd;clip-rule:evenodd;" d="M30.112,14.42c0.366,0.184,0.112,1.082-0.052,1.457
		c-0.217,0.498-0.778,1.031-1.197,1.561c-4.455,5.637-8.68,11.08-13.111,16.756c-0.761,0.973-1.46,2.119-2.29,3.172
		c-0.369,0.471-0.771,1.023-1.145,1.562c-0.405,0.584-0.995,1.106-1.197,1.664c-0.361,0.998-0.531,2.225-0.729,3.383
		c-0.58,3.408-1.406,6.836-2.029,10.25c-0.616,3.377-1.306,6.891-1.977,10.353c-0.22,1.139-0.256,2.438-0.624,3.434
		c-0.247,0.668-0.9,1.189-1.353,1.77c-0.465,0.594-0.896,1.143-1.352,1.717c-0.381,0.557-0.912,1.143-1.405,1.717
		c-0.435,0.508-0.758,1.482-1.613,1.248c-0.221-0.699,0.585-1.197,0.937-1.664c0.564-0.756,1.185-1.547,1.821-2.342
		c0.606-0.756,1.422-1.553,1.769-2.393c0.401-0.973,0.461-2.248,0.728-3.383c0.265-1.125,0.379-2.318,0.624-3.434
		c1.24-5.639,2.184-11.363,3.33-17.117c0.236-1.184,0.29-2.416,0.676-3.383c0.238-0.596,0.751-1.144,1.197-1.717
		c1.248-1.602,2.621-3.232,3.642-4.994c5.141-6.412,10.026-13.076,15.141-19.512c0.038-0.049,0.094-0.08,0.156-0.106
		C30.077,14.42,30.094,14.42,30.112,14.42z"/>
	<path style="fill-rule:evenodd;clip-rule:evenodd;" d="M28.967,19.52c0.712,0.078,0.012,1.363-0.156,1.613
		c-0.959,1.426-2.1,2.689-3.018,3.85c-1.417,1.793-2.731,3.523-4.058,5.152c-1.348,1.652-2.591,3.498-4.006,5.203
		c-1.021,1.229-2.125,2.477-3.018,3.902c-0.294,0.467-0.714,0.971-0.885,1.404c-0.195,0.492-0.232,1.131-0.364,1.717
		c-0.852,3.775-1.64,8.076-2.341,11.914c-0.612,3.352-1.212,6.85-1.925,10.355c-0.109,0.533-0.278,1.092-0.364,1.664
		c-0.092,0.605-0.12,1.262-0.312,1.717c-0.245,0.582-0.896,1.168-1.353,1.77c-0.938,1.234-1.78,2.268-2.758,3.486
		c-0.416,0.517-0.89,1.482-1.717,1.195c-0.065-0.762,0.617-1.229,0.988-1.717c0.802-1.049,1.61-2.01,2.498-3.121
		c0.423-0.531,0.972-1.043,1.197-1.613c0.381-0.963,0.433-2.344,0.676-3.486c0.723-3.395,1.326-6.924,1.977-10.406
		c0.637-3.408,1.377-6.863,2.029-10.354c0.205-1.096,0.261-2.523,0.677-3.434c0.457-1.002,1.654-1.715,1.977-2.861
		C19.577,31.602,24.095,25.383,28.967,19.52z"/>
	<path style="fill-rule:evenodd;clip-rule:evenodd;" d="M28.239,23.788c0.451,0.266,0.101,1.021-0.052,1.352
		c-0.192,0.416-0.525,0.734-0.78,1.041c-1.645,1.977-3.111,4.125-4.735,6.139c-2.172,2.693-4.354,5.432-6.348,8.17
		c-1.036,4.287-1.816,8.984-2.654,13.787c-0.199,1.143-0.452,2.275-0.676,3.436c-0.451,2.328-0.831,4.521-1.352,6.867
		c-0.253,1.137-0.224,2.541-0.625,3.486c-0.229,0.541-0.893,1.201-1.353,1.768c-0.977,1.209-1.768,2.217-2.706,3.436
		c-0.398,0.517-0.849,1.486-1.717,1.144c-0.092-0.789,0.711-1.125,1.04-1.666c0.417-0.52,0.823-1.049,1.249-1.561
		c0.579-1.242,2.011-2.014,2.394-3.227c0.284-0.896,0.361-1.914,0.572-2.912c0.603-2.85,1.244-5.738,1.769-8.637
		c0.361-1.994,0.779-3.957,1.093-5.881c0.322-1.971,0.867-3.879,1.144-5.775c0.116-0.789,0.129-1.52,0.26-2.236
		c0.124-0.676,0.17-1.434,0.416-2.082c0.271-0.717,0.995-1.443,1.561-2.133c1.619-1.973,3.292-4.248,4.839-6.139
		c0.555-0.68,1.035-1.42,1.613-2.082c1.149-1.314,2.133-2.697,3.226-4.109c0.577-0.746,1.168-1.523,1.769-2.185
		C28.204,23.788,28.221,23.788,28.239,23.788z"/>
	<path style="fill-rule:evenodd;clip-rule:evenodd;" d="M27.406,28.469c0.437,0.227,0.133,0.729,0.052,0.938
		c-0.128,0.326-0.338,0.553-0.52,0.779c-1.958,2.437-3.74,4.736-5.671,7.336c-0.737,0.994-1.759,1.896-2.237,2.967
		c-0.368,0.822-0.435,1.924-0.624,2.965c-0.519,2.852-1.209,6.023-1.769,8.846c-0.978,4.936-1.744,9.068-2.549,13.893
		c-0.108,0.648-0.145,1.41-0.364,1.926c-0.276,0.646-0.955,1.133-1.405,1.715c-0.473,0.611-0.77,1.248-1.301,1.77
		c-0.434,0.518-0.92,1.129-1.405,1.717c-0.42,0.512-0.851,1.395-1.717,1.145c-0.23-0.766,0.692-1.189,0.988-1.768
		c0.683-0.762,1.284-1.596,1.925-2.498c0.593-0.836,1.524-1.57,1.873-2.498c0.24-0.639,0.253-1.467,0.416-2.236
		c0.302-1.428,0.558-2.873,0.885-4.371c0.529-2.424,0.796-5.098,1.352-7.596c0.63-2.83,1.115-5.691,1.665-8.637
		c0.134-0.719,0.277-1.457,0.417-2.186c0.141-0.736,0.172-1.539,0.416-2.135c0.205-0.498,0.752-1.053,1.145-1.56
		c2.768-3.572,5.424-6.928,8.221-10.406c0.039-0.047,0.095-0.078,0.156-0.104C27.371,28.469,27.388,28.469,27.406,28.469z"/>
	<path style="fill-rule:evenodd;clip-rule:evenodd;" d="M66.793,46.733c-0.757,1.1-1.619,2.113-2.446,3.174
		c-0.817,1.047-1.611,2.139-2.445,3.174c-2.56,3.178-4.944,6.438-7.492,9.625c-0.303,0.27-0.47,0.951-0.937,0.885
		c-0.506-0.693,0.132-1.434,0.468-1.873c0.799-1.047,1.551-1.988,2.393-3.018c0.434-0.531,0.711-1.057,1.093-1.613
		c0.704-1.025,1.618-1.979,2.393-3.018c2.262-3.031,4.69-6.053,7.076-9.053c2.704-3.402,5.444-7.127,8.272-10.562
		c0.424-0.516,0.766-1.121,1.197-1.51c0.702-0.459,0.368,0.863,0.26,1.145c-0.204,0.531-0.715,1.121-1.145,1.666
		C72.735,39.229,69.449,43.508,66.793,46.733z"/>
	<path style="fill-rule:evenodd;clip-rule:evenodd;" d="M75.638,37.731c0.035,0,0.069,0,0.104,0
		c0.232,1.184-0.407,1.742-1.093,2.654c-1.103,1.463-2.37,2.949-3.435,4.369c-0.364,0.486-0.828,0.912-1.196,1.406
		c-2.57,3.447-5.292,6.752-7.961,10.197c-1.124,1.451-2.25,2.906-3.434,4.371c-0.377,0.465-0.866,0.875-1.196,1.352
		c-0.208,0.301-0.306,0.645-0.521,0.938c-1.351,1.836-2.914,3.734-4.371,5.566c-1.262,1.588-2.523,3.154-3.746,4.84
		c-0.321,0.443-0.849,1.277-1.613,0.885c-0.031-0.736,0.647-1.223,1.041-1.719c0.422-0.531,0.81-1.084,1.249-1.561
		c2.447-3.225,4.92-6.422,7.493-9.521c1.336-2.123,3.018-4.004,4.526-6.035c1.47-1.979,3.068-3.916,4.631-5.879
		c2.66-3.342,5.484-6.775,8.169-10.303c0.412-0.541,0.779-1.135,1.196-1.457C75.52,37.786,75.576,37.756,75.638,37.731z"/>
	<path style="fill-rule:evenodd;clip-rule:evenodd;" d="M74.753,42.309c0.042,0.01,0.052,0.053,0.104,0.053
		c0.18,1.434-0.984,2.324-1.718,3.227c-0.773,0.951-1.44,1.988-2.236,2.861c-3.428,4.236-6.614,8.687-10.146,12.902
		c-0.577,0.689-1.157,1.402-1.717,2.135c-0.743,0.971-1.5,1.85-2.133,2.912c-1.596,2.137-3.332,4.279-4.995,6.453
		c-0.496,0.648-1.081,1.682-2.082,1.611c-0.093-0.836,0.76-1.512,1.249-2.133c1.55-1.967,3.147-3.943,4.683-5.983
		c3.03-4.025,6.222-7.984,9.366-12.019c2.577-3.309,5.239-6.572,7.856-9.938c0.53-0.684,1.1-1.402,1.612-1.977
		C74.635,42.366,74.692,42.335,74.753,42.309z"/>
	<path style="fill-rule:evenodd;clip-rule:evenodd;" d="M73.765,46.836c0.035,0,0.069,0,0.104,0c0.407,1.316-0.845,2.234-1.509,3.07
		c-4.988,6.273-9.969,12.822-15.036,19.043c-0.988,1.734-2.248,3.197-3.486,4.682c-0.256,0.424-0.679,1.105-1.353,0.781
		c-0.098-0.814,0.65-1.352,1.093-1.873c1.383-1.633,2.613-3.422,3.902-5.203c1.685-2.328,3.592-4.508,5.359-6.816
		c1.709-2.232,3.546-4.521,5.359-6.816c1.307-1.652,2.698-3.363,4.059-5.047c0.471-0.582,0.843-1.256,1.352-1.717
		C73.647,46.891,73.703,46.862,73.765,46.836z"/>
	<path style="fill-rule:evenodd;clip-rule:evenodd;" d="M72.88,51.467c0.625-0.018,0.103,1.225,0,1.404
		c-0.318,0.561-0.605,0.787-0.832,1.092c-3.79,5.1-8.202,10.223-11.967,15.143c-0.651,0.945-1.493,1.895-2.237,2.912
		c-0.336,0.461-0.671,1.066-1.041,1.562c-0.318,0.426-0.83,1.084-1.509,0.832c-0.254-0.664,0.512-1.086,0.78-1.561
		c2.444-3.453,5.073-6.721,7.7-9.99C66.805,59.057,69.748,55.168,72.88,51.467z"/>
	<path style="fill-rule:evenodd;clip-rule:evenodd;" d="M71.995,56.098c0.035,0,0.07,0,0.104,0c0.263,0.32,0.066,0.918-0.052,1.197
		c-0.285,0.67-1.13,1.518-1.717,2.236c-0.616,0.754-1.239,1.521-1.77,2.186c-1.171,1.465-2.483,2.957-3.486,4.371
		c-1.648,2.322-3.418,4.395-5.151,6.658c-0.496,0.648-1,1.812-2.081,1.613c-0.14-0.523,0.347-0.959,0.625-1.301
		c3.278-4.041,6.458-8.279,9.781-12.383C69.509,59.122,70.703,57.477,71.995,56.098z"/>
</g>
<g id="Layer_1">
</g>
</svg>
