<?xml version="1.0" encoding="iso-8859-1"?>
<!-- Generator: Adobe Illustrator 19.2.0, SVG Export Plug-In . SVG Version: 6.00 Build 0)  -->
<svg version="1.1" xmlns="http://www.w3.org/2000/svg" xmlns:xlink="http://www.w3.org/1999/xlink" x="0px" y="0px"
	 viewBox="0 0 62.578 76.004" style="enable-background:new 0 0 62.578 76.004;" xml:space="preserve">
<g id="Euromar_x5F_import-export">
	<path style="fill-rule:evenodd;clip-rule:evenodd;" d="M59.441,15.635c-2.541,2.605-5.14,5.154-7.673,7.77
		c-0.583,0.445-0.873,1.185-1.641,1.447c-0.327-1.756-0.001-3.867-0.193-5.742c-1.215-0.354-2.494-0.105-3.764-0.145
		c-3.844-0.121-7.53,0.111-11.581,0c-2.607-0.072-5.285-0.049-7.914-0.049c-2.629,0-5.23,0.109-7.721-0.096
		c-0.38-1.6,0.061-4.018-0.241-5.695c-0.374-0.066-0.684,0.318-0.917,0.531c-0.777,0.711-1.496,1.568-2.268,2.365
		c-2.519,2.594-5.091,5.09-7.721,7.721c-0.36,0.359-1.445,1.156-1.448,1.592c-0.003,0.375,1.199,1.393,1.448,1.641
		c3.059,3.061,6.199,6.104,9.265,9.17c0.496,0.496,0.967,1.092,1.641,1.399c0.255-0.377,0.145-0.904,0.145-1.399
		c0-1.439-0.091-3.137,0.097-4.392c8.921-0.195,17.944-0.096,27.265-0.096c1.249,0,2.519,0.141,3.715-0.098
		c0.31-1.871-0.08-4.148,0.193-6.031c0.675,0.146,1.084,0.973,1.641,1.399c3.076,3.137,6.266,6.268,9.458,9.459
		c0.311,0.312,1.244,1.072,1.254,1.447c0.012,0.416-0.913,1.137-1.254,1.496c-3.075,3.238-6.39,6.445-9.458,9.652
		c-0.521,0.445-0.954,1.23-1.592,1.398c-0.281-1.809,0.088-4.269-0.193-6.08c-1.227-0.258-2.533-0.145-3.812-0.145
		c-6.496,0-12.989,0-19.592,0c-2.585,0-5.156,0.137-7.576-0.096c-0.387-1.607,0.067-4.057-0.241-5.744
		c-0.717,0.219-1.141,0.9-1.641,1.4c-3.55,3.551-7.269,7.193-10.713,10.906c0.852,1.19,1.974,2.154,2.992,3.184
		c2.79,2.824,5.765,5.545,8.541,8.445c0.233,0.244,0.466,0.637,0.868,0.627c0.452-1.662-0.204-4.133,0.242-5.789
		c9.965-0.344,20.44,0.062,30.884-0.146c0.506-1.631-0.116-4.014,0.242-5.887c0.636,0.211,1.148,0.875,1.641,1.4
		c1.465,1.562,3.118,3.127,4.681,4.633c1.461,1.604,3.008,3.055,4.633,4.68c0.346,0.346,1.43,1.197,1.448,1.641
		c0.018,0.459-1.051,1.293-1.448,1.69c-3.169,3.168-6.104,6.297-9.265,9.459c-0.516,0.516-0.941,1.215-1.641,1.447
		c-0.31-1.717,0.147-4.201-0.241-5.84c-16.627-0.336-33.496,0.061-49.752-0.145C0.018,48.518-0.085,27.682,0.086,6.08
		c15.271-0.297,31.078-0.193,46.809-0.193c0.978,0,1.992,0.176,2.944-0.096c0.252-1.68-0.026-3.887,0.144-5.646
		C50.01,0.074,50.058,0.027,50.128,0c2.165,1.879,4.095,4.119,6.273,6.129c1.531,1.412,3.01,3.106,4.585,4.68
		c0.321,0.322,1.444,1.176,1.448,1.594c0.004,0.387-1.224,1.465-1.448,1.688C60.412,14.664,59.959,15.117,59.441,15.635z"/>
</g>
<g id="Layer_1">
</g>
</svg>
