<?xml version="1.0" encoding="iso-8859-1"?>
<!-- Generator: Adobe Illustrator 19.2.0, SVG Export Plug-In . SVG Version: 6.00 Build 0)  -->
<svg version="1.1" xmlns="http://www.w3.org/2000/svg" xmlns:xlink="http://www.w3.org/1999/xlink" x="0px" y="0px"
	 viewBox="0 0 76.538 77.239" style="enable-background:new 0 0 76.538 77.239;" xml:space="preserve">
<g id="Euroceramica">
	<path style="fill-rule:evenodd;clip-rule:evenodd;" d="M41.348,0.181c0.262,3.504,0.099,7.062,0.1,10.843
		c0,1.207-0.108,2.394-0.1,3.564c0.057,8.042,0.099,16.287,0.1,24.211c0,0.54,0.002,1.097,0,1.634
		c-0.046,8.47,0.072,17.068-0.15,25.597c-1.771,0.163-4.219,0.165-5.99,0c-0.317-19.787,0.129-40.765-0.198-60.204
		c-1.132-0.3-2.326-0.055-3.516-0.099c-3.433-0.129-7.264-0.051-10.99-0.05c-4.906,0-9.836-0.159-14.557,0.05
		c-0.272,1.157-0.185,3.168-0.05,4.406c0.674,0.262,1.434,0.148,2.179,0.148c2.19,0,4.642-0.086,6.733,0.099
		c2.82,0.248,4.843,1.344,6.535,2.574c2.491,2.193,4.449,4.757,5.001,8.714c0.613,4.4-1.15,8.02-3.268,10.298
		c-2.215,2.384-5.11,4.06-9.605,4.06c-4.113,0-8.882-0.014-13.418-0.147c-0.163-1.727-0.163-4.116,0-5.843
		c3.737-0.18,7.991-0.099,12.031-0.099c1.35,0,2.678,0.13,3.713-0.198c2.076-0.658,3.394-2.165,4.109-3.961
		c0.89-2.229,0.396-4.678-0.644-6.387c-0.781-1.02-1.941-1.993-3.268-2.476c-1.386-0.503-3.098-0.495-5-0.495
		c-3.512,0.001-7.504,0.08-10.892-0.099c-0.225-1.243-0.099-2.619-0.099-4.011c0-3.37-0.113-7.081,0-10.348
		C0.129,1.298-0.025,0.62,0.254,0.033C13.844-0.036,27.96-0.002,41.348,0.181z"/>
	<path style="fill-rule:evenodd;clip-rule:evenodd;" d="M76.4,0.281c0.01,0.04,0.05,0.049,0.05,0.099
		c0.129,10.035,0.118,20.822-0.05,31.34c-2.938,0.185-5.888,0.099-8.912,0.099c-2.935,0.001-6.225-0.251-8.069,1.089
		c-1.854,1.348-3.336,3.171-3.169,6.14c0.07,1.254,0.585,2.452,1.287,3.366c0.655,0.854,1.472,1.658,2.426,2.179
		c1.904,1.039,4.97,0.793,7.873,0.793c2.938-0.001,5.883-0.048,8.516,0.147c0.232,1.218,0.148,2.519,0.148,3.812
		c-0.001,9.274,0.012,18.476-0.148,27.726c-1.545,0.31-3.132,0.1-4.704,0.1c-11.283-0.002-22.584-0.146-33.469-0.148
		c-12.516-0.003-25.543,0.043-38.072-0.198C-0.05,71.188-0.034,65.59,0.155,60.187c2.994-0.128,6.846-0.049,10.299-0.049
		c1.906,0,3.691,0.18,5.099-0.198c1.33-0.356,2.544-0.967,3.317-1.931c1.355-1.69,2.098-4.185,1.435-6.486
		c-0.608-2.119-2.011-3.651-4.01-4.456c-2.108-0.848-5.271-0.495-7.972-0.495c-1.454,0-2.892,0-4.258,0
		c-1.397,0-2.735,0.083-3.96-0.148c-0.082-1.751-0.083-3.843,0-5.595c0.676-0.266,1.437-0.148,2.178-0.148
		c3.767,0,7.371,0.001,11.189,0c1.505,0,2.871,0.022,4.06,0.396c4.319,1.358,7.631,4.887,8.714,9.556
		c1.355,5.845-1.506,10.497-4.753,12.922c-1.773,1.324-3.74,2.389-6.485,2.624c-2.829,0.241-5.763-0.027-8.862,0.148
		c-0.342,1.172-0.214,3.097-0.1,4.456c0.01,0.04,0.05,0.049,0.05,0.099c20.441,0.215,44.188,0.3,64.61,0.247
		c0.217-1.511,0.155-3.117,0.1-4.752c-0.165-4.796,0.308-10.082-0.05-14.854c-2.823-0.386-5.688,0.018-8.269-0.148
		c-2.54-0.164-4.628-0.946-6.337-2.079c-3.289-2.182-5.971-5.635-5.941-10.893c0.015-2.649,0.81-4.723,1.882-6.535
		c1.009-1.706,2.551-3.229,4.208-4.208c1.821-1.077,3.938-1.714,6.535-1.882c2.462-0.159,5.219,0.093,7.872-0.099
		c0.268-0.744,0.149-1.597,0.149-2.377c0-5.866,0.073-11.697-0.049-17.328c-0.942-0.266-1.98-0.183-2.971-0.148
		c-3.159,0.108-6.312-0.05-9.457-0.05c-3.199,0-6.415-0.189-9.506-0.049c-0.978,0.044-1.997,0.172-2.921-0.149
		c-0.052-1.654-0.145-3.773,0.05-5.347C56.264,0.044,66.262,0.122,76.4,0.281z"/>
</g>
<g id="Layer_1">
</g>
</svg>
