<?xml version="1.0" encoding="iso-8859-1"?>
<!-- Generator: Adobe Illustrator 19.2.0, SVG Export Plug-In . SVG Version: 6.00 Build 0)  -->
<svg version="1.1" xmlns="http://www.w3.org/2000/svg" xmlns:xlink="http://www.w3.org/1999/xlink" x="0px" y="0px"
	 viewBox="0 0 72.118 74.94" style="enable-background:new 0 0 72.118 74.94;" xml:space="preserve">
<g id="Europa_x5F_Lack">
	<path style="fill-rule:evenodd;clip-rule:evenodd;" d="M37.311,34.657c-0.502-0.367-0.767-0.983-1.067-1.505
		c-0.933-1.618-1.708-3.369-2.621-5.047c-3.009-5.525-5.799-11.174-8.784-16.743c-0.26-0.484-0.577-1.018-0.922-1.65
		c-0.252-0.459-0.815-1.366-0.777-1.747c0.048-0.473,1.063-0.897,1.554-1.165c3.05-1.675,5.654-3.18,8.639-4.805
		c1.16-0.632,2.222-1.512,3.445-1.941c0.775-0.271,0.714,0.537,0.729,1.262c0.014,0.728-0.041,1.168-0.049,1.553
		C37.271,12.521,37.715,24.946,37.311,34.657z"/>
	<path style="fill-rule:evenodd;clip-rule:evenodd;" d="M20.81,8.983c4.099,6.613,8.101,13.235,12.036,20.044
		c0.965,1.669,1.94,3.328,3.009,4.999c0.36,0.563,0.785,1.126,0.874,1.796c-0.69,0.01-1.274-0.492-1.845-0.825
		c-2.82-1.643-5.598-3.485-8.444-5.193c-1.125-0.675-2.17-1.509-3.301-2.135c-2.265-1.255-4.411-2.77-6.745-4.174
		c-1.573-0.946-3.306-2.017-5.048-3.106c-0.481-0.301-1.417-0.841-1.456-1.262c-0.043-0.465,0.659-1.276,0.971-1.796
		c1.752-2.92,3.415-5.684,5.144-8.59c0.299-0.502,0.638-1.147,1.02-1.747c0.352-0.554,0.835-1.314,1.164-1.602
		c0.643-0.279,1.13,0.985,1.505,1.65C20.135,7.824,20.553,8.508,20.81,8.983z"/>
	<path style="fill-rule:evenodd;clip-rule:evenodd;" d="M4.649,19.176c1.958,0.825,4.143,2.281,5.969,3.3
		c1.964,1.095,4.023,2.031,5.922,3.252c1.283,0.825,2.684,1.425,3.98,2.136c0.647,0.355,1.254,0.837,1.893,1.213
		c0.658,0.388,1.348,0.692,1.989,1.067c0.642,0.375,1.339,0.705,1.99,1.068c2.558,1.424,5.306,2.834,7.862,4.367
		c0.63,0.378,1.413,0.584,1.845,1.214c-2.6,0.095-5.256-0.095-7.911-0.194c-5.231-0.196-10.547-0.378-15.87-0.631
		c-1.314-0.062-2.639-0.194-3.931-0.194c-1.299,0-2.6-0.002-3.835-0.291c-0.263-1.193-0.146-2.563-0.146-3.979
		c0-3.313,0-6.68,0-10.192c0-0.736-0.062-1.512,0.098-1.989C4.53,19.251,4.579,19.203,4.649,19.176z"/>
	<path style="fill-rule:evenodd;clip-rule:evenodd;" d="M71.818,38.006c0.361,1.286,0.242,2.78,0.242,4.271
		c0,3.665-0.024,7.568,0.049,11.211c0.013,0.657,0.06,1.416-0.291,1.941c-0.786-0.091-1.423-0.612-2.087-0.971
		c-1.941-1.051-3.936-2.154-5.921-3.203c-1.307-0.69-2.528-1.54-3.834-2.232c-5.888-3.124-11.768-6.47-17.569-9.755
		c-0.621-0.353-1.377-0.58-1.844-1.165c0.15-0.276,0.87-0.238,1.164-0.243C51.43,37.708,62.092,37.997,71.818,38.006z"/>
	<path style="fill-rule:evenodd;clip-rule:evenodd;" d="M35.419,38.249c-0.267,0.581-0.931,0.62-1.407,0.873
		c-0.463,0.245-0.888,0.548-1.359,0.776c-1.416,0.687-2.89,1.356-4.271,2.136c-1.85,1.044-3.807,1.868-5.679,2.863
		c-3.738,1.987-7.535,3.842-11.26,5.775c-0.537,0.261-0.999,0.507-1.602,0.825c-0.447,0.237-1.095,0.817-1.698,0.727
		c-0.455-0.066-0.998-1.153-1.262-1.601c-2.124-3.605-4.11-7.101-6.164-10.727c-0.302-0.532-1.014-1.172-0.582-1.844
		c10.945-0.111,22.375,0.05,33.196,0.049C34.03,38.104,34.755,37.987,35.419,38.249z"/>
	<path style="fill-rule:evenodd;clip-rule:evenodd;" d="M39.883,38.88c1.008,0.347,2.544,1.312,3.494,1.893
		c3.365,2.06,6.471,4.118,9.804,6.212c1.05,0.66,2.221,1.274,3.349,1.99c2.237,1.42,4.171,2.732,6.552,4.125
		c0.482,0.282,0.97,0.709,1.602,1.067c0.601,0.342,1.418,0.687,1.505,1.165c0.095,0.523-0.575,1.346-0.874,1.845
		c-1.792,2.997-3.395,5.834-5.192,8.881c-0.453,0.767-1.006,1.776-1.554,2.67c-0.154,0.251-0.361,0.719-0.631,0.728
		c-0.329,0.011-0.98-1.094-1.213-1.504c-0.394-0.692-0.658-1.16-1.02-1.699c-0.767-1.144-1.341-2.329-1.989-3.397
		c-1.018-1.675-2.091-3.312-3.058-5.047c-0.486-0.872-0.858-1.489-1.311-2.427c-0.322-0.667-0.789-1.35-1.214-2.039
		c-2.097-3.406-3.962-6.687-6.018-10.191c-0.348-0.594-0.811-1.312-1.213-2.038c-0.405-0.73-1.004-1.486-1.165-2.087
		C39.765,38.956,39.813,38.906,39.883,38.88z"/>
	<path style="fill-rule:evenodd;clip-rule:evenodd;" d="M36.292,38.929c0.44,0.123,0.085,0.571,0,0.728
		c-0.4,0.737-0.957,1.443-1.407,2.136c-4.293,6.611-8.71,13.447-13.007,20.044c-0.795,1-1.306,2.285-2.281,3.105
		c-1.04-0.223-1.884-0.889-2.766-1.407c-2.611-1.535-5.432-2.832-7.96-4.562c-0.713-0.397-1.786-0.946-2.669-1.504
		c-0.274-0.174-0.722-0.373-0.727-0.631c-0.01-0.384,1.304-1.064,1.747-1.311c1.891-1.053,3.852-2.283,5.727-3.349
		c5.202-2.955,10.353-5.892,15.434-8.833c1.214-0.703,2.513-1.519,3.834-2.233c0.642-0.347,1.33-0.659,1.989-1.019
		C34.952,39.686,35.449,39.119,36.292,38.929z"/>
	<path style="fill-rule:evenodd;clip-rule:evenodd;" d="M37.505,39.413c0.041-0.009,0.046,0.02,0.049,0.049
		c0.299,0.569,0.124,1.248,0.097,1.845c-0.207,4.452-0.283,8.947-0.485,13.54c-0.17,3.857-0.15,7.674-0.34,11.649
		c-0.06,1.253-0.027,2.523-0.291,3.736c-1.287,0.195-2.697,0.195-4.125,0.146c-2.798-0.096-5.767-0.049-8.688-0.048
		c-1.436,0-2.865,0.115-4.174-0.146c0.031-0.771,0.644-1.354,0.971-1.989C26.12,58.62,31.613,48.938,37.36,39.511
		C37.395,39.465,37.448,39.438,37.505,39.413z"/>
	<path style="fill-rule:evenodd;clip-rule:evenodd;" d="M53.23,66.689c-0.337,0.538-0.971,0.777-1.602,1.02
		c-2.95,2.048-6.175,3.663-9.318,5.532c-0.516,0.307-1.019,0.64-1.554,0.923c-0.538,0.285-1.061,0.687-1.698,0.776
		c-0.375-0.55-0.255-1.278-0.242-1.893c0.159-8.193,0.048-17.547,0.048-26.11c0.001-2.34-0.047-4.841,0.098-6.941
		c-0.002-0.083,0.036-0.126,0.097-0.146c0.032,0,0.064,0,0.097,0c3.033,5.493,6.093,11.024,8.978,16.646
		c0.288,0.56,0.586,1.125,0.874,1.698c0.858,1.707,1.646,3.388,2.572,5.048C52.197,64.351,52.82,65.477,53.23,66.689z"/>
</g>
<g id="Layer_1">
</g>
</svg>
