<?xml version="1.0" encoding="iso-8859-1"?>
<!-- Generator: Adobe Illustrator 19.2.0, SVG Export Plug-In . SVG Version: 6.00 Build 0)  -->
<svg version="1.1" xmlns="http://www.w3.org/2000/svg" xmlns:xlink="http://www.w3.org/1999/xlink" x="0px" y="0px"
	 viewBox="0 0 56.978 74.286" style="enable-background:new 0 0 56.978 74.286;" xml:space="preserve">
<g id="Evangelische_x5F_Gesellschaft_x5F_Switzerland">
	<path style="fill-rule:evenodd;clip-rule:evenodd;" d="M30.678,0.219c0.039,1.808-0.039,3.678-0.192,5.581
		c-0.295,3.658-0.337,7.654-0.337,11.401c0,0.912-0.042,1.809-0.048,2.742c-0.005,0.732-0.049,2.431,0.24,2.694
		c0.424,0.386,2.094,0.115,3.031,0.144c5.314,0.166,10.707,0.02,15.971-0.144c2.095-0.066,4.19-0.237,6.158-0.145
		c0.117,1.054,0.154,2.566,0.048,3.608c-0.963,0.265-2.028,0.092-3.079,0.048c-1.044-0.044-2.123-0.047-3.175-0.096
		c-3.188-0.15-6.379-0.198-9.573-0.241c-2.234-0.03-3.913-0.048-6.35-0.048c-0.886,0-2.704-0.131-3.031,0.24
		c-0.273,0.311-0.11,1.786-0.145,2.55c-0.107,2.467,0.079,5.223-0.096,7.697c-0.122,1.732-0.097,3.516-0.097,5.243
		c0,1.748-0.166,3.477,0,5.1c0.438,0.119,0.567-0.404,0.722-0.625c1.323-1.895,3.168-3.354,5.484-4.377
		c2.508-1.108,6.286-1.737,9.718-0.914c2.915,0.699,5.373,2.147,7.216,4.089c1.84,1.938,3.225,4.58,3.463,7.745
		c-0.65,0.337-2.232,0.222-3.03,0.096c-0.077,0.014-0.082-0.045-0.144-0.048c-0.271-0.452-0.222-0.889-0.337-1.347
		c-1.366-5.412-6.891-9.318-14.144-7.457c-2.811,0.721-5.03,2.479-6.543,4.666c-2.225,3.218-3.098,9.592-1.636,14.336
		c0.849,2.75,2.472,5.059,4.667,6.591c2.172,1.516,5.593,2.403,8.996,1.828c3.031-0.513,5.407-2.163,6.975-4.233
		c1.62-2.14,2.617-4.946,2.31-8.707c-0.737-0.392-1.675-0.241-2.55-0.241c-2.715,0-5.501-0.189-8.13-0.048
		c-1.755,0.094-3.558-0.096-5.34-0.096c-1.843,0-3.654,0.08-5.437-0.096c-0.257-0.597-0.18-1.972-0.047-2.646
		c0.911-0.346,1.938-0.165,2.934-0.192c4.996-0.139,10.427,0.193,15.587,0.192c1.552,0,3.055,0.048,4.618,0.048
		c0.473,0,1.008-0.105,1.443,0.144c0.226,1.158,0.19,2.323,0.144,3.416c-0.32,7.609-3.964,12.681-9.813,14.769
		c-1.857,0.663-4.189,0.891-6.254,0.769c-2.036-0.119-3.961-0.846-5.436-1.587c-2.816-1.416-4.858-3.207-6.302-6.013
		c-0.176-0.342-0.23-0.872-0.674-1.058c-0.39,0.181-0.463,0.64-0.625,0.962c-1.202,2.375-3.123,4.265-5.437,5.628
		c-2.597,1.561-6.803,2.167-10.535,1.395c-3.485-0.72-6.277-2.286-8.034-4.57c-1.478-1.61-2.601-3.747-3.175-6.302
		c-0.182-0.811-0.466-1.694-0.337-2.598c0.812-0.203,2.135-0.285,2.982-0.144c0.466,0.994,0.438,2.044,0.77,3.079
		c1.458,4.534,5.102,7.985,11.064,7.986c7.011,0.002,10.843-4.898,11.689-11.161c0.67-4.958-0.46-9.434-2.646-12.315
		c-1.383-1.519-3.078-3.101-5.388-3.752c-2.418-0.681-5.557-0.609-7.89,0.289c-3.668,1.411-6.438,4.296-7.265,8.707
		c-0.111,0.595-0.336,1.306-0.048,1.924c0.783,0.309,1.738,0.233,2.598,0.192c2.509-0.119,5.341-0.049,8.034-0.048
		c1.798,0,3.563-0.091,5.291-0.048c1.746,0.044,3.488-0.129,5.196,0.145c0.23,0.65,0.227,2.091,0,2.742
		c-1.926,0.372-3.953,0.194-6.014,0.192c-5.204-0.004-10.272-0.096-15.587-0.096c-1.009,0-2.06,0.149-2.982-0.193
		c-0.246-0.593-0.072-1.275-0.048-1.876c0.213-5.324,2.27-9.008,5.147-11.738c1.834-1.741,4.336-2.785,7.216-3.367
		c5.827-1.177,11.019,1.212,13.519,4.426c0.373,0.48,0.659,1.076,1.202,1.443c0.262-0.699,0.145-1.594,0.145-2.502
		c0-2.567,0.184-5.23,0-7.793c-0.122-1.702-0.112-3.496-0.048-5.195c0.063-1.72,0.166-3.428-0.097-5.051
		c-0.938-0.321-2-0.241-3.03-0.241c-5.302,0-10.856,0.096-15.972,0.096c-2.098,0-4.142,0.306-6.11,0.144
		c-0.314-0.96-0.282-2.608-0.096-3.656c4.058-0.042,8.247,0.214,12.508,0.385c3.222,0.129,6.393,0.145,9.67,0.145
		c0.785,0,2.627,0.14,2.982-0.192c0.347-0.325,0.183-2.042,0.192-2.646c0.093-5.809,0.07-11.607-0.192-17.27
		c-0.041-0.868-0.283-1.832,0.096-2.598C28.088,0.059,29.846-0.165,30.678,0.219z"/>
</g>
<g id="Layer_1">
</g>
</svg>
