<?xml version="1.0" encoding="iso-8859-1"?>
<!-- Generator: Adobe Illustrator 19.2.0, SVG Export Plug-In . SVG Version: 6.00 Build 0)  -->
<svg version="1.1" xmlns="http://www.w3.org/2000/svg" xmlns:xlink="http://www.w3.org/1999/xlink" x="0px" y="0px"
	 viewBox="0 0 74.861 74.761" style="enable-background:new 0 0 74.861 74.761;" xml:space="preserve">
<g id="Everon_x5F_BR">
	<path style="fill-rule:evenodd;clip-rule:evenodd;" d="M62.986,10.358c2.849,2.689,5.287,5.707,7.217,9.168
		c2.868,5.142,4.911,11.795,4.633,19.848c-0.089,2.566-0.595,4.885-1.122,7.07c-2.103,8.727-6.604,15.088-12.678,20.041
		c-3.044,2.482-6.546,4.498-10.436,5.9c-4.036,1.457-8.741,2.717-13.996,2.293c-2.676-0.217-5.03-0.428-7.266-0.928
		c-6.494-1.445-12.037-4.506-16.336-8.191c-2.217-1.9-4.14-4.016-5.852-6.438c-0.564-0.797-0.989-1.656-1.512-2.535
		c-3.89-6.539-6.949-15.818-5.071-26.478c0.79-4.486,2.525-8.531,4.438-11.947c0.468-0.836,1.11-1.619,1.609-2.486
		c0.492-0.856,1.086-1.695,1.707-2.391C14.14,6.762,21.39,1.784,32.167,0.313C39.3-0.662,46.552,0.752,51.672,2.995
		C56.07,4.92,59.863,7.311,62.986,10.358z M62.547,17.282c-4.104,0.191-8.342,0.002-12.533,0c-3.157,0-6.372,0.051-9.313,0.049
		c-1.035,0-2.081-0.115-3.072,0.146c-0.174,0.869-0.098,1.973-0.098,3.024c0,1.084-0.113,2.189,0.146,3.023
		c5.808,0.176,11.672,0.049,17.652,0.049c0.811,0,1.67-0.111,2.438,0.147c0.059,3.041,0.226,6.971-0.049,10.24
		c-2.616,0.264-5.514,0.146-8.29,0.146c-2.799,0-5.561-0.1-8.095,0.098c-0.161,1.908-0.162,4.481,0,6.389
		c1.285,0.26,2.666,0.146,4.048,0.146c4.15-0.002,8.355-0.096,12.435,0.098c0.186,2.371,0.098,5.08,0.098,7.607
		c0,0.863,0.114,1.729-0.146,2.486c-4.822,0.17-9.866,0.098-14.678,0.098c-1.649,0-3.313-0.117-4.877,0.147
		c-0.219,1.848-0.233,4.445,0,6.289c4.208,0.268,8.643-0.006,13.021,0.098c3.128,0.074,6.351,0.002,9.655,0
		c1.067,0,2.188,0.117,3.218-0.147c0.174-13.019,0.157-26.816,0-40.035C63.662,17.149,63.025,17.26,62.547,17.282z M3.152,29.278
		c-0.817,1.889-1.534,4.094-1.609,6.584C1.389,40.956,3.057,45.1,5.395,48.249c1.177,1.584,2.402,3.025,4.047,4.145
		c3.212,2.184,7.324,3.871,12.873,3.463c2.421-0.18,4.444-0.982,6.388-1.854c3.649-1.635,6.411-4.572,8.339-8.096
		c0.98-1.791,1.645-3.898,1.999-6.193c0.379-2.455,0.051-5.059-0.585-7.363c-1.127-4.082-3.526-7.576-6.583-9.85
		c-2.925-2.176-7.318-4.301-12.533-3.998c-3.01,0.174-5.339,0.861-7.509,1.852c-2.099,0.959-4.026,2.346-5.364,4.049
		C5.082,25.829,3.952,27.43,3.152,29.278z"/>
	<path style="fill-rule:evenodd;clip-rule:evenodd;" d="M19.634,27.28c0.267,0.633,0.166,1.967,0.049,2.682
		c-1.448,0.24-3.146,0.147-4.876,0.147c-1.695,0-3.493-0.117-4.974,0.146c-0.162,1.5-0.162,3.668,0,5.168
		c0.527,0.32,1.264,0.146,1.951,0.146c2.029,0,4.488-0.078,6.388,0.098c0.223,0.707,0.202,2.057,0.049,2.828
		c-2.433,0.42-5.906-0.129-8.387,0.293c-0.154,1.654-0.197,3.529,0,5.121c0.717,0.258,1.565,0.145,2.389,0.145
		c2.384,0,5.142-0.078,7.412,0.098c0.257,0.598,0.185,1.961,0.049,2.635c-4.178,0.166-8.521,0.17-12.679,0
		c-0.256-0.729-0.146-1.551-0.146-2.342c-0.001-4.881,0-9.689,0-14.824c0-0.686-0.098-2.115,0.146-2.34
		c0.036-0.047,0.089-0.074,0.147-0.098C11.298,27.26,15.592,27.057,19.634,27.28z"/>
</g>
<g id="Layer_1">
</g>
</svg>
