<?xml version="1.0" encoding="iso-8859-1"?>
<!-- Generator: Adobe Illustrator 19.2.0, SVG Export Plug-In . SVG Version: 6.00 Build 0)  -->
<svg version="1.1" xmlns="http://www.w3.org/2000/svg" xmlns:xlink="http://www.w3.org/1999/xlink" x="0px" y="0px"
	 viewBox="0 0 50.98 72.257" style="enable-background:new 0 0 50.98 72.257;" xml:space="preserve">
<g id="Everoy_x5F_Refrigerators">
	<path style="fill-rule:evenodd;clip-rule:evenodd;" d="M49.377,0.06c-0.009,0.498-0.439,0.855-0.725,1.207
		c-0.893,1.098-1.757,2.283-2.657,3.43c-1.186,1.51-2.176,3.208-3.574,4.493C30.984,9.366,19.264,9.16,7.687,9.383
		C7.4,13.255,7.631,17.988,7.638,22.282c0.239,0.249,0.371-0.213,0.58-0.29c1.962-2.562,3.923-4.937,5.941-7.536
		c0.275-0.354,0.578-0.864,0.918-0.966c0.497-0.149,1.402-0.009,2.126,0c9.611,0.116,19.39-0.039,29.323-0.048
		c1.469-0.002,2.915-0.214,4.3,0.097c0.165,14.249,0.144,28.61,0.146,42.995c0,2.062,0.039,4.279-0.049,6.232
		c-1.003,1.7-2.292,3.183-3.479,4.734c-1.186,1.551-2.215,3.228-3.526,4.686c-13.629,0.008-28.304,0.21-42.222-0.096
		c0.028-0.499,0.439-0.89,0.725-1.256c0.861-1.108,1.791-2.258,2.705-3.382c0.32-0.393,0.529-0.838,0.821-1.256
		c0.273-0.391,0.626-0.738,0.918-1.111c0.593-0.758,1.092-1.613,1.884-2.174c11.579-0.033,23.242,0.091,34.59-0.144
		c0.262-1.02,0.145-2.159,0.145-3.237c0-3.227,0.036-6.43-0.097-9.662c-0.552,0.003-0.741,0.628-1.015,0.966
		c-0.879,1.085-1.831,2.215-2.705,3.382c-1.165,1.555-2.357,3.134-3.672,4.493C24.239,58.742,11.93,58.885,0.247,58.61
		c-0.26-0.97-0.146-1.988-0.146-2.995C0.103,44.07,0.054,32.969,0.054,21.654c0-3.066,0-6.017,0-9.227
		c0-1.096-0.148-2.248,0.048-3.043C0.29,8.625,1.368,7.586,1.841,6.968C2.47,6.146,3.099,5.33,3.628,4.649
		c0.623-0.8,1.258-1.579,1.74-2.415c0.481-0.836,1.145-1.629,1.884-2.222C21.18,0.135,35.387-0.104,49.377,0.06z M7.687,22.813
		c-0.147,0.731-0.188,1.892-0.049,2.609c2.807,0.253,5.775,0.146,8.744,0.145c8.994-0.002,18.186,0.044,26.908-0.145
		c0.225-0.6,0.235-2.011,0-2.609c-5.847-0.385-11.875,0.178-17.682-0.097c-1.435-0.068-2.877,0.111-4.347,0.048
		c-4.444-0.188-8.951,0.188-13.431-0.096C7.762,22.695,7.714,22.744,7.687,22.813z M43.193,25.953
		c-1.237,1.312-2.469,3.099-3.623,4.541c-0.535,0.669-1.137,1.365-1.787,2.174c-0.413,0.513-1.185,1.967-1.836,2.126
		c-0.447,0.109-1.146,0.045-1.739,0.049c-7.781,0.04-15.401,0.048-23.092,0.048c-1.147,0-2.312-0.18-3.43,0.097
		c-0.164,3.531-0.156,7.724,0,11.256c0.465-0.046,0.685-0.611,0.966-0.966c0.314-0.396,0.677-0.762,0.918-1.16
		c1.394-1.798,2.741-3.358,4.106-5.169c0.449-0.595,0.897-1.428,1.498-1.594c0.438-0.121,1.076,0,1.689,0
		c1.811,0,3.642-0.048,5.315-0.048c4.847,0,9.533,0,14.3,0c2.401,0,4.703,0.088,6.86-0.145c0.175-3.07,0.096-6.763,0.096-9.951
		c0-0.419,0.141-0.955-0.193-1.256C43.226,25.953,43.209,25.953,43.193,25.953z M7.88,46.533c0.015-0.098-0.14,0.01-0.146,0.048
		c-0.218,0.666-0.233,2.091,0,2.753c8.891,0.22,17.75,0.05,26.667,0.048c2.993,0,5.969,0.081,8.938-0.096
		c0.138-0.716,0.191-2.01,0-2.609C31.962,46.376,19.332,46.761,7.88,46.533z"/>
</g>
<g id="Layer_1">
</g>
</svg>
