<?xml version="1.0" encoding="iso-8859-1"?>
<!-- Generator: Adobe Illustrator 19.2.0, SVG Export Plug-In . SVG Version: 6.00 Build 0)  -->
<svg version="1.1" xmlns="http://www.w3.org/2000/svg" xmlns:xlink="http://www.w3.org/1999/xlink" x="0px" y="0px"
	 viewBox="0 0 83.159 79.679" style="enable-background:new 0 0 83.159 79.679;" xml:space="preserve">
<g id="expo_x5F_70_x5F_osaka">
	<path style="fill-rule:evenodd;clip-rule:evenodd;" d="M38.278,0.098c0.246,0.496-0.187,0.909-0.353,1.265
		c-0.338,0.729-0.619,1.611-0.404,2.833c0.477,2.704,3.559,4.835,6.729,3.643c1.871-0.704,3.672-2.581,2.984-5.464
		c-0.168-0.709-0.645-1.103-0.658-1.872c0.838-0.119,1.699,0.367,2.43,0.759c2.119,1.139,4.238,2.628,5.615,4.553
		c1.889,2.639,3.402,5.977,3.137,10.371c-0.289,4.759-2.49,7.781-5.16,10.27c-2.215,1.81-4.553,3.003-8.045,3.541
		c-6.213,0.957-10.924-1.792-13.963-5.109c-2.545-2.781-4.377-6.729-3.996-11.737c0.135-1.778,0.723-3.646,1.416-5.059
		c1.355-2.759,3.797-5.305,6.627-6.729c1.008-0.506,1.994-1.029,3.137-1.315C37.93,0.008,38.083-0.057,38.278,0.098z"/>
	<path style="fill-rule:evenodd;clip-rule:evenodd;" d="M0.235,31.363c0.672-0.002,0.957,0.693,1.365,1.012
		c0.844,0.656,2.07,1.234,3.744,1.062c2.18-0.224,4.277-2.319,4.352-4.553c0.084-2.598-1.855-4.799-4.301-5.11
		c-0.937-0.119-1.672,0.245-2.43,0.051c-0.057-0.615,0.512-1.04,0.861-1.417c2.596-2.795,6.051-4.952,11.08-5.363
		c1.844-0.15,3.469,0.182,4.957,0.557c3.045,0.767,5.191,2.257,7.082,4.148c2.781,2.781,5.064,6.838,4.553,12.395
		c-0.309,3.365-1.652,5.887-3.389,8.044c-1.674,2.081-3.986,3.914-6.525,4.907c-1.887,0.738-4.059,1.109-6.728,0.962
		C8.638,47.713,3.69,43.607,1.55,39.104c-0.858-1.808-1.361-3.769-1.518-6.071C-0.003,32.502-0.071,31.837,0.235,31.363z"/>
	<path style="fill-rule:evenodd;clip-rule:evenodd;" d="M80.37,26.152c-0.828,0.156-1.486-0.12-2.225-0.051
		c-2.065,0.192-3.918,1.93-4.15,3.997c-0.445,3.994,3.508,6.739,6.982,5.059c0.377-0.182,0.666-0.425,0.961-0.658
		c0.252-0.199,0.504-0.607,0.961-0.557c0.379,0.485,0.244,1.143,0.203,1.669c-0.31,4.008-2.146,7.081-4.25,9.359
		c-2.525,2.737-6.164,4.603-10.978,4.603c-4.963,0-8.305-2.005-11.027-4.553c-1.346-1.258-2.351-2.804-3.238-4.553
		c-0.859-1.695-1.473-3.937-1.518-6.223c-0.096-4.818,1.758-8.174,4.199-10.725c2.334-2.548,5.785-4.479,10.471-4.755
		c4.318-0.254,7.654,1.562,10.271,3.288c0.879,0.967,1.959,1.793,2.781,2.883C80.063,25.269,80.475,25.667,80.37,26.152z"/>
	<path style="fill-rule:evenodd;clip-rule:evenodd;" d="M40.809,35.815c2.791-0.322,4.957,1.199,5.969,2.884
		c0.715,1.191,1.016,2.962,0.557,4.604c-0.51,1.818-2.201,3.364-3.795,3.896c-3.195,1.065-6.811-0.979-7.639-3.946
		c-0.809-2.898,0.637-5.371,2.125-6.425C38.694,36.353,39.614,35.953,40.809,35.815z"/>
	<path style="fill-rule:evenodd;clip-rule:evenodd;" d="M12.68,72.088c-0.736-0.138-0.967-0.97-1.266-1.518
		c-0.91-1.675-1.848-3.917-2.074-6.223c-0.061-0.624-0.086-1.246-0.051-1.872c0.248-4.195,1.924-7.792,4.402-10.27
		c2.451-2.451,5.873-4.407,9.916-4.705c4.767-0.351,9.133,1.38,11.838,3.794c0.736,0.657,1.402,1.5,2.023,2.276
		c1.738,2.178,3.365,5.599,3.439,9.309c0.094,4.619-1.736,7.748-3.742,10.371c-2.877,3.138-6.594,5.822-13.053,5.464
		c-0.973-0.054-1.689-0.203-2.631-0.455c-0.578-0.155-2.098-0.468-2.125-0.911c-0.021-0.33,0.629-0.523,1.164-0.86
		c1.348-0.85,2.434-2.098,2.428-4.098c-0.012-4.149-4.768-6.29-7.943-4.098c-0.732,0.505-1.502,1.401-1.871,2.378
		C12.971,71.108,13.067,71.654,12.68,72.088z"/>
	<path style="fill-rule:evenodd;clip-rule:evenodd;" d="M69.292,73.758c-0.428-0.51-0.316-1.173-0.506-1.72
		c-0.602-1.727-2.494-3.412-4.705-3.39c-2.658,0.027-5.217,2.221-4.959,5.362c0.119,1.445,0.902,2.642,1.771,3.39
		c0.475,0.41,1.285,0.477,1.518,1.214c-0.512,0.521-1.334,0.615-2.023,0.759c-5.133,1.068-9.959-0.818-12.801-3.238
		c-0.514-0.438-1.088-0.786-1.518-1.214c-2.508-2.509-4.49-6.297-4.553-10.877c-0.09-6.735,3.945-11.585,8.5-14.014
		c1.607-0.858,3.691-1.61,5.969-1.72c4.502-0.217,8.375,1.315,11.08,3.542c2.689,2.214,4.871,5.194,5.615,9.056
		c0.914,4.735-0.352,9.075-2.377,11.889C70.046,73.155,69.784,73.711,69.292,73.758z"/>
</g>
<g id="Layer_1">
</g>
</svg>
