<?xml version="1.0" encoding="iso-8859-1"?>
<!-- Generator: Adobe Illustrator 19.2.0, SVG Export Plug-In . SVG Version: 6.00 Build 0)  -->
<svg version="1.1" xmlns="http://www.w3.org/2000/svg" xmlns:xlink="http://www.w3.org/1999/xlink" x="0px" y="0px"
	 viewBox="0 0 82.786 47.932" style="enable-background:new 0 0 82.786 47.932;" xml:space="preserve">
<g id="expo_x5F_64_x5F_lausanne">
	<path style="fill-rule:evenodd;clip-rule:evenodd;" d="M15.295,0.017c4.082,0.138,8.688-0.086,12.809,0.145
		c0.259,1.356,0.146,2.824,0.146,4.254c0,4.377-0.036,8.592,0.096,12.713c1.125,0.262,2.378,0.146,3.626,0.145
		c3.604,0,7.605,0.11,11.021-0.145c0.26-0.644,0.146-1.397,0.146-2.078c-0.001-4.677-0.068-9.909,0.097-14.889
		c0.945-0.257,2.038-0.127,3.142-0.097c3.128,0.087,6.629-0.222,9.958,0.048c0.228,9.74,0.146,19.934,0.146,29.971
		c0,1.401-0.115,2.838,0.145,4.206c8.351,0.284,17.609-0.049,26.008,0.193c0.232,4.071,0.159,8.928,0.048,13.197
		c-3.2,0.261-6.515,0.146-9.812,0.145c-9.872-0.001-19.998,0.116-29.536-0.048c-0.255-0.628-0.146-1.352-0.146-2.031
		c0-3.522,0-7.274,0-10.876c0-1.427,0.114-2.85-0.145-4.157c-1.062-0.198-2.293-0.204-3.529-0.145
		c-2.409,0.115-4.978,0.048-7.492,0.048c-1.251,0-2.506-0.116-3.626,0.145c-0.289,5.447,0.096,11.569-0.193,17.016
		c-4.164,0.255-8.86,0.163-13.004-0.049c-0.272-5.475,0.071-11.675-0.193-17.016c-1.053-0.304-2.309-0.193-3.576-0.193
		c-2.486,0-5.105-0.001-7.639,0c-1.283,0-2.539,0.112-3.674-0.145c-0.193-4.142-0.097-8.83-0.049-13.052
		c0.566-0.252,1.221-0.144,1.838-0.144c4.482,0,8.658,0.127,13.004-0.049c0.259-0.629,0.145-1.337,0.145-2.03
		c0-4.214-0.001-8.508,0-12.907c0-0.715-0.072-1.693,0.096-2.079C15.185,0.069,15.238,0.04,15.295,0.017z"/>
</g>
<g id="Layer_1">
</g>
</svg>
