<?xml version="1.0" encoding="iso-8859-1"?>
<!-- Generator: Adobe Illustrator 19.2.0, SVG Export Plug-In . SVG Version: 6.00 Build 0)  -->
<svg version="1.1" xmlns="http://www.w3.org/2000/svg" xmlns:xlink="http://www.w3.org/1999/xlink" x="0px" y="0px"
	 viewBox="0 0 86.051 15.963" style="enable-background:new 0 0 86.051 15.963;" xml:space="preserve">
<g id="Eyssa_x5F_Electronics">
	<path style="fill-rule:evenodd;clip-rule:evenodd;" d="M86.051,0.798c-0.375,0.634-1.309,0.345-1.986,0.313
		c-0.73-0.034-1.551,0.052-2.299,0.052c-2.609,0-5.324-0.132-7.053,0.679c0.443,0.359,1.102,0.393,1.723,0.522
		c2.277,0.475,5.326,0.099,7.941,0.209c0.541,0.023,1.16-0.135,1.621,0.209c-0.277,0.529-1.156,0.283-1.881,0.313
		c-2.928,0.123-6.754-0.332-8.674,0.731c2.053,1.01,5.629,0.662,8.777,0.679c0.59,0.003,1.359-0.111,1.777,0.314
		c-0.418,0.461-1.215,0.262-1.83,0.261c-2.658,0-6.32-0.181-8.098,0.731c1.941,0.931,5.326,0.732,8.359,0.732
		c0.521,0,1.166-0.143,1.568,0.208c-0.268,0.535-1.057,0.314-1.568,0.314c-2.688,0-5.799-0.216-7.627,0.679
		c1.889,1.022,5,0.661,7.941,0.731c0.42,0.01,0.971-0.084,1.254,0.261c-0.1,0.482-0.713,0.313-1.045,0.313
		c-2.43,0-5.861-0.306-7.42,0.68c1.623,0.889,4.283,0.685,6.584,0.679c0.584-0.002,1.637-0.104,1.934,0.365
		c-0.273,0.287-0.781,0.26-1.15,0.261c-2.336,0.008-5.086-0.318-6.74,0.627c0.791,0.149,1.688,0.615,2.613,0.732
		c1.053,0.133,2.211,0.002,3.291,0c0.631-0.002,1.4-0.055,1.934,0.261c-0.381,0.552-1.184,0.263-1.83,0.261
		c-1.984-0.003-4.223,0.015-5.434,0.731c0.873,0.271,1.916,0.666,3.084,0.732c1.432,0.08,3.014-0.219,4.18,0.209
		c-0.064,0.469-0.641,0.3-0.889,0.313c-1.066,0.058-2.26-0.033-3.449,0.052c-0.9,0.065-1.744,0.459-2.611,0.575
		c-0.621,0.083-1.379,0.062-1.986,0c-0.734-0.076-1.254-0.425-2.141-0.366c-0.576,0.039-1.127,0.304-1.725,0.366
		c-1.201,0.124-2.307-0.436-3.396-0.418c-0.611,0.01-1.172,0.277-1.775,0.365c-0.584,0.085-1.297,0.056-1.881,0
		c-0.91-0.087-1.799-0.541-2.666-0.522c-0.996,0.022-1.893,0.557-2.873,0.627c-1.781,0.128-3.531,0.034-5.277,0.052
		c-0.867,0.009-1.721,0.015-2.559-0.104c-0.723-0.103-1.42-0.408-2.195-0.471c-0.764-0.061-1.625-0.052-2.404,0
		c-1.115,0.075-2.195,0.556-3.344,0.628c-1.129,0.07-2.383-0.052-3.604-0.053c-1.195,0-2.447,0.136-3.605,0.053
		c-1.121-0.081-2.121-0.545-3.188-0.628c-0.994-0.076-2.062-0.051-3.135,0.053c-0.705,0.068-1.6,0.479-2.299,0.575
		c-0.889,0.122-1.992,0.119-2.926,0.052c-1.076-0.077-2.033-0.509-3.082-0.575c-0.801-0.05-1.656-0.021-2.508,0.053
		c-0.924,0.079-1.801,0.485-2.664,0.575c-1.373,0.142-2.877-0.07-4.338,0.052c-1.436,0.12-2.978,0.166-4.283,0.053
		c-0.963-0.084-1.869-0.558-2.822-0.627c-1.617-0.118-3.189,0-4.91,0c-0.393,0-1.053,0.189-1.359-0.261
		c0.404-0.379,1.062-0.187,1.621-0.209c2.502-0.1,5.646,0.284,7.156-0.731c-1.537-1.011-4.691-0.784-7.365-0.784
		c-0.506,0-1.106,0.147-1.465-0.209c0.322-0.449,1.047-0.261,1.568-0.261c2.516,0,5.82,0.278,7.315-0.732
		c-1.629-0.921-4.793-0.732-7.471-0.731c-0.504,0-1.096,0.138-1.463-0.21c0.248-0.498,0.965-0.313,1.463-0.313
		c2.5,0,5.805,0.286,7.418-0.627C7.115,8.943,3.34,9.668,0.73,9.471C0.512,9.455,0.182,9.423,0.051,9.21
		C0.299,8.712,1.02,8.897,1.516,8.897c2.525,0,5.871,0.276,7.418-0.68C7.422,7.243,4.281,7.486,1.672,7.486
		c-0.561,0-1.275,0.191-1.621-0.262c0.277-0.463,0.99-0.261,1.465-0.261c2.572,0,5.707,0.306,7.365-0.679
		C7.31,5.33,4.162,5.553,1.463,5.553c-0.478,0-1.055,0.129-1.359-0.261C0.416,4.865,1.072,5.03,1.566,5.03
		c2.568,0,5.924,0.28,7.473-0.731c-1.68-0.9-4.854-0.679-7.576-0.679c-0.451,0-1.082,0.158-1.359-0.262
		c0.277-0.462,0.953-0.313,1.463-0.313c2.461,0,5.76,0.286,7.314-0.627C8.732,2.062,8.234,2.094,7.889,2
		C7.529,1.902,7.188,1.745,6.791,1.686C5.295,1.463,3.248,1.634,1.566,1.634C1.045,1.635,0.426,1.782,0.051,1.425
		c0.383-0.511,0.965-0.283,1.465-0.261C3.478,1.251,5.83,1.343,7.523,0.955c0.559-0.127,1.068-0.364,1.619-0.418
		c1.264-0.123,2.781-0.052,4.285-0.052c1.834,0,3.68-0.246,5.225,0.052c0.373,0.072,0.807,0.302,1.201,0.313
		c0.625,0.018,1.26-0.367,2.037-0.418c0.906-0.06,1.836-0.035,2.664,0.105c1.027,0.173,1.824,0.579,3.084,0.47
		c0.758-0.065,1.357-0.401,1.984-0.522c0.846-0.163,1.775-0.168,2.717-0.105c1.035,0.07,1.844,0.667,3.188,0.523
		c0.859-0.092,1.701-0.505,2.561-0.575c1.041-0.084,2.139-0.052,3.238-0.052c1.082,0,2.193-0.075,3.24,0
		c0.957,0.069,1.807,0.464,2.717,0.575c0.928,0.113,2.287,0.036,3.447-0.052c0.908-0.069,1.73-0.489,2.561-0.575
		c1.148-0.119,2.348-0.012,3.5-0.052c1.172-0.04,2.344-0.135,3.502-0.052c0.836,0.06,1.668,0.454,2.559,0.522
		c0.851,0.065,1.746,0.018,2.613,0c0.84-0.017,1.703,0.054,2.508,0c0.984-0.066,1.918-0.492,2.926-0.575
		c1.115-0.091,2.354-0.086,3.5,0c0.801,0.061,1.586,0.451,2.404,0.522c2.246,0.196,4.721-0.019,6.896-0.052
		c0.41-0.006,0.826,0.032,1.254,0.052C85.295,0.605,85.781,0.451,86.051,0.798z M67.398,1.268c-2.332,0.096-5.205-0.303-6.688,0.679
		c1.307-0.046,2.551,0.627,3.918,0.679c2.088,0.079,4.15-0.014,5.695-0.784C69.559,1.487,68.586,1.219,67.398,1.268z M51.045,1.425
		c-1.959-0.148-4.648-0.112-5.748,0.679c1.393,0.028,2.666,0.79,4.023,0.679c1.244-0.101,2.377-0.687,3.658-0.731
		C52.568,1.705,51.828,1.485,51.045,1.425z M32.287,2.313c1.481,1.016,3.414-0.074,5.174-0.157
		C36.145,1.106,33.604,1.55,32.287,2.313z M24.607,2.261c1.549,0.659,3.617,0.771,5.068-0.052
		C28.543,1.316,25.713,1.419,24.607,2.261z M18.182,2.313c0.998,0.604,2.986,0.789,3.918,0C21.039,1.79,19.113,1.463,18.182,2.313z
		 M62.33,3.933c1.959,0.913,5.266,0.821,7.262,0C68.127,2.816,63.822,2.922,62.33,3.933z M50.73,3.724
		c-0.479-0.134-0.899-0.341-1.463-0.366c-0.949-0.04-2.094,0.341-2.664,0.732c1.451,0.703,3.504,0.661,4.963,0
		C51.484,3.763,51.053,3.814,50.73,3.724z M54.859,3.985c0.959,0.817,3.15,0.755,4.074-0.052C57.709,3.37,56.023,3.388,54.859,3.985
		z M31.453,4.194c1.129,0.948,3.258,0.46,4.492-0.052C34.818,3.11,32.727,3.693,31.453,4.194z M25.391,4.194
		c1.117,0.497,2.578,0.568,3.658,0C28.232,3.365,26.246,3.491,25.391,4.194z M39.289,4.09c0.885,0.815,3.131,0.787,4.076,0.052
		C42.248,3.434,40.479,3.523,39.289,4.09z M19.854,3.62c-0.641,0.065-1.346,0.45-2.09,0.522c-1.588,0.153-3.336-0.115-4.859,0.052
		c-0.162,0.018-0.422-0.031-0.521,0.209c1.287,0.697,3.127,0.526,5.172,0.47c2.061-0.057,4.176,0.273,5.328-0.627
		C21.955,4.091,21.066,3.496,19.854,3.62z M71.42,3.985c0.561,0.393,1.725,0.517,2.195-0.052C73.07,3.807,71.879,3.702,71.42,3.985z
		 M60.605,5.239c-2.031,0.095-4.143-0.263-5.381,0.679c1.246,0.348,2.453,0.056,3.762,0.157c0.875,0.068,1.723,0.421,2.611,0.471
		c2.652,0.147,5.662-0.007,7.473-0.732C67.076,4.889,63.58,5.1,60.605,5.239z M48.066,5.396c-2.912,0.135-6.584-0.469-8.568,0.627
		c1.102,0.291,2.174,0.119,3.291,0.157c1.029,0.036,1.943,0.448,2.926,0.523c2.135,0.162,4.49,0.067,5.748-0.679
		C50.545,5.666,49.43,5.333,48.066,5.396z M30.773,6.232c0.703,0.35,1.797,0.621,2.926,0.522c0.834-0.072,1.783-0.337,2.193-0.731
		C34.31,5.308,32.178,5.399,30.773,6.232z M14.785,5.553c-0.9,0.069-1.734,0.205-2.299,0.627c1.719,0.29,3.488-0.029,5.225,0.104
		c1.426,0.11,2.605,0.705,4.233,0.523c0.545-0.061,1.223-0.242,1.619-0.575C21.551,5.339,17.682,5.33,14.785,5.553z M71.002,5.918
		c0.793,0.494,2.344,0.662,3.031-0.052C73.209,5.434,71.748,5.379,71.002,5.918z M26.385,6.127c0.438,0.207,1.254,0.088,1.723,0
		C27.853,5.637,26.656,5.673,26.385,6.127z M64.367,7.12c-1.77,0.017-3.742-0.051-4.807,0.679c0.639,0.206,1.25,0.069,1.881,0.104
		c1.072,0.061,2.057,0.451,3.031,0.575c1.49,0.191,2.596-0.422,3.918-0.679C67.559,7.1,65.889,7.105,64.367,7.12z M51.775,7.799
		c-1.055-0.102-2.018-0.578-3.029-0.575c-1.803,0.006-3.705-0.055-5.016,0.731c0.805,0.32,1.686,0.085,2.611,0.157
		c0.853,0.066,1.637,0.454,2.352,0.523c2.199,0.213,4.523-0.021,5.799-0.68C53.578,7.743,52.727,7.891,51.775,7.799z M72.465,7.277
		c-0.389,0.004-0.762,0.226-1.148,0.314c-0.41,0.093-0.854,0.058-1.201,0.313c1.277,0.737,3.789,0.865,4.91-0.104
		C74.119,7.836,73.297,7.268,72.465,7.277z M36.258,7.904c-0.723-0.084-1.408-0.447-2.141-0.522
		c-1.729-0.177-3.205,0.475-4.859,0.731c0.389,0.333,1.053,0.506,1.725,0.575c1.576,0.162,3.824,0.098,5.537,0
		c0.896-0.051,1.764-0.242,2.246-0.627C37.951,7.805,37.15,8.008,36.258,7.904z M18.182,8.06c0.146,0.332,0.621,0.328,0.992,0.418
		c1.783,0.433,4.818,0.529,6.113-0.366C23,7.791,20.289,6.875,18.182,8.06z M62.434,9.837c1.533,0.726,3.744,0.537,5.277-0.052
		C66.475,8.821,63.564,8.884,62.434,9.837z M69.801,9.837c0.551,0.418,1.225,0.155,1.881,0.104c1.41-0.107,2.984,0.445,3.814-0.157
		C73.965,8.994,71.232,8.873,69.801,9.837z M55.016,9.784c-1.279-0.111-2.506-0.749-3.658-0.575
		c-1.588,0.241-3.488-0.221-4.545,0.731c1.564,0.771,3.855,0.627,6.322,0.627c1.344,0,2.762,0.05,3.814-0.104
		c0.707-0.104,1.391-0.257,1.828-0.627C57.531,9.636,56.371,9.903,55.016,9.784z M39.342,9.837
		c-1.258-0.097-2.178-0.727-3.449-0.574c-2.367,0.284-5.307-0.419-6.897,0.783c1.746,0.862,4.477,0.575,7.262,0.575
		c1.85,0,3.781,0.148,5.227,0c0.701-0.072,1.441-0.266,1.932-0.627C42.174,9.652,40.75,9.945,39.342,9.837z M22.988,9.366
		c-1.059-0.021-2.24-0.101-3.188,0.105c-0.686,0.148-1.332,0.45-2.037,0.522c-1.873,0.192-3.592-0.156-5.381,0.157
		c1.18,0.848,3.156,0.575,5.119,0.575c2.836,0,6.387,0.274,8.203-0.679C24.842,9.703,23.969,9.386,22.988,9.366z M62.592,11.77
		c1.178,0.773,3.094,0.461,4.283-0.105C65.863,10.778,63.594,11.087,62.592,11.77z M54.859,11.823
		c0.623,0.151,1.773,0.621,2.455,0.47c0.539-0.12,1.41-0.281,1.566-0.628C57.752,11.095,55.814,11.072,54.859,11.823z
		 M33.385,11.247c-1.572-0.135-3.504,0.014-4.336,0.731c1.625,0.858,5.121,0.871,6.74,0C35.305,11.575,34.332,11.329,33.385,11.247z
		 M39.236,11.874c1.205,0.702,3.004,0.621,4.285,0.052C42.59,11.057,40.238,11.091,39.236,11.874z M46.812,11.823
		c1.129,0.899,3.42,0.762,4.703,0.104C50.34,11.023,48.146,11.215,46.812,11.823z M18.076,11.3c-2.076,0.098-4.275-0.198-5.59,0.679
		c1.754,0.312,3.529-0.057,5.381,0.104c0.904,0.079,1.809,0.503,2.822,0.575c0.895,0.064,1.895,0.085,2.717,0
		c0.75-0.077,1.559-0.327,2.143-0.731C23.766,11.162,20.783,11.172,18.076,11.3z M69.383,11.77c0.496,0.373,1.781,0.457,2.143-0.105
		C70.992,11.243,69.844,11.312,69.383,11.77z M73.51,11.77c0.486,0.346,1.76,0.494,2.143-0.052
		C75.154,11.423,73.871,11.178,73.51,11.77z M61.65,13.808c1.258,0.833,3.277,0.309,4.545-0.157
		C65.08,12.576,62.894,13.364,61.65,13.808z M31.453,13.128c-0.795,0.062-1.867,0.343-2.351,0.784
		c0.473,0.323,1.31,0.559,2.141,0.626c1.953,0.16,4.479,0.086,5.592-0.679C35.266,13.555,33.512,12.968,31.453,13.128z
		 M49.111,13.128c-1.119,0.012-2.18,0.666-3.344,0.68c1.449,0.991,5.277,0.942,6.74,0C51.334,13.72,50.271,13.116,49.111,13.128z
		 M20.375,13.233c-0.723,0.091-1.734,0.416-2.141,0.783c1.943,0.779,5.666,0.921,7.418-0.104C24.514,13.301,22.217,13,20.375,13.233
		z M73.459,13.755c0.863,0.376,2.539,0.702,3.238-0.052C75.621,13.544,74.219,12.948,73.459,13.755z M68.547,13.755
		c0.764,0.538,2.355,0.517,3.031-0.104C70.799,13.078,69.365,13.464,68.547,13.755z"/>
</g>
<g id="Layer_1">
</g>
</svg>
