<?xml version="1.0" encoding="iso-8859-1"?>
<!-- Generator: Adobe Illustrator 19.2.0, SVG Export Plug-In . SVG Version: 6.00 Build 0)  -->
<svg version="1.1" xmlns="http://www.w3.org/2000/svg" xmlns:xlink="http://www.w3.org/1999/xlink" x="0px" y="0px"
	 viewBox="0 0 73.853 75.216" style="enable-background:new 0 0 73.853 75.216;" xml:space="preserve">
<g id="FME_x5F_NL">
	<path style="fill-rule:evenodd;clip-rule:evenodd;" d="M42.359,26.514c0.906-0.126,1.668-0.713,2.437-1.14
		c3.879-2.156,7.628-4.434,11.662-6.583c1.692-0.902,3.074-1.861,5.184-2.125c4.444-0.556,8.34,1.704,10.16,4.25
		c0.528,0.739,0.919,1.484,1.244,2.437c0.317,0.927,0.696,1.747,0.777,2.851c0.168,2.287-0.381,4.514-1.141,6.116
		c-1.451,3.062-4.673,4.681-7.619,6.324c-3.052,1.702-6.045,3.282-8.968,4.976c-2.76,1.593-5.91,3.256-8.916,5.028
		c-1.443,0.852-3.446,1.508-5.391,1.555c-2.717,0.065-5.336-1.044-6.946-2.436c-0.501-0.295-0.709-0.881-1.348-1.037
		c-0.342,0.48-0.207,1.122-0.207,1.659c0.001,4.021-0.052,8.66-0.052,12.803c0,2.505,0.113,5.014-0.57,6.791
		c-1.377,3.58-3.639,5.998-7.775,6.946c-4.623,1.06-8.319-0.948-10.419-3.68c-1.044-1.359-2.105-3.09-2.28-5.08
		c-0.161-1.834-0.053-3.802-0.053-5.702c0.001-5.371,0-11.156,0-16.898c0.001-2.098-0.158-3.991,0.105-5.65
		c0.606-3.833,3.007-6.713,6.116-8.138c0.653-0.299,1.376-0.414,2.022-0.829c-0.541-0.713-1.462-1.054-2.229-1.503
		c-3.902-2.288-7.647-4.517-11.663-6.843c-1.69-0.979-3.076-1.822-4.146-3.213c-1.123-1.46-1.888-3.065-2.229-5.184
		c-0.34-2.112,0.121-4.419,0.934-6.168c1.424-3.064,4.615-5.693,8.967-6.013c3.504-0.258,5.916,1.434,8.139,2.747
		c3.549,2.096,6.787,3.945,10.211,6.064c2.78,1.721,5.603,3.441,8.398,5.184c0.56,0.35,1.199,0.611,1.71,0.985
		c2.105,1.54,3.996,4.292,4.147,7.879C42.669,24.102,42.371,25.298,42.359,26.514z M28.467,11.43
		c-0.686-0.398-1.378-0.83-2.074-1.244c-2.758-1.643-5.651-3.213-8.396-4.872c-1.394-0.842-2.824-1.798-4.303-2.332
		C10.688,1.893,7.269,2.748,5.4,4.276c-1.77,1.448-3.383,4.167-3.058,7.309c0.353,3.415,2.531,5.256,5.028,6.686
		c1.64,0.94,3.36,1.916,4.82,2.799c2.43,1.47,4.774,2.951,7.205,4.25c0.828,0.442,1.607,1.058,2.54,1.192
		c0.128-0.907-0.2-1.515-0.26-2.333c-0.306-4.261,1.739-7.076,3.888-9.019c0.683-0.474,1.381-0.957,2.178-1.348
		c0.823-0.405,1.75-0.559,2.591-0.985C29.932,12.152,29.13,11.816,28.467,11.43z M27.327,16.976
		c-1.499,1.146-2.592,2.698-3.007,4.562c-0.682,3.063,0.423,5.551,1.763,7.101c1.877,2.172,5.572,3.615,9.071,2.229
		c2.889-1.145,5.115-3.997,5.028-7.62c-0.044-1.788-0.735-3.474-1.452-4.458c-1.456-1.999-3.862-3.622-7.567-3.317
		C29.566,15.604,28.296,16.235,27.327,16.976z M53.814,42.22c3.651-2.059,7.211-4.131,10.886-6.168
		c1.49-0.826,2.991-1.629,4.146-2.695c1.507-1.39,2.778-3.713,2.592-6.48c-0.167-2.49-1.242-4.155-2.851-5.494
		c-1.46-1.215-3.508-2.425-6.168-2.229c-1.582,0.117-2.447,0.664-3.629,1.296c-2.266,1.212-4.421,2.371-6.583,3.577
		c-1.466,0.817-2.857,1.762-4.302,2.488c-1.144,0.575-2.287,1.159-3.318,1.763c-0.327,0.191-0.834,0.345-0.933,0.777
		c0.537,0.408,1.145,0.369,1.763,0.622c3.821,1.567,7.293,5.673,6.531,11.404c-0.096,0.712-0.402,1.41-0.363,2.177
		C52.399,43.121,53.1,42.622,53.814,42.22z M14.627,39.939c0.237,3.317,2.556,6.042,5.08,7.05c1.092,0.436,2.351,0.659,3.888,0.518
		c2.888-0.264,5.925-2.509,6.687-5.08c0.272-0.917,0.397-2.144,0.363-3.214c-0.061-1.88-0.5-3.341-1.296-4.509
		c-1.277-1.876-3.831-3.458-6.842-3.421c-1.824,0.022-3.077,0.723-4.354,1.399C16.109,34.254,14.392,36.643,14.627,39.939z
		 M35.154,34.6c-1.054,1.32-2.058,3.583-1.659,6.22c0.518,3.418,3.149,6.129,6.428,6.739c3.664,0.681,6.544-1.103,7.983-2.955
		c1.39-1.79,2.029-4.573,1.398-6.998c-0.357-1.376-0.887-2.294-1.451-3.006c-1.396-1.76-3.428-3.128-6.376-3.058
		C38.452,31.614,36.484,32.933,35.154,34.6z M14.783,46.885c-0.094,0.888-0.052,2.003-0.052,3.059c-0.001,2.935,0,5.858,0,8.968
		c-0.001,2.115-0.095,4.21,0,6.116c0.149,3.005,1.758,5.199,3.628,6.324c4.648,2.797,10.528,0.058,11.767-3.991
		c0.852-2.784,0.467-6.659,0.467-10.004c0-3.55-0.053-7.165-0.104-10.419c-0.458-0.139-0.612,0.454-0.985,0.57
		c-1.425,1.227-3.537,2.372-6.116,2.54c-2.296,0.15-4.245-0.619-5.857-1.399c-0.916-0.604-1.631-1.41-2.644-1.918
		C14.814,46.743,14.827,46.843,14.783,46.885z"/>
</g>
<g id="Layer_1">
</g>
</svg>
