<?xml version="1.0" encoding="iso-8859-1"?>
<!-- Generator: Adobe Illustrator 19.2.0, SVG Export Plug-In . SVG Version: 6.00 Build 0)  -->
<svg version="1.1" xmlns="http://www.w3.org/2000/svg" xmlns:xlink="http://www.w3.org/1999/xlink" x="0px" y="0px"
	 viewBox="0 0 110.111 150.859" style="enable-background:new 0 0 110.111 150.859;" xml:space="preserve">
<g id="Faaborg-Midtfyn">
	<path style="fill-rule:evenodd;clip-rule:evenodd;" d="M110.084,10.323c0.086,16.88-0.061,32.696-0.12,49.066
		c-0.056,15.555,1.274,31.703-3.119,44.627c-8.304,24.428-25.758,39.732-51.465,46.786c-1.151,0.316-3.571-0.759-5.398-1.319
		c-11.082-3.404-20.697-9.345-28.071-16.195c-8.783-8.16-15.453-18.444-19.194-31.071c-3.776-12.742-2.144-30.035-2.52-44.987
		c-0.296-11.763-0.067-27.154,0-40.668c0.007-1.411-0.444-4.967,0-5.998C0.599,9.627,4.346,8.9,5.835,8.404
		c9.671-3.224,19.786-5.677,31.19-7.198c4.607-0.614,9.342-1.164,13.916-1.2C74.02-0.173,93.083,3.87,110.084,10.323z M82.132,4.085
		c-17.977-3.199-40.547-3.441-57.703,0.72c-5.774,1.401-11.749,2.84-17.394,4.679c-1.265,0.412-4.953,1.391-5.278,2.159
		c-0.325,0.767-0.083,4.269-0.12,5.639c-0.368,13.507,0.001,28.334,0,41.748c-0.001,16.554-0.688,32.54,3.119,44.507
		c6.644,20.892,21.395,34.979,41.147,42.947c2.022,0.816,7.079,2.943,9.237,2.88c1.153-0.034,3.186-0.84,4.679-1.32
		c10.666-3.43,20.066-9.065,27.112-15.595c8.392-7.776,15.339-17.545,18.835-29.871c3.656-12.893,2.759-29.472,2.759-45.227
		c0-16.743-0.06-29.291,0-45.946C100.351,8.403,91.588,5.767,82.132,4.085z"/>
	<path style="fill-rule:evenodd;clip-rule:evenodd;" d="M59.218,8.404c-1.499,1.3-2.282,3.316-1.919,6.478
		c1.499,0.238,3.572,0.442,5.038-0.24c0.937-0.436,1.105-1.158,1.92-1.56c0.053,1.952,0.076,5.577-0.12,8.038
		c-1.222-1.658-3.555-2.205-6.719-1.919c0.077,1.979-0.505,4.858-0.119,6.718c0.37,1.785,2.846,4.812,3.839,6.358
		c4.048,6.304,7.524,12.634,11.276,18.954c-1.76,0-3.519,0-5.278,0c-4.077-6.76-8.019-13.654-11.997-20.514
		c-4.273,6.603-8.066,13.687-12.116,20.514c-1.787-0.049-4.346,0.074-5.398,0c4.374-7.481,8.657-14.582,13.316-22.193
		c0.6-0.979,1.729-2.285,1.919-3.119c0.484-2.12-0.368-4.616,0-6.598c-1.327-0.112-2.621-0.27-3.719-0.12
		c-1.754,0.24-2.321,1.575-3.358,1.919c0.149-2.875-0.271-5.624,0.239-8.038c1.242,1.86,3.924,2.332,6.838,1.919
		c0.301-3.14-0.226-5.453-1.919-6.598C53.424,8.204,56.736,8.204,59.218,8.404z"/>
	<path style="fill-rule:evenodd;clip-rule:evenodd;" d="M20.71,51.231c-0.774-0.064-1.818,0.14-2.399-0.12
		c-0.103-5.423,0.107-15.576,0.12-22.673c0.004-1.879-0.912-8.182,1.439-7.318c1.375,0.505,0.84,5.204,0.84,7.438
		C20.71,36.691,20.777,43.448,20.71,51.231z"/>
	<path style="fill-rule:evenodd;clip-rule:evenodd;" d="M91.849,51.111c-0.642,0.107-1.651,0.39-2.279,0.12
		c-0.204-5.462-0.12-15.201-0.12-22.673c0-2.332-0.726-7.748,1.44-7.438c1.429,0.204,0.856,2.649,0.84,3.839
		C91.633,31.657,91.986,42.819,91.849,51.111z"/>
	<path style="fill-rule:evenodd;clip-rule:evenodd;" d="M22.269,24.119c9.695,0.135,19.074-0.027,28.792,0.12
		c-5.168,9.268-10.852,18.021-16.315,26.992c-3.638,0.023-8.757,0.138-12.717-0.12c0.024-8.721-0.032-19.81,0-26.632
		C22.132,24.382,22.1,24.15,22.269,24.119z"/>
	<path style="fill-rule:evenodd;clip-rule:evenodd;" d="M88.01,24.239c0.3,8.78,0.031,17.811,0.12,26.992
		c-2.955-0.025-6.659,0.059-9.598,0c-1.163-0.022-2.211,0.342-2.999,0c-0.668-0.29-1.693-2.299-2.279-3.239
		c-4.817-7.727-9.902-16.18-14.275-23.753C68.658,24.183,78.199,24.231,88.01,24.239z"/>
	<path style="fill-rule:evenodd;clip-rule:evenodd;" d="M24.189,57.589c0.283,3.707-0.025,8.498,0,12.116c-3.52,0-7.038,0-10.558,0
		c-0.087-3.963-0.317-8.312,0.12-11.996C17.374,57.598,19.896,57.678,24.189,57.589z"/>
	<path style="fill-rule:evenodd;clip-rule:evenodd;" d="M42.303,57.709c-0.004,4.399,0.046,7.883,0,11.996
		c-3.559,0-7.118,0-10.677,0c-0.086-3.709,0.03-7.573,0-11.757c-0.005-0.205,0.089-0.311,0.24-0.359
		C35.306,57.668,39.063,57.43,42.303,57.709z"/>
	<path style="fill-rule:evenodd;clip-rule:evenodd;" d="M60.419,57.829c0,3.958,0,7.917,0,11.876c-3.56,0-7.118,0-10.678,0
		c-0.152-4.321-0.213-8.925,0.12-12.116C53.488,57.744,56.736,57.428,60.419,57.829z"/>
	<path style="fill-rule:evenodd;clip-rule:evenodd;" d="M78.533,57.709c0.073,4.152,0.024,7.756,0,11.996c-3.518,0-7.038,0-10.557,0
		c-0.279-3.68-0.041-7.877-0.12-11.757c0.067-0.172,0.188-0.292,0.359-0.359C71.299,57.706,74.512,57.688,78.533,57.709z"/>
	<path style="fill-rule:evenodd;clip-rule:evenodd;" d="M96.648,57.709c0.152,3.545,0.058,7.865,0,11.996
		c-3.744-0.11-7.326,0.236-10.678-0.12c-0.213-3.772-0.012-7.609-0.119-11.637c0.066-0.172,0.187-0.292,0.359-0.359
		C89.736,57.873,93.83,57.565,96.648,57.709z"/>
	<path style="fill-rule:evenodd;clip-rule:evenodd;" d="M96.648,71.025c0.179,2.727-0.053,5.515,0,8.878
		c-9.483-0.08-19.509,0.511-28.792,0.12c-1.354-0.058-3.134,0.233-3.959,0c-0.65-0.185-1.036-1.183-1.439-1.56
		c-3.159-2.951-9.084-4.144-13.437-1.08c-0.972,0.685-1.886,2.334-2.999,2.64c-1.062,0.291-2.708-0.118-4.078-0.12
		c-9.503-0.011-18.641,0.21-28.312,0.12c-0.154-2.567-0.188-6.073,0-8.998C42.253,70.912,66.452,71.032,96.648,71.025z"/>
	<path style="fill-rule:evenodd;clip-rule:evenodd;" d="M45.423,81.342c-1.275,2.277-1.08,6.188-1.199,8.997
		c-9.811-0.017-20.341-0.034-30.592,0c-0.118-2.687-0.358-6.51,0.12-8.997C24.068,81.3,34.604,81.15,45.423,81.342z"/>
	<path style="fill-rule:evenodd;clip-rule:evenodd;" d="M96.648,81.342c0.138,2.769,0.039,5.857,0,8.878
		c-10.106,0.191-20.92,0.191-30.951,0c0.156-3.476-0.086-6.554-1.08-8.878C75.863,81.206,85.234,81.369,96.648,81.342z"/>
	<path style="fill-rule:evenodd;clip-rule:evenodd;" d="M13.752,91.659c9.772-0.265,20.099-0.044,30.472-0.12
		c0.145,2.562-0.001,6.398,0,8.997c-10.245,0.016-20.793-0.001-30.592,0C13.511,98.171,13.292,93.664,13.752,91.659z"/>
	<path style="fill-rule:evenodd;clip-rule:evenodd;" d="M65.936,91.539c10.311,0.072,20.905-0.148,30.712,0.12
		c-0.033,2.944,0.048,6.306,0,8.877c-11.301,0.039-19.316,0.047-30.831,0c-0.294-2.79-0.015-5.926-0.12-8.638
		C65.691,91.694,65.786,91.588,65.936,91.539z"/>
	<path style="fill-rule:evenodd;clip-rule:evenodd;" d="M102.286,107.015c-0.856,2.623-2.057,4.9-3.358,7.078
		c-7.547,1.964-12.185-4.643-19.194-3.119c-2.631,0.571-4.729,2.502-7.198,2.999c-2.706,0.544-5.179,0.56-7.798,0
		c-2.28-0.488-4.205-2.31-6.958-2.999c-5.539-1.387-10.53,3.344-16.315,3.358c-2.088,0.006-4.315-0.349-6.118-1.079
		c-1.916-0.777-3.505-2.118-5.398-2.399c-7.243-1.079-11.157,5.258-18.714,3.119c-1.446-2.033-2.365-4.594-3.359-7.078
		c1.392,0.599,2.234,1.237,3.478,1.56c6.052,1.565,10.159-3.274,15.956-3.359c4.786-0.071,6.86,1.852,10.557,3.119
		c1.574,0.54,4.673,0.724,6.598,0.12c3.846-1.205,6.513-3.575,12.236-3.119c4.804,0.383,8.487,3.974,13.317,3.479
		c2.012-0.206,4.054-1.489,5.519-2.16c4.319-1.975,9.442-1.588,13.316,0c2.468,1.012,4.694,2.598,8.757,2.16
		C99.369,108.504,100.652,107.641,102.286,107.015z"/>
	<path style="fill-rule:evenodd;clip-rule:evenodd;" d="M94.968,120.211c-1.007,1.872-2.351,3.408-3.719,4.918
		c-2.098-0.352-3.727-1.924-5.759-2.52c-3.643-1.067-6.396,0.134-9.957,1.8c-2.912,1.363-7.147,1.892-10.797,1.08
		c-2.933-0.652-5.808-3.387-9.598-3.479c-4.281-0.104-7.047,3.317-11.636,3.719c-1.375,0.121-2.758,0.078-3.839,0
		c-5.531-0.396-8.334-4.935-14.517-3.238c-0.898,0.246-2.026,0.771-3.119,1.319c-0.768,0.386-2.492,1.428-3.118,1.319
		c-0.628-0.108-1.675-1.758-2.16-2.399c-0.73-0.967-1.347-1.792-1.68-2.519c4.244-0.603,7.234-3.457,11.757-3.6
		c2.16-0.067,4.349,0.141,6.118,0.72c3.615,1.184,6.083,3.692,10.917,2.64c3.475-0.757,5.72-2.894,9.237-3.239
		c1.013-0.1,1.583-0.141,2.519-0.12c3.322,0.075,5.716,1.603,8.877,2.88c1.75,0.706,4.317,0.926,6.599,0.479
		c2.507-0.491,4.198-2.072,6.598-2.76c3.133-0.896,7.431-0.665,10.317,0.481C90.041,118.497,92.031,119.907,94.968,120.211z"/>
	<path style="fill-rule:evenodd;clip-rule:evenodd;" d="M87.411,128.848c-0.257,0.941-1.362,1.804-2.279,2.64
		c-0.776,0.706-2.096,2.05-2.88,2.279c-0.671,0.196-1.385-0.023-2.159,0.12c-3.678,0.675-5.808,3.075-9.957,3.359
		c-3.132,0.213-6.104-0.414-8.157-1.32c-2.233-0.984-5.759-2.968-9.838-1.919c-4.039,1.038-5.141,2.977-9.357,3.239
		c-2.646,0.164-4.771-0.146-6.719-0.84c-1.728-0.616-3.279-1.939-5.398-2.399c-0.915-0.2-1.968-0.003-2.759-0.24
		c-2.328-0.696-3.75-3.709-5.398-4.799c3.063-1.22,8.214-1.097,11.396,0.24c2.774,1.165,5.88,3.358,10.437,2.159
		c3.132-0.823,5.089-2.678,8.038-3.119c1.766-0.264,3.331-0.2,5.038,0c4.592,0.54,7.972,4.648,13.797,3.239
		c1.783-0.432,3.121-1.494,4.679-2.159C79.39,127.833,83.511,127.84,87.411,128.848z"/>
</g>
<g id="Layer_1">
</g>
</svg>
