<?xml version="1.0" encoding="iso-8859-1"?>
<!-- Generator: Adobe Illustrator 19.2.0, SVG Export Plug-In . SVG Version: 6.00 Build 0)  -->
<svg version="1.1" xmlns="http://www.w3.org/2000/svg" xmlns:xlink="http://www.w3.org/1999/xlink" x="0px" y="0px"
	 viewBox="0 0 81.553 82.179" style="enable-background:new 0 0 81.553 82.179;" xml:space="preserve">
<g id="faculdade_x5F_de_x5F_arquitetura">
	<path style="fill-rule:evenodd;clip-rule:evenodd;" d="M50.508,11.719c1.037-0.349,1.583-1.187,2.396-1.76
		c1.452-1.303,2.974-2.535,4.4-3.862c0.334-0.351,0.75-0.618,1.076-0.979c0.428-0.19,0.668-0.83,1.222-0.732
		c0.457,0.3,0.189,0.939,0.146,1.368c-0.25,2.499-0.407,5.212-0.782,7.725c-0.074,0.497-0.102,1.051-0.146,1.564
		c-0.037,0.432-0.173,1.029,0.293,1.271c1.03-0.115,1.932-0.645,2.835-1.027c2.215-0.938,4.492-1.813,6.795-2.737
		c0.401-0.161,0.874-0.586,1.369-0.342c0.206,0.488-0.16,1.009-0.342,1.417c-1.179,2.643-2.298,5.381-3.52,8.116
		c-0.162,0.361-0.54,1.066-0.44,1.368c0.205,0.62,2.011,0.252,2.787,0.196c2.104-0.151,4.103-0.212,6.16-0.392
		c0.982-0.086,2.108-0.402,2.836,0.049c-0.133,1.009-1.138,1.566-1.712,2.298c-0.585,0.784-1.242,1.496-1.907,2.2
		c-0.937,1.077-1.825,2.136-2.884,3.275c-0.27,0.291-0.862,0.778-0.831,1.174c0.056,0.712,2.003,0.856,2.689,1.026
		c2.474,0.616,4.821,1.367,7.333,1.906c0.454,0.098,1.058,0.047,1.271,0.538c-0.122,0.534-0.718,0.698-1.125,0.929
		c-2.532,1.435-5.027,2.997-7.627,4.498c-0.394,0.228-1.065,0.504-1.075,0.929c-0.015,0.614,1.906,1.534,2.347,1.808
		c2.125,1.325,4.255,2.64,6.307,4.059c0.389,0.269,0.929,0.474,1.075,0.978c-0.568,0.613-1.733,0.627-2.787,0.831
		c-0.908,0.177-1.927,0.482-2.933,0.685c-1.341,0.269-2.93,0.736-4.449,0.978c-0.55,0.088-1.116,0.174-1.174,0.587
		c-0.07,0.507,0.53,0.959,0.783,1.271c0.36,0.444,0.631,0.753,0.929,1.124c1.417,1.608,2.738,3.368,4.156,5.035
		c0.442,0.521,1.116,0.982,1.222,1.712c-0.252,0.455-0.938,0.281-1.369,0.244c-0.481-0.041-0.998-0.136-1.467-0.196
		c-2.019-0.259-4.07-0.403-6.062-0.586c-0.957-0.088-2.056-0.51-2.738,0.098c0.148,1.031,0.63,1.954,0.978,2.885
		c0.688,1.84,1.516,3.606,2.249,5.476c0.176,0.447,0.298,0.948,0.489,1.417c0.175,0.43,0.567,0.915,0.293,1.418
		c-0.975-0.034-1.89-0.6-2.738-1.026c-0.839-0.422-1.766-0.736-2.689-1.174c-1.294-0.613-2.565-1.136-4.009-1.809
		c-0.372-0.173-1.07-0.559-1.369-0.439c-0.56,0.225-0.26,2.032-0.196,2.884c0.199,2.621,0.404,5.221,0.586,7.822
		c0.034,0.472,0.194,1.07-0.195,1.369c-0.762-0.14-1.291-0.809-1.809-1.271c-1.598-1.427-3.034-3.073-4.742-4.449
		c-0.308-0.3-0.676-0.606-1.076-0.978c-0.279-0.259-0.727-0.862-1.222-0.781c-0.586,0.095-0.745,1.827-0.929,2.591
		c-0.509,2.115-0.825,3.463-1.369,5.622c-0.224,0.89-0.321,2.401-1.418,2.249c-0.732-0.102-1.192-1.373-1.613-2.103
		c-0.958-1.656-1.784-3.177-2.64-4.791c-0.41-0.773-0.809-1.632-1.516-2.151c-0.784,0.453-1.184,1.409-1.662,2.2
		c-1.021,1.688-1.863,3.041-2.933,4.791c-0.395,0.644-0.984,1.994-1.858,1.956c-0.807-0.035-0.993-1.385-1.173-2.298
		c-0.409-2.071-0.729-3.623-1.173-5.721c-0.145-0.685-0.297-2.464-0.831-2.591c-0.457-0.108-1.024,0.489-1.369,0.782
		c-1.223,1.04-2.084,1.83-3.373,2.934c-1.138,0.964-2.293,1.911-3.422,2.885c-0.356,0.279-0.693,0.838-1.222,0.781
		c-0.441-0.264-0.239-0.902-0.196-1.319c0.251-2.394,0.492-5.174,0.782-7.627c0.118-0.994,0.413-2.055,0-2.885
		c-1.037-0.06-1.932,0.53-2.836,0.88c-1.801,0.698-3.555,1.513-5.427,2.2c-0.863,0.317-1.701,0.983-2.689,0.88
		c-0.22-0.483,0.123-1.014,0.293-1.417c1.098-2.594,2.247-5.296,3.471-7.969c0.146-0.318,0.591-1.035,0.489-1.418
		c-0.176-0.661-1.945-0.271-2.689-0.195c-0.98,0.1-2.202,0.076-3.08,0.147c-1.472,0.117-2.944,0.239-4.547,0.293
		c-0.457,0.016-1.049,0.204-1.32-0.195c-0.032-0.516,0.433-0.885,0.733-1.223c0.921-1.036,1.828-2.236,2.787-3.275
		c1.042-1.143,1.803-2.048,2.836-3.227c0.261-0.298,0.822-0.789,0.782-1.223c-0.061-0.659-1.842-0.937-2.542-1.075
		c-1.196-0.236-1.89-0.376-2.884-0.733c-0.82-0.294-1.846-0.438-2.884-0.733c-0.669-0.19-2.605-0.442-2.689-0.929
		c-0.105-0.605,1.214-1.089,1.662-1.369c1.953-1.221,3.61-2.295,5.671-3.422c0.423-0.311,0.723-0.488,1.223-0.782
		c0.339-0.2,1.067-0.513,1.075-0.929c0.011-0.573-1.919-1.503-2.347-1.76c-0.456-0.274-0.866-0.521-1.271-0.783
		c-0.384-0.249-0.702-0.611-1.125-0.88c-1.132-0.721-2.477-1.527-3.764-2.347c-0.401-0.255-1.114-0.571-1.076-0.929
		c0.049-0.458,2.067-0.752,2.689-0.88c2.143-0.441,3.664-0.841,5.769-1.271c0.694-0.142,2.518-0.342,2.64-0.88
		c0.097-0.425-0.427-1.025-0.684-1.368c-1.442-1.927-3.137-3.726-4.644-5.574c-0.302-0.369-0.521-0.82-0.831-1.222
		c-0.268-0.346-0.744-0.704-0.685-1.223c0.227-0.527,0.824-0.205,1.222-0.146c2.355,0.345,4.944,0.503,7.333,0.782
		c0.924,0.108,2.016,0.418,2.738-0.098c-0.044-1.021-0.571-1.917-0.929-2.836c-0.89-2.28-1.788-4.537-2.738-6.844
		c-0.171-0.415-0.559-0.923-0.293-1.418c0.521-0.098,1.042,0.19,1.467,0.391c2.133,1.005,4.346,1.927,6.6,2.934
		c0.359,0.16,0.768,0.424,1.271,0.636c0.383,0.161,1.149,0.492,1.418,0.391c0.591-0.223,0.248-2.051,0.195-2.884
		c-0.163-2.577-0.452-5.125-0.635-7.773c-0.034-0.489-0.17-1.055,0.146-1.418c0.701,0,0.886,0.515,1.271,0.831
		c1.885,1.586,3.636,3.307,5.476,4.937c0.345,0.347,0.68,0.593,1.125,0.979c0.299,0.258,0.718,0.899,1.223,0.831
		c0.661-0.091,0.823-2.048,0.977-2.689c0.6-2.488,1.288-4.813,1.858-7.284c0.122-0.53,0.217-1.124,0.44-1.418
		c0.466-0.365,0.849,0.558,1.125,1.026c1.502,2.562,2.865,5.16,4.4,7.773c0.26,0.443,0.587,1.066,0.929,1.076
		c0.479,0.014,1.036-1.108,1.32-1.564c0.796-1.277,1.35-2.337,2.103-3.569c0.373-0.609,0.835-1.151,1.125-1.711
		c0.085-0.165,0.115-0.472,0.244-0.733c0.14-0.282,0.519-0.788,0.782-1.222c0.249-0.409,0.604-1.099,0.929-1.076
		c0.545,0.037,0.749,2.188,0.88,2.836c0.512,2.545,1.068,5.022,1.613,7.577C50.019,10.954,50.028,11.533,50.508,11.719z
		 M55.006,12.99c-0.452-0.114-0.951,0.029-1.467,0c-2.426-0.134-4.331-0.855-5.916-1.906c-0.541-0.359-1.383-1.201-1.907-1.223
		c-0.298-0.012-0.691,0.214-1.075,0.343c-1.872,0.628-4.293,0.695-6.307,0.244c-0.742-0.166-1.439-0.538-2.249-0.685
		c-0.459-0.082-1.608,0.931-2.102,1.223c-1.278,0.754-2.751,1.416-4.498,1.613c-0.881,0.1-2.021-0.142-2.835,0.146
		c-0.677,0.24-1.189,1.301-1.662,1.858c-0.631,0.743-1.195,1.258-1.76,1.712c-1.035,0.734-2.067,1.354-3.373,1.76
		c-0.438,0.136-0.982,0.192-1.32,0.441c-0.451,0.33-0.583,1.211-0.831,1.857c-0.775,2.026-1.964,3.559-3.373,4.791
		c-0.591,0.615-1.56,0.853-1.906,1.711c-0.009,3.083-0.541,5.368-1.663,7.333c-0.392,0.688-1.21,1.477-1.32,2.151
		c0.235,1.356,0.734,2.218,0.831,3.569c0.133,1.859-0.104,3.601-0.538,4.938c-0.169,0.523-0.443,0.967-0.392,1.467
		c0.075,0.723,0.78,1.21,1.174,1.907c1.119,1.978,1.779,4.449,1.613,7.431c0.426,0.79,1.223,1.229,1.858,1.76
		c1.35,1.128,2.374,2.475,3.129,4.156c0.371,0.825,0.588,1.734,1.027,2.64c0.868,0.428,1.713,0.619,2.493,1.026
		c1.524,0.796,3.013,1.82,4.009,3.08c0.509,0.644,0.882,1.486,1.711,1.858c2.294-0.084,4.165,0.345,5.867,1.075
		c0.542,0.233,1.171,0.563,1.76,0.978c0.596,0.42,1.133,1.066,1.662,1.125c0.714,0.078,1.573-0.398,2.298-0.587
		c1.639-0.425,3.679-0.376,5.231,0.049c0.68,0.187,1.532,0.742,2.249,0.685c0.432-0.035,1.146-0.693,1.613-1.027
		c1.477-1.056,3.819-1.896,6.111-1.955c0.478-0.013,1.05,0.105,1.418,0c0.656-0.189,1.119-1.209,1.613-1.858
		c0.481-0.631,1.235-1.352,1.809-1.71c1.112-0.695,2.123-1.416,3.422-1.858c0.461-0.157,1.012-0.209,1.32-0.44
		c0.475-0.356,0.641-1.376,0.88-2.005c0.292-0.769,0.622-1.345,0.88-1.858c0.752-0.715,1.208-1.726,2.004-2.396
		c0.661-0.806,1.809-1.125,2.298-2.102c-0.051-3.073,0.659-5.518,1.907-7.48c0.421-0.663,1.188-1.326,1.222-1.955
		c0.038-0.698-0.473-1.536-0.635-2.298c-0.367-1.724-0.401-3.686,0-5.378c0.147-0.621,0.731-1.689,0.684-2.298
		c-0.039-0.521-0.863-1.458-1.173-1.955c-0.844-1.355-1.426-2.783-1.662-4.596c-0.102-0.779,0.107-2.294-0.098-2.982
		c-0.16-0.538-1.285-1.245-1.809-1.711c-1.667-1.483-2.805-3.032-3.52-5.28c-0.158-0.496-0.273-1.023-0.489-1.271
		c-0.36-0.411-1.347-0.525-1.955-0.782c-2.004-0.846-3.475-2.12-4.742-3.519C56.003,14.093,55.851,13.206,55.006,12.99z"/>
</g>
<g id="Layer_1">
</g>
</svg>
