<?xml version="1.0" encoding="iso-8859-1"?>
<!-- Generator: Adobe Illustrator 21.0.2, SVG Export Plug-In . SVG Version: 6.00 Build 0)  -->
<svg version="1.1" xmlns="http://www.w3.org/2000/svg" xmlns:xlink="http://www.w3.org/1999/xlink" x="0px" y="0px"
	 viewBox="0 0 24.911 30.216" style="enable-background:new 0 0 24.911 30.216;" xml:space="preserve">
<g id="Fademesa">
	<path d="M19.878,0c1.669,1.68,3.358,3.34,5.002,5.045c0.004,3.338,0.007,6.676,0.032,10.014c-1.651-0.004-3.301,0.024-4.952,0.017
		c-0.022,1.687,0.02,3.374-0.001,5.061c-1.637,0.015-3.275,0.004-4.912,0.027c1.625,1.665,3.299,3.28,4.934,4.936
		c0.016,1.683,0.012,3.364,0.026,5.047c-4.995,0.054-9.991,0.06-14.986,0.071c-1.673-1.658-3.367-3.302-4.99-5.008
		c4.984-0.053,9.97-0.06,14.954-0.1c-0.006-1.65-0.006-3.3-0.015-4.949c-1.645,0.003-3.291,0.012-4.936,0.012
		c0.007-1.684-0.02-3.368-0.015-5.052c1.647,0.018,3.292-0.048,4.941-0.047c-0.013-1.672-0.008-3.345-0.026-5.018
		c-1.645-0.008-3.291,0.02-4.935,0.032c-0.01-1.668,0.009-3.335-0.02-5.002c1.655,0.007,3.311-0.045,4.965-0.007
		c0.013,1.652,0.003,3.305,0.013,4.956c1.645-0.004,3.291-0.004,4.936-0.02C19.898,6.675,19.881,3.338,19.878,0z"/>
	<path d="M0,5.121c1.673-0.013,3.346-0.02,5.02-0.026c0.005,1.666,0.013,3.331,0.007,4.995C3.327,8.458,1.655,6.799,0,5.121z"/>
</g>
<g id="Layer_1">
</g>
</svg>
