<?xml version="1.0" encoding="iso-8859-1"?>
<!-- Generator: Adobe Illustrator 19.2.0, SVG Export Plug-In . SVG Version: 6.00 Build 0)  -->
<svg version="1.1" xmlns="http://www.w3.org/2000/svg" xmlns:xlink="http://www.w3.org/1999/xlink" x="0px" y="0px"
	 viewBox="0 0 73.898 75.917" style="enable-background:new 0 0 73.898 75.917;" xml:space="preserve">
<g id="Fairchild">
	<path style="fill-rule:evenodd;clip-rule:evenodd;" d="M63.139,37.02c0.459-1.175,1.086-2.163,1.503-3.357
		c0.904-2.587,0.693-6.31-0.251-8.767c-0.335-0.873-0.899-1.7-1.353-2.505c-0.444-0.79-1.12-1.472-1.804-2.054
		c-1.383-1.178-2.967-2.28-4.909-2.805c-3.183-0.861-7.051-0.604-10.72-0.751c-1.209-0.048-2.478,0.156-3.707-0.15
		c0.009-0.506,0.494-0.844,0.802-1.152c4.674-4.674,9.247-9.6,14.026-14.377C57.181,0.647,57.472,0.183,57.929,0
		c5.657,1.013,9.732,4.05,12.474,7.865c2.785,3.876,4.446,10.215,2.905,16.03c-0.361,1.365-1.089,2.931-1.753,4.108
		c-0.718,1.273-1.524,2.426-2.455,3.356c-0.985,0.986-1.883,2.021-2.905,2.905c-0.52,0.45-0.938,0.978-1.453,1.453
		C64.253,36.17,63.824,36.778,63.139,37.02z"/>
	<path style="fill-rule:evenodd;clip-rule:evenodd;" d="M40.547,17.834c0.384,0.324,0.251,0.92,0.251,1.353
		c0,7.616-0.112,15.528,0.1,22.943c2.658,0.242,5.626,0.15,8.566,0.15c2.924,0,5.926-0.112,8.466,0.15
		c-0.156,0.514-0.642,0.814-1.002,1.152c-1.082,1.015-2.123,2.174-3.206,3.256c-3.903,3.904-8.042,7.534-11.923,11.672
		c-0.357,0.382-0.879,0.82-0.951,1.152c-0.122,0.562-0.042,1.376-0.05,2.054c-0.055,4.461,0.222,9.292-0.101,14.076
		c-4.495,0.188-9.504,0.1-14.076,0.101c-0.629,0-1.288,0.11-1.854-0.15c-0.299-5.462,0.099-11.62-0.2-17.082
		c-0.943-0.267-1.957-0.15-2.955-0.15c-7.025,0-14.46,0.006-21.44-0.15c-0.252-1.184-0.15-2.538-0.15-3.907
		c0-3.997-0.081-8.518,0.101-12.223c8.085-0.305,16.28,0.106,24.346-0.101c0.4-1.235,0.162-2.675,0.15-4.007
		c-0.006-0.59,0.027-1.247,0-1.904c-0.026-0.626-0.07-1.452,0.05-1.954c0.156-0.653,1.299-1.578,1.853-2.154
		c3.985-4.136,7.877-8.025,11.872-12.173C39.116,19.186,39.793,18.377,40.547,17.834z"/>
</g>
<g id="Layer_1">
</g>
</svg>
