<?xml version="1.0" encoding="iso-8859-1"?>
<!-- Generator: Adobe Illustrator 21.0.2, SVG Export Plug-In . SVG Version: 6.00 Build 0)  -->
<svg version="1.1" xmlns="http://www.w3.org/2000/svg" xmlns:xlink="http://www.w3.org/1999/xlink" x="0px" y="0px"
	 viewBox="0 0 17.685 8.708" style="enable-background:new 0 0 17.685 8.708;" xml:space="preserve">
<g id="Fairmont_x5F_Foods">
	<path d="M2.978,0.018c2.946-0.019,5.893,0.007,8.84-0.01C13.773,0,15.729,0.001,17.684,0c0.001,1.457,0,2.915,0.001,4.373
		c-0.1-0.001-0.199,0-0.298-0.001c0.008-0.719-0.185-1.439-0.556-2.055c-0.582-0.949-1.552-1.668-2.651-1.882
		c-0.274-0.051-0.552-0.093-0.832-0.085c0.009,1.904-0.005,3.809,0.012,5.714c0.029,0.778,0.015,1.558,0.025,2.336
		c0.11,0.001,0.22,0.001,0.33,0.005c0.001,0.101,0.003,0.202,0.006,0.304C10.141,8.709,6.562,8.708,2.983,8.708
		c0.005-0.102,0.008-0.204,0.011-0.306c0.468,0.003,0.941,0.003,1.399-0.104c0.68-0.158,1.313-0.498,1.827-0.968
		c0.806-0.769,1.295-1.876,1.27-2.994C7.5,3.612,7.268,2.896,6.899,2.276C6.648,1.887,6.351,1.52,5.98,1.24
		c-0.5-0.399-1.096-0.676-1.724-0.795c-0.421-0.084-0.852-0.066-1.28-0.069C2.976,0.256,2.974,0.137,2.978,0.018z M10.115,2.021
		C9.664,2.66,9.384,3.429,9.364,4.214c0.457,0.036,0.921-0.014,1.353-0.172c0.517-0.171,0.972-0.49,1.36-0.866
		c0.303-0.342,0.573-0.726,0.713-1.164c0.202-0.522,0.245-1.088,0.208-1.643C11.857,0.465,10.782,1.092,10.115,2.021z M9.362,4.562
		C9.41,5.529,9.829,6.46,10.485,7.165c0.673,0.683,1.592,1.145,2.555,1.199c0.033-0.622-0.056-1.258-0.316-1.828
		C12.513,6.1,12.229,5.688,11.85,5.38C11.18,4.784,10.258,4.468,9.362,4.562z"/>
	<path d="M2.739,1.392c0.102-0.339,0.437-0.599,0.795-0.581c0.232,0.02,0.465,0.125,0.6,0.32c0.161,0.209,0.21,0.496,0.123,0.745
		c-0.254,0.798-0.48,1.605-0.738,2.402C3.469,4.191,3.444,4.093,3.413,3.997c-0.202-0.632-0.391-1.268-0.592-1.9
		C2.737,1.875,2.663,1.628,2.739,1.392z"/>
	<path d="M1.034,1.836c0.169-0.146,0.394-0.228,0.618-0.213c0.246,0.029,0.486,0.164,0.607,0.385C2.44,2.331,2.6,2.665,2.771,2.993
		c0.153,0.25,0.274,0.517,0.412,0.775c0.098,0.18,0.192,0.362,0.275,0.549c-0.75-0.373-1.483-0.779-2.225-1.168
		C1.013,3.041,0.845,2.83,0.805,2.586C0.744,2.318,0.844,2.03,1.034,1.836z"/>
	<path d="M4.98,1.756c0.255-0.191,0.622-0.189,0.888-0.021c0.386,0.229,0.485,0.809,0.21,1.161C5.984,3.036,5.83,3.117,5.684,3.19
		C4.974,3.559,4.279,3.956,3.566,4.317C3.87,3.686,4.197,3.066,4.521,2.445C4.652,2.204,4.744,1.919,4.98,1.756z"/>
	<path d="M0.188,3.866c0.18-0.234,0.501-0.35,0.788-0.272C1.467,3.735,1.948,3.908,2.439,4.05c0.33,0.111,0.668,0.196,0.994,0.316
		C3.312,4.43,3.178,4.457,3.049,4.502C2.365,4.727,1.678,4.949,0.991,5.165C0.778,5.214,0.538,5.192,0.358,5.06
		C-0.037,4.816-0.122,4.21,0.188,3.866z"/>
	<path d="M5.576,3.731c0.278-0.083,0.564-0.226,0.861-0.15C6.742,3.648,6.98,3.914,7.036,4.218c0.095,0.418-0.219,0.872-0.64,0.94
		C6.138,5.211,5.892,5.09,5.651,5.017C5.265,4.891,4.873,4.784,4.487,4.654c-0.293-0.096-0.595-0.168-0.882-0.28
		C4.254,4.135,4.922,3.954,5.576,3.731z"/>
	<path d="M1.249,5.618C1.992,5.234,2.71,4.801,3.462,4.436C3.108,5.159,2.742,5.875,2.38,6.593C2.271,6.85,2.068,7.092,1.782,7.148
		C1.319,7.273,0.825,6.881,0.81,6.409C0.782,6.088,0.961,5.763,1.249,5.618z"/>
	<path d="M3.577,4.437c0.728,0.352,1.435,0.745,2.151,1.119C6.016,5.684,6.255,5.965,6.26,6.29c0.03,0.368-0.231,0.742-0.593,0.827
		c-0.275,0.076-0.588-0.01-0.78-0.222C4.772,6.758,4.705,6.59,4.619,6.434C4.28,5.764,3.912,5.109,3.577,4.437z"/>
	<path d="M3.514,4.471c0.026,0.053,0.05,0.109,0.068,0.166C3.755,5.18,3.925,5.725,4.093,6.27c0.078,0.28,0.195,0.549,0.242,0.836
		C4.339,7.334,4.257,7.57,4.088,7.728C3.862,7.971,3.473,8.025,3.182,7.874C2.941,7.74,2.761,7.486,2.735,7.21
		C2.716,7.024,2.79,6.849,2.845,6.676C3.079,5.944,3.27,5.199,3.514,4.471z"/>
</g>
<g id="Layer_1">
</g>
</svg>
