<?xml version="1.0" encoding="iso-8859-1"?>
<!-- Generator: Adobe Illustrator 19.2.0, SVG Export Plug-In . SVG Version: 6.00 Build 0)  -->
<svg version="1.1" xmlns="http://www.w3.org/2000/svg" xmlns:xlink="http://www.w3.org/1999/xlink" x="0px" y="0px"
	 viewBox="0 0 82.259 81.626" style="enable-background:new 0 0 82.259 81.626;" xml:space="preserve">
<g id="Farbenfabriken_x5F_Bayer_x5F_AG">
	<path style="fill-rule:evenodd;clip-rule:evenodd;" d="M73.197,15.881c-0.941,0.219-2.269,0.051-3.377,0.104
		c-1.578-1.383-2.963-2.958-4.624-4.26c-3.263-2.611-6.792-4.603-10.962-6.182c-4.188-1.586-8.948-2.603-14.65-2.39
		c-10.565,0.395-18.47,4.619-24.365,9.922c-2.333,2.099-4.25,4.287-5.974,6.91c-0.28,0.426-0.621,0.814-0.832,1.299
		c-0.207,0.477-0.395,0.962-0.675,1.455c-2.114,3.716-3.593,7.921-4.312,12.832C2.043,45.026,4.725,53.875,8.31,59.832
		c0.547,0.909,1.02,1.807,1.61,2.649c4.495,6.413,11.481,11.899,19.949,14.338c4.482,1.291,10.012,2.072,15.326,1.403
		c2.683-0.338,4.94-0.796,7.169-1.403c2.133-0.581,4.11-1.53,6.026-2.494c7.367-3.704,13.388-9.705,16.988-17.3
		c2.612-5.512,4.632-13.354,3.377-21.507c-0.187-1.208-0.384-2.436-0.728-3.533c-0.325-1.039-0.625-2.146-1.351-2.909
		c-1.657-0.059-3.636-0.097-5.507-0.052c-0.575,0.014-1.252-0.054-1.611,0.104c-0.87,0.382-0.77,1.967-1.455,2.545
		c-0.878,0.237-2.255,0.171-3.169,0c-0.065-0.673,0.381-1.244,0.624-1.818c1.227-2.901,2.645-5.824,3.896-8.78
		c0.491-1.161,0.953-2.364,1.61-3.429c0.893-0.233,2.209-0.042,3.273-0.104c1.418,1.545,2.207,3.56,3.221,5.455
		c1,1.868,1.912,3.837,2.702,5.922c1.598,4.218,2.306,9.369,1.87,15.17c-0.784,10.433-5.354,18.028-10.442,24.105
		c-4.308,4.592-9.168,8.025-15.378,10.546c-3.09,1.255-6.597,2.232-10.338,2.649c-3.863,0.43-7.847,0.246-11.845-0.364
		c-3.653-0.557-6.872-1.639-10.026-2.961c-2.951-1.238-5.799-2.939-8.156-4.78c-2.367-1.849-4.634-3.984-6.598-6.338
		c-0.482-0.577-0.863-1.281-1.351-1.922c-1.339-1.763-2.672-3.953-3.688-5.974c-2.895-5.757-4.892-13.417-4.156-21.456
		c0.72-7.857,3.05-14.093,6.598-19.326c0.894-1.318,1.776-2.589,2.753-3.74C14.375,8.789,20.923,4.249,29.09,1.75
		c2.523-0.772,5.083-1.381,8.104-1.61C50.483-0.871,60.243,3.728,67.43,9.543c1.688,1.365,3.224,2.853,4.623,4.571
		C72.49,14.65,73.155,15.147,73.197,15.881z M71.586,23.57c-0.374,0.821-0.89,1.64-0.935,2.442c0.512,0.342,1.541,0.203,2.39,0.208
		c0.871,0.004,2.053,0.203,2.441-0.312c-0.298-1.203-1.07-2.594-1.714-3.792c-0.209-0.39-0.527-1.116-0.883-1.091
		C72.383,21.601,71.989,22.686,71.586,23.57z"/>
	<path style="fill-rule:evenodd;clip-rule:evenodd;" d="M48.468,17.647c0.055,0.688,0.148,1.839-0.052,2.442
		c-1.505,0.314-3.289,0.104-4.987,0.104c-1.708,0-3.405-0.057-4.883,0.104c-0.348,0.538-0.242,1.959-0.104,2.649
		c1.355,0.367,3.237,0.208,4.936,0.208c1.746,0,3.519-0.083,5.039,0.104c0.197,0.658,0.279,2.062,0,2.702
		c-1.493,0.299-3.252,0.104-4.935,0.104c-1.686,0-3.396-0.077-4.936,0.104c-0.518,1.318,0.042,3.712-0.312,5.195
		c-0.697,0.169-2.056,0.17-2.753,0c-0.283-1.039-0.156-2.217-0.156-3.377c0-3.374-0.085-7.14,0.104-10.39
		c2.208-0.227,5.134-0.104,7.845-0.104c0.917,0,1.803,0,2.702,0C46.823,17.492,47.705,17.377,48.468,17.647z"/>
	<path style="fill-rule:evenodd;clip-rule:evenodd;" d="M62.911,24.401c0.29,0.533,0.834,0.618,1.195,1.142
		c1.418,2.066,0.303,5.091-1.507,5.871c-1.981,0.854-6.031,0.52-8.936,0.52c-1.082,0-2.123,0.117-2.961-0.156
		c-0.279-1.075-0.156-2.289-0.156-3.481c0-3.458-0.085-7.313,0.104-10.65c1.549-0.292,3.467-0.104,5.767-0.104
		c2.827,0,5.375-0.278,6.754,0.883c1.116,0.941,1.637,2.993,0.883,4.52C63.761,23.539,63.32,23.749,62.911,24.401z M56.157,23.154
		c1.978-0.028,5.288,0.637,5.195-1.455c-0.066-1.482-2.016-1.298-3.741-1.299c-1.352,0-2.7-0.04-3.74,0.052
		c-0.435,0.395-0.323,1.994-0.104,2.545C54.389,23.26,55.28,23.166,56.157,23.154z M57.04,28.921c2.22,0,4.484,0.421,4.26-1.714
		c-0.418-1.806-5.686-0.791-7.429-0.987c-0.435,0.395-0.323,1.994-0.104,2.545C54.552,29.037,55.777,28.921,57.04,28.921z"/>
</g>
<g id="Layer_1">
</g>
</svg>
