<?xml version="1.0" encoding="iso-8859-1"?>
<!-- Generator: Adobe Illustrator 19.2.0, SVG Export Plug-In . SVG Version: 6.00 Build 0)  -->
<svg version="1.1" xmlns="http://www.w3.org/2000/svg" xmlns:xlink="http://www.w3.org/1999/xlink" x="0px" y="0px"
	 viewBox="0 0 71.193 72.213" style="enable-background:new 0 0 71.193 72.213;" xml:space="preserve">
<g id="Farmaceutische_x5F_Industrie_x5F_de_x5F_Watermolen">
	<path style="fill-rule:evenodd;clip-rule:evenodd;" d="M30.853,26.546c0.596-0.209,0.847-0.826,1.141-1.244
		c0.967-1.374,2.026-2.483,3.577-3.421c1.968-1.191,4.403-1.604,7.153-2.177c3.808-0.794,7.591-1.675,11.455-2.541
		c1.285-0.287,2.635-0.475,3.784-0.881c0.654-0.23,1.301-0.866,1.348-1.71c0.05-0.907-0.607-1.798-1.296-2.074
		c-0.844-0.338-2.606-0.233-3.681-0.259c-2.714-0.064-4.864-0.088-7.619-0.052c-1.247,0.017-2.678-0.121-3.629,0.207
		c-2.328,0.804-1.274,4.169-1.659,6.843c-0.046,0.022-0.092,0.045-0.104,0.104c-1.392,0.326-3.033,0.003-4.56,0
		c-1.122-0.003-2.303,0.152-3.422,0.052c-1.17-0.106-2.365,0.203-3.369-0.312c-0.26-1.115-0.155-2.307-0.155-3.421
		c0-1.257-0.022-2.467,0.052-3.629c0.144-2.269,0.673-4.149,1.555-5.753c1.692-3.077,4.661-5.395,8.761-5.909
		c2.27-0.284,4.719,0.018,7.205-0.052c2.377-0.066,4.844,0.052,7.152,0.052c2.514-0.001,4.904-0.176,6.946,0.311
		c2.022,0.482,3.63,1.133,4.976,2.333c2.64,2.27,4.584,5.224,4.717,9.952c0.143,5.102-0.936,8.66-3.421,11.248
		c-1.322,1.377-2.587,2.033-4.562,2.8c-1.754,0.68-3.691,1.14-5.702,1.606c-2.887,0.671-5.998,1.367-8.915,2.125
		c-0.938,0.244-2.017,0.223-2.748,0.882c0.139,0.641,0.804,0.872,1.192,1.192c1.249,1.026,2.315,2.286,3.162,3.835
		c1.096,2.007,1.438,4.599,2.073,7.31c0.892,3.805,1.591,7.617,2.488,11.559c0.275,1.212,0.494,2.827,0.984,3.681
		c0.452,0.785,1.712,1.512,2.695,0.829c1.104-0.767,0.934-2.813,0.934-4.821c0-2.453-0.099-5.211,0-7.671
		c0.049-1.225,0.159-2.624-0.155-3.576c-0.143-0.433-0.502-1.045-0.778-1.244c-1.245-0.898-3.886-0.138-5.598-0.519
		c-0.351-1.85-0.033-3.872-0.104-5.909c-0.067-1.947-0.042-4.021,0.104-5.909c2.463-0.132,4.838-0.049,7.049,0.052
		c2.15,0.098,4.041,0.931,5.495,1.866c2.937,1.887,5.111,4.869,5.547,9.175c0.114,1.138-0.024,2.309,0,3.524
		c0.023,1.147,0.054,2.283,0.052,3.421c-0.006,2.412-0.112,4.861,0,7.257c0.112,2.411,0.214,5.196-0.156,7.102
		c-0.382,1.974-1.397,3.647-2.436,4.925c-2.318,2.851-5.41,4.51-10.264,4.51c-2.621,0-4.57-0.163-6.376-0.985
		c-1.672-0.762-2.987-1.706-4.25-3.11c-2.337-2.598-2.997-6.891-3.939-10.833c-0.463-1.938-1.043-3.91-1.503-5.857
		c-0.233-0.987-0.549-1.942-0.778-2.903c-0.229-0.961-0.304-2.015-0.881-2.799c-0.685,0.107-0.911,0.837-1.244,1.296
		c-0.36,0.497-0.816,0.89-1.192,1.348c-1.422,1.521-3.352,2.591-5.598,3.266c-1.146,0.344-2.396,0.494-3.629,0.83
		c-1.171,0.318-2.396,0.569-3.576,0.829c-3.549,0.779-7.125,1.719-10.679,2.592c-1.106,0.271-2.247,0.7-2.54,1.866
		c-0.157,1.143,0.538,2.146,1.607,2.384c2.036,0.454,4.427,0.05,7.153,0.104c1.312,0.026,2.575,0,3.733,0
		c2.418,0.001,4.453,0.263,5.027-1.503c0.556-1.706-0.219-4.086,0.311-5.909c2.789-0.204,5.996-0.106,8.76-0.052
		c0.967,0.019,1.943-0.135,2.799,0.155c0.343,5.06,0.418,9.536-1.451,12.959c-1.652,3.026-4.584,5.609-8.656,6.116
		c-1.127,0.141-2.332,0.156-3.577,0.155c-3.615-0.001-7.151-0.052-10.781-0.052c-2.657,0.001-5.024,0.095-7.05-0.259
		c-1.967-0.343-3.688-1.282-5.027-2.333c-2.763-2.166-4.718-5.428-4.718-10.056c0-1.259-0.085-2.489,0-3.628
		c0.249-3.311,1.74-5.525,3.629-7.413c1.33-1.329,2.745-2.141,4.613-2.799c1.775-0.626,3.787-1.066,5.754-1.607
		c1.412-0.389,2.826-0.907,4.25-1.348c0.486-0.149,1.007-0.185,1.504-0.311c1.959-0.499,3.976-0.87,5.649-1.711
		c-0.086-0.644-0.754-0.884-1.141-1.192c-1.263-1.008-2.324-2.218-3.161-3.783c-1.088-2.031-1.542-4.454-2.022-7.205
		c-0.45-2.578-1.003-5.091-1.555-7.724c-0.238-1.137-0.536-2.51-0.829-3.784c-0.47-2.039-0.435-4.661-2.592-4.925
		c-0.96,0.047-1.844,0.649-2.125,1.608c-0.266,0.903-0.214,2.481-0.208,3.681c0.014,2.468-0.104,4.991,0,7.619
		c0.046,1.132-0.137,2.714,0.156,3.577c0.228,0.675,0.827,1.178,1.399,1.399c1.548,0.599,3.936-0.24,5.598,0.362
		c0.111,2.721,0.052,6,0.052,9.02c0,0.985,0.116,1.986-0.155,2.852c-1.552,0.192-3.088,0.095-4.458,0.052
		c-1.535-0.049-3.062,0.123-4.458-0.207c-2.574-0.61-4.415-1.872-6.013-3.37c-1.698-1.593-2.868-3.427-3.473-5.909
		c-0.577-2.371-0.468-5.813-0.362-8.863C0.314,18.083-0.803,10.81,1.36,6.641C2.984,3.509,5.551,1.506,9.29,0.524
		c1.315-0.346,2.802-0.273,4.405-0.466c1.669-0.202,3.524,0.146,4.873,0.621c3.927,1.383,6.569,4.532,7.826,8.501
		c0.871,2.748,1.502,5.786,2.178,8.761c0.512,2.251,1.072,4.452,1.555,6.635C30.277,25.249,30.328,26.051,30.853,26.546z
		 M16.754,36.031c-0.049-1.022,0.379-3.076-0.155-3.628c-0.334-0.345-1.103-0.199-1.659-0.208c-2.106-0.03-3.326-0.461-4.251-1.71
		C9.663,29.1,9.861,26.528,9.86,24.109c0-2.652,0.144-5.38,0.052-8.034c-0.049-1.43-0.016-2.79,0.415-3.732
		c0.759-1.658,3.338-3.227,5.599-1.918c1.721,0.996,2.12,3.428,2.592,5.754c0.83,4.101,1.756,7.951,2.539,11.922
		c0.279,1.415,0.465,2.774,0.777,3.991c0.618,2.398,2.139,4.431,3.836,5.806c0.833,0.674,2.067,1.413,3.318,1.399
		c0.771-0.497,0.726-1.498,0.726-2.332c-0.001-2.005,0.066-4.02-0.156-5.754c-0.117-0.919-0.386-1.687-0.569-2.488
		c-0.735-3.192-1.596-6.764-2.333-9.952c-0.772-3.339-1.457-6.82-2.54-9.693c-1.121-2.976-3.036-5.153-6.013-6.272
		c-1.351-0.506-2.551-0.632-4.251-0.674c-0.845-0.019-1.716-0.111-2.539-0.052c-3.08,0.227-4.773,1.524-6.428,3.214
		c-1.547,1.579-2.662,3.741-2.799,6.636c-0.07,1.468,0.036,2.985,0,4.509c-0.077,3.171-0.098,6.205-0.053,9.175
		c0.024,1.572-0.067,3.166,0.053,4.718c0.373,4.844,3.995,8.666,8.449,9.382c1.008,0.162,2.054,0.187,3.109,0.207
		c0.951,0.02,2.021,0.193,3.007-0.259C16.805,38.612,16.813,37.265,16.754,36.031z M33.031,33.492
		c0.877-0.89,2.474-1.482,4.043-0.778c0.774,0.348,1.123,1.122,2.022,1.244c0.506-0.503,0.488-1.256,0.829-1.814
		c0.513-0.838,1.251-1.308,2.073-1.813c2.735-0.807,5.501-1.4,8.242-2.126c2.771-0.734,5.556-1.3,8.294-2.073
		c1.453-0.41,2.8-0.719,4.043-1.141c3.718-1.26,6.057-4.405,6.635-8.915c0.412-3.218-0.291-6.497-1.556-8.604
		c-1.3-2.167-3.298-3.86-5.753-4.614c-1.309-0.401-3.072-0.466-4.718-0.466c-1.651,0-3.385-0.052-5.027-0.052
		c-3.509,0-7-0.154-10.315,0c-4.07,0.189-6.581,1.729-8.293,4.25c-1.31,1.93-1.763,4.33-1.763,7.62c0,0.979-0.144,2.019,0.207,2.954
		c0.861,0.499,2.123,0.201,3.577,0.26c0.914,0.036,3.208,0.343,3.731-0.155c0.43-0.408,0.226-1.596,0.26-2.385
		c0.088-2.096,0.71-3.278,2.021-4.043c1.27-0.74,3.068-0.622,5.08-0.622c2.587,0,5.435-0.054,7.931,0.052
		c1.229,0.052,2.97-0.107,3.835,0.155c1,0.304,1.997,1.322,2.436,2.229c0.81,1.669,0.371,3.564-0.777,4.665
		c-1.017,0.974-2.263,1.141-3.888,1.503c-0.828,0.184-1.667,0.418-2.437,0.57c-3.371,0.669-6.665,1.482-9.952,2.125
		c-3.054,0.597-6.062,1.175-8.086,2.695c-1.742,1.31-3.619,4.124-3.836,6.946c-0.068,0.882-0.078,2.014,0.155,3.059
		C32.574,34.281,32.763,33.763,33.031,33.492z M41.427,36.188c0.055,1.433-0.134,2.853,0,4.146c0.086,0.829,0.418,1.759,0.675,2.644
		c0.767,2.646,1.376,5.504,2.021,8.086c0.872,3.488,1.759,7.182,2.748,10.678c1.009,3.565,2.802,6.094,5.909,7.517
		c2.969,1.359,8.724,1.094,11.403-0.519c2.668-1.604,4.873-4.401,4.873-8.553c-0.001-4.39-0.053-8.779-0.052-13.321
		c0-2.449,0.082-4.633-0.26-6.428c-0.357-1.882-1.176-3.26-2.229-4.51c-2.063-2.449-5.357-3.791-9.9-3.576
		c-0.457,0.021-1.218-0.004-1.607,0.207c-0.274,1.011-0.155,2.344-0.155,3.629c0,1.295-0.122,2.659,0.155,3.68
		c1.045,0.344,2.406,0.013,3.421,0.363c0.814,0.28,1.887,1.273,2.281,2.073c0.953,1.93,0.57,5.708,0.57,8.656
		c0,1.55,0,3.036,0,4.613c0,1.568,0.116,3.312-0.26,4.354c-0.37,1.028-1.542,2.103-2.592,2.385
		c-1.971,0.529-3.908-0.714-4.561-2.126c-0.347-0.749-0.564-1.804-0.778-2.747c-0.665-2.938-1.242-5.937-1.918-8.812
		c-0.444-1.896-0.968-3.855-1.347-5.754c-0.397-1.98-0.863-3.966-1.659-5.495c-1.118-2.147-3.376-4.007-6.013-4.561
		C41.144,33.35,41.379,34.899,41.427,36.188z M33.704,35.928c-0.033,1.236,0.943,1.978,2.384,1.918
		c0.67-0.263,1.114-0.752,1.4-1.399C37.9,33.473,33.766,33.57,33.704,35.928z M31.89,37.794c-0.386,1.412-0.761,2.833-1.814,3.576
		c-0.977,0.612-2.016,0.914-3.266,1.244c-2.497,0.662-5.155,1.361-7.619,2.074c-3.338,0.965-6.896,1.866-10.005,2.902
		c-3.215,1.071-5.461,3.093-6.583,6.324c-0.58,1.672-0.55,3.807-0.518,5.908c0.032,2.141,0.574,3.703,1.347,5.132
		c1.366,2.526,4.193,4.906,7.775,5.132c2.128,0.135,4.206,0.033,6.273,0.052c2.058,0.02,4.085,0,6.271,0
		c2.329,0.001,4.453,0.064,6.324-0.104c1.87-0.167,3.489-0.768,4.82-1.658c2.505-1.678,4.315-4.337,4.562-8.397
		c0.099-1.634,0.058-3.474-0.26-4.821c-1.091-0.314-2.455-0.096-3.732-0.155c-1.281-0.06-2.588-0.1-3.628,0.105
		c-0.373,1.616-0.041,3.051-0.415,4.302c-0.326,1.093-1.133,2.03-2.177,2.54c-1.82,0.889-5.675,0.363-8.656,0.363
		c-2.891,0-6.147,0.433-8.19-0.363c-1.707-0.665-3.161-3.137-2.177-5.495c0.981-2.349,4.099-2.699,6.79-3.369
		c4.051-1.008,8.227-1.859,12.233-2.799c0.852-0.2,1.721-0.325,2.488-0.57c2.497-0.796,4.497-2.206,5.909-4.146
		c0.987-1.357,1.849-3.411,1.865-5.702c0.006-0.651,0.057-1.485-0.311-2.125c-0.454-0.073-0.659,0.429-0.881,0.674
		c-0.878,0.971-2.475,1.68-4.199,0.933c-0.373-0.161-0.755-0.535-1.088-0.881c-0.291-0.301-0.634-0.882-1.037-0.829
		C31.928,37.659,31.888,37.705,31.89,37.794z"/>
</g>
<g id="Layer_1">
</g>
</svg>
