<?xml version="1.0" encoding="iso-8859-1"?>
<!-- Generator: Adobe Illustrator 21.0.2, SVG Export Plug-In . SVG Version: 6.00 Build 0)  -->
<svg version="1.1" xmlns="http://www.w3.org/2000/svg" xmlns:xlink="http://www.w3.org/1999/xlink" x="0px" y="0px"
	 viewBox="0 0 14.569 29.656" style="enable-background:new 0 0 14.569 29.656;" xml:space="preserve">
<g id="Fascar">
	<path d="M12.274,0.651c0.418-0.04,0.736-0.31,0.957-0.651c0.002,0.049,0.006,0.147,0.008,0.196
		c0.045-0.014,0.091-0.027,0.137-0.038c-0.264,0.915,0.881,1.469,1.193,2.206c-0.021,0.368-0.41,0.547-0.738,0.466
		c-0.231-0.414-0.767-0.565-1.209-0.618c-0.415,0.569-0.302,1.353-0.557,1.998c-0.209,0.458-0.034,0.949-0.013,1.416
		c-0.229,0.481-0.339,1.105-0.861,1.359c-0.367,0.716-0.357,1.559-0.627,2.313c-0.284,0.684-0.054,1.493,0.651,1.774
		c0.911,0.005,1.823,0.008,2.735,0.008c-0.016,1.276,0.046,2.558-0.039,3.83c-0.203-0.004-0.406-0.007-0.609-0.005
		c-0.414-0.911-0.895-1.825-1.667-2.486c-1.675-1.435-4.016-0.879-6.029-0.991c-0.011,2.805-0.018,5.61-0.019,8.415
		c0.947,0.001,1.952,0.1,2.827-0.345c1.015-0.486,1.571-1.56,1.874-2.594c0.083-0.004,0.166-0.005,0.25-0.005
		c-0.004,2.11-0.003,4.22-0.005,6.33c-0.094-0.001-0.187,0.001-0.28,0.003c-0.298-1.148-0.937-2.346-2.113-2.78
		c-0.814-0.297-1.698-0.197-2.548-0.209c-0.019,3.136-0.052,6.271-0.042,9.409c-1.848,0.009-3.697-0.008-5.545-0.018
		C0.003,29.506,0.002,29.378,0,29.25c0.587-0.026,1.204,0.051,1.773-0.034c0.022-5.932,0.067-11.865,0.059-17.798
		c-0.592-0.02-1.186,0.013-1.776-0.036c-0.001-0.121-0.002-0.24-0.003-0.36c1.175-0.003,2.35,0.006,3.525,0.003
		c-0.016-0.084-0.031-0.164-0.047-0.245c0.027-0.032,0.053-0.063,0.08-0.093C3.251,10.411,3.6,9.98,3.564,9.621
		c0.097-0.476-0.047-0.965,0.02-1.435c0.358-0.322,1.007-0.683,0.815-1.261C4.105,6.035,3.709,5.041,4.235,4.157
		C3.051,4.276,3.911,5.835,3.364,6.525c-0.468,0.6-0.559,1.4-0.968,2.025C2.41,8.376,2.44,8.206,2.467,8.034
		c-0.075,0.094-0.151,0.188-0.23,0.28C1.92,7.3,2.756,6.402,2.556,5.39C2.539,4.88,2.655,4.302,3.089,3.983
		c0.422-0.261,0.934-0.137,1.375-0.007c0.751-0.086,1.479-0.502,2.25-0.312c0.813,0.143,1.764,0.341,2.484-0.178
		C9.196,3.447,9.192,3.367,9.189,3.328C9.255,3.285,9.321,3.241,9.386,3.2C9.312,3.153,9.239,3.11,9.166,3.066
		c0.14-0.047,0.28-0.09,0.421-0.131C9.59,2.908,9.597,2.856,9.6,2.83C9.541,2.803,9.482,2.778,9.424,2.754
		c0.135-0.055,0.268-0.115,0.398-0.18C9.812,2.517,9.804,2.461,9.795,2.405c0.131-0.012,0.262-0.019,0.393-0.035
		c-0.06-0.034-0.119-0.069-0.177-0.102c0.027-0.02,0.054-0.039,0.082-0.056c-0.004-0.045-0.008-0.089-0.011-0.131
		C10.878,1.711,11.486,1.033,12.274,0.651z M6.295,6.513C6.171,6.723,6.131,6.998,5.905,7.13C5.307,7.543,4.923,8.197,4.284,8.556
		c-0.54,0.5-0.233,1.276-0.4,1.904c0.13,0.172,0.237,0.361,0.31,0.564c2.019,0.022,4.037,0.013,6.056,0.022
		c0.025-0.102,0.051-0.202,0.075-0.302c-0.229-0.038-0.435-0.176-0.353-0.436c0.207-1.091,0.307-2.215,0.117-3.311
		C8.825,6.79,7.518,6.991,6.295,6.513z"/>
</g>
<g id="Layer_1">
</g>
</svg>
