<?xml version="1.0" encoding="iso-8859-1"?>
<!-- Generator: Adobe Illustrator 19.2.0, SVG Export Plug-In . SVG Version: 6.00 Build 0)  -->
<svg version="1.1" xmlns="http://www.w3.org/2000/svg" xmlns:xlink="http://www.w3.org/1999/xlink" x="0px" y="0px"
	 viewBox="0 0 82.721 57.778" style="enable-background:new 0 0 82.721 57.778;" xml:space="preserve">
<g id="federation_x5F_horlogere_x5F_biel">
	<path style="fill-rule:evenodd;clip-rule:evenodd;" d="M33.303,0.208c0.16,3.45,0.161,7.571,0,11.021
		c-6.896,0.218-14.294-0.126-21.464,0.097c-0.312,0.864-0.217,1.916-0.192,2.9c0.071,2.962-0.087,6.037,0.145,8.846
		c0.845,0.262,1.77,0.146,2.659,0.146c2.637,0.001,5.486-0.019,8.218,0.097c3.658,0.154,7.21-0.255,10.587,0.097
		c0.16,3.535,0.167,7.86,0,11.36c-7.036,0.252-14.06-0.129-21.416,0.097c-0.432,7.31,0.138,15.354-0.192,22.72
		C8.05,57.781,3.888,57.685,0.19,57.637C-0.063,40.896,0.044,23.992,0.044,7.073c0-1.233,0-2.463,0-3.674
		c0-1.123-0.148-2.263,0.098-3.336C11.182-0.011,22.169,0.071,33.303,0.208z M17.013,0.402c-5.275-0.001-11.143-0.135-16.437,0
		C0.194,0.824,0.335,1.439,0.335,1.949c0.002,18.573-0.027,36.908,0.193,55.204c0.75,0.229,1.607,0.146,2.465,0.146
		c2.713,0,5.637,0.04,8.219-0.048c0.35-0.851,0.18-1.807,0.144-2.707c-0.036-0.896,0.056-1.8,0.048-2.708
		c-0.064-7.728-0.097-15.81-0.097-23.493c0-4.903,0-9.797,0-14.647c0-0.914-0.084-1.876,0.144-2.755
		c6.701-0.182,14.545,0.199,21.464-0.097c0.258-1.527,0.145-3.345,0.145-5.124c0.001-1.799,0.103-3.622-0.145-5.173
		C27.859,0.402,22.494,0.402,17.013,0.402z"/>
	<path style="fill-rule:evenodd;clip-rule:evenodd;" d="M47.467,0.159c0.258,1.817,0.145,3.737,0.145,5.656
		c0,5.683-0.079,11.735,0.097,17.306c1.815,0.273,3.727,0.144,5.656,0.097c5.776-0.142,11.912,0.186,17.596-0.097
		c0.154-0.895,0.148-1.867,0.145-2.804c-0.022-6.731-0.141-13.551,0.048-20.206c3.777-0.21,7.743-0.061,11.408-0.049
		c0.189,18.831,0.192,38.672,0.097,57.525c-3.702,0.223-7.852,0.044-11.408,0.049c-0.286-7.185-0.035-15.173-0.193-22.672
		c-0.043-0.021-0.086-0.043-0.097-0.097c-7.668-0.176-15.743-0.152-23.155,0.048c-0.263,0.875-0.145,1.839-0.145,2.756
		c0,6.248,0.078,13.507-0.097,19.965c-3.83,0.123-8.215,0.221-12.037,0.048c-0.302-2.324-0.103-4.714-0.097-7.106
		c0.031-12.242-0.099-24.227-0.097-36.062c0.001-3.677,0.032-7.387,0.048-10.877c0.006-1.159-0.222-2.342,0.098-3.48
		C39.118,0.025,43.801-0.042,47.467,0.159z M79.758,0.353c-2.604,0-5.816-0.039-8.169,0.049c-0.329,0.456-0.194,1.082-0.194,1.595
		c0.002,16.149-0.026,32.326,0.098,48.244c0.018,2.315-0.223,4.65,0.097,6.912c0.784,0.254,1.701,0.146,2.61,0.146
		c1.837,0,3.724,0,5.511,0c0.91,0,1.825,0.113,2.61-0.146c0.185-18.985,0.077-37.848-0.049-56.655
		C81.506,0.241,80.628,0.353,79.758,0.353z"/>
</g>
<g id="Layer_1">
</g>
</svg>
