<?xml version="1.0" encoding="iso-8859-1"?>
<!-- Generator: Adobe Illustrator 19.2.0, SVG Export Plug-In . SVG Version: 6.00 Build 0)  -->
<svg version="1.1" xmlns="http://www.w3.org/2000/svg" xmlns:xlink="http://www.w3.org/1999/xlink" x="0px" y="0px"
	 viewBox="0 0 76.973 77.385" style="enable-background:new 0 0 76.973 77.385;" xml:space="preserve">
<g id="Felix_x5F_Handschin">
	<path style="fill-rule:evenodd;clip-rule:evenodd;" d="M76.973,35.405c-4.417,0.297-9.393-0.049-13.709,0.241
		c-0.254,1.004-0.144,2.127-0.144,3.234c-0.001,3.261,0.079,6.893-0.097,10.041c-3.161,0.145-6.987,0.277-10.523,0.144
		c-1.127-0.042-2.252,0.097-3.234-0.144c-0.175-3.13-0.097-6.7-0.097-10.041c0-1.108,0.109-2.229-0.145-3.234
		c-4.475-0.161-9.621-0.161-14.095,0c-0.27,1.701-0.145,3.437-0.145,5.165c0,1.714-0.065,3.443,0,5.165
		c0.063,1.703-0.108,3.44-0.048,5.165c0.059,1.703,0.082,3.427,0.048,5.117c-0.138,6.952,0.11,14.032-0.145,21.095
		c-1.38,0.14-2.721-0.215-3.958-0.483c-7.548-1.633-13.55-5.009-18.343-9.461c-0.783-0.728-1.459-1.591-2.221-2.414
		c-2.921-3.157-5.329-6.9-7.192-11.344C1.1,49.301-0.211,43.825,0.028,38.156c0.129-3.073,0.437-5.711,1.014-8.254
		c1.702-7.505,5.201-13.108,9.751-18.005c2.948-3.173,6.468-5.894,10.668-7.869c4.225-1.987,9.062-3.625,14.723-3.958
		c6.558-0.386,11.892,0.858,16.413,2.655c4.563,1.814,8.442,4.288,11.826,7.241c4.888,4.579,8.904,10.192,11.103,17.475
		C76.255,29.857,76.878,32.507,76.973,35.405z"/>
	<path style="fill-rule:evenodd;clip-rule:evenodd;" d="M62.974,63.161c0.219,1.257,0.048,2.659,0.097,4.2
		c0.016,0.485,0.118,1.013,0,1.352c-0.124,0.356-0.979,0.934-1.399,1.255c-3.447,2.638-7.816,4.83-12.358,6.13
		c-0.309-0.961-0.114-2.075-0.145-3.186c-0.07-2.541,0-5.41,0-8.254c0-0.523-0.115-1.089,0.145-1.544
		C53.273,63.018,58.795,63.001,62.974,63.161z"/>
</g>
<g id="Layer_1">
</g>
</svg>
