<?xml version="1.0" encoding="iso-8859-1"?>
<!-- Generator: Adobe Illustrator 19.2.0, SVG Export Plug-In . SVG Version: 6.00 Build 0)  -->
<svg version="1.1" xmlns="http://www.w3.org/2000/svg" xmlns:xlink="http://www.w3.org/1999/xlink" x="0px" y="0px"
	 viewBox="0 0 96.222 128.995" style="enable-background:new 0 0 96.222 128.995;" xml:space="preserve">
<g id="Fenchurch_x5F_fashion">
	<path style="fill-rule:evenodd;clip-rule:evenodd;" d="M96.073,0.005c0.301,3.792,0.039,9.366,0.12,13.549
		c-15.69,0.376-27.49,4.644-37.051,11.151c2.902,3.332,5.688,6.782,8.394,10.311c7.827-4.163,16.727-7.893,28.537-7.674
		c0.199,4.238,0.199,9.311,0,13.549c-8.634,0.171-16.048,2.568-21.583,6.235c1.705,4.051,3.347,8.164,4.677,12.59
		c4.778-2.576,9.608-5.1,16.906-5.156c0.055,4.888,0.224,8.184,0,13.31c-6.92,0.379-12.356,4.761-13.669,10.792
		c-0.87,3.995-0.345,9.608-0.359,14.748c-0.036,12.413,0.252,25.371,0,35.372c-4.238,0.279-8.992,0.041-13.43,0.12
		c-1.313-23.791,3.026-54.153-4.796-71.823c-2.112,1.67-3.508,4.203-4.677,6.595c-1.214,2.486-2.251,5.22-2.997,8.153
		c-1.543,6.062-1.027,13.111-1.079,20.024c-0.096,12.714-0.14,23.587-0.12,36.93c-4.326,0.295-8.933,0.066-13.549,0.12
		c-0.467-14.944-0.074-32.04-0.24-47.842c-0.104-9.934-3.497-18.111-8.633-24.1c-4.78,9-4.917,21.204-4.916,33.933
		c0,12.865,0.058,26.018-0.12,38.01c-4.531-0.092-8.7,0.249-13.43,0c-0.309-11.194,0.008-24.227-0.12-36.211
		C13.867,85.95,14.67,78.928,11.9,74.465c-2.333-3.759-6.346-6.126-11.75-6.595c-0.236-4-0.067-8.816,0-13.189
		c6.85-0.095,12.167,2.381,16.546,5.156c1.373-2.818,2.274-6.197,3.598-9.472c0.235-0.582,1.394-2.482,1.319-2.997
		c-0.111-0.752-2.678-1.895-3.718-2.399C13.039,42.618,6.4,41.042,0.15,40.892c0.013-4.318-0.199-8.667,0-13.549
		c11.6-0.047,20.784,3.354,28.297,7.794c2.196-2.451,4.106-5.063,6.475-7.794c0.471-0.542,2.212-1.889,2.158-2.518
		c-0.059-0.7-2.621-1.975-3.597-2.518c-8.816-4.908-20.47-8.648-33.333-8.633c-0.198-4.239-0.201-9.31,0-13.549
		c19.179,0.029,33.467,5.824,45.563,13.669c0.636,0.413,2.091,1.541,2.397,1.559c0.858,0.049,3.701-2.275,4.797-2.998
		c7.811-5.151,17.091-9.151,27.938-11.031C85.606,0.499,91.032-0.059,96.073,0.005z M45.713,51.564
		c0.356,0.551,2.02,3.763,2.518,3.717c0.423-0.039,0.945-1.538,0.959-1.559c1.831-2.875,3.171-4.914,5.276-7.314
		c0.635-0.725,2.295-1.797,2.278-2.758c-0.006-0.307-1.336-2.149-1.799-2.758c-2.109-2.772-4.621-5.713-6.835-7.434
		c-3.11,3.244-6.263,6.447-8.633,10.432C41.79,46.377,43.874,48.725,45.713,51.564z"/>
</g>
<g id="Layer_1">
</g>
</svg>
