<?xml version="1.0" encoding="iso-8859-1"?>
<!-- Generator: Adobe Illustrator 19.2.0, SVG Export Plug-In . SVG Version: 6.00 Build 0)  -->
<svg version="1.1" xmlns="http://www.w3.org/2000/svg" xmlns:xlink="http://www.w3.org/1999/xlink" x="0px" y="0px"
	 viewBox="0 0 75.473 50.458" style="enable-background:new 0 0 75.473 50.458;" xml:space="preserve">
<g id="Fernsehgeratewerke_x5F_Stassfurt">
	<path style="fill-rule:evenodd;clip-rule:evenodd;" d="M63.93,0.177c0.21,4.467-0.004,9.639,0.146,14.524
		c0.811,0.339,1.751,0.151,2.681,0.195c2.677,0.125,5.763-0.192,8.578,0.098c0.125,1.777,0.238,3.987,0,5.604
		c-3.558,0.31-7.652-0.189-11.161,0.195c-0.264,2.403-0.146,4.931-0.146,7.408c0,5.087-0.083,9.998,0,14.816
		c0.043,2.457,0.188,4.946-0.097,7.359c-0.868,0.088-1.885,0.049-2.875,0.049c-0.969,0-1.979,0.114-2.729-0.146
		c-0.049-1.256-0.102-2.547-0.049-3.801c0.052-1.214,0-2.405,0-3.607c0-2.467,0.042-4.929-0.049-7.408
		c-0.182-4.947,0.293-9.951-0.097-14.67c-6.505-0.271-13.238-0.098-19.934-0.098c-6.711,0-13.411-0.134-19.934,0
		c-0.263,1.302-0.146,2.882-0.146,4.435c0,1.538-0.079,3.131,0.098,4.484c0.627,0.262,1.332,0.146,1.998,0.146
		c10.402,0.001,21.344,0.024,31.631,0.146c0.178,3.289,0.097,6.793,0.097,10.284c0,3.459,0.129,6.936-0.097,10.137
		c-16.012,0.185-31.892,0.096-48.542,0.098c-1.036,0-2.109,0.119-3.12-0.098c-0.05-4.272-0.247-8.5-0.146-12.72
		c0.29-12.086-0.276-25.054,0.098-37.382C5.558-0.167,11.137,0.331,16.557,0.08c3.855-0.179,8.208-0.001,11.941,0
		C40.111,0.081,52.137,0.033,63.93,0.177z M33.274,5.928c-9.089-0.001-18.65-0.165-27.342,0.098
		c-0.184,12.85-0.14,26.041,0.049,38.405c0.761,0.261,1.604,0.146,2.388,0.146c5.944,0,11.833-0.268,17.741,0
		c5.032,0.228,10.088-0.163,14.914,0.049c1.672,0.073,3.375,0.056,5.02-0.146c0.177-1.338,0.098-2.913,0.098-4.436
		c0-1.54,0.112-3.094-0.146-4.386c-11.053-0.254-22.629,0.032-33.58-0.244c-0.119-6.566-0.111-13.692,0.048-20.421
		c1.833-0.265,3.728-0.147,5.605-0.147c11.423,0,23.316,0,34.458,0c1.876,0,3.771,0.176,5.605-0.097
		c0.177-1.328,0.097-2.901,0.097-4.435c0-1.535,0.103-3.068-0.146-4.289C50.029,5.841,41.673,5.93,33.274,5.928z"/>
</g>
<g id="Layer_1">
</g>
</svg>
