<?xml version="1.0" encoding="iso-8859-1"?>
<!-- Generator: Adobe Illustrator 19.2.0, SVG Export Plug-In . SVG Version: 6.00 Build 0)  -->
<svg version="1.1" xmlns="http://www.w3.org/2000/svg" xmlns:xlink="http://www.w3.org/1999/xlink" x="0px" y="0px"
	 viewBox="0 0 79.737 39.007" style="enable-background:new 0 0 79.737 39.007;" xml:space="preserve">
<g id="Ferrante_x5F_Petroli">
	<path style="fill-rule:evenodd;clip-rule:evenodd;" d="M38.348,0.116c0.206,3.845,0.164,8.098,0,12.128
		c-6.235,0.182-12.712,0.099-19.136,0.099c-6.423,0-12.871,0.12-19.037-0.149c-0.231-2.731-0.05-6.049-0.05-9.096
		c0-0.846-0.105-2.544,0.149-2.983c0.037-0.046,0.091-0.075,0.149-0.099C12.998,0.083,25.862-0.116,38.348,0.116z"/>
	<path style="fill-rule:evenodd;clip-rule:evenodd;" d="M79.651,0.166c0.143,8.601,0.097,17.553-0.05,26.691
		c-8.487,0.317-17.637-0.11-26.293,0.198c-0.268,0.885-0.149,1.882-0.149,2.883c0,2.949,0.007,6.137-0.148,8.947
		c-3.953,0.194-7.965,0.112-11.78-0.05c-0.141-7.628-0.218-16.107,0.05-23.708c8.674-0.211,17.782,0.1,26.193-0.149
		c0.262-0.536,0.186-1.821,0.05-2.435c-1.038-0.268-2.144-0.149-3.23-0.149c-2.191,0-4.409,0-6.66,0
		c-4.464,0-8.556-0.05-13.171-0.05c-1.065,0-2.155,0.119-3.182-0.149c-0.243-2.754-0.037-6.104-0.05-9.195
		c-0.003-0.809-0.119-2.462,0.149-2.883c0.037-0.046,0.091-0.075,0.15-0.099C54.298,0.055,67.275-0.081,79.651,0.166z"/>
	<path style="fill-rule:evenodd;clip-rule:evenodd;" d="M38.348,15.126c0.165,3.664,0.165,8.017,0,11.681
		c-1.06,0.27-2.186,0.149-3.281,0.149c-7.867,0-15.213-0.131-22.863,0.05c-0.261,0.91-0.149,1.941-0.149,2.982
		c0,3.01,0.04,6.334-0.1,8.897c-3.788,0.172-8.164,0.171-11.78-0.05c-0.269-0.93-0.148-1.939-0.148-2.932
		c0-6.048-0.013-11.908,0.05-17.943c0.01-0.971-0.13-1.956,0.148-2.883C12.181,15.086,26.129,14.899,38.348,15.126z"/>
</g>
<g id="Layer_1">
</g>
</svg>
