<?xml version="1.0" encoding="iso-8859-1"?>
<!-- Generator: Adobe Illustrator 19.2.0, SVG Export Plug-In . SVG Version: 6.00 Build 0)  -->
<svg version="1.1" xmlns="http://www.w3.org/2000/svg" xmlns:xlink="http://www.w3.org/1999/xlink" x="0px" y="0px"
	 viewBox="0 0 83.182 83.49" style="enable-background:new 0 0 83.182 83.49;" xml:space="preserve">
<g id="Fiacao_x5F_Indiana">
	<path style="fill-rule:evenodd;clip-rule:evenodd;" d="M82.87,0.107c0.279,1.728,0.154,3.752,0.154,5.748
		c0,1.98,0.086,4.018-0.103,5.8c-3.541,0.259-7.156,0.155-10.822,0.155c-10.897,0.002-22.219-0.017-32.988,0.208
		c-0.162,4.997-0.176,10.522,0,15.588c0.848,0.281,1.777,0.154,2.641,0.154c13.809,0.001,27.625-0.203,41.223,0.053
		c0.172,1.826,0.104,3.875,0.104,5.903c0,2.04,0.123,4.138-0.156,5.955c-14.375,0.227-29.318-0.034-43.707,0.259
		c-0.279,0.849-0.154,1.755-0.154,2.642c-0.002,13.405,0.191,27.323-0.053,40.808c-12.768,0.209-26.01,0.081-38.736-0.052
		c-0.197-6.933-0.155-13.909-0.156-20.87c0-20.685-0.257-41.387,0-62.299c21.279-0.081,42.498-0.102,64.424-0.104
		C70.714,0.055,76.86-0.099,82.87,0.107z"/>
	<path style="fill-rule:evenodd;clip-rule:evenodd;" d="M82.921,13.623c0.209,3.823,0.264,8.372,0,12.223
		c-14.033,0.165-28.361,0.204-42.051,0.104c-0.248-3.774-0.219-8.375-0.051-12.222C54.503,13.488,68.79,13.429,82.921,13.623z"/>
	<path style="fill-rule:evenodd;clip-rule:evenodd;" d="M83.024,41.64c0.08,13.696,0.279,27.73,0.053,41.585
		c-1.701,0.28-3.465,0.156-5.23,0.155c-12.387-0.004-24.65,0.138-36.873,0c-0.197-12.94-0.207-26.07-0.207-39.254
		c0-0.824-0.115-1.694,0.156-2.486c13.156-0.183,25.918-0.154,39.254-0.154C81.128,41.485,82.108,41.363,83.024,41.64z"/>
</g>
<g id="Layer_1">
</g>
</svg>
