<?xml version="1.0" encoding="iso-8859-1"?>
<!-- Generator: Adobe Illustrator 19.2.0, SVG Export Plug-In . SVG Version: 6.00 Build 0)  -->
<svg version="1.1" xmlns="http://www.w3.org/2000/svg" xmlns:xlink="http://www.w3.org/1999/xlink" x="0px" y="0px"
	 viewBox="0 0 87.366 27.965" style="enable-background:new 0 0 87.366 27.965;" xml:space="preserve">
<g id="Figli_x5F_di_x5F_Angelo_x5F_Bonacina">
	<path style="fill-rule:evenodd;clip-rule:evenodd;" d="M87.011,0.001c0.531,0.266,0.309,1.024,0.309,1.489
		c0,8.749,0.079,17.734-0.052,26.299c-9.96,0.138-20.124,0.259-30.356,0.103c-7.05-0.107-15.029-0.052-22.497-0.051
		c-1.597,0-3.705,0.051-5.65,0.051c-0.401,0-1.623,0.139-1.593-0.308c0.024-0.33,0.823-0.156,0.977-0.154
		c2.698,0.041,6.126-0.15,8.424,0.154c2.019-0.321,4.106-0.103,6.163-0.103c14.698,0,29.335,0.04,44.02-0.103
		c0.322-0.923,0.225-2.069,0.205-3.184c-0.135-7.743,0.037-16.257-0.103-24.039C86.848,0.043,86.898-0.008,87.011,0.001z"/>
	<path style="fill-rule:evenodd;clip-rule:evenodd;" d="M5.958,5.908C5.687,6.686,5.804,7.614,5.804,8.527
		c0,2.239-0.023,4.627,0,6.934c0.004,0.382,0.154,0.835-0.103,1.13c-0.477-0.081-0.352-0.697-0.359-1.027
		C5.276,12.456,5.427,8.528,5.444,5.445c3.926-0.161,7.922-0.102,12.174-0.102c6.742,0,13.641,0,20.699,0
		c4.588,0,9.42,0.026,14.33,0c0.362-0.002,1.753-0.234,1.645,0.308c-0.058,0.285-0.285,0.17-0.771,0.154
		c-0.284-0.009-0.898,0.05-0.925,0.051c-4.575,0.208-9.329,0-13.611,0C27.59,5.857,16.892,5.776,5.958,5.908z"/>
	<path style="fill-rule:evenodd;clip-rule:evenodd;" d="M81.515,5.753c-0.509,0.202-1.223,0.103-2.003,0.103
		c-6.307,0-13.109-0.094-19.211,0.102c-0.247,1.018-0.187,2.712-0.153,4.058c0.01,0.403,0.189,0.881-0.052,1.13
		c-0.543-0.049-0.359-0.796-0.359-1.233c0-1.417-0.108-3.374,0.103-4.469c6.644-0.072,13.929-0.169,20.7-0.102
		C80.825,5.346,81.473,5.199,81.515,5.753z"/>
	<path style="fill-rule:evenodd;clip-rule:evenodd;" d="M54.343,16.694c-0.237,0.383-0.729,0.102-1.079,0.103
		c-6.493,0.007-13.695,0.079-20.134,0.154c-0.262,1.006-0.169,2.726-0.154,4.058c0.005,0.427,0.148,0.876-0.052,1.13
		c-0.575,0.05-0.41-0.679-0.41-1.13c0-0.458,0-1.02,0-1.541c0-0.958-0.108-2.616,0.153-2.979c0.038-0.048,0.094-0.078,0.154-0.103
		c6.692,0,13.688,0,20.494,0C53.633,16.386,54.233,16.223,54.343,16.694z"/>
	<path style="fill-rule:evenodd;clip-rule:evenodd;" d="M81.515,16.746c-0.253,0.324-0.764,0.154-1.13,0.154
		c-6.548,0-13.549-0.059-19.98,0c-0.572,1.235-0.092,3.923-0.257,5.239c-0.604,0.046-0.411-0.757-0.411-1.181
		c0-1.048,0-2.11,0-3.185c0-0.505-0.127-1.075,0.205-1.335c6.462-0.035,13.705,0,19.981,0
		C80.407,16.438,81.184,16.202,81.515,16.746z"/>
	<path style="fill-rule:evenodd;clip-rule:evenodd;" d="M21.83,16.591c0.017,0.001,0.034,0,0.051,0c0.622,0.003,0.359,2,0.359,2.723
		c0,1.24,0.074,2.243-0.103,2.928c-3.735,0.181-8.169,0.103-12.276,0.103c-1.352,0-2.693-0.101-3.903,0.103
		c-0.414,1.435,0.074,3.772-0.257,5.29c-1.247,0.19-3.049,0.119-4.469,0.052C0.801,27.769,0.181,27.97,0,27.532
		c0.2-0.333,0.779-0.154,1.182-0.154c1.293,0,2.957,0.09,4.057-0.051c0.379-1.471-0.005-3.704,0.206-5.342
		c5.172-0.307,11.059,0.101,16.231-0.206c0.232-1.446,0.206-3.521,0.051-5.034C21.725,16.658,21.765,16.613,21.83,16.591z"/>
</g>
<g id="Layer_1">
</g>
</svg>
