<?xml version="1.0" encoding="iso-8859-1"?>
<!-- Generator: Adobe Illustrator 19.2.0, SVG Export Plug-In . SVG Version: 6.00 Build 0)  -->
<svg version="1.1" xmlns="http://www.w3.org/2000/svg" xmlns:xlink="http://www.w3.org/1999/xlink" x="0px" y="0px"
	 viewBox="0 0 58.141 77.471" style="enable-background:new 0 0 58.141 77.471;" xml:space="preserve">
<g id="film_x5F_projects">
	<path style="fill-rule:evenodd;clip-rule:evenodd;" d="M13.38,0.027c4.424-0.284,8.277,1.696,10.55,3.969
		c2.203,2.204,4.458,5.699,4.772,9.747c0.367,4.717-1.742,8.286-3.768,10.751c-2.229,2.712-5.289,4.492-9.596,4.923
		c-4.306,0.431-8.223-1.57-10.601-3.818c-1.243-1.175-2.272-2.545-3.114-4.169c-0.806-1.553-1.532-3.612-1.608-5.627
		c-0.184-4.914,1.278-8.443,3.517-11.002C4.63,3.546,5.918,2.43,7.601,1.585C9.23,0.769,11.201,0.168,13.38,0.027z"/>
	<path style="fill-rule:evenodd;clip-rule:evenodd;" d="M43.271,0.379c4.558-0.217,8.113,1.684,10.449,4.02
		c2.323,2.323,4.421,5.452,4.421,10.048c0.001,2.524-0.286,4.448-1.004,6.229c-1.918,4.754-6.32,8.741-12.561,9.144
		c-3.315,0.213-6.353-1.124-8.39-2.462c-3.453-2.272-6.236-6.236-6.48-11.606c-0.208-4.592,1.351-8.405,3.667-10.7
		c1.177-1.166,2.35-2.333,4.069-3.165C39.078,1.095,41.095,0.483,43.271,0.379z"/>
	<path style="fill-rule:evenodd;clip-rule:evenodd;" d="M28.149,30.925c0.215,2.346,0.197,4.82,0.05,7.233
		c-1.907,0.403-4.692-0.07-6.681,0.252c-0.169,2.466-0.166,5.622,0,8.088c1.944,0.445,4.624-0.144,6.631,0.201
		c0.267,1.009,0.151,2.3,0.151,3.567c0,1.233,0.08,2.522-0.101,3.566c-1.967,0.293-4.613-0.092-6.581,0.201
		c-0.167,2.267-0.166,5.219,0,7.485c2.408,0.221,5.444,0.076,7.737,0c0.107-8.963,0-17.649,0-26.878c0-1.246-0.122-2.516,0.15-3.717
		c2.57-0.247,5.463-0.15,8.34-0.151c3.013,0,5.748-0.18,8.44,0c2.086,0.14,4.084,1.551,4.471,3.416
		c0.269,1.293,0.101,2.784,0.101,4.27c0,2.827-0.001,5.68,0,8.742c0,1.53,0.086,3.163-0.302,4.169
		c-0.506,1.315-1.771,2.359-3.517,2.512c-3.083,0.271-7.383-0.219-10.248,0.051c-0.269,0.535-0.201,1.2-0.201,1.858
		c0,0.613,0.018,1.265,0,1.909c-0.036,1.303,0.234,2.695-0.101,3.818c-2.05,0.361-4.823,0-7.033,0.201
		c-0.307,5.002,0.109,10.7-0.201,15.573c-1.095,0.267-2.509,0.15-3.868,0.15c-1.344,0.001-2.74,0.118-3.818-0.15
		c-0.3-4.925,0.099-10.548-0.201-15.473c-1.887-0.449-4.695,0.142-6.53-0.252c-0.397-2.166,0.107-5.231-0.302-7.385
		c-1.485,0.424-2.38,1.438-3.718,2.01c-1.181,0.729-2.269,1.55-3.617,2.11c-0.233-0.562-0.173-1.238-0.201-1.859
		c-0.15-3.31,0-6.894,0-10.299c0-1.372-0.122-2.738,0.151-3.969c2.633,0.95,4.683,2.483,7.284,3.466
		c0.355-0.288,0.249-0.822,0.251-1.205c0.018-3.157-0.036-6.407-0.05-9.696c-0.006-1.272-0.091-2.646,0.15-3.817
		C19.041,30.744,23.804,30.755,28.149,30.925z M36.791,38.309c-0.329,0.505-0.201,1.226-0.201,1.908c0,0.702,0,1.44,0,2.161
		c0,1.431-0.12,2.965,0.15,4.119c2.108,0.177,4.887,0.168,6.933-0.051c0.168-2.465,0.167-5.622,0-8.088
		C41.594,38.16,38.953,38.259,36.791,38.309z"/>
	<path style="fill-rule:evenodd;clip-rule:evenodd;" d="M53.268,50.768c-0.302-0.375-0.201-1.284-0.201-2.16
		c0-0.979-0.159-2.077,0.402-2.361c0.855-0.161,2.104-0.059,2.612,0.352c1.196,0.968,1.016,3.815-0.553,4.271
		C54.975,51.03,53.915,50.967,53.268,50.768z M54.676,49.764c1.11,0.123,1.166-1.998,0.251-2.311
		C53.747,47.3,53.988,49.687,54.676,49.764z"/>
</g>
<g id="Layer_1">
</g>
</svg>
