<?xml version="1.0" encoding="iso-8859-1"?>
<!-- Generator: Adobe Illustrator 19.2.0, SVG Export Plug-In . SVG Version: 6.00 Build 0)  -->
<svg version="1.1" xmlns="http://www.w3.org/2000/svg" xmlns:xlink="http://www.w3.org/1999/xlink" x="0px" y="0px"
	 viewBox="0 0 169.378 170.072" style="enable-background:new 0 0 169.378 170.072;" xml:space="preserve">
<g id="Findex_x5F_78">
	<path style="fill-rule:evenodd;clip-rule:evenodd;" d="M168.829,0.173c0.164,28.534,0.396,57.013,0.396,85.043
		c0,27.735,0.264,56.159,0.1,84.548c-0.808,0.262-1.694,0.148-2.522,0.148c-13.03,0.001-25.831,0.085-39.06,0.05
		c-0.049-0.067-0.132-0.099-0.198-0.148c-0.18-4.195-0.004-8.57-0.05-12.855c-0.014-1.384-0.211-2.808,0.099-4.104
		c0.04-0.01,0.049-0.05,0.099-0.05c7.909-0.255,16.032,0.104,23.881-0.099c0.298-0.008,0.55,0.009,0.791-0.148
		c0.119-44.843-0.127-90.173-0.346-134.683c-0.044-0.022-0.088-0.044-0.099-0.099c-44.373-0.028-89.412,0.175-134.14,0.296
		c-0.022,0.044-0.043,0.089-0.099,0.099c-0.121,33.355,0.198,67.267,0.198,101.161c0,9.645,0.099,19.318,0.099,29.172
		c0,1.557-0.149,3.3,0.148,4.351c17.3,0.145,35.058-0.001,52.607,0c7.09,0,13.783-0.05,20.915-0.05c3.492,0,6.976,0.12,10.433-0.148
		c0.29-6.428-0.04-13.206,0.049-19.283c0.023-1.558,0.056-3.016,0.049-4.647c-0.002-0.485-0.196-0.999,0.099-1.434
		c0.04-0.009,0.049-0.049,0.099-0.049c8.199-0.122,16.883,0.022,24.87-0.148c0.022-0.044,0.043-0.088,0.099-0.099
		c0.15-24.314-0.15-48.303-0.148-72.731c0-1.743,0.041-3.495,0-5.241c-0.046-1.908,0.02-3.967-0.148-5.735
		c-10.332-0.354-21.014,0.122-31.594-0.049c-6.979-0.113-13.955,0.049-21.013,0.049c-7.098,0-14.045,0.049-20.816,0.049
		c-2.648,0-5.249,0.05-7.96,0.05c-0.818,0-1.671-0.118-2.472,0.148c-0.009,0.041-0.049,0.049-0.049,0.099
		c-0.03,6.924-0.099,13.808,0.049,20.717c0.146,6.816-0.139,13.893,0.05,20.667c0.097,3.492,0.066,7.036,0,10.532
		c-0.067,3.49,0.049,6.984,0.049,10.482c0,6.987,0.036,13.993,0.049,20.964c0.029,0.103,0.104,0.16,0.148,0.247
		c10.616,0.16,21.761,0.079,32.484-0.049c0.065-0.018,0.078-0.087,0.148-0.099c0.208-7.873-0.086-16.645,0.099-24.919
		c0.04-0.01,0.049-0.05,0.099-0.05c8.396-0.288,17.403,0.088,25.661-0.247c0.181-2.296,0.14-5.212,0-7.516
		c-0.641-0.243-2.239-0.099-3.362-0.099c-7.235-0.001-14.948,0.035-22.249-0.05c-0.08,0.014-0.086-0.046-0.148-0.049
		c-0.168-5.842-0.163-11.851-0.099-17.651c0.044-0.022,0.088-0.044,0.099-0.099c8.377-0.255,16.965-0.047,25.513-0.198
		c0.08,0.014,0.085-0.047,0.148-0.049c0.306-1.562,0.099-3.599,0.099-5.488c0-0.693,0.063-1.509-0.099-1.978
		c-0.594-0.249-1.291-0.213-1.928-0.198c-10.057,0.241-21.212-0.153-31.396,0.198c-0.009,0.04-0.05,0.049-0.05,0.099
		c-0.289,16.254,0.225,33.062,0.05,49.69c-0.004,0.358,0.061,0.702-0.148,0.939c-5.638,0.016-11.601,0.231-17.157,0
		c-0.261-2.761-0.149-5.582-0.149-8.405c0-16.908-0.147-33.939-0.148-51.174c0-2.052,0-4.25,0-6.378
		c0-0.844-0.105-1.644,0.049-2.225c22.252-0.183,45.801-0.222,68.182-0.198c0.028,0.071,0.078,0.121,0.149,0.148
		c0.131,22.565,0.316,45.63,0.148,68.083c-8.166,0.234-16.569,0.001-24.87,0.148c-0.065,0.018-0.078,0.087-0.148,0.099
		c-0.204,0.973-0.107,1.996-0.148,3.016c-0.122,3.051,0.049,6.243,0.049,9.444c0,4.289,0.041,8.639-0.049,12.855
		c-0.613,0.242-1.279,0.148-1.928,0.148c-19.445,0.001-38.365,0.1-57.849,0.099c-2.059,0-4.223,0-6.428,0
		c-0.832,0-1.645,0.094-2.274-0.049c-0.255-9.81-0.148-19.849-0.148-29.814c0-29.975-0.341-59.148-0.247-89.195
		c-0.036-0.135,0.098-0.1,0.099-0.198c39.334-0.091,79.466-0.391,118.664-0.247c0.368,4.9-0.013,9.897,0.148,14.883
		c0.161,4.968,0.049,9.969,0.049,14.932c0.002,29.401,0.245,58.142,0.247,87.712c0,0.565,0.121,1.201-0.148,1.731
		c-0.04,0.009-0.049,0.049-0.099,0.049c-8.122,0.123-16.483-0.037-24.622,0.148c-0.009,0.04-0.05,0.049-0.049,0.099
		c-0.188,7.195-0.05,14.376-0.05,21.755c0,0.999,0.12,2.016-0.148,2.966c-9.841,0.159-19.735,0.148-29.665,0.148
		c-29.74-0.001-59.81,0.164-89.344-0.049c-0.205-3.464-0.148-6.971-0.148-10.482c0-7.133-0.049-14.277-0.049-21.409
		c0-5.377,0-10.613,0-15.97c0-40.798-0.445-81.122-0.296-121.531C3.033,0.395,7.164,0.47,10.215,0.47
		c16.586,0,33.554-0.099,50.234-0.099c3.388,0,6.792,0.057,10.185-0.05c5.088-0.159,10.08-0.049,15.179-0.049
		c11.714,0,23.701-0.049,35.599-0.049c11.654,0,23.46-0.148,35.353-0.148c3.136,0,5.522,0.011,8.602-0.049
		C166.42,0.004,168.05-0.064,168.829,0.173z"/>
</g>
<g id="Layer_1">
</g>
</svg>
