<?xml version="1.0" encoding="iso-8859-1"?>
<!-- Generator: Adobe Illustrator 19.2.0, SVG Export Plug-In . SVG Version: 6.00 Build 0)  -->
<svg version="1.1" xmlns="http://www.w3.org/2000/svg" xmlns:xlink="http://www.w3.org/1999/xlink" x="0px" y="0px"
	 viewBox="0 0 78.16 78.266" style="enable-background:new 0 0 78.16 78.266;" xml:space="preserve">
<g id="Finlevy_x5F_66">
	<path style="fill-rule:evenodd;clip-rule:evenodd;" d="M39.54,78.262c-0.321-0.646-0.25-1.449-0.25-2.199
		c0-3.762-0.149-8.154,0-12.152c0.06-1.6-0.169-3.188,0.2-4.602c1.716-0.484,4.287,0.043,6.101-0.25c0.338-0.42,0.228-1.68,0.1-2.25
		c-0.044-0.021-0.089-0.043-0.1-0.1c-3.233-0.309-6.309-0.006-9.202-0.4c-2.603-0.355-5.143-1.369-7.001-2.6
		c-1.873-1.24-3.453-2.85-4.801-4.801c-1.308-1.895-2.439-4.174-2.601-6.951c-0.369-6.363,2.071-10.553,5.651-13.453
		c2.594-2.102,5.873-3.774,10.652-3.551c0.737,0.035,1.504,0.035,2.2,0.201c0.557,0.133,1.268,0.27,1.601,0.75
		c-0.862,0.094-1.663-0.098-2.451-0.15c-2.562-0.172-4.852,0.586-6.701,1.5c-2.453,1.213-4.394,3.188-5.601,5.502
		c-1.287,2.465-2.052,5.898-1.3,9.102c0.696,2.963,2.17,5.27,4.101,7c2.872,2.666,7.388,4.4,12.702,2.951
		c2.087-0.57,3.818-1.66,5.301-3.051c2.709-2.541,4.899-6.82,4.25-12.201c-0.287-2.381-1.126-4.49-2.1-6.201
		c-0.974-1.713-2.118-3.422-3.65-4.65c-1.532-1.23-3.133-2.387-5.151-3.152c-2.119-0.801-4.543-1.197-7.101-1.25
		c-7.833-0.156-13.935,2.824-17.603,7.102c-2.579,3.008-4.233,6.609-4.851,11.803c-0.41,3.443-0.249,8.098-0.3,12.15
		c-0.015,1.184,0.338,3.51-0.25,4.002c-0.453,0.379-2.8,0.15-3.6,0.15c-1.196,0-2.883,0.26-3.651-0.102
		c-0.471-0.221-0.808-1.436-1.05-2.049c-2.004-5.084-3.561-11.176-2.951-18.404c0.394-4.674,1.566-8.818,3.101-12.301
		c0.932-2.115,1.906-4.311,3.101-6.102c1.636-2.455,3.5-4.682,5.651-6.65c2.154-1.973,4.381-3.908,6.951-5.351
		c3.983-2.236,8.223-4.037,13.502-4.951C34.212,0.293,36.2,0.002,38.19,0c6.402-0.006,11.713,1.348,16.303,3.35
		c4.698,2.051,8.319,4.598,11.752,7.852c6.518,6.18,11.559,15.037,11.902,27.355c0.174,6.262-1.396,11.779-3.3,16.352
		c-0.942,2.26-2.214,4.338-3.5,6.301c-1.299,1.984-2.833,3.834-4.401,5.402c-3.244,3.242-7.103,6.041-11.502,8.15
		C51.039,76.875,45.726,78.354,39.54,78.262z"/>
	<path style="fill-rule:evenodd;clip-rule:evenodd;" d="M38.741,37.057c1.267-0.322,2.579,1.076,2.45,2.35
		c-0.144,1.432-1.737,2.186-2.9,1.701C36.463,40.344,36.899,37.412,38.741,37.057z"/>
	<path style="fill-rule:evenodd;clip-rule:evenodd;" d="M11.536,59.26c0.262,1.078,0.15,2.461,0.15,3.801
		c0,1.322,0.115,2.691-0.15,3.75c-0.807-0.26-1.299-1.016-1.8-1.6c-0.511-0.596-1.073-1.186-1.5-1.852
		c-0.52-0.613-1.041-1.226-1.451-1.949c-0.418-0.633-1.109-1.256-1.1-2.15c0.066-0.018,0.079-0.088,0.15-0.1
		c0.718-0.088,1.985-0.051,3-0.051C9.818,59.109,10.805,58.998,11.536,59.26z"/>
</g>
<g id="Layer_1">
</g>
</svg>
