<?xml version="1.0" encoding="iso-8859-1"?>
<!-- Generator: Adobe Illustrator 19.2.0, SVG Export Plug-In . SVG Version: 6.00 Build 0)  -->
<svg version="1.1" xmlns="http://www.w3.org/2000/svg" xmlns:xlink="http://www.w3.org/1999/xlink" x="0px" y="0px"
	 viewBox="0 0 80.452 66.1" style="enable-background:new 0 0 80.452 66.1;" xml:space="preserve">
<g id="Finnish_x5F_Export_x5F_Furniture">
	<path style="fill-rule:evenodd;clip-rule:evenodd;" d="M70.262,0.166c0.381,1.038,0.113,2.195,0.145,3.365
		c0.06,2.124,0.049,4.443,0.049,6.875c0,1.171,0.109,2.337-0.146,3.413c-6.111,0.285-12.902-0.088-19.065,0.195
		c-0.345,0.879-0.195,1.98-0.195,3.023c0,3.07-0.08,6.527,0.098,9.459c0.733,0.257,1.558,0.146,2.34,0.146
		c5.546,0,11.576-0.036,17.018-0.097c0.278-2.769-0.085-5.894,0.243-8.63c0.649,0.406,0.906,1.207,1.316,1.853
		c2.5,3.907,4.851,8.023,7.411,12.043c0.296,0.464,0.97,1.337,0.976,1.755c0.006,0.445-0.78,1.451-1.122,1.95
		c-2.482,3.632-4.894,7.344-7.265,11.068c-0.384,0.603-0.74,1.264-1.316,1.707c-0.396-2.237,0.072-5.338-0.243-7.655
		c-1.505-0.265-3.13-0.146-4.73-0.146c-4.788,0-9.834-0.03-14.529,0.098c-0.347,0.946-0.195,2.027-0.195,3.072
		c0,7.607,0.048,15.123-0.098,22.234c-0.817,0.258-1.71,0.146-2.584,0.146c-6.192,0-12.793,0.188-18.87-0.098
		c-0.291-8.155,0.096-17.232-0.195-25.306c-6.191-0.167-13.064-0.155-19.308,0c-0.317,1.084-0.195,2.449-0.195,3.803
		c0,1.33,0.039,2.701-0.049,3.9c-0.438,0.054-0.561-0.477-0.731-0.731c-2.827-4.222-5.688-8.596-8.484-12.97
		C0.314,34.29,0.006,33.873,0,33.663c-0.013-0.471,0.809-1.556,1.121-2.048c2.674-4.203,5.218-8.499,7.851-12.775
		c0.181-0.294,0.324-0.752,0.731-0.829c0.316,2.625-0.152,6.036,0.244,8.582c6.489,0.169,13.045,0.118,19.308,0
		c0.262-0.944,0.147-2.017,0.146-3.072c0-3.066,0.081-6.509-0.098-9.459c-0.723-0.312-1.522-0.083-2.291-0.098
		c-5.415-0.102-11.449,0.106-16.871-0.097c-0.177-3.209-0.098-6.865-0.097-10.288c0-1.137-0.116-2.288,0.146-3.316
		c4.725-0.201,9.491-0.098,14.384-0.098c1.601,0,3.218-0.119,4.729-0.048c3.189,0.149,5.255,1.194,7.021,2.779
		c1.296,1.163,2.357,2.455,3.12,4.193c0.232,0.529,0.357,1.171,0.781,1.658c0.414-0.24,0.387-0.783,0.535-1.17
		c0.45-1.17,1.152-2.299,1.902-3.218c1.65-1.877,3.393-3.309,6.192-3.998c2.876-0.708,6.384,0.075,9.946-0.244
		C62.41-0.205,66.666,0.25,70.262,0.166z"/>
</g>
<g id="Layer_1">
</g>
</svg>
