<?xml version="1.0" encoding="iso-8859-1"?>
<!-- Generator: Adobe Illustrator 21.0.2, SVG Export Plug-In . SVG Version: 6.00 Build 0)  -->
<svg version="1.1" xmlns="http://www.w3.org/2000/svg" xmlns:xlink="http://www.w3.org/1999/xlink" x="0px" y="0px"
	 viewBox="0 0 22.149 26.736" style="enable-background:new 0 0 22.149 26.736;" xml:space="preserve">
<g id="Fiorella">
	<path d="M0.182,0.007c1.069-0.025,2.153,0.026,3.212-0.002C3.91,0.019,4.436,0.051,4.951,0.017C5.261,0.045,5.585,0.08,5.892,0.006
		c4.448,0.067,8.902,0.085,13.347,0.068c0.873,0.055,1.754,0.042,2.628,0.016c0.203,2.598,0.155,5.239,0.276,7.854
		c0.081,0.596-0.734,0.287-1.089,0.302c-0.429-2.063-0.872-4.33-2.503-5.813c-0.752-0.681-1.744-1.105-2.756-1.167
		C13.375,0.987,10.93,1.14,8.5,1.081C5.703,1.03,2.898,1.096,0.103,1.01C0.199,0.682,0.105,0.336,0.182,0.007z"/>
	<path d="M6.443,2.452c0.824-0.13,1.502,0.961,0.964,1.628c-0.325,0.584-1.031,1.274-0.63,1.973C7.611,6.044,7.875,5.099,8.217,4.5
		c0.29-0.711,1.415-0.66,1.724,0.008c0.333,0.48,0.08,1.16-0.412,1.416c-0.624,0.233-1.301-0.071-1.924,0.17
		C7.324,6.163,6.993,6.336,7.075,6.682C7.86,7.49,9.28,6.505,9.909,7.533C10.505,8.384,9.38,9.603,8.5,8.994
		C7.834,8.388,7.825,7.089,6.754,6.952C6.33,7.761,7.108,8.486,7.448,9.161c0.44,0.711-0.356,1.616-1.112,1.506
		c-0.611-0.12-1.128-0.828-0.817-1.431c0.301-0.71,1.078-1.383,0.746-2.221C5.318,6.988,5.138,8.12,4.686,8.728
		C4.242,9.443,3.03,9.127,2.898,8.329C2.617,7.582,3.437,6.824,4.177,7.022c0.571-0.014,1.709,0.176,1.749-0.633
		C5.242,5.691,4.208,6.171,3.404,5.893C2.492,5.44,2.88,3.891,3.899,3.974c1.254-0.039,1.047,1.774,2.139,2.06
		C6.24,6.111,6.4,5.868,6.366,5.686C6.357,4.846,5.583,4.306,5.43,3.509C5.496,2.988,5.884,2.473,6.443,2.452z"/>
	<path d="M14.924,7.63c0.374,0.004,0.75,0.018,1.124-0.007c0.028,3.753-0.045,7.503-0.047,11.258
		c-0.366-0.011-0.733-0.006-1.099,0.001c-0.164-1.014-0.204-2.076-0.618-3.038c-0.399-1.239-1.63-2.016-2.877-2.168
		c-0.074-0.438,0.006-0.89-0.006-1.336c1.248-0.142,2.528-0.831,2.984-2.061C14.791,9.457,14.867,8.529,14.924,7.63z"/>
	<path d="M2.543,11.078c1.898-0.177,3.691,1.446,3.913,3.326c0.293-1.816,1.95-3.426,3.849-3.336
		c0.011,0.768,0.002,1.536,0.004,2.304c0.111,2.042-1.651,4.089-3.749,4.029c-1.712,0.131-3.367-1.131-3.816-2.766
		C2.38,13.482,2.665,12.252,2.543,11.078z"/>
	<path d="M2.556,17.987c1.853-0.033,3.514,1.426,3.885,3.217c0.333-1.738,1.998-3.262,3.815-3.152
		c0.057,0.838,0.033,1.682,0.004,2.521c-0.03,2.145-2.101,4.099-4.268,3.723c-1.894-0.131-3.473-1.908-3.46-3.793
		C2.545,19.664,2.51,18.824,2.556,17.987z"/>
	<path d="M0.029,25.704c4.253-0.021,8.505,0.008,12.757,0.048c0.01,0.327-0.003,0.654,0.01,0.981C8.531,26.746,4.267,26.7,0,26.682
		C0.015,26.356-0.013,26.029,0.029,25.704z"/>
</g>
<g id="Layer_1">
</g>
</svg>
