<?xml version="1.0" encoding="iso-8859-1"?>
<!-- Generator: Adobe Illustrator 19.2.0, SVG Export Plug-In . SVG Version: 6.00 Build 0)  -->
<svg version="1.1" xmlns="http://www.w3.org/2000/svg" xmlns:xlink="http://www.w3.org/1999/xlink" x="0px" y="0px"
	 viewBox="0 0 90.831 90.024" style="enable-background:new 0 0 90.831 90.024;" xml:space="preserve">
<g id="First_x5F_Bank">
	<path style="fill-rule:evenodd;clip-rule:evenodd;" d="M90.709,0.139c0.101,29.69,0.216,59.132,0,89.847
		c-7.81-0.032-15.361-0.039-22.912,0c-23.639,0.123-45.834-0.095-67.775-0.12c0.097-28.952-0.174-60.361,0.12-89.848
		C30.415,0.086,61.08-0.13,90.709,0.139z M18.135,18.493c0.008,17.954-0.064,38.671,0.12,55.18
		c4.907-0.089,10.258,0.175,14.634-0.12c0.377-13.47-0.291-27.146,0.24-40.426c6.559-0.078,13.433,0.158,19.792-0.12
		c0.279-4.559,0.041-9.636,0.12-14.395C42.118,18.133,29.782,18.371,18.135,18.493z M58.2,18.733
		c0.063,14.072,0.176,26.124,0,39.945c-6.638,0.08-13.594-0.159-20.033,0.12c-0.058,4.951-0.27,9.737,0.12,14.875
		c11.558-0.078,23.429,0.158,34.787-0.12c0.206-17.865,0.198-36.807,0-55.06c-4.632-0.297-10.035-0.013-14.515-0.12
		C58.387,18.44,58.267,18.56,58.2,18.733z M38.168,38.765c0.091,5.114-0.182,10.196,0.12,14.875
		c4.878-0.08,10.076,0.159,14.754-0.12c0.169-4.729,0.26-10.682-0.12-14.995c-5.159-0.174-9.208,0.051-14.394-0.12
		C38.355,38.473,38.235,38.592,38.168,38.765z"/>
</g>
<g id="Layer_1">
</g>
</svg>
