<?xml version="1.0" encoding="iso-8859-1"?>
<!-- Generator: Adobe Illustrator 19.2.0, SVG Export Plug-In . SVG Version: 6.00 Build 0)  -->
<svg version="1.1" xmlns="http://www.w3.org/2000/svg" xmlns:xlink="http://www.w3.org/1999/xlink" x="0px" y="0px"
	 viewBox="0 0 62.198 78.521" style="enable-background:new 0 0 62.198 78.521;" xml:space="preserve">
<g id="Fjellberg_x5F_Grafisk">
	<path style="fill-rule:evenodd;clip-rule:evenodd;" d="M44.298,0.163c0.265,1.299,0.146,2.719,0.146,4.144
		c0,3.511,0,7.158,0,10.727c0,0.671,0.114,1.383-0.146,1.999c-6.801,0.129-13.822,0.049-20.868,0.049
		c-2.32,0-4.64-0.115-6.875,0.147c-0.262,0.982-0.146,2.103-0.146,3.218c0,2.186,0.012,4.501,0,6.729
		c-0.006,1.077-0.154,2.144,0.098,3.072c2.33,0.288,4.755,0.02,7.216,0.097c7.109,0.223,14.89-0.068,22.331-0.097
		c0.368-9.646-0.186-20.333,0.244-30.084c4.863-0.274,10.645-0.153,15.701,0c0.232,1.56,0.146,3.18,0.146,4.778
		c0.001,4.922,0,9.999,0,14.969c0.001,6.576-0.175,13.056,0,19.357c0.092,3.276-0.137,6.539,0,9.801c0.136,3.229-0.03,6.485,0,9.703
		c0.062,6.499-0.056,12.984-0.146,19.504c-0.846,0.229-1.745,0.181-2.634,0.195c-6.067,0.093-12.898-0.198-19.211,0
		c-3.661,0.115-7.439-0.001-11.166,0c-2.823,0-5.641-0.015-8.337,0c-0.876,0.005-1.789,0.11-2.634-0.146
		c-0.071-5.313-0.132-11.556,0.049-17.066c1.104-0.264,2.262-0.146,3.414-0.146c8.047-0.001,16.446,0.086,24.525-0.098
		c0.26-1.991,0.146-4.245,0.146-6.485c0-2.207,0.079-4.463-0.099-6.485c-1.164-0.229-2.404-0.194-3.607-0.146
		c-3.55,0.142-7.393-0.175-11.166,0c-4.83,0.225-9.906-0.237-14.725,0.098c-0.217,0.538-0.222,1.174-0.195,1.755
		c0.189,4.171,0,8.918,0,13.457c0,3.891,0,7.647,0,11.41c0,1.259,0.118,2.538-0.146,3.754c-5.109,0.187-11.057,0.108-16.139,0.049
		C-0.05,53.855,0.027,28.08,0.025,2.504c0-0.765-0.115-1.555,0.147-2.292c9.372-0.2,19.26-0.147,28.913-0.146
		C34.266,0.066,39.16-0.106,44.298,0.163z"/>
</g>
<g id="Layer_1">
</g>
</svg>
