<?xml version="1.0" encoding="iso-8859-1"?>
<!-- Generator: Adobe Illustrator 19.2.0, SVG Export Plug-In . SVG Version: 6.00 Build 0)  -->
<svg version="1.1" xmlns="http://www.w3.org/2000/svg" xmlns:xlink="http://www.w3.org/1999/xlink" x="0px" y="0px"
	 viewBox="0 0 99.708 89.777" style="enable-background:new 0 0 99.708 89.777;" xml:space="preserve">
<g id="Flight_x5F_Series">
	<path style="fill-rule:evenodd;clip-rule:evenodd;" d="M81.226,17.741c5.341,7.74,9.666,17.171,8.864,30.07
		c-0.715,11.52-5.718,20.77-11.979,27.554c-6.331,6.86-15.177,11.962-25.757,13.777c-12.3,2.11-23.847-1.281-31.627-6.469
		c-8.029-5.354-14.002-12.26-17.73-21.803c22.409-14.77,45.859-28.496,68.525-43.008c-5.501-5.176-12.497-8.381-20.605-10.063
		c-9.003-1.868-18.177-0.331-25.278,3.594C14.665,17.456,6.395,28.01,3.955,43.378C3.593,45.659,4.06,50.291,1.2,49.607
		c-1.7-0.406-1.205-6.379-0.839-9.824c1.07-10.086,5.426-17.934,10.662-23.96c3.656-4.208,7.639-7.486,12.819-10.303
		c5.141-2.795,10.953-4.866,18.089-5.391c14.067-1.035,25.465,4.259,32.705,10.782c0.656,0.591,2.482,2.783,3.235,2.875
		c0.528,0.065,2.252-1.186,2.875-1.557c4.792-2.851,8.776-5.345,13.537-8.506c1.131-0.75,4.55-3.99,5.391-1.917
		c0.423,1.04-3.256,3.53-4.192,4.313C90.781,10.048,85.611,13.967,81.226,17.741z M75.116,22.533
		c-7.779,6.134-15.486,11.797-23.96,18.569c-5.763,4.606-11.824,9.517-17.73,14.256c-1.662,1.333-5.039,3.668-5.032,5.63
		c0.005,1.57,2.399,3.572,3.354,4.433c4.212,3.79,9.494,6.485,15.933,7.428c10.01,1.465,18.667-1.832,24.08-6.229
		c5.493-4.462,10-11.524,10.662-20.486c0.685-9.26-1.759-18.338-6.828-23.96C75.246,22.101,75.326,22.367,75.116,22.533z"/>
</g>
<g id="Layer_1">
</g>
</svg>
