<?xml version="1.0" encoding="iso-8859-1"?>
<!-- Generator: Adobe Illustrator 19.2.0, SVG Export Plug-In . SVG Version: 6.00 Build 0)  -->
<svg version="1.1" xmlns="http://www.w3.org/2000/svg" xmlns:xlink="http://www.w3.org/1999/xlink" x="0px" y="0px"
	 viewBox="0 0 77.401 77.938" style="enable-background:new 0 0 77.401 77.938;" xml:space="preserve">
<g id="Flora_x5F_Olomouc">
	<path style="fill-rule:evenodd;clip-rule:evenodd;" d="M11.8,66.933c-2.509-2.385-4.626-5.068-6.441-8.14
		c-1.787-3.021-3.371-6.464-4.245-10.336c-0.932-4.128-1.379-8.804-0.948-13.233c0.416-4.277,1.479-8.187,2.996-11.535
		c3.076-6.79,7.438-11.817,12.983-16.129c3.989-3.103,9.147-5.632,15.08-6.792c1.042-0.203,2.059-0.35,3.146-0.499
		c4.901-0.675,10.341-0.001,14.382,1.099c9.466,2.576,16.324,8.017,21.372,15.03c3.313,4.604,6.159,10.502,6.94,17.328
		c0.437,3.818,0.479,7.582-0.05,11.285c-0.478,3.346-1.488,6.625-2.746,9.388c-5,10.981-13.542,19.104-26.166,22.371
		c-3.213,0.832-7.101,1.268-10.886,1.149c-7.559-0.237-13.672-2.657-18.626-5.643C16.092,70.77,13.926,68.938,11.8,66.933z
		 M28.727,17.647c-0.542-2.374-0.218-5.413,0.1-8.089c0.214-1.8,0.466-3.931,0.8-5.792c0.05-0.278,0.535-1.689-0.2-1.598
		c-0.089,0.011-0.118,0.028-0.2,0.05c-6.104,1.659-11.169,4.668-15.329,8.389c-4.206,3.7-7.645,8.168-9.987,13.732
		c1.307,2.184,2.768,4.279,4.194,6.392c1.425,2.109,2.828,4.226,4.244,6.342c2.835,4.234,5.767,8.414,8.539,12.684
		c2.774,4.272,5.717,8.464,8.489,12.733c2.421,3.727,4.951,7.495,7.441,11.085c0.33,0.477,0.53,1.234,1.198,1.398
		c0.214-8.028,0.189-16.388,0.149-24.618c-0.04-8.322,0.272-16.446,0-24.618C33.283,24.889,29.847,22.554,28.727,17.647z
		 M48.551,2.467c-0.156,0.267-0.062,1.273,0,1.947c0.181,1.976,0.268,4.113,0.4,5.942c0.187,2.577,0.35,5.773-0.25,7.89
		c-0.909,3.208-3.169,5.461-6.042,6.591c-1.017,0.4-2.096,0.628-3.346,0.899c-0.211,5.809-0.15,12.028-0.15,18.326
		c0,2.074,0.097,4.149,0,6.192c-0.296,6.278,0.068,12.652-0.05,18.726c-0.04,2.029-0.142,4.069,0.1,6.042
		c0.593-0.281,0.859-0.949,1.198-1.448c2.517-3.702,5.054-7.352,7.541-11.036c5.716-8.465,11.374-16.802,17.177-25.267
		c0.712-1.038,1.31-2.171,2.048-3.246c1.809-2.635,3.523-5.211,5.343-7.89c0.36-0.531,0.986-1.248,0.999-1.698
		c0.013-0.457-0.556-1.453-0.85-2.047c-1.67-3.379-3.641-6.111-5.941-8.689c-0.956-1.071-1.843-2.135-2.847-3.046
		c-1.003-0.911-2.202-1.708-3.296-2.546c-3.265-2.503-7.34-4.604-11.885-5.743C48.642,2.392,48.589,2.42,48.551,2.467z M3.36,25.886
		c-0.297,0.351-0.616,1.466-0.799,2.048c-0.702,2.249-1.224,4.532-1.448,7.041C0.092,46.407,3.51,54.948,8.104,61.34
		c1.514,2.106,3.392,4.067,5.393,5.892c3.979,3.629,8.616,6.448,14.382,8.189c2.939,0.888,6.201,1.531,9.688,1.448
		c-0.013-0.665-0.515-1.196-0.85-1.698c-3.187-4.78-6.469-9.563-9.587-14.332c-2.122-3.246-4.212-6.399-6.392-9.587
		c-1.436-2.098-2.763-4.28-4.244-6.392c-1.454-2.072-2.872-4.209-4.295-6.342c-2.431-3.645-5.034-7.453-7.49-11.135
		c-0.356-0.534-0.822-1.464-1.198-1.548C3.525,25.735,3.366,25.847,3.36,25.886z M71.572,29.182
		c-1.46,2.135-2.788,4.305-4.245,6.392c-0.749,1.074-1.398,2.189-2.097,3.246c-1.401,2.121-2.872,4.217-4.345,6.292
		c-1.489,2.098-2.852,4.282-4.294,6.342c-5.469,7.813-10.751,15.918-16.13,23.719c-0.348,0.505-0.812,1.055-0.898,1.698
		c2.935,0.111,5.682-0.392,8.239-0.998c5.034-1.195,9.24-3.342,12.883-5.992c1.824-1.327,3.678-2.724,5.144-4.345
		c0.53-0.585,1-1.223,1.498-1.797c1.544-1.781,2.907-3.704,4.095-5.792c3.188-5.603,5.48-12.164,5.044-21.272
		c-0.14-2.913-0.734-5.943-1.499-8.389c-0.213-0.682-0.56-2.283-1.048-2.347C73.13,26.917,72.336,28.064,71.572,29.182z"/>
</g>
<g id="Layer_1">
</g>
</svg>
