<?xml version="1.0" encoding="iso-8859-1"?>
<!-- Generator: Adobe Illustrator 19.2.0, SVG Export Plug-In . SVG Version: 6.00 Build 0)  -->
<svg version="1.1" xmlns="http://www.w3.org/2000/svg" xmlns:xlink="http://www.w3.org/1999/xlink" x="0px" y="0px"
	 viewBox="0 0 70.593 53.266" style="enable-background:new 0 0 70.593 53.266;" xml:space="preserve">
<g id="Flughafen_x5F_Immobilien_x5F_Gesellschaft">
	<path style="fill-rule:evenodd;clip-rule:evenodd;" d="M36.005,0.125c-0.175,0.845-0.753,1.536-1.171,2.244
		c-1.241,2.104-2.48,4.285-3.756,6.439c-4.215,7.117-8.474,14.252-12.683,21.367c-0.422,0.713-0.861,1.419-1.269,2.146
		c-0.385,0.688-0.718,1.492-1.366,2c-4.364,0.157-8.613,0.049-13.172,0.049c-0.859,0-1.769,0.116-2.585-0.146
		c-0.036-0.523,0.341-0.953,0.585-1.366c1.233-2.082,2.502-4.313,3.805-6.44c0.51-0.832,1.122-1.633,1.561-2.487
		c0.148-0.289,0.193-0.598,0.341-0.878c0.898-1.695,1.998-3.504,3.025-5.22c2.352-3.931,4.697-7.924,7.025-11.903
		c1.157-1.979,2.246-3.994,3.561-5.854C25.304,0.05,31.026-0.107,36.005,0.125z M16.589,15.638c-1.431,0-2.918-0.116-4.098,0.147
		c-0.264,1.036-0.146,2.2-0.146,3.365c0,2.344,0,4.733,0,7.025c0,1.165-0.113,2.326,0.146,3.366c0.877,0.228,2.589,0.236,3.464,0
		c0.452-1.452-0.134-3.718,0.342-5.074c1.015-0.285,2.722,0.121,3.659-0.243c0.295-0.68,0.269-2.141,0-2.83
		c-1.023-0.426-2.839,0.239-3.708-0.341c-0.161-0.573-0.128-1.651,0.098-2.147c1.197-0.282,3.046,0.088,4.244-0.194
		c0.267-0.692,0.409-2.273,0.049-2.977C19.473,15.488,18.016,15.638,16.589,15.638z"/>
	<path style="fill-rule:evenodd;clip-rule:evenodd;" d="M52.25,9.004c0.016,0.534-0.384,0.939-0.634,1.365
		c-1.204,2.056-2.447,4.13-3.659,6.196c-1.639,2.795-3.237,5.813-4.927,8.635c-2.387,3.984-4.77,8.013-7.171,12.05
		c-0.595,1.001-1.275,1.976-1.854,2.976c-0.581,1.005-1.019,2.098-1.854,2.927c-5.262,0.173-10.999,0.097-16.489,0.098
		c-0.727,0-1.513,0.116-2.195-0.146c0.638-1.523,1.569-2.953,2.439-4.391c4.243-7.008,8.486-14.135,12.684-21.416
		c1.219-2.113,2.472-4.248,3.805-6.439c0.421-0.692,0.926-1.931,1.561-2.049c0.657-0.123,1.484,0.057,2.244,0.049
		c4.441-0.047,9.229-0.015,13.903,0.049C50.829,8.916,51.572,8.705,52.25,9.004z M28.004,24.566
		c-0.447,0.303-0.292,0.968-0.292,1.464c0,2.995,0,6.011,0,8.928c0,1.218-0.115,2.402,0.146,3.463c0.915,0.16,2.452,0.16,3.366,0
		c0.261-1.038,0.147-2.2,0.147-3.366c0-2.341,0-4.732,0-7.024c0-1.184,0.115-2.36-0.147-3.415
		C30.346,24.429,28.961,24.512,28.004,24.566z"/>
	<path style="fill-rule:evenodd;clip-rule:evenodd;" d="M70.593,19.199c-0.168,0.845-0.748,1.533-1.17,2.244
		c-1.252,2.104-2.498,4.262-3.757,6.391c-3.353,5.669-6.701,11.313-10.098,16.977c-1.268,2.113-2.467,4.237-3.756,6.391
		c-0.413,0.69-0.743,1.462-1.366,2c-6.958,0.064-14.393,0.137-21.27-0.098c0.071-0.712,0.533-1.314,0.878-1.902
		c3.84-6.55,7.905-13.194,11.806-19.807c0.706-1.198,1.392-2.436,2.146-3.61c0.741-1.154,1.505-2.36,2.146-3.561
		c0.248-0.464,0.377-0.969,0.634-1.415c0.239-0.416,0.518-0.804,0.78-1.22c0.512-0.811,0.892-1.745,1.61-2.439
		C56.074,19.057,63.686,18.946,70.593,19.199z M46.542,46.08c-2.659-0.079-3.777-2.637-3.513-5.123
		c0.171-1.609,1.251-2.926,2.439-3.317c1.263-0.416,2.62,0.075,3.366,0.683c0.356,0.291,0.485,0.657,0.927,0.684
		c0.319,0.019,0.553-0.225,0.78-0.342c0.543-0.279,2.17-0.767,2.244-1.269c0.044-0.298-0.462-0.896-0.731-1.17
		c-1.409-1.436-3.571-2.175-6.293-2c-3.691,0.235-6.343,3.197-6.683,6.585c-0.393,3.908,1.964,7.129,4.976,7.952
		c3.846,1.052,7.532-0.428,8.977-2.927c0.73-1.265,1.019-2.821,0.731-5.074c-1.018-0.326-2.368-0.164-3.61-0.195
		c-1.23-0.029-2.573-0.088-3.659,0.146c-0.202,0.768-0.185,1.959,0,2.732c0.868,0.368,2.626-0.154,3.317,0.39
		C49.57,45.339,48.121,46.127,46.542,46.08z"/>
</g>
<g id="Layer_1">
</g>
</svg>
