<?xml version="1.0" encoding="iso-8859-1"?>
<!-- Generator: Adobe Illustrator 19.2.0, SVG Export Plug-In . SVG Version: 6.00 Build 0)  -->
<svg version="1.1" xmlns="http://www.w3.org/2000/svg" xmlns:xlink="http://www.w3.org/1999/xlink" x="0px" y="0px"
	 viewBox="0 0 72.573 73.134" style="enable-background:new 0 0 72.573 73.134;" xml:space="preserve">
<g id="flugsyningin_x5F_1969">
	<path style="fill-rule:evenodd;clip-rule:evenodd;" d="M61.384,10.351c-0.855,0.175-2.275,0.141-3.137,0
		c-0.136-0.655,0.725-0.733,0.747-1.394c-1.401-0.268-2.914-0.1-4.482-0.1c-1.574,0-3.223,0-4.88,0
		c-1.123,0.852-2.106,1.931-3.038,2.988c-0.94,1.066-1.976,2.052-2.889,3.137c-1.828,2.173-3.744,4.302-5.727,6.325
		c-3.969,4.049-7.543,8.493-11.753,12.301c-5.236,0.08-11.374,0.049-17.132,0.05c-0.858,0-1.78-0.116-2.39,0.049
		c-0.619,0.168-1.078,0.879-1.643,1.444c-1.093,1.093-2.023,1.916-3.038,3.038c-0.459,0.507-1.136,0.931-1.345,1.693
		c0.418,0.342,1.014,0.199,1.494,0.199c6.943,0,14.413-0.05,21.116-0.05c1.1,0,2.438-0.175,3.237,0.05
		c0.349,0.098,0.813,0.637,1.195,1.046c5.448,5.84,11.121,11.249,16.235,17.331c0.975,1.018,1.924,2.06,2.938,3.038
		c0.436,0.576,0.951,1.007,1.444,1.544c0.376,0.41,0.989,1.233,1.544,1.394c0.648,0.189,1.641,0.05,2.44,0.05
		c2.38,0,4.967-0.063,7.172,0.05c0.098,0.368-0.344,0.587-0.548,0.747c-3.817,2.985-8.343,5.39-13.845,6.773
		c-3.042,0.765-6.446,1.205-9.861,1.046c-3.434-0.16-6.538-0.695-9.462-1.544C15.062,68.449,6.832,60.661,2.617,50.691
		c-2.231-5.279-3.169-12.459-2.291-19.024c0.436-3.257,1.135-6.176,2.191-8.815c1.039-2.598,2.397-5.008,3.884-7.122
		c1.489-2.114,3.198-4.136,5.13-5.877c3.893-3.507,8.241-6.353,13.795-8.217c4.796-1.61,11.713-2.171,17.53-1.046
		c7.262,1.405,12.863,4.473,17.431,8.566C60.627,9.581,61.238,9.733,61.384,10.351z"/>
	<path style="fill-rule:evenodd;clip-rule:evenodd;" d="M64.472,13.687c-1.768,0.231-3.746,0.056-5.578,0.05
		c-1.394-0.004-2.765,0.206-3.935-0.1c0.201-0.451,1.166-1.68,1.743-1.792c0.898-0.175,2.106,0,3.188,0
		c1.079,0,2.142,0.018,3.087,0.049C63.567,12.401,64.196,12.868,64.472,13.687z"/>
	<path style="fill-rule:evenodd;clip-rule:evenodd;" d="M66.813,16.875c-4.78,0.175-10.037,0.169-14.891,0
		c0.158-0.503,0.972-1.483,1.544-1.594c0.883-0.171,2.041,0,3.138,0c2.959,0,6.426-0.04,9.213,0.05
		C66.232,15.762,66.622,16.219,66.813,16.875z"/>
	<path style="fill-rule:evenodd;clip-rule:evenodd;" d="M68.705,20.112c-1.569,0.268-3.251,0.149-4.931,0.149
		c-4.91,0-10.199,0.082-14.99-0.1c0.204-0.694,0.946-1.277,1.544-1.743c5.677-0.083,11.703-0.083,17.381,0
		C68.253,18.771,68.517,19.404,68.705,20.112z"/>
	<path style="fill-rule:evenodd;clip-rule:evenodd;" d="M70.249,23.598c-8.088,0.247-16.716,0.103-24.702,0.05
		c-0.055-0.447,0.407-0.761,0.697-1.096c0.281-0.325,0.612-0.731,0.996-0.847c0.69-0.208,1.8-0.05,2.739-0.05
		c6.516,0,13.094-0.057,19.423,0.05C69.917,22.081,70.195,22.925,70.249,23.598z"/>
	<path style="fill-rule:evenodd;clip-rule:evenodd;" d="M70.797,25.043c0.249,0.467,0.576,1.114,0.498,1.743
		c-4.708,0.283-9.663,0.139-14.592,0.099c-4.732-0.038-9.489,0.215-14.094-0.05c-0.083-0.411,0.349-0.666,0.647-0.996
		c0.281-0.31,0.481-0.682,0.896-0.796c0.757-0.21,1.972-0.05,3.088-0.05c1.02,0,2.089,0,3.088,0
		C57.33,24.993,63.884,24.934,70.797,25.043z"/>
	<path style="fill-rule:evenodd;clip-rule:evenodd;" d="M71.694,28.329c0.274,0.376,0.44,1.116,0.348,1.693
		c-10.359,0.242-21.563,0.18-32.421,0.05c-0.002-0.47,1.212-1.704,1.743-1.793c1.155-0.194,2.51,0,3.835,0
		C53.867,28.28,63.224,28.238,71.694,28.329z"/>
	<path style="fill-rule:evenodd;clip-rule:evenodd;" d="M72.341,31.616c0.192,0.401,0.326,1.292,0.149,1.743
		c-10.284,0.185-20.762,0.149-31.575,0.149c-1.494,0-2.987,0.121-4.432-0.149c0.315-0.814,0.969-1.289,1.594-1.793
		C49.617,31.528,61.38,31.453,72.341,31.616z"/>
	<path style="fill-rule:evenodd;clip-rule:evenodd;" d="M72.49,40.133c0.101,0.466,0.069,1.185-0.149,1.494
		c-11.371,0.219-22.886,0.056-34.314,0.1c-0.608-0.373-1.368-0.854-1.444-1.594C48.505,40.052,60.936,40.043,72.49,40.133z"/>
	<path style="fill-rule:evenodd;clip-rule:evenodd;" d="M72.042,43.32c0.194,0.439-0.05,1.179-0.298,1.494
		c-10.094,0.118-20.313,0.015-30.579,0.05c-0.31-0.257-2.067-1.406-0.996-1.644c0.76-0.169,1.865,0,2.838,0
		C52.14,43.221,62.849,43.167,72.042,43.32z"/>
	<path style="fill-rule:evenodd;clip-rule:evenodd;" d="M71.394,46.458c-0.053,0.644-0.198,1.196-0.547,1.543
		c-7.206,0.125-15.557,0.1-23.357,0.1c-1.116,0-2.508,0.191-3.337-0.05c-0.569-0.166-1.135-0.975-1.395-1.543
		c0.202-0.186,0.7-0.196,0.996-0.2c6.66-0.069,13.899,0.05,20.817,0.05c1.181,0,2.363,0.056,3.536,0
		C69.196,46.306,70.336,46.174,71.394,46.458z"/>
	<path style="fill-rule:evenodd;clip-rule:evenodd;" d="M70.2,49.695c0.063,0.615-0.281,1.244-0.647,1.594
		c-7.388,0.151-14.629,0.007-22.212,0.05c-0.558-0.388-1.218-0.94-1.395-1.544c0.136-0.208,0.686-0.189,0.896-0.199
		c1.892-0.089,3.857,0,5.827,0C58.504,49.595,64.551,49.516,70.2,49.695z"/>
	<path style="fill-rule:evenodd;clip-rule:evenodd;" d="M68.805,52.932c-0.177,0.423-0.28,1.374-0.797,1.644
		c-0.355,0.185-1.439,0.09-2.192,0.099c-4.032,0.049-7.646,0-11.604,0c-1.258,0-2.78,0.177-3.586-0.05
		c-0.378-0.106-0.664-0.515-0.946-0.796c-0.309-0.309-0.802-0.543-0.548-0.996c5.396-0.084,11.539-0.05,16.883-0.05
		C66.95,52.782,67.914,52.666,68.805,52.932z"/>
	<path style="fill-rule:evenodd;clip-rule:evenodd;" d="M66.912,56.268c-0.203,0.486-0.448,1.283-0.996,1.544
		c-0.525,0.25-2.027,0.1-2.988,0.1c-2.146,0-3.955-0.05-6.026-0.05c-1.04,0-2.226,0.173-3.038,0
		c-0.546-0.116-1.408-1.175-1.494-1.594C56.808,55.981,62.191,56.148,66.912,56.268z"/>
	<path style="fill-rule:evenodd;clip-rule:evenodd;" d="M64.621,59.406c-0.236,0.776-0.795,1.229-1.345,1.693
		c-2.093,0.102-4.376,0.042-6.375,0c-0.314-0.184-0.573-0.524-0.847-0.797c-0.236-0.236-0.71-0.484-0.548-0.946
		C58.479,59.259,61.822,59.31,64.621,59.406z"/>
	<path style="fill-rule:evenodd;clip-rule:evenodd;" d="M61.683,62.693c-0.104,0.347-0.391,0.617-0.698,0.897
		c-0.245,0.223-0.656,0.661-0.946,0.647c-0.334-0.016-0.534-0.462-0.747-0.697c-0.265-0.292-0.586-0.428-0.647-0.797
		C59.357,62.473,60.891,62.557,61.683,62.693z"/>
</g>
<g id="Layer_1">
</g>
</svg>
