<?xml version="1.0" encoding="iso-8859-1"?>
<!-- Generator: Adobe Illustrator 21.0.2, SVG Export Plug-In . SVG Version: 6.00 Build 0)  -->
<svg version="1.1" xmlns="http://www.w3.org/2000/svg" xmlns:xlink="http://www.w3.org/1999/xlink" x="0px" y="0px"
	 viewBox="0 0 14.804 14.017" style="enable-background:new 0 0 14.804 14.017;" xml:space="preserve">
<g id="FONATUR_x5F_National_x5F_Fund_x5F_for_x5F_the_x5F_Development_x5F_of_x5F_Tourism">
	<path d="M7.033,0.023c1.243-0.148,2.534,0.426,3.28,1.428c0.241,0.313,0.413,0.673,0.543,1.045
		c0.286-0.057,0.579-0.015,0.866,0.012c0.624,0.103,1.237,0.341,1.73,0.744c0.442,0.335,0.783,0.791,1.023,1.289
		c0.315,0.674,0.403,1.445,0.269,2.176c-0.183,0.971-0.794,1.849-1.635,2.367c0.369,0.843,0.361,1.832,0.018,2.682
		c-0.173,0.434-0.438,0.825-0.754,1.167c-0.753,0.744-1.831,1.158-2.889,1.073c-0.73-0.062-1.449-0.332-2.015-0.801
		c-0.767,0.628-1.807,0.915-2.788,0.77c-0.6-0.086-1.176-0.324-1.665-0.681c-0.865-0.621-1.416-1.659-1.449-2.724
		C1.554,10.145,1.609,9.715,1.75,9.314C0.785,8.741,0.103,7.699,0.015,6.575C-0.051,5.863,0.1,5.129,0.459,4.509
		c0.354-0.63,0.912-1.139,1.558-1.459c0.58-0.275,1.231-0.395,1.87-0.35C4.039,2.183,4.275,1.684,4.63,1.274
		C4.768,1.136,4.905,0.997,5.045,0.86C5.607,0.397,6.304,0.086,7.033,0.023z M6.715,1.555C6.047,1.77,5.489,2.328,5.317,3.013
		C5.202,3.45,5.255,3.904,5.237,4.349c0.341-0.136,0.692-0.247,1.037-0.372C7.337,3.618,8.388,3.223,9.45,2.861
		C9.376,2.683,9.287,2.51,9.174,2.352C8.647,1.587,7.591,1.246,6.715,1.555z M10.581,4.007c-0.32,0.099-0.632,0.221-0.948,0.33
		c0.899,1.179,1.812,2.347,2.701,3.533c0.151-0.12,0.315-0.227,0.448-0.369c0.372-0.408,0.599-0.959,0.569-1.515
		c-0.007-0.449-0.18-0.888-0.451-1.243c-0.154-0.159-0.303-0.327-0.489-0.451C11.884,3.93,11.193,3.823,10.581,4.007z M1.862,5.01
		C1.531,5.476,1.394,6.073,1.491,6.635c0.102,0.541,0.417,1.043,0.871,1.357c0.414,0.31,0.939,0.383,1.415,0.552
		c0.004-1.479,0.002-2.958,0.001-4.437C3.04,4.062,2.292,4.405,1.862,5.01z M7.352,5.129c-0.24,0.092-0.497,0.13-0.753,0.143
		c-0.407-0.008-0.85-0.109-1.128-0.43C5.332,4.725,5.338,4.527,5.24,4.385c0,0.86,0,1.72,0.001,2.581
		C5.217,7.552,4.951,8.174,4.42,8.468C4.231,8.585,4.004,8.522,3.796,8.535c0.153,0.078,0.324,0.11,0.486,0.164
		c0.62,0.194,1.242,0.377,1.864,0.566C6.469,9.36,6.774,9.526,7.022,9.757c0.24,0.223,0.428,0.522,0.455,0.854
		c0.022,0.187-0.074,0.355-0.137,0.524c-0.795-0.234-1.583-0.491-2.376-0.729c-0.618-0.193-1.244-0.364-1.858-0.572
		c-0.085,0.278-0.092,0.57-0.072,0.858c0.052,0.457,0.267,0.888,0.578,1.223c0.389,0.403,0.939,0.637,1.497,0.658
		c0.526,0.014,1.057-0.163,1.461-0.501c0.301-0.266,0.519-0.606,0.781-0.907c0.483-0.625,0.985-1.236,1.475-1.856
		C8.959,9.13,9.113,8.968,9.278,8.819c0.327-0.266,0.738-0.451,1.165-0.442c0.151,0.025,0.327,0.029,0.441,0.146
		c0.077,0.069,0.167,0.124,0.238,0.202c-0.08,0.132-0.19,0.24-0.279,0.366c-0.798,1.016-1.61,2.021-2.406,3.039
		c0.677,0.516,1.656,0.595,2.396,0.167c0.233-0.123,0.42-0.311,0.598-0.501c0.457-0.546,0.609-1.332,0.384-2.008
		c-0.082-0.28-0.239-0.531-0.42-0.756c-0.638-0.825-1.274-1.652-1.913-2.475C9.214,6.2,9.057,5.764,9.033,5.319
		c0.014-0.243,0.066-0.49,0.205-0.694c0.093-0.12,0.235-0.183,0.349-0.278C8.847,4.623,8.098,4.872,7.352,5.129z"/>
</g>
<g id="Layer_1">
</g>
</svg>
