<?xml version="1.0" encoding="iso-8859-1"?>
<!-- Generator: Adobe Illustrator 19.2.0, SVG Export Plug-In . SVG Version: 6.00 Build 0)  -->
<svg version="1.1" xmlns="http://www.w3.org/2000/svg" xmlns:xlink="http://www.w3.org/1999/xlink" x="0px" y="0px"
	 viewBox="0 0 174.85 174.482" style="enable-background:new 0 0 174.85 174.482;" xml:space="preserve">
<g id="For_x5F_Company_x5F_Management">
	<path style="fill-rule:evenodd;clip-rule:evenodd;" d="M98.803,0.879c-2.782,1.758-8.106,2.055-12.474,1.679
		c-2.368-0.204-4.531-0.976-5.997-1.799c2.286-1.285,6.014-0.43,9.235-0.72c0.655-0.059,2.094-0.045,3.118,0
		C94.865,0.135,97.248,0.068,98.803,0.879z"/>
	<path style="fill-rule:evenodd;clip-rule:evenodd;" d="M68.338,3.277c1.302-0.07,3.697-0.039,4.198,1.199
		c0.525,1.299-0.715,2.87-1.439,3.479c-2.525,2.121-7.377,3.89-10.914,4.437c-3.198,0.495-8.576,0.622-7.436-3.598
		c0.478-1.77,4.216-2.904,6.356-3.478C62.608,4.376,64.971,3.459,68.338,3.277z"/>
	<path style="fill-rule:evenodd;clip-rule:evenodd;" d="M110.077,3.877c4.974-0.418,11.923,2.377,15.112,4.798
		c2.066,1.568,3.465,3.24,5.638,4.797c2.185,1.566,4.104,2.378,6.956,3.358c5.151,1.77,8.796,4.769,12.233,8.396
		c0.938,0.989,2.605,3.333,2.159,4.678c-0.702,2.112-5.182,0.39-5.757,0.12c-5.865-2.754-8.074-8.91-12.834-12.833
		c-2.412-1.989-5.462-3.124-8.995-3.718c-5.742-0.966-10.49-1.626-14.393-4.678C108.786,7.691,105.679,4.247,110.077,3.877z
		 M112.836,4.357c0,0.08,0,0.16,0,0.24c0.295,0.187,0.353-0.407,0.12-0.36C112.949,4.31,112.937,4.379,112.836,4.357z"/>
	<path style="fill-rule:evenodd;clip-rule:evenodd;fill:#FFFFFF;" d="M112.956,4.237c0.232-0.047,0.175,0.546-0.12,0.36
		c0-0.08,0-0.16,0-0.24C112.937,4.379,112.949,4.31,112.956,4.237z"/>
	<path style="fill-rule:evenodd;clip-rule:evenodd;" d="M89.687,7.235c3.604-0.296,8.248,0.439,10.915,2.519
		c1.552,1.21,3.274,3.338,2.758,5.757c-0.752,3.524-4.835,4.644-7.076,6.476c-2.327,1.903-4.068,5.492-1.799,8.875
		c2.473,3.688,7.914,5.878,9.835,10.435c1.095,2.598,0.765,5.606,0,7.556c-2.447,6.24-11.297,10.287-18.831,6.717
		c-4.14-1.962-7.709-5.849-7.196-11.515c0.592-6.536,6.576-8.359,9.235-12.953c2.964-5.12-0.492-8.267-3.479-11.035
		c-1.255-1.164-3.867-3.148-4.078-5.517C79.514,9.407,85.406,7.587,89.687,7.235z"/>
	<path style="fill-rule:evenodd;clip-rule:evenodd;" d="M8.129,49.574c-0.279-2.016,1.154-3.879,2.159-5.517
		c1.023-1.667,2.03-3.451,3.118-5.038c2.092-3.051,4.982-5.526,8.156-8.036c6.756-5.342,10.734-14.008,19.91-15.832
		c4.695-0.933,2.807,3.686,1.44,5.517c-2.282,3.057-4.947,5.157-8.636,6.597c-3.063,1.196-7.011,1.235-9.715,2.878
		c-5.745,3.492-7.835,11.508-11.994,16.552C11.532,47.951,10.47,49.405,8.129,49.574z"/>
	<path style="fill-rule:evenodd;clip-rule:evenodd;" d="M118.713,19.349c4.696-0.087,9.321,2.635,11.754,5.397
		c2.346,2.663,3.23,6.44,5.638,8.995c1.267,1.346,3.489,2.704,5.276,3.358c2.758,1.01,6.665,0.539,9.596,1.679
		c2.604,1.014,5.179,3.409,6.717,5.997c2.437,4.102,3.737,12.737-1.559,14.152c-4.194,1.121-7.638-1.857-9.235-3.838
		c-4.744-5.88-4.587-18.889-16.432-17.991c-2.651,0.201-4.702,1.036-7.437,0.84c-4.713-0.337-9.237-3.118-11.273-6.957
		c-0.606-1.143-1.57-3.19-1.2-5.757C111.057,21.753,114.159,19.434,118.713,19.349z"/>
	<path style="fill-rule:evenodd;clip-rule:evenodd;" d="M60.902,19.589c5.315-0.551,10.292,2.38,9.955,7.916
		c-0.3,4.931-5.295,9.304-9.476,10.555c-5.683,1.7-12.429-0.601-17.271,1.679c-1.822,0.858-3.664,2.578-4.797,4.078
		c-2.87,3.796-3.618,9.053-6.956,12.473c-2.068,2.118-6.33,5.564-10.915,3.599c-3.121-1.338-4.317-5.653-3.119-10.075
		c1.336-4.93,5.986-10.351,10.915-10.795c2.706-0.243,4.762,0.305,6.717,0.12c5.775-0.545,8.449-3.895,10.674-8.396
		c1.991-4.026,3.625-6.71,7.556-8.996C56.048,20.665,58.336,19.855,60.902,19.589z"/>
	<path style="fill-rule:evenodd;clip-rule:evenodd;" d="M167.408,50.054c-2.131-0.81-3.848-3.374-5.398-5.757
		c-1.639-2.52-3.979-6.665-3.598-9.715c0.079,0,0.159,0,0.239,0c2.509,2.796,4.749,6.515,6.837,10.075
		C166.46,46.312,167.537,47.827,167.408,50.054z"/>
	<path style="fill-rule:evenodd;clip-rule:evenodd;" d="M58.503,48.734c5.148-0.325,9.919,2.933,11.634,6.956
		c0.864,2.027,1.312,4.988,0.72,7.557c-1.886,8.173-11.123,10.775-10.915,20.269c0.187,8.509,7.373,10.621,9.835,17.392
		c3.836,10.546-6.856,20.095-17.151,16.312c-4.665-1.714-9.667-7.146-9.355-13.793c0.382-8.128,9.957-11.31,11.514-18.591
		c1.796-8.396-6.483-11.122-9.355-16.552C40.322,58.625,49.431,49.307,58.503,48.734z"/>
	<path style="fill-rule:evenodd;clip-rule:evenodd;" d="M125.669,49.574c9.442-0.088,17.289,12.56,11.154,21.469
		c-0.928,1.348-3.256,3.357-5.396,3.838c-7.481,1.678-13.548-4.667-20.39-1.439c-2.77,1.308-4.545,4.678-5.518,8.036
		c-1.574,5.435-2.186,10.687-6.717,13.434c-4.162,2.522-10.804,2.731-15.832,0.119c-4.112-2.136-6.185-6.885-6.357-11.514
		c-0.21-5.632,4.202-11.771,9.355-13.313c6.689-2.001,15.547,2.441,21.589-0.479c1.755-0.849,2.571-1.572,3.478-2.639
		c2.939-3.457,3.302-9.814,6.116-13.434C118.809,51.523,121.723,49.611,125.669,49.574z"/>
	<path style="fill-rule:evenodd;clip-rule:evenodd;" d="M8.848,58.329c3.588,0.319,2.578,8.824,3.358,12.714
		c0.325,1.621,1.373,3.35,2.639,3.838c4.58,1.768,8.364-3.723,13.913-2.759c4.407,0.767,7.537,5.992,7.676,11.154
		c0.173,6.428-3.633,13.207-10.674,13.073c-4.086-0.077-6.933-2.4-8.276-5.757c-1.822-4.553-1.65-9.989-4.798-12.474
		c-0.528-0.417-1.502-0.992-2.159-1.079c-2.512-0.332-4.298,2.207-6.716,1.799c-3.481-0.588-2.659-8.007-1.799-11.274
		C2.886,64.241,5.271,58.012,8.848,58.329z"/>
	<path style="fill-rule:evenodd;clip-rule:evenodd;" d="M168.248,59.528c2.005-0.326,3.421,3.287,4.197,5.518
		c0.964,2.768,1.567,5.436,1.8,7.676c0.236,2.282,0.11,6.061-1.56,6.478c-2.361,0.589-2.992-1.797-5.638-1.319
		c-4.985,0.898-4.256,9.752-6.356,14.032c-0.575,1.174-1.709,2.671-2.399,3.238c-3.84,3.157-9.805,1.958-12.354-1.679
		c-2.007-2.862-2.761-7.923-2.039-11.634c0.833-4.284,3.98-8.696,8.875-8.517c3.781,0.14,5.364,3.025,9.235,2.759
		c5.089-0.35,3.102-9.489,4.318-14.152C166.622,60.802,167.115,59.713,168.248,59.528z"/>
	<path style="fill-rule:evenodd;clip-rule:evenodd;" d="M159.612,135.691c-0.648-4.391,1.693-7.708,3.718-11.035
		c2.352-3.863,6.234-7.973,5.397-14.272c-0.236-1.775-1.451-3.271-1.919-5.037c-1.525-5.753,0.15-14.849,4.798-16.432
		c2.443-0.833,3.178,3.58,3.238,6.236c0.178,7.898-4.355,13.88-5.518,20.75c-0.423,2.497-0.326,4.65-0.96,6.236
		c-0.7,1.754-1.641,3.188-2.519,4.918C164.183,130.336,163.034,133.999,159.612,135.691z"/>
	<path style="fill-rule:evenodd;clip-rule:evenodd;" d="M2.971,108.464c-1.169-2.188-2.506-5.254-2.878-9.235
		c-0.325-3.477,0.06-9.333,3.478-9.115c1.975,0.126,4.017,3.384,4.798,5.397c2.126,5.482,1.884,11.34,6.956,13.433
		c3.234,1.335,6.276-0.411,9.476,0.12c5.935,0.986,10.794,6.849,10.795,13.793c0,4.144-2.17,7.733-5.757,8.276
		c-5.092,0.77-9.364-3.461-10.795-6.117c-1.629-3.026-1.964-5.924-3.238-8.876c-1.082-2.507-2.787-5.939-5.517-6.597
		c-2.119-0.51-4.76,1.378-6.597-0.239C3.288,108.948,3.719,108.626,2.971,108.464z"/>
	<path style="fill-rule:evenodd;clip-rule:evenodd;" d="M125.789,91.192c4.36-0.172,8.161,2.245,9.715,5.038
		c2.734,4.911,1.094,14.557,7.196,15.951c5.074,1.16,9.651-4.988,14.633-3.238c6.495,2.283,2.684,12.782-0.12,16.552
		c-1.745,2.348-5.098,6.007-8.995,5.157c-5.646-1.23-3.712-9.229-6.837-13.312c-0.438-0.574-2.069-1.823-2.878-2.159
		c-6.178-2.565-12.854,3.651-19.55,0.359c-3.784-1.859-6.836-6.877-6.117-12.833c0.324-2.688,1.228-4.413,2.639-6.237
		C117.325,94.078,121.082,91.378,125.789,91.192z"/>
	<path style="fill-rule:evenodd;clip-rule:evenodd;" d="M92.806,110.263c6.958-0.42,13.196,3.776,13.913,10.435
		c1.103,10.234-10.093,12.408-12.114,18.591c-2.935,8.979,13.664,10.189,8.875,19.19c-3.218,6.048-18.167,7.962-22.429,1.079
		c-0.778-1.258-1.065-3.041-0.719-4.558c1.365-5.993,11.775-7.708,8.755-16.671c-1.918-5.693-9.062-7.49-9.475-14.873
		c-0.296-5.279,3.087-9.592,6.716-11.514C88.193,110.955,90.605,110.396,92.806,110.263z"/>
	<path style="fill-rule:evenodd;clip-rule:evenodd;" d="M6.33,119.979c2.49-0.286,4.649,2.357,6.356,4.797
		c1.686,2.407,3.061,5.008,3.599,7.076c0.355,1.365,0.941,4.868-0.36,5.277c-1.146,0.361-2.95-1.841-3.598-2.639
		c-2.379-2.925-5.941-8.223-6.357-12.353C5.888,121.322,5.922,120.32,6.33,119.979z"/>
	<path style="fill-rule:evenodd;clip-rule:evenodd;" d="M124.59,127.294c3.745-0.459,6.964,0.624,8.396,2.399
		c2.91,3.606,1.064,12.628,8.156,11.754c2.193-0.27,4.408-1.591,6.356-2.398c1.622-0.673,5.355-2.203,6.356-0.36
		c0.83,1.526-0.92,4.397-1.679,5.518c-1.968,2.902-4.497,5.627-7.556,7.676c-1.186,0.794-3.92,2.471-5.518,1.56
		c-2.223-1.269,0.232-7.419-2.518-8.876c-2.208-1.169-5.631,0.209-7.916,1.08c-4.744,1.806-11.852,4.434-15.352-0.72
		c-0.906-1.336-1.558-3.406-1.319-5.997c0.359-3.905,2.644-6.664,5.277-8.636C118.903,129.073,121.571,127.665,124.59,127.294z"/>
	<path style="fill-rule:evenodd;clip-rule:evenodd;" d="M52.866,129.573c8.451-0.903,15.408,4.696,16.791,11.395
		c1.328,6.429-4.396,10.498-10.555,9.954c-4.122-0.363-8.14-2.575-12.114-2.519c-3.378,0.049-5.481,1.408-5.997,4.558
		c-0.198,1.213-0.257,2.953-1.079,3.599c-2.377,1.866-7.539-1.718-9.235-2.999c-2.807-2.118-5.074-4.284-6.477-6.597
		c-0.705-1.161-1.76-3.784-0.719-5.037c1.488-1.79,5.169-0.031,7.196,0.84c1.892,0.813,4.761,2.351,6.716,2.879
		c2.633,0.71,4.938,0.289,6.117-1.56c1.546-2.425,0.818-5.352,1.559-8.276C45.85,132.733,48.47,130.043,52.866,129.573z"/>
	<path style="fill-rule:evenodd;clip-rule:evenodd;" d="M124.11,155.72c2.604-0.214,6.132,0.077,6.356,2.518
		c0.19,2.076-2.348,3.673-3.718,4.678c-1.686,1.236-3.491,2.509-5.157,3.118c-4.755,1.742-10.603,1.172-15.712,2.999
		c-3.564,1.274-6.093,4.236-10.675,5.037c-2.185,0.382-4.807,0.488-7.556,0.36c-2.33-0.108-5.874-0.59-6.237-1.68
		c-0.393-1.183,1.465-2.191,2.639-2.639c5.44-2.074,15.392-0.063,20.99-2.398c1.129-0.472,2.469-1.102,3.358-1.68
		c1.813-1.176,2.622-3.156,3.838-4.438C114.957,158.731,118.635,156.169,124.11,155.72z"/>
	<path style="fill-rule:evenodd;clip-rule:evenodd;" d="M53.826,158.479c5.592-0.75,12.18,1.628,14.993,4.917
		c2.722,3.184,1.804,7.093-3.598,6.478c-3.947-0.45-8.88-2.679-11.754-4.078c-1.31-0.638-4.208-2.395-3.838-4.798
		C49.9,159.235,52.184,158.698,53.826,158.479z"/>
</g>
<g id="Layer_1">
</g>
</svg>
