<?xml version="1.0" encoding="iso-8859-1"?>
<!-- Generator: Adobe Illustrator 19.2.0, SVG Export Plug-In . SVG Version: 6.00 Build 0)  -->
<svg version="1.1" xmlns="http://www.w3.org/2000/svg" xmlns:xlink="http://www.w3.org/1999/xlink" x="0px" y="0px"
	 viewBox="0 0 89.622 43.858" style="enable-background:new 0 0 89.622 43.858;" xml:space="preserve">
<g id="Ford_x5F_Motor_x5F_Company_x5F_proposed">
	<path style="fill-rule:evenodd;clip-rule:evenodd;" d="M7.323,38.268c-2.974-2.631-5.298-5.96-6.513-10.196
		c-1.386-4.831-0.888-10.08,0.693-14.254c1.427-3.765,4.252-7.141,7.314-9.396c3.303-2.433,7.17-4.038,12.545-4.324
		c4.133-0.22,8.372,0,12.546,0c8.317,0.001,16.153,0.053,24.771,0.053c4.226,0,8.584-0.304,12.278,0.214
		c3.482,0.488,6.544,1.821,9.022,3.524c2.387,1.639,4.724,3.89,6.193,6.299c1.601,2.627,2.881,5.598,3.31,9.236
		c0.458,3.888-0.26,7.667-1.495,10.784c-2.315,5.845-6.734,10.098-12.759,12.279c-1.6,0.579-3.278,0.989-5.125,1.174
		c-1.853,0.186-3.804,0.013-6.033,0.107c-3.948,0.166-8.329,0.053-12.332,0.053c-8.1,0-16.713-0.053-24.877-0.053
		c-2.22,0-4.295,0.066-6.246-0.054C14.941,43.366,10.546,41.213,7.323,38.268z M62.577,39.123c5.986,0,11.003-1.215,14.627-3.951
		c3.566-2.692,6.098-6.407,6.46-12.119c0.769-12.121-7.784-17.699-18.952-18.098C58.846,4.747,52.544,4.85,46.241,4.849
		c-8.052-0.001-16.328-0.192-23.917,0.16c-5.26,0.244-9.117,1.507-11.958,4.217c-2.71,2.668-5.186,5.826-5.552,10.624
		c-0.403,5.276,1.433,9.039,4.537,11.531c1.533,1.23,3.598,1.982,5.979,2.082c6.7,0.282,9.547-4.244,11.958-8.274
		c0.492-0.822,0.804-1.855,1.655-2.402c0.849-0.046,2.253-0.191,2.935,0.106c-0.008,0.432-0.358,0.68-0.533,0.961
		c-2.169,3.484,0.812,7.768,4.164,8.115c0.464,0.048,1.019,0.044,1.495,0c3.247-0.297,6.357-3.264,5.498-7.367
		c-0.144-0.685-0.484-1.095-0.534-1.869c0.86-0.367,2.226-0.213,3.471-0.213c0.615,0,1.273,0,1.868,0
		c0.587,0,1.281-0.163,1.602,0.267c-0.688,1.465-1.625,2.792-2.456,4.164c-0.415,0.686-0.817,1.393-1.228,2.082
		c-0.406,0.683-1.014,1.313-1.121,2.135c0.477,0.401,1.54,0.121,2.242,0.107c1.089-1.457,1.951-3.139,2.83-4.805
		c0.532-0.769,0.963-1.593,1.441-2.402c0.452-0.766,1.182-1.586,1.014-2.723c-0.74-1.455-3.296-1.015-5.339-1.015
		c-2.119,0-4.458-0.042-6.299,0.054c-0.357,0.486-0.977,1.228-0.907,1.975c0.049,0.543,0.797,1.016,1.014,1.602
		c1.211,3.259-1.439,6.534-4.751,5.552c-2.103-0.624-2.772-3.583-1.281-5.552c0.493-0.442,0.858-0.883,1.654-1.174
		c0.481-0.176,1.125-0.114,1.495-0.374c0.53-0.371,0.688-1.18,0.747-1.922c-1.086-0.283-2.488-0.16-3.844-0.16
		c-0.645,0-1.307-0.016-1.922,0c-0.638,0.017-1.341,0.101-1.762-0.267c0.353-1.251,0.99-2.079,1.655-2.99
		c0.588-0.806,1.339-1.845,2.402-2.295c1.805-0.765,4.732-0.473,7.047-0.427c0.862,0.017,1.89,0.146,2.456-0.107
		c0.555-0.248,0.779-0.993,0.961-1.708c-0.655-0.364-1.476-0.214-2.189-0.214c-4.062,0.001-8.209,0-12.065,0
		c-1.575,0.001-3.191-0.161-4.698,0.054c-2.459,0.35-4.456,2.231-5.818,3.897c-0.73,0.893-1.319,1.908-1.923,2.936
		c-0.59,1.007-1.288,2.045-1.654,3.203c0.301,0.344,1.339,0.222,1.868,0.16c0.879-0.898,1.455-2.078,2.136-3.149
		c1.438-2.266,2.775-4.227,5.819-4.858c1.425-0.296,3.352-0.44,4.911-0.107c-0.397,0.661-1.036,0.838-1.495,1.388
		c-0.5,0.6-1.092,1.548-1.602,2.296c-0.446,0.656-1.011,1.923-1.762,2.135c-0.459,0.13-1.081-0.062-1.548,0.107
		c-0.415,0.15-0.522,0.602-0.747,1.014c-0.215,0.391-0.611,0.711-0.481,1.174c0.339,0.373,1.497-0.074,1.708,0.427
		c-0.776,2.16-2.147,3.726-3.417,5.392c-1.598,1.455-3.308,2.776-6.192,2.723c-3.57-0.066-6.18-1.872-7.474-4.378
		c-1.432-2.772-1.458-6.748-0.321-9.876c2.055-5.648,6.867-9.39,14.255-9.503c11.834-0.181,23.28-0.053,35.233-0.053
		c4.065,0,7.936-0.136,11.371,0.534c6.413,1.25,11.111,5.016,11.852,11.905c0.852,7.915-2.946,12.914-8.328,15.321
		c-2.765,1.237-6.162,1.869-9.983,1.869c-10.585,0-21.61,0-32.352,0c-0.987,0-2.301-0.164-2.936,0.053
		c-0.574,0.196-1.192,1.41-1.228,1.976C38.065,39.179,50.406,39.123,62.577,39.123z M71.438,16.273
		c-0.997,0.96-1.647,2.266-2.401,3.47c-0.375,0.598-0.729,1.234-1.122,1.815c-0.394,0.583-0.758,1.255-1.334,1.655
		c-0.512-0.32-0.589-0.797-0.908-1.174c-1.821-2.153-5.624-1.489-9.502-1.655c-0.556-0.771-1.033-1.674-2.189-1.602
		c-1.76,0.11-2.415,2.954-0.533,3.523c0.704,0.213,1.923-0.209,2.456,0.267c-0.124,0.605-0.574,0.91-0.802,1.388
		c-0.187,0.394-0.369,0.931-0.427,1.495c-0.38,3.715,2.453,6.068,5.392,6.353c4.633,0.448,6.338-2.825,8.062-5.873
		c1.613-2.852,3.37-5.226,4.591-7.741c0.34-0.699,0.562-1.129,0.641-1.708C72.976,16.104,72.058,16.29,71.438,16.273z"/>
	<path style="fill-rule:evenodd;clip-rule:evenodd;" d="M60.334,22.573c2.478-0.349,4.2,1.351,4.217,3.417
		c0.021,2.48-2.569,4.165-4.911,3.363c-1.467-0.502-3.063-2.713-2.082-4.805C57.939,23.738,58.899,22.775,60.334,22.573z"/>
</g>
<g id="Layer_1">
</g>
</svg>
