<?xml version="1.0" encoding="iso-8859-1"?>
<!-- Generator: Adobe Illustrator 19.2.0, SVG Export Plug-In . SVG Version: 6.00 Build 0)  -->
<svg version="1.1" xmlns="http://www.w3.org/2000/svg" xmlns:xlink="http://www.w3.org/1999/xlink" x="0px" y="0px"
	 viewBox="0 0 83.822 58.642" style="enable-background:new 0 0 83.822 58.642;" xml:space="preserve">
<g id="Foreningen_x5F_af_x5F_Danske_x5F_Civilokonomen">
	<path style="fill-rule:evenodd;clip-rule:evenodd;" d="M24.335,0.333c0.181,2.865,0.098,5.837-0.049,8.694
		c-2.497,0.119-5.057-0.234-6.387,1.18c-0.987,1.05-0.987,3.191-0.785,5.206c0.921,0.22,2.055,0.106,3.241,0.147
		c1.17,0.041,2.428-0.107,3.488,0.099c-0.092,0.437-0.586,0.514-0.884,0.688c-4.77,2.788-8.134,7.8-9.334,14.246
		c-1.413,7.591-0.209,16.197,3.291,20.681c-0.064,1.967,0.129,4.189-0.098,5.993c-3.483,0.163-7.666,0.162-11.2,0
		c-0.282-0.636-0.099-1.346-0.099-2.015c0-10.647,0.086-22.1-0.049-32.176c-0.733-0.238-1.717-0.156-2.652-0.196
		c-0.964-0.041-1.945,0.108-2.751-0.098c-0.05-2.278-0.145-5.024,0.049-7.222c1.562-0.288,3.793,0.092,5.354-0.196
		c0.12-2.685,0.15-4.862,0.688-6.779c1.365-4.871,4.997-7.35,10.316-8.301C18.85-0.14,21.913-0.061,24.335,0.333z M19.471,0.53
		C11.331,0.913,6.494,4.515,6.11,12.614c-0.052,1.086,0.187,2.217-0.098,3.341c-1.772,0.26-3.683-0.158-5.354,0.196
		c-0.162,1.807-0.164,4.285,0,6.091c1.474,0.426,3.931-0.132,5.403,0.295c0.156,11.308-0.188,22.896,0.098,34.141
		c2.339,0.197,5.048,0.146,7.614,0.147c0.869,0,1.749,0.114,2.506-0.147c0.226-1.543,0.035-3.502,0.098-5.207
		c-2.89-4.091-4.265-10.192-3.782-17.143c0.456-6.579,2.688-11.583,5.993-15.18c0.487-0.508,0.969-1.015,1.522-1.474
		c0.54-0.447,1.267-0.777,1.621-1.425c-1.462-0.355-3.667,0.033-5.158-0.294c-0.291-2.987-0.154-5.684,1.818-6.779
		c1.299-0.722,3.315-0.565,5.305-0.736c0.257-0.498,0.147-1.148,0.147-1.769c0-1.942,0.08-4.086-0.099-5.797
		C22.547,0.539,20.958,0.459,19.471,0.53z"/>
	<path style="fill-rule:evenodd;clip-rule:evenodd;" d="M55.38,0.382c0.202,4.986,0.013,10.389,0.049,15.081
		c-0.592,0.642-1.425,0.889-2.112,1.326c-4.137,2.63-7.174,6.614-8.793,11.838c-0.258,0.831-0.394,1.747-0.786,2.604
		c-0.431-0.496-0.543-1.144-0.786-1.72c-0.712-1.689-1.8-3.179-3.438-4.028c-1.932-1.279-5.934-1.427-8.106-0.344
		c-0.806,0.402-1.636,1.182-2.259,1.916c-3.044,3.58-3.646,11.508-1.671,16.751c0.734,1.947,2.036,3.647,3.733,4.52
		c3.27,1.679,7.648,0.457,9.628-1.524c0.645-0.645,1.23-1.272,1.671-2.063c0.443-0.796,0.649-1.705,1.179-2.505
		c0.342,0.324,0.34,0.838,0.441,1.228c1.442,5.494,4.427,9.861,8.646,12.673c0.63,0.421,1.38,0.729,1.866,1.376
		c-3.311,0.067-6.968,0.059-10.218-0.099c-0.282-1.207,0.085-3.064-0.196-4.273c-0.494,0.044-0.675,0.555-0.934,0.835
		c-0.291,0.316-0.606,0.573-0.884,0.885c-2.424,2.305-5.588,3.783-9.923,3.782c-4.351-0.001-7.851-1.321-10.315-3.341
		c-4.84-3.963-7.943-10.948-7.369-19.895c0.544-8.461,3.674-14.783,9.284-18.077c2.8-1.644,6.958-2.91,11.2-2.014
		c3.461,0.731,5.729,2.077,7.713,4.273c0.249,0.275,0.462,0.694,0.884,0.786c0.255-5.609,0.147-11.829,0.147-17.733
		c0-0.802-0.118-1.619,0.148-2.357C47.839,0.197,51.819,0.209,55.38,0.382z M44.72,0.873c-0.23,0.21-0.146,1.461-0.147,2.309
		c-0.001,5.691-0.081,11.239-0.049,16.506c0.004,0.631,0.239,1.891-0.245,2.014c-0.362,0.092-0.809-0.546-0.983-0.786
		c-1.785-2.468-4.114-4.148-7.466-4.961c-4.298-1.043-8.649,0.237-11.495,1.915c-2.814,1.659-5.281,4.456-6.681,7.517
		c-1.465,3.201-2.493,7.201-2.407,11.789c0.169,9.005,3.438,15.825,9.334,19.06c2.966,1.627,7.851,2.528,11.838,1.376
		c3.323-0.961,5.513-2.691,7.271-5.109c0.22-0.302,0.448-0.859,0.983-0.835c0.316,0.241,0.196,0.75,0.196,1.179
		c0,1.34-0.114,3.004,0.147,4.028c2.248,0.162,5.17,0.165,7.418,0c-0.277-0.604-0.906-0.879-1.376-1.277
		c-1.468-1.246-2.752-2.617-3.88-4.175c-1.528-2.109-2.583-4.496-3.537-7.222c-0.42,0.177-0.543,0.664-0.737,0.982
		c-1.508,2.465-3.93,4.421-7.81,4.422c-4.478,0-6.923-2.222-8.203-5.748c-1.276-3.516-1.399-8.43-0.491-12.183
		c0.887-3.666,2.819-6.762,6.386-7.614c2.478-0.591,5.246-0.034,6.927,0.835c1.327,0.688,2.365,1.856,3.095,3.046
		c0.246,0.403,0.356,0.979,0.835,1.229c0.411-0.729,0.602-1.515,0.884-2.26c1.453-3.836,3.68-6.851,6.583-9.185
		c1.176-0.946,2.449-1.704,3.782-2.555c0.049-4.621,0.146-9.703-0.049-14.196c-0.699-0.259-1.52-0.153-2.31-0.147
		c-2.494,0.017-5.138-0.112-7.663-0.05C44.81,0.799,44.756,0.828,44.72,0.873z"/>
	<path style="fill-rule:evenodd;clip-rule:evenodd;" d="M83.429,30.397c-3.341,0.16-7.066,0.157-10.414,0
		c-0.991-3.312-3.133-6.141-7.27-6.141c-2.232,0-4.306,0.472-5.847,1.621c-2.885,2.151-4.07,5.983-4.273,10.61
		c-0.308,7.022,2.341,12.878,8.892,13.361c2.264,0.167,4.662-0.255,6.238-1.572c0.601-0.501,1.308-1.499,1.72-2.26
		c0.47-0.867,0.744-1.854,1.08-2.897c3.249-0.2,7.046-0.105,10.267,0.049c-0.313,4.267-2.015,7.663-4.421,10.07
		c-2.412,2.412-5.648,4.255-9.628,4.961c-9.342,1.658-16.904-2.23-20.877-7.467c-2.114-2.786-3.562-6.238-4.127-10.463
		c-0.614-4.6,0.193-9.213,1.572-12.624c2.615-6.47,8.52-11.673,17.193-12.134c8.951-0.476,14.483,3.099,17.733,8.449
		C82.368,25.772,83.173,27.964,83.429,30.397z"/>
</g>
<g id="Layer_1">
</g>
</svg>
