<?xml version="1.0" encoding="iso-8859-1"?>
<!-- Generator: Adobe Illustrator 19.2.0, SVG Export Plug-In . SVG Version: 6.00 Build 0)  -->
<svg version="1.1" xmlns="http://www.w3.org/2000/svg" xmlns:xlink="http://www.w3.org/1999/xlink" x="0px" y="0px"
	 viewBox="0 0 69.221 72.288" style="enable-background:new 0 0 69.221 72.288;" xml:space="preserve">
<g id="Forest_x5F_History_x5F_Society">
	<path style="fill-rule:evenodd;clip-rule:evenodd;" d="M34.783,0.042c0.033,0,0.065,0,0.099,0
		c2.464,3.815,4.435,7.981,6.749,11.922c2.316,3.943,4.415,7.984,6.848,11.775c0.477-0.293,0.759-0.857,1.035-1.33
		c1.396-2.396,2.816-4.928,4.237-7.342c0.571-0.971,1.009-2.035,1.774-2.857c0.467,0.336,0.713,0.906,0.985,1.381
		c3.973,6.912,7.92,13.957,11.973,20.889c0.289,0.496,0.715,0.969,0.739,1.576c-3.065,0.166-6.771,0.098-10.199,0.1
		c-1.144,0-2.286-0.117-3.301,0.146c0.43,1.074,1.061,2.057,1.626,3.055c2.787,4.92,5.861,9.779,8.572,14.83
		c0.54,1.006,1.097,2.017,1.675,3.006c0.572,0.975,1.299,1.895,1.626,3.004c-4.469,0.119-9.825,0.174-14.682,0.1
		c-2.213-0.033-4.417,0.074-6.553,0c-1.033-0.037-2.103-0.092-3.104-0.049c-1.057,0.045-2.105-0.109-3.104,0.146
		c0.387,1.066,1.01,2.045,1.576,3.006c1.416,2.4,2.768,4.84,4.188,7.291c0.267,0.461,0.667,0.912,0.69,1.479
		c-4.534,0.266-9.21,0.006-13.795,0c-3.433-0.004-6.862,0.125-10.199,0c-1.119-0.041-2.265,0.15-3.35-0.148
		c1.009-2.006,2.187-3.918,3.301-5.861c0.555-0.969,1.12-1.949,1.675-2.908c0.551-0.951,1.217-1.85,1.527-2.906
		c-1.268-0.275-2.795-0.15-4.188-0.148C15.595,60.213,7.148,60.182,0,60.001c0.309-1.131,1.064-2.061,1.626-3.055
		c3.326-5.896,6.929-11.771,10.297-17.688c0.564-0.992,1.175-1.977,1.577-3.055c-0.99-0.332-2.148-0.197-3.301-0.197
		c-3.374,0-7.037,0.106-10.149-0.148c0.046-0.584,0.457-1.051,0.739-1.527c2.021-3.412,3.982-6.975,6.011-10.445
		c1.733-2.965,3.405-5.918,5.173-8.916c0.572-0.971,1.054-2.024,1.823-2.857c0.774,0.812,1.218,1.889,1.774,2.857
		c1.118,1.949,2.244,3.912,3.399,5.863c0.566,0.955,1.049,1.98,1.774,2.807c0.842-0.721,1.27-1.863,1.823-2.857
		c3.566-6.395,7.545-12.688,11.184-19.213c0.292-0.525,0.528-1.15,0.887-1.479C34.641,0.051,34.798-0.06,34.783,0.042z
		 M21.038,24.133c-0.083,0.358,0.473,1.01,0.739,1.477c1.726,3.033,3.355,5.934,5.025,8.771c0.283,0.481,0.436,1.08,0.936,1.379
		c0.728-0.826,1.214-1.842,1.773-2.809c1.401-2.42,2.841-4.912,4.237-7.291c0.274-0.467,0.636-0.965,0.69-1.527
		c-0.996-0.264-2.119-0.148-3.203-0.148c-3.347,0-6.771,0-10.051,0C21.114,24.012,21.065,24.061,21.038,24.133z M35.029,24.083
		c-0.011,0.562,0.373,1.066,0.641,1.527c0.856,1.48,1.676,2.928,2.513,4.385c0.861,1.502,1.589,3.045,2.414,4.484
		c0.268,0.467,0.533,1.025,0.985,1.33c1.28-1.785,2.309-3.789,3.449-5.715c0.859-1.453,1.696-2.949,2.513-4.385
		c0.273-0.481,0.688-0.947,0.69-1.527C44.191,24.032,38.937,23.981,35.029,24.083z M14.435,36.055
		c-0.243-0.045-0.334,0.061-0.443,0.148c0.933,2.051,2.171,3.936,3.301,5.863c0.852,1.451,1.688,2.93,2.513,4.334
		c0.267,0.455,0.448,1.09,0.985,1.33c0.67-0.852,1.248-1.803,1.773-2.758c1.344-2.441,2.854-4.812,4.188-7.193
		c0.279-0.498,0.637-1.033,0.689-1.625C23.312,35.948,18.575,36.088,14.435,36.055z M52.618,36.104
		c-1.645,0.066-3.657,0.051-5.518,0.051c-1.359,0-2.748,0-4.04,0c-0.389,0-0.896-0.121-1.232,0.146
		c0.072,0.543,0.414,1.008,0.69,1.479c1.694,2.889,3.384,5.881,5.025,8.721c0.268,0.463,0.535,1.021,0.985,1.33
		c0.722-0.824,1.223-1.824,1.773-2.76c1.143-1.938,2.23-3.857,3.351-5.764c0.565-0.961,1.228-1.92,1.576-3.006
		C54.445,36.114,53.506,36.069,52.618,36.104z M31.285,48.126c-3.287,0-7.164-0.059-10.199,0c-0.167,0.576,0.336,1.084,0.591,1.527
		c1.705,2.959,3.259,5.978,5.025,8.869c0.214,0.35,0.693,1.332,0.985,1.33c0.355-0.002,0.751-1.014,0.936-1.33
		c1.431-2.439,2.853-4.883,4.237-7.242c0.565-0.963,1.168-1.91,1.577-3.006C33.481,48.006,32.393,48.126,31.285,48.126z
		 M35.029,48.174c-0.194,0.426,0.216,0.777,0.394,1.084c0.206,0.355,0.444,0.738,0.641,1.086c1.517,2.664,2.963,5.59,4.483,8.178
		c0.285,0.484,0.474,1.096,0.985,1.379c0.765-0.793,1.21-1.828,1.773-2.76c1.174-1.938,2.239-3.875,3.351-5.812
		c0.553-0.965,1.271-1.894,1.577-3.006C44.083,48.055,39.292,48.167,35.029,48.174z"/>
</g>
<g id="Layer_1">
</g>
</svg>
