<?xml version="1.0" encoding="iso-8859-1"?>
<!-- Generator: Adobe Illustrator 19.2.0, SVG Export Plug-In . SVG Version: 6.00 Build 0)  -->
<svg version="1.1" xmlns="http://www.w3.org/2000/svg" xmlns:xlink="http://www.w3.org/1999/xlink" x="0px" y="0px"
	 viewBox="0 0 41.07 69.737" style="enable-background:new 0 0 41.07 69.737;" xml:space="preserve">
<g id="Franck_x5F_Olivier">
	<path style="fill-rule:evenodd;clip-rule:evenodd;" d="M2.285,3.832c1.79-2.024,3.905-3.669,7.528-3.765
		c3.362-0.088,5.679,1.25,7.481,3.233c1.818,2.003,2.764,4.195,2.895,7.722c0.065,1.715,0.081,3.535,0,5.309
		c-0.078,1.715,0.04,3.434,0,5.115c-0.169,7.042-0.048,13.921-0.048,21.041c-0.001,3.48-0.043,6.953,0.048,10.231
		c0.099,3.526,0.223,7.365-0.579,9.941c-0.823,2.646-2.625,4.646-4.729,5.84c-2.314,1.312-5.864,1.676-8.542,0.434
		c-3.648-1.692-6.001-4.612-6.226-9.7C-0.11,54.16,0.065,48.433,0.065,43.404c0-10.747,0.048-21.059,0.048-31.175
		c0-1.811-0.059-3.516,0.338-4.972C0.823,5.897,1.471,4.829,2.285,3.832z"/>
	<path style="fill-rule:evenodd;clip-rule:evenodd;" d="M38.335,3.591c2.852,2.754,2.869,7.703,2.654,13.078
		c-0.206,5.152,0.195,10.44-0.048,15.588c-0.081,1.705-0.015,3.435-0.049,5.164c-0.034,1.733-0.033,3.537,0.049,5.26
		c0.147,3.122,0.048,6.988,0.048,10.473c0,3.286,0.239,7.369-0.627,9.893c-0.797,2.319-2.747,4.688-4.875,5.743
		c-2.361,1.172-5.975,1.334-8.59,0.049c-2.257-1.11-4.121-3.004-5.115-5.502c-1.023-2.568-0.869-6.011-0.869-9.652
		c0-3.453-0.048-6.972-0.048-10.472c-0.001-7.062,0.049-13.948,0.048-21.041c0-1.734-0.156-3.49-0.097-5.212
		c0.115-3.317-0.242-7.324,0.628-9.99c0.415-1.273,1.137-2.35,1.979-3.33c1.682-1.958,3.905-3.428,7.143-3.619
		C34.382-0.205,36.639,1.527,38.335,3.591z"/>
</g>
<g id="Layer_1">
</g>
</svg>
