<?xml version="1.0" encoding="iso-8859-1"?>
<!-- Generator: Adobe Illustrator 19.2.0, SVG Export Plug-In . SVG Version: 6.00 Build 0)  -->
<svg version="1.1" xmlns="http://www.w3.org/2000/svg" xmlns:xlink="http://www.w3.org/1999/xlink" x="0px" y="0px"
	 viewBox="0 0 77.973 78.151" style="enable-background:new 0 0 77.973 78.151;" xml:space="preserve">
<g id="Fravemollen">
	<path style="fill-rule:evenodd;clip-rule:evenodd;" d="M42.443,0.113c0.292,8.122-0.097,16.939,0.195,25.11
		c0.539-0.181,0.725-0.784,0.975-1.219c3.38-5.862,6.905-11.801,10.24-17.748c0.506-0.903,1.005-1.83,1.657-2.633
		c1.666,0.663,2.829,1.61,4.438,2.536c0.349,0.2,1.301,0.56,1.365,0.926c0.051,0.289-0.458,1.068-0.683,1.463
		c-1.767,3.106-3.684,6.446-5.413,9.508c-2.14,3.789-4.308,7.237-6.144,10.873c0.529,0,1.028-0.334,1.463-0.585
		c5.812-3.358,11.666-6.798,17.554-10.239c0.394-0.229,0.782-0.463,1.365-0.78c0.368-0.201,1.195-0.706,1.414-0.683
		c0.416,0.047,0.725,0.941,0.975,1.365c0.652,1.103,1.078,1.899,1.707,2.975c0.201,0.345,0.841,1.126,0.78,1.56
		c-0.062,0.441-2.202,1.49-2.585,1.706c-5.561,3.137-10.856,6.249-16.334,9.41c-0.883,0.51-1.823,0.97-2.535,1.707
		c0.838,0.259,1.791,0.146,2.73,0.146c7.237,0,14.966-0.078,22.234,0.146c0.208,2.019,0.136,4.746,0,6.874
		c-1.379,0.242-2.826,0.146-4.242,0.146c-10.36,0.001-20.737-0.159-30.913,0.098c-0.265,0.869-0.146,1.875-0.146,2.877
		c0,1.951,0,3.996,0,5.997c0,0.983-0.111,1.969,0.146,2.828c1.438,0.265,2.922,0.146,4.389,0.146
		c10.159-0.002,20.562-0.116,30.767,0.098c0.162,2.069,0.16,4.805,0,6.875c-11.539,0.277-23.51-0.047-35.204,0.243
		c-0.222,1.154-0.068,2.35-0.098,3.559c-0.096,4.03,0.091,8.516-0.146,12.629c-2.051,0.161-4.774,0.161-6.826,0
		c-0.146-5.993-0.273-12.529-0.146-18.968c0.042-2.098,0.167-4.178-0.098-6.144c-0.47,0.151-0.673,0.732-0.926,1.171
		c-3.661,6.344-7.294,12.751-11.068,19.162c-0.245,0.416-0.565,1.21-0.878,1.268c-0.421,0.077-1.23-0.593-1.561-0.78
		c-1.054-0.599-1.927-1.127-2.877-1.755c-0.455-0.303-1.03-0.452-1.365-0.927c1.903-3.785,4.018-7.365,6.096-10.971
		c1.559-2.704,3.104-5.412,4.681-8.143c0.517-0.895,1.199-1.749,1.463-2.779c-1.049,0.266-1.913,0.943-2.828,1.463
		c-2.695,1.53-5.419,2.907-8.095,4.632c-1.732,1.118-3.49,2.025-5.412,3.071c-1.294,0.706-2.606,1.54-4.047,2.341
		c-0.443,0.247-1.117,0.725-1.414,0.683c-0.403-0.057-0.739-0.958-0.975-1.365c-0.654-1.129-1.094-1.916-1.707-2.975
		c-0.207-0.358-0.824-1.178-0.779-1.56c0.057-0.485,2.212-1.414,2.633-1.657c5.911-3.412,11.758-6.682,17.65-10.093
		c0.416-0.24,0.959-0.431,1.219-0.878c-0.439-0.263-0.977-0.146-1.463-0.146c-7.559,0.001-15.74-0.12-23.55-0.243
		c-0.163-2.086-0.16-4.838,0-6.924c8.507-0.346,16.718,0.24,25.159-0.098c-0.264-0.466-0.826-0.667-1.268-0.927
		c-5-2.936-9.855-5.87-14.969-8.874C7.71,24.831,6.392,24.097,4.9,23.225c-0.394-0.231-1.179-0.661-1.219-0.927
		c-0.058-0.371,0.594-1.242,0.779-1.561c0.338-0.576,0.608-0.999,0.878-1.463c0.616-1.057,1.083-2.015,1.804-2.827
		c2.791,1.372,5.434,3.053,8.095,4.632c2.659,1.578,5.284,3.15,7.996,4.729c1.8,1.047,3.56,2.158,5.461,3.023
		c0.053-0.565-0.39-0.979-0.634-1.413c-2.774-4.941-5.629-9.761-8.581-14.726c-0.749-1.258-1.423-2.654-2.243-4.096
		c-0.209-0.367-0.709-1.196-0.683-1.414c0.046-0.388,1.023-0.773,1.316-0.976c1.072-0.736,1.747-1.037,2.877-1.706
		c0.357-0.212,1.153-0.817,1.511-0.78c0.338,0.035,0.664,0.812,0.928,1.267c3.404,5.926,6.98,11.816,10.385,17.797
		c0.516,0.907,1.048,1.81,1.706,2.585c0.305-0.389,0.196-0.951,0.196-1.415c-0.001-6.941,0-13.827,0-20.819
		c-0.001-0.837-0.066-2.642,0.194-3.023c0.036-0.045,0.089-0.073,0.146-0.097C37.992,0.079,40.426-0.112,42.443,0.113z"/>
</g>
<g id="Layer_1">
</g>
</svg>
