<?xml version="1.0" encoding="iso-8859-1"?>
<!-- Generator: Adobe Illustrator 19.2.0, SVG Export Plug-In . SVG Version: 6.00 Build 0)  -->
<svg version="1.1" xmlns="http://www.w3.org/2000/svg" xmlns:xlink="http://www.w3.org/1999/xlink" x="0px" y="0px"
	 viewBox="0 0 70.043 72.102" style="enable-background:new 0 0 70.043 72.102;" xml:space="preserve">
<g id="Fredericia_x5F_Stolefabrik">
	<path style="fill-rule:evenodd;clip-rule:evenodd;" d="M0.31,1.226c0.399-1.55,2.597-1.189,4.602-1.189
		C18.083,0.039,31.543,0.139,44.934,0.14c0.88,0,2.014,0.009,3.051,0.052c1.907,0.081,3.186-0.315,3.724,0.982
		c0.362,0.877,0.157,2.451,0.207,3.775c0.092,2.451,0.103,5.202,0.103,7.859c0.001,1.922,0.149,3.635-1.086,4.292
		c-0.847,0.451-2.724,0.259-3.98,0.259c-7.183,0-13.711,0.103-20.994,0.104c-1.301,0-2.762-0.052-4.188-0.052
		c-2.178,0-4.438-0.185-5.016,1.292c-0.436,1.115-0.155,2.989-0.155,4.24c0.001,2.926,0.085,5.834,0,8.688
		c-0.074,2.479-0.468,5.081,1.913,5.326c1.932,0.198,4.03-0.023,6.05,0.052c0.976,0.036,1.996,0.02,2.999,0.052
		c4.019,0.126,8.227,0.043,12.256-0.052c1.882-0.044,3.198-0.04,3.723,1.24c0.287,0.702,0.155,2.111,0.155,3.258
		c0,2.444,0,4.456,0,6.826c0,1.587,0.184,3.031-0.621,3.723c-0.6,0.516-1.7,0.472-2.792,0.466c-1.105-0.006-2.184,0.016-3.206,0.052
		c-4.53,0.157-8.291-0.026-12.979,0c-0.947,0.005-2.114,0.045-3.258,0c-1.88-0.075-3.392-0.112-3.981,0.982
		c-0.497,0.919-0.362,2.888-0.362,4.395c0,3.14-0.104,6.163-0.104,9.308c0,1.995,0.116,3.987-1.396,4.499
		c-0.788,0.267-2.273,0.091-3.412,0.052c-2.24-0.078-4.851,0.043-6.98,0c-2.086-0.042-3.742,0.188-4.344-1.241
		c-0.403-0.959-0.155-2.887-0.155-4.24c0-4.355,0-8.856,0-13.082c-0.001-5.659-0.23-11.715,0-17.477
		c0.112-2.82-0.037-5.643,0.052-8.481c0.181-5.786,0-11.635,0-17.477C0.154,6.946,0.033,4.054,0.31,1.226z"/>
	<path style="fill-rule:evenodd;clip-rule:evenodd;" d="M54.397,0.244c3.072-0.057,7.45,0,11.169,0
		c1.505-0.001,3.436-0.245,4.086,0.517c0.546,0.642,0.361,2.582,0.361,4.033c-0.002,20.962-0.105,41.101-0.104,61.947
		c0.001,2.335,0.483,4.691-1.241,5.223c-0.75,0.23-1.93,0.104-3.102,0.104c-13.524,0.001-26.617-0.153-40.384-0.155
		c-2.018,0-4.632,0.282-6.154-0.155c-1.873-0.539-1.602-2.6-1.602-5.067c0.001-2.691,0-5.118,0-7.602
		c0.001-2.336-0.045-4.338,1.913-4.705c1.137-0.213,2.66,0,3.981,0c3.916-0.001,8.162,0.041,11.997,0.052
		c4.128,0.012,7.916,0,11.944,0c1.363,0,2.894,0.185,3.982-0.052C53.312,53.931,53,51.401,53,48.902
		c0.002-4.044-0.06-7.895,0.052-12.1c-0.05-0.002-0.04-0.063-0.052-0.104c-0.395-0.674-0.881-1.256-1.706-1.5
		c-6.321-0.055-12.856-0.052-19.649-0.052c-2.093,0.001-5.256,0.327-6.102-0.775c-0.528-0.689-0.465-2.284-0.465-3.619
		c0-1.48,0.051-2.553,0.052-3.982c0-2.425-0.5-6.52,1.138-7.238c0.697-0.307,1.925-0.155,3.103-0.155
		c5.274-0.001,10.427-0.104,15.822-0.104c3.041-0.001,6.472,0.778,7.55-1.293c0.438-2.264,0.361-5.209,0.361-8.325
		c0-2.07-0.043-4.294,0-6.412C53.134,1.777,53.09,0.459,54.397,0.244z"/>
</g>
<g id="Layer_1">
</g>
</svg>
