<?xml version="1.0" encoding="iso-8859-1"?>
<!-- Generator: Adobe Illustrator 19.2.0, SVG Export Plug-In . SVG Version: 6.00 Build 0)  -->
<svg version="1.1" xmlns="http://www.w3.org/2000/svg" xmlns:xlink="http://www.w3.org/1999/xlink" x="0px" y="0px"
	 viewBox="0 0 79.977 77.64" style="enable-background:new 0 0 79.977 77.64;" xml:space="preserve">
<g id="Freelance_x5F_Forum">
	<path style="fill-rule:evenodd;clip-rule:evenodd;" d="M79.843,0.451c0.172,1.957,0.172,4.626,0,6.583
		c-0.677,0.25-1.432,0.104-2.125,0.104c-23.472-0.003-46.937-0.13-70.6-0.104C7.095,7.08,7.072,7.127,7.015,7.138
		C6.844,28.533,6.836,49.198,6.911,70.377c1.314,0.279,2.739,0.155,4.147,0.155c4.152,0.001,8.394,0.165,12.544-0.052
		c0.282-1.058,0.155-2.188,0.155-3.266c0-16.87,0.013-33.744,0.155-50.746c1.113-0.282,2.277-0.156,3.421-0.156
		c17.486-0.001,35.062,0.076,52.458,0.26c0.171,1.976,0.172,4.659,0,6.635c-15.835,0.278-33.14-0.228-49.036,0
		c-0.327,1.054-0.113,2.166-0.104,3.266c0.063,7.353-0.138,16.121-0.052,23.844c0.101,9.097-0.052,18.04-0.156,27.006
		c-9.083,0.202-17.432,0.001-26.539,0c-1.248,0-2.552,0.121-3.784-0.155c-0.236-6.219-0.051-12.805-0.052-19.282
		c-0.001-3.239-0.144-6.52,0-9.797c0.136-3.1-0.079-6.425,0-9.642C0.297,29.135,0.12,19.189,0.12,9.367
		c0-2.754-0.097-5.64,0.052-8.397C0.227-0.054,0.223,0.106,0.69,0.036c0.726-0.105,1.635,0.053,2.488,0.053
		C27.405,0.087,51.164,0.29,75.022,0.296C76.629,0.296,78.255,0.172,79.843,0.451z"/>
	<path style="fill-rule:evenodd;clip-rule:evenodd;" d="M79.791,26.421c0.286,1.888,0.19,4.662,0.052,6.635
		c-9.722,0.562-19.752-0.296-29.754,0.052c-3.288,0.114-6.578-0.271-9.744,0.104c-0.158,12.831-0.226,24.619-0.053,37.321
		c0.816,0.21,1.767,0.181,2.696,0.156c2.709-0.072,5.911,0.094,8.76-0.104c0.278-1.293,0.155-2.659,0.155-3.991
		c-0.001-9.018-0.007-18.845,0.155-28.146c6.846-0.203,14.066-0.052,20.786-0.052c1.195,0,2.396,0,3.577,0
		c1.129,0,2.279-0.119,3.369,0.155c0.172,1.94,0.172,4.592,0,6.531c-6.69,0.29-14.247-0.038-20.838,0.103
		c-0.275,0.593-0.156,1.279-0.155,1.918c0.002,9.602-0.019,20.204-0.156,30.324c-8.077,0.121-16.947,0.108-25.14-0.053
		c-0.206-0.909-0.232-2.008-0.207-3.058c0.175-7.426,0.147-15.192,0.052-22.601c-0.1-7.713,0.052-16.204,0.052-24.311
		c0-0.739-0.075-1.174,0.622-1.244c0.892-0.089,1.902,0.053,2.851,0.052C51.231,26.212,65.39,26.234,79.791,26.421z"/>
	<path style="fill-rule:evenodd;clip-rule:evenodd;" d="M79.791,47.933c0.18,9.532,0.16,20.392,0,29.546
		c-1.413,0.194-3,0.104-4.562,0.104c-4.487-0.001-9.232,0.205-13.736-0.155c-0.286-2.264-0.117-4.681-0.104-7.153
		c0.014-2.502,0-5.102,0-7.672c-0.001-4.392,0-8.706,0-13.218c0-0.515-0.162-1.192,0.259-1.608c4.28-0.005,9.282,0.001,13.788,0
		C76.921,47.776,78.416,47.656,79.791,47.933z M71.03,54.619c-0.783,0-1.61-0.074-2.229,0c-0.75,0.091-0.503,1.015-0.519,1.71
		c-0.094,4.169-0.117,10.417,0.052,14.359c1.244,0.221,3.25,0.143,4.613,0c0.219-0.726,0.21-1.678,0.207-2.488
		c-0.011-4.325,0.054-9.242-0.051-13.426C72.548,54.524,71.773,54.619,71.03,54.619z"/>
</g>
<g id="Layer_1">
</g>
</svg>
