<?xml version="1.0" encoding="iso-8859-1"?>
<!-- Generator: Adobe Illustrator 19.2.0, SVG Export Plug-In . SVG Version: 6.00 Build 0)  -->
<svg version="1.1" xmlns="http://www.w3.org/2000/svg" xmlns:xlink="http://www.w3.org/1999/xlink" x="0px" y="0px"
	 viewBox="0 0 167.743 157.295" style="enable-background:new 0 0 167.743 157.295;" xml:space="preserve">
<g id="Freedom_x5F_55_x5F_Financial">
	<g>
		<path style="fill-rule:evenodd;clip-rule:evenodd;" d="M167.743,5.367c-2.445,2.482-5.21,4.207-7.069,7.069
			c-3.96,6.099-3.214,15.073-3.594,23.724c-0.411,9.358-0.159,18.335-1.438,26c-3.924,23.513-20.347,35.085-34.507,48.525
			c-7.156,6.793-13.861,13.733-19.89,21.687c-1.975,2.606-4.249,4.971-6.11,7.668c-3.745,5.424-6.924,11.234-10.424,17.254
			c-0.302-8.395-0.26-16.182,2.396-21.927c1.241-2.684,3.048-5.267,4.554-7.788c7.619-12.752,18.227-22.595,28.516-32.83
			c8.309-8.263,16.326-16.421,21.088-28.037c2.506-6.11,3.545-12.374,3.834-20.729c0.265-7.634-0.633-15.689,0.479-23.843
			c0.766-5.613,3.226-9.464,6.71-12.581c-13.844-1.068-21.299,6.303-26.359,14.737c-5.207,8.677-8.684,19.3-14.259,27.318
			c-1.938-13.059-11.401-19.737-26-19.89c-8.752-0.092-18.012,0.686-26.719,1.198c-15.99,0.939-30.852,0.378-45.77-1.917
			c-2.125-0.327-4.712-0.465-5.871-1.079c-1.307-0.692-3.065-4.694-3.834-5.991C2.143,21.693,1.004,19.796,0,17.588
			c25.658,5.102,59.354,1.615,86.747,0.599c10.769-0.399,21.9,0.934,25.642,8.268c5.706-13.04,14.601-25.144,32.231-26.36
			C154.074-0.557,161.407,2.246,167.743,5.367z"/>
		<path style="fill-rule:evenodd;clip-rule:evenodd;" d="M97.65,75.34c-1.519-6.498-4.407-12.185-9.944-14.378
			c-8.737-3.462-21.098-1.079-32.111-1.079c-11.711,0-22.832-0.59-32.71-2.037c-2.411-4.019-4.716-8.145-6.95-12.341
			c11.818,1.253,23.869,2.462,37.503,1.917c6.452-0.258,12.357-0.806,18.811-1.078c11.523-0.486,21.578-0.264,26.839,6.23
			c1.94,2.396,3.363,5.634,3.714,9.225C103.343,67.335,100.365,71.593,97.65,75.34z"/>
		<path style="fill-rule:evenodd;clip-rule:evenodd;" d="M31.512,72.824c11.307,1.832,26.16,0.997,38.342,0.958
			c10.357-0.033,18.935,2.129,19.649,12.102c0.354,4.935-2.289,8.993-4.673,12.581c-2.1-8.754-9.194-12.914-19.41-12.94
			c-9.27-0.023-18.388,0.8-26.958-0.6C36.099,80.937,33.731,76.955,31.512,72.824z"/>
	</g>
</g>
<g id="Layer_1">
</g>
</svg>
