<?xml version="1.0" encoding="iso-8859-1"?>
<!-- Generator: Adobe Illustrator 19.2.0, SVG Export Plug-In . SVG Version: 6.00 Build 0)  -->
<svg version="1.1" xmlns="http://www.w3.org/2000/svg" xmlns:xlink="http://www.w3.org/1999/xlink" x="0px" y="0px"
	 viewBox="0 0 58.962 78.515" style="enable-background:new 0 0 58.962 78.515;" xml:space="preserve">
<g id="Freisland_x5F_Bank">
	<path style="fill-rule:evenodd;clip-rule:evenodd;" d="M58.824,0.138c0.205,3.327,0.098,6.989,0.098,10.629
		c0,2.676,0.032,5.331,0,7.899c-0.011,0.853,0.167,1.71-0.146,2.487c-5.97,0.086-11.954,0.097-18.431,0.097
		c-5.452,0-10.866,0-16.529,0c-0.742,0-1.956-0.086-2.194,0.147c-0.384,0.375-0.134,3.47-0.146,4.096
		c-0.058,2.893,0.059,5.646,0.049,8.533c-0.006,1.372-0.212,2.821,0.097,4.096c0.708,0.264,1.515,0.147,2.243,0.147
		c11.703,0,23.542-0.113,34.96,0.048c0.21,1.626,0.098,3.365,0.098,5.12c0,5.062,0.102,10.663-0.049,15.75
		c-1.502,0.309-3.052,0.098-4.583,0.098c-10.269,0-21.775,0.014-32.62,0.146c-0.253,0.712-0.194,1.518-0.194,2.292
		c0,2.25,0,4.786,0,7.265c0,3.268,0.117,6.553-0.099,9.411c-6.864,0.182-14.413,0.161-21.21-0.098
		c-0.261-1.121-0.097-2.28-0.097-3.413C0.071,56.817,0.021,39.138,0.021,20.86c0-0.622-0.072-1.323,0.049-1.804
		c0.11-0.44,0.585-0.773,1.072-1.268c1.163-1.181,2.333-2.383,3.413-3.559c1.533-1.67,3.072-3.004,4.584-4.73
		c2.519-2.876,5.254-5.467,7.947-8.337c0.327-0.349,0.887-1.002,1.219-1.073c0.938-0.2,2.257,0,3.364,0c1.12,0,2.272,0,3.315,0
		C36.362,0.089,47.737-0.045,58.824,0.138z M52.827,2.186c-3.917-0.021-8.32-0.18-12.19,0c-3.517,0.164-7.146,0-10.775,0
		c-2.633,0-5.341,0-8.094,0c-0.93,0-2.08-0.142-2.682,0.049c-0.329,0.104-0.782,0.671-1.121,1.024
		c-1.098,1.142-2.153,2.349-3.17,3.364c-1.467,1.466-2.751,2.947-4.241,4.437c-2.198,2.197-4.238,4.301-6.438,6.583
		c-0.467,0.485-1.879,1.672-1.998,2.34c-0.174,0.966-0.055,2.276,0,3.413c0.055,1.139,0,2.367,0,3.462c0,7.23,0,14.186,0,21.259
		c0,9.542-0.097,19.096,0.098,28.085c2.637,0.287,5.587,0.195,8.483,0.195c2.925,0,5.858,0.08,8.582-0.098
		c0.328-1.487,0.082-3.052,0.098-4.584c0.045-4.543-0.019-9.567,0.146-14.335c6.052-0.262,12.367-0.146,18.626-0.146
		c6.254,0,12.523,0.057,18.577-0.097c0.208-5.497,0.194-11.341,0-16.676c-12.34-0.287-25.222,0.079-37.203-0.146
		c-0.183-3.289-0.098-6.951-0.098-10.532c0.001-3.612-0.105-7.212,0.098-10.532c11.673-0.141,23.721-0.146,35.009-0.146
		c0.744,0,1.529,0.117,2.243-0.147c0.102-5.401,0.174-10.953,0-16.676C55.49,1.991,54.154,2.193,52.827,2.186z"/>
</g>
<g id="Layer_1">
</g>
</svg>
