<?xml version="1.0" encoding="iso-8859-1"?>
<!-- Generator: Adobe Illustrator 21.0.2, SVG Export Plug-In . SVG Version: 6.00 Build 0)  -->
<svg version="1.1" xmlns="http://www.w3.org/2000/svg" xmlns:xlink="http://www.w3.org/1999/xlink" x="0px" y="0px"
	 viewBox="0 0 31.199 31.297" style="enable-background:new 0 0 31.199 31.297;" xml:space="preserve">
<g id="Fresco">
	<path d="M5.009,0c7.226,0.018,14.44,0.036,21.665,0.119c3.01,0.182,5.181,3.483,4.345,6.336c-0.569,2.168-2.684,3.832-4.942,3.747
		c-4.43-0.029-8.863,0.009-13.292-0.044c-2.646,0.008-5.295-0.052-7.944-0.039C2.297,9.977,0.075,7.673,0.136,5.102
		C0.04,2.451,2.368,0.051,5.009,0z"/>
	<path d="M5.162,10.569c3.54,0.008,7.081,0.008,10.622,0.02c2.652,0.052,4.976,2.452,4.87,5.116
		c0.075,2.576-2.089,4.949-4.671,5.068c-3.658,0.003-7.316-0.014-10.974-0.017c-2.675-0.052-5.069-2.449-4.935-5.156
		C0.013,12.898,2.454,10.457,5.162,10.569z"/>
	<path d="M5.1,21.157c2.242,0.077,4.4,1.703,4.896,3.924c0.417,1.649-0.143,3.463-1.324,4.667c-1.369,1.422-3.643,2.005-5.466,1.152
		c-2.024-0.711-3.363-2.912-3.192-5.034C0.101,23.264,2.549,21.138,5.1,21.157z"/>
</g>
<g id="Layer_1">
</g>
</svg>
