<?xml version="1.0" encoding="iso-8859-1"?>
<!-- Generator: Adobe Illustrator 19.2.0, SVG Export Plug-In . SVG Version: 6.00 Build 0)  -->
<svg version="1.1" xmlns="http://www.w3.org/2000/svg" xmlns:xlink="http://www.w3.org/1999/xlink" x="0px" y="0px"
	 viewBox="0 0 76.091 185.093" style="enable-background:new 0 0 76.091 185.093;" xml:space="preserve">
<g id="Fritz_x5F_Feinhals_x5F_Werbeberater">
	<path style="fill-rule:evenodd;clip-rule:evenodd;" d="M15.859,77.618c1.022-0.105,1.91-0.627,2.942-0.897
		c1.032-0.271,2.12-0.484,3.291-0.648c2.33-0.327,4.888-0.249,7.529-0.249c7.805,0,15.82,0,23.634,0
		c7.738,0,15.34-0.086,22.837,0.149c-0.038,0.646-0.767,1.027-1.097,1.546c-0.438,0.476-0.821,1.007-1.296,1.446
		c-2.453,2.982-4.871,5.999-7.43,8.875c-3.318,3.929-6.743,7.75-10.122,11.618c-3.335,3.912-6.725,7.768-10.072,11.667
		c-1.786,1.851-3.292,3.946-5.186,5.684c-1.909,1.752-4.068,3.112-6.532,4.338c0,0.033,0,0.066,0,0.1
		c-0.178,10.648-0.1,21.349-0.1,32.011c0,9.279,0,18.467,0,27.872c0,1.273,0.121,2.586-0.149,3.839
		c-1.206,0.165-3.083,0.165-4.288,0c-0.242-18.521-0.024-36.452-0.05-54.748c-0.003-2.541,0.058-5.073-0.149-7.529
		c-2.993,0.299-6.072,0.483-9.025-0.1c-2.65-0.523-5.098-1.573-7.08-2.693c-4.212-2.379-7.386-5.82-9.523-10.072
		c-1.112-2.211-1.873-4.825-2.244-7.579c-0.847-6.29,1.246-11.548,3.59-15.557c1.221-2.088,2.348-4.226,3.49-6.283
		c4.664-8.401,9.153-16.934,13.861-25.33c2.354-4.198,4.541-8.495,6.931-12.664c0.6-1.046,1.05-2.187,1.645-3.241
		c0.598-1.058,1.149-2.127,1.695-3.191c1.104-2.149,2.47-4.151,3.391-6.382c-0.655-0.222-1.328,0.083-1.995,0.15
		c-2.153,0.217-4.614,0.05-6.931,0.05c-9.247,0-18.56,0.045-27.423-0.1c-0.047-0.486,0.411-0.829,0.698-1.146
		c0.313-0.347,0.661-0.67,0.948-0.997c4.242-4.783,8.764-9.286,12.914-14.16c2.462-2.696,4.947-5.41,7.379-8.078
		c2.516-2.759,5.593-4.956,10.371-5.286c5.063-0.349,8.834,2.004,11.219,4.438c2.47,2.52,4.488,6.213,4.188,11.318
		c-0.283,4.817-2.593,7.701-4.438,11.169c-4.142,7.785-8.201,15.061-12.416,22.787c-0.461,0.845-0.837,1.75-1.296,2.593
		c-4.109,7.544-8.369,15.059-12.416,22.686C16.707,75.871,16.096,76.668,15.859,77.618z M35.405,10.555
		c-1.31-0.742-3.295-0.729-4.637-0.15c-2.085,1.212-3.664,3.801-2.742,6.781c0.391,1.265,1.855,2.687,2.941,3.141
		c2.072,0.865,4.631-0.017,5.834-1.296C39.277,16.456,38.172,12.122,35.405,10.555z"/>
</g>
<g id="Layer_1">
</g>
</svg>
