<?xml version="1.0" encoding="iso-8859-1"?>
<!-- Generator: Adobe Illustrator 19.2.0, SVG Export Plug-In . SVG Version: 6.00 Build 0)  -->
<svg version="1.1" xmlns="http://www.w3.org/2000/svg" xmlns:xlink="http://www.w3.org/1999/xlink" x="0px" y="0px"
	 viewBox="0 0 82.89 55.293" style="enable-background:new 0 0 82.89 55.293;" xml:space="preserve">
<g id="Fujiwara_x5F_Hisato">
	<path style="fill-rule:evenodd;clip-rule:evenodd;" d="M40.518,0c0.393-0.008,1.087,0.794,1.512,1.219
		c6.611,6.612,13.327,13.301,19.845,19.894c5.257,5.35,10.629,10.571,15.896,15.944c0.864,0.881,1.865,1.715,2.633,2.682
		c0.781,0.983,1.77,1.741,2.487,2.779c-1.775,2.195-4.112,4.307-6.289,6.485c-1.535,1.535-3.175,3.126-4.827,4.778
		c-0.375,0.375-1.248,1.499-1.658,1.512c-0.29,0.009-1.053-0.907-1.414-1.268c-8.399-8.398-16.812-16.764-25.208-25.16
		c-0.879-0.879-1.726-1.803-2.633-2.682c-0.445-0.431-0.771-0.965-1.219-1.414c-3.448-3.449-7.017-6.98-10.532-10.629
		c-0.302-0.314-1.22-1.11-1.219-1.414c0.001-0.453,1.11-1.279,1.511-1.658c1.647-1.557,3.159-3.159,4.681-4.681
		C36.267,4.203,38.639,2.036,40.518,0z"/>
	<path style="fill-rule:evenodd;clip-rule:evenodd;" d="M26.671,13.897c0.517-0.1,1.555,1.262,1.95,1.658
		c1.729,1.729,3.596,3.645,5.266,5.314c1.855,1.856,3.424,3.551,5.314,5.315c0.587,0.547,1.062,1.222,1.658,1.853
		c3.301,3.491,7.215,7.021,10.581,10.629c0.774,0.829,1.648,1.789,2.584,2.682c0.295,0.281,0.814,0.706,0.829,0.926
		c0.031,0.459-1.072,1.35-1.463,1.755c-3.489,3.613-6.974,6.778-10.532,10.337c-0.252,0.252-0.596,0.715-0.829,0.731
		c-0.562,0.039-1.496-1.424-1.804-1.755c-0.552-0.592-1.233-1.135-1.804-1.706c-5.921-5.922-11.71-11.808-17.601-17.7
		c-1.958-1.959-4.192-4.101-6.144-6.192c-0.332-0.355-0.822-0.713-0.829-0.926c-0.013-0.404,1.148-1.343,1.512-1.706
		c3.171-3.171,6.45-6.329,9.605-9.606c0.518-0.538,1.055-1.222,1.609-1.561C26.61,13.923,26.609,13.908,26.671,13.897z"/>
	<path style="fill-rule:evenodd;clip-rule:evenodd;" d="M12.628,27.939c0.609,0.062,1.462,1.169,1.999,1.706
		c4.208,4.209,8.582,8.422,12.58,12.726c-0.337,0.735-1.055,1.091-1.511,1.707c-1.647,1.571-3.188,3.249-4.827,4.827
		c-2.215,2.076-4.254,4.327-6.534,6.338c-0.76-0.41-1.295-1.122-1.901-1.707c-2.999-2.888-5.991-5.942-8.972-8.923
		C2.274,43.427,0.948,42.322,0,40.909c0.754-1.295,1.964-2.257,3.023-3.315c2.092-2.093,4.245-4.16,6.29-6.388
		C10.356,30.069,11.553,28.929,12.628,27.939z"/>
</g>
<g id="Layer_1">
</g>
</svg>
