<?xml version="1.0" encoding="iso-8859-1"?>
<!-- Generator: Adobe Illustrator 19.2.0, SVG Export Plug-In . SVG Version: 6.00 Build 0)  -->
<svg version="1.1" xmlns="http://www.w3.org/2000/svg" xmlns:xlink="http://www.w3.org/1999/xlink" x="0px" y="0px"
	 viewBox="0 0 49.478 76.934" style="enable-background:new 0 0 49.478 76.934;" xml:space="preserve">
<g id="Fukuoka_x5F_Kagaku_x5F_Kogyo">
	<path style="fill-rule:evenodd;clip-rule:evenodd;" d="M23.068,11.061c-3.746,0.385-8.36-0.074-12.043,0.244
		c-0.262,0.888-0.146,1.91-0.146,2.925c0,1.98,0,4.065,0,6.095c0,0.997,0.116,2.003-0.147,2.877
		c-1.893,0.042-3.668-0.606-5.07-1.463c-1.347-0.822-2.744-1.897-3.56-3.17c-0.276-0.431-0.479-1.006-0.732-1.511
		c-0.717-1.431-1.295-3.175-1.365-5.217c-0.066-1.935,0.514-3.97,1.219-5.363C1.82,5.302,2.351,4.315,3.273,3.406
		C5.154,1.55,7.785,0.243,11.074,0.09c4.14-0.192,7.049,1.563,9.166,3.852C21.872,5.707,23.067,8.166,23.068,11.061z"/>
	<path style="fill-rule:evenodd;clip-rule:evenodd;" d="M26.432,12.573c1.734-0.257,3.555-0.068,5.412-0.147
		c1.805-0.076,3.674,0,5.511,0c2.806,0.001,5.596,0,8.435,0c0.884,0,1.805,0.119,2.634-0.146c0.143-0.164,0.12-0.648,0.048-0.878
		c-0.612-0.427-1.63-0.244-2.584-0.244c-6.471,0-13.307,0.089-19.455-0.098c-0.004-3.198,1.424-5.621,3.17-7.46
		c1.71-1.802,4.357-3.329,7.313-3.56c3.565-0.277,6.077,0.867,8.094,2.438c1.656,1.289,2.916,3,3.608,4.827
		c0.82,2.166,1.085,4.86,0.488,7.265c-1.053,4.238-4.253,7.356-8.484,8.435c-2.318,0.591-5.154,0.343-7.266-0.585
		c-1.83-0.805-3.588-2.079-4.729-3.706C27.471,17.071,26.481,15.158,26.432,12.573z"/>
	<path style="fill-rule:evenodd;clip-rule:evenodd;" d="M23.02,12.524c0.111,1.579-0.366,3.078-0.976,4.291
		c-1.207,2.4-3.024,4.251-5.51,5.412c-1.241,0.579-2.678,1.068-4.242,0.975c-0.161-3.293-0.162-7.286,0-10.629
		c1.441-0.224,3.807-0.098,5.656-0.098C19.704,12.475,21.453,12.436,23.02,12.524z"/>
	<path style="fill-rule:evenodd;clip-rule:evenodd;" d="M10.732,26.908c0.262,0.955,0.147,1.987,0.147,2.974
		c0,6.859,0.058,13.243-0.098,20.138c-1.9,0.097-3.596-0.59-4.973-1.365c-1.316-0.74-2.711-1.832-3.512-3.023
		c-0.311-0.462-0.58-1.073-0.877-1.609c-1.436-2.59-1.818-6.515-0.683-9.654c1.454-4.017,4.417-6.625,9.265-7.46
		C10.156,26.881,10.466,26.8,10.732,26.908z"/>
	<path style="fill-rule:evenodd;clip-rule:evenodd;" d="M12.439,26.859c4.662,0.464,7.767,2.974,9.508,6.437
		c0.651,1.295,1.271,2.854,1.073,4.534c-3.416,0.128-7.412,0.229-10.728,0c-0.227-2.267-0.098-5.171-0.098-8.094
		c0-0.848-0.073-2.198,0.098-2.73C12.32,26.935,12.368,26.886,12.439,26.859z"/>
	<path style="fill-rule:evenodd;clip-rule:evenodd;" d="M26.432,39.341c0.919-0.258,1.96-0.146,2.975-0.146c2.069,0,4.128,0,6.143,0
		c1.027,0,2.062,0.117,2.975-0.146c0.075-0.245,0.075-0.729,0-0.975c-0.909-0.262-1.94-0.146-2.975-0.146c-2.03,0-4.161,0-6.241,0
		c-1.015,0-2.03,0.116-2.926-0.146c0.354-4.664,2.958-8.021,6.485-9.751c2.209-1.084,5.771-1.587,8.533-0.683
		c3.281,1.075,5.97,3.81,7.167,6.583c0.675,1.561,1.018,3.456,0.878,5.558c-0.215,3.209-1.736,5.86-3.608,7.606
		c-2.015,1.88-4.644,3.139-8.094,3.121c-4.975-0.026-8.549-2.994-10.288-6.534C26.864,42.475,26.366,40.986,26.432,39.341z"/>
	<path style="fill-rule:evenodd;clip-rule:evenodd;" d="M23.02,39.293c0.081,1.575-0.363,3.072-0.976,4.291
		c-1.222,2.43-2.981,4.245-5.461,5.461c-1.225,0.6-2.698,1.056-4.291,0.975c-0.133-2.504-0.147-5.984-0.147-8.728
		c0-0.775-0.224-2.011,0.488-2.097c0.814-0.098,1.719,0.049,2.633,0.049C17.832,39.244,20.535,39.196,23.02,39.293z"/>
	<path style="fill-rule:evenodd;clip-rule:evenodd;" d="M10.732,76.934c-2.443,0.012-4.199-0.843-5.803-1.95
		c-0.932-0.644-1.88-1.36-2.486-2.243c-0.319-0.466-0.572-1.041-0.877-1.561c-1.512-2.578-2.037-6.555-0.829-9.898
		c0.211-0.584,0.45-1.113,0.78-1.658c0.311-0.513,0.558-1.099,0.877-1.56c0.751-1.083,2.025-2.041,3.268-2.779
		c1.332-0.792,2.872-1.213,4.534-1.463c0.084-0.012,0.106-0.049,0.195-0.048c0.622,0.002,0.477,1.244,0.487,1.804
		c0.108,5.497-0.035,10.389-0.049,15.603C10.824,73.145,11.015,75.124,10.732,76.934z"/>
	<path style="fill-rule:evenodd;clip-rule:evenodd;" d="M12.292,76.934c-0.172-0.903-0.147-1.874-0.147-2.828
		c0-5.52,0.049-11.704,0.049-17.504c0-0.933-0.193-1.922,0.146-2.78c3.009,0.116,5.691,1.596,7.362,3.218
		c1.992,1.935,3.439,4.628,3.462,8.094c0.024,3.531-1.297,6.38-3.169,8.337C18.135,75.417,15.647,76.806,12.292,76.934z"/>
</g>
<g id="Layer_1">
</g>
</svg>
