<?xml version="1.0" encoding="iso-8859-1"?>
<!-- Generator: Adobe Illustrator 19.2.0, SVG Export Plug-In . SVG Version: 6.00 Build 0)  -->
<svg version="1.1" xmlns="http://www.w3.org/2000/svg" xmlns:xlink="http://www.w3.org/1999/xlink" x="0px" y="0px"
	 viewBox="0 0 72.447 75.315" style="enable-background:new 0 0 72.447 75.315;" xml:space="preserve">
<g id="Fulford_x5F_Dodds">
	<path style="fill-rule:evenodd;clip-rule:evenodd;" d="M65.378,66.55c-3.808,4.013-9.387,5.97-15.734,7.378
		c-6.395,1.42-13.893,1.693-21.255,1.075c-3.649-0.306-6.982-0.68-10.065-1.515c-4.602-1.246-8.278-3.088-11.141-6.156
		c-3.636-3.897-5.559-9.993-6.401-16.711c-0.214-1.71-0.333-3.454-0.489-5.277C-0.017,41.72,0,37.964,0,34.204
		c0-7.571,0.915-14.598,3.176-19.936c0.573-1.354,1.205-2.697,2.052-3.763c2.517-3.167,5.881-5.651,10.114-7.183
		c4.251-1.538,9.028-2.518,14.268-3.029c1.761-0.172,3.581-0.154,5.521-0.244c4.483-0.209,9.286,0.274,13.095,0.879
		c3.983,0.632,7.828,1.536,10.848,3.03c6.384,3.157,9.861,8.259,11.678,16.026c0.855,3.655,1.217,8.113,1.417,12.46
		c0.203,4.42,0.425,9.01,0.146,13.339C71.751,54.564,70.16,61.94,65.378,66.55z M40.605,9.43c-2.184-0.035-4.496-0.168-6.743-0.049
		c-7.331,0.39-14.769,1.516-18.714,5.18c-2.115,1.965-3.318,4.477-3.958,7.867c-1.198,6.351-1.226,15.29-0.684,22.428
		c0.278,3.655,0.704,7.229,1.564,10.31c0.861,3.084,2.411,5.496,4.642,7.183c2.276,1.721,5.329,2.458,8.893,2.98
		c7.094,1.04,15.401,0.833,21.939-0.488c5.007-1.012,9.097-2.774,11.483-6.255c1.605-2.342,2.203-5.678,2.589-9.283
		c0.578-5.383,0.542-11.428,0.147-16.955c-0.532-7.422-1.094-14.562-5.375-18.372C52.794,10.931,47.078,9.536,40.605,9.43z"/>
	<path style="fill-rule:evenodd;clip-rule:evenodd;" d="M55.166,18.763c-0.215,0.856-0.871,1.524-1.368,2.248
		c-1.255,1.828-2.525,3.498-3.86,5.423c-0.237,0.342-0.641,0.914-0.635,1.173c0.016,0.673,1.489,1.259,1.954,1.564
		c1.791,1.173,3.476,2.296,5.326,3.42c0.299,0.182,0.845,0.338,0.831,0.781c-2.592,0.444-7.075-0.856-7.867,1.515
		c-0.23,0.691-0.028,1.819,0.098,2.785c0.354,2.714,0.942,5.187,1.222,7.916c0.391,3.817,0.56,8.089-1.515,10.164
		c-1.968,1.968-5.467,3.193-9.528,3.273c-2.056,0.04-4.177,0-6.303,0c-6.422,0-12.192-0.56-14.805-4.397
		c-0.823-1.21-1.547-2.744-2.003-4.399c-0.441-1.599-0.982-3.403-0.879-5.325c0.537,0.063,0.997,0.483,1.417,0.781
		c1.292,0.917,2.571,2.019,4.104,2.736c0.6-0.241,0.834-0.953,1.075-1.515c0.503-1.176,0.982-2.396,1.466-3.615
		c0.23-0.584,0.443-1.243,0.879-1.662c0.438,0.421,0.477,1.087,0.586,1.612c0.359,1.729,0.743,3.543,1.515,4.936
		c0.493,0.89,1.285,1.955,2.688,1.955c1.374,0,2.442-0.903,3.225-1.808c1.595-1.843,2.835-3.845,4.104-5.961
		c0.666-1.108,1.799-2.538,1.563-4.251c-0.12-0.875-0.885-1.672-1.417-2.004c-1.099-0.687-2.681-0.749-4.104-1.172
		c-3.874-1.154-6.438-4.315-6.352-9.382c0.053-3.134,1.453-5.75,3.176-7.379c1.906-1.8,4.401-2.937,7.623-3.127
		c4.418-0.259,6.936,1.455,8.746,3.86c0.738,0.98,1.298,2.345,3.127,2.15c1.046-0.111,2.084-0.702,3.029-1.124
		C53.283,19.49,54.22,18.986,55.166,18.763z M37.722,24.773c-1,1.9,0.135,4.048,1.661,4.74c1.762,0.799,4.369,0.07,5.082-1.515
		c0.452-1.007,0.442-2.317-0.049-3.47c-0.401-0.942-1.734-1.949-3.323-1.856C39.549,22.762,38.258,23.754,37.722,24.773z"/>
</g>
<g id="Layer_1">
</g>
</svg>
