<?xml version="1.0" encoding="iso-8859-1"?>
<!-- Generator: Adobe Illustrator 19.2.0, SVG Export Plug-In . SVG Version: 6.00 Build 0)  -->
<svg version="1.1" xmlns="http://www.w3.org/2000/svg" xmlns:xlink="http://www.w3.org/1999/xlink" x="0px" y="0px"
	 viewBox="0 0 64.953 75.206" style="enable-background:new 0 0 64.953 75.206;" xml:space="preserve">
<g id="Fundacion_x5F_Jose_x5F_Maria_x5F_Aragon">
	<path style="fill-rule:evenodd;clip-rule:evenodd;" d="M45.98,74.934c-1.456-2.121-1.853-5.301-3.317-7.414
		c-6.361-0.203-13.303-0.103-19.75-0.051c-0.585,0.373-0.822,1.125-1.089,1.762c-0.271,0.652-0.517,1.352-0.777,2.021
		c-0.526,1.357-1.004,2.785-1.763,3.889c-4.13,0.086-8.621,0.086-12.751,0c-0.769-0.596-1.254-1.484-1.814-2.281
		c-0.555-0.785-1.063-1.611-1.556-2.488c-0.429-0.764-1.072-1.557-1.658-2.436c-0.465-0.695-1.463-1.687-1.504-2.541
		c-0.023-0.504,0.457-1.51,0.726-2.176c0.311-0.771,0.568-1.432,0.83-2.074c0.569-1.4,1.267-2.746,1.71-4.043
		c0.487-1.426,0.967-2.838,1.556-4.199c2.882-6.654,5.81-13.613,8.553-20.217c2.278-5.486,4.377-10.975,6.688-16.328
		c1.742-4.035,3.421-8.109,5.08-12.182c0.549-1.35,1.01-2.754,1.762-3.99c2.301-0.252,5.626-0.156,8.449-0.156
		c0.899,0,2.001-0.131,2.488,0.156c0.432,0.252,0.661,1.15,0.985,1.918c1.995,4.727,4.015,9.389,5.909,14.203
		c2.188,5.559,4.52,10.971,6.687,16.275c2.253,5.512,4.566,10.885,6.791,16.225c1.126,2.703,2.261,5.408,3.422,8.088
		c0.584,1.35,1.078,2.752,1.658,4.096c0.582,1.344,1.326,2.613,1.659,4.043c-0.358,0.971-0.99,1.795-1.556,2.592
		c-0.574,0.808-1.104,1.642-1.711,2.435c-0.795,1.33-1.527,2.41-2.435,3.785c-0.305,0.459-0.618,0.969-0.985,1.088
		c-0.737,0.24-2.126,0.051-3.059,0.051C52.148,74.985,48.917,75.028,45.98,74.934z M33.125,2.362
		c-1.794,0.02-3.523-0.152-5.028,0.103c-0.846,0.934-1.07,2.49-1.711,3.629C20.439,20.299,14.887,34.629,8.917,48.704
		c-1.5,3.537-2.905,7.162-4.406,10.627c-0.506,1.17-1.208,2.393-1.191,3.732c0.494,0.258,1.142,0.207,1.762,0.207
		c1.984,0,4.181,0.043,6.014-0.051c0.581-0.615,0.816-1.471,1.14-2.228c1.695-3.977,3.212-8.006,4.925-11.924
		c2.092-4.783,3.977-9.602,5.961-14.357c1.001-2.398,1.936-4.82,2.955-7.154c0.351-0.803,0.495-1.791,1.141-2.281
		c0.632,0.688,0.787,1.656,1.141,2.488c1.103,2.601,2.247,5.109,3.317,7.672c1.077,2.582,2.288,5.121,3.266,7.672
		c0.32,0.836,0.579,1.789,1.244,2.438c1.214,0.092,2.635,0.051,3.991,0.051c1.36,0,2.802,0.264,3.784-0.207
		c-0.291-1.365-0.933-2.635-1.504-3.889c-0.566-1.244-1.067-2.52-1.606-3.783c-2.944-6.898-5.956-13.902-8.812-20.891
		c-0.286-0.701-0.734-1.426-0.726-2.021c0.008-0.471,0.3-1.076,0.519-1.607c1.065-2.584,2.082-5.053,3.11-7.516
		c0.414-0.994,1.015-1.98,1.088-3.111C35.305,2.131,34.211,2.352,33.125,2.362z M36.442,7.752c-0.609,1.455-1.28,3.01-1.918,4.459
		c-0.275,0.625-0.894,1.758-0.881,2.332c0.009,0.412,0.454,1.227,0.726,1.867c1.852,4.359,3.651,8.672,5.391,12.959
		c1.536,3.783,3.247,7.34,4.614,11.094c0.463,1.271,1.175,2.461,1.555,3.68c0.1,0.318,0.132,0.721,0.207,0.934
		c0.267,0.754,0.887,1.463,0.83,2.279c-0.64,0.355-1.434,0.209-2.178,0.209c-2.468,0-4.789-0.059-7.102-0.053
		c-2.282,0.006-4.711,0.133-7.05,0.053c-0.692-0.025-1.517,0.164-2.073-0.26c0.595-1.783,1.335-3.457,2.073-5.236
		c0.23-0.555,0.677-1.201,0.674-1.762c-0.002-0.352-0.259-0.846-0.414-1.244c-0.834-2.139-1.581-3.869-2.54-5.91
		c-0.258-0.547-0.724-2.234-1.192-2.228c-0.367,0.006-0.818,1.32-1.037,1.814c-0.348,0.783-0.515,1.432-0.777,2.074
		c-3.873,9.43-7.985,19.053-11.611,28.406c1.095,1.902,2.459,3.656,3.681,5.391c0.408,0.58,0.702,1.34,1.399,1.658
		c0.572-0.377,0.684-1.117,0.933-1.711c1.57-3.744,3.268-7.691,4.718-11.455c0.231-0.601,0.457-1.297,0.933-1.762
		c8.189-0.088,16.875-0.096,24.934,0.051c0.74,1.102,1.209,2.465,1.763,3.785c0.554,1.32,0.928,2.764,1.813,3.783
		c1.215,0.092,2.631,0.053,3.992,0.053c1.354,0,2.79,0.154,3.836-0.207c-0.178-1.295-0.853-2.449-1.349-3.629
		c-0.501-1.193-1.019-2.381-1.503-3.578c-2.935-7.264-6.131-14.305-9.123-21.512c-1.486-3.578-2.936-7.25-4.406-10.885
		c-2.207-5.455-4.455-10.807-6.738-16.226c-0.279-0.66-0.562-1.608-1.037-1.606C37.04,5.792,36.769,6.973,36.442,7.752z
		 M31.725,45.438c0.321,0.23,1.354,0.258,1.606-0.051c0.005-0.672-0.291-1.416-0.726-1.815
		C31.983,43.836,31.684,44.682,31.725,45.438z M29.807,57.569c-0.928,0-1.956-0.148-2.748,0c-0.665,0.125-0.813,0.99-1.14,1.711
		c-0.332,0.733-0.53,1.27-0.777,1.865c-0.628,1.512-1.208,2.609-1.349,3.836c0.682,0.322,1.529,0.207,2.333,0.207
		c6.298,0,12.05-0.096,17.832,0.053c0.617,0.607,0.798,1.566,1.141,2.436c0.162,0.412,0.351,0.826,0.519,1.244
		c0.16,0.402,0.179,0.998,0.621,1.193c0.664-0.229,0.987-0.988,1.349-1.557c1.177-1.848,2.564-3.654,3.576-5.598
		c-0.673-1.85-1.314-3.73-2.28-5.287C42.919,57.485,35.993,57.569,29.807,57.569z M57.488,65.292c-1.723,0-3.739-0.039-5.132,0.053
		c-1.346,1.654-2.592,3.545-3.733,5.34c-0.389,0.609-0.951,1.18-1.036,1.916c0.691,0.281,1.529,0.156,2.332,0.156
		c2.529,0,5.193,0.043,7.568-0.051c0.918-1.088,1.693-2.287,2.488-3.475c0.397-0.592,0.782-1.201,1.192-1.812
		c0.395-0.592,0.909-1.215,1.036-1.971C60.804,65.168,59.165,65.292,57.488,65.292z M3.163,66.743
		c0.587,1.02,1.233,1.906,1.866,2.801c0.864,1.219,1.571,2.58,2.695,3.523c2.333,0.074,5.067,0.053,7.465,0.053
		c0.802,0,1.692,0.162,2.281-0.26c-0.08-0.721-0.64-1.268-1.037-1.865c-0.876-1.318-1.508-2.287-2.488-3.629
		c-0.374-0.512-0.902-1.541-1.348-1.711c-0.569-0.219-1.916-0.104-2.54-0.104c-0.997,0-2.205,0.09-3.421,0.053
		c-1.296-0.041-2.971-0.191-3.836,0.104C2.653,66.094,2.991,66.444,3.163,66.743z"/>
</g>
<g id="Layer_1">
</g>
</svg>
