<?xml version="1.0" encoding="iso-8859-1"?>
<!-- Generator: Adobe Illustrator 19.2.0, SVG Export Plug-In . SVG Version: 6.00 Build 0)  -->
<svg version="1.1" xmlns="http://www.w3.org/2000/svg" xmlns:xlink="http://www.w3.org/1999/xlink" x="0px" y="0px"
	 viewBox="0 0 64.482 78.172" style="enable-background:new 0 0 64.482 78.172;" xml:space="preserve">
<g id="Funktio_x5F_68">
	<path style="fill-rule:evenodd;clip-rule:evenodd;" d="M18.247,0.089c12.362-0.201,24.041-0.001,36.806,0
		c2.01,0,4.52-0.223,6.051,0.2c1.549,0.428,2.843,1.488,3.2,3c0.273,1.154,0.15,2.615,0.15,4.001c0,3.999-0.102,8.027-0.05,11.902
		c0.039,2.947-0.295,4.938-1.95,6.201c-1.637,1.249-4.16,1.011-7.002,1.101c-4.935,0.154-10.922,0-16.502,0
		c-2.943,0-5.597,0-8.151,0c-2.804,0-4.298,1.172-4.801,3.4c-0.346,1.53-0.293,4.303,0.05,5.701c0.367,1.497,1.57,2.826,3.301,3.051
		c1.493,0.194,3.189,0.05,4.851,0.05c7.739,0,16.215-0.067,23.904,0.05c1.653,0.025,3.083,0.07,4.15,0.7
		c1.011,0.597,1.843,1.535,2.05,2.801c0.169,1.026,0.101,2.151,0.101,3.201c0,1.185,0.116,2.224,0,3.2
		c-0.214,1.801-1.631,2.979-3.101,3.451c-1.716,0.55-3.787,0.257-6.102,0.35c-2.108,0.084-4.236,0.05-6.3,0.05
		c-4.157,0.001-8.517-0.05-12.852-0.05c-2.083,0-4.389-0.196-6.351,0.1c-1.745,0.263-3.066,1.424-3.55,3
		c-0.473,1.54-0.3,4.092-0.3,6.251c0,2.143,0.05,4.585,0.05,6.501c0,2.287,0.179,4.526-0.2,6.251
		c-0.362,1.65-1.599,2.907-3.201,3.351c-1.632,0.452-4.397,0.2-6.351,0.2c-2.245,0-4.509,0.021-6.551,0
		c-2.213-0.023-4.426,0.171-6.301-0.15c-1.553-0.267-2.935-1.5-3.201-3.351c-0.178-1.234-0.05-2.649-0.05-4.001
		c0-7.946,0.001-15.807,0-24.004c0-1.378-0.114-2.787,0.1-3.9c0.327-1.697,1.64-2.817,3.201-3.201
		c1.719-0.422,3.866-0.017,5.751-0.6c1.359-0.42,2.464-1.598,2.751-3.15c0.508-2.754,0.059-6.378,0.2-9.352
		c0.071-1.493,0.023-3.123-0.05-4.701c-0.221-4.735,0.207-9.639,0.05-14.302c-0.113-3.365,0.573-5.595,2.75-6.751
		C15.661,0.18,17.217,0.106,18.247,0.089z"/>
</g>
<g id="Layer_1">
</g>
</svg>
