<?xml version="1.0" encoding="iso-8859-1"?>
<!-- Generator: Adobe Illustrator 19.2.0, SVG Export Plug-In . SVG Version: 6.00 Build 0)  -->
<svg version="1.1" xmlns="http://www.w3.org/2000/svg" xmlns:xlink="http://www.w3.org/1999/xlink" x="0px" y="0px"
	 viewBox="0 0 52.76 73.642" style="enable-background:new 0 0 52.76 73.642;" xml:space="preserve">
<g id="G_x5F_Jantsch_x5F_Druckerei">
	<path style="fill-rule:evenodd;clip-rule:evenodd;" d="M52.613,0.207c0.183,6.641,0.099,13.494,0.1,20.301
		c0,3.374-0.158,6.802-0.05,10.125c0.219,6.689,0,12.833,0,19.802c0,3.425,0.157,6.921-0.05,10.176
		c-0.203,3.181-0.903,5.834-2.245,7.98c-1.274,2.039-3.306,3.735-5.736,4.489c-2.651,0.823-6.271,0.498-9.676,0.499
		c-6.813,0.001-13.217-0.299-20.051-0.299c-3.283,0-6.999,0.114-9.328-0.898c-2.194-0.954-3.986-3.051-4.888-5.387
		c-1-2.593-0.948-5.899,0.399-8.33c1.042-1.88,3.103-4.188,6.035-4.189c3.198-0.001,6.351,0.062,10.076-0.05
		c0.284-1.049,0.15-2.155,0.15-3.242c0-15.238,0.05-31.978,0.05-47.934c0-0.574-0.017-1.156,0-1.746
		c0.013-0.48-0.037-1.045,0.199-1.496c9.946-0.033,20.414,0.052,30.875,0.05C49.869,0.058,51.268,0.008,52.613,0.207z M35.554,1.803
		c-5.274,0.002-10.89-0.21-16.111-0.05c-0.336,0.345-0.298,0.901-0.299,1.347c-0.005,1.622,0.005,3.181,0,4.789
		c-0.052,15.824-0.057,31.244,0.05,46.537c1.578,0.325,3.407,0.076,5.138,0.149c4.365,0.185,8.58,0.25,13.018,0.25
		c0.663-0.001,2.285-0.174,2.344,0.349c0.072,0.623-0.836,0.524-1.247,0.649c-1.372,0.414-2.596,1.491-3.342,2.393
		c-1.764,2.135-2.153,6.555-0.897,9.478c1.073,2.498,3.662,4.438,6.983,4.489c3.611,0.055,6.084-1.644,7.631-3.891
		c1.593-2.313,2.245-5.421,2.245-9.277c0-18.973,0.164-38.315-0.05-57.111C45.966,1.6,40.782,1.802,35.554,1.803z"/>
</g>
<g id="Layer_1">
</g>
</svg>
