<?xml version="1.0" encoding="iso-8859-1"?>
<!-- Generator: Adobe Illustrator 19.2.0, SVG Export Plug-In . SVG Version: 6.00 Build 0)  -->
<svg version="1.1" xmlns="http://www.w3.org/2000/svg" xmlns:xlink="http://www.w3.org/1999/xlink" x="0px" y="0px"
	 viewBox="0 0 48.204 76.813" style="enable-background:new 0 0 48.204 76.813;" xml:space="preserve">
<g id="g_x5F_stasen">
	<path style="fill-rule:evenodd;clip-rule:evenodd;" d="M33.721,9.536c-1.032,0.383-2.888-0.059-4,0.244
		c-0.342,0.645-0.168,1.498-0.194,2.341c-0.051,1.622,0.015,3.129-0.049,4.828c-0.019,0.478-0.118,2.042,0.146,2.341
		c0.277,0.313,1.388,0.156,2.194,0.195c3.769,0.18,7.566,0.047,11.558,0.049c1.574,0,3.141-0.083,4.487,0.194
		c0.319,0.579,0.194,1.348,0.194,2.098c0,0.747,0,1.524,0,2.292c0,1.536,0.115,3.167-0.146,4.438
		c-0.651,0.318-1.466,0.223-2.194,0.195c-5.098-0.19-10.943-0.047-16.19-0.049c-5.414-0.002-10.496-0.097-16.143-0.098
		c-0.889,0-2.045-0.073-2.292,0.244c-0.266,0.342-0.185,1.707-0.194,2.39c-0.026,1.725,0.024,3.461,0.049,4.974
		c0.011,0.692-0.191,1.946,0.146,2.292c0.235,0.241,1.563,0.195,2.098,0.195c2.234,0,4.708,0.049,6.827,0.049
		c7.566-0.001,14.67,0,22.238,0c1.515,0,3.061,0.064,3.95,0.585c0.873,0.513,1.754,1.643,1.901,2.926
		c0.21,1.82,0.01,3.832,0.049,5.56c0.079,3.505-0.048,7.368-0.049,11.168c0,1.797,0.247,4.391-0.243,5.608
		c-1.055,2.614-4.381,2.342-8.096,2.341c-2.327-0.001-5.158,0.074-7.803,0c-0.751-0.021-1.932-0.198-2.341,0.146
		c-0.356,0.299-0.244,1.501-0.244,2.292c0,1.874,0,3.14,0,4.925c0,0.818,0.101,1.646-0.146,2.342
		c-1.607,0.263-3.511,0.146-5.315,0.146c-1.787,0-3.601,0.088-5.121-0.194c-0.345-0.645-0.182-1.512-0.194-2.342
		c-0.025-1.622-0.049-2.975-0.049-4.778c0-0.67,0.148-1.867-0.146-2.243c-0.417-0.533-3.569-0.293-4.486-0.293
		c-3.219-0.001-5.851-0.097-9.169-0.098c-0.795,0-1.612,0.029-2.39,0c-0.724-0.027-1.509,0.058-2.097-0.243
		c-0.259-1.153-0.146-2.911-0.146-4.292c0-0.649,0.001-1.386,0-2.243c0-0.617-0.142-1.695,0.195-2
		c0.266-0.239,1.48-0.146,2.243-0.146c10.268,0.002,19.673,0.099,30.09,0.098c1.569,0,3.15,0.113,4.486-0.195
		c0.245-0.678,0.16-1.479,0.195-2.291c0.097-2.297,0.027-5.119-0.147-7.413c-0.654-0.274-1.405-0.121-2.097-0.146
		c-2.089-0.076-4.278-0.074-6.437,0c-5.86,0.202-11.739-0.098-17.751-0.098c-1.394,0-2.987,0-4.486,0c-1.514,0-2.989,0.049-4-0.438
		c-0.848-0.409-1.57-1.111-1.95-1.902c-0.612-1.275-0.438-3.72-0.438-5.56c-0.001-4.404,0.049-7.639,0.049-11.898
		c-0.001-1.968-0.21-4.305,0.243-5.804c0.392-1.298,1.481-2.358,2.877-2.682c1.11-0.258,2.445-0.096,3.756-0.146
		c2.662-0.103,5.29,0,7.852,0c1.285,0,2.551,0.169,3.706-0.146c0.263-1.404,0.147-3.122,0.147-4.779
		c0-1.636,0.165-3.315-0.098-4.682c-0.936-0.478-2.88,0.052-3.804-0.439c0.125-0.572,0.695-0.891,1.072-1.268
		c0.774-0.773,1.486-1.584,2.292-2.39c1.127-1.126,2.315-2.292,3.512-3.414c0.773-0.725,1.493-1.655,2.39-2.243
		c0.514-0.337,1.075,0.539,1.512,0.976c2.375,2.375,4.797,4.798,7.169,7.169C33.074,8.599,33.605,8.97,33.721,9.536z"/>
</g>
<g id="Layer_1">
</g>
</svg>
