<?xml version="1.0" encoding="iso-8859-1"?>
<!-- Generator: Adobe Illustrator 19.2.0, SVG Export Plug-In . SVG Version: 6.00 Build 0)  -->
<svg version="1.1" xmlns="http://www.w3.org/2000/svg" xmlns:xlink="http://www.w3.org/1999/xlink" x="0px" y="0px"
	 viewBox="0 0 73.543 78.345" style="enable-background:new 0 0 73.543 78.345;" xml:space="preserve">
<g id="Galerie_x5F_Godard_x5F_Lefort">
	<path style="fill-rule:evenodd;clip-rule:evenodd;" d="M73.279,0.193c0.014,0.098,0.13,0.094,0.145,0.192
		c0.089,24.951,0.098,50.042,0.096,75.605c0,0.755,0.11,1.569-0.145,2.309C52.197,78.444,30.569,78.2,9.217,78.203
		c-3.025,0.001-6.055,0.114-9.042-0.145c-0.2-6.339-0.096-12.852-0.097-19.382C0.077,39.705,0.031,21.82,0.03,2.261
		c0-0.751-0.144-1.56,0.192-2.26C24.762-0.008,48.512,0.089,73.279,0.193z M62.602,9.523c-6.308,0.001-12.848,0.045-18.709-0.096
		c-2.272-0.054-4.556,0.12-6.829,0.048C28.265,9.199,18.151,9.542,9.65,9.379c-0.409,0.448-0.24,1.108-0.24,1.635
		c0,4.41,0,8.629,0,13.13C9.408,39.656,9.36,53.713,9.553,68.729c2.159,0.196,4.398,0.144,6.638,0.144
		c7.069,0,13.752,0.049,20.488,0.048c9.131-0.001,18.344,0.157,27.511,0c0.244-2.332,0.096-4.707,0.096-7.118
		c0.001-16.902,0.08-34.982-0.096-52.135C63.702,9.415,63.123,9.523,62.602,9.523z"/>
	<path style="fill-rule:evenodd;clip-rule:evenodd;" d="M62.217,15.583c0.22,8.239,0.145,16.882,0.145,25.635
		c0,6.565,0,12.994,0,19.286c0,2.126,0.108,4.263-0.096,6.349c-17.031,0.029-33.992,0.095-50.789-0.192
		c-0.254-1.009-0.144-2.093-0.144-3.126c0-13.571,0.15-27.995,0-41.891c-0.011-0.976,0.037-1.99,0-3.174
		c-0.026-0.836-0.204-2.771,0.144-3.03c0.035-0.045,0.088-0.073,0.145-0.096C28.673,15.511,45.772,15.294,62.217,15.583z
		 M20.903,24.866c-0.392,0.509-0.19,1.182-0.192,1.779c-0.005,1.956,0,4.025,0,6.108c-0.001,6.863,0.001,13.897,0,20.681
		c0,1.343-0.094,2.687,0.145,3.944c7.739,0.2,16.124,0.143,24.143,0.144c2.803,0,5.469,0.135,7.888-0.096
		c0.175-7.931,0.098-16.341,0.096-24.385c0-2.711,0.117-5.425-0.144-8.032C42.715,24.755,31.117,24.865,20.903,24.866z"/>
	<path style="fill-rule:evenodd;clip-rule:evenodd;" d="M50.674,31.166c0.205,1.854,0.145,3.819,0.145,5.819
		c0,5.972,0.08,12.424-0.096,18.276c-9.103,0.127-18.504,0.167-27.703-0.048c-0.165-7.386-0.098-15.252-0.096-23.038
		c0-0.903-0.058-1.116,0.577-1.202c1.061-0.143,2.252,0.048,3.415,0.048C34.678,31.021,42.982,30.918,50.674,31.166z M32.302,40.497
		c-0.258,0.709-0.144,1.689-0.144,2.645c-0.001,0.938-0.076,1.937,0.096,2.693c1.365,0.261,3.01,0.144,4.569,0.145
		c1.529,0,3.139,0.101,4.473-0.145c0.17-0.76,0.097-1.755,0.096-2.693c0-0.957,0.109-1.932-0.143-2.645
		C38.488,40.337,35.063,40.336,32.302,40.497z"/>
</g>
<g id="Layer_1">
</g>
</svg>
