<?xml version="1.0" encoding="iso-8859-1"?>
<!-- Generator: Adobe Illustrator 21.0.2, SVG Export Plug-In . SVG Version: 6.00 Build 0)  -->
<svg version="1.1" xmlns="http://www.w3.org/2000/svg" xmlns:xlink="http://www.w3.org/1999/xlink" x="0px" y="0px"
	 viewBox="0 0 9.506 9.168" style="enable-background:new 0 0 9.506 9.168;" xml:space="preserve">
<g id="Galo">
	<g>
		<g>
			<path style="fill:#231F20;" d="M5.107,1.91c-0.045,0-0.081-0.036-0.081-0.081V0.154c0-0.045,0.036-0.081,0.081-0.081
				c0.045,0,0.082,0.036,0.082,0.081v1.675C5.189,1.874,5.152,1.91,5.107,1.91z"/>
			<path style="fill:#231F20;" d="M4.624,0.965c0,0.038,0.031,0.068,0.069,0.068H5.31c0.038,0,0.068-0.03,0.068-0.068V0.488
				c0-0.037-0.03-0.068-0.068-0.068H4.693c-0.038,0-0.069,0.031-0.069,0.068V0.965z"/>
			<path style="fill:#231F20;" d="M4.305,0.691C4.281,0.711,4.238,0.727,4.209,0.727h-0.27H3.53c-0.016,0-0.018,0.008-0.006,0.017
				l0.357,0.274c0.012,0.01,0.012,0.024,0,0.033L3.524,1.324C3.513,1.333,3.515,1.341,3.53,1.341h0.409h0.27
				c0.029,0,0.072-0.016,0.096-0.035l0.278-0.237c0.023-0.02,0.065-0.035,0.096-0.035h0.506V0.42H4.679
				c-0.03,0-0.073,0.016-0.096,0.035L4.305,0.691z"/>
			<circle style="fill:#231F20;" cx="5.108" cy="0.137" r="0.137"/>
			<path style="fill:#231F20;" d="M3.524,0.743c0,0,0.171,0.237,0.171,0.29c0,0.054-0.171,0.291-0.171,0.291L3.919,1.3l0.282-0.286
				l-0.15-0.161L3.524,0.743z"/>
		</g>
		<path style="fill:#231F20;" d="M8.982,3.224C8.809,3.093,8.613,2.958,8.403,2.824l0.055-0.112
			c0.059-0.115,0.011-0.256-0.105-0.313C8.237,2.34,8.097,2.388,8.038,2.504l-0.039,0.08c-0.415-0.231-0.882-0.44-1.385-0.591
			c0.041-0.109-0.001-0.234-0.107-0.29c-0.115-0.06-0.257-0.016-0.317,0.1L6.152,1.876c-0.336-0.07-0.686-0.113-1.046-0.113
			c-0.36,0-0.71,0.043-1.047,0.113L4.022,1.803c-0.061-0.114-0.201-0.159-0.317-0.1c-0.105,0.056-0.148,0.181-0.106,0.29
			c-0.516,0.154-0.992,0.37-1.415,0.608C1.831,2.126,1.338,1.805,0.777,1.805c-0.039,0-0.071,0.031-0.071,0.07v2.178H0.234
			C0.104,4.053,0,4.157,0,4.287c0,0.13,0.104,0.234,0.234,0.234h0.472v2.178c0,0.039,0.032,0.07,0.071,0.07
			c0.561,0,1.054-0.321,1.405-0.797C2.622,6.22,3.12,6.445,3.66,6.6c0.056,0.193,0.057,0.355-0.011,0.457
			C3.58,7.159,3.391,7.177,3.303,7.178C3.277,7.179,3.252,7.198,3.249,7.224C3.236,7.301,3.23,7.379,3.23,7.459
			c0,0.061,0.005,0.122,0.01,0.183C3.341,8.5,4.14,9.168,5.106,9.168c0.968,0,1.765-0.668,1.865-1.526
			c0.005-0.061,0.01-0.122,0.01-0.183c0-0.08-0.007-0.158-0.018-0.235C6.959,7.198,6.935,7.18,6.909,7.181
			C6.797,7.185,6.643,7.176,6.563,7.057C6.496,6.955,6.496,6.793,6.552,6.6c0.979-0.28,1.823-0.794,2.431-1.249
			c0.332-0.248,0.523-0.636,0.523-1.063C9.506,3.859,9.314,3.472,8.982,3.224z M1.909,4.053h-0.7
			c0.049-0.182,0.15-0.342,0.302-0.454c0.153-0.115,0.324-0.234,0.508-0.353l1.381,2.775C2.65,5.747,2,5.342,1.511,4.975
			C1.359,4.862,1.258,4.703,1.209,4.521h0.7c0.129,0,0.234-0.104,0.234-0.234C2.143,4.157,2.038,4.053,1.909,4.053z M3.956,6.087
			L2.422,3.004c0.416-0.233,0.885-0.443,1.391-0.586L4.842,4.39L3.956,6.087z M5.106,4.896l0.722,1.386
			c-0.235,0.037-0.477,0.06-0.722,0.06c-0.246,0-0.487-0.022-0.723-0.061L5.106,4.896z M4.039,7.315
			c0.108-0.163,0.147-0.367,0.122-0.597c0.305,0.058,0.621,0.093,0.945,0.093c0.324,0,0.64-0.035,0.944-0.093
			c-0.025,0.23,0.014,0.434,0.121,0.597C6.178,7.323,6.185,7.328,6.19,7.336C5.893,7.383,5.499,7.429,5.106,7.429
			c-0.393,0-0.787-0.046-1.085-0.093C4.027,7.328,4.034,7.323,4.039,7.315z M5.37,4.39l1.028-1.972
			C6.905,2.561,7.374,2.771,7.79,3.004L6.256,6.087L5.37,4.39z M5.106,2.231c0.28,0,0.555,0.028,0.821,0.077L5.106,3.883
			L4.285,2.309C4.552,2.26,4.826,2.231,5.106,2.231z M1.777,2.844C1.579,2.971,1.395,3.1,1.23,3.224
			c-0.02,0.014-0.037,0.03-0.055,0.045V2.388C1.357,2.388,1.581,2.569,1.777,2.844z M1.176,6.183V5.305
			C1.193,5.32,1.211,5.337,1.23,5.351c0.165,0.124,0.348,0.252,0.547,0.379C1.58,6.003,1.357,6.183,1.176,6.183z M5.106,8.699
			c-0.634,0-1.168-0.396-1.315-0.934C4.089,7.82,4.6,7.897,5.106,7.897c0.508,0,1.017-0.077,1.317-0.132
			C6.275,8.303,5.741,8.699,5.106,8.699z M8.702,4.976C8.213,5.342,7.561,5.748,6.811,6.021l1.382-2.775
			c0.183,0.118,0.354,0.237,0.509,0.353c0.213,0.159,0.335,0.41,0.335,0.689C9.037,4.565,8.915,4.816,8.702,4.976z"/>
	</g>
</g>
<g id="Layer_1">
</g>
</svg>
