<?xml version="1.0" encoding="iso-8859-1"?>
<!-- Generator: Adobe Illustrator 19.2.0, SVG Export Plug-In . SVG Version: 6.00 Build 0)  -->
<svg version="1.1" xmlns="http://www.w3.org/2000/svg" xmlns:xlink="http://www.w3.org/1999/xlink" x="0px" y="0px"
	 viewBox="0 0 76.772 78.357" style="enable-background:new 0 0 76.772 78.357;" xml:space="preserve">
<g id="Gardena_x5F_DE">
	<path style="fill-rule:evenodd;clip-rule:evenodd;" d="M28.63,0.088c1.082-0.064,2.431-0.131,2.587,0.879
		c0.122,0.793-0.474,1.273-0.879,1.759c-1.187,1.422-2.389,2.942-3.259,4.604c-0.923,1.763-1.62,3.669-2.069,5.845
		c-0.152,0.738-0.124,1.574-0.413,2.172c-0.277,0.574-1.009,0.984-1.448,1.293c-3.166,2.232-5.711,4.838-7.759,8.379
		c-0.224,0.387-0.616,1.57-1.138,1.551c-0.399-0.014-0.761-0.967-0.982-1.5c-0.724-1.737-1.277-3.897-1.397-6.052
		c-0.157-2.84,0.488-5.588,1.293-7.603C15.212,6.29,19.05,2.377,24.751,0.761C25.986,0.41,27.334,0.164,28.63,0.088z"/>
	<path style="fill-rule:evenodd;clip-rule:evenodd;" d="M29.975,12.76c0.033-1.297,0.653-2.521,1.242-3.621
		c1.627-3.042,4.437-5.76,7.603-7.293c1.943-0.941,4.173-1.642,6.621-1.811c3.331-0.23,6.302,0.662,8.638,1.759
		c1.16,0.544,2.259,1.262,3.207,2.017c0.929,0.741,2.102,1.506,2.379,2.793c-0.041,1.357-2.33,1.148-3.828,1.294
		c-3.896,0.38-6.836,1.82-9.465,3.569c-0.438,0.291-1.016,0.926-1.655,1.034c-0.8,0.136-1.815-0.228-2.689-0.362
		c-3.207-0.488-6.926-0.189-9.931,0.414C31.402,12.693,30.669,13.115,29.975,12.76z"/>
	<path style="fill-rule:evenodd;clip-rule:evenodd;" d="M50.457,14.674c0.535-0.905,1.961-1.312,3.104-1.655
		c2.479-0.745,5.52-1.074,8.482-0.466c4.196,0.862,7.759,3.205,10.035,5.845c2.077,2.41,3.764,5.68,4.293,9.568
		c0.219,1.615,0.417,4.25-0.931,4.345c-0.542,0.038-1.201-0.572-1.655-0.983c-0.509-0.46-0.965-0.889-1.396-1.241
		c-2.507-2.047-5.287-3.493-8.845-4.293c-0.721-0.162-1.494-0.221-2.069-0.517c-0.936-0.482-1.649-2.099-2.379-3.052
		c-1.946-2.541-4.425-4.666-7.138-6.362C51.446,15.544,50.783,15.262,50.457,14.674z"/>
	<path style="fill-rule:evenodd;clip-rule:evenodd;" d="M24.803,20.932c3.975-3.338,10.403-5.655,17.637-4.241
		c4.534,0.886,8.201,3.28,10.965,5.741c0.933,0.83,1.752,1.954,2.587,3c1.974,2.474,3.632,5.839,4.241,9.672
		c0.124,0.778,0.308,1.609,0.362,2.379c0.158,2.247-0.066,4.674-0.517,6.776c-1.265,5.903-4.616,10.55-8.793,13.551
		c-1.436,1.032-3.095,1.776-4.862,2.586c-1.788,0.819-3.808,1.327-5.948,1.5c-4.78,0.387-9.015-0.648-12.31-2.483
		c-3.295-1.834-5.848-3.937-8.017-6.931c-2.154-2.974-3.559-6.603-4.086-10.811c-0.591-4.718,0.516-9.201,2.121-12.465
		C19.867,25.779,21.773,23.197,24.803,20.932z"/>
	<path style="fill-rule:evenodd;clip-rule:evenodd;" d="M12.596,47.57c-1.198,0.149-2.39-0.57-3.414-1.138
		c-1.024-0.568-2.019-1.203-2.845-1.914c-1.628-1.401-3.233-3.061-4.241-5.224C1.708,38.46,1.262,37.463,1.01,36.45
		c-0.256-1.029-0.685-2.031-0.828-3.052c-0.529-3.783,0.152-7.231,1.293-9.931c0.678-1.604,1.147-2.859,2.224-4.19
		c0.663-0.819,1.412-1.812,2.379-2.224c1.49-0.077,1.234,1.263,1.345,2.689c0.348,4.477,1.86,8.111,3.827,11.069
		c0.417,0.627,0.908,1.172,0.983,1.81c0.064,0.547-0.153,1.216-0.259,1.862c-0.604,3.687-0.449,8.088,0.466,11.431
		C12.578,46.416,12.922,47,12.596,47.57z"/>
	<path style="fill-rule:evenodd;clip-rule:evenodd;" d="M63.905,30.812c0.567-0.262,1.345,0.235,1.965,0.517
		c2.336,1.062,4.561,2.507,6.155,4.293c1.122,1.257,2.409,3.12,3.207,4.966c1.27,2.936,1.978,7.151,1.241,11.017
		c-0.6,3.147-2.099,6.013-3.931,8.172c-0.496,0.584-1.306,1.792-2.328,1.655c-1.089-0.146-0.903-1.352-0.983-2.482
		c-0.146-2.08-0.595-3.994-1.138-5.741c-0.643-2.07-1.618-3.988-2.741-5.638c-0.277-0.407-0.945-1.191-1.035-1.758
		c-0.079-0.506,0.149-1.17,0.259-1.862c0.587-3.696,0.307-8.229-0.518-11.482C63.936,31.974,63.589,31.343,63.905,30.812z"/>
	<path style="fill-rule:evenodd;clip-rule:evenodd;" d="M0.906,46.432c0.129-0.044,0.277-0.068,0.466-0.052
		c0.639,0.198,1.03,0.761,1.448,1.138c2.554,2.299,6.01,4.428,10.189,5.224c0.698,0.133,1.55,0.135,2.121,0.414
		c0.527,0.258,0.837,0.934,1.19,1.5c0.366,0.586,0.753,1.095,1.086,1.552c2.042,2.545,4.477,4.693,7.448,6.518
		c0.383,0.235,1.06,0.549,1.086,0.879c0.039,0.492-0.946,0.87-1.448,1.086c-1.714,0.738-4.033,1.252-6.052,1.396
		c-0.441,0.032-1.082,0.026-1.448,0c-6.149-0.441-10.895-3.484-13.758-7.707c-0.445-0.657-0.961-1.373-1.241-2.017
		c-0.288-0.662-0.459-1.415-0.724-2.121c-0.521-1.386-0.887-2.669-1.034-4.552C0.133,48.409-0.045,46.811,0.906,46.432z"/>
	<path style="fill-rule:evenodd;clip-rule:evenodd;" d="M62.354,51.604c0.034,0,0.069,0,0.104,0c0.852,0.827,1.305,2.082,1.655,3.31
		c0.364,1.274,0.663,2.705,0.776,4.189c0.228,2.994-0.445,6.114-1.396,8.379c-1.454,3.461-4.075,6.309-7.086,8.121
		c-2.273,1.368-4.916,2.565-8.638,2.741c-1.492,0.07-2.604-0.166-2.689-1.086c-0.067-0.72,0.545-1.193,0.982-1.655
		c2.656-2.81,4.336-6.144,5.328-10.5c0.167-0.733,0.15-1.559,0.465-2.121c0.251-0.447,0.904-0.728,1.552-1.189
		c1.636-1.165,2.885-2.358,4.241-3.828c1.316-1.425,2.456-2.789,3.466-4.603C61.492,52.68,61.795,51.855,62.354,51.604z"/>
	<path style="fill-rule:evenodd;clip-rule:evenodd;" d="M45.906,65.466c1.191,0.066-0.189,2.5-0.466,3.052
		c-0.282,0.562-0.546,1.041-0.776,1.448c-2.63,4.663-8.332,8.37-15.517,8.224c-2.688-0.054-5.349-0.862-7.396-1.914
		c-1.477-0.759-2.875-1.839-4.138-3c-0.365-0.335-0.951-0.87-0.931-1.448c0.049-1.432,2.541-1.014,4.086-1.241
		c3.846-0.565,6.901-2.059,9.465-3.776c0.417-0.279,1.088-0.956,1.604-1.034c0.49-0.075,1.103,0.155,1.707,0.258
		c2.683,0.458,6.233,0.528,9.051,0.104C43.706,65.971,44.81,65.405,45.906,65.466z"/>
</g>
<g id="Layer_1">
</g>
</svg>
