<?xml version="1.0" encoding="iso-8859-1"?>
<!-- Generator: Adobe Illustrator 19.2.0, SVG Export Plug-In . SVG Version: 6.00 Build 0)  -->
<svg version="1.1" xmlns="http://www.w3.org/2000/svg" xmlns:xlink="http://www.w3.org/1999/xlink" x="0px" y="0px"
	 viewBox="0 0 107.613 87.267" style="enable-background:new 0 0 107.613 87.267;" xml:space="preserve">
<g id="Gemeinde_x5F_Rechberghausen">
	<path style="fill-rule:evenodd;clip-rule:evenodd;" d="M42.547,0c0.749,1.633-1.963,3.597-1.318,5.154
		c0.36,0.869,1.58,0.365,1.917,1.438c-0.733,0.781-1.925,0.086-2.756,0.12c-3.358,0.137-6.565,3.916-7.91,6.352
		c3.356-1.144,7.148-4.083,12.105-3.236c-0.211,5.263-3.995,6.951-8.51,7.91c0.754,4.652,1.672,9.207,3.476,13.663
		c1.321,3.265,3.823,10.04,7.431,10.667c0.476,0.083,0.92,0.049,1.558,0c2.592-0.2,5.479-1.495,8.03-2.397
		c5.161-1.826,9.755-3.823,15.701-5.034c3.792-0.771,7.398-1.313,11.146-1.318c1.907-0.003,4.827,0.455,5.873,1.438
		c2.362,2.219,2.781,7.539,2.996,11.985c2.871-0.212,6.456-1.367,9.708-1.198c0.355,1.166,0.625,2.912,0.479,4.195
		c0.339,0.3,1.339-0.061,1.678,0.24c-0.041,3.355-0.487,6.305-0.6,9.588c1.513,1.985,0.448,5.338,1.558,7.91
		c0.731,1.695,3.458,2.777,2.157,6.113c-2.042-0.874-2.951-2.882-4.314-4.435c-1.469,3.644,2.703,5.841,0.359,9.348
		c-4.981-4.332-3.295-13.861-4.075-21.933c-3.318,1.058-7.042,2.317-10.907,3.715c-3.63,1.313-7.532,3.186-11.266,3.236
		c-3.623,0.048-5.563-1.767-7.79-3.476c-0.35,0.281,0.548,0.322,0.359,0.839c-5.171,1.405-10.857,2.482-16.3,3.596
		c-2.722,0.557-5.383,1.669-8.03,1.558c-2.287,3.456-7.058,4.075-11.866,5.513c-3.709,1.109-7.897,2.243-11.266,3.715
		c-5.365,2.345-10.097,4.693-14.502,7.91c-1.436,1.049-2.556,2.318-3.955,3.476c-0.869,0.72-2.069,0.7-3.715,0.479
		c0.447-1.31,1.808-1.708,2.517-2.756c-0.375-0.109-1.95,0.173-2.517-0.12c8.465-8.753,19.69-14.748,31.041-20.614
		c-2.28-10.789-3.831-22.929-4.195-35.236c-1.377-0.182-2.809,0.027-4.434,0c-2.78-0.046-6.034,0.43-8.749,0
		c-1.134-0.18-3.046-1.292-2.996-2.397c0.042-0.932,3.221-2.866,4.075-3.476c3.173-2.264,5.618-3.974,8.749-6.112
		c1.375-0.939,3.208-1.774,4.555-2.877c0.92-0.753,1.627-1.939,2.517-3.116c0.806-1.066,1.906-1.959,2.277-3.236
		c0.498-1.711,0.271-3.596,0.599-5.633c1.838,0.891,0.354,4.229,1.678,4.914c0.933,0.483,2.733-0.846,3.356-1.318
		C40.244,3.809,41.073,0.795,42.547,0z M92.286,49.978C92.364,50.057,92.236,49.928,92.286,49.978L92.286,49.978z M46.742,63.282
		C46.821,63.36,46.692,63.231,46.742,63.282L46.742,63.282z M3.835,83.177C3.914,83.256,3.785,83.127,3.835,83.177L3.835,83.177z"/>
</g>
<g id="Layer_1">
</g>
</svg>
