<?xml version="1.0" encoding="iso-8859-1"?>
<!-- Generator: Adobe Illustrator 19.2.0, SVG Export Plug-In . SVG Version: 6.00 Build 0)  -->
<svg version="1.1" xmlns="http://www.w3.org/2000/svg" xmlns:xlink="http://www.w3.org/1999/xlink" x="0px" y="0px"
	 viewBox="0 0 55.294 84.83" style="enable-background:new 0 0 55.294 84.83;" xml:space="preserve">
<g id="Gendai_x5F_Geijutsu_x5F_Kenkyujo">
	<path style="fill-rule:evenodd;clip-rule:evenodd;" d="M55.107,0.266c0.266,13.623,0.156,27.865,0.16,42.095
		c0.003,13.15-0.004,26.808,0,39.915c0,0.823,0.124,1.698-0.16,2.498c-16.775,0.153-34.454-0.052-51.768-0.054
		c-1.074,0-2.16,0.057-3.188-0.159C-0.106,63.485,0.043,43.442,0.044,21.42c0-6.151,0-12.433,0-18.762
		c0-0.843-0.107-2.339,0.159-2.552C0.242,0.057,0.301,0.026,0.363,0C18.447,0.159,37.048-0.073,55.107,0.266z M45.806,2.87
		c-2.95,0.288-5.345,2.99-5.262,6.165c0.088,3.377,2.738,5.953,6.112,5.953c2.438,0,4.403-1.464,5.368-3.349
		c0.929-1.815,0.574-4.554-0.319-5.952c-0.883-1.383-2.265-2.35-4.411-2.817C46.696,2.907,46.315,2.821,45.806,2.87z M4.403,28.062
		c-0.21,6.061,1.811,11.083,4.57,14.617c2.825,3.616,6.484,6.334,11.374,7.812c2.556,0.772,5.622,1.119,8.558,0.638
		c2.839-0.466,5.081-1.153,7.281-2.339c4.089-2.203,7.451-5.454,9.461-9.727c1.034-2.2,1.879-4.748,2.179-7.387
		c0.509-4.479-0.661-8.961-2.126-12.065c-2.564-5.437-6.643-9.364-12.649-11.374c-2.442-0.816-5.343-1.368-8.451-1.169
		C17.9,7.497,13.352,10.73,9.93,14.404C7.066,17.922,4.611,22.029,4.403,28.062z M13.172,52.459c0.082,0.994,0.688,1.838,1.116,2.71
		c0.436,0.886,0.881,1.819,1.275,2.711c0.812,1.836,1.623,3.675,2.658,5.315c3.383,0.071,7.488,0.107,11.161,0.106
		c1.25,0,2.71-0.192,3.667,0.106c2.699,0.843,2.319,5.263-0.69,5.527c-2.772,0-5.858,0-8.61,0c-0.926,0-1.884-0.185-2.658,0.16
		c0.164,0.925,0.599,1.798,1.01,2.657c0.41,0.854,0.827,1.73,1.223,2.604c0.792,1.751,1.484,3.593,2.498,5.155
		c2.252,0.099,4.302,0.054,6.166,0.054c2.078-0.001,3.661-0.29,5.314-0.957c3.002-1.212,5.104-3.301,6.644-5.899
		c1.625-2.744,2.228-6.858,1.223-10.365c-0.889-3.097-2.735-5.816-5.05-7.493c-1.402-1.017-3.221-1.948-5.421-2.339
		c-1.717-0.305-3.913-0.107-5.899-0.107c-5.06,0-10.369-0.1-15.413-0.053C13.306,52.38,13.251,52.431,13.172,52.459z"/>
	<path style="fill-rule:evenodd;clip-rule:evenodd;" d="M25.131,19.559c3.897-0.319,6.246,1.349,8.132,3.35
		c0.889,0.942,1.801,2.523,2.126,3.985c1.224,5.513-2.017,9.687-5.475,11.215c-2.159,0.954-4.81,1.087-7.069,0.213
		c-2.002-0.775-3.582-2.079-4.677-3.827c-1.045-1.669-1.857-4.11-1.434-6.856c0.305-1.984,1.146-3.495,2.231-4.783
		C20.431,21.116,22.019,19.814,25.131,19.559z"/>
</g>
<g id="Layer_1">
</g>
</svg>
