<?xml version="1.0" encoding="iso-8859-1"?>
<!-- Generator: Adobe Illustrator 21.0.2, SVG Export Plug-In . SVG Version: 6.00 Build 0)  -->
<svg version="1.1" xmlns="http://www.w3.org/2000/svg" xmlns:xlink="http://www.w3.org/1999/xlink" x="0px" y="0px"
	 viewBox="0 0 13.808 13.662" style="enable-background:new 0 0 13.808 13.662;" xml:space="preserve">
<g id="Gendron_x5F_et_x5F_Cote_x5F_Architectes">
	<path d="M5.89,0.075c1.806-0.272,3.717,0.207,5.174,1.313c1.237,0.916,2.144,2.269,2.524,3.762c-0.726,0.005-1.453,0-2.179,0.003
		c-0.64-1.755-2.401-3.024-4.266-3.085C6.947,2.069,6.75,2.069,6.554,2.069c-1.226,0.078-2.41,0.653-3.241,1.556
		c-0.359,0.413-0.676,0.872-0.88,1.383C2.126,5.73,2.011,6.529,2.088,7.308c0.116,1.222,0.738,2.384,1.68,3.168
		c0.728,0.618,1.647,1.007,2.595,1.111c0.169,0.005,0.336,0.032,0.505,0.039c0.561-0.023,1.127-0.092,1.655-0.293
		c1.133-0.396,2.097-1.239,2.659-2.298c0.192-0.365,0.327-0.757,0.429-1.156C9.607,7.883,7.604,7.881,5.6,7.881
		c0-0.689,0.003-1.378-0.002-2.067c2.71-0.006,5.42-0.002,8.13-0.002c0.002,0.132,0.038,0.26,0.045,0.392
		c0.003,0.299,0.062,0.597,0.021,0.895c-0.049,1.566-0.68,3.101-1.726,4.265c-0.419,0.444-0.867,0.865-1.387,1.189
		c-1.157,0.753-2.547,1.158-3.929,1.104c-0.472,0.016-0.941-0.06-1.402-0.16c-1.126-0.25-2.183-0.796-3.049-1.555
		c-0.895-0.791-1.587-1.817-1.962-2.953C0.152,8.444,0.047,7.873,0.001,7.3c-0.003-0.288,0.001-0.575-0.001-0.862
		C0.076,5.02,0.624,3.634,1.524,2.537C1.748,2.282,1.96,2.01,2.229,1.8C3.237,0.872,4.534,0.266,5.89,0.075z"/>
	<path d="M6.284,2.806c0.31-0.058,0.626-0.031,0.939-0.033C8.08,2.837,8.915,3.179,9.57,3.737c0.077,0.08,0.163,0.151,0.25,0.22
		c0.08,0.102,0.165,0.199,0.258,0.289c0.233,0.276,0.409,0.592,0.579,0.908c-0.871,0-1.742,0-2.613,0
		C7.867,5.068,7.698,4.96,7.506,4.907C6.799,4.681,5.968,4.874,5.453,5.414C5.055,5.781,4.856,6.328,4.843,6.862
		C4.869,7.294,4.999,7.73,5.278,8.068c0.314,0.411,0.792,0.691,1.304,0.766c0.452,0.089,0.911-0.036,1.319-0.227
		c0.905-0.009,1.811,0.007,2.716-0.007c-0.278,0.522-0.631,1.019-1.105,1.381c-0.999,0.838-2.411,1.129-3.667,0.798
		c-0.647-0.168-1.257-0.49-1.743-0.95C3.999,9.752,3.903,9.663,3.829,9.556C3.305,8.995,2.962,8.271,2.832,7.516
		c-0.193-1.089,0.095-2.254,0.772-3.13C4.245,3.536,5.229,2.954,6.284,2.806z"/>
</g>
<g id="Layer_1">
</g>
</svg>
