<?xml version="1.0" encoding="iso-8859-1"?>
<!-- Generator: Adobe Illustrator 19.2.0, SVG Export Plug-In . SVG Version: 6.00 Build 0)  -->
<svg version="1.1" xmlns="http://www.w3.org/2000/svg" xmlns:xlink="http://www.w3.org/1999/xlink" x="0px" y="0px"
	 viewBox="0 0 118.657 102.381" style="enable-background:new 0 0 118.657 102.381;" xml:space="preserve">
<g id="Genesee_x5F_Health_x5F_Systems">
	<path style="fill-rule:evenodd;clip-rule:evenodd;" d="M56.454,0.174c9.23-0.44,18.86-0.104,25.888,1.678
		c7.233,1.833,13.259,5.069,18.457,9.349c9.667,7.958,17.857,19.835,17.858,37.633c0,9.639-0.962,17.063-3.835,23.73
		c-5.424,12.587-15.428,21.941-28.645,26.847c-3.258,1.209-7.271,2.283-11.266,2.637c-4.287,0.379-8.774,0.09-13.543,0.239
		c-9.148,0.287-17.97-0.013-25.169-1.917c-7.164-1.896-13.27-5.088-18.337-9.468C7.968,82.352,0.15,71.172,0.004,53.987
		c-0.075-8.805,0.987-16.771,3.715-23.371C8.905,18.069,19.133,8.206,32.124,3.529c7.156-2.576,14.226-3.355,24.09-3.355
		C56.294,0.174,56.374,0.177,56.454,0.174z M54.177,0.413C54.255,0.492,54.127,0.363,54.177,0.413L54.177,0.413z M37.637,6.646
		c-9.791,5.684-17.586,14.557-20.375,26.487c-1.457,6.231-0.992,14.301-1.318,22.053c-0.96,22.767,10.63,36.331,26.727,43.146
		c11.851,5.019,29.07,2.933,38.712-2.397c10.136-5.602,17.383-14.339,20.375-26.727c1.507-6.24,1.457-13.685,1.318-21.333
		c-0.132-7.249-0.543-13.821-2.637-19.896c-1.876-5.44-5.313-10.372-9.229-14.382C83.381,5.576,72.081,0.862,56.334,1.612
		C48.904,1.966,42.499,3.823,37.637,6.646z"/>
	<path style="fill-rule:evenodd;clip-rule:evenodd;" d="M53.817,15.155c-0.017,0.001,0.046-0.117,0.12-0.12
		c13.643-0.644,24.663,0.512,32.719,6.112c7.356,5.114,13.688,12.719,14.742,24.81c1.142,13.086-2.254,22.887-8.629,29.963
		c-6.45,7.159-14.825,11.267-27.926,11.506c-5.754,0.104-12.24,0.536-18.217-0.359c-5.496-0.824-9.963-3.076-14.023-5.753
		c-7.806-5.148-13.537-12.714-14.982-24.57c-1.55-12.719,2.598-23.337,8.75-29.843c6.329-6.694,14.466-11.745,27.206-11.745
		C53.657,15.155,53.738,15.159,53.817,15.155z M43.39,19.71c-6.952,3.87-12.557,10.87-14.262,19.536
		c-0.994,5.051-0.591,9.963-0.839,15.341c-0.515,11.163,3.683,18.76,9.349,24.21c5.73,5.513,14.002,9.013,25.528,8.03
		c14.81-1.262,24.073-10.707,26.967-23.61c0.99-4.418,0.711-9.775,0.599-14.862c-0.128-5.805-0.281-9.963-2.038-14.382
		c-4.632-11.653-15.459-19.41-32.48-18.217C50.948,16.123,46.972,17.715,43.39,19.71z"/>
	<path style="fill-rule:evenodd;clip-rule:evenodd;" d="M54.057,25.822c9.454-0.45,17.532-0.138,23.611,3.356
		c5.515,3.17,9.858,8.466,11.386,16.42c1.75,9.115-1.136,17.373-5.034,22.172c-4.003,4.929-10.228,8.843-18.697,9.109
		C55.8,77.178,47.816,77,41.592,73.163c-5.437-3.351-10.115-8.528-11.386-16.419c-2.156-13.388,3.807-23.272,12.584-28.045
		C45.84,27.04,49.97,26.017,54.057,25.822z"/>
</g>
<g id="Layer_1">
</g>
</svg>
