<?xml version="1.0" encoding="iso-8859-1"?>
<!-- Generator: Adobe Illustrator 19.2.0, SVG Export Plug-In . SVG Version: 6.00 Build 0)  -->
<svg version="1.1" xmlns="http://www.w3.org/2000/svg" xmlns:xlink="http://www.w3.org/1999/xlink" x="0px" y="0px"
	 viewBox="0 0 73.697 77.551" style="enable-background:new 0 0 73.697 77.551;" xml:space="preserve">
<g id="general_x5F_sintering_x5F_corporation">
	<path style="fill-rule:evenodd;clip-rule:evenodd;" d="M39.636,0.043c0.305,3.823-0.14,8.396,0.241,12.145
		c0.379-0.264,0.541-0.731,0.723-1.108c1.375-2.859,3.371-5.051,5.976-6.795c2.819-1.888,6.721-3.458,11.518-2.843
		c5.303,0.68,9.023,3.113,11.807,6.458c0.57,0.685,0.936,1.407,1.397,2.217c0.896,1.571,1.634,3.324,2.024,5.253
		c0.932,4.602-0.089,8.952-1.879,12.048c-0.495,0.856-0.782,1.575-1.35,2.313c-2.537,3.301-6.331,5.975-11.615,6.602
		c-7.161,0.851-12.284-2.486-15.566-6.072c-0.783-1.112-1.694-2.219-2.312-3.518c-0.2-0.419-0.285-0.948-0.723-1.205
		c-0.285,2.704,0.092,6.068-0.193,8.771c-1.166,0.261-2.523,0.145-3.903,0.145c-3.993,0-8.052-0.048-12.097-0.048
		c-2.686,0-5.39,0.063-8.048-0.048c-2.661-0.112-5.339-0.025-7.904,0.145c-0.159,2.589-0.161,5.845,0,8.434
		c1.226,0.246,2.536,0.145,3.808,0.145c9.067,0.001,19.025-0.061,28.097,0.145c0.376,2.708-0.059,6.227,0.241,9.012
		c0.636-0.441,0.882-1.687,1.445-2.361c2.67-4.276,6.692-7.571,12.819-8.386c2.047-0.272,4.257-0.055,6.313,0.434
		c3.634,0.863,6.659,2.778,8.867,5.253c1.09,1.222,1.926,2.739,2.699,4.337c0.805,1.663,1.282,3.479,1.542,5.494
		c0.581,4.513-0.826,8.235-2.555,11.277c-1.725,3.038-4.359,5.22-7.47,6.651c-3.149,1.449-7.898,2.038-11.952,0.819
		c-3.637-1.094-6.417-2.927-8.578-5.494c-0.879-1.039-1.692-2.195-2.361-3.47c-0.216-0.412-0.346-0.901-0.723-1.205
		c-0.309,1.856-0.104,3.945-0.097,5.976c0.007,2.008-0.026,4.076-0.145,5.976c-6.224,0.163-11.62-1.264-16.048-3.277
		C14.79,70.239,7.878,63.96,3.732,55.128c-2.117-4.51-3.487-9.299-3.711-15.759c-0.212-6.14,1.221-11.719,3.229-16.193
		c2.047-4.56,4.806-8.324,8-11.518C16.079,6.83,22.176,2.905,29.948,1.103C32.833,0.435,36.21-0.169,39.636,0.043z"/>
</g>
<g id="Layer_1">
</g>
</svg>
