<?xml version="1.0" encoding="iso-8859-1"?>
<!-- Generator: Adobe Illustrator 19.2.0, SVG Export Plug-In . SVG Version: 6.00 Build 0)  -->
<svg version="1.1" xmlns="http://www.w3.org/2000/svg" xmlns:xlink="http://www.w3.org/1999/xlink" x="0px" y="0px"
	 viewBox="0 0 82.388 35.186" style="enable-background:new 0 0 82.388 35.186;" xml:space="preserve">
<g id="Geo_x5F_67">
	<path style="fill-rule:evenodd;clip-rule:evenodd;" d="M82.22,35.036c-1.154,0.262-2.36,0.1-3.544,0.1
		c-22.453,0-46.518,0.001-69.673,0c-1.35,0-2.616,0.125-3.693-0.05c-0.926-0.15-1.897-0.569-2.595-1.098
		c-1.309-0.993-2.504-2.538-2.645-4.741c-0.156-2.441,0-4.948,0-7.436c0-6.652,0-13.305,0-20.163c0-0.496-0.168-1.183,0.25-1.597
		C14.464-0.006,29.371,0,44.139,0c9.802,0,19.426,0.049,29.146,0.05c1.368,0,2.584-0.087,3.644,0.05
		c1.015,0.132,1.848,0.575,2.596,1.098C80.83,2.11,82.188,3.721,82.32,5.79c0.154,2.438,0,4.928,0,7.386
		C82.32,20.512,82.398,27.909,82.22,35.036z M37.701,4.392c-0.262,0.851-0.193,2.515-0.05,3.443c0.902,0.178,2.118,0.1,3.344,0.1
		c1.214,0,2.516,0.128,3.444,0c1.582-0.219,2.476-1.83,2.346-3.494C43.873,4.188,40.705,4.308,37.701,4.392z M49.33,9.583
		c-6,0-12.524-0.091-18.117,0.1c-0.263,2.384-0.08,4.905-0.15,7.486c-0.069,2.569,0.05,5.209,0.05,7.786
		c0,1.358-0.218,2.916,0.1,4.192c3.75,0.174,8.666,0.1,12.827,0.1c1.489,0,3.021,0.128,4.292-0.05
		c1.984-0.278,2.863-1.952,2.895-3.943c-1.161-0.355-2.54-0.2-3.893-0.2c-2.672,0-5.326-0.05-8.086-0.05
		c-1.339,0-2.685,0.178-3.793-0.15c-0.053-1.056-0.144-2.57,0.05-3.543c3.277-0.077,7.368-0.19,10.93-0.05
		c1.207,0.047,2.576-0.035,3.294-0.499c0.876-0.567,1.519-2.04,1.497-3.344c-1.171-0.351-2.561-0.2-3.893-0.2
		c-3.306,0-6.687-0.05-9.882-0.05c-0.637,0-1.355,0.117-1.946-0.149c-0.139-0.871-0.219-2.504,0.05-3.294
		c3.544-0.277,8.459,0.196,12.128-0.05c2.371-0.159,3.621-1.557,3.593-3.894C50.679,9.521,49.978,9.583,49.33,9.583z M22.579,9.583
		c-1.423,0-2.89,0-4.342,0c-2.955,0-5.961-0.198-8.833,0c-0.92,0.064-2.066,0.433-2.646,0.998c-1.176,1.147-0.898,3.561-0.898,5.89
		c0,2.917-0.042,5.741,0,8.434c0.022,1.485-0.205,2.944,0.1,4.242c4.364,0.183,9.247,0.1,13.625,0.1c1.319,0,3.215,0.242,4.492-0.05
		c2.741-0.627,2.695-3.489,2.695-6.888c0-1.751,0.08-3.557-0.1-5.04c-1.54-0.348-3.541-0.065-5.54-0.1
		c-1.901-0.033-4.135-0.32-5.49,0.2c-1.478,0.567-2.225,1.988-2.196,3.893c0.587,0.26,1.32,0.157,2.046,0.149
		c0.748-0.007,1.561,0,2.346,0c1.573,0,3.129-0.068,4.392,0.15c0.099,1.004,0.305,2.35-0.199,2.995
		c-0.499,0.638-1.86,0.449-3.145,0.449c-1.983,0-3.979,0-5.839,0c-1.059,0-2.04,0.108-2.795-0.15c-0.09-1.749-0.05-3.617-0.05-5.59
		c0-1.439-0.341-4.602,0.449-5.24c0.44-0.356,1.944-0.25,3.094-0.25c1.205,0,2.37,0,3.344,0c2.372,0,4.781,0.214,6.688,0
		c2.003-0.225,3.168-1.854,3.044-4.043C25.449,9.463,24.021,9.583,22.579,9.583z M67.845,9.583c-2.951,0-5.895-0.134-8.733,0
		c-1.845,0.087-3.108,0.766-3.644,2.246c-0.377,1.043-0.205,2.977-0.199,4.193c0.014,2.822-0.068,6.05,0,8.883
		c0.037,1.533-0.094,2.992,0.149,4.242c0.729,0.256,1.561,0.15,2.346,0.15c4.267,0,7.933-0.05,12.028-0.05
		c1.527,0,3.379,0.142,4.541-0.399c1.219-0.566,2.037-1.664,2.196-3.244c0.243-2.395,0.05-5.225,0.05-8.035
		c0-1.372,0.008-2.727,0-4.042c-0.007-1.352,0.119-2.681-0.149-3.843C73.623,9.5,70.729,9.583,67.845,9.583z"/>
	<path style="fill-rule:evenodd;clip-rule:evenodd;" d="M71.888,13.875c0.263,0.785,0.15,1.73,0.15,2.695c0,1.817,0,3.768,0,5.64
		c0,0.898,0.114,1.818-0.4,2.395c-0.439,0.341-1.942,0.27-2.896,0.299c-1.076,0.034-2.104,0.042-2.994,0
		c-2.137-0.099-4.142,0.131-5.789-0.149c-0.192-2.516-0.1-5.538-0.1-8.485c0-1.365-0.095-2.346,1.147-2.495
		c1.646-0.198,3.498,0.04,5.29,0.05C68.201,13.835,70.087,13.631,71.888,13.875z"/>
</g>
<g id="Layer_1">
</g>
</svg>
