<?xml version="1.0" encoding="iso-8859-1"?>
<!-- Generator: Adobe Illustrator 19.2.0, SVG Export Plug-In . SVG Version: 6.00 Build 0)  -->
<svg version="1.1" xmlns="http://www.w3.org/2000/svg" xmlns:xlink="http://www.w3.org/1999/xlink" x="0px" y="0px"
	 viewBox="0 0 57.353 76.798" style="enable-background:new 0 0 57.353 76.798;" xml:space="preserve">
<g id="Georges_x5F_Coslin">
	<path style="fill-rule:evenodd;clip-rule:evenodd;" d="M38.127,16.708c0.326-0.432,0.378-1.098,0.526-1.723
		c0.981-4.123,3.056-7.397,5.74-9.9c1.475-1.377,3.387-2.623,5.453-3.492c2.111-0.891,4.559-1.576,7.318-1.436
		c0.297,1.758,0.053,3.725,0.144,5.644c0.092,1.949,0.041,3.969-0.144,5.74c-2.319,0.207-3.983,1.064-5.31,2.393
		c-1.284,1.283-2.273,3.029-2.248,5.451c0.025,2.371,0.986,4.174,2.248,5.453c1.307,1.326,3.054,2.072,5.31,2.346
		c0.265,2.719,0.061,5.797,0.096,8.656c0.012,0.922,0.11,1.861-0.144,2.68c-5.737,0.014-9.638-2.225-12.772-4.975
		c-1.553-1.432-2.836-3.1-3.922-5.023c-1.089-1.928-1.646-4.193-2.248-6.648c-0.459,1.195-0.637,2.381-1.005,3.492
		c-1.093,3.305-2.899,5.967-5.214,8.131c-0.417,0.391-0.719,0.775-1.148,1.102c-1.22,0.926-2.61,1.777-4.209,2.439
		c-2.122,0.877-4.494,1.355-7.318,1.578c-0.257,0.83-0.144,1.789-0.144,2.727c0,2.754,0.078,5.873-0.096,8.514
		c-1.078,0.275-2.054,0.365-2.966,0.766c-2.568,1.131-4.872,3.791-4.592,7.701c0.294,4.109,3.473,6.643,7.558,7.127
		c0.159,3.557,0.159,7.781,0,11.338c-4.28,0.141-7.9-1.311-10.571-3.158c-2.736-1.891-5.006-4.4-6.458-7.414
		c-1.49-3.092-2.499-7.338-1.77-11.623c0.659-3.875,2.294-7.041,4.449-9.424c2.793-3.377,6.792-5.549,11.863-6.648
		c-0.561-0.342-1.221-0.385-1.818-0.527c-4.22-1.002-7.592-3.176-9.997-6.074c-2.168-2.418-3.815-5.494-4.449-9.375
		c-0.7-4.289,0.102-8.478,1.579-11.623c1.403-2.99,3.687-5.506,6.362-7.463c2.794-2.045,6.033-3.244,10.332-3.443
		c2.381-0.111,5.213,0.412,7.032,1.1c1.972,0.744,3.78,1.668,5.166,2.822c0.43,0.357,0.849,0.838,1.292,1.244
		c2.129,1.949,3.872,4.617,4.975,7.605C37.488,14.034,37.667,15.378,38.127,16.708z M13.062,14.603
		c-1.099,1.439-2.039,4.027-1.339,6.697c0.864,3.293,4.02,6.021,8.084,5.693c2.056-0.168,3.744-1.156,4.879-2.393
		c1.181-1.285,2.093-2.924,2.152-5.119c0.07-2.607-1.085-4.434-2.344-5.691c-1.289-1.289-3.307-2.399-5.836-2.201
		C15.978,11.8,14.282,13.007,13.062,14.603z"/>
</g>
<g id="Layer_1">
</g>
</svg>
