<?xml version="1.0" encoding="iso-8859-1"?>
<!-- Generator: Adobe Illustrator 19.2.0, SVG Export Plug-In . SVG Version: 6.00 Build 0)  -->
<svg version="1.1" xmlns="http://www.w3.org/2000/svg" xmlns:xlink="http://www.w3.org/1999/xlink" x="0px" y="0px"
	 viewBox="0 0 185.262 173.793" style="enable-background:new 0 0 185.262 173.793;" xml:space="preserve">
<g id="gertrude_x5F_lempp_x5F_kerbis">
	<path style="fill-rule:evenodd;clip-rule:evenodd;" d="M0.18,173.561C-0.027,115.544,0.027,60.922,0.027,2.599
		c0-0.85-0.122-1.732,0.153-2.559c21.688-0.115,43.318,0.052,65.294,0.052c1.359,0,3.21-0.054,4.656,0
		c1.428,0.053,2.337,0.781,2.201,2.456c-0.277,0.844-0.877,1.361-1.688,1.637c-2.329,0.793-4.585,1.483-6.755,2.354
		c-2.171,0.871-4.298,1.715-6.345,2.712c-1.991,0.97-3.876,2.217-5.833,3.275c-1.94,1.049-3.848,2.226-5.578,3.479
		C32.24,26.07,21.335,39.647,15.02,57.557c-3.174,9.002-5.14,19.291-5.015,31.214c0.122,11.587,2.754,21.511,6.089,30.242
		c3.338,8.738,8.001,16.523,13.356,22.976c2.72,3.277,5.551,6.502,8.75,9.415c1.575,1.435,3.289,2.787,4.963,4.145
		c5.028,4.079,10.576,7.443,16.938,10.286c3.095,1.383,6.381,2.609,9.927,3.684c1.124,0.341,2.292,0.791,2.251,2.252
		c-0.067,2.411-3.02,1.996-5.68,1.996c-10.119-0.001-21.079-0.05-30.856-0.051C23.484,173.713,12.122,173.742,0.18,173.561z
		 M3.097,172.742c5.212,0.001,10.221,0.206,15.096,0c2.864-0.121,5.86-0.092,8.801,0c2.91,0.092,5.848,0.051,8.801,0.051
		c10.695,0,21.492,0,32.391,0c1.474,0,2.933,0.23,3.172-0.87c0.254-1.168-1.057-1.331-2.046-1.638
		c-2.668-0.826-5.271-1.74-7.625-2.712c-9.746-4.022-17.93-9.722-25.022-16.374c-9.477-8.888-16.916-19.871-21.952-33.21
		c-3.744-9.916-6.204-21.948-5.475-35.563c1.159-21.652,8.815-37.301,18.677-50.301c5.473-6.796,11.644-12.827,19.036-17.756
		c1.809-1.206,3.79-2.237,5.731-3.429C57.52,7.97,62.78,5.78,68.595,3.828c1.043-0.35,2.709-0.488,2.814-1.791
		c-0.066-0.791-0.697-1.003-1.535-1.023c-5.54-0.133-11.287,0-17.091,0c-15.933,0-31.345-0.103-46.975-0.103
		c-1.486,0-3.113-0.215-4.35,0c-0.502,0.087-0.54,0.22-0.563,1.023c-0.183,6.568-0.013,14.184,0.051,20.11
		c0.078,7.147,0,14.238,0,21.031c0,42.563-0.043,86.776,0.051,129.411c0,0.051,0.041,0.061,0.051,0.102
		C1.687,172.862,2.427,172.742,3.097,172.742z"/>
	<path style="fill-rule:evenodd;clip-rule:evenodd;" d="M185.009,0.246c0.018,0.067,0.09,0.081,0.103,0.153
		c0.059,21.825,0.104,43.402,0.102,65.038c-0.001,3.533-0.184,7.127-0.052,10.644c0.136,3.577,0.13,7.16,0,10.695
		c-0.124,3.393,0.052,6.914,0.052,10.438c-0.003,25.328,0.044,50.967-0.052,76.245c0.015,0.082-0.048,0.088-0.051,0.153
		c-1.43,0.277-2.894,0.154-4.35,0.154c-10.157-0.001-20.533,0-30.856,0c-8.937-0.001-17.784,0-26.251,0
		c-1.454-0.001-2.929,0.018-4.401-0.051c-2.703-0.128-6.33,0.73-6.294-2.047c0.012-0.946,0.65-1.587,1.279-1.842
		c1.13-0.459,2.353-0.688,3.479-1.075c2.289-0.786,4.429-1.585,6.601-2.507c1.035-0.439,2.122-0.889,3.07-1.433
		c1.962-1.126,3.985-2.049,5.885-3.172c15.882-9.395,27.984-23.546,35.512-41.499c0.456-1.088,0.663-2.256,1.075-3.429
		c1.541-4.391,2.918-9.041,3.838-14.276c0.452-2.574,0.778-5.265,1.023-8.034c1.027-11.605-0.534-23.074-3.224-32.238
		c-0.339-1.156-0.714-2.312-1.126-3.428c-0.423-1.148-0.669-2.324-1.075-3.429c-3.209-8.746-7.846-16.315-13.202-23.027
		c-6.54-8.195-14.781-15.511-24.613-20.673c-1.97-1.034-3.85-2.279-5.834-3.224c-1.926-0.917-4.31-1.746-6.448-2.609
		c-0.928-0.375-2.246-0.839-3.377-1.177c-1.724-0.515-3.596-0.948-2.866-3.122c0.328-0.976,0.899-1.231,2.149-1.381
		c1.378-0.166,2.905,0.028,4.401,0.051c10.397,0.159,20.639-0.1,30.549,0.051C161.862,0.375,173.475,0.002,185.009,0.246z
		 M183.985,1.167c-21.327-0.043-43.936-0.102-64.884-0.102c-1.491,0-3.142-0.211-4.401,0c-0.686,0.116-1.046,0.74-0.921,1.33
		c0.09,0.423,0.491,0.724,1.279,0.973c6.529,2.057,12.189,4.523,17.398,7.675c1.936,1.171,3.879,2.236,5.68,3.429
		c7.307,4.838,13.579,10.778,18.882,17.551c2.679,3.422,5.219,6.976,7.369,10.848c1.65,2.973,3.174,5.947,4.554,9.108
		c0.466,1.07,0.724,2.224,1.177,3.377c1.709,4.356,3.18,9.055,4.094,14.124c0.919,5.098,1.74,10.405,1.739,16.477
		c0,11.962-2.002,22.091-5.219,31.214c-1.599,4.534-3.381,8.728-5.578,12.639c-2.191,3.901-4.596,7.551-7.215,11.002
		c-5.268,6.94-11.58,12.989-18.524,17.91c-5.331,3.777-11.273,7.097-17.705,9.62c-2.167,0.85-4.535,1.385-6.908,2.251
		c-0.467,0.17-0.831,0.449-0.921,1.075c-0.239,1.65,3.816,1.125,5.424,1.125c21.364,0,43.677,0.147,64.833,0
		c0.001-0.102,0.14-0.065,0.103-0.205c0.14-13.968,0.103-28.213,0.103-42.216c-0.002-41.085-0.052-83.256-0.052-124.089
		c0-1.712,0.09-3.41-0.153-5.066C184.073,1.215,184.068,1.152,183.985,1.167z"/>
</g>
<g id="Layer_1">
</g>
</svg>
