<?xml version="1.0" encoding="iso-8859-1"?>
<!-- Generator: Adobe Illustrator 19.2.0, SVG Export Plug-In . SVG Version: 6.00 Build 0)  -->
<svg version="1.1" xmlns="http://www.w3.org/2000/svg" xmlns:xlink="http://www.w3.org/1999/xlink" x="0px" y="0px"
	 viewBox="0 0 85.154 83.52" style="enable-background:new 0 0 85.154 83.52;" xml:space="preserve">
<g id="Gesellschaft_x5F_fur_x5F_Export_x5F_und_x5F_Import">
	<path style="fill-rule:evenodd;clip-rule:evenodd;" d="M41.226,0.037c6.64-0.318,13.015,1.445,17.784,3.348
		c2.545,1.014,4.777,2.197,6.905,3.66c2.092,1.439,4.199,2.892,5.911,4.603c7.005,7.004,12.662,15.514,13.286,28.875
		c0.32,6.869-1.259,12.637-3.296,17.627c-2.061,5.051-5.091,8.967-8.474,12.605c-3.354,3.609-7.494,6.504-12.292,8.789
		c-4.679,2.227-10.738,3.975-17.105,3.975c-3.52,0-6.655-0.258-9.624-0.836c-4.329-0.844-8.32-2.18-11.77-4.08
		c-3.393-1.871-6.474-3.996-9.206-6.592c-3.561-3.379-6.66-7.291-8.944-12.135c-1.095-2.322-2.208-4.881-2.877-7.689
		c-1.004-4.207-1.834-8.992-1.413-14.07c0.396-4.766,1.589-9.021,3.139-12.711c1.063-2.533,2.342-4.799,3.609-6.957
		c0.602-1.027,1.471-2.062,2.302-2.983c2.531-2.801,4.978-5.311,8.212-7.584c2.101-1.477,4.135-2.857,6.591-3.924
		c2.438-1.057,5.042-1.918,7.899-2.666C34.742,0.537,37.815,0.2,41.226,0.037z M42.168,29.278c0-7.246,0.001-14.66,0-21.865
		c0-0.9,0.184-2.185,0.053-3.244c-0.092-0.74-0.32-0.623-0.68-0.627c-10.655-0.096-18.432,3.932-24.48,8.945
		C10.933,17.563,6.13,24.079,4.088,33.147C1.781,43.391,4.519,54.071,8.481,60.61c4.266,7.037,10.014,12.359,17.681,15.953
		c2.249,0.771,4.655,1.83,7.27,2.354c1.292,0.26,2.707,0.588,4.133,0.682c1.404,0.09,2.915,0.451,4.394,0.104
		c0.198-9.607,0.157-19.676,0.157-29.502c0-1.391-0.126-2.793,0.156-4.133c0.908-0.158,2.163-0.135,3.453-0.104
		c1.01,0.024,2.664-0.182,3.399,0.156c0.389,0.18,0.667,0.881,0.89,1.309c1.797,3.457,4.37,5.971,8.683,6.852
		c5.171,1.057,9.051-1.047,11.508-3.504c0.369-0.369,0.85-0.779,0.89-1.361c-0.298-0.359-0.915-0.514-1.518-0.73
		c-0.512-0.186-1.242-0.557-1.726-0.523c-0.525,0.035-1.021,0.773-1.622,1.203c-1.121,0.801-2.428,1.402-3.87,1.621
		c-3.108,0.471-4.784-1.031-6.591-2.145c-0.939-1.014-1.998-1.908-2.354-3.504c0.751-0.279,1.596-0.158,2.407-0.158
		c4.289,0,8.542,0.053,12.658,0.053c1.679,0,3.353,0.225,4.917-0.105c0.626-3.611-0.372-6.83-1.778-9.049
		c-0.475-0.746-1.219-1.644-1.988-2.248c-0.787-0.619-1.597-1.338-2.458-1.779c-1.153-0.59-2.929-1.149-4.342-1.412
		c-0.736-0.137-1.858-0.1-2.72,0c-0.801,0.092-1.67,0.146-2.459,0.314c-1.95,0.412-4.108,1.906-5.283,3.19
		c-1.224,1.338-2.549,3.498-3.034,5.441c-0.204,0.816-0.168,1.795-0.471,2.562c-4.08,0.102-8.797-0.16-12.867,0.104
		c-0.606,1.014-0.666,2.18-1.099,3.191c-0.4,0.938-1.009,1.887-1.621,2.668c-1.26,1.605-2.768,2.996-4.708,3.871
		c-1.983,0.895-4.611,1.551-7.27,1.203c-2.464-0.322-4.499-1.315-6.12-2.512c-2.609-2.324-4.63-5.037-4.917-9.414
		c-0.297-4.512,1.593-7.746,4.132-10.096c1.26-1.166,2.82-1.865,4.604-2.565c1.911-0.748,3.91-0.891,6.172-0.471
		c3.038,0.565,5.286,1.94,7.061,3.715c0.594,0.594,1.283,1.236,1.518,2.092c-0.555,0.348-1.116,0.627-1.779,0.994
		c-0.364,0.201-1.48,0.953-1.935,0.889c-0.399-0.055-0.898-1.027-1.203-1.307c-1.33-1.221-2.857-2.17-5.179-2.354
		c-1.783-0.143-3.031,0.105-4.289,0.627c-3.797,1.572-6.309,6.521-4.133,11.508c1.092,2.502,3.951,4.871,7.272,4.916
		c3.512,0.051,6.029-1.646,7.532-3.713c0.646-0.891,1.356-2.088,1.255-3.4c-0.797-0.277-1.737-0.156-2.668-0.156
		c-1.879,0-3.821,0-5.648,0c-0.948,0-1.906,0.117-2.721-0.158c-0.152-1.055-0.221-2.895,0.053-3.869
		c5.227-0.076,11.137-0.119,16.32-0.053c1.892,0.023,3.742,0.191,5.388-0.053C42.279,35.252,42.169,32.239,42.168,29.278z"/>
	<path style="fill-rule:evenodd;clip-rule:evenodd;" d="M69.003,41.204c-1.27,0.269-2.757,0.16-4.133,0.156
		c-2.909-0.008-5.899-0.104-8.893-0.104c-0.955,0-1.935,0.123-2.825-0.158c0.243-1.342,0.484-2.531,1.099-3.557
		c1.038-1.729,4.022-3.174,6.382-3.348c2.934-0.217,6.179,1.779,7.428,3.504c0.194,0.268,0.342,0.725,0.575,1.152
		C69.005,39.524,69.56,40.217,69.003,41.204z"/>
</g>
<g id="Layer_1">
</g>
</svg>
