<?xml version="1.0" encoding="iso-8859-1"?>
<!-- Generator: Adobe Illustrator 19.2.0, SVG Export Plug-In . SVG Version: 6.00 Build 0)  -->
<svg version="1.1" xmlns="http://www.w3.org/2000/svg" xmlns:xlink="http://www.w3.org/1999/xlink" x="0px" y="0px"
	 viewBox="0 0 75.141 78.24" style="enable-background:new 0 0 75.141 78.24;" xml:space="preserve">
<g id="Getrankekombinat_x5F_Potsdam">
	<path style="fill-rule:evenodd;clip-rule:evenodd;" d="M48.45,0.251c0.489,6.045,1.034,12.295,1.217,18.484
		c-0.947,0.23-1.989,0.184-3.017,0.146c-2.818-0.106-6.12,0.117-9.242-0.049c-0.513-1.953-0.341-4.59-0.778-6.615
		c-0.763-0.256-1.623-0.146-2.433-0.146c-5.447,0-11.844-0.119-17.463-0.049c-0.039,0.01-0.049,0.049-0.098,0.049
		c-0.51,4.365-0.784,8.795-1.07,13.23c-0.285,4.424-0.721,8.853-1.021,13.281c-0.604,8.879-1.418,17.746-1.897,26.561
		c0.009,0.039,0.048,0.047,0.048,0.096c4.54,0.225,9.222,0.146,13.815,0.146c4.597,0,9.217,0.238,13.669-0.049
		c0.101-2.649-0.203-5.295-0.389-7.977c-0.375-5.418-0.624-10.773-1.021-16.006c-0.103-1.348-0.108-2.689-0.243-4.037
		c-0.131-1.299-0.005-2.643-0.39-3.891c-6.675-0.32-13.746,0.01-20.382-0.293c-0.19-1.885,0.282-3.848,0.389-5.789
		c0.107-1.945,0.096-3.953,0.486-5.787c11.887-0.113,24.162,0.049,36.192,0.049c2.47-0.002,4.716,0.008,6.664,0.582
		c3.734,1.102,6.679,2.977,8.951,5.596c2.191,2.619,3.9,5.846,4.523,10.02c0.673,4.506-0.642,8.898-2.384,11.869
		c-0.904,1.543-1.955,3.023-3.162,4.135c-2.476,2.285-5.637,4.102-9.777,4.768c-2.079,0.336-4.33,0.248-6.858,0.389
		c0.147,6.373,0.936,12.781,1.07,19.166c-13.344,0.273-27.065-0.047-40.376-0.049c-4.517,0-9.018,0.113-13.475-0.145
		c0.064-3.143,0.357-6.496,0.584-9.777c0.67-9.715,1.369-19.348,2.092-29.285c0.7-9.629,1.418-19.418,2.092-29.283
		c0.178-2.615,0.29-5.715,0.584-8.611c0.082-0.808,0.1-0.855,0.681-0.924c0.783-0.092,1.716,0.019,2.578,0
		c6.217-0.148,12.475,0.049,18.68,0.049c3.561,0,7.14,0.047,10.653,0.049C41.488,0.153,44.991,0.046,48.45,0.251z M63.385,40.528
		c0.18-2.965-1.478-5.053-3.356-6.227c-1.019-0.637-2.197-0.973-3.843-0.973c-1.544,0-3.569-0.039-5.011,0.049
		c-0.281,0.478-0.088,1.086-0.049,1.605c0.222,2.92,0.324,5.816,0.535,8.707c0.085,1.164,0.043,2.334,0.39,3.357
		C58.344,47.876,63.065,45.782,63.385,40.528z"/>
</g>
<g id="Layer_1">
</g>
</svg>
