<?xml version="1.0" encoding="iso-8859-1"?>
<!-- Generator: Adobe Illustrator 19.2.0, SVG Export Plug-In . SVG Version: 6.00 Build 0)  -->
<svg version="1.1" xmlns="http://www.w3.org/2000/svg" xmlns:xlink="http://www.w3.org/1999/xlink" x="0px" y="0px"
	 viewBox="0 0 75.207 75.869" style="enable-background:new 0 0 75.207 75.869;" xml:space="preserve">
<g id="gifts_x5F_on_x5F_the_x5F_green">
	<path style="fill-rule:evenodd;clip-rule:evenodd;" d="M75.033,0.279C75.3,1.81,75.18,3.377,75.18,4.94
		c0.002,10.736-0.002,22.014,0,32.974c0.003,12.51,0.087,25.375-0.098,37.733c-0.044,0.022-0.089,0.043-0.099,0.098
		c-9.395,0.239-18.943-0.145-28.361,0.049c-6.271,0.129-12.455,0.049-18.695,0.049c-9.033,0-18.35-0.028-27.724-0.246
		c-0.022-0.044-0.043-0.088-0.099-0.098c-0.181-5.884-0.08-12.434-0.049-18.597c0.079-15.569,0.002-31.536,0-47.499
		c0-2.602-0.115-5.647,0-8.44c0.039-0.934,0.101-0.857,0.639-0.932C1.389-0.064,2.24,0.083,3.05,0.083
		c5.409,0,11.096,0.098,16.241,0.098c9.39,0,18.604,0,27.92,0c1.575,0,3.191,0.066,4.76,0c1.528-0.065,3.063-0.12,4.563-0.049
		C62.691,0.422,68.884-0.18,75.033,0.279z M36.808,41.054c1.115,1.506,2.349,2.907,3.484,4.417c1.916,2.545,3.697,5.415,6.379,7.115
		c1.188,0.753,2.646,1.24,4.416,1.227c0.988-0.007,2.281-0.098,3.582-0.098c1.258,0,2.549,0.088,3.681,0
		c1.415-0.11,2.679-0.775,3.336-1.521c0.891-1.01,0.706-2.441,0.785-4.318c0.034-0.813,0.099-1.645,0.099-2.454
		c-0.001-5.566-0.099-10.49-0.099-16.144c0.001-2.497,0.463-5.693-0.393-7.311c-0.99-1.873-2.917-2.11-5.79-2.11
		c-1.509,0-3.025-0.095-4.317,0c-1.453,0.107-3.059,0.084-4.221,0.491c-0.73,0.255-1.476,0.889-1.913,1.423
		c-0.834,1.016-1.527,2.337-2.307,3.386c-0.224,0.302-0.482,0.851-0.982,0.834c0.025-1.925,0.684-3.894,0.736-5.79
		c-0.863-0.455-2.169-0.209-3.337-0.196c-0.828,0.01-1.806-0.254-2.356,0.246c0.313,3.875,0.688,8.074,1.08,11.973
		c0.059,0.588,0.418,1.399,0.098,1.963c-0.55-0.15-0.877-0.724-1.178-1.129c-2.311-3.123-4.603-6.178-7.017-9.127
		c-1.433-1.527-2.938-3.057-5.544-3.68c-1.249-0.298-2.678-0.246-4.27-0.246c-3.1,0-6.334-0.356-7.802,1.276
		c-1.001,1.112-0.923,2.707-0.981,4.809c-0.088,3.168-0.01,6.75,0,9.765c0.013,3.632-0.049,7.427-0.049,11.09
		c0,1.377-0.08,3.083,0.195,4.072c0.652,2.33,2.5,2.699,5.496,2.699c1.354,0,2.719,0.049,4.122,0.049
		c2.989,0,5.296-0.236,6.673-1.668c0.319-0.332,0.511-0.779,0.786-1.178c0.546-0.792,1.155-1.53,1.717-2.257
		c0.282-0.366,0.381-0.894,0.982-1.031c0.008,1.942-0.87,3.934-0.688,5.889c0.669,0.444,1.741,0.202,2.699,0.245
		c1.002,0.045,2.035,0.084,2.797-0.196c0.084-2.214-0.28-4.563-0.49-6.87c-0.159-1.738-0.339-3.461-0.491-5.152
		c-0.048-0.53-0.297-1.122,0-1.619C36.307,40.085,36.429,40.697,36.808,41.054z"/>
	<path style="fill-rule:evenodd;clip-rule:evenodd;" d="M39.41,34.97c1.073-0.363,2.194,0.093,3.287,0.196
		c3.276,0.31,6.744,0.865,10.206,0.933c0.41-0.679,0.246-1.85,0.246-2.895c0-0.994,0.142-2.127-0.246-2.748
		c-1.29-0.09-2.746,0.083-4.171,0.196c-1.005,0.08-2.054,0.477-2.943,0.147c0.02-0.76,0.657-1.396,1.128-2.061
		c0.871-1.231,1.788-2.542,2.699-3.778c0.972-1.32,1.852-3.018,3.827-3.239c1.901-0.212,2.941,0.898,3.092,2.601
		c0.174,1.983-0.001,4.115,0,6.232c0,5.063,0.014,10.563,0.098,15.408c0.017,0.985,0.072,1.991,0,2.895
		c-0.166,2.064-2.016,3.422-4.171,2.453c-1.397-0.628-2.71-2.35-3.729-3.631c-2.194-2.758-4.271-5.659-6.329-8.391
		c-0.522-0.693-1.049-1.408-1.57-2.11C40.32,36.489,39.637,35.856,39.41,34.97z"/>
	<path style="fill-rule:evenodd;clip-rule:evenodd;" d="M35.091,39.043c-0.523,0.318-1.163,0.089-1.718,0
		c-1.649-0.265-3.471-0.357-5.25-0.638c-1.155-0.182-2.356-0.294-3.533-0.442c-1.144-0.143-2.363-0.445-3.435-0.098
		c-0.112,1.074-0.049,2.658-0.049,4.122c0,0.377-0.064,1.064,0.146,1.275c0.355,0.355,1.265,0.01,1.718-0.049
		c0.81-0.106,1.846-0.114,2.847-0.196c0.968-0.079,1.97-0.315,2.698-0.049c-0.184,0.909-0.882,1.621-1.423,2.355
		c-0.548,0.744-1.041,1.557-1.619,2.257c-1.528,1.823-2.814,4.57-5.496,4.465c-1.069-0.042-2.018-0.856-2.307-1.865
		c-0.185-0.646-0.147-1.907-0.147-2.699c0-1.758,0.049-3.616,0.049-5.545c0-1.804,0.136-3.687,0.049-5.544
		c-0.086-1.85-0.106-3.797-0.049-5.643c0.06-1.917-0.072-3.822,0.049-5.643c0.139-2.066,1.293-3.617,3.631-2.846
		c1.638,0.54,3.013,2.295,4.073,3.631c2.302,2.9,4.447,5.843,6.624,8.734c0.831,1.104,1.649,2.15,2.503,3.238
		C34.719,38.204,35.091,38.571,35.091,39.043z"/>
</g>
<g id="Layer_1">
</g>
</svg>
