<?xml version="1.0" encoding="iso-8859-1"?>
<!-- Generator: Adobe Illustrator 19.2.0, SVG Export Plug-In . SVG Version: 6.00 Build 0)  -->
<svg version="1.1" xmlns="http://www.w3.org/2000/svg" xmlns:xlink="http://www.w3.org/1999/xlink" x="0px" y="0px"
	 viewBox="0 0 74.028 74.349" style="enable-background:new 0 0 74.028 74.349;" xml:space="preserve">
<g id="Gilbey_x5F_Vintners">
	<path style="fill-rule:evenodd;clip-rule:evenodd;" d="M35.765,0.038c5.985-0.285,11.493,1.066,15.706,2.864
		c8.697,3.712,14.76,9.998,18.94,18.155c1.003,1.955,1.848,4.407,2.448,6.837c0.635,2.567,1.087,5.258,1.155,8.084
		c0.147,6.145-1.008,11.209-2.864,15.614c-3.146,7.468-8.37,13.39-15.014,17.415c-4.722,2.862-10.688,5.029-17.831,5.312
		c-6.01,0.239-11.386-1.034-15.707-2.863c-4.412-1.868-7.987-4.338-11.087-7.438c-3.171-3.172-5.686-6.441-7.807-10.764
		c-2.022-4.121-3.575-9.061-3.696-14.829c-0.125-6.011,0.98-11.306,2.818-15.66c1.86-4.408,4.258-7.966,7.346-11.18
		c2.983-3.106,6.404-5.862,10.624-7.899c2.007-0.968,4.305-1.888,6.791-2.494C30.138,0.571,32.815,0.179,35.765,0.038z M3.752,32.93
		c-0.654,4.609-0.118,9.306,0.971,13.166c1.64,5.818,4.443,10.327,7.945,14.136c1.16,1.263,2.482,2.356,3.742,3.604
		c0.551,0.546,1.387,1.04,2.125,1.524c5.016,3.29,11.929,6.01,20.141,5.45c4.756-0.323,8.301-1.201,11.918-2.817
		c6.661-2.976,11.752-7.867,15.43-13.997c1.799-2.998,3.18-6.755,3.974-10.718c0.847-4.231,0.724-9.065-0.231-13.304
		c-1.796-7.971-5.685-13.775-10.995-18.433c-2.572-2.256-5.567-4.142-9.1-5.59C45.258,4.143,39.344,2.98,33.317,3.687
		C24.532,4.719,18.48,8.373,13.453,13.25C8.474,18.28,4.966,24.378,3.752,32.93z"/>
	<path style="fill-rule:evenodd;clip-rule:evenodd;" d="M59.741,13.158c4.946,4.911,8.646,10.766,9.932,19.032
		c0.707,4.54,0.297,9.22-0.647,13.12c-0.933,3.852-2.637,7.095-4.434,10.024c-1.727,2.813-4.163,5.472-6.884,7.623
		c-5.506,4.353-11.876,7.389-21.572,7.391c-2.284,0.001-4.537-0.31-6.468-0.785c-3.841-0.945-7.255-2.374-10.209-4.25
		c-4.287-2.722-8.019-6.631-10.672-11.041c-1.759-2.924-3.297-6.584-4.111-10.394c-0.865-4.046-0.856-8.773-0.046-13.12
		c1.464-7.852,5.493-14.018,10.532-18.432C20.2,7.913,26.705,4.439,35.765,4.011c5.405-0.256,10.303,0.927,14.044,2.541
		C53.712,8.236,56.93,10.463,59.741,13.158z M32.116,7.937c-7.313,1.277-12.782,4.71-16.769,9.101
		c-2.428,2.674-4.18,5.501-5.683,9.101c-1.476,3.535-2.329,7.716-2.125,12.565c0.192,4.583,1.447,8.409,3.095,11.688
		c1.231,2.447,2.794,4.653,4.482,6.606c2.865,3.315,6.364,5.922,10.764,7.714c3.543,1.443,7.781,2.306,12.611,2.125
		c4.385-0.164,8.419-1.417,11.688-3.095c3.303-1.696,6.052-3.822,8.407-6.375c2.342-2.538,4.322-5.511,5.774-9.008
		c1.448-3.486,2.385-7.71,2.125-12.566c-0.244-4.583-1.377-8.409-3.049-11.733c-2.136-4.248-4.726-7.439-8.269-10.21
		c-0.699-0.546-1.338-1.137-2.079-1.616c-4.279-2.773-10.408-5.16-17.555-4.666C34.41,7.646,33.226,7.744,32.116,7.937z"/>
	<path style="fill-rule:evenodd;clip-rule:evenodd;" d="M38.352,33.068c-0.931,0.179-2.366,0.097-3.372,0.046
		c-0.466-0.438-0.687-1.099-1.017-1.663c-0.327-0.56-0.65-1.106-1.108-1.524c-0.733-1.023-1.789-1.722-2.818-2.448
		c-1.982-1.289-4.744-1.859-7.529-1.432c-2.463,0.378-4.68,1.637-6.053,3.141c-1.465,1.607-2.684,3.625-3.049,6.19
		c-0.809,5.701,2.461,10.008,6.283,11.872c2.121,1.035,5.081,1.281,7.715,0.555c2.341-0.646,4.212-1.947,5.59-3.649
		c1.346-1.664,2.49-3.818,2.494-6.606c-0.837-0.248-1.788-0.139-2.726-0.139c-2.777,0.001-5.762,0.132-8.315-0.138
		c-0.151-0.98-0.151-2.577,0-3.558c4.441-0.17,9.79-0.112,14.09-0.046c0.573,1.581,0.647,3.571,0.462,5.22
		c-0.181,1.614-0.724,3.255-1.293,4.434c-1.229,2.547-3.184,4.683-5.358,6.099c-2.324,1.511-5.532,2.532-9.147,2.264
		c-3.507-0.262-6.03-1.553-8.13-3.326c-2.064-1.831-3.686-4.015-4.62-6.884c-1.018-3.126-0.796-6.835,0.323-9.747
		c1.092-2.837,2.785-4.801,4.989-6.468c1.706-1.289,3.46-2.199,5.96-2.633c5.603-0.971,10.473,1.313,13.211,4.25
		c0.752,0.806,1.491,1.775,2.079,2.771C37.606,30.654,38.223,31.787,38.352,33.068z"/>
	<path style="fill-rule:evenodd;clip-rule:evenodd;" d="M56.461,23.09c0.001,0.792-0.288,1.566-0.508,2.31
		c-0.647,2.199-1.316,4.524-1.756,6.93c-0.158,0.87-0.5,1.766-0.739,2.633c-0.245,0.894-0.502,1.768-0.738,2.634
		c-0.486,1.782-0.874,3.54-1.524,5.174c-0.342-0.3-0.457-0.811-0.602-1.247C50.29,40.602,50,39.745,49.671,38.75
		c-0.146-0.439-0.404-1.009-0.416-1.386c-0.015-0.458,0.286-1.243,0.462-1.848c1.043-3.599,2.062-7.274,3.003-10.856
		c0.146-0.559,0.164-1.234,0.601-1.664C54.357,22.935,55.489,22.907,56.461,23.09z"/>
	<path style="fill-rule:evenodd;clip-rule:evenodd;" d="M60.296,23.09c-0.022,1.139-0.489,2.198-0.786,3.28
		c-1.478,5.399-2.851,11.007-4.388,16.399c-0.312,1.09-0.655,2.215-0.832,3.326c-0.176,1.108-0.441,2.223-0.924,3.233
		c-0.367-0.291-0.406-0.813-0.555-1.247c-0.288-0.845-0.561-1.688-0.878-2.634c-0.149-0.446-0.399-0.931-0.415-1.339
		c-0.028-0.727,0.461-1.836,0.692-2.68c0.961-3.495,1.867-7.09,2.772-10.625c0.226-0.882,0.489-1.756,0.738-2.587
		c0.542-1.804,0.842-3.593,1.524-5.174C58.208,23.016,59.459,22.821,60.296,23.09z"/>
	<path style="fill-rule:evenodd;clip-rule:evenodd;" d="M40.015,23.044c0.515,1.068,0.93,2.22,1.247,3.372
		c0.957,3.475,2.257,6.925,3.372,10.394c1.118,3.476,2.257,6.934,3.419,10.394c0.383,1.141,0.834,2.267,1.016,3.465
		c-0.336,0.317-1.01,0.185-1.616,0.185c-0.609,0-1.274,0.031-1.756-0.046c-0.935-2.226-1.583-4.594-2.355-6.93
		c-2.194-6.63-4.48-13.288-6.56-20.003c-0.07-0.226-0.261-0.641,0.046-0.831C37.842,22.985,38.953,22.963,40.015,23.044z"/>
	<path style="fill-rule:evenodd;clip-rule:evenodd;" d="M43.849,23.044c0.603,1.059,0.849,2.272,1.201,3.418
		c0.358,1.164,0.762,2.318,1.155,3.465c1.961,5.719,3.878,11.531,5.774,17.323c0.371,1.133,0.842,2.265,1.017,3.465
		c-0.938,0.185-2.041,0.155-3.096,0.093c-0.565-1.059-0.856-2.245-1.247-3.372c-2.361-6.815-4.577-13.966-6.837-20.881
		c-0.193-0.592-0.334-1.209-0.509-1.802c-0.159-0.54-0.582-1.099-0.369-1.709C41.75,23.023,42.925,22.941,43.849,23.044z"/>
	<path style="fill-rule:evenodd;clip-rule:evenodd;" d="M34.102,33.068c-0.557,0.131-1.249,0.154-1.895,0.139
		c-0.638-0.016-1.328,0.09-1.801-0.093c-0.597-0.23-0.71-0.922-1.155-1.247c-0.827-0.615-1.435-1.12-2.31-1.479
		c-3.964-1.624-7.995,0.892-9.239,3.927c-0.727,1.772-0.621,4.222,0.139,5.82c0.999,2.103,3.023,3.858,5.727,4.066
		c2.845,0.22,5.105-0.925,6.237-2.633c-0.337-0.238-0.854-0.139-1.294-0.139c-1.24,0-2.845-0.018-4.065-0.139
		c-0.151-0.889-0.151-2.391,0-3.28c3.2-0.16,7.073-0.15,10.44,0c0.136,1.335-0.385,2.547-0.878,3.604
		c-1.559,3.346-4.987,6.234-9.839,6.098c-3.483-0.098-5.862-1.55-7.808-3.511c-1.387-2.116-2.61-4.058-2.587-7.16
		c0.017-2.162,0.732-4.135,1.663-5.636c0.834-1.345,1.664-2.352,3.003-3.233c1.446-0.954,3.381-1.639,5.22-1.756
		c3.725-0.238,6.692,1.439,8.546,3.465C33.004,30.749,33.814,31.842,34.102,33.068z"/>
</g>
<g id="Layer_1">
</g>
</svg>
