<?xml version="1.0" encoding="iso-8859-1"?>
<!-- Generator: Adobe Illustrator 19.2.0, SVG Export Plug-In . SVG Version: 6.00 Build 0)  -->
<svg version="1.1" xmlns="http://www.w3.org/2000/svg" xmlns:xlink="http://www.w3.org/1999/xlink" x="0px" y="0px"
	 viewBox="0 0 77.556 78.027" style="enable-background:new 0 0 77.556 78.027;" xml:space="preserve">
<g id="Gillette_x5F_DE">
	<path style="fill-rule:evenodd;clip-rule:evenodd;" d="M37.388,0.039c6.383-0.304,11.798,1.22,16.429,3.046
		c4.624,1.823,8.5,4.62,11.685,7.74c3.381,3.314,6.002,6.811,8.189,11.235c2.13,4.307,3.658,9.622,3.845,15.58
		c0.204,6.474-1.102,11.815-2.996,16.429c-1.885,4.591-4.56,8.47-7.64,11.785c-3.109,3.346-6.804,6.092-11.135,8.289
		c-4.377,2.221-9.633,3.564-15.58,3.845c-6.345,0.3-11.796-1.114-16.429-2.946c-4.641-1.835-8.49-4.623-11.734-7.69
		c-1.716-1.623-3.173-3.34-4.544-5.193c-0.676-0.914-1.237-1.97-1.848-2.996c-2.971-4.994-5.252-11.172-5.592-18.676
		c-0.29-6.389,1.191-12.083,2.946-16.478c0.94-2.353,2.254-4.464,3.396-6.342c0.327-0.539,0.558-1.062,0.898-1.548
		c3.643-5.196,8.539-9.069,14.481-12.184c2.079-1.089,4.451-1.952,7.041-2.696C31.387,0.493,34.372,0.182,37.388,0.039z
		 M69.995,23.258c-2.505-4.983-5.923-9.023-10.186-12.234c-2.773-2.087-5.928-3.983-9.688-5.243
		c-3.692-1.237-7.994-2.241-12.983-1.947C29.42,4.287,23.65,6.767,18.662,10.225c-4.927,3.415-8.674,7.924-11.385,13.332
		c-0.353,0.703-0.543,1.436-0.849,2.197c-2.009,4.987-3.22,11.865-2.147,18.676c1.104,7.015,3.884,12.619,7.59,17.127
		c5.574,6.779,13.375,11.504,24.468,12.534c6.045,0.561,11.576-0.792,15.78-2.547c4.345-1.813,8.133-4.438,11.135-7.44
		c3.086-3.086,5.666-6.787,7.49-11.035c0.614-1.431,1.294-2.919,1.498-4.594c-1.307-0.271-2.689-0.15-4.045-0.15
		c-9.143-0.001-18.386-0.049-27.414-0.05c-0.654,0-1.343,0.081-1.947-0.2c-0.18-1.047-0.155-2.705,0.05-3.695
		c11.371-0.11,23.121,0.114,34.255-0.05c0.363-0.894,0.544-2.474,0.35-3.595c-1.36-0.262-2.787-0.15-4.195-0.15
		c-8.768,0-17.616-0.051-26.266-0.05c-1.406,0-2.825,0.106-4.145-0.15c-0.27-0.464-0.128-1.181-0.1-1.848
		c0.029-0.703-0.13-1.423,0.149-1.897c11.194-0.049,21.542,0,32.457,0c0.688,0,1.444,0.118,2.098-0.15
		c0.072-1.221-0.074-2.655-0.45-3.595c-11.125-0.254-23.057,0.099-34.105-0.25c-0.211-1.019-0.225-2.718-0.05-3.795
		c9.403-0.138,19.756-0.05,29.162-0.05c1.42,0,2.792,0.167,3.995-0.15C71.649,26.692,70.826,24.911,69.995,23.258z"/>
</g>
<g id="Layer_1">
</g>
</svg>
