<?xml version="1.0" encoding="iso-8859-1"?>
<!-- Generator: Adobe Illustrator 19.2.0, SVG Export Plug-In . SVG Version: 6.00 Build 0)  -->
<svg version="1.1" xmlns="http://www.w3.org/2000/svg" xmlns:xlink="http://www.w3.org/1999/xlink" x="0px" y="0px"
	 viewBox="0 0 74.984 76.237" style="enable-background:new 0 0 74.984 76.237;" xml:space="preserve">
<g id="Giro_x5F_4">
	<path style="fill-rule:evenodd;clip-rule:evenodd;" d="M56.252,55.174c-1.312-0.265-2.677-0.146-4.049-0.146
		c-6.829,0-13.85-0.049-20.783-0.049c-1.391,0-2.787,0.038-4.147,0c-1.323-0.037-2.638,0.106-3.903-0.147
		c-0.153-4.314-0.123-9.331-0.049-13.855c1.704-1.269,3.641-2.188,5.464-3.269c1.832-1.085,3.681-2.13,5.513-3.22
		c1.837-1.093,3.752-2.05,5.61-3.122c1.819-1.05,3.555-2.255,5.367-3.318c3.57-2.093,7.169-4.396,10.977-6.488
		c3.219-1.769,6.326-3.738,9.611-5.66c0.421-0.246,1.133-0.748,1.415-0.732c0.389,0.021,0.791,0.706,1.024,1.073
		c1.358,2.136,2.631,4.148,3.708,6.635c0.324,0.75,1.186,2.21,1.024,2.976c-0.104,0.498-0.98,0.836-1.561,1.171
		c-3.992,2.298-7.808,4.732-11.855,7.025c-3.447,1.953-6.842,3.928-10.245,5.952c-0.55,0.327-1.105,0.711-1.659,1.024
		c-0.549,0.311-1.214,0.57-1.513,1.171c0.542,0.264,1.206,0.195,1.805,0.195c5.855,0,11.845-0.032,17.71,0
		c1.288,0.007,2.553-0.034,3.756,0.098c2.221,0.242,3.865,1.536,4.732,3.171c0.948,1.787,0.629,4.6,0.732,7.172
		c0.104,2.602,0,5.041,0,7.513c0,5.35,0.101,10.344-0.049,15.563c-0.043,0.021-0.087,0.043-0.098,0.098
		c-2.066,0.089-4.216,0.049-6.342,0.049c-2.096,0-4.196,0.1-6.099-0.146c-0.421-2.547,0.113-6.053-0.244-8.538
		c-0.452-0.095-0.736,0.352-1.024,0.585c-3.359,2.72-7.419,5.022-12.1,6.489c-1.736,0.544-3.486,1.041-5.415,1.317
		c-4.141,0.593-8.609,0.669-12.441,0c-3.819-0.668-7.042-1.858-10.147-3.318c-4.456-2.096-8.33-5.153-11.465-8.782
		c-1.07-1.238-2.089-2.399-2.927-3.805c-1.67-2.804-3.358-5.657-4.488-9.026c-0.55-1.637-1.038-3.469-1.415-5.318
		c-0.91-4.457-0.931-10.129,0.049-14.636c1.152-5.305,2.949-9.428,5.415-13.368c1.213-1.936,2.394-3.849,4.001-5.366
		c3.794-4.028,8.263-7.347,13.904-9.611c1.115-0.447,2.33-0.909,3.513-1.171c1.232-0.272,2.506-0.672,3.806-0.878
		c1.388-0.22,2.946-0.369,4.439-0.439c10.273-0.485,17.886,3.087,23.857,7.318c1.492,1.058,2.818,2.238,4.196,3.562
		c0.39,0.375,1.155,1.05,1.122,1.463c-0.032,0.402-0.85,0.794-1.171,0.976c-1.448,0.819-2.719,1.535-4.098,2.342
		c-1.263,0.845-2.622,1.527-4.049,2.39c-0.406,0.246-0.975,0.736-1.415,0.732c-0.41-0.003-0.95-0.633-1.414-0.976
		c-3.192-2.354-6.86-4.339-11.66-5.074c-6.03-0.923-11.932,0.687-15.758,2.83c-3.904,2.187-7.347,5.528-9.66,9.416
		c-1.158,1.946-2.083,4.216-2.781,6.781c-0.678,2.493-1.096,5.491-0.78,8.635c0.565,5.634,2.543,10.018,5.367,13.758
		c3.395,4.499,8.243,7.677,14.733,9.123c4.053,0.902,8.602,0.656,12.539-0.488c1.149-0.334,2.318-0.849,3.415-1.366
		c2.16-1.019,4.103-2.269,5.757-3.806C54.803,56.924,55.763,56.222,56.252,55.174z"/>
</g>
<g id="Layer_1">
</g>
</svg>
