<?xml version="1.0" encoding="iso-8859-1"?>
<!-- Generator: Adobe Illustrator 19.2.0, SVG Export Plug-In . SVG Version: 6.00 Build 0)  -->
<svg version="1.1" xmlns="http://www.w3.org/2000/svg" xmlns:xlink="http://www.w3.org/1999/xlink" x="0px" y="0px"
	 viewBox="0 0 98.348 111.279" style="enable-background:new 0 0 98.348 111.279;" xml:space="preserve">
<g id="Packpacka">
	<path style="fill-rule:evenodd;clip-rule:evenodd;" d="M27.719,40.89c-8.983-4.407-17.052-9.729-25.782-14.39
		C16.96,17.58,32.496,8.534,47.625,0.12c0.215,5.927,0.12,14.904,0.12,21.944c0,2.077,0.512,5.689,0,7.195
		c-0.333,0.978-3.598,2.428-4.797,3.118C37.678,35.41,32.951,38.105,27.719,40.89z"/>
	<path style="fill-rule:evenodd;clip-rule:evenodd;" d="M96.549,26.381c-8.146,5.084-16.345,10.116-24.941,14.75
		c-5.389-2.694-10.207-5.57-15.589-8.754c-1.361-0.805-4.572-1.955-5.037-2.998c-0.525-1.179,0-5.043,0-7.194
		c0.001-7.257,0.003-15.802,0-22.184C66.473,8.492,81.539,17.409,96.549,26.381z"/>
	<path style="fill-rule:evenodd;clip-rule:evenodd;" d="M0.259,29.139c8.505,4.885,17.115,9.666,25.662,14.51
		c0.031,8.761-0.107,14.534-0.12,23.383c-8.512,4.958-17.299,10.281-25.781,14.87c0.083-8.671-0.16-18,0.12-26.621
		c0.3-9.26-0.337-17.854,0-25.661C0.141,29.574,0.36,29.323,0.259,29.139z"/>
	<path style="fill-rule:evenodd;clip-rule:evenodd;" d="M98.107,29.259c0.08,0,0.16,0,0.24,0
		c-0.216,13.488-0.047,38.004-0.24,52.881c-8.554-4.796-16.787-9.912-25.301-14.749c0-7.754,0-15.509,0-23.263
		C81.247,39.179,89.711,34.252,98.107,29.259z"/>
	<path style="fill-rule:evenodd;clip-rule:evenodd;" d="M68.01,42.689c-4.299,2.879-9.078,5.405-13.91,8.154
		c-1.094,0.622-3.468,2.571-4.677,2.638c-1.168,0.065-3.794-1.878-4.917-2.518c-4.718-2.688-9.646-5.413-14.03-8.274
		c6.216-3.316,12.474-7.021,18.347-10.312c0.079-0.044,0.266-0.339,0.479-0.24C55.545,35.026,61.578,39.607,68.01,42.689z"/>
	<path style="fill-rule:evenodd;clip-rule:evenodd;" d="M28.798,45.087c6.427,3.525,12.605,7.3,18.826,11.032
		c-0.013,7.903-0.059,14.966-0.12,21.344c-6.375-3.417-12.659-6.927-18.707-10.672C28.772,59.589,28.811,52.521,28.798,45.087z"/>
	<path style="fill-rule:evenodd;clip-rule:evenodd;" d="M69.689,45.327c0.384,6.475,0.078,14.379,0,21.584
		c-6.255,3.578-12.596,7.708-18.946,10.792c0.007-5.539,0.12-10.292,0.12-16.668c0-1.403-0.388-3.9,0-4.916
		c0.262-0.686,3.35-2.113,4.557-2.758C60.296,50.755,65.462,47.769,69.689,45.327z"/>
	<path style="fill-rule:evenodd;clip-rule:evenodd;" d="M27.12,69.91c6.905,3.807,13.663,7.761,20.385,11.751
		c0.277,9.117,0.042,19.782,0.12,29.499c-15.219-8.324-30.504-17.621-45.807-26.262C9.999,79.649,18.695,74.915,27.12,69.91z"/>
	<path style="fill-rule:evenodd;clip-rule:evenodd;" d="M96.31,84.779c-14.771,9.212-30.125,17.84-45.447,26.5
		c0-9.872,0-19.745,0-29.618c6.56-3.565,13.21-7.896,19.666-11.271c0.093-0.049,0.249-0.328,0.479-0.24
		c2.179,0.831,4.386,2.315,6.475,3.598C83.611,77.508,90.196,81.066,96.31,84.779z"/>
</g>
<g id="Layer_1">
</g>
</svg>
