<?xml version="1.0" encoding="iso-8859-1"?>
<!-- Generator: Adobe Illustrator 19.2.0, SVG Export Plug-In . SVG Version: 6.00 Build 0)  -->
<svg version="1.1" xmlns="http://www.w3.org/2000/svg" xmlns:xlink="http://www.w3.org/1999/xlink" x="0px" y="0px"
	 viewBox="0 0 92.972 92.157" style="enable-background:new 0 0 92.972 92.157;" xml:space="preserve">
<g id="Golf_x5F_La_x5F_Moraleja">
	<path style="fill-rule:evenodd;clip-rule:evenodd;" d="M62.974,2.889c-11.183,0.227-20.741,0.03-32.617,0.12
		C39.599-1.114,53.706-0.852,62.974,2.889z"/>
	<path style="fill-rule:evenodd;clip-rule:evenodd;" d="M72.687,7.925c-16.064-0.077-33.845,0.019-52.282,0
		c3.252-3.549,9.046-2.877,15.829-2.878c7.223,0,13.996,0.001,20.625,0c3.717,0,7.943-0.62,10.912,0
		C69.497,5.409,71.294,6.96,72.687,7.925z"/>
	<path style="fill-rule:evenodd;clip-rule:evenodd;" d="M78.802,12.963c-22.746,0.057-43.204,0.001-64.633,0.119
		c1.198-1.125,2.004-2.762,3.477-3.117c2.125-0.514,5.301,0,8.034,0c14.638,0,29.668-0.263,43.289,0
		c2.249,0.043,4.545-0.388,6.355,0C76.821,10.284,77.925,12.147,78.802,12.963z"/>
	<path style="fill-rule:evenodd;clip-rule:evenodd;" d="M83.359,18.119c-26.403,0.032-49.861-0.063-73.627,0.119
		c0.586-1.034,1.315-2.786,2.518-3.117c1.675-0.462,4.731,0,6.715,0c10.926-0.001,22.53,0,33.815,0c7.759,0,13.155,0,20.985,0
		c2.408,0,5.385-0.509,7.074,0C82.168,15.52,82.842,17.346,83.359,18.119z"/>
	<path style="fill-rule:evenodd;clip-rule:evenodd;" d="M84.918,20.157c0.677,0.962,1.49,1.787,1.799,3.118
		c-25.743,0.244-53.017,0.06-80.461,0.119c0.134-1.035,1.139-2.211,1.799-3.117C36.214,20.238,60.114,20.331,84.918,20.157z"/>
	<path style="fill-rule:evenodd;clip-rule:evenodd;" d="M89.235,28.431C58.527,28.444,33.76,28.498,3.737,28.55
		c0.012-0.921,0.744-2.123,1.199-2.997c16.574-0.155,35.974-0.121,56.239-0.12c7.85,0,15.771-0.052,22.663,0
		c1.175,0.009,3.157-0.325,3.957,0C88.644,25.778,88.918,27.692,89.235,28.431z"/>
	<path style="fill-rule:evenodd;clip-rule:evenodd;" d="M90.074,30.469c0.531,0.868,0.875,1.923,1.079,3.118
		c-8.48,0.007-17.801-0.001-26.381,0c-2.9,0-6.352,0.545-8.873,0c-1.057-0.229-2.179-1.381-3.477-1.919
		c-1.217-0.505-2.629-0.645-3.717-0.959c0.042-0.138,0.211-0.305,0.24-0.12C63.118,30.53,76.969,30.7,90.074,30.469z"/>
	<path style="fill-rule:evenodd;clip-rule:evenodd;" d="M44.267,30.589c-1.235,0.497-2.435,0.71-3.837,1.318
		c-1.078,0.469-2.406,1.626-3.238,1.799c-1.814,0.378-26.583-0.348-35.374,0C2.231,32.755,2.192,31,3.017,30.589
		c0.7-0.348,3.613,0.113,4.797,0.12C19.044,30.766,32.614,30.427,44.267,30.589z"/>
	<path style="fill-rule:evenodd;clip-rule:evenodd;" d="M34.674,35.746c-0.009,0.76-1.358,2.231-2.038,3.117
		c-2.494-0.192-28.257,0-31.897,0c-0.075-0.853,0.342-2.203,0.6-3.117C11.544,35.842,24.091,35.699,34.674,35.746z"/>
	<path style="fill-rule:evenodd;clip-rule:evenodd;" d="M91.513,35.746c0.659,0.579,0.579,1.898,0.839,2.878
		c-11.011,0.355-20.774,0.107-32.017,0.239c-0.585-1.054-1.714-2.201-2.038-3.117C69.3,35.777,80.916,35.716,91.513,35.746z"/>
	<path style="fill-rule:evenodd;clip-rule:evenodd;" d="M31.796,40.902c-0.149,1.129-0.433,2.125-0.72,3.117
		C21.241,43.94,9.825,44.175,0.139,43.9c0.024-1.124,0.083-1.742,0.24-2.878C11.718,40.988,21.515,40.998,31.796,40.902z"/>
	<path style="fill-rule:evenodd;clip-rule:evenodd;" d="M92.592,40.902c0.104,1.135,0.37,1.962,0.12,2.998
		c-10.94-0.035-20.154,0.159-30.698,0c-0.106-0.994-0.911-2.362-0.6-2.998C71.997,40.898,82.253,40.909,92.592,40.902z"/>
	<path style="fill-rule:evenodd;clip-rule:evenodd;" d="M0.379,46.058c9.382,0.165,21.958-0.079,30.697,0.12
		c-0.161,0.97,0.139,1.851,0.24,2.878c-10.369,0.291-21.524,0.01-31.058,0.119C0.182,48.102-0.35,46.756,0.379,46.058z"/>
	<path style="fill-rule:evenodd;clip-rule:evenodd;" d="M62.254,46.058c10.232,0,20.465,0,30.697,0
		c0.086,1.124-0.126,1.952-0.119,2.998c-11.945-0.055-20.656,0.163-30.938,0c-0.008-0.968,0.227-1.691,0.24-2.639
		C62.125,46.248,62.115,46.078,62.254,46.058z"/>
	<path style="fill-rule:evenodd;clip-rule:evenodd;" d="M92.592,51.214c0.074,1.192-0.267,1.972-0.479,2.878
		c-10.984,0.332-21.839-0.074-32.257,0.239c0.263-1.256,0.969-2.068,1.439-3.117C72.091,51.227,82.726,51.184,92.592,51.214z"/>
	<path style="fill-rule:evenodd;clip-rule:evenodd;" d="M31.676,51.214c0.666,0.821,1.353,2.232,1.559,3.117
		c-11.868-0.001-21.686-0.058-32.376,0c-0.187-0.811-0.685-2.461-0.24-3.117C10.683,51.299,21.572,51.179,31.676,51.214z"/>
	<path style="fill-rule:evenodd;clip-rule:evenodd;" d="M38.631,59.488c-12.104-0.01-24.211,0.006-36.573,0
		c-0.209-1.03-0.741-1.737-0.72-2.997c8.944-0.064,17.066-0.001,26.741,0c2.198,0,4.988-0.474,6.715,0
		C36.276,56.896,37.163,58.87,38.631,59.488z"/>
	<path style="fill-rule:evenodd;clip-rule:evenodd;" d="M91.753,56.371c-0.275,1.003-0.402,2.155-0.839,2.998
		c-11.503,0.134-24.399-0.011-36.454,0.119c1.319-0.562,2.548-2.738,3.837-3.117C60.49,55.725,83.696,56.339,91.753,56.371z
		 M79.162,58.769C79.241,58.847,79.112,58.718,79.162,58.769L79.162,58.769z"/>
	<path style="fill-rule:evenodd;clip-rule:evenodd;" d="M90.314,61.527c-2.653,7.844-7.107,13.69-12.711,18.586
		c-5.609,4.9-12.031,8.895-20.385,10.912c-8.844,2.137-19.321,1.086-26.86-1.799C17.144,84.171,7.64,74.89,2.898,61.647
		C33.87,61.639,57.33,61.5,90.314,61.527z M82.04,65.604C82.119,65.682,81.99,65.553,82.04,65.604L82.04,65.604z"/>
</g>
<g id="Layer_1">
</g>
</svg>
