<?xml version="1.0" encoding="iso-8859-1"?>
<!-- Generator: Adobe Illustrator 19.2.0, SVG Export Plug-In . SVG Version: 6.00 Build 0)  -->
<svg version="1.1" xmlns="http://www.w3.org/2000/svg" xmlns:xlink="http://www.w3.org/1999/xlink" x="0px" y="0px"
	 viewBox="0 0 147.669 147.761" style="enable-background:new 0 0 147.669 147.761;" xml:space="preserve">
<g id="Good_x5F_Design_x5F_57">
	<path style="fill-rule:evenodd;clip-rule:evenodd;" d="M41.841,7.249c6.345-3.043,13.218-5.13,21.282-6.468
		c2.664-0.442,5.526-0.579,8.504-0.72C77.354-0.208,82.751,0.44,87.638,1.38c4.921,0.945,9.292,2.267,13.376,3.953
		c4.145,1.71,8.078,3.501,11.58,5.749c3.514,2.258,6.793,4.699,9.901,7.387c3.137,2.712,5.819,5.664,8.465,8.864
		c5.206,6.299,9.489,13.648,12.497,22.12c1.512,4.254,2.718,8.869,3.435,13.855c0.739,5.143,0.977,10.919,0.599,16.331
		c-0.369,5.275-1.322,10.32-2.596,14.693c-2.624,9.01-6.426,16.564-11.419,23.198c-2.497,3.316-5.094,6.479-8.026,9.303
		c-5.853,5.64-12.69,10.305-20.523,14.095c-1.943,0.94-4.022,1.786-6.149,2.516c-2.142,0.735-4.291,1.501-6.548,2.076
		c-4.786,1.221-9.63,1.892-15.173,2.156c-5.696,0.273-11.098-0.124-16.131-1.038c-9.682-1.758-18.083-5.16-25.194-9.423
		c-3.595-2.155-6.873-4.684-10.022-7.308c-3.148-2.622-5.934-5.613-8.585-8.704c-5.363-6.255-9.518-13.423-12.737-21.88
		c-1.604-4.215-2.754-8.769-3.554-13.776C-0.828,75.14,0.121,63.309,2.551,54.484c1.241-4.507,2.764-8.76,4.671-12.617
		c3.835-7.755,8.615-14.485,14.374-20.244C27.363,15.858,33.946,11.084,41.841,7.249z M71.348,3.137
		c-0.788,0.745-1.579,1.522-2.316,2.275c-1.526,1.56-3.121,3.081-4.592,4.552c-0.758,0.759-1.437,1.598-2.196,2.357
		c-2.288,2.287-4.617,4.616-6.868,6.867c-7.688,7.688-15.333,15.255-22.919,22.839c-1.522,1.521-2.958,3.159-4.512,4.632
		c-3.141,2.976-6.036,6.199-9.144,9.184c-3.108,2.985-6.101,6.101-9.143,9.144c-2.291,2.29-4.557,4.637-6.828,6.907
		c-0.763,0.763-1.615,1.47-2.196,2.397c2.859,3.015,5.958,5.798,8.904,8.744c2.207,2.207,4.416,4.421,6.628,6.588
		c4.438,4.348,8.993,8.699,13.336,13.137c0.734,0.75,1.534,1.46,2.156,2.275c0.604,0.792,1.444,1.473,2.156,2.236
		c0.713,0.764,1.515,1.508,2.236,2.196c6.024,5.739,11.867,11.665,17.808,17.488c5.943,5.824,11.806,11.724,17.688,17.608
		c0.386,0.355,0.708,0.707,1.118,1.158c0.227,0.25,0.927,1.061,1.277,1.038c0.212-0.014,0.899-0.748,1.198-1.038
		c0.439-0.427,0.78-0.82,1.118-1.158c5.325-5.325,10.624-10.691,15.932-15.852c1.525-1.483,3.099-2.97,4.511-4.552
		c1.442-1.616,3.043-3.042,4.553-4.552c3.051-3.052,6.088-6.096,9.143-9.023c5.226-5.226,10.579-10.71,15.932-15.853
		c0.768-0.736,1.604-1.486,2.276-2.275c1.367-1.605,2.976-3.016,4.512-4.552c1.508-1.508,3.04-3.04,4.552-4.552
		c2.646-2.645,5.372-5.22,8.025-7.866c0.311-0.31,1.055-0.968,1.038-1.237c-0.01-0.17-0.474-0.594-0.639-0.759
		c-1.681-1.681-3.431-3.445-4.991-5.031c-3.3-3.371-6.677-6.637-10.021-9.982c-3.316-3.317-6.462-6.841-9.902-10.102
		c-3.394-3.217-6.476-6.687-10.021-9.982c-1.641-1.524-3.334-3.321-5.031-4.991c-1.215-1.195-2.542-2.435-3.754-3.754
		c-0.318-0.347-1.008-1.197-1.317-1.197c-0.264,0-0.878,0.759-1.198,1.078c-0.424,0.424-0.826,0.787-1.158,1.118
		c-2.299,2.3-4.511,4.796-6.787,6.947c-3.199,3.024-6.087,6.008-9.184,9.104c-5.662,5.66-11.43,11.429-17.129,17.129
		c-0.309,0.309-1.049,0.988-1.038,1.278c0.011,0.283,0.742,0.889,1.078,1.197c0.447,0.411,0.775,0.815,1.118,1.158
		c2.332,2.332,4.603,4.523,6.868,6.788c2.591,2.591,5.458,5.179,8.105,7.826c0.309,0.308,0.913,1.039,1.238,1.038
		c0.427-0.002,0.912-0.768,1.198-1.038c0.436-0.414,0.766-0.738,1.118-1.118c3.792-3.715,7.695-7.318,11.26-11.26
		c1.122-1.138,2.251-2.292,3.354-3.395c0.37-0.37,0.732-0.829,1.237-1.038c1.632,1.349,3.009,2.954,4.552,4.393
		c1.068,1.163,2.135,2.27,3.273,3.434c0.27,0.275,1.049,0.902,1.039,1.237c-0.008,0.254-0.779,0.93-1.039,1.198
		c-0.422,0.439-0.828,0.869-1.117,1.158c-3.082,3.081-6.072,6.031-9.064,9.024c-0.751,0.751-1.533,1.505-2.235,2.276
		c-1.423,1.563-2.975,3.011-4.512,4.552c-5.605,5.619-11.288,11.328-16.929,16.97c-0.381,0.38-0.971,1.041-1.238,1.038
		c-0.24-0.003-0.907-0.747-1.198-1.038c-1.168-1.169-2.308-2.269-3.434-3.395c-1.551-1.551-3.053-3.134-4.512-4.592
		c-1.559-1.558-2.962-3.184-4.512-4.592c-1.574-1.429-3.038-2.958-4.592-4.512c-1.499-1.499-3.062-2.982-4.591-4.512
		c-3.105-3.104-5.938-5.976-9.144-9.063c-1.141-1.099-2.26-2.299-3.434-3.395c-0.306-0.285-1.082-0.857-1.078-1.197
		c0.002-0.169,0.463-0.629,0.759-0.919c2.056-2.016,4.042-4.082,5.989-6.028c5.761-5.761,11.388-11.429,17.089-17.13
		c1.145-1.145,2.209-2.369,3.354-3.514c8.523-8.524,17.148-17.11,25.714-25.674c0.302-0.302,1.648-1.364,1.637-1.797
		c-0.006-0.253-0.729-0.93-1.038-1.237c-0.439-0.439-0.847-0.876-1.118-1.158c-4.912-5.111-9.863-9.863-14.734-14.933
		c-0.364-0.38-0.808-1.059-1.277-1.078C72.889,1.43,72.197,2.334,71.348,3.137z"/>
</g>
<g id="Layer_1">
</g>
</svg>
