<?xml version="1.0" encoding="iso-8859-1"?>
<!-- Generator: Adobe Illustrator 19.2.0, SVG Export Plug-In . SVG Version: 6.00 Build 0)  -->
<svg version="1.1" xmlns="http://www.w3.org/2000/svg" xmlns:xlink="http://www.w3.org/1999/xlink" x="0px" y="0px"
	 viewBox="0 0 77.346 78.299" style="enable-background:new 0 0 77.346 78.299;" xml:space="preserve">
<g id="Gordon_x5F_Grant">
	<path style="fill-rule:evenodd;clip-rule:evenodd;" d="M69.705,38.248c-0.77-0.339-1.685-0.195-2.536-0.195
		c-11.445-0.001-22.841-0.1-34.834-0.098c-1.732,0.001-4.258-0.345-4.343,1.073c-0.114,1.919,3.342,1.415,5.416,1.415
		c8.221-0.001,15.872,0.097,23.954,0.098c3.201,0,6.454-0.118,9.465,0.146c0.01,0.04,0.049,0.049,0.049,0.098
		c-0.477,5.884-2.076,10.574-4.683,14.393c-4.234,6.201-10.508,10.898-19.661,12.246c-6.098,0.897-11.957-0.611-16.051-2.635
		c-4.241-2.097-7.715-5.066-10.392-8.782c-1.785-2.477-3.399-5.227-4.343-8.391c-1.016-3.411-1.581-7.371-1.22-11.368
		c0.34-3.761,1.461-7.125,2.83-9.953c2.75-5.679,7.149-10.121,12.636-12.88c2.712-1.363,6.19-2.543,9.952-2.83
		c4.01-0.306,7.973,0.129,11.222,1.22c4.984,1.673,8.454,4.014,11.807,7.367c1.005,1.005,2.213,2.41,2.439,3.903
		c0.418,2.758-2.486,5.057-5.221,3.903c-1.195-0.504-1.967-1.71-2.829-2.634c-0.838-0.898-2.034-1.811-2.977-2.488
		c-2.141-1.539-4.544-2.604-7.61-3.318c-3.075-0.716-6.897-0.416-9.709,0.342c-5.639,1.519-9.566,4.9-12.197,9.611
		c-1.32,2.366-2.353,5.019-2.683,8.196c-0.738,7.128,1.876,12.366,5.171,16.344c2.001,2.261,4.499,4.266,7.611,5.513
		c3.072,1.231,7.181,1.966,11.27,1.22c6.178-1.128,10.858-4.554,13.807-9.075c0.425-0.65,1.038-1.354,0.977-2.195
		c-0.445-0.345-1.054-0.179-1.562-0.195c-3.855-0.121-8.085-0.026-12.1-0.049c-4.48-0.024-9.169,0.152-13.465-0.097
		c-4.337-0.252-6.913-2.378-8.343-5.513c-0.791-1.735-1.005-3.913-0.488-5.854c0.473-1.774,1.442-3.1,2.635-4.293
		c1.168-1.168,2.643-1.997,4.732-2.195c2.155-0.206,4.363-0.098,6.732-0.098c13.441,0,27.644,0.054,41.03,0.244
		c0.462,0.928,0.572,2.028,0.732,3.074c0.488,3.215,0.566,7.235,0.146,10.684c-0.548,4.499-1.942,8.414-3.464,11.758
		c-3.054,6.71-8.088,12.536-14.1,16.295c-3.087,1.931-6.566,3.544-10.538,4.684c-4.053,1.163-8.919,1.671-13.709,1.171
		c-9.046-0.945-15.765-4.515-21.271-9.123C8.453,64.349,4.191,58.317,1.794,50.737c-1.268-4.01-1.97-8.526-1.756-13.368
		c0.217-4.929,1.18-8.8,2.585-12.587c1.338-3.605,3.191-6.931,5.416-9.806c3.329-4.305,7.376-7.806,12.343-10.44
		c4.129-2.19,8.85-3.925,14.637-4.391c3.094-0.249,6.308-0.192,9.269,0.293c5.199,0.851,9.567,2.479,13.319,4.635
		c2.598,1.493,4.896,3.066,6.879,5.074c1.964,1.988,4.013,3.92,5.61,6.342c0.99,1.533,2.278,3.124,3.025,4.976
		c0.896,2.221,0.424,4.565-1.415,5.562c-2.101,1.139-4.223-0.304-5.074-1.756c-0.978-1.668-1.843-3.3-2.78-4.83
		c-0.904-1.475-2.254-2.888-3.514-4.098c-3.968-3.812-8.408-6.467-14.782-8.05c-4.044-1.004-9.42-1.108-13.66-0.146
		c-2.071,0.47-3.965,1.11-5.757,1.854c-1.758,0.729-3.349,1.741-4.879,2.732c-3.007,1.947-5.678,4.485-7.757,7.415
		c-3.973,5.597-7.36,13.829-5.708,23.808c0.72,4.349,2.111,7.996,4.049,11.172c1.931,3.163,4.11,5.901,6.929,8.246
		c5.349,4.451,12.891,8.174,22.881,7.22c4.508-0.43,8.402-1.661,11.757-3.464c3.285-1.765,6.257-4.003,8.538-6.635
		c1.163-1.342,2.191-2.848,3.172-4.44c2.414-3.922,4.219-8.401,4.683-14.343C69.89,40.603,70.007,39.395,69.705,38.248z"/>
</g>
<g id="Layer_1">
</g>
</svg>
