<?xml version="1.0" encoding="iso-8859-1"?>
<!-- Generator: Adobe Illustrator 19.2.0, SVG Export Plug-In . SVG Version: 6.00 Build 0)  -->
<svg version="1.1" xmlns="http://www.w3.org/2000/svg" xmlns:xlink="http://www.w3.org/1999/xlink" x="0px" y="0px"
	 viewBox="0 0 74.485 74.866" style="enable-background:new 0 0 74.485 74.866;" xml:space="preserve">
<g id="grafische_x5F_maschinengesellschaft">
	<path style="fill-rule:evenodd;clip-rule:evenodd;" d="M45.344,26.92c-1.347,1.374-2.677,2.765-3.987,4.175
		c-0.928,0.936-1.93,2.023-3.002,3.096c-0.34,0.34-0.786,0.885-1.125,0.891c-0.302,0.006-0.805-0.569-1.126-0.891
		c-2.325-2.326-4.665-4.477-6.989-6.802c-2.656-2.655-5.336-5.096-6.333-9.429c-1.114-4.836,0.398-9.487,2.674-12.337
		c2.342-2.935,5.551-4.996,10.226-5.536c3.899-0.45,7.392,0.885,9.758,2.58c3.565,2.556,6.145,6.253,6.145,12.196
		c0,1.783-0.446,3.615-1.032,5.066C49.38,22.836,47.383,24.882,45.344,26.92z M33.101,5.201c-2.312,0.925-4.312,2.992-5.253,5.019
		c-0.704,1.514-1.104,3.844-0.845,5.723c0.286,2.075,0.981,3.483,2.017,4.831c1.863,2.424,5.326,4.442,9.616,3.753
		c3.675-0.59,6.395-3.022,7.646-6.051c1.395-3.375,0.793-6.965-0.844-9.476c-1.773-2.718-4.919-4.946-9.57-4.503
		C34.79,4.6,33.937,4.867,33.101,5.201z"/>
	<path style="fill-rule:evenodd;clip-rule:evenodd;" d="M59.23,22.276c5.449-0.322,9.717,2.466,12.102,5.582
		c1.641,2.145,2.983,4.991,3.143,8.631c0.077,1.753-0.312,3.54-0.798,5.066c-0.937,2.946-2.66,5.255-4.784,6.99
		c-2.191,1.79-5.098,3.085-8.537,3.237c-3.76,0.165-6.6-1.098-8.96-2.815c-1.147-0.834-2.088-1.857-3.097-2.815
		c-2.461-2.336-4.863-4.817-7.364-7.317c-0.401-0.402-1.343-1.063-1.36-1.548c-0.021-0.592,1.639-2.03,1.971-2.392
		c0.735-0.804,1.548-1.548,2.157-2.158c1.504-1.503,2.971-3.159,4.222-4.41c2.153-2.153,4.208-4.321,7.553-5.394
		C56.586,22.577,57.882,22.356,59.23,22.276z M49.989,35.598c-0.474,3.1,0.651,5.815,2.018,7.599
		c0.464,0.607,1.002,1.332,1.547,1.783c1.386,1.145,3.228,1.997,5.301,2.158c2.229,0.172,4.308-0.362,6.005-1.36
		c3.09-1.818,5.438-5.036,5.066-9.851c-0.258-3.335-2.188-5.971-4.457-7.459c-1.507-0.988-3.475-1.837-6.004-1.688
		c-1.575,0.092-2.806,0.505-4.034,1.032C52.485,29.519,50.548,31.93,49.989,35.598z"/>
	<path style="fill-rule:evenodd;clip-rule:evenodd;" d="M34.978,37.287c-0.039,0.665-0.62,0.787-0.845,1.267
		c-2.58,2.724-5.245,5.404-7.834,8.209c-2.624,2.845-5.53,5.162-10.319,5.676c-2.576,0.276-5.039-0.325-6.849-1.079
		c-1.895-0.789-3.436-1.935-4.738-3.237c-2.618-2.619-4.671-6.45-4.362-11.539c0.12-1.985,0.69-3.873,1.454-5.394
		c0.766-1.526,1.673-2.86,2.861-3.987c2.337-2.218,5.209-4.028,9.382-4.316c2.887-0.199,5.45,0.563,7.365,1.548
		c2.003,1.03,3.541,2.51,4.972,3.94c2.258,2.257,4.505,4.365,6.755,6.614C33.558,35.726,34.403,36.392,34.978,37.287z M7.207,30.767
		c-1.415,1.706-2.744,3.9-2.721,6.942c0.016,2.03,0.725,3.702,1.455,5.019c1.885,3.402,6.225,5.901,10.601,5.019
		c2.65-0.534,4.739-1.938,6.099-3.894c0.84-1.209,1.685-2.66,1.97-4.41c0.679-4.154-1.152-7.552-3.283-9.381
		c-1.708-1.466-4.317-2.88-7.646-2.533C10.786,27.832,8.598,29.092,7.207,30.767z"/>
	<path style="fill-rule:evenodd;clip-rule:evenodd;" d="M37.088,39.633c0.519-0.159,0.992,0.476,1.36,0.844
		c1.004,1.003,2.102,2.054,3.05,3.002c1.348,1.348,2.888,2.745,4.034,3.987c1.36,1.475,2.753,2.556,3.894,4.175
		c1.081,1.537,2.036,3.293,2.485,5.536c1.042,5.19-0.81,9.567-3.142,12.384c-2.414,2.915-5.755,5.181-10.789,5.301
		c-5.256,0.125-8.589-2.05-11.258-4.832c-2.393-2.494-4.484-6.915-3.565-12.149c0.81-4.614,3.387-7.374,6.052-10.038
		C31.923,45.127,34.274,42.329,37.088,39.633z M34.18,50.797c-2.777,1.058-4.809,2.967-5.863,5.536
		c-0.774,1.885-1.161,4.333-0.562,6.473c0.523,1.877,1.53,3.6,2.814,4.785c1.556,1.436,3.685,2.635,6.566,2.768
		c3.08,0.142,6.127-1.275,7.647-2.955c2.002-2.213,3.612-5.884,2.533-9.851c-0.51-1.872-1.345-3.098-2.346-4.222
		c-1.577-1.772-4.395-3.288-7.552-3.19C36.237,50.177,35.184,50.415,34.18,50.797z"/>
</g>
<g id="Layer_1">
</g>
</svg>
