<?xml version="1.0" encoding="iso-8859-1"?>
<!-- Generator: Adobe Illustrator 19.2.0, SVG Export Plug-In . SVG Version: 6.00 Build 0)  -->
<svg version="1.1" xmlns="http://www.w3.org/2000/svg" xmlns:xlink="http://www.w3.org/1999/xlink" x="0px" y="0px"
	 viewBox="0 0 80.346 47.161" style="enable-background:new 0 0 80.346 47.161;" xml:space="preserve">
<g id="Grand_x5F_Union_x5F_Company">
	<path style="fill-rule:evenodd;clip-rule:evenodd;" d="M80.346,0.196c-0.09,1.053-0.653,1.982-1.028,2.94
		c-2.263,5.777-4.595,11.719-6.859,17.539c-0.189,0.488-0.403,0.977-0.588,1.469c-0.188,0.508-0.252,1.059-0.441,1.568
		c-0.724,1.957-1.559,3.881-2.303,5.83c-1.874,4.914-3.799,9.695-5.732,14.6c-0.371,0.941-0.634,1.953-1.225,2.791
		c-3.416,0.184-7.15,0.148-10.876,0.148c-1.18,0-2.363,0.02-3.429-0.148c-0.252-0.33-0.835-1.32-0.687-2.057
		c0.084-0.416,0.809-0.676,1.323-0.98c3.259-1.92,5.961-4.916,7.25-8.77c0.802-2.391,1.154-5.33,0.784-7.984
		c-0.369-2.648-1.261-4.771-2.498-6.664c-2.438-3.727-6.046-6.361-11.023-7.299c-5.86-1.105-10.942,0.982-13.913,3.82
		c-2.007,1.701-3.537,3.752-4.605,6.418c-1.057,2.639-1.649,5.91-0.931,9.357c0.945,4.537,3.167,7.682,6.369,10.094
		c0.474,0.356,0.993,0.686,1.616,1.125c0.4,0.283,1.481,0.744,1.567,1.178c0.144,0.711-0.36,1.326-0.588,1.812
		c-2.301,0.258-4.881,0.147-7.397,0.147c-2.494,0-5.018,0.096-7.251-0.049c-0.455-0.311-0.504-0.906-0.686-1.373
		C12.136,32.722,7.195,19.407,2.155,6.319C1.404,4.368,0.538,2.466,0,0.441c1.384-0.266,2.896-0.147,4.36-0.147
		c4.249,0,8.678-0.031,13.13,0.049c0.618,0.555,0.771,1.424,1.078,2.156c1.861,4.439,3.784,9.09,5.585,13.619
		c0.289,0.729,0.465,1.572,1.028,2.156c0.47-0.631,0.663-1.42,0.931-2.156c1.615-4.437,3.235-9.053,4.752-13.57
		c0.253-0.752,0.316-1.584,0.784-2.254c5.195-0.121,11.315-0.143,16.657-0.049c0.713,1.43,1.269,2.967,1.812,4.508
		c1.345,3.807,2.813,7.656,4.165,11.512c0.26,0.744,0.45,1.564,0.931,2.205c0.549-0.561,0.762-1.44,1.077-2.205
		c1.872-4.527,3.694-9.244,5.585-13.963c0.315-0.787,0.602-2.08,1.274-2.205c1.194-0.219,3.066,0.002,4.359,0
		C71.778,0.097,76.144,0.028,80.346,0.196z"/>
</g>
<g id="Layer_1">
</g>
</svg>
