<?xml version="1.0" encoding="iso-8859-1"?>
<!-- Generator: Adobe Illustrator 19.2.0, SVG Export Plug-In . SVG Version: 6.00 Build 0)  -->
<svg version="1.1" xmlns="http://www.w3.org/2000/svg" xmlns:xlink="http://www.w3.org/1999/xlink" x="0px" y="0px"
	 viewBox="0 0 158.169 165.015" style="enable-background:new 0 0 158.169 165.015;" xml:space="preserve">
<g id="Grand_x5F_Prix_x5F_du_x5F_Ruban_x5F_dor_x5F_de_x5F_L_x5F_Emballage">
	<path style="fill-rule:evenodd;clip-rule:evenodd;" d="M36.542,0.002c0.043-0.009,0.047,0.02,0.051,0.05
		c1.841,0.913,3.549,2.023,5.304,3.053c1.753,1.028,3.507,2.065,5.255,3.103c1.741,1.034,3.423,2.175,5.255,3.103
		c1.81,0.917,3.556,1.953,5.354,2.953c5.347,2.972,10.589,6.045,15.965,9.108c1.255,0.715,2.571,1.504,3.953,2.302
		c0.424,0.245,1.091,0.693,1.352,0.701c0.623,0.018,2.158-1.192,2.702-1.501c6.232-3.551,12.471-7.027,18.717-10.509
		c3.607-2.011,7.197-3.96,10.659-6.055c3.487-2.11,7.084-3.969,10.51-6.156c0.792,0.425,1.568,0.867,2.151,1.501
		c-0.251,0.487-0.819,0.617-1.251,0.851c-1.272,0.689-2.543,1.608-3.854,2.352c-1.757,0.998-3.486,2.019-5.204,3.103
		c-1.721,1.085-3.622,1.901-5.405,2.902c-5.256,2.952-10.601,5.979-15.914,8.958c-3.091,1.733-6.165,3.469-9.258,5.255
		c-0.407,0.234-0.889,0.479-1.201,0.851c0.386,0.506,0.984,0.754,1.501,1.051c1.084,0.623,2.055,1.169,3.253,1.852
		c0.445,0.253,1.216,0.835,1.651,0.851c0.587,0.021,2.253-1.123,2.753-1.401c6.186-3.434,12.16-7.055,18.366-10.459
		c5.471-3.002,10.36-5.917,15.914-8.857c0.75-0.398,1.673-0.903,2.603-1.502c0.693-0.446,1.979-1.481,2.603-1.502
		c0.436-0.015,0.854,0.366,1.2,0.601c0.378,0.256,0.796,0.455,1.001,0.801c-0.657,0.75-1.602,1.199-2.452,1.651
		c-4.444,2.364-8.772,4.859-13.161,7.307c-5.205,2.902-10.439,5.884-15.664,8.858c-2.605,1.482-5.188,2.988-7.808,4.504
		c-0.847,0.49-1.77,0.883-2.502,1.551c0.367,0.509,0.981,0.745,1.501,1.051c1.069,0.629,2.042,1.163,3.253,1.852
		c0.428,0.242,1.192,0.885,1.652,0.901c0.309,0.011,0.863-0.419,1.351-0.701c1.279-0.74,2.729-1.566,3.903-2.202
		c7.023-3.803,13.865-7.973,20.769-11.811c4.753-2.642,9.417-5.401,14.313-8.107c0.448-0.247,1.066-0.639,1.352-0.65
		c0.425-0.017,0.824,0.36,1.201,0.601c0.378,0.242,0.757,0.389,0.951,0.801c-1.418,0.992-2.948,1.795-4.454,2.652
		c-4.489,2.554-9.039,5.056-13.562,7.607c-2.989,1.686-5.93,3.49-8.908,5.205c-3,1.727-6.023,3.392-9.058,5.054
		c-0.8,0.552-1.696,0.994-2.552,1.501c-0.839,0.498-1.751,0.905-2.452,1.551c0.315,0.553,0.959,0.753,1.501,1.051
		c1.037,0.57,2.071,1.188,3.202,1.851c0.499,0.292,1.169,0.905,1.702,0.901c0.591-0.004,2.132-1.095,2.652-1.401
		c2.588-1.526,5.178-2.89,7.707-4.354c3.453-1.999,6.783-3.906,10.209-5.855c6.091-3.465,11.769-6.762,17.916-10.259
		c0.353-0.201,0.824-0.441,1.301-0.701c0.469-0.255,1.111-0.646,1.352-0.65c0.413-0.009,0.809,0.381,1.151,0.601
		c0.385,0.247,0.807,0.396,1,0.75c-0.668,0.724-1.629,1.075-2.452,1.551c-5.865,3.396-11.926,6.705-17.815,10.159
		c-2.522,1.479-5.12,2.828-7.707,4.304c-0.832,0.475-1.567,1.094-2.402,1.552c-2.582,1.417-5.123,2.874-7.707,4.304
		c-0.815,0.452-1.715,0.884-2.401,1.551c0.312,0.507,0.914,0.68,1.401,0.951c0.989,0.551,1.861,1.125,2.952,1.751
		c0.427,0.245,1.172,0.779,1.552,0.801c0.606,0.035,1.983-0.942,2.702-1.352c2.62-1.491,5.071-2.959,7.606-4.404
		c5.216-2.972,10.208-5.867,15.364-8.758c4.651-2.608,9.233-5.377,14.013-8.057c0.456-0.256,1.099-0.652,1.351-0.651
		c0.417,0.003,1.494,0.781,1.802,1.151c0.06,19.449-0.047,39.428-0.05,59.854c-0.003,19.08-0.052,36.224-0.051,55.7
		c0.001,1.292,0.164,2.638-0.05,3.703c-0.085,0.425-0.632,0.685-1.051,0.951c-0.431,0.274-0.714,0.54-1.251,0.601
		c-0.181-11.837-0.102-24.349-0.101-36.283c0.001-9.255,0.05-17.903,0.051-27.224c0-2.241,0-4.607,0-6.806
		c0-0.731,0.121-1.724-0.101-2.202c-0.181-0.39-1.161-0.833-1.802-1.201c-4.434-2.553-8.858-5.115-13.262-7.657
		c-5.184-2.993-10.231-5.693-15.213-8.708c-10.025-6.067-20.332-11.621-30.327-17.466c-10.07-5.889-20.196-11.755-30.277-17.565
		c-5.065-2.92-10.162-5.826-15.264-8.658c-2.566-1.424-5.114-2.834-7.607-4.354c-1.855-1.131-3.704-2.23-5.604-3.353
		c-0.609-0.359-1.268-0.682-1.752-1.201C34.93,0.758,35.77,0.413,36.542,0.002z M155.699,63.157c0.002-12.182-0.002-24.268,0-36.532
		c0-0.892-0.013-1.1-0.551-0.951c-0.504,0.139-1.076,0.563-1.602,0.851c-1.178,0.644-1.932,1.151-3.152,1.852
		c-0.53,0.305-1.298,0.579-1.451,1.051c-0.155,0.478-0.05,1.361-0.05,2.152c-0.003,10.965-0.042,22.647,0.05,33.079
		c0.952,0.811,2.109,1.347,3.203,1.952c0.545,0.302,1.091,0.632,1.65,0.951c0.542,0.308,1.062,0.798,1.752,0.851
		C155.816,66.869,155.699,64.95,155.699,63.157z M146.39,61.206c0-2.001,0.051-4.082,0.051-6.105c0-5.432,0-10.847,0-16.415
		c0-2.15,0-3.785,0-6.056c0-0.653,0.189-1.995-0.551-1.702c-0.923,0.365-1.854,1.062-2.702,1.552
		c-0.944,0.543-1.956,0.927-2.602,1.701c-0.1,8.84-0.135,17.042-0.051,25.673c0.806,0.71,1.808,1.171,2.753,1.702
		c0.949,0.532,1.876,1.2,2.952,1.551C146.501,62.594,146.39,61.875,146.39,61.206z M134.78,37.235
		c-0.898,0.531-1.887,0.984-2.602,1.702c-0.13,5.57-0.096,10.513,0,16.065c0.753,0.749,1.796,1.2,2.752,1.751
		c0.471,0.271,0.97,0.53,1.451,0.801c0.478,0.268,0.918,0.732,1.502,0.701c0.263-0.853,0.149-1.778,0.149-2.703
		c0.001-6.229,0-12.616,0-18.767c0-0.364,0.14-0.955-0.3-1.151C136.748,36.145,135.743,36.665,134.78,37.235z M126.422,42.039
		c-0.927,0.525-1.903,0.996-2.702,1.651c-0.084,2.055-0.082,4.451,0,6.506c0.862,0.672,1.846,1.159,2.803,1.702
		c0.942,0.535,1.849,1.222,2.952,1.551c0.27-0.958,0.15-2.059,0.15-3.153c0-2.749,0-5.628,0-8.307c0-0.493,0.159-1.124-0.2-1.502
		c-0.003-0.03-0.008-0.059-0.05-0.05C128.351,40.907,127.397,41.487,126.422,42.039z M118.165,46.943
		c0.85,0.653,1.909,1.36,2.952,1.652c0.249-0.348,0.15-1.059,0.15-1.702c0-0.611,0.163-1.43-0.25-1.651
		C120.026,45.768,118.914,46.175,118.165,46.943z"/>
	<path style="fill-rule:evenodd;clip-rule:evenodd;" d="M147.242,149.434c-0.154-21.829,0-45.202,0-67.46
		c0-1.597,0.037-3.27-0.051-4.604c-0.436-0.584-1.147-0.908-1.751-1.251c-9.507-5.4-19.071-10.913-28.576-16.415
		c-10.123-5.86-20.24-11.745-30.427-17.516C76.251,36.419,66.222,30.359,56.01,24.623c-6.383-3.584-12.723-7.242-19.067-10.91
		c-1.26-0.728-2.562-1.434-3.803-2.202c-2.476-1.53-5.195-2.675-7.558-4.404c0.097-0.424,0.544-0.572,0.901-0.801
		c0.32-0.206,0.803-0.675,1.15-0.701c0.415-0.032,1.423,0.645,2.002,1.001c1.855,1.139,3.737,2.352,5.655,3.353
		c2.704,1.411,5.151,2.949,7.657,4.354c5.235,2.936,10.279,5.864,15.313,8.708c5.118,2.891,10.128,5.952,15.213,8.808
		c5.122,2.876,10.073,5.981,15.164,8.808c5.119,2.842,10.154,5.889,15.264,8.757c5.14,2.887,10.233,5.809,15.264,8.758
		c2.522,1.479,5.007,3.016,7.557,4.454c7.608,4.292,15.336,8.722,22.87,13.112c0.027,0.089,0.025,0.207,0.101,0.25
		c-0.087,23.353,0.034,46.396-0.051,69.812c-0.002,0.726,0.085,1.574-0.05,2.102c-0.12,0.472-0.63,0.687-1.051,0.951
		C148.106,149.108,147.746,149.505,147.242,149.434z"/>
	<path style="fill-rule:evenodd;clip-rule:evenodd;" d="M138.884,154.789c-0.01-0.041-0.051-0.05-0.051-0.1
		c-0.093-17.382-0.052-35.999-0.05-53.598c0-4.131,0.05-8.913,0.05-13.412c0-1.645,0.076-3.513-0.1-4.804
		c-4.974-3.126-10.188-5.831-15.264-8.808c-5.049-2.961-10.104-5.934-15.214-8.808c-7.641-4.298-15.293-8.711-22.87-13.162
		c-12.588-7.393-25.442-14.607-38.185-21.92c-5.077-2.914-10.062-5.993-15.163-8.858c-5.116-2.873-10.247-5.724-15.264-8.758
		c0.076-0.423,0.533-0.561,0.851-0.751c0.273-0.162,0.891-0.642,1.201-0.65c0.468-0.012,1.389,0.628,2.052,1.001
		c9.597,5.389,19.244,11.051,28.676,16.465c8.925,5.121,17.888,10.16,26.773,15.363c1.271,0.745,2.579,1.429,3.804,2.202
		c2.474,1.562,5.093,2.911,7.657,4.404c7.566,4.406,15.297,8.968,22.92,13.212c5.126,2.853,10.142,5.939,15.214,8.858
		c5.122,2.948,10.349,5.776,15.313,8.758c-0.004,0.071-0.008,0.142,0.05,0.15c-0.176,12.054,0.236,23.894,0,35.832
		c-0.233,11.813,0.121,23.92-0.1,35.832c-0.123,0.501-0.691,0.668-1.052,0.901C139.756,154.384,139.393,154.757,138.884,154.789z"/>
	<path style="fill-rule:evenodd;clip-rule:evenodd;" d="M130.476,160.044c-0.266-0.688-0.149-1.43-0.149-2.152
		c0.002-20.765-0.005-43.672,0.05-64.658c0.002-0.706-0.033-1.455,0-2.152c0.033-0.705,0.122-1.444,0.05-2.102
		c-0.072-0.661-1.137-1.151-1.852-1.551c-4.449-2.491-9.067-5.274-13.362-7.757c-5.213-3.014-10.323-5.732-15.363-8.758
		c-3.877-2.124-7.631-4.478-11.51-6.606c-3.883-2.13-7.662-4.429-11.511-6.606c-1.914-1.083-3.827-2.216-5.705-3.353
		c-5.624-3.403-11.485-6.624-17.315-9.809c-3.873-2.116-7.6-4.503-11.46-6.656c-3.851-2.146-7.653-4.401-11.461-6.606
		c-7.654-4.431-15.34-8.752-22.92-13.262c0.084-0.366,0.555-0.582,0.9-0.801c0.403-0.254,0.896-0.599,1.251-0.6
		c2.657,1.32,5.21,2.825,7.758,4.354c2.521,1.513,5.148,2.888,7.706,4.353c5.108,2.928,10.208,5.883,15.264,8.908
		c5.067,3.032,10.29,5.8,15.414,8.758c5.104,2.946,10.245,5.849,15.363,8.758c2.56,1.454,5.053,3.033,7.607,4.504
		c2.544,1.464,5.039,3.029,7.607,4.454c10.329,5.732,20.497,11.725,30.777,17.565c2.555,1.451,5.077,2.968,7.606,4.454
		c2.538,1.49,5.164,2.812,7.607,4.454c-0.009,0.058,0.011,0.089,0.05,0.1c-0.009,23.993-0.014,47.389-0.1,71.264
		c-0.134,0.501-0.66,0.608-1.052,0.851C131.35,159.65,131.078,160.011,130.476,160.044z"/>
	<path style="fill-rule:evenodd;clip-rule:evenodd;" d="M78.981,139.826c-10.865,5.821-21.686,12.518-32.68,18.566
		c-3.086,1.698-6.336,3.576-9.509,5.455c-0.421,0.249-1.164,0.831-1.451,0.751c-0.624-0.175-1.37-0.713-1.802-1.151
		c0.005-23.865-0.021-47.043,0.101-70.613c0.347-1.305,1.747-1.837,3.003-2.552c2.653-1.512,5.286-3.142,7.856-4.604
		c1.773-1.009,3.601-1.953,5.355-2.953c7.021-4,14.088-8.09,21.168-12.061c1.771-0.992,3.614-1.877,5.255-3.052
		c-0.289-0.546-0.897-0.756-1.401-1.051c-1.007-0.59-1.898-1.107-3.053-1.751c-0.498-0.278-1.135-0.808-1.602-0.801
		c-0.651,0.01-2.147,1.123-2.752,1.451c-6.172,3.347-12.52,7.139-18.566,10.56c-2.688,1.52-5.33,2.954-8.007,4.504
		c-3.453,1.998-7.07,4.047-10.609,6.056c-0.873,0.495-1.85,0.874-2.553,1.601c-0.153,17.708,0.081,35.845-0.101,53.198
		c-0.06,5.852,0.169,11.682-0.1,17.465c-0.846-0.259-1.745-0.888-2.352-1.551c-0.004-23.724,0.006-46.853,0.101-70.513
		c0.236-0.469,0.784-0.66,1.201-0.901c3.021-1.749,6.206-3.5,9.308-5.205c1.771-0.973,3.452-2.094,5.205-3.103
		c1.754-1.01,3.538-1.972,5.305-2.953c5.321-2.954,10.557-6.077,15.864-9.058c0.882-0.495,1.76-1.021,2.652-1.501
		c0.865-0.465,1.833-0.841,2.552-1.552c-0.282-0.515-0.934-0.803-1.451-1.101c-1.054-0.605-2.098-1.084-3.253-1.801
		c-0.343-0.213-1.326-1.006-1.701-0.901c-0.785,0.221-1.79,0.949-2.652,1.451c-5.991,3.489-12.285,6.961-18.267,10.359
		c-5.312,3.018-10.365,5.921-15.613,8.908c-1.74,0.99-3.511,1.896-5.104,3.053c-0.092,8.924-0.05,17.713-0.051,26.674
		c-0.001,14.654-0.037,28.875-0.1,43.939c-0.518,0.082-0.925-0.38-1.301-0.65c-0.375-0.269-0.885-0.499-1.052-0.951
		c-0.089-23.43-0.003-47.123,0.051-70.462c0.729-0.701,1.683-1.053,2.552-1.551c7.678-4.406,15.568-8.926,23.321-13.312
		c4.295-2.43,8.608-4.912,12.961-7.356c0.837-0.47,1.739-0.932,2.452-1.602c-0.325-0.509-0.938-0.804-1.451-1.101
		c-1.553-0.897-3.212-1.805-4.805-2.702c-0.033,0-0.066,0-0.1,0c-6.89,3.755-13.633,7.771-20.468,11.61
		c-3.415,1.918-6.799,3.872-10.209,5.805c-3.396,1.923-6.856,3.771-10.159,5.855c0,0.033,0,0.067,0,0.1
		c-0.191,23.223,0.024,47.319-0.2,70.563c-0.46-0.008-0.873-0.354-1.302-0.651c-0.376-0.26-0.927-0.556-1.051-0.951
		c-0.152-0.487-0.032-1.355-0.05-2.102c-0.046-1.996,0.05-4.394,0.05-6.556c0.002-20.097-0.019-41.394,0.101-61.755
		c0.227-0.448,0.762-0.619,1.15-0.851c2.877-1.711,5.936-3.419,8.908-5.055c3.412-1.878,6.801-3.841,10.209-5.755
		c5.959-3.347,11.837-6.777,17.766-10.209c0.822-0.476,1.723-0.873,2.402-1.551c-0.325-0.476-0.915-0.734-1.451-1.051
		c-1.021-0.604-2.088-1.176-3.203-1.802c-0.479-0.268-1.222-0.858-1.751-0.851c-0.547,0.008-2.083,1.052-2.602,1.351
		c-10.74,6.182-21.474,12.406-32.278,18.467c-0.756,0.424-1.626,0.913-2.503,1.401c-1.033,0.575-2.143,1.003-2.652,1.651
		c-0.086,22.701,0.017,47.09-0.15,70.413c-0.475,0.038-0.93-0.347-1.301-0.6c-0.387-0.265-0.846-0.546-1.051-0.951
		c-0.022-19.436-0.001-39.221,0-58.802c0.001-19.507,0.073-38.353,0.05-58.152c0.419-0.549,1.231-0.97,1.901-1.101
		c2.626,1.32,5.081,2.928,7.657,4.354c5.104,2.825,10.125,5.825,15.214,8.758c2.527,1.457,5.095,2.875,7.606,4.354
		c10.052,5.92,20.281,11.569,30.377,17.516c5.029,2.962,10.192,5.723,15.214,8.758c5,3.022,10.153,5.811,15.213,8.758
		c9.402,5.474,19.073,10.935,28.476,16.464c0.613,0.361,1.284,0.715,1.852,1.101c1.012,0.688,0.951,1.846,0.951,3.704
		c0,22.191-0.06,46.071-0.101,68.26c-0.17,0.202-1.458,1.261-1.901,1.101c-0.882-0.317-1.753-1.052-2.702-1.601
		C106.35,155.602,92.24,147.577,78.981,139.826z M2.562,25.374c-0.087,0.737-0.05,1.694-0.05,2.652c0,12.485,0,25.239,0,37.233
		c0,0.854-0.121,1.738,0.15,2.552c0.649-0.093,1.211-0.489,1.752-0.801c1.67-0.962,3.382-1.805,4.853-2.952
		c0.083-11.545,0.085-23.437,0-34.981c-0.812-0.865-2.003-1.333-3.152-2.001c-0.946-0.551-2.377-1.51-3.403-1.852
		C2.64,25.252,2.59,25.302,2.562,25.374z M11.871,30.729c-0.174,0.965-0.1,2.635-0.1,3.954c-0.001,8.762,0,17.44,0,26.023
		c0,0.615-0.116,1.277,0.149,1.852c1.087-0.335,1.995-0.987,2.953-1.501c0.949-0.51,1.92-1.033,2.752-1.702
		c0.189-8.563,0.087-16.934,0.051-25.473c-0.75-0.669-1.691-1.159-2.703-1.751c-0.777-0.456-2.12-1.315-3.002-1.551
		C11.908,30.599,11.869,30.643,11.871,30.729z M20.228,35.583c-0.003,0.031-0.008,0.059-0.05,0.05
		c0.065,7.375-0.133,14.987,0.1,22.169c1.133-0.287,2.043-1.013,3.003-1.551c0.957-0.537,2.027-0.976,2.752-1.802
		c0.048-5.059,0.146-10.755,0-15.814c-0.778-0.625-1.705-1.115-2.702-1.702c-0.763-0.449-2.134-1.264-3.002-1.501
		C20.265,35.454,20.226,35.498,20.228,35.583z M28.736,40.338c-0.252,0.598-0.15,2.12-0.15,3.103c0,2.271,0,4.307,0,6.406
		c0,1.087-0.116,2.166,0.15,3.103c1.098-0.328,2.041-0.973,3.002-1.501c0.471-0.258,0.93-0.593,1.402-0.851
		c0.467-0.255,1.067-0.424,1.301-0.951c0.083-1.902,0.083-4.153,0-6.055c-0.711-0.775-1.724-1.223-2.652-1.752
		c-0.932-0.53-1.843-1.134-2.803-1.602c-0.033,0-0.066,0-0.1,0C28.827,40.261,28.772,40.291,28.736,40.338z M38.544,47.594
		c0.313-0.184,1.155-0.563,1.151-0.951c-0.004-0.363-0.618-0.573-1.102-0.851c-0.602-0.345-0.993-0.748-1.451-0.701
		c-0.244,0.743-0.242,2.411,0,3.153C37.71,48.137,38.016,47.904,38.544,47.594z M93.243,77.27c-2.867-1.592-5.661-3.364-8.558-4.904
		c-1.174-0.792-2.914-1.574-4.253-2.452c-0.548-0.359-1.13-0.938-1.702-0.701c-7.089,3.911-14.225,8.051-21.268,11.96
		c-0.455,0.253-0.995,0.512-1.302,0.951c0.32,0.457,0.881,0.639,1.352,0.901c6.722,3.742,13.404,7.632,20.018,11.51
		c0.428,0.251,1.174,0.804,1.502,0.8c0.333-0.003,1.01-0.545,1.401-0.8c0.508-0.332,1.025-0.637,1.401-0.851
		c6.244-3.553,12.512-7.013,18.666-10.509c0.412-0.234,1.03-0.436,1.201-0.951C98.996,80.427,96.116,78.865,93.243,77.27z
		 M122.019,126.965c0-0.966,0.227-2.882-0.051-3.653c-0.11-0.308-0.903-0.794-1.4-1.1c-0.601-0.371-1.141-0.681-1.602-0.951
		c-7.509-4.404-15.09-8.767-22.57-12.961c-8.817-4.944-17.349-9.975-25.773-14.863c-4.73-2.809-10.087-5.847-15.063-8.658
		c-0.743-0.42-1.86-1.225-2.503-1.051c-1.048,0.542-2.059,1.228-3.103,1.801c-1.058,0.581-2.188,1.052-3.053,1.852
		c1.41,1.113,3.074,1.832,4.604,2.752c1.552,0.934,3.135,1.811,4.705,2.703c7.832,4.45,15.689,8.978,23.421,13.512
		c4.687,2.748,9.46,5.29,14.112,8.057c3.099,1.844,6.243,3.602,9.358,5.405c5.462,3.162,10.958,6.39,16.414,9.458
		c0.772,0.435,1.465,1.064,2.353,1.251C122.072,129.573,122.019,128.32,122.019,126.965z M106.204,84.677
		c-0.527-0.303-1.418-0.99-1.901-0.801c-0.967,0.378-1.898,1.069-2.853,1.602c-6.184,3.447-12.381,7.046-18.467,10.459
		c-0.463,0.259-0.997,0.511-1.301,0.951c0.931,0.768,1.975,1.285,3.152,1.952c0.482,0.273,0.983,0.606,1.602,0.951
		c0.426,0.237,1.274,0.861,1.701,0.851c0.309-0.007,1.017-0.51,1.451-0.751c6.786-3.767,13.422-7.623,20.019-11.41
		c0.461-0.265,1.073-0.419,1.301-0.951C109.564,86.538,107.748,85.563,106.204,84.677z M122.019,137.524
		c0-0.98,0.225-2.921-0.051-3.704c-0.156-0.445-1.485-1.199-2.201-1.601c-5.85-3.286-11.471-6.515-17.115-9.759
		c-3.253-1.87-6.536-3.7-9.709-5.655c-3.206-1.976-6.561-3.687-9.759-5.605c-6.428-3.856-13.087-7.439-19.518-11.21
		c-5.558-3.259-11.43-6.504-17.064-9.809c-0.782-0.459-2.031-1.254-2.603-1.301c-2.111,1.176-4.25,2.323-6.156,3.703
		c0.216,0.461,0.755,0.659,1.151,0.901c1.292,0.788,2.601,1.537,3.903,2.302c3.493,2.049,6.963,4.037,10.51,6.005
		c1.767,0.981,3.501,2.055,5.255,3.053c3.516,2,7.086,3.936,10.609,5.955c7.051,4.042,13.985,8.13,20.969,12.161
		c9.621,5.555,19.381,11.019,28.926,16.615c0.872,0.511,1.698,1.139,2.651,1.501C122.165,140.094,122.019,138.864,122.019,137.524z
		 M117.014,90.883c-0.508-0.293-1.012-0.598-1.601-0.951c-0.604-0.361-1.506-0.96-2.001-0.701
		c-3.712,1.941-7.538,4.231-11.311,6.406c-2.853,1.644-5.635,3.309-8.407,4.854c-0.966,0.539-2.085,0.904-2.753,1.702
		c0.875,0.795,1.963,1.281,3.103,1.952c0.478,0.281,1,0.553,1.602,0.901c0.461,0.266,1.241,0.851,1.702,0.851
		c0.317,0,1.046-0.447,1.501-0.701c3.384-1.887,6.773-3.811,10.009-5.655c3.382-1.927,6.706-3.803,9.959-5.705
		c0.457-0.268,1.058-0.44,1.301-0.951C119.288,92.115,118.234,91.587,117.014,90.883z M36.193,94.986
		c-0.267,0.327-0.086,1.012-0.101,1.651c-0.041,1.835-0.113,3.944,0,5.605c0.736,0.729,1.725,1.096,2.603,1.602
		c0.886,0.51,1.719,1.1,2.601,1.601c5.448,3.09,10.822,6.094,16.215,9.158c7.163,4.069,14.247,8.298,21.419,12.361
		c3.579,2.027,7.145,4.095,10.71,6.155c7.164,4.142,14.256,8.339,21.419,12.361c2.701,1.517,5.347,3.173,8.007,4.654
		c0.902,0.502,1.761,1.154,2.752,1.501c0.261-0.48,0.15-1.114,0.15-1.702c0-1.874,0.042-3.88-0.05-5.605
		c-0.686-0.765-1.647-1.192-2.502-1.701c-11.472-6.824-23.233-13.372-34.781-20.018c-5.377-3.095-10.639-6.263-16.014-9.308
		c-3.587-2.032-7.124-4.151-10.76-6.105c-7.263-3.904-14.261-8.275-21.47-12.261c-0.002-0.031-0.007-0.059-0.05-0.05
		C36.283,94.91,36.229,94.939,36.193,94.986z M100.149,107.347c0.28,0.594,0.981,0.759,1.502,1.051
		c1.633,0.914,3.201,1.969,4.904,2.752c3.952-2.063,7.92-4.274,11.71-6.456c1.291-0.743,2.71-1.284,3.754-2.352
		c0.03-1.624-0.001-3.419,0-5.004c0-0.748,0.221-1.854-0.251-2.302C114.606,99.184,107.284,103.172,100.149,107.347z
		 M36.142,105.546c-0.197,1.922-0.101,4.4-0.05,6.406c0.642,0.73,1.583,1.066,2.402,1.551c0.819,0.485,1.621,1.028,2.452,1.502
		c5.073,2.891,10.068,5.837,15.113,8.707c6.753,3.842,13.447,7.764,20.218,11.561c1.676,0.939,3.264,2.037,4.954,2.952
		c1.702,0.921,3.328,1.989,5.005,2.953c10.094,5.802,20.107,11.708,30.227,17.415c1.285,0.835,2.708,1.567,4.004,2.352
		c0.426,0.258,0.847,0.718,1.401,0.65c0.228-1.436,0.038-3.355,0.1-5.004c0.021-0.564,0.146-1.262,0-1.652
		c-0.189-0.506-1.715-1.256-2.502-1.701c-2.754-1.558-5.399-3.192-8.007-4.654c-7.338-4.115-14.22-8.229-21.419-12.361
		c-2.688-1.543-5.381-3.104-8.058-4.604c-0.91-0.51-1.757-1.093-2.652-1.602c-10.826-6.15-21.339-12.388-32.179-18.466
		c-3.42-1.918-7.337-4.291-10.859-6.106C36.233,105.469,36.179,105.499,36.142,105.546z M121.668,105.595
		c-2.02,1.246-4.189,2.328-6.306,3.503c-1.549,0.859-3.103,1.735-4.604,2.602c-0.482,0.279-1.101,0.484-1.401,1.001
		c1.246,0.995,2.839,1.742,4.305,2.603c0.394,0.231,1.133,0.802,1.551,0.801c0.447-0.002,1.348-0.65,1.802-0.901
		c0.604-0.335,1.181-0.711,1.701-1.001c1.233-0.687,2.433-1.188,3.253-2.152c0.091-1.498,0.051-3.471,0.051-5.055
		c0-0.483,0.185-1.206-0.301-1.401C121.702,105.595,121.685,105.595,121.668,105.595z M36.142,115.304
		c-0.114,0.81-0.156,2.733-0.15,4.054c0.014,2.843,0.162,6.069,0.051,9.058c-0.022,0.602-0.166,1.239,0.15,1.752
		c2.229-1.081,4.313-2.402,6.455-3.603c2.15-1.206,4.289-2.434,6.356-3.753c-0.762-0.922-1.992-1.378-3.053-2.002
		c-3.249-1.838-6.309-3.866-9.658-5.604C36.233,115.228,36.179,115.258,36.142,115.304z M121.468,115.454
		c-0.538,0.31-1.137,0.699-1.752,1.051c-0.617,0.354-1.327,0.644-1.701,1.151c0.422,0.607,1.214,0.869,1.852,1.251
		c0.645,0.386,1.251,0.992,2.002,1.051c0.202-0.906,0.15-1.989,0.15-3.053c0-0.585,0.158-1.305-0.251-1.551
		C121.579,115.32,121.538,115.414,121.468,115.454z M55.109,126.013c-0.904-0.521-2.381-1.465-3.402-1.751
		c-2.64,1.46-5.298,3.021-7.957,4.504c-1.311,0.73-2.626,1.453-3.904,2.202c-0.638,0.374-1.265,0.799-1.901,1.151
		c-0.646,0.358-1.349,0.652-1.852,1.201c-0.122,2.247-0.19,5.079,0.05,7.307c0.557,0.055,0.969-0.4,1.401-0.65
		c1.41-0.816,2.78-1.597,4.153-2.402c5.044-2.958,10.23-5.793,15.264-8.658c0.441-0.251,0.977-0.501,1.252-0.951
		C57.361,127.182,56.26,126.677,55.109,126.013z M62.665,130.367c-0.602-0.369-1.364-1.01-1.901-0.751
		c-2.1,1.014-4.162,2.262-6.256,3.453c-4.118,2.343-8.368,4.736-12.411,7.107c-2.087,1.224-4.126,2.428-6.055,3.703
		c-0.032,2.32-0.195,5.197,0.1,7.356c1.484-0.42,2.653-1.438,3.954-2.202c1.283-0.753,2.592-1.533,3.903-2.252
		c7.253-3.98,14.367-8.389,21.569-12.311c0.639-0.349,1.42-0.604,1.852-1.252C66.122,132.14,64.241,131.334,62.665,130.367z
		 M73.276,136.423c-0.847-0.179-2.371-1.993-3.354-1.502c-2.864,1.432-5.697,3.156-8.558,4.804
		c-5.646,3.253-11.384,6.578-17.016,9.759c-2.165,1.223-4.261,2.514-6.355,3.703c-0.685,0.389-1.49,0.732-1.951,1.401
		c-0.091,1.027-0.051,2.199-0.051,3.353c0,1.161-0.117,2.368,0.15,3.303c1.802-0.718,3.366-1.869,5.055-2.802
		c1.674-0.925,3.347-1.887,5.005-2.853c9.558-5.566,19.264-10.975,28.775-16.465c0.395-0.228,0.905-0.422,1.151-0.851
		C75.37,137.465,74.23,137.036,73.276,136.423z"/>
</g>
<g id="Layer_1">
</g>
</svg>
