<?xml version="1.0" encoding="iso-8859-1"?>
<!-- Generator: Adobe Illustrator 21.0.2, SVG Export Plug-In . SVG Version: 6.00 Build 0)  -->
<svg version="1.1" xmlns="http://www.w3.org/2000/svg" xmlns:xlink="http://www.w3.org/1999/xlink" x="0px" y="0px"
	 viewBox="0 0 33.419 33.909" style="enable-background:new 0 0 33.419 33.909;" xml:space="preserve">
<g id="Great_x5F_Alpine_x5F_Road">
	<path d="M12.112,0.716c4.163-1.292,8.848-0.824,12.656,1.307c4.843,2.568,8.199,7.71,8.651,13.153
		c-2.711,1.679-5.887,2.62-9.067,2.783c-2.486-4.767-4.947-9.558-7.463-14.315c-1.434,2.591-2.732,5.255-4.158,7.852
		c-2.127-0.474-4.279-0.811-6.456-0.854c-1.726,0.099-3.562,0.21-5.199,0.606C2.76,6.249,7.048,2.193,12.112,0.716z"/>
	<path d="M16.919,12.366c0.04,0,0.119,0,0.159,0c0.965,1.926,2.013,3.817,2.932,5.761c-1.8-0.342-3.588-0.83-5.227-1.659
		C15.457,15.084,16.216,13.737,16.919,12.366z"/>
	<path d="M0.084,15.298c3.448-1.223,7.237-1.274,10.789-0.527c-1.562,3.553-3.693,6.916-5.298,10.47
		c1.394-0.02,2.79-0.028,4.184,0.01c1.158-1.904,2.039-4.005,3.166-5.897c2.814,1.324,5.886,2.074,8.979,2.296
		c0.713,1.142,1.239,2.424,1.914,3.601c1.396-0.027,2.793,0.014,4.189-0.013c-0.513-1.293-1.296-2.472-1.813-3.76
		c2.48-0.331,4.889-1.06,7.166-2.081c-0.601,3.818-2.346,7.502-5.237,10.117c-2.183,1.944-4.846,3.412-7.725,4.003
		c-4.381,0.987-9.148,0.088-12.855-2.457C2.348,27.767-0.54,21.374,0.084,15.298z"/>
</g>
<g id="Layer_1">
</g>
</svg>
