<?xml version="1.0" encoding="iso-8859-1"?>
<!-- Generator: Adobe Illustrator 19.2.0, SVG Export Plug-In . SVG Version: 6.00 Build 0)  -->
<svg version="1.1" xmlns="http://www.w3.org/2000/svg" xmlns:xlink="http://www.w3.org/1999/xlink" x="0px" y="0px"
	 viewBox="0 0 78.039 78.308" style="enable-background:new 0 0 78.039 78.308;" xml:space="preserve">
<g id="great_x5F_western_x5F_united_x5F_corporation">
	<path style="fill-rule:evenodd;clip-rule:evenodd;" d="M67.215,66.188c-4.018,4.354-8.666,7.549-14.68,9.77
		c-2.901,1.072-6.352,1.965-9.964,2.236c-3.697,0.277-7.689,0.043-11.276-0.632c-6.447-1.214-12.016-4.23-16.574-7.874
		c-4.517-3.61-8.252-8.397-10.791-13.61C1.235,50.545-0.518,43.485,0.138,35.81c0.62-7.233,2.994-13.187,6.223-18.179
		c3.981-6.157,9.57-10.876,16.525-14.047c1.417-0.646,2.81-1.28,4.326-1.75c1.608-0.498,3.242-0.845,4.958-1.166
		c1.758-0.33,3.644-0.538,5.638-0.632c4.781-0.225,9.166,0.658,12.881,1.799c7.45,2.288,13.064,6.498,17.644,11.665
		c4.591,5.179,7.994,11.582,9.283,20.026c0.66,4.32,0.545,9.156-0.34,13.416C75.612,54.954,71.992,61.194,67.215,66.188z
		 M28.184,24.776c0,1.736-0.125,3.505,0,5.201c0.225,3.036,1.634,5.278,3.354,6.999c1.707,1.708,4.307,2.95,7.485,2.917
		c3.357-0.036,5.559-1.277,7.388-2.965c1.751-1.616,3.106-4.121,3.257-7.145c0.163-3.27-0.046-6.654,0.049-10.062
		c0.092-3.34-0.072-6.741-0.146-10.061c-1.297-0.687-3.142-1.201-5.056-1.506c-1.858-0.296-4.34-0.527-6.271-0.438
		c-3.748,0.173-7.381,0.69-10.013,1.944C28.111,14.581,28.185,19.738,28.184,24.776z M57.397,13.936
		c-0.122,0.676-0.049,1.927-0.049,2.868c-0.001,3.099-0.095,6.1,0,8.847c0.144,4.151-0.25,7.634-1.409,10.596
		c-1.635,4.175-4.862,7.427-8.652,9.332c-1.345,0.676-2.857,1.011-4.374,1.653c-0.109,6.584-0.05,13.496-0.049,20.269
		c0,0.95-0.119,1.921,0.146,2.819c1.756-0.042,3.429-0.482,5.006-0.924c4.641-1.297,8.529-3.685,11.715-6.416
		c2.156-1.848,3.901-4.083,5.492-6.562c1.614-2.515,2.951-5.232,3.889-8.214c2.085-6.629,1.33-15.16-0.972-20.658
		c-2.39-5.706-5.814-10.405-10.548-13.658c-0.003-0.03-0.008-0.058-0.049-0.049C57.486,13.863,57.432,13.892,57.397,13.936z
		 M30.76,45.628c-2.625-1.277-4.858-3.188-6.561-5.444c-0.842-1.115-1.497-2.555-2.09-3.937c-0.6-1.398-1.037-2.936-1.264-4.715
		c-0.461-3.614-0.194-7.824-0.194-11.86c0-1.41,0.216-3.659,0-5.249c-0.073-0.533-0.166-0.499-0.486-0.389
		c-0.462,0.159-1.159,0.901-1.652,1.312c-3.938,3.282-6.697,7.389-8.749,12.346c-1.158,2.797-2.034,6.265-2.091,9.964
		c-0.059,3.845,0.376,7.41,1.361,10.596c1.844,5.959,5.233,10.938,9.479,14.582c4.335,3.722,9.516,6.813,16.525,7.485
		c0.323-0.84,0.125-1.771,0.146-2.673c0.16-6.747,0.056-13.781-0.049-20.415C33.51,46.622,32.063,46.261,30.76,45.628z"/>
</g>
<g id="Layer_1">
</g>
</svg>
