<svg xmlns="http://www.w3.org/2000/svg" viewBox="0 0 115.07 122.61"><defs><style>.cls-1{fill:#1e1e1c;}</style></defs><title>Element 1</title><g id="Ebene_2" data-name="Ebene 2"><g id="Ebene_1-2" data-name="Ebene 1"><path class="cls-1" d="M54.785.064a57.539,57.539,0,0,0-10.362,113.5.246.246,0,0,1,.191.24v7.807a1,1,0,0,0,1,1H51.69a1,1,0,0,0,1-1V107.649a1,1,0,0,0-.888-.986,49.459,49.459,0,1,1,11.464,0,.993.993,0,0,0-.887.985V121.61a1,1,0,0,0,1,1h6.076a1,1,0,0,0,1-1V113.8a.246.246,0,0,1,.191-.24A57.539,57.539,0,0,0,54.785.064Z"/><path class="cls-1" d="M54.533,16.156a41.483,41.483,0,0,0-2.98,82.424,1,1,0,0,0,1.137-1V91.435a1,1,0,0,0-.836-.978,33.41,33.41,0,1,1,11.362,0,1,1,0,0,0-.836.978v6.147a1.006,1.006,0,0,0,1.139,1,41.483,41.483,0,0,0-8.986-82.424Z"/><path class="cls-1" d="M54.555,32.153a25.553,25.553,0,0,0-3.08,50.2,1,1,0,0,0,1.216-.979V75.052a1,1,0,0,0-.7-.945,17.477,17.477,0,1,1,11.084,0,1,1,0,0,0-.7.949v6.324a1,1,0,0,0,1.214.978,25.553,25.553,0,0,0-9.04-50.2Z"/></g></g></svg>