<?xml version="1.0" encoding="iso-8859-1"?>
<!-- Generator: Adobe Illustrator 19.2.0, SVG Export Plug-In . SVG Version: 6.00 Build 0)  -->
<svg version="1.1" xmlns="http://www.w3.org/2000/svg" xmlns:xlink="http://www.w3.org/1999/xlink" x="0px" y="0px"
	 viewBox="0 0 165.47 94.884" style="enable-background:new 0 0 165.47 94.884;" xml:space="preserve">
<g id="Groep_x5F_De_x5F_Bondt">
	<path style="fill-rule:evenodd;clip-rule:evenodd;" d="M109.432,0.215c0.223,11.173,0.047,22.342,0.047,33.211
		c-0.002,10.732,0.105,22.335-0.139,33.211c-4.102,0.079-8.436,0-12.686,0c-4.243,0.001-8.494,0.174-12.592,0
		c-0.166-16.551,0-33.178,0-49.956c-0.001-5.559-0.048-11.077,0.138-16.421c1.345-0.25,2.78-0.117,4.197-0.185
		c2.927-0.138,5.658-0.046,8.673-0.046C101.197,0.03,105.52-0.022,109.432,0.215z"/>
	<path style="fill-rule:evenodd;clip-rule:evenodd;" d="M112.477,0.169c6.194,0.049,12.526,0.045,18.774,0.046
		c2.086,0,4.182-0.112,6.182,0.138c0.154,10.594,0.045,21.979,0.045,33.166c0,11.308,0.043,22.192-0.139,33.211
		c-8.035,0.188-16.935,0.096-25.092-0.046c-0.021-0.041-0.041-0.082-0.094-0.092c-0.053-21.514,0.046-42.687,0.047-64.348
		c0-0.695-0.074-1.667,0.139-1.983C112.372,0.217,112.423,0.191,112.477,0.169z"/>
	<path style="fill-rule:evenodd;clip-rule:evenodd;" d="M25.342,28.352c0.111,6.089,0.046,12.404,0.046,18.912
		c0,6.466,0.102,13.026-0.139,19.281c-8.383,0.152-17.055,0.159-25.093-0.046c-0.195-0.725-0.092-1.514-0.092-2.26
		c0-12.24-0.016-24.004,0.046-35.887c4.357-0.187,9.097-0.093,13.7-0.092C17.655,28.26,21.5,28.183,25.342,28.352z"/>
	<path style="fill-rule:evenodd;clip-rule:evenodd;" d="M53.25,28.49c0.184,10.894,0.092,22.051,0.092,33.212
		c0,11.047,0.007,22.289-0.185,33.073c-8.358,0.177-16.93,0.121-25.047-0.046c-0.225-21.798-0.002-42.355,0-64.394
		c0-0.636-0.11-1.331,0.139-1.938c7.04-0.129,14.806-0.046,22.049-0.046C51.277,28.352,52.3,28.244,53.25,28.49z"/>
	<path style="fill-rule:evenodd;clip-rule:evenodd;" d="M81.249,28.49c0.144,12.53,0.192,25.797-0.046,38.193
		c-8.309,0.178-16.658,0.079-25.14-0.046c-0.301-6.127,0.181-12.742,0-19.235c-0.158-5.699,0-11.297,0-16.744
		c0-0.733-0.148-1.564,0.185-2.26C64.31,28.344,73.07,28.336,81.249,28.49z"/>
	<path style="fill-rule:evenodd;clip-rule:evenodd;" d="M165.383,28.583c0.162,10.568,0.047,22.207,0.047,33.488
		c0,1.578,0.111,3.17-0.139,4.705c-7.957,0.054-17,0.122-25.092-0.046c-0.197-6.266-0.047-12.675-0.047-19.05
		c0-6.39-0.107-12.845,0.139-19.097C148.413,28.388,157.1,28.447,165.383,28.583z"/>
	<path style="fill-rule:evenodd;clip-rule:evenodd;" d="M25.25,69.405c0.154,8.207,0.154,17.07,0,25.324
		c-8.132,0.134-17.031,0.198-25.139-0.046c-0.144-1.998-0.115-4.233-0.093-6.366c0.058-5.479,0.046-11.568,0.046-17.62
		c0-0.71-0.143-1.313,0.415-1.43c0.871-0.182,2.128,0,3.229,0c1.112,0,2.218,0.005,3.137,0c5.449-0.03,10.369-0.007,15.499,0.046
		C23.332,69.323,24.315,69.146,25.25,69.405z"/>
</g>
<g id="Layer_1">
</g>
</svg>
