<?xml version="1.0" encoding="iso-8859-1"?>
<!-- Generator: Adobe Illustrator 19.2.0, SVG Export Plug-In . SVG Version: 6.00 Build 0)  -->
<svg version="1.1" xmlns="http://www.w3.org/2000/svg" xmlns:xlink="http://www.w3.org/1999/xlink" x="0px" y="0px"
	 viewBox="0 0 75.867 76.011" style="enable-background:new 0 0 75.867 76.011;" xml:space="preserve">
<g id="Groupe_x5F_Pechiney">
	<path style="fill-rule:evenodd;clip-rule:evenodd;" d="M40.969,0.23c0.062,0.404-0.479,0.602-0.717,0.861
		c-2.035,1.777-4.101,3.521-6.123,5.311c-2.356,1.996-4.659,4.047-7.032,6.027c-2.331,2.037-4.665,4.07-6.983,6.121
		c-1.75,1.463-3.409,3.025-5.214,4.594c-0.989,0.859-2.538,2.195-1.626,4.16c0.469,1.014,1.628,1.98,2.487,2.822
		c5.793,5.678,11.713,11.187,17.412,16.887c0.432,0.432,1.018,0.791,1.244,1.387c-4.835,0.293-10.396,0.076-15.594,0.142
		c-3.474-2.979-6.581-6.531-10.141-10.092c-1.237-1.238-2.552-2.504-3.827-3.779c-0.414-0.414-0.748-0.885-1.148-1.34
		c-0.755-0.861-1.712-1.623-2.392-2.678c-0.962-1.494-1.428-3.215-1.291-5.502c0.099-1.668,1.066-3.223,1.913-4.305
		c0.939-1.199,1.979-2.203,3.061-3.156c2.054-2.076,4.208-4.051,6.458-5.932c3.618-3.101,7.721-6.863,11.528-10.236
		c0.5-0.443,1.325-1.342,1.865-1.436c1.225-0.213,2.808,0.027,4.066,0.047C32.886,0.199,37.046-0.053,40.969,0.23z"/>
	<path style="fill-rule:evenodd;clip-rule:evenodd;" d="M46.805,61.218c-0.256,1.131-0.144,2.383-0.144,3.637
		c0,3.631,0.087,7.67-0.096,11.049c-3.498,0.17-7.664,0.139-11.098-0.096c-0.219-8.863-0.119-17.693-0.048-26.164
		c5.37-0.156,10.68-0.049,16.168-0.049c1.431,0,2.838,0.094,4.114,0c3.629-0.264,6.032-2.207,7.558-4.783
		c1.115-1.881,1.454-4.543,0.909-6.793c-0.782-3.229-2.941-5.428-5.836-6.506c-1.057-0.392-2.121-0.506-3.539-0.572
		c-2.508-0.119-5.192-0.059-7.893,0.047c-0.254,1.363-0.144,2.84-0.144,4.305c0,4.316,0.079,8.998-0.096,13.203
		c-3.556,0.188-7.701,0.121-11.241-0.049c-0.286-5.342,0.095-11.35-0.191-16.693c-0.946-0.332-2.058-0.191-3.157-0.191
		c-2.158,0-4.41-0.039-6.601,0c-1.088,0.019-2.182,0.199-3.157-0.096c-0.182-2.625-0.096-5.664-0.096-8.609
		c0-0.766-0.195-2.564,0.287-2.68c0.527-0.125,1.437-0.047,2.152-0.047c4.269,0,9.022,0.066,13.394,0.047
		c5.153-0.023,10.346,0.148,15.068,0c5.229-0.164,9.29,0.873,12.628,2.871c4.834,2.893,8.297,7.32,9.662,13.537
		c1.621,7.377-1.324,13.732-4.735,17.602c-2.391,2.711-5.544,4.832-9.423,6.027c-2.017,0.621-4.284,0.91-6.84,0.908
		C51.953,61.123,49.383,61.044,46.805,61.218z"/>
</g>
<g id="Layer_1">
</g>
</svg>
