<?xml version="1.0" encoding="iso-8859-1"?>
<!-- Generator: Adobe Illustrator 19.2.0, SVG Export Plug-In . SVG Version: 6.00 Build 0)  -->
<svg version="1.1" xmlns="http://www.w3.org/2000/svg" xmlns:xlink="http://www.w3.org/1999/xlink" x="0px" y="0px"
	 viewBox="0 0 73.86 46.269" style="enable-background:new 0 0 73.86 46.269;" xml:space="preserve">
<g id="Groupe_x5F_Kastuan">
	<path style="fill-rule:evenodd;clip-rule:evenodd;" d="M19.808,5.185c1.441-1.909,3.3-3.391,5.888-4.247
		c2.601-0.86,5.972-0.579,9.41-0.579c10.107,0,19.914-0.096,29.824-0.096c1.84,0,3.373-0.061,4.682,0.386
		c2.292,0.783,4.176,2.918,4.246,5.839c0.073,3.001-1.365,5.387-3.57,6.418c-0.554,0.259-1.211,0.488-1.931,0.579
		c-0.692,0.088-1.482-0.005-2.316,0.193c-1.438,0.342-2.604,1.555-2.848,3.041c-0.204,1.253-0.097,2.604-0.097,3.86
		c0,3.745-0.185,8.055-0.048,11.727c0.092,2.465,0.094,5.462-0.097,7.722c-0.194,2.302-1.301,3.918-2.799,5.067
		c-1.596,1.223-4.403,1.448-6.322,0.627c-1.753-0.75-3.112-2.318-3.619-4.295c-0.536-2.088-0.241-5.195-0.241-7.577
		c0-5.259,0-10.438,0-15.491c0-2.545-0.93-4.332-3.185-4.73c-2.505-0.441-4.236,1.295-4.536,3.282
		c-0.374,2.478,1.629,3.677,2.896,4.874c1.296,1.226,2.378,2.941,3.137,4.778c0.798,1.93,1.278,4.287,1.062,6.756
		c-0.415,4.74-2.731,7.82-5.598,10.183c-2.053,1.588-4.522,2.601-7.818,2.751c-3.275,0.148-6.166-0.762-8.349-2.075
		c-2.172-1.307-4.124-2.927-6.129-4.392c-1.001-0.73-1.996-1.517-2.992-2.268c-0.995-0.751-1.996-1.743-3.378-1.882
		c-2.814,0.039-1.556,4.098-2.316,6.177c-1.112,3.038-4.827,5.575-8.88,3.716c-2.079-0.954-3.538-2.775-3.765-5.502
		c-0.232-2.799-0.049-5.812-0.048-9.169c0.001-7.58-0.001-15.157,0-22.827c0-1.601-0.004-2.991,0.482-4.102
		c0.909-2.078,3.014-3.716,5.502-3.909c3.061-0.238,5.256,1.582,6.273,3.523c0.586,1.117,0.769,2.42,0.724,4.054
		c-0.041,1.517-0.138,3.824,1.304,3.716c0.728-0.055,1.193-0.69,1.641-1.255C17.364,8.331,18.582,6.801,19.808,5.185z M26.757,15.85
		c-1.064,1.471-2.098,2.673-3.137,4.102c-0.734,1.009-1.591,1.766-1.545,3.233c0.389,1.06,1.461,1.648,2.413,2.316
		c2.296,1.609,4.643,3.363,6.901,4.971c0.493,0.351,0.981,0.761,1.448,0.965c2.774,1.213,4.606-2.775,2.461-4.247
		c-0.978-0.593-1.78-0.921-2.559-1.593c-2.095-1.81-4.619-5.814-3.522-9.796c0.139-0.502,0.427-1.089,0.29-1.496
		c-0.1-0.294-0.675-0.649-0.965-0.435C27.946,14.131,27.2,15.238,26.757,15.85z"/>
</g>
<g id="Layer_1">
</g>
</svg>
