<?xml version="1.0" encoding="iso-8859-1"?>
<!-- Generator: Adobe Illustrator 19.2.0, SVG Export Plug-In . SVG Version: 6.00 Build 0)  -->
<svg version="1.1" xmlns="http://www.w3.org/2000/svg" xmlns:xlink="http://www.w3.org/1999/xlink" x="0px" y="0px"
	 viewBox="0 0 65.307 77.568" style="enable-background:new 0 0 65.307 77.568;" xml:space="preserve">
<g id="Growth_x5F_Fund_x5F_of_x5F_America">
	<path style="fill-rule:evenodd;clip-rule:evenodd;" d="M35.69,43.341c0.719-0.177,0.877-0.955,1.155-1.444
		c0.913-1.604,2.18-2.969,3.516-4.238c3.536-3.357,8.356-5.151,14.977-5.73c2.247-0.196,4.818-0.407,7.368-0.434
		c0.893-0.009,1.934-0.158,2.264,0.192c0.342,0.364,0.275,2.65,0.289,3.226c0.03,1.264,0.048,2.347,0.048,3.419
		c0.001,4.546,0.012,9.022-0.674,13.003c-0.698,4.054-1.684,7.44-3.323,10.546c-0.795,1.507-1.708,3.05-2.696,4.238
		c-2.19,2.631-4.559,4.763-7.368,6.501c-2.79,1.728-6.065,3.348-9.776,4.094c-5.541,1.113-13.325,1.289-18.588-0.386
		C10.717,72.458,2.601,64.035,0.679,49.987c-1.135-8.302-0.807-17.97,0.675-25.619c1.487-7.684,4.993-13.541,10.257-17.481
		c4.086-3.059,8.548-5.1,14.544-6.26c5.566-1.078,12.862-0.717,17.818,0.722c3.207,0.931,6.206,2.401,8.571,4.142
		c2.292,1.687,4.505,3.924,6.261,6.501c1.232,1.81,2.392,3.903,3.371,6.164c0.256,0.592,0.972,1.872,0.674,2.312
		c-0.269,0.396-2.007,0.209-2.938,0.241c-7.11,0.246-13.745,1.052-18.011,4.094c-2.429,1.731-4.511,4.162-5.394,7.224
		c-0.811,2.811-1.065,6.432-1.011,9.968C35.504,42.422,35.37,42.963,35.69,43.341z M24.711,63.182c-0.095-3.395,0-6.931,0-10.45
		c0-9.507-0.382-19.076,2.455-25.619c1.451-3.347,3.362-5.881,6.116-7.946c3.087-2.368,7.201-3.77,12.039-4.334
		c0.702-0.082,1.559-0.005,1.927-0.434c0.065-0.596-0.598-0.879-1.012-1.156c-2.173-1.745-5.398-2.813-8.86-3.226
		c-3.804-0.453-8.027-0.214-11.269,0.674c-2.687,0.735-5.069,1.964-6.839,3.516c-2.636,2.312-4.275,5.304-5.345,9.198
		c-1.206,5.704-1.396,12.752-1.397,19.696c-0.001,6.865,0.923,13.349,3.853,17.288c1.406,2.08,3.215,3.862,5.442,5.104
		c0.748,0.417,1.604,1,2.601,0.866C24.896,65.424,24.74,64.246,24.711,63.182z M51.245,43.438
		c-6.887,1.184-12.15,4.755-14.303,10.787c-0.906,2.668-0.771,6.466-0.77,10.017c0,1.183-0.148,2.412,0.192,3.419
		c0.784,0.334,1.656-0.031,2.408-0.24c5.124-1.429,9.412-4.788,11.558-9.054c1.419-2.822,2.166-6.563,2.167-10.836
		c0-1.355,0.134-2.828-0.337-3.997C51.9,43.332,51.49,43.395,51.245,43.438z"/>
</g>
<g id="Layer_1">
</g>
</svg>
