<?xml version="1.0" encoding="iso-8859-1"?>
<!-- Generator: Adobe Illustrator 21.0.2, SVG Export Plug-In . SVG Version: 6.00 Build 0)  -->
<svg version="1.1" xmlns="http://www.w3.org/2000/svg" xmlns:xlink="http://www.w3.org/1999/xlink" x="0px" y="0px"
	 viewBox="0 0 20.372 20.589" style="enable-background:new 0 0 20.372 20.589;" xml:space="preserve">
<g id="Grupo_x5F_Financiero_x5F_del_x5F_Atlantico">
	<path d="M8.715,0.202c0.186-0.109,0.391-0.212,0.613-0.201c0.114,0.005,0.238-0.018,0.343,0.037
		c1.395,0.741,2.778,1.503,4.179,2.233c0.391,0.201,0.775,0.413,1.167,0.613c0.205,0.089,0.397,0.274,0.383,0.514
		c-0.001,1.688,0.003,3.376-0.002,5.064c0.116,0.089,0.249,0.152,0.378,0.222c1.347,0.744,2.699,1.481,4.047,2.225
		c0.288,0.169,0.434,0.493,0.503,0.807c0.055,0.182,0.036,0.374,0.043,0.561c0,1.438,0,2.876,0,4.314
		c0.02,0.207-0.177,0.334-0.332,0.427c-1.83,1.158-3.656,2.322-5.485,3.482c-0.211,0.157-0.493,0.085-0.7-0.04
		c-1.464-0.846-2.925-1.696-4.388-2.544c-0.047-0.037-0.097,0.017-0.138,0.036c-1.1,0.689-2.204,1.372-3.307,2.057
		c-0.274,0.164-0.533,0.367-0.846,0.452c-0.428,0.124-0.898,0.038-1.272-0.198c-1.1-0.675-2.201-1.347-3.305-2.016
		c-0.233-0.136-0.461-0.322-0.538-0.591C0.033,17.543-0.003,17.43,0,17.314c0.002-1.981-0.002-3.963,0.002-5.944
		c0.046-0.304,0.139-0.651,0.426-0.814c1.419-0.853,2.826-1.727,4.247-2.578c0.008-1.43,0.001-2.86,0.003-4.29
		c0.027-0.314,0.062-0.637,0.2-0.926C4.984,2.55,5.123,2.342,5.332,2.22C6.455,1.54,7.59,0.878,8.715,0.202z M9.545,1.138
		c-0.018,0.064-0.05,0.125-0.049,0.193c0.001,2.803,0,5.605,0,8.408c-0.011,0.227-0.06,0.453-0.137,0.667
		c-0.105,0.315-0.339,0.58-0.637,0.726C7.5,11.892,6.262,12.628,5.04,13.39c-0.13,0.09-0.307,0.084-0.451,0.043
		c-1.122-0.633-2.234-1.283-3.358-1.912c-0.074-0.051-0.166-0.028-0.249-0.023c-0.011,0.114-0.011,0.228-0.01,0.343
		c0.003,1.778-0.003,3.555,0.003,5.332c0.057-0.017,0.117-0.026,0.166-0.061c2.349-1.432,4.709-2.845,7.058-4.276
		c0.26-0.143,0.499-0.329,0.788-0.412c0.21-0.086,0.442-0.071,0.664-0.054c0.284,0.093,0.526,0.273,0.787,0.414
		c1.122,0.644,2.245,1.286,3.367,1.929c0.154,0.083,0.275,0.228,0.32,0.398c0.05,0.32,0.027,0.645,0.032,0.968
		c0.001,1.027-0.002,2.054,0.001,3.08c-0.006,0.121,0.065,0.292,0.21,0.274c0.147-0.003,0.261-0.117,0.384-0.186
		c1.515-0.962,3.027-1.93,4.546-2.885c0.034-0.018,0.048-0.054,0.065-0.086c-2.688-1.501-5.367-3.02-8.055-4.523
		c-0.348-0.207-0.57-0.596-0.58-1c0.001-1.487,0-2.974,0-4.461c0.004-0.116,0.057-0.227,0.122-0.321
		c0.123-0.128,0.285-0.209,0.431-0.307c0.866-0.559,1.739-1.109,2.604-1.671c0.128-0.086,0.27-0.153,0.377-0.266
		c0.022-0.041,0.029-0.107-0.017-0.135c-0.117-0.095-0.261-0.148-0.391-0.22c-1.373-0.742-2.751-1.475-4.122-2.222
		C9.677,1.114,9.607,1.133,9.545,1.138z M8.043,1.812C7.831,1.905,7.64,2.039,7.439,2.151C6.998,2.412,6.557,2.67,6.118,2.932
		C5.85,3.1,5.679,3.407,5.685,3.725c-0.002,2.537,0,5.075-0.001,7.612c-0.01,0.124,0.054,0.259,0.177,0.3
		c0.151,0.033,0.299-0.036,0.424-0.116c0.569-0.374,1.151-0.728,1.717-1.108c0.313-0.207,0.426-0.607,0.441-0.962
		c0.004-2.465,0.001-4.93,0.001-7.395c0.022-0.112-0.061-0.191-0.126-0.269C8.226,1.788,8.128,1.769,8.043,1.812z M14.256,4.933
		c-0.179,0.091-0.342,0.21-0.513,0.314c-0.534,0.348-1.076,0.686-1.612,1.032c-0.105,0.058-0.173,0.167-0.134,0.288
		c0.075,0.108,0.199,0.161,0.309,0.224c0.641,0.359,1.275,0.732,1.913,1.096c0.101,0.077,0.241-0.033,0.236-0.143
		c0-0.891,0.001-1.783-0.001-2.674C14.45,4.983,14.346,4.861,14.256,4.933z M11.935,7.786c-0.143,0.11-0.154,0.305-0.191,0.468
		c-0.004,0.629-0.001,1.258-0.001,1.887c0.037,0.304,0.116,0.617,0.312,0.861c0.166,0.211,0.389,0.369,0.628,0.488
		c2.078,1.131,4.151,2.271,6.228,3.403c0.122,0.059,0.244,0.143,0.386,0.131c0.132,0.019,0.199-0.134,0.194-0.244
		c-0.002-0.787,0.002-1.574-0.002-2.36c-0.041-0.443-0.384-0.782-0.751-0.993c-2.18-1.2-4.358-2.404-6.537-3.605
		C12.123,7.778,12.017,7.731,11.935,7.786z M4.493,9.349c-0.709,0.4-1.412,0.812-2.12,1.215c-0.102,0.061-0.247,0.155-0.195,0.295
		c0.097,0.114,0.237,0.173,0.364,0.245c0.65,0.366,1.293,0.744,1.949,1.097c0.061,0.046,0.127,0.007,0.182-0.027
		c0.012-0.921,0.005-1.843,0.004-2.764C4.69,9.305,4.554,9.296,4.493,9.349z M8.568,13.841c-2.046,1.252-4.094,2.499-6.139,3.753
		c-0.097,0.051-0.162,0.139-0.217,0.232c0.053,0.122,0.135,0.232,0.256,0.295c0.451,0.255,0.888,0.534,1.333,0.8
		c0.145,0.084,0.284,0.184,0.444,0.239c0.3,0.12,0.639,0.128,0.949,0.042c0.223-0.062,0.417-0.192,0.613-0.312
		c1.935-1.168,3.872-2.333,5.806-3.504c0.142-0.078,0.282-0.17,0.374-0.306c0.038-0.109-0.023-0.207-0.121-0.255
		c-0.563-0.33-1.129-0.657-1.689-0.993c-0.209-0.114-0.412-0.286-0.664-0.271C9.175,13.531,8.852,13.672,8.568,13.841z
		 M12.821,15.79c-0.647,0.389-1.283,0.798-1.929,1.192c-0.129,0.081-0.27,0.161-0.35,0.296c-0.023,0.127,0.084,0.221,0.185,0.275
		c0.698,0.403,1.396,0.808,2.092,1.213c0.088,0.038,0.189,0.019,0.282,0.017c0.041-0.061,0.103-0.12,0.09-0.2
		c0.001-0.859,0.001-1.719,0-2.578c0.013-0.1-0.068-0.166-0.126-0.235C12.985,15.775,12.896,15.752,12.821,15.79z"/>
</g>
<g id="Layer_1">
</g>
</svg>
