<?xml version="1.0" encoding="iso-8859-1"?>
<!-- Generator: Adobe Illustrator 19.2.0, SVG Export Plug-In . SVG Version: 6.00 Build 0)  -->
<svg version="1.1" xmlns="http://www.w3.org/2000/svg" xmlns:xlink="http://www.w3.org/1999/xlink" x="0px" y="0px"
	 viewBox="0 0 83.209 42.156" style="enable-background:new 0 0 83.209 42.156;" xml:space="preserve">
<g id="Gugelmann_x5F_and_x5F_Cie">
	<path style="fill-rule:evenodd;clip-rule:evenodd;" d="M82.709,0.389c0.167,1.671,0.178,4.029,0,5.698
		c-1.335,0.224-2.879,0.104-4.496,0.104c-4.539,0-9.156,0.219-13.747,0c-3.059-0.146-6.205,0-9.305,0
		c-8.929-0.001-18.125-0.052-27.6-0.052c-4.378-0.001-8.765-0.054-13.591-0.053c-1.981,0-4.159-0.197-5.279,0.471
		c-2.348,1.397-2.694,6.142,0.418,7.057c1.103,0.324,2.721,0.157,4.13,0.156c20.802-0.003,40.522,0.226,61.21,0.262
		c0.523,0.001,1.328,0.119,1.673-0.418c-0.323-0.673-1.198-0.387-1.725-0.366c-2.076,0.083-4.288,0.091-6.43,0
		c-2.751-0.116-5.56-0.031-8.206-0.052c-11.416-0.089-22.555,0.139-34.135-0.157c-1.333-0.034-2.773,0.013-4.182,0.053
		c-1.382,0.038-2.766-0.104-4.182-0.104c-4.087,0-9.738,1.031-9.461-3.189c0.078-1.184,0.776-2.348,1.829-2.665
		c1.071-0.324,2.893-0.105,4.339-0.105c7.434-0.001,14.333-0.094,21.641,0.052c8.718,0.174,16.983,0.052,25.927,0.053
		c2.567,0,5.74,0.104,8.73,0.104c2.924,0,6.157-0.251,8.311,0.366c2.01,0.574,3.376,1.987,4.13,3.658
		c0.348,0.772,0.557,2.265,0.47,3.293c-0.258,3.095-2.796,5.362-5.802,5.803c-2.247,0.33-5.12,0.104-7.632,0.104
		c-5.013-0.001-10.173-0.104-15.211-0.053c-2.432,0.025-4.901-0.156-7.371-0.052c-2.517,0.105-5.08-0.116-7.527,0
		c-4.977,0.237-10.12-0.054-15.211-0.053c-2.523,0.001-5.037,0-7.527,0c-2.537,0.001-5.126,0.057-7.579-0.156
		c-4.221-0.366-7.56-3.309-8.73-6.743C-0.953,8.877,0.771,4.538,3.83,2.428c1.565-1.337,3.541-2.049,6.063-2.352
		c1.428-0.172,3.051-0.001,4.6,0c19.85,0.003,39.75,0.21,59.382,0.209C76.842,0.285,79.802,0.09,82.709,0.389z"/>
	<path style="fill-rule:evenodd;clip-rule:evenodd;" d="M82.709,22.083c0.185,0.826,0.104,1.911,0.104,2.928
		c0,1.025,0.112,2.057-0.157,2.822c-17.961,0.08-37.058,0.038-55.147-0.052c-4.256-0.021-9.063-0.053-13.852-0.053
		c-1.554,0-3.438-0.232-4.548,0.209c-1.482,0.591-2.645,2.688-2.248,4.705c0.218,1.104,1.096,2.196,1.986,2.561
		c0.978,0.4,2.573,0.262,4.025,0.262c9.893-0.001,19.74,0.104,29.69,0.104c10.727,0,21.045,0.104,31.834,0.104
		c0.531,0,1.345,0.208,1.725-0.365c-0.309-0.662-1.188-0.418-1.725-0.418c-16.047,0-32.773-0.073-48.456-0.157
		c-2.729-0.015-5.618-0.001-8.521-0.053c-1.161-0.02-2.709,0.055-4.078,0c-1.509-0.06-2.871,0.104-3.867-0.365
		c-2.214-1.041-2.301-4.737,0.104-5.541c0.934-0.312,2.8-0.167,4.129-0.104c1.51,0.07,2.958-0.001,4.339,0
		c14.88,0.005,28.467,0.106,43.334,0.104c2.999,0,5.635,0.104,8.73,0.104c2.766,0,6.096-0.304,8.311,0.314
		c2.28,0.636,3.718,2.298,4.391,3.973c0.918,2.288,0.106,5.229-1.098,6.534c-1.414,1.533-3.024,2.457-5.907,2.457
		c-7.691-0.001-16.876-0.053-24.725-0.053c-10.446,0-22.487-0.162-32.827-0.104c-2.894,0.016-5.688-0.016-8.259-0.104
		c-2.557-0.088-4.622-0.987-6.116-2.195c-2.8-2.265-5.225-7.161-3.032-11.866c1.373-2.943,3.512-4.716,6.848-5.697
		c0.526-0.154,1.11-0.31,1.726-0.366c0.588-0.054,1.504-0.019,2.195-0.052c2.892-0.138,5.84,0.052,8.782,0.052
		c9.049,0,17.812,0.051,26.606,0.053c2.981,0,5.993-0.075,8.991,0.052c2.999,0.127,6.008-0.136,8.99,0
		c2.995,0.137,5.995,0.052,8.991,0.053C76.894,21.926,79.83,21.802,82.709,22.083z"/>
</g>
<g id="Layer_1">
</g>
</svg>
