<?xml version="1.0" encoding="iso-8859-1"?>
<!-- Generator: Adobe Illustrator 21.0.2, SVG Export Plug-In . SVG Version: 6.00 Build 0)  -->
<svg version="1.1" xmlns="http://www.w3.org/2000/svg" xmlns:xlink="http://www.w3.org/1999/xlink" x="0px" y="0px"
	 viewBox="0 0 56.392 55.544" style="enable-background:new 0 0 56.392 55.544;" xml:space="preserve">
<g id="Gustav_x5F_Wiese">
	<path d="M13.54,8.514c3.302-5.922,10.463-9.429,17.163-8.305c4.127,0.67,7.96,2.948,10.573,6.21
		c2.265,2.915,3.577,6.566,3.611,10.259c-1.888-0.028-3.782,0.043-5.666-0.05c-0.045-4.559-3.212-8.85-7.492-10.353
		c-3.799-1.359-8.317-0.378-11.193,2.458c-1.812,1.695-3.062,3.996-3.44,6.452c-0.345,2.306,0.026,4.717,1.008,6.832
		c3.255,4.918,6.577,9.793,9.883,14.682c2.052-2.971,4.146-5.913,6.14-8.924c-1.828-0.078-3.661-0.023-5.489-0.092
		c-1.28-1.831-2.521-3.688-3.765-5.543c2.731-0.051,5.461-0.028,8.192,0.019c1.484,0.036,2.981,0.002,4.468,0.042
		c2.375,0.008,4.753,0.026,7.131,0.029c-4.391,6.519-8.852,12.996-13.276,19.491c1.13,1.653,2.213,3.337,3.321,5.004
		c4.011-5.745,7.953-11.544,11.897-17.332c3.788-5.211,5-12.089,3.451-18.318c0.498-0.067,1.004-0.005,1.504-0.018
		c1.419,0.029,2.84,0.016,4.261,0.016c0.414,1.954,0.482,3.965,0.557,5.956c0.21,6.14-2.128,12.213-6.011,16.927
		c-4.98,7.189-9.89,14.431-14.936,21.572c-0.527,0.036-1.058,0-1.586,0.01c-1.871-2.996-3.929-5.877-5.91-8.804
		c-2.015,2.912-4.056,5.81-6.028,8.75c-0.529,0.009-1.068,0.03-1.593-0.012c-4.169-6.239-8.442-12.414-12.568-18.678
		c-1.093-1.615-2.177-3.234-3.333-4.804c-2.025-3.102-3.492-6.586-4.15-10.238c-0.464-3.63-0.29-7.313,0.323-10.912
		c1.931-0.011,3.862,0.017,5.793-0.003c-0.434,2.078-0.799,4.194-0.691,6.328c0.116,3.166,1.048,6.249,2.286,9.148
		c0.706,1.462,1.323,2.999,2.39,4.245c3.621,5.316,7.275,10.612,10.886,15.934c1.11-1.566,2.189-3.19,3.294-4.773
		c-3.26-4.775-6.407-9.623-9.681-14.391c-2.557-3.506-3.989-7.937-3.454-12.284C11.633,12.747,12.402,10.518,13.54,8.514z"/>
</g>
<g id="Layer_1">
</g>
</svg>
