<?xml version="1.0" encoding="iso-8859-1"?>
<!-- Generator: Adobe Illustrator 19.2.0, SVG Export Plug-In . SVG Version: 6.00 Build 0)  -->
<svg version="1.1" xmlns="http://www.w3.org/2000/svg" xmlns:xlink="http://www.w3.org/1999/xlink" x="0px" y="0px"
	 viewBox="0 0 69.749 67.159" style="enable-background:new 0 0 69.749 67.159;" xml:space="preserve">
<g id="Gutezeichen_x5F_fur_x5F_Erzeugnisse_x5F_der_x5F_Deutschen_x5F_Emailindustrie">
	<path style="fill-rule:evenodd;clip-rule:evenodd;" d="M69.584,0.081c0.206,0.432,0.249,1.585-0.048,1.949
		c-4.8,0.029-9.64-0.073-14.498-0.143c-2.404-0.034-4.807-0.205-7.226-0.19c-2.382,0.015-4.789,0.013-7.178-0.095
		C33.3,1.269,25.899,1.424,18.673,1.174c-2.375-0.082-4.743,0.089-7.035-0.238c0.356-0.344,0.916-0.177,1.331-0.19
		c7.368-0.231,14.788-0.333,22.151-0.333c9.125,0.001,18.243-0.332,27.19-0.332C64.822,0.081,67.158-0.101,69.584,0.081z"/>
	<path style="fill-rule:evenodd;clip-rule:evenodd;" d="M69.584,2.6c0.225,0.412,0.215,1.535,0,1.949
		c-7.287,0.119-15.098-0.333-22.865-0.333C39.584,4.217,32.501,3.788,25.28,3.788c-4.57,0-9.173-0.173-13.595-0.333
		c0.376-0.237,0.876-0.154,1.284-0.19c1.344-0.119,2.755-0.074,4.135-0.095c8.754-0.134,17.609-0.334,26.667-0.333
		c3.445,0,6.944-0.143,10.411-0.143c1.757,0,3.552,0.023,5.324-0.047C62.992,2.509,66.206,2.465,69.584,2.6z"/>
	<path style="fill-rule:evenodd;clip-rule:evenodd;" d="M69.584,5.072c0.219,0.418,0.219,1.531,0,1.949
		c-7.927,0.037-15.871-0.093-23.863-0.285c-5.291-0.127-10.233-0.097-15.592-0.332c-2.047-0.09-4.129-0.095-6.18-0.095
		c-3.593,0-7.292-0.19-10.98-0.19c-0.409,0-1.016,0.168-1.331-0.238C18.331,5.434,25.045,5.771,31.84,5.5
		c2.246-0.09,4.474,0.059,6.702-0.047c4.441-0.212,8.915-0.237,13.358-0.238c2.213,0,4.43-0.095,6.655-0.095
		C62.255,5.119,65.957,4.835,69.584,5.072z"/>
	<path style="fill-rule:evenodd;clip-rule:evenodd;" d="M69.584,7.639c0.188,0.448,0.26,1.576-0.048,1.949
		C60.134,9.664,50.433,9.16,40.73,9.16c-4.845,0-9.725-0.216-14.593-0.333C21.285,8.711,16.409,8.8,11.685,8.494
		c0.179-0.263,0.56-0.139,0.808-0.142c4.323-0.066,8.58-0.232,13.072-0.285C39.505,7.9,54.089,7.637,68.253,7.544
		C68.575,7.542,69.194,7.477,69.584,7.639z"/>
	<path style="fill-rule:evenodd;clip-rule:evenodd;" d="M69.584,10.111c0.216,0.432,0.216,1.518,0,1.949
		c-1.15,0.197-2.349,0.124-3.518,0.047c-3.469-0.228-7.038-0.057-10.601-0.19c-4.844-0.182-9.772-0.238-14.688-0.238
		c-4.865,0-9.747-0.342-14.593-0.332c-2.424,0.004-4.867,0.01-7.273-0.095c-2.402-0.105-4.805,0.029-7.178-0.238
		c0.513-0.234,1.123-0.185,1.664-0.19c6.231-0.065,12.976-0.286,19.394-0.286c7.187,0,14.321-0.109,21.438-0.332
		c4.81-0.151,9.59,0.004,14.308-0.19C68.866,10.002,69.28,9.891,69.584,10.111z"/>
	<path style="fill-rule:evenodd;clip-rule:evenodd;" d="M69.584,12.63c0.138,0.472,0.195,1.598-0.048,1.997
		c-9.313,0.057-19.187-0.428-28.949-0.428c-4.882,0-9.758-0.285-14.593-0.286c-2.396,0-4.818-0.078-7.178-0.19
		c-2.409-0.115-4.793,0.109-7.13-0.19c0.589-0.337,1.02-0.122,1.711-0.143c8.999-0.267,18.315-0.476,27.618-0.476
		c6.938,0.001,13.815-0.285,20.726-0.285c2.293,0,4.595-0.035,6.845-0.095C68.897,12.527,69.274,12.431,69.584,12.63z"/>
	<path style="fill-rule:evenodd;clip-rule:evenodd;" d="M69.584,15.15c0.132,0.464,0.198,1.56-0.048,1.949
		c-9.557,0.146-19.273-0.381-28.949-0.38c-7.235,0-14.468-0.428-21.819-0.428c-1.207,0-2.419-0.119-3.613-0.095
		c-1.145,0.023-2.303,0.094-3.422-0.142c0.514-0.246,1.124-0.146,1.664-0.19c1.711-0.142,3.541-0.115,5.324-0.143
		c3.564-0.055,7.114-0.043,10.695-0.143c3.499-0.097,7.099,0.012,10.601-0.143c2.377-0.105,4.789,0.057,7.178-0.048
		c6.936-0.305,14.204-0.208,21.153-0.285C68.682,14.985,69.319,14.941,69.584,15.15z"/>
	<path style="fill-rule:evenodd;clip-rule:evenodd;" d="M69.584,17.717c0.137,0.469,0.19,1.551-0.048,1.949
		c-0.508,0.193-0.98,0.013-1.474,0c-7.861-0.212-15.899-0.102-23.958-0.38c-2.031-0.07-4.091,0.083-6.132-0.047
		c-5.807-0.372-12.049-0.293-17.921-0.38c-2.709-0.04-5.544-0.077-8.223-0.238c0.474-0.241,1.048-0.22,1.568-0.237
		c6.299-0.218,12.732-0.285,19.061-0.285c1.133,0,2.286-0.048,3.423-0.048c5.664,0.001,11.613-0.237,17.398-0.237
		c2.334,0,4.712-0.002,7.035-0.095c2.292-0.092,4.556,0.009,6.798-0.095C67.842,17.587,68.925,17.445,69.584,17.717z"/>
	<path style="fill-rule:evenodd;clip-rule:evenodd;" d="M69.536,20.188c0.245,0.376,0.18,1.452,0.048,1.901
		c-0.669,0.253-1.409,0.095-2.092,0.095c-2.152,0-4.314-0.095-6.512-0.095c-8.736,0.001-17.565-0.362-26.287-0.428
		c-7.646-0.058-15.354-0.391-22.912-0.523c0.411-0.285,0.959-0.19,1.426-0.19c3.541,0,7.158-0.238,10.791-0.238
		c9.627,0.001,19.387-0.381,29.234-0.38c3.825,0,7.581-0.191,11.504-0.19C66.346,20.141,68.151,20.083,69.536,20.188z"/>
	<path style="fill-rule:evenodd;clip-rule:evenodd;" d="M58.032,23.516c-2.345,0.146-4.725,0.237-7.13,0.237
		c-7.223,0.001-14.566,0.333-21.866,0.333c-4.823,0-9.715,0.086-14.546,0.238c-3.662,0.115-7.297,0.087-10.933,0.143
		c-1.122,0.017-2.279,0.186-3.375-0.048c-0.099-0.476-0.305-1.805,0.19-1.997c4.784-0.041,9.631,0.19,14.498,0.19
		c4.833,0,9.674,0.237,14.498,0.238c2.416,0,4.88,0.037,7.32,0.095c4.799,0.115,9.627,0.285,14.451,0.286
		c2.076,0,4.004,0.014,6.18,0.095C57.528,23.333,57.894,23.25,58.032,23.516z"/>
	<path style="fill-rule:evenodd;clip-rule:evenodd;" d="M57.985,25.988c-0.507,0.325-1.152,0.187-1.712,0.19
		c-8.797,0.047-17.828,0.427-27.095,0.428c-9.791,0-19.485,0.502-28.997,0.333c-0.106-0.596-0.313-1.872,0.238-2.044
		c0.379-0.118,1.18-0.007,1.853,0c4.137,0.043,8.54,0.237,12.645,0.238c4.94,0,9.658,0.188,14.403,0.237
		c4.773,0.05,9.609,0.153,14.356,0.286C48.532,25.79,53.346,25.641,57.985,25.988z"/>
	<path style="fill-rule:evenodd;clip-rule:evenodd;" d="M0.324,27.461c9.634-0.016,19.292,0.428,28.949,0.428
		c4.801,0,9.602,0.343,14.403,0.333c4.156-0.009,8.355,0.19,12.597,0.19c0.512,0,1.149-0.136,1.616,0.19
		c-6.977,0.387-14.166,0.28-21.628,0.428c-7.287,0.144-14.502,0.13-21.771,0.333c-4.244,0.118-8.459,0.032-12.692,0.19
		c-0.551,0.021-1.148,0.094-1.664-0.143C-0.004,28.91-0.1,27.708,0.324,27.461z"/>
	<path style="fill-rule:evenodd;clip-rule:evenodd;" d="M57.842,31.026c-0.508,0.211-1.12,0.216-1.664,0.238
		c-1.74,0.07-3.651-0.022-5.515,0.048c-7.171,0.269-14.465,0.333-21.628,0.332c-9.539,0-19.284,0.421-28.854,0.38
		c-0.193-0.616-0.384-1.941,0.285-2.092c0.452-0.102,1.142,0.019,1.806,0.048c1.772,0.078,3.758,0.032,5.42,0.095
		c2.541,0.096,4.852,0.095,7.225,0.095c4.804,0,9.709,0.129,14.213,0.238C38.897,30.643,48.572,30.69,57.842,31.026z"/>
	<path style="fill-rule:evenodd;clip-rule:evenodd;" d="M57.985,33.593c-0.545,0.271-1.192,0.123-1.759,0.143
		c-4.131,0.142-8.433,0.237-12.645,0.238c-14.473,0-28.795,0.569-43.4,0.522c-0.217-0.648-0.36-1.954,0.333-2.091
		c0.452-0.09,1.181,0.045,1.807,0.047c1.609,0.006,3.55,0.095,5.324,0.095c4.947-0.001,9.611,0.092,14.546,0.19
		c2.424,0.048,4.815,0.19,7.13,0.19c7.304-0.001,14.351,0.341,21.724,0.38c1.154,0.006,2.319,0.042,3.47,0.095
		C55.675,33.457,56.851,33.363,57.985,33.593z"/>
	<path style="fill-rule:evenodd;clip-rule:evenodd;" d="M57.937,36.113c-2.245,0.326-5.656,0.229-8.176,0.285
		c-7.12,0.158-14.366,0.285-21.486,0.285c-2.328,0-4.689-0.011-7.035,0.095c-6.493,0.294-13.114,0.134-19.584,0.285
		c-0.49,0.012-1.011,0.209-1.474-0.047c-0.186-0.436-0.353-1.884,0.19-2.044c4.853-0.022,9.69,0.201,14.498,0.237
		c4.782,0.037,9.53,0.238,14.308,0.238c4.786,0,9.622,0.285,14.451,0.285c2.423,0,4.848,0.058,7.273,0.095
		C53.254,35.864,55.625,35.868,57.937,36.113z"/>
	<path style="fill-rule:evenodd;clip-rule:evenodd;" d="M57.937,38.584c-0.506,0.247-1.118,0.244-1.664,0.238
		c-1.623-0.017-3.496,0.012-5.324,0.048c-7.252,0.14-14.537,0.332-21.914,0.333c-6.094,0.001-12.193,0.285-18.253,0.285
		c-2.405,0-4.788,0.045-7.226,0.095c-1.137,0.023-2.313,0.16-3.423-0.095c-0.109-0.644-0.32-1.878,0.286-2.044
		c0.388-0.107,1.154,0.048,1.806,0.048c4.175-0.001,8.598,0.036,12.692,0.19c4.881,0.183,9.627,0.156,14.261,0.285
		C38.853,38.236,48.656,38.211,57.937,38.584z"/>
	<path style="fill-rule:evenodd;clip-rule:evenodd;" d="M57.937,41.246c-9.432,0.244-19.177,0.446-28.854,0.428
		C19.4,41.656,9.667,42.191,0.182,42.055c-0.21-0.606-0.364-1.896,0.285-2.045c0.484-0.11,1.24-0.009,1.854,0
		c9.776,0.149,20.223,0.217,30.47,0.57c2.118,0.073,4.25,0.095,6.37,0.095c2.119,0,4.238,0.143,6.322,0.143
		c3.792,0,7.29,0.19,11.076,0.19C57.002,41.009,57.546,40.927,57.937,41.246z"/>
	<path style="fill-rule:evenodd;clip-rule:evenodd;" d="M57.937,43.671c-1.145,0.289-2.338,0.18-3.518,0.238
		c-3.491,0.17-7.206,0.157-10.838,0.143c-4.792-0.019-9.628,0.19-14.451,0.19c-9.668,0-19.382,0.415-28.997,0.285
		c-0.107-0.628-0.328-1.898,0.286-2.044c0.297-0.07,0.76,0.059,1.141,0.048c0.827-0.024,1.484,0.02,2.282,0.047
		c4.341,0.15,8.815,0.049,13.31,0.19c2.281,0.072,4.579,0.095,6.892,0.095c6.761,0,13.541,0.475,20.298,0.476
		C48.914,43.338,53.465,43.5,57.937,43.671z"/>
	<path style="fill-rule:evenodd;clip-rule:evenodd;" d="M69.488,45.144c0.219,0.391,0.231,1.561,0,1.949
		c-9.622,0.067-18.998-0.493-28.664-0.476c-4.781,0.008-9.629-0.285-14.498-0.285c-4.853,0-9.725-0.199-14.593-0.333
		c0.27-0.309,0.945-0.225,1.426-0.238c3.579-0.1,7.275-0.19,10.981-0.19c4.593,0,9.285-0.188,13.88-0.142
		c4.638,0.046,9.378-0.245,14.118-0.19c3.429,0.04,6.992-0.142,10.648-0.143C65.159,45.097,67.231,45.039,69.488,45.144z"/>
	<path style="fill-rule:evenodd;clip-rule:evenodd;" d="M69.488,47.664c0.224,0.407,0.249,1.655-0.047,1.997
		c-4.689,0.027-9.462-0.238-14.261-0.238c-2.393,0-4.811-0.052-7.226-0.143c-2.429-0.091-4.883-0.027-7.32-0.095
		c-9.672-0.269-19.384-0.321-28.854-0.666c0.088-0.327,0.514-0.186,0.713-0.19c4.157-0.086,8.569-0.238,12.977-0.238
		c4.571,0,9.209-0.032,13.832-0.143c6.946-0.165,13.881-0.286,20.916-0.285C63.373,47.664,66.506,47.412,69.488,47.664z"/>
	<path style="fill-rule:evenodd;clip-rule:evenodd;" d="M69.536,50.183c0.147,0.48,0.182,1.585-0.047,1.997
		c-2.38,0.086-4.779-0.059-7.178-0.096c-2.387-0.036-4.78-0.033-7.178-0.142c-4.774-0.217-9.597-0.027-14.403-0.238
		c-2.419-0.106-4.878-0.058-7.32-0.143c-5.978-0.207-12.032-0.38-18.159-0.38c-0.604,0-1.213-0.021-1.807-0.047
		c-0.541-0.025-1.182,0.169-1.663-0.19c7.795-0.534,15.726-0.177,23.673-0.475c3.916-0.147,7.873,0.038,11.789-0.143
		c3.998-0.185,7.987-0.104,11.932-0.143c1.315-0.013,2.627-0.095,3.945-0.095c1.581,0,3.334-0.068,4.801-0.095
		C68.444,49.983,69.139,49.937,69.536,50.183z"/>
	<path style="fill-rule:evenodd;clip-rule:evenodd;" d="M69.488,52.655c0.238,0.422,0.204,1.567,0,1.997
		c-9.602,0.046-19.217-0.291-28.807-0.476c-9.578-0.185-19.241-0.315-28.854-0.618c0.984-0.351,2.066-0.19,3.089-0.238
		c3.23-0.15,6.529-0.19,9.84-0.19c12.141,0,24.399-0.476,36.412-0.475C64.022,52.655,66.818,52.453,69.488,52.655z"/>
	<path style="fill-rule:evenodd;clip-rule:evenodd;" d="M69.488,55.175c0.197,0.446,0.237,1.56,0,1.996
		c-0.997,0.19-2.166,0.059-3.422,0c-3.458-0.161-7.183-0.152-10.838-0.19c-9.641-0.101-19.351-0.339-29.044-0.57
		c-2.431-0.058-4.854-0.143-7.273-0.143c-2.375,0-4.761,0.05-7.083-0.19c2.185-0.339,4.435-0.278,6.702-0.333
		c11.756-0.283,23.891-0.246,35.557-0.476c2.391-0.047,4.764-0.095,7.13-0.095c2.337,0,4.704,0.011,6.988-0.095
		C68.574,55.062,69.174,54.917,69.488,55.175z"/>
	<path style="fill-rule:evenodd;clip-rule:evenodd;" d="M69.488,57.742c0.235,0.423,0.199,1.518,0,1.949
		c-4.765,0.119-9.599-0.14-14.451-0.19c-4.814-0.05-9.665-0.163-14.403-0.238c-8.453-0.134-16.928-0.474-25.479-0.476
		c-0.604,0-1.219-0.029-1.806-0.047c-0.527-0.017-1.083,0.083-1.569-0.143c0.495-0.285,1.079-0.132,1.616-0.143
		c8.6-0.164,17.616-0.427,26.43-0.428c7.005-0.001,14.014-0.294,21.248-0.333c2.386-0.013,4.812,0.063,7.178-0.047
		C68.592,57.631,69.213,57.47,69.488,57.742z"/>
	<path style="fill-rule:evenodd;clip-rule:evenodd;" d="M69.488,60.213c0.226,0.448,0.133,1.389,0,1.901
		c-1.151,0.304-2.349,0.104-3.518,0.048c-6.042-0.288-12.126-0.002-18.111-0.286c-1.178-0.056-2.369-0.035-3.565-0.047
		c-5.765-0.059-12.001-0.333-18.063-0.333c-4.246,0-8.426-0.238-12.739-0.237c-0.538,0-1.149,0.08-1.664-0.19
		c9.131-0.348,18.444-0.523,27.76-0.523c2.346,0,4.717,0.005,7.083-0.095c2.32-0.098,4.667-0.041,6.988-0.143
		c4.658-0.206,9.336,0.023,13.928-0.19C68.136,60.093,69.005,59.945,69.488,60.213z"/>
	<path style="fill-rule:evenodd;clip-rule:evenodd;" d="M69.488,62.733c0.191,0.5,0.189,1.479-0.047,1.949
		c-2.341,0.168-4.698-0.095-7.083-0.095c-2.403,0.001-4.86,0.018-7.273-0.095c-4.811-0.224-9.641-0.104-14.451-0.238
		c-3.604-0.1-7.229-0.151-10.838-0.238c-3.598-0.086-7.211-0.19-10.838-0.19c-2.357,0-4.747,0.066-7.035-0.286
		c9.138-0.53,18.421-0.231,27.713-0.522c4.622-0.145,9.266,0.004,13.88-0.19c2.296-0.097,4.604,0.014,6.893-0.095
		c2.312-0.11,4.622,0.056,6.893-0.095C67.967,62.593,68.872,62.499,69.488,62.733z"/>
	<path style="fill-rule:evenodd;clip-rule:evenodd;" d="M69.488,65.204c0.154,0.458,0.154,1.491,0,1.949
		c-9.383,0.057-19.042-0.379-28.759-0.38c-2.386,0-4.821-0.089-7.226-0.19c-2.431-0.102-4.868,0.011-7.273-0.095
		c-4.842-0.213-9.648-0.037-14.403-0.333c0.409-0.295,0.973-0.19,1.426-0.19c3.53,0,7.128-0.238,10.838-0.238
		c4.165,0,8.381-0.211,12.597-0.19c4.776,0.024,9.618-0.19,14.403-0.19c2.414,0,4.874,0.019,7.273-0.095
		c2.471-0.117,5.156-0.145,7.416-0.143C66.99,65.111,68.414,64.976,69.488,65.204z"/>
</g>
<g id="Layer_1">
</g>
</svg>
