<?xml version="1.0" encoding="iso-8859-1"?>
<!-- Generator: Adobe Illustrator 19.2.0, SVG Export Plug-In . SVG Version: 6.00 Build 0)  -->
<svg version="1.1" xmlns="http://www.w3.org/2000/svg" xmlns:xlink="http://www.w3.org/1999/xlink" x="0px" y="0px"
	 viewBox="0 0 61.435 80.069" style="enable-background:new 0 0 61.435 80.069;" xml:space="preserve">
<g id="Gutter">
	<path style="fill-rule:evenodd;clip-rule:evenodd;" d="M43.402,1.238c0.191,9.999,0.101,19.632,0.101,29.418
		c-0.001,3.208,0.119,6.436,0,9.623c-0.109,2.903-1.462,5.253-2.893,7.03c-1.511,1.879-3.247,3.497-4.836,5.086
		c-2.441,2.441-4.857,5.005-7.33,7.579c-0.811,0.844-1.737,1.857-2.144,2.792c-1.117,2.571,0.42,5.191,2.243,6.133
		c2.327,1.202,5.217,0.058,6.183-1.895c0.679-1.811,1.367-3.666,3.441-4.088c0.896-0.183,2.022-0.05,3.091-0.05
		c1.029,0,2.117-0.119,2.991,0.149c0.054,1.285-0.521,2.413-0.848,3.49c-0.352,1.165-0.658,2.259-1.097,3.291
		c-0.86,2.026-2.177,3.663-3.689,5.136c-2.918,2.841-6.873,5.166-12.466,5.136c-5.272-0.029-9.469-2.625-12.166-5.435
		c-2.851-2.972-5.045-6.937-5.035-12.565c0.008-5.566,2.631-8.979,4.537-13.063c0.942-2.02,1.988-3.857,2.892-5.934
		c1.769-4.066,1.646-10.075,1.646-15.955c0-2.915-0.16-5.863-0.05-8.626c0.156-3.915,0.05-8.609,0.05-12.964
		c0-1.387-0.248-3.655,0.149-4.238c0.305-0.445,1.811-0.541,2.593-0.648c2.03-0.277,3.85-0.346,5.983-0.498
		c4.517-0.323,9.503-0.064,13.612,0.498C41.415,0.784,42.489,0.797,43.402,1.238z M25.553,26.318
		c0.125-1.331-2.489-1.198-2.344,0.05C23.75,26.552,25.162,26.755,25.553,26.318z M35.874,26.417c0.546,0.254,1.94,0.222,2.493,0
		C38.356,25.022,35.916,25.109,35.874,26.417z"/>
	<path style="fill-rule:evenodd;clip-rule:evenodd;" d="M16.179,4.728c0.428,4.609-0.06,9.647,0.149,14.26
		c0.104,2.317,0.001,4.739,0,7.13c0,1.163-0.048,2.339-0.05,3.491c-0.002,1.164,0.229,2.338-0.1,3.44
		c-1.105,0.296-2.443,0.126-3.391,0.399c-1.705,0.491-2.792,1.51-3.739,2.693c-0.338,0.675-0.832,1.553-0.998,2.543
		c-0.285,1.708,0.053,3.718-0.299,5.485c-2.282,0.165-5.246,0.164-7.528,0c-0.324-1.353-0.2-2.877-0.2-4.388
		c0-8.913,0.001-18.211,0-27.024c0-1.557-0.018-3.074,0.399-4.139c0.825-2.108,3.124-3.901,5.534-4.088
		c2.487-0.193,5.18,0.05,7.778,0.049C14.566,4.578,15.414,4.463,16.179,4.728z"/>
	<path style="fill-rule:evenodd;clip-rule:evenodd;" d="M61.253,44.318c-1.067,0.266-2.461,0.149-3.789,0.149
		c-1.323,0-2.704,0.084-3.739-0.199c-0.378-1.48-0.139-3.271-0.25-4.687c-0.267-3.406-2.527-5.95-5.983-6.232
		c-0.682-0.056-1.435-0.028-2.193-0.249c-0.309-0.977-0.146-2.172-0.2-3.341c-0.054-1.159,0.018-2.398,0.051-3.59
		c0.064-2.327-0.103-4.692-0.051-7.33c0.066-3.361-0.073-6.976,0-10.72c0.015-0.728-0.12-3.308,0.3-3.44
		c0.683-0.216,2.158-0.026,3.142-0.05c0.984-0.024,1.972-0.007,2.892,0c1.84,0.014,4.221-0.107,5.634,0.398
		c2.088,0.747,3.861,2.617,4.238,4.837c0.219,1.282,0.1,2.818,0.101,4.288c0.002,8.79-0.003,17.214,0,25.978
		C61.403,41.544,61.523,42.961,61.253,44.318z"/>
</g>
<g id="Layer_1">
</g>
</svg>
