<?xml version="1.0" encoding="iso-8859-1"?>
<!-- Generator: Adobe Illustrator 21.0.2, SVG Export Plug-In . SVG Version: 6.00 Build 0)  -->
<svg version="1.1" xmlns="http://www.w3.org/2000/svg" xmlns:xlink="http://www.w3.org/1999/xlink" x="0px" y="0px"
	 viewBox="0 0 3.515 9.479" style="enable-background:new 0 0 3.515 9.479;" xml:space="preserve">
<g id="Guy_x5F_Bauer">
	<path style="stroke:#FFFFFF;stroke-width:0.0567;stroke-miterlimit:10;" d="M1.989,0.27l-0.219-0.23L1.543,0.27
		C0.425,1.406,0.028,1.982,0.028,2.956v2.889c0,0.943,0.283,1.396,1.417,1.91v1.272h0.016C1.54,9.14,1.643,9.277,1.78,9.435
		C1.916,9.277,2.019,9.14,2.097,9.027H2.069V9.014v-1.26C3.146,7.24,3.486,6.788,3.486,5.845v-2.89
		C3.486,1.982,3.107,1.406,1.989,0.27z M1.757,0.95c0.892,0.93,1.106,1.338,1.106,2.006v0.152L2.069,3.935V3.202V2.166
		C2.012,2.047,1.894,1.914,1.757,1.756C1.621,1.914,1.502,2.047,1.445,2.166V4.69L0.652,3.863V2.955
		C0.652,2.288,0.866,1.88,1.757,0.95z M0.652,5.845V4.788l0.794,0.827v1.43C0.709,6.669,0.652,6.391,0.652,5.845z M2.069,7.045V4.86
		l0.793-0.827v1.813C2.863,6.391,2.806,6.669,2.069,7.045z"/>
</g>
<g id="Layer_1">
</g>
</svg>
