<?xml version="1.0" encoding="iso-8859-1"?>
<!-- Generator: Adobe Illustrator 19.2.0, SVG Export Plug-In . SVG Version: 6.00 Build 0)  -->
<svg version="1.1" xmlns="http://www.w3.org/2000/svg" xmlns:xlink="http://www.w3.org/1999/xlink" x="0px" y="0px"
	 viewBox="0 0 69.848 69.816" style="enable-background:new 0 0 69.848 69.816;" xml:space="preserve">
<g id="H_x5F_Wurgler_x5F_und_x5F_Sohn">
	<path style="fill-rule:evenodd;clip-rule:evenodd;" d="M11.011,60.343c-2.851-2.726-5.549-6.03-7.439-10.019
		C1.453,45.851-0.027,40.712,0,34.354c0.009-2.029,0.263-4.012,0.645-5.901c0.494-2.438,1.066-4.66,1.934-6.795
		c1.677-4.123,4.073-7.588,6.845-10.613C15.106,5.242,22.55,0.548,33.329,0.033c3.394-0.162,6.933,0.277,9.919,1.041
		c5.772,1.478,10.659,3.948,14.383,7.439c1.876,1.759,3.605,3.661,5.208,5.704c3.172,4.047,5.416,9.239,6.547,15.275
		c1.206,6.438-0.101,13.585-2.183,18.747c-1.555,3.856-3.695,7.263-6.349,10.068c-0.447,0.474-0.804,0.998-1.289,1.438
		c-1.428,1.297-2.72,2.603-4.414,3.77c-5.404,3.721-12.041,6.299-20.88,6.299c-3.334,0-6.684-0.568-9.423-1.488
		C19.31,66.468,14.854,63.93,11.011,60.343z M56.194,8.167c-2.315-2.004-5.097-3.621-8.134-4.86
		c-3.967-1.618-9.104-2.959-14.78-2.629c-4.803,0.28-8.952,1.411-12.548,3.025c-2.732,1.227-5.023,2.738-7.191,4.464
		c-0.699,0.557-1.68,1.064-1.885,1.935c1.291,0.348,2.916,0.185,4.464,0.198c0.686,0.006,1.543,0.031,2.331,0.05
		c0.693,0.016,1.766-0.127,2.281,0.099c0.641,0.281,0.995,1.801,1.289,2.529c0.954,2.36,1.825,4.632,2.729,6.894
		c0.167,0.42,0.237,1.009,0.694,1.24c1.185-2.551,2.077-5.427,3.124-8.084c0.346-0.877,0.587-1.86,1.19-2.579
		c3.346-0.127,6.949-0.266,10.366-0.05c0.589,0.708,0.841,1.66,1.19,2.529c0.906,2.258,1.719,4.572,2.529,6.795
		c0.147,0.406,0.247,0.991,0.694,1.191c0.426-0.289,0.434-0.853,0.595-1.289c0.162-0.439,0.416-0.852,0.596-1.29
		c0.745-1.817,1.452-3.627,2.182-5.356c0.369-0.872,0.504-1.946,1.289-2.529c2.987-0.187,6.187,0.151,9.077-0.05
		C58.046,9.364,56.96,8.831,56.194,8.167z M18.5,31.23c-0.213-0.562-0.428-1.116-0.644-1.687c-0.226-0.591-0.403-1.166-0.596-1.785
		c-0.413-1.332-1.081-2.708-1.637-4.216c-1.346-3.649-2.658-7.017-4.066-10.614c-0.264-0.671-0.646-2.213-1.24-1.835
		c-0.626,0.399-1.315,1.252-1.935,1.984c-0.623,0.737-1.183,1.565-1.686,2.281c-2.236,3.181-3.995,6.566-5.059,10.713
		c-0.534,2.083-1.007,4.417-1.091,6.844C0.181,43.461,3.662,51.021,8.382,56.623c0.648,0.774,1.127,1.717,2.183,2.082
		c0.577-0.807,0.891-1.831,1.24-2.826c0.69-1.974,1.519-3.926,2.281-5.902c1.166-3.022,2.275-5.642,3.422-8.878
		c0.327-0.922,0.719-1.939,1.141-2.926c0.328-0.767,0.777-2.52,1.339-2.777c0.495-0.228,1.808-0.05,2.679-0.05
		c2.695,0,5.495-0.061,7.886,0.05c0.607,0.623,0.823,1.546,1.141,2.381c0.649,1.712,1.299,3.467,1.935,5.108
		c0.323,0.835,0.494,1.779,1.141,2.381c0.533-0.646,0.834-1.521,1.141-2.332c0.646-1.708,1.301-3.408,1.983-5.059
		c0.337-0.813,0.492-1.774,1.141-2.381c2.604-0.104,5.403,0.001,8.134,0c0.854,0,2.107-0.133,2.629,0.149
		c0.51,0.276,0.969,2.053,1.24,2.827c0.36,1.031,0.773,2.071,1.141,2.976c1.633,4.008,3.162,7.798,4.612,11.754
		c0.352,0.959,0.856,1.938,1.141,2.927c0.297,1.034,0.534,2.145,1.239,2.876c0.893-0.373,1.475-1.22,2.134-1.934
		c0.638-0.692,1.204-1.541,1.735-2.331c2.196-3.271,4.09-6.812,5.208-11.159c0.561-2.181,0.991-4.634,1.041-7.142
		c0.213-10.717-3.764-18.239-8.728-23.955c-0.315-0.334-0.655-0.895-1.141-0.894c-0.698,0.756-1.035,1.792-1.29,2.777
		c-0.259,1.002-0.75,1.968-1.141,2.927c-0.781,1.919-1.629,3.826-2.381,5.753c-1.148,2.942-2.244,5.913-3.422,8.778
		c-0.385,0.936-0.625,2.019-1.339,2.777c-3.388,0.149-7.151,0.144-10.515-0.099c-0.622-0.624-0.874-1.543-1.19-2.381
		c-0.664-1.757-1.372-3.52-2.033-5.208c-0.333-0.849-0.514-1.895-1.19-2.43c-0.563,0.676-0.792,1.584-1.091,2.43
		c-0.603,1.709-1.352,3.399-1.984,5.06c-0.322,0.848-0.518,1.787-1.141,2.43c-3.392,0.28-6.973,0.044-10.762,0.05
		C19.204,33.613,18.927,32.358,18.5,31.23z M44.241,49.481c-0.231,0.183-0.398,0.807-0.595,1.24
		c-0.974,2.138-1.707,4.323-2.53,6.397c-0.335,0.845-0.631,1.736-1.239,2.331c-3.191,0.12-6.976,0.062-10.415,0
		c-0.598-0.618-0.804-1.519-1.142-2.331c-0.857-2.065-1.668-4.236-2.479-6.249c-0.149-0.37-0.28-0.913-0.694-1.091
		c-0.517,0.678-0.726,1.562-1.041,2.381c-0.638,1.651-1.325,3.22-1.984,4.86c-0.253,0.631-0.575,2.072-1.091,2.331
		c-0.361,0.182-0.798,0.049-1.29,0.049c-1.767,0-4.249,0-6.199,0c-0.688,0-1.418-0.112-1.983,0.149
		c0.003,0.466,0.427,0.81,0.744,1.091c2.289,2.035,4.909,3.773,7.786,5.158c3.33,1.604,7.19,2.921,11.506,3.273
		c6.323,0.517,11.281-0.592,15.723-2.133c3.211-1.114,6.301-2.901,8.729-4.811c0.84-0.66,1.788-1.322,2.232-2.281
		c-2.907-0.375-6.259,0-9.324-0.199c-0.669-0.645-0.837-1.622-1.19-2.479c-0.712-1.726-1.434-3.481-2.133-5.208
		c-0.352-0.868-0.611-1.82-1.19-2.529c-0.003-0.03-0.008-0.059-0.05-0.05C44.33,49.405,44.277,49.435,44.241,49.481z"/>
</g>
<g id="Layer_1">
</g>
</svg>
