<?xml version="1.0" encoding="iso-8859-1"?>
<!-- Generator: Adobe Illustrator 19.2.0, SVG Export Plug-In . SVG Version: 6.00 Build 0)  -->
<svg version="1.1" xmlns="http://www.w3.org/2000/svg" xmlns:xlink="http://www.w3.org/1999/xlink" x="0px" y="0px"
	 viewBox="0 0 75.195 76.431" style="enable-background:new 0 0 75.195 76.431;" xml:space="preserve">
<g id="Haberli_x5F_Mobel">
	<path style="fill-rule:evenodd;clip-rule:evenodd;" d="M9.118,0.112C9.37,1.38,9.26,2.709,9.26,4.041
		c0,8.018-0.047,16.375-0.047,24.376c0,1.267-0.044,2.54,0.189,3.739c6.309,0.338,13.607-0.237,20.684,0.047
		c2.345,0.094,4.644-0.079,6.863,0.189c0.424,3.678-0.06,7.423,0.095,11.076c0.155,3.682,0.027,7.4,0.047,11.076
		c0.039,7.274-0.035,14.278-0.095,21.678c-1.39,0.259-3.087,0.095-4.78,0.095c-0.82,0-1.661-0.025-2.461-0.047
		c-0.815-0.023-1.634,0.129-2.319-0.142c-0.283-11.197,0.094-23.07-0.189-34.316c-5.707-0.157-12.088-0.157-17.844,0
		c-0.336,1.283-0.178,2.763-0.142,4.26c0.103,4.292,0,8.728,0,13.063c0,5.66-0.035,11.296-0.095,17.04
		c-1.362,0.256-2.998,0.142-4.544,0.142c-1.538,0-3.089,0.105-4.449-0.095c-0.405-6.221,0.08-12.511-0.095-18.791
		c-0.175-6.285,0-12.65,0-18.886c0-11.97,0-24.043,0-36.162c0-0.76-0.115-1.544,0.142-2.272C2.919-0.005,6.311-0.066,9.118,0.112z"
		/>
	<path style="fill-rule:evenodd;clip-rule:evenodd;" d="M74.959,0.254c0.309,1.45,0.141,2.969,0.189,4.497
		c0.049,1.575,0.032,3.208,0,4.828c-0.096,4.863,0.024,9.799,0.047,14.436c0.008,1.596-0.095,3.223-0.094,4.828
		c0,3.25,0.015,6.52,0,9.751c-0.015,3.041,0.122,6.191,0.047,9.325c-0.076,3.171-0.069,6.361,0,9.467c0.073,3.247,0,6.479,0,9.656
		c0,2.391-0.104,4.819-0.047,7.053c0.019,0.749,0.125,1.517-0.142,2.225c-2.923,0.161-6.011,0.068-8.946,0
		c-0.284-1.287-0.106-2.724-0.142-4.212c-0.203-8.379,0-17.419,0-26.033c0-1.421,0.114-2.844-0.142-4.213
		c-2.771-0.149-5.873-0.095-8.946-0.095c-3.061,0.001-6.156-0.035-8.898,0.142c-0.27,2.895-0.064,5.776-0.095,8.615
		c-0.091,8.44,0.046,16.66-0.095,25.749c-1.432,0.293-3.078,0.095-4.733,0.095c-1.615-0.001-3.306,0.078-4.78-0.095
		c-0.233-1.789-0.142-3.63-0.142-5.443c0-5.556-0.032-10.876,0.047-16.093c0.114-7.498-0.225-14.857,0.095-22.341
		c9.223-0.246,18.565,0.081,27.595-0.142c0.209-8.024,0.095-15.919,0.095-24.234c0-1.898,0-4.264,0-6.106
		c0-0.611-0.146-1.692,0.473-1.798c0.64-0.11,1.456,0.072,2.177,0.047C70.659,0.086,72.836,0.064,74.959,0.254z"/>
</g>
<g id="Layer_1">
</g>
</svg>
