<?xml version="1.0" encoding="iso-8859-1"?>
<!-- Generator: Adobe Illustrator 19.2.0, SVG Export Plug-In . SVG Version: 6.00 Build 0)  -->
<svg version="1.1" xmlns="http://www.w3.org/2000/svg" xmlns:xlink="http://www.w3.org/1999/xlink" x="0px" y="0px"
	 viewBox="0 0 92.851 103.56" style="enable-background:new 0 0 92.851 103.56;" xml:space="preserve">
<g id="Habitat_x5F_heart">
	<path style="fill-rule:evenodd;clip-rule:evenodd;" d="M92.339,103.403c-15.731,0.74-28.929-1.16-41.139-5.158
		c-1.457-0.477-3.78-1.797-4.917-1.799c-1.066-0.001-3.492,1.297-4.917,1.799c-11.695,4.117-25.808,5.63-41.139,5.158
		c-0.107-17.752,0.124-41.783,0-60.089c-0.019-2.782-0.57-6.588,0.12-8.636c0.418-1.24,4.143-3.354,5.637-4.438
		C15.776,23.136,24.858,15.6,34.649,8.651c3.841-2.726,7.393-5.89,11.394-8.636c1.035-0.71,31.125,22.872,43.658,32.384
		c1.076,0.816,2.674,1.627,2.878,2.159c0.675,1.753-0.122,6.081-0.12,8.516C92.473,62.34,92.577,83.42,92.339,103.403z
		 M89.94,44.273c0-2.599,0.633-6.458-0.12-8.396c-0.44-1.134-3.917-3.104-5.277-4.198c-1.857-1.494-3.783-2.865-5.397-4.078
		C69.992,20.72,61.291,13.813,52.04,7.092c-1.743-1.267-3.588-3.223-5.517-4.078c-0.197-0.087-0.391,0.178-0.48,0.24
		C38.514,8.47,31.854,14.145,24.574,19.566c-5.262,3.918-10.785,8.049-16.191,12.114c-1.407,1.057-4.818,3.05-5.277,4.198
		c-0.697,1.742-0.12,5.852-0.12,8.396c0,18.945-0.293,37.128,0,56.492c14.471,0.771,28.786-1.659,39.7-5.637
		c-3.891-2.231-7.657-4.172-11.154-6.597c-3.318-2.3-6.497-5.119-9.355-8.396c-5.137-5.888-10.59-14.619-9.476-25.907
		c0.675-6.833,3.886-12.273,8.516-15.352c7.742-5.149,19.56-3.12,25.187,2.519c3.797-2.517,7.46-5.189,13.073-5.637
		c7.773-0.62,12.928,2.867,16.072,6.717c2.877,3.523,4.852,8.202,4.798,14.513c-0.087,10.096-4.855,17.968-10.315,23.868
		c-5.817,6.286-12.787,10.442-20.03,14.273c11.014,4.098,24.538,6.326,39.82,5.757C89.77,80.388,89.941,63.498,89.94,44.273z
		 M24.334,39.835c-5.674,2.831-9.526,9.353-8.996,18.111c0.993,16.374,13.084,26.985,25.307,33.103
		c1.558,0.78,4.36,2.686,5.757,2.639c1.176-0.039,3.473-1.512,4.917-2.279c11.039-5.864,20.99-13.656,24.827-25.787
		c3.157-9.979,0.744-20.289-6.117-24.947c-6.169-4.189-17.246-2.227-21.589,2.639c2.027,2.778,5.117,6.206,4.917,11.154
		c-0.162,4.012-3.444,7.139-7.916,6.596c-5.95-0.721-6.906-7.209-4.438-12.354c1.087-2.266,2.513-4.011,3.478-5.637
		C40.2,38.992,30.802,36.608,24.334,39.835z M43.764,58.186c3.698,2.83,7.506-0.948,6.957-5.397
		c-0.394-3.189-2.378-5.68-4.078-7.676c-0.08,0-0.16,0-0.24,0c-0.073,0.007-0.142,0.018-0.12,0.12
		C43.471,47.185,40.087,55.373,43.764,58.186z"/>
</g>
<g id="Layer_1">
</g>
</svg>
