<?xml version="1.0" encoding="iso-8859-1"?>
<!-- Generator: Adobe Illustrator 19.2.0, SVG Export Plug-In . SVG Version: 6.00 Build 0)  -->
<svg version="1.1" xmlns="http://www.w3.org/2000/svg" xmlns:xlink="http://www.w3.org/1999/xlink" x="0px" y="0px"
	 viewBox="0 0 111.409 137.621" style="enable-background:new 0 0 111.409 137.621;" xml:space="preserve">
<g id="Haderslev_x5F_Kommune">
	<path style="fill-rule:evenodd;clip-rule:evenodd;" d="M111.402,0.021c-0.027,16.645,0,31.422,0,47.626
		c0,8.014,0.15,15.522-0.96,22.553c-3.244,20.546-12.684,35.956-24.953,48.227c-5.971,5.971-13.02,11.231-21.114,15.595
		c-1.218,0.657-2.592,1.358-4.199,1.92c-1.224,0.429-3.459,1.68-4.319,1.68c-1.069,0-3.064-1.328-4.439-1.8
		c-4.494-1.541-8.474-4.274-11.997-6.598c-14.842-9.789-26.46-23.523-33.47-40.788C3.508,82.415,1.637,75.7,0.794,68.761
		c-0.889-7.319-0.705-15.31-0.72-23.273c-0.028-15.424-0.152-29.482,0-45.347C38.12-0.14,74.178,0.1,111.402,0.021z M1.874,1.58
		c-0.527,9.508-0.274,18.328-0.24,26.272c20.134,0.186,40.318,0.111,59.622,0c16.616-0.096,33.385,0.198,48.466,0
		c0.186-9.255,0.206-17.939,0.12-26.272C70.707,1.358,36.532,1.549,1.874,1.58z M1.634,35.77c-0.056,4.467-0.034,7.553,0,12.597
		c3.742,0.281,7.126,0.22,11.157,0c-0.093-4.729,0.218-8.593-0.12-12.837C8.713,35.524,5.299,35.128,1.634,35.77z M20.108,35.53
		c-0.2,4.041-0.2,8.916,0,12.956c6.318-0.079,12.956,0.16,19.074-0.119c-0.079-4.24,0.159-8.797-0.12-12.837
		C33.72,35.495,26.165,35.506,20.108,35.53z M46.381,35.65c-0.049,4.42-0.06,8.058,0,12.836c6.801-0.074,12.48,0.181,18.954-0.119
		c0.116-3.94,0.016-8.03,0-12.717C59.617,35.401,52.747,35.352,46.381,35.65z M72.653,35.53c-0.129,3.684,0.051,7.648,0,12.837
		c6.096,0.188,13.399,0.219,18.834,0c0.25-4.126,0.051-8.049,0.12-12.717C85.622,35.274,78.935,35.49,72.653,35.53z M98.805,35.53
		c0.08,4.279-0.159,8.877,0.12,12.956c3.599,0,7.198,0,10.797,0c0.221-3.664,0.186-8.922,0-12.956
		C106.08,35.467,102.837,35.433,98.805,35.53z M1.753,56.045c-0.443,6.059,0.435,12.611,1.56,17.874
		c3.525,0.435,6.637,1.281,9.357,2.519c0.243-7.167,0.118-13.86,0.12-20.273C9.09,55.891,5.529,56.094,1.753,56.045z M19.988,56.165
		c0,8.317,0,16.635,0,24.952c3.584,2.552,10.672,3.1,15.236,0.96c1.084-0.509,3.641-1.592,3.958-2.64c0.422-1.391,0-4.1,0-5.758
		c0-5.986,0-11.815,0-17.515C33.897,55.922,26.037,55.994,19.988,56.165z M46.381,56.165c-0.068,5.394-0.243,13.11,0,18.834
		c5.117-2.396,13.83-2.406,18.954,0c0.059-6.077,0.107-13.342,0-18.954C58.451,56.119,52.602,55.823,46.381,56.165z M72.653,56.165
		c-0.014,7.512-0.206,16.28,0,23.633c4.005,3.828,13.892,4.899,18.955,1.319c0-8.357,0-16.715,0-25.072
		C85.312,56.045,79.186,55.894,72.653,56.165z M98.805,56.165c0.069,6.646-0.154,13.476,0.12,20.153
		c2.829-1.05,5.688-2.069,9.237-2.399c1.125-5.394,1.784-11.251,1.68-17.874C106.776,56.03,102.416,55.889,98.805,56.165z
		 M81.291,93.233c-11.384-0.763-14.686-10.35-26.393-10.077c-6.547,0.153-9.574,3.714-13.916,6.479
		c-3.464,2.206-7.486,3.61-12.356,3.719c-10.27,0.229-14.462-6.37-22.554-9.477c0.66,2.096,1.466,4.462,2.399,6.718
		c0.634,1.531,2.053,5.01,3.119,6.118c0.565,0.587,2.397,1.353,3.479,2.039c3.442,2.186,6.686,4.903,11.397,5.278
		c13.651,1.089,15.712-10.356,28.912-10.437c6.291-0.038,10.407,2.021,14.636,5.038c4.037,2.881,7.76,5.843,14.396,5.398
		c5.395-0.361,8.294-3.123,11.877-5.398c1.142-0.725,3.038-1.311,3.719-2.039c0.512-0.548,1.092-1.92,1.56-2.879
		c1.485-3.048,2.911-6.756,3.839-9.837C97.401,86.744,93.136,94.028,81.291,93.233z M52.139,94.913
		C52.218,94.992,52.089,94.863,52.139,94.913L52.139,94.913z M80.69,113.868c-9.981-0.77-14.2-9.976-24.113-10.197
		c-6.497-0.145-9.961,2.567-14.276,5.639c-4.862,3.46-11.472,5.84-18.595,4.198c2.291,3.012,4.73,5.311,7.558,7.798
		c0.688,0.605,2.372,2.016,3.119,2.039c1.356,0.043,4.021-2.109,5.278-2.999c4.504-3.184,8.537-6.398,15.596-6.598
		c10.407-0.295,14.776,6.191,22.193,9.717c3.914-2.884,7.475-6.121,10.437-9.957C85.146,113.821,83.242,114.064,80.69,113.868z
		 M53.818,123.944c-4.778,0.423-8.18,3.165-11.037,5.518c1.601,1.238,3.684,2.445,5.878,3.6c1.985,1.043,4.544,2.603,6.598,2.879
		c2,0.269,3.092-0.776,4.559-1.439c3.344-1.514,6.58-3.088,9.117-5.159C65.258,126.37,60.719,123.335,53.818,123.944z"/>
	<path style="fill-rule:evenodd;clip-rule:evenodd;" d="M101.205,21.374c-1.831,2.208-3.974,4.104-5.998,6.119
		c-2.153-1.846-4.143-3.854-5.998-5.998c1.783-2.216,4.004-3.994,5.878-6.118C97.256,17.246,99.086,19.454,101.205,21.374z"/>
	<path style="fill-rule:evenodd;clip-rule:evenodd;" d="M22.388,21.615c-2.05,1.909-3.949,3.969-5.999,5.878
		c-2.178-1.82-4.088-3.91-6.118-5.878c1.78-2.219,4.048-3.95,5.878-6.118C18.502,17.263,20.43,19.454,22.388,21.615z"/>
	<path style="fill-rule:evenodd;clip-rule:evenodd;" d="M48.78,21.374c-1.801,2.278-4.062,4.096-5.998,6.239
		c-2.063-1.935-3.99-4.009-5.998-5.998c1.375-2.106,4.037-3.959,5.758-6.118C44.937,17.14,46.572,19.544,48.78,21.374z"/>
	<path style="fill-rule:evenodd;clip-rule:evenodd;" d="M75.052,21.615c-2.107,1.891-3.925,4.072-6.118,5.878
		c-2.066-1.973-4.218-3.859-5.998-6.119c2-1.919,3.974-3.864,5.878-5.878C71.187,17.243,73.027,19.521,75.052,21.615z
		 M68.814,16.456C68.893,16.535,68.764,16.406,68.814,16.456L68.814,16.456z"/>
</g>
<g id="Layer_1">
</g>
</svg>
