<?xml version="1.0" encoding="iso-8859-1"?>
<!-- Generator: Adobe Illustrator 19.2.0, SVG Export Plug-In . SVG Version: 6.00 Build 0)  -->
<svg version="1.1" xmlns="http://www.w3.org/2000/svg" xmlns:xlink="http://www.w3.org/1999/xlink" x="0px" y="0px"
	 viewBox="0 0 160.647 80.377" style="enable-background:new 0 0 160.647 80.377;" xml:space="preserve">
<g id="Hager_x5F_Tehalit">
	<path style="fill-rule:evenodd;clip-rule:evenodd;" d="M0.6,0.12c22.087,7.418,44.694,14.792,66.94,22.313
		c7.818,2.644,15.658,5.329,23.873,7.918c1.347,0.425,3.558,1.563,4.679,1.56c1.56-0.005,4.544-2.117,6.238-2.999
		c6.086-3.167,12.419-5.674,18.595-8.878C134.007,13.248,147.332,6.349,160.633,0c0.065,6.116-0.128,10.344-0.12,15.956
		c-13.544,5.18-27.883,8.974-41.628,13.796c-3.599,1.263-7.245,2.518-10.797,3.719c-7.297,2.467-14.462,4.994-21.713,6.958
		c-6.285,2.712-13.41,4.585-19.915,7.078c31.342-4.529,62.778-10.639,93.933-15.355c-0.054,5.485-0.009,9.855,0,15.835
		c-32.125,0.608-60.771-0.162-94.172,0.36c31.036,5.785,62.755,10.5,94.053,16.195c0.207,4.614,0.098,11.163,0.12,15.835
		c-24.167-7.714-47.998-16.186-72.339-24.113c-3.699-1.204-7.885-2.893-11.876-3.958c-1.792-0.479-3.889-1.314-5.998-2.04
		c-1.82-0.626-4.563-2.031-5.999-2.039c-0.798-0.005-3.022,1.3-4.199,1.919C40.312,60.503,19.717,70.508,0,80.257
		c0.16-5.527-0.143-10.097,0.12-15.715c2.19-1.104,4.884-1.934,7.318-2.16c1.516-1.311,4.212-1.832,6.598-2.639
		c26.54-8.972,54.077-18.291,80.497-27.232C63.038,37.238,31.329,43.045,0.12,48.106c-0.128-5.395-0.101-10.676,0.12-15.955
		c14.157-0.44,31.737,0.224,47.026-0.12c14.465-0.325,31.384,0.277,46.546-0.12c-5.592-1.468-11.508-2.246-17.395-3.239
		c-16.754-2.827-34.008-5.149-50.625-8.277c-0.619-0.116-1.233-0.289-1.799-0.72c-8.288-0.648-15.702-2.461-23.753-3.719
		c-0.012-5.125,0.017-10.188,0-15.596C0.275,0.254,0.564-0.165,0.6,0.12z"/>
</g>
<g id="Layer_1">
</g>
</svg>
