<?xml version="1.0" encoding="iso-8859-1"?>
<!-- Generator: Adobe Illustrator 19.2.0, SVG Export Plug-In . SVG Version: 6.00 Build 0)  -->
<svg version="1.1" xmlns="http://www.w3.org/2000/svg" xmlns:xlink="http://www.w3.org/1999/xlink" x="0px" y="0px"
	 viewBox="0 0 59.047 76.147" style="enable-background:new 0 0 59.047 76.147;" xml:space="preserve">
<g id="hakone_x5F_open-air_x5F_museum">
	<path style="fill-rule:evenodd;clip-rule:evenodd;" d="M29.406,0.007c4.522-0.146,8.054,1.982,10.309,4.236
		c2.349,2.35,4.232,5.58,4.33,10.215c0.093,4.363-1.891,7.963-4.189,10.262c-2.491,2.49-5.872,4.229-10.167,4.377
		c-4.597,0.16-8.024-1.904-10.356-4.19c-2.448-2.398-4.353-5.68-4.377-10.166c-0.025-4.637,1.794-8.057,4.142-10.404
		C21.528,1.91,24.62,0.163,29.406,0.007z"/>
	<path style="fill-rule:evenodd;clip-rule:evenodd;" d="M11.707,14.599c0.278,5.584-0.087,11.771,0.188,17.275
		c0.009,0.039,0.047,0.047,0.047,0.094c11.139,0.127,23.355,0.176,34.927,0c0.25-0.643,0.141-1.377,0.141-2.07
		c0.001-3.586,0-7.397,0-11.063c0.001-1.453-0.114-2.9,0.142-4.236c3.767-0.176,8.041-0.113,11.72,0
		c0.27,1.877,0.114,3.795,0.095,5.697c-0.138,13.102,0.276,27.312-0.047,41.092c-2.771,0.172-5.967,0.094-8.944,0.094
		c-0.988,0-1.992,0.113-2.871-0.141c-0.227-5.34,0.059-11.514-0.188-17.182c-0.66-0.227-1.391-0.156-2.071-0.188
		c-2.091-0.092-4.331,0-6.543,0c-8.762-0.002-17.749-0.074-26.36,0.094c-0.21,4.203-0.094,8.832-0.094,13.086
		c0,1.441,0.097,2.883-0.142,4.236C9.03,61.525,5.9,61.435,2.952,61.435c-0.978,0-1.952,0.117-2.825-0.094
		c-0.215-14.848-0.093-28.939-0.094-43.965c0-0.934-0.114-1.916,0.141-2.824C3.814,14.408,8.138,14.365,11.707,14.599z"/>
	<path style="fill-rule:evenodd;clip-rule:evenodd;" d="M29.453,46.702c0.303,0.065,0.852,1.049,1.177,1.6
		c3.69,6.264,7.512,12.363,11.108,18.641c0.652,1.137,1.418,2.225,2.071,3.342c0.665,1.137,1.409,2.246,1.977,3.389
		c0.128,0.258,0.186,0.598,0.282,0.801c0.247,0.521,0.733,0.926,0.8,1.506c-0.847,0.254-1.771,0.143-2.636,0.143
		c-10.909-0.002-22.035,0.047-32.244-0.096c0.08-0.721,0.586-1.287,0.941-1.883c5.061-8.484,10.119-16.982,15.251-25.559
		C28.592,47.9,28.99,47.222,29.453,46.702z"/>
</g>
<g id="Layer_1">
</g>
</svg>
