<?xml version="1.0" encoding="iso-8859-1"?>
<!-- Generator: Adobe Illustrator 19.2.0, SVG Export Plug-In . SVG Version: 6.00 Build 0)  -->
<svg version="1.1" xmlns="http://www.w3.org/2000/svg" xmlns:xlink="http://www.w3.org/1999/xlink" x="0px" y="0px"
	 viewBox="0 0 68.616 70.606" style="enable-background:new 0 0 68.616 70.606;" xml:space="preserve">
<g id="Hamburger_x5F_Illustrierte">
	<path style="fill-rule:evenodd;clip-rule:evenodd;" d="M68.449,0.111c0.153,5.687,0.184,11.499,0.146,17.253
		c-0.114,17.471,0.169,35.571-0.098,53.026c-4.779,0.208-10.096,0.227-14.913,0.097c-1.616-0.043-3.231,0.18-4.728-0.097
		c-0.157-6.107-0.099-12.543-0.098-18.861c0.001-2.085,0.137-4.168-0.097-6.092c-1.227-0.161-3.111-0.161-4.338,0
		c-0.275,7.46-0.097,14.789-0.098,21.932c0,1.029,0.117,2.073-0.146,3.07c-6.364,0.119-13.446,0.234-19.738,0
		c-0.26-8.091,0.032-16.733-0.146-24.905c-1.024-0.34-3.137-0.262-4.24-0.049c-0.243,1.001-0.169,2.072-0.146,3.119
		c0.11,5.133-0.001,10.506,0,15.742c0,2.073,0.189,4.149-0.098,6.141c-6.227,0.152-13.231,0.164-19.544,0
		c-0.25-2.825-0.145-5.743-0.146-8.675C0.019,41.524-0.066,20.39,0.119,0.257C6.293,0.038,13.204,0.083,19.663,0.16
		c0.395,8.036-0.073,16.936,0.243,25.051c1.119,0.265,2.301,0.119,3.461,0.146c5.834,0.14,12.053-0.048,18.13-0.048
		c1.223,0,2.453,0,3.655,0c1.187,0,2.378,0.113,3.51-0.146c0.179-6.082,0.096-12.597,0.097-18.91
		c0.001-2.091-0.116-4.167,0.146-6.141C55.406-0.032,61.778-0.042,68.449,0.111z"/>
	<path style="fill-rule:evenodd;clip-rule:evenodd;" d="M44.08,0.16c0.162,6.38,0.163,13.454,0,19.885
		c-6.318,0.12-13.371,0.224-19.738,0c-0.294-3.217-0.097-6.657-0.098-9.991c0-3.327-0.11-6.64,0.098-9.845
		c1.11-0.246,2.299-0.137,3.509-0.146c1.172-0.008,2.393,0,3.607,0C35.824,0.063,40.058-0.06,44.08,0.16z"/>
</g>
<g id="Layer_1">
</g>
</svg>
