<?xml version="1.0" encoding="iso-8859-1"?>
<!-- Generator: Adobe Illustrator 19.2.0, SVG Export Plug-In . SVG Version: 6.00 Build 0)  -->
<svg version="1.1" xmlns="http://www.w3.org/2000/svg" xmlns:xlink="http://www.w3.org/1999/xlink" x="0px" y="0px"
	 viewBox="0 0 83.134 59.297" style="enable-background:new 0 0 83.134 59.297;" xml:space="preserve">
<g id="Hamilton_x5F_Hastings">
	<path style="fill-rule:evenodd;clip-rule:evenodd;" d="M49.144,0.116c0.271,1.087,0.152,2.276,0.152,3.454
		c0,3.576,0.025,7.134,0.101,10.618c0.422,0.086,0.765-0.375,1.017-0.609c0.885-0.824,1.718-1.852,2.591-2.744
		c1.176-1.201,2.37-2.421,3.556-3.607c2.398-2.397,4.736-4.888,7.164-7.164c6.372,0.126,12.73-0.154,19.204,0.102
		c0.259,2.381,0.152,4.932,0.151,7.519c0,6.831,0.079,14.125,0,20.627c-0.008,0.653,0.125,1.282,0,1.778
		c-0.178,0.709-1.061,1.366-1.625,1.93c-0.666,0.666-1.22,1.287-1.778,1.778c-3.32,3.276-6.573,6.726-9.906,10.059
		c-0.178,0.177-0.39,0.626-0.763,0.458c-0.213-9.598,0.071-19.754-0.203-29.416c-1.527-0.276-3.17-0.153-4.775-0.152
		c-4.639,0.001-9.67-0.147-14.53,0c-0.27,0.604-0.152,1.362-0.152,2.083c0,2.062,0.083,4.51-0.101,6.452
		c-5.014,0.189-10.315,0.223-15.241,0c-0.399-2.513,0.065-5.891-0.254-8.484c-6.195-0.298-13.207-0.005-19.153-0.254
		c0.031-0.467,0.475-0.728,0.763-1.016c2.021-2.021,3.999-4.273,6.045-6.35c2.362-2.363,4.518-4.931,7.012-7.164
		C35.253,0.033,42.221-0.076,49.144,0.116z"/>
	<path style="fill-rule:evenodd;clip-rule:evenodd;" d="M14.089,14.95c0.331,0.374,0.203,1.065,0.203,1.727
		c-0.001,9.465-0.049,18.579,0.101,27.688c1.517,0.338,3.13,0.135,4.726,0.152c4.562,0.049,9.667,0.107,14.631,0
		c0.414-2.689-0.14-5.826,0.203-8.637c4.873-0.125,10.6-0.109,15.241,0c0.273,1.245,0.152,2.764,0.152,4.268
		c0,1.487-0.079,3.019,0.102,4.318c1.486,0.261,3.096,0.152,4.674,0.152c4.794,0,9.737,0.013,14.479,0.152
		c0.045,0.466-0.453,0.696-0.711,0.965c-3.757,3.911-7.296,7.853-11.228,11.787c-0.494,0.493-1.295,1.521-1.829,1.676
		c-0.625,0.182-1.679,0.051-2.541,0.051c-6.078,0-12.46,0.13-18.289-0.102c-0.235-2.121-0.152-4.51-0.152-6.909
		c0-2.403,0.042-4.851-0.051-7.164c-0.519-0.14-0.652,0.529-1.067,0.661c-4.338,4.569-8.683,9.132-13.259,13.463
		c-6.484-0.039-12.837,0.147-19.356-0.102c-0.236-9.848-0.035-20.134-0.101-30.177c4.447-4.799,9.243-9.249,13.869-13.87
		c0.037-0.047,0.092-0.077,0.152-0.102C14.055,14.95,14.073,14.95,14.089,14.95z"/>
	<path style="fill-rule:evenodd;clip-rule:evenodd;" d="M29.838,18.303c0.273,1.345,0.152,2.967,0.152,4.572
		c0.001,1.574-0.082,3.19,0.103,4.572c0.887,0.269,1.864,0.153,2.794,0.152c5.858-0.001,11.568,0.001,17.426,0
		c0.916,0,1.873,0.119,2.743-0.152c0.302-2.797-0.099-6.297,0.203-9.094c1.08-0.203,2.714-0.116,3.76,0.051
		c0.167,7.443,0.171,15.019,0,22.506c-1.147,0.123-2.598,0.136-3.709-0.051c-0.431-2.805,0.112-6.349-0.203-9.195
		c-7.583-0.185-15.591-0.119-22.913-0.051c-0.371,0.56-0.162,1.365-0.152,2.083c0.031,2.284-0.046,4.989-0.152,7.163
		c-1.006,0.141-2.784,0.224-3.708-0.051c-0.225-3.471-0.081-7.318-0.101-11.329c-0.015-2.757-0.118-5.593-0.052-8.535
		c0.019-0.796-0.075-2.231,0.153-2.591c0.037-0.047,0.092-0.077,0.151-0.102C27.487,18.285,28.769,18.187,29.838,18.303z"/>
</g>
<g id="Layer_1">
</g>
</svg>
