<?xml version="1.0" encoding="iso-8859-1"?>
<!-- Generator: Adobe Illustrator 19.2.0, SVG Export Plug-In . SVG Version: 6.00 Build 0)  -->
<svg version="1.1" xmlns="http://www.w3.org/2000/svg" xmlns:xlink="http://www.w3.org/1999/xlink" x="0px" y="0px"
	 viewBox="0 0 83.748 35.055" style="enable-background:new 0 0 83.748 35.055;" xml:space="preserve">
<g id="Hammel_x5F_Green_x5F_and_x5F_Abrahamson">
	<path style="fill-rule:evenodd;clip-rule:evenodd;" d="M35.436,11.804c-2.191,0.051-4.86,0.148-6.97-0.05
		c0.002-0.971,0.48-1.828,0.847-2.639c1.09-2.416,2.531-4.565,4.53-6.124c2.243-1.749,5.626-2.901,9.311-2.987
		c2.965-0.069,5.524,0.657,7.667,1.743c2.071,1.049,3.847,2.617,4.83,4.58c0.372,0.743,0.788,1.785,0.696,2.838
		c-0.162,1.86-2.397,3.389-4.381,2.24c-0.869-0.503-1.326-1.488-1.892-2.39c-1.006-1.602-2.4-2.849-4.681-3.236
		c-1.747-0.297-3.545-0.033-4.929,0.548C38.164,7.293,36.82,9.305,35.436,11.804z"/>
	<path style="fill-rule:evenodd;clip-rule:evenodd;" d="M25.579,11.755c-0.936,0.294-2.154,0.113-3.286,0.149
		c-1.124,0.035-2.259,0.141-3.137-0.1c-0.049-2.299-0.273-5.467-0.1-7.717c0.137-1.771,1.399-3.213,3.286-3.286
		c1.462-0.058,3.108,1.111,3.286,2.489c0.15,1.167,0.05,2.777,0.05,4.281C25.678,9.059,25.758,10.539,25.579,11.755z"/>
	<path style="fill-rule:evenodd;clip-rule:evenodd;" d="M77.557,11.605c-0.409,0.255-0.916,0.102-1.444,0.1
		c-1.466-0.01-3.228,0.189-4.58-0.05c-0.404-0.516-0.262-1.859-0.995-1.843c-0.744,0.019-0.515,1.509-1.096,1.893
		c-1.934,0.026-4.15,0.21-5.925-0.05c0.058-1.023,0.589-2.068,0.995-3.137c1.212-3.181,1.748-7.371,5.775-7.667
		c1.482-0.109,2.988,0.337,3.834,1.244c1.023,1.098,1.465,2.873,1.991,4.482C76.663,8.254,77.283,9.764,77.557,11.605z"/>
	<path style="fill-rule:evenodd;clip-rule:evenodd;" d="M6.461,11.854c-1.841,0.264-4.264,0.122-6.273,0
		c-0.152-0.451-0.036-0.893-0.05-1.394c-0.056-2.003-0.248-5.051-0.05-6.82c0.151-1.351,1.461-2.517,2.788-2.639
		C4.609,0.84,5.502,1.808,6.212,2.793C6.416,3.351,6.6,3.994,6.61,4.684C6.642,6.958,6.649,9.65,6.461,11.854z"/>
	<path style="fill-rule:evenodd;clip-rule:evenodd;" d="M68.645,14.244c-0.121,0.979-0.395,1.887-0.697,2.738
		c-0.302,0.851-0.499,1.738-0.945,2.489c-1.978,0.051-4.429,0.147-6.323-0.05c0.146-0.867,0.533-1.736,0.847-2.639
		c0.305-0.88,0.562-1.821,0.995-2.589c1.46-0.143,3.26,0.021,4.78-0.05C67.773,14.123,68.271,13.978,68.645,14.244z"/>
	<path style="fill-rule:evenodd;clip-rule:evenodd;" d="M78.354,14.144c0.476,0.765,0.644,1.679,0.945,2.539
		c0.295,0.842,0.682,1.705,0.747,2.688c-0.726,0.293-1.609,0.072-2.489,0.1c-1.23,0.039-2.453,0.085-3.685-0.05
		c-0.434-0.731-0.635-1.694-0.896-2.589c-0.263-0.897-0.687-1.819-0.598-2.688C74.257,14.062,76.476,14.062,78.354,14.144z"/>
	<path style="fill-rule:evenodd;clip-rule:evenodd;" d="M58.14,19.422c-3.626,0.263-7.99,0.149-11.999,0.149
		c-1.381,0-2.801,0.234-3.834-0.1c-2.155-0.695-2.497-4.125-0.349-5.078c0.683-0.303,2.015-0.199,3.137-0.199
		c3.389-0.001,6.579,0.153,9.858,0c0.081-0.004,0.084-0.042,0.149-0.05C58.398,13.749,58.727,16.498,58.14,19.422z"/>
	<path style="fill-rule:evenodd;clip-rule:evenodd;" d="M25.529,14.393c0.124,1.541,0.232,3.764,0,5.178
		c-8.054,0.248-16.985,0.202-25.292,0.05c-0.129-1.54-0.226-3.61-0.05-5.128c0.93-0.264,1.919-0.149,2.888-0.149
		c2.948-0.001,5.968,0.001,9.012,0c4.001-0.001,8.077,0.128,11.899-0.05C24.426,14.273,25.151,14.117,25.529,14.393z"/>
	<path style="fill-rule:evenodd;clip-rule:evenodd;" d="M34.74,14.343c0.132,0.716-0.085,1.625-0.149,2.539
		c-0.064,0.908-0.001,1.858-0.1,2.639c-0.331,0.268-0.775,0.117-1.194,0.1c-1.783-0.074-3.979,0.259-5.577-0.1
		c-0.141-1.483-0.303-3.932,0.249-5.178c0.037-0.047,0.091-0.075,0.149-0.1C30.295,14.307,32.728,14.114,34.74,14.343z"/>
	<path style="fill-rule:evenodd;clip-rule:evenodd;" d="M66.156,21.961c-0.43,1.82-1.042,3.659-1.644,5.476
		c-0.291,0.881-0.573,1.801-0.846,2.689c-0.267,0.872-0.544,1.87-0.946,2.59c-0.78,1.395-2.974,2.266-4.63,1.194
		c-0.985-0.637-1.674-1.669-1.494-3.286c0.083-0.741,0.48-1.466,0.747-2.24c0.729-2.122,1.51-4.495,2.34-6.473
		C61.779,21.819,64.054,21.743,66.156,21.961z"/>
	<path style="fill-rule:evenodd;clip-rule:evenodd;" d="M74.769,21.861c1.895-0.05,4.262-0.148,6.074,0.05
		c0.38,0.221,0.366,0.725,0.498,1.096c0.669,1.883,1.272,3.875,1.892,5.925c0.243,0.805,0.598,1.674,0.498,2.589
		c-0.317,2.911-4.522,3.681-5.925,1.294c-0.413-0.701-0.598-1.734-0.896-2.688c-0.717-2.289-1.412-4.523-2.091-6.87
		C74.693,22.819,74.444,22.278,74.769,21.861z"/>
	<path style="fill-rule:evenodd;clip-rule:evenodd;" d="M57.742,21.961c-0.032,1.923-0.77,3.603-1.544,5.078
		c-1.562,2.979-3.79,5.312-7.02,6.722c-2.132,0.932-4.399,1.467-7.319,1.245c-2.03-0.154-3.789-0.722-5.327-1.395
		c-2.974-1.301-5.239-3.751-6.771-6.572c-0.392-0.72-0.712-1.501-0.996-2.34c-0.274-0.81-0.695-1.685-0.598-2.639
		c2.132-0.186,4.647-0.123,6.772-0.05c0.488,0.95,0.733,1.926,1.244,2.788c1.591,2.687,5.09,5.438,9.609,4.183
		c2.584-0.719,4.977-3.182,5.676-5.676c0.141-0.502-0.042-1.041,0.349-1.394C53.663,21.861,55.978,21.763,57.742,21.961z"/>
	<path style="fill-rule:evenodd;clip-rule:evenodd;" d="M25.529,22.11c0.18,1.431,0.1,3.142,0.1,4.879
		c0,1.692,0.135,3.478-0.05,4.93c-0.205,1.62-2.053,3.014-3.933,2.589c-1.158-0.262-2.385-1.438-2.54-2.937
		c-0.148-1.428,0-3.168,0-4.829c0.001-1.65-0.126-3.292,0.1-4.631c1.366-0.232,3.144-0.028,4.68-0.1
		C24.465,21.984,25.071,21.835,25.529,22.11z"/>
	<path style="fill-rule:evenodd;clip-rule:evenodd;" d="M6.51,22.161c0.195,1.404,0.1,3.291,0.1,5.177
		c0,1.841,0.25,3.811-0.149,5.079c-0.375,1.188-1.355,1.732-2.439,2.091c-1.963,0.093-3.38-0.802-3.784-2.34
		c-0.336-1.274-0.1-3.207-0.1-5.028c0-1.849-0.079-3.665,0.1-5.029C2.284,22.038,4.531,21.954,6.51,22.161z"/>
</g>
<g id="Layer_1">
</g>
</svg>
