<?xml version="1.0" encoding="iso-8859-1"?>
<!-- Generator: Adobe Illustrator 19.2.0, SVG Export Plug-In . SVG Version: 6.00 Build 0)  -->
<svg version="1.1" xmlns="http://www.w3.org/2000/svg" xmlns:xlink="http://www.w3.org/1999/xlink" x="0px" y="0px"
	 viewBox="0 0 75.832 57.944" style="enable-background:new 0 0 75.832 57.944;" xml:space="preserve">
<g id="Hang_x5F_Druck">
	<path style="fill-rule:evenodd;clip-rule:evenodd;" d="M7.165,0.164c0.284,7.437-0.104,15.812,0.199,23.171
		c0.675-0.149,1.095-0.726,1.591-1.094c2.798-2.078,7.063-3.822,12.083-3.63c6.852,0.263,11.85,3.47,15.017,7.608
		c0.462,0.605,0.798,1.305,1.392,1.79c-1.013-2.944-1.757-6.138-1.193-9.945c0.363-2.45,1.127-4.648,2.188-6.563
		c0.243-0.438,0.802-1.587,1.243-1.641c0.433-0.053,1.254,0.598,1.591,0.796c1.071,0.629,1.828,1.109,2.983,1.79
		c0.362,0.213,1.316,0.62,1.393,0.994c0.065,0.324-0.285,0.674-0.497,1.045c-1.25,2.178-2.041,5.515-1.293,8.851
		c0.729,3.254,2.89,5.161,5.32,6.912c2.386,1.324,5.745,2.321,9.298,1.641c3.051-0.584,5.523-2.258,7.16-4.127
		c1.288-1.56,2.275-3.437,2.735-5.768c1.07-5.433-1.801-9.721-4.774-11.884c-1.664-1.211-3.713-1.849-6.116-2.337
		c-2.448-0.497-5.025-0.481-7.807-0.497c-8.17-0.047-17.291,0.043-24.912-0.199c-0.151-2.087-0.213-4.502-0.05-6.613
		c1.763-0.232,3.582-0.162,5.42-0.149c7.46,0.049,15.094,0.1,22.725,0.1c5.632,0,10.421,0.929,14.071,3.132
		c4.667,2.816,8.134,7.488,8.801,14.171c0.64,6.396-1.904,11.727-4.872,15.066c-2.123,2.389-5.033,4.424-8.603,5.47
		c-2.977,0.872-6.498,1.13-9.994,0.547c-4.802-0.802-8.27-2.949-11.089-5.768c-0.949-0.949-1.669-2.052-2.635-2.983
		c0.477,1.562,1.02,3.116,1.292,4.873c0.925,5.954-0.79,11.125-3.231,14.619c-3.341,4.78-8.486,8.248-16.11,8.404
		c-0.225-1.028-0.205-2.345-0.15-3.531c0.056-1.21-0.116-2.416,0.1-3.48c3.738-0.539,6.561-1.606,8.601-3.68
		c0.499-0.507,0.948-1.188,1.393-1.79c1.303-1.765,2.223-4.208,2.337-7.061c0.109-2.718-0.95-5.521-2.187-7.259
		c-0.425-0.597-0.844-1.269-1.343-1.79c-2.666-2.786-7.552-4.56-12.779-3.282c-1.286,0.315-2.764,1.139-3.778,1.89
		c-1.123,0.831-2.091,1.709-2.884,2.735c-1.686,2.18-2.46,5.043-2.586,8.652c-2.127,0.167-4.934,0.163-7.061,0
		c-0.194-0.731-0.149-1.55-0.149-2.337c0-9.446,0-17.753,0-27.05c0-2.354,0.103-4.826,0.05-7.508
		C0.039,1.694-0.083,0.387,0.203,0.115c0.037-0.046,0.091-0.075,0.149-0.1c1.143,0,2.354,0,3.53,0
		C5.03,0.015,6.211-0.07,7.165,0.164z"/>
</g>
<g id="Layer_1">
</g>
</svg>
