<?xml version="1.0" encoding="iso-8859-1"?>
<!-- Generator: Adobe Illustrator 21.0.2, SVG Export Plug-In . SVG Version: 6.00 Build 0)  -->
<svg version="1.1" xmlns="http://www.w3.org/2000/svg" xmlns:xlink="http://www.w3.org/1999/xlink" x="0px" y="0px"
	 viewBox="0 0 9.614 9.51" style="enable-background:new 0 0 9.614 9.51;" xml:space="preserve">
<g id="Hans_x5F_Joachim_x5F_Gerike">
	<path d="M0,0.075C0.004,0.05-0.008,0.019,0.011,0C3.212,0,6.413,0,9.614,0c0.001,3.151,0,6.302,0.001,9.453
		C9.613,9.472,9.611,9.491,9.606,9.51C7.777,9.506,5.949,9.509,4.12,9.508c-1.372,0-2.745-0.001-4.117,0.001
		C-0.001,8.58,0.002,7.653,0.001,6.725C0.001,4.508,0.002,2.291,0,0.075z M1.589,1.582c-0.001,1.866,0,3.732-0.001,5.597
		c0.003,0.25-0.006,0.5,0.005,0.75c2.142-0.002,4.283-0.001,6.425-0.001c0.003-1.012,0-2.024,0.002-3.035
		C7.931,4.851,7.836,4.824,7.745,4.787C7.175,4.575,6.605,4.363,6.034,4.152C6.03,4.16,6.021,4.175,6.017,4.182
		C6.012,4.753,6.019,5.324,6.013,5.894c-0.77-0.002-1.54,0.001-2.31-0.001c0-0.758,0.002-1.517-0.001-2.275
		c0.058-0.02,0.121-0.012,0.181-0.013c1.378,0,2.757,0.001,4.135,0c0.001-0.408,0-0.815,0-1.223
		C8.016,2.114,8.025,1.846,8.015,1.579C5.873,1.583,3.731,1.578,1.589,1.582z"/>
</g>
<g id="Layer_1">
</g>
</svg>
