<?xml version="1.0" encoding="iso-8859-1"?>
<!-- Generator: Adobe Illustrator 21.0.2, SVG Export Plug-In . SVG Version: 6.00 Build 0)  -->
<svg version="1.1" xmlns="http://www.w3.org/2000/svg" xmlns:xlink="http://www.w3.org/1999/xlink" x="0px" y="0px"
	 viewBox="0 0 8.707 8.827" style="enable-background:new 0 0 8.707 8.827;" xml:space="preserve">
<g id="Harrison_x5F_Pipelines">
	<path d="M0,0.002c0.772-0.004,1.544,0,2.316-0.001c-0.001,0.881,0,1.762-0.001,2.643C2.317,2.729,2.3,2.823,2.354,2.897
		c0.101,0.132,0.251,0.212,0.402,0.274C3.129,3.318,3.53,3.373,3.928,3.405c0.635,0.031,1.284,0.006,1.893-0.192
		c0.206-0.073,0.435-0.168,0.541-0.373c0.012-0.945,0.001-1.892,0.005-2.838C7.147,0,7.927-0.001,8.707,0.001
		C8.701,1.704,8.705,3.406,8.705,5.109C8.7,6.348,8.712,7.588,8.699,8.827C8.245,8.811,7.79,8.824,7.336,8.82
		C7.012,8.822,6.688,8.815,6.364,8.824c0.001-0.909-0.005-1.819,0.003-2.728C6.171,6.331,5.867,6.424,5.581,6.497
		C4.956,6.64,4.306,6.66,3.669,6.597c-0.367-0.045-0.74-0.106-1.077-0.268C2.484,6.278,2.389,6.205,2.309,6.117
		C2.323,7.018,2.311,7.92,2.315,8.822C1.544,8.819,0.773,8.817,0.002,8.822C0.002,5.882,0.005,2.942,0,0.002z M3.855,5.035
		c-0.43,0.039-0.868,0.104-1.259,0.297C2.455,5.41,2.279,5.536,2.316,5.721c0.059,0.168,0.23,0.256,0.383,0.326
		C3.124,6.227,3.59,6.279,4.046,6.313c0.258-0.005,0.518,0.015,0.776-0.016c0.416-0.035,0.839-0.101,1.221-0.278
		c0.139-0.068,0.293-0.162,0.324-0.327c0.011-0.115-0.072-0.214-0.158-0.279c-0.235-0.164-0.517-0.24-0.794-0.297
		C4.903,5.013,4.375,5.002,3.855,5.035z"/>
</g>
<g id="Layer_1">
</g>
</svg>
