<?xml version="1.0" encoding="iso-8859-1"?>
<!-- Generator: Adobe Illustrator 19.2.0, SVG Export Plug-In . SVG Version: 6.00 Build 0)  -->
<svg version="1.1" xmlns="http://www.w3.org/2000/svg" xmlns:xlink="http://www.w3.org/1999/xlink" x="0px" y="0px"
	 viewBox="0 0 65.971 72.067" style="enable-background:new 0 0 65.971 72.067;" xml:space="preserve">
<g id="Hatsune_x5F_Industries_x5F_Co">
	<path style="fill-rule:evenodd;clip-rule:evenodd;" d="M11.797,0.107c0.246,1.258,0.137,2.626,0.137,3.984
		c0,3.98-0.076,8.308,0.091,12.181c0.729,0.097,1.446-0.216,2.198-0.366c2.272-0.455,4.901-0.483,7.418-0.046
		c3.128,0.542,5.686,1.743,7.74,3.205c2.105,1.548,3.809,3.463,5.22,5.724c1.066,1.708,1.771,3.732,2.335,5.908
		c0.178,0.683,0.114,1.495,0.596,2.106c0.809-0.099,1.788-0.404,2.335-0.916c0.105-2.926,0.046-6.207,0.046-9.434
		c0-1.059-0.104-2.108,0.137-3.068c3.744-0.184,8.072-0.029,11.769,0c0.244,0.976,0.137,2.057,0.137,3.114
		c0,3.019-0.04,6.339,0.046,9.48c0.266,0.483,0.852,0.552,1.282,0.733c4.952,2.08,8.773,5.796,11.037,10.67
		c0.827,1.781,1.577,3.836,1.648,6.136c-1.726,0.243-3.72,0.137-5.633,0.138c-1.926,0-3.83,0.012-5.587-0.046
		c-0.483-0.535-0.83-1.268-1.19-1.969c-0.345-0.67-0.598-1.529-1.42-1.74c-0.316,0.615-0.183,1.43-0.183,2.198
		c0,2.271,0.028,4.732-0.091,6.731c-3.734,0.228-7.895,0.144-11.861,0c-0.198-1.989-0.091-4.26-0.091-6.502
		c0-0.715,0.104-1.447-0.138-2.061c-0.594,0.039-0.89,0.774-1.145,1.282c-0.812,1.616-1.356,3.896-0.871,6.137
		c0.568,2.622,2.231,4.291,4.397,5.541c2.34,1.351,5.844,0.904,7.968-0.275c1.563-0.868,2.829-2.195,3.526-3.938
		c0.235-0.589,0.258-1.262,0.595-1.878c1.924-0.083,3.938-0.046,5.907-0.046c1.939,0,3.941-0.108,5.724,0.137
		c-0.117,2.59-0.917,4.88-1.832,6.915c-0.92,2.046-1.962,3.886-3.435,5.358c-1.535,1.535-3.06,2.807-4.946,3.893
		c-1.889,1.087-3.94,1.791-6.457,2.335c-5.399,1.168-10.683-0.897-14.105-2.977c-3.745-2.276-6.266-5.61-8.014-9.617
		c-0.878-2.013-1.384-4.517-1.603-7.235c-0.331-4.1-0.092-8.821-0.092-13.143c0-1.457,0.101-2.957-0.046-4.35
		c-0.285-2.717-1.524-4.354-3.297-5.496c-2.06-1.325-4.807-1.262-6.823,0c-1.868,1.17-3.171,2.679-3.297,5.496
		c-0.17,3.799,0,8.517,0,12.868c0,1.435,0.1,2.848-0.137,4.167c-0.367,0.297-0.916,0.183-1.374,0.183c-1.461,0.001-3.075,0-4.579,0
		c-2.013,0.001-4.023,0.027-5.77-0.137C-0.059,36.272,0.028,19.776,0.027,3.267c0-0.953-0.096-2.737,0.138-3.16
		c0.033-0.043,0.083-0.07,0.137-0.092C4.104,0.076,8.148-0.106,11.797,0.107z"/>
	<path style="fill-rule:evenodd;clip-rule:evenodd;" d="M51.867,4.869c0.202,3.812,0.074,8.308,0,11.998
		c-3.762,0.251-7.922,0.129-11.861,0c-0.172-3.072-0.046-6.395-0.046-9.708c0-0.596-0.094-2.085,0.138-2.336
		c0.033-0.042,0.083-0.069,0.137-0.091c1.655-0.027,3.264,0.016,4.808,0.046C47.323,4.822,49.642,4.647,51.867,4.869z"/>
</g>
<g id="Layer_1">
</g>
</svg>
