<?xml version="1.0" encoding="iso-8859-1"?>
<!-- Generator: Adobe Illustrator 19.2.0, SVG Export Plug-In . SVG Version: 6.00 Build 0)  -->
<svg version="1.1" xmlns="http://www.w3.org/2000/svg" xmlns:xlink="http://www.w3.org/1999/xlink" x="0px" y="0px"
	 viewBox="0 0 79.18 63.988" style="enable-background:new 0 0 79.18 63.988;" xml:space="preserve">
<g id="Hattori_x5F_watches">
	<path style="fill-rule:evenodd;clip-rule:evenodd;" d="M53.945,8.879c0.254,1.594,2.128,1.295,3.591,1.695
		c0.841,0.23,1.749,0.745,2.594,1.247c1.513,0.899,2.818,1.654,2.992,3.891c0.073,0.937,0.121,1.973-0.499,2.494
		c-1.01,0.364-1.902-0.275-2.693-0.648c-1.462-0.689-2.891-1.222-3.99-2.244c-0.475-0.249-1.62-0.694-1.896-0.051
		c-0.456,1.067,1.644,1.518,2.245,1.746c4.849,1.846,9.149,4.328,12.869,7.333c1.016,0.819,2.19,1.853,3.242,2.843
		c0.365,0.344,0.88,0.727,0.897,1.097c0.035,0.733-0.983,1.312-1.396,1.696c-0.593,0.55-0.894,1.081-1.696,1.347
		c-0.644-0.057-1.049-0.584-1.496-0.948c-2.613-2.125-5.789-3.861-9.128-5.436c-0.603-0.284-1.355-0.574-1.696-0.898
		c-0.429-0.408-0.72-1.196-1.047-1.796c-1.023-1.872-2.308-3.277-3.542-4.888c-2.843-2.414-6.035-4.585-10.475-5.287
		c-5.789-0.916-10.468,0.741-14.016,2.843c-1.804,1.069-3.428,2.426-4.688,3.94c-1.334,1.604-2.321,3.396-3.392,5.188
		c-3.011,1.399-6.349,3.127-9.128,5.138c-0.387,0.28-0.83,0.656-1.347,1.047c-0.404,0.305-1.015,0.948-1.397,0.948
		c-0.565,0-1.749-1.301-2.095-1.646c-0.69-0.691-1.328-1.18-1.696-2.045c0.085-0.577,0.534-1.029,0.898-1.446
		c3.906-4.477,8.653-8.327,14.216-11.272c0.924-0.489,2.004-0.987,3.142-1.496c0.609-0.273,1.028-0.449,1.347-0.948
		c0.309-0.483,0.52-1.262-0.05-1.646c-0.457-0.309-1.107,0.005-1.746,0.249c-0.606,0.23-1.232,0.378-1.696,0.549
		c-3.271,1.207-6.193,2.931-8.829,4.738c-3.155,2.163-5.917,4.471-8.529,7.282c-0.322,0.347-0.875,1.04-1.197,1.048
		c-0.57,0.013-1.064-1.05-1.347-1.446c-0.425-0.598-0.907-1.071-1.047-1.746C2.993,16.86,6.614,13.052,10.8,9.876
		c1.392-1.056,2.786-2.148,4.29-3.042C21.26,3.167,28.351,0.483,37.685,0.05C37.774,0.046,37.79,0,37.884,0
		c5.559,0.003,11.189,0.61,15.512,2.145c1.356,0.481,2.697,1.083,4.04,1.597c4.021,1.536,7.398,3.752,10.674,6.185
		c3.549,2.636,6.902,6.213,9.677,10.026c0.388,0.532,1.042,1.278,1.047,1.745c0.008,0.597-0.595,1.153-0.947,1.646
		c-0.243,0.339-0.816,1.284-1.247,1.297c-0.472,0.014-0.901-0.813-1.247-1.247c-2.491-3.126-5.468-6.126-8.729-8.38
		c-1.89-1.307-3.776-2.698-5.935-3.841c-1.564-0.826-3.212-1.601-5.038-2.294C55.196,8.691,54.42,8.232,53.945,8.879z"/>
	<path style="fill-rule:evenodd;clip-rule:evenodd;" d="M56.439,23.344c-0.562,0.226-1.072-0.192-1.546-0.35
		c-5.529-1.829-12.879-3.141-20.251-2.344c-3.733,0.403-7.317,1.229-10.524,2.244c-0.619,0.195-1.279,0.566-1.945,0.399
		c-0.188-0.414,0.158-0.824,0.349-1.148c2.247-3.793,5.575-6.836,10.026-8.479c2.329-0.86,4.596-1.311,7.631-1.297
		c1.393,0.007,2.871,0.371,4.19,0.698c3.805,0.944,6.857,3.012,9.128,5.387c0.759,1.183,1.766,2.257,2.494,3.542
		C56.206,22.377,56.633,22.834,56.439,23.344z"/>
	<path style="fill-rule:evenodd;clip-rule:evenodd;" d="M21.374,39.056c-1.369-2.744-1.923-7.498-0.998-11.174
		c0.255-1.012,0.492-2.604,1.048-3.291c0.587-0.726,2.442-1.151,3.541-1.496c2.698-0.849,5.29-1.293,8.28-1.796
		c4.724-0.796,10.604-0.515,15.163,0.448c2.187,0.463,4.542,1.135,6.634,1.846c0.656,0.223,1.748,0.65,2.045,0.948
		c0.626,0.626,0.926,2.145,1.197,3.292c0.608,2.579,0.535,5.436,0,8.08c-0.221,1.093-0.492,2.681-1.097,3.342
		c-0.619,0.678-2.905,1.206-3.891,1.546c-2.812,0.971-5.68,1.538-9.028,1.846c-5.025,0.463-10.42,0.14-14.764-0.897
		C26.558,41.045,23.81,40.309,21.374,39.056z M33.096,33.968c0.849,2.861,4.236,5.444,8.18,4.339
		c2.588-0.725,4.972-3.302,4.739-6.783c-0.12-1.782-1.12-3.464-1.846-4.19c-1.186-1.185-3.076-2.153-5.487-1.895
		C34.759,25.858,31.829,29.703,33.096,33.968z"/>
	<path style="fill-rule:evenodd;clip-rule:evenodd;" d="M0.275,23.044c0.426,0.083,0.743,0.804,1.097,1.247
		c2.369,2.96,5.028,5.814,7.931,8.131c2.841,2.503,6.03,4.582,9.726,6.334c0.601,0.284,1.319,0.496,1.696,0.898
		c0.293,0.312,0.481,0.808,0.698,1.247c3.142,6.373,8.792,10.785,17.856,11.223c4.957,0.239,8.818-1.731,11.722-3.691
		c1.575-1.063,2.749-2.396,3.891-3.841c0.851-1.076,1.654-2.181,2.294-3.541c0.242-0.515,0.429-1.092,0.848-1.396
		c0.447-0.326,1.062-0.479,1.596-0.749c1.526-0.768,3.127-1.547,4.589-2.443c1.921-1.178,3.749-2.443,5.536-3.841
		c3.127-2.444,5.634-5.25,8.081-8.33c0.295-0.371,0.539-1.03,1.147-1.098c0.265,0.772,0.149,1.74,0.149,2.694
		c0,1.065,0.132,2.287-0.05,3.191c-0.14,0.696-0.702,1.351-1.098,2.046c-2.663,4.682-6.169,8.381-9.926,11.871
		c-2.126,1.975-4.747,3.691-7.282,5.188c-1.185,0.698-2.74,1.525-4.09,2.145c-0.59,0.27-1.466,0.557-2.095,0.998
		c-0.542,0.379-1.202,1.086-0.499,1.995c0.733,0.138,1.451-0.213,2.095-0.449c8.957-3.292,16.04-8.666,21.448-15.562
		c0.358-0.458,0.672-1.108,1.296-1.297c0.321,0.657,0.2,1.707,0.2,2.743c0,1.042,0.121,2.321-0.05,3.093
		c-0.234,1.057-1.651,2.639-2.295,3.491c-0.866,1.148-1.789,2.223-2.644,3.143c-1.898,2.045-3.841,4.006-5.985,5.536
		c-2.269,1.62-4.498,3.237-6.983,4.539c-4.935,2.587-10.786,4.767-17.757,5.287c-11.38,0.851-20.867-2.195-27.833-6.434
		C9.361,53.396,4.033,48.482,0.076,42.197c-0.083-0.813-0.05-2.038-0.05-3.092c0.001-1.039-0.118-2.077,0.15-2.844
		c0.658,0.264,0.886,0.996,1.247,1.547c0.36,0.549,0.82,1.043,1.147,1.596c0.84,0.989,1.599,2.06,2.444,3.043
		c2.072,2.149,3.958,4.234,6.384,6.035c0.774,0.575,1.488,1.271,2.294,1.796c2.77,1.799,5.916,3.647,9.477,4.987
		c0.518,0.195,1.335,0.412,1.546,0c0.27-0.526-0.263-0.924-0.449-1.047c-0.909-0.602-2.602-0.526-3.691-0.948
		c-0.48-0.186-1.11-0.568-1.746-0.897c-1.162-0.603-2.515-1.244-2.943-2.494c-0.387-1.128-0.507-3.659,0.399-4.09
		c0.871-0.414,1.816,0.18,2.444,0.449c0.534,0.229,1.573,0.678,2.095,0.947c0.591,0.306,1.028,0.711,1.846,1.247
		c0.469,0.308,1.804,1.036,2.095,0.249c0.299-0.808-0.813-1.286-1.297-1.446c-3.503-1.158-6.561-2.815-9.377-4.639
		c-1.165-0.754-2.186-1.637-3.192-2.394c-3.249-2.444-6.035-5.152-8.529-8.329c-0.816-1.039-1.761-2.041-2.295-3.292
		c-0.053-1.684-0.146-3.836,0.05-5.437C0.162,23.098,0.217,23.068,0.275,23.044z"/>
	<path style="fill-rule:evenodd;clip-rule:evenodd;" d="M1.722,32.222c0.033,0,0.066,0,0.1,0c0.579,0.328,0.935,0.902,1.347,1.397
		c0.398,0.478,0.95,0.94,1.148,1.597c-0.083,0.665-0.619,0.877-0.898,1.347c-0.443,0.267-0.578,1.031-1.147,1.048
		c-0.469,0.013-0.894-0.821-1.197-1.297c-0.28-0.44-0.839-1.084-0.848-1.646C0.217,34.11,1.283,32.36,1.722,32.222z"/>
	<path style="fill-rule:evenodd;clip-rule:evenodd;" d="M77.688,36.312c-0.365,0.449-0.59,1.039-1.197,1.247
		c-0.578-0.143-1.138-0.734-1.148-1.197c-0.01-0.495,0.584-0.952,0.948-1.497c0.442-0.662,0.707-1.199,1.047-1.446
		c0.681-0.201,1.297,0.717,1.297,1.347C78.635,35.458,77.952,35.89,77.688,36.312z"/>
	<path style="fill-rule:evenodd;clip-rule:evenodd;" d="M56.539,40.452c-0.037,0.935-0.608,1.691-1.047,2.394
		c-0.447,0.715-1.053,1.315-1.497,1.994c-1.518,1.953-3.521,3.524-5.836,4.739c-2.309,1.211-5.191,2.031-8.429,2.095
		c-2.284,0.045-4.496-0.418-6.385-0.997c-4.961-1.521-8.679-5.041-10.973-9.278c-0.18-0.331-0.649-0.767-0.299-1.197
		c0.697-0.02,1.434,0.391,2.145,0.649c1.837,0.667,3.88,1.259,5.985,1.646c5.523,1.014,12.895,1.256,18.456,0
		c2.133-0.481,4.08-0.988,5.985-1.646C55.228,40.649,55.883,40.261,56.539,40.452z"/>
</g>
<g id="Layer_1">
</g>
</svg>
