<?xml version="1.0" encoding="iso-8859-1"?>
<!-- Generator: Adobe Illustrator 19.2.0, SVG Export Plug-In . SVG Version: 6.00 Build 0)  -->
<svg version="1.1" xmlns="http://www.w3.org/2000/svg" xmlns:xlink="http://www.w3.org/1999/xlink" x="0px" y="0px"
	 viewBox="0 0 79.811 59.734" style="enable-background:new 0 0 79.811 59.734;" xml:space="preserve">
<g id="Hawker_x5F_Siddeley">
	<path style="fill-rule:evenodd;clip-rule:evenodd;" d="M41.193,4.306c-0.209,0.452-0.752,0.621-1.158,0.805
		c-6.549,2.977-13.293,6.064-19.785,9.163c-0.938,0.521-2.062,0.858-2.87,1.511c0.406,0.561,1.114,0.779,1.712,1.057
		c3.7,1.722,7.422,3.495,11.227,5.336c0.571,0.276,1.418,0.792,1.913,0.806c0.42,0.011,1.162-0.4,1.712-0.655
		c3.7-1.711,7.553-3.44,11.126-5.236c2.096-1.053,4.229-1.935,6.343-3.02c1.482-0.761,3.093-1.455,4.733-2.266
		c0.557-0.275,1.239-0.693,1.61-0.705c0.694-0.021,2.278,0.885,2.92,1.158c1.947,0.827,3.765,1.567,5.689,2.366
		c0.924,0.384,1.899,0.744,2.718,1.309c-0.055,0.389-0.521,0.568-0.805,0.705c-2.331,1.12-4.744,2.152-7.149,3.272
		c-2.654,1.237-5.372,2.525-8.105,3.826c-3.97,1.89-8.011,3.892-12.133,5.739c-1.185,0.531-2.947,1.232-3.927,2.014
		c-0.647,0.516-1.45,1.744-0.252,2.266c1.846-0.285,3.294-1.222,4.833-1.913c1.551-0.696,3.031-1.483,4.582-2.165
		c1.53-0.673,3.16-1.287,4.632-2.115c1.423-0.8,2.951-1.539,4.481-2.215c4.581-2.024,9.12-4.26,13.895-6.343
		c1.957-0.854,5.122-1.392,7.099-0.252c2.859,1.648,3.941,5.354,3.474,9.918c-0.67,6.538-3.627,10.806-8.156,13.492
		c-2.268,1.346-4.714,2.534-7.148,3.675c-7.424,3.481-14.594,6.923-22.001,10.472c-1.738,0.833-3.621,1.802-5.487,2.668
		c-0.646,0.3-1.497,0.755-1.913,0.755c-0.828,0-1.874-0.915-2.517-1.258c-0.899-0.481-1.693-0.775-2.467-1.259
		c-1.625-0.875-3.421-1.58-4.884-2.618c-0.15-7.669,0.05-15.69-0.101-23.359c-1.088-0.939-2.494-1.384-3.776-2.014
		c-3.781-1.859-7.681-3.833-11.629-5.588c-0.273,0.775-0.151,1.768-0.151,2.769c0,6.616,0.066,13.486-0.151,19.836
		c-0.867-0.065-1.661-0.612-2.417-1.007c-1.859-0.973-3.75-1.967-5.739-3.021c-0.374-0.198-0.942-0.443-1.058-0.655
		c-0.158-0.29-0.036-1.015-0.05-1.611c-0.091-3.804,0.032-8.426,0-11.932c-0.042-4.613-0.114-9.575,0-13.895
		c2.388-1.392,4.98-2.443,7.501-3.624c7.516-3.524,15.245-6.998,22.856-10.472c0.78-0.173,2.078,0.548,2.971,0.906
		c2.281,0.916,4.38,1.767,6.595,2.718C40.389,3.825,40.966,3.86,41.193,4.306z M38.273,47.148c0.668-0.351,1.341-0.683,2.014-1.007
		c8.248-3.981,16.543-7.739,24.82-11.68c1.422-0.677,2.993-1.202,4.077-2.014c0.503-0.376,1.546-1.308,1.259-2.165
		c-0.1-0.298-0.593-0.564-0.956-0.453c-1.271,0.389-2.498,1.135-3.726,1.711c-1.247,0.586-2.521,1.101-3.726,1.662
		c-2.44,1.137-4.846,2.375-7.3,3.474c-1.231,0.551-2.482,1.095-3.675,1.712c-3.59,1.856-7.397,3.351-10.925,5.236
		c-0.715,0.28-1.418,0.613-2.115,0.957c-0.685,0.337-1.477,0.589-1.963,1.158c-0.056,0.636-0.057,1.628,0.101,2.215
		C36.916,47.893,37.624,47.488,38.273,47.148z"/>
</g>
<g id="Layer_1">
</g>
</svg>
