<?xml version="1.0" encoding="iso-8859-1"?>
<!-- Generator: Adobe Illustrator 19.2.0, SVG Export Plug-In . SVG Version: 6.00 Build 0)  -->
<svg version="1.1" xmlns="http://www.w3.org/2000/svg" xmlns:xlink="http://www.w3.org/1999/xlink" x="0px" y="0px"
	 viewBox="0 0 79.62 79.004" style="enable-background:new 0 0 79.62 79.004;" xml:space="preserve">
<g id="Hazelden_x5F_Treatment_x5F_Center">
	<path style="fill-rule:evenodd;clip-rule:evenodd;" d="M79.502,0.225c0.23,13.055,0.051,26.414,0.05,39.404
		c-0.001,13.282,0.057,26.351-0.15,39.255c-9.892,0.19-19.973,0.099-29.828,0.099c-13.366,0.001-26.67-0.1-39.704-0.099
		c-2.49,0-4.949-0.001-7.432,0c-0.759,0-1.598,0.116-2.344-0.15c-0.227-25.918,0.028-52.479,0-78.459
		C0.18,0.21,0.156,0.036,0.294,0.024c13.196-0.076,26.912,0.051,39.554,0.05C53.239,0.073,66.312,0.066,79.502,0.225z M1.292,0.972
		c-0.011,0.057-0.056,0.078-0.1,0.101C1.036,7.3,1.043,13.615,1.043,19.975C1.042,38.942,0.96,58.629,1.092,77.736
		c0.056,0.011,0.078,0.055,0.1,0.1c25.536,0.111,51.196,0.296,77.212,0.1c0.267-0.733,0.15-1.546,0.15-2.294
		c0-23.041,0.198-47.392,0.05-69.881c-0.011-1.549,0.205-3.121-0.101-4.639C53.365,1.032,26.498,0.908,1.292,0.972z"/>
	<path style="fill-rule:evenodd;clip-rule:evenodd;" d="M2.489,2.419c17.507,4.359,35.173,8.821,52.672,13.168
		c5.141,1.277,10.287,2.453,15.412,3.791c0.692,0.181,1.465,0.23,2.046,0.698c-3.337,0.18-7.104,0.1-10.674,0.1
		c-1.17,0-2.342-0.118-3.392,0.149c-0.175,2.981-0.149,6.408-0.149,9.776c0,2.834,0.114,5.838,0,8.779
		c-0.012,0.311,0.064,0.841-0.449,0.798c-0.509-0.031-0.347-0.664-0.349-0.948c-0.032-5.949,0.043-12.019-0.05-18.455
		c-0.425-0.415-1.055-0.528-1.596-0.698c-8.568-2.695-17.429-5.153-26.086-7.831C21.74,9.231,13.715,6.785,5.482,4.414
		C4.92,4.252,4.352,4.03,3.786,3.865c-0.547-0.16-1.184-0.2-1.596-0.648c0.019-0.281-0.072-0.671,0.15-0.748
		C2.42,2.482,2.425,2.422,2.489,2.419z"/>
	<path style="fill-rule:evenodd;clip-rule:evenodd;" d="M2.34,5.062c0.033,0,0.066,0,0.1,0c9.067,5.549,17.85,11.618,26.934,17.208
		c4.546,2.798,8.979,5.767,13.517,8.579c2.257,1.398,4.566,2.786,6.784,4.239c1.667,1.094,3.297,2.193,4.988,3.293
		c0.514,0.334,1.205,0.637,1.497,1.247c-5.487,0.182-11.455-0.116-16.859,0.149c-0.268,0.689-0.15,1.508-0.15,2.294
		c0,4.774-0.169,9.7-0.05,14.515c0.014,0.588,0.146,1.896-0.349,1.945c-0.652,0.066-0.449-1.409-0.449-1.995
		c0-4.931,0-9.497,0-14.465c0-0.831,0.137-1.752,0-2.394c-0.184-0.865-1.702-1.568-2.194-2.195c-0.71-0.736-1.516-1.377-2.245-2.095
		C23.815,26.357,13.984,17.081,4.035,7.905C3.382,7.304,2.626,6.775,2.14,6.01c0.011-0.272-0.034-0.6,0.05-0.798
		C2.217,5.14,2.268,5.09,2.34,5.062z"/>
	<path style="fill-rule:evenodd;clip-rule:evenodd;" d="M36.207,58.433c-4.872,0.299-10.44-0.099-15.312,0.2
		c-0.172,5.104-0.15,10.499-0.15,16.011c0,0.703,0.145,1.889-0.349,1.945c-0.7,0.081-0.449-0.892-0.449-1.846
		c0-3.753,0-7.292,0-11.322c0-1.576,0.228-3.579-0.05-4.938c-0.196-0.96-0.706-2-1.097-3.042c-1.862-4.958-3.738-9.879-5.636-14.814
		c-0.753-1.957-1.327-4.067-2.095-6.085c-2.618-6.877-5.178-13.798-7.831-20.8C2.679,12.267,1.94,11.124,2.19,9.202
		c0.043-0.04,0.03-0.137,0.1-0.149c0.033,0,0.066,0,0.1,0c5.913,8.042,11.14,16.561,16.909,24.69
		c4.326,6.095,8.568,12.236,12.819,18.405c1.056,1.532,2.095,3.067,3.142,4.639C35.603,57.302,36.079,57.799,36.207,58.433z"/>
	<path style="fill-rule:evenodd;clip-rule:evenodd;" d="M2.29,17.931c0.04,0.01,0.049,0.051,0.1,0.051
		c3.267,12.044,6.346,24.32,9.527,36.511c0.323,1.237,0.543,2.499,0.848,3.741c0.883,3.603,1.917,7.292,2.793,10.974
		c0.29,1.216,0.612,2.439,0.948,3.641c0.334,1.195,0.791,2.387,0.848,3.642c-1.162,0.211-2.451,0.1-3.741,0.1
		c-3.922,0-7.797,0.053-11.422-0.149C1.967,58.321,2.14,40.056,2.14,21.722c0-1.275-0.036-2.611,0.05-3.641
		C2.233,18.04,2.219,17.944,2.29,17.931z"/>
</g>
<g id="Layer_1">
</g>
</svg>
