<?xml version="1.0" encoding="iso-8859-1"?>
<!-- Generator: Adobe Illustrator 21.0.2, SVG Export Plug-In . SVG Version: 6.00 Build 0)  -->
<svg version="1.1" xmlns="http://www.w3.org/2000/svg" xmlns:xlink="http://www.w3.org/1999/xlink" x="0px" y="0px"
	 viewBox="0 0 29.702 28.877" style="enable-background:new 0 0 29.702 28.877;" xml:space="preserve">
<g id="Helen_x5F_Garrett">
	<g>
		<path d="M13.248,0.082c5.263-0.565,10.783,1.831,13.797,6.22c2.426,3.317,3.255,7.716,2.217,11.689
			c-1.171,4.669-4.91,8.517-9.449,10.053c-5.579,1.999-12.221,0.309-16.167-4.113c-3.313-3.591-4.487-8.987-3.034-13.642
			C2.218,4.727,7.508,0.576,13.248,0.082z M14.022,3.49c-0.551,0.212-0.332,1.125,0.281,0.984
			C15.034,4.421,14.694,3.203,14.022,3.49z M16.016,3.499c-0.707-0.074-0.713,1.059-0.022,1.04
			C16.659,4.573,16.647,3.497,16.016,3.499z M12.505,4.753c0.674-0.039,0.59-1.072-0.069-1.065
			C11.766,3.747,11.8,4.851,12.505,4.753z M17.689,3.806C17,3.758,16.982,4.89,17.673,4.842C18.355,4.903,18.319,3.808,17.689,3.806
			z M10.568,4.286c-0.682,0.292-0.104,1.323,0.493,0.932C11.63,4.914,11.124,4.075,10.568,4.286z M19.136,4.455
			c-0.707,0.293-0.077,1.387,0.533,0.89C20.166,4.986,19.645,4.238,19.136,4.455z M9.204,5.067C8.592,5.085,8.519,6.137,9.192,6.1
			C9.877,6.198,9.895,5.017,9.204,5.067z M20.42,6.08c0.321,0.567,1.22,0.078,0.946-0.518C21.041,4.959,20.046,5.486,20.42,6.08z
			 M7.588,6.197C7.253,6.319,7.174,6.793,7.445,7.021c0.28,0.328,0.929,0.073,0.884-0.363C8.343,6.301,7.897,6.039,7.588,6.197z
			 M22.195,6.389c-0.663,0.057-0.558,1.163,0.112,1.037C22.972,7.392,22.866,6.308,22.195,6.389z M6.511,7.411
			C5.814,7.5,6.062,8.629,6.731,8.418C7.369,8.313,7.135,7.284,6.511,7.411z M23.288,7.769c-0.652,0.159-0.287,1.201,0.331,0.967
			C24.266,8.565,23.921,7.524,23.288,7.769z M5.489,8.854C4.841,8.975,5.068,10.06,5.715,9.862C6.373,9.753,6.155,8.667,5.489,8.854
			z M11.142,8.908c-0.71-0.065-0.644,1.107,0.039,1.019C11.822,9.922,11.779,8.813,11.142,8.908z M18.296,8.973
			c-0.673,0.221-0.199,1.294,0.425,0.949C19.34,9.673,18.878,8.702,18.296,8.973z M4.7,10.47c-0.627,0.167-0.335,1.147,0.283,0.976
			C5.676,11.367,5.381,10.212,4.7,10.47z M11.07,10.6c-0.671,0.05-0.558,1.112,0.109,1.026C11.859,11.607,11.738,10.512,11.07,10.6z
			 M18.42,10.659c-0.653,0.038-0.559,1.092,0.097,1.025C19.21,11.693,19.081,10.524,18.42,10.659z M3.879,12.554
			c0.006,0.361,0.269,0.607,0.624,0.619c0.471-0.069,0.619-0.786,0.165-0.974C4.364,11.988,3.982,12.245,3.879,12.554z
			 M10.752,12.425c-0.461,0.494,0.218,1.203,0.728,0.791C11.961,12.738,11.275,12.039,10.752,12.425z M18.239,12.408
			c-0.628,0.297-0.091,1.274,0.511,0.919C19.336,13.028,18.803,12.088,18.239,12.408z M4.163,13.9
			c-0.67,0.035-0.477,1.134,0.159,1.006C4.997,14.841,4.839,13.702,4.163,13.9z M11.251,13.972
			c-0.645-0.058-0.924,0.903-0.251,1.073C11.688,15.183,11.963,14.137,11.251,13.972z M12.539,14.807
			c0.261,0.449,1.085,0.149,0.958-0.367c-0.017-0.315-0.317-0.422-0.58-0.468C12.558,14.066,12.31,14.474,12.539,14.807z
			 M14.582,14.977c0.619,0.338,1.027-0.695,0.405-0.95C14.389,13.813,13.951,14.757,14.582,14.977z M16.494,14.026
			c-0.636,0.099-0.485,1.126,0.146,1.024C17.317,15.036,17.157,13.868,16.494,14.026z M17.822,14.634
			c0.055,0.354,0.458,0.453,0.762,0.478c0.431-0.114,0.572-0.748,0.14-0.951C18.39,13.853,17.726,14.166,17.822,14.634z
			 M20.101,14.027c-0.34,0.073-0.638,0.506-0.387,0.813c0.21,0.38,0.834,0.267,0.963-0.129
			C20.792,14.357,20.445,14.027,20.101,14.027z M21.846,14.085c-0.681,0.123-0.381,1.187,0.271,0.992
			C22.715,14.888,22.47,13.911,21.846,14.085z M23.591,14.091c-0.689,0.193-0.238,1.282,0.386,0.954
			C24.6,14.832,24.192,13.859,23.591,14.091z M25.447,14.096c-0.733,0.162-0.305,1.253,0.337,0.977
			C26.374,14.84,26.042,13.927,25.447,14.096z M4.169,15.657c-0.601,0.218-0.218,1.162,0.372,0.956
			C5.237,16.467,4.793,15.291,4.169,15.657z M10.958,15.767c-0.686,0.155-0.269,1.249,0.361,0.955
			C11.932,16.524,11.565,15.54,10.958,15.767z M18.292,15.823c-0.647,0.168-0.284,1.194,0.334,0.968
			C19.272,16.615,18.95,15.572,18.292,15.823z M25.335,15.829c-0.654,0.074-0.483,1.134,0.158,1.008
			C26.196,16.781,26.006,15.667,25.335,15.829z M4.593,17.342c-0.564,0.176-0.312,1.102,0.269,0.97
			C5.616,18.252,5.299,17.039,4.593,17.342z M11.022,17.458c-0.683,0.054-0.47,1.169,0.176,1.009
			C11.848,18.39,11.67,17.278,11.022,17.458z M18.296,17.516c-0.369,0.093-0.498,0.624-0.191,0.86
			c0.276,0.352,0.965,0.039,0.867-0.401C18.996,17.636,18.598,17.417,18.296,17.516z M24.914,17.509
			c-0.668,0.035-0.496,1.164,0.158,1.025C25.717,18.434,25.582,17.374,24.914,17.509z M5.425,18.899
			c-0.633,0.073-0.569,1.115,0.1,1.03C6.235,19.939,6.111,18.81,5.425,18.899z M11.133,19.141c-0.696-0.067-0.713,1.108-0.014,1.037
			C11.784,20.217,11.76,19.163,11.133,19.141z M24.068,19.131c-0.635,0.238-0.249,1.203,0.381,0.969
			C25.121,19.894,24.685,18.853,24.068,19.131z M17.944,19.507c-0.257,0.656,0.805,1.043,1.01,0.393
			C19.17,19.272,18.225,18.912,17.944,19.507z M6.331,20.398c-0.624,0.111-0.476,1.106,0.149,1.029
			C7.211,21.392,7.053,20.218,6.331,20.398z M23.17,20.579c-0.663,0.099-0.381,1.262,0.272,1
			C24.042,21.395,23.799,20.405,23.17,20.579z M7.415,21.727c-0.687,0.312-0.056,1.299,0.524,0.876
			C8.44,22.259,7.941,21.467,7.415,21.727z M21.97,21.852c-0.726,0.105-0.363,1.246,0.277,0.983
			C22.858,22.671,22.593,21.667,21.97,21.852z M8.851,22.802c-0.692,0.177-0.249,1.249,0.364,0.954
			C9.856,23.582,9.447,22.503,8.851,22.802z M20.43,23.882c0.606,0.267,1.084-0.601,0.509-0.939
			C20.328,22.614,19.841,23.541,20.43,23.882z M10.414,23.633c-0.644,0.18-0.324,1.22,0.321,0.963
			C11.384,24.413,11.02,23.414,10.414,23.633z M19.083,23.709c-0.702,0.009-0.577,1.138,0.109,1.019
			C19.847,24.656,19.733,23.619,19.083,23.709z M12.16,24.189c-0.49,0.064-0.642,0.825-0.133,0.991
			C12.816,25.528,13.014,24.057,12.16,24.189z M17.397,24.249c-0.582,0.003-0.555,1.06,0.027,1.029
			C18.134,25.323,18.099,24.148,17.397,24.249z M13.78,24.527c-0.65,0.233-0.213,1.23,0.401,0.964
			C14.803,25.254,14.388,24.265,13.78,24.527z M15.699,25.521c0.676,0.123,0.75-0.936,0.114-1.03
			C15.147,24.399,15.015,25.513,15.699,25.521z"/>
	</g>
</g>
<g id="Layer_1">
</g>
</svg>
