<?xml version="1.0" encoding="iso-8859-1"?>
<!-- Generator: Adobe Illustrator 19.2.0, SVG Export Plug-In . SVG Version: 6.00 Build 0)  -->
<svg version="1.1" xmlns="http://www.w3.org/2000/svg" xmlns:xlink="http://www.w3.org/1999/xlink" x="0px" y="0px"
	 viewBox="0 0 52.081 81.398" style="enable-background:new 0 0 52.081 81.398;" xml:space="preserve">
<g id="herman_x5F_ohme_x5F_associates">
	<path style="fill-rule:evenodd;clip-rule:evenodd;" d="M51.765,0.002c0.366,0.512,0.204,1.203,0.204,1.779
		c0,14.438,0.05,29.875,0.051,44.791c0,3.764,0,7.398,0,11.338c0,0.65-0.026,1.342,0,1.983c0.021,0.529,0.213,1.18-0.204,1.627
		c-0.502-0.279-0.286-0.932-0.305-1.322c-0.155-3.279-1.171-6.252-2.288-8.744c-1.266-2.824-3.02-5.439-5.186-7.422
		c-4.321-3.957-10.004-7.221-17.998-7.221c-3.948,0-7.431,0.975-10.321,2.338c-2.989,1.412-5.412,2.973-7.524,5.086
		c-3.693,3.693-6.522,8.197-7.422,14.641c-0.063,0.455-0.137,0.941-0.153,1.424c-0.013,0.383,0.141,0.988-0.305,1.272
		c-0.45-0.467-0.254-1.176-0.254-1.729C0.06,42.035,0.009,22.685,0.009,4.019c0-1.342-0.041-2.689,0.051-3.865
		c0.028-0.072,0.079-0.123,0.152-0.152c0.044-0.01,0.048,0.02,0.051,0.051c0.332,0.4,0.167,0.928,0.204,1.373
		C0.728,4.609,1.7,7.641,2.805,10.119c1.25,2.803,3.131,5.381,5.237,7.373c2.129,2.014,4.631,3.662,7.575,5.033
		c2.875,1.338,6.547,2.227,10.422,2.186c8.019-0.084,13.724-3.252,17.845-7.371c3.16-3.16,5.723-6.949,6.915-12
		c0.306-1.295,0.552-2.559,0.661-4.066C51.488,0.883,51.457,0.353,51.765,0.002z"/>
	<path style="fill-rule:evenodd;clip-rule:evenodd;" d="M39.156,47.945c3.036,2.666,5.22,6.201,6.05,10.879
		c0.899,5.066-0.538,10.219-2.746,13.523c-2.117,3.172-5.325,6.123-9.202,7.678c-2.09,0.838-4.415,1.373-7.067,1.373
		c-2.727,0-4.962-0.402-7.168-1.271c-4.017-1.582-7.051-4.018-9.355-7.574c-2.194-3.389-3.633-8.203-2.694-13.576
		c0.848-4.851,3.042-7.984,5.999-10.879c2.81-2.75,6.695-4.729,11.744-5.135C31.4,42.424,35.69,44.976,39.156,47.945z"/>
</g>
<g id="Layer_1">
</g>
</svg>
