<?xml version="1.0" encoding="iso-8859-1"?>
<!-- Generator: Adobe Illustrator 19.2.0, SVG Export Plug-In . SVG Version: 6.00 Build 0)  -->
<svg version="1.1" xmlns="http://www.w3.org/2000/svg" xmlns:xlink="http://www.w3.org/1999/xlink" x="0px" y="0px"
	 viewBox="0 0 107.883 108.482" style="enable-background:new 0 0 107.883 108.482;" xml:space="preserve">
<g id="Heron_x5F_Automobiltechnik">
	<path style="fill-rule:evenodd;clip-rule:evenodd;" d="M53.823,0C70.75-0.062,83.64,7.121,92.181,15.823
		c8.763,8.928,15.702,20.997,15.702,38.478c0.001,17.191-6.922,29.457-15.822,38.358c-9.058,9.057-21.562,15.823-38.358,15.823
		c-17.407-0.001-29.27-6.974-38.238-15.943C6.684,83.758-0.104,70.62,0.001,54.061C0.108,37.33,7.045,25.115,15.824,16.182
		C24.454,7.4,36.547,0.063,53.823,0z M18.821,19.419c-2.135,2.285-5.979,6.183-7.072,9.11c-1.044,2.799-1.164,6.677-1.318,10.069
		c-0.536,11.814,2.315,21.019,5.154,29.248c-4.613-5.75-7.211-14.111-9.11-22.056c-0.181-0.757-0.591-1.486-0.959-2.157
		C2.328,58.297,6.469,72.845,13.187,82.59c5.715,8.289,13.724,15.143,24.334,18.82c1.502,0.521,3.57,1.497,4.794,1.438
		c0.925-0.045,2.221-0.93,3.356-1.438c7.959-3.562,14.507-8.105,19.06-14.624c-2.591-5.919-7.422-12.209-8.631-19.299
		c-0.859-5.039,4.979-8.261,9.231-8.151c1.923,0.05,4.305,0.991,6.352,1.558c6.252,1.732,13.116,3.597,18.819,4.675
		c-6.04-3.762-12.865-8.004-18.939-11.987c-3.499-2.294-6.59-4.906-11.747-4.675c-6.642,0.298-13.087,3.981-16.302,7.312
		c3.284-1.07,6.58-2.13,10.668-2.398c-3.119,1.606-5.72,4.327-6.593,8.271c-1.351,6.107,1.023,12.533,2.518,17.022
		c-3.968-4.379-7.446-9.747-10.069-16.063c-2.603-6.267-4.859-13.776-3.836-22.176c1.285-10.539,6.942-18.05,13.066-23.854
		c4.669-4.426,10.102-7.803,15.463-11.387C45.586,1.464,28.447,9.114,18.821,19.419z"/>
</g>
<g id="Layer_1">
</g>
</svg>
