<?xml version="1.0" encoding="iso-8859-1"?>
<!-- Generator: Adobe Illustrator 19.2.0, SVG Export Plug-In . SVG Version: 6.00 Build 0)  -->
<svg version="1.1" xmlns="http://www.w3.org/2000/svg" xmlns:xlink="http://www.w3.org/1999/xlink" x="0px" y="0px"
	 viewBox="0 0 75.423 77.038" style="enable-background:new 0 0 75.423 77.038;" xml:space="preserve">
<g id="Hewitt_x5F_Associates">
	<path style="fill-rule:evenodd;clip-rule:evenodd;" d="M59.255,0.311c-0.322,1.098-0.964,2.041-1.506,3.063
		c-1.025,1.935-2.19,3.692-3.374,5.71c-0.229,0.393-0.511,0.927-0.83,1.454c-0.274,0.451-0.635,1.122-0.986,1.246
		c-0.961,0.337-2.306,0-3.479,0.052c-1.202,0.053-2.329,0.129-3.27-0.155c-0.322-3.505-0.134-7.808,0-11.369
		c1.478-0.281,3.157-0.156,4.828-0.156c1.651,0,3.341,0.074,4.932,0C56.79,0.098,58.231-0.07,59.255,0.311z"/>
	<path style="fill-rule:evenodd;clip-rule:evenodd;" d="M74.206,0.26c-0.23,0.646-0.771,1.111-1.194,1.608
		c-1.257,1.476-2.849,2.75-4.153,4.258c-0.856,0.989-1.825,1.929-2.751,2.854c-0.927,0.928-1.777,1.985-2.855,2.752
		c-0.627,0.056-1.636,0.138-2.18-0.052c-0.294-2.585-0.104-5.719-0.104-8.826c0-0.901-0.275-2.655,0.519-2.751
		c1.936-0.232,4.238,0,6.438,0c1.08,0,2.19,0,3.218,0C72.21,0.103,73.263-0.022,74.206,0.26z"/>
	<path style="fill-rule:evenodd;clip-rule:evenodd;" d="M44.2,0.363c-0.272,2.905-0.853,5.855-1.453,8.669
		c-0.198,0.925-0.187,1.923-0.676,2.7c-1.825,0.273-4.647,0.158-6.956,0.104c-0.661-0.016-1.892,0.127-2.284-0.104
		c-0.524-0.309-0.643-1.93-0.778-2.648c-0.184-0.977-0.423-1.994-0.571-2.855c-0.361-2.1-0.754-3.886-0.934-5.814
		c0.658-0.242,1.438-0.207,2.181-0.207c2.285,0,4.818,0.108,7.164,0C41.342,0.139,42.976-0.011,44.2,0.363z"/>
	<path style="fill-rule:evenodd;clip-rule:evenodd;" d="M29.094,0.311c0.273,0.838,0.155,1.833,0.155,2.804
		c0,1.903,0.053,3.854,0.053,5.865c0,0.964,0.148,1.96-0.208,2.752c-0.966,0.214-2.144,0.155-3.374,0.155
		c-1.163,0-2.515,0.232-3.375-0.103c-0.696-0.272-1.272-1.575-1.713-2.284c-1.526-2.463-2.984-5.306-4.412-7.579
		c-0.234-0.441-0.768-0.859-0.675-1.454c0.375-0.35,0.972-0.208,1.453-0.207C21.154,0.26,25.128,0.127,29.094,0.311z"/>
	<path style="fill-rule:evenodd;clip-rule:evenodd;" d="M13.988,0.363c0.388,1.653,0.188,3.692,0.207,5.606
		c0.022,1.934,0.219,3.974-0.103,5.711c-0.563,0.168-1.444,0.303-2.128,0.104c-0.503-0.147-1.091-0.832-1.558-1.298
		C7.559,7.639,4.775,4.855,1.944,2.024C1.5,1.58,0.915,1.156,0.749,0.518c0.553-0.369,1.367-0.207,2.077-0.207
		C6.508,0.311,10.383,0.133,13.988,0.363z"/>
	<path style="fill-rule:evenodd;clip-rule:evenodd;" d="M74.829,0.883c0.017,0.002,0.034-0.003,0.052,0
		c0.551,0.086,0.312,2.535,0.312,3.27c0,2.454-0.056,4.759,0.052,7.112c0.055,1.206,0.075,2.393-0.156,3.374
		c-0.86,0.313-1.878,0.107-2.854,0.104c-2.724-0.009-5.723,0.199-8.307-0.052c-0.146-0.662-0.332-1.708-0.103-2.492
		c0.133-0.453,0.849-1.057,1.298-1.505c3.147-3.148,6.398-6.761,9.552-9.708C74.711,0.937,74.768,0.907,74.829,0.883z"/>
	<path style="fill-rule:evenodd;clip-rule:evenodd;" d="M0.179,1.349C0.613,1.398,1.239,2.15,1.685,2.595
		c2.717,2.717,5.406,5.303,8.149,8.046c0.462,0.462,1.099,1.038,1.246,1.454c0.271,0.764,0.13,2.002-0.052,2.699
		c-0.793,0.273-1.727,0.156-2.647,0.155c-0.922,0-1.872,0.001-2.804,0c-1.875,0-3.785,0.223-5.398-0.103
		c-0.267-2.083-0.156-4.345-0.156-6.644c0.001-2.23-0.064-4.678,0.052-6.697C0.073,1.416,0.114,1.371,0.179,1.349z"/>
	<path style="fill-rule:evenodd;clip-rule:evenodd;" d="M59.67,1.401c0.035,0,0.069,0,0.104,0c0.219,3.402,0.156,6.991,0.155,10.746
		c0,0.856,0.125,1.756-0.155,2.544c-0.989,0.228-2.16,0.05-3.322,0.103c-1.105,0.052-2.267,0.188-3.167-0.103
		c-0.703-2.282,0.547-3.618,1.401-5.14c1.059-1.884,2.095-3.607,3.167-5.399c0.556-0.929,1.103-1.861,1.661-2.647
		C59.553,1.457,59.61,1.427,59.67,1.401z"/>
	<path style="fill-rule:evenodd;clip-rule:evenodd;" d="M21.67,14.743c-0.855,0.356-2.121,0.208-3.322,0.207
		c-1.172,0-2.429,0.116-3.322-0.155c-0.285-3.999-0.148-9.06-0.104-13.185c0.028-0.075,0.081-0.127,0.155-0.156
		c0.589,0.492,1.436,1.918,1.869,2.648c1.634,2.748,3.421,5.574,4.828,8.41C21.719,13.234,21.894,14.187,21.67,14.743z"/>
	<path style="fill-rule:evenodd;clip-rule:evenodd;" d="M30.288,3.322c0.042,0.01,0.052,0.052,0.104,0.052
		c0.543,2.771,1.223,5.633,1.713,8.514c0.159,0.933,0.472,2.003,0.052,2.907c-0.43,0.16-1.512,0.194-1.868-0.052
		C30.075,11.224,30.006,6.825,30.288,3.322z"/>
	<path style="fill-rule:evenodd;clip-rule:evenodd;" d="M44.46,3.426c0.044-0.01,0.049,0.021,0.052,0.052
		c0.27,3.418,0.207,7.717,0.052,11.214c-0.369,0.247-1.495,0.231-1.868,0c-0.308-2.062,0.325-4.368,0.675-6.334
		c0.295-1.663,0.645-3.268,1.038-4.775C44.394,3.498,44.457,3.492,44.46,3.426z"/>
	<path style="fill-rule:evenodd;clip-rule:evenodd;" d="M59.203,15.625c-0.188,0.785-0.865,1.333-1.401,1.869
		c-1.617,1.616-3.164,3.352-4.933,4.88c-1.185,0-2.438,0-3.686,0c-1.202,0-2.405,0.133-3.322-0.104
		c-0.273-0.907-0.156-2.082-0.155-3.219c0-1.143-0.041-2.311,0.052-3.322c0.251-0.211,0.745-0.255,1.09-0.26
		c2.819-0.037,5.909,0,8.981,0C56.976,15.469,58.132,15.342,59.203,15.625z"/>
	<path style="fill-rule:evenodd;clip-rule:evenodd;" d="M73.843,15.573c-0.104,0.57-0.744,0.745-1.143,0.986
		c-2.129,1.293-4.27,2.749-6.437,4.05c-1.148,0.688-2.16,1.358-3.479,1.868c-0.525-0.045-1.247,0.105-1.609-0.104
		c-0.357-0.877-0.208-2.211-0.208-3.479c0-1.208-0.191-2.589,0.26-3.374C65.295,15.469,69.862,15.366,73.843,15.573z"/>
	<path style="fill-rule:evenodd;clip-rule:evenodd;" d="M44.149,15.678c-0.015,1.187-0.554,2.312-0.883,3.426
		c-0.33,1.12-0.646,2.273-1.194,3.219c-2.102,0.238-4.719,0.036-7.163,0.103c-0.747,0.021-1.724,0.164-2.181-0.103
		c-0.675-0.396-0.96-2.303-1.246-3.167c-0.377-1.141-0.895-2.21-0.883-3.426c1.772-0.397,4.019,0.021,5.919-0.208
		c1.249-0.149,2.617,0,3.893,0C41.719,15.521,43.019,15.397,44.149,15.678z"/>
	<path style="fill-rule:evenodd;clip-rule:evenodd;" d="M29.146,15.678c0.273,0.929,0.156,2.132,0.156,3.322
		c0,1.152,0.08,2.361-0.104,3.322c-1.823,0.296-4.566,0.143-6.696,0.103c-1.075-0.556-1.845-1.497-2.647-2.336
		c-0.812-0.847-1.69-1.634-2.492-2.491c-0.38-0.71-1.239-0.941-1.453-1.817c0.256-0.254,0.78-0.139,1.142-0.156
		C20.878,15.448,25.28,15.569,29.146,15.678z"/>
	<path style="fill-rule:evenodd;clip-rule:evenodd;" d="M14.091,15.781c0.271,0.91,0.156,2.142,0.156,3.322
		c0,1.164,0.12,2.379-0.156,3.271c-2.042,0.563-3.442-0.585-4.827-1.453c-2.351-1.475-4.624-2.646-6.957-4.101
		c-0.397-0.248-0.91-0.502-1.142-0.935c0.584-0.431,1.743-0.126,2.648-0.207c2.058-0.185,4.766-0.053,7.112-0.053
		C12.006,15.626,13.104,15.501,14.091,15.781z"/>
	<path style="fill-rule:evenodd;clip-rule:evenodd;" d="M75.088,30.161c-2.2,0.195-4.804,0.155-7.319,0.155
		c-1.311,0-2.629,0.123-3.79-0.155c-0.314-1.667-0.01-3.527-0.104-5.503c-0.028-0.595-0.164-1.298,0-1.765
		c0.129-0.368,0.808-0.78,1.194-1.039c2.239-1.493,4.54-2.795,6.853-4.152c0.91-0.534,1.783-1.152,2.751-1.609
		c0.868-0.409,0.571,2.341,0.571,3.27c0,2.446-0.001,4.917,0,7.319C75.244,27.895,75.364,29.221,75.088,30.161z"/>
	<path style="fill-rule:evenodd;clip-rule:evenodd;" d="M15.077,16.301c0.556,0.045,1.312,1.016,1.817,1.557
		c1.123,1.204,2.095,2.095,3.271,3.271c0.491,0.492,1.389,1.192,1.558,1.714c0.303,0.941,0.104,2.602,0.104,3.789
		c0,1.323,0.145,2.673-0.208,3.685c-1.977,0.123-4.631,0.322-6.541,0c-0.278-2.109-0.155-4.485-0.155-6.852
		c0-2.364-0.043-4.916,0.052-7.008C14.972,16.367,15.012,16.321,15.077,16.301z"/>
	<path style="fill-rule:evenodd;clip-rule:evenodd;" d="M59.67,16.404c0.442,0.281,0.26,0.934,0.26,1.35c0,3.542,0,7.334,0,10.693
		c0,0.569,0.206,1.317-0.155,1.766c-1.922,0.192-4.274,0.128-6.178,0.052c-0.338-0.444-0.175-1.087-0.156-1.661
		c0.057-1.769-0.148-3.857-0.052-5.71c1.154-1.654,2.989-3.301,4.517-4.828c0.599-0.599,1.055-1.283,1.713-1.661
		C59.636,16.404,59.654,16.404,59.67,16.404z"/>
	<path style="fill-rule:evenodd;clip-rule:evenodd;" d="M0.231,16.456c0.771,0.122,2.056,1.01,2.907,1.506
		c1.874,1.091,3.556,2.006,5.451,3.166c0.778,0.477,2.257,1.067,2.543,1.766c0.382,0.932,0.107,2.724,0.156,3.737
		c0.065,1.368,0.052,2.718-0.26,3.737c-1.685,0.188-3.614,0.104-5.503,0.104c-1.874-0.001-3.767,0.109-5.295-0.104
		c-0.277-0.649-0.156-1.414-0.156-2.128c0.001-3.172-0.009-6.745,0-9.915c0.002-0.598-0.147-1.185,0.053-1.713
		C0.125,16.522,0.165,16.477,0.231,16.456z"/>
	<path style="fill-rule:evenodd;clip-rule:evenodd;" d="M30.288,17.754c0.084-0.015,0.089,0.049,0.155,0.052
		c0.495,1.743,1.715,3.909,1.921,6.022c0.146,1.486,0.039,3.126,0.052,4.619c0.006,0.624,0.005,1.257-0.207,1.817
		c-0.41,0.253-1.446,0.204-1.869,0c-0.272-0.914-0.155-1.974-0.156-3.011c0-2.028,0.001-4.11,0-6.229
		c0-1.084-0.041-2.203,0.052-3.115C30.263,17.868,30.29,17.825,30.288,17.754z"/>
	<path style="fill-rule:evenodd;clip-rule:evenodd;" d="M44.46,17.805c0.33,0.231,0.206,0.71,0.208,1.038
		c0.02,3.851,0.12,7.727-0.104,11.369c-0.484,0.149-1.441,0.287-1.816-0.052c-0.014-2.268-0.35-4.652-0.104-6.801
		c0.109-0.962,0.508-1.992,0.778-2.907C43.711,19.475,44.04,18.541,44.46,17.805z"/>
	<path style="fill-rule:evenodd;clip-rule:evenodd;" d="M72.7,31.095c-0.234,0.444-0.811,0.418-1.246,0.519
		c-2.33,0.54-4.876,0.949-7.319,1.454c-0.975,0.201-1.994,0.537-2.959,0.207c-0.257-0.442-0.202-1.608-0.052-2.128
		c1.287-0.373,2.861-0.031,4.257-0.156c0.627-0.056,1.549,0,2.336,0C69.389,30.991,71.131,30.762,72.7,31.095z"/>
	<path style="fill-rule:evenodd;clip-rule:evenodd;" d="M58.58,31.095c-0.451,0.672-1.297,0.671-2.076,0.934
		c-1.465,0.495-3.03,1.299-4.725,1.402c-1.834,0.112-3.948,0.009-5.866-0.156c-0.245-0.438-0.208-1.565-0.052-2.076
		c0.897-0.308,1.997-0.109,3.011-0.156C52.021,30.897,55.484,30.966,58.58,31.095z"/>
	<path style="fill-rule:evenodd;clip-rule:evenodd;" d="M44.045,31.147c0.071,0.612-0.544,0.929-0.883,1.298
		c-0.277,0.467-0.748,0.74-1.246,0.986c-2.979,0.086-5.872,0.013-8.877,0c-0.433-0.243-0.833-0.617-1.193-0.986
		c-0.328-0.335-0.847-0.686-0.831-1.194c1.027-0.281,2.224-0.156,3.374-0.155C37.583,31.096,40.917,30.924,44.045,31.147z"/>
	<path style="fill-rule:evenodd;clip-rule:evenodd;" d="M29.146,31.199c0.257,0.442,0.202,1.608,0.052,2.128
		c-0.829,0.271-1.819,0.155-2.803,0.156c-1.11,0-2.352,0.111-3.271-0.052c-0.535-0.096-1.099-0.316-1.661-0.468
		c-1.555-0.42-3.305-0.965-4.62-1.609c0.46-0.426,1.348-0.209,1.973-0.207C22.044,31.156,25.882,30.952,29.146,31.199z"/>
	<path style="fill-rule:evenodd;clip-rule:evenodd;" d="M14.144,31.303c0.155,0.496,0.175,1.584,0,2.076
		c-0.847,0.308-1.724-0.091-2.597-0.207C9.73,32.93,7.921,32.622,6.2,32.29c-0.873-0.17-1.722-0.423-2.543-0.571
		c-0.397-0.072-0.904,0.054-1.194-0.312c0.444-0.396,1.29-0.151,1.921-0.208c1.371-0.122,3.287-0.053,4.983-0.052
		C11.021,31.147,12.718,31.023,14.144,31.303z"/>
	<path style="fill-rule:evenodd;clip-rule:evenodd;" d="M75.14,31.614c0.233,3.181,0.155,6.716,0.156,10.226
		c0,1.124,0.121,2.295-0.156,3.322c-0.934,0.126-1.887-0.162-2.854-0.312c-1.866-0.286-3.745-0.728-5.606-1.089
		c-0.904-0.177-1.915-0.136-2.596-0.727c-0.184-1.45-0.104-3.149-0.104-4.776c0.001-1.612-0.248-3.233,0.104-4.516
		c1.471-0.626,3.257-0.871,5.035-1.194c1.747-0.317,3.554-0.616,5.191-0.986C74.484,31.523,74.861,31.425,75.14,31.614z"/>
	<path style="fill-rule:evenodd;clip-rule:evenodd;" d="M59.722,31.562c0.449,0.736,0.26,1.735,0.26,2.648
		c0,2.757,0.047,5.834,0.053,8.565c0.001,0.764,0.013,1.671-0.208,2.337c-1.069-0.122-2.178-0.543-3.271-0.883
		c-1.07-0.334-2.223-0.54-3.063-1.143c-0.085-2.995-0.087-6.35,0-9.344c0.645-0.69,1.755-0.856,2.752-1.194
		C57.375,32.164,58.471,31.739,59.722,31.562z"/>
	<path style="fill-rule:evenodd;clip-rule:evenodd;" d="M21.723,33.795c0.195,2.9,0.116,6.574,0.052,9.397
		c-0.869,0.66-2.053,0.892-3.219,1.193c-1.132,0.294-2.229,0.919-3.374,0.935c-0.368-0.897-0.208-2.113-0.208-3.322
		c0-2.361,0-4.524,0-6.956c0-1.038-0.205-2.679,0.104-3.322c0.926-0.135,2.513,0.552,3.53,0.882
		C19.785,32.982,20.995,33.225,21.723,33.795z"/>
	<path style="fill-rule:evenodd;clip-rule:evenodd;" d="M0.334,31.666c2.683,0.272,5.725,1.034,8.358,1.454
		c0.88,0.14,1.814,0.229,2.491,0.727c0.152,2.967,0.265,6.514,0.053,9.5c-1.186,0.608-2.726,0.801-4.205,1.09
		c-0.727,0.143-1.489,0.27-2.232,0.415c-1.363,0.269-3.029,0.647-4.517,0.676c-0.356-0.858-0.152-1.962-0.208-3.115
		c-0.104-2.206,0-4.427,0-6.956c0-1.113-0.076-2.858,0.104-3.634C0.208,31.747,0.26,31.695,0.334,31.666z"/>
	<path style="fill-rule:evenodd;clip-rule:evenodd;" d="M30.444,32.082c0.504,0.443,1.566,0.93,1.869,1.816
		c0.377,1.104,0.099,3.167,0.155,4.672c0.029,0.765,0.005,1.515,0,2.337c-0.004,0.854,0.116,1.795-0.052,2.336
		c-0.132,0.425-0.568,0.775-0.882,1.09c-0.344,0.343-0.717,0.82-1.091,0.779c-0.37-0.441-0.208-1.321-0.208-2.077
		c0.001-2.965-0.051-5.831-0.052-8.774c0-0.727-0.071-1.586,0.104-2.076C30.326,32.136,30.383,32.107,30.444,32.082z"/>
	<path style="fill-rule:evenodd;clip-rule:evenodd;" d="M44.46,32.134c0.424,0.395,0.26,1.292,0.26,2.076
		c-0.001,2.817,0,5.74,0,8.722c0,0.658,0.119,1.383-0.156,1.973c-0.499-0.3-1.563-0.834-1.816-1.713
		c-0.322-1.119-0.028-3.087-0.052-4.673c-0.024-1.578-0.318-3.479,0-4.567c0.171-0.586,1.32-1.465,1.713-1.817
		C44.425,32.134,44.443,32.134,44.46,32.134z"/>
	<path style="fill-rule:evenodd;clip-rule:evenodd;" d="M72.804,45.682c-1.734,0.278-3.803,0.155-5.813,0.156
		c-1.003,0-2.026-0.001-3.012,0c-0.975,0-1.961,0.121-2.803-0.156c-0.19-0.444-0.114-1.395-0.052-1.92
		c0.228-0.155,0.578-0.288,0.882-0.261c3.135,0.288,6.622,1.104,9.656,1.714C72.042,45.292,72.569,45.337,72.804,45.682z"/>
	<path style="fill-rule:evenodd;clip-rule:evenodd;" d="M58.58,45.631c-0.287,0.38-0.994,0.182-1.506,0.208
		c-1.759,0.088-3.902,0.028-5.918,0c-1.819-0.026-3.633,0.254-5.243-0.104c-0.211-0.534-0.141-1.31-0.052-1.921
		c0.896-0.341,2.29-0.157,3.634-0.207c1.062-0.04,2.423-0.122,3.322,0.052c0.95,0.184,2.001,0.586,3.012,0.883
		C56.851,44.841,57.95,45.07,58.58,45.631z"/>
	<path style="fill-rule:evenodd;clip-rule:evenodd;" d="M14.195,43.918c0.158,0.482,0.191,1.562-0.051,1.973
		c-1.771,0.173-3.776,0.155-5.763,0.155c-1.958,0.001-3.989,0.125-5.71-0.155c0.255-0.406,0.711-0.271,1.09-0.363
		c2.869-0.695,6.274-1.392,9.292-1.817C13.384,43.663,13.9,43.62,14.195,43.918z"/>
	<path style="fill-rule:evenodd;clip-rule:evenodd;" d="M29.198,43.813c0.227,0.406,0.254,1.572,0,1.974
		c-1.9,0.358-4.141,0.054-6.281,0.155c-1.061,0.05-2.127,0.052-3.166,0.052c-1.06,0-2.131,0.126-3.063-0.155
		c0.266-0.364,0.815-0.511,1.298-0.676c1.325-0.45,2.944-1.125,4.36-1.4c0.299-0.059,0.727-0.101,0.986-0.104
		C25.243,43.639,27.231,43.719,29.198,43.813z"/>
	<path style="fill-rule:evenodd;clip-rule:evenodd;" d="M44.045,45.734c-0.975,0.28-2.068,0.156-3.167,0.156
		c-2.091,0-4.282,0.051-6.489,0.052c-1.07,0-2.169,0.123-3.114-0.155c0.274-1.041,1.143-1.488,1.868-2.077
		c1.517-0.111,3.058,0.025,4.88-0.052c1.426-0.06,3.113-0.218,4.102,0.052c0.394,0.108,0.83,0.526,1.142,0.831
		C43.591,44.857,44.032,45.288,44.045,45.734z"/>
	<path style="fill-rule:evenodd;clip-rule:evenodd;" d="M59.878,46.72c0.256,3.185,0.156,7.033,0.156,10.539
		c-0.001,0.938,0.125,1.9-0.156,2.751c-0.7-0.27-1.193-0.891-1.713-1.454c-1.009-1.093-1.973-2.072-3.167-3.166
		c-0.533-0.488-1.34-1.065-1.506-1.661c-0.239-0.863,0.037-1.93,0-2.907c-0.05-1.343-0.145-2.724,0.053-3.997
		c0.825-0.41,2.354-0.26,3.737-0.26C58.231,46.565,59.19,46.452,59.878,46.72z"/>
	<path style="fill-rule:evenodd;clip-rule:evenodd;" d="M75.14,46.72c0.282,1.123,0.156,2.394,0.156,3.635
		c0.001,2.863,0.052,5.589,0.052,8.513c0,0.455,0.119,1.029-0.208,1.402c-0.542-0.012-1.019-0.387-1.505-0.623
		c-2.42-1.18-4.57-2.728-6.956-4.153c-0.753-0.449-2.336-1.075-2.596-1.816c-0.096-0.273-0.102-0.82-0.104-1.194
		c-0.004-0.857,0.053-1.973,0.053-3.064c0-1.029-0.175-2.135,0.259-2.803c2.375-0.094,5.665-0.051,8.307-0.052
		C73.48,46.565,74.369,46.445,75.14,46.72z"/>
	<path style="fill-rule:evenodd;clip-rule:evenodd;" d="M44.615,46.773c0.227,2.228,0.112,4.542,0.104,6.852
		c-0.006,1.647,0.237,3.338-0.104,4.88c-0.436-0.666-0.715-1.594-1.038-2.544c-0.328-0.965-0.839-2.078-0.882-3.166
		c-0.039-0.952,0.052-2.053,0.052-3.115c0-1.002-0.157-2.122,0.207-2.959C43.373,46.564,44.264,46.55,44.615,46.773z"/>
	<path style="fill-rule:evenodd;clip-rule:evenodd;" d="M32.364,46.877c0.272,0.944,0.156,2.015,0.156,3.062
		c-0.001,1.134,0.145,2.488-0.053,3.479c-0.298,1.506-0.889,3.176-1.35,4.672c-0.15,0.489-0.267,1.046-0.623,1.35
		c-0.367-0.441-0.207-1.232-0.207-1.973c0-2.318,0.006-4.731,0-7.008c-0.004-1.18-0.258-2.604,0.155-3.634
		C30.888,46.6,31.99,46.573,32.364,46.877z"/>
	<path style="fill-rule:evenodd;clip-rule:evenodd;" d="M21.723,46.877c0.177,1.545,0.155,3.143,0.155,4.828
		c0,0.845,0.136,1.805-0.052,2.491c-0.143,0.521-0.7,0.897-1.143,1.35c-1.228,1.255-2.487,2.582-3.634,3.79
		c-0.56,0.461-1.025,1.292-1.765,1.401c-0.417-0.235-0.26-0.825-0.26-1.246c0-2.954,0-5.775,0-8.565
		c0-1.427-0.273-2.895,0.208-4.101c0.872-0.172,2.297-0.104,3.582-0.104C19.877,46.72,20.951,46.603,21.723,46.877z"/>
	<path style="fill-rule:evenodd;clip-rule:evenodd;" d="M11.184,46.877c0.363,0.93,0.208,2.269,0.208,3.478c0,1.23,0,2.493,0,3.633
		c-0.71,0.802-1.685,1.324-2.596,1.869c-2.299,1.376-4.539,2.806-6.956,4.153c-0.48,0.268-0.955,0.589-1.506,0.675
		c-0.312-0.972-0.19-2.099-0.207-3.219c-0.053-3.383-0.046-7.229,0.104-10.486c0.374-0.197,0.904-0.203,1.35-0.207
		C4.552,46.744,8.216,46.711,11.184,46.877z"/>
	<path style="fill-rule:evenodd;clip-rule:evenodd;" d="M74.673,61.1c-4.169,0.263-9.199,0.213-13.445,0.052
		c-0.271-0.963-0.156-2.202-0.155-3.426c0-1.187-0.083-2.434,0.104-3.427c1.795-0.647,3.069,0.19,4.309,0.936
		c1.98,1.188,3.703,2.209,5.658,3.426c0.951,0.592,1.855,1.104,2.804,1.713C74.215,60.547,74.716,60.639,74.673,61.1z"/>
	<path style="fill-rule:evenodd;clip-rule:evenodd;" d="M14.195,54.559c0.274,0.924,0.156,2.177,0.156,3.375
		c0,1.196,0.121,2.453-0.156,3.374c-4.052,0.274-9,0.204-13.134,0.052c0.119-0.548,0.726-0.776,1.143-1.038
		c0.444-0.279,0.94-0.543,1.401-0.779c1.257-0.703,2.576-1.688,4.049-2.491c1.431-0.78,2.706-1.873,4.05-2.492
		C12.364,54.256,13.398,54.152,14.195,54.559z"/>
	<path style="fill-rule:evenodd;clip-rule:evenodd;" d="M59.618,61.049c-0.813,0.444-2.086,0.259-3.271,0.26
		c-3.358,0-7.171,0.084-10.383-0.104c-0.27-0.932-0.155-2.131-0.155-3.322c0-1.151-0.08-2.359,0.103-3.322
		c1.495-0.174,3.113-0.156,4.88-0.155c0.789,0,1.681-0.111,2.284,0.052c0.618,0.166,1.337,1.056,1.817,1.505
		c0.629,0.589,1.062,1.176,1.661,1.662c0.808,0.816,1.646,1.646,2.491,2.491C59.281,60.346,59.701,60.651,59.618,61.049z"/>
	<path style="fill-rule:evenodd;clip-rule:evenodd;" d="M30.807,61.204c-0.025-1.182,0.533-2.291,0.883-3.374
		c0.36-1.115,0.498-2.312,1.142-3.219c2.901-0.23,6.358-0.182,9.397-0.104c0.484,0.308,0.592,0.975,0.779,1.506
		c0.395,1.122,0.686,2.282,1.09,3.426c0.188,0.53,0.568,1.102,0.363,1.661c-0.333,0.369-0.912,0.188-1.35,0.208
		c-3.32,0.158-7.346,0.045-10.538,0.052C31.98,61.361,31.285,61.582,30.807,61.204z"/>
	<path style="fill-rule:evenodd;clip-rule:evenodd;" d="M29.249,54.611c0.274,0.909,0.156,2.142,0.156,3.323
		c0,1.18,0.12,2.416-0.156,3.322c-3.035,0.263-6.645,0.156-9.967,0.155c-1.079,0-2.159,0.2-3.114-0.104
		c0.077-0.755,0.871-1.287,1.401-1.817c1.087-1.087,2.075-2.18,3.271-3.374c0.634-0.634,1.198-1.504,2.076-1.609
		C24.8,54.28,27.267,54.593,29.249,54.611z"/>
	<path style="fill-rule:evenodd;clip-rule:evenodd;" d="M75.193,62.19c0.279,1,0.155,2.135,0.155,3.271c0,2.229-0.023,4.516,0,6.801
		c0.012,1.096,0.216,2.205-0.104,3.167c-0.699-0.144-1.035-0.812-1.506-1.246c-1.401-1.294-2.871-2.618-4.205-4.049
		c-1.234-1.217-2.657-2.813-4.049-4.205c-0.43-0.431-1.147-0.938-1.298-1.453c-0.202-0.692-0.07-1.661,0.104-2.336
		c2.136-0.214,4.438-0.105,6.749-0.105C72.46,62.035,73.899,61.909,75.193,62.19z"/>
	<path style="fill-rule:evenodd;clip-rule:evenodd;" d="M59.93,62.139c0.281,3.941,0.199,8.797,0.052,12.822
		c-0.612-0.239-0.825-0.945-1.142-1.454c-0.656-1.055-1.312-2.116-1.973-3.219c-0.307-0.511-0.564-1.215-1.194-1.401
		c0.105,0.733,0.595,1.32,0.986,1.921c0.789,1.209,1.512,2.504,2.232,3.789c0.358,0.64,0.889,1.242,0.986,2.025
		c-0.346,0.367-1.07,0.156-1.558,0.155c-4.07-0.008-8.209,0.244-12.303,0c-0.295-1.771-0.138-3.809-0.156-5.763
		c-0.018-1.932-0.071-3.906,0.104-5.71c1.002-0.257,2.201-0.155,3.427-0.208c0.886-0.037,2.719-0.232,3.53,0.053
		c0.502,0.176,1.006,1.199,1.298,1.661c0.397,0.63,0.587,1.382,1.246,1.713c-0.356-2.212-2.717-3.209-1.817-6.281
		C55.337,61.867,58.079,62.009,59.93,62.139z"/>
	<path style="fill-rule:evenodd;clip-rule:evenodd;" d="M44.615,62.19c0.252,0.767,0.203,1.762,0.208,2.7
		c0.013,2.314,0.072,4.938-0.104,7.164c-0.47-0.481-0.489-1.274-0.623-1.973c-0.389-2.024-1.017-4.382-1.298-6.386
		c-0.076-0.543-0.065-1.115,0.208-1.506C43.4,62.06,44.233,62.011,44.615,62.19z"/>
	<path style="fill-rule:evenodd;clip-rule:evenodd;" d="M32.521,62.346c0.3,0.949-0.009,1.962-0.156,2.907
		c-0.299,1.91-0.729,3.771-1.09,5.658c-0.176,0.92-0.273,1.892-0.676,2.7c-0.377-0.442-0.212-1.122-0.207-1.869
		c0.01-1.465-0.104-3.124-0.104-4.776c0-1.617-0.153-3.287,0.207-4.62C30.96,62.089,32.081,62.04,32.521,62.346z"/>
	<path style="fill-rule:evenodd;clip-rule:evenodd;" d="M21.93,62.346c0.651,2.071-0.532,3.563-1.35,5.035
		c-1.385,2.497-2.77,4.779-4.257,7.164c-0.288,0.463-0.522,1.008-0.986,1.298c-0.447-0.323-0.26-0.996-0.26-1.506
		c-0.001-3.816-0.184-8.15,0.053-11.888c0.734-0.427,2.344-0.259,3.789-0.26C20.037,62.19,21.162,62.079,21.93,62.346z"/>
	<path style="fill-rule:evenodd;clip-rule:evenodd;" d="M11.34,62.346c0.147,0.695,0.328,1.775,0.103,2.596
		c-0.15,0.552-0.849,0.992-1.298,1.505c-1.317,1.507-2.744,2.871-4.101,4.258c-0.952,0.972-1.824,1.979-2.752,2.854
		c-0.484,0.458-1.012,0.869-1.453,1.35c-0.426,0.464-0.834,1.114-1.506,1.246c-0.28-1.771-0.155-3.845-0.155-5.866
		c0-2.715-0.121-5.415,0.104-7.839c1.257-0.377,2.827-0.027,4.257-0.155C6.609,62.109,9.279,62.242,11.34,62.346z"/>
	<path style="fill-rule:evenodd;clip-rule:evenodd;" d="M74.933,76.623c-1.041,0.278-2.22,0.155-3.375,0.155
		c-3.381,0.001-7.067,0.117-10.278-0.052c-0.279-1.702-0.155-3.778-0.155-5.763c0-0.999,0-1.986,0-2.959
		c0-0.958-0.125-1.928,0.104-2.751c0.683-0.22,1.725-0.354,2.492-0.104c0.532,0.173,1.054,0.833,1.558,1.297
		c1.493,1.379,2.779,2.988,4.152,4.361c1.462,1.462,2.927,2.707,4.309,4.205C74.189,75.501,74.734,75.972,74.933,76.623z"/>
	<path style="fill-rule:evenodd;clip-rule:evenodd;" d="M42.383,65.254c0.471,0.766,0.644,1.76,0.831,2.699
		c0.379,1.891,0.746,3.86,1.09,5.866c0.167,0.97,0.52,1.955,0.364,2.907c-1.041,0.276-2.2,0.155-3.375,0.155
		c-2.264,0-4.628,0.052-7.008,0.052c-1.146,0-2.301,0.127-3.322-0.155c-0.143-0.921,0.179-1.932,0.363-2.959
		c0.331-1.847,0.729-3.973,1.09-5.97c0.175-0.966,0.13-2.555,1.091-2.699c0.605-0.092,1.45-0.023,2.18,0
		C37.858,65.219,40.132,65.053,42.383,65.254z"/>
	<path style="fill-rule:evenodd;clip-rule:evenodd;" d="M29.249,65.305c0.342,0.813,0.208,1.811,0.208,2.803c0,0.956,0,1.976,0,2.96
		c0.001,1.981,0.124,4.063-0.155,5.762c-3.196,0.161-6.734,0.157-10.176,0.156c-1.131-0.001-2.262,0.124-3.27-0.156
		c0.021-0.603,0.436-1.098,0.727-1.609c1.342-2.362,2.826-4.732,4.257-7.268c0.508-0.901,1.124-2.589,2.128-2.751
		c0.978-0.158,2.149-0.001,3.219,0C27.246,65.202,28.285,65.117,29.249,65.305z"/>
	<path style="fill-rule:evenodd;clip-rule:evenodd;" d="M14.247,65.513c0.259,1.653,0.156,3.643,0.155,5.606
		c0,0.986,0,1.973,0,2.959c0,0.978,0.117,1.952-0.155,2.803c-4.229,0.133-9.025,0.248-13.238,0.052
		c0.084-0.702,0.731-1.146,1.194-1.608c0.474-0.475,0.923-1.001,1.401-1.506c1.821-1.918,3.773-3.773,5.763-5.762
		C10.573,66.851,11.827,64.426,14.247,65.513z"/>
</g>
<g id="Layer_1">
</g>
</svg>
