<?xml version="1.0" encoding="iso-8859-1"?>
<!-- Generator: Adobe Illustrator 19.2.0, SVG Export Plug-In . SVG Version: 6.00 Build 0)  -->
<svg version="1.1" xmlns="http://www.w3.org/2000/svg" xmlns:xlink="http://www.w3.org/1999/xlink" x="0px" y="0px"
	 viewBox="0 0 56.108 71.256" style="enable-background:new 0 0 56.108 71.256;" xml:space="preserve">
<g id="Himes_x5F_printing">
	<path style="fill-rule:evenodd;clip-rule:evenodd;" d="M48.121,0.054c3.215-0.386,5.64,1.339,6.734,3.391
		c0.43,0.805,0.789,1.714,0.859,2.627c0.236,3.038-1.136,5.564-3.199,6.782c-0.6,0.353-1.412,0.71-2.197,0.859
		c-2.157,0.409-4.433-0.433-5.731-1.624c-1.625-1.49-2.898-4.12-2.006-7.26c0.563-1.983,2.23-3.72,4.107-4.441
		C47.148,0.212,47.629,0.114,48.121,0.054z"/>
	<path style="fill-rule:evenodd;clip-rule:evenodd;" d="M22.045,0.198c2.608-0.264,4.927,1.279,6.018,2.817
		c0.372,0.525,0.944,1.785,1.099,2.579c0.727,3.74-1.484,6.872-4.059,7.928c-0.922,0.378-1.886,0.448-2.77,0.43
		c-2.454-0.051-4.817-1.738-5.779-3.964c-0.218-0.504-0.556-1.57-0.621-2.245C15.81,6.479,16.18,4.83,16.648,3.875
		C17.421,2.301,19.305,0.475,22.045,0.198z"/>
	<path style="fill-rule:evenodd;clip-rule:evenodd;" d="M43.202,1.535c0.432,0.406-0.2,0.86-0.382,1.146
		c-0.515,0.809-0.883,1.912-1.003,3.2c-0.11,1.188,0.076,2.642,0.143,4.06c0.067,1.399,0.034,2.858,0.096,4.107
		c0.029,0.586,0.262,1.199-0.048,1.719c-0.453-0.133-0.775-0.518-1.098-0.812c-1.279-1.161-3.127-2.288-5.875-2.006
		c-1.798,0.184-3.33,1.238-4.346,2.292c-0.34,0.354-0.6,0.902-1.146,1.051c-0.322-0.405-0.17-1.021-0.144-1.528
		c0.055-1.039,0.195-2.148,0.287-3.248c0.047-0.564,0.008-1.158,0.191-1.576c0.198-0.452,0.981-0.867,1.528-1.194
		c0.622-0.373,1.157-0.688,1.672-1.003c2.89-1.772,5.424-3.394,8.31-5.11c0.643-0.382,1.146-0.838,1.767-1.098
		C43.17,1.535,43.187,1.535,43.202,1.535z"/>
	<path style="fill-rule:evenodd;clip-rule:evenodd;" d="M16.792,1.678c0.462,0.442-0.227,0.84-0.382,1.098
		c-0.657,1.095-1.176,2.565-1.241,4.298c-0.085,2.28,0.047,4.736,0.047,7.212c0.001,4.602,0.191,9.373,0.191,14.28
		c0,7.315,0.047,14.473,0.048,21.969c0,2.449-0.058,5.039,0.668,6.686c1.086,2.46,3.733,4.651,7.498,4.394
		c0.618-0.042,1.23-0.394,1.767-0.191c0.001,0.458-0.52,0.587-0.812,0.764c-3.542,2.147-7.051,4.311-10.698,6.543
		c-1.286,0.787-2.622,1.784-4.06,2.197c-4.037,1.158-6.914-0.946-8.501-3.343c-0.853-1.288-1.22-3.014-1.146-5.015
		c0.154-4.174-0.048-8.216-0.048-12.37c0.001-10.191-0.095-20.559-0.095-30.9c-0.001-2.148-0.192-4.254,0.43-5.827
		c0.601-1.52,1.631-2.454,2.675-3.582c3.25-2.105,6.715-4.059,10.077-6.161C14.393,2.992,15.567,2.222,16.792,1.678z"/>
	<path style="fill-rule:evenodd;clip-rule:evenodd;" d="M16.075,10.991c0.493,0.247,1.212,1.304,1.671,1.719
		c0.957,0.864,2.249,1.571,3.869,1.815c0.433,0.065,0.793-0.109,1.051,0.287c-0.153,0.669-0.926,0.95-1.433,1.289
		c-1.06,0.711-2.165,1.353-3.343,2.054c-0.344,0.205-1.308,1.032-1.767,0.812c-0.375-0.179-0.241-1.036-0.239-1.623
		c0.002-0.7-0.048-1.9-0.048-3.2c0-1.011-0.156-2.602,0.096-3.057C15.967,11.042,16.019,11.014,16.075,10.991z"/>
	<path style="fill-rule:evenodd;clip-rule:evenodd;" d="M55.524,11.039c0.41,0.511,0.238,1.403,0.238,2.245
		c0.001,10.671,0.096,21.329,0.096,31.76c0,0.815,0.016,1.632,0.048,2.436c0.028,0.709,0.076,1.494-0.191,2.149
		c-0.844-0.306-1.131-1.094-1.862-1.624c-1.505-1.091-3.897-1.844-6.351-1.242c-1.401,0.343-2.64,1.227-3.487,2.149
		c-0.222,0.242-0.451,0.653-0.908,0.621c-0.382-0.619-0.114-1.506-0.095-2.292c0.039-1.608,0.15-3.222,0.287-4.872
		c0.08-0.962,0.179-1.951,0.048-2.817c-0.233-1.541-0.937-2.828-1.767-3.869c-0.969-1.214-2.749-2.103-4.489-2.34
		c-3.295-0.45-5.79,1.594-7.928,2.866c-0.379,0.225-0.774,0.441-1.146,0.668c-0.361,0.22-0.721,0.625-1.194,0.525
		c-0.562-0.302-0.516-1.629-0.334-2.149c0.19-0.544,1.215-1.114,1.767-1.433c1.986-1.146,4.052-2.391,5.922-3.534
		c2.786-1.703,5.696-2.92,7.594-5.063c0.497-1.212,1.285-2.211,1.433-3.725c0.069-0.708-0.123-1.375,0.144-2.006
		c0.289-0.685,1.779-1.385,2.483-1.815c2.66-1.624,5.398-3.305,7.928-4.919c0.546-0.553,1.062-1.135,1.576-1.72
		C55.463,11.044,55.429,10.96,55.524,11.039z"/>
	<path style="fill-rule:evenodd;clip-rule:evenodd;" d="M42.916,11.517c0.512,0.068,0.95,0.827,1.385,1.194
		c0.901,0.76,2.083,1.327,3.439,1.576c0.414,0.076,0.97-0.04,1.29,0.382c-0.1,0.615-0.799,0.83-1.242,1.099
		c-0.954,0.577-1.851,1.18-2.818,1.815c-0.471,0.309-0.988,0.659-1.576,0.716c-0.509-0.425-0.413-1.343-0.477-2.149
		c-0.109-1.348-0.266-3.013-0.143-4.489C42.799,11.591,42.847,11.543,42.916,11.517z"/>
	<path style="fill-rule:evenodd;clip-rule:evenodd;" d="M28.636,11.66c0.656-0.12,0.328,1.651,0.287,2.149
		c-0.065,0.774-0.109,1.696-0.143,2.436c-0.086,1.83-0.315,3.291-0.191,4.919c0.273,3.593,3.007,6.225,6.065,6.83
		c0.478,0.094,1.019-0.083,1.337,0.334c-0.009,0.566-0.646,0.692-1.003,0.907c-1.164,0.702-2.343,1.416-3.534,2.149
		c-1.566,0.964-3.208,1.842-4.728,2.818c-1.45,0.931-3.088,1.988-5.11,2.483c-2.048,0.502-4.479-0.119-5.588-1.576
		c-0.115-4.583-0.162-9.887-0.095-14.71c0.63-1.049,1.956-1.621,3.056-2.245c1.101-0.624,2.212-1.348,3.248-2.054
		c1.623-1.104,3.334-1.942,4.871-3.104C27.652,12.586,28.096,12.112,28.636,11.66z"/>
	<path style="fill-rule:evenodd;clip-rule:evenodd;" d="M34.988,13.666c1.777-0.213,3.458,0.283,4.585,1.003
		c0.942,0.601,1.886,1.662,2.245,2.436c0.143,0.308,0.167,0.719,0.287,1.098c0.274,0.873,0.519,1.998,0.382,3.343
		c-0.065,0.642-0.413,1.837-0.668,2.436c-0.502,1.174-1.917,2.366-3.057,2.913c-4.463,2.141-9.91-1.62-9.504-6.973
		c0.122-1.614,0.798-2.873,1.433-3.726c0.487-0.655,1.166-1.31,1.863-1.719C33.156,14.123,33.878,13.8,34.988,13.666z"/>
	<path style="fill-rule:evenodd;clip-rule:evenodd;" d="M35.227,33.916c2.943-0.305,5.415,1.243,6.4,2.818
		c0.961,1.538,1.464,3.71,0.907,5.779c-0.706,2.618-2.837,4.921-6.065,5.015c-3.609,0.104-6.63-2.496-7.021-6.161
		c-0.257-2.412,0.616-4.187,1.815-5.444C32.134,35.007,33.669,34.077,35.227,33.916z"/>
	<path style="fill-rule:evenodd;clip-rule:evenodd;" d="M29.353,37.211c0.062,0.892-0.487,1.643-0.573,2.77
		c-0.116,1.51,0.096,3.273,0.143,4.967c0.022,0.798,0.057,1.633,0.143,2.388c0.086,0.749,0.318,1.582-0.048,2.197
		c-0.58,0.066-0.767-0.663-1.242-0.86c-1.247-1.181-2.723-1.779-4.681-1.91c-2.465-0.166-4.46,1.107-5.635,2.34
		c-0.229,0.24-0.7,1.267-1.099,1.194c-0.415-0.076-0.287-1.777-0.287-2.483c0-1.054-0.226-1.92,0.048-2.627
		c0.174-0.45,0.917-0.88,1.433-1.194c1.627-0.99,3.161-2.01,4.776-2.961c1.204-0.709,2.266-1.274,3.248-1.911
		c1.064-0.689,2.089-1.332,3.248-1.91C28.923,37.163,29.209,37.033,29.353,37.211z"/>
	<path style="fill-rule:evenodd;clip-rule:evenodd;" d="M29.877,45.092c0.672,0.072,0.983,0.805,1.48,1.241
		c0.837,0.734,2.237,1.427,3.295,1.624c0.406,0.076,1.264-0.003,1.337,0.43c0.081,0.481-0.929,0.845-1.242,1.051
		c-0.913,0.601-1.897,1.197-2.818,1.767c-0.447,0.277-0.906,0.698-1.576,0.716c-0.529-0.352-0.335-0.956-0.335-1.576
		c0-1.616-0.488-3.6-0.286-5.11C29.761,45.166,29.809,45.118,29.877,45.092z"/>
	<path style="fill-rule:evenodd;clip-rule:evenodd;" d="M51.99,61.186c-0.017,0.458-0.548,0.623-0.86,0.812
		c-2.481,1.502-5.059,3.163-7.593,4.681c-1.524,0.912-2.815,1.748-4.346,2.674c-1.408,0.852-3.062,1.841-5.11,1.863
		c-4.294,0.045-7.626-3.43-7.785-7.642c-0.031-0.827,0.075-1.579,0.096-2.388c0.185-0.695,0.856-0.963,1.337-1.385
		c1.547-1.353,2.812-3.658,2.579-6.686c0.729-0.913,1.858-1.425,2.866-2.006c1.026-0.591,2.05-1.201,3.057-1.815
		c2.017-1.231,4.2-2.252,5.636-4.06c0.778-0.524,0.553,1.264,0.525,2.006c-0.08,2.136-0.447,4.909-0.43,7.021
		c0.019,2.278,1.281,4.275,2.579,5.397c1.352,1.168,3.323,1.932,5.492,1.767C50.652,61.378,51.238,61.094,51.99,61.186z"/>
	<path style="fill-rule:evenodd;clip-rule:evenodd;" d="M48.981,47.24c3.525-0.19,6.099,2.076,6.877,4.919
		c0.853,3.115-0.603,5.851-2.436,7.26c-0.492,0.378-1.057,0.786-1.624,1.002c-2.914,1.117-6.123-0.148-7.641-2.005
		c-0.904-1.106-1.704-2.877-1.576-4.824c0.157-2.391,1.403-4.122,3.008-5.253C46.54,47.669,47.654,47.312,48.981,47.24z"/>
	<path style="fill-rule:evenodd;clip-rule:evenodd;" d="M22.57,47.384c1.775-0.096,3.747,0.812,4.681,1.576
		c1.327,1.085,2.435,3.2,2.435,5.492c0,1.855-0.869,3.49-1.91,4.537c-0.87,0.875-2.298,1.699-3.678,1.958
		c-1.407,0.265-3.053-0.044-4.203-0.621c-2.297-1.152-4.566-4.434-3.487-8.071c0.182-0.61,0.467-1.051,0.717-1.48
		C18.105,49.089,19.895,47.529,22.57,47.384z"/>
</g>
<g id="Layer_1">
</g>
</svg>
