<?xml version="1.0" encoding="iso-8859-1"?>
<!-- Generator: Adobe Illustrator 19.2.0, SVG Export Plug-In . SVG Version: 6.00 Build 0)  -->
<svg version="1.1" xmlns="http://www.w3.org/2000/svg" xmlns:xlink="http://www.w3.org/1999/xlink" x="0px" y="0px"
	 viewBox="0 0 79.423 77.1" style="enable-background:new 0 0 79.423 77.1;" xml:space="preserve">
<g id="Hiroshi_x5F_Awatsuji_x5F_Design_x5F_Room">
	<path style="fill-rule:evenodd;clip-rule:evenodd;" d="M48.098,63.393c-5.229-0.037-10.904-0.153-15.993,0
		c-0.394,0.632-0.411,1.376-0.597,2.037c-1.297,4.618-4.242,8.232-8.345,10.082c-2.552,1.151-5.571,1.857-8.741,1.49
		c-3.02-0.35-5.423-1.54-7.5-2.98c-2.159-1.497-3.643-3.267-4.967-5.562c-1.312-2.279-2.091-5.176-1.936-8.543
		c0.143-3.128,1.294-5.773,2.731-7.798c1.449-2.042,3.342-3.683,5.612-4.868c2.479-1.293,5.318-1.636,7.798-2.732
		c2.323-1.026,4.214-2.783,5.712-4.817c1.494-2.029,2.674-4.426,2.832-7.699c0.084-1.757-0.168-3.35-0.547-4.718
		c-0.369-1.332-1.021-2.466-1.441-3.775c-0.899-2.805-1.195-6.251-0.596-9.238c1.129-5.629,4.58-9.62,8.841-12.169
		c2.259-1.351,5.053-1.93,8.394-2.086c4.877-0.227,9.069,1.9,11.672,4.073c2.853,2.38,5.038,5.444,6.06,9.536
		c0.564,2.261,0.593,4.86,0.248,7.252c-0.312,2.17-1.192,4.131-1.688,6.109c-1.178,4.695-0.067,9.619,2.136,12.467
		c1.677,2.6,4.136,4.556,7.351,5.662c1.729,0.596,3.429,0.908,4.967,1.54c0.702,0.289,1.428,0.76,2.086,1.192
		c3.205,2.102,5.691,5.135,6.804,9.437c0.913,3.529,0.313,7.877-1.191,10.778c-1.495,2.883-3.584,4.914-6.357,6.656
		c-2.635,1.654-6.43,2.584-10.53,1.837c-1.718-0.312-3.265-1.018-4.718-1.788c-3.474-1.84-6.02-4.937-7.401-8.841
		C48.512,65.133,48.431,64.252,48.098,63.393z M46.459,41.788c-1.183-1.596-2.714-3.014-4.519-4.122
		c-0.762-0.467-1.784-1.121-2.683-0.844c-0.982,0.302-2.268,1.145-3.129,1.788c-2.894,2.16-5.473,6.222-5.762,10.977
		c-0.058,0.949-0.104,2.025,0.199,3.03c1.461,0.27,3.041,0.149,4.619,0.149c4.691,0,9.719,0.22,14.205-0.099
		C50.039,48.138,48.548,44.607,46.459,41.788z"/>
</g>
<g id="Layer_1">
</g>
</svg>
