<?xml version="1.0" encoding="iso-8859-1"?>
<!-- Generator: Adobe Illustrator 19.2.0, SVG Export Plug-In . SVG Version: 6.00 Build 0)  -->
<svg version="1.1" xmlns="http://www.w3.org/2000/svg" xmlns:xlink="http://www.w3.org/1999/xlink" x="0px" y="0px"
	 viewBox="0 0 69.758 81.266" style="enable-background:new 0 0 69.758 81.266;" xml:space="preserve">
<g id="Historisches_x5F_Museum_x5F_Frankfurt_x5F_am_x5F_Main">
	<path style="fill-rule:evenodd;clip-rule:evenodd;" d="M69.31,20.445c0.327,6.655,0.067,13.469,0.3,20.191
		c0.235,6.752,0.141,13.545,0.051,20.19c-0.327,0.559-0.988,0.806-1.503,1.102c-8.081,4.658-16.169,9.675-24.349,14.279
		c-1.428,0.866-2.822,1.775-4.259,2.605c-1.441,0.834-2.826,1.793-4.408,2.455c-0.839-0.206-1.581-0.709-2.306-1.152
		c-2.116-1.297-4.281-2.627-6.462-3.908c-5.814-3.415-11.641-6.629-17.536-10.121c-2.135-1.264-4.346-2.421-6.562-3.807
		C1.67,61.9,0.458,61.315,0.272,60.876c-0.194-0.458-0.097-1.604-0.101-2.405c-0.045-10.747-0.15-22.182-0.15-32.966
		c0-1.773-0.116-3.93,0.2-5.11c0.502-0.663,1.304-1.013,2.004-1.403c5.025-2.797,9.882-5.929,14.98-8.818
		c2.781-1.575,5.75-3.363,8.518-5.06c2.042-1.252,4.159-2.566,6.362-3.858c0.762-0.446,1.685-1.188,2.354-1.252
		c0.674-0.064,1.68,0.623,2.405,1.052c5.056,2.996,10.236,5.921,15.23,8.968c5.135,3.133,10.003,6.032,15.231,8.968
		C68.026,19.396,68.812,19.778,69.31,20.445z M30.382,4.363c-0.68,0.47-2.254,1.124-2.556,1.954c-0.235,0.648-0.05,2.153-0.05,3.106
		c0,3.626,0,7.955,0,12.125c0,1.035-0.232,3.316,0.05,4.108c0.304,0.854,2.12,1.665,2.806,2.104
		c1.041,0.666,2.046,1.481,3.106,1.603c0.25-1.026,0.161-2.136,0.15-3.206c-0.033-3.208-0.024-6.614-0.051-10.021
		c-0.029-3.752-0.05-7.943-0.05-11.923c0-0.488,0.103-1.105-0.25-1.503c-0.034,0-0.067,0-0.101,0
		C32.462,3.088,31.386,3.669,30.382,4.363z M35.542,2.91c-0.143,0.831,0,1.947,0,3.006c0,1.052-0.206,3.011,0.05,3.808
		c0.276,0.859,1.969,1.521,2.906,2.054c1.1,0.626,2.122,1.29,3.105,1.854c5.352,3.067,10.424,6.153,15.632,9.168
		c1.063,0.616,2.077,1.369,3.256,1.753c1.297-0.307,2.076-1.131,3.156-1.653c0.37-0.257,0.921-0.463,1.554-0.851
		c0.363-0.223,1.36-0.702,1.353-1.103c-0.008-0.41-1.288-1.021-1.753-1.302c-0.669-0.405-1.324-0.738-1.954-1.102
		C55.023,14.018,47.492,9.375,39.75,4.914c-1.06-0.611-2.867-1.847-4.058-2.154C35.62,2.787,35.57,2.838,35.542,2.91z M25.372,7.469
		c-0.634,0.174-1.282,0.627-1.904,1.002c-3.573,2.15-7.17,4.173-10.772,6.363c-0.448,0.272-1.64,0.735-1.603,1.302
		c0.024,0.381,0.917,0.828,1.352,1.103c1.155,0.727,2.001,1.164,3.107,1.804c0.563,0.326,1.034,0.81,1.754,0.751
		c0.684-0.056,1.531-0.755,2.204-1.152c1.532-0.907,2.779-1.598,4.309-2.505c0.569-0.338,1.795-0.945,2.004-1.402
		c0.412-0.902,0.044-2.871,0.05-3.758c0.005-0.624,0.051-1.306,0.051-1.954c0-0.534,0.137-1.222-0.301-1.604
		C25.467,7.42,25.481,7.439,25.372,7.469z M35.792,12.579c-0.208,2.11-0.1,4.574-0.1,6.914c-0.001,5.531,0.199,10.856,0.2,16.182
		c0,1.049-0.12,2.14,0.15,3.157c0.612-0.031,1.117-0.426,1.603-0.702c1.515-0.858,3.028-1.634,4.209-2.806
		c-0.022-6.691-0.02-12.906-0.101-19.589c-0.772-0.665-1.714-1.174-2.705-1.804c-0.777-0.494-2.181-1.285-3.106-1.503
		C35.87,12.457,35.821,12.507,35.792,12.579z M43.659,17.088c-0.208,0.481,0.001,1.548,0,2.305c-0.003,1.824-0.261,4.017,0.101,5.36
		c1.373-0.402,2.285-1.087,3.507-1.803c0.474-0.278,1.102-0.669,1.653-1.002c0.367-0.223,1.54-0.703,1.503-1.152
		c-0.031-0.382-1.174-0.83-1.554-1.052c-1.66-0.974-3.357-2.06-5.06-2.806C43.737,16.966,43.687,17.016,43.659,17.088z
		 M20.763,19.844c-0.311,0.195-1.296,0.655-1.303,1.052c-0.009,0.442,0.971,0.885,1.353,1.102c1.104,0.626,2.093,1.22,3.106,1.804
		c0.5,0.288,1.033,0.729,1.703,0.651c0.326-1.185,0.205-2.877,0.2-4.158c-0.004-1.075,0.141-2.286-0.301-3.056
		c-0.033,0-0.066,0-0.1,0C23.899,17.864,22.226,18.931,20.763,19.844z M34.039,35.575c-0.001-1.246-0.066-2.473-0.201-3.507
		c-1.918-1.416-4.04-2.525-6.111-3.808c-1.998-1.237-4.067-2.487-6.213-3.708c-3.613-2.056-7.261-4.353-10.972-6.363
		c-0.597-0.323-1.43-0.93-1.904-0.751c-0.965,0.364-1.768,0.908-2.856,1.553c-0.449,0.267-2.585,1.26-2.556,1.854
		c0.02,0.37,1.237,1.023,1.704,1.302c1.939,1.159,4.06,2.375,5.812,3.356c5.251,2.945,10.247,6.102,15.231,9.119
		c1.911,1.156,3.887,2.261,5.762,3.356c0.647,0.379,1.253,0.948,2.054,1.002C34.12,38.053,34.039,36.76,34.039,35.575z
		 M55.682,23.852c-0.428-0.271-0.882-0.603-1.402-0.902c-0.649-0.372-1.375-0.892-2.154-0.702c-2.03,1.076-4.365,2.374-6.463,3.657
		c-0.585,0.358-1.729,0.91-1.954,1.453c-0.322,0.78-0.05,2.084-0.05,3.006c0,0.704-0.051,1.435-0.051,2.104
		c0,0.669-0.109,1.388,0.251,1.804c0.794,0.22,1.36-0.438,1.904-0.802c0.607-0.406,1.229-0.77,1.854-1.102
		c2.738-1.61,5.502-3.373,8.216-4.96c0.914-0.534,1.982-0.909,2.655-1.753C57.799,24.946,56.737,24.519,55.682,23.852z M2.025,22.9
		c-0.231,0.354-0.149,1.359-0.15,2.154c0,9.794,0.151,19.705,0.15,29.309c0,1.478-0.041,2.944,0.2,4.359
		c0.984-0.175,2.074-0.854,3.157-1.503c0.397-0.239,0.952-0.596,1.503-0.902c0.565-0.314,1.138-0.573,1.352-1.052
		c0.339-0.754,0.178-2.284,0.2-3.457c0.072-3.672-0.05-7.169-0.05-10.871c0-3.71,0.12-7.27-0.05-11.122
		c-0.048-1.076,0.15-2.815-0.15-3.558c-0.328-0.809-2.018-1.363-2.856-1.854c-1.134-0.663-2.138-1.493-3.155-1.653
		C2.104,22.778,2.053,22.828,2.025,22.9z M64.651,31.818c0.634-0.389,2.631-1.317,2.905-2.004c0.321-0.804,0.101-2.334,0.101-3.607
		c-0.001-0.442,0.035-1.083,0-1.854c-0.03-0.655,0.025-1.636-0.651-1.403c-0.963,0.331-1.917,1.055-2.906,1.603
		c-2.876,1.596-5.621,3.366-8.417,5.01c-3.886,2.286-7.652,4.658-11.222,6.714c-1.914,1.067-3.782,2.108-5.712,3.256
		c-0.422,0.251-1.676,0.882-1.653,1.353c0.02,0.406,0.887,0.762,1.303,1.002c1.18,0.681,1.877,1.026,3.006,1.704
		c0.462,0.277,1.012,0.802,1.554,0.802c0.687,0,1.739-0.862,2.404-1.252c5.286-3.1,11.166-6.436,16.233-9.469
		C62.774,32.945,63.411,32.578,64.651,31.818z M10.091,27.609c-0.266,2.116-0.187,4.93,0,7.064c1.969,1.425,4.305,2.683,6.563,3.958
		c0.639,0.361,1.635,1.188,2.355,1.152c0.474-0.023,1.117-0.563,1.554-0.802c1.146-0.628,1.93-1,3.056-1.703
		c0.295-0.184,1.309-0.705,1.303-1.102c-0.009-0.475-1.152-0.913-1.704-1.202c-0.67-0.352-1.283-0.773-1.804-1.103
		c-2.525-1.6-4.8-2.919-7.264-4.408c-1.074-0.649-2.588-1.697-3.908-2.004C10.169,27.487,10.12,27.537,10.091,27.609z
		 M67.807,35.475c0-0.744,0.097-1.981,0-2.555c-0.122-0.718-0.25-0.599-0.602-0.451c-0.978,0.413-1.81,1.102-2.806,1.703
		c-0.949,0.573-2.155,0.959-2.655,1.904c-0.173,2.275-0.1,5.07-0.101,7.565c0,0.862-0.07,1.878,0.201,2.405
		c0.343,0.666,2.255,1.521,2.856,1.854c1.084,0.6,1.969,1.322,3.106,1.553C67.979,45.27,67.806,40.141,67.807,35.475z M59.84,40.034
		c0.001-0.726,0.224-3.14-0.45-2.906c-1.15,0.4-2.171,1.131-3.257,1.753c-0.511,0.292-1.044,0.562-1.553,0.852
		c-0.497,0.282-1.099,0.6-1.354,1.103c0.277,0.59,0.931,0.794,1.453,1.102c1.109,0.654,2.147,1.323,3.257,1.954
		c0.552,0.313,1.138,0.708,1.804,0.802C60.01,43.183,59.84,41.897,59.84,40.034z M10.291,37.279c-0.176,0.687-0.1,2.717-0.1,3.607
		c0,1.351-0.116,2.621,0.15,3.557c1.298-0.139,2.193-0.956,3.306-1.603c0.468-0.271,1.07-0.601,1.603-0.902
		c0.394-0.222,1.444-0.655,1.453-1.102c0.009-0.482-0.963-0.831-1.402-1.052c-1.66-0.835-3.054-2.081-4.86-2.606
		C10.382,37.203,10.328,37.232,10.291,37.279z M30.031,38.882c-0.423-0.275-0.928-0.534-1.452-0.852
		c-0.586-0.354-1.245-0.894-1.804-0.702c-1.45,0.499-2.796,1.568-4.208,2.355c-1.395,0.777-2.768,1.671-4.108,2.455
		c-2.148,1.255-4.244,2.335-6.263,3.557c-0.668,0.404-1.468,0.746-1.904,1.403c-0.01,1.122-0.143,2.286-0.1,3.407
		c0.043,1.123-0.063,2.342,0.15,3.357c1.126-0.173,1.989-0.949,2.905-1.503c0.935-0.565,1.903-1.037,2.856-1.553
		c1.899-1.029,3.692-2.242,5.561-3.307c1.88-1.071,3.739-2.199,5.611-3.256c0.935-0.528,1.883-1.037,2.755-1.653
		c0.878-0.621,1.931-0.984,2.706-1.753C32.228,39.919,31.096,39.572,30.031,38.882z M67.807,51.908
		c-0.504-0.644-1.306-0.916-2.004-1.302c-4.25-2.352-8.253-4.915-12.525-7.315c-0.892-0.501-1.704-1.297-2.705-1.102
		c-1.482,0.77-2.682,1.48-4.108,2.305c-0.378,0.218-1.177,0.564-1.152,1.002c0.019,0.353,0.853,0.733,1.253,0.952
		c1.551,0.848,2.845,1.698,4.208,2.455c4.83,2.682,9.398,5.568,14.078,8.166c0.96,0.533,1.87,1.206,2.956,1.503
		C68.061,56.611,67.862,54.033,67.807,51.908z M33.438,42.589c-0.967,0.378-2.015,1.027-2.956,1.603
		c-0.967,0.592-1.917,1.244-2.705,1.854c-0.124,9.661,0.067,19.502,0.101,28.957c1.346,1.164,2.97,2.023,4.509,2.906
		c0.524,0.302,1.093,0.706,1.753,0.752c0.342-0.651,0.201-1.41,0.201-2.104c0-5.329,0-10.457,0-15.882
		c0-5.279-0.101-10.643-0.101-15.881c0-0.725,0.12-1.511-0.15-2.205C33.845,42.501,33.577,42.535,33.438,42.589z M55.832,54.012
		c-0.931-0.52-1.825-1.105-2.755-1.653c-3.725-2.193-7.313-4.268-11.122-6.463c-1.684-0.97-3.965-2.385-5.712-3.156
		c-0.012-0.129-0.086,0.069-0.2,0c-0.29,0.805-0.141,2.08-0.101,3.356c0.035,1.097-0.213,2.669,0.15,3.457
		c0.22,0.477,1.356,0.997,1.954,1.353c2.132,1.268,4.435,2.514,6.312,3.607c1.415,0.824,2.672,1.632,4.209,2.405
		c0.653,0.329,1.329,0.842,2.054,1.252c0.679,0.384,1.625,1.015,2.305,1.002c0.531-0.01,1.095-0.427,1.553-0.701
		c0.505-0.303,1.005-0.618,1.403-0.852c1.026-0.604,2.114-1.065,2.604-1.904C57.711,55.007,56.745,54.522,55.832,54.012z
		 M25.372,47.549c-0.955,0.403-1.867,1.021-2.806,1.553c-4.643,2.635-9.274,5.387-13.778,8.066
		c-0.917,0.545-1.857,1.052-2.756,1.604c-0.897,0.551-1.915,1-2.604,1.803c0.647,0.882,1.702,1.23,2.756,1.854
		c0.393,0.232,0.913,0.547,1.452,0.852c0.481,0.271,1.146,0.753,1.603,0.751c0.579-0.003,1.537-0.736,2.154-1.102
		c2.147-1.274,4.23-2.486,6.263-3.657c2.951-1.702,5.73-3.298,8.316-4.91c0.003-2.327,0.269-4.77-0.05-6.914
		C25.688,47.379,25.451,47.516,25.372,47.549z M36.043,52.258c-0.256,1.082-0.15,2.774-0.15,4.209
		c0.001,4.072,0.018,7.962,0.15,11.773c0.01,0.279-0.127,0.72,0.2,0.902c0.545-0.044,1.038-0.372,1.503-0.651
		c1.048-0.63,1.793-1.084,2.906-1.704c0.557-0.31,1.127-0.581,1.303-1.002c0.239-0.574,0.1-1.73,0.1-2.555c0-2.018,0-3.296,0-5.311
		c0-0.851,0.079-1.977-0.15-2.505c-0.125-0.289-0.82-0.63-1.303-0.902c-1.462-0.825-2.993-1.856-4.408-2.354
		C36.134,52.182,36.079,52.212,36.043,52.258z M44.059,57.018c-0.129,0.3-0.132,1.185-0.15,1.854
		c-0.038,1.385,0.026,2.655,0.051,3.858c0.012,0.603-0.067,1.282,0.351,1.603c1.104-0.353,2.06-1.071,3.206-1.704
		c0.492-0.271,1.018-0.557,1.604-0.902c0.282-0.167,1.423-0.739,1.453-1.102c0.036-0.439-0.979-0.953-1.353-1.152
		c-0.568-0.304-1.159-0.645-1.603-0.902c-1.105-0.638-2.131-1.414-3.407-1.704C44.137,56.896,44.087,56.946,44.059,57.018z
		 M26.123,62.579c0-1.3,0-2.607,0-3.857c0-0.621,0.129-1.316-0.2-1.753c-0.188-0.116-0.348-0.036-0.451,0
		c-1.517,0.521-3.144,1.854-4.559,2.605c-0.519,0.275-1.188,0.46-1.354,1.052c0.832,0.903,2,1.336,3.057,1.954
		c1.027,0.601,1.996,1.47,3.307,1.704C26.248,63.858,26.123,63.182,26.123,62.579z M38.297,77.509
		c7.015-4.102,13.98-8.074,20.992-12.274c1.795-1.076,3.777-2.153,5.712-3.357c0.481-0.3,1.732-0.912,1.703-1.353
		c-0.018-0.255-0.732-0.686-1.103-0.902c-0.509-0.298-0.942-0.498-1.302-0.702c-1.001-0.567-1.779-1.201-2.505-1.553
		c-0.374-0.181-0.958-0.418-1.253-0.301c-0.996,0.395-2.036,1.15-3.106,1.754c-3.192,1.803-6.143,3.5-9.219,5.361
		c-2.981,1.804-6.06,3.693-9.118,5.461c-0.854,0.493-2.634,1.141-2.955,1.904c-0.357,0.846-0.101,2.295-0.101,3.407
		c0,1.306-0.145,2.574,0.2,3.407C37.036,78.394,37.667,77.878,38.297,77.509z M26.274,70.294c0-0.475-0.013-1.142-0.051-1.803
		c-0.035-0.63,0.048-1.375-0.149-1.753c-0.201-0.383-1.39-0.879-2.055-1.253c-1.562-0.878-2.821-1.597-4.258-2.455
		c-0.622-0.371-1.477-1.066-2.205-1.152c-0.769-0.091-1.248,0.426-1.903,0.801c-1.407,0.807-3.183,1.678-4.209,2.606
		c0.297,0.643,1.039,0.921,1.604,1.252c0.613,0.36,1.244,0.709,1.854,1.052c1.23,0.694,2.365,1.547,3.607,2.204
		c1.886,0.997,3.768,2.057,5.561,3.106c0.599,0.35,1.207,0.89,1.954,0.852C26.405,72.766,26.274,71.548,26.274,70.294z"/>
</g>
<g id="Layer_1">
</g>
</svg>
