<?xml version="1.0" encoding="iso-8859-1"?>
<!-- Generator: Adobe Illustrator 19.2.0, SVG Export Plug-In . SVG Version: 6.00 Build 0)  -->
<svg version="1.1" xmlns="http://www.w3.org/2000/svg" xmlns:xlink="http://www.w3.org/1999/xlink" x="0px" y="0px"
	 viewBox="0 0 65.379 67.989" style="enable-background:new 0 0 65.379 67.989;" xml:space="preserve">
<g id="Hokushin_x5F_82">
	<path style="fill-rule:evenodd;clip-rule:evenodd;" d="M30.07,31.575c1.017,0.012,1.845-0.646,2.508-1.182
		c0.679-0.551,1.284-1.272,1.751-1.988c2.026-3.109,1.346-8.541,1.373-13.537c0.014-2.457-0.13-4.938,0.236-7.148
		c0.633-3.81,3.598-6.969,7.573-7.432c2.446-0.283,4.366,0.408,6.012,1.326c1.608,0.896,3.026,1.967,4.544,2.934
		c1.845,1.068,3.434,2.035,5.159,3.125c1.669,1.055,3.323,2.043,4.497,3.738c1.183,1.709,1.561,3.881,1.561,6.676
		c0,13.391,0.025,27.545,0.095,40.422c0.028,5.143-3.038,8.316-7.337,9.135c-2.612,0.498-4.917-0.41-6.579-1.373
		c-1.852-1.07-3.517-2.174-5.112-3.123c-1.687-1.004-3.32-2.047-5.111-3.125c-2.679-1.611-4.778-3.383-5.349-7.004
		c-0.188-1.192-0.142-2.506-0.142-3.977c0-2.65-0.019-5.383-0.143-8.094c-0.584-0.088-1.114,0.295-1.515,0.568
		c-2.157,1.463-3.65,3.611-4.022,6.863c-0.147,1.281,0.03,2.715,0,4.26c-0.059,2.938,0.232,5.84-0.237,8.188
		c-0.465,2.324-1.629,4.051-3.36,5.35c-1.627,1.221-4.182,2.135-6.816,1.703c-1.287-0.209-2.271-0.631-3.219-1.135
		c-0.934-0.498-1.725-1.15-2.65-1.705c-1.799-1.08-3.664-2.08-5.49-3.219c-3.562-2.221-7.725-3.871-8.142-9.23
		c-0.11-1.412,0.028-2.828,0-4.26C-0.044,38.081,0.062,28.23,0.06,18.134c0-2.94,0.078-5.785-0.047-8.473
		C-0.122,6.771,0.808,4.755,2.19,3.128c1.345-1.58,3.353-2.785,5.774-3.076c2.047-0.244,4.189,0.406,5.49,1.23
		c3.488,2.211,6.855,4.285,10.319,6.486c0.683,0.432,1.422,0.826,2.082,1.277c2.913,1.99,4.07,4.744,4.071,9.371
		c0,2.223,0,4.471,0,6.721C29.927,27.292,29.824,29.476,30.07,31.575z M26.566,31.245c-1.428-0.908-2.854-1.828-4.26-2.699
		c-2.179-1.523-3.904-3.44-4.307-6.674c-0.25-2.01-0.201-4.541-0.096-6.863c0.072-1.568-0.03-3.658-0.047-5.254
		c-0.006-0.617,0.029-1.52-0.709-1.231c-2.072,0.811-3.945,2.932-4.64,5.301c-0.462,1.578-0.253,3.494-0.236,5.35
		c0.022,2.428-0.067,4.916-0.095,7.383c-0.01,0.922,0.095,1.846,0.095,2.793c0,4.906-0.089,9.678,0,14.484
		c0.085,4.582-0.003,9.418,0.048,14.152c0.006,0.576-0.144,1.264,0.236,1.752c0.873-0.002,1.541-0.639,2.13-1.137
		c1.858-1.57,3.066-3.729,3.267-6.863c0.268-4.207-0.611-9.912,0.615-13.252c0.895-2.439,2.69-4.27,5.064-5.207
		c1.214-0.48,2.603-0.623,4.165-0.994C27.675,31.683,27.001,31.521,26.566,31.245z M51.037,57.515
		c0.789-0.842,1.49-1.875,1.846-3.076c0.614-2.078,0.379-5.029,0.379-7.717c-0.001-9.385-0.046-18.207-0.047-27.547
		c-0.001-1.768-0.098-3.604-0.048-5.49c0.017-0.605,0-1.469,0-2.65c0-0.652,0.206-2.453-0.331-2.463
		c-0.543-0.008-1.643,0.902-2.035,1.232c-1.537,1.291-2.79,3.271-3.029,5.68c-0.239,2.404-0.001,5.25,0,8.047
		c0,2.795,0.178,5.654,0,8.141c-0.298,4.162-2.879,6.885-6.201,7.951c-1.082,0.348-2.289,0.34-3.645,0.615
		c0.07,0.609,0.7,0.656,1.042,0.994c2.948,1.984,6.286,3.334,7.904,6.627c1.094,2.227,0.946,5.459,0.946,8.709
		c0,0.998-0.158,2.066,0.284,2.887C49.272,59.247,50.244,58.361,51.037,57.515z"/>
</g>
<g id="Layer_1">
</g>
</svg>
