<?xml version="1.0" encoding="iso-8859-1"?>
<!-- Generator: Adobe Illustrator 19.2.0, SVG Export Plug-In . SVG Version: 6.00 Build 0)  -->
<svg version="1.1" xmlns="http://www.w3.org/2000/svg" xmlns:xlink="http://www.w3.org/1999/xlink" x="0px" y="0px"
	 viewBox="0 0 81.016 81.755" style="enable-background:new 0 0 81.016 81.755;" xml:space="preserve">
<g id="Home_x5F_Store">
	<path style="fill-rule:evenodd;clip-rule:evenodd;" d="M80.787,0.251c0.409,1.507,0.144,3.211,0.15,4.919
		c0.024,6.689,0,13.321,0,20.181c-0.001,16.912,0.001,34.174,0,51.306c0,1.666,0.116,3.334-0.15,4.97
		c-0.045,0.022-0.09,0.044-0.101,0.101c-13.282,0.083-26.816-0.051-40.361-0.05c-13.421,0-27.115,0.039-40.161-0.151
		c-0.022-0.045-0.044-0.09-0.1-0.1c-0.077-27.104-0.111-54.572,0.05-81.125C0.1,0.186,0.126,0.112,0.214,0.1
		C0.251,0.053,0.306,0.024,0.365,0C26.759,0.113,54.003,0.027,80.787,0.251z M25.114,2.761c-1.198,0.045-2.081,1.428-2.862,2.208
		c-5.55,5.551-11.592,11.898-16.616,17.37c-0.497,0.902-2.334,1.717-2.159,3.413c0.08,0.771,0.778,1.488,1.606,1.506
		c0.703,0.016,1.24-0.531,1.757-1.004c1.51-1.383,2.811-2.962,4.117-4.317c4.661-4.839,9.107-9.559,13.755-14.207
		c0.918-0.918,2.192-1.944,2.108-3.514C26.512,3.474,26.085,2.725,25.114,2.761z M3.277,4.116c-0.327,1.212,0.74,2.33,1.857,2.159
		c1.851-0.283,1.615-3.819-0.502-3.414C3.868,3.008,3.404,3.646,3.277,4.116z M16.68,4.317c-0.104-0.791-0.821-1.558-1.807-1.506
		c-1.317,0.069-2.525,1.94-3.313,2.761C10.689,6.478,9.741,7.41,8.648,8.534c-1.464,1.505-2.788,2.964-4.267,4.518
		c-0.508,0.533-0.999,1.27-0.954,2.008c0.053,0.875,0.908,1.646,1.657,1.657c0.978,0.014,1.964-1.257,2.56-1.908
		c2.3-2.505,4.338-4.42,6.627-6.878C14.984,7.07,16.901,5.99,16.68,4.317z M48.508,5.221c-0.595-0.675-1.246-1.647-1.958-2.059
		c-1.263-0.73-2.608-0.024-2.711,1.456c0.232,1.536,1.56,2.564,2.561,3.564c0.516,0.516,0.915,1.131,1.406,1.657
		c0.518,0.556,1.042,1.042,1.556,1.556c6.184,6.183,12.029,12.596,18.123,18.825c1.892,2.2,4.062,4.106,6.175,6.175
		c0.622,0.609,1.437,1.655,2.56,1.556c0.733-0.065,1.506-0.819,1.506-1.707c0-1.336-1.869-2.788-2.56-3.464
		c-3.089-3.024-6.043-6.163-8.835-9.237c-0.957-1.054-1.979-2.08-2.962-3.062c-3.012-3.012-6.004-6.208-8.936-9.137
		C52.72,9.475,50.314,7.269,48.508,5.221z M7.594,35.994c2.051-2.051,4.12-4.033,6.025-6.175c2.511-2.825,5.262-5.51,7.932-8.333
		c4.603-4.869,9.272-9.673,14.006-14.408c0.639-0.639,1.564-1.525,1.506-2.56c-0.05-0.89-0.808-1.78-1.958-1.657
		c-0.913,0.098-1.783,1.122-2.41,1.857c-0.657,0.772-1.405,1.423-2.008,2.058c-4.064,4.282-7.86,7.987-11.948,12.299
		c-3.272,3.452-6.698,6.821-9.84,10.342c-1.331,1.492-2.5,2.773-3.915,4.217c-0.653,0.666-1.579,1.537-1.456,2.61
		c0.099,0.864,0.767,1.346,1.656,1.456c0.034,0,0.067,0,0.101,0C6.269,37.498,6.941,36.648,7.594,35.994z M73.156,25.552
		c0.658,0.708,1.737,2.157,2.862,2.108c0.826-0.036,1.573-0.892,1.656-1.606c0.174-1.497-1.386-2.593-2.209-3.464
		c-2.794-2.955-5.596-5.947-8.333-8.684c-2.91-2.909-5.565-5.629-8.383-8.635c-0.811-0.865-1.91-2.28-3.263-2.41
		c-0.918-0.087-1.647,1.138-1.657,1.807c-0.022,1.559,1.756,2.442,2.309,3.313C61.798,13.903,67.506,19.471,73.156,25.552z
		 M65.225,6.928c0.503,0.579,1.081,1.048,1.506,1.506c2.022,2.177,3.771,3.972,5.923,6.125c0.721,0.721,2.144,2.606,3.464,2.56
		c0.816-0.028,1.626-0.858,1.656-1.757c0.025-0.722-0.524-1.473-1.004-2.008c-2.392-2.665-5.178-5.142-7.53-7.731
		c-0.774-0.853-2.051-2.541-3.414-2.711C64.935,2.8,64.383,3.703,64.07,4.317C63.976,5.597,64.574,6.179,65.225,6.928z
		 M77.775,5.121c0.194-1.078-0.68-2.255-1.807-2.159c-0.704,0.06-1.57,0.772-1.606,1.707c-0.045,1.145,0.774,1.902,2.058,1.857
		C77.034,6.207,77.653,5.798,77.775,5.121z M37.213,10.542c-2.364,2.363-4.68,4.733-6.827,7.078
		c-1.475,1.61-3.103,3.066-4.568,4.668c-2.259,2.471-4.549,4.731-6.777,7.129c-0.741,0.798-1.429,1.689-2.208,2.41
		c-3.237,2.987-6.157,6.257-9.237,9.337c-0.757,0.757-1.45,1.62-2.208,2.41c-0.762,0.793-1.776,1.568-1.857,2.811
		c0.115,0.975,0.665,1.735,1.606,1.757c0.964,0.022,1.857-1.204,2.51-1.858c3.759-3.759,7.183-7.488,10.944-11.044
		c2.265-2.141,4.395-4.496,6.476-6.727c4.255-4.562,8.589-9.142,12.952-13.504c0.729-0.729,1.366-1.715,2.46-1.958
		c1.085,0.247,1.741,1.239,2.46,1.958c2.238,2.238,4.348,4.521,6.476,6.828c2.834,3.07,5.822,5.995,8.584,9.137
		c3.009,2.899,5.943,5.871,8.886,8.836c2.156,2.143,4.347,4.404,6.577,6.676c0.641,0.653,1.632,1.789,2.71,1.757
		c0.805-0.023,1.581-0.912,1.606-1.657c0.04-1.152-1.238-2.242-1.857-2.861c-2.448-2.448-4.748-4.849-7.078-7.179
		c-1.625-1.625-3.262-3.13-4.769-4.719c-1.502-1.582-2.982-3.17-4.619-4.87c-1.542-1.601-3.165-3.163-4.669-4.819
		c-1.502-1.655-3.136-3.176-4.668-4.819c-2.213-2.372-4.554-4.955-6.928-7.33c-0.698-0.698-1.883-2.084-3.012-1.807
		C38.962,8.492,38.127,9.628,37.213,10.542z M43.638,20.934c-0.797-0.797-1.521-1.839-2.46-2.209
		c-1.606-0.635-2.893,1.072-3.765,1.958c-0.811,0.824-1.558,1.683-2.259,2.41c-1.501,1.611-3.099,3.126-4.568,4.769
		c-2.195,2.49-4.596,4.754-6.877,7.129c-6.296,6.553-12.774,12.864-18.926,19.628c-0.596,0.655-1.282,1.476-1.255,2.259
		c0.027,0.785,0.783,1.673,1.707,1.657c0.878-0.016,1.864-1.212,2.51-1.858c2.251-2.25,4.398-4.548,6.526-6.676
		c3.016-3.016,5.68-5.881,8.685-8.886c2.856-2.857,5.661-5.979,8.735-8.835c2.222-2.064,4.228-4.529,6.426-6.727
		c0.65-0.65,1.637-1.953,2.51-1.908c0.756,0.039,1.776,1.324,2.41,1.958c0.789,0.789,1.5,1.6,2.159,2.259
		c1.472,1.472,2.757,3.175,4.217,4.568c1.53,1.459,2.967,2.964,4.368,4.418c2.884,2.994,5.926,5.842,8.735,8.885
		c1.393,1.51,2.9,2.95,4.368,4.418c2.131,2.131,4.38,4.431,6.577,6.626c0.74,0.74,1.566,1.804,2.661,1.757
		c0.92-0.04,1.439-0.657,1.606-1.657c-0.101-1.455-1.176-1.937-1.807-2.861c-2.394-2.274-4.677-4.661-6.978-7.028
		c-7.606-7.956-15.682-15.442-22.992-23.694C45.333,22.562,44.494,21.789,43.638,20.934z M37.614,31.375
		c-0.855,0.856-1.733,1.553-2.359,2.31c-9.54,9.458-18.864,19.338-28.264,28.915c-0.639,0.651-1.193,1.39-1.907,2.159
		c-0.637,0.686-1.6,1.541-1.506,2.61c0.076,0.868,0.711,1.485,1.707,1.557c1.063-0.213,1.823-1.131,2.51-1.858
		c2.145-2.269,4.299-4.5,6.476-6.676c8.021-8.022,15.837-16.239,23.896-24.298c0.627-0.627,1.579-1.946,2.459-1.958
		c0.876-0.011,1.803,1.267,2.46,1.908c2.231,2.172,4.339,4.64,6.426,6.727c4.404,4.404,8.707,8.908,13.052,13.253
		c3.63,3.63,7.281,7.332,10.944,10.994c0.642,0.642,1.573,1.77,2.661,1.757c0.872-0.01,1.569-0.846,1.606-1.607
		c0.055-1.112-1.156-2.21-1.807-2.861c-2.377-2.377-4.725-4.746-7.028-6.978c-6.693-6.926-13.815-14.318-20.783-21.285
		c-1.121-1.121-2.231-2.356-3.464-3.564c-0.541-0.53-1.146-1.106-1.757-1.757c-0.76-0.81-1.506-1.815-2.761-1.557
		C39.091,29.415,38.385,30.605,37.614,31.375z M36.359,42.972c-3.537,3.537-6.954,7.155-10.392,10.592
		c-2.358,2.359-4.586,4.787-6.878,7.079c-2.356,2.356-4.654,4.735-6.928,7.078c-1.526,1.576-2.993,3.093-4.619,4.719
		c-0.719,0.72-1.454,1.689-2.209,2.46c-0.683,0.696-1.858,1.647-1.807,2.861c0.043,1.019,0.874,1.733,1.707,1.707
		c0.823-0.026,1.739-1.089,2.359-1.757c3.395-3.654,6.797-6.938,10.141-10.442c6.74-7.063,14.008-14.027,20.432-20.783
		c0.851-0.509,1.23-1.981,2.459-1.958c0.881,0.017,1.754,1.337,2.41,1.958c2.335,2.207,4.33,4.581,6.476,6.728
		c8.145,8.145,16.046,16.296,24.097,24.347c0.728,0.729,1.539,1.674,2.711,1.707c0.906-0.165,1.439-0.702,1.506-1.707
		c-0.153-1.197-1.081-2.034-1.857-2.811c-7.044-7.044-13.969-14.173-20.984-21.235c-3.916-3.942-7.586-7.937-11.546-11.897
		c-0.867-0.867-1.914-2.219-3.263-1.958C38.823,40.054,37.438,41.894,36.359,42.972z"/>
</g>
<g id="Layer_1">
</g>
</svg>
