<?xml version="1.0" encoding="iso-8859-1"?>
<!-- Generator: Adobe Illustrator 19.2.0, SVG Export Plug-In . SVG Version: 6.00 Build 0)  -->
<svg version="1.1" xmlns="http://www.w3.org/2000/svg" xmlns:xlink="http://www.w3.org/1999/xlink" x="0px" y="0px"
	 viewBox="0 0 73.831 75.173" style="enable-background:new 0 0 73.831 75.173;" xml:space="preserve">
<g id="Honeywell_x5F_Europe">
	<path style="fill-rule:evenodd;clip-rule:evenodd;" d="M46.161,0.116c0.259,0.715,0.146,1.509,0.146,2.28c0,4.739,0,9.569,0,14.463
		c0,0.754,0.113,1.571-0.146,2.281c-1.424,0.263-3.043,0.146-4.708,0.146c-3.158,0.001-6.47,0.033-9.658,0
		c-1.556-0.016-3.076,0.096-4.465-0.146c-0.263-1.444-0.146-3.071-0.146-4.756c0-4.033,0.049-8.059,0.049-12.133
		c0-0.741-0.171-1.581,0.242-2.185C33.426,0.019,40.225-0.078,46.161,0.116z"/>
	<path style="fill-rule:evenodd;clip-rule:evenodd;" d="M26.213,0.844c0.032,0,0.065,0,0.097,0c0.262,0.695,0.146,1.483,0.146,2.232
		c0,3.843,0,7.918,0,11.842c0,1.565,0.117,3.123-0.146,4.563c-0.51-0.059-0.967-0.342-1.407-0.582
		c-1.232-0.673-2.494-1.465-3.736-2.185c-1.677-0.97-3.392-1.835-4.951-2.96c-0.352-0.23-1.585-0.481-1.649-1.068
		c-0.045-0.406,0.892-1.245,1.262-1.649c2.3-2.512,5.007-4.876,7.28-7.28c0.429-0.454,0.904-1.018,1.407-1.504
		C25.046,1.737,25.81,0.962,26.213,0.844z"/>
	<path style="fill-rule:evenodd;clip-rule:evenodd;" d="M47.325,19.432c-0.337-1.026-0.194-2.219-0.193-3.397
		c0-2.231,0.048-4.546,0.048-6.988c0-1.171-0.117-2.34,0.146-3.397c1.228,0.025,2.944,0.636,4.174,0.971
		c3.487,0.951,7.261,1.847,10.872,2.912c0.323,0.096,0.753,0.249,0.776,0.437c0.044,0.367-1.426,1.109-1.845,1.359
		c-3.289,1.963-6.679,3.848-9.949,5.823c-0.64,0.388-1.238,0.861-1.893,1.263C48.81,18.811,48.117,19.261,47.325,19.432z"/>
	<path style="fill-rule:evenodd;clip-rule:evenodd;" d="M64.118,10.599c0.742-0.097,1.129,1.211,1.456,1.796
		c1.878,3.369,3.943,6.724,5.92,10.095c0.369,0.629,0.768,1.352,1.165,2.038c0.3,0.517,1.137,1.509,1.068,2.087
		c-0.062,0.525-1.389,1.065-1.893,1.359c-4.142,2.421-7.916,4.761-12.134,7.231c-0.528,0.31-1.587,1.13-2.136,1.067
		c-0.365-0.042-0.742-0.851-1.019-1.311c-1.557-2.587-2.807-4.872-4.271-7.376c-0.597-1.022-1.322-2.03-1.747-2.912
		c-0.089-0.186-0.122-0.52-0.242-0.777c-0.229-0.491-0.752-1.273-1.067-1.844c-0.238-0.43-1.044-1.37-0.971-1.941
		c0.065-0.515,1.343-1.039,1.844-1.359c3.328-2.118,6.624-3.845,9.949-5.823c0.655-0.39,1.306-0.787,1.99-1.165
		c0.652-0.36,1.271-0.886,1.989-1.165C64.046,10.589,64.089,10.603,64.118,10.599z"/>
	<path style="fill-rule:evenodd;clip-rule:evenodd;" d="M9.373,10.842c0.638,0.194,1.518,0.767,2.136,1.116
		c3.328,1.883,6.624,3.831,10.046,5.824c0.537,0.312,1.198,0.688,1.99,1.164c0.581,0.351,1.74,0.909,1.796,1.359
		c0.067,0.548-0.78,1.608-1.068,2.136c-2.324,4.261-4.502,8.023-6.94,12.278c-0.288,0.503-0.787,1.763-1.31,1.844
		c-0.761,0.118-1.505-0.932-2.136-1.067c-3.464-2.051-6.922-4.025-10.531-6.115c-0.457-0.264-1.112-0.635-1.747-1.018
		c-0.496-0.301-1.538-0.772-1.602-1.165c-0.088-0.541,0.746-1.568,1.067-2.136c2.304-4.066,4.645-8.047,6.94-12.133
		c0.406-0.725,0.741-1.538,1.213-1.99C9.263,10.894,9.315,10.865,9.373,10.842z"/>
	<path style="fill-rule:evenodd;clip-rule:evenodd;" d="M45.53,19.917c-0.354,0.827-1.085,1.425-1.699,2.038
		c-3.063,3.066-6.057,6.382-9.27,9.367c-0.965,0.897-1.78,1.909-2.767,2.815c-0.285,0.262-0.566,0.698-1.019,0.728
		c-0.529-0.413-0.518-1.153-0.68-1.747c-0.82-3.025-1.701-6.24-2.572-9.367c-0.348-1.248-0.783-2.503-0.874-3.785
		c0.552-0.345,1.287-0.242,1.941-0.242c4.8,0,9.635,0.047,14.463,0.048C43.902,19.772,44.776,19.548,45.53,19.917z"/>
	<path style="fill-rule:evenodd;clip-rule:evenodd;" d="M46.986,20.015c0.405-0.043,0.714,0.676,0.971,1.116
		c0.291,0.501,0.521,0.952,0.728,1.311c1.213,2.098,2.05,3.844,3.252,5.921c1.011,1.746,2.027,3.452,3.009,5.241
		c0.492,0.897,1.221,1.708,1.407,2.718c-0.875,0.134-1.747-0.198-2.572-0.436c-4.93-1.426-10.096-2.833-15.142-4.077
		c-0.795-0.195-1.684-0.361-2.33-0.874c0.169-0.666,0.736-1.076,1.165-1.504c0.444-0.444,0.945-0.837,1.311-1.359
		c2.716-2.622,5.291-5.385,8.056-7.959C46.876,20.067,46.928,20.037,46.986,20.015z"/>
	<path style="fill-rule:evenodd;clip-rule:evenodd;" d="M25.777,21.277c0.547-0.025,0.856,1.617,1.02,2.281
		c1.273,5.17,2.754,10.182,4.076,15.336c0.212,0.825,0.652,1.701,0.436,2.572c-1.295-0.011-2.522-0.523-3.785-0.825
		c-3.083-0.736-6.232-1.55-9.318-2.427c-0.558-0.158-1.24-0.219-1.65-0.68c0.476-1.479,1.443-2.751,2.185-4.125
		c1.797-3.333,3.82-6.676,5.727-9.998C24.88,22.693,25.241,21.84,25.777,21.277z"/>
	<path style="fill-rule:evenodd;clip-rule:evenodd;" d="M0.152,28.41c1.281,0.458,2.976,1.549,4.125,2.232
		c1.398,0.831,2.748,1.473,4.028,2.232c1.873,1.229,3.795,2.334,5.872,3.543c0.423,0.246,1.794,0.827,1.796,1.311
		c0.001,0.406-0.891,0.75-1.311,1.019c-2.326,1.491-4.803,2.909-7.183,4.319c-0.949,0.562-1.89,1.21-3.009,1.553
		c-0.478-0.481-0.554-1.217-0.729-1.845c-1.086-3.898-2.173-8.025-3.3-12.084c-0.201-0.725-0.425-1.529-0.436-2.136
		C0.033,28.487,0.082,28.438,0.152,28.41z"/>
	<path style="fill-rule:evenodd;clip-rule:evenodd;" d="M73.727,46.756c-0.793-0.151-1.457-0.667-2.136-1.068
		c-3.952-2.33-8.071-4.581-12.085-6.891c-0.644-0.371-1.358-0.729-1.893-1.263c0.264-0.504,0.854-0.737,1.311-1.02
		c2.325-1.433,4.867-2.835,7.28-4.271c0.932-0.554,1.895-1.294,2.912-1.698c0.683-0.271,0.832,1.06,1.018,1.747
		c1.12,4.117,2.219,8.23,3.3,12.376C73.607,45.325,73.908,46.064,73.727,46.756z"/>
	<path style="fill-rule:evenodd;clip-rule:evenodd;" d="M57.226,37.632c-1.031,2.059-2.276,4.045-3.446,6.066
		c-0.577,0.997-1.112,2.051-1.698,3.058c-0.583,1.001-1.277,1.995-1.747,3.009c-0.113,0.243-0.128,0.534-0.243,0.776
		c-0.29,0.612-0.714,1.207-1.067,1.796c-0.345,0.575-0.623,1.284-1.214,1.65c-0.524-0.691-0.604-1.601-0.824-2.427
		c-1.33-4.994-2.758-10.162-4.077-15.337c-0.211-0.825-0.595-1.658-0.485-2.523c0.101-0.021,0.121-0.112,0.242-0.097
		c1.159,0.142,2.418,0.599,3.688,0.971c2.427,0.709,4.923,1.293,7.329,1.989C54.909,36.919,56.182,37.028,57.226,37.632z"/>
	<path style="fill-rule:evenodd;clip-rule:evenodd;" d="M17.624,38.748c5.858,1.409,11.646,3.098,17.52,4.562
		c0.775,0.193,1.618,0.372,2.281,0.825c-0.137,0.664-0.695,1.157-1.116,1.602c-1.311,1.386-2.679,2.65-4.076,4.077
		c-1.324,1.351-2.726,2.636-4.077,4.076c-0.365,0.39-0.946,1.337-1.358,1.311c-0.414-0.026-1.085-1.577-1.31-1.941
		c-1.242-2.006-2.362-4.076-3.543-6.115c-1.21-2.089-2.335-4.069-3.543-6.163c-0.377-0.652-0.944-1.322-0.971-2.136
		C17.501,38.82,17.551,38.774,17.624,38.748z"/>
	<path style="fill-rule:evenodd;clip-rule:evenodd;" d="M56.255,59.956c-1.392-0.726-2.606-1.49-4.077-2.28
		c-0.595-0.32-1.297-0.679-1.989-1.165c-0.449-0.315-1.707-0.893-1.796-1.359c-0.103-0.534,0.512-1.327,0.776-1.796
		c0.358-0.636,0.717-1.169,0.922-1.602c0.631-1.323,1.235-2.571,2.038-3.882c1.15-1.879,2.257-4.067,3.446-6.066
		c0.612-1.029,1.289-2.309,1.844-2.961c0.658-0.244,1.724,0.62,2.33,0.971c3.443,1.993,6.682,3.669,10.191,5.824
		c0.523,0.321,1.264,0.8,1.99,1.213c0.478,0.272,1.818,0.839,1.893,1.311c0.094,0.594-0.768,1.616-1.067,2.136
		c-2.568,4.442-4.941,8.752-7.571,13.249c-0.191,0.327-0.397,0.826-0.728,0.874c-0.519,0.073-1.748-0.786-2.185-1.019
		C60.179,62.281,58.289,61.101,56.255,59.956z"/>
	<path style="fill-rule:evenodd;clip-rule:evenodd;" d="M15.828,38.894c0.834-0.116,1.172,1.11,1.553,1.747
		c2.443,4.083,4.745,8.11,7.086,12.229c0.315,0.556,1.12,1.594,1.067,2.136c-0.051,0.523-1.339,1.059-1.844,1.359
		c-3.326,1.978-6.706,3.874-10.047,5.872c-0.664,0.398-1.356,0.787-2.038,1.165c-0.66,0.366-1.326,0.751-2.038,1.019
		c-0.701-0.4-0.941-1.239-1.311-1.893c-1.866-3.309-4.01-6.574-5.872-9.998c-0.331-0.608-0.669-1.309-1.116-2.039
		c-0.326-0.532-1.13-1.498-1.067-2.086c0.051-0.494,1.261-1.052,1.795-1.359c1.989-1.146,3.892-2.404,5.873-3.494
		C10.725,41.981,13.082,40.229,15.828,38.894z"/>
	<path style="fill-rule:evenodd;clip-rule:evenodd;" d="M42.909,40.058c0.041-0.009,0.046,0.02,0.049,0.049
		c0.467,0.436,0.558,1.16,0.728,1.747c0.912,3.149,1.687,6.347,2.572,9.561c0.173,0.628,0.334,1.301,0.485,1.94
		c0.155,0.656,0.389,1.318,0.34,1.99c-0.687,0.259-1.466,0.152-2.232,0.146c-4.767-0.041-10.079,0.162-14.754,0
		c-0.714-0.025-1.468,0.081-2.087-0.194c-0.008-0.472,0.45-0.789,0.728-1.067c4.628-4.627,9.364-9.42,13.978-14.123
		C42.816,40.127,42.843,40.073,42.909,40.058z"/>
	<path style="fill-rule:evenodd;clip-rule:evenodd;" d="M26.457,55.54c0.419,0.369,0.242,1.065,0.242,1.602
		c0,2.942-0.08,6.052,0,8.93c0.033,1.181,0.091,2.39-0.146,3.446c-1.445-0.118-2.802-0.566-4.174-0.922
		c-3.336-0.866-6.74-1.724-10.144-2.719c-0.415-0.121-1.783-0.395-1.844-0.727c-0.081-0.442,1.492-1.155,1.844-1.359
		c4.65-2.69,9.638-5.601,14.172-8.25C26.423,55.54,26.44,55.54,26.457,55.54z"/>
	<path style="fill-rule:evenodd;clip-rule:evenodd;" d="M47.617,55.782c3.426,1.814,6.721,3.852,10.24,5.775
		c0.46,0.252,1.244,0.733,1.262,1.02c0.024,0.384-0.771,0.965-1.116,1.311c-1.249,1.249-2.371,2.42-3.592,3.64
		c-1.201,1.201-2.303,2.497-3.543,3.688c-0.763,0.733-1.379,1.476-2.135,2.232c-0.325,0.325-0.636,0.74-1.116,0.874
		c-0.408-1.355-0.243-2.912-0.243-4.465c0-3.816,0-7.689,0-11.696c0-0.771-0.068-1.87,0.097-2.281
		C47.506,55.834,47.559,55.806,47.617,55.782z"/>
	<path style="fill-rule:evenodd;clip-rule:evenodd;" d="M46.548,75.001c-0.711,0.263-1.515,0.147-2.28,0.147
		c-4.688,0-9.604,0-14.366,0c-0.747,0-1.534,0.106-2.232-0.147c-0.278-5.283-0.097-11.047-0.097-16.549
		c-0.001-0.733-0.149-1.498,0.097-2.184c5.429-0.263,10.991-0.146,16.647-0.146c0.669,0,1.824-0.125,2.136,0.146
		c0.308,0.268,0.242,1.481,0.242,2.184c0.001,4.787,0,9.536,0,14.316C46.694,73.528,46.803,74.3,46.548,75.001z"/>
</g>
<g id="Layer_1">
</g>
</svg>
