<?xml version="1.0" encoding="iso-8859-1"?>
<!-- Generator: Adobe Illustrator 19.2.0, SVG Export Plug-In . SVG Version: 6.00 Build 0)  -->
<svg version="1.1" xmlns="http://www.w3.org/2000/svg" xmlns:xlink="http://www.w3.org/1999/xlink" x="0px" y="0px"
	 viewBox="0 0 73.204 78.944" style="enable-background:new 0 0 73.204 78.944;" xml:space="preserve">
<g id="Hong_x5F_Kong_x5F_Land">
	<path style="fill-rule:evenodd;clip-rule:evenodd;" d="M60.002,0.115c0.236,2.484,0.191,5.078,0.191,7.646
		c0,7.771,0.137,15.633-0.048,23.227c-3.557,0.186-7.304,0.143-11.135,0.144c-3.805,0-7.683,0.087-11.279-0.096
		c-0.155-1.538-0.161-3.72,0-5.257c1.659-0.224,3.639-0.096,5.544-0.096c1.93-0.001,3.841,0.021,5.496-0.143
		c0.239-0.996,0.164-2.06,0.143-3.107c-0.143-7.257-0.123-15.072,0-22.27C52.411,0.008,56.566,0.013,60.002,0.115z"/>
	<path style="fill-rule:evenodd;clip-rule:evenodd;" d="M72.81,0.115c0.36,10.934-0.034,22.296,0.191,33.644
		c0.031,1.569,0.193,3.154-0.095,4.684c-5.778,0.106-11.743,0.145-17.683,0.144c-5.827-0.001-11.881,0.104-17.444-0.096
		c-0.097-1.674-0.277-3.967,0-5.544c2.038-0.087,4.068-0.048,6.117-0.047c5.819,0,12.025,0.021,18.018-0.191
		c0.244-1.297,0.096-2.653,0.096-4.015c0-9.018-0.048-17.701-0.048-26.812c0-0.601-0.16-1.267,0.143-1.815
		C65.546,0.019,69.447-0.077,72.81,0.115z"/>
	<path style="fill-rule:evenodd;clip-rule:evenodd;" d="M23.919,0.162c0.259,2.034,0.143,4.172,0.143,6.309
		c0,6.196,0.026,12.813,0.143,19.021c0.832,0.285,1.803,0.189,2.772,0.144c1.907-0.091,3.959,0,5.926,0
		c0.974,0,1.965-0.108,2.819,0.144c0.146,1.598,0.183,3.764,0,5.257c-7.532,0.132-15.222,0.198-22.557,0.096
		c-0.321-2.432-0.035-4.917-0.096-7.456c-0.181-7.538-0.094-15.765,0-23.418C16.476,0.031,20.581,0.076,23.919,0.162z"/>
	<path style="fill-rule:evenodd;clip-rule:evenodd;" d="M11.063,0.257c0.387,10.803-0.041,22.016,0.335,32.595
		c7.938,0.292,16.607-0.193,24.326,0.095c0.253,0.757,0.144,1.772,0.144,2.772c0,0.966,0.074,1.982-0.096,2.771
		c-11.637,0.135-23.714,0.299-35.461,0.144c-0.251-3.156-0.143-6.379-0.143-9.606c0-7.845-0.096-15.87-0.096-24.135
		c0-0.784,0.015-1.571,0-2.342C0.057,1.807-0.13,1.021,0.167,0.305C3.593,0.147,7.604,0.065,11.063,0.257z"/>
	<path style="fill-rule:evenodd;clip-rule:evenodd;" d="M72.905,40.403c0.253,0.752,0.143,1.558,0.143,2.342
		c0,8.684,0.096,17.791,0.096,26.523c0,2.396,0,4.776,0,7.121c0,0.761,0.185,1.532-0.096,2.246c-3.347,0.159-7.358,0.16-10.705,0
		c-0.257-1.316-0.144-2.705-0.144-4.061c0-3.988-0.048-8.207-0.048-12.378c0-5.541,0.022-11.121-0.191-16.345
		c-0.929-0.302-1.938-0.104-2.916-0.096c-5.881,0.051-12.271,0.048-18.352,0.048c-0.971,0-1.991,0.112-2.916-0.144
		c-0.157-1.507-0.159-3.655,0-5.161c0.794-0.285,1.664-0.108,2.485-0.096c4.315,0.066,8.7-0.049,13.143-0.048
		C59.851,40.356,66.49,40.185,72.905,40.403z"/>
	<path style="fill-rule:evenodd;clip-rule:evenodd;" d="M35.771,40.45c0.178,1.61,0.196,3.577,0.048,5.209
		c-0.948,0.297-1.959,0.095-2.963,0.096c-7.095,0.001-14.565,0.057-21.363,0.191c-0.252,0.611-0.143,1.298-0.143,1.959
		c0,9.619,0.174,20.933,0.048,30.873c-1.689,0.145-3.614,0.144-5.496,0.144c-1.898,0-3.821,0.089-5.448-0.096
		C0.22,66.299,0.207,53.274,0.31,40.593C11.98,40.411,23.891,40.258,35.771,40.45z"/>
	<path style="fill-rule:evenodd;clip-rule:evenodd;" d="M60.24,47.619c0.167,10.229,0.262,20.846,0.096,31.016
		c-1.599,0.221-3.566,0.144-5.496,0.144c-1.933,0.001-3.917,0.078-5.639-0.096c-0.341-8.37,0.022-17.092-0.287-25.473
		c-0.778-0.216-1.694-0.203-2.628-0.191c-1.816,0.023-3.797,0.049-5.735,0.048c-0.933,0-1.902,0.107-2.724-0.143
		c-0.159-1.551-0.159-3.755,0-5.305c6.822-0.219,14.056,0.116,20.837-0.096C59.186,47.507,59.743,47.385,60.24,47.619z"/>
	<path style="fill-rule:evenodd;clip-rule:evenodd;" d="M35.819,47.666c0.148,1.571,0.159,3.74,0.048,5.258
		c-3.814,0.239-7.786-0.003-11.47,0.191c-0.257,1.017-0.143,2.093-0.143,3.154c0,1.068,0.042,2.16,0.048,3.25
		c0.028,5.238-0.029,10.847,0,16.153c0.005,1.033,0.202,2.077-0.096,3.059c-3.512,0.139-7.297,0.242-10.849,0.048
		c-0.244-9.96-0.199-20.813-0.144-31.017c1.03-0.26,2.121-0.144,3.202-0.143c3.103,0,6.519,0.104,9.797-0.048
		c1.412-0.065,3.353-0.048,4.97-0.048C32.798,47.524,34.354,47.408,35.819,47.666z"/>
</g>
<g id="Layer_1">
</g>
</svg>
