<?xml version="1.0" encoding="iso-8859-1"?>
<!-- Generator: Adobe Illustrator 19.2.0, SVG Export Plug-In . SVG Version: 6.00 Build 0)  -->
<svg version="1.1" xmlns="http://www.w3.org/2000/svg" xmlns:xlink="http://www.w3.org/1999/xlink" x="0px" y="0px"
	 viewBox="0 0 72.333 71.493" style="enable-background:new 0 0 72.333 71.493;" xml:space="preserve">
<g id="Hotel_x5F_International_x5F_Kosice">
	<path style="fill-rule:evenodd;clip-rule:evenodd;" d="M44.141,18.292c-1.646,1.727-4.058,3.395-7.28,3.615
		c-3.663,0.25-6.352-1.051-8.34-2.699c-1.441-1.369-2.646-2.963-3.278-5.016c-0.697-2.26-0.548-4.951,0.241-7.135
		c1.295-3.578,5.049-6.795,9.642-7.039c5.104-0.269,8.809,2.492,10.558,5.834c0.963,1.84,1.495,4.354,1.061,6.846
		C46.344,14.999,45.422,16.811,44.141,18.292z"/>
	<path style="fill-rule:evenodd;clip-rule:evenodd;" d="M72.007,0.887c0.021,0.043,0.042,0.086,0.097,0.096
		c0.173,10.082,0.145,20.394,0.145,30.904c0,10.121,0.048,21.006,0.048,30.951c0,2.854,0.127,5.652-0.097,8.389
		c-6.943,0.123-14.455,0.229-21.406,0.049c-0.2-2.74-0.145-5.605-0.145-8.486c0-20.781-0.154-41.488,0-61.807
		C57.806,0.803,64.904,0.815,72.007,0.887z"/>
	<path style="fill-rule:evenodd;clip-rule:evenodd;" d="M21.337,1.032c0.219,11.514,0.193,23.428,0.193,35.145
		c0,11.771,0.148,23.473-0.048,35.146c-5.933,0.207-12.267,0.145-18.754,0.145c-0.862,0-1.749,0.115-2.555-0.145
		c-0.204-22.797-0.19-46.773-0.144-70.195C0.45,0.928,1.208,0.94,1.716,0.934C7.952,0.874,14.972,0.952,21.337,1.032z"/>
	<path style="fill-rule:evenodd;clip-rule:evenodd;" d="M46.841,22.823c0.177,8.012,0.145,16.117,0.145,24.299
		c0,2.053-0.064,4.117,0,6.17c0.163,5.205,0.048,9.91,0.048,15.09c0,0.959,0.108,1.957-0.145,2.895
		c-6.999,0.168-14.672,0.145-21.405,0.047c-0.224-7.81-0.144-15.891-0.145-24.105c0-8.25-0.149-16.178,0.048-24.346
		c6.439-0.354,13.706-0.021,20.297-0.145C46.007,22.721,46.492,22.635,46.841,22.823z"/>
</g>
<g id="Layer_1">
</g>
</svg>
