<?xml version="1.0" encoding="iso-8859-1"?>
<!-- Generator: Adobe Illustrator 19.2.0, SVG Export Plug-In . SVG Version: 6.00 Build 0)  -->
<svg version="1.1" xmlns="http://www.w3.org/2000/svg" xmlns:xlink="http://www.w3.org/1999/xlink" x="0px" y="0px"
	 viewBox="0 0 86.149 36.251" style="enable-background:new 0 0 86.149 36.251;" xml:space="preserve">
<g id="Hotel_x5F_and_x5F_Public_x5F_Building_x5F_Equipment_x5F_Group">
	<path style="fill-rule:evenodd;clip-rule:evenodd;" d="M86.061,0.168c0.059,1.391,0.189,2.769-0.05,4.006
		c-19.915,0.221-39.675,0.05-59.643,0.05c-1.341,0-2.799-0.17-3.906,0.05c-0.882,0.175-1.892,0.811-2.804,1.202
		c-4.721,2.025-9.28,4.075-13.922,6.109c-0.929,0.408-1.893,0.785-2.804,1.202c-0.914,0.419-1.818,0.905-2.804,1.052
		c-0.19-0.771-0.105-2.054-0.05-2.905c7.431-3.72,14.959-7.342,22.535-10.917c19.921-0.039,39.662,0.001,59.943,0
		C83.727,0.017,84.918-0.069,86.061,0.168z"/>
	<path style="fill-rule:evenodd;clip-rule:evenodd;" d="M86.061,8.33c0.053,1.225,0.146,2.914-0.05,4.057
		c-2.58,0.197-5.186,0.1-7.812,0.1c-10.581,0-21.347,0-32.05,0c-6.52,0-13.225,0-19.731,0c-1.358,0-2.759-0.139-4.006,0
		c-0.858,0.095-1.888,0.562-2.805,0.851c-6.416,2.022-12.939,4.333-19.43,6.16c-0.274-0.663-0.146-1.988-0.1-2.804
		c0.265-0.417,0.83-0.548,1.252-0.701c6.167-2.243,12.272-4.426,18.529-6.761C20.775,8.89,21.791,8.3,22.662,8.18
		c1.548-0.213,3.516,0.124,4.958-0.05c1.084-0.13,2.324,0,3.505,0c13.557,0.001,26.746,0.051,40.413,0.05
		C76.455,8.18,81.298,8.075,86.061,8.33z"/>
	<path style="fill-rule:evenodd;clip-rule:evenodd;" d="M86.01,16.242c0.167,1.127,0.164,2.93,0,4.057
		c-17.857,0.168-37.184,0.049-55.386,0.05c-2.658,0-5.393-0.202-8.012,0c-0.923,0.071-1.881,0.385-2.854,0.601
		c-4.657,1.035-9.379,2.029-14.022,3.105c-1.877,0.435-3.727,0.928-5.608,1.102c-0.169-0.793-0.151-2.158,0-2.955
		c6.544-2.004,12.992-3.47,19.73-5.358c0.942-0.264,1.876-0.652,2.805-0.751c2.996-0.32,6.023,0.287,9.214,0
		c0.077-0.007,0.089-0.048,0.15-0.05c4.368-0.12,8.943,0.05,13.521,0.05c2.291,0,4.606-0.055,6.911,0.05
		c2.285,0.104,4.567-0.106,6.81,0c2.257,0.108,4.558-0.05,6.811-0.05C72.786,16.092,79.519,16.064,86.01,16.242z"/>
	<path style="fill-rule:evenodd;clip-rule:evenodd;" d="M86.01,24.205c0.167,1.113,0.163,2.892,0,4.006
		c-1.229,0.269-2.496,0.144-3.756,0.1c-4.061-0.14-7.856,0.05-11.768,0.05c-13.238,0-26.936-0.05-40.212-0.05
		c-2.687,0-5.412-0.147-8.062,0c-1.826,0.101-3.676,0.44-5.509,0.651c-1.825,0.21-3.641,0.47-5.458,0.651
		c-3.724,0.371-7.419,0.898-11.067,1.102c-0.259-0.72-0.191-2.207-0.05-3.004c5.502-1.027,11.049-1.823,16.676-2.754
		c1.819-0.301,3.691-0.75,5.559-0.901c1.391-0.113,2.837-0.049,4.106-0.05c14.389-0.011,29.58,0.051,44.669,0.05
		C76.139,24.055,81.11,23.934,86.01,24.205z"/>
	<path style="fill-rule:evenodd;clip-rule:evenodd;" d="M86.01,32.067c0.171,1.117,0.157,2.886,0,4.006
		c-0.835,0.272-1.729,0.15-2.604,0.15c-2.484,0-5.191,0-7.862,0c-21.586-0.002-42.649-0.051-64.701-0.05
		c-3.584,0-7.172,0.121-10.717-0.15c-0.146-0.686-0.209-2.096,0.05-2.704c5.454-0.459,10.9-0.688,16.526-1.052
		c4.194-0.272,8.308-0.351,12.82-0.351c10.102,0,20.411-0.071,30.548,0.05C68.728,32.07,77.418,31.759,86.01,32.067z"/>
</g>
<g id="Layer_1">
</g>
</svg>
