<?xml version="1.0" encoding="iso-8859-1"?>
<!-- Generator: Adobe Illustrator 19.2.0, SVG Export Plug-In . SVG Version: 6.00 Build 0)  -->
<svg version="1.1" xmlns="http://www.w3.org/2000/svg" xmlns:xlink="http://www.w3.org/1999/xlink" x="0px" y="0px"
	 viewBox="0 0 64.592 80.142" style="enable-background:new 0 0 64.592 80.142;" xml:space="preserve">
<g id="Hotel_x5F_Europa_x5F_76_x5F_BG">
	<path style="fill-rule:evenodd;clip-rule:evenodd;" d="M64.373,0.127c0.228,0.969,0.151,2.228,0.151,3.432
		c-0.001,1.202,0.116,2.437-0.151,3.381c-9.397,0.191-19.012,0.102-28.312,0.101C26.589,7.041,16.96,7.264,7.545,6.94
		c-0.174-1.002-0.101-3.601-0.101-5.35c0-0.874-0.169-1.456,0.454-1.564c0.464-0.081,1.171,0.051,1.766,0.051
		C27.399,0.078,46.885,0.026,64.373,0.127z"/>
	<path style="fill-rule:evenodd;clip-rule:evenodd;" d="M64.373,12.24c0.268,0.949,0.151,2.217,0.151,3.432
		c-0.001,1.199,0.118,2.449-0.151,3.381c-9.472,0.083-18.769,0.276-28.212,0.151c-9.27-0.122-19.197,0.211-28.616-0.151
		c-0.182-1.514-0.101-3.542-0.101-5.299c0-0.563-0.13-1.184,0.202-1.564C26.474,12.285,45.753,12.013,64.373,12.24z"/>
	<path style="fill-rule:evenodd;clip-rule:evenodd;" d="M64.424,24.453c0.166,2.026,0.168,4.737,0,6.763
		c-9.47,0.059-19.049,0.376-28.465,0.151c-3.541-0.085-7.133,0.148-10.648,0c-1.184-0.05-2.363,0.105-3.533,0.05
		c-4.738-0.224-9.52,0.185-14.233-0.202c-0.164-2.027-0.169-4.737,0-6.763c12.27-0.033,25.282-0.101,37.801-0.101
		C51.719,24.353,58.045,24.267,64.424,24.453z"/>
	<path style="fill-rule:evenodd;clip-rule:evenodd;" d="M64.424,36.616c0.166,2.04,0.168,4.773,0,6.813
		c-9.405,0.167-18.9,0.15-28.414,0.151c-9.469,0.001-19.038,0.123-28.414-0.151c-0.262-2.031-0.133-4.724-0.051-6.813
		c17.613-0.136,35.463-0.151,53.346-0.151C62.061,36.465,63.272,36.345,64.424,36.616z"/>
	<path style="fill-rule:evenodd;clip-rule:evenodd;" d="M64.424,48.779c0.121,2.104,0.256,4.812,0,6.813
		c-4.609,0.227-9.443,0.151-14.283,0.152c-14.013,0-28.847,0.008-42.949,0.101c-0.266,1.331-0.193,3.485-0.051,4.896
		c1.1,0.295,2.266,0.172,3.383,0.202c3.579,0.096,7.228-0.174,10.9,0c4.618,0.218,9.457,0,14.182,0
		c9.676,0,19.355-0.097,28.818,0.05c0.18,2.037,0.16,4.684,0,6.813c-17.953,0.207-35.735,0.152-53.851,0.152
		c-1.128-0.001-2.286-0.119-3.382,0.101c-0.176,1.327-0.19,3.377-0.051,4.845c1.139,0.309,2.314,0.104,3.483,0.151
		c3.496,0.14,7.197-0.048,10.852,0.05c4.73,0.128,9.515,0,14.282,0c8.475,0,16.834-0.051,25.285-0.05
		c1.13,0,2.316-0.124,3.432,0.151c0.096,1.179,0.057,2.365,0.051,3.533c-0.007,1.105,0.231,2.303-0.151,3.28
		c-10.602,0.175-21.436,0.102-32.25,0.101c-10.768,0-21.557,0.119-31.996-0.202c-0.185-9.552-0.103-19.643-0.102-29.423
		c0-0.587-0.117-1.255,0.151-1.817C21.086,48.831,43.344,48.587,64.424,48.779z"/>
</g>
<g id="Layer_1">
</g>
</svg>
