<?xml version="1.0" encoding="iso-8859-1"?>
<!-- Generator: Adobe Illustrator 19.2.0, SVG Export Plug-In . SVG Version: 6.00 Build 0)  -->
<svg version="1.1" xmlns="http://www.w3.org/2000/svg" xmlns:xlink="http://www.w3.org/1999/xlink" x="0px" y="0px"
	 viewBox="0 0 92.85 93.471" style="enable-background:new 0 0 92.85 93.471;" xml:space="preserve">
<g id="Housale">
	<path style="fill-rule:evenodd;clip-rule:evenodd;" d="M46.128,0.023c14.266-0.462,25.795,6.044,33.184,13.297
		c7.452,7.314,13.537,18.553,13.537,33.065c0.001,14.919-5.902,25.171-13.417,33.184c-7.33,7.817-18.896,13.724-32.705,13.896
		c-14.801,0.186-25.263-6.03-33.065-13.657C6.262,72.575-0.226,61.09,0.006,47.104c0.245-14.788,5.942-25.143,13.417-32.945
		C20.909,6.345,31.039,0.512,46.128,0.023z M51.879,68.069c1.081,1.443,7.48,0.719,10.303,0.719c1.931,0,3.424,0.032,5.511,0
		c1.698-0.026,4.141,0.183,4.792-0.479c1.241-1.262,0.458-6.841,0.479-8.506c0.073-5.738,0.12-12.332,0.12-18.569
		c0-2.834,0.636-7.695-0.12-9.225c-0.671-1.358-3.628-1.962-5.511-2.636c-3.467-1.24-6.49-3-10.422-4.912
		c-1.543-0.75-3.303-1.481-5.271-2.396c-1.714-0.796-4.339-2.724-5.99-2.037c-6.413,2.668-12.87,6.505-19.407,8.985
		c-2.098,0.796-5.33,1.469-6.109,2.995c-0.874,1.709-0.36,6.133-0.359,8.985c0,6.757,0.041,12.74,0,19.048
		c-0.013,1.921-0.858,7.258,0.599,8.386c1.426,1.104,7.155,0.36,10.063,0.359c2.702,0,8.77,0.752,10.183-0.359
		c1.179-0.927,0.249-3.771,0.719-5.63c3.315,0.079,6.947-0.159,10.063,0.12C51.742,64.787,51.075,66.997,51.879,68.069z"/>
	<path style="fill-rule:evenodd;clip-rule:evenodd;" d="M67.093,35.484c-0.01,9.187,0.053,19.566-0.119,27.194
		c-2.73,0.036-5.823,0.248-9.345,0c-0.294-4.384,0.109-9.698,0-13.896c-0.055-2.116,0.497-5.824-0.359-7.188
		c-0.671-1.068-3.956-1.24-5.031-0.359c-1.28,1.048-0.434,3.596-0.719,5.511c-3.01,0.04-6.695-0.026-10.063,0
		c-0.41-1.757,0.655-4.362-0.599-5.511c-0.808-0.74-4.363-0.637-5.032,0.24c-0.705,0.925-0.359,4.057-0.359,5.87
		c0.001,4.924-0.159,10.426-0.119,15.334c-2.755,0.121-6.434,0.246-9.465,0c-0.013-9.908,0.014-18.06,0.12-27.194
		c6.549-3.221,13.674-5.928,20.126-8.865c0.114-0.052,0.226-0.308,0.479-0.239c2.662,0.718,5.172,2.298,7.907,3.234
		C58.672,31.036,62.849,33.971,67.093,35.484z"/>
	<path style="fill-rule:evenodd;clip-rule:evenodd;" d="M51.4,51.896c0.275,1.681,0.043,3.871,0.12,5.75
		c-3.119,0.275-6.746,0.043-10.063,0.12c0.03-2.074-0.395-4.003,0.239-5.87C44.931,51.896,48.165,51.896,51.4,51.896z"/>
</g>
<g id="Layer_1">
</g>
</svg>
