<?xml version="1.0" encoding="iso-8859-1"?>
<!-- Generator: Adobe Illustrator 21.0.2, SVG Export Plug-In . SVG Version: 6.00 Build 0)  -->
<svg version="1.1" xmlns="http://www.w3.org/2000/svg" xmlns:xlink="http://www.w3.org/1999/xlink" x="0px" y="0px"
	 viewBox="0 0 27.92 45.048" style="enable-background:new 0 0 27.92 45.048;" xml:space="preserve">
<g id="Howe_x5F_Gaugeschaft">
	<path d="M19.638,0.848c2.463-0.283,4.926-0.577,7.392-0.837c0.473-0.09,0.874,0.376,0.812,0.831
		c-0.018,10.742,0.098,21.481,0.077,32.221c0.004,0.269-0.171,0.522-0.419,0.623c-2.445,1.067-4.911,2.084-7.351,3.163
		c-0.418,0.205-0.965-0.091-1.004-0.558c-0.06-4.237-0.01-8.476-0.045-12.713c-2.575,0.79-5.155,1.568-7.724,2.377
		c-0.018,4.693,0.029,9.385,0.038,14.077c0.018,0.289-0.115,0.605-0.389,0.729c-3.309,1.451-6.648,2.835-9.971,4.247
		c-0.471,0.176-0.976-0.266-0.922-0.751C0.109,30.772,0.02,17.287,0,3.8c-0.003-0.332,0.305-0.605,0.621-0.641
		c3.257-0.388,6.514-0.772,9.772-1.156c0.376-0.05,0.756,0.26,0.772,0.643c0.032,4.361,0.038,8.722,0.048,13.083
		c2.611-0.554,5.222-1.112,7.831-1.675c0.001-4.141-0.02-8.281-0.027-12.422C18.986,1.262,19.26,0.888,19.638,0.848z M20.435,2.191
		c-0.015,4.161,0.028,8.327,0.018,12.49c-0.022,0.303-0.243,0.578-0.545,0.642c-1.423,0.317-2.846,0.632-4.271,0.94
		c0.006,1.534-0.012,3.068,0.016,4.601c1.419,0.346,2.839,0.691,4.258,1.039c0.332,0.062,0.595,0.36,0.592,0.702
		c0.039,2.543-0.001,5.086,0.008,7.629c1.995,0.624,3.99,1.254,6.001,1.826c-0.01-10.176-0.089-20.352-0.099-30.529
		C24.416,1.708,22.427,1.968,20.435,2.191z M1.392,4.476c0.017,3.022-0.003,6.045,0.036,9.066c2.785,0.736,5.58,1.434,8.372,2.143
		C9.794,11.62,9.79,7.557,9.77,3.492C6.976,3.81,4.183,4.139,1.392,4.476z M1.441,20.383c1.943-0.498,3.903-0.917,5.846-1.408
		c0.2-0.048,0.409-0.115,0.614-0.053c2.131,0.55,4.276,1.038,6.411,1.568c-0.01-1.318,0.021-2.637-0.02-3.953
		c-1.189,0.246-2.374,0.508-3.563,0.756c-0.373,0.08-0.729-0.096-1.089-0.167c-2.732-0.713-5.475-1.388-8.205-2.108
		C1.425,16.805,1.44,18.594,1.441,20.383z M7.044,20.154c-1.858,0.481-3.718,0.953-5.57,1.459c-0.023,0.185-0.021,0.373,0.002,0.558
		c2.97,0.83,5.956,1.602,8.927,2.428c0.135,0.041,0.282,0.072,0.419,0.022c2.311-0.698,4.623-1.389,6.931-2.094
		c-3.269-0.855-6.555-1.652-9.831-2.481C7.627,19.933,7.334,20.101,7.044,20.154z M1.493,23.66
		c-0.003,4.104-0.017,8.209,0.017,12.314c2.817,1.08,5.66,2.093,8.489,3.139c0.003-4.385-0.048-8.772-0.038-13.156
		C7.14,25.186,4.315,24.426,1.493,23.66z M20.548,31.682c-0.033,1.157,0.002,2.313-0.023,3.47c1.594-0.65,3.167-1.349,4.76-2.002
		C23.707,32.659,22.135,32.142,20.548,31.682z M1.545,43.273c2.425-1.036,4.855-2.066,7.274-3.116
		c-2.417-0.946-4.866-1.811-7.284-2.755C1.526,39.358,1.524,41.316,1.545,43.273z"/>
</g>
<g id="Layer_1">
</g>
</svg>
