<?xml version="1.0" encoding="iso-8859-1"?>
<!-- Generator: Adobe Illustrator 21.0.2, SVG Export Plug-In . SVG Version: 6.00 Build 0)  -->
<svg version="1.1" xmlns="http://www.w3.org/2000/svg" xmlns:xlink="http://www.w3.org/1999/xlink" x="0px" y="0px"
	 viewBox="0 0 32.532 32.418" style="enable-background:new 0 0 32.532 32.418;" xml:space="preserve">
<g id="Hoyle">
	<path d="M15.348,0.04c4.545-0.324,9.216,1.326,12.432,4.578c2.761,2.826,4.565,6.652,4.721,10.621
		c0.287,4.51-1.424,9.086-4.543,12.353c-4.376,4.515-11.444,6.049-17.315,3.803C5.349,29.435,1.118,24.63,0.261,19
		C-0.755,13.757,1.26,8.131,5.171,4.536C7.888,1.892,11.574,0.301,15.348,0.04z M15.669,1.503
		C10.117,1.742,4.914,5.369,2.736,10.474c-1.491,3.279-1.644,7.137-0.439,10.528c1.066,3.068,3.172,5.754,5.874,7.548
		c2.592,1.561,5.613,2.478,8.653,2.387c2.83-0.045,5.581-1.054,7.958-2.541c5.323-3.625,7.665-10.938,5.533-16.996
		c-0.886-2.474-2.321-4.821-4.379-6.491C23.128,2.503,19.348,1.286,15.669,1.503z"/>
	<path d="M8.574,6.356c0.981-0.003,1.974,0.395,2.641,1.122c0.67-0.713,1.622-1.152,2.608-1.125
		c0.081,0.522-0.009,1.043,0.002,1.568c-0.876-0.013-1.771,0.602-1.839,1.518c0.009,1.75-0.024,3.501,0.002,5.25
		c0.077-0.029,0.154-0.058,0.231-0.086c1.391,0.116,2.789,0.268,4.133,0.685c1.457-0.349,2.954-0.652,4.467-0.625
		c0.024-1.671,0.078-3.342,0.068-5.014c0.059-0.948-0.857-1.848-1.814-1.672c0.02-0.536-0.028-1.074,0.034-1.607
		c0.954-0.011,1.933,0.368,2.564,1.101c0.683-0.705,1.674-1.175,2.666-1.08c-0.022,0.528,0.04,1.061-0.042,1.586
		c-0.882-0.138-1.743,0.592-1.843,1.457c0.003,1.723-0.028,3.445-0.006,5.168c0.925-0.089,1.576-0.915,1.571-1.825
		c0.496,0.009,0.992-0.01,1.488,0.01c0.065,0.89-0.247,1.804-0.887,2.433c-0.207,0.167,0.049,0.358,0.147,0.503
		c0.554,0.621,0.749,1.494,0.724,2.307c-0.494-0.022-0.99,0.006-1.484-0.009c0.026-0.879-0.636-1.808-1.564-1.827
		c-0.092,2.004-0.022,4.013-0.057,6.019c-0.228,1.145,0.724,2.218,1.881,2.181c-0.007,0.509-0.008,1.019-0.001,1.528
		c-0.965,0.105-1.93-0.334-2.596-1.018c-0.06,0.009-0.119,0.018-0.178,0.028c-0.592,0.689-1.535,0.996-2.423,1.006
		c-0.184-0.493,0.001-1.044-0.068-1.566c0.942,0.09,1.8-0.701,1.816-1.642c0.036-2.197,0.001-4.396,0.028-6.594
		c-0.888,0.088-1.792,0.04-2.66,0.278c1.237,1.544-0.427,4.106-2.339,3.508c-1.445-0.423-2.049-2.312-1.174-3.524
		c-0.895-0.205-1.814-0.206-2.726-0.26c-0.007,2.19-0.016,4.392-0.02,6.587c0.003,0.952,0.905,1.703,1.833,1.657
		c0.003,0.521,0.003,1.041-0.006,1.561c-0.967-0.023-1.964-0.355-2.602-1.113c-0.687,0.718-1.665,1.111-2.655,1.115
		c-0.04-0.518,0.001-1.038-0.016-1.556c0.948,0.022,1.827-0.714,1.832-1.69c0.007-1.944,0.005-3.889,0.015-5.832
		c-0.026-0.226,0.012-0.451,0.051-0.673c-0.878,0.035-1.655,0.892-1.549,1.776c-0.505,0.106-1.021-0.016-1.532,0.003
		c-0.018-0.04-0.055-0.12-0.073-0.16c0.111-0.914,0.447-1.818,1.152-2.442c-0.707-0.651-1.156-1.603-1.097-2.573
		c0.515-0.055,1.034-0.01,1.551-0.027c-0.04,0.884,0.621,1.783,1.55,1.788c-0.098-0.577,0.037-1.158-0.016-1.74
		c0.011-1.138,0.022-2.277,0.007-3.415c-0.09-0.882-0.944-1.53-1.811-1.493C8.555,7.393,8.537,6.873,8.574,6.356z M16.368,17.026
		c-0.956,0.018-0.822,1.603,0.111,1.466C17.42,18.469,17.298,16.916,16.368,17.026z"/>
</g>
<g id="Layer_1">
</g>
</svg>
