<?xml version="1.0" encoding="iso-8859-1"?>
<!-- Generator: Adobe Illustrator 19.2.0, SVG Export Plug-In . SVG Version: 6.00 Build 0)  -->
<svg version="1.1" xmlns="http://www.w3.org/2000/svg" xmlns:xlink="http://www.w3.org/1999/xlink" x="0px" y="0px"
	 viewBox="0 0 59.874 75.338" style="enable-background:new 0 0 59.874 75.338;" xml:space="preserve">
<g id="Hunt-Wesson_x5F_Foods">
	<path style="fill-rule:evenodd;clip-rule:evenodd;" d="M5.531,0.066c2.292-0.149,5.199,0,7.909,0c2.647,0,5.306,0.009,7.86,0.048
		c10.354,0.16,21.295-0.055,31.441,0.146c2.848,0.056,4.937-0.185,6.308,1.601c0.609,0.793,0.825,1.688,0.825,3.202
		c0,6.001-0.049,13.338-0.048,19.796c0.001,13.077-0.146,26.415-0.146,39.98c0,1.236-0.007,2.586-0.048,3.882
		c-0.043,1.356,0.047,2.624-0.243,3.688c-0.3,1.101-0.941,1.889-1.844,2.426c-0.917,0.546-2.134,0.524-3.542,0.485
		c-2.775-0.076-5.787-0.001-8.491,0c-11.336,0.004-21.192-0.19-32.945-0.194c-2.84-0.001-5.832,0.121-8.394-0.097
		c-2.624-0.224-4.06-1.642-4.124-4.318c-0.133-5.561,0.048-11.214,0.048-16.837c0-15.243,0.146-30.514,0.146-46.19
		c0-1.411-0.122-2.845,0.097-4.124c0.399-2.333,2.41-3.562,5.095-3.493C5.466,0.066,5.5,0.068,5.531,0.066z M50.995,7.344
		c-2.177-0.061-4.347-0.242-6.55-0.242C39.583,7.101,34.567,6.92,30.18,7.344c-4.994,0.482-8.992,1.926-12.373,4.076
		c-4.356,2.771-7.754,6.988-9.073,12.857c-0.695,3.095-0.814,6.577-0.728,10.141c0.084,3.525-0.049,7.14-0.049,10.723
		c0,6.241-0.049,12.757-0.049,19.068c0,0.871-0.111,1.771,0.146,2.62c0.582,0.332,1.521,0.242,2.571,0.243
		c0.73,0,2.345,0.194,2.717-0.146c0.229-0.211,0.194-1.037,0.194-1.65c0-1.914,0-4.028,0-5.579c0-2.344-0.29-5.389,0.243-7.182
		c0.334-1.124,1.021-1.905,2.038-2.426c0.787-0.402,2.248-0.85,3.688-0.242c0.636,0.269,1.292,0.856,1.552,1.746
		c0.279,0.956,0.146,2.285,0.146,3.445c0,3.673-0.566,7.109,1.019,9.704c0.918,1.503,2.178,2.604,4.027,3.153
		c1.424,0.424,4.598,0.892,6.453,0.098c0.576-0.247,1.372-0.791,1.844-1.165c0.653-0.517,0.779-1.128,1.65-1.649
		c0.633,0.544,0.838,1.263,1.455,1.747c1.813,1.423,4.883,2.007,7.86,1.31c2.455-0.575,4.556-2.202,5.337-4.415
		c0.915-2.591,0.485-5.95,0.631-9.024c0.119-2.526-0.072-4.9,0.437-6.842c0.165-0.63,0.547-1.179,0.534-1.844
		c-0.695-0.235-1.656-0.151-2.668-0.194c-0.874-0.037-2.246-0.165-2.766,0.146c-0.711,0.427-0.842,2.224-1.019,3.396
		c-0.211,1.394-0.217,2.937-0.243,4.222c-0.048,2.447,0.453,6.281-0.485,8.103c-1.134,2.202-4.9,1.864-5.822-0.436
		c-0.41-1.023-0.34-2.296-0.34-3.64c0-3.949,0.187-7.82-0.048-11.596c-0.596-0.269-1.654-0.232-2.62-0.242
		c-0.792-0.009-2.326-0.174-2.717,0.193c-0.262,0.247-0.252,1.173-0.242,1.747c0.034,1.936-0.031,4.289-0.048,5.968
		c-0.026,2.485,0.271,6.063-0.437,7.715c-0.627,1.463-2.933,2.018-4.415,1.309c-0.722-0.345-1.22-0.861-1.504-1.649
		c-0.345-0.957-0.243-2.202-0.243-3.396c0-1.228,0-2.503,0-3.639c0-2.27,0.08-4.778-0.825-6.453
		c-0.979-1.813-3.412-3.307-6.162-3.348c-1.955-0.029-3.658,0.563-4.852,1.262c-0.391,0.229-0.788,0.641-1.31,0.63
		c-0.123-0.671-0.108-1.671-0.097-2.766c0.01-0.926-0.125-2.443,0.291-2.765c3.064-0.056,6.109-0.094,9.025-0.049
		c5.963,0.091,11.414-0.645,15.72-2.329c2.156-0.844,3.931-1.992,5.629-3.445c3.265-2.795,5.615-6.506,7.035-11.111
		c0.702-2.276,1.133-4.893,1.456-7.617c0.161-1.354,0.291-2.788,0.291-4.221c0-1.417,0.114-2.856-0.097-4.269
		C52.37,7.235,51.649,7.362,50.995,7.344z"/>
	<path style="fill-rule:evenodd;clip-rule:evenodd;" d="M44.105,12.099c-0.2,0.67-1.079,0.955-1.698,1.311
		c-0.644,0.369-1.272,0.826-1.893,1.213c-1.919,1.197-3.856,2.334-5.822,3.493c-0.64,0.378-1.215,0.85-1.844,1.262
		c-1.264,0.829-2.623,1.511-3.882,2.329c-2.52,1.64-5.164,3.118-7.714,4.706c-1.914,1.192-3.768,2.459-5.725,3.591
		c-0.628,0.362-1.267,0.807-1.99,0.97c-0.379-0.276-0.163-0.79-0.146-1.164c0.142-3.048,0.599-5.756,1.601-7.908
		c1.148-2.466,3.096-4.324,5.095-5.774c3.132-2.269,7.331-3.526,12.372-3.93c2.826-0.227,5.612-0.244,8.54-0.243
		C42.053,11.954,43.15,11.835,44.105,12.099z"/>
	<path style="fill-rule:evenodd;clip-rule:evenodd;" d="M47.307,15.689c0.032,0,0.064,0,0.097,0c0.358,0.372,0.17,0.955,0.097,1.358
		c-1.246,6.874-3.58,12.895-8.976,15.672c-4.238,2.181-10.334,3.009-16.739,3.009c-1.083,0-2.184-0.098-3.251-0.049
		c-0.993,0.045-1.998,0.098-2.911-0.242c0.073-0.442,0.571-0.536,0.873-0.729c0.937-0.595,1.946-1.268,2.96-1.844
		c1.359-0.772,2.665-1.62,4.027-2.377c4.055-2.253,7.925-4.895,11.887-7.327c1.32-0.81,2.665-1.612,3.979-2.426
		c2.639-1.633,5.121-3.469,7.763-4.997C47.18,15.699,47.268,15.749,47.307,15.689z"/>
</g>
<g id="Layer_1">
</g>
</svg>
