<?xml version="1.0" encoding="iso-8859-1"?>
<!-- Generator: Adobe Illustrator 19.2.0, SVG Export Plug-In . SVG Version: 6.00 Build 0)  -->
<svg version="1.1" xmlns="http://www.w3.org/2000/svg" xmlns:xlink="http://www.w3.org/1999/xlink" x="0px" y="0px"
	 viewBox="0 0 74.899 69.86" style="enable-background:new 0 0 74.899 69.86;" xml:space="preserve">
<g id="Hutzler_x5F_74">
	<path style="fill-rule:evenodd;clip-rule:evenodd;" d="M36.441,28.99c0.474,0.227,1.468,0.178,1.918-0.049
		c0.228-1.098,0.201-2.276,0.197-3.443c-0.004-1.199-0.006-2.42,0-3.639c0.013-2.46-0.185-4.969,0.098-7.278
		c0.285-2.322,0.683-4.186,1.623-5.852c0.908-1.609,1.811-3.081,3.148-4.328c1.96-1.828,4.412-3.24,7.328-3.885
		c3.404-0.753,6.667-0.057,9.344,1.131c3.696,1.642,6.407,4.809,7.967,8.852c0.523,1.356,0.954,3.048,0.983,4.573
		c0.114,5.832-2.428,10.04-5.607,12.688c-0.444,0.371-1.043,0.639-1.278,1.23c0.55,0.261,1.216,0.178,1.819,0.196
		c2.754,0.086,5.527,0.099,8.41,0.099c0.854,0,1.807-0.153,2.508,0.196c0.008,0.931-0.543,1.735-0.935,2.46
		c-0.405,0.747-0.838,1.511-1.377,2.114c-6.527,0.065-13.406-0.049-20.065-0.049c-2.221,0-4.464,0.118-6.59-0.147
		c-0.076-0.394,0.506-0.537,0.787-0.737c2.369-1.6,4.724-3.262,7.18-4.819c1.207-0.765,2.502-1.477,3.688-2.312
		c1.177-0.828,2.467-1.518,3.492-2.459c1.549-1.422,2.748-3.494,3.147-5.901c0.44-2.658-0.104-5.351-1.377-7.279
		c-1.142-1.729-2.688-3.378-4.771-4.278c-2.136-0.923-4.854-1.293-7.475-0.344c-2.346,0.849-3.843,1.94-5.262,3.787
		c-1.315,1.712-2.194,3.923-2.213,6.787c-0.02,2.898,0,5.917,0,8.951c0,2.234,0.028,4.49,0.049,6.639
		c0.007,0.669,0.009,1.378-0.196,2.016c-2.559,0.083-5.6,0.122-8.36,0c-0.91-0.04-1.853,0.143-2.656-0.148
		c-0.266-1.202-0.147-2.469-0.147-3.738c0-2.57-0.143-5.137,0-7.573c0.075-1.28,0.05-2.634,0-3.885
		c-0.104-2.586-0.028-4.91-0.837-6.836c-0.769-1.835-1.869-3.147-3.246-4.475c-1.955-1.482-4.458-2.592-8.016-2.213
		c-3.83,0.408-6.641,3.208-8.065,6.049c-0.777,1.551-1.277,3.738-0.983,5.852c0.848,6.102,5.766,8.197,10.082,11.016
		c2.452,1.602,4.957,3.264,7.377,4.967c0.31,0.218,0.824,0.375,0.885,0.836c-7.152,0.129-14.783,0.049-22.229,0.049
		c-1.022,0-2.077,0.154-3-0.197c0.066-0.887,0.644-1.632,1.082-2.361c0.438-0.727,0.727-1.586,1.328-2.163
		c2.205-0.16,4.618,0.058,6.59-0.246c-0.04-0.525-0.641-0.802-1.033-1.131c-0.409-0.342-0.813-0.695-1.131-1.082
		c-1.501-1.256-2.372-2.804-3.196-4.623C6.619,20.224,5.89,18.032,6,15.711c0.119-2.516,0.448-4.6,1.328-6.491
		c1.582-3.399,3.78-5.747,7.033-7.574c2.211-1.242,4.97-1.869,8.36-1.574c3.168,0.276,6.299,1.995,8.213,3.59
		c0.55,0.458,1.088,1.106,1.623,1.672c1.087,1.15,1.601,2.476,2.311,4.033c0.333,0.73,0.547,1.489,0.787,2.262
		c0.514,1.66,0.59,3.434,0.59,5.508c0,1.937,0,3.971,0,6.049C36.245,25.105,36.067,27.098,36.441,28.99z"/>
	<path style="fill-rule:evenodd;clip-rule:evenodd;" d="M29.36,30.809c-0.396,0.057-0.775-0.243-1.082-0.443
		c-3.54-2.302-7.03-4.69-10.77-6.983c-1.291-0.791-2.591-2.031-3.295-3.147c-0.548-0.868-1.044-2.111-1.229-3.246
		c-0.526-3.223,0.851-5.741,2.213-7.229c1.512-1.651,3.921-2.892,7.082-2.558c0.677,0.072,1.507,0.338,2.066,0.59
		c1.902,0.858,3.56,2.54,4.426,4.524c1.074,2.46,0.587,5.676,0.738,9c0.108,2.382,0.049,4.823,0.049,7.229
		C29.557,29.295,29.695,30.131,29.36,30.809z M24.885,19.842c0-1.454,0.031-2.992,0-4.229c-0.079-3.058-3.855-4.613-6.148-2.655
		c-1.244,1.061-1.565,3.472-0.492,4.819c0.664,0.833,1.913,1.565,2.999,2.262c0.549,0.353,1.094,0.712,1.623,1.033
		c0.589,0.356,1.126,0.843,1.771,0.885C25.035,21.395,24.885,20.583,24.885,19.842z"/>
	<path style="fill-rule:evenodd;clip-rule:evenodd;" d="M45.638,30.957c-0.238-0.682-0.162-1.428-0.197-2.164
		c-0.107-2.271,0.081-4.583,0.098-6.836c0.032-4.154-0.447-8.087,1.279-10.77c0.606-0.942,1.589-1.797,2.557-2.458
		c1.561-1.067,4.182-1.76,6.59-1.082c2.028,0.57,4.029,2.216,5.066,4.032c0.51,0.894,0.936,2.164,1.033,3.443
		c0.205,2.696-0.816,4.961-2.115,6.442c-0.845,0.964-2.148,1.802-3.393,2.557c-3.165,1.92-5.993,3.834-9.049,5.852
		C46.927,30.356,46.354,30.899,45.638,30.957z M52.031,21.269c0.521-0.32,1.104-0.624,1.623-0.984c1.041-0.722,2.299-1.356,3-2.213
		c0.488-0.597,0.925-1.708,0.787-2.803c-0.134-1.056-0.924-2.014-1.721-2.508c-2.167-1.343-4.799,0.142-5.41,1.967
		c-0.431,1.288-0.321,4.097-0.197,5.705c0.043,0.563-0.105,1.261,0.295,1.672C51.016,22.1,51.494,21.599,52.031,21.269z"/>
	<path style="fill-rule:evenodd;clip-rule:evenodd;" d="M29.016,36.317c0.062,0.514-0.543,0.652-0.836,0.836
		c-2.468,1.554-4.928,3.272-7.475,4.869c-1.377,0.863-2.812,1.84-4.229,2.803c-1.453,0.986-2.806,1.942-3.787,3.246
		c-1.358,1.805-2.033,4.019-1.967,6.639c0.065,2.575,1.004,4.723,2.311,6.344c1.287,1.595,2.993,2.793,5.164,3.491
		c2.251,0.724,4.996,0.537,7.278-0.393c1.947-0.793,3.63-2.247,4.672-3.983c1.13-1.883,1.672-4.037,1.672-6.984
		c0-3.97-0.082-8.575,0-12.786c0.026-1.375-0.308-2.754,0.098-4.033c0.815-0.289,1.763-0.098,2.705-0.098c1.83,0,3.824-0.08,5.705,0
		c0.939,0.04,1.854-0.042,2.656,0.197c0.252,1.018,0.05,2.213,0.098,3.492c0.167,4.446-0.041,9.684,0.049,14.212
		c0.069,3.49,1.282,6.036,3.098,7.869c1.192,1.203,2.736,2.221,4.574,2.754c2.005,0.582,4.517,0.475,6.393-0.147
		c3.286-1.089,6.059-3.953,6.885-7.721c0.611-2.787,0.066-5.351-0.885-7.229c-0.977-1.929-2.532-3.297-4.18-4.377
		c-3.481-2.28-6.903-4.567-10.328-6.787c-0.511-0.273-0.972-0.646-1.476-0.984c-0.454-0.304-1.193-0.439-1.328-1.082
		c0.989-0.265,2.067-0.148,3.099-0.148c6.322,0,12.677,0.049,19.179,0.049c1.016,0,2.045-0.074,3,0.197
		c0.066,0.464-0.243,0.876-0.443,1.229c-0.434,0.767-0.854,1.327-1.328,2.213c-0.257,0.482-0.393,0.88-0.737,1.033
		c-0.707,0.314-2.487,0.126-3.394,0.148c-1.149,0.027-2.251-0.176-3.197,0.098c0.166,0.703,0.899,0.838,1.279,1.328
		c3.5,3.119,6.333,7.752,5.41,14.36c-0.364,2.602-1.545,5.166-3,7.033c-2.787,3.574-7.642,6.572-14.065,5.704
		c-5.588-0.755-9.498-4.163-11.557-8.508c-1.066-2.25-1.69-4.981-1.672-8.36c0.015-2.922,0.049-5.831,0.049-8.803
		c0-0.931,0.151-1.879-0.147-2.754c-0.352-0.305-1.495-0.262-1.918-0.049c-0.357,1.658-0.216,3.519-0.197,5.36
		c0.02,1.867-0.05,3.755,0,5.558c0.053,1.891,0.027,3.668-0.295,5.262c-1.157,5.723-4.417,9.356-9.393,11.311
		c-4.061,1.595-8.885,1.006-12.294-0.787c-4.565-2.4-8.388-7.257-8.164-14.409c0.166-5.271,3.041-9.106,6.098-11.606
		c0.24-0.196,0.592-0.393,0.689-0.737c-0.417-0.323-1.01-0.197-1.524-0.197c-2.671,0-5.354-0.098-8.213-0.098
		c-1.091,0-2.217,0.209-3.147-0.148c0.086-1.062,0.721-1.574,0.984-2.459c0.488-0.659,0.722-1.573,1.328-2.115
		c7.666,0.004,15.926-0.149,23.507,0C26.906,36.191,27.988,36.034,29.016,36.317z"/>
	<path style="fill-rule:evenodd;clip-rule:evenodd;" d="M14.999,48.759c1.951-1.922,4.402-3.292,6.836-4.869
		c1.697-1.099,3.46-2.298,5.311-3.442c0.447-0.276,1.611-1.229,1.967-1.18c0.369,0.05,0.388,0.771,0.393,1.77
		c0.009,1.735-0.071,4.794,0,6.295c0.068,1.421,0.011,2.996-0.049,4.279c-0.07,1.493,0.135,2.86-0.049,4.131
		c-0.248,1.709-1.065,3.182-1.967,4.229c-1.365,1.583-3.831,3.065-6.836,2.803c-2.997-0.261-5.273-2.073-6.442-4.18
		C12.494,55.586,12.682,51.213,14.999,48.759z M22.524,49.202c-1.475,0.976-3.963,2.036-4.672,3.59
		c-0.776,1.702,0.186,3.715,1.131,4.475c1.901,1.53,5.028,0.662,5.754-1.869c0.333-1.162,0.067-2.392,0.099-3.738
		c0.015-0.633,0.073-1.278,0.049-1.918c-0.022-0.565,0.084-1.26-0.295-1.721C23.727,48.23,23.245,48.725,22.524,49.202z"/>
	<path style="fill-rule:evenodd;clip-rule:evenodd;" d="M45.687,39.415c1.112,0.406,2.694,1.506,3.688,2.164
		c3.498,2.313,7.081,4.538,10.278,7.033c2.134,1.881,3.007,6.407,1.574,9.541c-0.743,1.624-2.197,3.16-3.836,3.983
		c-2.022,1.017-5.268,1.018-7.328-0.049c-1.902-0.985-3.827-3.088-4.377-5.753c-0.255-1.237-0.246-2.67-0.246-4.131
		c0-3.404,0-6.904,0-10.573c0-0.805-0.071-1.757,0.098-2.115C45.576,39.468,45.629,39.439,45.687,39.415z M50.015,51.268
		c-0.052,1.116-0.084,2.339,0,3.295c0.16,1.816,1.377,3.193,2.902,3.541c3.038,0.693,5.509-2.363,4.082-5.262
		c-0.553-1.124-1.982-1.965-3.049-2.656c-0.593-0.384-1.2-0.73-1.771-1.082c-0.594-0.366-1.183-0.857-1.918-0.885
		C49.93,49.085,50.065,50.182,50.015,51.268z"/>
</g>
<g id="Layer_1">
</g>
</svg>
