<?xml version="1.0" encoding="iso-8859-1"?>
<!-- Generator: Adobe Illustrator 19.2.0, SVG Export Plug-In . SVG Version: 6.00 Build 0)  -->
<svg version="1.1" xmlns="http://www.w3.org/2000/svg" xmlns:xlink="http://www.w3.org/1999/xlink" x="0px" y="0px"
	 viewBox="0 0 33.054 32.731" style="enable-background:new 0 0 33.054 32.731;" xml:space="preserve">
<g id="&#x130;ntreks">
	<g>
		<path d="M0.07,31.057v1.675h32.984v-2.837c0,0-6.699,0.89-9.057,0.957c0,0-8.443,0.462-10.393,0.309
			C12.617,31.082,0.07,31.057,0.07,31.057"/>
		<path d="M33.008,22.906v3.048c0,0-5.812,1.914-11.412,2.48c-5.6,0.567-7.227,0.588-10.348,0.682H0.07v-1.49
			c0,0,6.892,0,7.639-0.047c0.744-0.047,7.731-0.233,11.318-0.886C19.027,26.693,29.244,24.754,33.008,22.906"/>
		<path d="M0.023,23.76v1.816c0,0,10.34,0.606,15.696-0.651c0,0,9.595-2.096,14.718-4.704l2.607-1.398l0.01-3.818
			c0,0-7.135,4.797-15.238,7.311C17.816,22.315,10.084,25.204,0.023,23.76"/>
		<path d="M0.023,20.362v1.687c0,0,5.161,0.462,8.363,0.123c0,0,6.064-0.498,10.652-2.697c0,0,8.977-4.471,13.969-8.787V6.465
			c0,0-11.389,10.742-17.412,12.357C15.596,18.822,8.795,21.653,0.023,20.362"/>
		<path d="M0.086,16.941v1.685c0,0,5.614,0.991,10.635-0.595c0,0,5.021-1.453,9.053-4.591c0,0,4.82-3.7,7.398-6.476
			c2.576-2.773,5.363-6.124,5.836-6.959l-4.119,0.024c0,0-4.625,6.375-7.762,9.216c0,0-7.763,7.663-15.096,8.026
			C6.031,17.271,1.869,17.569,0.086,16.941"/>
		<path d="M19.152,0.035h3.525c0,0-1.744,3.095-3.791,6.119c-3.438,5.077-9.1,10.962-18.801,9.036v-1.695
			c0,0,2.928,0.394,3.934,0.372c0,0,6.581,0.414,10.691-6.067C14.711,7.8,18.058,3.155,19.152,0.035"/>
		<path d="M0.07,9.791v1.756c0,0,4.945,1.108,8.265-0.864c0,0,2.739-1.681,3.94-4.62c1.203-2.94,1.604-4.506,1.916-6.027h-2.471
			c0,0-0.791,8.278-5.925,9.812C5.796,9.848,4.163,10.637,0.07,9.791"/>
		<path d="M0.086,0.006h1.967v4.894c0,0-0.215,1.817,1.576,1.755c0,0,1.809,0.051,1.569-1.93V0h2.03v5.595
			c0,0,0.263,2.563-3.635,2.671c0,0-3.492-0.124-3.57-2.437C-0.054,3.515,0.086,0.006,0.086,0.006"/>
	</g>
</g>
<g id="Layer_1">
</g>
</svg>
