<?xml version="1.0" encoding="iso-8859-1"?>
<!-- Generator: Adobe Illustrator 19.2.0, SVG Export Plug-In . SVG Version: 6.00 Build 0)  -->
<svg version="1.1" xmlns="http://www.w3.org/2000/svg" xmlns:xlink="http://www.w3.org/1999/xlink" x="0px" y="0px"
	 viewBox="0 0 29.879 29.49" style="enable-background:new 0 0 29.879 29.49;" xml:space="preserve">
<g id="&#x130;stanbul">
	<g>
		<path d="M6.086,8.556c0,0,0.449-1.327,1.052-1.72c0,0,1.112-0.89,2.485-0.365c0,0,1.16,0.404,1.51,1.564
			c0,0,0.271,0.663,0.002,1.522c-0.27,0.859-2.729,8.095-2.729,8.095l-3.342,9.815c0,0-0.809,2.894-3.674,1.724
			c0,0-1.635-0.931-1.359-2.709c0,0,0.074-0.287,0.283-0.935C0.524,24.898,6.086,8.556,6.086,8.556"/>
		<path d="M10.672,14.74c0,0,0.471-1.949,1.973-2.369c0,0,1.307-0.503,2.449,0.608c0,0,0.92,0.834,0.811,1.752
			c0,0,0.057,0.528-0.387,1.726l-3.627,10.636c0,0-0.664,2.717-3.029,2.365c0,0-1.753-0.102-2.146-2.133
			c0,0-0.195-0.417,0.248-1.698C7.405,24.346,10.672,14.74,10.672,14.74"/>
		<path d="M19.178,9.327l0.498-1.448c0,0,1.137-2.423,3.42-1.425c0,0,1.615,0.693,1.535,2.223c0,0,0.057,0.585-0.443,1.866
			l-5.731,16.873c0,0-0.908,2.785-3.555,1.871c0,0-2.482-0.914-1.15-4.033L19.178,9.327z"/>
		<path d="M24.641,13.032l-2.6,7.485l2.74,6.965c0,0,0.797,2.275,2.832,1.976c0,0,1.621-0.099,2.246-1.786
			c0,0,0.104-0.993-0.17-1.811c-0.275-0.818-3.742-9.517-3.742-9.517L24.641,13.032z"/>
		<path d="M13.589,2.848c0.003,1.563-1.263,2.833-2.825,2.835C9.201,5.686,7.931,4.421,7.929,2.858
			C7.926,1.295,9.19,0.026,10.754,0.023C12.316,0.021,13.586,1.285,13.589,2.848"/>
		<path d="M18.191,8.88c0.002,1.563-1.262,2.833-2.825,2.835c-1.564,0.003-2.833-1.262-2.835-2.825
			c-0.003-1.563,1.262-2.833,2.825-2.835C16.92,6.052,18.188,7.317,18.191,8.88"/>
		<path d="M26.895,2.63C26.891,1.175,25.709-0.003,24.254,0c-0.137,0-0.27,0.014-0.4,0.034l0.002-0.003c0,0-1.484,0.066-2.316,1.682
			l-1.197,3.485c0,0-0.113,0.199,0,0.198l3.539-0.006c0,0,1.603-0.081,2.162-0.817l-0.002-0.002
			C26.566,4.088,26.895,3.398,26.895,2.63"/>
	</g>
</g>
<g id="Layer_1">
</g>
</svg>
