<?xml version="1.0" encoding="iso-8859-1"?>
<!-- Generator: Adobe Illustrator 19.2.0, SVG Export Plug-In . SVG Version: 6.00 Build 0)  -->
<svg version="1.1" xmlns="http://www.w3.org/2000/svg" xmlns:xlink="http://www.w3.org/1999/xlink" x="0px" y="0px"
	 viewBox="0 0 79.984 63.326" style="enable-background:new 0 0 79.984 63.326;" xml:space="preserve">
<g id="ISH_x5F_63">
	<path style="fill-rule:evenodd;clip-rule:evenodd;" d="M47.741,46.1c-2.384,0.049-5.242,0.148-7.543-0.049
		c0.093-1.395,0.555-2.705,0.844-4.07c0.291-1.377,0.499-2.797,0.794-4.219c0.554-2.668,1.348-5.373,1.886-8.09
		c0.818-4.127,1.972-8.084,2.531-12.506c0.201-1.588,0.144-2.986-0.397-4.268c-1.312-3.109-5.103-4.152-9.082-3.424
		c-3.414,0.625-6.405,3.125-6.104,6.898c0.114,1.434,0.983,2.58,1.786,3.572c2.062,2.549,4.439,4.859,6.501,7.445
		c1.467,1.838,2.372,3.775,2.631,6.65c0.243,2.709-0.742,5.266-1.936,7.244c-2.191,3.637-6.894,5.844-12.506,5.955
		c-4.222,0.084-8.843-0.629-11.117-2.828c-0.744-0.721-1.488-1.805-1.638-2.979c-0.195-1.537,0.142-3.084,0.446-4.416
		c0.311-1.361,0.552-2.715,0.844-4.02c0.419-1.869,0.857-3.961,1.291-6.006c0.137-0.646,0.446-1.65,0.198-2.381
		c-0.654-1.926-3.548-1.16-5.062-0.447c-2.86,1.348-5.024,4.312-5.905,7.543c-1.492,5.477,0.578,10.787,2.729,14.096
		c2.327,3.578,5.829,6.053,9.776,8.139c1.961,1.035,4.284,1.801,6.502,2.48c4.503,1.383,10.393,1.873,15.979,1.738
		c8.47-0.205,16.272-1.785,22.432-4.418c4.238-1.811,7.652-4.262,10.521-7.395c0.697-0.762,1.3-1.703,1.936-2.58
		c1.879-2.596,3.077-5.74,3.871-9.529c0.15,1.59-0.233,3.125-0.596,4.518c-1.07,4.104-2.958,7.727-5.359,10.57
		c-3.211,3.801-7.205,7.012-12.011,9.18c-4.889,2.207-10.146,3.988-16.675,4.518c-3.289,0.266-6.915,0.498-10.074,0.049
		c-3.054-0.434-5.925-1.029-8.734-1.836c-5.493-1.58-9.914-4.168-13.747-7.494c-1.874-1.625-3.532-3.561-4.863-5.758
		c-1.345-2.217-2.385-4.693-2.829-7.74c-0.986-6.777,1.396-12.514,5.211-15.385c2.556-1.924,8.898-3.664,12.209-1.142
		c0.986,0.754,1.812,1.832,1.836,3.426c0.024,1.572-0.497,3.24-0.844,4.764c-0.693,3.053-1.556,5.91-1.935,9.279
		c-0.215,1.906,0.257,3.811,1.489,4.617c2.123,1.387,5.875,1.145,8.039-0.051c2.054-1.135,3.739-3.277,4.219-5.807
		c0.341-1.801-0.346-3.857-1.092-5.26c-0.642-1.205-1.424-2.273-2.184-3.176c-0.83-0.988-1.61-1.99-2.481-2.879
		c-0.869-0.887-1.691-1.795-2.432-2.879c-1.381-2.02-2.529-5.438-1.39-8.387c0.528-1.367,1.086-2.488,1.836-3.523
		c1.841-2.541,4.667-4.248,8.536-4.814c3.839-0.562,8.662-0.195,11.712,1.092c3.537,1.494,6.676,4.607,5.807,9.926
		c-0.225,1.373-0.716,2.725-0.794,4.418c0.316,0.266,0.497-0.328,0.744-0.447c0.132-0.314,0.473-0.422,0.646-0.695
		c1.804-1.598,5.373-2.031,8.188-1.291c2.507,0.66,4.643,2.307,5.211,4.963c0.33,1.549-0.014,3.057-0.298,4.517
		c-0.555,2.852-1.255,5.562-1.787,8.387c-0.27,1.434-0.77,2.844-0.596,4.367c0.312,0.582,0.657,0.971,1.291,1.141
		c1.415,0.383,2.801-0.455,3.771-1.092c1.08-0.707,1.897-1.584,2.58-2.48c1.524-2.002,2.643-4.094,3.325-6.799
		c0.7-2.772,0.713-6.164,0.1-9.033c-0.575-2.69-1.88-5.072-3.127-6.947c-2.639-3.971-6.385-7.102-10.769-9.479
		c-4.251-2.305-9.647-4.002-15.633-4.566C40.121,4.412,33.506,5,27.94,6.151c-1.339,0.275-2.67,0.725-3.971,1.092
		c-3.879,1.094-7.542,2.633-10.472,4.664c-1.976,1.369-3.988,2.73-5.657,4.467c-3.248,3.381-6.013,7.52-6.799,13.399
		c-0.397,2.971-0.379,5.994,0.348,9.133c-0.528-0.352-0.566-1.08-0.695-1.688c-0.137-0.648-0.323-1.342-0.446-2.035
		C-0.01,33.733,0,32.133,0,30.567c-0.001-3.018,0.909-5.971,1.736-8.189c1.804-4.832,4.76-8.641,8.14-11.711
		c5.312-4.852,11.979-7.758,20.148-9.629c1.386-0.316,2.797-0.514,4.268-0.693c5.594-0.686,12.252-0.309,17.072,0.793
		c3.669,0.84,6.875,2.041,9.876,3.523c5.921,2.928,10.742,7.125,13.697,13.102c1.5,3.035,2.677,6.559,2.58,10.869
		c-0.047,2.115-0.398,4.055-0.893,5.807c-1.426,5.047-4.15,9.264-8.536,11.562c-2.921,1.531-8.223,1.791-9.926-1.092
		c-0.785-1.328-0.529-3.408-0.198-5.061c0.678-3.392,1.328-6.361,2.084-9.828c0.374-1.713,1.084-4.039,0.348-5.607
		c-0.364-0.775-1.031-1.371-1.936-1.588c-2.752-0.658-4.562,1.09-5.607,2.779c-1.09,1.76-1.418,4.633-1.886,6.65
		c-0.848,3.652-1.447,6.957-2.283,10.521C48.418,43.91,48.147,45.063,47.741,46.1z"/>
	<path style="fill-rule:evenodd;clip-rule:evenodd;" d="M21.886,12.303c3.056-0.342,3.895,2.336,3.176,5.211
		c-0.457,1.828-1.918,3.469-3.523,3.574c-1.753,0.115-3.065-0.877-3.226-2.432C18.024,15.877,19.357,12.588,21.886,12.303z"/>
</g>
<g id="Layer_1">
</g>
</svg>
