<?xml version="1.0" encoding="iso-8859-1"?>
<!-- Generator: Adobe Illustrator 19.2.0, SVG Export Plug-In . SVG Version: 6.00 Build 0)  -->
<svg version="1.1" xmlns="http://www.w3.org/2000/svg" xmlns:xlink="http://www.w3.org/1999/xlink" x="0px" y="0px"
	 viewBox="0 0 70.916 69.545" style="enable-background:new 0 0 70.916 69.545;" xml:space="preserve">
<g id="IBM_x5F_Western_x5F_Region">
	<path style="fill-rule:evenodd;clip-rule:evenodd;" d="M43.458,39.954c-0.456,0.169-0.484,0.77-0.6,1.149
		c-0.914,3.015-1.557,6.424-2.599,9.297c-2.836,0.167-6.361,0.166-9.197,0c-0.364-0.947-0.526-2.025-0.7-3.099
		c-0.421-2.594-0.875-5.278-1.399-7.997c-0.09-0.467-0.107-1.039-0.45-1.4c-0.403,0.315-0.41,0.94-0.5,1.4
		c-0.296,1.517-0.512,3.212-0.8,4.848c-0.185,1.05-0.465,2.104-0.6,3.149c-0.137,1.069-0.201,2.189-0.649,3.099
		c-1.441,0.091-3.031,0.051-4.599,0.051c-1.561,0-3.163,0.118-4.499-0.15c-0.572-0.812-0.674-1.85-0.95-2.799
		c-1.358-4.688-2.813-9.398-4.149-14.346c-0.359-1.331-0.832-2.783-1.25-4.299c-0.138-0.501-0.301-1.234-0.6-1.25
		c-0.461-0.024-0.591,1.205-0.7,1.75c-0.399,1.997-0.664,4.264-0.55,6.647c0.281,5.907,2.338,10.59,5.098,14.196
		c4.13,5.397,9.932,9.569,18.395,10.547c4.676,0.54,9.176-0.217,12.546-1.6c1.122-0.461,2.117-1.133,3.299-1.5
		c0.267,0.664,0.15,1.483,0.15,2.25c0,2.292,0.067,4.79-0.05,6.948c-0.714,0.578-1.679,0.874-2.6,1.15
		c-2.754,0.823-6.094,1.55-9.597,1.55c-2.544-0.001-4.717-0.178-6.898-0.55c-6.196-1.06-11.247-3.583-15.445-6.799
		c-1.423-1.09-2.774-2.226-3.949-3.499c-2.42-2.621-4.317-5.355-6.048-8.797C1.194,45.176-0.568,38.59,0.17,31.207
		c0.886-8.852,4.602-15.225,9.297-20.394c0.547-0.77,1.34-1.293,1.95-2c0.848-0.468,1.277-1.355,2.349-1.599
		c0.493,0.853,0.732,1.837,1,2.799c0.81,2.906,1.751,5.863,2.549,8.848c0.792,2.968,1.689,5.879,2.549,8.847
		c0.138,0.475,0.287,0.983,0.45,1.45c0.149,0.427,0.212,0.96,0.6,1.249c0.456-0.294,0.432-0.926,0.55-1.398
		c0.625-2.498,1.193-5.258,1.75-7.849c0.228-1.062,0.335-2.139,0.8-3.049c2.917-0.196,6.375-0.079,9.297,0.05
		c0.596,1.988,1.138,4.129,1.649,6.248c0.383,1.586,0.773,3.171,1.15,4.749c0.114,0.478,0.127,1.081,0.55,1.399
		c0.443-0.179,0.422-0.779,0.5-1.149c0.279-1.326,0.565-2.66,0.8-4.049c0.307-1.811,0.86-3.637,1.1-5.398
		c0.08-0.586-0.048-1.289,0.35-1.75c2.879-0.211,5.547-0.073,8.148-0.1c5.36-0.055,8.723,2.695,10.647,6.248
		c0.983,1.815,1.717,4.093,1.749,6.599c0.032,2.407-0.794,4.621-1.849,6.248c-0.728,1.122-1.926,2.379-2.999,3.299
		c-0.437,0.374-0.996,0.642-1.05,1.05c-0.075,0.562,0.52,1.543,0.75,2.099c0.304,0.738,0.643,1.403,0.9,1.95
		c0.65,1.381,1.075,2.889,1.95,3.749c0.542-0.174,0.777-0.764,1.049-1.2c1.985-3.178,3.317-7.18,3.549-12.097
		c0.272-5.767-1.356-10.463-3.499-14.245c-2.1-3.707-4.918-6.852-8.698-9.197c-3.641-2.261-8.315-4.121-13.696-4.149
		c-5.556-0.028-10.003,1.267-13.546,3.35c-0.593,0.348-1.202,0.659-1.749,1.049c-0.523,0.373-1.024,0.89-1.699,1
		c-0.264-0.689-0.15-1.534-0.15-2.35c0-2.382-0.062-5.161,0.1-7.297c0.762-0.792,1.975-1.208,3.099-1.65
		c2.209-0.869,4.653-1.634,7.298-2.1c5.087-0.895,11.401-0.442,15.845,0.9c3.355,1.014,6.225,2.329,8.897,3.898
		c1.275,0.75,2.659,1.615,3.749,2.649c1.106,1.051,2.287,2.003,3.299,3.1c1.032,1.118,2.064,2.257,2.949,3.448
		c0.465,0.627,0.809,1.303,1.2,2c0.382,0.681,0.849,1.317,1.2,1.999c2.858,5.566,4.87,13.171,3.749,21.044
		c-1.05,7.37-3.924,13.108-7.898,17.695c-1.898,2.28-4.134,4.294-6.698,6.098c-0.328,0.231-0.823,0.691-1.149,0.65
		c-0.336-0.043-0.685-0.87-0.9-1.35c-1.555-3.465-3.364-7.144-4.898-10.547c-1.394-3.089-2.757-6.064-4.099-9.197
		c-0.22-0.516-0.466-1.009-0.7-1.5C44.026,40.867,43.92,40.264,43.458,39.954z M46.307,37.754c0.767-0.547,1.439-1.214,2.1-1.899
		c1.368-1.421,2.586-2.987,2.899-5.099c0.412-2.78-1.973-4.641-4.498-4.349c-0.571,0.818-0.791,1.905-1,2.949
		c-0.436,2.175-0.939,4.403-1.5,6.498c-0.283,1.055-0.835,2.075-0.65,3.148C44.622,38.968,45.491,38.335,46.307,37.754z"/>
</g>
<g id="Layer_1">
</g>
</svg>
