<?xml version="1.0" encoding="iso-8859-1"?>
<!-- Generator: Adobe Illustrator 19.2.0, SVG Export Plug-In . SVG Version: 6.00 Build 0)  -->
<svg version="1.1" xmlns="http://www.w3.org/2000/svg" xmlns:xlink="http://www.w3.org/1999/xlink" x="0px" y="0px"
	 viewBox="0 0 81.205 70.769" style="enable-background:new 0 0 81.205 70.769;" xml:space="preserve">
<g id="idle_x5F_lease">
	<path style="fill-rule:evenodd;clip-rule:evenodd;" d="M40.843,0c0.578,0.163,1.092,1.384,1.469,2.076
		c2.483,4.566,5.115,8.726,7.596,13.369c0.371,0.694,1.155,1.694,1.165,2.279c0.008,0.433-0.528,1.221-0.861,1.772
		c-2.289,3.805-4.471,7.797-6.734,11.496c-2.688,4.392-5.134,8.919-7.647,13.217c-2.585,4.422-5.105,8.869-7.646,13.218
		c-0.638,1.091-1.344,2.15-1.975,3.241c-0.646,1.116-1.174,2.284-1.823,3.393c-1.282,2.187-2.483,4.43-3.95,6.432
		c-6.066,0.099-11.93-0.052-17.978-0.051c-0.818,0-1.661,0.119-2.431-0.151c-0.132-0.468,0.251-0.869,0.455-1.216
		c3.195-5.416,6.332-10.951,9.52-16.459c3.365-5.812,6.882-11.587,10.23-17.471c1.664-2.923,3.466-5.808,5.064-8.811
		c0.409-0.77,0.725-1.577,1.165-2.33c4.203-7.186,8.543-14.525,12.913-21.725c0.448-0.739,0.812-1.574,1.317-2.178
		C40.729,0.054,40.784,0.024,40.843,0z"/>
	<path style="fill-rule:evenodd;clip-rule:evenodd;" d="M52.491,20.561c0.607,0.054,1.219,1.405,1.57,2.025
		c2.548,4.499,5.002,8.95,7.546,13.42c0.429,0.755,0.997,1.467,1.164,2.33c-0.122,0.717-0.571,1.314-0.911,1.924
		c-1.653,2.966-3.513,5.913-5.267,8.913c-0.694,1.187-1.457,2.407-1.925,3.747c0.508,0.429,1.25,0.254,1.874,0.254
		c3.995,0.001,8.176,0.051,12.509,0.051c0.738,0,1.563-0.105,2.025,0.051c0.511,0.172,1.134,1.406,1.469,2.025
		c2.417,4.466,5.019,8.72,7.545,13.116c0.407,0.708,1.009,1.373,1.114,2.229c-1.14,0.196-2.32,0.101-3.494,0.101
		c-15.358-0.002-31.199-0.147-46.995-0.151c-1.211-0.001-2.441,0.051-3.646,0c-1.155-0.05-2.321,0.055-3.443-0.203
		c0.283-1.389,1.328-2.451,1.924-3.696c0.937-2.031,2.11-3.94,3.241-5.875c6.68-11.422,13.498-22.832,20.155-34.436
		c0.517-0.9,1.134-1.874,1.722-2.836C51.317,22.488,51.73,21.336,52.491,20.561z"/>
</g>
<g id="Layer_1">
</g>
</svg>
