<?xml version="1.0" encoding="iso-8859-1"?>
<!-- Generator: Adobe Illustrator 19.2.0, SVG Export Plug-In . SVG Version: 6.00 Build 0)  -->
<svg version="1.1" xmlns="http://www.w3.org/2000/svg" xmlns:xlink="http://www.w3.org/1999/xlink" x="0px" y="0px"
	 viewBox="0 0 190.181 192.027" style="enable-background:new 0 0 190.181 192.027;" xml:space="preserve">
<g id="IG_x5F_Immobiliengesellschaft">
	<path style="fill-rule:evenodd;clip-rule:evenodd;" d="M189.493,0.36c0.653,3.917,0.359,7.904,0.36,11.876
		c0,4.017-0.001,8.086,0,12.115c0.003,54.928,0.241,107.259,0.24,161.815c0,1.844,0.314,3.74-0.24,5.519
		c-63.046,0.56-125.112,0.271-189.286,0.239c-0.647-7.893-0.36-15.896-0.36-23.87c0-55.896-0.467-111.477,0-167.574
		c38.33-0.793,78.014-0.367,117.434-0.359C141.197,0.125,165.418,0.006,189.493,0.36z M78.177,15.595
		c-19.675-0.002-39.215,0.33-57.817,0c-1.445-0.025-3.188-0.228-4.318,0c-1.611,0.325-1.2,2.074-1.2,4.078
		c0,10.606,0.094,21.845,0.12,31.668c0.032,11.84-0.223,25.132,0.24,36.825c23.599,0.491,48.401,0.211,71.732-0.12
		c0.643-2.815,0.36-5.81,0.36-8.756c0-18.245-0.12-35.985-0.12-54.459c0-2.987,0.29-6.011-0.36-8.877
		C84.013,15.31,81.073,15.595,78.177,15.595z M117.162,15.715c-4.72-0.001-9.265,0.127-13.435,0c-0.11-0.004-0.294,0.081-0.48,0.12
		c-1.251,0.263-0.72,4.818-0.72,6.476c0,7.179-0.191,15.628,0.24,21.592c6.291,0.635,14.175,0.361,20.992,0.36
		c2.33-0.001,4.789,0.326,6.717-0.48c0.436-4.29,0.24-9.166,0.24-13.914c0-4.785,0.287-9.626-0.36-13.795
		C126.298,15.425,121.691,15.715,117.162,15.715z M146.79,15.715c-0.142,0.058-0.272,0.128-0.36,0.239
		c-0.782,0.936-0.48,5.073-0.48,6.958c0,7.007-0.079,14.431,0.36,20.991c8.688,0.508,18.915,0.348,27.829,0
		c0.598-4.152,0.36-8.975,0.36-13.794c0-4.794-0.044-9.672-0.36-14.035C165.71,15.267,155.81,15.932,146.79,15.715z M155.066,59.737
		c-17.374-0.001-34.828,0.137-52.179,0.24c-0.627,4.26-0.36,9.098-0.36,13.914c0,4.814,0.046,9.779,0.36,14.274
		c22.981,0.517,47.45,0.345,71.252,0c0.826-1.95,0.36-4.274,0.36-6.598c0-7.108,0.195-14.921-0.24-21.472
		C168.003,59.458,161.513,59.737,155.066,59.737z M160.225,103.88c-38.141-0.004-76.119,0.003-113.835,0
		c-7.274-0.001-14.174,0-20.752,0c-3.477,0-6.947-0.276-10.316,0.359c-0.439,11.677-0.24,24.077-0.24,36.346
		c0,12.259-0.235,24.585,0.36,35.746c46.215,0.044,93.305,0.113,139.745,0.12c3.324,0.001,6.711-0.245,9.956-0.12
		c3.155,0.122,6.305,0.15,9.356-0.24c0.459-24.148,0.304-48.889-0.12-71.851C169.755,103.537,164.96,103.88,160.225,103.88z"/>
</g>
<g id="Layer_1">
</g>
</svg>
