<?xml version="1.0" encoding="iso-8859-1"?>
<!-- Generator: Adobe Illustrator 19.2.0, SVG Export Plug-In . SVG Version: 6.00 Build 0)  -->
<svg version="1.1" xmlns="http://www.w3.org/2000/svg" xmlns:xlink="http://www.w3.org/1999/xlink" x="0px" y="0px"
	 viewBox="0 0 61.726 74.151" style="enable-background:new 0 0 61.726 74.151;" xml:space="preserve">
<g id="Il_x5F_Moderno_x5F_d_x5F_Autore">
	<path style="fill-rule:evenodd;clip-rule:evenodd;" d="M56.534,0.148c-0.192,0.884-0.687,1.66-1.086,2.454
		c-1.157,2.303-2.32,4.689-3.398,7.078c-2.859,6.341-6.097,12.546-9.202,18.829c-1.114,2.255-2.295,4.593-3.445,7.032
		c-0.323,0.686-1.111,1.762-1.085,2.406c0.025,0.62,0.942,1.488,1.416,2.171c3.437,4.957,6.865,9.891,10.382,14.724
		c1.021,1.402,1.885,2.895,2.879,4.294c2.732,3.851,5.412,7.702,8.116,11.609c0.246,0.354,0.635,0.702,0.614,1.18
		c-1.143,0.324-2.483,0.27-3.775,0.377c-1.281,0.106-2.583,0.281-3.822,0.189c-0.779-0.417-0.931-1.461-1.699-1.888
		c-0.681,0.371-0.904,1-1.416,1.463c-2.016,1.823-6.021,2.538-9.438,1.793c-3.22-0.702-5.979-2.215-7.975-3.822
		c-3.226-2.376-6.277-5.545-7.976-9.722c-0.569-1.399-1.157-2.976-1.274-4.577c-0.212-2.919,0.545-5.089,2.077-6.513
		c1.461-1.357,3.792-2.145,6.512-1.935c1.172,0.091,2.195,0.536,3.351,0.472c0.112-0.499-0.328-0.887-0.566-1.227
		c-1.538-2.194-3.049-4.32-4.624-6.654c-0.249-0.367-0.642-0.815-0.661-1.18c-0.023-0.414,0.377-1.021,0.613-1.51
		c2.963-6.118,5.885-12.133,8.919-18.169c0.471-0.936,0.958-1.89,1.274-2.879c-0.536,0.094-0.803,0.865-1.274,1.181
		c-2.597,3.56-5.404,7.031-8.211,10.807c-1.308,1.758-2.594,3.618-4.011,5.474c-0.975,1.275-1.986,2.668-3.02,4.106
		c-0.315,0.437-0.762,1.146-1.086,1.273c-0.501,0.196-1.341,0.131-2.029,0.189c-1.409,0.119-2.63,0.174-4.105,0.282
		c-0.643,0.048-1.315,0.298-1.887,0c0-1.859,0.579-3.634,0.896-5.427c0.634-3.577,1.379-7.149,2.029-10.807
		c0.318-1.795,0.787-3.585,0.896-5.427c-0.501,0.128-0.697,0.744-0.896,1.133c-1.643,3.192-3.207,6.572-4.861,9.862
		c-0.95,1.892-1.737,3.862-2.689,5.758c-0.473,0.94-0.891,1.901-1.368,2.831c-0.477,0.929-0.824,1.925-1.463,2.737
		c-1.912,0.264-4.133,0.411-6.229,0.52c-0.673,0.034-1.353,0.259-1.935,0c0.177-0.879,0.662-1.647,1.037-2.454
		c3.638-7.818,7.617-15.621,11.421-23.502c0.378-0.783,0.705-1.6,1.085-2.406c1.098-2.327,2.267-4.647,3.398-7.079
		c0.312-0.671,0.826-1.969,1.273-2.17c0.566-0.255,2.049-0.185,2.784-0.236c1.985-0.139,3.675-0.286,5.616-0.425
		c0.912-0.065,1.803-0.244,2.689-0.095c0.157,0.899-0.19,1.781-0.33,2.644c-0.436,2.696-0.867,5.367-1.416,8.023
		c-0.365,1.769-0.613,3.564-0.99,5.332c-0.379,1.775-0.626,3.554-0.944,5.333c-0.08,0.447-0.437,0.983-0.188,1.51
		c0.642-0.182,1.002-0.848,1.368-1.321c1.165-1.506,2.323-3.051,3.445-4.625c2.963-4.157,6.136-7.944,9.249-12.223
		c1.059-1.453,2.312-2.991,3.539-4.529c0.328-0.411,0.829-1.258,1.228-1.416c0.636-0.252,2.078-0.226,2.831-0.283
		c2.833-0.218,5.746-0.444,8.542-0.661C55.895,0.034,56.331-0.1,56.534,0.148z M32.515,56.966c0.311,1.599,1.086,2.746,1.84,3.823
		c1.505,2.15,3.509,4.185,5.663,5.662c1.084,0.743,2.499,1.502,4.105,1.604c2.809,0.18,3.944-2.125,3.209-4.624
		c-0.976-3.317-3.808-6.381-6.323-8.306c-1.476-1.13-3.346-2.435-5.805-2.171C33.262,53.163,32.072,54.7,32.515,56.966z"/>
</g>
<g id="Layer_1">
</g>
</svg>
