<?xml version="1.0" encoding="iso-8859-1"?>
<!-- Generator: Adobe Illustrator 19.2.0, SVG Export Plug-In . SVG Version: 6.00 Build 0)  -->
<svg version="1.1" xmlns="http://www.w3.org/2000/svg" xmlns:xlink="http://www.w3.org/1999/xlink" x="0px" y="0px"
	 viewBox="0 0 71.11 81.207" style="enable-background:new 0 0 71.11 81.207;" xml:space="preserve">
<g id="Il_x5F_Mulino">
	<path style="fill-rule:evenodd;clip-rule:evenodd;" d="M62.652,17.06c-1.978,1.407-4.025,2.7-6.085,4.022
		c-4.037,2.593-8.029,5.347-12.066,8.096c-1.417,0.965-3.033,1.885-4.641,2.939c-0.441,0.29-1.296,0.806-1.341,1.135
		c-0.073,0.544,0.8,1.424,1.135,1.959c2.792,4.466,5.719,8.723,8.457,13.149c0.936,1.797,2.266,3.2,3.094,5.105
		c2.333,3.637,5.118,7.685,7.58,11.55c0.301,0.473,0.76,1.483,1.237,1.496c0.443,0.012,0.854-0.69,1.135-1.031
		c0.997-1.217,2.008-2.316,2.991-3.455c0.632-0.794,1.305-1.548,2.011-2.27c0.246-0.402,0.604-0.768,0.979-1.186
		c0.299-0.332,0.885-0.832,0.877-1.237c-0.015-0.776-1.226-1.039-1.599-1.65c-0.567-0.498-1.152-0.979-1.702-1.495
		c-3.485-2.96-6.967-5.925-10.364-8.973c-3.492-2.954-6.726-6.165-10.21-9.127c-0.839-0.729-1.645-1.444-2.579-2.27
		c-0.262-0.23-0.769-0.539-0.773-0.824c-0.008-0.468,1.177-1.151,1.598-1.135c0.582,0.023,1.547,1.071,1.959,1.444
		c0.625,0.565,1.248,1.117,1.753,1.598c3.635,3.103,6.978,6.498,10.674,9.54c2.414,2.089,4.797,4.209,7.219,6.291
		c1.932,1.633,4.243,3.666,6.343,5.466c0.306,0.263,0.757,0.549,0.773,0.877c0.028,0.553-1.101,1.472-1.392,1.805
		c-0.562,0.642-0.97,1.124-1.443,1.701c-2.007,2.223-3.935,4.523-5.879,6.807c-0.482,0.583-0.953,1.179-1.495,1.702
		c-0.491,0.558-0.826,1.271-1.599,1.547c-0.912-0.912-1.535-2.072-2.218-3.146c-1.702-2.677-3.519-5.368-5.311-8.044
		c-0.37-0.553-0.571-1.152-0.877-1.753c-0.205-0.403-0.559-0.82-0.825-1.238c-3.42-5.38-6.756-10.471-10.364-15.882
		c-0.426-0.64-1.156-2.188-1.753-2.269c-0.573-0.078-1.366,0.693-1.959,1.082c-6.685,4.383-13.532,8.628-20.214,13.047
		c-2.431,1.607-4.916,3.094-7.271,4.795c-1.008,0.565-2.026,1.348-3.094,2.063c-0.364,0.244-0.857,0.436-0.876,0.825
		c-0.025,0.508,0.662,0.906,0.98,1.187c0.453,0.397,0.779,0.68,1.186,0.979c1.467,1.387,3.301,3.075,5.053,4.59
		c0.489,0.422,1.282,1.375,1.805,1.392c0.859,0.027,1.061-1.221,1.702-1.599c0.502-0.58,0.973-1.192,1.495-1.753
		c3.482-4.142,7.121-7.999,10.726-12.17c1.723-1.993,3.345-3.869,5.363-6.085c1.234-1.355,2.657-3.009,4.022-4.589
		c0.371-0.429,1.034-1.391,1.444-1.393c0.446-0.002,1.138,1.055,1.135,1.496c-0.005,0.665-0.907,1.389-1.444,2.011
		c-1.59,1.841-3.35,3.636-4.847,5.414c-4.208,5.002-8.515,9.615-12.789,14.542c-0.994,1.146-2.106,2.387-3.197,3.661
		c-0.486,0.568-0.916,1.198-1.547,1.856c-0.469,0.489-1.297,1.622-1.753,1.649c-0.599,0.037-1.359-0.969-1.805-1.341
		c-1.821-1.517-3.239-2.848-4.899-4.434c-1.631-1.482-3.446-2.759-5.054-4.332c-0.494-0.483-1.226-0.949-1.392-1.702
		c0.289-0.719,1.165-1.204,1.805-1.598c2.048-1.261,4.142-2.635,6.137-3.971c7.723-5.003,15.165-10.026,22.998-15.006
		c0.426-0.271,1.357-0.774,1.392-1.135c0.045-0.465-0.923-1.66-1.289-2.217c-3.226-4.905-6.567-9.647-9.746-14.542
		c-2.689-4.142-5.509-8.317-8.25-12.634c-0.421-0.661-0.942-1.335-1.393-2.061c-0.322-0.521-1.016-1.922-1.496-1.96
		c-0.652-0.052-1.811,1.716-2.114,2.166C8.17,7.427,7.389,8.122,6.807,8.81c-1,1.184-1.912,2.161-2.991,3.403
		c-0.278,0.32-0.879,0.945-0.876,1.237c0.005,0.445,1.308,1.436,1.599,1.702c1.785,1.634,3.484,2.844,5.208,4.589
		c2.29,2.076,4.684,4.049,7.013,6.085c4.263,3.88,8.78,7.452,13.149,11.448c0.294,0.268,0.733,0.487,0.722,0.876
		c-0.012,0.409-0.954,1.082-1.444,1.083c-0.592,0.001-1.532-1.03-2.011-1.444c-4.263-3.674-8.652-7.57-12.84-11.086
		c-3.782-3.16-7.071-6.334-10.88-9.643c-0.524-0.455-1.197-0.99-1.805-1.598C1.183,14.995,0.018,14.307,0,13.709
		c-0.015-0.532,0.957-1.354,1.341-1.805c1.476-1.738,2.88-3.34,4.28-5.054c0.855-1.047,1.993-2.088,2.939-3.3
		c0.571-0.731,1.38-1.756,2.114-2.578C10.909,0.71,11.158,0.25,11.5,0.251c0.56,0.001,1.276,1.457,1.547,1.907
		c0.484,0.807,0.88,1.388,1.289,2.114c5.491,8.157,10.738,16.558,16.243,24.7c0.362,0.51,0.827,1.303,1.341,2.062
		c0.332,0.492,0.923,1.801,1.547,1.856c0.551,0.05,1.666-0.893,2.217-1.237c2.15-1.342,4.28-2.68,6.291-4.022
		c6.847-4.571,13.69-9.123,20.626-13.768c0.664-0.444,1.489-0.896,2.114-1.341c0.441-0.314,1.863-1.114,1.908-1.496
		c0.06-0.517-0.671-0.914-0.98-1.186c-0.445-0.392-0.727-0.701-1.135-0.979c-1.45-1.403-3.081-2.625-4.538-4.023
		c-0.431-0.264-0.752-0.602-1.186-0.979c-0.322-0.28-0.801-0.864-1.237-0.877c-0.596-0.018-1.273,1.118-1.702,1.599
		c-1.518,1.702-3.219,3.62-4.538,5.208c-1.899,2.433-3.91,4.754-5.93,7.064c-1.968,2.363-4.026,4.637-6.033,6.962
		c-1.684,2.015-3.584,3.91-5.363,6.033c-0.232,0.276-0.562,0.764-0.825,0.773c-0.423,0.016-1.148-0.989-1.135-1.496
		c0.016-0.606,1.083-1.515,1.444-1.959c0.551-0.677,1.12-1.228,1.599-1.753c3.122-3.634,6.322-7.188,9.437-10.829
		c4.184-4.841,8.201-9.847,12.531-14.541c0.958-0.278,1.406,0.82,2.062,1.185c0.525,0.524,1.086,1.011,1.649,1.495
		c1.116,0.964,2.242,1.919,3.353,2.888c1.68,1.466,3.36,2.931,5.002,4.435c0.222,0.393,1.563,0.878,1.547,1.548
		c-0.013,0.499-1.54,1.247-1.908,1.495C66.764,14.419,64.493,15.893,62.652,17.06z M35.581,36.192
		c0.864,0.11,1.106-1.496-0.051-1.187C34.764,35.211,35.132,36.134,35.581,36.192z"/>
	<path style="fill-rule:evenodd;clip-rule:evenodd;" d="M38.726,19.382c0.002,0.394-0.375,0.745-0.67,1.083
		c-0.258,0.295-0.594,0.725-0.928,0.824c-0.539,0.162-1.402-0.054-2.114,0c-1.986,0.151-3.68,0.666-5.105,1.496
		c-0.412,0.24-1.029,0.794-1.392,0.773c-0.475-0.027-1.27-1.21-1.238-1.65c0.031-0.425,0.896-0.892,1.393-1.186
		c2.21-1.312,4.842-2.027,8.25-1.806C37.609,18.962,38.379,18.982,38.726,19.382z"/>
	<path style="fill-rule:evenodd;clip-rule:evenodd;" d="M49.452,35.934c-1.141-0.046-1.542-0.83-2.011-1.548
		c0.048-1.412-0.014-2.903-0.309-4.125c-0.103-0.425-0.298-0.873-0.258-1.186c0.044-0.348,1.142-1.241,1.547-1.238
		c0.697,0.006,1.011,1.843,1.134,2.527c0.192,1.057,0.246,2.453,0.207,3.351C49.726,34.509,49.914,35.652,49.452,35.934z"/>
	<path style="fill-rule:evenodd;clip-rule:evenodd;" d="M23.05,35.573c-0.671,0.897-2.162-0.461-1.135-1.083
		C22.376,34.769,22.855,35.03,23.05,35.573z"/>
	<path style="fill-rule:evenodd;clip-rule:evenodd;" d="M23.256,42.998c-0.327-0.42-0.048-1.018,0.052-1.547
		c0.192-1.017,0.329-2.009,0.567-3.196c0.107-0.533,0.245-1.247,0.464-1.444c0.038-0.048,0.094-0.078,0.155-0.104
		c0.511,0.429,1.699,1.007,1.805,1.806c0.054,0.411-0.136,0.924-0.258,1.495c-0.113,0.529-0.146,1.136-0.31,1.443
		c-0.21,0.396-0.809,0.637-1.186,0.877C24.098,42.613,23.736,43.092,23.256,42.998z"/>
	<path style="fill-rule:evenodd;clip-rule:evenodd;" d="M53.371,72.648c-2.893,0.223-5.899,0.104-8.921,0.104
		c-3.015,0-6.046,0-9.076,0c-6.067,0-12.163,0.126-17.945-0.155c-0.187-0.675,0.129-1.34,0.258-2.011
		c0.131-0.682,0.163-1.452,0.412-2.063c0.376-0.92,1.467-1.898,2.114-2.682c0.226-0.272,0.487-0.699,0.877-0.618
		c0.074,1.676-0.67,3.244-0.67,4.847c0.466,0.414,1.185,0.258,1.753,0.258c8.039-0.001,17.002,0,24.854,0.052
		c1.221,0.008,2.478,0.094,3.609-0.206c0.104-1.177-0.257-2.357-0.464-3.507c-0.622-3.461-1.416-6.982-1.96-10.571
		c0.029-0.074,0.081-0.125,0.155-0.154c0.034,0,0.068,0,0.103,0c0.723,1.226,1.77,2.319,2.475,3.765
		c0.454,0.932,0.545,2.002,0.774,3.146c0.429,2.152,0.813,4.353,1.237,6.549C53.168,70.484,53.569,71.598,53.371,72.648z"/>
	<path style="fill-rule:evenodd;clip-rule:evenodd;" d="M51.824,74.041c0.068,1.113-0.545,2.196-0.773,3.352
		c-0.271,1.367-0.335,2.707-1.031,3.661c-9.572,0.252-19.384,0.152-29.238,0c-0.539-1.005-0.774-2.23-1.083-3.403
		c-0.309-1.174-0.821-2.339-0.825-3.558c0.433-0.298,1.692-0.322,2.063-0.104c0.502,0.299,0.636,1.61,0.825,2.372
		c0.238,0.959,0.437,1.855,0.825,2.32c8.502,0.178,17.124,0.146,25.68,0c0.871-1.312,0.831-3.535,1.753-4.795
		C50.542,73.838,51.525,73.702,51.824,74.041z"/>
</g>
<g id="Layer_1">
</g>
</svg>
