<?xml version="1.0" encoding="iso-8859-1"?>
<!-- Generator: Adobe Illustrator 19.2.0, SVG Export Plug-In . SVG Version: 6.00 Build 0)  -->
<svg version="1.1" xmlns="http://www.w3.org/2000/svg" xmlns:xlink="http://www.w3.org/1999/xlink" x="0px" y="0px"
	 viewBox="0 0 82.609 40.145" style="enable-background:new 0 0 82.609 40.145;" xml:space="preserve">
<g id="Illinois_x5F_National_x5F_Bank_x5F_75">
	<path style="fill-rule:evenodd;clip-rule:evenodd;" d="M40.777,0.109c0.679,1.111,1.209,2.34,1.742,3.534
		c0.539,1.207,1.135,2.379,1.644,3.585c0.269,0.639,0.417,1.311,0.697,1.941c2.366,5.33,5.022,10.783,7.418,16.182
		c0.268,0.603,0.563,1.197,0.846,1.792c0.267,0.56,0.459,1.225,0.946,1.643c0.313-0.748,0.199-1.617,0.199-2.44
		c0-4.1-0.049-8.63-0.049-12.994c0-1.73,0.12-3.471-0.15-5.078c-1.716-0.292-4.108,0.093-5.825-0.199
		c-0.267-1.133-0.149-2.545-0.149-3.934c0-1.356-0.08-2.765,0.1-3.933c1.079-0.274,2.238-0.058,3.385-0.1
		c5.63-0.21,12.153-0.051,18.123-0.05c2.654,0,4.429,0.194,6.224,1.046c3.259,1.544,5.681,4.275,6.422,8.215
		c0.772,4.104-0.722,7.601-2.738,9.658c-0.243,0.248-0.788,0.762-0.797,0.996c-0.01,0.295,0.617,0.744,0.847,0.995
		c1.91,2.087,3.46,5.388,2.788,9.51c-0.638,3.916-2.967,6.753-6.124,8.315c-1.676,0.829-3.644,1.195-6.024,1.195
		c-6.997,0-14.228,0.129-21.359,0c-0.887-1.532-1.556-3.206-2.29-4.829c-0.749-1.656-1.523-3.267-2.141-4.979
		c-0.597-1.656-1.439-3.297-2.19-4.929c-2.038-4.427-4.099-8.833-6.124-13.343c-0.157-0.351-0.312-0.852-0.697-1.046
		c-0.268,0.799-0.149,1.689-0.149,2.539c0,6.104-0.042,12.437,0.149,18.322c1.458,0.4,3.789-0.071,5.328,0.249
		c0.272,1.876,0.115,4.137,0.1,6.223c-0.004,0.588,0.181,1.226-0.1,1.743c-11.453,0.074-23.661,0.146-35.648,0.149
		c-1.664,0-3.357,0.179-4.979-0.1c-0.152-2.508-0.15-5.413,0-7.916c2.024-0.303,4.61,0.122,6.473-0.249
		c0.263-3.666,0.1-7.652,0.1-11.65c0-4.009,0.044-8.046-0.149-11.8C5.727,8.106,4.495,8.224,3.337,8.224
		c-1.166,0-2.324,0.108-3.187-0.1c-0.154-2.472-0.242-5.571,0-7.866c5.654-0.271,11.344-0.129,17.028-0.149
		C25.347,0.078,33.051-0.066,40.777,0.109z M53.473,31.226c-0.68-1.386-1.353-2.81-1.992-4.231
		c-1.911-4.259-3.906-8.543-5.825-12.746c-0.662-1.45-1.168-2.959-1.842-4.382c-1.005-2.12-1.969-4.261-2.938-6.322
		c-0.319-0.681-0.478-1.522-1.096-2.042c-5.812-0.141-12.089-0.165-18.073,0.05c-0.244,1.574-0.161,3.485,0,5.079
		c1.912,0.295,4.511-0.097,6.423,0.198c0.176,7.481,0.099,15.869,0.099,23.302c0,1.048,0.162,2.142-0.149,3.136
		c-2.125,0.157-4.539-0.073-6.323,0.199c-0.151,1.466-0.201,3.786,0.05,5.028c5.76,0.166,11.865,0.092,17.625-0.05
		c0.245-1.472,0.141-3.494,0-5.028c-1.552-0.34-3.986,0.202-5.377-0.299c-0.055-8.597-0.232-17.604,0-26.139
		c0.286-0.102,0.859-0.158,1.195-0.05c0.623,0.641,0.918,1.534,1.294,2.341c1.932,4.146,3.75,8.39,5.676,12.496
		c0.773,1.649,1.708,3.298,2.29,4.979c0.103,0.298,0.141,0.604,0.249,0.896c0.697,1.879,1.676,3.682,2.489,5.526
		c0.608,1.38,1.285,2.771,1.892,4.083c0.204,0.439,0.3,1.012,0.747,1.294c6.557-0.062,13.818,0.254,20.313,0.05
		c2.224-0.069,4.12-0.305,5.726-1.144c2.854-1.494,5.141-4.409,5.277-8.364c0.079-2.278-0.513-4.028-1.344-5.477
		c-0.839-1.462-2.113-2.404-3.236-3.635c2.467-2.246,4.701-4.614,4.531-9.161c-0.148-3.949-2.717-6.899-5.477-8.265
		c-1.678-0.829-3.45-1.096-5.726-1.096c-2.185,0-4.57,0-6.871,0c-4.604,0.001-9.329-0.031-13.492,0.149
		c-0.158,1.553-0.189,3.539,0,5.029c1.658,0.399,4.187-0.071,5.925,0.248c0.146,8.311,0.149,16.757,0.149,24.994
		c0,1.168,0.122,2.366-0.149,3.484C54.608,34.11,54.154,32.613,53.473,31.226z M22.754,8.174c-2.458,0.221-5.129-0.287-7.368,0.149
		c-0.217,6.896-0.05,13.754-0.05,20.612c0,0.974-0.116,1.965,0.149,2.888c2.761,0.233,5.852,0.05,8.464,0.05
		c0.954,0,1.935,0.117,2.789-0.149c0.188-7.821,0.09-15.629-0.05-23.45C25.562,8.049,23.888,8.072,22.754,8.174z"/>
	<path style="fill-rule:evenodd;clip-rule:evenodd;" d="M61.787,17.136c-0.165-3.139-0.166-6.968,0-10.106
		c1.249-0.131,2.834-0.146,4.083-0.15c2.293-0.007,4.933-0.121,6.423,0.847c0.526,0.342,1.025,0.848,1.344,1.295
		c1.799,2.518,0.785,6.265-1.693,7.617c-1.661,0.907-4.162,0.647-6.522,0.647C64.219,17.284,62.967,17.405,61.787,17.136z
		 M66.468,15.841c1.162,0.002,2.383,0.131,3.435,0c2.061-0.255,3.475-2.057,3.286-4.132c-0.128-1.395-1.113-2.703-2.39-3.187
		c-1.823-0.69-5.428-0.03-7.468-0.199c-0.409,0.385-0.249,1.084-0.249,1.692c0,1.897-0.077,4.07,0.1,5.726
		C64.241,16.056,65.366,15.839,66.468,15.841z"/>
	<path style="fill-rule:evenodd;clip-rule:evenodd;" d="M61.887,32.719c-0.266-1.481-0.149-3.444-0.149-5.277
		c0-0.818,0.025-1.698,0-2.738c-0.017-0.714-0.266-2.192,0.299-2.29c0.97-0.169,2.631-0.05,3.983-0.05
		c2.251,0,4.304-0.177,5.726,0.498c1.602,0.76,2.95,2.555,2.888,4.929c-0.068,2.597-1.987,4.706-4.63,4.978
		C67.318,33.046,64.739,32.602,61.887,32.719z M69.753,31.375c3.724-0.385,4.624-5.283,1.693-7.069
		c-1.61-0.981-5.907-0.42-8.116-0.498c-0.332,0.433-0.199,1.132-0.199,1.742c0,1.91-0.117,4.138,0.149,5.726
		C65.212,31.308,67.848,31.571,69.753,31.375z"/>
</g>
<g id="Layer_1">
</g>
</svg>
