<?xml version="1.0" encoding="iso-8859-1"?>
<!-- Generator: Adobe Illustrator 19.2.0, SVG Export Plug-In . SVG Version: 6.00 Build 0)  -->
<svg version="1.1" xmlns="http://www.w3.org/2000/svg" xmlns:xlink="http://www.w3.org/1999/xlink" x="0px" y="0px"
	 viewBox="0 0 81.51 74.563" style="enable-background:new 0 0 81.51 74.563;" xml:space="preserve">
<g id="Imai_x5F_Seisakusho">
	<path style="fill-rule:evenodd;clip-rule:evenodd;" d="M19.402,27.955c2.918-5.06,5.852-10.223,8.901-15.514
		c1.439-2.495,2.91-5.267,4.527-7.681c1.678-2.505,4.062-4.464,7.681-4.73c5.312-0.39,8.233,3.108,10.071,6.409
		c3.036,5.454,5.919,10.43,8.901,15.819c1.004,1.813,1.875,3.68,2.849,5.392c3.969,6.977,7.969,13.912,11.953,21.008
		c1.002,1.785,1.951,3.568,2.899,5.341c0.959,1.792,2.047,3.494,2.95,5.29c0.978,1.945,1.641,4.261,1.271,6.765
		c-0.642,4.357-3.808,7.53-8.291,8.189c-2.484,0.365-5.287,0.051-8.087,0.051c-10.547,0-21.938,0.201-32.453,0.204
		c-5.276,0.001-10.899-0.114-16.277,0c-2.602,0.055-5.527,0.184-7.833-0.204c-2.393-0.403-4.077-1.45-5.493-2.747
		c-1.441-1.32-2.475-3.189-2.849-5.392c-0.427-2.51,0.315-4.936,1.271-6.765c1.88-3.59,4.056-7.102,6.003-10.479
		C11.482,41.825,15.468,35.22,19.402,27.955z M33.999,11.933c-1.772,1.816-2.618,4.278-2.746,7.477
		c-0.062,1.542,0.027,3.17-0.051,4.833c-0.079,1.672,0,3.401,0,5.137c0,5.168,0.087,10.342,0,15.108
		c-0.03,1.638,0.169,3.305,0.102,4.984c-0.137,3.419,0.008,6.784,0.051,10.072c0.041,3.134,1.037,5.525,2.798,7.325
		c1.657,1.693,4.111,3.058,7.223,3.001c2.939-0.053,5.314-1.448,7.02-3.154c1.819-1.819,2.6-4.237,2.747-7.477
		c0.14-3.078,0.051-6.453,0.051-9.868c0-3.422,0-6.904,0-10.224c0-6.161,0.062-13.739-0.051-20.041
		c-0.058-3.162-1.154-5.514-2.849-7.274c-1.641-1.703-4.253-3.254-7.172-3.052C38.064,8.991,35.706,10.186,33.999,11.933z"/>
	<path style="fill-rule:evenodd;clip-rule:evenodd;" d="M40.917,11.729c3.042-0.238,5.527,1.885,6.512,3.815
		c1.666,3.27,0.102,6.98-2.035,8.596c-1.952,1.476-4.785,1.935-7.223,0.712c-1.991-0.998-4.052-3.551-3.816-6.765
		c0.092-1.238,0.608-2.44,1.119-3.204C36.621,13.17,38.327,11.932,40.917,11.729z"/>
</g>
<g id="Layer_1">
</g>
</svg>
