<?xml version="1.0" encoding="iso-8859-1"?>
<!-- Generator: Adobe Illustrator 19.2.0, SVG Export Plug-In . SVG Version: 6.00 Build 0)  -->
<svg version="1.1" xmlns="http://www.w3.org/2000/svg" xmlns:xlink="http://www.w3.org/1999/xlink" x="0px" y="0px"
	 viewBox="0 0 93.666 94.032" style="enable-background:new 0 0 93.666 94.032;" xml:space="preserve">
<g id="Imian">
	<path style="fill-rule:evenodd;clip-rule:evenodd;" d="M46.184,0.148c-3.113,2.114-7.234,4.289-11.031,6.475
		C23.783,13.166,11.867,19.46,0.261,25.687C0.071,17.22,0.023,7.121,0.381,0.148C15.142-0.036,31.498-0.062,46.184,0.148z"/>
	<path style="fill-rule:evenodd;clip-rule:evenodd;" d="M46.783,0.027c15.335,0.095,31.274-0.165,46.883,0.12
		c-0.109,10.113,0.071,16.37-0.12,25.539C77.72,17.373,62.036,8.916,46.783,0.027z"/>
	<path style="fill-rule:evenodd;clip-rule:evenodd;" d="M93.546,35.399c-0.05,6.248,0.029,12.755,0,19.305
		c-4.1-1.669-7.895-4.085-11.87-6.235c-9.656-5.221-19.269-10.246-29.137-15.828c-1.617-0.915-4.267-3.079-5.876-3.117
		c-1.617-0.039-2.523,1.745-4.076,1.559c-13.67,8.353-28.073,15.971-42.326,23.741c-0.326-3.701-0.132-9.644-0.12-14.628
		c0.003-1.148-0.318-3.812,0-4.557c0.488-1.141,4.022-2.611,5.396-3.357c7.824-4.249,15.59-7.981,23.261-12.59
		c5.714-3.433,11.66-6.731,17.386-9.592c0.105-0.053,0.286-0.381,0.6-0.24c3.394,1.524,6.807,3.704,10.192,5.636
		c6.647,3.793,13.452,7.42,20.264,11.151c2.927,1.604,6.225,2.886,9.112,4.676c0.852,0.528,0.87,0.693,1.799,1.079
		C90.004,33.172,91.788,34.401,93.546,35.399z"/>
	<path style="fill-rule:evenodd;clip-rule:evenodd;" d="M93.546,64.775c-0.062,6.086,0.026,13.013,0,19.305
		c-14.421-7.493-29.524-15.754-44.005-23.981c-0.832-0.472-2.532-1.438-2.997-1.439c-0.501,0-2.115,1.098-2.998,1.559
		c-12.683,6.619-24.961,14.127-37.53,20.983c-1.931,1.053-3.851,2.14-5.876,2.878c0-6.435,0-12.87,0-19.305
		c15.27-8.454,30.547-17.294,45.804-25.54c1.204-0.651,4.896,1.917,6.475,2.878C65.54,50.099,80.707,56.952,93.546,64.775z"/>
	<path style="fill-rule:evenodd;clip-rule:evenodd;" d="M93.187,94.032c-29.718-0.008-61.614-0.004-92.686,0
		c3.565-2.509,7.543-4.392,11.391-6.475c11.369-6.156,22.572-13.166,34.173-19.064c1.234-0.628,4.962,2.158,6.475,2.997
		c5.778,3.208,11.479,6.687,17.506,9.712c4.024,2.021,7.997,4.17,11.751,6.355C85.67,89.814,89.729,91.512,93.187,94.032z"/>
</g>
<g id="Layer_1">
</g>
</svg>
