<?xml version="1.0" encoding="iso-8859-1"?>
<!-- Generator: Adobe Illustrator 19.2.0, SVG Export Plug-In . SVG Version: 6.00 Build 0)  -->
<svg version="1.1" xmlns="http://www.w3.org/2000/svg" xmlns:xlink="http://www.w3.org/1999/xlink" x="0px" y="0px"
	 viewBox="0 0 69.555 63.565" style="enable-background:new 0 0 69.555 63.565;" xml:space="preserve">
<g id="Imprimerie_x5F_Daynac">
	<path style="fill-rule:evenodd;clip-rule:evenodd;" d="M16.586,0.184c0.232,3.902,0.213,8.42,0.05,12.546
		c-5.089,0.141-11.39,0.2-16.495,0c-0.143-4.083-0.227-8.653,0-12.546C5.276,0.09,11.298-0.107,16.586,0.184z"/>
	<path style="fill-rule:evenodd;clip-rule:evenodd;" d="M21.734,63.466c-0.339-1.838-0.059-4.127-0.15-6.298
		c-0.09-2.158-0.117-4.377,0.051-6.348c4.34-0.214,8.927-0.056,13.146-0.1c2.299-0.024,4.408,0.044,6.299-0.4
		c5.275-1.239,9.266-4.138,11.797-8.197c1.653-2.653,3.005-6.177,2.949-10.347c-0.058-4.202-1.37-7.611-3.05-10.297
		c-2.481-3.97-6.379-7.199-11.847-8.198c-1.913-0.349-3.989-0.35-6.298-0.35c-4.27,0-8.831-0.014-13.146-0.15
		c-0.216-4.123-0.032-8.449,0-12.597c3.424-0.212,7.892-0.207,11.646-0.15c3.338,0.051,6.545-0.09,9.497,0.3
		C48.53,1.113,53.17,3.419,56.725,6.032c2.802,1.996,5.297,4.585,7.298,7.548c3.806,5.635,6.656,14.179,5.099,23.693
		c-1.376,8.4-5.437,14.299-10.747,18.894c-3.955,3.422-8.992,6.013-15.246,6.998c-2.166,0.341-4.447,0.4-6.998,0.4
		C31.378,63.565,26.446,63.556,21.734,63.466z"/>
	<path style="fill-rule:evenodd;clip-rule:evenodd;" d="M21.635,46.32c-0.143-9.526-0.274-19.607-0.051-28.992
		c5.122-0.161,10.615-0.205,15.946-0.1c6.462,0.127,10.514,3.694,12.646,8.348c1.105,2.414,1.721,5.532,1.199,8.847
		c-0.896,5.689-4.67,9.7-9.647,11.347c-2.697,0.893-6.219,0.834-9.797,0.7C28.538,46.344,24.995,46.544,21.635,46.32z"/>
	<path style="fill-rule:evenodd;clip-rule:evenodd;" d="M16.636,17.329c0.265,0.903,0.15,1.881,0.15,2.799
		c-0.003,14.527,0.223,28.906,0,43.338c-5.644,0.021-11.314,0.21-16.495-0.05c-0.181-13.947-0.203-28.904-0.2-43.487
		c0-0.89-0.179-1.817,0.149-2.649C5.26,17.238,11.508,17.124,16.636,17.329z"/>
</g>
<g id="Layer_1">
</g>
</svg>
