<?xml version="1.0" encoding="iso-8859-1"?>
<!-- Generator: Adobe Illustrator 19.2.0, SVG Export Plug-In . SVG Version: 6.00 Build 0)  -->
<svg version="1.1" xmlns="http://www.w3.org/2000/svg" xmlns:xlink="http://www.w3.org/1999/xlink" x="0px" y="0px"
	 viewBox="0 0 40.357 84.344" style="enable-background:new 0 0 40.357 84.344;" xml:space="preserve">
<g id="Independent_x5F_Photographers_x5F_Service_x5F_50s">
	<path style="fill-rule:evenodd;clip-rule:evenodd;" d="M19.613,0.027c2.441-0.239,4.27,1.164,5.012,2.382
		c2.405,3.946-0.829,8.802-5.36,8.139c-2.318-0.339-4.29-2.203-4.466-4.963c-0.083-1.3,0.534-2.778,0.993-3.424
		C16.566,1.069,17.861,0.198,19.613,0.027z"/>
	<path style="fill-rule:evenodd;clip-rule:evenodd;" d="M32.516,48.017c0.602,0.754,1.357,1.356,2.035,2.035
		c3.187,3.187,5.806,7.931,5.806,14.293c0,2.449-0.51,4.767-1.241,6.799c-1.377,3.833-3.752,6.928-6.849,9.23
		c-3.097,2.303-7.067,3.971-12.109,3.97c-5.017,0-9-1.723-12.06-4.02c-3.15-2.365-5.421-5.378-6.898-9.181
		c-1.537-3.957-1.611-9.734-0.149-13.747c1.045-2.867,2.688-5.418,4.665-7.394c0.67-0.67,1.439-1.241,2.035-1.985
		c-0.529-0.749-1.291-1.231-1.886-1.886c-1.76-1.938-3.23-4.321-4.169-7.146c-1.309-3.94-1.252-9.02,0.199-12.903
		c2.532-6.776,8.762-12.287,17.568-12.755c4.81-0.255,9.014,1.585,11.811,3.623c3.023,2.202,5.333,5.066,6.749,8.635
		c1.46,3.679,1.966,8.731,0.596,13.151c-0.883,2.848-2.408,5.368-4.218,7.345C33.792,46.747,33.04,47.267,32.516,48.017z
		 M12.615,25.486c-1.576,1.605-2.82,4.098-2.977,6.7c-0.234,3.856,1.315,6.377,3.127,8.188c0.79,0.791,1.72,1.62,2.829,1.836
		c0.277-0.675,0.099-1.44,0.099-2.183c0-4.742,0.049-9.681,0-14.343c-0.007-0.724,0.143-1.603-0.248-2.084
		c-0.003-0.03-0.007-0.059-0.05-0.05C14.512,23.865,13.3,24.788,12.615,25.486z M24.674,23.699c-0.09,1.421-0.049,3.057-0.049,4.665
		c0,3.907,0,7.927,0,11.712c0,0.731-0.069,1.51,0.199,2.183c0.874-0.24,1.56-0.939,2.233-1.538c1.931-1.718,3.542-4.331,3.524-7.841
		c-0.019-3.448-1.645-6.008-3.524-7.792c-0.577-0.547-1.596-1.5-2.283-1.539C24.711,23.57,24.672,23.614,24.674,23.699z
		 M10.978,57.545c-1.133,1.592-1.948,3.551-2.084,5.807c-0.17,2.816,0.625,5.232,1.836,7.047c1.189,1.784,2.811,3.231,4.864,4.02
		c0.346-0.73,0.199-1.614,0.199-2.432c-0.001-5.249-0.05-10.415-0.05-15.633c0-0.893,0.155-1.821-0.199-2.432
		c-0.033,0-0.066,0-0.099,0C13.684,54.588,12.074,56.004,10.978,57.545z M24.774,54.071c-0.084,0.404-0.148,0.822-0.149,1.241
		c-0.01,5.359-0.058,11.445,0.049,16.873c0.015,0.749-0.034,1.534,0.199,2.233c1.12-0.42,2.158-1.133,3.027-1.936
		c1.761-1.624,3.125-4.047,3.474-6.948c0.429-3.57-0.741-6.294-2.332-8.288c-0.965-1.208-2.601-2.799-4.169-3.325
		C24.811,53.943,24.771,53.986,24.774,54.071z"/>
</g>
<g id="Layer_1">
</g>
</svg>
