<?xml version="1.0" encoding="iso-8859-1"?>
<!-- Generator: Adobe Illustrator 19.2.0, SVG Export Plug-In . SVG Version: 6.00 Build 0)  -->
<svg version="1.1" xmlns="http://www.w3.org/2000/svg" xmlns:xlink="http://www.w3.org/1999/xlink" x="0px" y="0px"
	 viewBox="0 0 162.302 163.338" style="enable-background:new 0 0 162.302 163.338;" xml:space="preserve">
<g id="industrias_x5F_paramount">
	<path style="fill-rule:evenodd;clip-rule:evenodd;" d="M0.27,0c40.355,0.063,81.566,0.146,121.38,0.146
		c13.585,0,27.165-0.051,40.444,0.098c0.325,2.124,0.048,5.035,0.098,7.581c0.13,6.583,0.048,13.779,0.049,20.735
		c0.001,27.173,0.138,55.403,0,83.235c-0.1,0.014-0.096,0.132-0.196,0.146c-26.716,0.078-51.81,0.099-77.855-0.098
		c-0.113-17.087-0.067-34.791-0.049-52.083c0.048-0.001,0.038-0.059,0.049-0.098c12.595-0.262,26.067,0.034,38.634-0.147
		c0.359-1.583-0.022-3.606,0.098-5.428c-0.066-0.048-0.098-0.13-0.147-0.196c-27.485-0.201-55.365-0.097-83.088-0.049
		c-0.133-0.036-0.098,0.097-0.195,0.098c-0.162,1.605-0.162,3.873,0,5.478c0.04,0.009,0.049,0.049,0.098,0.049
		c11.896,0.179,24.315,0.098,36.434,0.098c0.752,0,1.534-0.114,2.249,0.146c-0.008,0.057,0.011,0.087,0.049,0.098
		c0.09,34.511,0.077,68.375,0,103.334c-0.043,0.022-0.087,0.043-0.098,0.098c-26.417,0.202-51.808,0.044-78.002-0.098
		c-0.022-0.043-0.043-0.087-0.098-0.098c-0.075-13.273,0-26.774,0-40.297c0-23.725-0.049-47.146-0.049-71.547
		c0-3.395-0.141-6.821,0-10.172c0.143-3.382-0.158-6.771,0-10.172c0.08-1.706-0.049-3.417-0.049-5.135
		c0-8.574-0.099-17.09,0.098-25.577C0.15,0.076,0.199,0.027,0.27,0z"/>
</g>
<g id="Layer_1">
</g>
</svg>
