<?xml version="1.0" encoding="iso-8859-1"?>
<!-- Generator: Adobe Illustrator 19.2.0, SVG Export Plug-In . SVG Version: 6.00 Build 0)  -->
<svg version="1.1" xmlns="http://www.w3.org/2000/svg" xmlns:xlink="http://www.w3.org/1999/xlink" x="0px" y="0px"
	 viewBox="0 0 80.461 56.216" style="enable-background:new 0 0 80.461 56.216;" xml:space="preserve">
<g id="industrial_x5F_trainers">
	<path style="fill-rule:evenodd;clip-rule:evenodd;" d="M21.827,0.146c0.306,8.55,0.096,17.641,0.097,25.979
		c0,0.5,0.101,1.084-0.242,1.502c0.235,0.301,0.271,0.501,0.291,0.97c0.092,2.176-0.049,4.487-0.049,6.785
		c0.001,6.79,0.107,14.022-0.146,20.599c-7.212,0.18-14.737,0.145-21.713-0.049C-0.036,39.184,0.017,20.992,0.016,3.393
		c0-0.464,0.016-1.059,0-1.647C0,1.128-0.047,0.284,0.162,0.097C0.197,0.052,0.25,0.023,0.307,0
		C7.406,0.063,14.756-0.047,21.827,0.146z"/>
	<path style="fill-rule:evenodd;clip-rule:evenodd;" d="M80.278,0.29c0.126,3.132,0.245,7.028,0.146,10.033
		c-0.016,0.463,0.003,0.719-0.389,0.872c0.634,0.543,0.34,1.552,0.34,2.424c0,2.651,0.079,5.568-0.049,8.143
		c-1.121,0.262-2.298,0.146-3.44,0.146c-16.366,0.001-33.24-0.096-49.485-0.098c-1.11,0-2.23,0.088-3.296-0.145
		c-0.227-3.647-0.019-7.348-0.097-10.905c-0.057-2.579,0.049-5.164,0.049-7.997c0-0.893-0.119-1.807,0.146-2.666
		C42.211,0.154,62.497,0.068,80.278,0.29z"/>
	<path style="fill-rule:evenodd;clip-rule:evenodd;" d="M62.781,23.604c0.235,0.609,0.116,1.606,0,2.277
		c0.136,1.621,0.092,3.294,0.098,5.09c-0.08,0.42-0.43,0.571-0.533,0.969c0.104,0.267,0.523-0.216,0.533,0.194
		c-0.037,7.607,0.091,16.169-0.098,23.942c-1.683,0.216-3.483,0.097-5.331,0.097c-5.414,0.001-11.135,0.145-16.431-0.097
		c-0.192-8.303-0.065-16.631-0.097-24.767c-0.005-1.274,0.017-2.613,0.049-3.926c0.031-1.304-0.131-2.62,0.097-3.829
		C48.295,23.433,55.404,23.417,62.781,23.604z"/>
</g>
<g id="Layer_1">
</g>
</svg>
