<?xml version="1.0" encoding="iso-8859-1"?>
<!-- Generator: Adobe Illustrator 19.2.0, SVG Export Plug-In . SVG Version: 6.00 Build 0)  -->
<svg version="1.1" xmlns="http://www.w3.org/2000/svg" xmlns:xlink="http://www.w3.org/1999/xlink" x="0px" y="0px"
	 viewBox="0 0 44.797 79.518" style="enable-background:new 0 0 44.797 79.518;" xml:space="preserve">
<g id="Industrial_x5F_Design_x5F_USA">
	<path style="fill-rule:evenodd;clip-rule:evenodd;" d="M44.359,17.962c-0.611-0.252-0.625-1.014-0.827-1.499
		c-1.542-3.716-3.967-6.755-7.028-9.097c-2.986-2.284-6.662-4.084-11.526-4.6c-0.774-0.082-1.732-0.131-2.067,0.104
		c-0.506,0.352-0.514,1.933-0.103,2.325c0.343,0.328,1.434,0.282,2.274,0.361c2.295,0.218,4.591,0.899,6.254,1.551
		c2.408,0.944,4.585,2.47,6.358,4.084c1.893,1.725,3.349,3.69,4.6,5.84c0.942,1.619,1.687,3.519,2.17,5.634
		c0.152,0.666,0.428,1.399,0.259,2.119c-0.547-0.398-0.579-1.118-0.775-1.654c-0.666-1.812-1.375-3.29-2.429-4.807
		c-1.346-1.936-2.809-3.489-4.601-5.014c-2.651-2.256-5.651-3.742-9.769-4.651c-1.307-0.288-2.721-0.572-4.187-0.413
		c-0.585,0.249-0.562,2.059-0.207,2.429c0.354,0.368,1.181,0.281,1.913,0.362c4.734,0.521,8.475,2.255,11.422,4.444
		c3.168,2.353,5.419,5.141,7.081,8.787c0.225,0.493,0.348,1.062,0.62,1.602c0.245,0.484,0.873,0.548,0.982,1.138
		c0.149,0.813-0.438,2.522-0.62,3.256c-0.75,3.018-2.403,5.699-3.98,7.649c-1.158,1.432-2.422,2.672-3.928,3.824
		c-4.12,3.154-10.679,5.613-18.142,4.187c-3.652-0.698-6.823-2.212-9.406-4.135c-0.334-0.248-0.894-0.717-1.188-0.724
		c-0.464-0.01-1.21,0.586-1.241,1.086c-0.04,0.645,1.253,1.551,1.81,2.016c2.113,1.761,4.751,2.962,7.546,3.876
		c3.918,1.282,9.086,1.435,13.18,0.259c7.099-2.04,12.366-7.013,14.937-13.645c0.148-0.385,0.275-0.929,0.723-1.138
		c0.09,1.174-0.279,2.329-0.62,3.359c-0.982,2.971-2.725,5.666-4.651,7.753c-2.632,2.853-6.139,5.064-10.234,6.306
		c-4.477,1.357-10.048,1.146-14.161-0.413c-3.463-1.312-6.361-3.157-8.838-5.634c-0.327-0.327-0.778-0.924-1.137-0.931
		C4.318,43.95,3.906,44.553,3.89,44.94c-0.035,0.789,1.178,1.91,1.705,2.481c3.317,3.595,7.824,6.148,13.697,7.081
		c8.09,1.284,14.594-2.067,18.658-5.789c2.529-2.315,4.505-5.179,5.84-8.683c0.166-0.435,0.242-1.066,0.724-1.344
		c0.122,1.254-0.296,2.478-0.672,3.566c-1.134,3.283-2.895,5.974-5.065,8.27c-2.924,3.093-6.595,5.284-11.474,6.306
		c-2.562,0.536-5.636,0.682-8.166,0.309c-2.481-0.364-4.849-1.216-6.77-2.119c-3.411-1.604-6.195-4.145-8.373-7.185
		c-0.354-0.494-0.771-1.085-1.085-1.085c-0.382,0-0.682,0.474-0.724,0.724c-0.165,0.96,1.075,2.397,1.498,2.998
		c3.109,4.411,7.225,7.486,13.18,9.044c2.274,0.596,5.352,0.903,8.114,0.569c5.325-0.646,9.267-2.571,12.456-5.324
		c2.726-2.352,5.039-5.458,6.357-9.199c0.167-0.473,0.159-1.124,0.672-1.447c0.349,0.616-0.013,1.324-0.155,1.912
		c-0.457,1.896-1.18,3.558-1.964,5.117c-1.021,2.031-2.396,3.988-3.979,5.427c-3.284,2.982-7.293,5.394-12.715,6.099
		c-6.126,0.797-11.42-0.959-15.195-3.256c-3.352-2.04-6.066-4.812-8.011-8.477c-0.194-0.367-0.466-1.402-0.981-1.344
		c-0.632,0.071-0.444,1.191-0.259,1.706c1.433,3.979,4.003,7.192,7.029,9.51c3.553,2.72,8.131,4.609,14.007,4.858
		c5.868,0.248,10.862-2.04,14.265-4.549c3.144-2.318,5.583-5.522,7.133-9.406c0.192-0.484,0.292-1.179,0.826-1.499
		c0.108,1.398-0.424,2.677-0.826,3.824c-1.22,3.476-3.345,6.294-5.841,8.58c-3.303,3.025-7.862,5.232-13.646,5.634
		c-6.396,0.444-11.246-1.777-14.937-4.238c-3.376-2.252-5.868-5.451-7.598-9.303c-0.248-0.554-0.327-1.175-0.62-1.758
		c-0.209-0.417-0.779-0.536-0.879-1.086c-0.154-0.855,0.387-2.306,0.569-2.997c1.176-4.475,3.577-7.74,6.615-10.544
		c2.325-2.145,5.386-3.748,8.838-4.703c3.609-0.998,8.439-1.088,12.043-0.155c3.001,0.777,5.707,2.151,8.011,3.877
		c0.337,0.252,0.685,0.619,1.034,0.62c0.491,0,1.279-0.626,1.292-1.188c0.016-0.705-1.294-1.438-1.913-1.913
		c-0.803-0.617-1.476-1.128-2.222-1.603c-3.106-1.977-7.162-3.167-11.939-3.256c-2.33-0.043-4.754,0.385-6.667,0.931
		c-6.99,1.993-12.354,7.163-14.782,13.748c-0.139,0.377-0.16,1.017-0.672,1.189c-0.164-0.632,0.135-1.283,0.259-1.861
		c0.928-4.34,3.208-7.705,5.892-10.389c1.516-1.515,3.402-2.851,5.478-3.824c2.14-1.004,4.439-1.955,6.978-2.326
		c8.324-1.217,14.914,2.092,19.123,5.892c0.719,0.365,1.003,1.694,1.913,1.706c0.554,0.007,0.92-0.588,0.93-1.034
		c0.018-0.722-1.245-1.95-1.705-2.429c-2.001-2.083-4.521-3.969-7.236-5.117c-3.603-1.523-9.015-2.597-14.161-1.601
		c-4.458,0.861-8.057,3.049-10.905,5.582c-2.235,1.986-3.915,4.268-5.272,7.132c-0.433,0.914-0.637,1.942-1.24,2.843
		c-0.326-0.546-0.022-1.227,0.104-1.757c1.132-4.768,3.469-8.078,6.667-11.112c1.314-1.247,2.909-2.386,4.651-3.204
		c1.778-0.836,3.714-1.685,5.737-2.068c10.044-1.905,18.107,2.225,22.483,7.753c0.301,0.355,0.594,0.676,0.93,1.138
		c0.25,0.342,0.53,1.056,1.034,1.033c0.601-0.026,0.737-0.859,0.465-1.499c-0.627-1.474-1.848-2.955-2.791-4.031
		c-1.525-1.742-3.256-2.995-4.858-4.187c-2.778-1.708-6.118-3.013-10.337-3.308c-4.327-0.303-8.381,0.363-11.525,1.86
		C9.846,22.534,7.32,24.46,5.13,26.851c-1.853,2.024-3.354,4.71-4.29,7.649c-0.1,0.313-0.15,0.852-0.568,0.982
		c-0.441-0.365-0.214-1.206-0.207-1.809c0.081-6.282-0.554-13.441,1.189-18.503c1.012-2.941,2.482-5.325,4.341-7.494
		c3.878-4.083,8.454-7.299,15.971-7.649c4.973-0.232,9.423,1.052,12.508,2.945c1.01,0.62,1.933,1.403,2.895,2.171
		c3.281,2.618,5.72,6.267,7.081,10.803C44.236,16.567,44.499,17.287,44.359,17.962z M30.611,17.91
		c2.031,0.721,3.727,1.709,5.271,2.843c2.613,1.917,4.979,4.543,6.564,7.546c0.148,0.28,0.445,1.195,0.983,1.085
		c0.94-0.193-0.036-2.367-0.207-2.739c-1.109-2.423-3.024-5.008-4.755-6.615c-2.523-2.345-5.813-4.555-9.613-5.53
		c-1.608-0.413-3.688-0.847-5.479-0.827c-1.237,0.014-1.204,1.932-0.517,2.636C25.726,16.512,28.184,17.049,30.611,17.91z
		 M32.678,37.705c-2.859-1.348-6.871-2.465-10.957-2.274c-3.976,0.186-6.922,0.97-9.717,2.378c-0.64,0.322-2.343,1.054-2.326,1.705
		c0.011,0.408,0.681,0.753,1.086,0.983c3.16,1.793,6.864,3.151,11.629,3.153c4.181,0.001,7.491-1.023,10.233-2.378
		c0.922-0.456,1.96-0.873,2.533-1.706C34.73,38.656,33.643,38.16,32.678,37.705z"/>
	<path style="fill-rule:evenodd;clip-rule:evenodd;" d="M44.41,56.054c0.345,0.255,0.062,0.705,0,0.981
		c-1.115,5.021-3.852,8.79-7.184,11.629c-1.659,1.532-3.851,2.787-6.306,3.773c-2.176,0.874-5.343,1.65-8.528,1.499
		c-6.253-0.298-11.02-2.554-14.523-5.53c-3.615-3.087-6.453-6.951-7.442-12.663c-0.015-0.083,0.049-0.089,0.052-0.155
		c0.059-0.009,0.092,0.012,0.104,0.052c0.556,1.087,0.974,2.161,1.499,3.204c1.529,3.044,3.757,5.548,6.356,7.598
		c2.683,1.852,5.892,3.522,9.717,4.29c4.041,0.812,8.719,0.432,12.197-0.826c6.212-2.248,11.098-6.63,13.438-12.767
		C43.923,56.79,44.02,56.278,44.41,56.054z"/>
	<path style="fill-rule:evenodd;clip-rule:evenodd;" d="M44.462,61.635c0.087,1.383-0.512,2.653-0.982,3.825
		c-1.409,3.514-3.48,6.488-6.202,8.683c-3.451,2.924-8.117,5.376-14.473,5.376c-6.147-0.001-11.035-2.391-14.523-5.221
		c-2.713-2.2-4.868-4.998-6.409-8.372c-0.514-1.125-1.103-2.374-1.086-3.722c0.629,0.264,0.728,1.15,1.034,1.757
		c0.899,1.778,2.062,3.43,3.308,4.91c2.588,2.961,5.895,5.02,9.872,6.615c3.955,1.589,9.878,1.63,14.368,0.414
		c2.751-0.745,5.182-2.252,7.34-3.876c3.477-2.618,5.772-5.997,7.493-10.234C44.251,61.7,44.3,61.61,44.462,61.635z"/>
</g>
<g id="Layer_1">
</g>
</svg>
