<?xml version="1.0" encoding="iso-8859-1"?>
<!-- Generator: Adobe Illustrator 19.2.0, SVG Export Plug-In . SVG Version: 6.00 Build 0)  -->
<svg version="1.1" xmlns="http://www.w3.org/2000/svg" xmlns:xlink="http://www.w3.org/1999/xlink" x="0px" y="0px"
	 viewBox="0 0 56.373 80.086" style="enable-background:new 0 0 56.373 80.086;" xml:space="preserve">
<g id="Industrial_x5F_Blueprinting_x5F_and_x5F_Supply">
	<path style="fill-rule:evenodd;clip-rule:evenodd;" d="M25.628,0.127c0.298,0.888,0.112,1.865,0.101,2.826
		c-0.076,6.688,0.246,14.512-0.051,21.454c-1,0.273-2.084,0.151-3.129,0.151c-7.501,0-15.231,0.117-22.413-0.051
		c-0.205-3.91-0.102-8.099-0.101-12.216c0-4.095-0.126-8.189,0.101-12.115C8.318-0.062,17.181-0.039,25.628,0.127z"/>
	<path style="fill-rule:evenodd;clip-rule:evenodd;" d="M25.677,29.404c0.192,12.722,0.102,25.598,0.102,38.213
		c0,4.179,0.172,8.356-0.102,12.419c-2.898,0.062-5.605-0.574-7.874-1.515c-1.175-0.487-2.287-0.912-3.332-1.464
		c-7.103-3.756-12.49-10.12-14.084-19.485c-0.472-2.774-0.354-5.862-0.352-9.137c0-4.691-0.001-9.611,0-14.387
		c0-1.546-0.131-3.123,0.201-4.594C8.526,29.269,17.379,29.196,25.677,29.404z"/>
	<path style="fill-rule:evenodd;clip-rule:evenodd;" d="M30.927,80.086c-0.301-0.932-0.211-1.935-0.201-2.928
		c0.137-14.639-0.002-29.237,0-44.522c0-0.939-0.066-2.666,0.201-3.029c0.037-0.047,0.093-0.076,0.152-0.101
		c8.069,0.266,13.671,3.223,17.92,7.471c3.951,3.949,7.491,10.049,7.37,17.971c-0.123,8.032-3.376,13.674-7.521,17.819
		C44.596,77.019,38.927,79.906,30.927,80.086z"/>
</g>
<g id="Layer_1">
</g>
</svg>
