<?xml version="1.0" encoding="iso-8859-1"?>
<!-- Generator: Adobe Illustrator 19.2.0, SVG Export Plug-In . SVG Version: 6.00 Build 0)  -->
<svg version="1.1" xmlns="http://www.w3.org/2000/svg" xmlns:xlink="http://www.w3.org/1999/xlink" x="0px" y="0px"
	 viewBox="0 0 76.991 73.555" style="enable-background:new 0 0 76.991 73.555;" xml:space="preserve">
<g id="Industrial_x5F_Bolsera">
	<path style="fill-rule:evenodd;clip-rule:evenodd;" d="M58.472,0.157c-0.105,0.401-0.521,0.638-0.82,0.868
		c-0.916,0.705-1.917,1.42-2.847,2.171c-8.719,6.915-17.476,13.789-26.151,20.747c-9.393-0.063-18.99,0.077-28.177-0.193
		c0.396-0.716,1.183-1.101,1.785-1.592c1.814-1.479,3.683-3.002,5.597-4.438c2.42-2.035,4.963-3.948,7.431-5.935
		c5.044-3.882,9.97-7.883,15.005-11.773C39.408,0.053,49.381-0.109,58.472,0.157z"/>
	<path style="fill-rule:evenodd;clip-rule:evenodd;" d="M33.141,23.896c0.105-0.435,0.569-0.639,0.868-0.869
		c0.335-0.257,0.646-0.533,1.014-0.724c7.161-5.559,14.676-11.211,22.194-16.742c1.797-1.322,3.643-2.749,5.597-4.149
		c0.712-0.51,1.464-1.206,2.268-1.303c0.931-0.111,1.96,0.017,2.943,0.049c3.758,0.117,7.369,1.153,8.588,3.763
		c0.981,2.1-0.146,4.712-1.157,6.176c-2.208,3.194-5.213,5.624-8.492,7.672c-4.788,2.989-11.076,5.613-18.045,6.176
		c-2.611,0.211-5.231,0.097-7.864,0.097C38.452,24.039,35.802,24.152,33.141,23.896z"/>
	<path style="fill-rule:evenodd;clip-rule:evenodd;" d="M28.558,27.225c0.343,7.719-0.104,15.62,0.048,23.304
		c0.077,3.913,0.152,7.778,0,11.579c-0.149,3.74,0.311,7.514-0.097,11.242c-6.791,0.121-14.08,0-21.277,0
		c-1.218,0-2.447,0.058-3.667,0c-1.146-0.055-2.32,0.058-3.426-0.193c-0.178-7.62-0.095-15.429-0.096-23.159
		c-0.001-3.832-0.124-7.696,0.048-11.482c0.174-3.841-0.271-7.653,0.144-11.387c2.255-0.186,5.197-0.097,7.864-0.097
		C14.779,27.031,21.925,27.045,28.558,27.225z"/>
	<path style="fill-rule:evenodd;clip-rule:evenodd;" d="M32.803,73.399c-0.161-5.666-0.126-11.497-0.097-17.177
		c0.048-9.029-0.09-18.593,0.049-27.646c0.007-0.431-0.106-0.916,0.145-1.303c5.271-0.214,11.188-0.049,16.598-0.048
		c2.965,0,5.502,0.103,7.768,0.53c4.511,0.85,8.046,3.003,10.953,5.597c1.433,1.279,2.737,2.874,3.763,4.487
		c2.164,3.402,3.764,7.612,3.764,12.785c0,6.524-2.546,11.437-5.693,15.006c-0.651,0.738-1.274,1.562-1.979,2.171
		c-2.963,2.567-6.519,4.51-11.193,5.355c-2.359,0.428-4.98,0.415-7.768,0.387C43.916,73.489,38.207,73.563,32.803,73.399z"/>
</g>
<g id="Layer_1">
</g>
</svg>
