<?xml version="1.0" encoding="iso-8859-1"?>
<!-- Generator: Adobe Illustrator 19.2.0, SVG Export Plug-In . SVG Version: 6.00 Build 0)  -->
<svg version="1.1" xmlns="http://www.w3.org/2000/svg" xmlns:xlink="http://www.w3.org/1999/xlink" x="0px" y="0px"
	 viewBox="0 0 79.834 40.42" style="enable-background:new 0 0 79.834 40.42;" xml:space="preserve">
<g id="Ing_x5F_Franco_x5F_Crespi">
	<path style="fill-rule:evenodd;clip-rule:evenodd;" d="M44.336,0.103c0.391,2.134-0.062,5.111,0.247,7.328
		c0.448-0.059,0.711-0.513,0.99-0.793c3.277-3.277,7.363-6.233,13.715-6.535c7.175-0.342,12.018,2.81,15.595,6.387
		c1.228,1.227,2.155,2.748,3.07,4.307c0.457,0.78,0.829,1.617,1.139,2.525c0.304,0.893,0.685,1.865,0.692,2.872
		c-2.445,0.197-5.442,0.099-7.971,0.049c-0.846-1.407-1.53-2.783-2.574-3.96c-1.03-1.162-2.251-2.027-3.614-2.872
		c-1.919-0.963-4.312-1.278-6.635-1.04c-2.29,0.235-4.253,1.133-5.644,2.178c-2.92,2.195-5.365,5.624-5.001,10.694
		c0.225,3.128,1.526,5.444,3.268,7.278c1.783,1.879,4.022,3.262,6.882,3.664c7.091,0.997,11.041-2.818,13.22-7.575
		c1.314-0.097,2.734-0.062,4.108,0c1.386,0.063,2.815-0.245,4.011,0.099c-0.313,2.452-1.347,4.527-2.476,6.337
		c-1.121,1.799-2.592,3.362-4.208,4.704c-3.138,2.604-7.502,4.88-13.17,4.654c-5.685-0.227-9.58-2.243-12.823-5.001
		c-2.381-2.025-4.285-4.681-5.545-7.822c-0.425-1.061-0.562-2.237-1.139-3.317c-5.012-0.081-10.741-0.177-16.288,0
		c-0.225,1.138-0.147,2.422-0.1,3.713c0.146,3.893-0.028,8.3-0.099,12.081c-2.315,0.165-5.31,0.163-7.625,0
		c-0.278-5.216,0.075-10.718-0.247-15.794c-2.456-0.217-5.21-0.099-7.971-0.099c-1.367,0-2.758,0-4.11,0
		c-1.347,0-2.69,0.115-3.911-0.148c-0.165-2.381-0.163-5.441,0-7.822c5.427-0.271,10.691,0.127,16.042-0.198
		c0.289-0.631,0.108-1.435,0.147-2.03c0.178-2.7,1.449-5.073,2.624-6.783c1.301-1.891,2.746-3.426,4.704-4.654
		c1.901-1.192,4.175-2.285,6.932-2.426C34.681-0.108,39.997,0.064,44.336,0.103z M43.098,8.272c-2.065,0.047-4.186,0-6.238,0
		c-2.158,0-4.339-0.209-6.188,0.099c-1.925,0.321-3.768,1.519-4.753,2.872c-0.843,1.157-1.628,2.611-1.584,4.753
		c4.939,0.216,10.926,0.22,16.289,0.05c0.619-2.103,1.335-4.11,2.277-5.892c0.358-0.582,0.892-0.989,1.039-1.782
		C43.698,8.146,43.359,8.266,43.098,8.272z"/>
</g>
<g id="Layer_1">
</g>
</svg>
