<?xml version="1.0" encoding="iso-8859-1"?>
<!-- Generator: Adobe Illustrator 19.2.0, SVG Export Plug-In . SVG Version: 6.00 Build 0)  -->
<svg version="1.1" xmlns="http://www.w3.org/2000/svg" xmlns:xlink="http://www.w3.org/1999/xlink" x="0px" y="0px"
	 viewBox="0 0 32.394 81.579" style="enable-background:new 0 0 32.394 81.579;" xml:space="preserve">
<g id="ingenieursbureau_x5F_croot">
	<path style="fill-rule:evenodd;clip-rule:evenodd;" d="M21.229,0.121c0.173,7.553,0.1,15.516,0.101,23.295
		c0,3.871,0.085,7.747,0,11.546c-0.086,3.823,0.068,7.631-0.152,11.343c-3.254,0.047-6.925,0.16-9.976-0.05
		C11.021,31.981,11.15,17.652,11.15,2.805c0-0.912-0.114-1.87,0.203-2.734C14.511,0.02,18.154-0.081,21.229,0.121z"/>
	<path style="fill-rule:evenodd;clip-rule:evenodd;" d="M10.189,9.287c0.175,23.224,0.016,48.307-0.051,72.113
		c-1.528,0.273-3.372,0.152-5.115,0.152c-0.846,0-1.703-0.008-2.532,0c-0.85,0.009-1.722,0.094-2.431-0.203
		c-0.092-9.208-0.051-18.303-0.051-27.245c0-15.018-0.004-29.57,0.152-44.818C3.336,9.052,6.915,9.115,10.189,9.287z"/>
	<path style="fill-rule:evenodd;clip-rule:evenodd;" d="M32.319,17.693c0.096,17.386,0.12,35.611-0.051,53.123
		c-3.069,0.333-6.723,0.075-9.926,0.051c-0.272-1.053-0.152-2.152-0.152-3.241c0-15.49,0.05-31.352,0.051-46.843
		c0-1.068-0.124-2.156,0.152-3.19C25.603,17.522,29.172,17.531,32.319,17.693z"/>
</g>
<g id="Layer_1">
</g>
</svg>
