<?xml version="1.0" encoding="iso-8859-1"?>
<!-- Generator: Adobe Illustrator 19.2.0, SVG Export Plug-In . SVG Version: 6.00 Build 0)  -->
<svg version="1.1" xmlns="http://www.w3.org/2000/svg" xmlns:xlink="http://www.w3.org/1999/xlink" x="0px" y="0px"
	 viewBox="0 0 81.364 81.837" style="enable-background:new 0 0 81.364 81.837;" xml:space="preserve">
<g id="Ingstroi">
	<path style="fill-rule:evenodd;clip-rule:evenodd;" d="M43.277,0.183c0.188,2.412,0.104,5.133,0.104,7.821
		c-0.001,2.717,0.142,5.412,0.051,7.769c-0.023,0.593-0.209,1.261-0.414,1.761c-0.584,1.425-1.891,2.875-3.263,3.574
		c-2.002,1.021-5.046,1.036-7.148-0.103c-1.714-0.928-3.562-3.085-3.781-5.542c-0.104-1.165,0-2.521,0-3.885c0-2.571,0-5.265,0-7.77
		c0-1.301-0.159-2.568,0.155-3.678c2.161-0.106,5.196-0.121,7.563-0.052C38.879,0.148,41.154-0.2,43.277,0.183z"/>
	<path style="fill-rule:evenodd;clip-rule:evenodd;" d="M51.824,0.183c0.249,5.093,0.025,11.017,0.103,15.954
		c0.024,1.549,0.539,3.076,1.036,4.351c0.832,2.13,2.317,4.068,3.937,5.542c1.701,1.549,3.745,2.602,6.112,3.316
		c2.513,0.758,5.641,0.518,8.909,0.518c3.138,0,6.341-0.086,9.271,0.155c0.173,0.601,0.163,1.833,0,2.435
		c-6.528,0.534-14.261-0.782-19.113,1.191c-2.386,0.971-4.134,2.688-5.49,4.662c-1.366,1.987-2.372,4.619-2.228,7.925
		c0.127,2.899,1.296,5.453,2.693,7.2c1.466,1.83,3.415,3.261,5.698,4.144c2.491,0.964,5.586,0.933,8.909,0.933
		c3.257,0,6.454-0.127,9.53,0.103c0.168,0.564,0.168,1.767,0,2.33c-2.801,0.237-5.611,0.042-8.391,0.104
		c-2.753,0.062-5.658,0.193-8.133-0.259c-4.546-0.831-8.116-3.411-10.308-6.683c-1.112-1.661-2.05-3.786-2.383-6.112
		c-1.078-7.533,2.656-12.865,7.252-15.694c0.448-0.276,1.112-0.627,1.088-0.984c-0.029-0.433-1.232-0.84-1.503-0.983
		c-3.221-1.714-5.566-4.118-7.354-7.355c-0.201-0.363-0.636-1.389-1.036-1.399c-0.438-0.012-0.767,0.876-0.984,1.191
		c-0.367,0.535-0.569,0.84-0.932,1.191c-2.438,2.969-5.524,5.327-10.153,5.904c-5.112,0.638-9.281-1.075-12.172-3.521
		c-2.809-2.379-5.017-5.872-5.387-10.619c-0.184-2.36-0.104-5.014-0.104-7.718c0.001-2.595-0.118-5.273,0.156-7.821
		c0.511-0.165,1.612-0.165,2.124,0c0.57,4.992-0.31,10.654,0.258,15.642c0.521,4.576,3.128,7.651,6.164,9.79
		c1.738,1.033,3.74,1.643,6.164,1.812c2.387,0.168,4.885-0.424,6.579-1.295c1.641-0.844,3.184-2.057,4.402-3.573
		c1.156-1.439,2.224-3.411,2.538-5.439c0.197-1.273,0.081-2.709,0.052-4.092C49.04,8.8,49.114,4.355,49.234,0.183
		C49.939,0.067,51.22-0.09,51.824,0.183z"/>
	<path style="fill-rule:evenodd;clip-rule:evenodd;" d="M81.141,0.132c0.281,1.943,0.155,4.002,0.155,6.061
		c0.001,6.179,0.124,12.332-0.104,18.025c-3.3,0.204-7.535,0.104-11.292,0.104c-1.995,0-3.903,0.158-5.438-0.311
		c-1.518-0.464-2.584-1.195-3.626-2.072c-1.24-1.148-2.442-2.588-3.004-4.61c-0.335-1.202-0.26-2.667-0.26-4.195
		c0.001-3.645,0-7.414,0-11.085c0-0.658-0.144-1.407,0.208-1.968C65.386,0.018,73.958-0.063,81.141,0.132z"/>
	<path style="fill-rule:evenodd;clip-rule:evenodd;" d="M14.996,0.183c0.271,1.403,0.119,2.928,0.155,4.455
		c0.107,4.471-0.411,9.711,0.415,13.829c1.069,5.333,3.7,9.166,7.147,11.966c3.682,2.676,7.876,5.211,14.089,4.92
		c4.635-0.216,8.024-1.436,11.137-3.211c0.801-0.457,1.934-1.985,2.9-0.725c0.163,0.673-0.354,1.163-0.673,1.605
		c-2.171,3-3.99,7.098-3.885,12.432c0.111,5.686,2.323,10.342,5.024,13.622c2.794,3.394,6.811,5.738,11.758,6.94
		c2.634,0.641,5.754,0.414,8.909,0.415c3.082,0.001,6.225-0.086,9.22,0.104c0.191,4.836,0.241,10.11,0.052,15.073
		c-20.396,0.152-40.797,0.154-60.966,0.155c-3.413,0-6.836,0.102-10.204,0c-3.338-0.101-6.653,0.282-9.893-0.104
		c-0.276-6.72-0.156-13.53-0.156-20.356C0.028,40.893-0.067,20.35,0.129,0.235C4.853,0.056,10.584,0.092,14.996,0.183z"/>
	<path style="fill-rule:evenodd;clip-rule:evenodd;" d="M81.193,37.996c0.207,4.696,0.104,9.979,0.052,14.762
		c-3.401,0.149-7.579,0.194-11.344,0.155c-1.307-0.013-2.716,0.041-3.729-0.104c-1.797-0.256-3.061-1.227-4.144-2.175
		c-0.803-0.975-1.51-1.971-1.864-3.212c-0.637-2.225-0.099-4.601,0.983-6.164c1.217-1.756,3.479-3.15,6.268-3.366
		c2.209-0.172,4.595,0,6.941,0C76.664,37.891,78.983,37.806,81.193,37.996z"/>
</g>
<g id="Layer_1">
</g>
</svg>
