<?xml version="1.0" encoding="iso-8859-1"?>
<!-- Generator: Adobe Illustrator 19.2.0, SVG Export Plug-In . SVG Version: 6.00 Build 0)  -->
<svg version="1.1" xmlns="http://www.w3.org/2000/svg" xmlns:xlink="http://www.w3.org/1999/xlink" x="0px" y="0px"
	 viewBox="0 0 56.151 80.962" style="enable-background:new 0 0 56.151 80.962;" xml:space="preserve">
<g id="inhilco">
	<path style="fill-rule:evenodd;clip-rule:evenodd;" d="M40.999,16.309c-1.943,0.203-3.712,0.303-5.402,0.656
		c-4.805,1.006-8.79,3.337-11.764,6.31c-3.951,3.951-7.119,9.262-7.119,16.965c0,7.678,3.177,13.022,7.119,16.964
		c4.057,4.056,9.453,6.666,17.116,6.967c0.184,3.998,0.101,8.438,0.101,12.673c0,1.408,0.118,2.805-0.151,4.09
		c-6.449,0.258-12.114-1.307-16.762-3.383c-9.322-4.163-16.07-10.979-20.397-20.195c-2.171-4.623-3.666-10.059-3.736-16.56
		c-0.07-6.496,1.373-12.151,3.534-16.762C7.905,14.718,14.346,8.043,23.732,3.637c2.187-1.026,4.745-2.044,7.522-2.625
		c2.902-0.608,6.188-1.005,9.29-1.01c0.017,0,0.034,0.001,0.05,0c0.607-0.055,0.517,1.122,0.505,1.666
		C41.001,6.085,41.213,12.203,40.999,16.309z"/>
	<path style="fill-rule:evenodd;clip-rule:evenodd;" d="M48.068,25.296c-1.336-0.374-2.64-0.921-4.04-1.212
		c-4.977-1.033-9.569,0.578-12.47,2.575c-3.794,2.613-7.348,7.172-7.22,13.632c0.128,6.435,3.217,10.895,7.271,13.633
		c2.954,1.994,7.486,3.522,12.521,2.524c0.715-0.143,1.369-0.369,2.02-0.606c0.624-0.228,1.258-0.501,1.919-0.556
		c0.166,1.823,0.168,4.337,0,6.16c-0.619,0.488-1.47,0.67-2.222,0.858c-2.412,0.604-5.574,0.834-8.381,0.454
		c-3.555-0.481-6.637-1.781-9.038-3.282c-4.898-3.059-8.789-8.051-10.149-14.439c-1.668-7.84,1.127-14.682,4.544-19.034
		c1.758-2.239,4.078-4.207,6.715-5.605c3.756-1.989,8.819-3.504,14.541-2.523c1.458,0.249,2.846,0.555,3.989,1.16
		C48.235,20.893,48.235,23.438,48.068,25.296z"/>
	<path style="fill-rule:evenodd;clip-rule:evenodd;" d="M40.292,24.893c4.73-0.225,8.733,1.917,11.107,4.291
		c2.542,2.542,4.628,5.712,4.746,10.602c0.117,4.856-1.682,8.498-4.241,11.058c-2.585,2.585-5.917,4.666-10.552,4.796
		c-4.892,0.138-8.489-1.675-11.108-4.19c-2.551-2.45-4.649-5.883-4.796-10.552c-0.155-4.947,1.722-8.74,4.19-11.209
		C32.176,27.152,35.326,25.128,40.292,24.893z"/>
</g>
<g id="Layer_1">
</g>
</svg>
