<?xml version="1.0" encoding="iso-8859-1"?>
<!-- Generator: Adobe Illustrator 19.2.0, SVG Export Plug-In . SVG Version: 6.00 Build 0)  -->
<svg version="1.1" xmlns="http://www.w3.org/2000/svg" xmlns:xlink="http://www.w3.org/1999/xlink" x="0px" y="0px"
	 viewBox="0 0 80.138 70.026" style="enable-background:new 0 0 80.138 70.026;" xml:space="preserve">
<g id="instituto_x5F_mexicano_x5F_de_x5F_opinion_x5F_publica">
	<path style="fill-rule:evenodd;clip-rule:evenodd;" d="M73.392,12.189c0.493-0.152,0.75,0.363,1.007,0.654
		c1.315,1.484,2.784,2.936,4.228,4.379c0.565,0.564,1.187,1.178,1.511,1.912c-0.194,0.584-0.694,1.037-1.108,1.461
		c-1.223,1.254-2.575,2.481-3.825,3.775c-0.682,0.443-0.935,1.314-1.862,1.51c-0.502-0.785,0.285-2.449-0.303-3.07
		c-0.378-0.4-2.96-0.246-3.775-0.303c-6.447-0.451-10.558-2.764-14.246-5.99c-1.466-1.281-2.819-2.693-4.329-3.775
		c-3.418-2.449-6.808-4.016-11.428-4.783c-4.291-0.711-8.882-0.326-12.534,0.807c-0.436,0.135-1.182,0.533-1.51,0.504
		c-0.5-0.045-0.81-0.863-1.108-1.359c-0.178-0.297-0.636-1.424-1.006-1.41c-0.407,0.016-0.779,1.619-0.906,2.113
		c-0.462,1.797-0.805,2.984-1.259,4.732c-0.163,0.627-0.408,2.115-0.805,2.166c-0.367,0.045-0.753-0.799-0.907-1.059
		c-0.248-0.418-0.455-1.017-0.855-1.057c-0.506-0.049-1.626,1.033-2.114,1.459c-1.891,1.654-3.451,3.725-4.731,5.84
		c-1.784,2.947-3.248,6.234-3.726,10.371c-0.128,1.104-0.27,2.174-0.353,3.221c-0.087,1.117,0.105,2.238,0.202,3.322
		c0.569,6.326,3.165,11.018,6.242,14.9c0.822,1,1.908,2.06,3.02,3.021c0.31,0.267,0.919,0.705,0.957,1.057
		c0.06,0.561-0.46,1.039-0.705,1.461c-0.301,0.514-0.541,0.893-0.654,1.51c0.732,0.295,1.535-0.092,2.266-0.252
		c1.53-0.336,3.061-0.668,4.581-1.057c0.714-0.184,1.485-0.488,2.215-0.354c0.32,0.881-0.91,1.475-0.806,2.266
		c0.087,0.66,1.776,1.012,2.617,1.258c2.881,0.848,6.845,1.322,10.37,0.957c4.708-0.488,8.433-2.043,11.528-3.926
		c6.523-3.967,10.7-10.131,12.635-18.274c1.87-0.467,3.828-0.85,5.588-1.461c0.571-0.197,1.17-0.496,1.762-0.352
		c0.254,0.74,0.071,1.541-0.05,2.266c-0.361,2.152-0.908,4.275-1.611,6.191c-0.498,1.357-0.817,2.629-1.409,3.826
		c-2.807,5.678-7.039,10.434-12.232,13.793c-4.237,2.74-9.298,4.697-15.455,5.387c-6.012,0.672-11.521-0.447-15.856-2.115
		c-0.458-0.176-1.423-0.729-1.913-0.654c-0.455,0.068-0.861,0.957-1.107,1.359c-0.349,0.572-0.509,1.17-1.058,1.41
		c-0.447-0.598-0.588-1.439-0.755-2.215c-0.338-1.576-0.726-3.225-1.108-4.834c-0.182-0.762-0.316-1.596-0.805-2.164
		c-0.413,0.203-0.609,0.627-0.907,1.107c-0.192,0.313-0.518,1.07-0.905,1.107c-0.415,0.039-1.279-0.773-1.611-1.057
		c-3.3-2.811-6.34-6.475-8.306-10.371c-1.9-3.477-3.238-7.344-3.876-12.131C-0.81,30.957,1.29,22.855,4.527,17.574
		c2.415-3.938,5.061-7.15,8.608-10.066c0.416-0.342,1.317-0.853,1.359-1.26c0.094-0.898-1.448-1.988-1.259-2.92
		c0.83-0.109,1.598,0.283,2.366,0.504c1.523,0.438,3.056,0.812,4.581,1.258c0.74,0.217,1.529,0.51,2.315,0.404
		c0.026-1.02-0.894-1.524-1.007-2.568c0.66-0.719,1.795-0.926,2.819-1.258c2.514-0.818,5.404-1.406,8.608-1.611
		c4.934-0.314,9.751,0.73,13.39,2.014c5.02,1.771,8.9,4.299,12.384,7.5c1.144,1.051,2.229,2.182,3.574,3.07
		c1.865,1.234,4.424,2.266,7.702,2.266c0.999,0,2.698,0.225,3.121-0.15C73.599,14.304,73.041,12.883,73.392,12.189z"/>
	<path style="fill-rule:evenodd;clip-rule:evenodd;" d="M72.838,29.556c0.633-0.51,0.029-2.254,0.504-2.92
		c0.451-0.082,0.703,0.397,0.956,0.654c1.373,1.4,2.736,2.912,4.128,4.379c0.542,0.57,1.226,1.082,1.561,1.812
		c-0.267,0.773-1.011,1.262-1.561,1.812c-1.119,1.119-2.268,2.201-3.373,3.373c-0.526,0.559-1.02,1.266-1.762,1.51
		c-0.527-0.496-0.04-2.008-0.353-2.719c-1.302-0.375-2.734-0.141-4.027-0.15c-1.434-0.012-2.85-0.268-4.178-0.453
		c-7.938-1.109-14.047-4.654-18.928-8.811c-0.824-0.701-1.491-1.543-2.316-2.266c-2.466-2.162-6.222-4.039-11.125-3.221
		c-0.945-0.766-1.123-2.301-2.113-3.021c-0.49,0.473-0.632,1.363-0.856,2.166c-0.449,1.605-0.782,2.98-1.309,4.682
		c-0.165,0.531-0.37,2.103-0.806,2.164c-0.65,0.09-0.921-1.752-1.51-1.812c-0.473-0.047-0.941,0.822-1.158,1.108
		c-0.915,1.197-1.73,3.033-2.063,4.682c-0.746,3.691,0.325,7.119,1.862,9.414c0.366,0.547,1.022,1.025,1.057,1.711
		c0.054,1.041-1.38,2.137-1.409,3.172c0.724,0.289,1.499-0.119,2.215-0.303c1.467-0.375,3.035-0.666,4.581-1.057
		c0.737-0.186,1.478-0.529,2.215-0.402c0.277,0.762-0.927,1.297-0.705,2.064c0.115,0.393,1.222,0.467,1.763,0.502
		c5.629,0.379,9.817-2.854,11.779-6.342c0.3-0.533,0.44-1.201,0.956-1.611c1.8,0.123,3.567,0.672,5.537,0.756
		c0.628,0.025,1.309-0.1,1.763,0.301c0.077,0.727-0.267,1.396-0.504,2.014c-0.692,1.803-1.755,3.465-2.92,4.883
		c-2.38,2.949-5.08,5.279-9.061,6.596c-3.539,1.17-7.903,1.43-11.83,0.453c-0.455-0.113-1.193-0.4-1.56-0.354
		c-0.951,0.125-1.357,2.338-2.165,2.668c-0.689-0.471-0.529-1.48-0.704-2.266c-0.34-1.525-0.748-3.1-1.158-4.682
		c-0.197-0.762-0.333-1.562-0.755-2.164c-0.462,0.131-0.628,0.654-0.906,1.107c-0.218,0.358-0.494,1.066-0.906,1.108
		c-0.542,0.055-1.375-1.082-1.61-1.358c-3.03-3.559-5.841-8.273-5.387-15.203c0.214-3.266,1.159-6.004,2.417-8.307
		c0.869-1.594,2.095-3.303,3.423-4.631c0.385-0.385,1.205-0.906,1.258-1.41c0.104-0.973-1.344-1.951-1.208-2.869
		c0.772-0.203,1.537,0.203,2.266,0.402c1.497,0.41,2.987,0.83,4.481,1.258c0.727,0.209,1.502,0.518,2.265,0.404
		c0.025-0.99-0.856-1.486-0.956-2.518c0.497-0.475,1.359-0.619,2.164-0.756c1.711-0.289,3.441-0.502,5.538-0.352
		c3.682,0.264,6.922,1.508,9.363,3.121c2.449,1.617,4.272,3.824,6.745,5.688C57.701,27.523,63.839,30.023,72.838,29.556z"/>
</g>
<g id="Layer_1">
</g>
</svg>
