<?xml version="1.0" encoding="iso-8859-1"?>
<!-- Generator: Adobe Illustrator 19.2.0, SVG Export Plug-In . SVG Version: 6.00 Build 0)  -->
<svg version="1.1" xmlns="http://www.w3.org/2000/svg" xmlns:xlink="http://www.w3.org/1999/xlink" x="0px" y="0px"
	 viewBox="0 0 77.732 75.657" style="enable-background:new 0 0 77.732 75.657;" xml:space="preserve">
<g id="Institute_x5F_of_x5F_Art_x5F_Studies">
	<path style="fill-rule:evenodd;clip-rule:evenodd;" d="M25.989,0.404c0.367,0.932,0.204,1.991,0.204,2.959
		C26.195,22.816,26.04,42.96,26.041,62.8c0,2.385,0.319,3.806,1.428,4.898c1.014,0.997,2.574,1.463,4.49,1.786
		c4.135,0.696,7.722-0.512,10.357-1.99c2.719-1.524,4.843-3.58,6.428-6.173c1.592-2.605,2.87-5.776,2.908-9.745
		c0.039-4.004-1.167-7.173-2.806-9.795c-1.578-2.523-3.952-4.453-6.479-6.173C37.333,32.18,32.493,28.533,31.5,21.22
		c-0.539-3.963,0.088-7.649,1.479-10.612c1.312-2.794,3.135-5.307,5.561-7.041c1.272-0.909,2.647-1.553,4.132-2.193
		c1.536-0.662,3.228-1.185,5.153-1.327c3.65-0.269,6.798,0.653,9.337,1.786c3.331,1.486,5.69,3.599,8.01,5.918
		c1.365,1.366,2.852,2.693,4.082,4.235c3.254,4.077,5.927,8.876,7.347,14.897c0.729,3.092,1.207,6.465,1.123,10
		c-0.167,6.942-1.749,12.968-4.388,17.856c-3.831,7.097-9.512,12.767-16.734,16.632c-4.725,2.529-10.792,4.286-17.958,4.286
		c-3.39,0-6.827-0.621-9.745-1.378c-5.848-1.516-10.481-4.246-14.643-7.602c-2.473-1.991-4.659-4.278-6.53-6.836
		c-0.942-1.288-1.95-2.578-2.704-3.979C4.249,54.425,3.639,52.93,2.98,51.27c-1.221-3.076-2.346-6.667-2.755-10.612
		c-0.402-3.88-0.285-8.392,0.51-12.295c0.541-2.657,1.549-5.253,2.449-7.602c0.324-0.845,0.571-1.617,0.969-2.347
		c0.817-1.498,1.579-2.877,2.5-4.184c0.915-1.297,1.886-2.447,2.959-3.673c3.07-3.509,6.648-6.721,11.275-8.724
		C22.445,1.158,24.155,0.533,25.989,0.404z M21.296,3.465C18.49,4.781,16.158,6.779,14,8.72c-2.886,2.596-5.519,5.749-7.449,9.285
		c-1.518,2.783-2.695,5.516-3.52,9.03c-0.265,1.128-0.47,2.309-0.663,3.521c-0.761,4.782-0.456,10.311,0.714,15
		c0.572,2.289,1.17,4.35,2.04,6.326c1.703,3.866,4.074,7.211,6.684,10.051c1.322,1.438,2.806,2.633,4.388,3.979
		c2.946,2.509,6.531,4.502,10.765,5.969c4.232,1.466,9.048,2.412,14.489,2.04c4.85-0.331,9.522-1.662,13.163-3.52
		c5.585-2.851,10.328-6.496,13.775-11.326c1.16-1.626,2.217-3.252,3.265-5.102c0.969-1.71,1.951-3.769,2.5-5.867
		c0.57-2.182,1.279-4.397,1.581-6.785c0.661-5.22,0.074-10.759-1.122-15c-1.221-4.328-3.082-8.155-5.408-11.326
		c-2.37-3.231-5.005-5.865-8.163-8.571c-2.19-1.878-4.991-3.393-8.367-4.184c-2.245-0.526-4.474-0.607-6.684-0.153
		c-4.398,0.904-7.43,3.306-9.745,6.326c-0.836,1.092-1.872,2.778-2.296,4.133c-0.516,1.651-1.02,3.421-1.021,5.357
		c0,2.045,0.196,3.854,0.816,5.612c1.11,3.147,2.927,5.66,5.306,7.551c1.788,1.421,3.756,2.677,5.561,4.03
		c0.599,0.449,1.14,0.997,1.734,1.479c2.575,2.089,4.145,4.171,5.51,7.347c1.294,3.009,1.91,7.188,1.173,10.969
		c-0.696,3.572-2.089,6.48-4.03,8.826c-1.906,2.303-4.098,4.518-7.092,5.714c-1.542,0.616-3.11,1.239-4.898,1.531
		c-1.783,0.292-3.834,0.283-5.969-0.051c-3.759-0.588-6.325-2.212-6.633-6.173c-0.08-1.028-0.083-2.047-0.051-3.061
		c0.033-1.022-0.041-2.05-0.051-3.061c-0.021-2.048,0.142-4.013,0.051-6.174c-0.175-4.179-0.064-8.493,0-12.704
		c0.062-4.118,0.051-8.182,0.051-12.193c0-7.427,0.051-14.837,0.051-22.142c0-0.99,0.168-1.981-0.102-2.908
		C23.22,2.458,22.208,3.037,21.296,3.465z"/>
</g>
<g id="Layer_1">
</g>
</svg>
