<?xml version="1.0" encoding="iso-8859-1"?>
<!-- Generator: Adobe Illustrator 19.2.0, SVG Export Plug-In . SVG Version: 6.00 Build 0)  -->
<svg version="1.1" xmlns="http://www.w3.org/2000/svg" xmlns:xlink="http://www.w3.org/1999/xlink" x="0px" y="0px"
	 viewBox="0 0 75.869 31.532" style="enable-background:new 0 0 75.869 31.532;" xml:space="preserve">
<g id="Institut_x5F_fur_x5F_Latin-Amerikanische_x5F_Studien_x5F_der_x5F_Universitat_x5F_St_x5F_Gallen">
	<path style="fill-rule:evenodd;clip-rule:evenodd;" d="M32.225,16.093c-1.699,3.376-3.114,6.311-4.874,9.555
		c-0.556,1.024-1.023,2.139-1.689,3.089c-1.188,1.694-2.771,2.413-5.453,2.413c-2.521,0-4.908-0.018-7.528,0
		c-2.889,0.018-5.452,0.152-7.674-0.048c-2.233-0.202-3.758-1.564-4.487-3.33c-0.714-1.726-0.483-4.827-0.483-7.384
		c0.001-3.927,0-7.796,0-11.727c0-1.309-0.046-2.624,0.097-3.812c0.299-2.48,2.433-5.068,5.743-4.585
		c2.396,0.35,3.856,1.961,4.344,3.909c0.297,1.187,0.192,2.742,0.192,4.247c0.001,3.677,0,7.24,0,11.1
		c0,0.707-0.003,1.526,0.387,1.834c0.607,0.481,2.314,0.193,3.281,0.193c1.226,0,2.482,0.239,3.33-0.048
		c0.604-0.205,1.114-1.085,1.496-1.738c2.692-4.605,5.512-9.627,8.156-14.236c1.423-2.561,2.707-5.175,6.273-5.501
		c2.019-0.185,3.826,0.779,4.825,1.834c0.679,0.715,1.154,1.785,1.737,2.75c1.676,2.773,3.354,5.877,4.923,8.542
		c1.588,2.696,3.328,5.73,4.971,8.494c0.554,0.931,1.226,1.875,1.593,2.896c0.921,2.558-0.252,4.878-1.786,6.033
		c-1.438,1.082-4.199,1.316-5.983,0.193c-1.189-0.749-2.028-2.322-2.848-3.764c-2.104-3.705-3.972-6.726-6.032-10.473
		c-0.325-0.589-0.799-1.964-1.304-1.978C32.673,14.527,32.72,15.638,32.225,16.093z"/>
	<path style="fill-rule:evenodd;clip-rule:evenodd;" d="M57.658,0.457c3.271-0.162,7.506,0,11.148,0
		c1.639,0,3.194,0.015,4.295,0.531c1.842,0.865,3.444,3.828,2.317,6.515c-0.55,1.309-1.902,2.539-3.668,2.751
		c-1.804,0.216-4.185,0.048-6.37,0.048c-0.826,0-1.84-0.104-2.22,0.29c-0.294,0.305-0.478,1.357-0.049,1.882
		c0.567,0.694,3.294,0.386,4.488,0.386c1.389,0,3.182-0.238,4.729,0.145c2.498,0.617,4.566,3.757,2.992,6.756
		c-0.597,1.137-2.021,2.433-3.958,2.51c-1.9,0.076-4.036,0-6.128,0c-0.612,0-1.672-0.067-1.979,0.145
		c-0.502,0.347-0.397,1.535-0.387,2.365c0.019,1.386,0.013,2.702-0.386,3.668c-1.077,2.608-4.634,4.066-7.48,2.268
		c-0.994-0.627-2.031-1.913-2.316-3.378c-0.305-1.566-0.097-3.59-0.097-5.405c0.001-3.578,0-7.387,0-11.003
		c0.001-2.809-0.334-5.963,0.628-7.818C53.931,1.735,55.508,0.564,57.658,0.457z"/>
	<path style="fill-rule:evenodd;clip-rule:evenodd;" d="M37.437,22.994c1.908,2.035,1.322,5.594-0.338,7.191
		c-3.074,2.957-8.57,0.771-8.542-3.909c0.007-1.098,0.288-1.938,0.724-2.654c0.707-1.158,2.249-2.392,4.247-2.461
		C35.317,21.099,36.43,22.143,37.437,22.994z"/>
</g>
<g id="Layer_1">
</g>
</svg>
