<?xml version="1.0" encoding="iso-8859-1"?>
<!-- Generator: Adobe Illustrator 19.2.0, SVG Export Plug-In . SVG Version: 6.00 Build 0)  -->
<svg version="1.1" xmlns="http://www.w3.org/2000/svg" xmlns:xlink="http://www.w3.org/1999/xlink" x="0px" y="0px"
	 viewBox="0 0 82.385 50.394" style="enable-background:new 0 0 82.385 50.394;" xml:space="preserve">
<g id="Instituto_x5F_Brasileiro_x5F_de_x5F_Mercado_x5F_de_x5F_Capitais">
	<path style="fill-rule:evenodd;clip-rule:evenodd;" d="M49.642,50.23c-1.593-1.096-2.7-2.545-4.147-3.939
		c-1.003-0.967-1.899-1.938-3.058-3.007c-0.367-0.339-0.791-0.881-1.141-0.881c-0.57,0-1.746,1.538-2.125,1.917
		c-1.429,1.428-2.627,2.505-4.044,3.992c-0.393,0.413-1.475,1.749-2.073,1.918c-0.9,0.254-2.748,0.104-3.888,0.104
		c-2.873,0-5.052,0.051-7.827,0.052c-1.357,0-2.948,0.042-4.146-0.052c-0.865-0.519-1.558-1.287-2.28-1.97
		c-0.719-0.679-1.455-1.43-2.074-2.177c-1.242-1.5-2.795-2.824-4.25-4.25c-0.706-0.691-1.405-1.442-2.125-2.125
		c-1.484-1.409-2.774-2.67-4.303-4.199c-0.595-0.595-1.792-1.525-1.97-2.281c-0.267-1.133-0.065-2.744-0.104-3.94
		c-0.088-2.77-0.019-5.354,0-8.19c0.007-1.067-0.23-2.938,0.052-3.939c0.163-0.579,0.992-1.199,1.503-1.711
		C5.353,11.839,9.051,8.1,12.683,4.459c1.33-1.47,2.625-2.974,4.251-4.147c5.241-0.101,10.471-0.087,15.913-0.104
		c2.192,1.765,4.036,3.834,6.168,5.858c0.3,0.284,1.55,1.842,2.126,1.866c0.561,0.024,1.849-1.538,2.177-1.866
		c0.719-0.718,1.345-1.397,1.97-2.022c1.413-1.413,2.585-2.778,4.095-3.94c4.655,0.008,8.756-0.052,13.529-0.051
		c0.775,0,1.638-0.12,2.28,0c0.722,0.134,1.487,1.279,2.229,2.021c3.623,3.624,7.107,6.849,10.678,10.419
		c0.647,0.646,1.369,1.384,2.125,2.126c0.615,0.602,1.838,1.522,2.022,2.177c0.281,1,0.053,2.995,0.053,4.147
		c0,2.907-0.101,5.247-0.053,8.242c0.019,1.201,0.216,2.929,0,3.94c-0.15,0.708-1.361,1.672-1.969,2.28
		c-2.139,2.139-4.18,4.231-6.272,6.324c-2.032,2.032-4.148,4.059-6.272,6.324c-0.625,0.667-1.511,1.828-2.177,2.021
		c-0.536,0.156-1.306,0.027-2.021,0.052C58.966,50.283,54.225,50.207,49.642,50.23z M52.337,1.297c-0.844,0-1.816-0.125-2.436,0.052
		c-0.661,0.189-1.504,1.296-2.125,1.918c-4.209,4.209-7.941,8.147-12.182,12.233c-0.611,0.59-1.728,1.437-1.918,2.177
		c-0.235,0.917-0.052,2.177-0.052,3.266c0,2.416,0,4.441,0,6.687c0,1.076-0.124,2.163,0.155,3.214
		c0.81-0.364,1.324-1.117,1.918-1.71c0.613-0.613,1.286-1.168,1.814-1.866c6.077-6.104,12.161-12.202,18.143-18.401
		c1.205-1.231,2.387-2.486,3.68-3.628c0.856-0.981,1.767-1.902,2.645-2.799c0.298-0.305,0.799-0.563,0.777-1.089
		C59.563,1.103,55.964,1.298,52.337,1.297z M21.65,1.452c-1.297,0-2.621-0.191-3.784-0.052c-0.887,0.107-1.298,0.78-1.918,1.4
		C12.366,6.383,8.684,10.264,5.27,13.634c-1.354,1.393-2.889,2.606-3.991,4.25c0,3.42,0,7.175,0,10.574
		c0,1.202-0.033,2.369,0.207,3.266c0.86-0.314,1.389-1.127,1.97-1.762c1.797-1.963,3.781-3.735,5.599-5.65
		c1.203-1.268,2.591-2.408,3.68-3.784c1.104-1.394,2.534-2.486,3.733-3.784c4.486-4.861,9.361-9.464,13.995-14.099
		c0.304-0.304,0.77-0.643,0.777-1.14C28.185,1.259,24.767,1.453,21.65,1.452z M76.803,12.96c-1.252-1.227-2.537-2.538-3.888-3.888
		c-1.894-1.894-4.025-3.726-5.909-5.754c-0.359-0.387-1.7-2.079-2.28-1.71c-1.392,0.885-2.32,2.32-3.474,3.421
		c-0.586,0.522-1.049,1.023-1.71,1.711c-0.33,0.344-1.679,1.223-1.659,1.814c0.011,0.299,0.602,0.815,0.934,1.141
		c2.225,2.181,4.29,4.039,6.323,6.272c0.338,0.37,0.885,0.755,0.985,1.14c0.114,0.439,0,1.129,0,1.711
		c0,4.219-0.144,8.376,0.207,12.544c0.828-0.295,1.324-1.065,1.918-1.659c1.816-1.816,3.543-3.646,5.339-5.443
		c1.804-1.804,3.571-3.674,5.339-5.442c0.597-0.597,1.312-1.15,1.711-1.918C79.574,15.481,78.141,14.271,76.803,12.96z
		 M26.057,8.917c0.925,1.422,2.295,2.452,3.473,3.628c0.585,0.585,1.189,1.166,1.763,1.763c0.579,0.603,1.096,1.35,1.918,1.659
		c0.692-0.426,1.243-1.048,1.814-1.607c0.585-0.572,1.169-1.148,1.711-1.763c0.584-0.564,1.111-1.059,1.763-1.71
		c0.316-0.316,1.621-1.36,1.607-1.866c-0.008-0.269-0.548-0.755-0.777-0.985c-0.946-0.947-1.857-1.728-2.695-2.592
		c-0.525-0.558-1.072-1.129-1.763-1.762c-0.506-0.465-1.329-1.541-2.021-1.607C30.528,4.301,28.21,6.526,26.057,8.917z
		 M58.92,11.508c-0.476-0.476-1.746-2.181-2.385-1.762c-0.622,0.408-1.061,1.05-1.606,1.659c-1.045,1.163-2.146,2.188-3.317,3.317
		c-0.482,0.464-1.439,1.159-1.607,1.711c-0.154,0.507-0.068,1.342-0.052,2.022c0.083,3.436,0,6.635,0,10.212
		c0,1.269-0.241,3.12,0.052,4.146c0.177,0.618,1.189,1.448,1.763,2.022c1.354,1.354,2.589,2.444,3.784,3.784
		c0.6,0.673,1.208,1.374,2.021,1.763c1.44-1.031,2.509-2.433,3.784-3.629c0.555-0.694,1.25-1.153,1.865-1.814
		c0.47-0.505,1.52-1.329,1.711-2.021c0.131-0.477,0.043-1.169,0.052-1.814c0.062-4.219-0.1-9.382-0.052-13.529
		C63.207,15.521,60.934,13.524,58.92,11.508z M24.761,10.161c-1.3,1.187-2.581,2.397-3.784,3.68
		c-1.202,1.282-2.573,2.409-3.629,3.836c-0.002,5.132-0.056,10.3,0.104,15.24c0.991,1.41,2.456,2.611,3.888,4.043
		c0.908,0.908,2.035,1.983,3.007,2.955c0.311,0.31,0.772,0.906,1.141,0.881c0.242-0.017,0.699-0.551,0.933-0.778
		c0.939-0.911,1.709-1.762,2.54-2.592c0.548-0.487,1.088-1.101,1.711-1.71c0.551-0.54,1.412-1.13,1.606-1.866
		c0.301-1.138,0.052-2.813,0.052-4.147c0-2.898-0.092-5.36,0-8.294c0.035-1.11,0.212-3.249-0.052-4.146
		c-0.169-0.576-1.076-1.241-1.71-1.918c-1.228-1.309-2.362-2.362-3.629-3.628c-0.576-0.576-1.446-1.581-2.021-1.659
		C24.854,10.082,24.798,10.112,24.761,10.161z M78.824,20.683c-4.34,4.34-8.695,8.796-12.854,13.114
		c-2.442,2.536-4.911,5.014-7.361,7.464c-2.179,2.18-4.293,4.449-6.427,6.583c-0.267,0.266-0.785,0.543-0.727,1.037
		c1.047,0.257,2.184,0.187,3.317,0.155c2.291-0.064,4.383-0.104,6.843-0.104c0.991,0,2.633,0.219,3.473-0.051
		c0.664-0.214,1.481-1.378,2.073-1.97c2.782-2.782,5.479-5.431,8.087-8.139c0.668-0.694,1.312-1.415,1.97-2.073
		c1.379-1.379,2.853-2.627,3.939-4.198c0-3.388-0.001-7.043,0-10.419c0-1.189,0.16-2.433-0.208-3.318c-0.034,0-0.068,0-0.104,0
		C80.124,19.235,79.534,19.974,78.824,20.683z M15.896,19.18c-3.667,3.417-7.03,7.138-10.574,10.678
		c-1.097,1.253-2.476,2.224-3.369,3.68c1.069,1.488,2.557,2.558,3.784,3.888c2.96,2.769,5.692,5.746,8.604,8.657
		c0.426,0.426,0.961,0.854,1.503,1.399c0.388,0.39,1.049,1.364,1.555,1.348c0.331-0.01,0.666-0.51,0.934-0.777
		c1.569-1.57,2.843-2.739,4.406-4.302c0.316-0.317,1.621-1.411,1.606-1.918c-0.008-0.291-0.61-0.817-0.933-1.141
		c-1.893-1.892-3.354-3.404-5.235-5.183c-0.513-0.484-1.823-1.54-1.971-2.229c-0.114-0.537,0.001-1.177,0-1.763
		c0-3.497,0.001-7.394,0-10.781c0-0.503,0.149-1.141-0.259-1.555C15.931,19.18,15.914,19.18,15.896,19.18z M33.831,34.316
		c-4.498,4.54-9.147,9.147-13.632,13.632c-0.28,0.28-0.781,0.542-0.726,1.037c4.061,0.332,8.803,0.035,13.01,0.052
		c0.858-0.449,1.463-1.247,2.126-1.918c2.04-2.065,4.081-4.081,6.116-6.116c2.712-2.712,5.497-5.356,7.982-8.294
		c0-3.238,0-6.786,0-10.004c0-1.162,0.142-2.292-0.155-3.11c-0.034,0-0.069,0-0.104,0C43.419,24.344,38.68,29.384,33.831,34.316z
		 M51.196,35.923c-0.447-0.488-1.319-1.604-1.97-1.659c-0.092-0.008-0.18,0.046-0.207,0.104c-1.668,1.683-3.452,3.384-5.132,5.132
		c-0.344,0.357-1.588,1.385-1.555,1.866c0.025,0.381,1.016,1.068,1.295,1.348c1.409,1.409,2.656,2.799,4.044,4.043
		c0.556,0.276,1.172,1.728,1.918,1.71c0.291-0.007,0.663-0.508,0.933-0.777c0.906-0.906,1.858-1.755,2.644-2.54
		c1.293-1.293,2.407-2.435,3.266-3.68C55.194,39.591,52.869,37.745,51.196,35.923z"/>
</g>
<g id="Layer_1">
</g>
</svg>
