<svg id="Layer_1" data-name="Layer 1" xmlns="http://www.w3.org/2000/svg" viewBox="0 0 113.35 103.44"><defs><style>.cls-1{fill-rule:evenodd;}</style></defs><title>Instituto_Mexicano_del_Seguro_Social_logo</title><path class="cls-1" d="M89.49,42.6c-11.92,12.8-5.32,18.25-.09,28.74a45,45,0,0,1,4.11,24.8c-2.12-15.34-10.7-28.29-15.25-34C73.72,55.61,72.14,55,89.49,42.6Zm37.28,1.78c-1-19.26-6-23-22.13-24.27-13.15-.56-23.23-.94-33.78-1s-20.63.4-33.78,1c-16.15,1.28-21.17,5-22.13,24.27-.57,8.8-.81,17.68-.76,26.49s.19,17.69.76,26.49c1,19.26,6,23,22.13,24.27,13.15.56,23.23.94,33.78,1s20.63-.4,33.78-1c16.15-1.28,21.17-5,22.13-24.27.57-8.8.81-17.68.76-26.49S127.35,53.17,126.77,44.38Zm-43,73c7.08-.11,16.64-3.32,20.46-11.48,7.5-14.72,11.73-33.72,13.17-49.18.7-7.47,2.71-23.74-4.64-29.3-3.58-2.71-7.37-2.94-12.61-.78-6.78,3.58-15,11.84-26.87,20.28-5.09,3.43-9.87,6.53-13.78,8.61a60.08,60.08,0,0,1-9.65,3.64C55.21,55.6,60.26,52,58.91,51c-11.82,2.61-22.82-1.07-29.83,4.67a.33.33,0,0,0,.06.5,59.65,59.65,0,0,1,6.73,0c.44.05.45.11.08.43-1.35,1.12-3.47,2.91-4.43,3.24a1.87,1.87,0,0,1-.87-.34c-1-.54-1.8-1.56-2.76-2a9.68,9.68,0,0,0-4.38,1.86,2.37,2.37,0,0,0-1,2.51,11.07,11.07,0,0,0,2,3.72c.21-1.72,2.13-1.82,3.2-1.92a147.68,147.68,0,0,1,26.16,1.67C70.24,67.82,83.63,77.81,88,90.09,91.44,98.67,90.64,108.35,83.76,117.34Zm-22.83-3.89a9.25,9.25,0,0,0,3.81-1.18c1.28-.79.91-1.26.25-1.31a12.68,12.68,0,0,0-2.59.33,5.54,5.54,0,0,1-2.2.07c-1,0-.84-.54-.32-1,1.45-.94,1-1.66-.17-1.16-1,.23-2.77,1.64-5.19,1.22-2-.72-3.31-2.41-2.85-4,6,4.21,5.26-2.76,13.51-.43,3,.84,4.42.21,6.63-1.73,4.07-3.94,3.09-12.36,2.16-14.77-2-4.6-5.81-7.66-7.23-8.28-2.6-1.47-7.44-2.92-10-.48-3.62,3.34,3.75,12.5,10.85,7.65-2.75,5-7.94.5-12.38,6.72-.72.91-1.4,2.27-1.19,2.91,2.47-1,2.62,1.42,5.16-.56-2.12,4,2.41,2.64,1.31,6.15a1.7,1.7,0,0,0-2.05-1.85c-1.8-3.44-5.85-2.37-7.37-.72,1.68-5.2,4.45-7.16,4.34-10.45a14.94,14.94,0,0,0-.68-3.5c-1.14-3.7-.86-5.8,1.47-8.08,4.32-3.12,10.91-1.05,15.36,2.8a20.5,20.5,0,0,1,7.15,15.71c-.16,6.91-3.29,15.64-11.21,16.53A15.55,15.55,0,0,1,60.94,113.45ZM27.05,68a63,63,0,0,1,11.05-.18c8.38.18,20,.73,15.48,9.82,12.64-7,23,2.52,26.4,6.74,1.21,1,4.62,7.3,5.09,14.28-.1,9.74-3.65,18-15,19.58A60,60,0,0,1,56,118c-5.23-.42-9.67-3.19-13.37-7.3A62.71,62.71,0,0,1,35.8,98.3C31,85.62,27.91,73.86,27.05,68Zm38.6-21c-26.2,3.16-32.35-1.38-40.21,6.83-.83-8.62-.79-14.5,0-18.58.84-4.62,2.57-6.9,4.91-8.19,6.41-3,9.91-.5,15.09,3.17C53.25,35.62,63.2,43.83,65.66,47Z" transform="translate(-14.19 -19.14)"/></svg>