<?xml version="1.0" encoding="iso-8859-1"?>
<!-- Generator: Adobe Illustrator 19.2.0, SVG Export Plug-In . SVG Version: 6.00 Build 0)  -->
<svg version="1.1" xmlns="http://www.w3.org/2000/svg" xmlns:xlink="http://www.w3.org/1999/xlink" x="0px" y="0px"
	 viewBox="0 0 80.338 69.084" style="enable-background:new 0 0 80.338 69.084;" xml:space="preserve">
<g id="Interior_x5F_Design_x5F_72_x5F_BG">
	<path style="fill-rule:evenodd;clip-rule:evenodd;" d="M32.679,0.123c0.197,2.851,0.237,6.327,0,9.034
		c-3.675,0.263-7.908,0.001-11.507,0.202c-0.274,1.424-0.152,2.922-0.152,4.391c0,10.34-0.083,21.171,0.101,31.392
		c0.515,0.355,1.648,0.161,2.271,0.101c0.267-1.323,0.151-2.705,0.151-4.088c0-7.008-0.051-13.872-0.05-20.894
		c0-1.413-0.011-2.8,0.05-4.189c0.058-1.309-0.193-2.638,0.101-3.886c2.794-0.191,6.464-0.116,9.035-0.051
		c0.258,2.64,0.15,5.367,0.15,8.126c0,8.256-0.088,16.826,0.102,24.881c0.639,0.268,2.107,0.192,2.826,0.05
		c0.273-0.875,0.151-1.832,0.151-2.726c-0.001-14.147-0.091-28.689,0.101-42.394c10.631-0.06,21.906-0.116,32.553,0.051
		c0.236,1.716,0.151,3.537,0.151,5.35c0.001,13.064-0.085,26.686,0.101,39.719c0.463,0.228,1.539,0.206,2.069,0.05
		c0.253-5.369,0.102-10.962,0.101-16.554c0-5.547-0.1-11.155,0.152-16.503c2.782-0.165,6.252-0.17,9.033,0
		c0.218,9.245,0.152,18.707,0.151,28.161c0,9.38,0.081,19.109-0.101,28.515c-0.045,0.022-0.09,0.044-0.102,0.101
		c-2.766,0.124-6.123,0.197-8.982,0c-0.185-3.339-0.102-7.122-0.102-10.699c0-1.187,0.117-2.368-0.151-3.432
		c-0.86-0.307-1.85-0.057-2.826-0.101c-2.694-0.122-5.934,0.09-8.479-0.101c-0.26-0.828-0.15-1.74-0.15-2.624
		c0-13.875,0.083-28.693-0.102-42.596c-0.641-0.205-1.908-0.215-2.473,0.05c-0.097,13.577-0.051,28.259-0.051,42.495
		c0,0.886,0.114,1.818-0.15,2.675c-13.957,0.063-28.293,0.101-42.142,0.101c-0.879,0-1.811,0.118-2.675-0.151
		c-0.284-14.645,0.088-30.274-0.202-45.119C10.786,9.236,9.827,9.26,8.857,9.258C6.14,9.25,2.904,9.347,0.125,9.157
		c-0.168-2.78-0.166-6.254,0-9.034C10.818-0.033,22.112-0.049,32.679,0.123z M45.548,9.308c-0.4,0.091-0.391,1.191-0.354,2.019
		c0.027,0.603,0.051,1.471,0.051,2.271c0,4.597-0.045,9.281,0,13.424c0.061,5.681-0.133,12.448,0.101,18.169
		c0.611,0.118,1.688,0.268,2.221,0c0.185-5.866,0.101-11.933,0.101-17.967c0-6.041,0.086-12.084-0.151-17.866
		C46.995,9.207,45.987,9.209,45.548,9.308z"/>
</g>
<g id="Layer_1">
</g>
</svg>
