<?xml version="1.0" encoding="iso-8859-1"?>
<!-- Generator: Adobe Illustrator 19.2.0, SVG Export Plug-In . SVG Version: 6.00 Build 0)  -->
<svg version="1.1" xmlns="http://www.w3.org/2000/svg" xmlns:xlink="http://www.w3.org/1999/xlink" x="0px" y="0px"
	 viewBox="0 0 72.998 73.992" style="enable-background:new 0 0 72.998 73.992;" xml:space="preserve">
<g id="Internationale_x5F_Musikbibliothek">
	<path style="fill-rule:evenodd;clip-rule:evenodd;" d="M14.253,3.675c1.726-2.076,3.902-3.92,7.88-3.648
		c2.959,0.202,5.151,1.799,6.518,3.843c1.29,1.928,2.242,5.128,1.119,8.27c-1.11,3.105-4.011,5.61-7.589,5.886
		c-3.532,0.272-6.673-1.714-7.977-3.892c-0.202-0.337-0.344-0.788-0.535-1.167c-0.492-0.978-0.96-2.527-0.973-3.989
		C12.678,6.882,13.497,5.223,14.253,3.675z"/>
	<path style="fill-rule:evenodd;clip-rule:evenodd;" d="M61.341,20.993c-0.138,1.688-0.575,3.333-0.925,4.962
		c-1.048,4.889-2.237,9.74-3.162,14.788c0.462,0.175,0.904-0.147,1.313-0.292c1.25-0.443,2.819-0.808,4.427-0.876
		c2.137-0.09,4.176,0.474,5.644,1.411c2.667,1.703,4.631,5.172,4.329,9.778c-0.413,6.31-3.369,11.042-6.664,14.642
		c-3.401,3.715-7.278,6.568-13.086,8.124c-4.055,1.086-8.665,0.211-11.091-2.092c-1.255-1.191-2.31-2.451-2.87-4.232
		c-0.547-1.739-0.826-4.019-0.487-6.324c0.584-3.966,1.644-7.882,2.481-11.675c0.87-3.94,1.736-7.791,2.53-11.626
		c0.8-3.867,1.829-7.641,2.432-11.724c-0.689-0.291-2.152-0.248-2.967-0.097c-0.499,0.759-0.564,1.848-0.778,2.87
		c-1.43,6.828-3.205,13.773-4.67,20.674c-0.837,3.945-1.739,7.901-2.675,11.82c-0.708,2.965-1.274,5.942-1.995,8.902
		c-0.23,0.947-0.327,1.942-0.778,2.821c-3.55,0.066-7.395,0.066-10.848,0.097c-1.151,0.011-2.297,0.032-3.308-0.146
		c0.281-1.978,0.725-3.934,1.167-5.886c1.321-5.824,2.534-11.709,3.843-17.561c0.872-3.899,1.721-7.809,2.529-11.724
		c0.807-3.906,1.873-7.767,2.432-11.724c-0.873-0.344-2.31-0.107-3.405-0.097c-0.442,0.893-0.573,1.914-0.778,2.87
		c-2.321,10.782-4.831,21.687-7.248,32.446c-0.884,3.934-1.637,7.888-2.725,11.724C9.558,72.968,4.33,73.05,0,72.799
		c0.283-2.202,0.889-4.339,1.313-6.519c1.259-6.457,2.982-12.872,4.281-19.36c0.869-4.341,1.875-8.652,2.821-12.988
		c0.939-4.303,1.776-8.644,2.87-12.891c11.769-0.094,23.799-0.146,35.998-0.146c4.048,0,8.147,0.186,12.161,0
		C59.988,20.87,60.865,20.715,61.341,20.993z M55.99,46.725c-0.689,2.827-1.36,5.784-1.994,8.562
		c-0.231,1.013-0.314,2.018-0.486,3.064c-0.292,1.772-0.846,3.52-1.216,5.302c-0.376,1.809-0.862,3.602-1.07,5.399
		c1.27,0.094,2.684-0.489,3.794-0.876c0.896-3.741,1.785-7.64,2.578-11.529c0.691-3.388,1.531-6.805,2.189-10.167
		c0.079-0.406,0.394-0.971,0.048-1.362C58.44,45.544,57.185,46.105,55.99,46.725z"/>
</g>
<g id="Layer_1">
</g>
</svg>
