<?xml version="1.0" encoding="iso-8859-1"?>
<!-- Generator: Adobe Illustrator 19.2.0, SVG Export Plug-In . SVG Version: 6.00 Build 0)  -->
<svg version="1.1" xmlns="http://www.w3.org/2000/svg" xmlns:xlink="http://www.w3.org/1999/xlink" x="0px" y="0px"
	 viewBox="0 0 77.401 75.544" style="enable-background:new 0 0 77.401 75.544;" xml:space="preserve">
<g id="Interplan_x5F_US">
	<path style="fill-rule:evenodd;clip-rule:evenodd;" d="M11.545,0.171c0.163,18.355-0.049,37.582-0.049,56.389
		c0,6.295,0.101,12.604-0.146,18.649c-3.526,0.163-7.732,0.162-11.258,0c-0.205-12.549,0-25.23,0-37.299
		c0-6.237-0.169-12.584,0.049-18.894c0.217-6.261-0.263-12.76,0.147-18.894c2.342-0.165,4.711-0.037,7.195-0.05
		C8.914,0.066,10.293-0.14,11.545,0.171z"/>
	<path style="fill-rule:evenodd;clip-rule:evenodd;" d="M33.474,0.171c0.398,1.385-0.081,3.692,0.196,5.238
		c0.665-0.015,1.144-0.556,1.664-0.882c3.694-2.314,8.259-4.11,14.293-4.111c5.931-0.001,10.607,1.773,14.244,4.21
		c0.527,0.354,1.064,0.734,1.664,0.93c0.406-1.438,0.008-3.679,0.294-5.237c3.576-0.163,7.829-0.162,11.405,0
		c0.308,1.511,0.098,3.078,0.098,4.601c-0.002,22.915-0.148,45.72-0.147,68.382c0,0.731,0.114,1.496-0.147,2.202
		c-3.708,0.069-7.76,0.06-11.405-0.098c-0.236-8.539,0.104-17.554-0.098-26.384c-0.507-0.129-0.818,0.355-1.175,0.588
		c-2.565,1.675-5.584,2.891-8.958,3.818c-0.265,1.74-0.147,3.603-0.147,5.433c0,5.453,0.01,11.118-0.098,16.496
		c-1.795,0.251-3.806,0.146-5.727,0.146c-1.922,0-3.891-0.009-5.727-0.146c-0.275-7.066,0.054-14.975-0.147-21.881
		c-0.834-0.497-1.791-0.687-2.692-0.979c-2.189-0.709-4.324-1.833-6.119-3.035c-0.343-0.229-0.656-0.64-1.125-0.587
		c-0.381,8.792,0.001,17.577-0.294,26.433c-3.626,0.181-7.807,0.074-11.454-0.05c-0.216-6.202-0.049-12.411-0.049-18.648
		c0-3.133,0.097-6.279,0.049-9.447c-0.023-1.531-0.119-3.104-0.049-4.65c0.07-1.547-0.064-3.074,0-4.602
		c0.254-6.026,0.098-12.461,0.098-18.796c0-5.284,0.03-11.284,0-16.691c-0.003-0.612,0.013-2.139,0.196-2.252
		c0.036-0.045,0.089-0.074,0.147-0.098C26.065,0.081,29.701,0.073,33.474,0.171z M74.59,17.01c-0.534-1.329-1.123-2.592-1.86-3.721
		c-0.523-0.733-0.826-1.686-1.615-2.153c-14.459-0.068-28.458-0.137-43.025-0.147c-0.058,0.024-0.111,0.052-0.147,0.098
		c-0.542,0.513-1.02,1.42-1.518,2.202c-1.243,1.955-2.143,4.041-2.839,6.363c-0.137,0.458-0.326,0.987-0.196,1.469
		c17.523,0.225,35.047,0.324,52.424,0.147C75.753,19.696,75.114,18.314,74.59,17.01z M72.681,33.212
		c-14.324-0.003-28.309-0.098-42.487-0.098c-1.612-0.001-3.335-0.1-4.797-0.05c-0.572,0.02-1.143-0.131-1.615-0.049
		c-0.699,0.122-0.452,0.686-0.245,1.42c0.802,2.839,1.629,4.675,2.937,6.706c0.434,0.675,0.953,1.981,1.664,2.202
		c0.603,0.188,1.709,0.05,2.643,0.049c2.688,0,5.526-0.025,7.881,0.049c10.644,0.337,22.013-0.083,32.306,0.05
		c0.727-0.51,1.151-1.35,1.616-2.106c0.472-0.768,1.012-1.549,1.321-2.447c0.474-0.769,0.794-1.679,1.126-2.595
		c0.331-0.916,0.705-1.903,0.734-2.936C74.782,33.064,73.705,33.212,72.681,33.212z"/>
</g>
<g id="Layer_1">
</g>
</svg>
