<?xml version="1.0" encoding="iso-8859-1"?>
<!-- Generator: Adobe Illustrator 19.2.0, SVG Export Plug-In . SVG Version: 6.00 Build 0)  -->
<svg version="1.1" xmlns="http://www.w3.org/2000/svg" xmlns:xlink="http://www.w3.org/1999/xlink" x="0px" y="0px"
	 viewBox="0 0 76.456 78.676" style="enable-background:new 0 0 76.456 78.676;" xml:space="preserve">
<g id="Interative_x5F_Data_x5F_Services">
	<path style="fill-rule:evenodd;clip-rule:evenodd;" d="M30.032,21.476c-0.263,0.551-0.164,1.235-0.151,1.925
		c0.037,2.057-0.206,4.487,0.101,6.331c0.508-0.017,0.859-0.449,1.215-0.709c1.854-1.356,4.132-2.158,7.547-2.077
		c5.73,0.136,12.684,0.051,18.739,0.051c2.68,0,5.315-0.112,7.598,0.051c2.253,0.16,4.206,0.846,5.773,1.874
		c3.046,1.998,5.247,5.019,5.571,9.724c0.179,2.596-0.444,4.501-1.317,6.28c-0.808,1.646-2.016,3.18-3.393,4.254
		c-1.425,1.111-3.104,2.04-5.268,2.38c-2.118,0.333-4.625,0.049-6.584-0.76c-3.394-1.4-6.108-4.603-6.989-8.306
		c-0.834-3.502-0.268-6.934,1.164-9.42c0.455-0.789,1.062-1.442,1.469-2.33c-0.546-0.266-1.258-0.152-1.924-0.152
		c-1.935,0-4.262-0.082-6.078,0.102c0.185,0.88,1.029,1.536,1.418,2.38c1.237,2.087,1.367,4.879,1.368,7.901
		c0,6.219-0.052,11.839-0.051,17.879c0,3.093,0.191,6.265-0.152,9.065c-0.639,5.225-4.117,8.816-8.307,10.18
		c-5.517,1.797-10.646-0.891-13.066-4.153c-1.777-2.178-2.983-5.229-2.583-8.863c0.371-3.368,1.764-5.953,3.799-7.851
		c1.994-1.86,4.691-3.38,8.256-3.394c2.727-0.01,5.027,0.928,6.685,2.077c0.56,0.388,1.039,0.93,1.723,1.165
		c0.353-0.528,0.202-1.323,0.202-2.026c0-2.091,0.082-4.586-0.102-6.534c-0.524-0.1-0.826,0.423-1.164,0.659
		c-1.11,0.772-2.331,1.458-3.85,1.924c-2.062,0.634-4.528,0.456-7.243,0.456c-5.102,0-10.518,0.026-15.396,0
		c-2.585-0.014-5.188,0.096-7.597,0c-2.263-0.09-4.286-0.804-5.824-1.874c-2.985-2.076-5.141-5.191-5.571-9.826
		c-0.232-2.492,0.384-4.702,1.215-6.381c1.638-3.306,4.682-5.766,8.863-6.534c2.24-0.411,4.564-0.059,6.585,0.71
		c3.464,1.317,6.216,4.591,7.09,8.306c0.811,3.44,0.14,7.057-1.266,9.471c-0.46,0.79-1.146,1.442-1.52,2.33
		c0.542,0.286,1.278,0.202,1.975,0.202c0.693,0,1.411,0,2.128,0c1.445,0,2.982,0.119,4.152-0.152
		c-0.04-0.469-0.405-0.853-0.658-1.215c-0.793-1.137-1.496-2.305-1.975-3.9c-0.627-2.087-0.418-4.809-0.354-7.395
		c0.125-5.178-0.233-10.776,0-15.701c0.128-2.712-0.069-5.332,0.101-7.749c0.166-2.361,0.836-4.24,1.874-5.976
		c1.885-3.15,5.26-5.799,10.028-5.876c2.391-0.038,4.399,0.707,6.027,1.57c1.579,0.838,2.911,2.243,3.95,3.596
		c0.998,1.298,1.963,3.285,2.127,5.419c0.172,2.233-0.017,4.68-0.81,6.635c-1.388,3.418-4.451,6.017-8.053,7.04
		c-4.007,1.138-7.976-0.244-10.332-2.077C30.862,21.924,30.518,21.555,30.032,21.476z M34.54,4.56
		c-0.91,0.464-1.626,1.107-2.229,1.722c-1.21,1.234-2.321,3.034-2.481,5.419c-0.27,4.025,1.768,6.61,4.102,8.103
		c1.3,0.832,2.936,1.289,4.761,1.216c4.539-0.182,8.381-3.788,8.458-8.56c0.033-2.03-0.58-3.658-1.469-5.014
		c-1.502-2.293-4.198-4.045-8.002-3.748C36.551,3.787,35.382,4.13,34.54,4.56z M7.495,31.555c-2.596,1.561-4.826,5.145-3.799,9.572
		c0.992,4.275,5.108,8.087,10.585,6.635c2.876-0.763,5.19-3.151,6.027-5.875c1.06-3.452-0.166-7.098-2.076-9.065
		c-1.386-1.426-3.827-2.737-6.939-2.482C9.928,30.452,8.51,30.943,7.495,31.555z M34.185,31.352
		c-1.994,1.094-3.362,2.758-4.103,4.964c-1.419,4.228,0.713,8.145,3.09,9.927c1.932,1.448,4.771,2.059,7.293,1.367
		c2.388-0.654,4.174-2.169,5.268-4.001c1.15-1.928,1.499-5.115,0.709-7.344c-0.842-2.375-2.279-3.901-4.052-4.913
		c-1.116-0.636-2.78-1.101-4.659-0.962C36.298,30.495,35.149,30.824,34.185,31.352z M59.915,31.859
		c-1.988,1.287-3.525,3.265-3.9,6.179c-0.383,2.971,0.716,5.781,2.432,7.496c1.893,1.893,5.105,3.312,8.508,2.229
		c2.311-0.737,4.162-2.561,5.217-4.66c1.221-2.428,0.991-5.66-0.202-8.003c-1.294-2.539-4.32-4.641-7.952-4.508
		C62.217,30.659,60.947,31.19,59.915,31.859z M30.691,61.741c-0.789,1.304-1.384,3.361-1.216,5.419
		c0.259,3.171,2.173,5.451,4.406,6.736c2.697,1.552,6.454,1.343,8.762-0.152c2.722-1.763,5.237-5.822,3.748-10.18
		c-1.169-3.421-4.268-6.312-8.965-5.926C34.324,57.893,31.882,59.769,30.691,61.741z"/>
</g>
<g id="Layer_1">
</g>
</svg>
