<?xml version="1.0" encoding="iso-8859-1"?>
<!-- Generator: Adobe Illustrator 19.2.0, SVG Export Plug-In . SVG Version: 6.00 Build 0)  -->
<svg version="1.1" xmlns="http://www.w3.org/2000/svg" xmlns:xlink="http://www.w3.org/1999/xlink" x="0px" y="0px"
	 viewBox="0 0 74.151 74.478" style="enable-background:new 0 0 74.151 74.478;" xml:space="preserve">
<g id="International_x5F_Leather_x5F_Workers_x5F_Union">
	<path style="fill-rule:evenodd;clip-rule:evenodd;" d="M60.09,54.417c0.24-1.952,0.224-3.923,0.158-5.883
		c-0.065-1.918,0-3.883,0-5.831c0-9.737-0.163-19.414-0.053-29.939c0.008-0.799,0.053-1.807,0.053-2.994
		c0-1.041,0.129-2.397-0.21-2.836c-0.318-0.412-2.272-0.315-3.099-0.315c-7.849-0.001-16.033,0.051-23.847,0.053
		C25.14,6.673,17.562,6.775,9.823,6.777c-0.717,0-2.824-0.142-3.205,0.21C6.22,7.354,6.356,9.157,6.356,10.242
		c-0.001,8.268,0,16.155,0,24.215c-0.001,7.478,0,15.643,0,23.688c0,1.193,0.102,2.822-0.368,3.1
		c-0.933,0.551-2.653-0.646-3.152-0.998c-1.697-1.196-2.731-3.194-2.731-5.987c0-6.979-0.052-14.45-0.052-21.483
		C0.052,24.808,0,15.728,0,7.144c0-2.876,1.181-4.705,2.784-5.883c1.07-0.786,2.26-1.103,4.202-1.103
		c10.609,0.001,21.07-0.106,31.621-0.105c6.098,0.001,12.013-0.001,18.437,0c1.439,0,2.833-0.119,4.044,0
		c2.72,0.267,5.048,2.707,5.463,5.042c0.2,1.132,0.052,2.497,0.052,3.782c0,13.817,0.105,27.08,0.105,41.232
		c0,2.654,0.237,5.376-0.473,7.092c-0.738,1.784-2.086,3.137-3.782,3.781c-1.866,0.709-4.469,0.8-6.776,0.735
		c-2.47-0.069-4.785-0.184-6.566-0.998c-1.802-0.823-2.894-2.154-3.519-4.044c-0.599-1.813-0.473-4.454-0.473-7.092
		c0-4.646-0.053-9.807-0.053-14.864c0-2.392,0.067-4.783-0.052-7.302c-0.057-1.184,0.104-2.34,0.052-3.729
		c-0.036-0.948-0.218-2.967,0.315-3.362c0.542-0.401,1.612,0.102,1.996,0.263c1.791,0.753,3.132,2.18,3.782,3.939
		c0.469,1.269,0.42,2.986,0.42,4.728c0,7.706,0.052,14.966,0.053,22.901c0,0.945-0.039,2.01,0.21,2.311
		c0.499,0.603,2.61,0.321,3.835,0.367C57.434,54.904,59.294,55.155,60.09,54.417z"/>
	<path style="fill-rule:evenodd;clip-rule:evenodd;" d="M28.679,53.839c-1.537,0.179-2.771-0.597-3.624-1.313
		c-0.913-0.767-1.717-1.891-2.101-3.046c-0.413-1.242-0.355-3.165-0.368-4.78c-0.057-7.184-0.052-14.876-0.053-22.586
		c0-2.297,0.15-2.844-2.206-2.732c-1.458,0.069-2.791,0.052-4.254,0.053c-0.834,0-1.746-0.104-2.049,0.368
		c-0.308,0.478-0.171,1.96-0.21,2.783c-0.052,1.093,0,2.21,0,3.1c0,2.131,0,4.055,0,5.935c0,8.118,0.052,15.384,0.053,24.005
		c0,2.994-0.189,5.979-0.053,8.982c0.046,1.01-0.128,2.445,0.21,2.836c0.355,0.409,2.189,0.315,3.152,0.315
		c15.674,0.003,31.517-0.155,47.326-0.158c1.038,0,2.809,0.114,3.151-0.263c0.352-0.387,0.168-2.172,0.158-3.151
		c-0.086-8.224-0.01-15.931-0.053-23.952c-0.024-4.507,0-9.001,0-13.656c0-2.25-0.076-4.399,0-6.934
		c0.027-0.912-0.045-2.137,0-3.414c0.032-0.934-0.1-2.879,0.367-3.151c0.546-0.318,1.625,0.196,2.102,0.42
		c1.655,0.776,3.332,2.387,3.729,4.359c0.224,1.11,0.052,2.528,0.052,3.887c0,8.727-0.058,17.67,0.053,26.894
		c0.055,4.581,0.053,10.281,0.053,15.391c0,2.771,0.285,5.066-0.735,6.881c-0.854,1.521-2.483,2.998-4.517,3.309
		c-1.156,0.177-2.469,0.092-3.731,0.105c-9.213,0.095-17.993,0.054-26.788,0.053c-5.19-0.001-10.388,0.053-15.601,0.052
		c-2.541,0-5.319,0.11-7.721,0c-1.418-0.064-2.226-0.036-3.362-0.473c-2.606-1-3.957-3.39-4.097-6.985
		c-0.085-2.194-0.053-4.533-0.053-6.986c0.001-12.008-0.053-23.031-0.052-34.982c0-2.388-0.182-4.791,0.21-6.828
		c0.412-2.141,1.642-3.647,3.204-4.465c1.684-0.881,3.93-1.019,6.513-1.155c4.438-0.235,8.572,0.366,10.295,3.204
		c1.612,1.891,1.313,5.613,1.313,8.719c0,3.284-0.052,6.66-0.052,9.875c0.001,5.6,0,11.402,0,17.281
		C28.942,52.365,29.104,53.2,28.679,53.839z"/>
	<path style="fill-rule:evenodd;clip-rule:evenodd;" d="M58.829,19.119c-0.915,0.275-2.229,0.324-3.519,0.263
		c-2.494-0.118-4.669,0-7.458,0c-0.934,0.001-2.963-0.215-3.467,0.263c-0.416,0.394-0.342,2.327-0.315,3.361
		c0.093,3.586-0.216,7.262-0.052,10.979c0.157,3.573,0.107,7.6,0,11.03c-0.04,1.259,0.104,2.518-0.105,3.624
		c-0.444,2.343-1.949,4.099-4.097,4.938c-0.534,0.209-1.217,0.437-1.891,0.211c-0.403-0.56-0.263-1.299-0.263-1.944
		c0-4.976,0-9.823,0-14.865c0-5.865-0.117-11.747,0-17.017c0.089-4.013,2.584-6.87,6.303-7.196c2.391-0.21,4.833,0.153,7.564,0.053
		c1.203-0.045,2.463,0.031,3.782,0c0.995-0.023,3.094-0.246,3.572,0.263c0.413,0.438,0.234,2.335,0.21,2.993
		C59.049,17.228,59.215,18.303,58.829,19.119z"/>
	<path style="fill-rule:evenodd;clip-rule:evenodd;" d="M29.625,54.522c0.585-0.357,0.439-2.274,0.42-3.519
		c-0.099-6.484,0.077-12.667,0-19.277c-0.026-2.276-0.232-5.478,0.42-7.196c0.768-2.023,2.739-3.99,5.2-4.359
		c0.131-0.019,0.337-0.046,0.578,0.106c0.526,0.328,0.292,2.851,0.263,3.518c-0.069,1.562,0.052,2.643,0.052,3.939
		c0,3.1-0.062,5.334,0,7.879c0.124,5.081,0,10.603,0,15.706c0,1.392,0.106,2.728-0.052,3.938c-0.144,1.103-0.59,2.087-1.103,2.889
		c-1.088,1.7-2.495,2.654-4.885,3.047c-2.501,0.411-5.549,0.15-7.721,0.158c-1.965,0.006-3.734,0.052-5.831,0.052
		c-0.598,0.001-1.427,0.067-1.733-0.21c-0.531-0.479-0.3-3.706-0.315-4.779c-0.009-0.643,0.028-1.192,0.315-1.419
		c0.505-0.397,2.571-0.21,3.519-0.21C22.529,54.784,26.139,54.852,29.625,54.522z"/>
</g>
<g id="Layer_1">
</g>
</svg>
