<?xml version="1.0" encoding="iso-8859-1"?>
<!-- Generator: Adobe Illustrator 19.2.0, SVG Export Plug-In . SVG Version: 6.00 Build 0)  -->
<svg version="1.1" xmlns="http://www.w3.org/2000/svg" xmlns:xlink="http://www.w3.org/1999/xlink" x="0px" y="0px"
	 viewBox="0 0 76.548 77.009" style="enable-background:new 0 0 76.548 77.009;" xml:space="preserve">
<g id="Interecho_x5F_Press_x5F_85">
	<path style="fill-rule:evenodd;clip-rule:evenodd;" d="M48.587,0.122c0.166,6.68,0.166,14.068,0,20.8
		c-6.757,0.063-13.998,0.179-20.649-0.05c-0.159-6.24-0.13-13.471-0.1-19.802c0.002-0.353-0.09-0.806,0.25-1.047
		C34.868,0.02,41.878-0.068,48.587,0.122z M38.511,6.906c-1.235,0-2.677-0.038-3.541,0.05c-0.408,0.324-0.25,0.994-0.25,1.546
		c0,1.78-0.08,3.849,0.1,5.387c0.966,0.259,2.222,0.15,3.441,0.15c1.22,0,2.471,0.096,3.442-0.15
		c0.252-0.953,0.149-2.185,0.149-3.392c0-1.22,0.11-2.479-0.149-3.441C40.848,6.794,39.686,6.906,38.511,6.906z"/>
	<path style="fill-rule:evenodd;clip-rule:evenodd;" d="M48.587,28.354c0.315,4.397-0.132,9.376,0.199,13.666
		c1.021,0.269,2.166,0.149,3.293,0.15c3.348,0,6.974-0.042,10.274,0.05c0.357,4.29-0.016,9.278,0.199,13.716
		c1.052,0.271,2.231,0.149,3.392,0.149c3.398,0.001,7.074-0.041,10.425,0.05c0.252,1.709,0.171,3.489,0.149,5.237
		c-0.059,4.85,0.099,10.237-0.149,15.512c-6.629,0.166-13.969,0.167-20.649,0c-0.31-4.194,0.106-9.276-0.199-13.716
		c-0.997-0.292-2.25-0.136-3.393-0.1c-1.155,0.036-2.305-0.12-3.291,0.05c-0.262,0.508-0.15,1.13-0.15,1.695
		c0,2.922,0.104,6.166,0,8.879c-0.043,1.139,0.088,2.235-0.149,3.242c-6.63-0.037-13.921,0.111-20.599-0.1
		c-0.271-1.056-0.15-2.239-0.15-3.392c0-3.295,0.099-6.902-0.1-10.324c-2.033-0.167-4.75-0.165-6.783,0
		c-0.27,1.05-0.15,2.233-0.15,3.392c0,3.462,0.033,7.172-0.149,10.374c-5.737,0.055-12.333,0.128-18.056,0.051
		c-0.818-0.012-1.683,0.125-2.444-0.15c-0.173-6.811-0.105-13.942,0-20.65c3.232-0.181,6.906-0.1,10.374-0.1
		c1.138,0.001,2.278,0.12,3.292-0.149c0.294-4.432-0.103-9.547,0.25-13.666c4.311-0.295,9.304,0.093,13.617-0.2
		c0.414-0.971,0.094-2.158,0.149-3.342c0.128-2.712,0.05-5.637,0.05-8.729c0-0.559-0.092-1.499,0.15-1.645
		c0.037-0.047,0.09-0.076,0.149-0.1c3.382,0,6.885-0.001,10.325,0C41.904,28.204,45.356,28.086,48.587,28.354z M34.92,35.087
		c-0.37,0.354-0.249,0.999-0.249,1.546c0,1.765-0.078,3.812,0.1,5.337c1.576,0.326,3.748,0.096,5.537,0.1
		c0.494,0.002,1.002,0.166,1.396-0.1c0.165-2.034,0.166-4.749,0-6.783C39.932,34.88,36.725,35.068,34.92,35.087z M24.596,49.003
		c-1.237,0-2.666-0.035-3.591,0.05c-0.369,0.355-0.25,0.998-0.25,1.546c0,1.78-0.079,3.847,0.1,5.387
		c1.991,0.278,4.735,0.104,6.833,0c0.167-2.147,0.168-4.679,0-6.833C26.842,48.888,25.732,49.003,24.596,49.003z M38.511,49.003
		c-1.233,0-2.678-0.038-3.541,0.05c-0.374,0.319-0.292,0.994-0.299,1.546c-0.023,1.695-0.1,3.899,0.149,5.437
		c2.19,0.088,4.575,0.149,6.834-0.05c0.265-0.958,0.149-2.182,0.149-3.392c0-1.19,0.077-2.436-0.1-3.441
		C40.848,48.892,39.686,49.003,38.511,49.003z M48.786,49.153c-0.164,2.066-0.166,4.816,0,6.883c2,0.167,4.684,0.165,6.684,0
		c0.262-0.958,0.15-2.204,0.15-3.392c0-1.229,0.074-2.463-0.1-3.491C53.602,48.933,50.837,49.021,48.786,49.153z M7.238,62.969
		c-0.059,0.023-0.113,0.053-0.149,0.1c-0.2,0.365-0.202,1.859-0.199,2.494c0.004,1.444,0.03,3.164,0.149,4.389
		c0.991,0.177,2.218,0.1,3.392,0.101c1.196,0,2.394,0.11,3.342-0.15c0.176-1.006,0.1-2.251,0.1-3.441
		c0-1.209,0.117-2.437-0.15-3.392C11.758,62.838,9.368,63.033,7.238,62.969z M34.821,63.118c-0.264,0.941-0.149,2.19-0.149,3.392
		c0,1.218-0.112,2.484,0.149,3.441c2.133,0.171,4.881,0.168,6.834-0.05c0.265-0.938,0.149-2.173,0.149-3.342
		c0-1.216,0.076-2.431-0.1-3.441C39.8,62.889,36.974,62.989,34.821,63.118z M62.652,63.069c-0.264,0.955-0.149,2.205-0.149,3.392
		c0,1.23-0.076,2.466,0.1,3.491c2.185,0.187,4.607,0.166,6.883,0c0.166-2.05,0.166-4.783,0-6.833
		C67.354,62.819,64.93,63.055,62.652,63.069z"/>
</g>
<g id="Layer_1">
</g>
</svg>
