<?xml version="1.0" encoding="iso-8859-1"?>
<!-- Generator: Adobe Illustrator 19.2.0, SVG Export Plug-In . SVG Version: 6.00 Build 0)  -->
<svg version="1.1" xmlns="http://www.w3.org/2000/svg" xmlns:xlink="http://www.w3.org/1999/xlink" x="0px" y="0px"
	 viewBox="0 0 78.385 21.896" style="enable-background:new 0 0 78.385 21.896;" xml:space="preserve">
<g id="Interwerba">
	<path style="fill-rule:evenodd;clip-rule:evenodd;" d="M12.415,0.001c0.042-0.008,0.046,0.02,0.049,0.049
		c0.712,0.771,1.114,1.768,1.626,2.662c3.312,5.777,6.772,11.641,10.149,17.49c0.264,0.455,0.644,0.883,0.69,1.428
		c-4.032,0.232-8.272,0.051-12.465,0.049c-4.195,0-8.474,0.119-12.464-0.147c0.352-1.129,1.098-2.055,1.675-3.055
		c0.564-0.977,1.224-1.947,1.725-2.957c0.174-0.352,0.259-0.75,0.443-1.084C5.762,10.964,7.96,7.4,10.001,3.943
		c0.763-1.291,1.481-2.666,2.267-3.842C12.304,0.054,12.357,0.027,12.415,0.001z"/>
	<path style="fill-rule:evenodd;clip-rule:evenodd;" d="M39.168,0.101c0.465,0.125,0.961,1.316,1.281,1.871
		c0.416,0.725,0.801,1.396,1.133,1.971c0.798,1.381,1.699,2.609,2.316,3.893c0.3,0.623,0.542,1.272,0.887,1.873
		c1.941,3.387,3.963,6.865,5.961,10.297c0.323,0.555,0.786,1.109,0.837,1.773c-7.109,0.115-14.869-0.049-21.924-0.051
		c-1.004,0-2.045,0.117-3.005-0.146c0.327-1.004,0.951-1.861,1.478-2.76c3.609-6.154,7.19-12.435,10.888-18.574
		C39.047,0.177,39.097,0.128,39.168,0.101z"/>
	<path style="fill-rule:evenodd;clip-rule:evenodd;" d="M65.871,0.199c0.033,0,0.066,0,0.099,0
		c3.745,6.174,7.334,12.459,10.938,18.82c0.509,0.898,1.206,1.734,1.478,2.76c-7.105,0.23-14.951,0.051-22.22,0.049
		c-0.984,0-1.952,0.115-2.857-0.1c-0.025-0.533,0.395-0.965,0.64-1.379c3.398-5.711,6.697-11.621,10.15-17.391
		c0.548-0.916,1.108-1.818,1.626-2.66C65.759,0.251,65.812,0.222,65.871,0.199z"/>
</g>
<g id="Layer_1">
</g>
</svg>
