<?xml version="1.0" encoding="iso-8859-1"?>
<!-- Generator: Adobe Illustrator 21.0.2, SVG Export Plug-In . SVG Version: 6.00 Build 0)  -->
<svg version="1.1" xmlns="http://www.w3.org/2000/svg" xmlns:xlink="http://www.w3.org/1999/xlink" x="0px" y="0px"
	 viewBox="0 0 15.527 15.393" style="enable-background:new 0 0 15.527 15.393;" xml:space="preserve">
<g id="Intelcom">
	<path d="M6.195,0C7.263,0.002,8.33-0.002,9.396,0.002c-0.002,1.273-0.002,2.547,0,3.82c0.286-0.312,0.597-0.599,0.89-0.905
		c0.082-0.085,0.188-0.144,0.269-0.233c0.539-0.54,1.08-1.079,1.622-1.615c0.76,0.745,1.5,1.51,2.265,2.25
		c-0.618,0.62-1.241,1.235-1.857,1.856c-0.096,0.1-0.217,0.172-0.311,0.274c-0.577,0.587-1.171,1.156-1.745,1.747
		C9.646,6.314,8.76,5.433,7.874,4.552C7.786,4.473,7.69,4.403,7.608,4.316C7.141,3.845,6.668,3.38,6.197,2.912
		C6.19,1.942,6.193,0.971,6.195,0z"/>
	<path d="M3.326,1.083C3.894,1.654,4.467,2.22,5.035,2.792C5.11,2.87,5.208,2.922,5.283,3.001c0.652,0.664,1.323,1.31,1.973,1.977
		c-0.166,0.115-0.3,0.268-0.442,0.412C5.749,6.443,4.693,7.507,3.629,8.562C3.395,8.811,3.12,9.015,2.891,9.27
		C1.928,9.261,0.963,9.262,0,9.269C0.005,8.214-0.002,7.16,0.003,6.106c1.283-0.002,2.566,0.002,3.848-0.002
		C3.593,5.82,3.321,5.547,3.028,5.3c-0.65-0.653-1.309-1.297-1.954-1.954C1.818,2.585,2.583,1.845,3.326,1.083z"/>
	<path d="M7.631,6.117C8.015,6.083,8.417,6.19,8.727,6.421c0.309,0.226,0.53,0.565,0.606,0.941C9.463,7.878,9.261,8.436,8.9,8.812
		C8.674,9.009,8.407,9.165,8.11,9.224C7.679,9.298,7.208,9.23,6.852,8.963C6.515,8.739,6.297,8.365,6.215,7.973
		C6.143,7.588,6.226,7.181,6.434,6.85C6.697,6.441,7.146,6.163,7.631,6.117z"/>
	<path d="M12.645,6.123c0.961,0.009,1.921,0.004,2.881,0.002c-0.003,1.061,0,2.123-0.002,3.184
		c-1.281-0.007-2.561-0.002-3.842-0.003c0.246,0.247,0.481,0.507,0.753,0.726c0.681,0.681,1.367,1.358,2.047,2.041
		c-0.055,0.034-0.111,0.067-0.159,0.112c-0.708,0.71-1.42,1.416-2.128,2.126c-0.568-0.583-1.153-1.149-1.727-1.725
		c-0.392-0.331-0.732-0.718-1.104-1.07c-0.361-0.359-0.72-0.72-1.081-1.08c0.887-0.877,1.767-1.761,2.651-2.641
		c0.11-0.129,0.257-0.216,0.375-0.337C11.752,7.01,12.197,6.565,12.645,6.123z"/>
	<path d="M2.143,11.053c0.955-0.951,1.908-1.904,2.863-2.856C5.88,9.087,6.77,9.961,7.652,10.842
		c0.266,0.205,0.484,0.464,0.728,0.694c0.32,0.333,0.667,0.643,0.974,0.988c-0.003,0.956-0.002,1.913-0.001,2.869
		c-1.067-0.001-2.134,0-3.201,0c0-1.274-0.002-2.547,0.001-3.82c-0.635,0.625-1.264,1.257-1.895,1.886
		c-0.119,0.134-0.277,0.223-0.395,0.359c-0.163,0.176-0.345,0.335-0.502,0.517c-0.765-0.746-1.505-1.517-2.276-2.256
		C1.441,11.739,1.765,11.367,2.143,11.053z"/>
</g>
<g id="Layer_1">
</g>
</svg>
