<?xml version="1.0" encoding="iso-8859-1"?>
<!-- Generator: Adobe Illustrator 19.2.0, SVG Export Plug-In . SVG Version: 6.00 Build 0)  -->
<svg version="1.1" xmlns="http://www.w3.org/2000/svg" xmlns:xlink="http://www.w3.org/1999/xlink" x="0px" y="0px"
	 viewBox="0 0 67.513 68.736" style="enable-background:new 0 0 67.513 68.736;" xml:space="preserve">
<g id="International_x5F_Janitor">
	<path style="fill-rule:evenodd;clip-rule:evenodd;" d="M6.785,33.539c-0.177-3.487-0.098-7.546-0.098-11.472
		c0-2.04-0.11-3.994-0.049-5.76c0.061-1.751,0.443-3.377,1.025-4.735c0.005-0.013,0.034-0.069,0.049-0.098
		C8.486,9.94,9.841,8.8,11.179,8.008c1.56-0.923,3.318-1.157,5.663-1.269c2.465-0.117,4.742,0.022,6.883-0.049
		c4.601-0.154,7.082-2.958,8.494-6.541c0.017-0.064,0.086-0.077,0.098-0.147c0.042-0.009,0.046,0.019,0.049,0.049
		c0.042-0.009,0.046,0.019,0.049,0.048c0.163,7.292,0.146,14.752,0.146,22.309c0,2.821-0.053,4.681-1.074,6.444
		c-1.402,2.422-3.467,4.144-6.59,4.686c-1.049,0.182-2.247,0.097-3.662,0.098C16.353,33.637,11.458,33.811,6.785,33.539z"/>
	<path style="fill-rule:evenodd;clip-rule:evenodd;" d="M67.513,33.392c-7.184,0.199-14.899,0.265-22.26,0.244
		c-2.444-0.007-4.359-0.272-6.053-1.27c-1.585-0.934-2.902-2.324-3.661-3.905c-0.852-1.776-0.781-3.921-0.781-6.737
		c0-3.734-0.049-7.34-0.049-11.179c0-1.199-0.117-2.429,0.146-3.612c4.35-0.162,9.274-0.147,14.01-0.147
		c1.443,0,3.137-0.178,4.394,0.049c3.291,0.593,5.676,2.999,6.785,5.809c0.752,1.904,0.659,4.067,0.684,6.395
		c0.011,1.066-0.071,2.214-0.049,3.368c0.021,1.1-0.003,2.281,0.146,3.32c0.434,3.025,2.114,5.18,4.296,6.492
		C65.861,32.666,66.728,32.843,67.513,33.392z"/>
	<path style="fill-rule:evenodd;clip-rule:evenodd;" d="M60.679,35.736c0.159,4.665,0.144,9.585,0.098,14.303
		c-0.017,1.663,0.171,3.284-0.049,4.686c-0.375,2.385-1.822,4.463-3.319,5.614c-0.883,0.678-1.824,1.265-2.881,1.611
		c-2.227,0.729-5.528,0.373-8.25,0.488c-1.424,0.06-2.859-0.069-4.198,0.146c-2.816,0.455-5.142,2.548-6.297,4.784
		c-0.239,0.462-0.374,1.016-0.781,1.367c-0.13-7.639-0.302-15.092-0.195-22.7c0.015-1.033-0.052-2.075,0.098-3.076
		c0.508-3.397,3.174-6.122,6.249-6.98c1.791-0.5,3.946-0.342,6.2-0.342C51.912,35.638,56.277,35.536,60.679,35.736z"/>
	<path style="fill-rule:evenodd;clip-rule:evenodd;" d="M32.56,62.194c-0.769,0.258-1.622,0.147-2.44,0.146
		c-4.116,0-8.564-0.138-12.692,0.049c-3.665,0.167-6.011-0.787-7.908-2.489c-0.907-0.814-1.776-1.933-2.197-3.125
		c-0.577-1.635-0.684-3.535-0.684-5.467c0-2.058,0.011-3.982,0-6.053c-0.023-4.458-2.234-7.411-5.418-8.787
		C0.812,36.291,0.281,36.219,0,35.833c6.119-0.14,11.858-0.147,17.964-0.146c3.564,0,7.721-0.328,10.007,0.976
		c1.645,0.939,2.936,2.342,3.759,3.954c0.891,1.746,0.908,4.05,0.928,6.639C32.693,51.85,32.704,57.13,32.56,62.194z"/>
</g>
<g id="Layer_1">
</g>
</svg>
