<?xml version="1.0" encoding="iso-8859-1"?>
<!-- Generator: Adobe Illustrator 19.2.0, SVG Export Plug-In . SVG Version: 6.00 Build 0)  -->
<svg version="1.1" xmlns="http://www.w3.org/2000/svg" xmlns:xlink="http://www.w3.org/1999/xlink" x="0px" y="0px"
	 viewBox="0 0 75.541 57.186" style="enable-background:new 0 0 75.541 57.186;" xml:space="preserve">
<g id="intomart_x5F_qualitatief">
	<path style="fill-rule:evenodd;clip-rule:evenodd;" d="M67.559,48.662c0.331,0.792,0.974,1.316,1.517,1.859
		c1.104,1.104,2.152,2.101,3.327,3.327c0.346,0.361,1.732,1.301,1.125,1.908c-0.545,0.546-1.653-0.852-1.908-1.125
		c-1.179-1.264-2.091-2.091-3.327-3.327c-0.465-0.465-1.22-1.523-1.81-1.517c-0.308,0.004-1.021,0.639-1.321,0.881
		c-4.355,3.518-9.859,6.294-17.513,6.506c-2.76,0.077-5.424-0.237-7.827-0.881c-4.407-1.18-8.249-3.322-11.447-6.017
		c-3.181-2.679-5.797-5.981-7.484-9.979c-1.739-4.12-2.901-9.465-2.202-14.774c0.704-5.343,2.394-9.332,4.648-12.817
		c2.182-3.375,5.395-6.411,8.903-8.561c3.634-2.227,7.993-3.849,13.502-4.109c7.198-0.34,12.616,1.768,16.975,4.647
		c4.357,2.877,7.758,6.883,9.979,11.643c1.092,2.34,2.184,5.251,2.544,8.267c0.386,3.232,0.479,6.619-0.196,9.931
		c-0.873,4.291-2.803,8.167-5.039,11.203C69.237,46.77,68.322,47.627,67.559,48.662z M60.711,43.672
		c-0.303-0.303-1.667-1.378-1.076-1.957c0.572-0.56,1.558,0.861,1.859,1.174c1.336,1.388,2.02,2.087,3.327,3.327
		c0.403,0.382,1.254,1.54,1.81,1.517c0.404-0.018,0.981-0.832,1.321-1.223c2.712-3.123,5.108-7.288,5.968-11.985
		c0.548-2.995,0.668-6.382,0.293-9.491c-0.355-2.944-1.332-5.691-2.348-7.925c-2.048-4.499-5.273-8.388-9.344-11.203
		c-3.978-2.75-9.15-4.878-15.752-4.794C45.45,1.129,44.1,1.336,42.904,1.503c-3.607,0.506-6.574,1.528-9.197,3.082
		c-6.831,4.046-11.797,10.035-13.6,19.128c-0.996,5.022-0.26,10.251,1.125,14.284c2.677,7.794,8.816,13.515,16.339,16.389
		c1.994,0.761,4.193,1.33,6.604,1.565c8.12,0.792,14.431-1.865,19.127-5.186c0.434-0.246,0.724-0.565,1.174-0.929
		c0.337-0.272,1.031-0.623,1.027-1.125c-0.002-0.296-0.423-0.65-0.685-0.929c-0.835-0.891-1.725-1.715-2.446-2.495
		C61.767,44.739,61.33,44.292,60.711,43.672z"/>
	<path style="fill-rule:evenodd;clip-rule:evenodd;" d="M15.9,1.21c0.157,17.789,0.231,36.022,0.049,54.056
		c-1.233,0.265-2.596,0.147-3.914,0.147c-3.952,0-8.024,0.083-11.838-0.098c-0.416-8.99,0.217-18.27-0.098-27.395
		c-0.078-2.249,0.096-4.527,0-6.8C-0.09,16.608,0.05,12.109,0.05,7.619c0-1.683-0.023-3.404,0-4.941
		c0.008-0.505-0.019-1.053,0.196-1.517C5.205,1.112,10.969,1.015,15.9,1.21z"/>
</g>
<g id="Layer_1">
</g>
</svg>
