<?xml version="1.0" encoding="iso-8859-1"?>
<!-- Generator: Adobe Illustrator 19.2.0, SVG Export Plug-In . SVG Version: 6.00 Build 0)  -->
<svg version="1.1" xmlns="http://www.w3.org/2000/svg" xmlns:xlink="http://www.w3.org/1999/xlink" x="0px" y="0px"
	 viewBox="0 0 213.102 48.533" style="enable-background:new 0 0 213.102 48.533;" xml:space="preserve">
<g id="IPREIG_x5F_60">
	<path style="fill-rule:evenodd;clip-rule:evenodd;" d="M4.569,0.172c0.198,4.833,0.155,9.97,0.172,14.885
		C4.76,20.393,4.824,25.67,4.569,30.919c-1.244,0.17-3.344,0.22-4.425,0c-0.191-9.956-0.191-20.731,0-30.747
		C1.449-0.058,3.243-0.031,4.569,0.172z"/>
	<path style="fill-rule:evenodd;clip-rule:evenodd;" d="M55.546,0.23c0.286,2.468,0.115,5.039,0.115,7.643
		c0,7.754,0.124,15.659-0.115,23.104c-1.176,0.213-3.274,0.325-4.425,0c-0.347-8.491,0.11-17.484-0.23-26.035
		c-1.697-0.311-3.494-0.172-5.287-0.172c-5.39,0-10.56-0.18-15.805,0.058c-0.312,1.648-0.172,3.504-0.172,5.402
		c0,12.857,0.072,25.831-0.115,38.161c-1.238,0.19-3.245,0.19-4.483,0c-0.134-15.003-0.138-30.099-0.115-45.517
		c0.001-0.817-0.034-2.49,0.23-2.759C25.185,0.061,25.248,0.028,25.316,0C35.441,0.09,45.68-0.07,55.546,0.23z"/>
	<path style="fill-rule:evenodd;clip-rule:evenodd;" d="M99.741,0.288c0.189,1.219,0.189,3.206,0,4.425
		c-6.126,0.355-13.159-0.121-19.426,0.23c-0.307,0.999-0.172,2.099-0.172,3.161c0,7.465,0.096,15.398-0.115,22.874
		c-1.22,0.189-3.206,0.189-4.425,0c-0.223-2.46-0.115-5.082-0.115-7.701c0-7.15,0-14.377,0-21.379c0-0.557-0.157-1.237,0.23-1.724
		C83.548,0.108,91.889,0.083,99.741,0.288z"/>
	<path style="fill-rule:evenodd;clip-rule:evenodd;" d="M140.776,0.345c0.185,4.793,0.186,10.034,0,14.828
		c-1.281,0.306-3.013,0.12-4.426,0.058c-0.34-3.128,0.11-7.045-0.229-10.172c-1.543-0.311-3.217-0.172-4.885-0.172
		c-4.912,0-10.144-0.047-15,0.057c-0.305,0.83-0.173,1.771-0.173,2.644c0,6.293-0.155,12.452,0.115,18.735
		c0.942,0.305,1.994,0.172,2.988,0.172c7.083,0,14.728-0.103,21.609,0.172c0.221,1.219,0.12,3.056,0.058,4.368
		c-1.107,0.358-2.323,0.23-3.506,0.23c-8.367,0-17.604-0.033-25.805-0.173c-0.252-2.408-0.115-4.986-0.115-7.644
		c0-5.239,0-10.232,0-15.632c0-1.748,0-3.594,0-5.689c0-0.652-0.102-1.703,0.172-1.839c0.043-0.054,0.105-0.087,0.174-0.115
		C121.3,0.247,131.271,0.115,140.776,0.345z"/>
	<path style="fill-rule:evenodd;clip-rule:evenodd;" d="M158.591,0.23c1.384,0.073,3.061-0.148,4.254,0.115
		c0.189,10.231,0.211,20.595,0,30.747c-1.229,0.192-3.197,0.185-4.426,0c-0.215-8.765-0.115-17.755-0.115-26.896
		c0-1.178-0.087-3.047,0.115-3.793C158.45,0.32,158.509,0.262,158.591,0.23z"/>
	<path style="fill-rule:evenodd;clip-rule:evenodd;" d="M212.959,0.345c0.186,1.228,0.191,3.199,0,4.425
		c-8.014,0.339-16.831-0.126-24.771,0.288c-0.191,6.833-0.191,14.486,0,21.379c6.491,0.202,13.652,0.169,20.058,0
		c0.302-0.724,0.173-1.619,0.173-2.472c0-2.445-0.094-5.333,0.115-7.644c1.225-0.195,3.197-0.182,4.425,0
		c0.19,4.676,0.191,10.152,0,14.828c-9.88,0.037-19.923,0.233-29.483-0.058c-0.206-9.32-0.114-19.35-0.114-29.08
		c0-0.56-0.143-1.238,0.23-1.724C192.977,0.235,203.484,0.112,212.959,0.345z"/>
</g>
<g id="Layer_1">
</g>
</svg>
