<?xml version="1.0" encoding="iso-8859-1"?>
<!-- Generator: Adobe Illustrator 19.2.0, SVG Export Plug-In . SVG Version: 6.00 Build 0)  -->
<svg version="1.1" xmlns="http://www.w3.org/2000/svg" xmlns:xlink="http://www.w3.org/1999/xlink" x="0px" y="0px"
	 viewBox="0 0 72.377 73.064" style="enable-background:new 0 0 72.377 73.064;" xml:space="preserve">
<g id="ISLO_x5F_aluminum">
	<path style="fill-rule:evenodd;clip-rule:evenodd;" d="M41.189,16.758c0.203,1.074,1.174,1.653,1.797,2.475
		c0.889,1.178,1.65,2.779,1.795,4.659c0.131,1.706-0.09,3.604-1.359,4.174c-0.961-0.152-3.602,0.325-4.465-0.097
		c-0.484-0.237-0.666-1.12-0.825-1.941c-0.842-4.325-3.904-7.335-8.008-8.396c-0.869-0.225-1.961-0.187-2.379-0.728
		c-0.269-0.349-0.273-1.014-0.242-1.795c0.027-0.697-0.091-1.417-0.097-1.99c-0.038-3.6-0.012-6.848-0.098-10.338
		c-0.034-1.396-0.236-2.658,1.116-2.766c0.947-0.075,2.179,0.173,3.252,0.34c6.096,0.949,10.729,3.409,14.463,6.892
		c0.525,0.491,1.592,1.205,1.602,1.941c0.008,0.745-1.074,1.511-1.553,1.99c-1.188,1.186-2.379,2.394-3.496,3.591
		C42.162,15.339,41.464,15.881,41.189,16.758z"/>
	<path style="fill-rule:evenodd;clip-rule:evenodd;" d="M54.148,25.979c-1.031,0.291-0.76,1.83-0.922,3.106
		c-0.35,2.751-1.723,4.7-3.592,6.018c-0.426,0.3-0.996,0.744-1.553,0.728c-0.883-0.025-1.602-1.086-2.137-1.602
		c-0.691-0.666-1.414-1.1-1.697-2.038c0.08-0.86,0.797-1.463,1.213-2.184c1.199-2.08,1.889-5.087,1.067-8.202
		c-0.258-0.983-0.658-1.871-1.115-2.67c-0.451-0.785-1.242-1.425-1.31-2.426c0.109-0.728,0.738-1.223,1.213-1.699
		c2.791-2.79,5.645-5.792,8.543-8.687c0.426-0.426,1.238-1.509,1.844-1.359c0.707,0.176,1.387,1.083,1.893,1.699
		c2.674,3.251,4.615,7.308,5.678,12.279c0.193,0.903,0.379,1.862,0.486,3.106c0.098,1.14,0.367,2.943-0.195,3.494
		c-0.68,0.666-3.213,0.308-4.561,0.34C57.294,25.923,55.763,25.911,54.148,25.979z"/>
	<path style="fill-rule:evenodd;clip-rule:evenodd;" d="M16.583,28.745c-0.777-0.071-1.223-0.786-1.698-1.262
		c-2.908-2.907-5.938-5.792-8.882-8.736c-0.48-0.48-1.143-0.898-1.262-1.65c0.051-0.839,0.813-1.396,1.407-1.893
		c3.985-3.334,9.698-6.16,16.501-6.503c0.316-0.016,1.394-0.097,1.796,0.097c1.062,0.51,0.752,3.586,0.776,5.193
		c0.012,0.76-0.029,1.591,0,2.378c0.048,1.289-0.138,2.461,0.68,2.912c0.508,0.281,1.354,0.122,2.136,0.146
		c2.761,0.085,4.911,1.549,6.309,3.3c0.324,0.406,1.106,1.269,1.067,2.087c-0.038,0.861-1.114,1.656-1.602,2.184
		c-0.504,0.547-1.343,1.633-2.135,1.65c-0.457,0.01-0.995-0.514-1.456-0.825c-1.788-1.208-4.161-2.076-7.377-1.795
		c-1.982,0.173-3.549,1.015-4.805,1.941C17.644,28.26,17.325,28.647,16.583,28.745z"/>
	<path style="fill-rule:evenodd;clip-rule:evenodd;" d="M8.77,25.057c0.886-0.173,1.666,0.987,2.184,1.504
		c1.236,1.235,2.434,2.376,3.641,3.543c0.488,0.473,1.279,1.518,2.087,1.504c0.632-0.011,1.019-0.623,1.456-1.019
		c1.449-1.321,3.238-2.574,6.066-2.524c1.145,0.021,2.872,0.147,3.3,1.213c0.206,0.514,0.146,1.424,0.146,2.281
		c0,1.046,0.174,2.048-0.291,2.572c-0.505,0.569-1.294,0.472-1.99,0.631c-2.794,0.639-4.756,2.202-6.261,4.465
		c-0.793,1.193-1.318,2.215-1.649,3.979c-0.156,0.829-0.15,1.781-0.874,2.087c-0.84,0.355-2.906,0.105-3.98,0.146
		c-2.662,0.1-5.058,0-8.057,0c-1.72,0-3.961,0.37-4.416-0.679c-0.315-0.729,0.022-2.306,0.145-3.203
		c0.574-4.202,1.893-7.579,3.592-10.58c0.855-1.515,1.777-2.736,2.96-4.125C7.376,26.209,8.076,25.344,8.77,25.057z"/>
	<path style="fill-rule:evenodd;clip-rule:evenodd;" d="M59.777,45.004c-0.516-0.444-1.096-1.095-1.746-1.747
		c-0.508-0.508-1.217-1.467-1.941-1.505c-1.108-0.057-1.551,1.17-2.379,1.602c-1.039,0.798-2.391,1.537-4.125,1.796
		c-1.564,0.233-4.08,0.178-4.611-1.116c-0.231-0.564-0.145-1.496-0.145-2.427c0-0.856-0.141-1.827,0.242-2.33
		c0.139-0.559,1.289-0.585,1.941-0.728c3.861-0.849,6.918-3.716,8.008-7.425c0.293-0.996,0.268-2.496,0.922-2.96
		c0.754-0.537,3.104-0.243,4.367-0.243c3.433,0,6.328,0.112,9.853-0.049c0.949-0.043,1.713-0.006,2.037,0.582
		c0.365,0.662,0.066,2.34-0.047,3.3c-0.736,6.193-3.445,11.132-6.746,14.948c-0.494,0.57-1.289,1.594-1.99,1.602
		c-0.781,0.009-1.541-1.055-1.99-1.504C60.775,46.146,60.271,45.617,59.777,45.004z"/>
	<path style="fill-rule:evenodd;clip-rule:evenodd;" d="M24.106,37.53c0.939-0.233,1.746,0.872,2.378,1.504
		c0.721,0.72,1.55,1.277,1.699,2.087c-0.113,1.182-0.94,1.648-1.359,2.524c-0.623,1.356-1.233,3.129-1.213,5.096
		c0.021,1.946,0.583,3.73,1.262,5.047c0.275,1.009,1.523,1.552,1.504,2.669c-0.012,0.688-0.762,1.247-1.213,1.699
		c-0.531,0.532-0.964,1.035-1.456,1.456c-1.925,1.925-3.827,3.873-5.775,5.775c-0.31,0.549-0.798,0.992-1.358,1.553
		c-0.399,0.399-0.985,1.209-1.65,1.213c-0.719,0.004-1.469-1.07-1.941-1.65c-3.178-3.902-5.671-8.567-6.261-15.093
		c-0.119-1.323-0.497-3.267,0.436-3.786c0.46-0.256,1.533-0.194,2.281-0.194c2.281,0,5.042,0.02,7.184-0.097
		c0.285-0.151,0.478-0.395,0.679-0.631c0.095-2.081,0.233-3.919,0.922-5.484c0.521-1.183,1.64-2.391,2.67-3.106
		C23.223,37.883,23.72,37.656,24.106,37.53z"/>
	<path style="fill-rule:evenodd;clip-rule:evenodd;" d="M67.543,56.312c-0.143,1.038-1.088,1.274-1.602,1.941
		c-3.422,2.647-7.256,4.93-12.57,5.921c-0.859,0.161-1.723,0.189-2.814,0.292c-0.971,0.091-2.363,0.326-2.912-0.097
		c-0.756-0.582-0.486-3.276-0.486-4.659c0-0.783-0.047-1.69-0.047-2.523c0-1.383,0.207-2.781-0.68-3.203
		c-0.559-0.266-1.035-0.085-1.941-0.146c-2.381-0.16-4.631-1.366-5.825-2.669c-0.487-0.532-1.52-1.709-1.504-2.621
		c0.016-0.888,1.03-1.661,1.553-2.184c0.676-0.676,1.246-1.44,2.086-1.65c1.068,0.233,1.738,0.969,2.621,1.456
		c1.857,1.024,5.06,1.558,7.717,0.874c0.895-0.23,1.742-0.646,2.475-1.067c0.707-0.405,1.445-1.138,2.186-1.359
		c0.65-0.194,1.365,0.667,1.893,1.214c2.902,3.015,5.715,5.909,8.639,8.832C66.791,55.123,67.459,55.557,67.543,56.312z"/>
	<path style="fill-rule:evenodd;clip-rule:evenodd;" d="M29.299,45.246c1.264-0.083,2.86-0.078,4.125,0
		c0.736,0.357,0.829,1.211,0.971,1.941c0.448,2.307,1.519,4.172,3.009,5.582c1.494,1.412,3.178,2.487,5.629,2.96
		c0.731,0.141,1.588,0.181,1.941,0.922c0.178,4.071,0.018,8.41,0.146,12.521c0.037,1.192,0.213,3.293-0.486,3.737
		c-0.529,0.337-2.516,0.036-3.396-0.097c-5.202-0.786-9.454-2.64-12.91-5.242c-0.623-0.469-1.336-0.975-2.038-1.602
		c-0.562-0.501-1.554-1.382-1.554-2.039c0-0.744,1.055-1.491,1.554-1.99c1.204-1.205,2.271-2.272,3.494-3.494
		c0.466-0.466,1.489-1.251,1.504-1.99c0.011-0.518-0.537-0.968-0.922-1.408c-1.418-1.621-2.79-3.588-2.621-6.746
		c0.046-0.855,0.232-1.497,0.437-2.281C28.496,45.706,28.732,45.311,29.299,45.246z"/>
</g>
<g id="Layer_1">
</g>
</svg>
