<?xml version="1.0" encoding="iso-8859-1"?>
<!-- Generator: Adobe Illustrator 21.0.2, SVG Export Plug-In . SVG Version: 6.00 Build 0)  -->
<svg version="1.1" xmlns="http://www.w3.org/2000/svg" xmlns:xlink="http://www.w3.org/1999/xlink" x="0px" y="0px"
	 viewBox="0 0 15.776 15.613" style="enable-background:new 0 0 15.776 15.613;" xml:space="preserve">
<g id="Israel_x5F_Airlines">
	<path d="M0.058,0.002C2.77-0.001,5.481,0.02,8.193,0.015c1.013,0.011,2.025-0.037,3.037-0.003c1.252-0.007,2.505,0.016,3.757,0.011
		c0.263-0.008,0.526,0.025,0.788-0.003c0,1.961-0.01,3.921-0.012,5.882c-0.036,0.729-0.011,1.46-0.018,2.19
		c0.007,2.485-0.011,4.969-0.014,7.453c-0.858,0.045-1.719,0.021-2.579,0.036c-0.343-0.014-0.685,0.026-1.027,0.018
		c-2.308,0.003-4.616-0.007-6.924,0.013c-1.133,0.002-2.266-0.001-3.399-0.005c-0.596-0.02-1.193-0.021-1.79-0.009
		C0.014,15.406,0.02,15.213,0,15.021c0.026-0.342,0.01-0.686,0.014-1.029c-0.001-1.505,0.002-3.01-0.001-4.515
		c-0.026-0.373,0.035-0.745-0.003-1.118c0.02-0.715,0.012-1.431,0.016-2.146C0.025,4.143,0.052,2.073,0.058,0.002z M0.238,0.219
		C0.24,2.72,0.224,5.222,0.214,7.723c2.54,0.018,5.08,0.009,7.621,0.009c0.002-0.625,0.002-1.25,0-1.874
		C5.935,5.855,4.035,5.862,2.135,5.845C2.137,5.54,2.141,5.236,2.132,4.932c1.843-0.002,3.684,0.036,5.527,0.03
		c0.061-0.004,0.185,0.01,0.175-0.085c0.001-0.611,0.003-1.222-0.001-1.833c-0.461,0-0.923,0-1.383,0.003
		c-0.328,0.031-0.656,0.006-0.984,0.01c-1.112,0-2.221-0.026-3.332-0.025C2.133,2.713,2.136,2.396,2.136,2.078
		c1.021,0,2.042,0.008,3.062,0.017C5.556,2.121,5.914,2.104,6.271,2.11c0.523,0.002,1.046-0.007,1.569-0.007
		C7.89,1.484,7.846,0.861,7.849,0.24C6.757,0.227,5.664,0.257,4.574,0.215C4.081,0.212,3.588,0.213,3.095,0.211
		c-0.654,0.04-1.309-0.013-1.964,0.006C0.833,0.229,0.535,0.199,0.238,0.219z M8.064,0.24C8.079,0.83,8.055,1.421,8.059,2.01
		c0,1.028,0,2.055,0,3.083C8.052,5.977,8.073,6.86,8.048,7.742c1.925,0.001,3.851-0.004,5.777-0.013
		c0.563,0.003,1.127,0.011,1.69,0.001c0.012-0.012,0.037-0.037,0.049-0.049c0.018-0.599-0.009-1.199-0.014-1.798
		c-1.891-0.001-3.782-0.015-5.673-0.014c0.029-0.316,0.008-0.635,0.014-0.952c-0.006-1.56,0.012-3.121-0.009-4.681
		C9.678,0.213,9.47,0.229,9.265,0.226C8.865,0.258,8.464,0.234,8.064,0.24z M4.813,7.915c-0.099,0.134-0.181,0.28-0.271,0.42
		C4.505,8.398,4.464,8.458,4.427,8.521C4.382,8.595,4.335,8.668,4.292,8.743C4.17,8.935,4.053,9.131,3.935,9.325
		c-0.037,0.055-0.073,0.113-0.109,0.17C3.79,9.559,3.751,9.62,3.713,9.683c-0.083,0.13-0.163,0.261-0.245,0.391
		c-0.103,0.165-0.207,0.329-0.312,0.494c-0.08,0.138-0.171,0.269-0.25,0.407c-0.078,0.118-0.151,0.238-0.224,0.359
		c-0.122,0.193-0.243,0.386-0.357,0.583c-0.037,0.056-0.072,0.114-0.109,0.171c-0.072,0.121-0.148,0.24-0.224,0.359
		c-0.043,0.074-0.09,0.147-0.135,0.22c-0.074,0.12-0.142,0.244-0.224,0.359c-0.077,0.118-0.143,0.242-0.223,0.358
		c-0.038,0.062-0.077,0.123-0.114,0.186c-0.079,0.116-0.148,0.239-0.223,0.358c-0.031,0.044-0.061,0.089-0.089,0.134
		c-0.037,0.056-0.073,0.114-0.11,0.17c-0.074,0.119-0.147,0.24-0.223,0.359c-0.037,0.063-0.077,0.124-0.114,0.186
		c-0.038,0.056-0.073,0.114-0.109,0.171c-0.085,0.141-0.181,0.276-0.267,0.417c0.012,0.011,0.035,0.032,0.047,0.043
		c0.726-0.017,1.453,0.003,2.181-0.005c0.195-0.31,0.394-0.618,0.577-0.935c0.973,0.003,1.946,0,2.919-0.003
		c0.004,0.313,0.006,0.626,0.006,0.939c0.632,0.006,1.263,0.029,1.895,0.017c0.013-0.417-0.012-0.835,0.019-1.251
		c0.025-2.081,0.018-4.161,0.011-6.242C7.602,7.904,7.384,7.915,7.167,7.913C6.382,7.914,5.597,7.91,4.813,7.915z M8.053,7.93
		c-0.019,0.754,0.001,1.508-0.003,2.263c-0.004,1.162-0.011,2.324-0.016,3.486c-0.037,0.561-0.018,1.124-0.017,1.685
		c0.013,0.013,0.04,0.04,0.053,0.054c0.458,0.008,0.917,0.004,1.376-0.003c0.447-0.017,0.894,0.023,1.341-0.008
		c1.583-0.052,3.167-0.029,4.751-0.054c0.005-0.619,0.002-1.238,0.001-1.858c-1.183,0.013-2.366-0.005-3.55,0.009
		c-0.699,0.042-1.398,0.044-2.098,0.04c-0.012-0.565,0.014-1.131-0.015-1.696c0.001-1.308,0.004-2.617,0-3.925
		C9.27,7.927,8.662,7.917,8.053,7.93z"/>
	<path d="M5.675,10.083c0.076-0.125,0.154-0.25,0.244-0.366c0.019,0.968-0.025,1.936-0.02,2.904c-0.598,0.002-1.197,0-1.795,0.002
		C4.636,11.783,5.149,10.929,5.675,10.083z"/>
</g>
<g id="Layer_1">
</g>
</svg>
