<?xml version="1.0" encoding="iso-8859-1"?>
<!-- Generator: Adobe Illustrator 19.2.0, SVG Export Plug-In . SVG Version: 6.00 Build 0)  -->
<svg version="1.1" xmlns="http://www.w3.org/2000/svg" xmlns:xlink="http://www.w3.org/1999/xlink" x="0px" y="0px"
	 viewBox="0 0 79.457 70.04" style="enable-background:new 0 0 79.457 70.04;" xml:space="preserve">
<g id="istituto_x5F_geografico_x5F_de_x5F_agostini">
	<path style="fill-rule:evenodd;clip-rule:evenodd;" d="M49.415,26.319c-1.725,1.489-3.497,2.604-5.832,3.326
		c-2.396,0.74-5.603,0.799-8.048,0.048c-2.23-0.685-4.298-1.671-5.976-3.181c-1.623-1.46-2.992-3.27-3.856-5.302
		c-0.923-2.167-1.263-4.837-1.06-7.903c0.18-2.727,1.128-4.979,2.361-6.796c2.629-3.869,7.778-7.274,14.361-6.361
		c2.92,0.405,5.557,1.775,7.519,3.47c2.079,1.797,3.474,3.79,4.481,6.507C55.686,16.375,53.105,23.18,49.415,26.319z"/>
	<path style="fill-rule:evenodd;clip-rule:evenodd;" d="M24.547,8.343c0.068,1.461-0.944,2.153-1.879,2.892
		c-3.04,2.4-6.312,5.017-9.35,7.325c-3.108,2.425-6.067,5.081-9.253,7.47c-0.428,0.32-0.934,0.792-1.543,0.724
		c-0.234-0.706,0.331-1.197,0.675-1.639c0.369-0.475,0.781-0.948,1.157-1.35c4.325-3.882,9.738-7.916,14.555-11.76
		c0.735-0.587,1.595-1.258,2.457-1.928c0.834-0.648,1.752-1.472,2.506-1.879C24.093,8.079,24.343,8.074,24.547,8.343z"/>
	<path style="fill-rule:evenodd;clip-rule:evenodd;" d="M23.439,12.969c0.276,1.177-0.724,1.846-1.445,2.41
		c-5.05,3.949-10.185,8.144-15.23,12.097c-1.462,1.205-2.741,2.248-4.337,3.47c-0.44,0.336-1.943,1.741-2.072,0.434
		c-0.033-0.331,0.177-0.831,0.192-0.867c0.369-0.831,1.672-1.725,2.555-2.458c4.459-3.702,9.36-7.469,13.88-10.988
		c0.908-0.708,1.814-1.486,2.746-2.217c0.924-0.723,1.872-1.582,2.844-2.12C22.848,12.576,23.221,12.627,23.439,12.969z"/>
	<path style="fill-rule:evenodd;clip-rule:evenodd;" d="M23.536,16.825c0.081,1.316-1.202,1.953-2.025,2.603
		c-5.937,4.688-11.933,9.518-17.879,14.217c-0.625,0.461-1.463,1.095-2.217,1.688c-0.21,0.164-0.51,0.479-0.868,0.434
		c-0.867-0.111-0.524-1.238-0.192-1.687c0.352-0.479,0.969-0.91,1.398-1.253c2.911-2.334,5.949-4.815,8.819-7.085
		c4.064-3.213,7.97-6.395,11.903-9.301C22.882,16.163,23.416,16.502,23.536,16.825z"/>
	<path style="fill-rule:evenodd;clip-rule:evenodd;" d="M7.053,34.56c-1.274,1.034-2.92,2.289-4.434,3.47
		c-0.491,0.384-1.046,1-1.639,0.868C0.09,38.699,0.44,37.681,0.836,37.21c0.448-0.531,1.008-0.833,1.446-1.253
		c0.96-0.822,2.008-1.558,2.987-2.361c1.911-1.671,4.033-3.132,5.928-4.819c3.607-2.658,6.985-5.545,10.555-8.241
		c0.493-0.243,0.984-1.209,1.734-1.156c0.399,0.027,0.721,0.422,0.772,0.723c0.159,0.95-1.06,1.726-1.735,2.266
		C17.498,26.377,11.921,30.762,7.053,34.56z"/>
	<path style="fill-rule:evenodd;clip-rule:evenodd;" d="M64.547,20.054c0.464-0.047,0.963,0.042,1.013,0.53
		c0.051,0.496-0.879,1.078-1.205,1.397c-1.306,1.279-2.918,2.409-4.289,3.47c-3.851,2.979-7.808,6.101-11.566,9.108
		c-1.333,1.067-2.946,2.218-4.386,3.374c-0.454,0.364-1.06,0.887-1.59,0.964c-0.787,0.113-1.3-0.154-1.35-0.627
		c-0.052-0.491,0.877-1.136,1.205-1.397c6.646-5.305,13.46-10.395,20.097-15.711C63.122,20.645,63.694,20.139,64.547,20.054z"/>
	<path style="fill-rule:evenodd;clip-rule:evenodd;" d="M47.342,36.584c5.21-4.173,11.113-8.53,16.531-12.916
		c0.394-0.319,0.735-0.693,1.205-1.061c0.904-0.706,1.938-1.779,3.084-1.976c0.391-0.067,0.925,0.128,0.964,0.626
		c0.044,0.566-0.733,1.069-1.205,1.446c-0.96,0.769-1.941,1.547-2.892,2.313c-5.771,4.655-11.677,9.149-17.494,13.831
		c-0.443,0.357-1.04,0.891-1.639,0.964c-0.601,0.074-1.17-0.155-1.204-0.675c-0.043-0.635,0.825-1.101,1.204-1.397
		C46.447,37.31,46.879,36.895,47.342,36.584z"/>
	<path style="fill-rule:evenodd;clip-rule:evenodd;" d="M60.452,21.066c0.059,0.656-0.641,1.01-1.061,1.35
		c-1.317,1.066-2.838,2.122-4.097,3.277c-4.751,3.61-9.648,7.57-14.554,11.325c-0.73,0.558-1.436,1.262-2.12,1.542
		c-0.443,0.182-2.148,0.665-2.313-0.048c-0.134-0.575,0.736-1.058,1.156-1.398c3.325-2.69,6.738-5.21,10.024-7.855
		c1.798-1.4,3.74-2.95,5.734-4.482c2.007-1.542,3.997-3.119,6.41-3.856C59.824,20.863,60.329,20.777,60.452,21.066z"/>
	<path style="fill-rule:evenodd;clip-rule:evenodd;" d="M70.909,21.933c0.529-0.216,1.074,0.193,1.109,0.627
		c0.044,0.556-0.591,0.988-1.061,1.35c-5.012,3.852-9.72,7.928-14.747,11.711c-1.857,1.397-3.646,2.9-5.397,4.192
		c-0.363,0.333-0.89,0.833-1.542,1.205c-0.65,0.37-1.674,0.398-1.735-0.434c-0.065-0.873,2.082-2.157,2.65-2.603
		c3.944-3.085,7.9-6.107,11.808-9.157c0.997-0.778,1.894-1.622,2.843-2.361c0.914-0.711,1.908-1.513,2.941-2.312
		C68.726,23.414,69.941,22.237,70.909,21.933z"/>
	<path style="fill-rule:evenodd;clip-rule:evenodd;" d="M3.873,38.367c2.873-2.299,5.686-4.659,8.627-6.891
		c3.172-2.606,6.832-5.343,10.169-8c0.441-0.352,1.091-1.158,1.686-1.205c0.477-0.037,0.824,0.374,0.867,0.675
		c0.137,0.947-1.098,1.722-1.735,2.217c-5.118,3.977-10.199,8.297-15.421,12.145C6.9,38.303,5.151,39.676,3.68,40.826
		c-0.449,0.35-1.092,1.018-1.686,0.915c-0.286-0.049-0.595-0.445-0.627-0.675c-0.1-0.727,0.656-1.206,1.061-1.542
		C2.961,39.079,3.357,38.698,3.873,38.367z"/>
	<path style="fill-rule:evenodd;clip-rule:evenodd;" d="M73.368,23.62c0.419-0.245,1.03,0.27,1.06,0.675
		c0.04,0.547-0.714,1.09-1.205,1.493c-3.297,2.711-7.271,5.692-10.313,8.29c-3.284,2.554-6.994,5.435-10.457,8.145
		c-0.689,0.538-2.093,1.641-2.458,0.145c0.01-0.874,0.749-1.018,1.156-1.494c3.562-2.848,7.229-5.62,11.037-8.627
		c2.659-2.1,5.408-4.342,8.24-6.506C71.357,25.03,72.416,23.968,73.368,23.62z"/>
	<path style="fill-rule:evenodd;clip-rule:evenodd;" d="M26.813,25.499c0.026,0.778-0.639,1.16-1.108,1.543
		c-1.424,1.154-2.827,2.398-4.289,3.566c-3.728,2.974-7.98,6.301-11.76,9.253c-1.35,1.054-2.891,2.23-4.434,3.421
		c-0.487,0.376-1.06,0.985-1.686,0.916c-0.319-0.035-0.744-0.352-0.772-0.771c-0.061-0.956,2.014-2.119,2.603-2.602
		c4.775-3.911,9.571-7.53,14.41-11.47c1.345-1.096,2.885-2.323,4.337-3.471C24.865,25.291,26.211,23.886,26.813,25.499z"/>
	<path style="fill-rule:evenodd;clip-rule:evenodd;" d="M75.247,25.644c0.503-0.206,1.046,0.19,1.108,0.578
		c0.098,0.611-0.638,1.275-1.06,1.639c-1.432,1.231-3.005,2.461-4.435,3.566c-5.14,3.979-9.756,7.863-14.939,11.711
		c-0.439,0.327-0.955,0.716-1.494,1.157c-0.543,0.443-1.07,1.011-1.687,0.964c-0.415-0.032-0.842-0.348-0.868-0.819
		c-0.029-0.547,0.64-1.08,1.157-1.494c3.422-2.741,6.872-5.359,10.313-8.049c0.958-0.748,1.961-1.633,2.892-2.36
		c1.97-1.541,3.811-3.045,5.879-4.627c0.996-0.762,2.003-1.686,3.036-2.266C75.182,25.644,75.214,25.644,75.247,25.644z"/>
	<path style="fill-rule:evenodd;clip-rule:evenodd;" d="M23.247,32.68c-1.935,1.568-3.908,3.097-5.88,4.627
		c-1.958,1.56-3.901,3.135-5.928,4.627c-0.935,0.816-1.947,1.555-2.939,2.312c-0.706,0.24-2.004,2.217-3.181,1.977
		c-0.24-0.05-0.574-0.232-0.627-0.579c-0.096-0.629,0.784-1.312,1.061-1.542c3.311-2.758,6.799-5.426,10.12-8.048
		c2.188-1.727,3.812-3.139,5.783-4.578c0.914-0.668,1.996-1.437,2.892-2.313c0.406-0.397,0.92-0.852,1.398-1.205
		c0.551-0.408,1.104-1.005,1.734-1.061c0.498-0.043,0.999,0.19,1.061,0.724c0.089,0.767-0.678,1.189-1.108,1.542
		C26.206,30.335,24.483,31.542,23.247,32.68z"/>
	<path style="fill-rule:evenodd;clip-rule:evenodd;" d="M76.837,28.006c0.36-0.193,0.948,0.173,1.012,0.578
		c0.214,1.357-2.052,2.092-2.506,2.843c-1.787,1.312-3.46,2.742-5.253,4.097c-1.727,1.304-3.402,2.777-5.205,4.145
		c-1.7,1.29-3.364,2.823-5.205,4.145c-1.188,0.854-2.62,2.009-3.951,3.036c-0.365,0.282-0.943,0.87-1.494,0.819
		c-0.359-0.032-0.727-0.303-0.771-0.723c-0.062-0.585,0.594-1.201,1.061-1.591c1.43-1.192,3.033-2.386,4.434-3.47
		c1.456-1.127,2.976-2.341,4.482-3.47c0.497-0.373,0.922-0.833,1.396-1.205c4.024-3.146,7.88-6.159,11.857-9.204
		C76.741,28.006,76.789,28.006,76.837,28.006z"/>
	<path style="fill-rule:evenodd;clip-rule:evenodd;" d="M29.897,31.041c-5.627,4.285-11.018,8.807-16.627,13.109
		c-1.373,0.959-2.914,2.479-4.578,3.518c-0.556,0.347-1.597,0.595-1.734-0.289c-0.139-0.889,0.672-1.066,1.108-1.494
		c3.478-2.72,6.923-5.735,10.844-8.675c3.139-2.353,6.302-5.097,9.493-7.565c0.552-0.428,1.127-0.947,1.783-0.964
		c0.58-0.016,0.945,0.451,0.964,0.867C31.184,30.303,30.165,30.679,29.897,31.041z"/>
	<path style="fill-rule:evenodd;clip-rule:evenodd;" d="M32.741,30.271c0.595-0.177,1.152,0.1,1.205,0.627
		c-0.015,0.725-0.784,1.079-1.254,1.445c-3.488,2.724-7.017,5.508-10.506,8.337c-1.919,1.558-4.006,3.09-6.024,4.772
		c-0.975,0.812-1.878,1.491-3.036,2.361c-0.474,0.356-0.865,0.759-1.542,1.157c-0.593,0.349-1.572,0.591-1.734-0.241
		c-0.146-0.751,0.702-0.945,1.06-1.446c6.85-5.246,13.385-10.81,20.29-16C31.658,30.891,32.061,30.443,32.741,30.271z"/>
	<path style="fill-rule:evenodd;clip-rule:evenodd;" d="M78.91,31.235c-0.058,1.726-1.609,1.958-2.41,2.939
		c-5.166,3.863-10.418,8.292-15.711,12.386c-1.22,0.943-2.562,2.04-3.903,3.133c-0.699,0.569-1.736,1.323-2.217,0.192
		c0.105-1.521,1.469-2.122,2.458-2.892c0.98-0.764,1.999-1.569,2.987-2.314c1.941-1.461,3.842-3.14,5.88-4.723
		c2.932-2.276,5.85-4.674,8.916-6.988c0.918-0.692,2.129-1.953,3.084-2.265C78.352,30.588,78.756,30.848,78.91,31.235z"/>
	<path style="fill-rule:evenodd;clip-rule:evenodd;" d="M33.126,33.258c0.977-0.458,1.799-1.893,3.036-2.071
		c0.709-0.102,1.331,0.094,1.397,0.578c0.083,0.605-0.806,1.112-1.157,1.397c-5.164,4.191-10.345,8.151-15.518,12.337
		c-1.297,1.049-2.816,2.272-4.241,3.374c-0.486,0.377-1.009,0.83-1.494,1.012c-0.578,0.218-1.675,0.394-1.783-0.386
		c-0.07-0.505,0.613-0.929,1.013-1.253C20.614,43.191,26.83,38.148,33.126,33.258z"/>
	<path style="fill-rule:evenodd;clip-rule:evenodd;" d="M40.258,33.885c-4.528,3.42-9.029,7.107-13.59,10.651
		c-0.759,0.589-1.495,1.194-2.218,1.831c-1.208,1.065-2.488,1.842-4.096,2.506c-0.53,0.219-1.275,0.708-1.88,0.289
		c-0.192-0.796,0.678-0.922,0.964-1.397c3.305-2.537,6.524-5.437,10.169-8.193c1.713-1.295,3.398-2.701,5.156-4.048
		c0.813-0.622,1.765-1.279,2.603-1.976c0.853-0.711,1.748-1.574,2.602-1.976c0.424-0.2,2.516-0.814,2.65,0.048
		c0.09,0.57-0.71,0.903-1.107,1.205C41.024,33.195,40.601,33.656,40.258,33.885z"/>
	<path style="fill-rule:evenodd;clip-rule:evenodd;" d="M66.524,43.235c2.803-2.137,5.951-4.711,8.867-6.988
		c1.009-0.787,2.011-1.625,3.036-2.217c0.353-0.203,0.856-0.039,1.013,0.386c0.128,0.784-0.47,1.299-0.964,1.734
		c-1.383,1.222-2.922,2.421-4.435,3.519c-1.011,0.734-1.947,1.602-2.987,2.361c-3.073,2.245-5.765,4.65-8.867,7.085
		c-1.422,1.114-2.902,2.354-4.435,3.565c-0.464,0.367-1.899,1.567-2.313,0.482c-0.462-1.211,1.768-2.457,2.313-2.892
		C60.725,47.91,63.627,45.585,66.524,43.235z"/>
	<path style="fill-rule:evenodd;clip-rule:evenodd;" d="M78.476,37.645c1.057-0.072,0.531,1.341,0.192,1.782
		c-0.422,0.552-0.972,0.934-1.397,1.302c-1.054,0.911-2.116,1.629-3.036,2.361c-3.136,2.495-6.009,4.753-9.061,7.229
		c-2.478,2.01-4.984,3.994-7.566,5.976c-0.486,0.373-0.965,1.042-1.687,0.915c-0.896-0.489-0.304-1.471,0-1.831
		c0.412-0.488,1.056-0.938,1.445-1.253c1.019-0.823,2.151-1.66,3.036-2.313c2.067-1.523,3.998-3.326,5.929-4.819
		c3.028-2.342,6.002-4.753,9.012-7.132C76.345,39.069,77.371,38.268,78.476,37.645z"/>
	<path style="fill-rule:evenodd;clip-rule:evenodd;" d="M38.283,39.91c4.755-0.306,8.782,1.505,11.181,3.855
		c1.339,1.312,2.29,2.415,3.229,4.289c0.816,1.63,1.597,3.721,1.688,5.783c0.214,4.852-1.422,8.566-3.711,11.181
		c-2.349,2.682-5.543,4.552-10.024,4.964c-4.68,0.431-8.564-1.6-11.084-3.759c-2.601-2.229-4.569-5.608-4.916-10.072
		c-0.372-4.783,1.284-8.77,3.518-11.277c1.718-1.93,3.971-3.481,6.892-4.386C36.051,40.179,37.192,39.979,38.283,39.91z"/>
	<path style="fill-rule:evenodd;clip-rule:evenodd;" d="M77.078,42.801c0.008,1.014-0.808,1.779-1.397,2.458
		c-1.793,2.064-4.279,3.655-6.409,5.398c-2.897,2.369-5.886,4.684-8.771,6.939c-1.512,1.12-2.671,2.323-4.337,3.519
		c-0.367,0.263-1.189,1.034-1.639,0.771c-0.632-0.37,0.179-1.723,0.386-2.024c0.639-0.931,1.725-1.486,2.65-2.217
		c1.847-1.459,3.558-2.863,5.397-4.241c0.896-0.671,1.708-1.433,2.65-2.169c2.972-2.32,5.181-4.219,8.049-6.41
		c0.446-0.341,0.959-0.657,1.397-1.012c0.509-0.41,0.914-0.778,1.445-1.061C76.632,42.683,76.948,42.568,77.078,42.801z"/>
</g>
<g id="Layer_1">
</g>
</svg>
