<?xml version="1.0" encoding="iso-8859-1"?>
<!-- Generator: Adobe Illustrator 19.2.0, SVG Export Plug-In . SVG Version: 6.00 Build 0)  -->
<svg version="1.1" xmlns="http://www.w3.org/2000/svg" xmlns:xlink="http://www.w3.org/1999/xlink" x="0px" y="0px"
	 viewBox="0 0 76.267 45.062" style="enable-background:new 0 0 76.267 45.062;" xml:space="preserve">
<g id="J_x5F_Antonissen">
	<path style="fill-rule:evenodd;clip-rule:evenodd;" d="M17.234,0c5.942,0.037,11.696-0.053,17.456,0.152
		c0.303,4.243-0.101,9.192,0.203,13.435c1.552,0.299,3.491,0.204,5.343,0.204c1.884,0,3.762,0.092,5.293-0.152
		c-0.144-0.704-0.688-1.222-1.068-1.781c-2.255-3.311-4.683-6.598-7.073-9.873c-0.391-0.533-0.848-1.113-1.019-1.781
		c5.88-0.154,11.717-0.23,17.709-0.051c1.821,2.414,3.411,5.024,5.191,7.532c3.941,5.553,7.86,11.21,11.907,16.742
		c1.06,1.449,2.46,2.893,4.122,3.766c0.307,0.161,0.783,0.216,0.968,0.611c-6.441,0.214-13.205,0.1-19.593,0
		c-0.925-0.992-1.693-2.183-2.545-3.359c-2.049-2.832-3.932-5.687-6.056-8.651c-0.346-0.484-0.927-1.386-1.374-1.527
		c-0.736-0.232-2.078-0.051-2.951-0.05c-2.995,0-5.899-0.013-8.753,0.05c-0.347,0.618-0.204,1.381-0.204,2.036
		c0,5.046,0.423,10.716-0.458,15.062c-0.969,4.782-3.462,8.5-7.379,10.483c-1.95,0.988-4.317,1.822-6.921,2.036
		c-2.684,0.22-5.447,0.304-8.244-0.153c-2.382-0.389-4.724-1.103-6.616-2.341c-1.629-1.065-3.544-2.667-4.478-4.427
		c-0.545-1.028-1.021-2.777-0.408-4.02c0.566-1.147,1.897-2.223,3.156-2.646c1.784-0.601,4.278-0.436,5.801,0.051
		c1.598,0.509,2.911,1.837,3.307,3.256c0.182,0.647,0.182,1.396,0,1.985c-1.055,3.414-6.082,4.207-9.771,2.799
		c0.087,0.615,0.737,0.985,1.272,1.272c1.6,0.856,3.877,1.566,6.412,1.374c3.491-0.266,6.078-2.19,7.175-5.089
		c0.574-1.516,0.56-3.387,0.56-5.546c0-9.043,0.049-18.177,0.051-26.921c0-1.089,0.155-2.221-0.051-3.002
		c-0.188-0.713-1.027-0.908-1.12-1.374C17.119,0.054,17.174,0.024,17.234,0z"/>
</g>
<g id="Layer_1">
</g>
</svg>
