<?xml version="1.0" encoding="iso-8859-1"?>
<!-- Generator: Adobe Illustrator 21.0.2, SVG Export Plug-In . SVG Version: 6.00 Build 0)  -->
<svg version="1.1" xmlns="http://www.w3.org/2000/svg" xmlns:xlink="http://www.w3.org/1999/xlink" x="0px" y="0px"
	 viewBox="0 0 17.228 17.049" style="enable-background:new 0 0 17.228 17.049;" xml:space="preserve">
<g id="J_x5F_R_x5F_Geigy_x5F_6">
	<path d="M7.801,0.031c0.863-0.065,1.736-0.034,2.585,0.146c1.475,0.307,2.871,1.003,3.991,2.012c0.779,0.682,1.417,1.521,1.9,2.436
		c0.581,1.109,0.904,2.352,0.95,3.601c-0.01,0.321,0.022,0.646-0.025,0.966c-0.111,1.484-0.631,2.936-1.486,4.154
		c-0.588,0.858-1.341,1.597-2.197,2.186c-2.018,1.404-4.646,1.859-7.024,1.254c-2.214-0.544-4.181-2.013-5.327-3.983
		c-0.722-1.214-1.121-2.616-1.164-4.026c-0.05-1.569,0.351-3.152,1.146-4.507c0.605-1.041,1.43-1.951,2.41-2.65
		C4.798,0.725,6.281,0.178,7.801,0.031z M5.934,2.121C5.42,2.333,4.941,2.638,4.544,3.028C3.68,3.823,3.173,5.011,3.237,6.187
		C3.311,6.883,3.598,7.554,4.06,8.082c0.702,0.753,1.72,1.108,2.715,1.257c-0.017-1.093-0.001-2.186-0.008-3.28
		c0.54-0.001,1.079,0.001,1.619,0c-0.006,1.64-0.002,3.28-0.002,4.921c-0.685-0.026-1.377,0.023-2.054-0.106
		c-1.328-0.211-2.651-0.783-3.545-1.815c-0.49-0.573-0.836-1.261-1.021-1.99C1.686,7.507,1.605,7.949,1.62,8.396
		c-0.055,1.698,0.585,3.4,1.712,4.667c0.15,0.134,0.247,0.321,0.415,0.436c0.154,0.112,0.268,0.27,0.427,0.378
		c0.972,0.79,2.157,1.32,3.398,1.499c1.01,0.16,2.053,0.081,3.034-0.208c1.005-0.295,1.964-0.847,2.612-1.682
		c0.405-0.506,0.658-1.129,0.734-1.772c0.12-0.905-0.131-1.859-0.694-2.582c-0.268-0.356-0.627-0.636-1.011-0.859
		c-0.549-0.307-1.166-0.463-1.783-0.563c0.002,1.09-0.001,2.18,0.002,3.269c-0.539-0.019-1.08-0.018-1.619-0.001
		c0.005-1.64,0.001-3.281,0.002-4.922c0.637-0.004,1.276,0.009,1.91,0.089c1.37,0.187,2.729,0.78,3.643,1.842
		c0.461,0.553,0.813,1.2,0.994,1.899c0.005,0.056,0.036,0.104,0.073,0.146c0.047-0.347,0.11-0.691,0.141-1.039
		c0.004-0.492,0.022-0.987-0.064-1.473c-0.185-1.286-0.755-2.511-1.604-3.493c-0.182-0.173-0.313-0.397-0.524-0.54
		c-1.015-0.961-2.331-1.603-3.714-1.812C8.439,1.47,7.119,1.635,5.934,2.121z"/>
</g>
<g id="Layer_1">
</g>
</svg>
