<?xml version="1.0" encoding="iso-8859-1"?>
<!-- Generator: Adobe Illustrator 21.0.2, SVG Export Plug-In . SVG Version: 6.00 Build 0)  -->
<svg version="1.1" xmlns="http://www.w3.org/2000/svg" xmlns:xlink="http://www.w3.org/1999/xlink" x="0px" y="0px"
	 viewBox="0 0 19.659 18.676" style="enable-background:new 0 0 19.659 18.676;" xml:space="preserve">
<g id="Japanese_x5F_Canadian_x5F_Centennial">
	<path d="M8.768,0.017c0.046-0.022,0.103-0.025,0.143,0.012c0.359,0.261,0.676,0.58,0.932,0.944c0.097-0.041,0.143-0.145,0.211-0.22
		C10.292,0.47,10.56,0.209,10.865,0c0.311,0.082,0.595,0.253,0.865,0.427c0.933,0.622,1.619,1.608,1.868,2.702
		c0.109,0.411,0.12,0.84,0.147,1.262c0.077,0.003,0.136-0.045,0.198-0.082c0.216-0.074,0.432-0.159,0.654-0.22
		c0.191-0.016,0.372-0.089,0.563-0.107c0.185-0.005,0.37,0.009,0.555-0.009c0.209-0.019,0.417,0.016,0.625,0.035
		c0.195,0.054,0.4,0.066,0.589,0.139c0.725,0.215,1.39,0.622,1.917,1.163c0.006,0.258-0.106,0.497-0.191,0.734
		c-0.085,0.219-0.216,0.417-0.301,0.635c0.458,0.106,0.912,0.271,1.303,0.537c-0.005,0.165,0.018,0.334-0.03,0.495
		c0.009,0.168-0.043,0.328-0.043,0.495c-0.026,0.146-0.094,0.282-0.105,0.431c-0.076,0.195-0.139,0.395-0.217,0.588
		c-0.122,0.205-0.198,0.438-0.35,0.624c-0.209,0.359-0.514,0.648-0.812,0.933c-0.185,0.139-0.362,0.291-0.56,0.412
		c-0.24,0.127-0.473,0.281-0.736,0.35c-0.002,0.014-0.006,0.042-0.008,0.057c0.442,0.401,0.809,0.882,1.071,1.418
		c0.131,0.256,0.216,0.53,0.306,0.802c0.012,0.214,0.118,0.413,0.108,0.629c0.059,0.287,0.024,0.583,0.031,0.875
		c-0.034,0.2-0.032,0.406-0.089,0.602c-0.038,0.132-0.052,0.269-0.1,0.398c-0.049,0.131-0.069,0.279-0.165,0.388
		c-0.129,0.062-0.28,0.032-0.417,0.066c-0.301,0.001-0.606,0.018-0.901-0.045c-0.05-0.006-0.088,0.051-0.068,0.097
		c0.019,0.205,0.102,0.4,0.084,0.608c-0.013,0.247,0.041,0.518-0.084,0.743c-0.204,0.137-0.455,0.186-0.683,0.273
		c-0.263,0.051-0.521,0.151-0.792,0.129c-0.241,0.052-0.492,0.028-0.737,0.026c-0.131-0.047-0.269-0.017-0.403-0.037
		c-0.15-0.054-0.308-0.079-0.465-0.103c-0.091-0.033-0.179-0.077-0.276-0.092c-0.586-0.209-1.139-0.533-1.596-0.958
		c-0.383-0.356-0.697-0.783-0.931-1.25c-0.184-0.336-0.277-0.712-0.348-1.085c-0.007-0.184-0.007-0.368-0.003-0.552
		c0.289,0.013,0.563,0.116,0.851,0.137c0.296,0.064,0.596,0.106,0.891,0.178c0.216,0.001,0.417,0.087,0.631,0.104
		c0.202,0.008,0.393,0.087,0.594,0.109c0.009-0.018,0.026-0.054,0.035-0.073c-0.089-0.194-0.083-0.411-0.153-0.611
		c-0.048-0.152-0.065-0.311-0.107-0.465c0.008-0.17,0.131-0.309,0.271-0.396c0.382-0.299,0.738-0.629,1.126-0.921
		c0.147-0.146,0.326-0.254,0.472-0.401c0.377-0.285,0.721-0.61,1.097-0.896c-0.009-0.059-0.065-0.08-0.108-0.11
		c-0.159-0.093-0.304-0.207-0.455-0.312c-0.097-0.073-0.21-0.182-0.166-0.316c0.188-0.781,0.401-1.556,0.595-2.335
		c-0.22-0.026-0.43,0.075-0.65,0.07c-0.373,0.005-0.737,0.123-1.111,0.106c-0.092,0.001-0.162-0.075-0.201-0.15
		c-0.14-0.282-0.276-0.565-0.422-0.843c-0.015,0.002-0.046,0.008-0.062,0.01c-0.29,0.411-0.603,0.805-0.908,1.206
		c-0.14,0.186-0.266,0.384-0.427,0.554c-0.094,0.103-0.295,0.045-0.309-0.098c-0.007-0.238,0.052-0.471,0.094-0.703
		c0.018-0.271,0.106-0.531,0.123-0.803c0.057-0.219,0.101-0.443,0.102-0.67c0.055-0.135,0.063-0.28,0.088-0.422
		c0.021-0.277,0.131-0.542,0.113-0.823c0.057-0.188,0.112-0.382,0.097-0.581c-0.194,0.12-0.404,0.207-0.608,0.306
		c-0.22,0.108-0.431,0.241-0.667,0.314c-0.087-0.045-0.172-0.104-0.217-0.193c-0.335-0.631-0.645-1.273-0.985-1.902
		C9.935,3.57,9.924,3.523,9.91,3.479c-0.018,0-0.054,0-0.072,0C9.554,4.037,9.263,4.592,8.979,5.151
		C8.892,5.292,8.827,5.444,8.737,5.583C8.686,5.668,8.586,5.715,8.488,5.694C8.093,5.513,7.713,5.298,7.315,5.123
		C7.316,5.33,7.348,5.536,7.401,5.736c0.015,0.224,0.042,0.449,0.104,0.666C7.493,6.684,7.6,6.953,7.612,7.233
		C7.645,7.405,7.66,7.58,7.703,7.75c0.018,0.125-0.012,0.254,0.025,0.377c0.032,0.205,0.081,0.41,0.086,0.618
		c0.03,0.152,0.068,0.325-0.012,0.468C7.748,9.223,7.695,9.241,7.643,9.26C7.338,9.005,7.169,8.633,6.911,8.337
		c-0.227-0.319-0.463-0.63-0.701-0.942C6.085,7.617,5.974,7.847,5.858,8.075C5.78,8.194,5.731,8.351,5.588,8.41
		C5.26,8.438,4.946,8.297,4.619,8.311C4.333,8.275,4.05,8.21,3.761,8.201c0.017,0.102,0.036,0.204,0.071,0.302
		C3.881,8.641,3.883,8.79,3.94,8.926C3.995,9.052,3.994,9.194,4.05,9.32c0.03,0.06,0.032,0.127,0.043,0.192
		c0.032,0.114,0.074,0.225,0.093,0.342c0.02,0.127,0.091,0.242,0.101,0.372c0.01,0.148,0.108,0.279,0.1,0.428
		c-0.069,0.13-0.185,0.229-0.312,0.301c-0.149,0.086-0.281,0.197-0.421,0.296c-0.003,0.017-0.008,0.052-0.011,0.069
		c0.421,0.319,0.821,0.665,1.229,1.003c0.203,0.142,0.372,0.324,0.578,0.463c0.122,0.126,0.276,0.215,0.394,0.344
		c0.181,0.119,0.326,0.282,0.508,0.401c0.102,0.093,0.237,0.183,0.261,0.33c0.02,0.299-0.094,0.583-0.128,0.877
		c-0.021,0.114-0.062,0.225-0.085,0.339c0.204-0.013,0.403-0.063,0.603-0.104c0.171-0.022,0.34-0.056,0.508-0.095
		c0.197-0.011,0.386-0.068,0.579-0.107c0.227-0.025,0.446-0.092,0.672-0.123c0.199-0.028,0.392-0.107,0.596-0.085
		c0.013,0.138,0.016,0.278-0.013,0.415c-0.027,0.433-0.151,0.858-0.349,1.243c-0.607,1.207-1.789,2.101-3.111,2.368
		c-0.189,0.01-0.369,0.079-0.558,0.08c-0.325,0.008-0.653,0.021-0.971-0.057c-0.166-0.016-0.332-0.039-0.488-0.097
		c-0.254-0.055-0.495-0.153-0.729-0.264c-0.048-0.02-0.081-0.068-0.076-0.121c-0.007-0.449-0.027-0.901,0.039-1.347
		c-0.308,0.014-0.616,0.034-0.924,0.017c-0.161-0.048-0.333-0.01-0.491-0.075c-0.102-0.25-0.203-0.506-0.24-0.774
		c-0.023-0.091-0.044-0.182-0.062-0.274c-0.038-0.128,0.002-0.266-0.046-0.392c-0.013-0.186-0.006-0.373-0.004-0.559
		c0.027-0.1,0.039-0.203,0.031-0.307c-0.01-0.126,0.052-0.241,0.072-0.363c0.031-0.109,0.021-0.227,0.073-0.33
		c0.218-0.776,0.666-1.485,1.254-2.036c0.036-0.05,0.135-0.064,0.111-0.141C1.521,11.061,0.47,9.844,0.135,8.449
		C0.075,8.283,0.04,8.11,0.036,7.934c-0.043-0.254-0.038-0.513-0.033-0.77C0.256,6.985,0.55,6.876,0.837,6.765
		c0.145-0.06,0.3-0.085,0.451-0.125C1.284,6.588,1.273,6.536,1.243,6.492C1.033,6.12,0.89,5.717,0.778,5.307
		c0.632-0.68,1.492-1.132,2.399-1.311c0.224-0.02,0.446-0.073,0.672-0.062c0.237,0.003,0.477-0.017,0.71,0.033
		c0.228,0.003,0.44,0.088,0.661,0.13C5.484,4.168,5.733,4.283,5.983,4.39C5.976,4.104,5.996,3.819,6.016,3.534
		c0.078-0.463,0.205-0.921,0.419-1.34C6.913,1.217,7.758,0.422,8.768,0.017z"/>
</g>
<g id="Layer_1">
</g>
</svg>
