<?xml version="1.0" encoding="iso-8859-1"?>
<!-- Generator: Adobe Illustrator 19.2.0, SVG Export Plug-In . SVG Version: 6.00 Build 0)  -->
<svg version="1.1" xmlns="http://www.w3.org/2000/svg" xmlns:xlink="http://www.w3.org/1999/xlink" x="0px" y="0px"
	 viewBox="0 0 77.028 76.929" style="enable-background:new 0 0 77.028 76.929;" xml:space="preserve">
<g id="Japan_x5F_Association_x5F_for_x5F_the_x5F_Advancement_x5F_of_x5F_Science">
	<path style="fill-rule:evenodd;clip-rule:evenodd;" d="M12.31,66.459C7.448,61.656,3.408,56.024,1.378,48.518
		c-1.052-3.89-1.627-8.571-1.274-12.942c0.877-10.879,5.433-18.667,11.422-24.657c3.551-3.551,8.056-6.435,13.186-8.432
		c3.589-1.395,7.588-2.235,12.157-2.451c3.998-0.188,7.722,0.396,10.932,1.128c6.463,1.475,11.521,4.608,15.883,8.138
		c1.661,1.344,3.145,2.852,4.51,4.51c0.446,0.543,0.827,1.149,1.274,1.716c0.826,1.045,1.648,2.335,2.401,3.627
		c3.545,6.079,6.134,14.734,4.805,24.462c-0.955,6.99-3.438,12.474-6.863,17.206c-0.414,0.573-0.926,1.123-1.323,1.716
		c-1.175,1.752-2.683,3.311-4.265,4.706c-4.299,3.79-9.544,6.669-15.688,8.333c-4.056,1.1-8.686,1.662-13.529,1.177
		C25.209,75.773,18.123,71.615,12.31,66.459z M36.869,2.34c-3.945,0.249-7.314,0.839-10.441,2.059
		c-2.978,1.162-5.689,2.599-8.089,4.412c-1.208,0.913-2.403,1.766-3.431,2.794C9.714,16.798,5.756,23.432,4.81,32.782
		c-0.379,3.742,0.008,7.871,0.882,11.324c1.668,6.583,5.087,11.682,9.266,15.784c4.99,4.815,11.201,8.234,19.755,9.412
		c1.266,0.175,2.556,0.042,3.922,0.294c0.334,1.398-0.065,3.529,0.294,4.902c0.945,0.269,1.927,0.08,2.844,0
		c2.804-0.246,5.387-0.973,7.744-1.716c3.177-1,5.895-2.619,8.383-4.265c3.733-2.469,6.955-5.904,9.266-9.706
		c2.357-3.88,4.28-8.64,4.804-14.167c0.367-3.882,0.149-7.85-0.687-11.471c-1.562-6.77-4.887-12.106-9.02-16.275
		c-2.873-2.764-6.187-5.049-10.099-6.765c-3.368-1.478-7.366-2.644-11.911-2.843c-0.628-0.028-1.314,0.163-1.912-0.196
		c-0.273-1.468,0.035-3.214-0.245-4.657C37.78,2.176,37.263,2.315,36.869,2.34z"/>
	<path style="fill-rule:evenodd;clip-rule:evenodd;" d="M58.438,17.389c4.419,4.263,7.597,9.362,8.775,16.569
		c1.302,7.964-1.08,15.23-4.266,20.245c-1.561,2.459-3.724,4.693-6.078,6.618c-2.388,1.953-5.065,3.465-8.088,4.559
		c-3.232,1.17-6.544,1.989-10.638,1.912c-4.094-0.076-7.279-0.809-10.49-2.157c-5.823-2.445-10.433-6.423-13.726-11.617
		c-3.109-4.903-5.355-12.321-3.873-20.54c0.626-3.474,1.976-6.567,3.48-9.167c2.985-5.157,7.63-9.535,13.383-11.912
		c1.517-0.626,2.98-1.3,4.656-1.667c3.559-0.779,8.628-1.025,12.55-0.244C50.133,11.183,54.666,13.885,58.438,17.389z
		 M63.389,28.321c-1.236-2.769-2.989-5.194-5-7.206c-4.299-4.301-11.444-8.1-20.245-6.961c-0.925,0.12-1.772,0.268-2.647,0.441
		c-3.442,0.683-6.078,2.069-8.481,3.775c-3.613,2.564-6.518,5.68-8.382,10c-0.932,2.156-1.742,4.487-2.011,7.205
		c-0.087,0.888,0.031,1.854-0.294,2.795c-1.401,0.28-3.487-0.121-4.706,0.343c-0.151,3.844,0.883,7.121,2.157,9.902
		c1.288,2.811,2.994,5.201,5.049,7.255c3.914,3.914,9.854,7.107,17.501,7.108c1.919,0,3.762-0.25,5.441-0.687
		c8.016-2.083,13.787-6.986,16.813-13.922c1.1-2.52,1.851-5.43,2.059-8.677c0.029-0.445-0.138-0.97,0.196-1.372
		c1.271-0.184,3.381,0.094,4.657-0.099C65.673,34.381,64.637,31.115,63.389,28.321z"/>
	<path style="fill-rule:evenodd;clip-rule:evenodd;" d="M38.241,18.468c6.384-0.304,11.097,2.623,14.363,5.637
		c1.796,1.657,3.073,3.541,4.117,5.883c0.996,2.231,1.863,5.073,1.863,8.089c0.001,6.484-2.341,10.919-5.687,14.265
		c-3.365,3.366-7.981,5.709-13.971,5.98c-6.229,0.282-11.121-2.546-14.265-5.638c-3.489-3.43-5.732-7.639-6.029-13.922
		c-0.15-3.165,0.573-6.117,1.568-8.333c2.066-4.602,5.363-7.968,9.804-10.147c2.339-1.147,4.782-1.658,8.138-1.813
		C38.176,18.466,38.209,18.469,38.241,18.468z M37.261,20.036c-1.886,0.1-3.551,0.558-5.049,1.177
		c-4.258,1.759-7.531,5.41-8.971,9.853c-1.141,3.52-0.81,7.557,0.392,10.686c0.988,2.572,2.661,4.786,4.56,6.422
		c1.972,1.7,4.444,2.996,7.451,3.579c0.87,0.169,1.827,0.07,2.794,0.392c0.366,1.17-0.05,3.122,0.245,4.363
		c0.538,0.25,1.183,0.177,1.716,0.098c4.079-0.6,6.8-2.227,9.216-4.412c2.635-2.383,4.706-6.033,4.902-10.687
		c0.211-5-1.646-8.675-4.069-11.471c-2.252-2.599-5.923-4.935-10.343-5.245c-0.647-0.045-1.269,0.075-1.716-0.245
		c-0.347-1.257,0.055-3.054-0.245-4.412C37.943,19.877,37.516,20.023,37.261,20.036z"/>
	<path style="fill-rule:evenodd;clip-rule:evenodd;" d="M46.821,30.429c1.76,2.239,3.149,4.355,3.137,8.039
		c-0.014,4.171-2.002,6.918-4.46,8.873c-2.455,1.952-6.51,3.097-10.394,1.961c-3.549-1.039-6.258-3.916-7.353-7.354
		c-0.821-2.578-0.634-6.041,0.392-8.235c0.12-0.256,0.32-0.508,0.441-0.784c1.148-2.609,3.655-4.594,6.618-5.441
		c0.969-0.277,2.05-0.482,3.284-0.49C42.321,26.97,44.671,28.657,46.821,30.429z"/>
</g>
<g id="Layer_1">
</g>
</svg>
