<?xml version="1.0" encoding="iso-8859-1"?>
<!-- Generator: Adobe Illustrator 21.0.2, SVG Export Plug-In . SVG Version: 6.00 Build 0)  -->
<svg version="1.1" xmlns="http://www.w3.org/2000/svg" xmlns:xlink="http://www.w3.org/1999/xlink" x="0px" y="0px"
	 viewBox="0 0 25.119 34.081" style="enable-background:new 0 0 25.119 34.081;" xml:space="preserve">
<g id="Jim_x5F_Draplin_x5F_Shitchyah">
	<g>
		<path style="fill:#010101;" d="M18.768,16.513c0.053,0.108-0.082,0.071-0.11,0.134c-0.26,0.062-0.496,0.17-0.794,0.179
			c-0.759,0.098-1.391-0.205-1.889-0.626c-0.044-0.081-0.116-0.125-0.179-0.206c0.008-0.027,0.054-0.036,0.089-0.027
			C16.52,16.709,17.829,16.844,18.768,16.513z M9.147,12.096L9.094,12.06c-0.399-0.028-0.796-0.009-1.14,0.107
			c-0.118,0.091-0.298,0.135-0.379,0.278c-0.144,0.133-0.182,0.33-0.199,0.535c0.046,0.072,0.017,0.215,0.145,0.205
			c-0.045-0.214,0.072-0.329,0.154-0.473c0.144-0.098,0.298-0.134,0.488-0.126c0.036-0.026,0.016-0.106,0.089-0.106
			c0.153-0.223,0.397-0.297,0.714-0.269c0.018-0.028,0.073-0.028,0.091,0c0.125-0.053,0.315,0.161,0.307-0.063
			c-0.019-0.034-0.082-0.07-0.109-0.045v-0.007H9.147z M11.903,12.776c0.044,0.268,0.11,0.41,0.063,0.697
			c-0.137,0.027-0.335-0.135-0.461,0.01c-0.326,0.035-0.516,0.258-0.813,0.321c-0.181,0.108-0.37,0.188-0.551,0.269
			c-0.351-0.116-0.704-0.232-1.101-0.277H8.208c-0.479,0.089-0.903,0.295-1.391,0.331C6.789,14.009,6.988,14.062,7.052,14
			c0.208-0.124,0.45-0.223,0.677-0.331c0.018-0.089-0.073-0.241-0.01-0.303c0.055-0.072,0.117-0.142,0.146-0.232
			c0.154-0.135,0.315-0.295,0.522-0.358v0.008c0.183-0.025,0.354-0.124,0.562-0.142c0.125,0.009,0.217-0.071,0.334,0
			c0.253-0.026,0.507,0.027,0.758,0.071v0.016c0.417,0.073,0.778,0.252,1.194,0.359c0.017,0.009,0.081,0.063,0.098,0.009
			c-0.116-0.125,0.099-0.374-0.189-0.339c-0.081-0.062-0.162-0.216-0.281-0.171c-0.037-0.054-0.062,0.019-0.116,0.009
			c-0.343,0.019-0.326-0.42-0.714-0.321c-0.019-0.045-0.082-0.027-0.128-0.036c-0.134-0.072-0.306-0.16-0.378-0.322
			c-0.145-0.044-0.344-0.063-0.361-0.241c-0.38-0.277-0.741-0.187-1.275-0.206c-0.144,0.035-0.298,0.053-0.441,0.09
			c-0.082-0.107,0.08-0.135,0.125-0.162c0.461-0.241,1.021-0.294,1.591-0.339c0.045,0.027,0.054,0.027,0.089,0.017
			c0.127,0,0.298,0.027,0.38,0.019c0.397,0.061,0.749,0.168,1.056,0.383C11.244,11.8,11.577,12.258,11.903,12.776z M10.105,12.945
			c-0.189-0.088-0.434-0.098-0.632-0.17c-0.334-0.027-0.66,0-0.931,0.133c-0.018,0.055-0.098,0.081-0.054,0.161l0.108,0.009
			c0.053-0.071,0.144-0.036,0.199-0.107c0.126-0.027,0.237-0.081,0.388-0.081c0.127-0.063,0.226,0.036,0.38,0
			c0.145-0.01,0.397,0.017,0.542,0.072V12.945z M10.657,13.473c-0.019-0.125-0.117-0.196-0.236-0.223
			c-0.01,0.17-0.063,0.322-0.135,0.447c0.065,0.018,0.1-0.019,0.154-0.01C10.493,13.598,10.765,13.634,10.657,13.473z
			 M19.175,15.359c-0.146-0.142-0.488-0.044-0.677-0.106c-0.372-0.027-0.669-0.207-0.959-0.385
			c-0.073-0.044-0.181-0.053-0.235-0.126c-0.235-0.071-0.47-0.16-0.704-0.214l-0.009,0.053c0.126,0.063,0.288,0.125,0.442,0.17
			c0.053,0.099,0.199,0.099,0.29,0.16c0.262,0.215,0.604,0.368,0.893,0.501c-0.098,0.018-0.198,0.117-0.289,0.044
			c-0.136,0.01-0.226-0.035-0.352-0.053c-0.162-0.088-0.379-0.151-0.515-0.295c-0.316-0.161-0.632-0.349-0.985-0.447
			c-0.026,0.017-0.053,0.053-0.026,0.089c0.723,0.134,1.094,0.823,1.798,0.983c0.289,0.071,0.525-0.044,0.705-0.187
			c0.18-0.117,0.506-0.127,0.677-0.009c0.207,0.052,0.416,0.223,0.541,0.267l-0.343-0.339
			C19.337,15.457,19.256,15.413,19.175,15.359z M11.668,13.946c0.181,0.482-0.163,0.814-0.335,1.173
			c-0.055,0.044,0.038,0.08,0.038,0.061c0.261-0.34,0.459-0.715,0.541-1.117h0.017c-0.009-0.089,0.054-0.232-0.027-0.286
			L11.668,13.946z M6.365,11.953v0.009c-0.065,0.027-0.181,0-0.208,0.01c0,0-0.009-0.01-0.009-0.018H5.94
			c-0.135,0.063-0.252-0.036-0.423,0c-0.028,0.036-0.038,0.126,0.017,0.151l0.759,0.019c0,0.053-0.045,0.062-0.072,0.099
			L5.777,12.23c0,0.054-0.008,0.144,0.064,0.151c0.181-0.034,0.433,0.09,0.487-0.098c0.127-0.054,0.119-0.232,0.217-0.294
			L6.365,11.953z M7.17,13.723c0.153,0.081,0.1-0.089,0.17-0.143c0.037-0.044,0.119-0.08,0.119-0.152
			c-0.082-0.026-0.154-0.062-0.244-0.09c-0.073-0.07-0.137-0.132-0.126-0.258c0.251-0.26-0.219-0.027-0.219-0.241
			c-0.1-0.126-0.126-0.349-0.053-0.509c0.027-0.019,0.062-0.028,0.044-0.063l-0.126-0.009c-0.163,0.213-0.243,0.471-0.298,0.759
			c0,0.08-0.036,0.189-0.01,0.233c-0.044,0.33,0.073,0.742,0.145,1.091c0.064,0.063,0.036,0.214,0.154,0.205
			c0-0.142-0.09-0.268-0.09-0.43c-0.064-0.143-0.055-0.321-0.055-0.491C6.808,13.508,6.97,13.706,7.17,13.723z M10.267,15.967
			c-0.063-0.009-0.179,0.018-0.208,0.009c-0.217-0.044-0.424,0.099-0.587-0.044c-0.118,0.009-0.28-0.018-0.354,0.063
			c-0.144,0-0.233,0.054-0.379,0.037c-0.062-0.02-0.118-0.037-0.144-0.109c-0.143-0.072-0.352-0.072-0.506-0.143
			c-0.442-0.018-0.704-0.359-0.983-0.6l-0.038,0.063c0.055,0.08,0.164,0.188,0.254,0.259c0.714,0.689,2.168,0.904,3.198,0.483
			c0.008-0.036,0.063-0.045,0.026-0.098C10.475,15.949,10.34,15.904,10.267,15.967z M10.041,14.573
			c-0.289,0.072-0.595,0.26-0.929,0.125c-0.163-0.009-0.289-0.027-0.427-0.062c-0.143,0.062-0.252-0.054-0.423-0.01
			C7.91,14.6,7.512,14.653,7.178,14.742c-0.045,0.064-0.163,0.072-0.118,0.188c0.363-0.018,0.796-0.143,1.148-0.008
			c-0.055,0.063-0.137,0.053-0.181,0.116c-0.047,0.026-0.055,0.125-0.037,0.133c0.08,0,0.162-0.009,0.217-0.035
			c0.107,0.017,0.135-0.072,0.252-0.044c0.315-0.028,0.795-0.01,1.139-0.09c0.396,0,0.605-0.287,0.94-0.377
			c0.198-0.088,0.406-0.132,0.604-0.204c0.1-0.037,0.08-0.143,0.1-0.243l-0.091-0.008C10.782,14.304,10.43,14.465,10.041,14.573z
			 M11.614,21.726c0.054,0.143,0.108,0.304,0.081,0.482c-0.107,0.278-0.235,0.529-0.254,0.851c0.136-0.197,0.199-0.439,0.353-0.626
			c0.181-0.171,0.035-0.537,0.253-0.698C11.903,21.761,11.776,21.78,11.614,21.726z M20.411,13.097
			c0.081,0.108,0.091,0.322,0.253,0.314c0.063-0.171,0.334-0.063,0.425-0.215c-0.009-0.098,0.154-0.045,0.18-0.143l-0.035-0.027
			C20.945,12.998,20.674,13.062,20.411,13.097z M9.988,21.064c-0.029-0.09-0.092-0.188-0.037-0.286
			c-0.171-0.072-0.09,0.188-0.162,0.269c0,0.214,0.144,0.321,0.299,0.42c0.008,0.25,0.36,0,0.469,0.17
			c-0.047,0.169-0.047,0.394-0.037,0.572c-0.091,0.045-0.235,0.009-0.307,0.073c-0.225,0.089-0.29,0.331-0.334,0.554
			c-0.146,0.116-0.334,0.215-0.434,0.376c-0.371,0.161-0.507,0.58-0.733,0.885c0.244-0.188,0.461-0.385,0.752-0.527
			c0.108-0.224,0.334-0.358,0.569-0.447c-0.026-0.384,0.244-0.474,0.524-0.599c0.035-0.036,0.144,0.027,0.134-0.053
			c0.153-0.027,0.019-0.206,0.073-0.295c0.054-0.27,0.243-0.457,0.479-0.573c-0.172-0.09-0.353-0.152-0.489-0.304
			C10.484,21.243,10.14,21.305,9.988,21.064z M20.24,12.829c0.037,0.053,0.046,0.108,0.099,0.143
			c0.128-0.054,0.316-0.027,0.454-0.063c0.115,0.046,0.278,0,0.333,0c0.044,0,0.108-0.017,0.126,0.018
			c0.037-0.027,0.046-0.063,0.037-0.116C20.917,12.783,20.61,12.857,20.24,12.829z M25.119,13.583h-0.018
			c0,0.42-0.063,0.887-0.192,1.28c-0.112,0.504-0.315,0.933-0.584,1.355c-0.202,0.173-0.287,0.374-0.507,0.558
			c0.073,0.768-0.102,1.518-0.574,1.984c0.333,0.742,0.665,1.455,0.999,2.195c0.277,0.851-0.075,1.721-0.509,2.325
			c0.038,0.547,0.168,1.023,0.304,1.517c0.048,0.083,0.093,0.192,0.113,0.292c-0.046,0.019-0.038-0.008-0.057-0.036
			c-0.304-0.046-0.525-0.183-0.803-0.219c0.092,0.238,0.167,0.513,0.249,0.769c0.093,0.091,0.13,0.256,0.224,0.347
			c-0.046,0.091-0.194,0.091-0.287,0.128c-0.278,0.019-0.434,0.029-0.712-0.008c-0.137,0.648-0.518,1.143-0.84,1.673
			c0.036,0.384,0.092,0.879-0.056,1.217c-0.176-0.018-0.249-0.147-0.416-0.174c-0.009,0.138-0.129,0.238-0.157,0.383
			c-0.093,0.037-0.131-0.062-0.203-0.053c-0.092,0.118-0.12,0.291-0.165,0.447c-0.112,0.192-0.26,0.394-0.418,0.558
			c-0.211,0.202-0.443,0.43-0.712,0.595c-0.018,0.337-0.156,0.622-0.258,0.923c-0.25,0.174-0.508,0.447-0.841,0.513
			c-0.149-0.083-0.351-0.092-0.452-0.238c-0.195,0.073-0.36,0.182-0.536,0.274l-0.176,0.038c-0.092-0.056-0.092-0.193-0.184-0.239
			c-0.138,0.056-0.278,0.082-0.389,0.165c-0.324-0.029-0.388,0.319-0.6,0.439c-0.185,0.21-0.481,0.255-0.722,0.384
			c-0.183,0.018-0.349,0.091-0.544,0.064c0.149-0.156,0.149-0.357,0.222-0.575c-0.362,0.081-0.554,0.493-0.998,0.402
			c-0.02,0.009-0.148-0.019-0.186,0.018c-0.332,0-0.507,0.22-0.774,0.301c-0.306,0.12-0.537,0.331-0.861,0.413
			c-0.323,0.182-0.684,0.311-1.007,0.484l-0.047-0.027c-0.075-0.164-0.165-0.302-0.296-0.43c-0.119,0-0.036,0.237-0.212,0.137
			c-0.047-0.027-0.092-0.073-0.148-0.083c-0.055,0.056-0.008,0.193-0.082,0.23c-0.065-0.083-0.212-0.056-0.278-0.147
			c-0.74-0.392-1.403-0.969-1.978-1.564c-0.074-0.009-0.083-0.137-0.159-0.137c0.029,0.247,0.121,0.457,0.224,0.649l0.045,0.102
			c-0.48-0.22-0.923-0.495-1.265-0.888c-0.24-0.174-0.388-0.402-0.609-0.603l-0.019,0.338c-0.452-0.366-0.887-0.796-1.173-1.28
			c-0.102,0.064-0.045,0.256-0.092,0.355L5.39,30.999c-0.008,0-0.018,0.009-0.018,0.009v0.029c-0.545-0.423-0.999-0.951-1.21-1.611
			c-0.231-0.019-0.472-0.027-0.648-0.119c0.12-0.513-0.185-0.933-0.433-1.308c-0.5-0.777-0.852-1.675-0.796-2.771
			c-0.193-0.074-0.443-0.074-0.61-0.174c-0.101-0.073-0.25-0.092-0.341-0.155c0.055-0.137,0.23-0.265,0.324-0.412
			c0.351-0.293,0.165-0.914,0.073-1.317c-0.277,0.028-0.434,0.237-0.629,0.375c-0.037-0.138-0.027-0.33-0.054-0.466
			c0.037-0.082,0-0.21,0.027-0.311c0.046-0.375,0.341-0.596,0.286-1.025c-0.147,0.018-0.388,0.028-0.526-0.01
			c0.194-0.109,0.352-0.328,0.407-0.547c-0.074-0.283-0.019-0.622,0.111-0.842c-0.242-0.357-0.251-0.933-0.073-1.345
			c0.155-0.457,0.33-0.95,0.229-1.509c-0.553-0.329-0.951-0.887-1.329-1.381c-0.361-0.549-0.104-1.371,0.119-1.884
			c0.047-0.22,0.186-0.393,0.148-0.677c0.009,0.01,0.009-0.009,0.017-0.009c-0.027-0.229-0.184-0.394-0.275-0.595
			c0.11-0.155,0.286-0.311,0.36-0.493c0.009-0.128,0.111-0.256,0.038-0.394c0.018-0.173-0.066-0.292-0.122-0.421l0.048-0.072
			c0.434-0.229,0.72-0.576,1.098-0.888c0.556-0.548,1.091-1.152,1.276-1.93c-0.009-0.237-0.12-0.475-0.036-0.695l0.433-0.732
			c0.037,0.019,0.102,0.046,0.157,0.019c0.387-0.401,0.536-0.96,0.794-1.445c0.203-0.009,0.397-0.054,0.499-0.218
			c0.203-0.293,0.01-0.787,0.212-1.07c0.61-1.263,1.543-2.469,2.782-3.174c0.546-0.329,1.183-0.549,1.84-0.695
			c0.148-0.046,0.295-0.064,0.472-0.073c0.35-0.347,0.793-0.568,1.302-0.659v0.018c0.47-0.064,0.988,0.045,1.347,0.275
			c0.065,0.037,0.157,0.046,0.204,0.119c0.204,0.074,0.379,0.193,0.527,0.32c0.268,0.11,0.444,0.384,0.683,0.531
			c0.232-0.091,0.418-0.366,0.657-0.475c0.397-0.357,0.906-0.467,1.387-0.633c0.396,0,0.701-0.091,1.109-0.045
			c-0.009,0.009,0.008,0.018,0.008,0.027c0.046-0.017,0.046-0.017,0.094,0c0.332,0.056,0.664,0.056,0.988,0.156
			c0.065,0.046,0.157,0.037,0.231,0.082c0.157,0.027,0.295,0.082,0.443,0.119c0.139,0,0.231,0.092,0.361,0.138
			c0.082,0.027,0.156,0.064,0.241,0.1c0.35,0.22,0.72,0.476,0.979,0.796c0.24,0.319,0.415,0.666,0.591,1.024
			c0.074,0.036,0.047,0.136,0.102,0.183c0.278,0.594,0.434,1.262,0.675,1.875c0.368,0.457,0.656,1.016,1.128,1.401
			c0.109,0.218,0.322,0.384,0.369,0.658c0.193,0.321,0.156,0.769,0.286,1.144c0.036,0.338,0.1,0.713,0.119,1.061l-0.019,0.036
			c0.019,0.42,0.083,0.815,0.13,1.225c0.37,0.614,0.666,1.308,0.896,2.023C25.028,12.586,25.101,13.071,25.119,13.583z
			 M24.242,13.195c-0.064-0.455-0.107-0.957-0.244-1.386c-0.099-0.59-0.461-1.001-0.668-1.529c-0.271-0.536-0.605-0.975-0.983-1.449
			c-0.065-0.063-0.146-0.133-0.164-0.214h0.009c0.362,0.233,0.714,0.582,0.975,0.921c0.082-0.115-0.027-0.233,0.009-0.385
			c0.164-0.563-0.089-1.063-0.235-1.529c-0.126-0.384-0.18-0.805-0.46-1.099c-0.425-0.376-0.768-0.84-1.104-1.27
			c-0.342-0.894-0.432-1.959-1.137-2.602c-0.019-0.018-0.054-0.009-0.045-0.045c-0.1-0.135-0.236-0.25-0.326-0.402
			c-0.522-0.429-1.101-0.76-1.743-0.992c-0.397-0.108-0.613-0.242-1.066-0.259c-0.677-0.152-1.345,0.107-1.923,0.358
			c-0.244,0.17-0.47,0.356-0.652,0.59c-0.144,0.161-0.188,0.358-0.369,0.482c-0.019-0.027-0.08,0.009-0.063-0.045
			c-0.163-0.162-0.307-0.34-0.487-0.483c-0.083-0.01-0.091-0.099-0.137-0.143c-0.334-0.313-0.714-0.591-1.148-0.742
			c-0.911-0.268-1.753,0.179-2.212,0.823C9.861,2.117,9.752,2.494,9.652,2.887C9.599,2.976,9.626,3.137,9.545,3.19
			C9.409,2.556,9.671,2.046,9.78,1.509C9.644,1.5,9.563,1.572,9.445,1.581C9.337,1.687,9.111,1.617,9.003,1.724
			C8.253,1.983,7.512,2.278,6.997,2.851C6.328,3.521,5.813,4.272,5.371,5.086C5.354,5.238,5.354,5.417,5.326,5.559
			C5.308,5.971,5.127,6.311,4.892,6.597C4.776,6.578,4.721,6.624,4.621,6.642c-0.244,0.42-0.424,0.894-0.759,1.252
			C3.556,7.884,3.61,8.26,3.493,8.43C3.529,8.546,3.51,8.707,3.547,8.823c0.09,0.349-0.145,0.545-0.235,0.805
			c-0.58,0.824-1.166,1.69-2.006,2.289l-0.046,0.09c0.046,0.197,0.091,0.42,0.046,0.635c-0.046,0.17-0.173,0.304-0.29,0.429
			c0.298,0.465,0.065,1.153-0.081,1.582c-0.1,0.224-0.136,0.627-0.053,0.903c0.188,0.572,0.587,0.993,1.057,1.35
			c0.144-0.108,0.162-0.295,0.244-0.447c-0.163-0.134-0.327-0.321-0.47-0.474c-0.028-0.437,0.108-0.768,0.262-1.109
			c0.035-0.322,0.154-0.626,0.434-0.769c0.025-0.054,0.08-0.09,0.017-0.152c0.046-0.197,0.3-0.161,0.461-0.187
			c0.063-0.072,0.117-0.179,0.226-0.179c0.182,0.035,0.182,0.25,0.29,0.339l0.163-0.268c0.053-0.09,0.063-0.242,0.163-0.269
			c0.099-0.026,0.134,0.036,0.199,0.063c0.08-0.143,0.26-0.241,0.37-0.358c0.008-0.116-0.009-0.25,0.045-0.339
			c0-0.358,0.252-0.564,0.405-0.841c-0.524,0.187-0.938,0.565-1.38,0.841v-0.062c0.288-0.547,0.794-0.967,1.273-1.298
			c-0.281-0.044-0.633,0-0.885-0.089c0.307-0.116,0.613-0.223,0.866-0.419c-0.298,0.063-0.669,0.152-0.975,0.053
			c0.215-0.053,0.396-0.179,0.595-0.269c0.09-0.08,0.244-0.134,0.28-0.215c-0.298,0.072-0.749,0.154-1.038,0.01l0.098-0.027
			c0.76-0.036,1.374-0.295,1.897-0.742c0.145-0.286,0.56-0.331,0.606-0.698C6.175,8.69,6.347,8.394,6.6,8.198
			C6.781,7.956,7.124,7.91,7.178,7.572c-0.028-0.475,0.19-0.795,0.317-1.189C7.539,6.32,7.539,6.221,7.593,6.168
			c0.046-0.215,0.136-0.385,0.253-0.546c0,0.251-0.072,0.492-0.089,0.752C7.603,7.742,7.91,8.993,8.579,9.958v0.063
			c-0.009-0.009-0.019-0.009-0.009-0.018C8.343,9.888,8.208,9.673,8.053,9.477c-0.08-0.09-0.09-0.26-0.207-0.314
			c-0.334,0.993-1.002,1.798-1.807,2.459h0.388c0.299-0.026,0.507-0.259,0.715-0.402c0.081-0.071,0.181-0.107,0.262-0.169
			c0.353-0.071,0.605-0.287,0.983-0.313c0.534-0.171,1.231-0.098,1.763,0.026c0.66,0.099,1.246,0.358,1.707,0.76
			c0.11,0.027,0.181-0.045,0.272-0.053c0.063,0.072,0.107-0.053,0.153,0.035c0.1,0.028,0.19,0.08,0.271-0.017
			c0.155-0.187,0.326-0.348,0.361-0.617c0.091-0.09,0-0.268,0.108-0.331c0.155-0.009,0.137,0.17,0.182,0.277
			c0.035,0.457-0.163,0.797-0.326,1.136c-0.046,0.108-0.109,0.206-0.171,0.314c0.088-0.019,0.269-0.019,0.379-0.045
			c0.253,0.009,0.442-0.054,0.703-0.037c0.147-0.07,0.19-0.186,0.272-0.303c0.181-0.054,0.154,0.161,0.235,0.233
			c0.072,0.052,0.145,0.088,0.199-0.011c-0.029-0.357-0.227-0.687-0.091-1.062c0.046-0.027,0.055-0.089,0.126-0.062
			c0.1,0.197,0.045,0.499,0.198,0.715c0.073,0.081,0.191,0.134,0.308,0.143c0.127-0.053,0.181-0.178,0.254-0.303
			c0.135-0.109,0.289,0.017,0.407,0.052c0.162,0.019,0.242-0.097,0.325-0.188c0.171-0.339,0.605-0.465,1.002-0.419
			c0.154,0.017,0.335,0.062,0.379,0.232c0.228,0.063,0.534,0.027,0.742-0.054c0.254-0.017,0.542-0.161,0.759,0
			c0.153,0.152,0.378,0.206,0.459,0.421c-0.035,0.036-0.054,0.098-0.135,0.071c-0.01,0.134,0.179,0.197,0.125,0.34
			c-0.207-0.089-0.478-0.223-0.722-0.304c0,0.026,0.009,0.062-0.008,0.089c-0.055,0.018-0.126,0-0.163-0.027
			c-0.361-0.098-0.83-0.107-1.202-0.17c-0.116,0.036-0.289,0.018-0.416,0.054c-0.091,0.008-0.181,0.017-0.27,0.044
			c-0.19,0.071-0.407,0.108-0.578,0.215c-0.415,0.125-0.758,0.42-1.021,0.751c-0.053,0.107,0.091,0.117,0.109,0.188
			c0.091-0.125,0.154-0.268,0.316-0.348c0-0.179,0.217-0.134,0.29-0.223c0.071-0.046,0.116-0.109,0.207-0.099
			c0.559-0.233,1.138-0.448,1.888-0.358c0.054-0.009,0.054,0.062,0.089,0.009c0.009,0.009,0.019,0.018,0.019,0.027
			c0.126,0,0.226,0.026,0.335,0.064c0.387,0.043,0.721,0.178,1.019,0.383c0.29,0.17,0.506,0.367,0.713,0.644
			c-0.027,0.036-0.071,0.018-0.108,0.018c-0.163-0.153-0.352-0.268-0.522-0.403h-0.082c-0.045,0.099,0.028,0.206-0.027,0.296
			c-0.117,0.019-0.162-0.098-0.217-0.161c-0.188-0.107-0.351-0.196-0.504-0.34c-0.047,0.08-0.172,0.072-0.255,0.054
			c-0.117-0.072-0.27-0.26-0.442-0.161c-0.171,0.125-0.361-0.045-0.532-0.071c-0.028,0.089-0.155,0.071-0.219,0.133
			c-0.136,0.099-0.09,0.278-0.163,0.412c-0.405-0.018-0.785,0.143-1.164,0.234c0.162-0.01,0.362-0.028,0.506,0.026
			c0.074,0.017,0.126,0.08,0.198,0.107c0.226-0.027,0.415-0.224,0.678-0.107c0.36,0.294,0.804-0.082,1.246,0.053
			c0.062,0.008,0.091,0.071,0.109,0.125c-0.279,0.305,0.252,0.341,0.361,0.573c0.118,0.178,0.272,0.357,0.453,0.482
			c0.181,0.017,0.325,0.072,0.515,0.053c0.08-0.072,0.261,0.01,0.326-0.106c0.027,0,0.062-0.01,0.09,0.009
			c-0.009,0.126-0.126,0.206-0.245,0.242c-0.09,0.099-0.253,0.134-0.388,0.134c0.084,0.134,0.289,0.089,0.399,0.206
			c0.009,0.117-0.163,0.036-0.172,0.117c0.062-0.01,0.081,0.035,0.126,0.061c0.027,0.073-0.064,0.099-0.11,0.117
			c-0.189-0.036-0.359-0.089-0.504-0.188c-0.289-0.143-0.541-0.33-0.876-0.375c-0.055-0.027-0.036,0.054-0.082,0.01
			c-0.027-0.028-0.046-0.064-0.081-0.028c-0.56-0.098-1.191-0.197-1.734-0.197c-0.199-0.061-0.434-0.017-0.632-0.044
			c-0.082-0.044-0.208-0.09-0.181-0.206c-0.235,0.045-0.407,0.188-0.515,0.385c0,0.322,0.072,0.626,0.2,0.895
			c-0.055,0.026-0.074-0.036-0.118-0.036c-0.146-0.241-0.244-0.528-0.271-0.778c-0.091-0.321-0.073-0.652-0.054-1.019
			c0.026-0.054-0.01-0.027,0-0.089c0-0.009,0.008-0.019,0.018-0.009l0.008-0.117c-0.08-0.026-0.099,0.037-0.171,0.027
			c-0.055,0.269-0.063,0.564-0.055,0.886c0.028,0.768,0.435,1.313,0.823,1.86c0.498,0.536,1.112,1.044,1.943,1.001v0.009
			c0.407-0.009,0.757-0.099,1.128-0.17c0.146-0.098,0.353-0.098,0.479-0.232c0.352-0.09,0.606-0.384,0.85-0.617l0.045,0.08
			c0.279,0.179,0.423,0.474,0.531,0.761h-0.007c0.017,0.025,0.053,0.089,0.007,0.124c-0.189-0.018-0.116-0.312-0.27-0.401
			c-0.118-0.099-0.18-0.331-0.362-0.26c-0.162,0.214-0.378,0.402-0.631,0.528c-0.072,0.053-0.145,0.124-0.244,0.124
			c-0.553,0.304-1.184,0.474-1.915,0.448c0.171,0.259,0.361,0.5,0.532,0.75c0.136,0.188,0.162,0.465,0.407,0.555
			c0.361,0.278,0.559,0.678,0.794,1.046c0.018,0.072,0.028,0.17,0.118,0.16c0.343,0.278,0.651,0.582,1.03,0.841l0.289,0.152
			c0.216,0.161,0.559,0.179,0.695,0.439c0.415,0.214,0.741,0.598,0.894,1.045c0.126,0.366,0.236,1.073-0.054,1.367
			c0.029-0.805-0.162-1.501-0.776-1.877c-0.009,0.313-0.2,0.574-0.407,0.742c-0.018-0.026-0.027-0.044-0.027-0.08
			c0.055-0.107,0.046-0.278,0.018-0.403c-0.045-0.885-1.084-0.947-1.455-1.556c-0.08-0.053-0.09-0.124-0.171-0.142
			c-0.028,0.179-0.09,0.33-0.108,0.5c-0.054,0.073-0.08,0.062-0.145,0.028c0.019-0.197-0.018-0.385-0.09-0.538
			c-0.018-0.231-0.153-0.429-0.253-0.634c-0.09-0.241-0.315-0.384-0.451-0.599c-0.416-0.357-0.85-0.732-1.338-0.948
			c0.09,0.171,0.216,0.349,0.289,0.528c-0.026,0.035-0.019,0.107-0.063,0.116c-0.028-0.018-0.082,0-0.082-0.053
			c-0.153-0.188-0.335-0.366-0.505-0.528c-0.136-0.216-0.433-0.233-0.704-0.241c0.071,0.125,0.207,0.215,0.262,0.349
			c0,0.045,0.09,0.098,0.018,0.152c0,0-0.018-0.01-0.009-0.019c-0.19-0.152-0.407-0.313-0.633-0.421
			c-0.244-0.062-0.397,0.062-0.569,0.143c0.089,0.162,0.225,0.33,0.28,0.501c-0.008,0.019-0.028,0.009-0.045,0.009
			c-0.199-0.126-0.399-0.233-0.605-0.349c-0.182,0.08-0.389,0.107-0.596,0.134c-0.009,0-0.018-0.01-0.009-0.019
			c-0.064,0.009-0.145-0.019-0.191,0.019c-0.189-0.045-0.424-0.019-0.569-0.152c-0.119,0.018-0.234,0.196-0.379,0.143
			c0-0.035-0.007-0.072,0.009-0.098c-0.009-0.108-0.063-0.224-0.162-0.295c-0.199,0.071-0.406,0.107-0.587,0.214
			c-0.053,0-0.045-0.054-0.063-0.081c0.135-0.089,0.244-0.276,0.371-0.384c-0.236-0.027-0.462,0.089-0.679,0.152
			c-0.019,0.035-0.099,0.008-0.117,0.062c-0.028,0-0.063,0.018-0.072-0.017c0.026-0.171,0.225-0.197,0.279-0.341
			c-0.027-0.089,0.1-0.187-0.019-0.231c-0.244,0.044-0.569,0.079-0.731-0.117c-0.073-0.134-0.046-0.377,0.026-0.491
			c0.127-0.144,0.281-0.304,0.525-0.286c0.333,0.142,0.488-0.134,0.677-0.287c0.261-0.044,0.298,0.206,0.443,0.313
			c0.153,0.153,0.515,0.116,0.741,0.072c0.081,0.036,0.225,0.017,0.289,0.098c0.071,0.161,0.315,0.098,0.478,0.098
			c0.19-0.053,0.37-0.115,0.552-0.196c0.261-0.134,0.261-0.529,0.578-0.618c0.171,0.133,0.099,0.421,0.18,0.618
			c0.1,0.107,0.189,0.241,0.388,0.214c0.082,0.046,0.126,0.135,0.154,0.215c0.035,0.187-0.154,0.251-0.128,0.43
			c0.028,0.071,0.136,0.134,0.217,0.08c0.172-0.106,0.28-0.285,0.307-0.5c0.019-0.456-0.307-0.707-0.624-0.94
			c-0.478-0.224-0.577-0.769-0.748-1.216c-0.073-0.143-0.163-0.277-0.217-0.429c-0.262-0.268-0.605-0.537-0.497-1.01
			c0.109-0.072,0.191,0.089,0.281,0.133c0.118-0.25-0.118-0.473-0.127-0.732c-0.081-0.053-0.207-0.071-0.288-0.133
			c-0.126-0.01-0.254-0.037-0.379-0.046c-0.063-0.009-0.145,0.018-0.172,0c-0.073,0.071-0.145-0.045-0.226,0.008
			c-0.281,0.045-0.533,0.126-0.804,0.179c-0.1,0.019-0.254,0.045-0.298-0.061c-0.019-0.073-0.072-0.135-0.037-0.208l0.037,0.029
			c-0.028,0,0-0.062,0.036-0.045l0.028,0.071c0.026,0.064,0.079,0.09,0.153,0.09c0.307-0.082,0.622-0.134,0.938-0.206
			c0.01,0,0.01,0.036,0.01,0.009c0.189,0,0.37-0.036,0.551-0.009c0.406,0.028,0.696,0.214,1.047,0.322l0.028-0.081
			c-0.036-0.071-0.028-0.151-0.1-0.196c-0.415-0.117-0.659-0.26-1.146-0.25c-0.226,0.045-0.505,0.018-0.724,0.07
			c-0.252,0.009-0.451,0.144-0.695,0.117c-0.091-0.303-0.28-0.52-0.488-0.734c-0.155-0.142-0.308-0.223-0.425-0.375
			c-0.163-0.044-0.253-0.24-0.444-0.286c-0.098-0.054-0.181-0.134-0.289-0.16c-0.063-0.027-0.126-0.072-0.207-0.072
			c-0.343-0.117-0.723-0.18-1.13-0.196l-0.035,0.017c-0.362-0.027-0.732,0.053-1.094,0.099c-0.596,0.143-1.056,0.536-1.472,0.903
			c-0.435-0.009-0.84,0.045-1.238,0.054c-0.037,0.16-0.072,0.481-0.011,0.687l0.877,0.019c-0.045,0.268-0.09,0.518-0.081,0.814
			c-0.072,0.277,0.056,0.527,0.073,0.795c0.054,0.036,0.071,0.09,0.071,0.162c0.253,0.634,0.58,1.26,1.184,1.644
			c0.136,0.081,0.291,0.136,0.416,0.233c0.281,0.062,0.526,0.178,0.831,0.197c0.615,0.116,1.282-0.045,1.789-0.286
			c0.279-0.133,0.533-0.304,0.714-0.554c0.226-0.117,0.326-0.367,0.48-0.546c0.262-0.385,0.415-0.831,0.415-1.386l0.234-0.267
			c0.072-0.045,0.125-0.197,0.253-0.117c-0.01,0.215-0.037,0.483,0.018,0.672c0.154,0.374-0.163,0.633-0.317,0.901
			c-0.271,0.304-0.207,0.904-0.722,0.993c-0.334,0.062-0.641,0.214-0.876,0.456c-0.155,0.278-0.435,0.545-0.299,0.938
			c0.027,0.116,0.063,0.269,0.153,0.331c0,0.018,0.009,0.045-0.01,0.062c-0.603-0.018-1.111,0.143-1.518,0.483
			C8.804,18.56,8.244,18.73,8,19.185c-0.306,0.296-0.316,0.762-0.513,1.11c-0.11,0.322-0.38,0.545-0.525,0.822
			c-0.226,0.33-0.045,0.786,0.054,1.127c-0.019,0.036-0.063,0.054-0.073,0.107c-0.072-0.018-0.134-0.053-0.198-0.09
			c-0.153-0.232-0.27-0.501-0.343-0.77c0.008-0.071-0.028-0.178,0.026-0.205l-0.099,0.046c-0.27,0.152-0.413,0.42-0.379,0.776
			c-0.034,0.153-0.136,0.278-0.27,0.323v-0.009l-0.038,0.017c-0.026-0.009-0.008-0.036-0.017-0.054
			c0.235-0.152,0.116-0.474,0.072-0.715l-0.09,0.018c-0.191,0.107-0.352,0.25-0.479,0.419c-0.162,0.216-0.271,0.502-0.451,0.698
			c-0.009-0.071,0.045-0.161,0.054-0.242c0.162-0.715,0.397-1.421,1.101-1.717c0.227-0.133,0.543-0.151,0.814-0.187
			c0.398-0.492,0.415-1.234,0.876-1.691c0.244-0.439,0.632-0.76,1.048-1.046c0.018-0.018,0-0.054-0.028-0.054
			c-0.046-0.134-0.009-0.259,0.028-0.384c0.009-0.053,0.109-0.098,0.037-0.161c0.062-0.152-0.118-0.099-0.173-0.17
			c-0.008-0.223-0.288-0.071-0.424-0.134c-0.109-0.035,0-0.214-0.091-0.268c-0.153,0.017-0.261-0.062-0.396-0.009
			c-0.118-0.053-0.19,0.107-0.252-0.009c0.162-0.143,0.351-0.241,0.46-0.42c-0.199-0.1-0.38-0.259-0.542-0.385
			c-0.235-0.169-0.407-0.383-0.606-0.581c-0.216,0.198-0.425,0.384-0.632,0.599c0.009,0.062-0.054,0.045-0.089,0.045
			c-0.091-0.027-0.1-0.125-0.126-0.206c0.053-0.321,0.28-0.545,0.353-0.866c0.045-0.107-0.073-0.233-0.11-0.331
			c-0.089-0.394-0.009-0.884-0.145-1.297c-0.026-0.088-0.054-0.178-0.171-0.17c-0.099,0.044-0.136,0.144-0.161,0.242
			c-0.056,0.563-0.299,1.011-0.525,1.475c-0.099,0.349-0.181,0.751-0.298,1.091c0.045,0.1-0.019,0.215-0.046,0.313
			c-0.009,0.429-0.009,0.868,0.127,1.207c0.091,0.403,0.208,0.832,0.109,1.261c-0.118,0.411-0.289,0.814-0.272,1.297
			c-0.008,0.491,0.399,0.697,0.733,0.902c-0.109,0.116-0.226,0.215-0.317,0.34c-0.035,0.063-0.062,0.134-0.107,0.17
			c0-0.125,0.08-0.25,0.054-0.403c-0.171,0.036-0.28,0.188-0.434,0.224c0.164-0.277-0.253-0.179-0.288-0.385
			c-0.081-0.188-0.352,0.053-0.453-0.134c0.072-0.17,0.235-0.296,0.353-0.438c-0.118-0.081-0.317,0.036-0.425-0.063
			c0.053-0.178,0.189-0.285,0.271-0.446c0.054-0.099,0.108-0.187,0.161-0.286c-0.026,0-0.062-0.081-0.07-0.026
			c-0.064-0.01-0.173,0.026-0.19-0.045c0.026-0.099,0.054-0.188,0.135-0.268c-0.026-0.081,0.162-0.126,0.109-0.26
			c-0.018-0.026-0.063-0.061-0.109-0.053c-0.163,0.045-0.288,0.134-0.451,0.143c0.135-0.295,0.316-0.555,0.613-0.698
			c0.082-0.116,0.064-0.358,0.019-0.492c-0.091,0.009-0.199,0.036-0.291,0.026c-0.026-0.161,0.155-0.268,0.218-0.419
			c-0.117,0-0.226,0.125-0.344,0.036c0.01-0.224,0.2-0.387,0.262-0.528l-0.009,0.009c-0.117,0.009-0.234,0.009-0.279-0.079
			c0.316-0.277,0.533-0.654,0.56-1.137l-0.081,0.063c-0.092,0.009-0.2,0.026-0.272-0.01c-0.055-0.116,0.045-0.187,0.091-0.25
			c0.036-0.303,0.316-0.438,0.488-0.652l0.017-0.063c0.083-0.099,0.091-0.251,0.164-0.359c-0.007-0.062,0.09-0.044,0.064-0.107
			c0.216-0.224,0.288-0.6,0.316-0.92l-0.208,0.115c-0.153-0.027-0.252-0.151-0.317-0.286c-0.153,0.072-0.307,0.233-0.389,0.348
			c0.028,0.054,0.073,0.063,0.082,0.117c-0.009,0.08,0.028,0.143-0.036,0.179c-0.109,0.017-0.154,0.116-0.218,0.17
			c-0.08,0.107-0.206,0.133-0.27,0.268c0.089-0.108,0.27-0.179,0.396-0.278c0.217-0.115,0.444-0.205,0.661-0.304
			c0.018,0.037,0.08,0.027,0.099,0.063c-0.073,0.081-0.226,0.098-0.272,0.197c-0.632,0.349-1.029,0.93-1.426,1.502H3.176v0.046
			c-0.118,0.178-0.244,0.34-0.342,0.536c-0.072,0.169-0.192,0.286-0.263,0.456c-0.189,0.268-0.325,0.545-0.47,0.84
			c-0.018,0.045,0,0.117,0.028,0.153c-0.028,0.393,0.099,0.742,0.009,1.109c-0.019,0.437-0.397,0.732-0.261,1.207l0.134-0.197
			c0.055-0.07,0.155-0.214,0.236-0.133l-0.072,0.277c-0.073,0.455-0.298,0.849-0.318,1.288c0.145,0.008,0.236-0.144,0.389-0.117
			C2.2,21.172,2.109,21.36,2.075,21.564c0.017,0.384-0.127,0.761-0.254,1.082l0.432-0.188l0.027,0.01
			c-0.035,0.428,0.127,0.831,0.226,1.233c0.072,0.367,0.045,0.662-0.226,0.868c0.217,0.089,0.486,0.099,0.76,0.116
			c-0.054,0.385-0.081,0.779-0.072,1.181c0.035,0.859,0.505,1.456,0.893,2.101c0.136,0.206,0.128,0.501,0.172,0.752
			c0.181,0.009,0.416,0.036,0.578-0.018c0.128,0.483,0.227,0.993,0.578,1.341c0.127-0.018,0.073-0.198,0.145-0.269
			c0.099-0.152,0.145-0.348,0.272-0.446c0.134,0.411,0.397,0.751,0.659,1.091c0.082,0.081,0.182,0.187,0.28,0.232
			c0.027-0.169,0.055-0.34,0.208-0.412c0.299,0.529,0.805,0.895,1.256,1.297c-0.054-0.169,0.01-0.205,0.036-0.366
			c0.063-0.1,0.045-0.269,0.181-0.287c0.17,0.197,0.406,0.403,0.56,0.626c0.433,0.571,1.065,1.001,1.698,1.359
			c0.037-0.09,0.055-0.26,0.117-0.358c0.128,0.044,0.225,0.17,0.362,0.205c0.054-0.053,0.019-0.161,0.071-0.205
			c0.055-0.01,0.065,0.035,0.093,0.063c0.252,0.107,0.433,0.339,0.587,0.573c0.072-0.037,0.189-0.081,0.289-0.117
			c0.37-0.196,0.713-0.43,1.101-0.59c0.236-0.117,0.477-0.196,0.705-0.304c0.117-0.028,0.216,0.044,0.297,0
			c0.245,0.054,0.497-0.073,0.659-0.206c0.1-0.009,0.146-0.089,0.237-0.116c0.243-0.179,0.54-0.322,0.732-0.545
			c0.025,0,0.063-0.019,0.071,0.018c-0.027,0.313-0.091,0.634-0.236,0.849c0.165,0,0.309-0.107,0.407-0.215
			c0.037-0.009,0.055-0.017,0.055-0.054c0.199-0.117,0.244-0.357,0.433-0.447c0.082-0.037,0.164,0.009,0.21,0.062
			c0.316,0.053,0.523-0.25,0.713-0.438c0.036-0.035,0.055-0.099,0.108-0.108c0.026,0.009,0.009,0.036,0.019,0.053
			c0.108,0.028,0.153,0.134,0.224,0.215c0.155-0.062,0.309-0.142,0.462-0.205c0.225-0.09,0.18,0.224,0.361,0.224
			c0.009-0.037,0.071-0.018,0.108-0.018c0.326-0.08,0.262-0.481,0.38-0.741c0.388-0.412,0.867-0.769,1.138-1.261
			c0.063-0.152,0.054-0.188,0.09-0.376c0.208-0.152,0.318-0.367,0.344-0.653c0.135-0.098,0.099,0.107,0.181,0.144
			c0.09,0.017,0.055-0.072,0.107-0.099c0-0.089,0.062-0.179,0.018-0.25c0.062-0.124,0.236,0.063,0.343,0.081
			c0.064-0.205-0.026-0.384-0.008-0.599c-0.064-0.188,0.216-0.286,0.261-0.457c0.298-0.368,0.47-0.859,0.551-1.359
			c0.055-0.08,0.018-0.269,0.029-0.331c0.045-0.009,0.008-0.035,0-0.053c0.008-0.071-0.029-0.179,0.062-0.188
			c0.173,0.143,0.408,0.196,0.624,0.259c-0.18-0.384-0.316-0.832-0.307-1.323c0.235,0.044,0.46,0.142,0.731,0.161
			c-0.028-0.224-0.082-0.448-0.09-0.68c-0.019-0.197,0-0.412-0.055-0.582c0.171-0.232,0.28-0.5,0.415-0.75
			c0.298-0.831-0.207-1.476-0.353-2.191c-0.071-0.063-0.071-0.178-0.125-0.259c-0.019-0.152-0.144-0.232-0.144-0.393
			c-0.128-0.288-0.3-0.546-0.444-0.832l0.416-0.564c0.153-0.33,0.289-0.742,0.172-1.162c0.179-0.206,0.298-0.484,0.478-0.706
			c0.479-0.564,0.652-1.387,0.714-2.137h0.009l0.01-0.313C24.278,13.464,24.197,13.312,24.242,13.195z M18.796,13.983
			c-0.119-0.126-0.272-0.233-0.407-0.323c-0.254-0.242-0.633-0.331-1.03-0.349c-0.316-0.054-0.641,0-0.922,0.09
			c-0.082,0.053-0.18,0.115-0.153,0.24c0.308-0.044,0.614-0.16,0.929-0.143v0.009l0.057-0.026c0.008,0,0.01,0.01,0.01,0.017
			c0.361-0.035,0.676,0.08,0.964,0.187C18.414,13.813,18.659,13.857,18.796,13.983z M18.027,13.857l-0.019,0.241
			c0.126,0.064,0.279,0.08,0.425,0.116C18.379,14.009,18.217,13.929,18.027,13.857z M22.209,13.205
			c0.263,0.357,0.507,0.84,0.298,1.34c-0.054,0-0.091,0.017-0.145,0.009c-0.008-0.178-0.008-0.384-0.125-0.519
			c-0.045,0.072-0.045,0.178-0.108,0.233c-0.108-0.063-0.108-0.223-0.136-0.358c-0.091-0.062-0.081-0.242-0.27-0.188
			c-0.037,0.028-0.028,0.09-0.028,0.135c0.01,0.126,0.054,0.224,0.082,0.339c0.207,0.349,0.542,0.555,0.578,0.993
			c0.017,0.009,0.027,0.036,0.054,0.027c-0.027,0.053-0.071,0-0.135,0.018c-0.217-0.313-0.397-0.716-0.777-0.903
			c0.01-0.018-0.018-0.036-0.018-0.054c-0.091,0-0.018,0.116-0.063,0.143l0.027,0.204h0.028c0.262,0.394,0.468,0.85,0.407,1.406
			c0.079,0.374,0.296,0.669,0.471,1.008c0.024,0.108,0.116,0.233,0.07,0.341c0.02,0.08,0,0.044-0.009,0.115
			c-0.144,0-0.199-0.206-0.27-0.322c-0.027-0.018-0.035-0.071-0.064-0.08c-0.017,0.178,0.098,0.34,0.091,0.536
			c-0.181,0.026-0.216-0.17-0.334-0.25c-0.054-0.162-0.163-0.269-0.253-0.422h-0.045c-0.045,0.304,0.162,0.51,0.263,0.751
			c0.081,0.107,0.107,0.26,0.09,0.412c-0.082,0.124-0.218,0.214-0.226,0.384c0.154,0.385,0.533,0.662,0.496,1.135
			c-0.091,0.045-0.2,0.045-0.271,0.117c0.071,0.277,0.218,0.492,0.253,0.778c0.027,0.08,0.027,0.249,0,0.321
			c-0.073-0.044-0.073,0.036-0.163,0.009c-0.109-0.098-0.099-0.304-0.28-0.339c-0.009,0.098,0,0.258,0.028,0.357
			c0.063,0.053,0.018,0.17,0.073,0.214c0.026,0.18-0.055,0.295-0.1,0.42c-0.171-0.134-0.334-0.277-0.516-0.393
			c0.227-0.16-0.016-0.447,0.091-0.653c0.036-0.187,0.091-0.357,0.145-0.526c0.008-0.314,0.008-0.663-0.038-0.958
			c-0.072-0.464-0.242-0.885-0.278-1.376c-0.054-0.135-0.019-0.296,0.054-0.413c0.063-0.232,0.224-0.438,0.189-0.714
			c-0.108-0.295,0.127-0.51,0-0.814c-0.098-0.474-0.314-0.885-0.353-1.404c-0.018-0.063-0.106-0.072-0.153-0.063
			c-0.063,0.528-0.235,0.966-0.442,1.413l-0.154,0.143c-0.153-0.054,0.037-0.143,0.037-0.223c0.298-0.617,0.462-1.27,0.353-2.012
			c0.28-0.018,0.577,0.009,0.804-0.107c0.063-0.241-0.072-0.447-0.01-0.707c-0.036-0.098-0.153,0.01-0.188-0.045
			c-0.226,0.045-0.362-0.018-0.605,0c-0.055,0.009-0.107,0.045-0.153,0c-0.101,0.036-0.272,0.036-0.381,0
			c-0.053-0.117-0.188-0.152-0.244-0.277c0.018-0.061,0.1,0.054,0.073-0.054c-0.073-0.054-0.143-0.089-0.163-0.178
			c0.135-0.072,0.253,0.089,0.334-0.055c-0.045-0.088-0.152-0.16-0.09-0.294c0.073-0.08,0.262,0.027,0.308-0.089
			c0.018-0.187-0.145-0.286-0.073-0.483c0.073-0.179,0.127-0.438,0.109-0.617c-0.01-0.108-0.036-0.125,0.018-0.215
			c0.054-0.019,0.044-0.089,0.044-0.134c-0.126-0.215-0.179-0.474-0.244-0.714c-0.073,0,0-0.107-0.081-0.09
			c-0.091-0.305-0.128-0.492-0.263-0.769c-0.108-0.17-0.207-0.358-0.334-0.518c-0.208-0.259-0.425-0.527-0.614-0.805
			c-0.307-0.466-0.75-0.823-1.238-1.065c-0.559-0.223-1.065-0.455-1.771-0.437c-0.279,0.054-0.722,0.116-0.993-0.018
			c-0.333-0.081-0.695-0.233-1.065-0.161c-0.297,0.106-0.604,0.204-0.958,0.204c-0.379-0.008-0.704-0.089-1.012-0.213
			c0.01,0.25,0.1,0.473,0.174,0.696c0.107,0.241,0.179,0.51,0.351,0.725l0.117,0.214c0.018-0.018,0.035,0.008,0.047,0.018
			c0.268,0.072,0.64,0.152,0.939,0.25c0.622-0.099,1.327-0.224,1.969-0.143c0.055-0.045,0.145,0.035,0.245,0.008
			c0.187,0.089,0.451,0.08,0.639,0.17c0.081,0.054,0.218,0.009,0.254,0.134c0.01,0.151-0.198,0.098-0.298,0.098
			c-0.551-0.205-1.337-0.295-1.952-0.133c-0.433,0.035-0.894,0.17-1.346,0.053l-0.162,0.01c0.678,0.947,1.698,1.664,2.71,2.199
			c0.117,0.09,0.325,0.09,0.415,0.206c-1.752-0.081-3.043-0.948-4.164-2.03c-0.18-0.161-0.371-0.331-0.487-0.536
			c-0.162,0-0.362-0.063-0.551-0.072c0.01,0.223,0.099,0.419,0.126,0.653c-0.225-0.215-0.379-0.482-0.613-0.697
			C9.969,7.447,9.87,7.67,9.617,7.653L9.582,7.607c0.162-0.125,0.298-0.277,0.515-0.331l0.008-0.035
			c-0.181-0.358-0.388-0.698-0.56-1.064C9.382,6.329,9.183,6.419,9.084,6.633C9.021,6.704,9.003,6.82,8.931,6.901
			c-0.045-0.519,0.026-1.01,0.108-1.475C9.183,5.059,9.237,4.611,9.455,4.29h0.018c0.081,0.938,0.225,1.815,0.641,2.557
			c0.117,0.25,0.236,0.518,0.426,0.742l0.018-0.018c-0.217-0.671-0.371-1.377-0.335-2.173c0.108-0.286,0.108-0.669,0.317-0.894
			c0.018,0.188,0.052,0.34,0.052,0.536c0.1,0.607,0.335,1.127,0.552,1.672c0.316,0.626,0.732,1.181,1.256,1.664
			c0.65,0.688,1.517,1.224,2.474,1.483c-0.18-0.107-0.353-0.259-0.56-0.365c-0.569-0.421-1.246-0.886-1.626-1.467
			c-0.56-0.841-1.129-1.69-1.155-2.843c0.036-0.411,0.081-0.787,0.199-1.135c0.107-0.402,0.334-0.725,0.55-1.055
			c-0.046,0.258-0.198,0.482-0.243,0.759c-0.092,0.063,0.027,0.08,0.055,0.135c0.045,0.009,0.118-0.027,0.135,0.026
			c0.19,0.045,0.325,0.178,0.406,0.349c-0.008,0.108,0.028,0.196,0.11,0.25c0.216,0.08,0.522,0.054,0.651,0.268
			c0.172,0.277,0.432,0.536,0.875,0.446c0.262,0.054,0.46,0.153,0.669,0.296c0.552,0.09,1.012-0.026,1.607,0.008
			c0.065,0.099,0.254,0.037,0.342,0.099c0.255,0.054,0.471,0.196,0.698,0.215c0.09,0.081,0.226,0.089,0.288,0.206
			c0.136,0,0.136,0.143,0.272,0.143c0.108,0.052,0.154,0.133,0.262,0.196c0.199,0.125,0.389,0.305,0.642,0.358
			c0.063,0.081,0.189,0.054,0.27,0.126c0.217,0.178,0.505,0.286,0.641,0.562c0.452,0.367,0.651,0.967,1.158,1.296
			c0.253,0.252,0.542,0.519,0.577,0.913c-0.144-0.018-0.243-0.188-0.369-0.215c0.017,0.34,0.306,0.51,0.397,0.822l0.163,0.198
			c-0.054-0.01-0.19-0.018-0.28-0.036c-0.062,0-0.19-0.009-0.135,0.098c0.037,0.18,0.216,0.26,0.225,0.466
			c0.028,0.097,0.064,0.178,0.054,0.311H21.74c0.036,0.028-0.036,0.063-0.027,0.117c-0.09-0.027-0.163-0.188-0.327-0.106
			c-0.054,0.142,0.046,0.232,0.119,0.33c0.18,0.222,0.431,0.491,0.243,0.814C21.776,12.783,22.137,12.892,22.209,13.205z
			 M10.954,7.214c-0.172-0.233-0.297-0.547-0.425-0.823c0.011,0.269,0.055,0.563,0.128,0.805L10.954,7.214z M20.367,13.571
			c-0.064-0.143-0.118-0.286-0.217-0.42c-0.018-0.017-0.063-0.009-0.063,0.027c0.134,0.295,0.19,0.635,0.216,0.992
			c-0.044,0.073-0.009,0.108-0.017,0.152c-0.027,0.25-0.027,0.51-0.136,0.706c-0.026,0.099-0.145,0.251-0.055,0.331
			C20.385,14.867,20.557,14.214,20.367,13.571z M12.661,21.895c-0.145-0.036-0.262-0.142-0.442-0.134
			c0.035,0.205-0.009,0.393-0.091,0.544c0.107-0.025,0.153-0.133,0.271-0.098c-0.009,0.108,0.028,0.243-0.027,0.314l0.073,0.018
			c0-0.126,0.089-0.17,0.135-0.268c0.053-0.054,0.134-0.064,0.224-0.072c0.073,0.062,0.146,0.143,0.172,0.241
			c0.064,0.241,0.1,0.482,0.174,0.698c0.107,0.088,0.179,0.241,0.351,0.241c-0.063-0.161-0.126-0.331-0.1-0.546
			c0.019-0.062,0.081-0.09,0.127-0.125c0-0.063-0.072-0.063-0.072-0.134c-0.117-0.188,0.026-0.448,0.072-0.591
			C13.229,22.038,12.913,21.994,12.661,21.895z M17.873,22.53c0.19-0.403,0.326-0.725,0.262-1.243
			c-0.054-0.017-0.044,0.028-0.073,0.046c0.046,0.33-0.117,0.624-0.207,0.912c-0.155,0.277-0.281,0.5-0.524,0.715
			c0.118-0.197,0.109-0.501,0.126-0.786c0.218-0.251,0.254-0.663,0.254-1.001h0.018l-0.028-0.045c0.01-0.009,0.01-0.017,0.028-0.009
			c-0.018-0.134-0.072-0.242-0.082-0.393h-0.053c-0.074,0.08-0.009,0.214-0.009,0.303c-0.01,0.01-0.029,0.098,0.009,0.108
			c-0.009,0.009-0.009,0.018-0.019,0.009c-0.026,0.259-0.062,0.536-0.189,0.733c-0.116,0.116-0.144,0.348-0.306,0.394v-0.018
			c0-0.008,0.008-0.018,0.017-0.008c-0.017-0.117,0.036-0.305,0-0.456c-0.017-0.035-0.037-0.116-0.108-0.098v0.08
			c-0.019,0.233-0.173,0.394-0.361,0.474c0.125-0.242,0.188-0.627,0.072-0.895c-0.026-0.063-0.099-0.125-0.154-0.053
			c-0.108,0.17-0.216,0.304-0.37,0.429c0.027-0.242,0.045-0.617-0.018-0.841h0.009c-0.064-0.125-0.091-0.313-0.191-0.412
			l-0.071,0.064c0,0.375-0.225,0.617-0.47,0.848H15.37c0.01-0.009,0.01-0.017,0.028-0.017c0.011-0.063,0.011-0.143,0.037-0.196
			c0.072-0.52,0.027-1.144-0.335-1.449c0.027,0.135,0.091,0.241,0.064,0.394h-0.037c-0.271-0.225-0.686-0.233-1.011-0.358
			c-0.199-0.17-0.235,0.223-0.433,0.232c-0.081-0.098-0.154-0.205-0.181-0.349c-0.136,0.089-0.207,0.286-0.362,0.376
			c-0.134-0.008-0.217-0.062-0.306-0.152c0.036-0.116,0.071-0.241,0.134-0.34c0.02-0.242,0.11-0.384,0.074-0.635l-0.044-0.009
			c-0.1,0.376-0.3,0.787-0.716,0.859c0.055-0.18,0.164-0.331,0.164-0.537c-0.046,0.046-0.127,0.089-0.164,0.152
			c-0.162,0.135-0.289,0.314-0.496,0.367c0.027,0.08-0.082,0.036-0.09,0.089c-0.146,0.036-0.308,0.081-0.451,0.046
			c0.026-0.135,0.099-0.242,0.197-0.323c-0.134-0.018-0.278,0.071-0.369,0.17c-0.109,0.107-0.254,0-0.362-0.027
			c-0.262-0.053-0.434,0.072-0.587,0.232c-0.083,0.072-0.145-0.007-0.254,0.01c-0.153,0.171-0.207,0.474-0.316,0.689
			c-0.109,0.259-0.136,0.546-0.198,0.814c0.063,0.054-0.018,0.098-0.01,0.161c-0.116-0.375-0.134-0.822-0.109-1.269
			c0.019-0.116,0.056-0.241,0.064-0.358c-0.171,0.09-0.197,0.277-0.227,0.466c-0.053,0.107-0.035,0.303-0.053,0.393H9.012
			c-0.028,0.473-0.145,0.983-0.028,1.439l-0.018,0.018c-0.226-0.394-0.307-0.85-0.388-1.333c-0.109,0.188-0.091,0.5,0,0.688
			c0.009,0.188,0.089,0.359,0.134,0.529c0.028,0.144,0.145,0.242,0.145,0.376c-0.235-0.054-0.353-0.25-0.523-0.384
			c-0.037-0.063-0.064-0.171-0.126-0.189c0.062,0.26,0.178,0.484,0.415,0.618c0.153,0.125,0.334,0.232,0.57,0.241
			c0.019-0.259-0.046-0.536-0.054-0.804c-0.01-0.055-0.028-0.153,0.008-0.18c0.036,0.188,0.119,0.34,0.208,0.492
			c0.045,0.027,0,0.134,0.081,0.116c0-0.528,0.091-1.011,0.216-1.475c0.155-0.26,0.171-0.609,0.417-0.796
			c0.235-0.045,0.188,0.223,0.27,0.33c0.099,0.072,0.244,0.081,0.362,0.117c0.009-0.028,0.081-0.028,0.09,0
			c0.326-0.009,0.506,0.16,0.769,0.249c0.089,0.027,0.108,0.161,0.225,0.126c0.451-0.126,1.057-0.036,1.428,0.089
			c0.053,0,0.034-0.081,0.098-0.054c0.127-0.134,0.372-0.116,0.534-0.196c0.434,0,0.966-0.054,1.355,0.089
			c0.018,0.269-0.109,0.447-0.145,0.697c-0.198-0.036-0.252,0.17-0.469,0.143c-0.172,0.08-0.398,0.053-0.56,0.134
			c-0.28-0.027-0.127,0.33-0.171,0.482c0.09,0.287,0.099,0.671,0.415,0.762c-0.081-0.26-0.216-0.563-0.098-0.859
			c0.261-0.107,0.342,0.178,0.532,0.232c-0.008-0.151-0.108-0.232-0.118-0.375c0.028-0.063,0.055-0.133,0.126-0.179
			c0.118-0.107,0.235,0.018,0.291,0.098c0.271,0.179,0.459,0.475,0.459,0.858c0.045,0.055,0.107,0.117,0.181,0.055
			c0.046,0.063,0.082-0.026,0.108,0.045c0.389,0.126,0.28,0.661,0.661,0.796c0.134,0.125,0.234,0.25,0.288,0.421
			c0.244,0.036,0.351,0.259,0.407,0.483c0.008,0.044-0.019,0.231,0.063,0.267c0-0.027,0.009-0.053-0.018-0.053
			c0.1-0.205,0.335-0.42,0.197-0.725c-0.09-0.187-0.262-0.268-0.396-0.402c-0.11-0.107-0.325-0.09-0.343-0.268
			c-0.199-0.438-0.57-0.743-1.022-0.931c0-0.258-0.179-0.393-0.297-0.588c-0.054-0.046-0.146-0.082-0.154-0.171
			c0.244-0.053,0.432-0.215,0.569-0.384c0.109-0.081,0.154-0.232,0.244-0.304c0.036,0.107,0.009,0.259,0.018,0.375
			c0.017,0.26-0.154,0.384-0.234,0.573c0.025,0.018,0.053,0.045,0.108,0.035c0.252-0.116,0.487-0.286,0.678-0.483
			c0.108,0.322-0.038,0.645-0.127,0.922c0.235-0.01,0.333-0.223,0.506-0.314c0.01,0.143-0.091,0.295-0.072,0.42l0.234-0.133
			c0.063-0.045,0.145-0.116,0.217-0.135c0.01,0.339-0.099,0.617-0.288,0.824c0.009,0.053-0.019,0.106,0.035,0.133
			c0.09-0.027,0.181-0.044,0.281-0.08c0.126-0.152,0.307-0.304,0.424-0.475c0.1,0.134,0.108,0.331,0.144,0.502
			c-0.008,0.08,0.027,0.177,0,0.214c-0.198,0.268,0.037,0.581,0.146,0.804l0.035-0.027c-0.026-0.125-0.089-0.295-0.035-0.438
			c0.063-0.019,0.089-0.09,0.117-0.152c0.152-0.17,0.092-0.394,0.01-0.581C18.081,22.914,17.983,22.727,17.873,22.53z M18.93,21.126
			c-0.144,0.153,0.027,0.331,0.018,0.5c0.053,0.108,0.027,0.277,0.063,0.387c-0.072,0.071,0.054,0.134-0.017,0.195
			c-0.037,0.269-0.146,0.519-0.344,0.662c-0.146,0.08-0.073,0.196-0.019,0.304c0,0.169,0.019,0.367-0.017,0.518
			c0.009,0.072-0.027,0.187,0.036,0.223c0.126-0.126,0.091-0.384,0.126-0.573c0.037-0.053-0.008-0.026,0-0.081
			c0.065-0.053-0.035-0.232,0.091-0.232c0.027-0.082,0.099-0.099,0.144-0.143c0.109-0.108,0.181-0.216,0.207-0.367
			c0.226-0.375,0.072-0.914-0.162-1.207C18.994,21.27,19.057,21.099,18.93,21.126z M8.542,5.193c-0.397,0.859-0.514,2.101-0.28,3.12
			c0-0.214,0.162-0.385,0.198-0.608l0.036,0.018c0.207,0.312,0.453,0.546,0.697,0.813C9.156,8.412,9.074,8.322,9.012,8.206
			C8.479,7.42,8.343,6.258,8.542,5.193z"/>
	</g>
</g>
<g id="Layer_1">
</g>
</svg>
