<?xml version="1.0" encoding="iso-8859-1"?>
<!-- Generator: Adobe Illustrator 19.2.0, SVG Export Plug-In . SVG Version: 6.00 Build 0)  -->
<svg version="1.1" xmlns="http://www.w3.org/2000/svg" xmlns:xlink="http://www.w3.org/1999/xlink" x="0px" y="0px"
	 viewBox="0 0 78.267 77.624" style="enable-background:new 0 0 78.267 77.624;" xml:space="preserve">
<g id="jiyukokumin-sha">
	<path style="fill-rule:evenodd;clip-rule:evenodd;" d="M51.501,1.859c-0.01,0.564-0.437,1.009-0.726,1.452
		c-0.872,1.333-1.77,2.757-2.517,4.259c-1.884,3.328-3.62,6.865-5.13,10.647c-0.742,1.858-1.565,3.734-2.178,5.711
		c-1.229,3.963-2.413,8.04-3.146,12.631c-0.182,1.139-0.358,2.28-0.532,3.436c-0.178,1.181-0.221,2.352-0.339,3.581
		c-0.463,4.828-0.727,9.887-0.387,14.955c0.057,0.853,0.246,1.702,0.339,2.566c0.458,4.266,1.189,8.393,2.323,12.051
		c0.228,0.736,0.405,1.472,0.678,2.178c0.268,0.696,0.684,1.358,0.726,2.129c-0.7,0.26-2.125,0.174-2.904,0.049
		c-0.912-1.127-1.5-3.158-2.129-4.791c-0.775-2.012-1.401-4.288-1.984-6.534c-2.301-8.859-2.446-20.59-1.549-31.265
		c0.145-1.713,0.414-3.414,0.678-5.033c0.522-3.196,1.237-6.229,2.033-9.292c0.39-1.499,0.875-2.978,1.162-4.501
		c0.284-1.511,0.837-2.912,1.355-4.307c1.301-3.506,2.504-6.722,4.162-10.019c0.346-0.688,0.763-1.66,1.307-1.742
		c0.632-0.096,1.649,0.172,2.372,0.29C47.365,0.678,49.797,1.059,51.501,1.859z"/>
	<path style="fill-rule:evenodd;clip-rule:evenodd;" d="M33.643,0.214c0.378,0.279,0.059,0.755-0.049,1.017
		c-0.959,2.323-1.758,4.968-2.468,7.647c-1.979,7.468-3.436,15.922-3.823,25.118c-0.234,5.562-0.158,11.457,0.532,16.504
		c0.459,3.358,1.134,6.525,1.888,9.679c1.122,4.697,2.403,9.157,4.259,13.116c0.623,1.327,1.307,2.601,1.791,3.968
		c-0.821,0.095-1.857,0.134-2.468-0.145c-0.456-0.208-0.883-1.146-1.162-1.646c-0.376-0.676-0.737-1.304-0.968-1.84
		c-4.711-8.958-8.055-20.02-9.147-32.716C20.92,28.041,21.383,13.679,24.302,2.73C26.956,1.431,30.169,0.693,33.643,0.214z"/>
	<path style="fill-rule:evenodd;clip-rule:evenodd;" d="M59.1,5.247c2.42,1.324,4.705,3.025,6.727,4.937
		c0.281,0.266,0.758,0.686,0.774,0.871c0.037,0.407-0.838,1.098-1.307,1.549c-1.384,1.333-2.76,3.155-3.872,4.55
		c-1.692,2.121-3.303,4.307-4.695,6.533c-1.456,2.33-3.002,4.551-4.307,6.969c-3.244,6.009-6.107,12.789-7.405,20.714
		C44,57.572,43.593,65.69,44.58,72.277c0.242,1.615,0.598,3.17,0.774,4.742c-0.655,0.329-1.614,0.354-2.565,0.388
		c-0.515-0.556-0.679-1.346-0.919-2.081c-1.657-5.061-2.527-11.488-2.226-18.343c0.167-3.812,0.42-7.446,1.016-10.841
		c1.743-9.923,4.953-18.549,9.099-26.376c1.308-2.469,2.662-5.127,4.211-7.599c1.087-1.734,2.331-3.479,3.629-5.227
		C58.072,6.304,58.594,5.402,59.1,5.247z"/>
	<path style="fill-rule:evenodd;clip-rule:evenodd;" d="M16.316,7.135c0.042-0.009,0.046,0.018,0.049,0.048
		c0.302,0.312,0.092,0.765,0.048,1.113c-0.735,5.85-0.759,12.982-0.387,19.311c0.6,10.216,2.292,19.274,4.985,27.296
		c1.791,5.336,4.059,10.278,6.485,15.003c0.902,1.756,1.886,3.481,2.953,5.131c0.335,0.518,0.866,0.985,0.919,1.646
		c-0.805-0.038-1.564-0.163-2.178-0.484c-0.846-0.443-1.698-1.896-2.372-2.807c-0.766-1.035-1.553-2-2.178-2.953
		c-2.792-4.255-5.235-8.377-7.308-13.309c-0.506-1.205-0.938-2.49-1.404-3.727c-0.477-1.267-0.954-2.527-1.355-3.775
		c-2.072-6.443-3.952-13.262-5.082-20.665c-0.233-1.53-0.298-3.063-0.484-4.646c-0.361-3.067-0.817-6.229-0.678-9.485
		C10.545,11.816,13.219,9.263,16.316,7.135z"/>
	<path style="fill-rule:evenodd;clip-rule:evenodd;" d="M47.726,76.585c-0.478-0.484-0.554-1.302-0.677-1.985
		c-0.137-0.759-0.229-1.574-0.291-2.371c-0.389-5.017,0.105-10.221,0.968-14.519c2.393-11.927,7.539-20.42,14.035-28.361
		c2.746-3.356,5.75-6.564,9.05-9.534c0.397-0.357,1.295-1.354,1.597-1.307c0.442,0.069,0.924,1.163,1.258,1.742
		c0.755,1.308,1.369,2.562,1.936,3.969c0.284,0.703,0.425,1.522,0.677,2.274c1,2.979,1.771,6.324,1.936,9.873
		c0.37,7.941-1.297,14.529-3.872,19.649c-3.995,7.946-9.992,13.663-17.858,17.616c-1.321,0.664-2.762,1.202-4.211,1.694
		C50.853,75.809,49.393,76.417,47.726,76.585z"/>
	<path style="fill-rule:evenodd;clip-rule:evenodd;" d="M3.443,23.105c0.032,0,0.065,0,0.097,0
		c0.861,5.484,1.968,10.727,3.436,15.633c1.465,4.897,3.066,9.544,5.178,13.841c2.111,4.295,4.198,8.448,6.824,12.196
		c1.327,1.894,2.56,3.784,3.969,5.565c1.056,1.337,2.079,2.617,3.242,3.872c0.356,0.384,0.822,0.77,0.968,1.307
		c-0.696,0.025-1.302-0.346-1.936-0.58c-4.31-1.599-8.248-3.885-11.47-6.68C6.395,61.879,0.776,53.446,0.055,40.431
		c-0.313-5.648,0.737-11.19,2.42-15.487c0.246-0.627,0.543-1.371,0.823-1.79C3.303,23.115,3.458,23.008,3.443,23.105z"/>
</g>
<g id="Layer_1">
</g>
</svg>
