<?xml version="1.0" encoding="iso-8859-1"?>
<!-- Generator: Adobe Illustrator 19.2.0, SVG Export Plug-In . SVG Version: 6.00 Build 0)  -->
<svg version="1.1" xmlns="http://www.w3.org/2000/svg" xmlns:xlink="http://www.w3.org/1999/xlink" x="0px" y="0px"
	 viewBox="0 0 74.827 75.598" style="enable-background:new 0 0 74.827 75.598;" xml:space="preserve">
<g id="Johann_x5F_Schwarzler">
	<path style="fill-rule:evenodd;clip-rule:evenodd;" d="M62.487,1.166c4.106,1.424,6.828,3.877,8.991,6.95
		c1.67,2.372,2.873,5.106,3.159,8.796c0.289,3.733,0.097,7.716,0.097,11.518c0,7.875,0.049,15.592,0.049,23.473
		c0,2.847,0.166,5.603-0.146,7.824c-0.322,2.298-1.049,4.231-1.993,5.978c-2.681,4.961-7.249,8.822-14.19,9.671
		c-2.299,0.281-4.967,0.154-7.63,0.194c-5.314,0.081-10.502-0.048-15.844-0.048c-5.431,0-10.771-0.049-15.892-0.049
		c-2.916,0.001-4.79-0.377-6.853-1.118c-3.731-1.341-6.888-3.805-8.941-6.95c-1.044-1.598-1.974-3.469-2.478-5.443
		c-0.555-2.165-0.681-4.579-0.681-7.29C0.134,44.478,0.038,33.299,0.038,23.327c0-2.625-0.148-5.291,0.146-7.776
		c0.532-4.489,2.888-7.893,5.443-10.449c2.757-2.756,6.229-4.421,11.081-5.005c1.814-0.219,4.014,0,5.929,0
		c9.656-0.001,19.138,0.048,29.11,0.048C55.518,0.146,59.483-0.107,62.487,1.166z M73.859,45.974c0-6.891,0.001-13.868,0-20.703
		c0-2.806,0.108-5.575-0.097-8.213c-0.379-4.863-2.656-8.633-5.395-11.178c-1.472-1.368-2.947-2.368-5.006-3.305
		c-1.813-0.826-4.401-1.577-6.949-1.458c-2.232,0.104-4.088,0.318-5.783,0.972c-4.936,1.904-8.31,5.304-10.255,10.157
		c-1.347,3.36-1.584,7.913-0.389,11.47c1.14,3.39,2.959,6.111,5.443,8.164c1.596,1.409,3.469,2.535,5.686,3.353
		c1.89,0.698,4.188,1.354,6.513,1.409c0.289,0.007,0.76-0.144,0.972,0.195c-5.429,0.191-11.19,0.097-17.01,0.097
		c-5.769,0-11.646,0.194-17.252,0c-2.979-0.103-5.827,0.078-8.359-0.243c-2.501-0.317-4.615-1.062-6.464-2.138
		c-3.237-1.885-5.791-4.306-7.436-7.63c-0.218-0.44-0.386-1.019-0.874-1.312c-0.179,8.201-0.097,17.277-0.098,25.757
		c-0.001,4.498-0.182,8.514,1.069,11.761c1.234,3.205,3,5.563,5.443,7.533c3.17,2.541,7.569,4.409,13.121,3.742
		c4.983-0.599,8.581-3.174,11.129-6.124c2.408-3.03,4.641-7.362,4.034-13.122c-0.526-5.002-3.075-8.72-5.929-11.323
		c-2.838-2.234-6.217-3.943-10.352-4.763c-0.597-0.118-1.271,0.011-1.848-0.34c4.649-0.253,9.616-0.097,14.531-0.097
		c7.465,0,14.702,0.049,21.87,0.048c2.532,0,4.934-0.143,7.047,0.389c3.874,0.976,6.765,3.14,9.088,5.783
		c0.715,0.694,1.258,1.56,1.847,2.381c0.655,0.77,0.889,1.962,1.555,2.722C73.977,48.673,73.86,47.305,73.859,45.974z"/>
</g>
<g id="Layer_1">
</g>
</svg>
