<?xml version="1.0" encoding="iso-8859-1"?>
<!-- Generator: Adobe Illustrator 19.2.0, SVG Export Plug-In . SVG Version: 6.00 Build 0)  -->
<svg version="1.1" xmlns="http://www.w3.org/2000/svg" xmlns:xlink="http://www.w3.org/1999/xlink" x="0px" y="0px"
	 viewBox="0 0 79.517 55.592" style="enable-background:new 0 0 79.517 55.592;" xml:space="preserve">
<g id="John_x5F_Kirkham_x5F_and_x5F_Associates">
	<path style="fill-rule:evenodd;clip-rule:evenodd;" d="M35.223,0.149c0.249,0.886,0.161,1.826,0.148,2.749
		c-0.097,6.381,0.101,13.183,0,19.833c-0.057,3.742-0.063,7.53-0.049,11.242c0.006,1.815,0.134,3.68,0.049,5.498
		c-0.086,1.827,0.026,3.628-0.197,5.351c-0.625,4.844-3.55,8.079-7.658,9.573c-4.182,1.52-10.29,1.079-16.053,1.079
		c-3.807,0-7.65,0.112-11.34-0.147c-0.164-3.88-0.164-8.442,0-12.322c6.537-0.261,13.659,0.032,20.324-0.147
		c0.268-1.191,0.147-2.444,0.147-3.682c0-8.787,0.083-17.869-0.098-26.509c-0.841-0.258-1.807-0.147-2.75-0.147
		c-2.789,0-5.849,0.04-8.591-0.049c-0.583-0.277-0.879-0.918-1.227-1.424c-1.045-1.52-2.205-3.046-3.289-4.614
		c-1.08-1.562-2.094-3.171-3.143-4.762c-0.314-0.477-0.888-0.976-0.785-1.62c5.684-0.008,11.592-0.049,17.33-0.049
		C23.844,0.002,29.614-0.03,35.223,0.149z"/>
	<path style="fill-rule:evenodd;clip-rule:evenodd;" d="M71.649,0.149c-0.057,0.697-0.62,1.225-0.982,1.768
		c-4.815,7.22-9.939,14.214-14.875,21.501c-0.339,0.501-0.701,1.067-1.129,1.669c-0.332,0.466-1.075,1.33-1.08,1.718
		c-0.004,0.234,0.366,0.763,0.638,1.129c1.726,2.324,3.672,4.73,5.302,7.02c1.457,2.048,2.886,4,4.516,6.087
		c0.421,0.537,1.079,1.737,1.571,1.914c0.385,0.139,1.071,0.033,1.669,0.049c3.79,0.106,8.577-0.286,12.126,0.098
		c0.149,4.036,0.15,8.281,0,12.371c-4.206,0.179-9.026,0.099-13.451,0.099c-2.459,0-4.65,0.087-6.578-0.197
		c-1.942-0.286-3.341-1.106-4.614-2.16c-2.479-2.051-4.261-4.802-6.136-7.413c-0.946-1.315-1.926-2.606-2.798-3.977
		c-0.868-1.362-1.949-2.597-2.651-4.075c-2.114-3.033-4.438-5.939-6.676-9.033c-0.271-0.374-0.835-1.057-0.835-1.374
		c0-0.372,0.762-1.303,1.08-1.767c1.926-2.809,3.892-5.602,5.842-8.395c0.79-1.131,1.426-2.355,2.16-3.485
		c3.054-4.702,6.236-9.17,9.18-13.549C59.678-0.029,66.221,0.053,71.649,0.149z"/>
</g>
<g id="Layer_1">
</g>
</svg>
