<?xml version="1.0" encoding="iso-8859-1"?>
<!-- Generator: Adobe Illustrator 21.0.2, SVG Export Plug-In . SVG Version: 6.00 Build 0)  -->
<svg version="1.1" xmlns="http://www.w3.org/2000/svg" xmlns:xlink="http://www.w3.org/1999/xlink" x="0px" y="0px"
	 viewBox="0 0 41.795 41.726" style="enable-background:new 0 0 41.795 41.726;" xml:space="preserve">
<g id="Jose_x5F_Luis_x5F_Ayala">
	<g>
		<path d="M18.649,0.037c1.438-0.076,2.883-0.012,4.324-0.005c0.008,6.19,0.009,12.381,0.014,18.571
			c6.267-0.012,12.526,0.043,18.794,0.032c-0.001,1.451,0.018,2.903-0.002,4.353c-3.822,0.005-7.643-0.018-11.47-0.021
			c-3.882-0.012-7.764,0.005-11.646-0.02C18.669,15.309,18.58,7.674,18.649,0.037z"/>
		<g>
			<path d="M29.287,2.112c1.705-1.725,4.371-2.528,6.715-1.813c0.756,0.244,1.415,0.737,1.916,1.348
				c0.022-0.398,0.008-0.797,0.007-1.196c1.276-0.02,2.55-0.024,3.826-0.008c-0.002,4.49,0.01,8.978,0.03,13.466
				c-1.28,0.029-2.565,0.037-3.847,0.01c0.008-0.426-0.012-0.853,0-1.279c-0.696,0.964-1.841,1.544-3.016,1.637
				c-1.449,0.131-2.944-0.217-4.189-0.977c-2.31-1.361-3.716-4.093-3.466-6.765C27.389,4.887,28.115,3.283,29.287,2.112z
				 M34.434,3.773c-1.245,0.064-2.429,0.882-2.895,2.045c-0.472,1.132-0.26,2.533,0.547,3.463c0.778,0.957,2.132,1.462,3.335,1.127
				c1.668-0.41,2.784-2.205,2.46-3.88C37.631,4.921,36.058,3.661,34.434,3.773z"/>
		</g>
		<g>
			<path d="M5.709,0.08c2.878,0,5.755,0.001,8.633,0.007c0.028,9.039,0.047,18.075,0.045,27.117
				c9.131,0.001,18.264,0.024,27.401,0.027c0.002,1.452,0.011,2.903,0.002,4.355c-9.132,0.03-18.266-0.056-27.395,0
				c-0.044,1.931,0.215,3.943-0.559,5.768c-1.104,2.67-3.942,4.488-6.829,4.365c-2.643-0.031-5.138-1.702-6.268-4.075
				c-0.971-1.964-0.992-4.383-0.027-6.352c1.095-2.297,3.46-3.942,6.016-4.061c1.115-0.017,2.23,0.005,3.344-0.032
				c-0.013-7.56,0.03-15.125-0.041-22.683C8.591,4.524,7.15,4.514,5.71,4.522C5.697,3.041,5.707,1.56,5.709,0.08z M4.333,34.103
				c-0.204,1.488,0.939,3.033,2.438,3.231c1.63,0.317,3.253-1.108,3.308-2.733c0.062-1.002-0.027-2.011,0.033-3.01
				c-1.018-0.01-2.035,0-3.053-0.007C5.708,31.629,4.463,32.75,4.333,34.103z"/>
		</g>
	</g>
</g>
<g id="Layer_1">
</g>
</svg>
