<?xml version="1.0" encoding="iso-8859-1"?>
<!-- Generator: Adobe Illustrator 19.2.0, SVG Export Plug-In . SVG Version: 6.00 Build 0)  -->
<svg version="1.1" xmlns="http://www.w3.org/2000/svg" xmlns:xlink="http://www.w3.org/1999/xlink" x="0px" y="0px"
	 viewBox="0 0 80.94 77.489" style="enable-background:new 0 0 80.94 77.489;" xml:space="preserve">
<g id="Jugenddienst_x5F_Verlag">
	<path style="fill-rule:evenodd;clip-rule:evenodd;" d="M68.253,10.64c3.138,2.763,5.676,5.884,7.788,9.569
		c2.094,3.653,3.762,7.899,4.479,12.826c1.646,11.311-1.747,20.821-6.413,27.332c-4.652,6.493-11.362,12.041-19.85,14.812
		c-4.533,1.48-9.183,2.457-15.066,2.29c-5.305-0.15-9.994-1.227-14.252-2.952C16.735,71.195,10.47,66.154,5.8,58.994
		c-1.111-1.704-2.021-3.724-2.901-5.803C0.39,47.267-0.935,38.95,0.761,31c0.494-2.316,1.24-4.557,2.087-6.617
		c0.841-2.045,1.741-4.075,2.85-5.802c5.633-8.772,14.071-14.78,25.704-17.56c1.811-0.433,3.661-0.684,5.701-0.814
		c0.652-0.042,1.445-0.108,2.086-0.152c3.271-0.226,6.328,0.297,9.111,0.814C56.6,2.41,63.022,6.036,68.253,10.64z M38.375,1.682
		C29.931,2.177,22.842,5.004,17.15,8.961c-4.071,2.831-7.685,6.598-10.332,10.893c-0.911,1.477-1.86,3.107-2.393,4.683
		c-1.149,3.401-2.311,6.741-2.698,10.791c-0.384,4.019,0.008,8.452,0.967,12.267c1.542,6.136,4.434,11.481,8.246,15.371
		c0.532,0.543,1.009,1.289,1.781,1.527c-1.294-5.347,0.879-9.635,3.919-12.012c1.637-1.28,3.579-2.128,6.108-2.291
		c2.521-0.161,4.752,0.576,6.566,1.73c3.328,2.119,5.842,6.242,4.886,11.452c-0.735,4.006-3.381,6.631-6.617,8.042
		c-0.472,0.206-1.055,0.259-1.476,0.662c1.644,0.445,3.327,0.201,4.784-0.102c4.263-0.887,7.619-3.559,8.958-7.279
		c0.508-1.411,0.531-2.978,0.56-4.733c0.144-8.854,0-17.786,0-26.518c0-3.496,0.189-7.03,0.051-10.485
		c-0.285-7.123,0.246-14.338-0.152-21.123C39.751,1.6,39.018,1.645,38.375,1.682z"/>
</g>
<g id="Layer_1">
</g>
</svg>
