<?xml version="1.0" encoding="iso-8859-1"?>
<!-- Generator: Adobe Illustrator 19.2.0, SVG Export Plug-In . SVG Version: 6.00 Build 0)  -->
<svg version="1.1" xmlns="http://www.w3.org/2000/svg" xmlns:xlink="http://www.w3.org/1999/xlink" x="0px" y="0px"
	 viewBox="0 0 101.969 102.662" style="enable-background:new 0 0 101.969 102.662;" xml:space="preserve">
<g id="Jyske_x5F_Bank">
	<path style="fill-rule:evenodd;clip-rule:evenodd;" d="M34.488,0c12.498,0,24.997,0,37.495,0
		C61.526,11.567,49.56,22.012,38.921,33.542c-1.453,1.575-2.947,3.305-4.792,4.432c0.139-14.206-0.077-24.573,0.12-37.614
		C34.244,0.154,34.338,0.049,34.488,0z"/>
	<path style="fill-rule:evenodd;clip-rule:evenodd;" d="M29.936,53.546c-1.503-0.476-2.416-1.933-3.474-2.995
		c-7.603-7.634-15.548-15.546-23.12-23.359C11.798,17.839,20.93,9.163,29.816,0.24C30.132,16.927,29.815,37.652,29.936,53.546z"/>
	<path style="fill-rule:evenodd;clip-rule:evenodd;" d="M101.81,30.187c-17.037,0.032-36.143,0.007-53.307,0
		c8.624-9.146,17.802-18.375,26.714-26.833C84.113,12.267,93.158,21.032,101.81,30.187z"/>
	<path style="fill-rule:evenodd;clip-rule:evenodd;" d="M0.228,30.307C12.767,42.844,25.51,55.178,37.603,68.161
		c-12.752-0.056-25.851,0.115-37.495-0.12C-0.119,56.06,0.055,43.283,0.228,30.307z"/>
	<path style="fill-rule:evenodd;clip-rule:evenodd;" d="M64.196,34.5c12.578,0,25.156,0,37.734,0
		c0.116,11.381-0.071,24.779,0,37.734c-3.445-2.641-6.321-6.016-9.464-9.104c-9.399-9.237-18.586-19.087-28.15-28.271
		C64.175,34.84,64.215,34.641,64.196,34.5z"/>
	<path style="fill-rule:evenodd;clip-rule:evenodd;" d="M71.983,48.635c8.962,8.887,17.733,17.963,26.713,26.833
		c-8.807,9.122-17.724,18.134-26.833,26.953C71.757,85.102,71.804,65.85,71.983,48.635z"/>
	<path style="fill-rule:evenodd;clip-rule:evenodd;" d="M67.43,102.661c-12.088,0.017-25.815-0.12-37.614,0
		C42.046,89.654,54.783,77.154,67.43,64.567c0.098,0.022,0.119,0.12,0.24,0.12C67.468,76.147,67.699,89.336,67.43,102.661z"/>
	<path style="fill-rule:evenodd;clip-rule:evenodd;" d="M53.175,72.473c-0.672,1.386-2.048,2.299-3.114,3.354
		c-7.723,7.641-15.446,15.884-23.239,23.599c-9.109-8.66-18.225-17.952-26.594-26.953C17.399,72.473,35.605,72.474,53.175,72.473z"
		/>
</g>
<g id="Layer_1">
</g>
</svg>
