<?xml version="1.0" encoding="iso-8859-1"?>
<!-- Generator: Adobe Illustrator 19.2.0, SVG Export Plug-In . SVG Version: 6.00 Build 0)  -->
<svg version="1.1" xmlns="http://www.w3.org/2000/svg" xmlns:xlink="http://www.w3.org/1999/xlink" x="0px" y="0px"
	 viewBox="0 0 71.233 71.113" style="enable-background:new 0 0 71.233 71.113;" xml:space="preserve">
<g id="Kailani_x5F_Building">
	<path style="fill-rule:evenodd;clip-rule:evenodd;" d="M59.942,9.236c3.014,2.794,5.56,6.071,7.558,10.013
		c1.412,2.787,2.685,6.055,3.321,9.819c0.197,1.17,0.622,2.77,0.288,3.899c-0.554,1.878-2.658,1.589-5.198,1.588
		c-2.451,0-4.085,0.162-4.861-1.54c-0.334-0.731-0.38-1.687-0.53-2.503c-1.052-5.732-4.163-10.059-7.605-13.478
		c-4.219-3.663-9.62-6.692-17.425-6.691c-7.821,0.001-13.106,3.175-17.281,6.836c-3.546,3.532-6.262,7.736-7.461,13.622
		c-0.353,1.732-0.429,3.253-2.166,3.707c-1.003,0.262-2.39,0.145-3.707,0.145c-2.16,0-4.096,0.146-4.717-1.444
		c-0.37-0.945,0.006-2.585,0.192-3.755c0.593-3.723,1.784-6.629,3.08-9.53c1.774-3.973,4.261-7.006,7.028-9.772
		c2.74-2.738,6.131-5.09,9.964-6.835c3.895-1.773,8.126-3.023,13.526-3.273C39.86-0.233,45.03,0.886,49.111,2.544
		C53.349,4.267,56.946,6.506,59.942,9.236z"/>
	<path style="fill-rule:evenodd;clip-rule:evenodd;" d="M51.229,17.996c3.56,3.286,6.073,6.866,7.365,12.516
		c0.403,1.762,0.234,3.321-1.155,3.899c-0.842,0.35-2.446,0.169-3.755,0.144c-2.252-0.042-3.884,0.236-4.766-1.059
		c-0.486-0.715-0.483-1.659-0.722-2.359c-0.724-2.122-2.146-4.034-3.707-5.391c-2.208-1.919-4.779-3.369-8.808-3.37
		c-3.864,0-6.79,1.435-8.905,3.273c-1.642,1.428-2.8,3.133-3.61,5.487c-0.372,1.083-0.571,2.555-1.637,3.13
		c-0.738,0.399-2.39,0.385-3.803,0.385c-2.413,0-4.451,0.215-5.103-1.444c-0.488-1.244,0.114-3.181,0.529-4.476
		c2.215-6.91,6.522-11.5,12.468-14.489c1.149-0.578,2.569-1.029,3.995-1.396c1.454-0.374,3.207-0.694,4.813-0.77
		c3.905-0.185,6.93,0.662,9.724,1.637C46.9,14.671,49.27,16.23,51.229,17.996z"/>
	<path style="fill-rule:evenodd;clip-rule:evenodd;" d="M46.271,32.581c-0.186,0.679-0.622,1.414-1.444,1.733
		c-1.065,0.413-3.15,0.145-4.669,0.145c-3.271,0-6.274,0.048-9.676,0.048c-2.638,0-5.254,0.374-5.632-1.684
		c-0.204-1.512,0.559-2.598,1.155-3.515c0.62-0.951,1.427-1.791,2.263-2.503c1.793-1.439,3.967-2.585,6.979-2.695
		c4.526-0.167,7.826,2.202,9.724,4.909C45.641,29.975,46.292,31.157,46.271,32.581z"/>
	<path style="fill-rule:evenodd;clip-rule:evenodd;" d="M38.04,36.529c2.432-0.115,5.313,0.062,7.895,0
		c6.413-0.153,13.347-0.049,19.929-0.048c1.327,0,2.895-0.168,3.803,0.192c1.997,0.791,1.509,3.206,1.059,5.487
		c-0.385,1.95-0.551,3.484-2.021,4.187c-0.822,0.394-2.363,0.337-3.899,0.337c-2.921,0.001-5.562-0.057-8.424,0
		c-6.61,0.133-13.656,0.048-20.698,0.049c-4.378,0.001-8.339-0.001-12.468,0c-3.898,0.001-7.947-0.001-12.322,0
		c-1.246,0-2.717,0.067-4.14,0c-1.421-0.067-3.09,0.191-4.044-0.145c-1.607-0.565-1.923-2.57-2.31-4.621
		c-0.419-2.218-0.65-4.609,1.252-5.247c0.687-0.23,1.505-0.074,2.214-0.097c7.955-0.248,16.887,0.127,24.935-0.096
		C31.848,36.445,34.922,36.677,38.04,36.529z"/>
	<path style="fill-rule:evenodd;clip-rule:evenodd;" d="M5.548,54.917c-0.812-1.468-2.2-2.613-2.069-4.862
		c0.305-1.802,3.166-1.302,5.103-1.348c4.261-0.103,8.528,0.001,12.756,0c4.195-0.001,8.432-0.049,12.756-0.049
		c8.961,0.002,17.915-0.046,27.246-0.048c2.392,0,5.907-0.51,6.354,1.3c0.223,0.906-0.444,2.097-0.818,2.744
		c-0.947,1.64-2.084,2.677-3.129,4.188c-0.514,0.743-1.075,1.478-1.877,1.781c-0.739,0.28-1.949,0.192-3.226,0.192
		c-7.827,0.001-15.098,0.049-23.058,0.048c-6.878,0-13.012,0.046-20.024,0.049c-2.12,0-5.299,0.241-6.643-0.289
		C7.33,57.995,6.438,56.256,5.548,54.917z"/>
	<path style="fill-rule:evenodd;clip-rule:evenodd;" d="M14.213,64.111c-0.52-0.522-1.85-1.068-1.733-2.214
		c0.159-1.56,3.859-1.06,5.728-1.06c4.607,0,8.632-0.048,13.237-0.048c8.049,0,14.753-0.047,22.961-0.048
		c1.668-0.001,4.192-0.275,4.284,1.155c0.055,0.843-1.145,1.816-1.829,2.311c-2.407,1.737-5.08,3.206-7.99,4.38
		c-5.37,2.165-13.216,3.301-20.169,1.926C22.939,69.373,18.226,66.911,14.213,64.111z"/>
</g>
<g id="Layer_1">
</g>
</svg>
