<?xml version="1.0" encoding="iso-8859-1"?>
<!-- Generator: Adobe Illustrator 19.2.0, SVG Export Plug-In . SVG Version: 6.00 Build 0)  -->
<svg version="1.1" xmlns="http://www.w3.org/2000/svg" xmlns:xlink="http://www.w3.org/1999/xlink" x="0px" y="0px"
	 viewBox="0 0 78.341 76.926" style="enable-background:new 0 0 78.341 76.926;" xml:space="preserve">
<g id="Kallemo">
	<path style="fill-rule:evenodd;clip-rule:evenodd;" d="M0.522,0C7.816,0.006,15.379,0.048,22.81,0.048
		c0.961,0,1.954-0.053,2.847,0.197c0.259,4.739-0.101,9.341,0.098,13.941c2.009,0.258,4.103,0.021,6.185,0.1
		c2.052,0.076,4.116-0.006,6.185,0c12.725,0.027,25.758,0.075,38.438,0.195c-0.208,0.693-1.163,1.061-1.717,1.571
		c-6.737,5.443-13.934,11.12-20.914,16.69c-1.143,0.912-2.371,1.672-3.485,2.799C49.995,36,49.36,36.467,48.73,36.966
		c-0.469,0.37-1.586,1.039-1.62,1.473c-0.036,0.467,0.674,0.964,0.933,1.275c0.386,0.465,0.6,0.876,0.982,1.179
		c2.193,2.88,4.426,5.735,6.775,8.493c6.998,8.218,13.836,16.691,20.765,25.036c0.37,0.351,0.635,0.806,0.982,1.178
		c0.243,0.414,0.884,0.683,0.785,1.276c-11.267,0.099-21.59,0.034-32.695-0.049c-1.789-1.925-3.36-4.068-5.007-6.136
		c-4.106-5.156-8.215-10.309-12.322-15.465c-0.444-0.491-0.806-1.049-1.227-1.57c-0.396-0.49-0.791-1.077-1.374-1.374
		c-0.2,1.942-0.148,4.01-0.148,6.087c0,5.226-0.051,10.343-0.098,15.513c-0.009,0.957,0.201,1.928-0.147,2.798
		c-6.949,0.145-14.749,0-22.189,0c-1.02,0-2.073,0.114-3.043-0.147c-0.144-8.083-0.083-16.769,0.098-24.79
		c8.113-0.264,16.946,0.096,25.184-0.05c0.04-0.01,0.049-0.05,0.098-0.049c0.21-12.361,0.208-24.8,0.148-37.211
		c-4.107-0.266-8.485-0.149-12.764-0.147c-4.212,0-8.545-0.007-12.518-0.197C0.148,10.916,0.228,7.102,0.228,3.534
		C0.227,2.387,0.127,0.891,0.375,0.098C0.411,0.052,0.464,0.024,0.522,0z"/>
</g>
<g id="Layer_1">
</g>
</svg>
