<?xml version="1.0" encoding="iso-8859-1"?>
<!-- Generator: Adobe Illustrator 19.2.0, SVG Export Plug-In . SVG Version: 6.00 Build 0)  -->
<svg version="1.1" xmlns="http://www.w3.org/2000/svg" xmlns:xlink="http://www.w3.org/1999/xlink" x="0px" y="0px"
	 viewBox="0 0 71.699 73.181" style="enable-background:new 0 0 71.699 73.181;" xml:space="preserve">
<g id="kanbe">
	<path style="fill-rule:evenodd;clip-rule:evenodd;" d="M6.068,0.126C6.277,1.142,6.169,2.339,6.169,3.62
		c-0.001,7.597-0.116,15.051,0,22.282c0.049,3.077-0.262,6.183,0.101,9.268c0.376-0.168,0.341-0.66,0.405-0.962
		c1.133-5.307,2.186-11.024,3.292-16.509c0.593-2.937,1.239-5.88,1.772-8.812c0.535-2.947,1.047-5.888,1.823-8.71
		c0.913-0.175,2.008-0.101,3.089-0.101c1.054,0,2.133-0.037,2.938,0.152c-0.075,1.457-0.433,2.888-0.709,4.305
		c-0.831,4.25-1.692,8.593-2.431,12.914c-0.979,5.729-2.381,11.37-3.191,17.218c0.419-0.052,0.482-0.585,0.608-0.861
		c1.096-2.402,2.107-5.007,3.14-7.545c2.059-5.061,4.207-10.064,6.228-15.243c0.292-0.747,0.497-1.505,0.811-2.228
		c0.626-1.443,1.167-2.922,1.772-4.355c0.601-1.42,1.053-2.907,1.874-4.203c1.977-0.051,4.438-0.151,6.33,0.051
		c0.052,0.61-0.289,1.176-0.506,1.722c-2.807,7.05-5.747,14.187-8.559,21.32c-0.429,1.085-1,2.113-1.367,3.19
		c-0.132,0.385-0.171,0.787-0.305,1.165c-0.839,2.37-2.01,4.789-2.785,7.292c0.438-0.056,0.654-0.561,0.861-0.861
		c1.711-2.479,3.364-5.098,5.014-7.698c1.862-2.936,3.839-5.861,5.772-8.761c1.942-2.913,3.781-5.912,5.723-8.812
		c1.944-2.904,3.757-5.878,5.874-8.609c2.314,0.066,4.893-0.133,7.039,0.102c0.025,0.445-0.347,0.82-0.557,1.164
		c-0.645,1.057-1.383,2.162-2.076,3.241c-0.931,1.45-1.889,2.865-2.836,4.304c-3.765,5.726-7.518,11.513-11.242,17.32
		c-0.929,1.447-1.818,2.932-2.785,4.355c-0.968,1.423-2.015,2.829-2.734,4.406c0.559-0.015,0.864-0.561,1.215-0.912
		c1.053-1.052,2.22-2.166,3.343-3.191c1.449-1.47,2.815-3.025,4.304-4.456c4.256-4.482,8.831-8.666,13.016-13.217
		c2.092-2.276,4.441-4.309,6.532-6.583c1.037-1.128,2.157-2.207,3.241-3.292c1.084-1.084,2.091-2.281,3.343-3.19
		c2.731,0.036,5.58-0.044,8.153,0.152c-0.093,0.667-0.677,0.843-1.013,1.266c-1.105,1.125-2.201,2.255-3.292,3.393
		c-6.314,6.68-12.767,13.221-19.346,19.801c-1.297,1.297-2.683,2.611-3.798,4.001c-0.531,0.662-1.274,1.318-1.975,1.924
		c-0.689,0.596-1.333,1.282-1.976,1.924c-0.587,0.587-1.312,1.201-1.975,1.925c-0.476,0.52-1.761,1.619-1.772,2.127
		c-0.013,0.533,1.555,1.909,1.924,2.279c2.089,2.088,4.202,4.303,6.229,6.33c2.753,2.752,5.691,5.594,8.305,8.407
		c2.022,2.176,4.094,4.25,6.179,6.38c3.401,3.476,6.872,7.042,10.28,10.584c0.357,0.385,0.716,0.769,1.114,1.114
		c0.307,0.372,0.959,0.658,0.911,1.215c-1.785,0.079-4.074,0.109-6.178,0.051c-0.672-0.019-1.462,0.069-2.026-0.051
		c-0.334-0.071-0.787-0.617-1.215-1.013c-1.138-1.05-2.253-2.247-3.241-3.292c-1.491-1.578-3.092-2.941-4.406-4.355
		c-2.819-3.035-5.845-5.886-8.608-8.862c-4.284-4.612-8.775-8.698-13.065-13.218c-0.71-0.747-1.44-1.439-2.178-2.178
		c-0.716-0.715-1.365-1.596-2.33-2.025c0.678,1.625,1.816,2.994,2.735,4.456c2.718,4.33,5.682,8.607,8.457,12.965
		c3.231,5.073,6.479,10.149,9.875,15.142c0.475,0.699,1.1,1.369,1.316,2.229c-2.113,0.199-4.792,0.103-6.988,0.05
		c-0.785-0.437-1.123-1.324-1.621-2.026c-1.483-2.093-2.883-4.386-4.354-6.533c-4.319-6.543-8.543-13.195-12.914-19.75
		c-1.448-2.172-2.588-4.55-4.355-6.482c0.3,1.541,1.001,2.958,1.57,4.405c0.425,1.08,0.95,2.147,1.316,3.241
		c0.128,0.381,0.172,0.774,0.305,1.165c0.49,1.447,1.153,2.877,1.722,4.305c2.27,5.704,4.518,11.558,6.937,17.218
		c0.304,0.709,0.545,1.456,0.861,2.178c0.3,0.686,0.755,1.389,0.709,2.178c-1.898,0.197-4.35,0.104-6.33,0.051
		c-0.533-0.559-0.702-1.339-1.014-2.026c-0.929-2.052-1.774-4.293-2.633-6.482c-1.135-2.89-2.217-5.825-3.393-8.71
		c-1.179-2.89-2.389-5.773-3.494-8.66c-0.837-2.186-1.748-4.284-2.633-6.482c-0.272-0.674-0.497-1.434-1.014-1.975
		c-0.116,0.719,0.079,1.463,0.203,2.177c1.346,7.761,3.059,15.667,4.456,23.498c0.254,1.424,0.507,2.855,0.811,4.254
		c0.307,1.411,0.604,2.824,0.709,4.254c-0.848,0.303-1.972,0.123-3.038,0.102c-1.054-0.021-2.189,0.098-3.09-0.102
		c-0.443-0.569-0.481-1.346-0.607-2.025c-0.929-5.021-1.879-10.164-2.938-15.243c-0.91-4.37-1.532-8.798-2.481-13.116
		c-0.154-0.705-0.313-1.415-0.455-2.127c-0.135-0.67-0.112-1.447-0.558-2.025c-0.245,0.63-0.198,1.355-0.202,2.025
		C6.06,51.088,6.242,62.492,5.966,72.746c-1.724,0.22-4.019,0.146-5.823,0C0.117,51.154-0.131,30.237,0.092,8.937
		c0.016-1.505-0.04-3.01,0-4.507C0.13,2.991,0.02,1.532,0.294,0.126C1.988-0.043,4.373-0.041,6.068,0.126z"/>
</g>
<g id="Layer_1">
</g>
</svg>
