<?xml version="1.0" encoding="iso-8859-1"?>
<!-- Generator: Adobe Illustrator 19.2.0, SVG Export Plug-In . SVG Version: 6.00 Build 0)  -->
<svg version="1.1" xmlns="http://www.w3.org/2000/svg" xmlns:xlink="http://www.w3.org/1999/xlink" x="0px" y="0px"
	 viewBox="0 0 77.389 79.815" style="enable-background:new 0 0 77.389 79.815;" xml:space="preserve">
<g id="Kantonbank_x5F_Appenzell">
	<path style="fill-rule:evenodd;clip-rule:evenodd;" d="M77.022,0.108c0.277,3.193,0.14,6.439,0.149,9.669
		c0.072,22.82,0.281,46.984,0.198,69.717c-3.205,0.261-6.449,0.148-9.669,0.148c-16.026,0.001-31.834,0.148-47.999,0.148
		c-4.883,0-9.791-0.05-14.627-0.05c-0.8,0.001-1.633-0.037-2.43,0c-0.74,0.036-1.522,0.192-2.232-0.099
		c-0.187-1.864-0.087-4.207-0.099-6.297c-0.004-0.665-0.184-1.348,0.099-1.885c5.623-0.304,11.308-0.1,17.008-0.099
		c17.02,0.001,34.503,0.073,51.42-0.248c0.247-2.428,0.099-4.978,0.099-7.537c0.001-18.306-0.051-36.888-0.297-54.891
		c-1.123-0.246-2.377-0.146-3.62-0.148c-8.535-0.021-17.58,0.271-26.329,0.099c-4.993-0.099-9.993,0.202-15.024,0
		c-2.474-0.099-5.003,0-7.487,0c-2.543,0-5.064-0.041-7.586,0.05c-0.207,0.908-0.149,1.865-0.149,2.826
		c0,15.044,0.075,30.515,0.247,44.874c0.966,0.26,1.988,0.17,2.976,0.149c1.032-0.021,2.313,0.242,3.174,0
		c0.628-0.177,1.366-1.159,1.835-1.637c1.714-1.749,3.395-3.608,5.057-5.306c1.977-2.015,3.938-4.001,5.951-6.148
		c0.276-0.295,0.684-0.779,0.892-0.793c0.489-0.033,1.372,1.227,1.736,1.636c3.698,4.162,7.362,8.313,11.206,12.248
		c2.581-0.04,5.363,0.089,7.537-0.1c0.133-0.633-0.586-0.833-0.794-1.289c-4.457-4.896-8.885-9.831-13.288-14.826
		c-0.627-0.71-1.374-1.338-1.835-2.182c0.393-0.759,1.093-1.292,1.685-1.884c3.519-3.518,7.005-7.253,10.562-10.81
		c0.29-0.29,0.609-0.585,0.893-0.893c0.273-0.296,0.618-0.627,0.694-1.041c-1.15-0.268-2.545-0.149-3.917-0.149
		c-1.389-0.001-2.949,0.036-4.116,0.099c-1.149,0.839-2.118,1.891-3.074,2.925c-2.842,3.079-6.03,5.931-8.925,9.025
		c-3.707,3.703-7.369,7.568-11.107,11.306c-0.211,0.21-0.429,0.669-0.843,0.545c-0.079-3.788-0.073-7.662-0.099-11.504
		c5.865-6.267,11.769-12.043,17.85-18.247c0.35-0.355,0.812-0.811,1.29-1.289c0.432-0.432,0.9-1.144,1.339-1.239
		c0.516-0.112,1.279-0.017,1.983-0.05c1.841-0.088,3.998-0.001,5.851,0c7.965,0.001,16.015-0.114,23.801-0.05
		c0.153,0.338-0.24,0.629-0.446,0.843c-0.666,0.693-1.445,1.505-2.182,2.132c-4.855,5.159-9.779,10.277-14.875,15.372
		c-1.176,1.175-2.451,2.501-3.769,3.817c-0.362,0.362-1.132,1.027-1.141,1.339c-0.012,0.408,0.997,1.31,1.389,1.735
		c5.459,5.949,10.841,11.906,16.214,17.95c1.684,1.895,3.392,3.838,5.206,5.652c0.251,0.251,0.617,0.525,0.595,0.942
		c-8.246,0.135-17.755,0.198-26.477,0.198c-1.233,0-2.872,0.201-3.868-0.05c-1.047-0.264-1.653-1.817-2.479-2.38
		c-1.149-1.269-2.271-2.551-3.422-3.818c-1.138-1.252-2.289-2.509-3.521-3.669c-1.014,0.613-1.71,1.61-2.529,2.43
		c-1.64,1.64-3.242,3.342-4.908,5.008c-0.818,0.818-1.484,1.789-2.43,2.479c-6.144-0.022-12.049,0.042-17.95-0.05
		c-0.021-0.044-0.044-0.089-0.099-0.099C0.158,46.149,0.067,27.215,0.067,8.092c0-2.65-0.203-5.294,0.1-7.884
		c10.12-0.257,20.273-0.051,30.494-0.05c8.7,0.001,17.696-0.1,26.577-0.1C63.771,0.058,70.507-0.102,77.022,0.108z"/>
</g>
<g id="Layer_1">
</g>
</svg>
