<?xml version="1.0" encoding="iso-8859-1"?>
<!-- Generator: Adobe Illustrator 19.2.0, SVG Export Plug-In . SVG Version: 6.00 Build 0)  -->
<svg version="1.1" xmlns="http://www.w3.org/2000/svg" xmlns:xlink="http://www.w3.org/1999/xlink" x="0px" y="0px"
	 viewBox="0 0 77.45 77.777" style="enable-background:new 0 0 77.45 77.777;" xml:space="preserve">
<g id="Karkula_x5F_Iittala">
	<path style="fill-rule:evenodd;clip-rule:evenodd;" d="M38.427,0.001c6.136-0.047,11.544,1.451,16.006,3.423
		c4.486,1.982,8.34,4.675,11.522,7.858c6.433,6.435,10.978,14.876,11.474,27.288c0.123,3.091-0.328,6.142-0.916,8.823
		c-1.71,7.801-5.529,14.062-10.269,18.802c-4.809,4.809-10.806,8.735-18.513,10.558c-2.629,0.622-5.481,0.923-8.678,1.012
		c-5.935,0.165-11.589-1.483-16.006-3.423c-4.555-2-8.347-4.683-11.522-7.858c-3.242-3.242-6.01-6.931-8.003-11.378
		C1.511,50.62,0.077,45.38,0.003,39.245c-0.076-6.253,1.363-11.674,3.327-16.103c2.099-4.736,4.561-8.031,7.81-11.57
		c1.471-1.603,3.325-3.122,5.255-4.436C22.186,3.193,28.775,0.074,38.427,0.001z M29.893,8.679
		c-0.057,0.023-0.109,0.052-0.144,0.097c-0.244,0.258-0.206,1.584-0.193,2.217c0.034,1.719,0.048,3.164,0.048,4.773
		c0,0.824-0.141,1.646,0.096,2.314c5.82,0.27,12.212,0.225,18.079,0.145c0.16-2.894,0.161-6.458,0-9.353
		C42.077,8.58,35.853,8.816,29.893,8.679z M29.845,24.106c-0.49,0.71-0.25,1.64-0.289,2.459c-0.042,0.883,0.082,1.797,0.048,2.7
		c-0.067,1.814-0.048,3.709-0.048,5.592c0,11.524-0.11,22.929,0.096,33.989c2.79,0.318,5.908,0.131,9.016,0.193
		c2.983,0.06,6.156,0.133,9.063-0.048c0.255-0.875,0.145-1.806,0.145-2.7c0-4.796-0.018-9.347-0.048-14.029
		C47.77,43.421,48.05,33.73,47.78,24.299C41.939,24.03,35.614,24.166,29.845,24.106z"/>
</g>
<g id="Layer_1">
</g>
</svg>
