<?xml version="1.0" encoding="iso-8859-1"?>
<!-- Generator: Adobe Illustrator 19.2.0, SVG Export Plug-In . SVG Version: 6.00 Build 0)  -->
<svg version="1.1" xmlns="http://www.w3.org/2000/svg" xmlns:xlink="http://www.w3.org/1999/xlink" x="0px" y="0px"
	 viewBox="0 0 73.458 73.778" style="enable-background:new 0 0 73.458 73.778;" xml:space="preserve">
<g id="karl_x5F_kramer_x5F_verlag">
	<path style="fill-rule:evenodd;clip-rule:evenodd;" d="M73.346,0.426c0.22,11.916,0.049,23.949,0.047,36.287
		c-0.001,9.322,0.002,18.688,0,27.916c0,3.049,0.104,6.129-0.142,9.084c-18.402,0.188-36.698-0.09-55.072-0.096
		c-6.027,0-12.071,0.016-18.074-0.188c-0.299-17.604,0.154-36.82,0-54.885c-0.023-2.812,0-6.125,0-9.273
		c0.001-2.254,0-4.551,0-6.953c0-0.773-0.086-1.959,0.143-2.225C0.282,0.049,0.333,0.021,0.39,0
		c9.188,0.08,18.457-0.006,27.678,0.141c6.079,0.098,12.077,0.047,18.263,0.049c6.205,0,12.218,0.094,18.168,0.094
		c1.483,0,2.972-0.037,4.448,0C70.421,0.32,71.899,0.221,73.346,0.426z M70.271,3.359C53.479,3.18,36.85,3.074,20.166,3.074
		c-5.581,0-11.156-0.062-16.749-0.094C3.36,3.004,3.31,3.029,3.275,3.074C2.98,3.168,3.086,4.307,3.086,5.062
		c0,3.789,0,7.027,0,10.504c0,6.84-0.062,14.24-0.047,21.1c0.023,11.107-0.156,22.619,0.047,33.828
		c5.555,0.371,11.154-0.033,16.749,0.19c2.771,0.111,5.587,0.047,8.375,0.047c13.346,0.004,26.825,0.139,40.073,0.145
		c0.657,0,1.391,0.107,2.035-0.145c0.197-22.584,0.202-44.98,0.095-67.324C70.353,3.402,70.346,3.346,70.271,3.359z"/>
	<path style="fill-rule:evenodd;clip-rule:evenodd;" d="M66.628,6.67c0.031,0.461-0.438,0.768-0.71,1.041
		c-8.224,8.227-16.483,16.625-24.746,24.887c-0.922,0.922-1.891,1.764-2.791,2.744c-0.256,0.279-0.528,0.74-0.993,0.711
		c-0.092-4.848-0.047-9.949-0.048-14.953c0-2.492-0.106-5,0-7.428c0.08-1.816,0.048-3.547,0.048-5.439
		c0-0.562-0.109-1.174,0.142-1.703C46.473,6.543,57.099,6.422,66.628,6.67z"/>
	<path style="fill-rule:evenodd;clip-rule:evenodd;" d="M6.776,6.67c0.031,0,0.063,0,0.095,0
		c7.382,7.287,14.868,15.102,22.38,22.615c1.235,1.236,2.371,2.424,3.737,3.738c0.895,0.863,1.754,1.896,2.743,2.887
		c0.294,0.291,0.806,0.826,0.805,1.039c0,0.34-0.606,0.799-0.852,1.041c-0.358,0.359-0.652,0.646-0.899,0.994
		c-8.952,9.096-18.15,18.055-27.204,27.111c-0.266,0.266-0.501,0.717-0.946,0.709C6.436,49.258,6.586,31.873,6.587,14.098
		c0-1.133-0.027-2.361,0-3.549c0.031-1.281,0.037-2.605,0.095-3.736C6.681,6.73,6.717,6.689,6.776,6.67z"/>
	<path style="fill-rule:evenodd;clip-rule:evenodd;" d="M37.435,37.943c0.54,0.139,1.385,1.244,1.94,1.799
		c7.923,7.924,15.894,15.873,23.704,23.941c0.91,0.939,1.799,1.846,2.744,2.791c0.264,0.264,0.765,0.518,0.709,0.992
		c-9.795-0.035-19.355,0.049-29.145-0.141c-0.22-9.764-0.016-19.607-0.048-29.24C37.382,38.047,37.369,37.957,37.435,37.943z"/>
</g>
<g id="Layer_1">
</g>
</svg>
