<?xml version="1.0" encoding="iso-8859-1"?>
<!-- Generator: Adobe Illustrator 19.2.0, SVG Export Plug-In . SVG Version: 6.00 Build 0)  -->
<svg version="1.1" xmlns="http://www.w3.org/2000/svg" xmlns:xlink="http://www.w3.org/1999/xlink" x="0px" y="0px"
	 viewBox="0 0 81.25 81.762" style="enable-background:new 0 0 81.25 81.762;" xml:space="preserve">
<g id="Karl_x5F_Kessel_x5F_CU">
	<path style="fill-rule:evenodd;clip-rule:evenodd;" d="M80.881,0.142c0.171,6.118-1.248,11.392-3.241,15.838
		c-2.999,6.691-7.202,11.886-12.807,16.048c-1.841,1.367-3.916,2.51-6.115,3.502c-4.424,1.996-9.702,3.437-15.734,3.293
		c-0.234-6.208-0.209-12.801-0.209-19.289c0-6.436-0.194-12.998,0.053-19.341C46.48-0.048,50.29,0.037,54.17,0.037
		c1.885,0,3.79,0,5.697,0c4.627,0,9.003,0,13.644,0C76.02,0.037,78.513-0.096,80.881,0.142z"/>
	<path style="fill-rule:evenodd;clip-rule:evenodd;" d="M38.174,0.194c0.295,6.223-1.365,11.371-3.188,15.891
		c-0.898,2.223-2.092,4.388-3.399,6.221c-1.368,1.92-2.819,3.6-4.338,5.279c-0.747,0.825-1.684,1.49-2.51,2.3
		c-0.833,0.818-1.634,1.586-2.562,2.248c-1.864,1.331-3.967,2.448-6.168,3.45c-4.425,2.015-9.721,3.43-15.733,3.293
		c-0.204-11.26-0.211-22.62-0.21-33.976c0.001-1.571-0.209-3.142,0.105-4.652C12.692,0.065,25.742,0.099,38.174,0.194z"/>
	<path style="fill-rule:evenodd;clip-rule:evenodd;" d="M81.247,81.53c-3.044,0.334-6.18,0.055-9.305,0.104
		c-9.229,0.147-19.235,0.084-28.802-0.052c-0.197-9.495-0.209-19.376-0.209-28.907c0-1.611-0.034-3.233,0-4.809
		c0.033-1.564-0.241-3.116,0.104-4.6c9.304,0.039,16.452,2.951,21.954,6.9c4.578,3.286,8.428,7.543,11.291,12.598
		C79.082,67.708,81.329,74.009,81.247,81.53z"/>
	<path style="fill-rule:evenodd;clip-rule:evenodd;" d="M38.54,81.582c-6.057,0.27-12.53,0.157-18.975,0.157
		c-6.417,0-12.896,0.086-19.079-0.104C0.264,70.23,0.224,57.723,0.225,45.671c0-0.751-0.101-2.104,0.157-2.3
		c0.038-0.049,0.095-0.079,0.156-0.104c12.426,0.33,20.457,5.052,26.868,11.396c4.686,4.813,8.406,10.677,10.246,18.452
		C38.263,75.696,38.668,78.563,38.54,81.582z"/>
</g>
<g id="Layer_1">
</g>
</svg>
