<?xml version="1.0" encoding="iso-8859-1"?>
<!-- Generator: Adobe Illustrator 19.2.0, SVG Export Plug-In . SVG Version: 6.00 Build 0)  -->
<svg version="1.1" xmlns="http://www.w3.org/2000/svg" xmlns:xlink="http://www.w3.org/1999/xlink" x="0px" y="0px"
	 viewBox="0 0 78.087 78.013" style="enable-background:new 0 0 78.087 78.013;" xml:space="preserve">
<g id="Kauai_x5F_Surf_x5F_Resort_x5F_US">
	<path style="fill-rule:evenodd;clip-rule:evenodd;" d="M31.138,34.443c1.428-0.538,2.55-1.6,3.777-2.469
		c1.201-0.85,2.361-1.786,3.576-2.619c6.108-4.188,11.849-8.813,17.932-13.096c0.562-0.396,1.228-0.851,1.813-1.31
		c0.503-0.395,1.458-0.822,1.259-1.713c-0.78-0.212-1.281,0.398-1.863,0.655c-1.697,0.746-4.426,1.64-6.548,0.504
		c-1.257-0.674-2.098-1.744-2.317-3.123c-0.476-2.978,2.249-5.618,4.482-6.297c1.503-0.456,3.11-0.3,4.635,0.202
		c2.596,0.855,4.771,2.652,6.649,4.231c2.001,1.682,3.778,3.473,5.339,5.541c4.167,5.519,7.7,12.456,8.11,21.81
		c0.031,0.712,0.33,1.647-0.252,2.266c-0.508,0.055-0.749-0.434-0.957-0.755c-0.659-1.012-1.338-2.072-2.065-3.022
		c-1.021-1.229-2.122-2.378-3.324-3.425c-3.395-3.051-8.154-5.356-14.356-5.994c-4.871-0.502-9.463,0.834-12.794,2.367
		c-0.472,0.218-1.043,0.505-1.662,0.857c-0.461,0.262-1.386,0.754-1.41,1.108c-0.037,0.53,1.194,1.19,1.611,1.511
		c1.779,1.367,3.483,2.679,5.289,3.929c6.659,4.607,13.018,9.516,19.543,14.255c0.478,0.12,1.446,1.421,1.965,0.806
		c0.402-0.477-0.448-1.153-0.705-1.41c-1.115-1.115-2.342-2.529-2.771-4.13c-0.853-3.184,0.948-5.646,3.576-5.994
		c2.972-0.395,5.335,1.655,6.297,3.525c1.233,2.399,0.75,5.815,0,8.361c-0.74,2.51-1.847,4.835-3.022,6.901
		c-2.974,5.224-6.956,9.529-11.888,12.995c-2.442,1.716-4.994,3.234-8.109,4.332c-0.554,0.194-1.221,0.62-1.863,0.302
		c-0.053-0.639,0.523-1.01,0.855-1.36c4.339-4.569,7.67-13.316,5.491-22.263c-1.076-4.417-3.206-8.132-5.894-11.082
		c-0.915-1.004-1.879-2.007-3.072-2.568c-0.706,0.353-0.742,1.224-0.958,1.863c-3.282,9.782-6.208,19.892-9.62,29.567
		c-0.206,0.584-0.659,1.488-0.101,2.065c0.756-0.147,0.929-0.995,1.209-1.511c0.92-1.691,2.194-3.279,4.181-3.979
		c3.384-1.193,5.864,1.465,5.793,4.583c-0.023,0.985-0.382,2.187-0.807,2.922c-1.865,3.227-5.441,4.23-10.225,4.231
		c-4.624,0-8.767-1.038-12.19-2.217c-7.299-2.514-12.551-6.812-16.924-11.887c-0.432-0.725-1.445-1.356-1.31-2.317
		c0.681-0.212,1.317,0.257,1.914,0.504c1.79,0.738,3.76,1.317,5.994,1.712c2.953,0.521,6.556,0.37,9.419-0.302
		c5.618-1.318,9.934-3.958,13.146-7.505c2.111-2.473,4.12-5.048,5.138-8.613c-0.46-0.564-1.267-0.377-1.914-0.353
		c-5.092,0.19-10.936-0.001-16.118,0c-5.464,0-10.586-0.101-16.068-0.102c-0.639,0-1.521-0.19-1.863,0.454
		c0.398,0.767,1.455,0.617,2.166,0.755c2.209,0.432,4.43,1.494,5.39,3.224c1.466,2.641-0.148,5.474-2.065,6.498
		c-2.764,1.478-6.272,0.005-7.857-1.713c-2.438-2.64-3.49-6.479-4.281-10.779c-1.25-6.786-0.059-14.411,1.863-19.694
		c0.982-2.698,2.311-5.207,3.777-7.555c0.398-0.637,0.95-1.732,1.864-1.764c0.465,0.931,0.003,1.947-0.05,2.922
		c-0.41,7.557,2.728,13.328,6.094,17.327c3.648,4.074,8.262,7.407,15.111,8.411c0.921,0.135,1.895,0.426,2.871,0.151
		c0.257-0.774-0.184-1.531-0.403-2.216c-2.478-7.736-5.003-15.258-7.605-23.12c-0.661-1.996-1.378-4.045-2.065-6.347
		c-0.093-0.312-0.49-1.819-1.058-1.712c-0.452,0.084-0.267,0.927-0.202,1.31c0.66,3.821-0.186,7.202-3.022,8.26
		c-1.217,0.454-2.635,0.071-3.525-0.453c-2.611-1.535-3.74-5.595-1.965-8.814c1.096-1.989,2.763-3.508,4.634-4.836
		c0.628-0.444,1.179-0.984,1.763-1.359C23.498,2.735,30.18,0.404,37.938,0.04c4.39-0.206,8.732,0.397,12.089,1.41
		c0.382,0.115,1.012,0.196,1.007,0.756c-0.096,0.555-0.753,0.506-1.108,0.603c-6.66,1.836-11.862,5.235-15.362,10.326
		c-2.733,3.977-4.873,8.88-4.634,15.716c0.036,1.031,0.129,2.14,0.302,3.122C30.389,32.873,30.461,33.916,31.138,34.443z"/>
</g>
<g id="Layer_1">
</g>
</svg>
