<?xml version="1.0" encoding="iso-8859-1"?>
<!-- Generator: Adobe Illustrator 19.2.0, SVG Export Plug-In . SVG Version: 6.00 Build 0)  -->
<svg version="1.1" xmlns="http://www.w3.org/2000/svg" xmlns:xlink="http://www.w3.org/1999/xlink" x="0px" y="0px"
	 viewBox="0 0 89.716 80.309" style="enable-background:new 0 0 89.716 80.309;" xml:space="preserve">
<g id="Kaufman_x5F_Astoria_x5F_Studios">
	<path style="fill-rule:evenodd;clip-rule:evenodd;" d="M75.556,14.561c-0.938,0.83-2.073,1.44-3.152,2.102
		c-2.664,1.633-5.386,3.305-8.057,5.003c-0.517,0.329-1.104,0.628-1.451,1.151c0.446,0.705,1.267,1.028,1.952,1.451
		c0.692,0.427,1.392,0.913,2.102,1.301c0.709,0.388,1.468,0.794,2.151,1.251c1.355,0.906,2.761,1.738,4.203,2.552
		c1.404,0.792,2.8,1.633,4.203,2.552c0.685,0.449,1.449,0.779,2.151,1.201c1.697,1.02,3.238,2.294,5.054,3.102
		c1.203,0.862,2.586,1.744,3.903,2.552c0.413,0.253,0.932,0.497,1.101,0.951c-1.283-0.504-2.467-1.182-3.652-1.852
		c-2.354-1.33-4.806-2.477-7.155-3.853c-1.172-0.687-2.397-1.339-3.703-1.802c0.285,0.66,1.036,0.853,1.602,1.201
		c2.894,1.784,5.885,3.659,8.856,5.504c1.175,0.729,2.349,1.448,3.353,2.352c-1.041-0.311-2.002-0.88-2.952-1.401
		c-0.975-0.534-1.999-0.959-2.953-1.501c-0.27-0.153-0.475-0.389-0.75-0.55c-0.728-0.428-1.544-0.749-2.302-1.151
		c-2.182-1.157-4.445-2.511-6.805-3.553c0.159,0.364,0.577,0.585,0.9,0.8c0.688,0.46,1.381,0.913,2.151,1.351
		c2.214,1.259,4.401,2.799,6.655,4.103c0.94,0.545,1.908,1.093,2.802,1.702c0.892,0.606,1.925,1.056,2.603,1.901
		c-2.827-1.297-5.511-2.764-8.156-4.254c-1.327-0.747-2.71-1.42-4.054-2.151c-1.333-0.727-2.641-1.535-4.103-2.052
		c0.241,0.576,1.261,0.808,1.751,1.301c3.875,2.473,8.016,4.802,11.909,7.355c0.508,0.333,1.161,0.576,1.451,1.151
		c-2.878-1.253-5.523-2.82-8.206-4.303c-2.676-1.478-5.402-2.88-8.206-4.253c0.936,0.953,2.191,1.549,3.352,2.302
		c1.152,0.748,2.382,1.434,3.553,2.202c2.351,1.542,4.812,2.966,7.155,4.303c0.518,0.295,1.245,0.911,1.551,1.351
		c-1.25-0.503-2.452-1.12-3.603-1.801C80.494,42.79,78.1,41.6,75.756,40.33c-2.205-1.194-4.302-2.386-6.655-3.452
		c1.186,1.086,2.728,1.767,4.103,2.702c2.737,1.861,5.722,3.411,8.506,5.254c1.378,0.913,2.909,1.642,4.053,2.802
		c-6.24-3.017-11.834-6.679-18.213-9.557c4.811,3.286,10.321,6.331,15.261,9.657c0.737,0.447,1.577,0.791,2.052,1.501
		c-3.066-1.24-5.694-3.217-8.606-4.604c-2.918-1.389-5.58-3.258-8.656-4.503c1.143,1.05,2.596,1.775,3.953,2.652
		c2.696,1.744,5.605,3.308,8.306,5.104c0.676,0.449,1.323,0.928,2.002,1.351c0.652,0.407,1.419,0.744,1.851,1.401
		c-2.333-0.982-4.436-2.315-6.654-3.502c-3.591-1.921-7.146-4.115-11.009-5.854c0.897,0.877,2.04,1.441,3.103,2.102
		c3.15,1.958,6.425,3.96,9.558,6.004c0.716,0.424,1.528,0.783,2.201,1.251c0.681,0.474,1.418,0.899,1.901,1.551
		c-5.91-2.779-11.061-6.319-17.062-9.007c0.18,0.329,0.552,0.543,0.851,0.751c2.216,1.536,4.758,2.983,7.155,4.403
		c1.381,0.818,2.75,1.722,4.104,2.552c0.689,0.423,1.386,0.806,2.051,1.251c0.626,0.417,1.354,0.789,1.802,1.401
		c-3.247-1.457-6.196-3.21-9.257-4.854c-6.684-3.544-13.664-7.377-20.615-11.058c-1.658-0.879-3.319-1.811-5.153-2.752
		c-0.517-0.265-1.36-0.842-1.752-0.85c-0.401-0.009-0.926,0.443-1.351,0.7c-0.483,0.293-0.91,0.538-1.251,0.75
		c-0.872,0.544-1.728,0.944-2.352,1.651c-0.208,1.61,0.172,3.808-0.2,5.254c-1.637-0.535-3.055-1.517-4.554-2.302
		c-2.973-1.558-5.905-3.204-8.906-4.753c-1.484-0.766-2.992-1.494-4.354-2.452C22.103,22.13,22.17,10.711,22.667,0
		c0.311,0.627,0.159,1.336,0.199,2.001c0.316,5.214,0.287,11.025,0.801,16.112c0.346-0.717,0.211-1.645,0.25-2.552
		c0.225-5.098,0.055-10.32,0.551-15.161c0.323,1.593,0.315,3.747,0.4,5.704c0.188,4.274,0.143,8.744,0.551,12.659
		c0.34-0.369,0.326-1.002,0.35-1.501c0.135-2.807-0.033-5.435,0.15-8.006c0.1-1.389-0.002-2.87,0.05-4.353
		c0.054-1.572-0.023-3.128,0.3-4.403c0.326,1.358,0.338,2.826,0.351,4.303c0.031,3.64,0.15,7.448,0.351,11.058
		c0.07,1.273,0.139,2.592,0.35,3.803c0.283-0.424,0.084-0.943,0.101-1.401c0.009-0.25,0.135-0.494,0.149-0.75
		c0.091-1.469,0-3.041,0-4.603c0-0.256,0.091-0.485,0.101-0.751c0.145-3.938-0.029-8.101,0.35-11.959
		c0.412,0.676,0.206,1.608,0.25,2.402c0.29,5.246,0.251,10.961,0.601,16.162c0.026,0.398,0.184,0.794,0.2,1.201
		c0.292-1.399,0.29-3.622,0.3-5.454c0.005-0.745,0.05-1.508,0.051-2.251c0-2.623,0.096-5.595,0.2-8.306
		c0.044-1.164-0.113-2.337,0.199-3.352c0.366,1.071,0.225,2.635,0.301,4.003c0.296,5.355,0.243,11.036,0.7,16.162
		c0.368-0.659,0.163-1.498,0.2-2.252c0.289-5.798,0.055-12.26,0.551-18.063c0.24,0.405,0.267,0.954,0.3,1.451
		c0.071,1.068-0.014,2.247,0,3.303c0.013,0.947,0.15,1.915,0.15,2.902c0,1.961,0.044,3.946,0.2,5.854
		c0.216,2.646,0.017,5.264,0.4,7.705c0.625-6.627,0.222-14.589,0.801-21.466c0.436,2.188,0.354,4.606,0.35,7.005
		c-0.002,0.953,0.098,1.928,0.101,2.902c0.01,3.683,0.318,7.441,0.55,11.008c0.263-1.082,0.159-2.357,0.251-3.453
		c0.158-1.896,0.056-3.91,0.1-5.904c0.035-1.588,0.078-3.207,0.15-4.804c0.1-2.192-0.102-4.504,0.25-6.405
		c0.403,0.668,0.204,1.543,0.25,2.302c0.148,2.448,0.186,5.026,0.2,7.506c0.01,1.736,0.195,3.46,0.2,5.204
		c0.006,1.989,0.229,3.975,0.35,5.904c0.259-0.136,0.234-0.474,0.251-0.65c0.076-0.846-0.057-1.741,0-2.652
		c0.371-5.965,0.032-12.125,0.55-17.713c0.268,1.217,0.277,2.509,0.351,3.803c0.116,2.036,0.078,4.162,0.15,6.254
		c0.071,2.065,0.009,4.132,0.149,6.105c0.091,1.254,0.16,2.916,0.301,4.303c0.433-0.521,0.247-1.282,0.25-1.901
		c0.011-1.939-0.009-3.963,0.15-5.955c0.218-2.733,0.039-5.548,0.15-8.156c0.038-0.918-0.025-1.91,0.05-3.002
		c0.023-0.345,0.014-0.816,0.3-1c0.287,3.532,0.294,7.363,0.451,11.058c0.054,1.282-0.147,2.546,0.3,3.653
		c0.838,0.036,1.57-0.528,2.251-0.901c4.165-2.278,8.345-4.499,12.46-6.905c0.332-0.195,0.697-0.363,1.051-0.551
		c0.537-0.284,0.953-0.595,1.601-0.8c2.648-1.444,5.139-3.026,7.806-4.454c0.881-0.471,1.767-1.018,2.752-1.301
		c-1.102,1-2.43,1.718-3.702,2.502c-1.261,0.776-2.444,1.665-3.703,2.452c-2.524,1.579-5.122,3.062-7.455,4.853
		c1.424-0.488,2.724-1.259,4.003-1.952c3.859-2.09,7.515-4.361,11.559-6.304c0.215,0.21-0.404,0.421-0.551,0.6
		c-1.818,1.334-3.957,2.348-5.704,3.753c-2.297,1.318-4.516,2.741-6.705,4.203c-0.715,0.478-1.492,0.891-2.102,1.501
		c0.801-0.109,1.438-0.632,2.102-1.001c1.989-1.103,4.052-2.143,6.055-3.252c0.651-0.361,1.234-0.845,1.901-1.201
		c2.006-1.07,4.008-2.2,6.154-3.152c-1.147,1.106-2.603,1.844-3.953,2.702c-2.688,1.71-5.401,3.447-8.105,5.204
		c-1.346,0.874-2.748,1.629-3.953,2.652c1.506-0.601,2.919-1.374,4.304-2.152c1.382-0.776,2.781-1.523,4.152-2.302
		c2.728-1.549,5.381-3.276,8.406-4.503c-1.27,1.082-2.747,1.884-4.153,2.802c-0.702,0.46-1.438,0.852-2.151,1.301
		c-0.697,0.44-1.318,0.986-2.001,1.451c-0.498,0.34-1.088,0.564-1.601,0.901c-1.966,1.289-4.175,2.562-6.055,4.003
		c2.055-0.747,3.922-2.117,6.005-3.002c1.703-1.08,3.468-2.055,5.254-3.002c1.779-0.944,3.442-2.143,5.404-2.852
		c0.102,0.236-0.237,0.371-0.351,0.45c-1.321,0.927-2.867,1.787-4.253,2.702c-0.8,0.528-1.629,1.057-2.452,1.551
		c-1.397,0.838-2.658,1.726-4.103,2.602c-1.632,0.989-3.412,1.975-4.854,3.252c6.01-2.83,11.272-6.407,17.263-9.257
		c0.216,0.089-0.268,0.284-0.351,0.4c-1.397,0.982-2.865,1.859-4.304,2.802c-1.432,0.939-2.983,1.701-4.402,2.652
		c-2.13,1.427-4.247,2.824-6.455,4.153c-0.712,0.429-1.438,0.89-2.052,1.451c2.537-1.083,4.712-2.526,7.155-3.703
		c3.692-2.179,7.474-4.268,11.408-6.205c-0.491,0.728-1.359,1.027-2.052,1.501c-2.071,1.421-4.338,2.678-6.504,4.053
		c-1.434,0.91-2.848,1.871-4.304,2.752c-1.44,0.872-2.94,1.698-4.203,2.802c1.95-0.803,3.766-1.882,5.604-2.902
		c1.832-1.017,3.643-2.064,5.504-3.052c2.192-1.165,4.287-2.539,6.655-3.453c-0.586,0.602-1.325,1.06-2.052,1.501
		c-3.557,2.159-7.307,4.361-10.809,6.705c-0.704,0.472-1.389,0.952-2.102,1.401c-0.701,0.443-1.536,0.754-2.051,1.451
		c1.724-0.77,3.409-1.617,5.004-2.552c4.227-2.479,8.43-4.852,12.959-7.005c-2.023,1.656-4.397,2.826-6.604,4.303
		c-1.646,1.102-3.417,1.987-5.054,3.152c-1.551,1.104-3.306,2.106-4.903,3.252c-0.041,0.01-0.051,0.05-0.101,0.05
		c-0.01,0.041-0.05,0.05-0.05,0.1c3.506-1.595,6.622-3.582,10.007-5.353c0.468-0.245,0.851-0.592,1.301-0.851
		c0.803-0.462,1.714-0.823,2.553-1.301C73.115,15.65,74.191,15.037,75.556,14.561z"/>
	<path style="fill-rule:evenodd;clip-rule:evenodd;" d="M7.956,26.92c0.001-0.049,0.061-0.039,0.1-0.05
		c3.141,1.505,6.2,3.184,9.307,4.854c1.504,0.808,2.979,1.721,4.504,2.552c3.06,1.667,6.107,3.233,9.256,4.904
		c4.182,2.217,8.311,4.555,12.61,6.805c0.415,0.218,0.982,0.542,1.2,0.551c0.41,0.015,0.951-0.405,1.351-0.651
		c1.264-0.775,2.556-1.539,3.604-2.352c0.312-1.571-0.147-3.917,0.25-5.404c1.591,0.593,3.02,1.516,4.503,2.302
		c2.934,1.554,5.84,3.142,8.757,4.754c1.444,0.798,2.969,1.477,4.303,2.452c0.029,9.273-0.451,18.703-0.45,28.221
		c0.001,1.316,0.058,2.667-0.25,3.853c-0.504-5.556-0.302-11.627-0.9-17.213c-0.327,0.952-0.254,2.027-0.301,3.052
		c-0.222,4.878,0.009,10.155-0.45,14.761c-0.335-1.545-0.351-3.199-0.35-4.854c0-0.983-0.093-2.039-0.15-3.052
		c-0.115-2.012-0.151-4.043-0.25-6.154c-0.078-1.647-0.001-3.34-0.301-4.753c-0.594,2.799-0.16,6.026-0.35,9.156
		c-0.065,1.076-0.086,2.12-0.15,3.153c-0.133,2.133,0.233,4.439-0.25,6.204c-0.193-0.227-0.225-0.485-0.25-0.75
		c-0.135-1.378-0.091-2.859-0.15-4.353c-0.098-2.427-0.165-4.838-0.251-7.306c-0.06-1.781-0.153-3.441-0.3-5.054
		c-0.287,0.323-0.084,0.715-0.1,1.101c-0.063,1.511-0.251,3.139-0.251,4.704c0,1.611,0.068,3.309-0.05,4.954
		c-0.17,2.366,0.027,4.724-0.3,6.955c-0.333-1.253-0.273-3.223-0.35-4.904c-0.168-3.685-0.286-7.47-0.45-11.358
		c-0.032-0.767,0.08-1.601-0.25-2.302c-0.239,1.343-0.34,2.77-0.351,4.203c-0.035,4.682-0.002,9.639-0.35,14.21
		c-0.273-0.621-0.253-1.348-0.301-2.051c-0.41-6.01-0.148-12.199-0.751-17.963c-0.35,0.744-0.164,1.59-0.2,2.402
		c-0.049,1.125-0.086,2.327-0.149,3.353c-0.257,4.133,0.111,8.449-0.15,12.559c-0.036,0.563-0.107,1.194-0.25,1.751
		c-0.453-1.533-0.196-3.342-0.3-5.054c-0.135-2.213-0.26-4.496-0.301-6.755c-0.06-3.28-0.13-6.528-0.45-9.607
		c-0.569,6.741-0.276,14.632-0.751,21.416c-0.348-0.633-0.266-1.434-0.3-2.152c-0.173-3.627-0.118-7.194-0.301-10.708
		c-0.032-0.631-0.148-1.279-0.149-1.901c-0.003-1.706,0.11-3.437-0.301-5.004c-0.453,4.358-0.266,8.936-0.55,13.51
		c-0.13,2.08,0.202,4.327-0.2,6.155c-0.383-0.627-0.146-1.439-0.2-2.151c-0.122-1.61-0.206-3.275-0.2-4.904
		c0.002-0.636-0.146-1.242-0.15-1.852c-0.01-1.199,0.036-2.403,0-3.603c-0.009-0.316-0.14-0.636-0.15-0.951
		c-0.066-1.986,0.171-4.002-0.3-5.904c0.106-0.46,0.269-1.188-0.05-1.551c-0.194,0.363-0.189,1.084-0.05,1.501
		c-0.473,6.311-0.236,13.264-0.65,19.515c-0.411-0.644-0.241-2.085-0.301-3.152c-0.163-2.946-0.225-6.424-0.351-9.557
		c-0.109-2.729-0.04-5.198-0.35-7.656c-0.348,0.689-0.185,1.62-0.25,2.552c-0.186,2.693-0.064,5.487-0.2,8.206
		c-0.077,1.539-0.101,3.087-0.101,4.603c0,1.511,0.065,3.018-0.25,4.403c-0.202-0.668-0.198-1.425-0.25-2.151
		c-0.248-3.451-0.095-7.359-0.301-10.758c-0.033-0.551-0.01-1.437-0.4-1.751c-1.81,0.546-3.36,1.707-4.953,2.552
		c-1.62,0.859-3.2,1.696-4.804,2.602c-3.156,1.782-6.349,3.596-9.606,5.304c-2.907,1.523-5.663,3.248-8.707,4.604
		c0.021-0.403,0.489-0.537,0.751-0.701c2.145-1.34,4.357-2.83,6.604-4.153c2.568-1.513,5.125-3.1,7.405-4.854
		c-2.756,1.121-5.197,2.726-7.755,4.053c-2.563,1.33-5.017,2.84-7.706,4.053c-0.15-0.226,0.434-0.561,0.7-0.701
		c3.495-2.326,7.176-4.466,10.758-6.705c1.211-0.907,2.653-1.582,3.753-2.602c-1.456,0.457-2.712,1.362-4.053,2.051
		c-4.036,2.076-7.963,4.445-12.109,6.455c-0.086-0.173,0.167-0.276,0.25-0.35c0.922-0.81,2.164-1.487,3.253-2.202
		c1.276-0.837,2.681-1.577,3.903-2.352c2.932-1.871,5.962-3.644,8.756-5.654c-1.631,0.582-3.219,1.572-4.804,2.452
		c-2.39,1.327-4.823,2.646-7.255,3.953c-0.605,0.325-1.196,0.696-1.802,1.001c-1.048,0.526-1.993,1.171-3.202,1.601
		c-0.094-0.338,0.479-0.497,0.801-0.701c0.363-0.23,0.721-0.505,1-0.701c3.519-2.357,7.295-4.398,10.858-6.755
		c1.168-0.772,2.439-1.438,3.452-2.402c-4.352,2.077-8.346,4.512-12.609,6.705c-1.402,0.721-2.664,1.711-4.203,2.202
		c-0.104-0.213,0.465-0.559,0.751-0.751c0.341-0.228,0.789-0.375,1.001-0.65c2.343-1.581,4.891-2.922,7.256-4.503
		c2.366-1.583,4.949-2.801,7.104-4.604c-1.972,0.774-3.692,1.858-5.504,2.852c-0.662,0.363-1.358,0.659-2.001,1.051
		c-0.636,0.387-1.299,0.765-1.951,1.101c-2.645,1.359-5.154,2.996-7.957,4.203c-0.028-0.198,0.236-0.317,0.351-0.4
		c1.179-0.853,2.577-1.651,3.853-2.502c4.357-2.906,9.277-5.358,13.41-8.456c-4.335,2.128-8.475,4.334-12.659,6.655
		c-1.896,1.051-3.87,2.379-6.055,3.202c1.265-1.17,2.85-1.91,4.304-2.852c1.451-0.94,2.936-1.831,4.402-2.752
		c2.94-1.844,5.975-3.52,8.707-5.554c-2.649,1.162-5.096,2.641-7.705,3.953c-1.133,0.569-2.18,1.287-3.303,1.852
		c-2.276,1.145-4.397,2.584-6.805,3.552c0.598-0.72,1.455-1.238,2.251-1.701c0.831-0.484,1.69-0.943,2.502-1.451
		c0.241-0.15,0.412-0.389,0.65-0.55c0.931-0.63,1.974-1.151,2.952-1.751c0.961-0.589,1.956-1.15,2.902-1.751
		c1.914-1.217,3.903-2.279,5.654-3.653c-2.425,0.962-4.61,2.3-6.855,3.453c-1.133,0.582-2.231,1.205-3.353,1.801
		c-2.501,1.331-4.944,2.982-7.756,4.103c1.797-1.479,3.894-2.583,5.905-3.803c0.883-0.536,1.702-1.175,2.601-1.702
		c0.906-0.53,1.77-1.101,2.652-1.651c1.766-1.101,3.617-2.046,5.203-3.353c-1.947,0.813-3.739,1.865-5.555,2.802
		c-1.371,0.708-2.678,1.485-4.053,2.201c-0.443,0.231-0.811,0.551-1.25,0.801c-0.981,0.557-2.055,0.998-3.053,1.551
		c-1.003,0.556-1.975,1.193-3.102,1.501c1.148-1.029,2.695-1.84,4.153-2.752c1.816-1.135,3.524-2.218,5.254-3.302
		c0.328-0.206,0.725-0.363,1.101-0.601c0.442-0.279,1.89-0.983,1.901-1.451c0.013-0.467-1.095-0.992-1.501-1.251
		c-1.733-1.102-3.544-1.975-5.054-3.202c-5.17-3.05-10.332-6.177-15.361-9.407c-0.843-0.542-1.713-1.054-2.552-1.602
		C1.546,41.806,0.581,41.396,0,40.58c1.327,0.544,2.62,1.206,3.853,1.901c3.625,2.045,7.354,4.062,11.158,6.004
		c-0.393-0.551-1.01-0.947-1.602-1.301c-1.808-1.082-3.649-2.25-5.453-3.453c-2.397-1.599-5.092-2.807-7.156-4.704
		c5.525,2.532,10.381,5.733,15.862,8.306c-1.62-1.457-3.705-2.471-5.654-3.753c-1.856-1.22-3.867-2.454-5.854-3.603
		c-0.652-0.377-1.25-0.894-1.901-1.251c-0.663-0.364-1.342-0.679-1.751-1.301c2.913,1.143,5.467,2.854,8.156,4.253
		c2.698,1.404,5.33,2.896,8.105,4.253c-0.373-0.683-1.197-0.876-1.801-1.301c-1.826-1.282-3.82-2.452-5.755-3.703
		c-1.921-1.242-3.931-2.313-5.904-3.553c-0.61-0.383-1.282-0.767-1.701-1.351c1.506,0.503,2.841,1.323,4.203,2.051
		c1.353,0.723,2.692,1.49,4.054,2.202c2.693,1.41,5.288,3.058,8.155,4.303c-2.343-1.847-5.147-3.376-7.806-5.054
		c-2.003-1.265-4.006-2.52-6.055-3.703c-0.65-0.375-1.315-0.819-1.801-1.401c0.83,0.193,1.568,0.65,2.301,1.051
		c4.964,2.711,9.874,5.487,15.061,8.056c-1.206-1.049-2.69-1.798-4.103-2.702c-2.769-1.773-5.61-3.509-8.457-5.254
		c-0.701-0.43-1.389-0.938-2.102-1.351c-0.7-0.406-1.523-0.715-1.951-1.451c1.589,0.63,3.034,1.543,4.504,2.352
		c4.379,2.41,8.784,4.806,13.31,7.155c-1.915-1.795-4.846-3.173-7.255-4.753c-1.972-1.293-3.998-2.461-5.905-3.703
		c-0.911-0.618-1.979-1.202-2.952-1.851c-0.277-0.185-0.729-0.375-0.75-0.75c2.702,1.249,5.246,2.718,7.805,4.153
		c2.549,1.429,5.177,2.729,7.756,4.153c0.554,0.305,0.986,0.814,1.652,0.9c-1.021-1.138-2.582-1.821-3.953-2.702
		c-1.391-0.893-2.787-1.784-4.153-2.602c-1.384-0.868-2.774-1.729-4.153-2.602c-0.661-0.397-1.362-0.877-2.051-1.301
		c-0.688-0.423-1.441-0.831-1.852-1.401c2.336,1.031,4.555,2.254,6.754,3.503c3.558,2.018,7.268,4.089,11.01,6.004
		c-0.111-0.374-0.769-0.631-1.152-0.901c-0.391-0.31-0.787-0.613-1.301-0.8c-2.258-1.678-4.781-3.065-7.205-4.604
		c-1.207-0.766-2.441-1.489-3.652-2.252c-1.188-0.747-2.539-1.358-3.453-2.452c6.047,2.86,11.413,6.4,17.413,9.307
		C19.38,33.742,13.328,30.77,8.056,27.02C8.001,27.008,8.021,26.92,7.956,26.92z"/>
</g>
<g id="Layer_1">
</g>
</svg>
