<?xml version="1.0" encoding="iso-8859-1"?>
<!-- Generator: Adobe Illustrator 21.0.2, SVG Export Plug-In . SVG Version: 6.00 Build 0)  -->
<svg version="1.1" xmlns="http://www.w3.org/2000/svg" xmlns:xlink="http://www.w3.org/1999/xlink" x="0px" y="0px"
	 viewBox="0 0 27.533 32.965" style="enable-background:new 0 0 27.533 32.965;" xml:space="preserve">
<g id="Kemper_x5F_Corporation">
	<path d="M0.167,0c9.121,0.02,18.243,0.056,27.365,0.097c-0.368,0.374-0.676,0.799-1.023,1.192
		C18.076,1.264,9.642,1.214,1.209,1.202C1.559,1.635,1.917,2.063,2.28,2.487c7.717,0.036,15.435,0.045,23.152,0.094
		c-0.349,0.429-0.709,0.848-1.06,1.276c-6.996-0.02-13.994-0.061-20.991-0.068c0.342,0.439,0.706,0.86,1.062,1.288
		c6.287,0.022,12.574,0.036,18.86,0.072c-0.371,0.424-0.702,0.895-1.099,1.288C16.647,6.409,11.088,6.392,5.53,6.377
		c0.344,0.432,0.704,0.851,1.052,1.281c4.855,0.026,9.711-0.015,14.566,0.044c-0.368,0.412-0.696,0.865-1.074,1.266
		c-4.129-0.003-8.27-0.027-12.404-0.03c0.367,0.426,0.687,0.907,1.096,1.287c3.41,0.032,6.822,0.001,10.231,0.051
		c-0.346,0.434-0.708,0.857-1.075,1.273c-2.709-0.008-5.418-0.02-8.128-0.021c0.328,0.433,0.689,0.839,1.021,1.268
		c2.013,0.037,4.027,0.021,6.041,0.04c-0.345,0.437-0.716,0.854-1.067,1.287c-1.301,0-2.601-0.013-3.902-0.005
		c0.343,0.424,0.698,0.837,1.047,1.256c0.595,0.005,1.19,0,1.785,0.012c-0.243,0.462-1.223,0.953-0.606,1.451
		c4.398,5.392,8.855,10.736,13.253,16.129C18.245,32.956,9.122,32.898,0,32.878C0.018,21.918,0.091,10.959,0.167,0z"/>
</g>
<g id="Layer_1">
</g>
</svg>
