<?xml version="1.0" encoding="iso-8859-1"?>
<!-- Generator: Adobe Illustrator 19.2.0, SVG Export Plug-In . SVG Version: 6.00 Build 0)  -->
<svg version="1.1" xmlns="http://www.w3.org/2000/svg" xmlns:xlink="http://www.w3.org/1999/xlink" x="0px" y="0px"
	 viewBox="0 0 77.36 67.859" style="enable-background:new 0 0 77.36 67.859;" xml:space="preserve">
<g id="Kenichi_x5F_Hiroses_x5F_Design_x5F_Office">
	<path style="fill-rule:evenodd;clip-rule:evenodd;" d="M38.747,31.439c0.39-0.289,0.478-0.804,0.622-1.196
		c1.43-3.877,4.16-6.755,8.804-7.56c1.091-0.189,2.168-0.036,3.253-0.383c1.757-0.562,2.98-1.931,3.493-3.78
		c0.567-2.043,0.322-4.559,0.335-6.842c0.012-2.282,0.621-4.145,1.483-5.79c1.6-3.051,4.565-5.293,8.804-5.694
		c4.796-0.453,7.839,2.042,9.809,4.641c1.019,1.344,1.779,3.09,1.962,5.311c0.18,2.197-0.152,4.278-0.957,6.077
		c-1.444,3.229-4.312,5.594-8.182,6.364c-2.075,0.412-4.675,0.239-7.034,0.239c-2.421,0-3.836,0.772-4.928,2.296
		c-1.175,1.746-0.938,4.69-0.861,7.464c0.038,1.357-0.005,2.666,0,3.971c0.006,1.449-0.16,3.475,0.191,4.641
		c0.421,1.4,1.454,2.626,2.68,3.254c1.374,0.704,3.167,0.67,5.263,0.67c2.188,0,3.948-0.028,5.551,0.383
		c1.477,0.378,2.799,1.069,3.923,1.961c2.165,1.718,3.949,4.416,4.307,7.56c0.451,3.972-0.945,6.692-2.728,8.995
		c-1.95,2.166-4.479,3.688-8.038,3.828c-3.569,0.14-6.333-1.37-8.229-3.493c-0.902-1.01-1.773-2.281-2.297-3.637
		c-0.562-1.454-0.671-3.08-0.766-5.167c-0.091-2.011,0.175-4.007-0.144-5.599c-0.293-1.466-1.208-2.888-2.249-3.636
		c-1.235-0.887-3.046-0.799-4.833-1.148c-4.33-0.846-7.361-3.823-8.708-7.656c-0.113-0.321-0.161-0.752-0.478-1.005
		c-0.431,0.142-0.472,0.666-0.574,0.957c-1.365,3.898-4.227,6.979-8.804,7.751c-1.037,0.175-1.943,0.137-2.728,0.288
		c-2.345,0.449-4.024,2.125-4.402,4.641c-0.252,1.675-0.048,3.566-0.048,5.693c0,4.047-1.401,6.656-3.35,8.708
		c-1.938,2.043-5.152,3.552-8.756,3.11c-1.887-0.231-3.166-0.701-4.498-1.531c-1.217-0.759-2.351-1.672-3.206-2.823
		c-1.57-2.114-2.902-5.738-2.01-9.378c1.109-4.525,4.234-7.972,9.33-8.756c1.818-0.28,3.899-0.143,5.885-0.143
		c3.92,0,6.341-1.769,6.507-5.551c0.088-2.011,0-4.066,0-6.028c0-2.006,0.138-4.071-0.096-5.933
		c-0.207-1.651-1.146-2.986-2.249-3.78c-1.253-0.901-2.824-0.972-4.976-1.052c-2.145-0.08-4.16,0.157-5.742-0.191
		c-1.705-0.376-2.936-1.006-4.163-1.866c-2.249-1.576-4.104-3.959-4.737-7.32c-0.694-3.687,0.696-7.26,2.44-9.331
		c1.913-2.271,4.751-3.89,8.229-3.971c4.021-0.094,7.025,1.977,8.804,4.21c1.018,1.279,1.686,2.669,2.106,4.402
		c0.407,1.679,0.409,3.766,0.478,5.981c0.077,2.447-0.016,4.042,1.005,5.502c0.839,1.201,2.061,2.158,4.115,2.345
		c3.928,0.356,6.65,1.554,8.756,4.21c0.938,0.937,1.464,2.205,2.01,3.588C38.285,30.648,38.429,31.128,38.747,31.439z"/>
</g>
<g id="Layer_1">
</g>
</svg>
