<?xml version="1.0" encoding="iso-8859-1"?>
<!-- Generator: Adobe Illustrator 19.2.0, SVG Export Plug-In . SVG Version: 6.00 Build 0)  -->
<svg version="1.1" xmlns="http://www.w3.org/2000/svg" xmlns:xlink="http://www.w3.org/1999/xlink" x="0px" y="0px"
	 viewBox="0 0 56.717 77.441" style="enable-background:new 0 0 56.717 77.441;" xml:space="preserve">
<g id="Key_x5F_Sabinal_x5F_70">
	<path style="fill-rule:evenodd;clip-rule:evenodd;" d="M43.01,27.506c-0.273-0.4-0.139-0.904-0.146-1.312
		c-0.05-3.254-0.92-5.634-2.284-7.679c-2.355-3.532-5.501-5.642-10.352-6.707c-5.364-1.178-10.346,0.679-13.17,3.208
		c-1.359,1.272-2.789,3.057-3.305,5.249c-0.58,2.462-0.18,5.251,0.875,7.047c2.132,3.632,6.626,4.566,11.664,5.394
		c5.071,0.834,10.262,1.126,14.871,2.188c4.488,1.033,8.184,3.363,10.838,6.22c2.739,2.949,4.788,7.001,4.714,12.247
		c-0.072,5.139-1.812,9.571-4.082,12.976c-2.224,3.335-5.34,6.073-8.991,8.068c-2.73,1.491-5.92,2.636-9.914,2.916
		c-1.269,0.089-2.625,0.243-3.985-0.048c-0.259-0.885-0.146-1.901-0.146-2.916c0-1.959,0-4.018,0-6.026
		c0-0.996-0.111-1.997,0.146-2.867c5.023-0.035,8.464-2.004,10.837-4.714c2.414-2.756,3.83-6.617,4.083-11.469
		c0.893-0.581,2.19-0.511,3.402-0.729c1.198-0.215,2.443-0.32,3.402-0.729c-2.006-0.732-4.989-0.487-6.95-1.264
		c-0.396-1.986-0.827-3.936-1.993-5.151c-1.29-1.413-4.316-2.069-6.463-0.827c-1.339,0.775-2.307,2.028-2.722,3.742
		c-0.135,0.556-0.102,1.165-0.389,1.75c-0.962,0.316-1.96,0.046-2.916-0.048c-6.833-0.674-13.418-1.531-18.176-4.325
		c-5.468-3.212-9.339-7.836-10.4-15.309C0.279,18.083,4.057,11.707,8.019,7.483c2.153-2.295,4.768-3.893,7.679-5.2
		c4.407-1.979,10.596-2.806,16.669-1.944c5.62,0.798,9.871,2.867,13.414,5.637c4.788,3.745,8.245,8.782,9.088,16.183
		c-0.258,0.476-0.85,0.677-1.312,0.875c-2.465,1.057-5.011,2.221-7.533,3.256C45.011,26.707,44.077,27.329,43.01,27.506z"/>
	<path style="fill-rule:evenodd;clip-rule:evenodd;" d="M12.539,42.669c0.032,0,0.065,0,0.097,0c0.26,0.665,0.037,1.387,0,2.041
		c-0.285,5.115,1.184,9.772,3.159,12.976c2.363,3.833,5.846,6.622,11.081,7.436c0.176,2.812,0.097,6.049,0.097,9.088
		c0,0.996,0.117,1.995-0.146,2.868c-1.024,0.066-2.054-0.139-3.013-0.291c-4.877-0.779-8.891-2.691-12.247-5.103
		c-1.352-0.972-2.694-2.062-3.742-3.208C3.362,63.601,0.878,56.843,0,48.598c0.263-0.53,0.938-0.651,1.41-0.875
		C5.002,46.021,8.897,44.377,12.539,42.669z"/>
	<path style="fill-rule:evenodd;clip-rule:evenodd;" d="M39.948,43.932c2.108-0.544,2.043,3.156-0.097,2.527
		c-0.573-0.253-0.987-0.666-0.923-1.555C39.134,44.446,39.402,44.05,39.948,43.932z"/>
</g>
<g id="Layer_1">
</g>
</svg>
