<?xml version="1.0" encoding="iso-8859-1"?>
<!-- Generator: Adobe Illustrator 19.2.0, SVG Export Plug-In . SVG Version: 6.00 Build 0)  -->
<svg version="1.1" xmlns="http://www.w3.org/2000/svg" xmlns:xlink="http://www.w3.org/1999/xlink" x="0px" y="0px"
	 viewBox="0 0 86.21 62.959" style="enable-background:new 0 0 86.21 62.959;" xml:space="preserve">
<g id="Key_x5F_Services">
	<path style="fill-rule:evenodd;clip-rule:evenodd;" d="M83.212,0.146c-0.065,0.492-0.511,0.822-0.827,1.137
		c-7.359,7.36-14.692,14.885-22.172,22.276c-0.332,0.328-0.55,0.743-0.878,1.085c-1.855,1.931-3.879,3.711-5.789,5.789
		c-0.318,0.346-0.871,0.818-0.879,1.034c-0.014,0.379,0.955,1.162,1.344,1.55c1.411,1.412,2.989,3.048,4.238,4.393
		c5.56,5.986,11.372,11.644,16.953,17.521c1.34,1.21,2.487,2.612,3.824,3.825c0.89,0.971,1.83,1.985,2.791,2.946
		c0.299,0.298,0.788,0.551,0.775,1.034c-0.36,0.208-1.079,0.058-1.602,0.104c-6.553-6.299-12.818-12.921-19.331-19.433
		c-2.633-2.633-4.901-5.211-7.598-7.908c-0.9-0.899-1.885-1.885-2.894-2.894c-0.321-0.321-0.87-0.762-0.879-1.034
		c-0.017-0.498,1.358-1.627,1.809-2.119c1.858-2.03,4.053-3.903,5.84-5.84c1.239-1.343,2.473-2.732,3.773-4.032
		C68.178,13.113,74.488,6.46,81.093,0.094C81.885,0.141,82.572-0.023,83.212,0.146z"/>
	<path style="fill-rule:evenodd;clip-rule:evenodd;" d="M86.21,0.146c-0.065,0.492-0.515,0.825-0.827,1.137
		c-4.784,4.785-9.596,9.752-14.42,14.575c-5.16,5.16-10.357,10.283-15.299,15.661c0.42,0.822,1.131,1.428,1.757,2.067
		c1.875,1.912,3.651,3.96,5.582,5.892c5.069,5.069,9.945,10.358,15.04,15.454c2.225,2.225,4.367,4.523,6.615,6.771
		c0.269,0.269,0.717,0.579,0.724,1.034c-0.365,0.152-1.168,0.141-1.603,0.052c-0.876-0.39-1.377-1.223-2.016-1.861
		c-0.645-0.646-1.308-1.275-1.964-1.912c-1.205-1.362-2.519-2.615-3.772-3.928c-2.592-2.56-5.062-5.242-7.649-7.805
		c-2.5-2.651-5.074-5.229-7.649-7.804c-0.649-0.65-1.167-1.425-1.809-2.067c-1.897-1.897-3.831-3.833-5.634-5.892
		c1.062-1.557,2.586-2.651,3.825-4.031c3.846-3.959,7.624-7.985,11.629-11.785c2.382-2.494,4.902-5.005,7.753-7.856
		c1.934-1.934,3.814-3.864,5.841-5.892c0.554-0.555,1.607-1.806,2.222-1.913C85.182-0.066,85.704,0.056,86.21,0.146z"/>
	<path style="fill-rule:evenodd;clip-rule:evenodd;" d="M68.12,0.197c-0.049,0.615-0.656,0.967-1.033,1.344
		c-2.829,2.829-5.773,5.822-8.528,8.787c-2.913,2.861-5.772,5.772-8.683,8.683c-0.391,0.391-0.751,0.943-1.344,1.085
		c-0.272-1.283-0.155-2.628-0.155-3.979c0-4.092,0.031-8.231,0.052-12.146c0.007-1.223-0.218-2.564,0.104-3.722
		c0.379-0.178,1.1-0.11,1.447,0.052c0.287,4.897-0.086,10.767,0.207,15.815c0.539-0.021,0.799-0.569,1.137-0.878
		c2.431-2.225,4.611-4.612,7.029-7.029c0.328-0.328,0.718-0.627,1.034-0.982c0.319-0.359,0.536-0.787,0.878-1.137
		c1.355-1.384,2.575-2.575,4.032-4.031c0.563-0.563,1.571-1.758,2.119-1.912C66.961-0.008,67.619,0.084,68.12,0.197z"/>
	<path style="fill-rule:evenodd;clip-rule:evenodd;" d="M71.066,0.197c-0.251,0.735-0.938,1.186-1.447,1.706
		c-2.532,2.587-5.125,5.284-7.753,7.856c-1.056,1.034-2.005,2.16-3.049,3.204c-3.888,3.888-7.67,7.926-11.681,11.733
		c-0.236,0.224-0.472,0.632-0.878,0.568c-0.171-8.339-0.177-16.83,0-25.016c0.355-0.153,1.267-0.188,1.55,0.052
		c0.337,6.767,0.005,13.802,0.207,20.829c0.667-0.051,1.033-0.723,1.447-1.137c3.079-3.078,6.232-5.977,9.303-9.251
		c2.933-3.127,6.004-6.262,9.148-9.407C68.767,0.482,69.423-0.281,71.066,0.197z"/>
	<path style="fill-rule:evenodd;clip-rule:evenodd;" d="M74.115,0.197c-0.365,0.851-1.126,1.416-1.757,2.016
		c-0.646,0.613-1.245,1.27-1.86,1.913c-3.321,3.245-6.514,6.617-9.82,9.923c-0.233,0.233-0.514,0.425-0.724,0.672
		c-0.208,0.246-0.344,0.574-0.568,0.827c-0.578,0.65-1.276,1.224-1.913,1.86c-4.057,4.058-8.16,8.212-12.249,12.301
		c-0.308,0.308-0.61,0.721-1.085,0.775c-0.17-10.166-0.182-20.246,0-30.184c0.248-0.231,1.078-0.206,1.396-0.052
		c0.275,1.525,0.155,3.133,0.155,4.704c0,7.467-0.03,14.659,0.104,21.449c0.788-0.234,1.206-0.999,1.757-1.551
		c3.833-3.834,7.617-7.482,11.525-11.474c0.285-0.29,0.464-0.607,0.724-0.93c0.702-0.873,1.679-1.632,2.481-2.481
		c2.649-2.802,5.332-5.435,8.167-8.269C71.442,0.7,72.145-0.386,74.115,0.197z"/>
	<path style="fill-rule:evenodd;clip-rule:evenodd;" d="M76.958,0.197c-0.365,0.871-1.171,1.43-1.808,2.067
		C69.395,8.02,63.714,13.958,57.887,19.786c-3.231,3.231-6.289,6.341-9.613,9.665c-0.47,0.47-1.795,1.54-1.809,2.016
		c-0.011,0.397,0.932,1.218,1.344,1.602c1.496,1.395,3.056,3.004,4.393,4.342c1.989,1.989,4.001,3.898,5.893,5.789
		c0.979,0.979,1.868,2.023,2.842,2.998c2.894,2.893,5.773,5.848,8.735,8.735c2.217,2.254,4.553,4.501,6.822,6.771
		c0.284,0.285,0.765,0.607,0.724,1.085c-1.516,0.381-2-0.242-2.843-1.085c-2.861-2.862-5.82-5.717-8.631-8.528
		c-3.359-3.359-6.549-6.722-9.717-9.923c-3.444-3.356-6.835-6.783-10.337-10.285c-0.441-0.441-1.37-1.101-1.395-1.499
		c-0.035-0.553,1.527-1.704,1.861-2.067c4.301-4.698,9.185-9.044,13.49-13.697C64.792,10.48,69.88,5.196,75.201,0.146
		C75.691,0.084,76.549,0.017,76.958,0.197z"/>
	<path style="fill-rule:evenodd;clip-rule:evenodd;" d="M79.904,0.197c-0.123,0.665-0.756,1.021-1.188,1.447
		c-3.018,2.97-5.958,6.216-8.993,9.252c-2.589,2.622-5.25,5.165-7.805,7.856c-0.842,0.887-1.858,1.656-2.481,2.739
		c-2.926,2.755-5.733,5.773-8.631,8.735c-0.374,0.381-1.126,0.914-1.137,1.292c-0.015,0.519,1.332,1.59,1.809,2.067
		c3.21,3.21,6.294,6.501,9.51,9.717c1.296,1.296,2.625,2.576,3.825,3.876c2.479,2.687,5.238,5.098,7.649,7.752
		c2.12,2.335,4.417,4.521,6.667,6.771c0.293,0.293,0.718,0.623,0.724,1.085c-0.408,0.108-1.008,0.026-1.499,0.052
		C72.99,57.685,67.833,52.631,62.59,47.282c-3.896-3.974-7.587-7.903-11.681-11.784c-0.936-0.887-1.911-1.911-2.946-2.946
		c-0.356-0.356-0.877-0.765-0.879-1.034c-0.002-0.418,1.03-1.237,1.447-1.654c2.614-2.614,5.122-5.226,7.701-7.805
		c0.518-0.517,1.056-1.019,1.55-1.55c0.498-0.535,1.088-0.968,1.551-1.499c0.382-0.439,0.663-0.885,1.085-1.292
		c4.34-4.181,8.525-8.525,12.87-12.87c1.086-1.086,2.329-2.329,3.515-3.515c0.52-0.52,0.846-1.009,1.396-1.24
		C78.762,0.134,79.502-0.003,79.904,0.197z"/>
	<path style="fill-rule:evenodd;clip-rule:evenodd;" d="M43.415,0.249c0.278,5.16,0.155,10.455,0.155,15.712
		c0,15.174,0.052,29.781,0.052,45.172c0,0.57,0.132,1.245-0.206,1.757c-0.329,0.09-0.908,0.069-1.241,0
		c-0.236-1.226-0.155-2.501-0.155-3.773c0-14.258-0.052-29.401-0.052-43.416c0-3.991,0.024-7.901,0.052-11.784
		c0.009-1.216-0.238-2.477,0.104-3.67C42.392,0.08,43.141,0.104,43.415,0.249z"/>
	<path style="fill-rule:evenodd;clip-rule:evenodd;" d="M34.267,31.519c-0.475,0.804-1.202,1.43-1.86,2.067
		c-4.565,4.42-8.974,9.196-13.49,13.748c-3.8,3.933-7.628,7.938-11.526,11.836c-0.977,0.977-1.896,1.947-2.895,2.946
		c-0.282,0.283-0.611,0.75-1.085,0.724c0.015-0.481,0.497-0.789,0.775-1.085c2.113-2.253,4.384-4.604,6.667-6.771
		c2.269-2.154,4.457-4.544,6.616-6.874c0.308-0.332,0.61-0.661,0.93-0.982c2.499-2.5,5.012-5.319,7.649-7.753
		c2.229-2.057,4.399-4.502,6.667-6.771c0.313-0.313,0.87-0.79,0.878-1.034c0.014-0.384-1.51-1.769-1.809-2.067
		c-1.913-1.914-3.917-3.932-5.737-5.789c-2.516-2.566-5.307-5.106-7.701-7.701c-1.193-1.293-2.422-2.681-3.721-3.98
		c-3.23-3.229-6.263-6.366-9.562-9.665C4.382,1.686,3.66,0.996,3.204,0.353c0.01-0.042,0.052-0.051,0.052-0.103
		c0.042-0.01,0.052-0.052,0.104-0.052c0.034,0,0.069,0,0.103,0C8.842,5.173,13.739,10.63,18.917,15.806
		c2.593,2.593,5.108,5.264,7.701,7.856C29.202,26.247,31.793,28.824,34.267,31.519z"/>
	<path style="fill-rule:evenodd;clip-rule:evenodd;" d="M37.471,31.467c-0.475,0.825-1.252,1.407-1.912,2.067
		c-4.538,4.537-9.17,9.169-13.748,13.748c-1.311,1.311-2.556,2.734-3.928,3.979c-0.682,0.62-1.243,1.346-1.913,2.016
		c-2.913,2.913-5.872,5.908-8.838,8.838c-0.299,0.295-0.625,0.787-1.137,0.724c0.112-0.463,0.506-0.816,0.827-1.137
		c2.22-2.22,4.561-4.509,6.822-6.771c2.584-2.584,5.065-5.272,7.649-7.856c3.882-3.881,7.781-7.729,11.681-11.629
		c1.292-1.292,2.674-2.495,3.825-3.928c-0.456-0.809-1.223-1.377-1.861-2.016c-1.901-1.901-3.814-3.892-5.789-5.789
		c-3.824-3.782-7.54-7.769-11.526-11.629c-0.483-0.468-0.906-1.01-1.395-1.499c-2.869-2.868-5.697-5.741-8.631-8.734
		C7.101,1.345,6.364,0.793,6.202,0.301c-0.01-0.044,0.02-0.049,0.051-0.052c0.042-0.01,0.052-0.052,0.103-0.052
		c0.035,0,0.069,0,0.104,0c5.391,4.998,10.31,10.466,15.505,15.661C27.152,21.044,32.411,26.155,37.471,31.467z"/>
	<path style="fill-rule:evenodd;clip-rule:evenodd;" d="M39.694,30.485c0.212-2.342,0.104-4.857,0.103-7.391
		c0-7.021,0-14.085,0-21.087c0-0.552-0.169-1.236,0.207-1.705c0.37,0.342,0.207,1.17,0.207,1.809
		c-0.002,17.13,0.103,35.365,0.103,52.925c0,1.98-0.052,3.903-0.052,5.943c0,0.576,0.13,1.258-0.155,1.809
		c-0.45-0.237-0.258-1.088-0.258-1.706c0-9.4,0.086-19.408-0.104-28.684c-0.508-0.027-0.791,0.481-1.085,0.775
		c-2.196,2.195-4.505,4.459-6.719,6.719c-4.44,4.53-8.98,8.98-13.49,13.49c-0.319,0.318-0.656,0.618-0.982,0.93
		c-0.325,0.311-0.574,0.703-0.878,1.034c-1.83,1.984-3.808,3.859-5.737,5.789c-0.31,0.31-0.658,0.618-0.982,0.931
		c-0.317,0.305-0.632,0.779-1.137,0.775c-0.089-0.508,0.576-0.695,0.775-1.085c7.48-7.439,14.784-15.057,22.328-22.431
		c2.248-2.204,4.504-4.504,6.823-6.822c0.253-0.253,0.862-0.772,0.878-1.034c0.031-0.495-1.513-1.771-1.809-2.067
		c-1.93-1.93-3.884-3.858-5.789-5.737C26.858,18.347,21.258,13.176,16.177,7.64c-1.779-1.938-3.756-3.808-5.737-5.789
		C9.92,1.331,9.29,0.853,9.045,0.353C9.03,0.269,9.093,0.264,9.096,0.197c0.633,0.145,1.527,1.263,2.119,1.809
		c1.96,1.809,3.911,4.012,5.686,5.685C17.7,8.786,18.72,9.693,19.64,10.69c1.798,1.948,3.783,3.783,5.685,5.686
		c3.765,3.765,7.593,7.594,11.371,11.422c0.473,0.479,0.98,0.89,1.447,1.395C38.584,29.67,39.028,30.285,39.694,30.485z"/>
	<path style="fill-rule:evenodd;clip-rule:evenodd;" d="M37.471,25.213c0.331-0.402,0.207-0.97,0.207-1.447
		c0-1.558-0.043-3.161-0.052-4.755c-0.029-5.761,0.02-11.637,0.052-17.418c0.002-0.443-0.205-0.975,0.155-1.344
		c0.449,0.332,0.258,0.996,0.258,1.447c0.001,8.036,0.144,16.55-0.052,24.757c-0.726-0.282-1.181-0.974-1.706-1.499
		c-3.767-3.768-7.582-7.531-11.422-11.371c-3.172-3.173-6.409-6.588-9.613-9.924c-1.078-1.122-2.351-2.2-3.256-3.308
		c0.01-0.042,0.052-0.051,0.051-0.103c0.042-0.01,0.052-0.052,0.104-0.052c0.403,0.067,1.087,0.827,1.551,1.292
		c0.509,0.512,1.001,0.949,1.396,1.344c0.964,0.964,1.79,1.997,2.636,2.843c5.505,5.505,11.025,11.082,16.436,16.539
		c0.59,0.46,1.078,1.025,1.602,1.55C36.325,24.274,36.761,24.917,37.471,25.213z"/>
	<path style="fill-rule:evenodd;clip-rule:evenodd;" d="M35.249,20.096c0.323-0.547,0.207-1.252,0.207-1.86
		c0-5.472-0.121-11.164-0.052-16.642c0.005-0.41-0.025-0.928,0.207-1.292c0.45,0.396,0.21,1.411,0.207,2.016
		c-0.024,6.088,0.205,12.892-0.052,18.969c-0.934-0.562-1.611-1.457-2.377-2.223c-3.749-3.749-7.627-7.576-11.422-11.371
		c-1.519-1.519-3.087-3.021-4.548-4.548c-0.177-0.185-0.362-0.575-0.568-0.827c-0.583-0.711-1.627-1.311-1.861-2.016
		c0.038-0.048,0.094-0.078,0.155-0.103c0.044-0.009,0.048,0.02,0.051,0.052c1.045,0.613,1.702,1.649,2.533,2.481
		c4.936,4.937,9.841,10.132,14.937,14.989C33.507,18.522,34.264,19.441,35.249,20.096z"/>
	<path style="fill-rule:evenodd;clip-rule:evenodd;" d="M33.078,14.98c0.28-0.542,0.211-1.394,0.207-2.067
		c-0.021-3.565,0.058-7.818-0.052-11.319c-0.013-0.42-0.093-0.946,0.207-1.292c0.452,0.264,0.259,1.161,0.259,1.809
		c0,4.555,0.048,9.719-0.052,14.058c-0.484-0.109-0.811-0.553-1.137-0.878c-0.962-0.962-1.992-1.958-2.946-2.998
		c-3.466-3.291-6.768-7.011-10.389-10.389c-0.458-0.428-1.212-1.171-1.396-1.602c-0.01-0.044,0.02-0.049,0.052-0.052
		c0.042-0.01,0.051-0.052,0.103-0.052c0.035,0,0.069,0,0.104,0c4.47,4.215,8.712,8.659,13.077,13.025
		C31.728,13.837,32.268,14.597,33.078,14.98z"/>
	<path style="fill-rule:evenodd;clip-rule:evenodd;" d="M8.476,55.19c-2.166,2.342-4.472,4.511-6.668,6.875
		c-0.287,0.308-0.598,0.825-1.137,0.775c0.319-0.956,1.229-1.32,1.757-2.067c4.769-4.786,9.257-9.721,14.11-14.575
		c0.591-0.59,1.122-1.28,1.706-1.912c2.876-3.116,5.912-5.901,8.838-9.097c0.505-0.552,1.171-1.12,1.809-1.757
		c0.443-0.443,1.644-1.49,1.654-1.912c0.011-0.484-1.375-1.53-1.861-2.016c-3.275-3.276-6.306-6.41-9.561-9.665
		c-1.306-1.306-2.52-2.675-3.773-3.928C10.875,11.434,6.449,6.905,1.912,2.368C1.242,1.698,0.404,1.112,0,0.404
		c0-0.052,0-0.104,0-0.155c0.034,0.001,0.069-0.002,0.103,0c0.621,0.036,1.664,1.353,2.119,1.809c3.291,3.29,6.482,6.453,9.665,9.82
		c1.258,1.331,2.68,2.487,3.928,3.824c4.778,5.124,9.527,9.734,14.523,14.731c0.439,0.439,0.871,0.873,0.878,1.034
		c0.017,0.388-0.949,1.207-1.344,1.602C22.625,40.318,15.609,47.889,8.476,55.19z"/>
	<path style="fill-rule:evenodd;clip-rule:evenodd;" d="M44.191,32.398c0.527,0.114,1.389,1.079,1.964,1.654
		c4.139,4.139,8.374,8.375,12.456,12.455c2.384,2.384,4.675,4.831,7.029,7.185c2.384,2.384,4.841,4.66,7.132,7.081
		c0.576,0.682,1.436,1.081,1.758,2.016c-1.948,0.592-2.628-0.518-3.67-1.498c-1.715-1.615-3.41-3.373-4.961-5.014
		c-1.084-1.146-2.272-2.176-3.359-3.308c-0.804-0.837-1.695-1.595-2.533-2.43c-0.275-0.273-0.449-0.645-0.724-0.93
		c-4.111-4.279-8.313-8.261-12.508-12.456c-0.26-0.26-0.49-0.704-0.93-0.724c-0.334,8.751,0.149,18.008-0.207,26.411
		c-0.32,0.143-1.133,0.175-1.447,0c-0.206-2.479-0.104-5.031-0.104-7.598c0-7.557-0.096-15.432,0-22.689
		C44.131,32.51,44.118,32.411,44.191,32.398z"/>
	<path style="fill-rule:evenodd;clip-rule:evenodd;" d="M37.937,36.377c0.372,0.488,0.207,1.387,0.207,2.171
		c-0.001,5.421,0.033,10.946,0,16.332c-0.012,1.991,0,3.989,0,6.099c0,0.624,0.126,1.292-0.155,1.861
		c-0.501-0.232-0.316-0.943-0.31-1.344c0.107-7.215,0.02-16.314-0.103-23.93c-0.731,0.265-1.238,0.928-1.757,1.447
		c-7.408,7.408-14.88,14.983-22.328,22.431c-0.497,0.497-0.922,1.193-1.654,1.396c-0.179-0.416,0.357-0.667,0.569-0.878
		c1.847-1.848,3.882-3.86,5.633-5.84c6.639-6.558,13.17-13.225,19.847-19.744C37.902,36.377,37.919,36.377,37.937,36.377z"/>
	<path style="fill-rule:evenodd;clip-rule:evenodd;" d="M71.48,62.788c-1.469,0.504-2.152-0.343-2.894-1.085
		c-1.215-1.214-2.596-2.597-3.722-3.721c-1.695-1.613-3.218-3.397-5.014-4.91c-1.721-2.259-3.95-4.009-5.84-6.099
		c-1.005-0.976-1.934-2.029-2.998-2.946c-0.98-1.001-1.886-2.077-3.049-2.895c-0.28,0.829-0.155,1.743-0.155,2.636
		c0,6.398,0.119,12.834-0.103,19.072c-0.316,0.15-1.082,0.162-1.396,0c-0.157-6.892-0.183-13.138-0.103-19.795
		c0.021-1.818-0.062-3.621,0-5.375c0.029-0.074,0.081-0.126,0.155-0.155c0.935,0.646,2.444,2.207,3.256,3.101
		c1.035,1.139,2.232,2.128,3.205,3.101c5.316,5.316,10.345,10.5,15.661,15.815c0.785,0.785,1.594,1.498,2.377,2.326
		C71.098,62.11,71.434,62.408,71.48,62.788z"/>
	<path style="fill-rule:evenodd;clip-rule:evenodd;" d="M35.869,41.132c0.409,0.236,0.258,0.824,0.258,1.188
		c0,5.975,0,11.757,0,17.935c0,0.879,0.161,1.813-0.207,2.584c-0.415-0.188-0.258-0.758-0.258-1.085c0-4.725,0-9.703,0-14.368
		c0-1.748,0.123-3.494-0.155-5.117c-1.124,0.617-1.846,1.634-2.739,2.481c-5.204,5.236-10.416,10.465-15.661,15.66
		c-0.3,0.516-0.805,0.96-1.24,1.396c-0.403,0.402-0.826,1.026-1.447,1.034c0.237-0.766,0.937-1.195,1.447-1.706
		c0.533-0.533,0.981-1.123,1.499-1.706c0.692-0.778,1.543-1.491,2.326-2.274c4.514-4.515,9.118-9.067,13.696-13.645
		c0.815-0.815,1.578-1.694,2.429-2.378C35.835,41.132,35.852,41.132,35.869,41.132z"/>
	<path style="fill-rule:evenodd;clip-rule:evenodd;" d="M48.428,42.269c0.695,0.314,1.863,1.59,2.533,2.326
		c0.811,0.891,1.707,1.634,2.429,2.377c4.733,4.869,9.572,9.709,14.265,14.472c0.385,0.393,1.052,0.771,1.085,1.344
		c-0.672,0.098-1.383,0.215-1.964,0.052c-0.719-0.202-1.653-1.498-2.171-2.016c-0.794-0.794-1.476-1.443-2.119-2.067
		c-3.74-4.038-7.707-7.965-11.629-11.888c-0.22-0.22-0.43-0.651-0.827-0.62c-0.407,5.171,0.184,11.533-0.259,16.591
		c-0.317,0.154-1.147,0.18-1.395-0.052c-0.188-4.866-0.104-10.145-0.103-15.247c0-1.726-0.043-3.577,0.052-5.117
		C48.323,42.336,48.363,42.29,48.428,42.269z"/>
	<path style="fill-rule:evenodd;clip-rule:evenodd;" d="M33.802,46.197c0.042,0.01,0.051,0.052,0.103,0.052
		c0.161,4.631,0.098,10.688,0.052,15.454c-0.003,0.369,0.234,0.912-0.207,1.137c-0.371-0.37-0.207-0.98-0.207-1.447
		c0.001-4.557,0.108-9.7-0.155-13.955c-0.5,0.07-0.775,0.568-1.085,0.878c-4.197,4.197-8.478,8.53-12.714,12.766
		c-0.629,0.629-1.187,1.52-2.119,1.757c0.026-0.492,0.523-0.833,0.827-1.137c3.713-3.713,7.403-7.506,11.216-11.319
		c0.62-0.62,1.387-1.296,2.067-2.016C32.316,47.589,33.04,46.682,33.802,46.197z"/>
</g>
<g id="Layer_1">
</g>
</svg>
