<?xml version="1.0" encoding="iso-8859-1"?>
<!-- Generator: Adobe Illustrator 21.0.2, SVG Export Plug-In . SVG Version: 6.00 Build 0)  -->
<svg version="1.1" xmlns="http://www.w3.org/2000/svg" xmlns:xlink="http://www.w3.org/1999/xlink" x="0px" y="0px"
	 viewBox="0 0 29.978 36.441" style="enable-background:new 0 0 29.978 36.441;" xml:space="preserve">
<g id="Keystone_x5F_Capital">
	<path d="M0.058,0c2.013,1.87,4.036,3.73,6.046,5.603c0.247,0.19,0.148,0.523,0.169,0.791c-0.036,8.032-0.001,16.067-0.047,24.099
		c-1.962,2.068-4.178,3.932-6.214,5.948C-0.019,24.295,0.013,12.147,0.058,0z"/>
	<path d="M12.34,12.08c3.29-3.315,6.635-6.577,9.901-9.919c2.579-0.016,5.158,0.028,7.737,0.043
		c-4.568,4.615-9.206,9.157-13.773,13.773C14.854,14.744,13.636,13.371,12.34,12.08z"/>
	<path d="M12.324,24.383c1.288-1.246,2.57-2.498,3.864-3.739c4.546,4.681,9.197,9.252,13.721,13.954
		c-2.48,0.025-4.961,0.005-7.44,0.011c-0.323,0.043-0.531-0.224-0.724-0.432C18.666,30.853,15.398,27.71,12.324,24.383z"/>
</g>
<g id="Layer_1">
</g>
</svg>
