<?xml version="1.0" encoding="iso-8859-1"?>
<!-- Generator: Adobe Illustrator 19.2.0, SVG Export Plug-In . SVG Version: 6.00 Build 0)  -->
<svg version="1.1" xmlns="http://www.w3.org/2000/svg" xmlns:xlink="http://www.w3.org/1999/xlink" x="0px" y="0px"
	 viewBox="0 0 79.552 78.536" style="enable-background:new 0 0 79.552 78.536;" xml:space="preserve">
<g id="Kicken_x5F_Investments">
	<path style="fill-rule:evenodd;clip-rule:evenodd;" d="M25.345,0.152c0.268,0.462,0.147,1.035,0.152,1.527
		c0.179,17.249-0.031,34.09,0,51.051c-0.872,1.226-2.057,2.188-3.106,3.258c-5.183,5.288-10.605,10.503-15.88,15.778
		c-1.835,1.835-3.69,3.639-5.548,5.497c-0.221,0.221-0.447,0.687-0.865,0.61C-0.086,53.4,0.045,29.558,0.048,4.733
		c0-0.752,0.037-1.489,0-2.342c-0.035-0.806-0.08-2.148,0.203-2.29C0.288,0.054,0.344,0.024,0.404,0
		C8.768,0.12,17.294-0.043,25.345,0.152z"/>
	<path style="fill-rule:evenodd;clip-rule:evenodd;" d="M77.719,0.356c-0.252,0.716-0.916,1.221-1.425,1.73
		c-0.538,0.537-1.051,1.05-1.578,1.577c-0.526,0.526-0.95,1.154-1.476,1.68c-6.738,6.738-13.588,13.573-20.41,20.309
		c-0.76,0.795-1.78,1.728-2.698,2.646c-0.306,0.306-0.77,0.721-0.764,1.019c0.009,0.406,1.523,1.727,1.833,2.036
		c6.995,6.996,13.918,14.071,20.919,21.071c1.222,1.223,2.367,2.571,3.716,3.92c0.825,0.825,1.855,1.906,2.85,2.9
		c0.351,0.351,0.861,0.784,0.866,1.019c0.009,0.432-0.742,0.894-1.069,1.222c-0.473,0.472-0.812,0.923-1.119,1.171
		c-3.898,4.069-7.765,7.913-11.859,12.012c-0.927,0.927-1.962,1.911-3.004,2.952c-0.293,0.294-0.878,0.909-1.068,0.916
		c-0.494,0.019-1.567-1.456-1.985-1.883C52.477,69.534,45.393,62.6,38.323,55.53c-2.179-2.18-4.509-4.379-6.616-6.872
		c-0.356-0.421-0.794-0.681-0.865-1.018c-0.175-0.816,0-2,0-3.054c0-13.95,0.047-28.376,0.051-43.213
		c0-0.392-0.139-0.926,0.254-1.222C46.726,0.11,62.199,0.235,77.719,0.356z"/>
</g>
<g id="Layer_1">
</g>
</svg>
