<?xml version="1.0" encoding="iso-8859-1"?>
<!-- Generator: Adobe Illustrator 19.2.0, SVG Export Plug-In . SVG Version: 6.00 Build 0)  -->
<svg version="1.1" xmlns="http://www.w3.org/2000/svg" xmlns:xlink="http://www.w3.org/1999/xlink" x="0px" y="0px"
	 viewBox="0 0 78.78 72.88" style="enable-background:new 0 0 78.78 72.88;" xml:space="preserve">
<g id="Kieffer_x5F_Pacific">
	<path style="fill-rule:evenodd;clip-rule:evenodd;" d="M0.436,0.009c4.265,0,8.648,0,12.991,0
		c4.339,0.001,8.668-0.065,12.743,0.149c0.293,5.938-0.093,12.555,0.198,18.495c0.605-0.018,0.931-0.633,1.289-0.992
		c5.488-5.488,10.967-10.868,16.562-16.462c0.404-0.404,0.847-0.991,1.239-1.091c0.512-0.13,1.329,0,2.033,0
		c10.562,0,21.165-0.024,31.288,0.099c-0.004,0.564-0.556,0.94-0.893,1.289c-2.516,2.612-5.134,5.282-7.735,7.884
		c-2.975,2.975-5.851,6.049-8.826,9.024c-5.962,5.961-11.913,11.958-17.751,17.999c4.273,4.656,8.86,9.022,13.239,13.636
		c2.897,3.053,5.83,6.078,8.826,9.074c2.963,2.962,5.788,6.086,8.776,9.074c1.118,1.118,2.185,2.233,3.322,3.372
		c0.336,0.335,0.856,0.7,0.893,1.24c-10.23,0.092-20.863,0.048-31.338,0.049c-0.729,0-1.516,0.094-2.033-0.049
		c-0.308-0.086-0.909-0.711-1.289-1.091c-2.7-2.702-5.53-5.63-8.132-8.231c-2.756-2.757-5.42-5.469-8.182-8.231
		c-0.368-0.369-0.722-0.837-1.239-0.992c-0.278,5.943,0.036,12.441-0.248,18.396c-1.013,0.271-2.099,0.149-3.173,0.149
		c-3.243,0-6.604,0-9.918,0c-4.4,0-8.843,0.125-12.99-0.149C-0.136,49.26,0.136,26.014,0.138,2.29c0-0.755-0.084-1.883,0.149-2.182
		C0.324,0.062,0.377,0.033,0.436,0.009z M26.121,19.397c-5.23,5.115-10.665,10.616-15.917,15.867
		c-0.332,0.333-0.992,0.814-0.991,1.141c0.002,0.343,0.682,0.831,0.991,1.141c2.559,2.559,5.05,5.006,7.438,7.537
		c2.172,2.121,4.333,4.283,6.445,6.396c0.71,0.71,1.326,1.583,2.231,2.083c5.644-5.744,11.465-11.312,17.008-17.156
		c-4.849-5.044-9.869-10.018-14.776-14.925c-0.711-0.71-1.354-1.489-2.182-2.083c-0.003-0.03-0.007-0.059-0.05-0.049
		C26.252,19.363,26.224,19.418,26.121,19.397z"/>
</g>
<g id="Layer_1">
</g>
</svg>
