<?xml version="1.0" encoding="iso-8859-1"?>
<!-- Generator: Adobe Illustrator 19.2.0, SVG Export Plug-In . SVG Version: 6.00 Build 0)  -->
<svg version="1.1" xmlns="http://www.w3.org/2000/svg" xmlns:xlink="http://www.w3.org/1999/xlink" x="0px" y="0px"
	 viewBox="0 0 79.03 28.46" style="enable-background:new 0 0 79.03 28.46;" xml:space="preserve">
<g id="Kingsway_x5F_Public_x5F_Relations">
	<path style="fill-rule:evenodd;clip-rule:evenodd;" d="M53.028,7.385c0.513-0.469,0.835-1.136,1.171-1.756
		c0.983-1.816,1.978-3.818,3.171-5.513c2.106-0.026,4.083-0.049,6.293-0.049c0.905,0,2.015-0.169,2.78,0.049
		c0.423,0.12,1.045,0.816,1.464,1.22c3.134,3.019,6.571,5.945,9.659,8.878c0.471,0.538,1.196,0.82,1.463,1.562
		c-1.204,0.602-2.537,0.941-3.854,1.366c-2.565,0.827-5.199,1.81-7.854,2.585c-1.323,0.387-2.656,0.75-3.854,1.366
		c0.201,0.636,0.813,1.043,1.268,1.463c2.76,2.548,5.545,5.262,8.294,7.903c0.445,0.427,1.072,0.771,1.269,1.415
		c-1.994,0.182-4.108,0.098-6.342,0.098c-0.7,0-1.51,0.118-2.098-0.049c-0.481-0.137-0.964-0.757-1.414-1.171
		c-1.358-1.248-2.623-2.659-4.098-3.659c-0.837-0.888-1.737-1.708-2.635-2.537c-0.884-0.816-1.65-1.837-2.83-2.342
		c-0.834,0.481-1.136,1.486-1.609,2.293c-1.411,2.401-2.621,5.142-4.196,7.415c-1.082,0.087-2.308,0.049-3.512,0.049
		c-1.182,0-2.4,0.114-3.366-0.146c0.114-0.624,0.487-1.17,0.781-1.708c1.433-2.627,2.901-5.301,4.341-8
		c0.569-1.066,1.257-2.093,1.659-3.269c-0.785-0.091-1.569,0.26-2.293,0.488c-5.104,1.608-10.545,3.257-15.66,4.927
		c-0.924,1.253-1.679,2.692-2.44,4.098c-0.76,1.406-1.498,2.827-2.39,4.098c-0.724-0.295-1.169-0.966-1.708-1.463
		c-3.241-2.991-6.557-6.031-9.903-9.074c-0.372-0.338-1.286-1.455-1.708-1.415c-0.324,0.031-0.792,1.083-1.073,1.61
		c-0.353,0.662-0.641,1.203-0.927,1.756c-0.652,1.264-1.355,2.295-1.854,3.463c-0.642,1.505-1.362,3.026-2.292,4.293
		C4.519,27.567,2.051,27.759,0,27.532c0.405-1.258,1.189-2.355,1.805-3.512c1.805-3.393,3.658-6.854,5.561-10.245
		c1.278-2.277,2.438-4.626,3.659-6.927c0.911-1.718,1.866-3.42,2.781-5.122c0.299-0.557,0.478-1.229,1.024-1.61
		c2.083-0.049,4.633-0.145,6.634,0.049c-0.043,1.112-0.989,1.742-1.122,2.927c0.931,0.016,1.813-0.388,2.684-0.634
		c1.733-0.491,3.4-1.069,5.171-1.61c0.844-0.258,1.764-0.667,2.585-0.781c0.507-0.069,1.062,0.021,1.513,0
		c4.165-0.193,8.261,0.103,12.635,0c2.187,1.668,4.01,3.699,6,5.562C51.644,6.2,52.191,6.937,53.028,7.385z M38.881,6.116
		c-0.392,0.688-0.758,1.395-1.122,2.049c-0.786,1.412-1.703,2.734-2.146,4.147c0.911,0.031,1.785-0.332,2.634-0.585
		c1.739-0.519,3.447-1.009,5.171-1.513c0.858-0.25,1.791-0.339,2.537-0.829c-0.277-0.595-0.838-1.002-1.317-1.463
		c-0.979-0.943-1.87-1.695-2.878-2.683c-0.425-0.417-1.101-1.192-1.561-1.269C39.676,4.53,39.312,5.359,38.881,6.116z M60.98,6.019
		c-0.719,1.345-1.392,2.675-2.098,3.952c-0.357,0.646-0.867,1.299-0.878,2.049c1.636-0.221,3.244-0.778,4.878-1.219
		c1.634-0.441,3.318-0.809,4.83-1.415c-0.253-0.576-0.769-1-1.22-1.463c-0.928-0.953-1.756-1.708-2.732-2.683
		c-0.41-0.411-1.084-1.172-1.512-1.269C61.758,4.521,61.372,5.287,60.98,6.019z M31.027,6.019c-2.395,0.681-4.868,1.597-7.367,2.342
		c-1.887,0.562-3.759,1.174-5.561,1.756c-0.592,0.191-1.248,0.314-1.708,0.732c0.491,0.858,1.234,1.465,1.951,2.098
		c0.697,0.653,1.347,1.353,2.098,1.951c0.977,1.052,2.092,1.995,3.074,2.976c0.338,0.338,0.64,0.798,1.171,0.878
		c1.378-1.96,2.337-4.185,3.512-6.293c0.577-1.036,1.193-2.075,1.756-3.123c0.583-1.083,1.194-2.148,1.61-3.317
		C31.339,5.91,31.146,5.985,31.027,6.019z"/>
</g>
<g id="Layer_1">
</g>
</svg>
