<?xml version="1.0" encoding="iso-8859-1"?>
<!-- Generator: Adobe Illustrator 19.2.0, SVG Export Plug-In . SVG Version: 6.00 Build 0)  -->
<svg version="1.1" xmlns="http://www.w3.org/2000/svg" xmlns:xlink="http://www.w3.org/1999/xlink" x="0px" y="0px"
	 viewBox="0 0 95.027 95.919" style="enable-background:new 0 0 95.027 95.919;" xml:space="preserve">
<g id="Kinyo">
	<path style="fill-rule:evenodd;clip-rule:evenodd;" d="M46.679,0.016C59.126-0.32,69.42,4.681,76.769,10.206
		c8.012,6.024,13.363,13.57,16.423,24.095c3.452,11.873,1.707,24.349-2.517,33.686c-4.139,9.148-10.656,16.907-19.061,21.458
		c-3.33,1.804-6.875,3.423-10.43,4.555c-10.597,3.377-22.476,1.916-31.168-1.438c-2.906-1.121-5.972-2.349-8.272-3.956
		C12.201,81.934,4.343,72.457,1.365,60.075C-0.33,53.023-0.395,45.4,0.886,38.257c2.47-13.77,10.028-22.85,19.18-29.729
		c4.167-3.133,10.991-6.442,16.903-7.552C39.672,0.467,43.189,0.11,46.679,0.016z M35.051,20.515
		c-2.797,1.228-5.238,3.303-7.433,5.274c-2.443,2.195-4.199,4.082-5.874,6.833c-2.781,4.57-5.1,13.018-3.716,20.979
		c0.827,4.76,3.02,9.393,5.754,12.947c2.476,3.218,6.635,6.675,10.31,8.511c4.753,2.375,10.218,3.327,16.063,2.877
		c16.207-1.249,30.112-16.85,26.493-35.604c-1.215-6.298-5.144-12.172-8.871-15.944c-5.101-5.163-14.009-9.597-25.054-8.032
		C39.733,18.781,37.327,19.516,35.051,20.515z"/>
	<path style="fill-rule:evenodd;clip-rule:evenodd;" d="M47.279,21.354c11.078-0.024,19.224,6.497,23.137,13.786
		c7.54,14.049,0.455,30.077-9.83,35.963c-7.925,4.535-20.274,4.902-27.572-0.6c-8.092-6.1-15.304-17.266-10.429-31.408
		c1.31-3.8,2.923-6.431,5.155-8.751C32.302,25.601,37.621,21.375,47.279,21.354z M43.562,35.14
		c-1.873-2.762-3.078-6.192-5.035-8.871c0.249,3.191,1.947,6.601,2.278,9.71c-2.192-2.324-3.762-5.269-6.234-7.312
		c1.132,3.303,3.602,5.908,4.315,9.231c-2.772-1.942-5.12-4.311-7.792-6.354c1.367,2.989,4.229,5.121,5.515,7.792
		c-3.079-1.357-5.432-3.439-8.751-4.556c2.364,2.351,5.138,4.292,7.313,6.833c-3.161-0.675-5.565-2.108-8.871-2.638
		c1.983,1.973,6.013,2.938,8.032,5.275c-3.071-0.211-6.759-1.066-9.59-0.719c2.895,1.142,6.473,1.599,8.991,3.117
		c-2.671,0.711-6.113,0.672-8.991,1.438c3.029,0.829,6.642,0.337,9.351,1.199c-2.667,1.369-6.152,1.92-8.871,3.237
		c2.994,0.351,6.86-1.095,9.111-0.719c-2.522,2.154-5.939,3.412-8.631,5.394c3.349-0.648,6.503-2.128,9.471-2.757
		c-2.079,2.597-4.834,4.517-7.073,6.953c3.338-0.938,5.39-3.801,8.511-4.556c-1.653,2.743-4.405,5.026-5.394,8.032
		c2.517-1.999,4.774-4.896,7.552-6.234c-1.364,3.151-3.239,5.792-4.316,9.23c2.672-2.123,4.079-5.511,6.473-7.912
		c-0.681,3.577-2.29,6.791-2.757,10.189c2.096-2.66,3.138-6.372,5.155-9.111c0.091,3.013-0.689,6.78-0.479,10.19
		c1.711-2.484,1.773-6.619,3.117-9.471c0.8,3.036,0.636,7.036,1.318,10.19c1.328-2.492,0.671-7.391,1.319-10.19
		c1.603,2.672,1.67,6.881,3.476,9.35c0.229-3.076-1.012-6.735-1.079-10.07c2.227,2.489,2.877,6.554,5.274,8.871
		c-0.585-3.492-2.339-6.452-2.637-9.83c2.51,2.326,4.087,5.583,6.833,7.672c-0.926-3.191-3.361-5.908-4.555-9.23
		c2.71,1.645,4.692,4.019,7.432,5.634c-1.061-2.777-4.379-4.97-5.634-7.552c3.428,1.127,5.766,3.345,9.111,4.556
		c-2.19-2.725-5.489-4.341-7.792-6.953c3.296,0.62,5.964,1.869,9.23,2.518c-2.206-2.189-5.94-2.851-8.151-5.035
		c3.295,0.251,6.702,0.605,10.31,0.839c-2.776-1.74-7.118-1.913-10.07-3.477c3.112-0.635,6.717-0.585,10.189-1.079
		c-2.495-1.358-7.134-0.316-10.07-1.439c2.702-1.494,6.586-1.805,9.111-3.476c-3.34,0.086-6.94,1.09-9.83,0.839
		c2.136-1.797,6.34-3.129,7.672-4.915c-2.969,0.708-5.685,2.307-8.631,2.638c2.145-2.411,5.15-3.961,7.073-6.593
		c-3.186,1.13-5.237,3.394-8.511,4.436c1.622-3.054,4.312-5.038,5.994-8.032c-3.032,1.764-5.044,4.546-8.032,6.353
		c1.138-3.377,3.632-6.039,4.556-9.23c-2.549,2.207-4.038,6.11-6.593,7.912c0.779-3.457,2.138-6.334,2.757-9.95
		c-2.161,2.475-3.147,6.124-5.155,8.751c-0.059-3.526,1.247-7.088,0.719-9.95c-1.603,2.513-1.711,6.521-3.117,9.231
		c-0.612-2.726-0.312-6.497-1.199-9.231c-0.881,2.969-0.32,6.247-1.199,9.231c-1.256-2.82-1.711-6.441-2.997-9.231
		C42.716,28.727,43.974,31.938,43.562,35.14z"/>
</g>
<g id="Layer_1">
</g>
</svg>
