<?xml version="1.0" encoding="iso-8859-1"?>
<!-- Generator: Adobe Illustrator 19.2.0, SVG Export Plug-In . SVG Version: 6.00 Build 0)  -->
<svg version="1.1" xmlns="http://www.w3.org/2000/svg" xmlns:xlink="http://www.w3.org/1999/xlink" x="0px" y="0px"
	 viewBox="0 0 84.487 73.831" style="enable-background:new 0 0 84.487 73.831;" xml:space="preserve">
<g id="kirchentreffen">
	<path style="fill-rule:evenodd;clip-rule:evenodd;" d="M40.709,0.213c0.125,0.624-0.221,1.231-0.511,1.739
		c-4.416,7.706-8.937,15.532-13.45,23.218c-3.627,6.177-7.099,12.396-10.689,18.616c-0.889,1.54-1.844,3.034-2.762,4.603
		c-0.281,0.481-0.697,1.023-0.664,1.636c0.769,0.364,1.666,0.205,2.506,0.205c12.423,0,25.025,0.104,37.436,0.103
		c0.884,0,2.06-0.153,2.608,0.051c0.61,0.227,1.301,1.925,1.636,2.506c1.105,1.912,1.953,3.419,3.018,5.216
		c0.501,0.846,1.143,1.675,1.33,2.762c-0.933,0.365-2.114,0.205-3.324,0.205c-7.95,0.001-16.099-0.051-24.19-0.051
		c-8.51,0-17.245-0.181-25.776-0.051c-0.634,0.009-1.29,0.122-1.637,0c-0.659-0.233-1.318-1.952-1.688-2.557
		c-1.186-1.943-2.038-3.442-3.12-5.37C0.933,52.152,0.289,51.284,0,50.23c0.3-1.212,1.026-2.262,1.637-3.324
		c2.971-5.162,6.143-10.355,9.052-15.649c1.164-2.118,2.359-4.219,3.58-6.29c4.274-7.255,8.411-14.574,12.632-21.94
		c0.584-1.019,1.135-2.099,1.943-2.966c2.736-0.135,6.111,0,9.052,0C38.848,0.06,39.834-0.064,40.709,0.213z"/>
	<path style="fill-rule:evenodd;clip-rule:evenodd;" d="M74.872,54.68c-6.366-10.688-12.34-21.77-18.769-32.578
		c-1.805-3.035-3.58-6.327-5.421-9.563c-0.254-0.446-0.66-1.155-0.921-1.176c-0.51-0.042-0.976,1.133-1.278,1.636
		c-2.237,3.728-4.282,7.297-6.444,11.047c-0.345,0.598-0.782,1.191-1.074,1.79c-0.249,0.51-0.398,1.044-0.665,1.534
		c-2.759,5.066-5.846,10.093-8.745,15.138c-0.526,0.915-1.102,1.796-1.636,2.71c-0.521,0.891-0.922,1.927-1.739,2.608
		c-3.055,0.135-6.271,0.008-9.104,0.051c-0.991,0.016-2.002,0.213-2.915-0.102c-0.087-0.616,0.39-1.117,0.665-1.585
		c5.472-9.331,10.768-18.877,16.314-28.333c2.31-3.937,4.488-7.819,6.853-11.916c0.507-0.879,1.041-2.02,1.637-3.068
		c0.497-0.875,1.276-2.682,2.097-2.812c0.867-0.139,1.961,0.051,3.018,0.051c2.144,0.001,3.803,0,6.137,0
		c0.915,0,2.322-0.184,2.966,0.051c0.626,0.228,1.575,2.401,1.943,3.018c1.856,3.102,3.602,6.339,5.37,9.359
		c2.481,4.236,4.815,8.449,7.16,12.53c2.443,4.25,4.842,8.363,7.211,12.479c1.201,2.086,2.314,4.228,3.58,6.291
		c0.634,1.033,1.242,2.043,1.739,3.171c0.489,1.107,1.317,2.066,1.637,3.273c-0.203,1.002-0.896,1.808-1.381,2.71
		c-0.245,0.458-0.359,0.975-0.614,1.432c-0.952,1.711-1.933,3.294-2.966,5.217c-0.215,0.4-0.61,1.116-0.92,1.125
		c-0.459,0.013-0.834-0.984-1.074-1.381C76.578,57.809,75.727,56.265,74.872,54.68z"/>
	<path style="fill-rule:evenodd;clip-rule:evenodd;" d="M53.341,21.232c6.942,11.879,13.783,23.857,20.661,35.8
		c0.839,1.377,1.66,2.918,2.557,4.5c0.275,0.485,0.758,1.062,0.767,1.585c0.012,0.666-1.1,2.207-1.432,2.762
		c-1.316,2.2-2.436,4.334-3.836,6.648c-0.272,0.451-0.563,1.06-0.869,1.176c-0.662,0.251-2.498,0.051-3.631,0.051
		c-8.482,0.002-16.649-0.051-25.264-0.051c-8.365,0-16.603-0.05-25.213-0.051c-1.152,0-2.831,0.177-3.529-0.102
		c-0.733-0.294-1.232-1.729-1.687-2.506c-1.342-2.288-2.495-4.325-3.836-6.648c-0.247-0.427-0.698-0.852-0.562-1.381
		c0.456-0.308,1.056-0.231,1.585-0.255c1.733-0.079,3.617-0.051,5.421,0c6.865,0.191,14.224-0.001,21.48,0
		c7.101,0,14.293,0.278,21.429,0.102c1.191-0.029,2.364-0.018,3.529,0c1.146,0.018,2.312,0.112,3.426-0.153
		c-0.109-0.906-0.699-1.652-1.125-2.404C57.603,50.42,51.719,40.492,46.181,30.49c-0.427-0.772-0.879-1.534-1.33-2.302
		c-0.443-0.755-0.993-1.52-1.176-2.404c0.22-0.99,0.833-1.851,1.329-2.71c0.974-1.684,1.934-3.327,2.966-5.063
		c0.511-0.858,0.957-1.823,1.535-2.506c0.603-0.424,1.017,0.767,1.278,1.227C51.591,18.152,52.734,20.025,53.341,21.232z"/>
</g>
<g id="Layer_1">
</g>
</svg>
