<?xml version="1.0" encoding="iso-8859-1"?>
<!-- Generator: Adobe Illustrator 19.2.0, SVG Export Plug-In . SVG Version: 6.00 Build 0)  -->
<svg version="1.1" xmlns="http://www.w3.org/2000/svg" xmlns:xlink="http://www.w3.org/1999/xlink" x="0px" y="0px"
	 viewBox="0 0 67.206 79.572" style="enable-background:new 0 0 67.206 79.572;" xml:space="preserve">
<g id="kirchengemeinde_x5F_buchthalten">
	<path style="fill-rule:evenodd;clip-rule:evenodd;" d="M40.001,34.258c-0.139-7.542,0.025-14.568-0.145-21.85
		c-0.857-0.304-2.101-0.193-3.336-0.193c-1.21,0-2.48-0.072-3.48,0.097c-0.256,0.844-0.145,1.755-0.145,2.659
		c0,6.402,0.113,13.188-0.097,19.288c-1.737,0.256-3.576,0.145-5.414,0.145c-5.394,0-11.156-0.08-16.437,0.097
		c-0.16,1.81-0.159,4.281,0,6.091c0.808,0.238,1.696,0.193,2.562,0.193c6.292,0,12.981-0.04,19.239,0.048
		c0.022,0.043,0.043,0.086,0.097,0.097c0.112,6.683,0.048,13.082,0.049,19.53c0,6.395,0.139,12.69-0.097,18.949
		c-8.057,0.339-16.35,0.048-24.412,0.048c-2.748,0-5.518,0.109-8.219-0.145c-0.154-26.02-0.147-51.02-0.145-76.91
		c0-0.766-0.11-1.576,0.145-2.32c4.951-0.182,10.75,0,15.856,0c10.553,0,20.732-0.048,31.083-0.048c5.358,0,8.986,1.426,11.988,3.77
		c2.937,2.293,5.186,5.504,6.14,9.62c1.131,4.88-0.217,9.578-2.127,12.762c-1.937,3.226-4.858,5.697-8.604,7.154
		c-1.942,0.755-4.304,1.015-6.864,1.015c-1.246,0-2.555-0.007-3.867,0.048C42.526,34.455,41.244,34.478,40.001,34.258z"/>
	<path style="fill-rule:evenodd;clip-rule:evenodd;" d="M40.05,79.408c-0.161-12.595-0.161-25.882,0-38.527
		c3.657-0.012,7.777-0.352,11.359-0.097c4.982,0.355,8.349,2.597,10.877,5.511c2.542,2.973,4.589,6.478,4.883,11.505
		c0.303,5.201-1.308,9.511-3.48,12.762c-2.128,3.182-5.139,5.821-9.04,7.299C50.724,79.348,45.673,79.806,40.05,79.408z"/>
</g>
<g id="Layer_1">
</g>
</svg>
