<?xml version="1.0" encoding="iso-8859-1"?>
<!-- Generator: Adobe Illustrator 19.2.0, SVG Export Plug-In . SVG Version: 6.00 Build 0)  -->
<svg version="1.1" xmlns="http://www.w3.org/2000/svg" xmlns:xlink="http://www.w3.org/1999/xlink" x="0px" y="0px"
	 viewBox="0 0 75.013 75.875" style="enable-background:new 0 0 75.013 75.875;" xml:space="preserve">
<g id="Kirjaliike">
	<path style="fill-rule:evenodd;clip-rule:evenodd;" d="M74.652,0.115c0.233,12.19,0.244,25.341,0.243,37.797
		c-0.001,11.045,0.049,21.897,0.048,33.09c0,1.539,0.21,3.09-0.097,4.609c-7.37,0.14-15.084,0.241-22.561,0.049
		c-0.224-12.673-0.194-25.166-0.194-37.748c0-12.579-0.179-25.124-0.048-37.7c5.504-0.221,11.31-0.194,16.933-0.194
		C70.901,0.018,72.798-0.062,74.652,0.115z"/>
	<path style="fill-rule:evenodd;clip-rule:evenodd;" d="M37.438,0.261c0.369,12.303,0.076,25.181,0.194,37.554
		c0.105,10.956,0.097,22.034,0.098,33.236c0,1.521,0.156,3.065-0.098,4.561c-0.417-0.13-0.569-0.603-0.776-0.922
		c-3.266-5.044-6.542-10.201-9.898-15.283c-2.676-4.053-5.045-8.239-7.812-12.324c-0.404-0.597-0.918-1.233-1.358-1.989
		c-0.348-0.598-1.219-1.63-1.213-2.135c0.004-0.412,0.732-1.071,1.116-1.455c1.249-1.25,2.668-2.717,3.785-3.833
		c3.469-3.469,6.811-6.715,10.141-10.237c0.826-0.874,1.625-1.771,2.475-2.62c0.843-0.843,1.811-1.615,2.426-2.669
		c-3.715-0.185-8.056-0.097-12.178-0.097c-0.622,0-1.332,0.017-1.989,0.048c-0.707,0.033-1.417-0.128-1.941,0
		c-0.88,0.216-2.062,1.856-2.668,2.475c-0.895,0.913-1.607,1.775-2.572,2.572c-3.515,4.098-7.464,7.975-11.208,11.935
		c-0.938,0.991-1.779,2.07-2.766,3.057c-0.248,0.248-0.569,0.758-1.019,0.68c-0.127-8.902-0.032-17.891-0.146-26.541
		c-0.07-5.364,0.004-10.688,0.049-15.914C6.476-0.079,13.09,0.475,19.679,0.164c1.475-0.069,2.97,0.12,4.464,0.049
		C28.495,0.007,33.054,0.185,37.438,0.261z"/>
	<path style="fill-rule:evenodd;clip-rule:evenodd;" d="M7.356,52.323c0.032,0,0.065,0,0.097,0c1.294,1.868,2.47,3.831,3.639,5.774
		c0.586,0.975,1.249,1.942,1.747,2.96c0.504,1.031,1.198,1.935,1.795,2.911c1.783,2.914,3.518,5.86,5.337,8.782
		c0.601,0.964,1.377,1.881,1.698,3.008c-6.901,0.11-14.387,0.196-21.349,0c-0.276-5.061-0.09-10.585-0.145-15.866
		c0.977-1.364,2.307-2.492,3.494-3.785c0.558-0.608,1.144-1.257,1.747-1.892C6.05,53.545,6.652,52.818,7.356,52.323z"/>
</g>
<g id="Layer_1">
</g>
</svg>
