<?xml version="1.0" encoding="iso-8859-1"?>
<!-- Generator: Adobe Illustrator 19.2.0, SVG Export Plug-In . SVG Version: 6.00 Build 0)  -->
<svg version="1.1" xmlns="http://www.w3.org/2000/svg" xmlns:xlink="http://www.w3.org/1999/xlink" x="0px" y="0px"
	 viewBox="0 0 71.359 81.592" style="enable-background:new 0 0 71.359 81.592;" xml:space="preserve">
<g id="Klimaanlagen-Hersteller">
	<path style="fill-rule:evenodd;clip-rule:evenodd;" d="M31.814,0.257c0.285,1.326,0.158,2.693,0.155,4.083
		c-0.023,9.024,0.028,20.096,0.207,30.132c0.458,0.413,1.993,0.34,2.532,0.052c0.207-10.713,0-21.379,0-32.303
		c0-0.673-0.113-1.382,0.155-2.016c1.133-0.249,3.208-0.252,4.341,0c0.438,1.325,0.127,2.76,0.155,4.187
		c0.166,8.531,0.015,17.721,0.104,26.204c0.014,1.36-0.102,2.72,0.206,3.98c0.557,0.246,1.851,0.212,2.481,0.052
		c0.366-0.613,0.159-1.348,0.155-2.016c-0.011-1.998,0.008-4.127,0.052-6.305c0.028-1.42-0.162-2.889-0.104-4.342
		c0.174-4.346-0.052-8.833-0.051-13.231c0-1.475,0.051-2.962,0.051-4.393c0-1.413-0.165-2.802,0.104-4.135
		c0.565-0.251,1.304-0.155,2.274-0.155c0.6,0,1.824-0.186,2.222,0.155c0.466,0.399,0.239,3.227,0.258,4.032
		c0.242,10.114-0.206,20.637,0.104,30.132c0.106,0.28,1.312,0.347,1.964,0.414c4.596,0.466,8.234,1.897,11.164,3.876
		c5.146,3.378,8.824,8.312,10.389,15.402c0.811,3.67,0.42,8.008,0.568,12.301c0.149,4.31-0.027,8.691-0.104,12.766
		c-0.463,0.396-1.406,0.258-2.273,0.258c-0.854,0-1.813,0.118-2.326-0.206c-0.206-1.083-0.166-2.278-0.155-3.463
		c0.032-3.485-0.101-7.331,0-10.958c0.141-5.025,0.084-10.046-1.396-13.489C62.833,46.115,59,42.515,53.573,40.416
		c-0.833-0.322-1.775-0.567-2.946-0.775c-0.782-0.139-2.744-0.594-3.256-0.155c-0.29,0.249-0.333,2.146-0.104,2.481
		c0.247,0.362,2.366,0.474,2.843,0.569c2.791,0.553,5.051,1.794,6.926,3.152c2.463,1.785,4.638,4.304,5.686,7.805
		c1.016,3.395,0.826,7.914,0.826,12.56c0,3.398,0.035,6.569,0.104,10.027c0.014,0.678,0.214,2.781-0.206,3.152
		c-0.341,0.302-1.523,0.155-2.223,0.155c-0.837,0-1.619,0.108-2.171-0.155c-0.294-0.785-0.196-1.668-0.155-2.532
		c0.121-2.556-0.051-5.374-0.052-8.166c0-3.659,0.19-7.465-0.103-11.009c-0.262-3.153-1.711-5.749-3.618-7.494
		c-1.406-1.287-3.006-2.326-5.427-2.895c-0.635-0.149-1.845-0.526-2.326-0.207c-0.525,0.35-0.164,1.752-0.104,2.429
		c1.332,0.422,2.649,0.534,3.825,1.085c2.159,1.012,3.717,2.939,4.496,5.323c0.395,1.209,0.431,2.654,0.465,4.393
		c0.092,4.649-0.127,9.658,0.155,14.472c0.092,1.565,0.131,3.114-0.104,4.548c-0.895,0.432-2.983,0.32-4.031,0.103
		c-0.4-0.925-0.258-2.1-0.258-3.256c0-5.597,0.248-11.754-0.104-17.211c-0.165-2.563-1.605-4.67-4.29-4.703
		c-0.533,0.558-0.268,1.385-0.259,2.016c0.034,2.2-0.007,4.438-0.413,6.461c-0.522,2.597-1.34,4.826-2.481,6.874
		c-2.213,3.969-5.411,7.157-9.407,9.251c-2.033,1.065-4.307,1.993-6.874,2.481c-2.786,0.529-5.733,0.51-8.58,0.051
		c-2.679-0.431-4.877-1.281-6.977-2.377C6.513,75.781,1.991,70.248,0.442,62.848c-1.15-5.492,0.072-11.476,2.222-15.506
		c2.124-3.979,5.215-7.233,9.097-9.562c1.945-1.167,4.306-2.062,6.822-2.532c2.622-0.491,5.48-0.47,8.683-0.62
		c0.321-1.069,0.155-2.76,0.155-4.238c-0.001-8.466,0.052-17.179,0.051-26.308c0-1.228-0.209-3.757,0.414-3.98
		c0.447-0.16,1.589-0.051,2.171-0.051C30.714,0.051,31.371-0.064,31.814,0.257z M32.382,39.538
		c-0.406,0.498-0.353,2.115-0.052,2.688c0.703,0.163,2,0.309,2.481-0.155c0.045-0.726,0.182-1.967-0.104-2.533
		C34.033,39.365,33.037,39.339,32.382,39.538z M39.67,39.589c-0.294,0.617-0.149,1.871,0,2.533c0.651,0.226,2.101,0.373,2.636-0.052
		c0.062-0.709,0.138-1.854-0.052-2.481C41.7,39.222,40.26,39.35,39.67,39.589z M25.198,39.486c-0.802,0-1.636-0.047-2.326,0
		c-4.525,0.312-8.201,1.688-10.854,3.825c-4.334,3.661-8.383,9.414-7.029,17.78c0.57,3.525,1.884,6.34,3.876,8.787
		c2.906,3.567,6.698,6.034,12.198,6.771c6.188,0.829,11.092-1.441,14.472-4.135c4.1-3.268,6.874-7.974,6.874-15.299
		c0-0.979,0.125-2.046-0.155-3.049c-0.691-0.157-2.089-0.219-2.636,0.103c-0.277,0.976-0.155,2.09-0.155,3.153
		c0,3.461-0.556,6.086-1.757,8.166c-2.331,4.02-6.023,7.38-11.629,8.218c-6.376,0.953-11.28-1.568-14.472-4.858
		c-2.162-2.903-4.045-6.081-4.083-10.75c-0.031-3.864,1.545-7.454,3.308-9.666c0.298-0.374,0.516-0.773,0.775-1.085
		c0.734-0.885,1.813-1.691,2.843-2.378c2.153-1.436,4.616-2.371,7.804-2.636c1.595-0.133,3.291,0.12,5.066-0.207
		c0.26-0.575,0.229-2.003,0-2.584C26.73,39.369,25.948,39.486,25.198,39.486z M32.176,47.084c-0.048,0.677-0.177,1.858,0.103,2.377
		c0.574,0.236,1.961,0.248,2.533,0c0.174-0.65,0.079-1.804-0.052-2.481C34.174,46.739,32.62,46.685,32.176,47.084z M39.618,47.084
		c-0.188,0.651-0.084,1.588,0,2.274c0.629,0.302,2.201,0.375,2.739,0c0.067-0.754,0.152-1.932-0.206-2.429
		C41.494,46.864,40.128,46.621,39.618,47.084z M16.05,49.513c-1.632,1.32-2.95,3.188-3.618,5.324
		c-1.602,5.122,0.784,10.236,4.29,12.559c1.617,1.28,3.98,2.12,6.823,2.12c2.866,0,5.133-0.986,6.771-2.171
		c1.662-1.214,3.028-2.865,3.876-5.065c0.631-1.637,0.775-3.548,0.775-5.892c0-0.692,0.117-1.473-0.155-2.12
		c-0.594-0.263-2.051-0.241-2.584,0.052c-0.288,1.476-0.053,2.9-0.103,4.238c-0.148,3.963-2.834,6.832-5.996,7.753
		c-1.736,0.505-3.858,0.577-5.633-0.052c-2.315-0.819-4.41-2.895-5.221-5.22c-1.167-3.349,0.089-6.737,2.016-8.735
		c1.503-1.558,3.706-2.603,6.409-2.636c1.249-0.016,2.388,0.171,3.618-0.103c0.307-0.584,0.317-2.06-0.052-2.584
		C22.293,46.389,18.678,47.387,16.05,49.513z M25.612,54.113c-2.913-0.138-4.815,0.504-5.737,2.223
		c-1.057,1.97-0.117,4.302,1.447,5.272c1.739,1.078,4.405,0.518,5.53-1.138c0.91-1.323,0.754-4.2,0.569-6.15
		C26.894,54.1,26.235,54.143,25.612,54.113z"/>
</g>
<g id="Layer_1">
</g>
</svg>
