<?xml version="1.0" encoding="iso-8859-1"?>
<!-- Generator: Adobe Illustrator 19.2.0, SVG Export Plug-In . SVG Version: 6.00 Build 0)  -->
<svg version="1.1" xmlns="http://www.w3.org/2000/svg" xmlns:xlink="http://www.w3.org/1999/xlink" x="0px" y="0px"
	 viewBox="0 0 81.853 82.262" style="enable-background:new 0 0 81.853 82.262;" xml:space="preserve">
<g id="Klinikum_x5F_Uni_x5F_Gottingen">
	<path style="fill-rule:evenodd;clip-rule:evenodd;" d="M40.978,0.225c0.155,9.316,0,19.264,0,28.853c0,2.445,0.05,4.848,0,7.164
		c-0.051,2.352,0.119,4.645-0.199,6.666c-0.626,3.977-2.534,7.26-4.875,9.602c-9.731,9.732-20.266,18.244-31.34,26.662
		c-1.088,0.822-2.203,1.67-3.333,2.488c-0.342,0.248-0.719,0.641-1.194,0.598c-0.076-13.314-0.039-27.869,0.149-41.439
		c1.144-0.314,2.359-0.1,3.582-0.1c6.065,0,12.314,0.051,18.605,0.051c2.424,0,5.02,0.359,6.666-0.748
		c1.094-0.545,1.073-2.627,0.498-3.83c-0.373-0.779-1.139-1.543-1.791-2.338c-5.538-6.752-11.127-13.596-16.764-20.197
		c-1.282-1.5-2.381-3.107-3.631-4.576C5.135,6.479,3.033,3.86,0.833,1.221C0.547,0.877,0.097,0.53,0.087,0.028
		c11.617-0.084,24.082,0.049,36.116,0.049C37.793,0.077,39.41-0.039,40.978,0.225z M1.878,0.874C1.869,1.399,2.947,2.458,3.47,3.112
		C5.262,5.348,7.165,7.43,8.792,9.579c2.263,2.984,4.731,5.836,7.064,8.606c4.217,5.008,8.333,10.004,12.437,15.023
		c0.588,0.719,1.299,1.447,1.741,2.189c0.879,1.475,1.136,4.242-0.398,5.223c-1.557,1.223-3.95,0.945-6.368,0.945
		c-7.495,0-15.121-0.123-22.286,0.051C0.817,51.256,0.783,61.28,0.783,70.915c0,3.303-0.092,6.588,0.1,9.75
		c0.86-0.291,1.576-0.924,2.289-1.441c5.044-3.668,9.793-7.672,14.625-11.492c5.552-4.389,10.612-9.271,15.819-14.078
		c2.673-2.465,4.785-5.15,5.92-9.004c0.604-2.049,0.597-4.246,0.597-6.865c0-4.996,0.05-9.887,0.05-14.674
		c0-7.457,0.144-14.893-0.05-22.088c-1.514-0.283-3.085-0.133-4.626-0.148C24.525,0.76,13.251,0.862,2.027,0.774
		C1.968,0.797,1.914,0.827,1.878,0.874z"/>
	<path style="fill-rule:evenodd;clip-rule:evenodd;" d="M81.571,0.874c0.416,0.172,0.249,0.75,0.249,1.043
		c0,2.889-0.05,5.935-0.05,8.855c0,10.115-0.008,20.502-0.149,30.445c-1.115,0.223-2.459,0.1-3.88,0.1
		c-6.797-0.002-13.373-0.051-20.297-0.051c-2.849,0-5.67,0.084-6.168,2.389c-0.126,2.588,1.188,3.572,2.388,5.023
		c8.883,10.75,18.049,21.391,26.863,32.137c0.208,0.393,0.812,0.643,0.696,1.193c-12.242,0.059-25.009-0.096-37.359-0.1
		c-0.766,0-1.6,0.121-2.338-0.148c-0.087-12.602,0.05-24.812,0.05-37.359c0-2.604-0.039-4.959,0.547-7.014
		c1.13-3.963,3.296-6.592,6.019-9.104c1.326-1.225,2.454-2.617,3.78-3.832c3.939-3.605,7.932-7.082,12.138-10.545
		c4.032-3.32,8.446-6.6,12.835-9.85C78.428,2.92,80.027,1.749,81.571,0.874z"/>
</g>
<g id="Layer_1">
</g>
</svg>
