<?xml version="1.0" encoding="iso-8859-1"?>
<!-- Generator: Adobe Illustrator 19.2.0, SVG Export Plug-In . SVG Version: 6.00 Build 0)  -->
<svg version="1.1" xmlns="http://www.w3.org/2000/svg" xmlns:xlink="http://www.w3.org/1999/xlink" x="0px" y="0px"
	 viewBox="0 0 76.02 43.481" style="enable-background:new 0 0 76.02 43.481;" xml:space="preserve">
<g id="Klopfer">
	<path style="fill-rule:evenodd;clip-rule:evenodd;" d="M47.488,0.207c-0.074,0.485-0.538,0.799-0.857,1.096
		c-2.388,2.219-4.579,4.79-7.002,7.05c-2.769,2.582-5.265,5.477-8.05,8.002c-1.262,1.377-2.701,2.653-4.049,4.001
		c-0.429,0.429-0.789,1.011-1.381,1.19c-0.082-7.53-0.058-14.183,0.047-21.339c0.229-0.161,0.723-0.187,1-0.19
		C33.716-0.047,41.012,0.083,47.488,0.207z"/>
	<path style="fill-rule:evenodd;clip-rule:evenodd;" d="M54.252,0.255c0.404-0.002,1.092,0.815,1.524,1.238
		c0.513,0.503,0.941,0.986,1.333,1.382c1.892,1.901,3.607,3.511,5.478,5.382c1.829,1.829,3.549,3.597,5.382,5.43
		c2.678,2.679,5.448,5.376,8.05,8.146c-0.734,1.063-1.766,1.861-2.668,2.762c-0.896,0.896-1.805,1.787-2.667,2.716
		c-1.73,1.865-3.708,3.506-5.43,5.382c-1.719,1.873-3.625,3.577-5.43,5.383c-1.794,1.793-3.573,3.609-5.478,5.287
		c-0.562-0.298-1.027-0.789-1.477-1.239c-2.198-2.197-4.468-4.467-6.716-6.716c-2.65-2.65-5.19-5.55-8.002-8.145
		c-1.363-1.258-2.604-2.604-4.049-4.049c-0.317-0.316-1.262-1.018-1.286-1.381c-0.028-0.425,0.931-1.149,1.238-1.477
		c1.331-1.419,2.686-2.555,4.001-4.001C43.511,11.043,48.762,5.529,54.252,0.255z"/>
	<path style="fill-rule:evenodd;clip-rule:evenodd;" d="M21.339,0.303c0.338,0.288,0.19,0.836,0.19,1.19
		c0,14.144,0.031,27.795-0.095,41.582c-0.356,0.104-0.617-0.283-0.81-0.477C15.509,37.484,10.434,32.406,5.24,27.214
		c-1.323-1.322-2.602-2.648-4.001-4.049C0.883,22.811,0.002,22.073,0,21.736c-0.001-0.396,0.975-1.165,1.239-1.429
		c0.505-0.505,0.981-0.966,1.381-1.286C8.631,12.569,15.056,6.529,21.292,0.303C21.307,0.303,21.323,0.303,21.339,0.303z"/>
	<path style="fill-rule:evenodd;clip-rule:evenodd;" d="M47.441,43.456c-6.917-0.021-14.424,0.135-21.244-0.143
		c-0.234-1.595-0.143-3.382-0.143-5.287c0.001-4.417-0.089-8.829,0.048-13.193c0.028-0.903-0.06-1.943,0.048-2.716
		c-0.002-0.081,0.035-0.123,0.095-0.143c0.032,0,0.063,0,0.095,0c5.318,5.309,10.712,10.615,16.051,15.957
		c0.889,0.889,1.676,1.865,2.572,2.762c0.435,0.437,0.894,0.895,1.333,1.334C46.718,42.448,47.325,42.816,47.441,43.456z"/>
</g>
<g id="Layer_1">
</g>
</svg>
