<?xml version="1.0" encoding="iso-8859-1"?>
<!-- Generator: Adobe Illustrator 19.2.0, SVG Export Plug-In . SVG Version: 6.00 Build 0)  -->
<svg version="1.1" xmlns="http://www.w3.org/2000/svg" xmlns:xlink="http://www.w3.org/1999/xlink" x="0px" y="0px"
	 viewBox="0 0 82.544 64.79" style="enable-background:new 0 0 82.544 64.79;" xml:space="preserve">
<g id="KMC_x5F_Publishing">
	<path style="fill-rule:evenodd;clip-rule:evenodd;" d="M67.304,0.158c-0.077,0.83-0.464,1.531-0.751,2.255
		c-0.288,0.726-0.504,1.458-0.752,2.255c-0.582,1.869-1.487,3.698-2.205,5.563c-0.715,1.856-1.536,3.676-2.255,5.512
		c-3.992,10.196-8.102,20.258-12.128,30.47c-0.353,0.893-0.684,1.836-1.203,2.656c-0.52-0.333-0.657-0.997-0.902-1.503
		c-1.768-3.676-3.603-7.343-5.361-11.125c-1.737-3.735-3.602-7.348-5.362-11.176c-0.226-0.49-0.691-1.335-0.702-1.654
		c-0.012-0.334,0.344-1.031,0.552-1.553c2.132-5.374,4.403-10.737,6.615-16.037c0.814-1.953,1.45-3.951,2.455-5.763
		C52.251-0.045,60.285-0.011,67.304,0.158z"/>
	<path style="fill-rule:evenodd;clip-rule:evenodd;" d="M70.562,0.409c0.041,0.009,0.05,0.05,0.101,0.05
		c3.18,7.111,6.37,14.295,9.521,21.449c0.447,1.017,0.96,2.021,1.202,3.108c-0.404,0.333-1.062,0.155-1.604,0.15
		c-5.867-0.051-12.688,0.131-18.942-0.1c0.068-1.164,0.674-2.207,1.103-3.257c0.853-2.095,1.685-4.193,2.556-6.314
		c0.831-2.027,1.417-4.077,2.305-6.214c0.794-1.912,1.604-3.846,2.406-5.814c0.413-1.015,0.755-2.045,1.202-2.957
		C70.448,0.463,70.502,0.433,70.562,0.409z"/>
	<path style="fill-rule:evenodd;clip-rule:evenodd;" d="M33.177,25.065c1.082,1.919,1.948,3.952,2.856,5.964
		c1.794,3.98,3.677,7.96,5.562,11.977c0.935,1.993,1.977,3.962,2.706,6.064c-0.624,0.296-1.353,0.113-2.005,0.1
		c-10.844-0.214-21.601,0.191-32.224-0.15c-0.441-0.305-0.609-0.891-0.802-1.353c-1.438-3.452-2.898-6.991-4.359-10.474
		C3.235,33.195,1.52,29.197,0,25.116c0.235-0.243,0.723-0.149,1.104-0.15C11.387,24.921,22.776,25.004,33.177,25.065z"/>
	<path style="fill-rule:evenodd;clip-rule:evenodd;" d="M77.628,38.596c2.043,1.733,3.51,3.996,4.359,6.916
		c0.892,3.064,0.679,6.822-0.4,9.672c-1.888,4.983-6.551,9.133-12.979,9.572c-3.616,0.246-6.601-0.869-8.971-2.306
		c-2.373-1.438-4.225-3.518-5.413-5.863c-1.287-2.543-2.033-5.917-1.503-9.371c0.482-3.144,1.87-5.63,3.608-7.618
		c2.348-2.395,5.652-4.745,10.224-4.962C71.554,34.401,74.991,36.236,77.628,38.596z"/>
</g>
<g id="Layer_1">
</g>
</svg>
