<?xml version="1.0" encoding="iso-8859-1"?>
<!-- Generator: Adobe Illustrator 19.2.0, SVG Export Plug-In . SVG Version: 6.00 Build 0)  -->
<svg version="1.1" xmlns="http://www.w3.org/2000/svg" xmlns:xlink="http://www.w3.org/1999/xlink" x="0px" y="0px"
	 viewBox="0 0 81.057 81.353" style="enable-background:new 0 0 81.057 81.353;" xml:space="preserve">
<g id="Knaur_x5F_Buchverlag">
	<path style="fill-rule:evenodd;clip-rule:evenodd;" d="M40.236,0.017c3.031-0.113,6.366,0.358,9.213,0.967
		c4.215,0.901,7.704,2.417,10.943,4.275C67.781,9.5,73.739,15.735,77.443,23.736c2.169,4.684,3.613,10.217,3.614,16.644
		c0,6.658-1.377,12.047-3.513,16.797c-2.13,4.737-4.803,8.62-8.245,12.063c-3.352,3.352-7.211,6.242-11.911,8.398
		c-4.651,2.134-10.122,3.715-16.542,3.716c-13.052,0.001-22.251-5.23-28.757-11.859C6.966,64.273,3.109,58.23,1.146,49.999
		c-0.655-2.746-0.964-5.728-1.12-9.009c-0.156-3.289,0.415-6.448,1.018-9.162c1.847-8.312,5.735-14.693,10.74-19.698
		c1.749-1.75,3.482-3.336,5.446-4.734c3.903-2.778,8.598-4.976,13.946-6.312C33.905,0.404,36.83,0.144,40.236,0.017z M56.575,76.568
		c2.438-1.215,4.642-2.479,6.77-3.97c4.151-2.91,7.589-6.686,10.383-11.045c2.834-4.419,4.844-9.596,5.701-15.727
		c0.924-6.61-0.118-13.485-2.036-18.68c-1.932-5.23-4.715-9.754-8.194-13.234c-1.859-1.859-3.592-3.584-5.65-5.039
		c-2.163-1.529-4.352-2.68-6.77-3.97C51.24,1.948,41.9,0.401,33.874,1.9c-1.527,0.286-3.019,0.489-4.275,1.12
		c-0.109,12.553-0.001,25.519,0,37.563C29.6,53.454,29.579,66.231,29.7,78.401C38.3,81.443,49.867,79.91,56.575,76.568z
		 M22.677,71.224c0-10.583-0.051-20.329-0.051-30.488c0-8.712,0-17.663,0-26.518c0-1.51,0.082-2.474,0-4.327
		c-0.017-0.393-0.072-1.266-0.051-2.138c0.011-0.476,0.232-1.814-0.356-1.781c-0.122,0.007-0.15,0.088-0.204,0.102
		c-0.608,0.161-1.553,0.785-2.239,1.222c-2.238,1.425-4.111,2.873-5.854,4.581c-4.795,4.699-8.521,9.944-10.79,17
		c-1.102,3.427-1.973,7.813-1.781,12.165c0.392,8.912,2.752,15.627,6.566,21.275c1.866,2.763,4.047,5.163,6.413,7.482
		c1.775,1.739,3.794,3.18,5.904,4.53c0.711,0.455,1.435,0.988,2.29,1.12C22.797,74.152,22.676,72.666,22.677,71.224z"/>
	<path style="fill-rule:evenodd;clip-rule:evenodd;" d="M55.15,14.065c0.034,0,0.068,0,0.102,0c0.139,2.426,0.153,5.098,0.153,7.686
		c0,0.835,0.143,1.851-0.051,2.545c-0.176,0.63-1.392,1.61-1.833,2.087c-0.679,0.736-1.182,1.406-1.883,2.036
		c-3.649,4.155-7.581,8.028-11.147,12.267c0.478,0.775,1.141,1.446,1.782,2.087c1.895,1.894,3.807,3.891,5.649,5.904
		c2.454,2.68,5.136,5.151,7.482,7.94c-0.103,3.216,0.203,6.538-0.051,9.569c-0.419,0.066-0.648-0.382-0.865-0.611
		c-5.77-6.079-11.544-12.408-17.509-18.374c-1.046-1.046-1.964-2.219-3.003-3.258c-1.034-1.034-2.074-2.089-2.952-3.257
		c0.862-1.215,1.883-2.314,2.901-3.41c7.051-7.59,13.933-15.527,21.072-23.108C55.034,14.119,55.09,14.089,55.15,14.065z"/>
	<path style="fill-rule:evenodd;clip-rule:evenodd;" d="M62.581,36.155c1.58-0.03,2.938,0.89,3.512,1.731
		c0.603,0.884,1.025,2.436,0.662,3.767c-0.637,2.33-3.576,3.928-6.159,2.596c-1.261-0.65-2.161-1.811-2.29-3.512
		c-0.109-1.433,0.581-2.797,1.374-3.512C60.335,36.633,61.299,36.179,62.581,36.155z"/>
</g>
<g id="Layer_1">
</g>
</svg>
