<?xml version="1.0" encoding="iso-8859-1"?>
<!-- Generator: Adobe Illustrator 19.2.0, SVG Export Plug-In . SVG Version: 6.00 Build 0)  -->
<svg version="1.1" xmlns="http://www.w3.org/2000/svg" xmlns:xlink="http://www.w3.org/1999/xlink" x="0px" y="0px"
	 viewBox="0 0 75.538 76.203" style="enable-background:new 0 0 75.538 76.203;" xml:space="preserve">
<g id="Knitwear_x5F_Factory_x5F_SE">
	<path style="fill-rule:evenodd;clip-rule:evenodd;" d="M37.01,0.032c5.969-0.284,11.653,1.369,15.765,3.214
		c4.468,2.006,8.185,4.512,11.326,7.653c3.224,3.225,5.856,6.726,7.857,11.122c1.957,4.299,3.456,9.533,3.571,15.356
		c0.243,12.281-4.597,20.853-10.51,27.295c-2.998,3.266-6.677,5.869-11.02,7.959c-4.239,2.039-9.572,3.572-15.357,3.571
		c-6.138-0.001-11.271-1.33-15.765-3.214c-4.451-1.866-8.128-4.605-11.326-7.653c-3.265-3.112-5.767-6.779-7.857-11.122
		c-2.076-4.313-3.47-9.365-3.673-15.255c-0.211-6.103,1.166-11.641,3.01-15.969c3.75-8.799,10.048-15.153,18.571-19.336
		c4.185-2.054,9.247-3.621,15.306-3.623C36.942,0.032,36.976,0.033,37.01,0.032z M36.194,3.45c-0.258,0.545,0.221,1.093,0.408,1.633
		c1.355,3.918-1.542,6.427-3.622,8.061c-1.299,1.021-2.781,1.736-3.928,2.959c-1.161,1.238-2.02,2.599-2.653,4.235
		c-0.595,1.536-1.182,3.653-0.561,5.867c6.333,0.271,10.274,3.651,11.326,9.132c0.143,0.745,0.106,1.638,0.51,2.194
		c0.191,0.187,0.651,0.087,0.867,0c0.29-0.878,0.285-1.743,0.459-2.551c0.537-2.483,1.922-4.254,3.418-5.765
		c1.94-1.546,4.34-2.633,7.857-2.602c0.406-0.996,0.301-2.096,0.204-3.01c-0.317-2.996-1.49-5.142-3.061-6.938
		c-1.075-1.229-2.379-2.1-3.673-3.01c-2.081-1.465-4.699-2.998-4.745-6.275c-0.024-1.738,0.705-2.495,1.02-3.775
		C39.119,3.206,37.336,3.437,36.194,3.45z M9.817,48.908c0.055-3.571,1.05-7.113,2.143-9.745c1.183-2.85,2.661-5.206,4.54-7.347
		c1.359-1.547,3.065-3.071,4.847-4.081c0.624-0.354,1.355-0.57,1.888-1.123c-0.314-4.951,1.103-8.583,3.265-11.224
		c0.991-1.275,2.384-2.351,3.877-3.419c1.396-0.997,2.986-2.211,3.673-3.622c1.039-2.133-0.942-4.969-3.265-4.337
		c-1.583,0.431-3.055,0.723-4.438,1.225c-4.221,1.53-7.61,3.671-10.867,6.224c-2.083,1.633-3.913,3.684-5.51,5.867
		c-1.607,2.197-2.963,4.603-4.082,7.296c-2.211,5.323-3.43,12.774-2.092,19.54c1.072,5.42,3.199,10.169,5.918,13.979
		c0.348,0.488,0.816,1.31,1.428,1.327C10.246,56.276,9.755,52.959,9.817,48.908z M65.53,58.857c3.143-4.03,5.28-9.038,6.275-15.05
		c1.156-6.978-0.102-14.305-2.347-19.336c-2.308-5.174-5.513-9.758-9.693-13.01c-3.176-2.47-6.549-4.608-10.867-6.122
		c-1.419-0.498-3.051-1.197-4.643-1.071c-1.867,0.147-3.309,2.24-2.347,4.285c0.308,0.656,1.095,1.349,1.735,1.939
		c0.677,0.625,1.45,1.2,2.092,1.633c4.372,2.952,7.614,7.399,7.142,14.999c1.032,0.608,2.1,1.03,3.061,1.684
		c0.96,0.653,1.84,1.347,2.653,2.143c1.553,1.627,2.914,3.447,4.031,5.51c1.989,4.06,3.884,9.284,3.469,15.612
		c-0.175,2.669-0.761,4.965-1.275,7.347C65.189,59.51,65.368,59.063,65.53,58.857z M34.51,35.337
		c-0.361-1.529-1.194-2.783-1.99-3.775c-1.477-1.23-3.182-2.767-5.867-2.449c-0.226,1.08,0.663,1.918,1.071,2.704
		c1.161,1.801,2.777,3.274,4.694,4.286c0.636,0.337,1.331,0.805,2.142,0.765C34.825,36.4,34.618,35.796,34.51,35.337z
		 M48.744,29.368c-2.06,0.063-3.921,1.12-5.204,2.5c-0.922,0.993-1.611,2.16-1.99,3.622c-0.106,0.408-0.414,1.041,0,1.48
		c0.481,0.171,1.007-0.123,1.428-0.307c1.375-0.6,2.611-1.429,3.572-2.347c0.664-0.593,1.327-1.304,1.836-2.092
		c0.504-0.779,1.074-1.643,1.173-2.653C49.322,29.388,49.098,29.357,48.744,29.368z M32.673,38.908
		c-3.613-1.432-6.379-4.219-8.061-7.704c-0.266-0.551-0.421-1.602-1.071-1.582c-0.484,0.016-1.221,0.562-1.684,0.867
		c-3.382,2.233-5.797,5.3-7.449,8.979c-0.967,2.154-1.691,4.666-2.04,7.347c-0.383,2.942-0.188,6.122,0.357,8.724
		c1.127,5.379,3.339,8.96,6.99,11.734c3.571,2.714,8.222,4.491,13.52,5.255c5.888,0.849,11.72,0.054,16.326-1.582
		c4.657-1.654,8.46-4.228,10.765-8.01c2.339-3.838,3.77-9.332,3.112-15.306c-0.604-5.479-2.541-9.949-5.51-13.265
		c-0.74-0.921-1.568-1.773-2.5-2.5c-0.909-0.71-1.893-1.519-3.214-1.786c-0.457,0.467-0.617,1.107-0.867,1.632
		c-1.604,3.365-4.308,5.947-7.857,7.296c-0.547,0.208-1.301,0.289-1.684,0.867c0.144,1.365,0.806,2.449,1.633,3.214
		c0.721,0.667,1.575,0.948,2.347,1.479c2.39,1.647,4.213,3.852,5.408,6.684c1.251,2.964,1.396,6.996,0.255,10.254
		c-1.011,2.887-2.763,5.253-5.204,6.888c-2.54,1.7-5.371,2.848-9.438,2.602c-3.363-0.204-6.286-1.969-8.316-3.775
		c-2.141-1.906-3.784-4.609-4.388-7.755c-0.732-3.813,0.056-7.341,1.53-9.949c1.482-2.621,3.42-4.484,6.225-5.918
		c1.159-1,2.354-1.965,2.602-3.877C33.888,39.176,33.247,39.135,32.673,38.908z M37.571,39.98c-0.453,0.101-0.569,0.647-0.714,1.021
		c-1.001,2.575-2.547,4.099-4.796,5.459c-3.099,1.875-5.74,5.197-5.714,10.101c0.028,5.176,3.066,8.891,6.684,10.663
		c2.033,0.996,4.613,1.529,7.245,1.021c2.366-0.458,4.029-1.392,5.765-2.959c1.957-1.91,3.474-4.357,3.724-7.857
		c0.199-2.779-0.628-4.993-1.53-6.581c-0.923-1.624-2.169-2.976-3.673-3.98c-0.824-0.55-1.679-0.855-2.398-1.429
		c-0.658-0.524-1.294-1.206-1.837-2.041c-0.618-0.952-0.902-2.067-1.378-3.265C38.522,40.074,38.001,39.884,37.571,39.98z"/>
</g>
<g id="Layer_1">
</g>
</svg>
