<?xml version="1.0" encoding="iso-8859-1"?>
<!-- Generator: Adobe Illustrator 19.2.0, SVG Export Plug-In . SVG Version: 6.00 Build 0)  -->
<svg version="1.1" xmlns="http://www.w3.org/2000/svg" xmlns:xlink="http://www.w3.org/1999/xlink" x="0px" y="0px"
	 viewBox="0 0 80.333 81.071" style="enable-background:new 0 0 80.333 81.071;" xml:space="preserve">
<g id="Knudsen_x5F_Creamery_x5F_Company">
	<path style="fill-rule:evenodd;clip-rule:evenodd;" d="M80.144,0.163c0.232,13.428,0.148,27.105,0.148,40.687
		c-0.001,13.723,0.119,26.534-0.05,39.946c-1.626,0.269-3.298,0.148-4.938,0.148c-11.75,0.001-23.501,0.048-35.107,0.05
		c-13.36,0.002-26.767,0.202-40.045-0.05c-0.182-6.723-0.098-13.573-0.099-20.343c-0.002-19.629-0.121-40.105,0-60.24
		c0.044-0.022,0.089-0.044,0.099-0.099c16.979-0.076,33.869-0.148,50.908-0.148c2.493,0,5.137,0.06,7.456-0.049
		c3.595-0.17,7.207,0.171,10.813,0C72.933-0.107,76.566,0.112,80.144,0.163z M41.878,3.571c-0.268,1.402-0.148,2.853-0.148,4.296
		c-0.001,10.076,0.01,20.405,0.148,30.663c0.513-0.062,0.859-0.563,1.185-0.889c5.454-5.455,10.968-10.921,16.295-16.442
		c1.524-1.365,2.875-2.925,4.345-4.395c1.457-1.457,3.024-2.822,4.345-4.395c1.326-1.578,2.945-2.887,4.346-4.394
		c1.052-1.133,2.2-2.2,3.259-3.259c0.339-0.339,0.824-0.703,0.889-1.234C65.133,3.35,53.365,3.42,41.878,3.571z M24.348,3.521
		c-7.058,0-14.184-0.022-20.985,0.148c-0.151,11.625-0.202,23.825,0.05,35.206c0.649,0.261,1.401,0.148,2.073,0.148
		c8.168,0,16.359-0.073,24.393-0.099c2.896-0.01,5.77,0.149,8.542-0.099c0.192-10.311,0.049-20.216,0.049-30.811
		c0.001-1.466,0.121-2.962-0.147-4.394C33.682,3.377,29.151,3.521,24.348,3.521z M31.656,42.233
		c-9.308,0.389-19.207-0.242-28.243,0.198c-0.181,10.047-0.1,20.875-0.099,31.058c0,1.42-0.058,2.82,0.147,4.148
		c10.236,0.235,20.566-0.002,30.713,0c1.439,0,2.906,0.209,4.295-0.099c0.103-9.86,0.048-20.693,0.05-30.861
		c0.001-1.442,0.116-2.902-0.147-4.296C36.202,42.273,33.905,42.138,31.656,42.233z M41.878,42.825
		c-0.104,5.582-0.098,11.587-0.1,17.43c-0.001,5.835-0.026,11.672,0.148,17.282c11.631,0.181,23.258,0.105,34.662-0.049
		c-0.028-0.501-0.548-0.796-0.888-1.136c-0.365-0.365-0.688-0.799-1.087-1.086C72.51,73.024,70.19,71,68.195,68.649
		c-2.865-2.928-5.819-5.767-8.69-8.69c-2.852-2.835-5.781-5.683-8.739-8.641c-2.112-2.112-4.202-4.476-6.469-6.567
		c-0.584-0.539-1.653-1.751-2.321-2.074C41.914,42.697,41.875,42.741,41.878,42.825z"/>
</g>
<g id="Layer_1">
</g>
</svg>
