<?xml version="1.0" encoding="iso-8859-1"?>
<!-- Generator: Adobe Illustrator 19.2.0, SVG Export Plug-In . SVG Version: 6.00 Build 0)  -->
<svg version="1.1" xmlns="http://www.w3.org/2000/svg" xmlns:xlink="http://www.w3.org/1999/xlink" x="0px" y="0px"
	 viewBox="0 0 60.15 62.927" style="enable-background:new 0 0 60.15 62.927;" xml:space="preserve">
<g id="Kodak_x5F_Paris">
	<path style="fill-rule:evenodd;clip-rule:evenodd;" d="M60.128,0.445c-0.211,0.541-0.949,0.333-1.378,0.333
		c-3.923,0-7.809-0.047-11.599-0.047c-4.512,0-9.1-0.085-13.357,0.095c0.277,0.433,0.833,0.557,1.283,0.76
		c0.904,0.409,1.686,0.946,2.52,1.569c0.44,0.329,0.845,0.712,1.236,0.808c0.686,0.168,1.74,0.048,2.662,0.048
		c6.139,0,11.815,0.047,17.683,0.047c0.286,0,0.999-0.178,0.951,0.428c0.011,0.544-0.644,0.38-0.951,0.38
		c-6.333,0-13.298-0.055-19.394,0.047c0.099,0.666,0.752,1.117,1.141,1.664c0.309,0.435,0.552,1.212,0.999,1.379
		c0.483,0.18,1.578,0.047,2.282,0.047c2.32,0,4.701-0.082,6.893,0c2.379,0.089,4.532,0.012,6.845,0.047
		c0.723,0.011,1.514-0.161,2.139,0.191c0.381,1.073-0.869,0.855-1.949,0.855c-4.979,0-10.807-0.12-15.591,0.047
		c-0.123,0.51,0.229,0.968,0.38,1.426c0.158,0.477,0.2,1.016,0.476,1.426c4.594,0.146,9.761,0.096,14.688,0.096
		c0.658,0,1.348-0.108,1.949,0.142c0.125,0.254,0.148,0.846,0,1.093c-1.124,0.253-2.658,0.143-4.088,0.143
		c-3.415,0-6.638-0.203-10.315-0.048c-0.568,0.024-1.7-0.008-1.901,0.19c-0.402,0.395,0.003,1.731,0.048,2.139
		c1.282,0.268,2.666,0.128,4.041,0.143c3.855,0.04,8.187-0.008,12.169,0.143c0.176,0.353,0.171,0.977,0.048,1.378
		c-1.898,0.223-3.959,0.095-6.085,0.095c-3.3,0-6.844-0.039-10.125,0.047c-0.381,0.417-0.442,1.388-0.428,2.044
		c0.62,0.258,1.334,0.143,1.996,0.143c4.758,0,9.858,0.098,14.546,0.142c0.229,0.299,0.195,1.296,0.047,1.664
		c-5.62,0.213-11.976-0.077-17.208,0.143c-0.458,0.445-0.71,1.096-0.951,1.758c0.521,0.488,1.343,0.271,2.044,0.238
		c2.26-0.107,4.621,0.073,6.893,0.095c3.052,0.03,6.241-0.204,9.222,0.047c0.144,0.394,0.158,1.32,0,1.711
		c-5.282,0.051-11.449,0.095-17.065,0.095c-0.802,0-1.706-0.135-2.424,0c-0.427,0.08-0.644,0.453-0.951,0.761
		c-0.283,0.283-0.697,0.515-0.713,0.951c0.83,0.271,1.727,0.114,2.614,0.143c2.644,0.083,5.425,0.047,8.129,0.047
		c3.678,0,7.16-0.143,10.41,0.142c0.153,0.415,0.153,1.392,0,1.806c-7.02,0.158-14.435,0.096-21.629,0.095
		c-1.047,0-2.356-0.193-3.232,0.048c-0.668,0.183-1.368,0.56-2.14,0.76c-0.75,0.194-1.558,0.376-2.091,0.808
		c2.343,0.276,4.775,0.19,7.226,0.19c7.262,0,14.715-0.136,21.866,0.095c0.141,0.48,0.159,1.472,0,1.949
		c-0.726,0.254-1.525,0.143-2.282,0.143c-5.378,0-10.956-0.072-16.352,0c-2.978,0.039-6.034-0.17-9.08-0.047
		c-2.243,0.089-4.616,0.066-6.845,0.047c-0.818-0.007-1.772-0.243-2.472-0.047c-0.522,0.146-1.037,0.351-1.521,0.618
		c-0.435,0.24-0.998,0.466-1.236,0.903c0.553,0.205,1.182,0.126,1.759,0.143c4.511,0.125,9.127,0.047,13.69,0.047
		c6.732,0,13.334,0.048,20.013,0.047c1.468,0,2.924-0.163,4.326,0.095c0.054,0.648,0.132,1.71-0.047,2.282
		c-10.762,0.161-21.406-0.047-32.039-0.047c-2.611,0-5.568,0.068-8.081,0c-1.846-0.05-3.518-0.271-3.708,1.283
		c0.858,0.252,1.775,0.143,2.662,0.143c13.507,0.001,27.482,0.214,41.166,0.238c0.208,0.678,0.127,1.777,0.047,2.472
		c-1.476,0.274-3.021,0.125-4.563,0.095c-4.606-0.091-9.415,0.032-14.118,0.095c-0.015,0.357,0.654,0.934,1.046,1.046
		c0.536,0.153,1.501,0.078,2.234,0.047c2.102-0.086,4.49,0.048,6.608,0.047c3.083,0,5.961-0.05,8.746,0.095
		c0.159,0.711,0.153,2.045,0,2.757c-4.596,0.1-9.719,0.186-14.356,0.095c-0.554-0.011-1.44-0.294-1.616,0.38
		c0.146,0.72,1.074,0.417,1.616,0.428c4.353,0.091,10.021-0.08,14.356,0.19c0.202,0.826,0.117,1.904,0.047,2.805
		c-1.28,0.266-2.771,0.095-4.278,0.095c-3.735,0-7.29,0-11.218,0c-0.692,0-1.462-0.016-1.521,0.761
		c0.628,0.26,1.356,0.143,2.044,0.143c3.53,0,7.213,0.047,10.838,0.047c1.427,0,2.808-0.063,4.088,0.143
		c0.158,0.957,0.146,2.434,0,3.28c-5.703,0.259-11.513-0.023-17.018,0.095c-7.848,0.169-16.846-0.19-25.289-0.19
		c-0.46,0-0.956,0-1.426,0c-0.393,0-0.905-0.136-1.236,0.19c0.03,0.574,0.637,0.38,0.998,0.38
		c6.834,0.003,13.986,0.143,21.153,0.143c6.673,0,13.37,0.047,20.107,0.048c0.891,0,1.841-0.109,2.71,0.143
		c0.131,0.901,0.207,2.501-0.048,3.327c-12.949,0.223-25.988-0.048-39.264-0.047c-0.82,0-1.646-0.124-2.424,0.095
		c0.323,0.275,0.808,0.19,1.188,0.19c6.221,0,12.922,0.143,19.489,0.143c7.109,0,14.214-0.065,21.011,0.143
		c0.289,1.033,0.096,2.735,0,3.851c-2.454,0.182-4.963,0.095-7.463,0.095c-7.425,0-15.09-0.095-22.627-0.095
		c-10.095,0-19.96-0.05-29.757-0.19c-0.096-15.658,0-31.375,0-47.155c0-3.86-0.031-7.578,0.095-11.599
		C0.177,2.62,0.03,1.342,0.328,0.113C1.732-0.106,4.019,0.06,5.605,0.065c6.874,0.022,13.814,0.048,20.535,0.048
		c2.31,0,4.643,0.047,6.94,0.047c7.795,0,15.526,0.047,23.815,0.047c0.57,0,1.132,0.021,1.711,0.047
		C59.081,0.277,59.696,0.094,60.128,0.445z M16.68,13.327c-0.388,0.645-0.857,2.088-0.808,3.09c0.167,3.431,3.634,6.238,7.273,5.087
		c2.069-0.655,4.147-2.799,3.85-5.847c-0.172-1.77-1.234-3.224-2.329-3.993c-0.95-0.667-2.174-1.053-3.803-0.903
		C18.729,10.957,17.423,12.09,16.68,13.327z M22.765,41.754c-1.349,0-2.694,0.048-3.993,0c-1.354-0.051-2.774-0.188-3.945-0.048
		c-0.535,0.064-0.759,0.37-0.761,1.046c1.458,0.261,3.003,0.088,4.659,0.095c4.071,0.016,8.726,0.095,12.93,0.095
		c0.642,0,1.353,0.13,1.853,0.048c0.453-0.075,1.149-0.706,1.188-1.046C30.851,41.776,26.942,41.753,22.765,41.754z M15.539,46.84
		c2.424,0,4.736,0,7.178,0c2.423,0,4.825,0,7.273,0c0.441,0,2.023,0.234,1.902-0.523c-0.06-0.377-0.641-0.331-1.046-0.333
		c-5.67-0.03-10.907-0.023-16.447,0.047c-0.5,0.006-1.1-0.069-0.999,0.618C13.946,47.001,14.784,46.84,15.539,46.84z M14.969,49.882
		c-0.396,0-1.332-0.082-1.426,0.285c-0.211,0.824,1.076,0.653,1.807,0.618c0.854-0.041,1.81-0.047,2.519-0.047
		c4.324,0,8.199-0.055,12.597,0.047c0.354,0.008,2.131,0.162,2.234-0.237c0.189-0.735-1.222-0.682-1.664-0.666
		C25.671,50.081,20.153,49.882,14.969,49.882z"/>
</g>
<g id="Layer_1">
</g>
</svg>
