<?xml version="1.0" encoding="iso-8859-1"?>
<!-- Generator: Adobe Illustrator 21.0.2, SVG Export Plug-In . SVG Version: 6.00 Build 0)  -->
<svg version="1.1" xmlns="http://www.w3.org/2000/svg" xmlns:xlink="http://www.w3.org/1999/xlink" x="0px" y="0px"
	 viewBox="0 0 13.353 13.359" style="enable-background:new 0 0 13.353 13.359;" xml:space="preserve">
<g id="Kohlenversorgungs">
	<path d="M0.002,0.003C4.453-0.002,8.903,0.004,13.353,0c0,4.453,0,8.906,0,13.359c-3.51-0.013-7.02-0.002-10.53-0.005
		C1.882,13.356,0.941,13.349,0,13.358C0.002,8.906-0.002,4.454,0.002,0.003z M5.659,0.878c-0.06,0.071-0.129,0.134-0.194,0.201
		C5.147,1.47,4.761,1.799,4.418,2.168c-0.385,0.464-0.86,0.846-1.243,1.311c-0.29,0.296-0.586,0.585-0.875,0.882
		C1.915,4.826,1.441,5.209,1.055,5.672c-0.301,0.31-0.609,0.613-0.913,0.92C0.096,6.638,0.066,6.695,0.031,6.749
		C0.154,6.909,0.318,7.03,0.436,7.194C0.539,7.331,0.679,7.435,0.785,7.57c0.118,0.172,0.292,0.295,0.416,0.463
		C1.317,8.182,1.469,8.299,1.58,8.453c0.115,0.151,0.274,0.263,0.382,0.42c0.107,0.146,0.26,0.25,0.365,0.398
		c0.115,0.163,0.287,0.275,0.397,0.441c0.13,0.161,0.299,0.288,0.414,0.463c0.229,0.217,0.416,0.473,0.646,0.691
		c0.133,0.195,0.327,0.336,0.464,0.527c0.108,0.133,0.244,0.24,0.348,0.376c0.115,0.151,0.264,0.272,0.38,0.422
		c0.113,0.144,0.253,0.261,0.372,0.399c0.664,0.005,1.328-0.005,1.991,0.005c-1.113-1.223-2.196-2.474-3.301-3.704
		C3.392,8.148,2.723,7.423,2.084,6.673C2.299,6.452,2.52,6.237,2.734,6.016C2.853,5.857,3,5.723,3.138,5.582
		c0.404-0.423,0.84-0.815,1.222-1.258c0.412-0.415,0.823-0.831,1.237-1.244c0.52-0.608,1.141-1.125,1.662-1.732
		c0.156-0.156,0.312-0.312,0.464-0.472C7.035,0.878,6.347,0.873,5.659,0.878z M2.54,6.726c0.12,0.182,0.304,0.309,0.426,0.49
		C3.284,7.537,3.562,7.894,3.88,8.215C4.01,8.4,4.192,8.539,4.323,8.723c0.433,0.459,0.837,0.944,1.271,1.401
		c0.125,0.177,0.301,0.311,0.425,0.49c0.204,0.192,0.365,0.423,0.57,0.615c0.098,0.141,0.226,0.256,0.342,0.382
		c0.135,0.193,0.326,0.337,0.462,0.529c0.157,0.143,0.276,0.319,0.427,0.468c0.096-0.087,0.181-0.186,0.259-0.289
		c0.188-0.207,0.403-0.388,0.576-0.609c0.173-0.196,0.371-0.368,0.543-0.564c0.182-0.236,0.416-0.425,0.612-0.648
		c0.174-0.231,0.401-0.413,0.592-0.629c0.174-0.231,0.399-0.415,0.593-0.628c0.181-0.248,0.427-0.438,0.627-0.67
		c0.18-0.237,0.415-0.424,0.608-0.65c0.175-0.23,0.405-0.411,0.594-0.629c0.147-0.203,0.347-0.359,0.511-0.548
		c-0.637-0.023-1.277-0.003-1.914-0.009c-0.135,0.099-0.246,0.236-0.364,0.356c-0.167,0.237-0.414,0.404-0.579,0.642
		c-0.131,0.148-0.283,0.277-0.413,0.427C9.911,8.382,9.68,8.539,9.522,8.759C9.363,8.955,9.154,9.106,9.01,9.315
		C8.849,9.497,8.656,9.65,8.513,9.848c-0.188,0.204-0.396,0.39-0.562,0.613c-0.207-0.209-0.387-0.442-0.595-0.65
		C7.247,9.656,7.099,9.534,6.976,9.391c-0.11-0.167-0.28-0.283-0.392-0.449C6.335,8.67,6.086,8.397,5.846,8.117
		C5.665,7.952,5.532,7.745,5.35,7.58C5.218,7.397,5.04,7.254,4.907,7.071c-0.098-0.12-0.224-0.214-0.316-0.34
		C3.908,6.732,3.224,6.742,2.54,6.726z"/>
</g>
<g id="Layer_1">
</g>
</svg>
