<?xml version="1.0" encoding="iso-8859-1"?>
<!-- Generator: Adobe Illustrator 19.2.0, SVG Export Plug-In . SVG Version: 6.00 Build 0)  -->
<svg version="1.1" xmlns="http://www.w3.org/2000/svg" xmlns:xlink="http://www.w3.org/1999/xlink" x="0px" y="0px"
	 viewBox="0 0 70.79 71.849" style="enable-background:new 0 0 70.79 71.849;" xml:space="preserve">
<g id="Komeito">
	<path style="fill-rule:evenodd;clip-rule:evenodd;" d="M70.502,0.209c0.265,0.951,0.146,1.965,0.146,2.932
		c0,6.873,0.048,13.703,0.049,20.82c0,8.082,0.114,16.257-0.099,23.947c-0.347-0.651-0.378-1.407-0.488-2.101
		c-0.345-2.177-0.822-4.339-1.368-6.402c-0.37-1.399-0.686-2.74-1.124-4.057c-3.856-11.569-9.9-20.957-17.79-28.688
		c-2.562-2.512-5.744-4.436-10.067-5.425C31.565-0.64,24.829,2.873,20.749,6.953c-1.729,1.731-3.385,3.489-4.936,5.376
		c-1.55,1.885-2.928,3.958-4.301,6.011c-2.775,4.15-5.099,8.719-6.989,13.685c-1.44,3.783-2.575,7.653-3.421,12.071
		c-0.268,1.403-0.446,2.864-0.831,4.301c-0.226-0.401-0.175-0.931-0.195-1.368c-0.165-3.484,0-7.174,0-10.752
		c0-2.053,0-4.121,0-6.158C0.075,21.315,0.027,12.438,0.027,3.044c0-0.945-0.12-1.953,0.146-2.884
		c1.354-0.289,3.31-0.098,5.034-0.098c2.88,0,5.761-0.049,8.748-0.049C32.596,0.013,51.969,0.061,70.502,0.209z"/>
	<path style="fill-rule:evenodd;clip-rule:evenodd;" d="M70.648,71.71c-5.706,0.239-11.554,0.098-17.448,0.098
		c-5.851,0-11.753,0-17.643,0c-11.843,0-23.77,0.006-35.384-0.195c-0.09-1.513-0.049-2.976-0.049-4.35
		c0-1.409,0.227-2.614,0.538-3.861c0.587-2.355,1.253-4.593,2.149-6.598c0.888-1.982,2.058-3.778,3.226-5.522
		c3.542-5.287,8.309-9.194,14.173-12.072c1.956-0.959,4.144-1.814,6.402-2.346c1.169-0.275,2.411-0.562,3.666-0.733
		c3.885-0.531,8.81-0.357,12.462,0.44c7.554,1.649,12.977,5.104,17.644,9.481c3.122,2.928,5.51,6.524,7.478,10.605
		c0.473,0.981,0.748,2.218,1.173,3.372C70.198,63.189,71.163,67.266,70.648,71.71z"/>
</g>
<g id="Layer_1">
</g>
</svg>
