<?xml version="1.0" encoding="iso-8859-1"?>
<!-- Generator: Adobe Illustrator 19.2.0, SVG Export Plug-In . SVG Version: 6.00 Build 0)  -->
<svg version="1.1" xmlns="http://www.w3.org/2000/svg" xmlns:xlink="http://www.w3.org/1999/xlink" x="0px" y="0px"
	 viewBox="0 0 77.716 53.917" style="enable-background:new 0 0 77.716 53.917;" xml:space="preserve">
<g id="Konishiroku_x5F_Photo_x5F_Industry">
	<path style="fill-rule:evenodd;clip-rule:evenodd;" d="M38.615,2.858c-7.528,0.421-12.747,3.103-16.789,7.148
		c-3.865,3.865-6.999,9.337-6.999,16.887c-0.001,7.653,3.166,12.883,6.95,16.985c0.896,0.97,2.097,1.893,3.28,2.691
		c3.519,2.38,7.833,4.208,13.51,4.405c-0.241,0.4-0.765,0.564-1.175,0.734c-2.953,1.232-6.843,2.297-11.062,2.106
		c-2.502-0.114-4.608-0.345-6.657-0.931c-4.003-1.143-7.069-2.802-9.937-5.188c-4.033-3.356-7.353-8.112-8.86-13.852
		c-1.127-4.297-1.154-9.172-0.147-13.46c0.924-3.934,2.846-7.499,4.993-10.133C9.187,6,13.346,2.775,19.231,1.047
		c3.863-1.134,9.471-1.357,13.803-0.392c1.536,0.342,3.031,0.868,4.406,1.468C37.849,2.302,38.388,2.447,38.615,2.858z"/>
	<path style="fill-rule:evenodd;clip-rule:evenodd;" d="M39.006,50.974c6.107-0.237,10.484-2.114,14.097-4.797
		c3.135-2.327,6.008-5.762,7.636-9.594c0.98-2.305,1.682-5.052,1.909-7.978c0.234-3.014-0.149-6.104-0.979-8.762
		c-1.904-6.097-5.831-10.773-10.916-13.754c-3.058-1.794-6.872-2.951-11.552-3.231c0.238-0.363,0.7-0.516,1.077-0.684
		c1.984-0.893,4.368-1.533,6.902-1.909c5.961-0.885,11.713,0.567,15.811,2.643c3.42,1.732,6.24,4.031,8.566,6.804
		c2.221,2.648,4.24,6.171,5.286,10.083c1.119,4.188,1.171,9.221,0.098,13.656c-1.938,8.006-6.962,13.688-13.461,17.279
		c-3.209,1.773-7.387,3.086-12.188,3.182c-4.227,0.084-7.993-0.866-11.111-2.203C39.775,51.535,39.257,51.365,39.006,50.974z"/>
</g>
<g id="Layer_1">
</g>
</svg>
