<?xml version="1.0" encoding="iso-8859-1"?>
<!-- Generator: Adobe Illustrator 19.2.0, SVG Export Plug-In . SVG Version: 6.00 Build 0)  -->
<svg version="1.1" xmlns="http://www.w3.org/2000/svg" xmlns:xlink="http://www.w3.org/1999/xlink" x="0px" y="0px"
	 viewBox="0 0 71.006 77.712" style="enable-background:new 0 0 71.006 77.712;" xml:space="preserve">
<g id="Konyvertekesito_x5F_Vallalat">
	<path style="fill-rule:evenodd;clip-rule:evenodd;" d="M70.572,0.037c0.021,0.043,0.043,0.088,0.099,0.098
		c0.179,7.876,0.104,15.63,0.148,23.81c0.007,1.261,0.03,2.555,0,3.829c-0.033,1.382,0.111,2.726,0,4.074
		c-1.415,1.724-3.05,3.086-4.663,4.762c-1.045,1.083-2.326,2.311-3.486,3.584c-0.327,0.36-1.016,0.872-1.03,1.276
		c-0.016,0.397,0.669,1.014,1.03,1.374c2.446,2.447,4.658,4.608,7.119,7.119c0.403,0.412,0.958,0.804,1.08,1.276
		c0.201,0.789,0.136,2.347,0.098,3.24c-0.13,3.09-0.049,6.696,0,9.868c0.062,4.141-0.002,8.526-0.05,12.96
		c-1.283,0.336-2.771,0.196-4.32,0.196c-7.42,0-14.741,0.049-22.188,0.049c-2.932,0.001-5.878,0.159-8.788,0.049
		c-2.905-0.108-5.896-0.091-8.836,0.049c-2.924,0.139-5.914,0-8.836,0C12.008,77.65,6.1,77.741,0.323,77.552
		c-0.221-1.526-0.057-3.092-0.098-4.663c-0.204-7.825-0.099-16.328-0.098-24.299C0.127,32.508-0.122,16.558,0.078,0.381
		c5.194-0.208,10.67-0.147,16.593-0.147c3.815,0,8.108-0.049,12.371-0.049c1.411,0,2.957-0.157,3.928,0.245
		c1.022,0.423,1.468,1.25,2.258,1.963c0.86-0.69,1.361-1.895,2.601-2.16c0.958-0.205,2.073-0.099,3.142-0.099
		c5.254,0,10.618-0.049,16.053-0.049C61.806,0.087,65.97-0.069,70.572,0.037z M56.335,5.241c-3.579-0.023-7.297,0.144-10.849,0.049
		c-1.732-0.046-3.559-0.178-5.253,0.049c-1.915,0.256-3.492,2.036-4.025,3.583c-0.218,0.632-0.28,1.896-0.785,1.915
		c-0.546,0.021-0.704-1.193-0.786-1.472c-0.523-1.786-1.689-2.944-3.142-3.633c-0.973-0.461-2.619-0.393-4.124-0.393
		c-3.392,0-5.824-0.048-8.984,0c-4.56,0.07-8.964-0.022-13.451,0.197c-0.075,16.82-0.121,33.629,0.098,50.417
		c0.073,5.605-0.165,11.22,0.147,16.789c20.544,0.204,41.281,0.059,61.119-0.147c0.318-1.603,0.102-3.2,0.098-4.762
		c-0.007-4.084,0-7.645,0-11.88c0-0.833,0.119-1.8-0.048-2.455c-0.146-0.57-0.826-1.038-1.326-1.571
		c-1.471-1.567-2.941-2.959-4.369-4.418c-1.389-1.419-2.942-2.894-4.418-4.369c-0.432-0.431-1.377-1.058-1.374-1.57
		c0.002-0.542,0.972-1.268,1.276-1.571c0.543-0.544,1.043-1.062,1.472-1.424c2.105-2.227,4.354-4.341,6.431-6.529
		c0.7-0.737,1.52-1.385,2.062-2.258c-0.061-2.253,0.128-4.472-0.098-6.578c-3.547-0.206-7.61-0.085-11.242-0.049
		c-1.086,1.04-2.252,2.059-3.191,3.24c-0.94,1.182-2.126,2.176-3.19,3.24c-2.152,2.152-4.19,4.417-6.431,6.48
		c-1.065,1.08-2.187,2.187-3.24,3.24c-0.329,0.328-0.647,0.921-1.228,0.835c-0.249-0.925-0.149-1.96-0.196-2.995
		c-0.097-2.121,0-4.347,0-6.431c0-1.118-0.115-2.235,0-3.24c0.182-1.581,1.398-2.752,2.455-3.387
		c0.377-0.228,0.997-0.294,1.129-0.834c-5.557-0.156-11.259-0.152-16.593,0.049c-0.24,1.167-0.181,2.404-0.147,3.632
		c0.034,1.257,0,2.551,0,3.829c0,6.271,0.098,13.109,0.098,19.244c0,1.264-0.094,2.524,0.098,3.731
		c0.918,0.265,1.968,0.147,2.945,0.147c1.06,0,2.108,0,3.093,0c2.048,0,3.632-0.451,4.762-1.424c1.136-0.979,1.958-2.383,2.16-4.025
		c0.108-0.88,0.049-1.987,0.049-3.043c0-1.044-0.176-2.154,0.295-2.799c0.69,0.295,1.206,0.913,1.718,1.424
		c2.104,2.104,4.265,4.268,6.235,6.431c1.523,1.672,3.251,3.108,4.712,4.811c1.029,1.082,2.007,2.215,3.093,3.24
		c0.216,0.442,0.884,0.682,0.834,1.227c-11.505,0.236-23.233,0.196-34.707,0.197c-0.747,0-1.547,0.118-2.258-0.147
		c-0.115-13.839-0.25-27.793-0.098-41.679c16.21-0.271,32.448-0.039,48.796-0.344c0.208-4.121,0.201-8.366-0.049-12.518
		C62.763,4.974,59.73,5.263,56.335,5.241z"/>
</g>
<g id="Layer_1">
</g>
</svg>
