<?xml version="1.0" encoding="iso-8859-1"?>
<!-- Generator: Adobe Illustrator 19.2.0, SVG Export Plug-In . SVG Version: 6.00 Build 0)  -->
<svg version="1.1" xmlns="http://www.w3.org/2000/svg" xmlns:xlink="http://www.w3.org/1999/xlink" x="0px" y="0px"
	 viewBox="0 0 76.647 75.408" style="enable-background:new 0 0 76.647 75.408;" xml:space="preserve">
<g id="Kossuth_x5F_Konykiado">
	<path style="fill-rule:evenodd;clip-rule:evenodd;" d="M76.295,0.148c0.277,12.489,0.116,25.039,0.254,37.525
		c0.069,6.345-0.138,12.684,0.051,18.94c0.021,0.756-0.103,1.523-0.051,2.285c0.141,2.099,0.051,4.629,0.051,7.007
		c0,3.104,0.155,6.19-0.102,9.191c-3.078,0.186-6.181,0.102-9.293,0.102c-9.279-0.001-18.543,0.185-27.826,0.05
		c-0.262-24.549-0.298-50.451-0.254-74.999c1.014-0.256,2.109-0.173,3.148-0.152c5.16,0.102,10.813-0.052,16.046-0.051
		C64.551,0.047,70.338-0.109,76.295,0.148z M49.281,0.808c-2.169,0-4.306,0.122-6.347,0.051c-1.02-0.036-2.07-0.198-3.047,0.102
		c-0.104,11.753-0.113,24.555,0.102,36.408c0.57,0.012,0.9-0.578,1.219-0.914c1.117-1.178,2.223-2.274,3.352-3.402
		c3.01-3.01,5.965-6.031,8.835-9.14c1.444-1.565,3.017-3.015,4.468-4.57c0.363-0.389,0.642-0.844,1.017-1.219
		C64.1,12.901,69.176,7.318,74.366,2.128c0.342-0.343,0.877-0.717,0.914-1.27C66.612,0.633,57.735,0.809,49.281,0.808z
		 M39.938,38.13c-0.072,0.637-0.066,1.476-0.051,2.285c0.164,8.349,0.102,16.934,0.102,25.084c0,3.099-0.102,6.119,0.152,8.938
		c5.722,0.263,11.648,0.049,17.569,0.051c5.925,0.001,11.933-0.002,17.772-0.152c-0.031-0.541-0.533-0.939-0.863-1.27
		c-2.633-2.634-5.221-5.236-7.77-7.922c-2.173-2.289-4.495-4.545-6.703-6.753c-0.77-0.771-1.414-1.617-2.132-2.387
		c-1.412-1.514-2.964-2.969-4.469-4.469c-3.765-3.75-7.384-7.507-11.12-11.323c-0.688-0.701-1.674-1.95-2.336-2.234
		C40.017,38.006,39.966,38.057,39.938,38.13z"/>
	<path style="fill-rule:evenodd;clip-rule:evenodd;" d="M37.297,0.249C37.504,6.405,37.5,12.724,37.5,18.987
		c-0.001,18.545,0.183,37.439,0.051,56.262c-12.264,0.28-24.762,0.12-37.17,0.052c-0.271-1.444-0.152-3.051-0.152-4.672
		c0.001-22.516-0.204-45.665-0.203-68.5c0-0.771-0.19-1.919,0.457-1.98c1.328-0.127,3.18,0.028,4.723,0
		c4.488-0.082,9.238,0.015,13.761,0.051C25.066,0.247,31.12-0.004,37.297,0.249z M5.358,33.103
		c-1.015,1.009-2.199,2.301-3.301,3.402c-0.371,0.371-1.022,0.837-1.016,1.219c0.004,0.243,0.682,0.888,1.016,1.219
		c0.459,0.456,0.783,0.834,1.117,1.168c3.064,3.064,6.089,6.029,8.938,9.14c1.457,1.593,2.962,3.089,4.468,4.57
		c0.763,0.75,1.439,1.591,2.184,2.336c5.677,5.674,11.19,11.495,16.808,17.112c0.34,0.34,0.716,0.885,1.27,0.914
		c0.123-17.95-0.051-37.015-0.051-54.79c0-5.112-0.102-10.669-0.102-16.097c0-0.353,0.203-2.182-0.355-2.031
		C25.967,11.839,15.792,22.6,5.358,33.103z"/>
</g>
<g id="Layer_1">
</g>
</svg>
