<?xml version="1.0" encoding="iso-8859-1"?>
<!-- Generator: Adobe Illustrator 19.2.0, SVG Export Plug-In . SVG Version: 6.00 Build 0)  -->
<svg version="1.1" xmlns="http://www.w3.org/2000/svg" xmlns:xlink="http://www.w3.org/1999/xlink" x="0px" y="0px"
	 viewBox="0 0 75.974 76.691" style="enable-background:new 0 0 75.974 76.691;" xml:space="preserve">
<g id="Kulturmarkt_x5F_Dillingen">
	<path style="fill-rule:evenodd;clip-rule:evenodd;" d="M75.863,35.238c-1.918,0.194-4.612,0.109-6.452,0.051
		c-0.412-0.746-0.305-1.599-0.453-2.369c-0.437-2.262-1.043-4.47-1.865-6.452c-3.219-7.761-8.958-13.373-16.381-16.934
		C46.11,7.325,38.2,6.036,31.761,7.467c-6.08,1.35-10.943,3.888-14.817,7.358c-2.454,2.325-4.756,5.063-6.502,8.316
		c-1.646,3.064-3.016,7.108-3.528,11.29c-0.603,4.915,0.142,9.484,1.209,13.307c0.264,0.942,0.716,1.813,1.009,2.722
		c0.873,2.707,2.427,4.973,3.981,7.056c3.218,4.162,7.248,7.465,12.5,9.727c2.429,1.047,5.397,2.09,8.669,2.42
		c3.229,0.325,6.936,0.402,10.232-0.354c8.749-2.006,15.466-6.888,19.758-13.507c1.46-2.252,2.851-4.698,3.528-7.56
		c-0.275-0.349-0.839-0.28-1.311-0.303c-1.505-0.07-3.164,0.029-4.587,0.051c-0.533,0.524-0.736,1.265-1.059,1.915
		c-0.96,1.94-2.158,3.791-3.528,5.394c-3.107,3.354-6.83,6.016-11.693,7.61c-2.5,0.82-5.595,1.251-8.518,1.108
		c-2.903-0.142-5.642-0.804-7.963-1.663c-4.51-1.669-8.343-4.573-11.14-8.165c-2.848-3.657-4.89-8.174-5.393-13.86
		c-0.417-4.718,0.775-8.952,2.116-12.298c0.451-1.124,0.988-2.242,1.613-3.176c3.974-5.934,8.969-10.164,17.137-11.744
		c2.752-0.532,5.893-0.523,8.82,0c5.433,0.97,9.534,3.25,12.803,6.452c2.019,1.862,3.906,4.018,5.241,6.603
		c1.322,2.559,2.541,5.481,2.772,8.972c-0.706,0.35-1.548,0.201-2.318,0.201c-4.938,0.001-9.879-0.05-14.919-0.05
		c-0.859,0-1.81,0.143-2.47,0c-0.45-0.098-0.577-0.494-0.907-0.857c-1.184-1.299-3.348-2.365-5.897-1.814
		c-3.297,0.712-5.706,4.982-3.83,8.517c1.521,2.87,5.743,4.517,9.072,2.017c0.299-0.292,0.557-0.535,0.856-0.907
		c0.218-0.271,0.503-0.771,0.857-0.857c0.466-0.112,1.184,0,1.765,0c1.128,0,2.222,0.001,3.377,0c0.536,0,1.126-0.106,1.562,0.151
		c0.059,1.543-0.766,2.747-1.411,3.78c-1.931,3.088-5.182,5.614-9.829,5.947c-3.419,0.245-6.152-0.939-8.215-2.318
		c-1.935-1.292-3.791-3.577-4.587-5.947c-0.478-1.423-0.857-2.754-0.857-4.436c0-4.991,2.315-8.322,5.241-10.533
		c2.039-1.541,4.537-2.604,8.014-2.521c1.632,0.039,3.107,0.503,4.285,1.008c0.571,0.245,1.205,0.52,1.764,0.857
		c0.515,0.311,1.103,0.997,1.764,1.108c1.122,0.189,2.47,0,3.68,0c1.221,0,2.426,0.082,3.528-0.101
		c0.077-0.472-0.305-0.871-0.555-1.21c-1.811-2.457-4.036-4.464-6.955-5.896c-3.293-1.617-8.06-2.259-12.399-1.31
		c-3.753,0.819-7.034,2.98-9.324,5.392c-2.394,2.523-4.173,5.858-4.889,9.828c-0.825,4.573,0.235,9.03,1.966,12.147
		c1.821,3.283,4.266,5.705,7.258,7.459c1.455,0.854,3.391,1.626,5.342,2.017c1.598,0.319,3.201,0.43,4.939,0.403
		c2.79-0.043,5.275-0.904,7.359-1.814c1.631-0.713,3.063-1.803,4.284-3.024c2.973-2.622,4.957-6.232,5.947-10.837
		c6.135-0.277,12.819-0.133,19.254,0c0.205,1.022-0.01,2.081-0.151,3.075c-0.997,6.981-3.924,12.611-7.359,17.187
		c-2.92,3.894-6.736,7.229-11.239,9.829c-4.458,2.573-9.663,4.636-16.078,4.989c-14.07,0.775-23.235-4.747-30.342-11.542
		c-3.115-3.68-6.241-7.846-8.115-12.953C1.957,50.43,1.3,48.626,0.915,46.78c-0.819-3.933-1.175-8.499-0.706-12.953
		c0.209-1.98,0.731-3.97,1.21-5.796c0.492-1.88,1.088-3.648,1.865-5.142c1.434-3.748,3.687-6.898,6.048-9.778
		c0.264-0.321,0.474-0.709,0.756-1.008c3.955-4.184,8.791-7.482,14.768-9.728c2.604-0.978,5.323-1.611,8.468-2.066
		c6.786-0.982,14.145,0.502,19.053,2.621c8.816,3.807,15.151,9.708,19.505,17.893c1.879,3.532,3.275,7.654,3.932,12.449
		C75.899,33.9,76.1,34.595,75.863,35.238z"/>
</g>
<g id="Layer_1">
</g>
</svg>
