<?xml version="1.0" encoding="iso-8859-1"?>
<!-- Generator: Adobe Illustrator 19.2.0, SVG Export Plug-In . SVG Version: 6.00 Build 0)  -->
<svg version="1.1" xmlns="http://www.w3.org/2000/svg" xmlns:xlink="http://www.w3.org/1999/xlink" x="0px" y="0px"
	 viewBox="0 0 81.711 83.21" style="enable-background:new 0 0 81.711 83.21;" xml:space="preserve">
<g id="kulturelles_x5F_zentrum_x5F_der_x5F_sonja_x5F_henie_x5F_niels">
	<path style="fill-rule:evenodd;clip-rule:evenodd;" d="M44.804,24.964c0.333,0.501,0.203,1.162,0.203,1.723
		c0,8.158,0.015,16.713,0,24.885c-0.002,1.165,0.218,2.558,0,3.497c-0.19,0.817-1.011,1.085-1.419,1.774
		c-0.96,1.169-2.065,2.191-2.99,3.396c-0.439,0.608-1.165,0.93-1.318,1.825c0.367,0.512,1.084,0.396,1.571,0.406
		c3.105,0.061,5.898-0.751,8.109-1.724c0.883-0.388,1.663-0.979,2.433-1.47c3.273-2.084,5.494-5.141,7.146-8.565
		c1.762-3.651,2.511-8.669,1.521-13.177c-0.903-4.109-3.007-7.568-5.575-10.137c-0.671-0.671-1.315-1.324-2.078-1.875
		c-0.75-0.542-1.55-1.002-2.332-1.571c-1.34-0.977-3.812-1.822-5.727-2.128c-4.989-0.799-9.653,0.307-13.026,2.179
		c-3.424,1.901-5.882,4.584-7.704,8.008c-0.928,1.745-1.721,3.509-2.078,5.778c-0.308,1.955-0.163,3.543,0.304,5.22
		c0.14,0.504,0.398,1.085,0.355,1.571c-0.073,0.831-1.386,1.887-1.875,2.433c-0.741,0.826-1.368,1.518-2.078,2.23
		c-2.504,2.862-5.115,5.602-7.653,8.464c-0.838,0.945-1.902,1.725-2.483,2.889c-0.432,0.359-0.606,0.684-1.014,1.115
		c-0.264,0.279-0.776,0.94-1.216,0.912c-0.58-0.037-1.165-1.493-1.419-2.027c-1.123-2.359-1.981-4.807-2.788-7.4
		c-0.549-1.764-0.887-3.668-1.216-5.625c-0.647-3.848-0.602-8.518,0.102-12.417C1.586,29.453,3.507,24.337,5.982,20.2
		c0.417-0.697,0.908-1.389,1.369-2.078c0.929-1.393,1.769-2.665,2.838-3.953c0.512-0.617,1.09-1.243,1.622-1.774
		c2.252-2.253,4.694-4.436,7.45-6.133c4.312-2.654,8.869-4.649,14.698-5.727C35.916,0.173,38,0.133,40.243,0.028
		c4.236-0.197,8.7,0.669,11.91,1.673c3.583,1.121,6.557,2.418,9.376,4.105c2.818,1.686,5.244,3.834,7.552,5.93
		c1.149,1.043,2.16,2.347,3.193,3.547c3.107,3.609,5.398,8.066,7.147,13.026c1.191,3.378,1.817,7.064,2.179,11.252
		c0.376,4.346-0.262,8.471-1.064,12.214c-0.387,1.806-0.989,3.482-1.672,5.068c-0.69,1.602-1.261,3.18-2.027,4.663
		c-1.451,2.808-3.435,5.466-5.575,7.906c-0.546,0.623-1.053,1.225-1.571,1.825c-0.516,0.597-1.163,1.039-1.773,1.571
		c-5.922,5.166-13.28,9.342-23.416,10.238c-6.68,0.59-12.555-0.479-17.537-2.281c-4.886-1.768-9.174-4.347-12.721-7.45
		c-1.177-1.029-2.404-2.107-3.396-3.345c-0.964-1.204-2.239-2.276-2.787-3.903c0.208-1.064,1.043-1.837,1.723-2.584
		c2.006-2.203,4.056-4.451,6.082-6.69c8.077-8.93,16.343-17.727,24.378-26.76c0.725-0.897,1.446-1.797,2.281-2.585
		c0.321-0.441,0.747-0.871,1.115-1.318C43.999,25.693,44.272,25.078,44.804,24.964z"/>
</g>
<g id="Layer_1">
</g>
</svg>
