<?xml version="1.0" encoding="iso-8859-1"?>
<!-- Generator: Adobe Illustrator 19.2.0, SVG Export Plug-In . SVG Version: 6.00 Build 0)  -->
<svg version="1.1" xmlns="http://www.w3.org/2000/svg" xmlns:xlink="http://www.w3.org/1999/xlink" x="0px" y="0px"
	 viewBox="0 0 80.055 68.944" style="enable-background:new 0 0 80.055 68.944;" xml:space="preserve">
<g id="Kupferschmiede_x5F_und_x5F_Apparaturen_x5F_C_x5F_Kunze">
	<path style="fill-rule:evenodd;clip-rule:evenodd;" d="M32.092,0.191c4.293-0.083,8.934-0.083,13.226,0
		c0.383,0.811,0.541,1.611,0.947,2.295c0.399,0.67,0.955,1.374,1.598,1.797c1.832,1.205,4.715,1.248,6.488,0.1
		c0.734-0.476,1.26-1.098,1.697-1.796c0.471-0.756,0.738-1.572,1.098-2.395c1.969-0.165,4.619-0.165,6.588,0
		c0.345,6.345-0.023,13.108,0.199,19.415c0.459,0.307,1.495,0.036,2.097,0.199c0.048,0.527-0.501,0.8-0.799,1.098
		c-0.96,0.961-1.946,1.996-2.944,2.995c-1.314,1.314-2.529,2.729-3.844,4.042c-2.632,2.633-5.313,5.238-7.785,7.986
		c-1.129,1.188-2.609,2.609-3.943,3.942c-0.585,0.585-1.629,1.354-0.947,2.496c0.689-0.103,1.103-0.754,1.547-1.198
		c3.275-3.275,6.617-6.667,9.932-9.982c1.895-1.895,3.646-3.951,5.59-5.79c1.952-1.845,3.624-3.939,5.689-5.64
		c0.719,0.029,1.559-0.061,2.196,0.05c-0.151,0.711-0.822,1.122-1.298,1.597c-1.469,1.469-2.928,3.028-4.441,4.542
		c-0.992,0.992-1.973,2.013-2.995,2.994c-1.015,0.974-1.851,2.15-2.845,3.145c-2.985,2.986-5.883,5.982-8.934,9.034
		c-0.451,0.451-0.957,0.906-1.498,1.497c-0.386,0.422-1.384,1.199-1.396,1.597c-0.014,0.42,0.763,0.968,1.197,1.447
		c1.265,1.392,2.627,2.727,3.894,3.993c1.729,1.729,3.495,3.646,5.19,5.34c1.777,1.777,3.355,3.716,5.141,5.39
		c1.816,1.703,3.414,3.595,5.19,5.34c0.531,0.431,0.996,0.993,1.498,1.497c0.488,0.489,1.145,0.919,1.298,1.597
		c-0.63,0.045-1.399,0.219-2.196,0.05c-0.485-0.103-1.037-0.916-1.497-1.348c-3.373-3.164-6.649-6.853-9.782-10.082
		c-2.824-2.842-5.635-5.684-8.484-8.534c-0.931-0.931-1.775-2.026-2.945-2.695c-0.691,0.429-0.137,1.435,0.301,1.747
		c3.26,3.521,6.832,6.804,10.081,10.381c0.798,0.879,1.616,1.847,2.495,2.646c1.77,1.607,3.376,3.425,5.091,5.141
		c0.419,0.419,0.834,0.852,1.247,1.297c0.376,0.404,0.985,0.777,1.049,1.397c-0.547,0.169-1.575,0.122-2.196,0.05
		c-0.948-0.516-1.673-1.381-2.396-2.146c-0.73-0.773-1.395-1.595-2.146-2.346c-1.497-1.498-2.994-2.995-4.491-4.492
		c-2.251-2.251-4.47-4.519-6.737-6.788c-0.75-0.751-1.426-1.618-2.396-2.096c-0.431,0.537-0.218,1.322-0.249,1.996
		c-0.23,4.934,0.15,10.647-0.15,15.522c-1.079,0.304-2.222,0.125-3.345,0.1c-3.281-0.074-6.813,0.05-10.331,0.05
		c-4.867,0-9.395,0.151-13.226-0.898c-3.573-0.978-6.745-2.727-9.283-4.841c-2.583-2.152-4.683-4.749-6.288-7.786
		C1.174,51.979,0,48.335,0,43.861c0.002-6.568,2.383-11.885,5.59-15.621c2.716-3.163,6.041-5.704,10.232-7.386
		c0.82-0.33,1.737-0.478,2.494-0.998c-1.1-0.38-3.014,0.053-4.191-0.25c-0.231-0.665-0.191-1.53-0.15-2.396
		c0.219-4.604,0-9.914,0-14.922c0-0.744-0.15-2.085,0.3-2.196c0.069-0.017,0.181-0.044,0.249-0.05
		c1.752-0.136,3.928,0.105,5.691,0.15c0.413,0.831,0.573,1.73,1.048,2.495c1.098,1.767,3.381,3.194,6.488,2.496
		c1.488-0.334,2.735-1.484,3.443-2.745C31.581,1.748,31.717,0.936,32.092,0.191z M27.001,14.115
		c-3.066-0.314-5.053,1.297-6.038,3.145c-0.361,0.675-0.678,1.543-0.6,2.346c2.654,0.258,6.019,0.149,8.884,0.149
		c0.97,0,1.985,0.248,2.745-0.2C31.836,16.643,29.889,14.411,27.001,14.115z M53.602,14.614c-1.324-0.543-3.398-0.516-4.591,0
		c-1.844,0.797-3.424,2.788-3.594,5.39c-0.057,0.856,0,1.831,0,2.795c0,4.04,0,8.207,0,12.078c0,0.97-0.09,1.95,0.199,2.795
		c0.58-0.029,0.899-0.6,1.248-0.948c2.608-2.609,5.201-5.202,7.785-7.786c1.482-1.481,3.002-2.919,4.442-4.442
		c1.093-1.155,2.202-2.302,3.294-3.394c0.341-0.341,0.822-0.718,0.898-1.247c-1.792-0.321-4.377,0.151-6.089-0.25
		C56.885,17.29,55.563,15.419,53.602,14.614z M30.545,21.652c-2.303,0-4.68-0.149-6.787-0.05c-7.445,0.351-13.022,3.653-16.57,7.936
		c-3.556,4.29-6.195,11.218-4.691,18.716c1.277,6.368,5.132,11.483,9.782,14.523c2.358,1.542,5.206,2.877,8.634,3.494
		c2.941,0.529,6.852,0.543,10.132,0.399c0.335-0.015,1.071,0.214,1.147-0.399c0.171-0.82-0.516-0.699-1.197-0.699
		c-3.662,0-7.443-0.19-10.432-0.699c-3.703-0.63-6.391-2.192-8.733-3.993c-3.53-2.712-6.38-6.532-7.686-11.329
		c-0.462-1.7-0.701-3.395-0.798-5.59c-0.173-3.938,1.026-7.312,2.495-10.082c1.547-2.916,3.463-5.008,5.84-6.887
		c2.326-1.838,5.422-3.3,8.783-3.943c1.8-0.344,3.953-0.349,5.99-0.349c1.543,0,3.112-0.025,4.691,0
		c0.332,0.005,1.031,0.188,1.047-0.449C32.24,21.384,31.12,21.652,30.545,21.652z M31.244,62.277
		c-3.066-0.197-6.435-0.023-9.184-0.399c-3.285-0.449-5.637-1.642-7.836-3.244c-4.532-3.302-8.398-9.011-7.486-17.069
		c0.455-4.026,2.324-7.083,4.342-9.482c0.877-1.042,1.904-1.835,2.945-2.595c2.016-1.473,4.617-2.758,7.835-3.194
		c2.212-0.299,5.483-0.236,7.886-0.199c0.816,0.012,2.293,0.117,2.445-0.35c0.377-1.15-1.018-0.898-1.945-0.898
		c-4.285,0-8.17-0.246-11.131,0.699c-3.48,1.111-6.428,2.712-8.634,5.141c-2.811,3.095-5.255,7.55-5.24,13.176
		c0.009,3.692,1.065,6.643,2.495,9.283c1.395,2.575,3.213,4.604,5.49,6.289c2.152,1.592,4.89,2.979,8.186,3.593
		c2.539,0.473,5.644,0.35,8.484,0.35c0.91,0,2.323,0.35,2.295-0.699C32.129,62.158,31.555,62.298,31.244,62.277z M32.142,28.29
		c-0.445-0.367-1.111-0.18-1.646-0.2c-1.773-0.066-3.687-0.138-5.54-0.05c-2.72,0.129-4.983,0.443-6.888,1.297
		c-1.736,0.78-3.404,1.907-4.741,3.244c-2.553,2.553-4.791,6.291-4.791,11.229c0,4,1.442,7.395,3.443,9.982
		c1.955,2.526,4.57,4.544,7.786,5.64c3.009,1.024,7.003,0.849,10.83,0.849c0.466,0,1.089,0.151,1.497-0.2
		c0.187-0.163,0.09-0.703,0.05-0.949c-0.68-0.268-1.454-0.149-2.145-0.149c-2.367,0-4.765,0.059-6.838-0.2
		c-2.771-0.346-4.938-1.186-6.838-2.496c-3.533-2.437-6.31-6.517-6.488-12.178c-0.18-5.752,3.088-9.963,6.389-12.277
		c1.865-1.307,4.119-2.21,6.938-2.396c2.145-0.142,4.613-0.15,6.888-0.15c0.694,0,1.494,0.153,2.146-0.2
		C32.168,28.829,32.246,28.469,32.142,28.29z M23.558,31.384c-3.346,0.156-5.608,1.308-7.437,2.995
		c-2.724,2.514-5.178,6.828-4.143,11.978c0.592,2.941,1.926,5.32,3.943,7.087c1.934,1.694,4.285,3.257,7.586,3.494
		c2.582,0.185,5.727,0.047,8.534-0.05c0.26-0.447,0.147-1.011,0.149-1.497c0.009-1.565,0-3.254,0-4.941
		c0.001-5.662,0.051-10.667,0.051-15.971c0-1.021,0.088-2.086-0.2-3.044C29.331,31.292,26.268,31.258,23.558,31.384z"/>
	<path style="fill-rule:evenodd;clip-rule:evenodd;" d="M75.513,19.855c-0.21,0.805-0.899,1.13-1.397,1.647
		c-3.422,3.581-7.045,6.963-10.432,10.581c-3.492,3.511-6.848,7.159-10.381,10.63c-0.309,0.595-1.359,0.879-1.347,1.647
		c0.007,0.445,0.802,1.051,1.197,1.448c1.335,1.334,2.618,2.667,3.894,3.942c1.801,1.801,3.456,3.656,5.141,5.34
		c3.594,3.595,7.019,7.201,10.331,10.631c0.535,0.462,0.997,0.998,1.497,1.497c0.479,0.479,1.072,0.928,1.348,1.597
		c-0.541,0.208-1.446,0.051-2.146,0.1C66.907,63.031,61.116,56.627,55,50.549c-1.537-1.501-3.006-3.056-4.541-4.592
		c-0.496-0.496-1.057-1.016-1.399-1.647c0.161-0.871,0.986-1.078,1.399-1.697c2.883-2.736,5.708-5.709,8.584-8.585
		c0.938-0.937,1.758-2.019,2.695-2.994c2.774-2.889,5.604-5.655,8.534-8.584c0.415-0.416,0.938-0.842,1.447-1.397
		c0.47-0.512,1.095-1.155,1.647-1.248C74.061,19.69,74.896,19.72,75.513,19.855z"/>
	<path style="fill-rule:evenodd;clip-rule:evenodd;" d="M80.055,19.855c-0.193,0.737-0.896,1.116-1.398,1.597
		c-1.497,1.439-2.902,3.077-4.441,4.542c-4.418,4.466-8.908,8.993-13.275,13.675c-1.013,1.086-2.172,2.228-3.294,3.444
		c-0.335,0.363-0.985,0.907-0.998,1.248c-0.015,0.381,0.591,0.884,0.898,1.248c0.721,0.854,1.383,1.456,2.096,2.196
		c0.37,0.384,0.605,0.792,0.948,1.198c0.723,0.855,1.687,1.584,2.496,2.446c2.349,2.505,5.013,4.915,7.336,7.436
		c2.465,2.414,4.836,5.002,7.337,7.436c0.624,0.608,1.218,1.209,1.847,1.847c0.152,0.154,0.517,0.398,0.398,0.699
		c-0.521,0.007-1.422,0.173-2.046,0c-0.494-0.137-1.122-0.972-1.597-1.447c-3.59-3.588-6.972-7.122-10.58-10.73
		c-1.503-1.502-3.01-3.059-4.543-4.592c-1.525-1.525-2.826-3.054-4.491-4.641c-0.46-0.439-0.914-0.925-1.497-1.547
		c-0.422-0.45-1.389-1.273-1.398-1.647c-0.012-0.48,1.041-1.29,1.398-1.647c1.574-1.574,3.146-2.955,4.592-4.542
		c3.98-4.557,9.173-9.172,13.525-13.825c1.016-1.086,2.265-2.215,3.443-3.394c0.469-0.469,0.768-0.967,1.348-1.048
		C78.744,19.723,79.486,19.772,80.055,19.855z"/>
</g>
<g id="Layer_1">
</g>
</svg>
