<?xml version="1.0" encoding="iso-8859-1"?>
<!-- Generator: Adobe Illustrator 19.2.0, SVG Export Plug-In . SVG Version: 6.00 Build 0)  -->
<svg version="1.1" xmlns="http://www.w3.org/2000/svg" xmlns:xlink="http://www.w3.org/1999/xlink" x="0px" y="0px"
	 viewBox="0 0 72.922 80.319" style="enable-background:new 0 0 72.922 80.319;" xml:space="preserve">
<g id="Kuresa_x5F_papers">
	<path style="fill-rule:evenodd;clip-rule:evenodd;" d="M44.636,7.161c-0.085,3.024-0.523,6.051-0.79,9.132
		c-0.031,0.356-0.195,0.865,0.148,1.135c0.508,0.141,0.896-0.277,1.234-0.494c1.896-1.212,3.625-2.167,5.726-3.406
		c0.639-0.377,1.625-1.269,2.369-1.283c0.468-0.01,0.895,0.388,1.333,0.642c2.264,1.309,3.994,2.253,6.319,3.554
		c0.648,0.363,2.152,1.15,2.32,1.728c0.167,0.572,0,1.343,0,2.123c0,1.459,0.071,2.903,0,4.394
		c-0.036,0.753-0.125,1.472,0.049,2.024c0.323,1.025,2.348,1.831,3.258,2.369c0.53,0.313,1.113,0.632,1.777,1.037
		c0.527,0.321,1.497,0.787,1.58,1.234c0.07,0.378-0.269,0.953-0.494,1.431c-2.704,5.751-5.292,11.096-8.046,16.883
		c-0.282,0.591-1.229,1.846-1.185,2.616c0.035,0.609,0.916,1.12,1.382,1.481c1.615,1.249,3.354,2.413,4.887,3.603
		c1.069,0.824,2.218,1.567,3.258,2.419c0.59,0.322,1.072,0.692,1.678,1.135c0.434,0.316,1.462,0.829,1.481,1.333
		c0.021,0.575-0.858,0.84-1.283,1.086c-0.573,0.331-0.97,0.641-1.481,0.889c-2.154,1.35-4.395,2.524-6.763,3.85
		c-0.606,0.34-1.64,1.182-2.32,1.185c-0.744,0.003-1.667-0.959-2.222-1.382c-1.442-1.102-2.727-2.044-4.146-3.061
		c-0.68-0.487-1.356-1.03-2.172-1.382c-0.427,0.607-0.247,1.652-0.247,2.616c0,0.898-0.05,1.836-0.05,2.765
		c0,1.93,0.073,3.926-0.099,5.628c-0.525,0.682-1.444,1.127-2.32,1.629c-2.059,1.18-3.955,2.428-6.171,3.653
		c-0.433,0.24-0.926,0.605-1.333,0.593c-0.516-0.016-1.33-0.646-1.876-0.987c-1.332-0.832-2.189-1.293-3.604-2.123
		c-0.571-0.335-1.265-0.942-1.876-0.938c-0.523,0.003-1.361,0.572-1.826,0.839c-1.212,0.696-2.076,1.239-3.357,1.975
		c-0.579,0.332-1.237,0.898-1.728,0.839c-0.666-0.08-1.436-1.563-1.875-2.222c-3.29-4.933-6.397-9.79-9.725-14.76
		c-0.446-0.666-1.073-2.137-1.826-2.221c-0.529-0.06-1.382,0.458-1.925,0.691c-1.777,0.763-3.666,1.681-5.232,2.468
		c-1.588,0.799-3.479,1.526-5.332,2.369c-0.638,0.291-1.387,0.796-1.777,0.593c-0.539-0.281-0.296-2.289-0.296-3.357
		c0-3.13-0.136-5.55,0-8.787c0.026-0.62-0.032-1.358,0.148-1.678c0.273-0.486,1.561-0.872,2.222-1.185
		c1.586-0.752,3.16-1.354,4.689-2.123c0.749-0.377,1.599-0.677,2.073-1.333c-0.113-0.474-0.603-0.703-0.987-0.938
		c-0.387-0.236-0.714-0.559-1.086-0.79c-1.573-0.976-3.002-1.748-4.739-2.765c-0.703-0.411-1.913-0.937-2.172-1.58
		c-0.25-0.62-0.099-1.939-0.099-2.813c0-2.819-0.065-5.964,0.099-8.441c1.02-1.061,2.429-1.599,3.703-2.32
		c0.547-0.309,1.205-0.676,1.925-1.086c0.539-0.306,1.548-0.844,1.777-1.283c0.218-0.417,0.107-1.266,0.099-2.024
		c-0.015-1.453,0.044-2.772,0.049-4.246c0.003-0.755-0.113-1.519,0.198-1.876c0.364-0.418,1.678-0.368,2.666-0.444
		c5.893-0.454,11.456-0.834,17.376-1.284c0.812-0.062,2.353-0.063,2.715-0.395c0.504-0.463,0.507-2.896,0.592-3.949
		c0.277-3.438,0.715-6.722,1.086-10.219c0.066-0.62-0.016-1.338,0.395-1.826c0.109-0.023,0.133-0.121,0.246-0.099
		c0.945,0.182,2.092,1.132,3.012,1.678c1.909,1.134,3.861,2.277,5.825,3.455C42.759,5.669,44.267,6.428,44.636,7.161z M38.663,5.976
		c-0.592-0.358-1.218-0.802-1.875-1.185c-0.692-0.403-1.619-1.101-2.222-0.938c-0.451,0.368-0.465,2.7-0.543,3.406
		c-0.393,3.554-0.805,7.316-1.135,10.663c-0.146,0.068-0.2,0.228-0.346,0.296c-3.001,0.359-6.204,0.598-9.379,0.888
		c-2.348,0.215-4.786,0.403-7.158,0.543c-0.714,0.042-1.566-0.018-2.123,0.444c0.153,0.703,0.967,0.903,1.481,1.234
		c1.662,1.07,3.411,2.074,5.232,2.912c5.43-0.264,10.828-0.883,16.142-1.185c0.736-0.041,1.559-0.291,2.222,0.099
		c-0.14,0.474-0.663,0.666-1.037,0.888c-2.062,1.226-4.114,2.425-6.121,3.603c-0.795,0.467-1.717,0.882-2.271,1.629
		c0.454,0.904,1.73,1.31,2.813,1.974c0.419,0.257,0.931,0.603,1.481,0.938c0.457,0.279,1.181,0.75,1.678,0.741
		c0.474-0.009,1.075-0.506,1.58-0.79c1.583-0.889,3.146-1.76,4.542-2.616c4.198-2.577,7.775-4.633,11.996-7.108
		c1.414-0.829,3.039-1.776,4.492-2.666c0.418-0.255,1.29-0.742,1.284-1.135c-0.007-0.456-0.886-0.837-1.284-1.086
		c-0.56-0.35-1.088-0.635-1.53-0.889c-1.099-0.632-2.054-1.366-3.208-1.629c-1.126,0.367-2.104,1.049-3.11,1.629
		c-2.494,1.439-4.896,3.158-7.404,4.492c-0.482,0.256-1.007,0.731-1.629,0.593c-0.336-0.421-0.141-1.044-0.099-1.53
		c0.346-3.921,0.817-7.842,1.136-11.7C41.585,7.334,40.038,6.808,38.663,5.976z M19.115,29.276c0-0.966,0.193-2.11-0.049-2.863
		c-0.189-0.584-1.199-1.055-1.925-1.481c-1.499-0.879-2.942-1.648-4.344-2.468c-0.753-0.44-1.809-1.344-2.468-1.135
		c-0.399,0.616-0.27,1.684-0.247,2.666c0.023,0.953-0.127,2.095,0.148,2.765c0.252,0.612,1.306,1.062,1.975,1.431
		c1.534,0.849,2.902,1.689,4.295,2.517c0.743,0.442,1.421,1.042,2.32,1.136C19.309,31.273,19.115,30.243,19.115,29.276z
		 M48.24,28.387c-3.357,2.061-6.933,4.16-10.416,6.17c-0.541,0.312-1.136,0.629-1.333,1.037c-0.248,0.513-0.148,1.711-0.148,2.765
		c0,1.062-0.149,2.244,0.394,2.418c0.344,0.111,1.056-0.388,1.58-0.691c6.663-3.858,13.212-7.605,19.696-11.551
		c0.817-0.498,2.476-1.242,2.814-2.024c0.285-0.66,0.148-2.211,0.148-2.814c0-0.914,0.257-2.691-0.691-2.369
		C56.168,23.579,52.262,26.041,48.24,28.387z M28.248,25.919c-1.069,0.05-2.283,0.12-3.554,0.247
		c-0.901,0.09-2.89-0.122-3.208,0.642c-0.276,0.661-0.099,1.732-0.099,2.616c0,0.925-0.005,1.816,0.149,2.567
		c0.103,0.061,0.185,0.144,0.247,0.247c0.864,0.006,2.739,0.267,3.308-0.346c0.562-0.606,0.003-1.944,0.296-2.863
		c0.208-0.652,1.169-1.083,1.876-1.53c0.326-0.207,0.676-0.43,1.037-0.642c0.306-0.18,0.871-0.278,0.938-0.79
		C29.078,25.72,28.572,25.904,28.248,25.919z M31.21,42.111c-3.566-2.146-7.012-4.061-10.613-6.17
		c-2.933-1.718-6.09-3.491-9.083-5.282c-0.961-0.575-2.088-1.557-3.11-1.727c-0.074-0.013-0.129,0.032-0.197,0.049
		c-0.651,0.168-1.25,0.654-2.073,1.135c-0.576,0.337-1.777,0.9-1.777,1.382c0,0.335,0.826,0.868,1.234,1.135
		c0.562,0.369,1.074,0.64,1.481,0.889c6.034,3.698,12.072,7.205,18.018,10.712c1.008,0.595,2.049,1.24,3.208,1.58
		c0.856-0.185,1.569-0.709,2.271-1.135c0.674-0.41,1.589-0.699,1.925-1.481C32.285,42.636,31.669,42.387,31.21,42.111z
		 M63.987,30.411c-0.748-0.375-1.791-1.436-2.666-1.135c-0.763,0.262-1.457,0.831-2.222,1.283c-1.351,0.799-2.796,1.601-4.097,2.419
		c-0.688,0.432-1.547,0.779-1.827,1.481c0.461,0.656,1.241,0.963,2.024,1.432c0.65,0.389,1.604,1.162,2.37,1.135
		c0.679-0.024,1.606-0.766,2.222-1.135c1.532-0.92,2.877-1.662,4.294-2.469c0.742-0.422,1.526-0.795,1.975-1.431
		C65.674,31.16,64.717,30.9,63.987,30.411z M29.778,32.435c-0.594-0.333-1.225-0.836-1.777-0.741
		c-0.462,0.525-0.296,1.576-0.296,2.518c0,0.968-0.17,2.076,0.099,2.765c0.179,0.458,0.812,0.73,1.333,1.037
		c1.098,0.646,1.942,1.209,2.962,1.777c0.531,0.296,1.083,0.74,1.678,0.642c0.474-0.686,0.21-1.797,0.246-2.765
		c0.033-0.876,0.05-1.76-0.049-2.518C33.035,34.094,31.157,33.209,29.778,32.435z M26.816,53.662c0-1.286-0.013-2.391,0-3.554
		c0.007-0.627,0.066-1.353-0.099-1.777c-0.276-0.708-1.937-1.471-2.765-1.975c-5.042-3.064-9.97-6.007-14.957-8.885
		c-1.398-0.807-2.942-1.863-4.443-2.715c-0.567-0.321-1.336-0.953-1.826-0.691c-0.476,0.459-0.296,2.28-0.296,3.357
		c0,1.216-0.235,2.792,0.099,3.554c0.179,0.409,0.865,0.739,1.382,1.037c0.558,0.321,0.997,0.644,1.481,0.938
		c2.599,1.577,5.008,3.001,7.602,4.591c0.477,0.292,1.366,0.664,1.333,1.135c-0.026,0.369-0.84,0.669-1.333,0.889
		c-2.785,1.24-5.028,2.4-7.701,3.554c-0.865,0.374-2.556,0.933-2.863,1.678c-0.207,0.504-0.099,1.425-0.099,2.172
		c0,1.671,0,3.055,0,4.541c0,0.713-0.164,1.538,0.395,1.925c1.198-0.289,2.223-0.828,3.258-1.284
		c2.614-1.149,5.103-2.513,7.799-3.653c0.516-0.218,1.185-0.708,1.679-0.642c0.597,0.081,1.105,1.296,1.48,1.876
		c0.477,0.736,0.979,1.4,1.382,1.975c2.361,3.364,4.483,6.838,6.714,10.169c0.426,0.636,0.747,1.559,1.58,1.826
		c0.393-0.391,0.247-1.088,0.247-1.678c0-1.91,0-3.957,0-5.776c-0.236-0.704-0.732-1.537-1.234-2.271
		c-2.759-4.035-5.413-7.955-7.997-11.995c-0.41-0.641-1.142-1.29-1.135-2.123c0.951,0.136,1.708,0.784,2.518,1.234
		c1.672,0.931,3.327,1.887,4.936,2.863c0.797,0.484,1.588,1.143,2.567,1.234C26.939,54.901,26.816,54.233,26.816,53.662z
		 M64.826,35.742c-1.104,0.396-2.215,1.286-3.357,1.925c-1.18,0.66-2.389,1.274-3.208,2.073c-2.615,5.046-4.921,10.642-7.504,15.747
		c-0.14,0.277-0.248,0.813-0.691,0.79c-0.266-0.375-0.143-0.891-0.148-1.333c-0.025-2.398-0.049-4.947-0.049-7.257
		c0-0.973,0.191-2.018-0.296-2.715c-0.706-0.135-1.178,0.391-1.629,0.691c-0.457,0.304-0.985,0.555-1.53,0.889
		c-0.862,0.527-2.434,1.138-2.765,2.073c-0.266,0.751-0.148,2.36-0.148,3.455c0,7.352-0.136,14.471,0,21.325
		c0.016,0.812-0.254,3.026,0.444,3.208c0.463,0.121,1.174-0.461,1.58-0.691c1.077-0.61,1.994-1.147,2.962-1.827
		c0.521-0.365,1.098-0.605,1.283-1.135c0.369-1.055,0.099-2.812,0.099-4.196c0-2.673,0-4.73,0-7.109
		c0-1.004-0.241-2.206,0.395-2.666c1.034,0.437,1.914,1.137,2.814,1.777c2.235,1.59,4.373,3.111,6.615,4.837
		c0.424,0.327,1.007,0.826,1.481,0.839c0.689,0.02,1.461-0.667,2.024-0.987c1.523-0.868,2.354-1.282,3.851-2.172
		c0.389-0.232,1.688-0.756,1.678-1.333c-0.007-0.415-0.85-0.871-1.283-1.185c-3.035-2.196-5.626-4.27-8.738-6.318
		c-0.447-0.295-1.254-0.78-1.283-1.234c-0.031-0.48,0.621-1.447,0.839-1.925c2.11-4.636,4.113-8.929,6.269-13.427
		c0.052-0.672,1.187-1.594,0.543-2.172C64.925,35.699,64.927,35.707,64.826,35.742z M53.078,45.615
		c0.773-1.538,1.323-2.842,2.073-4.394c0.246-0.507,0.82-1.283,0.74-1.876c-0.092-0.694-1.516-1.236-2.122-1.58
		c-0.814-0.461-1.503-1.13-2.419-1.283c-0.551-0.092-0.932,0.995-1.135,1.431c-0.24,0.513-0.687,1.083-0.593,1.679
		c0.162,1.017,2.153,1.193,2.517,2.172c0.495,1.329-0.325,3.051,0.296,4.492C52.831,46.285,52.96,45.85,53.078,45.615z
		 M39.552,42.111c-0.37,0.226-1.165,0.635-1.135,1.086c0.031,0.476,1.686,1.314,1.975,1.481c0.56,0.324,1.66,1.158,2.37,1.135
		c0.457-0.014,1.075-0.405,1.58-0.691c1.083-0.614,1.838-1.138,2.813-1.728c0.461-0.278,1.164-0.493,1.185-1.135
		c-0.188-0.687-1.121-0.992-1.876-1.432c-0.822-0.479-1.709-1.236-2.715-1.086C42.358,40.543,40.968,41.244,39.552,42.111z
		 M39.157,46.751c-0.815-0.478-1.696-1.123-2.468-1.135c-0.426,1.002-0.247,2.22-0.247,3.357c0,8.367-0.114,16.705,0.049,24.978
		c0.482,0.677,1.296,1.04,2.024,1.481c0.678,0.411,1.495,1.069,2.37,1.037c0.387-0.399,0.193-0.976,0.197-1.481
		c0.077-8.854,0.042-18.23-0.049-26.805C40.689,47.63,39.896,47.184,39.157,46.751z M33.233,45.911
		c-0.662,0.259-1.248,0.715-2.123,1.234c-0.644,0.382-1.757,0.973-1.925,1.432c-0.138,0.376-0.087,1.139-0.099,1.727
		c-0.012,0.622,0,1.281,0,1.827c0.001,0.935-0.274,3.096,0.395,3.307c0.344,0.109,0.881-0.286,1.234-0.493
		c0.47-0.276,0.85-0.483,1.185-0.691c0.812-0.507,1.67-0.845,2.073-1.629c0.089-1.031,0.049-2.257,0.049-3.456
		c0-1.161,0.175-2.447-0.246-3.258C33.582,45.81,33.334,45.872,33.233,45.911z M24.052,57.216c-0.073,0.545,0.535,1.257,0.839,1.728
		c0.396,0.612,0.718,1.169,1.087,1.58c0.771,0.996,1.233,2.36,2.369,2.962c0.992-0.216,1.618-0.675,2.468-1.185
		c0.55-0.33,2.005-0.902,2.073-1.58c0.055-0.542-0.539-1.199-0.839-1.629c-0.259-0.371-0.722-1.217-1.283-1.234
		c-0.437-0.013-0.962,0.411-1.284,0.592c-0.434,0.246-0.709,0.56-1.283,0.593c-1.641-0.334-2.493-1.457-3.999-1.925
		C24.142,57.141,24.088,57.17,24.052,57.216z M33.233,63.534c-0.708,0.303-1.217,0.721-2.123,1.234
		c-0.689,0.391-1.703,0.806-1.925,1.48c-0.197,0.596-0.099,1.651-0.099,2.518c0.001,2.014,0.05,3.305,0.05,5.232
		c0,0.947-0.125,2.096,0.444,2.221c0.414,0.091,0.945-0.369,1.234-0.543c0.376-0.226,0.766-0.468,1.135-0.691
		c0.676-0.407,1.835-0.796,2.073-1.53c0.292-0.898,0.049-2.544,0.049-3.702c0-1.254-0.049-2.562-0.049-3.604
		c0-0.938,0.284-1.964-0.246-2.666C33.515,63.477,33.353,63.483,33.233,63.534z"/>
</g>
<g id="Layer_1">
</g>
</svg>
