<?xml version="1.0" encoding="iso-8859-1"?>
<!-- Generator: Adobe Illustrator 19.2.0, SVG Export Plug-In . SVG Version: 6.00 Build 0)  -->
<svg version="1.1" xmlns="http://www.w3.org/2000/svg" xmlns:xlink="http://www.w3.org/1999/xlink" x="0px" y="0px"
	 viewBox="0 0 74.623 75.831" style="enable-background:new 0 0 74.623 75.831;" xml:space="preserve">
<g id="Kuwahara_x5F_JP">
	<path style="fill-rule:evenodd;clip-rule:evenodd;" d="M74.361,0.151c0.022,0.045,0.045,0.09,0.102,0.101
		c0.107,25.114,0.241,50.433,0.101,75.503c-24.311,0.114-49.655,0.099-74.241-0.051c-0.021-0.045-0.044-0.09-0.1-0.101
		C0.215,63.167-0.071,50.39,0.12,37.852c0.14-9.188-0.102-18.856-0.102-28.263c0-2.247,0-4.727,0-7.217
		c0-0.807-0.098-2.068,0.151-2.271C0.207,0.054,0.262,0.024,0.322,0C25.196,0.079,49.993-0.069,74.361,0.151z M33.027,3.18
		c-4.104,0-8.232,0-12.466,0c-5.684,0-11.696-0.033-17.109,0C3.019,3.72,3.199,4.483,3.199,5.098
		C3.2,21.837,3.3,38.494,3.299,55.062c0,5.827-0.105,11.636,0.152,17.261c10.862,0.257,22.27,0.151,33.31,0.151
		c0.664,0,1.45,0.159,2.069-0.202c-0.01-0.506-0.37-0.913-0.605-1.312c-0.767-1.299-1.497-2.567-2.272-3.835
		c-4.623-7.574-9.078-15.389-13.677-22.914c-0.53-0.867-0.952-1.752-1.464-2.624c-0.998-1.702-2.01-3.405-3.028-5.097
		c-1.027-1.708-2.156-3.355-3.028-5.148c0.254-0.73,0.865-1.212,1.362-1.767c0.494-0.55,0.894-1.191,1.363-1.767
		c0.94-1.152,1.945-2.264,2.877-3.432c1.861-2.335,3.606-4.784,5.601-7.015c2.766-3.527,5.703-6.881,8.429-10.447
		c0.492-0.562,0.941-1.133,1.413-1.716c0.453-0.561,1.128-1.058,1.312-1.867C35.79,3.057,34.4,3.18,33.027,3.18z M64.57,3.23
		c-5.305,0-10.636,0-15.898,0c-2.106,0-4.343-0.287-6.309-0.05c-0.967,0.116-1.022,0.548-1.615,1.262
		c-0.406,0.488-0.855,0.915-1.161,1.262c-0.813,0.918-1.543,1.844-2.221,2.675c-4.465,5.481-8.905,10.913-13.173,16.201
		c-1.614,1.648-2.842,3.684-4.34,5.45c-0.307,0.725-1.312,1.117-1.312,1.968c0,0.392,0.439,0.89,0.707,1.312
		c0.81,1.278,1.588,2.738,2.17,3.886c6.15,10.341,12.352,20.716,18.573,30.938c0.895,1.471,1.685,3.009,2.775,4.34
		c5.89,0.08,12.567,0.051,18.774,0.051c2.112-0.001,4.224,0.122,6.208-0.151c0.066-0.512-0.327-0.953-0.555-1.363
		c-1.218-2.193-2.509-4.292-3.685-6.41c-0.487-0.878-0.852-1.817-1.362-2.675c-1.993-3.351-3.95-6.79-5.955-10.195
		c-3.427-5.815-7.012-11.993-10.397-17.866c-0.424-0.735-1.411-1.977-1.362-2.726c0.04-0.628,0.931-1.316,1.362-1.816
		c3.495-4.057,6.889-8.02,10.245-12.012c3.018-3.342,5.869-6.849,8.731-10.346c0.484-0.575,0.935-1.186,1.464-1.716
		c0.447-0.613,1.154-0.966,1.312-1.868C66.596,3.108,65.554,3.23,64.57,3.23z M63.409,13.476c-0.375,0.424-0.645,0.928-1.01,1.362
		c-2.846,3.391-5.741,6.731-8.58,10.094c-0.973,1.096-1.927,2.211-2.876,3.331c-0.415,0.477-0.883,1.072-1.414,1.716
		c-0.391,0.475-1.304,1.146-1.311,1.817c-0.01,0.732,0.954,1.795,1.362,2.523c1.461,2.604,2.905,5.016,4.341,7.47
		c1.969,3.368,3.868,6.721,5.804,9.892c2.004,3.283,3.699,6.784,5.703,9.993c1.786,2.862,3.407,5.827,5.098,8.681
		c0.228,0.384,0.438,0.903,0.908,1.06c0.256-9.609,0.052-19.444,0.051-29.373c-0.002-12.029-0.051-23.664-0.051-35.531
		c0-0.586,0.161-1.997-0.303-1.868C68.369,7.387,65.944,10.606,63.409,13.476z"/>
</g>
<g id="Layer_1">
</g>
</svg>
