<?xml version="1.0" encoding="iso-8859-1"?>
<!-- Generator: Adobe Illustrator 19.2.0, SVG Export Plug-In . SVG Version: 6.00 Build 0)  -->
<svg version="1.1" xmlns="http://www.w3.org/2000/svg" xmlns:xlink="http://www.w3.org/1999/xlink" x="0px" y="0px"
	 viewBox="0 0 81.681 70.933" style="enable-background:new 0 0 81.681 70.933;" xml:space="preserve">
<g id="kyodo_x5F_sekiyu">
	<path style="fill-rule:evenodd;clip-rule:evenodd;" d="M81.507,0.342c0.266,2.124,0.147,4.552,0.147,6.892
		c0,2.344,0.057,4.704-0.147,6.793c-12.733,0.368-26.766-0.208-40.021,0.049c-4.455,0.086-9.14-0.37-12.75,0.64
		c-6.801,1.902-11.678,6.545-14.029,12.946c-1.256,3.417-1.782,7.626-1.034,11.765c0.989,5.471,3.781,9.744,7.384,12.799
		c3.468,2.941,8.72,5.376,15.26,4.775c3.951-0.364,7.087-1.926,9.747-3.742c2.68-1.829,4.722-4.292,6.301-7.138
		c0.869-1.565,1.481-3.069,1.92-4.824c0.439-1.755,0.593-3.693,1.181-5.563c1.047-3.326,2.81-6.059,5.12-8.369
		c2.205-2.205,4.999-3.995,8.418-5.07c3.1-0.975,7.047-0.59,10.978-0.591c0.506,0,1.064-0.108,1.526,0.148
		c0.164,4.268,0.164,9.22,0,13.488c-2.328,0.343-4.563-0.001-6.646,0.148c-2.171,0.155-3.567,0.896-4.726,2.117
		c-2.279,2.401-2.564,6.535-3.692,10.042c-2.175,6.764-6.425,12.054-11.47,15.999c-2.581,2.018-5.358,3.691-8.713,5.021
		c-3.33,1.319-7.044,2.241-11.47,2.264c-4.36,0.023-8.287-0.876-11.667-2.067c-3.447-1.215-6.262-2.81-8.959-4.775
		c-3.912-2.85-7.151-6.742-9.55-11.076c-2.368-4.278-4.28-9.748-4.578-15.999c-0.204-4.29,0.462-8.462,1.576-12.061
		c2.224-7.188,5.712-12.227,10.732-16.737c2.367-2.127,5.199-3.937,8.368-5.366c3.254-1.468,6.834-2.605,11.076-2.806
		c4.1-0.194,8.292,0.292,12.454,0.099c4.111-0.191,8.277,0,12.405,0c7.373,0,14.52,0.049,21.856,0.049
		C79.49,0.195,80.528,0.079,81.507,0.342z"/>
	<path style="fill-rule:evenodd;clip-rule:evenodd;" d="M32.871,21.559c4.605-0.36,7.719,1.474,10.091,3.643
		c2.229,2.039,4.133,5.103,4.529,9.156c0.431,4.412-1.188,7.904-3.2,10.387c-0.992,1.224-2.298,2.242-3.741,3.101
		c-1.424,0.848-3.271,1.52-5.218,1.625c-4.142,0.222-7.838-1.445-10.141-3.594c-2.411-2.249-4.075-5.171-4.529-9.156
		c-0.242-2.122,0.146-4.333,0.738-6.005c1.449-4.086,4.288-7.14,8.566-8.565C30.87,21.848,31.909,21.634,32.871,21.559z"/>
</g>
<g id="Layer_1">
</g>
</svg>
