<?xml version="1.0" encoding="iso-8859-1"?>
<!-- Generator: Adobe Illustrator 19.2.0, SVG Export Plug-In . SVG Version: 6.00 Build 0)  -->
<svg version="1.1" xmlns="http://www.w3.org/2000/svg" xmlns:xlink="http://www.w3.org/1999/xlink" x="0px" y="0px"
	 viewBox="0 0 147.248 181.228" style="enable-background:new 0 0 147.248 181.228;" xml:space="preserve">
<g id="Kyodo_x5F_Nyugyo">
	<path style="fill-rule:evenodd;clip-rule:evenodd;" d="M56.868,38.739c11.01,0.156,22.971,0.17,33.706,0.051
		c0.322-1.141,0.185-2.33,0.199-3.49c0.103-8.439,0-17.049,0-25.879c0-2.574,0.398-4.385,1.546-5.982
		c1.017-1.414,2.531-2.602,4.438-3.092c2.35-0.604,4.679-0.125,6.233,0.799c1.614,0.957,2.649,2.188,3.391,4.088
		c0.675,1.73,0.707,4.348,0.598,6.93c-0.103,2.432,0,4.793,0,7.33c0,7.527,0.001,14.936,0,22.537c0,2.531,0.222,5.197-0.299,7.182
		c-0.515,1.957-1.655,3.514-3.041,4.486c-0.75,0.525-1.62,0.936-2.543,1.197c-1.001,0.281-2.088,0.219-3.39,0.25
		c-4.911,0.113-9.926-0.002-14.958,0c-10.03,0-19.951-0.002-30.066,0c-2.652,0-5.083,0.162-6.931-0.5
		c-2.685-0.963-4.596-3.096-5.235-6.033c-0.222-1.02-0.149-2.262-0.149-3.59c-0.001-9.881,0-19.91,0-29.967
		c0-2.561-0.077-5.072,0.05-7.229c0.138-2.351,1.017-3.988,2.244-5.287c1.176-1.242,3.071-2.238,5.186-2.492
		c1.913-0.23,3.684,0.412,4.886,1.146c1.199,0.732,2.292,1.711,2.992,2.992c0.772,1.412,1.047,3.01,1.047,4.986
		C56.768,18.489,56.682,29.118,56.868,38.739z"/>
	<path style="fill-rule:evenodd;clip-rule:evenodd;" d="M73.471,161.548c1.495-1.246,2.817-2.668,4.188-4.039
		c1.372-1.371,2.767-2.717,4.138-4.088c8.184-8.182,16.678-16.15,24.731-24.531c0.315-0.262,0.375-0.555,0.399-1.098
		c0.139-3.102-0.193-6.197-0.05-9.273c0.145-3.109,0.05-6.258,0.05-9.475c-0.001-6.352,0-12.795,0-19.246
		c-0.001-7.584-0.113-16.207,0.05-23.734c0.034-1.562-0.066-2.994,0.299-4.287c0.689-2.441,2.43-4.137,4.537-5.086
		c1.163-0.523,2.473-0.748,4.089-0.748c4.759,0,9.348,0.049,14.16,0.049c3.217,0.002,6.082-0.102,9.324,0
		c4.353,0.137,7.058,2.902,7.729,6.732c0.512,2.922-0.529,5.736-2.044,7.279c-0.749,0.764-1.855,1.439-2.941,1.846
		c-2.454,0.916-6.093,0.496-9.125,0.498c-3.282,0.002-6.335-0.043-9.573,0.051c-0.228,19.285-0.148,39.225-0.149,58.885
		c-0.001,3.428-1.211,5.25-2.942,6.98c-1.642,1.643-3.392,3.203-5.036,4.887c-6.772,6.475-13.167,13.326-19.944,19.795
		c-4.859,4.871-10.078,9.879-15.008,14.809c-1.302,1.303-2.502,2.441-4.388,3.092c-1.996,0.688-4.393,0.398-6.183-0.449
		c-1.661-0.787-2.821-2.113-4.089-3.34c-1.257-1.219-2.3-2.639-3.59-3.84c-11.728-11.57-23.27-22.875-34.953-34.555
		c-1.584-1.582-2.382-3.144-2.493-6.232c-0.19-5.275,0-11.277,0-16.951c0-14.146,0.046-28.809-0.05-43.031
		c-0.883-0.348-1.899-0.25-2.892-0.25c-2.986,0.002-6.428,0.057-9.274,0c-2.011-0.039-4.273,0.176-5.934-0.199
		c-3.233-0.728-5.533-3.004-6.282-6.182c-0.935-3.963,1.193-7.094,3.44-8.627c0.703-0.479,1.36-0.754,2.144-0.996
		c2.507-0.777,6.547-0.281,9.474-0.35c4.374-0.103,8.542,0.051,13.213,0.049c2.269,0,4.621-0.19,6.432,0.25
		c3.245,0.787,5.888,3.572,6.083,7.379c0.114,2.213,0.094,4.455,0.05,6.682c-0.042,2.113,0,4.248,0,6.483
		c0.001,17.838-0.05,34.068-0.05,52.105c0,0.129-0.025,0.318,0,0.447c0.127,0.668,1.381,1.58,1.944,2.145
		c6.754,6.752,13.609,13.412,20.344,20.145c0.677,0.676,1.256,1.443,1.944,2.094c2.076,1.963,4.043,3.994,6.083,6.033
		C71.995,160.321,72.651,161.079,73.471,161.548z"/>
	<path style="fill-rule:evenodd;clip-rule:evenodd;" d="M56.12,64.169c2.987-0.221,5.45,1.301,6.831,2.992
		c0.396,0.484,1.015,1.352,1.247,2.145c0.588,2.016,0.467,4.857-0.249,6.48c-1.279,2.9-4.411,4.896-8.027,4.639
		c-3.775-0.271-7.204-3.357-7.529-7.381c-0.205-2.541,0.815-4.68,1.795-5.883c0.787-0.967,1.905-1.844,3.092-2.344
		C54.035,64.499,54.912,64.259,56.12,64.169z"/>
	<path style="fill-rule:evenodd;clip-rule:evenodd;" d="M85.089,78.081c-1.954-1.867-3.073-5.365-1.795-8.727
		c0.999-2.629,3.461-4.887,6.731-5.186c0.681-0.062,1.402-0.018,1.944,0.051c4.485,0.561,7.938,4.719,6.98,9.672
		c-0.857,4.434-6.024,8.318-11.568,5.734C86.527,79.227,85.963,78.821,85.089,78.081z"/>
</g>
<g id="Layer_1">
</g>
</svg>
