<?xml version="1.0" encoding="iso-8859-1"?>
<!-- Generator: Adobe Illustrator 19.2.0, SVG Export Plug-In . SVG Version: 6.00 Build 0)  -->
<svg version="1.1" xmlns="http://www.w3.org/2000/svg" xmlns:xlink="http://www.w3.org/1999/xlink" x="0px" y="0px"
	 viewBox="0 0 64.615 74.134" style="enable-background:new 0 0 64.615 74.134;" xml:space="preserve">
<g id="Kyowa_x5F_Hakko">
	<path style="fill-rule:evenodd;clip-rule:evenodd;" d="M32.376,0.019c0.469-0.155,1.586,0.698,2.211,1.057
		c3.396,1.946,6.777,3.911,10.094,5.864c5.918,3.485,11.994,7.049,17.977,10.67c0.607,0.367,1.721,0.886,1.875,1.298
		c0.186,0.494,0,1.493,0,2.307c0.002,11.462-0.377,23.463-0.578,34.703c-1.144,1.017-2.584,1.625-3.893,2.403
		c-8.504,5.06-17.432,9.662-26.1,14.708c-0.521,0.304-1.541,1.106-2.018,1.106c-0.424,0-1.594-0.751-2.115-1.058
		c-3.393-1.989-6.488-3.891-9.902-5.815c-1.358-0.767-2.697-1.587-3.988-2.307c-4.746-2.646-9.299-5.291-13.939-8.075
		c-0.648-0.389-1.389-0.64-1.971-1.153c-0.086-2.667,0.049-6.493,0.049-9.421c0.002-9.062,0.088-18.698,0.096-27.685
		c0.449-0.65,1.229-0.904,1.875-1.298C6.589,14.554,11.456,12,16.13,9.247c2.65-1.561,5.459-2.963,8.123-4.566
		c0.666-0.4,1.275-0.832,1.971-1.202c0.68-0.361,1.346-0.774,2.02-1.153C29.624,1.546,31.029,0.781,32.376,0.019z M32.472,2.181
		c-0.281,1.261-0.338,2.668-0.527,4.085c-0.553,4.103-0.879,8.277-1.395,12.353c-0.598,4.732-1.098,9.624-1.682,14.371
		c-0.09,0.722-0.039,1.603-0.24,2.067c-0.191,0.442-1.049,0.857-1.635,1.25c-0.606,0.405-1.186,0.852-1.682,1.202
		c-3.408,2.399-6.793,5.064-10.094,7.306c-2.271,1.542-4.506,3.234-6.73,4.854c-1.957,1.426-4.049,2.801-5.91,4.229
		c-0.217,0.165-0.65,0.37-0.578,0.721c5.088-2.067,9.975-4.424,15.094-6.585c2.455-1.037,5.09-2.108,7.545-3.317
		c1.713-0.843,3.803-1.601,5.672-2.452c0.586-0.267,1.518-0.794,1.971-0.769c0.436,0.024,1.314,0.625,1.875,0.865
		c3.344,1.437,6.303,2.723,9.469,4.23c6.311,3.004,12.555,5.701,18.889,8.507c-0.266-0.558-0.887-0.948-1.441-1.346
		c-0.57-0.41-1.156-0.852-1.731-1.202c-3.303-2.529-6.625-5.039-10.045-7.45c-3.924-2.88-7.697-5.802-11.729-8.651
		c-0.478-0.339-1.482-0.884-1.635-1.298c-0.172-0.472-0.144-1.362-0.191-2.067c-0.051-0.728-0.184-1.407-0.24-2.019
		c-0.898-9.779-1.729-19.531-2.836-28.935c-0.002-0.029-0.008-0.057-0.049-0.048c-0.002-0.029-0.006-0.057-0.047-0.048
		C32.558,2.106,32.49,2.118,32.472,2.181z M34.3,2.614c1.033,2.167,2.254,4.261,3.459,6.345c3.633,6.274,7.07,12.636,10.623,18.938
		c0.588,1.043,1.127,2.136,1.731,3.172c3.037,5.21,6.084,10.425,8.939,15.717c0.986,1.826,2.061,3.771,3.125,5.479
		c0.105,0.169,0.197,0.612,0.529,0.529c-2.988-7.93-6.428-15.537-9.422-23.312c-0.43-1.116-0.826-2.31-1.346-3.364
		c-0.506-1.027-1.404-2.021-2.115-3.028c-2.113-3-4.521-6-6.584-8.844c-2.943-4.056-5.863-7.965-8.844-11.728
		c-0.062-0.002-0.066-0.062-0.145-0.048C34.259,2.526,34.244,2.606,34.3,2.614z M2.048,52.313c1.656-2.735,3.158-5.528,4.807-8.267
		c5.617-9.336,11.125-18.836,16.533-28.31c1.236-2.131,2.326-4.294,3.557-6.393c1.227-2.092,2.596-4.117,3.654-6.344
		c-0.033,0-0.064,0-0.098,0c-0.08,0.004-0.105,0.106-0.143,0.144c-1.652,1.673-2.945,3.756-4.52,5.623
		c-0.77,0.914-1.449,1.936-2.162,2.932c-0.699,0.976-1.553,1.866-2.26,2.835c-2.053,2.822-4.432,5.837-6.633,8.652
		c-0.764,0.977-1.635,1.97-2.162,2.932c-0.561,1.022-1.045,2.228-1.441,3.364c-0.404,1.154-0.932,2.266-1.443,3.365
		c-1.033,2.221-1.936,4.546-2.836,6.777C5.074,44.16,2.98,48.582,1.279,53.274C1.652,53.078,1.843,52.652,2.048,52.313z
		 M5.316,23.474c0.1-0.578,0.105-1.237,0.289-1.683c0.131-0.319,0.713-0.705,1.154-1.057c5.461-4.377,10.676-8.679,16.102-12.881
		c0.854-0.661,1.611-1.383,2.402-2.067c1.012-0.874,2.256-1.562,3.125-2.596c-0.049,0-0.096,0-0.144,0
		c-1.024,0.696-2.242,1.358-3.221,2.163c-0.963,0.792-2.02,1.482-3.027,2.211c-5.516,3.99-11.269,7.784-16.775,11.872
		c-0.457,0.339-1.355,0.875-1.49,1.154c-0.184,0.378-0.123,1.122-0.191,1.73c-0.746,6.503-1.34,12.964-1.924,19.37
		c-0.215,2.364-0.641,4.683-0.527,7.066C2.658,40.54,3.869,31.876,5.316,23.474z M37.857,4.152
		c5.189,4.632,10.725,8.917,16.006,13.458c1.266,1.212,2.588,2.237,3.941,3.413c0.436,0.379,1.088,0.75,1.248,1.202
		c0.158,0.443,0.211,1.11,0.289,1.683c0.881,6.44,1.869,12.691,2.836,18.985c0.359,2.338,0.607,4.636,1.201,6.777
		c-0.287-4.768-0.633-9.454-1.105-14.372c-0.391-4.074-0.793-8.345-1.154-12.496c-0.055-0.635-0.049-1.337-0.238-1.731
		c-0.178-0.366-0.916-0.756-1.395-1.105c-1.48-1.078-2.871-2.259-4.23-3.269c-3.982-2.957-7.588-5.694-11.486-8.507
		c-1.932-1.393-3.824-2.854-5.865-4.134C37.894,4.018,37.865,4,37.808,4.008C37.806,4.074,37.831,4.113,37.857,4.152z M3.585,55.87
		c-0.238,0.258,0.391,0.261,0.529,0.289c2.021,0.404,4.238,0.565,6.297,0.817c0.561,0.069,1.125,0.258,1.682,0.336
		c0.631,0.089,1.252,0.112,1.875,0.192c3.652,0.468,7.107,0.979,10.766,1.442c1.773,0.225,3.637,0.543,5.385,0.721
		c0.617,0.063,1.246,0.233,1.826,0.24c0.555,0.007,1.178-0.133,1.777-0.192c6.522-0.644,13.008-1.742,19.371-2.451
		c1.793-0.2,3.588-0.328,5.336-0.625c0.525-0.089,1.19-0.14,1.584-0.433C41.306,55.935,22.275,55.949,3.585,55.87z M5.316,57.937
		c0.506,0.218,1.082,0.543,1.635,0.817c0.539,0.268,1.135,0.465,1.682,0.721c3.262,1.529,6.646,3.003,9.949,4.47
		c2.219,0.984,4.432,1.996,6.635,2.98c1.107,0.495,2.197,1.015,3.315,1.49c1.139,0.483,2.258,1.068,3.461,1.394
		c2.199-0.747,4.289-1.804,6.441-2.692c2.145-0.885,4.283-1.807,6.393-2.74c3.924-1.734,7.955-3.55,11.824-5.287
		c0.213-0.096,0.57-0.143,0.625-0.433c-6.396,2.196-12.529,4.6-18.889,6.921c-0.928,0.338-1.975,0.748-3.076,1.202
		c-0.732,0.301-2.451,1.124-3.221,1.105c-0.42-0.01-1.133-0.354-1.731-0.577c-0.59-0.219-1.17-0.498-1.635-0.673
		c-5.713-2.146-11.031-4.28-16.726-6.345c-2.043-0.74-4.549-1.937-6.777-2.499c-0.029,0.003-0.057,0.007-0.049,0.048
		C5.242,57.852,5.253,57.919,5.316,57.937z"/>
</g>
<g id="Layer_1">
</g>
</svg>
