<?xml version="1.0" encoding="iso-8859-1"?>
<!-- Generator: Adobe Illustrator 19.2.0, SVG Export Plug-In . SVG Version: 6.00 Build 0)  -->
<svg version="1.1" xmlns="http://www.w3.org/2000/svg" xmlns:xlink="http://www.w3.org/1999/xlink" x="0px" y="0px"
	 viewBox="0 0 44.858 68.562" style="enable-background:new 0 0 44.858 68.562;" xml:space="preserve">
<g id="LS_x5F_Croth_x5F_and_x5F_Co">
	<path style="fill-rule:evenodd;clip-rule:evenodd;" d="M33.458,0.134c0.3,0.469,0.055,1.219,0.103,1.881
		c-0.706,0.955-1.854,1.469-2.441,2.541c0.54,0.393,1.942-0.076,2.491,0.307c0.043,7.252,0.166,14.922-0.05,22.014
		c-2.982,0.289-6.622-0.08-9.609,0.203c-0.309,1-0.129,2.75-0.102,3.916c0.753,0.27,1.645,0.152,2.491,0.152
		c2.443,0,4.938-0.109,7.475,0.102c0.296,0.32,0.071,1.256,0.152,1.881c0.113,0.877,0.861,2.1,1.322,3.051
		c0.499,1.033,0.958,2.086,1.372,2.949c1.922,4.006,3.562,7.791,5.491,11.846c0.647,1.361,1.348,2.977,2.033,4.475
		c0.259,0.565,0.624,1.184,0.661,1.678c0.078,1.029-0.248,2.395-0.559,3.406c-0.333,1.08-0.775,1.877-1.271,2.645
		c-0.946,1.461-2.503,3.018-4.017,3.812c-3.503,1.84-9.271,1.691-12.151-1.018c-1.448-1.129-2.601-2.629-3.457-4.371
		c-0.281-0.572-0.326-1.291-0.864-1.729c-0.502,0.537-0.591,1.272-0.865,1.881c-0.822,1.828-2.025,3.334-3.609,4.525
		c-1.993,1.498-5.026,2.713-8.541,2.135c-2.92-0.48-5.263-2.105-6.813-4.068c-1.602-2.027-2.771-4.652-2.694-8.135
		c3.211-6.621,6.449-13.121,9.66-19.93c0.205-0.434,0.493-0.924,0.711-1.424c0.22-0.502,0.571-1.008,0.662-1.424
		c0.167-0.771-0.222-1.678,0.152-2.287c1.569-0.061,3.259-0.109,4.932-0.051c1.631,0.055,3.354,0.184,4.83-0.102
		c0.156-1.158,0.191-2.797,0-3.865c-2.936-0.369-6.623,0.014-9.609-0.305c-0.192-3.42-0.102-7.182-0.102-10.828
		c-0.001-3.697-0.084-7.43,0.102-10.982c0.673-0.232,1.574-0.012,2.136-0.152c0.577-0.147,1.067-0.805,1.524-1.17
		c0.543-0.434,0.979-0.889,1.475-1.221c0.942-0.838,1.836-1.723,2.898-2.439C24.137,0.106,28.921-0.142,33.458,0.134z M20.29,2.37
		c-0.915,0.598-1.853,1.516-2.847,2.34c-1.108,0.914-2.179,2.357-3.865,2.541c-0.199,5.496-0.151,11.73,0,17.439
		c1.044,0.271,2.38,0.152,3.661,0.152c1.277,0,2.612,0.209,3.661-0.101c0.328-1.338,0.102-2.922,0.102-4.373
		c0-5.162,0.002-10.609,0.152-15.506c1.85-0.344,4.163-0.039,6.152-0.152c0.758-0.414,1.439-1.082,2.033-1.629
		c0.197-0.18,0.595-0.385,0.458-0.711C26.746,2.286,23.341,2.286,20.29,2.37z M23.798,6.997c-0.377,0.553-0.22,2.133-0.101,2.848
		c2.414,0.203,5.39,0.154,7.881,0c0.145-0.723,0.212-2.152-0.051-2.797C29.167,6.846,26.241,6.944,23.798,6.997z M23.696,12.182
		c-0.198,0.799-0.165,1.973,0,2.797c1.218,0.133,2.632,0.166,4.017,0.102c1.369-0.064,2.737,0.061,3.864-0.152
		c0.166-0.709,0.163-2.037,0-2.746C29.156,11.893,26.057,12.032,23.696,12.182z M23.798,17.114c-0.39,0.565-0.17,1.992-0.152,2.797
		c1.122,0.272,2.531,0.152,3.915,0.152c1.366,0,2.792,0.082,3.966-0.102c0.249-0.619,0.239-2.125,0-2.746
		C29.243,16.919,26.244,17.081,23.798,17.114z M23.798,21.944c-0.364,0.566-0.228,2.123-0.101,2.848
		c1.175,0.182,2.599,0.102,3.966,0.102c1.383,0,2.794,0.121,3.915-0.152c0.189-0.705,0.154-1.91,0-2.695
		C29.286,21.741,26.254,21.917,23.798,21.944z M11.9,33.434c-0.354,0.49,0.18,0.98,0.356,1.373c0.213,0.473,0.433,0.969,0.661,1.424
		c0.477,0.949,0.798,1.969,1.22,2.949c0.821,1.906,1.767,3.811,2.643,5.693c0.832,1.785,1.786,3.769,2.695,5.594
		c0.418,0.84,0.823,1.832,1.322,2.846c0.192,0.393,1.097,2.625,1.525,2.645c0.388,0.019,0.619-0.809,0.812-1.221
		c0.243-0.516,0.521-0.986,0.712-1.371c2.325-4.695,4.563-9.312,6.712-14.033c0.65-1.432,1.318-2.895,1.932-4.271
		c0.21-0.471,0.512-0.941,0.509-1.475C26.5,33.296,18.035,33.54,11.9,33.434z M10.019,40.45c-1.922,3.824-3.681,7.588-5.542,11.287
		c-0.778,1.549-1.69,3.004-2.135,4.627c1.23,0.277,2.576,0.154,3.914,0.152c3.599,0,7.112,0.053,10.524,0.053
		c0.965,0,1.984,0.121,2.899-0.154c-0.233-1.176-0.836-2.236-1.321-3.305c-0.983-2.158-1.939-4.262-2.949-6.355
		c-0.51-1.055-1.058-2.137-1.475-3.203c-0.118-0.301-0.141-0.664-0.254-0.965c-0.29-0.768-0.737-1.535-1.068-2.289
		c-0.331-0.754-0.648-1.564-1.22-2.135c-0.003-0.031-0.008-0.061-0.051-0.051C10.764,38.405,10.403,39.686,10.019,40.45z
		 M33.407,38.366c-2.44,5.244-5.056,10.529-7.474,15.711c-0.354,0.758-0.823,1.496-0.915,2.338c0.634,0.389,1.414,0.154,2.136,0.154
		c4.528-0.014,10.314,0.205,15.049-0.053c-0.032-0.856-0.523-1.627-0.864-2.389c-1.043-2.332-2.051-4.623-3.203-6.914
		c-1.114-2.215-2.108-4.584-3.254-6.865c-0.302-0.6-0.731-2.113-1.321-2.135C33.486,38.243,33.435,38.294,33.407,38.366z
		 M16.07,58.907c-4.148,0-9.079-0.139-13.372,0c-0.297,0.451,0.012,1.045,0.152,1.475c0.462,1.406,1.305,2.746,2.237,3.609
		c1.899,1.758,4.908,2.854,8.236,2.188c1.938-0.391,3.453-1.455,4.627-2.695c1.073-1.135,2.17-2.441,2.187-4.373
		C18.841,58.762,17.453,58.907,16.07,58.907z M39.509,58.958c-4.666,0-9.534-0.074-14.032,0c-0.181,0.006-0.41-0.037-0.407,0.152
		c-0.184,0.5,0.176,1.004,0.356,1.424c1.342,3.123,4.21,5.613,8.542,5.541c2.967-0.049,5.245-1.392,6.711-3.15
		c0.842-1.012,1.521-2.32,1.729-3.764C41.499,58.837,40.475,58.958,39.509,58.958z"/>
</g>
<g id="Layer_1">
</g>
</svg>
