<?xml version="1.0" encoding="iso-8859-1"?>
<!-- Generator: Adobe Illustrator 19.2.0, SVG Export Plug-In . SVG Version: 6.00 Build 0)  -->
<svg version="1.1" xmlns="http://www.w3.org/2000/svg" xmlns:xlink="http://www.w3.org/1999/xlink" x="0px" y="0px"
	 viewBox="0 0 80.463 79.161" style="enable-background:new 0 0 80.463 79.161;" xml:space="preserve">
<g id="La_x5F_Caffetteria">
	<path style="fill-rule:evenodd;clip-rule:evenodd;" d="M7.386,72.153c-0.651-0.367-0.849-1.301-1.223-2.152
		C2.51,61.684,0,50.993,0,39.283C0,26.45,3.057,15.691,7.043,7c6.223-3.016,13.795-5.263,21.962-6.31
		c2.789-0.357,5.647-0.494,8.706-0.636c3.37-0.156,7.489,0.032,10.517,0.44c8.113,1.093,15.055,2.707,21.62,5.478
		c1.276,0.539,2.769,0.961,3.718,1.663c0.578,0.428,0.805,1.281,1.174,2.104c1.689,3.764,2.869,8.29,3.913,12.669
		c1.251,5.249,1.81,11.146,1.81,17.169c0,12.312-2.622,22.871-6.457,31.451c-0.639,1.43-2.403,1.843-4.06,2.494
		c-3.425,1.348-7.548,2.707-11.495,3.522c-5.874,1.213-11.298,1.943-17.951,2.103c-3.216,0.076-6.426-0.209-9.44-0.588
		c-6.105-0.767-11.416-1.894-16.484-3.57C12.095,74.169,9.613,73.468,7.386,72.153z M31.256,11.843
		c-1.629,5.837-0.008,12.486,3.717,15.017c0.965,0.655,2.229,1.339,3.522,1.223c0.339-0.891,0.196-1.92,0.196-2.886
		c0-6.687,0-13.185,0-19.517c0-0.399,0.16-1.037-0.342-1.223C34.314,5.204,32.307,8.078,31.256,11.843z M44.022,27.544
		c1.759-0.939,2.961-2.553,3.815-4.305c0.748-1.532,1.398-3.729,1.516-5.674c0.156-2.577-0.215-4.532-0.783-6.457
		c-0.853-2.895-2.387-5.105-5.038-6.163c-0.55-0.219-1.38-0.601-1.81-0.342C41.459,4.8,41.48,6.744,41.479,7.44
		c-0.012,5.188,0.152,10.1,0.049,14.919c-0.043,1.979-0.128,3.94,0.098,5.771C42.436,28.229,43.312,27.924,44.022,27.544z
		 M11.592,29.892c-0.405,0.466,0.051,1.122,0.245,1.517c0.242,0.493,0.518,1.005,0.733,1.468c1.393,2.984,2.949,5.868,4.305,8.804
		c1.384,2.999,2.758,6.022,4.207,8.902c0.498,0.99,1.124,1.933,1.369,3.033c-0.372,1.418-0.738,2.809-1.124,4.206
		c-0.381,1.375-0.924,2.751-0.979,4.256c0.729,0.262,1.533,0.146,2.299,0.146c10.655,0.001,21.128,0.098,31.745,0.098
		c1.613,0,3.227,0.119,4.794-0.146c-0.087-1.347-0.529-2.574-0.88-3.864c-0.158-0.58-0.316-1.232-0.489-1.907
		c-0.156-0.612-0.488-1.427-0.44-2.006c0.032-0.385,0.411-0.999,0.685-1.517c0.276-0.521,0.54-1.052,0.734-1.467
		c2.866-6.16,5.745-12.113,8.56-18.099c0.468-0.995,1.146-1.99,1.223-3.13c-0.689-0.34-1.494-0.196-2.25-0.196
		c-12.65,0.002-24.752-0.11-36.783-0.049c-0.602,1.066-0.883,2.346-1.223,3.571c-0.858,3.093-1.787,6.284-2.69,9.293
		c-0.17,0.568-0.309,1.238-0.734,1.663c-0.559-0.411-0.774-1.131-1.076-1.712c-1.906-3.663-3.699-7.492-5.625-11.104
		c-0.32-0.6-0.484-1.314-1.027-1.761C15.419,29.812,13.342,29.809,11.592,29.892z M33.457,64.719
		c-0.258,0.654-0.147,1.44-0.147,2.201c0,0.799,0,1.598,0,2.396c0,1.554-0.112,3.199,0.147,4.549c1.303,0.116,3.272,0.236,4.451,0
		c0.177-1.391,0.098-3.021,0.098-4.598c0-1.591,0.117-3.211-0.146-4.549C36.61,64.559,34.706,64.556,33.457,64.719z M42.311,64.67
		c-0.337,0.601-0.196,1.436-0.196,2.201c0,1.616,0,3.229,0,4.793c0,0.798-0.108,1.595,0.146,2.25
		c1.392-0.004,3.195,0.247,4.402-0.049c0.268-2.958,0.175-6.29,0-9.146C45.414,64.529,43.64,64.616,42.311,64.67z"/>
	<path style="fill-rule:evenodd;clip-rule:evenodd;" d="M52.729,35.468c2.382,0.063,5.02-0.129,7.239,0.098
		c-0.087,0.916-0.642,1.718-1.027,2.544c-0.78,1.673-1.57,3.334-2.348,4.989c-0.379,0.807-0.608,1.776-1.321,2.348
		c-0.485-0.648-0.585-1.515-0.832-2.348c-0.487-1.648-0.898-3.171-1.37-4.989c-0.179-0.691-0.672-2.059-0.489-2.544
		C52.618,35.52,52.671,35.492,52.729,35.468z"/>
</g>
<g id="Layer_1">
</g>
</svg>
