<?xml version="1.0" encoding="iso-8859-1"?>
<!-- Generator: Adobe Illustrator 19.2.0, SVG Export Plug-In . SVG Version: 6.00 Build 0)  -->
<svg version="1.1" xmlns="http://www.w3.org/2000/svg" xmlns:xlink="http://www.w3.org/1999/xlink" x="0px" y="0px"
	 viewBox="0 0 45.207 74.764" style="enable-background:new 0 0 45.207 74.764;" xml:space="preserve">
<g id="La_x5F_Stabilite">
	<path style="fill-rule:evenodd;clip-rule:evenodd;" d="M7.402,0.132C7.705,1.57,7.309,3.705,7.611,5.143
		c0.626,0.274,1.563,0.156,2.4,0.156c0.847,0,1.73,0.075,2.401-0.053c0.477-1.332-0.014-3.632,0.313-5.114
		c2.388-0.174,5.027-0.146,7.307,0.053c0.298,5.84-0.022,11.553,0.261,17.64c1.344,0.141,3.213,0.233,4.54,0.053
		c0.259-1.418,0.188-2.93,0.156-4.437c-0.086-4.124-0.106-8.852,0.104-13.256c2.206-0.226,5.059-0.082,7.15,0
		c0.412,1.361-0.069,3.617,0.261,5.062c0.617,0.275,1.52,0.157,2.401,0.157c0.859,0,1.786,0.081,2.453-0.104
		c0.416-1.377-0.069-3.653,0.261-5.114c2.198-0.173,5.108-0.173,7.307,0c0.189,1.994,0.104,4.216,0.104,6.419
		c0,2.157,0.133,4.369-0.104,6.263c-1.929,0.137-4.042,0.157-6.159,0.157c-2.077-0.001-4.243-0.126-6.106,0.156
		c-0.17,1.316-0.174,3.33,0,4.645c0.923,0.277,1.977,0.157,3.027,0.157c1.029,0,2.096,0,3.131,0c2.129,0,4.26-0.197,6.107,0.104
		c0.282,6.012,0.156,11.973,0.156,17.953c0,2.989,0.049,5.95,0.052,8.924c0.003,2.945,0.159,5.957,0,8.925
		c-0.333,6.214-3.468,11.281-6.941,14.509c-1.869,1.736-3.852,3.204-6.419,4.332c-2.463,1.082-5.367,2.035-8.663,2.035
		c-6.89,0-11.696-2.709-15.553-5.897c-1.885-1.558-3.512-3.547-4.802-5.897c-1.221-2.225-2.43-5.029-2.662-8.037
		c-0.242-3.144,0.074-6.305,0-9.394c-0.221-9.23,0.004-18.069,0.052-27.504c4.012-0.275,8.292,0.021,12.317-0.261
		c0.262-1.252,0.248-3.495,0-4.749c-2.959-0.113-6.091-0.204-9.29-0.053c-1.026,0.049-2.086,0.083-3.027-0.156
		c-0.174-4.224-0.185-8.608,0-12.683C2.409-0.034,5.246-0.054,7.402,0.132z M8.028,26.332c-0.285,1.001-0.189,2.087-0.156,3.132
		c0.109,3.487-0.017,6.927-0.052,10.281c-0.024,2.225,0.153,4.416,0.052,6.628c-0.1,2.205-0.14,4.536,0,6.837
		c0.251,4.137,2.283,7.214,4.541,9.343c2.441,2.302,5.421,3.913,9.655,4.228c4.301,0.318,7.829-1.646,10.229-3.653
		c1.843-1.543,3.297-3.702,4.175-6.264c0.299-0.872,0.639-1.868,0.731-2.766c0.227-2.212,0-4.648,0-6.993
		c0-5.83-0.07-11.909,0-17.432c0.014-1.13,0.051-2.275-0.209-3.236c-1.279-0.175-3.186-0.179-4.28,0.053
		c-0.278,0.895-0.156,1.863-0.156,2.818c0,5.982,0,12.137,0,17.641c0,0.96,0.127,1.959-0.157,2.87
		c-5.582-0.031-11.808,0.243-17.327,0c-0.802-0.035-1.611,0.148-2.349-0.156c-0.3-7.758,0.049-15.596-0.261-23.277
		C11.204,26.179,9.375,26.279,8.028,26.332z M20.45,26.384c-0.429,0.437-0.261,1.182-0.261,1.774c0,2.075-0.026,4.142,0,6.158
		c0.034,2.684-0.097,5.431,0.157,7.829c1.398,0.155,3.258,0.228,4.593,0c0.1-4.866,0.127-10.551-0.052-15.71
		C23.622,26.234,21.799,26.329,20.45,26.384z"/>
</g>
<g id="Layer_1">
</g>
</svg>
