<?xml version="1.0" encoding="iso-8859-1"?>
<!-- Generator: Adobe Illustrator 19.2.0, SVG Export Plug-In . SVG Version: 6.00 Build 0)  -->
<svg version="1.1" xmlns="http://www.w3.org/2000/svg" xmlns:xlink="http://www.w3.org/1999/xlink" x="0px" y="0px"
	 viewBox="0 0 81.517 81.992" style="enable-background:new 0 0 81.517 81.992;" xml:space="preserve">
<g id="Laboratori_x5F_Cosmochimici">
	<path style="fill-rule:evenodd;clip-rule:evenodd;" d="M12.544,70.365C7.242,65.336,3.335,59.114,1.248,50.991
		c-1.088-4.23-1.521-9.297-1.072-13.955c0.43-4.473,1.627-8.647,3.117-12.166c3.006-7.099,7.654-12.787,13.547-17.073
		c5.238-3.811,11.262-6.531,19.322-7.515c9.51-1.16,18.061,1.422,24.18,4.754c2.781,1.516,5.063,3.377,7.412,5.368
		c2.348,1.991,4.369,4.333,6.031,6.747c3.451,5.014,6.383,11.037,7.361,18.198c1.096,8.009-0.348,15.999-2.863,21.93
		c-2.396,5.65-6.338,10.756-10.836,14.722c-4.565,4.023-9.971,7.21-16.717,8.793c-3.416,0.801-7.483,1.314-11.502,1.176
		C27.195,81.551,19.041,76.507,12.544,70.365z M74.806,47.362c1.459-8.213-0.217-16.158-3.066-21.776
		c-2.885-5.689-6.871-10.348-12.217-13.852c-5.105-3.348-11.834-6.029-20.447-5.624c-3.305,0.156-6.512,0.858-9.252,1.789
		c-2.678,0.91-5.234,1.967-7.361,3.477c-2.141,1.519-4.092,3.028-6.033,4.806c-1.859,1.702-3.5,3.884-4.856,6.031
		C8.693,26.775,6.73,31.823,6.207,38.57c-0.246,3.169,0.084,6.883,0.715,9.916c0.621,2.981,1.66,5.595,2.863,8.026
		c2.225,4.498,5.797,8.809,9.764,11.91c4.143,3.239,9.065,5.827,14.875,6.85c6.877,1.21,13.582,0.284,18.812-1.687
		c5.246-1.978,9.324-4.993,12.881-8.844C70.273,60.217,73.509,54.67,74.806,47.362z"/>
	<path style="fill-rule:evenodd;clip-rule:evenodd;" d="M40.71,7.03c0.477-0.055,1.168,0.536,1.688,0.868
		c3.082,1.972,5.969,3.775,9.201,5.777c0.568,0.352,1.242,0.756,1.381,1.073c0.31,0.718,0.051,3.409,0.051,4.447
		c0,4.259-0.104,7.251-0.051,11.246c0.008,0.679,0.164,1.538,0,2.044c-0.149,0.458-0.91,0.739-1.432,1.074
		c-3.131,2.01-5.99,3.73-9.15,5.725c-0.412,0.26-1.178,0.854-1.584,0.869c-0.422,0.016-1.19-0.59-1.637-0.869
		c-2.57-1.604-5.101-3.229-7.615-4.805c-1.008-0.631-2.082-1.146-2.967-1.994c-0.062-5.938-0.137-11.935,0-17.687
		c0.766-0.904,1.887-1.428,2.914-2.045c2.035-1.22,3.973-2.527,6.084-3.834C38.64,8.273,39.683,7.515,40.71,7.03z M46.845,18.174
		c-1.168-1.114-2.994-2.043-4.447-2.965c-0.455-0.289-1.297-1.08-1.789-0.869c-1.029,0.442-2.021,1.205-3.016,1.841
		c-0.49,0.313-1,0.613-1.483,0.92c-0.494,0.313-1.059,0.595-1.381,1.073c-0.191,3.455-0.07,7.217-0.051,10.888
		c0.869,0.815,1.959,1.354,2.965,1.994c1.014,0.645,2.008,1.388,3.17,1.84c2.172-1.116,4.185-2.392,6.082-3.782
		C46.912,25.69,46.945,21.853,46.845,18.174z"/>
	<path style="fill-rule:evenodd;clip-rule:evenodd;" d="M11.982,43.375c1.16-0.839,2.451-1.546,3.732-2.249
		c1.275-0.7,2.541-1.434,3.834-2.147c1.934-1.068,3.729-2.182,5.674-3.322c0.623-0.365,1.252-0.823,1.892-1.073
		c0.451-0.178,1.336,0.415,1.891,0.715c1.598,0.865,3.189,1.679,4.754,2.557c2.219,1.244,4.41,2.175,6.287,3.476
		c-0.029,3.443-0.184,7.134-0.357,10.786c-0.047,0.994,0.142,2.742-0.205,3.527c-0.213,0.48-1.246,0.887-1.84,1.227
		c-3.23,1.851-6.365,3.771-9.609,5.572c-1.328,0.736-2.617,1.51-3.988,2.096c-1.176-0.332-2.15-1.077-3.221-1.636
		c-2.107-1.101-4.176-2.296-6.287-3.425c-1.041-0.558-2.215-0.948-3.066-1.789C11.578,53.056,11.746,48.046,11.982,43.375z
		 M22.308,56.819c0.465,0.258,1.115,0.781,1.637,0.767c0.328-0.01,0.842-0.362,1.277-0.613c1.232-0.711,2.482-1.438,3.578-2.096
		c1.66-0.996,3.396-1.739,4.754-2.863c0.105-2.263,0.256-4.754,0.205-7.003c-0.768-0.752-1.869-1.226-3.068-1.84
		c-0.506-0.26-1.01-0.566-1.584-0.869c-0.57-0.302-1.478-0.896-1.941-0.665c-2.293,1.145-4.707,2.695-6.902,3.987
		c-0.781,0.461-1.57,0.885-2.248,1.432c-0.162,2.261-0.271,4.837-0.256,7.105C19.142,55.103,20.769,55.965,22.308,56.819z"/>
	<path style="fill-rule:evenodd;clip-rule:evenodd;" d="M41.886,55.694c-0.137-4.771-0.381-9.705-0.459-14.364
		c1.824-1.197,3.977-2.207,6.186-3.373c1.018-0.538,2.08-1.085,3.117-1.636c1.059-0.562,2.107-1.235,3.119-1.637
		c0.637-0.252,1.602,0.585,2.248,0.972c0.729,0.436,1.4,0.755,1.943,1.125c1.885,1.185,3.973,2.083,5.775,3.373
		c1.816,1.3,3.916,2.112,5.676,3.477c0.232,4.656,0.451,9.601,0.408,14.364c-0.354,0.496-0.969,0.65-1.482,0.92
		c-3.58,1.874-7.148,4.037-10.99,5.725c-1.469-0.525-2.693-1.415-3.988-2.146c-1.301-0.736-2.59-1.483-3.936-2.198
		C47.031,58.695,44.293,57.361,41.886,55.694z M47.97,52.116c2.146,1.493,4.703,2.884,7.105,4.243
		c0.67,0.379,1.787,1.341,2.504,1.329c0.488-0.009,1.117-0.535,1.586-0.767c0.574-0.286,1.084-0.593,1.533-0.818
		c1.135-0.57,2.246-0.94,3.016-1.738c0.016-2.304,0.084-4.81-0.102-7.105c-2.219-1.616-4.777-2.89-7.158-4.345
		c-0.842-0.299-1.963-1.58-2.76-1.176c-1.832,0.929-4.373,2.15-5.98,3.272C47.716,47.264,47.791,49.872,47.97,52.116z"/>
</g>
<g id="Layer_1">
</g>
</svg>
