<?xml version="1.0" encoding="iso-8859-1"?>
<!-- Generator: Adobe Illustrator 19.2.0, SVG Export Plug-In . SVG Version: 6.00 Build 0)  -->
<svg version="1.1" xmlns="http://www.w3.org/2000/svg" xmlns:xlink="http://www.w3.org/1999/xlink" x="0px" y="0px"
	 viewBox="0 0 76.034 78.933" style="enable-background:new 0 0 76.034 78.933;" xml:space="preserve">
<g id="Laboratoires_x5F_Sarbach">
	<path style="fill-rule:evenodd;clip-rule:evenodd;" d="M60.102,27.869c0.413-1.213,0.207-2.795,0.207-4.445c0-3.188,0-6.163,0-9.51
		c0-2.271-0.6-5.562,1.706-5.324c1.538,0.16,1.285,2.317,1.24,4.186c-0.06,2.488,0,4.7,0,7.339c0,1.106-0.146,3.072,0.672,3.101
		c1.154,0.041,0.567-3.736,0.62-4.858c0.096-2.054-0.571-5.632,1.396-5.685c0.565-0.016,1.096,0.494,1.292,0.93
		c0.419,0.929,0.045,3.274,0.104,5.117c0.059,1.875,0.168,3.641,0,5.168c-0.107,0.966-0.84,1.93-1.706,2.223
		c-0.846,0.287-2.761-0.22-2.17,1.55c0.473,0.596,1.376,0.362,2.325,0.362c0.93,0,2.484,0.176,2.843-0.258
		c0.472-0.57,0.246-2.989,0.207-4.031c-0.082-2.173-0.422-4.856,1.446-4.858c1.791-0.002,1.448,2.4,1.447,4.341
		c0,0.64,0.001,1.467,0,2.326c0,0.856-0.135,1.785,0.155,2.17c0.39,0.517,1.779,0.278,2.326,0.465
		c0.709,0.243,1.33,0.812,1.603,1.706c0.317,1.045,0.214,2.574,0.155,3.876c-0.085,1.874,0.424,4.14-1.396,4.238
		c-1.905,0.102-1.55-2.15-1.55-4.187c0-1.033,0.212-2.735-0.672-2.739c-1.024-0.005-0.64,2.905-0.621,3.876
		c0.016,0.796-0.031,1.419,0,2.274c0.029,0.771-0.109,1.765,0.207,2.119c0.337,0.376,1.593,0.211,2.223,0.414
		c1.846,0.592,1.706,2.695,1.706,5.272c-0.001,1.909,0.323,3.879-1.396,4.083c-0.069,0-0.139,0-0.207,0
		c-1.872-0.276-1.321-3.219-1.344-5.014c-0.008-0.643,0.058-1.46-0.724-1.447c-0.667,0.141-0.594,0.984-0.62,1.551
		c-0.096,2.017,0.099,4.311,0,6.409c-0.099,2.092,0.038,4.311-0.052,6.46c-0.032,0.751,0.085,1.516-0.104,2.016
		c-0.444,1.176-2.104,1.368-2.636,0.155c-0.311-0.709-0.135-2.357-0.104-3.463c0.104-3.74,0.015-7.276,0.052-10.75
		c0.036-3.445,0.071-7.293,0-10.905c-0.015-0.744,0.257-2.993-0.568-3.049c-1.1-0.075-0.724,2.832-0.724,3.773
		c0.001,9.009-0.153,17.615-0.103,26.772c0.008,1.397,0.184,2.857-0.311,4.032c-0.413,0.598-1.243,0.759-1.86,0.258
		c-0.702-0.57-0.565-1.924-0.62-3.256c-0.168-4.066,0.052-7.767,0.052-11.887c0-3.885,0.177-7.913,0.052-11.888
		c-0.025-0.821,0.257-3.256-0.672-3.256c-0.982,0-0.662,2.738-0.621,3.618c0.038,0.795-0.103,1.472-0.103,2.119
		c-0.008,8.013,0.05,16.149,0.052,24.137c0,2.029,0.353,4.479-1.138,4.858c-0.448,0.114-0.91-0.052-1.188-0.258
		c-0.942-0.983-0.62-2.567-0.62-3.928c0-7.085,0-14.866,0-22.069c0-1.495,0.012-2.985,0.052-4.445
		c0.083-3.029-0.561-6.04,1.757-6.823c1.184-0.399,2.69,0.298,2.378-1.344c-0.401-0.675-1.326-0.465-2.378-0.465
		c-0.752,0-2.445-0.142-2.791,0.207c-0.306,0.309-0.258,1.622-0.258,2.533c0,8.102,0.104,16.141,0.104,24.395
		c-0.001,3.696,0,6.986,0,10.958c0,1.893,0.212,4.415-1.654,4.238c-1.76-0.177-1.292-3.037-1.292-5.272c0-0.953,0.028-2.119,0-3.308
		c-0.021-0.878,0.148-2.5-0.568-2.584c-1.066-0.125-0.775,1.759-0.775,2.842c0,2.721,0,4.315,0,7.081
		c0,1.77,0.106,3.615-1.551,3.566c-1.838-0.054-1.406-2.522-1.396-4.445c0.014-2.443-0.052-4.402-0.052-6.977
		c0-1.075-0.161-2.284,0.052-3.204c0.198-0.855,1.101-1.819,2.067-2.016c0.521-0.106,1.516,0.19,1.964-0.258
		c0.374-0.374,0.177-2.13,0.207-2.843c0.188-4.445,0.151-9.034,0-13.851c-0.078-2.487,0.033-5.607,0-8.166
		c-0.013-1.008,0.128-2.423-0.259-2.739c-0.427-0.35-2.84-0.28-3.152,0.155c-0.271,0.377-0.155,1.477-0.155,2.17
		c0,4.611,0,8.968,0,13.645c0,0.732-0.111,1.642,0.052,2.222c0.145,0.515,0.656,0.837,1.034,1.137
		c0.599,0.477,1.101,0.946,1.396,1.654c1.681,4.041-2.714,7.704-6.15,5.582c-1.305-0.805-2.639-2.654-2.068-4.961
		c0.172-0.694,0.617-1.357,1.034-1.809c0.467-0.506,1.532-0.909,1.758-1.551c0.311-0.888,0.003-2.356,0-3.359
		c-0.009-2.172,0.004-4.497,0-6.822c-0.002-0.869,0.225-2.819-0.104-3.36c-0.33-0.541-2.652-0.508-3.153-0.155
		c-0.511,0.36-0.34,1.794-0.311,2.584c0.108,2.878-0.1,6.105,0,8.786c0.118,3.145,0,5.81,0,8.993c0,0.868-0.145,2.344,0.207,2.739
		c0.448,0.502,1.804,0.146,2.688,0.568c0.783,0.375,1.436,1.269,1.499,2.43c0.132,2.445-0.051,4.861-0.052,7.494
		c0,1.033,0.001,2.362,0,3.773c0,2.088,0.347,4.277-1.498,4.341c-1.782-0.133-1.447-2.471-1.447-4.548c0-2.645-0.001-4.772,0-7.545
		c0-1.083,0.278-3.063-0.673-3.101c-1.075-0.043-0.724,2.605-0.724,3.876c0,3.115,0,6.031,0,9.045c0,1.755,0.038,3.188-1.498,3.256
		c-1.678-0.052-1.377-2.14-1.396-3.98c-0.065-6.274-0.052-12.84-0.052-19.434c0-1.176-0.083-2.524-0.052-3.876
		c0.025-1.107,0.281-3.155-0.517-3.256c-1.189-0.151-0.866,2.162-0.827,3.049c0.176,3.984,0.003,7.992,0.052,11.629
		c0.053,3.921,0,7.654,0,11.784c0,2.113,0.344,4.389-1.447,4.6c-1.904-0.027-1.499-2.468-1.499-4.703
		c0-8.41-0.052-16.116-0.052-24.188c0-2.458-0.198-4.444,1.706-5.117c0.679-0.24,2.034-0.071,2.377-0.414
		c0.313-0.313,0.207-1.727,0.207-2.533c0-0.871,0-1.886,0-2.688c0-2.843-0.384-5.66,1.757-6.409c1.199-0.419,5.32,0.555,4.756-1.344
		c-0.194-0.649-1.258-0.517-2.223-0.517c-1.978,0-3.549,0.029-5.272-0.052c-0.9-0.042-2.119-0.062-2.429,0.258
		c-0.613,0.635-0.012,2.601-0.155,3.618c0.765,1.175,1.738,1.375,2.326,2.377c0.667,1.138,0.782,3.051,0.104,4.341
		c-0.556,1.056-1.509,1.77-2.637,2.119c-2.691,0.834-5.674-1.167-5.582-4.342c0.045-1.552,0.856-2.639,1.81-3.411
		c0.344-0.278,0.792-0.458,0.931-0.931c0.148-0.508,0.202-3.278-0.104-3.669c-0.3-0.384-1.699-0.258-2.532-0.258
		c-1.983-0.001-3.487,0.02-5.427,0c-1.149-0.012-1.956-0.017-2.016,0.724c-0.119,1.483,2.697,0.769,4.135,0.93
		c1.091,0.122,2.039,0.96,2.326,1.86c0.458,1.437,0.081,3.397,0.154,5.168c0.029,0.689,0,1.674,0,2.584
		c0,0.705-0.061,2.006,0.311,2.326c0.32,0.276,1.475,0.167,2.171,0.362c0.883,0.246,1.559,0.879,1.809,1.809
		c0.279,1.037,0.077,2.563,0.104,3.928c0.077,3.936,0.035,7.667,0,11.681c-0.021,2.397,0.209,5.053,0.104,7.701
		c-0.044,1.094,0,2.528,0,3.928c0,2.271,0.511,4.647-1.551,4.858c-1.671,0.012-1.367-2.426-1.396-4.29
		c-0.13-8.542,0.072-16.965-0.103-25.377c-0.017-0.827-0.071-1.361-0.724-1.344c-0.961,0.025-0.71,2.23-0.672,3.153
		c0.165,3.915,0.001,7.803,0,11.681c0,3.914,0.052,7.549,0.052,11.422c0,1.945,0.308,4.011-1.344,4.186
		c-1.586,0.078-1.498-1.552-1.498-3.308c-0.001-2.865-0.053-5.919-0.053-8.993c0-1.211,0.238-3.761-0.723-3.773
		c-1.067-0.013-0.705,2.461-0.724,3.463c-0.054,2.893,0.104,5.706,0.052,8.425c-0.032,1.631,0.006,2.954-1.345,3.101
		c-2.037,0.118-1.55-2.575-1.55-4.6c0-2.968-0.053-5.08-0.052-8.166c0-1.224-0.19-2.894,0.155-3.825
		c0.264-0.713,0.845-1.231,1.446-1.447c0.763-0.274,2.019,0.031,2.43-0.362c0.337-0.322,0.206-1.852,0.206-2.739
		c0.001-6.014-0.021-11.771-0.051-17.521c-0.005-0.926,0.133-1.878-0.207-2.688c-0.548-0.325-2.6-0.614-3.152-0.104
		c-0.564,0.519-0.159,2.245-0.155,3.101c0.007,1.579-0.058,3.462-0.052,5.272c0.002,0.812-0.017,1.832-0.052,2.584
		c-0.044,0.938-0.083,1.871,0.103,2.584c0.254,0.97,1.256,1.153,1.809,1.809c0.915,1.085,1.34,2.865,0.775,4.393
		c-0.705,1.908-3.094,3.696-5.634,2.584c-1.303-0.57-2.782-2.363-2.636-4.445c0.062-0.886,0.424-1.723,0.827-2.274
		c0.557-0.761,1.684-1.223,1.912-1.964c0.184-0.593,0.052-1.495,0.052-2.326c0-4.603-0.026-8.924-0.052-13.748
		c-0.004-0.782,0.002-1.764-0.258-2.067c-0.491-0.574-2.793-0.237-3.102,0.104c-0.39,0.428-0.155,2.137-0.155,3.256
		c0.001,8.123,0.042,16.288,0.207,24.085c0.278,0.555,1.707,0.285,2.378,0.517c0.776,0.269,1.505,1.333,1.653,2.377
		c0.256,1.794,0.078,4.306,0.104,6.667c0.025,2.439,0.101,4.833-0.207,6.461c-0.341,1.02-1.752,1.152-2.273,0.206
		c-0.329-0.594-0.274-2.089-0.311-3.152c-0.086-2.471,0.084-4.256,0-6.926c-0.034-1.1,0.132-2.607-0.724-2.636
		c-0.833-0.028-0.724,1.041-0.724,2.119c0,0.998,0.049,2.122,0.052,2.739c0.009,2.232,0.639,5.987-1.396,6.254
		c-0.034,0-0.069,0-0.104,0c-0.67-0.054-0.955-0.492-1.24-0.93c-0.272-9.974-0.31-20.284-0.31-30.804
		c0-3.429,0.025-6.881-0.208-10.233c-0.29-0.46-1.838-0.31-2.945-0.311c-1.374,0-2.634-0.227-2.481,0.879
		c0.126,0.91,1.475,0.507,2.481,0.878c0.663,0.245,1.369,0.907,1.603,1.809c0.285,1.105,0.155,2.77,0.154,4.341
		c0,8.258,0.206,17.098,0.207,25.946c0,2.221,0.582,5.28-1.499,5.324c-1.866-0.151-1.241-2.851-1.344-5.013
		c-0.194-4.121-0.155-8.683-0.155-13.025c0-4.227-0.051-8.469-0.052-12.973c0-0.939,0.342-3.671-0.774-3.618
		c-0.385,0.019-0.646,0.288-0.621,1.344c0.105,4.332-0.057,9.218,0.104,13.231c0.096,2.386-0.021,5.144,0,7.443
		c0.011,1.11,0.053,2.415,0.052,3.825c0,2.005,0.442,4.6-1.395,4.6c-1.872,0-1.447-3.283-1.447-5.22c0-1.589-0.103-3.037-0.103-4.29
		c-0.001-7.623-0.104-14.247-0.104-21.863c0-0.63-0.067-1.49-0.052-2.171c0.013-0.58,0.098-1.334-0.672-1.395
		c-1.101,0.153-0.724,1.87-0.724,2.998c0,7.271,0.103,14.147,0.104,21.708c0,1.782,0.481,3.87-1.086,4.187
		c-2.137,0.431-1.757-2.812-1.757-4.91c0-3.691-0.103-7.023-0.103-10.906c0-0.933-0.114-1.459-0.672-1.499
		c-1.066-0.076-0.827,1.364-0.827,2.429c0,1.864,0.341,4.001-1.24,4.083c-1.661,0.086-1.493-1.588-1.551-3.256
		c-0.101-2.926-0.391-5.651,2.016-6.202c0.806-0.184,1.442,0.188,1.965-0.207c0.413-0.312,0.286-1.377,0.258-2.016
		c-0.071-1.559,0.068-2.998,0-4.704c-0.037-0.937-0.017-1.585-0.62-1.706c-1.163-0.232-0.931,1.481-0.931,2.481
		c0,1.954,0.417,4.216-1.24,4.393c-1.941-0.037-1.551-2.281-1.551-4.393c0-1.303-0.151-2.846,0.103-3.669
		c0.26-0.84,1.048-1.529,1.81-1.757c0.655-0.197,1.633,0.082,2.119-0.31c0.537-0.434,0.309-2.89,0.309-3.98
		c0-0.699-0.041-1.482-0.052-2.17c-0.022-1.331,0.114-2.664,1.395-2.688c1.845-0.034,1.451,2.551,1.551,4.652
		c0.029,0.633,0,1.302,0,2.067c0,0.726-0.1,1.688,0.155,2.016c0.352,0.453,2.301,0.258,3.049,0.258c0.97,0,2.826,0.261,2.378-1.137
		c-0.22-0.684-1.024-0.425-1.913-0.62c-1.977-0.434-2.396-1.923-2.273-4.6c0.078-1.72,0.051-3.364,0-5.272
		c-0.043-1.59-0.233-3.282,1.395-3.463c1.633,0.067,1.337,1.568,1.396,3.411c0.055,1.744,0.025,3.327,0.052,5.014
		c0.011,0.718-0.164,1.775,0.672,1.912c1.098-0.23,0.746-1.945,0.724-2.946c-0.057-2.438-0.071-4.795,0-7.339
		c0.048-1.724-0.484-4.155,1.344-4.186c1.614-0.028,1.293,2.075,1.344,3.876c0.117,4.211-0.092,8.239,0.104,12.663
		c0.032,0.741-0.033,2.177,0.258,2.481c0.351,0.365,1.595,0.258,2.481,0.258c1.846,0,3.352-0.147,5.375-0.052
		c0.948,0.045,2.105,0.071,1.809-1.086c-0.227-0.887-1.749-0.568-2.893-0.568c-2.703,0-4.947,0.141-5.479-2.016
		c-0.285-1.154-0.053-3.048-0.053-4.445c0-3.847,0-7.273,0-11.164c0-1.693-0.287-2.806,1.292-3.049c0.035,0,0.069,0,0.104,0
		c1.634,0.052,1.301,2.202,1.344,3.98c0.051,2.088,0.052,3.904,0.052,6.305c0,1.075-0.119,2.508,0.62,2.584
		c1.112,0.114,0.825-2.44,0.827-3.515c0.006-2.902-0.075-5.881-0.103-8.735c-0.013-1.328,0.075-3.16,1.499-2.997
		c1.638,0.187,1.241,2.528,1.241,4.651c0,2.799,0.103,4.985,0.102,7.753c0,1.508,0.119,2.867-0.102,3.825
		c-0.266,1.144-1.026,1.837-1.706,2.016c-0.825,0.216-2.12-0.106-2.274,0.672c-0.223,1.127,0.979,1.156,2.223,1.137
		c0.858-0.013,2.556,0.226,3.049-0.155c0.665-0.513,0.247-3.938,0.259-5.065c0.047-4.309,0-8.709,0-13.232
		c0-1.789-0.196-3.12,1.396-3.308c0.034,0,0.069,0,0.104,0c1.367,0.184,1.421,1.564,1.396,3.308
		c-0.077,5.395,0.052,10.635,0.052,16.281c0,0.959-0.07,2.078,0.672,2.119c0.893,0.049,0.775-1.232,0.775-2.429
		c0-5.153-0.095-10.467,0-15.247c0.041-2.072-0.547-5.012,1.396-5.065c1.931,0.22,1.396,3.169,1.396,5.685
		c0,0.801,0.044,1.684,0.052,2.429c0.007,0.697-0.167,1.689,0.672,1.757c0.911-0.043,0.775-1.09,0.775-1.913
		c0-0.806,0-1.763,0-2.636c0-1.825-0.276-4.077,0.206-5.065c0.236-0.483,0.6-0.823,1.241-0.775c1.981,0.122,1.446,3.583,1.446,5.996
		c0,0.923,0,1.816,0,2.739c0,0.878,0.128,1.969-0.051,2.688c-0.245,0.981-0.995,1.521-1.81,1.757
		c-0.685,0.199-1.44,0.072-2.171,0.362c-0.423,0.656-0.243,1.535-0.206,2.377c0.074,1.698-0.057,3.508,0,5.168
		c0.086,2.576-0.02,4.569-2.017,5.065c-0.998,0.248-2.22-0.21-2.325,0.827c-0.139,1.369,2.184,1.083,3.515,1.034
		c0.681-0.025,1.289,0.033,2.171,0c0.691-0.026,1.771,0.021,2.118-0.362c0.282-0.31,0.156-1.435,0.155-2.119
		c0-0.827,0.037-1.616-0.051-2.222c-0.655-0.966-1.766-1.357-2.326-2.429c-0.225-0.429-0.323-0.889-0.517-1.447
		c-0.408-3.458,2.832-5.963,5.84-4.858c2.049,0.753,3.614,3.457,2.43,6.047c-0.539,1.179-1.611,1.606-2.43,2.584
		c-0.078,0.591-0.064,1.432-0.052,2.274c0.011,0.702-0.066,1.9,0.259,2.222c0.466,0.462,3.046,0.207,3.928,0.207
		c0.662,0,1.413,0,2.067,0c0.678,0,1.426,0.103,1.603-0.465c0.104-0.155,0.029-0.488,0.052-0.724
		c-0.313-0.783-1.875-0.441-2.585-0.672c-1.59-0.517-1.757-2.008-1.757-4.238c0-2.521-0.018-5.853-0.155-8.166
		c-0.33-0.58-1.732-0.196-2.532-0.517c-0.694-0.278-1.381-1.099-1.603-1.912c-0.389-1.425-0.104-3.529-0.104-5.272
		c0-0.813,0-1.761,0-2.687c0-1.549-0.17-2.895,0.982-3.308c0.625-0.217,1.37,0.156,1.654,0.723c0.269,0.539,0.206,1.696,0.206,2.429
		c0,1.796-0.003,3.204,0.052,5.168c0.023,0.824-0.077,1.98,0.672,2.016c1.195,0.057,0.724-3.135,0.724-4.341
		c0-0.823,0.078-1.707,0.052-2.429c-0.05-1.398-0.161-3.091,1.292-3.153c1.964-0.084,1.551,2.851,1.551,4.858
		c0,2.29,0.052,4.091,0.052,6.202c0,3.021-0.025,6.214,0.052,9.407c0.025,1.086-0.163,2.378,0.827,2.326
		c0.762-0.041,0.62-1.064,0.62-2.067c0-5.386,0-10.605,0-16.333c0-1.648-0.163-3.335,1.344-3.359
		c2.127-0.034,1.428,3.781,1.499,6.047c0.137,4.375,0.103,8.043,0.104,13.076c0,0.854-0.113,2.124,0.206,2.48
		c0.416,0.464,2.017,0.229,3.102,0.207c1.149-0.023,2.595,0.282,2.48-0.93c-0.083-0.886-1.272-0.603-2.016-0.775
		c-0.878-0.204-1.694-0.781-2.016-1.551c-0.411-0.984-0.259-2.886-0.259-4.393c0-3.141,0-6.269,0-9.251
		c0-1.521-0.204-2.967,1.396-3.205c1.755-0.071,1.567,2.432,1.499,4.186c-0.102,2.646,0.052,5.101,0.052,7.908
		c0,1.213-0.235,3.251,0.724,3.256c0.868,0.004,0.672-1.675,0.672-2.688c0-2.284,0.1-4.023,0-6.306
		c-0.081-1.858-0.377-3.923,1.447-3.98c1.944,0.107,1.368,3.296,1.447,5.272c0.128,3.189-0.001,5.9,0,9.2
		c0,3.023,0.439,5.454-1.861,6.099c-0.514,0.145-1.249,0.08-1.912,0.103c-1.363,0.047-2.3-0.006-3.721,0.052
		c-0.763,0.031-1.153,0.251-1.188,0.775c-0.064,0.929,0.827,0.977,1.86,0.982c0.979,0.005,2.049,0.015,2.688,0
		C56.715,28.033,58.648,28.201,60.102,27.869z"/>
</g>
<g id="Layer_1">
</g>
</svg>
