<?xml version="1.0" encoding="iso-8859-1"?>
<!-- Generator: Adobe Illustrator 19.2.0, SVG Export Plug-In . SVG Version: 6.00 Build 0)  -->
<svg version="1.1" xmlns="http://www.w3.org/2000/svg" xmlns:xlink="http://www.w3.org/1999/xlink" x="0px" y="0px"
	 viewBox="0 0 40.321 80.744" style="enable-background:new 0 0 40.321 80.744;" xml:space="preserve">
<g id="Landwirtschaftsausstellung_x5F_der_x5F_GDR">
	<path style="fill-rule:evenodd;clip-rule:evenodd;" d="M29.725,45.029c0.207,4.873,0.138,10.256,0.052,15.057
		c-0.41,0.797-1.267,1.224-2.012,1.702c-0.75,0.482-1.65,0.877-2.526,1.186c-1.995,0.704-4.125,0.654-6.343,0.052
		c-0.851-0.231-1.799-0.639-2.63-1.083c-1.673-0.896-3.053-1.827-4.898-2.527c-0.879-0.333-1.976-0.709-2.94-0.773
		c-2.885-0.19-5.021,0.859-6.755,2.217c-0.553,0.378-0.826,1.303-1.495,1.392c-0.176-9.348-0.102-18.774-0.103-29.185
		c-0.001-8.233,0-17.423,0-25.835c0-1.264-0.198-2.759,0.052-3.661C0.285,2.995,1.015,2.612,1.57,2.23
		c0.616-0.425,1.129-0.79,1.65-1.083c2.77-1.561,6.757-1.479,9.643-0.052c0.62,0.307,1.286,0.735,1.96,1.186
		c0.509,0.341,1.429,0.969,1.599,1.496c0.182,0.565,0.051,1.68,0.051,2.526c0.001,2.484,0,5.264,0,7.632
		c0.003,9.087,0.053,18.006,0.052,27.33c0,0.847-0.143,1.812,0,2.527c0.076,0.378,0.485,0.762,0.774,1.031
		c2.041,1.905,6.963,3.111,10.313,1.444c0.367-0.217,0.77-0.398,1.083-0.67C29.045,45.435,29.222,44.873,29.725,45.029z"/>
	<path style="fill-rule:evenodd;clip-rule:evenodd;" d="M40.141,0.321c0.274,12.883,0.152,26.656,0.154,39.963
		c0.003,13.526,0.048,27.041-0.052,40.324c-1.969,0.203-4.626,0.156-6.806,0c-0.261-1.6-0.155-3.245-0.155-4.898
		c0.001-12.018-0.001-23.789,0-35.529c0.001-13.384-0.001-25.811,0-38.932c0-0.328-0.121-0.794,0.206-1.031
		C35.523,0.217,38.041,0.117,40.141,0.321z"/>
	<path style="fill-rule:evenodd;clip-rule:evenodd;" d="M29.312,4.447c0.523,0.311,0.31,1.308,0.31,2.062
		c0.001,4.573-0.044,9.199,0.052,13.717c0.018,0.853,0.075,1.708-0.104,2.217c-0.382,1.089-1.76,1.544-2.99,1.96
		c-0.805,0.272-1.806,0.652-2.218-0.155c-0.448,0.676-1.152,0.58-2.217,0.361c-1.597-0.328-3.082-1.378-3.507-2.785
		c-0.022-4.826-0.031-9.504-0.052-14.49c-0.002-0.627-0.009-1.308,0.206-1.908c0.833,0.215,1.502,0.595,2.372,0.773
		c0.216,1.923,0.066,4.082,0.104,6.24c0.038,2.16-0.204,4.361,0,6.239c0.229,2.11,2.641,2.086,2.991,4.074
		c0.466-0.74,0.462-1.29,1.083-1.96c0.488-0.526,1.681-1.004,1.907-1.702c0.182-0.558,0.052-1.533,0.052-2.424
		c0-2.452,0.044-5.033,0.052-7.373c0.004-1.199-0.186-2.595,0.051-3.558c0.344-0.62,1.208-0.718,1.702-1.186
		c0.038-0.048,0.094-0.078,0.155-0.103C29.278,4.447,29.295,4.447,29.312,4.447z"/>
	<path style="fill-rule:evenodd;clip-rule:evenodd;" d="M25.342,6.406c0.277,1.024,0.154,2.211,0.154,3.404
		c0,2.459,0.201,4.898,0,7.322c-0.053,0.634-0.284,1.234-0.516,1.753c-0.233,0.521-0.347,1.125-0.774,1.443
		c-0.471-0.165-0.478-0.799-0.671-1.289c-0.286-0.729-0.647-1.411-0.722-2.423c-0.227-3.121,0.069-7.073,0.155-10.055
		C23.628,6.405,24.706,6.416,25.342,6.406z"/>
	<path style="fill-rule:evenodd;clip-rule:evenodd;" d="M24.156,30.797c-2.013,0.196-3.784-0.264-4.796-1.495
		c-0.615-0.748-0.567-1.73-0.567-3.3c0-0.717-0.035-1.456,0.052-2.011c0.019-0.068,0.091-0.081,0.104-0.155
		c0.362,0.156,0.611,1.059,1.083,1.392c0.795,0.562,2.077,0.609,3.042,1.238C24.159,27.173,24.846,28.937,24.156,30.797z"/>
	<path style="fill-rule:evenodd;clip-rule:evenodd;" d="M29.57,23.887c0.57-0.01,0.313,1.468,0.31,2.166
		c-0.006,1.248,0.25,2.341-0.206,3.094c-0.479,0.792-1.176,0.841-1.805,1.29c-0.879,0.161-2.099,0.757-2.991,0.257
		c-0.502-1.514-0.108-3.266,0.774-3.919c1.231-0.912,3.319-0.979,3.765-2.733C29.445,23.967,29.495,23.916,29.57,23.887z"/>
	<path style="fill-rule:evenodd;clip-rule:evenodd;" d="M24.362,35.18c0.365-0.349,0.287-0.957,0.464-1.341
		c0.623-1.351,2.581-1.375,3.765-2.32c0.472-0.377,0.553-0.743,1.083-1.083c0.447,0.442,0.233,1.121,0.258,1.701
		c0.07,1.668,0.182,3.364-0.825,4.177c-0.887,0.716-3.228,1.563-4.692,1.083c-2.247,0.742-4.965-0.585-5.518-2.423
		c-0.206-1.383-0.055-3.004-0.052-4.486c0.027-0.042,0.054-0.084,0.052-0.155c0.034,0,0.068,0,0.103,0
		c0.394,0.174,0.459,0.675,0.722,0.98c0.767,0.829,2.025,0.956,2.939,1.547C23.545,33.432,23.747,34.339,24.362,35.18z"/>
	<path style="fill-rule:evenodd;clip-rule:evenodd;" d="M24.362,41.935c0.356-0.969,0.453-1.818,1.187-2.372
		c0.891-0.675,2.27-0.74,3.146-1.496c0.387-0.318,0.591-0.819,0.979-1.134c0.529,0.29,0.259,0.946,0.258,1.495
		c-0.003,1.417,0.129,3.128-0.516,3.971c-0.825,1.08-2.648,1.551-4.383,1.702c-0.292-0.172-0.521-0.407-0.619-0.773
		c-0.215,0.214-0.219,0.641-0.567,0.722c-1.942,0.029-3.36-0.429-4.28-1.443c-1.047-1.154-0.821-3.601-0.67-5.775
		c-0.01-0.044,0.02-0.049,0.052-0.052c0.103-0.086,0.065,0.005,0.206,0c0.373,0.652,0.453,1.224,1.031,1.65
		c0.832,0.612,2.165,0.71,2.939,1.341C23.816,40.333,23.865,41.149,24.362,41.935z"/>
</g>
<g id="Layer_1">
</g>
</svg>
