<?xml version="1.0" encoding="iso-8859-1"?>
<!-- Generator: Adobe Illustrator 19.2.0, SVG Export Plug-In . SVG Version: 6.00 Build 0)  -->
<svg version="1.1" xmlns="http://www.w3.org/2000/svg" xmlns:xlink="http://www.w3.org/1999/xlink" x="0px" y="0px"
	 viewBox="0 0 54.081 88.348" style="enable-background:new 0 0 54.081 88.348;" xml:space="preserve">
<g id="Landwirtschaftlicher_x5F_Einkauf">
	<path style="fill-rule:evenodd;clip-rule:evenodd;" d="M30.46,0.123c-0.113,2.243-0.71,4.419-1.047,6.643
		c-0.335,2.213-0.845,4.417-0.941,6.695c0.483,0.115,0.856-0.282,1.151-0.523c1.019-4.09,1.654-8.563,2.511-12.816
		c0.391-0.148,1.358-0.198,1.674,0.053c-0.367,4.044-1.537,8.018-1.936,12.031c0.24,0.335,1.141,0.01,1.465,0.262
		c0.183,1.624-1.005,2.753-1.412,4.132c0.013,0.388,0.657,0.144,0.731,0.471c-0.197,1.563-1.037,2.484-1.464,3.818
		c0.047,0.336,0.642,0.125,0.732,0.418c-0.428,1.805-1.441,3.023-2.093,4.603c0.064,0.336,0.667,0.135,0.732,0.471
		c-0.915,3.122-1.999,6.003-4.185,7.846c-0.531,0.449-1.189,0.668-1.622,1.255c-0.261,1.624-0.697,3.345-0.68,5.074
		c1.828-0.069,3.565-0.467,5.545-0.471c3.528-0.007,7.06,0.846,9.781,2.092c2.736,1.254,5.008,2.865,7.062,4.76
		c2.08,1.919,3.818,4.11,5.074,6.748c1.583,3.327,2.748,7.079,2.511,12.031c-0.262,5.466-2.268,9.128-4.551,12.763
		c-3.021,3.837-6.636,6.585-11.561,8.526c-1.583,0.625-3.498,1.12-5.388,1.255c-9.184,0.658-15.509-2.565-20.034-7.114
		c-0.319-0.321-0.699-0.536-0.941-0.837c-0.368-0.458-0.676-0.992-1.046-1.465c-2.559-3.272-4.389-7.267-5.021-12.554
		c-0.187-1.554-0.121-3.168-0.209-4.813c-0.086-1.601-0.053-3.313-0.053-4.969c0-5.837-0.262-11.592-0.262-17.366
		c0-0.583,0.023-1.247,0-1.883c-0.02-0.584,0.051-1.306-0.052-1.778c-0.094-0.43-0.724-0.909-1.046-1.308
		c-1.323-1.633-2.207-3.47-2.825-6.015c-0.124-0.509-0.452-1.335-0.313-1.831c0.099-0.353,0.429-0.265,0.627-0.575
		c-0.063-0.638-0.42-1.355-0.575-2.145c-0.214-1.097-0.528-2.572,0.157-3.19c-0.438-1.275-0.967-2.725-0.837-4.394
		c0.173-0.257,0.61,0.06,0.837-0.104c-0.171-1.255-1.329-2.496-0.837-4.028c0.578-0.16,1.061,0.459,1.569,0.366
		c0.279-0.377,0.109-0.913,0.105-1.36C1.759,7.404,1.603,3.516,1.69,0.228c0.476-0.189,1.376-0.223,1.83,0
		c0.16,4.152,0.102,8.861,0.262,13.286c0.217,0.307,0.443,0.603,0.941,0.628c0.325-0.898,0.157-1.944,0.157-2.982
		c0-3.483,0.023-7.714,0.053-10.932c0.289-0.255,1.16-0.198,1.464,0c0.254,0.496,0.136,1.187,0.157,1.778
		c0.114,3.047,0.12,6.372,0.262,9.468c0.047,1.021-0.038,2.043,0.209,2.982c0.443,0.07,0.759-0.422,0.994-0.732
		c0.132-3.139-0.041-6.683,0.104-9.991C8.179,2.498,7.97,1.271,8.228,0.176c0.362-0.165,1.33-0.185,1.622,0.052
		c0.382,3.698-0.197,8.288,0.209,11.873c0.582-0.033,1.185-0.528,1.936-0.156c0.251-0.889,0.174-1.905,0.209-2.93
		c0.035-1.011,0.004-2.066,0.052-3.086c0.099-2.068-0.052-4.099,0.262-5.754c0.379-0.166,1.349-0.166,1.727,0
		c0.21,4.205-0.508,8.687-0.366,13.025c0.169,0.284,0.364,0.542,0.785,0.575c0.349-1.023,0.287-2.192,0.365-3.348
		c0.229-3.35,0.385-7.002,0.732-10.252c0.36-0.165,1.388-0.193,1.674,0.052c0.058,4.591-0.708,9.369-0.471,13.966
		c0.975-0.141,0.88-1.008,0.994-2.145c0.382-3.784,0.583-8.305,0.941-11.874c0.378-0.149,1.319-0.196,1.622,0.052
		c0.166,1.936-0.195,3.993-0.314,6.015c-0.12,2.044-0.475,4.066-0.366,5.963c0.654,0.032,1.202-0.579,1.936-0.523
		c0.538,0.04,0.764,0.466,1.308,0.523c0.486-0.725,0.552-1.838,0.732-2.877c0.52-2.987,0.859-6.324,1.518-9.206
		c0.514-0.062,1.451-0.137,1.883,0.053c-0.337,3.592-1.422,7.817-1.988,11.665c-0.174,1.187-0.396,2.388,0.732,2.668
		c0.584-1.045,0.562-2.339,0.785-3.557c0.435-2.381,0.929-4.833,1.308-7.323c0.091-0.597,0.277-1.188,0.366-1.778
		c0.09-0.605,0-1.266,0.366-1.778C29.25,0.007,30.074-0.056,30.46,0.123z M20.521,14.456c-0.666,0.312-1.471,0.707-2.197,1.255
		c-0.99,0.748-1.939,1.565-1.517,3.139c1.12-0.449,1.847-1.291,2.981-1.726c0.491-0.729,1.021-1.42,1.046-2.615
		C20.712,14.51,20.681,14.418,20.521,14.456z M14.61,16.705c-0.603-0.896-1.253-1.746-2.302-2.197c-0.483,0.37-0.073,1.401,0,1.883
		c0.634,0.604,1.308,1.169,2.093,1.622C14.631,17.738,14.594,17.194,14.61,16.705z M25.49,17.595
		c-0.075-0.864-2.014-2.583-2.772-3.034c0,0.069-0.092,0.048-0.105,0.104c-0.099,0.789,0.005,1.681,0.262,2.145
		c0.221,0.398,0.74,0.66,1.099,0.994c0.408,0.381,0.692,0.832,1.15,0.994C25.376,18.514,25.52,17.947,25.49,17.595z M27.739,18.379
		c0.542-0.086,0.852-0.404,1.309-0.575c0.348-0.451,0.787-0.939,1.15-1.465c0.329-0.477,0.844-1.077,0.68-1.726
		C29.09,15.06,27.3,16.051,27.739,18.379z M10.111,14.718c-1.199,0.857-2.284,1.83-3.086,3.086c-0.04,0.39-0.174,1.137,0.157,1.308
		c0.469-0.132,0.743-0.683,1.203-1.099c0.444-0.402,1.051-0.706,1.36-1.099c0.376-0.478,0.531-1.439,0.575-2.197
		C10.252,14.718,10.182,14.718,10.111,14.718z M4.933,16.81c-0.662-0.786-1.493-1.679-2.511-1.936
		c-0.041,0.012-0.061,0.044-0.053,0.105c0.307,1.489,1.091,2.954,2.459,3.557C5.137,18.141,4.906,17.391,4.933,16.81z
		 M10.373,18.798c-1.452,0.745-2.558,1.836-3.295,3.295c0.021,0.398-0.082,0.919,0.157,1.099c0.435-0.178,0.813-0.604,1.255-0.941
		c1.042-0.796,2.096-1.918,1.988-3.453C10.443,18.798,10.408,18.798,10.373,18.798z M14.297,20.576
		c-0.583-0.69-1.174-1.373-2.041-1.778c-0.076,0.045-0.165,0.078-0.156,0.21c-0.148,1.822,0.73,3.07,2.04,3.609
		C14.394,22.148,14.371,21.21,14.297,20.576z M24.758,21.361c-0.651-0.97-1.397-1.846-2.511-2.354
		c-0.075,0.029-0.127,0.081-0.156,0.156c-0.114,0.975-0.021,1.999,0.313,2.563c0.218,0.369,0.694,0.604,1.046,0.941
		c0.312,0.3,0.544,0.741,0.941,0.785C24.726,22.968,24.735,22.157,24.758,21.361z M19.841,19.321
		c-0.751,0.446-2.057,1.253-2.824,2.092c-0.491,0.537-0.944,1.392-0.523,2.302c0.99-0.736,1.871-1.582,3.034-2.144
		c0.317-0.678,0.783-1.481,0.732-2.354C20.026,19.163,19.914,19.277,19.841,19.321z M29.884,19.373
		c-1.36,0.718-3.25,1.452-2.929,3.505c1.253-0.408,2.046-1.089,2.615-2.145c0.21-0.39,0.571-0.839,0.471-1.308
		C29.97,19.428,29.927,19.401,29.884,19.373z M5.038,21.57c-0.605-0.843-1.237-1.657-2.354-1.988
		c-0.003,0.067-0.067,0.072-0.053,0.157c0.077,0.93,0.512,1.574,0.941,2.25c0.357,0.561,0.785,1.219,1.36,1.203
		C5.158,22.841,4.982,22.09,5.038,21.57z M9.902,23.296c-0.676,0.399-2.486,1.999-2.72,2.72c-0.18,0.553-0.023,1.302,0.104,1.936
		c0.368-0.086,0.646-0.443,0.941-0.732c0.277-0.271,0.653-0.541,0.89-0.837c0.331-0.416,0.461-1.056,0.68-1.674
		c0.156-0.439,0.517-1.053,0.157-1.412C9.937,23.296,9.92,23.296,9.902,23.296z M12.152,23.453c-0.411,0.686-0.04,2.434,0.365,2.929
		c0.335,0.408,0.892,0.681,1.309,0.889C14.595,25.453,13.398,24.038,12.152,23.453z M28.681,23.715
		c-1.115,0.654-3.013,1.904-2.511,3.818c1.618-0.596,2.267-2.163,2.878-3.766C28.924,23.694,28.721,23.692,28.681,23.715z
		 M24.025,26.434c-0.098-0.727-1.679-2.416-2.353-2.563c-0.34,2.089,0.549,3.841,1.936,4.551
		C23.831,27.872,24.104,27.019,24.025,26.434z M19.161,23.976c-1.238,0.843-3.617,2.058-2.93,4.133
		c0.979-0.434,1.558-1.268,2.512-1.726c0.39-0.606,0.776-1.487,0.68-2.406C19.335,23.976,19.248,23.976,19.161,23.976z
		 M2.946,24.238c-0.035,0-0.07,0-0.105,0c-0.003,0.067-0.067,0.072-0.052,0.157c0.179,0.727,0.507,1.397,0.837,2.039
		c0.315,0.614,0.608,1.415,1.359,1.517C5.607,25.821,4.079,24.959,2.946,24.238z M13.773,30.096c-0.099-0.35-0.529-0.84-0.785-1.151
		c-0.317-0.387-0.692-0.808-1.098-0.889c-0.035,0-0.07,0-0.106,0c0.003,0.072-0.024,0.115-0.052,0.157
		c0.127,1.292,0.405,2.354,0.89,3.19c0.235,0.407,0.523,0.93,0.941,0.994C13.702,31.697,13.951,30.728,13.773,30.096z
		 M16.808,29.992c-0.812,0.785-1.234,1.602-0.941,3.295c0.301,0.035,0.592-0.149,0.784-0.314c0.592-0.507,1.171-1.29,1.622-2.04
		c0.451-0.752,1.139-1.605,1.046-2.563c-0.07,0-0.14,0-0.21,0C18.494,28.759,17.494,29.328,16.808,29.992z M7.235,31.299
		c0.065,0.527-0.169,1.354,0.209,1.569c0.739-0.334,1.292-1.112,1.778-1.831c0.457-0.675,1.082-1.579,0.785-2.511
		C8.699,29.068,7.917,30.133,7.235,31.299z M25.281,32.607c0.748-0.263,1.193-1.047,1.621-1.674
		c0.433-0.632,1.013-1.374,0.994-2.249C26.385,29.317,25.045,30.4,25.281,32.607z M2.998,28.945
		c-0.003,0.067-0.067,0.073-0.052,0.157c0.185,0.677,0.496,1.268,0.836,1.83c0.326,0.539,0.605,1.245,1.203,1.465
		C5.557,30.417,4.299,29.399,2.998,28.945z M23.241,30.776c-0.519-0.632-0.766-1.536-1.674-1.778c-0.035,0-0.069,0-0.104,0
		c-0.003,0.067-0.067,0.072-0.053,0.157c-0.145,0.963,0.192,1.681,0.523,2.354c0.237,0.483,0.51,1.107,0.994,1.203
		C23.225,32.261,23.246,31.531,23.241,30.776z M10.896,32.032c-0.585,0.898-1.258,1.706-1.987,2.458
		c-0.503,0.422-1.22,0.628-1.518,1.255c0.004,5.849,0.085,11.759,0.314,17.523c0.372,0.011,0.543-0.429,0.68-0.68
		c1.031-1.899,2.256-3.554,3.609-5.178c0.253-0.304,0.628-0.516,0.732-0.785c0.131-0.338,0.077-0.893,0.105-1.412
		c0.174-3.319,0.656-6.668,0.627-10.148c-0.384-0.538-1.038-1.063-1.464-1.778c-0.26-0.435-0.465-1.269-0.941-1.36
		C10.991,31.953,10.934,31.983,10.896,32.032z M17.802,34.333c-0.711,0.545-1.709,0.802-2.197,1.57
		c-0.222,2.203-0.215,4.796-0.314,7.062c-0.018,0.408-0.214,1.053,0.104,1.36c0.558-0.057,0.953-0.478,1.413-0.733
		c0.981-0.544,1.878-1.004,2.981-1.517c0.424-0.197,1.346-0.345,1.621-0.68c0.22-0.266,0.278-0.89,0.366-1.36
		c0.273-1.462,0.602-2.96,0.732-4.499c-0.352-0.528-0.87-0.884-1.36-1.517c-0.353-0.458-0.786-1.542-1.255-1.674
		C19.199,33.011,18.514,33.686,17.802,34.333z M11.367,52.641c-0.777,1.322-1.484,2.653-2.04,4.132
		c-0.722,1.921-1.412,4.336-1.412,6.852c-0.001,5.298,1.639,9.382,3.714,12.763c1.255,2.045,3.077,3.683,5.022,5.179
		c3.656,2.813,9.506,5.05,15.954,4.237c7.381-0.931,12.299-4.832,15.692-9.781c0.701-1.023,1.136-2.255,1.674-3.452
		c1.098-2.447,1.761-5.309,1.621-8.474c-0.143-3.243-0.716-5.84-1.83-8.422c-1.691-3.914-4.26-6.789-7.69-9.154
		c-1.594-1.099-3.464-2.049-5.649-2.772c-3.589-1.188-9.446-1.611-12.973-0.105c-0.243,1.197-0.746,2.657-0.575,3.923
		c1.244-0.225,2.193-0.611,3.4-0.837c4.456-0.835,8.974,0.321,12.03,2.04c2.273,1.279,4.163,2.898,5.649,4.865
		c1.436,1.899,2.789,4.381,3.348,7.167c0.624,3.113,0.483,6.387-0.575,9.258c-0.92,2.495-2.261,4.625-4.027,6.486
		c-2.564,2.702-5.861,4.805-10.515,5.283c-3.324,0.341-6.663-0.099-9.153-1.099c-4.194-1.684-6.793-4.268-8.997-7.951
		c-1.462-2.443-2.495-5.685-2.459-9.259c0.01-0.952,0.189-1.946,0.262-2.929c0.231-3.133,0.451-6.099,0.418-9.102
		C11.779,51.684,11.604,52.238,11.367,52.641z M15.028,48.247c-0.061,1.791-0.348,3.902-0.209,5.545
		c0.655-0.199,0.772-0.936,1.256-1.308c1.173-1.408,2.758-2.403,4.132-3.609c0.111-0.665,0.234-1.436,0.366-2.197
		c0.119-0.683,0.524-1.575,0.053-2.04C18.477,45.558,16.517,46.667,15.028,48.247z M18.272,53.949
		c-2.497,2.69-4.502,6.142-4.081,11.612c0.146,1.898,0.819,3.7,1.569,5.283c2.147,4.532,6.382,7.877,12.031,8.631
		c4.557,0.607,8.166-0.812,10.88-2.667c2.806-1.919,4.615-4.525,5.963-7.846c0.292-1.814,0.648-3.628,0.523-5.441
		c-0.119-1.72-0.542-3.473-1.099-4.864c-1.084-2.709-3.203-5.343-5.597-6.957c-2.517-1.697-5.834-2.959-9.782-2.772
		c-2.545,0.12-4.676,0.858-6.434,1.883c-0.32,1.425-0.745,3.018-0.784,4.55c0.473-0.001,0.823-0.388,1.15-0.627
		c2.642-1.933,6.512-2.855,10.566-1.674c3.568,1.04,6.507,3.943,7.741,7.532c0.842,2.447,0.751,5.139,0.053,7.323
		c-1.312,4.104-4.692,7.155-9.206,7.898c-2.549,0.419-5.166,0.03-7.271-0.994c-3.215-1.564-5.853-4.574-6.538-8.579
		c-0.794-4.638,1.143-8.667,1.465-13.234C18.856,52.934,18.604,53.615,18.272,53.949z M22.457,58.081
		c-1.258,1.548-2.683,3.908-2.354,7.114c0.365,3.564,2.93,6.514,5.858,7.689c3.827,1.536,8.049,0.274,10.305-1.831
		c2.311-2.156,3.82-5.916,2.302-10.043c-1.313-3.568-4.819-6.438-9.834-6.067C25.824,55.158,23.833,56.387,22.457,58.081z"/>
</g>
<g id="Layer_1">
</g>
</svg>
