<?xml version="1.0" encoding="iso-8859-1"?>
<!-- Generator: Adobe Illustrator 19.2.0, SVG Export Plug-In . SVG Version: 6.00 Build 0)  -->
<svg version="1.1" xmlns="http://www.w3.org/2000/svg" xmlns:xlink="http://www.w3.org/1999/xlink" x="0px" y="0px"
	 viewBox="0 0 76.532 82.008" style="enable-background:new 0 0 76.532 82.008;" xml:space="preserve">
<g id="landwirtschaftlicher_x5F_informationsdienst">
	<path style="fill-rule:evenodd;clip-rule:evenodd;" d="M15.573,0.208c0.263,14.327-0.162,30.231,0.102,44.34
		c2.017,0.207,4.358,0.102,6.699,0.102c1.155,0,2.338,0,3.477,0c1.139,0,2.274-0.12,3.274,0.153c0.17,4.802,0.17,10.334,0,15.189
		c-8.516,0.199-16.844,0.102-25.469,0.102c-1.171,0-2.358,0.155-3.477-0.102c-0.273-2.443-0.153-4.959-0.153-7.467
		c-0.001-5.003,0.001-10.094,0-15.138c-0.001-7.039,0.051-14.861,0.051-22.4c0-3.722,0.052-7.349,0.051-11.2
		c0-1.202-0.119-2.444,0.154-3.631c2.847-0.184,5.907-0.084,8.899-0.154c1.103-0.026,2.228,0.103,3.324,0.051
		C13.566,0.004,14.627-0.082,15.573,0.208z"/>
	<path style="fill-rule:evenodd;clip-rule:evenodd;" d="M45.952,0.208c0.285,4.783,0.197,10.438,0,15.24
		c-4.836,0.17-10.402,0.17-15.292,0c-0.24-2.473-0.052-5.123-0.051-7.722c0-2.587-0.144-5.168,0.103-7.518
		c2.01-0.147,4.136-0.133,6.238-0.153C39.951,0.025,43.093-0.041,45.952,0.208z"/>
	<path style="fill-rule:evenodd;clip-rule:evenodd;" d="M76.432,0.259c0.191,18.27,0.05,37.13,0.051,56.205
		c0,1.216,0.117,2.445-0.153,3.631c-1.127,0.225-2.305,0.106-3.478,0.154c-3.648,0.146-7.246-0.051-10.791-0.051
		c-4.889,0-9.853,0.086-14.678-0.102c-0.098-3.705-0.22-7.866-0.103-11.609c0.04-1.26-0.082-2.492,0.153-3.631
		c4.3-0.253,9.331,0.015,13.502-0.204c0.277-0.865,0.153-1.823,0.153-2.71c0-2.84-0.021-5.636,0.051-8.439
		c0.093-3.632-0.188-7.309-0.051-10.996c0.135-3.607,0.052-7.532,0.051-11.302c0-2.663,0.022-5.685,0-8.387
		c-0.006-0.738-0.025-2.346,0.205-2.608c0.037-0.048,0.093-0.078,0.153-0.102c2.482,0.006,5.002,0,7.518,0
		C71.492,0.106,74.089-0.014,76.432,0.259z"/>
	<path style="fill-rule:evenodd;clip-rule:evenodd;" d="M45.9,45.06c0.306,5.938,0.104,12.286,0.103,18.514
		c-0.001,6.254,0.021,12.421-0.153,18.309c-4.84,0.183-10.567,0.135-15.24,0.051c-0.277-1.484-0.153-3.027-0.154-4.552
		c-0.001-9.372,0.052-18.461,0.052-27.821c0-1.52-0.124-3.042,0.153-4.5C35.638,44.937,41.225,44.807,45.9,45.06z"/>
</g>
<g id="Layer_1">
</g>
</svg>
