<?xml version="1.0" encoding="iso-8859-1"?>
<!-- Generator: Adobe Illustrator 19.2.0, SVG Export Plug-In . SVG Version: 6.00 Build 0)  -->
<svg version="1.1" xmlns="http://www.w3.org/2000/svg" xmlns:xlink="http://www.w3.org/1999/xlink" x="0px" y="0px"
	 viewBox="0 0 145.863 143.655" style="enable-background:new 0 0 145.863 143.655;" xml:space="preserve">
<g id="Landesgartenschau_x5F_Ingolstadt">
	<path style="fill-rule:evenodd;clip-rule:evenodd;" d="M73.555,57.798c-9.722-9.583-19.312-19.301-28.899-29.019
		C54.393,19.29,63.822,9.494,73.555,0c8.522,8.145,16.831,16.711,25.302,25.182c0.739,0.739,3.439,2.961,3.478,3.598
		c0.041,0.704-2.764,3.107-3.478,3.837C90.593,41.081,81.892,49.522,73.555,57.798z"/>
	<path style="fill-rule:evenodd;clip-rule:evenodd;" d="M65.161,64.633c-18.393,19.336-38.194,37.788-56.958,56.959
		c-2.017,2.061-4.133,3.927-6.235,5.995c-0.56,0.551-0.996,1.522-1.918,1.56c0.261-36.387,0-72.946,0-111.159
		c0-3.11-0.109-6.266,0-9.233c0.105-2.844,0.075-5.802,0-8.274C21.84,21.296,43.456,43.332,65.161,64.633z"/>
	<path style="fill-rule:evenodd;clip-rule:evenodd;" d="M145.503,143.655c-49.129-0.006-94.798-0.004-143.896,0
		c0.084-0.751,1.168-1.408,1.919-2.158c11.086-11.086,22.67-22.191,33.935-33.336C73.509,72.498,109.43,35.912,145.622,0.36
		c0.08,0,0.16,0,0.24,0c-0.205,23.171-0.121,48.399-0.12,72.667C145.743,98.915,145.738,119.849,145.503,143.655z"/>
</g>
<g id="Layer_1">
</g>
</svg>
