<?xml version="1.0" encoding="iso-8859-1"?>
<!-- Generator: Adobe Illustrator 19.2.0, SVG Export Plug-In . SVG Version: 6.00 Build 0)  -->
<svg version="1.1" xmlns="http://www.w3.org/2000/svg" xmlns:xlink="http://www.w3.org/1999/xlink" x="0px" y="0px"
	 viewBox="0 0 87.248 103.704" style="enable-background:new 0 0 87.248 103.704;" xml:space="preserve">
<g id="Lankabaari_x5F_Yarn_x5F_Bar">
	<path style="fill-rule:evenodd;clip-rule:evenodd;" d="M51.678,2.166c1.386-0.208,1.432-2.318,2.877-2.157
		c2.149,0.239-0.438,3.004-1.198,3.596c0.065,1.335,2.393,1.482,2.038,2.877c-0.407,1.599-2.915-0.534-3.477-1.318
		c-0.695,0.65-3.263,2.998-3.716,1.318c-0.333-1.233,1.735-1.774,2.037-2.757c-0.254-1.32-2.107-1.4-2.037-2.757
		C48.315-1.225,51.072,1.302,51.678,2.166z"/>
	<path style="fill-rule:evenodd;clip-rule:evenodd;" d="M59.709,2.166c1.222-0.281,1.577-2.16,2.758-2.157
		c2.498,0.005-0.679,3.252-1.079,3.716c0.186,1.152,2.358,1.465,2.037,2.757c-0.426,1.716-2.978-0.646-3.596-1.318
		c-0.98,0.685-2.398,2.791-3.716,1.318c0.302-1.336,1.529-1.747,2.157-2.757c-0.335-1.207-2.196-1.488-2.157-2.757
		C56.183-1.317,59.191,1.298,59.709,2.166z"/>
	<path style="fill-rule:evenodd;clip-rule:evenodd;" d="M69.419,3.604c0.434,1.243,1.911,1.445,2.157,2.877
		c-1.271,1.488-2.691-0.61-3.596-1.318c-0.685,0.626-3.269,3.039-3.716,1.318c-0.299-1.146,1.621-1.817,2.037-2.637
		c-0.304-1.375-2.887-1.98-1.678-3.717c1.909-0.15,1.964,1.553,3.236,2.038c0.739-0.498,3.004-3.403,3.596-1.558
		C71.91,2.019,69.755,2.487,69.419,3.604z"/>
	<path style="fill-rule:evenodd;clip-rule:evenodd;" d="M43.767,9.958c0.725-0.38,2.9-3.33,3.597-1.679
		c0.606,1.438-1.707,2.085-2.038,3.236c0.277,1.149,2.4,1.572,2.157,2.877c-0.37,1.99-3.002-0.711-3.596-1.438
		c-0.736,0.518-3.132,3.439-3.716,1.559c-0.418-1.347,1.751-1.997,2.157-2.997C41.841,10.84,38.853,8.128,41.01,7.8
		C42.238,7.613,42.913,9.71,43.767,9.958z"/>
	<path style="fill-rule:evenodd;clip-rule:evenodd;" d="M51.678,9.958c1.379-0.182,1.5-2.295,2.877-2.158
		c2.17,0.217-0.606,2.978-1.198,3.716c0.262,1.185,2.479,1.562,2.038,2.997c-0.537,1.746-2.951-0.786-3.477-1.559
		c-0.589,0.776-3.8,3.502-3.836,1.199c-0.019-1.156,1.845-1.487,2.157-2.638c-0.327-1.213-1.925-1.361-2.037-2.517
		C47.953,6.446,51.204,8.99,51.678,9.958z"/>
	<path style="fill-rule:evenodd;clip-rule:evenodd;" d="M59.709,9.958c1.266-0.263,1.571-2.267,2.877-2.158
		c2.154,0.179-0.343,3.031-1.318,3.597c0.405,0.741,3.436,3.011,1.679,3.716c-1.412,0.565-1.947-1.829-2.997-2.158
		c-1.418,0.323-1.767,2.782-3.597,1.918c-0.561-1.865,1.319-2.259,1.918-3.356c-0.228-1.308-1.897-1.394-2.037-2.517
		C55.915,6.451,59.308,8.964,59.709,9.958z"/>
	<path style="fill-rule:evenodd;clip-rule:evenodd;" d="M67.74,9.958c1.397-0.208,1.493-2.242,2.877-2.158
		c2.181,0.134-0.277,3.132-1.318,3.597c0.25,0.388,3.539,3.111,1.679,3.716c-1.495,0.484-2.041-2.073-3.117-2.038
		c-0.581,0.02-3.389,3.796-3.596,1.199c-0.11-1.381,1.78-1.646,2.037-2.758c-0.273-1.303-2.012-1.359-2.037-2.637
		C64.215,6.475,67.19,9.061,67.74,9.958z"/>
	<path style="fill-rule:evenodd;clip-rule:evenodd;" d="M75.892,9.958c1.227-0.265,1.481-2.141,2.637-2.158
		c2.308-0.034-0.13,3.038-1.078,3.597c0.454,1.238,2.643,1.836,1.798,3.596c-1.824,0.521-2.007-1.571-3.236-2.038
		c-1.257,0.341-1.413,2.198-2.757,2.158c-2.261-0.067,0.171-2.989,1.198-3.597c-0.315-1.223-2.343-1.478-2.157-2.876
		C72.567,6.589,75.292,9.107,75.892,9.958z"/>
	<path style="fill-rule:evenodd;clip-rule:evenodd;" d="M43.646,17.989c1.218-0.062,2.058-2.878,3.356-2.038
		c1.484,0.959-1.195,2.723-1.678,3.596c0.595,0.737,3.297,3.346,1.318,3.716c-1.362,0.256-1.611-1.853-2.757-2.157
		c-1.33,0.162-1.674,2.709-3.236,2.038c-1.584-0.681,1.163-2.938,1.678-3.597c-0.526-1.166-2.691-1.788-1.798-3.596
		C42.194,15.575,42.627,17.334,43.646,17.989z"/>
	<path style="fill-rule:evenodd;clip-rule:evenodd;" d="M51.678,17.989c1.356-0.209,1.493-2.163,2.758-2.158
		c2.251,0.009-0.216,3.217-1.199,3.597c0.257,0.461,3.699,3.584,1.318,3.835c-1.257,0.133-1.668-1.893-2.757-2.277
		c-0.618,0.821-3.42,3.556-3.716,1.438c-0.189-1.349,1.823-1.71,2.157-2.877c-0.351-1.255-2.391-1.482-2.037-2.996
		C48.639,14.678,51.035,17.279,51.678,17.989z"/>
	<path style="fill-rule:evenodd;clip-rule:evenodd;" d="M59.709,17.989c1.36-0.152,1.552-2.307,2.877-2.158
		c2.13,0.239-0.459,3.096-1.198,3.716c0.224,1.278,2.709,1.663,2.037,3.237c-0.698,1.639-2.976-1.258-3.596-1.799
		c-0.688,0.796-3.402,3.505-3.716,1.438c-0.209-1.376,1.764-1.766,2.157-2.877c-0.284-1.222-2.358-1.507-2.157-2.877
		C56.408,14.666,59.09,17.119,59.709,17.989z"/>
	<path style="fill-rule:evenodd;clip-rule:evenodd;" d="M69.419,19.428c0.615,0.816,3.502,3.693,1.198,3.835
		c-1.278,0.079-1.527-1.866-2.757-2.157c-1.14,0.309-1.478,2.065-2.518,2.157c-2.427,0.215-0.141-3.165,0.959-3.596
		c-0.338-1.34-2.895-1.972-1.678-3.716c1.818-0.021,2.098,1.499,3.236,2.157c0.604-0.896,3.532-3.568,3.716-1.318
		C71.682,18.081,69.829,18.339,69.419,19.428z"/>
	<path style="fill-rule:evenodd;clip-rule:evenodd;" d="M75.892,17.989c0.833-0.633,3.397-3.386,3.716-1.319
		c0.2,1.293-1.829,1.756-2.157,2.877c0.329,1.188,2.228,1.49,2.157,2.757c-0.125,2.26-3.108-0.361-3.596-1.318
		c-1.178,0.406-1.781,2.66-3.236,2.158c-1.691-0.584,0.945-2.856,1.558-3.477c-0.231-1.371-2.114-1.489-2.037-2.877
		C72.419,14.554,75.247,17.171,75.892,17.989z"/>
	<path style="fill-rule:evenodd;clip-rule:evenodd;" d="M83.563,17.989c1.371-0.187,1.491-2.355,2.996-2.038
		c1.889,0.397-0.619,2.921-1.437,3.477c0.396,1.365,2.918,1.964,1.798,3.716c-1.872,0.153-1.985-1.451-3.117-2.038
		c-1.387,0.143-1.414,2.287-2.757,2.157c-2.079-0.199,0.411-3.128,1.199-3.716c-0.338-1.106-2.019-1.53-2.038-2.637
		C80.167,14.644,83.013,17.021,83.563,17.989z"/>
	<path style="fill-rule:evenodd;clip-rule:evenodd;" d="M3.73,26.14c0.726-0.497,3.029-3.404,3.596-1.558
		c0.42,1.365-1.636,1.844-2.037,2.877c0.351,1.446,2.159,1.437,2.037,3.356c-1.496,1.33-2.407-1.093-3.476-1.678
		c-1.45,0.211-1.213,2.25-2.877,2.157c-2.789-0.154,1.299-3.298,1.318-3.596c0.02-0.299-3.818-3.273-1.438-3.716
		C2.671,23.644,2.28,25.685,3.73,26.14z"/>
	<path style="fill-rule:evenodd;clip-rule:evenodd;" d="M43.767,26.14c1.146-0.346,1.458-2.162,2.638-2.157
		c2.265,0.009-0.294,3.039-1.079,3.596c0.429,1.323,2.428,1.602,1.918,3.477c-1.656,0.769-2.204-1.3-3.236-1.918
		c-1.541,0.257-1.441,2.156-3.357,2.038c-1.223-1.448,1.06-2.509,1.678-3.597c-0.335-1.17-2.157-1.441-2.157-2.637
		C40.171,22.422,43.438,25.626,43.767,26.14z"/>
	<path style="fill-rule:evenodd;clip-rule:evenodd;" d="M51.678,26.14c0.618-0.254,3.104-3.519,3.717-1.558
		c0.447,1.436-2.011,1.834-2.038,2.996c-0.01,0.397,3.752,3.477,1.198,3.716c-0.738,0.069-1.455-0.975-1.438-0.959
		c-0.364-0.35-0.547-0.736-1.198-1.198c-0.839,0.231-2.959,3.45-3.716,1.678c-0.594-1.39,1.596-2.111,2.037-3.116
		c-0.513-0.748-3.386-3.37-1.318-3.716C50.273,23.756,50.589,25.765,51.678,26.14z"/>
	<path style="fill-rule:evenodd;clip-rule:evenodd;" d="M59.709,26.14c1.255-0.304,1.204-2.318,2.877-2.157
		c2.878,0.277-1.293,3.012-1.318,3.596c-0.017,0.391,3.814,3.267,1.439,3.716c-1.405,0.267-1.71-1.733-2.757-2.277
		c-1.254,0.292-1.808,2.817-3.356,2.158c-1.605-0.685,1.196-2.948,1.678-3.597c-0.302-1.185-2.157-1.466-2.157-2.637
		C56.113,22.661,59.246,25.267,59.709,26.14z"/>
	<path style="fill-rule:evenodd;clip-rule:evenodd;" d="M67.74,26.14c0.733-0.574,3.432-3.516,3.836-1.438
		c0.262,1.344-1.843,1.751-2.157,2.877c0.326,1.024,3.1,2.295,1.918,3.477c-1.128,1.128-2.488-1.447-3.356-1.918
		c-0.677,0.748-3.727,3.496-3.836,1.198c-0.059-1.232,1.729-1.575,2.157-2.637c-0.324-1.205-2.167-1.534-2.157-2.757
		C64.163,22.699,67.309,25.189,67.74,26.14z"/>
	<path style="fill-rule:evenodd;clip-rule:evenodd;" d="M75.892,26.02c0.428-0.259,3.469-3.566,3.716-1.199
		c0.126,1.201-1.837,1.65-2.157,2.757c0.232,0.82,0.708,0.926,1.198,1.439c-0.014-0.015,1.213,0.913,0.839,1.798
		c-0.785,1.861-2.826-1.658-3.476-1.678c-0.542-0.017-3.109,3.486-3.716,1.438c-0.484-1.635,1.959-1.943,2.157-2.997
		c-0.421-1.079-2.432-1.535-2.157-2.877C72.704,22.704,75.163,25.476,75.892,26.02z"/>
	<path style="fill-rule:evenodd;clip-rule:evenodd;" d="M3.73,34.171c0.71-0.506,3.008-3.435,3.596-1.558
		c0.467,1.486-1.781,1.862-2.037,3.116c0.691,0.747,3.376,3.272,1.318,3.596c-1.353,0.213-1.686-1.719-2.757-2.157
		c-1.276,0.246-1.555,2.423-2.877,2.277c-2.1-0.23,0.437-3.208,1.318-3.716c-0.348-1.216-2.093-1.43-2.157-2.637
		C-0.007,30.446,3.39,33.615,3.73,34.171z"/>
	<path style="fill-rule:evenodd;clip-rule:evenodd;" d="M11.642,34.171c0.733-0.721,3.41-3.402,3.716-1.318
		c0.192,1.311-1.673,1.674-2.157,2.638c0.348,0.881,3.442,3.247,1.559,3.835c-1.341,0.419-1.939-1.67-2.877-2.157
		c-0.857,0.241-2.964,3.451-3.716,1.678c-0.602-1.42,1.649-2.076,2.037-3.116c-0.231-1.309-1.893-1.395-2.037-2.518
		C7.803,30.391,11.383,33.555,11.642,34.171z"/>
	<path style="fill-rule:evenodd;clip-rule:evenodd;" d="M51.678,34.171c1.457-0.317,1.089-2.18,2.758-2.157
		c2.812,0.038-1.099,3.188-1.079,3.716c0.013,0.339,3.787,3.355,1.198,3.596c-1.55,0.145-1.442-1.964-2.757-2.157
		c-1.186,0.317-1.47,2.269-2.757,2.157c-2.109-0.181,0.443-3.012,1.198-3.596c-0.234-1.329-2.081-1.44-2.037-2.757
		C48.276,30.732,51.106,33.331,51.678,34.171z"/>
	<path style="fill-rule:evenodd;clip-rule:evenodd;" d="M59.709,34.171c1.211-0.314,1.547-2.162,2.758-2.157
		c2.253,0.01-0.188,3.13-1.079,3.596c0.357,0.836,3.378,3.13,1.559,3.716c-1.384,0.446-1.949-1.688-2.997-2.157
		c-0.781,0.353-3.001,3.374-3.716,1.678c-0.587-1.39,1.624-2.113,2.037-3.116c-0.096-1.267-2.815-1.646-2.037-3.356
		C56.911,30.883,59.233,33.747,59.709,34.171z"/>
	<path style="fill-rule:evenodd;clip-rule:evenodd;" d="M67.86,34.171c1.192-0.341,1.408-2.155,2.637-2.157
		c2.338-0.004-0.208,2.946-1.078,3.596c0.409,0.812,3.382,3.13,1.559,3.716c-1.398,0.45-1.918-1.746-2.997-2.157
		c-1.225,0.196-1.775,2.743-3.236,2.157c-1.743-0.698,1.14-2.992,1.558-3.716c-0.273-1.157-2.63-1.653-2.037-3.116
		C64.921,30.873,67.155,33.71,67.86,34.171z"/>
	<path style="fill-rule:evenodd;clip-rule:evenodd;" d="M3.73,42.202c1.222-0.307,1.427-2.143,2.638-2.157
		c2.528-0.031-0.555,3.203-1.079,3.716c0.78,0.687,3.435,3.572,1.198,3.716c-1.243,0.08-1.481-1.83-2.637-2.157
		c-1.201,0.29-2.028,2.906-3.476,1.918c-1.278-0.874,1.316-2.717,1.918-3.356c-0.262-1.35-2.123-1.469-2.157-2.757
		C0.07,38.704,3.078,41.42,3.73,42.202z"/>
	<path style="fill-rule:evenodd;clip-rule:evenodd;" d="M11.762,42.202c1.198-0.52,1.231-2.205,3.116-2.037
		c1.325,1.491-1.033,2.467-1.678,3.476c0.207,1.397,2.242,1.493,2.157,2.877c-0.131,2.148-2.976-0.304-3.476-1.318
		c-0.703,0.629-3.461,3.452-3.836,1.438c-0.234-1.262,1.778-1.747,2.157-2.757c-0.207-1.386-2.352-1.625-2.037-3.117
		C8.569,38.85,11.02,41.608,11.762,42.202z"/>
	<path style="fill-rule:evenodd;clip-rule:evenodd;" d="M21.231,43.761c0.306,1.229,2.3,1.396,2.157,2.757
		c-0.218,2.095-2.932-0.383-3.476-1.198c-1.454,0.344-1.378,2.219-3.356,2.037c-1.352-1.54,1.161-2.429,1.678-3.596
		c-0.4-0.725-3.293-2.902-1.678-3.596c1.453-0.625,2.049,1.635,3.116,2.037c0.84-0.477,3.234-3.413,3.716-1.438
		C23.731,42.167,21.568,42.558,21.231,43.761z"/>
	<path style="fill-rule:evenodd;clip-rule:evenodd;" d="M37.294,43.641c0.291,1.26,2.183,1.49,2.157,2.757
		c-0.044,2.226-2.975-0.196-3.476-1.078c-1.412,0.198-1.68,2.546-3.236,2.037c-1.763-0.575,1.06-2.873,1.558-3.596
		c-0.505-0.74-3.354-2.997-1.558-3.596c1.485-0.496,1.859,1.771,3.116,2.037c0.711-0.608,3.182-3.333,3.596-1.438
		C39.735,42.064,37.783,42.634,37.294,43.641z"/>
	<path style="fill-rule:evenodd;clip-rule:evenodd;" d="M43.646,42.202c0.86-0.298,3.089-3.427,3.717-1.558
		c0.467,1.39-1.544,1.96-2.038,2.996c0.313,1.38,2.723,1.756,1.798,3.597c-1.785,0.48-2.108-1.469-3.236-2.038
		c-1.246,0.268-1.626,2.637-3.116,2.157c-1.673-0.537,0.88-2.955,1.558-3.596c-0.246-1.239-2.664-1.775-2.037-3.236
		C40.931,39.03,43.103,41.593,43.646,42.202z"/>
	<path style="fill-rule:evenodd;clip-rule:evenodd;" d="M51.678,42.202c0.861-0.173,2.927-3.452,3.717-1.678
		c0.606,1.364-1.723,2.276-2.038,3.116c0.256,0.6,3.627,3.635,1.198,3.836c-1.126,0.094-1.68-1.84-2.637-2.277
		c-1.249,0.522-2.137,3.097-3.716,1.798c-0.127-1.845,1.434-2.003,2.037-3.116c-0.145-1.341-2.467-1.691-2.157-3.117
		C48.495,38.863,51.063,41.409,51.678,42.202z"/>
	<path style="fill-rule:evenodd;clip-rule:evenodd;" d="M61.388,43.761c0.396,1.246,2.888,1.893,1.678,3.596
		c-1.834,0.076-1.995-1.521-3.116-2.157c-1.248,0.467-1.992,2.96-3.716,1.798c-0.12-1.878,1.434-2.082,2.037-3.236
		c-0.47-1.288-2.141-1.375-2.037-3.236c0.173-0.067,0.292-0.188,0.359-0.359c1.893-0.135,1.968,1.548,3.236,2.037
		c0.721-0.766,3.424-3.336,3.716-1.318C63.739,42.227,61.659,42.542,61.388,43.761z"/>
	<path style="fill-rule:evenodd;clip-rule:evenodd;" d="M67.74,42.322c1.251-0.326,1.555-2.351,2.877-2.277
		c2.267,0.126-0.41,3.065-1.198,3.716c0.434,0.722,3.285,2.906,1.678,3.596c-1.458,0.626-1.966-1.749-3.116-2.037
		c-0.835,0.355-3.119,3.361-3.716,1.438c-0.432-1.392,1.641-1.829,2.037-2.877c-0.226-1.405-2.116-1.45-2.037-2.877
		C64.384,38.835,67.244,41.31,67.74,42.322z"/>
	<path style="fill-rule:evenodd;clip-rule:evenodd;" d="M79.487,40.524c0.151,1.909-1.552,1.964-2.037,3.236
		c0.41,0.9,3.213,2.604,1.678,3.596c-1.21,0.782-2.16-1.83-3.116-2.157c-0.64,0.582-3.514,3.655-3.716,1.318
		c-0.11-1.268,1.876-1.894,2.157-2.757c-0.452-1.242-2.943-1.898-1.798-3.596c1.885-0.127,2.074,1.441,3.236,2.037
		C77.248,41.829,77.888,39.187,79.487,40.524z"/>
	<path style="fill-rule:evenodd;clip-rule:evenodd;" d="M27.704,42.202c1.292-0.169,1.649-2.729,3.236-2.037
		c1.614,0.703-1.069,2.891-1.678,3.476c0.233,1.335,2.128,1.522,2.157,2.757c0.057,2.372-2.999-0.326-3.596-1.198
		c-1.299,0.132-1.19,2.378-2.877,2.157c-2.614-0.341,1.291-3.095,1.318-3.596c0.043-0.759-1.933-1.508-2.037-2.518
		c-0.233-2.235,2.024-0.375,2.397,0C26.923,41.542,27.145,41.859,27.704,42.202z"/>
	<path style="fill-rule:evenodd;clip-rule:evenodd;" d="M11.762,50.233c0.646-0.688,3.189-3.27,3.596-1.318
		c0.282,1.354-1.746,1.819-2.157,2.877c0.688,0.754,3.39,3.445,1.318,3.716c-1.368,0.179-1.569-1.833-2.757-2.157
		c-0.714,0.716-3.413,3.438-3.716,1.318c-0.202-1.414,1.87-1.625,2.157-2.877c-0.364-1.191-1.939-1.326-2.037-2.518
		C7.956,46.72,11.119,49.398,11.762,50.233z"/>
	<path style="fill-rule:evenodd;clip-rule:evenodd;" d="M21.231,51.672c0.147,1.44,2.241,1.516,2.157,2.877
		c-0.136,2.221-3.031-0.3-3.596-1.198c-0.682,0.767-3.578,3.471-3.716,1.198c-0.077-1.269,1.687-1.604,2.157-2.637
		c-0.31-1.222-2.323-1.508-2.157-2.877c0.252-2.087,3.018,0.485,3.596,1.318c0.707-0.798,3.34-3.491,3.716-1.438
		C23.632,50.239,21.725,50.699,21.231,51.672z"/>
	<path style="fill-rule:evenodd;clip-rule:evenodd;" d="M45.325,51.792c0.554,0.742,3.342,3.357,1.318,3.716
		c-1.384,0.246-1.646-1.905-2.877-2.157c-1.113,0.363-1.439,2.198-2.637,2.157c-2.169-0.074,0.269-3.063,1.198-3.596
		c-0.186-1.257-2.052-1.288-2.157-2.638c-0.242-3.083,3.284,0.953,3.596,0.959c0.578,0.012,2.841-3.379,3.597-1.558
		c0.348,0.84-0.827,1.784-0.84,1.798C46.07,50.976,45.756,51.186,45.325,51.792z"/>
	<path style="fill-rule:evenodd;clip-rule:evenodd;" d="M79.368,48.436c0.501,1.866-1.46,2.183-1.918,3.477
		c0.582,0.463,3.298,3.228,1.318,3.596c-1.404,0.262-1.603-2.098-2.757-2.157c-0.979-0.051-2.052,2.897-3.356,2.037
		c-1.541-1.016,1.643-2.817,1.678-3.476c0.069-1.285-2.434-1.396-2.037-3.117c0.524-2.278,2.896,1.409,3.596,1.438
		C77.255,50.29,77.535,47.308,79.368,48.436z"/>
	<path style="fill-rule:evenodd;clip-rule:evenodd;" d="M3.61,50.353c1.298-0.272,1.486-2.476,2.997-2.157
		c1.973,0.414-0.686,3.006-1.438,3.596c0.263,1.228,2.783,1.735,2.157,3.236c-0.655,1.574-2.886-1.113-3.476-1.678
		c-1.347,0.418-2.09,3.006-3.716,1.678C-0.571,53.19,2.09,53.3,2.172,51.912c0.022-0.359-3.806-3.692-1.078-3.716
		C2.511,48.184,2.656,49.928,3.61,50.353z"/>
	<path style="fill-rule:evenodd;clip-rule:evenodd;" d="M29.263,51.792c0.219,1.382,2.336,1.402,2.157,2.877
		c-0.258,2.132-2.962-0.564-3.596-1.318c-1.226,0.248-1.55,2.49-2.997,2.157c-1.882-0.433,0.623-2.974,1.438-3.596
		c-0.18-1.268-2.147-1.293-2.157-2.757c-0.006-0.827,0.552-1.184,1.438-0.959c0.8,0.202,1.324,2.015,2.157,2.037
		c0.459,0.013,3.217-3.607,3.716-1.318C31.78,50.564,29.509,50.663,29.263,51.792z"/>
	<path style="fill-rule:evenodd;clip-rule:evenodd;" d="M35.735,50.353c0.705-0.549,3.147-3.468,3.716-1.559
		c0.431,1.445-1.867,1.851-2.157,2.997c0.258,1.318,2.219,1.421,2.157,2.757c-0.102,2.221-3.033-0.311-3.596-1.198
		c-1.21,0.323-1.483,2.213-2.757,2.157c-2.227-0.097,0.297-3.058,1.198-3.596c-0.31-1.191-2.156-1.582-2.157-2.757
		C32.137,46.884,35.264,49.48,35.735,50.353z"/>
	<path style="fill-rule:evenodd;clip-rule:evenodd;" d="M53.236,51.792c0.306,1.245,2.35,1.455,2.158,2.877
		c-0.269,1.977-2.847-0.462-3.477-1.318c-0.828,0.565-3.555,3.483-3.836,1.318c-0.165-1.274,1.751-1.713,2.157-2.757
		c-0.359-1.775-2.164-1.083-2.157-2.757c0.011-2.819,3.21,1.064,3.596,1.078c0.536,0.02,3.079-3.491,3.717-1.438
		C55.914,50.472,53.418,50.713,53.236,51.792z"/>
	<path style="fill-rule:evenodd;clip-rule:evenodd;" d="M59.709,50.233c1.375-0.148,1.492-2.351,2.997-2.037
		c1.992,0.414-0.693,2.986-1.439,3.596c0.543,0.747,3.392,3.174,1.559,3.716c-1.436,0.424-1.784-1.937-2.997-2.157
		c-1.251,0.507-1.386,2.131-3.236,2.037c-1.165-1.592,1.08-2.489,1.678-3.476c-0.317-1.314-1.777-1.388-2.037-2.518
		c-0.198-0.861,0.161-1.386,1.198-1.198C58.247,48.343,58.899,50.126,59.709,50.233z"/>
	<path style="fill-rule:evenodd;clip-rule:evenodd;" d="M69.299,51.792c0.747,0.746,3.488,3.399,1.438,3.716
		c-1.313,0.203-1.693-1.769-2.757-2.157c-1.409,0.381-1.63,2.481-3.477,2.037c-0.87-1.828,1.293-2.377,1.798-3.596
		c-0.316-1.428-1.939-0.925-2.037-2.518c-0.188-3.05,3.088,0.939,3.476,0.959c0.585,0.032,3.213-3.595,3.836-1.438
		C71.991,50.23,69.703,50.626,69.299,51.792z"/>
	<path style="fill-rule:evenodd;clip-rule:evenodd;" d="M11.642,58.385c1.247-0.312,1.427-2.237,2.757-2.157
		c2.229,0.132-0.298,3.037-1.198,3.596c0.101,1.429,2.269,1.271,2.157,2.877c-0.184,2.669-3.045-1.187-3.596-1.199
		c-1.417-0.032-1.885,3.398-3.596,1.679c-0.68-1.81,1.877-1.79,1.918-3.236c0.014-0.504-3.456-3.346-1.199-3.716
		C10.428,55.974,10.553,58.167,11.642,58.385z"/>
	<path style="fill-rule:evenodd;clip-rule:evenodd;" d="M19.673,58.385c1.252-0.25,1.628-2.65,3.117-2.157
		c1.753,0.58-0.878,2.983-1.559,3.596c0.288,0.812,3.345,3.021,1.678,3.716c-1.324,0.553-2.119-1.607-2.996-2.157
		c-1.271,0.222-1.841,2.808-3.356,2.157c-1.599-0.687,1.121-2.986,1.678-3.596c-0.324-1.227-2.215-1.458-2.157-2.757
		C16.177,54.958,19.121,57.493,19.673,58.385z"/>
	<path style="fill-rule:evenodd;clip-rule:evenodd;" d="M27.704,58.385c1.214-0.331,1.479-2.202,2.757-2.157
		c2.263,0.078-0.204,3.003-1.198,3.596c0.209,0.869,3.437,2.962,1.678,3.716c-1.453,0.623-2.065-1.728-3.116-2.157
		c-1.251,0.321-1.422,2.223-2.757,2.157c-2.277-0.112,0.436-3.05,1.198-3.716c-0.451-1.012-2.195-1.462-2.157-2.637
		C24.181,54.944,27.131,57.542,27.704,58.385z"/>
	<path style="fill-rule:evenodd;clip-rule:evenodd;" d="M35.735,58.385c0.727-0.593,3.29-3.461,3.716-1.438
		c0.285,1.353-1.734,1.834-2.157,2.877c0.55,0.786,3.467,3.254,1.559,3.716c-1.479,0.358-1.751-1.674-2.997-2.038
		c-0.842,0.69-3.364,3.423-3.716,1.319c-0.176-1.048,2.014-1.91,2.038-2.877c0.014-0.568-3.753-3.437-1.199-3.716
		C34.27,56.086,34.787,58.053,35.735,58.385z"/>
	<path style="fill-rule:evenodd;clip-rule:evenodd;" d="M43.767,58.385c1.201-0.485,2.033-3.046,3.597-1.678
		c0.138,1.897-1.565,1.95-2.038,3.236c0.459,1.237,2.399,1.57,1.918,3.356c-1.947,1.073-2.095-1.719-3.356-1.799
		c-0.547-0.034-3.456,3.712-3.716,1.199c-0.113-1.09,2.014-1.884,2.037-2.757c0.03-1.092-1.979-1.344-2.037-2.638
		c-0.039-0.873,0.648-1.203,1.318-1.078C42.67,56.447,42.737,58.255,43.767,58.385z"/>
	<path style="fill-rule:evenodd;clip-rule:evenodd;" d="M51.678,58.385c1.291-0.259,1.509-2.3,2.877-2.157
		c2.005,0.209-0.316,2.938-1.198,3.475c0.201,1.53,2.722,1.84,1.798,3.716c-1.811,0.468-2.216-1.442-3.356-2.037
		c-1.177,0.375-1.615,2.688-3.116,2.157c-1.734-0.613,1.002-2.891,1.558-3.596c-0.259-1.243-2.329-1.542-2.157-2.877
		C48.348,55.009,51.095,57.534,51.678,58.385z"/>
	<path style="fill-rule:evenodd;clip-rule:evenodd;" d="M59.709,58.385c1.185-0.288,1.64-2.271,2.877-2.157
		c2.148,0.196-0.569,3.016-1.198,3.716c0.378,1.277,2.691,1.705,1.798,3.476c-1.826,0.484-2.107-1.55-3.356-2.037
		c-1.264,0.289-1.467,2.336-2.877,2.157c-2.038-0.259,0.491-2.971,1.318-3.596c-0.337-1.215-2.202-1.47-2.157-2.757
		C56.192,54.917,59.177,57.514,59.709,58.385z"/>
	<path style="fill-rule:evenodd;clip-rule:evenodd;" d="M67.74,58.385c1.395-0.2,1.496-2.251,2.877-2.157
		c2.237,0.15-0.453,2.987-1.198,3.716c0.449,1.206,2.697,1.699,1.798,3.476c-1.799,0.955-1.788-1.853-3.236-1.918
		c-0.646-0.028-3.149,3.527-3.716,1.439c-0.465-1.711,1.926-1.807,2.037-2.996c-0.416-1.277-2.728-1.752-1.798-3.597
		C66.206,55.972,66.649,57.764,67.74,58.385z"/>
	<path style="fill-rule:evenodd;clip-rule:evenodd;" d="M75.892,58.385c1.217-0.306,1.427-2.152,2.637-2.157
		c2.522-0.012-0.673,3.303-1.078,3.716c0.44,1.215,2.688,1.707,1.798,3.476c-1.759,0.455-2.067-1.51-3.236-2.037
		c-1.266,0.271-1.489,2.469-2.997,2.157c-1.96-0.405,0.717-3.05,1.438-3.716c-0.439-1.041-2.111-1.39-2.157-2.518
		C72.197,54.939,75.319,57.509,75.892,58.385z"/>
	<path style="fill-rule:evenodd;clip-rule:evenodd;" d="M21.231,67.854c0.158,1.383,2.286,1.533,2.157,2.877
		c-0.201,2.099-3.129-0.418-3.596-1.318c-0.69,0.623-3.293,3.466-3.716,1.438c-0.273-1.312,1.658-1.823,2.157-2.758
		c-0.214-0.552-3.472-3.128-1.558-3.716c1.64-0.503,1.752,2.017,2.996,2.038c0.439,0.008,3.363-3.819,3.716-1.318
		C23.631,66.812,21.726,66.424,21.231,67.854z"/>
	<path style="fill-rule:evenodd;clip-rule:evenodd;" d="M27.704,66.536c1.145-0.616,1.748-2.772,3.597-1.918
		c0.506,1.871-1.506,2.137-2.038,3.356c0.3,1.231,2.252,1.447,2.157,2.757c-0.16,2.233-3-0.438-3.596-1.318
		c-1.226,0.267-1.654,2.634-3.116,2.157c-1.738-0.566,0.921-2.939,1.558-3.596c-0.358-1.249-2.343-1.528-2.037-2.997
		C24.612,63.131,27.121,65.776,27.704,66.536z"/>
	<path style="fill-rule:evenodd;clip-rule:evenodd;" d="M37.294,67.854c0.134,1.394,2.432,1.538,2.157,2.997
		c-0.382,2.036-2.961-0.67-3.596-1.319c-1.289,0.228-1.519,2.201-2.757,2.158c-2.164-0.076,0.133-3.199,1.198-3.597
		c-0.243-1.296-2.138-1.26-2.157-2.757c-0.038-2.964,3.166,1.071,3.596,1.079c0.485,0.009,3.337-3.803,3.716-1.318
		C39.708,66.783,37.633,66.652,37.294,67.854z"/>
	<path style="fill-rule:evenodd;clip-rule:evenodd;" d="M43.646,66.416c1.393-0.301,1.767-2.713,3.597-1.798
		c1.088,1.69-2.017,2.258-2.038,3.356c-0.006,0.288,3.903,3.332,1.438,3.716c-1.554,0.241-1.645-2.043-2.757-2.277
		c-1.213,0.245-1.756,2.806-3.236,2.157c-1.632-0.715,1.208-2.909,1.678-3.596c-0.334-1.214-2.206-1.471-2.157-2.757
		C40.254,63.03,43.091,65.519,43.646,66.416z"/>
	<path style="fill-rule:evenodd;clip-rule:evenodd;" d="M53.236,67.975c0.254,1.105,2.718,1.703,2.158,3.116
		c-0.656,1.653-2.99-1.077-3.597-1.678c-0.538,0.777-3.525,3.503-3.716,1.318c-0.109-1.25,1.834-1.605,2.157-2.757
		c-0.513-1.245-2.155-1.361-2.037-3.237c1.56-1.097,2.566,1.087,3.476,1.799c0.725-0.754,3.561-3.583,3.717-1.318
		C55.483,66.518,53.665,66.876,53.236,67.975z"/>
	<path style="fill-rule:evenodd;clip-rule:evenodd;" d="M69.299,67.854c0.466,0.75,3.461,3.16,1.679,3.716
		c-1.36,0.424-1.962-1.677-2.997-2.157c-1.227,0.29-1.626,2.357-2.877,2.277c-2.132-0.138,0.253-3.032,1.198-3.597
		c-0.349-1.448-2.131-1.464-2.037-3.357c0.172-0.066,0.292-0.187,0.359-0.359c1.794-0.036,1.981,1.535,3.236,2.038
		c0.733-0.764,3.539-3.403,3.716-1.198C71.67,66.383,69.814,66.946,69.299,67.854z"/>
	<path style="fill-rule:evenodd;clip-rule:evenodd;" d="M11.762,66.416c1.127-0.383,1.481-2.341,2.877-2.038
		c1.919,0.417-0.69,2.89-1.439,3.477c0.293,0.88,3.47,3.122,1.559,3.716c-1.406,0.438-1.911-1.737-2.997-2.157
		c-1.227,0.346-1.642,2.632-3.116,2.157c-1.771-0.57,1.059-2.884,1.558-3.596c-0.352-1.162-1.949-1.373-2.037-2.518
		c-0.069-0.903,0.291-1.302,1.318-1.079C10.312,64.558,10.9,66.317,11.762,66.416z"/>
	<path style="fill-rule:evenodd;clip-rule:evenodd;" d="M59.829,66.416c1.32-0.341,1.311-2.382,2.877-2.038
		c2.404,0.528-1.317,2.996-1.318,3.597c-0.001,0.416,3.823,3.603,1.198,3.716c-1.543,0.066-1.322-1.58-2.637-2.277
		c-0.611,0.222-3.593,3.826-3.836,1.318c-0.125-1.286,1.894-1.64,2.157-2.877c-0.252-0.758-1.962-1.423-2.037-2.398
		c-0.07-0.905,0.327-1.306,1.318-1.079C58.451,64.584,58.727,66.12,59.829,66.416z"/>
	<path style="fill-rule:evenodd;clip-rule:evenodd;" d="M75.892,66.416c1.371-0.326,1.483-2.487,3.357-1.918
		c0.829,1.67-1.228,2.31-1.798,3.356c0.263,0.845,3.32,3.001,1.559,3.716c-1.406,0.57-1.956-1.792-2.997-2.157
		c-0.633,0.732-3.611,3.472-3.836,1.318c-0.132-1.267,1.889-1.556,2.157-2.757c-0.214-1.25-1.945-1.443-2.037-2.518
		C72.073,62.85,75.603,65.878,75.892,66.416z"/>
	<path style="fill-rule:evenodd;clip-rule:evenodd;" d="M27.585,74.567c0.702-0.653,3.428-3.449,3.835-1.438
		c0.269,1.328-1.859,1.861-2.277,2.877c0.765,0.851,3.56,3.419,1.439,3.716c-1.437,0.201-1.565-1.988-2.996-2.158
		c-1.075,0.39-1.361,2.341-2.758,2.038c-1.871-0.406,0.542-2.98,1.438-3.477c-0.334-1.218-2.695-1.833-2.037-3.356
		C24.859,71.308,27.099,73.905,27.585,74.567z"/>
	<path style="fill-rule:evenodd;clip-rule:evenodd;" d="M43.767,74.447c0.703-0.521,3.052-3.252,3.597-1.438
		c0.421,1.401-1.74,1.935-2.158,2.997c0.506,1.647,2.118,0.976,2.158,2.637c0.068,2.915-3.196-1.075-3.597-1.079
		c-0.508-0.005-3.225,3.768-3.596,1.318c-0.273-1.807,1.493-1.432,2.157-2.757c-0.328-1.187-2.239-1.612-2.157-2.876
		C40.312,71.064,43.029,73.695,43.767,74.447z"/>
	<path style="fill-rule:evenodd;clip-rule:evenodd;" d="M19.673,74.567c1.195-0.356,1.648-2.657,3.117-2.158
		c1.751,0.596-1.052,2.868-1.559,3.597c0.429,1.328,2.168,1.348,2.038,3.236c-1.619,1.158-2.435-1.113-3.477-1.679
		c-0.727,0.614-3.35,3.285-3.716,1.318c-0.256-1.371,1.786-1.671,2.157-2.757c-0.317-1.246-2.094-1.428-2.157-2.637
		C15.949,71.048,19.223,73.638,19.673,74.567z"/>
	<path style="fill-rule:evenodd;clip-rule:evenodd;" d="M35.735,74.567c0.682-0.579,3.166-3.441,3.716-1.559
		c0.388,1.324-1.76,1.906-2.157,2.877c0.211,1.345,2.132,1.534,2.157,2.757c0.049,2.349-3.056-0.143-3.596-1.079
		c-0.805,0.402-3.139,3.402-3.716,1.559c-0.426-1.358,1.633-1.933,2.038-2.997c-0.214-1.307-1.956-1.491-2.038-2.637
		c-0.06-0.823,0.417-1.253,1.318-1.079C34.281,72.568,34.981,74.373,35.735,74.567z"/>
	<path style="fill-rule:evenodd;clip-rule:evenodd;" d="M51.678,74.447c0.653-0.12,3.124-3.443,3.717-1.438
		c0.407,1.38-1.807,1.944-2.158,2.997c0.246,1.229,2.415,1.492,2.158,2.876c-0.374,2.01-2.908-0.708-3.597-1.318
		c-1.241,0.238-1.542,2.493-2.996,2.158c-1.878-0.433,0.614-2.979,1.438-3.597c-0.22-1.296-2.067-1.518-2.157-2.637
		C47.873,70.878,51.37,73.933,51.678,74.447z"/>
	<path style="fill-rule:evenodd;clip-rule:evenodd;" d="M59.709,74.567c1.355-0.258,1.195-2.356,2.877-2.158
		c2.426,0.286-1.186,3.288-1.198,3.597c-0.055,1.323,2.136,1.232,2.037,2.757c-0.176,2.74-3.196-1.213-3.716-1.199
		c-0.371,0.011-3.069,3.523-3.596,1.438c-0.411-1.628,1.949-1.903,2.157-2.996c-0.324-1.166-2.152-1.468-2.157-2.638
		C56.103,70.87,59.42,74.006,59.709,74.567z"/>
	<path style="fill-rule:evenodd;clip-rule:evenodd;" d="M67.86,74.567c1.184-0.234,1.614-2.776,3.117-2.158
		c1.688,0.695-1.109,2.986-1.679,3.597c0.282,1.195,2.4,1.503,2.157,2.876c-0.34,1.93-2.902-0.562-3.476-1.318
		c-1.345,0.188-1.826,2.684-3.356,2.038c-1.655-0.699,1.302-2.87,1.678-3.596c-0.403-1.116-1.965-1.349-2.037-2.518
		C64.097,70.767,67.486,74.099,67.86,74.567z"/>
	<path style="fill-rule:evenodd;clip-rule:evenodd;" d="M27.585,82.238c1.245-0.396,2.589-2.857,3.835-1.078
		c-0.483,1.155-1.602,1.674-2.277,2.637c0.704,0.678,3.466,3.452,1.318,3.716c-1.284,0.158-1.554-1.786-2.637-2.157
		c-1.412,0.143-1.544,2.39-2.997,2.157c-1.97-0.315,0.438-2.956,1.319-3.596c-0.142-1.269-1.97-1.491-2.038-2.518
		C23.966,79.267,27.086,81.445,27.585,82.238z"/>
	<path style="fill-rule:evenodd;clip-rule:evenodd;" d="M35.735,82.358c0.626-0.687,3.458-3.063,3.716-1.198
		c0.154,1.113-1.987,1.588-2.277,2.637c0.319,1.178,2.056,1.423,2.158,2.518c0.235,2.523-3.023-0.077-3.597-0.959
		c-1.215,0.297-1.473,2.252-2.757,2.157c-2.231-0.163,0.417-3.02,1.199-3.716c-0.298-1.018-2.351-1.55-2.038-2.757
		C32.566,79.392,35.023,81.764,35.735,82.358z"/>
	<path style="fill-rule:evenodd;clip-rule:evenodd;" d="M43.646,82.238c0.822-0.493,3.467-2.916,3.717-1.078
		c0.143,1.053-1.828,1.675-2.158,2.637c0.229,0.351,3.561,3.396,1.318,3.716c-1.332,0.19-1.681-2.153-2.757-2.157
		c-0.44-0.002-3.348,3.78-3.716,1.318c-0.093-0.62,0.957-1.557,0.959-1.559c0.432-0.467,0.914-0.604,1.198-1.318
		c-0.249-1.159-2.078-1.385-2.037-2.518C40.244,79.253,43.054,81.546,43.646,82.238z"/>
	<path style="fill-rule:evenodd;clip-rule:evenodd;" d="M51.678,82.358c0.378-0.354,3.433-3.194,3.717-1.198
		c0.133,0.94-2.118,1.516-2.158,2.637c-0.056,1.57,2.587,1.225,2.038,3.236c-1.721,1.227-2.355-1.276-3.597-1.678
		c-1.281,0.476-1.32,2.195-3.236,2.038c-1.118-1.579,1.155-2.393,1.679-3.477c-0.135-1.255-2.069-1.554-2.038-2.638
		C48.142,79.239,51.088,81.669,51.678,82.358z"/>
	<path style="fill-rule:evenodd;clip-rule:evenodd;" d="M59.59,82.358c0.85-0.453,3.251-2.983,3.716-1.318
		c0.355,1.273-1.685,1.742-2.038,2.757c0.753,0.772,3.372,3.549,1.199,3.716c-1.346,0.103-1.453-1.91-2.758-2.157
		c-1.258,0.5-1.365,2.15-3.236,2.038c-1.168-1.663,1.268-2.365,1.679-3.597c-0.229-1.164-2.101-1.383-2.038-2.518
		C56.22,79.347,59.108,81.46,59.59,82.358z"/>
	<path style="fill-rule:evenodd;clip-rule:evenodd;" d="M27.465,90.39c0.836-0.363,3.228-3.453,3.836-1.559
		c0.428,1.336-1.765,2.041-2.278,2.997c0.275,1.22,2.538,1.61,2.278,2.997c-0.368,1.956-2.962-0.728-3.597-1.439
		c-0.732,0.661-3.326,3.352-3.716,1.439c-0.26-1.275,1.802-1.842,2.158-2.877c-0.211-1.29-2.087-1.521-2.158-2.638
		C23.843,87.012,27.066,89.349,27.465,90.39z"/>
	<path style="fill-rule:evenodd;clip-rule:evenodd;" d="M59.59,90.39c1.28-0.128,1.683-2.58,3.116-2.157
		c1.85,0.544-0.813,3.042-1.559,3.596c0.322,1.506,2.504,1.224,2.158,2.997c-0.462,2.363-3.033-1.437-3.597-1.439
		c-1.467-0.006-1.929,3.562-3.596,1.678c0.018-1.7,1.429-2.008,2.038-3.116c-0.255-1.309-1.974-1.417-2.038-2.638
		C55.985,86.889,59.095,89.503,59.59,90.39z"/>
	<path style="fill-rule:evenodd;clip-rule:evenodd;" d="M19.554,98.421c1.399-0.353,1.539-2.49,3.476-1.918
		c0.781,1.71-1.447,2.244-1.918,3.477c0.711,0.693,3.432,3.445,1.318,3.716c-1.272,0.163-1.56-1.902-2.757-2.157
		c-1.269,0.489-1.344,2.172-3.236,2.037c-1.175-1.669,1.207-2.425,1.679-3.596c-0.347-1.189-1.965-1.331-2.038-2.518
		C15.926,95.017,18.964,97.669,19.554,98.421z"/>
	<path style="fill-rule:evenodd;clip-rule:evenodd;" d="M70.978,96.383c1.202,1.697-1.247,2.386-1.679,3.597
		c0.201,1.438,2.632,1.316,2.157,2.996c-0.622,2.205-3.017-1.417-3.596-1.438c-1.543-0.056-1.758,3.193-3.596,1.798
		c-0.388-1.753,1.418-2.225,2.037-3.356c-0.388-1.473-2.288-1.107-2.157-2.757c0.202-2.546,3.076,1.183,3.596,1.198
		C69.294,98.467,69.13,95.737,70.978,96.383z"/>
</g>
<g id="Layer_1">
</g>
</svg>
