<?xml version="1.0" encoding="iso-8859-1"?>
<!-- Generator: Adobe Illustrator 19.2.0, SVG Export Plug-In . SVG Version: 6.00 Build 0)  -->
<svg version="1.1" xmlns="http://www.w3.org/2000/svg" xmlns:xlink="http://www.w3.org/1999/xlink" x="0px" y="0px"
	 viewBox="0 0 180.158 141.083" style="enable-background:new 0 0 180.158 141.083;" xml:space="preserve">
<g id="Larsen_x5F_Design_x5F_Office">
	<path style="fill-rule:evenodd;clip-rule:evenodd;" d="M81.769,0.291c0.345,27.45,0.027,54.782,0.247,82.016
		c9.642,0.246,19.501,0.01,29.182,0.146c9.714,0.139,19.275-0.117,28.886-0.098c0.212-13.217,0.075-26.89,0.049-39.848
		c-0.053-0.012-0.033-0.098-0.099-0.099c-9.836-0.052-19.87-0.021-29.824,0.049c-0.153,6.471-0.143,13.459,0,19.998
		c0.009,0.04,0.049,0.049,0.049,0.099c4.807,0.082,9.958,0.083,14.764,0c0.04-0.009,0.049-0.049,0.099-0.049
		c0.054-2.672,0.142-5.803-0.049-8.394c-2.272-0.316-5.074,0.179-7.357-0.148c-0.022-0.045-0.043-0.088-0.099-0.099
		c-0.089-1.145-0.049-2.435-0.049-3.704c0-1.26-0.118-2.567,0.148-3.604c2.226-0.163,5.131-0.164,7.357,0
		c0.293,2.226-0.095,5.131,0.198,7.357c2.573,0.291,5.822-0.094,8.394,0.197c0.163,2.57,0.165,5.824,0,8.394
		c-2.489,0.35-5.667-0.107-8.345,0.197c-0.042-0.009-0.047,0.02-0.049,0.05c-0.295,4.757,0.098,10.203-0.198,14.96
		c-4.135,0.301-8.764,0.1-13.134,0.1c-0.57,0-1.209,0.111-1.728-0.148c-0.091-5.066-0.089-9.76-0.099-14.912
		c-0.764-0.261-1.602-0.148-2.419-0.148c-5.776,0-11.932,0.042-17.677-0.049c-0.021-0.044-0.043-0.088-0.099-0.099
		c-0.087-6.923-0.138-13.12,0-19.948c0.044-0.022,0.088-0.043,0.099-0.099c6.572-0.156,13.718,0.06,19.998-0.099
		c0.042,0.009,0.046-0.019,0.049-0.049c0.18-9.861-0.115-20.235,0.148-30.07c7.235-0.17,14.921-0.098,22.467-0.099
		c2.508,0,4.993-0.098,7.357,0.099c0.285,9.873-0.068,20.357,0.198,30.07c12.825,0.287,26.74-0.092,39.748,0.198
		c0.022,0.044,0.043,0.088,0.099,0.099c0.033,13.284,0.161,26.787,0,39.75c-1.593,0.268-3.237,0.146-4.889,0.146
		c-11.312-0.002-23.442-0.008-34.811,0c-0.022,0.045-0.044,0.09-0.099,0.1c-0.138,18.484-0.05,37.488-0.049,56.734
		c0,0.537,0.117,1.166-0.148,1.678c-16.577,0.174-34.435,0.098-51.105,0.1c-1.153,0-2.31,0.041-3.457,0
		c-1.147-0.041-2.333,0.049-3.456-0.197c-0.164-19.045-0.022-38.326-0.148-58.363c-11.675-0.096-24.027-0.18-36.243-0.1
		c-11.579,0.074-23.983-0.113-35.897-0.049c-1.657,0.008-3.318-0.027-4.937,0c-1.586,0.025-3.165,0.148-4.691-0.1
		C0.025,55.051-0.088,27.488,0.1,0.241c5.783-0.468,12.283,0.13,18.269-0.148c5.083-0.236,10.76,0.05,15.949,0.049
		C50.055,0.14,66.196,0.055,81.769,0.291z"/>
</g>
<g id="Layer_1">
</g>
</svg>
