<?xml version="1.0" encoding="iso-8859-1"?>
<!-- Generator: Adobe Illustrator 19.2.0, SVG Export Plug-In . SVG Version: 6.00 Build 0)  -->
<svg version="1.1" xmlns="http://www.w3.org/2000/svg" xmlns:xlink="http://www.w3.org/1999/xlink" x="0px" y="0px"
	 viewBox="0 0 73.093 71.982" style="enable-background:new 0 0 73.093 71.982;" xml:space="preserve">
<g id="L_x5F_Artiere">
	<path style="fill-rule:evenodd;clip-rule:evenodd;" d="M72.918,27.566c-7.467,0.153-14.46-0.047-21.81-0.05
		c-1.156,0-2.433-0.16-3.321,0.05c-0.473,0.112-0.927,0.6-1.388,0.942c-2.278,1.691-4.507,3.268-6.692,4.906
		c-0.861,0.646-1.731,1.323-2.775,1.834c-1.119-0.447-1.963-1.222-2.876-1.883c-2.219-1.608-4.537-3.264-6.79-5.105
		c-0.439-0.359-0.968-0.826-1.438-0.942c-0.856-0.21-2.126-0.049-3.222-0.049c-6.362,0-12.803-0.149-19.183-0.148
		c-1.031,0-2.076,0.114-3.073-0.149c0.041-0.521,0.583-0.775,0.942-1.041c2.599-1.923,5.283-3.968,7.979-5.849
		c4.479-3.301,8.96-6.751,13.582-10.111c3.983-2.898,8.017-5.711,11.995-8.724c0.574-0.435,1.163-0.882,1.734-1.19
		c0.634-0.342,1.861,0.955,2.528,1.437c2.233,1.617,4.441,3.409,6.592,5.007c8.89,6.602,17.498,13.433,26.32,20.074
		C72.367,26.832,72.979,27.072,72.918,27.566z"/>
	<path style="fill-rule:evenodd;clip-rule:evenodd;" d="M72.967,29.153c0.188,3.374,0.1,6.978,0.1,10.606
		c0,1.172,0.12,2.35-0.148,3.42c-10.674,0.18-21.304-0.101-32.07-0.099c-11.885,0.002-23.979-0.197-36.233-0.198
		c-1.475,0-2.993,0.121-4.461-0.149c-0.089-2.984-0.05-7.258-0.05-10.806c0-0.793-0.221-3.152,0.298-3.321
		c0.654-0.213,2.338,0,3.271,0c7.218-0.001,14.555,0.08,21.71,0.099c2.813,2.049,5.576,4.092,8.476,6.246
		c0.395,0.293,0.881,0.626,1.438,1.041c0.444,0.33,1.045,0.929,1.487,0.941c0.418,0.013,1.127-0.552,1.586-0.892
		c3.266-2.424,6.567-4.858,9.864-7.187c7.375-0.033,14.507,0.098,21.81,0.099C71.03,28.955,72.045,28.844,72.967,29.153z"/>
	<path style="fill-rule:evenodd;clip-rule:evenodd;" d="M72.918,44.865c0.307,1.05,0.099,2.16,0.099,3.271
		c0.002,6.716-0.05,13.765-0.05,20.472c0,1.103,0.121,2.221-0.148,3.271c-0.923-0.352-1.677-0.988-2.429-1.537
		c-0.752-0.55-1.493-1.105-2.23-1.686c-1.564-1.062-3.045-2.208-4.511-3.37c-1.9-1.381-3.754-2.813-5.65-4.213
		c-0.935-0.69-1.795-1.512-2.726-2.23c-0.931-0.72-1.923-1.352-2.826-2.082c-1.821-1.474-3.794-2.769-5.65-4.214
		c-1.842-1.434-3.689-2.851-5.502-4.312c-1.074-0.685-2.17-1.679-3.37-2.527c-0.389-0.274-0.822-0.738-1.189-0.743
		c-0.294-0.005-0.817,0.461-1.239,0.743c-1.187,0.793-2.324,1.73-3.421,2.527c-4.531,3.297-9.192,6.747-13.68,9.964
		c-1.533,1.099-2.958,2.331-4.511,3.42c-4.223,2.96-8.328,6.132-12.59,9.12c-0.353,0.248-0.712,0.648-1.19,0.645
		c-0.233-8.212,0-17.183,0-25.428c0-0.515-0.114-1.073,0.149-1.537C24.44,44.506,48.796,44.502,72.918,44.865z"/>
	<path style="fill-rule:evenodd;clip-rule:evenodd;" d="M69.647,71.88c-6.493,0.269-12.935-0.086-19.529,0
		c-4.049-2.706-7.781-5.802-11.748-8.773c-0.445-0.335-1.337-1.138-1.784-1.141c-0.466-0.003-1.387,0.801-1.834,1.141
		c-3.897,2.957-7.904,5.827-11.896,8.624c-6.384-0.035-12.837-0.016-19.282-0.198c0.04-0.491,0.588-0.701,0.893-0.941
		c2.294-1.809,4.857-3.5,7.187-5.354c1.335-1.062,2.782-2.002,4.163-3.023c0.683-0.505,1.288-1.134,1.983-1.636
		c4.816-3.474,9.592-7.154,14.474-10.656c1.399-1.005,2.721-2.168,4.164-3.024c0.602-0.357,1.746,0.912,2.379,1.388
		c0.754,0.567,1.465,1.072,2.082,1.537c1.445,1.088,2.762,2.214,4.114,3.172c1.39,0.985,2.766,2.084,4.163,3.123
		c1.403,1.043,2.771,2.109,4.114,3.122c1.403,1.06,2.823,2.017,4.114,3.173c1.294,1.16,2.815,2.057,4.163,3.123
		c2.367,1.871,4.868,3.602,7.286,5.452C69.151,71.214,69.636,71.425,69.647,71.88z"/>
	<path style="fill-rule:evenodd;clip-rule:evenodd;" d="M36.635,63.998c0.042-0.009,0.047,0.02,0.05,0.05
		c0.947,0.467,1.819,1.132,2.627,1.784c1.616,1.306,3.196,2.67,4.907,3.916c0.405,0.295,0.886,0.566,1.288,0.893
		c0.379,0.306,0.939,0.593,1.041,1.14c-0.394,0.184-0.822,0.064-1.239,0.05c-5.994-0.223-13.003,0.192-19.033-0.198
		c0.174-0.549,0.767-0.748,1.19-1.041c0.438-0.305,0.848-0.668,1.289-0.941c0.84-0.631,1.683-1.259,2.577-1.835
		C33.077,66.521,34.622,65.025,36.635,63.998z"/>
</g>
<g id="Layer_1">
</g>
</svg>
