<?xml version="1.0" encoding="iso-8859-1"?>
<!-- Generator: Adobe Illustrator 19.2.0, SVG Export Plug-In . SVG Version: 6.00 Build 0)  -->
<svg version="1.1" xmlns="http://www.w3.org/2000/svg" xmlns:xlink="http://www.w3.org/1999/xlink" x="0px" y="0px"
	 viewBox="0 0 76.503 59.876" style="enable-background:new 0 0 76.503 59.876;" xml:space="preserve">
<g id="LD_x5F_Birdseed">
	<path style="fill-rule:evenodd;clip-rule:evenodd;" d="M47.34,59.589c-0.166-3.059-0.18-6.208-0.049-9.045
		c8.992-0.757,14.59-5.314,17.9-11.901c1.65-3.282,2.58-7.985,1.715-12.52c-0.783-4.087-2.637-7.418-5-9.902
		c-3.562-3.808-8.322-6.712-15.662-6.712C34.197,9.508,21.482,9.6,9.779,9.747c-0.26,0.772-0.189,1.621-0.189,2.428
		C9.588,25.018,9.647,37.668,9.779,50.449c0.678,0.257,1.426,0.143,2.143,0.143c11.062-0.002,22.625-0.183,33.609-0.096
		c0.254,1.342,0.143,2.939,0.143,4.522c0,1.567,0.076,3.183-0.096,4.57c-0.889,0.258-1.846,0.144-2.76,0.143
		c-13.682-0.002-28.668,0.291-42.561,0.048c-0.254-1.187-0.143-2.404-0.143-3.618c0-18.516-0.225-37.57-0.047-55.745
		c0.746-0.345,1.639-0.19,2.428-0.19c9.508-0.002,19.123-0.145,28.467-0.143c3.48,0.001,6.998,0.158,10.426,0
		c2.23-0.103,5.354-0.133,7.713,0.048c7.031,0.537,12.395,3.368,16.518,6.76c3.094,2.573,5.762,5.879,7.713,9.759
		c1.316,2.619,2.318,5.402,2.762,8.902c0.223,1.77,0.5,3.639,0.381,5.427c-0.484,7.225-2.81,12.607-6.143,17.138
		c-0.826,1.126-1.705,2.194-2.666,3.142c-3.852,3.807-8.758,6.716-15.232,7.998C50.828,59.574,49.082,59.915,47.34,59.589z"/>
	<path style="fill-rule:evenodd;clip-rule:evenodd;" d="M47.721,10.651c8.305,0.921,13.584,5.134,16.566,11.425
		c0.768,1.617,1.244,3.453,1.523,5.475c0.299,2.166,0.094,4.284-0.334,6.38c-0.766,3.77-2.566,6.813-4.807,9.14
		c-2.354,2.443-5.02,4.325-8.617,5.379c-3.711,1.088-8.471,0.856-13.139,0.857c-9.156,0-18.781,0.128-27.754,0
		c0.037-0.487,0.619-0.667,0.951-0.904c5.154-3.669,10.354-7.307,15.662-10.997c0.328-0.227,0.998-0.663,1-0.904
		c0.006-0.5-0.801-0.542-1-0.952c-0.418-0.232-0.807-0.493-1.142-0.81c-4.889-3.462-9.965-6.902-14.852-10.473
		c-0.271-0.199-0.768-0.382-0.762-0.81c5.109-0.115,10.781-0.143,16.281-0.143c1.863,0,3.697-0.126,5.475-0.048
		c3.4,0.15,7.324,0.115,10.711-0.095c1.801-0.112,3.324-0.298,4.521-1c1.496-0.878,2.908-2.471,3.143-4.57
		c0.336-3.017-1.449-5-3-6.188c-0.227-0.175-0.59-0.323-0.619-0.667C47.6,10.721,47.65,10.676,47.721,10.651z M51.672,14.031
		c0.086,0.569,0.451,1.007,1,1c1.246-0.017,1.336-2.149-0.191-1.904C52.055,13.271,51.732,13.52,51.672,14.031z"/>
</g>
<g id="Layer_1">
</g>
</svg>
