<?xml version="1.0" encoding="iso-8859-1"?>
<!-- Generator: Adobe Illustrator 19.2.0, SVG Export Plug-In . SVG Version: 6.00 Build 0)  -->
<svg version="1.1" xmlns="http://www.w3.org/2000/svg" xmlns:xlink="http://www.w3.org/1999/xlink" x="0px" y="0px"
	 viewBox="0 0 74.587 72.09" style="enable-background:new 0 0 74.587 72.09;" xml:space="preserve">
<g id="Le_x5F_Panneau_x5F_Magnetique">
	<path style="fill-rule:evenodd;clip-rule:evenodd;" d="M17.786,0.344c0.213,20.482-0.296,41.295-0.295,62.703
		c0,2.999,0.066,5.999-0.197,8.951c-2.737,0.233-5.672-0.049-8.605-0.049c-2.916,0-5.887,0.055-8.606-0.246
		c-0.067-5.884-0.144-11.861,0-17.852c0.142-5.889-0.074-11.861,0.147-17.803c0.105-2.823,0.099-5.843,0.099-8.901
		c0-8.285,0.196-16.524,0.196-24.934c0-0.739-0.02-1.885,0.197-2.114C0.757,0.052,0.811,0.024,0.869,0
		C6.557,0.089,12.365,0.091,17.786,0.344z"/>
	<path style="fill-rule:evenodd;clip-rule:evenodd;" d="M26.048,57.49c-0.244-1.05-0.18-2.217-0.147-3.344
		c0.09-3.24-0.068-6.748,0.196-10.032c5.582-0.318,12.096,0.267,17.704,0c1.624-0.077,2.913-0.055,4.131-0.394
		c3.459-0.959,6.003-2.941,7.918-5.606c0.95-1.05,1.559-2.44,2.164-3.836c0.169-0.92,0.498-1.766,0.688-2.705
		c0.625-3.084-0.173-6.623-1.181-8.705c-0.709-1.466-1.588-2.837-2.704-4.082c-0.249-0.277-0.558-0.581-0.836-0.885
		c-0.271-0.295-0.505-0.66-0.787-0.885c-0.308-0.246-0.675-0.419-0.984-0.689c-2.862-2.494-7.469-2.279-12.835-2.36
		c-3.128-0.047-6.477-0.148-9.836-0.148c-1.084,0-2.177,0.117-3.196-0.148c-0.174-3.221,0-6.783,0-10.032
		c0-1.123-0.112-2.258,0.196-3.246c3.067-0.1,6.595-0.002,9.639,0c3.174,0.002,6.356-0.094,9.345,0.049
		c1.656,0.079,3.204,0.013,4.622,0.246c9.449,1.547,16.032,6.661,20.263,13.524c2.508,4.07,4.18,8.925,4.18,15.049
		c-0.001,6.201-1.788,10.969-4.328,15.049c-3.757,6.036-9.267,9.967-16.671,12.344c-1.191,0.382-2.569,0.623-4.033,0.787
		c-1.443,0.161-3.064,0.365-4.524,0.295C38.928,57.444,32.49,57.831,26.048,57.49z"/>
	<path style="fill-rule:evenodd;clip-rule:evenodd;" d="M36.129,17.36c1.79-0.196,3.371,0.11,4.623,0.492
		c2.45,0.748,4.335,2.212,5.655,3.836c1.256,1.544,2.554,4.085,2.754,6.688c0.154,2-0.295,3.773-0.885,5.213
		c-0.613,1.497-1.361,2.601-2.36,3.688c-1.914,2.083-5.037,3.672-8.41,3.688c-2.242,0.011-4.259-0.577-5.852-1.426
		c-1.464-0.781-3.078-1.955-4.033-3.246c-1.148-1.553-2.324-3.834-2.36-6.688c-0.044-3.544,1.405-6.485,3.148-8.36
		C30.247,19.267,32.574,17.751,36.129,17.36z"/>
</g>
<g id="Layer_1">
</g>
</svg>
