<?xml version="1.0" encoding="iso-8859-1"?>
<!-- Generator: Adobe Illustrator 19.2.0, SVG Export Plug-In . SVG Version: 6.00 Build 0)  -->
<svg version="1.1" xmlns="http://www.w3.org/2000/svg" xmlns:xlink="http://www.w3.org/1999/xlink" x="0px" y="0px"
	 viewBox="0 0 76.748 57.657" style="enable-background:new 0 0 76.748 57.657;" xml:space="preserve">
<g id="Lead_x5F_Development_x5F_Association">
	<path style="fill-rule:evenodd;clip-rule:evenodd;" d="M49.457,15.07c0.656-0.176,1.228-0.705,1.849-1.119
		c1.739-1.16,3.895-2.209,6.762-2.335c3.974-0.174,7.141,0.881,9.826,2.335c2.505,1.356,4.573,3.478,6.129,6.032
		c1.56,2.56,2.755,5.639,2.724,9.34c-0.062,7.225-4.24,12.661-9.097,15.226c-2.571,1.358-6.228,2.557-9.972,1.995
		c-1.753-0.264-3.38-0.695-4.719-1.362c-1.341-0.668-2.383-1.637-3.648-2.384c-0.653,0.914-1.059,1.864-1.848,2.53
		c-2.79,2.353-7.28,0.695-8.221-2.481c-0.039-0.131-0.127-0.504-0.146-0.681c-0.18-1.681-0.051-3.559,0-5.399
		c0.051-1.815-0.048-3.727-0.048-5.643c0-7.243,0-14.986,0-22.571c0-2.058-0.147-3.931,0.389-5.302
		c0.743-1.899,2.934-3.777,5.74-3.113c1.684,0.398,2.827,1.437,3.502,2.772c0.817,1.615,0.632,3.623,0.632,5.837
		C49.311,10.849,49.221,13.066,49.457,15.07z M47.998,30.053c0.267,0.639,1.008,1.323,1.751,1.557
		c1.158,0.364,3.206,0.146,4.719,0.146c3.665,0,6.214,0,9.826,0c1.55,0,3.725,0.186,4.719-0.195c0.768-0.295,1.413-1.04,1.605-1.654
		c0.463-1.481-0.392-2.846-1.459-3.308c-1.252-0.542-3.196-0.243-4.621-0.243c-3.467-0.001-6.38,0-9.632,0
		c-1.58,0-3.411-0.056-4.718,0.048C48.416,26.546,47.28,28.333,47.998,30.053z"/>
	<path style="fill-rule:evenodd;clip-rule:evenodd;" d="M10.59,42.749c-0.325,0.41-0.194,0.996-0.194,1.508c0,1.628,0,3.404,0,5.108
		c0,2.376,0.006,4.399-0.924,5.886c-0.862,1.377-2.836,2.735-5.108,2.336c-1.885-0.332-3.426-1.661-4.038-3.454
		c-0.4-1.172-0.243-3.113-0.243-4.816c0-3.52,0-6.598,0-10.069c0-1.658,0.106-3.353,0.097-4.913
		c-0.027-4.684-0.146-9.211-0.146-13.961c0-1.597-0.103-3.258,0.048-4.719c0.183-1.76,1.641-3.212,2.821-3.746
		c2.389-1.079,4.986-0.132,6.324,1.606c0.365,0.474,0.44,0.971,0.973,1.508c0.728-0.285,1.289-0.816,1.898-1.216
		c1.875-1.233,4.05-2.255,6.956-2.481c3.314-0.258,6.646,0.612,8.708,1.752c4.466,2.468,7.948,6.003,9.243,11.675
		c0.66,2.891,0.674,6.232-0.292,9.194c-1.647,5.052-5.188,8.988-10.02,10.896c-2.475,0.978-5.668,1.573-8.951,1.119
		c-2.288-0.317-4.006-1.276-5.594-2.286C11.645,43.355,11.2,42.872,10.59,42.749z M22.654,18.961
		c-0.425-1.001-1.523-1.812-2.967-1.605c-1.33,0.191-2.161,1.358-2.189,2.773c-0.036,1.771,0.247,4.048-0.097,5.935
		c-2.063,0.256-4.667-0.03-6.81,0.146c-2.325,0.496-2.418,4.275-0.146,5.01c0.774,0.25,2.355,0.128,3.502,0.146
		c1.219,0.019,2.453-0.093,3.502,0.097c0.171,1.059,0.097,2.253,0.097,3.502c0,1.168-0.212,2.574,0.098,3.502
		c0.761,2.285,4.306,2.089,5.107,0c0.374-0.973,0.146-2.292,0.146-3.405c0-1.235-0.08-2.467,0.097-3.648
		c1.039-0.171,2.218-0.097,3.405-0.097c1.179,0,2.483,0.255,3.405-0.048c2.213-0.729,2.235-4.339-0.097-5.011
		c-1.132-0.326-2.333-0.05-3.454-0.097c-1.115-0.047-2.196,0.093-3.259-0.146C22.5,23.881,23.423,20.776,22.654,18.961z"/>
</g>
<g id="Layer_1">
</g>
</svg>
