<?xml version="1.0" encoding="iso-8859-1"?>
<!-- Generator: Adobe Illustrator 19.2.0, SVG Export Plug-In . SVG Version: 6.00 Build 0)  -->
<svg version="1.1" xmlns="http://www.w3.org/2000/svg" xmlns:xlink="http://www.w3.org/1999/xlink" x="0px" y="0px"
	 viewBox="0 0 72.747 72.982" style="enable-background:new 0 0 72.747 72.982;" xml:space="preserve">
<g id="Lennart_x5F_Larsson_x5F_Rorled">
	<path style="fill-rule:evenodd;clip-rule:evenodd;" d="M72.542,34.572c-4.664,0.141-10.061,0.151-15.018,0.099
		c-0.611-0.006-1.351-0.212-1.734,0.298c-0.072,0.54,0.466,0.78,0.793,1.041c1,0.796,2.013,1.641,3.073,2.429
		c3.482,2.587,6.986,5.187,10.606,7.683c0.35,0.241,0.696,0.528,1.041,0.793c0.29,0.223,0.816,0.417,0.794,0.893
		c-0.467,0.373-1.28,0.176-2.032,0.198c-4.871,0.143-10.204-0.033-15.267-0.05c-2.595-1.784-5.03-3.727-7.485-5.65
		c-4.983-3.773-9.866-7.647-14.82-11.45c-2.185-1.589-4.273-3.358-6.443-5.006c-0.29-0.221-0.809-0.393-0.743-0.892
		c0.604-0.334,1.388-0.248,2.081-0.248c8.42-0.002,16.468,0.002,25.031,0c2.184,0,4.43,0.05,6.791,0.05
		c0.853,0,1.799,0.046,2.032-0.248c0.269-0.337,0.065-1.46-0.05-2.081c-0.396-2.135-1.08-3.63-2.082-5.105
		c-2.081-3.07-4.465-4.946-8.674-5.7c-1.411-0.254-2.872-0.208-4.56-0.248c-3.06-0.073-6.333-0.05-9.418-0.05
		c-3.136,0-6.326,0.182-9.517,0.1c-3.183-0.082-5.974,0.04-8.278,1.09c-1.208,0.551-1.941,1.269-2.825,1.982
		c-2.153,1.74-3.812,4.185-4.561,7.435c-0.134,0.582-0.157,1.57-0.545,1.834c-0.467,0.317-1.684,0.149-2.627,0.148
		c-1.956,0-3.55,0.001-5.452,0c-0.884,0-1.808,0.158-2.479-0.247c-0.33-1.72,0.248-3.39,0.595-4.957
		c0.343-1.55,0.852-3.03,1.487-4.362c1.23-2.579,2.87-5.052,4.758-6.939c3.855-3.854,9.26-7.008,16.209-7.336
		c3.481-0.164,7.033,0,10.558,0c5.247,0.001,10.527,0.051,15.762,0.05c5.104-0.001,8.729,1.837,11.946,3.817
		c4.345,2.674,7.419,6.64,9.566,11.499c1.095,2.478,1.686,5.178,1.685,8.822c0,2.536,0.015,5.257,0,7.882
		C72.736,32.941,72.769,33.799,72.542,34.572z"/>
	<path style="fill-rule:evenodd;clip-rule:evenodd;" d="M15.59,15.786c1.928-2.024,4.258-3.475,7.832-3.767
		c0.985-0.081,2.057,0,3.122,0c5.171-0.001,10.705-0.194,15.862,0.049c2.21,0.104,4.233-0.085,6.295,0.05
		c3.135,0.206,5.494,1.356,7.435,2.925c0.642,0.518,1.379,1.083,1.784,1.636c0.316,0.43,0.58,1.006,0.893,1.536
		c0.627,1.064,0.995,2.062,1.338,3.52c0.114,0.482,0.426,1.59,0.1,1.982c-0.282,0.339-1.972,0.288-2.825,0.248
		c-2.842-0.133-6.299-0.049-9.12-0.05c-11.25-0.003-21.956-0.1-33.508-0.099c-0.72,0-2.436,0.151-2.726-0.298
		c-0.317-0.489,0.104-1.835,0.297-2.379C13.128,18.985,14.172,17.256,15.59,15.786z"/>
	<path style="fill-rule:evenodd;clip-rule:evenodd;" d="M68.131,61.883c-0.059,1.049-0.98,1.661-1.486,2.429
		c-2.386,2.973-5.385,4.876-8.823,6.691c-3.463,1.827-8.183,1.968-13.482,1.883c-2.415-0.038-4.985,0-7.534,0
		c-2.549,0-5.121-0.059-7.584,0.05c-2.549,0.113-5.191,0.014-7.484-0.247c-2.389-0.272-4.447-0.701-6.295-1.438
		c-3.637-1.451-6.447-3.771-9.07-6.395C5.133,63.62,3.982,62.032,3.1,60.396c-0.914-1.692-1.801-3.54-2.28-5.452
		c-0.548-2.183-0.793-4.398-0.793-6.939c0-4.957,0-10.375,0-15.465c0-1.294-0.06-2.608,0-3.866c0.06-1.253-0.061-2.483,0.198-3.668
		c0.565-0.336,1.294-0.188,1.982-0.198c1.939-0.029,4.337,0.047,6.345-0.1c0.786-0.057,1.66-0.119,2.231,0.298
		c0.35,0.846,0.148,1.784,0.148,2.677c0,6.688-0.036,13.103,0.1,19.579c0.017,0.787-0.058,1.432,0,2.081
		c0.422,4.792,2.789,7.791,5.898,10.013c0.986,0.705,1.855,1.252,2.974,1.586c3.484,1.04,8.302,0.504,12.739,0.645
		c4.35,0.138,8.918-0.001,13.433,0c6.755,0.002,13.376-0.002,20.124,0C66.823,61.586,67.606,61.455,68.131,61.883z"/>
	<path style="fill-rule:evenodd;clip-rule:evenodd;" d="M72.394,49.342c0.281,0.966-0.02,2.129-0.198,3.222
		c-0.172,1.054-0.404,2.079-0.743,2.975c-0.308,0.811-0.584,1.777-0.991,2.727c-0.302,0.701-0.756,1.992-1.389,2.279
		c-0.357,0.163-1.085,0.095-1.734,0.149c-1.737,0.145-3.758,0.007-5.502,0.049c-2.431,0.059-4.992,0.005-7.236,0.05
		c-7.37,0.148-14.681,0.08-21.859,0.148c-2.368,0.022-4.68-0.105-7.088,0c-2.365,0.104-4.604-0.22-6.345-0.941
		c-1.737-0.721-3.017-2.051-4.163-3.223c-1.496-1.431-2.514-3.362-3.024-5.848c-0.253-1.229-0.107-2.603-0.149-4.114
		c-0.16-5.763-0.099-11.537-0.099-17.547c0-0.616,0.015-1.412,0.05-2.181c0.033-0.742-0.093-1.727,0.148-2.033
		c0.563-0.717,3.5-0.256,4.511-0.347c0.936-0.084,2.171,0,3.271,0c0.977,0,2.612-0.268,3.024,0.248
		c0.268,0.337,0.148,1.904,0.148,2.776c0,1.132,0.015,2.14,0.05,2.874c0.098,2.115-0.137,3.816-0.05,5.65
		c0.092,1.957,0.029,3.877,0.05,5.751c0.028,2.725-0.401,6.161,1.784,6.84c0.762,0.236,1.995,0.144,2.974,0.148
		c3.019,0.017,6.306-0.1,9.121-0.1c8.238,0.003,15.697,0.229,23.791,0.1c2.968-0.048,5.94,0.05,8.873,0.05
		C70.533,49.046,71.56,48.852,72.394,49.342z"/>
</g>
<g id="Layer_1">
</g>
</svg>
