<?xml version="1.0" encoding="iso-8859-1"?>
<!-- Generator: Adobe Illustrator 19.2.0, SVG Export Plug-In . SVG Version: 6.00 Build 0)  -->
<svg version="1.1" xmlns="http://www.w3.org/2000/svg" xmlns:xlink="http://www.w3.org/1999/xlink" x="0px" y="0px"
	 viewBox="0 0 165.653 167.103" style="enable-background:new 0 0 165.653 167.103;" xml:space="preserve">
<g id="Leona_x5F_Textiles">
	<path style="fill-rule:evenodd;clip-rule:evenodd;" d="M24.833,0.163c0.154,9.221,0.189,18.424,0.148,27.687
		c-0.062,13.878-0.1,28.086-0.099,42.071c0.001,4.632,0.091,9.274,0,13.844c-0.044,2.241-0.106,4.529-0.05,6.774
		c0.06,2.307,0.133,4.646,0,6.922c-0.131,2.279,0.184,4.6,0.05,6.872c-0.099,1.688-0.046,3.35,0,5.057
		c0.013,0.5-0.166,0.968-0.098,1.474c0.26,3.137-0.182,6.475,0,9.277c0.08,1.25,0.033,2.541,0.048,3.78
		c0.008,0.563-0.294,1.097-0.098,1.619c0.072,2.788,0.05,6.401,0.05,9.722c0,1.098,0.115,2.219-0.148,3.19
		c-3.283,0.187-6.845,0.098-10.161,0.098c-3.767-0.001-6.127-0.466-8.443-1.865c-3.217-1.944-5.431-5.05-5.94-9.572
		c-0.173-1.536-0.049-3.266-0.049-5.106C0.046,82.195,0.189,42.559,0.19,2.323c0-0.79-0.177-1.746,0.246-2.308
		c6.993-0.053,14.509,0.049,21.551,0.049C22.939,0.065,23.914-0.027,24.833,0.163z"/>
	<path style="fill-rule:evenodd;clip-rule:evenodd;" d="M52.472,0.212c0.259,0.819,0.147,1.712,0.147,2.553
		c0.001,9.581-0.001,19.368,0,28.915c0,1.778,0.073,3.564,0.049,5.351c-0.184,13.808-0.097,27.994-0.097,42.317
		c0,0.863-0.015,1.74,0,2.601c0.012,0.77,0.146,1.661-0.345,2.308c0.698,0.848,0.346,2.757,0.295,4.223
		c-0.108,3.101,0,6.258,0,9.426c0,3.219,0,6.397,0,9.621c0,1.015,0.118,2.063-0.147,3.043c-2.829,0.108-5.464,0.05-8.346,0.05
		c-2.836,0-5.521,0.07-7.756-0.688c-4.163-1.41-7.052-4.359-8.15-8.934c-0.552-2.3-0.393-5.337-0.393-8.101
		c0-5.906,0.05-10.909,0.05-16.641c-0.001-19.901,0.049-39.42,0.049-59.302c0-5.666-0.084-11.401,0.147-16.839
		C35.794,0.053,44.688-0.029,52.472,0.212z"/>
	<path style="fill-rule:evenodd;clip-rule:evenodd;" d="M80.307,0.31c0.274,1.646,0.139,3.328,0.147,5.007
		c0.096,18.568-0.047,38.034-0.049,56.897c-0.002,6.888,0.095,13.748-0.147,20.52c-4.722,0.022-8.991,0.261-13.059-0.049
		c-4.232-0.322-6.917-2.104-8.983-4.614c-1.038-1.261-1.831-2.747-2.308-4.517c-0.483-1.796-0.442-3.924-0.442-6.333
		c0.002-18.103,0.047-35.235,0.05-53.755c0-2.327-0.001-4.113,0-6.824c0-1.545-0.122-3.983,0.049-5.891
		c0.032-0.349-0.006-0.545,0.441-0.639c0.834-0.173,2.068-0.037,3.143,0C65.973,0.35,73.739-0.048,80.307,0.31z"/>
	<path style="fill-rule:evenodd;clip-rule:evenodd;" d="M108.043,0.458c0.289,12.434,0,25.357,0,37.604
		c0.001,5.59,0.247,11.424-0.049,16.887c-3.182,0.22-6.713,0.066-9.916,0.049c-1.766-0.009-3.373,0.043-4.812-0.246
		c-3.998-0.802-6.901-3.337-8.542-6.529c-1.22-2.374-1.447-4.904-1.374-8.591c0.064-3.286-0.05-6.602-0.05-9.916
		c0.001-9.17-0.1-18.807,0.05-28.473c0.004-0.317-0.093-0.765,0.245-0.981c6.758-0.013,14.675-0.01,21.649,0
		C106.201,0.262,107.158,0.212,108.043,0.458z"/>
	<path style="fill-rule:evenodd;clip-rule:evenodd;" d="M135.829,0.458c0.23,2.095,0.146,4.326,0.148,6.578
		c0,6.381,0.033,13.512-0.148,20.078c-0.725,0.194-1.523,0.177-2.309,0.147c-2.189-0.082-4.723,0.006-7.215,0
		c-3.414-0.008-6.239-0.34-8.493-1.522c-3.352-1.756-6.062-5.074-6.578-9.622c-0.258-2.272-0.129-5.158-0.098-8.002
		c0.018-1.72,0.048-3.65,0.048-5.793c0-0.441-0.097-1.731,0.148-1.914c0.035-0.046,0.088-0.074,0.147-0.098
		C120.174,0.36,127.72,0.229,135.829,0.458z"/>
	<path style="fill-rule:evenodd;clip-rule:evenodd;" d="M114.77,27.409c1.541,0.73,2.954,1.618,4.761,2.11
		c1.736,0.474,3.83,0.639,6.137,0.638c10.941-0.002,22.625,0.097,33.479,0.098c1.128,0.001,2.252,0.061,3.339,0.049
		c1.036-0.011,2.061-0.122,3.044,0.098c0.183,7.94,0.146,16.572,0,24.693c-3.242,0.278-6.372,0.078-9.476,0.049
		c-3.163-0.029-6.35,0.182-9.425-0.148c-5.975-0.641-8.872-4.06-12.273-7.462c-1.616-1.616-3.312-3.232-4.86-5.007
		c-1.513-1.734-3.329-3.237-4.909-4.958c-1.524-1.661-3.251-3.3-4.909-4.958c-0.81-0.81-1.63-1.678-2.454-2.504
		c-0.844-0.844-1.733-1.692-2.406-2.553C114.761,27.547,114.777,27.466,114.77,27.409z"/>
	<path style="fill-rule:evenodd;clip-rule:evenodd;" d="M86.835,55.096c2.196,1.309,4.406,2.41,7.659,2.749
		c3.229,0.337,6.969,0.099,10.26,0.099c6.57,0,13.675-0.126,20.177,0.098c1.664,0.057,3.362-0.112,5.057-0.05
		c5.114,0.19,10.122,0.05,15.07,0.05c5.044-0.001,10.18,0.097,15.317,0.098c1.675,0,3.377-0.121,5.007,0.147
		c0.189,6.868,0.096,14.473,0.098,21.797c0,1.001,0.116,2.042-0.148,2.994c-4.239,0.187-8.62,0.05-13.059,0.05
		c-8.792-0.001-17.323-0.101-26.214-0.1c-2.374,0.001-4.591,0.066-6.627-0.097c-1.968-0.158-3.768-0.671-5.302-1.376
		c-1.444-0.662-2.936-1.549-4.074-2.65c-3.333-3.223-6.735-6.913-10.016-10.063c-2.284-2.194-4.342-4.621-6.627-6.774
		c-2.292-2.161-4.446-4.455-6.529-6.824C86.828,55.235,86.843,55.154,86.835,55.096z"/>
	<path style="fill-rule:evenodd;clip-rule:evenodd;" d="M59.051,82.931c1.539,0.77,3.028,1.628,4.86,2.11
		c1.775,0.468,3.881,0.639,6.233,0.639c13.517,0.001,27.326,0.197,40.893,0.195c18.127-0.001,36.911,0.057,54.295,0.295
		c0.249,0.936,0.163,1.969,0.148,2.944c-0.109,6.877,0.071,14.635-0.148,21.896c-1.337,0.268-2.707,0.147-4.074,0.147
		c-20.871,0.005-42.094-0.24-62.641-0.245c-2.883,0-5.671,0.1-8.1-0.246c-4.907-0.698-7.681-3.458-10.554-6.333
		c-7.02-7.019-13.886-14.111-20.865-21.256C59.073,83.038,59.048,82.998,59.051,82.931z"/>
	<path style="fill-rule:evenodd;clip-rule:evenodd;" d="M31.362,110.913c1.943,0.98,3.741,2.064,6.333,2.454
		c3.838,0.576,8.328,0.092,12.617,0.294c1.411,0.068,2.847,0,4.27,0c25.261,0.008,51.258,0.399,77.024,0.394
		c11.38-0.002,22.66-0.037,33.825,0.246c0.141,7.754,0.202,16.894-0.05,24.839c-0.058-0.008-0.088,0.012-0.099,0.05
		c-32.625,0.113-65.287-0.402-97.985-0.393c-2.545,0.001-4.868-0.155-6.873-0.736c-4-1.161-6.344-3.798-8.934-6.333
		c-6.556-7.028-13.516-13.649-20.079-20.667C31.386,111.02,31.361,110.98,31.362,110.913z"/>
	<path style="fill-rule:evenodd;clip-rule:evenodd;" d="M165.283,167.023c-7.694,0.181-15.643-0.001-23.563,0
		c-3.964,0.001-7.926-0.049-11.88-0.048c-23.142,0.001-47.113-0.398-70.545-0.394c-3.965,0.001-7.966,0.124-11.78-0.049
		c-4.168-0.189-7.912,0.167-11.685-0.148c-5.497-0.458-8.486-3.43-11.487-6.431c-0.999-1-2.02-1.971-2.994-2.945
		c-5.953-5.95-11.849-11.922-17.623-18.115c-0.059-0.008-0.043-0.089-0.05-0.148c1.157,0.549,2.252,1.245,3.534,1.719
		c3.707,1.368,9.294,1.03,14.58,1.031c34.583,0.004,68.693,0.494,102.601,0.49c13.664-0.001,27.524,0.054,40.844,0.246
		c0.125,0.005,0.19,0.071,0.197,0.196c0.066,8.427,0.121,16.465-0.1,24.446C165.346,166.956,165.286,166.96,165.283,167.023z"/>
</g>
<g id="Layer_1">
</g>
</svg>
