<?xml version="1.0" encoding="iso-8859-1"?>
<!-- Generator: Adobe Illustrator 19.2.0, SVG Export Plug-In . SVG Version: 6.00 Build 0)  -->
<svg version="1.1" xmlns="http://www.w3.org/2000/svg" xmlns:xlink="http://www.w3.org/1999/xlink" x="0px" y="0px"
	 viewBox="0 0 111.45 183.008" style="enable-background:new 0 0 111.45 183.008;" xml:space="preserve">
<g id="Leonblu">
	<path style="fill-rule:evenodd;clip-rule:evenodd;" d="M78.655,3.002C63.301,3.175,48.58,2.832,33.417,2.951
		c-0.258,0.467-0.191,1.672-0.05,2.217c4.091,0.411,8.358-0.052,12.645,0.151C50.192,5.517,54.47,5.42,58.706,5.42
		c6.321,0,12.611,0.101,18.992,0.101c2.137,0,4.28-0.111,6.348,0c1.335,0.072,2.638,1.219,3.627,1.864
		c0.264,0.171,0.716,0.319,0.705,0.705C70.193,8.302,51.56,7.776,33.366,8.039c-0.159,0.497-0.169,1.621,0,2.116
		c1.169,0.271,2.378,0.151,3.577,0.151c16.857,0,33.885,0.159,51.183,0.252c1.289,0.007,2.708,0.059,3.829,0.101
		c0.444,0.349,0.912,0.762,1.36,1.159c0.417,0.37,1.023,0.768,1.058,1.36c-20.185,0.161-40.781-0.218-60.956-0.151
		c-0.343,0.402-0.229,1.663-0.101,2.217c1.265,0.27,2.6,0.151,3.879,0.151c19.505,0,39.869,0.287,59.645,0.302
		c0.457,0.299,0.75,0.762,1.058,1.209c0.298,0.394,0.863,0.779,0.806,1.36c-21.174,0.165-43.72-0.216-65.288-0.151
		c-0.349,0.403-0.229,1.71-0.101,2.267c5.443,0.233,11.119,0.201,16.725,0.201c16.813,0,33.565,0.19,50.376,0.252
		c0.05,0,0.101,0,0.151,0c0.288,0.351,0.57,0.777,0.806,1.209c0.225,0.412,0.538,0.867,0.503,1.36
		c-22.632,0.18-45.733-0.271-68.562-0.101c-0.175,0.628-0.172,1.584,0,2.217c23.067,0.359,46.528,0.207,69.822,0.403
		c0.509,0.633,0.941,1.609,1.007,2.519c-23.354,0.293-47.472-0.257-70.779-0.05c-0.312,0.409-0.275,1.687-0.05,2.166
		c23.538,0.453,47.767,0.223,71.686,0.453c0.445,0.598,0.716,1.633,0.705,2.519c-24.479,0.338-48.154-0.347-72.391-0.05
		c-0.24,0.445-0.237,1.72,0,2.166c23.944,0.384,49.542,0.187,72.945,0.454c0.246,0.644,0.471,1.791,0.302,2.519
		c-24.262,0.273-48.713-0.227-73.197-0.151c-0.001,0.049-0.062,0.039-0.101,0.05c-0.154,0.552-0.272,1.653,0,2.166
		c9.07,0.244,18.371,0.252,27.405,0.252c13.81,0,27.841,0.151,41.661,0.151c1.498,0,3.008-0.123,4.483,0.151
		c0.181,0.62,0.232,1.753,0.05,2.418c-0.044,0.023-0.09,0.045-0.1,0.101c-24.039,0.084-49.106-0.22-73.398-0.201
		c-0.379,0.394-0.222,1.401-0.202,2.116c0.045,0.022,0.09,0.044,0.1,0.101c24.096,0.404,49.643,0.159,73.399,0.504
		c0.058-0.008,0.089,0.011,0.101,0.05c0.091,0.783,0.037,1.848-0.252,2.418c-0.04,0.01-0.05,0.051-0.101,0.051
		c-24.413,0.173-48.857-0.208-73.096-0.151c-0.376,0.434-0.276,1.585-0.101,2.167c1.47,0.275,2.997,0.151,4.483,0.151
		c19.76,0,39.682,0.253,59.545,0.252c1.541,0,3.076,0.034,4.584,0.05c1.441,0.015,2.884-0.194,4.282,0.101
		c0.025,0.871-0.195,1.916-0.604,2.519c-24.114,0.166-48.336-0.286-72.189-0.151c-0.041,0.01-0.05,0.051-0.101,0.051
		c-0.228,0.486-0.232,1.682,0,2.166c23.309,0.239,46.721,0.401,69.57,0.403c0.695,0,1.406-0.16,2.065,0.101
		c-0.145,0.997-0.447,1.836-0.907,2.519c-23.471,0.157-47.31-0.213-70.628-0.151c-0.041,0.009-0.05,0.05-0.101,0.05
		c-0.259,0.471-0.182,1.616-0.05,2.166c5.763,0.384,11.609,0.019,17.43,0.202c5.765,0.181,11.562,0.051,17.33,0.05
		c11.641,0,23.318,0.142,34.911,0.252c-0.18,0.916-0.668,1.949-1.31,2.569c-22.761,0.126-45.65-0.243-68.311-0.151
		c-0.242,0.478-0.204,1.667-0.05,2.217c2.649,0.273,5.447,0.151,8.312,0.151c19.366-0.001,39.054,0.203,58.538,0.302
		c0.019,0.536-0.417,1.004-0.705,1.411c-0.3,0.423-0.597,0.892-1.008,1.159c-21.825,0.061-43.394-0.218-65.036-0.151
		c-0.04,0.009-0.05,0.05-0.1,0.05c-0.193,0.521-0.251,1.663,0,2.166c7.811,0.199,15.661,0.201,23.677,0.202
		c12.978,0,26.148,0.092,39.344,0.201c-0.043,0.593-0.618,1.006-1.007,1.411c-0.406,0.422-0.783,0.907-1.26,1.209
		c-19.782-0.041-40.7-0.214-60.704-0.201c-0.336,0.383-0.236,1.633-0.101,2.166c0.526,0.266,1.159,0.151,1.713,0.151
		c18.071-0.001,37.963,0.198,56.119,0.302c0.127,0.398-0.37,0.58-0.604,0.755c-0.78,0.582-1.629,1.31-2.519,1.813
		c-18.098,0.029-36.107-0.14-54.558-0.151c-0.001,0.049-0.061,0.039-0.1,0.051c-0.25,0.445-0.201,1.646-0.05,2.166
		c0.998,0.271,2.05,0.151,3.073,0.151c15.861,0,31.02,0.078,47.001,0.302c-0.104,0.406-0.603,0.556-0.907,0.705
		c-1.119,0.55-2.208,1.023-3.476,1.511c-1.633,0.629-4.148,0.382-6.297,0.353c-2.001-0.027-4.211-0.051-6.448-0.051
		c-10.802,0-22.037-0.15-32.896-0.05c-0.259,0.453-0.196,1.687-0.05,2.216c10.802,0.388,22.431,0.001,33.349,0.353
		c0.164,0.611,0.164,1.857,0,2.468c-11.189,0.317-22.137-0.137-33.249,0.05c-0.041,0.01-0.05,0.051-0.101,0.051
		c-0.222,0.467-0.216,1.584-0.05,2.116c1.067,0.304,2.218,0.113,3.325,0.151c7.76,0.269,16.055-0.09,24.029,0.101
		c5.565,0.134,11.649,0.101,17.179,0.101c1.164,0,2.225-0.028,3.073,0.353c1.723,0.773,3.237,1.255,4.685,2.167
		c-0.422,0.29-0.995,0.201-1.461,0.201c-16.818,0-34.004-0.271-50.729-0.151c-0.262,0.5-0.286,1.672-0.05,2.217
		c16.587,0.185,32.732,0.303,49.722,0.302c2.417,0,4.875-0.034,7.304,0.05c0.592,0.416,1.225,0.791,1.763,1.26
		c0.29,0.154,0.616,0.389,0.907,0.604c0.255,0.189,0.667,0.405,0.604,0.755c-19.797,0.09-40.449-0.232-60.3-0.101
		c-0.258,0.438-0.196,1.651-0.05,2.166c1.268,0.275,2.582,0.151,3.879,0.151c19.703,0,39.865,0.253,59.545,0.251
		c0.547,0.246,0.935,0.783,1.36,1.209c0.41,0.412,1.027,0.774,1.108,1.36c-18.676,0.181-38.693-0.102-57.882-0.101
		c-1.385,0-2.765,0.01-4.131-0.05c-1.3-0.057-2.624-0.057-3.879,0.151c-0.145,0.526-0.204,1.716,0.05,2.166
		c22.933,0.249,45.149,0.236,68.008,0.302c-0.009,0.043,0.02,0.047,0.05,0.05c0.522,0.205,0.751,0.752,1.058,1.159
		c0.295,0.392,0.763,0.769,0.806,1.36c-5.827,0.197-11.692,0.101-17.531,0.101c-8.812,0.001-17.54-0.101-26.246-0.101
		c-8.706,0.001-17.408-0.127-26.146-0.05c-0.262,0.468-0.315,1.752-0.05,2.267c11.821,0.181,23.688,0.202,35.667,0.202
		c10.247,0,20.681,0.1,31.334,0.1c1.544,0,3.251-0.041,4.635,0.05c0.444,0.217,0.62,0.783,0.856,1.209
		c0.233,0.42,0.651,0.841,0.554,1.36c-23.983,0.219-48.946-0.199-73.046-0.05c-0.218,0.482-0.253,1.741,0,2.216
		c24.171,0.284,49.668,0.17,74.255,0.353c0.591,0.568,0.979,1.606,1.058,2.519c-25.082,0.309-50.501-0.243-75.313,0
		c-0.249,0.431-0.202,1.611-0.05,2.116c0.719,0.272,1.519,0.151,2.267,0.151c24.554-0.001,49.84,0.279,74.003,0.303
		c0.433,0.658,0.611,1.572,0.756,2.519c-1.462,0.324-3.073,0.109-4.685,0.101c-1.607-0.009-3.219,0.05-4.836,0.05
		c-1.594,0-3.224-0.122-4.837-0.05c-4.741,0.208-9.645-0.001-14.508,0c-16.057,0-32.378-0.251-48.109-0.101
		c-0.26,0.436-0.195,1.653-0.05,2.166c1.559,0.274,3.153,0.151,4.735,0.151c24.167,0.001,48.521,0.181,72.744,0.302
		c0.452,0.513,0.496,1.675,0.503,2.469c-0.75,0.269-1.593,0.151-2.368,0.151c-24.258-0.001-50.476-0.216-75.564-0.151
		c-0.336,0.522-0.188,1.539-0.101,2.166c1.539,0.248,3.116,0.151,4.685,0.151c22.911,0.003,45.62,0.203,68.562,0.202
		c1.652,0,3.667-0.076,4.987,0.101c0.283,0.579,0.291,1.683,0.202,2.469c-0.889,0.274-1.863,0.151-2.771,0.151
		c-14.583,0-28.628-0.128-42.92,0c0.02,0.487,0.536,0.813,0.907,1.209c0.38,0.405,0.756,0.961,1.31,1.058
		c1.646,0.288,3.594,0.05,5.491,0.05c12.094,0.001,26.085,0.041,37.883,0.151c0.023,0.045,0.045,0.09,0.101,0.101
		c0.094,0.765,0.016,1.751-0.151,2.418c-0.041,0.01-0.05,0.051-0.101,0.05c-13.422,0.177-27.344-0.072-40.352,0.051
		c-0.039,0.55,0.568,0.863,0.907,1.209c0.365,0.374,0.669,0.867,1.159,1.058c10.896,0.084,22.185,0.101,33.45,0.101
		c1.549,0,3.108-0.121,4.635,0.151c-0.001,0.811-0.115,1.929-0.504,2.519c-11.286,0.068-22.982-0.084-34.608,0.05
		c-0.142,0.495,0.475,0.828,0.806,1.159c0.363,0.363,0.683,0.798,1.058,1.058c10.488,0.295,21.947-0.023,32.191,0.252
		c-0.004,0.872-0.283,1.899-0.706,2.519c-9.396,0.186-19.745-0.133-28.362,0.101c0.041,0.467,0.461,0.887,0.806,1.309
		c0.321,0.394,0.79,1.008,1.36,1.008c4.036,0,8.249,0.05,12.645,0.05c4.327,0,8.687-0.117,12.645,0.151
		c-0.143,0.602-0.441,2.268-1.108,2.519c-0.542,0.204-1.965,0.035-2.67,0.051c-5.794,0.13-12.716-0.224-18.79,0.05
		c-0.022,0.566,0.552,0.905,0.906,1.26c0.375,0.375,0.712,0.862,1.209,1.058c6.135,0.131,12.066-0.159,18.135,0.101
		c-0.162,0.967-0.802,1.882-1.41,2.569c-4.44,0.051-9.227-0.057-13.804,0.101c-0.139,0.51,0.524,0.877,0.907,1.259
		c0.323,0.324,0.794,1.058,1.36,1.058c2.915,0,6.97-0.082,9.824,0.101c-0.043,0.519-0.459,0.957-0.806,1.411
		c-0.245,0.32-0.753,1.159-1.26,1.159c-1.578-0.001-3.333-0.042-5.038,0.05c0.013,0.534,0.648,0.999,1.159,1.511
		c0.337,0.337,1.295,1.057,1.31,1.461c0.014,0.395-1.019,1.185-1.411,1.561c-3.477,3.35-7.741,6.333-12.342,8.463
		c-5.289,2.449-11.818,4.356-19.395,4.181c-0.241-3.768-0.1-7.752-0.1-11.788c0-10.821,0.1-21.982,0.1-33.097
		c0-0.954,0.119-1.943-0.151-2.872c-16.079-0.439-32.678,0.037-48.966-0.252c-3.976-0.07-7.822-0.05-11.939-0.05
		c-1.288,0-2.616,0.121-3.879-0.201c-0.231-8.257-0.05-17.244-0.05-25.39c0-25.208,0.201-50.017,0.202-75.917
		c0-9.561,0.101-19.337,0.101-29.47c0-1.017-0.024-2.07,0.05-3.174c0.051-0.759,0.137-0.706,0.554-0.756
		c0.751-0.088,1.671,0.05,2.519,0.05c2.444,0,5.07,0.051,7.506,0.051c3.395,0,6.859-0.153,10.075,0
		c3.263,0.155,6.652-0.109,10.025,0.05c3.328,0.157,6.731,0.101,9.975,0.101c3.239,0,6.623,0.051,10.025,0.051
		c5.078,0,10.102,0.05,15.063,0.05c3.999,0,7.6,0.933,10.73,1.864C77.503,2.428,78.215,2.505,78.655,3.002z"/>
</g>
<g id="Layer_1">
</g>
</svg>
