<?xml version="1.0" encoding="iso-8859-1"?>
<!-- Generator: Adobe Illustrator 21.0.2, SVG Export Plug-In . SVG Version: 6.00 Build 0)  -->
<svg version="1.1" xmlns="http://www.w3.org/2000/svg" xmlns:xlink="http://www.w3.org/1999/xlink" x="0px" y="0px"
	 viewBox="0 0 34.414 34.212" style="enable-background:new 0 0 34.414 34.212;" xml:space="preserve">
<g id="Leopold_x5F_Meijnen_x5F_Oosterbaan">
	<g>
		<path d="M16.319,0.026c6.765-0.389,13.565,3.59,16.413,9.764c2.531,5.106,2.176,11.473-0.866,16.289
			c-3.606,5.919-11.003,9.209-17.802,7.815c-4.961-0.879-9.436-4.077-11.926-8.45c-2.411-4.44-2.867-9.961-0.94-14.662
			C3.483,4.608,9.768,0.246,16.319,0.026z M16.748,1.245c-5.966,0.134-11.712,3.85-14.121,9.335c-1.486,3.05-1.59,6.582-1.044,9.877
			C2.83,26.444,7.91,31.369,13.887,32.567c3.537,0.788,7.348,0.295,10.571-1.365c3.597-1.836,6.488-5.064,7.791-8.899
			c2.353-6.352-0.105-14.012-5.614-17.929C23.8,2.279,20.259,1.204,16.748,1.245z"/>
		<path d="M17.231,19.801c3.217-4.842,6.47-9.673,9.818-14.426c0.06,7.679,0.107,15.374,0.098,23.052
			c-0.412-0.035-0.843,0.065-1.242-0.051c-0.041-6.303-0.099-12.616-0.076-18.916c-2.873,3.95-5.541,8.058-8.27,12.111
			c-0.109,0.121-0.286,0.523-0.441,0.27c-2.902-4.074-5.692-8.225-8.597-12.298c-0.08,5.878,0.043,11.786,0.023,17.672
			c4.548-0.011,9.097-0.034,13.644-0.008c0.004,0.398-0.001,0.795,0.004,1.194c-0.044,0.02-0.131,0.061-0.175,0.081
			c-4.894-0.105-9.799,0.056-14.701,0.009C7.19,20.796,7.232,13.086,7.171,5.386C10.57,10.159,13.876,14.997,17.231,19.801z"/>
	</g>
</g>
<g id="Layer_1">
</g>
</svg>
