<?xml version="1.0" encoding="iso-8859-1"?>
<!-- Generator: Adobe Illustrator 21.0.2, SVG Export Plug-In . SVG Version: 6.00 Build 0)  -->
<svg version="1.1" xmlns="http://www.w3.org/2000/svg" xmlns:xlink="http://www.w3.org/1999/xlink" x="0px" y="0px"
	 viewBox="0 0 17.484 9.177" style="enable-background:new 0 0 17.484 9.177;" xml:space="preserve">
<g id="Les_x5F_Placements_x5F_Bonrapor">
	<path d="M3.102,0.003C4.492-0.002,5.883,0.003,7.274,0C7.211,0.051,7.152,0.107,7.096,0.164C6.123,1.141,5.144,2.111,4.172,3.089
		c0.541,0.53,1.072,1.07,1.612,1.602c0.171,0.186,0.38,0.329,0.546,0.52c0.628,0.616,1.246,1.241,1.871,1.86
		c0.252,0.202,0.458,0.454,0.7,0.667c0.476,0.469,0.941,0.949,1.422,1.413c0.536-0.507,1.039-1.049,1.572-1.559
		c0.184-0.211,0.413-0.374,0.602-0.58c0.271-0.281,0.556-0.547,0.824-0.831c-0.398-0.417-0.838-0.79-1.233-1.211
		c-0.628-0.627-1.256-1.254-1.883-1.883c1.382-0.009,2.765-0.002,4.147-0.003c0.451,0.478,0.949,0.906,1.4,1.383
		c0.581,0.569,1.152,1.149,1.73,1.723c-0.525,0.496-1.013,1.033-1.554,1.512c-0.479,0.473-0.953,0.951-1.432,1.423
		c-0.04,0.059-0.115,0.05-0.176,0.051C11.609,9.174,8.897,9.18,6.185,9.175C5.682,8.658,5.167,8.155,4.654,7.65
		c-0.519-0.47-0.998-0.982-1.5-1.47c-0.161-0.156-0.31-0.326-0.488-0.464C2.162,5.23,1.673,4.729,1.174,4.239
		c-0.109-0.12-0.232-0.226-0.356-0.33C0.551,3.632,0.265,3.375,0,3.097C1.037,2.069,2.066,1.032,3.102,0.003z"/>
	<path d="M8.127,0.003c1.417-0.004,2.834,0,4.251-0.002c-0.407,0.354-0.748,0.775-1.137,1.147c-0.634,0.653-1.287,1.288-1.925,1.937
		c1.017,1.024,2.039,2.044,3.062,3.062c-0.151-0.026-0.305-0.013-0.458-0.014C10.682,6.129,9.443,6.135,8.204,6.13
		c-0.622-0.638-1.263-1.258-1.89-1.891c-0.101-0.117-0.238-0.194-0.34-0.31c-0.288-0.3-0.593-0.584-0.883-0.882
		C6.098,2.028,7.12,1.023,8.127,0.003z"/>
</g>
<g id="Layer_1">
</g>
</svg>
