<?xml version="1.0" encoding="iso-8859-1"?>
<!-- Generator: Adobe Illustrator 19.2.0, SVG Export Plug-In . SVG Version: 6.00 Build 0)  -->
<svg version="1.1" xmlns="http://www.w3.org/2000/svg" xmlns:xlink="http://www.w3.org/1999/xlink" x="0px" y="0px"
	 viewBox="0 0 83.973 38.577" style="enable-background:new 0 0 83.973 38.577;" xml:space="preserve">
<g id="Les_x5F_Enteprises_x5F_Transport">
	<path style="fill-rule:evenodd;clip-rule:evenodd;" d="M83.85,0.222c0.163,3.629,0.164,7.94,0,11.569
		c-9.967,0.25-19.447,0.025-29.706,0.098c-7.632,4.165-15.472,8.471-23.285,12.745c-0.579,0.317-1.188,0.819-1.765,0.883
		c-1.167,0.129-2.491,0-3.726,0c-8.03,0-16.951,0.09-25.246-0.147c-0.147-3.525-0.145-7.717,0-11.471
		c1.734-0.292,3.717-0.098,5.834-0.098c6.038,0,12.404-0.043,18.529-0.049c8.169-4.609,16.363-9.194,24.658-13.677
		c3.994-0.14,8.059,0.186,12.059,0c3.61-0.167,7.694,0,11.471,0c2.873,0.001,5.649,0,8.53,0C82.073,0.074,83.002-0.043,83.85,0.222z
		"/>
	<path style="fill-rule:evenodd;clip-rule:evenodd;" d="M83.85,13.31c0.164,3.613,0.163,7.907,0,11.52
		c-8.135,0.24-15.952,0.064-24.265,0.098c-7.221,3.806-14.438,7.859-21.717,11.912c-0.445,0.248-1.025,0.525-1.568,0.833
		c-0.533,0.303-1.129,0.737-1.568,0.833c-0.605,0.132-1.405-0.019-2.157,0c-4.648,0.119-10.175,0.05-15.001,0.049
		c-6.025,0-11.81,0.055-17.451-0.147c-0.163-3.629-0.163-7.939,0-11.569c9.083-0.146,19.612-0.055,29.608-0.098
		c7.923-4.245,15.485-8.303,23.384-12.746c0.549-0.308,1.218-0.768,1.666-0.833c0.817-0.118,1.801,0,2.696,0c0.895,0,1.81,0,2.696,0
		c4.949,0,9.61,0.049,14.657,0.049C77.896,13.212,80.944,13.063,83.85,13.31z"/>
</g>
<g id="Layer_1">
</g>
</svg>
