<?xml version="1.0" encoding="iso-8859-1"?>
<!-- Generator: Adobe Illustrator 21.0.2, SVG Export Plug-In . SVG Version: 6.00 Build 0)  -->
<svg version="1.1" xmlns="http://www.w3.org/2000/svg" xmlns:xlink="http://www.w3.org/1999/xlink" x="0px" y="0px"
	 viewBox="0 0 11.816 9.759" style="enable-background:new 0 0 11.816 9.759;" xml:space="preserve">
<g id="Les_x5F_Productions_x5F_Michael_x5F_Plamer_x5F_Inc">
	<path d="M0,0c0.508,0.488,0.998,0.995,1.501,1.489c0.242,0.204,0.448,0.447,0.681,0.66c0.584,0.576,1.167,1.153,1.745,1.735
		C4.17,4.099,4.383,4.345,4.624,4.562c0.114,0.099,0.217,0.21,0.325,0.316c-0.244,0.23-0.469,0.48-0.721,0.702
		C3.879,5.943,3.505,6.28,3.156,6.642C2.655,7.136,2.162,7.639,1.654,8.125C1.488,8.287,1.332,8.459,1.155,8.61
		C0.771,8.991,0.39,9.378,0.003,9.757c0.004-2.764,0.001-5.528,0.002-8.292C0.001,0.977,0.01,0.488,0,0z"/>
	<path d="M11.153,0.66c0.219-0.22,0.437-0.443,0.663-0.657c-0.004,3.252-0.001,6.504-0.002,9.756
		c-0.419-0.417-0.841-0.83-1.26-1.248c-0.389-0.387-0.773-0.779-1.171-1.159C9.113,7.065,8.81,6.81,8.541,6.521
		c-0.564-0.54-1.1-1.108-1.667-1.645c0.376-0.344,0.724-0.718,1.089-1.074c0.27-0.255,0.52-0.531,0.797-0.778
		c0.189-0.194,0.381-0.385,0.58-0.569c0.443-0.443,0.888-0.884,1.331-1.327C10.832,0.973,10.983,0.806,11.153,0.66z"/>
</g>
<g id="Layer_1">
</g>
</svg>
