<?xml version="1.0" encoding="iso-8859-1"?>
<!-- Generator: Adobe Illustrator 19.2.0, SVG Export Plug-In . SVG Version: 6.00 Build 0)  -->
<svg version="1.1" xmlns="http://www.w3.org/2000/svg" xmlns:xlink="http://www.w3.org/1999/xlink" x="0px" y="0px"
	 viewBox="0 0 68.165 77.906" style="enable-background:new 0 0 68.165 77.906;" xml:space="preserve">
<g id="L_x5F_Escalier">
	<path style="fill-rule:evenodd;clip-rule:evenodd;" d="M34.082,77.906c-0.872-0.113-1.596-0.65-2.31-1.055
		c-2.133-1.203-4.269-2.438-6.377-3.715c-5.544-3.359-11.149-6.629-16.921-9.941c-2.072-1.189-4.218-2.379-6.376-3.715
		c-0.624-0.387-1.705-0.904-1.908-1.406c-0.358-0.885-0.101-3.65-0.101-4.82c0-10.639,0.05-20.451,0.05-31.381
		c0-0.984-0.118-2.062,0.151-2.611c0.249-0.51,1.228-0.949,1.958-1.355c2.075-1.156,4.321-2.492,6.276-3.666
		c1.44-0.865,2.945-1.506,4.318-2.309c1.406-0.824,2.807-1.598,4.218-2.41c1.441-0.832,2.943-1.535,4.268-2.361
		c3.367-2.098,6.841-4.121,10.494-6.074c0.805-0.432,1.967-1.254,2.862-1.055c0.674,0.15,1.481,0.799,2.159,1.154
		c0.786,0.412,1.482,0.846,2.108,1.205c4.285,2.463,8.141,4.951,12.502,7.33c1.416,0.773,2.806,1.625,4.167,2.461
		c2.754,1.689,5.504,3.062,8.436,4.82c0.575,0.344,1.273,0.83,2.059,1.256c0.78,0.422,1.634,0.834,1.858,1.406
		c0.361,0.924,0.1,3.609,0.1,4.82c0,1.701,0,3.395,0,4.869c0,8.113-0.05,15.674-0.05,24.051c0,1.572,0.241,4.002-0.201,4.971
		c-0.296,0.65-1.08,1-1.908,1.457c-2.155,1.184-4.196,2.387-6.327,3.613c-3.04,1.754-5.807,3.225-8.436,4.82
		c-4.074,2.477-8.417,4.76-12.653,7.281c-0.628,0.373-1.293,0.838-2.059,1.256C35.684,77.216,34.852,77.747,34.082,77.906z
		 M39.806,5.753C39.791,5.29,39.041,5.165,38.651,4.9c-0.522-0.537-1.33-0.889-2.109-1.355c-0.717-0.428-1.76-1.332-2.51-1.104
		c-1.123,0.342-1.935,1.096-2.962,1.656C30.632,4.335,30.17,4.55,29.764,4.8c-0.412,0.256-0.941,0.447-1.104,0.904
		c0.146,0.473,0.699,0.74,1.155,1.004c1.008,0.584,1.91,1.012,2.962,1.656c0.479,0.295,1.113,0.728,1.607,0.703
		c0.342-0.016,0.747-0.299,1.104-0.502c1.106-0.625,2.157-1.178,3.113-1.807C38.969,6.409,39.822,6.271,39.806,5.753z M25.446,7.31
		c-1.298,0.512-2.634,1.455-4.017,2.211c-0.348,0.189-1.15,0.59-1.104,1.004c0.038,0.35,0.909,0.678,1.305,0.902
		c1.117,0.637,1.792,1.016,2.812,1.607c0.395,0.228,1.007,0.711,1.506,0.703c0.454-0.008,1.119-0.414,1.557-0.652
		c1.026-0.559,1.735-1.002,2.812-1.608c0.417-0.234,1.297-0.57,1.255-1.004c-0.033-0.342-0.705-0.586-1.255-0.904
		c-1.032-0.596-1.905-1.082-2.812-1.605c-0.606-0.352-1.256-0.861-1.958-0.703C25.493,7.273,25.474,7.3,25.446,7.31z M44.174,8.115
		c-0.628-0.369-1.255-0.947-2.059-0.754c-1.772,1.008-3.665,1.892-5.172,3.164c0.267,0.455,0.778,0.697,1.205,1.004
		c0.883,0.633,1.806,1.121,2.812,1.656c0.438,0.234,1.134,0.719,1.556,0.703c0.407-0.016,1.056-0.525,1.457-0.752
		c1.023-0.582,1.944-1.072,2.862-1.607c0.459-0.268,1.077-0.438,1.255-1.004C47.094,9.648,45.438,8.855,44.174,8.115z
		 M20.575,13.386c-0.443-0.264-0.936-0.533-1.456-0.803c-0.545-0.283-1.242-0.871-1.758-0.703c-0.954,0.311-1.637,0.926-2.761,1.506
		c-0.432,0.223-2.541,1.156-2.511,1.707c0.019,0.338,0.915,0.764,1.255,0.955c1.187,0.664,1.782,0.969,2.912,1.605
		c0.479,0.27,1.024,0.709,1.557,0.703c0.389-0.004,1.072-0.428,1.456-0.652c1.046-0.613,1.819-1.031,2.762-1.557
		c0.457-0.254,0.987-0.492,1.255-0.904C22.703,14.488,21.614,14.003,20.575,13.386z M34.534,12.031
		c-0.245,0.006-0.529-0.027-0.703,0.051c-1.336,0.691-2.63,1.49-3.967,2.26c-0.259,0.149-1.205,0.506-1.205,0.902
		c0,0.346,0.888,0.76,1.205,0.955c0.446,0.273,1.019,0.588,1.406,0.803c1.056,0.584,1.831,1.109,2.913,1.506
		c0.603,0,1.07-0.406,1.606-0.703c1.059-0.582,1.826-1.047,2.712-1.605c0.443-0.281,1.079-0.361,1.255-0.904
		C38.303,13.917,36.311,13.081,34.534,12.031z M53.614,13.638c-0.404-0.244-0.875-0.516-1.355-0.805
		c-0.623-0.373-1.246-0.889-1.958-0.703c-0.881,0.463-1.737,1.051-2.611,1.557c-0.892,0.518-1.903,0.881-2.561,1.658
		c0.593,0.844,1.626,1.106,2.611,1.707c0.608,0.371,2.004,1.561,2.812,1.557c0.423-0.004,1.078-0.465,1.506-0.703
		c1.478-0.822,2.945-1.561,4.117-2.512C55.711,14.589,54.619,14.241,53.614,13.638z M12.341,18.005
		c-0.439-0.27-0.925-0.539-1.456-0.854c-0.547-0.324-1.269-0.838-1.807-0.652c-0.999,0.344-1.755,0.979-2.862,1.608
		c-0.407,0.23-0.869,0.381-1.406,0.703c-0.405,0.242-1.121,0.691-1.105,1.004c0.019,0.361,0.887,0.736,1.255,0.953
		c1.112,0.656,1.728,1.057,2.812,1.656c0.468,0.26,1.082,0.684,1.556,0.703c0.499,0.021,1.127-0.387,1.607-0.652
		c0.524-0.289,0.986-0.635,1.406-0.853c1.072-0.555,2.119-1.037,2.762-1.807C14.5,19.05,13.42,18.669,12.341,18.005z M30.316,20.917
		c0.386-0.213,1.217-0.531,1.205-0.953c-0.01-0.359-0.842-0.707-1.306-0.955c-1.137-0.607-1.853-1.064-2.862-1.656
		c-0.516-0.303-1.132-0.877-1.757-0.652c-0.921,0.328-1.808,0.961-2.711,1.455c-0.442,0.242-0.871,0.543-1.306,0.805
		c-0.426,0.256-1.027,0.469-1.155,0.953c0.779,0.729,1.776,1.17,2.711,1.707c0.914,0.523,1.814,1.217,2.912,1.506
		C27.672,22.593,28.866,21.72,30.316,20.917z M45.228,18.306c-0.435-0.27-0.887-0.549-1.406-0.853
		c-0.516-0.301-1.271-0.844-1.757-0.652c-0.855,0.338-1.676,0.963-2.611,1.506c-0.363,0.213-0.824,0.418-1.306,0.754
		c-0.335,0.234-1.15,0.65-1.155,0.953c-0.005,0.35,0.824,0.721,1.155,0.955c1.003,0.709,1.646,0.959,2.661,1.557
		c0.459,0.27,0.932,0.711,1.406,0.752c0.547,0.051,1.101-0.332,1.607-0.602c1.09-0.582,1.852-1.137,2.812-1.656
		c0.493-0.268,1.112-0.428,1.305-0.955C47.362,19.306,46.269,18.95,45.228,18.306z M63.103,21.019
		c0.361-0.217,1.23-0.588,1.205-1.006c-0.022-0.363-0.914-0.715-1.255-0.902c-1.022-0.561-1.839-1.066-2.711-1.608
		c-0.501-0.31-1.269-0.906-1.908-0.652c-0.964,0.383-1.708,0.953-2.711,1.506c-0.375,0.207-0.801,0.488-1.306,0.803
		c-0.407,0.254-1.2,0.57-1.205,0.904c-0.005,0.351,0.864,0.793,1.205,1.004c0.533,0.332,1.013,0.58,1.406,0.805
		c1.064,0.604,1.727,1.115,2.962,1.455C60.359,22.683,61.653,21.888,63.103,21.019z M2.349,22.074
		c-0.238,0.262-0.15,1.375-0.15,2.057c0,8.297-0.05,15.838-0.05,23.951c0,2.164,0,4.467,0,6.627c0,0.799-0.112,1.701,0.05,2.16
		c0.186,0.525,1.212,0.908,1.757,1.256c1.981,1.26,3.884,2.105,5.724,3.312c7.235,4.031,14.269,8.432,21.44,12.453
		c0.469,0.262,0.972,0.715,1.557,0.652c0.337-0.326,0.249-0.906,0.251-1.406c0.002-0.521,0-1.09,0-1.656
		c0-1.01,0.268-2.522-0.101-3.365c-0.262-0.6-1.432-1.002-2.008-1.355c-0.713-0.436-1.38-0.9-2.109-1.254
		c-0.716-0.4-1.35-0.85-2.109-1.256c-0.68-0.363-1.642-0.744-1.908-1.457c-0.203-0.541-0.186-1.51-0.151-2.258
		c0.078-1.65,0.018-2.949,0.05-4.469c0.018-0.834,0.143-1.834-0.101-2.361c-0.231-0.498-1.392-1.01-1.958-1.356
		c-1.459-0.889-2.764-1.633-4.268-2.461c-0.779-0.428-1.604-0.725-1.858-1.506c-0.337-1.033-0.141-3.154-0.101-4.318
		c0.051-1.479,0.18-3.07,0-4.316c-0.079-0.549-1.353-1.121-1.908-1.457c-1.392-0.842-2.797-1.598-4.117-2.41
		c-0.584-0.359-1.589-0.793-1.857-1.406c-0.24-0.547-0.151-1.398-0.151-2.158c0-1.678,0-2.994,0-4.619
		c0-0.719,0.149-1.695-0.05-2.26c-0.145-0.412-0.812-0.668-1.305-0.953c-1.528-0.885-2.869-1.82-4.419-2.512
		C2.44,21.997,2.386,22.025,2.349,22.074z M12.291,31.06c0.475-0.252,0.952-0.467,1.506-0.803c0.726-0.439,2.496-1.105,2.762-1.857
		c0.129-0.367,0.028-1.17,0.05-1.707c0.027-0.641,0.05-1.455,0.05-2.41c0-0.938,0.243-2.461-0.653-2.109
		c-0.856,0.336-1.692,0.988-2.711,1.557c-0.674,0.375-2.303,0.955-2.661,1.607c-0.24,0.436-0.202,1.611-0.201,2.209
		c0.001,0.762,0,1.606,0,2.41c0,0.635-0.064,1.371,0.301,1.857C11.42,31.749,11.815,31.312,12.291,31.06z M19.069,22.173
		c-0.405,1.312-0.148,3.588-0.151,5.021c-0.001,0.434-0.088,0.918,0.05,1.254c0.171,0.414,0.76,0.66,1.255,0.955
		c1.091,0.648,1.864,1.051,2.862,1.605c0.477,0.266,0.933,0.713,1.506,0.654c0.438-0.768,0.241-1.982,0.251-3.062
		c0.01-1.049,0.034-2.188-0.05-3.164c-0.659-0.74-1.681-1.207-2.611-1.758c-0.93-0.551-2.05-1.186-2.912-1.557
		C19.202,22.138,19.174,22.195,19.069,22.173z M28.81,31.009c0.446-0.242,0.89-0.43,1.456-0.752c0.54-0.307,2.503-1.191,2.711-1.758
		c0.267-0.729,0.05-2.277,0.05-3.213c0-0.898,0.293-3.277-0.553-2.912c-0.892,0.385-1.778,0.998-2.711,1.506
		c-0.923,0.504-1.961,0.951-2.561,1.707c-0.225,1.236-0.1,2.863-0.1,4.217c0,0.713-0.225,1.568,0.301,1.908
		C28.045,31.663,28.39,31.24,28.81,31.009z M35.437,22.423c-0.176,0.674-0.1,2.06-0.1,3.064c0,1.176-0.226,2.311,0.05,3.062
		c0.236,0.643,1.593,1.066,2.31,1.506c0.915,0.561,2.024,1.635,3.163,1.758c0.503-0.904,0.207-2.25,0.251-3.717
		c0.024-0.789,0.226-2.035-0.05-2.609c-0.211-0.439-0.938-0.598-1.506-0.904c-1.032-0.557-2.707-2.06-3.967-2.26
		C35.529,22.347,35.475,22.378,35.437,22.423z M51.605,22.474c-0.228,1.287-0.101,3.205-0.101,4.67c0,0.533-0.119,1.162,0,1.506
		c0.139,0.402,0.787,0.725,1.255,1.004c1.102,0.66,1.892,1.062,2.912,1.607c0.503,0.27,1.016,0.66,1.607,0.703
		c0.387-0.75,0.251-1.891,0.251-3.014c0-1.082,0.251-2.41-0.05-3.264c-0.147-0.416-0.792-0.641-1.306-0.953
		c-0.542-0.33-0.956-0.602-1.406-0.853c-0.846-0.473-2.079-1.35-3.013-1.557C51.684,22.351,51.634,22.402,51.605,22.474z
		 M37.446,73.587c1.875-1.143,3.815-2.123,5.674-3.262c1.227-0.752,2.525-1.4,3.766-2.16c5.529-3.383,11.333-6.43,17.021-9.74
		c0.639-0.373,1.561-0.762,1.757-1.256c0.357-0.895,0.101-2.988,0.101-4.367c0-1.592,0-3.121,0-4.469
		c0-7.979-0.141-16.355,0.05-24.051c0.014-0.549,0.1-1.885-0.301-1.908c-0.97,0.34-1.886,0.959-2.962,1.557
		c-0.398,0.221-0.849,0.545-1.356,0.854c-0.493,0.299-1.076,0.508-1.255,0.953c-0.313,0.781-0.111,2.119-0.151,3.062
		c-0.046,1.1,0.061,2.127,0.05,3.014c-0.008,0.678,0.031,2.154-0.201,2.711c-0.322,0.771-1.226,1.027-2.009,1.506
		c-0.812,0.496-1.547,0.865-2.159,1.205c-1.442,0.805-2.919,1.438-4.017,2.711c-0.029,2.047,0.019,4.518,0,6.479
		c-0.006,0.697,0.063,1.609-0.15,2.059c-0.346,0.727-1.143,1.07-1.858,1.506c-1.394,0.848-2.664,1.57-4.067,2.41
		c-0.61,0.365-1.725,0.83-1.908,1.356c-0.192,0.553-0.05,1.588-0.05,2.31c0,0.768-0.037,1.598-0.05,2.309
		c-0.025,1.383,0.408,3.332-0.15,4.52c-0.311,0.662-1.186,0.949-1.908,1.355c-1.485,0.836-2.767,1.637-4.117,2.459
		c-0.689,0.422-1.457,0.815-1.857,1.457c-0.053,1.035-0.08,2.146-0.101,3.213c-0.021,1.07-0.098,2.193,0.201,3.062
		C36.172,74.417,36.835,73.96,37.446,73.587z M48.643,22.574c-1.22,0.49-2.679,1.555-3.916,2.26c-0.484,0.277-1.07,0.52-1.205,0.904
		c-0.155,0.443-0.1,1.559-0.1,2.41c0,0.922-0.053,1.844-0.05,2.461c0.001,0.322,0.014,1.08,0.402,1.205
		c0.42,0.135,1.049-0.426,1.356-0.604c1.072-0.619,1.629-0.949,2.711-1.506c0.421-0.217,1.102-0.541,1.255-0.854
		c0.443-0.902,0.151-3.676,0.151-4.971c0-0.512,0.067-1.369-0.402-1.356c-0.044,0.002-0.091,0.049-0.1,0.049
		C48.715,22.577,48.669,22.564,48.643,22.574z M20.626,32.165c-1.046-0.221-2.137-1.699-3.163-1.355
		c-0.835,0.277-1.891,1.016-2.862,1.557c-1.011,0.561-2.111,1.07-2.661,1.756c0.64,0.783,1.613,1.195,2.611,1.758
		c0.406,0.228,0.852,0.523,1.355,0.803c0.447,0.248,1.143,0.664,1.557,0.654c0.41-0.012,1.136-0.475,1.557-0.703
		c0.548-0.299,1.053-0.617,1.456-0.854c1.048-0.617,2.123-0.977,2.762-1.859C22.612,33.091,21.382,32.865,20.626,32.165z
		 M39.505,34.074c-0.007-0.342-0.8-0.701-1.205-0.955c-0.99-0.621-1.811-0.99-2.762-1.557c-0.532-0.316-1.045-0.879-1.707-0.652
		c-0.948,0.326-1.885,1.016-2.762,1.506c-0.913,0.512-1.924,0.895-2.41,1.607c0.61,0.783,1.642,1.182,2.611,1.758
		c0.654,0.389,2.092,1.484,2.962,1.455c0.726-0.025,1.501-0.717,2.109-1.055c0.746-0.414,1.445-0.668,1.958-1.205
		C38.641,34.669,39.517,34.622,39.505,34.074z M48.593,31.865c-0.796,0.426-1.647,0.935-2.511,1.404
		c-0.394,0.215-1.115,0.555-1.104,0.904c0.01,0.328,0.823,0.762,1.155,0.953c1.114,0.645,1.803,0.924,2.762,1.557
		c0.367,0.244,0.875,0.711,1.456,0.703c0.49-0.006,1.077-0.426,1.506-0.652c1.031-0.545,1.725-0.975,2.762-1.557
		c0.38-0.213,1.203-0.639,1.205-0.953c0.002-0.353-0.733-0.658-1.255-0.955c-0.943-0.535-1.881-1.094-2.812-1.605
		c-0.529-0.293-1.144-0.684-1.657-0.604C49.479,31.156,49.108,31.587,48.593,31.865z M24.19,36.282
		c-1.018,0.402-1.695,1.004-2.862,1.605c-0.62,0.32-2.491,1.203-2.711,1.809c-0.29,0.797-0.047,2.141-0.05,2.961
		c-0.003,1.113-0.285,2.299,0.201,3.215c0.609,0.051,1.122-0.416,1.607-0.703c0.505-0.299,1.001-0.621,1.506-0.904
		c1.021-0.572,2.242-1.006,2.912-1.957c-0.072-1.25,0.046-2.812,0.05-4.168c0.002-0.678,0.121-1.461-0.251-1.908
		C24.395,36.22,24.288,36.243,24.19,36.282z M27.203,36.382c-0.245,0.178-0.15,0.963-0.15,1.506c0,1.201-0.039,2.174,0,3.215
		c0.021,0.551-0.054,1.215,0.1,1.555c0.17,0.377,0.789,0.609,1.255,0.904c1.051,0.666,1.812,1.074,2.812,1.607
		c0.473,0.252,0.932,0.697,1.506,0.602c0.385-1.096,0.301-2.539,0.301-4.016c0-0.672,0.117-1.631-0.05-2.109
		c-0.257-0.732-1.896-1.369-2.661-1.807c-1.051-0.604-2.099-1.287-2.963-1.557C27.294,36.306,27.24,36.335,27.203,36.382z
		 M36.944,45.22c0.427-0.238,0.85-0.561,1.356-0.854c0.665-0.387,2.406-1.053,2.711-1.709c0.235-0.504,0.101-1.824,0.101-2.66
		c0-0.959,0.013-1.934,0-2.66c-0.011-0.59-0.126-1.119-0.653-0.854c-0.909,0.457-1.744,0.916-2.712,1.506
		c-0.574,0.35-2.246,1.145-2.46,1.758c-0.266,0.758-0.05,2.217-0.05,3.113c0,0.516-0.035,1.06-0.05,1.555
		c-0.015,0.463-0.13,1.051,0.251,1.355C36.051,45.824,36.515,45.458,36.944,45.22z M49.195,43.913
		c0.017-0.693,0.103-1.445,0.1-2.107c-0.001-0.555,0.064-1.545-0.1-2.01c-0.164-0.461-0.732-0.738-1.255-1.055
		c-1.016-0.611-1.798-1.008-2.761-1.555c-0.529-0.301-1.175-0.887-1.657-0.604c-0.258,0.482-0.151,2.125-0.151,3.014
		c0,1.158-0.227,2.256,0.05,3.012c0.149,0.406,0.764,0.654,1.255,0.953c1.041,0.635,1.79,1.105,2.762,1.658
		c0.473,0.27,0.961,0.646,1.506,0.652C49.336,45.407,49.178,44.636,49.195,43.913z M28.76,46.474
		c-0.923-0.543-2.122-1.664-3.364-1.557c-1.372,0.809-2.734,1.516-4.168,2.361c-0.369,0.217-1.222,0.58-1.205,1.004
		c0.016,0.389,0.834,0.68,1.255,0.904c1.212,0.645,1.799,0.941,2.862,1.557c0.47,0.272,1.003,0.666,1.557,0.652
		c0.477-0.012,1.024-0.451,1.506-0.703c0.553-0.289,1.056-0.522,1.456-0.754c1-0.58,2.008-1.043,2.711-1.707
		C30.924,47.368,29.788,47.081,28.76,46.474z M43.772,45.722c-0.598-0.352-1.174-0.922-1.908-0.703
		c-1.319,0.736-2.629,1.395-3.916,2.26c-0.34,0.229-1.173,0.555-1.155,0.953c0.014,0.312,0.862,0.725,1.205,0.955
		c1.12,0.75,1.74,1.055,2.811,1.605c0.516,0.266,0.954,0.68,1.607,0.604c0.418-0.051,0.952-0.477,1.406-0.703
		c1.07-0.533,1.828-1.037,2.762-1.557c0.456-0.254,1.016-0.52,1.155-1.004C46.735,47.271,45.057,46.474,43.772,45.722z
		 M32.174,50.542c-0.924,0.465-1.731,0.912-2.761,1.506c-0.566,0.326-2.352,1.131-2.561,1.707c-0.199,0.549-0.054,1.473-0.05,2.008
		c0.004,0.703-0.052,1.527-0.05,2.311c0.002,0.699-0.067,1.508,0.301,2.059c1.119-0.256,1.982-1.035,2.912-1.557
		c0.961-0.539,2.009-0.908,2.762-1.707c0.196-1.387,0.204-3.279,0.201-4.871c-0.001-0.524,0.001-1.104-0.201-1.506
		C32.473,50.345,32.276,50.49,32.174,50.542z M35.287,50.542c-0.159,0.951-0.104,2.061-0.151,3.213
		c-0.042,1.045-0.268,2.398,0.101,3.162c0.156,0.324,0.761,0.674,1.055,0.855c0.429,0.264,0.877,0.438,1.305,0.652
		c0.426,0.424,1.013,0.732,1.557,1.055c0.537,0.316,1.111,0.736,1.757,0.752c0.336-0.338,0.305-0.971,0.301-1.506
		c-0.009-1.18,0.047-2.475,0.05-3.516c0.001-0.424,0.016-1.023-0.101-1.355c-0.154-0.438-0.882-0.787-1.255-1.004
		c-0.493-0.283-0.952-0.565-1.456-0.803C37.687,51.585,36.212,50.331,35.287,50.542z M35.488,59.88
		c-0.423-0.24-0.974-0.699-1.406-0.752c-0.654-0.08-1.325,0.521-1.808,0.803c-0.989,0.578-1.751,0.947-2.762,1.557
		c-0.376,0.227-1.167,0.658-1.155,1.004c0.014,0.383,0.859,0.682,1.255,0.904c1.117,0.625,1.729,0.998,2.812,1.606
		c0.489,0.275,0.957,0.684,1.506,0.703c0.554,0.02,1.082-0.385,1.556-0.652c0.533-0.299,1.028-0.512,1.456-0.752
		c0.47-0.264,0.87-0.631,1.306-0.904c0.454-0.287,1.074-0.469,1.205-1.004C38.497,61.437,36.824,60.64,35.488,59.88z"/>
</g>
<g id="Layer_1">
</g>
</svg>
