<?xml version="1.0" encoding="iso-8859-1"?>
<!-- Generator: Adobe Illustrator 19.2.0, SVG Export Plug-In . SVG Version: 6.00 Build 0)  -->
<svg version="1.1" xmlns="http://www.w3.org/2000/svg" xmlns:xlink="http://www.w3.org/1999/xlink" x="0px" y="0px"
	 viewBox="0 0 156.508 140.016" style="enable-background:new 0 0 156.508 140.016;" xml:space="preserve">
<g id="L_x27_Hotel_x5F_du_x5F_Lac">
	<path style="fill-rule:evenodd;clip-rule:evenodd;" d="M114.042,53.081c8.169-3.737,18.103-10.543,19.416-21.813
		c0.442-3.805-0.907-7.716-1.559-10.787c1.086,0.258,2.021,1.312,2.757,2.157c5.047,5.809,10.129,14.581,10.427,24.929
		c0.355,12.325-4.124,20.475-10.067,27.206c-1.332,1.508-2.739,3.124-4.555,3.835c1.742-3.968,5.469-7.146,5.034-13.423
		c-0.443-6.403-6.988-8.962-13.663-8.629c-7.562,0.377-15.093,3.927-20.255,7.551c-2.471,1.734-4.851,3.693-6.232,5.873
		c6.338-3.314,22.582-9.495,30.083-2.517c1.236,1.15,2.341,3.145,2.397,5.633c0.131,5.782-4.181,10.399-8.149,12.944
		c-4.414,2.83-10.114,4.077-15.94,5.034c-13.672,2.245-26.045-1.813-34.757-5.873c8.626,7.427,20.848,13.104,36.195,12.705
		c20.042-0.522,34.097-9.181,43.506-20.734c1.628-1.999,2.979-4.249,4.075-6.592c1.147-2.452,1.752-5.101,2.996-7.67
		c0.804,1.838,0.652,3.945,0.719,5.873c0.518,14.951-4.139,26.445-9.708,35.596c-4.794,7.877-10.969,14.731-18.457,20.375
		c-2.478,1.868-5.189,3.968-7.79,5.154c-9.689,4.418-19.094,8.43-32.36,8.989c-22.005,0.926-35.574-7.988-43.506-22.173
		c-3.729-6.668-5.948-14.67-5.394-24.689c0.406-7.326,2.994-13.127,6.113-17.978c3.127-4.862,6.957-9.023,12.225-11.865
		c0.068,1.043-0.989,1.666-1.558,2.277c-4.224,4.541-8.172,11.665-7.67,20.734c0.463,8.361,4.929,14.675,10.188,19.176
		c5.906,5.056,14.183,8.509,24.33,8.51c11.279,0,19.557-3.965,25.648-9.468c-7.079,1.834-15.095,2.21-22.532,0.958
		c-6.891-1.16-13.392-3.819-18.217-7.311c-7.174-5.19-14.876-16.279-9.708-28.524c2.789-6.609,7.3-10.721,13.783-13.783
		c-9.595-0.196-17.694,2.521-25.408,5.034c-2.852,0.929-6.653,3.608-8.989,5.393c-7.728,5.905-14.405,15.42-14.382,28.165
		c0.024,13.322,5.401,23.26,12.464,30.323c6.494,6.493,14.802,11.1,24.69,14.143c1.967,0.605,4.055,1.153,5.993,2.157
		c-2.964,0.236-5.917-0.567-8.629-1.199c-10.562-2.459-19.915-7.061-27.806-12.345c-11.117-7.444-19.651-17.863-25.289-30.802
		c-0.917-2.103-1.977-4.435-2.038-6.831c1.449,1.267,1.891,3.163,2.876,4.674c2.857,4.382,6.671,8.201,11.147,11.146
		c-2.843-6.82-7.995-12.933-7.551-23.131c0.188-4.326,2.011-8.785,3.955-12.345c9.686-17.73,35.168-22.475,62.563-19.296
		c-1.063-1.101-2.798-1.072-4.194-1.438c-4.461-1.17-8.574-2.491-12.345-4.554c-5.406-2.958-12.394-8.104-10.427-17.139
		c1.711-7.86,9.057-11.351,17.258-13.064c-9.171-1.714-19.1,0.809-23.731,5.753c-1.754,1.873-3.122,4.578-3.356,7.67
		c-0.756,9.972,8.381,13.725,15.101,17.139c-2.576,0.624-5.23-0.031-7.79-0.12C24.456,43.349,7.258,50.08,0.302,63.988
		c-0.72-1.543,0.03-3.356,0.36-4.914C2.998,48.023,7.058,39.6,12.647,31.628c1.521-2.17,3.247-4.337,5.274-5.873
		c-3.232,12.188,9.304,17.013,21.813,15.101c-2.061-1.37-4.648-1.894-6.832-3.116c-3.945-2.209-8.057-5.581-8.15-11.626
		c-0.122-7.973,6.489-12.65,12.584-15.101C51.325,5.389,72.22,8.538,83.359,14.37c6.219,3.254,11.604,7.063,15.102,12.464
		c-1.546-0.161-2.638-1.584-4.075-2.517c-6.034-3.913-18.069-6.933-24.09-1.079c-2.613,2.54-3.507,7.373-1.558,11.266
		c2.735,5.464,8.321,9.076,14.862,10.787c-2.593-2.839-7.357-5.559-6.353-12.105c0.702-4.574,6.619-7.167,12.225-6.352
		c6.76,0.983,13.618,5.743,15.102,12.944c1.675,8.134-1.648,14.574-5.153,20.135c3.921-1.397,7.117-4.217,9.947-7.191
		c3.431-3.604,6.36-7.967,6.951-14.023c0.431-4.409-0.918-8.681-2.396-11.985C106.292,9.665,81.7,0.903,56.153,4.541
		c-2.719,0.387-5.461,1.435-8.15,1.199c1.38-1.357,3.752-1.678,5.753-2.277c6.236-1.869,12.959-2.994,20.734-3.356
		C96.945-0.938,116.77,5.629,122.551,21.8c1.041,2.911,1.453,5.161,1.559,8.269C124.449,40.169,119.064,46.971,114.042,53.081z
		 M78.326,56.916c-5.093,2.279-10.923,8.337-7.91,15.94c5.607,14.155,36.271,17.554,47.7,6.831
		c-11.867,5.215-31.485,1.752-36.555-8.269c-0.423-0.837-0.789-1.805-0.959-2.637c-1.479-7.245,4.44-10.918,8.51-13.304
		C85.221,54.947,81.163,55.647,78.326,56.916z M100.498,118.161c-9.394,2.05-20.185,2.586-29.963,0.959
		c-9.323-1.552-17.248-4.749-24.33-8.629c3.602,7.463,10.548,12.092,18.577,15.341c8.081,3.27,18.115,5.225,29.364,4.314
		c5.961-0.482,11.993-2.257,16.898-4.314c14.606-6.125,26.242-17.15,29.603-34.038c-0.153-0.006-0.166-0.153-0.359-0.12
		C133.011,105.133,117.868,114.37,100.498,118.161z"/>
</g>
<g id="Layer_1">
</g>
</svg>
