<?xml version="1.0" encoding="iso-8859-1"?>
<!-- Generator: Adobe Illustrator 19.2.0, SVG Export Plug-In . SVG Version: 6.00 Build 0)  -->
<svg version="1.1" xmlns="http://www.w3.org/2000/svg" xmlns:xlink="http://www.w3.org/1999/xlink" x="0px" y="0px"
	 viewBox="0 0 71.096 79.912" style="enable-background:new 0 0 71.096 79.912;" xml:space="preserve">
<g id="liberia_x5F_a_x5F_zeta">
	<path style="fill-rule:evenodd;clip-rule:evenodd;" d="M54.76,0.055c2.312-0.536,2.033,3.006,0.152,2.732
		C53.549,2.588,53.287,0.413,54.76,0.055z"/>
	<path style="fill-rule:evenodd;clip-rule:evenodd;" d="M13.123,2.939c0.316,0.257,1.078,0.07,1.365,0.354
		c0.211,2.051,0.266,4.939,0,7.083c-0.965,0.254-2.875,0.238-3.844,0c-0.18-1.053-0.101-2.35-0.101-3.592
		c0-1.259-0.119-2.542,0.152-3.541c0.356-0.319,1.332-0.016,1.77-0.253c-0.498-0.565-1.047-0.794-1.012-1.669
		c0.07-1.659,2.668-1.667,2.783-0.051C14.301,2.173,13.647,2.512,13.123,2.939z"/>
	<path style="fill-rule:evenodd;clip-rule:evenodd;" d="M9.684,0.207c0.297,0.731,0.113,1.615,0.15,2.479
		C9.909,4.35,9.885,6.128,9.885,7.897c0,0.855,0.113,1.74-0.15,2.479c-1.094,0.256-2.691,0.179-3.795,0.051
		C5.67,9.033,5.787,7.194,5.787,5.266c0-0.804,0-1.657,0-2.63c0-0.69-0.143-2.238,0.254-2.429C6.078,0.159,6.133,0.13,6.194,0.105
		C7.33,0.165,8.711-0.018,9.684,0.207z"/>
	<path style="fill-rule:evenodd;clip-rule:evenodd;" d="M19.043,0.257c0.394,0.651-0.111,2.203,0.354,2.783
		c0.701,0.048,1.205-0.269,1.973-0.203c1.074,0.093,2.207,0.629,2.885,1.265c0.715,0.673,0.988,1.6,1.619,2.277
		c0.375-0.738-0.08-2.305,0.303-3.036c0.904-0.246,2.738-0.246,3.643,0c0.199,0.223,0.1,0.744,0.303,0.962
		c0.527-0.063,0.697-0.629,1.113-0.911c0.996-0.673,2.566-0.388,3.441,0.303c0.117,0.204-0.022,0.662,0.1,0.86
		c0.588-0.155,0.867-0.618,1.316-0.911c0.787-0.236,1.338-0.612,2.227-0.658c1.631-0.085,3.094,0.557,3.996,1.568
		c0.867,0.972,1.537,2.504,1.113,4.098c-0.742,0.25-1.807,0.152-2.834,0.152c-1,0-2.098-0.158-2.682,0.303
		c-0.094,0.836,0.736,0.749,0.861,1.366c-1.273,0.182-3.051,0.114-4.402,0.051c-0.658-0.713-0.65-2.047-0.707-3.238
		c-0.273-0.188-0.492,0.339-0.709,0.202c-0.617-0.105-0.783-0.488-1.467-0.405c-0.853,0.104-1.32,1.08-1.418,2.074
		c-0.043,0.453,0.111,0.953-0.201,1.315c-1.029,0.167-2.715,0.165-3.744,0c-0.17-0.218-0.135-0.641-0.252-0.911
		c-0.371,0.17-0.352,0.729-0.709,0.911c-2.94,0.168-6.672,0.146-9.713-0.05c-0.184-3.102-0.16-6.951,0-10.169
		C16.358,0.005,18.131,0.027,19.043,0.257z M37.762,6.683c0.217,0.452,1.65,0.439,1.871,0C39.684,5.492,37.717,5.516,37.762,6.683z
		 M21.016,6.531c-0.254-0.133-0.789-0.283-1.215-0.203c-0.854,0.162-0.598,2.262-0.404,3.086
		C21.657,10.335,22.594,7.356,21.016,6.531z"/>
	<path style="fill-rule:evenodd;clip-rule:evenodd;" d="M56.682,3.242c0.145,1.115,0.152,2.44,0.152,3.693
		c0,1.255,0.049,2.512-0.152,3.541c-1.039,0.167-2.754,0.167-3.795,0c-0.398-1.641,0.068-4.148-0.252-5.868
		c-0.533,0.213-0.608,0.836-0.859,1.416c-0.146,0.334-0.502,1.333-0.861,1.417c-0.453,0.105-0.984-0.36-1.365-0.354
		c-1.496,0.023-1.439,1.852-1.721,3.44c-1.103,0.054-2.672,0.146-3.693-0.051c-0.272-1.01-0.15-2.323-0.15-3.592
		c-0.002-1.258-0.066-2.564,0.15-3.592c0.963-0.188,2.449-0.111,3.492-0.051c0.344,0.162,0.189,0.821,0.455,1.063
		c0.961-0.416,1.119-1.428,2.58-1.316c0.322,0.025,0.607,0.148,0.91,0.253c0.281,0.098,0.656,0.31,0.859,0.304
		c0.299-0.01,0.537-0.385,0.861-0.456c0.475-0.104,1.137-0.047,1.668-0.05C55.553,3.036,56.2,3.036,56.682,3.242z"/>
	<path style="fill-rule:evenodd;clip-rule:evenodd;" d="M66.344,10.527c-1.248,0.2-2.629,0.078-3.895,0
		c-0.346-0.11-0.146-0.764-0.506-0.86c-0.777,0.016-0.949,0.636-1.467,0.911c-0.988-0.091-2.381,0.311-3.086-0.152
		c0.119-0.869,0.943-1.416,2.074-1.872c0.779-0.314,2.605-0.552,2.631-1.366c0.012-0.428-0.283-0.525-0.607-0.708
		c-1.084,0.035-1.791,0.405-2.478,0.81c-0.438,0.256-0.795,0.747-1.418,0.759c-0.215-0.322-0.188-0.9-0.201-1.416
		c-0.016-0.52-0.086-1.176,0.051-1.568c0.191-0.561,1.168-1.048,1.77-1.316c0.875-0.388,1.775-0.624,2.631-0.658
		c1.902-0.074,3.244,0.714,3.896,1.872c0.645,1.147,0.256,2.89,0.404,4.553C66.172,9.859,66.354,10.145,66.344,10.527z"/>
	<path style="fill-rule:evenodd;clip-rule:evenodd;" d="M43.479,9.87c0.066,0.153,0.066,0.404,0,0.557
		c-0.43,0.26-1.58,0.201-2.025,0C42.01,10.171,42.78,9.652,43.479,9.87z"/>
	<path style="fill-rule:evenodd;clip-rule:evenodd;" d="M48.891,11.033c0.379,0.637-0.059,1.841,0.203,2.529
		c0.484,0.494,1.861,0.094,2.529,0.405c0.408,0.443,0.332,1.913,0,2.377c-0.674,0.287-2.062-0.141-2.529,0.354
		c-0.057,1.206-0.451,3.261,0.557,3.693c0.869,0.27,1.492-0.344,2.074-0.354c0.379,0.032,0.291,0.875,0.15,1.113
		c-0.947,0.271-2.182,0.152-3.389,0.152c-1.176,0-2.404,0.08-3.389-0.102c-0.533-1.123,0.18-3.314-0.305-4.553
		c-0.24-0.265-0.881-0.13-1.164-0.354c-0.578-1.809,1.006-2.391,2.176-3.44c0.359-0.323,0.746-0.687,1.113-1.012
		C47.473,11.352,48.032,10.58,48.891,11.033z"/>
	<path style="fill-rule:evenodd;clip-rule:evenodd;" d="M19.903,21.101c-1.035,0.276-2.93,0.189-4.047,0.051
		c-0.201-0.238-0.084-0.792-0.404-0.911c-0.908-0.014-1.064,0.725-1.67,1.012c-0.99-0.09-2.363,0.205-3.035-0.203
		c0.228-1.373,1.553-1.882,2.934-2.276c0.682-0.194,1.916-0.458,1.922-1.113c0.014-1.241-2.738-0.305-3.035,0.102
		c-0.594,0.215-0.775,0.843-1.568,0.86c-0.387-0.805-0.072-2.009-0.15-3.086c1.072-1.124,2.564-1.887,4.451-1.973
		c2.277-0.104,4.135,1.189,4.352,3.288C19.784,18.155,19.377,20.013,19.903,21.101z"/>
	<path style="fill-rule:evenodd;clip-rule:evenodd;" d="M33.967,14.018c-0.479,1.123-1.129,2.111-1.772,3.086
		c-0.629,0.956-1.295,1.921-1.769,3.036c0.576,0.773,2.883-0.186,3.389,0.657c-0.027,0.674-0.707,0.452-1.162,0.456
		c-2.16,0.016-5.535,0.2-7.437-0.101c0.002-0.787,0.58-1.342,0.961-1.923c0.387-0.591,0.766-1.214,1.062-1.872
		c-0.441-0.802-2.289-0.078-3.137-0.557c-0.287-0.667-0.139-2.007-0.102-2.833c0.199-0.16,0.293-0.279,0.607-0.304
		c1.334-0.103,3.32,0,5.16,0c0.764,0,1.512,0.05,2.226,0.05C32.719,13.714,33.537,13.552,33.967,14.018z"/>
	<path style="fill-rule:evenodd;clip-rule:evenodd;" d="M43.578,19.279c-0.51,0.273-1.201,0.125-1.871,0.152
		c-0.666,0.026-1.375,0.074-2.023,0.101c-0.584,0.024-1.312-0.152-1.721,0.203c-0.082,0.844,0.877,0.907,0.912,1.467
		c-1.354,0.084-3.051,0.084-4.402,0c-0.643-0.647-0.684-1.973-0.608-2.984c0.207-2.718,2.285-4.855,5.514-4.553
		C41.993,13.907,44.061,16.184,43.578,19.279z M37.912,17.357c0.254,0.488,1.33,0.292,1.771,0.101
		C40.067,16.145,37.791,16.066,37.912,17.357z"/>
	<path style="fill-rule:evenodd;clip-rule:evenodd;" d="M61.387,21.202c-1.088,0.198-2.725,0.105-3.895,0.051
		c-0.234-0.222-0.121-0.791-0.457-0.911c-0.686-0.112-0.959,0.718-1.518,0.911c-0.311,0.107-0.713,0-1.062,0
		c-0.705,0-1.568,0.234-2.074-0.152c0.367-1.322,1.717-1.743,3.035-2.175c0.674-0.221,1.586-0.354,1.771-1.113
		c0.014-0.435-0.342-0.502-0.607-0.658c-1.045,0.005-1.842,0.401-2.529,0.809c-0.465,0.276-0.848,0.751-1.416,0.759
		c-0.248-0.267-0.188-0.863-0.203-1.416c-0.014-0.546-0.113-1.212,0-1.568c0.205-0.632,1.137-0.991,1.721-1.265
		c0.76-0.356,1.584-0.597,2.277-0.658c1.914-0.168,3.24,0.282,4.047,1.315C61.606,16.576,61.149,18.848,61.387,21.202z"/>
	<path style="fill-rule:evenodd;clip-rule:evenodd;" d="M21.623,16.042c2.184-0.329,2.248,3.251,0,2.985
		C20.088,18.845,19.889,16.303,21.623,16.042z"/>
	<path style="fill-rule:evenodd;clip-rule:evenodd;" d="M41.707,21.151c0.326-0.277,1.879-1.067,1.922-0.304
		C43.668,21.543,42.289,21.293,41.707,21.151z"/>
	<path style="fill-rule:evenodd;clip-rule:evenodd;" d="M71.049,79.786c-3.789,0.215-7.881,0.102-11.787,0.051
		c-0.297-0.868-0.227-1.743-0.354-2.58c-0.887-5.819-3.506-10.031-6.932-13.457c-1.938-1.939-4.145-3.491-6.879-4.806
		c-2.623-1.261-5.881-2.175-9.461-2.175c-7.301,0-12.797,2.931-16.594,6.728c-3.94,3.938-6.631,8.953-7.184,16.139
		c-3.82,0.165-8.08,0.185-11.84,0c-0.113-2.742,0.27-5.373,0.861-7.74c1.748-6.997,4.863-12.351,9.258-16.746
		c2.971-2.972,6.297-5.231,10.117-7.234c2.828-1.482,6.287-2.5,9.967-3.036c7.295-1.061,14.646,0.471,19.934,2.935
		c3.244,1.511,6.031,3.382,8.701,5.565c0.867,0.709,1.797,1.487,2.479,2.276c0.322,0.373,0.564,0.817,0.91,1.214
		c3.588,4.113,6.465,9.172,7.943,15.43C70.727,74.618,71.26,77.106,71.049,79.786z"/>
	<path style="fill-rule:evenodd;clip-rule:evenodd;" d="M47.424,79.735c-0.707,0.301-1.691,0.106-2.479,0.101
		c-6.139-0.038-12.674,0.095-18.871,0c-0.869-0.013-1.762,0.127-2.58-0.152c0.018-3.205,1.459-5.861,3.34-7.74
		c1.912-1.912,4.533-3.371,7.74-3.592c4.629-0.319,7.682,1.771,9.916,4.149C46.055,74.292,47.43,76.542,47.424,79.735z"/>
</g>
<g id="Layer_1">
</g>
</svg>
