<?xml version="1.0" encoding="iso-8859-1"?>
<!-- Generator: Adobe Illustrator 19.2.0, SVG Export Plug-In . SVG Version: 6.00 Build 0)  -->
<svg version="1.1" xmlns="http://www.w3.org/2000/svg" xmlns:xlink="http://www.w3.org/1999/xlink" x="0px" y="0px"
	 viewBox="0 0 77.716 78.296" style="enable-background:new 0 0 77.716 78.296;" xml:space="preserve">
<g id="Limburgse_x5F_Akademie_x5F_voor_x5F_Kunst">
	<path style="fill-rule:evenodd;clip-rule:evenodd;" d="M77.556,78.16c-6.484,0.178-12.959,0.098-19.406,0.098
		c-19.247,0.002-38.271,0.149-57.878-0.146c-0.255-0.741-0.146-1.578-0.146-2.395c0-5.761,0-11.461,0-17.305
		c0-9.769-0.049-19.411-0.049-29.673c0-6.723,0.002-12.629-0.049-19.455C0.011,7.006-0.045,3.608,0.076,1.072
		c0.043-0.894-0.016-0.89,0.488-0.977c1.348-0.235,3.135,0.048,4.645,0c1.562-0.05,3.157,0,4.546,0.049
		c3.169,0.108,6.345-0.093,9.386,0.048c6.271,0.291,12.778,0.001,18.674,0c8.969,0,18.57-0.048,28.059-0.048
		c2.258-0.001,4.608-0.027,6.99,0c0.781,0.009,1.549-0.056,2.2,0.048c1.2,0.193,2.393,1.318,2.541,2.592
		c0.174,1.493,0.001,3.199,0,4.79c0,3.212-0.012,6.356,0.049,9.435c0.092,4.62,0.001,9.224,0,13.98c0,9.509,0.002,19.24,0,28.646
		c0,3.151-0.068,6.287,0,9.386C77.722,72.085,77.783,75.156,77.556,78.16z M5.991,77.036c4.776,0,9.46,0.099,14.177,0.098
		c9.453-0.002,19.027-0.137,28.205-0.049c9.591,0.092,18.825-0.027,28.059-0.098c0.113,0.015,0.055-0.142,0.147-0.146
		c0.007-12.361,0.112-24.717,0-36.906c-0.1-10.865,0.002-21.518,0-32.605c0-2.997,0.57-5.971-2.15-6.159
		c-1.43-0.1-2.919-0.026-4.351,0c-4.521,0.081-8.613,0-13.198,0C48.032,1.169,38.48,1.22,29.65,1.219
		C20.261,1.218,10.357,1.071,1.348,1.17C1.093,1.868,1.201,2.656,1.201,3.369c0,24.73,0.043,48.767,0.098,73.423
		c0.055,0.011,0.076,0.054,0.098,0.098C2.907,77.154,4.46,77.036,5.991,77.036z"/>
	<path style="fill-rule:evenodd;clip-rule:evenodd;" d="M20.363,3.174c0.209,16.261,0.148,32.677,0.146,49.665
		c0,2.416,0.583,4.329,2.542,4.644c0.972,0.156,2.086,0.048,3.177,0.048c3.058,0.001,6.551,0,9.727,0
		c12.022,0.002,23.312-0.05,35.392-0.048c1.035,0,2.108-0.113,3.129,0.147c0.219,5.521,0.155,11.483,0,17.305
		c-0.345,0.234-0.826,0.181-1.223,0.195c-1.359,0.051-2.808,0-4.252,0c-5.459,0-10.89,0-16.621,0c-3.59,0-7.681-0.048-11.194,0.049
		c-1.958,0.054-3.641-0.047-4.985-0.685c-1.301-0.616-2.214-1.483-3.227-2.396c-7.448-7.64-15.201-14.976-22.535-22.73
		c-1.536-1.477-3.059-2.971-4.546-4.497c-1.001-0.902-1.892-1.844-2.444-3.227c-0.568-1.423-0.439-3.22-0.439-5.229
		c0-3.502,0.042-7.606,0-11.293c-0.071-6.118,0-12.983,0-19.357c0-0.876-0.101-2.402,0.146-2.688
		C3.191,3.03,3.245,3.002,3.303,2.979C8.986,3.022,14.686,2.918,20.363,3.174z"/>
	<path style="fill-rule:evenodd;clip-rule:evenodd;" d="M74.428,55.479c-8.616,0.069-16.833,0.098-25.518,0.098
		c-7.648,0.001-14.763,0.051-22.241,0.049c-2.054,0-3.54,0.072-4.058-1.368c-0.277-0.771-0.146-2.046-0.146-3.128
		c-0.001-12.071-0.05-23.616-0.049-35.392c0-4.376-0.106-8.62,0.146-12.563c2.713-0.178,5.722-0.099,8.652-0.098
		c2.96,0.001,5.894-0.107,8.457,0.098c0.265,1.414,0.146,2.878,0.146,4.351c0,10.208-0.067,21.18,0.098,30.846
		c1.308,0.269,2.719,0.096,4.107,0.098c4.139,0.006,8.617,0.065,12.954-0.05c0.282-0.63,0.146-1.391,0.146-2.102
		c0-5.079,0.062-10.734-0.098-16.033c-0.55-0.26-1.2-0.146-1.81-0.146c-3.162-0.001-6.575,0.055-9.679,0
		c-1.225-0.023-2.461,0.175-3.567-0.099c-0.182-4.875-0.099-9.938-0.099-14.909c0-0.665-0.11-1.388,0.146-2.004
		c8.44-0.171,17.818-0.098,26.251-0.098c0.708,0,1.745,0,2.786,0c1.48,0,2.635-0.113,3.178,0.685
		c0.403,0.593,0.293,1.844,0.293,3.03c-0.002,15.5,0.048,29.972,0.049,45.608C74.574,53.401,74.692,54.476,74.428,55.479z"/>
</g>
<g id="Layer_1">
</g>
</svg>
