<?xml version="1.0" encoding="iso-8859-1"?>
<!-- Generator: Adobe Illustrator 19.2.0, SVG Export Plug-In . SVG Version: 6.00 Build 0)  -->
<svg version="1.1" xmlns="http://www.w3.org/2000/svg" xmlns:xlink="http://www.w3.org/1999/xlink" x="0px" y="0px"
	 viewBox="0 0 79.501 78.084" style="enable-background:new 0 0 79.501 78.084;" xml:space="preserve">
<g id="linnepe">
	<path style="fill-rule:evenodd;clip-rule:evenodd;" d="M26.118,0.114c0.254,3.143,0.146,6.452,0.146,9.724
		c0,6.674,0,13.245,0,19.739c0.001,16.3,0.103,32.192-0.048,48.473c-0.445,0.177-0.71-0.37-0.924-0.583
		c-5.194-5.195-10.375-10.618-15.606-15.85c-1.105-1.105-2.102-2.299-3.16-3.452c-2.115-2.304-4.476-4.374-6.466-6.758
		c-0.034-12.625,0-25.872,0-38.652c0-3.216-0.049-6.382-0.049-9.627c0-1.025-0.077-2.07,0.194-3.063
		C8.69,0.024,17.614-0.08,26.118,0.114z"/>
	<path style="fill-rule:evenodd;clip-rule:evenodd;" d="M79.501,26.222c-0.085,0.787-0.949,1.211-1.458,1.75
		c-1.566,1.657-3.269,3.221-4.91,4.862c-7.576,7.577-15.377,15.085-22.997,22.705c-0.542,0.541-1.102,1.074-1.653,1.604
		c-0.567,0.547-1.04,1.095-1.556,1.702c-0.969,1.14-2.182,2.182-3.257,3.258c-4.329,4.329-8.813,8.569-13.176,12.932
		c-0.813,0.813-1.632,1.583-2.479,2.431c-0.228,0.228-0.473,0.704-0.924,0.583c-0.229-12.551-0.025-26.205-0.097-38.651
		c0.953-1.232,2.107-2.302,3.209-3.403c2.714-2.714,5.389-5.486,8.216-8.313c0.439-0.439,1.218-1.43,1.75-1.507
		c0.215-0.032,0.473-0.051,0.583-0.049C53.617,26.413,66.771,25.924,79.501,26.222z"/>
</g>
<g id="Layer_1">
</g>
</svg>
