<?xml version="1.0" encoding="iso-8859-1"?>
<!-- Generator: Adobe Illustrator 19.2.0, SVG Export Plug-In . SVG Version: 6.00 Build 0)  -->
<svg version="1.1" xmlns="http://www.w3.org/2000/svg" xmlns:xlink="http://www.w3.org/1999/xlink" x="0px" y="0px"
	 viewBox="0 0 70.349 70.811" style="enable-background:new 0 0 70.349 70.811;" xml:space="preserve">
<g id="little_x5F_brown">
	<path style="fill-rule:evenodd;clip-rule:evenodd;" d="M15.47,0.178c0.385,18.352-0.134,36.061,0.195,54.626
		c1.086,0.267,2.218,0.147,3.326,0.147c12.518,0,24.742,0.146,37.559,0.146c4.579,0,9.182-0.098,13.595,0.147
		c0.219,3.873,0.032,8.069,0.147,11.737c0.04,1.28,0.052,2.579-0.147,3.766C47.012,70.923,23.404,70.693,0.164,70.6
		c-0.022-0.043-0.043-0.087-0.098-0.098c-0.096-22.423-0.049-45.257-0.05-68.27c0-0.741-0.089-1.843,0.148-2.103
		C0.199,0.083,0.253,0.055,0.31,0.031c3.761,0,7.665-0.001,11.492,0C13.041,0.031,14.317-0.085,15.47,0.178z"/>
	<path style="fill-rule:evenodd;clip-rule:evenodd;" d="M70.145,0.325c0.234,6.128,0.147,13.358,0.147,20.197
		c0,0.99,0.154,2.143-0.05,2.983c-0.121,0.502-0.622,0.882-1.026,1.321c-0.334,0.361-1.027,0.925-1.027,1.32
		c0,0.461,0.7,0.919,1.027,1.272c0.37,0.399,0.941,0.922,1.026,1.37c0.159,0.821,0.05,1.903,0.05,2.934
		c0,6.608-0.061,14.183-0.099,20.686c-0.92,0.265-2,0.146-3.13,0.146c-14.071,0-28.404-0.1-42.497-0.098
		c-1.084,0-2.155,0.001-3.227-0.049c-1.031-0.048-2.08,0.147-3.081-0.098c-0.183-8.336-0.098-17.231-0.099-26.115
		c0-8.182,0.001-16.545,0-24.892c0-0.736-0.098-1.21,0.587-1.271c1.024-0.092,2.156,0.049,3.228,0.049
		c14.863-0.001,30.042,0.097,45.09,0.098C68.094,0.178,69.143,0.058,70.145,0.325z M46.72,15.534c-4.118,0-8.237-0.095-12.178,0.098
		c-0.164,0.584-0.15,1.761,0,2.347c5.858,0.159,11.496,0.147,17.264,0.147c0.765,0,1.576,0.114,2.299-0.147
		c0.159-0.563,0.159-1.736,0-2.298C51.744,15.435,49.24,15.534,46.72,15.534z M49.948,34.166c-5.137,0-10.63-0.056-15.258,0
		c-0.475,0.359-0.312,1.76-0.196,2.396c1.54,0.265,3.205,0.147,4.842,0.147c5.029,0,9.998,0.119,14.721-0.049
		c0.226-0.535,0.205-1.746,0.049-2.347C52.802,34.048,51.378,34.166,49.948,34.166z"/>
</g>
<g id="Layer_1">
</g>
</svg>
