<?xml version="1.0" encoding="iso-8859-1"?>
<!-- Generator: Adobe Illustrator 19.2.0, SVG Export Plug-In . SVG Version: 6.00 Build 0)  -->
<svg version="1.1" xmlns="http://www.w3.org/2000/svg" xmlns:xlink="http://www.w3.org/1999/xlink" x="0px" y="0px"
	 viewBox="0 0 86.769 71.315" style="enable-background:new 0 0 86.769 71.315;" xml:space="preserve">
<g id="Lodex">
	<path style="fill-rule:evenodd;clip-rule:evenodd;" d="M35.208,25.649c1.033,0.28,2.113,0.156,3.186,0.156
		c12.11,0.001,23.917,0.053,35.51,0.053c3.278,0,6.679,0.019,9.609-0.053c1.054-0.025,2.122-0.104,3.133,0.157
		c0.191,3.827,0.104,7.675,0.104,11.488c0.001,9.751-0.053,18.315-0.052,28.199c0,1.878,0.101,3.736-0.104,5.535
		c-2.715,0.162-6.115,0.183-8.825,0c-0.317-11.388,0.106-23.928-0.209-35.51c-0.816-0.28-1.7-0.157-2.56-0.157
		c-13.196,0.001-27.036-0.065-39.792,0.053c-0.282,1.417-0.157,2.903-0.157,4.387c0,10.351,0.063,21.499-0.104,31.176
		c-2.615,0.173-5.95,0.174-8.564,0c-0.284-1.552-0.157-3.207-0.157-4.856c-0.001-11.618,0.053-22.964,0.052-34.519
		c0-3.367,0.025-6.604-0.365-9.504c-0.391-2.902-1.26-5.25-2.611-7.311c-1.862-2.839-4.703-5.291-8.774-6.162
		c-2.396-0.514-5.126-0.091-5.587,2.193c0.017,3.004,2.449,4.721,5.536,4.387c1.76-0.191,3.883-1.453,5.796-0.575
		c1.509,0.693,2.188,2.472,1.566,4.491c-0.456,1.482-1.854,2.838-3.029,3.446c-2.467,1.278-6.068,1.625-9.034,0.94
		c-4.354-1.005-6.878-3.784-8.668-7.415c-0.594-1.206-1.046-2.61-1.097-4.231C-0.098,8.53,0.608,5.792,2.465,3.769
		C4.197,1.883,6.644,0.761,9.672,0.27c3.204-0.519,6.745-0.143,9.348,0.836c4.47,1.68,7.853,4.56,10.288,8.46
		c0.258,0.414,0.642,1.446,1.201,1.462c0.714,0.019,1.348-1.487,1.723-1.984c0.585-0.773,1.168-1.327,1.724-1.984
		c3.762-3.637,8.127-6.846,15.196-7.05c3.995-0.115,7.365,0.9,9.609,2.767c2.117,1.763,3.475,4.92,3.185,8.93
		c-0.086,1.188-0.402,2.211-0.836,3.238c-0.404,0.959-0.803,1.987-1.305,2.768c-0.746,1.157-1.969,2.226-3.186,3.081
		c-1.216,0.854-2.657,1.546-4.125,2.089c-3.033,1.121-7.667,1.293-10.444-0.261c-1.751-0.982-3.875-4.134-2.037-6.633
		c0.784-1.064,2.168-1.642,3.812-1.566c1.474,0.067,3.142,0.578,4.96,0.261c0.868-0.15,1.736-0.62,2.35-1.201
		c0.541-0.511,1.22-1.218,1.306-2.192c0.079-0.9-0.342-1.67-0.888-2.037c-1.835-1.236-5.147-0.195-6.945,0.47
		c-4.409,1.632-6.851,4.123-8.355,8.669C35.566,20.466,35.084,23.205,35.208,25.649z"/>
</g>
<g id="Layer_1">
</g>
</svg>
