<?xml version="1.0" encoding="iso-8859-1"?>
<!-- Generator: Adobe Illustrator 19.2.0, SVG Export Plug-In . SVG Version: 6.00 Build 0)  -->
<svg version="1.1" xmlns="http://www.w3.org/2000/svg" xmlns:xlink="http://www.w3.org/1999/xlink" x="0px" y="0px"
	 viewBox="0 0 84.331 70.713" style="enable-background:new 0 0 84.331 70.713;" xml:space="preserve">
<g id="london_x5F_rubber_x5F_industries">
	<path style="fill-rule:evenodd;clip-rule:evenodd;" d="M67.147,53.096c-2.82,2.993-5.787,5.839-8.643,8.796
		c-2.615,2.517-4.963,5.015-7.62,7.672C50.448,70,50.1,70.577,49.503,70.637c-1.959,0.197-4.092-0.051-6.188-0.051
		c-13.47-0.002-26.685,0.048-40.146,0.051c-0.971,0.001-1.977,0.126-2.915-0.153C0.017,53.148,0.049,35.156,0.049,17.449
		c0-4.378-0.023-8.7,0-12.938c0.007-1.415-0.168-2.855,0.102-4.245c6.432-0.486,13.332,0.158,20.048-0.153
		c4.713-0.219,10.011-0.051,14.882-0.051c3.704,0,7.078,0.051,10.791,0.051c1.161,0,2.643-0.216,3.682,0.051
		c0.578,0.149,1.242,1.043,1.739,1.586c1.559,1.702,3.393,3.393,4.91,4.909c6.626,6.626,12.918,13.052,19.536,19.792
		c2.45,2.583,5.145,4.963,7.671,7.672c0.252,0.27,0.907,1.012,0.92,1.228c0.02,0.3-0.607,0.944-0.92,1.278
		c-2.452,2.615-5.146,5.198-7.62,7.671C72.85,47.239,69.973,50.424,67.147,53.096z M24.904,21.388
		c-0.496-0.516-1.585-1.586-2.148-1.893c-0.074,0.028-0.125,0.079-0.153,0.153c0.026,10.386-0.119,21.27,0.102,31.657
		c0.496,0.065,0.737-0.555,1.074-0.818c5.089-4.951,9.925-10.156,15.138-14.984c2.384,2.27,4.628,4.68,6.956,7.006
		c2.327,2.327,4.649,4.659,7.006,6.956c0.667,0.596,1.195,1.599,2.046,1.841c0.276-2.009,0.153-4.088,0.153-6.137
		c0-8.694,0.045-17.004-0.153-25.674c-0.475,0.113-0.808,0.552-1.126,0.869c-5,4.999-9.938,10.026-14.934,14.985
		C34.297,30.754,29.452,26.121,24.904,21.388z"/>
</g>
<g id="Layer_1">
</g>
</svg>
