<svg id="Layer_1" data-name="Layer 1" xmlns="http://www.w3.org/2000/svg" viewBox="0 0 191.95 44.47"><title>Fish_Kitchen_logo</title><path d="M341.57,398c-13.87,0-16.18,1.28-16.18,3.14s4.46,8.48,4.46,16.11c0,0,4.07-5.16,9.15-5.16s9.91,2.65,20.49,2.65c14.57,0,24.16-3.43,24.16-3.43s7.86,2.41,9.25,13c0,0,82.77.46,115.38-17.95,0,0-16.13-8.4-59.26-8.4Zm146.84,5.41a1.81,1.81,0,1,1-1.8,1.81A1.81,1.81,0,0,1,488.4,403.37Z" transform="translate(-325.38 -379.84)"/><circle cx="190.06" cy="13.16" r="1.9"/><circle cx="188" cy="2.63" r="2.63"/><circle cx="188" cy="22.89" r="1.81"/></svg>