<?xml version="1.0" encoding="iso-8859-1"?>
<!-- Generator: Adobe Illustrator 19.2.0, SVG Export Plug-In . SVG Version: 6.00 Build 0)  -->
<svg version="1.1" xmlns="http://www.w3.org/2000/svg" xmlns:xlink="http://www.w3.org/1999/xlink" x="0px" y="0px"
	 viewBox="0 0 82.264 49.489" style="enable-background:new 0 0 82.264 49.489;" xml:space="preserve">
<g id="Lorenz_x5F_Watches">
	<path style="fill-rule:evenodd;clip-rule:evenodd;" d="M46.614,0.191c0.297,2.08-0.095,4.849,0.202,6.93
		c0.762,0.28,1.611,0.202,2.428,0.202c2.552,0,5.167,0,7.841,0c1.682,0,3.449-0.068,5.159,0c1.66,0.066,3.738-0.177,5.109,0.152
		c1.655,0.397,3.012,1.917,3.237,3.693c0.195,1.534-0.001,3.414,0,5.21c0,1.773-0.082,3.562,0.101,5.21
		c1.725,0.273,3.731,0.152,5.716,0.152c1.954,0,3.953-0.082,5.716,0.101c0.188,2.102,0.17,4.494,0.051,6.576
		c-3.629,0.307-7.746-0.101-11.432,0.202c-0.261,0.795-0.151,1.7-0.151,2.58c0,0.884-0.051,1.774-0.051,2.681
		c0,1.882,0.198,3.865,0,5.463c-0.199,1.606-1.794,3.241-3.389,3.44c-1.553,0.193-3.333,0-5.058,0
		c-4.918,0-10.322-0.083-15.074,0.101c-0.269,0.926-0.16,2.124-0.152,3.187c0.008,1.128-0.018,2.271-0.151,3.288
		c-1.717,0.212-3.793,0.101-5.817,0.102c-2.023,0-4.063,0.088-5.716-0.152c-0.264-1.928,0.028-4.412-0.152-6.424
		c-0.73-0.289-1.56-0.215-2.377-0.202c-3.889,0.059-8.385,0-12.545,0c-2.128,0-4.794,0.295-6.171-0.405
		c-0.789-0.401-1.378-0.962-1.821-1.72c-0.845-1.447-0.607-3.646-0.607-5.868c0-2.152,0.094-4.378-0.101-6.222
		c-3.471-0.356-7.695,0.04-11.23-0.253c-0.27-0.948-0.152-2.183-0.152-3.389c0-1.175-0.079-2.403,0.101-3.389
		c3.661-0.279,7.635,0.129,11.229-0.152c0.167-1.748,0.152-3.584,0.152-5.614c0-1.92-0.273-4.136,0.202-5.615
		c0.429-1.336,1.582-2.5,2.985-2.782c1.527-0.307,3.526-0.05,5.21-0.05c5.145,0,10.378,0.109,15.175-0.05
		c0.243-1.02,0.196-2.29,0.152-3.49c-0.044-1.214-0.016-2.47,0.152-3.541C38.796-0.066,43.15-0.042,46.614,0.191z M25.014,14.102
		c-0.486-0.005-1.024-0.129-1.416-0.051c-0.753,0.149-0.498,1.461-0.506,2.529c-0.048,6.038-0.143,13.098,0.051,19.07
		c2.876,0.268,5.847,0.151,8.852,0.152c6.04,0,12.13,0.05,18.059,0.05c1.507,0,3.014-0.067,4.502,0
		c1.42,0.064,2.881,0.171,4.249-0.101c0.166-2.148,0.169-4.985,0-7.132c-5.908-0.148-11.985-0.152-17.806-0.152
		c-2.111,0-4.078,0.061-5.716-0.152c-0.299-4.798,0.104-9.532-0.152-14.113C31.919,13.992,28.328,14.136,25.014,14.102z
		 M46.917,14.203c-0.327,0.427-0.202,1.066-0.202,1.669c0,1.88-0.082,4.028,0.101,5.665c3.834,0.224,8.134,0.207,11.988,0.05
		c0.131-2.214,0.316-5.176,0-7.335C55.128,14.095,50.889,14.127,46.917,14.203z"/>
</g>
<g id="Layer_1">
</g>
</svg>
