<?xml version="1.0" encoding="iso-8859-1"?>
<!-- Generator: Adobe Illustrator 19.2.0, SVG Export Plug-In . SVG Version: 6.00 Build 0)  -->
<svg version="1.1" xmlns="http://www.w3.org/2000/svg" xmlns:xlink="http://www.w3.org/1999/xlink" x="0px" y="0px"
	 viewBox="0 0 83.014 83.59" style="enable-background:new 0 0 83.014 83.59;" xml:space="preserve">
<g id="Luc_x5F_Dugardyn">
	<path style="fill-rule:evenodd;clip-rule:evenodd;" d="M82.792,0.25c0.139,4.888,0.32,10.498,0,15.332
		c-7.329,0.172-14.886,0.103-21.962,0.104c-2.082,0.001-3.66,0.022-4.921,0.622c-2.449,1.165-3.938,3.513-4.454,6.63
		c-0.257,1.551-0.034,3.303-0.104,5.335c-0.118,3.401,0,7.093,0,10.774c0,5.514,0.089,11.089,0.052,16.575
		c-0.013,1.864-0.107,3.747,0,5.438c0.213,3.352,2.169,5.303,4.455,6.578c1.536,0.676,3.656,0.519,5.802,0.519
		c2.121,0,4.355,0.083,6.215-0.104c0.301-2.527,0.083-5.16,0.155-7.769c0.148-5.308-0.052-10.445-0.052-15.644
		c0-1.327,0-2.665,0-3.988c0-1.282-0.125-2.591,0.156-3.833c4.739-0.089,9.844-0.162,14.71,0.052
		c0.239,14.993,0.178,31.243,0.104,46.566c-3.26,0.266-6.615,0.104-9.997,0.104c-23.704-0.002-49.269,0.084-72.724,0
		c-0.26-3.214-0.088-6.553-0.155-9.945c-0.136-6.877,0-14.039,0-21.134c0-5.321-0.052-10.38-0.052-15.642
		c0-12.155-0.086-24.444,0.104-36.517c1.006-0.276,2.088-0.156,3.108-0.156c3.167,0,6.385-0.053,9.583-0.052
		c4.212,0.002,8.474,0.195,12.69,0c4.565-0.212,9.762-0.001,14.503,0C54.171,0.099,68.689,0.106,82.792,0.25z M19.755,68.105
		c1.458,0,2.877,0,4.455,0c3.079,0,6.084,0.264,8.08-0.881c1.828-1.048,3.076-2.813,3.678-5.231c0.603-2.427,0.363-5.59,0.363-8.599
		c0-8.827-0.052-17.705-0.052-26.676c0-1.549,0.079-3.037-0.104-4.351c-0.193-1.391-0.522-2.453-1.139-3.367
		c-1.154-1.71-2.835-3.09-5.439-3.315c-1.318-0.113-2.794-0.051-4.351-0.051c-3.414-0.001-6.305-0.011-9.686,0.155
		c-0.278,1.007-0.155,2.073-0.155,3.107c0,12.169,0.052,23.999,0.052,36.154c0,4.358-0.122,8.812,0.155,12.95
		C17.104,68.284,18.456,68.105,19.755,68.105z"/>
</g>
<g id="Layer_1">
</g>
</svg>
