<?xml version="1.0" encoding="iso-8859-1"?>
<!-- Generator: Adobe Illustrator 19.2.0, SVG Export Plug-In . SVG Version: 6.00 Build 0)  -->
<svg version="1.1" xmlns="http://www.w3.org/2000/svg" xmlns:xlink="http://www.w3.org/1999/xlink" x="0px" y="0px"
	 viewBox="0 0 82.223 32.606" style="enable-background:new 0 0 82.223 32.606;" xml:space="preserve">
<g id="Lucas_x5F_Industries">
	<path style="fill-rule:evenodd;clip-rule:evenodd;" d="M81.928,0c0.033,0,0.065,0,0.098,0c0.264,0.827,0.146,1.722,0.146,2.591
		c0,1.798,0,3.581,0,5.475c0,0.893,0.144,1.91-0.049,2.689c-0.12,0.489-0.792,1.027-1.222,1.466
		c-0.997,1.018-1.683,1.707-2.64,2.738c-0.384,0.413-0.924,1.13-1.418,1.27c-0.765,0.219-1.846,0.049-2.737,0.049
		c-0.931,0-1.826,0.078-2.64-0.098c-0.25-0.781-0.146-1.732-0.146-2.688c0-0.879-0.172-2.01,0.049-2.786
		c0.127-0.449,0.798-0.994,1.222-1.418c1.315-1.314,2.623-2.752,3.911-3.959c0.92-0.863,1.815-1.747,2.64-2.64
		C80.031,1.724,81.066,0.814,81.928,0z"/>
	<path style="fill-rule:evenodd;clip-rule:evenodd;" d="M26.201,0.538c0.032,0,0.064,0,0.098,0
		c0.335,3.224,0.054,7.114,0.146,10.607c-0.748,0.964-1.653,1.768-2.493,2.64c-0.827,0.859-1.621,1.778-2.59,2.493
		c-1.611,0.028-3.779,0.194-5.23-0.098c-0.217-1.694,0.01-3.42-0.099-5.182c0.659-1.022,1.618-1.783,2.493-2.64
		c0.852-0.835,1.595-1.79,2.444-2.64c1.257-1.256,2.526-2.526,3.812-3.813C25.253,1.437,25.693,0.919,26.201,0.538z"/>
	<path style="fill-rule:evenodd;clip-rule:evenodd;" d="M59.539,5.671c-0.214,0.603-0.749,1.033-1.173,1.466
		c-2.973,3.034-6.051,6.146-9.142,9.142c-1.51,0.064-3.667,0.094-5.328,0c-0.251-0.707-0.142-1.607-0.146-2.493
		c-0.005-0.859-0.154-1.885,0.049-2.64c0.125-0.461,0.769-1.016,1.223-1.516c0.914-1.006,1.677-1.726,2.688-2.737
		c0.458-0.458,1.021-1.093,1.466-1.222c0.998-0.29,2.552-0.002,3.569-0.049C54.99,5.518,57.44,5.519,59.539,5.671z"/>
	<path style="fill-rule:evenodd;clip-rule:evenodd;" d="M68.094,13.932c0.039,0.01,0.049,0.05,0.098,0.049
		c0.284,1.509-0.088,3.673,0.196,5.182c1.479,0.369,3.669-0.023,5.132,0.245c-0.221,0.667-0.932,1.225-1.466,1.76
		c-3.555,3.554-7.211,7.211-10.804,10.803c-0.245,0.245-0.523,0.659-0.929,0.636c-0.141-3.228,0-7.164-0.049-10.755
		c1.015-1.377,2.42-2.615,3.764-3.959c0.609-0.609,1.259-1.308,1.907-1.956C66.638,15.241,67.42,14.422,68.094,13.932z"/>
	<path style="fill-rule:evenodd;clip-rule:evenodd;" d="M12.856,14.128c0.389,0.504,0.244,1.568,0.244,2.443
		c0,0.913-0.039,1.84,0.049,2.591c1.495,0.403,3.573-0.041,5.084,0.294c-0.397,0.891-1.242,1.332-1.857,2.004
		c-0.566,0.704-1.258,1.284-1.857,1.955c-1.259,1.284-2.519,2.566-3.862,3.764C7.224,27.117,3.358,27.311,0,27.13
		c0.31-0.709,0.925-1.218,1.466-1.76c2.622-2.621,5.344-5.294,8.018-7.968c1.112-1.112,2.156-2.32,3.324-3.274
		C12.823,14.128,12.84,14.128,12.856,14.128z"/>
	<path style="fill-rule:evenodd;clip-rule:evenodd;" d="M40.475,14.323c0.016,0.003,0.034-0.004,0.049,0
		c0.456,0.101,0.245,1.728,0.245,2.396c0,1.067-0.065,1.943,0.098,2.541c1.462,0.351,3.458-0.111,4.985,0.196
		c0.004,0.432-0.559,0.708-0.83,1.026c-2.244,2.236-4.393,4.57-6.697,6.746c-3.359,0.048-7.184,0.146-10.461-0.05
		c0.226-0.724,0.909-1.153,1.418-1.661C32.959,21.84,36.729,17.99,40.475,14.323z"/>
</g>
<g id="Layer_1">
</g>
</svg>
