<?xml version="1.0" encoding="iso-8859-1"?>
<!-- Generator: Adobe Illustrator 19.2.0, SVG Export Plug-In . SVG Version: 6.00 Build 0)  -->
<svg version="1.1" xmlns="http://www.w3.org/2000/svg" xmlns:xlink="http://www.w3.org/1999/xlink" x="0px" y="0px"
	 viewBox="0 0 80.708 80.651" style="enable-background:new 0 0 80.708 80.651;" xml:space="preserve">
<g id="luottokontrolli_x5F_oy">
	<path style="fill-rule:evenodd;clip-rule:evenodd;" d="M46.178,80.645c-0.393-0.492-0.385-1.285-0.5-2.048
		c-0.226-1.502-0.278-2.843-0.549-4.547c-0.095-0.592-0.367-1.813-0.15-2.199c0.207-0.367,1.327-0.564,1.999-0.7
		c5.198-1.051,9.39-3.317,12.842-6.046c4.116-3.253,7.11-7.032,9.345-12.243c2.072-4.833,3.26-11.864,1.799-18.489
		c-1.303-5.908-3.822-10.531-7.195-14.391c-2.27-2.467-4.853-4.747-7.945-6.446c-1.574-0.865-3.247-1.518-5.048-2.149
		c-1.725-0.604-3.517-1.453-5.496-1.549c-0.341,0.811-0.2,1.745-0.2,2.598c-0.001,13.483-0.086,27.877,0.101,41.275
		c1.439-0.079,2.402-1.06,3.498-1.649c0.93-0.818,1.862-1.635,2.648-2.599c1.419-1.871,2.806-4.406,3.098-7.396
		c0.464-4.754-1.486-8.257-3.498-10.693c-0.66-0.905-1.643-1.489-2.248-2.448c0.648-1.321,1.674-2.412,2.498-3.598
		c0.417-0.6,0.8-1.214,1.249-1.799c0.424-0.551,0.831-1.188,1.449-1.549c1.043,0.457,1.842,1.292,2.599,2.048
		c3.809,3.81,6.688,8.927,6.996,16.24c0.114,2.738-0.45,5.506-1.25,7.895c-1.517,4.534-4.369,8.07-7.795,10.794
		c-3.483,2.769-7.944,4.632-13.642,4.897c-2.839,0.132-5.706-0.51-7.945-1.349c-6.726-2.522-11.588-7.165-14.092-13.742
		c-1.043-2.74-1.732-6.209-1.449-9.994c0.466-6.225,3.105-10.774,6.496-14.391c0.307-0.326,0.69-0.748,1.149-1.149
		c0.363-0.318,1.04-0.949,1.35-0.95c0.582-0.001,1.229,1.137,1.549,1.549c0.509,0.654,0.918,1.159,1.35,1.749
		c0.62,0.725,1.327,1.686,2.048,2.598c0.215,0.272,0.602,0.588,0.601,0.899c-0.004,0.535-1.405,1.598-1.75,1.949
		c-1.809,1.847-3.144,4.375-3.647,7.446c-0.791,4.831,1.049,8.534,3.248,11.193c0.744,0.906,1.629,1.688,2.599,2.349
		c0.942,0.641,1.886,1.474,3.198,1.699c0.271-0.845,0.149-1.764,0.149-2.648c0-0.915,0.093-1.834,0.051-2.748
		c-0.083-1.771-0.136-3.605-0.051-5.397c0.173-3.615,0.05-7.316,0.051-10.993c0-5.517-0.001-11.017,0-16.64
		c0-1.812,0.121-3.629-0.15-5.396c-1.025-0.127-2.012,0.278-2.948,0.499c-2.755,0.65-5.459,1.816-7.695,3.098
		c-3.04,1.743-5.701,3.989-7.945,6.446c-3.316,3.745-6.019,8.531-7.245,14.391c-0.668,3.19-0.765,6.74-0.4,10.044
		c0.344,3.116,1.312,5.993,2.349,8.445c3.661,8.658,10.499,14.994,20.038,17.789c0.697,0.205,1.424,0.357,2.148,0.55
		c0.667,0.177,1.443,0.204,2.049,0.65c-0.077,2.242-0.549,4.557-0.899,6.796c-0.109,0.703-0.097,1.482-0.5,2.048
		c-1.395-0.027-2.711-0.43-3.997-0.749c-3.803-0.944-7.192-2.412-10.193-4.197c-4.012-2.386-7.514-5.241-10.494-8.695
		c-2.891-3.35-5.478-7.266-7.146-12.042c-1.686-4.831-2.938-10.247-2.599-16.39C0.71,26.757,5.523,18.26,11.849,11.937
		c5.644-5.64,12.517-9.736,22.137-11.443c1.423-0.252,2.986-0.376,4.547-0.45c6.725-0.317,12.035,1.121,16.74,2.948
		c4.729,1.837,8.639,4.506,12.043,7.645c6.673,6.123,11.991,14.525,13.191,26.184c0.658,6.387-0.367,12.395-2.099,17.189
		c-1.749,4.843-4.057,9.113-7.046,12.592c-5.285,6.059-12.013,11.052-21.087,13.342C48.983,80.272,47.607,80.708,46.178,80.645z"/>
</g>
<g id="Layer_1">
</g>
</svg>
