<?xml version="1.0" encoding="iso-8859-1"?>
<!-- Generator: Adobe Illustrator 19.2.0, SVG Export Plug-In . SVG Version: 6.00 Build 0)  -->
<svg version="1.1" xmlns="http://www.w3.org/2000/svg" xmlns:xlink="http://www.w3.org/1999/xlink" x="0px" y="0px"
	 viewBox="0 0 79.023 82.099" style="enable-background:new 0 0 79.023 82.099;" xml:space="preserve">
<g id="lykes_x5F_pasco">
	<path style="fill-rule:evenodd;clip-rule:evenodd;" d="M39.037,0.072c-0.007,0,0.019-0.049,0.05-0.05
		c3.235-0.152,6.24,0.494,8.997,1.1c8.255,1.814,14.291,5.993,19.243,10.946c3.346,3.346,6.109,7.264,8.197,11.945
		c2.084,4.673,3.526,10.24,3.498,16.645c-0.014,3.364-0.268,6.452-0.85,9.247c-0.57,2.74-1.406,5.279-2.399,7.647
		c-1.956,4.663-4.669,8.817-7.997,12.146c-6.663,6.663-15.115,12.167-27.84,12.396c-6.236,0.112-11.772-1.679-16.394-3.648
		c-2.291-0.976-4.503-2.242-6.398-3.699c-5.728-4.4-10.59-9.454-13.645-16.544C1.482,53.522,0,48.045,0,41.559
		c0-6.647,1.122-12.086,3.199-16.845c3.087-7.073,7.556-12.443,13.295-16.944c3.731-2.926,8.242-5.065,13.545-6.547
		c1.248-0.35,2.768-0.62,4.248-0.801C35.851,0.233,37.459,0.148,39.037,0.072z M33.488,3.272c-1.396,0.252-2.732,0.458-3.898,0.8
		c-7.428,2.177-12.644,6.344-17.294,10.996c-1.551,1.552-2.809,3.524-3.999,5.398c-2.438,3.84-4.374,8.261-5.298,13.595
		c-0.467,2.697-0.78,5.801-0.55,8.797c0.456,5.92,1.766,10.676,3.799,15.045c3.958,8.507,10.444,14.741,19.143,18.544
		c4.4,1.923,9.669,3.21,15.795,2.999c5.652-0.195,10.736-1.807,14.845-3.999c6.189-3.303,11.157-7.749,14.645-13.595
		c1.178-1.976,2.3-4.055,3.148-6.299c1.719-4.545,3.013-9.888,2.749-16.144c-0.488-11.57-5.523-20.017-11.596-26.091
		c-3.148-3.15-6.727-5.638-11.246-7.598c-4.292-1.861-9.991-3.361-15.944-2.949C36.414,2.866,34.889,3.019,33.488,3.272z"/>
	<path style="fill-rule:evenodd;clip-rule:evenodd;" d="M29.49,62.351c-0.229-8.396-0.15-17.118-0.15-26.041
		c0-1.19-0.112-2.353,0.1-3.448c4.161-0.124,9.074-0.101,13.345,0.05c0.269,1.269,0.15,2.639,0.15,3.999
		c0,3.965-0.067,8.112,0.1,12.095c1.218,0.522,2.589,0.218,3.699,0.101c3.783-0.4,5.837-2.527,6.648-5.897
		c1.223-5.085-1.035-9.936-5.099-10.946c-1.826-0.455-5.128-0.15-7.247-0.15c-2.516,0-4.979,0-7.398,0
		c-2.501,0-5.135-0.126-7.348-0.05c-2.21,0.076-3.673,1.287-4.349,2.999c-0.669,1.695-0.41,3.896,0.15,5.498
		c0.559,1.601,1.315,3.098,2.049,4.349c1.561,2.658,3.612,5.307,4.099,8.696c0.607,4.223-0.828,7.469-3.149,9.247
		c-1.273,0.977-3.065,1.557-4.948,1.149c-1.697-0.366-2.9-1.21-3.898-2.499c-1.193-1.548-1.936-3.418-1.999-5.698
		c-0.066-2.372,0.656-4.479,1.45-6.247c0.758-1.688,1.825-3.312,2.699-4.999c0.899-1.736,1.801-3.491,2.099-5.548
		c0.216-1.493,0-3.246,0-4.948c0-4.676-0.025-9.423,0-14.145c0.001-0.312-0.125-0.797,0.25-1c7.735-0.093,16.145,0,24.091,0
		c2.606,0,5.504-0.164,7.748,0.3c4.241,0.876,7.542,3.283,9.896,6.198c2.46,3.045,4.091,6.647,4.798,11.296
		c0.79,5.19-0.171,10.214-1.7,13.895c-1.587,3.824-4.048,6.737-7.297,8.797c-1.65,1.047-3.464,1.975-5.548,2.5
		c-1.03,0.259-2.215,0.529-3.449,0.6c-1.254,0.071-2.612,0-3.999,0C40.113,62.501,34.701,62.591,29.49,62.351z M21.043,43.308
		c-0.132,1.418,0.004,2.92-0.05,4.198c-0.057,1.359-0.126,2.573-0.55,3.699c-0.566,1.507-1.77,2.651-3.398,2.898
		c-0.609,0.093-1.434-0.109-1.7,0.45c0.352,0.394,0.859,0.216,1.25,0.25c3.196,0.278,4.388,3.037,4.548,6.248
		c0.024,0.499-0.224,2.188,0.35,2.148c0.551-0.037,0.203-1.256,0.2-1.449c-0.068-4.112,0.987-6.648,4.649-7.048
		c0.427-0.046,0.826,0.163,1.05-0.35c-0.542-0.518-1.381-0.28-1.999-0.35c-0.295-0.033-0.635-0.132-0.899-0.25
		c-1.696-0.758-2.732-2.71-2.899-5.048c-0.072-1.001-0.047-2.148-0.05-3.1c-0.002-0.706,0.079-2.465-0.35-2.448
		C21.121,43.186,21.071,43.235,21.043,43.308z"/>
</g>
<g id="Layer_1">
</g>
</svg>
