<?xml version="1.0" encoding="iso-8859-1"?>
<!-- Generator: Adobe Illustrator 19.2.0, SVG Export Plug-In . SVG Version: 6.00 Build 0)  -->
<svg version="1.1" xmlns="http://www.w3.org/2000/svg" xmlns:xlink="http://www.w3.org/1999/xlink" x="0px" y="0px"
	 viewBox="0 0 78.355 67.981" style="enable-background:new 0 0 78.355 67.981;" xml:space="preserve">
<g id="M_x5F_Medicke">
	<path style="fill-rule:evenodd;clip-rule:evenodd;" d="M78.159,55.582c-3.023,0.175-6.415,0.164-9.37-0.051
		c-0.29-7.383,0.055-15.303-0.252-22.77c-0.965-0.274-1.999-0.151-3.023-0.151c-7.129,0.001-14.256-0.173-21.511,0.051
		c-0.379,7.245,0.138,15.345-0.201,22.82c-2.958,0.199-6.479,0.103-9.521,0.051c-0.267-0.879-0.151-1.829-0.151-2.77
		c0.001-6.594,0.077-13.693-0.101-20.051c-0.909-0.271-1.89-0.16-2.871-0.15c-6.93,0.071-14.675-0.221-21.511,0
		c-0.212,0.86-0.209,1.802-0.202,2.72c0.052,6.448,0.125,13.607-0.05,20.101c-2.791,0.225-6.192,0.117-9.22,0.051
		c-0.301-10.325-0.129-21.708-0.101-32.493c7.852-4.951,16.1-9.54,24.231-14.308c4.807-2.817,9.59-5.809,14.509-8.564
		c0.64-0.357,2.056,0.842,2.771,1.26c9.082,5.323,17.787,10.348,27.053,15.617c1.544,0.878,2.999,1.908,4.785,2.973
		c0.737,0.438,1.603,0.878,2.469,1.41c0.739,0.454,2.146,1.095,2.317,1.561c0.295,0.8,0.051,3.074,0.051,4.081
		C78.259,36.392,78.344,46.291,78.159,55.582z M57.907,21.729c-2.981-1.736-5.771-3.411-8.816-5.139
		c-2.438-1.384-5.096-2.826-7.606-4.333c-0.803-0.48-2.134-1.533-2.872-1.259c-4.685,2.827-9.451,5.589-14.055,8.463
		c-0.768,0.479-1.541,1.004-2.317,1.461c-0.777,0.458-1.657,0.823-2.217,1.562c0.997,0.264,2.046,0.15,3.073,0.15
		c10.233,0,20.709,0.032,30.226,0.051c1.918,0.004,3.827,0.204,5.692-0.102C58.809,22.139,58.291,21.952,57.907,21.729z"/>
	<path style="fill-rule:evenodd;clip-rule:evenodd;" d="M78.209,58.806c0.05,3.013,0.247,6.349-0.05,9.118
		C53.423,68.1,27.963,67.813,2.443,67.823c-0.755,0-1.577,0.118-2.317-0.151C0,65.784,0.074,63.257,0.074,60.822
		c0-0.623-0.102-1.978,0.151-2.217c0.036-0.048,0.092-0.076,0.151-0.101c6.556-0.198,13.104,0.253,19.597,0.05
		c6.481-0.203,12.926,0.18,19.345,0c3.268-0.091,6.579,0.051,9.823,0.051c8.356,0,16.152,0.047,24.332,0.05
		C75.063,58.656,76.648,58.54,78.209,58.806z"/>
</g>
<g id="Layer_1">
</g>
</svg>
