<?xml version="1.0" encoding="iso-8859-1"?>
<!-- Generator: Adobe Illustrator 19.2.0, SVG Export Plug-In . SVG Version: 6.00 Build 0)  -->
<svg version="1.1" xmlns="http://www.w3.org/2000/svg" xmlns:xlink="http://www.w3.org/1999/xlink" x="0px" y="0px"
	 viewBox="0 0 57.514 78.898" style="enable-background:new 0 0 57.514 78.898;" xml:space="preserve">
<g id="mac">
	<path style="fill-rule:evenodd;clip-rule:evenodd;" d="M38.706,0c0.323,0.215,0.195,0.677,0.195,0.979
		c0,5.615-0.08,11.773,0.098,17.273c0.596-0.017,0.916-0.622,1.272-0.979c1.123-1.123,2.27-2.318,3.426-3.474
		c1.532-1.533,2.967-3.163,4.502-4.697c2.685-2.685,5.271-5.42,7.976-8.123c0.343-0.342,0.714-0.888,1.273-0.93
		c0.043,26.171,0.147,52.271-0.049,78.683c-5.302-0.11-9.143-2.317-12.087-4.991c-2.973-2.7-5.072-6.328-6.214-10.912
		c-0.359,1.18-0.171,2.517-0.147,3.866c0.047,2.692-0.049,5.372-0.049,8.074c0,1.36,0.117,2.746-0.147,4.012
		c-12.721,0.209-25.987,0.093-38.755,0c0.057-0.561,0.588-0.921,0.93-1.272c2.583-2.646,5.322-5.322,7.976-7.976
		c9.091-9.091,18.266-18.263,27.304-27.451c0.485-0.331,0.823-0.806,1.224-1.223c0.383-0.399,0.911-0.716,1.125-1.272
		c-1.446-0.265-3.083-0.146-4.746-0.146c-11.175,0-22.721,0.041-33.812-0.098c0.073-0.601,0.661-0.93,1.028-1.321
		c1.152-1.229,2.41-2.435,3.62-3.67c1.608-1.641,3.172-3.318,4.796-4.942c3.244-3.244,6.613-6.375,9.737-9.737
		c1.554-1.672,3.266-3.209,4.845-4.893c4.679-4.989,9.655-9.804,14.483-14.68C38.546,0.052,38.599,0.023,38.657,0
		C38.673,0,38.689,0,38.706,0z M41.152,39.488c-0.795-0.002-1.571-0.134-2.251,0.147c0,3.807,0,8.145,0,12.086
		c0,1.366-0.132,2.714,0.196,3.915c1.071-4.244,2.897-7.685,5.529-10.374c1.991-2.035,4.33-3.681,7.241-4.697
		c0.962-0.336,2.018-0.521,3.034-0.979C50.697,39.265,45.404,39.498,41.152,39.488z"/>
</g>
<g id="Layer_1">
</g>
</svg>
