<?xml version="1.0" encoding="iso-8859-1"?>
<!-- Generator: Adobe Illustrator 19.2.0, SVG Export Plug-In . SVG Version: 6.00 Build 0)  -->
<svg version="1.1" xmlns="http://www.w3.org/2000/svg" xmlns:xlink="http://www.w3.org/1999/xlink" x="0px" y="0px"
	 viewBox="0 0 75.412 57.049" style="enable-background:new 0 0 75.412 57.049;" xml:space="preserve">
<g id="Machelor_x5F_Maintenance_x5F_Services">
	<path style="fill-rule:evenodd;clip-rule:evenodd;" d="M50.016,41.793c0.625,0.334,1.387,0.159,2.018,0.104
		c2.031-0.179,3.972-0.652,5.534-1.345c1.953-0.866,3.908-2.104,5.534-3.621c2.669-2.488,4.935-5.899,5.896-10.19
		c0.163-0.727,0.184-1.552,0.518-1.759c0.616-0.381,2.15-0.012,3-0.052c1.134-0.053,2.157-0.215,2.845,0.207
		c0.202,1.542-0.235,3.074-0.621,4.448c-1.856,6.628-5.957,11.698-11.224,15c-3.975,2.491-10.312,4.718-16.81,3.724
		c-5.992-0.916-10.499-3.485-14.12-6.827c-0.901-0.832-1.765-1.703-2.534-2.689c-0.76-0.973-1.64-1.966-2.018-3.207
		c0.62-0.036,1.065,0.491,1.552,0.776c1.433,0.84,3.309,1.622,5.225,1.965c2.925,0.524,5.954,0.143,8.431-0.672
		c4.447-1.462,8.055-5.141,9.672-9.518c0.945-2.556,1.158-5.635,0.725-8.379c-0.844-5.339-4.074-8.947-8.018-11.224
		c-1.018-0.589-2.145-1.054-3.361-1.448c-1.22-0.396-2.563-0.475-3.983-0.776c-0.341-0.833-0.095-2.089-0.102-3.259
		C38.163,1.986,37.945,0.622,38.533,0c5.599,0.225,10.144,2.395,13.5,5.069c2.555,2.036,4.615,4.514,6.104,7.707
		c0.496,1.065,1.061,2.197,1.241,3.311c0.422,2.609,1.015,5.179,0.724,8.275c-0.254,2.707-0.705,5.21-1.706,7.448
		c-1.631,3.644-4.138,6.65-7.19,8.896C50.794,41.009,50.235,41.263,50.016,41.793z"/>
	<path style="fill-rule:evenodd;clip-rule:evenodd;" d="M47.585,21.828c-0.683-0.1-1.154-0.633-1.707-0.983
		c-1.634-1.037-3.787-1.883-6.155-2.172c-7.057-0.863-12.261,2.642-15.207,6.724c-1.514,2.1-2.661,5.002-2.896,8.224
		c-0.198,2.736,0.455,5.12,1.242,7.035c0.834,2.027,2.008,3.577,3.31,4.965c2.314,2.468,5.319,4.372,9.673,4.811
		c0.594,0.06,1.477-0.012,1.759,0.259c0.471,0.451,0.258,2.063,0.258,3c0,1.198,0.111,2.402-0.154,3.206
		c-0.649,0.282-1.383,0.098-2.018,0.053c-4.689-0.335-8.525-2.159-11.431-4.346c-2.629-1.977-4.696-4.3-6.31-7.241
		c-0.541-0.986-0.794-2.067-1.241-3.258c-1.722-4.586-1.681-10.715,0.052-15.31c0.446-1.183,0.774-2.217,1.345-3.206
		c1.608-2.791,3.676-5.321,6.311-7.19c0.351-0.424,1.058-0.494,1.241-1.086c-0.576-0.408-1.342-0.163-1.966-0.104
		c-3.512,0.339-6.103,1.397-8.431,2.948c-0.945,0.63-1.86,1.24-2.586,1.966c-3.018,3.018-5.547,6.764-6.207,11.948
		c-0.082,0.645,0.073,1.518-0.31,2.068c-0.818,0.151-1.827,0.052-3,0.052c-0.817,0-2.581,0.209-2.948-0.206
		c-0.396-0.45-0.122-2.072,0-2.846c1.004-6.32,3.556-11.03,7.087-14.638c2.063-2.108,4.34-3.936,7.189-5.275
		c2.938-1.382,6.139-2.348,10.086-2.534c4.384-0.208,8.397,0.804,11.431,2.172c3.106,1.401,5.659,3.344,7.914,5.689
		c1.097,1.15,2.084,2.425,2.999,3.828C47.185,20.798,47.649,21.257,47.585,21.828z"/>
</g>
<g id="Layer_1">
</g>
</svg>
