<?xml version="1.0" encoding="iso-8859-1"?>
<!-- Generator: Adobe Illustrator 19.2.0, SVG Export Plug-In . SVG Version: 6.00 Build 0)  -->
<svg version="1.1" xmlns="http://www.w3.org/2000/svg" xmlns:xlink="http://www.w3.org/1999/xlink" x="0px" y="0px"
	 viewBox="0 0 395.531 369.805" style="enable-background:new 0 0 395.531 369.805;" xml:space="preserve">
<g id="Macquarie_x5F_Bank">
	<path style="fill-rule:evenodd;clip-rule:evenodd;" d="M205.476,0.128c14.476-0.689,30.226,1.491,43.067,4.199
		c13.506,2.847,25.251,6.958,36.23,11.756c33.625,14.697,59.293,36.587,78.817,65.141c12.815,18.743,23.677,40.332,28.432,67.54
		c2.358,13.501,4.034,28.541,3.358,43.067c-0.703,15.13-2.72,28.93-6.237,41.508c-1.723,6.158-3.995,12.075-6.118,17.875
		c-6.32,17.261-15.832,32.48-26.272,45.706c-7.08,8.969-14.919,16.799-23.273,24.593c-16.713,15.59-36.838,27.056-60.103,35.87
		c-17.535,6.643-36.909,11.397-59.862,12.116c-21.663,0.679-46.821,0.497-66.221-3.479c-13.224-2.71-25.284-6.519-36.469-11.517
		c-21.926-9.796-40.56-23.064-56.864-39.108c-16.101-15.845-29.351-34.635-39.229-56.744c-2.531-5.665-4.924-11.186-6.718-17.275
		c-1.811-6.144-3.351-12.581-4.679-19.314c-3.865-19.592-4.509-45.197-1.2-65.861c1.132-7.07,2.7-13.073,4.439-19.554
		c1.747-6.511,3.329-12.667,5.639-18.354c6.872-16.924,15.961-32.102,26.632-45.347c7.137-8.858,14.594-17.657,22.913-24.953
		c8.564-7.511,17.512-14.928,27.592-20.394c10.438-5.661,20.655-10.932,32.51-15.475c11.589-4.442,24.355-7.902,38.149-9.837
		c13.817-1.938,28.832-2.157,45.227-2.16C205.315,0.128,205.396,0.132,205.476,0.128z M278.774,25.801
		c3.599,2.083,7.173,3.95,10.557,6.238c13.326,9.011,25.821,19.09,36.229,30.831c26.229,29.588,45.57,66.294,46.906,120.445
		c0.512,20.736-3.243,40.771-8.997,57.343c-5.888,16.957-12.941,31.896-22.073,45.107c-18.371,26.575-42.198,47.189-71.619,62.622
		c26.526-8.676,47.05-23.806,64.9-40.908c11.996-11.492,22.06-24.846,30.472-40.068c4.222-7.641,7.362-16.043,10.797-24.473
		c6.872-16.871,10.196-37.907,10.197-59.862c0-22.686-4.16-42.6-10.558-59.743c-6.357-17.038-15.225-32.195-25.433-45.107
		c-20.864-26.39-47.349-46.803-82.416-58.663c-0.073,0.007-0.142,0.018-0.12,0.12C271.436,21.626,275.159,23.709,278.774,25.801z
		 M107.104,338.43c-13.587-8.737-25.818-19.015-36.349-30.831c-5.305-5.952-10.43-12.168-14.876-18.834
		c-8.865-13.294-17.274-27.47-23.033-44.148c-5.741-16.625-9.867-35.274-9.837-56.983c0.045-32.627,7.602-59.614,18.115-82.176
		c3.521-7.556,8.08-14.341,12.596-21.114c13.358-20.032,30.608-36.927,50.025-50.745c6.597-4.695,13.893-8.179,20.874-12.357
		c-3.961,0.934-9.064,3.262-12.836,5.158c-4.197,2.11-8.221,3.733-11.876,5.758C77.09,44.806,58.371,61.57,43.643,81.705
		c-4.969,6.793-9.868,13.736-13.916,21.234c-12.308,22.798-20.634,50.529-20.634,85.175c0,22.837,4.864,41.848,11.037,59.143
		c3.021,8.464,7.044,16.393,11.517,23.753c4.512,7.424,9.091,14.645,14.276,20.994c21.472,26.293,46.586,46.937,82.416,58.543
		C121.343,346.192,113.92,342.814,107.104,338.43z M332.398,53.633c0.156-0.16,0.158-0.447-0.12-0.48
		C332.123,53.313,332.12,53.6,332.398,53.633z M178.843,106.178c-14.362,4.762-26.103,13.766-34.79,23.873
		c-11.678,13.587-21.247,32.362-20.754,57.343c0.248,12.531,3.371,22.719,7.318,31.791c3.047,7.003,6.878,12.793,11.277,18.115
		c1.511,1.828,3.082,3.317,4.799,5.038c9.507,9.532,21.381,18.077,36.349,22.313c4.787,1.355,10.896,3.134,16.315,2.399
		c21.562-2.922,38.422-14.048,50.745-27.472c12.346-13.449,21.25-32.279,20.874-56.983c-0.377-24.751-10.502-42.634-23.153-55.184
		c-9.705-9.627-21.337-17.634-36.35-22.313c-4.102-1.278-11.952-3.383-16.795-2.879
		C189.104,102.799,183.665,104.579,178.843,106.178z M265.818,134.37c8.292,13.059,14.662,28.811,14.875,49.186
		c0.212,20.229-5.805,37.285-14.155,50.145c-7.448,11.469-16.941,20.711-27.952,28.312c-1.468,1.013-2.981,2.033-4.318,3.239
		c18.258-5.497,31.429-15.71,42.107-28.912c10.266-12.691,18.526-30.985,17.995-53.144c-0.556-23.151-8.023-38.805-18.955-52.065
		c-10.473-12.705-24.357-23.606-43.187-28.072c-0.073,0.007-0.142,0.018-0.12,0.12C245.617,111.085,257.431,121.159,265.818,134.37z
		 M128.698,235.5c-8.101-12.475-15.062-28.916-14.996-49.186c0.068-20.731,5.96-36.8,14.036-50.146
		c8.123-13.424,19.293-23.56,32.15-32.031c-0.12,0-0.24,0-0.36,0c-9.056,2.74-17.102,6.71-23.873,11.877
		c-13.513,10.312-23.879,22.877-30.471,40.308c-3.226,8.53-5.378,19.299-5.038,30.111c0.709,22.582,8.206,38.825,18.834,51.945
		c5.185,6.401,11.61,12.241,18.475,16.915c7.001,4.767,14.944,8.837,24.352,11.037C148.793,258.532,137.184,248.567,128.698,235.5z"
		/>
</g>
<g id="Layer_1">
</g>
</svg>
