<?xml version="1.0" encoding="iso-8859-1"?>
<!-- Generator: Adobe Illustrator 19.2.0, SVG Export Plug-In . SVG Version: 6.00 Build 0)  -->
<svg version="1.1" xmlns="http://www.w3.org/2000/svg" xmlns:xlink="http://www.w3.org/1999/xlink" x="0px" y="0px"
	 viewBox="0 0 184.328 102.061" style="enable-background:new 0 0 184.328 102.061;" xml:space="preserve">
<g id="Madero_x5F_Walk">
	<path style="fill-rule:evenodd;clip-rule:evenodd;" d="M104.891,7.341c1.302-4.525-7.951-5.846-13.912-6.117
		c-4.568-0.207-9.168,0.427-12.832,1.679c-1.806,0.617-4.107,1.68-3.838,4.078c-2.191-3.048,2.587-4.867,5.277-5.637
		c5.778-1.654,12.851-1.792,19.069-0.36C101.987,1.753,107.781,3.809,104.891,7.341z"/>
	<path style="fill-rule:evenodd;clip-rule:evenodd;" d="M99.134,6.861c-0.172-2.633-6.21-3.473-10.314-3.118
		c-3.483,0.301-8.309,0.316-8.036,3.118C78.01,4.959,82.64,3.46,85.582,3.024c2.439-0.361,5.616-0.317,8.155,0
		C96.458,3.363,101.222,4.494,99.134,6.861z"/>
	<path style="fill-rule:evenodd;clip-rule:evenodd;" d="M78.746,4.942c0.45,0.215-0.295,0.539-0.24,1.08
		c0.131,1.279,3.258,2.257,5.757,2.639c4.649,0.709,10.84,0.633,14.631-0.84c0.993-0.385,2.933-1.515,1.799-2.758
		c3.235,1.525-0.358,3.48-3.118,4.198c-3.785,0.983-8.863,1.035-13.192,0.479C80.926,9.297,75.227,7.458,78.746,4.942z"/>
	<path style="fill-rule:evenodd;clip-rule:evenodd;" d="M93.018,6.022c-0.63,0.508-1.28-0.239-2.159-0.36
		c-1.689-0.232-3.359,0.623-4.438,0.36C87.218,4.415,92.195,4.511,93.018,6.022z"/>
	<path style="fill-rule:evenodd;clip-rule:evenodd;" d="M72.75,5.422c-0.019,1.269,0.957,2.665,2.039,3.358
		c5.431,3.482,20.188,3.691,26.984,1.319c2.287-0.798,4.867-2.019,5.037-4.677c2.852,3.075-2.319,5.392-5.157,6.236
		c-7.448,2.215-20.13,2.009-25.905-0.72C73.71,9.977,70.462,7.707,72.75,5.422z"/>
	<path style="fill-rule:evenodd;clip-rule:evenodd;" d="M93.977,5.782c0.269,0.171,0.495,0.385,0.72,0.6
		c0.293,2.191-9.707,2.197-9.835,0.24c-0.03-0.454,0.163-0.65,0.6-0.839C86.616,7.625,92.856,7.764,93.977,5.782z"/>
	<path style="fill-rule:evenodd;clip-rule:evenodd;" d="M83.663,23.172c1.822-4.127-4.784-6.539-8.515-7.436
		c-9.495-2.283-26.503-1.679-32.621,3.118c-1.187,0.93-2.195,2.374-1.199,3.957c-1.999-0.477-1.06-3.808,0.48-5.157
		c4.103-3.594,14.562-5.065,23.386-4.677c7.079,0.312,13.961,1.704,17.51,4.317C84.456,18.586,86.008,21.336,83.663,23.172z"/>
	<path style="fill-rule:evenodd;clip-rule:evenodd;" d="M75.268,22.453c0.213-0.227,0.087-0.793,0.12-1.2
		c-2.434-2.706-8.332-3.562-13.432-3.358c-4.708,0.188-9.806,0.664-12.113,3.238c-0.173,0.669,0.297,1.145,0.12,1.439
		c-1.987-1.081-0.93-2.878,0.6-3.718c3.47-1.904,9.559-2.295,14.151-1.919c4.429,0.363,10.976,0.862,11.633,3.598
		C76.534,21.311,76.243,22.267,75.268,22.453z"/>
	<path style="fill-rule:evenodd;clip-rule:evenodd;" d="M47.324,19.694c-1.811,2.979,3.053,4.454,6.116,5.037
		c5.637,1.075,11.532,1.166,17.03,0.24c2.571-0.433,5.938-1.241,7.196-2.398c0.954-0.878,0.633-2.14,0.12-2.878
		c4.86,3.045-1.357,5.224-5.157,6.117c-5.722,1.344-14.043,1.458-20.028,0.12C48.987,25.122,42.685,22.798,47.324,19.694z"/>
	<path style="fill-rule:evenodd;clip-rule:evenodd;" d="M66.993,21.373c-1.192,0.086-3.422-0.842-5.876-0.6
		c-0.807,0.08-2.926,1.344-3.118,0.36c-0.137-0.703,1.253-1.102,1.919-1.199C62.031,19.625,66.784,19.452,66.993,21.373z"/>
	<path style="fill-rule:evenodd;clip-rule:evenodd;" d="M38.809,20.294c-0.306,2.002,1.251,3.782,2.998,4.797
		c7.622,4.432,24.011,4.986,34.54,2.519c4.588-1.075,9.899-2.659,9.955-7.316c2.019,1.497,1.127,4.079-0.36,5.517
		c-2.099,2.029-6.217,3.255-10.074,4.078c-7.791,1.662-17.812,1.636-25.785,0.12c-3.938-0.749-7.812-1.872-10.314-3.718
		C38.165,25.107,36.568,22.157,38.809,20.294z"/>
	<path style="fill-rule:evenodd;clip-rule:evenodd;" d="M68.432,20.894c3.092,2.323-3.155,3.397-7.316,3.118
		c-2.626-0.176-7.356-1.23-4.557-2.999C57.855,23.531,67.264,23.85,68.432,20.894z"/>
	<path style="fill-rule:evenodd;clip-rule:evenodd;" d="M136.433,40.922c0.93-1.477,0.676-3.798-0.6-5.037
		c-5.011-4.866-15.503-6.399-26.145-6.956c-13.281-0.695-26.34,1.326-33.581,6.716c-1.286,0.958-1.781,3.5-0.6,5.037
		c-1.84-0.695-2.287-4.084-0.6-6.116c2.389-2.879,7.401-4.767,11.873-5.876c14.664-3.64,39.252-3.133,48.932,4.677
		C137.752,35.012,139.22,38.965,136.433,40.922z"/>
	<path style="fill-rule:evenodd;clip-rule:evenodd;" d="M124.439,40.082c0.876-1.894-1.268-3.775-3.238-4.438
		c-4.337-1.458-9.479-1.903-15.591-2.039c-4.892-0.108-9.476,1.026-13.312,1.919c-2.686,0.625-5.938,1.578-4.317,4.437
		c-0.856-0.234-1.867-1.063-1.799-2.399c0.103-2.012,3.809-3.223,6.596-3.958c7.166-1.888,16.406-2.1,23.866-0.6
		c2.513,0.505,7.378,1.522,8.755,3.238C126.511,37.63,125.685,39.343,124.439,40.082z"/>
	<path style="fill-rule:evenodd;clip-rule:evenodd;" d="M84.502,35.645c0.094,0.643-1.182,1.105-1.199,2.279
		c-0.036,2.491,4.562,3.993,7.436,4.797c7.021,1.964,17.857,2.093,25.665,1.079c2.238-0.29,4.972-0.942,7.436-1.799
		c2.812-0.978,7.186-3.731,3.478-6.236c1.63,0.324,3.912,1.988,2.998,4.317c-0.85,2.167-5.299,3.829-8.395,4.558
		c-9.57,2.252-25.857,2.016-34.18-0.72c-2.246-0.738-6.343-2.475-6.117-5.157C81.754,37.223,83.174,36.494,84.502,35.645z"/>
	<path style="fill-rule:evenodd;clip-rule:evenodd;" d="M72.03,36.724c-0.263,5.697,5.273,8.005,10.314,9.594
		c10.69,3.369,27.124,3.948,39.457,2.039c5.825-0.902,12.361-2.923,15.951-5.996c1.511-1.294,2.724-3.011,2.159-5.637
		c2.421,1.288,2.064,5.162,0.48,7.076c-2.875,3.473-8.826,5.383-14.631,6.596c-10.353,2.163-24.417,2.994-35.62,0.72
		c-0.078,0.881,0.803,1.479,0.959,2.639c0.273,2.021-0.71,4.083-1.799,4.677c0.22-1.079,0.128-2.213-0.36-3.238
		c-2.046-4.299-9.945-6.728-15.591-7.915c-17.789-3.741-45.331-3.446-58.886,4.078c-1.838,1.021-4.423,3.36-4.438,5.637
		c-0.012,2.012,1.834,3.123,2.159,4.198c-3.571-1.581-7.144-6.205-3.838-10.314c3.199-3.976,10.564-6.282,17.15-7.795
		c13.995-3.216,31.3-2.671,45.213-0.36C70.043,40.84,70.381,37.661,72.03,36.724z"/>
	<path style="fill-rule:evenodd;clip-rule:evenodd;" d="M111.607,37.564c1.019,0.218,2.362,0.522,2.398,1.439
		c0.086,2.19-7.029,2.311-10.074,2.159c-3.725-0.186-8.584-1.895-4.078-3.478c0.547,0.061-0.076,0.548,0.24,0.839
		C101.608,39.834,112.065,40.398,111.607,37.564z"/>
	<path style="fill-rule:evenodd;clip-rule:evenodd;" d="M69.871,58.432c-0.264-2.386-3.303-3.196-5.997-3.838
		c-6.401-1.526-13.572-1.967-21.348-1.319c-4.509,0.376-10.305,1.197-12.592,3.238c-0.479,0.427-0.777,1.094-0.72,1.919
		c-2.686-0.927-1.247-3.719,0.479-4.797c3.445-2.15,10.633-2.882,15.471-3.238c5.137-0.377,10.316-0.011,14.751,0.72
		c3.949,0.65,10.509,1.762,11.273,4.677C71.518,57.042,70.954,58.014,69.871,58.432z"/>
	<path style="fill-rule:evenodd;clip-rule:evenodd;" d="M4.989,51.715c-0.727,1.645-2.021,3.854-1.199,6.476
		c0.194,0.62,0.973,1.674,1.439,2.279c4.724,6.132,15.321,8.84,24.706,10.554c7.49,1.368,15.733,1.64,23.986,1.559
		c2.875-0.028,6.107,0.056,8.035-0.479c0.979-0.271,1.965-1.425,2.758-2.038c2.71-2.099,5.862-3.923,9.355-5.037
		c-3.794,2.757-8.103,4.268-8.995,9.354c-0.882,5.035,4.029,8.816,7.676,10.794c22.735,12.329,69.792,12.343,94.505,1.56
		c4.674-2.04,10.667-5.372,10.913-11.034c0.255-5.866-5.599-7.782-8.635-10.434c3.489,1.343,6.604,2.87,9.475,5.157
		c3.348,2.669,7.051,7.648,4.437,13.073c-2.465,5.115-7.838,7.63-13.192,10.313c-4.902,2.458-11.859,4.407-17.99,5.397
		c-13.453,2.172-27.956,3.515-42.815,2.519c-11.274-0.756-21.06-2.717-30.223-5.397c-8.792-2.571-17.612-7.252-20.388-15.23
		c-15.775,0.894-32.553-1.121-44.254-5.997c-3.914-1.631-7.974-3.824-10.554-6.356c-2.218-2.177-4.753-5.751-3.837-9.954
		C0.854,55.749,2.732,53.612,4.989,51.715z"/>
	<path style="fill-rule:evenodd;clip-rule:evenodd;" d="M73.349,54.474c1.781,1.082,4.231,2.107,3.838,4.797
		c-0.29,1.98-3.751,3.906-5.757,4.677c-11.724,4.509-34.553,4.476-45.333-0.72c-2.128-1.025-5.556-3.406-3.598-6.476
		c0.546-0.856,2.508-2.382,3.238-2.398c0.463-0.011-1.304,1.142-1.319,2.519c-0.038,3.481,6.868,4.838,9.834,5.517
		c3.934,0.9,9.376,1.553,13.432,1.559c8.621,0.013,18.44-0.598,24.226-3.838C73.994,58.944,75.634,56.547,73.349,54.474z"/>
	<path style="fill-rule:evenodd;clip-rule:evenodd;" d="M44.326,57.712c0.076-0.036,0.086-0.127,0.24-0.12
		c1.8,0.081,3.741,0.804,6.596,0.6c1.286-0.092,3.82-1.241,4.197,0c0.607,1.994-5.209,2.337-7.436,2.159
		C46.667,60.25,41.803,58.905,44.326,57.712z"/>
	<path style="fill-rule:evenodd;clip-rule:evenodd;" d="M147.706,68.985c2.508,0.273,4.542,1.237,6.716,2.398
		c2.885,1.542,6.69,5.017,3.478,8.635c-2.876,3.239-9.716,5.151-15.471,6.356c-11.239,2.354-27.773,2.462-39.816,0.24
		c-6.212-1.146-12.54-2.61-16.191-5.637c-1.492-1.236-2.791-2.836-2.159-5.277c1.13-4.369,8.352-5.935,12.593-7.316
		c0.12,0,0.24,0,0.36,0c-2.423,1.207-5.468,1.781-7.436,3.358c-3.409,2.732-0.96,6.084,1.919,7.675
		c3.955,2.187,9.785,3.346,15.591,4.198c11.726,1.721,25.346,1.106,35.859-1.319c2.296-0.53,4.978-1.329,7.316-2.519
		c2.065-1.051,4.941-2.544,4.677-5.157C154.822,71.47,150.119,70.295,147.706,68.985z"/>
	<path style="fill-rule:evenodd;clip-rule:evenodd;" d="M146.267,68.506c0.316-0.269,0.805,0.309,1.319,0.24
		C147.205,69.08,146.513,68.704,146.267,68.506z"/>
	<path style="fill-rule:evenodd;clip-rule:evenodd;" d="M161.378,84.816C161.328,84.766,161.457,84.895,161.378,84.816
		L161.378,84.816z"/>
	<path style="fill-rule:evenodd;clip-rule:evenodd;" d="M82.104,84.937C82.054,84.886,82.183,85.015,82.104,84.937L82.104,84.937z"
		/>
	<path style="fill-rule:evenodd;clip-rule:evenodd;" d="M161.738,84.696c3.084-2.576,9.716-4.122,7.795-10.434
		c-0.855-2.811-4.425-5.238-7.196-6.596c-5.689-2.788-13.141-4.386-20.868-5.517c-14.732-2.156-34.618-1.969-47.612,1.439
		c-7.142,1.874-14.427,3.743-18.469,7.795c-2.521,2.529-2.402,6.554,0,9.115c1.822,1.942,4.837,3.002,6.356,4.317
		c-3.665-1.463-7.763-3.255-10.194-5.997c-1.553-1.752-2.726-4.901-1.2-7.795c3.061-5.803,14.112-9.339,21.708-10.794
		c9.095-1.742,19.12-2.969,29.503-2.878c10.765,0.094,20.344,1.301,28.903,2.878c7.689,1.417,18.523,4.669,22.067,10.314
		c3.654,5.82-2.405,10.164-6.476,12.353C164.716,83.617,163.275,84.176,161.738,84.696z"/>
	<path style="fill-rule:evenodd;clip-rule:evenodd;" d="M98.894,80.139c-2.685-1.199-6.146-1.975-6.596-4.917
		c-0.15-0.984,0.177-2.047,0.6-2.639c1.963-2.742,8.058-4.431,12.713-5.277c9.445-1.716,22.927-1.774,32.501,0.24
		c4.651,0.978,10.548,2.363,12.353,5.517c2.237,3.909-4.205,6.68-6.716,7.196c1.427-1.147,3.661-1.682,3.718-3.958
		c0.079-3.137-5.233-4.906-8.515-5.757c-11.003-2.853-28.039-2.463-37.418,0.72c-2.163,0.734-5.917,2.485-5.997,4.797
		C95.467,78.072,97.617,78.772,98.894,80.139z"/>
</g>
<g id="Layer_1">
</g>
</svg>
