<?xml version="1.0" encoding="iso-8859-1"?>
<!-- Generator: Adobe Illustrator 21.0.2, SVG Export Plug-In . SVG Version: 6.00 Build 0)  -->
<svg version="1.1" xmlns="http://www.w3.org/2000/svg" xmlns:xlink="http://www.w3.org/1999/xlink" x="0px" y="0px"
	 viewBox="0 0 15.231 15.23" style="enable-background:new 0 0 15.231 15.23;" xml:space="preserve">
<g id="Magnum">
	<path d="M0.633,0.758c0.446-0.497,1.119-0.775,1.784-0.758C3.232,0.003,4.046,0,4.861,0.003C4.854,5.077,4.859,10.152,4.858,15.227
		c-0.843,0.006-1.686,0-2.53,0.003c-0.602-0.019-1.214-0.252-1.628-0.7c-0.437-0.403-0.678-0.995-0.7-1.584
		c0-3.509,0.001-7.019,0-10.528C-0.016,1.811,0.21,1.196,0.633,0.758z"/>
	<path d="M5.195,0c1.604,0.003,3.209,0,4.814,0.001c0,5.075,0.003,10.15-0.002,15.224c-1.602,0.006-3.204,0.002-4.806,0.002
		C5.196,10.152,5.209,5.076,5.195,0z"/>
	<path d="M10.35,0.004C11.2-0.002,12.05,0.005,12.901,0C13.784,0.002,14.627,0.557,15,1.353c0.131,0.278,0.203,0.582,0.229,0.887
		c0.001,3.495,0,6.991,0.001,10.486c0.016,0.458-0.091,0.923-0.319,1.321c-0.267,0.443-0.672,0.809-1.153,1.005
		c-0.26,0.098-0.535,0.161-0.812,0.176c-0.865-0.002-1.73,0.003-2.595-0.002C10.354,10.153,10.356,5.078,10.35,0.004z"/>
</g>
<g id="Layer_1">
</g>
</svg>
