<?xml version="1.0" encoding="iso-8859-1"?>
<!-- Generator: Adobe Illustrator 19.2.0, SVG Export Plug-In . SVG Version: 6.00 Build 0)  -->
<svg version="1.1" xmlns="http://www.w3.org/2000/svg" xmlns:xlink="http://www.w3.org/1999/xlink" x="0px" y="0px"
	 viewBox="0 0 75.937 73.275" style="enable-background:new 0 0 75.937 73.275;" xml:space="preserve">
<g id="Magyar_x5F_Munkasmozgalmi_x5F_Muzeum">
	<path style="fill-rule:evenodd;clip-rule:evenodd;" d="M47.555,27.826c4.594,0.256,9.344-0.094,14.141,0.1
		c4.771,0.189,9.63-0.156,14.241,0.197c-0.239,0.582-0.858,0.865-1.34,1.191c-1.448,0.979-2.928,2.043-4.366,3.125
		c-1.89,1.422-3.878,2.723-5.806,4.168c-2.869,2.152-5.66,4.199-8.684,6.352c-0.425,0.303-0.932,0.66-1.438,1.043
		c-0.435,0.326-1.185,0.857-1.24,1.24c-0.067,0.453,0.369,1.189,0.546,1.785c0.903,3.062,1.81,5.785,2.729,8.832
		c0.721,2.393,1.522,4.562,2.282,6.947c0.934,2.928,1.79,5.838,2.778,8.783c0.176,0.522,0.559,1.123,0.298,1.686
		c-0.828-0.076-1.371-0.807-1.984-1.24c-4.396-3.098-8.817-6.52-13.198-9.725c-1.544-3.885-2.513-8.41-3.92-12.604
		c-0.206-0.611-0.405-1.316-0.646-2.133c-0.179-0.611-0.663-1.631-0.595-2.135c0.068-0.506,1.139-1.055,1.687-1.438
		c3.923-2.75,7.761-5.566,11.56-8.484c0.239-0.184,0.659-0.42,0.646-0.795c-1.332-0.268-2.785-0.148-4.218-0.148
		c-4.294,0-8.774-0.016-13-0.1c-0.646-1.383-0.982-2.895-1.438-4.367c-1.116-3.602-2.312-7.164-3.474-10.916
		c-0.234-0.756-0.611-1.65-0.596-2.281c0.016-0.594,0.397-1.434,0.646-2.184c0.696-2.104,1.422-4.234,2.134-6.252
		c0.747-2.119,1.33-4.172,2.084-6.301c0.252-0.713,0.448-1.541,0.744-2.084c0.491-0.457,0.777,0.955,0.942,1.488
		c1.286,4.15,2.566,8.305,3.92,12.305c0.813,2.402,1.411,4.828,2.184,7.096c0.399,1.172,0.765,2.334,1.142,3.473
		C46.698,25.613,46.971,26.804,47.555,27.826z"/>
	<path style="fill-rule:evenodd;clip-rule:evenodd;" d="M32.769,38.097c3.558,0.18,7.589-0.115,11.064,0.148
		c-0.153,0.492-0.683,0.715-1.042,0.992c-0.386,0.297-0.756,0.572-1.092,0.893c-1.147,0.842-2.359,1.647-3.522,2.481
		c-1.152,0.828-2.388,1.592-3.274,2.68c0.737,3.016,1.759,5.883,2.679,8.883c0.137,0.447,0.379,0.963,0.348,1.289
		c-0.079,0.805-2.185,1.955-2.778,2.381c-2.965,2.129-6.035,4.375-8.981,6.402c-3.069,2.111-5.852,4.357-8.882,6.5
		c-0.493,0.348-0.992,0.729-1.488,1.092c-0.46,0.336-0.959,0.854-1.588,0.842c0.041-0.881,0.371-1.738,0.646-2.578
		c0.533-1.635,1.182-3.129,1.686-4.863c0.239-0.82,0.412-1.814,0.794-2.48c0.371-0.648,1.324-1.08,2.134-1.687
		c0.741-0.555,1.463-1.217,2.084-1.688c1.649-1.248,3.484-2.449,5.21-3.721c1.267-0.934,2.493-1.852,3.87-2.828
		c0.408-0.291,1.177-0.672,1.19-0.992c0.021-0.471-0.961-0.957-1.34-1.242c-0.453-0.338-1.091-0.98-1.588-0.99
		c-0.349-0.008-0.873,0.455-1.24,0.693c-1.163,0.754-2.222,1.543-3.324,2.332c-1.105,0.791-2.184,1.576-3.226,2.432
		c-0.329,0.271-0.673,0.688-1.141,0.645c-0.369-0.332-0.063-0.848,0.05-1.191c0.379-1.15,0.925-2.334,1.24-3.521
		c0.136-0.514,0.149-1.045,0.298-1.539c0.388-1.291,1.04-2.734,1.389-4.117c-0.266-0.697-1.025-0.949-1.538-1.391
		c-1.527-1.312-3.294-2.488-4.912-3.77c-0.366-0.227-0.739-0.529-1.141-0.795c-0.354-0.232-0.89-0.438-0.894-0.893
		c0.263-0.348,0.806-0.199,1.19-0.199c2.984,0,6.38,0.041,9.328-0.049c0.504-0.34,0.611-1.057,0.795-1.688
		c0.176-0.607,0.53-1.258,0.446-1.885c-0.601-0.334-1.353-0.199-2.034-0.199c-4.345,0.002-8.734-0.051-13.198-0.049
		c-0.742,0-1.599,0.104-2.134-0.051c-0.375-0.107-0.79-0.502-1.191-0.793c-1.153-0.836-2.268-1.688-3.374-2.481
		c-1.29-1.01-2.697-1.9-3.969-2.928c-0.201-0.045-0.481-0.353-0.198-0.447c9.52,0.006,19.496-0.014,29.026,0.149
		c0.551,0.676,0.729,1.625,0.992,2.48c0.531,1.727,1.081,3.518,1.638,5.311C32.036,36.506,32.279,37.404,32.769,38.097z"/>
</g>
<g id="Layer_1">
</g>
</svg>
