<?xml version="1.0" encoding="iso-8859-1"?>
<!-- Generator: Adobe Illustrator 19.2.0, SVG Export Plug-In . SVG Version: 6.00 Build 0)  -->
<svg version="1.1" xmlns="http://www.w3.org/2000/svg" xmlns:xlink="http://www.w3.org/1999/xlink" x="0px" y="0px"
	 viewBox="0 0 50.762 146.19" style="enable-background:new 0 0 50.762 146.19;" xml:space="preserve">
<g id="Maishima_x5F_Sports_x5F_Island">
	<path style="fill-rule:evenodd;clip-rule:evenodd;" d="M19.705,64.918c1.169-2.508,2.809-4.544,3.955-7.073
		c2.468-2.807,5.261-5.289,8.632-7.192c8.546-3.457,16.738,1.923,18.101,10.31c0.976,6-0.149,13.361-1.438,19.3
		c-0.926,2.956-2.173,5.826-3.597,8.271c-2.024,3.478-3.241,6.344-5.874,8.871c-1.154,1.109-2.683,2.658-4.315,3.717
		c-0.459,0.297-1.225,0.173-1.318,0.959c-2.076,0.721-3.762,1.833-5.994,2.397c-0.459,14.305-2.54,28.218-5.874,40.878
		c-3.376,2.883-4.318-2.398-5.155-5.274c-0.567-1.951-0.667-4.095-1.078-5.994c-0.482-2.226-1.905-5.62-1.679-7.792
		c0.164-1.571-0.821-3.301-0.959-5.035c-0.161-2.027-0.312-3.625-0.359-5.034c-0.066-1.988-0.722-3.771-0.72-5.515
		c0.003-2.124-0.205-4.386,0-6.233c-6.543-2.671-11.636-8.632-11.987-16.304c-0.688-11.29,6.624-18.106,16.423-20.379
		c-0.312-0.724-0.318-1.715-0.839-2.397c-0.617-0.81-1.721-2.638-2.277-4.076c-0.757-1.955-1.269-3.486-2.038-5.395
		c-0.259-0.641-0.828-1.143-1.079-1.798c-0.648-1.697-0.99-3.555-1.559-5.395c-0.868-2.812-1.832-5.688-2.397-8.512
		c-1.066-5.323-1.26-10.334-0.959-16.063c0.184-3.491,1.7-8.102,2.997-10.909c0.73-1.58,1.198-3.355,2.038-4.795
		c1.938-3.323,4.447-6.357,6.473-8.392c1.216-0.315,3.095,0.556,2.638,2.398c-0.193,0.782-1.506,1.665-2.277,2.638
		c-1.439,1.812-4.211,6.073-5.275,8.631c-0.384,0.924-0.361,1.898-0.719,2.638c-0.116,0.24-0.495,0.337-0.6,0.6
		c-1.053,2.654-1.121,6.445-1.438,9.47c-1.004,9.564,2.292,19.314,5.515,27.572c0.844,2.162,1.477,4.395,2.397,6.354
		c0.197,0.42,0.635,0.693,0.839,1.079C18.521,62.602,18.563,64.016,19.705,64.918z M46.797,67.795c0.626-0.419,0.137-1.614,0-2.518
		c0.307-2.817-0.766-5.438-1.559-7.912c-1.799-2.816-5.419-4.233-8.511-3.836c-2.705,0.348-4.586,1.617-6.594,3.356
		c-3.294,2.854-5.741,6.607-7.433,10.789c6.606,1.883,12.592,5.588,12.947,13.426c0.267,5.89-3.785,10.229-8.271,12.229
		c0.356,1.909,0.196,4.618,0.479,7.072c1.877-0.32,3.183-1.213,4.436-2.158c0.25,0.069,0.342,0.298,0.719,0.24
		c0.148-0.388-0.388-0.092-0.239-0.479C41.611,91.785,46.755,79.837,46.797,67.795z M4.36,82.06
		c-2.468,7.35,1.404,15.4,7.552,17.861c0.194-9.664,2.18-20.14,4.915-28.171C11.135,72.642,6.122,76.812,4.36,82.06z M26.897,88.893
		c2.838-0.555,4.316-3.095,4.795-5.635c1.107-5.884-3.767-10.683-8.751-11.389C24.617,76.992,26.429,83.73,26.897,88.893z
		 M15.868,101.601c2.462,0.545,5.963,0.868,8.271-0.24c-0.06-8.284-1.547-16.503-3.476-24.455c-0.104-0.426-0.718-1.093-0.959-1.198
		C17.228,82.827,15.584,93.311,15.868,101.601z M15.868,105.556c-0.31,9.313,1.967,21.796,3.956,30.449
		c1.075-0.332,0.665-1.553,0.84-2.397c0.242-1.176,0.916-2.641,0.839-4.195c0.013-0.227,0.396-0.083,0.359-0.36
		c0.046-2.857,0.593-5.942,1.318-8.99c0.073-4.811,1.002-9.776,0.72-14.625C20.923,106.034,18.59,105.795,15.868,105.556z"/>
	<path style="fill-rule:evenodd;clip-rule:evenodd;" d="M20.424,45.976c2.618,0.104,4.963,2.374,4.076,5.635
		c-0.639,0.298-0.617,1.003-1.079,1.438c-1.452,1.369-4.684,1.404-5.994-0.24C15.31,50.154,17.486,45.781,20.424,45.976z"/>
</g>
<g id="Layer_1">
</g>
</svg>
