<?xml version="1.0" encoding="iso-8859-1"?>
<!-- Generator: Adobe Illustrator 19.2.0, SVG Export Plug-In . SVG Version: 6.00 Build 0)  -->
<svg version="1.1" xmlns="http://www.w3.org/2000/svg" xmlns:xlink="http://www.w3.org/1999/xlink" x="0px" y="0px"
	 viewBox="0 0 80.54 57.184" style="enable-background:new 0 0 80.54 57.184;" xml:space="preserve">
<g id="Manuel_x5F_Albo">
	<path style="fill-rule:evenodd;clip-rule:evenodd;" d="M40.124,0.002c0.044-0.009,0.049,0.02,0.052,0.052
		c0.521,0.633,0.77,1.441,1.136,2.169c3.992,7.94,8.05,16.15,12.035,24.174c1.473,2.963,3.066,5.881,4.236,8.936
		c0.343,0.895,0.851,1.805,1.291,2.738c0.424,0.899,0.902,1.81,1.343,2.686c0.839,1.668,1.76,3.96,3.409,4.648
		c2.657,1.109,5.039-0.829,5.476-2.944c0.088-2.452-0.873-3.792-1.757-5.579c-1.253-2.535-2.417-5.003-3.667-7.49
		c-0.317-0.63-0.649-1.216-0.93-1.859c-0.262-0.6-0.565-1.288-1.085-1.705c-0.554,0.403-0.759,1.108-1.085,1.705
		c-0.635,1.164-1.23,2.399-1.859,3.615c-0.306,0.593-0.536,1.27-1.033,1.705c-0.758-0.831-1.069-1.948-1.601-2.944
		c-1.288-2.414-2.5-4.95-3.72-7.542c-0.249-0.53-0.674-1.093-0.671-1.55c0.002-0.312,0.336-0.896,0.567-1.343
		c1.506-2.901,2.998-5.959,4.443-8.832c0.437-0.869,0.765-1.774,1.188-2.634c0.834-1.696,1.7-3.356,2.531-5.062
		c0.4-0.824,0.669-1.77,1.343-2.428c0.802,0.589,0.998,1.642,1.446,2.479c0.885,1.654,1.75,3.382,2.583,5.165
		c1.205,2.582,2.569,5.145,3.822,7.8c2.475,5.247,5.124,10.319,7.696,15.599c1.643,3.374,3.769,6.966,3.099,12.19
		c-0.763,5.948-4.362,10.081-9.091,12.19c-2.573,1.148-5.867,1.56-9.039,0.981c-2.938-0.537-5.219-1.843-7.025-3.564
		c-2.063-1.576-3.277-3.881-4.39-6.25c-1.103-2.347-2.339-4.731-3.513-7.076c-1.781-3.559-3.374-7.223-5.217-10.744
		c-0.301-0.574-0.643-1.121-0.93-1.705c-0.273-0.557-0.402-1.289-0.981-1.653c-0.524,0.417-0.865,1.095-1.188,1.705
		c-0.676,1.275-1.204,2.414-1.911,3.822c-0.223,0.443-0.641,1.743-1.085,1.756c-0.447,0.014-0.831-1.107-0.981-1.395
		c-1.65-3.163-2.989-6.169-4.649-9.349c-0.24-0.461-0.719-1.197-0.723-1.601c-0.007-0.589,0.902-2.119,1.188-2.686
		c2.882-5.731,5.589-11.063,8.419-16.787c0.253-0.51,0.429-1.103,0.672-1.291C40.007,0.057,40.063,0.027,40.124,0.002z"/>
	<path style="fill-rule:evenodd;clip-rule:evenodd;" d="M18.223,0.725c0.561,0.23,1.112,1.772,1.499,2.583
		c1.275,2.681,2.733,5.436,4.028,8.058c4.91,9.929,9.734,19.68,14.721,29.597c0.428,0.851,0.742,1.836,1.447,2.531
		c0.669-0.315,0.827-1.159,1.136-1.756c0.651-1.261,1.313-2.528,1.963-3.822c0.313-0.627,0.543-1.352,1.085-1.808
		c0.548,0.246,0.649,0.911,0.878,1.395c1.191,2.525,2.52,4.932,3.771,7.593c0.405,0.862,1.379,2.267,1.395,3.15
		c0.012,0.664-0.572,1.371-0.878,1.963c-0.97,1.878-1.786,3.866-2.944,5.476c-3.938,0.114-8.822,0.067-13.068,0
		c-0.841-1.083-1.394-2.373-1.963-3.616c-1.142-2.493-2.367-4.994-3.667-7.438c-0.326-0.613-0.552-1.275-0.878-1.911
		c-2.472-4.814-4.785-10.009-7.283-14.876c-0.302-0.587-0.517-1.263-1.033-1.704c-0.657,0.314-0.851,1.085-1.137,1.653
		c-0.62,1.234-1.23,2.438-1.859,3.719c-0.93,1.895-1.597,3.581-2.634,5.63c-0.574,1.134-1.533,2.638-1.653,3.874
		c-0.195,2.005,1.122,3.55,2.376,4.132c1.808,0.838,3.743-0.096,4.598-1.291c0.428-0.6,0.74-1.335,1.033-1.963
		c0.592-1.27,1.346-2.727,2.014-3.977c0.197-0.368,0.747-1.811,1.137-1.808c0.42,0.003,0.651,0.993,0.878,1.498
		c0.692,1.543,1.601,3.186,2.324,4.649c0.774,1.563,1.57,3.009,2.324,4.7c0.247,0.554,0.675,1.233,0.672,1.653
		c-0.004,0.605-0.854,1.655-1.291,2.221c-2.471,3.194-6.015,5.82-11.157,6.198c-2.222,0.164-4.294-0.331-5.992-0.93
		c-3.336-1.176-5.834-3.269-7.696-6.198C0.618,47.15-0.53,43.153,0.248,38.638c0.64-3.709,2.573-6.608,4.08-9.814
		c1.519-3.229,3.165-6.223,4.597-9.297c1.472-3.156,3.021-6.162,4.598-9.297c1.133-2.253,2.139-4.733,3.357-7.025
		C17.323,2.372,17.669,1.343,18.223,0.725z"/>
</g>
<g id="Layer_1">
</g>
</svg>
