<?xml version="1.0" encoding="iso-8859-1"?>
<!-- Generator: Adobe Illustrator 19.2.0, SVG Export Plug-In . SVG Version: 6.00 Build 0)  -->
<svg version="1.1" xmlns="http://www.w3.org/2000/svg" xmlns:xlink="http://www.w3.org/1999/xlink" x="0px" y="0px"
	 viewBox="0 0 73.122 66.435" style="enable-background:new 0 0 73.122 66.435;" xml:space="preserve">
<g id="Marcona_x5F_Mining_x5F_Corporation">
	<path style="fill-rule:evenodd;clip-rule:evenodd;" d="M73.009,24.84c0.168,2.928,0.095,6.126,0.095,9.288
		c0.001,1.028,0.105,2.057-0.19,2.953c-2.619,0.099-5.445,0.093-7.906,0.048c-2.481-0.045-4.474-0.732-5.43-2.62
		c-0.381-0.752-0.64-1.711-0.953-2.619c-0.915-2.659-1.309-5.838-1.952-8.717c-0.426-1.9-1.04-3.626-1.715-5.382
		c-0.548-1.423-1.81-3.334-3.097-4.001c-1.527-0.794-3.371-0.584-4.62,0.19c-3.023,1.874-3.985,6.821-4.811,11.288
		c-0.433,2.344-0.743,4.399-1.334,6.716c-0.538,2.112-1.222,4.39-2.667,5.335c-0.952,0.623-2.215,0.527-3.049,0
		c-1.556-0.985-2.14-3.273-2.715-5.383c-1.215-4.455-1.513-9.047-2.953-13.241c-0.678-1.973-1.691-3.838-3.286-4.811
		c-0.78-0.477-1.736-0.86-3.049-0.714c-2.221,0.246-3.451,2.183-4.286,4.048c-0.901,2.013-1.44,4.237-1.953,6.383
		c-1.039,4.347-1.356,9.916-4.43,12.193c-2.04,1.512-6.028,0.953-9.24,0.953c-1.131-0.001-2.261,0.113-3.287-0.144
		c-0.174-1.895-0.095-4.021-0.095-6.097c0-2.094-0.111-4.197,0.143-6.049c1.669-0.237,3.386-0.047,5.144-0.048
		c1.802,0,3.81,0.24,5.43-0.048c4.175-0.741,5.181-6.197,5.954-10.336c0.875-4.683,1.286-9.517,3.81-12.432
		c1.435-1.432,3.61-1.902,5.335-0.904c1.668,0.966,2.902,3.043,3.667,5.144c0.748,2.056,1.373,4.551,1.715,7.05
		c0.323,2.362,0.804,5.059,1.477,7.287c0.637,2.11,1.665,4.599,3.715,5.049c1.943,0.428,3.135-1.11,3.715-2.429
		c0.751-1.706,1.1-3.85,1.477-5.954c0.381-2.118,0.582-4.335,0.953-6.478c0.649-3.752,2.012-8.338,4.906-9.907
		c1.382-0.749,3.568-0.523,4.715,0.333c2.561,1.91,3.735,6.09,4.573,9.812c0.884,3.924,1.279,8.324,2.763,11.574
		c0.246,0.309,0.482,0.629,0.715,0.952c1.755,1.929,5.613,1.573,9.24,1.572C70.75,24.697,71.96,24.587,73.009,24.84z"/>
	<path style="fill-rule:evenodd;clip-rule:evenodd;" d="M72.961,38.987c0.224,3.721,0.129,7.894,0,12.051
		c-2.447,0.181-4.487,0.154-6.954,0.095c-0.906-0.021-1.773,0.005-2.571-0.095c-2.468-0.308-3.854-1.611-5.002-3.334
		c-1.111-1.667-1.445-3.983-2.048-6.239c-0.389-1.453-0.657-2.983-1.144-4.431c-0.91-2.712-1.673-5.904-4.382-6.811
		c-0.743-0.249-1.952-0.165-2.715,0.237c-3.011,1.59-3.881,6.397-4.62,10.337c-0.4,2.129-0.721,4.282-1.382,6.097
		c-0.66,1.812-1.688,3.56-3,4.478c-0.808,0.563-2.083,0.855-3.191,0.523c-1.908-0.572-3.113-2.453-3.858-4.239
		c-1.626-3.896-1.732-8.862-3.239-12.956c-0.713-1.937-1.845-3.835-3.619-4.477c-2.109-0.764-3.866,0.59-4.716,1.857
		c-0.613,0.913-1.105,2.301-1.477,3.477c-0.774,2.454-1.361,5.296-2.096,7.764c-1.112,3.738-3.047,7.104-7.288,7.479
		c-2.99,0.264-6.158-0.114-9.526-0.191c-0.111-1.962-0.177-4.09-0.095-6.144c0.08-2.012-0.059-4.041,0.142-5.858
		c3.412-0.23,6.701,0.172,9.67-0.048c6.033-0.447,7.521-5.966,8.477-11.717c0.69-4.144,1.168-8.824,5.097-9.812
		c0.399-0.101,1.251,0.063,1.667,0.238c3.315,1.395,3.943,6.217,4.81,10.812c0.78,4.133,1.758,9.052,4.668,10.955
		c1.12,0.732,2.943,0.965,4.191,0.429c3.209-1.379,4.162-6.767,4.906-10.67c0.796-4.172,1.229-9.541,4.287-11.24
		c0.649-0.361,1.876-0.633,2.857-0.286c1.637,0.578,2.56,2.21,3.239,4.001c0.327,0.863,0.745,1.723,0.953,2.668
		c0.635,2.891,1.112,6.048,2.048,8.764c0.306,0.888,0.623,1.771,1.096,2.524c0.44,0.704,0.998,1.469,1.571,2
		C62.349,39.663,68.226,38.674,72.961,38.987z"/>
	<path style="fill-rule:evenodd;clip-rule:evenodd;" d="M72.961,53.181c0.182,3.82,0.099,7.941,0,11.669
		c-1.653,0.325-3.279,0.07-4.858,0.096c-1.668,0.026-3.348,0.065-5.049,0c-2.808-0.105-5.001-2.185-6.145-4.097
		c-1.208-2.02-1.812-5.086-2.477-7.811c-0.624-2.564-1.496-5.752-3.62-6.621c-1.202-0.492-2.4,0.01-3.096,0.619
		c-1.25,1.097-1.869,3.044-2.382,5.049c-1.058,4.142-1.511,8.156-3.524,11.336c-0.882,1.394-2.172,2.847-4.382,3.001
		c-2.177,0.152-3.771-1.139-4.812-2.524c-1.061-1.414-1.797-3.119-2.429-5.001c-1.227-3.658-1.765-8.157-3.763-11.051
		c-0.571-0.827-1.769-2.002-3.382-1.667c-2.417,0.502-3.108,4.226-3.716,6.716c-0.658,2.704-1.294,5.924-2.571,7.859
		c-1.414,2.142-3.44,3.569-6.621,3.811c-2.379,0.181-5.11,0.047-7.573,0.048c-0.812,0-1.649,0.108-2.43-0.143
		c-0.227-2.747-0.095-5.82-0.095-8.859c0-0.991-0.104-2.022,0.19-2.905c3.033-0.13,5.643,0.048,8.383,0.048
		c2.657-0.001,4.851-0.604,6.621-2.191c1.8-1.614,2.793-4.194,3.476-6.858c0.338-1.315,0.721-2.723,1.049-4.097
		c0.332-1.397,0.601-2.807,1.19-3.953c0.728-1.416,2.332-2.933,4.287-1.953c2.929,1.469,3.153,6.92,4.048,10.526
		c0.983,3.961,2.221,7.695,5.192,9.384c2.123,1.206,5.1,0.519,6.478-1.001c3.434-3.155,3.621-9.424,5.049-14.766
		c0.444-1.661,1.307-3.349,2.619-3.953c0.494-0.228,1.484-0.333,2.143-0.095c2.296,0.826,3.102,4.21,3.716,6.716
		c0.705,2.876,1.165,5.866,2.334,8.05c1.194,2.23,3.217,3.954,6.049,4.334c2.34,0.314,5.078,0.144,7.669,0.144
		C71.325,53.038,72.172,52.924,72.961,53.181z"/>
</g>
<g id="Layer_1">
</g>
</svg>
