<?xml version="1.0" encoding="iso-8859-1"?>
<!-- Generator: Adobe Illustrator 19.2.0, SVG Export Plug-In . SVG Version: 6.00 Build 0)  -->
<svg version="1.1" xmlns="http://www.w3.org/2000/svg" xmlns:xlink="http://www.w3.org/1999/xlink" x="0px" y="0px"
	 viewBox="0 0 117.181 146.104" style="enable-background:new 0 0 117.181 146.104;" xml:space="preserve">
<g id="Margaret_x5F_Josefin_x5F_Japan_x5F_Co_x5F_Ltd">
	<path style="fill-rule:evenodd;clip-rule:evenodd;" d="M91.567,34.303c-0.034,13.277-4.458,25.142-13.43,29.259
		c-4.299,1.972-10.773,1.032-11.152-3.957c-0.12-1.586,0.551-3.267,1.199-4.317c2.45-3.968,7.729-5.367,11.152-8.874
		c3.734-3.825,4.598-7.905,5.516-14.39c-1.285,1.076-1.351,2.004-2.278,2.998c-3.139,3.36-7.622,5.243-12.951,4.796
		c-5.534-0.464-10.511-3.871-12.231-8.634c-1.592-4.406-0.3-10.233,2.638-12.591c2.852-2.288,8.366-1.067,8.993,2.878
		c0.332,2.086-0.746,3.677-1.079,5.396c-0.921,4.75,2.25,9.29,7.914,8.034c5.004-1.109,9.069-8.189,6.835-14.989
		c-2.049-6.236-8.306-10.948-14.869-12.591C53.51,3.74,42.504,12.65,38.805,22.432c-0.773,2.045-1.388,4.432-1.919,6.715
		c-0.937,4.036-1.16,9.098-5.636,9.833c-3.961,0.65-6.738-2.515-6.475-6.476c0.576-8.688,5.767-16.806,10.432-21.944
		c4.994-5.499,13.24-10.352,22.304-10.552c14.03-0.311,24.656,7.925,29.738,17.507c2.481,4.678,4.425,10.55,10.312,12.111
		c4.207,1.116,12.046-0.161,11.152,5.996c-0.387,2.664-3.415,4.044-6.235,4.317C96.851,40.484,94.223,36.678,91.567,34.303z"/>
	<path style="fill-rule:evenodd;clip-rule:evenodd;" d="M40.963,42.218c8.264,3.394,20.88,8.587,20.745,20.385
		c-0.043,3.792-3.185,8.489-7.555,6.715c-5.635-2.288-4.226-10.778-8.034-15.589c-2.627-3.319-5.011-4.125-9.113-6.115
		c0.565,1.238,1.532,1.967,2.039,2.997c4.322,8.793-2.364,20.93-13.19,19.786c-3.016-0.319-6.604-2.32-7.674-4.917
		c-1.507-3.658,1.226-6.895,4.317-7.075c2.988-0.174,5.062,3.223,8.634,3.118c4.44-0.131,6.866-5.25,4.796-9.713
		c-1.402-3.023-4.566-5.695-9.953-5.516c-5.812,0.193-10.98,4.156-13.79,7.555c-3.046,3.685-5.606,9.082-5.156,15.948
		c0.678,10.353,7.693,15.048,14.869,19.066c1.398,0.783,3.055,1.341,3.957,2.638c2.523,3.629-0.435,8.264-5.156,7.794
		c-3.266-0.325-6.13-2.832-8.274-4.557C5.821,89.427-0.77,81.709,0.073,68.839c0.333-5.078,2.249-9.136,4.317-12.471
		c4.121-6.648,10.548-11.856,19.306-14.03c4.167-1.034,9.569-1.255,12.831-3.837c1.388-1.098,2.453-2.683,3.237-4.197
		c1.23-2.375,2.502-7.918,7.075-6.355c2.471,0.844,2.841,4.972,1.798,7.795C47.437,38.994,43.718,41.375,40.963,42.218z"/>
	<path style="fill-rule:evenodd;clip-rule:evenodd;" d="M76.578,104.093c-8.929-3.233-21.676-9.025-20.865-21.345
		c0.329-4.996,6.221-8.407,9.953-4.197c2.824,3.186,2.687,9.843,5.156,13.43c2.609,3.789,5.484,4.871,9.713,6.955
		c-2.103-2.922-3.581-5.277-3.478-9.593c0.177-7.335,6.389-13.844,13.55-13.67c3.89,0.094,9.417,2.918,8.994,7.795
		c-0.214,2.47-2.299,4.758-5.276,4.557c-2.214-0.15-3.219-2.022-5.396-2.758c-4.249-1.437-8.34,1.395-8.154,6.236
		c0.222,5.775,6.155,9.665,12.711,8.394c5.623-1.09,10.519-5.009,13.07-8.993c2.198-3.432,4.193-8.292,3.837-14.15
		c-0.574-9.468-6.154-13.627-12.471-17.627c-2.621-1.659-8.47-3.651-6.835-8.633c0.644-1.962,3.233-3.906,6.595-3.118
		c4.262,0.999,9.096,5.485,11.512,8.274c3.041,3.509,5.841,7.704,7.075,12.591c2.886,11.433-1.478,21.096-7.435,27.1
		c-4.414,4.45-9.985,8.2-17.867,9.473c-4.336,0.7-8.485,1.251-11.152,3.957c-2.514,2.551-2.949,8.262-6.476,9.593
		c-3.323,1.254-5.222-1.618-5.156-4.557C68.304,108.441,72.448,105.772,76.578,104.093z"/>
	<path style="fill-rule:evenodd;clip-rule:evenodd;" d="M33.169,114.406c3.341-4.801,7.456-8.397,14.51-7.915
		c7.667,0.525,15.276,7.145,12.951,16.188c-0.43,1.671-1.459,3.943-2.998,5.156c-2.685,2.117-8.298,1.146-8.874-2.998
		c-0.497-3.579,2.358-6.155,0.6-10.073c-2.414-5.378-9.917-3.503-12.711,0.6c-1.247,1.832-2.085,4.542-2.039,7.435
		c0.086,5.336,3.039,8.756,5.876,11.392c6.806,6.323,20.097,7.15,28.779,1.919c6.37-3.838,9.328-9.675,11.272-17.268
		c1.243-4.854,1.381-11.635,7.435-11.512c6.818,0.14,5.064,9.186,3.477,13.91c-0.91,2.71-2.085,5.001-3.238,6.955
		c-2.717,4.606-5.326,8.38-9.353,11.032c-6.188,4.076-13.545,7.969-23.623,6.595c-10.535-1.437-19.22-7.692-23.743-15.829
		c-3.404-6.123-5.034-12.146-13.19-13.43c-3.859-0.607-10.654-0.62-9.113-6.235c0.693-2.527,4.03-3.927,7.315-3.837
		c4.785,0.131,7.527,3.257,9.832,5.756c0.049-7.361,1.525-14.078,4.197-19.546c2.444-5.003,6.749-10.38,13.07-10.912
		c3.813-0.321,7.136,1.944,7.195,5.516c0.038,2.308-1.38,4.466-2.638,5.756c-2.937,3.012-7.358,4.37-10.312,7.914
		C34.876,104.539,33.786,108.366,33.169,114.406z"/>
</g>
<g id="Layer_1">
</g>
</svg>
