<?xml version="1.0" encoding="iso-8859-1"?>
<!-- Generator: Adobe Illustrator 19.2.0, SVG Export Plug-In . SVG Version: 6.00 Build 0)  -->
<svg version="1.1" xmlns="http://www.w3.org/2000/svg" xmlns:xlink="http://www.w3.org/1999/xlink" x="0px" y="0px"
	 viewBox="0 0 79.865 80.713" style="enable-background:new 0 0 79.865 80.713;" xml:space="preserve">
<g id="Maria_x5F_Mazzara">
	<path style="fill-rule:evenodd;clip-rule:evenodd;" d="M79.616,0.124c0.341,3.377,0.074,6.773,0.154,10.139
		c0.08,3.328,0.036,6.658,0,9.982c-0.072,6.689,0.052,13.463,0.052,20.275c0,13.621,0.125,26.443-0.052,39.932
		c-6.334,0.207-12.808,0.154-19.4,0.154c-18.01,0-37.024,0.103-55.421,0.103c-1.599,0-3.219,0.035-4.786-0.154
		C-0.049,59.585-0.02,37.023,0.06,16.386c0.619,0.043,0.994,0.662,1.39,1.029c1.268,1.178,2.45,2.502,3.705,3.756
		c1.666,1.666,3.205,3.445,4.837,5.146c3.262,3.396,6.837,6.516,9.983,9.983C26,42.337,32.504,48.781,38.706,54.98
		c0.357,0.357,0.933,1.121,1.338,1.133c0.376,0.012,0.846-0.561,1.132-0.824c1.032-0.947,1.989-1.994,2.882-2.932
		c3.424-3.314,6.784-6.699,10.138-10.293c0.418-0.447,1.322-1.039,1.338-1.543c0.019-0.617-1.265-1.473-1.75-2.008
		c-0.66-0.727-1.259-1.311-1.853-1.904c-0.619-0.619-1.117-1.375-1.75-2.006c-3.08-3.08-6.384-6.262-9.417-9.264
		c-2.524-2.496-4.953-5.107-7.41-7.564c-2.528-2.527-5.023-5.043-7.462-7.512c-2.935-2.813-5.714-5.918-8.697-8.748
		c-0.395-0.375-0.935-0.76-1.029-1.338C37.293-0.038,58.934-0.059,79.616,0.124z M52.548,10.109c-4.089,0-8.189-0.086-12.144,0.102
		c-0.082,0.477,0.422,0.752,0.669,1.029c0.889,1.006,1.803,1.856,2.727,2.779c6.132,6.133,12.049,12.549,18.371,18.422
		c2.224,2.066,4.319,4.336,6.484,6.381c0.287,0.272,0.632,0.682,1.081,0.67c0.228-8.412,0.052-17.285,0.051-25.73
		c0-1.193,0.125-2.41-0.154-3.551C64.258,9.984,58.365,10.107,52.548,10.109z M65.825,45.048
		c-3.597,3.455-7.104,7.248-10.549,10.705c-3.527,3.539-6.931,7.201-10.446,10.754c-0.606,0.578-1.225,1.143-1.801,1.75
		c-0.565,0.596-1.28,1.127-1.595,1.955c1.11,0.275,2.278,0.154,3.448,0.154c8.32,0,16.904,0.076,24.855-0.103
		c0.196-1.104,0.208-2.309,0.154-3.447c-0.057-1.184-0.052-2.354-0.052-3.551c0.001-4.781,0-9.525,0-14.512
		c0.001-1.232,0-2.469,0-3.705c0.001-1.203,0.126-2.447-0.154-3.602c-0.034,0-0.068,0-0.103,0
		C68.215,42.423,67.077,43.845,65.825,45.048z M10.249,41.859c-0.091,1.012-0.052,2.369-0.052,3.601
		c0,8.012,0.052,15.531,0.052,23.156c0,0.572-0.116,1.17,0.154,1.699c9.485,0.191,19.444,0.109,28.817-0.053
		c0.032-0.496-0.447-0.734-0.72-1.029c-0.892-0.955-1.682-1.914-2.676-2.727c-2.007-2.127-4.292-4.02-6.33-6.176
		c-4.112-4.35-8.34-8.236-12.607-12.504c-1.508-1.508-3.156-3.103-4.734-4.684c-0.502-0.502-1.314-1.346-1.75-1.439
		C10.329,41.734,10.278,41.784,10.249,41.859z"/>
</g>
<g id="Layer_1">
</g>
</svg>
