<?xml version="1.0" encoding="iso-8859-1"?>
<!-- Generator: Adobe Illustrator 19.2.0, SVG Export Plug-In . SVG Version: 6.00 Build 0)  -->
<svg version="1.1" xmlns="http://www.w3.org/2000/svg" xmlns:xlink="http://www.w3.org/1999/xlink" x="0px" y="0px"
	 viewBox="0 0 77.801 82.991" style="enable-background:new 0 0 77.801 82.991;" xml:space="preserve">
<g id="Market_x5F_Technicians_x5F_Association">
	<path style="fill-rule:evenodd;clip-rule:evenodd;" d="M4.83,0.147c3.131-0.288,6.92-0.078,10.164,0c3.367,0.081,6.768,0,10.113,0
		c14.674,0,29.896,0.154,44.967,0.154c1.83,0,3.381-0.073,4.57,0.462c1.262,0.568,2.016,1.402,2.566,2.515
		c0.586,1.187,0.565,2.627,0.565,4.466c0.002,20.625-0.002,39.554,0,60.215c0,1.629-0.08,3.312-0.051,4.928
		c0.029,1.656,0.121,3.289,0.051,4.774c-0.149,3.094-2.117,4.929-4.928,5.185c-3.266,0.297-6.719,0.054-10.062,0
		c-9.851-0.16-20.24-0.053-30.184-0.052c-7.867,0.001-16.742-0.103-25.102-0.103c-1.728,0-3.352,0.013-4.518-0.513
		c-1.203-0.543-2.031-1.517-2.516-2.567c-0.537-1.162-0.463-2.785-0.463-4.569c0-16.602,0.051-33.54,0.053-49.742
		c0-6.443,0-12.805,0-19.712C0.056,2.152,2.248,0.384,4.83,0.147z M5.959,7.847c-0.314,1.041-0.154,2.667-0.154,4.055
		c0,4.334,0,8.85,0,12.782c0,15.505,0,30.886,0,46.508c0,1.67-0.16,3.192,0.205,4.055c0.769,1.814,2.816,1.591,5.494,1.591
		c4.494,0.001,8.115,0.051,12.422,0.051c11.572,0.002,21.713,0.105,33.264,0.103c2.682-0.001,5.523,0.051,8.316,0.051
		c1.457-0.001,2.998,0.125,4.158-0.051c2.686-0.41,2.26-3.152,2.26-6.16c-0.002-19.757,0-39.161,0-58.777
		c0-1.458,0.205-3.014-0.104-4.055c-0.617-2.087-2.908-1.797-5.697-1.797c-6.31,0-12.84-0.103-19.148-0.103
		C36.57,6.103,26.57,6.05,16.072,6.05c-2.553,0-5.498-0.299-7.854,0C7.126,6.189,6.306,6.696,5.959,7.847z"/>
	<path style="fill-rule:evenodd;clip-rule:evenodd;" d="M19.306,9.028c0.133,18.896,0.102,37.525,0.102,56.775
		c0,1.367-0.115,2.748-0.051,4.107c0.061,1.278,0.158,2.597-0.104,3.85c-3.602,0.18-7.697,0.149-11.035-0.051
		c-0.191-5.267-0.103-10.686-0.103-16.119c0.002-15.565,0-31.275,0-46.919c0-0.551-0.164-1.275,0.258-1.746
		C11.935,8.837,15.861,8.826,19.306,9.028z"/>
	<path style="fill-rule:evenodd;clip-rule:evenodd;" d="M69.562,9.336c0.125,5.396,0.101,10.751,0.101,16.17
		c0.002,5.385,0.084,10.868,0,16.427c-0.164,10.897,0.15,21.439-0.154,32.135c-1.707,0.187-3.658,0.103-5.543,0.103
		c-1.883,0-3.779,0.063-5.391-0.205c-0.152-15.842-0.121-32.867-0.102-49.127c0.004-4.66,0.051-8.937,0.051-13.963
		c0-0.314-0.039-0.571,0-1.026c0.072-0.866,0.227-0.663,0.564-0.719c0.795-0.13,1.742,0.051,2.67,0.051c0.892,0,1.811,0,2.668,0
		C66.298,9.182,68.054,9.092,69.562,9.336z"/>
	<path style="fill-rule:evenodd;clip-rule:evenodd;" d="M31.933,25.506c0.117,9.283,0.104,19.067,0.104,28.387
		c0,1.327,0.125,2.704-0.154,4.004c-3.494,0.178-7.475,0.092-10.883-0.051c-0.246-5.199-0.154-10.773-0.154-16.222
		c0-4.689,0.053-9.56,0.053-14.476c-0.002-0.59-0.18-1.326,0.256-1.796C24.509,25.36,28.556,25.214,31.933,25.506z"/>
	<path style="fill-rule:evenodd;clip-rule:evenodd;" d="M56.779,25.506c0.299,2.582,0.104,5.242,0.104,7.905
		c0,5.421,0,10.928,0,16.324c0,1.401-0.065,2.82,0,4.209c0.062,1.334,0.178,2.698-0.104,4.004c-1.703,0.185-3.649,0.103-5.543,0.103
		c-1.916,0-3.838,0.119-5.494-0.154c-0.211-7.735-0.102-16.261-0.102-24.486c0-1.401-0.055-2.803,0-4.158
		c0.051-1.275-0.133-2.546,0.154-3.747C49.218,25.335,53.355,25.336,56.779,25.506z"/>
	<path style="fill-rule:evenodd;clip-rule:evenodd;" d="M44.408,41.573c0.16,10.625,0.168,21.578,0,32.34
		c-0.865,0.269-1.838,0.159-2.771,0.154c-2.617-0.014-5.562,0.093-8.316-0.154c-0.143-10.463-0.186-21.448,0-32.34
		C36.959,41.399,40.783,41.383,44.408,41.573z"/>
</g>
<g id="Layer_1">
</g>
</svg>
