<?xml version="1.0" encoding="iso-8859-1"?>
<!-- Generator: Adobe Illustrator 19.2.0, SVG Export Plug-In . SVG Version: 6.00 Build 0)  -->
<svg version="1.1" xmlns="http://www.w3.org/2000/svg" xmlns:xlink="http://www.w3.org/1999/xlink" x="0px" y="0px"
	 viewBox="0 0 138.385 120.917" style="enable-background:new 0 0 138.385 120.917;" xml:space="preserve">
<g id="Maruhachi_x5F_Floss">
	<path style="fill-rule:evenodd;clip-rule:evenodd;" d="M83.057,24.461c9.134,0.543,17.438-0.205,26.271,0.359
		c9.173,0.586,16.763,5.517,21.714,11.277c1.298,1.509,2.622,3.998,3.6,5.998c1.887,3.862,3.343,8.93,3.599,14.035
		c0.314,6.279,0.023,12.359,0,18.715c-0.033,9.162-3.257,16.9-8.157,22.674c-0.303,3.057-1.098,6.367-1.8,9.837
		c-0.633,3.121-0.744,6.464-1.439,9.357c-0.427,1.775-1.584,3.703-3.359,4.079c-4.43,0.935-5.174-3.616-5.758-7.078
		c-0.453-2.682-0.319-5.279-1.2-7.318c-6.121,1.965-13.058,1.653-18.954,0.24c-1.457,3.901-1.347,9.37-3.239,12.836
		c-1.666,1.539-4.301,1.712-6.118,0.36c-2.281-3.455-1.784-9.306-3.119-13.437c-5.762,1.677-13.113,1.721-19.074,0
		c-1.958,4.038-0.528,13.764-5.759,14.276c-1.982,0.193-2.671-0.947-3.959-1.68c-1.481-4.312-1.453-8.044-2.399-12.597
		c-5.795,1.381-12.792,1.906-18.834,0c-2.031,4.409-0.678,15.705-7.198,14.276c-0.866-0.19-1.124-0.631-2.039-0.96
		c-0.169-0.472-0.377-0.903-0.84-1.08c-1.157-5.273-1.863-10.639-2.759-17.154c-0.42-3.052-1.433-4.797-3-6.719
		c-0.934-1.146-2.401-3.215-3.118-4.679c-0.461-0.94-0.476-2.111-0.84-2.999c-0.641-1.563-1.366-2.48-1.56-3.839
		c-0.04-0.279,0.182-0.549,0.119-0.84c-0.624-2.944-0.946-9.846-0.839-13.916c0.257-9.774,0.21-19.44,0.239-29.871
		C2.765,37.315-2.737,25.706,1.361,15.583c0.998-2.467,3.304-5.573,5.278-7.078c3.665-2.793,10.276-5.257,15.715-3
		c1.359-0.659,2.649-1.498,4.079-2.279c2.427-1.325,6.084-2.035,9.117-2.639c8.646-1.722,18.409,0.456,25.073,5.039
		C72.999,2.509,83.654,10.408,83.057,24.461z M33.032,12.464c2.727,5.341,3.325,12.203,4.438,18.235
		c0.301,1.63,0.213,3.079,0.959,4.078c1.002,1.34,3.545,1.797,5.039,0.84c1.607-1.029,2.323-5.717,2.64-8.037
		c0.396-2.91,0.515-5.503,1.679-7.918c0.272-2.576,1.829-4.884,2.999-6.958C44.985,10.153,38.896,10.068,33.032,12.464z
		 M67.701,30.939c5.364-0.086,7.198-6.751,5.039-11.156c-1.279-2.61-4.467-4.334-7.558-4.199
		c-10.913,0.479-7.942,17.008-12.356,24.233c-0.924,1.511-2.63,3.427-4.199,4.318c-6.72,3.818-14.803,1.494-18.355-3.959
		c-3.768-5.785-2.324-15.268-5.519-20.994c-3.955-6.317-15.158-4.022-15.475,3.959c-0.148,3.736,1.705,7.232,5.398,7.559
		c3.889,0.342,6.387-2.79,5.278-6.238c3.763,1.222,3.969,5.586,4.079,9.717c0.277,10.344-0.088,21.851-0.12,31.671
		c-0.024,7.439-0.174,14.947,2.52,19.914c3.303,6.091,8.494,9.978,15.836,11.037c8.44,1.218,15.534-4.019,18.954-8.878
		c2.448-3.478,3.476-8.521,3.359-12.716c1-2.796,2.875-4.83,6.357-4.319c2.754,0.404,4.53,2.854,4.439,6.599
		c-0.173,7.068-3.142,13.594-6.358,18.114c3.383,1.89,9.49,1.348,12.236,0.36c0.93-0.335,2.68-0.783,3.479-1.2
		c4.246-2.212,8.434-6.952,9.957-11.036c0.7-1.876,1.034-4.511,1.32-6.838c0.134-1.091,0.096-2.182,0.6-3.119
		c0.99-1.845,3.835-3.172,6.118-2.64c3.438,0.803,4.696,5.062,4.079,8.877c-1.042,6.433-3.579,11.755-6.479,15.716
		c5.653,2.246,12.401,1.31,17.155-1.56c2.158-1.303,5.173-4.314,6.478-6.358c2.936-4.596,3.658-11.311,3.479-17.395
		c-0.16-5.425,0.19-10.874-0.24-16.795c-0.251-3.455-2.008-6.845-3.599-9.237c-2.634-3.96-7.483-7.551-12.477-8.277
		c-1.346-0.196-1.566-0.154-2.639-0.24c-7.489-0.601-17.595-0.358-25.673-0.48c-0.754-0.011-1.593,0-2.399,0
		c-1.044,0.001-2.582-0.084-3.359,0.36c-1.317,0.754-2.835,2.342-4.198,2.759c-3.869,1.131-9.418,0.038-11.877-3.119
		c-2.494-3.203-2.286-8.58,1.8-10.677C62.565,28.347,64.354,30.992,67.701,30.939z"/>
	<path style="fill-rule:evenodd;clip-rule:evenodd;" d="M13.237,20.741C13.187,20.692,13.316,20.82,13.237,20.741L13.237,20.741z"/>
</g>
<g id="Layer_1">
</g>
</svg>
