<?xml version="1.0" encoding="iso-8859-1"?>
<!-- Generator: Adobe Illustrator 21.0.2, SVG Export Plug-In . SVG Version: 6.00 Build 0)  -->
<svg version="1.1" xmlns="http://www.w3.org/2000/svg" xmlns:xlink="http://www.w3.org/1999/xlink" x="0px" y="0px"
	 viewBox="0 0 34.561 34.267" style="enable-background:new 0 0 34.561 34.267;" xml:space="preserve">
<g id="Mash_x5F_Creative">
	<g>
		<path d="M8.605,0c5.749-0.002,11.5,0.006,17.249,0.01c0.021,2.847,0.009,5.694,0.008,8.54c-2.856,0.042-5.713-0.003-8.57,0.014
			c0.019,2.829-0.009,5.66,0.02,8.489c5.727,0.068,11.446,0.018,17.176,0.055c0.08,0.485,0.064,0.979,0.05,1.47
			c0.026,2.368-0.006,4.739,0.024,7.107c-2.876,0-5.761-0.008-8.631,0.028c-0.125,2.842,0.13,5.719-0.098,8.553
			c-2.857-0.113-5.732,0.042-8.588-0.091c0.043-0.929-0.015-1.855,0.042-2.777c-0.075-2.412-0.043-4.839-0.024-7.254
			c-0.048-2.274-0.01-4.55-0.024-6.824c0.036-0.189-0.175-0.212-0.309-0.2c-1.311,0.019-2.621-0.004-3.931,0.014
			c-0.42-0.011-0.841-0.019-1.261,0.001c-1.021-0.024-2.041-0.012-3.063-0.011c-0.012,2.847,0.001,5.694,0,8.541
			c-2.876,0.015-5.752,0.006-8.628,0.006C0.042,20.049-0.02,14.433,0.007,8.809C0.018,8.66,0.03,8.436,0.236,8.489
			c2.768,0.001,5.536-0.004,8.304,0C8.68,5.666,8.552,2.83,8.605,0z"/>
	</g>
</g>
<g id="Layer_1">
</g>
</svg>
