<?xml version="1.0" encoding="iso-8859-1"?>
<!-- Generator: Adobe Illustrator 19.2.0, SVG Export Plug-In . SVG Version: 6.00 Build 0)  -->
<svg version="1.1" xmlns="http://www.w3.org/2000/svg" xmlns:xlink="http://www.w3.org/1999/xlink" x="0px" y="0px"
	 viewBox="0 0 73.88 79.605" style="enable-background:new 0 0 73.88 79.605;" xml:space="preserve">
<g id="Matsushita_x5F_Electric_x5F_Works">
	<path style="fill-rule:evenodd;clip-rule:evenodd;" d="M73.716,0.242c0.181,6.296,0.117,13.341,0.049,19.563
		c-11.558,0.487-24.064-0.282-35.907,0.049c-3.644,0.102-6.606,1.438-9.025,3.025c-4.748,3.113-8.419,8.096-9.026,15.124
		c-0.345,4,0.572,7.381,1.854,10.099c1.312,2.779,3.106,4.882,5.268,6.781c1.473,1.223,3.107,2.221,4.928,3.122
		c1.859,0.92,3.902,1.371,6.488,1.562c2.545,0.187,5.235,0.049,7.904,0.049c2.64,0,5.297,0.08,7.903-0.098
		c0.221-2.974,0.201-6.478,0.049-9.416c-0.832-0.261-1.733-0.146-2.635-0.146c-2.562,0-5.419-0.049-8.147-0.049
		c-1.885,0.001-3.706,0.152-5.317-0.049c-1.503-0.188-2.866-0.749-4.001-1.512c-2.111-1.419-3.797-3.888-4.244-6.83
		c-0.567-3.728,0.793-6.26,2.391-8.44c1.003-0.904,1.992-1.741,3.317-2.293c1.413-0.589,2.961-0.683,4.928-0.683
		c10.905,0.001,22.479-0.006,33.272,0.195c0.205,15.977,0.08,33.026,0.049,49.129c-0.043,0.021-0.088,0.043-0.098,0.097
		c-11.669,0.158-23.497,0.047-35.078,0.049c-3.746,0.001-7.203-0.633-10.294-1.561c-5.831-1.75-11.048-4.977-15.173-8.635
		c-6.314-5.6-10.822-13.03-12.587-23.076c-0.604-3.443-0.776-7.551-0.342-11.172c0.852-7.079,3.124-12.607,6.196-17.564
		c2.934-4.731,7.133-8.823,12.001-11.758c3.813-2.298,7.83-4.074,12.734-5.122c1.654-0.354,3.506-0.581,5.464-0.634
		c3.004-0.082,6.104-0.047,9.172,0.049c3.078,0.097,6.199,0,9.318,0C61.346,0.096,67.635,0.109,73.716,0.242z"/>
</g>
<g id="Layer_1">
</g>
</svg>
