<?xml version="1.0" encoding="iso-8859-1"?>
<!-- Generator: Adobe Illustrator 19.2.0, SVG Export Plug-In . SVG Version: 6.00 Build 0)  -->
<svg version="1.1" xmlns="http://www.w3.org/2000/svg" xmlns:xlink="http://www.w3.org/1999/xlink" x="0px" y="0px"
	 viewBox="0 0 71.575 72.7" style="enable-background:new 0 0 71.575 72.7;" xml:space="preserve">
<g id="Matsuura_x5F_Kensetu">
	<path style="fill-rule:evenodd;clip-rule:evenodd;" d="M49.389,25.139c1.254,0.677,4.04-0.179,5.293,0.5
		c-0.527,1.67-1.754,2.905-2.197,4.494c0.78-0.015,1.434-0.534,2.047-0.899c1.908-1.135,3.798-2.144,5.792-3.295
		c1.803-1.041,3.811-2.16,5.743-3.346c0.472-0.29,1.525-1.086,1.947-1.049c0.5,0.044,0.765,1.092,0.999,1.748
		c0.26,0.73,0.551,1.341,0.749,1.947c1.321,4.042,2.124,9.084,1.698,14.531c-0.521,6.663-2.738,11.898-5.493,16.229
		c-4.913,7.595-11.96,13.577-22.121,15.979c-1.446,0.342-2.993,0.753-4.594,0.599c-0.395-0.582-0.25-1.385-0.25-2.097
		c0-3.885-0.011-7.513,0.05-11.485c0.023-1.538,0.103-3.102-0.15-4.544c-0.501-0.042-0.64,0.592-0.849,0.949
		c-0.483,0.825-0.875,1.465-1.398,2.397c-0.152,0.27-0.517,1.003-0.849,0.999c-0.386-0.005-0.654-0.796-0.799-1.048
		c-0.648-1.131-1.313-2.369-2.147-3.246c-0.349,0.604-0.2,1.439-0.2,2.197c0,3.928-0.156,7.782,0,11.585
		c0.028,0.684-0.01,1.362-0.05,2.197c-0.034,0.724,0.132,1.807-0.249,2.097c-0.414,0.314-1.985-0.057-2.696-0.2
		c-9.761-1.968-16.745-6.685-21.921-13.233c-0.892-1.128-1.763-2.405-2.597-3.795c-0.786-1.31-1.717-2.737-2.197-4.145
		c-1.257-3.686-2.583-7.663-2.896-12.334c-0.052-0.782-0.037-1.605-0.05-2.397c-0.082-5.226,1.194-9.759,2.597-13.682
		c0.164-0.458,0.177-1.024,0.599-1.348c0.79,0.084,1.4,0.617,2.047,0.999c3.809,2.25,7.686,4.492,11.585,6.691
		c0.625,0.352,1.246,0.853,1.998,0.899c0.086-0.458-0.256-0.829-0.45-1.199c-0.191-0.365-0.385-0.745-0.599-1.098
		c-0.424-0.7-0.953-1.404-1.049-2.247c1.337-0.484,3.715,0.02,5.193-0.35c0.003-0.452-0.495-0.615-0.799-0.799
		c-4.168-2.522-8.405-4.891-12.733-7.44c-0.409-0.241-1.731-0.829-1.798-1.298c-0.078-0.55,0.753-1.378,0.999-1.698
		c0.435-0.565,0.836-0.94,1.198-1.448C14.7,6.147,21.992,0.837,33.71,0.071c7.714-0.504,13.973,1.741,19.025,4.444
		c1.194,0.639,2.341,1.515,3.496,2.347c2.845,2.05,5.266,4.184,7.49,7.091c0.369,0.482,1.167,1.325,1.148,1.748
		c-0.019,0.441-0.845,0.81-1.298,1.049c-3.579,1.89-6.946,4.036-10.436,5.942c-0.585,0.45-1.287,0.761-1.948,1.148
		C50.554,24.211,49.839,24.578,49.389,25.139z M52.585,12.555C48.005,9.223,41.926,6.54,33.76,7.062
		c-3.628,0.232-6.713,1.063-9.687,2.347c-2.056,0.887-3.84,1.986-5.593,3.246c-0.459,0.33-1.527,1.087-1.498,1.498
		c0.021,0.309,0.637,0.634,0.999,0.849c2.812,1.673,5.599,3.15,8.239,4.794c2.418,1.26,4.622,2.749,7.041,4.095
		c0.538,0.3,1.838,1.274,2.497,1.249c0.612-0.024,1.626-0.851,2.247-1.199c1.654-0.923,2.919-1.686,4.444-2.546
		c0.769-0.434,1.451-0.963,2.147-1.349c2.896-1.605,5.871-3.268,8.639-4.943c0.373-0.226,0.92-0.415,1.049-0.899
		C53.999,13.463,53.221,13.018,52.585,12.555z M23.923,40.918c-0.774-0.466-1.594-0.897-2.397-1.348
		c-3.913-2.201-7.842-4.529-11.785-6.841c-0.821-0.481-1.888-1.368-2.646-1.198c-0.313,0.466-0.487,1.902-0.549,2.747
		c-0.246,3.32,0.161,6.572,0.749,9.038c1.697,7.117,5.295,12.26,10.087,16.179c1.78,1.456,3.888,2.818,6.092,3.795
		c0.759,0.337,1.57,0.824,2.447,0.749c0.314-0.779,0.22-1.702,0.199-2.546c-0.148-6.195,0.168-12.941-0.05-19.025
		C25.494,41.807,24.678,41.373,23.923,40.918z M47.791,63.488c1.308-0.578,2.564-1.24,3.695-1.997
		c2.786-1.866,5.405-4.188,7.44-6.941c3.643-4.926,6.619-11.504,5.892-20.224c-0.061-0.737-0.068-3.151-1.049-2.597
		c-5.252,2.971-10.825,6.138-16.029,9.238c-0.74,0.441-1.642,0.759-2.147,1.498c-0.142,6.157-0.1,12.783-0.1,19.025
		c0,0.872-0.119,1.779,0.15,2.596C46.445,64.171,47.158,63.769,47.791,63.488z M28.167,32.179c-0.065,0.686,0.388,1.293,0.699,1.848
		c1.898,3.385,3.935,6.771,5.792,10.087c0.304,0.543,0.487,1.302,1.149,1.548c0.847-0.932,1.429-2.088,2.047-3.196
		c1.555-2.785,3.218-5.593,4.744-8.339c0.31-0.559,0.721-1.136,0.748-1.797c-0.474-0.348-1.085-0.169-1.647-0.15
		c-4.389,0.152-8.915-0.186-13.333-0.1C28.293,32.105,28.241,32.153,28.167,32.179z"/>
</g>
<g id="Layer_1">
</g>
</svg>
