<?xml version="1.0" encoding="iso-8859-1"?>
<!-- Generator: Adobe Illustrator 19.2.0, SVG Export Plug-In . SVG Version: 6.00 Build 0)  -->
<svg version="1.1" xmlns="http://www.w3.org/2000/svg" xmlns:xlink="http://www.w3.org/1999/xlink" x="0px" y="0px"
	 viewBox="0 0 70.959 69.735" style="enable-background:new 0 0 70.959 69.735;" xml:space="preserve">
<g id="Matsubara_x5F_Shirts">
	<path style="fill-rule:evenodd;clip-rule:evenodd;" d="M35.553,12.837c0.61-0.184,0.591-0.907,0.807-1.377
		c0.648-1.409,1.516-2.876,2.468-4.034c2.509-3.24,5.775-5.523,10.348-6.456c5.245-1.069,10.206,0.285,13.528,2.374
		c3.469,2.181,5.96,5.265,7.357,9.398c0.371,1.096,0.566,2.298,0.665,3.56c0.303,3.897,0.095,8.184,0.095,12.247
		c0,5.493,0.048,10.591,0.047,16.328c0,2.814,0.167,5.711,0.047,8.26c-0.114,2.462-0.848,4.751-1.756,6.598
		c-1.843,3.75-4.758,6.487-8.545,8.212c-2,0.911-4.026,1.537-6.788,1.614c-8.101,0.226-15.917,0.144-24.398,0.142
		c-2.622,0-5.465-0.104-8.117,0c-2.778,0.11-5.477-0.056-7.737-0.616c-4.416-1.098-7.738-3.503-10.063-6.693
		c-1.189-1.632-2.211-3.48-2.8-5.601C0.111,54.625-0.003,52.094,0,49.245c0.01-8.377,0.177-16.581,0.095-24.588
		c-0.027-2.684-0.057-5.405,0.095-8.069c0.299-5.255,2.321-8.851,5.079-11.677c2.716-2.782,6.673-4.561,11.867-4.89
		c2.262-0.144,5.017,0.478,6.788,1.092c4.748,1.649,8.034,5.111,10.158,9.304C34.509,11.26,34.881,12.176,35.553,12.837z
		 M18.038,18.771c-0.085,1.183-0.047,2.736-0.047,4.13c0,7.061,0.047,13.869,0.047,20.647c0,2.754-0.112,5.496,0.143,8.165
		c4.765,0.164,10.015,0.096,14.952,0.095c0.686,0,1.408,0.112,2.041-0.143c-0.099-0.787-0.59-1.457-0.949-2.136
		c-0.366-0.691-0.69-1.403-1.044-2.089c-2.142-4.147-4.285-8.239-6.36-12.437c-1.345-2.72-2.792-5.432-4.225-8.259
		c-1.012-1.997-2.096-4.149-3.181-6.219c-0.315-0.603-0.874-1.769-1.281-1.898C18.066,18.641,18.079,18.732,18.038,18.771z
		 M52.499,19.103c-0.628,0.801-1.005,2.015-1.566,3.038c-3.825,6.971-7.502,14.426-11.107,21.312
		c-0.756,1.306-1.451,2.672-2.136,4.035c-0.686,1.363-1.546,2.667-1.852,4.225c1.291,0.156,2.689,0.143,4.13,0.143
		c2.911,0,5.868,0.05,8.686-0.048c1.467-0.051,2.932,0.153,4.272-0.143c0.245-8.308-0.037-16.558,0.047-24.588
		c0.025-2.355,0.037-4.929-0.047-7.215c-0.01-0.279,0.125-0.717-0.19-0.902C52.6,18.992,52.523,19.073,52.499,19.103z"/>
</g>
<g id="Layer_1">
</g>
</svg>
