<?xml version="1.0" encoding="iso-8859-1"?>
<!-- Generator: Adobe Illustrator 19.2.0, SVG Export Plug-In . SVG Version: 6.00 Build 0)  -->
<svg version="1.1" xmlns="http://www.w3.org/2000/svg" xmlns:xlink="http://www.w3.org/1999/xlink" x="0px" y="0px"
	 viewBox="0 0 75.869 43.231" style="enable-background:new 0 0 75.869 43.231;" xml:space="preserve">
<g id="Matthews_x5F_Real_x5F_Estate">
	<path style="fill-rule:evenodd;clip-rule:evenodd;" d="M39.184,7.033c2.105-1.853,2.806-5.041,5.317-6.391
		c0.683-0.366,1.662-0.597,2.488-0.585c4.282,0.058,5.152,4.798,7.562,6.976c0.562-0.145,0.738-0.758,1.024-1.171
		c0.856-1.234,1.742-2.57,2.586-3.853c0.971-1.652,4.041-2.52,6.244-1.513c0.586,0.268,0.976,0.725,1.464,1.024
		c2.793,4.14,5.973,8.716,8.878,13.074c0.348,0.521,1.119,1.473,1.122,2c0.005,0.702-0.869,1.48-1.22,2
		c-0.489,0.727-0.76,1.351-1.365,1.806c-0.54-0.344-0.822-0.966-1.171-1.464c-2.126-3.031-4.119-6.124-6.293-9.269
		c-0.282-0.408-0.775-1.407-1.171-1.415c-0.51-0.011-1.1,1.294-1.317,1.61c-0.881,1.28-1.486,2.219-2.342,3.512
		c-0.32,0.485-1.118,1.259-1.122,1.806c-0.003,0.451,0.68,1.204,0.976,1.658c1.033,1.584,2.209,3.233,3.171,4.733
		c1.396,2.174,3.008,4.114,4.148,6.342c-0.208,0.792-0.756,1.426-1.171,2.049c-0.427,0.64-0.825,1.318-1.415,1.805
		c-0.897-0.788-1.478-1.959-2.195-2.976c-1.421-2.011-2.741-4.118-4.195-6.146c-0.716-0.999-1.261-2.124-2.146-2.977
		c-0.563,0.412-0.927,1.031-1.317,1.61c-0.782,1.161-1.443,2.206-2.293,3.464c-0.311,0.46-1.062,1.281-1.073,1.805
		c-0.01,0.474,0.756,1.452,1.073,1.902c0.443,0.63,0.816,1.192,1.171,1.757c0.78,1.242,1.734,2.288,2.391,3.464
		c0.288,0.517,0.452,1.043,0.78,1.512c0.906,1.299,1.983,2.738,2.684,4.195c-0.216,0.805-0.782,1.416-1.22,2.049
		c-0.431,0.623-0.78,1.36-1.415,1.806c-0.569-0.351-0.673-1.049-1.024-1.562c-1.695-2.469-3.597-5.026-5.22-7.61
		c-0.647-1.031-1.271-2.121-2.146-2.976c-0.611,0.215-0.854,0.887-1.171,1.366c-0.991,1.5-2.022,3.019-3.073,4.537
		c-1.387,2.002-2.676,4.092-4.195,5.951c-2.971-0.012-6.833,0.182-10.099-0.049c0.27-0.964,0.968-1.72,1.513-2.537
		c2.719-4.076,5.574-8.257,8.342-12.391c1.105-1.651,2.343-3.214,3.268-4.977c-0.331-0.881-1.055-1.753-1.659-2.634
		c-0.173-0.253-0.426-0.723-0.683-0.732c-0.366-0.013-0.88,0.908-1.171,1.317c-2.36,3.319-4.701,7.025-6.976,10.343
		c-2.041,2.979-3.934,5.898-6,8.83c-0.685,0.972-1.259,2.033-2.098,2.829c-3.208,0.054-6.888,0.156-9.952-0.098
		c0.15-0.77,0.746-1.361,1.171-2c1.289-1.935,2.534-4.012,3.903-5.902c2.498-3.802,5.248-7.621,7.902-11.709
		c2.159-3.324,4.59-6.814,6.928-10.196c0.291-0.421,0.921-1.171,0.927-1.512c0.007-0.412-0.845-1.464-1.073-1.805
		c-0.434-0.649-0.723-1.182-1.269-1.562c-0.717,0.482-1.194,1.286-1.658,2c-3.329,5.119-6.787,10.163-10.294,15.27
		c-1.468,2.138-2.929,4.352-4.439,6.537c-0.497,0.72-0.922,1.503-1.414,2.244c-1.613,2.426-3.495,5.021-5.221,7.562
		c-0.302,0.445-0.52,0.902-0.78,1.024c-0.533,0.25-1.671,0.098-2.487,0.098c-2.58,0-5.298-0.047-7.66-0.098
		c-0.076-0.443,0.318-0.767,0.537-1.073c3.439-4.825,6.787-9.918,10.146-14.879c3.6-5.313,7.15-10.65,10.732-15.952
		c1.154-1.69,2.316-3.455,3.611-5.317c1.514-2.179,2.718-5.394,6.098-5.562C35.98-0.233,36.529,4.779,39.184,7.033z M49.184,8.253
		c-0.397,0.408-0.806,1.09-1.22,1.659c-0.414,0.569-0.782,1.193-1.122,1.707c-0.791,1.196-1.714,2.243-2.195,3.513
		c0.146,0.727,0.65,1.298,1.024,1.853c0.372,0.553,0.662,1.274,1.317,1.562c0.891-0.869,1.606-2.115,2.488-3.415
		c0.353-0.52,0.72-1.102,1.171-1.757c0.35-0.509,1.099-1.337,1.073-1.902c-0.025-0.544-0.768-1.261-1.073-1.707
		c-0.424-0.623-0.744-1.171-1.22-1.61c-0.033,0-0.065,0-0.098,0C49.273,8.179,49.221,8.208,49.184,8.253z"/>
</g>
<g id="Layer_1">
</g>
</svg>
