<?xml version="1.0" encoding="iso-8859-1"?>
<!-- Generator: Adobe Illustrator 19.2.0, SVG Export Plug-In . SVG Version: 6.00 Build 0)  -->
<svg version="1.1" xmlns="http://www.w3.org/2000/svg" xmlns:xlink="http://www.w3.org/1999/xlink" x="0px" y="0px"
	 viewBox="0 0 77.812 78.399" style="enable-background:new 0 0 77.812 78.399;" xml:space="preserve">
<g id="MDM_x5F_64">
	<path style="fill-rule:evenodd;clip-rule:evenodd;" d="M77.637,0.316c0.269,1.166,0.148,2.443,0.148,3.719
		c0,3.707,0.065,7.693-0.1,11.355c-2.58,0.27-5.223,0.15-7.835,0.15c-18.484-0.006-37.062-0.228-55.047-0.1
		c-0.256,0.863-0.189,1.82-0.198,2.727c-0.067,6.83,0.274,14.002-0.05,20.828c-0.093,1.957,0.074,3.92,0,5.902
		c-0.221,5.875,0.124,11.936,0.05,17.803c0.044,0.024,0.089,0.045,0.099,0.1c3.901,0.277,7.892,0.094,11.852,0.199
		c4.025,0.105,8.125,0.049,12.249,0.049c8.112,0.002,16.359,0.092,24.399,0c0.054-0.012,0.033-0.098,0.1-0.1
		c0.271-9.895-0.104-21.369,0.248-31.541c4.461-0.111,9.297-0.172,14.084,0c0.257,7.516,0.05,15.65,0.049,23.359
		c0,7.779,0.095,15.658-0.099,23.457c-1.466,0.268-3.084,0.148-4.761,0.148c-24.146-0.004-48.803-0.119-72.652-0.396
		c-0.265-0.744-0.148-1.57-0.148-2.332c0-5.641,0.049-11.305,0.05-17.01c0.003-19.406,0.1-38.848,0.099-58.318
		c0.102-0.014,0.012-0.221,0.148-0.199c0.037-0.047,0.091-0.076,0.149-0.1c13.171-0.08,25.517,0.15,38.632,0.148
		C51.906,0.165,65.239,0.148,77.637,0.316z"/>
	<path style="fill-rule:evenodd;clip-rule:evenodd;" d="M46.938,29.624c0.21,5.025,0.148,10.572,0,15.769
		c-5.002,0.191-10.892,0.234-16.017-0.051c-0.26-2.283-0.099-4.9-0.1-7.734c0-1.891,0.001-3.984,0-6.101
		c0-0.652-0.091-1.727,0.149-1.934c0.036-0.047,0.09-0.074,0.148-0.1c2.607-0.037,5.299,0.051,7.984,0.051
		C41.762,29.525,44.493,29.439,46.938,29.624z"/>
</g>
<g id="Layer_1">
</g>
</svg>
