<?xml version="1.0" encoding="iso-8859-1"?>
<!-- Generator: Adobe Illustrator 21.0.2, SVG Export Plug-In . SVG Version: 6.00 Build 0)  -->
<svg version="1.1" xmlns="http://www.w3.org/2000/svg" xmlns:xlink="http://www.w3.org/1999/xlink" x="0px" y="0px"
	 viewBox="0 0 30 21.483" style="enable-background:new 0 0 30 21.483;" xml:space="preserve">
<g id="Mean_x5F_Audio">
	<path d="M20.81,0.073c0.992-0.097,2.021-0.034,3.028-0.047c-3.45,5.01-7.009,9.952-10.423,14.988
		c0.401,0.718,0.913,1.446,1.453,2.094c4.051-5.655,7.926-11.44,11.981-17.091c1.032-0.069,2.054,0.103,3.076-0.01
		C24.822,7.089,19.941,14.33,14.88,21.443c-1.856-0.01-3.709,0.017-5.564,0.031c-0.149-0.002-0.336,0.026-0.419-0.13
		c-2.846-4.031-5.681-8.07-8.483-12.133C0.273,8.965,0.001,8.757,0.019,8.45C0.025,7.078,0.011,5.707,0.02,4.335
		c3.938,5.713,7.95,11.375,11.9,17.076c0.466-0.713,0.945-1.417,1.446-2.106C8.934,12.894,4.465,6.504,0,0.115
		c0.983-0.053,1.968-0.019,2.954-0.037C3.516,0.912,4.142,1.705,4.67,2.562c-0.168,0.072-0.342,0.13-0.516,0.187
		c0.194,0.04,0.386,0.094,0.573,0.163C4.754,2.852,4.782,2.794,4.81,2.737c2.394,3.328,4.723,6.708,7.043,10.086
		c0.536-0.625,0.973-1.395,1.468-2.078C11.478,8.126,9.77,5.412,7.836,2.858c-0.617-0.941-1.296-1.84-1.91-2.781
		c0.992-0.009,1.983-0.01,2.975-0.009c2.01,2.811,3.927,5.684,5.927,8.502C16.808,5.727,18.828,2.912,20.81,0.073z"/>
	<path d="M17.912,21.429c3.983-5.747,7.953-11.505,12.025-17.19c0.024,1.366,0.007,2.733,0.016,4.1
		c0.027,0.269-0.19,0.459-0.324,0.664c-2.933,4.126-5.801,8.297-8.736,12.418C19.9,21.442,18.905,21.433,17.912,21.429z"/>
	<path d="M23.916,21.419c1.944-2.91,4.015-5.728,6.042-8.581c0.026,1.213-0.017,2.428,0.039,3.641
		c-0.01,0.265,0.055,0.569-0.133,0.79c-0.949,1.323-1.89,2.652-2.807,3.997c-0.058,0.1-0.162,0.168-0.281,0.155
		C25.823,21.422,24.869,21.424,23.916,21.419z"/>
	<path d="M0.043,12.917c1.988,2.853,4.004,5.686,5.967,8.555c-0.99,0.012-1.98,0.004-2.969,0.01
		c-0.984-1.427-2.002-2.834-2.958-4.277C-0.001,15.78,0.044,14.346,0.043,12.917z"/>
</g>
<g id="Layer_1">
</g>
</svg>
