<?xml version="1.0" encoding="iso-8859-1"?>
<!-- Generator: Adobe Illustrator 19.2.0, SVG Export Plug-In . SVG Version: 6.00 Build 0)  -->
<svg version="1.1" xmlns="http://www.w3.org/2000/svg" xmlns:xlink="http://www.w3.org/1999/xlink" x="0px" y="0px"
	 viewBox="0 0 86.456 43.948" style="enable-background:new 0 0 86.456 43.948;" xml:space="preserve">
<g id="Meerbuscher_x5F_Kunstler">
	<path style="fill-rule:evenodd;clip-rule:evenodd;" d="M86.336,0.393c0.236,13.427,0.052,27.601,0.05,41.032
		c0,0.846,0.193,1.716-0.101,2.523c-28.673-0.023-57.334-0.181-86.051-0.354c-0.023-0.044-0.045-0.09-0.102-0.101
		C0.07,37.372-0.06,31.016,0.032,24.569c0.102-7.088-0.008-14.614,0-21.955C0.033,1.756,0.013,0.859,0.234,0.04
		c10.797-0.131,21.589,0.099,32.401,0.101C50.655,0.144,68.552,0.169,86.336,0.393z M1.748,0.697
		C1.355,1.26,2.447,1.552,2.606,2.059c6.001,5.927,12.039,12.09,18.018,18.068c0.314,0.313,1.004,1.121,1.312,1.11
		c0.331-0.013,0.954-0.854,1.312-1.212c1.31-1.31,2.548-2.648,3.735-3.835c4.653-4.653,9.402-9.203,13.93-13.829
		c0.409-0.419,0.956-0.851,1.11-1.464C28.485,0.69,14.984,0.696,1.748,0.697z M79.875,0.948C67.932,0.948,55.644,0.815,43.941,0.797
		c-0.06,0.024-0.115,0.054-0.152,0.101c-0.321,0.163-0.201,1.702-0.201,2.423c0,5.348-0.001,10.579,0,15.746
		c0,0.842-0.118,1.713,0.151,2.474c5.8,0.221,12.185,0.201,18.017,0.202c0.898,0,1.926,0.151,2.625,0
		c0.595-0.13,1.502-1.296,2.019-1.817c0.684-0.689,1.238-1.416,1.816-2.018c3.861-4.02,7.894-7.611,11.608-11.558
		c1.322-1.263,2.674-2.531,3.886-3.836c0.402-0.432,1.021-0.775,1.161-1.413C83.238,0.826,81.561,0.948,79.875,0.948z M0.839,1.605
		c-0.173,0.446-0.1,1.691-0.1,2.523c-0.001,5.9,0,12.238,0,18.118c-0.001,5.282,0.184,10.495-0.051,15.545
		c-0.079,1.705-0.057,3.404,0.151,5.048c6.71,0.239,14.039,0.221,20.592,0.101c0.176-6.986,0.177-13.804,0.101-20.743
		c-3.231-3.515-6.669-6.895-10.194-10.347c-2.541-2.487-5.03-5.265-7.672-7.772C2.896,3.347,1.807,2.11,0.991,1.554
		C1.006,1.451,0.845,1.565,0.839,1.605z M42.578,1.705c-0.033,0.056-0.193,0.093-0.201,0.102
		c-3.366,3.307-6.748,6.747-10.145,10.145c-1.693,1.693-3.416,3.364-5.098,5.046c-0.844,0.844-1.586,1.788-2.423,2.625
		c-0.856,0.855-1.804,1.618-2.473,2.624c-0.04,3.451,0.053,6.963,0,10.448c-0.053,3.443-0.185,6.964,0.1,10.245
		c5.142,0.187,10.313,0.201,15.343,0.201c1.73,0.001,3.472,0.097,5.047-0.151c0.179-13.286,0.227-26.202,0.151-40.174
		c-0.001-0.335,0.131-0.88-0.252-1.11C42.612,1.705,42.594,1.705,42.578,1.705z M82.752,4.431
		c-5.439,5.442-10.969,10.79-16.2,16.302c-0.405,0.427-0.905,0.815-1.161,1.362c2.284,2.777,4.888,5.241,7.419,7.773
		c2.54,2.541,5.039,5.123,7.621,7.621c1.223,1.314,2.551,2.551,3.785,3.785c0.423,0.423,0.769,1.022,1.413,1.161
		c0.095-12.414,0.226-26.081,0.101-38.408c-0.003-0.327,0.242-2.142-0.303-2.17C84.542,2.634,83.641,3.541,82.752,4.431z
		 M84.418,42.535c-3.22-3.284-6.459-6.51-9.691-9.74c-1.72-1.72-3.49-3.414-5.147-5.198c-0.812-0.874-1.833-1.644-2.574-2.574
		c-0.767-0.962-1.604-1.891-2.624-2.574c-6.737,0.021-14.101-0.203-20.693,0c-0.292,5.106,0.042,10.659-0.101,15.545
		c-0.051,1.721-0.175,3.44,0.101,4.996c0.733,0.229,1.539,0.151,2.322,0.151c12.95,0.001,25.991,0.231,38.761,0.102
		C84.984,42.903,84.577,42.698,84.418,42.535z"/>
</g>
<g id="Layer_1">
</g>
</svg>
