<?xml version="1.0" encoding="iso-8859-1"?>
<!-- Generator: Adobe Illustrator 19.2.0, SVG Export Plug-In . SVG Version: 6.00 Build 0)  -->
<svg version="1.1" xmlns="http://www.w3.org/2000/svg" xmlns:xlink="http://www.w3.org/1999/xlink" x="0px" y="0px"
	 viewBox="0 0 77.121 79.093" style="enable-background:new 0 0 77.121 79.093;" xml:space="preserve">
<g id="Meijeriteollisuuden_x5F_Tiedotustoimisto">
	<path style="fill-rule:evenodd;clip-rule:evenodd;" d="M38.379,0c1.07,0.576,1.672,1.621,2.568,2.371
		c2.402,2.441,4.85,4.838,7.215,7.314c3.662,3.594,7.215,7.312,10.873,10.971c4.797,4.799,9.377,9.822,14.43,14.678
		c0.551,0.527,1.17,1.168,1.828,1.828c0.484,0.482,1.662,1.557,1.73,2.025c0.219,1.512,0,3.33,0,5.041
		c0.002,11.682,0.105,23.508-0.049,34.691c-3.402,0.182-7.254,0.1-10.873,0.1c-1.201,0-2.418,0.119-3.508-0.149
		c-0.32-7.957,0.209-16.486-0.199-23.967c-0.715,0.061-1.113,0.859-1.531,1.383c-5.578,5.635-10.982,11.426-16.605,17.049
		c-1.859,1.861-3.572,3.873-5.584,5.584c-1.025-0.721-1.865-1.67-2.717-2.568c-2.518-2.652-5.146-5.332-7.809-7.908
		c-3.558-3.439-6.775-7.229-10.279-10.723c-0.484-0.521-0.992-1.016-1.483-1.533c-0.47-0.494-0.907-1.105-1.582-1.383
		c-0.32,1.934-0.098,3.973-0.098,5.98c0,6.133,0.008,12.006-0.051,18.135c-1.102,0.262-2.32,0.148-3.558,0.148
		c-2.378,0-4.873-0.049-7.362-0.049c-1.226,0-2.43,0.111-3.51-0.1C0.107,67.779,0.078,55.607,0.078,44.131
		c0-1.703-0.205-3.486,0.05-4.943c0.136-0.777,1.765-2.061,2.323-2.619C14.473,24.551,26.297,12.055,38.23,0.098
		C38.265,0.053,38.32,0.023,38.379,0z M36.006,23.721c-4.699,5.09-9.672,9.771-14.578,14.678c-0.344,0.342-1,0.902-0.988,1.283
		c0.01,0.336,0.672,0.922,0.988,1.236c5.404,5.402,10.533,10.436,15.912,15.814c0.299,0.297,0.867,1.045,1.236,1.037
		c0.303-0.006,0.736-0.539,1.086-0.889c5.115-5.115,9.84-9.885,14.926-14.926c0.264-0.33,0.691-0.691,1.137-1.137
		c0.24-0.24,1.039-0.885,1.037-1.234c-0.002-0.262-0.695-0.893-1.037-1.236c-4.988-4.988-9.9-9.85-14.826-14.775
		c-0.592-0.592-1.701-1.947-2.471-2.176C37.662,22.105,36.756,22.906,36.006,23.721z"/>
</g>
<g id="Layer_1">
</g>
</svg>
