<?xml version="1.0" encoding="iso-8859-1"?>
<!-- Generator: Adobe Illustrator 19.2.0, SVG Export Plug-In . SVG Version: 6.00 Build 0)  -->
<svg version="1.1" xmlns="http://www.w3.org/2000/svg" xmlns:xlink="http://www.w3.org/1999/xlink" x="0px" y="0px"
	 viewBox="0 0 81.865 82.136" style="enable-background:new 0 0 81.865 82.136;" xml:space="preserve">
<g id="Meisterschule_x5F_fur_x5F_Buchdrucker">
	<path style="fill-rule:evenodd;clip-rule:evenodd;" d="M81.753,0.455c0.217,14.035,0.053,27.13,0.051,40.348
		c0,13.539,0.119,27.463-0.152,41.17c-6.057,0.245-12.639,0.188-18.994,0c-0.213-1.16-0.104-2.434-0.104-3.747
		c0-3.853-0.084-8.182,0.104-11.909c1.316-0.413,2.748-0.708,3.594-1.592c1.291-1.276,1.947-3.832,1.025-5.801
		c-0.381-0.812-1.016-1.611-1.744-2.104c-0.826-0.559-1.812-0.627-2.875-0.976c-0.256-10.87,0.158-23.228-0.154-35.01
		c-3.402-0.262-7.67-0.198-11.088-0.103c-0.229,4.744-0.154,9.732-0.154,14.887c0,10.384,0,20.45,0,30.8
		c0,5.221,0.119,10.44-0.154,15.452c-6.721,0.197-13.064,0.177-19.764-0.052c-0.226-5.146-0.025-10.642-0.051-15.554
		c0.637-0.25,1.201-0.341,1.746-0.564c1.568-0.644,2.758-1.716,3.131-3.646c0.5-2.595-0.836-4.928-2.875-5.851
		c-0.586-0.266-1.312-0.265-1.951-0.565c-0.23-11.388,0.146-23.448-0.154-34.958c-3.5-0.212-7.721-0.076-11.088-0.103
		c-0.346,0.53-0.205,1.211-0.205,1.797c0,9.158-0.051,18.769-0.051,28.233c0,10.379,0.125,20.891-0.154,31.16
		c-4.598,0.158-9.621,0.05-14.682,0.051c-1.658,0.001-3.35,0.103-4.928-0.153c-0.162-4.93-0.037-10.56,0-15.76
		c2.461-0.603,4.06-1.729,4.568-4.106c0.535-2.497-0.756-4.765-2.617-5.75c-0.557-0.294-1.365-0.293-1.951-0.667
		c-0.08-9.191-0.066-18.8-0.051-27.977C0.044,19.61,0.171,10.106,0.081,1.533c-0.012-1.034-0.1-1.379,0.514-1.489
		c0.688-0.123,1.697,0.052,2.566,0.052C29.544,0.099,55.3,0.228,81.753,0.455z"/>
</g>
<g id="Layer_1">
</g>
</svg>
