<?xml version="1.0" encoding="iso-8859-1"?>
<!-- Generator: Adobe Illustrator 19.2.0, SVG Export Plug-In . SVG Version: 6.00 Build 0)  -->
<svg version="1.1" xmlns="http://www.w3.org/2000/svg" xmlns:xlink="http://www.w3.org/1999/xlink" x="0px" y="0px"
	 viewBox="0 0 189.846 31.21" style="enable-background:new 0 0 189.846 31.21;" xml:space="preserve">
<g id="Melos_x5F_Inc">
	<path style="fill-rule:evenodd;clip-rule:evenodd;" d="M67.477,6.499c8.234-3.734,16.147-6.472,27.207-6.472
		c9.777,0,17.499,2.009,24.449,5.154c0.965,0.436,2.202,1.296,2.877,1.318c0.886,0.029,2.732-1.167,3.955-1.678
		c3.924-1.64,8.476-3.057,13.063-3.835c21.786-3.697,39.518,4.359,50.817,14.742c-10.314,9.356-27.427,17.63-48.301,14.981
		c-3.041-0.386-5.99-1.119-8.868-1.917c-2.77-0.769-5.73-1.507-7.91-2.757c-0.296-0.169-0.932-0.425-0.72-0.959
		c-0.636,0.772-1.386-0.343-2.037-0.359c-1.414-0.034-4.287,1.847-5.993,2.517c-9.674,3.801-24.82,5.253-36.314,2.038
		c-3.212-0.898-6.371-1.986-9.349-3.356c-0.941-0.433-2.306-1.31-2.877-1.318c-0.893-0.013-2.593,1.309-3.835,1.797
		c-9.002,3.543-21.614,5.869-33.438,3.835C17.402,28.028,8.265,22.746,0,15.607C8.595,8.063,21.121,0.425,36.795,0.027
		C48.906-0.281,59.169,2.099,67.477,6.499z M6.592,15.727c9.292,7.22,23.602,12.513,39.552,11.026
		c6.264-0.584,11.653-2.453,16.659-4.554c-2.724-2.271-5.689-4.298-8.39-6.592c2.635-2.358,5.515-4.473,8.39-6.592
		C45.845-0.2,17.548,4.594,6.592,15.727z M72.271,8.896c2.64,2.395,5.933,4.135,8.27,6.832c-2.548,2.288-5.975,4.331-8.27,6.472
		c11.631,6.316,33.437,6.33,45.064,0c-2.613-2.34-5.748-4.159-8.39-6.472c2.618-2.456,5.674-4.474,8.51-6.712
		C105.657,2.64,84.199,2.652,72.271,8.896z M147.898,4.102c-7.984,0.005-15.12,2.381-21.094,4.914
		c2.625,2.409,5.993,4.075,8.27,6.832c-1.899,1.204-2.848,2.371-4.914,3.835c-0.577,0.409-3.546,2.017-3.476,2.517
		c0.052,0.362,2.875,1.286,3.955,1.678c4.05,1.468,9.676,2.869,14.143,3.116c2.222,0.123,5.245-0.145,6.472,0.479
		c2.566-0.871,6.245-0.741,8.989-1.318c8.175-1.72,15.453-4.996,21.094-9.109c1.015-0.104,1.629-0.609,2.038-1.318
		C174.953,8.986,162.681,4.091,147.898,4.102z M67.357,11.293c-2.232,1.404-4.659,2.612-6.353,4.554
		c1.099,0.556,2,1.287,3.116,2.038c0.869,0.584,2.441,1.912,3.355,1.917c1.906,0.013,4.636-3.467,6.473-3.955
		C72.519,14.039,69.897,12.391,67.357,11.293z M125.485,13.33c-0.602-0.397-3.135-2.149-3.596-1.918
		c-2.109,1.058-4.653,2.65-6.353,4.435c0.372,0.446,0.936,0.522,1.438,0.839c0.963,0.607,3.835,3.206,5.034,3.236
		c0.691,0.017,1.902-1.074,2.637-1.558c1.516-1,2.791-1.552,3.835-2.637C127.636,14.882,126.672,14.112,125.485,13.33z"/>
	<path style="fill-rule:evenodd;clip-rule:evenodd;" d="M40.15,11.772c2.612-0.144,4.292,1.546,4.195,3.955
		c-0.182,4.515-7.251,4.666-8.15,0.719C35.624,13.936,37.508,11.918,40.15,11.772z"/>
	<path style="fill-rule:evenodd;clip-rule:evenodd;" d="M94.084,11.892c3.041-0.499,5.029,1.448,4.794,4.075
		c-0.265,2.955-4.441,4.62-6.951,2.517C89.366,16.339,90.998,12.398,94.084,11.892z"/>
	<path style="fill-rule:evenodd;clip-rule:evenodd;" d="M148.977,11.892c2.572-0.321,4.745,1.474,4.435,4.315
		c-0.468,4.266-7.789,4.286-8.15-0.12C145.071,13.776,146.48,12.203,148.977,11.892z"/>
</g>
<g id="Layer_1">
</g>
</svg>
