<?xml version="1.0" encoding="iso-8859-1"?>
<!-- Generator: Adobe Illustrator 19.2.0, SVG Export Plug-In . SVG Version: 6.00 Build 0)  -->
<svg version="1.1" xmlns="http://www.w3.org/2000/svg" xmlns:xlink="http://www.w3.org/1999/xlink" x="0px" y="0px"
	 viewBox="0 0 188.455 190.353" style="enable-background:new 0 0 188.455 190.353;" xml:space="preserve">
<g id="Meplex_x5F_CH">
	<path style="fill-rule:evenodd;clip-rule:evenodd;" d="M93.469,101.581c0.554-0.29,0.717-0.963,0.992-1.464
		c0.845-1.534,1.814-3.128,2.613-4.754c6.59-11.823,13.204-23.644,19.802-35.477c1.097-1.968,2.217-3.949,3.239-5.956
		c0.526-1.032,0.994-2.039,1.568-3.03c2.787-4.813,5.468-9.867,8.255-14.786c6.649-11.737,13.079-23.698,19.802-35.424
		c0.382-0.52,1.804-0.313,2.874-0.313c11.887,0,24.001,0.038,35.528,0.104c0.194-0.055,0.169,0.11,0.261,0.157
		c0.045,62.653-0.087,126.173,0.052,189.294c-0.075,0.135-0.141,0.277-0.314,0.313c-46.247,0.118-94.873,0.112-140.704,0.105
		c-15.903-0.002-31.061-0.161-47.023-0.053c-0.008-0.097-0.177-0.032-0.209-0.105c-0.159-7.818-0.277-15.716-0.157-23.615
		c0.12-7.862,0-15.742,0-23.668c0-27.834,0-55.987,0-84.119c0-12.09,0.053-23.796,0.053-35.529c0-6.766,0.067-13.89,0.052-20.638
		c-0.002-0.831-0.265-1.791,0.209-2.56c12.595-0.11,25.335-0.066,37.775,0.052c0.008,0.097,0.177,0.032,0.209,0.105
		c4.628,8.525,9.551,17.212,14.106,25.914c2.21,4.222,4.658,8.319,6.897,12.54c5.587,10.532,11.347,20.973,17.033,31.506
		c0.573,1.061,1.037,2.188,1.62,3.239c4.58,8.25,9.128,16.783,13.689,25.132C92.248,99.567,92.721,100.67,93.469,101.581z
		 M92.371,116.002c-2.243-3.944-4.33-8.002-6.479-11.966c-2.672-4.966-5.537-9.923-8.098-14.891
		c-0.527-1.022-0.968-2.069-1.515-3.082C70.897,76.096,65.5,66.12,60.03,56.177C51.238,40.196,42.595,23.84,33.749,7.952
		c-2.121-0.184-4.465-0.105-6.792-0.105c-6.037,0-12.95-0.193-18.966,0.052c-0.28,0.822-0.157,1.726-0.157,2.56
		c0,28.002-0.111,57.548-0.052,84.589c0.062,28.355-0.098,57.399,0,87.045c0.076,0.063,0.08,0.199,0.157,0.261
		c14.202,0.119,28.612,0.159,43.104,0.157c43.483-0.007,85.646,0.055,129.366,0c0.521-0.525,0.313-1.899,0.313-3.083
		c-0.002-46.938,0.002-92.62,0-138.561c0-10.047,0.001-20.512,0-29.99c0-0.853,0.127-1.779-0.157-2.612
		c-8.54-0.169-17.387-0.152-26.02-0.104c-0.565,0.5-0.897,1.253-1.306,1.985c-0.938,1.681-1.926,3.427-2.821,5.068
		c-1.257,2.305-2.646,4.528-3.814,6.74c-2.429,4.598-5.024,9.139-7.523,13.532c-5.116,8.99-10.074,18.13-15.048,27.064
		c-1.902,3.416-3.734,6.854-5.538,10.241c-0.611,1.146-1.256,2.288-1.881,3.396c-7.612,13.493-15.053,27.226-22.571,40.648
		c-0.149,0.267-0.308,0.576-0.627,0.731C92.906,117.181,92.674,116.533,92.371,116.002z"/>
</g>
<g id="Layer_1">
</g>
</svg>
