<?xml version="1.0" encoding="iso-8859-1"?>
<!-- Generator: Adobe Illustrator 19.2.0, SVG Export Plug-In . SVG Version: 6.00 Build 0)  -->
<svg version="1.1" xmlns="http://www.w3.org/2000/svg" xmlns:xlink="http://www.w3.org/1999/xlink" x="0px" y="0px"
	 viewBox="0 0 77.759 43.686" style="enable-background:new 0 0 77.759 43.686;" xml:space="preserve">
<g id="Merinoteks">
	<path style="fill-rule:evenodd;clip-rule:evenodd;" d="M40.255,0.159c-0.206,0.521-0.744,0.671-1.079,1.128
		c-0.278,0.381-0.469,0.88-0.735,1.323c-1.742,2.901-3.563,6.138-5.245,9.168c-2.943,5.301-6.007,10.444-8.874,15.786
		c-0.471,0.878-0.997,1.753-1.471,2.648c-1.871,3.534-3.803,7.001-5.932,10.54c-0.929,1.543-1.333,3.107-3.824,2.745
		c0.045-0.566,0.498-0.667,0.784-1.127c1.08-1.734,1.888-3.64,2.941-5.442c3.031-5.184,6.032-10.732,9.02-16.03
		c2.963-5.254,5.995-10.58,9.07-15.982c0.453-0.797,0.975-1.73,1.568-2.599C37.35,1.044,38.325-0.506,40.255,0.159z"/>
	<path style="fill-rule:evenodd;clip-rule:evenodd;" d="M43.981,0.258c-0.164,0.555-0.753,0.686-1.029,1.127
		c-1.938,3.404-3.928,6.835-5.883,10.345c-2.85,5.113-5.937,10.3-8.825,15.541c-2.609,4.734-5.181,9.572-7.991,14.314
		c-0.459,0.775-0.697,1.475-1.519,1.814c-0.424,0.175-1.218,0.292-1.667,0.049c0.06-0.509,0.552-0.766,0.784-1.177
		c0.979-1.724,1.878-3.506,2.844-5.245c1.906-3.434,3.877-6.875,5.834-10.345c3.873-6.866,7.678-13.818,11.668-20.59
		c0.997-1.692,1.721-3.548,2.941-5.099C41.655,0.389,42.871-0.209,43.981,0.258z"/>
	<path style="fill-rule:evenodd;clip-rule:evenodd;" d="M36.087,0.307c-0.116,0.52-0.709,0.893-1.029,1.373
		c-0.271,0.403-0.479,0.898-0.735,1.372c-1.657,3.067-3.527,6.181-5.245,9.266c-2.929,5.26-5.986,10.62-8.923,15.934
		c-0.972,1.757-1.854,3.617-2.941,5.344c-0.521,0.826-0.916,1.777-1.471,2.696c-1.039,1.719-1.878,3.54-2.941,5.344
		c-0.555,0.94-1.762,2.431-2.795,1.323c-0.566-2.748,0.47-5.698,0.344-8.481c-0.344-0.137-0.644,0.264-1.079,0.295
		c-0.57,0.04-1.175-0.134-1.471-0.49c0.097-0.878,0.668-1.61,1.079-2.354c0.806-1.458,1.635-2.869,2.451-4.314
		c0.416-0.737,0.709-1.53,1.127-2.255c1.634-2.829,3.369-5.663,5.001-8.53c0.821-1.443,1.592-2.903,2.5-4.314
		c0.875-1.358,1.713-2.805,2.5-4.265c1.124-2.084,2.367-4.271,3.775-6.374c0.468-0.698,0.961-1.564,1.912-1.471
		c0.632,0.062,0.812,0.562,1.078,1.079c-0.014,2.765-0.789,5.027-0.784,7.647c0.469-0.016,0.692-0.532,0.883-0.882
		c0.987-1.823,1.982-3.768,3.088-5.589c0.672-1.104,1.267-2.164,2.696-2.451C35.444,0.232,35.895,0.14,36.087,0.307z"/>
	<path style="fill-rule:evenodd;clip-rule:evenodd;" d="M46.971,0.258c1.142,0.611,0.636,2.33,0.539,3.677
		c-0.103,1.438-0.421,2.965-0.147,4.118c0.649-0.258,0.85-1.042,1.177-1.667c0.621-1.186,1.351-2.309,2.059-3.53
		c0.742-1.28,1.432-2.828,3.579-2.352c-0.209,0.705-0.783,1.047-1.128,1.618c-1.698,3.573-3.706,7.081-5.687,10.589
		c-0.968,1.713-1.923,3.478-2.892,5.245c-1.421,2.591-2.913,5.181-4.363,7.796c-0.964,1.739-2.006,3.432-2.941,5.196
		c-0.461,0.868-0.906,1.746-1.422,2.598c-1.499,2.477-2.834,5.151-4.363,7.845c-0.411,0.724-1.123,1.848-1.961,2.059
		c-1.135,0.286-1.775-0.414-1.765-1.52c0.017-1.815,0.661-3.686,0.932-5.54c0.087-0.601,0.378-1.268,0.049-1.813
		c-0.498,0.082-0.611,0.666-0.834,1.029c-1.122,1.834-2.176,3.833-3.333,5.785c-0.453,0.763-1.038,1.543-1.716,1.912
		c-0.51,0.276-1.534,0.596-2.206,0.195c0.126-0.575,0.744-0.66,1.029-1.078c5.626-9.829,11.566-20.772,17.403-30.886
		c1.417-2.454,2.912-5.143,4.363-7.696C44.144,2.428,44.93,0.325,46.971,0.258z"/>
	<path style="fill-rule:evenodd;clip-rule:evenodd;" d="M17.752,0.454c-0.177,0.525-0.804,0.602-1.078,1.029
		c-0.978,1.784-2.197,3.62-3.138,5.49c-0.413,0.821-0.955,1.561-1.324,2.354c-0.114,0.247-0.133,0.538-0.245,0.784
		c-0.195,0.431-0.544,0.844-0.784,1.274c-2.632,4.727-5.358,9.616-8.04,14.365c-0.744,1.317-1.415,2.64-2.157,3.971
		c-0.22,0.395-0.41,0.926-0.833,1.177c-0.046-0.918-0.287-2.399-0.05-3.432c0.121-0.525,0.63-1.118,0.932-1.716
		c1.477-2.923,3.015-5.711,4.707-8.433c0.693-1.116,1.169-2.375,1.765-3.481c0.286-0.53,0.672-1.041,0.98-1.568
		c0.917-1.565,1.811-3.177,2.745-4.755c0.638-1.076,1.104-2.241,1.716-3.334c0.599-1.066,1.184-2.123,1.863-3.138
		C15.485,0.618,16.764,0.081,17.752,0.454z"/>
	<path style="fill-rule:evenodd;clip-rule:evenodd;" d="M21.429,0.503c-0.198,0.541-0.76,0.63-1.127,1.078
		c-0.756,0.921-1.303,2.278-2.06,3.481c-1.461,2.32-2.637,4.707-4.019,7.06c-0.673,1.144-1.424,2.298-2.011,3.529
		c-0.125,0.263-0.169,0.569-0.294,0.834c-0.719,1.514-1.757,2.903-2.598,4.412c-2.081,3.732-4.123,7.42-6.275,11.227
		c-0.398,0.702-0.894,1.884-1.373,2.107c-0.362,0.17-1.092,0.181-1.323-0.146c0.167-1.045,0.811-1.912,1.323-2.795
		c0.509-0.878,0.958-1.808,1.422-2.696c0.467-0.894,1.047-1.739,1.471-2.647c0.423-0.907,0.922-1.797,1.422-2.646
		c2.034-3.459,3.947-6.938,6.03-10.345c0.414-1.242,1.106-2.18,1.813-3.432c1.011-1.79,2.122-3.735,3.187-5.54
		c0.833-1.411,1.53-3.543,3.48-3.677C20.777,0.287,21.257,0.244,21.429,0.503z"/>
	<path style="fill-rule:evenodd;clip-rule:evenodd;" d="M25.45,0.405c-0.096,0.575-0.691,0.649-0.932,1.079
		c-1.913,3.839-4.374,7.407-6.373,11.226c-2,3.821-4.436,7.394-6.275,11.275c-0.838,1.768-1.901,3.457-2.844,5.197
		c-0.465,0.858-1.017,1.684-1.471,2.549c-0.452,0.864-0.872,1.734-1.519,2.451c-0.524,0.207-1.404,0.476-1.813,0
		c-0.043-0.782,0.533-1.353,0.882-1.961c1.022-1.782,2.063-3.624,3.089-5.441c1.363-2.419,2.832-4.761,4.02-7.354
		c3.153-5.285,6.349-11.296,9.609-16.815C22.584,1.32,23.379-0.088,25.45,0.405z"/>
	<path style="fill-rule:evenodd;clip-rule:evenodd;" d="M58.002,0.552c0.028,0.495-0.495,0.677-0.736,1.029
		c-1.264,1.854-2.378,4.274-3.578,6.324c-0.41,0.701-0.881,1.429-1.177,2.108c-0.095,0.218-0.106,0.479-0.196,0.686
		c-0.442,1.018-1.101,2.034-1.716,3.039c-1.792,2.929-3.403,6.137-5.147,9.119c-2.376,4.062-4.469,8.24-6.814,12.158
		c-1.12,1.792-2.182,4.153-3.432,6.079c-0.724,1.113-1.504,2.442-3.187,2.255c-0.085-0.41,0.303-0.681,0.49-0.98
		c1.352-2.159,2.475-4.659,3.823-6.863c2.062-3.429,4.139-7.376,6.178-10.933c1.742-3.042,3.496-6.252,5.147-9.364
		c1.112-2.097,2.413-4.113,3.53-6.177c0.284-0.527,0.571-1.049,0.882-1.569c0.311-0.518,0.5-1.091,0.784-1.617
		c0.573-1.061,1.026-2.181,1.618-3.187c0.368-0.626,1.012-1.607,1.618-1.912C56.603,0.49,57.409,0.386,58.002,0.552z"/>
	<path style="fill-rule:evenodd;clip-rule:evenodd;" d="M61.825,0.552c-0.066,0.459-0.639,0.663-0.883,0.98
		c-1.128,1.469-2.007,3.33-2.94,5.099c-0.929,1.758-1.93,3.518-2.844,5.196c-1.43,2.624-2.705,5.3-4.167,7.894
		c-1.421,2.519-2.899,5.085-4.412,7.599c-1.014,1.685-1.864,3.483-2.795,5.196c-0.94,1.732-1.909,3.456-2.893,5.147
		c-0.976,1.679-1.893,3.4-3.039,4.952c-0.667,0.431-1.345,1.102-2.451,0.932c0.002-0.509,0.56-0.694,0.833-1.128
		c0.721-1.142,1.288-2.435,1.961-3.677c0.641-1.183,1.403-2.337,2.06-3.53c1.97-3.584,3.977-7.231,6.029-10.834
		c1.348-2.366,2.672-4.757,4.02-7.158c0.815-1.451,1.586-2.743,2.255-4.313c0.349-0.817,0.92-1.632,1.373-2.5
		c0.867-1.665,1.829-3.331,2.745-5.001c0.844-1.537,1.6-3.138,2.745-4.314C59.9,0.643,60.884,0.211,61.825,0.552z"/>
	<path style="fill-rule:evenodd;clip-rule:evenodd;" d="M65.257,0.846c0.482,1.34,0.039,2.939-0.146,4.461
		c-0.192,1.574-0.269,3.21-0.245,4.658c0.471,0.457,1.684-0.122,2.157,0.343c-0.105,0.792-0.628,1.471-1.03,2.157
		c-1.189,2.032-2.338,4.196-3.529,6.275c-1.561,2.724-3.122,5.528-4.707,8.383c-1.524,2.747-3.157,5.423-4.706,8.384
		c-1.101,2.102-2.198,4.215-3.529,6.324c-0.451,0.714-0.991,1.752-2.06,1.617c-1.949-0.245-0.944-4.081-0.637-5.638
		c0.272-1.382,0.422-2.75,0.392-4.069c-0.504,0.097-0.697,0.669-0.932,1.03c-0.257,0.396-0.555,0.804-0.686,1.275
		c-0.678,1.073-1.412,2.375-2.157,3.677c-0.685,1.194-1.418,2.639-2.501,3.285c-0.486,0.29-1.25,0.579-1.961,0.392
		c-0.065-0.56,0.605-0.797,0.834-1.226c4.174-7.237,8.713-15.034,12.942-23.042c0.456-0.862,0.946-1.696,1.422-2.549
		c2.384-4.276,4.59-8.587,7.206-12.796c0.543-0.872,1.039-1.806,1.618-2.353C63.48,0.984,64.474,0.376,65.257,0.846z"/>
	<path style="fill-rule:evenodd;clip-rule:evenodd;" d="M70.651,10.308c-0.485,1.417-1.328,2.678-2.06,3.971
		c-2.151,3.804-4.226,7.692-6.422,11.57c-1.447,2.555-2.796,5.182-4.363,7.647c-1.583,2.489-2.825,5.17-4.314,7.648
		c-0.372,0.619-1.049,1.661-1.618,2.01c-0.474,0.29-1.242,0.5-1.911,0.343c0.016-0.491,0.502-0.749,0.734-1.127
		c0.257-0.416,0.515-0.905,0.785-1.373c0.25-0.434,0.594-0.878,0.784-1.323c0.096-0.225,0.099-0.501,0.196-0.735
		c0.248-0.598,0.726-1.155,1.078-1.765c3.822-6.611,7.325-13.231,11.178-19.904c0.954-1.653,2.029-3.567,3.04-5.442
		c0.369-0.687,0.703-1.534,1.274-1.667C69.497,10.053,70.306,10.037,70.651,10.308z"/>
	<path style="fill-rule:evenodd;clip-rule:evenodd;" d="M74.425,10.308c0.056,0.415-0.265,0.759-0.442,1.078
		c-1.3,2.361-2.551,4.899-3.922,7.256c-3.233,5.847-6.683,12.445-10.295,18.482c-0.577,0.964-1.111,1.994-1.765,3.04
		c-0.999,1.595-1.926,3.901-4.56,3.333c0.075-0.561,0.632-0.688,0.932-1.078c0.801-1.047,1.301-2.442,1.961-3.628
		c0.336-0.604,0.824-1.104,1.177-1.667c1.841-3.421,3.753-6.813,5.638-10.197c1.887-3.389,3.739-6.775,5.638-10.147
		c0.804-1.307,1.834-3.433,2.794-5.099c0.31-0.536,0.597-1.373,1.128-1.521C73.167,10.034,74.033,10.014,74.425,10.308z"/>
	<path style="fill-rule:evenodd;clip-rule:evenodd;" d="M77.759,10.259c-0.371,1.437-1.197,2.695-1.863,4.02
		c-3.211,6.387-6.794,12.688-10.197,18.974c-0.677,1.249-1.373,2.512-2.108,3.726c-0.979,1.619-1.769,3.234-2.843,4.706
		c-0.687,0.939-1.658,1.898-3.285,1.667c0.162-0.625,0.646-0.783,1.029-1.324c0.432-0.606,0.704-1.337,1.128-2.01
		c2.776-4.402,5.188-9.229,7.795-13.923c1.433-2.579,2.949-5.2,4.412-7.991c1.012-1.929,2.222-3.902,3.236-6.079
		C75.612,10.846,76.063,9.564,77.759,10.259z"/>
</g>
<g id="Layer_1">
</g>
</svg>
