<?xml version="1.0" encoding="iso-8859-1"?>
<!-- Generator: Adobe Illustrator 19.2.0, SVG Export Plug-In . SVG Version: 6.00 Build 0)  -->
<svg version="1.1" xmlns="http://www.w3.org/2000/svg" xmlns:xlink="http://www.w3.org/1999/xlink" x="0px" y="0px"
	 viewBox="0 0 42.506 83.794" style="enable-background:new 0 0 42.506 83.794;" xml:space="preserve">
<g id="Merlin_x5F_Gerin">
	<path style="fill-rule:evenodd;clip-rule:evenodd;" d="M41.885,0.117c0.177,13.971,0.188,27.506,0,41.422
		c-1.095,0.281-2.323,0.156-3.534,0.156c-3.548,0-7.489-0.085-10.914,0.104c0.441,0.485,1.109,0.603,1.663,0.832
		c3.996,1.652,7.127,4.201,9.511,7.588c2.603,3.697,4.633,9.123,3.639,15.488c-0.844,5.402-3.476,9.607-6.86,12.681
		c-3.196,2.903-8.121,5.373-14.137,5.405c-6.168,0.033-10.842-2.366-14.188-5.405C3.641,75.28,1.11,71.133,0.255,65.655
		c-0.99-6.343,1.047-11.626,3.639-15.384c1.986-2.882,4.511-5.312,7.743-6.912c1.076-0.533,2.244-0.892,3.379-1.507
		c-2.278-0.28-4.856-0.156-7.329-0.156c-1.203,0-2.423,0-3.586,0.052c-1.198,0.054-2.403-0.016-3.481-0.208
		c-0.178-5.041-0.053-10.133-0.052-15.488c0-8.23-0.001-16.362,0-24.895c0-0.34-0.126-0.831,0.207-1.091
		C13.778,0.048,28.361-0.1,41.885,0.117z M9.506,8.589C9.252,8.953,9.718,9.268,9.922,9.472c0.766,0.766,1.604,1.54,2.339,2.235
		c2.057,1.997,4.128,3.979,6.133,6.029c0.591,0.421,0.972,0.933,1.559,1.507c0.348,0.34,1.183,1.394,1.716,1.351
		c0.459-0.036,1.191-1.07,1.507-1.403c1.435-1.513,3.033-3.079,4.262-4.469c1.692-1.695,3.395-3.488,4.989-5.197
		c0.236-0.253,0.681-0.447,0.624-0.883C25.362,8.428,17.24,8.58,9.506,8.589z M19.849,31.509c-0.493-0.503-0.953-1.062-1.507-1.455
		c-2.978-2.998-5.993-5.961-9.096-8.835c-0.034,0-0.069,0-0.104,0c-0.075,0.029-0.127,0.081-0.156,0.156
		c-0.048,3.846-0.151,7.877,0.052,11.642c0.889,0.273,1.911,0.156,2.91,0.156c3.061-0.001,6.364,0.084,9.2-0.104
		C21.001,32.411,20.323,31.994,19.849,31.509z M33.153,21.842c-0.062,0.025-0.117,0.055-0.155,0.104
		c-1.902,1.754-3.684,3.627-5.51,5.457c-0.912,0.924-1.841,1.831-2.807,2.703c-0.793,1.043-1.944,1.728-2.598,2.91
		c1.278,0.244,2.732,0.096,4.157,0.104c2.343,0.013,4.867,0.063,7.068-0.052c0.271-0.445,0.103-0.936,0.104-1.455
		c0.006-2.638,0.128-5.987,0-8.68c-0.016-0.345,0.172-0.87-0.208-1.091C33.189,21.842,33.171,21.842,33.153,21.842z M32.114,56.352
		c-1.714-3.143-5.292-6.099-9.667-6.393c-4.098-0.275-6.465,0.871-8.68,2.443c-3.076,2.183-5.872,6.467-5.041,11.901
		c0.369,2.411,1.318,4.315,2.599,5.977c2.298,2.982,6.752,5.62,12.162,4.574c3.5-0.678,6.023-2.646,7.795-5.042
		c0.606-0.817,1.24-1.705,1.456-2.858c-0.916-0.275-1.979-0.156-3.015-0.156c-2.143,0-4.263,0.052-6.289,0.052
		c-1.038,0-2.094,0.119-3.015-0.156c-0.045-2.88-0.175-5.834,0.053-8.472c4.088-0.28,8.234,0.042,12.213-0.26
		C32.734,57.372,32.379,56.837,32.114,56.352z"/>
</g>
<g id="Layer_1">
</g>
</svg>
