<?xml version="1.0" encoding="iso-8859-1"?>
<!-- Generator: Adobe Illustrator 19.2.0, SVG Export Plug-In . SVG Version: 6.00 Build 0)  -->
<svg version="1.1" xmlns="http://www.w3.org/2000/svg" xmlns:xlink="http://www.w3.org/1999/xlink" x="0px" y="0px"
	 viewBox="0 0 77.52 27.16" style="enable-background:new 0 0 77.52 27.16;" xml:space="preserve">
<g id="Messaggeria_x5F_Emiliana">
	<path style="fill-rule:evenodd;clip-rule:evenodd;" d="M77.52,0.143c-0.128,0.901-0.651,1.7-1.024,2.537
		c-0.373,0.837-0.737,1.701-1.122,2.537c-0.773,1.679-1.355,3.449-2.342,4.928c-6.859,0.25-14.374-0.064-21.172,0.194
		c-0.607,0.466-0.81,1.337-1.073,2.147c0.602,0.368,1.541,0.195,2.439,0.195c6.102,0,12.54-0.07,18.636,0.098
		c-0.091,0.721-0.462,1.334-0.732,1.951c-0.266,0.608-0.453,1.299-0.927,1.756c-4.704,0.187-9.455-0.081-14.147,0.049
		c-3.493,0.098-7.01,0.049-10.342,0.049c-1.124,0-2.283,0.119-3.366-0.146c0.057-0.764,0.517-1.405,0.78-2.099
		c0.796-2.088,1.794-4.107,2.732-6.146c0.937-2.037,1.813-4.084,2.731-6.146c0.288-0.646,0.459-1.413,1.025-1.903
		c8.263-0.088,16.117-0.097,24.294-0.097C75.138,0.045,76.41-0.105,77.52,0.143z M65.568,3.851C62.006,3.84,58.317,3.815,54.689,3.9
		c-0.535,0.588-0.983,1.519-1.073,2.391c0.774,0.265,1.661,0.147,2.537,0.147c3.906,0,8.017,0.075,11.806-0.098
		c0.438-0.671,0.909-1.559,1.025-2.391C67.899,3.627,66.727,3.855,65.568,3.851z"/>
	<path style="fill-rule:evenodd;clip-rule:evenodd;" d="M46.542,0.29c-0.403,1.444-1.137,2.755-1.707,4.145
		c-1.119,2.729-2.363,5.426-3.61,8.099c-0.617,1.321-1.059,2.735-1.854,3.951c-0.917,0.141-2.086,0.05-3.219,0.049
		c-1.128,0-2.291,0.116-3.171-0.146c0.248-1.123,0.848-2.107,1.269-3.123c0.859-2.07,1.752-4.05,2.683-6.098
		c0.448-0.985,1.01-1.971,1.268-3.073c-0.574-0.229-1.288-0.191-2-0.195c-1.409-0.008-2.866,0-4.391,0c-0.61,0-1.635-0.145-2.049,0
		c-0.367,0.128-0.644,0.94-0.878,1.464c-1.218,2.721-2.382,5.278-3.513,8c-0.46,1.11-0.941,2.19-1.512,3.074
		c-2.003,0.05-4.468,0.142-6.391-0.049c0.195-1.113,0.765-2.105,1.22-3.123c0.453-1.013,0.856-2.061,1.317-3.073
		c0.915-2.01,1.915-4.003,2.634-6.146c-0.56-0.335-1.334-0.195-2.049-0.195c-1.479,0-2.872,0.067-4.293,0.049
		c-0.565-0.007-1.605-0.191-2.098,0c-0.385,0.148-0.584,0.902-0.83,1.464c-0.695,1.591-1.471,3.249-2.146,4.731
		c-1.002,2.203-1.812,4.491-2.829,6.294c-1.024,0.134-2.183,0.098-3.317,0.097c-1.113,0-2.264,0.094-3.171-0.146
		c0.079-0.744,0.492-1.415,0.78-2.099C4.396,10.181,6.281,6.089,8.1,1.948c0.302-0.688,0.574-1.82,1.268-1.902
		c0.685-0.081,1.499,0.049,2.244,0.049c9.881-0.001,20.172,0.05,30.344,0.048C43.502,0.143,45.043,0.027,46.542,0.29z"/>
	<path style="fill-rule:evenodd;clip-rule:evenodd;" d="M5.71,21.024c-0.74-0.371-1.854-0.157-2.878-0.196
		c-1.017-0.038-2.053,0.04-2.83-0.194c-0.023-0.512,0.204-0.771,0.439-1.024c1.655-0.103,2.932,0.112,4.537,0.049
		c0.439-0.018,0.982,0.047,1.366-0.049c0.625-0.156,1.247-1.013,1.708-1.317c0.915-0.607,2.728-1.377,4.146-0.635
		c1.163,0.609,1.612,2.347,1.269,4.195c-0.378,2.034-2.114,3.999-4.195,4.537c-2.443,0.633-4.022-0.7-3.854-3.512
		C5.457,22.194,5.65,21.854,5.71,21.024z"/>
	<path style="fill-rule:evenodd;clip-rule:evenodd;" d="M22.296,19.803c5.062,0.239,10.548,0.055,15.513,0.391
		c0.08,0.396-0.203,0.744-0.39,1.024c-4.954,0.097-10.059-0.184-15.074-0.098c-0.373,0.604-0.34,1.304-0.585,1.903
		c-0.85,2.071-2.698,3.652-5.805,3.561c-0.82-0.212-1.529-0.928-1.805-1.658c-0.776-2.054,0.188-4.802,1.61-6.05
		c0.938-0.822,2.299-1.456,3.415-1.512c0.591-0.03,1.183,0.106,1.561,0.292C21.574,18.07,21.877,18.937,22.296,19.803z"/>
	<path style="fill-rule:evenodd;clip-rule:evenodd;" d="M50.591,17.949c1.15-0.088,2.176,0.312,2.634,1.122
		c0.621,1.1,0.572,2.697,0.195,3.952c-0.618,2.053-2.409,3.635-4.342,4.049c-2.026,0.434-3.521-0.776-3.707-2.684
		c-0.205-2.094,0.801-4.101,1.951-5.073C48.068,18.685,49.049,18.067,50.591,17.949z"/>
</g>
<g id="Layer_1">
</g>
</svg>
