<?xml version="1.0" encoding="iso-8859-1"?>
<!-- Generator: Adobe Illustrator 19.2.0, SVG Export Plug-In . SVG Version: 6.00 Build 0)  -->
<svg version="1.1" xmlns="http://www.w3.org/2000/svg" xmlns:xlink="http://www.w3.org/1999/xlink" x="0px" y="0px"
	 viewBox="0 0 80.289 80.835" style="enable-background:new 0 0 80.289 80.835;" xml:space="preserve">
<g id="messegelande_x5F_dusseldorf">
	<path style="fill-rule:evenodd;clip-rule:evenodd;" d="M39.359,0.034c6.226-0.297,12.302,1.405,16.737,3.347
		c4.746,2.078,8.696,4.807,12.012,8.123c6.637,6.637,11.718,15.378,12.159,28.108c0.22,6.375-1.224,12.38-3.249,16.836
		c-3.216,7.075-7.6,12.43-13.488,16.737c-5.721,4.185-13.116,7.304-22.546,7.63c-6.271,0.217-12.442-1.268-16.836-3.249
		c-4.673-2.108-8.726-4.837-12.011-8.122c-1.675-1.675-3.306-3.438-4.578-5.514c-1.257-2.051-2.694-4.015-3.741-6.301
		c-2.133-4.656-3.525-9.714-3.791-16.343c-0.254-6.359,1.316-12.433,3.298-16.786c2.219-4.875,4.468-8.653,7.975-12.159
		c3.321-3.321,6.968-6.376,11.618-8.517c4.528-2.084,9.848-3.791,16.343-3.79C39.293,0.034,39.327,0.035,39.359,0.034z
		 M57.524,19.232c-3.249-0.065-6.644,0-10.092,0c-12.617-0.001-24.345,0.001-36.821,0c-1.104,0-2.25-0.128-3.298-0.049
		c-0.863,0.065-1.318,1.291-1.723,2.018c-0.924,1.66-1.638,3.144-2.265,4.824c-0.332,0.89-0.848,1.742-0.788,2.658
		c0.936,0.264,1.932,0.148,2.904,0.148c14.311,0,28.76,0,43.073,0c0.932,0,1.932-0.113,2.806,0.197
		c-0.712,4.054-1.68,8.057-2.511,12.061c-0.421,2.032-0.766,4.087-1.182,6.104c-0.833,4.045-1.686,8.022-2.609,11.962
		c-0.94,4.012-1.7,8.027-2.56,12.011c-0.434,2.009-1.027,3.997-1.182,6.055c0.585-1.053,0.946-2.239,1.329-3.397
		c0.399-1.207,0.757-2.44,1.182-3.643c2.543-7.213,4.704-14.592,7.187-21.807c2.485-7.223,4.898-14.495,7.286-21.709
		c0.801-2.42,1.775-4.798,2.313-7.286C59.598,19.11,58.558,19.253,57.524,19.232z M73.621,19.97
		c-0.764,1.058-1.351,2.357-2.018,3.594c-0.644,1.192-1.376,2.373-2.018,3.544c-6.649,12.12-13.14,24.087-19.838,36.034
		c-1.349,2.406-2.518,4.916-3.839,7.334c-1.323,2.422-2.795,4.754-3.889,7.286c1.685-1.76,2.988-4.014,4.529-6.055
		c1.55-2.053,2.774-4.359,4.332-6.351c8.193-11.495,16.83-23.427,25.057-35.098c0.508-0.721,1.572-1.755,1.624-2.413
		c0.051-0.637-0.501-1.534-0.738-2.165c-0.292-0.779-0.619-1.448-0.886-2.019c-0.633-1.349-1.204-2.711-2.117-3.741
		c-0.003-0.03-0.007-0.058-0.049-0.049C73.71,19.896,73.657,19.924,73.621,19.97z M20.85,42.073c-6.725,0-13.884-0.083-20.035,0.049
		c-0.29,0.692-0.123,1.477-0.049,2.166c0.24,2.22,0.541,4.287,1.082,6.252c1.22,4.427,2.978,8.43,5.268,11.765
		c0.349,0.508,0.599,1.047,0.935,1.526c1.347,1.915,2.896,3.667,4.529,5.218c4.996,4.742,11,8.453,18.952,10.288
		c2.658,0.613,5.622,0.959,8.713,0.837c0.259-0.715,0.147-1.512,0.147-2.265c0-12.295,0.037-23.728-0.098-35.738
		C34.132,41.916,27.543,42.073,20.85,42.073z M79.233,43.747c-6.231,5.747-12.365,11.592-18.559,17.377
		c-4.531,4.395-9.321,8.532-13.685,13.094c-1.54,1.447-3.185,2.789-4.529,4.431c2.402-1.303,4.474-3.176,6.596-4.726
		c3.663-2.675,7.291-5.318,10.928-7.975c5.836-4.263,11.796-8.351,17.574-12.7c0.844-2.38,1.554-5.382,1.871-8.271
		c0.043-0.392,0.212-1.064-0.148-1.23C79.265,43.747,79.249,43.747,79.233,43.747z M65.203,68.852
		c-3.438,1.546-6.864,3.225-10.289,4.775c-2.292,1.037-4.59,2.043-6.793,3.2c-1.105,0.58-2.307,1.072-3.446,1.575
		c-0.571,0.252-1.153,0.544-1.723,0.788c-0.567,0.241-1.221,0.376-1.625,0.886c1.354,0.227,2.727,0.011,3.987-0.148
		c9.076-1.144,15.801-5.218,21.217-9.993c0.447-0.369,0.898-0.8,1.329-1.231c0.402-0.403,0.999-0.82,1.034-1.428
		c-0.033,0-0.066,0-0.099,0C67.593,67.754,66.401,68.314,65.203,68.852z"/>
</g>
<g id="Layer_1">
</g>
</svg>
