<?xml version="1.0" encoding="iso-8859-1"?>
<!-- Generator: Adobe Illustrator 19.2.0, SVG Export Plug-In . SVG Version: 6.00 Build 0)  -->
<svg version="1.1" xmlns="http://www.w3.org/2000/svg" xmlns:xlink="http://www.w3.org/1999/xlink" x="0px" y="0px"
	 viewBox="0 0 65.534 66.683" style="enable-background:new 0 0 65.534 66.683;" xml:space="preserve">
<g id="Mesy_x5F_Shirts_x5F_74">
	<path style="fill-rule:evenodd;clip-rule:evenodd;" d="M65.495,57.278c-1.113,1.024-2.553,1.723-3.894,2.518
		c-1.994,1.203-4.101,2.28-6.127,3.467c-1.52,0.89-3.037,1.747-4.56,2.612c-0.483,0.274-0.98,0.68-1.567,0.712
		c-0.419-0.579-0.237-1.419-0.237-2.137c0.001-4.599,0.047-9.515,0.048-14.105c0-0.722,0.02-1.479-0.19-2.138
		c-0.79,0.086-1.442,0.623-2.09,0.997c-3.971,2.299-7.969,4.71-12.063,7.029c-0.604,0.342-1.523,1.07-2.089,1.093
		c-0.564,0.021-1.596-0.638-2.185-0.997c-3.338-2.041-6.584-4.015-9.926-5.984c-1.315-0.776-2.582-1.72-4.132-2.233
		c-0.34,0.64-0.191,1.454-0.191,2.185c0,3.859,0,7.952,0,11.873c0,0.798-0.037,1.598,0,2.375c0.034,0.715,0.11,1.478-0.142,2.138
		c-0.813-0.009-1.436-0.608-2.091-0.998c-3.279-1.951-6.724-3.888-10.02-5.889c-1.324-0.804-2.76-1.43-3.942-2.423
		C0.061,45.04,0.048,33.546,0.048,21.421c0-0.809-0.136-1.823,0.047-2.375c0.158-0.476,1.319-0.989,1.9-1.329
		c4.678-2.743,9.598-5.558,14.248-8.264c2.722-1.585,5.343-3.168,8.169-4.702c0.658-0.358,1.279-0.855,1.994-1.235
		c1.388-0.736,2.741-1.488,4.085-2.327c0.671-0.419,1.349-0.901,2.042-1.14c0.062-0.021,0.12-0.055,0.19-0.048
		c0.687,0.074,1.506,0.701,2.185,1.093c2.012,1.163,4.234,2.577,6.079,3.609c4.075,2.373,8.175,4.77,12.301,7.124
		c1.033,0.59,1.998,1.283,3.04,1.852c1.049,0.573,2.13,1.088,3.182,1.662c1.027,0.562,1.986,1.261,2.992,1.852
		c1.015,0.598,2.055,1.146,2.944,1.9C65.629,31.502,65.465,44.188,65.495,57.278z M34.813,20.376
		c-0.634-0.365-1.729-1.175-2.374-0.902c-1.364,0.575-2.684,1.456-3.989,2.184c-1.271,0.709-2.583,1.421-3.895,2.279
		c-1.924,1.26-3.861,2.23-5.842,3.42c-0.41,0.246-1.816,0.841-1.805,1.33c0.005,0.21,0.548,0.557,0.807,0.713
		c1.027,0.618,2.045,1.151,2.992,1.709c3.442,2.025,6.405,3.954,9.879,5.794c0.588,0.311,1.512,1.055,2.09,1.045
		c0.622-0.01,1.502-0.695,2.09-1.045c0.83-0.493,1.352-0.822,1.947-1.187c3.315-2.029,6.617-3.601,9.974-5.699
		c0.367-0.23,1.825-0.931,1.805-1.378c-0.021-0.467-1.364-1.073-1.805-1.33c-2.145-1.248-3.81-2.296-5.937-3.467
		C38.933,22.736,36.799,21.52,34.813,20.376z M3.421,25.173c-0.332,1.112-0.19,2.367-0.19,3.562c0,8.83-0.041,17.716,0.048,26.311
		c0.543,0.753,1.485,1.019,2.232,1.521c0.765,0.514,1.566,0.936,2.374,1.377c1.211,0.661,2.37,1.416,3.563,2.09
		c0.391,0.221,0.801,0.569,1.282,0.522c0.327-0.63,0.189-1.416,0.189-2.138c0-3.895,0.001-7.845,0-11.684
		c0-1.571-0.114-3.123,0.142-4.559c0.921,0.311,1.695,0.874,2.518,1.33c5.406,2.996,10.5,6.249,15.958,9.213
		c0.425,0.231,0.969,0.661,1.282,0.665c0.289,0.005,0.839-0.371,1.282-0.617c1.272-0.706,2.561-1.487,3.657-2.138
		c4.095-2.429,8.186-4.762,12.253-7.076c0.816-0.464,1.604-1.139,2.517-1.282c0.088,5.241,0.047,10.877,0.048,16.147
		c0.001,0.739-0.11,1.5,0.143,2.186c0.929-0.119,1.668-0.744,2.47-1.141c1.705-0.843,3.083-1.709,4.797-2.707
		c0.753-0.438,1.996-0.867,2.279-1.472c0.354-0.756,0.067-2.662,0.096-3.848c0.088-3.691,0.048-7.66,0.047-11.303
		c0-2.544-0.012-5.002,0-7.362c0.007-1.259,0.049-2.536,0-3.752c-0.051-1.291,0.055-2.535-0.189-3.657
		c-1.232,0.28-2.263,1.06-3.324,1.663c-7.518,4.271-14.978,8.516-22.418,12.823c-0.566,0.22-1.126,0.701-1.804,1.092
		c-0.448,0.259-1.448,0.951-1.947,0.95c-0.517-0.001-1.332-0.642-1.9-0.95c-1.934-1.052-3.659-2.131-5.462-3.134
		c-1.21-0.675-2.452-1.37-3.609-2.09c-2.421-1.507-4.817-2.799-7.219-4.228c-2.439-1.451-4.814-2.864-7.172-4.274
		c-1.224-0.732-2.466-1.382-3.704-2.042c-0.003-0.029-0.007-0.056-0.048-0.048C3.547,25.141,3.519,25.193,3.421,25.173z"/>
</g>
<g id="Layer_1">
</g>
</svg>
