<?xml version="1.0" encoding="iso-8859-1"?>
<!-- Generator: Adobe Illustrator 19.2.0, SVG Export Plug-In . SVG Version: 6.00 Build 0)  -->
<svg version="1.1" xmlns="http://www.w3.org/2000/svg" xmlns:xlink="http://www.w3.org/1999/xlink" x="0px" y="0px"
	 viewBox="0 0 71.401 72.073" style="enable-background:new 0 0 71.401 72.073;" xml:space="preserve">
<g id="Michael_x5F_Marin">
	<path style="fill-rule:evenodd;clip-rule:evenodd;" d="M59.045,0.113c0.27,2.384,0.149,4.897,0.149,7.489
		c0,17.082,0.249,34.784,0.1,52.274c-0.772,0.207-1.767,0.209-2.728,0.198c-1.843-0.02-3.76,0-5.654,0
		c-0.91,0-1.838,0.046-2.628-0.148c-0.293-16.022,0.015-32.228-0.298-48.356c-4.073-0.175-8.613-0.163-12.548,0.049
		c-0.239,0.907-0.104,1.866-0.099,2.827c0.08,15.168,0.047,30.478,0,45.529c-3.471,0.153-7.744,0.172-11.01,0.05
		c-0.346-0.376-0.199-0.95-0.199-1.389c0-11.509-0.1-23.464-0.099-34.915c0-4.084,0.095-8.179-0.149-12.102
		c-2.039-0.172-4.192-0.027-6.299-0.049c-2.088-0.022-4.204-0.168-6.15,0.099c-0.173,3.884-0.049,7.836-0.049,11.854
		c-0.001,12.148,0.154,24.482-0.05,36.503c-3.458,0.164-7.602,0.165-11.06,0C0.098,45.033,0.076,29.927,0.076,14.991
		c0-3.695-0.049-7.274-0.05-11.159c0-1.211-0.117-2.44,0.149-3.62C12.03-0.007,24.626,0.191,36.826,0.063
		C44.369-0.016,51.655-0.042,59.045,0.113z"/>
	<path style="fill-rule:evenodd;clip-rule:evenodd;" d="M71.147,12.214c0.222,9.742,0.198,19.858,0.198,29.857
		c0,9.735,0.154,19.857-0.05,29.708c-2.403,0.268-4.881,0.148-7.34,0.148c-2.455,0-4.911,0.05-7.39,0.049
		c-9.813,0-19.699,0.05-29.808,0.05c-4.979,0-9.882,0.154-14.581-0.099c-0.158-5.053-0.149-10.122-0.149-15.127
		c0-4.994-0.166-9.926-0.05-14.779c0.116-4.852-0.101-9.841,0.05-14.83c0.149-4.95-0.101-9.973,0.149-14.879
		c3.408-0.165,7.504-0.165,10.912,0c0.267,0.97,0.148,1.997,0.148,2.976c0.001,15.314,0.006,30.201,0.199,45.38
		c0.916,0.215,1.964,0.099,3.025,0.099c3.092,0,6.569,0.081,9.522-0.099c0.188-3.933,0.099-8.021,0.099-12.101
		c0-11.946-0.175-24.339,0-36.255c0.826-0.266,1.786-0.149,2.728-0.149c2.708,0,5.792-0.081,8.382,0.1
		c0.233,7.88,0.149,15.967,0.149,24.252c0,5.785,0.049,11.965,0.049,18.152c0,2.021-0.121,4.047,0.149,6.001
		c4.173,0.13,8.066,0.121,12.399,0c0.26-0.797,0.148-1.942,0.148-2.976c0.001-7.043-0.05-13.779-0.049-21.375
		c0-6.78-0.05-14.131-0.05-21.426c0-0.76-0.201-2.615,0.298-2.728c0.625-0.142,1.966-0.049,2.777-0.049
		C65.746,12.115,68.573,12.033,71.147,12.214z"/>
</g>
<g id="Layer_1">
</g>
</svg>
