<?xml version="1.0" encoding="iso-8859-1"?>
<!-- Generator: Adobe Illustrator 19.2.0, SVG Export Plug-In . SVG Version: 6.00 Build 0)  -->
<svg version="1.1" xmlns="http://www.w3.org/2000/svg" xmlns:xlink="http://www.w3.org/1999/xlink" x="0px" y="0px"
	 viewBox="0 0 68.035 70.899" style="enable-background:new 0 0 68.035 70.899;" xml:space="preserve">
<g id="Milano_x5F_Cinema">
	<path style="fill-rule:evenodd;clip-rule:evenodd;" d="M66.77,22.721c-0.516,0.35-1.179,0.399-1.762,0.524
		c-7.953,1.708-16.067,3.24-24.102,5.001c-1.229,0.269-2.497,0.598-3.763,0.62c-0.179-0.474-0.117-1.012-0.096-1.524
		c0.316-7.48,0.706-14.838,1.048-22.339c0.864-0.489,1.904-0.51,2.858-0.714c2.904-0.623,5.89-1.193,8.859-1.858
		c1.981-0.443,4.016-0.728,6.001-1.143c1.996-0.418,3.969-0.98,5.906-1.238c0.079-0.011,0.106-0.056,0.19-0.048
		c0.705,0.07,0.843,1.682,1.001,2.477c0.948,4.795,1.978,9.65,2.857,14.432C66.129,18.862,66.584,20.789,66.77,22.721z"/>
	<path style="fill-rule:evenodd;clip-rule:evenodd;" d="M4.66,35.582c-0.42-0.316-0.334-0.906-0.429-1.333
		c-0.725-3.254-1.384-6.616-1.953-10.05c-0.305-1.84-0.831-3.792-1.19-5.716c-0.237-1.268-0.572-2.838-0.857-4.287
		c-0.094-0.472-0.321-1.128-0.191-1.429c0.21-0.484,2.024-0.647,2.81-0.81c2.997-0.622,6.027-1.241,8.955-1.81
		c2.046-0.398,4.104-0.694,6.049-1.143c1.967-0.454,3.927-0.897,5.906-1.238c1.015-0.175,1.406,1.578,1.81,2.381
		c0.527,1.049,0.978,1.852,1.333,2.715c2.338,4.704,4.474,9.426,6.812,14.337c0.238,0.501,1.039,1.599,0.905,2.096
		c-0.098,0.359-1.077,0.437-1.715,0.571c-4.382,0.924-8.782,1.807-13.194,2.715c-3.795,0.781-7.471,1.568-11.288,2.334
		C7.175,35.165,5.951,35.58,4.66,35.582z"/>
	<path style="fill-rule:evenodd;clip-rule:evenodd;" d="M35.572,36.534c0.461,0.666,0.329,1.925,0.953,2.429
		c0.716-0.459,0.56-1.79,1.096-2.429c8.877-0.167,17.733-0.001,26.578,0c1.223,0,2.474-0.116,3.667,0.143
		c0.26,1.373,0.143,2.806,0.143,4.239c0,9.916,0.067,20.567-0.047,29.817c-0.605,0.249-1.303,0.143-1.953,0.143
		c-4.682,0-9.87,0.105-14.385-0.143c-0.385-5.109,0.146-10.392-0.048-15.576c-0.096-2.579,0.07-5.135,0-7.668
		c-0.071-2.572,0.168-5.102-0.095-7.573c-0.601,0.229-0.555,1.16-0.715,1.762c-1.515,5.724-3.029,11.684-4.477,17.481
		c-0.321,1.288-0.773,2.522-1.047,3.811c-0.283,1.323-0.616,2.639-0.953,3.953c-0.324,1.263-0.534,2.591-1.096,3.763
		c-1.041,0.201-2.19,0.143-3.334,0.143c-3.371,0.001-7.067-0.021-10.384-0.095c-0.554-1.211-0.713-2.552-1-3.858
		c-0.284-1.293-0.622-2.61-0.953-3.905c-1.64-6.419-3.061-13.043-4.811-19.434c-0.176-0.643-0.313-1.3-0.477-1.953
		c-0.144-0.584-0.201-1.278-0.618-1.762c-0.247,0.564-0.151,1.208-0.191,1.81c-0.122,1.872,0,3.873,0,5.858
		c0.001,6.44-0.191,13.127-0.191,19.529c0,1.242,0.123,2.542-0.285,3.668c-4.977,0.101-11.009,0.108-16.195-0.047
		c-0.213-5.504-0.143-11.292-0.143-17.052c0-4.331,0-8.624,0-13.051c0-1.371-0.085-2.775,0.143-4.096
		c0.119-0.04,0.256-0.062,0.429-0.048C14.975,36.414,25.707,36.339,35.572,36.534z"/>
</g>
<g id="Layer_1">
</g>
</svg>
