<?xml version="1.0" encoding="iso-8859-1"?>
<!-- Generator: Adobe Illustrator 19.2.0, SVG Export Plug-In . SVG Version: 6.00 Build 0)  -->
<svg version="1.1" xmlns="http://www.w3.org/2000/svg" xmlns:xlink="http://www.w3.org/1999/xlink" x="0px" y="0px"
	 viewBox="0 0 67.004 64.154" style="enable-background:new 0 0 67.004 64.154;" xml:space="preserve">
<g id="Mineralni_x5F_Vodi-Sofia">
	<path style="fill-rule:evenodd;clip-rule:evenodd;" d="M33.43,20.437c0.363-0.333,0.398-0.897,0.489-1.333
		c0.709-3.409,1.82-6.627,3.068-9.603c1.211-2.89,2.464-5.896,4.179-8.491c0.219-0.332,0.619-0.915,0.845-0.934
		c0.539-0.045,1.183,1.343,1.511,1.867c0.479,0.763,0.887,1.425,1.29,2.089c0.922,1.524,1.531,3.009,2.311,4.446
		c1.625,2.992,2.706,6.319,3.823,9.646c1.127,3.359,1.872,7.115,2.489,10.981c0.307,1.921,0.675,3.898,0.845,5.913
		c0.086,1.022,0.223,2.041,0.311,3.067c0.087,1.019,0.155,2.102-0.045,3.112c-0.5,0.222-1.115,0.133-1.734,0.133
		c-0.594,0-1.217,0.073-1.822,0.045c-1.204-0.056-2.485,0.076-3.468-0.222c-0.321-1.194-0.235-2.469-0.311-3.69
		c-0.079-1.267-0.167-2.511-0.267-3.734c-0.389-4.806-1.416-9.289-2.534-13.47c-0.411-1.538-0.894-3.044-1.467-4.534
		c-0.164-0.425-0.339-0.955-0.711-1.245c-0.434,0.275-0.606,0.839-0.8,1.289c-1.441,3.335-2.512,7.202-3.334,11.203
		c-0.474,2.307-0.712,4.792-0.934,7.38c-0.164,1.916-0.222,3.9-0.222,6.046c0,0.616-0.129,1.3,0.178,1.867
		c4.69,0.264,9.743,0.044,14.848,0.044c4.445,0,8.813,0,13.292,0c0.578,0,1.218-0.125,1.734,0.178
		c0.083,1.053-0.348,2.072-0.667,3.023c-2.206,6.573-5.793,12.491-11.069,16.004c-2.838,1.89-7.707,3.405-12.447,2.223
		c-3.078-0.767-5.532-2.205-7.38-4.223c-0.615-0.671-1.08-1.472-1.823-2.045c-0.899,0.361-1.085,1.24-1.6,1.912
		c-1.037,1.353-2.538,2.354-4.134,3.156c-1.697,0.853-3.646,1.386-5.779,1.423c-2.443,0.042-4.608-0.224-6.402-0.89
		c-4.372-1.623-7.404-4.622-10.002-8.224c-0.524-0.727-1.107-1.415-1.511-2.134c-1.299-2.313-2.546-4.75-3.512-7.424
		C0.34,44.384,0.038,43.381,0,42.398c0.55-0.294,1.209-0.178,1.822-0.178c6.769,0.001,14.215-0.22,21.072,0.044
		c2.481,0.096,4.921,0.053,7.335-0.089c0.383-1.258,0.103-2.594,0.044-3.868c-0.298-6.512-1.467-12.521-3.023-17.871
		c-0.316-1.088-0.673-2.149-0.978-3.201c-0.144-0.499-0.476-0.933-0.667-1.423c-0.191-0.491-0.238-1.095-0.711-1.378
		c-0.477,0.236-0.547,0.843-0.711,1.289c-0.508,1.382-0.97,2.938-1.378,4.534c-0.527,2.063-1.035,4.246-1.422,6.446
		c-0.391,2.219-0.818,4.549-0.978,6.935c-0.082,1.211-0.21,2.443-0.267,3.69c-0.055,1.215,0.02,2.468-0.223,3.689
		c-1.26,0.448-2.995,0.17-4.445,0.178c-0.912,0.005-1.872,0.14-2.667-0.133c-0.321-0.806-0.23-1.921-0.178-3.067
		c0.139-3.062,0.614-6.071,1.111-8.891c1.326-7.507,3.263-14.292,6.09-20.494c1.008-2.211,2.047-4.566,3.334-6.668
		c0.422-0.689,0.951-1.475,1.422-1.867c0.605-0.502,1.525,1.627,1.734,2c1.338,2.4,2.49,4.717,3.646,7.291
		c1.169,2.605,1.946,5.275,2.667,8.269c0.119,0.492,0.252,0.963,0.356,1.467C33.078,19.551,33.172,20.061,33.43,20.437z
		 M54.146,48.933c-2.929-0.058-5.715,0.045-8.536,0.044c-3.766,0-7.557-0.029-11.292,0.044c-3.749,0.074-7.528-0.044-11.292-0.044
		c-3.782,0-7.556-0.057-11.292-0.044c-0.331,0.001-0.935,0.002-1.156,0.223c0.073,0.865,0.686,1.603,1.2,2.267
		c0.524,0.676,1.117,1.301,1.689,1.912c1.938,2.067,6.159,3.85,10.18,2.801c1.691-0.441,3.035-1.216,4.134-2.178
		c0.553-0.739,1.25-1.417,1.69-2.312c0.257-0.523,0.289-1.182,0.756-1.601c1.38-0.13,3.566-0.016,5.068,0.045
		c0.556,0.022,1.259-0.11,1.645,0.089c0.372,0.192,0.542,1.048,0.8,1.511c1.821,3.266,6.185,5.692,11.381,4.49
		c2.807-0.649,4.855-2.628,6.312-4.623c0.498-0.682,1.105-1.365,1.245-2.4C55.881,48.868,54.993,48.95,54.146,48.933z"/>
</g>
<g id="Layer_1">
</g>
</svg>
