<?xml version="1.0" encoding="iso-8859-1"?>
<!-- Generator: Adobe Illustrator 19.2.0, SVG Export Plug-In . SVG Version: 6.00 Build 0)  -->
<svg version="1.1" xmlns="http://www.w3.org/2000/svg" xmlns:xlink="http://www.w3.org/1999/xlink" x="0px" y="0px"
	 viewBox="0 0 82.262 80.674" style="enable-background:new 0 0 82.262 80.674;" xml:space="preserve">
<g id="Mineralolwerk_x5F_Klaffenbach">
	<path style="fill-rule:evenodd;clip-rule:evenodd;" d="M24.404,40.332c-0.236,10.637-0.018,22.088-0.153,32.779
		c-0.019,1.534,0.245,3.056-0.102,4.53c-1.125-0.131-2.018-0.876-2.952-1.375C14.499,72.693,9.484,67.5,5.521,61.1
		c-2.153-3.479-4.037-7.914-4.886-12.726c-0.927-5.25-0.836-10.864,0.254-15.931c1.031-4.791,2.688-8.974,4.988-12.674
		c2.263-3.641,4.873-6.96,8.042-9.569c0.843-0.693,1.582-1.417,2.392-2.036c4.893-3.738,11.148-6.541,18.68-7.736
		c6.935-1.101,14.173,0.056,19.851,1.934c4.532,1.5,8.354,3.759,11.656,6.362c6.701,5.283,12.08,12.189,14.506,21.53
		c1.278,4.919,1.613,11.039,0.865,16.236c-0.74,5.152-2.545,9.599-4.58,13.438c-3.08,5.807-7.693,10.393-12.979,14.048
		c-1.315,0.908-2.755,1.761-4.225,2.545c-0.472,0.252-0.988,0.681-1.578,0.56c-0.507-0.446-0.407-1.291-0.407-1.934
		c0-9.316,0.051-19.686,0.051-29.572c0-0.687,0.025-1.525,0-2.291c-0.037-1.164,0.06-1.992-0.661-2.442
		c-0.75-0.469-2.884-0.204-4.072-0.204c-7.031,0.001-13.933-0.001-21.072,0c-2.15,0-4.208,0.012-6.21-0.152
		C25.541,40.437,24.976,40.267,24.404,40.332z M26.491,30.306c1.972-1.32,3.855-2.659,5.701-4.072
		c2.427-1.857,5.062-3.533,7.635-5.344c2.495-1.757,4.989-3.516,7.635-5.345c1.846-1.276,3.695-2.767,5.701-4.021
		c0.516-0.322,1.773-1.039,1.68-1.578c-0.054-0.312-0.879-0.602-1.425-0.813c-5.025-1.939-11.768-2.79-18.12-1.781
		c-2.864,0.454-5.317,1.231-7.686,2.29c-0.708,0.316-2.963,1.16-3.257,1.731c-0.227,0.438-0.102,1.651-0.102,2.443
		c0,2.383,0.063,5.351,0.051,7.584c-0.014,2.617,0,5.162,0,7.635c0,0.808-0.115,1.667,0.153,2.442
		C25.225,31.272,25.853,30.733,26.491,30.306z M66.905,62.474c0.407-0.357,0.757-0.771,1.068-1.222
		c5.049-5.987,8.472-14.939,6.923-26.264c-0.667-4.877-2.605-8.636-4.784-12.267c-1.562-2.602-3.565-4.926-5.803-6.974
		c-0.618-0.566-2.059-1.994-2.749-1.628c-1.183,0.626-2.261,1.545-3.41,2.341c-1.145,0.794-2.232,1.651-3.359,2.443
		c-6.257,4.399-12.553,8.694-18.629,13.132c-0.523,0.382-1.294,0.726-1.476,1.425c1.27,0.273,2.646,0.153,4.021,0.153
		c7.055-0.001,13.9,0,20.665,0c2.915-0.001,4.792,0.683,5.65,2.697c0.694,1.63,0.618,4.404,0.56,6.515
		c-0.19,6.874-0.023,13.759,0.102,20.563C66.282,63.467,66.577,62.833,66.905,62.474z M16.057,17.785
		c-2.457,2.753-4.713,5.936-6.312,9.722c-1.601,3.793-2.749,8.141-2.748,13.336c0,8.919,3.315,15.737,7.38,20.716
		c0.6,0.733,1.035,1.73,1.985,2.035c0.38-7.629,0.005-15.439,0.153-22.955c0.138-6.984-0.05-14.398-0.051-21.632
		c0-0.384,0.158-0.962-0.204-1.273c-0.002-0.031-0.007-0.06-0.051-0.051C16.15,17.707,16.094,17.738,16.057,17.785z"/>
	<path style="fill-rule:evenodd;clip-rule:evenodd;" d="M41.15,42.979c0.034,0,0.068,0,0.102,0c0.572,1.176,1.01,2.336,1.578,3.411
		c1.714,3.246,3.792,5.908,5.955,8.907c1.35,1.871,2.636,3.845,3.716,6.209c0.992,2.173,1.889,5.117,1.374,8.297
		c-0.831,5.131-4.666,9.095-9.416,10.384c-6.14,1.665-11.413-1.18-13.896-4.887c-1.774-2.209-2.845-5.709-2.239-9.365
		c0.543-3.282,2.037-6.069,3.512-8.348c1.541-2.379,3.331-4.586,4.938-6.922c1.64-2.385,3.071-4.862,4.173-7.687
		C41.063,43.049,41.138,42.848,41.15,42.979z"/>
</g>
<g id="Layer_1">
</g>
</svg>
