<?xml version="1.0" encoding="iso-8859-1"?>
<!-- Generator: Adobe Illustrator 21.0.2, SVG Export Plug-In . SVG Version: 6.00 Build 0)  -->
<svg version="1.1" xmlns="http://www.w3.org/2000/svg" xmlns:xlink="http://www.w3.org/1999/xlink" x="0px" y="0px"
	 viewBox="0 0 30.538 30.424" style="enable-background:new 0 0 30.538 30.424;" xml:space="preserve">
<g id="MiniMini">
	<g>
		<g>
			<polygon style="fill:#010101;" points="12.541,7.265 15.228,11.902 17.909,7.274 23.064,15.95 24.917,15.95 17.911,3.959 
				15.228,8.589 12.542,3.953 5.62,15.95 7.573,15.95 			"/>
			<polygon style="fill:#010101;" points="17.916,8.57 15.228,13.21 12.544,8.579 8.328,15.95 10.168,15.95 12.544,11.811 
				15.228,16.441 17.916,11.801 20.361,15.95 22.301,15.95 			"/>
		</g>
		<g>
			<polygon style="fill:#010101;" points="12.541,16.423 15.228,21.061 17.909,16.433 23.064,25.109 24.917,25.109 17.911,13.117 
				15.228,17.748 12.542,13.112 5.62,25.109 7.573,25.109 			"/>
			<polygon style="fill:#010101;" points="17.916,17.728 15.228,22.368 12.544,17.738 8.328,25.109 10.168,25.109 12.544,20.969 
				15.228,25.599 17.916,20.96 20.361,25.109 22.301,25.109 			"/>
		</g>
		<path style="fill:#010101;" d="M15.269,30.424c-4.418,0-8.732-0.782-12.475-2.26l-0.376-0.149l-0.15-0.375
			C0.784,23.911,0,19.614,0,15.212c0-4.402,0.784-8.699,2.268-12.429l0.15-0.375L2.793,2.26C6.536,0.781,10.85,0,15.269,0
			c4.42,0,8.733,0.781,12.475,2.26l0.377,0.149l0.149,0.375c1.485,3.729,2.269,8.027,2.269,12.429c0,4.402-0.784,8.699-2.269,12.428
			l-0.149,0.375l-0.377,0.149C24.001,29.643,19.688,30.424,15.269,30.424z M3.864,26.574c3.437,1.298,7.37,1.982,11.405,1.982
			c4.035,0,7.969-0.685,11.406-1.982c1.303-3.424,1.99-7.342,1.99-11.362c0-4.02-0.688-7.939-1.99-11.363
			c-3.436-1.298-7.37-1.982-11.406-1.982c-4.035,0-7.969,0.684-11.405,1.982c-1.302,3.424-1.99,7.343-1.99,11.363
			C1.874,19.232,2.561,23.15,3.864,26.574z"/>
	</g>
</g>
<g id="Layer_1">
</g>
</svg>
