<?xml version="1.0" encoding="iso-8859-1"?>
<!-- Generator: Adobe Illustrator 19.2.0, SVG Export Plug-In . SVG Version: 6.00 Build 0)  -->
<svg version="1.1" xmlns="http://www.w3.org/2000/svg" xmlns:xlink="http://www.w3.org/1999/xlink" x="0px" y="0px"
	 viewBox="0 0 77.687 61.855" style="enable-background:new 0 0 77.687 61.855;" xml:space="preserve">
<g id="Ministerio_x5F_del_x5F_Trabajo">
	<path style="fill-rule:evenodd;clip-rule:evenodd;" d="M77.143,0.224c0.291,0.871,0.111,1.809,0.146,2.705
		c0.114,2.85,0.11,5.541,0.099,8.31c-0.015,3.791,0.099,7.617,0.099,11.459c0,3.752-0.074,7.553,0.099,11.262
		c0.087,1.877-0.074,3.762,0,5.607c0.037,0.936-0.011,1.889,0,2.803c0.01,0.885,0.277,1.777-0.099,2.605
		c-2.562,0.262-5.347,0.113-8.065,0.197c-2.706,0.086-5.433-0.164-7.918,0.197c-0.405,1.221-0.246,2.65-0.246,4.033
		c0.001,3.289-0.111,6.664,0,10.229c0.021,0.633,0.222,1.293-0.049,1.869c-0.897,0.24-1.922,0.049-2.95,0.098
		c-1.895,0.088-3.959,0.008-6.05,0.049c-0.988,0.02-1.985,0.156-2.852-0.146c-0.285-1.139-0.197-2.367-0.197-3.541
		c0-6.242-0.049-11.766-0.049-17.803c0-1.82,0.019-3.643,0-5.459c-0.006-0.541-0.16-1.123,0.098-1.623
		c0.555-0.336,1.247-0.184,1.869-0.197c0.634-0.014,1.274-0.004,1.918-0.049c1.286-0.09,2.564,0.035,3.836,0
		c1.33-0.035,2.717-0.049,4.082-0.049c1.336,0,2.729,0.142,3.935-0.197c0.234-0.713,0.202-1.522,0.196-2.311
		c-0.038-4.965-0.156-10.142-0.099-15.146c0.009-0.67-0.007-2.064-0.245-2.312c-0.326-0.338-2.113-0.189-3.05-0.146
		c-3.311,0.15-6.533-0.139-9.786,0c-2.082,0.088-4.322-0.002-6.541,0c-4.54,0-8.626,0.047-13.081,0.049
		c-6.541,0-13.114-0.113-19.377,0.049c-0.021,0.043-0.043,0.088-0.098,0.098c-0.178,1.604-0.177,3.289-0.1,4.967
		c0.155,3.312-0.098,6.549,0.05,9.885c0.075,1.685-0.167,3.402,0.246,4.969c5.229,0.326,10.469,0.1,15.786,0.344
		c0.406,0.99,0.164,2.203,0.147,3.393c-0.016,1.172,0.043,2.398,0.099,3.59c0.109,2.338-0.049,4.82-0.049,7.131
		c0,3.537-0.055,7.238-0.05,10.918c0.002,0.91,0.299,3.025-0.099,3.492c-0.308,0.361-2.266,0.307-2.9,0.295
		c-2.076-0.041-3.871,0.004-6.049-0.098c-1.037-0.049-2.052,0.168-2.902-0.148c-0.145-4.393-0.148-9.615-0.148-14.262
		c0-0.625,0.048-1.625-0.196-1.869c-0.236-0.234-1.379-0.152-1.869-0.146c-2.102,0.021-4.111-0.043-6.148-0.1
		c-1.372-0.037-2.761,0-4.081-0.049c-1.351-0.051-2.676,0.209-3.836-0.146c-0.346-1.764-0.061-3.621-0.149-5.459
		c-0.261-5.494-0.134-11.291-0.246-16.967c-0.074-3.783-0.232-7.564-0.196-11.311c0.023-2.387,0.081-5.592-0.05-8.361
		c-0.039-0.828-0.088-2.361,0.197-2.656c0.449-0.465,3.737-0.195,4.672-0.195c8.088,0,15.352,0.246,23.409,0.244
		c3.218,0,6.442-0.068,9.394,0c3.184,0.074,6.33-0.125,9.54-0.049c3.108,0.074,6.282-0.023,9.344-0.049
		c3.86-0.031,7.962-0.109,11.754-0.098c2.162,0.006,4.893-0.098,7.131-0.1C75.94,0.027,76.741,0.033,77.143,0.224z"/>
	<path style="fill-rule:evenodd;clip-rule:evenodd;" d="M60.963,16.601c0.258,0.922,0.197,1.963,0.197,3
		c0,2.002,0.104,4.107,0.098,6.146c-0.002,1.008,0.087,2.004-0.146,2.902c-1.207,0.227-2.557,0.147-3.886,0.148
		c-3.896,0-7.944-0.02-11.803,0.195c-0.392,1.117-0.295,2.547-0.295,3.934c0,8.73,0.05,17.365,0.049,26.607
		c0,0.76,0.06,1.652-0.196,1.867c-0.324,0.275-2.242,0.117-2.951,0.148c-2.021,0.09-4.1,0.07-6.147,0.049
		c-1.005-0.01-1.996,0.1-2.852-0.098c-0.252-1.266-0.148-2.635-0.148-3.984c0-4.184,0-8.217,0-12.295c0-2.742-0.02-5.5-0.147-8.213
		c-0.126-2.666,0.17-5.352-0.196-7.916c-1.134-0.33-2.512-0.233-3.787-0.197c-2.662,0.072-5.189,0.09-8.065,0
		c-0.99-0.031-3.37,0.209-3.786-0.246c-0.371-0.404-0.23-2.291-0.197-3c0.094-1.975,0.068-4.117,0-6.098
		c-0.035-1.012-0.219-2.021,0.049-2.902c1.654-0.225,4.233-0.039,6.1-0.049c5.521-0.029,10.938,0.037,16.425,0
		C46.726,16.55,53.992,16.584,60.963,16.601z"/>
</g>
<g id="Layer_1">
</g>
</svg>
