<?xml version="1.0" encoding="iso-8859-1"?>
<!-- Generator: Adobe Illustrator 19.2.0, SVG Export Plug-In . SVG Version: 6.00 Build 0)  -->
<svg version="1.1" xmlns="http://www.w3.org/2000/svg" xmlns:xlink="http://www.w3.org/1999/xlink" x="0px" y="0px"
	 viewBox="0 0 167.679 180.43" style="enable-background:new 0 0 167.679 180.43;" xml:space="preserve">
<g id="Minnesota_x5F_Dental_x5F_Association">
	<path style="fill-rule:evenodd;clip-rule:evenodd;" d="M124.678,0.011c2.091-0.227,1.885,3.206,1.678,5.631
		c-0.542,6.331-2.405,12.634-4.193,17.73c-5.171,14.741-11.03,27.538-20.006,38.695c-4.389,5.455-9.057,10.33-15.813,13.538
		c-6.928,3.288-16.29,3.409-25.397,2.276c-8.187-1.018-16.562-3.523-23.481-5.871c-6.906-2.343-13.503-4.594-20.845-8.505
		c-4.957-2.641-9.391-4.772-13.657-8.267c-0.902-0.738-3.464-2.872-2.875-4.193c0.545-1.221,4.264-0.644,5.151-0.479
		c11.655,2.161,22.818,6.154,34.622,8.146c6.69,1.129,14.726,1.959,22.163,1.078c7.323-0.868,13.101-3.186,17.85-6.589
		c14.451-10.354,23.555-24.705,33.664-39.654c1.458-2.157,3.076-4.694,4.911-7.308C119.949,4.103,122.38,0.26,124.678,0.011z"/>
	<path style="fill-rule:evenodd;clip-rule:evenodd;" d="M165.77,20.137c3.645-0.322,1.132,3.395,0.119,4.672
		c-2.588,3.265-6.244,6.7-9.105,9.584c-8.455,8.522-16.29,16.382-22.882,26.955c-3.08,4.941-6.373,10.845-7.428,17.371
		c-1.211,7.503,0.177,15.737,1.917,22.043c4.551,16.492,11.806,29.211,18.569,43.727c0.326,0.699,1.29,3.025,1.797,4.433
		c0.391,1.086,1.348,3.98,0.12,4.792c-2.247,1.484-7.985-4.187-9.345-5.391c-8.101-7.181-14.777-15.763-20.726-24.559
		c-4.018-5.942-7.697-12.509-10.662-19.647c-2.876-6.925-6.08-15.675-4.312-24.679c1.53-7.795,6.214-14.281,10.423-19.887
		c4.443-5.92,9.098-10.761,14.615-15.574c7.916-6.905,16.358-13.631,26.116-19.288C157.864,23.022,162.128,20.459,165.77,20.137z"/>
	<path style="fill-rule:evenodd;clip-rule:evenodd;" d="M58.909,25.408c2.09-0.209,5.134,0.419,6.829,1.318
		c5.893,3.126,11.718,12.632,7.907,20.965c-1.505,3.291-5.073,6.031-9.943,5.87c-7.554-0.25-13.702-7.777-14.256-15.694
		c-0.473-6.759,3.359-11.632,8.625-12.46C58.332,25.367,58.591,25.44,58.909,25.408z"/>
	<path style="fill-rule:evenodd;clip-rule:evenodd;" d="M145.643,68.057c4.717-0.349,9.608,1.479,12.34,3.833
		c1.616,1.393,3.894,5.247,3.354,9.344c-0.924,7.019-9.209,11.026-16.532,10.303c-6.185-0.611-13.947-5.453-12.579-13.657
		c0.438-2.632,1.932-4.847,3.474-6.11C138.185,69.736,141.129,68.391,145.643,68.057z"/>
	<path style="fill-rule:evenodd;clip-rule:evenodd;" d="M50.044,86.386c13.541-0.725,26.363,1.168,34.862,5.151
		c9.205,4.316,14.209,12.915,18.089,21.923c5.723,13.28,9.488,30.815,9.943,49.837c0.072,3.027,0.063,6.408-0.239,9.704
		c-0.26,2.828-0.946,7.341-2.516,7.427c-1.446,0.08-2.269-2.463-2.636-3.354c-1.624-3.941-2.879-9.748-3.954-13.657
		c-1.804-6.564-3.48-12.706-5.391-18.209c-3.931-11.324-9.366-22.557-17.73-29.471c-12.887-10.652-33.996-12.805-56.785-14.017
		c-4.907-0.261-11.077-0.431-16.292-1.438c-1.274-0.246-3.638-0.759-3.834-2.037c-0.261-1.704,2.692-3.028,3.834-3.594
		c4.957-2.458,11.213-3.943,16.772-5.151c4.135-0.898,8.383-1.574,12.579-2.036C41.071,86.988,45.767,86.615,50.044,86.386z"/>
	<path style="fill-rule:evenodd;clip-rule:evenodd;" d="M71.129,118.972c7.203-0.294,11.985,5.579,10.782,13.777
		c-0.592,4.033-2.74,7.818-5.511,10.063c-3.2,2.592-7.706,5.068-12.699,3.594c-3.076-0.908-5.955-3.86-6.829-7.308
		c-1.796-7.085,2.643-14.595,6.829-17.61C65.417,120.251,68.263,119.089,71.129,118.972z"/>
</g>
<g id="Layer_1">
</g>
</svg>
