<?xml version="1.0" encoding="iso-8859-1"?>
<!-- Generator: Adobe Illustrator 21.0.2, SVG Export Plug-In . SVG Version: 6.00 Build 0)  -->
<svg version="1.1" xmlns="http://www.w3.org/2000/svg" xmlns:xlink="http://www.w3.org/1999/xlink" x="0px" y="0px"
	 viewBox="0 0 24.282 19.952" style="enable-background:new 0 0 24.282 19.952;" xml:space="preserve">
<g id="Minnesota_x5F_Zoo_x5F_2">
	<path d="M2.644,0.034C2.756,0.036,2.866,0.009,2.978,0c3.533,0,7.065,0,10.598,0c0.299,0.055,0.605,0.018,0.905,0.061
		c1.384,0.158,2.73,0.775,3.701,1.782c0.939,0.892,1.538,2.113,1.754,3.384c0.047,0.272,0.056,0.55,0.094,0.823
		c0.002,1.107,0,2.215,0.001,3.322c0.001,0.064-0.002,0.129,0.011,0.192c0.078,0.098,0.191,0.202,0.326,0.186
		c0.166-0.046,0.288-0.203,0.296-0.374c0.108-1.022,0.316-2.041,0.69-3.003c0.234-0.616,0.559-1.205,1.01-1.69
		c0.267-0.271,0.572-0.518,0.935-0.648c0.155-0.012,0.313-0.015,0.468,0.001c0.162,0.069,0.31,0.184,0.388,0.345
		c0.129,0.242,0.094,0.562-0.095,0.764c-0.114,0.15-0.338,0.177-0.415,0.359c-0.032,0.077-0.028,0.174,0.016,0.246
		c0.104,0.202,0.364,0.254,0.468,0.456c0.138,0.224,0.144,0.537-0.02,0.749c-0.119,0.17-0.349,0.233-0.431,0.434
		c-0.012,0.094-0.026,0.204,0.041,0.282c0.093,0.137,0.27,0.178,0.374,0.304c0.126,0.153,0.215,0.351,0.182,0.553
		c-0.052,0.238-0.248,0.411-0.445,0.539c-0.144,0.095-0.208,0.292-0.134,0.448c0.104,0.18,0.317,0.246,0.449,0.4
		c0.114,0.158,0.169,0.364,0.114,0.555c-0.076,0.207-0.25,0.37-0.46,0.434c-0.171,0.076-0.36,0.03-0.54,0.053
		c-0.274,0.069-0.555,0.176-0.743,0.397c-0.292,0.328-0.382,0.797-0.31,1.222c0.116,1.082,0.57,2.096,1.086,3.043
		c0.122,0.24,0.272,0.466,0.376,0.715c0.02,0.155,0.02,0.314-0.002,0.469c-0.095,0.226-0.286,0.423-0.529,0.48
		c-0.372,0.113-0.753-0.15-0.895-0.489c-0.81-1.438-1.444-3.01-1.608-4.663c-0.034-0.128-0.16-0.25-0.302-0.229
		c-0.166-0.022-0.327,0.141-0.302,0.306c0,1.348,0,2.696,0,4.044c-0.025,0.465-0.143,0.935-0.425,1.314
		c-0.461,0.659-1.06,1.204-1.63,1.767c-0.156,0.148-0.298,0.316-0.489,0.42c-0.276,0.154-0.614,0.216-0.919,0.117
		c-0.308-0.086-0.531-0.33-0.759-0.539c-0.332-0.278-0.625-0.599-0.933-0.902c-0.183-0.183-0.32-0.416-0.364-0.673
		c-0.07-0.214,0.014-0.441,0.095-0.64c0.198-0.325,0.428-0.629,0.633-0.949c0.103-0.154,0.154-0.335,0.188-0.514
		c0.007-0.36,0.001-0.72,0-1.08c0.01-0.261-0.046-0.523-0.141-0.765c-0.09-0.235-0.298-0.389-0.431-0.597
		c-0.246-0.352-0.373-0.773-0.42-1.196c0.003-1.894-0.008-3.788-0.004-5.682c0.024-0.383-0.286-0.742-0.656-0.812
		c-0.218-0.027-0.458-0.005-0.633,0.14c-0.176,0.144-0.338,0.352-0.315,0.592c-0.004,4.106-0.001,8.212-0.002,12.318
		c-0.04,0.247-0.007,0.512-0.124,0.743c-0.151,0.352-0.507,0.596-0.884,0.637c-1.188,0.003-2.376,0-3.564,0.002
		c-0.519-0.019-0.977-0.467-1.024-0.98c-0.002-4.228,0-8.455-0.001-12.682c-0.02-0.412-0.387-0.796-0.811-0.779
		c-0.443-0.029-0.843,0.382-0.829,0.82c0,4.174,0,8.348,0,12.522c-0.001,0.37-0.191,0.745-0.516,0.932
		c-0.151,0.085-0.315,0.169-0.493,0.168c-1.147,0.001-2.294-0.001-3.441,0.001c-0.465,0.028-0.931-0.292-1.066-0.741
		c-0.1-0.228-0.067-0.48-0.071-0.722c0-5.185,0-10.371,0-15.556c-0.019-0.54,0.11-1.089,0.389-1.554
		C0.839,0.58,1.731,0.051,2.644,0.034z M18.233,12.045c-0.318,0.051-0.537,0.344-0.592,0.646c-0.026,0.312,0.182,0.621,0.472,0.732
		c0.433,0.207,0.995-0.188,0.966-0.663C19.113,12.328,18.655,11.943,18.233,12.045z"/>
</g>
<g id="Layer_1">
</g>
</svg>
