<?xml version="1.0" encoding="iso-8859-1"?>
<!-- Generator: Adobe Illustrator 19.2.0, SVG Export Plug-In . SVG Version: 6.00 Build 0)  -->
<svg version="1.1" xmlns="http://www.w3.org/2000/svg" xmlns:xlink="http://www.w3.org/1999/xlink" x="0px" y="0px"
	 viewBox="0 0 95.492 93.156" style="enable-background:new 0 0 95.492 93.156;" xml:space="preserve">
<g id="Mitae">
	<g>
		<rect x="81.336" y="39.468" style="fill-rule:evenodd;clip-rule:evenodd;" width="14.156" height="14.156"/>
		<rect x="53.984" y="39.588" style="fill-rule:evenodd;clip-rule:evenodd;" width="13.916" height="13.916"/>
		<rect x="27.711" y="40.908" style="fill-rule:evenodd;clip-rule:evenodd;" width="11.277" height="11.277"/>
		<rect y="40.908" style="fill-rule:evenodd;clip-rule:evenodd;" width="11.276" height="11.277"/>
		<rect x="14.035" y="26.992" style="fill-rule:evenodd;clip-rule:evenodd;" width="11.157" height="11.157"/>
		<rect x="41.388" y="26.632" style="fill-rule:evenodd;clip-rule:evenodd;" width="11.877" height="11.877"/>
		<rect x="68.979" y="26.632" style="fill-rule:evenodd;clip-rule:evenodd;" width="11.877" height="11.877"/>
		<rect x="56.111" y="13.796" style="fill-rule:evenodd;clip-rule:evenodd;" width="10.109" height="10.109"/>
		<rect x="28.552" y="13.796" style="fill-rule:evenodd;clip-rule:evenodd;" width="10.077" height="10.077"/>
		<rect x="42.468" y="0" style="fill-rule:evenodd;clip-rule:evenodd;" width="9.717" height="9.717"/>
		<rect x="13.796" y="55.063" style="fill-rule:evenodd;clip-rule:evenodd;" width="11.343" height="11.343"/>
		<rect x="41.508" y="54.584" style="fill-rule:evenodd;clip-rule:evenodd;" width="11.996" height="11.996"/>
		<rect x="68.979" y="54.704" style="fill-rule:evenodd;clip-rule:evenodd;" width="11.876" height="11.876"/>
		<rect x="55.784" y="69.46" style="fill-rule:evenodd;clip-rule:evenodd;" width="10.316" height="10.316"/>
		<rect x="28.311" y="69.579" style="fill-rule:evenodd;clip-rule:evenodd;" width="10.197" height="10.197"/>
		<rect x="42.524" y="83.735" style="fill-rule:evenodd;clip-rule:evenodd;" width="9.421" height="9.421"/>
	</g>
</g>
<g id="Layer_1">
</g>
</svg>
