<?xml version="1.0" encoding="iso-8859-1"?>
<!-- Generator: Adobe Illustrator 19.2.0, SVG Export Plug-In . SVG Version: 6.00 Build 0)  -->
<svg version="1.1" xmlns="http://www.w3.org/2000/svg" xmlns:xlink="http://www.w3.org/1999/xlink" x="0px" y="0px"
	 viewBox="0 0 81.291 81.727" style="enable-background:new 0 0 81.291 81.727;" xml:space="preserve">
<g id="Mitake_x5F_Yogyo">
	<path style="fill-rule:evenodd;clip-rule:evenodd;" d="M75.725,61.439c-0.584-0.276-0.897-0.963-1.178-1.485
		c-2.101-3.908-4.365-7.833-6.556-11.781c-2.49-4.485-5.125-8.954-7.683-13.316c-1.297-2.212-2.446-4.626-3.893-6.607
		c-1.476-2.021-3.405-3.603-5.583-4.917c-2.126-1.283-4.812-2.271-7.837-2.664c-2.366-0.307-4.855-0.117-7.068,0.359
		c-0.661,0.142-1.448,0.226-1.895,0.717c0.448,0.517,1.136,0.677,1.69,0.922c1.796,0.794,3.282,1.842,4.763,3.022
		c0.944,0.752,1.887,1.674,2.612,2.611c0.749,0.97,1.314,2.094,1.946,3.226c1.224,2.196,2.449,4.458,3.688,6.71
		c1.227,2.23,2.599,4.375,3.791,6.557c1.217,2.228,2.541,4.412,3.739,6.658c2.387,4.474,5.042,8.831,7.478,13.317
		c1.216,2.24,2.649,4.349,3.687,6.659c-0.612,0.896-1.53,1.534-2.356,2.202c-2.499,2.019-5.545,3.492-8.656,4.917
		c-5.975,2.736-15.254,4.168-23.305,2.407c-1.224-0.268-2.474-0.566-3.636-0.922c-7.009-2.144-12.543-5.372-17.159-9.988
		c-0.76-0.76-1.586-1.458-2.254-2.253c-1.387-1.654-2.762-3.314-3.893-5.174c-1.148-1.89-2.125-3.865-3.125-5.941
		c-0.495-1.029-0.762-2.19-1.126-3.38C0.279,47.95-0.723,40.114,0.637,33.319c0.248-1.236,0.511-2.494,0.871-3.688
		c0.886-2.935,1.764-5.599,3.124-8.144c0.216-0.403,0.663-1.268,0.974-1.28c0.664-0.025,0.773,1.101,1.127,1.537
		c3.804,6.276,7.335,13.107,11.063,19.566c0.622,1.075,1.266,2.174,1.844,3.277c0.583,1.111,1.294,2.133,1.844,3.226
		c2.312,4.6,5.084,8.338,9.629,10.757c3.229,1.718,7.578,2.928,12.6,2.305c0.727-0.09,1.417-0.279,2.1-0.461
		c0.625-0.166,1.383-0.204,1.793-0.717c-0.281-0.572-1.071-0.709-1.639-0.974c-1.705-0.794-3.3-1.91-4.712-3.073
		c-3.457-2.708-5.417-6.832-7.53-10.705c-2.124-3.894-4.424-7.77-6.556-11.627c-2.155-3.898-4.334-7.785-6.505-11.678
		c-0.541-0.97-1.163-1.888-1.69-2.868c-0.529-0.984-1.069-1.976-1.588-2.971c-1.033-1.979-2.238-3.889-3.124-5.941
		c0.088-0.557,0.626-0.9,1.024-1.229c2.753-2.279,6.252-4.296,9.885-5.736c2.157-0.856,4.419-1.526,6.864-2.049
		c4.41-0.943,9.593-1.124,14.444-0.41c5.773,0.851,10.882,2.861,14.956,5.327c5.61,3.395,10.305,7.978,13.573,13.471
		c2.495,4.192,4.705,8.864,5.634,14.649c0.313,1.953,0.518,3.95,0.615,6.146c0.289,6.589-1.287,12.221-3.176,17.005
		c-0.31,0.785-0.702,1.562-1.076,2.306C76.636,60.075,76.258,60.833,75.725,61.439z M59.079,59.493
		c-1.331-1.331-2.442-2.671-3.432-4.354c-3.186-5.417-6.17-11.202-9.322-16.646c-0.646-1.116-1.402-2.217-1.895-3.33
		c-0.151-0.341-0.168-0.673-0.307-0.973c-0.382-0.824-0.982-1.721-1.485-2.612c-2.46-4.36-5.786-8.108-10.756-9.886
		c-2.017-0.721-4.324-1.475-6.812-1.485c-1.307-0.005-2.933,0.052-3.893,0.513c0.328,0.918,1.196,1.297,1.793,1.946
		c4.371,4.871,6.897,11.503,10.705,17.415c0.901,1.397,1.754,2.935,2.562,4.456c0.81,1.526,1.69,3.036,2.561,4.507
		c1.347,2.274,2.532,4.516,4.303,6.249c1.881,1.842,3.842,3.404,6.659,4.507c1.852,0.726,4.01,1.413,6.197,1.485
		c1.331,0.045,3.068,0.091,4.303-0.409C60.114,60.237,59.489,59.903,59.079,59.493z"/>
</g>
<g id="Layer_1">
</g>
</svg>
