<?xml version="1.0" encoding="iso-8859-1"?>
<!-- Generator: Adobe Illustrator 19.2.0, SVG Export Plug-In . SVG Version: 6.00 Build 0)  -->
<svg version="1.1" xmlns="http://www.w3.org/2000/svg" xmlns:xlink="http://www.w3.org/1999/xlink" x="0px" y="0px"
	 viewBox="0 0 83.715 42.39" style="enable-background:new 0 0 83.715 42.39;" xml:space="preserve">
<g id="MK_x5F_Production_x5F_66">
	<path style="fill-rule:evenodd;clip-rule:evenodd;" d="M40.375,0.131c-0.172,0.393-0.645,0.605-0.988,0.791
		c-2.752,1.478-5.662,2.943-8.451,4.448c-8.725,4.703-17.576,9.431-26.391,14.134c-0.772,0.412-1.648,0.737-2.273,1.383
		c0.664,0.64,1.551,0.97,2.324,1.433c2.299,1.38,4.771,2.612,7.166,3.954c6.334,3.552,12.736,7.131,19.174,10.576
		c2.397,1.282,4.717,2.667,7.115,4.003c0.772,0.429,1.703,0.701,2.274,1.433c-9.584,0.111-20.285,0.049-30.49,0.049
		c-2.982,0-5.947-0.004-8.945-0.049C0.601,42.281,0.072,42.408,0,41.94c0.035-0.908,1.154-0.553,1.729-0.544
		c11.295,0.172,23.601-0.047,34.84-0.099c-0.533-0.687-1.395-1.015-2.125-1.433c-2.254-1.292-4.553-2.577-6.869-3.805
		c-3.057-1.622-6.088-3.371-9.143-5.041c-5.719-3.129-11.498-6.222-17.148-9.488c-0.324-0.188-0.789-0.295-0.938-0.692
		c0.217-0.379,0.674-0.549,1.037-0.741c5.676-2.997,11.449-5.984,17.1-9.093c3.021-1.663,6.141-3.16,9.143-4.843
		c2.254-1.265,4.455-2.511,6.818-3.707c0.734-0.371,1.578-0.678,2.125-1.334c-0.668-0.293-1.447-0.114-2.174-0.148
		c-5.176-0.247-10.791-0.049-16.16-0.049c-5.199,0-10.832,0.146-16.06-0.05c-0.811-0.03-1.855,0.125-2.027-0.247
		c-0.092-0.2-0.09-0.534,0.199-0.593C13.836,0.019,26.502-0.073,40.375,0.131z"/>
	<path style="fill-rule:evenodd;clip-rule:evenodd;" d="M43.092,0.033c0.391,0.245,0.248,0.769,0.248,1.136c0,3.068,0,6.347,0,9.489
		c0,3.659-0.109,7.317,0.098,10.526c0.938-0.177,1.697-0.793,2.521-1.235c0.812-0.437,1.654-0.843,2.471-1.285
		C59.721,12.549,70.99,6.215,82.33,0.082c0.455,0.024,1.01-0.054,1.385,0.049c-0.049,0.417-0.611,0.582-0.988,0.791
		c-0.416,0.229-0.842,0.48-1.236,0.642c-6.014,3.276-11.982,6.678-18.037,9.934c-5.291,2.844-10.559,5.754-15.863,8.648
		c-0.727,0.396-1.52,0.752-2.125,1.335c0.605,0.701,1.537,0.955,2.322,1.384c8.678,4.74,17.604,9.544,26.439,14.183
		c2.814,1.477,5.582,2.962,8.449,4.497c0.33,0.176,0.842,0.357,0.939,0.791c-0.375,0.103-0.93,0.025-1.383,0.05
		c-3.234-1.717-6.477-3.389-9.688-5.14c-8.77-4.784-17.701-9.442-26.537-14.233c-0.805-0.437-1.627-0.941-2.52-1.186
		c-0.314,0.691-0.185,1.541-0.199,2.372c-0.078,5.141,0.139,10.391-0.049,15.765c-0.031,0.904,0.168,2.229-0.246,2.372
		c-0.955,0.33-0.643-1.607-0.643-2.125c0-9.87,0.049-19.571,0.049-29.454c0-2.467,0.051-5.218,0.049-8.055
		c0-0.868-0.117-2.388,0.199-2.57C42.703,0.005,42.912,0.034,43.092,0.033z"/>
</g>
<g id="Layer_1">
</g>
</svg>
