<?xml version="1.0" encoding="iso-8859-1"?>
<!-- Generator: Adobe Illustrator 19.2.0, SVG Export Plug-In . SVG Version: 6.00 Build 0)  -->
<svg version="1.1" xmlns="http://www.w3.org/2000/svg" xmlns:xlink="http://www.w3.org/1999/xlink" x="0px" y="0px"
	 viewBox="0 0 78.038 80.891" style="enable-background:new 0 0 78.038 80.891;" xml:space="preserve">
<g id="mlad">
	<path style="fill-rule:evenodd;clip-rule:evenodd;" d="M37.837,0.037c3.245-0.209,6.188,0.498,8.47,1.625
		c2.151,1.063,4.243,2.76,5.515,4.58c0.225,0.32,0.361,0.744,0.591,1.133c1.369,2.32,2.692,5.383,2.512,9.207
		c-0.184,3.883-1.68,7.244-3.693,9.701c-1.949,2.377-4.791,4.356-8.224,5.219c-3.628,0.914-7.955,0.389-11.178-1.23
		c-2.952-1.484-5.267-3.703-6.844-6.598c-1.496-2.746-2.445-7.131-1.576-11.129c0.766-3.527,2.692-6.377,4.974-8.471
		c1.123-1.031,2.414-1.949,4.037-2.658C33.903,0.767,35.855,0.164,37.837,0.037z"/>
	<path style="fill-rule:evenodd;clip-rule:evenodd;" d="M0.265,1.464c3.401,3.164,6.467,6.664,9.75,9.947
		c3.055,3.494,6.389,6.709,9.553,10.094c6.13,6.133,11.979,12.473,18.22,18.713c0.367,0.367,0.896,1.135,1.279,1.133
		c0.314-0.004,0.966-0.762,1.33-1.133c2.809-2.865,5.753-5.955,8.42-8.815c0.788-0.846,1.63-1.662,2.413-2.512
		c2.334-2.529,4.8-5.096,7.238-7.533c3.256-3.256,6.446-6.678,9.7-9.996c2.846-2.902,5.656-5.801,8.47-8.766
		c0.354-0.373,0.746-0.936,1.33-0.984c0.045,13.33,0.153,26.92-0.05,39.984c-10.509,0.328-22.129-0.158-32.893,0.246
		c1.188,0.527,2.473,0.58,3.644,0.887c8.174,2.137,14.542,6.551,19.499,12.014c4.237,4.746,7.446,10.49,9.061,17.973
		c0.528,2.445,0.975,5.156,0.739,8.027c-6.466,0.26-13.075,0.098-19.647,0.098c-3.309,0-6.6,0-9.897,0
		c-12.871,0-25.776,0.088-38.754-0.049c-3.203-0.033-6.414,0.078-9.552-0.148c-0.239-5.736,1.026-10.75,2.855-14.969
		c1.841-4.246,4.14-7.91,6.943-11.029c4.925-5.482,11.267-9.758,19.598-11.867c1.16-0.295,2.401-0.447,3.595-0.887
		c-1.337-0.266-2.717-0.148-4.087-0.148c-1.402,0-2.827,0-4.234,0c-7.091,0-13.508-0.096-20.682-0.098
		c-1.358,0-2.692,0.09-3.938-0.148c-0.299-3.18-0.109-6.49-0.1-9.799c0.032-9.785-0.165-20.049,0-30.037
		C0.074,1.537,0.14,1.47,0.265,1.464z"/>
</g>
<g id="Layer_1">
</g>
</svg>
