<?xml version="1.0" encoding="iso-8859-1"?>
<!-- Generator: Adobe Illustrator 19.2.0, SVG Export Plug-In . SVG Version: 6.00 Build 0)  -->
<svg version="1.1" xmlns="http://www.w3.org/2000/svg" xmlns:xlink="http://www.w3.org/1999/xlink" x="0px" y="0px"
	 viewBox="0 0 80.714 45.284" style="enable-background:new 0 0 80.714 45.284;" xml:space="preserve">
<g id="MM_x5F_Flachglasfabrik">
	<path style="fill-rule:evenodd;clip-rule:evenodd;" d="M31.09,2.151c0.285,0.366,1.238,0.065,1.662,0.293
		c0.753,1.532,1.299,3.165,1.906,4.791c0.603,1.612,1.177,3.262,1.809,4.888c1.265,3.25,2.308,6.615,3.617,9.777
		c0.109,0.263,0.265,0.502,0.44,0.733c0.349,1.832,1.111,3.408,1.76,5.133c1.386,3.691,2.736,7.267,4.105,10.999
		c0.262,0.711,0.632,1.566-0.049,2.249c-0.551-1.271-1.028-2.6-1.515-3.911c-0.966-2.603-1.944-5.224-2.982-7.87
		c-0.512-1.305-0.981-2.643-1.515-3.911c-0.125-0.295-0.3-0.524-0.489-0.782c-0.02-0.208,0.048-0.503-0.049-0.636
		c-1.295-3.431-2.564-6.889-3.861-10.314c-1.296-3.419-2.593-6.818-3.96-10.168c-0.343-0.067-0.932-0.085-1.271,0
		c-0.442,0.666-0.722,1.457-0.979,2.2c-0.799,2.317-1.624,4.624-2.444,6.942c-0.957,2.705-1.812,5.531-2.786,8.212
		c-0.151,0.416-0.159,0.846-0.293,1.271c-0.144,0.458-0.476,0.886-0.636,1.369c-1.11,3.344-2.539,6.763-3.666,10.168
		c-1.306,3.945-2.76,7.82-4.253,11.585c-3.873,0.177-8.794,0.098-13.101,0.098c-1.401,0-2.467,0.174-2.542-1.173
		c4.503-0.035,10.039,0.067,14.812-0.049c0.592-0.844,0.818-1.874,1.174-2.835c1.047-2.839,2.134-5.762,3.177-8.701
		c1.033-2.908,2.086-5.838,3.129-8.799c0.44-1.251,0.946-2.276,1.124-3.764c0.572-0.662,0.798-1.743,1.125-2.737
		c0.211-0.643,0.506-1.274,0.732-1.906c0.467-1.301,0.809-2.654,1.271-3.96c0.927-2.615,1.942-5.18,2.689-7.821
		c-0.927-0.291-1.976-0.112-2.982-0.146c-2.751-0.095-6.025,0.07-8.994,0c-0.087-0.416,0.309-0.721,0.587-0.929
		c3.675-0.181,7.756-0.009,11.78-0.146c0.46-0.583,0.714-1.372,0.88-2.249C31.406-0.08,31.498,1.358,31.09,2.151z"/>
	<path style="fill-rule:evenodd;clip-rule:evenodd;" d="M63.646,0c1.018,0.187,0.711,1.443,0.537,2.151
		c0.278,0.406,1.309,0.059,1.809,0.244c0.374,0.837,0.613,1.72,0.929,2.591c3.386,9.356,6.77,18.735,10.168,28.254
		c0.866,2.427,1.91,5.039,2.835,7.674c0.414,1.181,1.495,2.96,0.098,3.52c-0.272-0.335-0.296-0.786-0.439-1.173
		c-3.907-10.529-7.648-21.344-11.537-32.019c-0.569-1.564-1.328-3.118-1.76-4.693c-0.292-1.066-0.435-2.186-1.075-3.079
		c-0.407-0.077-1.059-0.077-1.467,0c-0.76,1.34-1.22,2.907-1.76,4.448c-1.319,3.769-2.647,7.553-4.057,11.39
		c-0.371,1.008-0.79,1.861-0.88,2.933c-0.931,1.825-1.648,4.175-2.444,6.306c-1.699,4.554-3.35,9.323-4.986,13.932
		c-0.323,0.911-0.594,1.855-1.075,2.689c-4.79,0.081-9.886,0.139-14.909,0.049c-0.413-0.206-0.673-0.566-0.733-1.124
		c4.427-0.113,9.933,0.027,14.812-0.098c0.589-0.868,0.866-1.902,1.223-2.884c2.14-5.914,4.325-12.001,6.452-17.989
		c0.357-1.004,0.844-2.024,0.929-3.129c0.792-1.237,1.24-3.08,1.809-4.644c0.934-2.566,1.861-5.133,2.786-7.773
		c0.457-1.305,1.043-2.588,1.32-3.959c-0.84-0.312-1.841-0.196-2.835-0.196c-2.923,0-6.208,0.002-8.995,0
		c-0.085-0.482,0.357-0.844,0.685-1.075c3.829-0.033,7.788,0.065,11.536-0.049c0.579-0.448,0.671-1.382,0.929-2.151
		C63.59,0.107,63.577,0.013,63.646,0z"/>
</g>
<g id="Layer_1">
</g>
</svg>
