<?xml version="1.0" encoding="iso-8859-1"?>
<!-- Generator: Adobe Illustrator 19.2.0, SVG Export Plug-In . SVG Version: 6.00 Build 0)  -->
<svg version="1.1" xmlns="http://www.w3.org/2000/svg" xmlns:xlink="http://www.w3.org/1999/xlink" x="0px" y="0px"
	 viewBox="0 0 124.019 85.769" style="enable-background:new 0 0 124.019 85.769;" xml:space="preserve">
<g id="Mobil_x5F_Corporation">
	<path style="fill-rule:evenodd;clip-rule:evenodd;" d="M87.177,3.869c-1.455,0.807-4.082-0.505-4.916,1.199
		c0.022,0.097,0.12,0.119,0.12,0.24c1.24,0.267,3.745-1.468,3.837,0.24c0.028,0.528-2.026,1.579-3.357,1.439
		c-0.369-0.039-0.589-0.357-0.84-0.36c-1.443-0.016-3.832,1.122-4.916,1.918c-0.472,0.347-1.391,1.206-1.319,1.679
		c0.033,0.218,2.649,2.306,3.357,2.638c4.85,2.271,9.175,6.961,10.433,13.311c-1.146,0.452-1.725-0.256-2.758-0.12
		c-1.376-5.097-4.38-8.864-8.274-11.631c-1.342-0.954-2.969-1.872-4.557-2.278c1.54,1.338,3.354,2.403,5.276,3.357
		c2.985,2.575,5.692,6.054,6.835,10.073c-0.001,0.518-0.868,0.171-0.959,0.6c2.055,1.2,4.049-0.167,5.995,1.319
		c2.25,1.717,0.744,5.39,2.278,7.675c0.78,1.161,4.351-1.234,5.756-1.799c1.522-0.611,3.58-2.436,5.517-2.159
		c1.354,0.194,2.126,1.575,3.237,2.518c-0.028,0.91-0.571,1.882-0.479,2.519c1.269,0.448,2.604-0.367,3.837,0.719
		c0.781,0.688,1.001,1.852,1.439,2.878c0.479,1.123,1.398,2.189,2.038,3.358c1.598,2.915,3.496,5.728,5.756,7.075
		c0.479,3.524,3.852,4.568,3.478,8.274c-1.861-0.777-3.678-1.598-5.276-2.638c-0.228-0.824,1.369-1.641,0.6-2.638
		c-0.552-0.207-1.075-0.443-1.918-0.359c-1.153-1.75-2.341-4.071-3.598-6.116c-1.473-2.396-2.685-5.072-4.437-6.595
		c-0.843-0.732-2.706-0.041-3.118,0.959c-0.307,0.744-0.174,2.213-0.359,3.357c-0.35,2.156-0.438,4.232-1.799,5.756
		c-2.355,1.132-3.757,3.825-7.195,3.478c0.644-1.755,1.572-3.225,2.398-4.796c0.812,0.205,1.595,1.185,2.399,0.359
		c0.023-0.583,0.027-1.146-0.24-1.439c1.408-1.15,2.156-2.961,2.398-5.276c-1.146-0.793-2.446,0.602-3.237,1.079
		c-1.438,0.867-4.239,1.02-6.596,1.559c-1.232,0.282-3.497,1.574-4.437,1.439c-0.53-0.076-0.701-0.773-1.319-1.319
		c-0.103-0.091-0.548-0.059-0.599-0.12c-0.617-0.736-1.028-1.802-2.398-1.679c-0.119,0.928,2.093,1.467,2.158,2.278
		c0.056,0.694-0.993,0.942-1.799,1.439c-2.627,1.622-6.491,3.467-10.792,3.958c-7.505,0.854-13.782-0.53-20.386-0.6
		c0.274-0.806,1.329-0.831,1.56-1.679c-1.019-0.281-1.489,0.975-2.399,1.199c-1.44,1.198-2.141,3.135-3.237,4.677
		c-0.638,2.347-1.863,4.351-3.598,5.756c-1.247,1.01-2.803,1.647-4.077,2.518c-0.804,0.549-2.132,1.051-2.998,1.918
		c-2.308,0.61-4.623,1.212-6.475,2.278c-2.3,2.91-3.354,7.535-4.197,11.512c-0.374,1.761-0.224,2.616-1.559,3.837
		c-0.197,0.18-0.524,0.088-0.72,0.24c-0.338,0.261-0.319,0.778-0.6,1.079c-1.155,1.24-3.15,1.609-4.797,1.799
		c0.308-1.851,1.209-3.108,1.799-4.677c1.001,0.079,2.061,0.55,2.519-0.36c-0.99-1.536,0.828-2.533,0.239-3.837
		c-1.694,0.879-3.226,2.876-5.876,2.039c0.343-0.759,1.83-4.573,2.998-4.677c0.77-0.068,0.952,1.15,1.919,0.72
		c0.241-1.435,0.61-2.223,1.679-2.998c2.596-1.884,1.675-2.812,2.518-6.715c0.112-0.521,0.515-0.674,0.6-1.438
		c1.75-0.581,1.345-2.197,1.679-3.718c1.496-1.055,4.386-0.212,4.796-2.278c0.264-1.323-0.316-2.623-0.359-4.077
		c-0.086-2.902,0.411-6.196-0.359-8.274c-1.162-0.122-1.561,0.518-2.398,0.719c-0.478,0.642-1.259,0.98-2.039,1.319
		c-2.598,2.478-7.299,4.489-11.151,5.396c-1.442,0.339-3.543,1.181-3.838,2.638c-0.396,1.959,1.035,2.642,0.96,4.197
		c-3.919,0.435-7.364-1.047-7.195-5.276c0.045-1.123,0.691-1.882,0.96-2.998c5.588-8.11,21.359-4.054,27.58-11.392
		c0.429-1.409,1.907-1.77,2.518-2.998c1.936-0.843,3.562-2.177,5.636-2.638c0.637-0.142,2.082-0.487,2.639-0.479
		c0.844,0.011,2.678,1.221,4.196,1.439c3.753,0.538,7.328-0.543,10.553-1.679c-2.726-0.068-6.083,1.601-9.713,1.199
		c-1.013-0.111-2.653-0.523-3.598-0.959c-0.58-0.269-0.696-0.678-1.319-0.72c-1.26-0.085-3.238,0.901-4.676,1.199
		c-2.613,0.542-5.687,1.089-8.154,1.439c-3.285,0.465-6.316,0.306-9.354-1.319c-2.381,0.542-4.525,0.226-6.235-0.84
		c-0.393-0.244-0.53-0.726-0.959-0.839c-1.427-0.375-2.885,0.328-4.197-0.24c-0.871-0.377-1.526-1.332-2.398-1.559
		c-0.449-0.117-1.016,0.064-1.438,0c-2.188-0.334-2.693-2.028-5.036-2.398c-0.715-0.113-1.793-0.658-2.279-1.079
		c-0.265-0.23-0.271-0.825-0.719-1.079C2.576,25.819,0.709,26.188,0,24.613c0.753-0.854,1.724-0.437,2.639-0.6
		c3.822-0.677,7.392-1.91,11.151-2.398c2.264-0.294,4.61-1.092,6.955-1.559c8.003-1.594,15.482-3.529,23.623-5.396
		c-4.659,0.369-10.711,2.184-16.308,3.238c-1.59-0.329-2.726-1.113-3.238-2.518c-2.287-0.431-3.905-1.531-4.677-3.477
		c-2.101-0.337-3.191-1.686-3.957-3.358c-1.863-0.615-2.942-2.014-3.597-3.837c-1.33-0.55-2.246-1.512-2.759-2.878
		c6.918,0.42,13.662,1.635,20.145,2.758c4.987,0.864,10.163,0.973,15.109,2.159c4.839,0.654,12.381,0.952,12.23,6.955
		c-1.218-0.087-1.598-0.531-2.638-0.6c0.272,0.946,1.495,0.654,2.158,0.96c1.005,0.462,1.615,1.413,2.519,1.799
		c2.085,2.528,3.079,6.598,5.636,8.873c2.29,2.039,5.494,2.571,9.354,1.679c-0.733-0.76-3.598,0.123-4.797,0.12
		c-1.09-0.429-2.41-0.628-2.998-1.559c1.271-0.865,2.991-0.364,4.557-1.199c-1.048-1.402-3.685,0.843-5.395,0.48
		c-0.907-0.193-0.807-1.129-1.559-1.679c1.146-1.023,3.265-0.334,4.437-1.319c-0.733-1.29-3.604,0.566-4.797,0.36
		c-0.8-0.32-1.197-1.042-1.319-2.038c1.634-0.571,2.734-0.217,4.197-0.959c0.016-0.215-0.146-0.253-0.12-0.479
		c-1.936-0.143-5.181,2.239-5.396-0.96c1.031-0.567,2.705-0.492,3.717-1.079c-1.112-1.443-5.156,1.784-5.875-1.439
		c1.315-0.722,3.592-0.485,4.676-1.439c-1.541-0.265-3.333,0.452-5.275,0.6c-0.276-0.483-0.389-1.13-0.36-1.918
		c1.366-0.672,3.098-0.979,4.917-1.199c-1.392-0.428-3.409,0.177-5.276,0.24c-0.319-0.4-0.376-1.062-0.36-1.799
		c1.591-0.608,3.761-0.636,5.156-1.439c-1.648-0.417-3.006,0.8-4.916,0.48c-0.493-1.519,0.102-2.877,0.479-4.197
		c1.83,0.005,3.873,1.257,5.276,0.24c-1.719-0.626-4.221-0.797-5.756-1.919c0.199-0.818,0.964-0.534,1.559-0.719
		c2.261-0.705,4.848-2.451,6.955-1.08c2.097-0.02,4.335-0.553,6.476-0.359c0.56,0.05,1.077,0.539,1.679,0.6
		c1.505,0.152,3.248,0.025,4.916,0c1.901-0.029,4.528-0.566,6.116-0.12C86.26,0.912,86.733,3.039,87.177,3.869z M70.149,3.149
		c0.923,0.415,1.14-0.838,1.799-1.079c0.504-0.054,1.229,0.864,1.438,0C72.553,1.159,70.201,1.205,70.149,3.149z M44.848,9.625
		c-1.811-0.29-3.531-0.813-5.276-1.08c-4.782-0.729-10.282-1.074-15.588-2.038c-2.488-0.452-4.901-1.29-7.675-1.199
		c0.386,0.873,1.015,0.555,1.799,0.6c0.841,0.047,1.725,0.465,2.518,0.6c2.807,0.477,6.427,0.881,8.515,1.199
		c1.366,0.208,2.877,0.191,3.957,0.48c1.256,0.336,3.07,0.333,4.557,0.6c4.725,0.846,9.461,1.956,14.629,2.158
		C50.157,9.708,47.266,10.012,44.848,9.625z M37.293,10.944c-3.216-0.309-6.119-0.728-9.113-1.199
		c-2.754-0.434-5.996-0.867-8.394-0.839c0,0.08,0,0.16,0,0.24c3.31,0.519,6.245,1.263,9.353,1.319
		c4.051,0.563,9.175,1.242,12.83,1.918c1.112,0.205,2.508,0.475,3.477,0C42.909,11.856,39.949,11.198,37.293,10.944z M28.899,12.862
		c-1.885-0.287-3.699-1.043-5.516-0.839c-0.094,0.026-0.14,0.101-0.12,0.24c0.355,0.044,0.592,0.208,0.72,0.479
		c3.474-0.082,6.483,1.311,9.832,1.199c0.701,0.202,2.116,0.792,2.639,0.24C34.288,13.309,31.514,13.261,28.899,12.862z
		 M50.124,13.342c-2.187,0.145-4.066,0.382-5.636,1.319c2.773-0.605,6.388-1.295,9.473-1.199
		C52.988,12.539,51.392,13.258,50.124,13.342z M54.081,13.222c-0.121,0.361,0.268,0.212,0.479,0.24c0-0.12,0-0.24,0-0.36
		C54.351,13.093,54.188,13.129,54.081,13.222z M34.296,20.537c0.114,1.793,2.35,1.398,3.597,1.679
		c-0.562,2.692,2.295,1.607,3.478,2.398c-0.615,1.822,1.867,2.232,2.998,1.679c0.281,2.171,2.103,2.696,3.837,2.519
		c-0.291,0.879,0.316,1.713,0.96,2.038c2.453,0.104,5.325-0.424,7.554-1.439c-1.928-0.709-4.899,1.438-6.835,1.079
		c-0.473-0.088-1.085-0.799-1.079-1.199c0.026-1.783,3.431-0.939,4.438-2.039c-2.003-1.075-7.654,3.034-7.795-0.839
		c1.215-0.704,3.338-0.499,4.317-1.439c-2.014-0.962-7.701,3.104-7.795-0.719c1.264-0.735,3.404-0.594,4.437-1.559
		c-1.474-0.8-8.81,3.343-7.674-0.839c1.228-0.611,3.361-0.316,4.077-1.439c-1.751-0.773-8.017,3.315-7.795-0.6
		c1.354-0.868,3.277-0.493,4.438-1.439C37.958,18.131,34.162,18.447,34.296,20.537z M31.178,21.256
		c-6.71,1.07-13.345,2.775-19.905,3.837c-1.256,0.203-2.617,0.024-3.718,0.839c2.149,0.626,4.256-0.69,6.355-0.959
		c2.628-0.337,6.139-1.208,9.233-1.559c0.198-0.002,0.067-0.332,0.24-0.359c2.221,0.277,5.674-1.335,8.153-1.319
		c-0.145-0.347,0.72-0.546,0.12-0.6C31.564,20.798,31.209,21.251,31.178,21.256z M20.745,26.292
		c-2.784,0.305-5.786,0.63-8.274,1.919c5.26-0.362,9.436-2.339,14.39-2.518c1.912-0.922,5.613-0.996,7.674-2.159
		C29.924,23.641,25.503,25.772,20.745,26.292z M16.549,30.25c4.291,0.29,8.02-1.771,11.871-2.278
		c1.776-0.234,3.337-0.547,5.036-0.959c1.486-0.36,3.459-0.312,4.677-1.319C30.898,27.124,23.657,28.216,16.549,30.25z
		 M34.896,29.53c-3.873,0.865-7.929,1.083-11.512,2.518c4.01,0.112,8.048-1.495,11.871-2.278c2.176-0.445,4.563-0.16,6.355-1.439
		C39.43,27.994,37.222,29.011,34.896,29.53z M31.418,33.607c1.487,0.379,2.895-0.908,4.437-0.479
		c2.106-0.995,6.664-0.997,9.233-2.518C40.754,31.179,35.688,32.07,31.418,33.607z M101.927,37.204
		c-1.054,0.453-2.414,0.228-3.718,0.36c-1.852,0.188-3.524,1.079-5.036,0.959c-0.161,0.594-1.276,0.029-1.319,0.959
		c1.76-0.355,5.588-1.102,8.395-1.438c1.802-0.217,4.538,0,3.597-2.159C102.886,35.801,102.744,36.853,101.927,37.204z"/>
</g>
<g id="Layer_1">
</g>
</svg>
