<?xml version="1.0" encoding="iso-8859-1"?>
<!-- Generator: Adobe Illustrator 21.0.2, SVG Export Plug-In . SVG Version: 6.00 Build 0)  -->
<svg version="1.1" xmlns="http://www.w3.org/2000/svg" xmlns:xlink="http://www.w3.org/1999/xlink" x="0px" y="0px"
	 viewBox="0 0 23.207 19.945" style="enable-background:new 0 0 23.207 19.945;" xml:space="preserve">
<g id="MOC">
	<path d="M16.279,1.107C16.558,0.704,16.876,0.324,17.244,0c0.172,0.104,0.333,0.225,0.498,0.339
		c0.042,0.158-0.123,0.298-0.168,0.448c-0.026,0.051-0.053,0.102-0.08,0.153c-0.027,0.057-0.054,0.113-0.081,0.17
		c-0.079,0.16-0.159,0.318-0.242,0.476c-0.035,0.072-0.07,0.144-0.107,0.214c-0.045,0.092-0.092,0.184-0.137,0.276
		c-0.044,0.087-0.088,0.175-0.133,0.261c-0.061,0.129-0.127,0.256-0.19,0.385c-0.044,0.085-0.088,0.171-0.132,0.258
		c-0.013,0.026-0.04,0.08-0.054,0.106c-0.027,0.058-0.056,0.116-0.083,0.174c-0.092,0.178-0.18,0.359-0.27,0.538
		c-0.013,0.027-0.04,0.08-0.052,0.107c-0.027,0.05-0.054,0.1-0.08,0.151c-0.014,0.03-0.041,0.09-0.055,0.121
		c0.011,0.536,0.094,1.077,0.325,1.566c0.365,0.839,1.095,1.491,1.936,1.832c0.305,0.135,0.63,0.214,0.955,0.288
		c1.275,0.222,2.583,0.031,3.806-0.37c0.07,0.129,0.13,0.264,0.197,0.396c0.013,0.031,0.038,0.094,0.051,0.125l0.061,0.012
		c-0.054,0.064-0.126,0.103-0.208,0.115c-0.122,0.042-0.247,0.078-0.372,0.107c-0.136,0.047-0.275,0.085-0.418,0.1
		c-0.021,0.01-0.061,0.03-0.081,0.04c-0.541,0.101-1.083,0.191-1.631,0.223c-0.743,0.014-1.493-0.046-2.202-0.278
		c-1.082-0.341-2.061-1.079-2.582-2.099c-0.143-0.309-0.291-0.625-0.34-0.965c-0.015-0.014-0.045-0.043-0.06-0.058
		c-0.081,0.162-0.182,0.313-0.269,0.472C15,5.754,14.956,5.822,14.91,5.89c-0.086,0.145-0.174,0.289-0.269,0.429
		c-0.172,0.274-0.354,0.542-0.538,0.808c-0.466,0.664-0.934,1.33-1.463,1.946c1.612,0.015,3.225,0.002,4.838,0.006
		c0.173,0.167,0.335,0.346,0.518,0.504c0.042,2.564,0.013,5.129,0.023,7.694C17.983,18,18.009,18.725,18,19.448
		c-0.17,0.163-0.334,0.33-0.504,0.494c-0.724-0.01-1.449,0.024-2.17-0.025c-2.153,0.002-4.306,0.002-6.458,0
		c-1.005,0.051-2.012,0.014-3.018,0.025c-0.127-0.015-0.287,0.044-0.377-0.074c-0.15-0.148-0.298-0.297-0.446-0.447
		c0.007-1.091-0.018-2.182,0.018-3.272c-0.001-2.183,0-4.366-0.001-6.548C5.212,9.434,5.38,9.266,5.546,9.096
		c1.574-0.001,3.147,0.002,4.721-0.001c-0.497-0.586-1.01-1.159-1.441-1.796C8.718,7.137,8.608,6.977,8.502,6.814
		C8.457,6.739,8.409,6.666,8.366,6.59C8.321,6.521,8.278,6.451,8.232,6.382c-0.529-0.891-0.974-1.831-1.337-2.8
		C6.812,3.373,6.758,3.153,6.649,2.955c0.054,0.431,0.029,0.867,0.051,1.3c0.048,0.501,0.029,1.007,0.056,1.509
		c0.056,0.633,0.012,1.271,0.081,1.903c-0.227,0.12-0.482,0.17-0.726,0.243C5.462,6.539,4.811,5.169,4.165,3.795
		C4.106,3.67,4.064,3.533,3.968,3.431c0.06,0.415,0.091,0.834,0.126,1.252c0.038,1.04,0.043,2.087-0.133,3.115
		C3.734,9.331,3.198,10.82,2.39,12.143c-0.054,0.09-0.11,0.179-0.162,0.27c-0.037,0.053-0.072,0.107-0.107,0.161
		c-0.037,0.053-0.072,0.107-0.106,0.163c-0.502,0.725-1.059,1.412-1.692,2.025C0.238,14.548,0.111,14.357,0,14.158
		c0.88-0.896,1.631-1.921,2.203-3.041c0.714-1.397,1.128-2.945,1.221-4.51c0.136-1.708-0.121-3.411-0.38-5.093
		C3.197,1.451,3.359,1.411,3.517,1.36c0.062-0.017,0.123-0.036,0.184-0.055c0.096,0.137,0.155,0.295,0.226,0.447
		c0.149,0.277,0.255,0.574,0.402,0.852C4.931,3.872,5.511,5.15,6.136,6.406c-0.038-0.574-0.045-1.15-0.059-1.725
		C6.02,4.109,6.059,3.533,6.002,2.962C5.988,2.26,5.961,1.559,5.953,0.857C5.961,0.738,5.887,0.6,5.968,0.497
		c0.094-0.034,0.189-0.061,0.287-0.082C6.363,0.37,6.477,0.341,6.589,0.311C6.604,0.339,6.635,0.397,6.65,0.426
		c0.061,0.369,0.182,0.727,0.267,1.091C7.38,3.2,8.034,4.84,8.958,6.324c0.043,0.075,0.091,0.147,0.137,0.222
		c0.037,0.053,0.073,0.107,0.108,0.161C9.24,6.759,9.276,6.813,9.311,6.867c0.267,0.394,0.562,0.767,0.861,1.137
		c0.162,0.139,0.255,0.341,0.429,0.466c-0.025-0.132-0.085-0.252-0.136-0.376c-0.042-0.087-0.075-0.179-0.106-0.271
		c-0.028-0.067-0.053-0.136-0.081-0.203c-0.043-0.129-0.092-0.257-0.138-0.386c-0.019-0.052-0.038-0.103-0.055-0.155
		c-0.019-0.056-0.036-0.111-0.053-0.167C9.718,5.908,9.44,4.872,9.415,3.812L9.394,3.775C9.397,3.134,9.44,2.471,9.723,1.883
		c0.263-0.539,0.707-1.023,1.293-1.2c0.538-0.167,1.145-0.039,1.587,0.304c0.32,0.231,0.55,0.563,0.718,0.915
		c0.037,0.091,0.072,0.185,0.108,0.276c0.373,1.327,0.182,2.746-0.247,4.036c-0.004,0.027-0.014,0.082-0.019,0.109
		c-0.031,0.071-0.056,0.144-0.083,0.216c-0.016,0.052-0.034,0.105-0.053,0.156c-0.027,0.076-0.055,0.151-0.082,0.228
		c-0.029,0.067-0.054,0.135-0.082,0.202c-0.046,0.111-0.089,0.224-0.134,0.336c-0.061,0.122-0.109,0.25-0.162,0.376
		c-0.096,0.192-0.18,0.39-0.266,0.586c0.05-0.033,0.094-0.072,0.134-0.118c0.377-0.489,0.747-0.984,1.102-1.491
		c0.06-0.096,0.128-0.187,0.19-0.281c0.038-0.053,0.074-0.107,0.109-0.161c0.036-0.052,0.072-0.106,0.105-0.16
		c0.08-0.123,0.16-0.246,0.241-0.367c0.045-0.076,0.092-0.148,0.136-0.224c0.105-0.154,0.196-0.316,0.293-0.475
		c0.064-0.112,0.13-0.223,0.19-0.337c0.114-0.194,0.227-0.389,0.322-0.592c0.028-0.05,0.057-0.099,0.085-0.148
		c0.064-0.165,0.061-0.342,0.069-0.516c0.068-0.358,0.151-0.715,0.275-1.059c0.028-0.067,0.054-0.136,0.082-0.203
		c0.139-0.36,0.325-0.702,0.538-1.024C16.208,1.213,16.243,1.16,16.279,1.107z M11.019,1.387c-0.466,0.247-0.743,0.743-0.873,1.238
		c-0.054,0.219-0.078,0.442-0.089,0.667c-0.058,0.337,0.019,0.672,0.028,1.009c0.063,0.595,0.201,1.18,0.356,1.757
		c0.053,0.142,0.075,0.293,0.136,0.433c0.005,0.026,0.015,0.078,0.02,0.104c0.067,0.158,0.11,0.325,0.166,0.487
		c0.059,0.141,0.11,0.287,0.161,0.432c0.039,0.088,0.074,0.179,0.108,0.269c0.039,0.088,0.073,0.179,0.107,0.269
		c0.094,0.21,0.192,0.418,0.274,0.632c0.073-0.074,0.117-0.169,0.158-0.264c0.044-0.087,0.088-0.174,0.131-0.261
		c0.014-0.027,0.042-0.083,0.056-0.111c0.081-0.182,0.165-0.364,0.244-0.546c0.061-0.123,0.11-0.251,0.161-0.378
		c0.042-0.086,0.075-0.176,0.108-0.266c0.072-0.159,0.119-0.327,0.185-0.488c0.017-0.053,0.034-0.106,0.053-0.159
		c0.018-0.055,0.036-0.109,0.056-0.163c0.043-0.159,0.098-0.314,0.138-0.475c0.279-1.014,0.393-2.097,0.134-3.127
		c-0.029-0.07-0.052-0.141-0.079-0.211c-0.034-0.075-0.07-0.148-0.107-0.221c-0.199-0.353-0.527-0.637-0.925-0.74
		C11.486,1.243,11.235,1.268,11.019,1.387z M5.689,9.742c0.003,1.471-0.006,2.942,0.004,4.413c0.012,0.013,0.036,0.038,0.048,0.05
		c0.592,0,1.186,0.022,1.777-0.019c1.227-0.002,2.454,0.001,3.681-0.002c-0.001-1.068-0.004-2.136,0.002-3.204
		c-0.019,0.01-0.055,0.033-0.074,0.043c-0.396,0.646-0.985,1.172-1.66,1.516c-0.437,0.212-0.96,0.389-1.432,0.182
		c-0.218-0.089-0.392-0.265-0.504-0.468c-0.014-0.027-0.041-0.081-0.053-0.108c-0.105-0.273-0.108-0.602,0.026-0.866
		c0.027-0.056,0.055-0.112,0.081-0.169c0.1-0.15,0.215-0.289,0.326-0.43c0.328-0.392,0.766-0.666,1.193-0.936
		C7.966,9.74,6.827,9.744,5.689,9.742z M12.248,9.732c0.065,0.121,0.2,0.171,0.309,0.244c0.997,0.627,2.059,1.144,3.14,1.612
		c0.036,0.009,0.107,0.027,0.144,0.036c-0.006,0.235-0.054,0.468-0.113,0.695c-0.432-0.206-0.882-0.376-1.31-0.593
		c-0.887-0.417-1.749-0.892-2.567-1.433c-0.005,1.298-0.002,2.596-0.001,3.895c0.785-0.001,1.568-0.004,2.352,0.002
		c0.32,0.032,0.641,0.016,0.962,0.02c0.699-0.002,1.398,0.002,2.097-0.001c0.094,0.01,0.113-0.085,0.109-0.157
		c0-0.898,0-1.796,0-2.694c-0.038-0.534-0.019-1.069-0.018-1.603c-0.189-0.03-0.382-0.029-0.571-0.006
		c-0.268-0.023-0.539-0.022-0.808-0.001c-0.286-0.021-0.575-0.022-0.861,0.001c-0.108-0.019-0.215-0.018-0.322,0
		c-0.358-0.03-0.718-0.006-1.076-0.014c-0.341,0.007-0.684-0.016-1.024,0.014C12.542,9.729,12.394,9.728,12.248,9.732z
		 M10.18,10.001c-0.024,0.005-0.073,0.015-0.098,0.021c-0.107,0.05-0.22,0.086-0.328,0.136c-0.65,0.281-1.256,0.716-1.632,1.326
		c-0.016,0.028-0.047,0.085-0.063,0.113c-0.002,0.092-0.002,0.185-0.002,0.278c0.064,0.127,0.165,0.228,0.295,0.289
		c0.167,0.019,0.329-0.023,0.49-0.066c0.144-0.054,0.287-0.11,0.421-0.186c0.538-0.293,1-0.723,1.341-1.231
		c0.093-0.132,0.163-0.279,0.239-0.421c0.058-0.134,0.12-0.268,0.143-0.413C10.711,9.846,10.438,9.912,10.18,10.001z M5.688,14.854
		c0.016,1.479,0.008,2.959,0.014,4.438c0.57-0.006,1.14-0.001,1.71-0.003c1.257,0.01,2.514-0.029,3.771-0.015
		c0.002-0.738-0.017-1.476,0.016-2.212c0-0.741-0.003-1.483,0.001-2.224C9.362,14.843,7.525,14.822,5.688,14.854z M11.848,16.367
		c-0.043,0.968-0.012,1.938-0.022,2.908c1.84-0.003,3.68-0.008,5.52,0.018c0.008-0.418-0.016-0.838,0.021-1.255
		c0.003-1.061,0.003-2.121,0-3.181c-0.249-0.028-0.5-0.005-0.749-0.012c-1.59,0.003-3.179-0.006-4.769-0.009
		C11.844,15.346,11.847,15.857,11.848,16.367z"/>
</g>
<g id="Layer_1">
</g>
</svg>
