<?xml version="1.0" encoding="iso-8859-1"?>
<!-- Generator: Adobe Illustrator 19.2.0, SVG Export Plug-In . SVG Version: 6.00 Build 0)  -->
<svg version="1.1" xmlns="http://www.w3.org/2000/svg" xmlns:xlink="http://www.w3.org/1999/xlink" x="0px" y="0px"
	 viewBox="0 0 209.799 161.487" style="enable-background:new 0 0 209.799 161.487;" xml:space="preserve">
<g id="Moeckl_x5F_Dialog_x5F_Funkgerate">
	<path style="fill-rule:evenodd;clip-rule:evenodd;" d="M209.278,0.341c0.225,6.17,0.383,12.355,0.12,18.952
		c-4.084,2.827-8.512,5.126-12.835,7.558c-25.939,14.587-51.977,29.598-77.969,44.263c-2.156,1.216-4.196,2.593-6.357,3.838
		c-2.139,1.231-4.446,2.246-6.598,3.479C73.28,96.973,40.844,115.492,8.358,133.968c-1.036,0.589-2.058,1.324-3.119,1.92
		c-1.049,0.589-2.202,1.357-3.479,1.319c-0.582-5.618-0.326-12.569-0.36-18.353c3.816-2.623,7.96-4.801,11.996-7.078
		c12.027-6.786,23.98-14.235,36.345-20.871c3.929-2.293,7.967-4.815,11.996-7.077c1.316-0.739,2.943-1.256,3.718-2.64
		c-20.592-0.851-43.122,0.343-64.294-0.359c-0.655-2.805-0.508-6.19-0.48-9.477c0.028-3.168-0.214-6.485,0.24-9.356
		c21.197-0.746,43.766,0.061,64.654-0.72c-0.611-1.347-2.434-2.046-3.719-2.759c-12.303-6.829-24.713-14.06-37.185-20.871
		c-2.742-1.498-5.573-2.973-8.157-4.679c-5.258-3.472-11.246-5.782-16.313-9.476c0.054-6.116-0.478-12.545,0-18.712
		c2.316,0.41,4.193,2.278,6.357,3.238c19.538,11.187,39.126,22.134,58.896,33.107c9.782,5.429,19.555,11.037,29.389,16.554
		c1.955,1.097,3.931,2.371,6.118,2.998c0.646-1.082,0.359-2.395,0.359-3.599c0.001-15.937,0-32.696,0-49.66
		c0.001-2.389-0.516-4.871,0.36-7.077c9.049-0.604,18.261,0.318,27.709-0.12c8.85-0.411,18.212-0.122,27.349-0.12
		c3.091,0.001,6.216,0,9.356,0c8.895,0.002,17.499-0.002,26.629,0C198.378,0.103,203.963-0.115,209.278,0.341z"/>
	<path style="fill-rule:evenodd;clip-rule:evenodd;" d="M209.038,39.086c0.08,0,0.16,0,0.24,0c0.481,2.88,0.352,5.921,0.36,8.996
		c0.027,10.45,0.163,21.702-0.24,32.268c-23.483,0.57-49.053,0.468-72.931,0.239c-0.04-0.947,1.145-1.188,1.799-1.559
		c2.14-1.216,4.478-2.826,6.837-3.839c17.801-10.837,37.353-20.852,55.538-31.668c2.587-1.538,5.275-3.198,7.917-4.438
		C208.541,39.094,209.127,38.932,209.038,39.086z"/>
	<path style="fill-rule:evenodd;clip-rule:evenodd;" d="M209.518,100.262c0.346,12.939,0.354,28.312,0.12,41.023
		c-1.762-0.223-3.307-1.327-4.798-2.159c-21.29-11.872-42.773-23.809-64.055-35.866c-1.436-0.812-3.223-1.408-4.199-2.878
		c17.163-0.572,35.609-0.362,53.739-0.36c3.299,0,6.574,0,9.836,0C203.316,100.021,206.508,99.75,209.518,100.262z"/>
	<path style="fill-rule:evenodd;clip-rule:evenodd;" d="M101.921,100.501c1.847,0.456,5.355,2.589,7.077,3.599
		c2.348,1.377,4.446,2.688,6.478,3.959c4.459,2.791,9.194,5.034,13.435,7.437c22.386,12.685,44.567,24.718,66.813,37.545
		c2.2,1.27,4.526,2.434,6.717,3.719c2.144,1.258,4.598,2.244,6.238,4.198c-17.604,0.605-35.688,0.36-53.619,0.36
		c-17.804,0-35.749,0.511-53.139-0.24c-0.365-16.453-0.36-34.669-0.36-52.539c0-2.638-0.092-5.508,0.12-7.677
		C101.784,100.764,101.752,100.533,101.921,100.501z"/>
</g>
<g id="Layer_1">
</g>
</svg>
