<?xml version="1.0" encoding="iso-8859-1"?>
<!-- Generator: Adobe Illustrator 19.2.0, SVG Export Plug-In . SVG Version: 6.00 Build 0)  -->
<svg version="1.1" xmlns="http://www.w3.org/2000/svg" xmlns:xlink="http://www.w3.org/1999/xlink" x="0px" y="0px"
	 viewBox="0 0 78.504 64.494" style="enable-background:new 0 0 78.504 64.494;" xml:space="preserve">
<g id="moffitt_x5F_and_x5F_mcdaniel">
	<path style="fill-rule:evenodd;clip-rule:evenodd;" d="M39.056,0.001c0.41-0.03,0.933,0.591,1.32,0.979
		c2.567,2.567,5.202,5.244,7.78,7.683c2.538,2.555,5.015,5.212,7.683,7.829c0.337,0.331,0.967,0.826,0.979,1.224
		c0.019,0.635-1.688,2.029-2.055,2.397c-2.231,2.232-4.471,4.45-6.655,6.654c-3.007,2.899-5.859,5.949-8.905,8.809
		c-0.905-0.571-1.568-1.422-2.3-2.153c-4.418-4.418-8.851-8.851-13.358-13.358c-0.331-0.33-0.675-0.703-1.126-1.126
		c-0.255-0.239-1.012-0.914-1.027-1.174c-0.018-0.278,0.663-0.908,0.979-1.224c4.783-4.781,9.531-9.484,14.337-14.288
		C37.486,1.473,38.269,0.683,39.056,0.001z"/>
	<path style="fill-rule:evenodd;clip-rule:evenodd;" d="M20.756,20.553c0.041-0.009,0.046,0.018,0.049,0.049
		c3.062,2.761,5.826,5.819,8.808,8.661c2.175,2.19,4.309,4.406,6.508,6.605c0.721,0.721,1.549,1.371,2.104,2.251
		c-0.057,8.215,0.117,17.271-0.099,24.857c-0.555-0.092-0.865-0.62-1.223-0.978c-4.674-4.674-9.479-9.43-14.19-14.142
		c-0.721-0.721-1.538-1.38-2.104-2.251c-0.084-8.247-0.077-16.773,0-24.906C20.635,20.629,20.684,20.58,20.756,20.553z"/>
	<path style="fill-rule:evenodd;clip-rule:evenodd;" d="M57.504,20.553c0.039,0.009,0.049,0.049,0.098,0.049
		c0.227,8.15,0.032,16.507,0.098,24.955C55.118,48.754,52,51.5,49.087,54.413c-2.538,2.54-5.071,5.073-7.633,7.634
		c-0.322,0.322-0.67,0.809-1.175,0.881c-0.228-8.082-0.033-16.586-0.098-24.858c1.269-1.576,2.799-2.945,4.257-4.404
		c2.854-2.854,5.619-5.73,8.612-8.66c1.019-0.998,2.149-2.11,3.229-3.229C56.739,21.3,57.001,20.779,57.504,20.553z"/>
	<path style="fill-rule:evenodd;clip-rule:evenodd;" d="M78.446,64.004c-0.591-0.02-0.909-0.616-1.271-0.978
		c-2.665-2.665-5.469-5.37-8.172-8.073c-2.575-2.575-5.475-5.407-8.172-8.123c-0.382-0.384-0.973-0.892-1.076-1.224
		c-0.226-0.72-0.005-2.063-0.05-3.082c-0.126-2.883,0.144-6.2,0.05-9.199c-0.067-2.132-0.057-4.231,0-6.264
		c0.06-2.152-0.086-4.408,0.049-6.361c-0.002-0.084,0.036-0.127,0.098-0.146c0.032,0,0.065,0,0.098,0
		c3.111,3.069,6.232,6.133,9.297,9.248c3.059,3.107,6.249,6.082,9.199,9.297C78.489,47.136,78.542,55.871,78.446,64.004z"/>
	<path style="fill-rule:evenodd;clip-rule:evenodd;" d="M18.406,21.091c0.347,0.376,0.196,0.964,0.196,1.419
		c0,7.803,0.004,15.838,0,23.586C13.074,52.085,7.121,57.773,1.329,63.564c-0.346,0.347-0.711,0.894-1.271,0.931
		c-0.114-8.173-0.017-16.556-0.05-24.81c2.827-3.286,6.136-6.102,9.101-9.248c2.967-3.146,6.165-6.07,9.102-9.248
		c0.036-0.046,0.089-0.073,0.146-0.098C18.374,21.091,18.39,21.091,18.406,21.091z"/>
</g>
<g id="Layer_1">
</g>
</svg>
