<?xml version="1.0" encoding="iso-8859-1"?>
<!-- Generator: Adobe Illustrator 19.2.0, SVG Export Plug-In . SVG Version: 6.00 Build 0)  -->
<svg version="1.1" xmlns="http://www.w3.org/2000/svg" xmlns:xlink="http://www.w3.org/1999/xlink" x="0px" y="0px"
	 viewBox="0 0 59.459 75.385" style="enable-background:new 0 0 59.459 75.385;" xml:space="preserve">
<g id="Molden_x5F_Seewald">
	<path style="fill-rule:evenodd;clip-rule:evenodd;" d="M59.141,14.368c0.021,0.044,0.043,0.088,0.098,0.099
		c0.26,3.21,0.148,6.486,0.148,9.742c0,8.866,0.049,17.487,0.049,26.621c0,0.76,0.11,1.576-0.147,2.314
		c-1.922,0.438-4.606-0.1-6.643,0.196c-0.437,0.063-1.036,0.655-1.476,1.132c-2.022,2.191-4.046,4.045-6.102,6.102
		c-2.396,2.397-5.082,4.795-7.283,7.332c-1.509,1.739-3.274,3.218-4.872,4.871c-0.431,0.48-0.877,0.885-1.377,1.428
		c-0.373,0.402-0.941,1.158-1.575,1.181c-0.572,0.02-1.239-0.747-1.673-1.181c-1.392-1.393-3.026-2.926-4.232-4.233
		c-2.886-2.756-5.79-5.494-8.611-8.315c-1.403-1.403-2.774-2.89-4.281-4.183c-1.508-1.295-2.739-2.887-4.379-4.035
		c-2.053-0.178-4.573,0.111-6.544-0.147c-0.34-0.707-0.197-1.555-0.197-2.312C0.044,38.65-0.082,26.515,0.092,14.516
		c1.089-0.345,2.286-0.197,3.444-0.197c2.382,0.001,4.759,0,7.233,0c1.118,0.001,2.535,0.184,3.543-0.049
		c0.671-0.154,1.431-1.037,2.018-1.623C20.036,8.941,23.454,5.39,27.353,1.82C27.863,1.354,28.872-0.015,29.42,0
		c0.805,0.021,1.491,1.048,2.067,1.624c0.736,0.735,1.458,1.215,1.87,1.82c1.317,1.127,2.538,2.35,3.74,3.592
		c1.863,1.906,3.566,3.566,5.511,5.512c0.49,0.489,1.452,1.668,2.067,1.722c2.122,0.185,4.635,0,7.135,0
		C54.286,14.27,56.815,14.19,59.141,14.368z M24.942,67.363c1.186,1.067,2.374,2.377,3.641,3.494
		c0.434,0.383,0.893,0.955,1.476,0.936c0.45-0.016,1.008-0.534,1.378-0.936c0.43-0.466,0.732-0.78,1.132-1.181
		c1.675-1.675,2.972-3.197,4.625-4.724c0.792-0.732,1.666-1.521,2.312-2.362c0.657-0.854,1.507-1.556,2.313-2.361
		c1.626-1.628,2.935-3.059,4.674-4.675c0.474-0.441,2.122-1.825,2.116-2.559c-0.005-0.661-1.23-1.504-1.771-2.017
		c-0.713-0.677-1.281-1.376-1.87-1.92c-1.371-1.265-2.526-2.683-3.789-3.838c-1.358-1.243-2.532-2.58-3.789-3.838
		c-1.257-1.258-2.516-2.518-3.838-3.789c-2.526-2.428-4.987-5.048-7.627-7.578c-1.878-1.8-3.952-3.656-5.855-5.561
		c-0.532-0.531-1.786-1.479-1.771-2.066c0.014-0.574,0.841-1.136,1.23-1.525c1.472-1.472,2.732-2.857,4.133-4.183
		c1.384-1.308,2.74-2.714,4.232-4.034c0.5-0.443,1.01-1.213,1.624-1.182c0.419,0.021,0.954,0.617,1.329,0.984
		c2.419,2.37,4.752,4.357,7.135,6.741c0.333,0.333,0.934,0.958,1.378,0.936c0.688-0.036,1.45-1.212,1.821-1.575
		c0.438-0.429,1.59-1.13,1.575-1.87c-0.013-0.577-1.08-1.505-1.427-1.82c-0.612-0.556-1.135-0.952-1.722-1.575
		c-1.462-1.729-3.134-3.178-4.97-4.921c-0.764-0.725-1.651-1.613-2.509-2.41c-0.333-0.31-0.859-0.69-1.279-1.181
		c-0.449-0.527-0.974-1.073-1.525-1.034c-0.886,0.063-2.036,1.726-2.608,2.264c-2.386,2.247-4.919,4.833-7.085,6.938
		c-2.739,2.655-5.482,5.382-8.218,8.119c-0.351,0.352-0.991,0.908-0.984,1.377c0.005,0.372,0.437,0.742,0.787,1.083
		c2.324,2.259,4.483,4.52,6.741,6.594c1.334,1.225,2.528,2.55,3.838,3.74c1.338,1.215,2.579,2.509,3.838,3.788
		c4.688,4.781,9.614,9.284,14.27,14.221c0.323,0.343,0.748,0.84,0.738,1.182c-0.014,0.502-0.809,1.114-1.181,1.525
		c-2.275,2.515-4.391,4.602-6.791,6.84c-0.418,0.39-0.719,0.867-1.279,1.427c-0.353,0.354-1.062,1.188-1.575,1.181
		c-0.497-0.006-1.067-0.772-1.525-1.23c-1.462-1.461-2.685-2.741-4.182-4.133c-1.449-1.346-2.75-2.651-4.183-4.084
		c-0.374-0.374-1.252-1.028-1.231-1.574c0.018-0.456,0.648-0.956,0.984-1.28c1.253-1.206,2.27-2.394,3.494-3.444
		c1.054-1.215,2.251-2.273,3.395-3.493c0.312-0.334,1.003-0.9,0.984-1.329c-0.017-0.385-0.486-0.702-0.788-0.984
		c-0.968-0.905-1.572-2.047-2.854-2.46c-0.779,0.212-1.277,0.903-1.82,1.427c-1.693,1.632-3.36,3.24-4.97,4.921
		c-1.081,1.101-2.136,2.227-3.297,3.248c-0.54,0.544-1.073,0.999-1.673,1.624c-0.402,0.418-1.433,1.217-1.427,1.869
		c0.004,0.44,0.616,1.01,0.984,1.378c2.758,2.758,5.862,5.606,8.415,8.218C21.996,64.278,23.231,65.826,24.942,67.363z
		 M27.353,16.731c-1.258,1.209-2.311,2.32-3.641,3.543c-0.633,0.582-1.605,1.408-1.575,2.017c0.016,0.317,0.498,0.793,0.788,1.083
		c1.598,1.598,3.161,3.063,4.724,4.626c0.358,0.357,1.444,1.647,2.116,1.623c0.667-0.022,1.508-1.185,2.018-1.623
		c1.377-1.183,2.44-2.37,3.739-3.642c0.479-0.468,1.691-1.191,1.673-2.018c-0.013-0.626-1.018-1.362-1.673-2.018
		c-1.538-1.538-2.375-2.214-3.838-3.543c-0.557-0.506-1.428-1.703-2.214-1.624C28.732,15.231,27.777,16.322,27.353,16.731z
		 M10.13,16.927c-1.137,0.053-2.444,0-3.74,0c-1.255,0-2.563-0.114-3.592,0.147c-0.401,1.279-0.105,2.675-0.148,4.035
		c-0.043,1.389,0,2.781,0,4.183c0,6.999,0,14.14,0,21.258c0,1.401-0.135,2.8,0.197,4.034c0.7,0.257,1.703,0.147,2.657,0.148
		c0.971,0,1.987,0.102,2.707-0.148c0.362-1.041,0.14-2.517,0.147-3.689c0.055-8.968-0.097-17.754,0-26.277
		c0.389-0.693,1.035-1.13,1.476-1.771c0.568-0.515,1.233-0.932,1.477-1.771C11.024,16.763,10.542,16.907,10.13,16.927z
		 M56.73,46.599c0.128-9.161-0.21-18.763-0.099-27.604c0.008-0.628,0.072-1.672-0.147-1.92c-0.265-0.298-1.331-0.196-1.87-0.196
		c-0.805,0-1.503-0.005-1.968,0c-1.695,0.017-4.474-0.216-5.806,0.295c-0.794,0.304-1.429,1.035-2.018,1.624
		c-1.937,1.937-3.625,3.601-5.561,5.511c-1.73,1.979-3.608,3.814-5.511,5.56c-0.634,0.582-1.426,1.136-1.673,2.018
		c0.213,0.738,0.883,1.284,1.624,1.919c0.551,0.473,1.255,1.61,2.018,1.575c0.917-0.043,1.252-1.266,1.919-1.723
		c3.544-3.771,7.373-7.257,11.022-10.924c0.658-0.573,1.036-1.425,2.018-1.673c0.317,0.494,0.197,1.113,0.197,1.673
		c0,4.332,0,8.589,0,13.089c0,3.771-0.025,7.6,0,11.072c0.009,1.206-0.043,2.438,0.197,3.592c0.688,0.341,1.704,0.189,2.657,0.147
		c0.996-0.044,2.05,0.146,2.805-0.147C56.855,49.281,56.711,47.936,56.73,46.599z M48.266,46.107c0-5.448-0.049-10.3-0.049-15.648
		c0-0.796,0.3-3.457-0.64-2.903c-0.773,0.455-1.43,1.233-2.116,1.919c-1.389,1.389-2.837,2.669-4.133,4.035
		c-0.685,0.722-1.446,1.328-2.067,2.018c-0.215,0.238-0.418,0.646-0.738,0.983c-0.317,0.336-0.696,0.595-0.689,1.034
		c0.005,0.363,0.45,0.804,0.738,1.132c2.206,2.507,4.224,4.444,6.643,6.691c0.942,0.747,1.448,1.988,2.756,2.313
		C48.386,47.37,48.266,46.707,48.266,46.107z M13.427,29.278c-0.592-0.527-1.529-1.913-2.313-1.624
		c-0.285,0.373-0.196,1.643-0.196,2.46c0,5.302,0.049,10.428,0.049,15.599c0,0.78-0.244,1.76,0.345,2.312
		c0.599-0.056,1.064-0.587,1.476-0.984c0.447-0.429,0.865-0.91,1.279-1.328c1.891-2.038,3.951-3.89,5.856-5.855
		c0.634-0.654,1.537-1.254,1.673-2.264c-0.518-1.172-1.641-1.738-2.411-2.657C17.489,33.258,15.399,31.032,13.427,29.278z
		 M35.521,51.027c-1.276-1.227-2.429-2.43-3.739-3.74c-0.522-0.521-1.376-1.624-2.165-1.624c-0.612,0.001-1.527,1.346-2.018,1.773
		c-0.657,0.57-1.122,1.149-1.772,1.771c-0.5,0.479-1.118,1.068-1.771,1.722c-0.473,0.473-1.603,1.325-1.575,1.969
		c0.031,0.71,1.228,1.571,1.673,2.017c1.32,1.32,2.325,2.395,3.69,3.691c0.348,0.33,1.522,1.648,2.018,1.673
		c0.573,0.027,1.617-1.183,2.017-1.575c0.67-0.655,1.245-1.287,1.821-1.82c0.671-0.621,1.304-1.155,1.87-1.771
		c0.543-0.592,1.309-1.097,1.624-2.018C36.942,52.19,36.146,51.627,35.521,51.027z"/>
</g>
<g id="Layer_1">
</g>
</svg>
