<?xml version="1.0" encoding="iso-8859-1"?>
<!-- Generator: Adobe Illustrator 19.2.0, SVG Export Plug-In . SVG Version: 6.00 Build 0)  -->
<svg version="1.1" xmlns="http://www.w3.org/2000/svg" xmlns:xlink="http://www.w3.org/1999/xlink" x="0px" y="0px"
	 viewBox="0 0 80.342 80.709" style="enable-background:new 0 0 80.342 80.709;" xml:space="preserve">
<g id="Mondial_x5F_Toys">
	<path style="fill-rule:evenodd;clip-rule:evenodd;" d="M80.204,0.24c0.104,26.765,0.223,53.609,0.052,80.236
		c-0.772,0.272-1.629,0.155-2.424,0.155c-25.845-0.001-51.534,0.207-77.555-0.052c-0.266-6.422-0.155-13.296-0.155-20.008
		c0-8.48,0-16.86,0-25.37c0-1.653,0.073-3.355,0-5.002c-0.145-3.307,0.101-6.582-0.051-9.797c-0.16-3.394,0-6.804,0-10.158
		c0-3.338-0.092-6.652,0.103-9.952C0.22,0.269,0.267,0.246,0.277,0.189c23.405-0.106,47.902-0.105,72.45-0.104
		c1.679,0,3.516,0.021,5.054-0.052C78.585-0.004,79.632-0.072,80.204,0.24z M59.681,4.571c-5.054,0.001-8.893,2.724-11.344,5.363
		c-2.634,2.835-4.785,6.689-4.538,12.118c0.241,5.306,2.358,8.658,5.26,11.499c2.807,2.748,6.948,4.77,12.221,4.538
		c2.476-0.109,4.801-0.75,6.652-1.702c3.653-1.879,6.462-4.778,8.044-8.663c0.798-1.958,1.41-4.361,1.289-7.116
		c-0.22-5.002-2.555-8.877-5.311-11.448c-2.745-2.56-6.726-4.849-12.17-4.589C59.75,4.573,59.715,4.571,59.681,4.571z
		 M40.395,30.045c-0.678-1.198-0.965-3.336-0.258-4.796c0.381-0.786,0.954-1.402,1.393-2.114c0.459-0.745,0.814-1.463,1.083-2.423
		c1.29-4.61-1.066-8.682-3.764-10.52c-1.613-1.098-3.448-1.901-6.343-1.702c-1.986,0.137-3.844,0.909-5.208,2.011
		c-1.286,1.039-2.477,2.466-3.094,3.97c-0.369,0.9-0.743,2.491-0.722,3.816c0.044,2.861,1.383,5.232,3.146,6.806
		c1.911,1.708,4.236,2.631,4.229,5.775c-0.005,1.985-1.205,3.6-2.424,4.383c-0.475,0.305-1.066,0.389-1.495,0.825
		c1.011,6.526,2.377,12.975,3.506,19.44c0.847,4.849,1.71,9.729,2.733,14.438c0.346,1.596,0.386,3.263,0.979,4.795
		c1.552-0.053,3.098-0.451,4.641-0.774c1.554-0.325,3.143-0.574,4.693-0.876c2.369-0.462,4.801-0.92,7.064-1.289
		c0.778-0.127,1.692-0.161,2.165-0.619c-0.062-1.623-0.539-3.199-0.825-4.795c-1.737-9.713-3.71-19.436-5.466-29.031
		c-0.291-1.589-0.504-3.219-1.031-4.744C42.998,32.492,41.302,31.648,40.395,30.045z M19.099,34.531
		c-0.345-0.472-0.706-1.18-0.877-1.805c-1.053-3.856,2.022-5.295,3.404-7.425c0.791-1.22,1.458-3.022,1.392-5.157
		c-0.074-2.399-1.185-4.565-2.475-5.93c-1.316-1.392-3.286-2.713-5.466-2.939c-3.933-0.408-6.543,1.106-8.25,3.043
		c-1.308,1.483-2.372,3.561-2.372,6.136c0,1.944,0.636,3.778,1.443,5.002c0.915,1.385,2.146,2.206,2.836,3.609
		c0.741,1.508,0.453,3.716-0.258,4.899c-0.794,1.322-2.242,2.133-3.919,2.527C4.349,49.395,4.052,62.897,4.196,76.093
		c5.848,0.176,12.303,0.176,18.1,0c0.42-5.31-0.013-10.81,0.207-16.295c0.219-5.487-0.007-10.998,0.051-16.397
		c0.024-2.213,0.28-4.613,0-6.807C21.237,36.096,19.913,35.644,19.099,34.531z"/>
</g>
<g id="Layer_1">
</g>
</svg>
