<?xml version="1.0" encoding="iso-8859-1"?>
<!-- Generator: Adobe Illustrator 19.2.0, SVG Export Plug-In . SVG Version: 6.00 Build 0)  -->
<svg version="1.1" xmlns="http://www.w3.org/2000/svg" xmlns:xlink="http://www.w3.org/1999/xlink" x="0px" y="0px"
	 viewBox="0 0 79.236 71.943" style="enable-background:new 0 0 79.236 71.943;" xml:space="preserve">
<g id="Montecatini">
	<path style="fill-rule:evenodd;clip-rule:evenodd;" d="M36.554,43.783c0.521-0.302,0.617-0.968,0.835-1.474
		c0.667-1.55,1.416-3.136,2.162-4.717c0.994-2.105,1.752-4.33,2.948-6.24c2.178-0.081,4.7-0.082,6.878,0
		c0.58,0.365,0.867,1.053,1.179,1.622c3.612,6.574,7.45,13.129,11.104,19.701c0.987,1.777,2.118,3.488,3.095,5.306
		c0.331,0.615,0.738,1.227,0.885,1.916c-3.646,0.185-7.622,0.101-11.398,0.05c-0.819-0.992-1.318-2.206-1.965-3.341
		c-0.626-1.099-1.275-2.21-1.916-3.342c-0.587-1.038-1.193-2.382-1.818-3.438c-0.293-0.496-0.557-1.051-0.934-1.72
		c-0.224-0.396-0.717-1.533-1.081-1.523c-0.337,0.011-0.775,1.189-0.933,1.523c-1.326,2.797-2.514,5.647-3.832,8.45
		c-0.527,1.121-0.856,2.312-1.572,3.292c-2.382,0.04-5.289,0.179-7.517-0.099c-0.442-0.409-0.598-1.04-0.836-1.571
		c-1.206-2.698-2.386-5.576-3.685-8.304c-0.517-1.087-0.817-2.271-1.572-3.193c-0.627,0.358-1.038,1.036-1.425,1.621
		c-1.966,2.978-4.021,5.947-6.043,8.942c-0.398,0.589-0.844,1.174-1.229,1.769c-0.396,0.613-0.853,1.216-1.081,1.916
		c1.024,0.288,2.09,0.122,3.144,0.147c3.124,0.075,6.453,0.049,9.728,0.049c8.539,0,16.997,0.146,25.646,0.148
		c4.299,0.001,8.618,0.085,12.823-0.099c-0.239-1.027-0.911-1.877-1.425-2.751C63.174,52.394,59.818,46.073,56.206,40
		c-1.029-1.731-2.073-3.507-2.997-5.307c-0.926-1.803-1.981-3.53-2.948-5.306c-0.497-0.912-0.914-1.847-1.425-2.751
		c-1.474-2.614-2.999-5.26-4.52-7.861c-1.019-1.743-1.931-3.559-3.145-5.158c-1.176-1.551-3.233-2.801-5.65-2.31
		c-2.132,0.434-3.547,2.099-4.815,3.488c-6.536,7.169-13.302,14.356-19.75,21.617c-1.107,1.071-1.972,2.301-3.095,3.538
		c-0.264,0.29-0.806,1.004-1.13,1.031c-0.518,0.044-1.501-1.156-1.818-1.425c-1.2-1.016-2.15-1.855-3.341-3.046
		c-0.395-0.395-1.536-1.1-1.572-1.621c-0.024-0.35,0.6-0.997,0.884-1.327c2.407-2.792,4.806-5.575,7.173-8.254
		c2.522-3.356,5.299-6.459,8.008-9.629c2.67-3.11,5.521-6.269,8.156-9.482c3.004-3.664,7.393-6.824,14.101-6.092
		c5.11,0.558,9.138,3.423,11.3,6.927c0.237,0.383,0.354,0.843,0.59,1.228c1.539,2.515,3.027,5.267,4.569,7.86
		c1.771,2.978,3.534,5.985,5.208,8.991c1.684,3.026,3.536,5.983,5.208,9.04c3.357,6.138,6.79,11.939,10.269,18.178
		c1.655,2.969,4.101,5.832,3.733,10.367c-0.404,4.998-3.93,8.445-8.647,9.138c-1.016,0.149-2.131,0.099-3.341,0.099
		c-16.463,0.003-33.11-0.241-49.328-0.245c-2.483-0.001-4.75,0.022-6.436-0.688c-1.655-0.697-2.824-1.812-3.93-3.145
		c-1.139-1.372-1.89-3.021-2.063-5.061c-0.196-2.302,0.27-4.224,1.13-5.896c0.804-1.562,1.786-2.99,2.604-4.52
		c0.396-0.741,0.991-1.368,1.474-2.063c0.494-0.711,0.933-1.466,1.376-2.162c2.803-4.402,5.673-8.472,8.598-12.725
		c0.948-1.379,1.798-2.844,2.898-4.176c2.249-0.084,4.826-0.079,7.075,0c0.001,0.048,0.06,0.038,0.098,0.049
		c1.467,3.042,2.968,6.258,4.324,9.434C35.482,41.794,35.85,42.899,36.554,43.783z"/>
</g>
<g id="Layer_1">
</g>
</svg>
