<?xml version="1.0" encoding="iso-8859-1"?>
<!-- Generator: Adobe Illustrator 19.2.0, SVG Export Plug-In . SVG Version: 6.00 Build 0)  -->
<svg version="1.1" xmlns="http://www.w3.org/2000/svg" xmlns:xlink="http://www.w3.org/1999/xlink" x="0px" y="0px"
	 viewBox="0 0 245.814 218.521" style="enable-background:new 0 0 245.814 218.521;" xml:space="preserve">
<g id="MOT">
	<path d="M18.337,16.779v185.054H228.62V16.779H18.337z M171.069,184.57H75.631l38.871-67.326l0,0H36.761l47.72-82.653l38.87,67.326
		l38.871-67.326l47.719,82.653h-77.741L171.069,184.57z"/>
	<polygon points="104.057,168.158 142.643,168.158 123.35,134.741 	"/>
	<polygon points="65.187,100.832 103.772,100.832 84.479,67.415 	"/>
	<polygon points="162.221,67.415 142.928,100.832 181.514,100.832 	"/>
	<path style="fill-rule:evenodd;clip-rule:evenodd;" d="M237.425,0v0.03H8.39V0H0v0.03v8.39v201.71v8.391h8.39h229.035h8.39v-8.391
		V8.42V0.03V0H237.425z M237.425,210.13H8.39V8.42h229.035V210.13z"/>
</g>
<g id="Layer_1">
</g>
</svg>
