<?xml version="1.0" encoding="iso-8859-1"?>
<!-- Generator: Adobe Illustrator 19.2.0, SVG Export Plug-In . SVG Version: 6.00 Build 0)  -->
<svg version="1.1" xmlns="http://www.w3.org/2000/svg" xmlns:xlink="http://www.w3.org/1999/xlink" x="0px" y="0px"
	 viewBox="0 0 80.321 81.412" style="enable-background:new 0 0 80.321 81.412;" xml:space="preserve">
<g id="Mountaingate">
	<path style="fill-rule:evenodd;clip-rule:evenodd;" d="M79.367,48.573c-0.768-0.161-0.995-0.862-1.466-1.319
		c-2.965-3.439-5.813-6.995-8.849-10.363c-2.279-2.82-4.988-6.103-7.479-9.043c-1.354-1.6-3.207-4.344-6.355-3.373
		c-1.814,0.56-2.971,2.254-4.008,3.764c-2.068,3.008-3.75,6.434-6.208,9.336c-1.075,1.271-2.747,2.905-4.791,2.982
		c-2.063,0.078-3.561-1.516-4.643-2.688c-2.377-2.576-4.054-5.582-5.964-8.652c-0.414-0.665-0.955-1.438-1.516-2.151
		c-0.967-1.231-1.982-2.627-3.959-2.736c-2.625-0.148-4.123,2.079-5.329,3.568c-3.95,4.877-8.201,9.744-12.123,14.469
		c-0.934,1.037-1.775,2.167-2.737,3.178c-0.397,0.579-0.887,1.068-1.319,1.613c-0.476,0.162-0.819,1.531-1.516,1.417
		c-0.474-0.077-0.554-1.579-0.636-2.15c-0.332-2.321-0.552-5.315-0.439-7.87c0.167-3.802,0.861-6.717,1.613-9.483
		c1.531-5.637,4.462-10.518,7.772-14.421c4.981-5.873,11.586-10.715,20.14-13.149c1.427-0.406,2.946-0.75,4.546-0.977
		c1.648-0.234,3.474-0.406,5.231-0.489c3.606-0.17,7.14,0.368,10.217,1.125c9.095,2.238,15.758,6.794,20.873,13.003
		c5.069,6.05,9.071,13.567,9.825,24.099c0.195,2.723-0.02,5.628-0.342,8.066C79.802,47.097,79.822,47.961,79.367,48.573z
		 M74.283,31.024c-0.798-2.113-1.703-4.066-2.786-5.915c-2.129-3.635-4.424-7.111-7.333-10.02c-1.414-1.415-3.125-2.585-4.839-3.813
		c-1.696-1.215-3.597-2.232-5.572-3.128c-3.771-1.708-9.104-2.999-14.616-2.737c-5.593,0.265-9.712,1.44-13.687,3.324
		c-7.616,3.607-12.963,9.465-16.913,16.718c-1.467,2.691-2.815,5.758-3.618,8.994c-0.277,1.119-0.696,2.302-0.537,3.52
		c0.651-0.137,0.92-0.802,1.27-1.271c2.593-3.463,5.22-6.862,7.772-10.313c1.417-1.916,2.837-3.939,4.742-5.573
		c1.816-1.557,4.68-2.702,7.919-1.857c3.569,0.931,5.951,4.15,7.821,6.941c0.911,1.361,1.898,2.864,2.835,4.546
		c0.404,0.727,0.842,1.526,1.369,2.347c0.461,0.719,1.15,1.738,2.004,1.711c0.444-0.014,1.206-0.604,1.564-1.026
		c0.913-1.074,1.487-2.492,2.249-3.765c0.751-1.256,1.489-2.558,2.297-3.715c2.036-2.916,4.244-6.228,8.163-7.137
		c4.217-0.978,7.267,1.076,9.19,3.178c1.562,1.706,2.805,3.58,4.106,5.328c2.381,3.197,4.669,6.395,7.088,9.435
		c0.318,0.4,0.635,1.05,1.222,1.075C75.893,35.378,75.078,33.13,74.283,31.024z"/>
	<path style="fill-rule:evenodd;clip-rule:evenodd;" d="M76.971,56.491c-1.297-0.397-1.752-1.636-2.737-2.346
		c-5.075-4.87-10.122-10.528-15.496-15.447c-0.863-0.79-1.777-1.718-3.226-1.418c-1.512,0.314-2.471,2.472-3.471,3.373
		c-1.746,1.816-3.125,3.559-5.182,5.035c-1.889,1.355-4.335,2.784-7.675,2.493c-3.215-0.28-6.382-2.862-8.212-4.693
		c-0.988-0.987-2.055-2.233-3.08-3.372c-0.94-1.044-1.854-2.893-3.568-2.885c-1.277,0.006-2.306,1.182-3.08,1.955
		c-5.468,5.468-10.773,10.725-16.327,16.278c-0.401,0.402-0.956,1.168-1.368,1.125c-0.567-0.061-0.989-1.794-1.173-2.347
		c-0.136-0.407-0.388-0.916-0.489-1.271c-0.129-0.448-0.34-1.059-0.293-1.466c0.054-0.479,0.816-1.021,1.271-1.516
		c3.142-3.432,6.419-6.402,9.679-9.728c1.796-1.832,3.723-3.668,5.523-5.572c1.599-1.69,4.942-4.797,8.457-3.129
		c0.622,0.295,1.229,0.808,1.76,1.222c1.687,1.317,2.752,2.946,4.302,4.547c0.981,1.13,1.828,2.04,2.885,3.03
		c0.987,0.927,2.384,2.099,4.057,2.249c3.69,0.331,5.923-2.749,7.968-4.986c2.072-2.267,3.922-5.222,6.697-6.257
		c1.011-0.377,2.421-0.396,3.519-0.05c2.519,0.794,3.97,2.873,5.769,4.547c0.92,0.856,1.796,1.698,2.64,2.542
		c0.873,0.873,1.589,1.856,2.542,2.591c2.824,2.831,6.039,6.038,9.043,9.043c0.398,0.398,1.068,0.905,1.125,1.418
		c0.086,0.792-0.496,1.881-0.782,2.689C77.723,55.059,77.628,56.002,76.971,56.491z"/>
	<path style="fill-rule:evenodd;clip-rule:evenodd;" d="M75.896,59.033c-1.47,3.386-3.604,6.106-5.769,8.8
		c-5.88,6.677-13.67,11.712-24.881,13.247c-3.749,0.513-7.826,0.42-11.732-0.196c-3.705-0.583-6.789-1.707-9.679-3.03
		c-1.492-0.684-2.896-1.326-4.204-2.15c-3.793-2.393-7.281-5.4-10.118-8.946c-1.35-1.687-2.743-3.509-3.96-5.572
		c-0.355-0.604-1.056-1.57-1.026-2.151c0.024-0.48,0.615-0.82,0.977-1.124c1.169-0.979,2.331-1.864,3.422-2.835
		c3.226-2.695,6.812-5.642,10.217-8.506c1.1-0.926,2.355-2.03,3.666-2.542c1.592-0.621,3.392-0.241,4.692,0.44
		c1.367,0.715,2.363,1.258,3.618,2.15c2.307,1.642,4.812,3.141,7.968,3.568c3.395,0.46,6.605-1.25,8.75-2.591
		c2.307-1.441,4.782-3.785,7.772-3.959c0.786-0.046,1.528,0.171,2.101,0.391c1.857,0.712,3.315,2.254,4.84,3.471
		c0.784,0.625,1.548,1.248,2.297,1.857c0.771,0.627,1.572,1.23,2.249,1.906c1.413,1.413,3.03,2.592,4.497,3.813
		c1.148,0.955,2.24,1.846,3.373,2.835C75.317,58.214,75.834,58.495,75.896,59.033z M55.756,49.452
		c-1.336-0.199-2.776,1.089-3.764,1.711c-3.272,2.063-6.679,4.327-11.732,4.448c-3.342,0.08-6.296-1.066-8.457-2.346
		c-1.012-0.6-2.218-1.369-3.323-2.054c-1.044-0.646-2.514-2.058-3.813-1.76c-1.256,0.288-2.748,1.691-3.764,2.493
		c-2.97,2.344-5.842,4.584-8.75,6.746c-0.561,0.416-1.33,0.855-1.516,1.613c0.545,1.346,1.638,2.142,2.444,3.226
		c0.922,0.969,1.862,1.918,2.884,2.787c3.394,3.138,7.411,5.726,12.318,7.576c4.795,1.808,10.973,2.791,17.256,1.76
		c2.809-0.46,5.311-1.287,7.724-2.199c5.47-2.068,9.567-5.266,13.345-9.044c0.413-0.412,0.716-0.913,1.125-1.368
		c0.353-0.394,0.746-0.785,1.173-1.32c0.356-0.446,0.96-1.127,0.929-1.563c-0.03-0.438-0.715-0.863-1.124-1.174
		c-1.381-1.047-2.65-2.131-3.911-3.079c-1.834-1.381-3.473-2.739-5.23-4.058C58.218,51.101,57.389,49.697,55.756,49.452z"/>
</g>
<g id="Layer_1">
</g>
</svg>
