<?xml version="1.0" encoding="iso-8859-1"?>
<!-- Generator: Adobe Illustrator 19.2.0, SVG Export Plug-In . SVG Version: 6.00 Build 0)  -->
<svg version="1.1" xmlns="http://www.w3.org/2000/svg" xmlns:xlink="http://www.w3.org/1999/xlink" x="0px" y="0px"
	 viewBox="0 0 149.32 150.294" style="enable-background:new 0 0 149.32 150.294;" xml:space="preserve">
<g id="Multicultural_x5F_Arts_x5F_Victoria">
	<path style="fill-rule:evenodd;clip-rule:evenodd;" d="M76.45,0c3.064,0.344,7.188,1.264,9.229,3.116
		c1.207,1.095,2.336,3.679,0.72,5.153c-1.042,0.95-3.995,1.196-6.112,1.199c-8.994,0.013-19.126-2.658-29.364-2.038
		c-3.864,0.234-7.501,0.944-10.547,1.318c6.019-4.936,18.221-5.443,29.363-4.554c3.726,0.297,7.371,0.953,10.548,0.48
		c3.134-0.467,2.033-2.413-0.12-3.356C78.68,0.668,77.446,0.636,76.45,0z"/>
	<path style="fill-rule:evenodd;clip-rule:evenodd;" d="M83.282,0.48C83.231,0.429,83.36,0.558,83.282,0.48L83.282,0.48z"/>
	<path style="fill-rule:evenodd;clip-rule:evenodd;" d="M83.521,0.599c5.387,1.199,12.061,3.813,13.903,8.869
		c0.811,2.226,0.317,5.017-0.959,6.472c-2.921,3.331-9.517,4.043-16.061,3.715c-6.306-0.317-12.143-1.445-17.618-2.277
		c-6.464-0.983-12.882-1.277-18.936-0.839c-6.233,0.451-11.943,2.384-17.378,2.038c-0.104-1.372,1.351-2.251,2.277-2.997
		c1.036-0.833,2.28-1.518,3.236-2.277c4.023,0.492,8.831-1.17,13.544-1.678c8.156-0.878,17.711-0.025,25.409,0.959
		c4.163,0.532,8.312,1.282,12.824,0.958c3.386-0.242,8.015-1.844,8.27-5.034C92.398,3.924,86.652,2.1,83.521,0.599z"/>
	<path style="fill-rule:evenodd;clip-rule:evenodd;" d="M91.431,1.918c6.293,2.204,13.016,6.273,15.701,12.465
		c1.35,3.113,1.756,8.317-0.12,11.386c-7.324,11.983-31.276,8.95-45.903,5.633c-10.961-2.485-22.409-5.124-34.277-2.996
		c-1.818,0.326-3.62,0.79-5.393,1.199c-1.619,0.373-3.681,1.121-5.274,0c0.435-3.32,3.199-4.312,4.674-6.592
		c2.414,1.072,6.205-0.172,9.588-0.839c7.504-1.48,15.865-1.673,24.21-0.719c5.565,0.636,10.354,1.914,14.982,2.876
		c6.568,1.365,15.023,2.653,22.053,0.958c5.636-1.358,14.271-5.23,11.146-13.064C100.821,7.218,95.883,4.974,91.431,1.918z"/>
	<path style="fill-rule:evenodd;clip-rule:evenodd;" d="M98.143,3.955c10.193,4.389,21.362,11.776,21.094,26.727
		c2.088-6.07-0.046-14.223-3.235-18.218c2.823,1.867,4.808,5.125,6.352,8.51c2.008,4.404,3.362,9.927,2.996,16.54
		c-0.584,10.563-5.682,19.335-9.827,26.847c-4.415,7.999-9.554,15.708-11.267,25.409c-2.112,11.967-0.208,26.035,8.27,30.083
		c4.827,2.305,11.88,1.715,16.42-0.12c4.771-1.928,8.461-4.774,11.746-7.91c-3.363,5.612-9.192,10.736-15.701,14.023
		c-6.411,3.237-16.762,4.914-23.73,0.839c2.26,2.662,8.689,5.716,5.753,11.865c-4.027,8.434-18.106,11.369-29.363,11.745
		c6.397-1.59,15.98-2.602,18.337-8.51c1.641-4.114-4.798-9.004-7.191-10.786c-9.722-7.239-15.284-17.98-21.094-28.885
		C59.733,87.16,53.418,71.43,42.053,61.004c-3.273-2.005-6.542-4.867-10.667-6.472c-5.507-2.143-13.084-1.879-18.337,0.599
		C5.91,59.539,1.157,66.331,0.224,76.945c-0.698-5.851,0.271-11.409,2.397-15.58c4.722-9.267,12.921-16.222,24.809-18.098
		c-4.667-0.735-10.599,0.439-15.221,1.917c-1.503,0.481-4.242,1.642-4.794-0.24c-0.225-0.765,0.115-2.07,0.359-2.756
		c0.946-2.655,3.214-5.503,4.674-7.671c1.162,1.96,5.848,0.082,9.109-0.479c8.128-1.398,17.378-1.363,25.168,0.719
		c11.318,3.025,20.835,7.393,34.038,7.431c10.818,0.031,21.097-1.984,27.087-7.431c2.71-2.464,4.864-6.182,5.153-10.787
		C113.645,13.77,104.141,7.82,98.143,3.955z M81.723,97.319c2.837,6.573,5.185,13.492,9.589,18.937
		c-2.177-4.969-3.858-10.598-3.836-17.498c0.042-12.862,4.446-22.367,9.349-30.922c4.935-8.611,12.082-15.378,16.899-23.491
		c-6.742,7.072-18.669,11.046-31.642,10.787c-13.711-0.274-25.072-3.962-35.116-8.15c0-0.067-0.097-0.136-0.12,0
		C64.671,57.498,73.205,77.581,81.723,97.319z"/>
	<path style="fill-rule:evenodd;clip-rule:evenodd;" d="M147.043,97.2c-2.191,3.49-4.405,7.61-9.108,8.27
		c-4.49,0.63-7.366-2.274-8.27-5.514c-1.729-6.188,1.28-13.363,2.996-18.697c3.4-10.574,6.484-26.148,4.315-39.551
		c-1.045-6.452-3.153-11.812-6.353-16.779c-0.033-0.214,0.113-0.246,0.12-0.12c8.343,8.737,12.133,21.981,11.147,39.791
		c-0.316,5.709-1.482,10.883-2.637,15.82c-1.133,4.846-3.133,10.016-2.637,15.701c0.209,2.396,1.257,4.923,3.596,5.153
		C143.697,101.618,145.234,98.446,147.043,97.2z"/>
	<path style="fill-rule:evenodd;clip-rule:evenodd;" d="M64.225,149.335c2.84-0.886,9.582-0.965,9.947-4.554
		c0.194-1.908-2.008-3.722-3.355-5.034c-9.918-9.656-17.214-21.489-24.21-34.038c-4.019-7.209-7.619-14.477-11.985-21.333
		c-2.044-3.211-4.448-6.406-7.551-9.109c-3.675-3.202-10.57-7.32-16.3-3.955C3.809,75.4,2.047,86.798,3.82,96.96
		c-2.57-7.601-3.774-17.467-0.719-24.929c2.52-6.155,7.068-11.627,14.742-12.225c8.537-0.665,14.074,3.699,18.457,8.03
		c6.211,6.137,10.026,13.108,14.382,21.094c8.279,15.179,14.971,32.191,27.086,43.985c1.363,1.327,2.851,2.768,4.555,4.316
		c1.878,1.705,5.304,3.911,3.596,7.071c-0.308,0.567-0.739,0.376-1.199,0.839c-0.431,0.434-0.412,0.965-0.719,1.198
		C79.811,149.523,69.575,149.14,64.225,149.335z"/>
	<path style="fill-rule:evenodd;clip-rule:evenodd;" d="M52.959,146.459c1.483,0.002,4.026,0.555,4.435-0.6
		c0.495-1.398-1.856-3.174-2.277-3.596c-1.742-1.746-1.64-1.436-2.876-2.876c-5.558-6.476-10.092-12.624-14.861-19.775
		c-3.327-4.989-5.852-9.965-8.51-14.622c-2.736-4.795-5.568-10.315-9.468-13.543c-1.181-0.977-2.963-2.171-5.153-1.917
		c-7.943,0.919-6.168,13.415-4.674,20.974c-4.536-8.667-7.635-30.172,4.075-31.521c4.987-0.575,9.189,2.554,11.746,5.273
		c2.481,2.639,4.36,5.538,5.993,8.509c8.428,15.338,16.585,31.454,28.045,44.225c1.89,2.106,6.866,5.461,6.232,8.39
		C64.841,149.179,55.421,147.534,52.959,146.459z"/>
	<path style="fill-rule:evenodd;clip-rule:evenodd;" d="M48.165,145.02c-13.585-4.104-18.912-17.321-25.768-28.765
		c-1.092-1.822-2.48-4.294-3.955-5.153c-1.675-0.977-3.519-0.019-3.716,2.037c-0.363,3.796,2.262,7.903,3.356,10.667
		c-2.454-3.215-5.82-7.903-6.592-13.063c-0.678-4.537,1.463-11.418,6.712-8.63c3.313,1.76,5.847,6.612,8.15,10.187
		c2.512,3.901,4.276,7.811,6.592,11.626C38.084,132.398,42.788,139.633,48.165,145.02z"/>
	<path style="fill-rule:evenodd;clip-rule:evenodd;" d="M122.114,16.899c4.66,3.367,8.416,10.333,10.188,16.779
		c1.824,6.642,2.835,15.699,1.438,23.611c-1.339,7.584-3.573,14.347-5.872,20.734c-2.197,6.104-5.228,13.571-4.675,21.813
		c0.274,4.097,1.82,7.86,4.794,9.229c6.73,3.097,13.889-1.432,16.899-5.514c-3.187,7.631-16.845,16.644-27.326,10.188
		c-2.549-1.57-4.804-5.401-5.513-8.989c-1.598-8.074,0.941-17.457,3.475-24.09c2.679-7.014,5.548-13.211,8.629-19.896
		c4.616-10.015,7.138-22.71,3.116-34.397C126.028,22.765,124.268,19.844,122.114,16.899z"/>
	<path style="fill-rule:evenodd;clip-rule:evenodd;" d="M149.32,87.611c-0.432,1.947-1.167,4.645-2.517,6.353
		c-1.461,1.848-5.25,3.292-5.873-0.36c-0.764-4.475,1.229-9.249,2.037-13.184c2.491-12.122,3.296-28.113-0.839-38.952
		c4.749,7.877,7.637,22.483,5.273,35.356c-0.768,4.186-2.105,8.025-2.396,11.626c-0.087,1.073-0.115,3.361,0.719,3.595
		C147.302,92.489,148.777,88.419,149.32,87.611z"/>
</g>
<g id="Layer_1">
</g>
</svg>
