<?xml version="1.0" encoding="iso-8859-1"?>
<!-- Generator: Adobe Illustrator 19.2.0, SVG Export Plug-In . SVG Version: 6.00 Build 0)  -->
<svg version="1.1" xmlns="http://www.w3.org/2000/svg" xmlns:xlink="http://www.w3.org/1999/xlink" x="0px" y="0px"
	 viewBox="0 0 76.609 76.078" style="enable-background:new 0 0 76.609 76.078;" xml:space="preserve">
<g id="Munchner_x5F_Ruck_x5F_74">
	<path style="fill-rule:evenodd;clip-rule:evenodd;" d="M76.184,0.195c0.164,0.86,0.164,2.373,0,3.233
		c-13.34,0.263-27.064,0.27-40.692,0.099c0.242-0.686,0.872-1.17,1.492-1.791c0.35-0.35,1.181-1.43,1.691-1.592
		c0.932-0.295,3.137-0.05,4.228-0.05c8.145-0.001,16.737,0.001,25.271,0c2.294,0,4.205,0.051,6.317,0
		C75.067,0.081,75.689-0.073,76.184,0.195z"/>
	<path style="fill-rule:evenodd;clip-rule:evenodd;" d="M47.033,8.353C38.4,8.588,29.148,8.503,20.021,8.502
		c-6.642,0-13.255,0.107-19.55-0.149c-0.166-0.874-0.162-2.409,0-3.283c1.311-0.25,3.28-0.1,4.925-0.1
		c12.316,0,25.706-0.073,38.354,0c0.739,0.337,1.196,1.046,1.741,1.592C46.032,7.103,46.754,7.573,47.033,8.353z"/>
	<path style="fill-rule:evenodd;clip-rule:evenodd;" d="M76.234,9.895c0.157,0.871,0.167,2.364,0,3.233
		c-16.459,0.262-33.193,0.269-50.293,0.1c-0.101-0.4,0.323-0.708,0.547-0.945c0.262-0.277,0.578-0.529,0.846-0.796
		c0.421-0.421,1.098-1.416,1.741-1.592c0.636-0.173,1.54-0.05,2.289-0.049C46.05,9.847,61.492,9.726,76.234,9.895z"/>
	<path style="fill-rule:evenodd;clip-rule:evenodd;" d="M56.535,18.004c-8.957,0.089-18.036,0.05-27.062,0.05
		c-9.8-0.001-19.948,0.061-29.101-0.1c-0.207-0.794-0.294-2.52,0.05-3.233c16.367-0.053,32.708-0.05,49.597-0.05
		c1.164,0,2.396-0.161,3.233,0.05c0.75,0.188,1.247,1.044,1.791,1.542c0.309,0.283,0.621,0.522,0.896,0.796
		C56.168,17.288,56.607,17.575,56.535,18.004z"/>
	<path style="fill-rule:evenodd;clip-rule:evenodd;" d="M76.334,19.546c0.161,0.875,0.161,2.358,0,3.233
		c-19.66,0.203-40.18,0.233-60.093,0.05c-0.042-0.399,0.339-0.688,0.597-0.945c0.263-0.263,0.57-0.52,0.846-0.796
		c0.432-0.432,1.127-1.37,1.691-1.542c0.639-0.195,1.702-0.071,2.487-0.05c4.001,0.11,8.329-0.001,12.436,0
		C48.238,19.499,62.755,19.422,76.334,19.546z"/>
	<path style="fill-rule:evenodd;clip-rule:evenodd;" d="M66.335,27.655c-21.676,0.187-43.836,0.217-66.112,0
		c-0.14-0.91-0.244-2.312-0.05-3.233c0.518-0.262,1.146-0.149,1.691-0.149c13.859,0.003,27.119-0.002,41.19,0
		c4.845,0.001,9.704,0.222,14.476,0c0.775-0.036,1.849,0,2.836,0c0.98,0,1.861-0.17,2.636,0c0.73,0.161,1.368,1.119,1.841,1.592
		c0.283,0.283,0.573,0.552,0.846,0.845C65.931,26.972,66.331,27.234,66.335,27.655z"/>
	<path style="fill-rule:evenodd;clip-rule:evenodd;" d="M76.383,29.197c0.16,0.864,0.166,2.371,0,3.234
		c-23.412,0.288-46.301,0.22-69.694,0.1c-0.065-0.439,0.364-0.712,0.597-0.945c0.254-0.254,0.562-0.512,0.846-0.796
		c0.453-0.453,1.07-1.419,1.691-1.592c1.043-0.289,3.512-0.049,4.726-0.049c9.379-0.001,18.908,0.001,28.455,0
		C54.097,29.146,65.382,29.063,76.383,29.197z"/>
	<path style="fill-rule:evenodd;clip-rule:evenodd;" d="M76.184,37.306c-12.814,0.125-25.598,0.137-38.105,0.149
		c-11.214,0.011-21.911-0.048-33.23-0.05c-1.56,0-3.13,0.121-4.676-0.149c-0.184-0.91-0.138-2.371,0.05-3.233
		c12.941-0.183,26.109-0.098,39.249-0.1c1.899,0,3.963,0.034,5.721-0.05c2.302-0.109,4.608,0.145,6.915,0.05
		c6.774-0.28,13.804,0.15,20.843-0.05c0.935,0.689,1.813,1.567,2.637,2.438C75.833,36.57,76.236,36.901,76.184,37.306z"/>
	<path style="fill-rule:evenodd;clip-rule:evenodd;" d="M76.383,38.897c0.164,0.844,0.164,2.34,0,3.184
		C54.323,42.346,30.86,42.23,8.132,42.23c-1.474,0-3.322,0.249-4.477-0.049c-0.934-0.242-1.951-1.693-2.587-2.388
		c-0.245-0.268-0.728-0.463-0.646-0.896c11.893-0.27,23.813,0.135,35.668-0.1c2.89-0.057,5.799,0.101,8.705,0
		c2.989-0.103,6.004,0,9.004,0c3.017,0,6.064,0,9.104,0c2.981,0,5.984,0.139,8.954,0C73.331,38.729,75.081,38.673,76.383,38.897z"/>
	<path style="fill-rule:evenodd;clip-rule:evenodd;" d="M69.419,43.673c0.074,0.442-0.396,0.695-0.647,0.945
		c-0.789,0.79-1.545,1.816-2.537,2.438c-10.927,0.109-22.043-0.032-33.23,0c-11.09,0.031-22.058,0.141-32.882-0.1
		c-0.164-0.86-0.164-2.374,0-3.233c2.797-0.287,6.22-0.01,9.402-0.149c1.371-0.06,2.814,0.05,4.228,0.05
		C32.331,43.626,51.249,43.512,69.419,43.673z"/>
	<path style="fill-rule:evenodd;clip-rule:evenodd;" d="M76.433,48.498c0.135,0.919,0.213,2.489,0,3.283
		c-18.987,0.254-39.427,0.149-59.098,0.149c-1.272,0-2.915,0.218-3.88-0.05c-0.679-0.188-1.295-1.096-1.791-1.592
		c-0.292-0.292-0.579-0.58-0.845-0.846c-0.248-0.248-0.723-0.492-0.597-0.945C31.629,48.493,54.577,48.391,76.433,48.498z"/>
	<path style="fill-rule:evenodd;clip-rule:evenodd;" d="M61.012,53.274c0.069,0.432-0.38,0.728-0.646,0.995
		c-0.268,0.268-0.55,0.558-0.846,0.846c-0.484,0.471-1.155,1.411-1.791,1.592c-0.878,0.249-2.377,0.05-3.582,0.05
		c-15.745,0.003-31.512-0.003-47.109,0c-2.363,0-4.663,0.087-6.865-0.149c-0.082-0.949-0.082-2.233,0-3.184
		c0.261-0.206,0.913-0.183,1.244-0.199c2.438-0.115,4.933,0.061,7.412,0c2.482-0.062,4.983,0.049,7.462,0.05
		C31.244,53.275,46.159,53.232,61.012,53.274z"/>
	<path style="fill-rule:evenodd;clip-rule:evenodd;" d="M76.483,58.199c0.156,0.877,0.16,2.363,0.05,3.184
		c-0.938,0.269-2.074,0.149-3.233,0.149c-16.437,0.003-33.294,0.139-49.895,0c-1.156-0.535-1.732-1.65-2.686-2.388
		c-0.111-0.391-0.755-0.498-0.597-0.995c15.005-0.095,30.555-0.048,45.617-0.05c1.811,0,3.647-0.099,5.423-0.05
		C72.956,58.1,74.733,57.893,76.483,58.199z"/>
	<path style="fill-rule:evenodd;clip-rule:evenodd;" d="M51.361,63.024c-0.226,0.798-1.017,1.17-1.493,1.741
		c-0.485,0.583-0.909,1.21-1.592,1.592c-11.978,0.112-23.788-0.002-36.016,0c-4.031,0.001-8.086,0.12-12.038-0.149
		c-0.154-0.873-0.193-2.432,0.05-3.234C17.283,62.928,34.351,62.82,51.361,63.024z"/>
	<path style="fill-rule:evenodd;clip-rule:evenodd;" d="M76.433,67.85c0.261,0.788,0.064,2.197,0.05,3.184
		c-3.379,0.212-7.001,0.149-10.695,0.149c-9.291,0-17.929,0-27.211,0c-1.775,0-3.846,0.299-5.323-0.05
		c-0.732-0.173-1.284-1.035-1.791-1.542c-0.291-0.291-0.579-0.579-0.846-0.845c-0.247-0.247-0.732-0.488-0.597-0.945
		C45.246,67.75,61.313,67.652,76.433,67.85z"/>
	<path style="fill-rule:evenodd;clip-rule:evenodd;" d="M41.81,72.675c0.091,0.441-0.468,0.613-0.647,0.945
		c-0.874,0.784-1.562,1.755-2.537,2.438c-12.638-0.076-25.915,0.171-38.404-0.149c-0.138-0.92-0.228-2.318-0.05-3.233
		c0.245-0.103,0.677-0.155,0.945-0.149C14.333,72.827,28.981,72.336,41.81,72.675z"/>
</g>
<g id="Layer_1">
</g>
</svg>
