<?xml version="1.0" encoding="iso-8859-1"?>
<!-- Generator: Adobe Illustrator 19.2.0, SVG Export Plug-In . SVG Version: 6.00 Build 0)  -->
<svg version="1.1" xmlns="http://www.w3.org/2000/svg" xmlns:xlink="http://www.w3.org/1999/xlink" x="0px" y="0px"
	 viewBox="0 0 80.484 81.509" style="enable-background:new 0 0 80.484 81.509;" xml:space="preserve">
<g id="Museo_x5F_de_x5F_Arte_x5F_Moderno_x5F_Jesus_x5F_Soto">
	<path style="fill-rule:evenodd;clip-rule:evenodd;" d="M79.878,2.579c-3.376-0.252-7.583,0-11.395,0
		c-3.255-0.002-6.524-0.094-9.782-0.053c-16.167,0.203-32.769,0.26-49.429,0.26c-2.413,0-4.679,0.02-7.076,0.053
		C1.485,2.848,0.617,3.091,0.22,2.63c-0.486-1.203,1.193-1.092,2.289-1.092c6.044,0,11.635-0.312,17.534-0.312
		c3.337,0,6.513-0.228,9.989-0.209c1.81,0.012,3.846-0.019,5.828-0.103c1.32-0.057,2.68,0.057,4.006,0
		c6.491-0.273,13.372-0.434,19.979-0.469c2.659-0.014,5.321-0.156,7.961-0.156c2.702,0.002,5.414-0.033,8.064-0.156
		c0.698-0.031,3.458-0.359,4.007,0.156C80.296,0.682,80.158,1.852,79.878,2.579z"/>
	<path style="fill-rule:evenodd;clip-rule:evenodd;" d="M79.93,5.075c0.278,0.525,0.318,1.959-0.104,2.394
		c-1.129-0.029-1.727-0.877-2.757-1.094c-1.618-0.338-3.964-0.004-5.828,0c-2.031,0.006-4.021-0.051-5.932-0.051
		c-5.833-0.002-11.46,0.121-17.378,0.051c-1.977-0.023-3.985-0.062-5.983,0c-4.69,0.147-9.351,0.125-13.892,0.103
		C21.357,6.452,13.76,6.532,6.567,6.532c-1.088,0-2.202-0.117-3.069,0.053C2.353,6.809,1.603,7.792,0.271,7.626
		c-0.381-0.543-0.021-1.234,0.365-1.77c0.273-0.379,0.777-1.201,1.196-1.248c0.613-0.072,0.791,0.647,1.457,0.727
		C9.21,5.237,15.221,4.971,21.292,4.971c7.53,0,15.393-0.469,22.841-0.469c7.375,0,15.287-0.375,22.789-0.416
		c3.072-0.016,6.165-0.014,9.209-0.156c0.321-0.014,1.079-0.086,1.354,0c0.492,0.154,0.429,0.688,0.988,0.988
		C78.971,4.885,79.65,4.762,79.93,5.075z"/>
	<path style="fill-rule:evenodd;clip-rule:evenodd;" d="M79.93,10.018c0.18,0.549,0.438,1.93-0.052,2.342
		c-0.539,0.105-1.015-0.27-1.457-0.469c-1.34-0.602-2.665-1.357-4.11-1.926c-15.647-0.068-31.508,0.205-46.724,0.209
		c-3.538,0-7.358-0.098-10.874,0c-2.661,0.074-5.401,0-8.117,0c-0.92,0-1.888-0.096-2.653,0.053
		c-1.078,0.205-1.852,0.861-2.809,1.299c-0.997,0.242-1.812,1.199-2.913,0.99c-0.559-1.301,0.878-1.875,1.508-2.498
		C2.383,9.823,3.314,8.21,4.121,8.145c0.624-0.051,0.804,0.619,1.457,0.729c13.782-0.4,27.985-0.312,42.249-0.885
		c2.567-0.104,5.187,0.021,7.805-0.053c4.506-0.125,8.928-0.074,13.371-0.311c1.838-0.1,3.689,0.107,5.464-0.053
		c0.446-0.041,0.771-0.021,0.988,0.363c0.148,0.266,0.068,0.537,0.364,0.781c0.427,0.354,1.391,0.377,2.133,0.572
		C78.805,9.514,79.401,9.62,79.93,10.018z"/>
	<path style="fill-rule:evenodd;clip-rule:evenodd;" d="M72.854,11.216c0.7,0.342,0.251,0.902,0.729,1.301
		c0.271,0.225,1.058,0.457,1.613,0.623c0.556,0.168,1.187,0.299,1.716,0.469c0.973,0.312,2.758,0.643,3.123,1.301
		c0.252,0.457,0.302,1.916-0.156,2.342c-0.767-0.008-1.411-0.504-2.082-0.832c-1.263-0.621-2.593-1.283-3.902-1.926
		c-0.656-0.322-1.411-0.74-2.081-0.832c-1.029-0.142-2.234-0.012-3.382,0c-3.135,0.031-6.857-0.207-9.886,0
		c-4.416,0.301-8.978,0.051-13.319,0.051c-6.819,0.002-13.141,0.106-19.928,0.106c-4.038-0.002-7.411,0-11.551,0
		c-1.809,0-3.708-0.215-5.203,0.051c-1.441,0.258-2.798,1.225-4.162,1.873c-0.625,0.297-1.273,0.615-2.029,0.988
		c-0.521,0.26-1.672,0.986-2.082,0.572c-0.655-0.66,0.486-1.51,0.938-1.82c1.771-1.217,3.61-2.641,5.411-3.642
		c0.725,0.154,0.869,0.68,1.456,0.781c0.951,0.162,2.201-0.086,3.383-0.103c2.388-0.037,4.465,0.113,6.764-0.053
		c1.139-0.082,2.265-0.104,3.33-0.104c2.238,0,4.513-0.156,6.764-0.156c6.653-0.002,13.448-0.469,20.136-0.469
		c6.396,0,12.39-0.363,18.627-0.363c0.854,0,1.693-0.066,2.55-0.105C70.763,11.216,71.821,11.331,72.854,11.216z"/>
	<path style="fill-rule:evenodd;clip-rule:evenodd;" d="M70.565,15.012c0.386,0.256,0.149,0.897,0.468,1.25
		c0.396,0.438,1.64,0.662,2.289,0.885c0.862,0.293,1.557,0.582,2.29,0.832c1.724,0.586,3.379,0.922,4.475,1.82
		c0.142,0.619,0.382,2.025-0.156,2.394c-0.525,0.156-0.979-0.205-1.405-0.418c-2.934-1.461-5.913-2.961-9.053-4.266
		C55.1,17.38,40.2,17.663,25.818,17.667c-3.731,0-7.454-0.191-11.135-0.053c-1.245,0.047-2.678-0.078-3.746,0.105
		c-0.926,0.156-1.825,0.754-2.705,1.195c-1.737,0.873-3.482,1.613-5.203,2.498c-0.852,0.438-1.711,1.047-2.706,1.041
		c-0.708-1.205,0.529-1.926,1.249-2.342c2.119-1.223,4.023-2.482,6.191-3.85c0.44-0.279,0.982-0.66,1.301-0.678
		c0.672-0.033,0.876,0.598,1.405,0.728c0.769,0.193,1.93,0.064,2.913,0c2.809-0.182,6.195-0.207,9.105-0.207
		c2.036,0,4.063-0.156,6.087-0.156c2.035,0,4.096-0.014,6.088-0.103c3.935-0.18,8.054-0.195,12.071-0.365
		c1.988-0.084,3.96-0.062,5.88-0.156c2.012-0.098,3.981-0.027,5.879-0.104c3.352-0.135,7.185,0.012,10.302-0.26
		C69.386,14.909,70.011,14.844,70.565,15.012z"/>
	<path style="fill-rule:evenodd;clip-rule:evenodd;" d="M68.275,18.811c0.284,0.254-0.025,0.812,0.209,1.145
		c2.835,1.234,6.013,2.338,9.001,3.486c0.95,0.365,2.056,0.602,2.653,1.457c0.025,0.693,0.264,2.025-0.26,2.342
		c-0.632,0.074-1.153-0.377-1.665-0.625c-0.531-0.258-1.046-0.533-1.562-0.781c-3.117-1.49-6.23-3.209-9.573-4.578
		c-16.541-0.113-34.445,0.176-50.989,0.053c-0.811-0.006-1.758-0.045-2.55,0.104c-0.561,0.105-1.128,0.449-1.717,0.728
		c-3.332,1.578-6.586,3.143-9.886,4.734c-0.498,0.24-1.032,0.744-1.666,0.521c-0.661-1.481,1.086-2.016,2.029-2.602
		c2.502-1.555,4.993-3.053,7.597-4.684c0.454-0.285,1.156-0.869,1.562-0.885c0.673-0.027,0.945,0.793,1.509,0.832
		c13.233-0.084,27.117-0.902,40.636-0.988c1.543-0.01,3.089-0.213,4.631-0.207c1.582,0.006,3.126-0.113,4.683-0.156
		c1.299-0.037,2.567,0.061,3.85,0C67.211,18.686,67.885,18.54,68.275,18.811z"/>
	<path style="fill-rule:evenodd;clip-rule:evenodd;" d="M65.673,22.557c0.314,0.172,0.136,0.836,0.312,1.145
		c1.023,0.633,2.318,1.041,3.59,1.51c2.97,1.094,5.926,2.369,9.002,3.643c0.625,0.258,1.313,0.529,1.509,0.988
		c0.272,0.637,0.187,1.869-0.156,2.393c-0.764-0.057-1.404-0.524-2.081-0.832c-1.925-0.879-3.748-1.943-5.724-2.861
		c-1.237-0.576-2.552-1.172-3.902-1.822c-1.197-0.576-2.684-1.523-3.954-1.769c-1.134-0.217-2.907-0.051-4.318-0.051
		c-10.507,0-20.474,0.039-31.219,0c-3.053-0.012-6.312,0.287-9.625,0.156c-1.128-0.045-2.297-0.188-3.278-0.053
		c-0.613,0.084-1.296,0.58-1.977,0.885c-3.976,1.773-7.66,3.715-11.552,5.566c-0.602,0.287-1.282,0.744-1.976,0.625
		c-0.624-0.867,0.21-1.42,0.78-1.77C2.922,29.2,4.8,28.134,6.567,27.032c2.43-1.516,4.929-2.982,7.337-4.318
		c0.725,0.154,0.797,0.764,1.404,0.885c0.72,0.143,1.749,0.043,2.653,0c2.631-0.125,5.486-0.027,7.961-0.156
		c5.916-0.311,11.527-0.139,17.326-0.469c6.557-0.373,13.384-0.152,20.188-0.469C64.159,22.471,64.973,22.344,65.673,22.557z"/>
	<path style="fill-rule:evenodd;clip-rule:evenodd;" d="M63.28,26.356c0.262,0.283-0.1,0.873,0.156,1.145
		c1.168,0.795,2.71,1.287,4.162,1.873c3.526,1.422,7.026,2.865,10.666,4.369c0.609,0.252,1.664,0.646,1.873,1.094
		c0.281,0.604,0.186,1.85-0.156,2.342c-0.867-0.02-1.595-0.533-2.341-0.885c-2.189-1.029-4.359-2.308-6.66-3.33
		c-3.044-1.379-5.927-2.918-9.001-4.266c-9.318-0.078-19.656,0-29.138,0c-3.35,0-5.902,0-9.313,0c-1.803,0-3.839-0.252-5.358,0.051
		c-0.727,0.145-1.525,0.633-2.289,0.988c-4.439,2.072-8.831,4.328-13.216,6.453c-0.736,0.356-1.449,0.869-2.29,0.885
		c-0.768-0.996,0.216-1.598,0.885-1.979c0.707-0.402,1.511-0.936,2.134-1.248c3.551-2.029,7.573-4.324,11.29-6.504
		c0.426-0.25,1.278-0.836,1.665-0.832c0.723,0.006,0.831,0.812,1.457,0.935c0.661,0.133,1.989-0.016,2.81-0.051
		c2.653-0.121,5.699-0.26,8.325-0.262c3.765,0,7.495-0.312,11.082-0.31c3.667,0,7.359-0.229,10.978-0.365
		c3.812-0.143,7.566-0.166,11.134-0.26C62.518,26.19,62.949,26.091,63.28,26.356z"/>
	<path style="fill-rule:evenodd;clip-rule:evenodd;" d="M60.782,29.999c0.347,0.172,0.068,0.971,0.364,1.195
		c2.971,1.545,6.209,2.602,9.626,4.111c2.403,1.06,4.719,1.98,7.232,3.068c0.635,0.275,1.874,0.695,2.133,1.25
		c0.192,0.414,0.203,2.062-0.156,2.289c-0.448,0.283-1.978-0.676-2.602-0.988c-0.938-0.473-1.73-0.805-2.549-1.197
		c-0.421-0.201-0.776-0.531-1.197-0.729c-3.797-1.779-7.604-3.562-11.446-5.463c-0.854-0.422-1.775-0.982-2.601-1.145
		c-1.177-0.23-2.685-0.053-4.11-0.053c-10.281,0.002-20.969-0.008-30.646,0.053c-1.372,0.008-2.979-0.207-4.109,0
		c-0.837,0.152-1.814,0.719-2.654,1.092c-4.269,1.896-8.457,4.125-12.644,6.088c-0.833,0.391-1.653,0.846-2.497,1.25
		c-0.812,0.387-1.666,0.965-2.654,0.936c-0.648-1.229,0.573-1.754,1.302-2.133c2.488-1.301,4.849-2.623,7.336-4.059
		c1.512-0.873,3.183-1.771,4.839-2.758c0.998-0.594,2.431-1.326,3.694-2.029c0.434-0.242,0.884-0.619,1.249-0.625
		c0.722-0.012,0.845,0.639,1.456,0.781c1.336,0.312,3.364-0.014,4.943-0.051c1.719-0.043,3.471-0.082,4.942-0.105
		c5.037-0.076,9.662-0.256,14.673-0.469c4.892-0.207,9.976-0.139,14.829-0.363C59.878,29.93,60.429,29.786,60.782,29.999z"/>
	<path style="fill-rule:evenodd;clip-rule:evenodd;" d="M58.337,33.639c0.314,0.154,0.142,0.795,0.261,1.144
		c1.578,0.982,3.533,1.629,5.358,2.498c1.76,0.838,3.701,1.486,5.567,2.289c2.625,1.129,5.463,2.354,8.221,3.539
		c0.848,0.363,2.144,0.736,2.445,1.455c0.24,0.576,0.264,1.992-0.208,2.342c-0.55,0.086-1.056-0.307-1.509-0.52
		c-1.389-0.652-2.784-1.305-4.162-2.082c-1.784-1.006-3.758-1.766-5.672-2.705c-3.077-1.512-6.558-3.314-9.833-4.787
		c-0.703-0.314-1.239-0.654-2.082-0.729c-1.342-0.117-2.767,0.053-4.214,0.053c-7.042,0.002-14.356,0.027-21.125,0
		c-1.382-0.006-2.81,0.096-4.214,0.053c-1.404-0.045-3-0.205-4.162,0c-0.952,0.166-1.963,0.832-2.914,1.301
		c-0.941,0.461-1.921,0.922-2.81,1.352c-4.846,2.35-9.296,4.473-14.048,6.816c-0.934,0.461-1.885,1.102-2.967,1.094
		c-0.65-1.355,0.794-1.898,1.613-2.342c6.4-3.469,12.867-7.186,19.304-10.562c0.722,0.094,0.862,0.768,1.509,0.936
		C34.626,34.413,46.582,33.827,58.337,33.639z"/>
	<path style="fill-rule:evenodd;clip-rule:evenodd;" d="M55.892,37.438c0.234,0.172,0.105,0.84,0.312,1.145
		c0.363,0.537,2.26,1.107,2.966,1.404c3.11,1.318,5.917,2.617,9.104,3.955c2.944,1.234,6.088,2.541,9.158,3.902
		c0.772,0.344,2.475,0.922,2.757,1.561c0.25,0.564,0.21,1.938-0.155,2.445c-0.61,0.119-1.164-0.322-1.666-0.572
		c-5.664-2.816-11.268-5.51-17.065-8.377c-1.006-0.498-2.065-1.016-3.122-1.51c-1.058-0.492-2.139-1.188-3.174-1.455
		c-1.188-0.309-3.023-0.053-4.526-0.053c-3.416,0-6.942-0.053-10.458-0.053c-2.298,0.002-4.703,0.15-7.024,0.053
		c-2.329-0.098-4.778-0.26-6.972-0.053c-1.212,0.115-2.573,0.984-3.746,1.561c-6.688,3.293-13.589,6.568-20.344,9.783
		c-0.491,0.232-1.089,0.594-1.666,0.416c-0.707-1.533,1.066-1.936,1.926-2.395c3.019-1.605,6.206-3.301,9.157-4.994
		c3.399-1.951,7.1-3.734,10.719-5.775c0.489-0.275,1.144-0.781,1.561-0.779c0.691,0,0.865,0.725,1.457,0.832
		c0.474,0.084,1.23-0.033,1.873-0.053c4.278-0.133,8.309-0.18,12.592-0.469c3.582-0.24,7.222-0.174,10.77-0.416
		C52.302,37.407,54.151,37.325,55.892,37.438z"/>
	<path style="fill-rule:evenodd;clip-rule:evenodd;" d="M0.22,56.481c-0.5-1.635,1.455-1.984,2.392-2.498
		c5.589-3.053,11.104-5.996,16.702-9.053c2.237-1.223,4.423-2.562,6.764-3.539c0.76,0.021,0.878,0.684,1.509,0.834
		c8.006-0.287,15.979-0.678,23.83-1.041c0.614-0.029,1.348-0.17,1.925,0.053c0.354,0.107,0.226,0.785,0.469,1.092
		c0.255,0.322,1.079,0.529,1.665,0.781c1.663,0.713,3.384,1.607,4.942,2.289c5.597,2.445,11.176,4.713,16.806,7.336
		c0.894,0.416,2.761,1.041,3.019,1.77c0.203,0.574,0.15,1.98-0.261,2.289c-0.67,0.035-1.267-0.41-1.821-0.676
		c-8.561-4.119-17.215-8.529-25.963-12.541c-7.384,0.01-14.107-0.02-21.28,0.053c-1.009,0.01-2.092-0.08-3.017,0.053
		c-0.971,0.139-2.587,1.16-3.486,1.613c-1.225,0.615-2.392,1.082-3.486,1.611c-4.752,2.301-9.104,4.426-13.735,6.66
		c-1.723,0.832-3.415,1.605-5.203,2.445C1.466,56.259,0.854,56.794,0.22,56.481z"/>
	<path style="fill-rule:evenodd;clip-rule:evenodd;" d="M30.189,46.022c6.837-0.256,13.194-0.777,19.876-1.092
		c0.253-0.012,0.549-0.108,0.832,0.103c0.254,0.189,0.144,0.76,0.364,1.094c0.231,0.346,1.154,0.609,1.77,0.885
		c7.927,3.539,15.796,6.856,23.726,10.404c1.026,0.461,3.049,1.016,3.434,1.77c0.216,0.422,0.335,1.785-0.104,2.445
		c-0.715,0.135-1.339-0.387-1.926-0.676c-1.837-0.908-3.687-1.885-5.566-2.758c-6.91-3.207-13.596-6.592-20.604-9.938
		c-0.78-0.373-1.519-0.836-2.342-0.936c-0.764-0.094-1.648-0.039-2.445-0.053c-3.773-0.07-7.928,0.051-12.019,0.053
		c-1.633,0-3.372-0.18-4.787,0.104c-0.545,0.107-1.312,0.512-1.976,0.832c-6.904,3.334-13.573,6.562-20.552,9.887
		c-1.865,0.887-3.672,1.799-5.619,2.705c-0.727,0.338-1.628,0.828-1.979,0.572C-0.472,60.882,0.494,59.975,1,59.708
		c6.824-3.631,13.465-7.176,20.239-10.771c1.746-0.926,3.646-1.912,5.516-2.914c0.557-0.297,1.525-0.891,1.925-0.883
		C29.389,45.151,29.525,45.946,30.189,46.022z"/>
	<path style="fill-rule:evenodd;clip-rule:evenodd;" d="M48.4,48.78c0.312,0.209,0.203,0.838,0.416,1.146
		c5.063,2.516,10.386,4.625,15.817,7.18c2.534,1.192,5.229,2.393,7.961,3.537c1.885,0.791,3.896,1.674,5.931,2.654
		c0.685,0.328,1.556,0.637,1.77,1.092c0.143,0.305,0.316,2.059-0.208,2.289c-0.414,0.182-1.52-0.539-2.081-0.832
		c-2.034-1.061-4.095-2.043-6.036-3.018c-2.839-1.426-5.583-2.508-8.169-3.85c-4.541-2.357-9.41-4.594-14.152-6.92
		c-0.697-0.344-1.402-0.797-2.029-0.938c-0.665-0.148-1.401-0.049-2.185-0.051c-3.011-0.012-5.937-0.002-9.054,0
		c-1.224,0-2.624-0.139-3.59,0.051c-0.644,0.127-1.362,0.594-2.081,0.938c-4.719,2.246-9.363,4.648-14.152,6.814
		c-4.68,2.117-9.499,4.531-14.152,6.816c-0.629,0.311-1.385,0.775-2.134,0.625c-0.569-0.83,0.354-1.418,0.938-1.717
		c7.379-3.795,14.573-7.713,21.904-11.551c2.667-1.396,5.223-2.988,7.961-4.162c0.494,0.006,0.842,0.703,1.404,0.832
		c0.954,0.219,2.497-0.055,3.799-0.156c3.481-0.271,7.979-0.463,11.187-0.832C47.688,48.704,48.086,48.624,48.4,48.78z"/>
	<path style="fill-rule:evenodd;clip-rule:evenodd;" d="M45.901,52.682c0.251,0.189,0.1,0.785,0.312,1.094
		c0.259,0.373,1.506,0.754,2.134,1.039c7.885,3.588,15.543,7.168,23.569,10.772c2.114,0.949,4.17,1.928,6.399,2.965
		c0.726,0.338,1.696,0.748,1.926,1.197c0.258,0.506,0.322,1.984-0.156,2.342c-0.444,0.178-0.839-0.18-1.196-0.365
		c-9.637-4.975-19.394-9.721-29.242-14.672c-0.707-0.355-1.446-0.75-2.185-1.092c-0.915-0.426-1.62-0.896-2.55-1.146
		c-1.504-0.016-3.026,0.01-4.578,0c-1.6-0.008-3.471-0.273-4.943,0c-0.737,0.139-1.486,0.617-2.289,0.99
		c-5.121,2.371-10.217,5.101-15.35,7.336c-2.947,1.283-5.823,2.852-8.74,4.215c-2.603,1.215-5.026,2.469-7.701,3.643
		c-0.348,0.15-0.788,0.471-1.145,0.051c-0.344-1.092,0.734-1.404,1.353-1.717c4.942-2.49,9.836-5.27,14.881-7.805
		c4.198-2.109,8.524-4.371,12.8-6.66c0.588-0.315,1.346-0.709,2.081-1.145c0.599-0.354,1.585-1.094,2.133-1.092
		c0.681,0,0.811,0.664,1.457,0.779C38.636,53.325,42.265,52.552,45.901,52.682z"/>
	<path style="fill-rule:evenodd;clip-rule:evenodd;" d="M43.404,56.272c0.388,0.1,0.172,0.801,0.364,1.094
		c1.381,0.879,2.96,1.502,4.526,2.186c7.734,3.375,15.22,7.037,23.102,10.406c2.207,0.943,4.489,2.068,6.868,3.174
		c0.724,0.336,1.812,0.791,2.029,1.301c0.215,0.502,0.215,1.766-0.156,2.133c-0.917,0.049-1.687-0.584-2.445-0.938
		c-2.33-1.084-4.597-2.367-6.973-3.434c-3.131-1.406-6.195-3.012-9.312-4.578c-4.554-2.289-9.316-4.441-14.049-6.764
		c-0.714-0.35-1.529-0.773-2.342-1.145c-0.867-0.396-1.784-0.988-2.6-1.094c-0.532-0.068-1.334,0.039-2.134,0
		c-0.986-0.047-1.835-0.105-2.549,0.053c-0.796,0.176-1.652,0.609-2.498,0.988c-2.291,1.029-4.71,2.348-6.92,3.434
		c-7.812,3.838-15.538,7.461-23.361,11.188c-0.761,0.361-1.497,0.793-2.289,1.145C1.914,75.753,1.131,76.362,0.22,76.2
		c-0.601-1.166,0.593-1.572,1.3-1.924c3.911-1.945,7.466-4.164,11.394-6.037c0.765-0.363,1.542-0.789,2.29-1.195
		c0.776-0.422,1.588-0.742,2.341-1.145c3.017-1.617,6.02-3.313,9.105-4.84c1.527-0.754,3.132-1.504,4.579-2.393
		c1.476-0.906,3.036-1.709,4.631-2.342c0.661-0.019,0.764,0.715,1.404,0.832c0.713,0.133,1.882-0.195,2.81-0.363
		C41.306,56.569,42.228,56.35,43.404,56.272z"/>
	<path style="fill-rule:evenodd;clip-rule:evenodd;" d="M80.138,81.509c-0.94-0.146-1.782-0.688-2.601-1.094
		c-2.462-1.219-4.931-2.408-7.441-3.642c-1.644-0.807-3.337-1.559-4.995-2.393c-4.844-2.436-9.793-4.953-14.881-7.285
		c-2.358-1.08-4.941-2.365-7.492-3.59c-0.819-0.393-1.909-1.098-2.601-1.092c-0.675,0.006-1.778,0.695-2.602,1.092
		c-5.8,2.791-11.642,5.521-17.326,8.377c-3.312,1.664-6.728,3.096-9.99,4.736c-2.468,1.24-4.931,2.375-7.44,3.59
		c-0.788,0.381-1.6,1.023-2.549,0.883c-0.534-1.24,0.772-1.586,1.456-1.924c2.438-1.205,4.888-2.594,7.284-3.799
		c9.708-4.881,19.332-10.156,29.085-15.088c0.71-0.359,0.883,0.424,1.613,0.52c0.353,0.047,0.734-0.189,1.041-0.156
		c0.472,0.051,0.874,0.57,1.3,0.781c3.198,1.58,6.499,2.779,9.73,4.318c6.21,2.957,12.831,5.91,19.251,8.793
		c2.347,1.053,4.729,2.178,7.18,3.33c0.878,0.412,1.938,0.717,2.185,1.301C80.599,79.764,80.489,80.966,80.138,81.509z"/>
</g>
<g id="Layer_1">
</g>
</svg>
