<?xml version="1.0" encoding="iso-8859-1"?>
<!-- Generator: Adobe Illustrator 19.2.0, SVG Export Plug-In . SVG Version: 6.00 Build 0)  -->
<svg version="1.1" xmlns="http://www.w3.org/2000/svg" xmlns:xlink="http://www.w3.org/1999/xlink" x="0px" y="0px"
	 viewBox="0 0 77.043 49.868" style="enable-background:new 0 0 77.043 49.868;" xml:space="preserve">
<g id="Museo_x5F_de_x5F_Artes_x5F_Visuales_x5F_de_x5F_Chacabuco">
	<path style="fill-rule:evenodd;clip-rule:evenodd;" d="M22.719,0c0.382,0.138,0.826,1.486,1.109,2.121
		c2.271,5.089,4.236,10.458,6.459,15.473c2.273,5.13,4.334,10.211,6.556,15.377c0.299,0.695,0.555,1.48,1.061,2.072
		c0.583-0.385,0.657-1.303,0.915-2.024c2.824-7.867,5.29-16.173,8.098-24.149c0.515-1.463,1-2.925,1.495-4.386
		c0.485-1.435,0.964-2.88,1.59-4.242c0.473,0.306,0.625,0.927,0.819,1.397c1.465,3.544,3.06,7.111,4.531,10.701
		c3.771,9.197,7.808,18.365,11.714,27.476c0.866,2.02,1.724,4.025,2.603,6.073c0.427,0.992,0.764,2.052,1.398,2.941
		c1.411,0.042,3.23,0.097,4.771,0.097c0.44,0,1.146-0.144,1.205,0.386c0,0.048,0,0.096,0,0.145
		c-0.031,0.562-0.729,0.386-1.061,0.386c-6.737-0.001-13.449-0.051-20.004-0.048c-0.324,0-0.969,0.154-1.012-0.387
		c0-0.031,0-0.063,0-0.096c-0.013-0.585,0.715-0.434,1.156-0.434c1.431,0,3.34,0.073,4.579-0.097
		c0.052-0.604-0.25-1.196-0.481-1.735c-3.39-7.914-6.887-15.812-10.268-23.812c-0.457-1.791-1.302-3.364-1.976-5.013
		c-0.295-0.722-0.577-1.464-0.868-2.169c-0.289-0.699-0.47-1.485-1.012-2.024c-0.538,0.581-0.642,1.404-0.868,2.121
		c-2.532,8.052-5.551,16.172-8.146,24.245c-0.948,2.947-1.855,5.906-3.037,8.725c-0.485-0.494-0.706-1.212-0.964-1.831
		c-1.625-3.894-3.352-7.827-5.013-11.762c-0.265-0.628-0.531-1.274-0.915-1.832c-4.764-0.128-10.121-0.243-14.991-0.048
		c-1.128,2.301-1.698,4.94-2.506,7.472c-0.804,2.517-1.836,4.947-2.41,7.423c0.67,0.333,1.894,0.193,3.037,0.193
		c0.466,0,1.082-0.011,1.591,0c0.457,0.009,1.093-0.031,0.964,0.626c-0.176,0.534-0.933,0.338-1.446,0.338
		c-2.958,0-5.431-0.049-8.532-0.049c-0.718,0-3.072,0.33-2.844-0.627c0.134-0.563,2.289-0.337,2.988-0.337c1.24,0,2.037,0.1,3.085,0
		c0.708-0.726,0.847-1.81,1.157-2.748c0.622-1.88,1.328-3.778,1.976-5.735c0.322-0.972,0.711-1.938,0.964-2.892
		c0.078-0.295,0.065-0.626,0.144-0.915c0.204-0.746,0.521-1.512,0.771-2.267c0.738-2.228,1.518-4.546,2.314-6.796
		c1.071-3.025,1.987-6.113,3.037-9.11c2.125-6.066,3.985-12.18,6.17-18.076C22.62,0.062,22.658,0.019,22.719,0z M18.621,14.22
		c-0.536,1.439-1.05,3.018-1.59,4.531c-1.349,3.778-2.562,7.664-3.808,11.376c-0.258,0.768-0.633,1.529-0.627,2.361
		c1.083,0.263,2.297,0.145,3.471,0.145c2.457,0.001,4.83,0.015,7.086,0.049c1.194,0.018,2.387,0.099,3.471-0.145
		c-0.119-0.854-0.536-1.638-0.868-2.41c-2.319-5.398-4.523-10.74-6.893-16.052c-0.032,0-0.065,0-0.097,0
		C18.697,14.102,18.648,14.15,18.621,14.22z"/>
</g>
<g id="Layer_1">
</g>
</svg>
