<?xml version="1.0" encoding="iso-8859-1"?>
<!-- Generator: Adobe Illustrator 21.0.2, SVG Export Plug-In . SVG Version: 6.00 Build 0)  -->
<svg version="1.1" xmlns="http://www.w3.org/2000/svg" xmlns:xlink="http://www.w3.org/1999/xlink" x="0px" y="0px"
	 viewBox="0 0 34.388 34.805" style="enable-background:new 0 0 34.388 34.805;" xml:space="preserve">
<g id="Musiikkitalo_x5F_Helsinki_x5F_Music_x5F_Centre">
	<path d="M17.161,0.002c0.66-0.052,1.201,0.758,0.828,1.331c-0.286,0.59-1.235,0.648-1.554,0.062
		C16.077,0.841,16.495,0.014,17.161,0.002z"/>
	<path d="M13.748,0.362c1.161-0.143,1.267,1.765,0.121,1.807C12.719,2.295,12.615,0.4,13.748,0.362z"/>
	<path d="M20.509,0.367c1.2-0.18,1.301,1.816,0.118,1.814C19.521,2.226,19.439,0.482,20.509,0.367z"/>
	<path d="M10.395,1.455c0.786-0.224,1.346,0.841,0.857,1.43C10.886,3.454,9.942,3.26,9.74,2.646
		C9.516,2.153,9.883,1.555,10.395,1.455z"/>
	<path d="M23.704,1.457c1.137-0.284,1.497,1.64,0.337,1.765C22.921,3.484,22.583,1.626,23.704,1.457z"/>
	<path d="M15.346,2.12c0.544-0.263,1.238,0.232,1.184,0.827c0.031,0.639-0.806,1.09-1.318,0.689
		C14.671,3.29,14.755,2.364,15.346,2.12z"/>
	<path d="M18.397,2.115c1.041-0.452,1.671,1.283,0.608,1.619C17.975,4.162,17.395,2.474,18.397,2.115z"/>
	<path d="M12.583,2.696c1.07-0.236,1.396,1.518,0.329,1.698C11.815,4.655,11.477,2.861,12.583,2.696z"/>
	<path d="M21.374,2.749c1.033-0.437,1.661,1.282,0.605,1.616C20.948,4.815,20.318,3.088,21.374,2.749z"/>
	<path d="M7.27,3.208c1.084-0.478,1.72,1.355,0.62,1.693C6.817,5.341,6.185,3.57,7.27,3.208z"/>
	<path d="M26.687,3.199c1.16-0.271,1.453,1.72,0.265,1.768C25.843,5.179,25.58,3.324,26.687,3.199z"/>
	<path d="M9.966,3.928c1.102-0.155,1.219,1.704,0.118,1.728C8.944,5.805,8.802,3.911,9.966,3.928z"/>
	<path d="M16.874,3.938c0.987-0.498,1.601,1.235,0.552,1.491C16.514,5.762,15.999,4.289,16.874,3.938z"/>
	<path d="M24.144,4.008c1-0.471,1.669,1.208,0.658,1.591C23.786,6.099,23.106,4.364,24.144,4.008z"/>
	<path d="M14.476,4.153c1.019-0.187,1.206,1.514,0.191,1.587C13.666,5.894,13.485,4.241,14.476,4.153z"/>
	<path d="M19.778,4.151c1.025-0.122,1.119,1.59,0.096,1.601C18.864,5.83,18.779,4.204,19.778,4.151z"/>
	<path d="M11.778,5.015c0.962-0.428,1.539,1.205,0.55,1.499C11.377,6.928,10.832,5.323,11.778,5.015z"/>
	<path d="M22.107,5.025c1.009-0.391,1.494,1.317,0.457,1.525C21.609,6.869,21.165,5.267,22.107,5.025z"/>
	<path d="M4.723,5.514c1.089-0.454,1.696,1.355,0.61,1.704C4.24,7.682,3.629,5.859,4.723,5.514z"/>
	<path d="M29.158,5.53c0.663-0.194,1.312,0.548,1.041,1.179c-0.171,0.625-1.088,0.808-1.481,0.294
		C28.268,6.544,28.534,5.67,29.158,5.53z"/>
	<path d="M7.342,5.745C7.864,5.591,8.411,6.04,8.381,6.576c0.027,0.631-0.745,1.097-1.286,0.749
		C6.433,6.996,6.609,5.855,7.342,5.745z"/>
	<path d="M15.847,5.727c0.857-0.316,1.262,1.124,0.41,1.359C15.389,7.399,14.965,5.952,15.847,5.727z"/>
	<path d="M18.104,5.742c0.82-0.359,1.34,1.011,0.519,1.314C17.764,7.487,17.239,6.027,18.104,5.742z"/>
	<path d="M26.835,5.747c1.143-0.129,1.177,1.797,0.043,1.733C25.818,7.49,25.781,5.789,26.835,5.747z"/>
	<path d="M13.671,6.187c0.45-0.112,0.907,0.302,0.834,0.761c0.008,0.593-0.836,0.854-1.211,0.426
		C12.927,6.994,13.141,6.272,13.671,6.187z"/>
	<path d="M20.293,6.256c0.839-0.462,1.44,0.982,0.575,1.294C20.057,7.915,19.506,6.603,20.293,6.256z"/>
	<path d="M9.527,6.336c0.505-0.164,1.11,0.203,1.095,0.758c0.033,0.588-0.682,0.999-1.187,0.729
		C8.807,7.577,8.858,6.497,9.527,6.336z"/>
	<path d="M24.578,6.328c0.985-0.153,1.189,1.496,0.195,1.588C23.755,8.099,23.546,6.387,24.578,6.328z"/>
	<path d="M11.56,7.126c0.884-0.22,1.196,1.24,0.299,1.387C10.989,8.763,10.713,7.275,11.56,7.126z"/>
	<path d="M22.612,7.133c0.905-0.177,1.118,1.358,0.195,1.402C21.906,8.714,21.707,7.214,22.612,7.133z"/>
	<path d="M16.944,7.275c0.811-0.38,1.286,0.985,0.457,1.235C16.626,8.791,16.185,7.554,16.944,7.275z"/>
	<path d="M14.978,7.491c1.016-0.454,1.222,1.436,0.15,1.242C14.513,8.663,14.412,7.707,14.978,7.491z"/>
	<path d="M18.905,7.493c0.41-0.215,0.979,0.152,0.907,0.622c0.047,0.513-0.629,0.819-1.017,0.52
		C18.398,8.372,18.449,7.663,18.905,7.493z"/>
	<path d="M5.306,7.999c0.66-0.171,1.251,0.572,0.979,1.182c-0.197,0.609-1.11,0.705-1.47,0.201C4.428,8.918,4.704,8.11,5.306,7.999z
		"/>
	<path d="M13.161,8.074c0.84-0.3,1.178,1.115,0.341,1.27C12.719,9.568,12.405,8.287,13.161,8.074z"/>
	<path d="M20.943,8.068c0.848-0.19,1.047,1.243,0.196,1.307C20.327,9.518,20.132,8.166,20.943,8.068z"/>
	<path d="M28.648,8.066c1.059-0.4,1.568,1.404,0.488,1.664C28.109,10.045,27.617,8.341,28.648,8.066z"/>
	<path d="M7.559,8.128c1-0.399,1.455,1.32,0.443,1.539C7.052,9.939,6.606,8.394,7.559,8.128z"/>
	<path d="M26.397,8.151c1.016-0.358,1.433,1.382,0.4,1.539C25.83,9.962,25.446,8.37,26.397,8.151z"/>
	<path d="M2.764,8.294c1.136-0.388,1.586,1.526,0.46,1.749C2.132,10.354,1.684,8.563,2.764,8.294z"/>
	<path d="M31.33,8.298c1.131-0.106,1.275,1.763,0.133,1.813C30.301,10.24,30.159,8.337,31.33,8.298z"/>
	<path d="M9.6,8.519c0.884-0.39,1.454,1.04,0.549,1.341C9.299,10.229,8.726,8.823,9.6,8.519z"/>
	<path d="M24.436,8.516c0.914-0.251,1.184,1.323,0.253,1.396C23.827,10.076,23.574,8.663,24.436,8.516z"/>
	<path d="M11.352,9.102c0.865-0.454,1.364,1.139,0.393,1.24C11.026,10.525,10.769,9.4,11.352,9.102z"/>
	<path d="M22.613,9.09c0.833-0.28,1.177,1.118,0.334,1.272C22.148,10.605,21.785,9.257,22.613,9.09z"/>
	<path d="M6.183,10.251c0.534-0.068,1.026,0.53,0.817,1.041c-0.156,0.585-1.027,0.774-1.377,0.263
		C5.236,11.085,5.562,10.273,6.183,10.251z"/>
	<path d="M8.067,10.242c0.902-0.401,1.352,1.171,0.417,1.362C7.661,11.865,7.276,10.504,8.067,10.242z"/>
	<path d="M25.887,10.261c0.892-0.321,1.334,1.129,0.436,1.366C25.469,11.93,25.077,10.522,25.887,10.261z"/>
	<path d="M27.923,10.326c0.952-0.385,1.48,1.232,0.51,1.519C27.471,12.219,26.972,10.6,27.923,10.326z"/>
	<path d="M10.033,10.4c0.89-0.3,1.165,1.219,0.271,1.303C9.496,11.86,9.212,10.549,10.033,10.4z"/>
	<path d="M24.203,10.405c0.817-0.116,0.993,1.216,0.178,1.313C23.533,11.902,23.341,10.458,24.203,10.405z"/>
	<path d="M3.704,10.681c1.002-0.422,1.602,1.288,0.54,1.558C3.223,12.65,2.67,10.994,3.704,10.681z"/>
	<path d="M30.249,10.69c0.533-0.118,1.098,0.369,1.025,0.918c-0.082,0.648-1.009,0.969-1.457,0.477
		C29.325,11.679,29.627,10.768,30.249,10.69z"/>
	<path d="M1.531,11.419c1.115-0.151,1.302,1.635,0.193,1.737C0.584,13.344,0.365,11.471,1.531,11.419z"/>
	<path d="M32.576,11.494c0.614-0.171,1.288,0.489,1.031,1.103c-0.174,0.721-1.301,0.808-1.606,0.14
		C31.684,12.254,32.033,11.594,32.576,11.494z"/>
	<path d="M8.72,11.991c0.814-0.401,1.306,0.958,0.484,1.218C8.462,13.508,7.993,12.28,8.72,11.991z"/>
	<path d="M25.163,12.008c0.794-0.397,1.291,1.007,0.455,1.232C24.859,13.517,24.447,12.291,25.163,12.008z"/>
	<path d="M7.055,12.144c0.899-0.19,1.108,1.37,0.191,1.401C6.346,13.731,6.165,12.215,7.055,12.144z"/>
	<path d="M27.046,12.212c0.83-0.315,1.275,1.046,0.478,1.35C26.664,13.932,26.156,12.452,27.046,12.212z"/>
	<path d="M4.94,12.644c0.995-0.345,1.424,1.363,0.408,1.551C4.363,14.485,3.965,12.87,4.94,12.644z"/>
	<path d="M28.939,12.72c0.922-0.431,1.529,1.126,0.608,1.48C28.622,14.639,27.971,13.067,28.939,12.72z"/>
	<path d="M13.016,13.018c0.912-0.364,1.464,1.149,0.545,1.475C12.61,14.922,12.037,13.299,13.016,13.018z"/>
	<path d="M20.866,13.017c0.955-0.383,1.48,1.258,0.488,1.507C20.411,14.849,19.948,13.323,20.866,13.017z"/>
	<path d="M3.046,13.456c1.098-0.028,1.092,1.804-0.017,1.744C1.94,15.22,1.959,13.422,3.046,13.456z"/>
	<path d="M31.194,13.526c1.072-0.233,1.395,1.511,0.34,1.709C30.44,15.511,30.076,13.673,31.194,13.526z"/>
	<path d="M8.144,13.749c0.827-0.103,0.933,1.291,0.108,1.32C7.416,15.191,7.31,13.778,8.144,13.749z"/>
	<path d="M26.032,13.821c0.956-0.321,1.168,1.337,0.192,1.3C25.504,15.146,25.352,14.006,26.032,13.821z"/>
	<path d="M6.181,14.402c0.837-0.389,1.37,1.006,0.536,1.323C5.881,16.127,5.33,14.693,6.181,14.402z"/>
	<path d="M27.926,14.395c0.563-0.068,0.966,0.688,0.614,1.125c-0.254,0.406-0.946,0.38-1.168-0.046
		C27.096,15.056,27.411,14.397,27.926,14.395z"/>
	<path d="M0.655,14.765c1.132-0.375,1.592,1.527,0.461,1.749C0.019,16.834-0.434,15.034,0.655,14.765z"/>
	<path d="M14.981,14.77c0.471-0.159,0.979,0.187,1.022,0.676c0.093,0.59-0.63,1.075-1.141,0.758
		C14.303,15.907,14.374,14.965,14.981,14.77z"/>
	<path d="M18.907,14.77c0.513-0.171,1.118,0.265,1.034,0.819c-0.009,0.596-0.795,0.934-1.245,0.558
		C18.203,15.811,18.328,14.935,18.907,14.77z"/>
	<path d="M33.227,14.823c0.688-0.252,1.403,0.572,1.082,1.224c-0.229,0.662-1.266,0.734-1.584,0.112
		C32.409,15.684,32.689,14.979,33.227,14.823z"/>
	<path d="M4.364,15.274c0.996-0.356,1.467,1.291,0.458,1.527C3.845,17.139,3.413,15.529,4.364,15.274z"/>
	<path d="M29.518,15.331c0.478-0.207,1.056,0.21,1.043,0.722c0.062,0.564-0.608,1.018-1.111,0.757
		C28.833,16.551,28.875,15.529,29.518,15.331z"/>
	<path d="M12.581,15.423c0.491-0.252,1.141,0.215,1.052,0.763c0.022,0.553-0.67,0.936-1.135,0.644
		C11.94,16.554,11.986,15.625,12.581,15.423z"/>
	<path d="M21.23,15.42c0.923-0.424,1.542,1.097,0.603,1.451C20.904,17.325,20.269,15.756,21.23,15.42z"/>
	<path d="M7.495,15.788c0.731-0.415,1.338,0.809,0.59,1.161C7.345,17.419,6.707,16.112,7.495,15.788z"/>
	<path d="M26.465,15.78c0.832-0.263,1.15,1.094,0.336,1.28C25.986,17.314,25.659,15.948,26.465,15.78z"/>
	<path d="M2.62,16.507c1.052-0.161,1.318,1.558,0.265,1.72C1.771,18.482,1.502,16.611,2.62,16.507z"/>
	<path d="M17.013,16.505c0.584-0.167,1.145,0.486,0.896,1.038c-0.164,0.533-0.941,0.683-1.294,0.252
		C16.194,17.398,16.431,16.585,17.013,16.505z"/>
	<path d="M31.482,16.574c1.091-0.286,1.426,1.553,0.331,1.691C30.743,18.522,30.421,16.741,31.482,16.574z"/>
	<path d="M5.888,16.721c0.871-0.443,1.433,1.046,0.538,1.326C5.612,18.375,5.114,17.069,5.888,16.721z"/>
	<path d="M27.996,16.731c0.889-0.294,1.277,1.185,0.383,1.379C27.519,18.362,27.15,16.963,27.996,16.731z"/>
	<path d="M7.561,17.747c0.817-0.289,1.211,1.028,0.405,1.267C7.171,19.301,6.782,17.985,7.561,17.747z"/>
	<path d="M12.292,17.751c0.599-0.175,1.155,0.487,0.92,1.051c-0.185,0.534-0.973,0.669-1.328,0.233
		C11.507,18.618,11.728,17.864,12.292,17.751z"/>
	<path d="M21.816,17.744c1.02-0.184,1.215,1.5,0.189,1.548C20.998,19.479,20.816,17.821,21.816,17.744z"/>
	<path d="M26.392,17.805c0.848-0.404,1.275,1.1,0.393,1.259C26.012,19.299,25.661,18.056,26.392,17.805z"/>
	<path d="M4.292,17.968c0.966-0.453,1.577,1.21,0.568,1.505C3.917,19.836,3.371,18.318,4.292,17.968z"/>
	<path d="M29.67,17.964c1.024-0.189,1.206,1.514,0.194,1.596C28.869,19.714,28.689,18.057,29.67,17.964z"/>
	<path d="M0.861,18.186c0.73-0.045,1.193,0.891,0.75,1.456c-0.337,0.502-1.176,0.476-1.47-0.057
		C-0.24,19.03,0.201,18.215,0.861,18.186z"/>
	<path d="M33.379,18.255c0.538-0.067,1.059,0.435,0.974,0.981c0,0.703-0.955,1.093-1.457,0.604
		C32.305,19.381,32.627,18.301,33.379,18.255z"/>
	<path d="M6.331,18.986c0.902-0.186,1.105,1.354,0.188,1.396C5.629,20.571,5.447,19.061,6.331,18.986z"/>
	<path d="M27.774,19.05c0.893-0.289,1.236,1.166,0.364,1.374C27.269,20.69,26.907,19.241,27.774,19.05z"/>
	<path d="M2.91,19.561c1.072-0.207,1.334,1.58,0.263,1.713C2.089,21.492,1.809,19.673,2.91,19.561z"/>
	<path d="M31.121,19.636c0.654-0.209,1.317,0.534,1.014,1.155c-0.19,0.573-1.016,0.712-1.409,0.273
		C30.276,20.635,30.491,19.751,31.121,19.636z"/>
	<path d="M7.998,19.707c0.781-0.273,1.176,1.041,0.393,1.258C7.587,21.299,7.186,19.897,7.998,19.707z"/>
	<path d="M25.954,19.766c0.412-0.205,0.983,0.164,0.909,0.637c0.05,0.526-0.686,0.835-1.051,0.485
		C25.445,20.603,25.521,19.947,25.954,19.766z"/>
	<path d="M11.85,20.142c1.006-0.346,1.433,1.324,0.412,1.516C11.325,21.925,10.918,20.377,11.85,20.142z"/>
	<path d="M22.104,20.147c0.478-0.15,1.04,0.25,0.983,0.763c0.05,0.628-0.79,1.011-1.257,0.611
		C21.329,21.163,21.493,20.274,22.104,20.147z"/>
	<path d="M4.869,20.575c0.987-0.407,1.509,1.241,0.514,1.523C4.424,22.451,3.933,20.88,4.869,20.575z"/>
	<path d="M29.089,20.587c1.003-0.209,1.268,1.437,0.264,1.582C28.354,22.377,28.107,20.736,29.089,20.587z"/>
	<path d="M6.903,21.225c0.897-0.372,1.334,1.167,0.417,1.371C6.469,22.86,6.076,21.493,6.903,21.225z"/>
	<path d="M27.198,21.234c0.939-0.137,0.987,1.486,0.044,1.406C26.366,22.693,26.337,21.262,27.198,21.234z"/>
	<path d="M8.799,21.53c0.813-0.266,1.159,1.113,0.337,1.28C8.343,23.055,7.997,21.722,8.799,21.53z"/>
	<path d="M1.385,21.605c0.666-0.2,1.303,0.557,1.053,1.184c-0.153,0.58-0.959,0.805-1.4,0.403
		C0.469,22.774,0.682,21.743,1.385,21.605z"/>
	<path d="M25.159,21.599c0.795-0.379,1.267,0.985,0.458,1.238C24.843,23.116,24.421,21.883,25.159,21.599z"/>
	<path d="M32.502,21.675c1.142-0.39,1.598,1.519,0.461,1.744C31.877,23.715,31.448,21.957,32.502,21.675z"/>
	<path d="M3.857,22.471c1.081-0.194,1.298,1.677,0.192,1.697C2.968,24.356,2.783,22.549,3.857,22.471z"/>
	<path d="M30.175,22.541c0.636-0.195,1.272,0.495,1.039,1.11c-0.177,0.606-1.084,0.795-1.465,0.28
		C29.334,23.486,29.592,22.683,30.175,22.541z"/>
	<path d="M6.174,22.98c1.033-0.111,1.102,1.626,0.07,1.606C5.244,24.662,5.172,22.983,6.174,22.98z"/>
	<path d="M27.924,23.057c0.584-0.201,1.177,0.401,0.996,0.98c-0.124,0.545-0.862,0.749-1.273,0.395
		C27.202,24.057,27.334,23.207,27.924,23.057z"/>
	<path d="M8.28,23.199c0.879-0.045,0.933,1.398,0.058,1.438C7.421,24.712,7.352,23.182,8.28,23.199z"/>
	<path d="M9.889,23.196c0.825-0.451,1.384,0.985,0.516,1.235C9.636,24.725,9.12,23.5,9.889,23.196z"/>
	<path d="M24.068,23.201c0.798-0.279,1.171,1.017,0.392,1.253C23.656,24.779,23.221,23.374,24.068,23.201z"/>
	<path d="M25.886,23.272c0.886-0.301,1.308,1.145,0.414,1.366C25.441,24.931,25.04,23.504,25.886,23.272z"/>
	<path d="M11.488,24.5c0.782-0.207,1.096,1.064,0.332,1.268C10.999,26.09,10.659,24.637,11.488,24.5z"/>
	<path d="M22.76,24.505c0.776-0.074,0.91,1.196,0.148,1.307C21.998,26.036,21.815,24.477,22.76,24.505z"/>
	<path d="M2.76,24.789c1.119-0.373,1.582,1.515,0.46,1.755C2.122,26.849,1.652,25.038,2.76,24.789z"/>
	<path d="M31.045,24.861c1.07-0.479,1.746,1.302,0.668,1.68C30.644,27.041,29.953,25.232,31.045,24.861z"/>
	<path d="M9.746,24.944c0.526-0.112,1.032,0.461,0.817,0.963c-0.191,0.546-1.018,0.624-1.317,0.131
		C8.941,25.635,9.242,24.975,9.746,24.944z"/>
	<path d="M24.292,25.022c0.78-0.405,1.377,0.894,0.632,1.277C24.097,26.823,23.399,25.363,24.292,25.022z"/>
	<path d="M5.232,25.15c1.055-0.383,1.574,1.41,0.489,1.659C4.679,27.172,4.172,25.408,5.232,25.15z"/>
	<path d="M7.635,25.16c0.98-0.231,1.316,1.388,0.332,1.571C6.97,27.004,6.61,25.302,7.635,25.16z"/>
	<path d="M28.873,25.158c0.589-0.043,1.062,0.646,0.809,1.182c-0.185,0.56-1.003,0.741-1.389,0.284
		C27.798,26.139,28.135,25.122,28.873,25.158z"/>
	<path d="M26.322,25.234c0.625-0.304,1.327,0.478,1.01,1.073c-0.202,0.594-1.147,0.63-1.409,0.067
		C25.683,25.968,25.877,25.394,26.322,25.234z"/>
	<path d="M13.093,25.535c0.708-0.307,1.259,0.787,0.598,1.168C12.919,27.235,12.263,25.858,13.093,25.535z"/>
	<path d="M20.872,25.529c0.777-0.252,1.172,1.029,0.388,1.253C20.443,27.138,20.02,25.702,20.872,25.529z"/>
	<path d="M14.974,26.159c0.815-0.368,1.261,1.007,0.44,1.246C14.637,27.673,14.234,26.456,14.974,26.159z"/>
	<path d="M18.902,26.167c0.409-0.198,0.967,0.161,0.899,0.629c0.051,0.594-0.842,0.878-1.166,0.396
		C18.36,26.868,18.521,26.323,18.902,26.167z"/>
	<path d="M11.491,26.332c0.489-0.155,0.993,0.3,0.883,0.803c-0.015,0.635-1.024,0.822-1.269,0.246
		C10.889,27.002,11.077,26.473,11.491,26.332z"/>
	<path d="M16.937,26.377c0.825-0.39,1.265,1.033,0.427,1.24C16.583,27.901,16.173,26.637,16.937,26.377z"/>
	<path d="M22.395,26.397c0.919-0.489,1.454,1.127,0.478,1.329C22.075,28.003,21.611,26.695,22.395,26.397z"/>
	<path d="M9.524,26.97c1.017-0.386,1.547,1.327,0.478,1.546C9.01,28.846,8.526,27.238,9.524,26.97z"/>
	<path d="M24.508,26.98c0.977-0.211,1.292,1.355,0.33,1.571C23.818,28.837,23.467,27.123,24.508,26.98z"/>
	<path d="M13.673,27.269c0.55-0.124,1.037,0.55,0.749,1.035c-0.22,0.498-1.039,0.497-1.255-0.002
		C12.964,27.904,13.203,27.316,13.673,27.269z"/>
	<path d="M20.578,27.27c0.561-0.028,0.929,0.709,0.564,1.137c-0.263,0.396-0.977,0.372-1.172-0.077
		C19.687,27.9,20.073,27.252,20.578,27.27z"/>
	<path d="M7.344,27.412c1.128-0.287,1.401,1.629,0.263,1.695C6.553,29.293,6.301,27.554,7.344,27.412z"/>
	<path d="M26.61,27.475c1.041-0.421,1.585,1.337,0.54,1.632C26.113,29.514,25.551,27.763,26.61,27.475z"/>
	<path d="M4.875,27.561c1.14-0.221,1.419,1.695,0.266,1.808C4,29.574,3.731,27.687,4.875,27.561z"/>
	<path d="M29.158,27.633c0.667-0.198,1.291,0.556,1.03,1.18c-0.161,0.596-1.032,0.796-1.44,0.336
		C28.242,28.714,28.492,27.751,29.158,27.633z"/>
	<path d="M15.853,27.78c0.552-0.177,1.051,0.458,0.823,0.963c-0.16,0.425-0.758,0.573-1.095,0.266
		C15.156,28.678,15.309,27.887,15.853,27.78z"/>
	<path d="M18.176,27.773c0.48-0.12,0.953,0.353,0.825,0.835c-0.051,0.576-0.886,0.761-1.22,0.313
		C17.439,28.536,17.681,27.871,18.176,27.773z"/>
	<path d="M11.929,28.288c0.988-0.18,1.267,1.449,0.264,1.586C11.179,30.123,10.894,28.381,11.929,28.288z"/>
	<path d="M22.032,28.36c0.936-0.457,1.598,1.144,0.618,1.478C21.71,30.283,21.078,28.723,22.032,28.36z"/>
	<path d="M14.321,29.156c0.544-0.207,1.152,0.36,1.018,0.918c-0.113,0.672-1.145,0.779-1.47,0.217
		C13.613,29.888,13.867,29.28,14.321,29.156z"/>
	<path d="M19.562,29.168c0.498-0.175,1.075,0.224,1.041,0.76c0.049,0.616-0.777,0.947-1.238,0.606
		C18.791,30.244,18.983,29.333,19.562,29.168z"/>
	<path d="M9.671,29.24c0.544-0.215,1.262,0.214,1.19,0.833c0.051,0.733-1.008,1.029-1.478,0.556
		C8.884,30.272,9.107,29.397,9.671,29.24z"/>
	<path d="M24.287,29.232c0.669-0.171,1.29,0.672,0.889,1.245c-0.288,0.466-1.011,0.562-1.363,0.118
		C23.319,30.175,23.693,29.314,24.287,29.232z"/>
	<path d="M16.938,29.437c0.949-0.361,1.481,1.251,0.464,1.473C16.44,31.229,15.977,29.711,16.938,29.437z"/>
	<path d="M7.493,29.883c0.644-0.101,1.192,0.673,0.88,1.248c-0.26,0.586-1.157,0.668-1.52,0.137
		C6.417,30.761,6.84,29.897,7.493,29.883z"/>
	<path d="M26.542,29.967c1.07-0.441,1.667,1.323,0.579,1.651C26.059,32.03,25.438,30.264,26.542,29.967z"/>
	<path d="M12.506,30.468c1.147-0.412,1.471,1.537,0.339,1.62C11.833,32.338,11.448,30.586,12.506,30.468z"/>
	<path d="M21.379,30.474c0.409-0.073,0.928-0.006,1.079,0.448c0.368,0.704-0.572,1.527-1.226,1.091
		C20.602,31.715,20.685,30.62,21.379,30.474z"/>
	<path d="M15.488,31.052c0.593-0.157,1.194,0.461,0.998,1.049c-0.116,0.596-0.943,0.87-1.376,0.434
		C14.604,32.118,14.832,31.158,15.488,31.052z"/>
	<path d="M18.543,31.049c0.609-0.14,1.2,0.526,0.966,1.11c-0.171,0.642-1.134,0.801-1.502,0.247
		C17.606,31.937,17.949,31.132,18.543,31.049z"/>
	<path d="M10.47,31.564c1.201-0.196,1.251,1.929,0.047,1.806C9.423,33.337,9.366,31.641,10.47,31.564z"/>
	<path d="M23.559,31.635c0.578-0.26,1.278,0.286,1.191,0.907c0.02,0.652-0.813,1.075-1.344,0.715
		C22.768,32.921,22.864,31.839,23.559,31.635z"/>
	<path d="M13.598,32.648c0.656-0.153,1.294,0.55,1.045,1.184c-0.191,0.664-1.199,0.814-1.572,0.234
		C12.684,33.581,12.985,32.753,13.598,32.648z"/>
	<path d="M20.509,32.65c0.657-0.091,1.172,0.665,0.9,1.254c-0.227,0.641-1.222,0.736-1.562,0.145
		C19.476,33.522,19.853,32.686,20.509,32.65z"/>
	<path d="M17.092,33.011c0.569-0.076,1.088,0.49,0.966,1.052c-0.063,0.734-1.126,1.007-1.564,0.431
		C16.025,33.989,16.394,33.034,17.092,33.011z"/>
</g>
<g id="Layer_1">
</g>
</svg>
