<?xml version="1.0" encoding="iso-8859-1"?>
<!-- Generator: Adobe Illustrator 21.0.2, SVG Export Plug-In . SVG Version: 6.00 Build 0)  -->
<svg version="1.1" xmlns="http://www.w3.org/2000/svg" xmlns:xlink="http://www.w3.org/1999/xlink" x="0px" y="0px"
	 viewBox="0 0 25.276 22.927" style="enable-background:new 0 0 25.276 22.927;" xml:space="preserve">
<g id="Muzik_x5F_School_x5F_of_x5F_Creation_x5F_and_x5F_Production">
	<path d="M1.988,0.001c2.154,0.044,4.318-0.059,6.466,0.055c-0.73,7.599-1.333,15.21-2.01,22.813
		C4.296,22.882,2.147,22.879,0,22.858C0.688,15.245,1.372,7.625,1.988,0.001z"/>
	<path d="M17.377,0.056c2.066-0.072,4.151,0.032,6.227-0.006c0.586,7.616,1.104,15.252,1.671,22.87
		c-2.042,0.017-4.085-0.009-6.127-0.004c-0.033-0.028-0.066-0.056-0.099-0.083C18.524,15.241,17.91,7.652,17.377,0.056z"/>
	<path d="M9.686,2.396c2.122-0.041,4.269-0.071,6.386,0.022c-0.088,4.758-0.086,9.521-0.112,14.283
		c-2.109-0.044-4.227,0.053-6.331-0.056C9.647,11.898,9.73,7.133,9.686,2.396z"/>
</g>
<g id="Layer_1">
</g>
</svg>
