<?xml version="1.0" encoding="iso-8859-1"?>
<!-- Generator: Adobe Illustrator 21.0.2, SVG Export Plug-In . SVG Version: 6.00 Build 0)  -->
<svg version="1.1" xmlns="http://www.w3.org/2000/svg" xmlns:xlink="http://www.w3.org/1999/xlink" x="0px" y="0px"
	 viewBox="0 0 43.896 40.209" style="enable-background:new 0 0 43.896 40.209;" xml:space="preserve">
<g id="My_x5F_Cappacious_x5F_Bottega">
	<g>
		<g>
			<path d="M19.451,0.632c1.325-1.066,3.666-0.802,4.281,0.927c0.625,1.918-0.308,3.992-1.676,5.355
				c1.504,0.47,2.96,1.076,4.43,1.636c1.466-1.625,3.325-3.096,5.56-3.387c1.62-0.159,3.473-0.148,4.769,0.988
				c0.65,0.527,0.953,1.381,0.856,2.203c-0.409,1.045-1.415,1.681-2.469,1.938c-2.897,0.759-5.866-0.13-8.58-1.143
				c-2.978,3.451-4.948,7.635-6.693,11.808c0.127,1.238,0.009,2.491,0.071,3.735c0.57,0.02,1.14-0.01,1.71,0.011
				c0.006,0.101,0.014,0.206,0.022,0.31c-1.738,0.036-3.477,0.023-5.216,0.01c-0.018-0.111-0.035-0.221-0.047-0.33
				c0.581,0.007,1.163,0.006,1.745-0.001c0.096-1.237,0.009-2.486,0.031-3.727c-1.076-2.329-2.148-4.664-3.304-6.953
				c-0.958,0.005-1.915-0.016-2.873,0.008c0.021,3.562-0.064,7.132,0.051,10.689c0.506-0.024,1.012-0.016,1.518-0.009
				c-0.002,0.104-0.005,0.207-0.006,0.313c-1.622,0.031-3.246,0.019-4.868,0.004c-0.008-0.106-0.015-0.211-0.022-0.313
				c0.554-0.006,1.109-0.017,1.662,0c-0.039-3.319,0.013-6.636-0.033-9.952C8.9,18.061,7.706,21.499,6.181,24.776
				c-1.366-3.213-2.795-6.399-4.176-9.606c-0.128,2.985-0.064,5.979,0.005,8.966c0.175,0.772,1.131,0.524,1.714,0.574
				c0.012,0.104,0.023,0.21,0.035,0.317c-1.244,0.014-2.488,0.027-3.731-0.005c-0.007-0.104-0.013-0.207-0.019-0.31
				c0.57-0.024,1.544,0.158,1.596-0.662c0.031-3.289,0.013-6.579,0.005-9.868c-0.056-0.052-0.112-0.102-0.167-0.152
				c-0.434-0.02-0.868,0.001-1.303-0.019C0.108,13.977,0.036,13.911,0,13.878c0.845-0.504,2.211-0.159,3.251-0.178
				c1.248,2.797,2.486,5.597,3.679,8.417c1.171-2.797,2.309-5.608,3.404-8.433c2.716-0.109,5.445-0.032,8.164-0.031
				c-0.001,0.104-0.001,0.21-0.001,0.316c-0.498,0.082-1.004,0.031-1.505,0.048c0.944,2.019,1.853,4.048,2.817,6.057
				c1.566-3.981,3.611-7.812,6.297-11.154c-1.49-0.515-2.937-1.281-4.473-1.585c-3.114,2.518-7.27,3.506-11.217,3.147
				c-1.34-0.158-2.858-0.401-3.791-1.476C5.897,8.268,6.094,6.948,6.886,6.338c0.692-0.591,1.609-0.757,2.461-0.991
				c3.817-0.483,7.655,0.185,11.358,1.079c1.116-1.38,1.804-3.421,0.995-5.107c-0.456-0.853-1.59-0.641-2.282-0.225
				C19.427,0.939,19.438,0.786,19.451,0.632z M27.018,8.795c2.135,0.744,4.359,1.576,6.663,1.217
				c0.991-0.097,2.147-0.684,2.283-1.776c0.302-1.23-0.726-2.443-1.926-2.608C31.319,5.083,28.639,6.727,27.018,8.795z M9.678,5.974
				C8.267,6.155,7.355,7.937,8.373,9.061c1.06,1.032,2.674,1.048,4.06,1.079c2.897-0.043,5.896-1.138,7.872-3.31
				C16.874,5.965,13.186,5.122,9.678,5.974z"/>
		</g>
		<g>
			<path d="M24.397,16.938c0.926-2.528,4.088-4.332,6.636-3.035c0.579,0.185,1.113,0.993,1.734,0.57
				c0.058-0.188,0.122-0.374,0.195-0.555c0.099,0.035,0.198,0.071,0.297,0.109c0.027,1.105-0.023,2.21,0.02,3.314
				c-0.104,0.029-0.208,0.058-0.312,0.088c-0.082-2.253-2.454-4.191-4.673-3.509c-1.263,0.31-1.919,1.605-2.183,2.776
				c-0.417,1.961-0.43,4.041,0.092,5.984c0.036-0.003,0.108-0.011,0.144-0.015c1.583-1.512,3.773-2.87,6.046-2.258
				c1.242,0.203,1.873,1.787,1.31,2.85c-0.585,1.351-2.19,1.804-3.532,1.952c-1.603,0.223-3.214-0.321-4.464-1.323
				c-2.142,2.15-3.96,4.609-6.259,6.603c1.222,0.346,2.431,0.735,3.655,1.073c3.049-2.761,7.405-3.905,11.419-3.066
				c1.153,0.256,2.537,0.604,3.103,1.756c0.534,1.374-0.769,2.616-2.013,2.923c-3.842,1.195-7.858-0.052-11.645-0.859
				c-1.394,1.647-2.524,3.857-2.03,6.058c0.127,1.178,1.625,1.413,2.439,0.771c0.025,0.025,0.075,0.077,0.101,0.103
				c-0.005,0.096-0.011,0.192-0.016,0.291c-1.329,1.087-3.712,0.894-4.349-0.869c-0.759-2.539,0.907-4.964,2.527-6.765
				c-1.251-0.269-2.442-0.779-3.689-1.045c-2.168,1.708-4.838,2.934-7.65,2.804c-1.442,0.01-2.987-0.086-4.216-0.922
				c-1.11-0.785-1.195-2.684-0.035-3.463c1.735-1.272,4.063-1.012,6.038-0.561c1.934,0.467,3.83,1.074,5.746,1.6
				c2.439-2.018,4.352-4.564,6.553-6.82C23.697,21.819,23.51,19.058,24.397,16.938z M30.58,20.771
				c-1.449,0.081-2.579,1.124-3.669,1.971c-0.181,0.174-0.545,0.373-0.366,0.669c1.005,1.84,3.98,1.937,5.32,0.438
				C32.822,22.789,32.161,20.596,30.58,20.771z M24.359,31.902c3.222,0.775,6.596,1.823,9.914,1.056
				c0.972-0.189,1.913-1.053,1.754-2.112c-0.085-0.893-0.944-1.453-1.708-1.756C30.821,27.893,26.831,29.265,24.359,31.902z
				 M9.945,28.953c-1.333,0.024-2.285,1.413-1.801,2.658c0.334,1.007,1.475,1.42,2.435,1.565c2.775,0.249,5.652-0.697,7.741-2.534
				C15.575,29.899,12.847,28.69,9.945,28.953z"/>
		</g>
		<g>
			<path d="M34.383,13.636c2.362,0.088,4.776-0.254,7.097,0.269c1.097,0.273,2.212,1.201,2.099,2.434
				c0.141,1.516-1.368,2.622-2.767,2.66c1.428,0.171,3.028,1.075,3.069,2.681c0.205,1.911-1.682,3.456-3.503,3.338
				c-1.997,0.014-3.994,0.013-5.991,0.006c-0.012-0.101-0.024-0.2-0.035-0.297c0.559-0.065,1.124-0.02,1.686-0.034
				c-0.044-3.549,0.024-7.103-0.041-10.649c-0.516-0.121-1.116,0.064-1.654-0.108C34.355,13.834,34.369,13.734,34.383,13.636z
				 M37.749,14.004c-0.044,1.598,0.006,3.198-0.016,4.797c1.062,0.008,2.203,0.105,3.19-0.345c1.254-0.774,1.23-2.834,0.126-3.731
				C40.142,13.915,38.877,14.004,37.749,14.004z M37.733,19.123c0.005,1.856,0.02,3.715-0.007,5.571
				c1.101-0.046,2.344,0.101,3.293-0.572c1.069-0.933,1.296-2.716,0.487-3.882C40.625,19.079,39.044,19.125,37.733,19.123z"/>
		</g>
	</g>
</g>
<g id="Layer_1">
</g>
</svg>
