<?xml version="1.0" encoding="iso-8859-1"?>
<!-- Generator: Adobe Illustrator 19.2.0, SVG Export Plug-In . SVG Version: 6.00 Build 0)  -->
<svg version="1.1" xmlns="http://www.w3.org/2000/svg" xmlns:xlink="http://www.w3.org/1999/xlink" x="0px" y="0px"
	 viewBox="0 0 81.228 82.108" style="enable-background:new 0 0 81.228 82.108;" xml:space="preserve">
<g id="Nancy_x5F_Martin">
	<path style="fill-rule:evenodd;clip-rule:evenodd;" d="M61.801,0.085c0.265,1.091,0.164,2.268,0.152,3.396
		c-0.083,7.644,0.008,16.29,0,23.875c4.607,0.198,9.026-0.103,13.585,0.152c0.266,0.759,0.152,1.662,0.152,2.535
		c-0.001,2.545,0.083,5.482-0.102,7.908c-1.544,0.264-3.644-0.028-5.271,0.152c-0.307,0.642-0.152,1.403-0.152,2.078
		c-0.002,9.703-0.05,19.803-0.051,29.959c0,1.563,0.103,3.102-0.152,4.512c-0.445,2.465-1.906,4.456-3.599,5.728
		c-0.947,0.712-1.991,1.189-3.244,1.419c-1.302,0.239-2.813,0.152-4.512,0.152c-2.924,0-5.944,0.135-8.973,0.051
		c-3.062-0.085-6.103,0.096-9.073,0.05c-5.995-0.091-12.156,0.051-18.3,0.051c-1.666,0-3.118,0.062-4.41-0.253
		c-1.149-0.28-2.237-0.833-3.143-1.52c-1.686-1.28-3.2-3.176-3.549-5.779c-0.382-2.861-0.101-6.182-0.101-9.226
		c0.002-9.286,0.058-18.209-0.101-27.069c-1.567-0.436-3.76,0.225-5.273-0.304c-0.146-1.687-0.13-3.518-0.151-5.272
		c-0.022-1.738,0.029-3.498,0.202-5.069c4.344-0.332,9.134-0.018,13.686-0.203c0.318-1.012,0.182-2.105,0.203-3.193
		c0.11-5.668-0.001-11.424,0-17.235c0-1.18,0-2.332,0-3.498c0-1.1-0.123-2.243,0.152-3.295c1.913-0.245,3.866-0.152,5.829-0.152
		c3.953,0,7.82,0,11.761,0C45.6,0.035,53.742-0.07,61.801,0.085z M51.814,4.09c-0.997,1.521-2.394,3.038-4.258,3.802
		c-2.539,1.041-5.929,0.618-9.175,0.761c-1.663,0.073-3.375,0-5.018,0c-1.67,0-3.318-0.196-4.866,0.101
		c-0.491,4.238,0.426,8.64-0.405,12.166c-0.353,1.49-1.307,3.028-2.281,4.055c-1.035,1.09-2.434,1.873-4.106,2.23
		c-0.648,0.139-1.382,0.077-1.977,0.355c-0.244,1.141-0.191,2.176-0.355,3.143c-0.495,2.922-2.098,5.007-4.207,6.336
		c-0.442,0.279-1.002,0.344-1.318,0.862c3.334,0.191,6.98,0.102,10.493,0.102c1.149,0,2.398-0.157,3.397,0.203
		c0.27,5.069,2.521,8.158,5.475,10.544c1.653,0.983,3.169,1.712,5.171,2.129c2.227,0.464,4.531,0.184,6.488-0.456
		c3.436-1.123,6.138-3.864,7.604-7.046c0.487-1.058,0.93-2.493,1.115-3.751c0.077-0.521,0.013-1.19,0.254-1.47
		c0.267-0.311,1.144-0.329,1.724-0.456c2.322-0.509,3.57-1.55,4.866-3.193c1.371-1.74,1.93-4.051,1.521-7.046
		c-3.716-0.264-6.004-1.844-7.502-4.309c-0.992-1.631-1.42-3.538-1.42-6.032c0-4.044,0-8.753,0-12.926
		c0-0.546,0.144-1.196-0.203-1.673c-0.003-0.031-0.007-0.06-0.05-0.051C52.342,2.92,52.144,3.589,51.814,4.09z M47.202,53.767
		c-3.158,0.001-6.295,0-9.479,0c-4.962,0.001-9.74,0.164-14.498,0.051c-1.568-0.037-3.248-0.187-4.612,0.051
		c-1.732,0.302-3.158,1.547-3.852,2.991c-0.768,1.594-0.51,3.827-0.507,6.184c0.002,2.072-0.098,4.199-0.051,6.539
		c0.045,2.255-0.023,4.801,0.76,6.134c0.661,1.124,1.738,2.089,3.042,2.534c1.435,0.491,3.356,0.47,5.271,0.457
		c5.618-0.039,11.699-0.152,17.134-0.152c4.048,0,7.711-0.11,11.456,0c2.767,0.082,5.94-0.01,8.618-0.152
		c0.973-0.052,1.939,0.008,2.737-0.203c1.432-0.379,3.344-1.936,3.599-3.7c0.185-1.279,0.061-2.708,0.102-4.156
		c0.078-2.791-0.051-5.613-0.051-8.466c0-1.577,0.126-3.129-0.102-4.258c-0.346-1.721-1.862-3.114-3.396-3.599
		c-1.549-0.49-4.66-0.389-6.438-0.304C53.601,53.875,50.398,53.767,47.202,53.767z"/>
	<path style="fill-rule:evenodd;clip-rule:evenodd;" d="M43.755,13.823c0.288-0.922,2.097-0.918,2.332,0.051
		C46.424,15.81,43.333,15.868,43.755,13.823z"/>
	<path style="fill-rule:evenodd;clip-rule:evenodd;" d="M34.985,13.873c0.346-1.007,2.215-0.883,2.281,0.203
		C37.357,15.558,34.746,15.83,34.985,13.873z"/>
	<path style="fill-rule:evenodd;clip-rule:evenodd;" d="M31.995,20.818c1.959-1.165,2.362,1.758,3.396,2.433
		c2.058,2.017,5.712,2.769,8.668,1.217c0.915-0.48,2.183-1.618,2.788-2.433c0.451-0.607,0.562-1.342,1.369-1.47
		c0.256-0.04,0.928-0.063,1.064,0.355c-0.117,1.506-1.162,2.521-1.927,3.548c-1.935,1.61-4.685,3.392-8.313,2.687
		c-2.588-0.503-4.787-2.094-6.082-4.055C32.523,22.441,31.856,21.725,31.995,20.818z"/>
	<path style="fill-rule:evenodd;clip-rule:evenodd;" d="M3.101,27.763c0.268,0.706,0.152,1.56,0.152,2.382
		c-0.001,2.36,0.082,5.109-0.102,7.351c-0.592-0.061-1.146-0.456-1.673-0.761c-0.518-0.299-1.073-0.62-1.42-1.064
		c-0.132-1.556,0-3.151,0-4.765c0-0.484-0.072-1.191,0.101-1.521c0.144-0.272,0.852-0.596,1.217-0.811
		C1.989,28.214,2.379,27.847,3.101,27.763z"/>
	<path style="fill-rule:evenodd;clip-rule:evenodd;" d="M78.073,28.016c1.11,0.579,2.263,1.116,3.092,1.977
		c0.086,1.845,0.083,4.035,0,5.88c-0.397,0.469-1.031,0.735-1.571,1.065c-0.525,0.32-1.043,0.803-1.673,0.811
		c-0.188-2.991-0.161-6.536,0-9.631C77.958,28.07,78.013,28.041,78.073,28.016z"/>
	<path style="fill-rule:evenodd;clip-rule:evenodd;" d="M47.354,38.154c0.216,1.844-0.643,3.478-1.673,4.562
		c-1.717,1.809-4.922,2.886-7.756,1.521c-1.105-0.533-2.196-1.555-2.838-2.687c-0.504-0.889-1.134-2.018-0.659-3.447
		c3.024-0.171,6.163-0.152,9.327-0.152C44.987,37.952,46.258,37.795,47.354,38.154z"/>
	<path style="fill-rule:evenodd;clip-rule:evenodd;" d="M47.202,56.454c2.034-0.4,3.479,1.838,2.687,3.65
		c-0.805,1.838-3.656,1.988-4.562-0.051C44.734,58.722,45.522,56.708,47.202,56.454z"/>
	<path style="fill-rule:evenodd;clip-rule:evenodd;" d="M61.345,56.454c1.583-0.157,2.969,1.154,2.788,2.838
		c-0.089,0.822-0.724,1.741-1.47,2.079c-1.488,0.673-3.67-0.533-3.701-2.332C58.939,57.623,59.992,56.588,61.345,56.454z"/>
	<path style="fill-rule:evenodd;clip-rule:evenodd;" d="M17.142,58.532c0.439-1.306,1.823-2.585,3.549-1.875
		c2.036,0.837,2.08,3.927,0.051,4.816C19.052,62.212,16.922,61.005,17.142,58.532z"/>
	<path style="fill-rule:evenodd;clip-rule:evenodd;" d="M26.368,56.505c1.181-0.087,2.224,0.601,2.585,1.622
		c0.507,1.432-0.394,2.921-1.521,3.346c-1.516,0.571-3.066-0.488-3.295-2.028c-0.163-1.095,0.531-2.156,1.014-2.535
		C25.449,56.676,25.736,56.551,26.368,56.505z"/>
	<path style="fill-rule:evenodd;clip-rule:evenodd;" d="M33.616,56.505c1.118-0.007,2.506,0.892,2.586,2.332
		c0.085,1.524-1.531,3.375-3.447,2.636c-1.068-0.412-2.112-1.828-1.47-3.396C31.566,57.389,32.33,56.512,33.616,56.505z"/>
	<path style="fill-rule:evenodd;clip-rule:evenodd;" d="M38.026,59.546c-0.03-1.765,0.848-2.93,2.281-3.092
		c1.855-0.21,2.957,1.243,2.839,2.737c-0.146,1.851-2.28,2.962-3.853,2.078C38.715,60.944,38.294,60.349,38.026,59.546z"/>
	<path style="fill-rule:evenodd;clip-rule:evenodd;" d="M54.248,56.505c1.768-0.268,3.3,1.174,2.99,2.94
		c-0.13,0.745-0.8,1.703-1.622,2.028c-1.163,0.46-2.701-0.09-3.295-1.318C51.451,58.352,52.736,56.733,54.248,56.505z"/>
	<path style="fill-rule:evenodd;clip-rule:evenodd;" d="M54.299,63.399c1.354-0.239,2.445,0.59,2.839,1.571
		c0.741,1.852-1.048,4.141-3.295,3.346c-0.74-0.262-1.468-1.107-1.622-1.926C51.957,64.995,52.999,63.644,54.299,63.399z"/>
	<path style="fill-rule:evenodd;clip-rule:evenodd;" d="M25.05,67.961c-1.409-1.522-0.575-4.332,1.471-4.512
		c1.259-0.11,2.312,0.763,2.636,1.623C30.054,67.455,27.1,69.736,25.05,67.961z"/>
	<path style="fill-rule:evenodd;clip-rule:evenodd;" d="M40.713,63.5c1.268-0.046,2.58,1.048,2.688,2.383
		c0.131,1.644-1.297,3.013-2.788,2.889c-1.638-0.136-2.792-1.867-2.332-3.346C38.561,64.527,39.495,63.545,40.713,63.5z"/>
	<path style="fill-rule:evenodd;clip-rule:evenodd;" d="M47.404,63.5c1.563-0.254,2.884,1.003,2.94,2.383
		c0.063,1.539-1.196,2.932-2.839,2.737c-1.783-0.212-2.705-2.401-1.926-3.802C45.896,64.25,46.628,63.647,47.404,63.5z"/>
	<path style="fill-rule:evenodd;clip-rule:evenodd;" d="M61.345,63.5c1.55-0.254,3.024,1.163,2.89,2.788
		c-0.136,1.638-1.925,2.833-3.7,2.078c-0.49-0.208-1.038-0.699-1.268-1.166C58.544,65.73,59.654,63.778,61.345,63.5z"/>
	<path style="fill-rule:evenodd;clip-rule:evenodd;" d="M19.423,63.551c1.333-0.17,2.393,0.612,2.788,1.673
		c0.78,2.09-1.493,4.284-3.599,3.244c-0.81-0.4-1.475-1.441-1.471-2.382C17.148,64.772,18.2,63.707,19.423,63.551z"/>
	<path style="fill-rule:evenodd;clip-rule:evenodd;" d="M33.465,63.551c1.882-0.334,3.54,1.733,2.687,3.548
		c-1.029,2.188-4.111,1.801-4.815-0.203c-0.127-0.361-0.242-0.883,0-1.571C31.592,64.596,32.384,63.798,33.465,63.551z"/>
	<path style="fill-rule:evenodd;clip-rule:evenodd;" d="M32.451,70.344c2.355-0.047,5.22,0,7.806,0
		c6.453,0,12.743,0.101,19.212,0.101c2.388,0.001,3.869,0.149,4.512,1.774c0.577,1.459-0.372,2.825-1.521,3.295
		c-1.168,0.478-3.581,0.456-5.222,0.456c-5.797,0-11.109,0.101-16.778,0.101c-3.639,0-7.574,0.122-11.102,0
		c-1.599-0.055-3.567-0.06-5.475,0c-1.803,0.057-4.032,0.014-5.119-0.507c-1.035-0.495-1.885-1.49-1.521-2.991
		c0.21-0.864,1.081-1.664,1.774-1.926c0.834-0.316,2.114-0.203,3.193-0.253C25.488,70.242,29.022,70.411,32.451,70.344z"/>
</g>
<g id="Layer_1">
</g>
</svg>
