<?xml version="1.0" encoding="iso-8859-1"?>
<!-- Generator: Adobe Illustrator 19.2.0, SVG Export Plug-In . SVG Version: 6.00 Build 0)  -->
<svg version="1.1" xmlns="http://www.w3.org/2000/svg" xmlns:xlink="http://www.w3.org/1999/xlink" x="0px" y="0px"
	 viewBox="0 0 75.586 63.013" style="enable-background:new 0 0 75.586 63.013;" xml:space="preserve">
<g id="National_x5F_Institute_x5F_of_x5F_Design_x5F_Admedabad_x5F_India">
	<path style="fill-rule:evenodd;clip-rule:evenodd;" d="M40.794,0.018c2.706-0.188,4.806,1.1,6.014,2.356
		c1.064,1.108,2.069,3.08,2.165,5.052c0.135,2.801-1.072,4.68-2.213,5.82c-3.207,3.207-8.941,2.98-11.643-0.625
		c-1.261-1.683-2.135-4.325-1.395-6.928c0.584-2.056,1.672-3.432,3.416-4.522C38.036,0.611,39.242,0.126,40.794,0.018z"/>
	<path style="fill-rule:evenodd;clip-rule:evenodd;" d="M34.926,17.385c0.336,0.86,0.191,1.842,0.191,2.741
		c-0.001,14.19,0.014,28.706-0.096,42.863c-0.381,0.136-0.525-0.336-0.674-0.528c-1.967-2.562-4.058-5.234-6.062-7.842
		c-0.732-0.953-1.518-1.897-2.164-2.887c-1.3-1.99-2.889-3.824-4.33-5.772c-1.433-1.938-2.868-3.92-4.378-5.725
		c-3.087-3.69-5.849-7.639-8.852-11.401c-2.612-3.274-5.182-6.62-7.696-10.007C0.53,18.376,0.03,17.899,0,17.288
		C11.586,17.136,23.128,17.183,34.926,17.385z"/>
	<path style="fill-rule:evenodd;clip-rule:evenodd;" d="M47.337,62.797c-0.254-0.898-0.145-1.872-0.145-2.79
		c0.001-2.884,0.038-5.788,0-8.659c-0.052-3.871,0.165-7.732,0-11.497c-0.081-1.841-0.006-3.76,0.048-5.629
		c0.129-4.484-0.116-9.41,0-14.239c0.012-0.475,0-0.961,0-1.443c0-0.373-0.137-0.912,0.24-1.203c3.985,0.016,8.96-0.214,12.22,0.722
		c3.44,0.987,6.044,2.637,8.13,4.618c4.474,4.007,7.466,9.566,7.745,17.655c0.138,3.991-1.116,7.429-2.453,10.295
		c-1.378,2.95-3.416,5.316-5.532,7.216c-2.148,1.922-4.939,3.591-8.371,4.378C55.76,63.015,51.457,63.055,47.337,62.797z"/>
</g>
<g id="Layer_1">
</g>
</svg>
