<?xml version="1.0" encoding="iso-8859-1"?>
<!-- Generator: Adobe Illustrator 19.2.0, SVG Export Plug-In . SVG Version: 6.00 Build 0)  -->
<svg version="1.1" xmlns="http://www.w3.org/2000/svg" xmlns:xlink="http://www.w3.org/1999/xlink" x="0px" y="0px"
	 viewBox="0 0 145.099 176.576" style="enable-background:new 0 0 145.099 176.576;" xml:space="preserve">
<g id="National_x5F_Economics_x5F_Editions">
	<path style="fill-rule:evenodd;clip-rule:evenodd;" d="M144.975,0.5c0.173,6.508,0.158,14.059,0,20.459
		c-0.049,0.002-0.039,0.062-0.05,0.102c-7.776,0.135-15.842-0.002-23.518,0c-7.572,0-15.332-0.051-23.016-0.051
		c-2.726,0-5.159-0.092-7.371,0.451c-2.137,0.523-3.83,1.334-5.315,2.557c-3.319,2.709-5.557,6.604-6.669,11.734
		c-0.137,0.633-0.211,1.887-0.652,1.955c-0.594,0.094-0.678-1.098-0.802-1.603c-1.066-4.332-3.008-8.059-5.767-10.73
		c-1.638-1.588-3.447-2.906-5.767-3.711c-2.348-0.816-5.575-0.752-8.575-0.752c-3.137,0-6.243-0.051-9.327-0.051
		c-6,0-12.102-0.096-18.202-0.051c-2.24,0.018-4.487,0-6.77,0c-0.721,0-1.498-0.117-2.206,0.15
		c-0.19,7.396-0.201,15.068-0.201,22.715c0,22.381-0.191,45.9-0.05,68.396c5.602,0.232,12.026,0.219,17.751,0.051
		c0.01-0.041,0.05-0.051,0.05-0.102c0.307-22.891,0.079-46.609,0.301-69.447c0.049-0.002,0.039-0.063,0.05-0.102
		c0.26-0.146,0.535-0.096,0.852-0.1c8.805-0.135,17.704,0.047,26.576,0.051c4.371,0,8.776,0.049,13.138,0.049
		c12.87,0.002,26.042,0.152,39.313,0.15c8.755,0,17.461-0.023,26.124,0.15c0.191,27.855-0.102,56.408-0.1,84.844
		c0,1.808,0.075,3.617-0.151,5.365c-21.17,0.227-42.918-0.1-64.184-0.1c-6.238,0-12.385-0.051-18.704-0.051
		c-0.839,0-1.698-0.115-2.507,0.15c-0.158,7.467-0.242,15.01-0.05,22.715c0.041,0.043,0.137,0.031,0.15,0.1
		c28.411,0.16,57.042,0.137,85.244,0.402c0.184,1.688,0.1,3.441,0.1,5.164c0,1.711-0.175,3.443-0.051,5.064
		c0.13,1.682,0.084,3.42,0.051,5.115c-0.033,1.662,0.025,3.338-0.15,4.965c-4.316,0.121-8.694,0.049-13.088,0.049
		c-30.592,0.004-62.55-0.23-92.866-0.35c-0.266-0.836-0.15-1.75-0.15-2.607c0-13.061,0.206-27.213,0.05-40.617
		c-0.049-0.002-0.039-0.061-0.05-0.1c-12.462-0.334-25.77-0.076-38.21-0.352c-0.137,0.037-0.101-0.1-0.201-0.1
		C-0.053,105.08,0.21,77.496,0.21,49.842c0-5.564-0.11-11.137,0-16.697c0.193-9.736,0.101-19.459,0.101-29.084
		c0-1.043,0.024-2.098,0.05-3.109C0.367,0.682,0.247,0.303,0.511,0.1C0.548,0.053,0.602,0.024,0.662,0
		c19.591-0.002,38.94,0.197,58.918,0.199c2.119,0,3.871,0.088,5.466,0.502c4.555,1.184,7.653,4.162,9.878,7.924
		c1.043,1.762,1.926,3.977,2.557,6.367c0.184,0.697,0.385,2.098,0.853,2.105c0.573,0.012,0.61-1.492,0.702-1.955
		c0.995-5.018,3.16-9.359,6.669-11.834c2.104-1.482,4.533-2.59,7.672-2.908c3.141-0.318,6.655,0.096,10.28-0.051
		c3.198-0.127,6.693,0.002,10.179,0C124.092,0.35,134.363,0.324,144.975,0.5z M92.926,63.131c-10.637,0-21.326-0.229-31.59-0.102
		c-0.531,0.008-1.449-0.008-1.906,0.201c-0.231,10.269-0.15,20.838-0.15,30.889c0,2.018-0.05,4.027-0.05,6.018
		c0,3.061,0.085,6.168-0.05,9.076c-0.046,0.996-0.084,2.035,0.15,3.008c20.749,0.189,42.054,0.299,62.88,0.301
		c0.611,0,1.314,0.117,1.905-0.15c0.219-11.822,0.201-24.193,0.201-36.605c0-4.156,0.084-8.291-0.1-12.385
		C114.048,63.219,103.501,63.129,92.926,63.131z"/>
</g>
<g id="Layer_1">
</g>
</svg>
