<?xml version="1.0" encoding="iso-8859-1"?>
<!-- Generator: Adobe Illustrator 19.2.0, SVG Export Plug-In . SVG Version: 6.00 Build 0)  -->
<svg version="1.1" xmlns="http://www.w3.org/2000/svg" xmlns:xlink="http://www.w3.org/1999/xlink" x="0px" y="0px"
	 viewBox="0 0 83.495 59.609" style="enable-background:new 0 0 83.495 59.609;" xml:space="preserve">
<g id="National_x5F_Homes_x5F_Construction">
	<path style="fill-rule:evenodd;clip-rule:evenodd;" d="M50.957,0.125c0.333,10.858-0.083,22.471,0.2,33.764
		c0.513,0.028,0.809-0.507,1.102-0.801c4.923-4.923,9.473-10.527,14.577-15.329c5.551,0.193,11.101-0.16,16.481,0.1
		c0.255,3.308,0.149,6.77,0.15,10.27c0.001,9.567-0.002,19.283,0,28.905c0,0.805,0.118,1.672-0.15,2.455
		c-6.001,0.143-12.757,0.197-18.535-0.05c-0.338-7.987,0.05-16.308-0.251-24.897c-1.011-0.268-2.163-0.15-3.306-0.15
		c-3.312,0-7.033-0.028-9.969,0c-0.271,0.976-0.15,2.041-0.15,3.056c0.001,6.268-0.001,12.482,0,18.985
		c0,1.007,0.117,2.046-0.15,3.006c-4.305,0.221-8.99,0.05-13.426,0.05c-1.484,0-2.983,0.121-4.357-0.15
		c-0.319-13.866,0.134-27.883-0.251-41.579c-1.124-0.272-2.375-0.15-3.606-0.15c-3.62,0-7.494-0.137-10.971,0.05
		c-0.344,1.688-0.062,3.428-0.101,5.16c-0.265,11.831,0.252,24.333-0.1,36.519c-5.867,0.185-12.209,0.149-17.934-0.05
		c-0.207-6.532-0.08-13.767-0.151-20.589c-0.011-1.016-0.159-2.224,0.051-3.005c0.167-0.625,1.447-1.663,2.054-2.305
		c7.711-8.157,15.174-16.507,22.993-24.496c2.086-2.131,4.057-4.458,6.262-6.663c0.71-0.71,1.486-1.811,2.154-2.204
		C39.119,0.005,45.403-0.052,50.957,0.125z"/>
</g>
<g id="Layer_1">
</g>
</svg>
