<?xml version="1.0" encoding="iso-8859-1"?>
<!-- Generator: Adobe Illustrator 19.2.0, SVG Export Plug-In . SVG Version: 6.00 Build 0)  -->
<svg version="1.1" xmlns="http://www.w3.org/2000/svg" xmlns:xlink="http://www.w3.org/1999/xlink" x="0px" y="0px"
	 viewBox="0 0 71.958 72.274" style="enable-background:new 0 0 71.958 72.274;" xml:space="preserve">
<g id="natursteinwerke">
	<path style="fill-rule:evenodd;clip-rule:evenodd;" d="M48.06,0.124c0.249,1.929,0.146,3.965,0.146,6.029c0,5.28,0,10.27,0,15.509
		c0,1.047-0.166,2.263,0.048,3.161c0.169,0.71,0.79,1.573,1.167,2.334c2.636,5.313,5.462,11.031,8.071,16.141
		c0.535,0.778,0.732,1.893,1.458,2.48c0.159-1.805,0.196-3.681,0.146-5.543c-0.15-5.62,0-11.391,0-16.968
		c0-3.873-0.174-7.832-0.049-11.717c0.125-3.853-0.163-7.68,0.146-11.426c3.972-0.162,8.62-0.162,12.592,0
		c0.264,1.468,0.146,2.969,0.146,4.473c0,10.567,0,21.442,0,31.942c0,11.984,0.099,23.887-0.097,35.735
		c-0.598-0.192-0.677-0.89-0.924-1.362c-2.816-5.381-5.595-10.976-8.362-16.481c-1.004-1.997-1.908-4.034-3.111-5.883
		C48.99,48.51,39.27,48.5,29.001,48.499c-1.408,0-2.815-0.196-4.181,0.098c-0.036,1.154,0.734,2.084,1.167,3.063
		c1.713,3.876,3.596,7.785,5.542,11.571c0.987,1.92,1.764,3.865,2.723,5.834c0.465,0.954,0.995,1.913,1.215,2.966
		c-0.876,0.256-1.865,0.166-2.869,0.146c-2.989-0.059-6.287,0.083-9.14-0.146c-0.263-0.948-0.146-1.977-0.146-2.966
		c0-6.115,0-12.174,0-18.475c0-1.035,0.136-2.165-0.048-3.014c-0.165-0.76-0.885-1.765-1.313-2.528
		c-1.371-2.446-2.703-5.234-3.889-7.633c-1.286-2.6-2.497-5.136-3.744-7.779c-0.399-0.845-0.833-1.716-1.41-2.431
		c-0.232,0.872-0.201,1.806-0.194,2.723c0.02,2.656,0,5.54,0,8.266c0,11.109,0.137,22.524-0.097,33.838
		c-3.085,0.23-6.432,0.101-9.432,0.146c-1.036,0.016-2.104,0.101-3.063-0.146c-0.158-23.646-0.167-48.057,0-71.664
		c0.481,0.296,0.643,0.901,0.875,1.362C1.72,3.158,2.425,4.677,3.137,6.201C4.984,10.16,6.9,13.988,8.971,17.967
		c0.72,1.383,1.383,2.9,2.188,4.424c0.29,0.549,0.579,1.157,0.924,1.41c10.704,0.055,21.501,0.097,32.72,0.098
		c0.679,0,1.402,0.111,2.042-0.146c0.048-0.577-0.292-1.12-0.535-1.604c-1.691-3.362-3.525-6.817-5.154-10.307
		c-0.928-1.989-2.072-3.891-2.966-5.883c-0.667-1.486-1.471-2.944-2.236-4.376c-0.234-0.438-0.646-0.952-0.486-1.507
		C39.308-0.019,43.914-0.047,48.06,0.124z"/>
</g>
<g id="Layer_1">
</g>
</svg>
