<?xml version="1.0" encoding="iso-8859-1"?>
<!-- Generator: Adobe Illustrator 19.2.0, SVG Export Plug-In . SVG Version: 6.00 Build 0)  -->
<svg version="1.1" xmlns="http://www.w3.org/2000/svg" xmlns:xlink="http://www.w3.org/1999/xlink" x="0px" y="0px"
	 viewBox="0 0 69.324 74.39" style="enable-background:new 0 0 69.324 74.39;" xml:space="preserve">
<g id="Naturkundemuseum_x5F_Bielefeld">
	<path style="fill-rule:evenodd;clip-rule:evenodd;" d="M36.756,1.706c1.847,1.927,3.814,3.734,5.583,5.738
		c0.091,1.733,0.051,3.617,0.051,5.48c0,1.855-0.122,3.754,0.155,5.376c0.503,0.007,0.768-0.479,1.086-0.775
		c0.309-0.286,0.637-0.585,0.931-0.879c1.816-1.816,3.621-3.694,5.531-5.479c2.343,0.087,5.044-0.185,7.134,0.155
		c0.447,1.569-0.112,3.83,0.311,5.428c1.468,0.321,3.197,0.109,4.756,0.155c0.766,0.023,1.526,0.067,2.274,0.104
		c0.78,0.037,1.579-0.216,2.274,0.103c0.268,0.944,0.207,2.235,0.207,3.516c0,1.255,0.001,2.58-0.052,3.722
		c-1.039,1.339-2.326,2.43-3.515,3.619c-2.946,2.946-5.932,5.951-8.789,9.046c-0.549,0.595-1.354,1.071-1.602,1.913
		c0.721,0.353,1.642,0.207,2.533,0.207c2.585,0,5.467,0,8.064,0c1.552,1.247,2.784,2.75,4.343,4.188
		c0.398,0.367,1.282,1.017,1.292,1.551c0.011,0.511-0.939,1.242-1.344,1.654c-1.094,1.116-1.839,1.891-2.946,2.998
		c-0.349,0.348-1.008,1.226-1.551,1.396c-0.865,0.271-2.479,0.069-3.567,0.052c-2.005-0.033-3.713-0.012-5.583,0.155
		c0.084,0.566,0.604,0.967,0.982,1.344c2.266,2.266,4.563,4.512,6.927,6.876c0.38,0.379,0.926,0.87,1.034,1.24
		c0.111,0.382,0,0.95,0,1.396c0,0.977,0.052,2.213,0.052,3.412c0,1.155,0.138,2.335-0.207,3.205
		c-2.124,0.253-4.705,0.155-7.134,0.155c-0.747,0-1.703,0.124-2.326-0.052c-0.645-0.181-1.44-1.233-1.965-1.757
		c-0.321-0.321-0.583-0.687-0.879-0.982c-0.324-0.324-0.717-0.526-0.982-0.827c-0.291-0.33-0.483-0.71-0.775-1.034
		c-1.337-1.486-2.973-3.002-4.445-4.446c-0.598-0.586-1.104-1.33-1.861-1.654c-0.355,0.584-0.207,1.393-0.207,2.119
		c0,2.165,0.087,4.482,0,6.617c-1.047,1.493-2.375,2.582-3.722,3.929c-0.929,0.929-1.825,1.849-2.844,2.895
		c-0.292,0.301-0.786,0.824-1.085,0.827c-0.588,0.006-1.665-1.52-2.017-1.861c-0.651-0.633-1.329-1.381-1.912-1.964
		c-1.358-1.356-2.671-2.474-3.774-3.929c-0.069-1.843,0.158-3.984-0.155-5.584c-0.733,0.125-1.151,0.841-1.654,1.344
		c-1.037,1.037-1.968,1.917-3.102,3.05c-0.451,0.452-1.15,1.479-1.654,1.551c-1.268,0.183-2.861,0-4.393,0
		c-1.468,0-2.958,0.082-4.239-0.103c-0.209-0.859-0.155-1.868-0.155-2.895c0-0.972-0.184-2.124,0.052-2.947
		c0.156-0.547,0.916-1.122,1.344-1.551c0.538-0.538,1.085-0.928,1.345-1.551c-0.491-0.366-1.23-0.207-1.861-0.207
		c-1.306,0-2.542,0-3.929,0c-0.692,0-1.369,0.103-1.861-0.052C6.379,57.52,5.846,56.766,5.48,56.4
		c-1.008-1.008-1.621-1.673-2.688-2.74c-0.388-0.389-1.279-0.935-1.292-1.396c-0.014-0.491,0.866-1.169,1.24-1.5
		c1.471-1.298,2.546-2.892,4.084-4.032c2.22-0.03,4.893,0.239,7.031-0.104c-0.184-0.632-0.766-0.986-1.189-1.396
		c-0.429-0.415-0.73-0.96-1.24-1.292c-0.416-0.423-0.803-0.803-1.293-1.293c-0.341-0.341-1.128-0.857-1.137-1.396
		c-0.011-0.587,1.397-1.708,1.757-2.068c0.33-0.33,0.679-0.626,0.982-0.931c0.305-0.304,0.711-0.612,0.775-1.085
		c-0.57-0.281-1.252-0.155-1.912-0.155c-1.305,0-2.589,0.031-3.929,0.052c-0.64,0.01-1.34,0.041-1.81-0.104
		c-0.529-0.162-0.976-0.717-1.345-1.085c-0.879-0.879-1.421-1.385-2.378-2.378C0.843,33.194,0.019,32.599,0,32.258
		c-0.026-0.476,1.009-1.2,1.344-1.551c1.066-1.115,1.86-1.8,2.946-2.843c0.445-0.427,1.035-1.247,1.5-1.396
		c1.413-0.454,3.837,0.426,5.221-0.155c0.032-0.611-0.768-0.81-0.982-1.344c-0.418-0.392-0.895-0.725-1.188-1.241
		c-0.024-1.342-0.024-2.819-0.052-4.188c-0.029-1.47-0.099-3,0.155-4.342c2.284-0.124,4.451-0.159,6.772-0.103
		c0.71,0.017,1.615-0.086,2.275,0.052c0.38,0.08,0.85,0.576,1.24,0.931c1.172,1.064,2.04,2.268,3.257,3.257
		c1.055,1.125,2.139,2.152,3.205,3.309c0.332,0.359,0.729,0.793,1.24,0.879c0.301-0.579,0.13-1.264,0.155-1.913
		c0.179-4.459-0.025-9.522,0.052-14.113c1.037-1.438,2.447-2.52,3.671-3.774c1.218-1.247,2.384-2.544,3.67-3.722
		C35.622-0.012,36.013,1.151,36.756,1.706z M34.895,3.515c-0.174,1.277-0.052,2.808-0.052,4.239c-0.001,7.294,0,14.754,0,21.971
		c0,2.913-0.106,5.778,0.155,8.53c0.641,0.028,1.001-0.639,1.396-1.034c0.434-0.434,0.918-0.844,1.292-1.292
		c0.477-0.857,2.143-1.626,2.43-2.688c0.204-0.756,0.052-1.931,0.052-3.05c0-6.282,0-12.467,0-18.662
		c0-1.147,0.168-2.379-0.052-3.102c-0.164-0.539-0.815-0.971-1.188-1.344c-0.484-0.484-0.856-0.972-1.293-1.241
		c-0.873-0.832-1.52-1.892-2.636-2.481C34.933,3.381,34.892,3.427,34.895,3.515z M31.897,5.635c-0.38,0.303-0.76,0.759-1.241,1.24
		c-0.39,0.39-1.015,0.746-1.188,1.345c-0.2,0.684-0.104,1.874-0.104,2.946c0,6.179,0.052,12.421,0.052,18.559
		c0,1.137-0.158,2.323,0.052,3.05c0.151,0.527,0.844,1.129,1.24,1.499c0.519,0.485,1.015,1.079,1.551,1.137
		c0.188-8.506,0.104-17.68,0.104-26.313c0-1.207,0.164-2.46-0.207-3.567c-0.034,0-0.068,0-0.103,0
		C31.991,5.556,31.934,5.587,31.897,5.635z M51.024,13.286c-0.343,0.106-0.803,0.572-1.138,0.982
		c-2.258,2.769-5.375,5.121-7.443,7.754c0.005,0.761-0.107,1.706,0.103,2.482c0.667-0.132,1.108-0.746,1.551-1.189
		c2.318-2.318,4.541-4.747,6.824-7.03c0.46-0.46,0.929-0.93,1.396-1.396c0.451-0.451,1.054-0.899,1.241-1.551
		C52.809,13.245,51.855,13.029,51.024,13.286z M55.004,15.509c-1.849,1.46-3.312,3.304-5.066,4.859
		c-2.233,2.85-5.106,5.06-7.444,7.806c0.038,0.755-0.356,1.94,0.155,2.378c0.425-0.02,0.667-0.42,0.931-0.672
		c1.944-1.86,3.712-3.851,5.687-5.635c0.988-1.347,2.025-2.225,3.36-3.619c0.383-0.4,0.838-0.902,1.344-1.396
		c0.458-0.446,1.194-0.965,1.345-1.447c0.212-0.68,0.062-1.949-0.259-2.274C55.039,15.509,55.022,15.509,55.004,15.509z
		 M27.037,27.347c-0.668-1.022-1.633-1.788-2.48-2.637c-1.72-1.719-3.426-3.425-5.118-5.118c-0.846-0.845-1.664-1.777-2.688-2.43
		c-0.881,0.12-1.941-0.104-2.585,0.155c0.179,0.789,0.92,1.23,1.447,1.758c3.201,3.201,6.53,6.395,9.616,9.615
		c0.485,0.507,0.955,1.228,1.705,1.396C27.227,29.465,27.078,28.131,27.037,27.347z M32.362,39.133
		c-6.908-7.137-14.071-14.016-21.092-21.04c-0.163-0.025-0.202,0.074-0.311,0.104c0.142,1.19-0.384,3.098,0,4.342
		c0.132,0.426,0.793,0.948,1.241,1.396c4.937,4.938,9.742,9.846,14.578,14.681c1.347,1.347,2.679,2.679,3.98,3.98
		c0.442,0.443,0.882,0.978,1.499,1.189C32.426,42.391,32.433,40.601,32.362,39.133z M57.538,19.076
		c-0.529,0.136-1.052,0.86-1.551,1.344c-1.481,1.435-2.951,2.899-4.291,4.239c-0.992,0.992-1.848,2.007-2.74,2.947
		c-0.912,0.96-1.858,1.859-2.843,2.843c-3.243,3.244-6.52,6.779-9.822,10.081c-0.499,0.499-1.211,1.049-1.344,1.551
		c-0.148,0.558-0.061,1.324-0.052,1.964c0.011,0.735-0.024,1.388,0.206,1.861c0.795-0.238,1.261-0.974,1.81-1.499
		c1.71-1.636,3.305-3.304,4.963-4.962c4.442-4.442,8.664-9.078,13.079-13.493c1.93-1.93,3.898-3.899,5.79-5.79
		c0.253-0.253,0.675-0.545,0.62-0.982C60.386,19.102,58.698,18.778,57.538,19.076z M50.404,33.809
		c-0.596,0.596-1.047,1.253-1.654,1.861c-1.786,1.786-3.401,3.505-5.222,5.324c-1.475,1.475-3.579,3.574-5.221,5.325
		c-0.321,0.341-1.659,1.455-1.654,1.913c0.004,0.459,1.491,1.925,1.912,1.913c0.438-0.012,1.386-1.157,1.758-1.551
		c2.745-2.904,5.645-5.477,8.272-8.323c1.578-1.71,3.236-3.527,4.859-5.118c1.729-1.695,3.208-3.335,4.911-5.066
		c1.586-1.612,3.393-3.341,5.015-4.963c0.56-0.56,1.396-1.214,1.551-1.81c0.121-0.467,0.052-1.131,0.052-2.016
		c0-0.502,0.156-2.198-0.569-1.603C59.622,24.374,55.094,29.119,50.404,33.809z M13.648,28.846c-2.636,0.07-5.079-0.188-7.548,0.052
		c-0.373,0.251-0.962,0.549-0.931,1.034c0.655,0.278,1.448,0.155,2.172,0.155c1.281,0,2.565,0.058,3.67,0.051
		c1.231-0.007,2.553,0.019,3.671-0.155C14.599,29.343,14.087,29.131,13.648,28.846z M17.266,32.413c-3.637-0.084-8.387,0-12.045,0
		c-0.572,0-1.241-0.179-1.499,0.155c-0.027,0.506,0.511,0.768,0.879,1.137c0.354,0.356,0.636,0.815,1.086,0.982
		c0.668,0.248,2.374,0.157,3.412,0.155c2.275-0.005,5.694,0.004,7.754,0c0.956-0.002,1.761,0.1,2.533-0.207
		C18.96,33.614,18.002,33.125,17.266,32.413z M23.263,38.255c-0.465-0.464-0.918-1.002-1.499-1.292
		c-1.725,0.182-3.943-0.172-5.376,0c-0.777,0.094-1.097,0.91-1.603,1.292c-0.386,0.51-1.092,0.7-1.189,1.5
		c2.562,0.213,5.868,0.047,8.685,0.103c0.767,0.015,1.661,0.253,2.172-0.155C24.35,39.082,23.704,38.696,23.263,38.255z
		 M62.862,41.408c-1.737-0.079-3.819-0.103-5.944-0.103c-2.133,0-4.39-0.206-6.101,0c-0.484,0.058-0.94,0.617-1.292,1.034
		c-0.347,0.411-0.835,0.783-0.827,1.189c0.502,0.274,1.111,0.155,1.654,0.155c3.31,0,6.222,0.052,9.253,0.052
		c1.291,0,2.629-0.104,3.878-0.052c0.517,0.022,1.061,0.203,1.499-0.155C64.461,42.635,63.757,41.926,62.862,41.408z M30.449,45.389
		c-1.134-1.112-2.125-2.294-3.412-3.205c-4.528-0.01-9.059-0.072-13.699,0c-0.227,0.571,0.46,0.925,0.775,1.241
		c1.108,1.107,2.205,2.348,3.412,3.257c4.494,0.094,9.392,0.235,13.854-0.052C31.361,46.051,30.792,45.725,30.449,45.389z
		 M52.419,46.009c-1.055,0-2.137-0.156-2.895,0.207c-0.016,0.587,0.562,0.924,0.931,1.292c0.389,0.389,0.72,0.884,1.189,1.138
		c2.254,0.155,4.674,0.104,7.134,0.104c1.292,0,2.956,0.243,3.878-0.104c0.449-0.169,0.977-0.804,1.292-1.138
		c0.392-0.414,0.933-0.849,0.982-1.396C61.125,45.896,56.505,46.009,52.419,46.009z M45.802,46.32
		c-0.32,0.036-1.355,1.062-1.344,1.499c0.009,0.382,1.031,1.238,1.292,1.499c1.046,1.046,1.89,1.837,2.844,2.792
		c0.502,0.502,0.859,1.06,1.292,1.551c0.604,0.685,1.42,1.316,2.12,2.016c2.066,2.067,4.228,4.383,6.203,6.255
		c0.405,0.529,0.891,0.966,1.344,1.448c0.434,0.46,0.903,1.011,1.551,1.24c0.396-0.747,0.126-1.953,0.104-2.895
		c-0.859-1.128-1.899-2.106-2.895-3.102c-2.021-2.021-4.035-4.023-6.049-5.997c-1.594-1.562-3.038-3.234-4.549-4.808
		C47.048,47.589,46.676,46.222,45.802,46.32z M34.947,49.886c-0.336-0.335-0.65-0.69-1.086-0.827
		c-0.409-0.128-1.127-0.072-1.551-0.052c-3.245,0.151-7.047-0.056-10.805,0c-3.401,0.05-6.894,0.051-10.442,0.052
		c-1.092,0-2.635-0.204-3.412,0.052c-0.457,0.15-0.63,0.557-0.981,0.878c-0.34,0.311-0.807,0.532-0.776,1.034
		c8.558,0.275,18.554,0.052,27.037,0.052c0.943,0,1.904,0.188,2.792-0.104C35.662,50.537,35.255,50.196,34.947,49.886z
		 M40.323,51.954c0.015,0.544,1.23,1.401,1.706,1.913c1.787,1.916,3.744,3.744,5.479,5.48c1.2,1.2,2.272,2.333,3.567,3.722
		c0.535,0.574,1.165,1.168,1.81,1.861c0.519,0.56,1.33,1.54,1.912,1.757c1.079,0.403,3.649-0.013,4.653,0
		c-0.024-0.561-0.557-0.906-0.879-1.241c-1.064-1.104-2.073-2.159-3.206-3.153c-1.435-1.391-2.753-2.898-4.238-4.239
		c-2.022-2.216-4.069-4.409-6.255-6.461c-0.835-0.596-1.239-1.622-2.275-2.017C42.273,49.841,40.309,51.439,40.323,51.954z
		 M24.814,53.453c-4.809,0.02-9.8,0.041-14.526,0.052c-1.465,0.003-2.938-0.152-4.343,0.155c0.048,0.447,0.386,0.695,0.672,0.982
		c0.293,0.293,0.564,0.669,0.931,0.775c0.649,0.188,1.878,0.07,2.689,0.052c7.102-0.161,15.594,0.134,22.953-0.052
		c0.39-0.151,0.684-0.529,0.982-0.827c0.275-0.276,0.772-0.551,0.672-1.034C31.597,53.34,28.237,53.439,24.814,53.453z
		 M34.947,57.33c-0.006,3.4,0,6.865,0,10.288c0,1.146-0.127,2.316,0.154,3.36c1.114-0.539,1.856-1.545,2.689-2.378
		c0.853-0.853,1.694-1.718,2.481-2.637c0.085-3.379,0.087-7.116,0-10.494c-0.417-0.737-0.932-1.377-1.706-1.758
		C37.189,54.748,36.009,55.981,34.947,57.33z M29.725,57.899c-0.214,2.535-0.084,5.419-0.104,8.013
		c0.292,0.598,0.842,0.997,1.293,1.448c0.442,0.442,0.825,1.112,1.551,1.241c0.188-1.643,0.103-3.537,0.103-5.376
		c-0.001-1.872,0.124-3.771-0.155-5.376C31.784,57.539,30.311,57.554,29.725,57.899z M15.974,59.812
		c-0.76,0.761-1.51,1.446-1.964,2.171c0.098,0.711-0.22,1.839,0.206,2.223c0.742-0.231,1.169-0.949,1.706-1.448
		c1.113-1.035,2.142-2.083,3.153-3.154c0.508-0.536,1.222-0.954,1.396-1.706C18.009,57.044,17.132,58.654,15.974,59.812z
		 M24.453,57.692c-0.666,0.083-1.564,1.202-2.068,1.706c-1.191,1.191-2.326,2.43-3.464,3.567c-0.631,0.631-1.467,1.099-1.654,1.913
		c0.539,0.193,1.512,0.201,2.172,0.103c1.402-0.94,2.32-2.367,3.618-3.412c1.009-1.335,2.489-2.198,3.36-3.67
		C25.889,57.685,25.098,57.612,24.453,57.692z"/>
</g>
<g id="Layer_1">
</g>
</svg>
