<?xml version="1.0" encoding="iso-8859-1"?>
<!-- Generator: Adobe Illustrator 19.2.0, SVG Export Plug-In . SVG Version: 6.00 Build 0)  -->
<svg version="1.1" xmlns="http://www.w3.org/2000/svg" xmlns:xlink="http://www.w3.org/1999/xlink" x="0px" y="0px"
	 viewBox="0 0 81.902 82.277" style="enable-background:new 0 0 81.902 82.277;" xml:space="preserve">
<g id="Nazareno_x5F_Gabrielli">
	<path style="fill-rule:evenodd;clip-rule:evenodd;" d="M13.193,71.319C7.722,66.374,3.741,60.244,1.503,52.165
		c-1.142-4.123-1.659-9.134-1.462-13.831c0.195-4.601,1.283-9.076,2.662-12.734c0.701-1.858,1.705-3.478,2.609-5.115
		c0.925-1.672,2.004-3.173,3.08-4.645c1.613-2.209,3.52-4.252,5.637-5.95c0.693-0.556,1.48-1.036,2.191-1.618
		c0.734-0.6,1.393-1.178,2.191-1.67c3.902-2.401,8.38-4.515,13.675-5.584c1.078-0.218,2.151-0.395,3.287-0.574
		c2.905-0.457,6.645-0.527,10.125-0.365c2.108,0.098,4.226,0,6.211,0c4.172,0,8.513,0.052,12.578,0.052
		c2.276,0,4.115-0.012,5.845,0.47c3.332,0.928,5.873,2.656,7.934,4.906c1.041,1.137,1.794,2.42,2.505,3.914
		c0.652,1.371,1.215,3.248,1.252,5.167c0.12,6.074-0.193,13.188-0.052,19.102c0.106,4.416,0.295,8.728-0.156,12.578
		c-0.431,3.669-1.346,7.261-2.558,10.281c-2.421,6.03-6.098,10.918-10.542,15.187c-2.097,2.013-4.818,3.883-7.464,5.376
		c-2.806,1.582-5.801,2.789-9.081,3.758c-6.773,2-15.82,1.828-22.39-0.261c-3.317-1.055-6.334-2.207-9.028-3.81
		C17.873,75.205,15.477,73.418,13.193,71.319z M49.361,11.509c2.506,1.833,5.055,3.531,7.567,5.271
		c2.038,1.411,3.943,2.89,6.002,4.28c0.996,0.672,2.003,1.411,3.027,2.14c1.439,1.025,3.124,2.002,4.436,3.288
		c0.412,0.404,1.013,1.148,1.566,0.939c0.599-0.226,0.365-2.322,0.365-3.288c0-2.603,0-4.931,0-7.359
		c0-1.092,0.041-2.476-0.261-3.444c-0.385-1.231-1.579-2.493-2.662-3.079c-1.36-0.737-3.504-0.58-5.584-0.679
		c-4.058-0.192-8.46-0.052-12.474-0.052c-1.293,0-3.053-0.345-3.235,0.678C48.244,10.853,48.902,11.173,49.361,11.509z
		 M9.592,44.806c0.819,6.043,2.764,10.602,5.638,14.718c2.728,3.907,6.175,7.306,10.751,9.603c0.98,0.492,2.068,1.058,3.444,1.618
		c0.495,0.201,3.287,1.605,3.811,0.783c0.38-0.599-0.464-1.398-0.731-1.879c-0.408-0.734-0.599-1.334-0.783-2.035
		c-0.416-1.588-0.324-3.409-0.312-5.167c0.006-0.914-0.126-1.855-0.104-2.766C31.59,47.729,31.46,35.015,31.46,22.73
		c0-1.93-0.125-3.871,0-5.741c0.122-1.816,0.691-3.389,1.409-4.697c0.239-0.436,1.235-1.873-0.156-1.722
		c-1.803,0.196-3.902,1.076-5.22,1.774c-0.787,0.418-1.596,0.692-2.296,1.096c-0.729,0.421-1.377,0.894-2.035,1.357
		c-2.747,1.934-5.167,3.877-6.994,6.576C11.879,27.082,8.211,34.606,9.592,44.806z M41.324,39.013c0,0.846-0.289,2.027,0.47,2.505
		c0.577,0.095,0.783-0.481,0.991-0.783c0.791-1.142,1.478-2.037,2.453-2.975c1.652-1.587,4.32-3.248,6.89-3.966
		c1.914-0.536,4.41-0.417,6.732-0.417c0.903,0,2.989,0.321,3.131-0.522c0.15-0.897-1.737-1.574-2.14-2.036
		c-1.941-1.669-4.123-3.029-6.211-4.54c-2.084-1.508-4.154-3.07-6.263-4.541c-0.729-0.448-1.544-1.177-2.453-1.827
		c-0.899-0.643-1.805-1.443-2.714-1.618c-0.294-0.057-0.522,0.295-0.73,0.417C41.351,25.123,41.324,32.679,41.324,39.013z
		 M51.084,71.162c0.858-0.323,1.767-0.606,2.557-0.939c3.306-1.395,6.039-3.221,8.403-5.584c1.137-1.137,2.543-2.311,3.444-3.601
		c1.932-2.767,3.702-5.434,5.011-9.029c0.585-1.611,1.071-3.591,1.461-5.532c0.113-0.564,0.261-1.927,0.261-3.236
		c0-1.143,0.272-2.73-0.679-2.87c-0.363-0.054-0.819,0.549-1.043,0.73c-1.442,1.166-3.512,2.175-5.95,2.244
		c-5.212,0.146-10.686-0.454-12.943,2.662c-1.053,1.453-1.137,3.586-1.305,6.002c-0.245,3.543-0.027,7.482-0.053,10.804
		c-0.01,1.334,0.12,2.723,0,3.914c-0.102,1.026-0.53,1.898-0.887,2.609c-0.352,0.701-0.967,1.324-0.887,2.192
		C49.321,72.092,50.33,71.446,51.084,71.162z"/>
</g>
<g id="Layer_1">
</g>
</svg>
