<?xml version="1.0" encoding="iso-8859-1"?>
<!-- Generator: Adobe Illustrator 21.0.2, SVG Export Plug-In . SVG Version: 6.00 Build 0)  -->
<svg version="1.1" xmlns="http://www.w3.org/2000/svg" xmlns:xlink="http://www.w3.org/1999/xlink" x="0px" y="0px"
	 viewBox="0 0 18.349 24.107" style="enable-background:new 0 0 18.349 24.107;" xml:space="preserve">
<g id="NEPTCO">
	<path d="M9.114,0.051c1.146-0.092,2.458-0.086,3.368,0.723c0.785,0.735,1.217,1.764,1.462,2.793c0.95,4.1,0.723,8.417-0.273,12.487
		c-0.054,0.22-0.12,0.438-0.212,0.645c-0.015,0.001-0.045,0.004-0.059,0.005c-0.679-2.43-0.695-4.985-0.95-7.483
		c-0.021-0.57-0.185-1.127-0.144-1.7c0.045-1.699-0.271-3.404-0.915-4.976c-0.365-0.931-1.059-1.751-1.988-2.153
		C9.248,0.341,9.081,0.242,9.114,0.051z"/>
	<path d="M12.948,0.048c0.836-0.08,1.714-0.083,2.525,0.176c1.01,0.331,1.641,1.295,2.015,2.239
		c0.399,1.027,0.566,2.127,0.697,3.215c0.317,2.711,0.143,5.455-0.246,8.148c-0.336,1.926-0.762,3.916-1.874,5.559
		c-0.645,0.55-1.655-0.071-1.931-0.742c0.846-1.714,1.321-3.594,1.65-5.471c0.429-3.325,0.565-6.761-0.311-10.029
		c-0.29-1.054-0.887-2.117-1.917-2.595C13.346,0.39,12.918,0.401,12.948,0.048z"/>
	<path d="M7.517,3.881c0.589-0.128,1.22-0.172,1.814-0.038c0.768,0.212,1.36,0.829,1.7,1.531c0.587,1.217,0.766,2.575,0.923,3.902
		c0.193,1.404,0.225,2.823,0.389,4.231c0.162,1.677,0.368,3.396,1.111,4.93c0.373,0.825,1.107,1.675,2.103,1.576
		c-0.199,0.224-0.514,0.296-0.798,0.34c-0.91,0.087-1.92,0.048-2.66-0.559c-0.933-0.807-1.32-2.047-1.585-3.211
		c-0.579-2.719-0.556-5.515-0.933-8.26C9.349,6.69,8.819,4.981,7.517,3.881z"/>
	<path d="M2.861,4.167c0.418-0.418,1.078-0.363,1.625-0.371C5.131,3.79,5.829,3.905,6.328,4.347c0.68,0.536,1.061,1.35,1.296,2.164
		c0.322,1,0.409,2.05,0.577,3.082c0.206,1.898,0.333,3.804,0.541,5.701c0.272,1.778,0.725,3.716,2.182,4.913
		c-0.819,0.206-1.776,0.162-2.51-0.305c-0.587-0.419-0.998-1.045-1.228-1.723c-1.253-3.545-0.735-7.407-1.69-11.016
		c-0.209-0.762-0.5-1.512-0.957-2.162C4.151,4.486,3.534,4.066,2.861,4.167z"/>
	<path d="M2.768,4.587C3.403,4.531,4.052,4.943,4.31,5.505c-0.89,1.734-1.374,3.646-1.737,5.551
		c-0.432,3.178-0.449,6.455,0.311,9.587c0.286,1.286,1.062,2.546,2.32,3.067c0.15,0.028,0.352,0.214,0.221,0.356
		c-1.064,0.031-2.223,0.04-3.138-0.587c-1.032-0.743-1.502-2.005-1.762-3.204c-0.908-4.211-0.58-8.622,0.553-12.757
		C1.357,6.701,1.658,5.88,2.1,5.135C2.25,4.888,2.447,4.595,2.768,4.587z"/>
	<path d="M4.925,7.33C4.96,7.335,4.996,7.338,5.031,7.34c0.66,2.734,0.648,5.573,1.023,8.35c0.064,0.423,0.084,0.851,0.062,1.278
		c0.018,1.172,0.179,2.349,0.548,3.464c0.364,1.17,0.842,2.444,1.974,3.077c0.227,0.181,0.7,0.191,0.689,0.561
		c-1.202,0.103-2.573,0.05-3.48-0.86c-0.812-0.819-1.191-1.955-1.42-3.06c-0.815-3.537-0.687-7.228-0.018-10.778
		C4.556,8.685,4.68,7.99,4.925,7.33z"/>
</g>
<g id="Layer_1">
</g>
</svg>
