<?xml version="1.0" encoding="iso-8859-1"?>
<!-- Generator: Adobe Illustrator 19.2.0, SVG Export Plug-In . SVG Version: 6.00 Build 0)  -->
<svg version="1.1" xmlns="http://www.w3.org/2000/svg" xmlns:xlink="http://www.w3.org/1999/xlink" x="0px" y="0px"
	 viewBox="0 0 70.863 78.777" style="enable-background:new 0 0 70.863 78.777;" xml:space="preserve">
<g id="Netra_x5F_71">
	<path style="fill-rule:evenodd;clip-rule:evenodd;" d="M68.899,15.159c0.316,0.389,0.704,0.705,1.058,1.059
		c0.333,0.334,0.805,0.666,0.906,1.209c-2.534,0.225-5.633-0.051-8.26,0.201c-0.25,16.262-0.254,32.795-0.252,49.004
		c0,1.842,0.154,3.695-0.05,5.439c-0.369,3.133-2.154,5.25-4.684,6.295c-1.219,0.504-3.367,0.402-5.137,0.402
		c-3.956,0.002-7.083-0.051-10.929-0.051c-1.793,0-3.792,0.203-5.339-0.15c-2.864-0.654-4.54-2.723-5.54-5.49
		c-0.956-2.645-1.829-5.668-2.669-8.309c-1.802-5.664-3.665-11.182-5.288-16.721c-0.804-2.742-1.771-5.549-2.72-8.311
		c-1.435-4.178-2.716-8.201-4.079-12.44c-0.892-2.775-1.495-5.732-3.173-7.807c-0.824-1.018-1.902-1.934-3.375-2.016
		c-0.072,0.754,0.989,0.967,1.36,1.461c0.429,0.529,1.018,0.896,1.31,1.562c1.418,1.51,1.937,3.812,2.669,5.992
		c0.746,2.221,1.467,4.527,2.166,6.699c-0.011,10.855-0.101,22.666-0.101,34.045c0,3.83,0.098,7.656-0.151,11.332
		c-5.113,0.027-11.302,0.205-16.469-0.102c-0.262-1.76-0.082-3.619-0.101-5.488c-0.159-15.291,0.102-31.064,0.101-46.586
		c0-2.016,0.053-3.781,0.705-5.139c1.258-2.613,3.552-4.275,7.554-4.18c3.49,0.084,7.738,0.051,11.685,0.051
		c1.952,0,4.001-0.072,5.691,0.201c1.69,0.273,2.949,0.885,3.979,1.863c2.541,2.307,3.339,6.166,4.482,9.619
		c1.167,3.525,2.171,7.258,3.375,10.678c1.239,3.52,2.274,7.127,3.425,10.678c1.155,3.564,2.393,7.084,3.425,10.627
		c-0.056,3.244,0.076,6.58,0,9.316c-0.094,3.373-1.658,5.648-3.828,7.102c-0.276,0.186-0.752,0.355-0.856,0.855
		c0.549,0.397,1.151-0.074,1.561-0.301c1.406-0.781,2.432-1.73,3.173-3.174c0.991-1.93,1.208-4.467,1.208-7.303
		c0-5.25,0.17-11.527,0.051-16.871c-0.092-4.08,0.028-8.297,0.05-12.34c0.037-6.652,0.05-13.752-0.05-20.447
		c-1.222-0.271-2.748-0.15-4.23-0.152c-1.484,0-2.989,0.088-4.23-0.15c0.086-0.494,0.525-0.879,0.856-1.209
		c2.425-2.426,4.916-4.914,7.403-7.402c1.341-1.342,2.702-3.006,4.079-4.383c0.976-0.975,2.032-2.133,3.123-3.223
		c0.338-0.338,1.035-1.144,1.309-1.107c0.666,0.084,1.468,1.27,1.964,1.812c0.627,0.684,1.375,1.33,1.864,1.863
		C61.45,7.534,65.481,11.583,68.899,15.159z"/>
</g>
<g id="Layer_1">
</g>
</svg>
