<?xml version="1.0" encoding="iso-8859-1"?>
<!-- Generator: Adobe Illustrator 19.2.0, SVG Export Plug-In . SVG Version: 6.00 Build 0)  -->
<svg version="1.1" xmlns="http://www.w3.org/2000/svg" xmlns:xlink="http://www.w3.org/1999/xlink" x="0px" y="0px"
	 viewBox="0 0 51.785 78.412" style="enable-background:new 0 0 51.785 78.412;" xml:space="preserve">
<g id="Neue_x5F_Darmstadter_x5F_Verlagsanstalt">
	<path style="fill-rule:evenodd;clip-rule:evenodd;" d="M0.261,0c0.518,0.145,1.12,1.152,1.539,1.687
		c1.378,1.762,2.912,3.487,4.169,5.211c4.21,5.173,8.419,10.352,12.655,15.534c1.052,1.287,2.089,2.595,3.127,3.92
		c0.332,0.424,0.571,1.012,1.142,1.191c0.399-0.854,0.248-1.996,0.248-3.176c0-7.716-0.185-16.146,0.05-23.821
		c0.861-0.27,1.802-0.152,2.68-0.149c2.675,0.01,5.764-0.137,8.536-0.05c3.691,0.117,6.501,1.268,8.883,2.73
		c4.583,2.813,8.22,7.619,8.486,14.74c0.131,3.503-0.958,6.764-2.283,9.33c-1.331,2.579-3.192,4.571-5.409,6.204
		c-2.141,1.577-5.008,2.821-8.536,3.077c-2.724,0.197-5.575,0.125-8.437,0.099c-0.767-0.007-2.141,0.13-2.729-0.05
		c-0.443-0.135-1.021-0.989-1.439-1.489c-4.897-5.845-9.523-11.854-14.342-17.717c-1.308-1.591-2.546-3.228-3.921-4.814
		c-0.425-0.49-0.817-1.165-1.489-1.39c-0.334,0.964-0.199,2.029-0.199,3.077c0,6.307,0.049,12.734,0.05,19.206
		c0,1.03,0.119,2.095-0.149,3.077c-0.693,0.16-1.987,0.16-2.68,0c-0.218-1.381-0.149-2.846-0.149-4.318
		c0-4.649,0.059-9.166,0-13.796c-0.064-5.068-0.05-10.563-0.05-15.881c0-0.812-0.064-1.804,0.1-2.283
		C0.14,0.078,0.189,0.028,0.261,0z M38.722,32.903c3.291-1.325,5.443-3.695,6.898-6.849c1.46-3.162,2.206-7.439,1.489-11.662
		c-0.643-3.791-2.527-6.84-5.013-8.784c-1.533-1.303-3.716-2.363-6.501-2.68c-2.703-0.308-6.367-0.206-9.181-0.149
		c-0.402,0.473-0.248,1.151-0.248,1.737c0,4.652,0,9.292,0,13.896c0,3.953-0.128,8.015,0.05,11.762
		c0.061,1.279-0.164,2.588,0.149,3.821C31.03,34.346,35.533,34.188,38.722,32.903z"/>
	<path style="fill-rule:evenodd;clip-rule:evenodd;" d="M41.154,42.581c-0.035,0.868-0.597,1.59-0.943,2.332
		c-0.354,0.761-0.697,1.511-1.092,2.233c-1.168,2.616-2.387,5.392-3.672,7.99c-3.528,7.134-7.002,14.174-10.521,21.489
		c-0.249,0.517-0.683,1.765-1.092,1.787c-0.552,0.029-1.017-1.541-1.29-2.084c-2.641-5.253-5.258-10.455-7.841-15.682
		C12.04,55.45,9.516,50.194,6.861,44.913c-0.363-0.722-0.866-1.442-0.943-2.283c1.345-0.3,3.406-0.124,4.913-0.1
		c0.852,1.014,1.289,2.299,1.836,3.474c1.659,3.567,3.397,7.084,5.062,10.719c1.047,2.286,2.222,4.665,3.424,7.097
		c0.832,1.683,1.643,3.468,2.531,5.359c0.263,0.561,0.715,1.541,1.092,1.539c0.413-0.002,0.773-1.013,1.042-1.588
		c1.961-4.184,3.753-8.396,5.707-12.556c1.996-4.251,3.827-8.163,5.757-12.556c0.341-0.777,0.507-1.5,1.241-1.588
		C39.344,42.333,40.46,42.462,41.154,42.581z"/>
</g>
<g id="Layer_1">
</g>
</svg>
