<?xml version="1.0" encoding="iso-8859-1"?>
<!-- Generator: Adobe Illustrator 19.2.0, SVG Export Plug-In . SVG Version: 6.00 Build 0)  -->
<svg version="1.1" xmlns="http://www.w3.org/2000/svg" xmlns:xlink="http://www.w3.org/1999/xlink" x="0px" y="0px"
	 viewBox="0 0 60.537 80.229" style="enable-background:new 0 0 60.537 80.229;" xml:space="preserve">
<g id="Neukollner_x5F_Olmuhle">
	<path style="fill-rule:evenodd;clip-rule:evenodd;" d="M7.101,0.001c0.034,0,0.067,0,0.101,0
		c6.997,7.02,14.377,14.478,21.556,21.656c0.386,0.386,1.141,1.348,1.511,1.36c0.459,0.015,1.219-1.068,1.511-1.36
		c1.472-1.472,2.812-2.845,4.28-4.332c2.775-2.752,5.564-5.665,8.562-8.662c2.415-2.414,4.743-5.264,7.353-7.706
		c0.302-0.283,0.938-0.943,1.158-0.957c0.52-0.034,1.101,0.848,1.41,1.158c0.339,0.338,1.131,0.919,1.159,1.36
		c0.032,0.517-0.755,1.307-1.059,1.763c-1.108,1.663-2.285,3.42-3.373,4.986c-1.414,2.297-3.066,4.354-4.382,6.749
		c0.596-0.167,1.046-0.745,1.511-1.209c2.756-2.756,5.447-5.598,8.31-8.461c0.394-0.394,1.137-1.299,1.461-1.31
		c0.405-0.013,0.847,0.747,1.208,1.108c0.262,0.262,1.057,0.749,1.058,1.209c0.002,0.644-1.087,0.959-1.309,1.561
		c-3.758,3.997-8.101,8.002-12.037,12.239c-2.577,2.773-5.195,5.396-7.957,8.159c-0.376,0.376-1.237,1.056-1.259,1.41
		c-0.045,0.718,1.082,0.961,1.31,1.561c6.859,6.496,13.182,13.562,20.095,20.045c0.451,0.423,0.989,0.83,1.259,1.41
		c-0.315,0.524-0.71,0.862-1.208,1.36c-0.297,0.296-0.913,1.137-1.36,1.158c-0.508,0.025-1.279-0.747-1.712-1.058
		c-0.604-0.433-1.118-0.748-1.612-1.158c-2.534-1.596-4.897-3.33-7.403-4.986c-0.821-0.542-1.51-1.286-2.468-1.612
		c0.242,0.588,0.778,1.014,1.208,1.46c1.336,1.387,2.685,2.836,4.08,4.231c1.842,1.841,3.827,3.565,5.49,5.54
		c-0.238,0.507-0.588,0.79-1.058,1.259c-0.274,0.274-0.864,1.057-1.259,1.058c-0.402,0.001-1.117-0.966-1.511-1.36
		c-6.989-6.988-14.381-14.5-21.405-21.304c-0.626,0.293-1.026,0.875-1.511,1.36c-6.655,6.654-13.361,13.26-20.095,19.994
		c-0.383,0.383-1.144,1.3-1.511,1.31c-0.588,0.015-1.531-1.353-1.914-1.813c-0.208-0.25-0.485-0.454-0.503-0.705
		c-0.025-0.328,0.269-0.512,0.503-0.907c0.201-0.337,0.301-0.674,0.453-0.907c2.514-3.827,5.531-7.601,7.807-11.483
		c-0.595,0.235-1.012,0.776-1.46,1.209c-3.237,3.118-6.457,6.521-9.72,9.67C1.84,55.83,1.56,55.441,1.108,54.998
		c-0.287-0.281-1.036-0.801-1.058-1.208c-0.023-0.441,0.934-1.186,1.31-1.561c1.405-1.405,3.059-2.947,4.23-4.281
		c5.086-5.188,10.765-10.665,16.066-15.965c0.295-0.294,0.942-0.903,0.957-1.159c0.032-0.544-1.054-1.245-1.36-1.561
		c-0.539-0.556-0.945-1.111-1.41-1.461c-4.076-4.227-8.307-8.407-12.541-12.641c-0.829-0.829-1.581-1.75-2.418-2.619
		c-1.16-1.205-2.45-2.45-3.777-3.777C0.754,8.411,0.006,7.734,0,7.404c-0.009-0.488,0.796-0.985,1.209-1.36
		C1.58,5.708,2.065,4.87,2.518,4.835c0.427-0.032,1.279,0.811,1.712,1.108c1.682,1.154,3.295,2.29,4.885,3.425
		c2.318,1.654,4.276,3.191,6.598,4.482c-0.206-0.628-0.769-1.051-1.208-1.511c-3.134-3.271-6.625-6.451-9.569-9.972
		C5.584,1.504,6.206,0.616,7.101,0.001z M43.414,15.362c-2.908,2.819-6.274,6.033-9.166,9.116c-0.286,0.304-1.025,1.21-1.411,1.209
		c-0.465-0.002-1.016-0.906-1.259-1.159c-0.411-0.427-0.82-0.845-1.31-1.158c-0.595,0.324-0.881,0.82-1.41,1.36
		c-0.292,0.297-1.013,1.256-1.511,1.259c-0.421,0.003-1.18-0.773-1.562-1.057c-1.563-1.166-3.182-2.273-4.633-3.324
		c-2.213-1.604-4.114-3.172-6.295-4.332c1.597,1.943,3.468,3.619,5.238,5.389c0.89,0.89,1.729,1.83,2.619,2.72
		c0.881,0.881,1.908,1.684,2.569,2.77c-0.646,1.016-1.736,1.588-2.317,2.669c0.345,0.558,0.783,0.884,1.31,1.41
		c0.286,0.286,1.264,0.946,1.259,1.461c-0.004,0.406-0.787,1.181-1.058,1.562c-1.132,1.591-2.234,3.177-3.274,4.634
		c-1.57,2.2-3.142,4.085-4.331,6.194c1.057-0.7,1.899-1.647,2.771-2.518c2.193-2.193,4.409-4.409,6.597-6.598
		c0.364-0.363,1.051-1.219,1.461-1.208c0.419,0.01,0.847,0.695,1.259,1.108c0.356,0.356,0.906,1.11,1.31,1.108
		c0.377-0.002,1.104-0.903,1.46-1.259c0.446-0.446,0.916-1.26,1.46-1.259c0.441,0.001,1.133,0.754,1.562,1.058
		c2.691,1.91,5.167,3.708,7.706,5.539c0.993,0.716,2.009,1.445,3.223,2.066c-1.607-1.912-3.36-3.545-5.187-5.389
		c-1.317-1.33-2.643-2.643-3.979-3.979c-0.358-0.358-1.273-1.012-1.259-1.411c0.014-0.391,0.778-0.841,1.159-1.259
		c0.344-0.378,1.083-0.933,1.058-1.36c-0.012-0.192-0.373-0.505-0.604-0.755c-0.46-0.499-1.902-1.571-1.914-2.166
		c-0.007-0.363,0.728-1.212,1.007-1.611c2.657-3.785,5.218-7.015,7.655-10.879c-0.011-0.039-0.042-0.058-0.101-0.05
		C43.514,15.328,43.426,15.307,43.414,15.362z"/>
	<path style="fill-rule:evenodd;clip-rule:evenodd;" d="M30.218,42.659c0.405,0.097,0.837,1.546,1.108,2.216
		c3.457,8.569,6.824,17.162,10.224,25.786c0.62,1.571,1.271,3.113,1.864,4.684c0.593,1.571,1.359,3.096,1.712,4.734
		c-9.907,0.171-19.83,0.227-29.715,0c0.34-1.666,1.133-3.188,1.763-4.734c4.394-10.786,8.415-21.78,12.893-32.535
		C30.095,42.737,30.146,42.687,30.218,42.659z"/>
</g>
<g id="Layer_1">
</g>
</svg>
