<?xml version="1.0" encoding="iso-8859-1"?>
<!-- Generator: Adobe Illustrator 19.2.0, SVG Export Plug-In . SVG Version: 6.00 Build 0)  -->
<svg version="1.1" xmlns="http://www.w3.org/2000/svg" xmlns:xlink="http://www.w3.org/1999/xlink" x="0px" y="0px"
	 viewBox="0 0 79.258 78.748" style="enable-background:new 0 0 79.258 78.748;" xml:space="preserve">
<g id="Neukirchener_x5F_Verlagsgesellschaft">
	<path style="fill-rule:evenodd;clip-rule:evenodd;" d="M38.585,0.034c6.12-0.291,12.263,1.324,16.579,3.167
		c9.256,3.953,15.89,10.401,20.241,19.252c1.03,2.095,2.021,4.602,2.672,7.225c0.998,4.024,1.425,8.668,1.039,13.362
		c-0.364,4.435-1.463,8.316-2.969,11.828c-1.942,4.526-4.614,8.524-7.918,11.828c-6.538,6.536-15.241,11.492-27.417,12.025
		c-3.162,0.139-6.256-0.293-9.057-0.841c-2.758-0.54-5.263-1.377-7.522-2.326c-4.613-1.938-8.778-4.571-11.976-7.77
		C5.622,61.148,0.598,52.95,0.033,40.516c-0.288-6.34,1.342-12.244,3.168-16.578c0.992-2.354,2.26-4.571,3.464-6.434
		c1.259-1.947,2.758-3.797,4.404-5.444c4.851-4.853,10.821-8.9,18.707-10.887C32.475,0.492,35.476,0.182,38.585,0.034z
		 M38.684,61.648c0-4.643-0.049-9.202-0.049-13.808c0-1.842,0.111-3.666-0.148-5.395c-0.734-0.484-1.638-0.648-2.326-1.089
		c-1.408-0.9-2.32-2.379-2.672-4.157c-0.36-1.817-0.177-4.151-0.198-6.384c-0.043-4.451,0.408-9.236-1.088-12.372
		c-1.447-2.215-3.433-4.382-7.127-4.059c-3.03,0.266-4.712,2.37-5.79,4.504c-0.124,0.245-0.252,0.724-0.643,0.791
		c-0.421-1.377,0.123-3.719-0.297-5.097c-0.892-0.211-2.093-0.149-3.266-0.149c-1.155,0-2.375-0.107-3.217,0.198
		c-0.266,1.078-0.148,2.272-0.148,3.464c0,3.624-0.024,7.369,0.148,10.739c0.731,0.42,1.501,0.516,2.178,0.791
		c2.028,0.827,3.543,2.61,3.959,4.95c0.691,3.879-2.04,6.643-4.8,7.373c-0.416,0.11-1.072,0.255-1.237,0.495
		c-0.274,0.399-0.169,1.813-0.148,2.672c0.104,4.358,0.01,9.37,0.099,13.61c0.04,1.886-0.149,3.764,0.149,5.542
		c0.808,0.36,1.801,0.189,2.771,0.149c0.949-0.04,1.953,0.035,2.92,0c2.019-0.076,4.119,0.186,5.889-0.198
		c0.262-0.838,0.148-1.737,0.148-2.623c0-6.37-0.029-13.087-0.148-19.449c-0.436-0.532-1.115-0.69-1.633-1.039
		c-1.645-1.107-2.935-2.876-2.919-5.543c0.015-2.506,1.324-4.295,2.87-5.345c1.866-1.268,4.387-1.378,6.285-0.495
		c1.765,0.821,3.123,2.446,3.613,4.404c0.593,2.376-0.173,4.333-1.337,5.691c-0.356,0.519-0.774,0.863-1.385,1.287
		c-0.476,0.328-1.383,0.626-1.584,1.138c-0.223,0.568-0.086,1.661-0.049,2.524c0.041,0.962,0,1.963,0,2.82
		c0,4.827,0.049,9.314,0.049,13.907c0,0.923-0.113,1.839,0.149,2.672c0.758,0.32,1.709,0.217,2.623,0.198
		c1.802-0.037,3.678,0,5.543,0c0.929,0,1.867,0.111,2.672-0.148C38.797,63.408,38.684,62.514,38.684,61.648z M51.156,22.403
		c0.115,0.016,0.19-0.008,0.248-0.05c0-0.05,0-0.1,0-0.148C51.253,22.082,51.037,22.238,51.156,22.403z"/>
</g>
<g id="Layer_1">
</g>
</svg>
