<?xml version="1.0" encoding="iso-8859-1"?>
<!-- Generator: Adobe Illustrator 19.2.0, SVG Export Plug-In . SVG Version: 6.00 Build 0)  -->
<svg version="1.1" xmlns="http://www.w3.org/2000/svg" xmlns:xlink="http://www.w3.org/1999/xlink" x="0px" y="0px"
	 viewBox="0 0 50.609 72.172" style="enable-background:new 0 0 50.609 72.172;" xml:space="preserve">
<g id="New_x5F_Left_x5F_Books">
	<path style="fill-rule:evenodd;clip-rule:evenodd;" d="M0,3.42c0.397-0.643,1.272-0.699,1.932-0.967
		c1.93-0.783,4.174-1.727,6.133-2.414c0.672-0.236,0.841,0.65,1.062,1.207c1.239,3.125,2.418,5.805,3.622,8.934
		c0.197,0.514,0.543,1.162,0.483,1.594c-0.083,0.596-1.017,1.123-1.545,1.449c-1.379,0.852-3.51,1.674-5.602,1.834
		c-0.668,0.053-1.649,0.049-1.98-0.193c-0.483-0.352-0.945-2.086-1.159-2.752C2.233,9.895,1.637,8.313,0.917,6.317
		C0.583,5.391,0.158,4.49,0,3.42z"/>
	<path style="fill-rule:evenodd;clip-rule:evenodd;" d="M14.004,10.711c-0.677-0.52-0.836-1.479-1.159-2.27
		c-0.33-0.807-0.801-1.602-0.918-2.512c1.152-0.809,2.752,0.574,2.946,1.981C15.029,9.035,14.684,10.162,14.004,10.711z"/>
	<path style="fill-rule:evenodd;clip-rule:evenodd;" d="M15.695,7.861c0.048,0,0.097,0,0.145,0c0.729,1.027,1.25,2.125,1.835,3.188
		c0.597,1.086,1.174,2.221,1.4,3.623c0.518,3.207-0.43,5.711-1.932,7.484c-1.438,1.699-3.544,3.016-5.892,3.67
		c-1.574,0.439-3.363,0.76-5.409,0.676c-0.583-0.687-0.746-1.648-1.014-2.51c-0.536-1.732-1.218-3.467-1.787-5.264
		c-0.275-0.871-0.723-1.732-0.724-2.656c0.999-0.092,2.277,0.193,3.622,0.096c3.126-0.225,6.357-1.805,8.064-3.719
		c0.971-1.088,1.744-2.6,1.69-4.441C15.695,7.959,15.695,7.91,15.695,7.861z"/>
	<path style="fill-rule:evenodd;clip-rule:evenodd;" d="M6.326,43.598c-0.65-1.09-1.022-2.355-1.449-3.574
		c-1.062-3.033-2.127-6.154-3.284-9.272c-0.22-0.592-0.591-1.174-0.531-1.834c0.51-0.379,1.188-0.242,1.738-0.291
		c4.375-0.383,8.159-1.187,11.3-2.801c1.822-0.936,3.201-2.318,4.25-3.815c0.824-1.176,1.493-2.56,1.594-4.443
		c0.028-0.523-0.002-1.312,0.048-1.883c-0.002-0.084,0.036-0.125,0.097-0.145c0.032,0,0.064,0,0.097,0
		c1.639,2.955,3.531,5.373,3.815,9.609c0.199,2.973-0.539,5.439-1.497,7.582C20.115,38.07,15.599,40.781,9.9,42.778
		C8.778,43.17,7.57,43.551,6.326,43.598z"/>
	<path style="fill-rule:evenodd;clip-rule:evenodd;" d="M24.822,24.57c0.042-0.039,0.029-0.131,0.097-0.144c0.032,0,0.064,0,0.097,0
		c1.191,2.004,2.252,4.049,3.332,5.988c1.123,2.018,2.28,3.967,3.188,6.133c0.948,2.266,1.5,4.986,1.207,7.92
		c-0.524,5.244-3.311,9.299-6.375,12.266c-1.602,1.551-3.229,3.043-5.022,4.299c-2.646,1.854-5.864,3.414-9.32,4.637
		c-0.498,0.176-1.038,0.424-1.69,0.627c-0.534,0.166-1.546,0.514-1.835,0.387c-0.395-0.176-0.753-1.748-0.966-2.367
		c-1.704-4.953-3.412-9.512-5.215-14.486c-0.212-0.584-0.949-1.867-0.725-2.463c0.14-0.373,1.493-0.645,1.932-0.773
		c4.826-1.42,9.699-3,13.329-5.553c2.081-1.465,3.844-3.275,5.264-5.506c1.396-2.191,2.522-4.795,2.753-8.016
		C24.942,26.51,24.83,25.719,24.822,24.57z"/>
	<path style="fill-rule:evenodd;clip-rule:evenodd;" d="M33.756,40.701c0.078-0.016,0.083,0.045,0.145,0.047
		c4.084,7.877,8.43,15.49,12.604,23.277c1.089,1.936,2.081,3.842,3.188,5.795c0.354,0.625,0.782,1.279,0.917,2.027
		c-0.847,0.31-1.831,0.164-2.801,0.146c-2.935-0.059-6.342-0.035-9.272,0.047c-7.712,0.219-15.846-0.256-24.242,0.098
		c-1.803,0.074-3.808,0-6.085,0c-1.322,0-3.001,0-4.684,0c-0.512,0-1.157-0.002-1.207-0.338c-0.069-0.455,0.865-0.592,1.207-0.676
		c3.449-0.859,6.418-2.234,9.32-3.574c6.894-3.182,12.663-6.674,16.853-12.652c1.001-1.428,1.905-3.012,2.608-4.781
		c1.083-2.729,1.813-5.596,1.4-9.271C33.733,40.807,33.758,40.768,33.756,40.701z"/>
</g>
<g id="Layer_1">
</g>
</svg>
