<?xml version="1.0" encoding="iso-8859-1"?>
<!-- Generator: Adobe Illustrator 19.2.0, SVG Export Plug-In . SVG Version: 6.00 Build 0)  -->
<svg version="1.1" xmlns="http://www.w3.org/2000/svg" xmlns:xlink="http://www.w3.org/1999/xlink" x="0px" y="0px"
	 viewBox="0 0 75.557 76.457" style="enable-background:new 0 0 75.557 76.457;" xml:space="preserve">
<g id="new_x5F_brunswick_x5F_telephone_x5F_co">
	<path style="fill-rule:evenodd;clip-rule:evenodd;" d="M41.649,44.915c0.188-0.615,0.794-0.991,1.235-1.433
		c0.905-0.905,1.804-1.809,2.767-2.717c0.459-0.434,1.075-0.791,1.284-1.433c-0.562-0.426-1.369-0.247-2.025-0.247
		c-10.778,0-22.175,0.17-32.954,0c0.102-0.626,0.773-1.119,1.234-1.581c0.958-0.958,1.943-1.913,2.965-2.865
		c0.482-0.45,1.152-0.832,1.334-1.532c-0.478-0.332-1.208-0.198-1.878-0.198c-0.65,0-1.342,0-2.025,0
		c-1.359,0-3.068-0.149-4.002,0.099c-0.804,0.214-1.753,1.605-2.322,2.174c-1.59,1.591-2.771,2.871-4.446,4.545
		c-0.317,0.318-0.703,0.694-1.137,1.136c-0.346,0.353-0.972,0.882-0.987,1.235c-0.021,0.454,0.56,0.877,0.938,1.285
		c1.803,1.94,3.647,3.766,5.434,5.682c0.711,0.763,1.416,1.562,2.322,2.125c2.62,0.074,5.543,0.085,7.954-0.099
		c-0.146-0.63-0.776-1.056-1.235-1.482c-0.945-0.878-1.932-1.783-2.865-2.717c-0.451-0.451-1.061-0.821-1.235-1.433
		c5.296-0.18,11.158-0.099,16.699-0.099c1.823,0,3.622-0.128,5.287,0.099c0.071,0.42-0.37,0.588-0.593,0.791
		c-0.686,0.622-1.266,1.417-2.075,1.976c-0.832,0.963-1.98,1.611-2.619,2.767c0.83,0.354,1.78,0.197,2.668,0.197
		c12.861,0,25.929-0.049,39.081-0.049c0.879,0,1.804-0.155,2.618,0.198c0.067,0.754-0.389,1.417-0.643,2.075
		c-0.75,1.952-1.803,3.789-2.914,5.484c-2.975,4.534-6.526,8.326-11.067,11.363c-2.228,1.49-4.773,2.838-7.361,3.804
		c-5.203,1.942-12.525,3.088-19.615,1.927c-6.316-1.035-11.521-3.539-15.76-6.621c-5.259-3.581-9.253-8.576-12.204-14.674
		C1.372,50.284,0.001,44.728,0,38.047c0-2.085,0.149-4.219,0.643-6.027c9.32-0.264,19.785-0.084,29.348-0.148
		c1.337-0.009,2.677-0.179,3.952,0.099c-0.209,0.604-0.825,1.059-1.285,1.482c-0.925,0.854-1.851,1.752-2.767,2.668
		c-0.439,0.44-0.975,0.89-1.234,1.482c0.564,0.42,1.361,0.247,2.025,0.247c9.73,0,18.728-0.049,28.606-0.049
		c1.435,0,2.901-0.119,4.299,0.148c-0.072,0.654-0.799,0.942-1.235,1.383c-0.455,0.458-0.763,1.087-1.285,1.433
		c-0.922,0.89-1.961,1.663-2.668,2.767c0.494,0.299,1.148,0.157,1.779,0.148c1.26-0.018,2.621,0.162,3.952,0.099
		c0.694-0.033,1.436,0.068,1.977-0.049c0.42-0.091,0.89-0.699,1.235-1.038c2.3-2.255,4.314-4.375,6.62-6.769
		c0.337-0.35,0.976-0.88,0.988-1.235c0.014-0.395-0.595-0.905-0.94-1.284c-0.429-0.473-0.818-0.78-1.136-1.087
		c-1.529-1.479-2.964-2.964-4.446-4.447c-0.744-0.744-1.388-1.574-2.273-2.174c-0.058,0.008-0.088-0.011-0.099-0.049
		c-1.291,0.046-2.628-0.05-3.952-0.05c-1.297,0-2.631-0.054-3.755,0.198c0.188,0.664,0.788,1.058,1.234,1.483
		c0.457,0.434,0.941,0.836,1.384,1.285c0.472,0.435,0.938,0.872,1.334,1.383c0.341,0.549,1.034,0.745,1.235,1.433
		c-7.065,0.167-14.804,0.228-21.838,0.049c0.107-0.649,0.75-1.046,1.186-1.482c0.898-0.898,1.839-1.741,2.767-2.668
		c0.444-0.445,1.081-0.792,1.284-1.433c-0.696-0.349-1.69-0.197-2.668-0.197c-13.037,0-26.23,0.099-39.229,0.099
		c-0.876,0-1.788,0.079-2.619-0.198c-0.05-1.028,0.516-1.932,0.89-2.816c2.591-6.13,6.82-10.84,11.61-14.822
		C21.564,2.93,30.44-1.056,42.342,0.251c4.664,0.513,8.569,1.949,12.104,3.607c2.403,1.127,4.559,2.474,6.472,4.002
		c0.963,0.768,1.751,1.723,2.669,2.569c6.231,5.751,10.952,13.545,11.857,24.803c0.193,2.413,0.134,5.146-0.148,7.51
		c-0.085,0.708-0.129,1.863-0.494,2.124c-0.554,0.396-3.189,0.148-4.101,0.148C61.178,45.013,51.167,45.154,41.649,44.915z"/>
</g>
<g id="Layer_1">
</g>
</svg>
