<?xml version="1.0" encoding="iso-8859-1"?>
<!-- Generator: Adobe Illustrator 19.2.0, SVG Export Plug-In . SVG Version: 6.00 Build 0)  -->
<svg version="1.1" xmlns="http://www.w3.org/2000/svg" xmlns:xlink="http://www.w3.org/1999/xlink" x="0px" y="0px"
	 viewBox="0 0 77.496 49.98" style="enable-background:new 0 0 77.496 49.98;" xml:space="preserve">
<g id="New_x5F_Ocean_x5F_Engineering">
	<path style="fill-rule:evenodd;clip-rule:evenodd;" d="M77.356,0.281c0.24,15.082,0.098,30.613,0.1,46.596
		c0,0.979,0.117,2.014-0.149,2.974c-25.166,0.123-51.893,0.271-77.18-0.149c-0.317-12.403,0.087-25.359-0.099-37.623
		C-0.025,8.631,0.076,5.172,0.076,1.372c0-0.417-0.143-0.977,0.198-1.339C6.481-0.08,13.462,0.132,19.756,0.132
		C38.861,0.132,57.961,0.038,77.356,0.281z M57.181,16.937c-0.193-1.679-0.994-3.312-1.784-4.61c-0.82-1.345-1.773-2.566-2.925-3.47
		c-2.445-1.92-5.543-3.389-9.617-3.172c-3.732,0.198-6.899,1.998-9.021,4.163c-1.556,1.587-2.939,3.678-3.47,6.246
		c-0.178,0.862-0.437,1.838-0.198,2.775c1.391,0.417,3.453-0.146,4.857,0.248c-0.033,2.265-1.114,3.907-2.23,5.254
		c-1.668,1.522-3.725,2.588-6.493,2.578c-1.986-0.008-3.869-0.909-5.105-1.983c-1.723-1.496-2.691-3.368-3.024-5.948
		c-1.446-0.191-3.43-0.104-4.956-0.05c-0.247,0.933,0.002,1.907,0.197,2.727c0.615,2.576,1.983,4.655,3.42,6.345
		c1.307,1.537,3.215,2.655,5.205,3.42c0.254,0.098,0.664,0.12,0.793,0.446c-0.648,0.187-1.503-0.093-2.031,0.248
		c-0.084,3.491,1.44,6.224,3.024,8.377c2.785,2.995,6.728,5.573,12.441,4.809c4.746-0.635,8.584-3.56,10.311-7.188
		c0.809-1.697,1.589-3.735,1.438-5.998c-1.275-0.426-3.532,0.129-4.808-0.297c0.293-4.576,3.894-8.036,8.823-7.881
		c1.802,0.057,3.803,0.908,4.907,1.933c0.597,0.553,1.166,1.362,1.636,2.131c0.709,1.16,1.067,2.44,1.338,3.917
		c1.451,0.223,3.477,0.139,5.007,0c0.172-3.031-1.069-5.494-2.479-7.436c-1.612-2.223-3.851-4.026-6.443-5.007
		c-0.3-0.113-0.735-0.144-0.793-0.446c0.52-0.174,1.398,0.011,1.883-0.199C57.304,18.278,57.26,17.619,57.181,16.937z"/>
	<path style="fill-rule:evenodd;clip-rule:evenodd;" d="M51.976,18.672c-0.76,0.335-1.552,0.211-2.28,0.297
		c-2.162,0.254-3.984,1.014-5.552,2.033c-2.041,1.326-3.792,3.082-4.858,5.254c-0.738,1.505-1.365,3.425-1.338,5.601
		c1.329,0.464,3.42-0.092,4.907,0.248c0.021,2.247-0.981,4.154-2.329,5.502c-1.312,1.312-3.09,2.407-5.304,2.578
		c-3.001,0.231-5.058-0.98-6.692-2.379c-1.194-1.417-2.391-3.094-2.379-5.552c2.191-0.203,4.093-0.398,5.799-1.091
		c1.591-0.646,3.04-1.596,4.164-2.677c2.266-2.177,4.142-5.213,4.214-9.369c-1.323-0.429-3.635,0.131-4.957-0.297
		c0.164-4.215,3.401-7.64,7.634-7.931c3.353-0.231,5.434,1.247,7.138,2.925C51.082,15.072,52.02,16.594,51.976,18.672z"/>
</g>
<g id="Layer_1">
</g>
</svg>
