<?xml version="1.0" encoding="iso-8859-1"?>
<!-- Generator: Adobe Illustrator 19.2.0, SVG Export Plug-In . SVG Version: 6.00 Build 0)  -->
<svg version="1.1" xmlns="http://www.w3.org/2000/svg" xmlns:xlink="http://www.w3.org/1999/xlink" x="0px" y="0px"
	 viewBox="0 0 285.589 362.963" style="enable-background:new 0 0 285.589 362.963;" xml:space="preserve">
<g id="New_x5F_Bedford_x5F_Whaling_x5F_Museum">
	<path style="fill-rule:evenodd;clip-rule:evenodd;" d="M148.296,33.731c26.697,6.782,54.229,12.728,80.899,19.536
		c0.308,1.497,0.617,3.61,0.36,5.273c-1.167,0.185-2.888-0.369-4.675-0.719c-1.056-0.207-3.957-1.142-4.554-0.24
		c-0.46,0.694,2.296,4.523,2.637,5.034c3.038,4.558,6.576,9.58,9.229,14.262c3.763,6.643,7.048,13.756,9.468,21.813
		c2.447,8.149,4.015,18.565,1.438,26.607c-2.47,7.709-7.882,12.51-18.218,13.063c-0.734,0.216-0.149-0.888-0.839-0.719
		c-0.279,0.519-0.061,0.554,0,0.719c-12.502,0.368-23.92-1.054-34.397-3.355c-3.584-0.788-7.215-1.405-10.906-1.678
		c-16.143-1.193-27.955,4.651-30.683,18.817c-2.43-0.007-4.342-0.532-6.592-0.719c-0.66-12.536-10.195-19.783-20.734-22.772
		c-10.079-2.858-21.492-3.843-33.199-4.075c-17.933-0.355-34.906-3.755-46.023-11.506c-3.748-2.612-7.42-5.712-9.108-10.067
		c17.449-6.225,25.463-26.765,22.292-50.697c-1.875-14.152-8.396-27.307-17.618-35.117C33.133,13.855,28.659,11.223,23.17,10
		c-0.498-1.306-0.448-3.778-0.24-5.394c38.979,8.321,77.508,18.136,116.257,27.086c0.649-6.397,0.246-15.244,0.719-22.172
		c0.319-4.679-1.062-8.952,3.236-9.468c5.325-0.64,4.455,4.706,4.554,9.708C147.839,16.936,148.059,26.5,148.296,33.731z
		 M27.005,8.322c0.365-0.179,0.466,0.04,0.719-0.12c0.057-0.537-0.359-0.6-0.839-0.599C26.87,7.899,26.867,8.18,27.005,8.322z"/>
	<path style="fill-rule:evenodd;clip-rule:evenodd;fill:#FFFFFF;" d="M26.885,7.603c0.48-0.001,0.896,0.062,0.839,0.599
		c-0.253,0.159-0.354-0.059-0.719,0.12C26.867,8.18,26.87,7.899,26.885,7.603z"/>
	<path style="fill-rule:evenodd;clip-rule:evenodd;" d="M19.815,105.162c7.464,19.253,16.803,35.895,32.36,46.982
		c7.652,5.453,16.702,9.406,25.888,13.064c9.402,3.743,18.517,7.002,26.247,12.704c14.825,10.933,25.812,26.142,28.045,49.499
		c-38.576-4.868-83.304-11.363-125.844-7.191c-0.282-1.476-2.287-3.107-2.038-4.674c0.063-0.396,1.729-1.733,2.277-2.277
		c11.073-10.985,18.458-26.181,18.457-47.581c0-21.116-5.726-38.578-13.184-53.214c-0.346-0.678-1.175-2.584-1.558-2.877
		c-0.983-0.751-3.819-0.791-5.273-1.079c-1.95-0.386-3.612-0.697-5.154-1.079c0.015-1.985-0.156-4.085,0.12-5.513
		C6.228,102.532,13.375,104.129,19.815,105.162z M10.346,106.72c0.477,0.047,0.732-0.525,0.479-0.839
		C10.39,105.885,10.299,106.234,10.346,106.72z"/>
	<path style="fill-rule:evenodd;clip-rule:evenodd;fill:#FFFFFF;" d="M10.825,105.881c0.253,0.313-0.001,0.886-0.479,0.839
		C10.299,106.234,10.39,105.885,10.825,105.881z"/>
	<path style="fill-rule:evenodd;clip-rule:evenodd;" d="M265.51,142.436c0.28,1.824,0.561,3.466,0.359,5.394
		c-1.778-0.057-3.02-0.439-4.914-0.719c-1.169-0.173-4.194-0.991-4.794-0.12c-0.611,0.889,0.851,2.889,1.318,3.715
		c9.367,16.538,21.788,30.76,26.728,51.656c3.014,12.753,0.864,25.385-4.195,34.278c-4.116,7.235-10.799,13.641-17.978,18.577
		c-0.917,0.631-2.293,1.972-3.116,2.038c-1.162,0.094-3.838-1.36-5.393-1.917c-26.543-9.507-55.463-16.882-86.054-22.293
		c-3.28-13.596-0.247-27.372,5.273-36.315c8.584-13.905,25.121-19.937,42.068-25.768c5.524-1.901,10.817-4.223,15.82-6.712
		c10.03-4.99,19.107-11.275,20.975-24.21C256.199,140.408,261.102,141.487,265.51,142.436z M262.874,145.073
		C263.048,145.47,263.172,144.606,262.874,145.073L262.874,145.073z M198.633,238.917c0.036-0.315-0.166-0.393-0.48-0.359
		C198.117,238.874,198.404,238.866,198.633,238.917z"/>
	<path style="fill-rule:evenodd;clip-rule:evenodd;fill:#FFFFFF;" d="M262.874,145.073
		C263.172,144.606,263.048,145.47,262.874,145.073L262.874,145.073z"/>
	<path style="fill-rule:evenodd;clip-rule:evenodd;" d="M0.998,229.688c44.398,6.757,88.214,13.166,132.436,20.375
		c0.576,16.228,0.754,32.314,0,48.181c-0.012,0.247-0.278,0.097-0.24,0.359c0.432,2.945-0.08,7.467-0.239,10.786
		c-0.544,11.328-1.646,23.299-3.356,33.918c-14.631-4.289-32.053-7.121-50.697-5.992c-17.126,1.037-32.783,5.955-46.023,11.267
		c-0.357-1.013-2.28-3.252-2.277-4.555c0.002-0.966,2.15-3.054,2.996-4.314c6.756-10.074,10.252-23.861,11.146-39.552
		c1.068-18.74-4.46-33.993-12.465-45.304c-7.685-9.334-17.737-16.301-31.401-19.656C1.046,233.508,0.368,230.979,0.998,229.688z"/>
	<path style="fill-rule:evenodd;clip-rule:evenodd;fill:#FFFFFF;" d="M198.154,238.557c0.313-0.034,0.516,0.044,0.48,0.359
		C198.404,238.866,198.117,238.874,198.154,238.557z"/>
	<path style="fill-rule:evenodd;clip-rule:evenodd;" d="M173.105,255.097c32.044,5.03,62.82,9.492,94.803,14.862
		c0.307,1.616,0.498,3.969,0.359,5.633c-3.246,0.05-7.001-1.679-9.828-0.479c4.189,7.416,8.835,14.679,11.626,23.73
		c2.787,9.042,3.181,20.896-0.839,29.483c-3.911,8.355-8.619,14.376-15.222,20.136c-6.316,5.51-13.361,10.264-20.855,14.502
		c-7.783-6.016-13.605-14.318-19.296-22.652c-11.327-16.589-20.661-34.873-29.363-54.532c-3.09-6.98-6.149-14.779-8.869-22.532
		c-0.934-2.662-2.256-5.248-2.757-7.67C172.847,255.49,172.836,255.096,173.105,255.097z M209.779,261.209
		C209.858,261.288,209.729,261.159,209.779,261.209L209.779,261.209z M192.64,299.083
		C193.138,299.197,192.665,298.723,192.64,299.083L192.64,299.083z"/>
	<path style="fill-rule:evenodd;clip-rule:evenodd;fill:#FFFFFF;" d="M209.779,261.209
		C209.729,261.159,209.858,261.288,209.779,261.209L209.779,261.209z"/>
	<path style="fill-rule:evenodd;clip-rule:evenodd;fill:#FFFFFF;" d="M192.64,299.083
		C192.665,298.723,193.138,299.197,192.64,299.083L192.64,299.083z"/>
</g>
<g id="Layer_1">
</g>
</svg>
