<?xml version="1.0" encoding="iso-8859-1"?>
<!-- Generator: Adobe Illustrator 19.2.0, SVG Export Plug-In . SVG Version: 6.00 Build 0)  -->
<svg version="1.1" xmlns="http://www.w3.org/2000/svg" xmlns:xlink="http://www.w3.org/1999/xlink" x="0px" y="0px"
	 viewBox="0 0 78.329 68.456" style="enable-background:new 0 0 78.329 68.456;" xml:space="preserve">
<g id="Newman_x5F_Steel_x5F_74">
	<path style="fill-rule:evenodd;clip-rule:evenodd;" d="M78.198,68.239c-2.386,0.153-4.599,0.145-7.241,0.144
		c-0.827,0-1.753,0.126-2.446-0.048c-0.741-0.186-2.005-1.718-2.541-2.253c-2.42-2.421-4.636-4.851-7.098-7.145
		c-2.539-2.367-4.785-4.689-7.193-7.098c-0.393-0.392-0.714-0.883-1.103-1.294c-0.344-0.364-0.729-0.885-1.294-0.959
		c-0.36,0.65-0.162,1.427-0.144,2.157c0.091,3.793,0,7.913,0,11.893c0,1.593,0.116,3.183-0.144,4.652
		c-2.431,0.227-5.062,0.029-7.529,0.095c-0.727,0.02-1.709,0.155-2.35,0c-0.499-0.12-0.912-0.671-1.343-1.103
		c-1.262-1.262-2.389-2.384-3.645-3.645c-1.621-1.606-3.272-3.185-4.891-4.795c-4.764-4.786-9.699-9.604-14.625-14.53
		c-1.216-1.215-2.455-2.378-3.597-3.692c-1.102-1.268-2.457-2.361-3.692-3.597c-1.791-1.791-3.554-3.624-5.515-5.419
		c-0.543-0.497-1.529-1.372-1.678-1.918c-0.26-0.952-0.048-2.45-0.048-3.692c0-8.588-0.079-17.39,0.096-25.751
		c3.141-0.229,6.417-0.035,9.734-0.096c0.932,0.649,1.606,1.559,2.398,2.35c4.672,4.672,9.484,9.39,14.194,14.099
		c0.395,0.394,0.758,0.782,1.151,1.198c0.365,0.386,0.738,0.906,1.295,1.055c0.256-0.704,0.144-1.5,0.144-2.253
		c0-5.349-0.08-11.165,0.096-16.4c2.306-0.151,4.423-0.144,7.049-0.144c0.99,0,2.161-0.139,2.925,0.048
		c0.757,0.184,1.823,1.535,2.445,2.157c2.279,2.28,4.677,4.63,6.857,6.809c1.52,1.52,2.938,3.162,4.508,4.651
		c1.573,1.493,3.054,3.055,4.556,4.556c6.402,6.399,12.282,12.292,18.27,18.271c0.773,0.842,1.755,1.475,2.398,2.446
		c0.061,4.954,0.096,9.699,0.096,14.625C78.294,58.593,78.418,63.436,78.198,68.239z M51.776,19.759
		c-0.878-0.001-1.888-0.146-2.542,0c-0.424,0.094-0.288,1.363-0.288,2.109c0.001,4.949,0,9.632,0,14.387
		c0,0.802,0.109,1.65-0.144,2.302c-0.601-0.111-0.893-0.681-1.295-1.056c-1.254-1.167-2.449-2.354-3.645-3.549
		c-3.977-3.976-7.946-8.055-11.988-11.892c-0.813-0.772-1.496-1.75-2.542-2.254c-3.033,0.005-6.558-0.112-9.686,0.096
		c-0.262,1.146-0.144,2.33-0.144,3.5c0,3.365,0.048,6.927,0.048,10.646c0,4.856-0.08,9.84,0.096,14.626
		c0.698,0.25,1.527,0.143,2.35,0.143c1.662-0.001,3.375,0.001,4.987,0c0.821-0.001,1.657,0.11,2.35-0.143
		c0.175-4.521,0.096-9.541,0.096-14.194c0-1.581-0.112-3.149,0.096-4.604c0.45,0.013,0.675,0.455,0.959,0.72
		c4.664,4.35,9.083,9.01,13.619,13.427c0.843,0.756,1.552,1.646,2.397,2.398c0.396,0.399,0.747,0.746,1.199,1.198
		c0.344,0.345,0.823,0.967,1.343,1.104c0.646,0.169,1.569,0.048,2.35,0.048c0.814,0,1.656,0,2.446,0c1.68,0,3.32,0.111,4.699-0.144
		c0.145-6.887,0.048-14.079,0.048-21.532c0-2.437,0.11-4.904-0.144-7.288C56.413,19.71,53.962,19.759,51.776,19.759z"/>
	<path style="fill-rule:evenodd;clip-rule:evenodd;fill:#FFFFFF;" d="M58.441,19.806c0.254,2.384,0.144,4.851,0.144,7.288
		c0,7.453,0.097,14.646-0.048,21.532c-1.379,0.255-3.019,0.144-4.699,0.144c-0.789,0-1.632,0-2.446,0
		c-0.781,0-1.703,0.121-2.35-0.048c-0.52-0.137-0.999-0.759-1.343-1.104c-0.452-0.452-0.804-0.799-1.199-1.198
		c-0.845-0.753-1.554-1.643-2.397-2.398c-4.536-4.417-8.954-9.077-13.619-13.427c-0.284-0.265-0.51-0.707-0.959-0.72
		c-0.208,1.455-0.096,3.023-0.096,4.604c0,4.653,0.079,9.674-0.096,14.194c-0.693,0.254-1.529,0.143-2.35,0.143
		c-1.612,0.001-3.325-0.001-4.987,0c-0.823,0-1.652,0.107-2.35-0.143c-0.176-4.786-0.096-9.77-0.096-14.626
		c0-3.72-0.048-7.281-0.048-10.646c0-1.17-0.118-2.354,0.144-3.5c3.129-0.208,6.653-0.091,9.686-0.096
		c1.045,0.504,1.729,1.482,2.542,2.254c4.042,3.837,8.011,7.916,11.988,11.892c1.195,1.195,2.39,2.382,3.645,3.549
		c0.402,0.375,0.694,0.944,1.295,1.056c0.252-0.651,0.144-1.5,0.144-2.302c0-4.755,0.001-9.437,0-14.387
		c0-0.746-0.136-2.016,0.288-2.109c0.654-0.146,1.664-0.001,2.542,0C53.962,19.759,56.413,19.71,58.441,19.806z"/>
</g>
<g id="Layer_1">
</g>
</svg>
