<?xml version="1.0" encoding="iso-8859-1"?>
<!-- Generator: Adobe Illustrator 19.2.0, SVG Export Plug-In . SVG Version: 6.00 Build 0)  -->
<svg version="1.1" xmlns="http://www.w3.org/2000/svg" xmlns:xlink="http://www.w3.org/1999/xlink" x="0px" y="0px"
	 viewBox="0 0 69.907 70.482" style="enable-background:new 0 0 69.907 70.482;" xml:space="preserve">
<g id="Newton_x5F_Publishing_x5F_68">
	<path style="fill-rule:evenodd;clip-rule:evenodd;" d="M69.576,0.182c0.265,2.875,0.147,5.795,0.147,8.705
		c0,20.389,0.281,40.969,0.147,61.326c-9.249,0.129-19.283,0.148-29.163,0.146c-1.461,0-2.996,0.041-4.328-0.049
		c-0.924-1.346-1.665-2.828-2.41-4.277c-4.86-9.469-9.968-18.926-15-28.328c-0.373-0.697-0.81-1.432-0.983-2.213
		c0.459-0.172,1.383-0.111,1.918-0.049c0.852,1.283,1.538,2.678,2.262,4.033c2.163,4.049,4.244,8.226,6.492,12.293
		c2.984,5.4,5.678,10.979,8.705,16.328C47.32,68.24,57.733,68.178,67.609,68c0.01-0.041,0.05-0.049,0.049-0.1
		c0.2-10.816,0-21.891,0-32.9c0-11.016-0.024-22.008-0.197-32.654c-1.16-0.272-2.373-0.156-3.59-0.098c-1.235,0.059-2.528,0-3.787,0
		c-7.449,0.002-14.714,0.121-22.327,0c-0.629-0.437-0.921-1.211-1.181-2.016c0.906-0.269,1.862-0.1,2.803-0.1
		c2.904,0,5.905,0.072,8.901,0c3.942-0.094,7.921,0.131,11.803-0.049C63.253-0.062,66.521-0.01,69.576,0.182z"/>
	<path style="fill-rule:evenodd;clip-rule:evenodd;" d="M51.872,34.854c-0.459,0.172-1.383,0.111-1.917,0.049
		c-1.642-2.582-2.876-5.424-4.377-8.115c-1.497-2.684-2.931-5.396-4.377-8.113c-2.181-4.101-4.138-8.287-6.344-12.393
		c-0.363-0.678-0.77-1.34-1.131-2.017c-0.351-0.658-0.58-1.43-1.181-1.918C22.463,2.25,12.037,2.297,2.349,2.494
		C2,3.727,2.201,5.07,2.201,6.379c0,17.967,0.283,35.629,0.197,53.9c-0.013,2.676-0.103,5.301,0.099,7.867
		c1.153,0.217,2.369,0.1,3.59,0.1c8.67,0,17.5-0.152,26.065-0.051c0.049,0,0.098,0,0.148,0c0.501,0.582,0.962,1.203,1.18,2.066
		c-9.558,0.137-19.448,0.195-29.212,0.197c-1.343,0-2.704,0.094-3.983-0.1C0.017,64.77,0.326,58.883,0.185,53
		c-0.142-5.898,0.182-11.838-0.049-17.605c-0.23-5.754-0.098-11.627-0.098-17.459c0-5.9-0.101-11.791,0.049-17.605
		C3.47,0.082,6.926,0.182,10.414,0.182c3.442,0.002,6.97,0.109,10.377-0.049c3.045-0.141,6.25-0.049,9.639-0.049
		c0.961,0,2.406-0.188,3.098,0.049c0.525,0.18,0.871,1.297,1.279,2.066c1.123,2.115,2.424,4.416,3.442,6.49
		c0.369,0.754,0.682,1.512,1.082,2.264c2.659,4.99,5.44,10.176,8.065,15.146c1.147,2.172,2.276,4.301,3.443,6.492
		C51.222,33.311,51.716,34.029,51.872,34.854z"/>
</g>
<g id="Layer_1">
</g>
</svg>
