<?xml version="1.0" encoding="iso-8859-1"?>
<!-- Generator: Adobe Illustrator 19.2.0, SVG Export Plug-In . SVG Version: 6.00 Build 0)  -->
<svg version="1.1" xmlns="http://www.w3.org/2000/svg" xmlns:xlink="http://www.w3.org/1999/xlink" x="0px" y="0px"
	 viewBox="0 0 76.7 55.481" style="enable-background:new 0 0 76.7 55.481;" xml:space="preserve">
<g id="NI_x5F_CU">
	<path style="fill-rule:evenodd;clip-rule:evenodd;" d="M38.05,0.167c0.682,0.99,0.899,2.205,1.295,3.309
		c2,5.574,4.031,11.271,5.946,16.976c0.38,1.133,0.851,2.222,1.247,3.357c0.205,0.586,0.293,1.223,0.479,1.822
		c0.175,0.563,0.379,1.128,0.575,1.678c2.819,7.913,5.765,15.633,8.536,23.545c0.382,1.09,0.741,2.222,1.343,3.213
		c0.312-0.715,0.192-1.545,0.192-2.302c0-12.214-0.061-24.789,0.144-36.541c3.013-0.224,6.268-0.048,9.447-0.048
		c3.208,0,6.415-0.139,9.303,0.096c0.341,6.7-0.136,13.636,0.096,20.284c0.113,3.225-0.152,6.51,0,9.734
		c0.158,3.353-0.131,6.68-0.144,10.022c-0.752,0.254-1.566,0.144-2.35,0.144c-12.182,0-24.318,0.032-36.493-0.144
		c-1.026-2.089-1.582-4.375-2.35-6.57c-0.766-2.187-1.62-4.34-2.398-6.521c-3.111-8.719-6.146-17.553-9.303-26.279
		c-0.4-1.104-0.699-2.252-1.103-3.356c-0.792-2.163-1.592-4.324-2.35-6.57c-0.355-1.053-0.686-2.171-1.294-3.117
		c-0.228,1.025-0.192,2.117-0.192,3.165c0,7.472,0,15.212,0,22.874c0,8.81,0.098,17.774-0.144,26.327
		c-3.016,0.066-6.115,0.274-9.207,0.144c-3.074-0.129-6.257,0.109-9.255-0.191c-0.123-8.802-0.049-18.173-0.048-27.478
		C0.023,18.476-0.062,9.063,0.119,0.214c0.225-0.205,0.782-0.16,1.103-0.192C1.938-0.048,2.758,0.07,3.523,0.07
		C14.761,0.07,26.612-0.006,38.05,0.167z"/>
	<path style="fill-rule:evenodd;clip-rule:evenodd;" d="M76.557,0.262c0.205,2.914,0.07,5.976,0.048,8.872
		c-0.008,0.979,0.22,1.976-0.096,2.877c-4.481,0.259-9.5,0.018-14.146,0.048c-1.556,0.01-3.105,0.189-4.556-0.096
		c-0.234-3.704-0.17-7.972,0-11.701c3.019-0.292,6.582-0.096,9.878-0.096C70.727,0.166,73.729,0.088,76.557,0.262z"/>
</g>
<g id="Layer_1">
</g>
</svg>
