<?xml version="1.0" encoding="iso-8859-1"?>
<!-- Generator: Adobe Illustrator 21.0.2, SVG Export Plug-In . SVG Version: 6.00 Build 0)  -->
<svg version="1.1" xmlns="http://www.w3.org/2000/svg" xmlns:xlink="http://www.w3.org/1999/xlink" x="0px" y="0px"
	 viewBox="0 0 63.541 31.399" style="enable-background:new 0 0 63.541 31.399;" xml:space="preserve">
<g id="Nice_x5F_Ride_x5F_MN">
	<g>
		<g>
			<path d="M32.722,0.044c3.605-0.074,7.221-0.032,10.832-0.032c0.805-0.014,1.628-0.051,2.411,0.165
				c2.032,0.511,3.596,2.49,3.572,4.594c-0.033,1.468,0.219,3.028-0.499,4.383c-0.812,1.727-2.742,2.781-4.627,2.683
				c1.687,1.935,3.379,3.867,5.08,5.79c0.617,0.578,1.532,0.332,2.295,0.384c-0.015,0.529-0.015,1.058,0.006,1.587
				c-1.471,0.133-3.154-0.104-4.057-1.416c-1.848-2.112-3.705-4.217-5.545-6.336c-2.576-0.02-5.153-0.01-7.73-0.001
				c0.003,1.975,0.002,3.95,0.01,5.925c-0.099,1.054-0.808,2.044-1.814,2.41c-1.693,0.724-3.703-0.73-3.73-2.526
				c-0.053-4.332-0.003-8.668-0.038-13.001c-0.024-1.627-1.53-2.971-3.13-2.961c-2.663,0.01-5.312,0.023-7.977,0.056
				c-1.364,0.063-2.547,1.22-2.636,2.585c-0.026,4.296,0.029,8.592,0.04,12.888c-0.01,0.882-0.456,1.796-1.273,2.193
				c-0.86,0.415-1.843,0.252-2.763,0.28c-0.007-0.562-0.008-1.125-0.004-1.688c0.607-0.009,1.253,0.057,1.82-0.2
				c0.461-0.199,0.533-0.763,0.534-1.206c-0.017-2.726,0.022-5.455-0.035-8.179c0.057-1.164,0.004-2.332-0.005-3.495
				c-0.003-0.833,0.022-1.67-0.037-2.501c-0.391-0.897-1.546-0.643-2.33-0.69c-0.004-0.546,0.004-1.092,0.002-1.638
				c0.304,0.002,0.608,0.005,0.912-0.01c1.042-0.115,2.156,0.214,2.757,1.125c0.973-0.746,2.179-1.201,3.413-1.158
				c2.571-0.007,5.142-0.008,7.713-0.01c2.377,0.015,4.547,2.043,4.648,4.43c0.008,4.365,0.048,8.72,0.051,13.085
				c-0.003,0.712,0.744,1.324,1.438,1.078c0.521-0.195,0.86-0.779,0.76-1.329C32.771,11.552,32.779,5.797,32.722,0.044z
				 M34.421,1.685c0.021,2.819-0.031,5.64,0.042,8.457c3.396,0.023,6.793,0.003,10.189,0.006c1.313,0.025,2.594-0.841,3.027-2.087
				c0.408-1.059,0.108-2.195,0.198-3.291c0.036-1.619-1.405-3.038-3.001-3.088C41.391,1.677,37.906,1.681,34.421,1.685z"/>
		</g>
		<path d="M50.41,6.223c3.69-0.159,7.415,1.396,9.866,4.169c2.884,3.12,3.997,7.774,2.773,11.847
			c-0.947,3.369-3.401,6.316-6.602,7.757c-3.585,1.88-8.082,1.709-11.602-0.243c-3.581-1.841-6.119-5.572-6.547-9.573
			c-0.335-2.553,0.256-5.166,1.435-7.44c0.049-0.026,0.1-0.05,0.15-0.074c0.157,0.04,0.323,0.067,0.48,0.011
			c0.155,0.03,0.316,0.042,0.471,0c0.321,0.039,0.646,0.013,0.969,0.041c-1.021,1.513-1.672,3.285-1.812,5.107
			c-0.325,3.315,1.042,6.728,3.53,8.939c3.211,3.004,8.313,3.679,12.228,1.714c3.175-1.526,5.499-4.706,5.96-8.2
			c0.283-2.197-0.101-4.468-1.116-6.439c-1.89-3.738-6.058-6.145-10.241-5.923C50.428,7.355,50.395,6.788,50.41,6.223z"/>
		<path d="M3.558,10.146c2.309-2.451,5.66-3.877,9.025-3.863c-0.045,0.564,0.107,1.132-0.014,1.69
			c-3.994-0.01-7.848,2.41-9.634,5.973c-1.653,3.145-1.596,7.146,0.215,10.214c1.461,2.62,4.071,4.566,6.988,5.247
			c2.412,0.509,5.024,0.321,7.251-0.785c3.98-1.773,6.476-6.206,6.115-10.518c-0.224-4.324-3.306-8.306-7.449-9.577
			c-0.032-0.592-0.017-1.19,0.019-1.781c4.601,1.177,8.204,5.265,8.993,9.918c0.618,3.247-0.165,6.717-2.093,9.403
			c-2.636,3.904-7.681,5.952-12.302,5.168c-1.571-0.156-3.007-0.866-4.391-1.577c-4.36-2.404-6.919-7.633-6.141-12.549
			C0.491,14.503,1.712,12.019,3.558,10.146z"/>
	</g>
</g>
<g id="Layer_1">
</g>
</svg>
