<?xml version="1.0" encoding="iso-8859-1"?>
<!-- Generator: Adobe Illustrator 19.2.0, SVG Export Plug-In . SVG Version: 6.00 Build 0)  -->
<svg version="1.1" xmlns="http://www.w3.org/2000/svg" xmlns:xlink="http://www.w3.org/1999/xlink" x="0px" y="0px"
	 viewBox="0 0 75.673 38.914" style="enable-background:new 0 0 75.673 38.914;" xml:space="preserve">
<g id="Nieswand_x5F_Verlag">
	<path style="fill-rule:evenodd;clip-rule:evenodd;" d="M75.673,1.657c-0.047,0.98-0.791,1.715-1.264,2.478
		c-0.486,0.783-0.994,1.553-1.458,2.332c-0.936,1.571-2.035,3.036-2.964,4.616c-0.914,1.555-1.891,3.128-2.916,4.665
		c-1.007,1.511-1.948,3.099-2.964,4.616c-1,1.493-1.933,3.082-2.964,4.616c-1.017,1.513-1.833,3.169-2.867,4.713
		c-1.457,2.176-2.973,4.501-4.471,6.9c-0.435,0.696-1.068,1.945-1.652,2.138c-0.662,0.219-1.775,0.049-2.672,0.049
		c-2.646,0-5.588,0.039-8.018-0.049c-0.798-0.498-1.152-1.439-1.701-2.187c-1.568-2.084-2.939-4.315-4.421-6.511
		c-0.483-0.716-1.052-1.368-1.506-2.09c-0.48-0.763-0.89-1.518-1.409-2.235c-3.539-4.891-6.675-10.008-10.302-15.015
		c-1.47-2.03-2.628-4.546-4.664-6.22c-0.594-0.488-1.651-1.255-2.332-1.264c-1.161-0.014-2.579,1.428-3.207,2.09
		c-1.763,1.858-2.825,4.322-2.77,7.774c0.135,8.407,0.116,17.633,0,25.705c-2.075,0.222-4.436,0.098-6.706,0.098
		c-0.745,0-1.532,0.114-2.186-0.146c-0.206-8.191-0.195-16.811-0.195-24.83C0.064,11.859-0.152,9.403,0.21,7.78
		C0.574,6.146,1.586,4.926,2.59,3.893c1.015-1.044,2.265-1.943,3.645-2.624c1.371-0.676,3.189-1.12,5.199-1.215
		c1.603-0.075,3.185,0,4.908,0c1.674,0,3.387-0.121,4.957,0c3.811,0.295,6.798,2.518,8.698,4.908
		c1.035,1.303,1.799,2.752,2.721,4.081c0.949,1.369,1.943,2.673,2.818,3.985c2.744,4.114,5.402,8.131,8.26,12.147
		c0.462,0.649,0.929,1.362,1.361,2.041c0.418,0.658,0.831,1.465,1.604,1.798c0.696-0.261,0.953-1.02,1.312-1.556
		c0.203-0.304,0.426-0.551,0.583-0.874c0.757-1.556,1.74-2.988,2.672-4.422c1.494-2.297,3.065-4.535,4.519-6.852
		c2.196-3.497,4.384-6.991,6.657-10.447c0.744-1.13,1.252-2.48,2.381-3.304c2.728-0.037,5.49-0.05,8.164-0.049
		C73.936,1.512,74.87,1.395,75.673,1.657z M20.861,1.803c-0.465-0.031-1.007-0.06-1.506,0c-2.304,0.278-0.033,1.856,0.632,2.624
		c0.644,0.744,1.068,1.456,1.506,2.139c0.98,1.525,2.021,2.997,2.964,4.373c4.52,6.592,9.007,13.089,13.363,19.631
		c0.998,1.499,1.972,2.942,2.964,4.373c0.489,0.706,0.994,1.557,1.7,1.992c1.521,0.089,3.46,0.049,5.054,0.049
		c0.541,0,1.19,0.152,1.506-0.243c-0.069-0.705-0.533-1.327-0.923-1.895c-0.407-0.592-0.761-1.224-1.166-1.799
		c-2.473-3.507-4.829-7.049-7.192-10.592c-3.155-4.733-6.429-9.392-9.718-13.995C28.341,5.368,25.345,2.104,20.861,1.803z"/>
</g>
<g id="Layer_1">
</g>
</svg>
