<?xml version="1.0" encoding="iso-8859-1"?>
<!-- Generator: Adobe Illustrator 19.2.0, SVG Export Plug-In . SVG Version: 6.00 Build 0)  -->
<svg version="1.1" xmlns="http://www.w3.org/2000/svg" xmlns:xlink="http://www.w3.org/1999/xlink" x="0px" y="0px"
	 viewBox="0 0 102.313 96.688" style="enable-background:new 0 0 102.313 96.688;" xml:space="preserve">
<g id="Nike_x5F_Air_x5F_Jordan_x5F_Jumpman">
	<path style="fill-rule:evenodd;clip-rule:evenodd;" d="M102.282,85.493c-0.151-0.192-1.227-0.787-1.665-0.787
		c-0.416,0-1.82,0.899-2.082,1.097c-0.263,0.174-0.92,0.504-1.14,0.526c-0.22,0.021-2.145,0.107-2.56,0.107
		c-0.439,0-1.073-0.107-1.357-0.086c-0.306,0.022-0.878,0.022-0.986,0.022c-0.132,0-0.177-0.2,0-0.396
		c0.153-0.174,0.458-0.7,0.746-1.094c0.284-0.372,0.764-0.68,1.05-0.831c0.286-0.134,0.747-0.333,0.789-0.526
		c0.045-0.199-0.725-0.199-1.184-0.046c-0.438,0.132-1.098,0.79-1.248,0.986c-0.176,0.177-0.33,0.195-0.462,0.177
		c-0.152-0.023-0.437,0.24-0.567,0.349c-0.111,0.087-0.416,0.31-0.702,0.31c-0.308,0-0.658-0.31-0.79-0.441
		c-0.153-0.108-0.438-0.217-0.635-0.198c-0.197,0.045-0.57-0.086-0.831-0.305c-0.264-0.198-0.329-0.417-0.264-0.548
		c0.065-0.108,0.22-0.438,0.264-0.571c0.043-0.152-0.153-0.219-0.306-0.305c-0.175-0.109-1.668-1.009-2.785-2.083
		c-0.986-0.872-2.735-2.144-3.568-2.802c-0.614-0.524-4.03-3.152-6.136-4.512c-2.102-1.336-4.007-2.673-4.774-2.786
		c-0.769-0.127-0.942-0.195-1.139-0.436c-0.194-0.242-3.175-2.999-4.883-3.939c-1.688-0.942-5.128-2.563-5.281-2.719
		c0.306-0.547,0.372-1.159,0.239-1.71c-0.153-0.544-1.292-1.4-1.753-1.709c-0.458-0.304-0.767-0.414-0.767-0.414
		s-0.74-1.665-0.806-1.906c0.217-0.878,0.79-3.7,0.659-7.446c-0.113-3.771-0.394-4.318-0.812-5.107
		c-0.397-0.789-1.009-1.577-1.423-3.327c-0.442-1.753-0.552-3.33-0.33-4.008c0.196-0.703,0.789-1.929,1.161-3.334
		c0.372-1.422,0.129-2.474,0.195-2.957c0.045-0.46,0.397-0.941,0.462-2.188c0.087-1.248,0.525-1.312,0.877-3.109
		c0.325-1.799,0.501-2.872,0.501-2.872s0.589-0.108,0.72-0.636c0.112-0.525,0.132-0.941,0.285-1.774
		c0.131-0.853,0.176-1.817,0.219-1.993c0.024-0.197-0.174-0.502-0.174-0.502s0.241-3.415,0.306-4.271
		c0.066-0.832,0.332-1.447,0.332-1.775c0-0.351,0.019-0.614-0.353-1.205c0.067-0.198,0.154-0.307,0.242-0.396
		c0.043,0,0.111,0,0.173,0c3.046,0,5.525-2.453,5.525-5.5C65.264,2.476,62.785,0,59.739,0c-3.042,0-5.496,2.476-5.496,5.517
		c0,0.922,0.22,1.774,0.615,2.542c0.086,0.309,0.199,0.702,0.284,0.834c0.132,0.24,0.33,0.461,0.395,0.726
		c0.088,0.261,0.439,0.874,0.546,1.095c0.134,0.218,0.333,0.721,0.333,0.918c0,0.198,0.149,0.547,0.263,0.789
		c0.085,0.241,0.063,0.743-0.068,1.314c-0.109,0.57-0.701,3.439-0.899,4.051c-0.392,0.221-0.504,0.504-0.546,0.791
		c-0.043,0.238-0.33,1.467-0.526,1.927c-0.198,0.46-0.264,1.27-0.285,1.512c-0.022,0.241-0.045,0.789-0.22,0.897
		c-0.196,0.287-0.351,0.767-0.526,1.03c-0.174,0.264-0.284,1.184-0.241,1.557c0.043,0.395-0.021,1.205-0.219,1.445
		c-0.263,0.57-0.308,1.249-0.461,1.58c-0.129,0.325-0.612,2.076-0.678,2.426c-0.087,0.373-0.767,0.92-1.097,1.229
		c-0.305,0.307-0.875,1.183-1.007,1.401c-0.043-0.504-0.156-0.504-0.241-0.657c-0.111-0.175-0.396-0.241-0.483-0.328
		c-0.064-0.066,0.11-0.264,0.155-0.526c0.023-0.219-0.022-0.481-0.547-0.657c-0.527-0.175-0.703-0.196-0.899-0.393
		c-0.176-0.177-0.723-0.35-0.9-0.595c-0.503-0.566-1.315-1.31-2.931-1.374c0,0-1.142,0-2.062,0.585
		c-0.831,0.572-2.345,1.668-2.652,3.901c-0.306,2.256,1.709,3.706,1.886,3.836c0.177,0.152,0.657,0.438,0.306,0.855
		c-0.152,0.15-0.197,0.414-0.216,0.547c-0.021,0.153-0.33,0.524-0.591,0.767c-0.264,0.24-0.834,0.854-0.834,0.854
		s-1.356,0.066-2.216,1.227c-0.347,0.44-0.522,1.028-0.743,1.399c-0.238,0.349-1.093,1.862-1.313,2.324
		c-0.243,0.457-0.417,1.071-1.118,1.687c-0.241,0.415-0.787,0.809-1.273,2.652c0,0-1.878,2.321-2.537,3.438
		c-0.678,1.097-1.729,3-1.795,3.264c-0.09,0.262-0.615,1.204-0.747,1.554c-0.153,0.375-0.198,0.703-0.372,0.899
		c-0.153,0.176-0.767,1.052-1.293,1.511c-0.505,0.438-0.678,0.701-0.831,0.921c-0.131,0.221-0.35,0.525-1.248,0.965
		c-0.877,0.415-1.359,0.854-2.675,1.008c-1.315,0.132-2.037,0.022-2.121,0.502c-0.113,0.484,2.187,0.571,2.953,0.44
		c1.008-0.109,1.6-0.636,1.731-0.527c0.111,0.133-0.284,0.792-1.162,1.073c-0.854,0.265-0.701,0.527-0.701,0.658
		c0,0.154,0.505,0.309,1.293,0.11c0.79-0.22,2.192-0.897,2.323-0.769c0.108,0.156-0.33,0.724-0.461,0.967
		c-0.152,0.239,0.067,0.503,0.284,0.525c0.22,0.021,0.769-0.044,1.207-0.855c0.417-0.81,1.009-1.205,1.183-1.205
		c0.178,0,0.921,0.833,1.425,1.009c0.501,0.196,1.599,0.196,1.709-0.351c0.13-0.549-0.659-0.57-0.856-0.57
		c-0.197,0-0.635-0.438-0.681-0.68c-0.019-0.241,0.134-1.007,0.067-1.336c-0.086-0.329,0.154-1.534,0.461-2.3
		c0.328-0.768,1.378-2.587,2.101-3.048c0.742-0.438,3.285-2.298,4.075-3.938c0.788-1.643,1.096-2.477,1.38-2.608
		c0.242-0.109,0.678-0.133,1.054-0.656c0.347-0.482,0.458-0.877,0.767-0.877c0.285,0,0.262-0.111,1.074,1.072
		c0.809,1.205,1.14,1.427,1.204,1.6c0.087,0.154-0.154,0.481,0.11,0.963c0.327,0.66,0.811,0.791,0.811,1.121
		c0,0.348,0.087,0.96,0.261,1.396c0.154,0.417,0.507,1.118,0.308,1.402c-0.241,0.396-0.809,1.096-0.942,1.314
		c-0.701,0.11-1.73,0.415-1.906,1.929c-0.154,1.423,0.046,2.762-0.022,3.09c-0.066,0.306-1.008,1.229-1.359,1.381
		c-0.372,0.153-1.205,0.263-1.49,0.698c-0.283,0.419-0.349,0.791-0.921,1.098c-0.524,0.308-4.007,3.283-6.349,6.766
		c-0.089,0.111-0.306,0.22-0.571,0.286c-1.027,0.176-1.423,0.506-1.598,0.594c-0.177,0.088-0.614,0.524-1.054,1.005
		c-0.175,0.264-0.416,0.33-0.479,0.417c-0.921,0.331-4.207,2.016-6.159,3.375c-1.967,1.358-5.605,4.488-6.897,6.109
		c-0.833,0.988-0.922,0.966-1.141,1.071c-0.217,0.09-0.109,0.572-0.045,0.813c0,0-0.394,0.524-0.634,0.57
		c-0.219,0.043-0.441-0.44-0.744-0.46c-0.332-0.024-0.658,0.635-0.747,0.787c-0.109,0.177-0.24,0.482-0.457,0.525
		c-0.221,0.047-0.615-0.24-0.658-0.83c-0.045-0.593-0.416-1.162-0.549-1.228c-0.285,0-0.458,0.457-0.458,0.635
		c0,0.153,0.174,0.613,0.33,0.809c0.129,0.179,0.043,0.461,0.043,0.637c0,0.198,0.239,0.396,0.262,0.459
		c0.022,0.066,0.108,0.595-0.088,0.55c-0.174-0.044-0.59-0.022-0.876,0.175c-0.285,0.198-0.437,0.418-0.437,0.592
		c0,0.175,0.131,0.526-0.439,0.658c-0.701,0.242-1.247,0.328-1.597,0.438c-0.371,0.131-1.205,0.614-1.533,0.658
		c-0.35,0.043-0.547,0.02-0.833,0.043c-0.306,0.021-0.569,0.175-0.855,0.175c-0.283,0-1.118,0.438-1.577,0.681
		c-0.459,0.241-0.984,1.028-0.637,1.749c0.33,0.722,1.293,1.664,1.601,1.994c0.308,0.328,0.766,0.613,1.776,0.745
		c0.987,0.108,1.577-0.243,2.08-0.548c0.503-0.33,1.597-0.482,2.014-0.395c0.437,0.088,1.313,0.416,2.037-0.109
		c0.922-0.635,0.634-1.03,0.898-1.204c0.242,0,0.329-0.11,0.549-0.483c0.22-0.351,0.481-0.656,0.854-0.742
		c0.394-0.065,0.746-0.523,0.985-1.029c0.241-0.504,0.724-1.009,0.965-1.097c0.216-0.087,0.371-0.307,0.439-0.503
		c0.086-0.196,0.527-0.351,0.81-0.571c0.261-0.219,0.46-0.327,0.589-0.24c0.11,0.089,0.331-0.087,0.595-0.283
		c0.611-0.286,0.898-0.789,1.072-0.682c0.197,0.136,0.855,0.286,1.139,0.067c0.241-0.239,3.743-3.069,4.992-4.01
		c0.833-0.569,1.471-0.787,3.114-1.754c1.333-0.767,3.372-2.126,3.831-2.431c0.441-0.308,2.516-1.926,2.779-2.1
		c0.594-0.417,1.185-0.485,3.267-1.534c1.555-0.811,4.822-2.433,7.625-4.229c1.444-0.877,3.876-2.104,4.184-2.125
		c0.328-0.043,1.18,0.612,2.104,0.941c1.094,0.416,1.839,0.503,3.418,1.028c1.574,0.525,5.822,2.325,6.855,2.74
		c1.028,0.395,2.453,0.92,4.249,1.007c0.985,0.2,1.468,0.352,1.818,0.417c0.329,0.065,0.591,0.043,0.92,0.197
		c0.329,0.132,1.315,0.791,1.93,1.072c0.589,0.288,2.711,1.711,3.259,2.107c0.548,0.409,3.109,2.364,3.682,2.757
		c0.593,0.372,1.163,0.832,1.601,0.876c0.415,0.043,0.94,0.35,1.509,0.79c0.593,0.459,1.929,1.378,2.302,1.686
		c0.393,0.285,0.919,0.787,1.663,0.831c0.741,0.046,1.094,0.22,1.577,0.637c0.481,0.44,1.18,1.402,1.51,1.578
		c0.352,0.197,0.724,0.505,0.876,0.791c0.154,0.307,1.032,1.4,1.358,1.643c0.331,0.24,0.486,0.438,0.614,0.829
		c0.111,0.371,0.615,1.379,0.88,1.796c0.261,0.417,0.37,0.811,1.138,0.285c0.985-0.659,1.776-1.578,3.023-2.385
		c1.246-0.812,1.946-1.271,2.909-1.928c0.965-0.638,3.287-2.938,3.947-3.66C102.13,85.977,102.412,85.672,102.282,85.493
		L102.282,85.493z"/>
</g>
<g id="Layer_1">
</g>
</svg>
