<?xml version="1.0" encoding="iso-8859-1"?>
<!-- Generator: Adobe Illustrator 19.2.0, SVG Export Plug-In . SVG Version: 6.00 Build 0)  -->
<svg version="1.1" xmlns="http://www.w3.org/2000/svg" xmlns:xlink="http://www.w3.org/1999/xlink" x="0px" y="0px"
	 viewBox="0 0 283.586 110.594" style="enable-background:new 0 0 283.586 110.594;" xml:space="preserve">
<g id="Nike">
	<path style="fill-rule:evenodd;clip-rule:evenodd;" d="M283.254,0c1.136,1.226-0.97,1.683-1.439,1.918
		c-14.174,7.127-28.765,14.327-42.925,21.223c-15.353,7.477-30.632,15.33-45.684,22.662c-15.292,7.448-30.36,15.43-45.684,22.781
		c-1.968,0.944-4.054,1.659-5.996,2.638c-13.086,6.6-26.762,13.232-40.048,19.664c-15.019,7.271-30.929,15.16-50,18.465
		c-10.22,1.771-21.585,1.908-29.976-1.319c-8.156-3.137-14.168-8.375-18.105-16.067c-4.166-8.14-4.169-19.346-1.798-29.017
		c2.183-8.908,6.166-17.216,10.072-24.101C18.944,26.03,28.199,15.702,37.57,4.916c0.632-0.728,1.222-1.646,1.918-2.398
		c0.569-0.614,1.361-1.697,2.398-1.559c-0.682,2.938-2.206,5.613-3.237,8.633c-2.866,8.388-5.697,19.825-4.197,31.295
		c1.755,13.419,9.002,24.332,24.101,24.101c7.019-0.107,13.898-2.141,20.144-3.957c31.502-9.16,61.934-18.024,92.926-27.578
		c12.321-3.798,24.695-7.695,37.05-11.151C233.771,15.282,258.691,6.805,283.254,0z"/>
</g>
<g id="Layer_1">
</g>
</svg>
