<?xml version="1.0" encoding="iso-8859-1"?>
<!-- Generator: Adobe Illustrator 21.0.2, SVG Export Plug-In . SVG Version: 6.00 Build 0)  -->
<svg version="1.1" xmlns="http://www.w3.org/2000/svg" xmlns:xlink="http://www.w3.org/1999/xlink" x="0px" y="0px"
	 viewBox="0 0 30.587 36.338" style="enable-background:new 0 0 30.587 36.338;" xml:space="preserve">
<g id="Nirav_x5F_Sahni">
	<g>
		<path d="M19.097,0.016c2.667-0.02,5.334-0.012,8.001-0.016c-0.014,0.218,0.032,0.437-0.006,0.654
			c-0.691,0.018-1.382,0-2.073,0.008c-0.361,0.024-0.746,0.047-1.056,0.255c-0.286,0.212-0.381,0.59-0.399,0.929
			c-0.089,0.471-0.035,0.951-0.056,1.427c0.003,5.184,0.002,10.367,0.006,15.551c-0.213,0.02-0.428,0.012-0.642,0.005
			c-0.081-1.363-0.345-2.747-1.032-3.944c-1.322-2.491-4.226-3.884-6.989-3.775c-1.273,0.087-2.579,0.451-3.566,1.294
			c-1.422,1.121-2.005,3.066-1.718,4.817c0.087,0.814,0.476,1.593,1.079,2.148c0.331,0.301,0.718,0.532,1.107,0.749
			c1.887,0.851,3.987,0.926,5.998,1.268c1.465,0.258,2.96,0.558,4.271,1.293c1.145,0.652,2.033,1.738,2.46,2.983
			c0.568,1.735,0.559,3.626,0.073,5.38c-0.456,1.56-1.461,2.955-2.792,3.887c-1.748,1.23-3.982,1.571-6.072,1.338
			c-1.592-0.125-3.118-0.669-4.585-1.271c-0.459-0.211-0.943-0.369-1.438-0.473c-0.302-0.034-0.661-0.034-0.873,0.221
			c-0.32,0.384-0.3,0.912-0.391,1.376c-0.21-0.004-0.421,0.002-0.631-0.005c-0.003-3.009,0.003-6.019-0.001-9.028
			c0.21-0.005,0.421,0.001,0.631-0.001c0.148,1.482,0.262,3.03,0.977,4.372c0.529,1.07,1.368,1.955,2.312,2.671
			c1.754,1.254,3.982,1.756,6.114,1.573c1.024-0.1,2.044-0.395,2.921-0.944c1.225-0.729,2.123-1.98,2.419-3.375
			c0.223-1.086,0.209-2.279-0.332-3.275c-0.352-0.7-0.974-1.209-1.612-1.639c-0.721-0.446-1.538-0.702-2.358-0.89
			c-1.299-0.288-2.617-0.477-3.926-0.705c-1.094-0.139-2.181-0.363-3.231-0.708c-0.663-0.262-1.322-0.579-1.844-1.075
			c-0.778-0.72-1.269-1.7-1.563-2.706c-0.577-2.083-0.397-4.404,0.659-6.307c0.758-1.339,1.982-2.388,3.397-2.98
			C9.678,7.986,6.94,4.936,4.25,1.846C4.227,8.368,4.254,14.891,4.243,21.414c-0.013,0.602,0.041,1.204,0.156,1.795
			c0.069,0.281,0.185,0.565,0.409,0.759c0.393,0.348,0.945,0.319,1.434,0.375c0.632,0.035,1.266-0.005,1.898,0.019
			c0,0.202,0.002,0.404-0.001,0.606c-2.156,0.03-4.315-0.004-6.471,0.008c-0.552-0.005-1.105,0.013-1.656-0.014
			c-0.011-0.196-0.001-0.391-0.01-0.587c0.604-0.05,1.213,0.005,1.818-0.033c0.451-0.055,0.955-0.049,1.318-0.366
			c0.314-0.3,0.403-0.751,0.468-1.163c0.001-0.441,0.037-0.882,0.03-1.323C3.633,14.782,3.641,8.071,3.625,1.365
			C3.653,1.235,3.621,1.098,3.491,1.04C3.259,0.916,3.075,0.644,2.786,0.692C1.857,0.691,0.929,0.695,0.001,0.694
			c0.001-0.213-0.002-0.427,0-0.64c2.52-0.048,5.042-0.003,7.563-0.023c0.198-0.029,0.27,0.194,0.399,0.298
			c1.15,1.314,2.301,2.627,3.456,3.937c0.36,0.482,0.785,0.911,1.173,1.369c1.486,1.641,2.921,3.328,4.391,4.983
			c1.177,0.218,2.244,0.802,3.283,1.372c0.564,0.271,1.053,0.727,1.691,0.818c0.281,0.006,0.574-0.128,0.704-0.389
			c0.171-0.363,0.172-0.775,0.21-1.167c0.002-2.509-0.006-5.017,0-7.525c-0.027-0.518,0.006-1.038-0.048-1.555
			c-0.02-0.451-0.079-0.997-0.486-1.274c-0.422-0.224-0.917-0.214-1.381-0.231c-0.62,0.002-1.24,0.001-1.86,0.002
			C19.085,0.452,19.087,0.234,19.097,0.016z"/>
		<g>
			<path d="M27.929,3.771c0.739-0.075,1.502,0.216,2,0.767c0.611,0.631,0.812,1.592,0.541,2.422
				c-0.288,0.937-1.189,1.65-2.169,1.704c-0.73,0.069-1.468-0.227-1.977-0.75c-0.442-0.495-0.732-1.155-0.672-1.828
				C25.663,4.887,26.737,3.819,27.929,3.771z M27.8,3.974c-1.007,0.162-1.855,1.063-1.888,2.092
				c-0.109,1.098,0.734,2.197,1.829,2.365c0.43,0.043,0.884,0.028,1.28-0.163c0.79-0.368,1.348-1.222,1.304-2.101
				c0.034-0.764-0.433-1.476-1.058-1.883C28.829,4.016,28.307,3.92,27.8,3.974z"/>
		</g>
		<path d="M27.353,5.145c0.375-0.43,1.054-0.512,1.506-0.152c0.048-0.065,0.097-0.128,0.147-0.191
			c0.032,0.01,0.064,0.019,0.096,0.029c0.002,0.239,0.003,0.478,0,0.717c-0.037,0.001-0.073,0.001-0.109,0.002
			c-0.097-0.341-0.394-0.659-0.77-0.645c-0.299-0.026-0.632,0.165-0.678,0.479c-0.086,0.534-0.113,1.088-0.01,1.621
			c0.08,0.427,0.645,0.599,0.991,0.381c0.223-0.109,0.342-0.337,0.44-0.553c0.017-0.063,0.084-0.059,0.136-0.067
			c-0.001,0.266,0.009,0.532-0.003,0.798c-0.116,0.005-0.182-0.091-0.243-0.174c-0.325,0.176-0.713,0.321-1.072,0.152
			C26.865,7.179,26.67,5.819,27.353,5.145z"/>
	</g>
</g>
<g id="Layer_1">
</g>
</svg>
