<?xml version="1.0" encoding="iso-8859-1"?>
<!-- Generator: Adobe Illustrator 19.2.0, SVG Export Plug-In . SVG Version: 6.00 Build 0)  -->
<svg version="1.1" xmlns="http://www.w3.org/2000/svg" xmlns:xlink="http://www.w3.org/1999/xlink" x="0px" y="0px"
	 viewBox="0 0 67.727 67.975" style="enable-background:new 0 0 67.727 67.975;" xml:space="preserve">
<g id="Nishiki_x5F_Printing">
	<path style="fill-rule:evenodd;clip-rule:evenodd;" d="M43.909,20.764c0.285-0.703,0.197-1.559,0.197-2.36
		c0-6.112-0.096-12.291,0.098-18.196c5.757-0.185,11.854-0.099,17.655-0.099c1.956,0.001,3.901-0.11,5.754,0.099
		c0.139,0.261,0.161,0.973,0,1.229c-7.411,0.267-14.846-0.04-21.934,0.197c-0.249,0.386-0.147,0.89-0.147,1.328
		c0,7.076,0.054,14.384-0.099,21.344c-0.641-0.159-1.066-0.796-1.524-1.279c-0.468-0.493-0.902-1.034-1.328-1.524
		C35.825,14.897,29.31,8.053,22.467,1.535C15.057,1.47,7.386,1.666,0.139,1.437C-0.041,0.876-0.086,0.185,0.435,0.06
		c0.56-0.135,1.513,0,2.311,0c6.805,0,13.557,0.026,20.262,0c1.864,1.609,3.594,3.36,5.312,5.114
		c4.687,4.789,9.684,9.4,14.262,14.36c0.205,0.222,0.439,0.41,0.639,0.639C43.406,20.387,43.569,20.747,43.909,20.764z"/>
	<path style="fill-rule:evenodd;clip-rule:evenodd;" d="M43.958,64.287c0.267-1.616,0.147-3.343,0.147-5.065
		c0-5.072-0.041-10.417,0.049-15.442c0.714-0.262,1.518-0.147,2.262-0.147c5.321,0,10.861-0.018,16.229,0
		c1.635,0.005,3.49-0.211,4.967,0.098c0.152,0.248,0.152,0.982,0,1.229c-1.785,0.203-3.688,0.099-5.557,0.099
		c-5.546,0-10.915-0.047-16.376,0.147c-0.265,0.871-0.147,1.836-0.147,2.754c0,6.55,0.081,13.581-0.099,20.016
		c-0.6-0.14-1.032-0.867-1.475-1.328c-6.575-6.771-13.327-13.524-20.114-20.311c-0.429-0.429-1.012-1.113-1.426-1.229
		c-0.607-0.171-1.534-0.023-2.36,0c-4.487,0.126-9.003,0-13.622,0c-1.089,0-2.171,0-3.246,0c-1.033,0-2.112,0.111-3.098-0.147
		c-0.122-0.352-0.135-0.926,0.049-1.229c5.642-0.331,11.885,0.066,17.753-0.098c0.777-0.022,1.693,0.032,2.558,0
		c0.804-0.03,1.875-0.179,2.557,0c0.448,0.118,0.81,0.662,1.23,1.082C29.943,50.421,35.644,56,41.253,61.828
		c0.511,0.356,0.895,0.845,1.328,1.279C42.995,63.521,43.348,64.081,43.958,64.287z"/>
</g>
<g id="Layer_1">
</g>
</svg>
