<?xml version="1.0" encoding="iso-8859-1"?>
<!-- Generator: Adobe Illustrator 19.2.0, SVG Export Plug-In . SVG Version: 6.00 Build 0)  -->
<svg version="1.1" xmlns="http://www.w3.org/2000/svg" xmlns:xlink="http://www.w3.org/1999/xlink" x="0px" y="0px"
	 viewBox="0 0 97.892 75.746" style="enable-background:new 0 0 97.892 75.746;" xml:space="preserve">
<g id="Nizhegorodskaya_x5F_Lift">
	<path style="fill-rule:evenodd;clip-rule:evenodd;" d="M97.892,49.953C88.213,42.036,78.878,32.454,69.1,23.681
		c-1.103-0.989-3.172-3.311-4.199-3.599c-1.973-0.554-5.731,0-8.038,0c-5.579,0-10.164,0-15.835,0c-2.569,0-5.659-0.482-7.918,0
		c-1.235,0.263-3.166,2.556-4.319,3.599C19.126,32.424,10.062,41.799,0,49.953c0.234-15.713,5.956-26.49,13.796-35.03
		c7.751-8.444,18.668-14.165,33.95-14.875C62.54-0.641,75.502,6.21,83.616,14.324C92.239,22.946,97.628,34.477,97.892,49.953z"/>
	<path style="fill-rule:evenodd;clip-rule:evenodd;" d="M97.172,57.751c-2.66-1.509-4.773-4.041-7.198-6.238
		c-5.972-5.409-11.777-10.504-17.875-16.315c-0.942-0.898-2.718-2.877-3.599-3.119c-2.2-0.608-7.336,0-9.837,0
		c-8.252,0-15.856,0-24.473,0c-1.606,0-3.591-0.316-4.799,0c-1.124,0.293-2.649,2.382-3.719,3.359
		c-6.089,5.559-12.117,10.78-18.115,16.315c-2.307,2.129-4.287,4.535-6.838,6.118c0.202-0.984-0.707-2.629-0.48-3.839
		c0.211-1.13,2.728-2.919,3.719-3.839c6.56-6.087,13.195-11.975,19.674-17.995c2.639-2.452,5.399-4.754,7.798-7.198
		c0.852-0.868,6.59-0.36,8.878-0.36c6.402,0,10.559,0,17.035,0c2.739,0,6.127-0.491,8.397,0c1.139,0.246,3.134,2.49,4.199,3.479
		c4.072,3.783,7.953,7.376,11.876,11.037c3.878,3.618,7.954,7.022,11.997,10.917c0.922,0.888,3.599,2.723,3.839,3.719
		C97.954,55.05,96.899,56.732,97.172,57.751z"/>
	<path style="fill-rule:evenodd;clip-rule:evenodd;" d="M94.533,66.988c-2.001-1.224-3.625-2.987-5.398-4.679
		c-4.29-4.094-8.772-8.07-13.436-12.356c-0.777-0.714-2.046-2.204-2.759-2.399c-1.5-0.411-4.167,0-6.118,0
		c-12.442,0-23.638,0-36.229,0c-2.01,0-4.323-0.364-5.758,0c-1.457,0.37-4.227,3.788-5.399,4.919
		c-3.664,3.534-7.144,6.52-10.797,9.837c-1.826,1.658-3.35,3.613-5.398,4.679c0.077-1.187-1.505-2.979-1.319-4.439
		c0.096-0.756,2.007-2.354,2.879-3.119c7.24-6.349,14.576-13.707,21.714-19.794c0.135-0.115,0.198-0.225,0.479-0.24
		c7.142-0.395,16.732,0.148,24.353,0.12c2.86-0.01,6.385-0.147,9.837-0.12c2.901,0.024,7.161-0.587,9.597,0
		c0.934,0.225,2.222,1.918,3.239,2.879c3.183,3.008,6.644,5.712,9.597,8.397c3.085,2.806,5.993,5.558,9.357,8.638
		c0.804,0.736,2.88,2.458,2.999,2.999C96.319,63.882,94.48,65.722,94.533,66.988z"/>
	<path style="fill-rule:evenodd;clip-rule:evenodd;" d="M92.133,72.266c-0.53,1.269-1.285,2.314-1.92,3.479
		c-1.045-0.73-2.217-1.753-3.479-2.879c-1.029-0.918-2.334-2.598-3.479-2.879c-2.009-0.495-5.531,0-8.157,0
		c-18.502,0-35.151,0-51.225,0c-3.308,0-6.779-0.424-9.238,0.12c-1.231,0.272-2.623,2.005-3.479,2.759
		c-1.293,1.14-2.348,2.095-3.359,2.759c-0.953-0.806-1.314-2.204-2.039-3.239c2.389-2.666,5.762-5.672,8.877-8.397
		c0.767-0.67,2.034-2.395,3-2.639c1.61-0.408,4.355-0.117,6.118-0.12c16.329-0.03,32.063-0.087,49.905,0.12
		c2.107,0.024,5.032-0.42,6.598,0c0.809,0.217,2.364,1.923,3.119,2.639C86.265,66.731,89.561,69.632,92.133,72.266z"/>
</g>
<g id="Layer_1">
</g>
</svg>
