<?xml version="1.0" encoding="iso-8859-1"?>
<!-- Generator: Adobe Illustrator 19.2.0, SVG Export Plug-In . SVG Version: 6.00 Build 0)  -->
<svg version="1.1" xmlns="http://www.w3.org/2000/svg" xmlns:xlink="http://www.w3.org/1999/xlink" x="0px" y="0px"
	 viewBox="0 0 173.132 49.785" style="enable-background:new 0 0 173.132 49.785;" xml:space="preserve">
<g id="Nomina_x5F_DE">
	<path style="fill-rule:evenodd;clip-rule:evenodd;" d="M112.439,0.152c0.115,2.652,0.227,5.573,0,7.98
		c-2.484,0.106-5.439,0.131-7.98-0.046c-0.191-1.212-0.096-2.675-0.092-4.105c0.004-1.313-0.205-2.712,0.092-3.875
		C107.042-0.053,109.92-0.029,112.439,0.152z"/>
	<path style="fill-rule:evenodd;clip-rule:evenodd;" d="M158.888,15.466c0.154,2.693,0.154,6.024,0,8.718
		c-2.561,0.184-5.453,0.196-8.072,0c-0.223-3.948,1.734-6.585,4.475-7.934C156.357,15.726,157.554,15.266,158.888,15.466z"/>
	<path style="fill-rule:evenodd;clip-rule:evenodd;" d="M173.003,48.493c-2.432,0.115-5.406,0.121-7.98,0
		c-0.219-0.599-0.096-1.268-0.092-1.891c0.061-7.405-0.092-15.867-0.092-23.663c0-1.998-0.031-3.995,0.045-5.812
		c0.023-0.545-0.182-1.213,0.186-1.706c4.057,0.263,6.98,2.485,7.795,6.227c0.404,1.857,0.23,4.374,0.23,6.597
		C173.095,34.656,173.169,42.395,173.003,48.493z"/>
	<path style="fill-rule:evenodd;clip-rule:evenodd;" d="M142.882,48.539c-2.461,0.178-5.582,0.102-7.98,0.046
		c-0.219-5.036-0.137-10.628-0.137-16.421c0-4.774-0.102-9.759-0.047-14.761c0.006-0.584-0.055-1.678,0.184-1.846
		c1.473-0.211,3.053,0.473,4.152,1.107c1.127,0.651,2.01,1.429,2.676,2.491c1.438,2.295,1.162,5.481,1.199,9.041
		C142.997,34.749,143.05,42.536,142.882,48.539z"/>
	<path style="fill-rule:evenodd;clip-rule:evenodd;" d="M38.22,15.651c0.156,10.514,0.185,21.528,0.185,32.104
		c0,0.656,0.106,1.361-0.138,1.983c-2.603,0.186-4.552-1.072-5.997-2.353c-1.031-1.118-1.764-2.495-2.076-4.336
		c-0.305-1.804-0.23-3.911-0.231-6.043c0-4.271-0.084-8.746-0.046-12.731c0.049-5.127,3.094-8.044,7.334-8.672
		C37.456,15.575,37.924,15.462,38.22,15.651z"/>
	<path style="fill-rule:evenodd;clip-rule:evenodd;" d="M88.591,15.558c3.049,0.123,5.602,1.561,6.826,3.644
		c0.979,1.665,1.154,3.894,1.153,6.55c0,6.463,0.046,12.716,0.046,19.143c0,1.266,0.111,2.542-0.138,3.69
		c-2.554,0.12-5.604,0.221-7.979,0.092c-0.179-7.818-0.186-16.577-0.186-24.908c0-1.945-0.004-4.256,0-6.135
		c0.002-0.663,0.032-1.667,0.139-1.983C88.485,15.608,88.536,15.58,88.591,15.558z"/>
	<path style="fill-rule:evenodd;clip-rule:evenodd;" d="M22.214,48.77c-1.229,0.163-2.64,0.078-4.013,0.139
		c-1.375,0.06-2.831,0.064-4.013-0.139c-0.188-2.738-0.067-5.532-0.092-8.303c-0.068-7.487-0.046-14.941-0.046-22.741
		c0-0.66-0.087-1.826,0.138-2.029c1.4-0.141,3.126,0.486,4.198,1.107c1.125,0.65,2.021,1.482,2.675,2.537
		c1.411,2.272,1.201,5.604,1.246,9.041C22.389,34.728,22.313,42.259,22.214,48.77z"/>
	<path style="fill-rule:evenodd;clip-rule:evenodd;" d="M44.17,15.605c3.818,0.155,6.54,2.131,7.565,5.12
		c0.568,1.654,0.6,3.631,0.6,5.766c0,4.253-0.007,8.401,0,12.593c0.004,2.151,0.017,4.01-0.6,5.627
		c-1.141,2.996-3.622,4.938-7.473,5.074c-0.242-0.625-0.184-1.329-0.184-1.983c0.001-9.994-0.138-19.852-0.139-29.982
		c0-0.73-0.064-1.712,0.092-2.076C44.058,15.676,44.104,15.63,44.17,15.605z"/>
	<path style="fill-rule:evenodd;clip-rule:evenodd;" d="M112.439,16.066c0.203,1.281,0.199,2.635,0.139,3.967
		c-0.178,3.898,0,8.121,0,12.224c-0.001,5.458,0.168,10.947-0.047,16.236c-2.462,0.155-5.563,0.153-8.025,0
		c-0.207-9.925-0.139-20.388-0.139-30.259c0-0.755-0.111-1.528,0.139-2.214C107.021,15.885,109.823,15.904,112.439,16.066z"/>
	<path style="fill-rule:evenodd;clip-rule:evenodd;" d="M128.675,16.158c0.17,2.731,0.092,5.467,0.092,8.211
		c0.001,7.752,0.134,16.222,0,24.217c-1.219,0.168-2.664,0.092-4.059,0.092c-1.408,0.001-2.842,0.11-4.013-0.138
		c-0.18-7.848-0.139-16.147-0.139-24.447c0-1.874,0-3.906,0-5.997c0-0.638-0.088-1.783,0.139-1.938
		c0.034-0.043,0.083-0.069,0.138-0.092C123.418,16.126,126.243,15.945,128.675,16.158z"/>
	<path style="fill-rule:evenodd;clip-rule:evenodd;" d="M68.202,16.25c0.264,1.249,0.096,2.572,0.092,3.874
		c-0.026,9.32,0.221,19.314,0,28.6c-2.461,0.153-5.563,0.153-8.025,0c-0.211-9.926-0.139-20.441-0.138-30.583
		c0-0.631-0.105-1.296,0.138-1.891C62.706,16.103,65.767,16.092,68.202,16.25z"/>
	<path style="fill-rule:evenodd;clip-rule:evenodd;" d="M82.318,16.25c0.188,10.556,0.203,21.942,0.092,32.427
		c-1.141,0.248-2.542,0.139-3.92,0.139c-1.363,0-2.779,0.074-3.967-0.092c-0.265-1.27-0.086-2.6-0.139-3.921
		c-0.163-4.075,0-8.123,0-12.27c0-3.985-0.047-8.105-0.047-12.316c0-1.134-0.266-3.275,0.139-3.967c0.004-0.007,0.04,0.005,0.047,0
		c0.033-0.043,0.083-0.07,0.138-0.093C77.183,16.218,79.947,16.036,82.318,16.25z"/>
	<path style="fill-rule:evenodd;clip-rule:evenodd;" d="M8.007,16.342c0.158,5.321,0.138,10.868,0.138,16.376
		c0,4.104,0.046,8.128,0.046,12.223c0,1.312,0.092,2.617-0.138,3.875c-1.218,0.159-2.578,0.106-3.921,0.093
		c-1.342-0.014-2.775,0.118-3.967-0.139C0.048,39.115,0.026,28.2,0.027,18.141c0-0.609-0.131-1.32,0.184-1.891
		C2.707,16.299,5.594,16.115,8.007,16.342z"/>
	<path style="fill-rule:evenodd;clip-rule:evenodd;" d="M158.935,28.289c0.168,6.509,0.109,13.277,0.092,19.604
		c-0.002,0.517,0.176,1.173-0.092,1.615c-2.057,0.065-3.896-0.658-5.258-1.707c-1.35-1.039-2.322-2.609-2.723-4.429
		c-0.336-1.531-0.184-3.109-0.184-4.704c0-1.621-0.039-3.251,0.322-4.613c0.826-3.115,3.367-5.271,6.781-5.812
		C158.101,28.207,158.616,28.104,158.935,28.289z"/>
</g>
<g id="Layer_1">
</g>
</svg>
