<?xml version="1.0" encoding="iso-8859-1"?>
<!-- Generator: Adobe Illustrator 19.2.0, SVG Export Plug-In . SVG Version: 6.00 Build 0)  -->
<svg version="1.1" xmlns="http://www.w3.org/2000/svg" xmlns:xlink="http://www.w3.org/1999/xlink" x="0px" y="0px"
	 viewBox="0 0 77.823 78.377" style="enable-background:new 0 0 77.823 78.377;" xml:space="preserve">
<g id="Norsk_x5F_Hytteformidling">
	<path style="fill-rule:evenodd;clip-rule:evenodd;" d="M77.639,0.101c0.259,13.127,0.148,26.453,0.148,39.65
		c-0.001,12.992,0.107,25.48-0.049,38.365c-1.465,0.268-3.108,0.148-4.79,0.148c-11.385,0.004-22.836,0.049-34.169,0.049
		c-13.002,0-25.976,0.17-38.662-0.049c-0.181-6.49-0.1-13.01-0.099-19.555c0.003-19.459-0.033-39.131,0-58.412
		c0.044-0.022,0.088-0.043,0.099-0.098C25.769,0.066,51.916-0.117,77.639,0.101z M42.878,7.064c-4.02-0.002-8.013,0-11.999,0
		c-7.996-0.002-15.955-0.012-23.75,0.197c-0.252,1.193-0.124,2.463-0.148,3.703C6.845,17.847,7.03,24.26,7.03,30.715
		c0.002,12.131-0.001,24.469,0,36.539c0,1.398-0.119,2.77,0.148,3.951c20.979,0.154,42.216,0.084,63.499-0.1
		c0.178-13.262,0.1-26.996,0.099-39.945c0-8.096,0.113-16.299-0.148-24.047C61.467,6.912,52.208,7.064,42.878,7.064z"/>
	<path style="fill-rule:evenodd;clip-rule:evenodd;" d="M69.196,32.888c-0.081,2.412,0.155,5.205-0.099,7.307
		c-0.755-0.101-1.329-0.642-1.926-1.037c-0.597-0.393-1.258-0.701-1.876-1.037c-3.771-2.049-7.434-4.211-11.209-6.418
		c-4.305-2.518-8.669-5-13.134-7.457c-0.514-0.281-1.525-0.976-1.926-0.986c-0.448-0.012-1.434,0.725-1.976,1.037
		c-4.457,2.572-8.839,5.172-13.184,7.801c-3.8,2.301-7.524,4.375-11.307,6.666c-1.238,0.75-2.477,1.578-3.852,2.123
		c-0.247-1.703-0.074-4.017-0.148-6.023c-0.024-0.658-0.105-1.51,0.099-1.926c0.216-0.439,1.312-0.869,1.827-1.186
		c4.279-2.633,8.941-5.156,13.184-7.703c4.312-2.586,8.786-5.145,13.184-7.752c0.636-0.377,1.264-0.812,1.876-1.086
		c0.479-0.213,1.589,0.644,2.173,0.988c8.238,4.83,16.471,9.609,24.689,14.318C66.844,31.236,68.09,31.976,69.196,32.888z"/>
	<path style="fill-rule:evenodd;clip-rule:evenodd;" d="M60.95,37.629c0.05,8.318,0.147,17.158-0.049,25.479
		c-0.873,0.182-2.057,0.146-3.21,0.146c-1.138,0.002-2.356,0.115-3.259-0.146c-0.229-6.922-0.033-14.27-0.099-21.381
		c-0.484-0.557-1.188-0.891-1.827-1.234c-4.542-2.441-9.051-5.123-13.677-7.555c-4.478,2.375-8.781,5.1-13.135,7.652
		c-0.607,0.357-1.31,0.631-1.777,1.186c-0.256,7.162,0.113,14.369-0.198,21.43c-1.998,0.162-4.667,0.164-6.665,0
		c-0.19-8.1-0.108-17.35-0.05-25.281c0.266-0.49,0.844-0.633,1.284-0.889c3.114-1.801,6.284-3.785,9.431-5.678
		c2.694-1.621,5.395-3.152,8.148-4.789c0.892-0.531,1.791-1.184,2.715-1.58c0.499-0.215,1.075,0.352,1.68,0.691
		c3.271,1.834,6.552,3.643,9.678,5.529C53.761,33.515,57.453,35.381,60.95,37.629z"/>
	<path style="fill-rule:evenodd;clip-rule:evenodd;" d="M52.655,58.119c-2.159,0.055-4.487,0.148-6.567-0.049
		c-0.193-3.82-0.108-7.621-0.148-11.506c-0.901-0.949-2.223-1.357-3.506-2.072c-0.518-0.289-1.146-0.645-1.777-0.988
		c-0.511-0.279-1.367-0.889-1.876-0.889c-0.512,0-1.314,0.621-1.778,0.889c-0.608,0.354-1.184,0.693-1.678,0.988
		c-1.198,0.709-2.367,1.148-3.26,2.023c-0.18,3.721,0.115,7.916-0.148,11.555c-1.929,0.248-4.664,0.201-6.666,0.049
		c-0.186-4.578-0.107-10.297-0.05-15.258c0.329-0.58,1.006-0.811,1.531-1.184c1.543-1.098,3.303-2.033,4.986-3.062
		c1.669-1.02,3.379-2,5.086-3.012c0.559-0.33,1.114-0.758,1.68-0.988c0.5-0.203,1.468,0.531,2.073,0.889
		c2.872,1.703,5.909,3.402,8.789,5.086c1.17,0.686,2.367,1.297,3.407,2.123c0.039,3.811,0.05,7.658,0.05,11.605
		C52.803,55.599,52.921,56.918,52.655,58.119z"/>
</g>
<g id="Layer_1">
</g>
</svg>
