<?xml version="1.0" encoding="iso-8859-1"?>
<!-- Generator: Adobe Illustrator 19.2.0, SVG Export Plug-In . SVG Version: 6.00 Build 0)  -->
<svg version="1.1" xmlns="http://www.w3.org/2000/svg" xmlns:xlink="http://www.w3.org/1999/xlink" x="0px" y="0px"
	 viewBox="0 0 103.885 104.041" style="enable-background:new 0 0 103.885 104.041;" xml:space="preserve">
<g id="Norsk_x5F_Films_x5F_AS">
	<path style="fill-rule:evenodd;clip-rule:evenodd;" d="M103.654,0.368c0.276,19.362,0.291,34.601,0.119,53.361
		c-0.14,15.268,0.372,31.709-0.239,50.243c-18.226,0.291-32.838-0.471-51.683-0.12c-18.577,0.346-36.465-0.325-51.562,0
		c-0.426-22.237-0.304-56.259-0.12-78.902c0.062-7.641-0.222-15.904,0-24.342c32.94-0.488,65.337,0.221,97.249-0.6
		C99.346-0.041,101.759,0.118,103.654,0.368z M17.676,25.071C12.118,31.997,7.23,41.669,8.083,54.689
		c1.137,17.355,10.896,29.657,23.503,36.454c6.515,3.512,15.745,5.593,24.103,4.916c7.612-0.616,14.334-3.138,19.546-6.476
		c0.823-0.527,1.779-0.819,2.519-1.318C87.961,81.37,95.7,67.869,95.859,51.811c0.067-6.786-2.327-14.324-5.036-19.546
		c-2.822-5.439-6.226-10.336-11.032-13.909c-7.255-5.397-17.818-10.614-29.858-9.714C34.737,9.78,24.86,16.118,17.676,25.071z"/>
	<path style="fill-rule:evenodd;clip-rule:evenodd;" d="M55.449,15.837c-0.443,0.689-1.402,0.481-2.039,0.6
		c-6.112,1.131-11.217,3.22-15.469,6.355c-6.887,5.079-12.256,12.801-14.149,22.783c-2.696,14.214,3.794,26.628,11.271,33.576
		c5.357,4.977,11.462,8.271,20.266,9.593c-11.636,1.466-20.517-2.604-26.74-8.034c-7.612-6.642-13.761-16.037-13.551-29.858
		c0.168-11.037,5.52-19.594,11.752-25.422C33.412,19.237,42.979,14.471,55.449,15.837z"/>
	<path style="fill-rule:evenodd;clip-rule:evenodd;" d="M88.185,55.888c-0.844-1.151-0.724-2.457-1.08-3.957
		c-1.385-5.833-5.388-10.924-9.713-14.39c-4.541-3.64-10.303-6.355-17.627-6.355c-16.346,0.002-26.488,11.765-28.659,25.542
		c-0.824-0.892-0.986-3.442-0.479-4.317c-0.449-0.835-0.319-1.731-0.24-2.518c0.709-7.001,3.41-12.785,7.675-17.507
		c4.465-4.942,11.328-8.834,19.426-9.353c10.058-0.645,18.02,3.753,23.143,9.114C85.876,37.634,89.463,46.055,88.185,55.888z"/>
	<path style="fill-rule:evenodd;clip-rule:evenodd;" d="M55.808,81.07c1.746-0.941,3.515-1.29,5.156-2.038
		c7.319-3.338,13.637-12.032,11.512-23.264c-0.989-5.229-3.872-9.41-7.435-12.351c-2.604-2.149-5.931-3.119-9.233-4.437
		c3.734-1.057,8.772-0.371,12.111,1.079c8.65,3.757,15.724,14.37,12.231,26.381C77.456,75.707,68.22,83.023,55.808,81.07z"/>
	<path style="fill-rule:evenodd;clip-rule:evenodd;" d="M50.892,46.415c5.07-0.808,8.625,4.365,6.475,8.753
		c-1.695,3.46-7.55,4.399-10.192,0.84C44.467,52.363,46.423,47.126,50.892,46.415z"/>
	<path style="fill-rule:evenodd;clip-rule:evenodd;" d="M39.02,56.008c0.783,0.487,0.637,1.342,0.96,2.038
		c2.028,4.374,6.788,7.924,12.83,7.555c6.159-0.377,10.053-4.166,11.752-9.354c1.033,0.854,1.084,2.69,1.079,3.838
		c-0.039,9.73-10.771,17.251-20.386,11.991c-4.611-2.523-7.406-7.767-7.074-14.749c0.432-0.208,0.494-0.785,0.6-1.319
		C38.861,56.008,38.941,56.008,39.02,56.008z"/>
</g>
<g id="Layer_1">
</g>
</svg>
