<?xml version="1.0" encoding="iso-8859-1"?>
<!-- Generator: Adobe Illustrator 21.0.2, SVG Export Plug-In . SVG Version: 6.00 Build 0)  -->
<svg version="1.1" xmlns="http://www.w3.org/2000/svg" xmlns:xlink="http://www.w3.org/1999/xlink" x="0px" y="0px"
	 viewBox="0 0 22.104 14.534" style="enable-background:new 0 0 22.104 14.534;" xml:space="preserve">
<g id="Northern_x5F_Telecom_x5F_Societe_x5F_de_x5F_Telecommunications_x5F_et_x5F_d_x5F_electronique">
	<path d="M16.317,2.004C16.986,1.335,17.655,0.667,18.326,0c-0.004,1.208-0.003,2.415-0.001,3.622
		c1.161,0.004,2.322-0.001,3.483,0.002c-0.001,1.199-0.002,2.399,0.002,3.599c-1.144,0.006-2.289,0-3.433,0.003
		c-0.002,1.216,0.001,2.433-0.001,3.65c1.243,0.002,2.485,0.001,3.728,0.001c-0.259,0.262-0.453,0.577-0.683,0.864
		c-0.574,0.752-1.143,1.509-1.718,2.26c-0.136,0.178-0.259,0.366-0.415,0.528c-0.689-0.009-1.396,0.062-2.061-0.164
		c-1.475-0.432-2.616-1.914-2.518-3.47c-0.885,1.182-1.729,2.396-2.604,3.586c-0.491-0.014-0.983,0-1.474-0.006
		c-0.89-0.072-1.741-0.488-2.356-1.133c-0.514-0.582-0.883-1.317-0.931-2.1c-0.051-0.302-0.028-0.607-0.032-0.911
		c0.002-1.035-0.004-2.071,0.003-3.106C6.098,7.227,4.88,7.223,3.662,7.229c-0.007,2.433-0.005,4.867-0.001,7.301
		c-1.22,0-2.441,0.004-3.661-0.002C0.006,10.91,0.003,7.292,0.002,3.673c1.22,0.008,2.441,0.014,3.66-0.003
		C3.653,4.845,3.661,6.021,3.658,7.197c0.429-0.474,0.798-0.999,1.205-1.492c0.528-0.677,1.074-1.34,1.59-2.025
		c0.303-0.007,0.607,0.002,0.91-0.001c1.566-0.074,3.079,1.048,3.502,2.552c0.088,0.312,0.137,0.636,0.155,0.96
		c0.388-0.381,0.775-0.762,1.156-1.149c0.264-0.206,0.498-0.447,0.729-0.688c1.044-1.028,2.073-2.071,3.116-3.099
		C16.121,2.169,16.226,2.095,16.317,2.004z M11.016,7.226c-0.003,1.217,0.003,2.433-0.003,3.65c1.229,0.003,2.459,0,3.688,0.001
		c-0.007-1.217,0.001-2.434-0.004-3.651C13.47,7.225,12.243,7.227,11.016,7.226z"/>
</g>
<g id="Layer_1">
</g>
</svg>
