<?xml version="1.0" encoding="iso-8859-1"?>
<!-- Generator: Adobe Illustrator 21.0.2, SVG Export Plug-In . SVG Version: 6.00 Build 0)  -->
<svg version="1.1" xmlns="http://www.w3.org/2000/svg" xmlns:xlink="http://www.w3.org/1999/xlink" x="0px" y="0px"
	 viewBox="0 0 30.479 32.246" style="enable-background:new 0 0 30.479 32.246;" xml:space="preserve">
<g id="Nothnagle">
	<path d="M11.923,1.075c1.359-1.282,3.592-1.408,5.156-0.429c1.364,0.814,2.169,2.426,2.088,4.003
		c-0.054,5.07,0.073,10.138,0.053,15.208c-2.631-4.274-5.42-8.454-7.969-12.778C9.934,5.283,10.223,2.532,11.923,1.075z"/>
	<path d="M0.474,18.884C3.168,14.4,5.895,9.936,8.697,5.52c-0.019,5.131,0.098,10.263,0.07,15.392
		c0.031,1.843-1.239,3.608-2.984,4.188C4.41,25.603,2.8,25.309,1.663,24.404C0.023,23.149-0.466,20.706,0.474,18.884z"/>
	<path d="M21.954,10.444c0.616-1.707,2.344-2.989,4.183-2.93c1.934-0.035,3.733,1.418,4.198,3.278
		c0.287,1.146,0.16,2.425-0.482,3.432c-2.634,4.386-5.304,8.756-8.095,13.042c-0.005-4.559,0.069-9.112-0.009-13.67
		C21.788,12.546,21.596,11.458,21.954,10.444z"/>
	<path d="M11.379,12.371c2.737,4.529,5.617,8.982,8.301,13.543c0.688,1.513,0.484,3.415-0.58,4.707
		c-1.261,1.648-3.761,2.117-5.544,1.061c-1.47-0.782-2.235-2.502-2.194-4.119C11.445,22.501,11.424,17.433,11.379,12.371z"/>
</g>
<g id="Layer_1">
</g>
</svg>
