<?xml version="1.0" encoding="iso-8859-1"?>
<!-- Generator: Adobe Illustrator 19.2.0, SVG Export Plug-In . SVG Version: 6.00 Build 0)  -->
<svg version="1.1" xmlns="http://www.w3.org/2000/svg" xmlns:xlink="http://www.w3.org/1999/xlink" x="0px" y="0px"
	 viewBox="0 0 178.263 178.626" style="enable-background:new 0 0 178.263 178.626;" xml:space="preserve">
<g id="Nylon_x5F_de_x5F_Mexico">
	<path style="fill-rule:evenodd;clip-rule:evenodd;" d="M128.766,9.668c-6.524,0.132-13.136-0.001-19.768,0
		c-6.603,0.002-13.253,0.019-19.868-0.05c-13.253-0.136-26.412-0.071-39.335-0.25c0.419-0.589,1.181-0.778,1.802-1.051
		c1.89-0.83,3.853-1.763,5.905-2.553C64.277,3.156,71.93,1.32,80.423,0.41c10.049-1.078,21.099,0.092,29.326,2.102
		c6.623,1.618,12.692,3.679,18.166,6.506C128.206,9.168,128.7,9.259,128.766,9.668z"/>
	<path style="fill-rule:evenodd;clip-rule:evenodd;" d="M159.593,35.041c-35.283,0.027-70.351-0.344-105.944-0.351
		c-6.114-0.001-10.434-1.229-14.612-3.253c-2.062-0.998-4.199-1.809-6.656-2.302c-2.429-0.487-5.232-0.706-8.157-0.751
		c-0.272-0.412,0.448-0.681,0.601-1.001c0.909-0.592,1.768-2.411,2.902-2.602c0.532-0.09,1.242,0.05,1.901,0.05
		c4.51,0,8.716-0.001,13.162,0c8.042,0,15.476-0.001,23.07,0c28.166,0.001,56.885,0.377,85.076,0.399
		c1.767,1.337,3.095,3.111,4.654,4.654c0.697,0.854,1.454,1.649,2.151,2.503c0.335,0.403,0.708,0.815,1.051,1.251
		C159.111,34.046,159.619,34.462,159.593,35.041z"/>
	<path style="fill-rule:evenodd;clip-rule:evenodd;" d="M173.306,60.213c-0.827,0.214-1.72,0.101-2.553,0.101
		c-27.85-0.01-55.643-0.402-83.374-0.4c-3.709,0-7.288,0.08-10.76-0.05c-3.437-0.129-6.473-0.828-9.158-1.752
		c-2.662-0.916-5.067-2.341-7.757-3.152c-2.756-0.832-5.853-1.302-9.559-1.302c-3.726,0-7.238,0-10.709,0
		c-9.232,0-19.625,0.05-29.427-0.1c-0.854-0.013-1.731,0.128-2.552-0.15c0.793-2.747,2.212-5.042,3.503-7.356
		c0.423-0.759,0.716-1.638,1.401-2.202c4.772,0.147,10.207-0.219,15.163,0c1.579,0.069,3.164,0.382,4.504,0.65
		c2.838,0.569,5.136,1.662,7.507,2.803c2.337,1.124,4.987,1.994,7.907,2.402c3.114,0.434,6.468,0.3,9.909,0.3
		c37.507,0.001,74.144,0.371,111.999,0.501c1.015,1.15,1.62,3.301,2.252,4.854c0.334,0.82,0.647,1.618,0.951,2.402
		C172.87,58.577,173.232,59.391,173.306,60.213z"/>
	<path style="fill-rule:evenodd;clip-rule:evenodd;" d="M177.259,75.627c0.57,2.949,1.045,6.262,1.001,9.658
		c-19.02,0.211-38.203-0.146-57.552-0.149c-3.814-0.001-7.734,0.124-11.56-0.05c-3.932-0.18-7.903,0.068-11.16-0.451
		c-3.29-0.524-6.219-1.354-8.758-2.803c-2.541-1.45-5.481-2.383-8.758-2.852c-3.35-0.479-7.279-0.301-11.311-0.301
		c-3.928,0-7.754,0.121-11.609,0c-3.713-0.116-7.453,0.085-11.06,0c-15.336-0.36-30.785,0.172-45.891-0.25
		c0.008-0.059-0.011-0.089-0.05-0.101c0.233-2.579,0.852-6.342,1.501-8.808c0.143-0.541,0.11-0.765,0.701-0.851
		c0.876-0.128,1.91,0,2.902,0c14.089,0.001,28.127,0.146,42.388,0.15c3.897,0.001,7.49,0.054,10.409,0.95
		c1.463,0.45,2.819,0.909,4.153,1.552c3.736,1.798,8.062,3.596,13.513,3.653c14.722,0.153,29.974,0.244,44.989,0.25
		c11.246,0.004,22.021,0.202,33.48,0.2C162.143,75.424,169.707,75.434,177.259,75.627z"/>
	<path style="fill-rule:evenodd;clip-rule:evenodd;" d="M177.709,100.899c-0.188,2.462-0.651,5.118-1.15,7.457
		c-0.167,0.78-0.184,1.645-0.65,2.252c-14.828,0.092-30.303-0.075-45.091-0.101c-3.968-0.007-7.475-0.189-10.459-1.001
		c-1.445-0.393-2.906-0.885-4.254-1.451c-1.347-0.566-2.495-1.381-3.804-1.901c-2.718-1.082-5.76-1.913-9.308-2.102
		c-3.595-0.191-7.463-0.051-11.36-0.051c-15.194,0.001-30.285-0.152-45.44-0.15c-15.021,0.003-30.099-0.08-45.24-0.25
		c-0.571-2.807-0.976-6.386-0.951-9.559c0.04-0.01,0.05-0.05,0.101-0.05c15.317-0.107,32.052,0.05,47.642,0.05
		c7.221,0,15.208,0.051,22.77,0.051c3.732,0,7.615-0.128,10.859,0.4c3.261,0.53,5.771,1.63,8.458,3.002
		c2.538,1.296,5.505,2.255,8.808,2.652c3.389,0.408,7.29,0.202,11.261,0.2c15.355-0.005,29.88,0.252,45.39,0.25
		c7.032-0.001,13.982,0.15,21.169,0.15C176.867,100.749,177.335,100.639,177.709,100.899z"/>
	<path style="fill-rule:evenodd;clip-rule:evenodd;" d="M170.803,125.871c-0.049,0.922-0.6,1.792-1,2.603
		c-0.811,1.639-1.616,3.261-2.503,4.855c-0.431,0.773-0.842,1.587-1.451,2.202c-6.642-0.203-13.986,0.58-19.617-0.751
		c-1.418-0.335-2.771-0.656-4.004-1.151c-1.203-0.482-2.314-1.099-3.503-1.651c-2.37-1.101-4.978-1.993-7.857-2.401
		c-3.02-0.429-6.453-0.399-9.809-0.4c-16.699-0.005-33.968-0.25-50.845-0.25c-20.442,0-40.867,0.01-61.305-0.201
		c-0.821-0.904-1.18-2.217-1.702-3.503c-0.643-1.585-1.277-3.255-1.951-4.954c-0.133-0.333-0.551-0.888-0.101-1.201
		c25.032-0.011,50.355,0.207,75.518,0.2c3.576-0.001,7.154-0.082,10.71,0.05c3.446,0.128,7.178-0.033,10.659,0.051
		c5.283,0.126,9.101,1.643,12.762,3.453c3.671,1.815,7.881,2.751,13.411,2.752C142.303,125.573,156.749,125.673,170.803,125.871z"/>
	<path style="fill-rule:evenodd;clip-rule:evenodd;" d="M154.138,150.543c0.183,0.426-0.364,0.745-0.6,1.002
		c-0.795,0.865-1.763,1.825-2.702,2.552c-39.082-0.102-80.119-0.454-119.757-0.45c-1.338,0-2.733,0.157-3.804-0.05
		c-0.514-0.1-0.917-0.697-1.302-1.051c-0.44-0.408-0.804-0.759-1.15-1.151c-0.758-0.794-1.506-1.598-2.252-2.402
		c-0.874-0.984-2.157-2.441-3.203-3.753c-0.215-0.27-1.211-1.143-0.551-1.302c1.03-0.247,3.292-0.05,4.604-0.05
		c10.258,0.002,20.724,0.101,30.978,0.101c23.632,0,47.211,0.305,70.463,0.3c3.072-0.001,5.754,0.199,8.107,0.801
		c2.339,0.598,4.289,1.482,6.405,2.452C143.375,149.373,148.034,150.748,154.138,150.543z"/>
	<path style="fill-rule:evenodd;clip-rule:evenodd;" d="M128.716,169.31c-0.153,0.353-0.589,0.5-0.901,0.65
		c-7.944,3.823-17,6.571-27.524,7.957c-19.084,2.513-37.6-1.979-50.295-8.407c-0.172-0.087-0.953-0.311-0.601-0.601
		C75.755,168.88,102.706,168.966,128.716,169.31z"/>
</g>
<g id="Layer_1">
</g>
</svg>
