<?xml version="1.0" encoding="iso-8859-1"?>
<!-- Generator: Adobe Illustrator 19.2.0, SVG Export Plug-In . SVG Version: 6.00 Build 0)  -->
<svg version="1.1" xmlns="http://www.w3.org/2000/svg" xmlns:xlink="http://www.w3.org/1999/xlink" x="0px" y="0px"
	 viewBox="0 0 81.83 24.012" style="enable-background:new 0 0 81.83 24.012;" xml:space="preserve">
<g id="OVAM_x5F_88">
	<path style="fill-rule:evenodd;clip-rule:evenodd;" d="M29.333,10.32c0.765-0.641,1.176-1.587,1.696-2.444
		c1.271-2.09,2.577-4.119,3.94-6.385c0.274-0.454,0.525-1.043,0.848-1.196c0.785-0.373,2.549-0.1,3.691-0.1
		c1.357,0,2.683,0.047,3.691,0.05c6.344,0.016,13.471-0.158,19.851,0c1.125,1.729,1.865,3.843,2.842,5.786
		c0.316,0.626,0.541,1.326,1.048,1.795c0.522-0.47,0.677-1.204,0.948-1.846c0.797-1.887,1.699-3.944,2.643-5.735
		c3.592-0.051,7.664-0.148,11.173,0.05c0.166,7.542,0.166,16.082,0,23.542c-1.334,0.267-2.989,0.149-4.589,0.149
		c-1.598,0-3.256,0.119-4.589-0.149c-0.214-3.584,0.173-7.527-0.199-11.023c-0.484,0.213-0.505,0.892-0.798,1.297
		c-1.637,3.217-3.014,6.696-4.788,9.775c-0.651-0.568-0.896-1.443-1.297-2.194c-0.399-0.746-0.848-1.482-1.247-2.244
		c-0.795-1.518-1.727-3-2.443-4.539c-0.484-1.037-0.742-2.191-1.598-2.993c-0.266,0.4-0.148,0.929-0.148,1.396
		c0,3.299-0.02,7.165-0.15,10.574c-2.713,0.209-5.756,0.07-8.478,0.05c-0.405-0.376-0.744-0.818-0.848-1.496
		c1.201-0.27,2.723-0.149,4.189-0.149c1.466,0,2.988,0.119,4.189-0.149c-0.15-0.698-0.444-1.252-0.947-1.597
		c-7.419-0.024-15.922,0.002-23.643,0c-0.83,0-1.854-0.152-2.443,0.05c-0.576,0.197-0.697,0.924-0.948,1.547
		c0.491,0.26,1.14,0.149,1.745,0.149c1.741,0,3.863-0.081,5.487,0.1c-0.007,0.585-0.429,1.161-0.798,1.546
		c-9.417,0.121-18.988-0.03-28.381-0.1c-0.459-0.216-0.928-0.448-1.397-0.698c-0.434-0.231-1.011-0.392-1.247-0.848
		c2.577-0.21,5.747-0.05,8.679-0.05c1.01,0,2.1,0.158,2.893,0c0.732-0.146,1.716-1.21,2.096-1.796
		c-0.573-0.348-1.326-0.199-1.996-0.199c-4.185,0-8.578-0.162-12.618-0.1c-0.733,0.011-1.473,0.123-1.995-0.05
		c-0.69-0.229-1.225-0.919-1.396-1.597C2.693,18.172,3.521,18.3,4.295,18.3c5.657,0,11.626,0.128,17.258,0.05
		c0.459-0.357,0.847-1.046,0.848-1.696c-0.747-0.205-1.728-0.225-2.644-0.199c-5.848,0.162-12.586-0.15-18.754-0.1
		c-0.353-0.348-0.623-1.035-0.498-1.696c0.868-0.268,1.826-0.149,2.742-0.149c4.73,0.001,9.521,0.05,14.315,0.05
		c0.962,0,1.892,0.005,2.843,0.05c0.889,0.043,1.846,0.082,2.693-0.149c0.193-0.273,0.32-0.822,0.199-1.247
		c-0.854-0.363-1.851-0.186-2.793-0.199c-5.722-0.087-11.816-0.101-17.606-0.1c-0.936,0-1.906,0.119-2.793-0.149
		c-0.207-0.396-0.066-1.157,0.05-1.547c1.785-0.239,3.728-0.149,5.686-0.149c3.885,0,7.855,0.099,11.771,0.1
		c1.939,0.001,3.862,0.127,5.685-0.1c0.17-0.491,0.02-1.332-0.249-1.695c-7.321-0.274-15.157-0.065-22.544-0.3
		C0.45,8.401,0.714,7.621,1.153,7.277c6.951-0.327,14.213,0.191,21.197-0.1c0.066-0.788-0.432-1.426-0.898-1.846
		C16.72,5.43,11.78,5.049,6.988,5.182C5.443,5.225,3.89,5.259,2.45,5.082c0.004-0.607,0.74-1.512,1.346-1.695
		c0.984-0.299,2.902-0.051,4.09-0.051c3.773,0.001,8.408,0.196,12.07,0c-0.068-0.571-0.898-1.292-1.545-1.446
		c-0.795-0.189-1.904-0.05-2.943-0.05c-2.826,0-6.149-0.067-8.828-0.149C6.749,1.11,7.496,0.87,8.086,0.643
		c0.671-0.258,1.493-0.486,2.194-0.548c3.59-0.317,8.061,0.272,11.672,0.1c1.879,2.473,3.693,5.065,5.486,7.681
		C28.019,8.722,28.522,9.671,29.333,10.32z M42.7,1.94c-0.664,0.081-0.932,1.014-1.097,1.597c0.972,0.294,2.21,0.133,3.392,0.1
		c1.205-0.034,2.485,0.104,3.541-0.1c0.03-0.629-0.457-1.126-0.798-1.547C46.365,2.022,44.02,1.781,42.7,1.94z M49.734,5.581
		c-1.98-0.09-4.665-0.05-6.833-0.05c-0.812,0-1.757-0.144-2.345,0c-0.607,0.147-0.973,1.14-1.047,1.695
		c2.798,0.252,5.899,0.101,8.828,0.1c0.77,0,1.558,0.115,2.244-0.149C50.478,6.467,50.159,5.97,49.734,5.581z M51.729,9.372
		c-4.512,0.035-9.151-0.054-13.517,0c-0.379,0.419-0.774,0.821-0.848,1.546c0.538,0.263,1.198,0.149,1.795,0.149
		c3.236,0,6.551,0,9.726,0c1.29,0,2.576,0.113,3.74-0.149C52.61,10.312,52.213,9.675,51.729,9.372z M44.647,11.666
		c-0.505,0.41-0.423,1.069-1.048,1.297c-0.781,0.283-2.37,0-3.74,0c-1.016,0-3.114-0.233-3.791,0.1
		c-0.461,0.227-0.659,1.003-0.799,1.546c1.025,0.267,2.355,0.15,3.642,0.15c0.634,0,1.28,0,1.896,0c0.615,0,1.258-0.113,1.746,0.149
		c-0.246,0.836-0.652,1.509-1.247,1.995c-2.47,0.025-5.058-0.07-7.382,0.1c-0.416,0.27-0.826,0.8-0.748,1.396
		c0.959,0.144,1.912,0.153,2.893,0.149c6.926-0.024,13.829,0.058,20.699-0.149c0.044-0.587-0.38-1.109-0.748-1.446
		c-2.555-0.105-5.744,0.139-8.131-0.1c-0.394-0.571-0.746-1.183-0.947-1.945c0.518-0.261,1.194-0.149,1.846-0.149
		c1.358,0,2.779,0,4.09,0c0.631,0,1.361,0.113,1.796-0.25c-0.046-0.521-0.396-1.168-0.849-1.446c-2.412-0.23-5.252-0.035-7.83-0.1
		c-0.512-0.352-0.59-1.141-1.197-1.396C44.737,11.591,44.683,11.62,44.647,11.666z"/>
</g>
<g id="Layer_1">
</g>
</svg>
