<?xml version="1.0" encoding="iso-8859-1"?>
<!-- Generator: Adobe Illustrator 21.0.2, SVG Export Plug-In . SVG Version: 6.00 Build 0)  -->
<svg version="1.1" xmlns="http://www.w3.org/2000/svg" xmlns:xlink="http://www.w3.org/1999/xlink" x="0px" y="0px"
	 viewBox="0 0 28.247 27.905" style="enable-background:new 0 0 28.247 27.905;" xml:space="preserve">
<g id="O2">
	<path d="M10.043,0.052c2.233-0.2,4.544,0.174,6.531,1.237c3.08,1.572,5.087,4.812,5.512,8.201
		c0.808,4.663-1.244,9.882-5.495,12.195c-3.644,2.047-8.456,1.817-11.874-0.599C-0.721,17.273-1.533,8.724,2.676,3.716
		C4.471,1.518,7.247,0.278,10.043,0.052z M10.876,3.325c-1.7,0.054-3.327,0.882-4.439,2.157c-1.401,1.601-2.105,3.747-2.113,5.86
		c-0.064,2.494,0.734,5.137,2.619,6.852c2.354,2.162,6.421,2.079,8.654-0.222c3.002-3.268,3.123-8.753,0.42-12.237
		C14.822,4.167,12.859,3.193,10.876,3.325z"/>
	<path d="M22.051,18.721c1.415-0.736,3.257-1.083,4.71-0.266c1.42,0.91,1.392,2.978,0.62,4.31c-0.754,1.381-1.925,2.46-3.014,3.569
		c1.273,0.022,2.57-0.097,3.828,0.007c0.051,0.477,0.092,1.072-0.017,1.537c-2.104,0.031-4.212,0.028-6.317,0.027
		c0.115-0.667-0.319-1.59,0.378-2.016c0.776-0.586,1.386-1.352,2.06-2.045c0.718-0.845,1.484-1.772,1.651-2.904
		c0.068-0.815-0.738-1.425-1.505-1.369c-0.818-0.036-1.554,0.38-2.239,0.773C22.15,19.804,22.095,19.262,22.051,18.721z"/>
</g>
<g id="Layer_1">
</g>
</svg>
