<?xml version="1.0" encoding="iso-8859-1"?>
<!-- Generator: Adobe Illustrator 19.2.0, SVG Export Plug-In . SVG Version: 6.00 Build 0)  -->
<svg version="1.1" xmlns="http://www.w3.org/2000/svg" xmlns:xlink="http://www.w3.org/1999/xlink" x="0px" y="0px"
	 viewBox="0 0 131.971 131.016" style="enable-background:new 0 0 131.971 131.016;" xml:space="preserve">
<g id="OBF_x5F_forest">
	<path style="fill-rule:evenodd;clip-rule:evenodd;" d="M60.46,0.079c7.134-0.528,14.615,1.659,19.664,4.676
		c4.918,2.938,9.446,7.266,12.47,11.75c3.502,5.194,5.627,10.512,6.475,17.746c0.806,6.869-0.255,15.765-1.199,22.062
		c-1.008,6.723-2.766,13.4-4.077,20.144c-3.484,17.919-7.593,37.078-16.187,50.479c-0.795,1.24-1.802,3.024-2.638,3.357
		c-1.713,0.682-5.244,0.701-7.674,0.72c-18.054,0.131-32.83-6.663-43.046-15.108c-6.351-5.25-11.223-10.466-15.588-17.865
		C4.543,91.057,1.417,82.62,0.388,72.86C-1.88,51.355,6.109,33.617,16.095,22.621C21.387,16.794,27.422,11.786,34.8,7.872
		C42.149,3.974,50.076,0.846,60.46,0.079z M20.891,28.616c-7.258,9.814-10.945,24.457-9.592,41.007
		c1.546,18.925,11.064,32.827,24.58,40.048c5.379,2.875,12.817,5.521,20.624,4.797c11.604-1.077,16.316-7.78,21.223-15.947
		c3.165-5.268,5.532-10.541,7.674-16.667c4.166-11.917,7.739-25.925,6.235-41.487c-0.89-9.212-4.561-17.122-10.191-21.942
		c-5.398-4.621-16.396-6.845-25.66-6.835C38.403,11.609,28.053,18.933,20.891,28.616z"/>
	<path style="fill-rule:evenodd;clip-rule:evenodd;" d="M82.882,1.877c10.361,2.593,20.595,8.307,27.818,15.108
		c0.932,0.878,2.776,2.246,2.998,2.998c0.442,1.504-0.224,4.737-0.479,6.834c-0.775,6.361-2.456,12.209-3.717,17.986
		c-1.73,7.927-2.913,16.263-3.477,25.18c-0.936,14.788-2.21,31.478-4.556,45.203c-0.322,1.884-0.547,4.788-1.199,5.995
		c-0.52,0.962-3.038,1.998-4.316,2.639c-4.466,2.235-10.044,4.332-15.108,5.396c7.795-12.722,11.108-28.9,15.228-45.563
		c1.985-8.029,3.702-16.591,5.156-25.3c0.742-4.443,1.335-8.956,1.678-13.549c0.343-4.587-0.093-9.133-0.24-13.789
		c-0.978-2.279-1.279-4.586-2.038-6.714C97.112,14.447,90.579,7.688,82.882,1.877z"/>
	<path style="fill-rule:evenodd;clip-rule:evenodd;" d="M53.265,15.306c6.257-0.298,12.325,0.819,17.386,2.158
		c5.548,1.468,9.16,3.59,11.871,7.554c5.016,7.337,6.625,20.282,5.156,32.014c-1.276,10.187-4.244,21.592-8.394,30.456
		c-1.997,4.266-4.445,8.533-6.834,12.59c-2.525,4.288-5.695,7.418-10.072,9.353c-10.965,4.846-22.111-1.012-29.496-5.875
		c-7.695-5.068-13.005-13.849-15.708-23.142c-1.395-4.799-2.399-10.43-2.517-16.427c-0.124-6.24,0.771-12.012,2.038-17.386
		c2.235-9.477,7.957-18.646,14.988-23.861c0.668-0.495,1.587-0.679,2.398-1.199c0.725-0.465,1.295-1.142,2.038-1.559
		C40.741,17.387,45.959,15.654,53.265,15.306z M39.357,26.458c-9.441,5.623-14.608,14.81-16.427,27.578
		c-1.252,8.794,0.33,18.039,3.238,24.94c2.914,6.915,7.759,12.938,13.429,16.067c1.024,0.565,2.424,1.253,3.477,1.559
		c6.579,1.909,12.607-1.354,16.667-4.437c4.203-3.189,7.552-7.66,10.191-11.87c2.927-4.668,4.938-9.539,6.835-15.228
		c1.892-5.676,3.175-12.204,2.638-19.185c-0.633-8.22-4.432-14.727-10.312-18.226c-4.327-2.574-11.667-5.011-18.225-4.556
		C46.251,23.421,42.751,24.436,39.357,26.458z M72.93,87.249C73.008,87.328,72.88,87.199,72.93,87.249L72.93,87.249z"/>
	<path style="fill-rule:evenodd;clip-rule:evenodd;" d="M104.704,118.184c3.099-15.316,3.707-31.538,5.036-47.962
		c0.663-8.188,1.274-15.968,3.117-23.381c0.883-3.551,1.638-7.29,2.399-10.912c0.818-3.899,1.659-7.706,1.918-11.63
		c1.951,1.256,4.862,6.295,6.595,9.352c0.561,0.99,1.651,2.653,1.678,3.478c0.06,1.807-2.07,5.029-2.878,7.074
		c-2.781,7.042-6.281,13.783-6.955,22.662c-0.319,4.211,0.151,9.08,0.36,13.668c0.33,7.265,0.417,13.312,0.12,20.624
		c-0.096,2.371,0.14,5.372-0.479,7.194c-0.671,1.974-3.397,3.917-5.036,5.396C108.585,115.547,106.62,117.261,104.704,118.184z"/>
	<path style="fill-rule:evenodd;clip-rule:evenodd;" d="M50.028,26.817c9.117-0.838,17.942,3.083,21.822,8.273
		c4.299,5.75,4.837,15.833,2.638,24.581c-1.978,7.869-5.12,14.493-9.233,20.863c-3.839,5.945-9.84,12.222-17.266,12.83
		c-2.862,0.234-5.995-1.08-7.674-2.158c-3.583-2.302-7.526-7.148-9.712-11.151c-2.463-4.509-3.875-10.239-4.317-16.546
		c-0.918-13.106,3.743-24.23,10.671-30.815C40.039,29.764,44.242,27.349,50.028,26.817z M45.232,33.292
		c-3.093,1.426-6,4.58-7.914,7.434c-2.193,3.271-4.159,8.956-4.796,14.029c-0.712,5.663-0.022,11.8,2.278,16.067
		c1.969,3.651,5.783,7.015,11.991,5.636c6.193-1.376,9.99-5.614,14.269-10.552c4.036-4.657,7.151-10.676,7.793-17.026
		c0.565-5.585-1.427-9.742-4.196-12.23c-2.92-2.623-8.834-5.124-14.509-4.557C48.544,32.254,46.507,32.705,45.232,33.292z"/>
	<path style="fill-rule:evenodd;clip-rule:evenodd;" d="M64.177,41.566c3.364,11.385-4.52,21.966-11.271,27.578
		c-3.453,2.87-10.608,6.106-14.148,1.199c-5.045-6.993-2.368-22.506,2.398-28.777c2.233-2.939,5.761-5.735,10.432-5.996
		C56.988,35.27,61.659,38.753,64.177,41.566z M44.392,44.203c-1.754,2.436-4.301,9.181-2.998,14.149
		c0.588,2.241,2.175,4.186,4.796,4.196c4.897,0.02,10.718-6.265,12.71-10.192c3.398-6.7-0.766-13.245-8.753-11.99
		C47.651,40.758,45.473,42.703,44.392,44.203z"/>
	<path style="fill-rule:evenodd;clip-rule:evenodd;" d="M127.486,42.045c2.142,4.245,3.39,9.894,4.077,15.587
		c0.712,5.902,0.454,12.244-0.48,18.105c-1.761,11.059-5.979,20.645-11.511,27.578c0.416-9.212,0.209-18.243,0-26.979
		c-0.074-3.095-0.449-6.243-0.24-9.232C120.03,57.166,124.783,49.783,127.486,42.045z"/>
	<path style="fill-rule:evenodd;clip-rule:evenodd;" d="M50.987,43.843c3.833-0.782,6.624,2.323,5.036,6.115
		c-0.775,1.852-2.261,3.577-4.077,5.396c-1.954,1.957-6.637,5.759-7.194,0.959C44.146,51.092,47.16,44.625,50.987,43.843z"/>
</g>
<g id="Layer_1">
</g>
</svg>
