<?xml version="1.0" encoding="iso-8859-1"?>
<!-- Generator: Adobe Illustrator 19.2.0, SVG Export Plug-In . SVG Version: 6.00 Build 0)  -->
<svg version="1.1" xmlns="http://www.w3.org/2000/svg" xmlns:xlink="http://www.w3.org/1999/xlink" x="0px" y="0px"
	 viewBox="0 0 85.577 31.44" style="enable-background:new 0 0 85.577 31.44;" xml:space="preserve">
<g id="Odermatt_x5F_Tissi">
	<path style="fill-rule:evenodd;clip-rule:evenodd;" d="M3.943,5.302c2.483-2.894,5.82-4.664,10.566-5.232
		c2.185-0.264,4.363,0.264,6.038,0.805c1.779,0.574,3.197,1.48,4.428,2.414c2.693,2.045,4.502,4.578,5.585,8.102
		c1.206,3.926,0.443,8.389-1.057,11.422c-2.177,4.4-6.269,7.729-11.975,8.502c-2.104,0.285-4.217,0.065-6.088-0.453
		c-3.426-0.945-6.226-2.953-8.201-5.484c-1.975-2.529-3.423-6.094-3.22-10.363C0.221,10.767,1.66,7.906,3.943,5.302z"/>
	<path style="fill-rule:evenodd;clip-rule:evenodd;" d="M85.402,0.371c0.265,0.77,0.15,1.684,0.15,2.566
		c0.001,2.576,0.082,5.541-0.101,8c-3.347,0.207-6.763-0.035-10.112,0.15c-0.269,0.727-0.151,1.547-0.151,2.314
		c0,2.275,0.055,4.705-0.05,7.096c-0.139,3.145,0.315,6.6-0.102,9.508c-3.558,0.168-7.812,0.168-11.37,0
		c-0.302-6.037,0.1-12.777-0.202-18.816c-0.739-0.268-1.613-0.15-2.465-0.15c-2.443-0.002-5.272,0.082-7.598-0.102
		c-0.267-1.611-0.101-3.479-0.101-5.283c0-1.803-0.136-3.609,0.101-5.233c4.426-0.142,8.868-0.15,13.333-0.15
		C72.974,0.269,79.311,0.156,85.402,0.371z"/>
	<path style="fill-rule:evenodd;clip-rule:evenodd;" d="M43.943,13.453c0.766,1.75,1.987,3.045,2.918,4.629
		c1.087,1.428,1.878,3.154,3.271,4.277c0.846-1.184,0.889-3.17,1.157-4.932c0.62-0.277,1.853-0.15,2.516,0
		c0.096,2.106-0.476,4.023-1.208,5.736c-0.209,0.49-0.679,1.207-0.654,1.66c0.031,0.543,0.95,1.394,1.308,1.81
		c0.864,1.01,1.71,1.602,3.12,1.963c0.043,0.682,0.174,1.84-0.101,2.365c-2.1,0.08-3.632-0.996-4.83-2.315
		c-0.301-0.332-0.803-1.193-1.207-1.207c-0.334-0.012-0.543,0.441-0.755,0.654c-1.548,1.547-3.748,2.723-6.642,2.918
		c-3.052,0.203-5.374-0.607-7.044-1.963c-1.605-1.305-2.913-3.248-3.069-5.887c-0.251-4.246,2.251-6.947,4.68-8.805
		c0.354-0.271,0.85-0.57,1.358-0.906c0.395-0.26,1.169-0.666,1.208-1.006c0.043-0.383-0.54-0.889-0.755-1.258
		c-0.611-1.051-1.266-2.74-1.409-4.127c-0.396-3.828,1.728-6.477,5.132-6.742c2.421-0.187,3.852,0.488,5.233,1.611
		c0.767,0.961,1.354,1.994,1.358,3.623c0.005,2.191-1.097,3.912-2.314,5.232C46.218,11.865,44.84,12.49,43.943,13.453z
		 M41.628,9.779c0.245,0.432,0.521,1.172,0.906,1.209c0.408,0.037,1.26-0.641,1.56-0.855c1.384-0.988,2.901-2.553,2.767-4.629
		c-0.111-1.736-1.379-3.012-3.572-2.818c-0.94,0.084-1.458,0.426-2.113,0.957C39.602,5.349,40.775,8.281,41.628,9.779z
		 M37.553,17.781c-1.122,1.271-1.97,2.971-1.912,5.08c0.091,3.289,2.869,5.457,5.887,5.686c2.329,0.178,4.368-0.783,5.585-1.709
		c0.413-0.315,1.45-1.108,1.459-1.611c0.005-0.279-0.477-0.887-0.705-1.207c-1.89-2.662-3.681-5.34-5.434-7.949
		c-0.322-0.4-0.474-1.236-1.157-1.107C40.091,15.701,38.52,16.683,37.553,17.781z"/>
</g>
<g id="Layer_1">
</g>
</svg>
