<?xml version="1.0" encoding="iso-8859-1"?>
<!-- Generator: Adobe Illustrator 19.2.0, SVG Export Plug-In . SVG Version: 6.00 Build 0)  -->
<svg version="1.1" xmlns="http://www.w3.org/2000/svg" xmlns:xlink="http://www.w3.org/1999/xlink" x="0px" y="0px"
	 viewBox="0 0 70.599 68.86" style="enable-background:new 0 0 70.599 68.86;" xml:space="preserve">
<g id="Odziez_x5F_Tarnogorska">
	<path style="fill-rule:evenodd;clip-rule:evenodd;" d="M39.048,27.247c0.496-0.065,0.652-0.633,0.869-0.961
		c1.762-2.667,3.492-5.398,5.311-8.103c0.995-1.479,2.089-3.028,3.25-4.44c2.287-2.782,4.655-5.657,8.744-6.592
		c4.93-1.127,8.705,1.185,10.895,3.891c1.126,1.393,2.071,3.296,2.242,5.402c0.277,3.393-0.762,5.675-2.196,7.462
		c-0.677,0.926-1.506,1.679-2.473,2.335c-0.97,0.657-2.13,1.009-3.204,1.602c0.512,0.427,1.148,0.55,1.693,0.778
		c1.733,0.726,2.991,1.814,4.166,3.205c1.451,1.718,2.513,4.439,2.197,7.553c-0.29,2.863-1.645,4.894-3.296,6.546
		c-1.462,1.461-4.088,2.833-6.867,2.976c-3.09,0.158-5.572-1.106-7.37-2.472c-0.936-0.711-1.779-1.531-2.563-2.38
		c-0.787-0.853-1.576-1.758-2.243-2.655c-2.841-3.822-5.604-7.502-8.011-11.627c-0.413-0.367-0.635-1.164-1.145-1.282
		c-0.34,0.753-0.299,1.621-0.366,2.426c-0.069,0.833-0.2,1.647-0.274,2.472C37.348,45.1,36.51,57.237,35.34,68.86
		c-0.262-0.287-0.273-0.737-0.321-1.099c-0.366-2.814-0.52-5.908-0.823-8.835c-0.351-3.374-0.542-6.797-0.916-10.163
		c-0.749-6.753-1.165-13.559-2.014-20.097c-0.524,0.215-0.679,0.82-0.962,1.236c-3.201,4.7-6.462,9.633-10.025,14.054
		c-1.315,1.632-2.863,2.984-4.899,3.845c-2.136,0.905-4.597,1.251-7.324,0.595c-2.06-0.495-4.131-1.879-5.355-3.387
		c-1.246-1.534-2.476-3.636-2.563-6.18C0.037,35.923,0.82,33.941,2.151,32.1c0.673-0.989,1.55-1.758,2.518-2.472
		c0.977-0.72,2.174-1.086,3.296-1.694c-0.499-0.458-1.145-0.549-1.693-0.824c-1.69-0.849-3.042-1.869-4.166-3.388
		c-1.404-1.899-2.501-4.564-1.968-7.828c0.449-2.758,1.726-5.007,3.57-6.5C5.505,7.937,7.885,6.727,11.17,6.83
		c6.031,0.189,8.956,4.865,11.673,8.469c0.722,0.956,1.491,1.883,2.152,2.884c1.658,2.511,3.331,5.006,5.035,7.553
		c0.304,0.455,0.568,1.044,1.099,1.282c0.248-1.013,0.138-2.137,0.138-3.296c-0.001-5.561-0.012-11.386,0.412-16.572
		c0.236-2.899,0.484-6.411,2.884-7.096c0.158-0.045,0.447-0.097,0.732,0c2.17,0.643,2.524,3.342,2.838,5.951
		C38.915,12.512,38.636,20.368,39.048,27.247z M32.227,9.714c-0.218,1.777,1.202,3.015,2.655,3.022
		c3.804,0.018,3.546-5.893-0.366-5.265C33.216,7.654,32.366,8.586,32.227,9.714z"/>
</g>
<g id="Layer_1">
</g>
</svg>
