<?xml version="1.0" encoding="iso-8859-1"?>
<!-- Generator: Adobe Illustrator 19.2.0, SVG Export Plug-In . SVG Version: 6.00 Build 0)  -->
<svg version="1.1" xmlns="http://www.w3.org/2000/svg" xmlns:xlink="http://www.w3.org/1999/xlink" x="0px" y="0px"
	 viewBox="0 0 45.46 70.043" style="enable-background:new 0 0 45.46 70.043;" xml:space="preserve">
<g id="Olida_x5F_Caby">
	<path style="fill-rule:evenodd;clip-rule:evenodd;" d="M17.842,41.473c0.479-0.893,1.317-1.513,2.012-2.206
		c2.066-2.066,4.245-4.112,6.376-6.18c0.888-0.976,2.005-1.723,2.746-2.845c-1.431-2.003-3.303-3.564-4.954-5.347
		c-0.433-0.281-1.043-1.663-1.766-1.667c-0.515-0.003-1.203,0.943-1.618,1.324c-0.581,0.533-1.028,1.028-1.472,1.471
		c-2.026,2.026-3.906,3.659-5.983,5.738c-0.427,0.429-0.901,0.938-1.471,1.472c-0.427,0.4-1.128,1.317-1.57,1.324
		c-0.418,0.007-0.939-0.765-1.274-1.128c-1.157-1.254-2.514-2.481-3.581-3.629c-0.757-0.815-1.48-1.678-2.305-2.502
		c-0.802-0.801-1.761-1.583-2.256-2.501c-0.589-1.089-0.52-2.776,0.294-3.63c4.938-5.069,10.4-10.498,15.646-15.743
		c0.837-0.837,1.768-1.656,2.648-2.6c0.981-1.052,2.074-2.588,3.58-2.795c2.029-0.279,3.012,1.393,4.12,2.501
		c2.602,2.601,5.237,5.291,7.651,7.945c3.432,3.774,6.949,7.062,10.104,10.741c0.227,0.642,0.748,1.358,0.687,2.452
		c-0.089,1.567-1.043,2.402-2.011,3.335c-3.197,3.078-6.301,6.056-9.467,9.221c-3.025,3.025-6.354,6.042-9.416,9.27
		c-0.405,0.427-1.087,1.217-1.422,1.226c-0.464,0.014-1.139-0.844-1.472-1.177C20.361,44.237,18.865,42.881,17.842,41.473z"/>
	<path style="fill-rule:evenodd;clip-rule:evenodd;" d="M25.15,33.038c-2.368,2.387-4.961,4.766-7.454,7.259
		c-0.3,0.3-0.921,0.819-0.932,1.129c-0.02,0.517,1.048,1.391,1.422,1.765c1.187,1.188,1.975,2.057,3.188,3.188
		c0.215,0.2,0.565,0.415,0.883,0.735c0.276,0.279,0.534,0.676,0.884,0.686c0.498,0.018,1.267-0.91,1.618-1.274
		c1.447-1.503,2.802-2.97,4.316-4.316c1.463-1.373,2.79-2.819,4.365-4.268c0.374-0.343,1.066-1.305,1.521-1.323
		c0.421-0.019,1.061,0.788,1.373,1.128c2.043,2.222,4.007,4.066,5.983,6.326c1.17,1.338,3.275,2.316,2.354,5.003
		c-0.349,1.019-1.718,1.964-2.501,2.746c-4.465,4.466-8.639,8.74-13.193,13.047c-0.838,0.792-1.673,1.713-2.648,2.6
		c-0.846,0.768-1.775,1.933-2.845,2.354c-2.064,0.814-3.414-0.807-4.513-1.912c-0.702-0.708-1.438-1.487-1.962-2.012
		c-4.102-4.104-7.728-7.989-11.771-12.113c-0.815-0.929-1.622-1.801-2.6-2.698c-1.202-1.103-3.351-2.545-2.403-4.904
		c0.403-1.003,1.667-2.108,2.502-2.942c2.729-2.729,5.433-5.58,8.191-8.142c3.973-3.69,7.434-7.365,11.035-10.741
		c0.641-0.192,1.279,0.838,1.766,1.324c1.01,1.01,1.876,1.844,2.845,2.894c0.419,0.454,1.261,1.134,1.275,1.569
		c0.02,0.574-0.926,1.171-1.275,1.521C26.114,32.124,25.74,32.611,25.15,33.038z"/>
</g>
<g id="Layer_1">
</g>
</svg>
