<?xml version="1.0" encoding="iso-8859-1"?>
<!-- Generator: Adobe Illustrator 19.2.0, SVG Export Plug-In . SVG Version: 6.00 Build 0)  -->
<svg version="1.1" xmlns="http://www.w3.org/2000/svg" xmlns:xlink="http://www.w3.org/1999/xlink" x="0px" y="0px"
	 viewBox="0 0 80.806 70.34" style="enable-background:new 0 0 80.806 70.34;" xml:space="preserve">
<g id="Ontario_x5F_Arts_x5F_Council">
	<path style="fill-rule:evenodd;clip-rule:evenodd;" d="M61.951,22.959c-0.924,0.021-1.128-0.707-1.251-1.351
		c-0.297-1.561-0.563-2.935-1.051-4.354c-0.251-0.732-0.421-1.458-0.65-2.052c-1.248-3.223-3.864-6.402-6.354-8.506
		c-1.337-1.129-2.776-2.191-4.453-3.002c-1.638-0.792-3.411-1.628-5.304-2.102C34.83-0.422,26.799,2.28,21.972,6.297
		c-3.684,3.065-6.531,6.977-8.006,12.259c-0.24,0.862-0.422,1.848-0.551,2.803c-0.133,0.993-0.328,2.021-0.35,3.002
		c-0.077,3.462,0.609,6.295,1.501,8.757c0.68,1.879,1.547,3.456,2.603,5.054c0.34,0.517,0.614,1.082,0.95,1.601
		c0.321,0.496,0.862,0.963,1.301,1.451c2.122,2.365,4.74,4.264,7.905,5.604c1.241,0.525,2.642,1.157,4.004,1.4
		c0.573,0.104,1.322-0.082,1.801,0.2c-0.129,0.584-0.641,0.659-1.051,0.801c-2.744,0.953-5.807-0.851-7.705-1.951
		c-1.77-1.024-3.324-2.286-4.704-3.553c-2.729-2.506-5.04-6.247-6.454-10.058c-0.389-1.047-0.613-2.132-0.851-3.303
		c-0.242-1.193-0.5-2.307-0.5-3.603c0-2.553,0.124-5.015,0.701-7.455c0.755-3.194,2.176-6.144,3.952-8.456
		c0.616-0.802,1.103-1.694,1.701-2.402c0.431-0.508,1.057-0.956,1.602-1.501c1.515-1.515,3.335-2.919,5.404-3.902
		c2.785-1.324,5.941-2.664,9.457-2.952c9.077-0.743,15.892,3.083,20.364,7.556c1.509,1.508,3.003,3.247,3.903,5.054
		c0.368,0.738,0.694,1.558,1.051,2.352c0.875,1.95,1.532,4.071,1.951,6.555C62.022,22.033,62.236,22.551,61.951,22.959z"/>
	<path style="fill-rule:evenodd;clip-rule:evenodd;" d="M59.35,21.458c-1.202-0.131-1.068-1.57-1.351-2.502
		c-0.156-0.516-0.388-1.026-0.55-1.551c-0.461-1.492-1.272-2.94-2.102-4.153c-2.792-4.084-6.48-7.457-11.859-9.057
		c-1.07-0.318-2.209-0.672-3.353-0.801c-5.261-0.59-9.982,0.432-13.71,2.603c-2.641,1.537-4.838,3.467-6.705,5.853
		c-0.601,0.77-1.28,1.578-1.701,2.452c-0.185,0.385-0.239,0.849-0.45,1.251c-1.267,2.42-2.202,5.774-2.202,9.457
		c0,3.825,0.945,6.857,2.252,9.457c0.193,0.384,0.277,0.822,0.451,1.201c0.285,0.626,0.843,1.256,1.301,1.901
		c2.234,3.148,5,5.482,8.706,7.155c1.427,0.644,3.118,1.319,4.804,1.501c1.102,0.118,1.871-0.186,2.752-0.2
		c-0.086,0.554-0.471,0.876-0.801,1.101c-1.714,1.169-4.309,0.494-6.255-0.3c-1.51-0.617-2.837-1.297-4.003-2.052
		c-1.871-1.212-3.443-2.545-4.854-4.203c-0.465-0.548-0.996-1.109-1.351-1.651c-0.316-0.482-0.525-1.044-0.851-1.551
		c-2.066-3.223-3.785-7.8-3.402-13.26c0.223-3.188,1.061-6.138,2.302-8.606c0.616-1.227,1.215-2.476,1.951-3.503
		c2.922-4.071,7.362-7.474,12.909-8.857c0.724-0.18,1.442-0.352,2.202-0.5c3.487-0.68,8.143-0.12,11.108,0.95
		c4.847,1.751,8.406,4.625,11.208,8.456c1.377,1.883,2.619,4.164,3.252,6.556c0.131,0.492,0.141,1.012,0.251,1.501
		C59.397,20.544,59.631,21.064,59.35,21.458z"/>
	<path style="fill-rule:evenodd;clip-rule:evenodd;" d="M56.998,20.407c-1.272,0.238-1.427-1.325-1.702-2.101
		c-0.996-2.816-2.65-5.187-4.503-7.106c-2.781-2.479-5.826-4.564-10.107-5.354c-5.609-1.035-10.741,0.616-14.261,2.902
		c-3.531,2.294-6.386,5.629-7.855,10.007c-0.513,1.527-0.649,3.209-0.9,5.054c-0.221,1.606,0.068,3.934,0.35,5.454
		c0.826,4.461,3.372,7.528,6.105,10.208c1.259,1.271,2.941,2.217,5.003,3.152c1.953,0.885,5.091,2.173,7.205,0.7
		c0.198-0.138,0.403-0.461,0.751-0.351c0.038,1.229-0.873,2.092-1.802,2.502c-2.081,0.922-5.285-0.394-6.955-1.201
		c-3.992-1.927-6.784-4.391-9.007-8.105c-0.444-0.743-0.992-1.47-1.25-2.151c-0.228-0.602-0.377-1.295-0.602-1.951
		c-0.637-1.865-1.1-4.122-1.1-6.556c0-2.315,0.349-4.699,1.051-6.604c0.454-1.234,0.706-2.199,1.301-3.253
		c2.896-5.127,7.454-9.047,14.01-10.507c0.996-0.222,2.149-0.499,3.253-0.551c4.83-0.228,8.926,1.349,12.059,3.253
		c3.843,2.335,6.728,5.85,8.406,10.157C56.736,18.747,57.154,19.569,56.998,20.407z"/>
	<path style="fill-rule:evenodd;clip-rule:evenodd;" d="M54.246,19.606c-0.989,0.223-1.203-0.832-1.451-1.4
		c-2.036-4.66-5.707-7.992-10.858-9.608c-7.018-2.2-14.002,0.952-17.363,4.653C22,16.07,20.185,19.307,19.82,24.11
		c-0.189,2.498,0.378,4.937,1.101,6.955c1.688,4.713,5.456,8.112,10.208,9.957c1.69,0.656,3.756,1.152,5.203,0
		c0.219-0.174,0.382-0.565,0.801-0.551c0.312,2.077-1.298,2.961-3.052,3.003c-1.093,0.026-2.552-0.405-3.553-0.801
		c-5.185-2.048-8.682-5.644-10.758-10.758c-0.836-2.058-1.325-4.591-1.201-7.405c0.105-2.389,0.817-5.148,1.701-6.905
		c0.479-0.95,1.01-1.888,1.602-2.702c2.974-4.094,7.485-7.118,13.659-7.855c2.449-0.293,5.201,0.21,7.156,0.851
		c3.936,1.289,6.908,3.54,9.156,6.555c0.841,1.128,1.57,2.309,2.151,3.753C54.156,18.606,54.523,19.138,54.246,19.606z"/>
	<path style="fill-rule:evenodd;clip-rule:evenodd;" d="M51.594,19.057c-0.871,0.279-1.143-0.593-1.401-1.051
		c-2.102-3.729-5.48-6.816-10.607-7.656c-6.251-1.023-11.731,1.994-14.611,5.905c-1.322,1.796-2.251,4.011-2.652,6.555
		c-0.891,5.659,1.537,10.402,4.704,13.209c1.63,1.444,3.67,2.731,5.904,3.303c0.572,0.146,1.431,0.223,2.151,0.05
		c0.625-0.149,0.967-0.647,1.552-0.55c0.104,2.912-3.323,2.566-5.454,1.701c-2.623-1.065-5.063-2.856-6.605-4.804
		c-2.242-2.869-4.092-6.376-3.702-11.509c0.372-4.911,2.653-8.358,5.704-11.008c2.506-2.177,5.808-3.654,9.657-3.953
		c1.984-0.154,3.903,0.319,5.554,0.801c4.025,1.173,6.98,3.628,9.007,6.856C51.171,17.508,51.742,18.274,51.594,19.057z"/>
	<path style="fill-rule:evenodd;clip-rule:evenodd;" d="M23.724,20.758c-0.166-0.55,0.123-1.031,0.4-1.301
		c2.73-0.35,6.551,0.364,9.256,1.25c0.62,0.204,2.068,0.682,2.103,1.052c0.038,0.424-0.98,0.933-1.302,0.95
		c-0.584,0.032-1.416-0.454-2.102-0.65c-2.062-0.591-4.687-1.085-7.106-1.151C24.443,20.894,24.099,21.036,23.724,20.758z"/>
	<path style="fill-rule:evenodd;clip-rule:evenodd;" d="M80.765,36.669c-0.426,0.338-0.886-0.105-1.2-0.3
		c-2.548-1.57-5.189-3.105-7.806-4.653c-2.977-1.761-5.87-3.741-8.856-5.404c-2.341-1.54-4.791-3.174-7.857-4.053
		c-3.077-0.883-6.9-1.196-10.707-0.65c-5.755,0.825-10.304,3.828-13.61,7.205c-0.49,0.5-0.767,1.123-1.301,1.551
		c-0.381-0.619-0.112-1.413,0.1-2.001c0.272-0.756,0.852-1.585,1.401-2.151c1.754-1.811,4.277-3.299,6.955-4.403
		c2.847-1.175,5.888-1.842,9.307-2.002c6.209-0.289,10.999,1.891,14.711,4.304c2.54,1.651,5.074,3.287,7.655,4.953
		c2.556,1.65,5.118,3.291,7.706,4.904c0.971,0.605,1.958,1.14,2.952,1.801C80.461,35.933,80.951,36.234,80.765,36.669z"/>
	<path style="fill-rule:evenodd;clip-rule:evenodd;" d="M23.173,23.01c-0.154-0.492,0.001-1.052,0.301-1.251
		c2.967-0.372,6.014,0.214,8.405,0.9c0.479,0.138,1.154,0.346,1.201,0.601c0.089,0.482-0.844,0.958-1.151,1.001
		c-0.621,0.085-1.407-0.265-2.051-0.451c-1.247-0.36-2.86-0.57-4.403-0.6C24.684,23.194,23.839,23.361,23.173,23.01z"/>
	<path style="fill-rule:evenodd;clip-rule:evenodd;" d="M79.564,38.671c-0.57,0.237-1.073-0.292-1.501-0.551
		c-1.359-0.821-2.819-1.721-4.153-2.601c-1.652-0.908-3.269-1.933-4.954-2.952c-2.42-1.464-4.812-3.042-7.356-4.453
		c-0.832-0.463-1.69-0.95-2.451-1.501c-1.565-1.134-3.509-1.902-5.504-2.352c-2.298-0.519-4.653-0.842-7.105-0.601
		c-2.266,0.222-4.567,0.618-6.455,1.4c-0.884,0.367-1.746,0.877-2.602,1.352c-1.742,0.965-3.161,1.959-4.554,3.352
		c-0.659,0.659-1.425,1.341-1.852,2.051c-0.345,0.574-0.416,1.285-0.75,1.952c-0.691-0.26-0.517-1.385-0.551-2.302
		c0.638-1.951,2.168-3.229,3.703-4.453c2.748-2.193,6.064-3.783,10.107-4.604c4.295-0.872,9.598-0.123,12.81,1.301
		c1.399,0.62,2.6,1.248,3.803,2.051c5.819,3.888,12.14,7.619,17.863,11.409C78.596,37.606,79.662,37.77,79.564,38.671z"/>
	<path style="fill-rule:evenodd;clip-rule:evenodd;" d="M30.879,24.911c-0.08,0.513-0.571,1.124-1.052,1.2
		c-0.475,0.076-1.302-0.251-2.051-0.351c-1.428-0.188-3.025-0.31-4.604-0.25c-0.406-0.269-0.358-1.161,0-1.451
		C25.821,23.746,29.066,23.913,30.879,24.911z"/>
	<path style="fill-rule:evenodd;clip-rule:evenodd;" d="M10.964,24.761c-0.224,0.88-1.126,1.406-1.752,1.951
		c-0.646,0.565-1.284,1.157-1.852,1.802c-3.791,4.045-6.404,9.37-6.404,16.712c0,3.543,0.932,6.775,2.152,9.457
		c2.426,5.329,6.285,9.157,11.458,11.759c2.569,1.292,5.804,2.283,9.257,2.352c7.557,0.15,12.789-2.391,16.963-6.105
		c2.904-2.366,5.301-5.913,6.754-10.107c1.284-3.704,1.767-8.405,0.751-12.81c-0.138-0.6-0.193-1.216-0.35-1.751
		c-0.205-0.699-0.718-1.215-0.801-1.952c1.534,0.326,2.263,1.731,2.752,3.253c1.029,3.203,0.705,7.658,0,10.958
		c-0.357,1.674-1.003,3.211-1.602,4.603c-1.887,4.392-4.786,7.7-8.355,10.357c-2.316,1.725-5.202,3.032-8.507,3.903
		c-1.691,0.445-3.566,0.78-5.404,0.801c-6.074,0.064-10.695-1.829-14.461-4.254c-1.256-0.809-2.521-1.692-3.502-2.702
		c-4.251-4.378-7.517-9.428-8.006-16.862c-0.353-5.383,1.021-9.828,2.851-13.31c1.889-3.59,4.295-6.299,7.456-8.656
		C10.727,23.847,11.06,24.296,10.964,24.761z"/>
	<path style="fill-rule:evenodd;clip-rule:evenodd;" d="M78.413,40.622c-0.678,0.278-1.345-0.342-1.851-0.65
		c-3.938-2.398-8.007-5.017-12.009-7.405c-2.276-1.244-4.492-2.781-6.905-4.203c-2.372-1.397-5.221-2.283-8.557-2.502
		c-0.39-0.025-0.757-0.023-1.15,0c-5.026,0.295-9.104,1.937-12.159,4.453c-1.383,1.139-3.256,2.425-3.503,4.604
		c-0.058,0.506,0.111,1.051,0.051,1.552c-0.584-0.011-0.924-0.563-1.102-1.001c-0.438-1.079-0.172-2.533,0.351-3.402
		c0.636-1.06,1.771-2.038,2.802-2.902c2.019-1.694,4.618-3.123,7.355-4.003c1.479-0.476,3.321-0.734,5.004-0.851
		c4.866-0.336,9.138,1.243,12.009,3.103c0.825,0.534,1.604,1.152,2.452,1.7c1.654,1.07,3.394,2.105,5.104,3.152
		c2.488,1.525,4.985,3.271,7.505,4.854c1.25,0.784,2.5,1.54,3.753,2.401C77.899,39.753,78.562,40.041,78.413,40.622z"/>
	<path style="fill-rule:evenodd;clip-rule:evenodd;" d="M29.178,26.912c0.07,0.546-0.239,1.078-0.701,1.251
		c-1.548-0.286-3.336-0.333-5.103-0.4c-0.31-0.242-0.447-0.861-0.2-1.251c1.098-0.431,2.527-0.293,4.003-0.149
		C27.971,26.439,28.822,26.501,29.178,26.912z"/>
	<path style="fill-rule:evenodd;clip-rule:evenodd;" d="M77.213,42.523c-0.543,0.378-1.048-0.215-1.451-0.45
		c-1.327-0.771-2.718-1.685-4.104-2.401c-2.479-1.658-5.25-3.312-8.006-5.004c-1.304-0.801-2.764-1.524-4.103-2.402
		c-0.337-0.22-0.591-0.492-0.951-0.7c-0.96-0.556-2.016-1.316-3.052-1.801c-1.897-0.887-4.465-1.594-7.155-1.601
		c-2.766-0.008-5.232,0.675-7.456,1.601c-1.003,0.417-1.896,1.071-2.802,1.701c-1.471,1.023-2.922,1.869-3.603,3.553
		c-0.153,0.379-0.263,0.89-0.25,1.35c0.016,0.577,0.313,0.818,0.2,1.401c-0.751,0.006-1.107-0.513-1.352-1.001
		c-0.354-0.711-0.348-1.897,0-2.702c0.456-1.056,1.466-1.977,2.401-2.802c1.813-1.599,4.154-2.889,6.655-3.753
		c1.384-0.479,3.01-0.748,4.504-0.851c8.015-0.554,11.855,3.776,16.662,6.555c2.424,1.401,4.807,2.96,7.104,4.504
		c1.758,1.18,3.536,2.218,5.305,3.401C76.277,41.468,77.14,41.768,77.213,42.523z"/>
	<path style="fill-rule:evenodd;clip-rule:evenodd;" d="M10.714,26.962c1.018,0.926-0.417,1.853-0.9,2.302
		c-2.062,1.916-3.582,4.081-4.805,6.905c-1.57,3.629-2.346,8.315-1.301,13.159c0.448,2.078,1.121,4.006,2.102,5.705
		c0.953,1.65,1.939,3.24,3.252,4.553c3.841,3.84,8.545,6.957,16.112,6.955c2.25,0,4.546-0.443,6.405-1.051
		c3.712-1.213,6.765-3.306,9.106-5.804c3.19-3.422,6.427-9.058,5.855-16.412c-0.206-2.643-0.823-5.834-2.201-7.355
		c-0.202-0.224-0.66-0.425-0.551-0.851c2.509,0.201,3.38,2.101,3.852,4.303c0.491,2.287,0.751,4.979,0.45,7.506
		c-0.58,4.878-2.329,8.775-4.653,11.808c-2.872,3.75-7.104,6.681-12.459,8.206c-3.259,0.928-7.237,0.977-10.907,0.101
		c-4.15-0.992-7.93-3.227-10.608-5.905c-2.876-2.875-5.104-6.021-6.204-10.257c-0.588-2.258-1.1-4.789-0.951-7.306
		c0.289-4.905,1.865-9.142,4.203-12.259c0.539-0.72,1.163-1.549,1.852-2.252C9.104,28.255,9.819,27.453,10.714,26.962z"/>
	<path style="fill-rule:evenodd;clip-rule:evenodd;" d="M28.477,29.064c0.102,0.398,0.027,0.929-0.15,1.201
		c-1.316,0.009-2.808-0.312-4.202-0.25c-0.328-0.234-0.689-0.662-0.501-1.251c0.262-0.259,0.651-0.183,1.051-0.2
		C25.97,28.508,27.714,28.484,28.477,29.064z"/>
	<path style="fill-rule:evenodd;clip-rule:evenodd;" d="M76.012,44.425c-0.575,0.406-1.144-0.244-1.551-0.5
		c-2.44-1.536-5.036-2.947-7.506-4.554c-1.973-1.283-3.939-2.423-6.005-3.652c-1.015-0.604-1.979-1.289-2.952-1.852
		c-2.066-1.194-4.034-2.532-6.555-3.103c-4.812-1.088-9.592,0.531-12.459,2.752c-1.027,0.797-2.311,1.668-2.602,3.152
		c-0.08,0.408,0.035,1.052-0.15,1.451c-1.035-0.026-1.521-1.499-1.201-2.651c0.161-0.581,0.647-1.269,1.102-1.752
		c0.531-0.565,1.336-1.191,2.101-1.751c2.743-2.003,6.44-3.312,11.059-3.002c4.748,0.317,7.736,2.989,10.958,4.953
		c4.863,2.964,9.716,6.183,14.511,9.257C75.213,43.464,76.039,43.718,76.012,44.425z"/>
	<path style="fill-rule:evenodd;clip-rule:evenodd;" d="M40.485,35.519c0.669-0.713,2.077-0.238,2.652,0.1
		c1.454,0.855,1.991,2.613,2.352,4.554c0.152,0.823,0.381,1.688,0.45,2.502c0.498,5.838-1.495,10.393-3.753,13.86
		c-1.561,2.396-3.643,4.214-6.104,5.704c-2.532,1.532-5.423,2.681-8.757,3.002c-7.872,0.76-13.188-2.682-16.962-6.454
		c-1.931-1.932-3.59-4.354-4.554-7.256c-0.924-2.783-1.551-6.408-1.051-10.308c0.139-1.079,0.571-2.304,0.951-3.452
		c0.736-2.225,1.691-3.982,3.002-5.704c0.621-0.816,1.287-1.688,2.102-2.252c0.366-0.253,0.667,0.123,0.701,0.5
		c0.064,0.729-1.018,1.513-1.502,2.102c-2.625,3.189-4.785,7.4-4.503,13.46c0.1,2.145,0.684,4.183,1.301,5.854
		c1.843,4.989,5.711,8.782,10.558,10.958c0.81,0.363,1.75,0.645,2.703,0.9c0.928,0.25,1.988,0.513,2.951,0.601
		c3.803,0.348,7.526-0.553,10.208-1.901c2.722-1.368,5.001-3.099,6.805-5.404c1.818-2.323,3.209-4.944,3.853-8.356
		c0.335-1.775,0.516-3.71,0.301-5.604c-0.249-2.19-0.647-4.926-1.952-6.204C41.747,36.239,41.113,36.138,40.485,35.519z"/>
	<path style="fill-rule:evenodd;clip-rule:evenodd;" d="M51.693,31.766c0.092,0.667-0.57,1.649-1.101,2.452
		c-0.661,1.001-1.691,2.777-2.651,1.15c0.134-0.574,0.812-1.127,1.351-1.901C49.938,32.538,50.409,30.651,51.693,31.766z"/>
	<path style="fill-rule:evenodd;clip-rule:evenodd;" d="M50.393,37.82c-0.397-0.247-0.699-0.688-0.65-1.151
		c0.033-0.313,0.48-0.812,0.751-1.15c0.301-0.377,0.534-0.678,0.801-1.051c0.627-0.88,0.955-1.865,1.45-2.302
		c2.281-0.338,0.17,2.659-0.3,3.353C51.751,36.542,51.234,37.413,50.393,37.82z"/>
	<path style="fill-rule:evenodd;clip-rule:evenodd;" d="M40.485,38.12c-0.29-0.204-0.463-0.498-0.801-0.7
		c-0.45-0.269-1.064-0.216-1.501-0.551c0.309-0.947,1.822-0.83,2.603-0.45c1.543,0.752,2.125,2.717,2.501,4.654
		c0.243,1.248,0.428,2.505,0.401,3.952c-0.066,3.466-1.294,6.676-2.553,8.706c-0.754,1.217-1.396,2.252-2.302,3.303
		c-0.845,0.981-1.926,1.815-3.002,2.603c-2.055,1.501-4.884,2.767-8.006,3.202c-7.366,1.027-12.716-2.34-16.112-6.005
		c-2.621-2.828-4.699-6.729-4.803-12.009c-0.091-4.547,1.33-7.913,3.252-10.758c0.132-0.194,1.144-1.723,1.502-1.651
		c1.064,0.213,0.008,1.599-0.15,1.802c-2.032,2.599-3.729,5.946-3.703,10.508c0.028,5.265,2.135,9.24,4.953,12.059
		c1.854,1.854,4.354,3.543,7.006,4.354c6.882,2.101,13.537-0.462,17.062-4.054c1.958-1.995,3.488-4.255,4.353-7.005
		C42.316,46.484,42.35,41.184,40.485,38.12z"/>
	<path style="fill-rule:evenodd;clip-rule:evenodd;" d="M53.945,37.42c-0.383,0.584-0.8,1.135-1.301,1.602
		c-0.449,0.501-0.711,1.19-1.551,1.301c-0.247-0.373-0.471-0.88-0.401-1.352c0.062-0.42,0.765-0.991,1.102-1.4
		c0.761-0.924,1.432-1.827,2.052-2.902c0.327-0.567,0.614-1.24,0.95-1.551c0.446-0.234,1.084,0.182,1.151,0.55
		c0.098,0.543-0.542,1.483-0.852,2.052C54.699,36.448,54.286,37.004,53.945,37.42z"/>
	<path style="fill-rule:evenodd;clip-rule:evenodd;" d="M56.897,34.368c1.704,0.308,0.26,2.266-0.25,3.102
		c-1.088,1.785-2.371,3.453-4.003,4.854c-0.302,0.259-0.847,0.707-1.101,0.649c-0.455-0.103-0.319-0.954-0.351-1.4
		c1.045-1.097,1.989-2.033,3.002-3.303c0.671-0.84,1.333-1.801,1.901-2.852c0.201-0.372,0.392-0.784,0.65-0.95
		C56.784,34.421,56.839,34.392,56.897,34.368z"/>
	<path style="fill-rule:evenodd;clip-rule:evenodd;" d="M12.565,34.918c0.033,0,0.067,0,0.1,0c0.646,0.508,0.26,1.083,0,1.501
		c-0.832,1.342-1.652,2.758-2.102,4.453c-0.631,2.386-0.59,5.208,0.05,7.706c0.991,3.869,3.442,6.857,6.556,8.807
		c1.869,1.171,4.183,2.199,7.255,2.252c5.681,0.097,9.594-2.608,12.309-5.955c1.901-2.343,3.395-6.023,2.902-10.607
		c-0.18-1.68-0.602-3.642-1.852-4.403c-0.262-0.159-0.799-0.215-0.801-0.551c-0.003-0.569,1.234-0.531,1.602-0.45
		c1.627,0.36,2.135,2.183,2.452,3.953c1.12,6.246-1.389,11.379-4.403,14.41c-2.759,2.585-6.104,4.437-10.508,4.704
		c-5.325,0.323-9.333-1.979-12.259-4.904c-2.617-2.615-5.094-6.967-4.703-12.408c0.176-2.468,0.996-4.807,2.051-6.655
		C11.589,36.112,11.953,35.282,12.565,34.918z"/>
	<path style="fill-rule:evenodd;clip-rule:evenodd;" d="M52.894,45.025c-0.396,0.221-0.701,0.8-1.251,0.7
		c-0.368-0.228-0.153-1.09-0.15-1.551c1.197-1.289,2.707-2.264,3.753-3.703c1.247-1.254,2.174-2.829,3.152-4.353
		c0.343-0.34,0.83,0.248,0.901,0.65c0.181,1.03-0.644,1.915-1.102,2.602C56.819,41.44,54.562,43.786,52.894,45.025z"/>
	<path style="fill-rule:evenodd;clip-rule:evenodd;" d="M60.45,36.47c0.498,0.185,0.901,0.465,1.301,0.75
		c1.633,2.838,2.445,6.744,1.701,10.708c-0.561,2.986-1.904,5.639-3.652,7.605c-0.264,0.297-0.465,0.628-0.701,0.9
		c-1.373,1.592-3.354,2.652-5.554,3.604c-1.495,0.646-3.453,1.078-5.754,1.15c-0.857,0.026-1.771-0.009-1.852-0.4
		c-0.156-0.759,0.953-0.75,1.601-0.75c5.623,0,8.816-2.052,11.558-4.804c1.929-2.766,4.056-5.873,3.753-10.858
		c-0.143-2.349-0.741-4.374-1.65-6.105c-0.292-0.555-0.852-1.136-0.901-1.701C60.337,36.523,60.392,36.493,60.45,36.47z"/>
	<path style="fill-rule:evenodd;clip-rule:evenodd;" d="M64.303,38.821c0.043-0.01,0.048,0.019,0.051,0.05
		c1.046,0.252,1.16,1.646,1.351,2.752c1.341,7.779-2.13,13.954-6.255,17.413c-2.518,2.393-6.123,3.984-10.857,4.353
		c-1.495,0.116-3.258,0.135-4.453-0.5c0.093-1.28,1.829-0.666,2.752-0.601c5.745,0.411,10.066-1.948,12.859-4.653
		c3.263-3.282,6.243-8.312,5.203-15.161c-0.075-0.498-0.241-1.181-0.399-1.802c-0.15-0.586-0.552-1.339-0.401-1.751
		C64.189,38.874,64.244,38.846,64.303,38.821z"/>
	<path style="fill-rule:evenodd;clip-rule:evenodd;" d="M67.205,40.672c0.973-0.054,1.017,1.772,1.101,3.003
		c0.278,4.068-0.69,7.429-1.951,10.057c-1.726,3.599-4.178,6.549-7.405,8.707c-3.376,2.258-9.247,4.157-14.861,3.002
		c-0.678-0.14-1.51-0.126-2.001-0.65c0.385-1.4,1.988-0.546,2.952-0.4c4.349,0.658,8.319-0.263,11.508-1.701
		c2.477-1.116,4.992-3.25,6.756-5.554c2.623-3.428,4.721-8.097,4.002-14.111c-0.086-0.721-0.27-1.518-0.25-2.201
		C67.083,40.75,67.133,40.7,67.205,40.672z"/>
	<path style="fill-rule:evenodd;clip-rule:evenodd;" d="M69.857,42.273c0.881-0.116,0.783,1.813,0.75,3.002
		c-0.103,3.738-0.954,6.513-2.052,9.007c-1.551,3.527-3.606,6.115-6.305,8.406c-2.651,2.253-5.812,3.963-9.856,4.854
		c-3.129,0.688-6.749,0.677-9.857-0.1c-0.935-0.233-1.996-0.331-2.652-1.001c0.244-0.828,0.942-0.676,1.552-0.501
		c1.792,0.517,3.995,1.003,6.154,1.052c1.826,0.04,3.732-0.22,5.304-0.602c4.679-1.137,8.327-3.448,11.108-6.454
		c2.767-2.99,4.972-6.941,5.604-12.009c0.106-0.853,0.216-1.832,0.199-2.752c-0.015-0.857-0.184-1.868-0.1-2.752
		C69.735,42.352,69.785,42.302,69.857,42.273z"/>
	<path style="fill-rule:evenodd;clip-rule:evenodd;" d="M72.259,43.774c0.998-0.113,0.673,2.228,0.601,3.353
		c-0.233,3.654-1.467,6.946-2.802,9.457c-1.912,3.594-4.443,6.494-7.506,8.807c-3.047,2.301-6.918,4.162-11.608,4.754
		c-2.538,0.319-5.043,0.231-7.506-0.15c-1.664-0.258-3.38-0.711-4.854-1.301c-0.434-0.175-1.006-0.34-1.201-0.801
		c0.729-1.038,1.963-0.349,2.803-0.051c2.855,1.014,6.302,1.573,10.157,1.251c6.958-0.579,11.896-3.925,15.562-7.955
		c2.464-2.71,4.393-6.147,5.454-10.208c0.414-1.584,0.561-3.19,0.65-5.204c0.022-0.512-0.008-1.459,0.1-1.801
		C72.137,43.853,72.186,43.803,72.259,43.774z"/>
	<path style="fill-rule:evenodd;clip-rule:evenodd;" d="M22.723,47.177c1.712,0.138,1.643,2.23,2.001,3.803
		c0.429,1.881,1.131,3.634,1.852,5.154c0.376,0.791,0.971,1.42,1.201,2.302c-1.39,1.296-2.136-0.91-2.702-1.951
		c-0.964-1.772-1.568-3.609-2.052-5.755c-0.232-1.036-0.591-2.462-0.45-3.402C22.601,47.255,22.65,47.205,22.723,47.177z"/>
	<path style="fill-rule:evenodd;clip-rule:evenodd;" d="M25.274,48.628c0.564,0.087,0.936,0.365,1.301,0.651
		c0.566,2.366,1.325,4.567,2.452,6.554c0.224,0.394,1.062,1.426,0.95,1.901c-0.063,0.273-0.438,0.562-0.9,0.501
		c-0.574-0.076-1.191-1.349-1.501-1.901c-0.804-1.434-1.475-3.002-2.002-4.804c-0.217-0.743-0.673-2.308-0.45-2.802
		C25.161,48.682,25.215,48.652,25.274,48.628z"/>
	<path style="fill-rule:evenodd;clip-rule:evenodd;" d="M32.43,50.079c0.152-0.234,0.529-0.689,0.95-0.65
		c0.608,0.057,0.788,1.514,1.102,2.151c0.177,0.361,0.4,0.691,0.6,1.051c0.199,0.357,0.515,0.756,0.501,1.101
		c-0.017,0.412-0.42,0.809-0.751,0.801c-0.669-0.016-1.163-1.456-1.451-2.001C32.953,51.722,32.529,51.081,32.43,50.079z"/>
	<path style="fill-rule:evenodd;clip-rule:evenodd;" d="M31.129,57.385c-0.539-0.346-0.904-0.971-1.251-1.552
		c-0.69-1.152-1.294-2.386-1.802-3.803c-0.244-0.679-0.542-1.453-0.4-2.201c0.176-0.21,1.193,0.031,1.451,0.3
		c0.269,0.281,0.463,1.23,0.65,1.752c0.444,1.229,0.866,2.194,1.501,3.302c0.254,0.443,0.892,1.063,0.852,1.502
		C32.086,57.161,31.498,57.308,31.129,57.385z"/>
	<path style="fill-rule:evenodd;clip-rule:evenodd;" d="M31.529,50.279c0.528,1.135,1.076,2.629,1.801,3.852
		c0.225,0.379,0.648,0.802,0.601,1.251c-0.037,0.345-0.441,0.703-0.751,0.701c-0.475-0.004-0.837-0.81-1.05-1.151
		c-0.831-1.326-1.71-2.792-1.902-4.503C30.48,50.106,31.133,50.069,31.529,50.279z"/>
</g>
<g id="Layer_1">
</g>
</svg>
