<?xml version="1.0" encoding="iso-8859-1"?>
<!-- Generator: Adobe Illustrator 19.2.0, SVG Export Plug-In . SVG Version: 6.00 Build 0)  -->
<svg version="1.1" xmlns="http://www.w3.org/2000/svg" xmlns:xlink="http://www.w3.org/1999/xlink" x="0px" y="0px"
	 viewBox="0 0 75.904 76.69" style="enable-background:new 0 0 75.904 76.69;" xml:space="preserve">
<g id="Ontario_x5F_Pavilion_x5F_Expo_x5F_67_x5F_Montreal">
	<path style="fill-rule:evenodd;clip-rule:evenodd;" d="M23.053,0.002c0.041-0.009,0.047,0.02,0.049,0.049
		c3.293,2.655,7.33,5.44,12.957,5.824c6.107,0.416,10.242-1.678,13.93-3.932c0.031,0.364-0.375,0.647-0.631,0.923
		c-0.773,0.832-1.709,1.771-2.572,2.523c-4.018,3.905-7.736,8.123-11.842,11.938c-2.047,1.903-4.086,3.853-5.969,5.921
		c-1.65,1.812-3.488,3.438-5.242,5.193c-0.226,0.226-0.488,0.596-0.873,0.582c-0.139-1.081-0.16-2.269-0.146-3.445
		c0.084-7.021,0.098-15.406,0.098-22.859c0-0.96-0.141-2,0.098-2.62C22.943,0.053,22.996,0.026,23.053,0.002z"/>
	<path style="fill-rule:evenodd;clip-rule:evenodd;" d="M54.162,0.681c0.473-0.056,0.395,1.523,0.438,2.038
		c0.42,5.072,2.654,8.771,5.047,11.794c1.426,1.802,3.33,3.13,5.289,4.319c2.055,1.245,4.41,1.93,7.039,2.572
		c-0.678,0.281-1.424,0.115-2.137,0.146c-4.857,0.205-10.438,0.005-15.529-0.049c-5.928-0.062-11.973-0.001-18.055,0
		c-0.779,0-1.643,0.135-2.379-0.194c0.143-0.641,0.744-0.973,1.166-1.407c2.053-2.121,4.326-4.127,6.357-6.357
		c3.994-4.388,8.354-8.571,12.619-12.765C54.053,0.733,54.105,0.705,54.162,0.681z"/>
	<path style="fill-rule:evenodd;clip-rule:evenodd;" d="M21.062,3.933c0.041-0.009,0.047,0.019,0.049,0.048
		c0.178,6.255,0.098,12.802,0.098,19.268c-0.002,6.496,0.09,12.945-0.146,19.024c-0.689-0.06-1.031-0.74-1.455-1.164
		c-3-2.999-6.115-6.059-9.125-9.124c-2.598-2.621-5.283-5.14-7.91-7.766c-0.424-0.425-0.906-0.86-1.311-1.311
		c-0.4-0.446-0.84-0.937-1.068-1.504c0.713-0.249,1.435-0.224,2.137-0.291c2.137-0.207,4.018-0.632,5.775-1.359
		c6.701-2.774,11.143-7.887,12.861-15.676C21.008,4.04,20.994,3.946,21.062,3.933z"/>
	<path style="fill-rule:evenodd;clip-rule:evenodd;" d="M47.125,23.394c8.363,0.02,16.82,0.097,25.334,0.098
		c1.154,0,2.336-0.119,3.445,0.146c-0.336,0.86-1.053,1.34-1.602,1.989c-2.266,3.188-4.211,7.153-4.318,12.521
		c-0.055,2.751,0.469,5.053,1.213,7.183c0.736,2.11,1.785,3.9,2.766,5.63c-0.768-0.428-1.293-1.173-1.893-1.795
		c-0.59-0.613-1.277-1.165-1.844-1.796c-0.477-0.531-0.857-1.102-1.359-1.602c-3.402-3.401-6.898-6.899-10.338-10.338
		c-2.965-2.966-5.908-5.909-8.881-8.881c-0.717-0.719-1.52-1.405-2.232-2.185c-0.209-0.228-0.531-0.53-0.484-0.873
		C47.002,23.467,47.053,23.42,47.125,23.394z"/>
	<path style="fill-rule:evenodd;clip-rule:evenodd;" d="M28.73,53.048c-0.414,0.413-1.127,0.243-1.697,0.243
		c-3.779,0.001-7.111-0.049-10.824-0.049c-4.57,0.001-9.014,0.001-13.588,0c-0.873,0-1.775,0.011-2.621-0.194
		c0.119-0.567,0.592-0.964,0.922-1.407c2.219-2.982,4.361-6.733,4.66-11.647c0.277-4.61-0.715-8.627-2.379-11.502
		c-0.561-0.969-1.182-1.898-1.795-2.912c-0.049-0.002-0.039-0.06-0.049-0.098c0.043-0.029,0.086-0.059,0.096,0
		c0.033,0,0.066,0,0.098,0c4.633,4.472,9.16,9.112,13.734,13.687c4.279,4.277,8.465,8.659,12.766,12.958
		C28.312,52.385,28.736,52.613,28.73,53.048z"/>
	<path style="fill-rule:evenodd;clip-rule:evenodd;" d="M54.744,34.169c0.033,0,0.064,0,0.098,0
		c3.566,3.374,6.924,6.957,10.387,10.435c1.781,1.68,3.51,3.413,5.145,5.241c1.189,1.419,2.604,2.561,3.881,3.932
		c0.393,0.421,0.961,0.867,1.068,1.504c-5.166,0.073-9.113,1.874-12.375,4.174c-4.184,2.949-7.033,7.174-8.301,12.959
		c-0.297-0.912-0.193-1.919-0.193-2.864c-0.002-11.018,0.049-21.898,0.049-32.711c0-0.809-0.068-2.01,0.098-2.523
		C54.627,34.245,54.674,34.196,54.744,34.169z"/>
	<path style="fill-rule:evenodd;clip-rule:evenodd;" d="M52.318,47.612c0.041-0.009,0.045,0.018,0.049,0.049
		c0.232,0.102,0.232,0.566,0.242,0.776c0.039,0.88-0.053,1.777-0.049,2.669c0.029,8.304,0.086,17.101-0.098,25.577
		c-0.506,0.069-0.764-0.445-1.066-0.729c-2.131-1.988-5.223-3.782-8.543-4.61c-4.182-1.042-9.281-0.664-12.908,0.825
		c-1.611,0.661-2.947,1.742-4.514,2.523c0.394-0.703,1.045-1.238,1.601-1.796c0.559-0.558,1.141-1.092,1.697-1.649
		c0.56-0.561,1-1.242,1.555-1.796c7.225-7.225,14.664-14.435,21.838-21.791C52.225,47.681,52.252,47.628,52.318,47.612z"/>
	<path style="fill-rule:evenodd;clip-rule:evenodd;" d="M41.641,55.378c-0.189,0.596-0.709,1.026-1.115,1.456
		c-1.217,1.284-2.613,2.489-3.834,3.834c-2.199,2.248-4.574,4.333-6.746,6.648c-2.422,2.582-5.129,5.087-7.572,7.717
		c-0.293,0.316-0.58,0.786-1.066,0.825c-0.254-0.328-0.119-0.945-0.146-1.359c-0.356-5.403-2.596-9.81-5.582-12.86
		c-2.322-2.374-4.922-4.204-8.443-5.388c-0.838-0.28-1.73-0.486-2.719-0.728c-0.201-0.049-0.789-0.079-0.582-0.34
		C16.264,55.122,29.654,55.13,41.641,55.378z"/>
</g>
<g id="Layer_1">
</g>
</svg>
