<?xml version="1.0" encoding="iso-8859-1"?>
<!-- Generator: Adobe Illustrator 19.2.0, SVG Export Plug-In . SVG Version: 6.00 Build 0)  -->
<svg version="1.1" xmlns="http://www.w3.org/2000/svg" xmlns:xlink="http://www.w3.org/1999/xlink" x="0px" y="0px"
	 viewBox="0 0 72.864 73.328" style="enable-background:new 0 0 72.864 73.328;" xml:space="preserve">
<g id="Ontario_x5F_Recreation_x5F_Society">
	<path style="fill-rule:evenodd;clip-rule:evenodd;" d="M21.255,70.018c-0.009-0.039-0.048-0.048-0.048-0.096
		c-0.088-22.142-0.071-44.739,0.096-66.476c0.361-0.451,0.977-0.572,1.492-0.77c1.563-0.601,3.227-1.202,5.054-1.637
		c1.243-0.295,2.441-0.531,3.755-0.722c3.643-0.528,7.898-0.372,11.408,0.289c4.921,0.926,9.31,2.858,12.949,5.15
		c3.13,1.971,5.967,4.375,8.279,7.172c1.55,1.875,3.095,3.844,4.236,6.113c0.581,1.156,1.231,2.259,1.733,3.466
		c0.499,1.202,0.837,2.519,1.251,3.899c1.619,5.391,1.873,12.213,0.578,18.244c-1.193,5.558-3.498,10.167-6.547,14.152
		c-3,3.921-6.662,7.221-10.975,9.675c-2.126,1.21-4.486,2.398-7.172,3.177c-2.712,0.786-5.516,1.346-8.761,1.589
		c-3.396,0.254-6.768-0.094-9.58-0.674C26.223,71.995,23.637,71.135,21.255,70.018z M54.757,17.935
		c-2.367-0.958-5.165-1.646-8.424-1.493c-6.1,0.288-10.488,3.089-13.574,6.354c-2.356,2.527-4.18,5.768-4.958,9.82
		c-0.862,4.489,0.117,9.292,1.781,12.467c2.478,4.728,6.33,8.46,12.034,10.157c1.959,0.583,4.207,1.057,6.451,0.867
		c8.703-0.739,14.631-5.54,17.377-12.226c1.437-3.5,1.965-8.657,0.818-12.756c-1.08-3.86-2.981-6.897-5.584-9.242
		C59.088,20.302,57.1,18.883,54.757,17.935z"/>
	<path style="fill-rule:evenodd;clip-rule:evenodd;" d="M16.826,5.708c0.032,0,0.064,0,0.096,0c0.26,0.568,0.144,1.218,0.144,1.83
		c-0.001,19.254,0.106,40.463-0.144,59.978c-1.353-0.643-2.564-1.533-3.658-2.455c-1.092-0.92-2.163-1.888-3.081-2.984
		c-1.848-2.062-3.863-4.291-5.247-6.883c-0.384-0.72-0.731-1.5-1.107-2.262c-1.066-2.16-2.055-4.648-2.744-7.221
		c-0.955-3.566-1.238-7.793-1.011-12.13C0.39,27.55,2.63,22.604,4.744,18.272c0.713-1.463,1.754-2.741,2.695-3.947
		C10.055,10.94,13.016,7.899,16.826,5.708z"/>
	<path style="fill-rule:evenodd;clip-rule:evenodd;" d="M49.896,23.278c4.273-0.315,7.675,1.63,9.868,3.61
		c2.258,2.04,4.153,5.076,4.332,9.145c0.19,4.319-1.39,7.568-3.514,9.965c-1.87,2.109-5.297,4.261-9.098,4.38
		c-4.421,0.139-7.44-1.333-9.868-3.61c-2.144-2.011-4.183-5.158-4.332-9.146c-0.251-6.7,3.054-10.351,7.317-12.804
		C46.016,24.004,47.908,23.425,49.896,23.278z"/>
</g>
<g id="Layer_1">
</g>
</svg>
