<?xml version="1.0" encoding="iso-8859-1"?>
<!-- Generator: Adobe Illustrator 19.2.0, SVG Export Plug-In . SVG Version: 6.00 Build 0)  -->
<svg version="1.1" xmlns="http://www.w3.org/2000/svg" xmlns:xlink="http://www.w3.org/1999/xlink" x="0px" y="0px"
	 viewBox="0 0 74.233 74.835" style="enable-background:new 0 0 74.233 74.835;" xml:space="preserve">
<g id="Open_x5F_Design_x5F_78">
	<path style="fill-rule:evenodd;clip-rule:evenodd;" d="M25.723,74.747c-0.021-0.042-0.041-0.085-0.095-0.095
		c-0.068-8.836-0.146-16.638-0.048-25.373c0.043-0.021,0.086-0.042,0.096-0.096c4.318-0.139,8.027,0.033,11.758-0.095
		c3.744-0.13,6.322-1.75,8.236-3.809c1.932-2.08,3.447-5.013,3.332-8.712c-0.115-3.691-1.598-6.263-3.666-8.331
		c-2.107-2.107-4.855-3.598-8.521-3.522c-3.666,0.075-6.387,1.482-8.426,3.522c-2.05,2.051-3.591,4.427-3.76,8.283
		c-0.17,3.846,0.205,7.744-0.096,11.901c-1.869,0.159-3.85,0.133-5.855,0.142c-5.006,0.027-10.362-0.094-15.566-0.095
		c-0.989,0-2.012,0.115-2.952-0.143C-0.014,32.523-0.069,16.49,0.111,0.103c8.509-0.231,17.655-0.003,26.516,0
		c2.09,0,4.127-0.001,6.141,0c2.018,0,3.996-0.118,5.855-0.048c3.836,0.144,7.193,0.865,10.332,1.903
		c6.125,2.028,10.777,5.542,14.852,9.617c4.139,4.138,7.068,9.254,8.949,15.519c0.992,3.303,1.477,6.827,1.477,10.759
		c0,3.652-0.678,7.407-1.666,10.568c-1.922,6.146-5.127,11.41-9.092,15.377c-5.082,5.08-11.297,9.088-19.947,10.663
		c-1.803,0.328-3.701,0.275-5.76,0.333C33.826,74.904,29.67,74.758,25.723,74.747z"/>
</g>
<g id="Layer_1">
</g>
</svg>
