<?xml version="1.0" encoding="iso-8859-1"?>
<!-- Generator: Adobe Illustrator 19.2.0, SVG Export Plug-In . SVG Version: 6.00 Build 0)  -->
<svg version="1.1" xmlns="http://www.w3.org/2000/svg" xmlns:xlink="http://www.w3.org/1999/xlink" x="0px" y="0px"
	 viewBox="0 0 82.16 82.535" style="enable-background:new 0 0 82.16 82.535;" xml:space="preserve">
<g id="Optical_x5F_Peripherals_Laboratory">
	<path style="fill-rule:evenodd;clip-rule:evenodd;" d="M52.645,1.833c-6.559,0.309-14.533,0.041-21.284,0.1
		c-0.61,0.006-1.3,0.174-1.852-0.1c0.642-0.43,1.478-0.617,2.304-0.801c2.485-0.553,5.313-0.867,8.213-1.002
		c3.391-0.158,7.112,0.332,9.915,0.951C50.924,1.198,51.962,1.292,52.645,1.833z"/>
	<path style="fill-rule:evenodd;clip-rule:evenodd;" d="M60.857,5.239c-1.198,0.322-2.765,0.1-4.057,0.1
		c-5.838,0-11.841,0.051-17.827,0.049c-5.899,0-11.788,0.102-17.427-0.1c0.087-0.467,0.646-0.565,1.001-0.75
		c1.051-0.549,2.265-1.18,3.506-1.604c8.89-0.045,17.611-0.053,26.792-0.051c1.161,0.002,2.482-0.123,3.455,0.051
		c0.808,0.145,1.725,0.645,2.453,1.002C59.546,4.325,60.411,4.657,60.857,5.239z"/>
	<path style="fill-rule:evenodd;clip-rule:evenodd;" d="M65.965,8.643c-1.147,0.299-2.354,0.09-3.556,0.1
		c-13.16,0.107-26.882-0.002-40.413,0c-1.908,0.002-3.837,0.195-5.709-0.1c0.27-0.613,0.949-0.885,1.452-1.252
		c0.524-0.381,1.062-0.771,1.653-1.051C32.743,6.2,46.525,6.362,60.056,6.29c0.996-0.006,2.105-0.139,2.904,0.051
		c0.78,0.184,1.798,1.09,2.454,1.602C65.634,8.114,66.037,8.288,65.965,8.643z"/>
	<path style="fill-rule:evenodd;clip-rule:evenodd;" d="M69.721,12.098c-15.64,0.086-31.882,0.168-47.675,0.051
		c-3.294-0.025-6.52,0.242-9.614-0.051c0.125-0.543,0.598-0.924,1.052-1.351c0.371-0.352,0.895-0.881,1.352-1.002
		c0.855-0.227,2.073-0.049,3.205-0.051c3.036,0,6.455,0.141,9.465,0c3.131-0.144,7.055,0.02,10.216,0
		c9.748-0.055,19.97-0.105,29.647,0.051c0.779,0.353,1.348,1.047,1.953,1.652C69.494,11.571,69.903,11.766,69.721,12.098z"/>
	<path style="fill-rule:evenodd;clip-rule:evenodd;" d="M72.875,15.454c-5.206,0.228-10.486,0.1-15.824,0.1
		c-10.659,0.002-21.475,0.051-31.899,0.051c-5.313,0-10.567,0.109-15.775-0.1c-0.112-0.602,0.576-0.824,0.752-1.303
		c0.481-0.355,0.589-0.844,1.102-1.002c0.735-0.227,2.262-0.049,3.356-0.049c5.662,0,10.982-0.051,16.775-0.051
		c2.408,0,4.899-0.043,6.961-0.051c10.717-0.035,22.006,0.074,32.651,0.102c0.443,0.258,0.768,0.633,1.052,1.051
		C72.342,14.585,72.818,14.811,72.875,15.454z"/>
	<path style="fill-rule:evenodd;clip-rule:evenodd;" d="M75.329,18.86c-0.648,0.264-1.384,0.15-2.054,0.148
		c-19.083,0-38.451,0.002-57.989,0c-2.118,0-4.133,0.002-6.41,0c-0.651,0-1.378,0.119-2.003-0.148
		c-0.003-0.52,0.367-0.85,0.65-1.252c0.272-0.387,0.52-0.867,0.952-1.002c0.75-0.236,2.155-0.066,3.154-0.051
		c5.679,0.086,10.506-0.051,16.175-0.049c2.328,0,4.759-0.045,6.711-0.051c3.196-0.01,6.485,0.182,9.816,0.051
		c3.254-0.131,6.58-0.002,9.865,0c6.679,0,13.37-0.068,19.53,0.1c0.476,0.115,0.737,0.639,1.002,1.002
		C74.992,17.967,75.382,18.383,75.329,18.86z"/>
	<path style="fill-rule:evenodd;clip-rule:evenodd;" d="M77.332,22.215c-1.314,0.352-2.865,0.199-4.457,0.199
		c-16.777,0.002-32.921,0-49.877,0c-6.108,0-12.243,0.092-18.129-0.1c-0.113-0.514,0.3-0.891,0.501-1.252
		c0.162-0.439,0.387-0.814,0.751-1.053c23.577-0.189,47.004-0.129,69.909-0.049C76.664,20.512,77.126,21.235,77.332,22.215z"/>
	<path style="fill-rule:evenodd;clip-rule:evenodd;" d="M77.934,23.417c0.521,0.547,0.867,1.27,1.001,2.203
		c-1.498,0.344-3.071,0.201-4.606,0.201c-23.122-0.004-45.365,0.002-68.808,0c-0.746,0-1.533,0.115-2.253-0.15
		c0.106-0.592,0.431-1.92,1.001-2.205c0.513-0.254,1.979-0.1,2.854-0.1C30.934,23.364,54.656,23.186,77.934,23.417z"/>
	<path style="fill-rule:evenodd;clip-rule:evenodd;" d="M80.187,29.075c-1.194,0.287-2.452,0.15-3.705,0.15
		c-7.918,0-15.427,0-23.236,0c-1.336,0-2.741,0.147-3.807-0.1c-1.098-0.254-1.92-1.236-3.154-1.502
		c-0.689-0.148-1.598-0.072-2.454-0.051c-0.825,0.02-1.695-0.051-2.504-0.051c-1.746,0-3.593-0.158-5.058,0.101
		c-1.384,0.244-2.188,1.172-3.355,1.551c-2.538,0.062-5.067-0.07-7.612,0.051c-2.592,0.123-5.201-0.158-7.812-0.051
		c-2.519,0.105-5.119,0.051-7.712,0.051c-2.598,0-5.211,0.115-7.712-0.15c-0.051-0.84,0.306-1.693,0.751-2.203
		c8.287-0.295,16.729,0.07,25.189-0.199c2.131-0.07,4.305,0.092,6.46,0.049c2.143-0.041,4.278,0.049,6.41,0.051
		c4.3,0,8.604-0.17,12.87-0.051c2.101,0.059,4.191-0.084,6.31-0.049c6.257,0.1,12.817,0.053,19.279,0.199
		C79.896,27.305,80.161,28.272,80.187,29.075z"/>
	<path style="fill-rule:evenodd;clip-rule:evenodd;" d="M81.038,32.481c-0.754,0.311-1.587,0.082-2.354,0.1
		c-5.631,0.135-11.726,0.123-17.428,0.051c-9.937-0.127-19.878-0.051-30.196-0.051c-6.817,0-13.514,0-20.132,0
		c-2.481,0-4.965,0.084-7.361,0c-0.792-0.027-1.63,0.135-2.403-0.15c-0.121-0.623,0.147-1.631,0.501-2.104
		c1.124-0.26,2.29-0.152,3.455-0.1c1.164,0.053,2.375-0.068,3.556-0.051c3.598,0.055,7.221,0.021,10.917,0
		c2.388-0.012,4.68,0.055,7.061-0.049c1.253-0.055,2.621-0.029,3.756-0.051c2.085-0.039,4.227,0.008,6.309,0.1
		c2.131,0.094,4.252-0.051,6.36-0.049c2.121,0,4.258-0.06,6.359-0.051c5.968,0.025,12.217-0.024,18.429,0.1
		c4.208,0.084,8.402-0.182,12.62,0.15C80.905,30.762,81.177,31.817,81.038,32.481z"/>
	<path style="fill-rule:evenodd;clip-rule:evenodd;" d="M28.357,33.682c0.087,0.42-0.174,0.797-0.351,1.201
		c-0.167,0.383-0.35,0.867-0.651,1.002c-0.691,0.308-2.429,0.1-3.605,0.101c-4.855,0-10.148,0.031-14.723,0.049
		c-2.637,0.01-5.97-0.014-8.463-0.199c-0.19-0.666,0.027-1.725,0.35-2.205c5.158-0.115,10.463-0.1,15.976-0.1
		c3.272,0,6.328-0.016,9.414,0C27.03,33.536,27.773,33.415,28.357,33.682z"/>
	<path style="fill-rule:evenodd;clip-rule:evenodd;" d="M81.288,33.682c0.35,0.447,0.554,1.533,0.351,2.203
		c-4.017,0.299-8.596,0.109-13.17,0.101c-3.175-0.006-6.67,0.049-10.065,0.049c-1.061,0-2.542,0.176-3.255-0.1
		c-0.692-0.267-1.028-1.441-1.303-2.203c0.37-0.322,0.916-0.201,1.402-0.201C63.926,33.532,72.899,33.487,81.288,33.682z"/>
	<path style="fill-rule:evenodd;clip-rule:evenodd;" d="M81.789,37.089c0.329,0.445,0.354,1.592,0.201,2.203
		c-3.39,0.24-6.811,0.15-10.217,0.15c-3.42,0-6.838,0-10.266,0c-6.792,0-13.611-0.219-20.382-0.102
		c-3.311,0.059-6.725-0.109-10.115,0.051c-3.426,0.162-6.93,0.051-10.367,0c-5.222-0.078-10.535-0.014-15.423,0.051
		c-1.678,0.021-3.372-0.004-5.008-0.201c-0.151-0.668-0.156-1.922,0.351-2.254c3.33-0.021,7.211,0,10.766,0
		C34.822,36.985,57.786,36.833,81.789,37.089z"/>
	<path style="fill-rule:evenodd;clip-rule:evenodd;" d="M26.303,40.592c0.152,0.52,0.212,1.725-0.1,2.104
		c-8.364,0.227-17.755,0.217-25.94,0c-0.352-0.435-0.333-1.705-0.05-2.203c4.635-0.338,9.427,0.123,14.222-0.1
		c2.723-0.127,6.07-0.002,9.064,0C24.45,40.393,25.465,40.174,26.303,40.592z"/>
	<path style="fill-rule:evenodd;clip-rule:evenodd;" d="M82.039,40.544c0.16,0.529,0.16,1.623,0,2.152
		c-0.85,0.215-1.977,0.197-2.904,0.201c-6.752,0.025-13.778-0.051-20.882-0.051c-0.701,0-1.441,0.113-2.104-0.15
		c-0.239-0.461-0.203-1.621-0.05-2.152c0.742-0.361,1.999-0.15,3.055-0.15c2.396,0,4.815-0.045,7.211-0.051
		c4.492-0.01,8.96,0.213,13.32,0.051C80.468,40.364,81.266,40.405,82.039,40.544z"/>
	<path style="fill-rule:evenodd;clip-rule:evenodd;" d="M81.94,44.048c0.192,0.592,0.065,1.646-0.2,2.104
		c-1.59,0.295-3.234,0.064-4.857,0.15c-1.687,0.09-3.398,0.002-5.108,0c-3.344,0-6.744-0.049-10.115-0.049
		c-13.679-0.002-26.893,0-40.764,0c-6.85-0.002-13.842,0.111-20.482-0.15c-0.212-0.549-0.351-1.561-0.199-2.154
		c1.236-0.272,2.535-0.15,3.806-0.15c2.606,0,5.187,0,7.762,0c1.354,0,2.837,0.008,4.057-0.049c2.763-0.131,5.558,0.146,8.362,0.049
		c2.773-0.096,5.589,0,8.363,0c8.378,0,16.685,0,24.989,0c7.488,0,14.945,0.131,22.485,0.051
		C80.653,43.842,81.36,43.725,81.94,44.048z"/>
	<path style="fill-rule:evenodd;clip-rule:evenodd;" d="M0.964,49.506c-0.271-0.521-0.615-1.631-0.301-2.252
		c7.366-0.137,15.142-0.053,22.985-0.051c1.187,0,2.883-0.25,3.656,0.1c0.342,0.154,0.489,0.555,0.701,0.951
		c0.197,0.369,0.439,0.641,0.4,1.102c-0.576,0.439-1.578,0.252-2.504,0.252C17.419,49.608,9.307,49.756,0.964,49.506z"/>
	<path style="fill-rule:evenodd;clip-rule:evenodd;" d="M81.589,47.403c0.099,0.754-0.066,1.668-0.4,2.154
		c-1.069,0.238-2.201,0.1-3.305,0.1c-3.44,0-6.804,0-10.116,0c-3.469,0-6.847,0-10.416,0c-1.104,0-2.283,0.152-3.306-0.199
		c-0.004-0.676,0.692-2.141,1.402-2.254c1.015-0.162,2.188,0,3.355,0c3.203,0,6.793-0.148,9.966,0
		c3.332,0.154,6.542,0.049,9.665,0.051C79.5,47.255,80.584,47.131,81.589,47.403z"/>
	<path style="fill-rule:evenodd;clip-rule:evenodd;" d="M80.938,50.858c-0.057,0.73-0.096,1.859-0.65,2.154
		c-0.411,0.219-1.538,0.07-2.354,0.051c-2.446-0.059-4.911,0.049-7.362,0.049c-9.76-0.002-19.522-0.098-29.396-0.1
		c-13.41-0.002-26.278,0.109-39.361-0.1c-0.262-0.576-1.146-2.16-0.15-2.354c0.314-0.062,0.767,0.006,1.201,0
		c2.844-0.047,5.762,0.189,8.714,0.049c3.383-0.16,6.715-0.066,9.915-0.049c6.541,0.033,13.405,0,19.831,0
		c10.088-0.002,19.747,0.051,29.847,0.049c2.519,0,5.033-0.064,7.462,0.051C79.393,50.696,80.223,50.483,80.938,50.858z"/>
	<path style="fill-rule:evenodd;clip-rule:evenodd;" d="M79.937,54.214c0.071,0.48-0.288,1.986-0.802,2.205
		c-0.537,0.226-1.997,0.049-2.904,0.049c-6.997,0-13.669,0.049-20.331,0.051c-3.934,0-7.649-0.08-11.368,0.051
		c-3.652,0.127-7.473,0.074-11.218-0.15c-2.515-0.152-5.085-0.002-7.611,0c-2.561,0-5.113-0.043-7.662-0.051
		c-5.083-0.016-10.13,0.184-14.973-0.1c-0.563-0.428-0.886-1.346-0.852-2.203c8.695-0.162,17.445-0.102,26.491-0.102
		c1.445,0,3.1-0.207,4.356,0.051c0.696,0.142,1.273,0.676,2.054,1.051c0.686,0.332,1.604,0.678,2.303,0.752
		c1.1,0.117,2.518-0.014,3.706-0.051c1.285-0.039,2.613,0.127,3.856,0c0.841-0.086,1.663-0.447,2.403-0.75
		c0.735-0.301,1.444-0.844,2.153-1.002c1.086-0.244,2.532-0.051,3.856-0.051c7.448,0,15.083,0.049,22.885,0.051
		C77.497,54.014,78.755,53.891,79.937,54.214z"/>
	<path style="fill-rule:evenodd;clip-rule:evenodd;" d="M78.635,57.52c0.001,0.854-0.519,1.615-0.952,2.203
		c-8.807,0.17-17.743,0.047-26.741,0.049c-2.258,0.002-4.443-0.074-6.761-0.049C31.512,59.856,18.119,59.71,4.57,59.622
		c-0.662-0.408-1.055-1.342-1.102-2.203c11.989-0.221,23.956-0.102,35.806-0.1c5.208,0,10.412,0,15.875,0
		c5.47,0.002,10.67-0.023,15.824,0c1.296,0.006,2.625,0.146,3.906,0.1C76.139,57.374,77.402,57.268,78.635,57.52z"/>
	<path style="fill-rule:evenodd;clip-rule:evenodd;" d="M76.982,60.924c-0.095,0.861-0.658,1.676-1.252,2.203
		c-8.305,0.041-17.266,0.143-26.141,0.051c-2.818-0.029-5.627,0-8.413,0c-10.732,0-21.278-0.049-32.551-0.051
		c-0.777,0-1.655,0.108-2.153-0.049c-0.426-0.135-0.608-0.59-0.851-1.002c-0.24-0.408-0.618-0.756-0.501-1.252
		c1.576-0.252,3.191-0.15,4.808-0.15c9.992,0,20.243,0,30.347,0c1.744,0,3.613-0.049,5.208-0.051
		c8.09-0.006,16.116,0.021,23.737,0.1c1.959,0.022,3.828,0.051,5.909,0.051C75.721,60.774,76.409,60.659,76.982,60.924z"/>
	<path style="fill-rule:evenodd;clip-rule:evenodd;" d="M74.929,64.28c0.107,0.529-0.36,0.854-0.651,1.252
		c-0.301,0.412-0.518,0.865-1.002,1.002c-0.491,0.139-1.169,0.016-1.902,0.049c-1.915,0.092-4.3-0.064-6.06,0
		c-2.743,0.104-5.463-0.049-8.112-0.049c-13.568,0-27.304,0-40.513-0.051c-1.233-0.004-2.708,0.059-4.007,0
		c-2.108-0.096-4.272,0.543-4.857-1.002c-0.234-0.398-0.627-0.641-0.651-1.252c8.21-0.426,16.578,0.047,24.989-0.15
		c4.709-0.109,9.495-0.131,14.172,0c4.846,0.137,9.69-0.051,14.522,0c3.522,0.037,7.03,0.166,10.617,0.051
		C72.627,64.092,73.802,64.048,74.929,64.28z"/>
	<path style="fill-rule:evenodd;clip-rule:evenodd;" d="M72.375,67.686c-0.068,0.592-0.485,0.855-0.852,1.252
		c-0.335,0.359-0.642,0.869-1.101,1c-0.885,0.256-2.465,0.051-3.706,0.051c-17.649,0-37.248-0.062-55.086-0.1
		c-0.458-0.211-0.755-0.678-1.102-1.053c-0.316-0.342-0.856-0.703-0.801-1.252c1.167-0.135,2.509-0.139,3.705-0.15
		c9.909-0.098,19.853,0.002,29.746,0c9.181,0,18.065,0.031,27.544,0.15C71.259,67.592,71.862,67.378,72.375,67.686z"/>
	<path style="fill-rule:evenodd;clip-rule:evenodd;" d="M69.17,71.04c-0.02,0.596-0.591,0.883-1.002,1.252
		c-0.399,0.359-0.806,0.883-1.302,1.002c-0.463,0.113-1.151,0.051-1.753,0.051c-15.778,0.002-32.818,0.004-48.425-0.1
		c-0.501-0.004-0.954,0.074-1.303,0c-0.684-0.148-0.925-0.617-1.452-1.002c-0.345-0.414-1.097-0.664-1.052-1.303
		c7.672-0.178,15.428-0.102,23.337-0.1c10,0.002,19.905,0.049,29.946,0.049C67.173,70.891,68.198,70.778,69.17,71.04z"/>
	<path style="fill-rule:evenodd;clip-rule:evenodd;" d="M65.314,74.446c-0.297,0.611-0.852,0.902-1.401,1.252
		c-0.502,0.318-1.108,0.811-1.653,0.951c-0.551,0.143-1.423,0.051-2.203,0.051c-2.694,0-5.542,0.1-8.062,0.049
		C44.836,76.606,36.945,76.7,29.659,76.7c-1.517,0-3.154,0-4.758,0c-1.582,0-3.5,0.229-4.808-0.051
		c-0.731-0.156-1.13-0.643-1.752-1.002c-0.446-0.473-1.263-0.572-1.452-1.301c14.575-0.211,28.804-0.1,43.417-0.102
		c0.835,0,1.658,0.016,2.504,0C63.631,74.231,64.516,74.237,65.314,74.446z"/>
	<path style="fill-rule:evenodd;clip-rule:evenodd;" d="M59.856,77.801c-0.146,0.404-0.634,0.57-1.002,0.75
		c-1.081,0.531-2.382,1.031-3.605,1.504c-4.391,0.006-8.963,0.018-13.621,0c-3.664-0.016-7.349-0.002-10.967,0
		c-1.278,0-2.805,0.146-3.857-0.051c-0.793-0.148-1.636-0.645-2.403-1.002c-0.785-0.365-1.661-0.623-2.104-1.201
		c0.411-0.221,1.246-0.195,1.753-0.201c9.729-0.094,20.497,0.049,30.497,0.051C56.328,77.651,58.135,77.526,59.856,77.801z"/>
	<path style="fill-rule:evenodd;clip-rule:evenodd;" d="M51.142,81.157c-0.587,0.471-1.468,0.502-2.254,0.65
		c-5.394,1.016-13.079,1.102-17.877-0.601c0.416-0.348,1.013-0.199,1.502-0.199c3.252-0.002,6.578,0,9.915,0
		c2.502-0.002,4.635,0,7.011,0C50.022,81.006,50.651,80.891,51.142,81.157z"/>
</g>
<g id="Layer_1">
</g>
</svg>
