<?xml version="1.0" encoding="iso-8859-1"?>
<!-- Generator: Adobe Illustrator 19.2.0, SVG Export Plug-In . SVG Version: 6.00 Build 0)  -->
<svg version="1.1" xmlns="http://www.w3.org/2000/svg" xmlns:xlink="http://www.w3.org/1999/xlink" x="0px" y="0px"
	 viewBox="0 0 172.636 114.864" style="enable-background:new 0 0 172.636 114.864;" xml:space="preserve">
<g id="Optima_x5F_Corporation">
	<path style="fill-rule:evenodd;clip-rule:evenodd;" d="M172.526,0.167c0.037,14.28,0.094,28.797,0.096,43.132
		c0.004,23.308,0.049,48.271-0.048,71.134c-1.098,0.252-2.248,0.098-3.313,0.047c-3.288-0.154-6.38-0.701-9.271-1.344
		c-11.369-2.533-20.462-7.924-27.474-14.938c-4.641-4.643-8.657-10.158-11.671-16.619c-2.961-6.346-5.286-14.094-5.331-22.91
		c-0.074-14.139,3.866-24.523,9.51-32.95c0.947-1.414,1.869-2.805,2.93-4.13c3.08-3.85,6.718-7.429,10.759-10.471
		c2.717-2.045,5.709-3.898,8.79-5.332c6.502-3.024,13.619-5.299,22.525-5.715C170.75,0.037,171.9-0.114,172.526,0.167z"/>
	<path style="fill-rule:evenodd;clip-rule:evenodd;" d="M55.716,0.119c4.511-0.215,9.323,0.308,13.16,1.153
		c7.841,1.728,14.519,4.614,20.173,8.453c1.412,0.959,2.709,2.048,4.035,3.122c6.515,5.279,12.017,12.009,15.754,20.029
		c3.063,6.574,5.093,14.054,5.523,23.104c0.222,4.666-0.389,9.166-1.201,13.111c-2.438,11.852-7.979,20.779-14.841,28.098
		c-1.148,1.227-2.361,2.412-3.65,3.508c-1.291,1.094-2.565,2.256-3.938,3.217c-2.804,1.963-5.713,3.687-8.981,5.332
		c-6.454,3.244-14.173,5.156-23.056,5.572c-4.584,0.213-9.11-0.324-13.16-1.154c-4.03-0.824-7.649-2.014-10.902-3.41
		c-8.434-3.615-15.077-8.736-20.701-15.08c-0.568-0.641-0.998-1.387-1.537-2.066C7.688,87.188,3.9,80.172,1.729,71.588
		C0.764,67.77,0,63.518,0,59.004c0-4.799,0.295-9.14,1.152-13.161c1.689-7.916,4.576-14.478,8.406-20.221
		c3.807-5.708,8.363-10.627,13.977-14.649c2.744-1.966,5.768-3.859,8.981-5.332c3.172-1.453,6.686-2.871,10.52-3.794
		C46.95,0.905,51.085,0.339,55.716,0.119z"/>
</g>
<g id="Layer_1">
</g>
</svg>
