<?xml version="1.0" encoding="iso-8859-1"?>
<!-- Generator: Adobe Illustrator 19.2.0, SVG Export Plug-In . SVG Version: 6.00 Build 0)  -->
<svg version="1.1" xmlns="http://www.w3.org/2000/svg" xmlns:xlink="http://www.w3.org/1999/xlink" x="0px" y="0px"
	 viewBox="0 0 79.076 57.929" style="enable-background:new 0 0 79.076 57.929;" xml:space="preserve">
<g id="Orfebreria_x5F_Colonial">
	<path style="fill-rule:evenodd;clip-rule:evenodd;" d="M43.308,41.478c-0.011,0.767-0.507,1.38-0.831,2.025
		c-1.94,3.86-3.702,7.738-5.71,11.732c-0.317,0.632-0.691,1.501-1.09,1.817c-0.733,0.581-1.972,0.642-3.063,0.726
		c-3.626,0.282-6.534-1.194-8.462-2.699c-2.789-2.178-4.861-5.542-4.983-10.02c-0.058-2.15,0.556-3.991,1.194-5.71
		c1.21-3.261,3.407-6.039,3.582-10.175c0.086-2.042-0.446-4.001-1.194-5.658c-1.359-3.017-3.926-5.36-7.164-6.594
		c-3.675-1.398-8.214-0.869-11.109,0.986c-0.773,0.52-1.497,1.117-2.18,1.766c-0.667,0.633-1.223,1.405-1.921,1.869
		c1.768-4.052,3.995-8.272,6.073-12.407c1.051-2.09,2.097-3.966,3.687-5.555c1.849-1.849,4.305-3.25,7.734-3.53
		c4.689-0.383,7.376,1.42,9.552,3.27c2.616,2.226,4.679,5.646,4.361,10.901c-0.373,6.162-5.46,8.944-4.983,16.041
		c0.221,3.298,1.919,6.072,3.737,7.891c2.213,2.214,5.777,4.288,10.59,3.634C41.927,41.681,42.636,41.321,43.308,41.478z"/>
	<path style="fill-rule:evenodd;clip-rule:evenodd;" d="M79.076,35.353c-2.197,4.948-4.735,9.882-7.164,14.795
		c-1.617,3.271-3.801,5.863-7.476,7.112c-1.91,0.648-4.291,0.869-6.437,0.467c-4-0.751-6.897-2.909-8.67-5.918
		c-0.911-1.548-1.597-3.328-1.765-5.555c-0.179-2.365,0.167-4.454,0.935-6.282c1.386-3.3,3.753-6.434,3.686-10.9
		c-0.067-4.439-2.087-7.624-4.776-9.812c-1.934-1.573-4.66-2.853-8.202-2.751c-1.059,0.03-2.067,0.43-3.166,0.26
		c0.029-0.74,0.468-1.38,0.778-2.024c1.844-3.833,3.787-7.753,5.763-11.681c0.363-0.722,0.639-1.651,1.142-1.973
		c0.617-0.392,2.043-0.421,2.855-0.518c1.671-0.202,3.458,0.267,4.828,0.727c1.408,0.473,2.622,1.151,3.581,1.92
		c2.903,2.327,5.272,5.691,4.932,11.162c-0.256,4.118-2.508,7.247-3.737,10.745c-0.437,1.243-0.775,2.651-0.778,4.05
		c-0.009,3.281,1.251,5.984,2.803,7.942c1.677,2.115,3.791,3.495,6.438,4.257c3.074,0.885,6.544,0.245,8.929-0.935
		c1.774-0.877,3.257-2.128,4.36-3.686C78.265,36.285,78.527,35.681,79.076,35.353z"/>
	<path style="fill-rule:evenodd;clip-rule:evenodd;" d="M42.997,18.792c-0.333,1.31-1.08,2.439-1.661,3.634
		c-1.419,2.916-2.865,5.889-4.309,8.825c-0.278,0.565-0.535,1.166-0.986,1.609c-1.345-0.132-2.641-0.62-4.102-0.623
		c-0.955-0.002-1.914,0.299-2.907,0.155c-0.616-1.183-0.676-2.929-0.57-4.308c0.209-2.751,1.511-5.195,3.322-6.853
		c1.974-1.807,4.264-2.963,7.215-3.167C40.515,17.961,42.058,18.173,42.997,18.792z"/>
	<path style="fill-rule:evenodd;clip-rule:evenodd;" d="M57.532,32.549c-0.494-0.733-0.562-1.481-0.623-2.284
		c-0.276-3.64,0.963-6.558,2.907-8.565c1.798-1.856,4.558-3.345,7.891-3.53c1.921-0.106,3.792,0.543,5.14,1.246
		c3.773,1.969,7.307,6.693,5.762,12.614c-0.769,2.949-2.465,5.167-4.827,6.749c-0.452,0.303-1.474,0.967-2.024,0.883
		c-0.394-0.06-0.761-0.872-1.039-1.298c-1.787-2.739-4.157-4.878-7.838-5.658c-0.825-0.176-1.794-0.281-2.7-0.26
		C59.334,32.465,58.465,32.745,57.532,32.549z"/>
	<path style="fill-rule:evenodd;clip-rule:evenodd;" d="M21.505,25.437c0.667,0.927,0.837,2.582,0.727,4.153
		c-0.35,4.978-3.814,8.687-7.942,9.968c-3.622,1.122-7.837,0.227-10.176-2.077c-2.309-2.122-4.297-5.115-4.101-9.188
		c0.145-3.017,1.659-5.674,3.426-7.372c1.077-1.034,2.347-1.976,3.945-2.439c0.904,0.688,1.185,2,2.076,2.7
		c2.134,2.366,5.324,4.604,9.864,4.412C20.089,25.561,20.708,25.339,21.505,25.437z"/>
	<path style="fill-rule:evenodd;clip-rule:evenodd;" d="M43.204,25.488c1.024,0.062,2.893,0.477,4.361,0.468
		c0.825-0.005,1.474-0.262,2.232-0.156c0.684,0.604,0.707,1.632,0.779,2.544c0.396,4.993-2.698,9.397-6.541,11.058
		c-1.138,0.492-2.896,0.982-4.464,0.986c-0.977,0.002-3.03-0.089-3.271-0.727c-0.168-0.446,0.411-1.354,0.675-1.869
		c1.823-3.55,3.416-7.064,5.191-10.538c0.311-0.607,0.564-1.289,0.935-1.713C43.102,25.49,43.164,25.501,43.204,25.488z"/>
</g>
<g id="Layer_1">
</g>
</svg>
