<?xml version="1.0" encoding="iso-8859-1"?>
<!-- Generator: Adobe Illustrator 19.2.0, SVG Export Plug-In . SVG Version: 6.00 Build 0)  -->
<svg version="1.1" xmlns="http://www.w3.org/2000/svg" xmlns:xlink="http://www.w3.org/1999/xlink" x="0px" y="0px"
	 viewBox="0 0 72.33 135.914" style="enable-background:new 0 0 72.33 135.914;" xml:space="preserve">
<g id="&#xD6;rnek_Fidanl&#x131;k">
	<g>
		<path d="M14.232,85.104l16.535,16.422v34.388H20.361v-30.58L0.021,85.13l0.024-0.027L0,85.059l30.767-30.414v14.113L14.232,85.104
			z M58.096,85.104l-16.532,16.422v34.388h10.408v-30.58L72.309,85.13l-0.023-0.027l0.044-0.044L41.564,54.646v14.113L58.096,85.104
			z M36.958,78.13V36.847c1.949-2.169,6.269-8.077,6.62-18.178C43.957,8.006,36.536,0,36.536,0s-7.019,7.163-7.443,19.266
			c-0.289,8.158,3.92,14.687,5.912,17.299v41.623c-3.625,0.561-6.398,3.688-6.398,7.462c0,4.179,3.386,7.568,7.563,7.568
			c4.178,0,7.563-3.389,7.563-7.568C43.733,81.742,40.767,78.525,36.958,78.13 M33.795,50.378c0,0-10.545-0.007-17.964-7.426
			c-8.426-8.426-8.896-18.309-8.896-18.309s10.715,0.009,18.134,7.428C34.174,41.176,33.795,50.378,33.795,50.378 M66.153,24.623
			c0,0-0.639,10.777-8.613,17.799c-9.789,8.612-19.113,7.675-19.113,7.675s0.636-10.6,8.603-17.622
			C56.089,24.503,66.153,24.623,66.153,24.623"/>
	</g>
</g>
<g id="Layer_1">
</g>
</svg>
