<?xml version="1.0" encoding="iso-8859-1"?>
<!-- Generator: Adobe Illustrator 19.2.0, SVG Export Plug-In . SVG Version: 6.00 Build 0)  -->
<svg version="1.1" xmlns="http://www.w3.org/2000/svg" xmlns:xlink="http://www.w3.org/1999/xlink" x="0px" y="0px"
	 viewBox="0 0 82.415 84.385" style="enable-background:new 0 0 82.415 84.385;" xml:space="preserve">
<g id="osaka_x5F_art_x5F_festival">
	<path style="fill-rule:evenodd;clip-rule:evenodd;" d="M49.733,25.042c1.287-1.697,2.523-3.499,4.148-5.059
		c3.062-2.938,7.611-5.112,13.711-4.755c2.73,0.16,5.252,1.083,7.082,2.176c1.326,4.108,2.537,8.226,3.846,12.293
		c1.309,4.069,2.723,8.091,3.895,12.243c-0.193,1-1.131,2.268-1.67,3.035c-0.676,0.966-1.393,1.743-2.123,2.429
		c-3.188,3.156-8.518,5.975-15.127,4.856c-1.461-0.247-2.834-0.582-4.098-1.062c-0.434-0.164-0.9-0.242-1.266-0.404
		c-0.416-0.185-0.934-0.597-1.416-0.911c-4.961-3.225-8.77-8.555-8.854-16.492c-0.031-2.835,0.988-5.131,1.568-7.639
		c-0.828,0.619-1.254,1.608-1.871,2.428c-1.781,2.355-4.428,4.483-7.438,5.666c-2.062,0.81-4.729,1.442-7.336,1.315
		c-2.658-0.129-5.057-0.729-7.184-1.568c-4.199-2.383-7.414-5.416-9.309-10.067c-1.713-4.205-1.631-10.112,0.15-14.165
		c0.236-0.533,0.498-1.301,0.811-1.568c0.539-0.464,1.949-0.7,2.934-1.013c7.008-2.217,13.717-4.494,20.793-6.728
		c0.676-0.213,1.238,0.3,1.822,0.658c1.439,0.884,2.846,2.036,3.844,3.137c3.025,3.376,5.674,9.086,4.604,15.784
		C50.935,21.612,50.282,23.341,49.733,25.042z"/>
	<path style="fill-rule:evenodd;clip-rule:evenodd;" d="M7.743,66.83c-2.205-6.939-4.682-14.715-6.83-22.058
		c-0.291-0.997-0.963-2.35-0.91-3.188c0.037-0.579,0.709-1.496,1.113-2.074c1.342-1.913,2.828-3.418,4.654-4.756
		c2.402-1.757,5.65-3.16,9.41-3.338c3.572-0.169,6.486,0.624,8.904,1.82c4.625,2.291,8.23,6.144,9.764,11.636
		c0.771,2.765,0.828,6.655,0.152,9.613c-1.291,5.641-4.658,9.642-9.158,12.242c-2.109,1.22-5.244,2.142-8.498,2.176
		C13.03,68.939,10.151,68.128,7.743,66.83z"/>
	<path style="fill-rule:evenodd;clip-rule:evenodd;" d="M58.03,50.894c1.693,1.327,3.51,2.605,4.959,4.352
		c1.379,1.661,2.506,3.688,3.287,5.97c0.746,2.177,1.369,5.184,1.012,8.195c-0.156,1.322-0.389,2.608-0.809,3.845
		c-0.396,1.17-0.896,2.655-1.619,3.39c-6.851,2.256-13.717,4.488-20.691,6.83c-0.893,0.299-2.172,0.92-2.984,0.91
		c-0.59-0.007-1.383-0.624-1.973-1.012c-3.004-1.97-5.172-4.569-6.629-8.044c-0.594-1.419-1.127-2.911-1.365-4.503
		c-1.139-7.626,1.764-13.723,5.615-17.302c2.332-2.194,5.576-3.812,9.512-4.553C50.856,48.123,54.86,49.529,58.03,50.894z"/>
</g>
<g id="Layer_1">
</g>
</svg>
