<?xml version="1.0" encoding="iso-8859-1"?>
<!-- Generator: Adobe Illustrator 19.2.0, SVG Export Plug-In . SVG Version: 6.00 Build 0)  -->
<svg version="1.1" xmlns="http://www.w3.org/2000/svg" xmlns:xlink="http://www.w3.org/1999/xlink" x="0px" y="0px"
	 viewBox="0 0 70.689 73.979" style="enable-background:new 0 0 70.689 73.979;" xml:space="preserve">
<g id="Ostthuringer_x5F_Brauereien_x5F_Possneck">
	<path style="fill-rule:evenodd;clip-rule:evenodd;" d="M12.271,0.073c3.606-0.199,7.853,0.082,11.613,0
		c5.66-0.124,11.307-0.001,17.173,0c3.904,0,7.823,0.049,11.712,0.049c1.95,0,3.996-0.001,5.806,0.099
		c0.691,0.309,1.025,1.068,1.428,1.673c0.401,0.604,0.864,1.196,1.23,1.82c2.231,3.806,4.435,7.812,5.953,12.4
		c0.979,2.958,1.908,6.328,2.51,9.743c0.617,3.505,1.059,7.282,0.984,11.22c-0.128,6.836-0.961,13.048-2.805,18.502
		c-0.798,2.359-1.418,4.578-2.411,6.79c-1.56,3.477-3.313,6.663-5.413,9.842c-0.389,0.59-0.977,1.637-1.476,1.723
		c-0.741,0.127-1.99-0.05-2.902-0.05c-10.28-0.001-21.408-0.099-32.133-0.098c-2.862,0-5.812-0.124-8.71-0.05
		c-0.975,0.025-2.346,0.134-2.853-0.099c-0.519-0.235-0.936-1.182-1.329-1.771c-0.475-0.711-0.896-1.326-1.181-1.869
		c-2.926-4.501-5.317-9.924-7.037-15.895c-1.707-5.929-2.802-12.845-2.312-20.273c0.242-3.684,0.58-7.017,1.279-10.187
		c1.357-6.146,3.526-11.775,6.25-16.681c1.355-2.443,2.824-4.774,4.526-6.889C12.206,0.073,12.239,0.073,12.271,0.073z
		 M16.258,7.995c-1.341,1.751-2.431,3.781-3.396,5.905c-2.89,6.352-5.067,13.767-5.068,22.931
		c-0.001,5.96,0.868,11.386,2.411,16.238c1.115,3.51,2.548,6.762,4.133,9.891c0.385,0.759,1.269,2.8,2.018,2.952
		c1.327,0.271,3.084,0.049,4.724,0.05c11.147,0.002,22.892,0.11,33.314,0.049c0.828-0.649,1.243-1.704,1.771-2.607
		c0.538-0.921,1.013-1.919,1.476-2.903c2.791-5.934,4.886-12.816,5.266-21.012c0.541-11.695-2.599-20.921-6.446-28.541
		c-0.685-0.873-0.98-2.137-1.87-2.805C41.728,7.918,29.732,8.001,16.404,7.995C16.355,7.995,16.307,7.995,16.258,7.995z"/>
	<path style="fill-rule:evenodd;clip-rule:evenodd;" d="M51.194,36.88c0.411,0.389,1.108,0.439,1.723,0.64
		c1.671,0.545,3.089,1.557,3.888,3.051c1.12,2.097,0.908,5.258,0.295,7.873c-0.871,3.718-2.156,7.069-3.592,10.285
		c-0.472,1.055-0.978,2.11-1.674,2.952c-10.812,0.071-22.207,0.133-33.067-0.099c-0.71-0.652-1.011-1.635-1.427-2.51
		c-2.913-6.119-5.067-13.066-5.068-22.29c-0.001-8.799,2.257-16.022,5.167-22.193c0.329-0.697,1.085-2.35,1.673-2.46
		c1.177-0.221,2.787-0.001,4.183,0c9.456,0,19.513,0.044,28.639,0.147c1.857,2.722,3.15,6.239,4.281,9.841
		c0.529,1.686,1.057,3.709,1.378,5.659c0.366,2.228,0.298,4.422-0.837,6.151C55.624,35.652,53.524,36.272,51.194,36.88z
		 M40.664,27.235c-0.311-0.993-0.491-2.063-1.132-2.756c-1.229-0.178-2.635-0.099-4.035-0.099c-1.445,0.001-2.958-0.147-4.183,0
		c-0.597,0.073-0.683,0.644-0.935,1.28c-0.574,1.449-1.065,3.262-1.181,4.675c0.902,0.258,1.926,0.148,2.952,0.148
		c2.064-0.001,4.188,0,6.2,0c1.025,0,2.051,0.11,2.952-0.148C41.317,29.28,40.967,28.204,40.664,27.235z M38.4,43.326
		c-2.816,0-6.37-0.035-9.152,0.049c-0.26,0.468-0.01,1.065,0.099,1.575c0.351,1.646,0.824,3.324,1.574,4.477
		c2.78,0.107,5.88,0.133,8.66-0.049c0.821-1.675,1.507-3.741,1.674-5.905C40.384,43.211,39.386,43.326,38.4,43.326z"/>
</g>
<g id="Layer_1">
</g>
</svg>
