<?xml version="1.0" encoding="iso-8859-1"?>
<!-- Generator: Adobe Illustrator 19.2.0, SVG Export Plug-In . SVG Version: 6.00 Build 0)  -->
<svg version="1.1" xmlns="http://www.w3.org/2000/svg" xmlns:xlink="http://www.w3.org/1999/xlink" x="0px" y="0px"
	 viewBox="0 0 81.161 81.745" style="enable-background:new 0 0 81.161 81.745;" xml:space="preserve">
<g id="Ottagono">
	<path style="fill-rule:evenodd;clip-rule:evenodd;" d="M5.937,58.845c2.296-2.346,4.629-4.653,6.937-6.986
		c9.401-9.147,18.464-18.632,27.898-27.746c0.875,0.496,1.522,1.282,2.192,1.989c2.004,2.111,4.097,4.097,6.223,6.223
		c2.423,2.422,4.748,4.877,7.242,7.345c0.369,0.364,0.962,0.736,0.969,1.07c0.008,0.369-0.808,0.998-1.173,1.377
		c-2.878,2.987-5.9,5.849-8.823,8.772c-1.701,1.702-3.335,3.386-4.998,5.049c-1.669,1.67-3.409,3.278-4.998,5.05
		c0.364,0.739,1.021,1.276,1.581,1.836c0.555,0.555,1.097,1.169,1.785,1.581c1.181-0.765,2.045-1.914,3.06-2.856
		c1.008-0.935,2.029-1.945,2.958-2.958c1.856-2.024,3.927-3.926,5.916-5.916c0.97-0.97,1.961-1.961,2.958-2.958
		c2.455-2.453,4.961-4.724,7.447-7.345c0.388-0.408,1.377-1.137,1.377-1.529c0-0.42-1.119-1.374-1.377-1.633
		C56.127,32.228,49.477,25.425,42.455,18.4c-0.396-0.396-1.207-1.364-1.581-1.377c-0.391-0.014-0.988,0.785-1.377,1.173
		c-1.278,1.279-2.562,2.613-3.774,3.825c-8.505,8.509-16.926,16.824-25.398,25.297c-2.96,2.961-5.904,5.905-8.875,8.874
		c-0.383,0.384-0.78,0.941-1.376,1.021c-0.102-9.712-0.053-20.717-0.052-31.111c0-0.697-0.073-1.476,0.052-2.04
		c0.112-0.508,0.998-1.151,1.428-1.581c3.53-3.529,6.861-7.039,10.455-10.455C15.176,8.743,18.96,4.97,22.411,1.52
		c0.507-0.507,1.181-1.327,1.785-1.429c1.279-0.215,2.834,0.014,4.183,0.051c6.821,0.19,13.495,0.052,20.655,0.052
		c2.025,0,4.033,0.051,6.12,0.051c0.716,0,1.52-0.109,2.092,0c0.464,0.089,1.139,0.884,1.632,1.377
		c4.537,4.538,8.891,9.095,13.413,13.617c2.423,2.423,4.887,5.09,7.396,7.6c0.473,0.473,1.271,1.083,1.377,1.581
		c0.245,1.155-0.048,2.846-0.051,4.233c-0.018,6.764,0.001,13.92,0,20.655c0,2.839,0.046,5.811-0.051,8.518
		c-0.302,0.657-0.883,1.138-1.377,1.632c-1.466,1.465-2.991,2.939-4.488,4.438c-0.995,0.994-1.913,2.065-2.907,3.06
		c-3.928,3.927-7.897,7.794-11.985,11.884c-0.422,0.422-0.908,0.955-1.479,1.478c-0.475,0.437-1.127,1.278-1.581,1.378
		c-0.529,0.114-1.358-0.001-2.091,0c-7.489,0-15.404-0.104-22.9-0.103c-2.788,0-5.671-0.03-8.262-0.103
		c-0.979-0.685-1.784-1.58-2.652-2.447c-4.188-4.188-8.26-8.412-12.546-12.699c-1.246-1.247-2.535-2.416-3.825-3.774
		c-0.33-0.348-1.163-1.035-1.173-1.326c-0.014-0.366,0.773-0.977,1.07-1.275C5.212,59.52,5.634,59.134,5.937,58.845z"/>
</g>
<g id="Layer_1">
</g>
</svg>
