<?xml version="1.0" encoding="iso-8859-1"?>
<!-- Generator: Adobe Illustrator 19.2.0, SVG Export Plug-In . SVG Version: 6.00 Build 0)  -->
<svg version="1.1" xmlns="http://www.w3.org/2000/svg" xmlns:xlink="http://www.w3.org/1999/xlink" x="0px" y="0px"
	 viewBox="0 0 80.611 81.088" style="enable-background:new 0 0 80.611 81.088;" xml:space="preserve">
<g id="ove_x5F_engstrom">
	<path style="fill-rule:evenodd;clip-rule:evenodd;" d="M78.806,52.281c-13.98,0.115-29.796,0.27-44.285,0.05
		c-0.018-0.589,0.524-0.987,0.85-1.399c0.982-1.243,2.096-2.537,3.149-3.749c2.702-3.463,5.691-6.638,8.297-10.197
		c1.034-1.228,2.003-2.446,3.099-3.799c0.296-0.366,0.953-0.885,0.95-1.349c-0.003-0.57-1.094-1.477-1.599-1.899
		c-1.876-1.57-4.186-2.798-7.098-3.249c-4.424-0.685-8.141,1.078-10.546,2.949c-2.704,2.326-5.082,5.551-5.248,10.346
		c-0.168,4.864,1.888,8.506,4.598,10.896c1.867,1.646,4.167,2.866,6.898,3.449c3.009,0.642,6.487,0.059,9.847,0.2
		c3.195,0.134,6.805,0,10.146,0c5.992,0,12.037-0.107,17.944,0c0.73,0.013,1.584-0.265,2.25,0.2
		c-0.148,0.911-0.596,1.744-0.95,2.549c-2.458,5.589-6.115,10.206-10.446,13.995c-4.525,3.755-9.577,6.78-15.995,8.447
		c-3.273,0.85-7.051,1.479-10.796,1.35c-11.603-0.401-19.791-4.373-26.391-10.247c-2.175-1.937-4.168-4.032-5.848-6.348
		c-1.721-2.373-3.073-5.053-4.298-7.898c-2.365-5.488-4.021-12.953-3.049-20.792c0.661-5.329,2.186-9.905,4.348-13.945
		c0.744-1.39,1.315-2.803,2.149-3.949C11.899,10.867,18.456,5.22,27.624,2.098c3.145-1.071,6.531-1.869,10.346-2.049
		c8.196-0.387,14.551,1.569,20.043,4.148c2.716,1.275,5.148,2.923,7.348,4.748c2.198,1.824,4.309,3.822,6.098,5.998
		c3.503,4.259,6.618,9.726,8.047,16.144c1.097,4.927,1.525,11.034,0.6,16.444c-0.147,0.858-0.353,1.687-0.55,2.499
		C79.366,50.811,79.262,51.643,78.806,52.281z"/>
</g>
<g id="Layer_1">
</g>
</svg>
