<?xml version="1.0" encoding="iso-8859-1"?>
<!-- Generator: Adobe Illustrator 21.0.2, SVG Export Plug-In . SVG Version: 6.00 Build 0)  -->
<svg version="1.1" xmlns="http://www.w3.org/2000/svg" xmlns:xlink="http://www.w3.org/1999/xlink" x="0px" y="0px"
	 viewBox="0 0 9.956 10.292" style="enable-background:new 0 0 9.956 10.292;" xml:space="preserve">
<g id="Owl">
	<path d="M0,10.291c1.482-3.427,2.951-6.86,4.433-10.287C4.566,0.202,4.698,0.4,4.829,0.598c1.4,0.004,2.799,0.022,4.199,0.029
		C9.343,0.428,9.644,0.205,9.956,0C8.821,2.646,7.7,5.298,6.569,7.945C6.522,8.014,6.57,8.09,6.588,8.161
		c0.181,0.567,0.368,1.133,0.546,1.701c0.115-0.004,0.23-0.003,0.346-0.004c0.001,0.144,0.002,0.289-0.001,0.433
		c-1.3-0.002-2.601,0-3.901-0.001c0.001-0.144,0.001-0.288,0.003-0.432c0.055,0,0.11,0.002,0.166,0.002
		C3.657,9.6,3.579,9.335,3.49,9.074c-0.171,0.408-0.353,0.811-0.529,1.217c-0.272-0.003-0.544,0-0.816,0
		c0.654-1.501,1.294-3.007,1.943-4.51C4.008,5.784,3.927,5.784,3.847,5.781c-0.664,1.502-1.314,3.011-1.981,4.511
		c-0.254-0.007-0.509-0.001-0.763-0.001c0.417-0.97,0.834-1.941,1.246-2.913c0.224-0.53,0.443-1.062,0.672-1.59
		c-0.081-0.001-0.162,0-0.243,0C2.14,7.289,1.504,8.791,0.864,10.291C0.576,10.29,0.288,10.289,0,10.291z M4.06,1.495
		c-0.176,0.257-0.245,0.583-0.191,0.89C3.926,2.729,4.14,3.049,4.445,3.223c0.292,0.182,0.665,0.215,0.989,0.106
		C5.67,3.25,5.871,3.087,6.022,2.893C6.14,2.73,6.204,2.538,6.25,2.345c0.048,0.079,0.045,0.177,0.084,0.261
		c0.135,0.377,0.47,0.67,0.86,0.757C7.526,3.437,7.889,3.363,8.16,3.157c0.465-0.327,0.628-1,0.375-1.506
		C8.349,1.262,7.944,0.978,7.509,0.969c-0.24-0.013-0.484,0.045-0.689,0.173C6.51,1.322,6.317,1.656,6.258,2.005
		c-0.016-0.035-0.029-0.072-0.04-0.109c-0.066-0.268-0.22-0.519-0.443-0.684C5.539,1.026,5.229,0.939,4.931,0.973
		C4.58,1.001,4.255,1.205,4.06,1.495z M4.985,9.023c0.092,0.278,0.171,0.561,0.264,0.84C5.382,9.857,5.516,9.859,5.65,9.861
		C5.555,9.583,5.465,9.303,5.373,9.024C5.244,9.022,5.114,9.022,4.985,9.023z"/>
	<path d="M4.619,1.092c0.277,0,0.555,0,0.832,0C5.447,1.817,5.448,2.541,5.45,3.265C5.174,3.259,4.898,3.263,4.622,3.264
		C4.616,2.54,4.621,1.816,4.619,1.092z"/>
	<path d="M7.052,1.093c0.276-0.003,0.551-0.001,0.827,0C7.877,1.816,7.882,2.539,7.877,3.262C7.601,3.264,7.326,3.26,7.051,3.265
		C7.054,2.541,7.05,1.817,7.052,1.093z"/>
</g>
<g id="Layer_1">
</g>
</svg>
