<?xml version="1.0" encoding="iso-8859-1"?>
<!-- Generator: Adobe Illustrator 19.2.0, SVG Export Plug-In . SVG Version: 6.00 Build 0)  -->
<svg version="1.1" xmlns="http://www.w3.org/2000/svg" xmlns:xlink="http://www.w3.org/1999/xlink" x="0px" y="0px"
	 viewBox="0 0 148.89 170.027" style="enable-background:new 0 0 148.89 170.027;" xml:space="preserve">
<g id="Palais_x5F_Wittgenstein">
	<path style="fill-rule:evenodd;clip-rule:evenodd;" d="M90.433,93.483c0.267,0.785,0.732,1.485,1.132,2.17
		c1.998,3.418,4.134,6.854,6.135,10.336c0.407,0.708,0.715,1.47,1.133,2.17c5.268,8.83,10.581,17.858,15.903,26.805
		c0.839,1.411,1.675,2.744,2.407,4.2c0.741,1.473,1.284,2.98,1.746,4.814c0.961,3.817,0.542,8.308-0.519,11.514
		c-2.099,6.341-6.646,11.088-12.978,13.309c-3.291,1.153-7.346,1.64-11.42,0.802c-3.503-0.72-6.483-2.294-8.919-4.247
		c-2.471-1.98-4.257-4.444-5.899-7.22c-4.875-8.241-9.909-16.399-14.724-24.775c-0.772-1.343-1.609-2.727-2.454-4.105
		c-1.29-2.107-2.375-4.146-3.586-6.276c-2.722-4.784-5.764-9.746-8.589-14.44c-6.686-11.111-13.073-21.782-19.396-33.223
		c-1.575-2.85-3.114-5.689-4.341-8.824c-1.239-3.163-2.24-6.509-2.832-10.288c-0.635-4.057-0.785-8.432-0.425-12.364
		c1.069-11.673,6.109-20.682,11.986-27.465c5.163-5.958,11.538-10.415,19.49-13.402c3.901-1.465,8.516-2.573,13.543-2.879
		C75.933-0.4,83.392,1.14,89.112,3.49c5.06,2.078,9.381,4.843,13.214,8.164c8.416,7.467,14.966,17.131,16.8,31.288
		c0.229,1.766,0.397,3.77,0.236,5.616c-0.053,0.603,0.047,1.236,0.047,1.84c0,2.451-0.386,4.896-0.802,7.173
		c-1.636,8.957-5.398,15.89-10.146,21.897c-3.498,4.425-7.931,8.221-12.836,11.231c-0.839,0.515-1.707,0.989-2.596,1.415
		C92.159,92.531,91.24,92.907,90.433,93.483z M66.272,43.46c-1.156,1.045-2.235,2.905-2.265,5.002
		c-0.021,1.406,0.359,2.802,0.944,3.775c0.979,1.63,3.09,3.168,5.238,3.398c3.274,0.35,6.065-1.493,7.22-3.917
		c1.182-2.479,0.518-5.627-0.802-7.362c-1.07-1.406-3.192-2.849-5.898-2.689C68.65,41.788,67.311,42.52,66.272,43.46z"/>
	<path style="fill-rule:evenodd;clip-rule:evenodd;" d="M34.654,88.386c3.468,2.746,5.379,6.789,7.645,10.523
		c5.702,9.397,11.195,18.983,16.895,28.456c0.572,0.951,1.039,1.975,1.604,2.926c1.666,2.801,3.524,5.809,5.002,8.636
		c0.533,1.02,1.003,2.018,1.369,3.162c0.357,1.118,0.534,2.335,0.85,3.681c0.619,2.638,0.141,5.9-0.425,8.164
		c-0.625,2.501-1.569,4.502-2.737,6.323c-2.323,3.622-5.652,6.561-9.91,8.259c-2.265,0.903-4.662,1.479-7.55,1.51
		c-2.872,0.03-5.282-0.504-7.692-1.368c-4.316-1.549-7.757-4.382-10.193-7.975c-1.207-1.78-2.276-3.75-3.398-5.663
		c-1.12-1.909-2.312-3.783-3.398-5.663c-1.116-1.93-2.157-3.898-3.304-5.804c-3.372-5.603-6.726-11.479-10.099-17.083
		c-1.095-1.819-2.244-3.753-3.398-5.71c-2.262-3.841-4.795-7.206-5.663-12.459c-0.43-2.605-0.292-5.683,0.283-8.211
		c1.091-4.801,3.519-8.592,6.748-11.42c3.176-2.783,7.462-4.933,12.931-5.191C26.774,83.167,30.918,85.719,34.654,88.386z"/>
	<path style="fill-rule:evenodd;clip-rule:evenodd;" d="M111.669,83.619c3.371-0.16,7.047-0.047,10.382-0.047
		c3.47,0,6.856,0.047,10.146,0.047c1.859,0,3.395,0.005,4.813,0.33c5.278,1.211,9.205,4.833,10.948,9.628
		c0.45,1.237,0.767,2.374,0.896,4.246c0.233,3.367-0.733,6.163-1.746,8.447c-2.045,4.614-4.241,9.178-6.796,13.78
		c-0.626,1.128-1.17,2.262-1.793,3.351c-0.623,1.087-1.156,2.242-1.841,3.303c-2.487,3.853-7.732,6.811-14.298,5.993
		c-2.907-0.361-5.275-1.458-7.315-2.973c-1.908-1.417-3.336-3.375-4.813-5.474c-3.598-5.111-6.866-10.173-10.005-15.715
		c-0.617-1.09-1.327-2.197-1.793-3.35c-0.223-0.551-0.374-1.175-0.566-1.794c-0.519-1.666-0.814-4.042-0.614-6.087
		c0.541-5.512,3.259-9.249,7.126-11.561C106.157,84.694,108.915,83.751,111.669,83.619z"/>
</g>
<g id="Layer_1">
</g>
</svg>
