<?xml version="1.0" encoding="iso-8859-1"?>
<!-- Generator: Adobe Illustrator 19.2.0, SVG Export Plug-In . SVG Version: 6.00 Build 0)  -->
<svg version="1.1" xmlns="http://www.w3.org/2000/svg" xmlns:xlink="http://www.w3.org/1999/xlink" x="0px" y="0px"
	 viewBox="0 0 185.147 85.56" style="enable-background:new 0 0 185.147 85.56;" xml:space="preserve">
<g id="Palm_x5F_Jumeirah">
	<path style="fill-rule:evenodd;clip-rule:evenodd;" d="M181.787,49.316c-0.014,9.103-13.204,8.031-19.199,5.04
		c6.998,6.644,14.847,14.772,20.398,24.118c0.686,1.154,2.108,3.127,2.16,4.199c0.038,0.771-0.76,3.029-1.8,2.88
		c-0.365-0.052-1.188-2.041-1.44-2.64c-5.918-14.067-16.725-24.358-28.198-32.638c-12.593-9.086-27.085-15.923-45.117-19.678
		c-18.435-3.839-39.405,0.74-58.436,2.28C28.996,34.589,10.984,30.058,0,19.439c4.717,2.523,9.405,5.425,15.119,7.08
		c6,1.737,13.173,1.655,20.279,1.08c13.764-1.114,27.53-2.814,41.517-2.879c30.061-0.143,52.429,7.669,70.675,19.198
		c-5.577-8.07-13.659-20.338-10.679-35.157c0.693-3.444,1.714-5.983,3.48-8.759c0.12,0,0.24,0,0.36,0
		c-5.345,11.716,0.307,26.517,5.76,34.557c3.035,4.477,6.553,8.471,10.679,11.76c4.1,3.268,9.147,6.693,14.159,8.279
		C176.11,56.103,181.22,54.656,181.787,49.316z"/>
	<path style="fill-rule:evenodd;clip-rule:evenodd;" d="M2.16,29.758c-0.022-0.102,0.047-0.113,0.12-0.12
		c10.523,6.046,26.238,8.736,43.317,7.44c7.607-0.578,15.045-2.099,22.678-3c19.082-2.253,42.065-3.378,57.476,3.6
		c-9.794-2.616-21.671-2.716-32.877-1.44c-10.359,1.18-21.406,3.615-31.678,4.56c-16.814,1.546-33.932,1.208-47.157-4.32
		C9.694,34.661,5.378,32.398,2.16,29.758z"/>
	<path style="fill-rule:evenodd;clip-rule:evenodd;" d="M140.03,45.237c-6.57-2.061-13.516-4.151-21.479-4.2
		c-9.228-0.056-17.627,2.176-25.798,3.96c-8.066,1.761-15.975,4.201-24.478,5.159c-15.889,1.79-31.768-0.799-44.757-5.159
		c-1.692-0.568-3.636-0.922-4.92-2.16c6.723,1.862,13.913,3.516,21.478,3.599c23.455,0.26,43.584-6.878,65.755-8.039
		C119.194,37.697,130.706,40.468,140.03,45.237z"/>
	<path style="fill-rule:evenodd;clip-rule:evenodd;" d="M155.148,54.236c-11.24-4.227-30.745-7.505-45.476-3.359
		c-2.851,0.802-5.997,1.536-4.56,5.279c1.711,4.458,7.037,6.323,11.279,8.279c-1.645-0.176-3.434-1.011-5.16-1.8
		c-3.37-1.541-7.445-4.236-8.159-8.399c-1.255-7.318,5.303-10.68,12.359-10.679C130.172,43.558,145.536,48.608,155.148,54.236z"/>
	<path style="fill-rule:evenodd;clip-rule:evenodd;" d="M173.627,74.754c-6.957-4.668-14.194-10.389-22.438-14.159
		c-8.627-3.945-21.931-3.907-29.518,0.96c5.365-3.739,11.622-6.116,19.919-6.72C158.189,53.628,168.592,63.606,173.627,74.754z"/>
</g>
<g id="Layer_1">
</g>
</svg>
