<?xml version="1.0" encoding="iso-8859-1"?>
<!-- Generator: Adobe Illustrator 21.0.2, SVG Export Plug-In . SVG Version: 6.00 Build 0)  -->
<svg version="1.1" xmlns="http://www.w3.org/2000/svg" xmlns:xlink="http://www.w3.org/1999/xlink" x="0px" y="0px"
	 viewBox="0 0 24.729 26.97" style="enable-background:new 0 0 24.729 26.97;" xml:space="preserve">
<g id="Parc_x5F_Architecture">
	<path d="M9.144,0.066c3.172-0.006,6.344-0.015,9.516-0.026c0.409-0.053,0.821,0.036,1.23-0.021C21.479,0.004,23.069,0.004,24.658,0
		c0.03,1.146-0.007,2.293,0.019,3.439c-0.007,2.911,0.003,5.821,0.01,8.732c0.022,0.691-0.021,1.383,0.027,2.072
		c-0.036,0.298-0.024,0.597,0.004,0.896c0.011,2.092,0.008,4.184,0.012,6.276c-0.641,0.324-1.312,0.585-1.957,0.901
		c-2.822,1.267-5.634,2.555-8.466,3.801c-0.637,0.283-1.261,0.597-1.909,0.854c-1.518-0.658-3.033-1.324-4.55-1.982
		c-0.542-0.274-1.12-0.468-1.667-0.731c-2.03-0.882-4.057-1.769-6.086-2.653c-0.072-2.247-0.018-4.498-0.051-6.746
		c0.01-2.052-0.014-4.104-0.01-6.156C0.043,8.365,0.003,8.03,0.005,7.694C0.016,5.175-0.01,2.657,0.005,0.139
		C0.382,0.1,0.761,0.128,1.139,0.12c2.425-0.016,4.852-0.003,7.277-0.038C8.658,0.114,8.901,0.063,9.144,0.066z M13.397,1.109
		c-1.847,0.006-3.694,0.01-5.541,0.017C6.961,1.144,6.064,1.104,5.17,1.16C3.786,1.159,2.401,1.169,1.017,1.173
		c-0.03,1.875,0.012,3.751-0.005,5.626c0.029,0.559,0.049,1.12,0.006,1.679c0.057,0.906,0.007,1.814,0.032,2.722
		c-0.001,2.377,0.021,4.753,0.016,7.13c0.003,0.865-0.015,1.73,0.036,2.593c0.666,0.247,1.296,0.581,1.965,0.819
		c0.041-1.043-0.004-2.089,0.009-3.133c0.003-3.079-0.023-6.157-0.018-9.236c0-0.261-0.041-0.52-0.03-0.781
		c-0.003-1.687-0.006-3.373,0.001-5.06C4.507,3.51,5.986,3.523,7.464,3.51c1.006-0.051,2.015-0.022,3.023-0.034
		c3.023-0.006,6.045-0.018,9.068-0.024c0.694-0.045,1.391-0.03,2.087-0.025c0.015,3.717,0.014,7.434,0.03,11.151
		c0.041,0.484,0.02,0.97,0.026,1.455c0.008,1.064-0.003,2.128,0.008,3.193c-0.003,0.09,0.009,0.182-0.017,0.27
		c-0.185,0.129-0.401,0.202-0.605,0.293c-0.849,0.362-1.667,0.803-2.545,1.091c-0.956,0.433-1.921,0.845-2.878,1.275
		c-1.097,0.474-2.176,0.987-3.274,1.456c-1.411-0.573-2.817-1.161-4.232-1.724c-0.637-0.295-1.295-0.537-1.942-0.807
		c-0.128-0.03-0.101-0.186-0.109-0.285c-0.01-3.08-0.014-6.161-0.022-9.24c0.011-0.337-0.045-0.671-0.03-1.008
		C6.064,9.326,6.025,8.102,6.059,6.88c1.383-0.002,2.765-0.012,4.148-0.014c0.465-0.042,0.933-0.02,1.4-0.027
		c2.338-0.004,4.677-0.019,7.015-0.012c0.008,2.901,0.02,5.802,0.022,8.704c0.036,0.634,0.036,1.27,0.027,1.905
		c0.005,0.077-0.054,0.139-0.123,0.162c-1.994,0.854-3.989,1.709-5.973,2.588c-0.097,0.036-0.204,0.111-0.307,0.046
		c-1.028-0.469-2.077-0.891-3.103-1.364c-0.017-0.123-0.039-0.245-0.039-0.368c0.008-2.88-0.022-5.761-0.013-8.641
		c1.278-0.01,2.557-0.015,3.835-0.01c0.573,0.023,1.148,0.169,1.647,0.456c0.621,0.382,1.086,1.025,1.197,1.753
		c0.135,0.885,0.004,1.855-0.538,2.589c-0.501,0.69-1.35,1.084-2.194,1.092c-0.372,0.006-0.743,0-1.114,0.007
		c-0.601,0.054-1.204,0.003-1.805,0.04c0.004,0.793-0.011,1.587,0.006,2.381c0.683,0.336,1.387,0.627,2.077,0.947
		c0.157,0.096,0.323-0.016,0.471-0.075c1.633-0.752,3.294-1.441,4.932-2.182c-0.011-3.003-0.011-6.005-0.022-9.007
		c-0.47,0.002-0.941-0.016-1.411,0.025c-2.926,0.008-5.853,0.013-8.779,0.027C7.307,7.899,7.2,7.923,7.096,7.951
		c0.015,2.19,0.009,4.381,0.022,6.571c0.071,0.522-0.032,1.046,0.027,1.567c0.007,1.43-0.005,2.861,0.008,4.292
		c0.285,0.128,0.574,0.243,0.858,0.373c0.211,0.097,0.446,0.125,0.66,0.217c1.081,0.43,2.151,0.888,3.232,1.319
		c0.202,0.075,0.423,0.244,0.64,0.118c1.156-0.52,2.31-1.049,3.476-1.548c0.44-0.12,0.845-0.333,1.262-0.512
		c1.127-0.488,2.236-1.017,3.364-1.501c0.036-1.907-0.012-3.816,0.004-5.723c-0.019-2.879-0.011-5.759-0.018-8.638
		c-1.65-0.013-3.299,0.006-4.949,0.008c-0.518,0.038-1.038,0.021-1.558,0.027c-2.761,0.003-5.523,0.017-8.284,0.024
		C5.58,4.546,5.318,4.534,5.057,4.568C4.719,4.587,4.38,4.566,4.041,4.579c-0.023,1.523,0.002,3.047-0.005,4.57
		c-0.004,0.205,0.039,0.41,0.018,0.615c-0.059,0.672,0.026,1.343,0.012,2.015c0.016,3.469,0.013,6.938,0.028,10.406
		c0.109,0.114,0.27,0.149,0.409,0.215c0.732,0.312,1.463,0.629,2.188,0.956c0.486,0.19,0.963,0.404,1.434,0.629
		c1.386,0.589,2.767,1.19,4.144,1.801c0.093,0.052,0.201,0.027,0.293-0.015c2.433-1.114,4.88-2.196,7.321-3.294
		c0.48-0.223,0.958-0.449,1.448-0.649c0.78-0.364,1.569-0.707,2.35-1.068c0.073-0.378,0.01-0.763,0.001-1.144
		c-0.001-5.393-0.033-10.785-0.024-16.177C23.619,2.88,23.617,2.32,23.63,1.76c0.029-0.235,0.039-0.474-0.004-0.708
		c-2.602,0.012-5.205,0.018-7.807,0.024C15.012,1.125,14.204,1.101,13.397,1.109z M10.142,10.903
		c-0.025,0.198-0.017,0.398-0.014,0.597c0.006,0.84,0.012,1.679,0.003,2.519c0.005,0.235-0.01,0.47,0.02,0.704
		c0.916,0.003,1.832-0.002,2.747-0.007c0.595-0.004,1.243-0.223,1.57-0.752c0.297-0.42,0.339-0.948,0.321-1.446
		c0.024-0.508-0.232-1.032-0.678-1.289c-0.661-0.424-1.479-0.358-2.228-0.355C11.304,10.924,10.723,10.898,10.142,10.903z"/>
</g>
<g id="Layer_1">
</g>
</svg>
