<?xml version="1.0" encoding="iso-8859-1"?>
<!-- Generator: Adobe Illustrator 21.0.2, SVG Export Plug-In . SVG Version: 6.00 Build 0)  -->
<svg version="1.1" xmlns="http://www.w3.org/2000/svg" xmlns:xlink="http://www.w3.org/1999/xlink" x="0px" y="0px"
	 viewBox="0 0 21.106 27.318" style="enable-background:new 0 0 21.106 27.318;" xml:space="preserve">
<g id="Parser">
	<path d="M11.961,0c0.006,0.034,0.018,0.102,0.025,0.137c1.976-0.042,3.965,0.573,5.551,1.758c0.746,0.591,1.445,1.259,1.968,2.059
		c1.024,1.455,1.583,3.226,1.592,5.004c-0.003,0.841,0.052,1.69-0.083,2.524c-0.101,0.461-0.17,0.931-0.339,1.374
		c-0.34,1.068-0.886,2.074-1.61,2.93c-0.695,0.804-1.506,1.518-2.445,2.025c-1.124,0.635-2.395,1.009-3.683,1.091
		c-0.572,0.055-1.149,0.016-1.723,0.03c-1.053,0.002-2.105,0.013-3.158,0.005c-0.001-1.409-0.011-2.818-0.016-4.227
		c-0.035-0.494-0.049-0.99-0.02-1.484c0.971,0.002,1.943-0.009,2.914-0.007c0.593-0.019,1.188,0.03,1.778-0.045
		c0.948-0.107,1.816-0.685,2.304-1.5c0.368-0.575,0.488-1.272,0.469-1.945c-0.005-0.604,0.007-1.233-0.238-1.798
		c-0.419-1.14-1.544-2.006-2.766-2.054c-0.421-0.051-0.845-0.015-1.268-0.027c-0.337-0.015-0.671,0.041-1.008,0.03
		C9.45,5.867,8.693,5.903,7.938,5.866C7.929,4.279,7.934,2.694,7.923,1.107C7.897,0.797,7.88,0.483,7.924,0.174
		c1.346-0.043,2.694-0.03,4.041-0.038C11.964,0.102,11.962,0.034,11.961,0z"/>
	<path d="M0.021,0.218C0.243,0.186,0.467,0.201,0.691,0.2c1.706-0.015,3.412-0.023,5.118-0.014c0.008,1.901,0.022,3.802,0.016,5.703
		C3.896,5.898,1.969,5.908,0.041,5.904C0.024,4.622,0.043,3.341,0.033,2.059C-0.006,1.447-0.011,0.83,0.021,0.218z"/>
	<path d="M0.12,13.272c0.73-0.011,1.463,0.024,2.191-0.034c1.2,0.004,2.401-0.007,3.601,0.003c0.022,1.067,0.022,2.136,0.026,3.204
		c0.059,0.894,0.014,1.791,0.031,2.687c0.014,0.28-0.054,0.559-0.023,0.839c0.046,0.355-0.029,0.71-0.013,1.067
		c0.008,0.756-0.137,1.502-0.3,2.238c-0.146,0.565-0.33,1.126-0.626,1.631c-0.53,0.853-1.31,1.558-2.242,1.945
		c-0.808,0.33-1.689,0.478-2.56,0.466c-0.058-0.581-0.027-1.165-0.035-1.748c-0.004-0.598-0.01-1.196-0.004-1.793
		c-0.013-0.083,0.077-0.129,0.147-0.126c0.474-0.044,0.965-0.217,1.272-0.597c0.235-0.33,0.405-0.713,0.444-1.119
		c0.132-0.976,0.073-1.965,0.085-2.947c-0.65-0.003-1.3,0.002-1.95-0.001c-0.012-0.922-0.004-1.843-0.013-2.765
		c-0.012-0.541,0.017-1.083-0.035-1.623C0.13,14.156,0.087,13.713,0.12,13.272z"/>
</g>
<g id="Layer_1">
</g>
</svg>
