<?xml version="1.0" encoding="iso-8859-1"?>
<!-- Generator: Adobe Illustrator 21.0.2, SVG Export Plug-In . SVG Version: 6.00 Build 0)  -->
<svg version="1.1" xmlns="http://www.w3.org/2000/svg" xmlns:xlink="http://www.w3.org/1999/xlink" x="0px" y="0px"
	 viewBox="0 0 20.955 20.883" style="enable-background:new 0 0 20.955 20.883;" xml:space="preserve">
<g id="Partido_x5F_Andalucista">
	<path d="M10.597,0c1.631,1.599,3.218,3.245,4.844,4.851c-3.496,3.505-7.037,6.964-10.538,10.464
		C3.282,13.678,1.621,12.082,0,10.446C3.528,6.96,7.101,3.52,10.597,0z"/>
	<path d="M12.375,9.342c1.245-1.284,2.543-2.513,3.812-3.773c0.011,1.258-0.004,2.517-0.011,3.776
		C14.909,9.351,13.642,9.355,12.375,9.342z"/>
	<path d="M17.226,6.655c1.262,1.245,2.489,2.526,3.729,3.795c-1.259,1.264-2.495,2.551-3.763,3.806
		C17.192,11.722,17.231,9.19,17.226,6.655z"/>
	<path d="M11.236,10.465c1.641-0.006,3.282-0.002,4.923-0.005c-0.009,1.521-0.011,3.042-0.022,4.562
		c-0.008,0.162,0.012,0.357-0.141,0.462c-1.844,1.778-3.65,3.594-5.47,5.398c-1.614-1.642-3.265-3.246-4.904-4.863
		C7.502,14.176,9.367,12.319,11.236,10.465z"/>
</g>
<g id="Layer_1">
</g>
</svg>
