<?xml version="1.0" encoding="iso-8859-1"?>
<!-- Generator: Adobe Illustrator 19.2.0, SVG Export Plug-In . SVG Version: 6.00 Build 0)  -->
<svg version="1.1" xmlns="http://www.w3.org/2000/svg" xmlns:xlink="http://www.w3.org/1999/xlink" x="0px" y="0px"
	 viewBox="0 0 73.741 45.994" style="enable-background:new 0 0 73.741 45.994;" xml:space="preserve">
<g id="Paseo_x5F_US">
	<path style="fill-rule:evenodd;clip-rule:evenodd;" d="M36.763,16.14c0.451-0.668,0.521-1.58,0.767-2.453
		c1.586-5.625,5.24-9.636,10.326-11.91c2.686-1.202,6.967-2.038,10.836-1.176c2.504,0.558,4.808,1.432,6.799,2.76
		c0.512,0.341,1.695,0.977,1.738,1.432c0.043,0.451-0.596,0.773-0.869,1.022c-0.398,0.362-0.582,0.69-0.92,0.971
		c-6.895,6.928-14.315,14.008-21.418,21.112c-1.723,1.724-3.519,3.417-5.367,5.265c-0.432,0.431-1.445,1.662-1.84,1.688
		c-0.35,0.022-0.885-0.572-1.125-0.818c-0.367-0.373-0.58-0.697-0.92-0.972C26.108,24.318,17.095,15.231,8.239,6.377
		C7.802,5.94,6.534,4.987,6.554,4.537c0.018-0.465,1.5-1.359,2.043-1.687c2.32-1.397,5.24-2.602,8.537-2.812
		c2.967-0.189,5.723,0.337,7.771,1.176c2.168,0.888,4.029,2.02,5.52,3.425C33.727,7.283,35.7,11.257,36.763,16.14z M31.345,17.368
		c-0.145-1.303-0.441-2.609-0.869-3.681c-0.826-2.074-2.184-4.011-3.731-5.368c-1.967-1.724-5.088-3.002-8.436-3.016
		c-0.941-0.004-2.115,0.138-2.76,0.562c0.365,0.866,1.215,1.361,1.84,1.993c1.924,1.945,3.852,3.872,5.674,5.879
		c1.207,1.328,2.688,2.414,3.885,3.783c0.914,1.045,1.844,2.046,2.812,2.965c0.316,0.301,0.627,0.763,1.125,0.817
		C31.485,20.089,31.487,18.639,31.345,17.368z M54.808,5.61c-5.086,0.321-8.357,2.512-10.529,5.981
		c-1.131,1.805-2.104,4.262-1.994,7.207c0.037,0.963,0.055,2.034,0.563,2.557c0.834-0.354,1.375-1.119,1.994-1.738
		c3.215-3.217,6.521-6.319,9.713-9.509c0.969-0.969,1.881-2.021,2.861-2.913c0.324-0.294,0.854-0.534,0.869-1.073
		C57.47,5.527,56.044,5.532,54.808,5.61z M36.712,20.997c-0.213,0.575-0.311,1.512-0.613,2.557c-0.25,0.867-0.83,1.792-0.715,2.402
		c0.115,0.613,0.93,0.965,1.432,1.328c0.512-0.391,1.393-0.755,1.482-1.431c0.084-0.647-0.525-1.588-0.768-2.402
		c-0.279-0.941-0.389-1.812-0.613-2.557c-0.051,0.001-0.061-0.041-0.102-0.051C36.743,20.857,36.757,20.956,36.712,20.997z"/>
	<path style="fill-rule:evenodd;clip-rule:evenodd;" d="M38.962,36.537c3.07-3.051,6.273-6.173,9.406-9.304
		c1.84-1.84,3.852-3.596,5.725-5.47c4.275-4.274,8.795-8.592,13.189-12.983c0.473-0.475,1.451-1.787,1.941-1.789
		c0.578-0.003,1.437,1.523,1.789,2.096c1.484,2.419,2.555,5.383,2.709,8.894c0.229,5.157-1.592,8.766-3.68,11.654
		c-2.096,3.186-5.149,5.142-9.049,6.441c-3.517,1.173-8.191,1.021-11.603-0.205c-0.469-0.168-1.045-0.494-1.432-0.46
		c-0.484,0.044-1.123,0.816-1.533,1.227c-2.748,2.746-5.283,5.454-8.18,8.128c-0.379,0.35-1.148,1.218-1.482,1.226
		c-0.701,0.017-0.896-0.983-1.48-1.226c-2.098-2.406-4.703-4.71-7.107-7.107c-0.322-0.321-0.686-0.802-1.072-1.277
		c-0.332-0.408-0.877-1.034-1.277-1.073c-0.393-0.039-1.147,0.293-1.535,0.408c-1.447,0.433-2.951,0.913-4.805,0.972
		c-2.635,0.083-4.773-0.176-6.799-0.869c-3.859-1.321-6.721-3.45-8.996-6.39c-2.24-2.896-3.822-6.599-3.682-11.706
		c0.137-4.857,1.936-8.176,4.295-11.093c0.678-0.278,1.68,1.118,2.352,1.789c4.697,4.696,9.365,9.315,14.057,14.007
		c4.725,4.724,9.238,9.289,14.008,14.058c0.531,0.53,1.531,1.874,2.096,1.892C37.643,38.402,38.378,36.812,38.962,36.537z
		 M5.684,15.629c-0.252,0.606-0.324,1.561-0.359,2.146c-0.117,2.022,0.326,4.187,1.074,5.777c2.182,4.639,6.416,7.913,12.779,7.872
		c0.812-0.006,1.529-0.136,2.147-0.461c-0.324-0.864-1.111-1.471-1.738-2.096c-1.951-1.952-3.906-3.784-5.826-5.776
		c-1.838-1.906-3.941-3.78-5.828-5.776c-0.57-0.604-1.449-1.72-2.096-1.84C5.763,15.504,5.712,15.556,5.684,15.629z M65.901,17.623
		c-1.893,1.765-3.664,3.512-5.418,5.266c-2.467,2.464-4.984,4.695-7.158,7.055c-0.248,0.398-0.826,0.468-0.816,1.124
		c0.502,0.315,1.055,0.416,1.635,0.46c4.824,0.366,8.279-1.311,10.684-3.834c2.014-2.112,3.592-5.07,3.682-8.435
		c0.029-1.17-0.137-2.482-0.512-3.373c-0.035,0-0.068,0-0.101,0C67.239,16.045,66.556,17.013,65.901,17.623z"/>
</g>
<g id="Layer_1">
</g>
</svg>
