<?xml version="1.0" encoding="iso-8859-1"?>
<!-- Generator: Adobe Illustrator 19.2.0, SVG Export Plug-In . SVG Version: 6.00 Build 0)  -->
<svg version="1.1" xmlns="http://www.w3.org/2000/svg" xmlns:xlink="http://www.w3.org/1999/xlink" x="0px" y="0px"
	 viewBox="0 0 148.562 131.063" style="enable-background:new 0 0 148.562 131.063;" xml:space="preserve">
<g id="Paslode_x5F_Tool_x5F_Company">
	<path style="fill-rule:evenodd;clip-rule:evenodd;" d="M57.194,32.741c-8.116-10.789-16.562-21.247-24.58-32.135
		c0.418-0.954,1.515-0.36,2.158-0.359C39.291,0.253,45.1,0.15,50.12,0.127c0.458,0.501,0.757,1.162,1.559,1.319
		c4.213,4.779,8.811,9.175,13.43,13.549c1.795,2.121,3.645,4.188,5.875,5.875c3.635,4.279,8.057,7.771,11.751,11.99
		c2.575,0.038,4.994,0.082,7.434-0.119c-1.983-2.813-3.83-5.763-6.354-8.034c-3.201-4.593-6.521-9.067-10.072-13.309
		c-1.175-2.183-3.058-3.657-4.196-5.876c-1.021-0.778-1.457-2.141-2.519-2.878c-0.057-1.128-1.589-1.195-1.079-2.517
		c5.369,0.232,11.519-0.122,17.146,0.12c5.042,4.67,9.573,9.851,14.748,14.389c2.527,3.387,5.924,5.906,8.633,9.112
		c7.745,7.084,14.895,14.762,22.183,22.302c0.849,0.829,1.667,1.289,2.278,1.919c1.439,1.485,1.307,4.552,1.318,7.434
		c0.015,3.483-0.218,7.046-0.359,10.313c-2.903,0.226-5.061-0.168-7.674,0.119c4.973,5.659,10.355,10.907,15.827,16.067
		c0.41,5.344,0.087,10.662,0.12,16.547c-2.062-0.023-4.761,0.171-7.194-0.12c0.266,1.977,2.77,2.743,3.598,4.557
		c1.412,0.652,2.092,2.072,3.117,3.117c2.889,2.943,6.031,5.643,8.753,8.753c0.131,2.058-0.408,3.928,0.12,6.115
		c-0.062,0.339-0.29,0.51-0.36,0.84c0.186,3.323,0.372,6.251-0.119,9.353c-4.916-0.249-9.715-0.051-14.149,0
		c-0.318,0.003-1.354-0.013-1.679-0.12c-0.86-0.284-2.828-3.094-3.717-4.196c-1.507-1.87-3.419-4.89-4.916-6.835
		c-0.781-1.016-1.809-2.622-2.638-3.478c-0.93-0.958-1.904-2.24-2.758-3.477c-2.574-3.729-5.819-7.614-8.394-11.151
		c-0.58-0.797-1.505-1.482-2.158-2.278c-0.48-0.585-0.205-0.868-0.72-1.079c-0.771-0.316-1.719,0.117-2.518,0.12
		c-1.433,0.005-3.373-0.482-4.796,0.12c5.079,5.432,10.487,10.535,15.587,15.947c-0.092,5.118-0.13,10.501,0,16.066
		c-5.358,0.436-10.907,0.246-16.187,0.12c-8.229-10.836-16.635-21.495-24.82-32.374c-2.73,0.007-4.504,0.134-6.835-0.12
		c0.572,1.91,2.571,3.422,4.197,4.677c1.339,2.258,3.726,3.469,5.155,5.636c0.031,0.248,0.527,0.032,0.6,0.239
		c1.533,2.719,5.234,4.088,5.516,7.314c-0.636,0.589-0.144,1.797,0,2.397c-0.262-0.021-0.381,0.099-0.359,0.36
		c0.273,4.012,0.237,8.119,0,11.99c-5.393-0.092-11.091,0.079-16.067,0c-5.234-6.836-10.661-13.48-15.707-20.504
		c-2.839-2.931-5.573-7.546-8.273-10.791c-4.889-5.875-9.753-12.351-14.509-18.226c-0.444-1.074-1.1-1.938-2.038-2.518
		c-2.868-4.807-7.023-8.324-9.593-13.43c4.658-0.166,10.553,0.093,15.828-0.12c-4.19-6.602-9.436-12.147-13.789-18.585
		c-1.154-0.924-1.866-2.291-2.758-3.478c-2.235-2.281-3.736-5.296-6.115-7.434c-0.252-1.186-1.481-1.397-1.44-2.878
		c5.479-0.156,11.517-0.174,16.308-0.12c-0.677-1.413-1.668-2.745-2.638-3.956c-2.249-2.807-4.473-5.578-6.595-8.393
		c-0.506-0.671-1.272-1.23-1.799-1.919c-0.54-0.706-0.664-1.782-1.679-2.038C8.629,11.802,4.894,7.783,1.799,3.125
		C1.046,2.279-0.004,1.73,0,0.127c4.17,0.298,8.925-0.19,12.95-0.12c2.274,0.04,4.362-0.009,5.755,1.319
		c0.435,0.414,1.112,1.094,1.679,1.679c0.944,0.975,2.042,1.963,2.518,2.518c2.692,3.136,6.168,6.495,9.233,9.232
		c2.907,3.568,6.501,6.449,9.472,9.952c2.622,1.375,3.88,4.115,6.355,5.636c0.221,1.218,1.573,1.305,1.918,2.398
		C52.338,32.923,54.521,32.966,57.194,32.741z M2.399,1.926c5.106,5.449,11.172,10.84,16.547,16.427
		c1.066,1.108,2.304,2.218,3.477,3.478c0.985,1.057,1.838,2.312,2.758,3.117c0.24,0.209,0.731,0.184,0.96,0.359
		c0.854,0.656,1.743,1.914,2.277,2.638c0.273,0.368,0.875,0.519,1.199,0.84c1.659,1.642,3.086,3.367,4.677,5.036
		c1.159,1.217,2.498,2.242,3.357,3.357c0.709,0.92,2.104,1.727,3.117,2.758c2.126,2.163,4.241,4.379,5.995,6.475
		c0.551,0.658,1.637,1.1,2.158,1.679c0.196,0.218,0.171,0.65,0.359,0.839c0.595,0.594,1.647,0.584,2.519,0.6
		c4.148,0.075,8.805-0.168,12.59-0.12c-3.09-4.064-7.213-7.096-10.432-11.031c-2.808-2.268-4.945-5.206-7.794-7.434
		c0.126-0.526-0.405-0.394-0.359-0.84c-9.693-8.812-18.48-18.529-28.058-27.458c-0.465-1.517-2.258-1.198-3.957-1.198
		c-4.295-0.001-7.33,0.259-11.391,0C2.399,1.606,2.399,1.766,2.399,1.926z M90.527,42.813c-4.693-5.23-10.32-10.525-15.107-15.827
		c-0.758-0.838-1.892-1.305-2.998-2.278c-2.511-2.211-4.673-5.194-7.074-7.554c-2.992-2.94-6.067-5.636-8.873-8.513
		c-2.105-2.16-3.955-4.564-6.115-6.596c-1.029-0.969-5.035-0.621-7.074-0.599c-2.947,0.032-5.256-0.071-8.033,0.359
		c4.521,4.821,9.114,9.087,13.669,14.028c0.232,0.252,0.588,0.605,0.84,0.84c2.403,2.245,5.044,5.395,7.554,7.554
		c0.974,0.838,2.129,1.483,2.997,2.398c6.272,6.607,12.877,12.98,19.185,19.424c1.103,1.127,2.21,3.163,3.598,3.478
		c1.919,0.436,4.12-0.238,6.234-0.24c2.601-0.001,5.2,0.333,7.675,0.12C95.153,46.901,92.907,44.79,90.527,42.813z M68.346,2.045
		c1.321,0.598,1.704,2.133,3.117,2.639c1.601,2.596,4.326,4.066,5.995,6.595c0.14,0.101,0.321,0.158,0.6,0.12
		c0.552,1.127,1.455,1.901,2.518,2.518c4.956,6.147,11.15,10.799,16.067,16.427c2.416,1.78,4.05,4.344,6.475,6.115
		c0.499,1.1,1.519,1.68,2.398,2.397c-0.031,0.352,0.271,0.369,0.24,0.72c3.308,2.487,5.556,6.035,8.872,8.514
		c-0.047,0.887,0.945,0.733,1.079,1.438c4.857-0.23,10.152,0.243,14.27-0.24C114.766,32.963,98.409,17.785,82.974,1.686
		C78.278,1.23,72.586,1.822,68.346,1.447C68.346,1.646,68.346,1.846,68.346,2.045z M10.552,34.659
		c4.785,5.157,10.681,9.886,15.227,15.468c0.306,0.375,0.963,0.396,1.319,0.72c0.77,0.7,1.577,1.929,2.158,2.638
		c0.472,0.576,1.479,1.054,2.038,1.679c1.109,1.238,2.339,2.29,3.478,3.477c0.211,0.219,0.148,0.591,0.359,0.839
		c0.486,0.57,1.497,0.933,2.038,1.559c2.138,2.476,5.084,4.892,6.955,7.435c0.538,0.73,1.455,1.121,2.158,1.798
		c2.172,2.092,4.32,4.599,6.234,6.715c1.493,1.649,3.359,2.942,4.797,4.437c0.292,0.305,0.375,0.762,0.719,0.959
		c0.952,0.546,4.354,0.113,5.636,0.12c3.35,0.017,6.52-0.022,8.873-0.239C56.886,66.102,40.96,50.215,25.061,34.3
		c-4.535-0.189-10.04,0.059-14.509-0.12C10.552,34.34,10.552,34.499,10.552,34.659z M98.801,75.786
		C91.866,68.213,84.45,61.12,77.219,53.844c-0.977-1.662-2.832-2.444-3.718-4.196c-1.091-0.737-2.165-1.65-3.117-2.638
		c-0.926-0.96-1.694-2.124-2.638-3.118c-2.735-2.881-6.292-5.777-8.753-8.513c-0.27-0.3-0.312-0.659-0.6-0.84
		c-1.562-0.983-4.535,0.234-6.235-0.239c-0.12-0.001-0.143,0.097-0.239,0.12c1.272,1.925,3.308,3.087,4.556,5.035
		c0.548,0.093,0.783,0.497,0.96,0.96c2.521,2.215,5.452,5.049,7.913,7.554c2.349,2.389,0.222,6.385,1.199,9.592
		c0.357,1.173,1.937,2.014,2.758,2.878c3.123,3.29,6.328,6.821,9.473,9.952c0.457,0.456,1.049,1.117,1.438,1.439
		c3.988,3.287,6.996,7.333,10.911,10.791c4.746-0.671,9.409,0.275,14.269-0.359C103.258,80.043,101.286,77.658,98.801,75.786z
		 M84.293,34.42c5.026,4.845,9.773,9.97,14.868,14.748c-0.055,2.966-0.042,5.126,0,8.273c8.175,8.371,16.49,16.603,24.58,25.06
		c4.759-0.107,9.846-0.021,14.389,0c-1.392-2.526-4.468-4.404-6.235-6.954c-5.133-4.46-9.362-9.822-14.509-14.269
		c-0.046-0.554-0.459-0.74-0.839-0.96c-1.023-1.215-2.048-2.428-3.357-3.356c-0.647-1.032-1.463-1.896-2.518-2.519
		c-6.213-7.017-13.296-13.163-19.545-20.144C88.982,34.311,86.004,34.099,84.293,34.42z M40.408,74.108
		c0.049-0.289-0.22-0.26-0.12-0.6c-1.662-1.241-3.073-2.727-4.557-4.196c-0.662-0.655-1.218-1.764-2.038-2.278
		c-1.109-0.695-3.944-0.372-5.516-0.359c-2.962,0.023-6.332,0.119-9.473,0.12c0.593,1.325,2.084,1.753,2.638,3.117
		c1.293,0.626,1.805,2.032,3.118,2.638c0.252,1.187,1.704,1.174,1.918,2.398c2.723,1.914,4.483,4.789,7.194,6.715
		c0.616,1.062,1.532,1.824,2.517,2.518c3.968,4.426,8.137,8.65,12.591,12.59c0.003,0.716,0.946,0.492,0.839,1.319
		c3.159,2.517,5.809,5.542,8.513,8.513c0.18,0.021,0.443-0.043,0.481,0.12c0.321,0.678,0.841,1.157,1.559,1.438
		c1.699,2.537,4.362,4.111,6.115,6.595c5.246-0.01,9.007,0.211,14.628-0.119C67.617,100.856,53.949,87.544,40.408,74.108z
		 M100.72,101.566c-3.38-3.215-6.928-6.262-9.952-9.832c-2.207-1.71-4.087-3.746-5.875-5.875c-1.31-0.529-1.599-2.079-2.998-2.518
		c-0.007-0.434-0.299-0.581-0.359-0.96c-2.547-1.53-3.832-4.321-6.355-5.875c-2.722-3.513-6.272-6.198-9.112-9.593
		c-2.195-0.106-4.378-0.328-6.595,0.12c3.058,2.978,5.952,6.118,9.112,8.993c0.693,0.865,1.264,1.855,2.398,2.278
		c-0.074,0.514,0.391,0.488,0.359,0.959c0.278-0.038,0.461,0.02,0.6,0.12c0.561,1.585,2.446,1.744,2.758,3.357
		c0.053,0.274-0.229,0.77-0.239,1.198c-0.06,2.579,0.188,4.569,0.239,6.715c0.316-0.036,0.394,0.166,0.359,0.479c0.2,0,0.4,0,0.6,0
		c-0.137,0.497,0.253,0.468,0.24,0.84c3.058,2.578,5.59,5.681,8.753,8.153c0.017,0.423,0.343,0.536,0.359,0.959
		c1.554,0.885,2.387,2.49,3.837,3.478c1.836,2.041,3.717,4.037,5.876,5.755c0.953,1.765,2.833,2.603,3.837,4.317
		c4.726,0.434,10.019-0.075,14.748,0.239C109.524,110.028,104.593,106.326,100.72,101.566z M137.41,105.283
		c-4.227-3.728-7.871-8.037-12.11-11.751c-3.683-3.951-7.536-7.731-11.391-11.511c-0.744-1.229-2.117-2.185-3.357-3.477
		c-1.942-2.025-3.851-3.916-5.756-5.755c-2.004-1.936-3.769-4.361-5.516-5.756c-0.446-0.356-2.066-0.352-2.758-0.359
		c-1.36-0.015-2.736,0.241-4.196,0.12c4.746,5.325,9.86,10.283,14.988,15.227c0.229,2.182-0.011,4.637,0,6.475
		c0.013,2.278,1.558,2.663,2.638,3.957c0.43,0.516,0.624,0.48,0.959,0.839c0.176,0.188,0.086,0.523,0.24,0.72
		c0.665,0.851,1.952,1.121,2.278,2.278c1.49,0.339,1.88,2.314,3.117,2.518c4.812,5.619,10.337,10.526,15.348,15.947
		c4.544,0.12,9.888,0.152,14.269,0C143.65,111.194,140.124,108.645,137.41,105.283z M65.707,122.669
		C65.883,123.067,66.006,122.201,65.707,122.669L65.707,122.669z"/>
</g>
<g id="Layer_1">
</g>
</svg>
