<?xml version="1.0" encoding="iso-8859-1"?>
<!-- Generator: Adobe Illustrator 19.2.0, SVG Export Plug-In . SVG Version: 6.00 Build 0)  -->
<svg version="1.1" xmlns="http://www.w3.org/2000/svg" xmlns:xlink="http://www.w3.org/1999/xlink" x="0px" y="0px"
	 viewBox="0 0 78.326 78.841" style="enable-background:new 0 0 78.326 78.841;" xml:space="preserve">
<g id="Passpoint_x5F_Auto_x5F_Wash">
	<path style="fill-rule:evenodd;clip-rule:evenodd;" d="M78.015,0.129c0.25,8.344,0.216,17.394,0.052,25.861
		c-8.197,0.264-17.53,0.18-25.914,0.103c-0.27-1.004-0.157-2.08-0.157-3.135c0-7.252-0.042-15.24,0.052-22.779
		C60.307-0.044,69.46-0.056,78.015,0.129z"/>
	<path style="fill-rule:evenodd;clip-rule:evenodd;" d="M25.873,0.233C26.15,4.42,26.03,8.831,26.03,13.19
		c0,4.359,0.138,8.74-0.052,12.904c-4.109,0.277-8.48,0.158-12.852,0.158c-4.35,0-8.753,0.086-12.905-0.105
		c-0.283-1.006-0.157-2.127-0.157-3.188c0-6.52,0-13.316,0-19.645c0-1.043-0.198-2.094,0.104-3.082
		C8.531,0.092,17.509-0.002,25.873,0.233z"/>
	<path style="fill-rule:evenodd;clip-rule:evenodd;" d="M51.944,26.565c0.283,2.09,0.157,4.309,0.157,6.479
		c0,6.367-0.032,12.771,0.104,19.385c1.955,0.26,4.043,0.103,6.165,0.103c6.435,0.002,13.322-0.045,19.697,0.053
		c0.31,0.988,0.209,2.07,0.209,3.135c0.001,7.613,0.14,15.428-0.052,22.832c-6.39,0.324-13.302,0.049-19.54,0.209
		c-2.147,0.055-4.29,0.08-6.374-0.158c-0.283-2.006-0.157-4.234-0.157-6.479c0-6.619-0.03-13.033-0.104-19.436
		c-8.339-0.174-17.417-0.172-25.81,0c-0.286,8.307,0.159,17.457-0.157,26.02c-8.335,0.141-17.351,0.211-25.757,0
		c-0.151-8.615-0.252-17.311-0.053-25.914c0.999-0.281,2.08-0.158,3.135-0.158c7.559,0,15.447,0.025,22.57-0.104
		c0.341-8.605-0.191-17.451,0.157-25.914C34.341,26.405,43.408,26.512,51.944,26.565z"/>
</g>
<g id="Layer_1">
</g>
</svg>
