<?xml version="1.0" encoding="iso-8859-1"?>
<!-- Generator: Adobe Illustrator 19.2.0, SVG Export Plug-In . SVG Version: 6.00 Build 0)  -->
<svg version="1.1" xmlns="http://www.w3.org/2000/svg" xmlns:xlink="http://www.w3.org/1999/xlink" x="0px" y="0px"
	 viewBox="0 0 75.263 75.494" style="enable-background:new 0 0 75.263 75.494;" xml:space="preserve">
<g id="Passagen_x5F_Verlag">
	<path style="fill-rule:evenodd;clip-rule:evenodd;" d="M75.263,37.666c-0.318,0.625-0.871,1.101-1.368,1.564
		c-1.488,1.385-2.864,2.992-4.398,4.398c-1.937,1.973-3.899,3.92-5.913,5.816c-2.891,2.969-5.852,5.852-8.798,8.797
		c-0.97,0.969-1.854,2.078-3.03,2.834c-1.233-1.137-2.355-2.404-3.568-3.617c-2.368-2.367-4.752-4.703-7.184-7.135
		c-0.891-0.891-1.723-1.723-2.688-2.688c-0.288-0.289-0.735-0.777-0.978-0.783c-0.502-0.008-1.492,1.248-1.906,1.662
		c-3.57,3.57-6.998,6.998-10.605,10.605c-0.434,0.434-1.433,1.65-1.857,1.662c-0.365,0.01-1.234-1.088-1.515-1.369
		c-5.346-5.346-10.488-10.537-15.834-15.883c-1.442-1.441-2.8-2.848-4.301-4.35C1.034,38.897,0.001,38.025,0,37.666
		c-0.001-0.344,0.769-0.947,1.075-1.271c2.721-2.865,5.406-5.422,8.259-8.16c2.173-2.486,4.633-4.732,6.989-7.086
		c6.425-6.424,12.864-12.867,19.354-19.355c0.615-0.613,1.238-1.344,1.809-1.758c0.083,0.01,0.126-0.084,0.146,0
		c0.696,0.4,1.856,1.66,2.493,2.297c3.175,3.174,6.249,6.299,9.383,9.432c0.789,0.789,1.464,1.66,2.248,2.443
		c4.682,4.684,9.487,9.34,14.173,14.027C69.069,31.375,72.29,34.41,75.263,37.666z M34.26,19.828
		c-0.475,0.475-1.024,0.975-1.613,1.564c-0.37,0.369-1.517,1.293-1.515,1.709c0.001,0.494,1.166,1.312,1.564,1.711
		c1.235,1.236,2.132,2.084,3.323,3.275c0.257,0.256,1.31,1.566,1.759,1.562c0.296-0.002,0.653-0.506,0.88-0.732
		c1.492-1.492,2.693-2.643,4.154-4.105c0.288-0.287,1.596-1.268,1.564-1.76c-0.024-0.363-1.21-1.355-1.564-1.709
		c-1.168-1.168-2.216-2.168-3.324-3.275c-0.452-0.451-1.235-1.473-1.857-1.516C36.369,17.574,35.518,18.568,34.26,19.828z
		 M22.481,31.606c-1.661,1.533-3.241,3.146-4.79,4.789c-0.282,0.523-1.52,1.029-1.515,1.711c0.003,0.422,0.479,0.631,0.733,0.881
		c1.423,1.4,2.672,2.77,4.105,4.203c0.294,0.293,1.346,1.564,1.759,1.562c0.251,0,0.667-0.471,0.929-0.732
		c1.508-1.508,2.729-2.729,4.154-4.154c0.236-0.236,1.593-1.354,1.564-1.809c-0.014-0.211-0.502-0.615-0.782-0.879
		c-1.514-1.42-2.715-2.715-4.154-4.154c-0.476-0.477-1.24-1.506-1.857-1.564C22.558,31.486,22.509,31.535,22.481,31.606z
		 M52.245,31.508c-0.878,0.658-1.45,1.609-2.199,2.394c-1.34,1.408-2.892,2.623-4.056,4.203c1.397,1.879,3.338,3.211,4.74,5.084
		c0.511,0.244,1.079,1.607,1.759,1.562c0.217-0.014,0.669-0.521,0.88-0.732c1.934-1.934,4.125-3.998,5.768-5.865
		c-0.4-0.678-1.019-1.213-1.564-1.76c-0.554-0.553-1.107-1.107-1.662-1.66c-1.115-1.115-2.197-2.267-3.421-3.275
		C52.372,31.44,52.383,31.549,52.245,31.508z"/>
	<path style="fill-rule:evenodd;clip-rule:evenodd;" d="M46.136,66.893c-0.561,0.84-1.344,1.539-2.053,2.248
		c-2.115,2.115-4.247,4.311-6.5,6.354c-0.489-0.213-0.832-0.637-1.173-0.979c-2.119-2.117-4.173-4.289-6.451-6.451
		c-0.362-0.342-0.965-0.848-0.978-1.123c-0.012-0.274,0.608-0.854,0.929-1.174c1.764-1.764,3.575-3.525,5.278-5.229
		c0.67-0.67,1.448-1.594,2.15-2.053c0.409-0.268,0.986,0.496,1.369,0.879C41.166,61.824,43.895,64.41,46.136,66.893z"/>
</g>
<g id="Layer_1">
</g>
</svg>
