<?xml version="1.0" encoding="iso-8859-1"?>
<!-- Generator: Adobe Illustrator 19.2.0, SVG Export Plug-In . SVG Version: 6.00 Build 0)  -->
<svg version="1.1" xmlns="http://www.w3.org/2000/svg" xmlns:xlink="http://www.w3.org/1999/xlink" x="0px" y="0px"
	 viewBox="0 0 192.561 192.356" style="enable-background:new 0 0 192.561 192.356;" xml:space="preserve">
<g id="Pastore_x5F_DePamphilis_x5F_Rampone">
	<path style="fill-rule:evenodd;clip-rule:evenodd;" d="M95.919,0c0.476,0.115,1.31,1,1.757,1.445
		c1.582,1.584,3.17,3.213,4.752,4.65c5.713,5.647,11.815,11.764,17.664,17.613c0.344,0.342,1.08,0.91,1.086,1.238
		c0.008,0.623-1.31,1.189-1.498,1.705c-6.13,6.209-12.254,12.408-18.44,18.596c-4.105,4.105-8.13,8.283-12.19,12.5
		c-6.035,6.266-12.445,12.223-18.439,18.594c0.266,0.555,0.766,0.975,1.188,1.395c2.95,2.951,5.971,6.023,9.091,8.885
		c1.276-0.826,2.21-2.059,3.306-3.1c3.246-3.08,6.309-6.412,9.504-9.605c4.242-4.242,8.324-8.635,12.603-12.914
		c6.305-6.305,12.636-12.791,19.061-19.215c1.543-1.543,3.154-3.154,4.803-4.805c0.424-0.422,1.326-1.479,1.653-1.498
		c0.387-0.022,1.45,1.193,1.704,1.447c0.527,0.527,1.085,1.109,1.498,1.652c0.95,1.25,2.174,2.174,3.151,3.15
		c3.243,3.244,6.19,6.242,9.401,9.453c2.617,2.619,5.078,5.234,7.799,7.955c0.432,0.432,1.467,1.195,1.498,1.601
		c0.033,0.441-1.006,1.314-1.446,1.756c-3.673,3.672-7.392,7.494-11.002,11.105c-4.217,4.217-8.595,8.453-12.604,12.705
		c-2.042,2.166-4.3,4.146-6.405,6.25c-4.222,4.223-8.318,8.512-12.604,12.707c-1.59,1.559-3.16,3.109-4.751,4.701
		c-0.521,0.52-1.163,0.975-1.498,1.652c0.694,0.994,1.581,1.787,2.428,2.635c2.081,2.082,4.103,4.051,6.302,6.25
		c0.359,0.359,1.027,1.084,1.395,1.084c0.495,0,1.258-1.051,1.704-1.498c1.58-1.58,3.14-3.17,4.753-4.699
		c6.445-6.119,12.865-12.723,19.111-18.75c7.855-7.984,15.653-15.705,23.656-23.709c0.391-0.391,1.301-1.486,1.652-1.498
		c0.418-0.014,1.369,1.213,1.654,1.498c7.344,7.344,14.494,14.443,21.849,21.797c0.267,0.268,1.472,1.199,1.497,1.602
		c0.019,0.283-0.904,1.207-1.395,1.652c-1.58,1.439-3.061,3.061-4.493,4.494c-1.995,1.994-4.14,3.932-6.095,5.889
		c-4.029,4.029-8,8.102-11.932,12.035c-8.06,8.062-16.02,16.07-23.968,24.018c-6.061,6.064-11.933,11.986-17.975,18.027
		c-4.006,4.006-8.032,7.879-12.087,11.932c-4.018,4.018-7.824,7.926-11.932,12.035c-1.317,1.318-2.969,2.969-4.494,4.494
		c-0.412,0.412-1.221,1.424-1.549,1.447c-0.502,0.033-1.201-0.988-1.55-1.344c-1.01-1.029-1.899-2.002-2.841-2.943
		c-0.474-0.475-0.99-0.91-1.344-1.551c1.362-2.977,2.662-5.961,3.977-8.936c1.308-2.961,2.842-5.814,3.978-8.885
		c-0.428-0.064-0.685,0.371-0.93,0.619c-3.502,3.574-7.096,7.098-10.692,10.693c-0.393,0.393-1.232,1.557-1.704,1.549
		c-0.38-0.004-1.029-0.887-1.344-1.188c-0.979-0.936-1.58-1.58-2.531-2.531c-0.284-0.285-1.175-0.891-1.188-1.291
		c-0.012-0.385,1.144-1.248,1.498-1.602c3.604-3.602,7.181-7.078,10.795-10.691c3.58-3.58,7.083-7.135,10.744-10.797
		c0.304-0.303,1.181-1.434,1.602-1.445c0.559-0.016,1.23,1.045,1.602,1.395c0.572,0.541,1.113,1.039,1.498,1.498
		c0.539,0.428,1.007,0.904,1.549,1.445c0.332,0.334,1.358,1.115,1.395,1.602c0.037,0.492-0.735,1.785-0.981,2.273
		c-2.504,4.977-5.071,10.297-7.336,15.238c0.248,0.104,0.521-0.178,0.672-0.311c1.385-1.211,2.641-2.811,4.029-4.08
		c1.615-1.479,3.102-3.104,4.648-4.65c6.186-6.184,12.435-12.33,18.646-18.543c15.445-15.443,31.082-31,46.643-46.332
		c1.157-1.27,2.359-2.463,3.668-3.77c0.279-0.279,1.122-0.982,1.136-1.344c0.021-0.568-1.312-1.518-1.757-1.963
		c-1.246-1.246-2.286-2.584-3.563-3.771c-1.88-1.744-3.774-3.67-5.579-5.475c-1.242-1.242-2.439-2.527-3.77-3.564
		c-1.224,0.869-2.203,2.049-3.254,3.1c-5.244,5.244-10.66,10.494-15.807,15.91c-2.051,2.158-4.299,4.143-6.404,6.25
		c-4.227,4.227-8.523,8.385-12.707,12.654c-2.084,2.127-4.193,4.252-6.353,6.301c-2.164,2.055-4.118,4.318-6.404,6.25
		c-1.008-0.703-1.812-1.637-2.686-2.479c-4.314-4.154-8.639-8.484-12.914-12.758c-0.852-0.854-1.73-1.68-2.582-2.531
		c-0.846-0.846-1.836-1.596-2.479-2.635c2.044-2.133,4.089-4.312,6.302-6.354c1.101-1.016,2.104-2.131,3.202-3.15
		c1.097-1.018,1.999-2.203,3.099-3.203c2.184-1.983,4.218-4.195,6.303-6.354c6.222-6.441,12.561-12.512,19.008-18.955
		c1.067-1.068,2.006-2.23,3.1-3.256c2.672-2.506,5.218-5.217,7.902-7.902c0.441-0.441,1.434-1.307,1.445-1.703
		c0.011-0.35-0.504-0.797-0.773-1.086c-0.9-0.965-1.965-1.797-2.738-2.789c-2.74-2.766-5.549-5.439-8.161-8.367
		c-0.853-0.957-1.751-1.916-2.789-2.686c-0.686,0.34-1.179,0.971-1.704,1.496c-3.667,3.668-7.404,7.445-11.105,11.158
		c-4.225,4.264-8.416,8.561-12.604,12.861C98.001,79.904,89.807,88.687,81.043,96.9c-1.042-0.646-1.834-1.627-2.686-2.48
		c-2.537-2.535-5.133-5.115-7.697-7.695c-2.992-2.809-6.002-5.898-9.039-8.936c-0.361-0.361-1.174-0.943-1.188-1.344
		c-0.016-0.467,1.082-1.287,1.498-1.703c10.023-10.021,20.029-20.301,30.01-30.32c2.125-2.133,4.143-4.352,6.25-6.457
		c3.168-3.166,6.407-6.289,9.453-9.607c1.012-1.104,2.198-2.061,3.047-3.307c-0.402-0.793-1.182-1.277-1.756-1.91
		c-1.711-1.885-3.637-3.65-5.424-5.527c-2.497-2.375-4.848-4.896-7.437-7.18c-1.263,0.805-2.186,2.004-3.254,3.047
		c-4.504,4.398-8.938,9.092-13.43,13.586c-5.544,5.545-11.068,11.107-16.581,16.684c-5.678,5.41-10.988,11.188-16.581,16.684
		c-2.709,2.834-5.492,5.596-8.264,8.367c-2.707,2.838-5.602,5.486-8.213,8.42c0.541,0.785,1.263,1.533,2.014,2.221
		c1.798,1.646,3.547,3.393,5.373,5.217c0.246,0.246,0.966,0.775,0.98,1.086c0.022,0.449-0.756,0.963-1.033,1.238
		c-0.457,0.457-0.722,0.799-1.136,1.137c-0.278,0.277-0.683,0.682-1.137,1.137c-0.353,0.354-0.808,1.051-1.188,1.084
		c-0.583,0.051-0.7-0.691-1.188-0.93c-1.001-1.064-2.097-2.035-3.047-3.15c-1.116-1.096-1.996-1.943-3.151-3.1
		c-0.271-0.269-0.788-0.961-1.085-0.98c-0.395-0.027-0.943,0.682-1.239,0.98c-0.839,0.848-1.304,1.305-2.169,2.17
		c-0.197,0.197-0.983,0.832-0.983,1.188c0,0.365,0.609,0.793,0.93,1.086c1.057,0.961,2.057,2.107,2.996,3.047
		c1.416,1.414,2.705,2.676,3.926,4.133c-0.514,1.002-1.402,1.627-2.066,2.479c-0.242,0.348-0.713,0.672-1.136,1.137
		c-0.229,0.25-0.735,1.059-1.137,1.084c-0.38,0.025-0.814-0.576-1.136-0.93c-0.393-0.432-0.772-0.684-1.085-0.98
		c-1.794-1.697-3.259-3.434-5.165-5.166c-0.312-0.283-0.738-0.93-1.085-0.93c-0.397,0-1.239,1.033-1.601,1.395
		c-1.5,1.502-3.024,2.928-4.339,4.598c0.547,0.844,1.316,1.521,2.015,2.221c2.071,2.072,4.339,4.051,6.302,6.303
		c-0.594,0.859-1.385,1.443-2.221,2.221c-0.32,0.297-0.741,0.713-1.137,1.084c-0.243,0.229-0.899,0.965-1.188,0.98
		c-0.521,0.033-1.503-1.244-1.809-1.549c-0.629-0.629-1.147-1.102-1.756-1.602C6.846,103.639,3.2,100.57,0,97.055
		c0.711-1.232,1.885-2.143,2.892-3.15c1.01-1.01,1.996-2.025,3.047-2.996c2.078-1.916,3.89-4.146,5.889-6.146
		c12.014-12.016,23.951-24.211,36.002-36.26c4.021-4.02,7.963-8.119,11.983-12.139c4.011-4.01,8.003-8.047,11.932-12.139
		C79.604,16.041,87.91,8.293,95.764,0.103C95.802,0.055,95.857,0.025,95.919,0z"/>
	<path style="fill-rule:evenodd;clip-rule:evenodd;" d="M43.232,90.908c0.566,0.092,1.22,0.969,1.705,1.447
		c1.563,1.535,3.116,3.174,4.442,4.803c-1.28,3.004-2.6,5.889-4.028,8.73c-1.42,2.822-2.918,5.629-4.081,8.678
		c0.538-0.104,0.96-0.6,1.343-0.982c1.926-1.926,4.021-3.918,5.992-5.889c0.807-0.807,1.728-1.531,2.428-2.324
		c0.475-0.539,0.967-1.174,1.549-1.756c0.193-0.193,1.41-1.537,1.756-1.549c0.387-0.014,1.08,0.846,1.395,1.135
		c1.324,1.223,2.514,2.473,3.72,3.721c-0.796,1.252-2.078,2.018-2.996,3.15c-3.636,3.525-7.162,7.162-10.743,10.744
		c-2.684,2.682-5.41,5.305-8.109,8.006c-0.892,0.891-1.754,1.84-2.79,2.582c-1.028-0.826-2.013-1.805-2.944-2.789
		c-0.919-0.973-1.863-1.934-2.685-2.996c2.533-6.109,5.465-11.82,7.955-17.975c-0.406-0.029-0.688,0.377-0.93,0.619
		c-1.875,1.875-3.818,3.869-5.734,5.785c-2.199,2.199-4.338,4.484-6.611,6.561c-1.418-0.996-2.481-2.404-3.873-3.668
		c-0.319-0.289-1.162-0.865-1.19-1.291c-0.022-0.371,0.994-1.305,1.395-1.705c5.598-5.598,11.281-11.23,16.84-16.787
		c0.979-0.979,2.02-2.037,2.996-3.1C41.059,92.939,42.201,91.842,43.232,90.908z"/>
	<path style="fill-rule:evenodd;clip-rule:evenodd;" d="M64.772,112.24c0.414,0.1,1.382,1.072,1.859,1.551
		c2.769,2.77,5.692,5.355,8.007,8.521c1.085,1.486,2.262,3.207,2.066,5.787c-0.174,2.287-1.601,3.98-2.996,5.268
		c-1.438,1.328-2.967,2.805-5.269,2.996c-1.746,0.145-2.789-0.635-4.235-1.187c-0.06,0.453,0.356,0.73,0.568,1.033
		c0.706,1,1.169,2.65,0.517,4.131c-0.861,1.955-2.781,3.592-4.442,5.217c-1.661,1.627-3.556,3.145-4.493,5.113
		c-0.199,0.418-0.198,0.902-0.518,1.293c-0.566-0.123-0.936-0.658-1.342-1.086c-0.836-0.877-1.673-1.5-2.531-2.531
		c-0.326-0.389-1.08-0.955-1.137-1.395c-0.058-0.445,0.328-1.115,0.517-1.498c0.235-0.477,0.424-0.984,0.671-1.342
		c0.346-0.5,1.039-0.935,1.602-1.498c1.012-1.012,1.986-2.076,3.048-3.1c0.66-0.637,1.349-1.209,1.652-2.014
		c0.89-2.354-0.881-4.947-2.272-5.992c-1.906,1.443-3.426,3.373-5.217,5.166c-1.258,1.258-2.528,2.527-3.874,3.873
		c-0.308,0.307-1.079,1.176-1.395,1.188c-0.356,0.014-1.079-0.795-1.396-1.084c-0.977-0.895-1.57-1.48-2.53-2.377
		c-0.282-0.262-1.116-0.918-1.136-1.291c-0.023-0.412,0.993-1.252,1.395-1.652c1.503-1.504,3.099-3.15,4.545-4.598
		c6.059-6.057,12.17-12.525,18.182-18.389C64.655,112.297,64.711,112.266,64.772,112.24z M66.219,121.178
		c-1.15,0.836-1.912,1.912-3.203,3.201c-0.49,0.492-0.984,0.986-1.601,1.602c-0.435,0.436-1.581,1.199-1.55,1.705
		c0.028,0.471,1.012,1.025,1.24,1.187c0.998,0.713,2.357,1.533,3.977,1.137c1.186-0.289,2.652-1.527,3.307-2.582
		c0.941-1.52,0.403-3.426-0.414-4.701c-0.354-0.551-0.99-1.457-1.549-1.652C66.363,121.103,66.23,121.168,66.219,121.178z"/>
	<path style="fill-rule:evenodd;clip-rule:evenodd;" d="M75.258,141.941c2.941-2.465,4.994-6.168,9.918-6.508
		c3.399-0.234,5.908,1.467,7.645,3.047c0.629,0.572,1.039,1.305,1.549,2.014c1.028,1.434,1.804,2.979,2.015,5.115
		c0.204,2.059-0.479,4.023-1.395,5.578c-0.822,1.398-2.042,2.559-3.306,3.822c-1.207,1.207-2.428,2.428-3.565,3.564
		c-2.429,2.428-4.655,5.023-7.18,7.023c-1.453,1.152-2.766,1.934-4.855,2.274c-2.145,0.348-4.186-0.195-5.785-1.137
		c-2.754-1.621-5.586-4.314-6.301-7.902c-0.895-4.49,1.964-7.805,4.08-9.865C70.528,146.58,72.719,144.375,75.258,141.941z
		 M83.625,144.111c-3.337,3.078-6.178,5.973-9.4,9.193c-0.594,0.594-1.264,1.16-1.911,1.809c-0.935,0.936-1.897,1.58-1.756,3.201
		c0.144,1.658,1.981,3.602,4.132,2.842c0.699-0.246,1.447-1.033,2.066-1.652c2.029-2.029,3.646-3.596,5.682-5.631
		c1.885-1.885,3.662-3.766,5.578-5.682c0.63-0.629,1.535-1.301,1.756-2.014c0.672-2.164-1.539-4.287-3.563-3.979
		C84.977,142.359,84.453,143.348,83.625,144.111z"/>
</g>
<g id="Layer_1">
</g>
</svg>
