<?xml version="1.0" encoding="iso-8859-1"?>
<!-- Generator: Adobe Illustrator 19.2.0, SVG Export Plug-In . SVG Version: 6.00 Build 0)  -->
<svg version="1.1" xmlns="http://www.w3.org/2000/svg" xmlns:xlink="http://www.w3.org/1999/xlink" x="0px" y="0px"
	 viewBox="0 0 73.807 79.655" style="enable-background:new 0 0 73.807 79.655;" xml:space="preserve">
<g id="Pattloch_x5F_Verlag">
	<path style="fill-rule:evenodd;clip-rule:evenodd;" d="M45.867,63.263c-0.266,1.269-0.148,2.669-0.148,4.031
		c0,4.01,0.089,8.16-0.1,12.195c-5.933,0.219-12.685,0.205-18.864,0.049c-0.344-0.347-0.199-0.919-0.199-1.344
		c0-7.37,0.076-15.123-0.1-22.298c-0.688-0.261-1.649-0.15-2.588-0.15c-0.904,0-1.869-0.078-2.588,0.1
		c-0.328,7.587,0.099,16.1-0.199,23.643c-6.758,0.198-14.113,0.078-20.904-0.1c-0.023-0.044-0.045-0.089-0.1-0.1
		c-0.135-12.831-0.053-26.254-0.051-39.718c0.001-3.359-0.035-6.688,0-10.005c0.087-8.16,0.051-16.126,0.051-24.637
		c0-1.642-0.115-3.276,0.148-4.878c10.318-0.117,20.857-0.011,31.506,0.1c10.188,0.106,17.568,3.754,22.1,9.557
		c0.755,0.965,1.34,2.139,1.941,3.334c1.762,3.503,2.738,7.722,3.285,12.543c1.251,0.538,2.52,0.823,3.683,1.344
		c5.793,2.592,9.688,6.949,10.802,14.335c0.434,2.884,0.334,6.194-0.299,9.158c-1.124,5.256-4.481,9.16-9.01,11.099
		c-2.343,1.003-5.192,1.642-8.411,1.643C52.628,63.163,49.273,63.08,45.867,63.263z M35.316,21.404
		c-2.986-2.688-7.882-3.466-13.787-3.235c-0.059,0.024-0.113,0.053-0.149,0.1c-0.255,0.409-0.149,2.451-0.149,3.334
		c0,4.857-0.111,9.648,0.1,13.837c1.435,0.266,3.739,0.217,5.127-0.05c0.311-3.155-0.027-6.978,0.249-10.352
		c1.962-0.26,4.061-0.1,6.172-0.1c1.486,0,3.087-0.02,4.579-0.149C37.287,23.313,36.293,22.236,35.316,21.404z M53.682,47.833
		c1.172-1.139,1.714-3.708,0.797-5.575c-1.188-2.417-4.649-2.46-8.412-2.389c-0.059,0.024-0.112,0.053-0.149,0.1
		c-0.247,0.272-0.149,1.585-0.149,2.24c0,2.422-0.079,5.064,0.1,7.068C48.809,49.523,52.1,49.372,53.682,47.833z"/>
</g>
<g id="Layer_1">
</g>
</svg>
