<?xml version="1.0" encoding="iso-8859-1"?>
<!-- Generator: Adobe Illustrator 19.2.0, SVG Export Plug-In . SVG Version: 6.00 Build 0)  -->
<svg version="1.1" xmlns="http://www.w3.org/2000/svg" xmlns:xlink="http://www.w3.org/1999/xlink" x="0px" y="0px"
	 viewBox="0 0 130.998 111.856" style="enable-background:new 0 0 130.998 111.856;" xml:space="preserve">
<g id="PBS_x5F_Public_x5F_Broadcasting_x5F_Service">
	<path style="fill-rule:evenodd;clip-rule:evenodd;" d="M73.882,0.144C81.879,18.785,90.141,37.162,98,55.94
		c-3.761,0.211-7.203,0.186-10.439,0.12c-0.706,5.92,0.062,11.162-0.359,17.038c-0.56,7.818-6.682,10.981-15.839,10.439
		c-0.581,8.425-0.159,18.944-0.48,28.198c-14.726,0.044-27.01,0.174-39.717,0c-0.402-10.919,0.173-20.283-0.12-29.398
		c-9.826-2.765-16.421-7.878-22.078-14.759c-5.41-6.58-9.632-16.498-8.88-27.358c0.896-12.916,6.09-21.914,13.439-28.918
		c5.462-5.205,12.361-9.054,21.478-10.559c3.049-0.503,7.073-0.576,10.439-0.6C55.003,0.075,63.869-0.019,73.882,0.144z
		 M56.843,33.862c-3.155,6.439,1.533,14.515,8.52,14.759c5.832,0.204,10.279-4.096,10.8-9.359
		c0.664-6.722-4.879-12.006-11.88-10.919C60.361,28.951,57.812,31.886,56.843,33.862z"/>
	<path style="fill-rule:evenodd;clip-rule:evenodd;" d="M90.081,0.024c5.151,0.282,10.848-0.124,16.438,0
		c8.292,18.585,16.379,37.378,24.479,56.156c-3.528,0.072-7.349-0.149-10.68,0.12c-0.916,8.021,1.459,19.162-3.359,23.878
		c-2.843,2.783-7.058,3.548-12.72,3.48c-0.624,8.796,0.107,20.306-0.479,28.198c-5.379-0.211-10.632,0.025-16.919-0.12
		c-0.012-7.803-0.082-19.852,0.12-28.318c9.116,0.693,15.132-2.614,15.719-10.679c0.355-4.888-0.108-10.826,0.12-16.559
		c2.894-0.392,6.584-0.118,10.56-0.24c-7.695-18.744-15.8-37.076-23.639-55.676C89.809,0.152,89.94,0.083,90.081,0.024z"/>
</g>
<g id="Layer_1">
</g>
</svg>
