<?xml version="1.0" encoding="iso-8859-1"?>
<!-- Generator: Adobe Illustrator 19.2.0, SVG Export Plug-In . SVG Version: 6.00 Build 0)  -->
<svg version="1.1" xmlns="http://www.w3.org/2000/svg" xmlns:xlink="http://www.w3.org/1999/xlink" x="0px" y="0px"
	 viewBox="0 0 139.667 127.952" style="enable-background:new 0 0 139.667 127.952;" xml:space="preserve">
<g id="Pegasus_x5F_Luggage">
	<path style="fill-rule:evenodd;clip-rule:evenodd;" d="M136.908,0c0.33,1.821,0.216,3.23-0.24,4.199
		c-0.973,2.069-4.959,1.227-7.318,1.44c-3.787,0.342-7.668,0.381-10.917,0.839c-3.805-0.065-8.416,0.264-12.477,0.24
		c-0.923-0.005-1.834,0.483-2.759,0.48c-2.971-0.009-5.941,0.076-8.878,0.12C83.368,7.48,74.602,12.115,67.928,19.194
		c-3.645,4.818-6.383,10.47-9.117,16.075c-3.812,7.814-7.555,14.826-14.636,19.555c-1.802,1.203-3.346,2.86-5.279,3.839
		c-2.026,1.026-4.773,1.528-7.078,1.799c-0.283-1.077-0.957-1.762-0.96-3.119c0.307-0.133,0.514-0.366,0.6-0.72
		c2.188-0.372,4.182-1.651,6.238-2.519c0.161-0.079,0.223-0.257,0.24-0.48c7.311-4.311,12.54-11.053,13.556-20.514
		c1.186-3.816,0.322-9.383-0.96-13.436c-0.428-1.352-1.264-1.989-2.159-3.239c-0.734-1.025-1.114-2.297-2.04-3.119
		c-0.692-0.615-1.665-1.113-2.519-1.68c-0.369-0.245-0.719-0.947-0.96-1.08c-0.302-0.166-1.044-0.104-1.56-0.36
		c-0.419-0.208-0.586-0.582-0.959-0.72c-4.433-1.632-11.237-1.383-15.596,1.439c-0.613,0.396-1.74,1.413-1.799,1.799
		c-0.089,0.575,0.47,0.869,0.48,1.44c0.017,0.949-0.807,1.455-1.2,2.279c-0.648,1.361-1.33,2.939-2.039,4.438
		c0.298,0.927,1.611,1.167,1.559,2.159c-0.114,2.199-3.886,1.066-4.559,2.64c-1.126,2.833-3.222,5.533-4.679,8.157
		c-0.398,0.718-1.368,2.391-1.68,3.239c-0.14,0.381-0.266,1.191-0.24,1.319c0.134,0.665,2.906,2.783,3.839,2.399
		c0.731-0.3,1.758-1.249,2.519-1.919c2.773-2.442,6.059-4.854,10.557-5.518c1.144-0.936,2.999-1.16,4.079-2.16
		c1.256-1.921,2.795-4.249,2.159-7.078c-0.375-1.671-1.983-2.457-2.519-3.959c0.778-0.829,0.782-2.42,2.279-2.279
		c0.977,0.091,3.023,2.496,3.839,4.079c1.024,1.986,1.312,4.455,0.6,6.958c-0.1,0.351-0.565,0.731-0.72,1.2
		c-1.021,3.092-3.551,5.269-6.478,6.598c-0.992,0.45-2.26,0.53-3.359,1.2c-0.879,0.536-1.846,2.167-2.639,3.719
		c-0.297,0.582-1.007,0.936-1.319,1.439c-0.492,0.794-0.527,1.682-0.84,2.399c-0.164,0.376-0.688,0.699-0.84,1.08
		c-0.716,1.789-1.365,3.78-1.919,5.638c-1.439,4.819-1.136,10.584-0.12,15.596c1.428,3.371,3.285,6.312,5.398,8.998
		c3.237,3.286,7.107,5.759,11.037,8.398c1.198,0.805,2.515,1.483,3.719,2.279c0.758,0.501,1.171,1.502,2.519,1.56
		c3.709,3.729,7.809,7.067,10.437,11.877c2.407,2.833,4.803,6.452,6.598,10.077c0.262,0.529,2.719,4.921,3.359,2.999
		c0.326-0.978-0.539-2.682-0.72-3.599c-0.198-1.003-0.038-1.932-0.24-2.759c-0.309-1.266-0.877-1.455-0.72-3.359
		c-0.062-0.297-0.292-0.427-0.48-0.6c-1.222-4.615-3.323-10.453-5.519-14.516c-1.292-1.55-2.619-3.695-3.119-5.638
		c9.359,5.634,21.164-1.103,28.552-4.918c2.944-1.521,6.172-3.019,10.077-2.759c0.979,0.065,2.466,0.675,3.239,1.08
		c4.409,2.308,5.475,8.903,6.238,14.396c0.347,2.493,1.124,4.742,0.72,7.438c-0.137,0.914-0.747,1.588-1.2,2.519
		c-2.104,4.32-6.541,8.151-8.398,12.476c2.79-0.689,5.082-2.915,7.558-4.318c0.163-0.037,0.1-0.3,0.12-0.48
		c0.39-0.09,0.743-0.217,1.08-0.36c2.39-2.152,5.983-3.589,8.518-5.638c2.034-1.646,0.35-3.482,0.12-6.119
		c-0.331-3.807,0.18-7.064,1.68-10.677c2.821-4.336,5.996-8.319,8.757-12.716c-0.01-0.19,0.058-0.458-0.12-0.479
		c1.33-1.086,1.033-4.108,1.8-5.398c-0.41-2.65,0.167-4.827-0.48-7.438c1.268,0.082,1.274,1.798,1.68,2.759
		c0.169,0.399,0.582,0.705,0.72,1.08c0.382,1.038,0.695,3.936,0.72,5.278c0.104,5.631-1.252,10.992-2.04,15.835
		c-0.912,5.612,0.423,10.494,3.119,14.036c2.445,3.212,6.499,5.395,11.157,4.438c-0.313-1.566-1.79-1.968-2.639-2.999
		c-2.337-3.451-3.062-6.822-2.999-10.557c0.021-1.259-0.301-2.296-0.12-3.599c0.708-5.102,2.171-10.893,2.639-16.315
		c0.139-1.612-0.05-3.44-0.6-5.158c0.29-3.411-1.699-6.145-3.239-9.598c-2.832-3.393-6.406-6.183-11.876-5.758
		c-0.142-1.405-2.402-2.853-2.039-3.958c0.521-1.585,6.556-1.473,8.278-1.2c1.434,0.228,3.375,0.822,4.559,1.439
		c0.33,0.172,0.651,0.789,1.08,0.96c2.097,0.838,2.987,2.21,4.319,3.839c2.514,3.074,4.972,8.782,4.918,13.796
		c-0.046,4.36-1.21,9.619-2.159,13.915c-0.435,1.968-0.578,4.173-1.08,5.878c-2.122,7.217-2.33,17.346,5.038,19.915
		c-1.569,1.937-4.318,1.458-6.598,1.799c-1.481,0.221-3.39,0.014-5.279,0c-1.264-0.586-2.713-1.593-4.079-0.6
		c-1.39,1.011-2.21,2.56-3.359,3.959c-0.821,1-2.018,1.847-2.879,2.879c-2.08,2.492-3.878,5.156-5.519,7.198
		c-3.476-0.539-4.583,4.993-6.598,6.838c-0.971,0.889-2.06,0.289-3.479,0.96c-2.586-0.613-5.81,0.372-8.518-0.36
		c-0.231-0.915,0.508-1.351,1.08-1.799c1.209-2.311,3.349-3.688,4.319-6.238c0.646,0,0.295-0.578,0.6-0.84
		c0.947-0.816,3.226-0.087,3.959-0.6c0.804-0.563,0.742-2.82,0.12-3.599c-3.053,0.241-5.242,1.685-7.798,2.879
		c-1.464,0.685-2.749,1.651-4.079,2.519c-1.572,1.026-3.259,2.306-4.559,3.599c-1.267,1.261-2.215,2.899-3.599,4.079
		c-1.55,1.322-5.088,0.873-6.718,0.84c-1.756-0.036-3.7,0.479-5.158-0.24c0.26-1.572,1.646-2.393,2.519-3.599
		c1.552-2.145,2.676-4.632,4.918-6.118c5.15,0.45,7.381-4.971,10.197-8.038c-0.103-0.724,0.492-0.483,0.48-1.32
		c0.282,0.003,0.353-0.206,0.72-0.12c0.373-2.876,2.808-6.208,2.519-8.998c0.926-1.999,0.447-4.677-0.12-6.598
		c-0.386-1.308-0.071-2.391-0.72-3.48c-0.775-1.301-1.843-2.139-3.119-3.119c-1.013-0.778-1.733-1.744-3.479-2.039
		c-0.495-0.084-1.863-0.174-2.879,0.12c-0.278,0.08-0.161,0.321-0.48,0.479c-0.378,0.188-1.179,0.096-1.56,0.24
		c-0.583,0.221-2.032,0.8-2.879,1.319c-1.089,0.668-2.113,1.814-3.479,2.759c-0.201,0.139-0.619,0.454-0.84,0.72
		c-5.676,6.853-9.702,18.946-4.919,29.631c-0.878,0.831-2.452,0.237-3.119,0.96c-1.493,1.617-2.669,6.121-4.199,7.078
		c-0.298,0.187-1.074,0.311-1.68,0.36c-2.164,0.178-5.236-0.08-7.318,0c-1.023,0.04-2.114,0.676-3.119,0
		c0.496-2.061,2.121-3.475,3.239-5.038c0.681-0.954,1.228-2.075,2.04-2.999c0.981-0.264,2.289-0.444,2.399-1.44
		c0.038-0.343-0.463-0.888-0.6-1.32c-0.623-1.963-1.273-5.188-2.879-6.478c-1.236-2.329-3.021-4.832-4.678-6.958
		c-1.46-1.871-3.286-3.365-5.159-4.678c-0.289-0.049-0.261,0.219-0.6,0.12c-0.031-0.808-0.939-0.74-1.199-1.319
		c-0.387,0.026-0.508-0.212-0.96-0.12c-3.858-3.882-11.97-5.061-17.395-2.399c-0.723,0.811-1.966,1.3-2.879,2.16
		c-0.379,0.357-0.963,0.792-1.2,1.08c-0.23,0.279-0.337,1.242-0.72,1.799c-0.114,0.166-0.524,0.217-0.6,0.36
		c-0.617,1.164-1.491,3.714-0.6,4.079c0.881,0.361,1.895-0.369,2.639-0.359c0.883,0.011,1.268,0.693,1.919,0.12
		c1.237,1.477,0.78,4.789,1.08,7.558c0.151,1.396,0.522,5.763-0.479,5.998c-1.021,0.24-2.511-1.493-3.479-2.04
		c-0.641-0.362-1.415-0.132-1.56-0.959c-2.293-0.346-3.524-1.755-5.159-2.759c-0.415-4.624-4.841-5.236-5.998-9.117
		c-0.018-0.222-0.406-0.074-0.48-0.24c-3.092-5.829-3.487-14.425-5.278-20.154c0.555-0.99-0.579-2.058-0.36-3.479
		c4.792-2.166,10.08-3.836,14.396-6.478c-2.463-8.021-2.415-15.358-0.12-22.914c0.354-1.163,1.275-2.105,1.08-3.479
		c-2.832,1.421-4.715-1.531-7.558-3.239c-1.101-0.661-1.913-0.727-2.759-1.439c-0.196-0.165-1.08-1.448-1.079-1.439
		c-0.011-0.112,0.436-1.381,0.72-1.799c0.064-0.095,0.44-0.05,0.48-0.12c0.2-0.352,0.192-1.088,0.48-1.439
		c0.856-1.043,1.597-2.883,2.279-4.319c0.295-0.621,0.87-1.068,1.2-1.68c0.8-1.485,1.32-3.226,2.159-4.798
		c0.348-0.651,0.511-1.288,0.84-1.92c0.312-0.599,1.147-1.224,1.439-1.8c0.182-0.357-0.008-0.878,0.24-1.199
		c1.579-2.046,2.8-5.601,3.839-7.918c-0.181-0.738-0.552-1.287-0.96-1.799c3.715-4.938,9.795-8.805,16.675-8.278
		c0.398,0.031,0.825-0.24,1.2-0.24c3.066,0.006,6.417,1.623,9.117,2.519c2.111,0.702,3.706,1.575,5.758,2.519
		c0.507,0.233,1,0.135,1.68,0.36c3.937,1.303,7.705,1.325,12.116,0.36c1.616-0.353,3.192-1.94,4.918-2.999
		c2.068-1.268,4.161-1.913,6.838-2.999c6.876-0.848,15.905-1.349,24.113-1.439C111.829,0.938,124.48,0.255,136.908,0z
		 M20.542,84.695c-0.702-0.769-1.15-2.072-1.679-2.879c-1.235-1.883-2.171-1.532-4.199-1.08c-0.451,0.101-1.196,0.012-1.679,0.12
		c-0.985,0.221-5.078,1.352-5.639,1.92c-0.769,0.78-0.501,5.372-0.479,6.238c0.016,0.657,0.462,1.609,0.479,2.279
		c0.128,4.788,0.072,11.492,3.239,14.036c0.443-0.947,0.554-2.945,1.08-3.839c0.016-2.582,0.693-5.991,1.2-8.277
		c0.11-0.497,0.132-3.664,0.36-4.199c0.89-2.091,7.235-1.323,8.638-2.879C21.714,85.218,21.098,85.304,20.542,84.695z
		 M115.795,93.093c-1.909,1.191-3.525,4.035-3.599,6.358c0.626,0.769,0.025,1.474-0.12,2.039c-0.462,1.81-0.978,4.622-1.559,7.198
		c-0.563,2.495-2.439,5.35-1.08,6.358c3.423-3.214,5.364-7.913,8.518-11.396c0.323-1.633,1.337-2.498,1.08-4.199
		c-0.327-2.166-2.161-4.152-1.919-6.118C116.716,93.191,116.259,92.803,115.795,93.093z"/>
	<path style="fill-rule:evenodd;clip-rule:evenodd;" d="M133.549,11.997c0.426,1.161,0.134,3.421-0.839,4.199
		c-0.817,0.653-3.729,0.515-5.039,0.6c-4.87,0.317-12.972,0.313-18.715,0.6c-2.836,0.142-5.436,1.675-4.919,3.839
		c0.756,3.165,9.199,1.773,11.877,1.799c4.56,0.045,8.854-0.342,12.477,0c0.2,1.378-1.071,1.95-1.439,3.119
		c-3.796,0.799-8.225,0.89-12.477,0.84c-2.693-0.032-5.551,0.657-8.038,0.6c-1.954-0.045-7.652,0.568-6.358,3.839
		c1.162,2.938,6.701,2.54,10.317,2.52c3.712-0.021,7.605-0.738,10.437-0.12c-0.575,1.408-2.142,3.467-3.839,3.839
		c-1.078,0.237-3.056,0.028-4.678,0.12c-0.946,0.054-2.279,0.099-3.479,0.12c-4.418,0.079-10.4-0.505-13.076,1.319
		c-0.853,0.581-1.978,2.103-1.08,3.479c0.543,0.831,2.474,1.6,3.839,1.68c2.449,0.143,5.342-0.361,7.318,0.12
		c0.794-0.473,2.387-0.455,2.759,0.12c-2.065,1.854-4.695,3.142-7.678,4.079c-7.54,3.94-18.38,4.997-27.712,4.079
		c-0.9-0.088-2.015,0.343-2.639-0.6c4.839-2.691,10.772-4.548,14.036-9.117c3.043-1.315,4.357-4.359,6.598-6.478
		c1.731-2.913,2.839-5.841,4.199-8.877c0.42-0.938,0.272-2.157,1.199-2.879c0.912-4.358,1.546-8.608,4.679-10.917
		c1.606-1.346,3.751-0.837,6.118-0.84c3.761-0.004,7.38-0.686,10.557-0.84c0.437,0.765,1.507,0.044,2.519,0
		c2.055-0.089,4.377,0.287,5.999-0.12c0.213,0.066,0.498,0.061,0.6,0.24C128.933,11.906,131.12,12.076,133.549,11.997z"/>
	<path style="fill-rule:evenodd;clip-rule:evenodd;fill:#FFFFFF;" d="M21.862,86.135c-1.403,1.557-7.748,0.789-8.638,2.879
		c-0.228,0.535-0.25,3.702-0.36,4.199c-0.507,2.286-1.184,5.695-1.2,8.277c-0.526,0.894-0.637,2.892-1.08,3.839
		c-3.167-2.544-3.111-9.248-3.239-14.036c-0.017-0.67-0.464-1.622-0.479-2.279c-0.021-0.866-0.29-5.458,0.479-6.238
		c0.561-0.568,4.654-1.699,5.639-1.92c0.483-0.108,1.228-0.02,1.679-0.12c2.028-0.452,2.964-0.803,4.199,1.08
		c0.529,0.807,0.977,2.11,1.679,2.879C21.098,85.304,21.714,85.218,21.862,86.135z"/>
	<path style="fill-rule:evenodd;clip-rule:evenodd;fill:#FFFFFF;" d="M117.114,93.333c-0.242,1.966,1.593,3.953,1.919,6.118
		c0.257,1.701-0.756,2.566-1.08,4.199c-3.154,3.484-5.094,8.182-8.518,11.396c-1.359-1.008,0.517-3.863,1.08-6.358
		c0.581-2.577,1.098-5.389,1.559-7.198c0.145-0.565,0.746-1.27,0.12-2.039c0.074-2.324,1.691-5.167,3.599-6.358
		C116.259,92.803,116.716,93.191,117.114,93.333z"/>
</g>
<g id="Layer_1">
</g>
</svg>
