<?xml version="1.0" encoding="iso-8859-1"?>
<!-- Generator: Adobe Illustrator 19.2.0, SVG Export Plug-In . SVG Version: 6.00 Build 0)  -->
<svg version="1.1" xmlns="http://www.w3.org/2000/svg" xmlns:xlink="http://www.w3.org/1999/xlink" x="0px" y="0px"
	 viewBox="0 0 23.566 80.8" style="enable-background:new 0 0 23.566 80.8;" xml:space="preserve">
<g id="Penguin_x5F_Childrens_x5F_Books">
	<path style="fill-rule:evenodd;clip-rule:evenodd;" d="M18.043,5.786c-0.321,0.476-1.723,0.237-2.255,0.441
		c-1.894,0.728-0.779,4.284-0.343,6.029c0.295,1.181,0.599,2.367,0.882,3.529c0.569,2.336,1.353,4.662,1.764,7.107
		c0.435,2.583,0.33,5.416-0.294,7.989c-0.396,1.631-1.119,3.25-1.863,4.754c-0.24,0.486-0.634,1.084-0.686,1.52
		c-0.071,0.595,0.238,1.178,0.441,1.715c0.202,0.536,0.372,1.106,0.539,1.569c0.407,1.125,0.909,2.13,0.981,3.186
		c-0.635,0.109-0.652-0.498-1.275-0.49c-0.943,0.011-1.248,1.36-1.127,2.451c0.093,0.839,0.76,1.77,1.421,1.912
		c1.012,0.216,1.475-0.584,1.715-1.618c0.496,0.118,0.501,0.71,0.637,1.128c0.281,0.86,0.878,1.823,0.687,2.745
		c-0.996-0.189-0.799-1.548-2.108-1.323c-0.734,0.126-1.132,1.337-1.127,2.254c0.007,1.312,0.729,3.05,2.059,2.99
		c1.104-0.049,1.297-1.125,1.961-1.863c0.468,0.47,0.605,1.273,0.833,2.01c0.216,0.697,0.523,1.507,0.392,2.205
		c-0.671-0.26-0.703-1.16-1.421-1.372c-0.391-0.013-0.874-0.004-1.127,0.196c-0.304,0.24-0.621,1.199-0.686,1.715
		c-0.21,1.659,0.672,3.859,2.353,3.382c0.74-0.143,0.797-0.967,1.372-1.274c0.4,0.227,0.362,0.791,0.49,1.225
		c0.123,0.417,0.269,0.847,0.392,1.274c0.232,0.81,0.737,1.943,0.196,2.696c-0.489-0.169-0.515-0.787-0.735-1.176
		c-0.269-0.476-0.631-0.81-1.079-1.079c-0.261,0-0.522,0-0.784,0c-2.385,0.598-2.271,5.551-0.343,6.617
		c0.747,0.413,1.629,0.354,2.205-0.098c0.458-0.36,0.559-0.949,1.078-1.226c0.535,0.339,0.343,1.196,0.343,1.862
		c0,1.458-0.159,2.77-0.392,4.02c-0.118,0.632-0.17,1.311-0.539,1.667c-0.345-0.167-0.267-0.693-0.295-1.029
		c-0.094-1.148-0.303-2.284-0.931-2.941c-1.151-0.899-2.48,0.538-2.696,1.96c-0.207,1.361-0.11,3.429,0.784,4.117
		c0.582,0.448,1.081,0.086,1.863,0.392c-0.005,0.64-0.47,1.188-0.833,1.618c-0.599,0.708-1.482,1.215-2.157,1.814
		c-0.552,0.132-1.235,0.643-1.813,0.294c0.023-0.603,0.613-0.81,0.882-1.323c0.419-0.8,0.582-2.168,0.539-3.382
		c-0.052-1.505-0.569-3.895-2.401-3.382c-0.442,0.124-1.005,0.704-1.226,1.029c-0.884,1.306-1.504,4.541-0.49,6.029
		c0.275,0.404,0.651,0.384,0.784,0.882c-0.281,0.315-0.833,0.124-1.225,0.049c-0.428-0.082-0.844-0.23-1.226-0.343
		c-0.788-0.232-1.784-0.338-2.107-0.98c0.07-0.436,0.473-0.54,0.784-0.735c1.613-1.115,2.54-6.262,0.196-7.205
		c-0.246-0.099-0.68-0.145-1.078-0.049c-1.794,0.434-3.305,3.735-2.353,5.833c0.3,0.661,0.859,0.847,0.931,1.568
		c-0.456,0.347-0.987-0.127-1.373-0.343c-0.88-0.494-1.561-0.963-2.451-1.568c-0.277-0.188-1.049-0.57-0.98-0.98
		c0.052-0.312,0.731-0.414,1.029-0.588c1.186-0.692,1.654-2.442,1.519-4.215c-0.067-0.892-0.256-1.988-1.029-2.402
		c-0.057,0.008-0.087-0.011-0.098-0.049c-1.593,0.017-2.573,1.754-2.843,3.186c-0.187,0.991,0.229,1.834,0.245,2.745
		c-0.402,0.11-0.65-0.367-0.833-0.637c-1.159-1.717-2.03-4.317-1.618-7.303c0.054-0.387,0.076-0.91,0.441-1.079
		c0.149,1.111,0.984,2.059,2.156,1.961c1.838-0.154,2.845-3.89,1.863-5.539c-0.451-0.757-1.536-0.795-2.255-0.246
		c-0.503,0.386-0.664,1.062-1.274,1.324c-0.205-0.496,0.177-0.959,0.343-1.421c0.489-1.362,0.907-2.968,1.666-4.117
		c0.33,0.347,0.137,0.616,0.245,0.931c0.205,0.596,0.849,0.814,1.226,0.833c1.165,0.06,2.152-1.302,2.304-2.5
		c0.094-0.747-0.037-1.954-0.637-2.157c-0.959-0.324-1.392,0.756-2.206,0.686c0.239-0.985,0.868-1.975,1.372-2.941
		c0.152-0.291,0.223-0.794,0.637-0.833c-0.009,0.906,0.208,1.839,1.078,2.01c1.866,0.073,3.053-1.639,3.088-3.333
		c0.013-0.625-0.361-1.605-0.932-1.716c-1.213-0.233-1.491,0.96-2.352,1.03c0.059-0.671,0.558-1.253,0.882-1.863
		c0.32-0.601,0.615-1.315,1.176-1.667c0.341,0.174,0.304,0.572,0.441,0.833c0.236,0.451,0.708,0.962,1.324,0.981
		c1.121,0.034,1.732-1.394,1.813-2.451c0.066-0.86-0.198-1.926-0.931-2.009c-0.841-0.096-0.983,0.788-1.765,0.686
		c-0.029-0.618,0.367-1.22,0.686-1.814c0.6-1.115,1.214-2.071,1.912-3.284c0.292-0.507,0.833-1.217,0.882-1.715
		c0.06-0.616-0.489-1.517-0.735-2.157c-1.361-3.54-2.474-7.013-3.235-11.078c-0.307-1.637-0.625-3.422-0.49-5.195
		c0.127-1.668,0.804-2.952,1.912-3.97c0.516-0.474,1.005-0.912,1.52-1.421c0.665-0.658,1.385-1.281,1.421-2.5
		c0.061-2.061-1.178-4.101-0.588-6.225c0.153-0.551,0.587-1.128,0.539-1.519c-0.045-0.366-0.555-0.724-0.882-0.882
		c-0.448-0.216-1.011-0.214-1.079-0.686c-0.064-0.454,0.336-0.818,0.588-0.834c0.785-0.048,0.905,1.561,1.862,1.519
		c0.912-0.039,0.805-1.493,1.226-2.059c0.433-0.276,0.862,0.07,0.882,0.441c0.033,0.622-1.342,1.292-1.323,2.059
		c0.013,0.519,1.227,1.33,1.568,1.617C17.11,4.752,17.664,5.044,18.043,5.786z M14.515,5.883c0.645,0.203,1.433-0.379,1.519-0.931
		c0.119-0.758-0.777-1.169-1.519-1.029C13.484,4.307,13.749,5.643,14.515,5.883z M12.897,42.154
		c0.839,0.626,1.827,0.201,2.059-0.686c0.278-1.065-0.167-3-1.127-2.696C12.903,39.219,12.217,41.028,12.897,42.154z M11.916,53.624
		c0.561,0.425,1.411,0.397,1.765,0.294c1.981-0.574,1.248-5.648-0.637-5.441C11.39,48.659,10.506,52.556,11.916,53.624z
		 M7.652,58.819c0.052,1.124,0.985,1.893,2.108,1.765c2.023-0.231,2.279-5.818,0.098-5.539C8.614,55.205,7.591,57.503,7.652,58.819z
		 M12.75,58.819c0.043,1.639,1.204,3.299,2.843,2.059c1.369-1.036,1.55-5.848-0.981-5.49C13.422,55.557,12.708,57.233,12.75,58.819z
		 M8.289,62.251c-0.349,0.176-0.791,0.542-1.029,0.833c-0.654,0.8-1.387,2.358-1.225,3.627c0.2,1.567,1.626,2.529,3.038,2.206
		c2.259-0.517,2.097-7.238-0.686-6.666C8.355,62.251,8.322,62.251,8.289,62.251z M12.701,63.868
		c-1.153,1.846-1.56,6.261,1.372,6.225c0.956-0.012,1.896-0.893,2.206-1.716c0.722-1.914,0.315-5.998-2.157-5.686
		c-0.03,0.003-0.058,0.007-0.049,0.049C13.504,62.935,13.001,63.387,12.701,63.868z"/>
	<path style="fill-rule:evenodd;clip-rule:evenodd;" d="M13.828,0.149c0.798-0.113,0.856,1.15,0.147,1.176
		C13.437,1.345,12.955,0.273,13.828,0.149z"/>
	<path style="fill-rule:evenodd;clip-rule:evenodd;" d="M15.691,4.952c-0.226,0.399-0.913,0.284-0.98-0.098
		C14.591,4.177,15.805,4.042,15.691,4.952z"/>
	<path style="fill-rule:evenodd;clip-rule:evenodd;" d="M14.318,39.557c0.368,0.605,0.05,1.45-0.588,1.372
		C12.839,40.821,13.337,39.033,14.318,39.557z"/>
	<path style="fill-rule:evenodd;clip-rule:evenodd;" d="M16.279,45.537c-0.592,0.069-0.835-0.211-1.029-0.54
		C15.183,42.604,17.949,44.671,16.279,45.537z"/>
	<path style="fill-rule:evenodd;clip-rule:evenodd;" d="M11.377,45.879c-1.968,0.383-1.036-2.67,0.294-1.863
		C12.328,44.415,12.008,45.615,11.377,45.879z"/>
	<path style="fill-rule:evenodd;clip-rule:evenodd;" d="M9.368,49.261c0.434,0.499,0.206,1.46-0.294,1.716
		C6.741,51.627,7.648,48.094,9.368,49.261z"/>
	<path style="fill-rule:evenodd;clip-rule:evenodd;" d="M12.946,49.212c1.415-0.33,1.275,1.935,0.148,1.961
		C11.973,51.199,11.926,49.451,12.946,49.212z"/>
	<path style="fill-rule:evenodd;clip-rule:evenodd;" d="M17.896,51.271c-1.644,0.231-1.454-2.443-0.098-2.059
		C18.546,49.425,18.725,50.922,17.896,51.271z"/>
	<path style="fill-rule:evenodd;clip-rule:evenodd;" d="M6.133,55.486c0.779,1.524-1.821,2.288-1.911,0.882
		C4.166,55.516,5.502,54.701,6.133,55.486z"/>
	<path style="fill-rule:evenodd;clip-rule:evenodd;" d="M19.171,55.241c1.425-0.323,1.592,1.79,0.392,1.863
		C18.58,57.163,18.187,55.604,19.171,55.241z"/>
	<path style="fill-rule:evenodd;clip-rule:evenodd;" d="M10.152,57.741c-0.752,0.082-1.106-0.234-1.324-0.686
		c-0.296-1.372,1.595-1.922,1.912-0.784C10.902,56.853,10.63,57.534,10.152,57.741z"/>
	<path style="fill-rule:evenodd;clip-rule:evenodd;" d="M14.465,55.977c1.274-0.394,1.716,1.653,0.833,2.059
		C13.856,58.698,13.035,56.494,14.465,55.977z"/>
	<path style="fill-rule:evenodd;clip-rule:evenodd;" d="M3.437,62.054c1.061,0.49,0.58,2.57-0.931,2.206
		C1.446,63.771,2.053,61.815,3.437,62.054z"/>
	<path style="fill-rule:evenodd;clip-rule:evenodd;" d="M21.573,62.985c0.667,1.583-1.66,2.552-2.108,1.324
		C18.981,62.983,20.78,61.619,21.573,62.985z"/>
	<path style="fill-rule:evenodd;clip-rule:evenodd;" d="M8.436,62.937c1.529-0.307,1.269,2.058,0.147,2.205
		c-0.47,0.062-0.932-0.194-1.127-0.637C7.456,63.656,7.788,63.138,8.436,62.937z"/>
	<path style="fill-rule:evenodd;clip-rule:evenodd;" d="M15.201,63.721c0.403,0.626,0.627,1.733-0.049,2.206
		c-0.453,0.316-1.496,0.24-1.863-0.196C12.397,64.67,14.078,62.664,15.201,63.721z"/>
	<path style="fill-rule:evenodd;clip-rule:evenodd;" d="M4.515,69.456c1.434-0.271,1.163,2.501-0.049,2.549
		C2.839,72.069,3.365,69.672,4.515,69.456z"/>
	<path style="fill-rule:evenodd;clip-rule:evenodd;" d="M21.131,71.367c1.121,1.196-0.306,2.868-1.47,2.107
		C18.691,72.841,19.757,70.594,21.131,71.367z"/>
	<path style="fill-rule:evenodd;clip-rule:evenodd;" d="M10.005,72.151c0.111-0.092,0.523-0.067,0.637,0
		c0.998,0.242,1.159,2.442,0.148,2.794c-2.416,0.648-2.531-2.207-0.882-2.794C9.939,72.151,9.972,72.151,10.005,72.151z"/>
	<path style="fill-rule:evenodd;clip-rule:evenodd;" d="M15.005,76.317c-1.413-0.661-0.11-3.351,1.274-2.843
		c0.561,0.206,0.963,1.64,0.588,2.402C16.555,76.512,15.843,76.387,15.005,76.317z"/>
</g>
<g id="Layer_1">
</g>
</svg>
