<?xml version="1.0" encoding="iso-8859-1"?>
<!-- Generator: Adobe Illustrator 19.2.0, SVG Export Plug-In . SVG Version: 6.00 Build 0)  -->
<svg version="1.1" xmlns="http://www.w3.org/2000/svg" xmlns:xlink="http://www.w3.org/1999/xlink" x="0px" y="0px"
	 viewBox="0 0 39.527 77.026" style="enable-background:new 0 0 39.527 77.026;" xml:space="preserve">
<g id="Pepinieriste_x5F_Rosieriste_x5F_Alfred_x5F_Etter">
	<path style="fill-rule:evenodd;clip-rule:evenodd;" d="M26.409,4.24c1.488,0.123,3.177,0.045,4.678,0.154
		c0.689,1.061,0.963,2.344,1.322,3.559c0.182,0.615,0.395,1.207,0.609,1.83c0.216,0.625,0.301,1.303,0.509,1.932
		c0.4,1.209,0.824,2.43,1.221,3.66c1.165,3.625,2.291,7.352,3.559,10.982c0.866,2.48,1.392,5.281,1.17,8.439
		c-0.336,4.779-2.563,8.149-4.983,10.983c-1.245,1.433-2.72,2.558-4.372,3.609c-1.64,1.045-3.578,1.627-5.44,2.492
		c2.568,0.357,4.889-0.129,6.762,0.508c1.722,0.586,3.195,1.83,3.915,3.355c0.791,1.678,0.786,4.152-0.254,5.949
		c-0.801,1.385-2.456,2.557-3.661,3.762c-0.792,0.793-1.85,1.77-2.847,2.695c-0.343,0.318-0.774,0.758-1.067,0.764
		c-0.551,0.008-0.973-0.707-1.322-1.018c-0.467-0.416-0.93-0.691-1.22-1.119c-0.371-0.408-0.761-0.799-1.17-1.17
		c-0.474-0.289-0.634-0.891-1.271-1.016c-0.278,0.426-0.146,0.977-0.153,1.475c-0.037,2.416-0.051,5.24-0.051,7.83
		c0,1.037,0.115,2.088-0.152,2.998c-1.524,0.143-3.845,0.227-5.287-0.051c-0.177-2.91-0.104-6.287-0.103-9.506
		c0.001-1.037,0.091-2.057-0.152-2.949c-0.584,0.156-0.899,0.695-1.271,1.066c-0.761,0.762-1.457,1.428-2.339,2.238
		c-0.275,0.252-0.906,1.006-1.271,1.016c-0.393,0.012-0.922-0.688-1.169-0.965c-1.014-1.135-2.156-2.037-3.102-3.152
		c-1.951-1.787-4.598-4.078-3.661-7.932c0.482-1.982,1.928-3.221,3.61-4.119c1.474-1.098,4.678-0.453,6.762-0.812
		c-1.922-0.812-3.676-1.709-5.338-2.746c-4.775-2.98-8.441-8.109-8.847-15.404c-0.167-2.998,0.634-5.717,1.423-8.033
		c0.819-2.404,1.537-4.682,2.339-7.068C4.996,14.871,6.16,11.412,7.241,7.75c0.171-0.576,0.405-1.17,0.61-1.729
		C8.057,5.46,8.136,4.822,8.563,4.394c1.078-0.478,3.322,0.272,4.576-0.205c0.467-0.176,0.773-0.978,1.118-1.422
		c1.09-1.408,2.591-2.574,4.932-2.746c1.721-0.127,3.103,0.338,4.22,0.965C24.739,1.734,25.525,3,26.409,4.24z M17.715,7.24
		c0.348,1.016,1.096,1.635,2.136,1.576c2.636-0.147,2.513-4.361-0.356-3.914C18.355,5.134,17.667,5.82,17.715,7.24z M25.749,10.291
		c-1.172,1.734-2.999,3.197-5.594,3.355c-2.438,0.148-4.261-0.918-5.644-2.287c-0.64-0.617-0.959-2.455-2.135-1.881
		c0.266,1.438,0.96,2.758,1.525,4.117c0.558,1.344,1.25,2.66,1.779,4.017c0.9,2.307,1.82,4.637,2.796,6.812
		c0.318,0.709,0.506,1.615,1.17,2.084c1.006-1.186,1.328-2.76,1.982-4.168c0.334-0.719,0.676-1.381,0.966-2.137
		c0.278-0.723,0.624-1.438,0.967-2.135c0.687-1.396,1.2-2.889,1.83-4.322c0.31-0.703,0.656-1.416,0.966-2.135
		c0.295-0.684,0.813-1.439,0.661-2.236C26.193,9.121,26.015,9.896,25.749,10.291z M9.529,17.255
		c-1.025,2.588-1.675,5.209-2.593,7.83c-0.917,2.619-1.961,5.32-1.83,8.594c0.125,3.123,1.283,5.692,2.745,7.676
		c1.043,1.418,2.549,2.832,4.017,3.764c1.507,0.955,3.365,1.629,5.44,1.982c1.436,0.244,3.024,0.273,4.423,0.051
		c5.42-0.861,9.049-3.738,11.185-7.932c0.997-1.955,1.887-5.012,1.373-8.033c-0.2-1.176-0.658-2.418-1.067-3.559
		c-1.037-2.889-1.865-5.906-2.797-8.744c-0.174-0.533-0.207-1.26-0.763-1.578c-0.414,0.275-0.566,0.805-0.762,1.221
		c-0.222,0.471-0.408,0.957-0.611,1.424c-2.631,6.068-5.392,12.26-7.931,18.305c-0.18,0.426-0.269,1.045-0.763,1.269
		c-0.49-0.232-0.52-0.836-0.712-1.269c-1.027-2.314-2.05-4.709-3.051-7.018c-1.246-2.873-2.268-5.6-3.609-8.541
		c-0.611-1.34-1.096-2.889-1.729-4.322c-0.229-0.52-0.415-1.283-0.814-1.272C9.608,17.132,9.558,17.183,9.529,17.255z M9.428,57.117
		c-1.521,1.01-0.048,2.342,0.712,3.102c0.588,0.588,1.007,1.285,1.678,1.424c0.952-0.479,1.672-1.303,2.39-2.033
		c0.354-0.361,0.737-0.707,1.118-1.068c0.363-0.344,0.886-0.699,0.967-1.271C14.113,57.052,11.692,57.125,9.428,57.117z
		 M23.816,58.541c0.391,0.398,0.838,0.762,1.17,1.17c0.449,0.299,0.732,0.682,1.169,1.119c0.32,0.318,0.832,1.021,1.321,1.016
		c0.59-0.006,1.62-1.264,1.882-1.525c0.479-0.479,1.482-1.146,1.321-2.135c-0.077-0.48-0.667-0.953-1.22-1.018
		c-1.65-0.191-4.977,0.109-6.406,0.051c-0.07-0.002-0.111,0.023-0.152,0.051C22.895,57.83,23.462,58.179,23.816,58.541z"/>
</g>
<g id="Layer_1">
</g>
</svg>
