<?xml version="1.0" encoding="iso-8859-1"?>
<!-- Generator: Adobe Illustrator 19.2.0, SVG Export Plug-In . SVG Version: 6.00 Build 0)  -->
<svg version="1.1" xmlns="http://www.w3.org/2000/svg" xmlns:xlink="http://www.w3.org/1999/xlink" x="0px" y="0px"
	 viewBox="0 0 53.049 77.494" style="enable-background:new 0 0 53.049 77.494;" xml:space="preserve">
<g id="Percy_x5F_Haynes">
	<path style="fill-rule:evenodd;clip-rule:evenodd;" d="M19.515,0.116c0.101,25.115,0.195,51.65-0.048,77.139
		c-0.043,0.021-0.086,0.043-0.096,0.096c-6.347,0.043-13.198,0.166-19.369-0.096c-0.016-19.445,0.095-38.518,0.096-57.963
		c0-5.592-0.16-11.443,0-17.008c0.021-0.73-0.032-1.516,0.193-2.217C6.26,0.01,13.516-0.07,19.515,0.116z"/>
	<path style="fill-rule:evenodd;clip-rule:evenodd;" d="M37.872,28.977c-0.115,1.049-0.619,2.014-0.963,2.986
		c-1.019,2.881-2.213,5.783-3.325,8.674c-2.97,7.725-5.797,15.502-8.865,23.223c-1.527,3.842-2.777,7.793-4.529,11.516
		c-0.264-0.918-0.144-1.91-0.144-2.844c0-13.463,0-27.275,0-41.002c0-0.887-0.094-1.828,0.193-2.65
		C25.745,28.868,32.342,28.674,37.872,28.977z"/>
	<path style="fill-rule:evenodd;clip-rule:evenodd;" d="M38.547,29.266c0.032,0,0.064,0,0.096,0c0.572,1.35,0.842,2.748,1.156,4.191
		c0.202,0.928,0.587,1.809,0.867,2.746C44.189,48,47.913,59.955,51.459,71.809c0.548,1.832,1.225,3.648,1.59,5.541
		c-0.756,0.25-1.603,0.098-2.408,0.098c-5.897,0-12.061,0.053-18.213-0.049c-0.641-1.416-0.947-2.943-1.397-4.434
		c-1.32-4.361-2.882-8.777-4.047-13.346c0.781-2.576,1.879-5.057,2.794-7.613c0.904-2.521,1.874-5.039,2.843-7.564
		c1.659-4.32,3.394-8.756,5.011-13.201c0.225-0.619,0.524-1.328,0.771-1.83C38.429,29.34,38.477,29.291,38.547,29.266z"/>
</g>
<g id="Layer_1">
</g>
</svg>
