<?xml version="1.0" encoding="iso-8859-1"?>
<!-- Generator: Adobe Illustrator 19.2.0, SVG Export Plug-In . SVG Version: 6.00 Build 0)  -->
<svg version="1.1" xmlns="http://www.w3.org/2000/svg" xmlns:xlink="http://www.w3.org/1999/xlink" x="0px" y="0px"
	 viewBox="0 0 79.526 41.87" style="enable-background:new 0 0 79.526 41.87;" xml:space="preserve">
<g id="Peter_x5F_Revson">
	<path style="fill-rule:evenodd;clip-rule:evenodd;" d="M74.601,26.664c-10.481,0.191-21.743,0.205-33.095,0.205
		c-2.483,0-5.411,0.051-8.312,0.051c-2.763,0-5.826,0.264-8.056-0.308c-2.184-0.561-3.903-1.738-5.08-3.386
		c-1.107-1.552-1.934-4.045-1.385-6.773c0.55-2.728,2.097-4.899,2.668-7.594c0.654-3.089-1.074-5.706-3.027-6.978
		c-1.146-0.746-2.956-1.322-5.079-1.18c-2.328,0.156-4.391,1.16-5.9,2.206C4.326,4.989,1.206,8.222,1.997,13.58
		c0.325,2.204,1.172,4.179,2.053,6.004c1.773,3.675,3.498,7.322,5.182,10.98c1.271,2.758,2.587,5.461,3.899,8.261
		c0.422,0.899,0.945,1.828,1.027,2.873c-2.195,0.154-4.962,0.006-7.287-0.051c-0.547-0.881-0.641-1.97-0.924-2.976
		c-1.391-4.944-2.721-10.113-4.053-15.187c-0.542-2.066-1.17-4.088-1.591-6.106c-1.04-4.989,0.742-9.309,3.027-11.852
		c2.464-2.741,5.464-5.129,10.108-5.49c3.111-0.242,5.753,0.83,7.388,2.155c1.531,1.24,3.383,3.549,3.182,6.362
		c-0.089,1.247-0.618,2.549-0.975,3.848c-0.341,1.241-0.869,2.565-0.976,3.797c-0.136,1.582,0.529,2.825,1.232,3.541
		c0.999,1.018,2.53,1.59,4.617,1.59c5.863,0,12.79-0.045,18.369-0.103c2.02-0.02,4.083-0.08,6.208,0
		c1.913,0.072,3.974-0.142,5.952-0.051c2.807,0.128,6.042,0,9.185,0c1.04,0,2.425-0.166,3.027,0.051
		c0.399,0.144,0.771,0.87,1.077,1.283c0.726,0.976,1.333,1.78,2.001,2.719C74.032,25.655,74.478,26.021,74.601,26.664z"/>
	<path style="fill-rule:evenodd;clip-rule:evenodd;" d="M79.526,33.488c-12.176,0.183-24.645,0.205-36.892,0.205
		c-2.973,0-6.164,0.052-9.286,0.051c-3.188,0-6.34,0.173-8.929-0.462c-4.842-1.187-9.021-4.076-10.466-8.62
		c-0.945-2.968-0.57-6.872,0.563-9.184c1.165-2.374,2.748-4.372,3.899-6.876c1.279-2.78,0.099-5.34-2.206-6.311
		c-2.548-1.074-5.593-0.074-7.286,0.923c-1.885,1.11-3.463,2.863-4.156,4.977c-0.928,2.832-0.225,5.342,1.078,7.132
		c1.341,1.843,2.628,3.646,3.848,5.233c1.318,1.715,2.644,3.505,3.797,5.336c1.162,1.845,2.553,3.539,3.849,5.285
		c1.302,1.753,2.546,3.559,3.849,5.285c0.978,1.297,2.01,2.54,2.924,3.899c0.286,0.426,0.716,0.838,0.77,1.385
		c-2.796,0.224-6.1,0.085-8.928,0c-0.613-0.441-0.864-1.246-1.18-1.898c-0.336-0.695-0.678-1.376-0.924-2.104
		c-0.482-1.426-1.384-2.728-2.001-4.105C9.342,28.05,6.465,22.958,3.947,17.223c-1.156-2.635-2.18-6.914-0.205-9.697
		C5.52,4.307,8.974,1.298,13.747,1.112c1.226-0.048,2.065,0.21,2.925,0.513c2.139,0.755,3.808,2.605,4.155,4.977
		c0.258,1.749-0.241,3.076-0.77,4.361c-0.978,2.384-2.476,4.723-2.411,8.056c0.032,1.615,0.477,2.898,1.129,4.105
		c1.258,2.327,3.191,3.786,5.952,4.516c2.666,0.704,6.296,0.462,9.954,0.462c12.864,0,25.077-0.101,38.379-0.103
		c0.906,0,1.913-0.123,2.515,0.051c0.497,0.144,0.79,0.82,1.129,1.283c0.716,0.98,1.302,1.794,2.001,2.719
		C79.019,32.467,79.542,32.862,79.526,33.488z"/>
</g>
<g id="Layer_1">
</g>
</svg>
