<?xml version="1.0" encoding="iso-8859-1"?>
<!-- Generator: Adobe Illustrator 19.2.0, SVG Export Plug-In . SVG Version: 6.00 Build 0)  -->
<svg version="1.1" xmlns="http://www.w3.org/2000/svg" xmlns:xlink="http://www.w3.org/1999/xlink" x="0px" y="0px"
	 viewBox="0 0 57.425 69.955" style="enable-background:new 0 0 57.425 69.955;" xml:space="preserve">
<g id="Petrolimpex_x5F_67">
	<path style="fill-rule:evenodd;clip-rule:evenodd;" d="M18.055,0c0.322,0.131,0.703,1.316,0.916,1.831
		c1.308,3.165,2.414,6.447,3.8,9.567c0.558,1.257,1.024,2.513,1.693,3.617c10.142,0.083,20.674,0.09,31.037,0.092
		c0.642,0,1.317-0.105,1.923,0.137c-0.693,2.975-2.994,4.294-6.317,4.669c-3.149,0.355-7.058,0.137-10.666,0.137
		c-3.573,0-7.27-0.015-10.804,0c-1.803,0.007-3.388,0.075-4.807,0.595c-1.512,0.555-2.896,1.497-3.479,2.884
		c-0.646,1.537-0.589,3.328-0.046,4.898c0.976,2.816,3.362,4.49,5.448,6.18c1.097,0.888,2.156,1.797,3.158,2.655
		c2.057,1.76,3.507,4.06,4.807,6.821c1.242,2.637,1.82,6.468,1.282,10.072c-0.233,1.562-0.685,3.197-1.282,4.578
		c-0.578,1.337-1.192,2.764-2.014,3.799c-1.765,2.226-3.74,4.085-6.227,5.402c-2.444,1.295-5.861,2.257-9.476,1.969
		c-6.659-0.532-11.611-4.261-14.282-9.019c-1.462-2.603-2.54-5.111-2.701-8.927c-0.149-3.523,0.588-6.993,1.511-10.025
		c0.919-3.02,2.005-5.822,3.066-8.56c2.187-5.64,4.319-11.205,6.685-16.617c2.362-5.406,4.489-10.917,6.638-16.618
		C17.944,0.071,17.99,0.025,18.055,0z"/>
	<path style="fill-rule:evenodd;clip-rule:evenodd;" d="M54.404,23.347c-0.037,0.792-0.649,1.392-1.145,1.877
		c-1.215,1.584-3.334,2.831-5.86,3.159c-1.679,0.218-3.653,0.045-5.722,0.046c-3.936,0-8.169,0.037-11.72-0.046
		c-0.559-0.728-0.847-1.622-1.235-2.472c-0.378-0.824-0.899-1.624-1.1-2.563c2.276-0.195,4.928-0.183,7.233-0.183
		C41.238,23.164,48.144,23.205,54.404,23.347z"/>
	<path style="fill-rule:evenodd;clip-rule:evenodd;" d="M48.681,32.228c0.009,0.567-0.366,1.065-0.642,1.51
		c-0.277,0.452-0.572,0.921-0.961,1.236c-1.032,1.197-2.471,2.247-4.532,2.426c-2.56,0.223-5.537-0.108-8.285-0.046
		c-0.637-0.642-0.945-1.663-1.373-2.564c-0.204-0.427-0.448-0.888-0.642-1.327c-0.179-0.408-0.555-0.903-0.32-1.328
		C37.182,32.096,43.554,31.975,48.681,32.228z"/>
</g>
<g id="Layer_1">
</g>
</svg>
