<?xml version="1.0" encoding="iso-8859-1"?>
<!-- Generator: Adobe Illustrator 21.0.2, SVG Export Plug-In . SVG Version: 6.00 Build 0)  -->
<svg version="1.1" xmlns="http://www.w3.org/2000/svg" xmlns:xlink="http://www.w3.org/1999/xlink" x="0px" y="0px"
	 viewBox="0 0 14.27 14.65" style="enable-background:new 0 0 14.27 14.65;" xml:space="preserve">
<g id="Philadelphia_x5F_Worlds_x5F_Fair_x5F_71">
	<path d="M3.961,1.221C4.595,0.677,5.336,0.262,6.129,0c0.032,0.007,0.036,0.048,0.048,0.073c0.096,0.309,0.2,0.616,0.298,0.925
		C6.5,1.089,6.55,1.175,6.539,1.272c-0.942,0.31-1.79,0.903-2.401,1.685C3.453,3.822,3.06,4.917,3.053,6.02
		C3.049,6.045,3.043,6.07,3.036,6.094C2.594,6.09,2.153,6.099,1.711,6.09C1.7,5.946,1.738,5.805,1.731,5.661
		c0.042-0.625,0.177-1.245,0.397-1.832C2.506,2.823,3.145,1.919,3.961,1.221z"/>
	<path d="M8.514,1.213c0.08-0.013,0.162-0.01,0.243-0.012c0.363-0.001,0.728-0.013,1.087,0.045c0.9,0.114,1.773,0.427,2.546,0.903
		c0.71,0.434,1.33,1.012,1.822,1.683c-0.031,0.032-0.064,0.061-0.1,0.086c-0.326,0.233-0.651,0.471-0.976,0.706
		c-0.167-0.215-0.337-0.428-0.533-0.618c-0.854-0.852-2.021-1.384-3.224-1.465C9.159,2.521,8.937,2.53,8.717,2.535
		C8.626,2.555,8.532,2.547,8.44,2.562c-0.291,0.038-0.581,0.091-0.86,0.181C7.531,2.759,7.441,2.798,7.43,2.718
		c-0.105-0.325-0.21-0.649-0.314-0.974C7.093,1.666,7.056,1.59,7.052,1.508C7.525,1.352,8.018,1.254,8.514,1.213z"/>
	<path d="M6.574,1.658c0.033-0.012,0.069-0.015,0.103-0.02c0.13,0.355,0.235,0.72,0.355,1.078C7.053,2.773,7.075,2.83,7.086,2.89
		C6.851,2.979,6.619,3.075,6.404,3.206C6.05,3.423,5.727,3.694,5.476,4.026C5.018,4.61,4.757,5.35,4.764,6.093
		c-0.443,0.001-0.887,0-1.331,0.001c0.001-0.117-0.001-0.234,0.005-0.35c0.025-0.136,0.023-0.276,0.052-0.412
		c0.143-0.875,0.538-1.71,1.134-2.368C5.147,2.37,5.829,1.922,6.574,1.658z"/>
	<path d="M8.715,2.913c0.288-0.005,0.578-0.015,0.864,0.026c0.84,0.099,1.651,0.432,2.319,0.951
		c0.268,0.206,0.516,0.438,0.728,0.701c0.067,0.085,0.142,0.164,0.195,0.259c-0.34,0.254-0.688,0.499-1.03,0.75
		c-0.037,0.035-0.076-0.004-0.096-0.036c-0.517-0.685-1.308-1.151-2.155-1.283C9.323,4.253,9.103,4.233,8.883,4.243
		C8.773,4.266,8.66,4.247,8.551,4.275C8.442,4.293,8.333,4.31,8.226,4.338C8.143,4.357,8.063,4.392,7.977,4.393
		C7.845,4.013,7.73,3.627,7.6,3.246C7.589,3.212,7.584,3.178,7.578,3.143C7.67,3.098,7.771,3.079,7.869,3.052
		C8.146,2.977,8.43,2.938,8.715,2.913z"/>
	<path d="M7.113,3.283c0.028-0.01,0.058-0.016,0.088-0.023c0.043,0.085,0.064,0.177,0.094,0.267c0.092,0.276,0.18,0.552,0.268,0.829
		c0.018,0.055,0.042,0.11,0.048,0.169C7.288,4.632,6.999,4.842,6.798,5.117C6.588,5.395,6.48,5.744,6.471,6.091
		C6.028,6.095,5.585,6.094,5.142,6.092C5.131,5.966,5.159,5.842,5.165,5.716c0.083-0.678,0.413-1.321,0.909-1.791
		C6.372,3.644,6.728,3.425,7.113,3.283z"/>
	<path d="M8.105,4.769C8.353,4.675,8.62,4.645,8.882,4.617C9.02,4.62,9.16,4.606,9.296,4.634c0.833,0.07,1.624,0.516,2.123,1.185
		c0.012,0.019,0.009,0.05-0.013,0.062c-0.333,0.245-0.671,0.483-1.001,0.73c-0.017,0.008-0.036,0.013-0.055,0.015
		c-0.231-0.318-0.582-0.545-0.966-0.631C9.221,5.949,9.049,5.964,8.882,5.963c-0.127-0.002-0.248,0.041-0.37,0.071
		C8.403,5.727,8.311,5.412,8.205,5.103C8.172,4.992,8.123,4.884,8.105,4.769z"/>
	<path d="M7.263,5.158C7.399,5.04,7.556,4.936,7.731,4.886c0.035,0.07,0.053,0.146,0.076,0.22c0.081,0.249,0.164,0.497,0.244,0.747
		c0.024,0.08,0.06,0.157,0.071,0.24c-0.424,0-0.848,0.002-1.272-0.001C6.856,5.742,7.004,5.395,7.263,5.158z"/>
	<path d="M12.953,5.222c0.031-0.024,0.066-0.041,0.104-0.049c0.105,0.125,0.187,0.268,0.275,0.406
		c0.463,0.754,0.768,1.605,0.882,2.483c0.032,0.149,0.025,0.301,0.05,0.45c0.008,0.273,0.007,0.546,0,0.819
		c-0.024,0.147-0.017,0.297-0.049,0.443c-0.134,1.051-0.539,2.066-1.163,2.922c-0.218-0.144-0.425-0.303-0.638-0.455
		c-0.142-0.109-0.293-0.207-0.435-0.317c0.017-0.063,0.06-0.114,0.096-0.167c0.436-0.636,0.704-1.378,0.819-2.138
		c0.005-0.126,0.03-0.249,0.04-0.374c0.004-0.221,0.006-0.442-0.001-0.663c-0.031-0.222-0.044-0.447-0.097-0.666
		c-0.104-0.508-0.284-1-0.536-1.453c-0.1-0.181-0.218-0.35-0.33-0.524C12.297,5.696,12.629,5.464,12.953,5.222z"/>
	<path d="M11.525,6.26c0.048-0.032,0.089-0.081,0.149-0.091c0.453,0.635,0.755,1.379,0.849,2.154
		c0.025,0.101,0.009,0.206,0.032,0.307c0.062,1.079-0.242,2.187-0.891,3.056c-0.362-0.248-0.707-0.521-1.069-0.769
		c0.004-0.024,0.009-0.048,0.025-0.066c0.257-0.362,0.433-0.778,0.53-1.21c0.033-0.16,0.064-0.321,0.063-0.484
		c0.026-0.153,0.025-0.31,0-0.463c-0.002-0.217-0.047-0.431-0.102-0.639c-0.1-0.377-0.265-0.737-0.492-1.054
		c-0.015-0.019-0.022-0.043-0.028-0.066C10.906,6.715,11.214,6.486,11.525,6.26z"/>
	<path d="M8.636,6.391c0.193-0.069,0.401-0.049,0.601-0.043c0.324,0.06,0.632,0.241,0.821,0.514C9.739,7.09,9.425,7.324,9.106,7.552
		C9.079,7.577,9.041,7.573,9.007,7.575C8.891,7.201,8.768,6.828,8.643,6.456C8.641,6.44,8.638,6.407,8.636,6.391z"/>
	<path d="M3.436,6.476c0.404-0.001,0.809,0,1.213-0.001c0.039-0.002,0.077,0.01,0.115,0.019C4.757,7.051,5.071,7.599,5.547,7.887
		c0.112,0.071,0.236,0.118,0.357,0.171c-0.14,0.419-0.271,0.842-0.411,1.261c-0.468-0.14-0.891-0.416-1.232-0.763
		c-0.44-0.462-0.736-1.064-0.81-1.699C3.425,6.731,3.433,6.603,3.436,6.476z"/>
	<path d="M0.005,6.475c0.36,0,0.72,0,1.081,0c0.082,0,0.163,0.019,0.246,0.015c-0.004,0.146,0.02,0.29,0.018,0.437
		c0.02,0.096,0.02,0.194,0.036,0.291c0.121,0.821,0.451,1.609,0.941,2.278c0.555,0.755,1.324,1.351,2.196,1.696
		c0.107,0.046,0.221,0.075,0.326,0.125c-0.144,0.414-0.276,0.832-0.408,1.249c-0.016-0.001-0.048-0.004-0.064-0.006
		c-0.828-0.274-1.598-0.722-2.247-1.304c-0.74-0.666-1.326-1.505-1.686-2.435C0.241,8.312,0.11,7.776,0.042,7.233
		C0.019,6.981-0.013,6.729,0.005,6.475z"/>
	<path d="M1.706,6.496c0.014-0.005,0.042-0.015,0.056-0.02C2.184,6.472,2.608,6.479,3.03,6.473c0.03,0.142,0.02,0.288,0.044,0.431
		c0.094,0.786,0.488,1.528,1.069,2.063C4.5,9.287,4.922,9.534,5.378,9.683c-0.137,0.412-0.273,0.824-0.401,1.238
		c-0.113,0.02-0.214-0.045-0.317-0.08c-0.72-0.286-1.366-0.755-1.859-1.352c-0.607-0.728-0.986-1.643-1.07-2.586
		C1.732,6.766,1.7,6.633,1.706,6.496z"/>
	<path d="M5.142,6.475c0.422,0,0.844,0,1.265,0C6.406,6.503,6.401,6.531,6.393,6.557C6.285,6.872,6.185,7.19,6.082,7.506
		C6.059,7.57,6.048,7.641,6.005,7.696C5.789,7.606,5.579,7.483,5.433,7.295C5.245,7.068,5.132,6.771,5.142,6.475z"/>
	<path d="M9.975,7.387c0.102-0.072,0.197-0.154,0.305-0.217c0.354,0.483,0.55,1.075,0.571,1.671
		c0.014,0.649-0.181,1.304-0.564,1.831c-0.02-0.004-0.038-0.011-0.055-0.021c-0.342-0.25-0.683-0.502-1.028-0.747
		c0.11-0.189,0.223-0.381,0.268-0.598c0.051-0.185,0.035-0.379,0.034-0.569C9.476,8.455,9.36,8.187,9.2,7.955
		c0.046-0.044,0.099-0.079,0.151-0.115C9.56,7.691,9.766,7.536,9.975,7.387z"/>
	<path d="M7.889,8.904c0.331-0.245,0.668-0.483,0.997-0.73C9.014,8.325,9.084,8.52,9.12,8.713c0.008,0.106,0.04,0.213,0.012,0.319
		C9.117,9.262,9.029,9.484,8.901,9.674C8.69,9.542,8.496,9.383,8.292,9.24C8.161,9.146,8.03,9.051,7.899,8.958
		C7.878,8.949,7.868,8.918,7.889,8.904z"/>
	<path d="M6.245,8.236c0.026,0.002,0.048,0.012,0.068,0.028c0.319,0.237,0.643,0.469,0.965,0.703
		c-0.027,0.077-0.095,0.129-0.15,0.185c-0.326,0.313-0.826,0.434-1.256,0.29c0.004-0.036,0.005-0.071,0.015-0.106
		C6.01,8.971,6.125,8.603,6.245,8.236z"/>
	<path d="M6.435,9.868c0.453-0.047,0.882-0.295,1.151-0.663C7.64,9.216,7.678,9.259,7.722,9.289C8.037,9.517,8.349,9.75,8.667,9.973
		c-0.021,0.064-0.076,0.108-0.115,0.161c-0.416,0.508-1.01,0.869-1.652,1.007c-0.518,0.115-1.069,0.096-1.571-0.079
		c0.139-0.42,0.27-0.842,0.412-1.261C5.966,9.857,6.202,9.914,6.435,9.868z"/>
	<path d="M8.962,10.223c0.046-0.021,0.08,0.028,0.115,0.05c0.325,0.241,0.657,0.473,0.981,0.717
		c-0.342,0.464-0.763,0.874-1.252,1.183c-0.543,0.356-1.164,0.589-1.804,0.693c-0.13,0.029-0.263,0.028-0.394,0.052
		c-0.239,0.006-0.479,0.007-0.718,0c-0.096-0.021-0.196-0.017-0.292-0.034c-0.269-0.04-0.533-0.107-0.794-0.183
		c0-0.059,0.027-0.113,0.046-0.168c0.121-0.365,0.235-0.732,0.36-1.096c0.067,0.003,0.129,0.031,0.193,0.047
		c0.392,0.103,0.802,0.131,1.205,0.089c0.701-0.074,1.38-0.373,1.9-0.851C8.679,10.575,8.823,10.4,8.962,10.223z"/>
	<path d="M10.325,11.255c0.016-0.036,0.065-0.036,0.091-0.011c0.252,0.192,0.514,0.37,0.766,0.561
		c0.084,0.064,0.178,0.118,0.251,0.195c-0.295,0.422-0.658,0.794-1.047,1.131c-0.982,0.836-2.228,1.353-3.511,1.477
		c-0.13,0.029-0.264,0.007-0.394,0.034c-0.197,0.011-0.395,0.011-0.591-0.015c-0.176,0.008-0.347-0.037-0.521-0.047
		C5,14.52,4.63,14.449,4.275,14.328c0-0.027,0.005-0.053,0.014-0.078c0.135-0.396,0.255-0.797,0.393-1.191
		c0.291,0.086,0.586,0.166,0.888,0.2c0.117,0.029,0.239,0.016,0.357,0.038c0.143-0.004,0.284,0.035,0.427,0.015
		c0.097-0.02,0.198-0.006,0.295-0.025c0.458-0.026,0.908-0.136,1.34-0.288C8.914,12.661,9.743,12.053,10.325,11.255z"/>
</g>
<g id="Layer_1">
</g>
</svg>
