<?xml version="1.0" encoding="iso-8859-1"?>
<!-- Generator: Adobe Illustrator 19.2.0, SVG Export Plug-In . SVG Version: 6.00 Build 0)  -->
<svg version="1.1" xmlns="http://www.w3.org/2000/svg" xmlns:xlink="http://www.w3.org/1999/xlink" x="0px" y="0px"
	 viewBox="0 0 80.561 79.991" style="enable-background:new 0 0 80.561 79.991;" xml:space="preserve">
<g id="Phototype_x5F_Satzherstellung">
	<path style="fill-rule:evenodd;clip-rule:evenodd;" d="M0.073,0.622c-0.088-0.194-0.003-0.455,0.15-0.551
		c7.424-0.247,15.186,0.238,22.586,0.1c0.456-0.008,1.463-0.397,1.552,0.451c-0.14,0.55-0.859,0.351-1.252,0.351
		c-7.169,0-14.404-0.151-21.684-0.15C0.981,0.823,0.425,0.965,0.073,0.622z"/>
	<path style="fill-rule:evenodd;clip-rule:evenodd;" d="M52.756,0.622c-0.363,0.789-2.273,0.032-2.954,0.501
		c1.957,0.797,4.187,1.321,6.108,2.153c7.508-0.183,15.66-0.1,23.487-0.1c0.448,0,1.112-0.043,1.151,0.351
		c0.073,0.734-2.007,0.435-2.403,0.451c-0.952,0.038-2.008,0-2.755,0c-5.164,0-12.152-0.078-17.427,0.1
		c-0.039,0.387,0.436,0.465,0.701,0.601c0.849,0.436,1.8,1.06,2.654,1.502c5.583-0.038,10.881,0.05,16.275,0.05
		c0.982,0,2.034-0.25,2.904,0.15c0.336,0.865-0.997,0.651-1.953,0.651c-3.73,0.001-7.394,0-11.167,0c-1.553,0-3.067-0.12-4.356,0.15
		C63.706,8,64.663,8.546,65.525,9.186c4.153,0.065,8.226,0.05,12.771,0.05c0.779,0,2.042-0.132,2.203,0.25
		c0.38,0.898-2.236,0.601-2.955,0.601c-3.515,0-7.422-0.082-10.716,0.1c0.196,0.536,0.583,0.734,0.951,1.102
		c0.348,0.347,0.634,0.819,1.102,0.951c0.736,0.208,1.971,0.03,3.005,0.05c2.198,0.043,3.679,0.05,6.06,0.05
		c0.839,0,2.534-0.259,2.604,0.301c0.091,0.735-1.727,0.5-2.354,0.5c-2.851,0-5.726-0.081-8.312,0.1
		c0.336,0.85,0.999,1.514,1.702,2.053c2.146,0.091,4.613,0.05,7.011,0.05c0.726,0,1.949-0.18,1.953,0.401
		c0.005,0.567-1.17,0.451-1.753,0.45c-2.099,0-4.582-0.08-6.459,0.1c0.253,0.882,0.832,1.438,1.352,2.054
		c1.721,0.063,3.71,0.064,5.559,0c0.701-0.025,1.371-0.033,1.252,0.5c-0.107,0.48-0.736,0.351-1.302,0.351
		c-1.554,0-3.575-0.115-4.808,0.15c0.105,0.731,0.629,1.473,1.102,2.003c0.804,0.071,1.914,0.067,2.904,0.05
		c0.778-0.013,2.15-0.41,2.104,0.601c-1.082,0.538-3.344-0.105-4.507,0.351c0.143,0.792,0.482,1.387,0.851,1.953
		c0.979,0.341,2.842-0.204,3.656,0.3c0,0.134,0,0.267,0,0.401c-0.657,0.511-2.41-0.074-3.155,0.351
		c0.016,0.458,0.126,0.768,0.251,1.101c0.062,0.165,0.218,0.707,0.45,0.851c0.594,0.37,2.51-0.329,2.504,0.501
		c-0.005,0.818-1.826,0.149-2.153,0.551c-0.001,0.677,0.223,1.541,0.601,2.003c0.484,0.2,1.634-0.264,1.503,0.551
		c0.014,0.631-1.098,0.138-1.352,0.5c0.116,0.598-0.063,1.437,0.3,1.853c0.315,0.361,1.014-0.061,1.052,0.601
		c0.075,0.56-0.63,0.338-0.852,0.601c0.063,0.556-0.058,1.234,0.15,1.703c0.183,0.411,0.663,0.242,0.701,0.701
		c0.104,0.572-0.532,0.402-0.601,0.801c0.132,0.587-0.118,0.923,0.05,1.503c0.084,0.289,0.569,0.429,0.601,0.701
		c0.048,0.411-0.496,0.497-0.601,0.901c-0.092,0.355-0.139,1.12-0.05,1.452c0.108,0.412,0.551,0.191,0.601,0.801
		c0.033,0.484-0.601,0.301-0.701,0.651c-0.05,0.551-0.177,1.025-0.15,1.652c0.109,0.408,0.992,0.043,0.852,0.701
		c0.05,0.55-0.703,0.298-1.002,0.501c-0.179,0.541-0.396,1.303-0.3,1.953c0.395,0.312,1.246-0.071,1.352,0.45
		c0.126,0.625-0.732,0.575-1.502,0.551c-0.448,0.405-0.624,1.343-0.651,2.003c0.491,0.446,1.77-0.132,2.104,0.4
		c0,0.134,0,0.267,0,0.401c-0.557,0.495-1.845,0.032-2.504,0.351c-0.312,0.524-0.657,1.276-0.651,1.953
		c0.723,0.446,2.513-0.176,3.155,0.35c0,0.101,0,0.201,0,0.301c-0.174,0.53-0.962,0.351-1.603,0.351c-0.669,0-1.405-0.04-1.903,0.05
		c-0.57,0.414-0.758,1.211-1.001,1.953c0.526,0.333,1.542,0.2,2.504,0.201c0.818,0,2.086-0.395,2.003,0.601
		c-0.342,0.345-0.986,0.179-1.503,0.2c-1.089,0.046-2.354,0.07-3.455,0.05c-0.571,0.497-0.898,1.238-1.202,2.003
		c0.755,0.338,2.107,0.2,3.355,0.2c0.49,0,1.211-0.038,1.753-0.05c0.472-0.011,1.287-0.071,1.002,0.651
		c-0.378,0.357-1.047,0.201-1.603,0.201c-1.676,0-3.376,0.066-5.108,0.05c-0.603,0.533-1.084,1.187-1.401,2.003
		c0.563,0.266,1.309,0.15,2.053,0.15c1.387,0,2.846,0,4.307,0c0.635,0,1.537-0.235,1.803,0.351c0,0.034,0,0.067,0,0.1
		c-0.279,0.676-1.291,0.4-1.953,0.4c-1.501,0-3.031,0-4.607,0c-0.801,0-1.706-0.127-2.304,0c-0.418,0.089-0.757,0.604-1.001,0.902
		c-0.279,0.34-0.682,0.645-0.751,1.102c0.729,0.247,1.689,0.2,2.604,0.2c1.939,0,3.381,0,5.509,0c0.511,0,2.381-0.158,2.504,0.25
		c0.243,0.812-1.671,0.551-2.504,0.551c-2.27,0-3.792-0.001-6.01,0c-1.056,0-2.194-0.157-3.004,0
		c-0.457,0.089-0.803,0.569-1.152,0.901c-0.376,0.357-0.877,0.615-0.951,1.102c1.042,0.271,2.209,0.15,3.405,0.15
		c2.835,0,5.905,0.001,8.813,0c0.453,0,1.208-0.198,1.402,0.351c0.009,0.741-0.936,0.501-1.452,0.501c-4.356,0-9.063,0-13.371,0
		c-0.983,0.585-1.952,1.186-2.653,2.053c5.158,0.319,10.973,0.032,16.625,0.15c0.301,0.006,0.854-0.109,0.852,0.401
		c0.159,0.646-1.406,0.451-2.153,0.451c-5.145,0-9.742-0.001-14.473,0c-0.826,0-1.727-0.117-2.454,0
		c-0.699,0.112-1.18,0.768-1.803,0.951c-0.417,0.484-1.304,0.499-1.603,1.102c1.736,0.271,3.68,0.15,5.659,0.15
		c5.262,0,10.686,0.001,15.774,0c0.312,0,0.943-0.166,1.052,0.351c0,0.05,0,0.101,0,0.15c-0.326,0.6-1.437,0.351-2.254,0.351
		c-3.887,0-7.908,0.001-12.118,0c-3.303,0-6.648,0.223-9.565,0c-0.252-0.02-0.463-0.114-0.701-0.1
		c-0.433,0.025-0.973,0.351-1.502,0.551c-1.434,0.54-3.171,1.032-4.507,1.602c0.755,0.503,2.557-0.298,2.904,0.551
		c0.012,0.635-0.668,0.428-1.202,0.451c-3.94,0.167-8.375-0.001-12.87,0c-3.13,0.001-6.298,0.105-9.865,0.05
		c-0.584-0.009-0.996-0.027-1.052-0.351c-0.171-1.002,2.546-0.201,2.905-0.651c-0.816-0.501-1.892-0.703-2.955-1.102
		c-0.44-0.165-0.993-0.349-1.502-0.551c-0.503-0.199-1.057-0.509-1.452-0.551c-0.28-0.03-0.568,0.078-0.852,0.1
		c-1.871,0.146-3.994,0.037-6.059-0.05c-4.003-0.169-8.185-0.05-12.169-0.05c-1.523,0-2.934-0.05-4.508-0.05
		c-0.338,0-1,0.174-1.151-0.351c0-0.033,0-0.066,0-0.1c0.044-0.548,0.704-0.399,1.052-0.4c6.984-0.037,14.504,0.293,21.334,0.05
		c-0.242-0.566-0.972-0.756-1.553-1.102c-0.538-0.32-1.136-0.85-1.652-1.001c-0.59-0.173-1.575-0.05-2.455-0.05
		c-5.185,0.001-9.52-0.1-14.723-0.101c-0.488,0-2.006,0.146-2.003-0.451c0.005-0.586,1.372-0.4,2.153-0.401
		c4.748,0,8.708,0.101,13.321,0.101c0.626,0,1.312,0.113,1.853-0.15c-0.679-0.84-1.659-1.379-2.504-2.053
		c-4.363,0.012-8.925-0.101-13.421-0.1c-0.484,0-1.415,0.237-1.402-0.501c0.202-0.551,0.962-0.351,1.452-0.35
		c2.891,0,5.854,0.019,8.814,0.05c1.18,0.013,2.332,0.2,3.356-0.1c-0.481-0.839-1.234-1.403-1.953-2.003
		c-2.848-0.138-6.103,0.043-9.115-0.101c-0.779-0.037-2.706,0.293-2.554-0.501c0.101-0.525,1.868-0.301,2.504-0.301
		c2.68,0,5.8,0.09,8.113-0.1c-0.329-0.874-0.975-1.429-1.602-2.003c-1.934-0.111-4.567-0.101-6.961-0.1
		c-0.611,0-2.168,0.233-2.054-0.451c0.195-0.652,1.204-0.401,1.854-0.4c1.999,0,4.423,0.208,6.31-0.101
		c-0.275-0.842-0.817-1.42-1.353-2.003c-1.551-0.067-3.94-0.057-5.508-0.1c-0.484-0.014-1.419,0.232-1.303-0.601
		c0.296-0.344,0.86-0.212,1.353-0.2c1.481,0.036,3.488,0.089,4.758-0.15c-0.186-0.834-0.6-1.437-1.053-2.003
		c-0.821-0.039-2.799-0.09-3.855-0.1c-0.491-0.005-1.38,0.25-1.202-0.601c0.491-0.349,1.382-0.2,2.204-0.2
		c0.82,0,1.693,0.102,2.253-0.15c-0.116-0.818-0.454-1.416-0.851-1.953c-0.992-0.311-2.783,0.179-3.607-0.3
		c0.031-0.136-0.063-0.397,0.05-0.451c0.623-0.529,2.398,0.094,3.105-0.351c-0.093-0.775-0.358-1.377-0.651-1.953
		c-0.657-0.427-2.659,0.489-2.504-0.751c0.335-0.467,1.632,0.029,2.054-0.351c0.08-0.701-0.17-1.497-0.501-1.953
		c-0.421-0.297-1.673,0.238-1.553-0.601c0.003-0.582,0.958-0.21,1.303-0.451c0.131-0.66-0.134-1.327-0.251-1.903
		c-0.19-0.343-1.047-0.021-1.052-0.551c-0.126-0.626,0.63-0.373,0.802-0.701c-0.045-0.607,0.125-1.123-0.15-1.653
		c-0.162-0.312-0.591-0.305-0.651-0.601c-0.101-0.5,0.337-0.452,0.551-0.852c-0.062-0.541,0.085-1.003,0-1.402
		c-0.091-0.425-0.511-0.466-0.551-0.851c-0.101-0.414,0.453-0.512,0.551-0.901c0.079-0.314,0.11-0.963,0.05-1.302
		c-0.083-0.474-0.601-0.421-0.601-0.901c-0.024-0.459,0.525-0.344,0.651-0.651c0.09-0.545,0.184-1.085,0.2-1.703
		c-0.12-0.364-0.883-0.085-0.852-0.601c-0.128-0.679,0.717-0.386,1.002-0.651c0.14-0.547,0.398-1.235,0.301-1.853
		c-0.224-0.344-1.189,0.054-1.303-0.4c0-0.133,0-0.267,0-0.401c0.286-0.442,1.102-0.061,1.553-0.3
		c0.337-0.482,0.607-1.293,0.551-2.003c-0.454-0.462-2.046,0.378-2.104-0.551c0.146-0.806,1.723-0.181,2.404-0.451
		c0.447-0.41,0.671-1.292,0.751-1.903c-0.623-0.646-2.921,0.383-3.155-0.651c0.107-0.6,0.978-0.401,1.603-0.401
		c0.708,0,1.451,0.04,1.953-0.05c0.517-0.435,0.714-1.189,0.951-1.903c-0.446-0.337-1.375-0.201-2.303-0.201
		c-0.613,0-2.059,0.229-2.204-0.3c-0.229-0.838,1.582-0.551,2.254-0.551c1.015,0,1.958,0.041,2.754-0.05
		c0.546-0.473,0.872-1.164,1.152-1.903c-0.714-0.342-1.969-0.2-3.155-0.2c-0.481,0-2.871,0.198-3.005-0.301
		c-0.163-0.613,0.608-0.551,1.303-0.551c1.461,0,2.182,0,3.604,0c0.602,0,1.365,0.107,1.804,0c0.381-0.092,0.622-0.578,0.851-0.901
		c0.268-0.378,0.537-0.622,0.602-1.102c-1.119-0.324-2.688-0.078-4.207-0.15c-0.573-0.027-1.115-0.05-2.102-0.05
		c-0.588,0-1.765,0.123-1.854-0.3c-0.156-0.745,1.136-0.533,1.854-0.501c1.936,0.085,2.874-0.001,4.808,0
		c0.838,0,1.828,0.123,2.353-0.05c0.361-0.12,0.629-0.57,0.9-0.901c0.287-0.349,0.643-0.612,0.702-1.052
		c-0.701-0.337-1.693-0.2-2.655-0.2c-1.978,0-3.451,0-5.607,0c-0.578,0-2.355,0.136-2.355-0.451c0.001-0.619,1.786-0.4,2.655-0.401
		c2.314,0,3.799-0.069,6.009,0c0.981,0.031,2.179,0.219,2.954,0.05c0.442-0.096,0.775-0.624,1.102-0.951
		c0.391-0.391,0.779-0.593,0.951-1.102c-0.468-0.263-1.086-0.15-1.652-0.15c-2.773,0-5.916-0.085-8.812-0.101
		c-0.73-0.004-3.136,0.271-3.206-0.35c-0.063-0.569,0.73-0.519,1.452-0.501c4.367,0.104,9.059,0.038,13.422,0.1
		c0.467-0.262,0.885-0.626,1.301-0.952c0.4-0.312,0.927-0.566,1.152-1.051c-0.641-0.289-1.41-0.125-2.153-0.15
		c-4.354-0.15-8.876-0.101-13.471-0.1c-0.423,0-1.858,0.185-1.703-0.551C0.139,5.836,3.358,6.081,4.08,6.081
		c5.012,0,9.893,0.114,14.974,0.1c0.607-0.283,1.213-0.621,1.803-0.951c0.564-0.316,1.231-0.577,1.603-1.102
		c-5.146-0.378-10.517-0.016-15.825-0.25c-1.064-0.047-2.094,0-3.404,0c-0.948,0-2.968,0.182-3.156-0.25
		c-0.392-0.905,1.83-0.578,2.404-0.551c3.123,0.148,6.449,0.05,9.314,0.05c2.18,0,4.172,0.061,6.109,0.05
		c2.043-0.011,4.069-0.163,6.109,0c0.271,0.022,0.445,0.11,0.651,0.1c0.436-0.02,1.066-0.312,1.553-0.501
		c1.446-0.561,3.007-1.024,4.457-1.602c-0.207-0.564-2.849,0.304-2.855-0.601c-0.003-0.454,0.482-0.401,1.102-0.401
		c1.565,0,2.98,0.001,4.457,0c6.345,0,11.825-0.05,18.128-0.05C51.966,0.121,52.793-0.055,52.756,0.622z M50.802,2.425
		c-1.542-0.446-3.136-0.755-4.857-1.002c-4.348-0.623-8.889-0.482-12.87,0.25c-1.713,0.315-3.398,0.647-4.657,1.352
		c0.904,0.268,1.9,0.15,2.854,0.15c3.018,0,6.013,0,9.014,0c4.025,0,8.111,0.121,11.869-0.15C51.845,2.64,51.277,2.562,50.802,2.425
		z M27.416,3.176c-1.014,0.359-2.118,0.817-3.205,1.302c-1.037,0.463-2.141,0.862-2.804,1.552c0.761,0.428,1.842-0.06,2.654,0.15
		c0.233,0.061,0.388,0.369,0.601,0.401c0.344,0.052,1.082-0.393,1.502-0.551c1.22-0.458,2.092-0.822,3.306-1.202
		c0.613-0.192,1.31-0.253,1.752-0.701c-0.901-0.266-2.407,0.071-3.305-0.2c-0.137-0.163-0.087-0.514-0.2-0.701
		C27.618,3.237,27.469,3.157,27.416,3.176z M56.211,4.378c-0.85-0.451-2.286-1.012-3.255-1.202
		c-0.253,0.114-0.069,0.665-0.351,0.751c-1.022,0.129-2.329-0.025-3.255,0.2c0.945,0.599,2.118,0.734,3.305,1.152
		c0.459,0.162,1.009,0.415,1.602,0.651c0.429,0.17,1.263,0.649,1.652,0.601c0.22-0.027,0.392-0.295,0.651-0.351
		c0.745-0.159,1.793,0.275,2.404-0.2C58.209,5.348,57.217,4.911,56.211,4.378z M49.6,5.279c-3.032-0.791-6.772-1.375-10.516-1.202
		c-2.867,0.133-5.605,0.54-7.963,1.152c-0.787,0.204-1.641,0.354-2.203,0.851c1.112,0.271,2.344,0.101,3.556,0.1
		c6.157,0,12.949,0.099,19.129-0.1C51.146,5.569,50.339,5.472,49.6,5.279z M56.712,8.134c-0.997-0.599-2.466-1.48-3.706-1.703
		c-0.258,0.076-0.179,0.489-0.45,0.551c-1.12,0.148-2.611-0.074-3.605,0.201c0.5,0.402,1.172,0.501,1.752,0.701
		c0.626,0.215,1.242,0.404,1.854,0.651c1.177,0.475,2.316,1.055,3.505,1.452c0.161-0.173,0.043-0.625,0.301-0.701
		c0.501-0.252,1.343,0.144,1.703-0.25C57.84,8.529,57.216,8.437,56.712,8.134z M24.662,7.633c-0.887,0.446-1.851,0.759-2.404,1.452
		c0.419,0.316,1.437,0.033,2.004,0.2c0.169,0.164,0.091,0.577,0.25,0.752c1.78-0.671,3.524-1.522,5.309-2.153
		c0.593-0.21,1.306-0.249,1.803-0.701c-1.089-0.206-2.569-0.083-3.656-0.15c-0.203-0.114-0.139-0.496-0.4-0.551
		C26.489,6.69,25.553,7.185,24.662,7.633z M19.604,7.032c-0.064,0.003-0.069,0.064-0.15,0.05c-0.504,0.265-1.002,0.533-1.402,0.901
		c-0.441,0.343-1.049,0.52-1.252,1.102c0.987,0.112,2.35,0.361,3.305,0.1c0.527-0.144,1.086-0.646,1.603-0.952
		c0.582-0.344,1.2-0.604,1.503-1.051C22.266,6.874,20.786,7.103,19.604,7.032z M48.75,8.184c-3.403-0.908-7.646-1.399-11.618-0.952
		c-1.874,0.211-3.745,0.499-5.358,0.952c-0.808,0.226-1.687,0.421-2.254,0.952c6.932,0.139,14.685,0.225,21.483-0.05
		C50.43,8.573,49.571,8.403,48.75,8.184z M62.371,7.934c-0.473-0.337-1.008-0.65-1.503-0.901c-1.153,0.032-2.435-0.064-3.505,0.05
		c-0.095-0.011-0.111,0.056-0.2,0.05c0.323,0.554,1.013,0.733,1.552,1.052c0.544,0.321,1.069,0.7,1.603,1.002
		c0.562,0.102,1.196,0.029,1.854,0c0.516-0.023,1.088,0.134,1.401-0.15C63.378,8.58,62.827,8.259,62.371,7.934z M53.106,9.736
		c-0.277-0.01-0.4,0.283-0.752,0.351c-1.146,0.22-3.066-0.319-3.955,0.2c2.816,1.031,5.44,1.909,7.712,3.455
		c0.718,0.489,1.526,1.262,2.253,1.503c0.499,0.164,1.289,0.078,1.953,0.05c0.365-0.015,0.802,0.128,1.052-0.15
		c-0.097-0.486-0.659-0.738-1.052-1.052c-0.426-0.341-0.835-0.729-1.302-0.952c-0.898-0.102-2.226,0.224-2.805-0.2
		c-0.03-0.12-0.071-0.229-0.05-0.4c0.127-0.375,0.858-0.145,1.102-0.401C56.219,10.997,54.69,10.339,53.106,9.736z M27.467,9.736
		c-1.546,0.708-3.207,1.3-4.357,2.404c0.207,0.294,1.002-0.001,1.202,0.301c0.116,0.209,0.067,0.369,0,0.601
		c-0.948,0.312-2.096-0.102-2.954,0.15c-0.449,0.131-0.931,0.603-1.303,0.901c-0.419,0.336-0.976,0.643-1.052,1.152
		c0.875,0.151,2.112,0.124,3.055,0.05c2.176-1.566,4.666-2.906,7.312-3.956c0.892-0.354,1.879-0.564,2.704-1.102
		C30.819,9.788,28.415,10.491,27.467,9.736z M15.347,10.087c-0.317,0.118-0.763,0.686-1.052,0.952
		c-0.39,0.357-0.845,0.672-0.901,1.102c0.735,0.181,1.862,0.187,2.704,0.1c0.757-0.695,1.733-1.172,2.304-2.053
		C17.498,10.13,16.206,9.768,15.347,10.087z M20.405,10.087c-0.479,0.265-0.908,0.623-1.352,0.952
		c-0.432,0.32-1.019,0.575-1.202,1.151c0.864,0.221,2.127,0.043,3.155,0.101c0.536-0.293,1.028-0.663,1.552-1.002
		c0.5-0.324,1.153-0.557,1.452-1.102C22.995,9.973,21.434,10.133,20.405,10.087z M59.967,10.087c-1.138,0.03-2.398-0.062-3.455,0.05
		c-0.155,0.38,0.33,0.522,0.551,0.651c0.836,0.49,1.648,1.079,2.454,1.503c0.984-0.084,2.313,0.177,3.055-0.15
		C61.91,11.249,60.927,10.68,59.967,10.087z M66.226,10.988c-0.362-0.33-0.779-0.644-1.202-0.901
		c-0.972,0.029-2.063-0.061-2.954,0.05c0.051,0.521,0.649,0.829,1.052,1.152c0.434,0.348,0.884,0.747,1.352,1.002
		c0.868-0.05,1.946,0.11,2.654-0.101C67.02,11.667,66.569,11.3,66.226,10.988z M49.501,11.639
		c-2.753-0.941-6.524-1.621-10.166-1.452c-2.66,0.123-5.109,0.545-7.262,1.152c-0.722,0.203-1.522,0.337-2.003,0.851
		c6.637,0.18,13.775,0.183,20.382,0C50.328,11.826,49.841,11.755,49.501,11.639z M54.808,13.893
		c-0.582-0.325-1.369-0.832-1.952-0.852c-0.16-0.005-0.295,0.083-0.451,0.1c-1.336,0.144-3.161-0.259-4.407,0.2
		c1.741,0.705,3.456,1.335,5.059,2.153c1.598,0.817,3.012,1.795,4.356,2.855c0.913-0.055,2.054,0.117,2.805-0.101
		c-0.091-0.535-0.6-0.854-0.952-1.151c-0.387-0.328-0.824-0.629-1.252-0.902c-0.604-0.08-1.573,0.205-1.803-0.25
		c-0.203-0.384,0.206-0.553,0.2-0.901C56.07,14.695,55.465,14.259,54.808,13.893z M12.393,13.092
		c-0.4,0.085-0.792,0.589-1.103,0.951c-0.312,0.363-0.741,0.743-0.7,1.102c0.606,0.246,1.753,0.159,2.504,0.1
		c0.604-0.615,1.494-1.209,1.752-2.004C14.151,13.1,13.132,12.934,12.393,13.092z M27.467,13.092
		c-1.166,0.654-2.545,1.094-3.405,2.053c0.101,0.266,0.407,0.327,0.3,0.801c-0.323,0.411-1.274,0.194-1.952,0.25
		c-0.789,0.647-1.797,1.074-2.254,2.053c0.752,0.215,1.89,0.047,2.805,0.101c2.163-1.46,4.443-2.924,7.011-3.957
		c0.846-0.34,1.777-0.57,2.554-1.102C30.979,13.037,29.103,13.314,27.467,13.092z M16.55,13.142
		c-0.758,0.545-1.555,1.049-1.854,2.053c0.67,0.215,1.723,0.047,2.555,0.1c0.407-0.289,0.775-0.625,1.151-0.951
		c0.354-0.308,0.864-0.59,1.002-1.102C18.637,13.024,17.478,13.197,16.55,13.142z M63.873,13.142
		c-0.923,0.062-2.097-0.127-2.854,0.1c-0.079,0.298,0.679,0.824,1.002,1.102c0.454,0.391,0.844,0.733,1.201,0.951
		c0.828-0.09,2.024,0.188,2.604-0.15C65.491,14.36,64.604,13.695,63.873,13.142z M68.28,13.192c-0.72-0.115-1.652-0.018-2.454-0.05
		c-0.06,0.024-0.113,0.054-0.15,0.1c-0.145,0.318,0.482,0.733,0.802,1.052c0.484,0.485,0.717,1.033,1.602,1.052
		c0.593,0.013,1.409,0.001,1.903-0.2C69.575,14.333,68.964,13.727,68.28,13.192z M48.899,14.644
		c-2.365-0.823-6.033-1.536-8.913-1.402c-2.684,0.125-5.173,0.482-7.311,1.102c-0.71,0.206-1.461,0.379-1.953,0.851
		c1.188,0.267,2.449,0.15,3.706,0.15c3.926,0,7.832-0.062,11.567-0.05c1.277,0.004,2.61,0.198,3.807-0.1
		C49.677,14.882,49.23,14.759,48.899,14.644z M9.688,16.146c-0.635,0.223-1.147,1.484-1.452,1.953
		c0.577,0.265,1.774,0.185,2.404,0.1c0.548-0.571,1.101-1.136,1.452-1.903C11.509,16.127,10.302,15.932,9.688,16.146z
		 M13.545,16.196c-0.532,0.636-1.246,1.091-1.503,2.003c0.619,0.189,1.756,0.106,2.455,0.05c0.582-0.608,1.182-1.207,1.552-1.953
		C15.487,16.012,14.263,16.16,13.545,16.196z M17.651,16.247c-0.339,0.142-0.721,0.62-1.002,0.901
		c-0.336,0.336-0.762,0.668-0.751,1.052c0.601,0.277,1.849,0.141,2.605,0.1c0.383-0.284,0.748-0.588,1.051-0.952
		c0.334-0.334,0.857-0.479,0.952-1.052C19.667,16.228,18.471,15.903,17.651,16.247z M56.06,18.4
		c-1.023-0.879-2.275-1.53-3.505-2.204c-1.625-0.087-3.542-0.082-5.059,0.1c0.594,0.493,1.393,0.702,2.153,1.002
		c0.99,0.39,1.785,0.918,2.905,1.052c1.046,1.24,2.661,1.913,3.855,3.004c0.841-0.078,2.006,0.169,2.604-0.15
		c-0.679-0.94-1.422-1.816-2.755-2.103C56.136,18.925,56.157,18.604,56.06,18.4z M62.721,16.196c-0.985,0.098-2.11-0.246-2.805,0.15
		c0.42,0.732,1.335,1.402,2.104,1.953c0.713,0.042,1.946,0.18,2.504-0.1C64.161,17.294,63.367,16.82,62.721,16.196z M66.927,16.196
		c-0.838-0.002-1.824-0.165-2.554,0.1c0.358,0.86,1.113,1.324,1.652,2.003c0.718,0.042,1.891,0.172,2.454-0.1
		C68.209,17.286,67.502,16.808,66.927,16.196z M70.884,16.196c-0.696-0.037-1.752-0.067-2.403,0.1
		c0.351,0.851,0.896,1.508,1.603,2.003c0.613,0.043,1.745,0.179,2.203-0.1C71.987,17.363,71.459,16.757,70.884,16.196z
		 M28.168,16.196c-1.334,0.62-2.562,1.346-3.656,2.204c-0.161,0.206-0.066,0.668-0.351,0.752c-0.198,0.085-0.527,0.04-0.751,0.1
		c-0.394,0.263-0.753,0.588-1.102,0.901c-0.333,0.299-0.793,0.597-0.901,1.102c0.729,0.222,1.86,0.042,2.754,0.1
		c1.229-1.024,2.748-1.759,3.856-2.904c1.162-0.203,1.896-0.766,2.854-1.152c0.765-0.308,1.548-0.481,2.203-0.952
		C31.728,16.007,29.76,16.289,28.168,16.196z M47.347,17.398c-2.796-0.878-6.245-1.322-9.665-0.952
		c-1.621,0.176-3.177,0.483-4.508,0.901c-0.672,0.211-1.44,0.39-1.853,0.901c0.669,0.126,1.451,0.154,2.153,0.15
		c5.121-0.024,10.671,0.004,15.725-0.15C48.842,17.675,48.03,17.613,47.347,17.398z M7.485,19.151
		c-0.434,0.602-0.937,1.132-1.102,2.003c0.536,0.215,1.455,0.046,2.153,0.1c0.513-0.572,1.021-1.149,1.252-2.003
		C9.259,19.001,8.161,19.093,7.485,19.151z M11.191,19.201c-0.531,0.538-1.052,1.085-1.253,1.953
		c0.486,0.282,1.439,0.097,2.154,0.15c0.627-0.525,1.125-1.179,1.452-2.003C13.009,19.041,11.877,19.149,11.191,19.201z
		 M14.947,19.251c-0.493,0.608-1.142,1.063-1.353,1.953c0.742,0.083,1.704,0.35,2.304,0.05c0.265-0.132,0.566-0.621,0.802-0.901
		c0.275-0.329,0.66-0.684,0.65-1.052C16.739,19.115,15.637,19.195,14.947,19.251z M19.103,19.201
		c-0.43,0.092-0.79,0.613-1.101,0.951c-0.327,0.354-0.736,0.719-0.702,1.052c0.547,0.322,1.666,0.071,2.455,0.15
		c0.433-0.209,0.677-0.627,1.001-0.951c0.317-0.317,0.807-0.587,0.901-1.102C20.857,19.242,19.874,19.037,19.103,19.201z
		 M28.668,19.301c-0.542,0.196-1.101,0.684-1.652,1.052c-1.166,0.777-2.115,1.498-3.055,2.404c-0.469,0.452-1.086,0.867-1.252,1.502
		c0.337,0.232,1.062,0.074,1.502,0.201c0.275,0.042,0.084,0.55,0.351,0.601c1.111-0.843,2.124-1.782,3.205-2.654
		c0.018-0.317-0.06-0.728,0.101-0.901c0.334-0.2,1.011-0.058,1.502-0.101c0.986-0.526,2.072-1.083,3.155-1.502
		c0.339-0.131,0.86-0.192,1.001-0.601C31.884,19.461,30.049,18.803,28.668,19.301z M56.161,22.306
		c-1.396-1.109-2.725-2.283-4.457-3.055c-0.039-0.011-0.099-0.001-0.101-0.05c-1.021,0.037-2.178-0.048-3.204,0
		c-0.492,0.023-1.081-0.027-1.453,0.2c1.396,0.658,2.89,1.217,4.207,1.953c0.554,0.064,1.417-0.181,1.603,0.25
		c0,0.233,0,0.467,0,0.701c0.483,0.509,1.077,0.889,1.602,1.352c0.526,0.464,1.014,1.01,1.652,1.352
		c0.185-0.133,0.109-0.525,0.351-0.601c0.483-0.001,0.983,0.014,1.302-0.15C57.405,23.365,56.519,23.099,56.161,22.306z
		 M62.371,20.152c-0.239-0.279-0.545-0.775-0.901-0.901c-0.7-0.247-1.674,0.036-2.555,0c-0.068-0.002-0.109,0.024-0.15,0.05
		c0.426,0.893,1.23,1.407,1.903,2.053c0.764-0.104,1.962,0.226,2.403-0.2C63.052,20.78,62.673,20.505,62.371,20.152z M65.575,19.251
		c-0.731-0.081-1.772-0.081-2.504,0c-0.078,0.463,0.399,0.791,0.651,1.102c0.28,0.346,0.541,0.786,0.951,0.951
		c0.635,0.047,1.773,0.173,2.254-0.1C66.677,20.353,66.088,19.84,65.575,19.251z M69.382,19.251
		c-0.666-0.048-1.771-0.147-2.354,0.05c0.135,0.769,0.827,1.408,1.302,2.003c0.644,0.057,1.689,0.134,2.254-0.05
		C70.41,20.36,69.87,19.831,69.382,19.251z M72.987,19.251c-0.605-0.019-1.763-0.207-2.203,0.101
		c0.15,0.717,0.714,1.456,1.201,2.003c0.773-0.088,1.617,0.203,2.153-0.1C73.958,20.384,73.51,19.78,72.987,19.251z M45.745,20.052
		c-1.778-0.506-4.004-0.799-6.109-0.701c-2.267,0.105-4.314,0.503-6.06,1.102c-0.59,0.202-1.263,0.309-1.603,0.801
		c5.293,0.191,11.188,0.183,16.575,0C47.952,20.638,46.836,20.363,45.745,20.052z M5.833,22.156
		c-0.501,0.484-0.816,1.153-1.002,1.953c0.438,0.328,1.62,0.225,2.203,0.1c0.361-0.59,0.768-1.136,0.902-1.953
		C7.485,21.991,6.434,22.108,5.833,22.156z M9.288,22.156c-0.49,0.528-0.868,1.168-1.052,2.003c0.456,0.275,1.542,0.142,2.153,0.1
		c0.428-0.544,0.951-1.246,1.052-1.953C10.957,22.026,9.874,22.179,9.288,22.156z M12.844,22.206
		c-0.521,0.548-0.97,1.167-1.202,2.003c0.506,0.25,1.552,0.155,2.203,0.1c0.473-0.531,1.082-1.187,1.152-1.953
		C14.618,21.988,13.454,22.182,12.844,22.206z M16.499,22.206c-0.621,0.465-1.226,1.21-1.352,2.003
		c0.528,0.298,1.459,0.136,2.152,0.15c0.577-0.562,1.271-1.262,1.453-2.053C18.184,22.089,17.229,22.26,16.499,22.206z
		 M20.255,22.256c-0.572,0.596-1.197,1.139-1.502,2.003c0.575,0.268,1.727,0.142,2.453,0.101c0.598-0.639,1.292-1.18,1.703-2.003
		C22.302,22.069,21.02,22.221,20.255,22.256z M29.92,22.206c-0.585,0.092-1.318,0.655-1.853,1.052
		c-1.464,1.087-3.018,2.551-3.956,3.856c0.087,0.371,0.427,0.585,0.2,1.002c-0.211,0.173-0.709,0.059-1.002,0.15
		c-0.526,0.541-0.965,1.171-1.201,2.003c0.444,0.307,1.421,0.081,2.103,0.15c0.836-0.734,1.36-1.779,2.104-2.604
		c0.378-0.415,0.786-0.773,1.202-1.152c0.399-0.363,0.887-0.768,1.102-1.302c-0.389-0.17-0.909-0.095-0.852-0.601
		c0.083-0.718,1.896-0.144,2.604-0.4c0.619-0.29,1.198-0.74,1.852-1.052c0.651-0.31,1.469-0.419,1.903-1.001
		C32.774,22.287,31.212,22.004,29.92,22.206z M56.361,27.063c-1.419-2.053-3.376-3.568-5.559-4.858
		c-1.428,0.108-3.303-0.23-4.407,0.201c0.504,0.324,1.219,0.609,1.953,0.951c0.644,0.3,1.341,0.846,1.903,1.002
		c0.764,0.212,2.741-0.442,2.504,0.651c-0.128,0.272-0.667,0.134-0.852,0.351c0.22,0.534,0.755,0.79,1.152,1.152
		c1.251,1.14,2.143,2.554,3.204,3.856c0.559,0.02,1.678,0.224,2.004-0.15c-0.088-0.713-0.679-1.358-1.102-1.903
		C56.253,28.409,55.945,27.767,56.361,27.063z M60.117,22.256c-0.752-0.077-1.803-0.084-2.554,0
		c-0.129,0.551,0.492,0.772,0.751,1.102c0.305,0.25,0.464,0.834,0.951,1.002c0.289,0.099,0.566,0.017,0.901,0
		c0.475-0.024,1.112,0.134,1.402-0.15C61.41,23.433,60.651,22.823,60.117,22.256z M64.023,22.256c-0.683-0.081-1.671-0.081-2.353,0
		c-0.134,0.506,0.367,0.796,0.601,1.102c0.23,0.387,0.453,0.782,0.852,1.002c0.697-0.054,1.617,0.115,2.153-0.101
		C65.173,23.472,64.534,22.801,64.023,22.256z M67.728,22.256c-0.654-0.053-1.73-0.141-2.303,0.05
		c0.279,0.822,0.688,1.515,1.302,2.003c0.581,0.063,1.601,0.132,2.104-0.05C68.667,23.388,68.211,22.81,67.728,22.256z
		 M71.184,22.256c-0.583-0.062-1.6-0.133-2.104,0.05c0.078,0.746,0.641,1.425,1.052,2.003c0.666,0.011,1.656,0.236,2.153-0.05
		C72.116,23.394,71.752,22.723,71.184,22.256z M72.636,22.256c-0.147,0.736,0.56,1.429,0.852,2.053c0.537,0.152,1.618,0.165,2.153,0
		c0.01-0.773-0.496-1.432-0.852-2.003C74.22,22.16,73.272,22.174,72.636,22.256z M44.442,22.857
		c-1.457-0.336-3.213-0.561-4.507-0.501c-2.346,0.109-4.249,0.488-5.959,1.152c-0.485,0.188-1.039,0.349-1.302,0.751
		c1.152,0.269,2.426,0.15,3.706,0.15c1.268,0,2.57,0,3.855,0c2.608,0,5.269,0.118,7.612-0.15
		C47.158,23.6,45.811,23.173,44.442,22.857z M4.331,25.21c-0.268,0.574-0.687,1.242-0.651,1.953c0.472,0.212,1.319,0.049,1.952,0.1
		c0.463-0.489,0.737-1.166,0.852-2.003C5.942,25.093,4.966,25.059,4.331,25.21z M7.836,25.161c-0.585,0.384-0.716,1.22-0.952,1.953
		c0.499,0.334,1.33,0.121,2.054,0.15c0.459-0.493,0.757-1.146,0.901-1.953C9.425,25.008,8.487,25.227,7.836,25.161z M11.091,25.21
		c-0.418,0.534-0.75,1.153-0.901,1.953c0.43,0.305,1.387,0.083,2.054,0.15c0.485-0.499,0.811-1.159,1.001-1.953
		C12.813,25.036,11.735,25.163,11.091,25.21z M14.646,25.21c-0.561,0.457-0.893,1.144-1.102,1.953
		c0.358,0.334,1.427,0.198,2.003,0.15c0.44-0.552,0.987-1.238,1.052-2.003C16.114,25.111,15.288,25.253,14.646,25.21z
		 M17.952,25.261c-0.433,0.602-0.945,1.125-1.102,2.003c0.535,0.215,1.455,0.047,2.152,0.1c0.542-0.56,1.018-1.186,1.303-2.003
		C19.782,25.087,18.629,25.217,17.952,25.261z M21.907,25.21c-0.59,0.144-1.369,1.489-1.502,2.053c0.715,0.13,1.656,0.305,2.254,0.1
		c0.332-0.114,0.615-0.655,0.851-0.951c0.301-0.379,0.73-0.698,0.751-1.102C23.522,25.262,22.604,25.041,21.907,25.21z
		 M30.621,25.261c-0.464,0.25-0.897,0.579-1.302,0.901c-0.388,0.309-0.911,0.61-1.052,1.151c0.821,0.193,2.151,0.102,3.055,0.05
		c0.523-0.349,1.076-0.671,1.652-1.001c0.571-0.327,1.275-0.503,1.703-1.001C33.449,25.102,32.008,25.294,30.621,25.261z
		 M51.303,26.212c-0.351-0.293-0.727-0.733-1.152-0.901c-0.559-0.222-1.21-0.048-1.853-0.05c-0.819-0.003-1.612-0.086-2.403,0.05
		c0.367,0.564,1.124,0.692,1.702,1.002c0.611,0.327,1.151,0.718,1.703,1.051c0.969-0.082,2.279,0.176,3.005-0.15
		C52.152,26.775,51.68,26.528,51.303,26.212z M59.467,26.212c-0.199-0.29-0.399-0.752-0.702-0.901c-0.625-0.309-1.663-0.046-2.453,0
		c0.235,0.934,0.897,1.439,1.452,2.053c0.697-0.087,1.752,0.183,2.203-0.15C60.088,26.854,59.686,26.533,59.467,26.212z
		 M62.421,25.261c-0.662-0.034-1.799-0.183-2.304,0.1c0.293,0.809,0.781,1.423,1.302,2.003c0.698-0.07,1.694,0.158,2.153-0.15
		C63.368,26.383,62.925,25.792,62.421,25.261z M65.976,25.261c-0.604-0.081-1.501-0.081-2.104,0
		c-0.191,0.369,0.163,0.78,0.351,1.102c0.201,0.346,0.376,0.785,0.701,0.951c0.571,0.067,1.558,0.125,2.053-0.05
		C66.916,26.518,66.461,25.749,65.976,25.261z M67.328,25.311c0.066,0.757,0.531,1.535,1.002,2.053
		c0.649-0.052,1.515,0.113,2.003-0.1c-0.006-0.726-0.474-1.386-0.801-1.953C68.977,25.156,67.883,25.15,67.328,25.311z
		 M70.784,25.311c-0.042,0.763,0.447,1.42,0.751,2.003c0.559,0.093,1.707,0.261,2.104-0.1c-0.136-0.8-0.401-1.469-0.852-1.953
		C72.087,25.348,71.322,25.062,70.784,25.311z M74.089,25.411c0.017,0.65,0.415,1.355,0.701,1.903
		c0.541,0.142,1.702,0.213,2.104-0.1c-0.105-0.78-0.37-1.399-0.751-1.903C75.504,25.312,74.489,25.04,74.089,25.411z M45.895,26.513
		c-2.768-1.159-6.683-1.511-9.815-0.501c-0.987,0.318-2.044,0.564-2.604,1.252c2.233,0.332,4.774,0.094,7.111,0.1
		c2.223,0.007,4.445,0.162,6.51-0.1C46.92,26.836,46.358,26.707,45.895,26.513z M56.161,34.024c-0.094-0.301,0.248-0.675,0.25-1.002
		c0.002-0.331-0.348-1.03-0.601-1.502c-0.27-0.505-0.54-0.945-0.801-1.353c-0.482-0.749-1.323-1.913-2.054-2.303
		c-0.255,0.646-1.68,0.123-2.203,0.5c0.534,0.885,1.332,1.506,2.003,2.254c0.059,0.141,0.112,0.288,0.15,0.451
		c2.588,3.038,3.6,9.238,2.003,13.821c-0.585,1.679-1.426,2.972-2.153,4.407c-0.416,0.286-0.72,0.682-1.052,1.052
		c-0.318,0.354-0.808,0.655-0.901,1.202c0.405,0.196,1.142,0.06,1.703,0.101c0.237,0.063,0.26,0.34,0.5,0.4
		c0.752-0.638,1.393-1.442,2.004-2.354c0.363-0.544,1.464-2.188,1.401-2.955c-0.024-0.308-0.317-0.573-0.25-0.852
		c0.076-0.315,0.49-0.294,0.701-0.501c0.195-0.529,0.502-1.19,0.4-1.853c-0.401-0.2-1.283,0.081-1.102-0.701
		c0.124-0.427,0.97-0.132,1.302-0.351c0.223-0.462,0.384-1.405,0.2-1.953c-0.41-0.359-1.374,0.114-1.502-0.451
		c-0.176-0.774,0.863-0.412,1.452-0.651c0.262-0.485,0.101-1.562-0.15-2.003c-0.64-0.094-1.36,0.029-1.302-0.551
		c0.056-0.551,0.795-0.209,1.151-0.551c0.04-0.617-0.252-1.31-0.45-1.853C56.656,34.288,56.249,34.307,56.161,34.024z
		 M28.168,28.265c-0.347-0.074-0.372-0.319-0.651-0.351c-0.065,0.017-0.105,0.063-0.15,0.1c-0.913,0.762-2.032,2.423-2.704,3.656
		c-0.266,0.488-0.676,1.247-0.651,1.502c0.034,0.344,0.434,0.459,0.351,0.801c-0.068,0.284-0.538,0.315-0.801,0.451
		c-0.253,0.521-0.546,1.248-0.451,1.953c0.254,0.247,0.996,0.006,1.202,0.3c0.097,0.122,0.048,0.419,0,0.551
		c-0.312,0.222-1.079-0.011-1.402,0.2c-0.232,0.444-0.359,1.442-0.15,2.003c0.597,0.261,1.753-0.161,1.652,0.601
		c-0.079,0.606-1.12,0.177-1.652,0.451c-0.195,0.547-0.104,1.582,0.15,2.003c0.514,0.259,1.393-0.134,1.452,0.451
		c0.069,0.691-0.902,0.261-1.302,0.651c0.032,0.752,0.226,1.343,0.501,1.853c0.233,0.13,0.721,0.135,0.801,0.401
		c0.108,0.354-0.335,0.557-0.351,0.901c-0.016,0.349,0.447,1.043,0.701,1.502c0.819,1.476,1.649,2.843,2.854,3.806
		c0.307-0.595,1.617-0.186,2.204-0.501c-0.483-0.919-1.281-1.523-1.953-2.253c-0.094-0.14-0.123-0.344-0.2-0.5
		c-2.62-3.188-3.56-9.333-1.953-13.872c0.592-1.674,1.417-2.981,2.203-4.407c0.776-0.576,1.361-1.343,1.953-2.103
		C29.456,28.073,28.702,28.379,28.168,28.265z M3.329,28.165c-0.347,0.494-0.603,1.325-0.602,2.003
		c0.45,0.235,1.533,0.199,2.054,0.05c0.253-0.555,0.59-1.271,0.551-1.953C4.9,28.014,3.907,28.11,3.329,28.165z M6.433,28.265
		c-0.227,0.564-0.62,1.207-0.501,1.953c0.503,0.167,1.548,0.148,2.053,0c0.261-0.575,0.523-1.146,0.602-1.903
		C8.071,28.074,6.934,28.084,6.433,28.265z M9.889,28.165c-0.528,0.379-0.749,1.315-0.802,2.003c0.399,0.301,1.317,0.085,1.953,0.15
		c0.446-0.46,0.776-1.287,0.751-2.053C11.26,28.129,10.552,28.17,9.889,28.165z M12.994,28.265c-0.288,0.569-0.71,1.253-0.701,1.953
		c0.419,0.281,1.477,0.138,2.054,0.1c0.343-0.51,0.777-1.189,0.65-2.003C14.461,28.159,13.51,28.141,12.994,28.265z M16.249,28.265
		c-0.355,0.547-0.838,1.23-0.801,2.003c0.443,0.266,1.577,0.174,2.103,0.05c0.325-0.579,0.795-1.273,0.851-1.953
		C17.956,28.08,16.853,28.23,16.249,28.265z M19.755,28.265c-0.494,0.476-0.973,1.229-1.002,2.003
		c0.439,0.275,1.508,0.141,2.103,0.1c0.422-0.565,0.957-1.277,1.051-2.003C21.453,28.088,20.364,28.225,19.755,28.265z
		 M33.677,28.215c-0.662-0.004-1.441-0.114-2.004,0.05c-0.428,0.125-0.882,0.612-1.202,0.902c-0.377,0.341-0.9,0.68-0.9,1.151
		c0.707,0.227,1.83,0.039,2.704,0.101c0.552-0.265,0.971-0.717,1.502-1.052c0.524-0.331,1.21-0.491,1.603-1.002
		C34.831,28.237,34.26,28.218,33.677,28.215z M60.668,28.315c-0.555-0.165-1.659-0.164-2.153,0.05
		c0.194,0.824,0.621,1.416,1.052,2.003c0.597,0.031,1.666,0.186,2.104-0.1C61.6,29.546,61.179,28.76,60.668,28.315z M62.02,28.315
		c0.048,0.748,0.528,1.466,0.901,2.053c0.604,0.054,1.594,0.149,2.053-0.1c-0.019-0.739-0.412-1.52-0.851-2.003
		C63.519,28.2,62.549,28.145,62.02,28.315z M65.375,28.365c0.152,0.8,0.466,1.437,0.852,2.003c0.578,0.055,1.571,0.151,2.003-0.1
		c0.011-0.735-0.373-1.491-0.751-2.003C66.877,28.229,65.821,28.087,65.375,28.365z M68.73,28.315
		c-0.023,0.715,0.38,1.417,0.651,2.003c0.532,0.131,1.649,0.206,2.104-0.05c-0.088-0.814-0.317-1.486-0.701-2.003
		C70.191,28.208,69.245,28.138,68.73,28.315z M71.985,28.365c0.012,0.688,0.341,1.452,0.651,2.003
		c0.556,0.043,1.603,0.175,2.003-0.1c0.033-0.692-0.281-1.449-0.601-1.953C73.455,28.219,72.48,28.104,71.985,28.365z M75.19,28.365
		c0.077,0.791,0.272,1.465,0.602,2.003c0.555,0.059,1.527,0.134,2.003-0.05c0.035-0.695-0.228-1.502-0.551-2.003
		C76.583,28.276,75.705,28.121,75.19,28.365z M49,28.265c-1.222,0.064-2.7-0.129-3.756,0.1c-0.03,0.003-0.059,0.008-0.05,0.05
		c1.013,0.706,2.18,1.259,3.154,2.003c0.86-0.075,2.034,0.164,2.654-0.15C50.587,29.349,49.738,28.862,49,28.265z M45.294,29.567
		c-0.393-0.183-0.819-0.408-1.252-0.551c-2.824-0.934-6.513-0.606-8.813,0.551c-0.358,0.18-0.848,0.367-0.901,0.751
		c3.816,0.163,8.138,0.178,11.868,0C46.2,29.892,45.656,29.736,45.294,29.567z M2.628,31.17c-0.524,0.316-0.594,1.334-0.551,2.053
		c0.467,0.176,1.408,0.114,1.953,0.05c0.315-0.464,0.445-1.34,0.45-1.953C4.099,31.033,3.239,31.226,2.628,31.17z M5.632,31.22
		c-0.326,0.46-0.539,1.293-0.449,2.003c0.533,0.169,1.436,0.206,2.002,0.05c0.256-0.529,0.394-1.174,0.451-1.903
		C7.274,31.032,6.214,31.177,5.632,31.22z M8.737,31.27c-0.268,0.506-0.501,1.293-0.451,1.953c0.408,0.259,1.396,0.151,1.953,0.1
		c0.348-0.488,0.473-1.197,0.551-1.953C10.321,31.129,9.296,31.113,8.737,31.27z M11.891,31.32c-0.294,0.523-0.481,1.154-0.5,1.953
		c0.475,0.236,1.624,0.217,2.103,0c0.218-0.566,0.41-1.159,0.5-1.853C13.612,31.09,12.423,31.189,11.891,31.32z M15.247,31.27
		c-0.496,0.376-0.682,1.313-0.701,2.003c0.353,0.281,1.172,0.098,1.753,0.15C16.794,33,16.93,32.218,17.05,31.42
		C16.694,31.126,15.837,31.331,15.247,31.27z M18.402,31.27c-0.583,0.369-0.723,1.181-0.851,2.003c0.462,0.33,1.484,0.17,2.054,0.1
		c0.344-0.508,0.695-1.271,0.701-1.953C19.923,31.119,19.02,31.335,18.402,31.27z M21.557,31.32
		c-0.387,0.548-0.713,1.158-0.802,2.003c0.465,0.267,1.554,0.164,2.103,0.05c0.325-0.561,0.763-1.271,0.801-1.953
		C23.233,31.131,22.143,31.288,21.557,31.32z M28.568,31.37c-2.716,2.756-3.681,9.115-2.004,13.571
		c0.536,1.423,1.127,2.836,2.154,3.655c0.671,0.05,1.835,0.169,2.354-0.1c-0.405-0.797-0.899-1.504-1.553-2.054
		c-0.702-0.056-2.033,0.274-1.702-0.651c0.159-0.357,0.986-0.048,1.201-0.351c-0.115-0.702-0.411-1.225-0.65-1.803
		c-0.196-0.214-0.551-0.226-0.602-0.551c-0.043-0.277,0.269-0.555,0.301-0.852c0.069-0.637-0.321-1.41-0.301-2.303
		c0.021-0.857,0.399-1.591,0.301-2.254c-0.041-0.275-0.336-0.558-0.25-0.851c0.082-0.282,0.451-0.352,0.601-0.551
		c0.387-0.517,0.419-1.317,0.601-1.803c-0.391-0.341-1.166,0.079-1.252-0.501c-0.107-0.734,0.953-0.446,1.753-0.501
		c0.618-0.567,1.163-1.208,1.502-2.053C30.367,31.157,29.337,31.313,28.568,31.37z M32.724,31.32
		c-0.728,0.232-1.439,1.417-1.753,2.003c0.573,0.294,1.819,0.127,2.554,0.1c0.398-0.36,0.815-0.677,1.253-1.001
		c0.426-0.317,0.938-0.569,1.252-1.002C35.068,31.33,33.665,31.02,32.724,31.32z M47.848,31.32c-1.041-0.038-2.4-0.143-3.355,0.05
		c0.196,0.477,0.782,0.623,1.302,1.001c0.409,0.298,0.847,0.91,1.252,1.052c0.679,0.238,1.738,0.023,2.454-0.1
		C49.238,32.367,48.472,31.914,47.848,31.32z M51.854,48.597c0.908-0.779,1.492-2.075,2.003-3.405
		c0.505-1.315,0.932-2.811,1.002-4.407c0.175-3.978-1.122-7.321-2.905-9.465c-0.663-0.078-1.641-0.085-2.304,0
		c-0.063,0.003-0.069,0.064-0.149,0.05c0.305,0.864,0.921,1.416,1.452,2.053c0.767,0.041,2.123-0.262,1.753,0.751
		c-0.257,0.227-1.004-0.035-1.152,0.301c0.002,0.616,0.434,1.236,0.602,1.853c0.156,0.136,0.542,0.204,0.601,0.501
		c0.052,0.261-0.211,0.526-0.25,0.801c-0.099,0.683,0.326,1.548,0.3,2.404c-0.023,0.764-0.359,1.511-0.351,2.254
		c0.438,0.417,0.349,1.207-0.3,1.302c-0.222,0.614-0.533,1.137-0.651,1.853c0.219,0.282,1.012-0.01,1.202,0.301
		c0.089,0.095,0.036,0.331,0.05,0.501c-0.34,0.361-1.308,0.094-1.853,0.25c-0.483,0.62-1.166,1.304-1.402,2.003
		C50.134,48.754,50.995,48.527,51.854,48.597z M58.865,31.37c-0.523-0.109-1.788-0.264-2.153,0.1
		c0.082,0.619,0.482,1.354,0.802,1.903c0.675,0.059,1.586,0.208,2.103-0.1C59.518,32.486,59.217,31.903,58.865,31.37z M60.167,31.32
		c-0.158,0.69,0.258,1.635,0.701,2.053c0.522,0.071,1.456,0.121,1.903-0.05c0.067-0.759-0.3-1.498-0.651-2.003
		C61.565,31.24,60.722,31.24,60.167,31.32z M63.372,31.37c-0.051,0.705,0.26,1.474,0.602,1.953c0.442,0.17,1.507,0.155,1.953,0
		c0.113-0.734-0.239-1.428-0.501-1.953C64.932,31.219,63.862,31.201,63.372,31.37z M66.627,31.32
		c-0.198,0.676,0.215,1.537,0.501,2.053c0.539,0.059,1.493,0.134,1.953-0.05c0.121-0.731-0.231-1.397-0.45-1.953
		C68.132,31.202,67.201,31.253,66.627,31.32z M69.782,31.37c-0.137,0.561,0.21,1.396,0.4,1.953c0.493,0.151,1.563,0.169,2.054,0
		c0.064-0.65-0.196-1.359-0.401-1.903C71.394,31.201,70.287,31.201,69.782,31.37z M72.886,31.42
		c0.021,0.747,0.197,1.339,0.401,1.903c0.444,0.218,1.612,0.242,2.053,0c0.082-0.692-0.146-1.484-0.451-1.953
		C74.372,31.244,73.325,31.167,72.886,31.42z M75.992,31.47c0.104,0.714,0.144,1.492,0.5,1.953c0.558,0.061,1.542,0.148,1.953-0.1
		c0.046-0.647-0.104-1.485-0.4-1.953C77.519,31.246,76.368,31.137,75.992,31.47z M43.992,32.322
		c-0.487-0.249-1.093-0.513-1.652-0.651c-2.224-0.549-4.686-0.021-6.21,0.851c-0.349,0.199-0.849,0.437-0.852,0.851
		c1.58,0.185,3.305,0.114,5.008,0.05c1.687-0.063,3.45,0.268,4.958-0.1C45.115,32.846,44.494,32.578,43.992,32.322z M1.927,34.225
		c-0.268,0.456-0.434,1.473-0.25,2.053c0.443,0.183,1.379,0.109,1.902,0.05c0.309-0.433,0.383-1.343,0.301-2.003
		C3.455,34.082,2.495,34.163,1.927,34.225z M4.93,34.325c-0.188,0.503-0.318,1.306-0.199,1.953c0.467,0.176,1.408,0.114,1.953,0.05
		c0.273-0.451,0.352-1.34,0.3-1.953C6.514,34.128,5.368,34.162,4.93,34.325z M8.036,34.325c-0.188,0.521-0.358,1.3-0.25,1.953
		c0.433,0.248,1.493,0.185,2.003,0.05c0.229-0.501,0.327-1.355,0.3-1.953C9.663,34.127,8.538,34.18,8.036,34.325z M11.341,34.274
		c-0.518,0.295-0.502,1.351-0.5,2.003c0.385,0.332,1.585,0.244,2.053,0.05c0.184-0.532,0.33-1.318,0.301-1.903
		C12.823,34.128,11.946,34.337,11.341,34.274z M14.245,34.375c-0.203,0.521-0.399,1.292-0.3,1.953
		c0.353,0.259,1.301,0.154,1.803,0.101c0.301-0.474,0.449-1.345,0.4-2.003C15.76,34.185,14.707,34.227,14.245,34.375z
		 M17.251,34.375c-0.223,0.535-0.475,1.285-0.352,2.003c0.46,0.184,1.414,0.109,1.953,0.05c0.311-0.486,0.469-1.352,0.451-2.003
		C18.862,34.181,17.764,34.232,17.251,34.375z M20.405,34.375c-0.25,0.521-0.524,1.275-0.4,2.003c0.475,0.224,1.58,0.222,2.053,0
		c0.164-0.594,0.454-1.307,0.401-1.953C21.923,34.265,20.969,34.2,20.405,34.375z M57.914,34.425
		c-0.015,0.665,0.227,1.463,0.5,2.003c0.539,0.059,1.494,0.133,1.953-0.05c0.095-0.721-0.111-1.551-0.45-2.003
		C59.368,34.237,58.395,34.203,57.914,34.425z M61.118,34.375c-0.099,0.726,0.137,1.526,0.401,2.053
		c0.538,0.059,1.493,0.133,1.953-0.05c0.099-0.709-0.093-1.537-0.401-2.003C62.542,34.252,61.636,34.205,61.118,34.375z
		 M64.174,34.475c0.069,0.731,0.128,1.474,0.45,1.953c0.565,0.037,1.664,0.203,2.003-0.15c-0.035-0.7-0.146-1.322-0.35-1.853
		C65.739,34.288,64.6,34.112,64.174,34.475z M67.328,34.425c-0.036,0.638,0.084,1.505,0.351,2.003
		c0.539,0.059,1.494,0.133,1.953-0.05c0.127-0.698-0.038-1.528-0.301-2.003C68.761,34.282,67.882,34.16,67.328,34.425z
		 M70.432,34.425c-0.08,0.609,0.098,1.364,0.251,1.903c0.408,0.288,1.584,0.281,2.054,0.05c0.053-0.647-0.018-1.578-0.352-2.003
		C71.79,34.34,70.896,34.135,70.432,34.425z M30.421,34.325c-0.676,0.182-0.842,1.353-1.002,2.053
		c0.44,0.259,1.585,0.184,2.104,0.05c0.337-0.649,0.787-1.183,1.002-1.953C31.961,34.333,31.026,34.162,30.421,34.325z
		 M33.927,34.375c-0.483,0.556-1.141,1.192-1.202,2.003c0.621,0.174,1.712,0.316,2.254,0.05c0.302-0.149,0.657-0.707,0.951-1.002
		c0.372-0.372,0.847-0.629,0.901-1.001C36.066,34.229,34.774,34.324,33.927,34.375z M43.691,34.425
		c0.17,0.531,0.703,0.699,1.052,1.052c0.269,0.366,0.563,0.705,0.901,1.001c0.635,0.04,1.672,0.167,2.153-0.1
		c-0.157-0.961-0.705-1.531-1.302-2.053C45.586,34.383,44.437,34.203,43.691,34.425z M47.998,34.425
		c0.206,0.795,0.66,1.344,1.002,2.003c0.556,0.137,1.62,0.188,2.104-0.05c-0.046-0.889-0.441-1.429-0.802-2.003
		C49.647,34.322,48.571,34.234,47.998,34.425z M73.538,34.425c-0.062,0.672-0.012,1.641,0.351,2.053
		c0.537,0.046,1.519,0.167,1.903-0.1c0.105-0.644-0.046-1.454-0.251-1.953C75.063,34.274,74.012,34.255,73.538,34.425z
		 M76.642,34.425c-0.207,0.574,0.045,1.468,0.2,2.003c0.518,0.16,1.548,0.164,2.004-0.05c0.09-0.668,0.019-1.581-0.301-2.003
		C78.022,34.315,77.087,34.242,76.642,34.425z M36.381,36.378c1.22,0.322,2.746,0.1,4.155,0.1c1.256,0,2.546,0.22,3.607-0.1
		C42.97,33.943,37.547,33.928,36.381,36.378z M1.576,37.329c-0.248,0.42-0.118,1.218-0.15,1.853c0.317,0.398,1.47,0.271,2.003,0.15
		c0.313-0.363,0.211-1.38,0.15-1.953C3.147,37.151,2.075,37.172,1.576,37.329z M4.731,37.279c-0.372,0.337-0.265,1.395-0.201,2.003
		c0.455,0.228,1.6,0.228,2.054,0c0.142-0.485,0.136-1.353,0.05-1.903C6.116,37.225,5.328,37.203,4.731,37.279z M7.885,37.279
		c-0.48,0.254-0.399,1.489-0.25,2.053c0.463,0.15,1.493,0.169,1.953,0c0.191-0.479,0.287-1.557,0.05-2.003
		C9.145,37.221,8.46,37.307,7.885,37.279z M10.841,37.329c-0.327,0.382-0.28,1.379-0.2,2.003c0.426,0.234,1.626,0.234,2.053,0
		c0.074-0.57,0.261-1.508,0-1.953C12.156,37.275,11.425,37.238,10.841,37.329z M13.795,37.43c-0.173,0.464-0.204,1.326-0.101,1.903
		c0.35,0.25,1.431,0.197,1.854,0.05c0.197-0.447,0.285-1.448,0.1-1.953C15.218,37.277,14.222,37.263,13.795,37.43z M16.749,37.43
		c-0.201,0.458-0.298,1.468-0.1,2.003c0.45,0.159,1.453,0.159,1.903,0c0.296-0.397,0.271-1.354,0.2-1.953
		C18.316,37.247,17.257,37.281,16.749,37.43z M19.704,37.58c-0.012,0.571-0.227,1.365,0,1.853c0.457,0.167,1.494,0.154,1.953,0
		c0.216-0.477,0.224-1.345,0.2-1.903C21.431,37.246,20.054,37.188,19.704,37.58z M29.018,37.53c-0.122,0.522-0.38,1.353-0.15,1.903
		c0.444,0.183,1.38,0.109,1.903,0.05c0.28-0.477,0.388-1.372,0.351-2.003C30.543,37.346,29.473,37.204,29.018,37.53z M35.579,37.43
		c-0.41,0.43-0.699,1.229-0.601,2.003c0.459,0.184,1.414,0.109,1.953,0.05c0.31-0.691,0.678-1.325,1.001-2.003
		C37.367,37.193,36.311,37.417,35.579,37.43z M49.45,37.43c-0.129,0.544,0.096,1.429,0.251,2.003
		c0.483,0.141,1.596,0.202,2.003-0.05c0.111-0.666-0.002-1.53-0.301-1.953C50.798,37.383,49.991,37.237,49.45,37.43z M58.564,37.479
		c-0.064,0.593-0.015,1.477,0.2,1.953c0.481,0.145,1.666,0.223,2.004-0.1c0.068-0.597,0.047-1.508-0.251-1.903
		C60.013,37.28,59.001,37.255,58.564,37.479z M61.67,37.43c-0.119,0.504-0.077,1.531,0.15,2.003c0.447,0.172,1.449,0.145,1.902,0
		c0.264-0.461,0.101-1.445-0.05-1.953C63.224,37.235,62.194,37.298,61.67,37.43z M64.674,37.53c-0.056,0.562,0.009,1.377,0.15,1.903
		c0.501,0.143,1.576,0.192,2.004-0.05c0.094-0.574,0.089-1.448-0.101-1.903C66.26,37.285,65.059,37.198,64.674,37.53z M67.779,37.43
		c-0.141,0.512-0.045,1.463,0.101,2.003c0.47,0.165,1.479,0.15,1.952,0c0.175-0.51,0.17-1.613-0.1-2.003
		C69.251,37.271,68.261,37.277,67.779,37.43z M70.884,37.43c-0.221,0.512-0.027,1.367,0,1.953c0.417,0.225,1.641,0.248,2.054,0
		c0.086-0.558,0.11-1.476-0.101-1.903C72.324,37.331,71.345,37.322,70.884,37.43z M32.424,37.379c-0.514,0.289-0.668,1.41-0.5,2.053
		c0.443,0.183,1.379,0.109,1.902,0.05c0.287-0.521,0.493-1.368,0.501-2.003C33.87,37.269,33.041,37.43,32.424,37.379z M42.59,37.479
		c0.351,0.668,0.722,1.315,1.052,2.003c0.536,0.048,1.57,0.171,1.953-0.1c0.091-0.75-0.24-1.49-0.602-1.953
		C44.306,37.377,43.195,37.288,42.59,37.479z M46.246,37.479c-0.078,0.666,0.266,1.333,0.4,1.953
		c0.474,0.139,1.607,0.208,2.003-0.05c0.114-0.702-0.086-1.513-0.4-1.953C47.694,37.371,46.72,37.295,46.246,37.479z M73.938,37.479
		c-0.173,0.494-0.182,1.636,0.101,2.003c0.522,0.059,1.459,0.133,1.902-0.05c0.188-0.493,0.138-1.512-0.05-1.953
		C75.434,37.336,74.389,37.302,73.938,37.479z M76.943,37.479c-0.093,0.481-0.134,1.542,0.1,2.003
		c0.548,0.067,1.482,0.122,1.953-0.05c0.179-0.534,0.146-1.574-0.1-2.003C78.357,37.371,77.403,37.296,76.943,37.479z
		 M38.083,39.382c0.533,0.267,1.403,0.15,2.203,0.15c0.803,0,1.665,0.11,2.203-0.15C42.414,36.965,38.045,37.141,38.083,39.382z
		 M1.526,40.384c-0.167,0.491-0.193,1.644,0.1,2.003c0.523,0.059,1.459,0.133,1.902-0.05c0.163-0.468,0.178-1.552-0.049-1.953
		C3.019,40.23,1.983,40.218,1.526,40.384z M4.631,40.334c-0.257,0.435-0.228,1.673,0.05,2.053c0.602,0.052,1.471,0.221,1.953-0.05
		c0.074-0.538,0.111-1.438-0.05-1.903C6.145,40.205,5.207,40.264,4.631,40.334z M7.585,40.434c-0.089,0.57-0.098,1.458,0.1,1.903
		c0.433,0.217,1.576,0.242,2.003,0c0.133-0.467,0.101-1.5-0.1-1.953C9.064,40.252,8.033,40.189,7.585,40.434z M10.69,40.434
		c-0.189,0.495-0.132,1.507,0.05,1.953c0.433,0.217,1.576,0.242,2.003,0c0.073-0.546,0.131-1.495-0.1-1.903
		C12.249,40.25,11.154,40.276,10.69,40.434z M13.694,40.484c-0.094,0.591-0.088,1.482,0.101,1.953c0.443,0.139,1.417,0.175,1.853,0
		c0.15-0.501,0.119-1.597-0.149-2.003C14.957,40.371,14.126,40.214,13.694,40.484z M16.649,40.484
		c-0.195,0.517-0.108,1.517,0.1,1.953c0.456,0.256,1.412,0.153,1.953,0.05c0.162-0.503,0.104-1.541-0.1-2.003
		C18.143,40.331,17.106,40.318,16.649,40.484z M19.704,40.484c-0.211,0.535-0.093,1.544,0.101,2.003
		c0.491,0.133,1.591,0.208,2.003-0.05c0.129-0.466,0.019-1.372-0.101-1.903C21.293,40.305,20.186,40.323,19.704,40.484z
		 M28.818,40.534c-0.095,0.673,0.005,1.557,0.301,2.003c0.566,0.043,1.59,0.17,2.003-0.1c0.055-0.583-0.146-1.316-0.25-1.903
		C30.411,40.324,29.271,40.29,28.818,40.534z M31.873,40.534c-0.112,0.69,0.092,1.471,0.351,1.953
		c0.512,0.141,1.668,0.205,2.104-0.05c-0.026-0.592-0.227-1.397-0.451-1.953C33.367,40.35,32.306,40.286,31.873,40.534z
		 M34.978,40.534c-0.108,0.75,0.188,1.508,0.551,1.953c0.621,0.148,1.854,0.191,2.403-0.05c-0.236-0.699-0.748-1.122-0.901-1.903
		C36.578,40.313,35.428,40.298,34.978,40.534z M38.133,40.434c-0.36,2.352,4.433,2.513,4.307,0.1
		C41.298,40.236,39.436,40.405,38.133,40.434z M43.592,40.484c-0.257,0.729-0.668,1.302-1.002,1.953
		c0.542,0.265,1.833,0.184,2.454,0.05c0.312-0.494,0.661-1.2,0.551-1.953C45.142,40.305,44.112,40.338,43.592,40.484z
		 M46.746,40.434c-0.319,0.532-0.434,1.269-0.551,2.003c0.449,0.25,1.579,0.189,2.103,0.05c0.253-0.488,0.471-1.256,0.351-1.953
		C48.233,40.29,47.307,40.378,46.746,40.434z M49.802,40.434c-0.312,0.463-0.41,1.385-0.401,2.003
		c0.433,0.26,1.489,0.171,2.003,0.05c0.296-0.43,0.422-1.271,0.301-1.953C51.302,40.284,50.348,40.377,49.802,40.434z
		 M58.815,40.434c-0.298,0.423-0.313,1.386-0.251,2.003c0.457,0.296,1.373,0.092,1.953,0.05c0.273-0.419,0.317-1.307,0.251-1.903
		C60.425,40.236,59.384,40.401,58.815,40.434z M61.82,40.484c-0.218,0.476-0.274,1.351-0.2,1.953c0.472,0.28,1.362,0.102,1.952,0.05
		c0.301-0.392,0.302-1.324,0.251-1.903C63.485,40.262,62.301,40.339,61.82,40.484z M64.824,40.484
		c-0.116,0.537-0.289,1.429-0.1,1.953c0.507,0.23,1.294,0.119,1.902,0.05c0.292-0.384,0.344-1.459,0.15-2.003
		C66.318,40.331,65.281,40.318,64.824,40.484z M67.88,40.484c-0.142,0.503-0.288,1.445-0.101,1.953c0.435,0.231,1.467,0.124,2.003,0
		c0.152-0.476,0.256-1.442,0.05-1.953C69.365,40.323,68.347,40.329,67.88,40.484z M70.934,40.484
		c-0.159,0.508-0.223,1.324-0.15,1.903c0.368,0.301,1.499,0.254,2.003,0.1c0.294-0.381,0.221-1.37,0.15-1.953
		C72.504,40.323,71.427,40.312,70.934,40.484z M74.039,40.484c-0.306,0.394-0.243,1.524-0.15,2.003c0.478,0.147,1.479,0.167,1.953,0
		c0.265-0.376,0.312-1.576,0.05-2.003C75.32,40.381,74.594,40.345,74.039,40.484z M77.094,40.434
		c-0.275,0.424-0.289,1.535-0.15,2.053c0.482,0.162,1.588,0.18,2.003-0.05c0.153-0.461,0.252-1.411,0.05-1.903
		C78.514,40.365,77.677,40.342,77.094,40.434z M1.677,43.389c-0.17,0.57-0.027,1.561,0.25,2.003c0.613,0.09,1.396,0.143,1.953-0.05
		c0.121-0.633-0.047-1.38-0.2-1.903C3.131,43.306,2.224,43.215,1.677,43.389z M4.731,43.439c-0.113,0.618,0.016,1.416,0.199,1.903
		c0.473,0.21,1.589,0.239,2.054,0c0.069-0.63-0.024-1.504-0.3-1.953C6.139,43.335,5.194,43.251,4.731,43.439z M7.786,43.439
		c-0.098,0.625,0.059,1.401,0.25,1.903c0.437,0.227,1.619,0.237,2.053,0c0.05-0.594-0.074-1.42-0.3-1.903
		C9.306,43.277,8.268,43.283,7.786,43.439z M10.89,43.439c-0.137,0.595,0.017,1.611,0.351,2.053
		c0.537,0.045,1.518,0.166,1.902-0.101c0.101-0.672-0.047-1.518-0.35-1.953C12.163,43.36,11.481,43.32,10.89,43.439z M13.945,43.489
		c-0.095,0.655,0.088,1.441,0.3,1.953c0.458,0.14,1.453,0.175,1.903,0c0.077-0.654-0.13-1.432-0.35-1.953
		C15.354,43.35,14.382,43.313,13.945,43.489z M16.85,43.589c0.027,0.723,0.139,1.364,0.4,1.853c0.564,0.246,1.564,0.186,2.053,0
		c0.047-0.625-0.166-1.396-0.4-1.903C18.45,43.341,17.221,43.254,16.85,43.589z M36.43,43.539c0.05,0.471,0.572,0.779,1.001,1.052
		c1.354,0.859,3.734,1.058,5.309,0.25c0.592-0.303,1.245-0.75,1.353-1.302C41.755,43.354,38.907,43.372,36.43,43.539z
		 M61.519,43.489c-0.285,0.49-0.47,1.324-0.401,2.003c0.506,0.161,1.496,0.146,2.004,0c0.233-0.508,0.46-1.267,0.351-1.953
		C63.013,43.272,62.135,43.462,61.519,43.489z M20.005,43.589c-0.11,0.678,0.166,1.402,0.4,1.903c0.511,0.139,1.618,0.2,2.054-0.05
		c0.012-0.639-0.198-1.465-0.501-1.953C21.436,43.464,20.363,43.288,20.005,43.589z M31.372,43.489c-0.513-0.09-1.336-0.072-1.853,0
		c-0.229,0.778,0.371,1.555,0.751,2.053c0.604,0.011,1.838,0.242,2.204-0.15C32.28,44.784,31.914,43.916,31.372,43.489z
		 M34.978,43.489c-0.64-0.052-1.696-0.14-2.254,0.05c0.168,0.967,0.732,1.539,1.353,2.053c0.9-0.068,2.09,0.154,2.754-0.15
		C36.291,44.713,35.527,44.208,34.978,43.489z M45.745,43.439c-0.074,0.026-0.127,0.074-0.201,0.1
		c-0.558,0.694-1.289,1.214-1.853,1.903c0.702,0.184,1.965,0.254,2.704,0.15c0.625-0.087,1.288-1.437,1.402-2.003
		C47.359,43.293,46.417,43.501,45.745,43.439z M49.2,43.439c-0.566,0.161-1.017,1.64-1.151,2.003c0.479,0.285,1.685,0.16,2.253,0.05
		c0.364-0.538,0.733-1.07,0.802-1.903C50.739,43.432,49.683,43.302,49.2,43.439z M58.564,43.439
		c-0.502,0.382-0.558,1.211-0.65,2.003c0.46,0.246,1.516,0.182,2.053,0.05c0.253-0.501,0.515-1.252,0.4-1.953
		C59.941,43.33,59.15,43.488,58.564,43.439z M64.574,43.539c-0.232,0.493-0.403,1.289-0.351,1.903c0.449,0.234,1.603,0.224,2.054,0
		c0.188-0.503,0.394-1.231,0.3-1.853C66.186,43.336,65.041,43.393,64.574,43.539z M67.779,43.439
		c-0.438,0.354-0.451,1.377-0.451,2.003c0.46,0.233,1.59,0.219,2.054,0c0.202-0.49,0.37-1.254,0.25-1.903
		C69.19,43.329,68.381,43.488,67.779,43.439z M70.884,43.439c-0.481,0.309-0.434,1.393-0.451,2.003c0.453,0.208,1.611,0.25,2.054,0
		c0.182-0.488,0.379-1.374,0.2-1.903C72.252,43.34,71.475,43.481,70.884,43.439z M73.839,43.489
		c-0.292,0.433-0.358,1.336-0.301,1.953c0.386,0.274,1.413,0.145,1.953,0.1c0.305-0.421,0.366-1.326,0.301-1.953
		C75.392,43.32,74.39,43.444,73.839,43.489z M76.893,43.489c-0.224,0.479-0.483,1.55-0.2,2.053c0.547,0.059,1.554,0.156,1.952-0.1
		c0.163-0.492,0.322-1.243,0.201-1.853C78.457,43.312,77.438,43.45,76.893,43.489z M2.026,46.494
		c0.031,0.737,0.156,1.38,0.401,1.903c0.491,0.136,1.64,0.212,2.053-0.05c0.046-0.64-0.173-1.423-0.4-1.953
		C3.552,46.283,2.399,46.146,2.026,46.494z M5.332,46.343c-0.102,0.015-0.099,0.136-0.2,0.15c0.041,0.776,0.169,1.467,0.5,1.953
		c0.534,0.054,1.501,0.141,1.953-0.05c0.082-0.703-0.14-1.527-0.45-2.003C6.619,46.292,5.927,46.366,5.332,46.343z M8.487,46.343
		c-0.492,0.437,0.048,1.618,0.3,2.104c0.521,0.146,1.552,0.179,2.003-0.05c-0.017-0.648-0.178-1.546-0.551-2.003
		C9.739,46.292,9.065,46.366,8.487,46.343z M11.441,46.494c-0.079,0.749,0.183,1.585,0.552,2.053c0.6,0.035,1.622,0.188,2.002-0.15
		c-0.104-0.746-0.262-1.44-0.601-1.953C12.855,46.385,11.901,46.31,11.441,46.494z M14.546,46.544
		c-0.007,0.682,0.262,1.502,0.602,2.003c0.531,0.04,1.527,0.176,1.902-0.1c0.011-0.669-0.328-1.402-0.601-1.953
		C15.968,46.379,14.943,46.276,14.546,46.544z M17.6,46.494c-0.07,0.78,0.305,1.526,0.651,2.053c0.608,0.159,1.395,0.067,2.054,0
		c0.041-0.766-0.378-1.487-0.701-2.053C19.04,46.403,18.138,46.3,17.6,46.494z M42.79,46.443c-2.538,0-5.182-0.087-7.562,0.101
		c0.281,0.549,1.044,0.955,1.753,1.252c2.579,1.081,7.024,0.668,8.313-1.202C44.541,46.327,43.65,46.443,42.79,46.443z
		 M64.023,46.443c-0.38,0.522-0.581,1.223-0.701,2.003c0.392,0.31,1.323,0.079,1.953,0.15c0.463-0.414,0.781-1.419,0.651-2.103
		C65.367,46.34,64.739,46.488,64.023,46.443z M67.128,46.494c-0.315,0.508-0.578,1.316-0.551,2.003
		c0.479,0.188,1.443,0.103,2.003,0.05c0.31-0.494,0.617-1.25,0.501-2.003C68.556,46.321,67.742,46.411,67.128,46.494z
		 M22.759,46.494c-0.544-0.043-1.614-0.18-2.003,0.1c0.136,0.815,0.418,1.485,0.851,2.003c0.605,0.039,1.664,0.185,2.053-0.15
		C23.59,47.766,23.22,46.951,22.759,46.494z M33.426,46.443c-0.779,0.056-1.788-0.118-2.404,0.101
		c0.18,0.874,1.025,1.511,1.703,2.053c0.989,0.023,2.546,0.22,3.306-0.15C35.32,47.821,34.248,47.124,33.426,46.443z M47.047,46.494
		c-0.473,0.274-0.811,0.724-1.252,1.052c-0.435,0.323-1.062,0.468-1.302,1.001c0.938,0.196,2.332,0.092,3.355,0.05
		c0.639-0.596,1.408-1.061,1.652-2.053C48.874,46.357,47.754,46.437,47.047,46.494z M57.513,46.544
		c-0.333,0.585-0.691,1.146-0.802,1.953c0.51,0.318,1.338,0.031,2.053,0.1c0.46-0.462,0.838-1.259,0.802-2.053
		C59.084,46.382,57.996,46.382,57.513,46.544z M60.918,46.443c-0.527,0.44-0.688,1.248-0.851,2.054
		c0.49,0.185,1.482,0.108,2.053,0.05c0.416-0.469,0.612-1.158,0.701-1.953C62.436,46.295,61.539,46.507,60.918,46.443z
		 M70.384,46.443c-0.522,0.363-0.52,1.25-0.651,2.003c0.382,0.339,1.414,0.11,2.053,0.1c0.284-0.49,0.52-1.275,0.451-1.953
		C71.865,46.297,70.988,46.506,70.384,46.443z M73.538,46.443c-0.527,0.347-0.628,1.368-0.601,2.104
		c0.499,0.155,1.503,0.155,2.003,0c0.289-0.495,0.413-1.156,0.45-1.903C75.064,46.286,74.163,46.503,73.538,46.443z M76.492,46.494
		c-0.315,0.491-0.48,1.38-0.45,2.053c0.472,0.18,1.403,0.109,1.953,0.05c0.357-0.439,0.496-1.324,0.45-2.003
		C78.047,46.325,77.044,46.449,76.492,46.494z M2.727,49.498c-0.024,0.659,0.255,1.403,0.502,1.953
		c0.519,0.133,1.662,0.209,2.102-0.05c-0.058-0.776-0.288-1.381-0.551-1.953C4.249,49.322,3.179,49.243,2.727,49.498z M7.836,49.448
		c-0.517-0.065-1.464-0.128-1.903,0.05c-0.053,0.707,0.221,1.513,0.602,1.953c0.463,0.175,1.534,0.148,2.003,0
		C8.55,50.729,8.284,49.874,7.836,49.448z M9.137,49.498c-0.061,0.781,0.256,1.612,0.701,2.053c0.656-0.104,1.587,0.294,1.953-0.15
		c-0.012-0.639-0.367-1.368-0.65-1.903C10.645,49.365,9.624,49.318,9.137,49.498z M12.343,49.599
		c-0.046,0.781,0.34,1.562,0.801,2.003c0.601-0.049,1.412,0.109,1.853-0.1c0.09-0.783-0.313-1.484-0.65-2.003
		C13.803,49.479,12.72,49.293,12.343,49.599z M15.498,49.498c-0.215,0.78,0.419,1.541,0.751,2.104
		c0.605,0.036,1.705,0.183,2.153-0.1c-0.138-0.763-0.517-1.286-0.802-1.903C17.107,49.377,16.128,49.423,15.498,49.498z
		 M18.753,49.648c0.072,0.713,0.476,1.527,1.002,1.953c0.599,0.061,1.633,0.134,2.152-0.05c-0.185-0.865-0.623-1.48-1.101-2.053
		C20.108,49.583,19.174,49.228,18.753,49.648z M27.516,53.404c-0.394-0.394-0.768-0.796-1.102-1.252
		c-0.825-0.76-1.313-1.858-2.103-2.654c-0.756-0.024-1.557-0.101-2.203,0.101c0.229,0.873,0.671,1.532,1.252,2.053
		c1.155-0.213,1.115,0.529,0.751,1.151c0.972,1.394,2.445,2.784,3.856,3.856c0.481,0.366,1.069,0.874,1.553,1.052
		c1.113,0.408,3.164-0.06,4.507-0.05c-0.463-0.558-1.258-0.677-1.902-1.002c-0.649-0.327-1.241-0.742-1.854-1.051
		c-0.799-0.129-2.717,0.382-2.504-0.551c0.085-0.371,0.484-0.235,0.852-0.401C28.477,54.055,27.895,53.783,27.516,53.404z
		 M44.142,49.498c-3.347,0-6.769-0.109-9.815,0.101c0.273,0.515,1.016,0.834,1.652,1.102c3.008,1.264,8.47,0.951,10.267-1.052
		C45.611,49.386,44.864,49.498,44.142,49.498z M62.871,49.548c-0.329,0.593-0.816,1.28-0.851,2.003
		c0.515,0.194,1.506,0.097,2.103,0.05c0.414-0.52,0.744-1.125,0.851-1.953C64.46,49.378,63.495,49.444,62.871,49.548z
		 M69.382,49.548c-0.275,0.582-0.683,1.28-0.651,2.003c0.518,0.167,1.583,0.149,2.104,0c0.312-0.522,0.531-1.138,0.651-1.853
		C71.06,49.352,69.987,49.422,69.382,49.548z M32.274,49.498c-0.857,0.062-1.963-0.126-2.654,0.101
		c-0.228,0.293,0.521,0.831,0.801,1.102c0.444,0.427,0.809,0.763,1.151,0.952c1.232,0.032,2.573,0.085,3.757-0.101
		C34.437,50.74,33.199,50.276,32.274,49.498z M48.399,49.498c-0.647,0.277-1.139,0.719-1.753,1.102
		c-0.5,0.312-1.107,0.483-1.402,0.951c1.036,0.216,2.659,0.055,3.706,0.101c0.754-0.591,1.654-1.112,2.003-2.053
		C50.288,49.378,49.226,49.555,48.399,49.498z M56.161,49.548c-0.943,1.413-2.015,2.666-3.155,3.806
		c-0.381,0.381-0.89,0.718-1.102,1.252c0.382,0.169,1.034,0.068,0.852,0.801c-0.505,0.38-1.643,0.127-2.454,0.201
		c-1.191,0.745-2.604,1.268-3.806,2.003c1.146,0.34,2.913,0.058,4.307,0.15c2.231-1.258,4.08-2.897,5.559-4.908
		c-0.041-0.348-0.332-0.639-0.15-1.052c1.293-0.109,1.714-1.091,2.054-2.153C57.831,49.366,56.752,49.512,56.161,49.548z
		 M59.667,49.498c-0.571,0.498-0.895,1.243-1.202,2.003c0.476,0.283,1.621,0.139,2.253,0.1c0.44-0.529,0.807-1.13,0.952-1.953
		C61.255,49.346,60.317,49.565,59.667,49.498z M66.327,49.498c-0.576,0.409-0.721,1.25-0.952,2.003
		c0.469,0.261,1.656,0.184,2.204,0.05c0.254-0.57,0.67-1.225,0.65-1.903C67.844,49.35,66.947,49.562,66.327,49.498z M72.536,49.599
		c-0.211,0.575-0.582,1.25-0.551,1.903c0.406,0.357,1.483,0.18,2.054,0.1c0.337-0.514,0.566-1.136,0.601-1.953
		C74.205,49.394,73.048,49.458,72.536,49.599z M75.792,49.548c-0.336,0.533-0.528,1.208-0.602,2.003
		c0.466,0.263,1.502,0.16,2.054,0.05c0.315-0.497,0.55-1.304,0.551-1.953C77.382,49.378,76.358,49.504,75.792,49.548z M3.729,52.453
		c-0.189,0.738,0.326,1.6,0.701,2.103c0.57,0.042,1.638,0.177,2.053-0.1c-0.146-0.755-0.403-1.399-0.751-1.953
		C5.215,52.353,4.315,52.374,3.729,52.453z M8.937,52.503c-0.62-0.013-1.626-0.24-2.003,0.1c0.035,0.716,0.389,1.547,0.852,2.003
		c0.7,0.033,1.341,0.054,2.003-0.05C9.803,53.768,9.375,53.005,8.937,52.503z M12.293,52.553c-0.538-0.122-1.579-0.188-2.104,0
		c0.136,0.882,0.479,1.557,0.952,2.103c0.73-0.065,1.546,0.188,2.053-0.15C13.142,53.807,12.679,53.084,12.293,52.553z
		 M15.448,52.553c-0.488-0.114-1.184-0.019-1.754-0.05c-0.072,0.043-0.158,0.075-0.149,0.2c0.25,0.768,0.511,1.526,1.102,1.953
		c0.544,0.064,1.485,0.126,1.953-0.05C16.403,53.733,16.005,53.063,15.448,52.553z M19.003,52.553
		c-0.626-0.041-1.732-0.177-2.203,0.1c0.278,0.823,0.656,1.547,1.252,2.053c0.697-0.088,1.752,0.183,2.203-0.15
		C20.081,53.846,19.522,53.085,19.003,52.553z M23.56,53.555c-0.234-0.289-0.532-0.813-0.802-0.952
		c-0.391-0.2-2.139-0.153-2.403,0.05c0.28,0.871,0.842,1.462,1.402,2.053c0.71,0.008,1.824,0.08,2.504-0.1
		C24.178,54.269,23.856,53.919,23.56,53.555z M43.641,52.503c-3.098,0.007-7.207-0.103-10.216,0.15
		c0.193,0.435,0.752,0.558,1.202,0.751c1.328,0.571,2.969,1.065,4.707,1.152c2.416,0.12,4.549-0.322,6.209-1.002
		c0.573-0.234,1.259-0.387,1.553-0.901C46.005,52.497,44.838,52.5,43.641,52.503z M49.301,52.553
		c-0.565,0.322-1.114,0.72-1.703,1.051c-0.595,0.334-1.302,0.493-1.753,1.002c1.126,0.25,2.836,0.159,4.106,0.1
		c0.832-0.621,1.798-1.107,2.304-2.053C51.502,52.382,50.208,52.52,49.301,52.553z M57.763,52.553
		c-0.569,0.583-1.325,1.244-1.452,2.103c0.748,0.146,1.468,0.042,2.304,0.05c0.581-0.554,1.104-1.166,1.401-2.003
		C59.457,52.357,58.561,52.598,57.763,52.553z M61.369,52.553c-0.5,0.602-0.999,1.204-1.252,2.053c0.55,0.304,1.474,0.069,2.203,0.1
		c0.557-0.497,1.104-1.266,1.202-2.053C63.038,52.398,62.001,52.502,61.369,52.553z M64.875,52.553
		c-0.493,0.559-0.896,1.208-1.102,2.053c0.538,0.187,1.585,0.107,2.203,0.05c0.478-0.524,0.843-1.161,1.001-2.003
		C66.523,52.384,65.482,52.511,64.875,52.553z M68.28,52.553c-0.435,0.536-0.922,1.279-0.952,2.053
		c0.519,0.197,1.552,0.098,2.153,0.05c0.372-0.58,0.74-1.163,0.852-2.003C69.896,52.39,68.867,52.504,68.28,52.553z M31.272,52.553
		c-0.973,0.029-2.063-0.061-2.955,0.05c-0.018,0.573,0.615,0.893,1.002,1.202c0.436,0.348,0.881,0.723,1.353,0.951
		c1.322-0.063,2.917,0.146,4.006-0.15C33.672,53.793,32.263,53.382,31.272,52.553z M71.685,52.553
		c-0.58,0.421-0.786,1.217-1.002,2.003c0.451,0.289,1.574,0.25,2.153,0.1c0.362-0.527,0.779-1.25,0.751-2.003
		C73.131,52.442,72.302,52.604,71.685,52.553z M74.79,52.653c-0.359,0.542-0.634,1.169-0.751,1.953
		c0.423,0.269,1.477,0.148,2.053,0.1c0.407-0.5,0.765-1.299,0.751-2.053C76.36,52.491,75.272,52.491,74.79,52.653z M24.511,54.856
		c-0.165,0.152-0.076,0.559-0.301,0.651c-0.342,0.226-1.168-0.033-1.502,0.201c0.186,0.626,0.774,1.074,1.252,1.552
		c0.951,0.952,1.96,1.728,3.105,2.504c0.598,0.406,1.423,1.035,2.002,1.102c1.289,0.148,3.057-0.114,4.457-0.15
		c-0.552-0.518-1.356-0.67-2.053-1.001c-0.707-0.337-1.394-0.711-2.054-1.052c-0.555-0.045-1.333,0.132-1.602-0.2
		c-0.104-0.18-0.026-0.542-0.051-0.801C26.645,56.762,25.669,55.719,24.511,54.856z M52.756,57.661
		c0.006,0.392,0.086,0.644-0.101,0.901c-0.453,0.097-1.079,0.022-1.552,0.1c-1.231,0.789-2.786,1.253-4.057,2.003
		c1.246,0.342,3.138,0.056,4.557,0.15c1.78-0.824,3.174-2.034,4.607-3.205c0.38-0.739,1.221-1.016,1.452-1.903
		c-0.3-0.201-0.978-0.023-1.352-0.15c-0.271-0.096-0.024-0.71-0.451-0.651C54.894,55.894,53.786,56.738,52.756,57.661z
		 M4.882,55.708c0.095,0.689,0.473,1.53,1.001,1.953c0.667-0.068,1.624,0.154,2.054-0.15c-0.185-0.833-0.564-1.472-1.053-2.003
		C6.257,55.614,5.186,55.278,4.882,55.708z M8.236,55.608c0.155,0.88,0.562,1.507,1.052,2.053c0.777-0.051,1.582,0.202,2.153-0.1
		c-0.224-0.794-0.605-1.432-1.052-2.003C9.775,55.498,8.772,55.428,8.236,55.608z M13.895,55.608c-0.628-0.034-1.785-0.19-2.254,0.1
		c0.277,0.774,0.626,1.478,1.202,1.953c0.565,0.027,1.7,0.2,2.103-0.1C14.951,56.755,14.292,56.179,13.895,55.608z M15.147,55.758
		c0.088,0.764,0.741,1.396,1.201,1.953c0.679,0.012,1.963,0.238,2.404-0.15c-0.33-0.789-0.867-1.371-1.402-1.953
		C16.721,55.604,15.538,55.368,15.147,55.758z M45.143,55.608c-4.17,0-8.479-0.092-12.469,0.1c0.235,0.465,0.862,0.647,1.402,0.852
		c3.598,1.358,8.619,1.395,12.169,0.05c0.574-0.218,1.245-0.369,1.552-0.851C46.962,55.495,46.027,55.607,45.143,55.608z
		 M63.071,55.608c-0.567,0.584-1.099,1.204-1.451,2.003c0.53,0.282,1.716,0.138,2.403,0.1c0.498-0.539,1.118-1.217,1.252-1.953
		C64.821,55.408,63.86,55.701,63.071,55.608z M18.903,55.608c-0.073,0.043-0.159,0.075-0.15,0.2
		c0.409,0.759,0.895,1.443,1.603,1.903c0.716,0.062,1.866,0.132,2.504-0.05c-0.076-0.479-0.476-0.795-0.751-1.102
		c-0.299-0.332-0.584-0.688-0.951-0.952C20.405,55.608,19.654,55.608,18.903,55.608z M59.366,55.608
		c-0.454,0.099-0.696,0.626-1.052,1.001c-0.363,0.385-0.833,0.674-0.801,1.052c0.653,0.214,1.688,0.047,2.503,0.1
		c0.685-0.518,1.247-1.158,1.604-2.003C61.01,55.596,60.017,55.466,59.366,55.608z M66.577,55.708
		c-0.512,0.373-0.954,1.436-1.102,1.903c0.473,0.292,1.621,0.131,2.253,0.1c0.437-0.55,1.036-1.199,1.053-2.003
		C68.165,55.606,66.923,55.456,66.577,55.708z M70.283,55.608c-0.598,0.487-0.985,1.185-1.202,2.053
		c0.549,0.184,1.576,0.107,2.203,0.05c0.459-0.526,0.847-1.123,1.002-1.953C71.862,55.464,70.939,55.668,70.283,55.608z
		 M73.488,55.708c-0.328,0.624-0.775,1.128-0.901,1.953c0.565,0.184,1.592,0.216,2.203,0.05c0.362-0.573,0.767-1.103,0.852-1.953
		C75.191,55.502,74.014,55.567,73.488,55.708z M9.288,59.564c-0.17-0.282-0.387-0.807-0.65-0.952
		c-0.525-0.285-1.646-0.11-2.254,0.05c0.215,0.887,0.633,1.571,1.252,2.053c0.669-0.082,1.677,0.175,2.104-0.15
		C9.821,60.241,9.503,59.919,9.288,59.564z M12.142,58.612c-0.696-0.006-1.712-0.201-2.204,0.05
		c0.201,0.901,0.748,1.456,1.253,2.053c0.667,0.033,1.845,0.188,2.354-0.1C13.221,59.804,12.7,59.19,12.142,58.612z M15.698,58.663
		c-0.691-0.041-1.65-0.224-2.153,0.1c0.353,0.816,0.89,1.447,1.502,2.003c0.673,0.033,1.788,0.18,2.304-0.1
		C16.958,59.839,16.401,59.178,15.698,58.663z M20.756,59.614c-0.333-0.333-0.597-0.739-1.001-1.001
		c-0.796,0.056-1.822-0.119-2.455,0.1c-0.093,0.5,0.465,0.768,0.702,1.102c0.273,0.377,0.563,0.738,1.001,0.951
		c0.762,0.058,1.974,0.139,2.654-0.05C21.561,60.199,21.073,59.932,20.756,59.614z M28.668,61.717
		c-0.254,0.003-0.414-0.086-0.701-0.05c-0.539-0.806-1.422-1.21-2.203-1.803c-0.577-0.438-1.089-0.912-1.702-1.252
		c-0.821,0.03-1.766-0.062-2.504,0.05c-0.095-0.011-0.11,0.056-0.2,0.05c0.095,0.432,0.54,0.818,0.9,1.152
		c0.545,0.503,1.037,0.997,1.953,1.001c0.219,0.193,0.158,0.526,0.301,0.751c0.313,0.495,1.156,0.854,1.703,1.202
		c0.646,0.411,1.259,0.798,1.853,1.052c0.784,0,1.684,0,2.554,0c0.839,0,1.773,0.142,2.353-0.2
		C31.574,62.984,29.955,62.518,28.668,61.717z M36.08,58.612c-1.486,0-3.114-0.03-4.156,0.15c0.334,0.441,0.983,0.655,1.552,0.851
		c4.018,1.385,9.393,1.4,13.321,0.05c0.643-0.221,1.412-0.396,1.752-0.901C44.705,58.545,40.216,58.613,36.08,58.612z
		 M56.411,58.663c-1.152,0.75-2.103,1.703-3.354,2.354c-0.208,0.177-0.262,0.507-0.501,0.651c-0.287-0.036-0.447,0.053-0.701,0.05
		c-0.965,0.558-2.141,1.065-3.205,1.452c-0.365,0.133-0.837,0.216-1.001,0.601c1.463,0.044,3.324,0.277,4.706,0.1
		c0.669-0.085,1.444-0.746,2.004-1.102c0.637-0.405,1.274-0.764,1.702-1.202c0.06-0.258,0.094-0.541,0.251-0.701
		c0.219-0.047,0.481-0.052,0.701-0.1c0.66-0.625,1.706-1.13,1.953-2.003C58.237,58.498,57.313,58.7,56.411,58.663z M60.668,58.663
		c-0.367,0.116-0.757,0.657-1.052,0.951c-0.356,0.357-0.861,0.697-0.852,1.102c0.683,0.191,1.892,0.104,2.654,0.05
		c0.661-0.574,1.357-1.114,1.703-2.003C62.319,58.66,61.359,58.444,60.668,58.663z M64.624,58.663
		c-0.604,0.598-1.202,1.201-1.601,2.003c0.558,0.294,1.784,0.128,2.503,0.1c0.552-0.583,1.166-1.104,1.402-2.003
		C66.411,58.499,65.291,58.613,64.624,58.663z M68.38,58.663c-0.563,0.572-1.059,1.211-1.402,2.003
		c0.513,0.305,1.555,0.082,2.304,0.15c0.586-0.533,1.027-1.21,1.353-2.004C70.197,58.469,69.038,58.623,68.38,58.663z
		 M71.835,58.763c-0.345,0.656-0.897,1.105-1.102,1.903c0.476,0.31,1.49,0.079,2.204,0.15c0.574-0.51,1.023-1.146,1.201-2.053
		C73.495,58.624,72.393,58.542,71.835,58.763z M10.54,61.617c-0.693,0.006-1.796-0.228-2.254,0.15
		c0.236,0.716,0.816,1.521,1.453,2.003c0.841-0.07,1.687,0.17,2.303-0.1C11.711,62.817,11.125,62.218,10.54,61.617z M15.147,62.519
		c-0.142-1.112-1.979-1.001-3.106-0.801c0.258,0.928,0.953,1.418,1.503,2.053c0.702,0.052,1.833,0.142,2.454-0.05
		C15.926,63.108,15.391,62.958,15.147,62.519z M19.504,62.669c-0.311-0.282-0.614-0.815-1.001-0.952
		c-0.666-0.235-1.473,0.068-2.404-0.05c-0.074,0.026-0.126,0.074-0.2,0.1c-0.083,0.505,0.528,0.736,0.751,1.102
		c0.317,0.351,0.625,0.711,1.052,0.952c0.848-0.021,2.151,0.25,2.755-0.15C20.376,63.222,19.878,63.008,19.504,62.669z
		 M29.97,65.673c-2.632-1.087-4.893-2.469-7.011-4.006c-0.868,0-1.736,0-2.604,0c-0.074,0.026-0.126,0.074-0.2,0.1
		c0.038,0.453,0.461,0.736,0.901,1.102c0.331,0.275,0.869,0.76,1.252,0.901c0.542,0.201,1.898-0.125,2.053,0.351
		c0.164,0.499-0.417,0.545-0.3,0.851c0.383,0.416,1.02,0.681,1.652,1.052c0.525,0.308,1.223,0.877,1.803,0.952
		c1.065,0.136,2.324-0.095,3.455-0.1c0.537-0.002,1.063,0.105,1.553-0.101C31.747,66.237,30.811,66.021,29.97,65.673z
		 M34.477,61.717c-0.725,0-1.481-0.155-2.153-0.05c-0.295,0.046-0.879-0.042-1.002,0.25c3.865,2.205,11.384,2.316,16.025,0.801
		c0.68-0.222,1.421-0.42,1.853-0.901C44.896,61.532,39.126,61.718,34.477,61.717z M57.312,61.717
		c-2.014,1.729-4.51,3.086-7.161,4.106c-0.707,0.272-1.499,0.459-2.103,0.951c1.506,0.246,3.514-0.008,5.108,0.15
		c1.128-0.608,2.345-1.127,3.255-1.953c-0.035-0.324-0.405-0.55-0.2-0.951c0.532-0.339,1.313-0.024,1.854-0.2
		c0.405-0.133,0.819-0.628,1.151-0.902c0.409-0.337,0.919-0.625,1.002-1.102C59.462,61.532,58.23,61.709,57.312,61.717z
		 M61.92,61.717c-0.388,0.28-0.707,0.628-1.052,0.952c-0.336,0.315-0.851,0.569-0.951,1.102c0.878,0.03,2.031,0.321,2.805,0.05
		c0.314-0.111,0.734-0.624,1.001-0.902c0.338-0.352,0.708-0.721,0.802-1.102C63.911,61.523,62.695,61.698,61.92,61.717z
		 M66.076,61.717c-0.628,0.607-1.302,1.168-1.702,2.003c0.814,0.079,1.962,0.386,2.654,0.05c0.29-0.141,0.566-0.616,0.801-0.901
		c0.273-0.333,0.634-0.672,0.651-1.052C67.931,61.547,66.779,61.675,66.076,61.717z M69.982,61.717
		c-0.293,0.108-0.625,0.613-0.851,0.901c-0.281,0.359-0.614,0.737-0.65,1.102c0.549,0.274,1.819,0.169,2.454,0.05
		c0.516-0.568,1.097-1.073,1.302-1.953C71.511,61.747,70.611,61.485,69.982,61.717z M13.995,65.624
		c-0.309-0.338-0.555-0.758-1.001-0.952c-0.787,0.04-1.735-0.193-2.403,0.05c-0.015,0.465,0.418,0.826,0.7,1.152
		c0.306,0.352,0.638,0.702,1.002,0.951c0.827-0.057,1.89,0.12,2.554-0.1C14.801,66.185,14.289,65.944,13.995,65.624z M17.251,64.722
		c-0.753-0.077-1.803-0.084-2.555,0c-0.023,0.478,0.398,0.888,0.701,1.202c0.328,0.342,0.713,0.729,1.152,0.901
		c0.824,0.038,2.188,0.187,2.854-0.1C18.862,65.882,17.958,65.399,17.251,64.722z M26.665,67.526c-1.67-0.826-3.18-1.82-4.657-2.805
		c-1.002,0.012-2.17-0.143-3.055,0.101c0.576,0.926,1.571,1.434,2.454,2.053c0.796,0.208,3.187-0.516,2.954,0.601
		c-0.117,0.451-1.092,0.044-1.252,0.451c0.565,0.517,1.274,0.858,2.054,1.252c0.452,0.229,1.739,1.099,2.304,1.052
		c0.227-0.019,0.473-0.305,0.751-0.351c1.119-0.184,2.695,0.295,3.706-0.2C30.136,68.925,28.331,68.35,26.665,67.526z
		 M30.621,64.822c0.477,0.508,1.271,0.666,2.003,0.901c4.595,1.477,10.978,1.404,15.425-0.05c0.639-0.209,1.393-0.355,1.753-0.851
		C43.291,64.644,37.164,64.642,30.621,64.822z M58.364,64.772c-0.774,0.424-1.468,0.99-2.203,1.502
		c-1.417,0.987-3.251,1.756-4.908,2.404c-0.867,0.339-1.836,0.474-2.653,1.052c1.122,0.461,2.734-0.114,3.856,0.15
		c0.239,0.057,0.424,0.338,0.651,0.351c0.238,0.014,0.849-0.308,1.151-0.451c0.844-0.397,1.419-0.709,2.104-1.152
		c0.308-0.199,0.758-0.394,0.852-0.801c-0.444-0.182-0.987,0.036-1.052-0.451c-0.122-0.919,1.995-0.339,2.854-0.5
		c0.464-0.25,0.896-0.581,1.302-0.902c0.386-0.304,0.917-0.611,1.052-1.151C60.572,64.629,59.242,64.718,58.364,64.772z
		 M63.071,64.772c-0.698,0.44-1.635,1.448-2.103,1.953c0.325,0.244,0.865,0.15,1.351,0.15c0.523,0,1.104,0.058,1.503,0
		c0.383-0.056,0.851-0.666,1.151-0.952c0.356-0.338,0.849-0.659,0.852-1.102C65.099,64.822,63.574,64.456,63.071,64.772z
		 M67.528,64.722c-0.059,0.024-0.113,0.054-0.149,0.101c-0.651,0.584-1.347,1.123-1.753,1.953c0.683,0.191,1.891,0.106,2.654,0.05
		c0.385-0.233,0.647-0.587,0.951-0.901c0.205-0.367,0.778-0.618,0.701-1.102C69.323,64.597,68.302,64.782,67.528,64.722z
		 M17.251,68.678c-0.364-0.291-0.792-0.819-1.202-0.952c-0.701-0.226-1.628,0.021-2.504,0c-0.071,0.012-0.085,0.082-0.15,0.101
		c0.448,0.87,1.319,1.317,1.953,2.003c0.959-0.059,2.159,0.123,2.954-0.1C18.2,69.274,17.671,69.015,17.251,68.678z M21.007,67.727
		c-0.985,0-1.971,0-2.955,0c-0.074,0.026-0.126,0.074-0.2,0.101c0.122,0.449,0.67,0.727,1.101,1.051
		c0.393,0.294,0.83,0.739,1.252,0.901c1.019,0.393,2.643,0.021,3.756-0.05C23.168,68.871,21.969,68.417,21.007,67.727z
		 M35.929,67.727c-1.638,0-3.368-0.179-4.857,0c-0.281,0.034-0.828-0.021-1.002,0.2c2.619,1.233,6.396,1.845,10.216,1.903
		c3.392,0.051,6.615-0.613,9.114-1.452c0.345-0.116,0.849-0.168,1.002-0.551C45.84,67.645,40.683,67.728,35.929,67.727z
		 M59.516,67.727c-0.064,0.003-0.069,0.064-0.15,0.05c-0.497,0.279-1.007,0.598-1.503,0.901c-0.487,0.298-1.123,0.547-1.352,1.102
		c1,0.195,2.523,0.101,3.605,0.05c0.815-0.637,1.821-1.084,2.403-1.953C61.785,67.561,60.492,67.802,59.516,67.727z M64.524,67.727
		c-0.545,0.096-0.99,0.636-1.453,1.002c-0.427,0.338-0.979,0.636-1.001,1.052c0.823,0.196,2.148,0.098,3.055,0.05
		c0.688-0.631,1.541-1.097,2.003-1.953C66.386,67.716,65.311,67.588,64.524,67.727z M27.967,71.433
		c-1.057-0.431-2.478-1.22-3.505-1.502c-0.117,0.233-0.041,0.661-0.301,0.751c-0.528,0.156-1.451-0.082-1.903,0.15
		c0.157,0.477,0.714,0.65,1.103,0.851c1.346,0.695,2.689,1.376,4.156,1.853c0.26-0.09,0.205-0.496,0.501-0.551
		c1.047-0.204,2.688,0.183,3.505-0.251C30.462,72.198,29.251,71.956,27.967,71.433z M54.107,70.731
		c-0.539,0.242-1.087,0.479-1.652,0.701c-1.168,0.46-2.364,0.762-3.405,1.302c0.926,0.454,2.521-0.053,3.556,0.251
		c0.202,0.116,0.167,0.468,0.4,0.551c0.966-0.261,1.839-0.727,2.704-1.152c0.853-0.418,1.807-0.784,2.404-1.502
		c-0.425-0.26-1.303-0.065-1.854-0.2c-0.146-0.17-0.095-0.539-0.25-0.701C55.344,70.112,54.736,70.449,54.107,70.731z
		 M21.657,71.733c-0.549-0.322-1.066-0.703-1.602-1.002c-1.074,0.061-2.396-0.125-3.306,0.1c0.678,0.926,1.77,1.436,2.755,2.053
		c1.261-0.075,2.588,0.145,3.656-0.05C22.898,72.241,22.185,72.043,21.657,71.733z M34.427,70.731c-1.414,0-2.859-0.15-4.106,0
		c-0.245,0.029-0.711-0.01-0.852,0.2c1.361,0.765,3.177,1.07,5.058,1.402c4.856,0.856,10.566,0.503,14.673-0.701
		c0.653-0.192,1.437-0.276,1.803-0.801C45.784,70.671,40.011,70.731,34.427,70.731z M60.517,70.731
		c-0.563,0.066-1.271,0.696-1.803,1.002c-0.587,0.338-1.294,0.579-1.502,1.102c1.188,0.109,2.472,0.114,3.705,0.05
		c0.513-0.225,0.957-0.577,1.402-0.901c0.437-0.317,1.037-0.552,1.252-1.102C62.741,70.692,61.387,70.628,60.517,70.731z
		 M24.612,73.335c-0.23,0.112-0.233,0.304-0.501,0.401c-0.726,0.261-2.071-0.211-2.654,0.2c0.274,0.41,0.822,0.645,1.302,0.901
		c0.492,0.263,1.044,0.506,1.553,0.751c1.056,0.508,2.211,1.031,3.355,1.202c0.174-0.193,0.049-0.685,0.351-0.751
		c0.857-0.222,2.418,0.212,3.004-0.25C28.878,74.979,26.666,74.235,24.612,73.335z M56.411,73.786
		c-0.232-0.118-0.378-0.519-0.701-0.401c-1.359,0.498-3.168,1.36-4.657,1.853c-0.552,0.183-1.234,0.19-1.552,0.651
		c0.944,0.157,2.168,0.035,3.154,0.15c0.17,0.164,0.092,0.577,0.251,0.751c1.194-0.227,2.266-0.717,3.255-1.202
		c0.988-0.484,2.022-0.927,2.805-1.652C58.369,73.631,57.245,73.854,56.411,73.786z M28.969,73.886
		c0.151,0.451,0.729,0.447,1.101,0.551c2.955,0.825,6.527,1.544,10.266,1.552c3.665,0.008,7.208-0.73,10.066-1.552
		c0.395-0.113,0.963-0.115,1.151-0.551C44.482,73.719,36.023,73.721,28.969,73.886z M46.546,76.841c-3.81,0.001-7.72,0-11.518,0
		c-1.956,0-3.994-0.212-5.759,0c-0.231,0.028-0.735-0.02-0.851,0.2c1.523,0.785,3.444,1.081,5.458,1.453
		c5.112,0.943,11.181,0.564,15.675-0.601c0.931-0.241,1.881-0.396,2.604-0.901C50.361,76.722,48.475,76.841,46.546,76.841z"/>
	<path style="fill-rule:evenodd;clip-rule:evenodd;" d="M56.211,0.522c-0.036-0.5,0.901-0.352,1.303-0.401
		c1.863-0.224,3.903,0.001,5.909,0c5.291,0,10.795,0.108,16.175,0c0.299-0.006,1.024-0.085,0.951,0.501
		c-0.069,0.565-2.149,0.351-2.804,0.351c-6.827,0-13.531,0.001-20.433,0C56.909,0.973,56.194,1.131,56.211,0.522z"/>
	<path style="fill-rule:evenodd;clip-rule:evenodd;" d="M0.023,79.595c-0.048-0.365,0.046-0.589,0.301-0.651
		c7.548,0.01,15.104,0.148,22.836,0.15c0.47,0.001,1.128-0.064,1.201,0.3c0.109,0.548-0.474,0.501-1.101,0.501
		c-6.948,0.001-13.339-0.101-20.281-0.1C1.969,79.795,0.88,79.951,0.023,79.595z"/>
	<path style="fill-rule:evenodd;clip-rule:evenodd;" d="M56.411,79.094c7.555,0.001,15.26-0.002,22.986,0
		c0.346,0.001,1.088-0.065,1.102,0.401c0.021,0.707-2.086,0.451-2.754,0.451c-6.257,0-12.851-0.09-18.83-0.05
		c-0.943,0.006-1.987,0.259-2.754-0.2c0.007-0.193-0.039-0.44,0.1-0.501C56.298,79.147,56.352,79.119,56.411,79.094z"/>
</g>
<g id="Layer_1">
</g>
</svg>
