<?xml version="1.0" encoding="iso-8859-1"?>
<!-- Generator: Adobe Illustrator 19.2.0, SVG Export Plug-In . SVG Version: 6.00 Build 0)  -->
<svg version="1.1" xmlns="http://www.w3.org/2000/svg" xmlns:xlink="http://www.w3.org/1999/xlink" x="0px" y="0px"
	 viewBox="0 0 75.983 76.491" style="enable-background:new 0 0 75.983 76.491;" xml:space="preserve">
<g id="Pierrel_x5F_57">
	<path style="fill-rule:evenodd;clip-rule:evenodd;" d="M45.259,46.568c-0.319,0.488-0.198,1.111-0.19,1.67
		c0.04,3.158-0.048,6.297-0.048,9.4c-0.001,5.051,0.001,9.881,0,15.076c-0.001,1.238,0.114,2.479-0.144,3.674
		c-4.704,0.17-9.813,0.086-14.791,0.049c0.009-0.041-0.018-0.045-0.048-0.049c-0.311-9.807,0.138-19.744-0.143-29.771
		c-1.128-0.293-2.33-0.178-3.531-0.191c-6.271-0.068-12.506-0.096-18.847-0.096c-2.486,0-4.964,0.104-7.348-0.143
		c-0.201-1.07-0.11-2.244-0.143-3.484c-0.096-3.662,0.094-7.916,0.143-11.545c2.377-0.145,4.81-0.049,7.3-0.049
		c7.409,0.002,15.156,0.123,22.426,0c0.383-10.078-0.067-21.045,0.286-30.965C36.388,0.05,42.806-0.1,49.029,0.095
		c2.687,0.086,5.11-0.139,7.252,0.191c2.151,0.332,3.91,0.928,5.678,1.766c6.648,3.15,11.598,8.316,13.455,16.318
		c1.069,4.6,0.531,9.164-0.763,12.93c-1.259,3.662-3.517,6.57-5.917,8.971c-2.489,2.488-5.591,4.338-9.352,5.533
		C55.619,47.002,50.219,46.324,45.259,46.568z M50.412,30.871c2.023,0,4.174,0.129,5.534-0.43c1.475-0.604,3.259-2.35,3.817-3.77
		c0.729-1.851,0.743-4.488,0.048-6.346c-0.476-1.27-1.857-2.543-3.006-3.34c-0.445-0.309-1.238-0.635-1.814-0.811
		c-2.301-0.703-6.491-0.1-9.065-0.238c-0.399,0.4-0.238,1.074-0.238,1.621c-0.001,4.395-0.09,9.135,0.096,13.17
		C47.315,30.986,48.896,30.871,50.412,30.871z"/>
</g>
<g id="Layer_1">
</g>
</svg>
