<?xml version="1.0" encoding="iso-8859-1"?>
<!-- Generator: Adobe Illustrator 19.2.0, SVG Export Plug-In . SVG Version: 6.00 Build 0)  -->
<svg version="1.1" xmlns="http://www.w3.org/2000/svg" xmlns:xlink="http://www.w3.org/1999/xlink" x="0px" y="0px"
	 viewBox="0 0 72.357 74.191" style="enable-background:new 0 0 72.357 74.191;" xml:space="preserve">
<g id="Pila_x5F_79">
	<path style="fill-rule:evenodd;clip-rule:evenodd;" d="M72.343,25.556c-0.647-0.029-1.18-0.515-1.648-0.872
		c-0.993-0.76-1.853-1.416-2.958-2.231c-0.428-0.315-1.131-0.92-1.601-0.97c-0.765-0.081-2.031,0.679-2.666,0.921
		c-0.941,0.358-1.617,0.735-2.668,0.873c-0.794-0.148-1.288-0.752-1.842-1.164c-0.579-0.429-1.168-0.835-1.746-1.261
		c-2.855-2.104-5.587-4.275-8.584-6.401c-0.553-0.392-1.207-1.167-1.745-1.212c-0.495-0.042-1.132,0.33-1.648,0.533
		c-1.181,0.463-1.918,0.742-3.104,1.261c-0.47,0.206-1.177,0.553-1.6,0.534c-0.57-0.026-1.481-0.951-1.988-1.31
		c-0.68-0.479-1.287-1.25-1.988-1.309c-0.495-0.042-1.182,0.324-1.746,0.533c-2.787,1.035-5.313,2.18-8.098,3.298
		c-0.485,0.194-1.068,0.379-1.649,0.63c-0.54,0.234-1.218,0.647-1.649,0.631c-0.945-0.037-1.197-1.188-2.134-1.358
		c-1.86,0.441-3.562,1.321-5.285,2.037c-3.438,1.428-6.933,2.755-10.475,4.122c-1.741,0.671-3.433,1.516-5.286,1.891
		c-0.329-0.962-0.072-2.006-0.097-3.006C-0.015,15.564,0.084,8.117,0.185,1.406C0.193,0.937,0.078,0.417,0.332,0
		C10.816,0.002,21.85,0.145,32.531,0.145c3.648,0,7.241,0.099,10.668,0.048c3.415-0.05,7.086-0.247,9.844,0.485
		c2.833,0.752,5.255,1.89,7.42,3.297c4.329,2.815,7.548,6.585,9.795,11.638C71.452,18.366,72.493,21.784,72.343,25.556z"/>
	<path style="fill-rule:evenodd;clip-rule:evenodd;" d="M28.699,36.661c0.085,0.461,0.479,0.698,0.825,0.97
		c0.322,0.253,0.701,0.591,1.115,0.63c0.641,0.062,1.619-0.492,2.327-0.776c5.198-2.086,10.007-4.176,15.228-6.207
		c5.115-1.99,10.072-4.084,15.275-6.158c0.672-0.268,1.749-0.851,2.23-0.825c0.49,0.027,1.32,0.795,1.745,1.115
		c1.148,0.866,2.046,1.531,3.249,2.473c0.442,0.346,1.396,0.818,1.504,1.31c0.084,0.384-0.145,1.029-0.243,1.648
		c-0.587,3.686-2.008,6.743-3.637,9.262c-1.96,3.031-4.439,5.545-7.322,7.419c-2.893,1.881-6.386,3.695-10.571,4.17
		c-4.484,0.509-9.724-0.25-14.354,0.194c-0.259,0.861-0.146,1.808-0.146,2.716c0.001,6.566,0.015,13.094-0.145,19.494
		c-11.736,0.192-24.04,0.073-35.691-0.194c-0.192-15.135-0.022-30.488,0.049-45.971c0.717-0.57,1.638-0.757,2.474-1.116
		c2.498-1.072,5.103-1.925,7.71-3.006c2.804-1.163,5.947-2.341,8.923-3.588c0.424-0.178,1.016-0.489,1.261-0.485
		c0.742,0.011,1.478,1.217,2.278,1.309c0.783,0.09,2.409-0.802,3.152-1.115c3.142-1.324,6.179-2.517,9.31-3.783
		c0.931-0.18,1.808,0.796,2.425,1.261c0.467,0.352,1.463,1.316,2.134,1.358c0.518,0.033,1.192-0.31,1.746-0.533
		c1.166-0.471,1.982-0.802,3.151-1.31c0.484-0.209,1.126-0.597,1.648-0.582c0.458,0.013,1.142,0.537,1.553,0.873
		c1.389,1.136,2.626,2.04,4.073,3.152c1.229,0.944,2.655,2.062,4.073,3.152c0.47,0.361,1.248,0.791,1.212,1.164
		c-0.034,0.36-1.106,0.688-1.649,0.921c-0.744,0.319-1.337,0.439-1.843,0.679c-3.438,1.637-7.133,2.933-10.766,4.413
		c-4.224,1.721-8.434,3.378-12.608,5.141C29.834,36.074,29.132,36.16,28.699,36.661z"/>
</g>
<g id="Layer_1">
</g>
</svg>
