<?xml version="1.0" encoding="iso-8859-1"?>
<!-- Generator: Adobe Illustrator 19.2.0, SVG Export Plug-In . SVG Version: 6.00 Build 0)  -->
<svg version="1.1" xmlns="http://www.w3.org/2000/svg" xmlns:xlink="http://www.w3.org/1999/xlink" x="0px" y="0px"
	 viewBox="0 0 68.72 78.089" style="enable-background:new 0 0 68.72 78.089;" xml:space="preserve">
<g id="Pitori_x5F_Pikori_x5F_75">
	<path style="fill-rule:evenodd;clip-rule:evenodd;" d="M25.837,68.016c-0.208-2.669-0.144-5.446-0.144-8.23
		c0-8.267,0.146-17.057,0-25.216c-1.396-0.216-3.185-0.037-4.736-0.096c-0.16,13.48-0.143,27.304-0.145,40.958
		c0,0.865,0.117,1.75-0.144,2.584c-4.994,0.128-10.649,0.093-15.599-0.144c-0.258-0.844-0.144-1.769-0.144-2.631
		c0.001-2.707,0-5.506,0-8.278c0.001-9.416,0.048-17.845,0.048-27.178c0-1.784,0.088-3.583-0.096-5.311
		c-1.307-0.399-3.522,0.109-4.832-0.287c-0.217-2.665,0.353-5.16,0.861-7.464C2.411,19.901,5.77,14.491,10,10.262
		c5.77-5.77,13.237-9.73,24.019-10.24c2.884-0.136,5.796,0.369,8.326,0.957c5.063,1.177,8.947,3.315,12.488,5.981
		c5.215,3.926,9.339,9.079,11.818,15.886c1.644,4.51,2.583,10.409,1.771,16.125c-0.788,5.551-2.363,9.766-4.784,13.733
		c-2.308,3.782-5.306,7.031-8.805,9.665c-3.339,2.514-7.675,4.834-12.584,5.886C37.254,69.325,31,69.529,25.837,68.016z
		 M33.924,53.087c1.183,0.055,2.399-0.043,3.492-0.239c4.245-0.762,7.343-2.75,9.809-5.216c1.275-1.276,2.45-2.713,3.205-4.306
		c1.328-2.803,2.275-6.393,1.914-9.953c-0.739-7.296-4.144-11.874-9.378-14.737c-2.581-1.412-5.962-2.487-9.857-2.201
		c-5.118,0.377-9.122,2.756-11.865,5.646c-2.193,2.31-3.725,4.924-4.643,8.469c-0.297,1.15-0.693,2.456-0.334,3.78
		c1.426,0.181,3.137,0.134,4.593,0.048c0.368-4.042,1.812-6.973,4.067-9.187c2.202-2.162,5.484-3.78,9.475-3.78
		c4.009,0,7.353,1.833,9.33,3.923c2.16,2.285,3.895,5.295,3.876,9.426c-0.02,4.162-1.688,6.935-3.685,9.235
		c-1.033,1.064-2.264,2.031-3.732,2.727c-1.418,0.672-3.084,1.398-5.025,1.244c-0.141-1.332-0.2-3.383,0.048-4.641
		c4.077-0.836,6.879-3.404,7.417-7.56c0.383-2.954-0.836-5.302-2.345-6.843c-1.265-1.291-2.994-2.416-5.167-2.583
		c-4.334-0.334-7.29,2.126-8.661,5.12c-0.367,0.801-0.729,1.857-0.622,2.967c1.432,0.195,3.413-0.16,4.689,0.191
		c0.178,5.923-0.116,12.263,0.144,17.991C31.686,53.05,32.865,53.038,33.924,53.087z"/>
</g>
<g id="Layer_1">
</g>
</svg>
