<?xml version="1.0" encoding="iso-8859-1"?>
<!-- Generator: Adobe Illustrator 19.2.0, SVG Export Plug-In . SVG Version: 6.00 Build 0)  -->
<svg version="1.1" xmlns="http://www.w3.org/2000/svg" xmlns:xlink="http://www.w3.org/1999/xlink" x="0px" y="0px"
	 viewBox="0 0 75.85 75.665" style="enable-background:new 0 0 75.85 75.665;" xml:space="preserve">
<g id="pittsburgh_x5F_wholesale_x5F_distributors">
	<path style="fill-rule:evenodd;clip-rule:evenodd;" d="M38.118,0c0.711,0.384,1.823,1.677,2.446,2.3
		C50.75,12.484,60.883,22.567,71.05,32.735c0.778,0.779,1.549,1.581,2.349,2.349c0.387,0.372,0.683,0.878,1.076,1.272
		c0.388,0.388,0.932,0.701,1.027,1.272c-4.834,0.237-10.161-0.017-15.07,0.146c0.702,0.484,1.646,0.609,2.495,0.881
		c0.844,0.271,1.619,0.653,2.349,0.979c4.199,2.113,7.256,5.188,9.102,9.688c0.602,1.467,1.11,3.141,1.321,4.894
		c0.604,5.019-0.67,9.475-2.643,12.674c-2.686,4.356-7.091,7.68-13.261,8.562c-3.692,0.529-7.618-0.096-10.569-1.419
		c-5.692-2.552-9.51-7.243-11.107-13.848c-0.286,1.085-0.196,2.395-0.196,3.768c0.001,3.804,0.08,7.98-0.097,11.646
		c-9.102,0.144-18.968,0.001-28.431,0C6.24,75.6,3.051,75.706,0.098,75.453c-0.145-13.087-0.13-24.873,0.049-37.824
		c12.608-0.181,25.215,0.099,37.679-0.049c0.177-10.591,0.149-22.024,0.147-32.638c-0.001-1.58-0.041-3.354,0.049-4.796
		C38.019,0.063,38.057,0.021,38.118,0z M45.899,37.629c-2.575,0-5.214,0-7.732,0c-0.062,0.003-0.068,0.062-0.146,0.049
		c-0.17,0.338-0.099,1.229-0.099,1.908c0,3.386,0.001,6.639,0,9.836c0,1.319-0.114,2.618,0.196,3.768
		c0.616-2.032,1.222-3.894,2.104-5.579c2.147-4.102,5.875-7.203,10.374-8.856c0.93-0.341,1.925-0.518,2.888-0.979
		C51.101,37.512,48.491,37.629,45.899,37.629z"/>
</g>
<g id="Layer_1">
</g>
</svg>
