<?xml version="1.0" encoding="iso-8859-1"?>
<!-- Generator: Adobe Illustrator 21.0.2, SVG Export Plug-In . SVG Version: 6.00 Build 0)  -->
<svg version="1.1" xmlns="http://www.w3.org/2000/svg" xmlns:xlink="http://www.w3.org/1999/xlink" x="0px" y="0px"
	 viewBox="0 0 54.79 100.592" style="enable-background:new 0 0 54.79 100.592;" xml:space="preserve">
<g id="Plancheck">
	<g id="Layer_1-2">
		<path d="M30.94,0.001H6.66C3.046-0.06,0.066,2.817,0,6.431v66.75c0.066,3.59,3.009,6.458,6.6,6.43h21.6v14.55
			c0.066,3.617,3.051,6.496,6.668,6.43c0.001,0,0.001,0,0.002,0c0.598,0.002,1.193-0.076,1.77-0.23
			c10.55-2.73,18.15-10.43,18.15-19.5v-57.82l0,0C54.77,10.311,44.1,0.001,30.94,0.001z M51.77,80.861c0,7.47-6.39,14.14-15.9,16.6
			c-0.327,0.081-0.663,0.125-1,0.13c-1.959,0.062-3.599-1.471-3.67-3.43v-46.53c0.024-0.672,0.549-1.219,1.22-1.27
			c6.573-0.655,12.79-3.299,17.82-7.58c0.54-0.48,1.06-1,1.55-1.49L51.77,80.861z"/>
	</g>
</g>
<g id="Layer_1">
</g>
</svg>
