<?xml version="1.0" encoding="iso-8859-1"?>
<!-- Generator: Adobe Illustrator 19.2.0, SVG Export Plug-In . SVG Version: 6.00 Build 0)  -->
<svg version="1.1" xmlns="http://www.w3.org/2000/svg" xmlns:xlink="http://www.w3.org/1999/xlink" x="0px" y="0px"
	 viewBox="0 0 63.664 76.052" style="enable-background:new 0 0 63.664 76.052;" xml:space="preserve">
<g id="Plumbing_x5F_Contractors_x5F_Association">
	<path style="fill-rule:evenodd;clip-rule:evenodd;" d="M9.212,75.884c-1.328,0.257-2.947,0.143-4.498,0.144
		c-1.579,0-3.157,0.066-4.546-0.096c-0.021-0.042-0.042-0.085-0.096-0.096c-0.114-8.706-0.048-17.422-0.048-26.508
		c0-4.42,0.197-8.969,0-13.206c-0.095-2.048,0.099-4.271,0.287-6.364c0.184-2.049,0.463-4.073,0.957-5.79
		c2.018-7.005,5.534-12.501,10.479-16.556c2.484-2.037,5.227-3.835,8.421-5.072c2.498-0.967,5.095-1.641,8.086-2.058
		c8.436-1.175,16.267,1.485,21.34,4.785c2.437,1.584,4.488,3.255,6.316,5.263c1.822,2,3.258,4.381,4.546,6.986
		c1.232,2.493,2.362,5.448,2.823,8.756c0.474,3.396,0.595,7.24-0.144,10.67c-1.333,6.195-4.395,11.137-8.23,14.881
		c-1.865,1.973-4.151,3.621-6.699,4.88c-2.563,1.267-5.439,2.387-8.852,2.727c-3.686,0.367-7.11,0.112-10.192-0.813
		c-5.947-1.786-10.2-4.958-13.637-9.474c-1.698-2.232-3.132-4.782-3.971-7.608c-0.898-3.024-1.432-6.562-0.957-10.336
		c0.86-6.843,3.521-11.669,7.751-15.359c2.14-1.867,4.643-3.266,7.416-4.163c2.977-0.962,6.856-1.345,10.288-0.814
		c1.541,0.238,3.005,0.816,4.402,1.388c4.114,1.681,7.16,4.256,9.57,7.751c1.653,2.398,2.689,5.134,3.158,8.421
		c1.125,7.877-2.102,13.129-6.125,16.603c-2.056,1.896-4.747,3.02-7.942,3.637c-5.354,1.034-10.365-0.874-13.254-3.541
		c-2.84-2.621-5.496-6.609-5.072-12.058c0.28-3.602,1.21-6.31,3.158-8.421c1.82-1.972,4.474-3.436,7.847-3.732
		c3.991-0.351,6.481,1.159,8.469,3.014c1.397,1.303,2.548,3.199,2.967,5.694c0.124,0.737,0.428,2.054,0,2.488
		c-0.259,0.263-1.21,0.25-1.771,0.239c-1.942-0.038-4.241,0.003-6.029-0.144c-0.763-0.523-0.775-1.496-1.483-2.009
		c-1.95-1.415-4.31,0.412-4.21,2.488c-0.21,3.045,0.986,4.98,2.679,6.173c1.82,1.281,4.702,1.602,7.129,0.669
		c2.095-0.804,3.669-2.375,4.45-4.498c0.871-2.368,0.674-5.296-0.191-7.56c-0.88-2.3-2.056-3.905-3.732-5.216
		c-0.838-0.655-1.708-1.336-2.727-1.722c-1.046-0.396-2.265-0.611-3.685-0.766c-2.818-0.306-5.257,0.565-7.273,1.579
		c-3.889,1.955-6.311,5.763-6.747,11.101c-0.232,2.837,0.268,5.28,1.148,7.608c1.585,4.19,4.937,7.206,9.043,8.804
		c2.217,0.862,5.042,1.323,7.751,1.101c2.62-0.215,5.037-0.961,6.938-1.962c3.923-2.066,6.819-4.963,8.613-9.234
		c0.94-2.238,1.388-4.893,1.387-7.561c0-5.642-1.996-10.002-4.641-13.254c-2.688-3.306-5.973-5.842-10.575-7.273
		c-1.155-0.359-2.254-0.717-3.54-0.909c-7.067-1.056-13.249,1.311-17.321,4.402c-1.701,1.291-3.126,2.827-4.402,4.546
		c-1.276,1.719-2.424,3.706-3.158,5.79c-0.77,2.189-1.428,4.674-1.531,7.416c-0.109,2.922-0.002,5.851,0,8.709
		C9.364,52.155,9.236,64.147,9.212,75.884z"/>
</g>
<g id="Layer_1">
</g>
</svg>
