<?xml version="1.0" encoding="iso-8859-1"?>
<!-- Generator: Adobe Illustrator 21.0.2, SVG Export Plug-In . SVG Version: 6.00 Build 0)  -->
<svg version="1.1" xmlns="http://www.w3.org/2000/svg" xmlns:xlink="http://www.w3.org/1999/xlink" x="0px" y="0px"
	 viewBox="0 0 8.764 12.365" style="enable-background:new 0 0 8.764 12.365;" xml:space="preserve">
<g id="Pluss_x5F_Druck">
	<path d="M4.468,0.107c0.727-0.183,1.517-0.133,2.209,0.161C7.334,0.541,7.907,1.02,8.278,1.629C8.829,2.504,8.915,3.646,8.52,4.598
		C8.101,5.621,7.15,6.402,6.067,6.619C5.429,6.754,4.755,6.709,4.141,6.491C3.165,6.138,2.355,5.327,2.05,4.329
		C2.015,4.21,1.997,4.085,1.948,3.97c0.015,0.75,0.003,1.501,0.006,2.252c0.001,2.047-0.002,4.094,0.002,6.141
		C1.304,12.367,0.652,12.365,0,12.365C0,8.27,0,4.175,0,0.08c0.651,0,1.303-0.002,1.955,0.001C1.953,0.964,1.959,1.849,1.951,2.732
		c0.064-0.17,0.082-0.352,0.151-0.52C2.48,1.177,3.402,0.374,4.468,0.107z M5.278,1.987C4.791,2.006,4.319,2.29,4.093,2.724
		C3.909,3.052,3.886,3.459,4.016,3.81c0.137,0.367,0.438,0.665,0.803,0.806c0.299,0.12,0.64,0.129,0.947,0.031
		C6.064,4.551,6.325,4.35,6.502,4.093c0.154-0.224,0.225-0.497,0.234-0.766c-0.024-0.414-0.221-0.83-0.569-1.067
		C5.914,2.07,5.594,1.975,5.278,1.987z"/>
</g>
<g id="Layer_1">
</g>
</svg>
