<?xml version="1.0" encoding="iso-8859-1"?>
<!-- Generator: Adobe Illustrator 19.2.0, SVG Export Plug-In . SVG Version: 6.00 Build 0)  -->
<svg version="1.1" xmlns="http://www.w3.org/2000/svg" xmlns:xlink="http://www.w3.org/1999/xlink" x="0px" y="0px"
	 viewBox="0 0 51.26 79.376" style="enable-background:new 0 0 51.26 79.376;" xml:space="preserve">
<g id="Post_x5F_Magazine">
	<path style="fill-rule:evenodd;clip-rule:evenodd;" d="M26.004,0c2.21,2.032,4.372,4.11,6.336,6.388
		c5.354,5.257,10.585,10.638,15.968,15.866c0.782,0.767,1.599,1.557,2.383,2.383c0.235,0.248,0.642,0.509,0.558,0.912
		c-1.125,0.314-2.45,0.152-3.752,0.152c-3.797-0.001-8.026,0.018-11.76,0.151c-0.403,2.165-0.152,4.658-0.152,6.996
		c0,12.064-0.253,24.449-0.253,36.802c0,0.787,0.017,1.864,0,2.737c-0.021,1.038-0.086,2.222,0.203,2.737
		c1.422,0.725,3.088,1.219,4.815,1.774c0.768,0.247,1.521,0.539,2.434,0.861c0.582,0.206,2.188,0.47,2.078,1.166
		c-0.086,0.542-1.715,0.356-2.585,0.355c-1.193,0-2.007,0.001-2.94,0c-0.98,0-1.977,0.13-2.839,0
		c-0.668-0.101-1.697-0.652-2.281-0.607c-0.464,0.035-0.48,0.498-0.963,0.607c-0.574,0.131-1.461,0.057-2.129,0.051
		c-0.726-0.007-1.456-0.017-2.028-0.151c-0.328-0.946-0.302-2-0.355-2.991c-0.61-11.412-1.291-22.991-1.977-34.368
		c-0.126-2.086-0.172-4.186-0.355-6.235c-0.181-2.031-0.134-4.065-0.558-6.032c-0.59,4.018-0.612,8.183-0.963,12.318
		c-0.351,4.146-0.48,8.319-0.811,12.47c-0.332,4.162-0.519,8.357-0.76,12.521c-0.181,3.123-0.34,6.231-0.608,9.378
		c-0.083,0.983-0.019,2.006-0.354,2.94c-1.082-0.028-2.998,0.37-4.258,0.101c-0.491-0.105-0.55-0.605-0.963-0.658
		c-0.642-0.084-1.691,0.58-2.332,0.658c-1.235,0.151-3.209,0.001-4.562,0c-1.009,0-3.934,0.372-4.055-0.355
		c-0.125-0.75,1.605-1.007,2.231-1.217c1.818-0.61,3.342-1.12,5.12-1.724c0.847-0.287,1.763-0.453,2.382-1.014
		c0.086-4.193,0.196-8.274,0.152-12.419c-0.121-11.52,0.142-24.397-0.102-36.65c-1.179-0.316-2.531-0.151-3.903-0.151
		c-3.369-0.001-6.865,0-10.189,0c-0.63,0-1.309,0.116-1.875-0.152c0.188-0.747,0.935-1.28,1.47-1.774
		c3.861-3.564,7.498-7.296,11.304-11.102c2.095-2.095,4.257-4.213,6.539-6.285c0.521-0.473,1.057-1.062,1.571-1.622
		c1.023-1.113,2.073-2.076,3.244-3.143C24.756,1.103,25.242,0.175,26.004,0z"/>
</g>
<g id="Layer_1">
</g>
</svg>
