<?xml version="1.0" encoding="iso-8859-1"?>
<!-- Generator: Adobe Illustrator 19.2.0, SVG Export Plug-In . SVG Version: 6.00 Build 0)  -->
<svg version="1.1" xmlns="http://www.w3.org/2000/svg" xmlns:xlink="http://www.w3.org/1999/xlink" x="0px" y="0px"
	 viewBox="0 0 81.145 81.793" style="enable-background:new 0 0 81.145 81.793;" xml:space="preserve">
<g id="postisaastopankki">
	<path style="fill-rule:evenodd;clip-rule:evenodd;" d="M38.697,0.068c3.211-0.223,6.74,0.128,9.528,0.694
		c2.833,0.576,5.32,1.531,7.742,2.432c2.456,0.913,4.572,2.251,6.601,3.573c1.061,0.691,2.031,1.383,2.978,2.134
		c4.704,3.733,8.537,8.394,11.365,14.094c1.143,2.305,2.108,4.728,2.828,7.346c0.747,2.712,1.142,5.574,1.34,8.833
		c0.405,6.634-1.062,12.415-3.026,17.171c-3.033,7.339-7.536,12.745-13.3,17.27c-0.927,0.729-1.924,1.505-2.978,2.134
		c-1.056,0.631-2.095,1.364-3.176,1.886c-4.616,2.229-10.06,3.858-16.227,4.119c-6.548,0.277-12.502-0.87-17.27-2.928
		c-2.424-1.046-4.676-2.06-6.65-3.523c-1.967-1.458-3.915-2.808-5.658-4.516c-3.506-3.437-6.278-7.148-8.586-11.812
		c-2.279-4.607-3.893-9.661-4.168-16.178c-0.28-6.655,1.027-12.221,3.027-17.171c2.018-4.993,4.559-8.847,7.891-12.456
		c4.779-5.18,10.988-9.426,18.908-11.663c1.278-0.36,2.684-0.728,4.169-0.942C35.57,0.342,37.111,0.177,38.697,0.068z
		 M38.399,28.205c0.316-6.692,0.638-13.039,0.943-19.751c0.042-0.934,0.35-2.64-0.099-3.077c-0.281-0.273-0.976-0.189-1.439-0.148
		c-4.111,0.359-7.801,1.364-11.116,2.778c-0.659,0.281-2.829,1.019-2.928,1.737c-0.052,0.377,0.437,1.091,0.694,1.489
		c0.334,0.516,0.635,0.956,0.894,1.34c3.957,5.859,7.469,11.818,11.364,17.518c0.279,0.408,0.617,0.97,1.191,1.042
		C38.452,30.372,38.351,29.227,38.399,28.205z M41.426,8.653c0.249,6.654,0.654,13.02,0.943,19.603
		c0.029,0.666,0.023,2.777,0.546,2.878c0.623,0.12,1.258-1.241,1.588-1.736c3.148-4.72,6.011-9.615,9.032-14.292
		c0.901-1.369,1.734-2.667,2.63-4.07c0.255-0.398,0.786-1.032,0.695-1.538c-0.068-0.375-0.916-0.74-1.39-0.992
		c-0.606-0.323-1.135-0.544-1.638-0.745c-3.396-1.355-8.067-2.655-12.059-2.53C40.897,5.542,41.384,7.518,41.426,8.653z
		 M60.334,11.382c-0.482-0.323-0.957-0.708-1.34-0.794c-0.498-0.112-0.848,0.695-1.141,1.24c-1.802,3.353-3.527,6.874-5.161,10.124
		c-1.756,3.492-3.35,6.768-5.062,10.174c-0.236,0.469-0.707,0.963-0.348,1.538c0.483,0.192,0.952-0.14,1.34-0.348
		c1.279-0.682,2.571-1.265,3.822-1.935c1.665-0.891,3.363-1.723,5.012-2.63c3.308-1.819,6.73-3.462,9.975-5.31
		c0.63-0.533,2.508-0.772,2.63-1.737c0.064-0.515-0.606-1.256-0.943-1.736c-0.424-0.606-0.775-1.117-1.191-1.589
		C65.882,15.846,63.191,13.296,60.334,11.382z M33.139,32.077c-3.33-6.197-6.391-12.464-9.628-18.759
		c-0.395-0.769-1.034-2.944-1.985-2.481c-1.831,0.893-3.278,2.297-4.714,3.623c-2.012,1.855-3.671,3.76-5.31,6.054
		c-0.309,0.433-0.85,1.098-0.794,1.489c0.05,0.354,0.743,0.69,1.191,0.942c0.546,0.308,1.031,0.531,1.439,0.745
		c2.905,1.522,5.784,2.981,8.536,4.417c3.309,1.726,6.652,3.615,10.074,5.062c0.464,0.196,0.972,0.646,1.539,0.446
		C33.77,33.108,33.368,32.503,33.139,32.077z M75.321,34.756c-0.441-2.897-1.299-5.423-2.282-7.841
		c-0.412-1.013-1.038-2.912-1.985-3.126c-0.328-0.075-1.21,0.694-1.538,0.893c-1.37,0.828-2.727,1.765-4.02,2.581
		c-3.736,2.358-6.903,4.653-10.669,6.997c-1.237,0.77-2.685,1.781-3.97,2.63c-0.356,0.235-1.185,0.641-1.092,1.142
		c0.103,0.555,2.123,0.522,2.878,0.546c3.457,0.107,6.455,0.259,9.875,0.397c2.204,0.089,4.469,0.07,6.65,0.248
		c1.104,0.09,2.233,0.137,3.325,0.148c1.036,0.011,2.161,0.223,3.077-0.198C75.962,37.807,75.54,36.196,75.321,34.756z
		 M29.963,36.89c-0.439-0.29-0.908-0.575-1.34-0.844c-4.581-2.836-8.826-5.721-13.35-8.684c-1.315-0.861-2.645-1.769-3.97-2.63
		c-0.483-0.314-1.046-0.696-1.439-0.794c-0.622-0.155-1.016,1.119-1.241,1.588c-1.7,3.551-2.784,7.222-3.375,11.712
		c-0.097,0.736-0.268,1.578,0.148,2.184c1.007,0.248,2.071,0.098,3.127,0.05c7.075-0.322,14.268-0.629,21.141-1.042
		c0.469-0.028,1.06,0.053,1.34-0.397C30.976,37.433,30.361,37.154,29.963,36.89z M74.478,41.407
		C67.303,41.742,59.526,42,52.642,42.547c-1.052,0.084-2.179-0.1-2.878,0.447c0.009,0.617,0.673,0.868,1.092,1.141
		c2.29,1.493,4.559,2.946,6.799,4.467c3.983,2.705,8.21,5.33,12.307,7.94c0.437,0.278,1.117,0.805,1.539,0.744
		c0.393-0.056,0.829-0.972,1.042-1.439c1.846-4.055,3.2-8.599,3.176-14.144C75.465,41.283,74.962,41.383,74.478,41.407z
		 M5.199,43.887c0.426,4.931,1.56,8.431,3.126,12.01c0.243,0.555,0.662,1.401,1.092,1.439c0.368,0.033,0.993-0.439,1.489-0.744
		c0.511-0.313,0.966-0.65,1.34-0.893c5.909-3.837,11.73-7.769,17.618-11.514c0.334-0.213,1.252-0.562,1.141-1.141
		c-0.109-0.566-2.11-0.456-2.729-0.497c-1.216-0.078-2.221-0.025-3.176-0.099c-4.862-0.375-10.979-0.65-16.128-0.894
		c-0.988-0.047-2.488-0.21-3.176-0.05C4.873,41.72,5.092,42.649,5.199,43.887z M47.779,48.95c0.255,0.515,0.484,1.04,0.694,1.538
		c0.43,1.016,1.05,1.957,1.539,2.929c2.493,4.958,5.033,9.794,7.543,14.788c0.298,0.593,1.018,2.669,1.737,2.729
		c0.543,0.046,1.343-0.718,1.787-1.042c3.381-2.471,6.056-5.209,8.387-8.734c0.326-0.493,1.09-1.279,0.993-1.886
		c-0.054-0.33-0.831-0.74-1.191-0.943c-3.294-1.851-6.935-3.441-10.025-5.21c-1.938-1.11-3.737-1.93-5.756-2.929
		c-1.446-0.715-2.828-1.481-4.268-2.233c-0.557-0.29-1.321-0.81-1.787-0.545C47.084,47.958,47.568,48.523,47.779,48.95z
		 M32.841,47.412c-0.956,0.414-1.889,0.954-2.829,1.438c-2.878,1.486-5.571,2.951-8.536,4.417c-2.846,1.407-5.575,3.027-8.436,4.467
		c-0.793,0.398-2.555,1.011-2.63,1.687c-0.058,0.527,0.687,1.402,0.992,1.837c1.264,1.799,2.408,3.301,3.871,4.764
		c1.416,1.416,2.91,2.765,4.565,4.02c0.41,0.311,1.306,1.091,1.886,0.993c0.365-0.063,0.704-0.778,0.943-1.241
		c0.802-1.554,1.527-3.062,2.233-4.467c2.776-5.523,5.551-10.792,8.238-16.227c0.236-0.478,0.646-0.998,0.446-1.589
		C33.403,47.309,33.024,47.331,32.841,47.412z M39.441,73.266c-0.251-6.705-0.693-13.787-0.992-20.395
		c-0.029-0.631,0.252-2.938-0.695-2.879c-0.406,0.025-0.898,0.939-1.191,1.39c-4.16,6.396-8.149,12.702-12.258,19.156
		c-0.292,0.459-0.788,1.191-0.744,1.538c0.055,0.433,0.909,0.809,1.439,1.092c1.781,0.953,3.72,1.522,5.558,2.084
		c2.016,0.616,4.134,1.055,6.402,1.241c0.732,0.06,1.567,0.251,2.332-0.05C39.684,75.537,39.483,74.369,39.441,73.266z
		 M42.915,50.041c-0.481,0.888-0.398,2.024-0.447,3.077c-0.052,1.11-0.077,2.261-0.149,3.374
		c-0.358,5.523-0.466,11.381-0.794,16.725c-0.066,1.072-0.271,2.179,0.05,3.176c0.652,0.381,1.503,0.211,2.233,0.149
		c0.757-0.064,1.565-0.176,2.283-0.298c3.684-0.629,6.894-1.731,9.776-3.127c0.539-0.261,1.304-0.446,1.439-1.142
		c-0.321-1.058-1.04-1.933-1.638-2.829c-1.831-2.744-3.488-5.55-5.261-8.287c-2.077-3.208-4.012-6.572-6.153-9.627
		c-0.294-0.421-0.545-1.008-1.092-1.191c-0.003-0.03-0.007-0.059-0.05-0.05C43.047,50.007,43.019,50.063,42.915,50.041z"/>
</g>
<g id="Layer_1">
</g>
</svg>
