<?xml version="1.0" encoding="iso-8859-1"?>
<!-- Generator: Adobe Illustrator 19.2.0, SVG Export Plug-In . SVG Version: 6.00 Build 0)  -->
<svg version="1.1" xmlns="http://www.w3.org/2000/svg" xmlns:xlink="http://www.w3.org/1999/xlink" x="0px" y="0px"
	 viewBox="0 0 81.143 71.497" style="enable-background:new 0 0 81.143 71.497;" xml:space="preserve">
<g id="Pow_x5F_Wow_x5F_in_x5F_the_x5F_Pines">
	<path style="fill-rule:evenodd;clip-rule:evenodd;" d="M40.646,0c0.441,0.064,1.057,1.338,1.428,1.922
		c2.967,4.66,6.039,9.449,8.918,14.092c3.383,5.457,6.854,10.785,10.148,16.109c0.84,1.357,1.744,2.68,2.563,4.041
		c0.42,0.699,0.756,1.424,1.182,2.117c4.951,8.068,10.104,16.15,15.174,24.191c0.41,0.648,0.912,1.305,1.084,2.068
		c-7.242,0.092-14.691,0-22.07,0c-5.717,0.002-9.436,1.699-12.613,4.287c-0.805,0.656-1.439,1.303-2.119,2.119
		c-0.156,0.188-0.371,0.615-0.738,0.541c-0.189-4.105-0.098-8.971,0-13.252c1.477-0.498,2.889-0.92,4.188-1.578
		c3.732-1.887,6.658-4.93,8.08-9.162c1.027-3.061,1.086-6.854,0.148-9.904c-0.889-2.891-2.529-5.24-4.484-6.996
		c-3.029-2.916-8.375-5.289-14.436-3.941c-4.906,1.092-8.857,4.094-10.937,8.229c-1.09,2.166-2,4.824-1.871,7.734
		c0.25,5.715,2.955,10.053,6.553,12.613c1.879,1.338,4.107,2.234,6.602,2.955c0.193,4.211,0.115,9.092,0,13.057
		c-0.314,0.148-0.561-0.291-0.74-0.492c-0.615-0.695-1.371-1.496-2.068-2.119c-1.902-1.377-3.861-2.699-6.404-3.449
		c-2.605-0.768-5.514-0.887-8.918-0.887c-6.33,0-13.193,0.016-19.312-0.197c0.234-0.783,0.758-1.434,1.182-2.117
		c7.02-11.32,14.481-22.543,21.58-33.896c0.838-1.34,1.566-2.74,2.414-4.09c1.66-2.644,3.484-5.227,5.172-7.883
		c2.902-4.566,5.926-9.342,8.869-13.992C39.697,1.361,40.072,0.582,40.646,0z"/>
	<path style="fill-rule:evenodd;clip-rule:evenodd;" d="M37.443,54.441c-1.037,0.017-1.879-0.494-2.66-0.887
		c-3.725-1.871-7.053-5.701-6.996-11.233c0.021-2.275,0.553-4.162,1.428-5.863c1.596-3.104,4.307-5.209,7.883-6.307
		c0.623-0.189,0.492,0.641,0.492,1.232C37.592,39.154,37.65,46.904,37.443,54.441z"/>
	<path style="fill-rule:evenodd;clip-rule:evenodd;" d="M43.75,30.201c2.625,0.492,4.754,2.106,6.256,3.695
		c1.602,1.695,2.777,4.062,3.154,6.75c0.859,6.16-2.701,10.834-6.701,12.908c-0.812,0.422-1.748,0.832-2.809,0.936
		c-0.121-5.969-0.189-12.322-0.049-18.129c0.049-2.023-0.117-4.189,0.049-6.012C43.648,30.266,43.688,30.223,43.75,30.201z"/>
</g>
<g id="Layer_1">
</g>
</svg>
