<?xml version="1.0" encoding="iso-8859-1"?>
<!-- Generator: Adobe Illustrator 19.2.0, SVG Export Plug-In . SVG Version: 6.00 Build 0)  -->
<svg version="1.1" xmlns="http://www.w3.org/2000/svg" xmlns:xlink="http://www.w3.org/1999/xlink" x="0px" y="0px"
	 viewBox="0 0 81.905 82.319" style="enable-background:new 0 0 81.905 82.319;" xml:space="preserve">
<g id="PR-Consult_x5F_Norway">
	<path style="fill-rule:evenodd;clip-rule:evenodd;" d="M81.724,0.086c0.275,0.78,0.156,1.636,0.156,2.434
		c0.001,26.615,0.064,53.505-0.052,79.613c-0.046,0.022-0.093,0.045-0.104,0.104c-13.633,0.094-27.406,0.054-41.075,0.052
		c-13.536-0.002-27.29,0.118-40.454-0.103c-0.182-3.244-0.245-6.597-0.104-9.945c0.146-3.444,0-6.959,0-10.463
		c0.001-5.214,0-10.426,0-15.54c0.001-14.011-0.053-28.709-0.052-43.82c0-0.782-0.188-1.681,0.259-2.383
		C27.166-0.026,54.068-0.005,81.724,0.086z M21.794,32.356c4.703,4.702,9.356,9.459,14.038,14.141
		c4.277,4.277,8.54,8.592,12.793,12.846c0.852,0.852,1.574,1.833,2.435,2.693c2.922,2.921,6.039,5.934,9.013,8.909
		c0.42,0.42,1.029,1.14,1.45,1.14c0.358,0,1.291-0.747,1.761-1.088c3.932-2.846,7.115-6.571,9.582-10.618
		c2.88-4.725,5.101-10.567,5.387-17.715c0.305-7.635-1.457-13.956-4.04-18.958c-2.646-5.122-6.278-9.265-10.567-12.535
		c-2.77-2.382-6.139-4.016-9.945-5.438c-4.277-1.599-9.84-2.707-15.695-2.228c-4.494,0.368-8.735,1.442-12.172,3.057
		c-0.525,0.246-1.542,0.516-1.606,0.932c-0.078,0.504,1.018,1.277,1.398,1.657c1.579,1.579,3.178,3.102,4.61,4.61
		c1.518,1.6,3.154,2.873,4.662,4.507c0.391,0.424,0.91,1.281,1.658,1.45c0.855,0.192,1.959,0.052,3.004,0.052
		c6.262,0,12.479,0,18.596,0c0.992,0,2.002-0.122,2.952,0.155c0.123,8.518,0.052,17.733,0.052,26.417
		c0,1.243,0.126,2.495-0.155,3.678c-0.554-0.244-0.889-0.786-1.295-1.192c-2.977-2.976-5.956-5.904-8.909-8.856
		c-0.837-0.838-1.545-1.805-2.383-2.643c-2.552-2.552-5.08-5.078-7.614-7.613c-5.896-5.898-11.799-11.916-17.767-17.663
		c-0.851-0.82-1.588-1.883-2.745-2.331c-1.149,0.335-1.819,1.151-2.693,1.761C11.153,16.574,6.546,23.687,4.442,33.132
		c-1.738,7.801-0.371,16.63,2.124,22.429c0.91,2.115,1.776,4.052,2.9,5.853c4.332,6.939,11.113,12.381,19.58,15.228
		c4.376,1.472,9.788,2.168,15.384,1.71c3.859-0.316,7.437-1.41,10.515-2.538c1.031-0.378,2.085-0.857,2.849-1.554
		c-0.116-0.544-0.611-0.896-0.984-1.244c-0.398-0.37-0.714-0.766-1.087-1.139c-2.269-2.269-4.679-4.339-6.682-6.838
		c-0.497-0.388-0.993-0.889-1.554-1.45c-0.494-0.493-0.97-1.238-1.606-1.398c-0.835-0.21-2.101-0.052-3.16-0.052
		c-3.268,0-6.564,0-9.686,0c-4.503,0-8.858,0.094-12.69-0.104c-0.167-8.528-0.104-18.052-0.104-27.038
		c0-1.24-0.094-2.507,0.155-3.678C21.005,31.393,21.414,31.975,21.794,32.356z"/>
</g>
<g id="Layer_1">
</g>
</svg>
