<?xml version="1.0" encoding="iso-8859-1"?>
<!-- Generator: Adobe Illustrator 19.2.0, SVG Export Plug-In . SVG Version: 6.00 Build 0)  -->
<svg version="1.1" xmlns="http://www.w3.org/2000/svg" xmlns:xlink="http://www.w3.org/1999/xlink" x="0px" y="0px"
	 viewBox="0 0 64.75 73.998" style="enable-background:new 0 0 64.75 73.998;" xml:space="preserve">
<g id="Pramassolwerk">
	<path style="fill-rule:evenodd;clip-rule:evenodd;" d="M6.995,7.67C6.786,8.494,7.334,9.211,7.597,9.926
		c0.799,2.184,1.66,4.369,2.506,6.564c1.704,4.424,3.329,8.875,5.061,13.281c1.174,2.986,2.237,6.004,3.457,8.971
		c0.6,1.457,1.102,2.969,1.905,4.311c1.045,0.172,2.347,0.1,3.607,0.1c1.218,0,2.548,0.152,3.458-0.201
		c0.162-0.596-0.207-1.217-0.451-1.703c-1.279-2.562-2.459-5.346-3.708-7.969c-0.498-1.047-1.131-2.119-1.253-3.307
		c0.881-0.471,1.874-0.291,2.807-0.402c2.265-0.27,4.223-1.08,5.863-2.154c0.328-0.215,0.727-0.564,1.002-0.551
		c0.406,0.021,0.942,0.889,1.253,1.303c2.522,3.352,5.31,6.469,8.569,9.021c0.347,0.463,1.55,0.66,1.504,1.352
		c-0.035,0.533-1.021,0.645-1.955,0.752c-0.846,0.098-1.62-0.014-2.305-0.301c-1.602-0.674-3.036-2.146-4.26-3.508
		c-0.794-0.883-1.815-2.111-2.656-3.207c-0.283-0.369-0.561-0.893-0.952-0.953c-0.701-0.108-1.36,0.441-2.055,0.703
		c-0.563,0.211-1.748,0.412-1.904,0.852c-0.182,0.512,0.806,2.139,1.053,2.656c0.878,1.844,1.482,3.361,2.356,5.211
		c0.391,0.828,0.792,1.703,1.403,2.356c6.316,0.092,13.27,0.201,19.895,0.201c2.371,0,4.387-0.074,6.014,0.701
		c1.519,0.725,2.779,2.105,2.857,4.109c0.077,1.994-0.725,4.02-1.354,5.764c-0.978,2.715-2.108,4.893-3.608,7.016
		c-1.425,2.016-2.99,4.146-4.961,5.613c-1.879,1.686-3.991,3.109-6.364,4.26c-1.2,0.58-2.396,1.182-3.709,1.604
		c-3.908,1.252-8.903,2.041-14.032,1.402c-2.965-0.369-5.913-1.301-8.269-2.355c-1.235-0.553-2.332-1.18-3.458-1.853
		c-0.571-0.342-1.183-0.578-1.704-0.953c-0.5-0.359-0.947-0.812-1.453-1.203c-4.979-3.836-8.865-8.715-10.975-15.584
		c-0.408-1.328-0.909-2.994-0.752-4.51c0.088-0.854,0.466-1.512,0.802-2.057c1.244-2.014,3.7-2.299,6.766-2.154
		c2.158,0.103,4.539,0,6.766,0c0.691,0,1.422,0.133,2.004-0.199c0.086-0.801-0.327-1.5-0.602-2.207
		c-0.268-0.69-0.528-1.395-0.751-2.104c-0.451-1.434-1.124-2.764-1.604-4.16c-1.887-5.49-4.261-10.736-6.265-16.137
		c-1.003-2.699-2.052-5.377-3.108-8.068C3.774,9.551,3.621,8.801,3.337,8.121C2.783,6.801,2.219,5.5,1.734,4.113
		C1.504,3.459,1.125,2.74,1.283,2.008c1.216-0.129,2.365,0.58,3.508,0.953c1.144,0.371,2.231,0.887,3.357,1.303
		c1.649,0.609,3.405,1.166,5.112,1.853c0.568,0.231,1.294,0.379,1.653,0.652c0.391,0.295,0.681,1.08,0.952,1.654
		c0.828,1.748,1.603,3.57,2.356,5.311c0.516,1.193,1.098,2.42,1.603,3.559c0.503,1.133,0.845,2.598,2.155,2.957
		c1.795-0.225,1.097-3.008,0.901-4.912c-0.153-1.496-0.308-2.799-0.45-4.158c-0.309-2.932-0.832-6.135,0.05-8.269
		c0.743-1.797,2.847-3.428,5.763-2.756c1.718,0.395,3.105,1.449,4.461,2.404c1.372,0.969,2.682,2,3.908,2.957
		c2.446,2.115,4.927,4.195,7.317,6.365c4.314,3.602,8.539,7.35,13.831,10.174c0.729,0.389,1.558,1.121,2.255,1.152
		c0.615,0.027,1.058-0.473,1.654-0.553c2.195-0.291,3.852,1.947,2.706,3.91c-0.479,0.82-1.455,1.44-2.906,1.203
		c-0.92-0.15-1.74-0.65-2.556-1.053c-2.365-1.17-4.534-2.602-6.666-4.01c-3.1-2.047-5.605-4.074-8.068-6.164
		c-4.262-3.789-8.718-7.889-13.48-11.426c-0.709-0.525-1.39-1.137-2.105-1.453c-1.153-0.512-2.496-0.391-3.006,0.601
		c-0.554,1.072-0.244,2.783-0.101,4.109c0.164,1.514,0.194,2.924,0.351,4.209c0.149,1.225,0.356,2.693,0.451,4.109
		c0.097,1.441,0.303,2.918-0.101,4.16c-0.743,2.291-3.898,4.174-6.564,2.355c-0.948-0.646-1.682-1.949-2.205-3.107
		c-1.089-2.406-2.19-4.771-3.308-7.217c-0.556-1.217-0.939-2.533-1.805-3.457c-0.824-0.373-1.713-0.703-2.606-1.002
		C8.825,8.129,7.946,7.692,6.995,7.67z M11.606,46.61c-2.118,0-4.176-0.143-6.164-0.049c-0.975,0.045-1.814,0.314-2.055,1.152
		c-0.291,1.018,0.448,2.854,0.752,3.758c1.183,3.523,2.902,6.561,4.961,8.971c4.268,4.998,9.743,8.894,17.791,10.072
		c2.799,0.41,6.162,0.279,8.67-0.25c5.089-1.074,9.319-3.066,12.578-6.014c1.648-1.342,3.318-2.945,4.561-4.711
		c0.408-0.58,0.921-1.213,1.253-1.853c0.363-0.699,0.594-1.441,0.952-2.154c0.711-1.414,1.298-2.783,1.754-4.461
		c0.223-0.818,0.602-1.762,0.501-2.606c-0.211-1.756-1.647-1.568-3.508-1.654c-1.019-0.047-1.941-0.051-2.807-0.051
		c-5.564,0-11.202-0.17-16.788,0.051c0.032,0.684,0.552,0.893,0.952,1.152c1.345,0.875,3.09,1.121,4.61,1.855
		c3.528,1.699,2.132,8.004,0.301,10.523c-1.533,2.109-3.697,3.775-6.063,4.861c-2.673,1.225-6.429,1.562-9.272,0.75
		c-2.689-0.766-5.09-2.369-6.264-4.66c-0.868-1.691,0.255-3.305,0.852-4.711c0.424-0.998,0.916-2.094,0.952-3.357
		c0.039-1.34-0.484-2.412-0.852-3.508c-0.363-1.08-0.72-2.172-1.403-3.006C15.81,46.541,13.695,46.61,11.606,46.61z M22.18,46.76
		c-0.408,0.404,0.011,0.895,0.15,1.254c0.493,1.271,1.113,2.76,1.253,4.26c0.184,1.984-0.341,3.361-0.853,4.711
		c-0.333,0.879-1.107,1.926-0.951,3.006c0.097,0.676,0.873,1.389,1.352,1.703c1.746,1.15,5.165,1.596,7.667,0.953
		c1.673-0.43,3.452-1.414,4.762-2.605c1.257-1.145,2.519-2.853,2.806-4.611c0.46-2.811-1.649-2.883-3.358-3.709
		c-1.283-0.619-2.142-1.383-3.207-2.154c-0.417-0.508-0.796-0.887-1.152-1.402c-0.269-0.389-0.632-1.289-1.103-1.453
		c-0.433-0.15-1.212-0.051-1.755-0.051c-1.792,0-3.93-0.041-5.462,0.051C22.261,46.709,22.22,46.735,22.18,46.76z"/>
	<path style="fill-rule:evenodd;clip-rule:evenodd;" d="M36.412,14.086c0.682,0.283,1.565,1.264,2.255,1.953
		c2.126,2.127,4.264,3.865,6.565,5.815c2.685,2.275,5.35,4.184,8.369,6.113c0.421,0.27,0.747,0.629,1.152,0.902
		c0.456,0.309,0.905,0.482,1.554,0.852c0.356,0.203,1.337,0.566,1.353,1.002c0.014,0.381-0.858,0.9-1.203,1.154
		c-0.463,0.34-1.009,0.848-1.504,0.852c-0.47,0.004-1.655-0.863-2.055-1.104c-0.639-0.383-1.375-0.791-1.954-1.152
		c-1.318-0.824-2.507-1.787-3.608-2.606c-2.562-1.902-4.75-3.611-6.816-5.613c-0.689-0.553-1.42-1.233-2.205-1.955
		c-0.635-0.582-1.681-1.371-1.904-2.205c-0.103-0.385-0.016-0.975-0.05-1.502c-0.057-0.861-0.322-1.863-0.101-2.355
		C36.29,14.164,36.34,14.113,36.412,14.086z"/>
	<path style="fill-rule:evenodd;clip-rule:evenodd;" d="M35.761,21.953c0.667,0.021,1.394,1.207,1.904,1.754
		c1.733,1.859,3.58,3.688,5.463,5.262c2.019,1.691,3.954,3.156,6.264,4.512c0.707,0.414,1.533,0.791,2.105,1.453
		c-0.173,0.578-0.758,0.746-1.304,1.053c-0.47,0.262-1.116,0.748-1.604,0.752c-0.582,0.002-1.625-0.758-2.205-1.104
		c-2.027-1.209-4.147-2.828-5.713-4.209c-1.683-1.279-3.438-3.127-4.962-4.963c-0.437-0.525-1.365-1.203-1.402-1.854
		C34.28,24.113,35.446,22.221,35.761,21.953z"/>
</g>
<g id="Layer_1">
</g>
</svg>
