<?xml version="1.0" encoding="iso-8859-1"?>
<!-- Generator: Adobe Illustrator 19.2.0, SVG Export Plug-In . SVG Version: 6.00 Build 0)  -->
<svg version="1.1" xmlns="http://www.w3.org/2000/svg" xmlns:xlink="http://www.w3.org/1999/xlink" x="0px" y="0px"
	 viewBox="0 0 67.226 69.262" style="enable-background:new 0 0 67.226 69.262;" xml:space="preserve">
<g id="Precision_x5F_Tools_x5F_CA">
	<path style="fill-rule:evenodd;clip-rule:evenodd;" d="M56.062,0.194c-0.371,1.002-1.281,1.468-1.893,2.232
		c-5.203,5.101-10.184,10.426-15.336,15.579c-1.281,1.281-2.658,2.5-3.882,3.834c-1.243,1.354-2.656,2.495-3.883,3.834
		c-1.842,2.012-3.736,3.976-5.726,5.873c-0.651,0.62-1.222,1.374-2.038,1.796c-0.972-0.644-1.699-1.582-2.476-2.427
		c-0.781-0.85-1.644-1.628-2.427-2.475c-1.562-1.693-3.058-3.442-4.659-5.096c-0.277-0.555-1.257-0.82-1.262-1.504
		c-0.003-0.42,0.694-0.937,1.067-1.311c1.192-1.192,2.496-2.357,3.543-3.591c1.508-1.777,3.165-3.293,4.708-4.805
		c3.293-3.227,6.35-6.541,9.464-9.512C31.969,2.13,33.181-0.009,34.271,0C40.982,0.056,49.292-0.006,56.062,0.194z"/>
	<path style="fill-rule:evenodd;clip-rule:evenodd;" d="M0.251,11.794c0.606,0.235,1.486,1.279,2.184,1.99
		c3.43,3.499,6.639,6.931,10.095,10.386c2.031,2.031,3.934,4.24,5.921,6.358c2.605,2.779,5.429,5.436,8.057,8.299
		c1.367,1.49,2.559,2.624,4.028,4.125c0.292,0.299,0.582,0.68,0.97,1.068c0.343,0.342,0.907,0.832,0.923,1.116
		c0.024,0.469-0.923,1.214-1.262,1.553c-1.401,1.401-2.896,2.93-4.223,4.222c-0.903,0.973-1.851,1.902-2.767,2.863
		c-0.429,0.5-0.871,0.871-1.407,1.408c-0.328,0.329-0.965,1.292-1.456,1.31c-0.495,0.019-1.114-0.906-1.456-1.262
		c-0.506-0.525-0.927-0.9-1.31-1.407c-1.508-1.603-3.077-3.187-4.562-4.902c-1.446-1.67-3.204-3.105-4.708-4.756
		c-1.437-1.579-3.076-3.073-4.61-4.853c-1.047-1.215-2.272-2.369-3.494-3.591c-0.382-0.382-0.961-0.923-1.068-1.262
		c-0.202-0.639-0.048-1.811-0.048-2.815c0-4.762-0.001-9.433,0-14.123c0-1.914-0.042-3.898,0.097-5.581
		C0.151,11.856,0.189,11.814,0.251,11.794z"/>
	<path style="fill-rule:evenodd;clip-rule:evenodd;" d="M67.079,57.366c-0.598-0.098-0.725-0.667-1.164-0.922
		c-2.469-2.655-5.217-5.283-7.766-8.056c-1.252-1.362-2.506-2.75-3.834-4.077c-1.322-1.321-2.541-2.739-3.883-4.028
		c-4.035-3.875-7.635-8.071-11.648-12.084c-0.904-0.905-1.895-2-2.863-3.058c-0.332-0.364-0.857-0.754-0.874-1.068
		c-0.022-0.449,0.79-1.129,1.213-1.553c1.428-1.428,2.74-2.77,4.174-4.125c0.471-0.445,0.926-0.925,1.359-1.407
		c0.436-0.484,0.981-0.868,1.408-1.359c0.385-0.444,0.822-0.968,1.311-1.456c0.439-0.44,1.215-1.244,1.648-1.31
		c0.453,0.066,1.014,0.801,1.457,1.31c1.242,1.425,2.672,2.792,3.93,4.077c1.775,1.81,3.48,3.75,5.242,5.436
		c0.463,0.443,0.822,1,1.262,1.456c2.57,2.668,5.156,5.447,7.863,8.153c0.459,0.46,1.1,1.017,1.213,1.456
		c0.188,0.727,0.049,1.83,0.049,2.815C67.177,44.14,67.255,51.004,67.079,57.366z"/>
	<path style="fill-rule:evenodd;clip-rule:evenodd;" d="M43.978,35.914c0.041-0.009,0.047,0.019,0.049,0.048
		c1.162,0.699,1.93,1.833,2.863,2.767c1.891,1.892,3.627,3.605,5.533,5.63c0.398,0.424,0.902,0.852,1.406,1.407
		c0.365,0.402,1.219,1.098,1.215,1.553c-0.006,0.436-0.744,0.937-1.262,1.456c-4.994,4.993-9.717,10.104-14.658,15.045
		c-1.188,1.188-2.652,2.702-4.028,4.077c-0.403,0.403-1.067,1.152-1.456,1.262c-0.71,0.2-1.819,0.048-2.766,0.049
		c-4.689,0.001-9.312-0.049-13.881-0.049c-1.89,0.001-3.723,0.114-5.435-0.146c0.063-0.538,0.586-0.829,0.922-1.165
		c2.337-2.336,4.646-4.875,6.989-7.28c7.363-7.551,15.186-15.428,22.809-23.053C42.808,36.987,43.427,36.165,43.978,35.914z"/>
</g>
<g id="Layer_1">
</g>
</svg>
