<?xml version="1.0" encoding="iso-8859-1"?>
<!-- Generator: Adobe Illustrator 19.2.0, SVG Export Plug-In . SVG Version: 6.00 Build 0)  -->
<svg version="1.1" xmlns="http://www.w3.org/2000/svg" xmlns:xlink="http://www.w3.org/1999/xlink" x="0px" y="0px"
	 viewBox="0 0 57.625 73.516" style="enable-background:new 0 0 57.625 73.516;" xml:space="preserve">
<g id="presspali">
	<path style="fill-rule:evenodd;clip-rule:evenodd;" d="M17.172,1.145c0.444,6.768-0.279,13.625,0.146,20.238
		c0.232,3.587,2.043,6.115,4.341,7.851c1.625,1.229,3.458,2.013,5.9,2.243c2.467,0.232,4.784-0.414,6.632-1.414
		c2.453-1.329,4.432-3.812,5.219-7.022c0.452-1.847,0.806-4.759-1.658-4.828c-2.584,0.476-1.854,4.092-1.854,7.12
		c0.001,0.674,0.094,1.398-0.048,1.902c-0.204,0.72-1.746,1.646-2.391,2c-1.035,0.568-2.073,0.891-3.315,1.073
		c-2.889,0.423-5.392-0.448-7.022-1.463c-3.559-2.215-5.612-6.321-4.439-12.387c1.389-7.178,5.539-12.103,11.51-14.825
		c2.013-0.917,4.287-1.477,7.12-1.609C43.877-0.283,48.13,2.507,51.65,5.534c3.097,3.253,5.691,7.714,5.95,13.801
		c0.266,6.281-1.681,11.569-3.853,15.752c-3.09,5.02-7.254,9.214-12.875,11.802c-2.684,1.235-6.136,2.267-9.802,2.536
		c-5.957,0.438-11.442-1.15-15.362-3.121c-1.298-0.652-2.531-1.577-3.706-2.438c-2.344-1.718-4.432-3.791-6.193-6.145
		C2.283,33.011-0.13,26.915,0.005,18.994c0.382-0.934,1.213-1.554,1.902-2.243c2.018-2.018,4.038-4.151,5.998-6.291
		c2.616-2.858,5.434-5.526,7.998-8.437C16.346,1.75,16.497,1.185,17.172,1.145z"/>
	<path style="fill-rule:evenodd;clip-rule:evenodd;" d="M19.317,49.181c3.54,0.865,7.914,1.86,12.437,1.317
		c1.347-0.162,2.684-0.434,4.048-0.488c0.177,3.986,0.097,8.875,0.097,13.216c0.001,0.64,0.111,1.332,0,1.853
		c-0.202,0.954-1.572,1.437-1.95,2.194c-1.406,1.645-3.077,3.007-4.584,4.731c-0.39,0.445-0.967,1.488-1.561,1.512
		c-0.718,0.028-1.803-1.644-2.244-2.048c-1.914-1.752-3.541-3.451-5.461-5.267c-0.319-0.302-0.839-0.856-0.927-1.171
		c-0.282-1.007-0.05-2.727-0.049-3.999c0-1.315-0.077-2.573-0.049-3.853c0.061-2.72,0.007-5.481,0.098-7.852
		C19.198,49.257,19.247,49.208,19.317,49.181z"/>
</g>
<g id="Layer_1">
</g>
</svg>
