<?xml version="1.0" encoding="iso-8859-1"?>
<!-- Generator: Adobe Illustrator 19.2.0, SVG Export Plug-In . SVG Version: 6.00 Build 0)  -->
<svg version="1.1" xmlns="http://www.w3.org/2000/svg" xmlns:xlink="http://www.w3.org/1999/xlink" x="0px" y="0px"
	 viewBox="0 0 74.185 68.993" style="enable-background:new 0 0 74.185 68.993;" xml:space="preserve">
<g id="Proda_x5F_data">
	<path style="fill-rule:evenodd;clip-rule:evenodd;" d="M0,44.575c0.296-0.037,0.536,0.292,0.789,0.494
		c1.119,0.891,2.451,1.089,4.641,1.036c2.634-0.062,5.413-0.099,8.194-0.099c1.447,0.001,2.85,0,3.851-0.346
		c1.358-0.469,2.467-1.654,2.765-3.109c0.375-1.83-0.285-4.235,0.444-5.875c0.337-0.757,1.137-1.538,1.975-1.875
		c1.528-0.615,3.585-0.396,5.331-0.396c1.717,0.001,3.569-0.109,4.937-0.74c1.278-0.591,2.229-1.612,2.912-2.765
		c0.742-1.25,0.938-2.711,0.938-4.739c0.001-5.998-0.051-11.142-0.05-16.98c0.001-1.896,0.132-3.85-0.296-5.381
		c-0.457-1.636-1.413-2.465-2.666-3.653c0-0.049,0-0.099,0-0.148c1.594,0.452,3.174,1.757,4.492,2.566
		c4.309,2.645,8.524,5.462,12.736,8.096c5.721,3.576,11.571,7.148,17.03,10.712c1.436,0.938,2.799,1.869,3.999,2.962
		c1.229,1.121,1.973,2.637,2.073,4.838c0.2,4.412,0,8.768,0,13.575c-0.001,2.286,0,4.705,0,6.861
		c-0.001,2.493-0.384,3.965-1.629,5.282c-1.133,1.197-2.565,2.055-4.641,2.32c-2.06,0.264-4.436-0.095-6.664,0.247
		c-1.552,0.237-2.562,1.253-2.962,2.468c-0.53,1.608,0.08,4.043-0.493,5.825c-0.399,1.237-1.443,2.337-2.567,2.813
		c-1.223,0.519-3.041,0.359-4.838,0.395c-3.555,0.07-7.025,0.002-10.515,0c-1.951,0-3.323-0.172-4.591-0.79
		c-2.274-1.108-4.361-2.826-6.467-4.195c-8.621-5.609-17.375-11.12-26.015-16.784C1.665,46.504,0.571,45.753,0,44.575z"/>
	<path style="fill-rule:evenodd;clip-rule:evenodd;" d="M21.77,12.687c1.061-0.051,2.528-0.05,3.752-0.05
		c1.301,0,2.588-0.082,3.455,0.197c1.262,0.407,2.443,1.624,2.813,2.863c0.422,1.412,0.133,3.998,0.197,5.875
		c0.035,1.005-0.016,2.003,0.05,2.764c0.25,2.888-1.124,4.852-3.258,5.479c-1.511,0.444-3.675,0.247-5.331,0.247
		c-3.637,0-7.188,0-10.959,0c-1.828,0-3.936,0.221-5.282-0.148c-1.425-0.391-2.948-1.757-3.258-3.652
		c-0.25-1.527-0.05-3.266-0.05-5.035c0-1.635-0.234-3.241,0.148-4.937c0.401-1.778,1.759-2.962,3.11-3.358
		c0.931-0.271,2.303-0.28,3.504-0.246c1.171,0.032,2.409,0,3.603,0C16.852,12.686,19.201,12.809,21.77,12.687z"/>
</g>
<g id="Layer_1">
</g>
</svg>
