<?xml version="1.0" encoding="iso-8859-1"?>
<!-- Generator: Adobe Illustrator 19.2.0, SVG Export Plug-In . SVG Version: 6.00 Build 0)  -->
<svg version="1.1" xmlns="http://www.w3.org/2000/svg" xmlns:xlink="http://www.w3.org/1999/xlink" x="0px" y="0px"
	 viewBox="0 0 67.728 67.574" style="enable-background:new 0 0 67.728 67.574;" xml:space="preserve">
<g id="Professional_x5F_Photographers_x5F_of_x5F_America">
	<path style="fill-rule:evenodd;clip-rule:evenodd;" d="M67.459,51.978c-4.283,0.167-9.267,0.167-13.551,0
		c-0.248-0.645-0.199-1.402-0.203-2.116c-0.037-10.191,0.102-20.779,0.102-31.135c0-1.541,0.217-3.1-0.102-4.585
		c-0.959-0.273-2.096-0.151-3.273-0.151c-14.592,0-29.068-0.152-43.73-0.151c-1.034,0-2.092-0.05-3.324-0.05
		c-1.062,0-2.768,0.139-3.124-0.252c-0.38-0.415-0.202-2.337-0.202-3.325c0-2.254,0.051-4.521,0.051-7.002
		c0-1.486-0.277-3.009,0.605-3.174c0.536-0.101,1.198,0.039,1.863,0.05c8.844,0.149,18.472,0.151,27.508,0.151
		c2.609,0,5.06-0.053,7.305,0.202c6.641,0.754,11.887,3.043,16.223,6.197c5.852,4.257,10.34,9.734,12.695,17.28
		c0.609,1.954,1.098,3.997,1.311,6.197c0.219,2.268,0.066,4.706,0.049,7.305c-0.021,3.568,0,7.246,0,11.033
		C67.662,49.623,67.785,50.849,67.459,51.978z"/>
	<path style="fill-rule:evenodd;clip-rule:evenodd;" d="M33.351,15.2c2.853-0.198,5.861,0.656,7.91,1.511
		c4.605,1.922,7.459,4.809,9.623,9.119c1.113,2.218,1.764,4.523,1.764,7.607c0,1.656-0.021,2.993-0.303,4.333
		c-0.783,3.723-2.568,6.75-4.938,9.119c-3.066,3.067-7.4,5.592-13.148,5.592c-6.158,0-10.217-2.153-13.553-5.239
		c-3.779-3.497-6.941-9.843-5.391-17.18c0.812-3.845,2.604-6.885,4.887-9.169c2.252-2.251,5.164-4.096,8.969-5.088
		C30.496,15.459,31.941,15.298,33.351,15.2z"/>
	<path style="fill-rule:evenodd;clip-rule:evenodd;" d="M13.755,15.754c0.143,9.215,0.05,18.824,0.05,28.565
		c0,1.624,0.032,3.243,0,4.837c-0.029,1.508-0.183,3.035,0.102,4.483c1.023,0.262,2.102,0.16,3.174,0.151
		c14.062-0.108,29.254,0.1,43.83,0.1c1.131,0,2.252,0,3.375,0c1.068,0,2.178-0.114,3.225,0.151c0.123,3.287,0.203,6.77,0.102,10.025
		c-0.035,1.108,0.141,2.25-0.152,3.274c-1.129,0.37-2.344,0.194-3.525,0.151c-1.182-0.043-2.42,0.034-3.627,0.05
		c-7.184,0.097-15.021-0.102-22.369-0.101c-2.539,0.001-4.988,0.089-7.305-0.151c-6.69-0.694-12.127-2.95-16.525-6.046
		c-1.461-1.027-2.75-2.247-4.03-3.526C5.111,52.754,1.19,46.252,0.152,37.519c-0.267-2.243-0.102-4.716-0.102-7.305
		c0-4.264-0.089-8.94,0.051-12.998c0.02-0.549-0.157-1.189,0.201-1.663c2.966-0.158,7-0.065,10.278,0
		C11.687,15.575,12.771,15.518,13.755,15.754z"/>
</g>
<g id="Layer_1">
</g>
</svg>
