<?xml version="1.0" encoding="iso-8859-1"?>
<!-- Generator: Adobe Illustrator 19.2.0, SVG Export Plug-In . SVG Version: 6.00 Build 0)  -->
<svg version="1.1" xmlns="http://www.w3.org/2000/svg" xmlns:xlink="http://www.w3.org/1999/xlink" x="0px" y="0px"
	 viewBox="0 0 74.514 59.934" style="enable-background:new 0 0 74.514 59.934;" xml:space="preserve">
<g id="Promecam_x5F_Sisson_x5F_Lehmann">
	<path style="fill-rule:evenodd;clip-rule:evenodd;" d="M50.396,0.036c-1.091,0.486-2.33,0.481-3.531,0.688
		c-1.16,0.2-2.329,0.491-3.484,0.688c-2.366,0.404-4.58,1.019-6.741,1.605c-3.199,0.867-6.313,1.995-8.713,3.852
		c-1.59,1.23-3.076,2.625-2.797,5.595c0.184,1.956,1.699,3.496,3.072,4.448c1.553,1.076,3.283,1.862,4.952,2.568
		c3.18,1.344,6.335,2.293,9.63,3.531c0.411,0.154,0.927,0.267,1.192,0.642c-1.909,0.092-3.79-0.262-5.641-0.458
		c-7.428-0.789-14.272-1.98-20.589-3.99c-0.781-0.249-1.54-0.468-2.293-0.779c-2.163-0.895-4.402-1.675-6.374-2.843
		c-1.241-0.735-2.575-1.827-3.026-3.118c-0.268-0.763-0.327-2.164-0.047-2.889c0.486-1.251,2.09-2.296,3.395-2.98
		c4.227-2.215,9.278-3.419,14.582-4.402c3.582-0.664,7.264-1.241,11.051-1.605C39.859,0.123,45.212-0.09,50.396,0.036z"/>
	<path style="fill-rule:evenodd;clip-rule:evenodd;" d="M36.18,16.039c11.27,0.66,21.558,2.184,30.494,5.319
		c1.418,0.497,2.785,1.12,4.128,1.834c1.348,0.717,2.618,1.512,3.256,2.659c0.368,0.663,0.592,1.852,0.366,2.752
		c-0.393,1.573-1.934,2.856-3.393,3.623c-4.582,2.406-10.343,3.792-15.958,4.998c-1.935,0.416-3.93,0.75-5.962,1.055
		c-4.014,0.602-8.233,1.083-12.656,1.284c-1.073,0.049-2.183,0.14-3.256,0.229c-1.075,0.09-2.171,0.135-3.21,0
		c0.391-0.396,1.144-0.394,1.834-0.504c1.937-0.308,3.893-0.708,5.778-1.101c4.981-1.036,9.614-2.487,13.481-4.861
		c1.87-1.147,3.681-2.778,3.897-5.273c0.216-2.467-1.377-4.179-2.705-5.182c-2.1-1.587-5.081-2.669-7.796-3.668
		c-2.027-0.746-4.193-1.389-6.42-2.201c-0.552-0.202-1.757-0.543-2.018-0.871C36.076,16.088,36.126,16.062,36.18,16.039z"/>
	<path style="fill-rule:evenodd;clip-rule:evenodd;" d="M35.584,26.815c-0.141,0.662-0.57,1.232-0.917,1.788
		c-3.165,5.077-6.492,10.24-9.722,15.362c-1.426,2.261-2.876,4.531-4.311,6.833c-0.704,1.13-1.316,2.341-2.247,3.301
		c-4.799,0.03-9.96,0.025-14.72-0.137c0.166-0.675,0.598-1.256,0.963-1.834c3.174-5.028,6.447-10.141,9.63-15.224
		c0.707-1.129,1.344-2.314,2.063-3.439c1.434-2.243,2.816-4.525,4.356-6.695c1.96-0.202,4.918-0.063,7.061-0.046
		C30.507,26.746,33.151,26.529,35.584,26.815z"/>
	<path style="fill-rule:evenodd;clip-rule:evenodd;" d="M56.724,57.218c-0.349,1.072-0.961,1.882-1.605,2.66
		c-6.958,0.086-13.969,0.047-20.865,0.045c-9.022-0.001-18.314-0.092-27.605-0.092c-2.239,0-4.477,0.02-6.648-0.137
		c0.336-1.034,0.965-1.859,1.604-2.66C19.502,57.143,38.424,57.05,56.724,57.218z"/>
</g>
<g id="Layer_1">
</g>
</svg>
