<?xml version="1.0" encoding="iso-8859-1"?>
<!-- Generator: Adobe Illustrator 19.2.0, SVG Export Plug-In . SVG Version: 6.00 Build 0)  -->
<svg version="1.1" xmlns="http://www.w3.org/2000/svg" xmlns:xlink="http://www.w3.org/1999/xlink" x="0px" y="0px"
	 viewBox="0 0 76.664 75.219" style="enable-background:new 0 0 76.664 75.219;" xml:space="preserve">
<g id="Psychographic_x5F_Marketing_x5F_Panels">
	<path style="fill-rule:evenodd;clip-rule:evenodd;" d="M45.359,0.383c-0.089,0.628-0.646,1.081-1.066,1.502
		c-0.883,0.884-1.664,1.696-2.665,2.617c-0.519,0.477-0.911,0.989-1.454,1.163C39.191,5.98,37.43,5.762,36.15,5.762
		c-3.405,0-6.975,0.001-10.226,0c-0.576,0-1.294,0.125-1.696-0.339c0.105-0.653,0.716-1.007,1.163-1.454
		c0.841-0.841,1.687-1.687,2.617-2.617c0.537-0.537,0.952-1.149,1.599-1.26c1.217-0.208,2.74,0,4.071,0
		c3.341,0,6.749,0.1,9.936,0.048C44.197,0.132,44.861,0.09,45.359,0.383z"/>
	<path style="fill-rule:evenodd;clip-rule:evenodd;" d="M46.571,0.965c0.705-0.176,1.74,1.028,2.375,1.6
		c2.111,1.899,3.914,3.784,6.01,5.719c1.393,1.286,2.52,2.476,3.974,3.877c0.612,0.589,1.27,1.222,1.987,1.938
		c0.527,0.528,1.77,1.454,1.793,2.084c0.02,0.518-0.784,1.221-1.115,1.552c-0.927,0.927-1.714,1.714-2.617,2.617
		c-0.4,0.399-0.793,0.971-1.503,1.114c-0.964-0.286-1.593-1.061-2.229-1.696c-0.654-0.654-1.357-1.26-1.987-1.939
		C49.694,14.56,46.32,11.098,42.79,7.75c-0.487-0.462-1.083-0.935-1.309-1.6c0.363-1.07,1.491-1.782,2.375-2.665
		C44.693,2.648,45.684,1.472,46.571,0.965z"/>
	<path style="fill-rule:evenodd;clip-rule:evenodd;" d="M56.263,22.144c-0.442,0.445-1.193,0.365-1.793,0.388
		c-3.561,0.133-7.028,0.096-10.614,0.097c-1.316,0-3.075,0.191-4.216-0.097c-0.756-0.191-1.601-1.18-2.229-1.745
		c-2.099-1.886-4.055-4.029-6.01-5.913c-2.381-2.293-4.667-4.567-7.027-6.882c-0.279-0.272-0.857-0.58-0.727-1.114
		c0.33-0.401,0.953-0.238,1.405-0.243c3.409-0.035,7.576,0.068,11.099-0.096c0.791-0.037,3.158-0.214,4.023,0.048
		c0.759,0.229,1.546,1.153,2.229,1.745c2.124,1.835,4.069,3.994,6.059,5.815c2.514,2.302,4.66,4.466,7.027,6.834
		C55.805,21.299,56.318,21.601,56.263,22.144z"/>
	<path style="fill-rule:evenodd;clip-rule:evenodd;" d="M26.457,11.093c2.672,2.595,5.345,5.188,8.045,7.755
		c0.675,0.65,1.237,1.412,1.939,2.035c0.64,0.669,1.505,1.112,1.842,2.085c-0.129,0.617-0.627,1.014-1.018,1.405
		c-0.81,0.809-1.486,1.563-2.375,2.472c-0.344,0.351-0.923,0.996-1.405,1.018c-0.736,0.033-1.789-1.326-2.23-1.745
		c-2.028-1.926-4.167-3.884-6.106-5.767c-1.334-1.316-2.697-2.602-4.023-3.926c-0.738-0.589-1.344-1.304-2.035-1.938
		c-0.666-0.611-1.436-1.231-1.794-2.133c0.064-0.572,0.608-0.962,1.018-1.357c0.791-0.762,1.573-1.573,2.375-2.374
		c0.306-0.307,1.042-1.192,1.454-1.164c0.78,0.054,1.757,1.22,2.278,1.697C25.221,9.887,25.807,10.521,26.457,11.093z"/>
	<path style="fill-rule:evenodd;clip-rule:evenodd;" d="M17.976,22.435c-3.453,3.205-6.789,6.826-10.372,10.08
		c-0.477,0.434-0.999,1.29-1.6,1.309c-0.562,0.018-1.18-0.709-1.551-1.066c-1.017-0.979-1.562-1.562-2.569-2.568
		c-0.354-0.354-1.148-0.853-1.163-1.405c-0.019-0.724,1.261-1.649,1.745-2.133c1.948-1.948,3.898-3.78,5.816-5.67
		c1.726-1.744,3.834-3.882,5.719-5.768c0.453-0.452,1.678-1.891,2.23-1.891c0.599,0.001,1.174,0.616,1.6,1.018
		c0.961,0.909,1.668,1.649,2.665,2.569c0.38,0.351,1.144,0.933,1.163,1.405c0.02,0.498-0.545,0.885-0.824,1.163
		C19.809,20.505,18.999,21.347,17.976,22.435z"/>
	<path style="fill-rule:evenodd;clip-rule:evenodd;" d="M66.974,24.179c-4.057,3.983-7.938,8.165-12.165,12.02
		c-0.594,0.541-1.144,1.235-1.939,1.503c-0.639-0.056-1.054-0.607-1.502-1.019c-0.848-0.777-1.664-1.519-2.569-2.423
		c-0.379-0.38-1.064-0.969-1.066-1.405c-0.002-0.847,1.477-1.488,1.793-2.133c1.929-1.98,3.89-3.929,5.864-5.864
		c1.824-1.714,4.026-3.88,5.961-5.815c0.444-0.444,1.677-1.943,2.278-1.891c0.605,0.053,1.04,0.652,1.454,1.066
		c0.901,0.901,1.541,1.475,2.568,2.423c0.39,0.359,1.089,0.93,1.115,1.358c0.029,0.479-0.508,0.938-0.775,1.212
		C67.642,23.567,67.355,23.813,66.974,24.179z"/>
	<path style="fill-rule:evenodd;clip-rule:evenodd;" d="M22.677,35.957c-1.024,1.642-2.57,2.761-3.877,4.12
		c-3.408,3.516-6.958,6.909-10.517,10.468c-0.377,0.377-1.133,1.402-1.599,1.26c-0.543-0.165-0.394-2.992-0.436-3.877
		c-0.148-3.11,0-5.493,0-8.627c0-1.402-0.225-3.029,0.097-4.119c0.224-0.759,1.17-1.51,1.793-2.133
		c4.554-4.555,9.211-9.109,13.812-13.521c0.738-0.528,0.716,0.98,0.727,1.551C22.772,25.88,22.78,31.633,22.677,35.957z"/>
	<path style="fill-rule:evenodd;clip-rule:evenodd;" d="M26.651,22.774c0.604,0.831,2.09,1.397,2.423,2.617
		c0.281,1.026,0.049,2.592,0.049,3.877c0,3.307,0,6.539,0,9.839c0,0.562,0.155,1.256-0.242,1.696
		c-0.75-0.091-1.015-0.666-1.502-1.018c-1.251-1.237-2.681-2.296-3.732-3.732c-0.243-4.341-0.194-9.088-0.194-13.813
		c0-0.586-0.127-1.282,0.242-1.744c0.036,0.018,0.14-0.121,0.242-0.098C24.895,20.617,25.978,22.253,26.651,22.774z"/>
	<path style="fill-rule:evenodd;clip-rule:evenodd;" d="M54.325,24.955c-0.703,0.633-1.231,1.232-1.938,1.94
		c-0.513,0.512-1.261,1.603-1.987,1.841c-0.953,0.312-2.675,0.049-3.877,0.049c-3.387,0-6.707,0.051-10.081,0
		c-0.584-0.009-1.247,0.061-1.745-0.242c0.053-0.61,0.572-1.072,0.969-1.503c0.819-0.888,1.581-1.581,2.52-2.519
		c0.368-0.368,0.899-0.964,1.406-1.115c0.713-0.213,1.722-0.097,2.471-0.097c0.843,0,1.694-0.028,2.52-0.049
		c2.906-0.069,5.249-0.098,8.239-0.097c0.784,0,2.327-0.161,2.52,0.291C55.61,24.079,54.553,24.509,54.325,24.955z"/>
	<path style="fill-rule:evenodd;clip-rule:evenodd;" d="M53.986,55.488c-0.493-0.451-0.339-1.212-0.339-1.842
		c0-3.458-0.145-7.233-0.145-10.759c0-1.286-0.189-3.109,0.145-4.217c0.218-0.721,1.164-1.538,1.745-2.133
		c4.388-4.484,9.224-8.937,13.619-13.23c0.807-0.443,0.682,1.037,0.728,1.647c0.259,3.506,0.145,7.104,0.145,10.614
		c0,0.597,0,1.394,0,2.133c0,0.781,0.043,1.702-0.097,2.132c-0.243,0.745-1.255,1.497-1.842,2.133
		c-0.695,0.753-1.334,1.382-1.938,1.986c-3.372,3.372-6.378,6.597-9.839,9.79c-0.326,0.302-0.698,0.622-1.017,0.97
		C54.849,55.039,54.501,55.483,53.986,55.488z"/>
	<path style="fill-rule:evenodd;clip-rule:evenodd;" d="M73.324,42.693c-0.396-0.463-0.879-0.83-1.406-1.309
		c-0.409-0.371-1.094-0.947-1.26-1.454c-0.318-0.973-0.097-2.651-0.097-3.974c0-3.292-0.048-6.371-0.048-9.936
		c0-0.529-0.06-1.615,0.242-1.793c0.514-0.261,1.295,0.641,1.745,1.066c0.964,0.911,1.765,1.716,2.714,2.665
		c0.427,0.428,1.067,0.862,1.26,1.405c0.322,0.906,0.097,2.748,0.097,3.975c0,2.827,0.048,4.908,0.048,7.948
		c0,0.877,0.214,3.52-0.291,3.731c-0.484,0.204-1.256-0.791-1.551-1.066C74.215,43.428,73.795,43.097,73.324,42.693z"/>
	<path style="fill-rule:evenodd;clip-rule:evenodd;" d="M0.286,30.044c0.483,0.078,1.011,0.741,1.405,1.115
		c0.464,0.439,0.914,0.817,1.26,1.211c0.643,0.766,2.102,1.513,2.423,2.617c0.149,0.514,0.097,1.324,0.097,2.036
		c0,4.119,0,7.953,0,12.213c0,0.604,0.17,1.351-0.291,1.793c-0.63,0.019-1.054-0.577-1.454-0.969
		c-0.411-0.402-0.85-0.831-1.26-1.212c-0.713-0.663-2.021-1.69-2.326-2.665c-0.285-0.912-0.048-2.732-0.048-3.926
		c0-3.315-0.048-6.424-0.048-10.081c0-0.706-0.063-1.509,0.097-1.987C0.168,30.12,0.216,30.071,0.286,30.044z"/>
	<path style="fill-rule:evenodd;clip-rule:evenodd;" d="M47.152,34.164c0.537-0.046,1.19,0.753,1.599,1.163
		c0.972,0.972,1.787,1.672,2.811,2.617c0.485,0.447,1.077,0.978,1.212,1.454c0.152,0.535,0.019,1.264,0.049,1.986
		c0.12,3-0.039,6.566,0.097,9.645c0.029,0.667,0.023,1.368,0,2.036c-0.019,0.548,0.078,1.243-0.339,1.647
		c-0.683-0.148-1.159-0.723-1.599-1.163c-0.951-0.951-1.718-1.691-2.763-2.714c-0.461-0.451-1.117-0.968-1.26-1.454
		c-0.248-0.847-0.048-2.399-0.048-3.587c0-2.319,0-4.929,0-7.27c0-1.457-0.148-3.139,0.097-4.216
		C47.033,34.239,47.082,34.19,47.152,34.164z"/>
	<path style="fill-rule:evenodd;clip-rule:evenodd;" d="M16.522,54.228c-0.72,0.601-1.304,1.35-1.987,1.987
		c-0.676,0.631-1.295,1.39-2.181,1.793c-0.635-0.096-1.033-0.68-1.454-1.066c-0.883-0.811-1.746-1.553-2.617-2.423
		c-0.397-0.396-0.922-0.808-1.066-1.406c0.276-1.048,1.182-1.467,1.745-2.229c3.779-3.846,8.094-8.126,12.116-12.067
		c0.437-0.429,1.523-1.741,2.036-1.696c0.658,0.058,1.043,0.664,1.454,1.066c0.835,0.817,1.633,1.562,2.617,2.423
		c0.399,0.35,1.055,0.929,1.066,1.406c0.014,0.586-0.864,1.252-1.309,1.695C23.494,47.159,19.914,50.787,16.522,54.228z"/>
	<path style="fill-rule:evenodd;clip-rule:evenodd;" d="M69.93,41.093c0.654-0.262,1.262,0.584,1.696,1.019
		c0.91,0.91,1.784,1.719,2.714,2.617c0.354,0.341,1.115,1.002,1.115,1.502c0,0.424-0.534,0.912-0.776,1.163
		c-1.005,1.047-1.903,1.804-2.908,2.908c-3.46,3.304-6.68,6.869-10.226,10.129c-0.488,0.449-0.92,1.059-1.599,1.261
		c-0.697-0.112-1.115-0.661-1.551-1.066c-0.891-0.828-1.713-1.567-2.666-2.521c-0.361-0.36-1.114-0.934-1.115-1.454
		c-0.001-0.646,1.309-1.655,1.745-2.132c1.831-2,3.882-3.903,5.719-5.768c2.664-2.704,5.171-5.276,7.706-7.658
		C69.834,41.093,69.882,41.093,69.93,41.093z"/>
	<path style="fill-rule:evenodd;clip-rule:evenodd;" d="M41.385,46.328c0.161,0.376-0.225,0.601-0.436,0.824
		c-0.631,0.67-1.193,1.484-1.89,2.133c-0.636,0.592-1.937,2.213-2.86,2.472c-1.191,0.334-2.99,0.113-4.313,0.097
		c-2.695-0.033-5.914-0.038-8.675,0.049c-0.939,0.029-1.956,0.291-2.714-0.242c0.058-0.719,0.709-1.146,1.163-1.6
		c0.912-0.912,1.729-1.794,2.763-2.763c0.565-0.529,1.056-1.178,1.745-1.26c1.174-0.141,2.57,0,3.878,0
		c3.194-0.001,6.465-0.017,9.693,0C40.292,46.04,40.943,45.954,41.385,46.328z"/>
	<path style="fill-rule:evenodd;clip-rule:evenodd;" d="M42.499,46.959c0.759-0.157,1.81,1.086,2.423,1.647
		c2.096,1.919,4.153,3.959,6.106,5.913c2.056,2.055,4.083,3.89,6.106,5.912c0.659,0.659,1.559,1.172,1.891,2.084
		c-0.098,0.674-0.729,0.983-1.115,1.406c-0.805,0.879-1.537,1.634-2.471,2.568c-0.33,0.329-0.937,1.091-1.406,1.115
		c-0.702,0.035-1.842-1.332-2.278-1.745c-2.054-1.949-4.271-3.835-6.204-5.768c-1.355-1.354-2.679-2.733-4.022-3.975
		c-0.688-0.635-1.258-1.4-1.938-2.035c-0.691-0.645-1.499-1.234-1.842-2.133c0.365-0.995,1.375-1.714,2.229-2.568
		C40.799,48.562,41.544,47.432,42.499,46.959z"/>
	<path style="fill-rule:evenodd;clip-rule:evenodd;" d="M52.725,68.283c-0.464,0.521-1.245,0.327-1.89,0.34
		c-4.09,0.08-8.644,0.097-12.795,0.097c-0.736,0-1.583,0.107-2.132-0.049c-0.578-0.164-1.706-1.361-2.181-1.793
		c-0.748-0.679-1.369-1.417-1.987-1.987c-1.446-1.334-2.758-2.657-4.071-3.877c-2.414-2.242-4.746-4.503-7.076-6.834
		c-0.311-0.31-0.837-0.591-0.776-1.114c0.249-0.454,0.906-0.367,1.357-0.388c3.778-0.172,7.666,0.082,11.535-0.097
		c0.432-0.021,1.328-0.056,2.132,0c0.655,0.044,1.438-0.026,1.939,0.097c0.771,0.188,1.535,1.18,2.181,1.793
		c2.025,1.922,4.01,3.952,5.961,5.864c2.436,2.388,4.662,4.419,7.027,6.785C52.27,67.44,52.719,67.77,52.725,68.283z"/>
	<path style="fill-rule:evenodd;clip-rule:evenodd;" d="M29.365,74.293c-0.948-0.299-1.546-1.11-2.229-1.745
		c-2.014-1.871-3.972-3.901-6.01-5.815c-2.228-2.287-4.821-4.28-7.076-6.736c-0.31-0.339-0.817-0.729-0.824-1.115
		c-0.009-0.559,0.743-1.084,1.115-1.454c1.297-1.288,2.485-2.575,3.78-3.78c0.858-0.247,1.879,1.02,2.521,1.649
		c2.052,2.011,4.023,3.731,6.058,5.767c1.984,1.983,3.967,3.791,6.058,5.768c0.485,0.457,1.825,1.366,1.842,2.083
		c0.013,0.574-0.767,1.203-1.115,1.551c-0.521,0.521-1.008,0.975-1.357,1.309C31.218,72.624,30.515,73.681,29.365,74.293z"/>
	<path style="fill-rule:evenodd;clip-rule:evenodd;" d="M30.528,74.875c0.043-0.619,0.6-1.059,1.018-1.454
		c0.437-0.415,0.881-0.832,1.26-1.261c0.838-0.572,1.55-2.075,2.617-2.471c0.602-0.224,1.643-0.146,2.472-0.146
		c0.856,0.001,1.694-0.096,2.521-0.097c3.115,0,6.684,0.141,9.693,0c0.566-0.026,1.576-0.2,1.745,0.243
		c0.153,0.4-0.712,1.176-1.066,1.551c-0.928,0.981-1.742,1.741-2.666,2.665c-0.4,0.4-0.975,1.065-1.454,1.212
		c-0.442,0.135-1.082,0.099-1.551,0.097c-4.364-0.015-8.709-0.099-12.94-0.097C31.63,75.117,30.965,75.285,30.528,74.875z"/>
</g>
<g id="Layer_1">
</g>
</svg>
