<?xml version="1.0" encoding="iso-8859-1"?>
<!-- Generator: Adobe Illustrator 21.0.2, SVG Export Plug-In . SVG Version: 6.00 Build 0)  -->
<svg version="1.1" xmlns="http://www.w3.org/2000/svg" xmlns:xlink="http://www.w3.org/1999/xlink" x="0px" y="0px"
	 viewBox="0 0 14.985 14.701" style="enable-background:new 0 0 14.985 14.701;" xml:space="preserve">
<g id="PTT_x5F_Swiss_x5F_Post">
	<path d="M0.037,0.003C0.52-0.008,1.002,0.018,1.485,0.022c0.397,0.006,0.814-0.021,1.176,0.172c0.442,0.22,0.768,0.643,0.861,1.129
		c0.07,0.44-0.055,0.902-0.34,1.244c-0.296,0.346-0.741,0.572-1.2,0.573C1.886,3.141,1.789,3.141,1.692,3.142
		c-0.16-0.005-0.321,0-0.48,0.019c0.001,0.418-0.004,0.835-0.003,1.253c-0.397,0.003-0.794-0.001-1.191,0
		c0.003-0.408-0.01-0.817,0.018-1.224C0.038,2.127,0.034,1.065,0.037,0.003z M1.253,1.039C1.24,1.053,1.213,1.082,1.2,1.097
		c0,0.374-0.023,0.751,0.018,1.123C1.474,2.218,1.73,2.228,1.986,2.212C2.113,2.15,2.249,2.083,2.323,1.957
		c0.179-0.251,0.098-0.63-0.156-0.799C1.902,0.965,1.558,1.055,1.253,1.039z"/>
	<path d="M3.539,0.025C4.766,0.02,5.993,0.028,7.22,0.027c0.005,0.344,0.003,0.687,0.004,1.031C6.811,1.055,6.398,1.052,5.984,1.056
		c0.007,0.766-0.013,1.533,0.014,2.298C5.995,3.697,6.004,4.04,5.995,4.383C5.984,4.394,5.96,4.417,5.949,4.428
		c-0.38,0.007-0.76,0.006-1.14,0C4.797,4.417,4.774,4.393,4.762,4.381C4.781,3.273,4.769,2.163,4.77,1.054
		c-0.41-0.009-0.819,0-1.228-0.004C3.538,0.708,3.542,0.366,3.539,0.025z"/>
	<path d="M7.723,0.05c0.022-0.006,0.067-0.019,0.089-0.025C8.574,0.01,9.336,0.042,10.098,0.03c0.438,0.003,0.876-0.018,1.313,0.003
		c-0.002,0.334-0.003,0.668,0.002,1.002c-0.411,0.017-0.824-0.016-1.233,0.02c0.002,1.126,0,2.251,0.001,3.377
		c-0.4-0.001-0.799,0.002-1.199-0.002C8.977,3.311,8.981,2.192,8.98,1.073C8.571,1.039,8.159,1.064,7.748,1.061
		C7.735,0.724,7.771,0.384,7.723,0.05z"/>
	<path d="M0.007,8.986c0.006-1.397-0.01-2.793,0.008-4.189c1.359,0,2.717,0,4.076,0c0.627,0.015,1.254,0.006,1.881,0.007
		c0.053,0.36,0.02,0.731,0.022,1.095C5.981,5.914,5.955,5.945,5.942,5.961C4.364,5.976,2.787,5.949,1.209,5.95
		c-0.01,0.598-0.004,1.196-0.003,1.794c-0.012,0.3-0.015,0.6-0.007,0.9c0.012,0.012,0.037,0.037,0.049,0.049
		C2.829,8.704,4.41,8.689,5.991,8.7C6.03,9.236,6.004,9.773,6.013,10.31c0.012,1.092-0.002,2.186,0.02,3.278
		c0.402,0.011,0.806,0.014,1.208-0.005c0.567,0,1.135,0,1.702,0c0.024-0.317,0.003-0.635,0.013-0.952
		c-0.002-0.344,0.037-0.688,0.006-1.031C8.96,10.657,8.97,9.714,8.967,8.772C8.978,8.75,8.999,8.705,9.01,8.683
		c0.21,0.041,0.422,0.007,0.633,0.005c0.718,0.003,1.435-0.004,2.153-0.005c0.644,0.025,1.29,0.013,1.935,0.011
		c0.012-0.012,0.037-0.037,0.05-0.05c0.011-0.898-0.002-1.796-0.009-2.694c-1.593,0.003-3.186,0.005-4.779-0.001
		C8.968,5.693,8.984,5.435,8.98,5.178c0.006-0.125-0.01-0.253,0.026-0.375c1.986-0.009,3.972-0.007,5.958-0.007
		c0.014,0.845,0.026,1.689,0.02,2.534c-0.007,0.842,0.021,1.686-0.033,2.527c-1.585,0.003-3.17-0.009-4.754,0.011
		c-0.002,0.245,0.006,0.49-0.015,0.734c-0.004,1.347,0.004,2.695-0.005,4.042c-0.013,0.014-0.04,0.04-0.052,0.053
		c-1.058,0.007-2.116,0.001-3.175,0.003c-0.713,0.006-1.425-0.023-2.139-0.013c-0.006-0.506,0.008-1.012-0.021-1.517
		c-0.007-0.982-0.01-1.965-0.006-2.947C4.773,10.106,4.851,9.948,4.752,9.86c-1.574-0.01-3.149-0.002-4.724-0.004
		C0.015,9.567-0.013,9.276,0.007,8.986z"/>
</g>
<g id="Layer_1">
</g>
</svg>
