<?xml version="1.0" encoding="iso-8859-1"?>
<!-- Generator: Adobe Illustrator 19.2.0, SVG Export Plug-In . SVG Version: 6.00 Build 0)  -->
<svg version="1.1" xmlns="http://www.w3.org/2000/svg" xmlns:xlink="http://www.w3.org/1999/xlink" x="0px" y="0px"
	 viewBox="0 0 67.736 70.364" style="enable-background:new 0 0 67.736 70.364;" xml:space="preserve">
<g id="Pussy-Agencia_x5F_de_x5F_Modelos">
	<path style="fill-rule:evenodd;clip-rule:evenodd;" d="M31.964,59.121c-0.534,1.507-0.785,3.309-0.994,5.169
		c-0.208,1.848-0.265,3.815-0.646,5.517c-1.551,0.278-3.543,0.623-5.12,0.547c-0.153-0.71,0.145-1.403,0.298-2.087
		c1.078-4.819,1.894-9.872,2.684-15.06c0.884-5.813,2.005-11.691,2.733-17.545c0.737-5.921,1.455-11.918,2.436-17.843
		c0.247-1.49,0.323-3.015,0.547-4.523c0.545-3.671,0.968-7.482,1.441-11.233c0.086-0.683,0.13-1.433,0.497-2.038
		c5.11-0.156,10.414,0.489,14.762,1.243c2.236,0.388,4.483,0.897,6.461,1.491c2.002,0.601,3.863,1.413,5.269,2.634
		c2.062,1.796,3.324,4.735,3.877,8.002c0.559,3.304,1.12,6.964,1.292,10.587c0.18,3.765,0.465,7.735-0.099,11.183
		c-0.561,3.422-1.587,6.422-2.635,9.245c-0.55,1.482-1.11,2.866-1.739,4.225c-0.663,1.431-1.167,2.787-2.088,3.827
		c-0.834,0.942-2.461,1.577-3.827,2.137c-5.507,2.259-12.096,3.609-19.782,3.976C35.523,58.66,33.689,58.646,31.964,59.121z
		 M49.46,14.089c-2.615,1.305-4.601,3.335-5.517,6.263c-1.061,3.39-0.342,6.943,1.292,9.394c0.512,0.767,1.604,1.933,2.386,2.386
		c0.681,0.394,1.34,0.571,2.038,0.696c3.253,0.58,6.175-0.205,8.449-1.591c2.077-1.266,3.696-3.677,4.424-5.915
		c0.396-1.218,0.698-2.673,0.596-4.026c-0.141-1.89-1.264-3.736-2.336-4.97c-1.749-2.013-3.565-3.665-7.207-3.33
		C52.052,13.137,50.57,13.536,49.46,14.089z"/>
	<path style="fill-rule:evenodd;clip-rule:evenodd;" d="M33.505,0.123c0.25,0.586,0.078,1.235,0.05,1.839
		c-0.088,1.928-0.38,3.789-0.596,5.666c-0.284,2.466-0.669,4.942-0.945,7.406c-0.554,4.958-1.119,9.936-1.839,14.812
		c-0.364,2.465-0.62,4.931-0.994,7.356c-0.364,2.362-0.861,4.68-1.292,7.008c-0.441,2.383-0.787,4.771-1.243,7.108
		c-0.229,1.174-0.457,2.356-0.646,3.529c-0.186,1.144-0.205,2.356-0.696,3.429c-4.317-0.204-8.247-1.436-11.83-2.634
		c-3.555-1.189-6.833-2.929-9.146-5.417c-1.622-2.079-2.299-4.951-3.032-7.903c-0.73-2.94-1.256-6.158-1.292-9.593
		c-0.074-7.099,0.68-13.802,2.634-19.086c0.497-1.343,1.132-2.523,2.038-3.429c0.882-0.882,1.956-1.565,3.131-2.336
		c2.227-1.46,4.775-2.657,7.257-3.628c2.598-1.017,5.229-2.039,8.102-2.783C26.23,0.671,29.819,0.194,33.505,0.123z"/>
</g>
<g id="Layer_1">
</g>
</svg>
