<?xml version="1.0" encoding="iso-8859-1"?>
<!-- Generator: Adobe Illustrator 19.2.0, SVG Export Plug-In . SVG Version: 6.00 Build 0)  -->
<svg version="1.1" xmlns="http://www.w3.org/2000/svg" xmlns:xlink="http://www.w3.org/1999/xlink" x="0px" y="0px"
	 viewBox="0 0 102.996 95.291" style="enable-background:new 0 0 102.996 95.291;" xml:space="preserve">
<g id="Qantas_x5F_Airlines_x5F_Limited">
	<path style="fill-rule:evenodd;clip-rule:evenodd;" d="M102.996,95.288c-34.383,0.012-69.225-0.019-102.878,0
		c0.032-20.837,0.186-41.203,0.12-63.19C5.419,47.711,29.171,47.153,29.254,67.47c0.009,2.289-0.479,4.09-0.72,6.354
		c16.262,1.805,26.746,9.385,35.731,18.466c-0.16-3.5-2.85-6.279-5.275-8.394c-4.515-3.934-9.79-7.289-15.828-10.072
		c-3.362-1.55-7.603-3.405-8.872-6.595c-1.854-4.657,4.167-6.934,5.995-3.477c-1.078,0.689-3.37-0.239-4.316,0.359
		c0.91,1.901,4.119,1.297,5.635,0.72c1.621-0.617,3.229-1.667,4.557-2.758c1.553-1.276,2.663-3.183,4.316-3.598
		c1.701-0.427,6.491,0.066,6.595-1.679c0.044-0.741-2.008-1.788-2.638-2.158c-3.013-1.767-6.772-2.983-10.552-3.837
		c-0.07,2.043,1.828,3.118,3.957,3.357c-0.604,1.387-2.3,3.587-4.196,3.237c-0.744-0.137-1.441-1.641-1.919-2.278
		c-6.772-9.045-16.905-13.341-28.417-17.745c-5.306-2.03-11.483-4.49-12.83-10.313c-0.909-3.933-0.239-9.091-0.239-13.549
		c0-4.743,0.061-9.478-0.12-13.43c0.106-0.073,0.215-0.145,0.239,0c17.405,15.512,34.476,31.543,51.439,47.602
		C68.767,63.753,86.517,79.039,102.996,95.288z"/>
</g>
<g id="Layer_1">
</g>
</svg>
