<?xml version="1.0" encoding="iso-8859-1"?>
<!-- Generator: Adobe Illustrator 19.2.0, SVG Export Plug-In . SVG Version: 6.00 Build 0)  -->
<svg version="1.1" xmlns="http://www.w3.org/2000/svg" xmlns:xlink="http://www.w3.org/1999/xlink" x="0px" y="0px"
	 viewBox="0 0 69.702 71.265" style="enable-background:new 0 0 69.702 71.265;" xml:space="preserve">
<g id="Quad_x5F_Typographers">
	<path style="fill-rule:evenodd;clip-rule:evenodd;" d="M57.551,8.657c-0.892,0.245-1.834,0.138-2.752,0.138
		c-6.592-0.001-13.327,0.092-19.993,0.092c-5.666,0-11.185,0.044-17.013,0.046c-1.853,0-3.722,0.131-5.549-0.092
		c0.051-0.455,0.562-0.702,0.871-0.964c0.993-0.84,2.164-1.577,3.302-2.338c4.39-2.935,10.347-5.178,17.242-5.503
		c4.999-0.235,9.477,0.705,13.207,2.063c3.753,1.367,6.987,3.361,9.721,5.503C56.871,7.991,57.454,8.08,57.551,8.657z"/>
	<path style="fill-rule:evenodd;clip-rule:evenodd;" d="M61.311,12.371c0.03,0,0.061,0,0.092,0c0.718,0.597,1.165,1.475,1.696,2.247
		c3.669,5.33,6.603,11.978,6.603,20.956c0,7.561-2.198,13.606-5.044,18.572c-0.467,0.813-1.02,1.628-1.56,2.385
		c-0.414,0.582-0.745,1.16-1.238,1.696c-0.124,0.136-0.284,0.462-0.55,0.321c-0.237-15.347-0.149-30.527-0.183-45.994
		c0.039,0.009,0.043-0.017,0.046-0.046C61.198,12.443,61.244,12.397,61.311,12.371z"/>
	<path style="fill-rule:evenodd;clip-rule:evenodd;" d="M8.301,12.692c0.413-0.201,0.32,0.886,0.32,1.238
		c0.002,11.304,0.09,22.346,0.092,33.566c0.001,3.905,0.081,7.753-0.092,11.464c-0.5-0.04-0.775-0.56-1.054-0.917
		C3.41,52.722,0.069,45.328,0.001,36.079c-0.038-5.032,0.911-9.419,2.43-13.253C3.974,18.935,5.932,15.368,8.301,12.692z"/>
	<path style="fill-rule:evenodd;clip-rule:evenodd;" d="M68.143,62.171c-0.053,0.515-0.785,0.743-1.237,1.009
		c-3.38,1.988-7.351,3.382-11.419,4.816c-3.442,1.213-7.271,2.117-11.234,2.659c-1.386,0.19-2.788,0.246-4.265,0.367
		c-3.019,0.248-6.024,0.352-8.805,0.092c-6.754-0.631-12.316-3.314-16.691-6.466c-0.664-0.478-1.283-0.987-1.926-1.56
		c-0.164-0.146-0.493-0.395-0.367-0.688C30.824,62.175,49.419,62.122,68.143,62.171z"/>
</g>
<g id="Layer_1">
</g>
</svg>
