<?xml version="1.0" encoding="iso-8859-1"?>
<!-- Generator: Adobe Illustrator 19.2.0, SVG Export Plug-In . SVG Version: 6.00 Build 0)  -->
<svg version="1.1" xmlns="http://www.w3.org/2000/svg" xmlns:xlink="http://www.w3.org/1999/xlink" x="0px" y="0px"
	 viewBox="0 0 76.725 77.52" style="enable-background:new 0 0 76.725 77.52;" xml:space="preserve">
<g id="Quality_x5F_Label_x5F_for_x5F_Communication_x5F_Products">
	<path style="fill-rule:evenodd;clip-rule:evenodd;" d="M37.452,0.034c6.099-0.29,11.849,1.294,16.085,3.198
		c8.953,4.025,15.311,10.338,19.476,19.088c2.079,4.367,3.411,9.586,3.683,15.552c0.141,3.115-0.242,6.167-0.775,8.866
		c-0.528,2.67-1.346,5.167-2.326,7.316c-1.044,2.29-2.072,4.394-3.342,6.298c-3.777,5.664-9.006,10.377-15.455,13.42
		c-4.39,2.07-9.653,3.528-15.504,3.731c-3.06,0.106-6.052-0.331-8.769-0.872c-8.052-1.604-13.901-5.445-18.895-10.029
		c-0.818-0.752-1.691-1.591-2.374-2.471c-0.183-0.236-0.266-0.533-0.436-0.775c-0.454-0.646-1.029-1.343-1.55-2.035
		c-2.789-3.704-4.742-7.997-6.153-13.129c-1.382-5.029-1.481-11.95-0.291-17.296c0.6-2.696,1.276-5.132,2.228-7.413
		c0.931-2.23,2.187-4.414,3.391-6.25c2.535-3.864,5.568-7.173,9.35-9.884c1.854-1.328,3.84-2.622,6.008-3.633
		c4.312-2.012,9.413-3.682,15.552-3.682C37.387,0.034,37.42,0.036,37.452,0.034z M65.504,24.986
		c-1.008-2.021-2.191-3.787-3.44-5.475c-2.68-3.152-5.714-5.956-9.835-7.994c-1.906-0.943-3.954-1.929-6.396-2.52
		c-3.513-0.85-8.387-1.264-12.306-0.582c-3.921,0.684-7.233,1.92-10.223,3.585c-6.743,3.754-11.822,9.983-14.195,18.023
		c-0.346,1.172-0.541,2.438-0.775,3.827c-0.914,5.399-0.145,11.585,1.55,16.085c3.235,8.583,10.144,14.847,18.847,17.926
		c2.213,0.783,4.991,1.334,7.655,1.55c2.905,0.235,5.886-0.147,8.526-0.678c5.037-1.013,8.902-3.355,12.403-6.008
		c3.427-2.649,6.173-6.19,8.236-10.126c0.298-0.569,0.693-1.195,0.679-1.889c-1.219-0.301-2.544-0.194-3.877-0.194
		c-9.744,0-19.262-0.144-29.02-0.146c-2.737,0-5.487-0.097-8.091,0c-2.701,0.1-5.107-0.247-7.074-1.163
		c-3.671-1.711-6.421-5.093-6.637-10.223c-0.214-5.07,2.814-8.845,6.153-10.562c2.014-1.035,4.314-1.375,7.073-1.26
		c1.303,0.055,2.714,0,4.119,0c6.967,0,13.924,0.06,20.832,0.097c4.153,0.022,8.4-0.048,12.5-0.048c1.352,0,2.727,0.109,4.021-0.097
		C66.21,26.359,65.829,25.638,65.504,24.986z M66.085,35.063c-4.055,0-8.009-0.048-12.111-0.048c-1.644,0-3.273-0.048-4.894-0.048
		c-6.624,0-13.307-0.173-19.282-0.097c-0.059,0.001-0.072,0.042-0.145,0.048c-2.507,0.225-5.531-0.4-7.607,0.194
		c-1.409,0.403-2.558,1.581-2.762,3.052c-0.232,1.68,0.669,3.236,2.035,3.924c1.582,0.797,4.139,0.485,6.492,0.484
		c5.756,0,11.52,0.066,17.296,0.097c8.037,0.043,15.993,0.124,23.304-0.048c0.543-2.065,0.502-5.335,0-7.413
		C67.672,34.958,66.852,35.063,66.085,35.063z"/>
</g>
<g id="Layer_1">
</g>
</svg>
