<?xml version="1.0" encoding="iso-8859-1"?>
<!-- Generator: Adobe Illustrator 19.2.0, SVG Export Plug-In . SVG Version: 6.00 Build 0)  -->
<svg version="1.1" xmlns="http://www.w3.org/2000/svg" xmlns:xlink="http://www.w3.org/1999/xlink" x="0px" y="0px"
	 viewBox="0 0 70.014 64.958" style="enable-background:new 0 0 70.014 64.958;" xml:space="preserve">
<g id="Quirra_x5F_69">
	<path style="fill-rule:evenodd;clip-rule:evenodd;" d="M51.259,53.914c0.25-0.743,0.976-1.14,1.468-1.651
		c2.483-2.585,4.627-5.706,6.099-9.354c0.587-1.456,0.962-3.019,1.375-4.769c0.845-3.573,0.865-7.445,0.275-11.051
		c-0.294-1.798-0.757-3.434-1.146-5.044c-0.382-1.577-1.171-2.986-1.88-4.265c-2.925-5.271-6.97-9.259-12.519-12.198
		c-5.226-2.768-13.157-4.164-20.544-2.293c-6.341,1.607-11.466,5.178-15.133,9.584c-0.953,1.146-1.827,2.299-2.613,3.577
		c-0.783,1.272-1.38,2.62-2.018,4.127c-1.222,2.887-2.235,6.248-2.293,10.042c-0.124,8.123,2.3,14.148,5.823,18.847
		c3.167,4.223,7.1,7.092,12.244,9.354c0.689,0.303,1.469,0.485,2.109,0.963c-0.291,0.45-0.89,0.431-1.33,0.504
		c-1.72,0.286-3.096,0.222-4.448-0.458c-1.617-0.813-3.088-1.859-4.402-2.797c-2.789-1.991-5.122-4.612-6.97-7.383
		c-0.979-1.469-1.787-2.99-2.568-4.631c-2.22-4.665-3.486-11.511-2.384-18.342c0.642-3.978,1.958-7.518,3.76-10.639
		c3.471-6.012,8.618-10.741,15.179-13.528c1.668-0.708,3.433-1.369,5.411-1.788c3.555-0.754,7.885-0.983,11.785-0.367
		c4.903,0.774,8.829,2.503,12.243,4.677c3.984,2.537,7.316,5.896,9.859,9.905c0.377,0.594,0.607,1.212,0.917,1.88
		c0.603,1.301,1.252,2.511,1.742,3.898c1.436,4.055,2.355,9.17,1.789,14.766c-0.334,3.288-1.279,6.254-2.385,8.896
		c-1.098,2.623-2.334,5.107-4.127,7.108c-0.354,0.475-0.773,1.089-1.33,1.697c-0.402,0.439-1.064,1.282-1.605,1.375
		C52.835,54.695,51.886,54.227,51.259,53.914z"/>
	<path style="fill-rule:evenodd;clip-rule:evenodd;" d="M46.903,52.447c-0.037-0.413,0.398-0.581,0.642-0.78
		c3.767-3.063,6.838-7.233,8.438-12.519c0.881-2.911,1.371-6.649,0.918-9.997c-0.913-6.733-3.352-11.25-7.154-15.224
		c-3.599-3.762-8.566-6.487-14.995-7.383c-3.316-0.462-6.962-0.118-10.042,0.779c-5.699,1.661-10.05,4.812-13.253,9.125
		C8.343,20.641,5.817,26.218,6.32,33.6c0.467,6.849,3.305,11.675,6.741,15.637c1.757,2.025,3.952,3.507,6.328,4.861
		c2.076,1.183,4.442,2.036,7.153,2.614c0.324,0.069,0.761,0.076,1.009,0.367c-0.02,0.546-0.632,0.783-1.055,1.055
		c-0.436,0.28-0.899,0.617-1.375,0.78c-6.836-1.831-11.816-5.221-15.546-10.134c-3.682-4.851-6.236-11.431-5.549-19.81
		c0.306-3.713,1.497-7.087,2.936-9.905c2.185-4.282,5.195-7.554,9.033-10.226c2.541-1.769,5.439-3.176,8.759-4.081
		c3.064-0.836,7.348-0.972,10.959-0.504c4.731,0.612,8.582,2.519,11.785,4.723c6.21,4.391,11.244,11.14,11.877,21.186
		c0.172,2.731-0.078,5.287-0.597,7.612c-1.018,4.569-2.767,8.029-5.273,11.234c-0.577,0.739-1.199,1.407-1.927,2.201
		c-0.532,0.581-1.525,1.87-2.201,1.926c-0.392,0.033-0.854-0.229-1.283-0.321C47.642,52.717,47.189,52.722,46.903,52.447z"/>
	<path style="fill-rule:evenodd;clip-rule:evenodd;" d="M41.492,51.3c0.079-0.443,0.576-0.563,0.871-0.734
		c4.918-2.838,8.49-7.214,10.18-13.39c0.947-3.459,0.824-7.921-0.091-11.189c-0.459-1.635-1.111-3.091-1.835-4.448
		c-0.375-0.704-0.711-1.417-1.146-2.018c-2.194-3.03-4.936-5.461-8.483-7.245c-2.792-1.403-6.507-2.348-10.41-2.064
		c-7.892,0.575-12.484,4.042-16.324,8.805c-2.722,3.836-4.822,9.24-3.944,15.729c0.787,5.811,3.596,10.041,6.971,13.161
		c3.067,2.804,6.81,4.84,12.197,5.411c0.745,0.079,1.525-0.075,2.293,0.184c-0.07,0.545-0.754,0.709-1.146,1.055
		c-0.413,0.364-0.785,0.809-1.283,1.009c-7.085-0.585-11.676-3.768-15.454-7.75c-2.715-3.175-4.739-6.883-5.686-11.693
		c-1.038-5.27,0.052-10.856,1.972-14.674c1.979-3.939,4.622-6.916,8.024-9.354c1.701-1.219,3.632-2.252,5.731-2.981
		c2.14-0.742,4.799-1.256,7.566-1.284c2.981-0.029,5.894,0.619,8.392,1.513c7.076,2.534,12.175,8.115,14.445,15.178
		c0.784,2.44,1.353,5.564,1.101,8.713c-0.476,5.947-2.662,10.376-5.641,14.078c-1.056,1.312-2.335,2.519-3.806,3.623
		c-0.426,0.319-1.028,0.913-1.468,0.963c-0.476,0.055-1.034-0.185-1.559-0.275C42.459,51.536,41.926,51.568,41.492,51.3z"/>
	<path style="fill-rule:evenodd;clip-rule:evenodd;" d="M42.087,52.447c-0.579,0.363-1.257,0.271-1.834,0.413
		c-4.127,1.012-6.587,3.818-9.171,6.466c-1.814,1.632-4.682,2.893-8.254,2.66c-0.506-0.033-1.041-0.188-1.56-0.275
		c-0.511-0.086-1.141,0.02-1.422-0.413c0.272-0.363,0.678-0.094,1.056-0.092c0.992,0.006,1.916-0.408,2.843-0.688
		c0.929-0.281,1.773-0.633,2.521-1.009c1.635-0.822,2.678-2.047,3.898-3.164c1.945-1.78,3.945-2.913,7.016-3.577
		c0.964-0.208,2.146-0.371,3.21-0.458C40.936,52.265,41.686,52.24,42.087,52.447z"/>
	<path style="fill-rule:evenodd;clip-rule:evenodd;" d="M48.37,53.639c-0.456,0.488-1.924,0.215-2.705,0.321
		c-3.369,0.459-5.68,2.647-7.887,4.586c-1.09,0.956-2.108,1.968-3.349,2.889c-1.522,1.131-3,2.064-5.502,1.926
		c-1.351-0.075-2.803-0.093-3.898-0.55c2.513-0.428,4.593-0.917,6.283-2.109c3.235-2.284,5.118-6.134,9.676-7.107
		c1.09-0.233,2.301-0.413,3.668-0.413C45.908,53.181,47.286,53.172,48.37,53.639z"/>
	<path style="fill-rule:evenodd;clip-rule:evenodd;" d="M52.864,55.152c-0.354,0.346-0.882,0.191-1.284,0.229
		c-1.305,0.124-2.662,0.405-3.714,0.826c-3.398,1.36-5.064,4.723-8.3,6.145c-1.833,0.805-4.39,1.42-7.062,1.284
		c0.107-0.317,0.495-0.341,0.734-0.413c1.963-0.59,3.521-1.637,4.906-2.935c1.165-1.092,2.198-2.229,3.485-3.256
		c1.314-1.048,2.996-1.993,5.182-2.247c1.604-0.186,3.221-0.175,4.906-0.046C52.18,54.775,52.865,54.629,52.864,55.152z"/>
	<path style="fill-rule:evenodd;clip-rule:evenodd;" d="M70.014,63.819c-0.21,0.416-0.836,0.608-1.375,0.734
		c-0.729,0.17-1.732,0.197-2.66,0.275c-2.304,0.193-4.213,0.301-5.87-0.642c-0.412-0.235-0.851-0.604-1.283-0.918
		c-2.788-2.016-5.036-5.524-10.318-4.86c-1.044,0.131-1.937,0.577-3.026,0.504c0.127-0.588,0.813-0.812,1.284-1.101
		c1.333-0.818,3.614-1.682,5.549-1.743c2.317-0.073,4.382,1.078,5.731,2.201c1.645,1.369,2.993,3.042,4.952,4.127
		C64.745,63.364,67.147,63.826,70.014,63.819z"/>
</g>
<g id="Layer_1">
</g>
</svg>
