<?xml version="1.0" encoding="iso-8859-1"?>
<!-- Generator: Adobe Illustrator 19.2.0, SVG Export Plug-In . SVG Version: 6.00 Build 0)  -->
<svg version="1.1" xmlns="http://www.w3.org/2000/svg" xmlns:xlink="http://www.w3.org/1999/xlink" x="0px" y="0px"
	 viewBox="0 0 69.792 62.72" style="enable-background:new 0 0 69.792 62.72;" xml:space="preserve">
<g id="R_x5F_Brockhaus">
	<path style="fill-rule:evenodd;clip-rule:evenodd;" d="M18.418,0.187c0.251,4.43-0.101,9.255,0.146,13.755
		c0.849,0.347,1.954,0.194,3.072,0.195c15.883,0.003,32.229,0.028,48.14,0.097c0.092,0.353-0.246,0.654-0.438,0.879
		c-6.64,7.733-13.337,15.685-19.998,23.46c-3.31,4.168-6.872,8.086-10.291,12.144c-2.57,3.029-5.167,6.028-7.755,9.071
		c-0.851,1-1.631,2.078-2.634,2.927c-9.372-0.035-19.245,0.095-28.484-0.146c-0.289-2.534-0.046-5.088-0.097-7.657
		c-0.051-2.569-0.032-5.166-0.049-7.755C-0.07,31.845,0.105,16.154,0.176,0.14C3.086-0.1,6.636,0.041,9.98,0.042
		C12.863,0.042,15.733-0.068,18.418,0.187z M32.123,30.281c-4.408,0-8.715-0.067-13.023,0.098c-0.321,0.955-0.075,1.977-0.098,2.975
		c-0.068,3.043-0.039,6.247-0.049,9.316c-0.005,1.777-0.027,3.523,0.146,5.17c0.448-0.16,0.778-0.59,1.073-0.927
		c0.965-1.104,1.847-2.217,2.829-3.267c3.206-3.858,6.708-7.578,9.852-11.413c0.462-0.565,1.006-1.107,1.268-1.805
		C33.503,30.171,32.78,30.281,32.123,30.281z"/>
</g>
<g id="Layer_1">
</g>
</svg>
