<?xml version="1.0" encoding="iso-8859-1"?>
<!-- Generator: Adobe Illustrator 19.2.0, SVG Export Plug-In . SVG Version: 6.00 Build 0)  -->
<svg version="1.1" xmlns="http://www.w3.org/2000/svg" xmlns:xlink="http://www.w3.org/1999/xlink" x="0px" y="0px"
	 viewBox="0 0 81.328 66.656" style="enable-background:new 0 0 81.328 66.656;" xml:space="preserve">
<g id="R_x5F_and_x5F_D_x5F_Thiel">
	<path style="fill-rule:evenodd;clip-rule:evenodd;" d="M48.056,0.254c0.237,11.237,0.051,22.236,0.051,33.244
		c0,10.812,0.093,21.899-0.102,33.041c-4.76,0.207-9.949,0.109-14.589-0.051c-0.281-16.774,0.041-34.868-0.152-52.052
		c-1.286-0.318-2.651-0.204-4.016-0.204c-4.123,0-8.402,0-12.606,0c-5.645,0-11.245,0.1-16.47-0.152
		c-0.176-3.185-0.135-7.076-0.051-10.624c0.025-1.046-0.25-2.748,0.152-3.355C0.311,0.054,0.367,0.024,0.427,0
		c8.032,0,16.108,0,24.094,0c5.913,0,11.745,0.102,17.792,0.102C44.256,0.102,46.194,0.009,48.056,0.254z"/>
	<path style="fill-rule:evenodd;clip-rule:evenodd;" d="M51.31,0.152C61.377,0.207,71.467,0.02,81.199,0.356
		c0.162,4.433,0.199,9.618-0.051,13.978c-9.999,0.105-20.105,0.073-30.042-0.102c-0.196-2.03-0.102-4.387-0.102-6.964
		c0-1.614-0.035-3.547,0-5.337c0.012-0.6,0.013-1.395,0.153-1.678C51.194,0.207,51.25,0.177,51.31,0.152z"/>
	<path style="fill-rule:evenodd;clip-rule:evenodd;" d="M30.418,16.622c0.077,16.082,0.129,33.401-0.051,49.765
		c-1.441,0.308-3.179,0.12-4.677,0.102c-1.671-0.02-3.328,0.1-4.931-0.102c-0.183-3.305-0.051-6.704-0.051-10.065
		c0-9.63,0.076-19.908-0.102-29.991c-0.793-0.294-1.644-0.128-2.491-0.102c-2.564,0.08-5.063-0.162-7.574-0.051
		c-3.392,0.149-6.947-0.024-10.37-0.102c-0.285-2.967-0.168-6.427,0-9.455c5.616-0.189,11.385-0.183,17.08-0.152
		C21.661,16.493,26.086,16.345,30.418,16.622z"/>
	<path style="fill-rule:evenodd;clip-rule:evenodd;" d="M17.862,28.567c0.184,11.647,0.102,23.68,0.102,35.634
		c0,0.744,0.118,1.529-0.152,2.236c-1.747,0.106-4.193,0.201-6.049,0c-0.362-10.059,0.136-21.364-0.204-31.872
		c-0.851-0.274-1.851-0.153-2.846-0.153c-0.962,0-1.969,0-2.948,0c-1.994,0-4.026,0.105-5.642-0.152
		c-0.174-0.739-0.102-1.773-0.102-2.897c0-0.852-0.034-2.386,0.204-2.796c0.038-0.047,0.092-0.077,0.152-0.102
		C6.171,28.533,12.236,28.331,17.862,28.567z"/>
</g>
<g id="Layer_1">
</g>
</svg>
