<?xml version="1.0" encoding="iso-8859-1"?>
<!-- Generator: Adobe Illustrator 19.2.0, SVG Export Plug-In . SVG Version: 6.00 Build 0)  -->
<svg version="1.1" xmlns="http://www.w3.org/2000/svg" xmlns:xlink="http://www.w3.org/1999/xlink" x="0px" y="0px"
	 viewBox="0 0 74.977 66.492" style="enable-background:new 0 0 74.977 66.492;" xml:space="preserve">
<g id="r_x5F_pape">
	<path style="fill-rule:evenodd;clip-rule:evenodd;" d="M47.793,45.098c-0.311-0.532-0.21-1.352-0.147-2.11
		c0.061-0.74-0.075-1.545,0.196-2.061c0.916-0.247,1.921-0.098,2.895-0.098c1.035,0,2.067-0.003,3.042-0.049
		c5.853-0.273,9.592-2.849,12.512-6.036c1.421-1.73,2.529-3.558,3.386-5.888c0.817-2.224,1.416-5.098,0.981-8.096
		c-0.758-5.239-3.058-9.327-6.379-12.12c-2.605-2.192-5.407-3.745-9.765-4.171c-2.878-0.282-6.051-0.114-8.979-0.098
		c-2.839,0.016-5.836-0.001-8.931,0c-0.755,0-1.516,0.062-2.257,0.049c-0.688-0.012-1.399-0.229-2.061,0.049
		c-0.338,0.425-0.262,1.031-0.245,1.521c0.056,1.686-0.011,3.511,0,5.349c0.064,11.621,0.196,23.948,0.196,36.114
		c0,4.842-0.049,9.633,0.147,14.181c0.425,0.355,1.57,0.451,2.158,0.196c0.26-0.523,0.147-1.114,0.147-1.668
		c0-1.676,0.049-3.458,0.049-5.201c0.002-11.384-0.081-23.252-0.049-34.397c0.01-3.363-0.004-6.695-0.099-10.059
		c-0.031-1.122-0.091-2.31,0.147-3.434c0.908-0.333,1.911-0.196,2.896-0.196c3.017,0,6.118-0.099,9.126-0.098
		c4.251,0.001,8.141-0.153,11.335,0.932c3.079,1.046,5.144,3.066,6.968,5.349c1.768,2.212,3.169,5.295,3.288,8.979
		c0.192,5.96-2.565,10.036-5.692,12.954c-1.489,1.389-3.9,2.566-6.231,3.091c-2.001,0.451-4.074,0.392-6.477,0.393
		c-0.708,0-1.466,0.112-2.159-0.148c-0.199-1.066-0.305-2.935-0.05-3.975c1.303-0.306,2.798-0.096,4.27-0.147
		c6.863-0.237,11.058-3.864,12.021-10.059c0.37-2.376-0.385-4.767-1.03-6.526c-0.681-1.855-2.284-3.553-3.876-4.612
		c-1.496-0.995-3.424-1.678-5.496-1.914c-2.305-0.262-4.877-0.049-7.36-0.049c-2.446,0.001-4.886-0.105-7.213,0.147
		c-0.392,0.928-0.166,1.941-0.147,2.944c0.02,1.061-0.1,2.161-0.049,3.238c0.284,6.114-0.089,12.773,0.147,19.087
		c0.164,4.382,0.048,8.755,0.049,13.003c0,4.182-0.016,8.254,0.099,12.218c0.354,0.382,1.441,0.354,1.962,0.147
		c0.288-0.954,0.114-1.974,0.147-2.944c0.1-2.912,0-6.015,0-9.078c0-2.053,0.087-4.123,0-6.183
		c-0.084-1.985,0.056-3.977-0.049-5.937c-0.213-3.978,0.161-8.016,0-12.071c-0.12-3.007-0.05-5.983-0.05-9.127
		c0.001-0.966-0.114-1.958,0.148-2.895c1.037-0.265,2.157-0.147,3.238-0.147c1.084,0,2.155-0.041,3.239,0
		c2.267,0.085,4.513-0.176,6.575,0.147c1.594,0.25,3.481,1.274,4.514,2.208c1.193,1.08,2.073,2.459,2.552,4.122
		c1.222,4.246-0.516,7.66-2.797,9.715c-1.177,1.061-2.783,1.799-4.661,2.061c-0.977,0.136-2.065,0.092-3.141,0.098
		c-0.993,0.005-2.045,0.134-3.042-0.098c-0.339-0.887-0.267-2.863-0.05-3.828c2.325-0.527,5.359,0.191,7.36-0.834
		c1.77-0.906,3.116-2.811,2.65-5.397c-0.399-2.212-2.057-3.703-4.318-3.975c-1.286-0.155-2.64-0.083-4.024-0.098
		c-1.274-0.014-2.593-0.183-3.827,0.098c-0.359,0.806-0.246,1.744-0.246,2.601c0.002,12.973,0.177,25.702,0.246,38.666
		c0.004,0.719-0.137,2.118,0.049,2.65c0.167,0.479,0.674,0.287,0.981,0.687c-0.419,1.046-1.407,2.13-2.159,3.189
		c-0.232,0.328-0.482,0.919-0.834,0.933c-0.358,0.013-0.737-0.608-0.933-0.883c-0.296-0.416-0.466-0.755-0.736-1.08
		c-0.282-0.306-0.484-0.606-0.785-1.03c-0.189-0.268-0.502-0.909-0.834-0.933c-0.411-0.03-0.746,0.627-0.981,0.933
		c-0.322,0.42-0.608,0.789-0.834,1.08c-0.635,0.815-1.025,1.724-1.766,2.012c-1.062-1.129-1.437-1.871-2.307-3.042
		c-0.169-0.228-0.592-0.875-0.884-0.883c-0.454-0.013-1.401,1.599-1.619,1.914c-0.207,0.3-0.515,0.725-0.735,1.03
		c-0.244,0.337-0.527,0.918-0.835,0.932c-0.314,0.014-0.768-0.648-0.981-0.932c-0.642-0.852-0.989-1.319-1.668-2.159
		c-0.207-0.255-0.821-0.794-0.736-1.177c0.101-0.453,0.756-0.139,0.933-0.589c0.069-19.818,0.002-39.656,0-59.716
		c0-0.574-0.139-1.238,0.196-1.767c7.382-0.134,14.962-0.098,22.375-0.098c2.511,0,4.905,0.095,6.919,0.54
		c4.034,0.89,7.189,2.732,9.862,5.102c2.726,2.417,4.77,5.322,6.134,8.832c0.734,1.891,1.277,3.82,1.473,6.036
		c0.629,7.173-1.858,13.08-5.202,16.928c-2.267,2.609-5.079,4.962-8.636,6.33c-2.729,1.05-5.932,1.472-9.666,1.472
		C50.237,45.246,48.983,45.364,47.793,45.098z"/>
	<path style="fill-rule:evenodd;clip-rule:evenodd;" d="M19.726,17.669c-0.126,0.414-0.971,0.109-1.227,0.393
		c-0.265,0.954-0.147,2-0.147,2.993c0,1.042-0.024,2.108,0.196,2.944c0.41,1.555,1.731,2.939,3.238,3.435
		c1.104,0.364,2.49,0.149,3.877,0.441c0.359,0.973,0.186,2.665,0.049,3.68c-0.874,0.308-1.812,0.241-2.896,0.147
		c-3.36-0.29-5.792-2.111-7.213-4.612c-1.361-2.398-1.057-5.514-1.275-9.029c-0.448-0.299-1.858-0.306-2.307,0
		c-0.576,4.991,0.317,9.708,2.699,12.169c1.75,1.853,3.92,3.559,7.458,3.925c0.455,0.047,1.191,0.069,1.816,0.099
		c0.545,0.025,1.425-0.067,1.669,0.196c0.303,0.328,0.222,1.467,0.245,1.963c0.038,0.791,0.02,1.522-0.196,2.012
		c-6.451,0.671-10.938-1.835-13.935-5.103c-2.14-2.487-3.974-5.814-3.975-10.5c0-1.527,0.079-3.132-0.098-4.711
		c-0.451-0.435-1.646-0.309-2.258-0.098c-0.263,1.085-0.147,2.371-0.147,3.582c0,1.272-0.044,2.54,0.098,3.631
		c0.657,5.046,3.215,9.12,6.477,11.678c2.573,2.019,5.524,3.537,9.568,4.023c1.349,0.163,2.77-0.044,4.268,0.246
		c0.195,1.05,0.266,2.89,0,3.925c-0.916,0.401-2.005,0.2-2.944,0.148c-3.129-0.177-5.651-0.827-7.998-1.767
		c-3.142-1.259-5.564-3.252-7.654-5.397c-2.161-2.217-3.661-4.978-4.809-8.244C1.13,26.491,1.176,22.57,1.129,18.11
		C1.011,17.705,0.253,17.94,0,17.669c0.209-0.862,0.831-1.422,1.423-2.208c0.211-0.28,0.5-0.575,0.834-0.982
		c0.243-0.295,0.538-0.927,0.884-0.932c0.321-0.005,0.657,0.637,0.883,0.932c0.629,0.823,0.964,1.123,1.619,1.963
		c0.223,0.285,0.533,0.904,0.835,0.932c0.569,0.053,1.417-1.43,1.717-1.815c0.239-0.307,0.503-0.604,0.785-0.981
		c0.235-0.314,0.568-0.911,0.834-0.932c0.377-0.031,0.719,0.546,0.933,0.834c0.301,0.405,0.479,0.698,0.736,1.031
		c0.643,0.518,0.899,1.422,1.668,1.815c1.309-0.896,1.985-2.811,3.189-3.778c0.427-0.343,0.92,0.484,1.178,0.834
		c0.285,0.388,0.547,0.767,0.785,1.08C18.94,16.299,19.556,16.885,19.726,17.669z"/>
</g>
<g id="Layer_1">
</g>
</svg>
