<?xml version="1.0" encoding="iso-8859-1"?>
<!-- Generator: Adobe Illustrator 19.2.0, SVG Export Plug-In . SVG Version: 6.00 Build 0)  -->
<svg version="1.1" xmlns="http://www.w3.org/2000/svg" xmlns:xlink="http://www.w3.org/1999/xlink" x="0px" y="0px"
	 viewBox="0 0 75.481 72.673" style="enable-background:new 0 0 75.481 72.673;" xml:space="preserve">
<g id="RW_x5F_Buelow_x5F_Architects">
	<path style="fill-rule:evenodd;clip-rule:evenodd;" d="M30.429,0.004c0.674-0.089,1.136,1.244,1.481,1.876
		c2.286,4.185,4.497,8.771,6.664,13.081c0.649,1.29,1.648,2.826,1.777,4.591c0.208,2.866-0.889,4.647-1.876,6.517
		c-1.537,2.91-2.866,5.401-4.394,8.441c-0.271,0.539-0.783,1.264-0.79,1.776c-0.008,0.545,0.522,1.33,0.839,1.926
		c1.671,3.14,3.023,5.892,4.69,9.133c0.943,1.834,1.749,3.141,1.629,5.775c-0.091,2.004-1.219,3.779-2.024,5.232
		c-2.204,3.976-3.995,7.829-6.22,11.896c-0.296,0.543-0.926,2.228-1.53,2.222c-0.687-0.007-1.33-0.718-1.925-1.086
		c-1.305-0.809-2.307-1.389-3.703-2.222c-0.522-0.312-1.554-0.835-1.629-1.333c-0.064-0.429,0.386-1.299,0.642-1.925
		c1.254-3.075,2.496-5.807,3.752-8.935c0.506-1.26,1.135-2.506,1.234-3.85c0.136-1.842-0.39-3.275-0.987-4.739
		c-1.376-3.373-2.727-6.484-4.196-10.021c-0.277-0.668-0.778-1.434-0.79-2.024c-0.012-0.584,0.485-1.485,0.741-2.123
		c1.411-3.521,2.744-6.495,4.196-10.021c0.582-1.412,1.16-2.798,1.037-4.641c-0.099-1.472-0.694-2.702-1.234-3.899
		c-1.382-3.064-2.393-5.87-3.702-9.132c-0.248-0.618-0.737-1.378-0.691-1.876c0.054-0.589,1.12-1.111,1.53-1.382
		c1.293-0.855,2.321-1.357,3.603-2.173C29.039,0.781,29.87,0.077,30.429,0.004z"/>
	<path style="fill-rule:evenodd;clip-rule:evenodd;" d="M18.482,0.054c0.446-0.094,0.572,0.031,0.839,0.839
		c1.774,5.351,3.385,10.405,5.084,15.747c0.254,0.798,0.611,1.649,0.691,2.468c0.193,1.977-0.264,3.407-0.691,4.789
		c-1.071,3.463-2.153,6.679-3.308,10.267c-0.217,0.676-0.577,1.465-0.592,2.122c-0.021,0.879,0.672,2.512,0.987,3.456
		c0.772,2.315,1.382,4.362,2.123,6.713c0.358,1.14,0.895,2.285,1.085,3.308c0.06,0.322-0.044,0.598,0,0.889
		c0.06,0.395,0.4,0.781,0.445,1.383c0.157,2.13-0.731,3.829-1.234,5.43c-1.316,4.182-2.612,8.261-3.999,12.588
		c-0.223,0.696-0.6,2.186-1.037,2.271c-0.54,0.105-1.494-0.914-1.975-1.283c-1.339-1.029-2.338-1.776-3.653-2.814
		c-0.542-0.428-1.483-0.921-1.629-1.579c-0.195-0.877,0.384-2.371,0.592-3.406c0.49-2.436,0.931-4.237,1.432-6.664
		c0.361-1.749,0.851-3.073,0.691-5.183c-0.09-1.191-0.488-2.502-0.789-3.802c-0.719-3.095-1.397-6.262-2.073-9.429
		c-0.13-0.609-0.333-1.326-0.346-1.925c-0.025-1.169,0.514-2.573,0.79-3.851c0.568-2.631,1.048-4.993,1.679-7.603
		c0.309-1.278,0.653-2.658,0.74-3.85c0.138-1.9-0.353-3.318-0.691-4.937c-0.585-2.804-1.224-5.556-1.777-8.59
		c-0.117-0.642-0.338-1.251-0.247-1.728c0.124-0.644,0.979-1.162,1.53-1.579c0.634-0.482,1.269-0.883,1.777-1.284
		c0.857-0.676,1.679-1.36,2.567-2.073C17.789,0.508,18.156,0.122,18.482,0.054z"/>
	<path style="fill-rule:evenodd;clip-rule:evenodd;" d="M68.834,30.363c-1.397,1.471-2.874,2.891-4.394,4.492
		c-0.367,0.387-1.313,1.11-1.333,1.63c-0.019,0.509,1.054,1.363,1.53,1.876c1.672,1.799,3.341,3.489,5.035,5.183
		c2.152,2.152,5.231,4.415,5.726,7.898c0.429,3.017-0.896,5.379-2.419,6.96c-3.265,3.391-6.084,6.28-9.478,9.676
		c-1.068,1.068-2.421,2.322-3.653,3.554c-0.394,0.395-0.829,0.993-1.333,1.037c-0.705,0.062-1.598-0.521-2.221-0.79
		c-1.519-0.657-2.593-1.028-4.196-1.728c-0.546-0.238-1.79-0.58-1.876-1.086c-0.139-0.811,1.194-1.438,1.432-1.975
		c1.516-1.874,3.13-3.648,4.64-5.528c1.048-1.211,2.108-2.414,3.159-3.653c1.018-1.2,1.92-2.704,2.074-4.689
		c0.357-4.636-2.963-6.389-4.838-9.083c-1.562-1.903-3.188-3.732-4.789-5.628c-0.524-0.621-1.164-1.219-1.432-2.023
		c0.164-0.676,0.701-1.183,1.136-1.679c1.286-1.47,2.541-3.034,3.9-4.492c1.486-2.144,3.718-3.83,4.985-6.171
		c1.159-2.14,1.195-5.289,0.05-7.404c-0.647-1.194-1.658-2.263-2.518-3.308c-2.215-2.69-4.274-5.195-6.615-7.947
		c-0.39-0.459-1.243-1.185-1.185-1.728c0.064-0.585,1.245-0.843,1.827-1.086c1.558-0.653,2.563-1.123,4.097-1.729
		c0.583-0.229,1.619-0.957,2.221-0.888c0.832,0.095,1.763,1.368,2.419,2.023c2.197,2.197,4.418,4.615,6.516,6.714
		c1.491,1.491,2.762,2.911,4.344,4.492c1.638,1.638,2.992,3.032,3.554,5.282c1.05,4.204-1.47,6.853-3.456,8.786
		C70.778,28.294,69.961,29.347,68.834,30.363z"/>
	<path style="fill-rule:evenodd;clip-rule:evenodd;" d="M45.435,2.226c3.036,3.957,5.927,8.059,8.935,12.045
		c1.649,2.07,3.152,4.408,2.37,7.897c-0.345,1.539-1.169,2.626-2.073,3.9c-2.121,2.987-4.121,5.539-6.319,8.589
		c-0.376,0.523-1.127,1.337-1.135,1.827c-0.009,0.545,1.096,1.922,1.432,2.369c1.616,2.153,3.333,4.407,4.838,6.417
		c1.005,1.343,2.285,2.943,2.912,4.641c0.687,1.855,0.607,4.319-0.296,6.22c-0.746,1.568-1.994,2.895-2.962,4.245
		c-2.033,2.834-3.986,5.342-6.17,8.244c-0.652,0.866-1.567,2.035-2.32,3.109c-0.237,0.34-0.625,0.796-0.938,0.84
		c-0.606,0.085-1.508-0.565-2.024-0.84c-1.304-0.693-2.319-1.224-3.751-1.974c-0.533-0.279-1.597-0.705-1.678-1.186
		c-0.101-0.59,0.692-1.522,1.037-2.072c1.196-1.917,2.495-3.873,3.554-5.776c0.363-0.652,0.696-1.346,1.086-2.023
		c1.09-1.898,2.743-3.61,2.518-6.764c-0.179-2.499-1.708-4.353-2.814-6.121c-0.394-0.629-0.654-1.301-1.037-1.925
		c-1.167-1.906-2.272-3.59-3.406-5.479c-0.363-0.605-0.877-1.169-1.037-1.925c0.454-1.458,1.216-2.383,1.975-3.555
		c0.726-1.121,1.405-2.225,2.122-3.406c0.339-0.558,0.615-1.181,0.987-1.776c1.347-2.157,3.451-4.391,3.209-7.998
		c-0.104-1.546-0.714-2.9-1.432-4.097c-0.704-1.173-1.588-2.233-2.172-3.308c-0.208-0.383-0.292-0.775-0.494-1.135
		c-0.964-1.713-2.028-3.238-3.11-5.035c-0.324-0.54-1.185-1.62-1.086-2.173c0.091-0.509,1.19-0.866,1.629-1.085
		c1.803-0.9,3.688-1.947,5.38-2.716C44.211-0.273,44.798,1.712,45.435,2.226z"/>
	<path style="fill-rule:evenodd;clip-rule:evenodd;" d="M7.82,72.372c-0.476-0.01-0.826-0.448-1.135-0.741
		c-1.666-1.574-3.181-3.23-4.887-4.936c-0.59-0.591-1.484-1.432-1.678-2.222c-0.231-0.942-0.037-2.324-0.049-3.555
		C-0.112,43.581,0.132,25.574,0.02,7.804c0.426-0.75,1.146-1.295,1.777-1.926c1.52-1.519,3.039-3.019,4.591-4.689
		C7.006,0.524,7.809-0.545,8.067,1.14c0.727,4.758,1.231,9.275,1.826,13.92c0.325,2.532,0.691,4.896,0.395,7.553
		c-0.083,0.747-0.314,1.461-0.395,2.172c-0.11,0.966-0.171,1.927-0.296,2.863c-0.244,1.838-0.517,3.638-0.741,5.578
		c-0.122,1.061-0.334,2.101-0.296,3.209c0.027,0.812,0.239,1.713,0.345,2.616c0.105,0.884,0.184,1.78,0.296,2.666
		c0.228,1.787,0.594,3.581,0.741,5.184c0.036,0.399-0.094,0.758-0.05,1.086c0.049,0.363,0.278,0.568,0.346,0.938
		c0.569,3.109,0.185,5.98-0.296,9.034c-0.514,3.263-0.838,6.593-1.234,9.823c-0.098,0.795-0.28,1.58-0.395,2.369
		C8.201,70.917,8.291,71.79,7.82,72.372z"/>
</g>
<g id="Layer_1">
</g>
</svg>
