<?xml version="1.0" encoding="iso-8859-1"?>
<!-- Generator: Adobe Illustrator 21.0.2, SVG Export Plug-In . SVG Version: 6.00 Build 0)  -->
<svg version="1.1" xmlns="http://www.w3.org/2000/svg" xmlns:xlink="http://www.w3.org/1999/xlink" x="0px" y="0px"
	 viewBox="0 0 16.288 16.298" style="enable-background:new 0 0 16.288 16.298;" xml:space="preserve">
<g id="Radio_x5F_Quebec">
	<path d="M7.791,0.021c0.872-0.111,1.787,0.216,2.379,0.866c0.356,0.389,0.601,0.881,0.685,1.403
		c0.143,0.832-0.124,1.727-0.714,2.333C9.621,5.176,8.861,5.494,8.103,5.472C7.029,5.48,5.994,4.777,5.599,3.78
		C5.406,3.331,5.365,2.833,5.417,2.351C5.548,1.5,6.084,0.705,6.862,0.321C7.148,0.159,7.468,0.071,7.791,0.021z"/>
	<path d="M2.711,2.145c0.587-0.552,1.285-0.971,2.002-1.331C4.288,1.511,4.137,2.356,4.218,3.162
		C4.293,3.888,4.586,4.589,5.039,5.16c0.644,0.817,1.617,1.372,2.654,1.479c0.123,0.007,0.245,0.019,0.368,0.033
		c0.798-0.002,1.606-0.219,2.268-0.674c0.548-0.359,0.996-0.864,1.3-1.445c0.62-1.147,0.596-2.609-0.06-3.735
		c0.752,0.362,1.466,0.814,2.074,1.388c0.261,0.187,0.448,0.451,0.669,0.678c1.286,1.475,2.013,3.432,1.973,5.391
		c0.002,0.227,0.003,0.454-0.038,0.678c-0.237-0.372-0.491-0.75-0.844-1.022c-0.834-0.742-1.998-1.092-3.103-0.939
		c-0.758,0.095-1.484,0.423-2.059,0.924c-0.257,0.25-0.518,0.498-0.712,0.802c-0.698,1.031-0.85,2.402-0.397,3.561
		c0.259,0.661,0.689,1.261,1.256,1.692c0.517,0.408,1.14,0.678,1.79,0.783c0.214,0.043,0.436,0.034,0.651,0.074
		c-1.179,0.82-2.576,1.332-4.009,1.44c-1.893,0.169-3.836-0.362-5.388-1.459c1.128,0.013,2.257-0.484,2.997-1.337
		c0.66-0.744,1.027-1.747,0.98-2.743C7.382,9.88,7.056,9.045,6.514,8.392C6.217,8.058,5.891,7.742,5.499,7.52
		C4.517,6.917,3.262,6.793,2.176,7.175C1.611,7.373,1.095,7.703,0.666,8.12C0.423,8.371,0.223,8.659,0.033,8.951
		c-0.054-0.36-0.024-0.725-0.031-1.087c0.066-1.877,0.819-3.726,2.091-5.109C2.272,2.528,2.483,2.324,2.711,2.145z"/>
	<path d="M3.126,8.163c0.85-0.104,1.751,0.196,2.331,0.835c0.472,0.462,0.729,1.116,0.764,1.77c0.023,0.622-0.17,1.252-0.544,1.749
		c-0.378,0.523-0.958,0.887-1.583,1.034c-0.368,0.082-0.753,0.081-1.125,0.025c-0.818-0.145-1.553-0.689-1.934-1.426
		c-0.463-0.86-0.407-1.972,0.143-2.779C1.605,8.703,2.345,8.262,3.126,8.163z"/>
	<path d="M12.455,8.166c0.448-0.047,0.91-0.014,1.331,0.153c0.367,0.132,0.693,0.356,0.977,0.619
		c0.433,0.449,0.733,1.039,0.787,1.665c0,0.205,0.004,0.411-0.002,0.617c-0.07,0.519-0.288,1.018-0.622,1.421
		c-0.16,0.154-0.304,0.328-0.49,0.453c-0.941,0.7-2.342,0.696-3.271-0.024c-0.82-0.592-1.248-1.676-1.056-2.668
		c0.097-0.553,0.367-1.085,0.785-1.464C11.297,8.501,11.873,8.25,12.455,8.166z"/>
</g>
<g id="Layer_1">
</g>
</svg>
