<?xml version="1.0" encoding="iso-8859-1"?>
<!-- Generator: Adobe Illustrator 19.2.0, SVG Export Plug-In . SVG Version: 6.00 Build 0)  -->
<svg version="1.1" xmlns="http://www.w3.org/2000/svg" xmlns:xlink="http://www.w3.org/1999/xlink" x="0px" y="0px"
	 viewBox="0 0 70.79 67.037" style="enable-background:new 0 0 70.79 67.037;" xml:space="preserve">
<g id="Radoskor_x5F_67">
	<path style="fill-rule:evenodd;clip-rule:evenodd;" d="M9.909,46.609c0.176-0.749,1.074-0.707,1.602-0.87
		c3.644-1.123,6.768-3.06,9.202-5.493c0.956-0.957,2.037-2.005,2.884-3.205c0.867-1.229,1.805-2.446,2.289-3.799
		c0.245-0.686,0.663-1.362,1.007-2.06c2.335-4.744,4.056-10.165,6.089-15.244c1.144-2.859,2.683-5.544,4.761-7.462
		c3.103-2.862,8.046-4.238,12.818-5.493c3.189-0.839,6.694-1.349,10.116-2.06c1.744-0.362,3.61-0.773,5.402-0.869
		c1.633-0.087,4.149-0.211,4.623,0.961c0.199,0.491,0.02,1.291-0.137,1.74c-0.52,1.492-1.513,2.872-2.335,4.257
		c-1.658,2.795-3.543,5.132-5.081,8.012c-0.17,0.316-0.457,0.643-0.687,0.961c-0.659,0.911-1.438,1.912-2.061,2.838
		c-1.781,2.65-3.72,5.074-5.631,7.508c-1.918,2.444-3.984,4.779-6.135,6.959c-0.563,0.571-1.061,1.132-1.647,1.648
		c-1.166,1.024-2.221,2.118-3.662,2.93c-0.693,0.391-1.349,0.862-2.015,1.236c-2.76,1.547-6.014,2.705-9.521,3.57
		c-0.88,0.218-1.713,0.494-2.609,0.688c-0.878,0.188-1.742,0.429-2.655,0.595c-0.887,0.161-1.798,0.41-2.701,0.595
		c-3.519,0.721-7.395,1.424-11.17,1.923c-0.467,0.062-0.992,0.096-1.464,0.183C10.795,46.728,10.27,46.992,9.909,46.609z"/>
	<path style="fill-rule:evenodd;clip-rule:evenodd;" d="M2.859,43.908c1.768-0.209,3.034,0.929,3.434,2.289
		c0.516,1.759-0.47,3.576-1.877,4.12c-1.684,0.65-3.322-0.276-3.983-1.465C-0.732,46.757,0.581,44.093,2.859,43.908z"/>
	<path style="fill-rule:evenodd;clip-rule:evenodd;" d="M9.679,47.982c0.4-0.503,1.167-0.427,1.74-0.458
		c3.372-0.18,6.857-0.289,10.346-0.503c1.437-0.089,2.955-0.238,4.212-0.275c0.506-0.015,1.029,0.13,1.556,0.138
		c0.764,0.012,1.549-0.063,2.335-0.046c2.241,0.047,4.595-0.01,6.867,0.229c1.572,0.165,3.016,0.26,4.395,0.503
		c1.308,0.231,2.609,0.659,3.708,1.145c1.819,0.804,3.61,1.956,5.081,3.113c1.587,1.248,3.057,2.404,4.486,3.708
		c1.372,1.251,2.926,2.439,4.304,3.891c0.619,0.652,1.33,1.33,2.06,2.06c0.588,0.588,1.657,1.517,1.831,2.243
		c0.397,1.657-0.823,1.673-2.105,1.968c-2.218,0.512-4.729,0.835-7.142,1.008c-0.462,0.033-1.08-0.026-1.511,0
		c-1.826,0.11-3.781,0.389-5.631,0.32c-1.927-0.071-3.722-0.169-5.265-0.642c-1.816-0.555-3.435-1.767-4.669-3.066
		c-1.272-1.341-2.268-2.875-3.342-4.35c-1.849-2.536-4.062-4.963-6.821-6.684c-0.396-0.246-0.719-0.604-1.099-0.823
		c-0.688-0.398-1.572-0.762-2.426-1.099c-2.002-0.79-4.742-1.205-7.279-1.694c-1.263-0.243-2.537-0.211-3.936-0.275
		C10.839,48.37,10.049,48.624,9.679,47.982z"/>
</g>
<g id="Layer_1">
</g>
</svg>
