<?xml version="1.0" encoding="iso-8859-1"?>
<!-- Generator: Adobe Illustrator 21.0.2, SVG Export Plug-In . SVG Version: 6.00 Build 0)  -->
<svg version="1.1" xmlns="http://www.w3.org/2000/svg" xmlns:xlink="http://www.w3.org/1999/xlink" x="0px" y="0px"
	 viewBox="0 0 18.712 16.041" style="enable-background:new 0 0 18.712 16.041;" xml:space="preserve">
<g id="RAI_x5F_69">
	<path d="M9.032,0.738C9.181,0.493,9.318,0.24,9.476,0c0.09,0.12,0.155,0.257,0.232,0.385c2.267,3.935,4.531,7.871,6.797,11.806
		c0.736,1.277,1.467,2.556,2.207,3.83c-0.217,0.025-0.44,0.027-0.657-0.002c-0.541-0.97-1.108-1.926-1.657-2.891
		c-1.14-1.98-2.282-3.959-3.419-5.94c-1.171-2.025-2.329-4.056-3.504-6.078C9.413,1.181,9.372,1.265,9.325,1.345
		c-2.884,4.884-5.769,9.767-8.651,14.651c-0.034,0.058-0.114,0.037-0.169,0.042C0.336,16.033,0.166,16.052,0,16.017
		c0.284-0.446,0.541-0.909,0.815-1.362C3.552,10.015,6.295,5.378,9.032,0.738z"/>
	<path d="M9.443,2.226c0.022,0,0.045,0.001,0.067,0.002c0.564,1.007,1.15,2.003,1.723,3.006c2.069,3.595,4.136,7.192,6.206,10.786
		c-0.213,0.031-0.433,0.026-0.647,0.002c-2.427-4.218-4.855-8.434-7.278-12.654C9.499,3.359,9.466,3.341,9.45,3.331
		c-2.438,4.131-4.878,8.262-7.317,12.392c-0.056,0.1-0.119,0.194-0.168,0.297c-0.219,0.006-0.439,0.009-0.658-0.002
		c2.56-4.332,5.117-8.666,7.677-12.998C9.132,2.753,9.301,2.497,9.443,2.226z"/>
	<path d="M8.908,5.352c0.189-0.316,0.365-0.639,0.567-0.947c0.098,0.128,0.172,0.273,0.252,0.413
		c1.628,2.805,3.258,5.61,4.885,8.417c0.043,0.08,0.102,0.153,0.123,0.242c-0.444,0.019-0.89,0.003-1.335,0.008
		c-2.066,0-4.132-0.001-6.198,0.001c-0.45,0.766-0.903,1.531-1.355,2.296c-0.048,0.082-0.09,0.17-0.153,0.241
		c-0.042,0.021-0.092,0.013-0.137,0.016c-0.168-0.004-0.338,0.011-0.505-0.02c0.626-1.038,1.235-2.088,1.853-3.131
		c0.688-1.164,1.375-2.329,2.063-3.493c0.156-0.281,0.336-0.547,0.482-0.833C9.46,8.56,9.484,8.557,9.496,8.555
		c0.291,0.52,0.597,1.032,0.891,1.55c0.221,0.375,0.43,0.757,0.659,1.127c-0.046,0.011-0.093,0.026-0.141,0.025
		c-0.795,0.001-1.591-0.003-2.386,0.002c-0.111,0.175-0.21,0.357-0.315,0.536c1.235,0.002,2.47,0.003,3.705,0
		c-0.575-1.018-1.17-2.024-1.75-3.038c-0.233-0.389-0.448-0.79-0.686-1.175C9.28,7.878,9.108,8.189,8.926,8.493
		c-1.451,2.455-2.899,4.912-4.35,7.368c-0.048,0.067-0.074,0.186-0.178,0.176c-0.19-0.004-0.382,0.015-0.571-0.018
		c1.755-2.958,3.498-5.924,5.249-8.884c0.126-0.223,0.265-0.438,0.386-0.664c0.023,0.025,0.048,0.05,0.068,0.078
		c0.872,1.509,1.744,3.019,2.617,4.528c0.242,0.428,0.499,0.847,0.731,1.28c-1.342,0.007-2.684,0.001-4.026,0.003
		c-0.316-0.051-0.638-0.013-0.957-0.026c-0.133,0.185-0.245,0.386-0.351,0.587c2.07,0.003,4.14,0,6.21,0.001
		c-0.009-0.033-0.012-0.069-0.029-0.099c-1.406-2.417-2.808-4.837-4.213-7.254C9.498,5.559,9.465,5.54,9.449,5.53
		c-1.179,2.012-2.37,4.016-3.554,6.025c-0.872,1.477-1.743,2.954-2.616,4.43c-0.027,0.062-0.105,0.05-0.16,0.053
		c-0.171-0.005-0.343,0.012-0.511-0.018C4.707,12.464,6.807,8.907,8.908,5.352z M8.862,10.691c0.354,0.005,0.708,0,1.062,0.002
		c0.05,0.003,0.1-0.006,0.146-0.026C9.861,10.334,9.685,9.981,9.47,9.652C9.263,9.995,9.049,10.337,8.862,10.691z"/>
</g>
<g id="Layer_1">
</g>
</svg>
