<?xml version="1.0" encoding="iso-8859-1"?>
<!-- Generator: Adobe Illustrator 19.2.0, SVG Export Plug-In . SVG Version: 6.00 Build 0)  -->
<svg version="1.1" xmlns="http://www.w3.org/2000/svg" xmlns:xlink="http://www.w3.org/1999/xlink" x="0px" y="0px"
	 viewBox="0 0 78.856 53.066" style="enable-background:new 0 0 78.856 53.066;" xml:space="preserve">
<g id="Rakennuspuusepanteollisuus">
	<path style="fill-rule:evenodd;clip-rule:evenodd;" d="M47.362,0c1.172,0.547,2.939,1.735,4.074,2.445
		c1.365,0.854,2.686,1.714,3.931,2.492c0.66,0.414,1.256,0.928,1.918,1.343c7.186,4.507,14.513,9.223,21.571,13.806
		c-0.799,0.916-1.938,1.453-2.973,2.109c-1.021,0.647-2.009,1.384-3.067,1.965c-6.04,4.075-12.446,7.783-18.312,12.032
		c-0.087,4.09-0.049,8.521-0.048,12.751c0,1.392,0.144,2.754-0.097,4.027c-1.06-0.407-1.977-1.095-2.924-1.678
		c-4.678-2.881-9.316-5.935-13.998-8.917c-1.863-1.188-3.657-2.5-5.656-3.499c-0.328,0.463-0.149,1.087-0.144,1.63
		c0.044,4.162-0.018,8.465-0.096,12.56c-0.786-0.202-1.434-0.742-2.109-1.15c-3.312-2.004-6.572-4.261-9.875-6.328
		c-1.328-0.831-2.568-1.754-3.883-2.589c-4.61-2.93-9.096-6.006-13.806-8.868C1.225,33.739,0.527,33.349,0,32.789
		c0.325-0.529,0.937-0.79,1.438-1.102c4.595-2.868,9.253-5.954,13.901-8.868c2.035-1.275,4.02-2.667,6.088-3.978
		c1.019-0.647,2.116-1.204,2.973-2.062c0.075-5.433-0.128-11.594,0.048-16.682c0.586-0.003,0.99,0.473,1.438,0.767
		c3.216,2.109,6.591,4.122,9.874,6.232c2.799,1.798,5.601,3.572,8.438,5.369c0.935,0.592,1.801,1.338,2.876,1.678
		c0.271-0.507,0.124-1.127,0.144-1.678c0.094-2.658,0-5.656,0-8.725c0-1.218-0.039-2.489,0.049-3.595
		C47.264,0.062,47.302,0.02,47.362,0z M54.888,13.998c-0.087,0.973-0.047,2.06-0.048,3.163c0,2.153,0.001,4.354,0,6.424
		c0,1.054-0.071,2.1,0.192,3.021c0.949-0.3,1.677-1.024,2.492-1.534c1.678-1.049,3.313-2.124,4.938-3.212
		c0.807-0.54,1.741-0.943,2.349-1.726c-1.454-1.15-3.114-2.107-4.793-3.212c-0.729-0.479-1.584-0.986-2.445-1.534
		c-0.704-0.448-1.776-1.283-2.54-1.533C54.963,13.881,54.915,13.929,54.888,13.998z M32.022,14.094
		c-0.047,4.093-0.162,8.749,0.096,12.56c0.511,0.012,0.947-0.377,1.342-0.623c2.12-1.321,4.205-2.694,6.28-4.027
		c0.821-0.527,1.708-1.037,2.349-1.774c-0.692-0.643-1.532-1.13-2.349-1.678c-1.662-1.113-3.233-2.02-4.985-3.115
		c-0.69-0.433-1.855-1.316-2.637-1.486C32.051,13.963,32.063,14.055,32.022,14.094z M24.017,36.72c0.001-2.524,0.037-5.552,0-7.766
		c-0.01-0.633,0.222-2.845-0.527-2.397c-1.529,0.915-3.273,2.052-4.794,3.068c-1.218,0.759-2.329,1.498-3.595,2.301
		c-0.276,0.176-1.073,0.587-1.055,0.911c0.019,0.307,0.794,0.631,1.151,0.863c2.519,1.64,4.894,3.275,7.334,4.842
		c0.423,0.271,0.873,0.592,1.342,0.622C24.131,38.468,24.017,37.602,24.017,36.72z M46.451,26.653
		c-1.605,0.79-2.943,1.902-4.794,3.067c-1.211,0.763-2.385,1.508-3.595,2.302c-0.386,0.253-1.115,0.587-1.102,0.91
		c0.012,0.326,0.816,0.66,1.15,0.863c2.533,1.544,4.937,3.197,7.382,4.697c0.39,0.239,0.788,0.64,1.295,0.623
		c0.174-2.934,0.096-6.348,0.096-9.396c0-1.055,0.112-2.122-0.144-3.067c-0.032,0-0.064,0-0.097,0
		C46.677,26.592,46.447,26.654,46.451,26.653z"/>
</g>
<g id="Layer_1">
</g>
</svg>
