<?xml version="1.0" encoding="iso-8859-1"?>
<!-- Generator: Adobe Illustrator 19.2.0, SVG Export Plug-In . SVG Version: 6.00 Build 0)  -->
<svg version="1.1" xmlns="http://www.w3.org/2000/svg" xmlns:xlink="http://www.w3.org/1999/xlink" x="0px" y="0px"
	 viewBox="0 0 76.089 76.226" style="enable-background:new 0 0 76.089 76.226;" xml:space="preserve">
<g id="Ravuron_x5F_75">
	<path style="fill-rule:evenodd;clip-rule:evenodd;" d="M16.012,0.114c0.269,19.953-0.174,39.67,0.146,59.54
		c4.957,0.266,10.543-0.084,16.327,0.098c4.765,0.15,9.576,0.072,14.274,0.098c0.697,0.004,1.474,0.066,2.004-0.049
		c0.345-0.075,0.842-0.647,1.124-0.929c0.733-0.733,1.168-1.266,1.956-2.053c0.288-0.287,0.916-0.759,0.929-1.075
		c0.015-0.381-0.646-0.89-0.929-1.173c-0.408-0.408-0.791-0.716-1.076-1.026c-0.726-0.793-1.265-1.513-2.15-2.004
		c-4.044-0.065-8.009-0.049-12.123-0.049c-4.029,0-8.169,0.023-12.123-0.196c-0.264-1.013-0.147-2.092-0.147-3.128
		c0-15.013,0.049-29.685,0.049-44.972c0-1.018-0.112-2.074,0.146-3.08c4.965-0.141,10.696-0.134,15.691,0.098
		c0.302,11.435-0.103,23.771,0.196,35.391c1.212,0.266,2.5,0.147,3.812,0.147c2.612,0,5.169,0,7.919,0
		c1.332,0,2.79-0.197,3.91,0.049c0.529,0.116,0.941,0.653,1.418,1.124c5.531,5.465,10.902,10.69,16.375,16.327
		c0.382,0.393,0.721,0.81,1.173,1.369c0.342,0.422,1.163,0.947,1.173,1.32c0.018,0.644-0.899,0.877-1.173,1.369
		c-3.029,3.277-6.232,6.379-9.385,9.532c-2.36,2.36-4.712,4.712-7.088,7.088c-0.775,0.775-1.535,1.62-2.444,2.249
		c-18.357,0.121-37.683-0.004-55.825-0.098c-0.228-6.089-0.114-12.405-0.146-18.771C-0.054,41.528,0.075,25.724,0.075,9.304
		c0-2.342-0.05-4.743,0-7.039C0.09,1.598,0.031,0.308,0.271,0.114C0.307,0.068,0.36,0.04,0.418,0.016
		C5.55,0.081,10.966-0.113,16.012,0.114z"/>
</g>
<g id="Layer_1">
</g>
</svg>
