<?xml version="1.0" encoding="iso-8859-1"?>
<!-- Generator: Adobe Illustrator 19.2.0, SVG Export Plug-In . SVG Version: 6.00 Build 0)  -->
<svg version="1.1" xmlns="http://www.w3.org/2000/svg" xmlns:xlink="http://www.w3.org/1999/xlink" x="0px" y="0px"
	 viewBox="0 0 80.052 80.61" style="enable-background:new 0 0 80.052 80.61;" xml:space="preserve">
<g id="Raymond_x5F_Chabot_x5F_Martin_x5F_Pare_x5F_and_x5F_Associates">
	<path style="fill-rule:evenodd;clip-rule:evenodd;" d="M67.801,0.405c0.102,1.009-0.223,1.998-0.342,2.983
		c-0.361,2.973-1.004,5.938-1.516,8.948c-1.674,9.845-3.395,19.874-5.134,29.828c-0.171,0.979-0.383,2.01-0.538,2.983
		c-0.161,1.015-0.279,2.024-0.587,2.885c-0.333,0.933-2.064,1.673-3.129,2.298c-2.181,1.281-4.149,2.442-6.308,3.667
		c-3.162,1.793-6.323,3.665-9.535,5.427c-2.14,1.174-4.146,2.559-6.21,3.765c-1.055,0.617-2.128,1.193-3.178,1.81
		c-1.144,0.67-2.202,1.11-3.765,1.222c-2.813,0.202-5.875,0.584-9.095,0.88c-4.421,0.406-9.042,0.86-13.642,1.32
		c-1.527,0.152-3.062,0.384-4.548,0.244c-0.38-0.577-0.244-1.316-0.244-1.956c0-16.66,0.129-33.542,0.049-49.387
		C0.054,12.58,0.029,7.478,0.029,2.263c0-0.724-0.041-1.705,0.195-1.956c0.338-0.359,2.111-0.195,3.032-0.195
		c7.311,0,14.923-0.027,22.151-0.098C32.44-0.055,39.621,0.16,46.775,0.16c6.072,0,12.264,0,18.581,0
		C66.158,0.16,67.064-0.017,67.801,0.405z"/>
	<path style="fill-rule:evenodd;clip-rule:evenodd;" d="M79.781,0.356c0.39,0.809,0.245,3.46,0.245,4.89
		c-0.002,24.285,0,48.436,0,72.857c-0.001,0.949,0.062,2.033-0.196,2.298c-0.277,0.286-1.544,0.196-2.347,0.196
		c-26.158,0.001-51.065-0.035-77.161-0.196c-0.459-0.46-0.293-2.358-0.293-3.472c0-1.287-0.057-2.44,0.195-3.227
		c0.688-0.39,1.528-0.354,2.298-0.44c7.182-0.809,14.821-1.469,22.053-2.298c1.699-0.195,3.41-0.182,4.89-0.538
		c1.311-0.315,2.465-1.048,3.667-1.76c1.179-0.698,2.364-1.334,3.423-1.956c2.245-1.319,4.501-2.711,6.797-4.059
		c2.259-1.326,4.518-2.673,6.797-4.009c2.172-1.274,4.538-2.521,6.943-3.912c1.066-0.616,2.213-1.349,3.423-2.005
		c1.119-0.606,2.937-1.393,3.325-2.347c0.181-0.446,0.172-1.021,0.294-1.565c0.765-3.434,1.353-7.412,2.005-10.953
		c1.925-10.459,3.631-21.141,5.574-31.49c0.199-1.057,0.383-2.129,0.538-3.178c0.145-0.981,0.247-2.025,0.782-2.885
		c0.987-0.192,2.457-0.181,3.716-0.147C77.792,0.189,78.839,0.126,79.781,0.356z"/>
</g>
<g id="Layer_1">
</g>
</svg>
