<?xml version="1.0" encoding="iso-8859-1"?>
<!-- Generator: Adobe Illustrator 19.2.0, SVG Export Plug-In . SVG Version: 6.00 Build 0)  -->
<svg version="1.1" xmlns="http://www.w3.org/2000/svg" xmlns:xlink="http://www.w3.org/1999/xlink" x="0px" y="0px"
	 viewBox="0 0 43.596 78.166" style="enable-background:new 0 0 43.596 78.166;" xml:space="preserve">
<g id="raymond_x5F_lee_x5F_and_x5F_associates">
	<path style="fill-rule:evenodd;clip-rule:evenodd;" d="M21.35,0.163c0.31,0.721,0.189,1.568,0.189,2.366
		c0,5.499,0.09,11.84-0.142,17.323c-1.162,0.41-2.359,0.315-3.455,0.568c-5.248,1.213-9.499,3.982-12.638,7.384
		c-0.981,1.063-1.802,2.14-2.556,3.455c-0.213,0.372-0.361,0.885-0.805,1.089C2.316,24.295,3.041,16.042,3.6,7.972
		c0.14-2.022,0.251-4.051,0.426-6.105C4.077,1.267,4,0.586,4.357,0.068C9.988,0.011,15.958-0.073,21.35,0.163z"/>
	<path style="fill-rule:evenodd;clip-rule:evenodd;" d="M39.478,0.209c0.339,1.156,0.343,2.4,0.426,3.598
		c0.257,3.736,0.485,7.559,0.71,11.359c0.296,5.021,0.763,10.041,1.041,15.052c0.559,10.087,1.497,20.158,1.941,30.15
		c-0.468,0.449-1.148,0.573-1.704,0.758c-1.833,0.607-3.508,1.288-5.159,2.13c-5.246,2.674-9.595,6.733-12.638,11.69
		c-0.304,0.496-0.62,0.992-0.899,1.515c-0.252,0.47-0.355,1.134-0.899,1.42c-0.259-0.588-0.142-1.283-0.142-1.894
		c0-10.077-0.064-20.204,0.047-29.961c1.073-0.555,2.273-0.471,3.36-0.71c6.358-1.396,11.247-5.138,14.531-9.75
		c0.555-0.779,1.166-1.612,1.42-2.603c-0.683-1.968-1.945-3.481-3.171-4.922c-1.235-1.453-2.768-2.638-4.259-3.834
		c-2.778-1.932-5.847-3.472-10.129-4.07c-0.584-0.082-1.45-0.086-1.657-0.332c-0.262-0.311-0.142-1.588-0.142-2.366
		c0-5.008-0.028-10.01,0.047-14.957c0.012-0.775-0.121-1.581,0.094-2.273C22.739,0.014,23.471,0.031,24,0.021
		C28.931-0.074,34.525,0.181,39.478,0.209z"/>
	<path style="fill-rule:evenodd;clip-rule:evenodd;" d="M21.018,20.326c0.476-0.008,1.158-0.074,1.704-0.047
		c1.53,0.076,3.123,0.555,4.307,1.088c1.536,0.693,2.675,1.716,3.739,2.888c1.006,1.108,1.993,2.252,2.603,3.977
		c0.46,1.301,0.802,2.791,0.71,4.307c-0.033,0.539,0.083,1.071,0.047,1.562c-0.141,1.914-0.836,3.792-1.656,5.159
		c-2.089,3.483-5.403,6.072-10.792,6.153c-3.259,0.05-5.717-1.265-7.573-2.65c-1.263-0.942-2.413-2.191-3.219-3.597
		c-0.786-1.372-1.52-3.237-1.657-5.112c-0.234-3.223,0.602-5.812,1.752-7.62c1.593-2.506,3.97-4.503,7.147-5.585
		C18.98,20.558,19.795,20.347,21.018,20.326z"/>
	<path style="fill-rule:evenodd;clip-rule:evenodd;" d="M21.397,45.98c0.26,1.305,0.095,2.795,0.095,4.165
		c0,9.26,0.155,18.711-0.095,28.021c-0.52-0.141-0.667-0.897-0.947-1.42c-0.827-1.545-1.884-2.987-2.935-4.402
		c-2.771-3.73-6.276-6.769-10.602-8.993c-1.089-0.559-2.177-1.13-3.361-1.562c-1.152-0.42-2.388-0.736-3.55-1.325
		c-0.031-2.25,0.195-4.518,0.331-6.815c0.397-6.723,1.029-13.746,1.514-20.495c0.041-0.038,0.028-0.13,0.095-0.143
		c0.039,0.01,0.047,0.048,0.095,0.048c2.747,5.336,7.088,9.021,12.874,11.359c1.452,0.587,3.094,0.983,4.828,1.231
		C20.278,45.726,20.872,45.706,21.397,45.98z"/>
</g>
<g id="Layer_1">
</g>
</svg>
