<?xml version="1.0" encoding="iso-8859-1"?>
<!-- Generator: Adobe Illustrator 19.2.0, SVG Export Plug-In . SVG Version: 6.00 Build 0)  -->
<svg version="1.1" xmlns="http://www.w3.org/2000/svg" xmlns:xlink="http://www.w3.org/1999/xlink" x="0px" y="0px"
	 viewBox="0 0 75.735 25.725" style="enable-background:new 0 0 75.735 25.725;" xml:space="preserve">
<g id="Redi-Mix_x5F_Associates">
	<path style="fill-rule:evenodd;clip-rule:evenodd;" d="M75.351,0.223c0.248,0.528,0.151,1.103,0.151,1.662
		c-0.001,4.137,0.201,9.039,0.201,13.702c0,0.641-0.028,1.303,0,1.965c0.03,0.692,0.071,1.443-0.05,1.965
		c-0.162,0.697-0.814,1.134-1.311,1.663c-1.018,1.083-1.943,1.923-2.922,2.972c-0.459,0.492-0.982,1.196-1.561,1.36
		c-0.727,0.205-1.841,0-2.922,0c-0.674,0-2.377,0.25-2.822-0.151c-0.449-0.406,0.061-1.638-0.402-2.116
		c-1.184,0.089-1.651,1.94-2.67,2.268c-0.682,0.22-1.965,0.05-3.022,0.05c-2.187,0-3.769,0-6.046,0c-0.799,0-2.414,0.256-2.82-0.101
		c-0.473-0.414-0.006-1.539-0.504-1.713c-1.01,0.064-1.211,1.492-2.268,1.813c-0.818,0.25-2.047,0.05-3.022,0.051
		c-1.026,0-2.062,0.192-2.821-0.151c-0.209-3.284-0.313-7.267-0.302-10.881c0.003-1.119,0.313-2.419-0.403-3.124
		c-0.347-0.096-0.756-0.077-0.957,0.051c-0.647,0.413-0.223,2.995-0.201,4.08c0.025,1.275,0.209,3.208,0,4.231
		c-0.12,0.589-0.801,1.153-1.26,1.612c-1.002,1.003-1.836,1.83-2.821,2.871c-0.374,0.396-1.066,1.178-1.511,1.311
		c-0.734,0.22-1.885,0.051-2.871,0.051c-0.992,0-1.958,0.079-2.822-0.101c-0.318-0.468-0.201-1.137-0.201-1.763
		c0-1.814-0.082-3.804-0.15-5.542c-0.047-1.151,0.053-2.652,0-3.879c-0.049-1.11,0.259-3.036-0.907-2.922
		c-0.654,0.064-0.604,0.891-0.604,1.663c0,2.352,0.016,4.519,0.051,6.75c-0.668,1.195-1.824,1.951-2.721,2.922
		c-0.902,0.978-1.819,1.942-2.82,2.821c-1.92-0.062-4.092,0.128-5.845-0.101c-0.38-1.169-0.302-2.599-0.302-3.981
		c0-3.501-0.182-7.084-0.151-10.377c0.006-0.642,0.04-1.326-0.252-1.864c-1.44,0.264-1.209,1.648-1.209,3.325
		c0,0.798,0,1.621,0,2.367c0,1.583,0.333,3.393,0,4.685c-0.147,0.568-0.848,1.1-1.309,1.611c-0.529,0.587-1.041,1.042-1.461,1.461
		c-0.993,0.994-1.896,1.979-3.022,2.821c-1.038-0.019-2.114,0.002-3.174,0.051c-1.06,0.048-2.184,0.081-3.073-0.151
		c-0.267-1.455-0.15-3.043-0.15-4.685c-0.001-3.965-0.051-8.249-0.051-12.292c0-0.814-0.113-1.73,0.051-2.368
		c0.17-0.66,0.889-1.094,1.359-1.611c0.523-0.577,0.898-1.133,1.41-1.512c0.43-0.381,0.892-0.944,1.411-1.512
		c0.397-0.434,0.958-1.177,1.562-1.359c0.66-0.2,1.986-0.051,2.821-0.051c2.041,0,3.542,0.051,5.692,0.051
		c0.74,0,2.312-0.133,2.67,0.15c0.381,0.302,0.125,1.333,0.453,1.512c1.059-0.177,1.326-1.35,2.268-1.612
		c1.025-0.286,2.69,0,3.979,0c8.188,0.002,16.063-0.051,24.08-0.05c1.289,0,2.595-0.123,3.828,0.101
		c0.404,0.335,0.013,1.466,0.454,1.763c1.055-0.172,1.449-1.437,2.418-1.863c6.018-0.017,12.218-0.164,18.286-0.101
		C73.649,0.03,74.569-0.108,75.351,0.223z M14.396,0.676c-0.799-0.007-1.658,0.003-2.418,0c-1.69-0.005-3.925-0.277-5.391-0.1
		C5.539,0.702,4.446,2.187,3.766,2.893C3.382,3.29,2.993,3.715,2.606,4.102C2.231,4.478,1.632,4.813,1.6,5.411
		c0.232,0.334,0.707,0.202,1.058,0.202c3.014-0.001,6.308,0.057,8.967,0c1.269-1.017,2.314-2.265,3.426-3.376
		c0.37-0.369,0.883-0.739,0.957-1.31C15.589,0.536,14.923,0.681,14.396,0.676z M72.429,0.575c-4.285-0.001-8.943,0.055-13.047,0.05
		c-1.049-0.001-3.688-0.251-4.635,0.051c-0.387,0.123-0.978,0.787-1.26,1.058c-0.852,0.819-1.545,1.558-2.267,2.368
		c-0.329,0.369-0.872,0.714-0.958,1.36c1.433,0.328,3.035,0.201,4.686,0.201c4.096,0,8.152-0.05,12.241-0.05
		c0.86-0.001,1.81,0.124,2.419-0.051c0.426-0.123,0.857-0.625,1.259-1.058c0.855-0.921,1.489-1.539,2.267-2.368
		c0.358-0.382,0.915-0.741,0.957-1.36C73.626,0.437,72.974,0.575,72.429,0.575z M47.493,0.625c-5.032,0-9.482,0.051-14.408,0.051
		c-3.06,0-5.908,0-8.967,0c-1.125,0-3.514-0.254-4.383,0.101c-0.41,0.168-0.715,0.706-1.108,1.108
		c-0.854,0.876-1.453,1.51-2.217,2.317c-0.347,0.367-0.904,0.657-1.007,1.26c0.822,0.349,1.773,0.201,2.67,0.201
		c8.551,0.001,16.479-0.001,24.533,0c1.065,0,2.677,0.207,3.576-0.05c0.474-0.136,0.827-0.669,1.209-1.058
		c0.826-0.843,1.442-1.593,2.217-2.367c0.381-0.381,0.944-0.756,0.957-1.36C49.646,0.467,48.534,0.626,47.493,0.625z M67.189,6.217
		c-0.931,0.044-2.016,0.016-2.771,0.051c-3.627,0.169-7.575,0.051-11.234,0.051c-1.221,0-2.478-0.123-3.627,0.151
		c-0.152,4.374-0.051,9.227-0.05,13.853c0,1.571-0.121,3.136,0.151,4.584c0.768,0.345,1.76,0.252,2.721,0.251
		c1.941,0,3.951-0.05,5.893-0.05c0.969,0,1.991,0.113,2.721-0.302c0.086-1.336,0.295-3.325-0.051-4.635
		c-1.537-0.629-4.071,0.088-5.742-0.354c-0.27-1.933-0.151-4.515-0.151-6.649c0-0.761-0.112-1.539,0.151-2.166
		c2.77-0.13,6.264-0.175,9.068,0c0.396,1.766,0.252,4.293,0.252,6.901c0,1.065,0,2.272,0,3.577c0,0.985-0.279,2.771,0.201,3.274
		c0.478,0.502,1.678,0.164,2.468,0.201c0.962,0.046,1.95,0.148,2.519-0.201c0.326-1.849,0.232-4.094,0.202-6.146
		c-0.046-3.118-0.018-6.326-0.101-9.32c-0.027-0.981,0.087-1.976-0.201-2.871C68.895,6.216,68.016,6.178,67.189,6.217z M7.394,6.268
		c-2.24,0-4.586-0.044-6.55,0.151C0.579,7.109,0.692,7.887,0.692,8.636c0,3.957,0.001,8,0,11.889c0,1.539-0.098,3.09,0.201,4.483
		c0.757,0.256,1.865,0.198,2.872,0.201c0.849,0.003,1.724-0.001,2.368-0.201c0.4-0.964,0.284-2.191,0.252-3.375
		c-0.068-2.42-0.122-4.918-0.051-7.204c0.037-1.19-0.14-2.342,0.101-3.375c1.307-0.482,3.517,0.251,4.735-0.303
		c0.145-1.194,0.219-3.166-0.051-4.281C9.996,6.236,8.698,6.268,7.394,6.268z M38.323,6.318c-2.548-0.121-5.167,0.051-7.758,0.05
		c-4.676-0.001-9.125-0.05-13.701-0.05c-0.75,0-1.769-0.101-2.166,0.05c-0.837,0.318-0.357,3.303-0.353,4.383
		c0.014,4.061,0.201,8.366,0.101,11.989c-0.023,0.804,0,1.669,0.252,2.268c0.566,0.422,1.57,0.201,2.518,0.201
		c0.957,0,2.025,0.135,2.619-0.252c0.295-1.983-0.002-4.479,0.102-6.951c0.041-0.98-0.051-2.118-0.051-3.426
		c0-0.729-0.246-3.078,0.152-3.476c0.223-0.224,1.324-0.15,1.763-0.15c0.774,0,1.372,0.037,1.914,0.05
		c1.384,0.033,2.814-0.169,3.728,0.201c0.225,3.49,0.252,7.48,0.252,11.134c0,0.896-0.113,1.802,0.151,2.619
		c0.487,0.457,1.3,0.217,2.065,0.201c1.02-0.021,2.186,0.149,2.973-0.201c0.279-0.963,0.201-2.129,0.201-3.324
		c0-2.47-0.102-4.629-0.102-7.053c0-0.893-0.239-3.142,0.202-3.476c0.274-0.209,1.271-0.101,1.813-0.101
		c1.713,0,2.213-0.049,3.778,0c0.624,0.019,1.574-0.088,1.813,0.151c0.387,0.387,0.201,2.422,0.201,3.324
		c0,1.232,0.01,2.54,0.051,3.577c0.085,2.177-0.097,5.075,0.252,6.952c1.34,0.327,3.662,0.265,4.987-0.051
		c0.272-1.453,0.151-3.024,0.151-4.584c-0.001-3.16-0.051-6.264-0.051-9.319c0-1.647,0.148-3.247-0.201-4.584
		C43.47,6.12,40.915,6.442,38.323,6.318z M61.598,11.204c-0.349,0.014-0.946,0.128-1.108,0.403c-0.32,0.546-0.08,1.774,0.051,2.418
		c0.774,0.317,2.48,0.365,3.225-0.05c0.16-0.61,0.16-1.809,0-2.419C63.431,11.194,62.282,11.178,61.598,11.204z M61.145,14.933
		c-0.997,0.072-1.269,0.366-1.864,0.957c-0.366,0.363-0.736,0.764-1.008,1.058c-0.73,0.792-1.576,1.351-1.863,2.217
		c0.8,0.452,2.27,0.25,3.477,0.201c0.423-0.017,0.808,0.048,1.158-0.05c0.545-0.246,0.894-0.896,1.41-1.461
		c0.703-0.769,1.846-1.369,1.26-2.772C62.987,14.819,61.956,14.873,61.145,14.933z"/>
</g>
<g id="Layer_1">
</g>
</svg>
