<?xml version="1.0" encoding="iso-8859-1"?>
<!-- Generator: Adobe Illustrator 19.2.0, SVG Export Plug-In . SVG Version: 6.00 Build 0)  -->
<svg version="1.1" xmlns="http://www.w3.org/2000/svg" xmlns:xlink="http://www.w3.org/1999/xlink" x="0px" y="0px"
	 viewBox="0 0 54.685 70.979" style="enable-background:new 0 0 54.685 70.979;" xml:space="preserve">
<g id="Reese-Gesellschaft_x5F_Hameln">
	<path style="fill-rule:evenodd;clip-rule:evenodd;" d="M0.17,70.737c-0.259-1.338-0.145-2.869-0.145-4.35
		c0-13.379,0.023-26.707,0.097-40.258c0.042-7.928-0.09-15.801,0.048-24.309c0.015-0.932-0.244-1.691,0.773-1.789
		c0.901-0.086,1.86,0.029,2.803,0.049c6.405,0.127,13.205,0.047,19.573,0.049c7.551,0,13.368,1.539,17.93,4.494
		c2.332,1.51,4.361,3.156,6.09,5.172c3.395,3.955,5.694,9.359,6.766,15.658c0.542,3.184,0.58,6.707,0.58,10.633
		c0,14.978-4.468,25.434-13.871,31.027c-2.371,1.41-5.055,2.471-8.071,3.141c-3.081,0.684-6.574,0.725-10.487,0.725
		c-5.46,0-11.028-0.047-16.674-0.049c-0.921,0-1.838-0.008-2.754-0.047C1.942,70.844,1.027,71.026,0.17,70.737z M19.115,11.582
		c-3.735,1.283-6.202,3.777-7.732,7.057c-1.095,2.346-1.696,5.264-1.208,8.264c0.426,2.623,1.799,4.949,3.142,6.719
		c0.174,0.229,0.476,0.596,0.773,0.869c0.219,0.203,0.735,0.549,0.725,0.918c-0.008,0.314-0.627,0.84-0.918,1.16
		c-0.339,0.373-0.695,0.881-0.918,1.209c-1.736,2.553-3.122,5.297-3.19,9.424c-0.041,2.539,0.717,4.961,1.595,6.815
		c1.786,3.769,5.295,6.152,9.762,7.057c2.514,0.508,5.16,0.148,7.491-0.436c0.957-0.24,1.932-0.826,2.899-1.305
		c0.952-0.471,1.872-0.992,2.658-1.547c1.674-1.182,2.956-2.781,4.108-4.301c2.467-3.256,3.952-7.217,4.542-12.277
		c0.578-4.939,0.304-10.826-0.918-15.416c-0.31-1.164-0.55-2.273-0.967-3.238c-0.404-0.938-0.93-1.848-1.45-2.754
		c-1.979-3.455-5.01-6.271-8.989-7.83c-1.007-0.394-2.025-0.781-3.238-0.967c-1.227-0.188-2.792-0.299-4.012-0.242
		C21.78,10.832,20.341,11.16,19.115,11.582z"/>
	<path style="fill-rule:evenodd;clip-rule:evenodd;" d="M23.271,17.721c2.016-0.232,4.667,0.604,6.09,1.449
		c0.441,0.262,0.888,0.684,1.305,1.016c1.169,0.926,2.417,2.434,3.141,3.77c0.262,0.48,1.017,1.777,0.822,2.271
		c-0.177,0.447-1.371,0.541-1.788,0.627c-3.491,0.719-6.057,1.779-8.941,2.996c-0.492,0.209-1.116,0.412-1.691,0.726
		c-0.397,0.215-1.034,0.799-1.595,0.774c-0.497-0.024-1.14-0.908-1.402-1.209c-0.456-0.523-0.811-1.045-1.112-1.498
		c-0.674-1.016-1.354-2.438-1.401-3.77C16.547,20.592,19.527,18.151,23.271,17.721z"/>
	<path style="fill-rule:evenodd;clip-rule:evenodd;" d="M35.789,33.186c0.413,0.652,0.477,2,0.483,3.092
		c0.004,0.649-0.003,1.363-0.338,1.74c-2.282-0.147-4.732-0.703-6.766-1.4c-0.472-0.162-1.785-0.477-1.837-0.871
		c-0.062-0.471,1.163-0.801,1.547-0.967C30.854,33.93,33.184,33.074,35.789,33.186z"/>
	<path style="fill-rule:evenodd;clip-rule:evenodd;" d="M19.55,40c0.447-0.096,1.23,0.463,1.885,0.773
		c2.914,1.381,6.196,2.492,9.618,3.285c0.712,0.166,1.456,0.332,2.175,0.435c0.662,0.096,1.491-0.018,2.03,0.531
		c-0.108,1.258-0.616,2.418-1.257,3.383c-0.629,0.947-1.362,1.807-2.174,2.562c-1.707,1.586-3.505,2.9-6.38,3.092
		c-5.327,0.357-8.716-1.961-8.651-7.006c0.019-1.414,0.439-2.822,0.87-3.965c0.44-1.164,1.001-2.238,1.74-3.092
		C19.453,40,19.501,40,19.55,40z"/>
</g>
<g id="Layer_1">
</g>
</svg>
