<?xml version="1.0" encoding="iso-8859-1"?>
<!-- Generator: Adobe Illustrator 19.2.0, SVG Export Plug-In . SVG Version: 6.00 Build 0)  -->
<svg version="1.1" xmlns="http://www.w3.org/2000/svg" xmlns:xlink="http://www.w3.org/1999/xlink" x="0px" y="0px"
	 viewBox="0 0 78.099 39.885" style="enable-background:new 0 0 78.099 39.885;" xml:space="preserve">
<g id="Renault_x5F_Alpine">
	<path style="fill-rule:evenodd;clip-rule:evenodd;" d="M69.968,0.118c0.004,1.12-0.516,2.133-0.841,3.166
		c-1.621,5.152-3.253,10.274-4.899,15.438c-0.654,2.054-1.371,4.11-1.88,6.235c0.534,0.26,1.183,0.149,1.782,0.148
		c4.319-0.008,9.503,0.021,13.954,0.149c0.122,0.442-0.489,0.561-0.643,0.891c-1.982,1.828-3.876,3.744-6.037,5.394
		c-3.678,0.033-7.488-0.066-11.084,0.049c-0.496,0.519-0.573,1.285-0.792,1.979c-0.625,1.983-1.294,4.266-2.078,6.185
		c-1.055,0.07-2.205,0.053-3.365,0.099c-1.117,0.044-2.322,0.082-3.266-0.148c0.518-2.683,1.787-5.305,2.326-7.966
		c-0.665-0.351-1.492-0.198-2.227-0.198c-4.699,0-9.581,0-14.152,0c-0.855,0-1.683-0.163-2.276,0
		c-0.426,0.117-0.86,0.617-1.337,0.99c-2.629,2.056-5.03,4.073-7.719,6.185c-0.506,0.397-0.947,0.97-1.484,1.039
		c-1.589,0.205-3.415,0-5.196,0c-1.715,0-3.457,0.082-5.096-0.099c0.205-0.512,0.74-0.764,1.138-1.089
		c2.353-1.924,4.812-3.948,7.225-5.888c0.387-0.311,0.917-0.575,1.088-1.089c-1.853-0.31-3.807-0.099-5.74-0.099
		c-5.531,0-11.607,0.08-17.368-0.099c0.158-0.566,0.889-0.843,1.385-1.188c1.519-1.053,3.049-2.176,4.602-3.266
		c4.116-2.889,8.247-5.774,12.371-8.709c1.021-0.727,2.021-1.486,3.068-2.177c1.05-0.694,2.013-1.58,3.216-2.029
		c-0.754,1.921-1.785,3.633-2.722,5.394c-0.466,0.876-0.934,1.777-1.385,2.672c-0.455,0.902-1.012,1.767-1.287,2.771
		c0.912,0.333,1.993,0.198,3.018,0.198c3.052,0,6.041-0.014,9.204,0c2.767-1.868,5.167-4.212,7.818-6.284
		c6.549-5.122,12.956-10.307,19.545-15.587c0.582-0.466,1.246-1.053,1.93-1.583c0.681-0.528,1.456-1.182,2.029-1.534
		C65.055,0.018,67.787-0.078,69.968,0.118z M51.016,17.882c-2.486,2.027-5.075,4.044-7.521,6.037
		c-0.343,0.279-0.794,0.584-0.94,1.039c1.944,0.268,4.165,0.148,6.333,0.148c2.179,0,4.379,0.041,6.433-0.049
		c0.601-1.063,0.85-2.292,1.237-3.464c0.966-2.921,2.005-5.958,2.92-8.857c0.186-0.59,0.481-1.23,0.396-1.88
		c-0.033,0-0.066,0-0.099,0C56.769,13.111,53.896,15.501,51.016,17.882z"/>
</g>
<g id="Layer_1">
</g>
</svg>
