<?xml version="1.0" encoding="iso-8859-1"?>
<!-- Generator: Adobe Illustrator 19.2.0, SVG Export Plug-In . SVG Version: 6.00 Build 0)  -->
<svg version="1.1" xmlns="http://www.w3.org/2000/svg" xmlns:xlink="http://www.w3.org/1999/xlink" x="0px" y="0px"
	 viewBox="0 0 77.965 78.64" style="enable-background:new 0 0 77.965 78.64;" xml:space="preserve">
<g id="Rene_x5F_Gigandet">
	<path style="fill-rule:evenodd;clip-rule:evenodd;" d="M43.48,0.31c0.873,2.75,1.522,5.669,2.253,8.569
		c0.361,1.435,0.742,2.88,1.077,4.309c0.339,1.445,0.565,2.917,1.126,4.261c4.113,0.098,8.701,0.241,12.779,0.049
		c-0.033-1.076-0.382-2.11-0.636-3.135c-0.505-2.032-1.03-4.097-1.567-6.169c-0.266-1.027-0.576-2.064-0.636-3.134
		c0.561,0.087,1.061,0.454,1.518,0.734c3.183,1.947,6.126,4.383,8.568,7.148c0.693,0.785,1.303,1.689,1.959,2.547
		c4.474,5.846,7.755,13.466,8.03,23.405c0.15,5.426-1.017,10.821-2.84,15.13c-0.897,2.12-1.82,4.186-2.987,6.023
		c-5.722,9.011-14.185,15.974-26.882,18.019c-2.575,0.415-5.563,0.728-8.422,0.49c-2.693-0.225-5.213-0.675-7.688-1.274
		c-3.518-0.851-6.666-2.385-9.499-4.015c-4.806-2.766-8.496-6.288-11.85-10.577c-2.671-3.416-4.561-7.231-6.022-11.947
		c-1.407-4.539-2.189-10.22-1.519-15.963C1.495,24.08,6.114,16.651,12.142,10.74c3.105-3.044,6.676-5.384,10.724-7.247
		c3.131-1.44,6.431-2.455,10.381-3.084C36.293-0.076,40.267-0.155,43.48,0.31z M31.63,21.121c-3.292-0.088-7.132-0.035-10.576-0.049
		c-0.058,0.023-0.111,0.052-0.147,0.098c-0.309,0.193-0.357,1.049-0.489,1.665c-0.89,4.162-1.805,8.315-2.643,12.388
		c-0.488,2.372-1.057,4.712-1.519,7.052c-0.473,2.397-1.2,4.728-1.42,7.1c0.986,0.267,2.104,0.146,3.183,0.146
		c3.36,0,6.743,0.124,9.94,0c0.611-2.282,0.947-4.654,1.372-7.002c1.068-5.912,2.186-11.85,3.28-17.726
		c0.219-1.174,0.561-2.363,0.538-3.574C32.706,20.959,32.174,21.136,31.63,21.121z M35.352,21.17
		c-0.351,0.547-0.189,1.24-0.196,1.86c-0.021,2.032-0.049,4.009-0.049,6.024c0.002,6.864-0.001,13.748,0,20.174
		c0,1.332,0.119,2.688-0.146,3.966c-6.668,0.235-14.053-0.179-20.762,0.098c-0.374,0.826-0.468,1.764-0.636,2.693
		c-0.343,1.891-0.669,3.832-1.028,5.728c-0.183,0.96-0.476,1.92-0.393,2.89c5.573,0.205,11.46,0.195,17.334,0.195
		c2.945,0,5.901,0.05,8.814,0.05c2.9-0.001,5.767,0.039,8.52-0.148c0.224-6.844,0.147-14.126,0.147-21.496
		c0.001-7.376,0.081-14.829-0.098-21.985C43.223,21.009,38.926,21.143,35.352,21.17z M48.817,21.219
		c-0.217,0.318,0.154,1.434,0.294,2.057c2.182,9.71,4.413,19.312,6.659,28.841c0.157,0.666,0.255,1.36,0.588,1.958
		c4.062,0.248,8.938,0.2,13.074,0.05c0.012-1.161-0.422-2.235-0.686-3.33c-0.135-0.559-0.25-1.11-0.392-1.665
		c-0.154-0.601-0.181-1.19-0.294-1.811c-0.197-1.078-0.579-2.151-0.833-3.231c-1.663-7.086-3.586-14.353-5.337-21.3
		c-0.127-0.502-0.123-1.123-0.538-1.519c-3.987-0.191-8.245-0.112-12.389-0.146C48.907,21.144,48.853,21.173,48.817,21.219z"/>
</g>
<g id="Layer_1">
</g>
</svg>
