<?xml version="1.0" encoding="iso-8859-1"?>
<!-- Generator: Adobe Illustrator 19.2.0, SVG Export Plug-In . SVG Version: 6.00 Build 0)  -->
<svg version="1.1" xmlns="http://www.w3.org/2000/svg" xmlns:xlink="http://www.w3.org/1999/xlink" x="0px" y="0px"
	 viewBox="0 0 37.395 78.758" style="enable-background:new 0 0 37.395 78.758;" xml:space="preserve">
<g id="Republika_x5F_BG">
	<path style="fill-rule:evenodd;clip-rule:evenodd;" d="M37.364,0.174c0.096,26.381-0.043,52.12-0.245,78.498
		c-12.221,0.181-25.393,0.033-37.064-0.049c-0.18-25.47,0.145-50.792,0.147-76.338c0-0.731-0.155-1.568,0.196-2.258
		c10.894-0.06,21.563,0,32.548,0c0.776,0,1.539,0.015,2.308,0.049C35.953,0.106,36.681-0.045,37.364,0.174z M18.856,2.678
		c-5.045,0-11.049-0.141-16.004,0.049c-0.266,0.749-0.148,1.58-0.147,2.356c0,2.513-0.05,5.057-0.05,7.609
		c0,8.321-0.098,17.034-0.098,25.135c0,1.639-0.051,3.274,0.147,4.86c0.876-0.391,1.457-1.211,2.11-1.866
		c1.339-1.338,2.713-2.614,4.025-3.927c0.669-0.669,1.416-1.274,1.964-2.062c0.14-8.424-0.048-16.233,0.196-24.251
		c5.286-0.245,11.202-0.01,16.495-0.098c0.654-0.389,1.167-1.016,1.669-1.571c1.551-1.716,3.099-3.388,4.713-5.007
		c0.149-0.417,0.798-0.561,0.687-1.08C29.5,2.667,24.289,2.678,18.856,2.678z M27.202,11.367c-1.326,1.091-2.553,2.406-3.829,3.682
		c-3.039,3.039-6.146,6.048-9.131,9.033c-0.597,0.597-1.409,1.148-1.669,1.915c3.607,0.189,7.588,0.098,11.144,0.098
		c1.234,0,2.501,0.191,3.633-0.098c0.203-4.068,0.146-8.657,0.147-12.96c0-0.561,0.18-1.281-0.246-1.669
		C27.235,11.367,27.218,11.367,27.202,11.367z M20.378,35.716c-0.426,0.492-0.246,1.323-0.245,2.062c0,1.533-0.001,3.142,0,4.615
		c0,0.767,0.059,1.546-0.197,2.16C14.334,44.8,8.405,44.402,2.656,44.7C2.489,54.906,2.407,65.656,2.558,75.726
		c0.5-0.011,0.812-0.487,1.129-0.785c0.351-0.33,0.653-0.69,0.981-1.031c1.979-2.054,4.194-3.908,6.038-6.038
		c-0.006-3.918,0.05-7.954,0.05-11.88c0-1.302-0.114-2.622,0.146-3.829c5.416-0.178,11.091,0.111,16.348-0.147
		c0.331-2.569-0.05-5.516,0.196-8.199c0.466-0.794,1.212-1.359,1.866-2.013c1.627-1.627,3.311-3.276,4.86-4.909
		c0.288-0.305,0.767-0.601,0.785-1.081C30.288,35.634,25.094,35.668,20.378,35.716z M27.054,53.242
		c-0.058,0.024-0.11,0.052-0.146,0.098c-4.576,4.514-9.191,9.092-13.697,13.599c-0.305,0.305-0.796,0.571-0.785,1.08
		c3.522,0.178,7.538,0.098,11.192,0.098c1.226,0,2.472,0.161,3.584-0.098c0.241-4.212,0.148-8.834,0.148-13.107
		c0-0.595,0.184-1.428-0.245-1.669C27.087,53.242,27.071,53.242,27.054,53.242z"/>
</g>
<g id="Layer_1">
</g>
</svg>
