<?xml version="1.0" encoding="iso-8859-1"?>
<!-- Generator: Adobe Illustrator 19.2.0, SVG Export Plug-In . SVG Version: 6.00 Build 0)  -->
<svg version="1.1" xmlns="http://www.w3.org/2000/svg" xmlns:xlink="http://www.w3.org/1999/xlink" x="0px" y="0px"
	 viewBox="0 0 89.771 37.181" style="enable-background:new 0 0 89.771 37.181;" xml:space="preserve">
<g id="Ring_x5F_Railway_x5F_80">
	<path style="fill-rule:evenodd;clip-rule:evenodd;" d="M73.198,0.08c-0.192,0.517-0.744,0.744-1.151,1.051
		c-2.838,2.137-5.688,4.262-8.562,6.51c-2.341,1.83-5.056,3.477-7.41,5.507c-1.032,0.89-2.686,2.054-2.103,4.006
		c0.195,0.652,0.928,1.46,1.652,1.652c1.105,0.293,2.737,0.1,4.205,0.1c9.729,0.001,20.619-0.146,29.941,0
		c-0.178,0.458-0.631,0.762-1.002,1.052c-1.123,0.877-2.375,1.694-3.505,2.604c-1.095,0.879-2.241,1.756-3.454,2.653
		c-0.393,0.29-0.814,0.694-1.202,0.802c-1.019,0.279-2.762,0.05-4.005,0.05c-6.701-0.001-12.869,0.05-19.627,0.05
		c-2.776,0-5.475,0.088-7.26-0.751c-1.826-0.858-3.086-2.639-3.505-4.456c-0.526-2.283,0.284-4.605,1.401-6.158
		c1.934-2.686,4.91-4.364,7.56-6.358c0.344-0.259,0.821-0.573,0.901-1.052c-13.55-0.315-27.743,0.212-41.206-0.2
		c0.047-0.489,0.591-0.742,0.951-1.001c1.143-0.823,2.389-1.741,3.505-2.604c1.074-0.802,2.365-1.724,3.556-2.604
		c0.393-0.291,0.805-0.704,1.201-0.801c0.733-0.177,1.834,0,2.854,0c12.6,0,25.114-0.103,37.701-0.101
		C67.693,0.031,70.541-0.064,73.198,0.08z"/>
	<path style="fill-rule:evenodd;clip-rule:evenodd;" d="M33.545,29.921c0.793,0.272,1.676,0.149,2.504,0.149
		c12.301-0.002,26.287-0.165,39.002-0.1c-0.04,0.513-0.605,0.736-0.951,1.001c-2.622,2.006-5.416,4.166-8.161,6.108
		c-16.563-0.013-32.982,0.233-49.417,0c-0.027-0.532,0.736-0.696,1.052-1.052c3.128-2.286,6.193-4.573,9.362-6.959
		c1.496-1.126,3.133-2.179,4.757-3.404c1.437-1.086,3.538-2.302,4.056-4.106c0.445-1.555-0.619-2.818-1.803-3.154
		c-0.532-0.15-1.377-0.05-2.153-0.05c-4.948,0.001-9.955-0.05-14.97-0.05c-5.757,0-11.49-0.019-16.822-0.05
		c0.033-0.544,0.632-0.739,1-1.002c1.92-1.365,3.912-2.959,5.908-4.456c0.702-0.525,1.807-1.635,2.603-1.752
		c1.004-0.148,2.242,0.05,3.405,0.05c5.742,0,11.286,0.049,16.823,0.05c2.254,0.001,4.562-0.136,6.809,0
		c1.921,0.117,3.477,0.666,4.756,1.702c1.203,0.975,2.162,2.398,2.354,4.106c0.416,3.709-1.856,6.305-3.654,7.91
		c-1.037,0.926-2.21,1.674-3.305,2.453c-0.555,0.396-1.086,0.842-1.652,1.252C34.526,28.947,33.805,29.246,33.545,29.921z"/>
</g>
<g id="Layer_1">
</g>
</svg>
