<?xml version="1.0" encoding="iso-8859-1"?>
<!-- Generator: Adobe Illustrator 19.2.0, SVG Export Plug-In . SVG Version: 6.00 Build 0)  -->
<svg version="1.1" xmlns="http://www.w3.org/2000/svg" xmlns:xlink="http://www.w3.org/1999/xlink" x="0px" y="0px"
	 viewBox="0 0 83.28 82.458" style="enable-background:new 0 0 83.28 82.458;" xml:space="preserve">
<g id="Rising_x5F_Sun">
	<path style="fill-rule:evenodd;clip-rule:evenodd;" d="M83.129,0.351c0.268,13.562,0.099,26.977,0.101,40.964
		c0.002,13.609-0.025,27.28-0.101,40.863c-0.049,0.001-0.039,0.062-0.051,0.101c-0.504,0.139-1.682,0.211-2.107-0.05
		c-0.186-3.241-0.358-6.352-0.753-9.337c-0.578-4.363-1.53-8.494-2.712-12.399c-0.394-1.302-0.721-2.629-1.154-3.866
		c-2.561-7.312-6.198-13.897-10.441-19.729c-3.616-4.969-7.381-9.331-11.798-13.354c-2.596-2.364-5.411-4.611-8.434-6.627
		c-3.972-2.649-8.131-5.226-12.751-7.33c-4.595-2.092-9.644-3.826-15.06-5.07C13.8,3.584,9.515,2.807,4.865,2.46
		c-1.528-0.114-3.105,0-4.668-0.351C0.093,1.605-0.125,0.202,0.397,0c10.374-0.001,20.895,0.1,31.074,0.1
		C48.549,0.101,65.774,0.166,83.129,0.351z"/>
	<path style="fill-rule:evenodd;clip-rule:evenodd;" d="M75.247,82.279c-1.518,0.274-3.071,0.15-4.618,0.15
		c-7.746,0-15.512-0.1-23.494-0.1c-9.334-0.001-18.878-0.101-28.313-0.101c-5.525,0-10.996-0.05-16.517-0.05
		c-0.739,0-1.506,0.117-2.208-0.15c-0.096-12.301-0.052-24.951-0.051-37.4c0.001-6.285,0.166-12.458,0-18.424
		c-0.127-4.593,0.051-9.147,0.051-13.805c0-0.779,0-1.566,0-2.359c0-0.704-0.125-1.477,0.15-2.159
		c2.409-0.25,6.567,0.186,8.936,0.552c2.885,0.446,5.427,0.854,7.882,1.456c10.145,2.486,18.39,6.464,25.753,11.646
		c1.829,1.287,3.618,2.636,5.271,4.066c3.359,2.907,6.526,5.838,9.388,9.337c2.798,3.423,5.544,6.942,7.73,10.944
		c0.549,1.003,1.122,1.991,1.656,3.012c3.726,7.116,6.591,15.181,7.933,24.799C75.181,76.455,75.595,79.34,75.247,82.279z"/>
</g>
<g id="Layer_1">
</g>
</svg>
