<?xml version="1.0" encoding="iso-8859-1"?>
<!-- Generator: Adobe Illustrator 19.2.0, SVG Export Plug-In . SVG Version: 6.00 Build 0)  -->
<svg version="1.1" xmlns="http://www.w3.org/2000/svg" xmlns:xlink="http://www.w3.org/1999/xlink" x="0px" y="0px"
	 viewBox="0 0 52.151 78.639" style="enable-background:new 0 0 52.151 78.639;" xml:space="preserve">
<g id="roberts_x5F_dairy_x5F_company">
	<path style="fill-rule:evenodd;clip-rule:evenodd;" d="M21.656,0.012c0.433-0.134,0.302,0.916,0.302,1.457
		c0,8.294,0.159,17.136-0.05,25.169c-0.531-0.085-0.783-0.693-1.056-1.105c-1.939-2.933-3.617-7.151-3.617-11.855
		c0.001-4.071,0.953-7.884,2.513-10.802C20.319,1.805,20.981,0.693,21.656,0.012z"/>
	<path style="fill-rule:evenodd;clip-rule:evenodd;" d="M23.968,0.112c0.548,0.219,1.407,1.707,1.858,2.462
		c1.54,2.572,2.68,6.106,2.864,9.796c0.279,5.612-1.33,10.315-3.567,13.614c-0.322,0.476-0.621,1.036-1.155,1.257
		c-0.265-1.049-0.15-2.176-0.151-3.266c0-5.548,0.001-11.278,0-16.931c0-2.281-0.041-4.712,0.051-6.782
		C23.865,0.177,23.904,0.133,23.968,0.112z"/>
	<path style="fill-rule:evenodd;clip-rule:evenodd;" d="M29.494,44.322c-1.421,4.692-3.186,9.659-4.823,14.368
		c-0.234,0.674-0.566,1.432-0.653,2.059c-0.194,1.414,0,3.022,0,4.522c0,3.709,0,7.451,0,11.203c0,0.675,0.112,1.413-0.15,2.06
		c-0.286,0.133-0.871,0.147-1.155,0c-0.351-0.643-0.201-1.421-0.201-2.11c0-3.76-0.059-7.654,0-11.253
		c0.024-1.469-0.199-3.014,0-4.472c0.08-0.585,0.467-1.37,0.703-2.06c1.404-4.097,2.889-7.999,4.17-12.258
		c0.227-0.757,0.548-1.535,0.553-2.16c0.005-0.644-0.299-1.35-0.553-2.01c-0.708-1.842-1.347-3.935-1.959-5.728
		c-0.91-2.663-1.774-5.004-2.562-7.636c0.167-0.258,0.439-0.633,0.854-0.553c0.509,0.098,0.797,1.138,1.004,1.759
		C26.25,34.624,28.227,39.998,29.494,44.322z"/>
	<path style="fill-rule:evenodd;clip-rule:evenodd;" d="M26.681,43.266c-0.723,0.302-1.57,0.116-2.361,0.101
		c-7.71-0.151-16.497,0.34-24.265-0.101c0.002-0.52,0.728-0.741,1.105-1.055c2.955-2.035,7.246-3.667,12.106-3.667
		c4.884-0.001,9.226,1.586,12.259,3.616C25.953,42.448,26.544,42.759,26.681,43.266z"/>
	<path style="fill-rule:evenodd;clip-rule:evenodd;" d="M26.229,45.377c-0.062,0.44-0.547,0.723-0.904,0.954
		c-1.046,0.679-2.336,1.322-3.567,1.859c-1.718,0.749-3.726,1.283-5.727,1.558C9.997,50.574,4.213,48.714,0.606,46.13
		c-0.233-0.167-0.78-0.468-0.552-0.854c6.291,0.053,13.835-0.051,20.245-0.05C22.358,45.226,24.319,45.133,26.229,45.377z"/>
	<path style="fill-rule:evenodd;clip-rule:evenodd;" d="M52.151,59.846c-1.013,0.359-2.173,0.201-3.266,0.2
		c-7.343,0-14.671,0.051-22.155,0.051c-0.524,0-1.082,0.11-1.557-0.15c0.557-0.903,1.615-1.377,2.562-1.909
		c2.829-1.592,6.124-2.743,10.35-2.965c5.196-0.271,9.658,1.699,12.86,3.668C51.421,59.032,52.033,59.285,52.151,59.846z"/>
	<path style="fill-rule:evenodd;clip-rule:evenodd;" d="M52.101,61.755c-0.56,0.94-1.694,1.393-2.662,1.959
		c-2.843,1.665-6.396,3.015-10.802,3.015c-5.103-0.002-9.186-1.659-12.358-3.769c-0.448-0.298-0.996-0.542-1.205-1.055
		c0.331-0.351,0.9-0.201,1.306-0.201c5.668,0.001,11.715-0.05,17.684-0.05c1.541,0,3.205-0.024,4.572-0.051
		C49.765,61.582,51.057,61.511,52.101,61.755z"/>
</g>
<g id="Layer_1">
</g>
</svg>
