<?xml version="1.0" encoding="iso-8859-1"?>
<!-- Generator: Adobe Illustrator 19.2.0, SVG Export Plug-In . SVG Version: 6.00 Build 0)  -->
<svg version="1.1" xmlns="http://www.w3.org/2000/svg" xmlns:xlink="http://www.w3.org/1999/xlink" x="0px" y="0px"
	 viewBox="0 0 175.595 162.891" style="enable-background:new 0 0 175.595 162.891;" xml:space="preserve">
<g id="Robert_x5F_Campiche">
	<path style="fill-rule:evenodd;clip-rule:evenodd;" d="M175.222,0.107c0.309,7.414,0.093,15.253,0.099,22.812
		c0.006,7.625,0.283,15.368,0,22.959c-8.999,0.208-18.124,0.151-27.354,0.05c-0.01-0.04-0.05-0.049-0.049-0.099
		c-0.252-5.573,0.043-12.025-0.198-17.825c-0.044-0.022-0.088-0.043-0.099-0.099c-40.027-0.129-79.635-0.015-119.735,0.049
		c-0.112,0.036-0.147,0.148-0.197,0.247c-0.026,14.131,0.192,29.049,0,43.352c0.008,0.058-0.011,0.088-0.049,0.099
		C18.73,71.848,9.248,71.75,0.236,71.701c-0.058-0.074-0.062-0.202-0.148-0.247C0.118,47.626-0.08,24.213,0.038,0.402
		c-0.014-0.08,0.047-0.085,0.049-0.148c52.169-0.103,105.261-0.198,158.593-0.198C164.335,0.057,169.559-0.1,175.222,0.107z"/>
	<path style="fill-rule:evenodd;clip-rule:evenodd;" d="M175.37,80.243c0.066,3.902,0.302,7.946,0.147,12.047
		c-0.02,0.526-0.179,1.071-0.147,1.58c0.271,4.466,0.146,9.075,0.099,13.677c0.014,0.08-0.047,0.085-0.05,0.148
		c-1.468,0.307-2.954,0.085-4.443,0.148c-4.634,0.195-9.196,0-13.775,0c-42.662-0.003-86.246,0.1-129.166,0.148
		c-0.103,0.135-0.167,0.212-0.198,0.346c-0.196,0.865-0.046,2.266,0,3.357c0.127,3.016-0.088,6.415,0,9.628
		c0.129,4.699-0.08,9.402,0.148,13.578c0.67,0.303,1.416,0.152,2.123,0.148c5.287-0.028,10.733,0.05,16.245,0.05
		c42.736-0.004,85.763-0.178,128.968-0.099c0.08-0.014,0.085,0.047,0.148,0.049c0.141,9.127,0.173,18.821,0.049,27.552
		c-0.858,0.252-1.798,0.157-2.666,0.148c-4.343-0.046-9.167,0.05-13.677,0.049c-1.83,0-3.665-0.115-5.48-0.049
		c-3.576,0.129-7.251,0.218-10.863,0.049c-3.587-0.167-7.253,0-10.862,0c-43.942-0.002-87.655,0.165-131.585,0
		c-0.022-0.044-0.043-0.088-0.099-0.099c-0.212-13.214-0.022-27.837-0.148-41.476c-0.092-9.929,0-20.652,0-30.859
		c0-1.742,0.026-3.48,0-5.184c-0.025-1.631-0.159-3.258,0.099-4.839c14.338-0.248,28.672-0.076,42.907-0.049
		c14.139,0.026,28.22-0.099,42.413-0.099c28.678,0,57.148,0.024,86.16-0.049C172.73,80.141,174.274,80.065,175.37,80.243z"/>
</g>
<g id="Layer_1">
</g>
</svg>
