<?xml version="1.0" encoding="iso-8859-1"?>
<!-- Generator: Adobe Illustrator 21.0.2, SVG Export Plug-In . SVG Version: 6.00 Build 0)  -->
<svg version="1.1" xmlns="http://www.w3.org/2000/svg" xmlns:xlink="http://www.w3.org/1999/xlink" x="0px" y="0px"
	 viewBox="0 0 20.44 17.487" style="enable-background:new 0 0 20.44 17.487;" xml:space="preserve">
<g id="Robin_x5F_Industries">
	<path d="M0.681,1.043C0.797,0.588,1.152,0.232,1.546,0C1.494,0.173,1.322,0.261,1.194,0.371C0.89,0.637,0.705,1.044,0.74,1.45
		C0.734,1.743,0.856,2.015,0.987,2.27C1.59,2.087,2.191,1.893,2.803,1.742c0.349-0.111,0.698-0.223,1.051-0.324
		c0.471-0.151,0.98-0.211,1.469-0.122C6.189,1.4,6.972,1.863,7.612,2.438c0.424,0.38,0.737,0.859,1.059,1.323
		c0.433,0.714,0.693,1.512,0.998,2.284c0.224,0.539,0.424,1.089,0.667,1.62c0.367,0.741,0.742,1.483,1.211,2.167
		c0.269,0.376,0.531,0.763,0.873,1.077c0.337,0.359,0.708,0.683,1.095,0.986c0.587-0.357,1.136-0.773,1.644-1.236
		c0.505,0.344,1.045,0.644,1.626,0.837c-0.234,0.271-0.498,0.514-0.749,0.769c-0.228,0.205-0.474,0.392-0.701,0.599
		c0.284,0.108,0.569,0.216,0.866,0.285c0.517-0.498,0.975-1.052,1.446-1.592c0.526,0.258,1.063,0.503,1.636,0.636
		c-0.324,0.392-0.666,0.767-1.003,1.147c0.629-0.021,1.253-0.112,1.863-0.266c0.037,0.458,0.131,0.911,0.296,1.34
		c-0.237,0.049-0.473,0.105-0.707,0.165c-0.936,0.192-1.9,0.222-2.85,0.129c-0.531,0.499-1.125,0.926-1.724,1.341
		c-1.291,0.855-2.809,1.403-4.365,1.438c-1.014,0.011-2.035-0.129-3.006-0.426c-1.044-0.318-2.012-0.869-2.828-1.594
		c-0.178-0.138-0.329-0.307-0.47-0.482c-0.64-0.735-1.098-1.615-1.415-2.532C2.56,10.982,2.545,9.378,2.785,7.852
		C2.9,7.061,3.199,6.301,3.224,5.497C3.243,4.91,3.11,4.298,2.757,3.819C2.403,3.294,1.833,2.948,1.234,2.77
		C1.225,3.041,1.177,3.356,0.958,3.541C0.932,3.544,0.877,3.55,0.851,3.553c0.19-0.215,0.352-0.531,0.234-0.819
		c-0.325-0.025-0.67,0.001-0.943,0.2C0.088,2.796,0.045,2.654,0,2.513c0.295-0.075,0.594-0.131,0.883-0.23
		C0.69,1.903,0.576,1.466,0.681,1.043z M3.188,2.562c0.728,0.459,1.249,1.217,1.438,2.055C4.812,5.55,4.712,6.521,4.445,7.428
		C5.148,6.803,6.04,6.361,6.984,6.285c0.406,0.003,0.818,0.011,1.21,0.127C7.884,5.34,7.418,4.242,6.522,3.53
		c-0.39-0.334-0.85-0.575-1.32-0.776C4.562,2.518,3.861,2.453,3.188,2.562z M7.936,7.879C7.453,8.052,7.097,8.514,7.031,9.02
		C6.909,9.7,7.1,10.417,7.496,10.976c0.486,0.612,1.156,1.06,1.868,1.369c0.813,0.318,1.726,0.384,2.575,0.177
		c-0.353-0.359-0.688-0.736-1.016-1.118c-0.58-0.694-1.066-1.461-1.512-2.246C9.206,8.785,9.033,8.394,8.843,8.013
		C8.812,7.951,8.757,7.902,8.692,7.88C8.451,7.792,8.177,7.787,7.936,7.879z M4.674,9.797c-0.089,0.52-0.113,1.06-0.004,1.579
		c0.205,1.052,0.815,1.977,1.541,2.744c0.531,0.491,1.126,0.93,1.807,1.189c0.466,0.193,0.959,0.308,1.452,0.407
		c0.439,0.055,0.882,0.069,1.324,0.054c0.852-0.078,1.7-0.258,2.489-0.596c0.551-0.24,1.096-0.511,1.565-0.89
		c-0.362-0.123-0.711-0.279-1.056-0.444c-0.47,0.24-0.969,0.424-1.483,0.545c-0.729,0.176-1.487,0.155-2.228,0.09
		c-0.928-0.118-1.847-0.409-2.629-0.931c-0.441-0.311-0.865-0.658-1.197-1.087c-0.395-0.461-0.637-1.028-0.834-1.596
		C5.209,10.131,5.17,9.354,5.276,8.602C4.947,8.914,4.777,9.362,4.674,9.797z"/>
</g>
<g id="Layer_1">
</g>
</svg>
