<?xml version="1.0" encoding="iso-8859-1"?>
<!-- Generator: Adobe Illustrator 19.2.0, SVG Export Plug-In . SVG Version: 6.00 Build 0)  -->
<svg version="1.1" xmlns="http://www.w3.org/2000/svg" xmlns:xlink="http://www.w3.org/1999/xlink" x="0px" y="0px"
	 viewBox="0 0 80.8 70.324" style="enable-background:new 0 0 80.8 70.324;" xml:space="preserve">
<g id="Rockwell_x5F_International">
	<path style="fill-rule:evenodd;clip-rule:evenodd;" d="M39.084,0.014c0.853,0.058,1.941-0.121,2.629,0.102
		c0.572,10.067,0.757,20.098,1.062,30.429c0.193,6.561,0.762,13.147,3.285,17.59c0.611,1.076,1.43,2.096,2.174,3.084
		c3.332,4.427,6.681,8.93,10.261,13.344c0.336,0.414,1.121,1.169,1.062,1.517c-0.062,0.367-1.403,0.779-1.972,1.012
		c-4.843,1.972-10.526,3.235-17.286,3.234c-3.84,0-7.445-0.388-10.514-1.213c-3.144-0.846-6.06-1.707-8.543-3.185
		c0.214-0.603,0.67-1.088,1.062-1.567c2.703-3.313,5.211-6.938,7.886-10.361c1.521-1.948,3.222-3.866,4.398-6.066
		c1.233-2.309,1.95-4.849,2.476-7.935c1.004-5.89,0.703-13.103,1.011-19.864c0.258-5.65,0.429-11.69,0.657-17.591
		c0.027-0.709-0.015-2.149,0.202-2.426C38.97,0.068,39.024,0.038,39.084,0.014z"/>
	<path style="fill-rule:evenodd;clip-rule:evenodd;" d="M34.535,0.52c0.357,1.185,0.143,2.464,0.202,3.689
		c0.18,3.771,0.151,7.667,0.151,11.524c0.001,5.201,0.202,10.381-0.151,15.266c-0.371,5.126-2.91,7.059-5.965,9.553
		c-2.852,2.329-5.551,4.79-8.593,6.926c-3.869,3.021-7.678,6.104-11.726,8.946c-0.67-0.357-1.045-1.011-1.466-1.617
		c-3.489-4.595-6.288-9.748-6.874-16.934c-0.622-7.624,1.38-13.993,4.447-19.006C9.045,11.541,15.699,6.295,24.324,2.946
		c2.944-1.144,6.057-1.857,9.503-2.376C33.937,0.554,34.33,0.48,34.535,0.52z"/>
	<path style="fill-rule:evenodd;clip-rule:evenodd;" d="M46.11,0.52c7.251,0.824,13.251,3.237,18.399,6.47
		c2.439,1.531,4.712,3.567,6.773,5.661c2.082,2.115,3.948,4.507,5.357,7.076c2.801,5.106,5.075,12.22,3.791,20.37
		c-0.562,3.566-1.678,6.555-3.083,9.352c-1.374,2.732-3.062,5.231-5.105,7.279c-1.1-0.609-2.063-1.417-3.033-2.174
		c-0.971-0.759-1.928-1.544-2.83-2.376c-5.19-4.057-10.137-7.77-15.215-12.03c-1.684-1.412-3.265-2.93-4.246-4.802
		c-2.02-3.853-1.049-11.277-1.213-16.832c-0.088-2.972,0.005-6,0.051-8.946c0.045-2.955,0.05-6.008,0.202-8.896
		C45.987,0.598,46.038,0.547,46.11,0.52z"/>
</g>
<g id="Layer_1">
</g>
</svg>
