<?xml version="1.0" encoding="iso-8859-1"?>
<!-- Generator: Adobe Illustrator 19.2.0, SVG Export Plug-In . SVG Version: 6.00 Build 0)  -->
<svg version="1.1" xmlns="http://www.w3.org/2000/svg" xmlns:xlink="http://www.w3.org/1999/xlink" x="0px" y="0px"
	 viewBox="0 0 76.631 84.331" style="enable-background:new 0 0 76.631 84.331;" xml:space="preserve">
<g id="Rolf_x5F_Koller_x5F_67">
	<path style="fill-rule:evenodd;clip-rule:evenodd;" d="M3.234,0.125c0.221,13.589,0.154,27.491,0.153,41.94
		C3.386,55.842,3.567,70.233,3.335,84.21c-0.856,0.186-2.302,0.149-3.104-0.051c-0.224-6.955-0.092-13.943-0.152-20.92
		c-0.062-7.015-0.106-14.107,0-21.122c0.105-6.98-0.138-13.924,0-20.869c0.12-6.079-0.052-12.335-0.051-18.629
		c0-0.825-0.124-1.691,0.152-2.494C0.98-0.045,2.433-0.038,3.234,0.125z"/>
	<path style="fill-rule:evenodd;clip-rule:evenodd;" d="M73.576,0.431c0.451,0.045,0.8,0.596,1.222,1.018
		c0.267,0.267,1.007,0.779,1.019,1.12c0.012,0.376-0.927,1.079-1.171,1.323c-0.469,0.469-0.783,0.936-1.12,1.323
		c-2.266,2.611-5.175,5.059-7.38,7.431c-9.088,8.999-18.535,18.532-27.74,27.74c-0.432,0.432-1.718,1.465-1.73,1.935
		c-0.012,0.481,0.865,1.03,1.171,1.323c1.234,1.186,2.525,2.555,3.767,3.562c8.744,8.094,17.457,16.945,26.416,25.145
		c2.517,2.303,4.976,4.984,7.584,7.431c0.364,0.341,1.001,0.834,1.019,1.12c0.024,0.412-0.651,0.938-0.968,1.272
		c-0.281,0.299-0.722,1.015-1.17,1.018c-0.267,0.002-0.861-0.558-1.12-0.865c-0.906-1.075-1.944-2.073-2.901-2.953
		c-4.133-3.797-7.927-7.744-11.961-11.452c-5.499-5.054-10.596-10.252-15.982-15.27c-3.122-2.902-6.28-5.771-9.365-8.856
		c-0.316-0.316-1.21-0.953-1.222-1.374c-0.011-0.369,0.778-1.084,1.171-1.476c9.977-9.979,19.991-19.99,29.928-29.928
		C66.587,7.47,70.074,3.895,73.576,0.431z"/>
</g>
<g id="Layer_1">
</g>
</svg>
