<?xml version="1.0" encoding="iso-8859-1"?>
<!-- Generator: Adobe Illustrator 19.2.0, SVG Export Plug-In . SVG Version: 6.00 Build 0)  -->
<svg version="1.1" xmlns="http://www.w3.org/2000/svg" xmlns:xlink="http://www.w3.org/1999/xlink" x="0px" y="0px"
	 viewBox="0 0 77.156 76.831" style="enable-background:new 0 0 77.156 76.831;" xml:space="preserve">
<g id="Rosati_x5F_Club">
	<path style="fill-rule:evenodd;clip-rule:evenodd;" d="M47.02,52.453c0.528-0.075,0.949,0.31,1.436,0.495
		c1.392,0.528,3.077,1.045,4.904,0.842c0.266-2.112,0.149-4.695,0.149-7.133c-0.001-5.93,0.051-11.551,0.05-17.832
		c0-0.924,0.222-3.097-0.148-3.468c-0.433-0.433-2.153,0.014-2.774,0.148c-2.666,0.579-4.677,1.724-6.39,3.17
		c-0.864,0.54-1.306,1.502-2.23,1.981c-0.422-1.213,0.125-3.394-0.297-4.606c-0.26-0.101-0.585-0.123-0.892-0.05
		c-0.422,0.619-0.248,1.447-0.248,2.18c0.002,11.172-0.098,21.901-0.099,33.09c0,0.738-0.119,1.526,0.148,2.229
		c0.191,0.148,0.8,0.148,0.99,0c0.263-0.543,0.148-1.179,0.148-1.783c0.001-4.273-0.005-8.945,0.149-13.176
		c0.532,0.124,0.844,0.819,1.189,1.287c2.488,3.376,5.359,6.552,8.817,9.065c3.507,2.549,7.25,4.519,11.789,6.093
		c0.605,0.209,1.281,0.302,1.833,0.693c-0.03,0.752-0.935,1.042-1.338,1.585c-4.253,3.741-9.066,6.473-15.256,8.223
		c-6.162,1.742-14.201,1.827-20.508,0.05C19.748,73.084,12.356,67.802,7.59,61.17c-3.277-4.561-5.82-9.735-7.034-16.396
		c-0.625-3.436-0.722-7.331-0.297-10.946c0.807-6.864,3.27-12.382,6.39-17.041c1.477-2.205,3.333-4.46,5.399-6.34
		c3.136-2.851,6.465-5.218,10.551-7.034c1.364-0.606,2.8-1,4.261-1.585c2.854-1.143,6.156-1.608,9.906-1.783
		c4.658-0.217,9.601,0.369,13.028,1.535c5.539,1.887,10.075,4.273,13.969,7.679c1.289,1.127,2.572,2.29,3.615,3.616
		c2.154,2.736,4.288,5.388,5.796,8.619c1.474,3.155,2.849,6.819,3.517,10.946c0.659,4.065,0.639,8.804-0.197,13.127
		c-1.127,5.823-3.463,10.82-6.539,15.108c-0.444,0.62-0.935,1.374-1.535,2.08c-0.439,0.517-1.215,1.72-1.783,1.783
		c-0.327,0.037-1.081-0.248-1.585-0.396c-3.528-1.04-6.815-2.604-9.561-4.31c-2.934-1.822-5.377-3.725-7.679-6.191
		C47.507,53.313,47.106,52.932,47.02,52.453z M65.645,31.4c-0.947-1.34-2.04-2.404-3.318-3.368
		c-1.694-1.277-4.299-2.446-6.886-2.675c-0.059,0.023-0.112,0.053-0.148,0.099c-0.329,0.357-0.198,2.499-0.198,3.418
		c0.001,7.217-0.097,14.369-0.099,21.449c-0.001,1.169-0.155,2.368,0.197,3.417c1.385,0.163,2.707-0.321,3.864-0.792
		c1.141-0.465,2.224-1.019,3.17-1.685c1.745-1.226,3.662-3.246,4.508-5.251c0.222-0.525,1.028-2.451,0.496-2.724
		c-0.771-0.395-0.985,0.869-1.14,1.238c-1.252,2.976-3.308,5.201-5.896,6.638c-1.05,0.583-2.26,1.188-3.665,1.238
		c-0.271-0.992-0.148-2.084-0.148-3.121c-0.001-7.169,0.051-13.982,0.049-21.052c0-0.465-0.154-1.087,0.248-1.437
		c1.081,0.062,2.072,0.504,2.923,0.94c2.241,1.153,3.945,2.737,5.35,4.657c0.272,0.372,0.607,0.923,1.188,0.445
		C66.473,32.281,65.915,31.782,65.645,31.4z M36.073,25.951c-2.159-0.001-4.327-0.028-6.291-0.049c-0.984-0.011-2.225-0.195-3.268,0
		c-0.771,0.144-0.545,1.243-0.545,2.08c-0.001,7.071-0.1,14.561-0.1,21.151c0,4.016,0,8.045,0,11.987
		c0,0.803-0.11,1.639,0.148,2.278c0.432,0.255,0.985,0.149,1.486,0.149c2.702-0.001,5.663-0.044,8.371,0.05
		c1.086,0.037,2.202,0.222,3.121-0.149c0.192-10.726,0.197-21.928,0.198-32.742c0-1.617,0.119-3.21-0.148-4.607
		C38.097,25.895,37.067,25.952,36.073,25.951z"/>
</g>
<g id="Layer_1">
</g>
</svg>
