<?xml version="1.0" encoding="iso-8859-1"?>
<!-- Generator: Adobe Illustrator 19.2.0, SVG Export Plug-In . SVG Version: 6.00 Build 0)  -->
<svg version="1.1" xmlns="http://www.w3.org/2000/svg" xmlns:xlink="http://www.w3.org/1999/xlink" x="0px" y="0px"
	 viewBox="0 0 77.472 26.693" style="enable-background:new 0 0 77.472 26.693;" xml:space="preserve">
<g id="rothenhausler_x5F_and_x5F_walchli">
	<path style="fill-rule:evenodd;clip-rule:evenodd;" d="M44.321,26.483c-3.709,0.174-7.614,0.097-11.583,0.097
		c-1.34,0-2.939,0.162-4.071-0.048c-1.599-0.297-3.292-1.76-4.168-2.908c-1.945-2.549-2.368-6.801-0.581-9.839
		c1.145-1.947,3.077-3.075,5.234-4.168c0.516-0.261,1.866-0.812,1.938-1.163c0.061-0.295-0.484-1.244-0.727-1.696
		c-0.423-0.787-0.895-1.412-0.969-2.472c-0.16-2.267,1.474-4.071,3.538-4.265c2.518-0.237,4.355,1.608,4.411,3.877
		c0.033,1.348-0.521,2.333-1.211,3.005c-0.281,0.272-0.586,0.342-0.63,0.63c-0.069,0.454,0.57,1.397,0.824,1.939
		c0.869,1.854,1.836,3.896,2.666,5.574c1.266,2.56,2.468,5.017,3.49,7.512c0.463,0.54,0.685,1.276,1.018,1.939
		C43.819,25.136,44.275,25.763,44.321,26.483z"/>
	<path style="fill-rule:evenodd;clip-rule:evenodd;" d="M16.404,12.67c0.357,1.448,1.26,2.646,1.745,4.023
		c0.25,0.709,0.475,1.402,0.775,2.084c0.397,0.9,0.963,1.562,1.018,2.811c0.733,0.585,1.097,1.723,1.551,2.714
		c0.325,0.709,0.757,1.4,0.824,2.132c-3.494,0.19-7.248,0.097-10.953,0.097c-3.728,0-7.523,0.039-11.196-0.049
		c-0.25-2.028-0.146-4.205-0.146-6.446c0-4.36,0.001-8.917,0-13.426c0-1.109-0.042-2.225,0-3.295
		c0.042-1.055-0.135-2.11,0.146-3.102c2.176-0.174,5.51-0.097,7.997-0.097c2.789,0,5.476-0.17,7.803,0
		c2.43,0.177,4.324,1.962,5.089,3.829c1.462,3.565-0.75,7.059-3.247,8.191C17.34,12.35,16.869,12.293,16.404,12.67z"/>
	<path style="fill-rule:evenodd;clip-rule:evenodd;" d="M77.472,0.214c-0.226,0.913-0.662,1.781-1.065,2.617
		c-2.767,5.731-5.622,11.519-8.434,17.303c-0.472,1.119-1.048,2.2-1.6,3.296c-0.545,1.083-0.928,2.288-1.696,3.199
		c-4.36,0.061-9.141,0.127-13.425-0.048c-1.258-2.068-2.167-4.362-3.296-6.543c-1.123-2.171-2.172-4.395-3.247-6.592
		C42.688,9.316,40.68,5.17,38.699,0.99c-0.098-0.206-0.438-0.577-0.097-0.824C51.396,0.122,64.673,0.021,77.472,0.214z"/>
</g>
<g id="Layer_1">
</g>
</svg>
