<?xml version="1.0" encoding="iso-8859-1"?>
<!-- Generator: Adobe Illustrator 19.2.0, SVG Export Plug-In . SVG Version: 6.00 Build 0)  -->
<svg version="1.1" xmlns="http://www.w3.org/2000/svg" xmlns:xlink="http://www.w3.org/1999/xlink" x="0px" y="0px"
	 viewBox="0 0 77.929 76.346" style="enable-background:new 0 0 77.929 76.346;" xml:space="preserve">
<g id="Roy_x5F_Nicholls_x5F_68">
	<path style="fill-rule:evenodd;clip-rule:evenodd;" d="M45.901,31.493c-0.803,0.008-1.087-0.923-1.864-1.108
		c-2.213-1.424-4.655-2.473-7.051-3.576c-3.603-1.658-7.172-3.461-10.677-5.288c-3.447-1.796-7.12-3.415-10.677-5.188
		c-0.663-0.28-1.295-0.851-2.116-0.806c-0.355,0.522-0.201,1.187-0.201,1.763c0,9.54-0.05,18.879-0.05,28.304
		c0,10.25,0.099,20.543-0.151,30.42c-2.14,0.202-4.41,0.099-6.598,0.05C4.4,76.017,2.124,76.323,0.12,75.964
		C-0.066,66.572,0.02,56.956,0.02,47.307c0-15.049,0.05-30.369,0.05-44.975c0-0.724-0.117-1.514,0.151-2.216
		c4.186-0.229,8.792-0.039,13.145-0.101c-0.009,0.043,0.019,0.047,0.05,0.05C20.45,3.52,27.756,7.215,34.972,10.844
		c1.696,0.853,3.511,1.762,5.338,2.72c0.713,0.374,1.43,0.633,1.712,1.108c0.268,0.451,0.413,1.337,0.604,2.065
		c0.548,2.087,0.919,4.349,1.461,6.396c0.571,2.158,1.013,4.147,1.561,6.296C45.817,30.085,46.18,30.828,45.901,31.493z"/>
	<path style="fill-rule:evenodd;clip-rule:evenodd;" d="M77.781,0.166c0.258,12.519,0.1,24.809,0.101,37.723
		c0.001,12.086-0.05,24.365-0.051,36.01c0,0.743,0.124,1.547-0.151,2.266c-3.262,0.173-6.828-0.006-10.526,0.05
		c-1.154,0.018-2.64,0.284-3.677,0c-0.521-0.143-1.123-0.574-1.712-0.856c-1.681-0.806-3.425-1.745-5.086-2.519
		c-2.396-1.115-4.729-2.134-6.85-3.324c-2.242-1.259-4.672-2.091-6.799-3.375c-2.175-1.312-4.57-2.102-6.699-3.425
		c-0.496-1.028-1.012-3.005-1.359-4.281c-0.804-2.947-1.549-5.72-2.267-8.612c-0.363-1.461-0.967-2.857-1.007-4.331
		c0.437-0.163,0.704,0.3,0.957,0.504c0.825,0.663,1.833,1.175,2.82,1.712c2.647,1.439,5.437,2.636,8.108,4.079
		c1.309,0.708,2.677,1.371,4.029,2.015c4.089,1.946,8.111,4.058,12.238,5.993c0.682,0.32,1.362,0.654,2.065,0.957
		c0.677,0.291,1.298,0.911,2.115,0.806c0.342-0.513,0.201-1.185,0.201-1.763c0-7.003,0-14.219,0-21.304c0-2.537,0.116-5.074,0-7.555
		c-0.118-2.537,0.121-5.1,0-7.655c-0.12-2.549,0.051-5.152,0.051-7.706c0-5.127-0.083-10.268,0.101-15.361
		C68.575-0.068,73.634,0.041,77.781,0.166z"/>
	<path style="fill-rule:evenodd;clip-rule:evenodd;" d="M43.534,15.376c4.031,1.814,8.138,3.767,11.08,6.648
		c0.987,0.967,2.161,1.912,2.619,3.274c-0.059,0.737-0.56,1.304-0.906,1.863c-2.076,3.353-4.176,6.771-6.295,10.224
		c-0.239,0.39-0.764,1.647-1.159,1.562c-0.322-0.07-0.307-1.175-0.352-1.511c-0.494-3.678-1.623-6.822-2.468-10.224
		c-0.736-2.963-1.416-5.701-2.216-8.712c-0.225-0.846-0.755-2.337-0.454-3.022C43.42,15.43,43.474,15.401,43.534,15.376z"/>
	<path style="fill-rule:evenodd;clip-rule:evenodd;" d="M38.346,28.572c-0.252,0.431-0.859,0.426-1.259,0.504
		c-3.265,0.635-6.39,1.652-9.569,2.568c-2.628,0.757-5.299,1.546-8.108,2.317c-0.64,0.175-2.268,0.859-2.669,0.453
		c-0.305-0.308,0.096-1.445,0.252-2.015c0.927-3.381,2.41-5.966,4.331-8.31c0.572-0.697,1.866-2.503,2.72-2.568
		c0.5-0.038,1.296,0.49,1.914,0.806c2.962,1.514,5.941,3.029,8.964,4.382c0.595,0.266,1.222,0.556,1.813,0.856
		C37.28,27.841,37.973,28.033,38.346,28.572z"/>
	<path style="fill-rule:evenodd;clip-rule:evenodd;" d="M46.002,45.544c0.312-0.885,0.997-1.554,1.511-2.317
		c0.51-0.755,1.009-1.576,1.46-2.367c2.749-4.816,5.797-9.457,8.663-14.202c0.601-0.456,1.065,0.507,1.359,1.058
		c1.319,2.463,2.277,5.378,2.619,8.663c0.113,1.089,0.238,3.753-0.201,4.331c-0.28,0.368-1.188,0.55-1.813,0.756
		c-3.881,1.273-7.786,2.534-11.634,3.727C47.378,45.374,46.716,45.757,46.002,45.544z"/>
	<path style="fill-rule:evenodd;clip-rule:evenodd;" d="M32.101,31.443c-0.372,0.863-1.093,1.535-1.662,2.316
		c-0.548,0.753-1.03,1.584-1.511,2.417c-2.401,4.16-4.852,8.063-7.303,12.339c-0.331,0.577-1.084,2.255-1.662,2.266
		c-0.472,0.009-0.856-0.907-1.108-1.36c-1.461-2.632-2.541-5.59-2.72-9.368c-0.072-1.518-0.187-3.216,0.403-4.331
		c2.292-0.87,4.875-1.439,7.404-2.267c1.236-0.404,2.528-0.728,3.777-1.058c1.279-0.338,2.54-0.719,3.727-1.058
		C31.622,31.292,31.94,31.215,32.101,31.443z"/>
	<path style="fill-rule:evenodd;clip-rule:evenodd;" d="M28.828,38.191c0.546-0.172,0.398,0.961,0.453,1.46
		c0.172,1.566,0.641,3.218,1.058,4.533c1.542,4.866,2.567,9.751,3.979,14.656c0.27,0.937,0.648,1.936,0.554,2.921
		c-0.825,0.094-1.546-0.4-2.216-0.706c-4.11-1.87-7.789-4-10.728-7.202c-0.425-0.463-1.176-1.209-1.209-1.763
		c-0.033-0.573,0.528-1.311,0.856-1.864c2.07-3.48,4.012-6.765,6.043-10.224C28.003,39.35,28.342,38.634,28.828,38.191z"/>
	<path style="fill-rule:evenodd;clip-rule:evenodd;" d="M61.161,42.22c0.296,0.702-0.077,1.458-0.252,2.115
		c-1.081,4.071-3.096,7.477-5.741,10.123c-0.37,0.37-0.966,1.148-1.411,1.209c-0.473,0.064-1.467-0.444-2.014-0.705
		c-1.837-0.874-3.688-1.841-5.389-2.72c-1.223-0.631-2.468-1.159-3.626-1.813c-0.591-0.334-1.208-0.613-1.812-0.907
		c-0.536-0.259-1.292-0.412-1.562-1.007c0.29-0.464,0.941-0.347,1.36-0.403c1.47-0.196,2.76-0.622,4.08-1.058
		c3.449-1.14,6.989-2.159,10.526-3.273c1.753-0.552,3.55-1.007,5.238-1.612C60.697,42.12,60.957,42.065,61.161,42.22z"/>
</g>
<g id="Layer_1">
</g>
</svg>
