<?xml version="1.0" encoding="iso-8859-1"?>
<!-- Generator: Adobe Illustrator 19.2.0, SVG Export Plug-In . SVG Version: 6.00 Build 0)  -->
<svg version="1.1" xmlns="http://www.w3.org/2000/svg" xmlns:xlink="http://www.w3.org/1999/xlink" x="0px" y="0px"
	 viewBox="0 0 81.291 80.402" style="enable-background:new 0 0 81.291 80.402;" xml:space="preserve">
<g id="Rayal_x5F_Architectural_x5F_Institute_x5F_of_x5F_Canada">
	<path style="fill-rule:evenodd;clip-rule:evenodd;" d="M58.559,68.017c1.304,1.245,2.588,2.508,3.925,3.721
		c0.661,0.612,1.271,1.276,1.937,1.885c0.354,0.573,1.711,1.112,1.732,2.039c0.012,0.507-0.536,0.944-0.917,1.325
		c-0.804,0.803-1.348,1.348-2.191,2.191c-0.313,0.313-0.859,0.908-1.274,0.917c-0.733,0.016-2.059-1.651-2.548-2.141
		c-2.346-2.345-4.818-4.665-7.084-6.931c-2.335-2.335-4.623-4.729-7.085-6.982c-0.714-0.653-1.739-1.829-2.599-2.038
		c-1.077-0.263-2.816,0.196-3.822,0c-1.775,1.219-3.132,2.978-4.688,4.535c-1.501,1.502-3.024,3.074-4.587,4.638
		c-1.469,1.469-2.932,3.123-4.485,4.74c-1.069,1.112-2.196,2.247-3.415,3.466c-0.386,0.386-0.857,0.998-1.273,1.02
		c-0.767,0.037-2.006-1.631-2.446-2.039c-0.837-0.777-1.63-1.341-2.09-2.345c0.268-0.989,1.054-1.46,1.631-2.141
		c3.463-3.753,7.528-7.738,11.212-11.619c0.369-0.39,1.422-1.255,1.428-1.835c0.006-0.607-0.735-1.041-1.122-1.428
		c-0.435-0.436-0.724-0.997-1.376-1.121c-0.895,0.205-1.363,1.059-1.935,1.631c-3.51,3.509-6.896,7.201-10.448,10.754
		c-0.396,0.396-1.32,1.556-1.937,1.58c-0.438,0.017-0.907-0.47-1.224-0.765c-0.754-0.703-1.241-1.19-1.987-1.937
		c-0.302-0.302-0.795-0.686-0.815-1.121c-0.033-0.72,1.033-1.495,1.528-2.039c3.355-3.678,6.817-7.224,10.346-10.753
		c0.454-0.454,1.563-1.329,1.58-1.938c0.016-0.534-0.597-1.018-0.968-1.376c-0.36-0.347-0.818-0.962-1.376-0.968
		c-0.647-0.008-1.523,1.217-2.039,1.732c-3.193,3.193-6.174,6.379-9.225,9.633c-0.558,0.595-1.095,1.196-1.834,1.937
		c-0.514,0.514-1.567,1.644-2.142,1.631c-0.414-0.01-0.935-0.562-1.274-0.866c-0.426-0.382-0.781-0.73-1.07-1.019
		c-0.777-0.777-1.524-1.223-1.886-2.345c0.317-1.202,1.385-1.853,2.141-2.65c0.778-0.82,1.506-1.686,2.344-2.445
		c3.862-4.315,8.269-8.47,12.283-12.844c0.53-0.578,1.473-1.287,1.682-1.886c0.278-0.797-0.001-2.083,0.101-2.956
		c-0.548-1.037-1.487-1.794-2.293-2.599c-1.624-1.624-3.362-3.102-4.943-4.842c-1.919-2.113-4.114-3.987-6.116-6.116
		c-1.555-1.652-3.153-3.257-4.842-4.943c-0.414-0.414-1.047-0.879-1.07-1.376c-0.024-0.546,0.536-1.027,0.867-1.376
		c0.746-0.789,1.374-1.403,2.242-2.191c0.343-0.311,0.801-0.908,1.274-0.918c0.654-0.013,1.375,1.02,1.834,1.479
		c0.615,0.615,1.139,1.169,1.631,1.682c0.556,0.578,1.214,1.008,1.733,1.58c2.586,2.848,5.625,5.618,8.256,8.308
		c0.737,0.392,1.064,1.758,1.987,1.783c0.59,0.017,1.062-0.74,1.479-1.121c0.484-0.444,1.067-0.788,1.172-1.427
		c-0.211-0.88-1.024-1.371-1.631-1.937c-1.812-1.69-3.419-3.709-5.3-5.401c-1.832-1.784-3.422-3.422-5.351-5.352
		c-0.495-0.495-1.545-1.272-1.58-1.987c-0.041-0.846,1.201-1.802,1.682-2.242c0.346-0.317,0.591-0.576,0.969-0.969
		c0.274-0.285,0.805-0.759,1.172-0.765c0.684-0.011,1.606,1.146,2.039,1.58c1.844,1.844,3.479,3.479,5.402,5.402
		c0.6,0.6,1.277,1.184,1.834,1.783c1.185,1.274,2.307,2.256,3.619,3.567c0.472,0.473,1.241,1.616,1.936,1.631
		c0.497,0.011,0.878-0.524,1.273-0.968c0.353-0.394,0.957-0.729,0.969-1.274c0.009-0.38-0.489-0.859-0.765-1.172
		c-0.888-1.012-1.909-2.012-2.803-2.905c-3.247-3.246-6.155-6.314-9.53-9.479C15.86,5.78,14.754,4.856,14.73,4.209
		c-0.031-0.851,1.293-1.65,1.834-2.192c0.709-0.708,1.429-1.573,2.141-1.936c0.651-0.331,1.271,0.443,1.733,0.867
		c2.963,2.72,5.815,5.76,8.562,8.561c2.828,2.885,5.643,5.645,8.562,8.563c0.455,0.454,0.904,1.009,1.325,1.121
		c0.498,0.133,3.493,0.13,3.924,0c1.022-0.308,1.679-1.482,2.497-2.242c2.081-1.933,3.896-3.842,5.861-5.912
		c2.98-3.14,6.221-6.274,9.377-9.429c0.471-0.47,0.909-1.016,1.325-1.02c0.488-0.004,0.997,0.587,1.325,0.917
		c0.751,0.755,1.4,1.414,2.243,2.243c0.331,0.326,0.963,0.721,0.968,1.275c0.007,0.698-1.178,1.534-1.732,2.089
		c-1.877,1.877-3.882,3.809-5.606,5.708c-1.287,1.418-2.478,2.37-3.771,3.772c-0.803,0.869-1.902,1.878-2.803,2.854
		c-0.315,0.342-0.749,0.782-0.765,1.121c-0.024,0.515,0.701,1.152,1.07,1.528c0.444,0.454,0.843,0.899,1.478,1.071
		c0.692-0.087,1.084-0.728,1.528-1.173c3.073-3.073,6.202-6.275,9.275-9.429c0.592-0.589,1.088-1.142,1.733-1.834
		c0.418-0.448,1.315-1.566,1.987-1.58c0.407-0.009,0.855,0.458,1.172,0.815c0.348,0.392,0.681,0.695,0.969,0.968
		c0.716,0.677,1.454,1.169,1.783,2.09c-0.163,0.878-0.942,1.452-1.528,2.039c-0.601,0.6-1.103,1.276-1.682,1.886
		c-1.14,1.197-2.319,2.356-3.466,3.618c-1.061,1.168-2.335,2.335-3.567,3.567c-0.554,0.554-1.137,1.187-1.784,1.784
		c-0.492,0.454-1.557,1.309-1.58,1.937c-0.019,0.501,0.487,0.918,0.867,1.274c0.364,0.342,0.763,0.857,1.274,0.866
		c0.496,0.008,0.774-0.455,1.121-0.816c0.333-0.346,0.744-0.661,1.02-0.866c2.1-1.561,3.833-3.906,5.708-5.605
		c1.723-1.948,3.617-3.816,5.504-5.861c0.45-0.487,1.356-1.718,2.039-1.732c0.474-0.011,1.004,0.6,1.376,0.917
		c0.927,0.792,1.415,1.415,2.293,2.294c0.305,0.304,0.945,0.801,0.969,1.273c0.023,0.48-0.56,1.018-1.02,1.479
		c-2.851,2.851-5.809,5.833-8.511,8.715c-0.8,0.852-1.58,1.726-2.396,2.548c-0.82,0.828-1.636,1.637-2.446,2.446
		c-1.668,1.668-3.376,3.274-4.791,5.046c0.005,0.444-0.172,1.391-0.051,1.937c0.196,0.883,1.492,1.874,2.191,2.548
		c0.872,0.84,1.582,1.642,2.345,2.345c1.557,1.438,3.072,3.336,4.638,4.791c2.36,2.193,4.793,4.588,7.186,6.981
		c0.419,0.419,2.171,1.732,2.192,2.498c0.015,0.556-0.569,0.892-0.918,1.273c-0.409,0.449-0.737,0.81-1.07,1.121
		c-0.817,0.768-1.323,1.62-2.395,1.988c-0.883-0.266-1.52-1.011-2.141-1.631c-1.854-1.855-3.832-3.73-5.708-5.606
		c-1.19-1.191-2.491-2.491-3.821-3.721c-0.797-0.735-1.077-1.139-1.887-1.885c-0.569-0.526-1.421-1.625-2.089-1.631
		c-0.576-0.006-1.096,0.665-1.478,1.069c-0.397,0.42-0.959,1.024-0.968,1.529c-0.014,0.737,1.088,1.406,1.631,1.937
		c1.777,1.74,3.658,3.557,5.351,5.249c1.167,1.167,2.411,2.408,3.619,3.466c0.604,0.528,1.142,1.114,1.784,1.733
		c0.452,0.437,1.579,1.287,1.579,1.937c0,0.74-1.151,1.579-1.732,2.191c-0.365,0.385-1.274,1.875-2.09,1.835
		c-0.52-0.026-1.473-1.098-1.987-1.58c-3.043-2.854-6.054-5.832-9.123-8.664c-0.546-0.504-1.141-1.141-1.783-1.784
		c-0.505-0.504-1.313-1.501-1.988-1.528c-0.583-0.024-1.006,0.444-1.427,0.866c-0.404,0.404-1.006,0.812-1.02,1.274
		c-0.021,0.714,1.385,1.658,1.784,2.038C54.819,64.375,56.594,66.071,58.559,68.017z M44.748,52.574
		c3.221-1.093,6.117-3.33,7.543-6.167c0.997-1.983,1.387-4.644,1.172-6.981c-0.224-2.45-1.125-4.486-2.293-6.065
		c-2.324-3.142-6.033-5.653-11.314-5.402c-2.795,0.133-5.236,1.29-7.186,2.6c-1.899,1.275-3.514,3.221-4.23,5.402
		c-0.463,1.407-0.759,3.042-0.816,4.587c-0.043,1.172,0.364,2.53,0.561,3.465c0.085,0.404,0.084,0.823,0.204,1.172
		c0.97,2.815,3.015,4.544,5.249,6.371C36.424,53.367,41.043,53.832,44.748,52.574z"/>
</g>
<g id="Layer_1">
</g>
</svg>
