<?xml version="1.0" encoding="iso-8859-1"?>
<!-- Generator: Adobe Illustrator 19.2.0, SVG Export Plug-In . SVG Version: 6.00 Build 0)  -->
<svg version="1.1" xmlns="http://www.w3.org/2000/svg" xmlns:xlink="http://www.w3.org/1999/xlink" x="0px" y="0px"
	 viewBox="0 0 76.87 77.811" style="enable-background:new 0 0 76.87 77.811;" xml:space="preserve">
<g id="RPR_x5F_Relazioni_x5F_Pubbliche">
	<path style="fill-rule:evenodd;clip-rule:evenodd;" d="M44.719,45.316c-0.209,4.906-0.151,9.882-0.151,15.095
		c0,1.695-0.118,3.392,0.151,4.998c1.278,0.27,2.609,0.151,3.938,0.151c9.324,0,19.007-0.032,28.018,0.201
		c0.21,3.621,0.147,7.887,0,11.813c-0.497,0.343-1.16,0.217-1.717,0.201c-9.222-0.258-19.35-0.101-28.572-0.101
		c-2.801,0-5.025-0.054-6.816-0.858c-3.402-1.527-6.011-4.352-7.017-8.279c-0.506-1.978-0.352-4.444-0.353-7.27
		c0-5.269-0.025-9.994,0-14.892c0.027-5.119,1.664-8.395,4.543-10.753c1.393-1.14,3.276-2.098,5.149-2.523
		c2.073-0.473,4.688-0.203,7.32-0.202c4.991,0.001,10.255,0.115,15.144-0.051c0.168-6.362,0.168-13.427,0-19.789
		c-1.032-0.274-2.12-0.151-3.181-0.151c-16.421,0-32.497-0.185-48.664-0.05c-0.316,2.021-0.078,4.127-0.151,6.259
		c-0.225,6.49-0.001,13.171,0,19.739c0,8.78-0.057,17.563,0.05,25.998c0.798,0.356,2.5,0.313,3.483,0.151
		c0.275-0.904,0.151-1.872,0.151-2.827c-0.001-6.955,0.051-13.337,0.051-20.345c0-2.774,0.023-5.622,0-8.531
		c-0.008-0.93,0.039-1.86,0-2.726c-0.18-3.948,0.693-6.856,2.524-9.238c1.744-2.27,3.959-4.124,7.319-4.544
		c1.842-0.229,3.824,0.05,5.857,0c9.223-0.222,19.192,0.104,28.673,0.152c0.022,0.045,0.045,0.09,0.102,0.101
		c0.014,3.761,0.125,7.876-0.051,11.661c-0.045,0.023-0.09,0.045-0.101,0.102c-10.585,0.083-20.878-0.109-31.955,0.05
		c-0.271,0.819-0.152,1.694-0.151,2.524c0.001,9.325-0.051,18.643-0.051,28.422c0,3.561,0.289,6.971-0.656,9.642
		c-1.276,3.606-4.353,6.619-8.128,7.724c-1.377,0.403-2.974,0.44-4.846,0.404c-1.802-0.036-3.594,0.022-4.998-0.304
		c-1.359-0.315-2.627-0.846-3.735-1.514C2.85,73.92,0.424,70.542,0.143,65.71c-0.289-4.978-0.052-10.152-0.051-15.447
		c0.001-10.743-0.001-20.93,0-31.602c0-3.55-0.246-7.273,0.556-9.995C1.415,6.058,3.067,4.094,5.04,2.507
		c1.989-1.601,4.766-2.41,8.026-2.474c5.963-0.114,11.811,0.101,17.568,0.101c5.769,0,11.405-0.001,17.265,0
		c6.019,0,11.797-0.093,17.567,0.101c2.659,0.089,4.818,1.1,6.512,2.373c1.688,1.269,3.044,3.002,3.888,4.947
		c0.446,1.029,0.858,2.181,0.959,3.482c0.102,1.305,0,2.788,0,4.443c0.001,6.015,0,11.659,0,17.668
		c0.001,5.633-3.118,9.071-6.814,10.955c-1.037,0.528-2.072,0.871-3.383,1.059c-1.269,0.184-2.809,0.101-4.342,0.102
		C56.638,45.267,50.732,45.077,44.719,45.316z"/>
</g>
<g id="Layer_1">
</g>
</svg>
