<?xml version="1.0" encoding="iso-8859-1"?>
<!-- Generator: Adobe Illustrator 19.2.0, SVG Export Plug-In . SVG Version: 6.00 Build 0)  -->
<svg version="1.1" xmlns="http://www.w3.org/2000/svg" xmlns:xlink="http://www.w3.org/1999/xlink" x="0px" y="0px"
	 viewBox="0 0 91.226 111.983" style="enable-background:new 0 0 91.226 111.983;" xml:space="preserve">
<g id="Ruskin_x5F_Square">
	<path style="fill-rule:evenodd;clip-rule:evenodd;" d="M24.571,2.443c-1.316-0.321-2.064-1.211-3.235-1.678
		C22.15-0.956,25.284,0.498,24.571,2.443z"/>
	<path style="fill-rule:evenodd;clip-rule:evenodd;" d="M31.639,2.802c-0.875,0.997-2.117,1.49-3.474,2.276
		c-0.889,0.515-2.581,2.025-3.594,2.036c-0.799,0.009-2.056-1.206-2.875-1.677c-1.825-1.051-2.736-1.549-4.313-2.396
		c2.55-2.326,4.691,2.299,7.188,2.276C26.759,5.298,29.519,0.837,31.639,2.802z"/>
	<path style="fill-rule:evenodd;clip-rule:evenodd;" d="M24.571,9.99c0,0.52,0,1.038,0,1.558c-3.961-1.829-7.435-4.146-11.022-6.35
		c1.442-1.599,4.587,1.141,6.11,2.037C21.505,8.321,23.186,9.252,24.571,9.99z"/>
	<path style="fill-rule:evenodd;clip-rule:evenodd;" d="M39.545,7.594c-5.051,2.775-9.898,5.755-14.855,8.625
		C20.721,14.2,16.99,11.941,13.31,9.63c0.127-0.638-0.118-0.91,0.12-1.438c3.792,1.999,7.275,4.306,11.022,6.35
		c3.098-1.551,6.822-3.928,10.183-5.87C36.229,7.751,38.301,5.721,39.545,7.594z"/>
	<path style="fill-rule:evenodd;clip-rule:evenodd;" d="M47.452,11.907c-7.399,4.7-15.283,8.917-22.881,13.418
		c-5.043-2.904-10.248-5.646-14.975-8.865c1.314-1.274,3.327,0.379,4.792,1.317c2.281,1.461,4.243,2.518,6.709,3.953
		c0.972,0.566,2.576,1.812,3.474,1.798c1.349-0.023,3.926-2.176,5.391-2.995c4.654-2.606,8.589-4.965,13.298-7.668
		C44.819,11.97,46.029,10.605,47.452,11.907z M40.264,14.902C40.343,14.98,40.214,14.851,40.264,14.902L40.264,14.902z"/>
	<path style="fill-rule:evenodd;clip-rule:evenodd;" d="M13.429,12.746c3.756,2.114,7.453,4.288,11.142,6.469
		c0.044,0.659,0.122,0.818,0,1.438c-2.627-1.184-5.786-3.078-8.625-4.792C14.927,15.246,12.686,14.554,13.429,12.746z"/>
	<path style="fill-rule:evenodd;clip-rule:evenodd;" d="M24.571,28.32c0,0.478,0,0.958,0,1.438
		c-6.53-3.334-12.502-7.226-18.809-10.782c1.452-1.848,3.88,0.7,5.63,1.677C15.6,23.001,20.737,26.024,24.571,28.32z"/>
	<path style="fill-rule:evenodd;clip-rule:evenodd;" d="M48.65,18.855c1.506,1.53-1.499,2.423-2.636,3.115
		c-6.237,3.796-12.153,7.03-18.449,10.782c-0.795,0.474-2.479,1.7-3.115,1.677c-1.107-0.04-4.55-2.723-5.63-3.354
		c-5.588-3.268-11.643-6.617-17.012-9.823c1.263-1.867,5.057,1.244,6.589,2.156c5.274,3.138,11.195,6.456,16.053,9.345
		C32.626,28.229,40.482,23.386,48.65,18.855z"/>
	<path style="fill-rule:evenodd;clip-rule:evenodd;" d="M24.571,37.424c0,0.479,0,0.958,0,1.438
		c-8.117-4.224-16.277-9.44-24.439-14.017c0.068-0.64-0.278-1.049,0-1.558C8.488,27.79,16.393,32.744,24.571,37.424z"/>
	<path style="fill-rule:evenodd;clip-rule:evenodd;" d="M49.01,27.96c0.679,1.646-1.222,2.156-2.755,3.115
		c-6.173,3.859-12.267,6.918-18.569,10.662c-0.946,0.562-2.43,1.773-2.995,1.797c-0.673,0.028-2.333-1.152-3.234-1.677
		C14.42,37.76,7.136,33.42,0.131,29.398c0-0.519,0-1.039,0-1.558c7.096,3.696,14.185,8.283,21.325,12.339
		c0.897,0.511,2.524,1.657,2.995,1.678c0.597,0.026,2.41-1.182,3.235-1.678C34.585,36.028,42.057,31.527,49.01,27.96z"/>
	<path style="fill-rule:evenodd;clip-rule:evenodd;" d="M0.251,32.392c8.194,4.625,16.226,9.411,24.319,14.137
		c-0.14,0.602,0.264,1.086,0,1.438c-3.247-1.346-6.438-3.784-9.824-5.391c-0.177-0.303-0.423-0.535-0.479-0.959
		c-1.289,0.108-2.938-1.036-4.433-1.916c-3.137-1.848-6.669-4.052-9.824-5.87C-0.031,33.228,0.043,32.744,0.251,32.392z"/>
	<path style="fill-rule:evenodd;clip-rule:evenodd;" d="M0.131,36.945c6.758,3.673,14.344,8.169,21.325,12.34
		c0.792,0.473,2.518,1.655,2.995,1.677c0.619,0.028,2.399-1.168,3.235-1.677c6.873-4.188,14.42-8.595,21.324-12.22
		c0.416,1.883-1.303,2.172-2.276,2.755c-6.247,3.749-12.528,7.203-19.048,11.021c-0.855,0.501-2.485,1.787-3.115,1.798
		c-0.626,0.01-2.313-1.322-3.115-1.798c-7.076-4.19-14.359-8.202-21.325-12.339C0.208,37.855-0.002,37.308,0.131,36.945z"/>
	<path style="fill-rule:evenodd;clip-rule:evenodd;" d="M24.571,57.071c-8.38-4.438-16.281-9.355-24.439-14.016
		c0.12-0.583-0.205-1.146,0-1.438c6.896,3.267,14.373,8.334,21.444,12.34C23.047,54.79,25.128,55.118,24.571,57.071z"/>
	<path style="fill-rule:evenodd;clip-rule:evenodd;" d="M49.01,46.169c0.4,1.893-1.304,2.166-2.276,2.756
		c-6.226,3.773-12.496,7.167-18.928,11.021c-0.812,0.486-2.502,1.777-3.115,1.797c-0.639,0.021-2.332-1.149-3.234-1.678
		c-7.072-4.135-14.426-8.42-21.325-12.579c0-0.438,0-0.878,0-1.317c7.152,3.605,14.309,8.082,21.325,12.22
		c0.843,0.497,2.586,1.66,2.995,1.677c0.578,0.024,2.417-1.203,3.235-1.677C34.713,54.316,41.723,49.855,49.01,46.169z"/>
	<path style="fill-rule:evenodd;clip-rule:evenodd;" d="M0.251,50.602c6.444,3.552,14.6,8.428,21.564,12.459
		c1.393,0.807,3.353,1.309,2.755,3.115C16.226,61.742,8.359,56.831,0.251,52.16C0.062,51.853,0.062,50.908,0.251,50.602z"/>
	<path style="fill-rule:evenodd;clip-rule:evenodd;" d="M49.01,55.274c0.644,2.142-3.011,3.123-5.032,4.314
		c-3.367,1.982-6.903,4.147-10.063,5.989c-2.179,1.271-3.979,2.294-6.35,3.354c-0.862,0.386-2.173,1.651-2.875,1.678
		c-0.86,0.032-1.961-1.18-2.755-1.558c-7.259-3.455-14.613-8.398-21.804-12.34c0-0.519,0-1.038,0-1.557
		c6.159,3.148,12.088,6.957,18.209,10.542c1.414,0.828,4.677,3.19,6.11,3.234c1.79,0.056,4.727-2.422,6.35-3.354
		C36.816,62.12,43.124,58.307,49.01,55.274z"/>
	<path style="fill-rule:evenodd;clip-rule:evenodd;" d="M60.271,58.628c-1.12-0.637-2.448-1.066-3.235-2.036
		C58.291,55.431,60.938,56.53,60.271,58.628z"/>
	<path style="fill-rule:evenodd;clip-rule:evenodd;" d="M67.339,58.988c-2.07,1.724-4.633,2.954-7.068,4.313
		c-2.275-1.559-5.07-2.598-7.068-4.433c1.804-1.849,5.407,2.577,7.068,2.635C62.367,61.577,65.337,56.833,67.339,58.988z"/>
	<path style="fill-rule:evenodd;clip-rule:evenodd;" d="M24.69,75.042C16.413,70.58,8.217,66.037,0.251,61.264
		c-0.189-0.306-0.189-1.251,0-1.558c0.101-0.021,0.113,0.047,0.12,0.12c5.145,2.376,10.023,6.083,15.095,8.745
		c2.568,1.349,5.161,2.661,7.667,4.193C23.934,73.254,25.167,73.649,24.69,75.042z"/>
	<path style="fill-rule:evenodd;clip-rule:evenodd;" d="M60.271,67.734c-3.744-2.007-7.361-4.141-10.902-6.35
		c0.025-0.194,1.034-1.049,1.438-0.839c1.448,0.756,2.624,1.76,4.792,2.995C57.552,64.653,60.9,65.324,60.271,67.734z"/>
	<path style="fill-rule:evenodd;clip-rule:evenodd;" d="M75.126,63.42c-4.406,3.422-9.979,5.675-14.735,8.746
		c-2.35-1.422-4.738-2.708-7.427-3.954c-1.047-0.484-2.609-2.243-3.834-2.276c-0.7-0.018-2.249,1.159-3.115,1.678
		c-3.141,1.882-6.32,3.44-9.225,5.151c-2.972,1.75-5.879,3.342-9.104,5.271c-0.875,0.523-2.459,1.664-2.995,1.677
		c-0.847,0.019-3.013-1.664-4.073-2.276c-3.085-1.78-4.951-3.024-7.907-4.672c-4.06-2.264-8.43-4.493-12.459-6.948
		c0.083-0.603-0.204-0.835-0.12-1.437c3.247,1.374,5.969,3.283,9.345,4.792c1.194,0.533,2.46,1.543,3.713,2.275
		c2.787,1.631,4.621,2.744,7.548,4.433c1.004,0.58,2.974,2.026,3.833,2.037c0.859,0.011,2.905-1.471,4.073-2.156
		c1.459-0.857,2.869-1.646,3.953-2.276c4.51-2.622,8.204-4.743,12.699-7.188c1.058-0.575,2.843-2.016,3.714-2.036
		c0.807-0.019,2.735,1.334,3.714,1.917c2.007,1.193,3.423,1.873,5.511,3.114c0.543,0.323,1.628,1.068,2.037,1.078
		c0.878,0.021,3.14-1.582,4.433-2.156c3.044-1.352,6.456-3.944,8.865-5.151C74.056,62.817,74.499,63.006,75.126,63.42z"/>
	<path style="fill-rule:evenodd;clip-rule:evenodd;" d="M82.793,68.212c-6.094,3.466-13.04,7.576-19.527,11.381
		c-0.859,0.504-2.139,1.529-2.755,1.558c-1.281,0.06-4.521-2.407-5.75-3.114c-0.779-0.448-1.779-1.108-2.755-1.678
		c-0.727-0.424-2.19-1.528-2.755-1.558c-1.384-0.069-5.072,2.797-6.229,3.475c-5.447,3.189-9.89,5.469-15.334,8.745
		c-0.977,0.588-2.337,1.774-2.995,1.797c-0.694,0.024-2.125-1.224-3.115-1.797c-6.322-3.659-11.929-6.832-18.449-10.542
		c-1.547-0.881-3.2-1.356-2.995-3.234c7.058,3.566,14.206,7.864,21.325,12.1c0.843,0.502,2.364,1.765,2.995,1.797
		c0.632,0.032,2.392-1.181,3.235-1.678c6.325-3.725,11.896-6.916,18.329-10.662c0.982-0.571,2.461-1.676,3.115-1.677
		c0.63-0.001,2.074,1.085,2.875,1.558c2.738,1.615,5.634,3.392,8.266,4.792c6.217-2.858,13.007-8.096,19.168-11.142
		C80.516,67.799,82.102,66.822,82.793,68.212z"/>
	<path style="fill-rule:evenodd;clip-rule:evenodd;" d="M49.129,68.572c2.077,1.073,5.793,3.272,8.626,4.912
		c1.088,0.63,3.238,1.273,2.516,2.995c-3.66-1.772-7.641-4.259-11.261-6.47C49.054,69.535,48.9,68.862,49.129,68.572z"/>
	<path style="fill-rule:evenodd;clip-rule:evenodd;" d="M24.571,84.146c-6.919-3.788-14.391-8.157-21.564-12.339
		c-1.168-0.682-3.186-1.286-2.875-2.876c0.097-0.022,0.12-0.12,0.24-0.119c7.344,3.698,14.236,8.08,21.564,12.219
		C23.249,81.774,25.314,82.393,24.571,84.146z"/>
	<path style="fill-rule:evenodd;clip-rule:evenodd;" d="M29.961,93.491c4.983-3.567,11.03-6.639,16.772-9.943
		c0.796-0.459,1.85-1.315,2.396-1.318c0.735-0.003,2.135,1.112,2.875,1.558c2.787,1.678,5.524,3.256,8.266,4.792
		c8.15-4.472,16.81-9.628,25.158-14.615c1.144-0.684,2.752-1.88,3.594-2.037c0.706-0.131,1.667,0.149,1.677,0.6
		c0.008,0.367-3.632,2.229-3.714,2.275C79.192,79.3,72.048,83.45,64.344,88.099c-0.997,0.603-3.038,2.116-3.833,2.156
		c-1.38,0.07-4.606-2.432-5.75-3.114c-0.81-0.483-1.775-1.093-2.755-1.678c-0.85-0.506-2.214-1.521-2.755-1.557
		c-1.223-0.082-3.684,1.935-4.912,2.635c-3.42,1.952-6.259,3.581-9.584,5.512C33.29,92.903,31.556,94.835,29.961,93.491z"/>
	<path style="fill-rule:evenodd;clip-rule:evenodd;" d="M23.253,91.094c-0.833,1.69-2.432,0.119-3.833-0.719
		c-6.25-3.733-13.492-7.627-19.288-11.261c0.044-0.476-0.11-1.148,0.12-1.438C8.086,81.982,15.72,86.488,23.253,91.094z"/>
	<path style="fill-rule:evenodd;clip-rule:evenodd;" d="M60.391,84.146c0,0.52,0,1.038,0,1.558
		c-3.991-1.999-7.623-4.357-11.381-6.589c0.039-0.44-0.102-1.061,0.12-1.318C53.121,79.675,56.605,82.061,60.391,84.146z"/>
	<path style="fill-rule:evenodd;clip-rule:evenodd;" d="M60.511,97.803c9.995-6.059,20.229-11.877,30.309-17.851
		c1.486,1.626-1.829,2.795-3.234,3.595c-7.453,4.24-14.43,8.536-21.923,12.818C63.785,97.438,62.236,99.317,60.511,97.803z"/>
	<path style="fill-rule:evenodd;clip-rule:evenodd;" d="M0.251,86.782c5.177,2.77,10.207,5.687,15.095,8.745
		c-0.835,1.697-3.385-0.28-4.792-1.078c-3.418-1.937-7.366-4.426-10.423-6.109C0.18,87.829,0.016,87.105,0.251,86.782z"/>
	<path style="fill-rule:evenodd;clip-rule:evenodd;" d="M49.129,86.782c3.92,1.99,7.417,4.403,11.261,6.469
		c0.049,0.666,0.168,1.047-0.12,1.558c-3.837-2.073-7.589-4.231-11.142-6.589C48.942,87.945,48.942,87.056,49.129,86.782z"/>
	<path style="fill-rule:evenodd;clip-rule:evenodd;" d="M90.82,89.058c0.08,0,0.16,0,0.24,0c0.7,1.806-0.932,2.066-2.516,2.995
		c-5.393,3.162-10.49,6.091-16.053,9.344c-1.429,0.836-2.594,2.444-3.954,0.839C75.82,97.699,83.438,93.497,90.82,89.058z"/>
	<path style="fill-rule:evenodd;clip-rule:evenodd;" d="M0.131,91.335c3.956,1.953,7.601,4.219,11.261,6.469
		c-1.552,1.561-4.371-0.94-6.349-2.037c-1.907-1.057-3.505-2.164-4.912-2.875C0.131,92.373,0.131,91.853,0.131,91.335z"/>
	<path style="fill-rule:evenodd;clip-rule:evenodd;" d="M60.031,97.683c-0.053,0.626-0.919,0.438-1.198,0.839
		c-2.423-1.284-4.732-2.639-7.308-4.193c-0.583-0.352-1.866-1.307-2.396-1.317c-0.614-0.012-1.723,0.996-2.516,1.438
		c-0.861,0.479-1.843,0.867-2.636,1.317c-1.836,1.045-4.403,3.613-6.11,2.157c3.425-2.359,7.472-4.628,11.022-6.589
		c0.492-0.272,2.348,1.176,2.995,1.557C54.644,94.514,57.525,95.995,60.031,97.683z"/>
	<path style="fill-rule:evenodd;clip-rule:evenodd;" d="M0.251,95.886c2.575,1.179,4.735,2.772,7.188,4.073
		c-0.3,0.499-0.816,0.781-1.438,0.959c-1.8-1.315-3.94-2.29-5.87-3.475C0.18,96.933,0.016,96.21,0.251,95.886z"/>
	<path style="fill-rule:evenodd;clip-rule:evenodd;" d="M49.01,95.886c2.594,1.12,4.803,2.625,7.068,4.073
		c-1.722,1.957-5.176-1.923-6.949-2.516C48.894,97.121,49.058,96.397,49.01,95.886z"/>
	<path style="fill-rule:evenodd;clip-rule:evenodd;" d="M91.06,98.283c0.825,1.872-1.808,2.366-3.235,3.234
		c-2.429,1.478-4.211,2.598-6.708,4.073c-1.537,0.907-3.372,2.656-4.792,1.317C81.027,103.824,85.855,100.865,91.06,98.283z"/>
	<path style="fill-rule:evenodd;clip-rule:evenodd;" d="M0.251,100.439c1.181,0.456,2.147,1.127,3.115,1.797
		c-0.677,1.426-2.325,0.464-3.115-0.239C0.062,101.69,0.062,100.745,0.251,100.439z"/>
	<path style="fill-rule:evenodd;clip-rule:evenodd;" d="M52.124,102.236c-0.108,0.571-0.72,0.637-1.198,0.839
		c-1.6-2.111-3.426,0.884-5.151-0.6c0.962-0.566,2.061-2.011,3.234-2.036C50.187,100.414,51.099,101.758,52.124,102.236z"/>
	<path style="fill-rule:evenodd;clip-rule:evenodd;" d="M91.06,107.267c0.687,1.987-1.292,2.201-2.875,3.115
		c-1.444,0.834-2.938,2.618-4.073,0.839C86.454,109.929,88.526,108.368,91.06,107.267z"/>
	<path style="fill-rule:evenodd;clip-rule:evenodd;" d="M18.102,94.089C12.03,90.777,6.152,87.27,0.251,83.787
		c-0.078-0.575-0.18-1.014,0-1.558c6.526,3.497,12.749,7.297,19.048,11.021C18.822,93.101,18.47,93.769,18.102,94.089z"/>
</g>
<g id="Layer_1">
</g>
</svg>
