<?xml version="1.0" encoding="iso-8859-1"?>
<!-- Generator: Adobe Illustrator 19.2.0, SVG Export Plug-In . SVG Version: 6.00 Build 0)  -->
<svg version="1.1" xmlns="http://www.w3.org/2000/svg" xmlns:xlink="http://www.w3.org/1999/xlink" x="0px" y="0px"
	 viewBox="0 0 69.563 76.527" style="enable-background:new 0 0 69.563 76.527;" xml:space="preserve">
<g id="Russell_x5F_and_x5F_Hinrichs">
	<path style="fill-rule:evenodd;clip-rule:evenodd;" d="M52.634,62.081c-0.301,1.001-0.092,2.082-0.145,3.198
		c-0.049,1.031-0.063,2.109-0.097,3.197c-0.099,3.174,0.505,7.03-2.035,7.85c-0.795,0.256-1.852,0.194-2.907,0.194
		c-1.045-0.001-2.158,0.033-2.956-0.146c-1.136-0.255-1.954-1.065-2.229-1.986c-0.417-1.397-0.145-3.215-0.145-4.893
		c0-1.802,0.038-3.331,0.097-5.039c0.115-3.318,1.317-5.7,2.568-7.704c1.323-2.118,2.767-4.098,4.215-6.057
		c1.454-1.967,3.015-3.872,4.264-6.008c2.444-4.18,4.796-9.182,5.475-15.068c0.758-6.58-0.93-12.679-3.343-16.765
		c-2.01-3.201-4.376-5.757-7.655-7.752c-1.054-0.642-2.204-1.315-3.392-1.745c-4.962-1.794-12.006-2.731-17.588-0.823
		c-5.254,1.796-9.024,4.277-11.725,8.818c-1.286,2.161-2.114,4.591-2.665,7.606c-0.399,2.188-0.466,4.479-0.533,7.074
		c-0.021,0.82,0.097,1.626-0.049,2.374c-0.143,0.736-0.536,1.51-0.872,2.277c-1.918,4.383-3.583,8.606-5.62,12.985
		c-0.579,1.246-1.301,2.977,0.339,3.488c0.75,0.234,2.008,0.097,3.101,0.097c1.17,0,2.352-0.134,3.052,0.194
		c0.319,0.839,0.194,1.794,0.194,2.713c0,0.939,0,1.902,0,2.858c0,1.913-0.263,3.901,0.048,5.621
		c0.033,0.179,0.053,0.252,0.097,0.388c0.569,1.768,1.919,2.277,4.215,2.277c1.445-0.001,3.14-0.049,4.796-0.049
		c0.491,0,1.159-0.076,1.405,0.193c0.418,0.457,0.143,2.273,0.146,3.149c0.002,0.949,0.048,2.276,0.048,3.295
		c0,2.314,0.207,4.863-0.436,6.299c-0.862,1.926-3.099,1.884-6.008,1.793c-2.036-0.065-3.474-0.139-4.167-1.6
		c-0.79-1.664-0.407-4.341-0.436-6.638c-0.031-2.438,0.105-4.992-0.048-7.171c-0.091-1.295-1.025-2.583-1.696-3.683
		c-0.643-1.053-1.329-2.112-1.89-3.052c-1.224-2.052-2.612-4.039-3.731-6.105c-1.133-2.092-2.238-4.271-3.004-6.831
		c-0.791-2.644-1.157-5.283-1.308-8.527c-0.073-1.569,0.127-3.084,0.242-4.604c0.109-1.439,0.481-2.855,0.824-4.118
		c2.129-7.856,6.03-13.457,12.016-17.491c6.2-4.07,14.76-6.991,25.195-5.959c4.722,0.467,8.564,1.877,11.967,3.682
		c2.307,1.224,4.297,2.607,5.96,4.458c3.243,3.609,5.501,8.435,6.638,14.196c0.27,1.366,0.515,2.998,0.581,4.651
		c0.038,0.949-0.104,1.754,0,2.519c0.095,0.69,0.367,1.281,0.63,1.938c1.495,3.73,2.874,7.502,4.36,11.29
		c0.491,1.25,1.266,2.529,1.114,3.973c-0.435,1.653-3.333,1.042-5.281,1.114c-0.675,0.025-1.415-0.098-1.696,0.146
		c-0.442,0.383-0.291,2.744-0.291,3.586c0,1.47-0.048,2.679-0.048,3.778c0,2.751,0.35,5.767-2.084,6.299
		C58.106,62.285,54.845,61.475,52.634,62.081z"/>
</g>
<g id="Layer_1">
</g>
</svg>
