<?xml version="1.0" encoding="iso-8859-1"?>
<!-- Generator: Adobe Illustrator 19.2.0, SVG Export Plug-In . SVG Version: 6.00 Build 0)  -->
<svg version="1.1" xmlns="http://www.w3.org/2000/svg" xmlns:xlink="http://www.w3.org/1999/xlink" x="0px" y="0px"
	 viewBox="0 0 76.1 75.704" style="enable-background:new 0 0 76.1 75.704;" xml:space="preserve">
<g id="sc_x5F_fromagerie">
	<path style="fill-rule:evenodd;clip-rule:evenodd;" d="M12.588,0.192C9.665,6.375,6.435,12.579,3.361,18.834
		c-0.764,1.556-1.585,3.085-2.365,4.636c-0.249,0.496-0.389,1.102-0.851,1.466C0.022,19.551,0.003,13.819,0.002,8.33
		c0-2.814-0.021-5.514,0.095-8.185c2.064-0.19,4.61-0.095,7.05-0.095C9.035,0.05,10.916-0.061,12.588,0.192z"/>
	<path style="fill-rule:evenodd;clip-rule:evenodd;" d="M25.267,0.145c0.256,2.733,0.143,5.585,0.142,8.421
		c0,5.495,0.061,11.056-0.047,16.37c-0.513-0.311-0.646-0.964-0.899-1.466c-0.759-1.512-1.609-3.127-2.364-4.684
		c-2.62-5.124-5.498-11.023-8.233-16.465c-0.177-0.35-0.663-1.204-0.899-1.75C12.83,0.256,12.665,0.11,13.155,0.05
		c0.942-0.113,2.032,0,3.076,0C19.194,0.05,22.398,0.05,25.267,0.145z"/>
	<path style="fill-rule:evenodd;clip-rule:evenodd;" d="M63.166,0.192c-0.078,0.587-0.458,1.038-0.71,1.561
		c-2.757,5.712-5.714,11.33-8.517,17.032c-0.762,1.551-1.48,3.111-2.271,4.684c-0.245,0.487-0.452,1.067-0.899,1.419
		c-0.147-7.25-0.142-14.189-0.142-21.717c0-1.043-0.096-2.592,0.189-2.98c0.035-0.044,0.087-0.072,0.142-0.095
		C54.998,0.159,59.283-0.027,63.166,0.192z"/>
	<path style="fill-rule:evenodd;clip-rule:evenodd;" d="M75.892,0.239c0.249,1.883,0.143,3.845,0.142,5.82
		c-0.002,6.294,0.044,12.798-0.047,18.925c-0.506-0.327-0.646-0.964-0.898-1.467c-1.779-3.537-3.679-7.232-5.488-10.835
		c-1.827-3.634-3.622-7.25-5.441-10.929c-0.252-0.508-0.592-0.984-0.662-1.561C67.503,0.145,71.964,0.05,75.892,0.239z"/>
	<path style="fill-rule:evenodd;clip-rule:evenodd;" d="M0.286,25.363c8.681,0.206,16.604-0.052,25.029,0.142
		c0.326,8.348-0.028,16.635,0.188,25.217c3.931,0.281,8.529-0.107,12.396,0.237c-0.781,2.16-1.896,4.195-2.934,6.292
		c-2.794,5.651-5.575,11.373-8.517,16.986c-0.131,0.25-0.236,0.534-0.378,0.804c-0.09,0.171-0.212,0.562-0.52,0.521
		c-0.252-7.736,0.075-16.616-0.19-24.65c-8.219-0.259-17.232,0.107-25.218-0.237C-0.029,43.652,0.05,35.983,0.049,28.58
		c0-0.988-0.071-2.505,0.095-3.123C0.178,25.413,0.23,25.386,0.286,25.363z"/>
	<path style="fill-rule:evenodd;clip-rule:evenodd;" d="M75.939,25.552c0.228,8.056,0.185,16.863,0.048,25.265
		c-8.406,0.333-16.767-0.162-25.171,0.142c-0.232,8.39,0.071,16.247-0.142,24.745c-0.496-0.325-0.689-0.928-0.947-1.419
		c-1.86-3.552-3.645-7.25-5.441-10.882c-1.546-3.127-3.19-6.193-4.684-9.368c-0.482-1.026-1.09-2.007-1.467-3.076
		c0.908-0.183,1.942-0.094,2.98-0.094c3.074,0,6.44,0.039,9.463-0.047c0.357-8.167-0.134-16.565,0.188-25.265
		C58.911,25.378,67.563,25.614,75.939,25.552z"/>
</g>
<g id="Layer_1">
</g>
</svg>
