<?xml version="1.0" encoding="iso-8859-1"?>
<!-- Generator: Adobe Illustrator 19.2.0, SVG Export Plug-In . SVG Version: 6.00 Build 0)  -->
<svg version="1.1" xmlns="http://www.w3.org/2000/svg" xmlns:xlink="http://www.w3.org/1999/xlink" x="0px" y="0px"
	 viewBox="0 0 71.841 67.49" style="enable-background:new 0 0 71.841 67.49;" xml:space="preserve">
<g id="SP_x5F_Powisle">
	<path style="fill-rule:evenodd;clip-rule:evenodd;" d="M50.174,36.863c-0.337,0.684-0.165,1.521-0.184,2.289
		c-0.222,9.312,0.152,18.894-0.137,28.245c-9.696,0.209-19.882-0.002-29.435,0c-1.278,0-2.457,0.021-3.571-0.092
		c-3.227-0.326-6.136-1.292-8.607-2.609c-2.823-1.507-5.34-3.189-7.507-5.585c-0.293-0.323-0.762-0.848-0.732-1.099
		c0.041-0.358,0.839-0.571,1.281-0.732c2.531-0.921,5.064-1.587,8.103-1.923c1.193-0.131,2.417-0.192,3.571-0.412
		c-0.533-0.451-1.24-0.631-1.877-0.869c-3.264-1.225-6.149-2.9-8.515-5.219c-0.348-0.341-0.929-0.788-1.419-1.328
		c-0.337-0.371-1.185-1.175-1.144-1.603c0.041-0.425,0.899-0.604,1.373-0.777c2.655-0.971,5.388-1.714,8.652-1.969
		c1.277-0.1,2.63-0.14,3.891-0.32c-0.222-0.347-0.662-0.353-1.007-0.458c-2.427-0.744-4.911-1.818-6.912-3.158
		c-1.688-1.131-3.234-2.343-4.716-3.938c-0.32-0.345-1.277-1.2-1.235-1.602c0.034-0.333,0.877-0.633,1.327-0.779
		c1.596-0.518,3.175-1.046,4.807-1.373c1.128-0.226,2.298-0.506,3.524-0.595c1.24-0.09,2.576-0.112,3.754-0.366
		c-0.948-0.546-1.999-0.787-2.975-1.19c-2.868-1.186-5.518-2.791-7.691-4.761c-0.695-0.631-1.312-1.313-2.014-2.105
		c-0.205-0.232-0.57-0.552-0.55-0.824c0.024-0.325,0.849-0.715,1.236-0.87c1.485-0.596,3.307-1.069,4.853-1.419
		c1.147-0.26,2.409-0.514,3.57-0.641c1.305-0.144,2.701-0.062,3.8-0.366c-0.612-0.464-1.394-0.532-2.06-0.778
		c-3.358-1.24-6.292-2.969-8.744-5.219c-0.963-0.885-1.911-1.833-2.609-2.976c0.406-0.588,1.18-0.737,1.831-0.962
		c3.371-1.16,7.264-2.06,11.765-2.06c1.715,0,3.421,0.058,5.174,0.228c3.081,0.301,6.293,1.266,8.789,2.289
		c2.26,0.927,4.375,1.95,6.454,3.205c0.297,0.179,0.776,0.473,0.916,0.457c0.393-0.042,0.49-0.715,0.687-1.19
		c1.283-3.107,3.229-5.491,5.723-7.416c2.872-2.294,6.329-3.725,11.17-3.982c1.465-0.078,3.016,0.249,4.349,0.55
		c4.067,0.916,6.892,2.726,9.385,5.219c3.178,3.178,5.752,8.044,5.265,14.144c-0.47,5.878-3.029,10.009-6.593,12.91
		C61.723,35.657,56.598,37.65,50.174,36.863z M48.892,13.883c-1.108,0.994-2.069,2.734-2.06,4.669
		c0.009,1.928,0.936,3.635,2.151,4.67c1.149,0.979,3.053,1.724,4.852,1.556c1.988-0.186,3.842-1.458,4.761-3.021
		c1.116-1.898,1.091-4.68-0.046-6.546c-0.88-1.444-2.942-3.026-5.585-2.93C51.204,12.345,49.818,13.052,48.892,13.883z
		 M30.993,18.826c-1.159,0-2.347-0.106-3.434-0.045c-1.609,0.089-3.371,0.183-5.035,0.183c-0.522,0-1.116-0.102-1.601,0.138
		c3.826,1.041,7.607,2.127,10.666,3.937c0.957,0.371,1.63,1.025,2.654,1.328c0.338-0.655,0.229-1.685,0.229-2.655
		c0-0.993,0.088-2.008-0.138-2.747C33.295,18.717,32.141,18.826,30.993,18.826z M29.711,31.141c-3.025-0.007-6.11-0.095-8.836,0.092
		c0.508,0.395,1.196,0.419,1.786,0.55c0.619,0.137,1.23,0.34,1.831,0.503c2.971,0.811,5.825,2.13,8.194,3.525
		c0.474,0.278,0.962,0.721,1.556,0.732c0.215-0.741,0.161-1.705,0.184-2.609c0.023-0.925-0.038-1.894-0.138-2.701
		C32.842,30.931,31.268,31.145,29.711,31.141z M31.497,43.273c-1.946,0-3.946-0.001-5.859,0c-1.011,0-2.037-0.108-2.93,0
		c-0.719,0.086-1.667-0.05-2.289,0.183c2.518,0.747,5.014,1.298,7.278,2.289c1.72,0.753,3.377,1.438,4.898,2.289
		c0.497,0.278,0.954,0.734,1.557,0.778c0.392-0.441,0.193-1.219,0.183-1.923c-0.019-1.24,0.133-2.593-0.092-3.479
		C33.398,43.169,32.454,43.272,31.497,43.273z M32.457,55.312c-3.812,0.178-8.468-0.163-12.177,0.092
		c0.354,0.341,0.894,0.356,1.328,0.458c3.424,0.809,6.628,1.893,9.293,3.388c1.209,0.408,1.985,1.249,3.25,1.602
		c0.231-0.963,0.183-2.246,0.183-3.433c0-0.69,0.093-1.396-0.137-1.923C33.681,55.237,33.047,55.284,32.457,55.312z"/>
</g>
<g id="Layer_1">
</g>
</svg>
