<?xml version="1.0" encoding="iso-8859-1"?>
<!-- Generator: Adobe Illustrator 19.2.0, SVG Export Plug-In . SVG Version: 6.00 Build 0)  -->
<svg version="1.1" xmlns="http://www.w3.org/2000/svg" xmlns:xlink="http://www.w3.org/1999/xlink" x="0px" y="0px"
	 viewBox="0 0 46.629 82.332" style="enable-background:new 0 0 46.629 82.332;" xml:space="preserve">
<g id="svt_x5F_societe_x5F_du_x5F_verre">
	<path style="fill-rule:evenodd;clip-rule:evenodd;" d="M46.475,0.153c0.193,13.885,0.104,27.563,0.104,41.52
		c0,1.898,0.152,3.779-0.104,5.557c0.209,4.398,0.185,9.191,0.052,13.633c-0.282,0.604-0.83,1.037-1.286,1.492
		c-1.793,1.793-3.724,3.57-5.557,5.402c-4.504,4.504-9.347,8.885-13.892,13.428c-0.216,0.217-0.476,0.439-0.72,0.67
		c-0.189,0.176-0.439,0.559-0.772,0.463c-0.169-14.31-0.173-29.84,0-44.35c4.208-0.262,8.831,0.033,12.965-0.205
		c0.279-1.088,0.154-2.246,0.154-3.395c-0.001-8.021,0.086-16.572-0.103-24.49c-9.055-0.162-18.648-0.174-27.886,0
		C9.106,18.862,9.354,28.245,9.38,37.659c0.912,0.363,2.058,0.207,3.139,0.207c3.225,0,6.85-0.084,9.93,0.102
		c0.196,14.645,0.172,29.219,0.052,43.99c-0.716,0.043-0.966-0.816-1.544-1.082c-1.344-1.383-2.811-2.643-4.167-4.012
		c-3.812-3.461-7.44-7.104-11.268-10.547c-1.764-1.873-3.849-3.422-5.505-5.402C0.094,40.874-0.125,20.419,0.12,0.206
		C0.862-0.06,1.674,0.102,2.435,0.102c2.39,0,4.831-0.051,7.306-0.051c3.249,0,6.571,0.209,9.879,0.051
		C26.191-0.21,32.873,0.35,39.323,0.051C41.71-0.06,44.14,0.026,46.475,0.153z M37.985,47.126c-1.458,0.131-3.151-0.223-4.527,0.154
		c-0.172,4.051-0.169,8.812,0,12.863c0.378,0.014,0.678-0.34,0.927-0.566c0.275-0.252,0.535-0.566,0.772-0.824
		c1.574-1.705,3.267-3.213,4.836-4.887c1.572-1.676,3.222-3.277,4.785-4.887c0.524-0.541,1.162-1.045,1.492-1.75
		C43.603,47.147,40.538,46.897,37.985,47.126z M0.377,47.229c-0.093,0.416,0.381,0.637,0.617,0.875
		c0.818,0.818,1.603,1.705,2.418,2.469c2.883,2.783,5.739,5.791,8.541,8.592c0.376,0.377,0.761,0.922,1.337,1.029
		c0.216-2.908,0.104-5.838,0.104-8.797c0-1.424,0.123-2.854-0.154-4.168C9.075,47.059,4.468,47.069,0.377,47.229z"/>
	<path style="fill-rule:evenodd;clip-rule:evenodd;" d="M14.937,33.03c-1.656-1.553-2.943-3.4-3.601-5.814
		c-0.723-2.652-0.542-5.586,0.412-8.025c1.628-4.164,5.691-7.615,11.113-7.871c1.961-0.094,3.594,0.332,5.144,0.977
		c4.011,1.666,7.361,5.353,7.769,10.342c0.485,5.936-2.771,10.197-6.637,12.193c-2.118,1.094-4.949,1.693-7.872,1.234
		C18.652,35.655,16.629,34.52,14.937,33.03z"/>
</g>
<g id="Layer_1">
</g>
</svg>
