<?xml version="1.0" encoding="iso-8859-1"?>
<!-- Generator: Adobe Illustrator 19.2.0, SVG Export Plug-In . SVG Version: 6.00 Build 0)  -->
<svg version="1.1" xmlns="http://www.w3.org/2000/svg" xmlns:xlink="http://www.w3.org/1999/xlink" x="0px" y="0px"
	 viewBox="0 0 74.151 73.197" style="enable-background:new 0 0 74.151 73.197;" xml:space="preserve">
<g id="salon_x5F_de_x5F_laudiovisuel_x5F_et_x5F_de_x5F_la_x5F_communication">
	<path style="fill-rule:evenodd;clip-rule:evenodd;" d="M37.151,0.001c0.042-0.008,0.047,0.022,0.05,0.051
		c0.769,0.547,1.472,1.904,2.215,2.869c0.208,0.272,0.642,0.807,0.604,1.059c-0.06,0.398-0.644,0.309-0.705,0.654
		c-0.152,4.891,0.006,9.904-0.05,14.598c-0.011,0.9,0.119,1.838-0.151,2.668c-0.508,0.197-1.262,0.17-1.963,0.15
		c-0.69-0.018-1.444,0.024-1.913-0.201C35,16.355,35.209,10.183,35.137,4.634c-0.067-0.424-0.718-0.25-0.806-0.654
		c-0.088-0.41,1.021-1.67,1.258-2.014C36.15,1.154,36.605,0.39,37,0.052C37.081,0.066,37.086,0.005,37.151,0.001z"/>
	<path style="fill-rule:evenodd;clip-rule:evenodd;" d="M15.605,11.429c0.155,0.295-0.175,0.518-0.151,0.807
		c0.039,0.457,1.148,1.369,1.46,1.66c0.634,0.59,1.12,1.135,1.611,1.51c1.066,0.998,2.056,2.072,3.121,3.07
		c1.041,1.023,2.039,2.09,3.071,3.123c1.028,1.027,2.165,1.971,3.021,3.17c-0.17,0.613-0.631,0.922-1.107,1.359
		c-0.306,0.281-0.888,1.094-1.359,1.108c-0.456,0.014-1.383-1.014-1.762-1.359c-0.602-0.545-1.04-1.09-1.51-1.561
		c-2.102-2.101-4.107-4.057-6.192-6.141c-0.451-0.451-1.02-0.92-1.561-1.51c-0.438-0.479-0.988-1.455-1.561-1.512
		c-0.435-0.043-0.621,0.404-0.906,0.252c-0.484-0.598-0.425-1.549-0.604-2.416c-0.17-0.826-0.472-1.711-0.302-2.467
		c0.607-0.152,1.657,0.133,2.617,0.303C14.286,10.966,15.118,11.124,15.605,11.429z"/>
	<path style="fill-rule:evenodd;clip-rule:evenodd;" d="M63.277,10.724c-0.046,1.551-0.429,3.193-0.805,4.582
		c-0.316,0.18-0.535-0.125-0.856-0.102c-0.94,0.6-1.663,1.469-2.467,2.215c-2.37,2.203-4.588,4.664-6.896,6.998
		c-1.093,0.953-1.911,2.182-3.222,2.92c-0.508-0.293-0.887-0.637-1.359-1.107c-0.302-0.303-1.099-0.916-1.107-1.359
		c-0.008-0.381,0.621-0.873,0.956-1.209c1.809-1.809,3.645-3.545,5.387-5.336c0.958-0.984,1.983-1.787,2.718-2.92
		c0.438-0.359,0.945-0.85,1.561-1.408c0.414-0.377,1.358-1.109,1.41-1.561c0.04-0.357-0.309-0.517-0.252-0.857
		c0.43-0.428,1.28-0.43,2.014-0.553c0.768-0.129,1.609-0.416,2.265-0.453C62.851,10.56,63.09,10.544,63.277,10.724z"/>
	<path style="fill-rule:evenodd;clip-rule:evenodd;" d="M28.845,12.236c1.162,1.74,1.631,4.174,2.819,5.889
		c0.279,0.09,0.646-0.156,0.906,0.051c0.058,0.766-0.287,1.553-0.503,2.315c-0.216,0.76-0.216,1.66-0.755,2.166
		c-0.757-0.115-1.434-0.615-2.115-1.008c-0.674-0.387-1.418-0.748-1.913-1.309c0.021-0.432,0.549-0.357,0.604-0.754
		c-0.32-1.291-1.18-2.963-1.812-4.432c-0.182-0.422-0.588-1.172-0.503-1.561c0.101-0.461,1.049-0.605,1.51-0.805
		C27.68,12.531,28.104,12.216,28.845,12.236z"/>
	<path style="fill-rule:evenodd;clip-rule:evenodd;" d="M48.779,13.644c-0.417,1.439-1.099,2.893-1.711,4.379
		c-0.164,0.398-0.586,1.074-0.554,1.461c0.035,0.428,0.512,0.471,0.503,0.805c-0.011,0.461-1.583,1.113-1.913,1.311
		c-0.344,0.205-0.67,0.393-1.007,0.604c-0.233,0.144-0.705,0.586-1.057,0.502c-0.505-0.117-0.608-1.58-0.755-2.164
		c-0.207-0.824-0.568-1.525-0.453-2.365c1.001,0.236,1.231-0.641,1.561-1.41c0.461-1.074,0.879-1.953,1.259-2.971
		c0.213-0.57,0.392-1.166,0.705-1.459C46.237,12.14,48.183,13.095,48.779,13.644z"/>
	<path style="fill-rule:evenodd;clip-rule:evenodd;" d="M61.565,28.445c-0.814,0.658-1.93,1-2.97,1.408
		c-0.512,0.203-1.003,0.467-1.51,0.656c-0.516,0.191-1.105,0.279-1.46,0.703c-0.104,0.215,0.019,0.656-0.151,0.807
		c-0.737,0.014-1.531-0.195-2.266-0.404c-0.7-0.197-1.486-0.309-2.014-0.703c0.138-0.842,0.672-1.467,1.057-2.115
		c0.386-0.646,0.722-1.324,1.208-1.912c0.33-0.037,0.449,0.447,0.805,0.502c0.344,0.055,0.883-0.334,1.41-0.553
		c1.323-0.549,3.109-1.355,4.229-1.711c0.475-0.152,0.946,1.02,1.107,1.408C61.302,27.23,61.513,27.57,61.565,28.445z"/>
	<path style="fill-rule:evenodd;clip-rule:evenodd;" d="M23.106,30.96c-0.562,0.479-1.464,0.492-2.266,0.705
		c-0.766,0.205-1.597,0.549-2.315,0.404c-0.248-0.168,0.058-0.588-0.101-0.807c-0.818-0.697-1.979-0.935-3.021-1.41
		c-1.023-0.465-2.142-0.805-2.919-1.51c0.033-0.57,0.337-1.049,0.553-1.561c0.172-0.406,0.434-1.51,0.906-1.611
		c0.38-0.08,1.084,0.391,1.51,0.555c1.135,0.438,1.871,0.691,2.97,1.158c0.429,0.182,1.139,0.588,1.46,0.553
		c0.269-0.029,0.511-0.547,0.755-0.553c0.451-0.01,1.167,1.6,1.359,1.912C22.462,29.55,22.989,30.179,23.106,30.96z"/>
	<path style="fill-rule:evenodd;clip-rule:evenodd;" d="M3.926,33.829c0.458-0.004,0.347,0.561,0.705,0.656
		c4.303,0.111,8.966-0.004,13.34,0.1c1.465,0.035,2.915-0.23,4.228,0.152c0.166,1.066,0.166,2.807,0,3.875
		c-0.641,0.27-1.399,0.152-2.114,0.152c-3.682-0.002-7.248,0-11.075,0c-0.654-0.002-1.402,0.031-2.215,0
		c-0.686-0.029-1.66-0.174-2.114,0c-0.356,0.135-0.301,0.527-0.655,0.703c-1.131-0.49-2.04-1.303-3.121-2.014
		C0.644,37.282-0.003,36.97,0,36.65c0.004-0.455,1.483-1.256,1.812-1.461C2.72,34.626,3.186,34.218,3.926,33.829z"/>
	<path style="fill-rule:evenodd;clip-rule:evenodd;" d="M70.174,33.931c0.936,0.488,2.07,1.258,3.121,2.014
		c0.265,0.189,0.845,0.52,0.855,0.807c0.02,0.539-1.509,1.33-1.862,1.559c-0.78,0.508-1.422,0.867-2.114,1.311
		c-0.404-0.051-0.331-0.576-0.705-0.654c-5.186,0.092-10.704-0.123-15.555-0.051c-0.612,0.008-1.418,0.195-1.913-0.15
		c-0.166-1.053-0.166-2.775,0-3.826c0.59-0.334,1.319-0.201,2.014-0.201c5.019,0,10.4-0.002,15.454,0
		C69.892,34.656,69.759,34.021,70.174,33.931z"/>
	<path style="fill-rule:evenodd;clip-rule:evenodd;" d="M18.978,41.13c1.343,0.418,3.006,0.516,4.078,1.207
		c-0.146,0.832-0.683,1.471-1.057,2.115c-0.38,0.654-0.759,1.307-1.259,1.861c-0.383,0-0.46-0.441-0.805-0.502
		c-0.414-0.074-1.044,0.285-1.56,0.502c-1.001,0.426-1.833,0.775-2.87,1.209c-0.406,0.17-1.187,0.547-1.51,0.504
		c-0.443-0.061-0.735-0.998-0.906-1.41c-0.279-0.672-0.422-1.098-0.604-1.711c0.657-0.814,1.897-1.145,2.97-1.561
		c1.078-0.418,2.233-0.767,3.021-1.461c0.02-0.238-0.155-0.523,0.05-0.654C18.581,41.101,18.795,41.132,18.978,41.13z"/>
	<path style="fill-rule:evenodd;clip-rule:evenodd;" d="M55.525,41.181c0.099,0.135,0.03,0.439,0.05,0.654
		c0.207,0.434,0.763,0.621,1.258,0.805c1.083,0.4,2.062,0.746,3.272,1.258c0.452,0.191,1.422,0.498,1.51,0.906
		c0.081,0.373-0.419,1.377-0.554,1.713c-0.237,0.59-0.445,1.121-0.806,1.459c-1.341-0.264-2.675-0.977-3.977-1.459
		c-0.527-0.197-1.238-0.855-1.963-0.756c-0.408,0.055-0.4,0.447-0.705,0.453c-0.383,0.008-1.186-1.516-1.359-1.812
		c-0.208-0.354-0.366-0.697-0.554-1.006c-0.136-0.225-0.566-0.76-0.503-1.059c0.113-0.535,3.137-1.012,3.675-1.156
		C54.975,41.152,55.361,41.066,55.525,41.181z"/>
	<path style="fill-rule:evenodd;clip-rule:evenodd;" d="M61.515,57.943c0.373,0.037,0.534-0.404,0.856-0.252
		c0.349,0.203,0.323,0.721,0.402,1.109c0.242,1.178,0.582,2.602,0.503,3.725c-0.793,0.205-1.692-0.129-2.517-0.303
		c-0.835-0.176-1.767-0.144-2.366-0.603c-0.125-0.291,0.243-0.484,0.251-0.805c-0.477-0.68-1.147-1.303-1.812-1.914
		c-0.656-0.604-1.189-1.26-1.762-1.912c-0.308-0.352-0.746-0.648-1.108-1.059c-2.012-2.279-4.182-4.232-6.393-6.443
		c-0.335-0.334-0.946-0.807-0.957-1.158c-0.013-0.463,0.71-0.961,1.058-1.309c0.514-0.514,0.823-0.916,1.208-1.156
		c0.559-0.186,1.335,0.84,1.812,1.309c1.043,1.021,1.981,1.85,2.92,2.92c0.482,0.549,1.024,0.957,1.46,1.459
		c0.156,0.18,0.246,0.426,0.403,0.604c0.922,1.051,1.989,2.059,2.97,2.971C59.501,56.107,60.429,57.161,61.515,57.943z"/>
	<path style="fill-rule:evenodd;clip-rule:evenodd;" d="M26.529,47.019c0.302,0.486,1.155,0.729,1.158,1.359
		c0.002,0.51-1.021,1.25-1.46,1.662c-0.64,0.6-1.12,1.115-1.56,1.51c-0.978,1.086-2.004,2.123-3.121,3.07
		c-1.347,1.414-3.055,3.055-4.631,4.631c-0.351,0.352-1.442,1.045-1.51,1.562c-0.047,0.354,0.321,0.609,0.251,0.955
		c-0.444,0.344-1.072,0.301-1.661,0.402c-1.013,0.178-2.08,0.633-3.071,0.402c-0.132-0.73,0.14-1.623,0.252-2.467
		c0.111-0.836,0.266-1.715,0.604-2.314c0.388-0.053,0.47,0.201,0.806,0.201c0.616-0.344,1.12-0.91,1.611-1.459
		c1.398-1.568,3.049-2.994,4.53-4.582c1.441-1.543,3.162-2.959,4.682-4.481c0.514-0.514,1.016-1.164,1.561-1.51
		C25.571,45.579,26.128,46.677,26.529,47.019z"/>
	<path style="fill-rule:evenodd;clip-rule:evenodd;" d="M47.068,52.759c0.033,0.455-0.5,0.459-0.554,0.855
		c-0.052,0.375,0.409,0.973,0.604,1.459c0.406,1.012,0.694,1.939,1.158,2.92c0.205,0.432,0.594,1.098,0.503,1.51
		c-0.089,0.402-1.061,0.727-1.46,0.906c-0.652,0.295-1.085,0.439-1.762,0.555c-0.469-0.299-0.598-0.92-0.806-1.41
		c-0.218-0.514-0.434-1.045-0.654-1.56c-0.442-1.033-0.801-2.125-1.41-2.971c-0.233-0.115-0.592,0.096-0.856-0.049
		c0.035-1.596,0.651-3.041,1.007-4.48c0.622-0.283,1.697,0.639,2.316,1.006C45.906,51.947,46.605,52.281,47.068,52.759z"/>
	<path style="fill-rule:evenodd;clip-rule:evenodd;" d="M32.52,54.974c-0.186,0.133-0.67-0.033-0.856,0.1
		c-0.625,0.555-0.848,1.666-1.258,2.668c-0.235,0.574-0.471,1.033-0.755,1.713c-0.192,0.459-0.51,1.396-0.906,1.51
		c-0.43,0.121-1.194-0.322-1.662-0.504c-0.614-0.24-1.181-0.346-1.51-0.756c0.177-1.027,0.649-1.93,1.108-3.07
		c0.173-0.43,0.422-0.932,0.655-1.459c0.191-0.432,0.603-1.115,0.554-1.512c-0.049-0.391-0.445-0.43-0.554-0.754
		c0.356-0.584,1.11-0.877,1.712-1.258c0.672-0.428,1.328-0.938,2.014-1.209c0.623-0.246,0.869,1.568,1.007,2.064
		C32.304,53.361,32.623,54.089,32.52,54.974z"/>
	<path style="fill-rule:evenodd;clip-rule:evenodd;" d="M39.063,51.247c0.274,1.361,0.151,2.828,0.151,4.279
		c0,4.269-0.021,8.672,0,13.039c0.061,0.441,0.713,0.244,0.806,0.654c0.08,0.356-0.457,0.76-0.654,1.057
		c-0.558,0.838-0.816,1.178-1.41,2.014c-0.238,0.336-0.463,0.898-0.805,0.906c-0.465,0.01-1.286-1.535-1.51-1.863
		c-0.159-0.23-0.462-0.613-0.705-0.957c-0.183-0.258-0.62-0.85-0.604-1.057c0.032-0.416,0.551-0.361,0.705-0.654
		c0.09-4.98,0.05-10.396,0.05-15.555c0-0.67-0.174-1.449,0.252-1.963C36.447,51.124,37.988,51.074,39.063,51.247z"/>
</g>
<g id="Layer_1">
</g>
</svg>
