<?xml version="1.0" encoding="iso-8859-1"?>
<!-- Generator: Adobe Illustrator 19.2.0, SVG Export Plug-In . SVG Version: 6.00 Build 0)  -->
<svg version="1.1" xmlns="http://www.w3.org/2000/svg" xmlns:xlink="http://www.w3.org/1999/xlink" x="0px" y="0px"
	 viewBox="0 0 129.701 125.622" style="enable-background:new 0 0 129.701 125.622;" xml:space="preserve">
<g id="San_x5F_Francisco_x5F_Opera">
	<path style="fill-rule:evenodd;clip-rule:evenodd;" d="M59.271,38.035c-1.208-0.716-0.906-1.828-1.2-2.76
		c-2.618-8.292-5.596-18.661-8.278-27.836c-0.393-1.341-1.238-3.054-1.2-3.959c0.052-1.238,1.38-2.457,1.92-3.48
		c0.879,0.795,2.72,1.159,3.239,2.16c0.467,0.901,0.474,3.215,0.72,4.56c0.804,4.388,1.608,9.078,2.28,13.318
		C57.767,26.445,58.759,32.406,59.271,38.035z"/>
	<path style="fill-rule:evenodd;clip-rule:evenodd;" d="M70.43,38.154c-0.149-2.862,0.7-5.736,1.199-8.759
		c1.186-7.178,2.498-14.749,3.72-22.316c0.236-1.462,0.292-3.393,0.72-4.439c0.12-0.294,2.652-2.662,3.12-2.64
		c0.528,0.025,2.08,2.623,2.159,3.24c0.134,1.041-0.916,3.189-1.319,4.439c-2.896,8.977-4.848,17.703-7.799,26.636
		C71.792,35.637,71.368,37.143,70.43,38.154z"/>
	<path style="fill-rule:evenodd;clip-rule:evenodd;" d="M64.91,27.236c-0.867-1.14-0.719-2.571-0.84-4.08
		c-0.168-2.091-0.386-4.853-0.6-7.439c-0.207-2.492-1.006-5.638-0.601-7.199c0.217-0.832,1.467-1.387,1.92-1.92
		c0.394,0.529,1.696,0.989,1.92,1.68c0.225,0.693-0.167,1.898-0.24,2.76C66.06,15.877,65.756,22.649,64.91,27.236z"/>
	<path style="fill-rule:evenodd;clip-rule:evenodd;" d="M41.874,11.519c2.107,6.011,5.049,11.828,6.599,17.997
		c-1.921-2.026-3.329-4.873-5.159-7.919c-0.737-1.226-1.509-2.552-2.399-4.079c-1.178-2.02-3.451-4.253-1.441-6.599
		C40.411,10.981,40.994,11.399,41.874,11.519z"/>
	<path style="fill-rule:evenodd;clip-rule:evenodd;" d="M90.706,14.158c-1.639,2.752-3.276,5.614-4.919,8.398
		c-1.646,2.792-3.107,5.747-5.279,8.039c1.829-6.33,4.366-11.952,6.6-17.877c0.909-0.106,1.666-0.945,2.399-0.72
		C90.364,12.262,90.041,13.51,90.706,14.158z"/>
	<path style="fill-rule:evenodd;clip-rule:evenodd;" d="M28.075,12.839c3.637,4.956,6.993,10.042,10.438,15.118
		c3.401,5.009,7.54,9.569,10.438,14.997c-1.512-0.481-2.37-1.975-3.359-3.12c-2.93-3.391-6.037-6.434-9.238-9.958
		c-2.886-3.178-5.917-6.767-9.119-10.199c-0.854-0.916-2.733-2.409-2.999-3.359c-0.128-0.457-0.156-3.222,0-3.479
		C24.866,11.799,26.67,13.072,28.075,12.839z"/>
	<path style="fill-rule:evenodd;clip-rule:evenodd;" d="M105.104,12.479c0.08,0,0.16,0,0.24,0c0.021,0.996,0.728,2.535,0.479,3.719
		c-0.167,0.796-2.171,2.694-2.999,3.6c-6.271,6.848-12.482,13.452-18.838,20.157c-1.039,1.097-1.853,2.634-3.359,3.12
		c1.327-2.671,3.071-5.285,5.039-7.679c4.722-5.742,8.74-12.177,13.318-18.477C100.673,14.595,101.543,12.541,105.104,12.479z"/>
	<path style="fill-rule:evenodd;clip-rule:evenodd;" d="M36.595,40.315c-5.538-3.101-10.714-6.565-15.958-9.959
		c-0.279-0.72-0.249-1.751-0.24-2.759c3.044-1.345,5.048,2.048,6.839,3.719C30.289,34.163,34.12,36.971,36.595,40.315z"/>
	<path style="fill-rule:evenodd;clip-rule:evenodd;" d="M109.304,27.476c0.329,0.814-0.079,1.7,0,2.64
		c-5.263,3.496-10.519,6.999-16.077,10.199c0.337-1.438,1.849-2.302,2.999-3.36c3.182-2.924,7.001-6.81,10.198-9.479
		C106.97,27.022,108.425,27.509,109.304,27.476z"/>
	<path style="fill-rule:evenodd;clip-rule:evenodd;" d="M66.23,31.316c-0.22,3.08-0.758,6.638-0.96,9.839
		c-0.075,1.183,0.242,2.754-0.601,3.599c-0.373-1.718-0.498-4.084-0.72-6.599c-0.196-2.231-1.003-5.186-0.6-6.719
		C63.75,29.914,65.485,29.802,66.23,31.316z"/>
	<path style="fill-rule:evenodd;clip-rule:evenodd;" d="M51.592,32.995c1.73,4.15,3.414,8.345,4.92,12.718
		c-1.537-1.189-2.475-3.386-3.84-5.639c-0.528-0.872-1.165-1.805-1.8-2.879c-0.485-0.823-1.722-2.304-1.8-2.88
		C48.887,32.943,50.242,32.081,51.592,32.995z"/>
	<path style="fill-rule:evenodd;clip-rule:evenodd;" d="M72.709,45.953c1.251-4.548,3.127-8.471,4.68-12.718
		c1.241-0.938,2.796-0.386,2.64,1.08c-0.047,0.441-0.472,0.606-0.72,0.96C77.142,38.362,75.031,43.788,72.709,45.953z"/>
	<path style="fill-rule:evenodd;clip-rule:evenodd;" d="M41.754,51.953c-9.488-3.645-19.789-7.802-29.636-11.878
		c-2.911-1.205-5.185-1.948-5.64-5.279c1.071-0.115,2.512-1.084,3.6-0.96c0.743,0.085,2.213,0.841,3,1.2
		c2.392,1.092,4.821,2.786,7.318,4.199c4.801,2.715,9.71,5.753,14.519,8.399C37.356,48.977,40.179,49.844,41.754,51.953z"/>
	<path style="fill-rule:evenodd;clip-rule:evenodd;" d="M122.981,35.035c-0.555,0.874-0.397,2.532-1.199,3.359
		c-0.688,0.71-2.979,1.286-4.199,1.8c-4.187,1.764-8.745,3.548-12.839,5.159c-6.001,2.362-11.531,5.19-17.037,6.599
		c1.98-1.936,4.625-3.071,7.079-4.439c4.891-2.727,9.813-5.462,14.758-8.279c2.391-1.362,4.91-3.003,7.318-4.08
		c0.829-0.37,1.854-0.383,2.521-1.08C120.533,34.445,121.897,34.6,122.981,35.035z"/>
	<path style="fill-rule:evenodd;clip-rule:evenodd;" d="M62.99,54.592c-1.26-2.655-2.346-6.975-3.239-10.559
		c-0.19-0.766-1.073-2.987-0.96-3.6c0.179-0.964,1.436-0.828,1.8-0.24c0.413,0.665,0.436,2.844,0.6,3.719
		C61.84,47.36,62.635,51.226,62.99,54.592z"/>
	<path style="fill-rule:evenodd;clip-rule:evenodd;" d="M66.35,55.552c0.66-4.998,1.809-10.71,2.76-15.478
		c3.126-1.396,0.673,4.024,0.12,5.879C68.212,49.37,67.759,53.367,66.35,55.552z"/>
	<path style="fill-rule:evenodd;clip-rule:evenodd;" d="M91.666,41.514c-0.117,0.482-0.146,1.053-0.119,1.68
		c-1.885,1.373-3.899,2.728-5.88,4.08c-1.953,1.331-3.908,2.766-5.999,3.599c2.688-2.845,6.637-6.855,9.719-9.479
		C89.797,41.045,90.935,41.343,91.666,41.514z"/>
	<path style="fill-rule:evenodd;clip-rule:evenodd;" d="M49.912,51.353c-2.907-1.339-5.938-3.537-8.998-5.519
		c-1.337-0.866-3.167-1.501-2.88-3.72c1.885-1.108,3.888,1.284,5.039,2.4C45.294,46.664,48.121,49.354,49.912,51.353z"/>
	<path style="fill-rule:evenodd;clip-rule:evenodd;" d="M60.23,56.992c-2.593-2.368-5.545-5.517-8.278-8.519
		c-0.463-0.508-2.432-2.409-2.52-3c-0.122-0.823,0.543-1.445,1.319-1.32c0.796,0.128,2.075,2.504,2.52,3.12
		C55.665,50.586,58.196,53.545,60.23,56.992z"/>
	<path style="fill-rule:evenodd;clip-rule:evenodd;" d="M79.668,44.154c0.775,1.577-0.988,2.577-1.8,3.479
		c-0.896,0.996-1.839,2.069-2.64,3c-1.787,2.077-3.441,4.379-5.399,5.759c1.709-2.671,4.284-6.205,6.359-9.118
		C77.011,46.12,78.076,44.007,79.668,44.154z"/>
	<path style="fill-rule:evenodd;clip-rule:evenodd;" d="M120.462,50.393c-0.415,2.463-3.111,2.241-5.999,2.64
		c-4.441,0.613-9.799,1.61-14.038,1.8c2.184-1.314,5.32-2.221,8.399-3.239c3.229-1.069,6.633-1.878,9.118-3
		C118.562,48.314,120.196,49.901,120.462,50.393z"/>
	<path style="fill-rule:evenodd;clip-rule:evenodd;" d="M29.756,55.072c-6.199-0.324-12.319-1.756-18.718-2.28
		c-0.362-0.878-1.1-1.38-1.319-2.4c0.371-0.249,1.397-1.502,1.919-1.44c2.778,0.329,5.977,1.84,9.239,2.879
		c1.585,0.505,3.2,0.949,4.679,1.44C27.086,53.781,28.85,53.959,29.756,55.072z"/>
	<path style="fill-rule:evenodd;clip-rule:evenodd;" d="M58.191,59.632c-3.504-1.077-7.376-2.968-11.158-4.559
		c-1.451-0.611-3.822-0.97-3.84-2.64c1.114-1.067,3.124,0.67,4.56,1.44C51.134,55.687,55.338,57.616,58.191,59.632z"/>
	<path style="fill-rule:evenodd;clip-rule:evenodd;" d="M86.387,52.433c-0.109,0.45-0.271,0.848-0.359,1.319
		c-4.99,1.89-9.656,4.102-14.638,6c1.697-1.529,4.229-2.568,6.599-3.839c2.443-1.312,4.883-2.912,7.079-3.84
		C85.321,51.965,86.047,52.485,86.387,52.433z"/>
	<path style="fill-rule:evenodd;clip-rule:evenodd;" d="M98.506,55.312c-0.098,1.638-1.237,1.687-3,1.92
		c-3.314,0.438-8.392,1.412-11.639,1.68c1.404-1.306,3.897-1.67,6.239-2.4C93.102,55.578,96.381,53.265,98.506,55.312z"/>
	<path style="fill-rule:evenodd;clip-rule:evenodd;" d="M46.793,58.792c-2.138,0.409-5.361-0.486-8.279-0.84
		c-2.744-0.333-5.863-0.037-6.479-2.28c0.94-1.87,2.747-0.777,4.799-0.12C39.966,56.555,44.139,57.679,46.793,58.792z"/>
	<path style="fill-rule:evenodd;clip-rule:evenodd;" d="M39.354,62.751c-2.685,0.864-5.746,0.641-8.878,0.84
		c-7.224,0.46-15.196,0.975-22.677,1.44c-1.542,0.096-3.357,0.466-4.559,0.24c-1.378-0.26-2.168-1.733-3.239-2.52
		c0.929-0.812,1.715-2.548,2.999-2.76c1.398-0.23,3.664,0.262,5.279,0.36c6.943,0.421,15.386,1.032,23.396,1.56
		C34.369,62.089,37.042,61.93,39.354,62.751z"/>
	<path style="fill-rule:evenodd;clip-rule:evenodd;" d="M129.701,62.871c-1.017,0.711-1.789,2.468-3,2.759
		c-1.051,0.253-3.165-0.258-4.68-0.36c-9.363-0.632-18.416-1.23-27.596-1.8c-1.412-0.088-3.12,0.301-4.199-0.72
		c10.052-0.804,23.36-1.823,33.595-2.28c0.653-0.029,1.901-0.162,2.64,0C127.776,60.76,128.527,62.278,129.701,62.871z"/>
	<path style="fill-rule:evenodd;clip-rule:evenodd;" d="M58.311,62.751c-4.087,0.643-10.34,0.656-14.518,0.84
		c-0.991,0.044-2.729,0.397-2.879-0.6c-0.246-1.62,2.9-0.904,4.319-0.84C49.299,62.336,54.646,62.242,58.311,62.751z"/>
	<path style="fill-rule:evenodd;clip-rule:evenodd;" d="M88.667,62.751c-0.266,1.225-1.354,0.88-2.399,0.84
		c-4.235-0.163-9.963-0.305-14.158-0.72c4.008-0.67,10.189-0.771,14.518-0.84C87.537,62.017,88.289,61.785,88.667,62.751z"/>
	<path style="fill-rule:evenodd;clip-rule:evenodd;" d="M86.387,73.19c-1.506,0.734-2.991-0.42-4.199-1.08
		c-3.687-2.014-7.62-4.34-11.518-6.239c-0.064-0.097-0.126-0.195-0.12-0.36c0.097-0.023,0.119-0.121,0.239-0.12
		c3.936,1.636,8.134,3.678,12.238,5.399C84.284,71.317,86.177,71.48,86.387,73.19z"/>
	<path style="fill-rule:evenodd;clip-rule:evenodd;" d="M58.311,65.751c0.059,0.655-0.886,0.839-1.32,1.08
		c-2.885,1.6-5.783,3.109-8.998,4.799c-1.569,0.825-3.2,2.391-4.8,1.56c-0.098-1.611,2.173-1.934,3.84-2.64
		C50.602,69.039,55.239,66.995,58.311,65.751z"/>
	<path style="fill-rule:evenodd;clip-rule:evenodd;" d="M46.913,66.711c-1.38,1.014-3.793,1.407-6.359,2.28
		c-2.12,0.721-4.873,2.275-6.479,2.16c-1.611-0.115-2.089-1.589-0.96-2.64C37.695,67.971,42.352,66.869,46.913,66.711z"/>
	<path style="fill-rule:evenodd;clip-rule:evenodd;" d="M98.266,70.55c-0.354,0.565-1.084,0.756-1.559,1.2
		c-4.298-1.541-9.053-2.626-13.198-4.319c1.129-0.47,4.295,0.261,6.959,0.6C94.049,68.486,97.357,68.139,98.266,70.55z"/>
	<path style="fill-rule:evenodd;clip-rule:evenodd;" d="M61.19,67.31c-1.82,3.427-5.004,6.878-7.559,10.559
		c-0.919,1.324-1.841,3.601-3.72,3.6c-0.848-1.46,1.29-2.908,2.52-4.319c2.488-2.855,6.22-6.879,8.159-9.478
		C60.715,67.505,60.757,67.239,61.19,67.31z"/>
	<path style="fill-rule:evenodd;clip-rule:evenodd;" d="M69.229,68.15c0.103-0.022,0.113,0.047,0.12,0.12
		c2.722,2.858,5.649,6.31,8.398,9.479c0.846,0.974,2.506,2.083,1.92,3.72c-1.597-0.019-2.312-1.644-3.119-2.76
		c-1.629-2.249-3.215-4.354-4.92-6.719C70.688,70.683,69.468,69.312,69.229,68.15z"/>
	<path style="fill-rule:evenodd;clip-rule:evenodd;" d="M65.99,68.63c0.12,0,0.24,0,0.359,0c1.214,4.213,2.386,8.881,3.6,13.318
		c0.355,1.296,1.354,2.879,0.24,4.079c-1.63-0.353-1.424-2.387-1.68-3.719c-0.818-4.263-1.761-9.105-2.52-13.318
		C65.99,68.87,65.99,68.75,65.99,68.63z"/>
	<path style="fill-rule:evenodd;clip-rule:evenodd;" d="M63.351,68.99c0.102-0.022,0.113,0.046,0.12,0.12
		c-0.022,0.102,0.047,0.113,0.12,0.12c-0.977,4.047-1.481,8.554-2.4,13.078c-0.211,1.043-0.405,3.751-1.559,3.6
		c-1.359-0.178-0.275-2.925,0-3.959c1.118-4.191,2.401-8.977,3.479-12.718C63.141,69.1,63.349,69.149,63.351,68.99z"/>
	<path style="fill-rule:evenodd;clip-rule:evenodd;" d="M29.995,70.79c-2.19,1.491-5.374,2.137-8.759,3.24
		c-1.351,0.44-2.835,1.052-4.439,1.56c-2.637,0.836-5.308,2.189-6.839-0.12c0.287-0.793,0.779-1.38,1.08-2.16
		C17.339,72.531,23.718,71.193,29.995,70.79z"/>
	<path style="fill-rule:evenodd;clip-rule:evenodd;" d="M100.186,71.03c0.053-0.107,0.104-0.215,0.239-0.24
		c3.271,0.271,9.618,1.077,13.918,1.68c1.489,0.209,3.547,0.276,4.439,0.72c0.355,0.176,1.502,1.574,1.44,2.16
		c-0.051,0.473-1.438,1.492-2.04,1.56c-1.319,0.148-3.196-1.044-4.559-1.439C109.188,74.179,104.071,72.524,100.186,71.03z"/>
	<path style="fill-rule:evenodd;clip-rule:evenodd;" d="M41.754,73.67c-2.084,1.956-4.986,3.386-7.679,4.799
		c-6.608,3.469-13.131,7.353-19.918,11.158c-1.159,0.65-3.049,2.05-3.959,2.16c-1.371,0.165-2.625-0.896-3.84-0.84
		c0.252-1.428,0.825-2.534,1.32-3.719c5.338-2.213,10.903-4.45,16.438-6.719c5.517-2.262,11.24-4.152,16.438-6.599
		C40.722,73.83,41.213,73.509,41.754,73.67z"/>
	<path style="fill-rule:evenodd;clip-rule:evenodd;" d="M50.633,73.67c-0.045,1.041-1.237,1.798-2.04,2.52
		c-2.51,2.255-5.183,4.914-7.679,7.199c-0.663-0.097-1.399-0.121-1.92-0.36c-0.438-1.929,1.17-2.64,2.64-3.599
		C44.39,77.629,48.274,75.001,50.633,73.67z"/>
	<path style="fill-rule:evenodd;clip-rule:evenodd;" d="M87.707,73.789c9.854,3.374,19.887,7.931,29.516,11.878
		c1.336,0.547,3.593,1.105,4.199,1.68c0.892,0.845,0.855,2.605,1.56,3.479c-2.724,2.223-4.687,0.779-7.438-0.84
		c-7.89-4.64-15.646-9.02-23.877-13.438C90.147,75.734,88.022,74.867,87.707,73.789z"/>
	<path style="fill-rule:evenodd;clip-rule:evenodd;" d="M79.068,74.15c2.292,1.327,5.989,3.742,8.879,5.639
		c1.419,0.932,3.421,1.593,2.879,3.839c-2.008,0.946-3.059-0.826-4.319-2.039c-0.943-0.909-1.7-1.521-2.52-2.28
		C81.984,77.45,79.705,75.49,79.068,74.15z"/>
	<path style="fill-rule:evenodd;clip-rule:evenodd;" d="M57.231,79.189c-1.388,4.452-3.165,8.513-4.68,12.838
		c-0.567,0.272-1.091,0.588-1.919,0.6c-0.572-0.189-0.387-1.133-0.84-1.44c2.369-4.029,4.562-8.235,7.198-11.998
		C57.071,79.189,57.151,79.189,57.231,79.189z"/>
	<path style="fill-rule:evenodd;clip-rule:evenodd;" d="M72.829,79.429c1.4,1.777,3.903,6.131,5.519,8.878
		c0.969,1.647,2.358,2.861,1.079,4.679c-0.785,0.066-1.161-0.278-1.799-0.36c-1.795-4.125-3.182-8.657-5.04-12.718
		C72.502,79.581,72.827,79.667,72.829,79.429z"/>
	<path style="fill-rule:evenodd;clip-rule:evenodd;" d="M64.67,80.868c0.194-0.034,0.207,0.114,0.36,0.12
		c0.115,1.756,0.386,4.122,0.6,6.599c0.2,2.315,0.973,5.301,0.601,6.839c-0.335,1.382-2.095,1.679-2.76,0.36
		C63.739,90.016,64.022,85.26,64.67,80.868z"/>
	<path style="fill-rule:evenodd;clip-rule:evenodd;" d="M48.593,82.548c0.08,0,0.16,0,0.24,0c-1.255,2.764-3.196,5.262-5.04,7.799
		c-4.418,6.082-8.749,12.23-13.317,18.598c-1.64,2.285-2.807,4.505-6.239,4.079c-0.302-0.939-0.364-2.754-0.36-3.6
		C32.114,100.464,40.069,91.222,48.593,82.548z"/>
	<path style="fill-rule:evenodd;clip-rule:evenodd;" d="M80.508,82.668c0.12,0,0.24,0,0.36,0
		c8.37,8.668,16.153,17.921,24.477,26.636c-0.042,1.389,0.094,2.928-0.12,3.839c-1.11,0.215-2.376-0.413-3.72-0.36
		c-7.177-9.74-14.209-19.627-20.997-29.756C80.508,82.908,80.508,82.788,80.508,82.668z"/>
	<path style="fill-rule:evenodd;clip-rule:evenodd;" d="M36.475,84.948c0.572,0.792-0.651,1.276-1.08,1.68
		c-2.849,2.686-5.579,5.386-8.639,8.279c-1.726,1.631-2.946,4.368-6.119,3c-0.03-0.95,0.008-1.832,0.12-2.64
		C26.132,91.963,31.001,88.153,36.475,84.948z"/>
	<path style="fill-rule:evenodd;clip-rule:evenodd;" d="M92.267,85.188c5.807,2.952,10.638,6.88,16.077,10.199
		c0.041,0.919,0.144,1.776,0.24,2.64c-2.617,1.442-4.333-1.087-5.999-2.64c-2.367-2.205-4.454-4.243-6.839-6.479
		C94.391,87.636,92.822,86.507,92.267,85.188z"/>
	<path style="fill-rule:evenodd;clip-rule:evenodd;" d="M50.513,125.622c-2.683-2.009-2.001-4.166-0.96-7.679
		c2.119-7.15,4.358-14.403,6.479-21.477c0.916-3.056,1.776-6.949,2.88-8.998c0.193-0.034,0.206,0.113,0.36,0.12
		c-1.196,10.095-3.576,20.735-5.04,31.075c-0.199,1.409-0.148,3.426-0.6,4.439C53.132,124.225,51.39,124.67,50.513,125.622z"/>
	<path style="fill-rule:evenodd;clip-rule:evenodd;" d="M70.189,87.588c0.08,0,0.16,0,0.24,0c1.352,2.503,2.02,5.532,2.879,8.519
		c2.063,7.166,4.144,14.413,6.479,21.837c0.387,1.228,1.41,3.396,1.319,4.319c-0.109,1.124-1.482,2.306-1.799,3.359
		c-0.984-0.681-2.834-1.165-3.36-2.16c-0.401-0.761-0.491-2.97-0.72-4.439c-1.082-6.952-2.288-14.636-3.6-21.836
		C71.041,93.957,70.202,90.416,70.189,87.588z"/>
	<path style="fill-rule:evenodd;clip-rule:evenodd;" d="M49.433,95.146c-1.771,6.228-4.454,11.544-6.479,17.518
		c-0.851,0.308-1.628,0.691-2.64,0.84c-2.037-2.005,0.259-4.74,1.561-6.719c2.358-3.588,5.185-8.798,7.198-11.758
		C49.267,94.992,49.279,95.14,49.433,95.146z"/>
	<path style="fill-rule:evenodd;clip-rule:evenodd;" d="M80.268,95.146c0.12,0,0.24,0,0.36,0c2.312,3.404,4.693,7.979,7.319,11.878
		c1.303,1.936,3.219,4.021,1.56,6.479c-2.983,0.225-3.428-2.665-4.319-5.039c-1.108-2.951-2.143-5.489-3.359-8.639
		C81.161,98.101,80.152,96.458,80.268,95.146z"/>
	<path style="fill-rule:evenodd;clip-rule:evenodd;" d="M64.67,98.146c0.194-0.034,0.207,0.114,0.36,0.12
		c0.652,6.107,1.11,12.408,1.8,18.478c-0.621,0.618-1.191,1.288-1.92,1.8c-2.237-0.861-1.876-2.279-1.68-5.16
		c0.293-4.292,0.562-11.317,1.08-14.638C64.327,98.639,64.635,98.391,64.67,98.146z"/>
</g>
<g id="Layer_1">
</g>
</svg>
