<?xml version="1.0" encoding="iso-8859-1"?>
<!-- Generator: Adobe Illustrator 19.2.0, SVG Export Plug-In . SVG Version: 6.00 Build 0)  -->
<svg version="1.1" xmlns="http://www.w3.org/2000/svg" xmlns:xlink="http://www.w3.org/1999/xlink" x="0px" y="0px"
	 viewBox="0 0 74.418 76.628" style="enable-background:new 0 0 74.418 76.628;" xml:space="preserve">
<g id="San_x5F_Francisco_x5F_International_x5F_Airport">
	<path style="fill-rule:evenodd;clip-rule:evenodd;" d="M37.46,0c0.033,0,0.067,0,0.1,0c1.065,1.444,1.579,3.181,2.36,4.771
		c0.775,1.577,1.579,3.14,2.36,4.72c1.571,3.177,3.026,6.422,4.62,9.592c0.209,0.417,0.329,0.862,0.502,1.306
		c0.466,1.19,1.114,2.445,1.708,3.615c2.38,4.691,4.544,9.566,6.929,14.311c3.188,6.341,6.226,12.763,9.24,19.182
		c1.51,3.216,3.127,6.362,4.62,9.591c1.109,2.399,2.22,4.808,3.465,7.182c0.4,0.763,0.913,1.492,1.054,2.359
		c-0.768-0.037-1.251-0.789-1.858-1.154c-9.34-6.306-21.051-11.396-36.356-11.399c-7.76-0.001-14.514,1.448-20.437,3.565
		c-5.596,2-10.284,4.648-14.813,7.683C0.699,75.494,0.353,75.788,0,75.725c0.327-1.105,0.988-2.083,1.506-3.114
		c1.032-2.051,1.97-4.126,3.063-6.176c0.536-1.004,1.132-2.033,1.557-3.063c0.294-0.713,0.527-1.406,0.854-2.108
		c2.14-4.602,4.526-9.229,6.829-13.81c2.641-5.254,5.082-10.641,7.783-15.817c1.335-2.558,2.632-5.203,3.967-7.834
		c2.664-5.25,5.243-10.3,7.834-15.768c0.891-1.88,1.941-3.954,2.912-5.975C36.681,1.277,37.003,0.495,37.46,0z M30.832,31.184
		c-1.5,0.727-2.781,1.597-3.766,2.56c-2.098,2.055-3.83,4.502-4.369,8.286c-0.584,4.104,0.625,7.776,2.209,10.144
		c1.718,2.564,3.86,4.558,6.93,5.725c3.503,1.331,7.647,1.146,10.696-0.051c2.991-1.175,5.369-3.351,6.879-5.774
		c1.586-2.545,2.705-6.24,1.958-10.194c-0.49-2.593-1.586-4.793-2.963-6.527c-0.464-0.585-0.9-1.264-1.406-1.758
		c-2.399-2.343-6.237-4.149-11.147-3.766C33.901,29.979,32.309,30.469,30.832,31.184z"/>
</g>
<g id="Layer_1">
</g>
</svg>
