<?xml version="1.0" encoding="iso-8859-1"?>
<!-- Generator: Adobe Illustrator 19.2.0, SVG Export Plug-In . SVG Version: 6.00 Build 0)  -->
<svg version="1.1" xmlns="http://www.w3.org/2000/svg" xmlns:xlink="http://www.w3.org/1999/xlink" x="0px" y="0px"
	 viewBox="0 0 51.344 78.177" style="enable-background:new 0 0 51.344 78.177;" xml:space="preserve">
<g id="Sanistal_x5F_81">
	<path style="fill-rule:evenodd;clip-rule:evenodd;" d="M33.739,22.581c-0.382-1.076-0.075-2.145-0.146-3.111
		c-0.233-3.166-1.073-5.34-2.965-6.998c-1.176-1.031-3.058-1.807-4.957-1.701c-3.668,0.203-6.406,2.822-6.998,6.269
		c-1.144,6.652,4.923,8.439,9.914,9.672c3.701,0.914,7.025,1.979,9.816,3.498c2.822,1.537,5.258,3.65,7.193,6.076
		c3.701,4.637,6.896,11.66,5.346,20.41c-1.312,7.408-5.064,12.576-10.206,16.379c-3.694,2.732-8.421,5.104-14.822,5.102
		c-2.083,0-4.009-0.254-5.929-0.68C12.904,75.925,7.891,71.94,4.337,66.61c-1.751-2.625-3.042-5.605-3.79-9.477
		c-0.504-2.605-0.641-6.108-0.486-9.379c0.05-1.064-0.225-2.596,0.195-3.014c0.36-0.357,1.933-0.193,2.77-0.193
		c2.13,0,3.797,0,5.88,0c0.956,0,1.995-0.154,2.673,0.242c0.257,0.799,0.146,1.668,0.146,2.479c0,2.568-0.151,5.266,0.292,7.533
		c1.078,5.518,4.618,9.512,9.817,11.031c2.731,0.799,6.11,0.754,8.942-0.291c1.291-0.477,2.399-1.127,3.402-1.848
		c1.013-0.727,1.777-1.623,2.576-2.623c1.586-1.988,2.623-4.33,2.964-7.436c0.523-4.768-1.649-8.891-4.082-11.324
		c-0.859-0.859-1.83-1.689-2.916-2.283c-2.255-1.238-5.13-1.891-7.873-2.576c-2.801-0.699-5.335-1.49-7.727-2.674
		c-4.525-2.236-7.794-6.219-9.137-11.662c-0.699-2.836-0.823-6.406-0.049-9.234c1.495-5.461,4.813-9.029,9.185-11.615
		c2.25-1.332,4.923-2.047,8.165-2.236c6.651-0.387,11.48,3.004,14.482,6.465c2.802,3.229,4.617,7.426,4.617,13.656
		c0,0.789,0.133,2.17-0.292,2.479c-0.381,0.275-1.754,0.145-2.527,0.145c-1.903,0-3.555,0-5.346,0
		C35.356,22.774,34.471,22.903,33.739,22.581z"/>
	<path style="fill-rule:evenodd;clip-rule:evenodd;" d="M25.089,40.999c4.078-0.318,7.313,1.516,9.233,3.693
		c1.397,1.586,2.388,3.537,2.722,6.269c0.298,2.434-0.306,4.797-1.069,6.609c-1.218,2.891-4.427,5.311-7.824,6.027
		c-4.149,0.873-8.181-0.85-10.254-3.062c-2.1-2.242-4.07-5.621-3.208-10.205c0.407-2.162,1.183-3.562,2.138-4.764
		c1.506-1.891,3.112-3.201,5.735-4.082C23.3,41.237,24.101,41.077,25.089,40.999z"/>
</g>
<g id="Layer_1">
</g>
</svg>
