<?xml version="1.0" encoding="iso-8859-1"?>
<!-- Generator: Adobe Illustrator 19.2.0, SVG Export Plug-In . SVG Version: 6.00 Build 0)  -->
<svg version="1.1" xmlns="http://www.w3.org/2000/svg" xmlns:xlink="http://www.w3.org/1999/xlink" x="0px" y="0px"
	 viewBox="0 0 81.382 71.508" style="enable-background:new 0 0 81.382 71.508;" xml:space="preserve">
<g id="Sansom_x5F_Equipment">
	<path style="fill-rule:evenodd;clip-rule:evenodd;" d="M81.321,0.536c0.136,8.16,0.001,16.348,0,24.445
		c-0.001,2.687,0.105,5.445-0.146,7.971c-0.414-0.186-0.412-0.744-0.534-1.07c-1.063-2.832-2.141-5.666-3.645-8.115
		c-1.697-2.764-3.646-5.164-6.269-7.145c-2.472-1.865-5.48-3.52-8.699-4.713c-3.238-1.203-6.757-2.398-10.546-2.867
		c-4.037-0.5-8.314-0.994-12.538-0.826c-12.75,0.506-23.103,3.809-30.181,10.059c-1.52,1.49-2.755,2.934-3.839,4.81
		c-1.039,1.801-1.87,4.315-1.069,6.854c0.664,2.106,2.379,3.602,4.568,4.082c1.219,0.268,2.705,0.146,4.18,0.146
		c6.983,0,13.909,0.096,21.237,0.098c2.86,0,5.749-0.025,8.554,0.096c1.421,0.062,2.824-0.098,4.227-0.096
		c6.904,0,13.707-0.197,20.85-0.195c2.925,0,5.72-0.164,8.019,0.438c2.071,0.543,4.101,1.814,5.151,3.451
		c1.07,1.666,0.632,5.252,0.632,7.922c0,8.568,0.084,17.355-0.146,25.563c-16.591,0.207-33.642-0.146-50.688-0.146
		c-6.753,0-13.518-0.146-20.363-0.146c-2.568,0.002-5.192,0.02-7.581-0.047c-0.79-0.023-1.615,0.131-2.382-0.146
		C-0.072,60.093-0.022,48.751,0.21,37.812c0.432,0.176,0.42,0.727,0.534,1.068c0.407,1.219,0.903,2.498,1.312,3.742
		c0.557,1.697,1.293,3.162,2.09,4.666c1.547,2.92,3.509,5.416,6.123,7.387c2.528,1.906,5.52,3.521,8.748,4.764
		c6.319,2.434,14.476,3.959,23.182,3.596c4.234-0.178,8.472-0.518,12.101-1.408c7.219-1.773,13.504-4.621,18.273-8.699
		c1.51-1.537,2.776-2.916,3.888-4.812c1.008-1.719,2.205-4.135,1.652-6.707c-1.035-4.82-7.433-3.984-13.17-3.984
		c-11.244,0-22.427,0.195-33.825,0.195c-5.663-0.002-11.573-0.098-17.155-0.098c-2.989,0-5.974,0.152-8.018-0.682
		C2.943,35.617,0.75,33.242,0.21,29.55c-0.189-1.291-0.098-2.732-0.098-4.229c0-2.861,0-5.9,0-8.65
		c0-5.207,0.049-9.553,0.049-14.629c0-0.643-0.116-1.357,0.145-1.992c23.638-0.207,47.553,0.295,71.246,0.293
		c2.453-0.002,4.844,0.047,7.387,0.047C79.728,0.39,80.562,0.277,81.321,0.536z"/>
</g>
<g id="Layer_1">
</g>
</svg>
