<?xml version="1.0" encoding="iso-8859-1"?>
<!-- Generator: Adobe Illustrator 19.2.0, SVG Export Plug-In . SVG Version: 6.00 Build 0)  -->
<svg version="1.1" xmlns="http://www.w3.org/2000/svg" xmlns:xlink="http://www.w3.org/1999/xlink" x="0px" y="0px"
	 viewBox="0 0 127.683 127.072" style="enable-background:new 0 0 127.683 127.072;" xml:space="preserve">
<g id="Santa_x5F_Fe_x5F_Savings">
	<path style="fill-rule:evenodd;clip-rule:evenodd;" d="M60.325,0.011c2.559-0.047,5.058,0.08,7.318,0
		c0.2,13.398,0.2,27.636,0,41.034c-2.392-0.493-5.341-0.226-7.559-0.12c-0.024-14.183-0.059-26.071,0-40.554
		C60.079,0.166,60.174,0.06,60.325,0.011z"/>
	<path style="fill-rule:evenodd;clip-rule:evenodd;" d="M56.605,6.85c0.016,11.946,0.009,23.447,0,35.035
		c-7.075,2.643-12.059,7.378-14.638,14.517c-11.679-0.08-23.677,0.16-35.155-0.12c0.078-2.441-0.157-5.196,0.12-7.438
		c4.58-0.072,10.01-0.136,14.758-0.12c-1.636-4.623-4.467-10.788-6.839-15.958c-0.266-0.58-1.066-1.892-0.96-2.279
		c0.196-0.721,2.534-1.356,3.24-1.68c1.348-0.621,2.194-1.105,3.48-1.44c3.595,6.804,6.434,14.362,9.838,21.357
		c1.157-0.043,2.508,0.108,3.48-0.12c-4.61-11.067-9.804-21.552-14.397-32.635c2.258-0.981,4.369-2.109,6.719-2.999
		c5.831,11.566,10.734,24.061,16.437,35.755c1.145,0.207,2.121-0.08,3.359,0c-4.274-11.003-9.924-21.671-14.397-32.875
		c2.268-1.012,4.504-2.055,6.839-2.999c3.475,7.124,6.485,14.712,10.078,21.717c0.651-9.031-0.07-18.443,0.36-27.716
		C51.138,6.838,54.418,6.835,56.605,6.85z"/>
	<path style="fill-rule:evenodd;clip-rule:evenodd;" d="M78.922,6.85c-0.003,5.184-0.018,9.641,0,14.758
		c6.288-1.951,12.035-5.481,18.356-7.799c1.325,2.035,2.239,4.48,3.24,6.839c-7.178,3.261-14.375,6.502-21.597,9.719
		c0.071,1.127-0.149,2.549,0.119,3.479c11.147-4.491,21.64-9.637,32.516-14.398c1.42,1.94,2.29,4.429,3.239,6.839
		c-11.77,5.587-23.897,10.817-35.874,16.198c0,1.2,0,2.4,0,3.6c9.132-3.648,19.129-8.533,28.556-12.718
		c0.706-0.313,3.493-1.869,4.199-1.68c0.877,0.234,1.336,2.581,1.68,3.359c0.585,1.324,1.289,2.276,1.56,3.48
		c-7.406,3.352-14.905,6.612-22.196,10.079c9.208,0.352,19.307-0.107,28.195,0.24c-0.104,2.558,0.166,5.032-0.12,7.559
		c-12.068,0.003-23.123,0.017-35.154,0c-2.538-7.101-7.419-11.858-14.398-14.517c-0.187-11.265-0.191-24.053,0-35.035
		C74.014,6.885,76.689,6.779,78.922,6.85z"/>
	<path style="fill-rule:evenodd;clip-rule:evenodd;" d="M41.007,59.882c-0.189,2.089-0.379,4.859,0,7.319
		c-14.351,0.071-27.771,0.104-40.914,0c-0.222-2.187,0.025-4.708,0-7.199c0.014-0.096,0.396-0.364,0.36-0.12
		C14.923,59.85,26.281,59.796,41.007,59.882z"/>
	<path style="fill-rule:evenodd;clip-rule:evenodd;" d="M127.635,60.002c0.142,1.897-0.084,4.666,0,7.199
		c-0.103-0.022-0.113,0.047-0.12,0.12c-13.989-0.157-27.49,0.08-40.914-0.12c0.144-2.05,0.384-4.942,0-7.319
		C100.515,59.904,112.763,59.722,127.635,60.002z"/>
	<path style="fill-rule:evenodd;clip-rule:evenodd;" d="M120.795,70.8c0,2.479,0,4.959,0,7.439
		c-4.691,0.348-10.189-0.111-14.877,0.24c2.478,6.24,5.357,12.08,8.038,18.118c-2.072,1.287-4.513,2.206-6.959,3.119
		c-3.399-6.999-6.365-14.432-9.838-21.356c-1.12,0-2.24,0-3.36,0c4.426,11.292,9.837,21.599,14.399,32.755
		c-0.982,0.456-1.936,0.916-3.359,1.56c-0.687,0.31-2.656,1.607-3.359,1.44c-0.685-0.163-1.89-3.435-2.28-4.319
		c-4.56-10.319-9.664-21.521-14.157-31.315c-0.909-0.209-2.566-0.181-3.481,0c4.394,10.805,9.762,21.673,14.519,32.515
		c-2.021,1.338-4.578,2.142-6.839,3.24c-3.773-6.986-6.589-14.928-10.318-21.957c-0.36,9.039,0.119,18.917-0.24,27.956
		c-2.6,0.141-5.106,0.094-7.559,0c-0.216-11.63-0.13-24.651,0-34.915c6.833-2.886,11.97-7.467,14.518-14.638
		C97.532,70.766,109.323,70.508,120.795,70.8z"/>
	<path style="fill-rule:evenodd;clip-rule:evenodd;" d="M41.967,70.8c2.522,7.116,7.528,11.748,14.518,14.398
		c0.054,11.575,0.143,22.297,0,35.035c-2.173,0.094-5.046,0.192-7.679,0c-0.279-4.68-0.04-9.878-0.12-14.758
		c-4.689,1.638-10.718,4.424-15.957,6.839c-0.626,0.288-1.833,1.073-2.28,0.96c-0.639-0.162-1.491-2.558-1.8-3.239
		c-0.654-1.444-0.961-2.354-1.439-3.6c7.09-3.348,14.518-6.358,21.476-9.838c-0.071-1.088,0.149-2.469-0.12-3.36
		c-11.147,4.53-21.551,9.804-32.635,14.398c-0.964-2.315-2.045-4.514-3-6.839c11.739-5.619,23.995-10.72,35.755-16.317
		c0-1.16,0-2.32,0-3.479c-11.114,4.602-21.683,9.752-32.635,14.518c-1.244-2.075-2.072-4.566-3.239-6.719
		c6.982-3.776,14.922-6.595,21.956-10.319c-9.332-0.334-19.153,0.073-27.956-0.24c-0.031-2.662-0.016-4.629,0-7.319
		C17.938,70.438,31.04,70.684,41.967,70.8z"/>
	<path style="fill-rule:evenodd;clip-rule:evenodd;" d="M60.084,86.038c2.299,0.241,5.181,0.416,7.439,0
		c0.199,13.398,0.199,27.636,0,41.034c-2.812-0.232-4.841,0.169-7.559-0.12c-0.063-12.975,0.038-26.685,0-40.554
		C59.954,86.228,59.945,86.058,60.084,86.038z"/>
</g>
<g id="Layer_1">
</g>
</svg>
