<?xml version="1.0" encoding="iso-8859-1"?>
<!-- Generator: Adobe Illustrator 21.0.2, SVG Export Plug-In . SVG Version: 6.00 Build 0)  -->
<svg version="1.1" xmlns="http://www.w3.org/2000/svg" xmlns:xlink="http://www.w3.org/1999/xlink" x="0px" y="0px"
	 viewBox="0 0 31.833 31.695" style="enable-background:new 0 0 31.833 31.695;" xml:space="preserve">
<g id="Sassen_x5F_Design">
	<g>
		<path d="M0.016,24.808C0.013,16.537,0.074,8.271,0.082,0c10.584,0.038,21.167,0.103,31.75,0.136
			c0.013,10.505-0.07,21.008-0.067,31.514c-2.32,0.081-4.65,0.032-6.972,0.001C16.528,31.655,8.265,31.566,0,31.561
			c0.006-1.519-0.009-3.038,0.015-4.556c9.054,0.073,18.112,0.054,27.165,0.13c0.062-7.476-0.003-14.957,0.076-22.432
			C21.662,4.576,16.038,4.667,10.43,4.622C8.505,4.555,6.573,4.597,4.643,4.565C4.661,9.783,4.622,15.022,4.64,20.248
			c5.25,0.009,10.499,0.083,15.749,0.068c0.101-0.724,0.028-1.458,0.069-2.185c-2.48-0.013-4.967,0.032-7.444-0.04
			c-0.375,0.055-0.754,0.019-1.13,0.019c-1.66-0.041-3.325-0.037-4.986-0.042C6.775,17.2,6.921,16.326,6.84,15.455
			c0.077-2.895,0.025-5.794,0.045-8.691C12.94,6.878,19.014,6.763,25.07,6.881c0.007,1.518,0.047,3.043-0.028,4.558
			c-4.524-0.04-9.051-0.064-13.577-0.054c-0.105,0.4-0.072,0.818-0.044,1.226c-0.023,0.178-0.031,0.361,0.019,0.537
			c-0.024,0.131-0.046,0.264-0.065,0.398c4.517,0.03,9.036,0.016,13.553,0.041c0.112-0.009,0.118,0.134,0.146,0.212
			c-0.018,3.697-0.054,7.391-0.049,11.093c-1.065,0.064-2.135,0.044-3.201,0.005C14.55,24.899,7.285,24.86,0.016,24.808z"/>
	</g>
</g>
<g id="Layer_1">
</g>
</svg>
