<?xml version="1.0" encoding="iso-8859-1"?>
<!-- Generator: Adobe Illustrator 19.2.0, SVG Export Plug-In . SVG Version: 6.00 Build 0)  -->
<svg version="1.1" xmlns="http://www.w3.org/2000/svg" xmlns:xlink="http://www.w3.org/1999/xlink" x="0px" y="0px"
	 viewBox="0 0 144.661 126.354" style="enable-background:new 0 0 144.661 126.354;" xml:space="preserve">
<g id="SCA">
	<g>
		<path style="fill:none;" d="M39.538,111.378v0.772c0.7,0.094,1.597,0.027,2.545-0.023v-6.417
			c-0.007,0.001-0.009-0.002-0.016-0.001C42.149,108.119,40.699,109.758,39.538,111.378z"/>
		<path style="fill:none;" d="M42.067,104.63c0.007-0.019,0.009-0.04,0.016-0.059v-0.628
			C42.078,104.163,42.073,104.383,42.067,104.63z"/>
		<path style="fill:none;" d="M114.309,97.624v-1.068C114.293,96.91,114.294,97.265,114.309,97.624z"/>
		<path style="fill:none;" d="M132.916,83.091v-0.2c0,0.015-0.001,0.03-0.001,0.046C132.915,82.987,132.916,83.04,132.916,83.091z"
			/>
		<path style="fill:none;" d="M86.082,90.178v-3.181C86.068,88.06,86.045,89.126,86.082,90.178z"/>
		<path style="fill:none;" d="M39.071,112.062c0.015,0.005,0.034,0.005,0.05,0.01v-0.083
			C39.105,112.013,39.087,112.038,39.071,112.062z"/>
		<path style="fill:none;" d="M48.539,38.347v-0.364C48.538,38.104,48.536,38.225,48.539,38.347z"/>
		<path d="M58.836,31.989c0.482,1.402,1.386,2.384,2.168,3.487c-0.058-2.396,0.122-4.582,0.12-6.472
			c-0.003-2.344-0.197-4.653-0.12-7.431c0.063-2.289,0.058-4.577,0.12-6.832c0.131-4.712,0.159-8.612-2.288-11.376V31.989z"/>
		<path d="M56.569,0c-0.321,0.8-1.03,1.215-1.316,2.052v28.579c0.604-0.537,0.63-1.652,1.437-1.987
			c0.621,0.609,0.778,1.681,1.544,2.146V2.582C57.971,1.534,57.34,0.636,56.569,0z"/>
		<path d="M49.142,13.197v17.02c0.05,3.491-0.01,7.221,0.237,10.293c0.902-1.125,1.632-2.253,2.099-3.635V8.757
			C50.434,9.918,49.961,11.589,49.142,13.197z"/>
		<path d="M52.135,8.15C52.115,8.165,52.1,8.183,52.08,8.198v20.388c0.035,0.139,0.037,0.273,0,0.392v1.857
			c0.039,0.509,0.039,1.006,0,1.485v3.135c0.058,0.088,0.146,0.145,0.295,0.141c0.932-1.317,1.805-2.954,2.275-4.694V3.507
			C53.49,4.732,52.67,6.299,52.135,8.15z"/>
		<path d="M48.539,37.983V14.238c-0.91,1.34-2.271,2.729-2.637,4.22c-0.67,2.736,0.58,6.664-0.119,9.468
			c0.011-0.167,0.306-0.126,0.239,0.12c0.091,5.144-0.058,11.357,0.479,17.738c0.369-1.231,1.752-2.297,2.037-3.593v-3.844
			C48.536,38.225,48.538,38.104,48.539,37.983z"/>
		<path d="M86.892,29.484c0.551-0.128,0.435-0.924,1.078-0.959c0.29,0.229,0.185,0.854,0.719,0.839
			c-0.061-6.949,0.121-13.496,0.12-20.015c0-2.609,0.569-6.097,0-8.27c-0.355-1.36-1.594-1.106-1.917,0
			c-0.39,1.328-0.025,3.628,0,5.394C87.014,14.932,86.692,22.291,86.892,29.484z"/>
		<path d="M91.806,34.757c-0.049-6.368,0.12-13.188,0.12-20.495c0-3.957,0.661-8.677-1.558-10.187
			c-0.02,9.333-0.034,18.708,0,26.367C90.376,32.296,90.409,33.723,91.806,34.757z"/>
		<path d="M83.896,34.757c1.711-1.228,1.392-3.212,1.438-5.753c0.137-7.519,0.257-17.37,0-24.33
			c-0.41,1.051-1.299,1.675-1.438,2.637c-0.575,3.97-0.128,8.681-0.119,12.704C83.787,25.116,83.805,30.118,83.896,34.757z"/>
		<path d="M61.724,9.228c-0.327,2.251,0.031,5.139,0,7.671c-0.036,2.809-0.132,6.016-0.12,9.229c0.012,3.442-0.6,7.579,0,10.667
			c0.268,1.38,1.96,3.366,2.517,3.955c0.052-0.769,0.085-1.532,0.112-2.291V13.745C63.823,11.812,62.679,10.615,61.724,9.228z"/>
		<path d="M70.232,23.491c-0.207-0.958-1.648-3.026-2.447-3.851v15.68c0.59-0.194,0.514-1.449,1.129-1.163
			c-0.212,8.882-0.48,18.256-0.599,27.566c0.613-0.861,1.519-1.723,1.678-2.756c0.504-3.271-0.24-7.656-0.24-11.865
			c0.001-5.018-0.61-12.082,0.36-15.821C70.537,29.647,70.5,24.728,70.232,23.491z"/>
		<path d="M64.959,14.382c-0.049-0.013-0.088-0.013-0.124-0.008v26.148c0.288-0.177,0.473-1.037,0.724-0.851
			c0.167,10.512-0.765,19.797-0.359,27.805c1.306-1.567,1.484-2.947,1.438-5.393c-0.117-6.225,0.04-14.299-0.119-20.974
			c-0.026-1.111-0.319-2.304-0.12-3.236c0.099-0.463,0.575-0.784,0.785-1.321V18.426C66.735,16.982,65.532,15.799,64.959,14.382z"/>
		<path d="M94.803,39.791c0.188-6.213-0.116-11.53,0-17.978c0.081-4.544,0.914-10.448-1.318-12.585
			c-0.435,6.911-0.119,14.69-0.24,21.574C93.177,34.666,92.723,38.394,94.803,39.791z"/>
		<path d="M80.779,39.911c0.481-0.342,1.279-1.339,1.438-2.157c0.606-3.111-0.147-8,0-11.985c0.194-5.25,0.221-11.652-0.12-15.581
			c-1.779,2.08-1.446,5.77-1.438,9.349C80.675,26.168,80.739,33.506,80.779,39.911z"/>
		<path d="M96.48,14.622c0.058,0.434-0.104,0.441-0.12,0.719c-0.293,5.198-0.008,13.474,0,20.375
			c0.005,4.079-0.614,8.103,1.678,9.708c0.101-5.322,0.12-13.113,0.12-20.495C98.158,20.559,98.741,16.392,96.48,14.622z"/>
		<path d="M78.981,42.667c0.021-8.29,0.415-18.535-0.119-26.847c-1.518,1.797-1.198,4.163-1.199,7.55
			c0,12.011-0.358,20.12-0.359,31.641c0,5.079-0.638,10.321,2.157,11.985c-0.016-6.988,0.115-13.946,0.299-21.065v-3.644
			C79.571,42.485,79.314,42.615,78.981,42.667z"/>
		<path d="M80.362,42.271v23.217c0.019,0.627,0.036,1.258,0.058,1.869c0.079,2.221,0.603,3.666,2.038,4.914
			c-0.004-5.791,0.377-13.601,0.359-20.135c-0.005-1.724,0.367-4.227,0-5.873C82.505,44.865,81.14,43.546,80.362,42.271z"/>
		<path d="M99.356,19.776c0.016,0.227-0.119,0.264-0.119,0.479c0,5.415-0.023,14.279,0,20.615c0.017,4.624-0.501,8.297,2.037,10.188
			c-0.002-7.279,0.084-13.475,0-20.854C101.225,25.838,102.059,21.75,99.356,19.776z"/>
		<path d="M42.997,23.533v26.188c0.009,0.487,0.017,0.977,0.029,1.456c2.006-1.312,2.057-3.75,2.037-6.951
			c-0.042-7.229,0.42-19.211,0-24.33C44.424,21.157,43.568,22.203,42.997,23.533z"/>
		<path d="M42.395,26.476v-1.362c-0.738,0.89-2.166,2.341-2.484,4.01c-0.339,1.773,0.504,3.958-0.359,5.154
			c0.428,0.244,0.442,0.916,0.479,1.318c0.449,4.909-0.164,10.183-0.12,15.101c0.017,1.844,0.461,3.75,0.359,5.633
			c2.242-2.074,2.016-4.696,2.038-8.869c0.021-4.038,0.028-7.589,0.087-11.02V26.476L42.395,26.476z"/>
		<path d="M75.866,47.701c-0.137-9.826,0.357-17.405-0.12-26.368c-0.235,0.684-0.818,1.034-0.959,1.678
			c-0.645,2.947,0,7.456,0,11.506c0,4.019-0.083,8.133-0.12,11.266c-0.037,3.227,0.205,5.912-1.917,7.431
			c-0.262-8.915,0.135-16.75,0-26.128c-1.15-0.368-1.189-1.848-2.038-2.517c-0.222,2.11-0.087,3.72,0,5.513
			c0.435,0.029,0.416-1.015,0.839-0.599c0.046,8.159-0.046,18.116,0,26.727c0.51,0.393,0.261-0.802,0.959-0.599
			c0.227,0.733,0.652,1.266,1.079,1.798c0.472,0.192,0.041-0.518,0.359-0.479c0.231,2.249,1.496,4.092,2.637,5.034
			c-0.021-5.191,0.231-9.939,0.239-14.742C76.276,47.079,76.276,48.103,75.866,47.701z M73.828,55.971
			C73.778,55.92,73.907,56.049,73.828,55.971L73.828,55.971z"/>
		<path d="M102.713,25.529c0.015,0.227-0.12,0.264-0.12,0.479c0.002,5.673,0.041,13.021,0,19.057
			c-0.034,5.082-0.733,9.434,2.037,11.746c-0.11-7.058,0.121-14.299,0.12-20.854C104.75,31.4,105.168,27.598,102.713,25.529z"/>
		<path d="M107.627,61.364c0.242-7.674-0.32-17.159,0-24.45c0.136-3.106-0.423-4.532-1.918-6.233
			c-0.119,6.081-0.266,12.832-0.12,18.817C105.702,54.146,104.417,59.233,107.627,61.364z"/>
		<path d="M36.794,61.724c2.624-1.47,1.918-7.083,1.918-11.505c0-6.747,0.094-12.531,0.12-19.057
			c-0.797,1.129-2.004,2.337-2.277,3.715c-0.606,3.051-0.021,7.465,0,11.266C36.585,51.804,36.821,56.75,36.794,61.724z"/>
		<path d="M110.742,67.237c0.094-5.423,0.121-12.83,0.12-20.255c0-5.033,0.361-8.875-2.157-11.026
			c-0.375,4.614,0.051,10.395-0.12,15.581C108.403,57.074,107.475,64.406,110.742,67.237z"/>
		<path d="M33.559,67.357c2.713-1.746,1.917-7.895,1.917-12.824c0-6.37,0.133-11.609,0.12-17.738
			c-0.694,1.188-2.141,2.473-2.397,3.835c-0.351,1.866,0.245,4.442,0.24,6.711C33.424,53.866,33.454,60.509,33.559,67.357z"/>
		<path d="M113.979,52.255c0-2.353,0.467-5.165,0-7.311c-0.311-1.428-1.698-2.623-2.396-3.955
			c-0.154,6.392-0.159,15.737-0.24,21.454c-0.063,4.414-0.047,7.84,2.517,10.187C113.863,65.485,113.979,59.513,113.979,52.255z"/>
		<path d="M32.239,61.124c0-6.123,0.216-14.143-0.119-18.697c-0.619,1.099-1.201,2.234-1.918,3.236
			c0.162,8.413,0.164,18.576,0.359,26.847C32.898,70.71,32.24,66.165,32.239,61.124z"/>
		<path d="M63.641,43.147c-0.014-0.147-0.035-0.284-0.239-0.24c-1.7,1.855-1.199,5.376-1.318,8.629
			c-0.272,7.409-0.173,15.008-0.48,21.812c1.165-1.476,2.277-2.839,2.277-5.153C63.88,60.271,63.429,51.156,63.641,43.147z"/>
		<path d="M36.434,45.903c-0.08,0-0.16,0-0.239,0c0,0.08,0,0.16,0,0.24c0.079,0,0.159,0,0.239,0
			C36.434,46.063,36.434,45.983,36.434,45.903z"/>
		<path d="M117.215,50.697c-0.331-1.521-1.835-2.839-2.398-3.955c0.074,0.498-0.111,0.695-0.12,1.079
			c-0.112,5.186-0.003,13.088-0.119,19.177c-0.007,0.352-0.014,0.703-0.02,1.055h0.167v5.086c0.27,2.132,0.909,3.937,2.369,5.006
			c-0.11-6.123-0.017-14.292,0.12-21.214C117.254,54.914,117.546,52.222,117.215,50.697z"/>
		<path d="M83.416,68.915c0.099,3.845-0.18,6.789,1.918,8.509c0.193-6.959,0.289-13.558,0.359-19.176
			c0.028-2.252,0.491-4.872,0.12-6.711c-0.312-1.543-1.889-2.826-2.517-4.315c-0.322,1.501-0.046,3.464,0,5.273
			C83.425,57.58,83.287,63.84,83.416,68.915z"/>
		<path d="M60.765,47.821c-0.007-0.073-0.019-0.142-0.12-0.12c-2.243,2.301-1.495,5.639-1.678,9.468
			c-0.326,6.833-0.432,14.756-0.6,21.693c2.844-1.773,2.091-6.38,2.277-10.428C60.903,62.835,60.684,54.11,60.765,47.821z"/>
		<path d="M27.565,78.023c1.875-1.742,1.348-5.434,1.438-9.229c0.157-6.583,0.003-15.608-0.12-20.614
			c-0.396,0.83-1.4,1.927-1.558,2.756c-0.434,2.287,0,5.221,0,7.91C27.326,64.856,27.438,71.378,27.565,78.023z"/>
		<path d="M120.57,56.57c-0.369-1.563-2.135-3.095-2.637-4.435c-0.339,3.24-0.022,7.169-0.12,10.787
			c-0.114,4.273-0.327,9.47-0.239,13.663c0.021,0.996-0.064,2.47,0.12,3.236c0.37,1.535,2.065,2.931,2.756,4.434
			c0.207-5.832,0.12-13.938,0.12-20.614C120.57,61.225,121.018,58.466,120.57,56.57z"/>
		<path d="M87.012,73.949c0.107,3.531-0.717,7.157,1.438,8.749c0.189-6.82,0.165-16.577,0.239-23.611
			c0.009-0.808,0.292-1.756,0.12-2.517c-0.318-1.416-1.809-2.624-2.277-3.715c-0.096,2.043,0.017,4.84,0.12,7.431
			C86.842,65.012,86.878,69.502,87.012,73.949z"/>
		<path d="M55.85,56.091c-0.396,2.101-0.087,4.878-0.12,7.311c-0.086,6.27-0.519,14.178-0.479,21.094
			c2.67-2.229,2.277-5.92,2.277-10.906c0-6.086,0.338-15.165,0-20.375C57.163,53.993,56.016,55.212,55.85,56.091z"/>
		<path d="M24.449,83.057c2.259-1.513,1.135-7.452,1.318-11.626c0.281-6.377,0.155-13.862,0-17.858
			c-2.066,2.011-1.41,5.75-1.438,9.468C24.268,71.063,24.468,76.707,24.449,83.057z"/>
		<path d="M123.807,62.083c-0.361-1.61-1.943-3.125-2.757-4.555c-0.119,1.499-0.12,3.735-0.12,5.513c0,13.538-0.216,23.248,0,35.356
			c0.72,0.289,1.868,0.055,2.637,0c0.112-8.162,0.19-17.549,0.24-26.967C123.823,68.282,124.391,64.685,123.807,62.083z"/>
		<path d="M54.412,58.248c-2.038,2.082-1.75,5.047-1.917,8.869c-0.282,6.404-0.106,12.452-0.36,17.619
			c0.028,0.41,0.777,0.102,0.72,0.599c0.028,3.71,0.029,6.228,0,9.589c-0.004,0.437-0.408,3.581,0.599,3.475
			c0.86-0.09,0.479-4.514,0.479-5.752c0-3.725,0.038-5.023,0.12-7.671c0.383-0.017,0.917,0.118,0.839-0.359
			C54.625,75.548,54.829,66.443,54.412,58.248z"/>
		<path d="M95.282,94.563c-0.118-0.497-0.589-0.826-0.72-1.318c-0.624-2.357,0.103-6.466,0.24-9.588
			c0.18-4.09,0.221-8.345,0.359-11.506c0.173-3.945,0.056-6.143-1.918-8.03c-0.237,8.408,0.664,19.682,0.24,27.207
			c-0.338-0.312-0.458-0.92-0.863-0.976v7.935c0.011,0.035,0.011,0.079,0.023,0.111c0.852-0.066,1.98,0.142,2.638-0.119
			C95.044,97.228,95.587,95.854,95.282,94.563z"/>
		<path d="M89.409,96.96c0.121-1.318-0.072-3.783,0.043-5.495v-1.104c-0.022-0.086-0.017-0.182,0-0.285v-2.895
			c-0.017-0.138-0.022-0.265,0-0.392v-1.405c-0.047-0.144-0.088-0.293-0.043-0.529c-0.959,0-1.918,0-2.877,0
			c-0.016,0.063-0.021,0.142-0.033,0.209v13.231c0.739,0.225,1.893,0.036,2.79,0.103c0.143-0.158-0.099-0.768,0.163-0.993v-0.633
			C89.437,96.832,89.427,96.903,89.409,96.96z"/>
		<path d="M91.687,78.383c-0.059-4.303,0.122-8.908,0.239-12.465c0.111-3.375-0.133-5.609-1.918-7.431
			c-0.151,9.18,0.446,19.211,0.36,27.446c-0.125-0.261-0.321-0.419-0.499-0.405v12.867c0.763-0.042,1.74,0.131,2.297-0.117
			c0.017-0.004,0.024-0.015,0.038-0.021v-8.545C91.289,86.666,91.742,82.53,91.687,78.383z"/>
		<path d="M86.082,86.998v-0.785c-0.001-0.455-0.004-0.91-0.029-1.357c-0.918,0-1.837,0-2.756,0c-0.249,4.83-0.297,8.27-0.12,13.424
			c0.695,0.264,1.866,0.052,2.757,0.119c0.306-1.65-0.01-3.978,0.148-5.63v-2.59C86.045,89.126,86.068,88.06,86.082,86.998z"/>
		<path d="M21.453,96.121c0.003,0.357-0.249,2.248,0.6,2.158c0.721-0.076,0.478-1.57,0.478-2.158c0-12.85,0.29-25.451,0.24-37.273
			c-0.007-0.073-0.017-0.142-0.12-0.12c-1.627,1.55-1.447,3.832-1.438,6.352C21.248,74.373,21.385,87.095,21.453,96.121z"/>
		<path d="M127.029,85.969v-1.515c0-0.003,0-0.006,0-0.009V81.91c0.001-0.098-0.002-0.19,0-0.289v-3.728
			c-0.022-0.612-0.015-1.298,0-2.003v-7.399c-0.297-2.149-1.764-3.551-2.743-5.089c-0.262,12.557-0.211,21.26-0.24,34.996
			c0.985,0.172,1.594-0.004,2.757,0c0.286-3.214,0.058-5.858,0.227-8.574V87.57C126.946,87.142,126.995,86.606,127.029,85.969z"/>
		<path d="M127.446,69.192v29.215c0.571,0.04,1.551-0.056,2.233,0.111c0.148-7.069,0.239-13.011,0.239-19.655
			C129.919,74.051,130.085,71.248,127.446,69.192z"/>
		<path d="M49.139,84.855c0.061,0.339,0.765,0.034,0.6,0.6c0.215,3.161,0.119,7.381,0.12,10.307c0,0.938-0.474,2.307,0.479,2.637
			c0.828-3.686,0.129-8.9,0.36-13.184c0.057-0.462,1.067,0.029,0.958-0.599c-0.382-7.708,0.158-14.232-0.478-20.854
			c-2.572,2.613-1.78,8.133-1.918,12.345C49.164,78.998,49.099,81.677,49.139,84.855z"/>
		<path d="M18.217,93.605c0,1.736-0.301,4.588,0.479,4.674c1.293,0.142,0.839-2.993,0.839-3.596
			c0.001-10.414,0.029-20.253,0.12-30.323c-0.007-0.073-0.017-0.142-0.12-0.12c-1.808,1.669-1.396,4.21-1.438,7.312
			C17.993,79.355,18.217,85.129,18.217,93.605z"/>
		<path d="M45.783,84.736c-0.01,0.448,0.849,0.029,0.839,0.479c-0.044,4.321,0.056,8.887-0.12,13.064
			c-0.218,0.261-0.98-0.021-1.198,0.239c-0.068,1.331-0.053,1.627,0,2.876c1.059-0.817,1.393-2.361,2.277-3.355
			c0.03-5.064-0.019-8.945,0.119-12.943c0.087-0.273,0.83,0.109,0.72-0.359c-0.061-4.657,0.234-11.107-0.24-15.581
			C44.734,72.586,46.265,78.885,45.783,84.736z"/>
		<path d="M96.84,96.96c-0.605-0.18-0.546-1.576-1.198-1.318c0,0.879,0,1.758,0,2.637c0.394,0.245,1.214,0.064,1.798,0.119
			c0.628-7.795,0.323-17.002,0.719-24.209c0.118-2.145-0.737-3.162-1.678-4.555C96.377,79.32,96.877,88.382,96.84,96.96z"/>
		<path d="M15.82,98.398c0.596-0.108,0.48-1.424,0.48-2.277c0-9.438,0.142-16.97,0.119-26.247c-0.007-0.073-0.018-0.142-0.119-0.12
			c-1.876,1.668-1.318,5.653-1.318,9.349c-0.001,5.979,0.041,11.236,0,16.779C14.981,95.84,14.847,98.576,15.82,98.398z"/>
		<path d="M132.915,82.937c0-0.016,0.001-0.031,0.001-0.046V77.79c-0.477-1.267-1.896-2.642-2.518-3.482
			c-0.143,8.456-0.064,15.604-0.12,24.09c0.553,0.195,1.845,0.195,2.397,0c0.134-1.411,0.203-3.101,0.24-4.907V83.091
			C132.916,83.04,132.915,82.987,132.915,82.937z"/>
		<path d="M31.761,98.159c0.096-3.536-0.137-7.687,0-10.667c0.041-0.915,0.627-2.55-0.6-2.756c-0.57,3.102-0.12,6.596-0.12,9.827
			c0,1.314,0.202,2.94,0,4.075c-0.146,0.82-0.719,1.6-1.083,2.439v25.107c0.003,0.006,0.003,0.014,0.005,0.02
			c0.879,0,1.758,0,2.637,0c0.012-0.016,0.016-0.037,0.025-0.055V98.461C32.323,98.374,31.826,98.482,31.761,98.159z"/>
		<path d="M29.541,121.598v-4.497c-0.002,0.006-0.004,0.015-0.005,0.02c-0.015,0.059-0.028,0.113-0.038,0.153
			c-0.004,0.017-0.008,0.03-0.01,0.041c0.002-0.011,0.006-0.025,0.01-0.041c0.008-0.034,0.021-0.084,0.038-0.153
			c0.002-0.007,0.003-0.013,0.005-0.02v-2.574c0,0.002,0,0.003,0,0v-12.936c-0.018-0.027-0.031-0.058-0.058-0.076
			c-0.938,1.49-2.104,3.059-2.616,4.838v19.763c0.707,0.161,1.992,0.151,2.616-0.032c0.054-0.272,0.022-0.699,0.058-1.107V121.598
			C29.541,121.6,29.541,121.601,29.541,121.598z"/>
		<path d="M42.067,105.709c0.007-0.001,0.009,0.002,0.016,0.001v-0.468c-0.006-0.006-0.009-0.006-0.016-0.013
			c0.005-0.012,0.011-0.013,0.016-0.023v-0.636c-0.007,0.019-0.009,0.04-0.016,0.059c0.006-0.247,0.011-0.468,0.016-0.687v-5.458
			c-0.296-0.099-0.796,0.008-0.854-0.327c0-4.354,0-8.709,0-13.063c1.571-0.318,0.458-3.436,0.6-4.914
			c-0.841,1.557-2.014,2.78-2.518,4.674c0.162,0.238,0.837-0.037,0.84,0.359c0.062,4.477-0.172,9.892,0,13.064
			c-0.32-0.01-0.5,0.139-0.612,0.336v12.764C40.699,109.758,42.149,108.119,42.067,105.709z"/>
		<path d="M39.071,123.087c0.02-0.066,0.036-0.101,0.05-0.118v-10.897c-0.016-0.005-0.035-0.005-0.05-0.01
			c0.016-0.024,0.034-0.049,0.05-0.073V98.502c-0.017-0.034-0.021-0.082-0.05-0.104c-0.286-0.072-0.869,0.15-0.959-0.119
			c-0.12-4.002,0.185-9.1-0.12-13.543c-0.239,0-0.479,0-0.719,0c-0.296,4.933-0.182,8.792-0.239,13.543
			c-0.296-0.016-0.578-0.019-0.72,0.119c-0.121,0.145-0.109,0.423-0.106,0.692v1.609c0.017,0.227,0.017,0.473,0,0.705v24.68
			c1.033,0.085,1.993,0.13,2.913,0.153v-3.031C39.107,123.188,39.091,123.155,39.071,123.087z M39.071,115.537
			C39.149,115.616,39.021,115.487,39.071,115.537L39.071,115.537z"/>
		<path d="M44.944,74.667c-2.067,2.205-2.604,5.905-2.397,10.188c0.164,0.235,0.723,0.076,0.719,0.479
			c0.094,4.103-0.05,8.632,0,12.944c-0.207,0.119-0.6,0.053-0.766,0.214v7.817c0.017-0.002,0.027,0.003,0.047-0.002
			c1.452-1.871,2.961-4.529,2.397-7.67c-1.226-0.662-0.597-2.743-0.6-4.195c-0.005-2.856-0.013-6.031,0-9.348
			c0.154-0.166,0.521-0.119,0.839-0.12C45.074,81.402,45.441,77.708,44.944,74.667z"/>
		<path d="M39.538,112.151v14.098c0.882,0.016,1.726,0.014,2.545,0.003v-14.124C41.135,112.178,40.238,112.245,39.538,112.151z"/>
		<path d="M34.996,98.159c-0.341-4.893,0.218-9.013-0.119-13.423c-0.32,0-0.64,0-0.959,0c-0.463,3.504-0.143,8.871-0.24,13.423
			c-0.465,0.147-0.577,0.478-0.636,0.852v27.13c0.014,0.021,0.021,0.043,0.037,0.063c0.879,0,1.758,0,2.637,0
			c0.036-0.113,0.058-0.268,0.075-0.436V98.447C35.512,98.365,35.078,98.437,34.996,98.159z"/>
		<path d="M26.247,107.028c-0.486,1.423-2.357,2.901-2.757,4.675c-0.008,0.037-0.012,0.079-0.02,0.117v6.851
			c0.009,0.236,0.017,0.474,0.02,0.702c0.021,2.459-0.111,4.735,0.12,6.832c0.879,0,1.758,0,2.637,0
			c0.314-1.365,0.147-3.305,0.203-5.233v-13.844C26.411,107.066,26.353,107.022,26.247,107.028z"/>
		<path d="M45.063,126.205c0.254-4.662,0.093-9.628,0.12-13.903c-0.822-0.227-1.762-0.232-2.684-0.193v14.138
			C43.366,126.232,44.215,126.213,45.063,126.205z"/>
		<path d="M13.303,75.267c-0.007-0.073-0.018-0.143-0.119-0.12c-0.327,0.721-1.016,1.315-1.199,2.157c-0.6,2.75,0,6.822,0,11.027
			c0,1.838,0.006,3.548,0,5.513c-0.003,1.069-0.303,4.614,0.6,4.434c1.14-0.227,0.562-3.649,0.6-5.154
			C13.32,87.69,13.33,80.9,13.303,75.267z"/>
		<path d="M99.597,75.267c-0.286,3.084-0.001,7.105,0,11.266c0,3.995-0.018,8.076,0.119,11.506c0.097,2.414-0.465,4.906,1.079,5.753
			c0.236-6.094-0.017-12.925,0.239-19.296C101.188,80.665,101.699,76.849,99.597,75.267z"/>
		<path d="M135.911,83.057c-0.384-1.622-1.968-2.745-2.396-4.075c-0.083,1.158-0.139,2.372-0.182,3.611v13.118
			c0.02,0.896,0.04,1.793,0.062,2.687c0.604,0.185,1.793,0.185,2.397,0c0.058-1.631,0.154-3.446,0.205-5.345v-9.511
			C135.97,83.378,135.947,83.209,135.911,83.057z"/>
		<path d="M102.832,81.379c0.002,7.979,0.12,13.749,0.12,20.974c0,3.219-0.519,6.39,1.318,7.432c0.047-6.073-0.058-13.533,0-19.656
			c0.036-3.854,0.485-7.556-1.318-9.229C102.968,81.126,102.832,81.165,102.832,81.379z"/>
		<path d="M8.629,83.417c-0.344,3.377,0.087,9.817,0.12,12.703c0.014,1.261-0.456,2.658,0.959,2.158
			c0.35-4.861,0.297-11.047,0.119-17.259C9.622,81.524,8.721,82.515,8.629,83.417z"/>
		<path d="M138.788,87.971c-0.421-1.556-1.875-2.608-2.374-3.788v14.215c0.545-0.019,1.688,0.113,2.254,0
			c-0.17-1.567,0.01-3.274,0.177-4.95v-5.163C138.822,88.182,138.815,88.072,138.788,87.971z"/>
		<path d="M114.309,96.555v-5.908c0-0.004,0-0.008,0-0.013v-1.678c-0.053,0.262-0.031,0.154,0,0v-3.99
			c-0.02-0.087-0.043-0.171-0.09-0.23c-0.722-0.087-1.688-0.102-2.637,0.119c-0.227,2.997,0.427,6.16-0.36,8.51
			c-0.123-2.994,0.179-5.795-0.119-8.51c-2.329,0.115-3.619-0.19-5.993-0.119c1.567,1.709,0.955,6.24,0.959,9.468
			c0.009,7.973-0.285,18.079-0.12,24.929c0.033,1.355-0.151,7.032,0.479,7.191c1.261,0.318,0.73-1.934,0.72-2.637
			c-0.178-10.729,0.314-22.891,0.359-34.158c2.382,1.592,1.951,6.725,1.798,10.547c-0.291,7.262-0.12,14.144-0.12,22.293
			c0,0.45-0.371,4.058,0.6,3.955c0.564-0.059,0.47-1.037,0.479-1.918c0.113-10.902-0.089-19.449,0.239-29.843
			c0.41-0.05,0.36,0.359,0.6,0.479c0.202-0.437-0.109-1.387,0.359-1.559c-0.412,1.482,0.708,2.778,0.959,4.195
			c0.134,0.76-0.116,1.557-0.12,2.396c-0.031,6.938,0,14.543,0,22.413c0,1.222-0.498,2.929,0.6,3.835
			c0.869-1.472,0.48-3.385,0.479-5.033c0-7.582,0.336-15.631-0.239-22.772c0.288-0.178,0.889-0.043,1.169-0.228v-0.667
			C114.294,97.265,114.293,96.91,114.309,96.555z"/>
		<path d="M117.215,98.398c-0.09-4.954,0.213-9.301-0.12-13.662c-0.789,0-1.579,0-2.369,0v13.686
			C115.527,98.577,116.333,98.53,117.215,98.398z"/>
		<path d="M117.694,84.855c-0.08,4.414-0.233,8.773,0,13.543c0.75,0.264,2.174,0.081,2.637,0c0.252-4.611,0.106-9.483,0.119-13.662
			C119.688,84.584,118.664,84.673,117.694,84.855z"/>
		<path d="M25.528,98.398c0.159-4.945,0.284-9.445,0.119-13.543c-0.312-0.224-1.167-0.191-1.198,0.24c0.079,2.419,0,5.598,0,8.629
			C24.449,95.344,23.751,98.421,25.528,98.398z"/>
		<path d="M28.644,98.398c0.307-4.062,0.186-8.149,0.239-13.543c-0.331-0.131-1.033-0.238-1.198,0.12
			c-0.135,2.741,0.002,8.034,0,11.026C27.684,97.195,27.113,98.83,28.644,98.398z"/>
		<path d="M55.85,88.571c0,3.75-0.131,7.354,0.12,9.827c0.359,0,0.719,0,1.078,0c0.334-4.512-0.064-9.358,0.24-13.423
			C55.249,83.728,55.85,86.814,55.85,88.571z"/>
		<path d="M59.326,98.398c1.484,0.55,0.959-4.869,0.959-6.472c0-2.962,0.095-5.178-0.12-7.071c-0.261-0.2-1.08-0.192-1.198,0.12
			c-0.006,3.136-0.004,8.923,0,11.146C58.968,96.857,58.681,98.16,59.326,98.398z"/>
		<path d="M61.843,98.398c0.731-0.016,1.197,0.019,1.559-0.119c-0.129-4.356,0.307-9.549,0-13.424
			c-0.614-0.105-1.276-0.227-1.678,0.12C61.812,89.425,61.55,94.508,61.843,98.398z"/>
		<path d="M64.84,98.279c0.505,0.111,0.769,0.11,1.558,0.119c0.431-3.691,0.148-8.88,0.239-13.543
			c-0.361-0.111-1.799-0.398-1.797,0.24C64.889,89.645,64.759,94.739,64.84,98.279z"/>
		<path d="M68.075,98.279c0.404,0.223,1.379,0.145,1.798,0c-0.023-4.794,0.011-9.186,0.12-13.304c-0.427-0.198-1.563-0.464-1.918,0
			C68.11,89.617,68.02,94.966,68.075,98.279z"/>
		<path d="M73.109,84.855c-0.599-0.193-1.296-0.104-1.918,0c-0.202,4.342-0.164,9.913-0.12,13.424
			c0.468,0.252,1.379,0.06,2.038,0.119C72.982,93.52,73.31,88.636,73.109,84.855z"/>
		<path d="M74.308,85.095c-0.166,3.832-0.23,9.482,0,13.303c0.632,0.115,1.204,0.08,1.798-0.119
			c0.233-4.291,0.088-9.942,0.12-13.424C75.497,85.024,74.539,84.34,74.308,85.095z"/>
		<path d="M77.304,98.398c0.697-0.062,1.653,0.135,2.157-0.119c-0.025-4.414,0.014-8.764,0-13.424
			c-0.641-0.033-2.022-0.432-2.276,0.24C77.276,90.181,76.828,93.957,77.304,98.398z"/>
		<path d="M82.577,84.736c-1.011,0.054-1.609,0.041-2.396,0.119c-0.1,4.504-0.094,8.26-0.12,13.424c0.627,0.195,2.01,0.195,2.637,0
			C82.612,92.849,82.984,89.316,82.577,84.736z"/>
		<path d="M5.513,93.844c0,1.69-0.659,4.491,1.079,4.434c0.165-3.441,0.532-7.951,0-11.746C5.17,88.015,5.513,90.804,5.513,93.844z"
			/>
		<path d="M139.262,89.446v8.083c0.034,0.336,0.074,0.667,0.125,0.989c1.107,0.003,1.413-0.103,2.397-0.12
			c0.708-3.711-0.545-7.303-2.517-9.108C139.266,89.341,139.264,89.394,139.262,89.446z"/>
		<path d="M2.637,98.279c0.359,0,0.719,0,1.078,0c0.185-1.807,0.188-4.786,0-6.592C2.056,92.971,2.621,96.292,2.637,98.279z"/>
		<path d="M142.384,94.683c-0.198,0.975-0.197,2.741,0,3.715c0.746,0.188,1.5-0.006,2.277,0
			C143.939,97.123,143.47,95.593,142.384,94.683z"/>
		<path d="M0.958,96.361C0.58,96.942,0.113,97.433,0,98.279c0.375-0.025,0.88,0.08,1.078-0.12
			C0.855,97.494,1.491,96.554,0.958,96.361z"/>
		<path d="M115.537,103.193c-0.172,4.855-0.12,13.979-0.12,20.614c0-0.177-0.342,2.616,0.599,2.517
			c0.726-0.076,0.479-1.906,0.479-2.277c0-4.925-0.011-9.814,0.12-13.902C116.689,107.815,116.998,104.263,115.537,103.193z"/>
		<path d="M118.653,108.706c0.022,4.138-0.132,10.51,0,14.741c0.042,1.362-0.344,2.792,0.479,2.877c0.861,0.089,0.6-1.961,0.6-3.116
			c0-1.487,0-2.509,0-3.955C119.731,114.989,120.401,110.4,118.653,108.706z"/>
		<path d="M48.42,112.181c-1.093,0.052-1.873-0.354-2.877,0.12c0.023,4.657-0.169,9.659,0,13.903
			c1.026,0.093,1.944,0.129,2.877-0.121C48.375,121.305,48.5,116.644,48.42,112.181z"/>
		<path d="M48.899,112.181c-0.026,4.06-0.045,10.371,0,14.023c0.919,0,1.838,0,2.756,0c0.036-4.988,0.152-9.495,0-14.023
			C50.861,112.062,49.597,112.003,48.899,112.181z"/>
		<path d="M52.375,112.181c-0.278,4.475-0.082,9.6-0.12,13.902c0.648,0.142,1.606,0.373,2.277,0.121
			c0.017-4.729,0.225-9.736,0-14.023C53.691,112.24,52.922,112.082,52.375,112.181z"/>
		<path d="M61.483,112.181c-0.058,3.641-0.28,9.406,0,14.023c0.569,0.034,1.407,0.146,2.157,0c0.051-5.015,0.115-9.853,0-14.023
			C62.718,112.206,62.296,112.017,61.483,112.181z"/>
		<path d="M64.6,112.421c-0.015,4.463-0.182,8.997,0,13.783c0.784,0.225,1.537-0.053,2.277,0c-0.148-4.825-0.009-8.437,0-14.023
			C65.976,112.3,64.988,111.789,64.6,112.421z"/>
		<path d="M55.251,112.181c-0.137,4.874-0.166,9.126,0,14.023c0.661,0.205,1.707-0.01,2.277,0c0.001-5.659,0.131-9.527,0-14.023
			C56.769,112.181,56.011,112.181,55.251,112.181z"/>
		<path d="M60.644,112.181c-0.716,0.163-2.128-0.37-2.277,0.359c0.018,5.337-0.076,9.149,0,13.664c0.982,0.026,1.357,0.127,2.277,0
			C60.627,121.492,60.674,116.191,60.644,112.181z"/>
		<path d="M69.993,112.181c-0.68,0-1.358,0-2.038,0c-0.475,4.785-0.085,8.265-0.239,13.902c0.451,0.297,1.688,0.352,2.277,0.121
			C69.979,121.28,70.029,116.69,69.993,112.181z"/>
		<path d="M71.071,112.301c0.015,4.502-0.096,9.997,0,13.903c0.835,0.04,1.374,0.176,2.038,0c0.027-4.574,0.216-8.479,0-13.903
			C72.666,112.109,71.515,112.109,71.071,112.301z"/>
		<path d="M74.188,112.54c-0.032,4.358,0.018,8.787,0,13.664c0.747,0.193,1.403,0.12,2.038,0c0.087-5.041,0.191-9.21,0-14.023
			C75.577,112.332,74.276,111.83,74.188,112.54z"/>
		<path d="M77.544,112.181c-0.556,4.199-0.083,9.426-0.24,14.023c0.443,0.192,1.595,0.192,2.038,0c0.076-4.283,0.25-9.672,0-14.023
			C78.742,112.181,78.143,112.181,77.544,112.181z"/>
		<path d="M80.54,112.54c0.015,4.516-0.021,9.531,0,13.664c0.451,0.176,1.347,0.176,1.798,0c-0.005-5.807,0.11-8.51,0-13.903
			C81.977,112.189,80.538,111.904,80.54,112.54z"/>
		<path d="M84.016,112.181c-0.167,5.019-0.308,9.971,0,14.142c0.491,0.012,0.982,0.024,1.318-0.119
			c0.097-4.031,0.248-9.173,0-14.023C84.895,112.181,84.455,112.181,84.016,112.181z"/>
		<path d="M86.892,112.661c-0.634,1.322,0.011,4.829,0,6.831c-0.015,2.648-0.174,5.125,0.239,6.832c0.399,0,0.799,0,1.198,0
			c0.227-5.004,0.226-9.469,0.12-14.142C87.775,112.091,87.153,112.117,86.892,112.661z"/>
		<path d="M91.687,112.301c-0.587-0.219-1.438-0.284-1.438,0.359c0.001,2.37,0.036,4.069,0,6.831
			c-0.018,1.337-0.448,6.674,0.6,6.832c1.258,0.191,0.839-2.148,0.839-3.116C91.686,119.457,91.687,115.267,91.687,112.301z"/>
		<path d="M93.364,112.181c-0.167,4.568-0.026,9.934,0,14.023c0.361,0.161,0.956,0.161,1.318,0c0.049-4.059,0.118-8.573,0.12-13.903
			C94.513,112.072,93.839,112.226,93.364,112.181z"/>
		<path d="M96.6,112.54c0.182,4.067-0.334,9.725,0.239,13.783c0.394-0.005,0.597-0.202,1.079-0.119
			c0.153-4.393,0.226-10.039,0-14.023C97.371,112.193,96.68,112.061,96.6,112.54z"/>
		<path d="M99.836,112.181c-0.452,3.775-0.261,10.199-0.12,14.142c0.36,0,0.72,0,1.079,0c0.32-3.855,0.449-9.938,0-14.142
			C100.475,112.181,100.155,112.181,99.836,112.181z"/>
		<path d="M102.832,112.54c0.311,4.086-0.306,9.15,0.24,13.783c0.359,0,0.719,0,1.078,0c0.178-4.582,0.235-10.205,0-14.142
			C103.604,112.193,102.912,112.061,102.832,112.54z"/>
		<path d="M22.892,112.661c-2.765,2.938-2.317,7.663-2.277,13.423c0.552,0.195,1.845,0.195,2.397,0
			c0.016-0.289,0.03-0.609,0.043-0.941v-12.463C23.015,112.658,22.961,112.651,22.892,112.661z"/>
		<path d="M121.768,113.859c-0.221,1.297-0.207,4.387-0.119,5.993c0.073,1.345-0.463,6.216,0.359,6.472
			c1.114,0.347,0.719-3.986,0.719-5.033C122.727,117.874,123.15,115.134,121.768,113.859z"/>
		<path d="M20.015,117.575c-0.923,1.449-1.812,2.958-2.203,4.812v3.716c0.589,0.176,1.674,0.146,2.304,0.011v-8.077
			C20.082,117.881,20.058,117.718,20.015,117.575z"/>
		<path d="M124.766,126.324c0.199,0,0.399,0,0.599,0c0.539-1.936,0.791-6.183-0.719-7.431
			C124.517,121.6,124.37,124.046,124.766,126.324z"/>
		<path d="M17.378,122.369c-0.72,1.198-1.428,2.408-2.037,3.715c0.43,0.25,1.296,0.063,1.917,0.121
			c0.064-0.191,0.1-0.409,0.137-0.624v-3.04C17.389,122.484,17.385,122.423,17.378,122.369z"/>
		<path d="M127.521,126.205c0.219,0.183,0.98,0.183,1.199,0c-0.3-0.899-0.617-1.78-1.199-2.397
			C127.327,124.359,127.327,125.652,127.521,126.205z"/>
	</g>
</g>
<g id="Layer_1">
</g>
</svg>
