<?xml version="1.0" encoding="iso-8859-1"?>
<!-- Generator: Adobe Illustrator 19.2.0, SVG Export Plug-In . SVG Version: 6.00 Build 0)  -->
<svg version="1.1" xmlns="http://www.w3.org/2000/svg" xmlns:xlink="http://www.w3.org/1999/xlink" x="0px" y="0px"
	 viewBox="0 0 86.764 56.193" style="enable-background:new 0 0 86.764 56.193;" xml:space="preserve">
<g id="scal_x5F_gp">
	<path style="fill-rule:evenodd;clip-rule:evenodd;" d="M71.552,0c0.033,0,0.066,0,0.099,0c0.214,0.383-0.183,0.73-0.348,0.994
		c-2.478,3.974-4.99,8.151-7.457,12.229c-0.96,1.587-1.738,3.201-2.784,4.772c-1.795,2.696-3.474,5.55-5.22,8.352
		c-2.307,3.701-4.706,7.475-6.86,11.235c-1.059,1.848-2.16,3.806-3.38,5.667c-1.196,1.824-2.323,3.784-3.729,5.319
		c-2.193,2.396-4.427,4.498-7.706,5.866c-0.796,0.332-1.556,0.631-2.485,0.944c-2.198,0.742-6.084,1.003-8.998,0.597
		c0.762-0.527,1.77-0.568,2.685-0.896c0.802-0.286,1.592-0.809,2.287-1.242c2.821-1.761,4.788-4.656,6.165-7.954
		c2.05-4.911,4.204-9.875,6.363-14.814c0.716-1.641,1.451-3.271,2.137-4.922c0.692-1.666,1.5-3.304,2.039-5.021
		c-0.488-0.355-1.196-0.249-1.79-0.249c-4.482,0.001-9.509,0.081-13.87-0.1c0.184-0.5,0.79-0.611,1.193-0.795
		c3.083-1.403,6.227-3.06,9.396-4.475c3.599-1.606,7.14-3.386,10.689-5.17c3.505-1.762,7.211-3.308,10.738-5.12
		c1.758-0.903,3.529-1.773,5.319-2.635C67.867,1.702,69.699,0.794,71.552,0z"/>
	<path style="fill-rule:evenodd;clip-rule:evenodd;" d="M73.739,0.198c0.691,0.378,1.357,1.816,1.79,2.485
		c0.605,0.938,1.229,1.696,1.641,2.536c2.857,4.462,5.638,8.941,8.451,13.472c0.395,0.637,0.97,1.222,1.144,1.988
		c-0.695,0.26-1.507,0.164-2.287,0.199c-1.685,0.077-3.316,0-5.12,0c-0.858,0-1.811-0.138-2.486,0.05
		c-0.413,0.114-0.908,0.757-1.342,1.193c-1.247,1.251-2.452,2.858-3.53,4.076c-4.717,5.328-9.527,11.016-13.969,16.355
		c-2.994,3.643-6.143,7.335-10.241,9.992c-2.061,1.337-4.277,2.382-7.06,3.083c-2.634,0.663-6.046,0.666-9.396,0.396
		c1.055-0.576,2.205-0.77,3.232-1.242c1.04-0.479,1.989-0.912,2.933-1.491c3.608-2.215,6.261-5.616,8.501-9.297
		c2.252-3.7,4.496-7.289,6.811-10.986c2.836-4.53,5.778-9.049,8.65-13.571c0.295-0.465,0.622-0.891,0.895-1.342
		c0.285-0.472,0.473-0.949,0.746-1.442c0.759-1.374,1.79-2.661,2.635-4.076c0.818-1.371,1.751-2.722,2.635-4.077
		c0.628-0.962,1.433-2.041,1.988-3.082c0.56-1.049,1.319-1.983,1.939-3.032C72.758,1.607,73.164,0.787,73.739,0.198z"/>
	<path style="fill-rule:evenodd;clip-rule:evenodd;" d="M13.636,20.879c-0.085,0.812-0.575,1.49-0.895,2.237
		c-0.932,2.175-1.687,4.585-2.287,7.108c-0.797,3.357-1.202,7.466-0.497,11.285c0.945,5.123,3.509,9.1,7.059,11.683
		c0.61,0.443,1.166,0.939,1.839,1.293c0.667,0.35,1.4,0.581,2.039,1.044c-0.489,0.44-1.312,0.376-1.989,0.397
		c-2.193,0.068-4.369-0.442-5.965-1.044c-2.356-0.888-4.375-1.985-6.015-3.381C3.63,48.429,1.148,43.95,0.363,38.229
		c-0.74-5.39-0.303-11.101,0.895-15.709c0.159-0.61,0.302-1.287,0.696-1.74c2.596-0.089,6.095-0.05,8.949-0.05
		C11.847,20.73,12.794,20.616,13.636,20.879z"/>
	<path style="fill-rule:evenodd;clip-rule:evenodd;" d="M28.053,20.829c0.009,0.442-0.359,0.744-0.596,1.044
		c-1.663,2.104-3.11,4.524-4.425,7.059c-0.185,0.846-0.68,1.596-0.944,2.436c-0.208,0.662-0.17,1.294-0.646,1.69
		c0.042,0.257,0.065,0.531,0.05,0.846c-1.367,4.358-0.603,9.561,0.547,13.272c0.632,2.038,2.23,4.069,3.629,5.469
		c0.362,0.363,0.999,0.742,0.994,1.044c-0.007,0.438-1.249,0.886-1.839,1.143c-1.884,0.823-3.288,0.402-4.822-0.397
		c-2.018-1.054-3.965-2.713-5.269-4.375c-2.024-2.578-3.18-5.114-3.927-8.948c-0.725-3.721-0.191-7.928,0.696-11.385
		c0.624-2.433,1.498-4.749,2.635-7.009c0.329-0.655,0.705-1.899,1.442-1.989c0.957-0.115,2.104,0,3.182,0
		C21.774,20.731,25.187,20.649,28.053,20.829z"/>
</g>
<g id="Layer_1">
</g>
</svg>
