<?xml version="1.0" encoding="iso-8859-1"?>
<!-- Generator: Adobe Illustrator 19.2.0, SVG Export Plug-In . SVG Version: 6.00 Build 0)  -->
<svg version="1.1" xmlns="http://www.w3.org/2000/svg" xmlns:xlink="http://www.w3.org/1999/xlink" x="0px" y="0px"
	 viewBox="0 0 82.266 83.808" style="enable-background:new 0 0 82.266 83.808;" xml:space="preserve">
<g id="Schauspielgemeinschaft_x5F_Zurich">
	<path style="fill-rule:evenodd;clip-rule:evenodd;" d="M82.079,0.128c0.144,27.74,0.28,55.975,0.103,83.467
		c-3.413,0.27-6.864,0.154-10.291,0.154c-23.878,0-47.921,0.131-71.631,0c-0.279-6.91-0.155-13.918-0.155-20.943
		c0-6.986-0.052-14.02-0.051-20.996c0.001-14.006-0.15-27.947,0.051-41.631C5.493-0.106,11.12,0.271,16.726,0.078
		c5.665-0.197,11.418,0.268,17.187,0c3.713-0.174,8.328-0.002,12.196,0C58.144,0.078,70.455-0.059,82.079,0.128z M50.586,1.107
		c-0.029,0.506,0.473,0.805,0.772,1.08c1.053,0.967,1.94,2.019,2.984,2.984c1.364,1.258,2.676,2.619,4.065,3.91
		c1.945,1.809,4.171,3.813,6.124,5.764c0.565,0.566,1.813,1.393,1.956,2.059c0.119,0.559,0,1.383,0,2.109c0,2.236,0,4.342,0,6.484
		c0,2.936-0.123,5.756,0.154,8.44c1.093,0.273,2.318,0.051,3.551,0.104c3.686,0.154,7.715,0.07,10.961-0.104
		c0.185-10.949,0.156-22.188-0.052-32.883C70.99,0.847,60.708,0.955,50.586,1.107z M27.841,1.054c-3.614,0-7.304-0.105-10.858,0.104
		c-0.046,0.486,0.445,0.754,0.72,1.029c4.025,4.023,8.214,8.006,12.196,11.99c0.619,0.617,1.258,1.307,2.058,1.697
		c0.258-1.125,0.183-2.387,0.155-3.602c-0.085-3.568,0.043-7.506-0.155-11.115C30.634,0.834,29.234,1.054,27.841,1.054z
		 M33.862,1.054c-0.219,0.467,0.361,0.773,0.618,1.029c0.948,0.947,1.924,1.984,2.881,2.83c2.725,2.94,5.68,5.785,8.491,8.594
		c0.461,0.461,0.904,0.988,1.39,1.441c0.472,0.439,0.99,1.088,1.595,1.184c0.104-3.547,0.052-7.596,0.051-11.32
		c0-1.272,0.121-2.553-0.154-3.705C43.999,0.9,38.683,1.003,33.862,1.054z M1.186,1.107C0.802,1.623,0.953,2.31,0.98,2.908
		C1.195,7.64,0.973,12.955,1.031,17.625c0.071,5.6-0.251,11.27,0.103,16.416c2.169,0.24,4.636,0.102,7.05,0.102
		c2.409,0,4.844,0.16,7.05-0.102c0.199-8.152,0.052-16.344,0.052-24.701c0-2.791,0.101-5.561-0.154-8.182
		C10.704,0.953,5.698,1.054,1.186,1.107z M49.866,2.65c-0.085,4.971-0.043,9.699,0,14.717c4.224,4.842,8.939,9.299,13.431,13.791
		c0.651,0.65,1.256,1.412,2.11,1.801c0.202-4.147,0.068-9.555,0.154-13.791c0.013-0.658,0.081-1.453-0.052-1.904
		c-0.164-0.555-1.283-1.377-1.852-1.902c-3.654-3.371-7.051-6.742-10.652-10.086c-0.874-0.812-1.886-2.272-2.984-2.779
		C49.946,2.525,49.894,2.576,49.866,2.65z M33.09,2.701c-0.057,4.705-0.147,9.891,0.052,14.512c0.534,0.818,1.292,1.498,2.007,2.213
		c1.458,1.457,2.778,2.676,4.271,4.168c0.477,0.477,1.846,1.578,2.007,2.213c0.296,1.17,0.052,2.73,0.051,4.117
		c0,1.422-0.123,2.826,0.154,4.065c2.149,0.17,5.004,0.172,7.153,0c0.275-1.215,0.155-2.555,0.155-3.91
		c0-2.732-0.051-5.217-0.052-7.977c0-1.203,0.312-2.967,0-4.014c-0.113-0.379-0.535-0.662-0.875-1.029
		c-1.019-1.103-1.963-1.904-2.933-2.934c-2.915-2.795-5.821-5.82-8.748-8.748c-0.796-0.797-2.164-2.238-3.087-2.83
		C33.17,2.576,33.119,2.626,33.09,2.701z M16.315,2.753c-0.094,1.178-0.052,2.633-0.052,3.961c0,4.014,0.052,7.881,0.052,11.732
		c0,4.606-0.251,9.252-0.052,13.793c0.026,0.582-0.032,1.24,0.206,1.801c4.944,0.143,10.732,0.229,15.541-0.053
		c0.184-3.895,0.103-8.102,0.103-12.041c0-1.201,0.243-3.017-0.052-4.064c-0.169-0.6-1.291-1.447-1.852-2.008
		C26.287,11.955,22.43,8.302,18.527,4.4c-0.577-0.578-1.574-1.65-2.11-1.803C16.353,2.619,16.312,2.666,16.315,2.753z
		 M33.142,19.271c-0.181,1.723-0.047,3.533-0.052,5.301c-0.007,2.59,0,5.156,0,7.719c0,0.56-0.116,1.18,0.154,1.697
		c2.149,0.172,5.004,0.17,7.153,0c0.247-2.254,0.076-5.334,0.051-7.822c-0.461-0.68-1.083-1.268-1.698-1.852
		c-1.248-1.184-2.345-2.242-3.602-3.5c-0.509-0.508-1.346-1.562-1.904-1.697C33.172,19.13,33.186,19.23,33.142,19.271z
		 M49.969,19.425c-0.118,0.469-0.157,1.357-0.154,1.955c0.014,2.611,0.052,5.469,0.052,8.131c0,1.578-0.124,3.111,0.154,4.477
		c3.486,0.195,7.257,0.104,10.909,0.104c1.214,0,2.442,0.123,3.551-0.154c-0.355-0.797-1.107-1.312-1.698-1.904
		c-1.819-1.818-3.538-3.67-5.403-5.402c-2.499-2.324-4.693-4.945-7.204-7.256c-0.003-0.031-0.008-0.061-0.052-0.053
		C50.062,19.347,50.007,19.376,49.969,19.425z M36.435,35.017c-1.088,0.008-2.297-0.02-3.242,0.207
		c-0.187,3.268-0.103,7.057-0.103,10.445c0,1.166-0.119,2.348,0.154,3.396c1.038,0.246,2.349,0.176,3.551,0.154
		c1.254-0.024,2.5-0.008,3.602-0.104c0.276-1.039,0.154-2.238,0.154-3.396c0-3.592,0.013-7.344-0.154-10.549
		C39.206,34.986,37.806,35.007,36.435,35.017z M50.02,35.171c-0.27,1.043-0.154,2.223-0.154,3.396c0,3.521-0.117,7.414,0.154,10.498
		c4.902,0.25,10.6,0.229,15.386,0c0.28-1.293,0.154-2.709,0.154-4.117c0-1.41-0.056-2.863-0.052-4.271
		c0.006-1.949,0.188-3.85-0.103-5.557C60.773,35.046,54.989,34.982,50.02,35.171z M67.723,35.07
		c-0.206,0.422,0.292,0.754,0.514,0.977c3.682,3.68,7.424,7.424,11.063,11.064c0.555,0.555,1.022,1.295,1.801,1.543
		c0.342-0.637,0.154-1.445,0.154-2.213c0.001-3.523,0.091-7.721-0.103-11.32C76.898,34.916,72.063,35.017,67.723,35.07z
		 M27.378,35.121c-1.575,0-3.453-0.125-4.837,0c-2.03,0.182-4.233-0.264-6.124,0.154c-0.171,4.406-0.17,9.49,0,13.842
		c2.41,0.375,5.058-0.014,7.719,0.104c2.637,0.117,5.355,0.025,7.873-0.104c0.182-4.447,0.172-9.387,0-13.893
		C30.547,34.902,28.962,35.121,27.378,35.121z M41.735,35.121c-0.428,0.615-0.257,1.455-0.257,2.213c0,0.803,0,1.68,0,2.521
		c0,3.197-0.07,6.432,0.154,9.211c0.969,0.207,2.261,0.154,3.551,0.154c1.281,0,2.632,0.119,3.654-0.154
		c0.188-3.287,0.103-7.09,0.103-10.498c0-1.166,0.122-2.348-0.155-3.396C46.654,34.968,43.952,35.068,41.735,35.121z M10.86,35.121
		c-2.957,0-6.182-0.1-8.697,0.154c0.443,0.828,1.202,1.459,1.853,2.109c1.352,1.352,2.74,2.639,4.065,3.963
		c0.676,0.676,1.446,1.266,2.058,1.955c0.18,0.203,0.285,0.467,0.463,0.67c0.677,0.766,1.522,1.418,2.265,2.16
		c0.366,0.367,0.74,0.725,1.132,1.08c0.373,0.34,0.658,0.912,1.235,0.979c0.171-4.066,0.171-8.85,0-12.916
		C13.885,34.996,12.38,35.121,10.86,35.121z M66.59,36.253c-0.116,1.035-0.023,2.154-0.052,3.24c-0.052,2.01,0.001,4.111,0,6.381
		c0,1.072-0.124,2.164,0.154,3.191c3.029,0.188,6.576,0.104,9.726,0.104c1.078,0,2.177,0.119,3.139-0.154
		c-0.263-0.801-1.072-1.055-1.493-1.699c-3.725-3.754-7.447-7.51-11.218-11.219c-0.034,0-0.069,0-0.103,0
		C66.67,36.126,66.619,36.179,66.59,36.253z M1.083,36.355c-0.093,0.947-0.051,2.113-0.052,3.242c0,2.201,0.001,4.385,0,6.484
		c0,1.066-0.122,2.144,0.155,3.088c2.028,0.188,4.31,0.102,6.535,0.102c2.257,0,4.543,0.125,6.535-0.154
		c-0.335-0.691-0.971-1.176-1.492-1.697c-0.54-0.541-1.097-1.064-1.647-1.596c-1.024-1.137-2.066-2.256-3.19-3.293
		c-1.582-1.541-3.309-3.154-4.94-4.785c-0.476-0.477-1.28-1.367-1.75-1.545C1.163,36.23,1.112,36.281,1.083,36.355z M33.245,50.3
		c-0.263,0.801-0.133,1.644-0.103,2.521c0.097,2.805,0,6.508,0,9.676c0,1.084-0.196,2.514,0.051,3.293
		c0.148,0.463,0.942,1.062,1.389,1.492c3.509,3.369,6.854,6.869,10.292,10.033c0.902,1.016,1.993,1.941,2.933,2.883
		c0.296,0.295,0.586,0.795,1.081,0.771c0.245-4.578,0.024-9.451,0.103-14.1c-2.262-2.441-4.916-4.811-7.359-7.205
		c-0.371-0.363-0.916-0.717-1.029-1.08c-0.167-0.535-0.052-1.379-0.052-2.059c0-2.127,0.083-4.314-0.103-6.226
		C38.331,50.027,35.377,50.091,33.245,50.3z M41.632,50.3c-0.203,2.371-0.104,5.316-0.051,7.771
		c0.379,0.766,1.115,1.231,1.698,1.801c1.21,1.184,2.42,2.34,3.602,3.5c0.597,0.584,1.194,1.221,1.956,1.594
		c0.279-1.117,0.154-2.377,0.154-3.602c0-3.814,0.038-7.576-0.154-11.064C46.675,50.041,43.786,50.105,41.632,50.3z M50.072,50.25
		c-0.279,1.217-0.154,2.521-0.154,3.859c0,2.695,0,5.289,0,8.027c0,1.135-0.232,2.982,0.051,3.963
		c0.178,0.617,1.24,1.406,1.801,1.955c1.954,1.912,3.918,3.889,5.763,5.66c1.965,1.887,3.994,3.635,5.866,5.506
		c0.633,0.633,1.219,1.4,2.059,1.75c0.281-1.219,0.154-2.49,0.154-3.756c0-7.773-0.052-15.637-0.051-23.156
		c0-1.273,0.124-2.574-0.154-3.809C60.422,50.068,54.874,50.15,50.072,50.25z M66.899,50.146c-0.061,0.025-0.117,0.055-0.154,0.104
		c-0.311,0.115-0.206,1.191-0.206,1.904c0,9.135,0.053,17.713,0.052,26.5c-0.001,1.361-0.124,2.725,0.154,4.016
		c3.435,0.227,7.282,0.104,10.909,0.102c1.231,0,2.481,0.123,3.602-0.154c0.118-10.238,0.109-21.977-0.051-32.367
		C76.641,50.009,71.634,50.214,66.899,50.146z M17.498,50.3c-0.063,0.459,0.407,0.767,0.669,1.029
		c2.128,2.129,4.291,4.16,6.381,6.279c1.779,1.801,3.738,3.531,5.506,5.299c0.607,0.607,1.176,1.357,2.007,1.646
		c0.187-2.236,0.103-4.721,0.103-7.152c0-2.451,0.12-4.912-0.154-7.101C27.41,50.128,22.098,50.13,17.498,50.3z M1.237,50.3
		c-0.342,0.545-0.206,1.25-0.206,1.854c0,10.264,0.001,20.641,0.155,30.566c2.449,0.271,5.012,0.154,7.564,0.154
		c7.765-0.002,15.666,0.09,23.053-0.154c-0.196-0.688-0.854-1.111-1.338-1.596c-3.561-3.561-7.41-6.889-10.961-10.395
		c-0.692-0.664-1.38-1.33-2.058-2.008c-0.679-0.678-1.567-1.199-2.007-2.109c-0.152-5.436,0.061-11.021-0.206-16.26
		C10.79,50.146,5.766,50.25,1.237,50.3z M16.366,51.484c-0.052,4.691,0.027,9.619,0,14.717c2.423,2.654,5.153,5.002,7.719,7.514
		c1.932,1.891,3.987,3.68,5.866,5.559c0.629,0.629,1.234,1.416,2.11,1.75c0.351-4.586-0.022-9.652,0.103-14.512
		c-1.101-1.426-2.519-2.57-3.808-3.859c-3.215-3.217-6.445-6.309-9.726-9.521c-0.57-0.557-1.573-1.625-2.11-1.801
		C16.446,51.359,16.395,51.41,16.366,51.484z M33.193,67.9c-0.041,0.629-0.051,1.527-0.051,2.367c0,3.477,0.17,6.768,0.051,9.932
		c-0.033,0.867-0.205,1.758,0.154,2.521c3.491,0.154,7,0.104,10.601,0.104c1.599,0,3.191,0.123,4.683-0.154
		c-0.381-0.818-1.129-1.387-1.75-2.008c-3.8-3.799-7.605-7.398-11.476-11.166c-0.544-0.529-1.535-1.658-2.109-1.75
		C33.224,67.759,33.238,67.859,33.193,67.9z M63.503,80.765c-4.499-4.152-8.8-8.479-13.174-12.711c-0.034,0-0.068,0-0.103,0
		c0.016-0.104-0.148,0.01-0.154,0.051c-0.142,0.322-0.139,1.113-0.154,1.75c-0.101,4.201,0.062,8.842,0.154,12.814
		c1.012,0.272,2.125,0.154,3.242,0.154c4.011-0.002,8.382,0.084,11.938-0.154C64.95,81.826,64.126,81.339,63.503,80.765z"/>
</g>
<g id="Layer_1">
</g>
</svg>
