<?xml version="1.0" encoding="iso-8859-1"?>
<!-- Generator: Adobe Illustrator 19.2.0, SVG Export Plug-In . SVG Version: 6.00 Build 0)  -->
<svg version="1.1" xmlns="http://www.w3.org/2000/svg" xmlns:xlink="http://www.w3.org/1999/xlink" x="0px" y="0px"
	 viewBox="0 0 83.736 46.02" style="enable-background:new 0 0 83.736 46.02;" xml:space="preserve">
<g id="Schlagzeuginstrumentenfabrik_x5F_Johannes_x5F_Link">
	<path style="fill-rule:evenodd;clip-rule:evenodd;" d="M37.556,7.336c15.226,0.111,31.061-0.207,46.053-0.104
		c0.166,0.581,0.175,1.825,0,2.404c-15.412,0.453-30.589,0.115-45.844,0.418c-0.367,0.878-0.479,1.77-0.783,2.561
		c-1.038,2.693-3.47,4.91-6.639,5.489c-5.645,1.031-10.311-2.888-10.716-8.102c-0.147-1.89,0.316-3.743,0.993-5.071
		c1.379-2.707,3.985-4.623,7.736-4.914c1.432-0.111,2.822,0.332,3.868,0.784c1.285,0.556,2.514,1.483,3.397,2.561
		C36.569,4.517,36.992,5.948,37.556,7.336z"/>
	<path style="fill-rule:evenodd;clip-rule:evenodd;" d="M0.182,38.856c-0.225-0.528-0.26-1.832,0-2.352
		c15.037-0.379,30.701,0.037,45.79-0.366c0.442-1.131,0.566-2.221,1.046-3.188c1.303-2.628,4.093-4.909,7.841-5.018
		c3.45-0.101,5.87,1.616,7.317,3.606c0.985,1.354,1.778,3.128,1.83,5.28c0.051,2.118-0.66,3.947-1.726,5.437
		c-0.948,1.328-2.401,2.555-3.92,3.188c-2.693,1.124-5.947,0.471-7.998-0.784c-2.113-1.294-3.289-3.206-4.182-5.75
		C31.15,38.674,15.642,39.05,0.182,38.856z"/>
</g>
<g id="Layer_1">
</g>
</svg>
