<?xml version="1.0" encoding="iso-8859-1"?>
<!-- Generator: Adobe Illustrator 19.2.0, SVG Export Plug-In . SVG Version: 6.00 Build 0)  -->
<svg version="1.1" xmlns="http://www.w3.org/2000/svg" xmlns:xlink="http://www.w3.org/1999/xlink" x="0px" y="0px"
	 viewBox="0 0 60.296 76.52" style="enable-background:new 0 0 60.296 76.52;" xml:space="preserve">
<g id="Schutzenverband">
	<path style="fill-rule:evenodd;clip-rule:evenodd;" d="M56.485,0.002c0.042-0.009,0.046,0.019,0.049,0.048
		c0.4,0.424,0.274,1.168,0.293,1.759c0.061,1.944-0.066,4.032-0.782,5.277c-0.751,1.307-1.748,2.28-3.225,2.834
		c-0.478,0.18-1.029,0.153-1.515,0.489c0.136,0.557,0.535,0.964,0.782,1.515c0.239,0.534,0.475,1.141,0.538,1.857
		c0.215,2.461-0.78,4.312-1.515,6.157c-0.756,1.898-1.527,3.699-2.199,5.473c-1.466,3.87-3.166,7.245-4.349,10.945
		c0.356,0.555,1.048,0.562,1.563,0.733c3.967,1.312,7.119,3.476,9.577,6.45c2.79,3.375,4.625,7.66,4.593,13.583
		c-0.022,4-1.471,7.402-3.176,10.017c-1.77,2.715-3.877,4.885-6.645,6.548c-2.854,1.714-5.913,2.834-10.359,2.834
		c-3.016,0-5.838-0.825-8.062-1.808c-0.545-0.241-1.666-1.125-2.248-1.026c-0.926,0.156-0.595,2.047-1.466,2.394
		c-7.094,0.048-14.443,0.098-21.597,0.098c-0.98,0-2.021,0.141-2.932-0.195c0.002-0.868,0.447-1.66,0.733-2.443
		c0.852-2.334,1.918-4.655,2.834-6.987c0.915-2.329,1.906-4.595,2.932-6.89c0.333-0.746,0.849-1.421,0.928-2.248
		c-0.587,0.064-1.031,0.558-1.466,0.929c-0.444,0.379-0.871,0.786-1.368,1.075c-1.788,1.486-3.645,2.902-5.521,4.3
		c-0.412,0.428-0.949,0.681-1.417,1.026C1.016,65.075,0.648,65.633,0,65.721c0.074-1.294,0.729-2.434,1.172-3.616
		c1.715-4.572,3.864-9.203,5.668-13.779c1.361-3.453,2.794-6.903,4.202-10.359c1.846-4.531,3.796-9.127,5.619-13.828
		c1.298-3.348,2.889-6.835,4.251-10.359c0.215-0.556,0.376-1.088,0.684-1.759c0.224-0.49,0.809-1.295,0.733-1.661
		c-0.121-0.582-1.153-0.385-1.612-0.733c-1.444-0.705-2.641-1.892-3.274-3.518c-0.596-1.532-0.399-3.944-0.342-5.912
		c0.675,0.17,1.212,0.833,1.955,1.124c1.445,0.566,3.879,0.342,5.961,0.342c7.282,0,14.203,0.049,21.744,0.049
		c2.721,0,6.554,0.392,8.208-0.538C55.568,0.839,55.951,0.324,56.485,0.002z M52.869,3.813c-1.175,0.227-2.763,0.049-4.153,0.049
		c-6.376,0-13.167-0.049-19.447-0.049c-2.74,0-5.43,0.192-7.818,0c-0.944-0.076-1.808-0.68-2.541-0.537
		c-0.267,0.958,0.201,1.866,0.684,2.443c1.587,1.9,4.748,2.035,8.209,2.199c3.435,0.162,6.709,1.18,8.062,3.323
		c0.383,0.606,0.421,1.353,1.075,1.856c0.482-0.442,0.514-1.135,0.831-1.661c1.233-2.052,3.803-2.976,6.792-3.225
		c3.391-0.282,6.513,0.214,8.746-1.319c1.007-0.691,1.682-2.093,1.563-3.665C54.059,3.173,53.559,3.68,52.869,3.813z M23.258,13.634
		c-0.465,2.315,1.208,4.927,3.176,5.13c0.368-0.942,0.154-2.148,0.146-3.273c-0.011-1.674,0.143-3.466-0.098-4.935
		C24.876,10.283,23.566,12.105,23.258,13.634z M32.347,14.954c0.094-1.969-0.943-4.085-2.639-4.447
		c-0.158-0.033-0.204,0.085-0.293,0.098c-0.259,0.361-0.146,0.873-0.146,1.319c0,1.891-0.076,3.718,0,5.522
		c0.018,0.419-0.12,0.903,0.195,1.221C30.913,18.246,32.258,16.815,32.347,14.954z M41.435,14.318
		c-0.133,2.138,1.311,4.153,3.176,4.496c0.37-0.471,0.244-1.21,0.244-1.906c0-1.442,0-2.956,0-4.349
		c0-0.719,0.146-1.478-0.244-1.954C42.855,10.514,41.541,12.634,41.435,14.318z M50.182,16.615c0.239-0.509,0.402-1.214,0.44-1.808
		c0.12-1.878-1.236-4.291-2.932-4.007c-0.261,0.268-0.12,1.64-0.146,2.346c-0.031,0.823,0.002,1.656,0,2.345
		c-0.004,1.288-0.198,2.31,0.146,3.225C48.75,18.538,49.693,17.655,50.182,16.615z M33.91,12.559
		c0.476,1.299,0.597,2.593,0.245,3.86c-0.776,2.792-3.649,5.129-7.134,4.74c-1.842-0.206-3.282-1.178-4.252-2.345
		c-0.32-0.387-0.45-0.895-0.977-1.124c-0.557,0.527-0.74,1.389-1.026,2.15c-0.282,0.751-0.751,1.54-0.684,2.394
		c1.117,0.263,2.389,0.147,3.616,0.147c1.278,0,2.616-0.075,3.811,0c3.258,0.202,5.468,1.665,7.183,3.322
		c1.668,1.842,2.951,4.963,2.345,8.6c-0.12,0.718-0.48,1.37-0.391,2.101c0.796,0.156,1.606-0.07,2.59-0.146
		c0.824-0.064,2.131,0.181,2.736-0.098c0.409-0.188,0.588-0.976,0.831-1.563c1.615-3.915,3.43-8.133,4.935-11.825
		c0.234-0.615,0.796-1.156,0.733-1.906c-0.648-0.059-1.08,0.284-1.71,0.342c-2.266,0.211-4.084-0.783-5.277-1.759
		c-0.302-0.459-0.752-0.777-1.075-1.319c-0.812-1.362-0.915-3.532-0.635-5.326c-0.457,0.064-0.634,0.615-0.831,0.977
		c-0.688,1.269-0.996,2.67-1.173,4.545c-0.076,0.806-0.003,2.913-1.026,2.883c-0.659-0.019-0.681-0.876-0.733-1.759
		c-0.166-2.797-0.678-5.619-1.954-7.036c-0.049,0-0.098,0-0.147,0C33.91,12.461,33.91,12.511,33.91,12.559z M22.721,24.531
		c-1.144,0-2.399-0.199-3.42,0c-0.641,0.125-1.052,1.381-1.319,2.052c-0.584,1.464-1.075,2.794-1.662,4.104
		c-0.3,0.671-0.777,1.293-0.684,2.003c0.8-0.258,1.38-0.912,2.003-1.417c1.935-1.567,3.948-2.943,5.863-4.495
		c0.434-0.316,0.827-0.694,1.271-1.026c0.429-0.321,1.034-0.552,1.222-1.124C24.967,24.451,23.849,24.531,22.721,24.531z
		 M11.678,45.394c0.485-0.393,0.979-0.793,1.466-1.172c1.982-1.544,3.856-3.165,5.863-4.642c3.066-2.255,5.788-4.522,8.844-6.938
		c1.339-1.058,3.004-2.304,4.446-3.469c0.464-0.375,1.318-0.824,1.319-1.319c0.001-0.415-0.667-0.934-1.026-1.271
		c-0.355-0.333-0.907-0.812-1.27-1.026c-0.462-0.271-1.147-0.627-1.661-0.635c-0.51-0.008-1.707,1.157-2.199,1.564
		c-4.416,3.651-9.503,7.191-13.682,10.75c-0.319,0.715-0.705,1.515-1.026,2.296c-0.635,1.546-1.223,3.065-1.857,4.544
		c-0.327,0.763-0.746,1.52-0.782,2.345C10.773,46.323,11.202,45.78,11.678,45.394z M34.35,30.345
		c-1.116,0.673-2.154,1.681-3.274,2.541c-4.385,3.369-8.793,6.731-13.046,10.261c-1.028,0.853-2.215,1.567-3.323,2.492
		c-1.55,1.295-3.197,2.626-4.886,3.86C9.19,49.96,8.507,50.38,8.209,50.818c-0.379,0.557-0.662,1.405-0.928,2.101
		c-0.29,0.756-0.571,1.511-0.88,2.199c-0.664,1.482-1.363,2.92-1.759,4.398c0.524-0.053,0.884-0.517,1.27-0.831
		c1.236-1.003,2.496-2.014,3.713-2.98c2.587-1.826,4.862-4.12,7.476-5.912c2.629-1.803,5.017-3.927,7.525-5.864
		c1.712-2.034,3.741-4.034,6.254-5.277c0.827-0.409,1.921-0.73,2.59-1.271c0.903-0.729,1.601-2.808,1.71-4.251
		c0.08-1.05,0.04-2.378-0.538-2.834C34.539,30.33,34.422,30.302,34.35,30.345z M27.314,44.173c-2.798,3.032-4.911,7.205-4.74,12.997
		c0.156,5.277,2.611,9.421,5.619,12.216c2.935,2.726,7.171,5.156,12.9,4.837c5.199-0.29,9.218-2.595,12.118-5.717
		c2.801-3.014,5.089-7.188,4.837-12.899c-0.125-2.851-0.762-5.005-1.808-7.085c-0.974-1.938-2.245-3.79-3.762-5.179
		c-2.891-2.647-7.299-5.304-12.948-4.887C33.907,38.872,30.147,41.103,27.314,44.173z M21.548,49.011
		c-1.729,1.392-3.383,2.691-5.131,4.104c-0.569,0.461-1.373,0.9-1.71,1.417c-0.19,0.292-0.321,0.772-0.489,1.173
		c-0.169,0.407-0.339,0.834-0.488,1.222c-1.884,4.883-3.898,9.686-5.864,14.365c-0.334,0.797-0.718,1.623-0.782,2.492
		c0.535,0.327,1.368,0.195,2.296,0.195c0.739,0,1.925,0.165,2.394-0.098c0.273-0.153,0.517-0.932,0.733-1.466
		c2.784-6.903,5.618-13.649,8.307-20.424c0.32-0.806,0.642-1.602,0.977-2.345c0.068-0.152,0.394-0.601,0-0.733
		c-0.032,0-0.065,0-0.098,0C21.637,48.936,21.584,48.965,21.548,49.011z M20.278,58.832c-0.321,0.481-0.491,1.228-0.733,1.856
		c-0.735,1.908-1.482,3.814-2.199,5.57c-0.761,1.866-1.416,3.719-2.15,5.57c-0.245,0.616-0.624,1.225-0.587,1.906
		c0.5,0.391,1.43,0.244,2.248,0.244c0.875,0,1.778,0.037,2.492-0.049c0.84-1.017,1.222-2.431,1.808-3.811
		c0.267-0.629,0.542-1.283,0.831-2.003c0.239-0.598,0.764-1.497,0.733-2.101c-0.019-0.377-0.349-0.89-0.537-1.319
		c-0.199-0.453-0.478-0.876-0.635-1.271c-0.567-1.417-0.803-2.931-1.026-4.642c-0.032,0-0.065,0-0.098,0
		C20.439,58.684,20.283,58.793,20.278,58.832z M24.138,68.702c-0.462,0.58-0.754,1.665-1.075,2.492
		c-0.345,0.89-0.927,1.727-0.831,2.639c1.297,0.309,3.239,0.111,4.642,0.049c0.439-0.391,0.693-0.968,0.732-1.759
		c-1.014-1.234-2.19-2.306-3.225-3.518c-0.033,0-0.065,0-0.098,0C24.226,68.628,24.174,68.656,24.138,68.702z"/>
	<path style="fill-rule:evenodd;clip-rule:evenodd;" d="M30.832,47.251c2.281-2.158,5.004-3.958,9.137-4.153
		c3.618-0.171,6.491,1.421,8.551,3.03c2.117,1.653,3.811,4.015,4.496,6.987c1.724,7.487-2.415,12.905-7.183,15.148
		c-2.545,1.197-6.324,1.845-9.577,0.684c-2.731-0.975-5.018-2.708-6.596-4.886c-1.59-2.193-2.83-5.301-2.443-8.942
		C27.576,51.726,28.847,49.352,30.832,47.251z M35.621,46.616c-2.973,1.466-4.92,3.611-5.863,7.036
		c-0.669,2.431-0.254,4.876,0.488,6.841c1.352,3.574,4.835,6.543,9.382,6.841c3.001,0.196,5.835-1.023,7.72-2.639
		c1.842-1.58,3.304-3.726,3.713-6.694c0.562-4.074-1.109-7.259-2.98-9.186c-1.847-1.902-4.796-3.59-8.649-3.273
		C37.921,45.665,36.74,46.064,35.621,46.616z"/>
	<path style="fill-rule:evenodd;clip-rule:evenodd;" d="M40.018,50.183c3.804-0.272,6.946,3.155,6.303,7.33
		c-0.213,1.388-0.877,2.51-1.759,3.372c-0.968,0.944-2.766,1.781-4.3,1.759c-2.977-0.043-5.308-2.264-5.913-4.642
		c-0.484-1.901,0.144-3.909,0.83-4.984C36.108,51.564,37.828,50.34,40.018,50.183z"/>
</g>
<g id="Layer_1">
</g>
</svg>
