<?xml version="1.0" encoding="iso-8859-1"?>
<!-- Generator: Adobe Illustrator 19.2.0, SVG Export Plug-In . SVG Version: 6.00 Build 0)  -->
<svg version="1.1" xmlns="http://www.w3.org/2000/svg" xmlns:xlink="http://www.w3.org/1999/xlink" x="0px" y="0px"
	 viewBox="0 0 75.569 76.354" style="enable-background:new 0 0 75.569 76.354;" xml:space="preserve">
<g id="schuhhersteller">
	<path style="fill-rule:evenodd;clip-rule:evenodd;" d="M75.465,0.298c0.136,15.717,0.126,30.691,0.047,46.367
		c-0.006,0.975,0.112,1.955-0.142,2.885c-12.367,0.217-25.011-0.117-37.615-0.047c-0.079-15.588,0-30.633,0-46.602
		c0-0.51-0.009-1.043,0-1.56c0.009-0.424-0.07-0.971,0.236-1.326c10.882-0.07,22.079,0.141,33.025,0.141
		C72.511,0.155,74.013,0.063,75.465,0.298z"/>
	<path style="fill-rule:evenodd;clip-rule:evenodd;" d="M37.566,49.645c0.261,0.142,0.14,0.5,0.142,0.709
		c0.088,8.305,0.018,17.256-0.095,25.691c-3.086,0.307-6.275,0.096-9.415,0.096C18.792,76.139,9.445,76.094,0,75.952
		c0.021-0.426,0.641-0.701,0.993-0.947c7.358-5.156,14.873-10.266,22.332-15.471c0.773-0.539,1.53-1.131,2.318-1.656
		c0.797-0.531,1.518-1.146,2.318-1.656c2.349-1.492,4.669-3.285,7.05-4.873C35.902,50.755,36.654,50.083,37.566,49.645z"/>
	<path style="fill-rule:evenodd;clip-rule:evenodd;" d="M75.37,59.344c0.148,5.49,0.159,11.381,0,16.891
		c-2.634,0.174-5.473,0.109-8.28,0.096c-2.819-0.016-5.691-0.01-8.422-0.143c-0.18-4.703-0.095-9.848-0.095-14.951
		c0-0.692-0.108-1.4,0.142-2.033C64.233,59.176,70.015,59.135,75.37,59.344z"/>
</g>
<g id="Layer_1">
</g>
</svg>
