<?xml version="1.0" encoding="iso-8859-1"?>
<!-- Generator: Adobe Illustrator 19.2.0, SVG Export Plug-In . SVG Version: 6.00 Build 0)  -->
<svg version="1.1" xmlns="http://www.w3.org/2000/svg" xmlns:xlink="http://www.w3.org/1999/xlink" x="0px" y="0px"
	 viewBox="0 0 176.643 38.308" style="enable-background:new 0 0 176.643 38.308;" xml:space="preserve">
<g id="Schweppes_x5F_60s">
	<path style="fill-rule:evenodd;clip-rule:evenodd;" d="M72.039,0.173c0.168,2.061,0.23,4.717,0.047,6.817
		c-2.533,0.291-5.373,0.467-6.394,2.304c-0.849,1.526-0.13,3.909,1.128,4.56c1.464,0.918,3.574,1.189,5.312,1.834
		c0.048,2.602,0.14,5.655-0.047,8.18c-0.981,0.034-1.899-0.33-2.821-0.517c-6.275-1.276-13.053-3.262-13.164-10.718
		c-0.12-8.094,5.683-12.15,13.352-12.6C70.297-0.018,71.342-0.035,72.039,0.173z"/>
	<path style="fill-rule:evenodd;clip-rule:evenodd;" d="M104.43,13.431c-2.752,0.155-6.062,0.146-8.65,0.047
		c-0.476-1.819-1.044-3.443-2.351-4.701c-2.039-1.964-7.177-2.209-9.919-0.752c-0.601,0.318-1.302,0.838-1.598,1.504
		c-0.741,1.669,0.101,3.584,1.128,4.325c0.799,0.576,1.969,0.83,3.009,1.129c3.16,0.908,6.878,1.387,10.013,2.397
		c3.812,1.229,7.318,4.207,7.428,9.121c0.146,6.516-4.094,9.728-9.215,11.142c-2.663,0.736-6.362,0.863-9.261,0.376
		c-2.869-0.481-5.561-1.388-7.475-3.009c-0.546-0.463-1.056-1.17-1.551-1.786c-1.458-1.812-2.647-4.13-2.586-7.334
		c0.589-0.25,1.321-0.141,2.021-0.141c2.003,0,4.359-0.075,6.253,0.094c0.527,1.854,0.857,3.556,2.727,4.701
		c1.498,0.918,3.657,1.05,5.547,0.894c2.257-0.188,4.303-1.2,4.701-3.15c0.265-1.297-0.351-2.067-1.082-2.632
		c-2.431-1.293-5.397-1.732-8.227-2.305c-5.492-1.109-10.755-2.869-12.317-7.944c-0.806-2.619-0.425-5.921,0.564-8.227
		c1.875-4.373,6.604-6.867,12.505-7.146c5.227-0.246,9.707,1.063,12.881,3.102c2.425,1.558,4.157,3.793,5.03,6.958
		C104.286,11.102,104.511,12.254,104.43,13.431z"/>
	<path style="fill-rule:evenodd;clip-rule:evenodd;" d="M104.712,0.079c2.088,0.029,4.07,0.431,5.83,0.987
		c1.734,0.549,3.416,1.162,4.701,2.115c0.348,0.259,0.688,0.637,1.034,0.94c2.306,2.02,4.008,5.135,4.09,9.262
		c-0.607,0.251-1.354,0.141-2.068,0.141c-2.074,0-4.412,0.038-6.44-0.047c-0.3-0.941-0.507-1.804-0.893-2.586
		c-0.77-1.556-1.829-2.725-3.573-3.338c-0.84-0.295-1.758-0.389-2.821-0.611c-0.102-2.016-0.069-4.503,0-6.723
		C104.598,0.152,104.645,0.105,104.712,0.079z"/>
	<path style="fill-rule:evenodd;clip-rule:evenodd;" d="M55.679,0.314c0.155,2.105,0.157,4.853,0,6.957
		c-1.781,0.456-3.895,0.825-4.607,2.398c-0.612,1.352-0.086,3.216,0.752,4.043c0.98,0.885,2.641,1.088,3.902,1.692
		c0.247,2.188-0.031,4.662,0.047,6.911c0.017,0.476,0.169,0.95-0.094,1.363c-3.521-0.575-6.899-1.433-9.59-3.009
		c-2.634-1.544-4.548-4.187-4.513-8.181c0.068-7.911,5.631-11.675,13.163-12.223C54.989,0.249,55.423,0.124,55.679,0.314z"/>
	<path style="fill-rule:evenodd;clip-rule:evenodd;" d="M121.166,0.268C128.9,1.419,134.43,5.025,134.8,13.384
		c-2.708,0.159-5.808,0.177-8.603,0.094c-0.285-0.385-0.252-0.845-0.376-1.27c-0.495-1.699-1.528-3.304-2.915-4.137
		c-0.602-0.361-1.337-0.454-1.975-0.893c-0.084-1.462-0.047-3.401-0.047-5.171c0-0.52-0.092-1.468,0.141-1.645
		C121.06,0.317,121.111,0.29,121.166,0.268z"/>
	<path style="fill-rule:evenodd;clip-rule:evenodd;" d="M41.058,0.644c0.161,2.198,0.132,5.058,0.047,7.192
		c-0.828,0.654-1.836,0.947-2.304,1.881c-0.507,1.012-0.333,2.375,0.094,3.243c0.481,0.977,1.463,1.367,2.256,1.928
		c0.048,2.682,0.14,5.812-0.047,8.416c-1.528-0.106-2.861-0.642-4.137-1.129c-3.695-1.41-7.146-3.707-7.569-8.368
		c-0.31-3.418,0.819-6.639,2.351-8.65c1.875-2.463,5.09-3.795,8.65-4.513C40.536,0.615,40.816,0.532,41.058,0.644z"/>
	<path style="fill-rule:evenodd;clip-rule:evenodd;" d="M135.552,0.644c3.133,0.569,6.376,2.131,8.228,4.09
		c1.02,1.079,1.761,2.294,2.397,3.714c0.642,1.432,1.022,3.097,0.987,4.936c-2.626,0.155-5.928,0.156-8.604,0
		c-0.307-0.317-0.27-0.842-0.376-1.223c-0.499-1.787-1.623-3.075-2.821-4.184c-0.043-2.3-0.141-5.021,0.047-7.24
		C135.446,0.693,135.497,0.666,135.552,0.644z"/>
	<path style="fill-rule:evenodd;clip-rule:evenodd;" d="M28.976,22.833c-3.193-0.738-5.923-1.952-7.757-4.043
		c-0.83-0.946-1.277-2.085-1.88-3.291c-0.271,0.938-0.116,2.125-0.141,3.197c-0.013,0.542-0.047,1.099-0.047,1.646
		c0,0.531,0.102,1.113-0.141,1.551c-2.577-0.891-4.885-2.468-6.018-4.842c-0.562-1.179-1.03-2.761-0.987-4.372
		c0.093-3.52,1.598-6.918,3.573-8.65c0.493-0.433,1.076-0.781,1.646-1.128c0.548-0.334,1.106-0.805,1.787-0.847
		c0.253,1.105,0.141,2.503,0.141,3.854c0,1.36-0.094,2.73,0.141,3.855c0.558-1.014,0.778-2.192,1.316-3.197
		c1.499-2.8,4.562-4.698,7.945-5.547c0.069-0.018,0.112-0.055,0.188-0.047c0.462,0.045,0.355,1.303,0.376,1.786
		c0.096,2.174-0.091,4.199,0,6.253c-0.622,0.721-0.972,2.295-0.517,3.572c0.131,0.369,0.475,0.672,0.565,1.034
		c0.147,0.603-0.021,1.504-0.047,2.257c-0.053,1.521,0,3.075,0,4.701C29.117,21.352,29.227,22.136,28.976,22.833z"/>
	<path style="fill-rule:evenodd;clip-rule:evenodd;" d="M147.446,1.113c5.114,1.327,8.173,4.709,9.544,9.778
		c0.308-1.236,0.188-2.789,0.188-4.325c0-1.518-0.113-3.105,0.141-4.371c1.116,0.2,1.758,0.874,2.539,1.41
		c2.353,1.596,3.684,4.213,4.654,7.192c0.352-2.296,0.017-5.28,0.282-7.663c0.537-0.016,0.94,0.499,1.316,0.799
		c2.155,1.591,3.382,4.108,4.231,7.006c0.501-1.693-0.099-4.487,0.329-6.253c0.878,0.536,1.467,1.437,1.975,2.351
		c0.517,0.931,0.835,1.984,1.41,2.867c0.336-0.933-0.032-2.57,0.235-3.572c0.499,0.187,0.751,0.822,0.987,1.315
		c0.729,1.524,1.408,3.524,1.363,5.689c-0.538,0.249-1.163,0.141-1.74,0.141c-8.581-0.002-17.523,0.18-26.233-0.094
		c-0.347-0.522-0.364-1.159-0.611-1.834c-0.217-0.591-0.767-1.215-0.846-1.833c-0.082-0.637,0.035-1.338,0-2.069
		c-0.032-0.667,0.039-1.397,0.047-2.115c0.016-1.455-0.05-3.081,0.047-4.277C147.332,1.187,147.379,1.14,147.446,1.113z"/>
	<path style="fill-rule:evenodd;clip-rule:evenodd;" d="M11.534,2.9c0.337,0.401,0.188,1.078,0.188,1.645
		c0,4.747,0.108,9.854,0.047,14.903c-0.007,0.537,0.1,1.141-0.141,1.646c-2.991-1.21-4.65-3.749-5.359-7.24
		c-0.358,1.773-0.014,4.249-0.282,6.112c-1.069-0.524-1.803-1.487-2.398-2.492c-0.616-1.04-0.952-2.285-1.27-3.62
		c-0.422,1.161,0.007,3.173-0.282,4.466c-0.488-0.143-0.745-0.684-0.987-1.128c-1.571-2.88-1.261-7.322,0.141-10.249
		C1.4,6.507,1.567,5.905,2.038,5.814c0.251,1.791-0.099,4.013,0.235,5.782c0.445-2.358,1.105-4.487,2.304-6.158
		c0.366-0.512,0.737-1.184,1.41-1.363c0.275,2.248-0.103,5.148,0.235,7.334c0.336-0.89,0.489-1.783,0.753-2.633
		c0.784-2.528,2.167-4.567,4.278-5.782C11.312,2.96,11.36,2.864,11.534,2.9z"/>
	<path style="fill-rule:evenodd;clip-rule:evenodd;" d="M104.712,15.734c3.698,0.722,8.002,1.309,10.578,3.149
		c0.408,0.292,0.81,0.771,1.223,1.176c1.178,1.154,2.205,2.696,2.632,4.56c0.617,2.69,0.058,5.882-1.222,7.898
		c-2.432,3.829-7.129,5.869-13.257,5.688c-0.247-0.938-0.141-2.118-0.141-3.291c0-1.153-0.071-2.354,0.094-3.338
		c1.35-0.21,2.694-0.202,3.808-0.705c0.952-0.43,1.765-1.196,2.116-2.068c0.176-0.438,0.266-1.143,0.141-1.646
		c-0.599-2.404-3.96-2.324-6.112-3.291c-0.1-2.507-0.066-5.378,0-7.992C104.598,15.808,104.645,15.761,104.712,15.734z"/>
	<path style="fill-rule:evenodd;clip-rule:evenodd;" d="M121.166,15.969c3.348,0.593,6.48,1.351,8.838,3.056
		c2.243,1.623,3.939,4.305,3.808,8.087c-0.128,3.714-1.706,6.227-3.949,7.945c-2.242,1.718-5.296,2.738-8.838,2.914
		c-0.258-1.934-0.175-4.666-0.047-6.676c1.194-0.326,2.45-0.742,3.244-1.645c0.531-0.605,1.107-1.843,0.705-2.914
		c-0.591-1.573-2.508-1.734-3.949-2.539c-0.169-1.717-0.094-4.044-0.094-6.158c0-0.6-0.092-1.728,0.141-1.975
		C121.06,16.02,121.111,15.992,121.166,15.969z"/>
	<path style="fill-rule:evenodd;clip-rule:evenodd;" d="M143.498,33.74c-0.888,1.077-2.145,1.836-3.479,2.491
		c-1.306,0.642-2.843,1.273-4.56,1.316c-0.192-1.743-0.094-3.445-0.094-5.172c0-0.601-0.102-1.28,0.047-1.739
		c0.182-0.56,1.104-0.938,1.458-1.457c0.466-0.684,0.725-1.762,0.376-2.633c-0.355-0.887-1.069-1.114-1.833-1.739
		c-0.059-2.609-0.238-5.712,0.047-8.462c4.865,0.553,9.583,3.313,10.578,8.273C146.772,28.291,145.489,31.691,143.498,33.74z"/>
	<path style="fill-rule:evenodd;clip-rule:evenodd;" d="M147.493,16.722c2.508,0.578,5.477,2.062,6.77,3.995
		c0.784,1.174,1.6,2.923,1.833,4.702c0.252,1.92-0.157,3.983-0.799,5.594c-1.248,3.306-4.188,5.269-7.898,6.159
		c-0.248-0.619-0.141-1.329-0.141-2.021c0-1.98-0.192-4.427,0-6.395c0.052-0.533,0.257-0.992,0.235-1.504
		c-0.013-0.301-0.192-0.736-0.235-1.081c-0.168-1.375,0-2.973,0-4.701c0-0.688,0-1.501,0-2.351c0-0.729-0.069-1.912,0.094-2.304
		C147.387,16.771,147.438,16.744,147.493,16.722z"/>
	<path style="fill-rule:evenodd;clip-rule:evenodd;" d="M157.366,17.709c1.996,0.713,3.921,2.223,4.936,3.948
		c0.918,1.562,1.434,3.656,1.316,5.783c-0.186,3.351-1.743,5.859-3.855,7.475c-0.729,0.558-1.562,1.121-2.445,1.316
		c-0.244-4.241-0.141-9.12-0.141-13.728c0-0.745-0.001-1.565,0-2.351c0-0.813-0.035-1.649,0.047-2.304
		C157.251,17.782,157.298,17.735,157.366,17.709z"/>
	<path style="fill-rule:evenodd;clip-rule:evenodd;" d="M164.935,18.602c2.663,1.547,4.757,4.425,4.513,8.839
		c-0.181,3.261-1.641,5.778-3.667,7.381c-0.27,0.213-0.633,0.521-0.987,0.47c-0.167-4.385-0.094-9.718-0.094-14.62
		c0-0.704-0.069-1.657,0.094-2.023C164.799,18.611,164.949,18.507,164.935,18.602z"/>
	<path style="fill-rule:evenodd;clip-rule:evenodd;" d="M170.67,33.646c-0.242-4.258-0.12-8.75-0.094-13.257
		c0.04-0.038,0.028-0.129,0.094-0.142c0.531,0.122,1.078,1.107,1.458,1.787c0.395,0.708,0.77,1.496,0.94,2.209
		c0.671,2.815,0.043,5.857-1.035,7.757C171.652,32.673,171.265,33.389,170.67,33.646z"/>
	<path style="fill-rule:evenodd;clip-rule:evenodd;" d="M174.337,22.128c0.076-0.014,0.081,0.044,0.141,0.047
		c0.679,1.079,1.169,2.731,1.175,4.513c0.006,1.907-0.397,3.947-1.27,5.031c-0.247-0.302-0.141-0.751-0.141-1.129
		c0-2.661-0.046-5.595,0-8.321C174.26,22.207,174.326,22.195,174.337,22.128z"/>
	<path style="fill-rule:evenodd;clip-rule:evenodd;" d="M19.056,25.748c0.236,0.763,0.158,1.667,0.141,2.538
		c-0.032,1.661,0,3.409,0,5.219c0,0.851,0.107,1.738-0.141,2.491c-0.971-0.295-1.777-0.989-2.492-1.645
		c-2.061-1.892-3.648-4.675-3.62-8.556C14.815,25.669,17.219,25.596,19.056,25.748z"/>
	<path style="fill-rule:evenodd;clip-rule:evenodd;" d="M28.976,37.219c-3.671-0.956-6.442-3.139-7.945-6.394
		c-0.493-1.066-0.91-2.312-1.082-3.761c-0.048-0.41-0.19-0.992,0.141-1.364c2.311-0.045,5.879-0.14,8.227,0.048
		c0.392,0.673,0.443,1.688,0.799,2.398c0,2.236,0,4.61,0,6.911C29.117,35.789,29.228,36.572,28.976,37.219z"/>
	<path style="fill-rule:evenodd;clip-rule:evenodd;" d="M38.472,25.795c0.391,1.055,0.561,2.088,1.082,2.961
		c0.447,0.752,1.108,1.236,1.645,1.881c-0.062,2.336,0.124,4.92-0.094,7.1c-0.792,0.059-1.604-0.166-2.304-0.424
		c-2.036-0.748-3.962-1.944-5.359-3.385c-1.549-1.707-2.952-3.934-3.197-7.005c-0.031-0.391-0.174-0.856,0.094-1.223
		C32.978,25.617,35.915,25.641,38.472,25.795z"/>
	<path style="fill-rule:evenodd;clip-rule:evenodd;" d="M2.085,25.889c0.049,1.54,0.137,3.521-0.047,4.983
		c-0.552-0.497-0.769-1.378-0.987-2.21c-0.219-0.833-0.391-1.808-0.282-2.774C1.07,25.675,1.812,25.634,2.085,25.889z"/>
	<path style="fill-rule:evenodd;clip-rule:evenodd;" d="M6.034,25.842c0.099,2.358,0.124,5.081,0,7.381
		c-0.561-0.167-0.933-0.871-1.222-1.363c-0.912-1.553-1.711-3.583-1.599-6.018C3.909,25.655,5.353,25.587,6.034,25.842z"/>
	<path style="fill-rule:evenodd;clip-rule:evenodd;" d="M11.675,25.795c0.17,2.109,0.094,4.628,0.094,6.958
		c0,0.756,0.11,1.523-0.141,2.162c-0.763-0.306-1.317-1.009-1.833-1.645c-1.289-1.586-2.258-3.485-2.586-6.111
		c-0.056-0.449-0.26-1.014,0.094-1.41C8.643,25.698,10.413,25.611,11.675,25.795z"/>
	<path style="fill-rule:evenodd;clip-rule:evenodd;" d="M50.836,25.795c0.495,2.44,1.466,4.359,3.573,5.171
		c0.412,0.159,0.919,0.127,1.316,0.423c0.192,2.115,0.089,4.78,0,6.676c-1.887,0.124-3.687-0.431-5.265-1.033
		c-1.555-0.595-3.043-1.341-4.137-2.351c-2.207-2.038-3.999-4.894-3.902-8.839c1.065-0.242,2.911-0.142,4.513-0.142
		C48.328,25.701,49.7,25.626,50.836,25.795z"/>
	<path style="fill-rule:evenodd;clip-rule:evenodd;" d="M65.222,25.795c0.346,0.833,0.466,1.632,0.799,2.351
		c0.995,2.145,2.861,3.278,5.97,3.385c0.239,1.922,0.12,4.616,0.047,6.629c-4.513,0.281-8.072-1.205-10.766-3.056
		c-1.858-1.549-3.386-3.586-4.09-6.394c-0.221-0.882-0.53-1.931-0.235-2.962C59.583,25.7,62.666,25.608,65.222,25.795z"/>
</g>
<g id="Layer_1">
</g>
</svg>
