<?xml version="1.0" encoding="iso-8859-1"?>
<!-- Generator: Adobe Illustrator 19.2.0, SVG Export Plug-In . SVG Version: 6.00 Build 0)  -->
<svg version="1.1" xmlns="http://www.w3.org/2000/svg" xmlns:xlink="http://www.w3.org/1999/xlink" x="0px" y="0px"
	 viewBox="0 0 78.874 79.344" style="enable-background:new 0 0 78.874 79.344;" xml:space="preserve">
<g id="schweizer_x5F_europahilfe">
	<path style="fill-rule:evenodd;clip-rule:evenodd;" d="M33.461,33.653c-4.721,0.098-10.242,0.111-15.084-0.049
		c-0.247-0.651-0.193-1.61-0.193-2.522s-0.101-1.889,0.146-2.57c0.653-0.232,1.455-0.097,2.23-0.097c0.78-0.001,1.57,0,2.377,0
		c1.614-0.001,3.301,0.114,4.656-0.146c0.312-1.412,0.193-2.954,0.194-4.56c0-2.943-0.001-6.003,0-9.167
		c0-1.719,0.137-3.425-0.243-4.753c-0.188-0.656-0.654-1.227-0.873-1.892c-1.365-1.826-4.513-2.629-6.936-1.358
		c-0.479,0.251-1.07,0.824-1.455,1.262c-0.394,0.448-0.823,1.304-1.261,1.454c-0.594,0.205-2.054,0.001-2.862,0
		c-0.991,0-2.027,0.111-2.812-0.145c0.032-1.375,0.668-2.539,1.261-3.54c1.261-2.128,2.9-3.5,5.189-4.607
		c1.876-0.908,5.008-1.291,7.421-0.631c2.129,0.583,4.238,2.051,5.482,3.443c1.131,1.268,2.093,2.824,2.618,4.656
		c0.29,1.009,0.284,2.088,0.34,3.299c0.109,2.344-0.13,4.877-0.048,7.469c0.111,3.53-0.001,7.253,0,10.961
		C33.607,31.344,33.783,32.566,33.461,33.653z"/>
	<path style="fill-rule:evenodd;clip-rule:evenodd;" d="M67.51,26.62c-1.41,0.238-3.699,0.113-5.286,0
		c-0.226-0.666-0.172-1.433-0.194-2.183c-0.068-2.263-0.046-4.591,0-6.935c0.029-1.492,0.008-2.948,0.048-4.414
		c0.044-1.558-0.126-2.994-0.727-4.025c-0.831-1.427-2.324-2.764-4.413-2.959c-3.2-0.299-4.382,1.761-5.918,3.25
		c-0.913,0-1.942,0-2.909,0c-0.967,0-1.956,0.114-2.717-0.145c-0.11-0.812,0.27-1.577,0.582-2.231
		c1.721-3.592,4.761-6.193,9.361-6.741c3.185-0.38,5.543,0.793,7.421,1.988c2.118,1.35,3.676,3.288,4.51,5.966
		c0.676,2.165,0.437,4.97,0.437,7.857c0.001,2.693-0.118,5.393,0,8.003C67.743,24.906,67.788,25.815,67.51,26.62z"/>
	<path style="fill-rule:evenodd;clip-rule:evenodd;" d="M26.332,11.391c0.365,1.325,0.205,3.729,0.097,5.238
		c-1.27,0.338-2.731,0.193-4.22,0.193c-1.399,0.001-2.872-0.117-4.316-0.048c-2.969,0.142-6.089-0.311-8.343,0.533
		c-2.779,1.041-4.377,4.798-2.716,7.906c0.606,1.133,1.63,1.711,2.474,2.667c-0.008,1.824,0.304,4.03-0.097,5.529
		c-2.176,0.057-3.417-1.238-4.754-2.183c-2.017-1.479-3.412-3.746-4.025-6.499C-0.4,20.992,1.09,17.105,2.953,14.98
		c1.596-1.818,4.288-3.521,7.373-3.734c2.66-0.184,5.351,0.015,8.003,0C20.945,11.231,23.625,11.274,26.332,11.391z"/>
	<path style="fill-rule:evenodd;clip-rule:evenodd;" d="M60.234,11.487c0.246,0.693,0.146,1.68,0.146,2.619
		c0,0.928,0.102,1.891-0.146,2.57c-7.169,0.321-14.83-0.088-22.165,0.049c-0.966,0.018-1.95,0.088-2.862-0.097
		c-0.254-0.686-0.145-1.64-0.145-2.571c0-0.898-0.074-1.849,0.097-2.57c0.893-0.264,2.407-0.185,3.687-0.145
		c2.95,0.093,6.088,0,9.166,0c3.126,0,6.183,0,9.312,0C58.298,11.342,59.31,11.232,60.234,11.487z"/>
	<path style="fill-rule:evenodd;clip-rule:evenodd;" d="M45.199,33.605c-0.262-1.164-0.145-2.444-0.145-3.734
		c-0.001-2.539,0-5.172,0-7.761c0-1.289-0.118-2.573,0.145-3.734c0.787-0.209,1.872-0.146,2.958-0.146
		c1.062,0,2.164-0.074,3.008,0.146c0.212,2.282,0.098,4.886,0.146,7.275c0.016,0.816-0.205,1.632,0.145,2.328
		c0.64,0.253,1.392,0.146,2.135,0.146c3.656,0.001,7.597,0.135,11.252,0c1.551-0.058,2.994,0.119,4.172-0.243
		c1.5-0.461,2.854-1.678,3.443-2.861c0.543-1.092,0.649-2.971,0.146-4.365c-0.221-0.611-0.609-0.994-0.922-1.601
		c-0.606-0.721-1.558-1.094-2.183-1.795c0-0.806,0-1.799,0-2.91c0-0.792-0.134-2.369,0.194-2.716
		c0.614-0.189,1.875,0.307,2.425,0.534c1.375,0.567,2.486,1.379,3.492,2.474c0.952,1.035,1.921,2.165,2.426,3.491
		c0.639,1.683,0.905,3.608,0.824,5.481c-0.084,1.929-0.704,3.487-1.553,4.802c-0.819,1.27-1.797,2.408-3.055,3.298
		c-1.236,0.874-2.54,1.699-4.414,1.941c-2.002,0.257-4.035,0.019-6.111,0.097c-4.066,0.152-8.191,0-12.416,0
		C49.266,33.75,47.209,33.784,45.199,33.605z"/>
	<path style="fill-rule:evenodd;clip-rule:evenodd;" d="M16.631,18.714c0.255,1.006,0.146,2.061,0.146,3.105
		c0,3.219-0.048,6.365-0.048,9.458c0,3.085,0.048,6.144,0.048,9.409c0,1.015,0.113,2.066-0.146,3.056
		c-0.725,0.188-1.695,0.121-2.618,0.097c-0.931-0.023-1.902,0.214-2.668-0.097c-0.263-0.991-0.146-2.062-0.146-3.104
		c0-6.887,0-14.046,0-20.661c0-0.448-0.139-1.023,0.242-1.358C13.069,18.561,15.146,18.468,16.631,18.714z"/>
	<path style="fill-rule:evenodd;clip-rule:evenodd;" d="M67.606,35.787c0.12,6.993,0.096,14.624,0.097,22.068
		c0.001,0.91,0.115,1.868-0.145,2.765c-0.687,0.255-1.68,0.146-2.619,0.146c-0.927,0-1.895,0.103-2.571-0.146
		c-0.225-7.815-0.098-15.053-0.097-23.038c0-0.629-0.147-1.355,0.193-1.94C64.039,35.64,66.268,35.394,67.606,35.787z"/>
	<path style="fill-rule:evenodd;clip-rule:evenodd;" d="M33.655,45.875c0.287,1.184,0.115,2.49,0.146,3.783
		c0.059,2.444,0,4.996,0,7.663c0,1.251,0.125,2.524-0.146,3.687c-1.801,0.194-4.151,0.115-5.917-0.048
		c-0.258-1.418-0.146-3.13-0.146-4.802c0-1.655,0.115-3.354-0.145-4.754c-1.275-0.261-2.706-0.145-4.171-0.145
		c-1.381,0.001-2.825,0-4.269,0c-2.87,0.001-5.972-0.342-8.391,0.049c-1.717,0.277-3.325,1.501-4.074,2.861
		c-1.073,1.949-0.57,4.833,0.873,6.354c0.574,0.604,1.365,0.866,1.94,1.552c-0.051,1.726,0.266,4.002-0.146,5.578
		c-0.793,0.146-1.566-0.195-2.184-0.438c-3.371-1.318-5.7-3.96-6.596-7.566c-0.531-2.138-0.618-4.205,0-6.208
		c0.865-2.807,2.634-4.92,5.044-6.354c1.292-0.768,2.683-1.339,4.656-1.455c0.951-0.056,1.96,0.049,2.959,0.049
		c5.734-0.001,12.014,0.048,17.703,0.048C31.744,45.73,32.736,45.615,33.655,45.875z"/>
	<path style="fill-rule:evenodd;clip-rule:evenodd;" d="M60.671,45.875c0.244,0.665,0.146,1.612,0.146,2.522
		c0,0.895,0.103,1.825-0.146,2.474c-0.703,0.31-1.525,0.097-2.328,0.097c-2.395,0-4.961-0.008-7.081,0.145
		c-0.253,0.721-0.146,1.547-0.146,2.328c0,4.05,0,8.005,0,12.126c0,2.5,0.082,4.297,1.115,5.723c1.436,1.981,5.127,2.851,7.47,1.213
		c0.366-0.256,0.883-0.765,1.212-1.164c0.308-0.372,0.589-1.094,1.067-1.261c0.725-0.254,1.948-0.036,2.813-0.049
		c0.987-0.015,1.954-0.038,2.716,0.194c0.132,0.709-0.196,1.309-0.388,1.843c-1.204,3.361-3.576,5.496-6.937,6.741
		c-0.038,0.015-0.051,0.035-0.097,0.049c-5.142,1.501-9.653-0.695-12.077-3.443c-1.196-1.356-2.363-3.248-2.667-5.529
		c-0.328-2.459-0.098-5.218-0.098-8.1c0.001-4.696,0-9.601,0-14.356c0-0.557-0.178-1.297,0.34-1.698
		c3.493-0.132,7.893,0.017,11.543-0.048C58.354,45.659,59.589,45.63,60.671,45.875z"/>
	<path style="fill-rule:evenodd;clip-rule:evenodd;" d="M52.62,67.896c-0.174-0.748-0.098-1.741-0.098-2.668
		c0-0.95-0.104-1.909,0.146-2.619c2.253-0.243,5.292-0.097,8.343-0.097c3.909,0,7.445,0.325,9.603-1.213
		c1.293-0.922,2.382-2.632,2.135-5.044c-0.093-0.905-0.477-1.58-0.824-2.328c-0.567-1.002-1.605-1.531-2.377-2.328
		c-0.085-0.697-0.049-1.66-0.049-2.959c0-0.978-0.254-2.632,0.485-2.716c0.255-0.028,0.753,0.161,1.019,0.243
		c2.015,0.62,3.82,2.145,5.044,3.54c1.437,1.638,2.499,3.846,2.619,6.693c0.156,3.703-1.394,6.786-3.396,8.633
		c-1.132,1.045-2.514,1.91-4.025,2.474c-1.599,0.597-3.648,0.583-5.917,0.583c-3.083-0.001-6.326-0.05-9.604-0.049
		C54.697,68.041,53.626,68.159,52.62,67.896z"/>
	<path style="fill-rule:evenodd;clip-rule:evenodd;" d="M16.825,52.812c0.259,1.14,0.146,2.424,0.146,3.734c0,1.207,0,2.485,0,3.734
		c0,2.654-0.162,5.333,0,7.566c0.146,2.01,1.303,3.697,2.716,4.56c1.387,0.845,3.471,1.043,5.142,0.34
		c1.386-0.584,2.025-1.854,3.056-2.765c0.896-0.054,1.932-0.096,2.91-0.049c0.955,0.045,1.937-0.041,2.716,0.193
		c-0.065,1.571-0.69,2.655-1.455,3.783c-2.142,3.16-6.014,6.009-11.446,5.045c-2.589-0.46-4.719-1.747-6.353-3.396
		c-1.532-1.544-2.85-3.815-3.056-6.645c-0.183-2.506,0-5.346,0-8.1c0-2.027,0-3.972,0-6.16c0-0.581-0.109-1.744,0.193-1.892
		c0.036-0.046,0.089-0.073,0.146-0.097C13.206,52.757,15.325,52.481,16.825,52.812z"/>
	<path style="fill-rule:evenodd;clip-rule:evenodd;" d="M43.695,62.705c0.25,0.691,0.146,1.679,0.146,2.619
		c0,0.929,0.103,1.892-0.146,2.571c-2.007,0.186-4.096,0.182-6.16,0.146c-5.053-0.09-10.391-0.05-15.763-0.049
		c-1.013,0-2.081,0.147-3.007-0.194c-0.17-0.64-0.098-1.562-0.098-2.618c0-0.794-0.121-2.206,0.194-2.522
		c0.035-0.046,0.089-0.073,0.146-0.098C27.18,62.596,35.552,62.516,43.695,62.705z"/>
</g>
<g id="Layer_1">
</g>
</svg>
