<?xml version="1.0" encoding="iso-8859-1"?>
<!-- Generator: Adobe Illustrator 19.2.0, SVG Export Plug-In . SVG Version: 6.00 Build 0)  -->
<svg version="1.1" xmlns="http://www.w3.org/2000/svg" xmlns:xlink="http://www.w3.org/1999/xlink" x="0px" y="0px"
	 viewBox="0 0 73.303 72.201" style="enable-background:new 0 0 73.303 72.201;" xml:space="preserve">
<g id="schweizer_x5F_reederei">
	<path style="fill-rule:evenodd;clip-rule:evenodd;" d="M66.788,0.169c0.66,1.13,1.2,2.33,1.746,3.54
		c1.37,3.036,2.646,6.107,4.025,9.216c0.271,0.606,0.494,1.271,0.583,1.94c-0.412,0.371-1.064,0.242-1.602,0.242
		c-4.098,0-8.798-0.052-12.707,0.048c-0.244,0.921-0.146,1.992-0.146,3.056c0.001,3.173,0.011,6.332,0.049,9.507
		c1.061,0.75,2.321,1.259,3.54,1.794c2.433,1.069,4.92,2.19,7.421,3.25c1.218,0.517,2.437,1.061,3.492,1.795
		c0.136,10.367,0.164,21.073,0,31.574c-1.05,0.755-2.332,1.191-3.541,1.698c-2.409,1.01-4.833,2.031-7.372,3.007
		c-1.227,0.471-2.397,1.221-3.734,1.358c-0.264-4.519,0.057-9.749-0.193-14.018c-0.979-0.263-2.123-0.146-3.25-0.146
		c-2.268,0.001-4.083-0.048-6.548-0.048c-0.871,0-2.599-0.212-3.25,0.097c-0.378,0.18-0.729,1.074-0.97,1.649
		c-1.298,3.097-2.539,6.034-3.929,9.021c-0.55,1.184-0.897,2.456-1.697,3.444c-10.609,0.003-21.703,0.046-32.303-0.146
		c-0.408-0.494-0.659-1.122-0.921-1.698c-0.273-0.6-0.472-1.235-0.729-1.843c-0.994-2.357-2.157-4.685-3.249-7.081
		c-0.267-0.586-0.497-1.193-0.776-1.795c-0.269-0.577-0.752-1.147-0.728-1.843c0.979-0.394,2.231-0.155,3.444-0.146
		c3.425,0.026,7.409,0.094,10.815-0.146c0.262-0.927,0.146-1.976,0.146-3.007c0-3.062,0.04-6.394-0.049-9.41
		c-0.927-0.91-2.298-1.184-3.492-1.697c-2.389-1.029-4.841-2.113-7.274-3.104c-1.215-0.495-2.431-0.986-3.444-1.747
		c-0.185-10.391-0.051-21.292-0.048-31.72c1.055-0.808,2.368-1.19,3.589-1.746C6.716,3.689,9.859,2.423,13,1.042
		c0.597-0.263,1.184-0.75,1.892-0.631c0.392,0.387,0.242,1.066,0.242,1.601c0.001,4.129-0.028,8.518,0.097,12.465
		c0.947,0.259,1.998,0.146,3.057,0.146c3.018,0,6.397,0.14,9.457,0c0.479-0.415,0.742-1.077,1.019-1.697
		c0.837-1.873,1.61-3.579,2.522-5.578c0.553-1.213,1.184-2.243,1.648-3.734c0.212-0.678,0.453-1.23,0.776-1.941
		c0.311-0.682,0.539-1.562,1.262-1.648c0.604-0.073,1.325,0.048,1.988,0.048c1.968,0.001,4.141,0.021,6.111,0
		C50.876-0.009,58.585,0.061,66.788,0.169z M30.218,14.331c-0.326,0.496-0.194,1.15-0.194,1.746c0.001,3.267,0,6.597,0,9.798
		c0.001,1.303,0.117,2.606-0.145,3.783c-3.592,0.064-7.705,0.138-11.398,0c-1.269-0.048-2.571-0.08-3.734,0.146
		c-0.215,1.028-0.085,2.132-0.098,3.249c-0.012,1.053-0.006,2.146,0,3.201c0.013,2.225-0.15,4.494,0.098,6.597
		c4.076,0.229,9.011,0.146,13.386,0.146c0.599,0,1.279-0.121,1.795,0.193c0.177,2.372,0.097,4.987,0.097,7.566
		c0.001,2.6-0.101,5.19,0.146,7.47c1.948,0.233,4.193,0.194,6.402,0.194c1.091,0,2.212,0,3.298,0c1.109,0,2.215,0.114,3.201-0.146
		c0.176-3.601,0.097-7.685,0.097-11.399c0-1.276-0.117-2.567,0.146-3.734c3.6-0.177,7.821-0.097,11.543-0.097
		c1.261-0.001,2.481,0.143,3.59-0.098c0.177-3.098,0.097-6.683,0.097-9.894c0-1.099,0.115-2.212-0.145-3.201
		c-3.67-0.125-7.792-0.146-11.495-0.146c-1.26,0.001-2.532,0.205-3.686-0.097c-0.089-3.702-0.049-7.8-0.049-11.544
		c0-1.242,0.09-2.503-0.145-3.637C38.906,14.249,34.226,14.323,30.218,14.331z"/>
</g>
<g id="Layer_1">
</g>
</svg>
