<?xml version="1.0" encoding="iso-8859-1"?>
<!-- Generator: Adobe Illustrator 19.2.0, SVG Export Plug-In . SVG Version: 6.00 Build 0)  -->
<svg version="1.1" xmlns="http://www.w3.org/2000/svg" xmlns:xlink="http://www.w3.org/1999/xlink" x="0px" y="0px"
	 viewBox="0 0 80.893 81.122" style="enable-background:new 0 0 80.893 81.122;" xml:space="preserve">
<g id="Schwann-Druck">
	<path style="fill-rule:evenodd;clip-rule:evenodd;" d="M40.378,0.025c3.017-0.144,6.421,0.356,9.203,0.974
		c2.827,0.628,5.382,1.478,7.597,2.532c4.666,2.221,8.692,4.876,12.028,8.23c1.659,1.668,3.128,3.652,4.528,5.6
		c1.383,1.923,2.577,4.135,3.652,6.477c2.133,4.644,3.506,10.225,3.506,16.752c0,9.751-3.258,17.126-7.353,23.033
		c-0.686,0.991-1.409,1.956-2.191,2.873c-0.788,0.922-1.517,1.905-2.338,2.727c-1.656,1.658-3.443,3.329-5.454,4.675
		c-0.995,0.666-2.127,1.232-3.213,1.851c-5.354,3.046-11.751,5.073-19.966,5.357c-6.366,0.219-12.026-1.619-16.557-3.652
		c-4.718-2.118-8.617-4.917-11.979-8.278c-3.38-3.379-6.102-7.276-8.278-11.979c-1.531-3.309-2.855-7.392-3.263-11.93
		c-0.139-1.547-0.347-3.124-0.292-4.675c0.056-1.592,0.115-3.114,0.243-4.627c0.373-4.419,1.71-8.542,3.263-11.931
		c2.147-4.684,4.788-8.577,8.181-12.077c1.621-1.671,3.552-3.169,5.552-4.577c1.975-1.39,4.169-2.671,6.428-3.701
		c4.574-2.085,10.117-3.654,16.606-3.652C40.313,0.025,40.346,0.027,40.378,0.025z M17.004,66.642
		c2.561,2.421,5.748,4.385,9.057,5.941c1.259,0.592,2.599,1.026,3.993,1.51c2.638,0.914,6.008,1.602,9.253,1.558
		c3.506-0.047,6.882-0.332,9.885-1.071c2.823-0.695,5.427-1.821,7.841-3.068c5.993-3.096,10.573-7.754,13.829-13.538
		c1.369-2.432,2.439-4.882,3.263-7.694c1.231-4.201,1.728-9.688,1.023-14.707c-0.441-3.144-1.243-5.938-2.288-8.619
		c-0.739-1.895-1.831-3.729-2.728-5.454c-0.315-0.606-0.729-1.121-1.12-1.655c-3.006-4.116-6.893-7.887-11.638-10.226
		c-4.828-2.379-10.334-4.583-17.677-4.236c-4.72,0.223-7.937,1.111-11.103,2.873c-2.813,1.565-5.249,4.05-6.039,7.743
		c-1.183,5.533,1.979,9.138,4.383,11.785c0.89,0.979,1.796,1.979,2.727,2.824c3.862,3.509,7.511,7.325,8.522,13.586
		c1.179,7.308-1.877,12.881-5.308,16.313c-0.892,0.891-1.982,1.636-3.068,2.435c-1.061,0.779-2.411,1.391-3.701,1.85
		c-2.003,0.714-4.487,1.282-7.109,1.071c-0.864-0.069-1.738-0.287-2.435-0.049C16.426,66.176,16.803,66.452,17.004,66.642z
		 M16.127,14.975c-1.44,1.337-2.796,2.879-3.896,4.383C7.69,25.565,4.132,34.06,5.463,45.02c0.772,6.364,3.186,11.684,7.938,14.073
		c2.482,1.248,6.041,1.965,9.154,1.266c3.965-0.891,6.904-3.045,8.668-6.087c0.446-0.771,0.919-1.672,1.218-2.532
		c1.323-3.817,0.705-8.629-1.022-11.444c-1.766-2.875-4.445-5.044-6.672-7.158c-1.196-1.136-2.317-2.29-3.359-3.555
		c-2.629-3.192-5.011-8.843-3.604-14.657c0.092-0.377,0.48-0.929,0.049-1.315c-0.032,0-0.064,0-0.097,0
		C17.133,13.947,16.652,14.487,16.127,14.975z"/>
</g>
<g id="Layer_1">
</g>
</svg>
