<?xml version="1.0" encoding="iso-8859-1"?>
<!-- Generator: Adobe Illustrator 19.2.0, SVG Export Plug-In . SVG Version: 6.00 Build 0)  -->
<svg version="1.1" xmlns="http://www.w3.org/2000/svg" xmlns:xlink="http://www.w3.org/1999/xlink" x="0px" y="0px"
	 viewBox="0 0 65.287 66.066" style="enable-background:new 0 0 65.287 66.066;" xml:space="preserve">
<g id="Schwind_x5F_Radiohandel">
	<path style="fill-rule:evenodd;clip-rule:evenodd;" d="M11.035,59.037c0.809,0.395,1.745,0.335,2.501,0.245
		c2.562-0.306,4.551-1.019,6.033-2.501c1.904-1.905,2.74-4.945,2.894-8.437c0.31-7.054-0.008-15.097,0.098-22.218
		c0.039-2.561,0.495-5.445,1.129-7.65c0.212-0.739,0.451-1.547,0.735-2.158c0.665-1.433,1.835-2.561,2.893-3.727
		c3.062-3.371,7.589-5.938,12.752-7.014c3.684-0.768,7.989-0.862,12.017-0.294c4.485,0.633,8.605,2.8,10.937,5.688
		c1.09,1.352,1.884,2.68,2.158,4.954c0.134,1.108,0.163,2.25-0.049,3.237c-0.17,0.787-0.548,1.46-0.638,2.157
		c-1.515,2.642-4.35,4.925-8.828,4.611c-1.796-0.126-3.682-0.96-4.954-1.766c-1.086-0.688-1.962-1.335-2.746-2.306
		c-0.207-0.257-0.45-0.731-0.883-0.686c-0.229,0.564-0.086,1.218-0.099,1.814c-0.089,4.2,0.05,8.921,0.049,13.39
		c0,5.236-0.069,10.545,0.05,15.449c0.476-0.033,0.642-0.693,0.932-1.079c0.879-1.166,1.947-2.231,3.237-3.09
		c1.697-1.129,3.666-1.917,5.542-2.845c1.946-0.962,3.353-2.295,4.267-4.169c0.914-1.873,0.946-4.421,1.079-7.209
		c0.495-0.277,1.549-0.317,2.06-0.05c0.345,1.813,0.107,3.75,0.196,5.641c0.092,1.93,0.152,3.895,0,5.689
		c-0.173,2.05-0.125,3.768-0.539,5.395c-0.366,1.438-0.984,2.894-1.766,4.12c-1.538,2.415-4.16,3.814-6.72,5.101
		c-1.192,0.6-2.663,1.186-4.07,1.814c-1.627,0.729-3.418,1.373-4.12,2.895c-0.247,0.534-0.312,1.308-0.589,1.863
		c-0.453,0.174-1.373,0.276-1.667-0.049c-0.385-0.427-0.147-3.622-0.147-4.414c0.001-13.107,0.199-26.962,0.196-40.267
		c0-3.012-0.176-5.989,0.54-8.289c0.743-2.39,2.233-3.84,4.414-4.708c2.212-0.881,5.21-0.849,7.749-0.049
		c-0.613-0.501-1.654-0.877-2.6-1.079c-5.219-1.118-9.264,1.221-10.986,4.512c-2.024,3.867-1.569,10.411-1.569,16.186
		c0,2.991,0,5.956,0,8.877c0,3.212-0.014,5.964-0.49,8.437c-0.469,2.431-1.286,4.56-2.502,6.375
		c-2.33,3.482-5.626,6.109-9.956,7.848c-4.164,1.671-10.168,2.694-15.302,1.717c-5.268-1.004-8.987-2.71-11.918-5.886
		C0.874,53.509,0,51.303,0,48.541c-0.001-2.831,0.896-4.668,2.697-6.18c1.618-1.357,4.099-2.204,6.965-1.863
		c2.567,0.305,4.494,1.217,6.032,2.845c0.897,0.624,1.351,1.69,2.207,2.354c0.42-0.51,0.169-1.225,0.196-1.814
		c0.094-1.965,0.052-3.976,0.05-5.935c-0.009-6.475-0.001-13.43,0-20.158c0-1.326,0.116-2.684-0.147-3.972
		c-0.396,0.179-0.422,0.655-0.589,0.981c-1.042,2.036-2.674,3.645-4.61,4.807c-1.629,0.976-3.547,1.54-5.297,2.55
		c-2.547,1.472-4.324,3.455-4.562,7.21c-0.077,1.236,0.112,2.542-0.245,3.679c-0.477,0.221-1.683,0.233-2.157,0
		c-0.225-0.87-0.125-1.736-0.147-2.6c-0.024-0.946,0.003-1.934,0.049-2.893c0.091-1.92,0.062-3.806,0.196-5.641
		c0.153-2.102-0.019-3.891,0.294-5.542c0.881-4.654,4.445-7.725,8.142-9.417c1.29-0.591,2.624-1.232,3.924-1.912
		c1.7-0.89,3.821-1.634,4.708-3.286c0.232-0.43,0.289-1.583,0.883-1.717c0.506-0.113,1.335,0.077,1.472,0.196
		c0.503,0.438,0.245,3.093,0.245,4.022c0,1.428,0.021,2.861,0,4.169c-0.046,3.017,0.001,5.738,0,8.534
		c0,2.912-0.035,5.695,0.049,8.387c0.088,2.801-0.127,5.526,0,8.436c0.121,2.766,0,5.684,0,8.534c0,2.962,0.016,5.858-0.195,8.436
		C19.711,56.204,16.479,58.792,11.035,59.037z"/>
</g>
<g id="Layer_1">
</g>
</svg>
