<?xml version="1.0" encoding="iso-8859-1"?>
<!-- Generator: Adobe Illustrator 19.2.0, SVG Export Plug-In . SVG Version: 6.00 Build 0)  -->
<svg version="1.1" xmlns="http://www.w3.org/2000/svg" xmlns:xlink="http://www.w3.org/1999/xlink" x="0px" y="0px"
	 viewBox="0 0 99.377 190.307" style="enable-background:new 0 0 99.377 190.307;" xml:space="preserve">
<g id="Scoricentres">
	<path style="fill-rule:evenodd;clip-rule:evenodd;" d="M51.853,0.012c0.51-0.145,1.889,1.082,2.59,1.625
		c2.357,1.824,4.508,3.899,6.551,5.941c2.844,2.843,5.674,5.521,8.226,8.48c5.203,6.031,9.541,12.733,13.659,19.753
		c2.051,3.496,3.967,7.154,5.789,10.917c1.823,3.765,3.396,7.773,4.773,11.933c1.383,4.178,2.786,8.409,3.757,12.949
		c0.983,4.596,1.723,9.437,2.031,14.675c0.318,5.397,0.092,10.712-0.406,15.792c-0.988,10.102-3.096,19.276-5.737,27.675
		c-1.33,4.228-2.974,8.191-4.621,12.086c-1.681,3.975-3.376,7.762-5.484,11.222c-6.294,10.326-13.717,19.727-21.581,28.538
		c-2.307,2.681-4.823,5.522-7.77,7.82c-0.476,0.371-0.992,1.023-1.574,0.863c-6.2-3.605-11.59-8.312-16.808-13.101
		c-5.143-4.721-9.806-10.19-13.761-16.097c-2-2.985-3.963-5.998-5.687-9.242c-1.712-3.217-3.424-6.491-5.027-9.902
		c-3.212-6.83-5.854-14.165-7.82-22.039c-0.504-2.015-0.84-4.117-1.219-6.296c-1.811-10.422-2.322-23.272-0.965-34.733
		c0.535-4.514,1.148-8.92,2.133-12.796c2.029-7.988,4.523-15.33,7.871-21.987c3.349-6.661,6.931-12.915,11.476-18.382
		c1.922-2.677,3.94-5.232,6.194-7.617c2.229-2.358,4.683-4.478,7.16-6.601c2.442-2.095,5.104-4.121,7.769-6.043
		C46.102,3.477,48.877,1.582,51.853,0.012z M50.838,7.273c-0.088-0.013-0.178,0.049-0.203,0.102
		c-2.935,3.632-5.261,8.1-6.957,13.152c-0.83,2.475-1.42,5.233-1.93,8.125c-0.519,2.948-0.822,6.063-0.711,9.292
		c0.228,6.558,1.824,11.527,4.773,15.336c2.949,3.807,6.37,6.973,10.055,10.105c9.054,7.73,19.319,14.304,26.558,23.765
		c1.464,1.913,2.683,4.005,3.91,6.195c1.78,3.175,3.449,6.82,4.316,10.765c0.304,1.38,0.395,2.819,0.812,4.266
		c0.464-0.39,0.469-1.077,0.559-1.625c1.116-6.821,1.149-15.325,0.304-22.444c-0.319-2.697-0.672-5.273-1.116-7.668
		c-1.368-7.36-3.156-14.422-5.586-20.667c-0.841-2.161-1.575-4.312-2.488-6.297c-7.382-16.04-17.337-29.57-29.706-40.42
		C52.626,8.908,51.728,7.4,50.838,7.273z M35.198,19.867c-5.827,6.652-11.099,13.134-15.589,20.972
		c-1.806,3.15-3.648,6.396-4.824,9.851c-1.231,3.613-2.359,7.392-3.047,11.578c-0.713,4.341-0.753,8.978-0.254,13.558
		c0.948,8.708,3.976,15.487,8.836,20.464c6.327,7.01,15.012,11.923,22.646,17.57c0.704,0.52,1.324,1.122,2.031,1.625
		c2.868,2.041,5.65,4.167,8.328,6.347c7.931,6.458,15.361,14.133,16.352,27.522c0.347,4.692-0.312,9.129-1.219,13.253
		c0.459,0.021,0.633-0.483,0.863-0.762c1.846-2.225,3.615-4.526,5.027-7.109c3.252-5.954,6.898-11.761,9.343-18.484
		c0.62-1.703,1.276-3.503,1.523-5.434c0.121-0.948,0.382-1.923,0.559-2.894c0.183-1.003,0.312-2.004,0.457-3.047
		c1.226-8.825-0.419-17.524-3.199-23.815c-2.842-6.43-6.897-11.772-11.476-16.351c-2.322-2.323-4.724-4.483-7.363-6.551
		c-2.578-2.019-5.211-4.035-7.871-6.043c-5.331-4.024-10.527-8.076-14.523-13.304c-4.057-5.31-7.463-11.196-7.769-20.058
		c-0.286-8.281,2.145-14.186,4.366-19.956c0.316-0.819,0.822-1.641,0.812-2.59c-0.033,0-0.066,0-0.101,0
		C37.785,17.068,36.369,18.529,35.198,19.867z M7.015,86.235c-0.764,10.236,0.373,19.74,2.133,28.284
		c1.753,8.512,4.516,16.357,7.617,23.409c6.305,14.336,14.866,26.667,25.693,36.409c2.617,2.503,5.449,4.888,8.582,6.957
		c0.383,0.253,1.039,0.836,1.422,0.812c0.564-0.034,1.39-1.359,1.828-1.93c3.934-5.12,6.572-11.194,7.973-18.636
		c0.846-4.497,0.863-9.578-0.102-13.761c-0.968-4.192-2.062-8.353-4.113-11.121c-3.295-5.051-8.176-8.717-12.848-12.492
		c-1.166-0.942-2.258-1.94-3.453-2.843c-4.816-3.642-10.006-6.941-14.929-10.41c-4.94-3.481-9.893-7.208-13.405-11.984
		c-2.693-3.662-4.857-7.869-6.246-12.796c-0.012-0.04-0.043-0.059-0.102-0.051C7.063,86.148,7.001,86.153,7.015,86.235z"/>
</g>
<g id="Layer_1">
</g>
</svg>
