<?xml version="1.0" encoding="iso-8859-1"?>
<!-- Generator: Adobe Illustrator 19.2.0, SVG Export Plug-In . SVG Version: 6.00 Build 0)  -->
<svg version="1.1" xmlns="http://www.w3.org/2000/svg" xmlns:xlink="http://www.w3.org/1999/xlink" x="0px" y="0px"
	 viewBox="0 0 82.204 51.615" style="enable-background:new 0 0 82.204 51.615;" xml:space="preserve">
<g id="Secura">
	<path style="fill-rule:evenodd;clip-rule:evenodd;" d="M59.337,0.199c0.187,1.233,0.104,2.687,0.104,4.137
		c-0.001,1.4,0.121,2.876-0.155,4.033C47.863,8.552,35.46,8.474,24.485,8.473c-2.261,0-4.046,0.506-5.636,1.448
		c-2.812,1.666-5.098,4.686-5.016,9.101c0.081,4.342,2.484,7.227,5.378,8.79c1.646,0.891,3.445,1.293,5.791,1.293
		c9.585,0,20.254,0.053,30.974,0.052c1.136,0,2.285-0.125,3.361,0.155c0.086,2.654,0.086,5.67,0,8.325
		c-1.131,0.278-2.325,0.155-3.465,0.155c-10.439-0.001-21.628-0.05-32.215-0.052c-2.417-0.001-4.788,0.03-6.98-0.155
		c-2.286-0.193-4.065-0.817-5.688-1.551c-4.775-2.16-8.524-6.106-10.186-11.479C-0.39,20.7-0.241,15.956,1.165,12.248
		c1.918-5.063,5.69-8.914,10.808-10.911c1.873-0.731,3.562-1.173,6.102-1.293c3.453-0.162,6.87,0.184,10.29,0.052
		c3.313-0.127,6.656,0,10.083,0C45.379,0.099,52.316,0.008,59.337,0.199z"/>
	<path style="fill-rule:evenodd;clip-rule:evenodd;" d="M22.572,51.444c-0.15-2.483-0.208-5.756,0.052-8.016
		c8.873-0.19,18.686-0.103,27.975-0.103c2.356,0,4.7,0,6.877,0c4.282,0,7.458-2.101,9.102-4.965c0.862-1.504,1.583-3.277,1.551-5.48
		c-0.062-4.329-2.399-7.206-5.223-8.895c-1.494-0.894-3.381-1.345-5.688-1.345c-11.229,0.001-23.362,0.01-34.594-0.206
		c-0.187-1.265-0.103-2.761-0.103-4.24c0-1.455-0.105-2.966,0.206-4.137c12.321-0.124,25.92-0.054,39.092-0.052
		c3.413,0,6.116,0.368,8.532,1.345c4.524,1.827,8.065,5.021,10.083,9.565c1.014,2.283,1.878,5.088,1.759,8.066
		c-0.249,6.202-2.642,10.484-6.051,13.651c-1.75,1.627-3.765,2.896-6.05,3.775c-2.428,0.934-5.16,1.189-8.635,1.189
		C48.731,51.599,35.327,51.688,22.572,51.444z"/>
</g>
<g id="Layer_1">
</g>
</svg>
