<?xml version="1.0" encoding="iso-8859-1"?>
<!-- Generator: Adobe Illustrator 19.2.0, SVG Export Plug-In . SVG Version: 6.00 Build 0)  -->
<svg version="1.1" xmlns="http://www.w3.org/2000/svg" xmlns:xlink="http://www.w3.org/1999/xlink" x="0px" y="0px"
	 viewBox="0 0 36.957 26.488" style="enable-background:new 0 0 36.957 26.488;" xml:space="preserve">
<g id="Selams&#x131;zo&#x11F;lu">
	<g>
		<path d="M36.957,13.288l-2.34-1.955v0.001L21.347,0h-4.721l15.287,12.959l-4.172-0.009c-4.994-7.971-13.582-7.7-13.582-7.7
			C4.375,5.25,0,13.204,0,13.204c4.964,8.291,13.828,7.954,13.828,7.954c8.529,0,12.906-6,13.889-7.539l4.164,0.017L16.626,26.488
			h4.511l13.66-11.441L36.957,13.288z M13.889,17.91c0,0-6.469,0.125-10.031-4.889c0,0,3.248-4.732,10.385-4.647
			c0,0,6.189-0.119,9.793,4.568l-6.473-0.013c-0.141-1.893-1.72-3.385-3.648-3.385c-2.022,0-3.66,1.639-3.66,3.66
			c0,2.022,1.638,3.66,3.66,3.66c1.896,0,3.455-1.441,3.641-3.288l6.452,0.027C23.104,14.685,19.857,17.981,13.889,17.91"/>
	</g>
</g>
<g id="Layer_1">
</g>
</svg>
