<?xml version="1.0" encoding="iso-8859-1"?>
<!-- Generator: Adobe Illustrator 21.0.2, SVG Export Plug-In . SVG Version: 6.00 Build 0)  -->
<svg version="1.1" xmlns="http://www.w3.org/2000/svg" xmlns:xlink="http://www.w3.org/1999/xlink" x="0px" y="0px"
	 viewBox="0 0 16.454 15.473" style="enable-background:new 0 0 16.454 15.473;" xml:space="preserve">
<g id="Services_x5F_en_x5F_audio_x5F_visuel_x5F_Commission_x5F_de_x5F_la_x5F_Fonction_x5F_publique_x5F_du_x5F_Canada">
	<path d="M8.074,0.006c1.066-0.056,2.151,0.313,2.955,1.02c0.119,0.117,0.237,0.235,0.353,0.356c0.419,0.505,0.707,1.1,1.046,1.659
		c1.035,1.797,2.078,3.589,3.115,5.384c0.171,0.292,0.344,0.583,0.489,0.89c0.403,0.897,0.539,1.923,0.316,2.885
		c-0.244,1.078-0.938,2.042-1.875,2.625c-0.572,0.363-1.234,0.586-1.911,0.627c-0.694,0.038-1.391,0.014-2.086,0.021
		c-1.958-0.001-3.915,0.002-5.873-0.002c-1.225-0.026-2.518-0.392-3.388-1.298c-1.109-1.048-1.494-2.76-1.008-4.196
		C0.44,9.264,0.871,8.645,1.229,7.994c1.042-1.805,2.082-3.61,3.123-5.416C4.51,2.275,4.675,1.969,4.899,1.708
		c0.177-0.237,0.403-0.429,0.609-0.64C6.21,0.436,7.131,0.06,8.074,0.006z M6.893,0.538C6.236,0.79,5.659,1.229,5.205,1.764
		C4.688,2.371,4.328,3.15,4.352,3.959c0.686-0.437,1.541-0.533,2.333-0.424c0.667,0.085,1.317,0.305,1.896,0.647
		c1.51,0.864,3.022,1.726,4.532,2.591c0.618,0.367,1.262,0.698,1.826,1.147c-0.17-0.27-0.325-0.549-0.486-0.824
		c-0.865-1.495-1.731-2.99-2.597-4.484c-0.311-0.539-0.629-1.104-1.137-1.484C9.671,0.267,8.153,0.041,6.893,0.538z M1.279,8.465
		c-0.385,0.661-0.803,1.33-0.94,2.095c-0.254,1.263,0.211,2.63,1.147,3.507c0.539,0.496,1.219,0.823,1.931,0.986
		c0.611,0.142,1.267,0.199,1.873,0.004c0.254-0.081,0.478-0.224,0.708-0.355c-0.396-0.197-0.745-0.491-1.007-0.848
		c-0.625-0.824-0.936-1.871-0.911-2.902c0-2.375,0-4.75,0-7.125c0.002-0.087,0.016-0.173,0.021-0.26
		C3.159,5.199,2.221,6.833,1.279,8.465z M4.351,4.294c0.002,2.317,0.001,4.634,0.001,6.951c0.049,0.898,0.343,1.798,0.906,2.507
		c0.101,0.107,0.208,0.209,0.31,0.316c0.197,0.208,0.455,0.341,0.709,0.468c1.838-1.076,3.68-2.145,5.521-3.216
		c0.41-0.227,0.804-0.494,1.126-0.837c0.668-0.639,1.183-1.505,1.217-2.447c-0.007-0.15,0.02-0.365-0.148-0.435
		c-1.918-1.114-3.849-2.208-5.775-3.308c-0.775-0.4-1.664-0.594-2.535-0.507C5.204,3.837,4.737,4.006,4.351,4.294z M14.398,7.859
		c0.033,0.169-0.008,0.338-0.011,0.507c-0.099,0.726-0.465,1.387-0.923,1.948c-0.088,0.092-0.18,0.182-0.254,0.288
		C13.129,10.715,13,10.78,12.904,10.88c-0.423,0.408-0.958,0.662-1.456,0.962c-1.441,0.837-2.88,1.676-4.319,2.515
		C6.636,14.63,6.162,14.938,5.661,15.2c2.188,0.003,4.376,0,6.564,0.002c0.195,0.006,0.385-0.039,0.579-0.047
		c0.708-0.095,1.378-0.41,1.93-0.86c0.143-0.135,0.312-0.245,0.425-0.41c0.694-0.754,1.063-1.789,1.024-2.811
		c-0.043-0.624-0.196-1.247-0.485-1.804c-0.151-0.318-0.384-0.584-0.612-0.847C14.867,8.225,14.639,8.033,14.398,7.859z"/>
	<path d="M8.156,5.129c0.155-0.022,0.311,0,0.466,0.018c1.022,0.07,2.007,0.594,2.634,1.401c0.829,1.024,1.02,2.51,0.487,3.713
		c-0.467,1.1-1.504,1.927-2.675,2.156c-1.31,0.283-2.75-0.211-3.615-1.234c-0.428-0.509-0.725-1.132-0.828-1.79
		c-0.09-0.579-0.047-1.181,0.14-1.737c0.337-1.024,1.148-1.871,2.151-2.262C7.311,5.233,7.734,5.162,8.156,5.129z"/>
</g>
<g id="Layer_1">
</g>
</svg>
