<?xml version="1.0" encoding="iso-8859-1"?>
<!-- Generator: Adobe Illustrator 19.2.0, SVG Export Plug-In . SVG Version: 6.00 Build 0)  -->
<svg version="1.1" xmlns="http://www.w3.org/2000/svg" xmlns:xlink="http://www.w3.org/1999/xlink" x="0px" y="0px"
	 viewBox="0 0 83.654 77.775" style="enable-background:new 0 0 83.654 77.775;" xml:space="preserve">
<g id="SGMI">
	<path style="fill-rule:evenodd;clip-rule:evenodd;" d="M83.476,0.279c0.27,1.497,0.151,3.295,0.151,5.004
		c0,1.698,0.052,3.414-0.101,4.903c-5.56,0.213-11.234,0.07-16.883,0.101c-5.668,0.031-11.492-0.018-16.934-0.101
		c-6.257-0.096-10.696,0.356-13.85,3.286c-2.965,2.755-4.397,6.725-5.964,11.171c-1.501,4.255-2.425,8.945-3.64,13.546
		c-1.209,4.581-2.344,9.157-3.69,13.445c-1.35,4.3-2.606,8.896-6.268,10.868c-1.971,1.061-4.838,0.809-7.784,0.809
		c-2.88,0-5.755-0.005-8.391-0.151c-0.162-0.626-0.17-1.902,0-2.527c4.688-0.435,9.5,0.298,13.496-0.101
		c4.295-0.429,5.485-3.493,6.773-6.874c1.254-3.295,2.207-6.871,3.134-10.514c0.925-3.634,1.758-7.342,2.679-10.969
		c0.471-1.852,0.736-3.764,1.163-5.661c0.417-1.857,0.854-3.726,1.263-5.56c0.841-3.755,1.59-7.484,2.933-10.716
		c1.303-3.137,3.62-5.716,6.268-7.38c2.16-1.358,4.655-2.186,7.683-2.578c3.644-0.472,7.979-0.203,12.03-0.203
		C66.104,0.077,75.219,0.05,83.476,0.279z"/>
	<path style="fill-rule:evenodd;clip-rule:evenodd;" d="M83.476,16.504c0.206,3.219,0.249,6.954,0,10.109
		c-4.259,0.188-8.961,0.101-13.597,0.101c-6.982,0-13.483-0.101-20.421-0.101c-2.374,0-4.718-0.15-6.824,0.051
		c-2.182,0.208-3.946,0.616-5.51,1.365c-1.554,0.744-2.622,1.917-3.74,3.134c-2.771,3.19-3.889,7.836-5.358,12.333
		c-1.465,4.484-2.695,9.19-4.245,13.395c-1.606,4.355-2.986,8.69-7.229,10.463c-1.112,0.465-2.32,0.744-3.689,0.758
		c-4.034,0.042-8.728-0.028-12.738-0.151c-0.165-0.678-0.165-2.002,0-2.679c2.927-0.173,6.216,0.059,9.048-0.051
		c3.298-0.127,5.803,0.32,8.138-0.91c3.701-1.949,5.434-7.964,6.773-12.333c0.739-2.411,1.448-4.884,2.174-7.38
		c0.735-2.529,1.292-5.069,2.022-7.481c1.474-4.869,2.823-10.068,4.954-14.103c2.257-4.274,6.303-6.534,12.435-6.824
		c1.553-0.073,3.151,0.05,4.751,0.05c7.932,0,16.02,0.051,23.757,0.051C77.302,16.302,80.397,16.27,83.476,16.504z"/>
	<path style="fill-rule:evenodd;clip-rule:evenodd;" d="M83.476,32.983c0.173,3.355,0.217,7.005,0,10.16
		c-9.127,0.174-18.652,0-28.154,0c-4.912,0-9.598-0.215-14.103,0c-4.654,0.222-7.618,1.692-9.807,4.397
		c-4.257,5.262-5.296,13.671-8.946,19.511c-1.889,3.021-4.425,5.168-8.492,5.712c-2.19,0.293-4.644,0.101-7.026,0.101
		c-2.339,0-4.651,0.022-6.823-0.152c-0.165-0.678-0.165-2.001,0-2.679c3.183-0.185,6.582-0.101,9.756-0.101
		c1.774,0,3.419,0.122,4.853-0.051c4.291-0.518,6.743-3.477,8.289-6.925c1.033-2.305,1.929-4.872,2.78-7.329
		c0.862-2.486,1.663-5.071,2.578-7.582c0.927-2.545,1.672-5.123,2.73-7.431c2.136-4.661,6.074-7.512,12.384-7.885
		c0.079-0.005,0.089-0.05,0.151-0.05c9.688-0.152,19.916,0.151,29.924,0.151c1.692,0,3.373,0,5.055,0
		C80.241,32.831,81.881,32.716,83.476,32.983z"/>
	<path style="fill-rule:evenodd;clip-rule:evenodd;" d="M83.476,49.461c0.209,1.528,0.101,3.246,0.102,4.954
		c0,1.693,0.114,3.447-0.152,4.954c-12.63,0.173-26.37-0.051-39.477-0.05c-4.35,0-8.718-0.062-11.979,1.213
		c-2.862,1.119-4.639,3.761-6.116,6.217c-1.568,2.606-3.039,5.214-4.903,7.43c-1.833,1.968-4.762,3.727-8.744,3.589
		c-3.854-0.133-8.248,0.1-12.081-0.203c-0.167-0.671-0.166-2.008,0-2.679c4.174-0.228,8.373-0.05,12.384-0.05
		c6.901,0,10.04-4.139,12.283-8.947c3.237-6.939,5.229-14.421,13.496-16.226c4.059-0.886,9.412-0.404,14.152-0.404
		C62.776,49.259,73.284,49.244,83.476,49.461z"/>
</g>
<g id="Layer_1">
</g>
</svg>
