<?xml version="1.0" encoding="iso-8859-1"?>
<!-- Generator: Adobe Illustrator 19.2.0, SVG Export Plug-In . SVG Version: 6.00 Build 0)  -->
<svg version="1.1" xmlns="http://www.w3.org/2000/svg" xmlns:xlink="http://www.w3.org/1999/xlink" x="0px" y="0px"
	 viewBox="0 0 60.705 75.737" style="enable-background:new 0 0 60.705 75.737;" xml:space="preserve">
<g id="sgs">
	<path style="fill-rule:evenodd;clip-rule:evenodd;" d="M42.61,22.151c0.676-0.687,1.406-1.301,2.076-2.027
		c0.205-0.222,0.54-0.437,0.544-0.791c-11.042-0.259-23.261-0.195-34.558-0.049c-0.229,0.517-0.202,1.689-0.049,2.274
		c1.131,0.271,2.303,0.148,3.411,0.148c3.58,0,7.048-0.094,10.284,0.396c8.131,1.229,13.919,5.09,18.193,10.283
		c1.021,1.24,2.059,2.672,2.917,4.202c0.847,1.511,1.745,3.283,2.175,4.944c0.138,0.53,0.198,1.106,0.346,1.681
		c0.959,3.737,1.149,8.502,0.198,12.607c-0.261,1.124-0.479,2.226-0.84,3.213c-1.065,2.912-2.686,5.405-4.499,7.613
		c-3.835,4.364-8.709,7.489-15.573,8.751c-3.735,0.687-7.789,0.266-10.926-0.642c-6.241-1.807-10.422-5.719-13.398-10.877
		c-1.47-2.547-2.668-5.818-2.868-9.244c-0.47-8.109,2.977-13.053,7.268-16.908c3.139-2.546,6.829-3.979,11.767-4.45
		c2.338-0.223,5.069,0.275,6.971,1.039c5.638,2.264,9.95,6.429,11.074,13.199c0.822,4.948-0.921,9.519-3.51,12.162
		c-2.682,2.741-6.318,4.902-11.618,4.499c-4.653-0.354-7.871-3.19-9.492-6.674c-0.831-1.785-1.279-4.484-0.593-6.822
		c0.596-2.034,1.796-3.646,3.361-4.697c1.529-1.026,4.1-1.867,6.427-1.187c1.023,0.299,1.812,0.845,2.571,1.483
		c0.7,0.59,1.538,1.193,1.78,2.225c-0.244,1.189-1.227,1.642-1.928,2.373c-0.723,0.711-1.427,1.44-2.225,2.076
		c-0.583,0.079-1.267-0.335-1.582,0.198c-0.582,0.984,0.856,2.212,1.631,2.472c1.664,0.558,3.595-0.16,4.647-1.038
		c1.062-0.886,1.997-2.18,2.175-3.857c0.358-3.367-1.414-5.383-3.065-7.119c-1.415-1.062-2.907-1.777-4.993-1.978
		c-2.042-0.195-4.206,0.333-5.784,1.088c-3.062,1.463-5.473,4.216-6.328,7.613c-1.075,4.267,0.54,8.428,2.323,10.926
		c1.981,2.775,4.714,4.643,8.355,5.587c4.224,1.096,8.56,0.165,11.618-1.335c3.16-1.55,5.593-3.885,7.267-6.674
		c1.736-2.894,2.717-7.146,2.077-11.47c-0.603-4.072-1.997-7.228-4.252-9.69c-2.975-3.659-7.169-6.35-13.002-7.268
		c-3.059-0.481-6.477-0.248-9.887-0.247c-3.364,0.001-6.77-0.017-10.036-0.099c-0.346-3.056-0.042-6.41-0.099-9.641
		c-0.056-3.198-0.142-6.508,0.049-9.641c0.809-0.263,1.695-0.147,2.522-0.148c12.652,0,26.606,0.185,39.551-0.05
		c-0.213-0.646-0.774-0.997-1.187-1.384c-0.862-0.809-1.663-1.57-2.62-2.472c-0.38-0.358-1.121-0.903-1.137-1.385
		c-0.017-0.531,0.728-1.151,1.088-1.482c1.03-0.951,1.664-1.556,2.62-2.522c0.216-0.219,1.265-1.403,1.533-1.335
		c0.707,0.18,1.536,1.288,2.027,1.78c3.719,3.719,7.586,7.34,11.42,11.173c0.263,0.262,0.572,0.561,0.939,0.939
		c0.335,0.347,0.92,0.66,0.939,0.939c0.035,0.507-1.278,1.477-1.829,2.027c-3.898,3.897-7.605,7.494-11.47,11.52
		c-0.251,0.261-0.619,0.661-0.939,0.988c-0.244,0.25-0.75,0.825-1.038,0.841c-0.508,0.027-1.137-0.869-1.483-1.187
		c-1.046-0.961-1.736-1.619-2.719-2.62C40.905,26.076,40,25.469,39.99,24.97c-0.01-0.466,0.905-1.183,1.236-1.483
		C41.766,22.996,42.136,22.818,42.61,22.151z"/>
</g>
<g id="Layer_1">
</g>
</svg>
