<?xml version="1.0" encoding="iso-8859-1"?>
<!-- Generator: Adobe Illustrator 19.2.0, SVG Export Plug-In . SVG Version: 6.00 Build 0)  -->
<svg version="1.1" xmlns="http://www.w3.org/2000/svg" xmlns:xlink="http://www.w3.org/1999/xlink" x="0px" y="0px"
	 viewBox="0 0 79.991 79.956" style="enable-background:new 0 0 79.991 79.956;" xml:space="preserve">
<g id="sheridan_x5F_nurseries">
	<path style="fill-rule:evenodd;clip-rule:evenodd;" d="M30.244,0c0.447,0.245,1.044,1.538,1.357,2.16
		c1.153,2.294,2.328,4.758,3.517,6.883c1.065,2.357,2.359,4.581,3.517,6.883c0.383,0.763,0.529,1.675,1.155,2.31
		c0.801-0.291,1.381-0.969,2.06-1.457c3.391-2.439,7.807-4.398,13.414-4.621c2.204-0.089,4.447,0.222,6.48,0.703
		c7.301,1.726,13.029,6.546,15.976,12.86c1.561,3.344,2.535,7.631,2.211,11.907c-0.333,4.384-1.726,7.825-3.617,10.801
		c-3.731,5.869-9.547,9.74-17.834,10.952c-0.272,1.598-0.151,3.315-0.151,5.023c0,5.053,0.083,10.489-0.101,15.424
		c-1.14,0.038-2.926,0.189-4.12,0c-0.438-6.447,0.136-14.109-0.301-20.397c-1.653-0.277-3.415-0.101-5.174-0.101
		c-5.239,0.002-10.707-0.118-15.875,0c-0.272,0.79-0.151,1.683-0.151,2.512c0,5.267,0,10.318,0,15.524
		c0,0.827,0.118,1.692-0.15,2.462c-1.153,0.148-3.044,0.207-4.12-0.051c-0.274-6.938,0.027-13.617-0.251-20.347
		c-1.09-0.359-2.304-0.201-3.467-0.201c-8.227,0-16.401,0.258-24.617,0c0.071-0.649,0.445-1.354,0.753-1.959
		c0.911-1.787,1.966-3.634,2.914-5.476c8.81-17.132,17.508-34.538,26.425-51.645C30.121,0.078,30.171,0.028,30.244,0z
		 M35.468,24.014c0.413-0.673,0.917-1.299,1.156-2.06c-1.153-2.665-2.486-5.15-3.869-7.586c-0.05,0-0.101,0-0.151,0
		c-0.002,0.064-0.064,0.069-0.05,0.15c-0.092,1.204-0.05,2.713-0.05,4.12c0,2.748,0,5.562,0,8.239c0,1.351-0.133,2.702,0.201,3.918
		C33.491,28.324,34.254,25.992,35.468,24.014z M28.133,34.765c0-6.839,0.03-13.578-0.15-20.347c-0.034,0-0.067,0-0.101,0
		c-0.072,0.028-0.123,0.079-0.151,0.151c-5.244,9.955-10.455,20.062-15.523,30.142c-1.478,2.938-3.049,5.928-4.522,8.792
		c-0.207,0.402-0.578,0.806-0.502,1.306c5.061,0.229,10.664,0.051,15.775,0.051c1.752,0,3.461,0.017,5.074-0.15
		C28.301,48.097,28.133,41.425,28.133,34.765z M59.231,43.808c0.707-1.429,1.466-2.814,2.16-4.271
		c2.513-5.269,5.407-10.35,7.888-15.624c0.222-0.473,0.68-1.181,0.653-1.507c-0.028-0.347-0.648-0.785-1.004-1.105
		c-2.705-2.428-6.13-4.107-10.5-4.571c-0.304,0.457-0.201,1.04-0.201,1.558c0,8.7,0.023,18.091,0.151,26.676
		C58.869,44.832,59.027,44.22,59.231,43.808z M52.951,16.779c-2.3,0.424-4.251,0.998-6.28,2.11c-0.911,0.499-1.6,1.042-2.512,1.708
		c-0.425,0.311-2.12,1.432-2.161,2.059c-0.019,0.286,0.432,1.033,0.653,1.457c3.462,6.636,6.885,13.28,10.249,19.794
		c0.229,0.443,0.4,1.06,0.904,1.256c0.2-9.228,0.142-19.135-0.05-28.335C53.519,16.645,53.135,16.746,52.951,16.779z M72.845,26.677
		c-0.62,1.065-1.229,2.263-1.808,3.466c-3.424,7.116-7.06,14.108-10.55,21.05c-0.58,1.154-1.363,2.241-1.658,3.518
		c1.677,0.067,3.306-0.541,4.772-1.156c4.288-1.798,7.726-4.815,9.797-8.691c1.433-2.683,2.459-6.139,2.21-10.248
		c-0.09-1.493-0.415-3.029-0.854-4.421c-0.361-1.145-0.895-2.993-1.759-3.617C72.937,26.601,72.882,26.629,72.845,26.677z
		 M37.528,30.394c-0.373,1.253-0.667,2.626-0.753,3.918c-0.271,4.036,0.795,7.771,2.16,10.399c0.22,0.424,0.347,0.887,0.553,1.256
		c0.598,1.075,1.57,2.224,2.512,3.165c1.969,1.969,4.05,3.475,6.782,4.571c1.394,0.561,2.954,0.979,4.521,1.056
		c0.061-0.683-0.423-1.242-0.703-1.809c-0.878-1.776-1.749-3.531-2.663-5.275c-3.319-6.342-6.6-12.669-9.897-19.091
		c-0.273-0.531-0.659-1.61-1.055-1.657C38.266,27.849,37.905,29.127,37.528,30.394z M32.555,41.045c-0.222,1.928,0,4.455,0,6.882
		c0,2.437-0.08,4.866,0.1,6.833c2.779,0.118,6.158,0.269,8.842,0c-0.206-0.665-0.88-0.933-1.356-1.356
		c-0.489-0.437-0.905-1.005-1.356-1.507c-2.725-3.038-4.892-6.575-5.978-11.203c-0.05,0-0.06-0.041-0.101-0.051
		C32.613,40.715,32.567,40.933,32.555,41.045z"/>
</g>
<g id="Layer_1">
</g>
</svg>
