<?xml version="1.0" encoding="iso-8859-1"?>
<!-- Generator: Adobe Illustrator 19.2.0, SVG Export Plug-In . SVG Version: 6.00 Build 0)  -->
<svg version="1.1" xmlns="http://www.w3.org/2000/svg" xmlns:xlink="http://www.w3.org/1999/xlink" x="0px" y="0px"
	 viewBox="0 0 76.598 71.547" style="enable-background:new 0 0 76.598 71.547;" xml:space="preserve">
<g id="Shimobe_x5F_Denshi">
	<path style="fill-rule:evenodd;clip-rule:evenodd;" d="M76.274,0.229c0.075,0.481-0.319,0.884-0.533,1.26
		c-0.662,1.164-1.275,2.511-2.131,3.537c-11.917,0.079-23.867,0.001-35.952,0c-6.092,0-12.682-0.489-17.395,0.824
		c-4.543,1.266-8.295,4.015-10.902,7.316c-2.696,3.416-4.689,7.83-4.603,13.518c0.087,5.691,2.093,9.966,4.845,13.373
		c2.708,3.353,6.472,5.747,11.192,7.025c4.891,1.326,11.341,0.312,17.395,0.775c0.294,0.663,0.09,1.532,0.097,2.374
		c0.006,0.817,0.2,1.717-0.097,2.374c-2.379,0.194-4.703,0.021-6.977,0.049c-2.39,0.03-4.743,0.096-7.026-0.049
		c-4.475-0.282-8.102-1.6-11.144-3.392c-4.077-2.401-7.774-5.72-9.933-10.078c-0.977-1.971-1.941-4.251-2.471-6.589
		C-0.61,27.036,0.075,21.2,1.802,16.848c0.351-0.884,0.639-1.811,1.017-2.616c0.767-1.628,1.883-3.083,2.907-4.36
		c3.714-4.636,8.983-8.229,16.038-9.399c4.752-0.79,10.918-0.338,16.231-0.388c4.237-0.041,8.456,0.217,12.694,0.048
		c2.141-0.085,4.285,0.049,6.444,0.049C63.518,0.182,69.889,0.045,76.274,0.229z"/>
	<path style="fill-rule:evenodd;clip-rule:evenodd;" d="M72.494,6.915c-0.071,0.662-0.531,1.139-0.824,1.648
		c-0.295,0.513-0.497,1.119-0.969,1.502c-12.657,0.085-25.142,0-37.938,0c-2.598,0-5.248-0.188-7.559,0.049
		c-4.507,0.463-7.798,2.289-10.272,4.942c-2.567,2.753-4.381,5.697-4.7,10.562c-0.304,4.636,1.448,8.628,3.731,11.386
		c2.251,2.72,5.484,4.832,9.593,5.621c2.292,0.439,4.744,0.242,7.268,0.242c2.415,0,4.859-0.016,7.365,0.146
		c0.14,0.842,0.191,2.337,0,3.053c-3.854,0.166-7.407,0.098-10.95,0.097c-3.714-0.001-6.597-0.729-9.254-1.987
		c-5.021-2.378-8.56-6.503-10.272-12.161C5.652,25.2,7.972,18.359,11.057,14.426c2.415-3.08,5.751-5.707,9.981-6.881
		c1.478-0.41,3.132-0.738,4.942-0.823c5.873-0.277,11.816,0.154,17.588,0.048c1.944-0.035,3.885,0,5.814,0
		C57.179,6.771,64.898,6.682,72.494,6.915z"/>
	<path style="fill-rule:evenodd;clip-rule:evenodd;" d="M69.539,11.906c-0.04,0.721-0.529,1.407-1.018,1.841
		c-12.849,0.121-26.065-0.002-39.053,0c-2.332,0-4.38-0.011-6.153,0.437c-4.879,1.23-8.645,4.975-9.448,10.271
		c-0.612,4.033,0.723,7.737,2.713,10.127c1.883,2.26,4.88,4.23,8.625,4.506c4.094,0.301,8.497-0.205,12.985,0.146
		c0.15,0.402,0.162,1.392,0,1.792c-2.966,0.192-5.634,0.049-8.528,0.049c-2.979,0.001-5.604,0.043-7.897-0.727
		c-4.344-1.459-7.427-4.403-9.012-8.431c-0.907-2.305-1.184-5.066-0.872-7.559c0.3-2.408,1.308-4.555,2.471-6.25
		c2.307-3.365,6.083-6.015,11.289-6.348c0.89-0.058,1.787,0.043,2.713,0c2.744-0.127,5.473,0.048,8.189,0.048
		c1.846,0.001,3.711-0.087,5.572,0c1.788,0.084,3.642,0.124,5.427,0.049c3.659-0.153,7.337-0.029,10.999-0.049
		C62.214,11.79,65.88,11.742,69.539,11.906z"/>
	<path style="fill-rule:evenodd;clip-rule:evenodd;" d="M67.455,15.637c-0.171,0.596-0.343,1.224-0.824,1.405
		c-0.608,0.23-1.87,0.049-2.81,0.048c-10.45,0-20.235-0.049-30.574-0.048c-3.568,0-7.757-0.354-10.369,0.775
		c-2.61,1.128-4.537,3.079-5.427,5.862c-1.061,3.315,0.137,6.867,1.696,8.769c1.673,2.043,4.147,3.384,7.85,3.44
		c3.465,0.053,7.254,0,11.192-0.048c0.216-0.365,0.005-1.158,0.242-1.503c1.979-0.153,3.986-0.048,5.959-0.048
		c2.083,0,4.15-0.091,6.105,0c3.628,0.169,6.343,1.919,8.092,4.07c1.831,2.252,2.962,5.867,2.132,9.448
		c-0.719,3.103-2.675,5.539-5.185,6.977c-1.32,0.757-2.87,1.263-4.7,1.405c-1.788,0.14-3.955,0.079-5.959,0.049
		c-8.113-0.125-15.99,0.001-24.129,0c-2.978-0.001-5.807,0.115-8.867,0c-0.95-0.036-1.933,0.123-2.859-0.145
		c0.064-0.663,0.379-1.074,0.775-1.405c7.324-0.041,15.06-0.173,22.143-0.146c3.489,0.014,7.518,0.221,11.144,0.049
		c3.728-0.177,7.66,0.5,10.417-0.679c3.711-1.587,6.845-5.318,5.62-10.756c-0.979-4.349-4.379-7.219-9.69-7.22
		c-3.475-0.001-7.145-0.044-11.047-0.049c-0.22,0.5,0.089,1.229-0.242,1.6c-2.377,0.088-4.603,0-6.88,0
		c-2.382-0.001-4.736,0.19-6.783-0.145c-3.671-0.601-6.497-3.078-7.946-5.96c-1.766-3.512-1.179-8.207,0.678-10.999
		c1.815-2.73,4.86-4.79,9.109-4.99c3.431-0.162,6.853,0.048,10.272,0.049c6.969,0.001,13.858,0.048,20.69,0.048
		c2.624,0,5.335-0.111,7.704,0C65.806,15.53,66.666,15.357,67.455,15.637z"/>
	<path style="fill-rule:evenodd;clip-rule:evenodd;" d="M38.578,18.98c3.562-0.022,7.083,0.065,10.32,0
		c10.285-0.205,17.067,4.088,21.755,9.69c2.997,3.582,5.623,8.874,5.911,15.069c0.465,10.006-3.966,17.296-9.545,21.804
		c-3.92,3.166-8.537,5.3-15.068,5.862c-3.313,0.286-6.753,0.05-10.321,0.049c-13.816-0.005-27.778,0.038-41.378-0.049
		c0.216-0.935,0.813-1.676,1.26-2.422c0.459-0.769,0.794-1.582,1.357-2.277c0.039-0.01,0.048-0.049,0.097-0.049
		c6.644-0.103,13.582-0.147,20.253-0.146c6.706,0.002,12.727,0.049,19.866,0.049c4.57-0.001,9.274,0.324,12.937-0.727
		c6.892-1.979,11.963-6.769,14.342-12.985c1.292-3.377,1.714-7.84,0.92-11.871c-0.737-3.744-2.45-6.652-4.409-9.206
		c-2.761-3.207-6.285-5.849-11.095-7.123c-4.835-1.28-11.564-0.351-17.346-0.823c-0.021-0.043-0.042-0.087-0.097-0.097
		c-0.054-1.448-0.151-3.347,0.097-4.651C38.468,19.031,38.521,19.004,38.578,18.98z"/>
	<path style="fill-rule:evenodd;clip-rule:evenodd;" d="M3.982,64.768c0.008-0.612,0.437-1.069,0.775-1.648
		c0.265-0.452,0.558-1.285,1.018-1.453c0.741-0.271,2.833-0.049,3.779-0.049c8.77,0.002,17.897-0.047,26.456-0.049
		c5.191-0.001,10.041,0.29,15.02,0c4.525-0.264,7.907-2.237,10.417-4.748c2.563-2.565,4.453-5.852,4.748-10.466
		c0.291-4.539-1.388-8.723-3.585-11.435c-2.234-2.759-5.44-4.857-9.497-5.718c-4.335-0.918-9.571,0.094-14.681-0.484
		c-0.032-0.715-0.571-3.068,0.291-3.149c1.186-0.111,2.95,0,4.361,0c4.153,0.001,8.759-0.239,12.016,0.727
		c4.504,1.335,7.828,3.755,10.175,6.831c1.899,2.348,3.327,5.271,3.973,8.818c0.714,3.924-0.051,7.982-1.309,10.95
		c-2.356,5.566-7.293,10.155-13.954,11.532c-3.681,0.76-7.938,0.387-12.21,0.388C29.319,64.818,15.893,64.893,3.982,64.768z"/>
	<path style="fill-rule:evenodd;clip-rule:evenodd;" d="M6.89,59.778c0.079-0.698,0.538-1.432,1.066-1.842
		c12.918-0.101,25.83,0.001,39.004,0c1.768,0,3.347,0.033,4.797-0.146c4.151-0.511,7.106-2.773,9.012-5.717
		c1.266-1.954,2.204-4.644,1.939-7.801c-0.248-2.946-1.326-5.127-2.811-7.025c-2.017-2.135-4.662-4.246-8.576-4.555
		c-4.151-0.328-8.679,0.229-12.888-0.194c-0.187-0.378-0.333-1.678,0.146-1.841c5.041,0.276,9.652-0.464,13.906,0.242
		c3.955,0.656,6.856,2.655,8.964,5.232c2.119,2.592,3.688,6.491,3.149,10.902c-0.496,4.054-2.357,7.103-4.942,9.254
		c-2.795,2.327-5.81,3.585-10.66,3.586C35.688,59.875,20.565,59.883,6.89,59.778z"/>
</g>
<g id="Layer_1">
</g>
</svg>
