<?xml version="1.0" encoding="iso-8859-1"?>
<!-- Generator: Adobe Illustrator 21.0.2, SVG Export Plug-In . SVG Version: 6.00 Build 0)  -->
<svg version="1.1" xmlns="http://www.w3.org/2000/svg" xmlns:xlink="http://www.w3.org/1999/xlink" x="0px" y="0px"
	 viewBox="0 0 34.864 35.577" style="enable-background:new 0 0 34.864 35.577;" xml:space="preserve">
<g id="Shipping_x5F_Guru">
	<path d="M19.06,0.362c0.591-0.532,1.628-0.493,2.061,0.218c0.955,1.447,2.04,2.84,2.892,4.337c-0.501,0.254-1.149,0.119-1.492-0.33
		C21.368,3.179,20.197,1.783,19.06,0.362z"/>
	<path d="M15.286,0.724c0.452-0.647,1.477-0.785,2.026-0.187c1.247,1.244,2.604,2.38,3.806,3.665
		c-0.467,0.391-1.184,0.333-1.627-0.064C18.089,3.002,16.668,1.884,15.286,0.724z"/>
	<path d="M23.147,0.866c0.561-0.525,1.684-0.182,1.926,0.572c0.611,1.604,1.275,3.192,1.886,4.794
		c-0.515,0.19-1.147-0.05-1.384-0.55C24.772,4.074,23.899,2.491,23.147,0.866z"/>
	<path d="M11.584,1.877c0.249-0.735,1.212-1.081,1.865-0.657c1.521,0.94,3.043,1.877,4.554,2.833
		c-0.305,0.51-1.01,0.604-1.506,0.331C14.852,3.562,13.228,2.701,11.584,1.877z"/>
	<path d="M26.638,1.88c0.659-0.418,1.611,0.1,1.721,0.85c0.284,1.706,0.56,3.415,0.802,5.128c-0.519,0.06-1.06-0.269-1.203-0.779
		C27.501,5.35,27.103,3.606,26.638,1.88z"/>
	<path d="M8.253,3.665c0.086-0.787,0.973-1.24,1.692-1.021c1.697,0.636,3.404,1.245,5.104,1.872
		c-0.147,0.552-0.81,0.796-1.328,0.655C11.898,4.67,10.078,4.157,8.253,3.665z"/>
	<path d="M29.53,2.779c0.618-0.243,1.481,0.107,1.538,0.825c0.043,1.621,0.159,3.237,0.173,4.859
		c-0.5,0.079-1.031-0.259-1.089-0.778C29.941,6.05,29.731,4.415,29.53,2.779z"/>
	<path d="M32.289,4.03c0.492-0.233,1.25-0.021,1.241,0.612c-0.1,0.97-0.59,1.849-1.028,2.704c-0.113,0.289-0.467,0.096-0.687,0.081
		C31.978,6.295,32.112,5.16,32.289,4.03z"/>
	<path d="M5.229,6.15c-0.18-0.655,0.553-1.364,1.236-1.306c1.864,0.272,3.728,0.55,5.591,0.822
		c-0.041,0.589-0.669,0.959-1.221,0.883C8.964,6.445,7.092,6.327,5.229,6.15z"/>
	<path d="M3.973,7.499c1.888-0.054,3.776-0.234,5.664-0.218C9.61,7.875,9.098,8.283,8.536,8.349
		C6.653,8.581,4.772,8.841,2.885,9.047C2.718,8.327,3.229,7.567,3.973,7.499z"/>
	<path d="M2.158,10.628c1.781-0.447,3.556-0.932,5.351-1.315c0.176,0.587-0.3,1.152-0.851,1.293
		c-1.764,0.558-3.498,1.232-5.276,1.732C1.033,11.669,1.429,10.805,2.158,10.628z"/>
	<path d="M0.765,14.058c1.671-0.861,3.401-1.591,5.108-2.37c0.281,0.479,0.014,1.076-0.447,1.322
		c-1.608,0.938-3.226,1.859-4.831,2.802C0.111,15.323,0.196,14.445,0.765,14.058z"/>
	<path d="M0.453,17.74c1.444-1.068,2.84-2.201,4.303-3.243c0.394,0.426,0.267,1.11-0.159,1.464
		c-1.361,1.205-2.689,2.452-4.076,3.627C-0.157,19.269-0.166,18.155,0.453,17.74z"/>
	<path d="M4.274,17.314c0.515,0.264,0.544,1.004,0.213,1.428c-1.072,1.424-2.089,2.891-3.166,4.312
		c-0.729-0.064-1.035-1.143-0.572-1.683C1.928,20.023,3.095,18.662,4.274,17.314z"/>
	<path d="M19.814,17.566c4.999-0.084,10.002-0.057,15.004-0.089c0.022,0.414,0.105,0.871-0.03,1.264
		c-1.37,0.415-2.94,0.957-3.559,2.378c-2.492,0.269-4.992,0.47-7.49,0.684c-0.241-1.932-2.223-2.717-3.902-2.988
		C19.717,18.454,19.756,17.945,19.814,17.566z"/>
	<path d="M4.569,20.283c0.609,0.048,0.736,0.841,0.552,1.313c-0.706,1.636-1.456,3.253-2.154,4.893
		c-0.764-0.041-1.244-0.984-0.889-1.646C2.911,23.325,3.751,21.809,4.569,20.283z"/>
	<path d="M31.13,22.286c0.173-0.117,0.358-0.386,0.59-0.236c0.841,0.427,1.729,0.847,2.383,1.544
		c0.394,0.459-0.218,1.075-0.701,0.927C32.648,23.772,31.875,23.042,31.13,22.286z"/>
	<path d="M26.903,22.699c0.327-0.413,1.024-0.291,1.46-0.103c1.444,0.764,2.912,1.485,4.361,2.238
		c-0.35,0.547-1.275,0.533-1.839,0.276C29.55,24.32,28.244,23.48,26.903,22.699z"/>
	<path d="M23.682,23.055c0.255-0.356,0.989-0.331,1.417-0.151c1.321,0.729,2.629,1.487,3.947,2.222
		c-0.27,0.587-1.245,0.61-1.782,0.341C26.058,24.682,24.878,23.854,23.682,23.055z"/>
	<path d="M5.399,22.961c0.562,0.051,0.895,0.667,0.804,1.189c-0.357,1.76-0.664,3.531-1.029,5.29
		c-0.701-0.019-1.398-0.654-1.238-1.392C4.395,26.345,4.93,24.661,5.399,22.961z"/>
	<path d="M21.802,23.899c-0.267-0.493,0.312-0.935,0.768-0.921c0.637,0.787,1.324,1.558,1.894,2.385
		c-0.148,0.093-0.297,0.186-0.447,0.278C23.225,25.147,22.341,24.686,21.802,23.899z"/>
	<path d="M6.631,30.715c0.113-1.69,0.158-3.394,0.34-5.073c0.48,0.059,0.949,0.408,1.001,0.915c0.102,1.794,0.099,3.594,0.168,5.391
		C7.418,32.152,6.486,31.518,6.631,30.715z"/>
	<path d="M30.986,26.105c0.116-0.163,0.258-0.313,0.439-0.404c0.964,0.456,1.986,0.907,2.733,1.69
		c0.397,0.483-0.079,1.058-0.592,1.156C32.684,27.759,31.858,26.906,30.986,26.105z"/>
	<path d="M27.082,26.155c0.589-0.096,1.091,0.267,1.607,0.483c1.255,0.641,2.579,1.165,3.828,1.801
		c-0.246,0.656-1.262,0.744-1.835,0.43c-1.392-0.785-2.797-1.547-4.184-2.34C26.443,26.279,26.876,26.18,27.082,26.155z"/>
	<path d="M23.03,26.565c0.431-0.415,1.148-0.333,1.623-0.036c1.367,0.838,2.753,1.646,4.114,2.495
		c-0.479,0.619-1.519,0.661-2.098,0.151C25.47,28.287,24.216,27.473,23.03,26.565z"/>
	<path d="M22.344,28.764c-0.805-0.391-0.95-1.655,0.135-1.737c0.71,0.858,1.407,1.734,2.052,2.64
		C23.774,30.382,23.011,29.116,22.344,28.764z"/>
	<path d="M8.858,27.854c0.588-0.124,1.221,0.251,1.314,0.861c0.376,1.682,0.914,3.343,1.247,5.022
		c-0.575,0.366-1.516-0.054-1.652-0.753C9.463,31.275,9.182,29.561,8.858,27.854z"/>
	<path d="M11.28,29.498c0.55-0.2,1.167,0.11,1.407,0.626c0.778,1.577,1.709,3.092,2.363,4.722c-0.675,0.396-1.673,0.129-1.907-0.658
		C12.557,32.611,11.806,31.09,11.28,29.498z"/>
	<path d="M31.456,29.964c0.15-0.149,0.301-0.509,0.559-0.361c0.872,0.39,1.806,0.754,2.492,1.44
		c0.419,0.433-0.038,1.059-0.536,1.143C33.151,31.425,32.261,30.744,31.456,29.964z"/>
	<path d="M27.188,30.408c0.301-0.591,1.124-0.595,1.624-0.265c1.526,0.869,3.157,1.513,4.691,2.365
		c-0.353,0.988-1.626,1.032-2.311,0.367C29.879,32.014,28.504,31.26,27.188,30.408z"/>
	<path d="M23.447,30.956c0.33-0.433,0.94-0.551,1.432-0.353c1.664,0.84,3.381,1.583,4.985,2.541c-0.3,0.663-1.147,1.032-1.8,0.641
		C26.542,32.816,24.986,31.88,23.447,30.956z"/>
	<path d="M13.936,30.783c0.447-0.318,1.087-0.191,1.444,0.201c1.202,1.368,2.344,2.795,3.455,4.237
		c-0.544,0.494-1.489,0.493-1.945-0.116C15.909,33.661,14.954,32.198,13.936,30.783z"/>
	<path d="M17.055,31.427c0.517-0.324,1.167-0.28,1.652,0.083c1.397,1.118,2.814,2.212,4.193,3.353
		c-0.453,0.695-1.536,0.792-2.092,0.176C19.576,33.815,18.251,32.682,17.055,31.427z"/>
	<path d="M20.103,31.59c0.336-0.62,1.267-0.439,1.818-0.17c1.544,0.764,3.089,1.532,4.61,2.341
		c-0.248,0.712-1.198,1.078-1.842,0.655C23.158,33.48,21.611,32.557,20.103,31.59z"/>
</g>
<g id="Layer_1">
</g>
</svg>
