<?xml version="1.0" encoding="iso-8859-1"?>
<!-- Generator: Adobe Illustrator 19.2.0, SVG Export Plug-In . SVG Version: 6.00 Build 0)  -->
<svg version="1.1" xmlns="http://www.w3.org/2000/svg" xmlns:xlink="http://www.w3.org/1999/xlink" x="0px" y="0px"
	 viewBox="0 0 78.026 38.169" style="enable-background:new 0 0 78.026 38.169;" xml:space="preserve">
<g id="Sie_x5F_67">
	<path style="fill-rule:evenodd;clip-rule:evenodd;" d="M68.626,24.959c-4.824,0.084-9.965,0.046-14.93,0.046
		c-1.633,0-3.283-0.143-4.762,0.183c0.188,1.494,1.08,2.506,1.922,3.434c0.854,0.939,1.844,1.736,3.068,2.244
		c2.6,1.076,6.217,0.974,8.977,0c2.559-0.904,4.578-2.543,6.09-4.58c1.57-2.115,2.539-4.615,2.428-8.197
		c-0.102-3.259-1.574-5.65-3.205-7.464c-1.598-1.775-3.957-3.399-6.777-3.847c-3.064-0.485-6.605-0.169-10.076-0.183
		c-3.439-0.014-6.928-0.008-10.395-0.137c-0.15-2.009-0.166-4.589,0.045-6.32c5.848-0.173,12.012-0.064,17.861-0.137
		c5.002-0.063,8.789,1.692,11.768,3.938c3.025,2.28,5.373,5.353,6.549,9.25c0.652,2.157,0.979,4.582,0.779,7.052
		c-0.186,2.282-0.754,4.499-1.557,6.32c-1.58,3.575-4.211,6.451-7.373,8.38c-1.605,0.979-3.369,1.926-5.449,2.473
		c-2.127,0.559-4.623,0.907-7.008,0.687c-2.525-0.234-4.641-0.601-6.502-1.374c-0.885-0.368-1.701-0.896-2.52-1.42
		c-3.9-2.498-6.705-6.606-7.051-12.685c-0.303-5.302,1.133-9.144,3.754-11.998c1.756-1.759,4.121-2.894,7.145-3.389
		c4.787-0.784,10.109,0.231,12.914,2.381c0.902,0.692,1.799,1.792,2.518,2.748c1.516,2.012,2.547,4.803,2.564,7.922
		C69.413,21.989,69.228,23.758,68.626,24.959z M55.025,13.098c-2.586,0.051-4.316,0.973-5.494,2.473
		c-0.596,0.758-1.234,1.776-1.146,2.885c0.996,0.248,2.125,0.137,3.252,0.137c2.256,0,4.578,0,6.777,0
		c1.094,0,2.188,0.109,3.115-0.183C61.052,15.156,58.712,13.027,55.025,13.098z"/>
	<path style="fill-rule:evenodd;clip-rule:evenodd;" d="M32.724,0.185c0.148,1.883,0.152,4.391,0,6.274
		c-3.84,0.134-7.945,0.148-11.678,0.091c-3.875-0.059-7.137,0.578-9.525,2.381c-2.147,1.62-4.055,4.229-4.672,7.281
		c-0.734,3.634,0.191,7.159,1.877,9.479c2.117,2.938,5.641,5.298,10.58,5.312c1.984,0.005,3.631-0.47,4.99-1.19
		c1.262-0.64,2.172-2.776,0.596-3.801c-0.965-0.627-2.766-0.747-4.213-0.824c-3.31-0.177-6.611,0.001-8.885-1.191
		c-1.027-0.539-2.078-1.388-2.701-2.335c-1.559-2.372-1.441-5.94-0.275-8.38c1.086-2.269,3.127-4.169,5.404-5.083
		c2.779-1.116,6.209-1.116,9.158-0.688c3.043,0.443,5.385,1.634,6.824,3.664c1.09,1.537,1.812,3.658,1.648,6.457
		c-0.935,0.321-2.336,0.183-3.572,0.183c-1.275-0.001-2.588,0.074-3.664-0.092c-0.254-0.996-0.102-2.107-0.41-2.885
		c-0.844-2.111-4.822-2.998-7.328-1.557c-0.844,0.485-2.025,1.92-1.557,3.48c0.516,1.714,2.283,1.774,4.441,1.877
		c2.25,0.108,4.717,0.019,6.686,0.458c2.752,0.613,4.709,2.131,5.725,4.579c0.633,1.522,0.881,3.67,0.275,5.816
		c-0.947,3.353-3.639,5.581-6.641,6.869c-2.359,1.013-5.428,1.576-8.746,1.145c-6.719-0.872-11.693-4.424-14.471-9.159
		c-1.539-2.624-2.926-6.66-2.519-10.899c0.574-5.987,3.369-10.535,6.961-13.28c1.238-0.946,2.6-1.872,4.168-2.564
		c1.502-0.664,3.312-1.357,5.219-1.511c2.057-0.166,3.752,0,5.908,0c1.188,0.001,2.371-0.046,3.527-0.045
		C28.259,0.048,30.597-0.06,32.724,0.185z"/>
	<path style="fill-rule:evenodd;clip-rule:evenodd;" d="M39.822,0.185c0.178,2.027,0.139,4.317,0.045,6.228
		c-0.787,0.31-1.918,0.183-2.977,0.183c-1.076,0-2.17,0.042-3.021-0.137c-0.295-1.019-0.096-2.297-0.092-3.48
		c0.002-0.987-0.135-1.988,0.092-2.839C35.622,0.128,38.077-0.109,39.822,0.185z"/>
	<path style="fill-rule:evenodd;clip-rule:evenodd;" d="M39.822,8.107c0.207,9.311,0.193,19.253,0,29.08
		c-0.836,0.241-1.951,0.137-3.023,0.137c-1.059,0-2.146,0.089-2.977-0.137c-0.172-2.139-0.092-4.803-0.092-7.282
		c0.002-6.582,0-13.704,0-20.378c0-0.703-0.16-1.469,0.504-1.557c0.91-0.121,1.953,0.045,2.885,0.045
		C38.062,8.015,38.952,7.928,39.822,8.107z"/>
</g>
<g id="Layer_1">
</g>
</svg>
