<?xml version="1.0" encoding="iso-8859-1"?>
<!-- Generator: Adobe Illustrator 19.2.0, SVG Export Plug-In . SVG Version: 6.00 Build 0)  -->
<svg version="1.1" xmlns="http://www.w3.org/2000/svg" xmlns:xlink="http://www.w3.org/1999/xlink" x="0px" y="0px"
	 viewBox="0 0 53.608 80.19" style="enable-background:new 0 0 53.608 80.19;" xml:space="preserve">
<g id="Signum_x5F_70s">
	<path style="fill-rule:evenodd;clip-rule:evenodd;" d="M52.714,32.779c-0.72-0.102-1.2-0.678-1.679-1.119
		c-1.418-1.312-3.079-2.311-4.678-3.559c-1.456-1.137-3.04-2.389-4.628-3.611c-0.521-0.402-1.256-0.812-1.475-1.271
		c-0.259-0.543-0.332-1.152-0.509-1.627c-1.89-5.082-6.895-9.168-14.29-8.543c-2.462,0.207-4.515,1.02-6.204,2.135
		c-3.306,2.184-5.774,5.588-6.102,10.68c-0.162,2.525,0.553,5.031,1.526,6.865c0.986,1.859,2.212,3.307,3.814,4.525
		c3.114,2.369,6.49,4.672,9.764,7.018c3.205,2.297,6.976,4.365,6.864,9.764c-0.051,2.476-1.213,4.338-2.695,5.695
		c-1.4,1.283-3.643,2.379-6.102,2.238c-2.53-0.145-4.365-1.264-5.747-2.645c-1.38-1.379-2.367-3.297-2.339-6
		c-0.379-0.65-1.12-0.953-1.678-1.373c-1.696-1.279-3.537-2.524-5.289-3.815c-2.242-1.652-4.316-3.818-6-6.104
		c-3.388-4.592-5.762-10.994-4.832-18.865c0.735-6.223,3.391-10.82,6.764-14.494c4.262-4.641,10.239-8.242,18.765-8.644
		c4.937-0.232,9.3,0.957,12.713,2.645c3.538,1.75,6.256,3.858,8.696,6.611c2.318,2.615,4.205,6.086,5.288,10.068
		C53.741,23.312,54.075,28.595,52.714,32.779z"/>
	<path style="fill-rule:evenodd;clip-rule:evenodd;" d="M0.895,47.119c1.197,0.523,2.153,1.465,3.204,2.289
		c0.994,0.779,2.062,1.539,3.102,2.34c1.499,1.15,2.965,2.402,4.577,3.66c0.53,0.414,1.231,0.791,1.475,1.221
		c0.287,0.51,0.317,1.176,0.509,1.678c1.32,3.477,3.913,6.301,7.424,7.73c2.139,0.871,4.536,1.361,7.323,1.018
		c2.428-0.301,4.498-1.273,6.204-2.441c2.803-2.107,4.963-4.855,5.594-8.85c0.698-4.424-0.789-8.455-3.001-10.982
		c-1.102-1.262-2.5-2.195-3.966-3.256c-1.432-1.035-2.85-2.117-4.17-3.051c-2.063-1.459-4.247-2.975-6.306-4.525
		c-0.681-0.514-1.442-1.018-1.983-1.578c-2.068-2.135-3.149-5.732-1.78-9.051c1.153-2.793,3.621-4.904,7.272-5.188
		c2.422-0.188,4.504,0.729,5.899,1.883c1.869,1.545,2.994,3.693,3.102,6.812c1.287,1.145,2.748,2.086,4.17,3.053
		c4.239,2.879,8.227,6.242,10.78,10.883c0.425,0.769,0.722,1.627,1.068,2.541c0.932,2.461,1.906,5.598,2.034,8.799
		c0.148,3.713-0.355,6.832-1.271,9.561c-0.305,0.908-0.571,1.826-0.915,2.695c-1.138,2.875-3.043,5.389-5.086,7.576
		c-2.032,2.178-4.619,3.926-7.271,5.34c-2.716,1.447-6.168,2.408-9.866,2.797c-3.7,0.389-7.809-0.213-11.085-1.322
		c-6.162-2.086-10.676-6.113-13.934-11.34c-1.533-2.459-2.922-5.559-3.56-9.053C-0.208,54.826-0.206,50.648,0.895,47.119z"/>
</g>
<g id="Layer_1">
</g>
</svg>
