<?xml version="1.0" encoding="iso-8859-1"?>
<!-- Generator: Adobe Illustrator 19.2.0, SVG Export Plug-In . SVG Version: 6.00 Build 0)  -->
<svg version="1.1" xmlns="http://www.w3.org/2000/svg" xmlns:xlink="http://www.w3.org/1999/xlink" x="0px" y="0px"
	 viewBox="0 0 77.841 76.129" style="enable-background:new 0 0 77.841 76.129;" xml:space="preserve">
<g id="Silver_x5F_Nightinggale_x5F_Lounge">
	<path style="fill-rule:evenodd;clip-rule:evenodd;" d="M35.594,3.193c0.038,0.389-0.393,0.486-0.255,0.815
		c0.828,0.084,1.686-0.549,2.5-0.866c0.428-0.168,0.889-0.312,1.327-0.46c0.41-0.137,0.889-0.385,1.326-0.203
		c0.112,0.87-0.989,1.21-0.918,2.04c0.652,0.084,0.892-0.651,1.174-1.071c0.321-0.48,0.664-0.934,0.918-1.377
		c0.897-0.354,2.198-0.817,3.316-0.612c0.077,1.777-1.457,2.473-1.888,3.928c0.448,0.121,0.684-0.376,0.918-0.663
		c0.787-0.963,1.38-2.414,2.041-3.57c0.564-0.146,1.325-0.24,2.041-0.307c0.705-0.065,1.491-0.305,1.99,0.051
		c-0.226,0.736-0.659,1.377-1.02,2.041c-1.08,1.98-1.95,4.077-3.214,5.918c-0.44,0.641-0.798,1.267-1.224,1.836
		c-0.831,1.111-2.023,2.04-3.163,2.908c-0.533,0.405-1.259,0.726-1.582,1.428c0.891,0.265,1.173-0.926,2.092-0.969
		c0.341,0.36,0.369,1.137,0.408,1.684c0.222,3.102-0.873,5.861-1.837,7.907c-0.503,1.068-1.048,2.19-1.581,3.315
		c-0.542,1.142-1.033,2.397-1.123,3.725c-0.062,0.918,0.189,1.885,0.051,2.856c-1.283-0.23-1.66-1.367-2.5-2.041
		c-3.469-0.505-5.335-2.309-6.224-5.458c-0.378-1.34-0.615-3.073-0.51-4.643c0.07-1.044,0.34-2.214,0.153-3.315
		c-0.24-1.413-0.973-2.729-1.734-3.775c-0.237-0.326-0.518-0.851-0.969-0.766c-0.104,0.523,0.413,0.864,0.663,1.225
		c0.762,1.1,1.54,2.422,1.428,4.285c-0.489,0.396-1.277,0.471-2.041,0.561c-4.145,0.494-7.553-0.797-10.152-2.449
		c-1.367-0.868-2.881-1.818-4.541-2.652c-0.402-0.202-1.498-0.64-1.53-0.867c-0.057-0.398,1.12-0.933,1.378-1.071
		c0.534-0.288,1.125-0.737,1.683-0.715c0.386,0.017,0.75,0.362,1.173,0.612c0.414,0.246,0.808,0.434,1.122,0.612
		c0.787,0.443,1.535,0.996,2.449,0.816c-0.093-0.503-0.695-0.493-1.071-0.663c-0.467-0.211-0.964-0.512-1.428-0.766
		c-0.446-0.243-0.996-0.546-1.123-0.969c0.158-0.463,0.773-0.499,1.225-0.663c0.473-0.173,0.931-0.448,1.428-0.408
		c1.133,0.091,1.97,1.568,3.163,1.173c-0.292-0.812-1.619-0.592-1.837-1.479c0.296-0.391,1.003-0.425,1.684-0.561
		c0.644-0.128,1.365-0.442,1.888-0.357c0.491,0.079,0.561,0.622,1.021,0.663c0.309-0.406-0.17-0.843-0.357-1.173
		c-0.633-1.116-1.297-2.439-2.04-3.47c-0.739-0.701-1.633-1.398-2.755-1.734c-0.365-0.108-0.842-0.017-1.122-0.356
		c0.278-0.573,1.012-0.865,1.632-1.174c2.589-1.287,5.665-2.141,9.744-1.938c1.615,0.08,3.174,0.523,4.489,1.02
		C33.618,1.558,34.899,2.216,35.594,3.193z M33.196,28.291c0.083,1.158,2.085,0.427,1.173-0.663
		C33.762,27.337,33.156,27.727,33.196,28.291z"/>
	<path style="fill-rule:evenodd;clip-rule:evenodd;" d="M51.867,1.356c1.046,0.587,1.89,1.375,2.55,2.347
		c-0.077,1.154-0.487,2.208-0.663,3.469c-0.081,0.578-0.268,1.322,0.204,1.685c0.531-0.458,0.333-1.474,0.459-2.245
		c0.127-0.775,0.32-1.525,0.664-1.989c0.532,0.102,0.803,0.607,1.122,1.02c0.239,0.31,0.762,0.841,0.816,1.275
		c0.058,0.465-0.156,1.169-0.255,1.684c-0.089,0.46-0.468,1.122,0.051,1.479c0.653-0.333,0.158-1.814,0.816-2.143
		c0.488,0.185,0.826,0.874,1.173,1.48c0.309,0.538,0.858,1.262,0.867,1.785c0.008,0.434-0.396,0.631-0.306,1.071
		c0.578-0.029,0.956-0.618,1.326-1.02c0.393-0.426,0.706-0.925,1.173-1.225c0.648-0.855,1.488-1.733,1.836-2.959
		c0.24-0.845,0.024-1.85,0.204-2.806c0.761,0.071,0.968,0.698,1.479,1.021c0.425,0.391,0.858,0.773,1.173,1.275
		c1.735,1.74,3.048,4.339,3.826,7.243c0.677,2.53,0.904,6.328-0.51,8.469c-0.282,0.2-0.608-0.177-0.867,0
		c-0.131,0.555,0.564,0.684,0.714,1.122c0.341,0.288,0.604,0.655,0.918,0.97c0.476,0.735,1.369,1.314,1.479,2.244
		c-0.736,0.377-1.543-0.491-2.193-0.204c0.112,0.646,0.854,0.639,1.326,0.766c0.567,0.152,1.424,0.201,1.786,0.511
		c0.334,0.285,0.634,0.913,0.918,1.377c0.288,0.47,0.642,1.038,0.663,1.581c-1.502,0.466-3.174-0.826-4.54-0.663
		c0.061,0.502,0.659,0.528,1.021,0.663c0.772,0.29,1.63,0.576,2.602,0.715c0.542,0.077,1.126,0.073,1.53,0.255
		c0.388,0.507,0.664,1.126,0.969,1.734c0.285,0.566,0.658,1.229,0.612,1.939c-0.698,0.071-1.354-0.218-2.041-0.357
		c-2.166-0.439-4.412-0.483-6.428-1.021c-2.677-0.712-4.996-1.646-6.785-3.111c-0.647-0.226-1.047-0.951-1.786-0.918
		c-0.123,0.777,1.555,0.981,1.531,1.684c-0.012,0.354-0.916,0.677-1.429,0.867c-1.75,0.649-3.664,1.013-5.866,0.969
		c-1.424-0.028-2.776-0.218-4.184-0.408c-1.394-0.188-2.787-0.558-4.081-0.459c-0.809,0.062-1.579,0.295-2.295,0.51
		c-0.756,0.228-1.403,0.617-2.041,0.663c-0.144-1.25,0.695-1.956,1.071-2.856c-0.815-6.923,4.337-8.574,9.335-9.896
		c1.45-0.384,2.629-1.05,3.622-2.041c0.471-0.769,1.293-1.189,1.479-2.244c-0.454-0.121-0.666,0.407-0.867,0.663
		c-0.94,1.193-2.054,2.575-3.979,2.856c-0.827-0.86-1.263-2.166-1.683-3.418c-0.439-1.308-0.762-2.838-0.766-4.336
		c-0.008-3.484,1.652-6.749,1.99-9.999c0.036-0.346-0.064-0.724,0.102-0.918C51.743,1.436,51.794,1.384,51.867,1.356z
		 M45.337,28.955c0.652-0.126,0.628-1.531-0.306-1.225C44.301,28.012,44.641,29.088,45.337,28.955z"/>
	<path style="fill-rule:evenodd;clip-rule:evenodd;" d="M19.371,29.108c0.481-0.712-0.453-1.484-0.255-2.244
		c0.922-0.078,1.903,0.199,2.755,0.51c0.852,0.311,1.688,0.687,2.347,1.122c1.502,0.793,2.797,1.794,3.979,2.908
		c2.094,1.875,3.91,4.228,7.142,4.999c0.418,0.1,0.941,0.017,1.326,0.357c-0.365,1.149-1.702,1.097-2.5,1.734
		c-0.476,0.381-0.641,1.026-0.969,1.479c-1.157,1.595-2.991,2.747-5.867,2.755c-1.672,0.004-3.154-0.388-4.591-0.867
		c-1.362-0.454-2.653-1.213-4.132-1.327c-1.303-0.1-2.886,0.164-3.928,0.511c-0.333,0.111-0.812,0.215-0.918,0.663
		c0.405,0.289,1.021-0.102,1.582-0.255c1.239-0.34,3.468-0.738,4.54,0.153c0.055,1.598-0.458,3.187-0.969,4.54
		c-1.292,3.422-4.021,5.727-6.683,7.703c-1.139,0.987-2.166,2.085-3.316,3.061c-0.696-0.698-0.691-2.098-0.868-3.315
		c0.512-0.706,1.283-1.225,1.939-1.837c0.633-0.59,1.465-1.134,1.581-2.092c-0.405-0.06-0.656,0.368-0.867,0.612
		c-0.234,0.273-0.461,0.568-0.714,0.816c-0.514,0.503-1.081,1.063-1.888,1.225c-0.178-0.654-0.446-2.073-0.255-2.704
		c0.275-0.911,2.021-1.452,2.143-2.602c-0.888-0.052-0.942,1.165-1.939,1.173c-0.288-0.462-0.101-1.247-0.051-1.938
		c0.051-0.692,0.021-1.376,0.357-1.786c0.295-0.36,0.652-0.234,0.868-0.663c-0.239-0.482-0.856-0.117-1.225-0.051
		c-1.349,0.24-2.99,0.399-4.081,0.969c-0.683,0.356-1.21,0.767-1.684,1.275c-0.477,0.512-0.788,1.135-1.326,1.582
		c-0.449-0.42-0.603-1.38-0.714-2.144c-0.618-4.259,0.336-8.089,1.938-11.069c1.088-2.024,2.51-3.984,4.438-4.796
		c0.511-0.103,0.372,0.444,0.816,0.408c0.284-0.347,0.142-0.893,0.102-1.377c-0.093-1.124-0.354-2.759,0-3.929
		c0.886,0.169,0.892,1.218,1.684,1.479c0.214-0.641-0.366-1.137-0.714-1.53c-0.387-0.437-0.808-0.856-1.071-1.326
		c0.101-1.175,0.039-2.512,0.51-3.316c0.766,0.259,1.264,0.897,1.734,1.479c0.459,0.569,0.781,1.344,1.479,1.684
		c0.241-0.621-0.395-1.108-0.714-1.53c-0.741-0.977-1.652-1.871-2.449-2.806c0.167-1.381,0.398-2.696,0.918-3.724
		c0.516,0.129,1.106,1.071,1.582,1.53c1.568,1.511,3.325,2.915,4.642,4.54c1.648,1.909,2.794,4.298,3.724,6.988
		C18.922,28.463,18.942,28.991,19.371,29.108z M30.339,39.616c0.814,0.034,0.976-1.469,0-1.377
		C29.389,38.328,29.62,39.586,30.339,39.616z"/>
	<path style="fill-rule:evenodd;clip-rule:evenodd;" d="M63.754,46.555c-0.195-0.662-1.11-0.58-1.734-0.816
		c-0.537-0.203-1.361-0.664-1.938-1.071c-0.429-0.302-1.421-1.015-1.429-1.53c-0.006-0.469,1.071-1.319,1.429-1.633
		c1.666-1.461,3.612-2.524,5.968-3.163c1.706-0.462,3.531-0.627,5.408-0.714c0.963-0.045,1.928-0.104,2.806-0.255
		c0.902-0.155,1.745-0.419,2.551-0.357c0.075,0.69-0.236,1.219-0.51,1.837c-0.164,0.37-0.584,1.254-0.969,1.429
		c-0.378,0.171-0.985,0.07-1.428,0.101c-0.643,0.046-1.343,0.194-1.99,0.306c-0.595,0.104-1.392,0.115-1.632,0.664
		c0.518,0.363,1.336-0.058,2.092-0.204c0.773-0.15,1.661-0.261,2.346,0c-0.198,1.128-0.914,1.738-1.53,2.448
		c-1.064,0.313-2.697,0.058-3.265,0.867c0.516,0.554,1.7-0.417,2.346,0.102c-0.056,0.622-0.607,1.099-1.071,1.633
		c-0.362,0.418-0.844,1.146-1.377,1.275c-0.346,0.083-0.705-0.181-1.072,0.051c0.055,0.479,0.665,0.523,1.072,0.715
		c1.424,0.668,2.954,1.746,4.999,1.734c1.172-0.007,1.973-0.556,3.01-0.663c0.076,0.869-0.432,1.633-0.816,2.295
		c-1.155,1.996-2.515,3.833-4.336,5.204c-2.165,1.884-5.233,3.511-8.927,3.774c-0.58,0.042-1.125-0.006-1.582-0.203
		c-0.207-0.134,0.011-0.692-0.255-0.766c-0.462,0.129-0.657,0.64-0.867,1.019c-0.429,0.776-0.883,1.591-1.429,2.348
		c-0.235,0.324-0.516,0.79-0.969,0.867c-0.456-0.378-0.037-1.631-0.408-2.092c-0.818,0.498-0.19,2.17-0.255,3.163
		c-0.27,0.548-0.629,0.909-1.071,1.429c-0.242,0.284-0.889,1.187-1.327,1.122c-0.56-0.083-0.532-1.37-0.561-2.092
		c-0.036-0.892,0.168-1.926-0.204-2.397c-0.465,0.149-0.394,0.756-0.408,1.122c-0.018,0.471,0.016,0.985,0.051,1.479
		c0.066,0.935,0.465,2.007,0.357,2.652c-0.129,0.771-0.943,0.955-1.377,1.479c-0.445,0.439-1.009,1.031-1.582,1.174
		c-0.41-0.162-0.266-0.755-0.306-1.123c-0.338-3.099-1.526-6.61-1.173-9.998c0.122-1.172,0.371-2.259,0.612-3.316
		c0.234-1.03,0.745-1.99,0.765-3.061c-0.902,0.187-0.493,1.683-1.225,2.04c-0.786-0.319-1.093-1.117-1.581-1.734
		c-2.164-2.584-3.077-6.679-3.622-10.917c-0.208-1.621-0.874-3.075-1.683-4.132c-0.403-0.526-1.017-0.934-1.225-1.633
		c1.053-0.449,2.134,0.226,3.01,0.153c0.426-0.036,0.817-0.323,1.225-0.459c0.668-0.224,1.403-0.411,2.295-0.459
		c2.8-0.152,4.522,1.461,6.071,3.01c0.772,0.772,1.419,1.651,1.99,2.551c1.147,1.806,2.081,3.097,4.081,4.029
		C61.869,46.199,62.761,46.768,63.754,46.555z M48.5,39.77c1.044,0.131,1.03-1.627-0.051-1.326
		C47.668,38.639,47.839,39.687,48.5,39.77z"/>
	<path style="fill-rule:evenodd;clip-rule:evenodd;" d="M39.471,39.004c0.828,0.559,0.511,1.841,0.816,2.857
		c0.139,0.463,0.634,0.786,0.919,1.122c0.968,1.146,1.894,3.203,1.428,5.561c-0.487,2.463-1.858,4.315-3.214,5.969
		c-1.183,1.442-2.399,2.824-2.602,5.458c-0.051,0.659-0.188,1.588,0.357,2.092c0.303-0.373,0.11-1.133,0.153-1.734
		c0.081-1.131,0.559-3.841,1.479-4.03c0.592-0.121,1.603,0.594,2.041,0.867c0.638,0.4,1.21,0.805,1.683,1.174
		c1.085,0.848,2.244,1.797,2.857,2.856c0.452,0.782,0.876,1.648,1.275,2.5c0.804,1.716,1.383,3.587,2.193,5.306
		c0.405,0.857,1.079,1.592,1.225,2.499c-0.414,0.248-1.158,0.091-1.786,0c-1.363-0.195-1.796-0.197-2.245-1.275
		c-0.364-0.876-0.626-1.936-1.122-2.703c-0.196-0.303-0.427-0.705-0.816-0.766c-0.219,0.546,0.372,0.934,0.612,1.378
		c0.417,0.77,0.955,1.663,0.765,2.652c-0.942,0.019-1.828-0.447-2.653-0.714c-0.388-0.368-0.554-0.999-0.816-1.53
		c-0.244-0.495-0.529-1.087-1.02-1.174c-0.155,0.804,0.78,1.224,0.561,2.092c-0.701,0.117-1.32-0.323-1.888-0.562
		c-0.592-0.249-1.224-0.427-1.632-0.867c-0.2-0.241-0.038-0.846-0.357-0.969c-0.487,0.158-0.416,0.851-0.459,1.275
		c-0.144,1.426-0.525,3.206-0.153,4.643c0.158,0.607,0.475,1.104,0.765,1.581c0.297,0.485,0.738,0.89,0.867,1.428
		c-0.976,0.313-2.011,0.027-2.908-0.152c-2.66-0.534-5.164-1.68-7.04-3.061c-2.537-1.868-4.849-4.278-5.56-7.856
		c0.099-0.311,0.607-0.209,0.765-0.46c-0.147-0.43-0.762-0.485-1.173-0.561c-0.478-0.087-0.96-0.189-1.429-0.307
		c-0.936-0.233-1.915-0.366-2.5-0.918c0.23-0.772,1.613-0.393,1.887-1.122c-0.5-0.402-1.119-0.03-1.632,0.153
		c-0.506,0.18-1.06,0.594-1.53,0.612c-0.551,0.021-1.198-0.438-1.684-0.664c-0.552-0.257-1.227-0.368-1.48-0.867
		c0.616-0.803,2.037-1.174,3.163-1.53c0.342-0.107,0.931-0.062,0.918-0.51c-0.417-0.322-0.99-0.018-1.378,0.102
		c-0.418,0.129-0.884,0.246-1.326,0.408c-0.807,0.297-1.632,1.101-2.398,1.123c-0.619,0.018-1.398-0.565-1.939-0.867
		c-0.623-0.35-1.294-0.596-1.581-1.174c0.663-0.49,1.465-0.728,2.193-1.122c0.716-0.389,1.447-0.754,2.194-1.123
		c2.755-1.361,5.496-2.702,9.489-2.907c0.408-0.021,0.907,0.021,1.377,0c0.6-0.027,1.371,0.103,1.734-0.357
		c-0.351-0.585-1.895,0.023-2.347-0.459c0.156-1.018,0.832-1.515,1.275-2.245c0.508-0.648,1.063-1.249,1.632-1.836
		c3.409-3.597,9.688-4.323,11.835-9.183c0.037-0.048,0.092-0.077,0.153-0.103C39.437,39.004,39.454,39.004,39.471,39.004z
		 M39.624,46.299c0.844-0.043,0.836-1.562-0.204-1.326C38.554,45.171,38.852,46.34,39.624,46.299z"/>
</g>
<g id="Layer_1">
</g>
</svg>
