<?xml version="1.0" encoding="iso-8859-1"?>
<!-- Generator: Adobe Illustrator 19.2.0, SVG Export Plug-In . SVG Version: 6.00 Build 0)  -->
<svg version="1.1" xmlns="http://www.w3.org/2000/svg" xmlns:xlink="http://www.w3.org/1999/xlink" x="0px" y="0px"
	 viewBox="0 0 114.257 173.452" style="enable-background:new 0 0 114.257 173.452;" xml:space="preserve">
<g id="Sitcap_x5F_56">
	<path style="fill-rule:evenodd;clip-rule:evenodd;" d="M114.204,57.345c-0.234,0.186-0.494,0.138-0.827,0.146
		c-4.498,0.107-9.116,0-13.781,0c-9.189-0.002-18.629-0.048-27.903-0.049c-4.09,0-7.977,0-12.077,0
		c-0.446,0-1.091-0.163-1.461,0.243c-0.108,0.269-0.036,0.74,0,1.022c0.262,0.381,0.762,0.227,1.12,0.244
		c12.942,0.617,22.846,4.855,30.873,10.567c8.354,5.945,14.874,13.855,19.235,23.569c2.196,4.891,3.805,10.564,4.529,16.898
		c0.76,6.641,0.219,13.658-1.169,19.527c-2.691,11.387-8.232,20.26-15.388,27.416c-3.481,3.48-7.651,6.605-12.223,9.203
		c-4.551,2.586-9.689,4.801-15.388,5.988c-6.043,1.26-12.993,1.746-19.625,0.926c-6.348-0.783-11.711-2.518-16.654-4.723
		c-4.854-2.164-9.239-4.951-13.148-8.279c-6.773-5.766-12.229-12.689-15.973-21.475c-0.268-0.629-0.515-1.262-0.779-1.898
		c-0.279-0.672-0.376-1.373-0.584-2.094c-0.394-1.363-0.845-2.713-1.217-4.141c-1.097-4.203-1.879-8.953-1.656-14.17
		c9.599-0.277,19.68,0.178,29.071-0.049c4.941-0.119,9.81,0.135,14.609,0c3.574-0.1,7.068,0.02,10.713,0
		c1.14-0.006,2.296,0.203,3.409-0.146c0.036-0.359,0.136-0.783,0.049-1.119c-0.042-0.039-0.029-0.133-0.098-0.146
		c-14.092-0.193-24.405-4.324-32.967-10.08c-5.639-3.789-10.465-8.617-14.463-14.219c-1.976-2.769-3.787-5.818-5.259-9.058
		c-1.485-3.268-2.623-6.911-3.555-10.762c-0.961-3.973-1.51-8.177-1.607-12.709c-0.196-9.088,2.101-16.941,4.772-23.715
		c1.338-3.393,3.203-6.368,5.113-9.252c1.911-2.886,4.132-5.594,6.428-7.889C23.638,9.811,32.27,4.465,43.789,1.588
		c2.909-0.727,5.928-1.239,9.301-1.461c10.847-0.715,20.038,1.666,27.367,4.87c3.345,1.462,6.3,3.299,9.155,5.259
		c8.492,5.831,15.076,13.716,19.576,23.569C112.187,40.391,114.319,48.122,114.204,57.345z"/>
</g>
<g id="Layer_1">
</g>
</svg>
