<?xml version="1.0" encoding="iso-8859-1"?>
<!-- Generator: Adobe Illustrator 21.0.2, SVG Export Plug-In . SVG Version: 6.00 Build 0)  -->
<svg version="1.1" xmlns="http://www.w3.org/2000/svg" xmlns:xlink="http://www.w3.org/1999/xlink" x="0px" y="0px"
	 viewBox="0 0 16.855 19.689" style="enable-background:new 0 0 16.855 19.689;" xml:space="preserve">
<g id="Skarsgard_x5F_Construction">
	<path d="M14.337,0.003c0.563,0.002,1.125,0,1.687-0.003c0.044,2.36,0.014,4.722,0.025,7.083c-0.531,0.048-1.065,0.017-1.597,0.026
		c-0.137,0.023-0.133-0.151-0.17-0.239c-0.123-0.494-0.596-0.863-1.108-0.85c-2.102,0.003-4.203,0.02-6.303,0.044
		C5.878,6.137,5.79,7.747,6.774,7.919c1.335,0.079,2.679-0.024,4.018,0.004c1.596-0.058,3.231,0.521,4.359,1.668
		c1.863,1.874,2.287,5.039,0.832,7.274c-0.92,1.61-2.693,2.649-4.531,2.772c-2.138,0.03-4.276,0.041-6.414,0.049
		c-0.12,0.01-0.236-0.026-0.34-0.084C3.131,18.822,1.565,18.038,0,17.253c1.629-0.78,3.228-1.622,4.844-2.431
		c1.857-0.054,3.721-0.038,5.582-0.052c0.363-0.014,0.759,0.061,1.087-0.139c0.528-0.307,0.606-1.147,0.144-1.547
		c-0.276-0.27-0.689-0.255-1.047-0.245c-1.112,0.01-2.223,0.027-3.335,0.025c-1.252,0.043-2.534-0.277-3.575-0.986
		C2.171,10.877,1.164,9.11,1.118,7.28C0.924,4.474,3.072,1.752,5.836,1.257c1.425-0.238,2.882-0.069,4.32-0.144
		c0.028,0.733,0.019,1.466,0.029,2.198c0,0.142,0.163,0.106,0.258,0.107c0.081-0.762,0.017-1.536,0.036-2.303
		c0.256-0.008,0.512-0.005,0.769-0.005c0.005,0.749,0.001,1.499,0.005,2.248c0.086,0.057,0.233,0.113,0.288-0.015
		C11.577,2.6,11.54,1.853,11.573,1.11c0.248-0.004,0.497-0.003,0.745-0.003c0.062,0.75-0.012,1.502,0.028,2.253
		c0.094,0.071,0.202,0.064,0.297-0.001c0.003-0.75,0-1.5,0.003-2.251C13.408,1.246,14.258,0.841,14.337,0.003z"/>
</g>
<g id="Layer_1">
</g>
</svg>
