<svg id="Layer_1" data-name="Layer 1" xmlns="http://www.w3.org/2000/svg" viewBox="0 0 500 500"><title>skotty_logo</title><path d="M500,250c0,138.07-111.93,250-250,250S0,388.07,0,250,111.93,0,250,0,500,111.93,500,250ZM164.85,345.18l83.48,48.2a3.33,3.33,0,0,0,3.33,0l119.28-68.86a8.12,8.12,0,0,0,4.06-7V191.9a8.12,8.12,0,0,0-12.18-7L262.18,243a8.12,8.12,0,0,0,0,14.07l19.07,11,26.26,15.16a3.33,3.33,0,0,1,0,5.77l-22,12.7-33.1,19.11-.73.42a3.33,3.33,0,0,1-3.33,0l-29.1-16.8a8.12,8.12,0,0,0-8.12,0l-16.31,9.42L177.23,324l-12.38,7.14a8.12,8.12,0,0,0,0,14.07Zm170.3-190.35-83.48-48.2a3.34,3.34,0,0,0-3.33,0L129.06,175.49a8.12,8.12,0,0,0-4.06,7V308.1a8.12,8.12,0,0,0,12.18,7L237.82,257a8.12,8.12,0,0,0,0-14.07l-19.07-11L192.49,216.8a3.33,3.33,0,0,1,0-5.77l22-12.71,33.1-19.11.73-.42a3.33,3.33,0,0,1,3.33,0l29.11,16.8a8.11,8.11,0,0,0,8.12,0l16.31-9.41L322.77,176l12.38-7.15a8.12,8.12,0,0,0,0-14.07Z"/></svg>