<?xml version="1.0" encoding="iso-8859-1"?>
<!-- Generator: Adobe Illustrator 21.0.2, SVG Export Plug-In . SVG Version: 6.00 Build 0)  -->
<svg version="1.1" xmlns="http://www.w3.org/2000/svg" xmlns:xlink="http://www.w3.org/1999/xlink" x="0px" y="0px"
	 viewBox="0 0 73.344 37.549" style="enable-background:new 0 0 73.344 37.549;" xml:space="preserve">
<g id="Sky_x5F_Wide_x5F_Open">
	<g>
		<path d="M51.69,0.008c3.293-0.13,6.664,1.353,8.664,3.994c2.015,2.566,2.902,6.066,2.077,9.249
			c-0.359,1.646-1.174,3.159-2.225,4.465c-1.637,1.993-4.072,3.319-6.626,3.656c-3.47,0.506-7.118-0.861-9.432-3.493
			c-1.807-2.087-2.787-4.884-2.683-7.645c0.12-2.009,0.774-3.989,1.892-5.667C45.194,1.836,48.402,0.105,51.69,0.008z"/>
		<path d="M14.65,17.432c2.195-1.282,4.856-1.873,7.367-1.365c4.938,0.765,8.846,5.503,8.776,10.479
			c0.511,0.092,1.03,0.048,1.547,0.058c3.243,0.012,6.489-0.013,9.73,0.065c10.087,0.012,20.17,0.138,30.256,0.149
			c0.339,0.011,0.685-0.03,1.018,0.061c-0.063,2.174-0.688,4.343-1.953,6.129c-1.612,2.218-4.043,3.897-6.773,4.347
			c-3.03,0.609-6.301-0.241-8.667-2.227c-2.145-1.775-3.635-4.371-3.877-7.164c-0.224,0.894-0.383,1.812-0.721,2.673
			c-0.883,2.292-2.613,4.237-4.744,5.446c-3.815,2.197-8.983,1.623-12.221-1.359c-2.319-1.993-3.621-5.01-3.673-8.05
			c-2.525,0.005-5.051,0.014-7.576-0.015c-0.606,0.022-1.212,0.005-1.818,0.007c0.014,3.122-1.465,6.2-3.881,8.174
			c-2.216,1.916-5.271,2.732-8.156,2.368c-0.805-0.165-1.601-0.363-2.382-0.619c-4.096-1.523-6.962-5.75-6.9-10.113
			C3.158,26.47,6.314,26.5,9.47,26.481C9.504,22.843,11.535,19.308,14.65,17.432z"/>
	</g>
</g>
<g id="Layer_1">
</g>
</svg>
