<?xml version="1.0" encoding="iso-8859-1"?>
<!-- Generator: Adobe Illustrator 19.2.0, SVG Export Plug-In . SVG Version: 6.00 Build 0)  -->
<svg version="1.1" xmlns="http://www.w3.org/2000/svg" xmlns:xlink="http://www.w3.org/1999/xlink" x="0px" y="0px"
	 viewBox="0 0 67.911 76.591" style="enable-background:new 0 0 67.911 76.591;" xml:space="preserve">
<g id="Slendaire">
	<path style="fill-rule:evenodd;clip-rule:evenodd;" d="M50.469,4.823c-0.398,1.173-1.93,0.522-2.785,0.342
		c-2.052-0.431-4.192-0.798-6.596-0.977c-3.887-0.29-6.401,1.41-6.401,5.326c0,2.293,1.161,4.675,2.199,6.45
		c1.125,1.924,2.298,3.494,3.518,5.082c1.27,1.652,2.542,3.226,3.958,4.642c1.447,1.447,2.891,2.847,4.349,4.251
		c4.273,4.116,8.873,8.381,12.753,13.095c1.326,1.611,2.6,3.292,3.567,5.033c1.941,3.497,3.788,8.834,2.394,13.877
		c-1.165,4.215-3.89,7.398-7.28,9.919c-1.565,1.163-3.642,2.283-5.668,2.98c-2.161,0.744-4.401,1.359-7.036,1.564
		c-4.092,0.318-8.063-0.125-11.776-0.733c-0.624-0.103-1.209-0.239-1.857-0.294c-0.618-0.052-1.2-0.277-1.808-0.342
		c-0.763-0.081-1.66,0.117-2.541,0.195c-4.157,0.371-8.395,0.651-12.509,1.026c-1.654,0.15-3.291,0.433-4.935,0.293
		c0.067-0.656,0.592-1.165,0.977-1.661c0.782-1.008,1.485-2.053,2.395-3.079c0.298-0.336,1.161-1.09,1.123-1.563
		c-0.036-0.466-1.213-0.912-1.563-1.124c-1.67-1.009-3.157-2.155-4.69-3.225c-0.878-0.756-1.719-1.758-2.59-2.736
		c-0.82-0.922-1.674-2.024-2.052-3.225c-0.749-2.377,0.134-4.801,1.563-5.961c0.207-0.324,1.452-0.585,1.515-1.124
		c0.031-0.267-0.446-0.737-0.733-1.026c-2.03-2.044-3.863-4.218-5.423-6.743c-1.739-2.813-3.634-6.785-1.759-10.457
		c1.342-2.399,3.871-3.694,7.574-3.713c1.17-0.006,2.414-0.125,3.567,0c2.238,0.243,4.509,0.508,6.547,0.977
		c2.067,0.475,3.98,1.13,5.766,1.759c1.841,0.648,3.541,1.467,5.277,2.248c0.86,0.387,1.75,0.758,2.541,1.222
		c3.946,2.31,7.922,4.714,11.336,7.476c2.873,2.324,5.18,4.638,7.427,7.623c1.041,1.383,2.053,2.928,2.883,4.642
		c0.846,1.748,1.466,3.624,1.466,6.059c0,4.605-3.38,7.023-6.597,8.453c-1.645,0.732-3.544,1.414-5.668,1.857
		c-1.36,0.284-3.206,0.576-4.74,0.879c-0.638,0.127-1.253,0.206-1.27,0.587c-0.029,0.632,1.468,0.651,2.248,0.733
		c2.695,0.284,5.297,0.335,8.307,0.195c1.785-0.082,3.477-0.498,4.984-0.928c3.096-0.885,5.344-2.296,7.72-4.056
		c3.208-2.375,6.059-6.075,6.059-11.531c0-3.489-1.427-6.714-2.835-9.04c-2.46-4.065-5.678-7.571-8.746-10.896
		C49.502,33.625,43.897,29,39.474,22.805c-2.537-3.64-6.388-8.409-5.912-15.05c0.211-2.956,2.025-5.639,4.3-6.84
		c0.603-0.318,1.153-0.453,1.759-0.635c1.464-0.441,3.81-0.296,5.424,0c1.18,0.216,2.485,0.947,1.759,2.296
		c-0.106,0.198-0.32,0.387-0.293,0.684c0.068,0.77,2.045,1.067,2.932,1.222C49.804,4.544,50.286,4.455,50.469,4.823z M45.094,1.989
		c-0.525-1.222-2.458,0.09-1.319,0.977C44.468,3.309,45.256,2.936,45.094,1.989z M29.067,65.461
		c-1.91-0.642-3.649-1.568-5.375-2.296c-0.576-0.243-1.207-0.567-1.71-0.879c-2.042-1.268-4.307-2.356-6.303-3.909
		c-1.315-1.023-2.913-2.247-4.3-3.372c-0.444-0.36-1.046-1.064-1.515-1.075c-0.363-0.009-0.807,0.298-1.124,0.488
		c-1.042,0.626-2.045,1.508-2.443,2.541c-0.489,1.268-0.076,2.488,0.391,3.567c0.734,1.694,2.152,3.103,3.42,4.104
		c0.994,0.785,1.824,1.638,2.785,2.248c1.055,0.669,2.07,1.235,3.176,1.857c2.153,1.209,4.39,2.101,6.89,3.127
		c1.153,0.474,2.506,0.78,3.811,1.222c1.273,0.431,2.794,0.894,4.056,0.977c1.107,0.073,2.207-0.106,3.225-0.244
		c1.029-0.14,2.042-0.266,3.03-0.439c6.18-1.086,11.84-1.918,15.245-5.668c1.126-1.241,1.92-3.056,1.661-5.179
		c-0.132-1.085-0.334-2.013-0.635-2.834c-0.3-0.818-0.788-1.517-1.222-2.297c-1.671-3.006-4.007-5.424-6.254-7.671
		c-1.706-1.706-3.669-3.321-5.62-4.789c-0.666-0.501-1.358-1.051-2.052-1.466c-1.402-0.839-2.741-1.87-4.251-2.687
		c-1.485-0.804-2.879-1.795-4.398-2.59c-3.032-1.587-6.225-2.924-9.919-4.007c-2.686-0.787-5.54-1.524-8.698-1.71
		c-1.065-0.063-2.238-0.213-3.371-0.146c-2.916,0.171-5.137,1.066-6.206,2.98c-1.409,2.522-0.037,5.846,1.075,7.867
		c1.27,2.308,2.784,4.273,4.25,5.863c0.399,0.55,0.963,1.164,1.564,1.808c0.386,0.415,1.218,1.468,1.856,1.515
		c0.293,0.021,0.664-0.143,1.026-0.244c1.053-0.293,2.271-0.485,3.274-0.586c1.62-0.163,3.126-0.046,4.837,0.147
		c3.078,0.347,5.495,0.996,8.257,2.101c1.188,0.476,2.426,0.996,3.518,1.613c2.192,1.238,4.261,2.53,5.864,4.495
		c0.696,0.853,1.645,2.068,1.856,3.323c0.219,1.299-0.419,2.293-1.222,2.932C34.715,67.347,31.455,66.263,29.067,65.461z
		 M12.6,54.858c2.884,2.305,5.985,4.431,9.235,6.303c1.913,0.871,3.842,2.024,6.108,2.785c2.213,0.743,4.378,1.87,7.036,1.857
		c1.232-0.006,2.299-0.484,2.687-1.32c0.443-0.954-0.038-2.011-0.538-2.638c-0.616-0.774-1.561-1.437-2.443-2.101
		c-0.636-0.48-1.36-0.911-2.003-1.368c-1.986-1.412-5.095-2.698-7.916-3.518c-2.679-0.779-5.642-1.661-8.648-1.662
		c-0.059,0-0.073,0.042-0.146,0.049c-1.455,0.13-3.283-0.156-4.398,0.44C11.657,54.232,12.212,54.548,12.6,54.858z"/>
</g>
<g id="Layer_1">
</g>
</svg>
