<?xml version="1.0" encoding="iso-8859-1"?>
<!-- Generator: Adobe Illustrator 19.2.0, SVG Export Plug-In . SVG Version: 6.00 Build 0)  -->
<svg version="1.1" xmlns="http://www.w3.org/2000/svg" xmlns:xlink="http://www.w3.org/1999/xlink" x="0px" y="0px"
	 viewBox="0 0 85.577 42.394" style="enable-background:new 0 0 85.577 42.394;" xml:space="preserve">
<g id="Slippstodin">
	<path style="fill-rule:evenodd;clip-rule:evenodd;" d="M16.61,0.058c0.298,3.887-0.098,8.467,0.2,12.353
		c2.261,0.406,5.41-0.074,7.752,0.25c0.265,3.252-0.032,7.066,0.15,10.402c0.722,0.879,1.568,1.635,2.601,2.201
		c0.272-1.133,0.15-2.397,0.15-3.65c0-3.648-0.106-7.695,0.15-11.154c0.727-0.162,2.074-0.162,2.801,0
		c0.183,2.307,0.1,4.855,0.1,7.353c0,2.498-0.118,5.008,0.15,7.252c0.579-0.094,0.944-0.543,1.4-0.9
		c0.349-0.273,1.057-0.65,1.2-1.051c0.232-0.648,0.078-1.809,0.05-2.701c-0.073-2.336-0.051-5.367,0.1-7.701
		c2.32-0.299,5.332,0.096,7.652-0.201c0.346-0.859,0.2-1.934,0.2-2.951c0-3.035-0.082-6.457,0.1-9.352
		c0.669-0.246,2.23-0.236,2.901,0c0.182,3.969-0.115,8.416,0.15,12.303c2.404,0.324,5.179-0.018,7.552,0.301
		c0.258,3.271,0.076,7.105,0.15,10.354c0.655,0.828,1.462,1.506,2.4,2.049c0.353-0.457,0.2-1.123,0.2-1.699
		c0-4.301-0.044-8.828,0.15-12.904c0.781-0.125,2.131-0.289,2.851,0c0.197,4.557-0.052,9.803,0.2,14.555
		c0.615-0.064,0.997-0.572,1.4-0.9c0.409-0.334,0.948-0.59,1.2-1.1c0.091-1.66,0.05-3.467,0.05-5.252c0-1.762-0.12-3.568,0.15-5.102
		c2.336-0.266,5.233,0.031,7.653-0.15c0.337-0.887,0.2-1.973,0.2-3c0-3.111-0.086-6.43,0.1-9.353
		c0.673-0.232,2.06-0.211,2.801-0.051c0.268,0.963,0.15,2.031,0.15,3.102c0,3.063-0.097,6.408,0.05,9.252
		c1.147,0.223,2.479,0.152,3.801,0.15c1.318-0.002,2.692-0.088,3.951,0.1c0.185,2.332,0.1,5.254,0.1,7.754
		c0,0.885-0.155,1.918,0.05,2.6c0.142,0.473,0.889,0.936,1.25,1.25c0.455,0.399,0.848,0.826,1.4,1.051
		c0.34-0.471,0.2-1.125,0.2-1.699c0-4.262-0.109-9.09,0.15-13.154c0.727-0.195,1.992-0.104,2.801-0.051
		c0.246,1.195,0.1,2.465,0.1,3.752c0,3.998,0.18,8.025,0.05,11.902c-0.179,5.334,0.147,10.807-0.2,16.006
		c-0.75,0.154-2.172,0.191-2.851-0.051c-0.164-4.748,0.085-9.984-0.15-14.404c-0.44-0.06-0.686,0.441-0.9,0.699
		c-1.716,2.061-3.509,4.262-5.202,6.402c-1.966,2.488-3.841,5.062-5.952,7.354c-1.188-1.049-2.154-2.367-3.151-3.602
		c-2.488-3.08-5.02-6.158-7.552-9.254c-0.497-0.605-0.943-1.301-1.601-1.75c-0.333,0.992-0.2,2.213-0.2,3.502
		c0,3.574,0.082,7.566-0.1,11.002c-0.671,0.268-2.099,0.184-2.851,0.051c-0.298-4.486,0.098-9.668-0.2-14.154
		c-0.78,0.273-1.117,1.086-1.601,1.65c-0.503,0.588-0.97,1.168-1.45,1.75c-0.938,1.197-1.9,2.369-2.851,3.553
		c-1.627,2.031-3.21,4.137-4.901,6.301c-0.205,0.262-0.605,0.787-0.8,0.801c-0.486,0.035-1.284-1.301-1.65-1.75
		c-3.047-3.74-5.999-7.34-9.053-11.055c-0.518-0.629-0.983-1.291-1.601-1.75c-0.339,0.498-0.193,1.156-0.2,1.75
		c-0.044,4.096,0.115,8.783-0.15,12.805c-0.812,0.055-2.07,0.141-2.801-0.051c-0.207-2.252-0.1-4.764-0.1-7.252
		c0-1.207-0.018-2.4,0-3.602c0.019-1.209,0.105-2.451-0.15-3.551c-0.669,0.414-1.118,1.102-1.601,1.701
		c-2.427,3.016-4.916,6.086-7.352,9.152c-0.966,1.217-1.834,2.533-3.001,3.551c-0.616-0.486-1.12-1.133-1.6-1.75
		c-1.433-1.844-3-3.662-4.452-5.553c-1.056-1.17-2.042-2.426-3.051-3.65c-1.007-1.223-1.775-2.646-3.001-3.65
		c-0.309,0.484-0.2,1.131-0.2,1.699c0,3.029,0,6.248,0,9.353c0,1.232,0.114,2.453-0.15,3.551c-0.861,0.088-2.019,0.057-2.801-0.1
		c-0.195-10.305-0.082-21.014,0.05-31.609c0.77-0.184,2.135-0.148,2.851,0.051c0.064,3.434,0.174,7.309,0.1,11.102
		c-0.023,1.211-0.116,2.398,0.1,3.502c0.547-0.01,0.938-0.522,1.351-0.85c0.409-0.326,0.919-0.637,1.1-1.15
		c0.196-3.272-0.113-7.041,0.15-10.354c2.233-0.375,5.274,0.012,7.703-0.199c0.223-0.746,0.189-1.627,0.2-2.502
		c0.033-2.631,0-5.086,0-8.053c0-0.615-0.09-1.602,0.15-1.799c0.037-0.047,0.091-0.076,0.15-0.102
		C14.862,0.038,15.839-0.055,16.61,0.058z M8.858,15.712c-0.052,1.404-0.146,3.279,0.05,4.601c0.521-0.021,0.852-0.48,1.25-0.801
		c0.795-0.637,1.523-1.195,2.351-1.85c0.613-0.486,1.548-0.988,1.001-2.002C12.202,15.499,10.065,15.337,8.858,15.712z
		 M19.361,15.562c-1.13,0-2.574-0.277-2.651,0.5c0.023,0.611,0.609,0.877,1.001,1.201c1.235,1.025,2.307,2.207,3.701,3
		c0.262-0.574,0.15-1.422,0.15-2.25c0-0.805,0.077-1.678-0.1-2.301C21.011,15.47,20.188,15.562,19.361,15.562z M36.516,15.712
		c-0.268,1.383-0.13,3.258,0,4.701c0.861-0.309,1.539-1.029,2.4-1.75c0.328-0.275,0.731-0.566,1.15-0.9
		c0.618-0.492,1.492-0.951,1.05-2C39.862,15.517,37.843,15.558,36.516,15.712z M44.468,15.712c-0.433,1.205,1.055,1.725,1.7,2.351
		c0.847,0.82,1.63,1.867,2.701,2.301c0.275-1.203,0.186-3.268,0.05-4.553C47.677,15.568,45.854,15.65,44.468,15.712z M63.774,15.863
		c-0.177,0.627-0.1,1.506-0.1,2.35c0,0.822-0.142,1.734,0.2,2.252c0.884-0.324,1.569-1.1,2.351-1.701
		c0.78-0.6,1.673-1.172,2.25-1.949c0.091-0.279,0.084-0.791-0.1-0.951C66.963,15.704,65.136,15.657,63.774,15.863z M71.776,15.812
		c-0.566,0.91,0.461,1.334,0.95,1.752c0.848,0.721,1.544,1.35,2.301,2c0.408,0.35,0.803,0.748,1.3,0.85
		c0.264-1.219,0.197-3.209,0-4.551C75.019,15.667,73.168,15.761,71.776,15.812z M22.312,28.665c0.303-0.371,1.485-1.498,1.451-2
		c-0.035-0.51-1.208-1.229-1.601-1.551c-0.648-0.531-1.147-0.967-1.7-1.449c-1.151-0.951-2.263-1.939-3.451-2.852
		c-0.034,0-0.067,0-0.1,0c-0.072,0.027-0.122,0.078-0.15,0.15c-0.013,4.725-0.213,9.852,0.05,14.254
		c0.452,0.029,0.677-0.586,0.95-0.9C19.2,32.671,20.804,30.519,22.312,28.665z M44.368,21.064c-0.014,4.721-0.248,9.756,0.05,14.205
		c0.466-0.084,0.724-0.57,1-0.9c0.288-0.346,0.611-0.693,0.85-1.051c1.033-1.545,2.241-2.889,3.351-4.301
		c0.567-0.723,1.204-1.414,1.601-2.252c-0.915-1.076-2.106-1.926-3.301-2.949c-0.491-0.422-1.006-0.957-1.601-1.551
		c-0.377-0.377-1.376-1.219-1.851-1.352C44.398,20.927,44.411,21.023,44.368,21.064z M8.208,25.114
		c-0.573,0.449-1.276,0.771-1.601,1.451c1.831,2.568,3.965,4.965,5.902,7.352c0.279,0.344,0.53,0.797,1.001,0.9
		c0.253-2.037,0.15-4.463,0.15-6.852c0-1.779,0-3.605,0-5.301c0-0.533,0.129-1.164-0.2-1.602c-0.003-0.031-0.007-0.058-0.05-0.051
		C11.614,22.195,9.873,23.812,8.208,25.114z M77.428,28.566c0.283-0.353,1.25-1.238,1.2-1.75c-0.024-0.26-0.494-0.576-0.75-0.801
		c-0.912-0.795-1.682-1.492-2.551-2.15c-1.09-0.994-2.25-1.918-3.401-2.851c-0.033,0-0.067,0-0.1,0
		c-0.072,0.029-0.122,0.078-0.15,0.15c-0.094,4.443-0.211,9.642,0,14.205c0.436-0.033,0.724-0.51,1-0.852
		c0.294-0.361,0.585-0.764,0.851-1.1C74.712,31.943,76.157,30.159,77.428,28.566z M37.466,23.864
		c-1.105,0.914-2.365,1.66-3.251,2.75c0.967,1.518,2.167,2.885,3.301,4.252c0.861,1.037,1.707,2.109,2.551,3.101
		c0.274,0.322,0.563,0.76,1,0.9c0.303-3.205,0.107-7.06,0.15-10.453c0.014-1.15,0.111-2.287-0.15-3.301c-0.034,0-0.067,0-0.1,0
		C39.74,21.909,38.613,22.917,37.466,23.864z M68.025,21.364c-1.101,0.879-2.276,1.686-3.351,2.6
		c-1.069,0.912-2.278,1.695-3.201,2.752c1.565,2.231,3.372,4.275,5.052,6.352c0.557,0.688,1.12,1.492,1.851,1.951
		c0.254-3.6,0.15-8.361,0.15-12.504c0-0.666,0.106-1.326-0.35-1.25C68.116,21.288,68.062,21.318,68.025,21.364z"/>
</g>
<g id="Layer_1">
</g>
</svg>
