<?xml version="1.0" encoding="iso-8859-1"?>
<!-- Generator: Adobe Illustrator 19.2.0, SVG Export Plug-In . SVG Version: 6.00 Build 0)  -->
<svg version="1.1" xmlns="http://www.w3.org/2000/svg" xmlns:xlink="http://www.w3.org/1999/xlink" x="0px" y="0px"
	 viewBox="0 0 77.019 75.02" style="enable-background:new 0 0 77.019 75.02;" xml:space="preserve">
<g id="Sobrero">
	<path style="fill-rule:evenodd;clip-rule:evenodd;" d="M69.251,15.039c-0.548-0.352-0.494-1.006-0.682-1.461
		c-0.618-1.504-1.534-2.469-2.972-3.312c-1.744-1.025-3.862-1.764-6.332-2.047c-5.213-0.598-10.54,0.402-13.737,2.631
		c-1.716,1.477-3.852,3.426-2.972,6.43c0.716,2.443,2.762,3.697,5.261,4.531c2.407,0.803,5.334,1.25,8.379,1.412
		c9.201,0.488,16.599,2.983,19.632,9.645c1.011,2.223,1.548,5.336,0.925,8.281c-0.554,2.623-1.768,4.74-3.312,6.432
		c-2.646,2.99-6.625,4.477-11.155,5.602c-4.753,1.18-10.449,0.853-14.857-0.342c-4.369-1.184-8.201-3.061-10.473-6.283
		c-1.153-1.635-2.103-3.689-2.388-5.992c-0.341-2.758-0.089-5.209-1.314-7.063c-3.691-5.578-18.879-5.662-23.578-0.73
		c-0.876,0.92-1.545,2.098-1.655,3.555c-0.118,1.541,0.386,2.863,1.266,3.945c1.499,1.844,4.307,2.666,7.21,3.264
		c2.971,0.613,6.39,0.66,9.45,1.024c5.928,0.705,11.168,3,14.029,6.869c1.528,2.066,2.622,4.717,2.68,7.795
		c0.058,3.106-1.045,5.871-2.484,7.988c-2.771,4.076-7.831,6.352-13.543,7.355c-6.396,1.123-13.134,0.064-17.828-2.096
		c-3.502-1.609-6.352-4.205-7.795-7.891c-0.482-1.234-0.904-2.697-0.779-4.238c0.426-0.373,1.123-0.244,1.754-0.242
		c1.822,0,4.063-0.08,5.748,0.096c0.501,0.32,0.727,1.514,1.023,2.047c1.588,2.865,5.188,3.93,9.012,4.578
		c3.96,0.672,8.449-0.061,11.643-1.314c2.81-1.104,6.362-3.771,4.725-8.037c-1.205-3.141-4.772-4.328-8.671-4.871
		c-3.722-0.521-8.54-0.644-11.983-1.559c-3.814-1.016-6.811-2.182-9.109-4.434c-2.388-2.342-4.052-5.156-4.335-9.207
		c-0.304-4.326,1.702-7.813,3.604-9.84c2.163-2.307,5.198-3.869,8.622-4.969c3.51-1.129,7.525-1.521,11.983-1.268
		c4.08,0.234,7.533,1.443,10.522,3.021c2.987,1.576,5.288,3.939,6.625,6.916c0.895,1.994,0.876,3.783,0.974,5.797
		c0.109,2.25,0.54,3.715,1.657,5.115c1.024,1.285,2.522,1.957,4.188,2.582c1.749,0.656,3.368,1.019,5.554,1.219
		c4.317,0.391,8.299-0.451,11.35-1.998c0.763-0.387,1.476-0.824,2.046-1.363c1.721-1.627,2.405-4.871,0.828-7.453
		c-0.638-1.045-2.006-1.838-3.215-2.387c-1.316-0.6-2.753-0.992-4.287-1.268c-3.183-0.572-6.85-0.535-10.083-1.023
		c-6.09-0.918-11.457-3.104-14.321-7.939c-1.43-2.412-2.209-5.75-1.559-9.012c1.198-6.021,5.315-9.578,10.716-11.545
		c2.86-1.043,6.136-1.797,9.354-1.949c6.044-0.285,11.216,1.219,15.198,3.508c2.945,1.692,5.15,4.045,6.43,7.6
		c0.17,0.469,0.308,1.15,0.487,1.852c0.137,0.527,0.419,1.531,0.098,1.898c-0.354,0.408-3.011,0.211-3.702,0.244
		C71.672,15.203,70.375,15.162,69.251,15.039z"/>
</g>
<g id="Layer_1">
</g>
</svg>
