<?xml version="1.0" encoding="iso-8859-1"?>
<!-- Generator: Adobe Illustrator 19.2.0, SVG Export Plug-In . SVG Version: 6.00 Build 0)  -->
<svg version="1.1" xmlns="http://www.w3.org/2000/svg" xmlns:xlink="http://www.w3.org/1999/xlink" x="0px" y="0px"
	 viewBox="0 0 77.357 59.813" style="enable-background:new 0 0 77.357 59.813;" xml:space="preserve">
<g id="Sociedad_x5F_Bolivariana_x5F_de_x5F_Arquitectos">
	<path style="fill-rule:evenodd;clip-rule:evenodd;" d="M25.62,0.118c0.183,2.877,0.168,5.897,0.203,8.751
		c0.011,0.931-0.193,1.874,0.101,2.731c7.957,0.19,16.419,0.151,24.836,0.152c3.968,0,8.419,0.05,12.393,0.051
		c2.168,0,4.183-0.198,5.817,0.253c1.651,0.456,2.965,1.211,4.098,2.175c2.299,1.957,4.084,4.533,4.249,8.296
		c0.09,2.047,0,4.087,0,6.171c0,2.01,0,4.091,0,6.272c0.001,8.151,0.014,16.767-0.203,24.736c-18.42,0.241-37.758,0-56.097,0
		c-2.643,0-5.275,0.163-7.486-0.455c-4.193-1.172-7.287-3.533-9.611-6.728c-2.274-3.126-3.897-7.443-3.389-12.696
		c0.452-4.67,2.682-8.398,5.311-11.027c2.09-2.09,4.496-3.604,7.739-4.502c1.02-0.283,2.128-0.388,3.238-0.81
		c0.05-0.794,0.141-1.757,0.05-2.529c-1.294-0.352-2.695-0.152-4.097-0.152c-3.964,0-8.414-0.007-12.596-0.152
		c-0.265-0.632-0.151-1.415-0.151-2.175c0-2.166-0.115-4.759,0.151-6.728c5.38-0.319,11.342,0.19,16.744-0.152
		c0.269-0.835,0.152-1.839,0.152-2.883c0-1.961-0.023-3.862,0-5.969c0.008-0.789-0.081-2.275,0.202-2.63
		c0.037-0.047,0.092-0.077,0.152-0.101C20.125,0.082,23.089-0.116,25.62,0.118z M69.122,30.316c0-2.275,0.343-5.748-0.405-7.335
		c-1.065-2.263-3.338-2.125-6.677-2.125c-11.309,0.001-22.033-0.05-33.233-0.05c-0.869,0-1.976-0.161-2.58,0
		c-0.727,0.194-0.395,1.966-0.303,2.63c1.16,0.271,2.383,0.152,3.591,0.152c3.776,0,7.534,0.001,11.28,0
		c4.973,0,9.994-0.127,14.821,0.101c1.301,0.062,2.308,0.14,3.339,0.405c2.923,0.753,5.078,2.474,6.677,4.603
		c2.154,2.87,3.421,7.148,1.821,11.685c-1.274,3.613-3.922,6.207-7.436,7.587c-1.886,0.741-4.135,0.759-6.728,0.759
		c-7.127,0-14.696-0.038-22.004-0.05c-3.572-0.006-7.419-0.184-10.876-0.051c-1.212,0.047-2.434,0.191-3.591-0.101
		c-0.11-4.696-0.02-9.432,0-13.759c0.002-0.587,0.08-1.262-0.203-1.771c-1.666,0.063-3.092,0.874-4.199,1.771
		c-2.221,1.8-3.861,4.662-3.439,8.549c0.435,4.008,2.963,6.61,6.222,7.739c1.928,0.668,4.542,0.542,7.284,0.607
		C27.212,51.774,33,51.44,37.963,51.612c5.049,0.175,10.279,0.05,15.478,0.051c3.914,0,7.938-0.001,11.786,0
		c1.278,0,2.571,0.162,3.743-0.101C69.158,44.814,69.122,37.518,69.122,30.316z M52.834,40.231c1.311,0,2.725,0.085,3.743-0.202
		c1.147-0.324,2.174-1.267,2.58-2.428c0.775-2.216-0.715-4.069-2.225-4.603c-0.792-0.28-2.405-0.195-3.743-0.202
		c-7.913-0.043-15.378,0.032-23.016-0.051c-1.293-0.014-3.049-0.171-4.047,0c-0.611,0.105-0.354,2.679-0.354,3.541
		c0,1.338-0.116,2.861,0.152,3.794C34.512,40.205,44.198,40.231,52.834,40.231z"/>
</g>
<g id="Layer_1">
</g>
</svg>
