<?xml version="1.0" encoding="iso-8859-1"?>
<!-- Generator: Adobe Illustrator 19.2.0, SVG Export Plug-In . SVG Version: 6.00 Build 0)  -->
<svg version="1.1" xmlns="http://www.w3.org/2000/svg" xmlns:xlink="http://www.w3.org/1999/xlink" x="0px" y="0px"
	 viewBox="0 0 89.052 67.517" style="enable-background:new 0 0 89.052 67.517;" xml:space="preserve">
<g id="Society_x5F_of_x5F_Graphic_x5F_Designers_x5F_of_x5F_Canada_x5F_68">
	<path style="fill-rule:evenodd;clip-rule:evenodd;" d="M43.082,0.164c0.006,0.503-0.481,0.845-0.78,1.143
		C32.565,11.045,22.815,20.794,12.99,30.62c-0.292,0.293-0.587,0.64-0.987,1.04c-0.362,0.362-0.934,0.718-0.936,1.04
		c-0.002,0.385,1.036,1.244,1.352,1.559c5.328,5.329,10.371,10.522,15.747,15.799c1.318,1.294,2.895,2.746,4.366,4.262
		c0.416,0.428,1.05,1.34,1.507,1.352c0.475,0.012,1.125-0.917,1.507-1.299c1.378-1.378,2.851-2.799,4.158-4.106
		c1.87-1.869,3.753-3.516,5.405-5.665c-1.055-1.45-2.287-2.65-3.638-4.002c-0.319-0.318-1.17-0.908-1.195-1.299
		c-0.029-0.449,0.82-1.028,1.195-1.403c2.955-2.955,5.931-6.317,8.991-8.991c0.778,0.543,1.416,1.26,2.079,1.923
		c1.963,1.964,3.978,3.978,5.977,5.977c2.659,2.66,5.344,5.293,7.9,8.056c-0.76,1.118-1.814,1.969-2.754,2.91
		c-5.6,5.6-11.187,11.238-16.891,16.943c-0.412,0.412-0.906,0.887-1.403,1.403c-0.447,0.464-1.079,1.181-1.507,1.3
		c-0.626,0.173-1.703,0-2.702,0c-4.677,0-9.235-0.052-13.825-0.052c-1.849,0-3.856,0.238-5.509-0.052
		c-0.535-0.094-1.048-0.782-1.559-1.299c-5.934-5.998-11.711-11.71-17.671-17.67c-0.408-0.408-0.858-0.842-1.299-1.403
		c-0.437-0.558-1.074-1.025-1.195-1.507c-0.185-0.735-0.052-1.817-0.052-2.807c0-6,0-11.621,0-17.567
		c0-1.015-0.139-2.126,0.052-2.858c0.118-0.45,0.79-1.103,1.195-1.559c1.247-1.402,2.822-2.822,4.106-4.106
		c1.88-1.88,3.6-3.696,5.405-5.509c2.972-3.033,6.294-6.397,9.511-9.615c0.475-0.475,1.025-1.253,1.611-1.351
		c0.803-0.135,1.799,0,2.703,0C30.822,0.06,37.067,0.028,43.082,0.164z"/>
	<path style="fill-rule:evenodd;clip-rule:evenodd;" d="M45.837,67.364c0.006-0.541,0.562-0.822,0.883-1.144
		c9.355-9.355,18.825-18.825,28.221-28.221c0.699-0.698,1.443-1.351,2.131-2.079c0.674-0.712,1.454-1.341,1.975-2.183
		c-0.776-1.062-1.796-1.953-2.755-2.911c-6.129-6.13-12.088-12.255-18.398-18.398c-0.424-0.413-1.007-1.337-1.455-1.351
		c-0.456-0.015-1.238,0.978-1.611,1.351c-3.419,3.42-6.847,6.775-10.135,10.239c0.6,1.115,1.677,1.753,2.443,2.703
		c0.418,0.419,0.809,0.861,1.247,1.299c0.263,0.262,1.196,0.887,1.196,1.351c0,0.359-0.94,1.149-1.196,1.403
		c-2.933,2.934-6.032,6.288-8.991,8.939c-1.556-1.131-2.74-2.677-4.158-4.002c-3.338-3.436-6.774-6.774-10.083-10.238
		c-0.269-0.244-0.641-0.574-1.04-0.988c-0.255-0.266-0.924-0.74-0.935-1.091c-0.018-0.532,1.569-1.83,1.923-2.183
		c4.705-4.706,9.724-9.745,14.344-14.292c1.053-1.31,2.869-2.573,4.106-4.054c0.552-0.661,0.785-1.277,1.559-1.403
		c0.791-0.129,1.795,0.052,2.754,0.052c6.287,0,13.037,0,19.282,0c3.795,3.55,7.397,7.293,11.07,10.966
		c3.664,3.665,7.349,7.308,10.81,11.174c0.054,7.573,0.019,15.63-0.052,23.388c-0.25,0.612-0.79,1.05-1.247,1.507
		c-3.107,3.107-6.204,6.417-9.459,9.459c-3.129,3.242-6.176,6.228-9.459,9.511c-0.431,0.431-0.977,1.113-1.455,1.248
		c-0.679,0.19-1.769,0.052-2.703,0.052C58.467,67.468,51.814,67.553,45.837,67.364z"/>
</g>
<g id="Layer_1">
</g>
</svg>
