<?xml version="1.0" encoding="iso-8859-1"?>
<!-- Generator: Adobe Illustrator 21.0.2, SVG Export Plug-In . SVG Version: 6.00 Build 0)  -->
<svg version="1.1" xmlns="http://www.w3.org/2000/svg" xmlns:xlink="http://www.w3.org/1999/xlink" x="0px" y="0px"
	 viewBox="0 0 16.409 21.438" style="enable-background:new 0 0 16.409 21.438;" xml:space="preserve">
<g id="Sofia_x5F_Zoo">
	<path d="M2.414,0.001C3.077,0.008,3.74,0,4.403,0.005C4.79,0.714,5.176,1.424,5.566,2.132c0.516-0.007,1.031,0.003,1.547-0.004
		C7.099,1.419,7.118,0.71,7.103,0c0.634,0.006,1.268,0.004,1.902,0.002C9.001,0.71,9.008,1.419,9,2.128
		c0.511,0.008,1.022-0.003,1.533,0.006c0.392-0.706,0.774-1.42,1.163-2.128C12.363,0,13.03,0.004,13.697,0.004
		c-0.154,0.237-0.27,0.495-0.403,0.743C12.645,2,11.986,3.248,11.339,4.502C9.181,4.493,7.022,4.49,4.864,4.503
		C4.572,3.933,4.247,3.382,3.948,2.815C3.434,1.878,2.932,0.935,2.414,0.001z"/>
	<path d="M3.941,5.473c0.278-0.076,0.563-0.119,0.847-0.166C4.793,5.593,4.78,5.879,4.804,6.164c0.023,0.964-0.023,1.93,0.026,2.894
		c0.002,0.57-0.001,1.14,0.001,1.71c-0.034,1.513,0.648,3.023,1.795,4.007c1.021,0.902,2.388,1.392,3.75,1.343
		c0.003,1.769,0,3.539,0.001,5.309c-1.61-0.012-3.221-0.014-4.83,0c-0.002-1.768,0.01-3.537-0.007-5.305
		c-0.23-0.028-0.462-0.014-0.692-0.013c-0.029,0.202-0.018,0.407-0.017,0.611c0,1.567-0.002,3.135,0.001,4.702
		c-1.61-0.005-3.22-0.004-4.83,0c-0.001-3.327,0-6.653,0-9.98c0.008-0.663-0.043-1.336,0.113-1.986
		c0.209-0.997,0.737-1.913,1.453-2.633C2.234,6.189,3.05,5.707,3.941,5.473z"/>
	<path d="M5.544,5.284c1.784,0.012,3.568,0.002,5.352,0.005c0.878-0.027,1.763,0.161,2.549,0.554
		c1.458,0.707,2.563,2.115,2.865,3.712c0.08,0.399,0.104,0.807,0.098,1.214c-0.001,1.342,0,2.684-0.001,4.026
		c-0.936-0.36-1.869-0.724-2.802-1.091c-0.881-0.338-1.765-0.671-2.637-1.031c0.002,0.781,0.004,1.563-0.002,2.344
		c1.813,0.012,3.626,0.006,5.439,0.004c0.004,1.256,0.003,2.512,0.001,3.769c0.002,0.846-0.444,1.671-1.14,2.148
		c-0.823,0.59-1.979,0.667-2.87,0.184c-0.699-0.359-1.242-1.034-1.393-1.81c-0.125-0.606-0.043-1.26,0.263-1.801
		c0.343-0.635,0.949-1.124,1.647-1.31c0.223-0.065,0.454-0.092,0.684-0.113c-0.005,0.671-0.006,1.343,0,2.015
		c-0.254,0.06-0.493,0.233-0.565,0.493c-0.123,0.4,0.242,0.85,0.657,0.823c0.285,0.008,0.547-0.206,0.62-0.477
		c0.055-0.201,0.029-0.412,0.034-0.618c0.003-0.965-0.006-1.929,0.005-2.894c-1.376-0.018-2.752,0.003-4.128-0.01
		c-0.9-0.011-1.806-0.247-2.562-0.744c-1.241-0.777-2.068-2.181-2.109-3.65C5.543,9.112,5.555,7.198,5.544,5.284z M13.452,9.956
		c-0.295,0.116-0.514,0.436-0.448,0.758c0.062,0.4,0.526,0.681,0.906,0.536c0.341-0.098,0.569-0.496,0.452-0.837
		C14.259,10.035,13.816,9.815,13.452,9.956z"/>
</g>
<g id="Layer_1">
</g>
</svg>
