<?xml version="1.0" encoding="iso-8859-1"?>
<!-- Generator: Adobe Illustrator 19.2.0, SVG Export Plug-In . SVG Version: 6.00 Build 0)  -->
<svg version="1.1" xmlns="http://www.w3.org/2000/svg" xmlns:xlink="http://www.w3.org/1999/xlink" x="0px" y="0px"
	 viewBox="0 0 75.85 75.997" style="enable-background:new 0 0 75.85 75.997;" xml:space="preserve">
<g id="Sogien_x5F_Japan">
	<path style="fill-rule:evenodd;clip-rule:evenodd;" d="M36.899,0c0.399,0.076-0.017,0.505-0.147,0.684
		c-0.178,0.245-0.428,0.522-0.587,0.636c-2.759,3.424-5.07,7.433-6.255,12.414c-1.325,5.568-0.484,11.912,1.124,16.274
		c0.884,2.398,1.948,4.225,3.177,6.158c1.187,1.867,2.819,3.338,4.105,5.229c1.229,1.808,2.351,3.849,3.128,6.207
		c0.763,2.315,1.443,4.965,1.466,7.869c0.059,7.462-2.706,12.99-6.158,17.252c-0.38,0.469-1.154,1.538-1.76,1.564
		c-0.641,0.027-1.97-1.644-2.395-2.053c-2.271-2.188-4.431-4.578-6.598-6.745c-4.551-4.55-8.691-9.012-13.098-13.587
		c-0.722-0.749-1.425-1.53-2.15-2.297c-2.139-2.263-4.416-4.47-6.549-6.794c-0.709-0.773-1.485-1.462-2.199-2.248
		C1.306,39.795,0.456,39.093,0,38.121c0.069-0.563,0.491-1.08,0.88-1.466c2.702-2.687,5.384-5.53,8.113-8.26
		c1.557-1.557,3.004-3.217,4.545-4.789c4.595-4.688,9.101-9.556,13.831-14.173c3.148-3.073,5.942-6.506,9.335-9.335
		C36.736,0.032,36.808,0.007,36.899,0z"/>
	<path style="fill-rule:evenodd;clip-rule:evenodd;" d="M75.85,38.169c-0.507,1.04-1.459,1.752-2.248,2.542
		c-3.952,3.953-8.087,7.843-12.071,11.827c-2.392,2.392-4.825,4.678-7.233,7.086c-0.793,0.793-1.521,1.686-2.346,2.444
		c-1.643,1.511-3.263,3.117-4.838,4.692c-2.392,2.392-4.776,4.774-7.282,7.086c-0.814,0.751-1.507,1.741-2.59,2.15
		c-0.103-0.456,0.366-0.718,0.586-0.978c1.716-2.016,3.223-4.207,4.496-6.793c1.432-2.907,2.303-6.177,2.639-10.263
		c0.677-8.231-2.516-15.045-6.158-19.451c-0.999-1.208-1.973-2.373-2.883-3.617c-0.915-1.25-1.629-2.643-2.297-4.154
		c-1.311-2.965-2.265-6.388-2.199-10.703c0.062-4.06,0.977-7.54,2.297-10.606C35.001,6.459,36.786,3.895,39,1.809
		c0.47-0.381,1.071,0.452,1.515,0.879c3.91,3.767,7.603,7.648,11.485,11.388c0.197,0.189,0.422,0.345,0.586,0.537
		c0.173,0.204,0.253,0.465,0.44,0.685c0.336,0.394,0.81,0.728,1.173,1.124c1.059,1.153,2.329,2.246,3.421,3.421
		c2.957,3.183,6.173,6.075,9.188,9.09c2.283,2.284,4.539,4.595,6.939,6.793C74.53,36.441,75.323,37.243,75.85,38.169z"/>
</g>
<g id="Layer_1">
</g>
</svg>
