<?xml version="1.0" encoding="iso-8859-1"?>
<!-- Generator: Adobe Illustrator 19.2.0, SVG Export Plug-In . SVG Version: 6.00 Build 0)  -->
<svg version="1.1" xmlns="http://www.w3.org/2000/svg" xmlns:xlink="http://www.w3.org/1999/xlink" x="0px" y="0px"
	 viewBox="0 0 90.258 43.136" style="enable-background:new 0 0 90.258 43.136;" xml:space="preserve">
<g id="someron_x5F_kutomo">
	<path style="fill-rule:evenodd;clip-rule:evenodd;" d="M22.073,0.031c6.388-0.343,11.229,2.203,14.532,5.27
		c1.627,1.511,3.347,3.436,4.247,5.68c0.952,2.37,1.852,4.765,1.996,7.881c0.294,6.334-2.049,11.232-5.117,14.583
		c-1.548,1.691-3.471,3.116-5.73,4.146c-2.277,1.037-4.777,1.918-7.829,2.047c-6.282,0.266-11.269-2.077-14.533-5.271
		c-3.363-3.291-5.951-7.419-6.242-13.56c-0.303-6.378,2.31-11.008,5.27-14.431c1.46-1.687,3.429-3.228,5.629-4.247
		C16.566,1.078,19.012,0.195,22.073,0.031z M21.766,2.386c-3.534,0.272-6.181,1.496-8.392,3.018
		c-3.57,2.458-6.704,6.504-7.472,11.667c-0.752,5.066,0.586,9.256,2.661,12.332c3.062,4.539,7.626,8.009,14.993,7.932
		c2.377-0.025,4.478-0.552,6.345-1.279c3.53-1.375,6.412-4.146,8.239-7.061c1.924-3.069,3.231-7.824,2.251-12.333
		c-0.903-4.162-2.743-7.327-5.526-9.773C31.694,4.213,27.791,1.922,21.766,2.386z"/>
	<path style="fill-rule:evenodd;clip-rule:evenodd;" d="M90.079,24.439c-0.509,0.166-1.64,0.166-2.148,0
		c-0.029-3.124-0.45-5.791-1.331-8.136c-1.744-4.645-4.474-8.138-8.494-10.644c-1.979-1.234-4.276-2.293-6.754-2.815
		C65.294,1.57,59.54,3.321,55.897,5.711c-3.906,2.562-6.7,6.053-8.341,10.746c-0.909,2.602-1.09,5.294-1.587,7.982
		c-0.731,3.959-2.484,7.136-4.554,9.825c-2.035,2.644-4.646,4.95-7.829,6.447c-2.113,0.994-4.61,1.954-7.317,2.251
		c-2.86,0.314-6.04,0.193-8.75-0.511c-5.021-1.305-8.866-3.845-11.821-7.267C2.349,31.32-0.249,26.43,0.019,19.118
		c0.459-0.264,1.713-0.199,2.251-0.051c-0.001,5.61,1.657,9.826,4.145,13.15c2.51,3.353,5.729,5.975,9.978,7.368
		c4.828,1.584,10.283,1.35,14.686-0.46c1.973-0.811,3.896-1.886,5.476-3.224c1.547-1.312,3.008-2.762,4.094-4.555
		c0.433-0.714,0.793-1.564,1.177-2.353c1.145-2.349,1.833-5.2,2.201-8.29c0.481-4.058,1.991-7.356,3.786-10.183
		c1.848-2.91,4.078-5.039,7.062-6.96c2.76-1.776,6.518-3.335,10.644-3.53c6.064-0.286,11.031,1.521,14.584,3.94
		c1.226,0.835,2.249,1.84,3.274,2.865c3.535,3.535,6.266,8.138,6.806,14.737C90.256,22.488,90.344,23.495,90.079,24.439z"/>
	<path style="fill-rule:evenodd;clip-rule:evenodd;" d="M82.25,36.106c-1.989,2.33-4.245,4.074-7.215,5.373
		c-2.888,1.264-6.632,2.072-10.694,1.433c-6.769-1.066-11.945-5.023-14.789-10.337c-1.498-2.801-2.422-6.577-2.251-10.336
		c0.17-3.735,1.427-6.946,3.07-9.467c3.269-5.012,8.283-8.925,15.761-9.364c4.744-0.277,8.432,1.244,11.411,3.07
		c3.14,1.925,5.264,4.442,6.959,7.522c1.75,3.18,2.683,7.364,2.148,12.025C86.173,30.192,84.229,33.332,82.25,36.106z M63.009,6.325
		c-3.619,0.897-6.22,2.638-8.34,4.759c-1.476,1.476-2.653,3.067-3.531,5.22c-0.84,2.058-1.629,4.492-1.587,7.164
		c0.086,5.39,2.417,9.568,5.22,12.229c2.995,2.843,6.892,5.065,12.435,5.066c5.39,0,9.487-2.17,12.383-5.066
		c1.12-1.12,2.065-2.397,2.815-3.735c0.273-0.488,0.376-1.004,0.613-1.586c0.861-2.113,1.546-4.307,1.536-7.216
		c-0.008-2.061-0.427-3.968-0.973-5.526c-0.352-1.004-0.787-2.182-1.279-3.07c-0.782-1.411-1.786-2.575-2.917-3.684
		c-2.749-2.694-7.138-5.224-12.435-5.066C65.581,5.853,64.239,6.02,63.009,6.325z"/>
</g>
<g id="Layer_1">
</g>
</svg>
