<?xml version="1.0" encoding="iso-8859-1"?>
<!-- Generator: Adobe Illustrator 19.2.0, SVG Export Plug-In . SVG Version: 6.00 Build 0)  -->
<svg version="1.1" xmlns="http://www.w3.org/2000/svg" xmlns:xlink="http://www.w3.org/1999/xlink" x="0px" y="0px"
	 viewBox="0 0 73.567 75.109" style="enable-background:new 0 0 73.567 75.109;" xml:space="preserve">
<g id="South_x5F_Shore_x5F_Plaza">
	<path style="fill-rule:evenodd;clip-rule:evenodd;" d="M70.729,23.122c-0.574-0.09-0.925-0.739-1.26-1.211
		c-0.359-0.506-0.703-1.064-1.018-1.551c-2.683-3.704-5.585-6.971-9.933-9.206c-1.99-1.022-4.431-1.89-7.026-2.519
		c-1.295-0.314-2.721-0.432-4.215-0.582c-7.71-0.77-14.629,0.948-19.672,3.682c-1.97,1.068-3.816,2.454-5.523,4.022
		c-1.524,1.398-3.499,3.383-3.828,5.717c-0.353,2.506,1.852,3.986,4.264,3.634c1.589-0.232,2.998-0.853,4.264-1.405
		c2.673-1.167,5.288-2.419,7.801-3.537c5.047-2.245,11.81-4.214,19.09-3.149c1.536,0.225,3.073,0.731,4.506,1.211
		c4.285,1.434,7.616,3.724,10.078,6.929c1.636,2.129,3.089,4.517,4.07,7.316c0.97,2.769,1.495,6.268,1.115,10.03
		c-0.154,1.519-0.518,3.042-1.018,4.312c-0.15,0.382-0.292,0.876-0.678,1.066c-0.33-0.438,0.141-1.529,0.194-2.132
		c0.312-3.579-0.587-6.391-1.696-8.721c-1.104-2.317-2.54-4.526-4.36-6.008c-3.621-2.949-9.086-5.242-15.893-4.264
		c-3.021,0.434-5.746,1.041-8.286,2.083c-2.502,1.027-4.931,2.012-7.365,3.004c-3.771,1.537-7.029,3.157-11.047,4.506
		c-1.312,0.44-2.705,0.84-4.119,1.066c-5.04,0.805-9.081-0.983-11.483-3.586c-0.76-0.824-1.439-2.158-1.89-3.295
		c-1.039-2.623-1.323-5.857-0.727-8.867c0.576-2.907,1.525-5.519,2.859-7.51C9.38,12,11.029,10.288,12.731,8.587
		C17,4.319,22.9,1.472,30.513,0.447c0.76-0.103,1.514-0.207,2.326-0.291c5.55-0.573,10.896,0.52,15.263,1.841
		c1.921,0.582,3.693,1.194,5.281,2.035c4.778,2.531,8.872,5.718,12.113,9.836c1.597,2.028,3.026,4.214,4.312,6.638
		C70.228,21.297,70.838,22.133,70.729,23.122z"/>
	<path style="fill-rule:evenodd;clip-rule:evenodd;" d="M0.569,31.408c0.346-0.015,0.318,1.21,0.339,1.454
		c0.315,3.582,1.637,6.646,3.392,8.77c2.07,2.503,4.885,4.393,8.382,5.523c3.528,1.141,8.174,1.253,12.404,0.533
		c3.862-0.658,7.239-2.075,10.417-3.44c3.126-1.342,6.277-2.937,9.642-4.264c3.248-1.281,7.065-2.448,11.677-1.696
		c3.796,0.619,6.822,2.562,8.818,5.087c1.992,2.519,3.307,6.358,2.423,10.854c-0.727,3.692-2.588,6.706-4.651,9.254
		c-4.186,5.168-10.061,8.468-17.346,10.466c-3.712,1.018-7.978,1.437-12.404,0.969c-4.04-0.427-7.56-1.687-10.902-3.004
		c-3.244-1.278-6.224-3.086-8.818-5.039c-2.679-2.017-5.048-4.261-6.832-7.074c-0.448-0.706-1.024-1.325-1.454-2.035
		c-1.289-2.13-2.413-4.533-3.198-7.17c0.539,0.241,0.759,0.971,1.066,1.55c0.315,0.595,0.72,1.171,0.969,1.744
		c0.727,1.065,1.307,2.278,2.181,3.198c1.289,1.83,2.968,3.356,4.748,4.7c2.642,1.994,5.829,3.778,9.352,4.845
		c3.546,1.075,7.613,1.855,12.355,1.356c5.623-0.592,9.962-2.597,13.857-5.039c2.848-1.785,5.624-3.647,7.559-6.589
		c0.628-0.957,1.293-2.11,1.308-3.392c0.019-1.622-1.165-2.731-2.326-3.101c-1.395-0.445-3.372,0.022-4.797,0.436
		c-1.551,0.451-2.839,0.981-4.119,1.502c-5.448,2.22-10.132,4.562-16.571,5.814c-3.226,0.627-6.489,0.935-9.981,0.242
		c-1.473-0.292-2.856-0.874-4.215-1.405c-4.01-1.568-7.04-4.192-9.4-7.365c-1.548-2.082-2.751-4.609-3.586-7.607
		c-0.806-2.895-1.232-6.494-0.436-9.933C0.452,31.484,0.5,31.435,0.569,31.408z"/>
</g>
<g id="Layer_1">
</g>
</svg>
