<?xml version="1.0" encoding="iso-8859-1"?>
<!-- Generator: Adobe Illustrator 21.0.2, SVG Export Plug-In . SVG Version: 6.00 Build 0)  -->
<svg version="1.1" xmlns="http://www.w3.org/2000/svg" xmlns:xlink="http://www.w3.org/1999/xlink" x="0px" y="0px"
	 viewBox="0 0 12.291 13.29" style="enable-background:new 0 0 12.291 13.29;" xml:space="preserve">
<g id="Southern_x5F_Pipeline">
	<path d="M0.414,1.158C0.873,0.455,1.689-0.001,2.531,0c1.574,0.001,3.149,0,4.723,0c0.894,0.029,1.772,0.301,2.54,0.758
		c0.038,0.026,0.078,0.053,0.118,0.078c0.562,0.368,1.065,0.835,1.444,1.392c0.052,0.079,0.108,0.155,0.158,0.236
		c0.042,0.063,0.08,0.13,0.117,0.198c0.851,1.471,0.877,3.367,0.097,4.873c-0.08,0.146-0.156,0.295-0.254,0.43
		c-0.374,0.59-0.877,1.094-1.451,1.491C9.85,9.582,9.658,9.679,9.474,9.789c-0.58,0.29-1.209,0.484-1.855,0.553
		c-0.633,0.057-1.269,0.021-1.904,0.031c-0.774,0-1.547,0-2.321,0c0,0.971,0.002,1.943-0.001,2.913
		c-1.029-0.002-2.058-0.011-3.086,0.004c0.007-1.791,0.005-3.583,0.001-5.374c1.854,0.012,3.709,0.002,5.563,0.005
		c0.37-0.006,0.745,0.024,1.11-0.055C7.854,7.707,8.61,7.084,8.973,6.282c0.22-0.502,0.295-1.072,0.182-1.61
		c-0.14-0.745-0.612-1.417-1.258-1.81C7.518,2.619,7.069,2.489,6.623,2.45C5.481,2.44,4.34,2.456,3.198,2.442
		c0,0.07,0,0.139,0,0.209c1.089-0.013,2.177-0.002,3.266-0.006c0.875-0.007,1.732,0.48,2.176,1.233
		c0.428,0.684,0.479,1.579,0.158,2.316C8.766,6.262,8.732,6.33,8.698,6.397c-0.43,0.772-1.267,1.307-2.157,1.325
		c-2.034,0.004-4.069,0-6.103,0.002c-0.04,0.002-0.08,0.007-0.12,0.014c-0.021-0.816,0.002-1.634-0.012-2.45
		C2.188,5.3,4.071,5.289,5.953,5.293c-0.003-0.067-0.005-0.133-0.006-0.2C4.808,5.1,3.669,5.096,2.531,5.095
		c-0.881-0.004-1.734-0.5-2.179-1.259c-0.055-0.104-0.11-0.208-0.156-0.316c-0.233-0.542-0.259-1.172-0.078-1.732
		c0.007-0.039,0.02-0.077,0.038-0.112c0.034-0.081,0.066-0.163,0.099-0.244C0.31,1.341,0.36,1.248,0.414,1.158z"/>
</g>
<g id="Layer_1">
</g>
</svg>
