<?xml version="1.0" encoding="iso-8859-1"?>
<!-- Generator: Adobe Illustrator 19.2.0, SVG Export Plug-In . SVG Version: 6.00 Build 0)  -->
<svg version="1.1" xmlns="http://www.w3.org/2000/svg" xmlns:xlink="http://www.w3.org/1999/xlink" x="0px" y="0px"
	 viewBox="0 0 76.6 46.302" style="enable-background:new 0 0 76.6 46.302;" xml:space="preserve">
<g id="Spanplattenwerk_x5F_Fideris">
	<path style="fill-rule:evenodd;clip-rule:evenodd;" d="M76.344,0.119C76.6,3.866,76.487,7.69,76.487,11.54
		c0.001,11.398,0.217,23.133,0.048,34.41c-3.768,0.223-7.769,0.085-11.565,0.143c-1.272,0.02-2.58,0.101-3.775-0.143
		c-0.191-15.06-0.307-30.638-0.143-45.784c2.261-0.251,5.499-0.144,8.125-0.144C71.647,0.023,74.115-0.055,76.344,0.119z"/>
	<path style="fill-rule:evenodd;clip-rule:evenodd;" d="M45.71,0.214c0.262,4.861,0.149,10.622,0.095,15.532
		c-1.141,0.133-2.397,0.142-3.68,0.144c-3.697,0.001-7.851-0.022-11.518-0.144c-0.17-5.222-0.178-10.472-0.048-15.532
		C35.159,0.009,40.74,0.079,45.71,0.214z"/>
	<path style="fill-rule:evenodd;clip-rule:evenodd;" d="M15.266,0.31c0.178,15.169,0.286,30.449,0.143,45.832
		c-4.829,0.193-10.401,0.192-15.15,0.096c-0.257-0.913-0.144-1.884-0.144-2.819c0-14.43-0.227-28.664-0.048-43.06
		C4.875,0.211,10.342,0.114,15.266,0.31z"/>
	<path style="fill-rule:evenodd;clip-rule:evenodd;" d="M45.853,30.61c0.129,5.094,0.2,10.599,0.047,15.437
		c-4.901,0.163-10.306,0.149-15.15,0c-0.27-3.86-0.104-8.049-0.191-11.661c-0.031-1.295-0.089-2.632,0.143-3.871
		c3.77-0.133,8.03-0.048,12.091-0.048C43.821,30.466,44.892,30.351,45.853,30.61z"/>
</g>
<g id="Layer_1">
</g>
</svg>
