<?xml version="1.0" encoding="iso-8859-1"?>
<!-- Generator: Adobe Illustrator 19.2.0, SVG Export Plug-In . SVG Version: 6.00 Build 0)  -->
<svg version="1.1" xmlns="http://www.w3.org/2000/svg" xmlns:xlink="http://www.w3.org/1999/xlink" x="0px" y="0px"
	 viewBox="0 0 174.872 164.182" style="enable-background:new 0 0 174.872 164.182;" xml:space="preserve">
<g id="spar">
	<path style="fill-rule:evenodd;clip-rule:evenodd;" d="M147.494,21.997c6.629,5.885,11.791,12.802,16.671,20.415
		c2.374,3.702,4.564,7.906,6.125,12.443c1.574,4.574,3.069,9.435,3.791,14.728c1.778,13.041,0.457,26.693-2.965,37.037
		c-2.67,8.069-6.217,15.343-10.693,21.728c-0.637,0.908-1.34,1.791-1.993,2.673c-0.343,0.464-0.611,0.921-0.972,1.361
		c-4.525,5.517-9.784,10.079-15.651,14.436c-6.989,5.189-15.536,9.449-24.595,12.492c-9.371,3.146-19.865,5.046-32.226,4.86
		c-6.013-0.09-11.495-0.819-16.672-1.896c-10.109-2.102-19.182-5.634-26.977-10.11c-1.943-1.115-3.801-2.351-5.589-3.693
		c-1.757-1.319-3.557-2.594-5.25-3.986c-3.383-2.784-6.575-5.759-9.527-9.04c-2.913-3.237-5.731-6.686-8.117-10.402
		c-2.35-3.659-4.659-7.721-6.465-12.103c-1.798-4.363-3.488-8.977-4.569-13.95c-1.114-5.13-1.64-10.925-1.798-16.672
		C-0.143,76.305,0.604,70.692,1.724,65.5C3.885,55.487,7.818,46.775,12.66,39.35c4.885-7.49,10.676-14.062,17.45-19.637
		c6.758-5.561,14.651-10.349,23.379-13.707c4.473-1.721,9.251-3.193,14.437-4.131c3.928-0.711,7.865-1.418,12.249-1.653
		C84.9-0.032,90.237-0.131,95.048,0.27C117.854,2.172,134.466,10.45,147.494,21.997z M98.791,130.875
		c2.533,4.577,7.369,7.983,13.658,8.457c3.609,0.272,6.885-0.353,9.575-1.36c5.461-2.047,9.649-5.145,13.756-8.409
		c2.085-1.658,4.132-3.339,5.735-5.347c1.938-2.106,3.681-4.431,5.249-6.902c1.56-2.457,3.1-5.082,4.326-7.874
		c3.627-8.261,6.515-18.439,5.979-30.427c-0.527-11.787-3.596-20.653-8.263-28.289c-4.649-7.605-10.416-13.855-17.206-19.297
		c-2.247-1.8-4.676-3.497-7.242-4.958c-5.084-2.892-10.485-5.624-17.11-7.242c-1.596-0.39-3.208-0.825-4.909-1.166
		c-6.162-1.235-14.032-1.795-21.095-1.118c-4.018,0.385-7.688,0.938-11.228,1.798c-4.666,1.135-9.016,2.577-12.978,4.424
		c-7.896,3.678-14.811,8.288-20.463,14.29c-8.786,8.504-15.427,19.483-17.79,34.364c-0.607,3.827-0.957,8.017-0.826,12.2
		c0.198,6.316,1.092,11.926,2.722,16.818c0.549,1.646,1.006,3.315,1.701,4.812c1.387,2.985,2.951,5.817,4.569,8.506
		c2.814,4.677,6.112,9.175,9.867,12.93c0.548,0.548,1.005,1.192,1.555,1.701c4.483,4.138,10.062,7.778,16.672,9.429
		c1.842,0.46,3.649,0.848,5.541,0.973c1.966,0.13,3.897-0.235,5.687-0.73c4.938-1.36,8.824-4.374,10.839-8.7
		c0.706-1.517,1.005-3.33,1.166-5.347c0.312-3.905-0.024-8.113-0.049-12.54c-0.892-0.265-1.849-0.146-2.771-0.146
		c-0.972,0-1.948,0-2.916,0c-13.723-0.002-26.948,0.154-40.197-0.146c0.124-0.569,0.627-0.928,0.972-1.361
		c1.052-1.321,2.118-2.553,3.16-3.839c0.345-0.426,0.751-0.812,1.069-1.264c0.322-0.458,0.572-0.96,0.923-1.41
		c3.423-4.383,6.688-8.894,9.867-13.513c5.078-7.377,9.83-15.028,14.533-22.845c2.339-3.888,4.475-7.935,6.707-11.957
		c2.232-4.021,4.312-8.188,6.368-12.346c2.075-4.197,3.918-8.52,5.881-12.832c0.974-2.139,1.904-4.306,2.868-6.465
		c0.731-1.637,1.347-3.353,2.041-4.958c0.224-0.517,0.389-1.158,0.875-1.507c0.95,2.046,1.719,4.157,2.576,6.222
		c0.87,2.096,1.687,4.206,2.576,6.271c4.435,10.293,9.451,20.092,14.728,29.504c1.059,1.888,2.184,3.72,3.257,5.59
		c2.413,4.203,5.128,8.219,7.534,12.346c0.819,1.405,1.76,2.703,2.625,4.034c3.493,5.38,7.366,10.337,11.131,15.408
		c2.505,3.375,5.153,6.651,7.874,9.818c1.055,1.242,2.223,2.584,3.256,3.84c0.325,0.395,0.928,0.787,0.827,1.361
		c-14.516,0.089-29.497,0.051-44.134,0.049c-0.945,0-1.91-0.114-2.819,0.146C95.801,118.475,96.251,126.285,98.791,130.875z"/>
</g>
<g id="Layer_1">
</g>
</svg>
