<?xml version="1.0" encoding="iso-8859-1"?>
<!-- Generator: Adobe Illustrator 19.2.0, SVG Export Plug-In . SVG Version: 6.00 Build 0)  -->
<svg version="1.1" xmlns="http://www.w3.org/2000/svg" xmlns:xlink="http://www.w3.org/1999/xlink" x="0px" y="0px"
	 viewBox="0 0 170.824 172.127" style="enable-background:new 0 0 170.824 172.127;" xml:space="preserve">
<g id="Spezialbeton_x5F_CH">
	<path style="fill-rule:evenodd;clip-rule:evenodd;" d="M170.78,0.857c0.102,11.697,0.012,24.008-0.098,35.549
		c-0.064,0.018-0.077,0.086-0.146,0.098c-44.302,0.078-89.964-0.459-134.353-0.342c-0.021,0.043-0.042,0.088-0.097,0.098
		c-0.14,18.01-0.223,36.264-0.098,54.734c0.044,0.021,0.087,0.043,0.098,0.098c29.784,0.213,59.833,0.115,89.455,0.438
		c0.001,0.098,0.133,0.062,0.098,0.195c0.018,11.398,0.028,23.635-0.146,35.158c-20.83,0.15-41.545-0.148-62.185-0.145
		c-20.756,0.002-41.715-0.178-62.916-0.342c-0.153,0.023-0.128-0.131-0.244-0.146c-0.102-10.508,0.049-21.102,0.049-31.555
		c0-5.176-0.028-10.344,0.097-15.486c0.127-5.184-0.102-10.367,0-15.533c0.106-5.32,0.049-10.645,0.049-15.924
		c0-15.912,0.067-31.658,0.195-47.43c0.313-0.31,1.128-0.185,1.607-0.244c1.641-0.199,3.508,0.049,5.308,0.049
		c14.1,0,28.377,0.059,42.414,0.244c5.273,0.07,10.517-0.121,15.729,0c6.937,0.162,13.874-0.129,20.794,0.049
		c3.476,0.09,6.981,0.049,10.469,0.049c10.14,0.002,20.952,0.146,31.555,0.146C142.499,0.613,156.635,0.667,170.78,0.857z"/>
	<path style="fill-rule:evenodd;clip-rule:evenodd;" d="M170.535,46.339c0.049,0.064,0.08,0.146,0.146,0.195
		c0.088,31.373-0.245,62.553-0.244,94.129c0.001,10.475,0.016,20.941-0.194,31.41c-28.406,0.193-56.878-0.201-85.559-0.195
		c-28.115,0.006-55.726-0.264-84.488-0.439c-0.014-0.098-0.132-0.094-0.146-0.193c-0.079-11.682-0.079-23.297,0.097-34.965
		c0.05-0.047,0.099-0.096,0.146-0.145c44.865,0.123,89.593,0.318,134.207,0.486c0.526-0.473,0.243-2.184,0.243-3.215
		c0-2.543-0.012-5.031,0.049-7.547c0.011-0.453,0.188-0.822,0.097-1.219c-0.185-3.492-0.098-7.053-0.097-10.615
		c0.001-9.848,0.098-19.273,0.097-29.07c0-1.045,0.136-2.168-0.048-2.971c-0.885-0.262-1.814-0.146-2.727-0.146
		c-14.087-0.002-28.033-0.193-41.976-0.195c-15.003,0-30.07-0.012-44.849-0.242c-0.022-0.045-0.043-0.088-0.098-0.098
		c-0.124-11.508-0.008-23.389,0.049-35.207c0.097-0.051,0.077-0.217,0.244-0.195C87.185,45.958,129.155,46.163,170.535,46.339z"/>
</g>
<g id="Layer_1">
</g>
</svg>
