<?xml version="1.0" encoding="iso-8859-1"?>
<!-- Generator: Adobe Illustrator 19.2.0, SVG Export Plug-In . SVG Version: 6.00 Build 0)  -->
<svg version="1.1" xmlns="http://www.w3.org/2000/svg" xmlns:xlink="http://www.w3.org/1999/xlink" x="0px" y="0px"
	 viewBox="0 0 77.638 78.51" style="enable-background:new 0 0 77.638 78.51;" xml:space="preserve">
<g id="Spinner_x5F_Hi_x5F_Fi">
	<path style="fill-rule:evenodd;clip-rule:evenodd;" d="M43.113,19.793c-1.958-0.139-3.81-0.452-5.648-0.243
		c-1.861,0.212-3.55,0.513-5.162,1.023c-1.378,0.437-2.822,1.322-4.041,2.143c-3.708,2.498-6.413,5.807-7.889,10.567
		c-0.723,2.328-1.15,5.207-0.779,8.181c0.104,0.831,0.207,1.741,0.633,2.435c0.569-0.076,1.002-0.586,1.363-0.974
		c2.653-2.845,5.547-5.629,8.278-8.473c0.786-0.818,1.486-1.729,2.289-2.532c2.359-2.36,4.885-4.71,7.109-7.255
		c0.899-0.678,1.56-1.641,2.387-2.435c2.424-2.329,4.681-4.774,7.109-7.256c1.518-1.55,3.068-3.236,4.771-4.821
		c1.169-1.087,2.358-2.309,3.605-3.555c0.356-0.357,0.938-1.056,1.314-1.071c0.445-0.018,1.313,0.663,1.704,0.925
		c1.584,1.056,3.036,2.241,4.383,3.457c3.311,2.821,5.983,6.246,8.132,10.178c3.134,5.734,5.602,13.268,4.821,22.205
		C77.017,47.734,75.58,52.64,73.5,56.607c-1.044,1.992-2.153,3.868-3.312,5.795c-0.768,1.277-1.854,2.487-2.872,3.652
		c-2.982,3.409-7.005,6.106-11.055,8.376c-4.922,2.211-10.951,4.393-18.699,4.042c-0.978-0.044-2.513-0.052-2.971-0.438
		c-0.164-5.473-0.145-11.414-0.145-17.189c0-0.773-0.114-1.604,0.145-2.337c1.959,0.183,3.85,0.397,5.697,0.243
		c5.622-0.468,9.537-2.865,12.612-5.941c1.983-1.983,3.603-4.623,4.577-7.791c0.919-2.985,1.442-7.292,0.244-10.665
		c-0.599-0.044-0.924,0.583-1.267,0.925c-4.115,4.115-8.215,8.36-12.368,12.515c-3.751,3.752-7.33,7.622-11.151,11.444
		c-0.767,0.767-1.585,1.458-2.192,2.289c-0.602,0.825-1.456,1.587-2.191,2.337c-2.205,2.25-4.502,4.566-6.72,6.817
		c-0.829,0.762-1.388,1.795-2.483,2.289c-0.988-0.263-1.758-0.966-2.533-1.509c-0.809-0.567-1.589-1.107-2.337-1.705
		c-4.422-3.53-8.029-8.128-10.616-13.586C1.34,50.842-0.486,43.86,0.115,35.863c0.541-7.203,3.077-13.14,6.136-18.066
		c3.069-4.944,7.314-8.784,12.271-11.931c4.893-3.106,10.942-5.442,18.505-5.844c0.96-0.051,2.085,0,3.164,0
		c1.026,0,2.084-0.023,2.874,0.292c0.261,0.75,0.146,1.589,0.146,2.386c0.002,4.96,0.032,9.776,0.049,14.852
		C43.261,18.315,43.375,19.092,43.113,19.793z M34.494,37.519c-0.998,2.55,0.715,4.97,2.289,5.795
		c3.096,1.623,6.659-0.836,6.72-4.091c0.052-2.714-1.809-4.167-3.993-4.723c-0.373,0.032-0.875-0.064-1.168,0.048
		C36.544,34.765,35.052,36.097,34.494,37.519z"/>
</g>
<g id="Layer_1">
</g>
</svg>
