<?xml version="1.0" encoding="iso-8859-1"?>
<!-- Generator: Adobe Illustrator 19.2.0, SVG Export Plug-In . SVG Version: 6.00 Build 0)  -->
<svg version="1.1" xmlns="http://www.w3.org/2000/svg" xmlns:xlink="http://www.w3.org/1999/xlink" x="0px" y="0px"
	 viewBox="0 0 75.255 76.497" style="enable-background:new 0 0 75.255 76.497;" xml:space="preserve">
<g id="Stalling_x5F_Filmsatz">
	<path style="fill-rule:evenodd;clip-rule:evenodd;" d="M75.136,0.216c0.159,1.51,0.156,3.665,0,5.175
		C62.8,5.499,49.562,5.438,37.06,5.438c-1.39,0-2.666-0.091-3.798,0.047c-1.063,0.13-2.014,0.487-2.896,0.95
		C27.114,8.14,25.01,11.838,25.95,16.88c-0.249,0.081-0.464-0.4-0.617-0.665c-1.16-2.015-2.702-4.326-2.563-7.596
		c0.188-4.458,3.132-7.328,6.979-8.261c2.484-0.603,5.685-0.256,8.736-0.285c5.165-0.049,10.5-0.047,15.62-0.048
		c5.342,0,10.63,0.048,15.857,0.048C71.693,0.073,73.44-0.042,75.136,0.216z"/>
	<path style="fill-rule:evenodd;clip-rule:evenodd;" d="M75.136,10.66c0.186,1.494,0.098,3.509,0.048,5.081
		c-0.774,0.253-1.621,0.142-2.421,0.142c-2.521,0-4.941,0.064-7.406,0c-6.718-0.174-13.245,0-20.036,0
		c-3.239,0-6.946-0.356-9.163,0.997c-2.49,1.709-4.179,3.81-4.558,7.406c-0.303,2.881,1.18,4.771,2.184,6.694
		c0.344,0.66,0.799,1.302,1.044,1.947c1.361,3.58,0.077,7.31-1.709,9.352c-0.925,1.058-2.231,1.904-3.656,2.421
		c-1.531,0.556-3.52,0.475-5.603,0.475c-8.156,0-16.008,0.114-23.691-0.048c-0.255-1.367-0.182-3.542-0.047-4.985
		c7.552-0.432,15.474,0.125,22.931-0.19c1.478-0.062,2.87-0.129,3.988-0.617c3.075-1.342,5.389-4.101,5.365-8.499
		c-0.023-4.256-3.289-6.272-3.656-10.16c-0.53-5.62,3.168-9.522,8.119-10.113c1.388-0.166,3.335-0.047,4.938-0.047
		C52.904,10.518,64.276,10.43,75.136,10.66z"/>
	<path style="fill-rule:evenodd;clip-rule:evenodd;" d="M75.136,21.058c0.168,0.738,0.095,1.678,0.095,2.611
		c0,0.888,0.11,1.851-0.143,2.517c-5.616,0.139-11.58,0.048-17.519,0.047c-2.842,0-5.963,0.058-8.783-0.047
		c-1.532-0.058-2.978-0.019-4.225,0.189c-3.488,0.583-5.905,3.194-6.837,6.362c-0.732,2.489-0.09,5.082,0.95,7.074
		c1.001,1.919,2.381,3.576,2.469,6.362c0.085,2.725-0.792,4.813-2.327,6.457c-0.82,1.056-1.883,1.641-3.086,2.231
		c-1.335,0.655-2.674,0.655-4.51,0.665c-9.465,0.05-19.224,0.047-28.628,0.047c-0.813,0-1.687,0.113-2.469-0.142
		c-0.161-1.459-0.148-3.523,0-4.985c2.756-0.246,5.542-0.142,8.356-0.142c5.598,0,11.408-0.048,17.044-0.048
		c2.619,0,5.757,0.285,7.787-0.665c3.321-1.555,6.422-6.578,4.272-11.442c-0.416-0.94-0.93-1.893-1.424-2.849
		c-0.245-0.473-0.443-0.964-0.665-1.472c-0.605-1.391-1.077-3.385-0.76-5.46c0.08-0.519,0.302-1.066,0.522-1.614
		c0.218-0.543,0.34-1.129,0.57-1.566c0.759-1.447,2.116-2.431,3.513-3.181c0.78-0.418,1.558-0.668,2.469-0.854
		c0.959-0.197,2.111-0.229,3.276-0.237C55.097,20.842,65.025,20.903,75.136,21.058z"/>
	<path style="fill-rule:evenodd;clip-rule:evenodd;" d="M75.136,31.361c0.186,1.477,0.098,3.477,0.048,5.032
		c-1.58,0.262-3.251,0.132-4.938,0.095c-4.832-0.105-10.352,0.206-15.382,0.047c-1.825-0.057-3.373-0.031-4.795,0.333
		c-1.351,0.345-2.393,0.94-3.418,1.756c-1.83,1.456-3.387,3.729-3.323,7.027c0.08,4.134,2.929,6.136,3.608,9.922
		c0.752,4.193-1.596,7.612-4.13,9.116c-1.883,1.117-4.412,1.49-7.502,1.472c-11.777-0.07-23.78-0.183-35.133-0.237
		c-0.188-1.475-0.143-3.559,0-5.127c4.601-0.174,9.31-0.095,13.958-0.095c7.162,0,14.01,0,20.984,0c2.33,0,3.936-0.551,5.413-1.614
		c2.598-1.872,4.546-5.56,3.229-9.923c-0.61-2.021-1.983-3.625-2.754-5.555c-1.304-3.266-0.166-6.934,1.424-8.926
		c1.277-1.601,2.964-2.787,5.412-3.228c0.854-0.154,1.814-0.259,2.754-0.285c3.929-0.108,8.132,0.047,12.344,0.047
		C67.083,31.218,71.193,31.176,75.136,31.361z"/>
	<path style="fill-rule:evenodd;clip-rule:evenodd;" d="M0.217,76.321c-0.29-0.657-0.142-1.551-0.142-2.421
		c0-0.885-0.039-1.809,0.047-2.611c0.811-0.261,1.691-0.204,2.563-0.189c9.633,0.154,19.713,0,29.578,0c1.788,0,3.64,0,5.413,0
		c1.852,0,3.769,0.193,5.317-0.143c4.658-1.011,7.918-5.298,6.836-11.205c0-0.032,0-0.064,0-0.095c0.042-0.029,0.085-0.058,0.095,0
		c0.039,0.009,0.047,0.047,0.095,0.047c1.636,2.619,3.982,6.064,2.564,10.445c-0.534,1.647-1.535,3.084-2.801,4.13
		c-1.205,0.996-2.883,1.954-4.748,2.137c-1.861,0.182-3.814,0-5.697,0C26.839,76.416,12.962,76.331,0.217,76.321z"/>
</g>
<g id="Layer_1">
</g>
</svg>
