<?xml version="1.0" encoding="iso-8859-1"?>
<!-- Generator: Adobe Illustrator 19.2.0, SVG Export Plug-In . SVG Version: 6.00 Build 0)  -->
<svg version="1.1" xmlns="http://www.w3.org/2000/svg" xmlns:xlink="http://www.w3.org/1999/xlink" x="0px" y="0px"
	 viewBox="0 0 81.618 82.401" style="enable-background:new 0 0 81.618 82.401;" xml:space="preserve">
<g id="Stange_x5F_63">
	<path style="fill-rule:evenodd;clip-rule:evenodd;" d="M39.032,0.009c0.12-0.041,0.234,0.072,0.05,0.053
		C28.916,1.234,21.508,5.167,15.995,10.993c-2.842,2.787-4.726,6.004-6.611,9.51c-0.926,1.723-1.596,3.75-2.187,5.848
		c-1.717,6.102-1.875,15.264-0.102,21.41c0.628,2.176,1.381,3.998,2.237,5.797c1.668,3.504,3.954,6.746,6.764,9.357
		c5.44,5.053,13.046,8.92,23.494,8.594c2.576-0.08,4.931-0.373,6.916-1.119c2.044-0.768,3.654-1.684,5.187-2.848
		c1.521-1.154,2.652-2.498,3.763-4.272c1.062-1.697,1.739-3.56,2.034-6.051c0.553-4.668-1.137-8.197-3.051-10.832
		c-0.296-0.408-0.499-0.836-0.813-1.17c-1.327-1.404-2.892-2.492-4.526-3.508c-3.397-2.113-7.506-3.404-11.289-4.832
		c-3.918-1.479-7.341-3.443-8.849-7.221c-0.869-2.18-0.998-4.742-0.458-6.916c1.064-4.277,4.104-6.576,7.78-8.289
		c1.945-0.906,3.958-1.477,6.56-1.475c5.715,0,9.428,1.144,13.222,2.848c3.699,1.66,6.767,4.098,9.255,6.814
		c2.668,2.912,4.688,6.006,6.153,9.967c1.407,3.803,2.06,8.775,1.933,14.035c-0.119,4.916-1.29,9.52-2.95,13.172
		c-2.966,6.525-7.365,11.383-13.069,15.102c-2.464,1.607-5.142,2.729-8.289,3.764c-2.06,0.678-4.454,1.17-6.763,1.271
		c-2.705,0.119-5.291,0.277-7.78,0.051c-7.185-0.652-12.946-3.029-17.799-6.305c-3.222-2.176-5.9-4.83-8.34-7.781
		c-4.813-5.822-7.934-13.742-8.391-23.799c-0.117-2.57,0.154-5.137,0.56-7.477c0.405-2.338,0.826-4.574,1.475-6.559
		c1.259-3.852,3.226-7.51,5.492-10.629c1.113-1.531,2.306-3.119,3.611-4.424c0.686-0.686,1.246-1.434,1.933-2.086
		c3.449-3.273,7.571-5.859,12.154-7.932c1.784-0.809,3.904-1.514,6.051-1.984c1.1-0.24,2.188-0.506,3.356-0.66
		C36.037,0.183,37.506,0.118,39.032,0.009z"/>
	<path style="fill-rule:evenodd;clip-rule:evenodd;" d="M41.473,82.392c1.419-0.34,2.812-0.24,4.119-0.51
		c3.716-0.764,7.156-2.068,10.222-3.609c4.003-2.012,7.498-4.746,10.374-8.035c5.711-6.527,9.999-14.895,9.408-27.207
		c-0.144-2.998-0.422-5.658-1.068-8.135c-1.863-7.144-5.747-12.725-10.831-16.781c-4.924-3.93-11.451-7.375-20.24-7.375
		c-2.916,0-5.52,0.383-8.035,1.17c-4.589,1.436-8.203,4.117-10.323,8.086c-1.121,2.098-1.812,4.578-1.627,7.475
		c0.184,2.879,0.979,4.98,2.186,7.017c2.314,3.908,6.332,5.977,10.679,7.73c6.616,2.67,14.095,4.17,16.273,11.34
		c0.726,2.393,0.499,5.465-0.509,7.781c-1.715,3.941-5.894,6.826-10.679,7.729c-2.865,0.541-6.102,0.338-8.543-0.152
		c-7.787-1.562-13.26-4.949-17.595-10.018C11.5,54.353,9.011,48.79,8.164,41.454C7.238,33.447,8.951,26.22,11.673,20.81
		c1.381-2.748,2.951-5.186,4.933-7.375c1.939-2.143,4.117-3.984,6.56-5.695c2.357-1.65,5.305-2.977,8.34-3.916
		c1.595-0.494,3.249-0.916,4.983-1.17c6.351-0.93,13.812-0.373,18.866,1.525c6.111,2.297,11.291,5.381,15.307,9.662
		c1.654,1.764,3.212,3.504,4.526,5.492c3.9,5.904,6.714,13.57,6.407,23.393c-0.29,9.283-3.664,16.521-7.729,22.274
		c-2.775,3.928-6.128,7.225-9.967,10.02c-1.917,1.394-4.011,2.584-6.306,3.66C53.101,80.786,47.914,82.546,41.473,82.392z"/>
</g>
<g id="Layer_1">
</g>
</svg>
