<?xml version="1.0" encoding="iso-8859-1"?>
<!-- Generator: Adobe Illustrator 19.2.0, SVG Export Plug-In . SVG Version: 6.00 Build 0)  -->
<svg version="1.1" xmlns="http://www.w3.org/2000/svg" xmlns:xlink="http://www.w3.org/1999/xlink" x="0px" y="0px"
	 viewBox="0 0 126.457 187.479" style="enable-background:new 0 0 126.457 187.479;" xml:space="preserve">
<g id="State_x5F_Music_x5F_Hall_x5F_Sofia">
	<path style="fill-rule:evenodd;clip-rule:evenodd;" d="M125.477,94.102c-0.379-0.234-0.436-0.884-0.573-1.386
		c-0.965-3.525-2.029-6.88-3.823-9.653c-4.053-6.268-10.123-10.277-16.964-13.858c-1.689-0.884-3.433-1.664-5.161-2.533
		c-1.71-0.859-3.433-1.732-5.161-2.533c-10.576-4.896-19.527-11.241-25.949-20.262c-1.867-2.625-3.516-5.392-5.113-8.363
		c-0.18-0.336-0.369-0.876-0.813-1.003c-0.229,3-0.096,6.082-0.095,9.223c0.001,9.348-0.001,19.119,0,28.577
		c0,3.271,0.068,6.455-0.048,9.557c-0.059,1.567,0.062,3.108-0.048,4.636c-0.11,1.535-0.038,3.043-0.144,4.539
		c-0.113,1.612-0.176,3.086-0.334,4.492c-0.299,2.646-1.301,5.095-2.342,7.217c-0.523,1.066-0.99,2.169-1.625,3.153
		c-2.514,3.898-5.75,6.966-9.701,9.51c-3.976,2.56-8.654,4.238-14.67,4.492c-6.303,0.266-11.588-1.395-15.627-3.536
		c-2.141-1.136-3.986-2.438-5.734-3.871c-1.303-1.068-2.515-2.263-3.632-3.536c-0.365-0.416-0.63-0.973-1.195-1.194
		c1.045,2.698,2.937,4.549,4.779,6.451c2.595,2.528,5.533,4.722,9.032,6.355c3.453,1.611,7.543,2.985,12.329,3.059
		c5.309,0.081,9.08-0.895,12.951-2.342c3.647-1.364,7.025-3.352,9.748-5.591c2.855-2.348,5.093-5.221,6.93-8.459
		c1.885-3.321,2.962-7.268,4.396-10.99c1.467-3.81,3.08-7.124,5.4-9.988c2.295-2.833,5.173-4.931,8.553-6.786
		c4.49-2.146,9.691-3.775,16.201-3.202c5.909,0.52,10.953,2.144,14.957,4.587c3.953,2.412,7.272,5.738,9.701,9.892
		c2.459,4.205,4.177,9.048,4.635,14.909c0.505,6.445-0.646,12.106-2.294,17.013c-1.678,4.999-3.931,9.146-6.643,12.902
		c-2.745,3.805-6.257,6.914-9.604,9.988c-3.41,3.13-7.474,5.492-10.848,8.697c-10.483,8.156-21.615,15.657-29.485,26.426
		c-1.124,1.61-2.219,3.372-3.202,5.209c-0.303,0.568-0.6,1.228-1.099,1.577c-0.411-0.206-0.563-0.689-0.765-1.051
		c-0.627-1.13-1.305-2.268-2.007-3.394c-0.909-1.457-1.803-2.945-2.915-4.253c-2.182-2.565-4.604-4.966-7.025-7.312
		c-3.601-3.487-7.604-6.74-11.66-9.845c-6.042-4.625-12.513-8.991-18.302-13.953c-0.635-0.544-1.177-1.214-1.816-1.768
		c-5.13-4.455-9.684-9.586-13.093-15.578c-3.518-6.185-5.903-13.44-5.543-23.034c0.34-9.072,3.037-15.803,7.694-20.979
		c4.308-4.789,10.527-9.047,18.494-10.179c4.516-0.642,9.29-0.16,12.902,0.956c3.661,1.131,6.696,2.75,9.51,4.826
		c1.491,1.057,2.778,2.318,4.11,3.537c0.572,0.702,1.24,1.308,1.815,2.007c0.581,0.707,1.006,1.52,1.673,2.15
		c0.252-0.867,0.143-1.784,0.143-2.676c-0.001-28.803-0.078-57.986-0.047-86.782c0.041-0.039,0.027-0.131,0.096-0.143
		c0.152-0.041,0.146,0.076,0.238,0.096c2.705,4.2,5.62,8.14,8.602,11.994c1.509,1.95,3.016,3.846,4.588,5.687
		c3.141,3.678,6.917,6.758,10.609,9.987c4.559,3.988,9.367,7.739,14.336,11.373c0.988,0.724,1.89,1.542,2.867,2.246
		c3.916,2.821,7.829,5.878,11.421,9.175c7.178,6.589,13.094,14.131,15.913,25.185c0.659,2.583,1.29,5.71,1.29,8.983
		c0,1.638-0.046,3.291-0.144,4.922C126.055,91.189,126.033,92.739,125.477,94.102z"/>
</g>
<g id="Layer_1">
</g>
</svg>
