<?xml version="1.0" encoding="iso-8859-1"?>
<!-- Generator: Adobe Illustrator 19.2.0, SVG Export Plug-In . SVG Version: 6.00 Build 0)  -->
<svg version="1.1" xmlns="http://www.w3.org/2000/svg" xmlns:xlink="http://www.w3.org/1999/xlink" x="0px" y="0px"
	 viewBox="0 0 79.052 79.459" style="enable-background:new 0 0 79.052 79.459;" xml:space="preserve">
<g id="State_x5F_Bank_x5F_of_x5F_Slinger">
	<path style="fill-rule:evenodd;clip-rule:evenodd;" d="M26.768,0.065c3.087-0.146,6.5,0,9.777,0c9.903,0,19.764-0.051,29.582-0.051
		c3.595,0,6.446-0.082,8.668,1.311c1.932,1.211,3.606,3.08,3.981,5.996c0.196,1.527,0.101,3.199,0.101,4.891
		c0,17.744,0.152,36.248,0.151,54.125c0,3.65,0.28,6.604-1.109,8.869c-1.146,1.871-3.117,3.795-5.896,4.082
		c-1.597,0.164-3.246-0.062-4.888,0c-4.792,0.18-9.954,0.1-14.816,0.102c-13.666,0.004-25.714,0.049-39.259,0.049
		c-1.851,0-3.496,0.047-4.989,0c-1.488-0.045-2.746-0.508-3.83-1.158c-1.969-1.182-3.534-3.236-3.931-6.047
		c-0.215-1.527-0.101-3.211-0.101-4.889c0-17.906-0.151-36.695-0.151-54.226c0-1.719-0.13-3.301,0-4.787
		c0.139-1.586,0.468-2.674,1.159-3.83C1.566,3.917,1.79,3.385,2.175,2.938c1.065-1.244,2.645-2.4,4.788-2.672
		c3.064-0.389,6.381-0.152,9.827-0.15C20.12,0.116,23.387,0.225,26.768,0.065z M47.632,7.725c-2.674-1.313-5.869-2.295-9.625-2.117
		c-3.005,0.143-5.618,0.916-7.862,2.016c-2.239,1.1-4.139,2.242-5.745,3.982c-3.193,3.459-5.575,7.629-5.846,13.607
		c-0.136,3.008,0.464,5.746,1.411,8.113c2.575,6.434,7.305,10.535,14.212,12.498c0.595,0.168,1.304,0.189,1.814,0.654
		c0.146,3.182-0.056,6.709,0.202,9.777c0.72,0.26,1.741,0.152,2.722,0.152c0.992,0,2.043,0.113,2.771-0.152
		c0.257-0.643,0.151-1.42,0.151-2.168c0-1.629,0.017-3.164-0.05-4.586c-0.036-0.758-0.109-1.564,0.201-2.166
		c0.953,0.045,1.432,0.867,1.966,1.461c0.549,0.611,0.996,1.299,1.31,2.117c1.28,3.334-0.165,6.57-2.016,8.215
		c-2.697,2.396-7.019,1.523-9.021-0.555c-1.01-1.049-1.938-2.367-2.167-4.082c-0.126-0.945-0.101-1.955-0.101-3.024
		c0-0.935,0.148-1.988-0.202-2.975c-1.414-0.256-3.547-0.211-4.889,0c-0.284,1.17-0.101,2.352-0.101,3.479
		c0,1.242-0.055,2.447,0.151,3.578c0.363,1.992,1.242,3.82,2.268,5.189c1.997,2.666,5.33,5.117,9.928,4.99
		c4.396-0.123,7.597-2.236,9.676-5.191c0.98-1.392,1.826-3.346,2.117-5.342c0.329-2.264-0.047-4.627-0.857-6.5
		c-1.142-2.642-3.241-4.746-5.644-6.049c-0.854-0.461-1.879-0.691-2.57-1.359c-0.015-0.758-0.24-2.154,0.151-2.672
		c1.844,0.088,3.212,1.088,4.637,1.764c1.964,1.238,3.646,2.809,4.938,4.787c1.261,1.932,2.275,4.408,2.47,7.309
		c0.381,5.68-1.998,9.561-4.687,12.195c-2.853,2.797-7.097,4.922-12.498,4.133c-4.754-0.693-8.085-3.289-10.382-6.551
		c-1.86-2.643-2.663-5.631-2.822-9.879c-0.047-1.25,0.175-2.621-0.252-3.881c-0.684-0.158-1.589-0.123-2.42-0.1
		c-0.829,0.023-1.705-0.027-2.318,0.201c-0.725,7.633,0.981,13.406,4.233,17.488c3.232,4.057,7.737,7.025,14.212,7.76
		c3.348,0.381,6.685-0.252,9.323-1.311c4.015-1.609,6.824-4.188,9.071-7.408c2.186-3.131,3.967-7.402,3.628-12.85
		c-0.34-5.479-2.603-9.699-5.543-12.701c-1.545-1.576-3.166-2.895-5.141-3.98c-1.52-0.836-3.184-1.336-4.888-1.916
		c-0.559-0.189-1.197-0.238-1.713-0.604c-0.195-5.303-0.038-10.945-0.151-16.328c-0.013-0.623,0.129-1.814-0.101-2.219
		c-0.234-0.41-0.938-0.49-1.512-0.555c-2.163-0.234-4.142,0.275-5.493,0.758c-2.021,0.719-3.679,2.133-4.889,3.578
		c-1.272,1.517-2.251,3.453-2.671,5.795c-0.443,2.471,0.135,5.225,1.058,7.106c1.161,2.365,3.163,4.252,5.393,5.494
		c0.764,0.424,1.712,0.535,2.469,1.158c0.116,0.42,0.108,0.982,0.101,1.512c-0.008,0.527,0.048,1.184-0.252,1.512
		c-3.188-0.5-5.625-2.096-7.559-4.031c-1.952-1.951-3.477-4.416-4.183-7.51c-0.811-3.553-0.184-7.277,1.059-9.928
		c2.342-4.994,7.316-9.107,14.564-8.818c1.79,0.07,3.331,0.57,4.737,1.107c1.416,0.543,2.607,1.326,3.679,2.168
		c3.249,2.547,5.534,6.289,5.947,11.59c0.141,1.816-0.172,3.711,0.151,5.645c0.626,0.252,1.582,0.152,2.47,0.152
		c0.916,0,1.882,0.133,2.469-0.201C60.227,18.776,55.426,11.552,47.632,7.725z M44.003,15.587c-0.177,0.566-0.101,1.861-0.101,2.771
		c0,1.023-0.147,2.051,0.051,2.773c0.142,0.516,0.71,1.041,1.008,1.611c0.594,1.139,0.738,2.385,0.807,3.881
		c0.065,1.434-0.064,3.01,0.201,4.535c1.329,0.139,3.44,0.225,4.687-0.051c0.316-0.787,0.202-1.725,0.202-2.619
		c0-0.906-0.033-1.832-0.05-2.672c-0.074-3.541-1.435-6.102-3.276-8.014c-0.747-0.773-2.159-2.176-3.376-2.367
		C44.082,15.464,44.032,15.514,44.003,15.587z"/>
	<path style="fill-rule:evenodd;clip-rule:evenodd;" d="M35.839,32.116c-0.906-0.133-1.681-0.836-2.218-1.51
		c-0.825-1.037-1.543-2.428-1.663-3.982c-0.237-3.078,1.376-5.549,3.376-6.703c0.967-0.557,0.655,1.844,0.655,2.822
		c0,2.248,0,4.195,0,6.35C35.99,30.151,36.108,31.319,35.839,32.116z"/>
</g>
<g id="Layer_1">
</g>
</svg>
