<?xml version="1.0" encoding="iso-8859-1"?>
<!-- Generator: Adobe Illustrator 19.2.0, SVG Export Plug-In . SVG Version: 6.00 Build 0)  -->
<svg version="1.1" xmlns="http://www.w3.org/2000/svg" xmlns:xlink="http://www.w3.org/1999/xlink" x="0px" y="0px"
	 viewBox="0 0 80.4 60.875" style="enable-background:new 0 0 80.4 60.875;" xml:space="preserve">
<g id="sten_x5F_jacobsson_x5F_konsult">
	<path style="fill-rule:evenodd;clip-rule:evenodd;" d="M6.111,0.001c3.374-0.055,5.92,2.391,6.155,5.671
		c0.316,4.418-3.832,7.744-8.094,6.3c-2.301-0.779-4.273-2.981-4.168-6.107C0.079,3.638,1.14,2.183,2.525,1.164
		C3.433,0.495,4.58,0.026,6.111,0.001z"/>
	<path style="fill-rule:evenodd;clip-rule:evenodd;" d="M11.491,13.959c0.256,0.902,0.145,1.863,0.145,2.811
		c0,4.768,0.001,9.771,0,14.637c0,1.939,0.142,3.899,0,5.719c-0.026,0.335-0.056,0.491-0.194,0.775
		c0.499,1.391-0.084,3.865,0.339,5.332c0.551-0.383,0.759-1.059,1.066-1.6c0.931-1.637,1.931-3.308,2.908-4.992
		c1.285-2.216,2.688-4.412,3.877-6.689c0.35-0.669,0.648-1.337,1.018-1.987c1.779-3.131,3.633-6.386,5.525-9.5
		c0.746-1.227,1.333-2.586,2.278-3.684c0.421,0.421,0.426,1.06,0.582,1.6c2.05,7.117,4.274,14.53,6.349,21.762
		c0.309,1.078,0.538,2.23,1.115,3.199c0.254-2.18,0.145-4.458,0.146-6.737c0-6.732-0.081-13.834,0.097-20.453
		c1.285-0.234,2.809-0.161,4.168-0.146c1.408,0.016,2.943-0.106,4.265,0.146c-0.465,1.265-1.221,2.399-1.891,3.586
		c-1.602,2.841-3.292,5.709-4.943,8.676c-0.257,0.461-0.901,1.34-0.921,1.793c-0.027,0.625,0.677,1.346,0.969,1.841
		c0.385,0.653,0.665,1.184,0.969,1.793c1.61,2.555,3.128,5.225,4.702,7.852c0.517,0.862,0.964,1.785,1.647,2.521
		c0.538-0.398,0.837-1.041,1.164-1.6c3.66-6.259,7.303-12.693,10.954-18.999c0.663-1.145,1.428-2.256,1.938-3.49
		c0.248-0.6,0.631-1.176,0.969-1.745c0.331-0.556,0.561-1.236,1.115-1.6c0.786,2.193,1.411,4.473,2.084,6.737
		c1.663,5.591,3.331,11.359,4.943,17.012c0.316,1.107,0.498,2.284,1.066,3.296c0.289-1.013,0.194-2.15,0.194-3.248
		c0.001-7.965-0.08-16.504,0.097-24.33c2.012-0.325,3.892,0.436,5.089,1.405c1.276,1.034,2.181,2.37,2.617,4.12
		c0.796,3.185-0.59,5.889-2.326,7.367c-0.612,0.521-1.349,0.846-1.987,1.357c0.294,0.432,0.85,0.401,1.358,0.63
		c2.634,1.187,4.551,3.529,5.185,6.349c0.841,3.73-0.744,6.784-2.519,8.627c-0.965,1.002-2.176,1.727-3.587,2.181
		c-1.421,0.458-3.261,0.485-5.283,0.485c-11.483,0-22.777,0-34.508,0c-6.713,0-13.037-0.048-19.726-0.049
		c-0.96,0-2.101-0.128-2.714,0.049c-0.63,0.181-1.109,1.239-1.454,1.696c-0.498,0.66-0.964,1.265-1.357,1.745
		c-2.247,3.158-4.481,6.356-6.834,9.451c-0.32,0.421-0.565,1.016-1.114,1.211c-0.142-14.882-0.174-31.341,0-46.916
		C4.423,13.797,8.151,13.795,11.491,13.959z"/>
</g>
<g id="Layer_1">
</g>
</svg>
