<?xml version="1.0" encoding="iso-8859-1"?>
<!-- Generator: Adobe Illustrator 19.2.0, SVG Export Plug-In . SVG Version: 6.00 Build 0)  -->
<svg version="1.1" xmlns="http://www.w3.org/2000/svg" xmlns:xlink="http://www.w3.org/1999/xlink" x="0px" y="0px"
	 viewBox="0 0 81.205 80.947" style="enable-background:new 0 0 81.205 80.947;" xml:space="preserve">
<g id="Sterling_x5F_Life">
	<path style="fill-rule:evenodd;clip-rule:evenodd;" d="M51.213,0.155c-0.099,0.708-0.901,1.131-1.352,1.652
		c-3.722,3.941-7.587,7.737-11.418,11.568c-3.339,3.339-6.703,6.654-10.065,10.016c-0.459,0.459-0.865,1.121-1.553,1.302
		c-0.158-2.378-0.072-4.84-0.1-7.161c-0.009-0.748-0.133-1.799,0.05-2.454c0.189-0.676,1.212-1.441,1.753-2.003
		c1.851-1.927,3.845-3.689,5.559-5.608c1.673-1.572,3.803-3.703,5.659-5.559c0.553-0.554,1.448-1.743,2.103-1.853
		c0.73-0.123,1.618,0,2.404,0C46.615,0.055,48.802,0.097,51.213,0.155z"/>
	<path style="fill-rule:evenodd;clip-rule:evenodd;" d="M65.135,0.155c-0.378,0.807-1.094,1.395-1.703,2.003
		C54.257,11.331,45.068,20.7,35.839,29.901c-0.79,0.447-1.198,1.538-2.103,1.703c-0.157-2.13-0.101-4.691-0.1-7.161
		c0-0.797-0.132-1.75,0.05-2.404c0.156-0.56,0.915-1.065,1.302-1.452c0.492-0.492,0.856-0.971,1.402-1.352
		c4.754-4.804,9.476-9.627,14.272-14.422c1.585-1.585,3.075-3.27,4.807-4.707C58.667,0.159,62.177,0.007,65.135,0.155z"/>
	<path style="fill-rule:evenodd;clip-rule:evenodd;" d="M79.007,0.155c0.014,0.586-0.702,0.865-1.002,1.302
		C68.79,10.826,59.383,20.079,50.061,29.4c-2.716,2.716-5.374,5.474-8.113,8.213c-0.344,0.344-0.668,0.934-1.252,0.951
		c-0.208-3.161,0.021-6.292-0.05-9.615c1.62-1.977,3.542-3.643,5.358-5.458c0.601-0.601,1.102-1.302,1.703-1.903
		c2.395-2.396,4.816-4.766,7.211-7.161c4.791-4.791,9.504-9.659,14.422-14.323C72.524,0.141,76.07,0.033,79.007,0.155z"/>
	<path style="fill-rule:evenodd;clip-rule:evenodd;" d="M0.234,1.857c0.034,0,0.067,0,0.1,0c3.308,3.069,6.318,6.467,9.515,9.665
		c3.19,3.19,6.42,6.37,9.615,9.565c5.983,5.984,11.973,11.973,17.978,17.978c0.365,0.364,0.913,0.681,1.002,1.252
		c-3.023,0.232-6.476,0.034-9.665,0.1c-0.688-0.496-1.326-1.092-1.903-1.703c-4.056-4.291-8.308-8.308-12.569-12.57
		c-2.348-2.347-4.805-4.754-7.211-7.161c-1.121-1.121-2.202-2.402-3.505-3.706c-0.558-0.558-1.158-1.158-1.803-1.803
		c-0.514-0.514-1.551-1.362-1.703-1.853c-0.18-0.581-0.015-1.542,0-2.304c0.045-2.191-0.092-5.392,0.05-7.312
		C0.132,1.922,0.171,1.878,0.234,1.857z"/>
	<path style="fill-rule:evenodd;clip-rule:evenodd;" d="M31.482,47.328c-2.135,0.091-4.912,0.027-7.261,0.1
		c-0.799,0.025-1.769,0.13-2.404-0.05c-0.462-0.131-1.01-0.86-1.452-1.302c-5.092-5.092-10.046-9.825-14.923-15.073
		c-1.287-1.386-2.696-2.648-4.056-4.106C0.96,26.44,0.199,25.89,0.083,25.494c-0.177-0.608,0.037-1.543,0-2.354
		c-0.11-2.427,0.005-5.033,0-7.161c-0.002-0.085,0.038-0.13,0.101-0.15c0.523,0.247,1.53,1.33,2.103,1.903
		c0.698,0.698,1.354,1.383,1.953,1.953c1.393,1.323,2.597,2.773,3.856,4.006c2.71,2.654,5.348,5.243,7.912,7.812
		c4.546,4.561,9.136,9.186,13.722,13.771c0.315,0.316,0.691,0.62,1.002,0.952C31.013,46.527,31.525,46.826,31.482,47.328z"/>
	<path style="fill-rule:evenodd;clip-rule:evenodd;" d="M81.059,51.184c-0.393-0.042-0.644-0.394-0.901-0.651
		c-3.792-3.794-7.73-7.681-11.568-11.518c-2.029-2.029-4.15-4.067-6.16-6.159c-1.739-1.811-3.548-3.599-5.358-5.409
		c-0.153-0.154-0.746-0.438-0.4-0.801c1.894-0.089,4.912-0.05,7.261-0.05c0.815,0,1.722-0.114,2.304,0.05
		c0.602,0.169,1.392,1.242,1.953,1.803c3.204,3.204,6.055,6.004,9.314,9.265c0.629,0.629,1.262,1.209,1.853,1.852
		c0.503,0.548,1.576,1.335,1.753,1.953c0.179,0.628,0.05,1.556,0.05,2.404C81.16,46.256,81.239,49.155,81.059,51.184z"/>
	<path style="fill-rule:evenodd;clip-rule:evenodd;" d="M0.234,29.7c0.52,0.135,1.118,0.917,1.653,1.452
		c1.099,1.1,1.966,2.001,3.055,3.055c0.537,0.52,0.97,1.11,1.452,1.602c5.096,5.199,10.143,10.093,15.274,15.224
		c0.76,0.76,1.473,1.523,2.253,2.303c0.233,0.232,0.616,0.504,0.601,0.902c-2.361,0.153-4.619,0.05-7.211,0.05
		c-0.779,0-1.714,0.157-2.454,0c-0.623-0.132-1.432-1.286-1.953-1.803c-3.75-3.72-7.392-7.493-11.117-11.218
		c-0.62-0.619-1.298-1.2-1.753-1.953c0.028-3.215-0.076-6.52,0.1-9.465C0.132,29.765,0.171,29.721,0.234,29.7z"/>
	<path style="fill-rule:evenodd;clip-rule:evenodd;" d="M49.711,33.507c2.325,0,4.698,0,7.111,0c0.766,0,1.663-0.138,2.354,0
		c0.44,0.087,1.078,0.828,1.502,1.252c2.346,2.345,4.475,4.694,6.861,6.911c0.934,0.867,1.901,1.772,2.754,2.704
		c3.654,3.992,7.49,7.156,10.867,11.067c-0.065,3.207,0.131,6.675-0.101,9.715c-0.528,0.001-0.753-0.553-1.052-0.851
		C70.51,54.805,60.9,45.198,51.363,35.66c-0.646-0.646-1.426-1.213-1.853-2.053C49.584,33.58,49.637,33.532,49.711,33.507z"/>
	<path style="fill-rule:evenodd;clip-rule:evenodd;" d="M81.059,78.977c-0.439,0.087-0.747-0.397-1.002-0.651
		c-9.252-9.252-18.679-18.712-27.943-27.994c-0.769-0.805-1.591-1.591-2.404-2.404c-2.002-2.002-3.889-4.09-5.909-6.109
		c-0.371-0.371-0.97-0.692-1.001-1.302c1.792-0.088,4.971-0.05,7.211-0.05c0.751,0,1.64-0.08,2.254,0.05
		c0.544,0.116,1.394,1.196,1.903,1.703c8.466,8.432,16.764,16.766,25.239,25.239c0.548,0.548,1.555,1.385,1.703,1.903
		c0.179,0.627,0.05,1.571,0.05,2.404C81.16,74.089,81.24,76.939,81.059,78.977z"/>
	<path style="fill-rule:evenodd;clip-rule:evenodd;" d="M40.396,42.32c0.345,0.221,0.2,0.728,0.2,1.052c0,1.951,0,4.042,0,6.109
		c0,0.819,0.139,1.755,0,2.454c-0.111,0.562-1.173,1.424-1.703,1.953c-1.793,1.793-3.726,3.726-5.408,5.409
		c-6.045,6.045-12.062,12.062-18.078,18.078c-0.602,0.603-1.186,1.208-1.803,1.803c-0.619,0.597-1.115,1.298-1.853,1.753
		c-3.1-0.052-6.514,0.124-9.565-0.1c0.179-0.516,0.675-0.955,1.052-1.353c0.38-0.402,0.808-0.816,1.202-1.202
		c0.806-0.789,1.521-1.642,2.304-2.454c4.656-4.833,9.594-9.493,14.373-14.272c6.368-6.369,12.581-12.892,19.08-19.13
		c0.037-0.047,0.091-0.076,0.15-0.1C40.363,42.32,40.38,42.32,40.396,42.32z"/>
	<path style="fill-rule:evenodd;clip-rule:evenodd;" d="M47.257,49.281c0.041,0.01,0.05,0.05,0.1,0.05
		c0.124,2.492,0.067,4.748,0.1,7.312c0.009,0.735,0.116,1.792-0.05,2.404c-0.119,0.439-0.822,1.049-1.252,1.502
		c-3.103,3.27-6.424,6.375-9.565,9.515c-2.803,2.803-5.396,5.447-8.163,8.213c-0.909,0.909-1.774,1.883-2.804,2.654
		c-3.189-0.066-6.643,0.132-9.665-0.1c0.077-0.496,0.534-0.834,0.851-1.152c10.052-10.051,20.211-20.2,30.297-30.297
		C47.143,49.334,47.198,49.305,47.257,49.281z"/>
	<path style="fill-rule:evenodd;clip-rule:evenodd;" d="M54.118,56.242c0.034,0,0.067,0,0.1,0c0.267,1.466,0.15,3.122,0.15,4.857
		c0,0.779,0,1.652,0,2.504c0,0.799,0.136,1.76-0.05,2.404c-0.17,0.587-1.234,1.435-1.753,1.953
		c-1.877,1.877-3.882,3.538-5.559,5.559c-1.133,1.365-2.466,2.566-3.656,3.756c-1.257,1.257-2.465,2.498-3.756,3.656
		c-3.223-0.065-6.708,0.131-9.765-0.1c0.281-0.679,0.904-1.155,1.402-1.653c7.545-7.546,15.182-15.214,22.735-22.836
		C54.004,56.295,54.058,56.266,54.118,56.242z"/>
</g>
<g id="Layer_1">
</g>
</svg>
