<?xml version="1.0" encoding="iso-8859-1"?>
<!-- Generator: Adobe Illustrator 19.2.0, SVG Export Plug-In . SVG Version: 6.00 Build 0)  -->
<svg version="1.1" xmlns="http://www.w3.org/2000/svg" xmlns:xlink="http://www.w3.org/1999/xlink" x="0px" y="0px"
	 viewBox="0 0 79.002 79.321" style="enable-background:new 0 0 79.002 79.321;" xml:space="preserve">
<g id="Stichting_x5F_Collectieve_x5F_Propaganda_x5F_van_x5F_het_x5F_Nederlandse_x5F_Boek">
	<path style="fill-rule:evenodd;clip-rule:evenodd;" d="M78.723,0.04c0.375,0.952,0.253,2.089,0.253,3.193
		c0,6.815-0.087,13.691,0,20.479c0.014,1.095,0.111,2.349-0.203,3.144c-0.196,0.497-0.758,1.09-1.166,1.216
		c-0.942,0.292-2.359,0.051-3.447,0.051c-1.175,0-2.311,0.082-3.346-0.101c-0.184-1.838-0.102-3.967-0.102-6.083
		c0-2.185,0.201-4.354-0.101-6.083c-0.312-1.79-2.171-3.214-4.41-2.89c-0.458,0.065-0.965,0.482-1.521,0.456
		c-0.537-0.025-1.019-0.559-1.672-0.71c-1.453-0.335-2.484,0.237-3.549,0.812c-1.078-0.32-1.633-0.88-2.991-0.659
		c-0.78,0.127-1.319,0.743-1.876,0.761c-0.612,0.019-1.094-0.617-1.724-0.761c-1.688-0.386-3.526,0.446-3.954,1.724
		c-0.277,0.829-0.102,2.038-0.102,3.092c0,2.344,0,4.01,0,6.388c0,1.977,0.01,3.557-1.521,4.055
		c-0.786,0.257-1.931,0.152-2.889,0.152c-0.977,0-2.008-0.036-2.94-0.051c-2.106-0.032-4.155,0.225-5.931-0.102
		c-0.136-9.17-0.244-19.012,0-27.981C50.021-0.03,64.49-0.021,78.723,0.04z"/>
	<path style="fill-rule:evenodd;clip-rule:evenodd;" d="M30.516,1.358c0.544-0.146,0.957,0.173,1.419,0.151
		c0.585-0.025,1.08-0.725,1.166,0.355c0.264,3.285-0.101,6.181,0,9.378c0.138,4.384,0.051,9.055,0.051,13.585
		c0,1.626-0.014,3.233-1.217,3.295c-1.702,0.088-1.47-2.361-1.47-4.156C30.465,16.197,30.415,8.902,30.516,1.358z"/>
	<path style="fill-rule:evenodd;clip-rule:evenodd;" d="M63.769,30.607c0.439,0.247,1.421,0.188,1.876,0
		c0.254-1.142,0.052-2.333,0.101-3.65c0.084-2.244,0.063-4.672,0-7.299c-0.046-1.924-0.46-4.69,1.571-4.461
		c1.642,0.185,1.166,3.161,1.166,5.069c0,3.065,0,5.979,0,8.921c0,1.461,0.184,2.846-0.101,4.056c-9.065,0.194-18.27,0.217-27.323,0
		c-0.16-0.621-0.169-1.864,0-2.483c2.038-0.187,3.99-0.101,6.184-0.101c1.698-0.001,2.636-0.055,3.244-1.318
		c0.372-0.773,0.389-2.027,0.355-3.244c-0.067-2.419-0.051-4.129-0.051-6.793c0-1.825-0.29-4.001,1.369-4.055
		c1.908-0.064,1.612,2.345,1.622,4.258c0.015,2.721-0.048,5.028,0,7.451c0.025,1.282-0.14,2.524,0.152,3.65
		c0.362,0.274,1.357,0.274,1.774,0.051c0.232-1.108,0.202-2.341,0.152-3.6c-0.094-2.346,0-4.741,0-7.4
		c0.001-1.883-0.505-4.408,1.47-4.41c1.858-0.003,1.47,2.425,1.47,4.41c0,1.355,0,2.521,0,3.7c0,2.671-0.116,5.162,0.152,7.249
		c0.404,0.251,1.619,0.226,2.028,0c0.237-1.052,0.101-2.316,0.101-3.6c0-2.501,0.158-5.039,0.051-7.35
		c-0.081-1.731-0.484-4.406,1.217-4.512c1.747-0.108,1.267,2.606,1.267,4.359c0,1.339,0,2.573,0,3.751
		C63.617,25.949,63.5,28.471,63.769,30.607z"/>
	<path style="fill-rule:evenodd;clip-rule:evenodd;" d="M68.382,35.727c0.248,6.092,0.21,13.195,0.05,19.667
		c-0.561-0.11-0.79-0.698-1.115-1.064c-0.995-1.118-2.08-2.103-3.396-2.99c-1.678-1.132-3.683-2.184-6.184-2.383
		c-1.324-0.104-2.673-0.032-4.056-0.051c-4.053-0.052-8.358,0.128-12.571-0.102c-0.271-0.976-0.152-2.09-0.152-3.193
		c0-3.224-0.09-6.86,0.102-9.834C50.064,35.603,59.159,35.553,68.382,35.727z"/>
	<path style="fill-rule:evenodd;clip-rule:evenodd;" d="M41.211,50.883c4.4,0.042,9.731-0.229,14.194-0.051
		c4.362,0.174,7.642,2.023,9.733,4.309c2.232,2.439,3.983,5.772,3.802,10.139c-0.181,4.339-1.926,7.181-4.309,9.733
		c-2.563,2.234-5.565,4.029-10.138,3.903c-4.15-0.115-7.587-2.04-9.732-4.309c-1.145-1.211-2.098-2.664-2.788-4.259
		c-0.733-1.691-0.963-3.702-0.963-6.032c0-3.81,0-7.777,0-11.861c0-0.508-0.118-1.096,0.152-1.571
		C41.178,50.882,41.195,50.883,41.211,50.883z M51.553,63.607c-1.144,3.136,2.204,5.699,4.714,4.562
		c0.664-0.301,1.371-0.989,1.724-1.673c0.829-1.604,0.095-3.482-0.71-4.258c-0.625-0.601-1.645-1.021-2.687-0.912
		C52.917,61.502,51.933,62.566,51.553,63.607z"/>
	<path style="fill-rule:evenodd;clip-rule:evenodd;" d="M38.728,51.086c0.189,4.086,0.212,8.368,0.203,12.572
		c-0.003,1.376-0.112,2.715,0.051,4.004c0.295,2.335,1.385,4.371,2.433,6.083c1.108,1.811,2.442,3.211,4.106,4.41
		c0.333,0.411,1.039,0.448,1.216,1.015c-11.291,0.063-22.506,0.155-33.811,0.151c-3.271-0.001-5.603-1.347-7.502-2.788
		c-1.906-1.445-3.502-3.383-4.461-5.778C0.264,69.006,0,67.137,0,64.874c0-4.217,1.935-7.309,4.156-9.529
		c2.355-2.354,5.319-3.758,9.479-4.208c2.068-0.224,4.366-0.102,6.742-0.102c2.21,0,4.523-0.051,6.793-0.051
		C31.345,50.985,34.879,50.873,38.728,51.086z M12.622,62.238c-1.214,0.539-2.231,1.768-2.231,3.346
		c0,2.458,2.561,4.035,4.815,3.143c1.484-0.587,3.041-2.709,1.977-4.866c-0.41-0.83-1.658-1.918-3.143-1.875
		C13.509,62,12.963,62.087,12.622,62.238z"/>
	<path style="fill-rule:evenodd;clip-rule:evenodd;" d="M54.543,63.404c2.525-0.372,2.164,3.138,0.102,2.89
		C53.228,66.123,52.813,63.685,54.543,63.404z"/>
	<path style="fill-rule:evenodd;clip-rule:evenodd;" d="M13.788,63.911c2.352-0.333,2.309,3.425,0,3.143
		c-0.658-0.08-1.481-0.741-1.419-1.724C12.418,64.552,13.027,64.019,13.788,63.911z"/>
</g>
<g id="Layer_1">
</g>
</svg>
