<?xml version="1.0" encoding="iso-8859-1"?>
<!-- Generator: Adobe Illustrator 19.2.0, SVG Export Plug-In . SVG Version: 6.00 Build 0)  -->
<svg version="1.1" xmlns="http://www.w3.org/2000/svg" xmlns:xlink="http://www.w3.org/1999/xlink" x="0px" y="0px"
	 viewBox="0 0 79.633 79.591" style="enable-background:new 0 0 79.633 79.591;" xml:space="preserve">
<g id="Stiftung_x5F_Volkswagenwerk">
	<path style="fill-rule:evenodd;clip-rule:evenodd;" d="M77.703,0.255c0.26,0.915,0.206,2.626,0.052,3.618
		c-5.112,0.194-10.202,0.127-15.246,0.052c-2.521-0.037-5.078-0.076-7.598,0c-2.521,0.076-5.041-0.061-7.598,0
		c-5.205,0.125-10.418-0.121-14.73,0.879c-4.179,0.969-7.987,2.383-11.216,4.393c-6.224,3.875-11.503,9.641-14.523,16.694
		C4.63,31.061,3.156,38.791,4.466,45.996c0.196,1.079,0.428,2.148,0.724,3.153c0.296,1.003,0.734,1.961,0.775,2.998
		c-1.046,0.348-2.78,0.065-3.876,0.104c-0.68-1.314-1.03-2.847-1.293-4.394c-0.275-1.627-0.535-3.281-0.671-5.013
		C-0.748,31.704,3.079,22.94,7.671,16.639c3.255-4.468,7.053-8.007,11.836-10.906C24.24,2.865,29.921,0.536,36.562,0.1
		c0.08-0.005,0.091-0.051,0.155-0.052C50.292-0.125,64.554,0.22,77.703,0.255z"/>
	<path style="fill-rule:evenodd;clip-rule:evenodd;" d="M77.703,7.078c0.2,1.047,0.198,2.521,0.052,3.618
		c-1.084,0.276-2.249,0.155-3.359,0.155c-7.893,0-16.096-0.052-24.085-0.052c-4.904,0.001-9.323-0.188-13.644,0.207
		c-4.094,0.373-7.368,1.744-10.492,3.411c-5.896,3.147-10.574,8.281-13.18,14.679c-1.342,3.294-2.302,7.385-2.067,11.784
		c0.182,3.401,0.718,6.17,1.654,8.787c0.296,0.829,0.819,1.613,0.827,2.533c-1.078,0.197-2.716,0.11-3.877,0.052
		c-0.521-0.438-0.692-1.184-0.931-1.861c-1.623-4.612-2.285-11.432-1.033-17.107c1.351-6.122,3.925-11.068,7.391-14.885
		c3.613-4.014,7.61-7.242,12.974-9.303c1.323-0.509,2.793-0.874,4.289-1.292c1.471-0.412,3.06-0.783,4.651-0.879
		c1.78-0.108,3.654-0.001,5.582,0C53.931,6.923,66.043,6.825,77.703,7.078z"/>
	<path style="fill-rule:evenodd;clip-rule:evenodd;" d="M77.755,13.693c0.169,1.075,0.169,2.802,0,3.876
		c-11.612,0.135-24.161,0.103-36.386,0.104c-4.218,0-7.468,0.609-10.389,1.912c-5.602,2.5-9.772,7.048-11.888,12.766
		c-1.118,3.024-1.658,7.063-1.085,10.802c0.407,2.657,1.188,4.978,2.274,6.977c0.347,0.639,0.962,1.197,1.033,2.016
		c-1.086,0.31-2.933,0.132-4.187,0.104c-0.892-0.598-1.13-1.742-1.55-2.688c-0.435-0.977-0.807-2.024-1.086-3.101
		c-0.576-2.217-0.997-4.822-0.879-7.495c0.222-5.01,1.848-9.55,3.928-12.87c2.042-3.257,4.896-6.284,8.373-8.424
		c3.548-2.184,7.795-3.949,12.818-4.186c3.163-0.149,6.382,0.129,9.613,0c3.265-0.13,6.576,0.035,9.872,0.052
		C64.726,13.572,71.257,13.481,77.755,13.693z"/>
	<path style="fill-rule:evenodd;clip-rule:evenodd;" d="M77.703,20.464c0.259,0.996,0.21,2.804,0.052,3.876
		c-8.155,0.418-17.363-0.147-25.273,0.155c-0.167,0.435,0.325,0.702,0.568,0.93c0.781,0.732,1.523,1.582,2.223,2.43
		c1.692,2.186,2.994,4.831,3.67,8.011c0.717,3.379,0.404,7.228-0.621,10.182c-1.915,5.521-5.917,9.771-11.422,11.888
		c-1.435,0.552-3.007,0.981-4.651,1.189c-1.747,0.222-3.613,0.125-5.634,0.103c-11.427-0.12-23.202,0.142-34.422-0.155
		c-0.173-1.138-0.166-2.944,0-4.083c8.046-0.282,16.958,0.067,25.067-0.155c-0.055-0.589-0.643-0.893-0.983-1.24
		c-3.222-3.292-5.933-8.027-5.789-14.575c0.03-1.361,0.309-2.8,0.62-3.928c0.641-2.325,1.601-4.343,2.843-6.254
		c2.431-3.738,5.818-6.146,10.544-7.649c3.645-1.159,8.129-0.878,12.662-0.878C57.269,20.309,67.675,20.251,77.703,20.464z
		 M41.886,29.56c0.341-0.704,0.706-1.415,1.034-2.119c0.339-0.729,0.759-1.433,0.878-2.222c-0.329-0.526-1.164-0.519-1.86-0.62
		c-0.741-0.108-1.556-0.211-2.325-0.207c-1.602,0.008-3.394,0.183-4.29,0.879c0.037,0.883,0.53,1.601,0.878,2.326
		c0.689,1.435,1.512,2.772,2.223,4.187c0.338,0.673,0.551,1.573,1.292,1.964C40.655,32.537,41.193,30.991,41.886,29.56z
		 M46.331,43.256c0.293-0.563,0.594-1.129,0.879-1.705c1.445-2.924,2.626-5.899,4.135-8.787c0.285-0.545,0.77-1.316,0.724-1.861
		c-0.055-0.619-0.996-1.512-1.603-2.119c-0.551-0.551-1.343-1.426-2.119-1.602c-0.473-0.108-0.826,1.096-1.033,1.551
		c-1.206,2.632-2.49,5.201-3.722,7.649c-0.529,1.052-0.819,2.197-1.603,2.946c-1.382-0.145-3.428,0.584-4.651,0.052
		c-0.435-0.189-0.729-0.904-1.034-1.499c-0.303-0.589-0.692-1.193-0.879-1.654c-0.689-1.706-1.539-3.14-2.377-4.807
		c-0.34-0.676-0.704-1.361-1.033-2.016c-0.343-0.681-0.532-1.58-1.241-1.86c-0.813,0.374-1.492,1.025-2.067,1.654
		c-0.583,0.638-1.156,1.362-1.55,2.171c0.415,1.25,1.059,2.403,1.653,3.566c1.189,2.327,2.428,4.605,3.566,6.926
		c0.564,1.151,1.105,2.359,1.912,3.359c0.676-0.358,0.868-1.199,1.086-2.016c0.356-0.453,0.524-1.001,0.826-1.602
		c0.204-0.404,0.552-1.339,0.982-1.499C37.863,39.851,38.89,40,39.767,40c0.9,0,1.807-0.062,2.584,0.104
		c0.586,0.673,1.048,1.526,1.499,2.377c0.442,0.833,0.721,1.847,1.499,2.377C45.918,44.529,46.043,43.81,46.331,43.256z
		 M54.342,37.158c-0.405,0.515-0.634,1.3-0.981,1.964c-0.344,0.656-0.656,1.33-0.982,1.964c-1.71,3.326-3.309,6.635-4.807,9.923
		c-0.309,0.678-0.758,1.309-0.775,2.067c0.656,0.042,1.199-0.471,1.706-0.827c0.53-0.374,1.045-0.752,1.498-1.189
		c2.615-2.52,5.066-6.188,5.065-11.009c0-1.017-0.108-2.213-0.465-2.998c-0.035,0-0.069,0-0.104,0
		C54.435,37.079,54.38,37.109,54.342,37.158z M32.272,51.267c-1.759-3.297-3.348-6.469-5.168-9.716
		c-0.314-0.559-0.624-1.224-1.034-1.913c-0.333-0.559-0.787-1.684-1.24-1.809c-0.074,0.029-0.126,0.081-0.155,0.155
		c-0.135,0.521-0.2,1.055-0.207,1.551c-0.03,2.255,0.406,4.366,1.138,6.15c1.271,3.102,3.613,5.465,6.306,7.081
		c0.369,0.221,0.775,0.66,1.24,0.465C33.094,52.503,32.608,51.898,32.272,51.267z M37.958,54.989
		c1.985,0.185,4.347-0.005,5.84-0.465c0.317-0.098,0.808-0.157,0.879-0.517c-0.144-0.84-0.64-1.58-1.033-2.326
		c-1.213-2.297-2.46-4.604-3.722-6.822c-0.034,0-0.068,0-0.104,0c-0.013-0.133-0.089,0.071-0.206,0
		c-0.929,1.433-1.543,2.996-2.326,4.497c-0.781,1.495-1.737,2.952-2.067,4.807C35.812,54.697,36.934,54.893,37.958,54.989z"/>
	<path style="fill-rule:evenodd;clip-rule:evenodd;" d="M62.767,26.976c0.936,1.211,1.635,2.846,2.171,4.548
		c0.535,1.7,0.965,3.605,1.137,5.53c0.379,4.247-0.208,8.293-1.395,11.681C62.399,55.24,57.796,59.985,52.171,63
		c-2.906,1.508-6.252,2.703-10.337,3.049c-2.08,0.177-4.274,0.052-6.563,0.052c-9.926,0-19.839-0.053-29.926-0.052
		c-1.046,0-2.143,0.125-3.152-0.155c-0.062-1.082-0.169-2.752,0-3.877c11.848-0.255,24.521-0.051,36.696-0.051
		c3.988,0,7.366-0.633,10.285-2.068c5.512-2.708,9.701-6.801,11.784-12.973c1.07-3.171,1.58-7.034,0.93-10.854
		c-0.448-2.638-1.347-4.873-2.429-6.875c-0.348-0.643-0.87-1.268-0.982-2.067c0.354-0.284,0.931-0.134,1.396-0.155
		C60.804,26.933,61.852,26.892,62.767,26.976z"/>
	<path style="fill-rule:evenodd;clip-rule:evenodd;" d="M66.488,26.976c1.274,0.034,2.706-0.088,3.824,0.104
		c1.69,3.308,2.565,7.708,2.636,12.353c0.071,4.63-0.891,9.118-2.325,12.508c-2.981,7.044-7.516,12.583-13.749,16.177
		c-3.139,1.858-6.68,3.259-10.905,4.083c-4.288,0.836-9.146,0.517-14.316,0.517c-9.931-0.001-20.163,0.034-29.46-0.155
		c-0.165-1.038-0.173-2.736,0-3.773c9.119-0.194,18.414-0.104,27.703-0.103c2.368,0,4.724-0.063,6.977,0
		c4.742,0.132,8.888-0.128,12.404-1.447c1.685-0.631,3.369-1.258,4.859-2.119c6.08-3.515,10.229-8.475,12.921-14.988
		c2.021-4.89,2.56-12.092,0.931-17.935c-0.354-1.271-0.805-2.583-1.345-3.876c-0.155-0.373-0.601-0.972-0.31-1.24
		C66.371,27.031,66.427,27.001,66.488,26.976z"/>
	<path style="fill-rule:evenodd;clip-rule:evenodd;" d="M2.192,79.332c-0.173-1.092-0.15-2.686,0-3.67
		c5.045-0.188,10.284-0.104,15.505-0.103c5.202,0.001,10.425-0.097,15.402,0c2.701,0.053,5.308,0.06,7.804,0
		c2.503-0.06,4.778-0.436,6.926-0.878c4.148-0.854,7.886-2.479,11.113-4.497c6.08-3.801,11.456-9.818,14.265-16.953
		c1.444-3.669,2.501-8.116,2.636-12.973c0.12-4.326-0.773-8.517-1.86-11.836c-0.127-0.387-0.533-0.994-0.104-1.396
		c1.092-0.033,2.743-0.199,3.67,0.104c0.427,0.383,0.44,1.027,0.568,1.55c0.392,1.606,0.818,3.319,1.085,5.117
		c0.737,4.962,0.518,10.466-0.568,15.041c-0.552,2.324-1.121,4.495-1.912,6.357c-4.883,11.495-13.816,19.533-26.67,23.051
		c-2.17,0.594-4.523,1.045-7.029,1.241c-2.519,0.197-5.211,0.052-8.011,0.052c-10.153-0.001-20.761-0.051-30.907-0.052
		C3.472,79.488,2.784,79.607,2.192,79.332z"/>
</g>
<g id="Layer_1">
</g>
</svg>
