<?xml version="1.0" encoding="iso-8859-1"?>
<!-- Generator: Adobe Illustrator 19.2.0, SVG Export Plug-In . SVG Version: 6.00 Build 0)  -->
<svg version="1.1" xmlns="http://www.w3.org/2000/svg" xmlns:xlink="http://www.w3.org/1999/xlink" x="0px" y="0px"
	 viewBox="0 0 138.754 71.388" style="enable-background:new 0 0 138.754 71.388;" xml:space="preserve">
<g id="Stimmabgabe">
	<path style="fill-rule:evenodd;clip-rule:evenodd;" d="M16.915,35.354c6.825,7.247,14.079,14.422,21.208,21.687
		c1.858,1.894,4.514,3.87,3.954,7.788c-0.551,3.856-6.276,8.353-10.903,4.912c-2.682-1.994-5.154-5.189-7.549-7.668
		c-4.767-4.936-10.381-10.047-15.217-15.217C5.96,44.239,2.65,41.603,0.98,39.068c-1.078-1.637-1.309-4.22-0.478-6.35
		c1.113-2.858,5.171-5.773,7.428-8.148c2.699-2.839,5.542-5.328,7.908-7.668c2.743-2.713,5.195-5.196,7.788-7.788
		c2.548-2.548,4.887-5.739,7.668-7.788c6.282-4.627,13.973,3.875,9.825,9.825c-1.363,1.957-4.227,4.334-5.99,6.111
		C29.21,23.226,22.417,29.296,16.915,35.354z"/>
	<path style="fill-rule:evenodd;clip-rule:evenodd;" d="M121.755,35.713c-6.26-6.866-12.674-12.707-19.29-19.65
		c-1.972-2.069-5.385-4.654-5.871-7.069c-1.017-5.045,4.645-10.8,10.064-7.908c2.535,1.353,6.017,5.641,8.147,7.788
		c6.364,6.416,13.444,13.346,19.89,20.009c2.169,2.243,5.062,4.613,3.714,9.226c-0.351,1.205-2.401,3.244-3.594,4.433
		c-6.596,6.578-13.535,13.664-20.01,20.009c-2.531,2.48-5.114,6.17-8.027,7.908c-6.279,3.746-13.562-4.68-9.106-10.424
		c1.693-2.184,4.184-4.024,6.11-5.991C109.565,48.146,116.162,41.511,121.755,35.713z"/>
	<path style="fill-rule:evenodd;clip-rule:evenodd;" d="M47.11,17.861c2.627-0.567,7.508-0.12,11.143-0.12
		c7.29,0.001,14.718,0,22.047,0c3.131,0,7.774-0.659,10.783,0.12c3.558,0.92,5.861,5.635,4.073,9.825
		c-0.47,1.101-2.061,2.754-3.714,3.355c-2.363,0.86-7.737,0.413-10.903,0.359c-8.585-0.146-15.37,0.027-23.364,0
		c-6.458-0.021-12.757,0.873-14.617-4.074C41.062,23.353,43.079,18.73,47.11,17.861z"/>
	<path style="fill-rule:evenodd;clip-rule:evenodd;" d="M48.547,39.308c3.433-0.292,7.587-0.175,10.783-0.12
		c6.723,0.116,13.864,0.12,22.406,0.12c5.434,0,11.355-0.537,13.419,3.235c2.438,4.455-0.411,9.76-4.073,10.664
		c-2.676,0.66-7.021,0.245-10.305,0.12c-6.838-0.26-14.809,0-22.285,0c-5.669,0-12.247,0.627-14.618-2.157
		c-1.894-2.225-1.984-6.928-0.239-9.346C44.437,40.712,46.549,39.478,48.547,39.308z"/>
</g>
<g id="Layer_1">
</g>
</svg>
