<?xml version="1.0" encoding="iso-8859-1"?>
<!-- Generator: Adobe Illustrator 21.0.2, SVG Export Plug-In . SVG Version: 6.00 Build 0)  -->
<svg version="1.1" xmlns="http://www.w3.org/2000/svg" xmlns:xlink="http://www.w3.org/1999/xlink" x="0px" y="0px"
	 viewBox="0 0 22.677 16.99" style="enable-background:new 0 0 22.677 16.99;" xml:space="preserve">
<g id="Stock">
	<path d="M0.004,5.233C0.105,2.51,2.481,0.087,5.215,0.005C5.207,1.726,5.208,3.447,5.199,5.169
		c0.012,0.075-0.079,0.094-0.134,0.088C3.378,5.258,1.69,5.262,0.004,5.233z"/>
	<path d="M5.819,5.256C5.918,2.525,8.3,0.112,11.036,0.008c-0.009,1.752-0.009,3.503-0.015,5.255
		C9.287,5.262,7.553,5.262,5.819,5.256z"/>
	<path d="M13.971,0.017c0.913-0.108,1.861,0.303,2.391,1.056c0.593,0.805,0.659,1.949,0.18,2.823
		c-0.556,1.052-1.888,1.634-3.031,1.259c-1.275-0.367-2.109-1.804-1.793-3.094C11.951,1.004,12.884,0.128,13.971,0.017z"/>
	<path d="M0,5.844C1.733,5.861,3.47,5.811,5.201,5.87c-0.025,1.742-0.043,3.484-0.039,5.227C2.422,11.026,0.07,8.563,0,5.844z"/>
	<path d="M5.814,5.862c1.736-0.022,3.472-0.015,5.207,0.011c0.005,1.752-0.041,3.502-0.036,5.253
		C8.253,11.004,5.897,8.591,5.814,5.862z"/>
	<path d="M11.654,5.867c2.741,0.086,5.099,2.538,5.181,5.262c-1.732,0.003-3.464-0.002-5.197-0.008
		C11.625,9.37,11.65,7.618,11.654,5.867z"/>
	<path d="M17.501,5.872c2.732,0.119,5.128,2.541,5.177,5.283c-1.736,0.013-3.471-0.015-5.206-0.024
		C17.448,9.378,17.507,7.626,17.501,5.872z"/>
	<path d="M8.027,11.778c1.235-0.215,2.518,0.625,2.855,1.825c0.322,1.035-0.034,2.287-0.967,2.884
		c-1.098,0.857-2.806,0.541-3.619-0.554c-0.348-0.502-0.523-1.12-0.477-1.731C5.861,13.007,6.844,11.936,8.027,11.778z"/>
	<path d="M11.63,16.98c0.006-1.746,0-3.492,0.009-5.238c1.734,0.011,3.47-0.01,5.202,0.028c-0.091,1.697-1.007,3.315-2.405,4.279
		C13.584,16.558,12.63,16.931,11.63,16.98z"/>
	<path d="M17.464,11.774c1.737-0.008,3.475,0.002,5.212,0.007c-0.061,1.775-1.077,3.506-2.613,4.406
		c-0.804,0.432-1.674,0.777-2.6,0.803C17.465,15.251,17.47,13.512,17.464,11.774z"/>
</g>
<g id="Layer_1">
</g>
</svg>
