<?xml version="1.0" encoding="iso-8859-1"?>
<!-- Generator: Adobe Illustrator 19.2.0, SVG Export Plug-In . SVG Version: 6.00 Build 0)  -->
<svg version="1.1" xmlns="http://www.w3.org/2000/svg" xmlns:xlink="http://www.w3.org/1999/xlink" x="0px" y="0px"
	 viewBox="0 0 81.769 81.571" style="enable-background:new 0 0 81.769 81.571;" xml:space="preserve">
<g id="strafford-corley_x5F_realtors">
	<path style="fill-rule:evenodd;clip-rule:evenodd;" d="M57.972,0.165c0.173,4.068,0.156,8.496,0.052,12.325
		c-0.869,0.276-1.816,0.154-2.711,0.154c-13.992-0.005-28.466,0.014-42.448,0.204c-0.302,5.225-0.104,10.987-0.102,16.621
		c0.001,5.679-0.086,11.458,0.102,16.979c15.102,0.311,30.688-0.153,45.159,0.103c0.191,3.936,0.241,8.338,0.051,12.376
		c-14.369,0.179-29.073,0.201-43.471,0.204c-2.423,0.001-4.861,0.068-7.263,0c-2.385-0.067-4.768,0.272-7.108-0.102
		c-0.21-4.727-0.152-9.308-0.153-14.27c-0.002-10.07-0.116-19.947,0-29.713c0.059-4.931-0.273-9.921,0.102-14.78
		c6.425-0.321,13.294,0.121,20.15-0.153c6.825-0.273,13.753,0.315,20.559,0C46.605-0.15,52.394,0.121,57.972,0.165z"/>
	<path style="fill-rule:evenodd;clip-rule:evenodd;" d="M81.548,22.719c0.225,9.77,0.154,19.405,0.154,29.305
		c0,9.871,0.179,19.497-0.052,29.356c-18.999,0.161-38.391,0.282-57.688,0.103c-0.149-3.947-0.219-8.408,0-12.274
		c14.832-0.369,30.125,0.03,45.107-0.357c0.278-1.269,0.153-2.707,0.154-4.194c0.002-9.919-0.005-19.372-0.154-29.304
		c-1.818-0.309-3.704-0.118-5.574-0.103c-5.447,0.045-11.267-0.134-17.03-0.052c-5.718,0.082-11.376,0.051-17.081,0.052
		c-1.867,0-3.714,0.187-5.524-0.103c-0.185-2.89-0.102-6.245-0.102-9.359c0-1.019-0.121-2.06,0.153-2.966
		C43.028,22.666,62.336,22.51,81.548,22.719z"/>
</g>
<g id="Layer_1">
</g>
</svg>
