<?xml version="1.0" encoding="iso-8859-1"?>
<!-- Generator: Adobe Illustrator 19.2.0, SVG Export Plug-In . SVG Version: 6.00 Build 0)  -->
<svg version="1.1" xmlns="http://www.w3.org/2000/svg" xmlns:xlink="http://www.w3.org/1999/xlink" x="0px" y="0px"
	 viewBox="0 0 79.25 73.844" style="enable-background:new 0 0 79.25 73.844;" xml:space="preserve">
<g id="Studio_x5F_Kaminski">
	<path style="fill-rule:evenodd;clip-rule:evenodd;" d="M60.868,0.087c-0.079,0.533-0.601,0.898-0.942,1.24
		c-5.624,5.624-11.354,11.445-16.958,17.156c-3.051,2.978-6.037,6.086-9.074,9.124c-2.648,2.648-5.211,5.359-7.884,8.032
		c-0.341,0.34-0.643,0.9-1.191,0.942c-0.121-11.896-0.291-24.167-0.099-36.346c4.572-0.263,9.264-0.149,13.982-0.149
		c2.275,0,4.597-0.049,6.893-0.049C50.908,0.038,55.831-0.074,60.868,0.087z"/>
	<path style="fill-rule:evenodd;clip-rule:evenodd;" d="M12.422,0.285c0.217,3.852,0.224,8.435,0.05,12.347
		c-0.931,0.262-1.985,0.149-3.024,0.149c-3.003,0-6.386,0.08-9.272-0.1c-0.25-0.882-0.148-1.913-0.148-2.975
		c0-2.608,0-5.403,0-8.083c0-0.462-0.135-1.031,0.198-1.388C4.019,0.194,8.563,0.082,12.422,0.285z"/>
	<path style="fill-rule:evenodd;clip-rule:evenodd;" d="M78.767,0.335c0.324,0.184,0.239,0.674,0.248,0.942
		c0.09,2.618,0,5.38,0,7.983c-0.002,21.288,0.347,42.703,0.198,63.865c-0.546,0.007-0.852-0.629-1.239-0.942
		C72.3,66.552,66.865,60.683,61.115,55.127c-2.995-3.03-5.938-5.988-9.024-9.074c-2.602-2.603-5.138-5.236-7.884-7.983
		c-0.354-0.354-1.032-0.852-1.041-1.19c-0.008-0.298,0.645-0.908,0.991-1.29c1.066-1.175,2.301-2.301,3.372-3.372
		c10.424-10.424,20.753-21.387,31.04-31.783C78.601,0.368,78.675,0.342,78.767,0.335z"/>
	<path style="fill-rule:evenodd;clip-rule:evenodd;" d="M12.472,15.509c0.265,3.67,0.193,8.497,0.05,12.396
		c-1.915,0.192-4.05,0.148-6.198,0.149c-2.099,0-4.279,0.119-6.148-0.149c-0.032-4.019-0.236-8.39,0-12.347
		C4.092,15.388,8.754,15.414,12.472,15.509z"/>
	<path style="fill-rule:evenodd;clip-rule:evenodd;" d="M12.522,30.78c0.235,3.917,0.244,8.637,0.05,12.396
		c-3.641,0.26-8.429,0.195-12.298,0.049c-0.217-2.739-0.053-5.746-0.099-8.577c-0.021-1.304-0.204-2.632,0.05-3.818
		C4.213,30.642,8.814,30.71,12.522,30.78z"/>
	<path style="fill-rule:evenodd;clip-rule:evenodd;" d="M24.919,37.177c0.033,0,0.066,0,0.099,0c2.946,2.724,5.645,5.694,8.48,8.528
		c8.469,8.468,17.161,16.81,25.586,25.388c0.405,0.314,0.808,0.709,1.189,1.091c0.353,0.353,0.856,0.729,0.893,1.239
		c-12.06,0.128-23.899,0.284-36.147,0.1c-0.174-2.97-0.198-5.987-0.198-9.024c0-7.228-0.05-14.885-0.05-22.561
		c0.001-1.561-0.04-3.206,0.05-4.612C24.817,37.241,24.856,37.196,24.919,37.177z"/>
	<path style="fill-rule:evenodd;clip-rule:evenodd;" d="M12.572,46.103c0.269,1.883,0.125,4.091,0.198,6.197
		c0.036,1.055,0.011,2.156,0,3.174c-0.012,1.027,0.11,2.034-0.148,2.926c-1.926,0.16-4.07,0.149-6.199,0.149
		c-2.102,0-4.268,0.12-6.148-0.149c-0.039-3.025-0.099-6.337-0.099-9.421c0-1.001-0.151-2.069,0.198-2.926
		C4.163,46.028,8.715,45.888,12.572,46.103z"/>
	<path style="fill-rule:evenodd;clip-rule:evenodd;" d="M12.671,61.325c0.131,4.063,0.238,8.388,0.05,12.346
		c-1.885,0.221-4.037,0.149-6.148,0.149c-2.127,0-4.27,0.11-6.148-0.149c-0.312-1.959-0.077-4.148-0.149-6.247
		c-0.071-2.08-0.129-4.188,0.1-6.099c3.384-0.255,7.506-0.001,10.958-0.1C11.738,61.214,12.275,61.068,12.671,61.325z"/>
</g>
<g id="Layer_1">
</g>
</svg>
