<?xml version="1.0" encoding="iso-8859-1"?>
<!-- Generator: Adobe Illustrator 19.2.0, SVG Export Plug-In . SVG Version: 6.00 Build 0)  -->
<svg version="1.1" xmlns="http://www.w3.org/2000/svg" xmlns:xlink="http://www.w3.org/1999/xlink" x="0px" y="0px"
	 viewBox="0 0 79.527 66.7" style="enable-background:new 0 0 79.527 66.7;" xml:space="preserve">
<g id="Studio_x5F_Troisi">
	<path style="fill-rule:evenodd;clip-rule:evenodd;" d="M36.938,0.45c-0.077,0.441-0.648,0.296-0.9,0.3
		c-8.853,0.135-18.108-0.1-26.974-0.1c-2.271,0-4.398-0.05-6.856-0.05c-0.712,0-1.479,0.046-2.151-0.2
		C0.08-0.025,0.85,0.064,1.157,0.05c3.263-0.154,6.712,0.1,10.109,0.1C19.203,0.15,27.327,0.2,35.588,0.2
		C36.01,0.2,36.607,0.051,36.938,0.45z"/>
	<path style="fill-rule:evenodd;clip-rule:evenodd;" d="M79.527,0.6c-0.345,0.554-1.343,0.277-2.053,0.25
		C75.217,0.766,72.76,0.9,70.369,0.9c-8.589,0-17.127-0.15-25.724-0.15c-0.354,0-0.823,0.008-1.201,0
		c-0.24-0.005-0.82,0.146-0.801-0.35c0.066-0.018,0.079-0.088,0.15-0.1c11.37-0.119,22.604,0.05,34.181,0.05
		c0.438,0,0.895,0.028,1.352,0.05C78.697,0.417,79.23,0.236,79.527,0.6z"/>
	<path style="fill-rule:evenodd;clip-rule:evenodd;" d="M0.306,5.204c9.086,0.044,18.508,0.1,27.674,0.1
		c2.691,0,5.321,0.022,8.008,0.05c0.258,0.003,0.766-0.143,0.9,0.251c-0.163,0.39-0.676,0.247-0.95,0.25
		c-11.24,0.117-22.706-0.15-33.98-0.15c-0.329,0-0.82,0.022-1.201,0c-0.198-0.011-0.825,0.088-0.65-0.4
		C0.18,5.278,0.232,5.23,0.306,5.204z"/>
	<path style="fill-rule:evenodd;clip-rule:evenodd;" d="M79.476,5.755c-0.146,0.397-0.676,0.249-0.95,0.25
		c-11.205,0.06-22.4-0.15-33.681-0.15c-0.729,0-1.508,0.123-2.202-0.15c0.321-0.522,1.26-0.3,1.952-0.3c10.63,0,22.13,0.1,33.08,0.1
		c0.312,0,0.719-0.012,1.051,0C78.955,5.513,79.385,5.386,79.476,5.755z"/>
	<path style="fill-rule:evenodd;clip-rule:evenodd;" d="M0.306,10.309c9.188,0.027,18.71,0.1,27.824,0.1
		c2.725,0,5.214,0.022,7.907,0.05c0.274,0.003,0.756-0.136,0.9,0.25c-0.146,0.404-0.68,0.25-0.95,0.25c-2.735,0-5.464,0.019-8.107,0
		c-7.817-0.057-15.644-0.1-23.671-0.1c-1.066,0-2.193,0.007-3.453-0.05c-0.208-0.009-0.831,0.12-0.65-0.4
		C0.18,10.383,0.232,10.334,0.306,10.309z"/>
	<path style="fill-rule:evenodd;clip-rule:evenodd;" d="M79.527,10.909c-0.235,0.328-0.678,0.2-1.001,0.2
		c-11.232,0-22.455-0.1-33.83-0.1c-0.708,0-1.602,0.189-2.053-0.25c-0.004-0.273,0.268-0.278,0.451-0.3c0.911-0.11,1.972,0,3.003,0
		c7.054,0,14.419,0.15,21.719,0.15c3.619,0,7.036-0.12,10.51,0C78.687,10.621,79.328,10.403,79.527,10.909z"/>
	<path style="fill-rule:evenodd;clip-rule:evenodd;" d="M36.888,15.764c-0.113,0.43-0.695,0.25-0.95,0.25c-2.671,0-5.516,0-8.258,0
		c-3.072,0-6.225,0.071-9.258-0.05c-4.619-0.185-9.288-0.05-13.913-0.05c-1.176,0-2.358-0.007-3.503-0.05
		c-0.296-0.011-0.757,0.146-0.95-0.2c0.143-0.37,1.321-0.3,1.751-0.3c3.041,0,6.185,0.122,9.358,0.1
		c8.103-0.055,16.151,0.05,24.321,0.05C35.932,15.513,36.528,15.391,36.888,15.764z"/>
	<path style="fill-rule:evenodd;clip-rule:evenodd;" d="M79.476,15.914c-0.078,0.447-0.593,0.255-0.851,0.251
		c-5.814-0.117-11.906-0.05-17.615-0.05c-5.341,0-10.968-0.05-16.515-0.05c-0.61,0-1.867,0.26-1.853-0.4
		c0.041-0.01,0.051-0.05,0.101-0.05c11.422-0.124,23.171,0.05,34.681,0.05c0.355,0,0.731,0.032,1.102,0.05
		C78.808,15.727,79.285,15.566,79.476,15.914z"/>
	<path style="fill-rule:evenodd;clip-rule:evenodd;" d="M36.888,20.868c-0.06,0.443-0.641,0.298-0.95,0.3
		c-10.302,0.055-21.333-0.1-32.129-0.1c-0.657,0-1.341-0.019-2.002-0.05c-0.582-0.028-1.321,0.22-1.802-0.25
		c0.286-0.471,1.453-0.196,2.052-0.251c0.077-0.007,0.089-0.049,0.15-0.05c2.926-0.046,5.888,0.1,8.857,0.1
		c8.143,0,16.587,0.055,24.923,0.1C36.252,20.669,36.717,20.533,36.888,20.868z"/>
	<path style="fill-rule:evenodd;clip-rule:evenodd;" d="M79.476,21.018c-0.036,0.479-0.665,0.299-0.9,0.3
		c-11.035,0.059-22.733-0.1-33.88-0.1c-0.682,0-1.519,0.19-2.103-0.25c0.057-0.268,0.275-0.273,0.501-0.3
		c1.861-0.224,4.097,0,6.055,0c9.306,0,18.306,0.1,27.375,0.1c0.514,0,1.024,0.025,1.552,0.05
		C78.51,20.838,79.101,20.642,79.476,21.018z"/>
	<path style="fill-rule:evenodd;clip-rule:evenodd;" d="M36.888,26.022c-0.421,0.441-1.347,0.25-2.102,0.25
		c-11.127,0-22.525-0.032-33.83-0.15c-0.268-0.002-0.758,0.137-0.9-0.25c0.074-0.159,0.302-0.166,0.55-0.15
		c10.801-0.034,22.724,0.1,33.63,0.1C35.097,25.822,36.061,25.664,36.888,26.022z"/>
	<path style="fill-rule:evenodd;clip-rule:evenodd;" d="M42.894,25.873c11.936,0.163,23.551-0.141,35.732,0.1
		c0.251,0.005,0.782-0.13,0.851,0.3c-0.702,0.274-1.512,0.15-2.252,0.15c-8.756,0-16.823-0.1-25.673-0.1
		c-2.579,0-5.516,0.112-8.157,0c-0.172-0.008-0.81,0.119-0.7-0.35C42.768,25.947,42.82,25.898,42.894,25.873z"/>
	<path style="fill-rule:evenodd;clip-rule:evenodd;" d="M0.257,30.627c11.653,0.104,23.899,0.026,35.732,0.15
		c0.264,0.003,0.76-0.136,0.9,0.25c-0.422,0.441-1.376,0.25-2.152,0.25c-10.763,0-21.904-0.15-32.828-0.15
		c-0.33,0-0.815,0.019-1.201,0c-0.21-0.011-0.83,0.109-0.65-0.4C0.13,30.701,0.182,30.653,0.257,30.627z"/>
	<path style="fill-rule:evenodd;clip-rule:evenodd;" d="M79.476,31.227c-0.52,0.384-1.61,0.172-2.302,0.15
		c-2.86-0.09-5.837,0.145-8.857,0.05c-5.653-0.177-11.634-0.1-17.516-0.1c-2.161,0-4.302,0.06-6.356,0
		c-0.608-0.018-1.331,0.141-1.852-0.25c0.119-0.4,1.067-0.254,1.452-0.3c0.653-0.079,1.415,0.015,2.151,0
		c2.129-0.042,4.447,0.05,6.706,0.05c8.222,0,16.378,0.101,24.672,0.101C78.218,30.927,79.159,30.711,79.476,31.227z"/>
	<path style="fill-rule:evenodd;clip-rule:evenodd;" d="M0.206,35.631c11.669,0.001,23.89,0.15,35.732,0.15
		c0.298,0,0.736-0.127,0.95,0.2c-0.077,0.451-0.629,0.297-0.9,0.3c-8.985,0.094-17.932-0.1-27.074-0.1
		c-2.746,0-5.398,0.046-8.157-0.05c-0.245-0.009-0.819,0.113-0.751-0.4C0.08,35.705,0.133,35.657,0.206,35.631z"/>
	<path style="fill-rule:evenodd;clip-rule:evenodd;" d="M79.476,36.182c-0.444,0.477-1.377,0.223-2.102,0.2
		c-2.262-0.071-4.611,0.05-6.956,0.05c-7.574,0.001-15.596-0.15-23.421-0.15c-1.164,0-2.271,0.108-3.503,0.05
		c-0.268-0.013-0.72,0.039-0.901-0.25c0.029-0.285,0.284-0.274,0.501-0.3c0.675-0.081,1.498,0,2.252,0
		c8.251,0,16.995,0.15,25.272,0.15c2.691,0,5.298-0.069,7.957,0C78.859,35.939,79.336,35.793,79.476,36.182z"/>
	<path style="fill-rule:evenodd;clip-rule:evenodd;" d="M36.888,41.036c-0.238,0.549-1.056,0.25-1.501,0.25
		c-3.485,0-7.739,0.082-11.36,0c-7.652-0.172-15.012-0.1-22.77-0.1c-0.374,0-1.019,0.17-1.252-0.3c0.006-0.127,0.073-0.194,0.2-0.2
		c5.843-0.059,12.568,0.05,18.517,0.05c5.601,0,10.908,0.05,16.215,0.05C35.563,40.786,36.347,40.625,36.888,41.036z"/>
	<path style="fill-rule:evenodd;clip-rule:evenodd;" d="M42.844,40.836c11.593-0.022,22.794,0.101,34.58,0.1
		c0.682,0,1.519-0.075,2.052,0.25c-0.307,0.524-1.026,0.273-1.501,0.25c-1.747-0.083-3.661-0.014-5.354,0
		c-9.762,0.079-19.608-0.184-29.427-0.1c-0.322,0.005-0.684,0.05-0.601-0.351c0.041-0.009,0.05-0.05,0.101-0.05
		C42.73,40.889,42.785,40.86,42.844,40.836z"/>
	<path style="fill-rule:evenodd;clip-rule:evenodd;" d="M36.839,46.141c-0.112,0.415-0.656,0.249-0.9,0.25
		c-2.609,0.014-5.188-0.05-7.757-0.05c-8.53,0-17.306-0.101-26.174-0.1c-0.345,0-0.857,0.014-1.251,0
		c-0.237-0.008-0.864,0.133-0.7-0.4c0.04-0.01,0.049-0.05,0.1-0.05c11.694,0.07,24.109-0.078,35.782,0.1
		C36.218,45.894,36.681,45.765,36.839,46.141z"/>
	<path style="fill-rule:evenodd;clip-rule:evenodd;" d="M42.844,45.94c10.828-0.016,21.733,0.1,32.178,0.1
		c1.165,0,2.321,0.033,3.454,0.05c0.292,0.004,0.754-0.143,0.95,0.2c-0.118,0.431-0.696,0.25-0.95,0.25
		c-9.035,0-17.946-0.101-27.074-0.1c-2.317,0-4.685,0-6.906,0c-0.334,0-0.819,0.021-1.201,0c-0.2-0.011-0.826,0.097-0.651-0.4
		C42.718,46.015,42.77,45.966,42.844,45.94z"/>
	<path style="fill-rule:evenodd;clip-rule:evenodd;" d="M0.257,50.795c9.212,0.039,18.507,0.1,27.624,0.1
		c2.311,0,4.638,0.05,6.906,0.05c0.681,0,1.476-0.157,2.102,0.2c-0.097,0.436-0.629,0.296-0.9,0.3c-5.85,0.09-11.958-0.1-17.566-0.1
		c-5.499,0-10.821-0.05-16.515-0.05c-0.322,0-0.819,0.025-1.201,0c-0.199-0.013-0.818,0.067-0.65-0.4
		C0.13,50.869,0.182,50.821,0.257,50.795z"/>
	<path style="fill-rule:evenodd;clip-rule:evenodd;" d="M79.427,51.345c-0.224,0.479-1.402,0.203-1.952,0.2
		c-8.78-0.042-17.864,0.119-26.223-0.05c-2.56-0.052-5.104-0.036-7.757-0.05c-0.259-0.001-0.722,0.137-0.901-0.2
		c0.225-0.43,0.956-0.25,1.502-0.25c10.763,0,22.412,0.1,33.479,0.1C78.203,51.095,79.053,50.92,79.427,51.345z"/>
	<path style="fill-rule:evenodd;clip-rule:evenodd;" d="M36.888,56.2c-0.285,0.616-1.301,0.333-2.002,0.3
		c-5.459-0.258-11.082,0.176-16.464-0.05c-5.581-0.235-11.67,0.048-17.516-0.1c-0.25-0.006-0.791,0.168-0.901-0.25
		c-0.009-0.125,0.077-0.157,0.15-0.2c11.298-0.073,23.362,0.1,34.631,0.1C35.467,55.999,36.25,55.849,36.888,56.2z"/>
	<path style="fill-rule:evenodd;clip-rule:evenodd;" d="M79.427,56.4c-0.349,0.555-1.343,0.267-2.052,0.25
		c-2.325-0.056-4.67,0-7.006,0c-8.705,0.001-17.024-0.1-25.873-0.1c-0.327,0-0.826,0.019-1.201,0
		c-0.218-0.011-0.828,0.105-0.651-0.4c0.041-0.01,0.051-0.05,0.101-0.05c7.65-0.178,15.66,0.05,23.27,0.05
		c4.012,0,8.239-0.033,12.462,0.05C78.752,56.205,79.236,56.057,79.427,56.4z"/>
	<path style="fill-rule:evenodd;clip-rule:evenodd;" d="M0.206,60.904c11.956,0.048,23.835,0.085,35.732,0.15
		c0.263,0.001,0.768-0.146,0.9,0.25c-0.382,0.402-1.179,0.201-1.952,0.201c-5.067,0-10.244-0.051-15.363-0.05
		c-5.922,0-11.875-0.211-17.516-0.1c-0.332,0.006-0.817,0.064-1.201,0.05c-0.289-0.011-0.863,0.045-0.801-0.4
		C0.08,60.977,0.133,60.93,0.206,60.904z"/>
	<path style="fill-rule:evenodd;clip-rule:evenodd;" d="M79.427,61.404c-0.35,0.562-1.341,0.264-2.052,0.25
		c-2.341-0.046-4.663,0.05-6.956,0.05c-8.982,0-17.855-0.149-26.874-0.15c-0.275,0-0.747,0.142-0.951-0.2
		c0.091-0.402,1.042-0.257,1.401-0.3c1.38-0.166,2.952-0.01,4.454,0.05c4.389,0.175,9.025-0.202,13.362,0
		c5.192,0.242,10.322,0.1,15.613,0.1C78.082,61.204,78.826,61.042,79.427,61.404z"/>
	<path style="fill-rule:evenodd;clip-rule:evenodd;" d="M36.839,66.208c-0.153,0.488-0.792,0.3-1.151,0.3
		c-7.619,0-15.192-0.1-22.97-0.1c-3.791,0-7.575-0.05-11.46-0.05c-0.372,0-1.078,0.187-1.252-0.35c0.1-0.001,0.063-0.137,0.2-0.1
		c11.47-0.064,23.394,0.1,34.631,0.1C35.51,66.008,36.262,65.872,36.839,66.208z"/>
	<path style="fill-rule:evenodd;clip-rule:evenodd;" d="M42.844,66.058c10.904-0.025,21.493,0.101,32.128,0.1
		c0.784,0,1.566-0.021,2.353,0c0.688,0.02,1.438-0.04,2.102,0.2c-0.21,0.507-0.898,0.3-1.301,0.3c-7.75,0.001-15.524-0.1-23.472-0.1
		c-3.641,0-7.236-0.05-10.909-0.05c-0.298,0-1.138,0.245-1.102-0.351C42.718,66.132,42.77,66.084,42.844,66.058z"/>
</g>
<g id="Layer_1">
</g>
</svg>
