<?xml version="1.0" encoding="iso-8859-1"?>
<!-- Generator: Adobe Illustrator 19.2.0, SVG Export Plug-In . SVG Version: 6.00 Build 0)  -->
<svg version="1.1" xmlns="http://www.w3.org/2000/svg" xmlns:xlink="http://www.w3.org/1999/xlink" x="0px" y="0px"
	 viewBox="0 0 73.035 74.65" style="enable-background:new 0 0 73.035 74.65;" xml:space="preserve">
<g id="Studio_x5F_Lobo">
	<path style="fill-rule:evenodd;clip-rule:evenodd;" d="M72.933,0.196C66.16,4.07,59.258,7.778,52.402,11.586
		c-5.979,3.321-11.978,6.576-17.989,9.923c-0.825,0.46-1.721,0.89-2.444,1.516c0.705,1.727,1.722,3.297,2.591,4.937
		c0.859,1.624,1.776,3.216,2.64,4.84c1.736,3.264,3.34,6.605,5.132,9.825c2.689,4.832,5.244,9.689,7.968,14.519
		c0.898,1.592,1.838,3.156,2.542,4.84c-0.381,0.507-1.069,0.729-1.613,0.977c-4.023,1.831-8.233,3.604-12.319,5.475
		c-4.01,1.838-8.114,3.633-12.367,5.475c-0.529,0.229-1.386,0.806-1.809,0.733c-0.294-0.05-0.654-0.788-0.929-1.271
		c-4.963-8.714-9.788-17.441-14.665-26.201c-2.04-3.663-4.192-7.276-6.208-10.999C1.93,34.32,0.809,32.538,0,30.6
		c0.236-0.429,0.737-0.589,1.124-0.83c2.757-1.719,5.695-3.385,8.555-5.084c3.243-1.927,6.539-3.852,9.826-5.768
		c5.523-3.22,11.527-6.763,17.207-10.07c0.855-0.497,1.715-1.145,2.591-1.466c0.63-0.23,1.381-0.301,2.102-0.44
		c4.794-0.925,9.683-2.25,14.518-3.274c2.857-0.605,5.622-1.201,8.359-1.81c2.759-0.612,5.479-1.341,8.31-1.809
		C72.658,0.038,73.274-0.119,72.933,0.196z"/>
</g>
<g id="Layer_1">
</g>
</svg>
