<?xml version="1.0" encoding="iso-8859-1"?>
<!-- Generator: Adobe Illustrator 19.2.0, SVG Export Plug-In . SVG Version: 6.00 Build 0)  -->
<svg version="1.1" xmlns="http://www.w3.org/2000/svg" xmlns:xlink="http://www.w3.org/1999/xlink" x="0px" y="0px"
	 viewBox="0 0 24.761 77.173" style="enable-background:new 0 0 24.761 77.173;" xml:space="preserve">
<g id="Studelec">
	<path style="fill-rule:evenodd;clip-rule:evenodd;" d="M24.451,0.044c0.033,0,0.066,0,0.099,0
		c0.207,4.181,0.083,8.717,0.099,12.845c-2.85,3.085-5.843,6.026-8.679,9.125c-0.576,0.378-0.958,0.958-1.488,1.488
		c-0.393,0.393-1.317,1.036-1.339,1.587c-0.021,0.527,0.902,1.2,1.339,1.637c0.598,0.598,1.03,1.03,1.488,1.488
		c1.038,1.038,2.092,2.025,2.926,3.025c0.841,1.01,1.998,2.006,2.926,3.025c0.395,0.434,0.935,0.878,1.488,1.488
		c0.472,0.52,1.229,1.177,1.339,1.637c0.218,0.91,0.05,2.071,0.05,3.174c0,3.06,0.081,6.349-0.099,9.473
		c-0.434,0.105-0.663-0.36-0.893-0.595c-1.732-1.77-3.671-3.581-5.356-5.456c-4.017-4.249-8.2-8.333-12.3-12.498
		c-1.352-1.431-3.092-3.061-4.612-4.662c-0.358-0.378-1.408-1.105-1.438-1.637c-0.034-0.604,1.065-1.313,1.438-1.686
		c0.579-0.579,0.966-1.094,1.488-1.587c7.108-7.292,14.189-14.61,21.327-21.872C24.366,0.112,24.44-0.083,24.451,0.044z"/>
	<path style="fill-rule:evenodd;clip-rule:evenodd;" d="M0.348,27.024c0.042-0.009,0.046,0.02,0.049,0.05
		c3.744,3.431,7.166,7.183,10.812,10.712c3.644,3.528,7.08,7.272,10.614,10.912c0.484,0.538,1.041,1.012,1.537,1.538
		c0.49,0.518,1.103,0.98,1.389,1.686c-0.238,0.723-0.877,1.224-1.389,1.736c-1.535,1.535-3.106,3.13-4.662,4.711
		c-3.943,4.373-8.154,8.477-12.151,12.796c-1.922,1.648-3.554,3.719-5.406,5.505c-0.232,0.223-0.579,0.553-0.942,0.496
		c-0.153-3.945-0.124-8.519-0.05-12.746c0.231-0.777,0.921-1.096,1.389-1.637c1.374-1.634,2.888-3.129,4.364-4.662
		c1.024-0.977,1.928-2.073,3.025-2.976c0.419-0.378,0.849-0.998,1.438-1.587c0.413-0.413,1.372-1.083,1.389-1.587
		c0.024-0.718-1.073-1.032-1.339-1.637c-2.992-2.894-5.932-6.121-9.026-9.175c-0.432-0.426-1.098-0.866-1.24-1.339
		C-0.08,39.055,0.1,37.582,0.1,36.646c0-2.146,0-4.122,0-6.398c0-0.985-0.072-2.494,0.099-3.125
		C0.235,27.078,0.289,27.049,0.348,27.024z"/>
</g>
<g id="Layer_1">
</g>
</svg>
