<?xml version="1.0" encoding="iso-8859-1"?>
<!-- Generator: Adobe Illustrator 19.2.0, SVG Export Plug-In . SVG Version: 6.00 Build 0)  -->
<svg version="1.1" xmlns="http://www.w3.org/2000/svg" xmlns:xlink="http://www.w3.org/1999/xlink" x="0px" y="0px"
	 viewBox="0 0 48.702 76.03" style="enable-background:new 0 0 48.702 76.03;" xml:space="preserve">
<g id="Stuhlfabrik_x5F_Korner">
	<path style="fill-rule:evenodd;clip-rule:evenodd;" d="M48.529,0.122c0.265,1.428,0.146,2.997,0.147,4.63
		c0,23.327,0.079,47.498-0.098,71.157c-3.074,0.164-6.819,0.16-9.894,0c-0.259-1.001-0.146-2.07-0.146-3.119
		c0-7.496,0.086-15.331-0.097-22.663c-1.13-0.263-2.333-0.146-3.509-0.146c-8.249,0-16.779-0.007-25.051,0
		c-0.257,0.572-0.187,1.935-0.049,2.583c1.017,0.267,2.091,0.133,3.168,0.146c6.95,0.088,15.276-0.004,22.614,0.098
		c0.226,7.444,0.145,15.496,0,23.102c-11.639,0.196-23.855,0.113-35.481-0.049c-0.124-3.088-0.223-6.885,0-9.845
		c7.069-0.301,14.563-0.048,22.078-0.049c1.022,0,2.088,0.112,3.071-0.146c0.159-0.638,0.159-1.896,0-2.534
		c-8.25-0.234-17.125-0.082-25.1-0.244c-0.264-0.918-0.146-1.923-0.146-2.875c0-6.797-0.124-13.617,0.097-20.226
		c6.376-0.382,12.955,0.005,19.349-0.049c6.223-0.052,12.627,0.087,18.91-0.146c0.264-0.759,0.146-1.589,0.146-2.388
		c0-11.529,0-23.291,0-34.896c0-0.78-0.115-1.597,0.146-2.339C41.74-0.041,45.473-0.04,48.529,0.122z"/>
</g>
<g id="Layer_1">
</g>
</svg>
