<?xml version="1.0" encoding="iso-8859-1"?>
<!-- Generator: Adobe Illustrator 19.2.0, SVG Export Plug-In . SVG Version: 6.00 Build 0)  -->
<svg version="1.1" xmlns="http://www.w3.org/2000/svg" xmlns:xlink="http://www.w3.org/1999/xlink" x="0px" y="0px"
	 viewBox="0 0 79.639 78.037" style="enable-background:new 0 0 79.639 78.037;" xml:space="preserve">
<g id="sulzberger_x5F_und_x5F_co">
	<path style="fill-rule:evenodd;clip-rule:evenodd;" d="M56.189,0.169c0.199,6.893,0.097,14.044,0.097,21.341
		c0,5.427,0.146,10.843,0.049,16.248c-0.032,1.735,0.106,3.476-0.145,5.141c-1.497,0.222-3.333,0.097-5.191,0.097
		c-1.839,0-3.74,0.048-5.335-0.049c-0.228-2.469-0.109-5.035-0.097-7.663c0.037-7.827,0.01-15.98-0.146-23.572
		c-3.589-0.178-7.525-0.203-11.253-0.048c-0.261,1.23-0.145,2.71-0.145,4.123c0,1.379,0.087,2.797-0.097,4.026
		c-1.556,0.178-3.374,0.146-5.19,0.146c-1.817,0-3.672,0.05-5.336-0.097c-0.225-1.594-0.097-3.279-0.097-4.947
		c0-4.839-0.14-10.023,0.097-14.793c8.148-0.163,16.934-0.096,24.736-0.097C50.86,0.023,53.574-0.086,56.189,0.169z"/>
	<path style="fill-rule:evenodd;clip-rule:evenodd;" d="M43.432,22.722c0.128,1.628,0.233,3.48,0.146,5.287
		c-0.087,1.815,0.098,3.627-0.146,5.238c-5.297,0.178-10.707,0.097-16.054,0.097c-3.911,0-7.729-0.048-11.834-0.048
		c-1.296,0-2.622-0.114-3.881,0.146c-0.175,3.799-0.189,7.604,0,11.252c0.632,0.255,1.406,0.146,2.135,0.146
		c2.193,0,4.577-0.084,6.596,0.097c0.261,1.572,0.145,3.456,0.145,5.287c0,0.906,0,1.827,0,2.716c0,0.897,0.11,1.8-0.145,2.571
		c-6.678,0.173-13.495,0.097-20.274-0.048c-0.161-10.681-0.161-22.056,0-32.788c10.715-0.191,22.311-0.097,33.709-0.097
		c1.66,0,3.329-0.051,4.947,0C40.359,22.627,41.906,22.546,43.432,22.722z"/>
	<path style="fill-rule:evenodd;clip-rule:evenodd;" d="M79.47,22.674c0.258,1.307,0.146,2.666,0.146,4.026
		c0.001,9.452,0.08,19.405-0.097,28.762c-1.77,0.259-3.574,0.145-5.384,0.145c-12.352,0.002-25.609,0.088-37.977-0.097
		c-0.155-3.379-0.176-7.29,0-10.573c10.409-0.255,21.234,0.068,31.72-0.146c0.335-0.797,0.194-1.786,0.194-2.765
		c0-0.967,0-1.98,0-2.958c0-1.983,0.103-3.988-0.146-5.626c-2.735-0.288-6.142,0.095-8.876-0.194
		c-0.32-3.302-0.053-7.188-0.049-10.525c0.418-0.125,1.015-0.141,1.455-0.145C66.695,22.516,73.354,22.616,79.47,22.674z"/>
	<path style="fill-rule:evenodd;clip-rule:evenodd;" d="M33.927,35.187c0.267,2.472,0.097,5.065,0.097,7.664
		c0.001,7.889,0.035,15.743,0.098,23.426c0.861,0.261,1.839,0.146,2.812,0.146c2.84,0,5.903,0.166,8.488-0.097
		c0.308-2.51-0.026-5.45,0.242-8.051c3.292-0.136,7.36-0.216,10.573,0.048c0.136,6.617,0.102,13.173-0.048,19.595
		c-8.046,0.177-16.523,0.099-24.785,0.097c-2.722-0.001-5.439,0.106-8.051-0.146c-0.141-13.198-0.049-26.342-0.049-40.16
		c0-0.842-0.118-1.748,0.146-2.57C26.816,35.088,30.639,34.997,33.927,35.187z"/>
</g>
<g id="Layer_1">
</g>
</svg>
