<?xml version="1.0" encoding="iso-8859-1"?>
<!-- Generator: Adobe Illustrator 19.2.0, SVG Export Plug-In . SVG Version: 6.00 Build 0)  -->
<svg version="1.1" xmlns="http://www.w3.org/2000/svg" xmlns:xlink="http://www.w3.org/1999/xlink" x="0px" y="0px"
	 viewBox="0 0 74.385 40.761" style="enable-background:new 0 0 74.385 40.761;" xml:space="preserve">
<g id="Sun_x5F_Spice_x5F_60s">
	<path style="fill-rule:evenodd;clip-rule:evenodd;" d="M74.297,40.546c-3.061,0.284-6.454,0.044-9.663,0.046
		c-0.009-0.037-0.046-0.046-0.046-0.092c-0.145-6.758-0.1-14.934-0.137-21.935c-0.006-1.099-0.03-2.386,0-3.617
		c0.063-2.636,0.082-4.753-2.015-5.312c-1.638-0.438-2.921,0.829-3.16,2.198c-0.177,1.013-0.046,2.224-0.046,3.343
		c0,3.028-0.042,6.647,0,9.708c0.03,2.205,0.088,4.42-0.275,6.274c-0.345,1.761-1.162,3.289-2.152,4.533
		c-2.107,2.648-4.748,4.456-8.518,4.946c-4.318,0.561-7.569-0.854-10.029-3.114c-2.253-1.81-3.617-4.386-4.213-7.877
		c-0.204-1.195-0.137-2.48-0.137-3.893c0-5.334,0.053-10.696-0.092-15.707c-0.849-0.226-1.768-0.15-2.656-0.184
		c-4.392-0.164-9.125,0.046-13.83,0.046c-0.874,0-1.854,0-2.793,0c-0.96,0-1.966-0.124-2.748,0.046
		c-0.962,0.209-1.707,0.99-1.969,1.832c-0.448,1.436,0.417,2.676,1.603,3.205c1.192,0.532,3.011,0.572,4.442,0.642
		c1.579,0.077,3.294,0.102,4.763,0.32c4.199,0.627,7.195,2.908,9.067,6.091c1.255,2.135,2.095,5.05,1.465,8.289
		c-0.536,2.756-1.851,4.888-3.572,6.548c-1.746,1.684-3.858,2.98-6.686,3.434c-2.962,0.477-6.332,0.32-9.708,0.321
		c-1.723,0-3.411-0.001-5.083,0c-1.588,0-3.183,0.16-4.763-0.092c-0.24-0.685-0.137-1.505-0.137-2.29
		c0-2.315-0.074-4.982,0.092-7.19c2.595-0.218,5.572-0.004,8.609-0.138c2.993-0.132,6.051,0.243,8.701-0.046
		c1.685-0.184,3.479-1.747,2.519-3.755c-0.272-0.569-0.819-1.157-1.511-1.466c-1.319-0.586-3.303-0.376-5.083-0.503
		c-1.762-0.126-3.572-0.259-4.946-0.596c-2.894-0.709-5.162-2.194-6.869-4.259c-1.602-1.937-2.891-5.01-2.702-8.335
		c0.098-1.716,0.454-3.169,1.053-4.487C1.655,6.2,2.317,5.092,3.269,4.14c1.864-1.864,4.055-3.431,7.327-3.802
		c1.718-0.194,3.625-0.046,5.541-0.045c9.221,0.001,18.372-0.137,27.477,0.091c0.248,1.141,0.137,2.348,0.137,3.526
		c0,7.246-0.093,14.361,0.046,21.569c0.027,1.387-0.265,2.81,0.183,3.801c0.933,2.066,4.177,2.435,4.992,0.184
		c0.405-1.119,0.123-3.641,0.183-4.992c0.08-1.821,0.001-3.525-0.046-5.037c-0.107-3.419-0.24-7.102,0.504-9.846
		c0.738-2.726,1.934-4.762,3.847-6.503c1.72-1.566,4.508-2.929,7.464-3.068c4.49-0.212,7.877,1.487,9.938,3.756
		c2.298,2.529,3.48,5.299,3.48,10.166C74.343,22.874,74.463,31.833,74.297,40.546z"/>
</g>
<g id="Layer_1">
</g>
</svg>
