<?xml version="1.0" encoding="iso-8859-1"?>
<!-- Generator: Adobe Illustrator 19.2.0, SVG Export Plug-In . SVG Version: 6.00 Build 0)  -->
<svg version="1.1" xmlns="http://www.w3.org/2000/svg" xmlns:xlink="http://www.w3.org/1999/xlink" x="0px" y="0px"
	 viewBox="0 0 91.308 95.651" style="enable-background:new 0 0 91.308 95.651;" xml:space="preserve">
<g id="Sun_x5F_Laboratories">
	<path style="fill-rule:evenodd;clip-rule:evenodd;" d="M75.354,11.936c-4.926-1.406-9.627-2.651-15.813-2.276
		c-11.292,0.686-20.25,5.636-26.955,11.74c-3.43,3.123-6.551,6.417-8.746,10.543c-2.254,4.236-3.922,8.8-5.63,13.657
		C17.711,28.822,25.222,15.215,35.46,7.144c3.545-2.795,7.641-5.496,11.86-6.948c2.163-0.744,6.362,0.832,8.865,1.438
		c5.317,1.287,9.627,3.588,13.777,6.109C72.005,8.985,74.219,10.109,75.354,11.936z"/>
	<path style="fill-rule:evenodd;clip-rule:evenodd;" d="M19.887,7.024c0.102-0.021,0.113,0.047,0.12,0.12
		c-5.668,8.04-8.196,19.663-7.068,31.508c0.735,7.721,3.442,15.084,7.547,20.605c4.124,5.546,8.73,10.89,14.855,13.537
		c-0.714,0.422-1.654-0.021-2.396-0.239c-2.499-0.735-5.379-1.801-7.667-3.115C15.911,64.056,7.894,55.414,4.073,43.683
		c-1.875-5.759-3.809-12.354-1.078-17.851c1.823-3.671,4.619-7.262,7.188-10.542c2.65-3.385,5.638-6.409,9.464-8.146
		C19.786,7.163,19.86,7.117,19.887,7.024z"/>
	<path style="fill-rule:evenodd;clip-rule:evenodd;" d="M87.933,65.965c-1.066-15.047-7.669-26.807-17.131-34.502
		c-7.799-6.344-18.665-10.549-32.465-9.464c15.332-7.725,36.508-0.885,46.243,8.026c1.832,1.677,4.465,3.709,5.391,5.631
		c0.849,1.762,1.033,5.183,1.198,7.667C91.717,51.569,90.659,60.297,87.933,65.965z"/>
	<path style="fill-rule:evenodd;clip-rule:evenodd;" d="M66.729,50.751c-0.071,0.408-0.764,0.194-0.719,0.719
		c-1.016,5.3-2.876,8.985-6.109,12.22c-3.265,3.265-8.415,6.412-14.496,6.469c-12.878,0.121-21.865-8.462-22.642-20.965
		c-0.342-5.503,1.448-10.872,4.313-14.615c3.523-4.604,8.987-8.194,15.933-8.746c3.351-0.266,6.967,0.632,9.584,1.678
		c6.76,2.7,12.952,9.854,13.657,18.568C66.396,47.89,65.832,50.065,66.729,50.751z M65.051,50.392c0.378,0.177,0.576-0.688,0.12-0.6
		C65.07,49.932,65.013,50.114,65.051,50.392z"/>
	<path style="fill-rule:evenodd;clip-rule:evenodd;" d="M66.608,33.26c0.097,0.023,0.12,0.12,0.24,0.12
		c7.743,8.691,13.458,26.346,8.625,42.289c-0.673,2.22-1.545,4.424-2.516,6.589c-0.887,1.979-2.009,4.501-3.235,5.751
		c-1.353,1.379-4.139,2.449-6.11,3.354c-6.353,2.915-14.439,4.734-23.48,4.193c7.295-2.858,14.097-7.283,19.408-13.298
		c2.545-2.883,4.319-6.429,6.109-10.183c2.647-5.552,4.974-10.787,5.032-18.569c0.053-7.184-1.577-14.411-3.953-19.887
		C66.732,33.628,66.23,33.343,66.608,33.26z"/>
	<path style="fill-rule:evenodd;clip-rule:evenodd;" d="M0,59.976c0.193-0.034,0.206,0.113,0.359,0.119
		c6.354,8.03,15.667,15.233,29.231,16.173c13.398,0.929,22.676-2.683,30.788-8.146c1.074-0.724,2.033-1.759,3.354-2.037
		c-1.01,2.929-3.615,5.235-5.99,7.428c-4.655,4.296-9.681,7.71-16.652,9.943c-5.871,1.881-11.442,3.257-19.048,2.396
		c-2.521-0.285-5.444-0.443-7.427-1.438c-1.671-0.837-3.487-3.092-4.912-4.792C5.48,74.581,1.065,67.227,0,59.976z"/>
	<path style="fill-rule:evenodd;clip-rule:evenodd;" d="M63.973,65.487C64.337,65.159,63.646,65.851,63.973,65.487L63.973,65.487z"
		/>
</g>
<g id="Layer_1">
</g>
</svg>
