<?xml version="1.0" encoding="iso-8859-1"?>
<!-- Generator: Adobe Illustrator 19.2.0, SVG Export Plug-In . SVG Version: 6.00 Build 0)  -->
<svg version="1.1" xmlns="http://www.w3.org/2000/svg" xmlns:xlink="http://www.w3.org/1999/xlink" x="0px" y="0px"
	 viewBox="0 0 83 83.659" style="enable-background:new 0 0 83 83.659;" xml:space="preserve">
<g id="suomen_x5F_tennislitto">
	<path style="fill-rule:evenodd;clip-rule:evenodd;" d="M11.557,12.917c7.01-7.029,15.618-12.261,28.941-12.891
		c2.898-0.138,5.826,0.286,8.356,0.764c2.577,0.486,4.893,1.267,7.032,2.089c3.397,1.307,6.22,2.797,9.019,4.638
		c4.477,2.944,8.4,6.892,11.312,11.464c2.384,3.744,4.32,7.884,5.503,12.688c1.148,4.664,1.733,11.01,0.866,16.661
		c-0.773,5.041-2.578,9.672-4.637,13.554c-4.194,7.908-10.726,13.692-18.649,17.782c-1.993,1.028-4.258,1.831-6.624,2.496
		c-2.373,0.668-4.954,1.281-7.694,1.427c-6.023,0.321-11.203-0.461-15.999-1.986c-9.136-2.907-15.905-8.444-21.095-15.337
		c-1.27-1.688-2.378-3.646-3.414-5.707c-2.055-4.087-3.553-8.556-4.229-14.012c-0.341-2.755-0.278-5.634-0.102-8.662
		c0.156-2.69,0.818-5.262,1.478-7.643C3.568,23.21,7.121,17.522,11.557,12.917z M48.854,10.42c-2.179-0.87-4.856-1.623-7.846-1.528
		c-5.243,0.167-8.853,2.234-11.771,4.79c-2.978,2.608-5.029,5.863-5.808,10.547c-0.889,5.336,0.518,9.85,2.598,13.248
		c2.607,4.257,6.681,7.204,12.025,8.458c3.571,0.838,7.569,0.402,10.598-0.765c3.807-1.467,7.089-4.171,9.019-7.337
		c1.008-1.653,1.898-3.492,2.395-5.758c0.495-2.256,0.852-4.893,0.356-7.44c-0.879-4.523-2.774-7.916-5.859-10.547
		C52.967,12.596,51.101,11.318,48.854,10.42z M8.652,39.667C8.124,46.74,9.826,52.08,12.27,56.94
		c2.334,4.643,5.72,8.293,9.732,11.26c3.394,2.511,7.644,4.684,12.534,5.809c0.758,0.175,1.814,0.426,2.293,0.255
		c1.076-0.382,0.839-2.422,0.815-3.974c-0.051-3.341,0-6.182,0-9.376c0-1.695-0.069-3.071-0.611-4.127
		c-0.718-1.398-2.206-2.546-3.77-3.21c-1.656-0.702-3.323-1.4-4.739-2.241c-2.952-1.755-5.649-4.022-7.643-6.369
		c-2.077-2.446-3.621-5.281-4.942-9.07c-0.851-2.438-1.274-5.555-1.274-9.223c0-0.99,0.549-3.08-0.764-2.751
		C11.035,28.225,9.137,33.182,8.652,39.667z M54.663,72.073c6.957-2.938,12.277-7.925,15.795-14.471
		c1.156-2.15,2.186-4.585,2.854-7.235c0.684-2.714,1.019-5.65,1.019-9.069c0-5.643-1.582-10.315-3.465-14.216
		c-0.37-0.767-0.781-1.675-1.478-1.223c-0.373,1.445-0.166,2.868-0.306,4.178c-0.723,6.78-3.26,11.783-6.726,15.744
		c-2.782,3.18-6.253,5.652-10.547,7.439c-2.378,0.99-4.13,1.646-5.197,3.821c-0.983,2.003-0.669,5.313-0.764,8.051
		c-0.05,1.44-0.015,2.659,0.051,4.229c0.073,1.725-0.536,4.78,1.019,4.993C49.917,74.16,52.385,73.035,54.663,72.073z"/>
</g>
<g id="Layer_1">
</g>
</svg>
