<?xml version="1.0" encoding="iso-8859-1"?>
<!-- Generator: Adobe Illustrator 19.2.0, SVG Export Plug-In . SVG Version: 6.00 Build 0)  -->
<svg version="1.1" xmlns="http://www.w3.org/2000/svg" xmlns:xlink="http://www.w3.org/1999/xlink" x="0px" y="0px"
	 viewBox="0 0 54.338 79.691" style="enable-background:new 0 0 54.338 79.691;" xml:space="preserve">
<g id="Sussstoff-Vertriebsgesellschaft">
	<path style="fill-rule:evenodd;clip-rule:evenodd;" d="M54.321,27.167c-4.13,0.319-9.117-0.155-13.219,0.243
		c0.035,0.544,0.517,0.893,0.777,1.312c0.774,1.241,1.856,2.331,2.771,3.499c1.221,1.562,2.604,2.957,3.79,4.568
		c1.149,1.56,2.25,3.326,3.11,5.249c0.851,1.899,1.668,4.022,2.041,6.318c0.876,5.376-0.064,10.549-1.604,14.531
		c-1.943,5.028-5.286,8.683-9.185,11.712c-2.375,1.844-5.085,3.115-8.457,4.082c-4.384,1.258-10.271,1.394-14.773,0.097
		C13.33,76.981,8.248,73.278,4.848,68.428c-0.561-0.801-1.12-1.662-1.604-2.576c-0.483-0.913-1.051-1.886-1.361-2.818
		c-0.139-0.417-0.19-0.836-0.34-1.264c-0.949-2.697-1.723-5.815-1.506-9.429c0.971-0.262,2.066-0.146,3.159-0.146
		c3.171,0,6.676,0.078,9.72-0.097c0.001-0.733-0.753-1.124-1.118-1.652c-2.328-3.082-5.021-5.791-7.144-9.088
		c-2.149-3.337-3.59-7.143-3.985-12.247c-0.309-3.988,0.437-7.552,1.361-10.643c0.329-1.098,0.562-2.102,1.021-3.013
		c1.84-3.659,4.211-6.643,7.096-9.136c3.094-2.588,6.801-4.531,11.323-5.638C22.979,0.311,24.874,0.01,26.62,0
		c8.785-0.045,15.172,3.363,19.683,7.873c2.329,2.329,4.214,4.938,5.685,8.068C53.451,19.052,54.483,22.879,54.321,27.167z
		 M23.704,17.108c-2.495,0.907-4.338,2.569-5.492,4.568c-0.801,1.387-1.517,3.162-1.555,5.103c-0.09,4.525,2.159,7.335,4.86,9.136
		c2.127,1.418,5.663,2.447,8.894,1.41c4.276-1.372,7.972-4.854,7.776-10.546c-0.079-2.273-0.74-3.98-1.798-5.541
		c-1.825-2.691-5.18-5.091-9.915-4.762C25.488,16.544,24.568,16.793,23.704,17.108z M22.975,42.914
		c-2.782,1.086-4.872,3.262-6.026,5.589c-0.824,1.662-1.238,4.454-0.729,6.609c0.924,3.911,3.765,7.043,7.338,8.116
		c2.214,0.665,4.67,0.603,6.707-0.146c3.457-1.27,6.588-4.015,7.339-8.116c0.844-4.609-1.229-8.13-3.499-10.06
		c-1.826-1.553-4.394-2.958-7.873-2.673C24.984,42.335,23.915,42.546,22.975,42.914z"/>
</g>
<g id="Layer_1">
</g>
</svg>
