<?xml version="1.0" encoding="iso-8859-1"?>
<!-- Generator: Adobe Illustrator 19.2.0, SVG Export Plug-In . SVG Version: 6.00 Build 0)  -->
<svg version="1.1" xmlns="http://www.w3.org/2000/svg" xmlns:xlink="http://www.w3.org/1999/xlink" x="0px" y="0px"
	 viewBox="0 0 77.741 68.376" style="enable-background:new 0 0 77.741 68.376;" xml:space="preserve">
<g id="Svensk_x5F_bil_x5F_Batterifabrik">
	<path style="fill-rule:evenodd;clip-rule:evenodd;" d="M25.876,67.759c-0.288-7.966,0.099-16.212-0.196-24.406
		c-8.206-0.387-17.007,0.014-25.392-0.296c-0.267-1.381-0.147-2.863-0.147-4.33c0-4.161-0.086-8.66,0.147-12.843
		c8.274-0.328,17.132,0.145,25.392-0.148c0.279-0.978,0.131-2.037,0.147-3.1c0.094-6.186,0-12.859,0-19.388
		c0-0.894-0.102-2.738,0.148-3.149c0.036-0.046,0.089-0.074,0.147-0.099c7.566-0.007,14.941,0.05,22.242,0.05
		c5.991,0,11.3-0.168,15.746,1.23c6.923,2.177,11.883,7.248,13.188,15.106c0.594,3.57-0.01,7.194-1.181,9.743
		c-1.211,2.634-2.834,4.667-4.724,6.594c-0.185,0.733-1.422,0.696-1.428,1.476c-0.002,0.271,0.32,0.518,0.689,0.788
		c0.804,0.588,1.583,1.619,2.165,2.264c2.803,3.101,4.922,6.84,4.921,12.793c-0.001,3.513-1.509,6.631-3.002,8.809
		c-3.165,4.617-7.923,7.922-14.811,8.759c-3.348,0.407-7.389,0.345-11.17,0.345c-1.9,0-3.846-0.009-5.758-0.049
		c-3.814-0.082-7.658-0.001-11.515,0C29.588,67.908,27.708,68.006,25.876,67.759z M50.578,24.752c1.79,0.066,3.695,0.2,4.97-0.246
		c1.452-0.507,3.025-2.152,2.56-4.38c-0.346-1.651-1.86-2.866-3.74-3.001c-2.673-0.192-5.948,0.143-8.759,0
		c-0.058,0.023-0.111,0.052-0.147,0.099c-0.243,0.185-0.147,1.227-0.147,1.77c-0.001,1.949-0.076,4.126,0.099,5.659
		C46.797,24.966,48.697,24.682,50.578,24.752z M50.037,51.127c1.688,0,3.471,0.141,4.822,0c1.875-0.194,3.833-2.233,3.297-4.576
		c-0.232-1.018-1.314-2.242-2.411-2.657c-1.158-0.437-2.986-0.295-4.625-0.295c-2.069,0-4.171-0.091-5.708,0.098
		c-0.156,2.266-0.179,5.129,0,7.283C46.728,51.244,48.375,51.127,50.037,51.127z"/>
	<path style="fill-rule:evenodd;clip-rule:evenodd;" d="M9.194,0.099c3.31-0.271,5.989,1.395,7.529,2.952
		c1.6,1.617,2.994,4.224,2.756,7.775c-0.132,1.967-0.856,3.49-1.771,4.773c-0.887,1.242-2.128,2.416-3.347,3.149
		c-2.478,1.49-6.378,1.533-8.956,0.196c-2.385-1.237-4.073-3.544-4.92-6.151c-1.059-3.258,0.028-6.888,1.476-8.759
		c0.788-1.018,1.752-1.89,2.952-2.608C6.026,0.762,7.457,0.243,9.194,0.099z"/>
	<path style="fill-rule:evenodd;clip-rule:evenodd;" d="M9.391,48.668c4.384-0.281,7.208,2.548,8.809,5.166
		c0.957,1.567,1.528,3.39,1.378,5.561c-0.271,3.901-2.825,6.81-5.709,8.168c-3.82,1.8-8.253,0.343-10.53-1.771
		c-1.18-1.096-2.222-2.451-2.805-4.134c-1.688-4.872,0.923-9.258,3.69-11.269C5.544,49.431,7.234,48.806,9.391,48.668z"/>
</g>
<g id="Layer_1">
</g>
</svg>
