<?xml version="1.0" encoding="iso-8859-1"?>
<!-- Generator: Adobe Illustrator 19.2.0, SVG Export Plug-In . SVG Version: 6.00 Build 0)  -->
<svg version="1.1" xmlns="http://www.w3.org/2000/svg" xmlns:xlink="http://www.w3.org/1999/xlink" x="0px" y="0px"
	 viewBox="0 0 57.435 76.072" style="enable-background:new 0 0 57.435 76.072;" xml:space="preserve">
<g id="svit">
	<path style="fill-rule:evenodd;clip-rule:evenodd;" d="M38.424,0.002c0.279,4.697-0.076,9.872,0.195,14.484
		c0.354-0.19,0.472-0.861,0.637-1.37c1.178-3.643,3.119-6.51,5.773-8.759c2.961-2.507,6.863-4.422,12.185-4.355
		c0.117,5.734,0.188,12.184,0,18.203c-2.048,0.285-4.752-0.087-6.802,0.196c0.404,0.4,0.961,0.524,1.419,0.734
		c3.1,1.422,5.903,4.559,5.578,9.395c-0.17,2.532-1.25,4.47-2.691,5.97c-1.384,1.441-3.487,2.613-5.871,2.789
		c-4.695,0.348-8.079-2.289-9.493-5.529c-0.209-0.478-0.291-1.04-0.685-1.468c-0.33,2.115,0.036,4.727-0.245,6.948
		c-5.009,0.292-10.698-0.096-15.707,0.196c0.508,0.434,1.195,0.411,1.762,0.587c3.978,1.24,7.295,3.477,9.688,6.41
		c2.42,3.093,4.302,6.76,4.354,11.792c0.053,5.043-1.558,9.103-3.865,12.135c-3.276,4.305-8.67,8.087-16.393,7.682
		c-7.231-0.378-12.148-4.085-15.218-8.906c-2.084-3.272-3.543-7.627-2.887-12.918c0.582-4.697,2.595-8.148,5.186-10.912
		c0.691-0.736,1.3-1.418,2.055-2.006c1.449-1.128,3.268-2.129,5.188-2.838c0.957-0.354,2.01-0.513,3.033-0.979
		c-1.221-0.259-2.545-0.147-3.865-0.146c-3.789,0-7.974-0.019-11.744-0.147c-0.16-5.882,1.315-10.814,3.181-15.022
		c0.678-1.529,1.55-3.069,2.447-4.453c0.316-0.488,0.532-1.016,0.831-1.468c1.226-1.853,2.788-3.402,4.258-4.942
		c2.973-2.994,6.591-5.625,10.765-7.633C26.085,1.463,31.899-0.052,38.424,0.002z M38.864,18.303
		c-0.072,0.025-0.123,0.072-0.195,0.098c-0.255,0.687-0.148,1.609-0.148,2.496c0,0.879-0.055,1.815,0,2.642
		c0.037,0.559-0.037,1.255,0.196,1.713c0.978-2.455,2.389-4.437,4.501-5.676c0.723-0.423,1.538-0.639,2.3-1.125
		C43.544,18.128,41.147,18.387,38.864,18.303z"/>
</g>
<g id="Layer_1">
</g>
</svg>
