<?xml version="1.0" encoding="iso-8859-1"?>
<!-- Generator: Adobe Illustrator 21.0.2, SVG Export Plug-In . SVG Version: 6.00 Build 0)  -->
<svg version="1.1" xmlns="http://www.w3.org/2000/svg" xmlns:xlink="http://www.w3.org/1999/xlink" x="0px" y="0px"
	 viewBox="0 0 28.803 30.784" style="enable-background:new 0 0 28.803 30.784;" xml:space="preserve">
<g id="Swedish_x5F_History_x5F_Museum">
	<path d="M21.235,0.065C23.651,0.062,26.065,0.013,28.48,0c0.118,10.177,0.24,20.357,0.324,30.531
		c-2.416,0.055-4.835,0.047-7.253,0.061c-0.054-4.033-0.06-8.073-0.174-12.102c-3.327,0.006-6.651,0.086-9.979,0.069
		c1.938-2.129,3.864-4.27,5.84-6.363c1.375-0.006,2.751,0.01,4.124-0.055C21.306,8.116,21.26,4.091,21.235,0.065z"/>
	<path d="M0,0.292C4.201,0.18,8.415,0.196,12.618,0.147c0.179,0.204,0.039,0.584,0.089,0.857c-1.283,0.2-3.091,0.196-3.656,1.62
		C8.62,3.827,8.722,5.125,8.72,6.381c0.095,6.697,0.113,13.396,0.238,20.094c0.101,0.9,0.148,2.005,0.95,2.589
		c0.928,0.563,2.051,0.631,3.106,0.748c0.009,0.279,0.008,0.558,0.013,0.838c-4.229,0.095-8.467,0.114-12.701,0.135
		c0.003-0.281,0.001-0.561-0.004-0.841c1.036-0.185,2.131-0.275,3.059-0.816c0.566-0.333,0.692-1.038,0.796-1.632
		c0.144-1.16,0.17-2.335,0.1-3.501C4.229,17.825,4.155,11.658,4.113,5.49C4.022,4.333,4.131,3.007,3.335,2.059
		C2.43,1.285,1.155,1.26,0.028,1.134C0.01,0.853,0.006,0.572,0,0.292z"/>
</g>
<g id="Layer_1">
</g>
</svg>
