<?xml version="1.0" encoding="iso-8859-1"?>
<!-- Generator: Adobe Illustrator 19.2.0, SVG Export Plug-In . SVG Version: 6.00 Build 0)  -->
<svg version="1.1" xmlns="http://www.w3.org/2000/svg" xmlns:xlink="http://www.w3.org/1999/xlink" x="0px" y="0px"
	 viewBox="0 0 48.358 116.2" style="enable-background:new 0 0 48.358 116.2;" xml:space="preserve">
<g id="Swiss_x5F_RE_x5F_30_x5F_St_x5F_Mary_x5F_Axe">
	<path style="fill-rule:evenodd;clip-rule:evenodd;" d="M12.271,0.004c0.102-0.022,0.113,0.047,0.12,0.12
		c0.161,12.334,6.641,18.48,12.231,26.261c3.204,4.458,6.649,8.835,9.833,12.951c3.179,4.109,6.664,8.607,8.873,14.03
		c2.179,5.349,2.295,12.658,0.479,19.666c-0.37-8.051-3.685-14.038-7.434-19.306c-3.672-5.16-7.706-10.033-11.512-15.229
		c-3.579-4.886-8.074-9.744-11.152-15.589C10.819,17.417,9.576,7.572,12.271,0.004z"/>
	<path style="fill-rule:evenodd;clip-rule:evenodd;" d="M6.036,23.267c0.102-0.022,0.113,0.047,0.12,0.12
		c-0.406,12.038,5.25,19.436,10.433,26.501c7.374,10.053,14.211,18.763,21.824,28.419c7.067,8.964,12.946,22.442,8.274,37.893
		c0.225-10.482-4.406-17.996-9.113-24.702c-4.695-6.689-10.074-12.856-14.989-19.306c-2.354-3.088-4.87-6.397-7.435-9.713
		c-2.5-3.232-5.011-6.701-6.715-10.433c-3.338-7.31-5.778-18.696-2.518-28.42C5.979,23.53,6.041,23.432,6.036,23.267z"/>
	<path style="fill-rule:evenodd;clip-rule:evenodd;" d="M0.88,54.564c0.102-0.022,0.113,0.047,0.12,0.12
		c0.877,13.529,9.297,20.225,15.589,28.779c2.922,3.974,6.701,8.273,8.634,13.55c1.849,5.05,2.19,12.986,0.24,19.066
		c-0.137-9.369-4.838-15.77-9.233-21.585c-4.375-5.789-9.354-11.361-13.07-17.627C-0.013,71.522-0.842,61.961,0.88,54.564z"/>
</g>
<g id="Layer_1">
</g>
</svg>
