<?xml version="1.0" encoding="iso-8859-1"?>
<!-- Generator: Adobe Illustrator 19.2.0, SVG Export Plug-In . SVG Version: 6.00 Build 0)  -->
<svg version="1.1" xmlns="http://www.w3.org/2000/svg" xmlns:xlink="http://www.w3.org/1999/xlink" x="0px" y="0px"
	 viewBox="0 0 58.609 75.486" style="enable-background:new 0 0 58.609 75.486;" xml:space="preserve">
<g id="Sye-Hsing">
	<path style="fill-rule:evenodd;clip-rule:evenodd;" d="M58.445,0.119c0.25,0.877,0.141,1.878,0.141,2.86
		c0,2.871,0.075,6.099-0.095,8.86c-11.981,0.227-24.39-0.003-36.286,0.188c-0.243,0.809-0.141,1.901-0.141,2.953
		c0,1.038-0.105,2.112,0.141,2.907c6.034,0.172,12.221,0.094,18.331,0.094c3.025,0,6.06-0.142,9.048,0
		c2.995,0.142,6.001-0.311,8.907,0.094c0.156,9.574,0.156,19.819,0,29.441c-2.986,0.279-6.623-0.091-9.61,0.188
		c-0.248,0.505-0.141,1.108-0.141,1.641c0,7.571,0,15.001,0,22.645c0,1.137,0.113,2.281-0.141,3.376
		C33.069,75.48,15.704,75.604,0.17,75.27c-0.253-0.938-0.141-2-0.141-3.047c0-3.027-0.077-6.413,0.094-9.33
		c0.663-0.228,1.417-0.169,2.109-0.14c4.837,0.203,10.337,0.095,15.472,0.094c4.48-0.001,8.958,0.001,13.455,0
		c1.448-0.001,2.912,0.113,4.312-0.142c0.188-0.76,0.094-1.812,0.094-2.859c0-1.012,0.11-2.096-0.141-2.859
		c-11.66-0.288-23.949,0.137-35.302-0.281c-0.147-10.084-0.181-20.103,0-29.817c2.706-0.231,6.099,0.147,8.86-0.141
		c0.248-0.489,0.141-1.087,0.141-1.594c0-7.934-0.068-16.432,0.094-24.988c0.88-0.254,1.821-0.141,2.719-0.141
		c12.234,0.001,24.565-0.001,36.99,0C52.258,0.026,55.32-0.064,58.445,0.119z M35.238,3.12c-2.241,0-4.922-0.094-6.939,0
		c-5.376,0.249-10.821-0.266-16.175,0.094c-0.147,7.67-0.186,16.142,0.047,23.581c5.899,0.187,12.13,0.094,18.331,0.094
		c4.616,0,9.362-0.166,13.784,0c1.499,0.057,2.984-0.162,4.359,0.094c0.106,4.222,0.178,8.209-0.047,12.236
		c-11.966,0.258-24.502-0.079-36.428,0.188c-0.084,0.773-0.047,1.688-0.047,2.578c0,0.885-0.106,1.809,0.142,2.485
		c10.34,0.192,21.746,0.096,32.583,0.094c3.625-0.001,7.181,0.033,10.595-0.141c0.167-7.448,0.153-15.768,0-23.301
		c-1.474-0.253-3-0.141-4.501-0.141c-2.967,0-5.868,0.05-8.907,0c-6.812-0.11-13.979,0.048-20.815,0.047
		c-0.715,0-1.451,0.171-2.109-0.141c-0.047-3.829-0.141-8.109,0.047-11.86c10.352-0.21,21.016-0.141,31.739-0.141
		c1.504,0,3.035,0.11,4.5-0.142c0.212-1.574,0.244-4.01,0-5.578C48.758,2.947,41.853,3.119,35.238,3.12z M40.489,29.936
		c-1.718,0.018-3.425,0.064-5.157,0c-1.747-0.066-3.525,0.125-5.298,0.047c-1.761-0.078-3.531,0-5.297,0
		c-6.198-0.001-12.491-0.013-18.659-0.047c-0.934-0.006-2.15-0.19-2.766,0c-0.434,0.133-0.281,1.747-0.281,2.672
		C3.03,39.69,2.987,46.985,3.17,53.658c10.915,0.185,22.647,0.265,33.239,0.188c0.699-0.005,1.442-0.202,2.11,0.094
		c0.147,3.74,0.169,8.264,0,11.861c-11.924,0.254-23.956,0.005-35.35,0.094c-0.155,1.912-0.155,4.465,0,6.376
		c3.477,0.207,7.046,0.186,10.596,0.187c9.044,0.002,18.006-0.047,26.676-0.047c1.774,0,3.531,0.105,5.251-0.094
		c0.253-1.952,0.141-4.018,0.141-6.095c-0.001-4.16,0.123-8.435,0-12.518c-0.062-2.054,0.093-4.05-0.141-5.954
		c-5.89-0.209-12.067-0.093-18.237-0.094c-3.069,0-6.144,0-9.188,0c-3.037,0-6.078,0.121-9.002-0.141
		c-0.027-3.555-0.177-7.503,0-11.204c5.875-0.081,11.877-0.047,18.097-0.047c4.636,0,9.36,0.143,13.924,0
		c1.499-0.048,2.972,0.086,4.407-0.141c0.155-1.804,0.155-4.245,0-6.048C43.987,29.835,42.223,29.918,40.489,29.936z"/>
</g>
<g id="Layer_1">
</g>
</svg>
