<?xml version="1.0" encoding="iso-8859-1"?>
<!-- Generator: Adobe Illustrator 19.2.0, SVG Export Plug-In . SVG Version: 6.00 Build 0)  -->
<svg version="1.1" xmlns="http://www.w3.org/2000/svg" xmlns:xlink="http://www.w3.org/1999/xlink" x="0px" y="0px"
	 viewBox="0 0 154.092 109.194" style="enable-background:new 0 0 154.092 109.194;" xml:space="preserve">
<g id="Sysmex_x5F_Corporation">
	<path style="fill-rule:evenodd;clip-rule:evenodd;" d="M10.575,10.648c3.3-5.171,8.02-12.564,17.623-10.19
		c5.326,1.316,8.763,5.844,12.708,9.231c4.296,3.688,8.583,6.397,12.468,9.351c2.968,1.035,5.233,3.004,7.913,4.436
		c15.997,8.549,34.579,14.472,57.066,17.024c1.693,0.192,3.129,0.193,5.635,0.479c0.955,0.108,4.586,0.237,4.676,1.438
		c0.159,2.152-6.349,1.02-7.673,0.959C75.184,41.297,40.683,28.309,10.575,10.648z"/>
	<path style="fill-rule:evenodd;clip-rule:evenodd;" d="M7.578,16.162c27.566,14.506,57.619,26.454,96.749,29.731
		c10.059,0.843,21.338,1.197,31.29,1.438c1.442,0.035,3.494-0.084,3.477,1.319c-0.023,1.92-7.028,1.183-8.033,1.198
		c-9.631,0.156-17.836-0.094-26.975-0.479C67.296,47.818,32.146,43.865,1.703,35.943C2.837,28.993,4.653,21.717,7.578,16.162z"/>
	<path style="fill-rule:evenodd;clip-rule:evenodd;" d="M0.865,43.256c40.681,7.16,88.041,9.654,134.153,9.951
		c3.915,0.025,10.115,0.12,15.105,0.12c1.924,0,3.773-0.034,3.957,1.198c0.252,1.697-3.595,1.319-5.155,1.319
		c-11.301,0-20.971-0.214-31.051,0.239c-3.877,0.175-8.459,0.459-12.468-0.12c-0.831,0.732-2.007,0.43-2.997,0.479
		c-34.152,1.718-70.101,3.963-101.664,9.592c-0.675-7.403-1.211-14.92-0.12-22.3C0.632,43.686,0.666,43.293,0.865,43.256z"/>
	<path style="fill-rule:evenodd;clip-rule:evenodd;" d="M7.458,93.129c-2.785-5.728-4.571-12.452-5.755-19.781
		c35.111-8.674,76.873-13.728,118.208-14.026c4.257-0.031,10.366,0,15.346,0c1.398,0,3.865,0.031,3.836,1.318
		c-0.031,1.407-2.915,1.199-4.076,1.199c-25.098-0.003-47.812,2.746-68.576,7.793C44.249,75.026,25.844,84.22,7.458,93.129z"/>
	<path style="fill-rule:evenodd;clip-rule:evenodd;" d="M13.573,102.601c-1.588-0.85-2.312-2.564-3.237-4.076
		c18.066-10.013,37.348-19.106,59.344-25.057c16.483-4.459,34.485-7.077,54.668-7.912c1.043-0.044,4.673-0.365,4.316,1.438
		c-0.211,1.062-3.447,1.071-5.036,1.198c-24.31,1.948-46.714,8.912-63.899,18.703c-6.839,3.896-13.528,8.018-19.422,13.307
		c-3.628,3.256-8.121,8.974-15.225,8.992c-4.645,0.012-9.32-2.629-11.389-5.755C13.533,103.199,13.153,102.87,13.573,102.601z
		 M54.933,84.617c0.409-0.03,0.635-0.244,0.719-0.6c-0.153-0.007-0.166-0.153-0.36-0.12C55.178,84.143,55.048,84.372,54.933,84.617z
		"/>
</g>
<g id="Layer_1">
</g>
</svg>
