<?xml version="1.0" encoding="iso-8859-1"?>
<!-- Generator: Adobe Illustrator 19.2.0, SVG Export Plug-In . SVG Version: 6.00 Build 0)  -->
<svg version="1.1" xmlns="http://www.w3.org/2000/svg" xmlns:xlink="http://www.w3.org/1999/xlink" x="0px" y="0px"
	 viewBox="0 0 72.302 75.049" style="enable-background:new 0 0 72.302 75.049;" xml:space="preserve">
<g id="Systems_x5F_Professional_x5F_68">
	<path style="fill-rule:evenodd;clip-rule:evenodd;" d="M7.339,4.909c1.662-1.508,3.561-2.713,5.863-3.586
		c2.318-0.878,4.989-1.192,8.14-1.308c1.442-0.053,2.931,0.049,4.458,0.049c7.326,0,15.201,0.048,22.579,0.048
		c3.044,0,6.093-0.144,9.109,0c5.658,0.269,9.389,2.81,11.386,6.88c1.039,2.117,1.684,4.762,1.211,7.607
		c-0.796,4.792-4.057,8.527-8.528,9.739c-2.281,0.618-5.214,0.775-8.334,0.775c-2.874,0-6.118,0.107-9.061-0.097
		c-2.951-0.205-5.438-0.603-7.365-1.744c-1.898-1.125-3.417-2.785-4.554-4.603c-1.207-1.93-1.893-3.964-3.489-5.621
		c-1.463-1.518-3.403-2.794-5.717-3.392c-2.6-0.671-5.506-0.032-7.559,0.969c-1.961,0.956-3.626,2.487-4.797,4.36
		c-1.188,1.899-1.948,4.463-1.648,7.365c0.277,2.67,1.269,4.768,2.713,6.444c1.365,1.584,3.245,3.02,5.475,3.634
		c2.486,0.685,5.447,0.581,8.576,0.581c3.027,0,6.11,0,9.012,0c3.005,0,6.111-0.112,9.109,0c3.04,0.114,6.084-0.152,8.915,0.194
		c5.305,0.649,9.652,2.433,12.743,5.524c3.035,3.034,5.673,6.645,6.444,11.773c1.349,8.968-2.371,15.712-7.123,19.672
		c-3.168,2.64-7.666,4.845-13.421,4.845c-8.7,0-17.751-0.049-26.843-0.048c-6.058,0.001-12.687,0.628-16.571-1.696
		c-0.844-0.505-1.705-1.288-2.471-2.083c-0.693-0.719-1.524-1.676-1.89-2.665c-0.82-2.216-1.631-4.624-1.211-7.704
		c0.693-5.08,3.811-8.673,8.285-9.981c2.333-0.682,5.529-0.468,8.528-0.436c3.095,0.033,6.032-0.049,8.964-0.048
		c6.337,0,9.372,2.478,11.774,6.493c2.299,3.842,4.233,7.851,9.4,8.818c5.739,1.075,10.134-2.134,12.161-5.717
		c1.12-1.979,1.857-4.667,1.502-7.462c-0.339-2.669-1.428-4.515-2.956-6.153c-1.45-1.554-3.241-2.882-5.621-3.537
		c-2.293-0.631-5.261-0.63-8.479-0.63c-5.917,0-11.718-0.097-17.831-0.097c-3.048,0-6.055,0.131-8.867-0.097
		c-6.969-0.564-11.709-3.467-14.972-7.801c-0.327-0.434-0.705-0.829-0.969-1.309c-1.332-2.417-2.596-4.996-3.149-8.285
		c-0.427-2.537-0.33-5.608,0.242-8.285c0.516-2.41,1.625-4.487,2.665-6.444C4.216,7.885,5.735,6.385,7.339,4.909z"/>
</g>
<g id="Layer_1">
</g>
</svg>
