<?xml version="1.0" encoding="iso-8859-1"?>
<!-- Generator: Adobe Illustrator 19.2.0, SVG Export Plug-In . SVG Version: 6.00 Build 0)  -->
<svg version="1.1" xmlns="http://www.w3.org/2000/svg" xmlns:xlink="http://www.w3.org/1999/xlink" x="0px" y="0px"
	 viewBox="0 0 76.47 77.077" style="enable-background:new 0 0 76.47 77.077;" xml:space="preserve">
<g id="Systema_x5F_Leasing">
	<path style="fill-rule:evenodd;clip-rule:evenodd;" d="M55.687,56.852c-0.4,1.137-0.225,2.289-0.259,3.36
		c-0.104,3.354-1.141,6.031-2.481,8.323c-1.753,2.999-4.282,5.464-7.495,6.927c-3.353,1.527-8.104,2.146-12.2,1.086
		c-3.742-0.969-6.754-3.007-8.892-5.532c-2.43-2.916-4.462-6.891-4.239-12.458c0.028-0.706,0.169-1.855-0.104-2.171
		c-0.333-0.386-2.676-0.272-3.309-0.31c-3.425-0.202-6.047-1.209-8.271-2.533c-4.314-2.567-7.547-6.93-8.323-13.234
		c-0.253-2.055-0.078-4.5,0.466-6.514c1.011-3.746,2.92-6.669,5.531-8.84c2.65-2.124,5.576-4.04,10.185-4.239
		c0.619-0.027,1.508,0.021,2.378,0c0.761-0.018,1.795,0.12,2.119-0.155c0.313-0.266,0.104-1.361,0.104-2.068
		c0-5.549,1.711-9.103,4.187-12.149c2.632-3.236,7.01-5.951,12.562-6.307c6.517-0.417,10.884,2.654,13.958,5.79
		c1.645,1.679,2.871,3.8,3.619,6.255c0.332,1.091,0.762,2.591,0.878,4.084c0.061,0.77,0.052,1.527,0.052,2.43
		c0,0.57-0.193,1.921,0.104,2.327c0.219,0.297,1.386,0.285,2.12,0.31c2.473,0.085,4.516,0.34,6.255,0.982
		c2.318,0.856,4.464,2.194,5.996,3.619c3.202,2.975,5.905,7.368,5.843,13.389c-0.062,5.906-2.879,10.322-6.152,13.131
		c-2.562,2.2-5.785,3.945-10.133,4.291C58.767,56.758,57.247,56.574,55.687,56.852z M54.343,16.839
		c-0.068-1.398-0.311-2.678-0.673-3.825c-1.446-4.59-4.259-7.687-8.322-9.667c-2.007-0.978-4.578-1.72-7.444-1.551
		c-5.728,0.336-9.888,3.343-12.355,6.927c-1.251,1.817-2.282,4.064-2.74,6.772c-0.454,2.688-0.047,5.743,0.931,8.22
		c1.5,3.798,4.07,6.5,7.651,8.375c1.863,0.975,3.916,1.448,6.307,1.706c2.617,0.282,4.225,1.605,4.808,3.257
		c0.967,2.735-0.416,5.018-2.48,5.997c-2.471,1.17-5.459-0.247-6.256-1.964c-0.708-1.525-0.172-3.54-0.62-5.221
		c-1.51-0.301-3.32-0.134-5.273-0.207c-0.837-0.031-1.686-0.052-2.791-0.052c-0.845,0-2.175-0.225-2.585,0.155
		c-0.427,0.395-0.285,2.646-0.259,3.309c0.29,7.25,4.461,12.058,9.667,14.32c2.961,1.286,6.949,1.499,10.236,0.62
		c3.095-0.827,5.642-2.49,7.548-4.498c1.927-2.031,3.423-4.552,4.031-7.961c0.687-3.844-0.202-7.477-1.447-10.029
		c-2.35-4.816-6.446-7.65-12.354-8.633c-0.853-0.142-1.781-0.113-2.688-0.362c-1.892-0.519-3.532-2.398-3.464-4.808
		c0.091-3.229,3.427-5.671,6.565-4.291c1.03,0.453,2.224,1.474,2.637,2.999c0.362,1.337,0.003,2.981,0.361,4.394
		c0.733,0.39,1.724,0.253,2.637,0.258c1.802,0.01,3.609,0.01,5.531,0c0.912-0.004,1.858,0.255,2.637-0.103
		C54.475,19.613,54.408,18.17,54.343,16.839z M41.368,19.372c0.095-2.257-0.316-3.59-1.758-4.239
		c-2.092-0.941-4.054,0.962-4.032,2.74c0.031,2.679,2.735,3.352,5.479,3.05C41.381,20.491,41.345,19.899,41.368,19.372z
		 M6.525,27.024c-2.604,2.602-4.512,6.174-4.756,10.598c-0.23,4.129,1.069,7.294,2.687,9.719c2.786,4.172,7.452,6.926,14.165,6.927
		c3.23,0,6.767,0.333,10.339,0.051c-0.128-0.608-0.784-0.826-1.189-1.137c-2.571-1.976-4.936-4.72-6.151-8.064
		c-0.209-0.576-0.364-1.406-0.724-1.654c-0.819-0.566-3.252-0.108-4.239-0.31c-2.17-0.444-3.701-2.18-3.825-4.498
		c-0.146-2.737,1.696-4.73,4.188-4.963c2.129-0.198,4.251,0.06,6.358,0.052c2.043-0.008,4.124,0.184,6.255-0.052
		c-0.034-0.508-0.619-0.727-0.982-0.982c-1.208-0.851-2.345-1.854-3.257-2.947c-1.28-1.421-2.419-3.146-3.205-5.066
		c-0.271-0.661-0.376-1.387-0.827-1.964C14.902,21.827,10.002,23.546,6.525,27.024z M55.583,49.253c-0.039,0.859,0.057,1.771,0,2.74
		c-0.043,0.724-0.227,2.125,0.104,2.533c0.331,0.409,1.351,0.228,2.017,0.258c2.436,0.111,4.723-0.246,6.358-0.827
		c2.453-0.871,4.316-2.248,5.893-3.825c1.544-1.544,2.91-3.427,3.774-5.894c0.824-2.355,1.215-5.552,0.62-8.478
		c-1.076-5.297-4.338-8.8-8.427-10.959c-1.096-0.579-2.245-0.948-3.566-1.293c-1.366-0.356-2.775-0.347-4.446-0.414
		c-3.674-0.147-7.458-0.205-10.804,0c0.179,0.591,0.809,0.827,1.24,1.138c2.348,1.691,4.229,3.824,5.531,6.513
		c0.517,1.066,0.861,2.225,1.499,3.309c1.193,0.351,2.553,0.017,3.826,0.155c1.234,0.134,2.18,0.732,2.895,1.292
		c0.594,0.882,1.294,1.829,1.396,3.205c0.124,1.66-0.711,2.953-1.447,3.929c-1.193,1.406-3.938,1.046-6.151,1.292
		C55.528,45.39,55.668,47.381,55.583,49.253z M17.587,35.502c-2.342,0.182-3.745,2.596-2.533,4.498
		c0.207,0.325,0.939,0.995,1.396,1.137c0.968,0.301,2.655,0.385,3.929,0.104c0.27-0.767,0.052-1.875,0.052-2.895
		c0-1.032,0.227-2.138-0.258-2.74C19.406,35.472,18.433,35.436,17.587,35.502z M36.818,41.343c1.741,0.873,3.521-0.434,3.98-1.603
		c0.662-1.686-0.386-3.218-1.706-3.773c-1.151-0.103-2.86-0.533-3.774,0.052C34.812,38.256,35.299,40.582,36.818,41.343z
		 M61.839,38.81c-0.16-2.481-2.956-3.06-5.843-2.689c-0.54,0.549-0.258,1.718-0.258,2.74c0,1.065-0.15,2.244,0.258,2.895
		C59.129,42.51,62.009,41.462,61.839,38.81z M53.413,47.702c-0.384,0.414-0.699,0.936-1.034,1.396
		c-1.695,2.33-3.725,4.037-6.41,5.48c-0.905,0.486-2.86,0.792-3.257,1.499c-0.28,0.5-0.198,1.266-0.207,1.81
		c-0.01,0.665,0.056,1.406,0,2.067c-0.128,1.528-1.013,2.965-2.171,3.671c-0.732,0.446-2.164,0.891-3.516,0.62
		c-0.454-0.091-0.766-0.328-1.292-0.465c-0.953-0.703-1.797-1.392-2.223-2.688c-0.408-1.24-0.093-3.031-0.414-4.497
		c-0.743-0.27-1.697-0.267-2.584-0.258c-1.878,0.017-3.43-0.052-5.429-0.052c-0.789,0-2.333-0.171-2.688,0.155
		c-0.323,0.297-0.261,1.61-0.258,2.171c0.031,5.966,2.009,9.563,4.91,12.407c1.589,1.556,3.755,2.883,6.256,3.619
		c2.61,0.768,5.854,0.834,8.685,0.207c5.096-1.129,8.746-4.858,10.598-9.15c1.004-2.327,1.344-5.228,1.344-8.53
		c0-2.427,0.001-5.007,0.104-7.341c0.033-0.747,0.213-1.54-0.155-2.223c-0.034,0-0.068,0-0.104,0
		C53.506,47.623,53.451,47.653,53.413,47.702z M39.506,56.386c-1.475,0.134-3.397-0.215-4.498,0.259
		c-0.599,2.966,0.016,6.028,3.206,5.738c2.281-0.434,2.917-2.941,2.43-5.841C40.366,56.218,39.942,56.347,39.506,56.386z"/>
</g>
<g id="Layer_1">
</g>
</svg>
