<?xml version="1.0" encoding="iso-8859-1"?>
<!-- Generator: Adobe Illustrator 19.2.0, SVG Export Plug-In . SVG Version: 6.00 Build 0)  -->
<svg version="1.1" xmlns="http://www.w3.org/2000/svg" xmlns:xlink="http://www.w3.org/1999/xlink" x="0px" y="0px"
	 viewBox="0 0 81.386 25.742" style="enable-background:new 0 0 81.386 25.742;" xml:space="preserve">
<g id="T_x5F_Nishiwaki_x5F_Visual_x5F_Design_x5F_Laboratory">
	<path style="fill-rule:evenodd;clip-rule:evenodd;" d="M24.177,0.112c2.077,6.854,3.773,13.969,5.74,21
		c0.269,0.963,0.456,1.961,0.956,2.822c0.259-1.957,0.144-4.014,0.144-6.027c0-5.078,0-9.838,0-14.924
		c0-0.965-0.118-1.969,0.191-2.871c7.902-0.158,16.459-0.154,24.587,0.049c1.779,5.957,3.289,12.182,5.022,18.225
		c0.582,2.029,0.94,4.101,1.722,6.027c0.378-0.35,0.444-0.934,0.574-1.387c1.572-5.514,3.104-11.238,4.592-16.838
		c0.543-2.045,0.971-4.135,1.722-6.076c3.789-0.092,7.936-0.133,11.958,0.049c-0.109,1.096-0.477,2.148-0.765,3.205
		c-1.739,6.377-3.479,12.754-5.166,19.182c-0.272,1.035-0.518,2.088-0.957,3.061c-7.721,0.152-15.868,0.184-23.678,0.049
		c-0.524-0.92-0.638-2.004-0.909-3.014c-1.614-6.025-3.337-12.356-5.023-18.465c-0.271-0.982-0.429-2.041-0.956-2.918
		c-0.255,0.947-0.144,1.973-0.144,2.967c0,7.008,0.081,14.35-0.096,21.381c-8.227,0.131-16.753,0.199-24.635,0.049
		c-0.728-1.957-1.171-4.031-1.722-6.076c-1.22-4.527-2.627-9.133-3.731-13.775c-0.128-0.541-0.141-1.096-0.287-1.627
		c-0.271-0.982-0.484-2.016-0.957-2.918c-0.259,0.945-0.144,1.963-0.143,2.967c0,5.072,0.11,10.361,0,15.498
		c-0.044,2.031,0.148,4.025-0.143,5.932c-2.749,0.152-5.879,0.047-9.04,0.047c-1.023,0-2.049,0.111-2.966-0.143
		c-0.131-6.17-0.013-12.766-0.048-19.326c-0.009-1.578-0.031-3.149,0-4.688C0.03,1.055-0.091,0.51,0.164,0.065
		C8.183,0.016,16.518-0.054,24.177,0.112z"/>
</g>
<g id="Layer_1">
</g>
</svg>
