<?xml version="1.0" encoding="iso-8859-1"?>
<!-- Generator: Adobe Illustrator 19.2.0, SVG Export Plug-In . SVG Version: 6.00 Build 0)  -->
<svg version="1.1" xmlns="http://www.w3.org/2000/svg" xmlns:xlink="http://www.w3.org/1999/xlink" x="0px" y="0px"
	 viewBox="0 0 73.866 75.737" style="enable-background:new 0 0 73.866 75.737;" xml:space="preserve">
<g id="Tage_x5F_Poulsens_x5F_Mobelsnedkeri">
	<path style="fill-rule:evenodd;clip-rule:evenodd;" d="M56.562,0.197c0.267,5.621-0.041,12.029,0.146,17.572
		c1.329,0.228,2.766,0.2,4.21,0.146c1.419-0.053,2.913,0.049,4.356,0.049c2.906,0,5.829-0.087,8.468,0.05
		c0.248,11.257,0.036,23.819,0.099,35.096c0.004,0.839-0.088,1.668-0.05,2.496c0.035,0.755,0.104,1.524-0.098,2.252
		c-5.615,0.158-11.512-0.062-16.936,0.098c-0.268,0.686-0.146,1.47-0.146,2.202c0,5.291,0.028,10.396-0.146,15.517
		c-12.608,0.072-26.588,0.136-39.062-0.147c-0.24-5.344,0.15-11.764-0.146-17.621c-1.248-0.305-2.683-0.195-4.111-0.196
		c-4.255,0-9.029,0.117-13.069-0.146c-0.132-11.975-0.048-24.548-0.049-37.396c0-0.796-0.118-1.636,0.146-2.398
		c5.447-0.044,11.666,0.079,17.034-0.049c0.293-1.347,0.195-2.824,0.195-4.308c0.001-4.343-0.08-9.059,0.099-13.265
		C17.708,0.038,18.146-0.004,18.382,0C30.598,0.274,44.079-0.097,56.562,0.197z M0.711,18.209c-0.058,0.024-0.11,0.053-0.147,0.099
		c-0.242,0.256-0.147,1.584-0.146,2.349C0.419,33.136,0.3,45.238,0.467,57.123c1.305,0.252,2.705,0.147,4.111,0.146
		c2.913,0,5.759,0.001,8.517,0c1.408,0,2.823,0.135,4.112-0.098c0.257-0.721,0.146-1.521,0.146-2.301c0-2.486,0-4.967,0-7.439
		c0-2.502,0.13-5.05,0.049-7.392c-0.026-0.764-0.191-1.568,0.147-2.252c6.487-0.18,12.867,0.13,19.334-0.049
		c0.051-4.853,0.104-9.924,0.05-14.488c-0.02-1.633,0.134-3.255-0.147-4.797C25.116,18.165,12.844,18.241,0.711,18.209z
		 M69.483,18.406c-4.171-0.001-8.482,0.011-12.53-0.05c-0.058,0.024-0.111,0.053-0.148,0.099c-0.304,0.244-0.195,1.554-0.195,2.301
		c0,5.596,0.094,11.522-0.098,16.984c-6.047,0.206-12.99-0.085-19.53,0.098c-0.162,6.28-0.164,13.204,0,19.433
		c6.045,0.136,12.207,0.146,18.258,0.147c6.047,0,12.161,0.282,18.062-0.049c0.241-6.204,0.147-12.777,0.146-19.335
		c0-6.563,0.082-13.184-0.098-19.53C72.133,18.211,70.822,18.406,69.483,18.406z"/>
</g>
<g id="Layer_1">
</g>
</svg>
