<?xml version="1.0" encoding="iso-8859-1"?>
<!-- Generator: Adobe Illustrator 19.2.0, SVG Export Plug-In . SVG Version: 6.00 Build 0)  -->
<svg version="1.1" xmlns="http://www.w3.org/2000/svg" xmlns:xlink="http://www.w3.org/1999/xlink" x="0px" y="0px"
	 viewBox="0 0 77.743 78.196" style="enable-background:new 0 0 77.743 78.196;" xml:space="preserve">
<g id="Taiheiyo_x5F_Marine">
	<path style="fill-rule:evenodd;clip-rule:evenodd;" d="M77.427,0.149c0.158,16.233,0.194,32.15,0.194,48.686
		c-0.001,8.645,0.097,17.686,0.097,26.816c0,0.778,0.114,1.574-0.146,2.328c-5.264,0.177-10.99,0.097-16.488,0.097
		c-1.809,0-3.601,0.127-5.286-0.097c-0.261-0.818-0.146-1.703-0.146-2.57c0-13.04-0.187-27.351-0.048-39.909
		c4.209-0.172,8.908-0.146,13.384-0.146c1.458,0,2.881,0.134,4.17-0.098c0.157-1.923,0.145-4.042,0.049-6.11
		c-0.097-2.087,0.218-4.208-0.097-6.061c-7.8-0.269-15.663-0.106-23.664,0c-0.24,1.065-0.193,2.205-0.146,3.298
		c0.145,3.284,0,6.856,0,10.378c0,13.876,0.197,28.055,0.048,41.267c-0.904,0.186-2.314,0.103-3.297,0.049
		c-0.265-1.171-0.146-2.406-0.146-3.589c0-18.043-0.286-36.52-0.048-54.65c8.834-0.356,18.701,0.031,27.253-0.243
		c0.185-4.255,0.127-9.415,0-13.384c-0.59-0.278-1.264-0.151-1.891-0.145c-9.873,0.093-20.677-0.159-30.89,0.097
		c-0.261,1.446-0.146,2.942-0.146,4.413c0,4.268,0.048,8.809,0.048,13.336c0,17.417,0.145,34.751,0.146,52.032
		c0,0.676,0.112,1.427-0.146,2.085c-0.798,0.074-2.373,0.163-3.152-0.097c-0.294-23.857-0.072-47.985-0.339-71.721
		c-1.186-0.316-2.578-0.194-4.025-0.193c-9.671,0-19.448,0.031-28.95,0.193c-0.26,1.02-0.146,2.164-0.146,3.298
		c0,3.329-0.067,6.976,0.146,10.135c9,0.325,18.587-0.154,27.253,0.097c0.26,1.166,0.146,2.393,0.146,3.589
		c0,17.764,0.145,36.936,0.048,54.651c-0.89,0.155-2.408,0.163-3.297,0c-0.263-2.233-0.146-4.524-0.146-6.789
		c0-15.77-0.071-32.462-0.194-48.057c-0.886-0.317-1.896-0.209-2.861-0.193c-4.957,0.076-9.946,0.096-14.984,0.097
		c-2.011,0-4.001-0.112-5.916,0.146c-0.259,0.906-0.146,1.941-0.146,2.958c0,2.969-0.079,6.31,0.097,9.165
		c0.663,0.261,1.42,0.145,2.134,0.145c5.218,0.001,10.164-0.101,15.42,0.049c0.225,14.092,0.217,29.077,0.146,42.527
		C14.903,78.26,7.149,78.21,0.275,78.126c-0.26-3.223-0.146-6.479-0.146-9.747c0-22.47-0.207-45.601-0.097-68.133
		C0.823,0.011,1.68,0.12,2.506,0.1c4.389-0.105,8.867-0.049,13.384-0.048C31.747,0.055,47.67,0.002,63.558,0.004
		C68.208,0.005,72.853-0.039,77.427,0.149z"/>
</g>
<g id="Layer_1">
</g>
</svg>
