<?xml version="1.0" encoding="iso-8859-1"?>
<!-- Generator: Adobe Illustrator 19.2.0, SVG Export Plug-In . SVG Version: 6.00 Build 0)  -->
<svg version="1.1" xmlns="http://www.w3.org/2000/svg" xmlns:xlink="http://www.w3.org/1999/xlink" x="0px" y="0px"
	 viewBox="0 0 60.352 79.501" style="enable-background:new 0 0 60.352 79.501;" xml:space="preserve">
<g id="Taikoo_x5F_Shing">
	<path style="fill-rule:evenodd;clip-rule:evenodd;" d="M17.812,0.16c0.262,6.313,0.152,13.024,0.152,19.773
		c0,3.225,0,6.534,0,9.811c0,3.35,0.117,6.676-0.152,9.912c-7.475-0.328-12.693,1.998-16.215,5.846
		c-0.49,0.534-0.783,1.306-1.475,1.678c-0.185-14.143-0.1-29.497-0.102-44.225c0-0.875-0.103-2.572,0.152-2.847
		C0.21,0.062,0.265,0.031,0.325,0.008C6.285,0.047,12.24-0.022,17.812,0.16z"/>
	<path style="fill-rule:evenodd;clip-rule:evenodd;" d="M60.155,0.16c0.267,3.14,0.152,6.388,0.152,9.606
		c0,9.686-0.003,19.422,0,29.076c-0.994,3.421-3.918,5.995-7.067,7.371c-3.038,1.327-6.884,2.305-10.878,1.474
		c-0.202-0.922-0.102-1.891-0.102-2.847c0.001-14.447-0.189-29.851,0.051-44.63c2.224-0.438,4.738,0.06,7.117-0.153
		c0.077-0.007,0.091-0.05,0.152-0.05C53.115-0.026,56.75,0.055,60.155,0.16z"/>
	<path style="fill-rule:evenodd;clip-rule:evenodd;" d="M39.009,0.16c0.275,3.852,0.152,7.8,0.152,11.741c0,9.847,0,19.382,0,29.331
		c0,1.918,0.142,3.829-0.102,5.692c-1.695-0.201-3.293-0.736-4.829-1.22c-3.06-0.963-5.976-2.144-8.794-3.456
		c-1.418-0.66-2.899-1.11-4.27-1.83c-0.162-11.076-0.076-23.634-0.102-35.379c-0.004-1.642-0.055-3.26,0.152-4.829
		C27.058,0.06,33.489,0.014,39.009,0.16z"/>
	<path style="fill-rule:evenodd;clip-rule:evenodd;" d="M60.257,43.723c-0.015,4.864,0.468,9.821-0.61,13.572
		c-1.065,3.706-2.911,6.749-5.896,8.54c-1.455,0.873-3.262,1.408-5.083,1.83c-1.831,0.424-4.027,0.746-6.151,0.763
		c-5.319,0.04-9.589-2.07-13.47-3.812c-1.355-0.608-2.659-1.273-3.965-1.779c-2.795-1.084-6.48-1.686-10.015-1.169
		c-3.155,0.461-5.952,1.661-7.878,3.608c-0.504,0.508-0.756,1.214-1.322,1.576c-0.62-0.328-0.867-1.028-1.22-1.576
		c-1.06-1.644-2.05-3.479-2.796-5.54c-0.938-2.592-2.318-6.154-1.017-8.947c1.144-2.453,3.107-4.311,5.286-5.794
		c1.113-0.758,2.279-1.476,3.609-1.932c1.398-0.481,2.961-0.841,4.777-0.967c3.633-0.25,6.607,0.958,9.252,1.982
		c1.328,0.516,2.61,1.142,3.914,1.678c3.881,1.597,8.184,3.116,12.759,4.066c7.731,1.607,15.606-0.923,19.012-5.438
		C59.768,44.244,59.851,43.613,60.257,43.723z"/>
	<path style="fill-rule:evenodd;clip-rule:evenodd;" d="M53.038,68.58c-0.104,0.643-0.688,1.044-1.118,1.474
		c-0.426,0.427-0.793,0.945-1.22,1.373c-0.531,0.532-1.234,1.027-1.881,1.575c-0.606,0.515-1.316,0.992-1.982,1.424
		c-4.051,2.622-9.15,4.687-15.402,5.032c-5.623,0.312-10.146-1.131-14.029-2.847c-2.816-1.244-5.375-2.973-7.625-5.032
		c-0.627-0.575-1.718-1.619-1.83-2.339c-0.261-1.673,1.078-2.201,1.728-3.101c2.119-1.243,4.711-2.107,7.777-2.287
		c3.406-0.2,6.59,1.026,8.997,2.236c2.489,1.252,5.198,2.443,7.828,3.355c5.091,1.766,11.9,1.642,16.724-0.203
		C51.675,68.984,52.327,68.622,53.038,68.58z"/>
</g>
<g id="Layer_1">
</g>
</svg>
