<?xml version="1.0" encoding="iso-8859-1"?>
<!-- Generator: Adobe Illustrator 19.2.0, SVG Export Plug-In . SVG Version: 6.00 Build 0)  -->
<svg version="1.1" xmlns="http://www.w3.org/2000/svg" xmlns:xlink="http://www.w3.org/1999/xlink" x="0px" y="0px"
	 viewBox="0 0 77.344 76.76" style="enable-background:new 0 0 77.344 76.76;" xml:space="preserve">
<g id="Taiyo_x5F_Bank">
	<path style="fill-rule:evenodd;clip-rule:evenodd;" d="M39.718,0.144c0.213,0.336,0.129,0.796,0.192,1.153
		c0.5,2.867,2.805,5.034,5.721,5.432c1.738,0.237,3.301-0.156,4.469-0.913c1.144-0.741,1.908-1.769,2.693-2.884
		c0.621,0.179,1.207,0.395,1.633,0.769c-1.566,5.168,2.035,9.645,7.162,9.277c1.652-0.119,2.746-0.958,3.846-1.731
		c0.369,0.065,0.49,0.357,0.77,0.625c0.215,0.208,0.615,0.407,0.623,0.721c0.01,0.32-0.619,0.846-0.816,1.154
		c-1.531,2.395-1.25,5.623,0.385,7.69c1.529,1.935,4.27,3.233,7.594,2.115c0.365,0.517,0.629,1.134,0.77,1.874
		c-1.15,0.647-2.264,1.409-2.98,2.499c-1.332,2.029-1.389,4.864-0.191,6.97c1.066,1.876,3.113,3.085,5.672,3.316
		c0.162,0.485,0.07,1.457-0.049,1.971c-2.846,0.11-5.238,1.825-6.103,4.038c-1.254,3.2,0.17,6.631,2.353,8.027
		c0.379,0.24,0.787,0.279,1.154,0.673c-0.158,0.674-0.414,1.251-0.77,1.73c-4.057-1.342-7.336,0.734-8.555,3.557
		c-0.771,1.786-0.555,4.036,0.289,5.623c0.197,0.375,0.965,1.115,0.961,1.49c-0.006,0.469-0.893,0.985-1.201,1.25
		c-1.395-1.035-2.988-1.992-5.24-1.923c-2.227,0.068-3.986,1.441-4.998,2.836c-0.852,1.173-1.455,2.652-1.154,4.566
		c0.08,0.503,0.256,0.978,0.289,1.538c-0.33,0.423-0.928,0.579-1.586,0.673c-0.98-1.783-2.385-3.221-4.471-3.797
		c-3.461-0.956-6.729,0.964-7.883,3.557c-0.336,0.755-0.406,1.719-0.721,2.644c-0.498,0.165-1.309,0.1-1.777-0.048
		c-0.354-3.945-3.219-6.962-7.596-6.585c-1.604,0.139-3.162,1.054-4.037,2.067c-0.492,0.568-0.686,1.299-1.297,1.826
		c-0.656-0.113-1.188-0.352-1.588-0.721c-0.07-0.468,0.209-0.852,0.289-1.25c0.834-4.08-2.393-7.621-6.104-7.931
		c-0.301-0.025-0.582-0.021-0.865,0c-1.902,0.141-3.178,0.803-4.375,1.73c-0.322-0.218-1.227-0.738-1.25-1.25
		c-0.016-0.414,0.557-0.814,0.769-1.154c3.045-4.834-0.984-10.562-6.439-10.142c-0.592,0.046-1.092,0.309-1.828,0.336
		c-0.391-0.425-0.592-1.042-0.721-1.73c0.689-0.482,1.455-0.884,2.066-1.442c1.113-1.24,1.969-2.802,1.924-4.807
		c-0.039-1.764-0.871-3.415-1.826-4.422c-1.229-1.295-2.82-1.939-4.856-2.211C0.007,38.4-0.065,37.466,0.113,37.01
		c3.674-0.425,6.277-2.298,6.633-5.96c0.352-3.638-1.91-5.563-4.135-6.921c0.121-0.698,0.383-1.252,0.723-1.73
		c1.193,0.302,2.27,0.568,3.363,0.433c3.051-0.376,5.605-2.541,5.961-5.575c0.248-2.123-0.383-3.764-1.25-4.903
		c-0.258-0.34-0.619-0.541-0.625-0.817c-0.008-0.354,0.918-1.274,1.25-1.297c0.209-0.015,0.582,0.296,0.816,0.48
		c1.551,1.213,4.582,1.967,6.873,0.865c2.145-1.03,3.957-2.922,3.941-6.248c0-0.316-0.053-0.833-0.143-1.202
		c-0.074-0.298-0.354-0.744-0.289-1.009c0.106-0.44,1.223-0.623,1.682-0.769c0.713,1.081,1.355,2.233,2.404,2.98
		c1.146,0.663,2.297,1.329,3.988,1.346c3.342,0.033,5.971-2.36,6.49-5.287c0.076-0.432-0.029-0.943,0.287-1.346
		C38.577-0.035,39.312-0.015,39.718,0.144z M32.556,7.69c-0.15,2.555-1.301,4.498-3.076,5.576c-1.742,1.057-4.863,1.235-6.682,0
		c-0.445-0.274-0.727-0.714-1.346-0.817c0.012,0.786,0.287,1.459,0.289,2.211c0.01,3.768-3.002,6.702-7.018,6.393
		c-0.752-0.058-1.379-0.344-2.162-0.433c0.057,0.504,0.482,0.791,0.721,1.154c0.609,0.932,1.107,2.039,1.105,3.557
		c-0.008,2.933-1.803,5.14-3.941,6.008c-0.834,0.338-1.742,0.334-2.691,0.673c0.443,0.429,1.002,0.669,1.49,1.057
		c1.394,1.112,2.576,2.834,2.547,5.239c-0.016,1.207-0.504,2.023-0.818,3.028c-0.557,0.814-1.17,1.509-1.969,2.019
		c-0.35,0.222-0.787,0.391-1.01,0.769c0.643,0.304,1.344,0.307,1.971,0.528c3.158,1.12,5.555,4.876,3.844,8.988
		c-0.35,0.675-0.892,1.157-1.201,1.875c0.506,0.052,0.893-0.211,1.346-0.289c4.609-0.783,8.629,3.229,7.738,7.739
		c-0.076,0.393-0.348,0.802-0.24,1.298c0.674-0.219,1.176-0.793,1.875-1.105c0.691-0.309,1.559-0.563,2.451-0.577
		c2.084-0.033,3.695,0.819,4.855,1.971c0.604,0.75,1.238,1.615,1.537,2.691c0.139,0.498,0.09,1.111,0.434,1.538
		c0.801-1.163,1.574-2.162,2.738-2.836c3.119-1.805,7.127-0.377,8.652,1.827c0.275,0.397,0.332,0.978,0.865,1.249
		c0.311-1.404,0.645-2.785,1.395-3.749c1.193-1.345,2.933-2.552,5.383-2.547c0.932,0.002,1.84,0.271,2.547,0.577
		c0.717,0.31,1.227,0.917,1.924,1.106c-1.475-5.723,3.201-9.808,8.604-8.171c-0.174-0.64-0.613-1.142-0.914-1.73
		c-0.314-0.617-0.553-1.282-0.625-2.115c-0.369-4.293,2.721-6.595,6.105-7.162c-0.225-0.498-0.74-0.773-1.154-1.105
		c-1.781-1.432-3.102-4.361-2.019-7.354c0.469-0.8,0.812-1.598,1.441-2.211c0.592-0.576,1.392-0.893,1.924-1.538
		c-3.652-0.592-6.537-3.084-6.201-7.45c0.121-1.56,1.09-2.621,1.684-3.797c-0.955,0.094-1.793,0.356-2.74,0.288
		c-1.774-0.127-3.141-0.925-4.133-1.778c-0.777-0.772-1.426-1.784-1.828-3.076c-0.396-1.285-0.227-2.851,0.049-4.182
		c-1.395,0.688-2.477,1.64-4.471,1.634c-1.955-0.005-3.586-0.848-4.709-1.971c-1.184-1.183-1.764-2.806-2.115-4.566
		c-0.494,0.28-0.594,0.828-0.914,1.25c-1.047,1.385-2.84,2.499-5.094,2.5c-3.26,0-5.068-2.009-6.248-4.278
		c-0.062-0.003-0.068-0.062-0.145-0.048C32.601,7.607,32.542,7.613,32.556,7.69z"/>
	<path style="fill-rule:evenodd;clip-rule:evenodd;" d="M57.597,55.514c-2.609,2.868-5.605,4.782-9.42,6.296
		c-3.783,1.502-8.611,2.13-13.555,1.346c-4.111-0.653-8.092-2.625-10.91-4.807c-2.992-2.315-5.313-5.033-7.209-8.459
		c-1.889-3.409-3.152-7.82-2.934-12.689c0.221-4.844,1.576-8.633,3.605-12.064c1.811-3.058,4.76-5.913,7.883-7.834
		c3.361-2.069,7.221-3.568,12.064-3.797c6.332-0.299,10.949,1.523,14.9,3.941c3.981,2.437,6.93,5.721,9.084,9.757
		c2.131,3.996,3.547,9.373,2.643,15.621C62.976,48.188,60.491,52.173,57.597,55.514z"/>
</g>
<g id="Layer_1">
</g>
</svg>
