<?xml version="1.0" encoding="iso-8859-1"?>
<!-- Generator: Adobe Illustrator 19.2.0, SVG Export Plug-In . SVG Version: 6.00 Build 0)  -->
<svg version="1.1" xmlns="http://www.w3.org/2000/svg" xmlns:xlink="http://www.w3.org/1999/xlink" x="0px" y="0px"
	 viewBox="0 0 76.015 76.508" style="enable-background:new 0 0 76.015 76.508;" xml:space="preserve">
<g id="Takarabune">
	<path style="fill-rule:evenodd;clip-rule:evenodd;" d="M75.965,0.185c0.116,0.504-0.454,0.8-0.739,1.085
		c-2.32,2.32-4.659,4.753-6.952,7.198c-1.845,1.968-4.074,3.975-6.114,6.015c-0.264,0.264-0.626,0.671-0.986,1.035
		c-0.392,0.398-0.789,0.839-1.183,0.937c-0.736,0.184-1.771,0.049-2.712,0.049c-6.527,0-12.711-0.049-18.884-0.049
		c-7.25,0-14.494-0.115-21.546,0.099c-0.265,0.837-0.148,1.734-0.147,2.613c0.001,12.442-0.05,25.245-0.049,37.914
		c0,0.925,0.138,1.992-0.049,2.663c-0.191,0.683-1.402,1.6-1.972,2.17c-2.062,2.061-4.255,4.235-6.262,6.163
		c-1.414,1.358-2.666,2.863-4.043,4.24c-1.03,1.03-2.051,2.051-3.107,3.106c-0.31,0.31-0.598,0.865-1.134,0.838
		c-0.015-9.496-0.15-19.376-0.049-29.04C0.185,33.008,0.086,19.437,0.086,4.474c0-1.17,0.02-2.42,0.049-3.5
		c0.025-0.897,0.039-0.858,0.493-0.937C1.3-0.08,2.144,0.122,2.995,0.086c2.248-0.095,4.727,0,7.001,0
		c12.784,0,25.264,0.049,37.914,0.049C57.298,0.135,66.652,0.156,75.965,0.185z"/>
	<path style="fill-rule:evenodd;clip-rule:evenodd;" d="M76.015,19.906c-0.021,0.503-0.533,0.779-0.838,1.085
		c-4.361,4.36-8.606,8.606-13.066,13.065c-0.271,0.27-0.683,0.602-1.035,0.986c-0.392,0.428-0.673,0.919-1.134,0.986
		c-0.882,0.127-1.955,0-2.958,0c-6.744,0-13.975-0.087-20.412,0.049c-0.26,0.912-0.148,1.908-0.147,2.859c0,5.88,0,11.877,0,17.897
		c0,1.019,0.15,2.141-0.05,2.909c-0.188,0.725-1.44,1.588-2.021,2.17c-4.58,4.58-8.943,8.992-13.509,13.559
		c-0.308,0.308-0.645,0.795-1.134,0.838c-0.092-17.389-0.05-35.292-0.049-53.051c0-1.14-0.112-2.293,0.148-3.402
		C38.447,19.687,57.865,19.8,76.015,19.906z"/>
	<path style="fill-rule:evenodd;clip-rule:evenodd;" d="M75.965,39.677c-0.037,0.566-0.586,0.932-0.936,1.282
		c-5.663,5.663-11.38,11.546-17.059,17.257c-5.685,5.753-11.408,11.47-16.961,17.355c-0.504,0.194-0.677,0.956-1.232,0.937
		c-0.181-6.029-0.099-12.344-0.099-18.587c0-5.444-0.117-10.885,0.049-16.172c0.022-0.708-0.171-1.478,0.197-2.12
		C51.804,39.627,64.411,39.612,75.965,39.677z"/>
</g>
<g id="Layer_1">
</g>
</svg>
