<?xml version="1.0" encoding="iso-8859-1"?>
<!-- Generator: Adobe Illustrator 19.2.0, SVG Export Plug-In . SVG Version: 6.00 Build 0)  -->
<svg version="1.1" xmlns="http://www.w3.org/2000/svg" xmlns:xlink="http://www.w3.org/1999/xlink" x="0px" y="0px"
	 viewBox="0 0 150.884 182.156" style="enable-background:new 0 0 150.884 182.156;" xml:space="preserve">
<g id="Takusa_x5F_80">
	<path style="fill-rule:evenodd;clip-rule:evenodd;" d="M74.857,0.005c0.495-0.062,0.945,0.524,1.435,0.922
		c5.896,4.802,11.992,9.644,17.779,14.449c4.888,3.665,9.465,7.713,14.192,11.579c9.549,7.809,18.851,15.133,28.487,23.056
		c2.285,1.878,4.672,3.835,7.122,5.738c1.735,1.348,3.458,2.91,5.277,4.406c0.567,0.466,1.529,1.02,1.64,1.537
		c0.215,1.006,0,2.509,0,3.792c-0.001,28.98,0.001,58.227,0,86.588c0,8.908,0.001,17.602,0,26.438c0,1.185,0.123,2.417-0.153,3.587
		c-18.688,0.104-37.945,0.062-56.462-0.051c-0.023-0.046-0.044-0.092-0.102-0.103c-0.154-39.963,0.051-80.288-0.103-120.251
		c-0.015-0.104-0.139-0.101-0.154-0.205c-4.851-0.051-10.195-0.153-14.961,0.052c-0.302,0.508-0.146,1.14-0.153,1.691
		c-0.258,19.322-0.051,39.304-0.051,58.614c-0.001,20.174,0.086,40.065-0.103,60.15c-1.986,0.171-4.674,0.169-6.661,0
		c-0.131-20.102-0.104-40.039-0.103-59.997c0-19.537,0.021-40.46,0-60.305c-0.05-0.001-0.04-0.062-0.051-0.102
		c-0.491-0.273-1.094-0.154-1.64-0.154c-4.266,0.001-9-0.042-13.219,0.051c-0.074,0.029-0.125,0.08-0.154,0.154
		c-0.172,14.649-0.104,29.936-0.103,45.292c0,2.497-0.05,5.018,0,7.532c0.05,2.546,0.169,5.153,0,7.634c-0.161,2.37,0,4.842,0,7.275
		c0,5.037,0,10.077,0,15.166c0.001,12.352,0.122,25-0.102,37.453c-13.402,0.277-27.92,0.05-41.706,0.052
		c-4.663,0-9.249,0.056-13.68,0c-0.446-0.006-0.939,0.069-1.127-0.308c0.048-40.161-0.061-80.233,0.051-120.046
		c-0.078-0.487,0.571-0.872,1.076-1.281c6.657-5.393,13.284-10.849,19.879-16.242c5.389-4.407,10.97-8.963,16.344-13.424
		c3.095-2.568,6.293-5.013,9.376-7.634c4.591-3.904,9.306-7.689,14.039-11.477c3.129-2.504,6.15-5.155,9.273-7.737
		c0.779-0.644,1.572-1.251,2.357-1.895C73.218,1.33,74.006,0.621,74.857,0.005z M12.503,61.487
		c-0.353,4.345-0.054,8.879-0.154,13.373c-0.045,2.045,0,4.215,0,6.353c0,2.236,0.122,4.46-0.205,6.507
		c0.395,1.023,0.119,2.175,0.154,3.278c0.221,7.055,0.052,14.292,0.051,21.263c0,1.149-0.122,2.336,0.154,3.434
		c4.766,0.042,10.181,0.217,14.91,0c0.06-4.461,0.273-9.069,0.103-13.629c-0.218-5.821,0.171-11.361,0-16.856
		c-0.037-1.169-0.021-2.334,0-3.484c0.12-6.863,0.09-13.546-0.103-20.187C22.737,61.27,16.966,61.327,12.503,61.487z M34.534,61.539
		c-0.224,13.754-0.102,27.309-0.103,40.63c0,4.531-0.185,9.079,0.103,13.526c4.869,0.155,10.268,0.252,15.063,0
		c0.276-1.051,0.153-2.145,0.154-3.228c0.001-15.867-0.001-31.791,0-47.65c0-1.079,0.12-2.213-0.154-3.279
		C44.686,61.422,39.264,61.242,34.534,61.539z M101.756,61.436c-0.255,0.014-0.551-0.06-0.769,0.103
		c-0.167,18.323-0.276,36.191,0,54.156c4.671,0.266,10.212,0.204,14.961,0.051c0.188-16.759,0.104-34.237,0.103-50.928
		c0-1.183,0.124-2.315-0.154-3.279C111.463,61.532,106.14,61.197,101.756,61.436z M131.268,61.436c-2.386,0-4.783-0.06-6.968,0
		c-0.402,0.011-0.952,0.001-1.281,0.206c-0.169,13.031-0.103,27.032-0.103,40.578c0,4.554-0.122,9.104,0.154,13.526
		c4.196,0.187,9.024,0.103,13.321,0.103c0.61,0,1.254,0.116,1.793-0.153c0.164-18.104,0.165-36.022,0-54.105
		C136.018,61.336,133.633,61.437,131.268,61.436z"/>
</g>
<g id="Layer_1">
</g>
</svg>
