<?xml version="1.0" encoding="iso-8859-1"?>
<!-- Generator: Adobe Illustrator 21.0.2, SVG Export Plug-In . SVG Version: 6.00 Build 0)  -->
<svg version="1.1" xmlns="http://www.w3.org/2000/svg" xmlns:xlink="http://www.w3.org/1999/xlink" x="0px" y="0px"
	 viewBox="0 0 8.794 7.365" style="enable-background:new 0 0 8.794 7.365;" xml:space="preserve">
<g id="Tama_x5F_Art_x5F_University">
	<path d="M0.003,0c0.438,0.102,0.886,0.157,1.33,0.223c0.791,0.109,1.587,0.178,2.385,0.214c0.729,0.012,1.46,0.013,2.187-0.051
		c0.826-0.06,1.648-0.166,2.464-0.303c0.136-0.025,0.274-0.044,0.408-0.081c-0.001,0.295-0.001,0.59,0,0.885
		c-1.114,0.186-2.24,0.304-3.368,0.359C5.164,1.275,4.917,1.253,4.672,1.27C4.435,1.269,4.199,1.276,3.963,1.263
		C3.769,1.259,3.573,1.272,3.38,1.245C2.249,1.194,1.122,1.069,0.004,0.89C0.006,0.593,0.007,0.296,0.003,0z"/>
	<path d="M0.004,1.427c1.431,0.006,2.862,0.005,4.293,0.001c-0.003,0.3-0.004,0.601,0.001,0.901
		C3.584,2.316,2.869,2.327,2.154,2.323c-0.717,0.003-1.434-0.006-2.15,0.004C0.006,2.027,0.006,1.727,0.004,1.427z"/>
	<path d="M4.499,1.428C5.423,1.434,6.347,1.429,7.272,1.43c0.506-0.003,1.013,0.005,1.519-0.004
		C8.789,1.727,8.794,2.028,8.788,2.329C8.164,2.315,7.539,2.327,6.915,2.323C6.109,2.326,5.303,2.318,4.498,2.327
		C4.503,2.027,4.501,1.727,4.499,1.428z"/>
	<path d="M0.004,2.633c1.431,0.005,2.862,0.004,4.292,0.001c-0.001,0.3-0.004,0.599,0.001,0.899C3.793,3.515,3.288,3.53,2.784,3.525
		c-0.803,0-1.606,0-2.408,0c-0.123,0-0.247-0.003-0.37,0.006C0.004,3.232,0.008,2.932,0.004,2.633z"/>
	<path d="M4.5,2.633c1.43,0.003,2.86,0.005,4.29-0.001c-0.001,0.299,0,0.598,0,0.897C7.417,3.518,6.043,3.529,4.669,3.524
		C4.613,3.523,4.556,3.526,4.5,3.532C4.501,3.233,4.5,2.933,4.5,2.633z"/>
	<path d="M0.003,3.835c1.431,0,2.863,0,4.294,0c-0.005,0.297-0.005,0.594,0,0.891C3.364,4.718,2.43,4.725,1.495,4.723
		C0.998,4.725,0.5,4.718,0.003,4.726C0.006,4.429,0.006,4.132,0.003,3.835z"/>
	<path d="M4.497,3.835c1.431,0,2.863,0,4.294,0c-0.001,0.297-0.002,0.593,0,0.89c-1.431-0.004-2.863-0.004-4.295,0
		C4.503,4.428,4.503,4.132,4.497,3.835z"/>
	<path d="M0.004,5.04c2.929-0.001,5.858,0,8.787-0.001c0,0.302-0.004,0.604,0.002,0.905c-2.93-0.003-5.861-0.003-8.791,0
		C0.009,5.643,0.004,5.341,0.004,5.04z"/>
	<path d="M2.316,6.191c1.183-0.107,2.374-0.122,3.56-0.047c0.97,0.069,1.938,0.172,2.898,0.334c0.01,0.294-0.002,0.588,0.006,0.882
		C7.973,7.198,7.156,7.099,6.34,7.013c-0.292-0.018-0.583-0.056-0.877-0.06c-0.39-0.037-0.783-0.028-1.174-0.031
		C3.657,6.918,3.026,6.964,2.397,7.019C1.596,7.105,0.792,7.197,0.003,7.365C0.004,7.071,0.011,6.776,0,6.482
		C0.766,6.348,1.541,6.26,2.316,6.191z"/>
</g>
<g id="Layer_1">
</g>
</svg>
