<?xml version="1.0" encoding="iso-8859-1"?>
<!-- Generator: Adobe Illustrator 19.2.0, SVG Export Plug-In . SVG Version: 6.00 Build 0)  -->
<svg version="1.1" xmlns="http://www.w3.org/2000/svg" xmlns:xlink="http://www.w3.org/1999/xlink" x="0px" y="0px"
	 viewBox="0 0 74.793 75.524" style="enable-background:new 0 0 74.793 75.524;" xml:space="preserve">
<g id="Tamminen_x5F_and_x5F_Havaste">
	<path style="fill-rule:evenodd;clip-rule:evenodd;" d="M20.245,0.117c0.084,3.209,0.044,6.885,0.094,10.126
		c0.017,1.121-0.115,2.22,0.094,3.235c2.228,0.15,5.099,0.149,7.267,0.047c0.038-0.009,0.047-0.047,0.094-0.047
		c0.337-4.096-0.159-9.265,0.235-13.361c6.233-0.184,12.979-0.027,19.268,0.094c0.233,4.377-0.075,8.951,0.188,13.501
		c2.332,0.157,5.31,0.155,7.642,0c0.248-1.044,0.14-2.19,0.14-3.329c0-3.277-0.14-6.861,0.047-10.127
		c0.042-0.02,0.083-0.041,0.094-0.094c6.323-0.073,13.064-0.11,19.315,0.094c0.075,15.84,0.128,32.724-0.047,49.039
		c-0.752,0.251-1.595,0.141-2.391,0.141c-5.805,0-11.173-0.005-17.019-0.094c-0.346-0.983-0.14-2.146-0.14-3.282
		c0-3.375,0.077-7.161-0.094-10.408c-1.058-0.34-2.474-0.185-3.704-0.141c-1.259,0.045-2.551-0.11-3.704,0.094
		c-0.158,3.092-0.21,6.421-0.094,9.752c0.114,3.268-0.295,6.934,0.094,9.986c7.772,0.146,15.888,0.141,23.816,0.141
		c1.108,0,2.223-0.114,3.281,0.141c0.131,4.896,0.007,10.058,0,15.002c-0.003,1.634,0.212,3.284-0.094,4.829
		c-24.689,0.153-49.369,0.011-74.542-0.094c-0.136-6.374-0.103-12.878,0.047-19.831c2.185-0.247,4.534-0.141,6.892-0.141
		c4.618,0.001,9.245-0.047,13.924-0.047c1.197,0,2.393-0.047,3.563,0c1.081,0.043,2.193,0.133,3.235-0.094
		c0.252-0.754,0.141-1.579,0.141-2.391c0-5.636,0.078-11.756-0.094-17.299c-0.528-0.218-1.17-0.161-1.781-0.188
		c-1.91-0.084-3.874,0.063-5.673,0.094c-0.25,1.037-0.141,2.191-0.141,3.329c0,3.339,0.077,7.038-0.094,10.267
		c-0.768,0.251-1.612,0.141-2.438,0.141c-2.461,0-5.057,0-7.595,0c-3.427,0-6.859,0.092-9.986-0.094
		c-0.092-6.027-0.047-12.244-0.047-18.472c0-9.926-0.087-20.57,0.094-30.473C6.453-0.056,13.76-0.037,20.245,0.117z M3.555,3.54
		C3.263,5.206,3.452,6.942,3.461,8.65c0.026,4.843-0.047,10.292-0.047,15.752c0,7.181-0.07,14.407,0.141,21.238
		c3.104,0.17,6.677,0.094,9.892,0.094c1.109,0,2.233,0.112,3.235-0.141c0.17-3.2,0.094-6.863,0.094-10.173
		c0-1.14-0.11-2.293,0.141-3.329c3.274-0.168,7.291-0.094,10.83-0.094c1.219,0,2.409-0.048,3.469,0.141
		c0.146,7.615,0.094,15.896,0.094,23.488c0,1.189,0.108,2.305-0.188,3.141c-7.893,0.217-16.558-0.187-24.285,0.046
		c-1.149,0.035-2.291-0.141-3.329,0.141c-0.17,3.074-0.094,6.614-0.094,9.798c0,1.094-0.113,2.202,0.141,3.188
		c16.76,0.104,34.14,0.139,51.007,0.14c1.382,0,2.786-0.009,4.172,0.047c1.378,0.055,2.852,0.065,4.22,0
		c2.775-0.132,5.56,0.197,8.298-0.094c0.188-2.975,0.191-6.585,0.14-9.892c-0.017-1.088,0.078-2.149-0.14-3.094
		c-1.062-0.209-2.166-0.179-3.282-0.188c-3.312-0.025-6.708,0-10.127,0c-2.309,0-4.638,0-6.938,0c-2.293,0-4.566,0.208-6.751-0.094
		c-0.174-8.058-0.047-16.652-0.047-25.035c0-0.514-0.107-1.103,0.141-1.594c4.153-0.09,8.464-0.047,12.518-0.047
		c0.564,0,1.171-0.108,1.688,0.141c0.115,2.126,0.082,4.417,0.047,6.704c-0.036,2.311-0.085,4.718,0.14,6.892
		c3.075,0.277,6.545-0.047,9.564,0.094c1.061,0.049,2.13,0.168,3.094-0.094c0.172-6.899,0.094-14.042,0.094-21.143
		c0.001-5.319,0.101-10.702,0-15.799c-0.035-1.754,0.141-3.501-0.14-5.204c-1.911-0.251-4.067-0.141-6.188-0.141
		c-2.127,0-4.274-0.038-6.282,0.047c-0.01,0.053-0.052,0.073-0.094,0.094c-0.086,3.291-0.047,6.885-0.047,10.22
		c0,1.122,0.114,2.261-0.14,3.282c-3.445,0.165-7.26,0.094-10.877,0.094c-1.213,0-2.445,0.112-3.563-0.141
		c-0.212-3.408,0.008-6.828-0.094-10.08c-0.036-1.146,0.142-2.327-0.141-3.422c-3.838-0.188-8.454-0.226-12.424-0.094
		c-0.213,0.98-0.115,2.085-0.094,3.188c0.045,2.287,0,4.676,0,6.938c0,1.152,0.112,2.304-0.141,3.329
		c-3.879,0.241-8.557-0.146-12.611,0.047c-0.539,0.025-1.123,0.14-1.594-0.141c-0.086-3.232-0.047-6.878-0.047-10.173
		c0-1.117,0.066-2.205-0.141-3.188C12.534,3.405,7.777,3.37,3.555,3.54z"/>
</g>
<g id="Layer_1">
</g>
</svg>
