<?xml version="1.0" encoding="iso-8859-1"?>
<!-- Generator: Adobe Illustrator 21.0.2, SVG Export Plug-In . SVG Version: 6.00 Build 0)  -->
<svg version="1.1" xmlns="http://www.w3.org/2000/svg" xmlns:xlink="http://www.w3.org/1999/xlink" x="0px" y="0px"
	 viewBox="0 0 34.435 34.81" style="enable-background:new 0 0 34.435 34.81;" xml:space="preserve">
<g id="Tanpop-no_x5F_ye_x5F_Foundation">
	<path d="M16.366,0.03c6.917-0.428,13.806,3.83,16.528,10.198c2.483,5.367,1.93,11.999-1.407,16.876
		c-2.414,3.633-6.236,6.301-10.496,7.263C14.545,35.931,7.367,33.26,3.474,27.9c-3.947-5.1-4.547-12.443-1.715-18.199
		C4.454,4.194,10.201,0.258,16.366,0.03z M12.997,8.97c-1.946,1.948-2.024,5.463,0.039,7.362c2.068,1.911,4.723,3.056,6.854,4.893
		c1.006,0.92,1.342,2.579,0.593,3.754c-1.097,1.52-3.537,1.688-4.958,0.539c-1.04-0.848-1.26-2.462-0.514-3.571
		c0.322-0.527-0.413-0.781-0.716-1.072c-0.517-0.273-0.949-1.018-1.594-0.82c-1.76,1.925-1.524,5.244,0.332,7.025
		c2.367,2.253,6.402,2.341,8.93,0.312c1.931-1.407,2.427-4.242,1.493-6.364c-0.668-1.501-2.186-2.301-3.398-3.272
		c1.018-0.357,1.886-1.06,2.508-1.935c1.647-2.225,1.159-5.724-1.108-7.339C19.003,6.595,15.234,6.875,12.997,8.97z M8.557,8.624
		C7.468,8.828,7.084,10.41,7.976,11.08c0.728,0.668,2.061,0.258,2.253-0.721C10.547,9.37,9.563,8.342,8.557,8.624z"/>
	<path d="M17.08,9.905c1.175-0.221,2.504,0.287,3.126,1.335c0.803,1.232,0.443,3.053-0.752,3.904c-1.646,1.197-4.365,0.407-4.9-1.62
		C13.999,11.849,15.381,10.053,17.08,9.905z"/>
</g>
<g id="Layer_1">
</g>
</svg>
