<?xml version="1.0" encoding="iso-8859-1"?>
<!-- Generator: Adobe Illustrator 19.2.0, SVG Export Plug-In . SVG Version: 6.00 Build 0)  -->
<svg version="1.1" xmlns="http://www.w3.org/2000/svg" xmlns:xlink="http://www.w3.org/1999/xlink" x="0px" y="0px"
	 viewBox="0 0 29.659 30.647" style="enable-background:new 0 0 29.659 30.647;" xml:space="preserve">
<g id="Taysan_x2C__Ta&#x15F;&#x131;t">
	<g>
		<path d="M20.798,4.278c-3.14,0-5.881,1.519-7.375,3.781V0h-1.302v20.694c0,0-0.01,3.719,4.55,4.914c0,0,3.132,0.777,5.779-0.399
			c0,0,1.98-0.922,1.82-3c0,0,0.104-1.721-1.928-2.676h0.001h-0.001c-0.341-0.127-1.953-0.649-2.066-0.672
			c-4.179-0.858-6.738-3.155-6.738-6.764s3.211-6.533,7.172-6.533c3.93,0,7.121,2.88,7.17,6.449h1.488
			c0-0.01,0.001-0.019,0.001-0.029C29.371,7.729,25.532,4.278,20.798,4.278 M22.768,23.236c0,0-1.082,2.136-5.375,1.282
			c0,0-3.175-0.254-3.969-3.824v-4.396c0,0,1.471,1.828,2.147,2.145c0,0,1.576,1.025,3.459,1.455c0,0,2.805,0.559,3.174,1.025
			C22.204,20.923,23.454,21.823,22.768,23.236"/>
		<path d="M26.553,20.295c-0.686-2.083-2.709-2.948-4.41-3.459c-0.451-0.136-2.252-0.639-2.51-0.712
			c-2.412-0.685-3.356-2.203-3.356-3.943c0-2.267,2.018-4.105,4.506-4.105c2.468,0,4.471,1.808,4.504,4.049h1.431
			c0-0.008,0-0.014,0-0.02c0-2.985-2.657-5.407-5.935-5.407c-3.278,0-5.935,2.422-5.935,5.407c0,2.579,1.983,4.735,4.635,5.274
			v0.002c2.666,0.656,4.031,1.397,4.031,1.397c1.199,0.76,1.748,1.917,1.748,1.917c1.613,3.857-2.482,5.692-2.482,5.692
			c-3.373,1.257-6.521,0.362-6.521,0.362c-5.396-1.539-5.412-6.055-5.412-6.055V0H9.439v20.694c0.663,5.465,5.66,7.02,5.66,7.02
			c5.528,1.598,8.956-0.573,8.956-0.573C28.508,24.245,26.553,20.295,26.553,20.295"/>
		<path d="M22.768,14.451l0.002-0.001l-2.277-0.649c-0.914-0.215-1.536-0.835-1.536-1.671c0-0.938,0.835-1.7,1.866-1.7
			c1.029,0,1.865,0.762,1.865,1.7c0,0.004,0,0.007,0,0.011h1.366c0-0.004,0.001-0.007,0.001-0.011c0-1.628-1.449-2.946-3.235-2.946
			c-1.786,0-3.235,1.318-3.235,2.946c0,1.42,1.104,2.604,2.571,2.884c0.007,0.005,0.011,0.008,0.013,0.009
			c5.715,1.203,8.063,3.444,8.063,7.352c0,2.12-1.054,4.021-2.724,5.316c-1.799,1.104-4.018,1.757-6.422,1.757
			c-5.978,0-10.827-4.031-10.861-9.013H8.224V0H6.817v6.056H0v1.282h6.817v1.065H0v1.281h6.817v1.108H0v1.282h6.817v8.62h0.006
			c0.124,5.515,5.411,9.953,11.92,9.953c1.416,0,2.755-0.178,3.994-0.521c3.975-0.873,6.922-4.05,6.922-7.84
			C29.659,18.507,26.728,15.335,22.768,14.451"/>
	</g>
</g>
<g id="Layer_1">
</g>
</svg>
