<?xml version="1.0" encoding="iso-8859-1"?>
<!-- Generator: Adobe Illustrator 19.2.0, SVG Export Plug-In . SVG Version: 6.00 Build 0)  -->
<svg version="1.1" xmlns="http://www.w3.org/2000/svg" xmlns:xlink="http://www.w3.org/1999/xlink" x="0px" y="0px"
	 viewBox="0 0 67.211 66.506" style="enable-background:new 0 0 67.211 66.506;" xml:space="preserve">
<g id="Technoimpex_x5F_65">
	<path style="fill-rule:evenodd;clip-rule:evenodd;" d="M9.463,0c1.104,0.358,2.739,1.383,3.779,1.956
		c1.926,1.061,3.595,2.059,5.424,3.112c0.595,0.343,1.101,0.802,1.688,1.156c1.205,0.724,2.512,1.278,3.691,1.956
		c4.224,2.432,8.383,4.895,12.669,7.247c0.605,0.332,1.149,0.732,1.734,1.067c4.83,2.768,9.679,5.472,14.448,8.269
		c1.794,1.052,3.593,2.06,5.379,3.156c0.58,0.356,1.192,0.727,1.778,1.022c1.246,0.629,2.429,1.367,3.645,2.045
		c1.197,0.667,2.474,1.226,3.513,2.134c-0.323,0.564-1.057,0.9-1.645,1.245c-2.994,1.755-6.119,3.314-9.025,5.201
		c-2.329,1.513-4.828,2.714-7.246,4.179c-1.186,0.719-2.435,1.374-3.645,2.045c-2.441,1.355-4.756,2.909-7.202,4.179
		c-2.465,1.279-4.852,2.746-7.246,4.179c-2.38,1.424-4.837,2.754-7.247,4.134c-2.399,1.376-4.714,2.904-7.157,4.223
		c-1.209,0.653-2.43,1.362-3.601,2.089c-0.585,0.364-1.229,0.662-1.822,1.022c-0.612,0.372-1.248,0.773-1.956,0.89
		c-0.31-0.604-0.178-1.403-0.178-2.223c0-1.507,0-3.076,0-4.712c0-0.688-0.129-1.797,0.089-2.267c0.172-0.371,0.839-0.613,1.155-0.8
		c0.406-0.24,0.873-0.407,1.2-0.711c2.127-1.244,4.327-2.401,6.491-3.69c2.803-1.67,5.589-3.434,8.535-4.979
		c0.705-0.37,1.48-0.751,2.001-1.378c-1.197-0.193-2.661-0.134-4.268-0.134c-1.448,0-2.978,0.024-4.445,0.089
		c-2.857,0.126-5.904,0.284-7.824-0.933c-1.846-1.17-3.035-3.313-2.979-6.135c0.055-2.724,0.121-5.834-0.044-8.847
		c-0.566-0.357-1.356-0.187-2.134-0.222c-1.49-0.068-3.019-0.044-4.668-0.044c-0.68,0-1.833,0.094-2.134-0.178
		c-0.318-0.287-0.197-1.348-0.178-1.867c0.026-0.705-0.024-1.464,0-2.089c0.05-1.33-0.132-2.781,0.178-3.868
		c1.84-0.295,4.455-0.036,6.757-0.133c0.527-0.022,1.9,0.033,2.134-0.222c0.271-0.295,0.134-1.776,0.134-2.579
		c0-5.508,0.039-10.712-0.089-15.96C9.132,1.805,9.178,0.387,9.33,0.089C9.362,0.048,9.411,0.021,9.463,0z M17.999,14.671
		c-0.237,0.166-0.223,1.359-0.223,1.822c0,1.476-0.094,3.436,0.134,4.624c0.685,0.296,1.537,0.178,2.355,0.178
		c0.84,0,1.718-0.012,2.534-0.045c1.316-0.053,2.702,0.107,4.046,0.045c0.795-0.037,1.64,0.07,2.223-0.222
		c-0.263-0.435-0.791-0.622-1.2-0.889c-1.348-0.88-2.764-1.606-4.135-2.401c-1.847-1.071-3.653-2.244-5.557-3.156
		c-0.003-0.027-0.007-0.053-0.045-0.044C18.079,14.603,18.031,14.629,17.999,14.671z M30.669,22.005
		c-0.22,0.23-0.134,1.261-0.134,1.823c0,0.705-0.045,1.341-0.045,1.867c0.001,1.432,0.053,2.677-0.222,3.646
		c-2.928,0.191-6.269,0.178-9.336,0.178c-1.038,0-2.1-0.105-3.022,0.178c-0.21,1.105-0.169,2.437-0.134,3.69
		c0.036,1.295-0.184,2.605,0.089,3.734c0.939,0.284,2.022,0.193,3.067,0.178c3.068-0.044,6.38-0.085,9.247,0.133
		c0.218,1.115,0.145,2.415,0.178,3.646c0.033,1.247-0.167,2.6,0.178,3.69c0.993-0.18,1.755-0.875,2.578-1.334
		c2.597-1.448,5.009-2.786,7.603-4.223c2.917-1.617,5.794-3.344,8.668-5.068c0.386-0.231,1.134-0.555,1.112-0.889
		c-0.019-0.282-0.791-0.613-1.112-0.8c-1.262-0.738-2.521-1.483-3.689-2.134c-5.001-2.785-9.765-5.797-14.849-8.357
		c-0.002-0.027-0.006-0.053-0.044-0.045C30.749,21.938,30.701,21.964,30.669,22.005z"/>
</g>
<g id="Layer_1">
</g>
</svg>
