<?xml version="1.0" encoding="iso-8859-1"?>
<!-- Generator: Adobe Illustrator 19.2.0, SVG Export Plug-In . SVG Version: 6.00 Build 0)  -->
<svg version="1.1" xmlns="http://www.w3.org/2000/svg" xmlns:xlink="http://www.w3.org/1999/xlink" x="0px" y="0px"
	 viewBox="0 0 74.013 74.325" style="enable-background:new 0 0 74.013 74.325;" xml:space="preserve">
<g id="Technical_x5F_School_x5F_of_x5F_Advertising_x5F_and_x5F_Design">
	<path style="fill-rule:evenodd;clip-rule:evenodd;" d="M73.502,73.935c-2.712,0.319-5.506,0.255-8.329,0.256
		c-2.806,0-5.658-0.012-8.482,0.103c-2.808,0.112-5.683-0.104-8.481-0.103c-2.904,0-5.756-0.001-8.533,0
		c-3.037,0-5.661-0.15-8.175-0.511c-2.435-0.35-4.673-1.095-6.796-1.891c-4.186-1.569-7.931-3.622-11.037-6.285
		c-6.125-5.25-11.202-12.23-12.978-21.715c-0.458-2.448-0.791-5.306-0.664-8.022c0.386-8.313,2.745-14.474,6.284-19.672
		c3.942-5.777,9.127-10.137,15.737-13.132c1.33-0.602,2.805-0.989,4.292-1.481c2.223-0.735,4.686-1.159,7.357-1.328
		C34.616,0.096,35.693,0.001,36.611,0c9.199-0.016,15.899,2.842,21.46,6.643c4.557,3.115,8.176,7.015,11.036,11.803
		c0.229,0.382,0.321,0.789,0.511,1.227c0.329,0.756,0.752,1.535,1.124,2.35c1.516,3.318,2.565,6.81,3.016,11.037
		c0.224,2.111,0.255,4.384,0.255,6.744c-0.001,8.84-0.255,18.136-0.255,27.388C73.758,69.478,73.923,71.76,73.502,73.935z
		 M32.881,1.635c-1.75,0.343-3.437,0.398-5.007,0.869C23.34,3.865,19.27,5.743,15.866,8.175c-1.366,0.977-2.49,2.246-3.729,3.373
		c-3.1,2.816-5.6,6.344-7.409,10.372c-0.367,0.816-0.791,1.678-1.073,2.504C3.52,24.816,3.5,25.245,3.348,25.649
		c-0.712,1.892-1.083,3.972-1.431,6.234c-0.14,0.912-0.402,1.859-0.153,2.759c0.475,0.012,0.848-0.46,1.176-0.767
		c0.353-0.329,0.693-0.714,0.971-1.073c3.819-3.935,7.95-7.615,11.649-11.598c1.246-1.343,2.637-2.548,3.884-3.884
		c2.497-2.678,5.263-5.098,7.766-7.767c0.313-0.334,0.554-0.738,0.869-1.073c1.871-1.986,3.985-3.886,5.927-5.723
		c0.314-0.297,0.858-0.541,0.869-1.072C34.284,1.52,33.392,1.535,32.881,1.635z M72.429,34.54c-0.172-2.143-0.476-3.797-0.92-5.569
		c-0.883-3.531-2.006-6.685-3.576-9.401C63.273,11.51,55.964,5.29,45.859,2.606c-2.042-0.542-5.394-1.2-7.868-0.919
		c-0.339,0.569-0.256,1.29-0.256,1.941c0,2.118-0.087,4.32,0,6.489c0.177,4.426-0.049,9.057,0.051,13.233
		c0.033,1.404-0.067,2.829,0,4.241c0.14,2.928-0.243,5.882,0.153,8.686c1.312,0.413,2.739,0.136,4.139,0.153
		c8.924,0.112,19.217,0.1,28.256,0.204c0.673,0.008,1.43,0.127,2.044-0.204C72.624,35.819,72.477,35.142,72.429,34.54z
		 M35.794,3.168c-0.672,0.386-1.087,1.049-1.687,1.635c-1.552,1.519-3.23,3.101-4.701,4.548c-0.774,0.762-1.478,1.656-2.197,2.401
		c-1.269,1.314-2.631,2.58-3.883,3.832c-4.172,4.172-8.265,8.246-12.365,12.263C8.574,30.245,6.18,32.637,3.757,35
		c-0.279,0.36-0.958,0.562-0.868,1.124c1.231,0.271,2.619,0.102,4.036,0.102c7.081-0.001,13.816,0.153,20.949,0.153
		c1.401,0,2.804,0.051,4.189,0.051c1.343,0,2.705,0.2,3.935-0.153c0.316-1.299,0.153-2.662,0.153-4.036
		c0-4.312-0.052-8.589-0.052-12.723c0.001-4.757-0.17-9.629-0.051-14.562c0.015-0.588,0.325-1.373-0.204-1.788
		C35.828,3.168,35.81,3.168,35.794,3.168z M36.254,68.417c-0.001-1.409,0.051-2.848,0.051-4.292
		c-0.001-2.855-0.051-5.807-0.051-8.789c-0.001-2.666,0.119-5.648,0-8.635c-0.052-1.271,0.075-2.756,0-4.344
		c-0.037-0.771,0.183-3.805-0.205-4.24c-0.228-0.256-1.229-0.205-1.942-0.204c-9.895,0.001-19.948-0.206-29.737-0.205
		c-0.75,0-1.577-0.165-2.146-0.051c-0.672,0.135-0.612,0.568-0.562,1.737c0.078,1.809,0.597,4.611,0.868,5.723
		c1.742,7.132,5.077,12.537,9.401,16.861c5.14,5.139,11.63,8.981,20.336,10.321c1.228,0.189,2.574,0.576,3.884,0.204
		C36.488,71.2,36.254,69.804,36.254,68.417z M70.436,38.168c-4.93-0.075-9.873,0.016-14.767-0.153
		c-2.802-0.097-5.647-0.051-8.431-0.051c-2.821,0-5.612-0.137-8.277-0.051c-0.193,0.006-0.748-0.006-0.971,0.255
		c-0.221,0.258-0.154,1.293-0.154,2.044c-0.001,9.525-0.05,18.558-0.051,28.103c0,0.858-0.17,3.866,0.256,4.241
		c0.269,0.237,1.252,0.154,1.941,0.102c10.143-0.774,16.774-4.861,22.431-10.015c2.749-2.857,5.491-6.121,7.052-10.219
		c1.166-3.063,2.334-6.275,2.81-10.168c0.156-1.274,0.397-2.676,0.052-3.985C71.729,38.02,71.069,38.178,70.436,38.168z
		 M72.378,69.745c0.044-1.04,0-2.12,0-3.168c0-6.155,0.189-12.433,0.153-18.292c-0.003-0.031-0.008-0.061-0.052-0.051
		c-0.073,0.028-0.124,0.079-0.152,0.152c-0.605,2.289-1.493,4.388-2.401,6.234c-0.293,0.593-0.533,1.216-0.818,1.788
		c-0.799,1.605-2.018,3.135-3.219,4.548c-2.446,2.877-5.023,5.286-8.277,7.307c-1.626,1.009-3.284,2.073-5.007,2.81
		c-1.529,0.653-3.239,1.015-4.752,1.737c0.393,0.272,0.938,0.153,1.379,0.153c1.613,0.001,3.092,0.061,4.599,0
		c4.084-0.162,8.231-0.228,12.263-0.204c2.032,0.012,4.09,0.208,5.979-0.204C72.452,71.719,72.337,70.71,72.378,69.745z"/>
</g>
<g id="Layer_1">
</g>
</svg>
