<?xml version="1.0" encoding="iso-8859-1"?>
<!-- Generator: Adobe Illustrator 19.2.0, SVG Export Plug-In . SVG Version: 6.00 Build 0)  -->
<svg version="1.1" xmlns="http://www.w3.org/2000/svg" xmlns:xlink="http://www.w3.org/1999/xlink" x="0px" y="0px"
	 viewBox="0 0 82.129 53.983" style="enable-background:new 0 0 82.129 53.983;" xml:space="preserve">
<g id="Telco_x5F_Marketing_x5F_Services">
	<path style="fill-rule:evenodd;clip-rule:evenodd;" d="M13.675,0.154c0.283,4.344-0.051,9.188,0.154,13.501
		c2,0.292,4.234,0.126,6.52,0.205c2.266,0.078,4.613-0.017,6.828-0.052c0.328-4.26-0.023-9.145,0.256-13.552
		C30.667,0.076,34.2,0.154,37.7,0.154c1.115-0.001,2.266-0.119,3.285,0.153c0.271,4.263-0.033,9.102,0.154,13.45
		c2.031,0.272,4.344,0.102,6.672,0.205c2.33,0.103,4.725,0.007,6.879-0.102c0.24-4.373-0.064-9.006,0.207-13.501
		c4.283-0.209,9.148-0.115,13.396,0.052c0.307,4.262-0.102,9.238,0.205,13.501c4.066,0.387,9.246-0.062,13.502,0.308
		c0.188,11.385,0.104,23.166,0.102,34.855c0,1.617,0.121,3.254-0.154,4.825c-4.234,0.127-9.205,0.104-13.5-0.051
		c-0.291-12.863,0.051-26.298-0.154-39.682c-4.248-0.2-8.979-0.19-13.346-0.102c-0.25,0.763-0.184,1.612-0.154,2.413
		c0.201,5.557,0,11.391,0,17.351c0,4.978-0.078,10.06,0,15.092c0.025,1.638,0.068,3.271-0.154,4.825
		c-2.09,0.241-4.42,0.103-6.725,0.104c-2.301,0-4.637,0.028-6.775-0.154c-0.279-1.588-0.154-3.242-0.154-4.877
		c-0.002-11.556,0.186-23.357-0.051-34.804c-4.355-0.118-8.881-0.101-13.451-0.052c-0.274,0.768-0.152,1.627-0.152,2.412
		c-0.002,4.142-0.06,8.473,0.051,12.629c0.043,1.64-0.133,3.277-0.104,4.877c0.119,6.578,0.049,13.259-0.102,19.814
		c-2.998,0.039-6.701,0.146-10.113,0.051c-1.133-0.031-2.244,0.041-3.234-0.205c-0.285-12.791,0.045-26.656-0.154-39.578
		c-1.049-0.277-2.225-0.154-3.387-0.154c-2.205,0.001-4.512,0-6.879,0c-1.137,0.001-2.281,0.093-3.285-0.205
		c-0.258-3.582-0.029-8.178-0.053-11.961c-0.002-0.565-0.123-1.339,0.154-1.54C0.264,0.055,0.319,0.025,0.38,0
		C4.72,0.144,9.434-0.088,13.675,0.154z"/>
</g>
<g id="Layer_1">
</g>
</svg>
