<?xml version="1.0" encoding="iso-8859-1"?>
<!-- Generator: Adobe Illustrator 19.2.0, SVG Export Plug-In . SVG Version: 6.00 Build 0)  -->
<svg version="1.1" xmlns="http://www.w3.org/2000/svg" xmlns:xlink="http://www.w3.org/1999/xlink" x="0px" y="0px"
	 viewBox="0 0 81.428 81.93" style="enable-background:new 0 0 81.428 81.93;" xml:space="preserve">
<g id="telefusion">
	<path style="fill-rule:evenodd;clip-rule:evenodd;" d="M21.465,8.683c2.662,0.085,5.676,0.084,8.338,0
		c0.494-0.606,0.602-1.466,0.915-2.186c0.315-0.725,0.722-1.345,1.119-1.932c1.893-3.228,7.881-5.981,13.015-3.762
		c0.778,0.336,1.51,0.91,2.186,1.424c0.678,0.514,1.382,1.043,1.83,1.728c1.19,1.199,1.799,2.98,2.44,4.728
		c2.611,0.103,5.754,0.149,8.389,0c0.4-0.366,0.398-0.916,0.56-1.373c1.086-3.08,3.551-5.679,6.762-6.711
		c4.528-1.457,9.282,0.209,11.439,2.847c2.07,2.163,3.558,5.652,2.746,9.711c-0.663,3.309-2.762,5.806-5.491,7.321
		c-2.984,1.656-7.196,1.713-10.27,0.051c-1.414-0.765-2.56-1.697-3.508-2.898c-0.966-1.224-1.578-2.636-2.135-4.271
		c-1.299-0.273-2.869-0.153-4.322-0.152c-1.432,0-2.845-0.056-4.118,0.102c-0.504,1.016-0.764,2.044-1.271,2.949
		c-0.989,1.763-2.476,3.11-4.22,4.169c-0.878,0.534-1.851,0.837-2.898,1.271c-0.168,2.635-0.101,5.503,0,8.338
		c0.505,0.449,1.25,0.564,1.831,0.814c3.287,1.413,5.386,4.158,6.457,7.829c0.059-0.008,0.09,0.011,0.102,0.05
		c2.67,0.094,5.664,0.072,8.337,0c0.396-0.58,0.523-1.244,0.763-1.83c0.742-1.812,1.79-3.264,3.254-4.474
		c1.842-1.522,4.549-2.631,7.829-2.339c2.987,0.267,5.274,1.534,6.915,3.355c1.598,1.774,2.931,4.095,2.949,7.321
		c0.018,3.285-1.122,5.624-2.796,7.473c-1.617,1.786-3.877,3.153-6.762,3.508c-3.387,0.417-6.059-0.75-7.982-2.187
		c-2.023-1.511-3.233-3.55-4.067-6.202c-2.577-0.203-5.727-0.102-8.389-0.051c-0.419,0.405-0.484,1.001-0.661,1.474
		c-1.283,3.44-4.019,5.739-7.728,6.863c-0.193,2.742-0.132,5.899-0.051,8.542c0.899,0.49,1.86,0.651,2.695,1.17
		c2.351,1.459,4.308,3.38,5.236,6.304c1.4,4.408-0.255,9.123-2.949,11.337c-2.124,2.137-5.672,3.58-9.609,2.643
		c-4.667-1.111-8.541-4.91-8.541-10.727c0-3.928,1.971-6.73,4.271-8.541c1.224-0.964,2.629-1.559,4.271-2.135
		c0.228-2.468,0.085-5.787,0.051-8.49c-1.017-0.61-2.447-0.807-3.355-1.525c-3.3-2.039-6.172-6.026-5.034-11.541
		c0.938-4.544,4.257-7.256,8.389-8.541c0.085-2.678,0.085-5.71,0-8.389c-0.945-0.58-2.068-0.74-3-1.271
		c-0.907-0.518-1.657-1.18-2.39-1.83c-0.715-0.697-1.318-1.483-1.83-2.39c-0.519-0.919-0.84-1.92-1.271-2.949
		c-2.62-0.224-5.621-0.096-8.389-0.051c-0.496,0.899-0.726,1.844-1.17,2.694c-1.268,2.431-3.422,4.352-6.253,5.288
		c-4.471,1.478-9.351-0.209-11.286-3c-2.636-2.294-3.708-7.586-1.932-11.643c1.498-3.42,4.554-6.212,8.998-6.559
		c4.835-0.376,8.295,2.25,10.066,5.135C20.593,6.239,20.924,7.452,21.465,8.683z"/>
</g>
<g id="Layer_1">
</g>
</svg>
