<?xml version="1.0" encoding="iso-8859-1"?>
<!-- Generator: Adobe Illustrator 19.2.0, SVG Export Plug-In . SVG Version: 6.00 Build 0)  -->
<svg version="1.1" xmlns="http://www.w3.org/2000/svg" xmlns:xlink="http://www.w3.org/1999/xlink" x="0px" y="0px"
	 viewBox="0 0 80.711 81.112" style="enable-background:new 0 0 80.711 81.112;" xml:space="preserve">
<g id="teleac">
	<path style="fill-rule:evenodd;clip-rule:evenodd;" d="M80.539,0.122c0.255,3.309,0.151,6.673,0.151,10.047
		c-0.001,23.174,0.072,48.164-0.101,70.735c-0.712,0.251-1.523,0.21-2.272,0.202c-25.354-0.263-52.476,0.199-78.106-0.101
		c-0.028-0.073-0.079-0.124-0.151-0.152C0.035,54.319-0.087,26.619,0.111,0.122C27.304-0.08,53.794,0.004,80.539,0.122z
		 M24.395,0.576c-7.655,0-15.412-0.016-22.972,0.101c-0.043,0.529,0.509,0.812,0.808,1.11c2.416,2.417,4.762,4.96,7.068,7.422
		c0.493,0.417,0.823,0.994,1.363,1.363c0.513,0.292,0.829,1.292,1.515,1.262c0.281-0.012,0.762-0.61,1.111-0.909
		c0.434-0.372,0.809-0.619,1.111-0.909c4.097-3.931,9.705-6.759,15.803-8.432c1.036-0.284,2.142-0.391,3.181-0.858
		C30.459,0.456,27.442,0.576,24.395,0.576z M74.328,0.626c-2.715,0.094-5.503,0.007-8.28,0c-6.26-0.016-12.758-0.113-18.63,0.101
		c0.346,0.474,1,0.398,1.464,0.505c3.846,0.888,7.149,2.215,10.249,3.837c3.069,1.607,5.699,3.652,8.179,5.857
		c0.362,0.321,0.797,0.875,1.161,0.858c0.367-0.018,1.128-0.858,1.515-1.212c0.558-0.511,0.955-1.011,1.312-1.413
		c2.164-2.435,4.542-4.693,6.766-6.917c0.453-0.453,1.063-0.851,1.262-1.515C77.699,0.443,76.005,0.568,74.328,0.626z M71.653,9.614
		c-0.764,1.036-1.951,1.65-2.625,2.776c1.125,1.508,2.478,2.794,3.585,4.342c2.793,3.91,5.035,8.234,6.462,13.48
		c0.274,1.006,0.447,2.087,0.909,3.08c0.272-2.548,0.152-5.203,0.151-7.876c0-7.377,0-14.924,0-22.215
		c0-0.623,0.117-1.288-0.151-1.868c-0.034,0-0.067,0-0.101,0C77.049,4.003,74.319,6.777,71.653,9.614z M0.616,1.536
		c-0.09,2.662-0.051,5.598-0.051,8.431c0,6.592,0,13.294,0,19.792c0,1.266-0.119,2.572,0.202,3.787
		c0.612-1.848,0.915-3.708,1.515-5.453c1.782-5.189,4.216-9.773,7.422-13.531c0.276-0.268,0.505-0.628,0.909-1.06
		c0.258-0.277,0.932-0.687,0.909-1.111c-0.02-0.377-0.978-1.057-1.312-1.363c-0.447-0.409-0.934-1.004-1.313-1.413
		C7.078,7.65,5.384,5.849,3.594,4.06C2.842,3.307,1.652,1.847,0.767,1.384C0.694,1.412,0.643,1.462,0.616,1.536z M31.01,4.413
		c-4.556,1.213-8.597,3.073-11.865,5.604c-1.172,0.908-2.509,1.788-3.686,2.827c-0.337,0.298-1.06,0.848-1.06,1.161
		c0,0.409,1.059,1.312,1.464,1.717c1.657,1.657,3.27,3.22,4.796,4.746c5.92,5.92,11.73,11.68,17.57,17.52
		c0.526,0.526,0.991,1.258,1.717,1.515c0.237-1.956,0.109-3.968,0.101-6.008c-0.027-6.318,0.051-12.626,0.051-18.782
		c0-1.95-0.006-3.856,0-5.756c0.006-1.886,0.069-3.782-0.151-5.604C36.959,3.172,33.687,3.7,31.01,4.413z M61.303,9.916
		c-5.187-3.825-11.821-6.371-20.448-6.614c-0.371,0.586-0.252,1.35-0.252,2.02c0,11.338-0.083,23.059,0.101,34.13
		c0.351,0.121,0.612-0.259,0.808-0.454c3.507-3.507,6.916-7.068,10.401-10.552c3.732-3.732,7.53-7.419,11.158-11.208
		c1.061-1.077,2.265-2.009,3.13-3.282C64.83,12.384,63.038,11.197,61.303,9.916z M66.554,14.612
		c-4.231,4.198-8.436,8.486-12.673,12.723c-3.183,3.182-6.434,6.308-9.441,9.593c-0.497,0.543-1.083,1.033-1.615,1.565
		c-0.505,0.505-1.235,1.017-1.364,1.717c11.158,0.005,22.716,0.367,33.828,0.101c0.721-0.017,1.483,0.133,2.171-0.151
		c0.143-5.66-1.29-10.589-3.181-14.743c-1.908-4.191-4.352-7.906-7.422-10.855c-0.034,0-0.067,0-0.101,0
		C66.687,14.577,66.659,14.633,66.554,14.612z M11.471,16.985c-1.361,1.606-2.486,3.376-3.534,5.2
		c-0.545,0.949-1.166,1.919-1.515,2.878c-0.203,0.558-0.322,1.139-0.555,1.717c-1.119,2.773-1.972,5.84-2.373,9.239
		c-0.158,1.335-0.413,2.762-0.151,4.19c2.171,0.219,4.551,0.09,6.614,0.101c1.963,0.01,3.791,0.12,5.655,0.05
		c7.84-0.293,15.885,0.199,23.628-0.151c0.054-0.398-0.33-0.668-0.555-0.909c-0.786-0.838-1.578-1.629-2.373-2.423
		c-6.934-6.933-13.9-13.749-20.852-20.7c-0.515-0.515-1.255-1.433-1.716-1.565C13.045,15.116,12.158,16.172,11.471,16.985z
		 M23.588,40.866c-6.878,0-13.76-0.031-20.246,0.101c-0.267,5.157,1.048,9.71,2.524,13.43c0.234,0.59,0.35,1.194,0.555,1.767
		c0.348,0.968,0.984,1.99,1.515,2.928c1.12,1.978,2.296,3.65,3.635,5.301c0.675,0.833,1.321,1.744,2.222,2.272
		c4.472-4.018,8.386-8.678,12.824-12.773c4.149-3.829,8.042-8.09,12.016-12.017c0.241-0.238,0.681-0.471,0.606-0.909
		C34.124,40.783,28.87,40.866,23.588,40.866z M73.42,40.866c-4.441,0.059-8.653-0.055-13.076,0.051
		c-6.087,0.146-12.959-0.318-18.883,0.101c0.224,0.757,0.963,1.179,1.464,1.716c1.522,1.632,3.345,3.118,4.696,4.847
		c0.915,1.172,2.11,2.11,3.181,3.181c2.177,2.177,4.194,4.245,6.361,6.412c2.682,2.682,5.265,5.266,7.978,7.978
		c0.423,0.423,1.248,1.545,1.716,1.515c0.31-0.02,0.887-0.801,1.161-1.111c2.607-2.945,4.606-6.055,6.261-9.694
		c1.899-4.179,3.329-9.101,3.181-14.843C76.15,40.803,74.771,40.848,73.42,40.866z M20.558,60.758
		c-1.556,1.604-3.121,3.171-4.746,4.796c-0.366,0.367-1.495,1.223-1.464,1.717c0.016,0.26,0.729,0.917,1.06,1.211
		c2.815,2.505,6.16,4.644,9.694,6.21c4.139,1.835,9.255,3.283,14.844,3.181c0.246-4.343,0.073-9.088,0.101-13.632
		c0.043-7.041,0.074-14.35,0-21.306c-0.003-0.34,0.126-1.483-0.303-1.263C33.304,47.991,26.916,54.359,20.558,60.758z
		 M40.703,41.825c-0.177,1.285-0.101,2.955-0.101,4.494c0,9,0,18.053,0,27.112c0,1.481-0.121,2.995,0.151,4.443
		c2.841,0.146,5.539-0.268,7.977-0.858c6.79-1.643,11.836-4.612,16.409-8.533c0.317-0.271,1.067-0.894,1.06-1.211
		c-0.009-0.397-1.056-1.258-1.464-1.666c-1.662-1.661-3.219-3.269-4.746-4.796c-3.816-3.815-7.447-7.396-11.158-11.107
		c-0.538-0.538-0.987-1.125-1.515-1.666c-2.095-2.149-4.219-4.336-6.412-6.311c-0.003-0.031-0.007-0.06-0.05-0.051
		C40.782,41.702,40.732,41.752,40.703,41.825z M0.666,47.833c-0.166,2.692-0.101,5.714-0.101,8.633
		c0,7.749-0.083,15.726,0.101,23.225c0.368,0.154,0.574-0.271,0.757-0.455c1.596-1.596,3.259-3.159,4.796-4.746
		c0.745-1.068,1.768-1.87,2.676-2.777c0.905-0.905,1.868-1.777,2.625-2.827c-0.845-1.057-1.769-2.088-2.625-3.181
		c-0.836-1.068-1.782-2.165-2.423-3.383c-0.294-0.559-0.54-1.117-0.858-1.666c-2.208-3.814-3.651-8.101-4.796-12.926
		c-0.011-0.039-0.042-0.058-0.101-0.05C0.714,47.747,0.652,47.751,0.666,47.833z M79.832,48.187
		c-0.516,2.17-1.038,4.155-1.767,6.109c-1.936,5.189-4.652,9.869-8.129,13.531c-0.323,0.341-0.858,0.856-0.858,1.111
		c0,0.356,0.896,1.095,1.262,1.464c2.747,2.765,5.545,5.444,8.229,8.128c0.437,0.437,0.814,1.081,1.464,1.212
		c0.169-10.349,0.166-21.36,0-31.657c-0.051,0-0.06-0.041-0.101-0.05C79.862,48.048,79.875,48.146,79.832,48.187z M11.874,69.543
		c-1.778,1.773-3.6,3.502-5.352,5.301c-1.207,1.483-2.685,2.721-3.938,4.089c-0.414,0.452-1.075,0.791-1.211,1.464
		C10.439,80.706,20.687,80.5,30,80.499c0.981,0,2.042,0.148,2.979-0.202c-2.147-0.566-4.167-1.117-6.109-1.767
		c-5.885-1.968-10.576-5.311-14.692-9.038c-0.034,0-0.067,0-0.101,0C12.008,69.509,11.98,69.565,11.874,69.543z M78.772,79.641
		c-2.845-3.001-5.96-5.91-8.886-8.835c-0.458-0.458-1.21-1.575-1.716-1.161c-1.42,1.159-2.712,2.462-4.241,3.534
		c-3.832,2.685-8.094,4.917-13.178,6.311c-0.98,0.269-2.067,0.378-3.029,0.909c3.542,0.271,7.188,0.151,10.855,0.151
		c7.038,0,14.021,0.093,20.751-0.101C79.401,80.043,78.98,79.861,78.772,79.641z"/>
</g>
<g id="Layer_1">
</g>
</svg>
