<?xml version="1.0" encoding="iso-8859-1"?>
<!-- Generator: Adobe Illustrator 19.2.0, SVG Export Plug-In . SVG Version: 6.00 Build 0)  -->
<svg version="1.1" xmlns="http://www.w3.org/2000/svg" xmlns:xlink="http://www.w3.org/1999/xlink" x="0px" y="0px"
	 viewBox="0 0 71.833 71.458" style="enable-background:new 0 0 71.833 71.458;" xml:space="preserve">
<g id="Terra_x5F_Furniture">
	<path style="fill-rule:evenodd;clip-rule:evenodd;" d="M71.613,0.154c0.163,2.684,0.164,6.044,0,8.726
		c-5.641,0.127-11.635,0.148-17.451,0.146c-2.001,0-3.88-0.052-5.491,0.344c-3.262,0.799-5.187,2.753-6.569,5.146
		c-0.739,1.281-1.28,2.779-1.373,4.51c-0.093,1.737,0,3.675,0,5.834c0,15.196,0.154,31.05-0.049,46.423
		c-2.15,0.178-4.744,0.098-7.108,0.098c-0.78,0-1.586,0.112-2.255-0.146c-0.143-15.132-0.147-31.411-0.147-46.473
		c0-2.173,0.087-4.113-0.049-5.833c-0.136-1.719-0.658-3.19-1.422-4.461c-1.397-2.325-3.503-4.277-6.667-5.098
		c-1.597-0.415-3.555-0.344-5.539-0.344c-5.727,0-11.834,0.179-17.354-0.049c-0.203-1.465-0.082-3.058-0.098-4.56
		C0.027,2.924-0.088,1.475,0.141,0.204c8.69-0.404,17.665,0.27,26.471-0.147c3.684-0.174,7.402,0.12,11.128,0
		c3.743-0.121,7.538-0.012,11.275,0.049C56.516,0.227,64.066-0.17,71.613,0.154z"/>
	<path style="fill-rule:evenodd;clip-rule:evenodd;" d="M71.613,9.959c0.202,1.412,0.147,3.071,0.147,4.755
		c0,1.629,0.118,3.385-0.147,4.804c-3.287,0.176-7.271,0.099-11.03,0.099c-2.01,0-3.891-0.134-5.49,0.098
		c-2.014,0.291-3.589,1.741-3.922,3.774c-0.148,0.908-0.089,2.034-0.049,3.039c0.109,2.722,0.033,5.769,0.049,8.727
		c0.022,4.064,0,7.91,0,11.814c0,8.293,0.083,16.433-0.098,24.216c-2.878,0.163-6.437,0.163-9.314,0
		c-0.209-14.268-0.148-29.399-0.147-44.217c0-2.973-0.264-5.919,0.049-8.677c0.208-1.831,1.041-3.489,2.01-4.706
		c0.34-0.427,0.63-0.895,0.98-1.226c1.635-1.547,3.916-2.476,6.52-2.598c1.647-0.078,3.345-0.001,5.049,0
		C61.442,9.862,66.568,9.792,71.613,9.959z"/>
	<path style="fill-rule:evenodd;clip-rule:evenodd;" d="M30.24,71.284c-3.071,0.144-6.465,0.187-9.461,0.049
		c-0.264-3.688-0.147-7.821-0.147-11.765c0-9.946-0.049-19.835-0.049-29.707c0-1.991,0.162-4.052,0-5.98
		c-0.178-2.114-1.706-3.642-3.529-4.068c-1.233-0.289-2.693-0.147-4.167-0.147c-4.183,0-8.674,0.162-12.746-0.098
		c-0.19-3.01-0.107-6.478-0.049-9.462C0.414,9.9,1.123,9.929,1.513,9.91c1.944-0.092,3.792,0.136,5.638,0.049
		C8.962,9.873,10.779,9.91,12.69,9.91c3.746,0,8.147-0.396,10.883,0.49c2.738,0.887,4.911,3.008,5.932,5.44
		c1.096,2.614,0.833,6.76,0.833,10.442c0,7.362,0,15.085,0,22.745c0,3.775,0.163,7.582,0,11.275
		C30.174,64.031,30.626,67.718,30.24,71.284z"/>
	<path style="fill-rule:evenodd;clip-rule:evenodd;" d="M71.613,20.597c0.258,0.661,0.147,1.472,0.147,2.255
		c0.001,2.285,0.11,4.965-0.098,7.01c-1.268,0.187-2.701,0.083-4.118,0.099c-2.629,0.026-4.937-0.178-5.735,1.813
		c-0.46,1.147-0.196,3.344-0.196,4.853c0.001,11.6,0.079,24.106-0.049,34.609c-2.83,0.292-6.375,0.127-9.363,0.098
		c-0.266-0.938-0.147-1.956-0.147-2.941c0-14.139-0.048-27.882-0.049-42.256c0-1.064-0.078-2.266,0.147-2.99
		c0.472-1.521,1.695-2.432,3.481-2.647c1.238-0.148,2.648,0.001,4.02,0C63.58,20.498,67.8,20.418,71.613,20.597z"/>
	<path style="fill-rule:evenodd;clip-rule:evenodd;" d="M19.651,71.333c-2.78,0.112-6.403,0.195-9.314,0
		c-0.194-11.073-0.148-23.245-0.147-34.853c0-1.521,0.237-3.657-0.294-4.755c-1.358-2.811-6.309-1.184-9.706-1.765
		c-0.261-1.293-0.146-3.063-0.146-4.756c0-0.734,0-1.633,0-2.451c0-0.905-0.225-2.063,0.49-2.205c0.556-0.111,1.335,0,2.01,0
		c4.561-0.001,9.268,0.002,13.971,0c1.65,0.389,2.709,1.221,3.088,2.794c0.192,0.797,0.149,1.927,0.147,2.941
		c-0.026,10.472,0,22.303,0,33.432C19.749,63.768,19.919,67.693,19.651,71.333z"/>
	<path style="fill-rule:evenodd;clip-rule:evenodd;" d="M71.663,30.939c0.247,6.577,0.146,13.344,0.147,20.148
		c0.001,6.777,0.095,13.576-0.098,20.147c-1.392,0.159-2.952,0.146-4.51,0.146c-1.557,0-3.207,0.112-4.608-0.146
		c-0.122-8.959-0.146-19.952-0.147-29.707c0-1.512,0.049-3.15,0.049-4.951c0-1.415-0.3-3.686,0.196-4.657
		c0.751-1.47,3.235-1.077,5.441-1.078C69.33,30.841,70.542,30.763,71.663,30.939z"/>
	<path style="fill-rule:evenodd;clip-rule:evenodd;" d="M9.209,71.333c-2.858,0.167-6.103,0.166-8.971,0
		c-0.241-6.498-0.146-13.34-0.147-20.245c0-5.885-0.049-12.091-0.049-17.844c0-0.802-0.162-1.732,0.245-2.305
		c1.238-0.079,2.628-0.06,4.215-0.049c1.963,0.015,4.076-0.25,4.657,1.274c0.411,1.078,0.147,3.491,0.147,4.853
		c0,4.998,0,10.108,0,15c0,3.51,0.105,6.8,0.049,9.854C9.3,64.96,9.46,68.519,9.209,71.333z"/>
</g>
<g id="Layer_1">
</g>
</svg>
