<?xml version="1.0" encoding="iso-8859-1"?>
<!-- Generator: Adobe Illustrator 19.2.0, SVG Export Plug-In . SVG Version: 6.00 Build 0)  -->
<svg version="1.1" xmlns="http://www.w3.org/2000/svg" xmlns:xlink="http://www.w3.org/1999/xlink" x="0px" y="0px"
	 viewBox="0 0 78.885 80.174" style="enable-background:new 0 0 78.885 80.174;" xml:space="preserve">
<g id="Tessitura_x5F_di_x5F_Mompiano">
	<path style="fill-rule:evenodd;clip-rule:evenodd;" d="M0.438,0.006c3.996,0.306,7.277,1.468,10.113,2.926
		c4.234,2.178,7.643,5.463,10.062,9.496c0.422,0.704,0.748,1.408,1.078,2.208c0.305,0.744,0.736,1.45,1.025,2.207
		c1.23,3.215,1.762,6.948,1.642,11.242c-0.234,8.411-0.051,17.085-0.051,25.769c0,8.714,0.086,17.466-0.104,25.924
		c-0.041,0.009-0.051,0.052-0.101,0.051c-1.885,0.271-3.873,0.103-5.904,0.103c-3.965,0-8.1-0.052-12.166-0.052
		c-2.021,0-3.992,0.109-5.852-0.153c-0.279-1.508-0.154-3.196-0.154-4.928c0-16.942,0.053-33.085,0.051-50.205
		c0-7.408,0.053-14.624,0.053-22.073c0-0.793-0.092-2.21,0.152-2.413C0.323,0.06,0.377,0.03,0.438,0.006z"/>
	<path style="fill-rule:evenodd;clip-rule:evenodd;" d="M51.362,79.931c-1.947,0.273-4.002,0.103-6.057,0.103
		c-4.977,0.001-10.258-0.05-15.504-0.051c-1.012,0-2.029,0.119-2.977-0.154c-0.307-3.598-0.103-7.258-0.103-10.934
		c0-3.692-0.17-7.435,0-11.191c0.164-3.627-0.08-7.218,0-10.831c0.08-3.591,0.053-7.236,0.051-10.935
		c0-4.008,0.072-7.736-0.051-11.293c-0.18-5.182-1.947-9.509-3.953-13.039c-0.685-1.209-1.408-2.409-2.258-3.388
		c-1.334-1.535-2.607-2.964-4.209-4.261c-0.484-0.392-1.207-0.719-1.387-1.438c0.572-0.586,1.445-0.68,2.207-0.975
		c2.244-0.869,5.16-1.476,8.162-1.54c4.266-0.094,8.047,1,11.088,2.361c6.18,2.765,10.564,7.459,13.297,13.552
		c1.43,3.189,1.899,6.919,1.899,11.499c0,4.408,0,8.948,0,13.449c0.002,11.932-0.055,23.458-0.051,35.984
		C51.516,77.894,51.653,78.942,51.362,79.931z"/>
	<path style="fill-rule:evenodd;clip-rule:evenodd;" d="M78.62,80.034c-0.904,0.214-1.898,0.126-2.875,0.103
		c-6.266-0.149-12.557-0.052-18.787-0.051c-0.992,0-2.023,0.148-2.926-0.206c-0.248-7.01-0.103-14.425-0.103-21.919
		c0-7.466,0-15.042,0-22.433c0-3.84,0.15-7.556-0.051-10.985C53.323,15.111,49.049,8.616,43.508,4.06
		c-0.48-0.394-1.127-0.741-1.387-1.386c1.141-0.948,2.729-1.251,4.26-1.694c1.635-0.473,3.436-0.748,5.236-0.873
		c4.506-0.31,8.355,0.816,11.447,2.105c1.525,0.635,2.986,1.582,4.313,2.464c1.336,0.889,2.602,1.934,3.695,3.028
		c4.461,4.46,7.998,10.533,7.805,19.251c-0.188,8.343-0.053,17.306-0.053,26.282c0,7.89,0,15.762,0,23.665
		C78.825,77.95,78.96,79.036,78.62,80.034z"/>
</g>
<g id="Layer_1">
</g>
</svg>
