<?xml version="1.0" encoding="iso-8859-1"?>
<!-- Generator: Adobe Illustrator 19.2.0, SVG Export Plug-In . SVG Version: 6.00 Build 0)  -->
<svg version="1.1" xmlns="http://www.w3.org/2000/svg" xmlns:xlink="http://www.w3.org/1999/xlink" x="0px" y="0px"
	 viewBox="0 0 101.273 101.918" style="enable-background:new 0 0 101.273 101.918;" xml:space="preserve">
<g id="The_x5F_Prime_x5F_Time">
	<path style="fill-rule:evenodd;clip-rule:evenodd;" d="M48.814,0.059c16.191-0.771,28.648,6.123,36.813,14.03
		c8.487,8.219,14.835,19.453,15.589,35.254c0.74,15.516-5.896,28.439-13.91,36.454c-8.511,8.51-19.179,15.388-34.655,16.068
		c-16.191,0.712-28.336-5.868-36.933-13.91C7.481,80.251,0.274,68.296,0.009,52.821c-0.28-16.421,5.942-28.31,13.79-36.813
		c3.915-4.242,8.818-8.017,14.63-10.793C34.177,2.471,41.056,0.429,48.814,0.059z M36.943,13.01c-0.012,0-0.467-0.067-0.6,0
		c-0.401,0.203-0.485,3.223-0.48,2.878c-0.093,5.998-0.324,14.856,0.119,21.584c0.495,7.503,6.719,13.55,14.63,13.55
		c8.058,0,13.93-5.754,14.629-13.67c0.765-8.65-0.411-15.5,0-24.342C57.017,12.813,44.676,13.231,36.943,13.01z M81.91,76.804
		c5.915-7.543,10.98-18.193,9.113-31.177c-1.78-12.385-8.161-21.609-16.428-27.58c0,0.12,0,0.24,0,0.359
		c-0.653,7.771,0.889,18.386-1.199,25.182c-2.598,8.459-9.204,13.543-17.627,16.188c-0.156,11.635-0.319,20.069-0.12,31.537
		C66.592,89.782,75.596,84.855,81.91,76.804z M11.641,62.654c4.565,15.43,16.528,25.811,33.456,28.779
		c0.139-12.278,0.313-20.449,0.119-31.657c-9.367-3.019-16.679-9.189-18.227-19.546c-1.006-6.734,0.214-13.842-0.239-21.944
		c-0.121,0-0.144-0.097-0.24-0.12C15.366,26.167,5.989,43.548,11.641,62.654z"/>
</g>
<g id="Layer_1">
</g>
</svg>
