<?xml version="1.0" encoding="iso-8859-1"?>
<!-- Generator: Adobe Illustrator 21.0.2, SVG Export Plug-In . SVG Version: 6.00 Build 0)  -->
<svg version="1.1" xmlns="http://www.w3.org/2000/svg" xmlns:xlink="http://www.w3.org/1999/xlink" x="0px" y="0px"
	 viewBox="0 0 30.553 29.888" style="enable-background:new 0 0 30.553 29.888;" xml:space="preserve">
<g id="The_x5F_One_x5F_Centre">
	<path d="M7.939,2.489c3.392-2.716,8.314-3.244,12.238-1.41c2.38,1.11,4.346,3.034,5.608,5.327c1.141,2.144,1.622,4.631,1.369,7.046
		c-0.371-4.368-3.296-8.368-7.323-10.08c-4.023-1.746-8.981-1.009-12.292,1.876c-2.425,1.975-3.875,4.997-4.226,8.077
		C2.901,9.245,4.674,4.991,7.939,2.489z"/>
	<path d="M0.508,18.587c-0.427-1.684-0.597-3.44-0.463-5.172c0.412,5.166,3.584,10.083,8.264,12.372
		c4.222,2.187,9.491,2.225,13.726,0.051c4.658-2.265,8.054-7.066,8.448-12.254c0.288,2.643-0.315,5.338-1.495,7.705
		c-2.316,4.844-7.375,8.246-12.736,8.562c-2.831,0.198-5.716-0.411-8.215-1.76C4.366,26.136,1.552,22.618,0.508,18.587z"/>
</g>
<g id="Layer_1">
</g>
</svg>
