<?xml version="1.0" encoding="iso-8859-1"?>
<!-- Generator: Adobe Illustrator 21.0.2, SVG Export Plug-In . SVG Version: 6.00 Build 0)  -->
<svg version="1.1" xmlns="http://www.w3.org/2000/svg" xmlns:xlink="http://www.w3.org/1999/xlink" x="0px" y="0px"
	 viewBox="0 0 30.456 30.801" style="enable-background:new 0 0 30.456 30.801;" xml:space="preserve">
<g id="The_x5F_Halcyon">
	<path d="M28.459,0.015C29.02,0.006,29.582,0.004,30.144,0c0.13,10.148,0.261,20.298,0.311,30.449
		c-8.872,0.094-17.747,0.205-26.618,0.278c-0.092-8.951-0.18-17.902-0.275-26.852c1.782-0.007,3.562-0.067,5.344-0.064
		c0.095,7.778,0.183,15.554,0.238,23.332c-0.588-0.004-1.176,0.017-1.765,0.011C7.34,19.981,7.253,12.811,7.172,5.642
		C6.564,5.637,5.956,5.65,5.348,5.655c0.1,7.752,0.167,15.504,0.238,23.256c7.713-0.088,15.427-0.147,23.141-0.254
		C28.689,19.108,28.511,9.564,28.459,0.015z"/>
	<path d="M0,0.312c8.874-0.125,17.749-0.182,26.623-0.3c0.072,8.959,0.222,17.919,0.254,26.876c-1.721,0.09-3.532,0.071-5.285,0.067
		c-0.062-7.759-0.166-15.518-0.233-23.277c0.592-0.014,1.186-0.085,1.777-0.011c0.083,7.166,0.127,14.334,0.246,21.499
		c0.576-0.015,1.151-0.007,1.727-0.022c-0.063-7.768-0.147-15.537-0.25-23.305C17.167,1.922,9.476,1.985,1.786,2.099
		c0.114,9.553,0.196,19.109,0.3,28.663c-0.592-0.01-1.182,0.038-1.773,0.039C0.196,20.638,0.118,10.476,0,0.312z"/>
	<path d="M17.798,3.741c0.593-0.006,1.188-0.077,1.781-0.014c0.029,3.548,0.069,7.096,0.108,10.643
		c-2.953,0.071-5.909,0.062-8.863,0.109c-0.001-3.551-0.109-7.101-0.09-10.652c0.579-0.01,1.158-0.006,1.737-0.019
		c0.065,2.941,0.051,5.894,0.123,8.839c1.761,0.005,3.52-0.037,5.28-0.057C17.873,9.639,17.799,6.691,17.798,3.741z"/>
	<path d="M10.863,16.401c2.947-0.007,5.892-0.087,8.84-0.079c0.048,3.56,0.086,7.126,0.085,10.685c-0.585,0.006-1.169,0-1.753,0.01
		c-0.059-2.956-0.027-5.915-0.107-8.871c-1.758-0.005-3.52,0.039-5.279,0.037c-0.025,2.98,0.096,5.957,0.063,8.937
		c-0.588,0.001-1.175,0.008-1.763,0.008C10.952,23.552,10.861,19.978,10.863,16.401z"/>
</g>
<g id="Layer_1">
</g>
</svg>
