<?xml version="1.0" encoding="iso-8859-1"?>
<!-- Generator: Adobe Illustrator 21.0.2, SVG Export Plug-In . SVG Version: 6.00 Build 0)  -->
<svg version="1.1" xmlns="http://www.w3.org/2000/svg" xmlns:xlink="http://www.w3.org/1999/xlink" x="0px" y="0px"
	 viewBox="0 0 15.601 15.452" style="enable-background:new 0 0 15.601 15.452;" xml:space="preserve">
<g id="The_x5F_Caterpillar_x5F_Tractor_x5F_Co">
	<path d="M5.853,0.151C6.07,0.09,6.292,0.048,6.513,0C6.506,3.497,6.512,6.995,6.51,10.492c0.004,1.651-0.008,3.303,0.006,4.953
		c-1.462-0.246-2.85-0.921-3.943-1.923c-0.325-0.266-0.597-0.588-0.861-0.911c-1.219-1.509-1.837-3.486-1.691-5.42
		C0.092,6.035,0.435,4.9,1.004,3.892C2.027,2.059,3.818,0.672,5.853,0.151z"/>
	<path d="M9.2,0.002c0.956,0.174,1.882,0.517,2.717,1.016c0.489,0.291,0.935,0.646,1.356,1.027c1.208,1.151,2.03,2.691,2.327,4.333
		c-2.134-0.005-4.268-0.005-6.402,0C9.208,4.252,9.204,2.127,9.2,0.002z"/>
	<path d="M9.2,9.05c2.134,0.003,4.268,0.007,6.401-0.002c-0.271,1.564-1.022,3.049-2.148,4.17c-1.133,1.171-2.652,1.947-4.253,2.234
		C9.205,13.318,9.207,11.184,9.2,9.05z"/>
</g>
<g id="Layer_1">
</g>
</svg>
