<?xml version="1.0" encoding="iso-8859-1"?>
<!-- Generator: Adobe Illustrator 19.2.0, SVG Export Plug-In . SVG Version: 6.00 Build 0)  -->
<svg version="1.1" xmlns="http://www.w3.org/2000/svg" xmlns:xlink="http://www.w3.org/1999/xlink" x="0px" y="0px"
	 viewBox="0 0 74.563 75.585" style="enable-background:new 0 0 74.563 75.585;" xml:space="preserve">
<g id="the_x5F_marin_x5F_jewish_x5F_community_x5F_center">
	<path style="fill-rule:evenodd;clip-rule:evenodd;" d="M37.487,0c0.349,0.467,0.201,1.212,0.201,1.859c0,0.654,0,1.347,0,2.01
		c0,1.364,0.119,2.83-0.15,3.918c-0.723-0.282-0.973-1.037-1.508-1.507c-0.299-0.627-1.223-0.972-1.256-1.708
		C34.747,3.984,35.53,3.11,35.98,2.311C36.546,1.305,36.946,0.538,37.437,0C37.453,0,37.47,0,37.487,0z"/>
	<path style="fill-rule:evenodd;clip-rule:evenodd;" d="M38.793,7.536c-0.181-2.122-0.158-5.125,0-7.385
		c0.059-0.008,0.089,0.011,0.101,0.05c0.587,0.614,0.94,1.407,1.356,2.16c0.401,0.726,0.972,1.416,1.205,2.261
		c-0.209,0.728-0.829,1.046-1.256,1.557C39.753,6.654,39.484,7.306,38.793,7.536z"/>
	<path style="fill-rule:evenodd;clip-rule:evenodd;" d="M43.767,8.54c-1.061,1.495-2.36,2.779-3.617,4.12
		c-0.404,0.431-0.724,1.018-1.307,1.256c-0.341-1.251-0.058-3.194-0.15-4.722c0.37-0.568,0.91-1.18,1.457-1.759
		c0.558-0.589,1.079-1.322,1.608-1.658c0.519-0.331,0.919,0.778,1.206,1.256C43.313,7.618,43.651,8.018,43.767,8.54z"/>
	<path style="fill-rule:evenodd;clip-rule:evenodd;" d="M34.07,5.777c0.612,0.238,1.472,1.309,1.909,1.809
		c0.621,0.71,1.182,1.371,1.658,2.009c0.048,1.433,0.15,3.324-0.051,4.672c-0.658-0.188-0.991-0.866-1.406-1.306
		c-0.448-0.474-0.861-0.952-1.307-1.406c-0.887-0.906-1.844-1.804-2.512-2.914C32.799,7.554,33.351,6.581,34.07,5.777z"/>
	<path style="fill-rule:evenodd;clip-rule:evenodd;" d="M46.178,12.61c-0.316,0.99-1.215,1.398-1.708,2.21
		c-1.492,1.419-2.748,3.048-4.17,4.572c-0.442,0.475-0.866,1.105-1.507,1.356c-0.3-1.333-0.152-3.447-0.051-4.873
		c0.771-1.123,1.693-2.13,2.613-3.115c0.91-0.977,1.82-1.967,2.763-2.914c0.546-0.348,0.922,0.655,1.256,1.206
		C45.735,11.647,46.185,12.159,46.178,12.61z"/>
	<path style="fill-rule:evenodd;clip-rule:evenodd;" d="M37.688,16.177c-0.062,1.579,0.128,3.41-0.101,4.823
		c-0.517-0.088-0.855-0.529-1.155-0.854c-0.315-0.341-0.574-0.73-0.954-1.005c-1.388-1.523-2.763-2.976-4.271-4.572
		c-0.382-0.404-1.307-1.047-1.356-1.558c-0.048-0.483,0.492-1.133,0.753-1.607c0.229-0.416,0.862-1.601,1.156-1.558
		c0.56,0.082,1.174,1.024,1.607,1.457c0.567,0.567,0.938,1.029,1.457,1.608C35.88,14.087,36.985,15.073,37.688,16.177z"/>
	<path style="fill-rule:evenodd;clip-rule:evenodd;" d="M46.731,13.916c0.548-0.048,0.918,0.95,1.155,1.356
		c0.344,0.587,0.779,1.038,0.804,1.608c-0.179,0.632-0.688,1.091-1.104,1.557c-1.211,1.357-2.44,2.766-3.718,4.12
		c-1.224,1.405-2.423,2.797-3.668,4.22c-0.384,0.439-0.838,0.976-1.406,1.206c-0.315-1.497-0.104-3.631-0.101-5.175
		c1.155-1.624,2.633-2.927,3.918-4.421C43.936,16.849,45.315,15.364,46.731,13.916z"/>
	<path style="fill-rule:evenodd;clip-rule:evenodd;" d="M29.197,14.268c0.033,0,0.067,0,0.101,0
		c1.457,1.404,2.897,2.834,4.271,4.321c1.372,1.487,2.893,2.842,4.119,4.471c-0.064,1.661,0.13,3.58-0.101,5.074
		c-0.722-0.167-0.968-0.808-1.406-1.256c-0.456-0.414-0.892-0.85-1.307-1.306c-2.059-2.134-4.521-4.636-6.731-6.983
		c-0.315-0.335-0.823-0.777-0.855-1.105c-0.044-0.469,0.436-0.969,0.804-1.607C28.497,15.175,28.658,14.536,29.197,14.268z"/>
	<path style="fill-rule:evenodd;clip-rule:evenodd;" d="M53.864,18.287c-0.013,0.49-0.468,0.834-0.754,1.156
		c-2.143,2.417-4.458,4.936-6.631,7.385c-1.897,2.101-3.726,4.249-5.677,6.331c-0.632,0.673-1.183,1.491-2.01,1.959
		c-0.262-0.732-0.151-1.724-0.15-2.663c0-0.955-0.142-1.963,0.1-2.663c0.184-0.531,0.799-1.019,1.256-1.507
		c1.316-1.403,2.628-3.058,3.869-4.371c1.813-1.854,3.364-3.971,5.274-5.727c0.882-0.13,1.955-0.05,3.015-0.05
		C52.768,18.136,53.414,18.019,53.864,18.287z"/>
	<path style="fill-rule:evenodd;clip-rule:evenodd;" d="M60.496,18.237c0.115,0.379-0.3,0.619-0.503,0.854
		c-0.647,0.748-1.343,1.59-2.06,2.311c-5.281,6.273-10.864,12.245-16.277,18.387c-0.466,0.466-0.947,0.989-1.406,1.508
		c-0.446,0.503-0.796,1.16-1.407,1.356c-0.277-0.334-0.207-0.886-0.2-1.356c0.016-1.277-0.047-2.967,0.05-4.371
		c5.204-5.865,10.456-11.682,15.725-17.483c0.275-0.529,0.613-0.995,1.105-1.306C57.18,18.208,59.099,17.93,60.496,18.237z"/>
	<path style="fill-rule:evenodd;clip-rule:evenodd;" d="M67.378,18.237c0.087,0.494-0.5,0.734-0.703,1.105
		c-0.268,0.369-0.612,0.661-0.904,1.005c-8.39,9.31-16.568,18.834-25.068,28.033c-0.596,0.594-1.086,1.56-1.859,1.809
		c-0.271-0.329-0.15-0.869-0.15-1.307c0-1.321,0-2.866,0-4.22c1.751-2.359,3.928-4.388,5.878-6.682
		c1.868-2.197,3.949-4.351,5.928-6.631c0.952-1.097,2.042-2.124,3.015-3.266c0.955-1.122,1.875-2.3,2.863-3.417
		c1.371-1.548,2.99-3.229,4.472-4.974c0.468-0.551,1.181-1.538,1.758-1.607c0.691-0.083,1.598,0,2.462,0
		C65.914,18.086,66.815,17.972,67.378,18.237z"/>
	<path style="fill-rule:evenodd;clip-rule:evenodd;" d="M74.563,18.237c-0.039,0.592-0.595,0.963-0.955,1.356
		c-2.592,2.834-5.183,5.911-7.837,8.741c-3.432,3.683-6.676,7.525-10.098,11.253c-1.136,1.238-2.137,2.579-3.266,3.818
		c-1.129,1.24-2.265,2.495-3.416,3.717c-2.28,2.421-4.387,5.026-6.682,7.486c-0.857,0.917-1.722,1.791-2.563,2.763
		c-0.257,0.297-0.487,0.774-0.954,0.804c-0.25-1.797-0.131-4.02-0.051-5.928c0.436-0.894,1.229-1.504,1.859-2.21
		c0.643-0.721,1.207-1.499,1.909-2.16c1.263-1.433,2.584-2.808,3.818-4.271c5.206-5.612,10.142-11.493,15.322-17.131
		c1.899-2.265,4.55-4.998,6.682-7.485c0.418-0.488,0.787-0.836,1.356-0.904C71.183,17.907,72.949,18.202,74.563,18.237z"/>
	<path style="fill-rule:evenodd;clip-rule:evenodd;" d="M0.16,18.337c1.569,0.251,3.674-0.357,5.225,0.05
		c0.669,0.176,1.541,1.392,2.16,2.01c2.085,2.085,4.086,4.202,5.979,6.38c0.65,0.749,1.356,1.407,2.059,2.11
		c2.028,2.027,3.979,4.337,5.979,6.38c3.335,3.408,6.677,7.08,10.147,10.55c1.389,1.389,2.667,2.629,4.069,4.17
		c0.552,0.606,1.719,1.598,1.909,2.211c0.255,0.818,0.019,2.018,0,2.964c-0.021,1.054,0.121,2.045-0.101,2.813
		c-0.664-0.14-0.839-0.769-1.306-1.105c-5.884-6.174-11.793-12.321-17.685-18.487C13.238,32.705,7.813,26.692,2.169,21.05
		c-0.362-0.362-0.698-0.769-1.155-1.256c-0.363-0.387-1.103-0.934-1.005-1.357C0.045,18.391,0.1,18.361,0.16,18.337z"/>
	<path style="fill-rule:evenodd;clip-rule:evenodd;" d="M7.595,18.387c0.769,0,1.65,0,2.612,0c0.84,0,1.92-0.182,2.563,0.05
		c0.436,0.158,1.078,1.179,1.557,1.658c3.764,3.764,7.317,7.621,10.952,11.404c4.292,4.467,8.389,8.721,12.409,13.112
		c0.022,1.755,0.207,4.086-0.101,5.677c-0.491-0.072-0.814-0.514-1.105-0.854c-0.866-1.015-1.888-1.988-2.863-2.964
		c-3.843-3.844-7.601-7.905-11.353-11.907c-2.502-2.668-5.048-5.303-7.587-7.938c-1.274-1.322-2.457-2.726-3.717-4.069
		c-0.928-0.99-1.893-1.955-2.863-2.964c-0.285-0.295-0.783-0.601-0.704-1.105C7.469,18.462,7.521,18.414,7.595,18.387z"/>
	<path style="fill-rule:evenodd;clip-rule:evenodd;" d="M37.587,42.703c-0.757-0.23-1.004-0.972-1.558-1.406
		c-6.743-7.043-13.601-14.094-20.346-21.201c-0.414-0.436-1.073-0.902-1.055-1.607c1.076,0.163,3.979-0.398,5.224,0
		c0.34,0.109,0.809,0.707,1.206,1.105c4.151,4.15,8.151,8.604,12.258,12.71c0.776,0.776,1.486,1.565,2.211,2.361
		c0.72,0.79,1.598,1.429,2.16,2.361C37.662,38.912,37.805,40.911,37.587,42.703z"/>
	<path style="fill-rule:evenodd;clip-rule:evenodd;" d="M37.537,35.217c-0.884-0.49-1.352-1.394-2.11-2.01
		c-1.203-1.15-2.31-2.46-3.517-3.667c-3.267-3.267-6.456-6.675-9.696-10.047c-0.214-0.223-0.736-0.599-0.452-1.005
		c0.665-0.081,1.672,0.039,2.713,0c0.837-0.031,1.666-0.162,2.211,0.05c0.419,0.164,0.973,0.944,1.406,1.407
		c1.417,1.511,2.642,2.792,4.12,4.27c0.965,0.965,1.934,1.873,2.763,2.813c0.908,1.029,1.921,1.884,2.663,2.914
		c0.09,0.811,0.05,1.776,0.05,2.713C37.688,33.569,37.804,34.527,37.537,35.217z"/>
	<path style="fill-rule:evenodd;clip-rule:evenodd;" d="M51.503,51.695c-1.846,1.955-3.568,4.035-5.426,5.979
		c-1.311,1.566-2.607,2.944-4.069,4.521c-0.464,0.502-1.073,1.02-1.256,1.557c-0.251,0.74-0.101,1.887-0.101,2.864
		c0.001,2.892,0.082,6.07-0.1,8.792c-0.7,0.258-2.188,0.197-2.965,0.05c-0.266-1.042-0.15-2.214-0.15-3.416
		c0-2.813-0.017-5.827,0-8.792c0.003-0.574-0.07-1.166,0.05-1.607c0.141-0.512,0.905-1.143,1.356-1.658
		c5.107-5.838,10.343-11.424,15.423-17.232c0.899-1.027,1.786-2.135,2.764-3.165c0.98-1.033,1.793-2.272,2.813-3.115
		c0.591-0.488,1.056,0.837,1.356,1.356c0.343,0.593,0.917,1.122,0.904,1.658c-0.013,0.524-0.972,1.283-1.256,1.608
		C57.789,44.583,54.559,48.256,51.503,51.695z"/>
	<path style="fill-rule:evenodd;clip-rule:evenodd;" d="M15.332,36.774c0.477-0.017,0.934,0.743,1.355,1.206
		c1.174,1.288,2.517,2.542,3.668,3.718c1.677,1.712,3.192,3.494,4.773,5.074c3.352,3.352,6.427,6.845,9.645,10.098
		c0.68,0.733,1.309,1.459,2.01,2.211c0.221,0.236,0.624,0.435,0.553,0.854c-1.595,0.231-3.614,0.036-5.375,0.101
		c-3.196-2.905-6.041-6.341-9.445-9.747c-2.718-2.718-5.521-5.693-8.239-8.59c-0.354-0.378-0.982-0.972-1.005-1.357
		c-0.027-0.478,0.545-1.287,0.855-1.809C14.58,37.767,14.856,37.138,15.332,36.774z"/>
	<path style="fill-rule:evenodd;clip-rule:evenodd;" d="M62.656,40.844c0.541,0.075,0.997,1.04,1.356,1.608
		c0.363,0.574,1.015,1.383,1.004,1.859c-0.013,0.631-1.193,1.534-1.657,2.06c-1.714,1.941-3.685,4.057-5.275,5.828
		c-1.885,2.119-4.032,4.635-6.078,6.883c-0.304,0.333-0.62,0.804-0.905,0.904c-0.723,0.254-1.814,0.05-2.763,0.05
		c-0.958,0-1.935,0.117-2.662-0.151c0.469-0.975,1.314-1.675,2.009-2.462c2.07-2.344,4.227-4.705,6.381-7.033
		c1.214-1.752,2.78-3.191,4.17-4.772c1.393-1.585,2.802-3.162,4.27-4.672C62.542,40.897,62.597,40.868,62.656,40.844z"/>
	<path style="fill-rule:evenodd;clip-rule:evenodd;" d="M12.669,41.497c0.542,0.125,1.345,1.294,1.759,1.708
		c1.205,1.206,2.166,2.223,3.315,3.416c2.729,2.834,5.588,5.805,8.188,8.641c0.771,0.72,1.468,1.514,2.211,2.261
		c0.625,0.865,1.586,1.394,2.06,2.412c-1.471,0.306-3.691,0.125-5.325,0.101c-1.391-1.05-2.47-2.424-3.667-3.667
		c-1.2-1.245-2.394-2.498-3.567-3.768c-1.254-1.191-2.311-2.579-3.617-3.718c-0.558-0.681-1.067-1.369-1.658-2.009
		c-0.576-0.625-1.374-1.106-1.708-1.959c0.108-0.652,0.534-1.17,0.855-1.708c0.321-0.54,0.637-1.146,1.004-1.607
		C12.584,41.58,12.598,41.509,12.669,41.497z"/>
	<path style="fill-rule:evenodd;clip-rule:evenodd;" d="M53.01,59.884c0.204-0.78,0.922-1.248,1.407-1.859
		c1.44-1.817,3.091-3.603,4.672-5.325c2.127-2.345,4.209-4.733,6.431-6.983c0.602-0.233,0.953,0.8,1.356,1.457
		c0.338,0.55,0.964,1.238,0.954,1.708c-0.008,0.431-0.794,1.074-1.155,1.507c-2.09,2.509-4.104,4.357-6.279,6.883
		c-0.374,0.434-0.731,0.885-1.206,1.407c-0.36,0.396-0.936,1.185-1.306,1.306c-0.571,0.187-1.599,0.05-2.462,0.05
		C54.488,60.035,53.535,60.145,53.01,59.884z"/>
	<path style="fill-rule:evenodd;clip-rule:evenodd;" d="M10.057,46.019c0.033,0,0.066,0,0.1,0c2.373,2.116,4.283,4.693,6.582,6.883
		c1.904,2.018,3.769,4.067,5.727,6.079c0.267,0.273,0.674,0.528,0.704,0.955c-0.781,0.267-1.78,0.15-2.764,0.15
		c-0.993,0-2.074,0.172-2.863-0.05c-0.488-0.138-0.944-0.71-1.356-1.156c-1.199-1.299-2.525-2.692-3.566-3.969
		c-1.076-1.162-2.407-2.583-3.668-3.868c-0.349-0.355-1.075-0.995-1.106-1.407c-0.037-0.509,0.586-1.177,0.955-1.808
		C9.249,47.061,9.51,46.357,10.057,46.019z"/>
	<path style="fill-rule:evenodd;clip-rule:evenodd;" d="M68.485,50.138c0.042-0.009,0.047,0.019,0.05,0.05
		c0.485,0.275,0.776,0.965,1.155,1.607c0.302,0.513,0.964,1.232,0.954,1.758c-0.015,0.811-1.033,1.038-1.306,1.758
		c-0.549,0.473-0.944,1.099-1.508,1.557c-0.968,1.059-1.8,2.252-2.964,3.115c-1.676-0.065-3.614,0.131-5.124-0.101
		c0.055-0.525,0.552-0.92,0.904-1.306c0.363-0.399,0.76-0.786,1.055-1.206C64.017,55.016,66.049,52.375,68.485,50.138z"/>
	<path style="fill-rule:evenodd;clip-rule:evenodd;" d="M7.143,50.741c0.724,0.339,1.787,1.563,2.361,2.161
		c1.195,1.244,2.161,2.21,3.266,3.416c0.353,0.387,0.6,0.882,0.955,1.256c0.348,0.368,0.751,0.739,1.104,1.105
		c0.357,0.37,0.845,0.714,0.954,1.256c-0.644,0.277-1.529,0.137-2.461,0.101c-0.867-0.035-1.893,0.182-2.612-0.05
		c-0.45-0.146-0.995-0.884-1.507-1.407c-1.014-1.034-1.685-1.887-2.764-2.964c-0.378-0.378-1.275-1.122-1.307-1.558
		c-0.029-0.418,0.531-1.108,0.855-1.658C6.423,51.657,6.69,51.165,7.143,50.741z"/>
	<path style="fill-rule:evenodd;clip-rule:evenodd;" d="M74.362,59.784c-0.294,0.367-0.785,0.183-1.206,0.201
		c-1.455,0.062-3.226,0.043-4.722,0.05c-0.554,0.002-1.178,0.014-1.607-0.201c0.062-0.529,0.592-0.879,0.954-1.256
		c0.376-0.391,0.703-0.837,1.056-1.206c0.783-0.659,1.427-1.811,2.21-2.411c0.524-0.402,0.923,0.621,1.155,1.005
		c0.283,0.467,0.535,0.895,0.754,1.256C73.569,58.235,74.102,58.98,74.362,59.784z"/>
	<path style="fill-rule:evenodd;clip-rule:evenodd;" d="M6.842,57.422c0.622,0.885,1.648,1.366,2.059,2.462
		c-0.975,0.257-2.304,0.1-3.566,0.101c-0.636,0-1.31,0.006-1.909,0c-0.592-0.006-1.21,0.042-1.657-0.201
		c0.164-0.795,0.721-1.531,1.155-2.261c0.443-0.746,0.872-1.534,1.356-2.16c0.027-0.058,0.111-0.106,0.201-0.101
		C5.38,55.314,6.149,57.017,6.842,57.422z"/>
</g>
<g id="Layer_1">
</g>
</svg>
