<?xml version="1.0" encoding="iso-8859-1"?>
<!-- Generator: Adobe Illustrator 19.2.0, SVG Export Plug-In . SVG Version: 6.00 Build 0)  -->
<svg version="1.1" xmlns="http://www.w3.org/2000/svg" xmlns:xlink="http://www.w3.org/1999/xlink" x="0px" y="0px"
	 viewBox="0 0 141.946 142.908" style="enable-background:new 0 0 141.946 142.908;" xml:space="preserve">
<g id="The_x5F_Bulldog_x5F_Trust">
	<path style="fill-rule:evenodd;clip-rule:evenodd;" d="M105.419,0.071c-5.694,1.502-9.649,4.743-11.514,10.074
		c2.533-2.783,5.358-5.915,9.475-6.716c-0.345,1.492-1.948,2.094-2.998,2.998c-5.279,4.543-9.722,12.105-10.435,21.348
		c-0.24,3.122,0.236,4.965,1.319,7.315c0.573,1.244,2.967,4.62,3.598,1.559c0.07-0.336,0.039-0.857,0-1.319
		c-0.185-2.225-0.977-4.229-1.079-6.477c-0.462-10.176,2.108-17.734,8.396-21.467c-1.848,2.63-3.156,5.798-3.479,9.954
		c4.337-1.058,6.401-7.963,11.754-7.556c2.113,0.161,3.323,1.577,4.917,2.519c-3.468,1.831-6.61,4.731-9.115,8.155
		c-2.778,3.799-5.504,8.796-4.797,14.991c5.485-5.309,7.35-14.238,15.231-17.15c-4.537,3.145-7.72,11.212-11.273,16.55
		c-1.162,1.744-2.865,3.068-3.718,4.558c-1.333,2.325-0.458,6.755,1.199,7.915c2.165,1.516,6.476,1.604,8.635-0.12
		c-2.132,0.131-5.987,0.551-7.196-1.199c-1.82-2.638,1.056-3.715,2.759-4.917c6.46-4.559,10.398-12.908,15.231-18.709
		c-3.549,1.449-5.26,4.735-7.916,7.076c1.977-3.859,3.89-7.784,8.155-9.354c-1.149-0.712-4.166-1.094-3.718-2.998
		c0.278-1.185,4.9-1.646,6.477-1.439c1.844,0.242,3.156,2.472,2.639,4.078c0.62,1.019,2.356,0.922,2.519,2.399
		c-1.065-0.094-1.75-0.569-2.999-0.48c4.224,2.293,7.263,5.77,9.235,10.314c0.882-0.848,0.777-3.575,0.359-5.396
		c-1.27-5.54-6.142-11.025-10.674-12.833c-1.493-0.596-3.32-0.615-4.917-0.6c0.535-1.586,1.924-3.176,4.197-2.878
		c1.715,0.224,3.148,1.965,4.798,2.039c-1.552-2.689-5.3-5.723-10.194-4.317c0.155-2.194-1.387-2.691-2.398-3.718
		c1.284-0.435,3.06-0.378,4.797-0.36c-1.608-1.247-5.264-1.256-7.795-0.839c-0.727-0.954-1.563-1.795-2.879-2.159
		c3.626,0.13,8.921-0.079,12.233,1.199c1.161,0.448,2.367,1.615,3.118,1.679c1.34,0.114,2.713-1.152,4.317-0.719
		c1.135,0.306,2.886,1.913,4.077,2.878c1.319,1.068,3.337,2.464,3.718,4.077c0.561,2.377,0.829,4.705,1.559,7.196
		c0.264,0.902,1.337,2.623,0.72,3.358c-1.232,1.465-4.625-0.555-5.518-1.08c0.527,4.745,4.121,5.628,4.078,11.154
		c-0.016,1.947-0.325,5.277,0.12,7.555c0.304,1.555,1.605,2.904,1.319,5.517c-0.16,1.453-1.704,5.128-2.999,5.397
		c-1.628,0.337-2.4-2.059-3.718-2.039c-0.747,0.011-1.217,1.097-1.919,1.559c-2.203,1.449-5.309,1.403-8.635,1.439
		c0.608,1.177,2.483,0.929,4.078,0.84c-3.986,3.69-6.022,9.33-10.914,12.113c4.249-0.788,6.308-3.767,8.275-6.836
		c1.2,3.94,2.559,7.085,2.278,11.633c-0.325,5.29-2.25,11.099-2.639,16.431c-0.204,2.808,0.253,5.461,0.24,8.274
		c-0.035,8.21-6.297,11.782-6.836,19.069c-0.255,3.446-1.262,7.334-1.439,10.794c-0.059,1.155-0.177,2.453,0.12,3.478
		c0.422,1.454,2.442,2.046,2.519,3.958c1.39,1.088,3.107,0.909,4.438,1.799c1.806,1.207,1.616,3.917,2.639,5.996
		c-0.99-0.452-2.306-0.059-2.519,0.96c-0.873-0.124-1.969-0.477-2.998-0.12c-0.371,0.128-0.498,0.551-0.84,0.6
		c-0.744,0.105-1.532-0.664-2.278-0.72c-0.377-0.028-0.983,0.304-1.56,0.36c-2.316,0.227-4.86-1.041-6.116,0.359
		c-4.112,0.15-6.707-1.072-6.716-5.517c-0.004-1.675-0.134-3.88-1.08-5.157c0.124-0.556,0.73-0.629,0.84-1.199
		c-0.167-0.377-0.592,0.165-0.72-0.12c0.4-1.561,2.159-4.57,1.56-6.716c-0.191-0.683-1.008-1.272-1.319-1.799
		c1.261-1.657,2.154-3.683,2.278-6.477c0.693,2.534,1.701,5.188,1.319,8.396c-0.308,2.582-1.277,4.788-0.96,7.315
		c0.102,0.809,0.539,1.349,0.601,2.039c0.196,2.214-0.767,4.583,0,6.475c0.573,1.418,3.356,1.869,4.677,0.601
		c0.289-1.462-0.152-2.979-0.359-4.318c1.458,0.661,2.075,2.162,2.398,3.958c1.1,0.449,3.386,0.981,4.557,0.24
		c0.393-2.682-0.633-4.955-2.038-6.236c0.028-0.211,0.206-0.273,0.479-0.24c-1.174-1.305-2.644-2.313-4.678-2.759
		c0.648-0.87,2.446-0.593,3.719-0.839c-0.526-1.113-2.344-0.935-3.958-0.96c-0.326-3.829-0.562-7.988-0.36-12.593
		c0.221-5.015,2.023-9.901-0.839-12.712c-2.435,1.523-3.65,4.265-4.558,7.315c-0.599-2.852-0.182-6.572-0.479-9.954
		c-0.077-0.436-0.561,0.278-0.6-0.12c0.348-1.808-0.28-3.3-1.68-3.718c0.021-0.34,0.221-0.5,0.24-0.84
		c-0.471-0.289-0.689,0.546-1.319,0.481c-0.173-0.308-0.113-0.847-0.359-1.08c-5.645,3.512-10.032,8.337-18.829,7.676
		c-3.04-0.229-7.446,0.455-10.554-1.079c-0.527-0.261-1.126-0.989-1.56-0.96c-1.636,0.111-3.704,4.76-5.396,4.558
		c0.51-4.447,1.667-8.247,2.998-11.873c-3.969,2.053-3.339,7.827-4.437,12.473c-0.297,1.255-1.24,2.382-1.559,3.598
		c-1.183,4.514,0.937,9.457,0.6,13.792c-0.149,1.909-1.123,3.674-0.6,5.518c0.77-1.229,1.038-2.959,1.559-4.438
		c2.492,1.54,6.66,1.144,8.995,3.598c1.64,1.723,2.527,3.747,3.357,6.716c-3.88-0.078-7.093,0.711-11.633,0.479
		c2.481,1.597,4.277,3.878,4.558,7.676c-1.04-0.265-1.51,0.657-2.639,0.84c-0.539,0.087-1.253-0.162-1.799,0
		c-0.39,0.115-2.239,1.778-2.759,1.799c-0.438,0.018-0.865-0.722-1.319-0.84c-0.771-0.2-2.161,0.357-3.718,0.24
		c-0.493-0.037-1.058-0.387-1.438-0.36c-0.348,0.024-0.628,0.366-0.96,0.36c-0.704-0.013-1.309-0.242-2.398-0.24
		c-3.047,0.008-5.713-2.502-7.315-0.839c-1.738-0.894-2.467-3.349-1.56-5.757c0.39-1.033,1.416-1.706,1.799-2.639
		c0.199-0.484,0.081-1.204,0.24-1.799c0.389-1.453,1.382-2.911,1.559-4.197c0.412-2.993-0.975-6.197-0.72-9.835
		c0.692,2.638,2.62,5.265,2.999,8.755c0.247,2.282-1.242,2.887-1.799,4.558c-0.267,0.799-0.176,1.736-0.48,2.519
		c-0.493,1.267-3.723,3.791-1.679,6.236c0.345,0.412,1.771,1.001,2.398,0.84c1.539-0.397,0.745-3.641,2.639-3.958
		c0.029,1.232-1.163,2.901-0.479,4.197c0.387,0.734,2.091,1.215,2.998,0.72c0.839-0.458,0.474-2.083,1.559-2.519
		c0.699,0.5,1.047,1.352,1.2,2.398c1.522,0.819,3.126-0.382,4.797,0.36c0.588-0.611,0.37-2.028,1.199-2.398
		c0.156-3.194-6.003-6.38-6.116-1.319c-0.527-1.992-2.289-3.054-4.798-2.398c0.32-1.357,2.397-1.971,3.958-1.319
		c0.704-0.575,1.207-1.352,2.039-1.799c-0.831-1.549-4.02-1.329-5.877-0.84c1.819-1.459,4.749-1.807,7.796-2.039
		c-0.906-1.001-3.192-1.166-4.798-1.079c-0.247-10.044-3.993-19.071-1.559-29.263c-0.153-0.509-0.392,0.111-0.84,0
		c0.129-0.591,0.518-0.922,0.6-1.56c-0.015-0.265-0.509-0.051-0.72-0.12c0.439-0.88,0.933-1.706,1.319-2.638
		c-1.92-1.638-2.338-4.778-3.478-7.196c-2.315,1.273-1.521,4.141-1.919,6.956c-0.073,0.516-0.412,1.024-0.479,1.559
		c-0.472,3.728,0.604,7.999-0.96,11.034c-0.415-2.982-0.529-5.776-0.6-9.115c-0.025-1.229,0.332-3.49-0.12-4.438
		c-0.334-0.701-2.831-1.153-3.598-1.438c-1.443-0.538-2.304-0.979-3.478-1.44c-1.675,4.187-6.14,7.07-8.875,11.514
		c-1.289,2.094-2.816,4.134-4.438,5.756c-2.626,2.626-5.535,4.574-6.956,8.275c-0.735,1.916-1.197,4.238-1.319,6.236
		c-0.113,1.854-0.334,4.614,0.479,6.597c0.222,0.538,0.85,0.799,1.199,1.319c1.022,1.518,1.24,3.54,1.2,5.876
		c-2.152,0.426-4.471,1.574-6.477,1.68c-0.915,0.048-1.809-0.521-2.879-0.48c-0.567,0.022-1.099,0.512-1.559,0.6
		c-1.515,0.291-2.219-0.484-3.958-0.719c-1.409-0.19-3.13,0.526-4.197-0.96c0.129-2.139,0.431-4.271,1.439-5.757
		c0.473-0.696,1.659-1.134,2.038-1.919c1.845-3.814,1.643-9.321,3.238-14.031c0.213,3.348-0.467,5.785-0.959,8.875
		c-0.26,1.633-0.303,5.221-1.079,6.116c-0.487,0.561-1.45,0.802-2.039,1.439c-1.215,1.312-1.792,2.981-1.199,4.797
		c0.877,0.038,0.608-1.07,1.319-1.199c0.044,0.595-0.181,1.46,0.359,1.559c1.234-0.021,0.756-1.445,0.96-2.158
		c0.338-1.186,1.592-2.003,1.799-3.118c0.337,0.913-2.361,6.449,0.48,6.116c0.841-0.099,0.729-0.995,1.079-1.799
		c0.705,0.055,0.281,1.237,0.84,1.438c1.401-0.38,1.997-0.239,3.478,0c1.004-2.029-0.175-5.342-1.319-5.996
		c0.687-0.776,2.32-0.592,3.358-0.24c0.092-1.025-1.553-1.314-2.518-1.679c-0.562-3.918-0.823-9.58,0-13.432
		c-2.936-1.186-4.16-7.896-2.519-11.873c0.833-2.019,3.527-3.463,3.958-5.877c0.741-4.158,0.41-9.062,0.72-13.672
		c0.254-3.797,1.926-7.175,2.398-10.074c0.208-1.278,0.029-2.377,0.12-3.478c0.808-9.864,1.141-15.77,5.756-21.227
		c0.618-0.731,1.758-1.091,2.279-1.919c0.78-1.239,0.974-3.289,1.679-4.558c2.166-3.896,5.986-6.176,10.074-8.275
		c6.658-3.419,12.191-6.942,22.787-6.476c4.605,0.203,8.999,2.4,12.353,0c-2.126,2.31-4.237,5.273-6.236,8.395
		c-0.641,1.001-1.212,2.338-1.919,3.118c-1.45,1.599-2.872,2.58-3.958,4.197c-2.643,3.936-4.438,9.052-5.757,14.632
		c-0.247,1.047-0.275,2.368-0.719,3.358c-0.783,1.747-2.22,3.167-3.119,4.797c-1.444,2.617-2.941,6.508-2.038,10.913
		c1.361-6.633,3.796-12.194,8.155-15.831c0.746,3.419,0.715,6.455,2.038,9.235c1.106,2.324,2.771,4.173,2.999,6.836
		c0.116,1.365-0.453,2.632-0.36,4.077c0.028,0.432,0.315,0.873,0.36,1.199c0.288,2.141-1.069,3.335-1.08,5.637
		c3.051-3.386,9.156-4.307,9.595-10.434c0.479-6.675-1.925-12.136-1.199-19.668c2.516,2.35,3.54,6.453,5.277,9.954
		c2.838,5.722,6.8,11.288,15.71,9.115c-8.853,0.575-9.609-7.977-10.434-15.83c1.781,0.949,2.405,3.007,3.718,4.438
		c1.324,1.442,2.649,2.701,4.798,3.358c-0.386-1.012,0.211-1.164-0.24-2.279c0.28,0.037,0.495,0.235,0.72,0
		c-0.107-3.04,0.161-5.895-0.84-8.275c-1.589-3.777-6.219-6.633-7.315-11.273c-0.509-2.151-0.015-4.725,0.959-6.956
		c0.391,1.976,0.233,5.01,0.96,6.956c1.118,2.998,4.65,5.61,7.075,8.035c3.823,3.822,8.067,8.875,15.111,6.356
		c-4.861,0.034-9.284-1.219-10.793-4.917c1.936-0.076,4.594,0.208,5.637-1.079c-0.262-0.498-1.47-0.05-1.8-0.48
		c0.779-0.501,1.934-0.625,2.519-1.319c-0.18-0.436-0.621,0.01-1.079-0.24c1.286-1.481,3.123-3.972,1.56-5.997
		c-1.124-1.454-3.792-1.763-5.397-2.278c-6.058-1.944-10.823-5.85-10.313-14.032c0.117-1.884,0.48-3.176,0.839-5.277
		c-4.948,1.527-5.628,7.324-7.675,11.753c-0.447-0.353-0.453-1.146-0.6-1.799c-0.901,0.418-0.402,2.236-0.84,3.118
		c-0.229-0.612-0.384-1.295-0.36-2.159c-0.831,0.367-0.325,2.073-0.6,2.998c-0.354-0.245-0.315-0.884-0.6-1.199
		c-0.544,0.839,0.135,2.168-0.239,3.118c-1.26-2.689-1.234-6.916-0.36-9.954c-3.915,1.841-4.774,6.739-5.876,11.393
		c-0.757-10.26,5.162-15.736,10.793-20.388c0.439,0.281,0.994,0.445,1.559,0.6c-0.881-2.135-3.928-4.029-5.037-6.356
		c-1.171-2.457,1.163-3.892,2.639-5.397c1.151-1.174,2.04-2.074,3.118-3.238c2.952-3.186,5.558-6.942,11.513-6.596
		c1.26,0.073,2.483,0.722,3.479,0.72c1.105-0.002,2.681-0.952,4.077-1.439C101.354,0.435,103.113-0.22,105.419,0.071z
		 M104.819,17.701c0.761,0.001,1.067-0.451,1.679-0.6c-0.284-0.435-0.456-0.983-0.96-1.199
		C105.252,16.455,104.792,16.834,104.819,17.701z M121.729,29.214c-2.83,2.21-4.347,8.101-5.637,10.914
		c7.189,0.365,4.24-10.333,10.793-10.434c1.802-0.028,2.87,1.066,4.198,1.319C129.299,28.26,124.844,26.782,121.729,29.214z
		 M51.33,51.761c3.163-6.831,6.696-13.292,11.394-18.589c0.121-0.001,0.15-0.21,0-0.24C57.124,37.327,53.142,43.978,51.33,51.761z
		 M21.588,63.394c-0.089,0.191-0.588-0.027-0.48,0.36c0.709,6.849,7.885,8.503,6.717,16.43c-0.268-0.253-0.331-0.709-0.72-0.839
		c-0.584,3.453-5.727,2.349-7.556,4.557c0.248,0.071,0.788-0.148,0.839,0.12c-0.586,0.453-1.409,0.669-2.158,0.959
		c-0.081,0.562,1.013-0.053,0.959,0.48c-0.444,0.234-0.934,0.425-1.319,0.72c0.039,0.281,0.19,0.45,0.12,0.839
		c-1.012,1.713-1.06,3.711-1.438,5.877c-0.624,3.558-1.914,6.861-2.159,10.674c1.496-0.063,2.081-1.037,3.358-1.319
		c0.096,0.416-0.179,0.461-0.12,0.84c1.153-0.098,1.878-1.225,2.758-1.2c-0.036,0.283-0.416,0.224-0.359,0.601
		c2.628-0.497,4.166-2.036,5.877-3.599c2.08-1.899,4.811-5.36,6.236-7.556c1.085-1.671,1.284-6.302,3.238-6.836
		c3.725-1.018,4.57,3.434,8.755,2.759c1.014-2.304,1.681-4.955,2.278-7.676c-0.534-0.635-1.077-0.804-1.559-1.319
		c-1.037-1.111-1.037-2.63-1.799-3.837c-0.925-1.468-3.221-0.757-5.276-1.2c-0.09-0.369,0.329-0.23,0.239-0.6
		c-0.706-0.013-1.522,0.084-1.919-0.24c0.045-0.395,0.638-0.242,0.6-0.719c-4.255,0.009-1.889-8.449-2.158-11.993
		c-0.312-4.089-2.853-5.769-3.358-8.395c-0.451-0.091-0.083,0.637-0.6,0.479c-0.073-0.287,0.15-0.87-0.12-0.96
		c-0.12,0.16-0.197,0.362-0.359,0.48c-0.38-2.886,1.837-4.779,1.919-7.196C26.149,47.197,21.206,53.651,21.588,63.394z M51.09,52.36
		C51.169,52.439,51.04,52.31,51.09,52.36L51.09,52.36z M68.12,125.757c0.948,1.411,2.621,2.097,3.958,3.118
		C72.388,126.824,70.247,124.973,68.12,125.757z M121.609,136.072c0.204-2.129-0.392-4.481-2.998-4.197
		C119.26,133.623,119.041,136.242,121.609,136.072z"/>
</g>
<g id="Layer_1">
</g>
</svg>
