<?xml version="1.0" encoding="iso-8859-1"?>
<!-- Generator: Adobe Illustrator 19.2.0, SVG Export Plug-In . SVG Version: 6.00 Build 0)  -->
<svg version="1.1" xmlns="http://www.w3.org/2000/svg" xmlns:xlink="http://www.w3.org/1999/xlink" x="0px" y="0px"
	 viewBox="0 0 87.112 26.492" style="enable-background:new 0 0 87.112 26.492;" xml:space="preserve">
<g id="The_x5F_McBee_x5F_Company">
	<path style="fill-rule:evenodd;clip-rule:evenodd;" d="M30.374,0.072c4.528-0.06,9.455-0.07,13.871,0.156
		c0.17,0.904,0.17,2.472,0,3.377c-1.93,0.312-4.6-0.055-6.754,0.156c-0.371,1.416-0.195,2.947-0.155,4.468
		c0.113,4.361-0.234,9.394,0,14.183c0.855,0.41,2.155,0.26,3.377,0.26c1.251,0,2.514-0.092,3.481,0.156
		c0.171,0.915,0.171,2.514,0,3.429c-1.419,0.279-2.947,0.156-4.468,0.156c-4.48,0-9.078-0.111-13.456-0.207
		c-0.256-0.856-0.249-2.676,0-3.533c2.009-0.359,4.709,0.253,6.65-0.208c0.111-5.861,0.289-12.409,0-18.183
		c-0.464,0.252-0.617,0.82-0.831,1.246c-0.677,1.347-1.268,2.801-1.922,4.208c-0.868,1.864-1.725,3.737-2.598,5.611
		c-1.312,2.816-2.601,5.631-3.896,8.416c-0.425,0.914-0.716,1.938-1.402,2.702c-0.486-0.254-0.583-0.859-0.779-1.299
		c-1.447-3.239-3.16-6.519-4.676-9.767c-1.531-3.281-3.043-6.572-4.676-9.818c-0.207-0.414-0.417-0.938-0.831-1.195
		c-0.28,1.394-0.156,2.911-0.156,4.416c0,4.457-0.043,9.204,0.052,13.611c0.911,0.364,2.252,0.208,3.481,0.208
		c1.246,0,2.513-0.084,3.533,0.104c0.171,0.932,0.171,2.549,0,3.481c-5.761,0.172-12.264,0.173-18.079,0
		c-0.171-0.932-0.171-2.549,0-3.481c2.088-0.344,4.699,0.156,6.702-0.26c0.184-6.152,0.15-12.621,0.052-18.65
		c-0.489-0.27-1.145-0.156-1.714-0.156c-0.607,0-1.197-0.034-1.767-0.052C2.308,3.57,1.136,3.824,0.138,3.501
		C0.02,2.614-0.145,0.844,0.242,0.124C4.369-0.082,9.55,0.019,13.801,0.072c0.894,1.32,1.436,2.833,2.13,4.312
		c1.697,3.613,3.412,7.187,5.144,10.962c0.212,0.462,0.736,2.077,1.143,2.078c0.364,0,1.01-1.777,1.143-2.078
		c0.996-2.254,1.998-4.333,2.961-6.598c0.642-1.507,1.306-2.982,1.975-4.416C28.971,2.881,29.524,1.388,30.374,0.072z"/>
	<path style="fill-rule:evenodd;clip-rule:evenodd;" d="M84.403,13.215c0.348,0.868,0.97,1.128,1.403,1.766
		c1.305,1.921,1.893,4.915,0.52,7.429c-0.238,0.435-0.571,0.899-0.883,1.299c-0.561,0.716-0.91,1.337-1.61,1.818
		c-1.783,1.224-5.03,0.935-8.104,0.935c-6.204,0-11.876,0.032-17.819,0c-2.924-0.016-6.052,0.115-8.728-0.156
		c-0.306-0.903-0.152-2.626-0.052-3.481c2.25-0.263,4.801,0.032,7.169-0.156c0.279-0.691,0.208-1.48,0.208-2.234
		c0-5.16,0.061-11.144-0.104-16.52c-2.008-0.457-5.16,0.145-7.221-0.312c-0.12-0.887-0.282-2.654,0.104-3.377
		c0.038-0.049,0.094-0.079,0.156-0.104c7.438-0.002,15.987,0.052,23.845,0.052c4.05,0,8.412-0.474,10.754,1.247
		c1.692,1.243,3.202,3.634,2.962,6.753C86.819,10.543,85.517,11.606,84.403,13.215z M62.947,11.189
		c4.217,0,8.242,0.052,12.468,0.052c2.712,0,5.198,0.235,6.546-0.936c1.892-1.644,1.276-5.033-0.987-6.13
		c-1.21-0.587-3.583-0.364-5.455-0.364c-5.015,0-10.049-0.073-14.806,0c-0.367,0.921-0.208,2.29-0.208,3.533
		c0,1.291-0.083,2.626,0.104,3.688C61.334,11.309,62.161,11.189,62.947,11.189z M65.441,22.722c3.224,0,6.428,0.052,9.819,0.052
		c1.728,0,3.553,0.232,4.987-0.052c2.363-0.467,3.662-3.369,2.494-5.559c-0.351-0.658-0.98-1.255-1.714-1.611
		c-1.072-0.519-2.933-0.467-4.728-0.467c-5.381,0-10.411-0.167-15.637,0.052c-0.394,0.976-0.156,2.331-0.156,3.637
		c0,1.304-0.083,2.679,0.104,3.793C62.114,22.848,63.76,22.722,65.441,22.722z"/>
	<path style="fill-rule:evenodd;clip-rule:evenodd;" d="M54.479,11.293c-0.897,0.305-2.521,0.137-3.584,0.104
		c-0.613-0.885-0.935-1.685-1.767-2.182c-1.094-0.652-2.777-0.689-3.792-0.207c-2.085,0.988-2.992,4.212-1.767,6.701
		c0.792,1.608,3.24,2.794,5.351,1.611c0.973-0.447,1.338-1.502,2.026-2.234c1.06-0.029,2.693-0.206,3.584,0.103
		c-0.139,1.608-1.016,3.024-2.13,4.001c-2.062,1.809-6.218,2.584-9.091,0.987c-2.15-1.195-3.948-4.094-3.948-7.065
		c0-1.658,0.568-3.135,1.299-4.26C41.144,8.107,42,7.174,42.738,6.618c1.497-1.128,4.726-1.624,7.066-0.831
		C52.145,6.579,54.169,8.604,54.479,11.293z"/>
</g>
<g id="Layer_1">
</g>
</svg>
