<?xml version="1.0" encoding="iso-8859-1"?>
<!-- Generator: Adobe Illustrator 19.2.0, SVG Export Plug-In . SVG Version: 6.00 Build 0)  -->
<svg version="1.1" xmlns="http://www.w3.org/2000/svg" xmlns:xlink="http://www.w3.org/1999/xlink" x="0px" y="0px"
	 viewBox="0 0 120.204 75.812" style="enable-background:new 0 0 120.204 75.812;" xml:space="preserve">
<g id="The_x5F_Australian_x5F_Ballet">
	<path style="fill-rule:evenodd;clip-rule:evenodd;" d="M82.375,0.042c11.113-0.176,20.768,5.055,27.106,11.394
		c6.212,6.212,11.271,15.87,10.674,27.586c-0.604,11.868-5.715,20.45-12.234,26.507c-4.648,4.319-11.186,8.421-19.31,9.715
		c-2.72,0.433-6.633,0.966-8.755,0.12c-4.232-1.688-3.804-8.299-0.12-9.955c2.02-0.908,4.57-0.526,6.597-0.839
		c6.281-0.972,10.871-3.872,14.753-7.557c4.848-4.602,8.908-11.673,8.156-21.589c-0.734-9.683-5.88-15.908-12.233-20.27
		c-3.033-2.083-7.259-3.753-11.994-4.198c-8.664-0.814-16.086,2.532-20.75,6.716c-4.118,3.695-7.183,7.732-8.635,14.153
		c-0.585,2.586-0.032,7.18-1.919,9.475c-2.536,3.085-8.064,1.893-9.475-1.319c-1.054-2.401-0.264-6.158,0.24-8.995
		c0.563-3.175,1.364-5.765,2.398-8.036C52.576,10.423,64.895,0.318,82.375,0.042z"/>
	<path style="fill-rule:evenodd;clip-rule:evenodd;" d="M35.958,0.162c-0.019,0.001,0.051-0.115,0.12-0.12
		c5.238-0.384,8.611,1.867,7.796,6.477c-0.246,1.389-1.371,3.352-3.478,4.078c-1.398,0.482-2.993,0.233-4.318,0.36
		c-9.476,0.906-16.307,5.923-20.629,11.873c-5.132,7.064-5.607,18.045-2.159,26.267c3.127,7.456,9.985,12.937,18.111,14.992
		c15.827,4.003,27.944-5.461,32.264-15.712c0.808-1.917,1.501-4.47,1.799-6.477c0.309-2.078-0.091-4.829,1.079-6.956
		c1.976-3.591,8.457-3.202,9.955,0.719c1.368,3.581-0.131,9.561-1.08,12.594c-3.381,10.809-9.967,18.539-19.67,23.388
		c-6.343,3.17-15.696,4.882-23.508,3.718c-7.914-1.179-14.705-4.877-19.55-9.116c-4.919-4.303-9.101-9.773-11.274-17.511
		c-2.14-7.62-1.882-17.367,0.959-24.588C7.192,11.913,19.741,1.03,35.958,0.162z"/>
</g>
<g id="Layer_1">
</g>
</svg>
