<?xml version="1.0" encoding="iso-8859-1"?>
<!-- Generator: Adobe Illustrator 19.2.0, SVG Export Plug-In . SVG Version: 6.00 Build 0)  -->
<svg version="1.1" xmlns="http://www.w3.org/2000/svg" xmlns:xlink="http://www.w3.org/1999/xlink" x="0px" y="0px"
	 viewBox="0 0 78.531 43.536" style="enable-background:new 0 0 78.531 43.536;" xml:space="preserve">
<g id="the_x5F_american_x5F_library_x5F_association_x5F_chicago">
	<path style="fill-rule:evenodd;clip-rule:evenodd;" d="M60.731,0.051c2.279-0.466,3.326,2.406,1.885,3.717
		c-0.682,0.684-2.342,0.65-3.037,0C58.432,2.601,59.171,0.202,60.731,0.051z"/>
	<path style="fill-rule:evenodd;clip-rule:evenodd;" d="M41.046,1.884c0.09,1.699-0.795,2.822-2.355,2.723
		c-2.137-0.139-2.566-3.075-0.943-4.084C39.008-0.262,40.79,0.513,41.046,1.884z"/>
	<path style="fill-rule:evenodd;clip-rule:evenodd;" d="M16.964,0.47c0.682-0.171,1.75,0.39,2.041,0.733
		c1.336,1.578-0.309,4.25-2.512,3.455C14.665,3.999,14.633,0.869,16.964,0.47z"/>
	<path style="fill-rule:evenodd;clip-rule:evenodd;" d="M58.532,5.39c1.639-0.127,2.955,1.625,2.146,3.246
		c-0.834,1.674-3.533,1.474-4.031-0.366C56.274,6.891,56.967,5.513,58.532,5.39z"/>
	<path style="fill-rule:evenodd;clip-rule:evenodd;" d="M38.846,5.495c1.639-0.099,2.939,1.792,1.99,3.456
		c-1.027,1.801-4.055,1.028-4.031-1.257C36.817,6.566,37.669,5.567,38.846,5.495z"/>
	<path style="fill-rule:evenodd;clip-rule:evenodd;" d="M63.192,5.495c1.387-0.174,2.685,0.868,2.512,2.514
		c-0.221,2.095-3.053,2.472-4.031,0.838C60.889,7.536,61.505,5.708,63.192,5.495z"/>
	<path style="fill-rule:evenodd;clip-rule:evenodd;" d="M14.503,5.705c1.246-0.227,2.459,0.747,2.617,1.938
		c0.123,0.911-0.369,2.075-1.203,2.408c-2.182,0.869-3.957-1.824-2.723-3.508C13.419,6.235,14.026,5.792,14.503,5.705z"/>
	<path style="fill-rule:evenodd;clip-rule:evenodd;" d="M19.477,5.758c1.197-0.176,2.234,0.684,2.408,1.728
		c0.201,1.222-0.656,2.63-1.832,2.723c-2.053,0.161-3.057-2.417-1.887-3.77C18.424,6.142,18.94,5.836,19.477,5.758z"/>
	<path style="fill-rule:evenodd;clip-rule:evenodd;" d="M56.7,10.94c0.346-0.031,1.064,0.087,1.361,0.262
		c1.836,1.084,0.756,4.938-2.043,3.927c-0.932-0.337-1.715-1.615-1.15-2.932C55.079,11.705,55.733,11.028,56.7,10.94z"/>
	<path style="fill-rule:evenodd;clip-rule:evenodd;" d="M37.485,14.762c-1.238-1.436-0.246-3.598,1.361-3.769
		c1.078-0.115,2.004,0.477,2.305,1.256C42.026,14.52,39.174,16.323,37.485,14.762z"/>
	<path style="fill-rule:evenodd;clip-rule:evenodd;" d="M66.227,11.045c0.805,0.356,1.578,0.923,1.623,1.938
		c0.039,0.872-0.545,1.968-1.256,2.251c-2.109,0.842-3.813-1.473-2.826-3.193C64.157,11.36,64.946,10.959,66.227,11.045z"/>
	<path style="fill-rule:evenodd;clip-rule:evenodd;" d="M12.776,11.202c1.562-0.184,3.127,1.36,2.355,3.037
		c-0.549,1.191-2.471,1.869-3.613,0.681C10.321,13.673,11.112,11.498,12.776,11.202z"/>
	<path style="fill-rule:evenodd;clip-rule:evenodd;" d="M21.465,15.6c-2.185-0.501-1.957-4.251,0.315-4.399
		c1.176-0.076,2.293,0.793,2.408,1.832C24.346,14.469,23.245,15.806,21.465,15.6z"/>
	<path style="fill-rule:evenodd;clip-rule:evenodd;" d="M36.962,19.369c-0.15-1.478,0.512-2.142,1.311-2.67
		c1.502-0.559,2.943,0.585,3.035,1.885c0.094,1.308-1.035,2.595-2.461,2.461C37.868,20.952,37.405,20.301,36.962,19.369z"/>
	<path style="fill-rule:evenodd;clip-rule:evenodd;" d="M56.803,18.218c0.633,3.12-3.818,3.577-4.293,1.151
		c0.004-0.434-0.021-0.895,0.053-1.256c0.404-0.671,0.979-1.472,1.885-1.571C55.596,16.416,56.467,17.265,56.803,18.218z"/>
	<path style="fill-rule:evenodd;clip-rule:evenodd;" d="M69.946,19.526c-0.334,0.499-0.621,1.062-1.152,1.309
		c-1.012,0.47-2.379-0.093-2.828-0.89c-1.035-1.841,0.789-4.031,2.723-3.298C69.604,16.994,70.186,17.999,69.946,19.526z"/>
	<path style="fill-rule:evenodd;clip-rule:evenodd;" d="M24.188,17.013c2.961-0.297,3.045,4.683-0.156,4.398
		c-1.938-0.172-2.615-3.041-0.996-4.083C23.358,17.12,23.723,17.059,24.188,17.013z"/>
	<path style="fill-rule:evenodd;clip-rule:evenodd;" d="M10.419,17.118c3.412-0.69,3.24,5.159-0.262,4.24
		C8.104,20.969,8.255,17.264,10.419,17.118z"/>
	<path style="fill-rule:evenodd;clip-rule:evenodd;" d="M69.473,26.333c-2.252-0.584-1.963-4.206,0.42-4.346
		C72.77,21.818,72.964,26.798,69.473,26.333z"/>
	<path style="fill-rule:evenodd;clip-rule:evenodd;" d="M36.962,23.976c0.391-0.854,0.859-1.675,1.885-1.78
		c3.33-0.341,3.064,4.849-0.053,4.45C37.647,26.5,36.85,25.621,36.962,23.976z"/>
	<path style="fill-rule:evenodd;clip-rule:evenodd;" d="M52.092,22.301c1.314-0.246,2.494,0.746,2.564,1.886
		c0.168,2.685-3.719,3.241-4.344,0.89C49.981,23.827,50.692,22.584,52.092,22.301z"/>
	<path style="fill-rule:evenodd;clip-rule:evenodd;" d="M26.178,22.406c2.934-0.196,3.065,4.186,0.262,4.345
		C23.641,26.91,23.34,22.595,26.178,22.406z"/>
	<path style="fill-rule:evenodd;clip-rule:evenodd;" d="M8.219,22.772c1.287-0.127,2.311,0.677,2.461,1.728
		c0.17,1.167-0.627,2.074-1.15,2.356c-1.734,0.932-3.85-0.925-3.037-2.775C6.772,23.443,7.325,22.994,8.219,22.772z"/>
	<path style="fill-rule:evenodd;clip-rule:evenodd;" d="M60.835,27.798c1.48-0.293,2.779,0.937,2.619,2.461
		c-0.174,1.639-2.402,2.544-3.717,1.309C58.579,30.48,59.147,28.103,60.835,27.798z"/>
	<path style="fill-rule:evenodd;clip-rule:evenodd;" d="M66.594,27.798c1.588-0.186,2.812,1.257,2.355,2.827
		c-0.35,1.201-2.229,2.05-3.508,1.048C63.977,30.523,64.762,28.013,66.594,27.798z"/>
	<path style="fill-rule:evenodd;clip-rule:evenodd;" d="M71.62,27.798c-0.01-0.044,0.021-0.049,0.053-0.052
		c3.022-0.652,3.256,3.864,0.943,4.346c-2.98,0.523-3.324-3.759-1.1-4.294C71.549,27.798,71.585,27.798,71.62,27.798z"/>
	<path style="fill-rule:evenodd;clip-rule:evenodd;" d="M39.214,27.903c1.158-0.048,2.264,0.841,2.199,2.251
		c-0.031,0.667-0.561,1.569-1.152,1.885c-1.588,0.847-3.676-0.551-3.193-2.461C37.309,28.622,38.042,27.951,39.214,27.903z"/>
	<path style="fill-rule:evenodd;clip-rule:evenodd;" d="M52.407,30.625c-0.334,0.783-0.939,1.296-1.676,1.676
		c-0.943,0.071-1.527-0.218-2.041-0.576c-1.676-1.707,0.219-4.6,2.408-3.769C51.926,28.269,52.546,29.212,52.407,30.625z"/>
	<path style="fill-rule:evenodd;clip-rule:evenodd;" d="M53.401,30.52c-0.027-1.577,0.791-2.641,2.199-2.67
		c2.219-0.046,3.02,3.021,1.047,4.136C55.366,32.71,53.829,31.944,53.401,30.52z"/>
	<path style="fill-rule:evenodd;clip-rule:evenodd;" d="M28.063,28.06c1.199-0.176,2.101,0.424,2.408,1.203
		c0.791,2.024-1.354,3.896-3.299,2.723C25.819,31.069,26.128,28.11,28.063,28.06z"/>
	<path style="fill-rule:evenodd;clip-rule:evenodd;" d="M6.337,28.217c1.375-0.185,2.764,1.114,2.303,2.775
		c-0.662,2.383-4.994,1.927-4.24-1.152C4.612,28.968,5.327,28.352,6.337,28.217z"/>
	<path style="fill-rule:evenodd;clip-rule:evenodd;" d="M11.624,28.217c1.463-0.339,2.728,0.824,2.67,2.199
		c-0.035,0.825-0.701,1.706-1.361,1.989c-1.23,0.528-2.914-0.264-3.037-1.78C9.792,29.329,10.52,28.611,11.624,28.217z"/>
	<path style="fill-rule:evenodd;clip-rule:evenodd;" d="M17.016,28.217c1.566-0.066,2.637,0.819,2.512,2.618
		c-0.264,0.592-0.57,1.167-1.15,1.466c-1.281,0.66-2.854-0.159-3.143-1.361C15.161,29.363,15.813,28.515,17.016,28.217z"/>
	<path style="fill-rule:evenodd;clip-rule:evenodd;" d="M22.512,32.51c-1.439-0.187-2.146-2.141-1.309-3.507
		c1.213-1.742,4.465-0.405,3.928,1.832C24.891,31.825,23.964,32.621,22.512,32.51z"/>
	<path style="fill-rule:evenodd;clip-rule:evenodd;" d="M73.924,33.243c2.957-0.488,3.219,3.816,0.838,4.397
		c-0.842,0.057-1.355-0.216-1.834-0.523C71.753,36.082,72.212,33.337,73.924,33.243z"/>
	<path style="fill-rule:evenodd;clip-rule:evenodd;" d="M37.067,36.227c-0.137-1.733,0.824-2.807,2.146-2.827
		c1.188-0.019,2.197,1.028,2.199,2.199C41.417,38.222,37.628,38.551,37.067,36.227z"/>
	<path style="fill-rule:evenodd;clip-rule:evenodd;" d="M29.319,33.871c2.459-1.458,4.191,1.597,2.879,3.299
		c-0.318,0.412-1.023,0.832-1.779,0.785C28.477,37.834,27.913,35.097,29.319,33.871z"/>
	<path style="fill-rule:evenodd;clip-rule:evenodd;" d="M4.346,33.609c1.146-0.096,2.221,0.914,2.252,2.094
		c0.057,2.262-2.955,3.189-4.031,1.361C1.669,35.543,2.708,33.746,4.346,33.609z"/>
	<path style="fill-rule:evenodd;clip-rule:evenodd;" d="M55.704,38.687c0.783-0.032,1.982,0.619,2.148,1.729
		c0.123,0.831-0.281,1.906-1.049,2.355c-1.154,0.676-2.889,0.109-3.244-1.257C53.184,40.078,54.327,38.745,55.704,38.687z"/>
	<path style="fill-rule:evenodd;clip-rule:evenodd;" d="M59.893,39.159c1.4-1.232,3.652-0.01,3.664,1.675
		c0.01,1.371-1.424,2.655-3.035,2.095C59.204,42.47,58.631,40.32,59.893,39.159z"/>
	<path style="fill-rule:evenodd;clip-rule:evenodd;" d="M67.485,43.033c-1.223,0.082-2.123-0.447-2.461-1.256
		c-0.85-2.035,1.314-3.895,3.088-2.88C69.596,39.746,69.569,42.58,67.485,43.033z"/>
	<path style="fill-rule:evenodd;clip-rule:evenodd;" d="M75.913,38.74c3.615-0.663,3.432,5.161-0.209,4.24
		c-1.832-0.471-1.955-3.76,0.105-4.24C75.844,38.74,75.878,38.74,75.913,38.74z"/>
	<path style="fill-rule:evenodd;clip-rule:evenodd;" d="M31.936,38.845c-0.01-0.044,0.02-0.049,0.053-0.053
		c1.672-0.156,2.646,0.92,2.67,2.146c0.023,1.169-1.025,2.303-2.199,2.304C30.108,43.245,29.835,39.43,31.936,38.845z"/>
	<path style="fill-rule:evenodd;clip-rule:evenodd;" d="M38.794,38.845c3.342-0.724,3.432,4.572,0.314,4.346
		c-0.949-0.069-2.109-0.855-2.041-2.356C37.114,39.834,37.907,39.142,38.794,38.845z"/>
	<path style="fill-rule:evenodd;clip-rule:evenodd;" d="M44.397,38.845c1.521-0.289,2.803,1.155,2.461,2.618
		c-0.334,1.425-2.359,2.248-3.613,1.151C42.124,41.634,42.516,39.018,44.397,38.845z"/>
	<path style="fill-rule:evenodd;clip-rule:evenodd;" d="M48.428,42.3c-0.156-0.502-0.348-0.672-0.367-1.151
		c-0.121-2.992,4.564-3.095,4.346,0C52.268,43.094,49.624,43.848,48.428,42.3z"/>
	<path style="fill-rule:evenodd;clip-rule:evenodd;" d="M1.676,39.159c1.359-0.106,2.467,0.535,2.617,1.675
		c0.148,1.132-0.525,2.331-1.517,2.618c-1.324,0.383-2.811-0.575-2.775-2.199C0.026,40.108,0.719,39.472,1.676,39.159z"/>
</g>
<g id="Layer_1">
</g>
</svg>
