<?xml version="1.0" encoding="iso-8859-1"?>
<!-- Generator: Adobe Illustrator 19.2.0, SVG Export Plug-In . SVG Version: 6.00 Build 0)  -->
<svg version="1.1" xmlns="http://www.w3.org/2000/svg" xmlns:xlink="http://www.w3.org/1999/xlink" x="0px" y="0px"
	 viewBox="0 0 100.303 112.589" style="enable-background:new 0 0 100.303 112.589;" xml:space="preserve">
<g id="theglobe_x5F_com">
	<path style="fill-rule:evenodd;clip-rule:evenodd;" d="M0,112.589c4.12-8.856,8.304-17.574,12.713-26.627
		c0.488-1.002,1.8-2.938,1.799-3.718c0-0.634-1.318-1.857-1.919-2.639c-4.548-5.92-7.984-12.682-9.715-21.35
		C0.86,48.152,2.581,36.641,6.477,28.632C13.845,13.481,27.666,1.347,49.055,0.086c19.594-1.154,35.848,9.428,43.539,22.189
		c4.046,6.715,7.276,15.215,7.676,25.307c0.386,9.755-2.605,19.022-6.597,26.027c-4.242,7.445-9.298,12.557-16.312,16.911
		c-3.393,2.106-7.205,4.132-11.274,5.277c-4.194,1.18-8.588,2.152-13.193,3.358C35.226,103.784,18.45,107.883,0,112.589z
		 M32.503,23.595c4.561,2.235,9.743,3.85,16.191,4.198c0.12-7.037,0.36-15.232-0.12-22.069C39.975,8.437,35.74,15.517,32.503,23.595
		z M54.212,6.083c0.08,7.197-0.16,14.712,0.12,21.709c4.791-0.32,8.855-1.155,12.713-2.639c0.737-0.283,3.208-1.138,3.358-1.799
		c0.236-1.037-1.887-4.575-2.398-5.517c-3.031-5.582-7.335-10.516-13.553-12.114C54.284,5.755,54.315,5.987,54.212,6.083z
		 M73.882,17.718c0.361,0.757,1.047,2.906,1.679,2.998c0.58,0.085,2.23-1.399,2.759-1.799c1.052-0.796,1.562-1.605,2.518-2.159
		c-3.362-3.394-7.446-6.067-12.353-7.916C70.117,11.112,72.362,14.529,73.882,17.718z M22.188,16.758
		c1.67,1.448,3.318,2.918,5.397,3.958c1.984-4.212,4.245-8.149,6.836-11.754C29.624,10.84,25.433,13.326,22.188,16.758z
		 M18.351,20.716C12.545,26.745,8.275,35.348,7.436,46.743c4.679,0.199,10.194,0.199,14.873,0c0.539-7.417,1.476-14.437,3.358-20.51
		C23.217,24.405,20.791,22.554,18.351,20.716z M84.677,20.596c-1.229,0.85-2.091,1.789-3.719,2.999
		c-0.803,0.597-3.381,1.814-3.598,2.639c-0.244,0.925,0.835,3.739,1.079,4.797c1.134,4.923,1.88,10.359,2.039,15.832
		c4.759-0.079,9.833,0.158,14.393-0.12C94.458,35.521,90.412,26.896,84.677,20.596z M27.826,46.743
		c6.677,0.279,13.873,0.04,20.75,0.12c0.239-4.292,0.355-9.374,0.12-13.553c-6.848-0.628-12.676-2.276-17.991-4.438
		C28.862,34.165,27.985,41.052,27.826,46.743z M54.332,33.19c-0.231,4.982-0.283,8.197-0.12,13.553c6.637,0.2,14.112,0.2,20.749,0
		c-0.066-4.657-0.629-9.415-1.559-13.793c-0.299-1.405-0.527-2.979-1.319-4.078C67.024,31.093,60.802,32.777,54.332,33.19z
		 M7.916,52.02c-0.08,0-0.16,0-0.24,0c0.54,11.255,4.905,19.723,10.915,25.907c2.098-2.061,4.714-3.603,7.076-5.398
		c-1.827-6.129-2.824-13.087-3.358-20.51C17.797,52.063,11.978,51.903,7.916,52.02z M27.826,52.14
		c0.253,6.583,1.181,12.492,2.759,17.751c5.308-2.209,11.235-3.796,18.11-4.438c-0.079-4.438,0.159-9.194-0.12-13.433
		C42.046,52.019,35.045,51.886,27.826,52.14z M54.092,52.14c0.1,4.969-0.175,9.75,0,13.313c6.454,0.573,12.657,2.138,17.751,4.438
		c1.769-5.072,2.977-12.06,2.998-17.751C68.584,51.86,61.084,51.794,54.092,52.14z M80.359,52.14
		c-0.318,7.182-1.587,14.388-3.478,20.39c2.592,1.647,4.838,3.638,7.436,5.277c5.608-6.465,9.694-14.454,10.555-25.667
		C91.359,51.818,84.047,51.742,80.359,52.14z M32.503,75.288c3.391,7.483,7.467,14.92,15.952,16.911
		c0.045-6.898,0.479-14.598,0-21.229C42.213,71.485,36.74,72.768,32.503,75.288z M53.972,71.33c0.08,6.957-0.159,14.232,0.12,20.989
		c8.575-2.499,12.797-9.352,15.952-17.271c-4.445-2.191-9.595-3.679-15.832-4.078C54.062,71.019,53.967,71.125,53.972,71.33z
		 M27.586,77.807c-2.529,1.913-6.293,4.034-8.036,6.476c-1.014,1.421-1.605,3.388-2.399,5.038
		c-2.479,5.152-4.992,9.762-7.196,15.112c11.115-2.518,21.811-5.455,32.624-8.276C35.744,91.878,30.94,85.567,27.586,77.807z
		 M74.841,77.927c-1.479,3.03-3.102,6.26-4.917,8.875c-0.574,0.827-1.504,1.535-1.56,2.519c4.358-2.079,8.629-4.245,11.754-7.556
		C78.564,80.281,77.058,78.749,74.841,77.927z"/>
</g>
<g id="Layer_1">
</g>
</svg>
