<?xml version="1.0" encoding="iso-8859-1"?>
<!-- Generator: Adobe Illustrator 19.2.0, SVG Export Plug-In . SVG Version: 6.00 Build 0)  -->
<svg version="1.1" xmlns="http://www.w3.org/2000/svg" xmlns:xlink="http://www.w3.org/1999/xlink" x="0px" y="0px"
	 viewBox="0 0 244.837 244.641" style="enable-background:new 0 0 244.837 244.641;" xml:space="preserve">
<g id="Thomas_x5F_Kolb">
	<path style="fill-rule:evenodd;clip-rule:evenodd;" d="M122.385,0.115c20.368-0.97,37.285,4.34,51.06,10.428
		c14.313,6.325,26.188,15.037,36.078,25.291c5.119,5.307,9.872,10.649,13.904,16.781c8.017,12.191,15.155,25.468,18.698,42.67
		c3.533,17.155,3.816,38.026-0.359,54.537c-8.304,32.831-25.431,55.858-49.742,72.995c-17.248,12.157-41.377,22.197-69.759,21.814
		c-38.372-0.517-65.937-15.936-86.42-35.719c-5.061-4.888-9.959-10.648-14.024-16.66c-11.817-17.478-22.14-40.521-21.814-69.759
		c0.214-19.218,4.208-36.491,10.788-50.102C24.147,44.769,44.342,23.77,72.044,10.902c10.552-4.901,22.383-8.428,35.719-10.068
		C112.387,0.265,117.087,0.367,122.385,0.115z M165.295,201.121c-11.482-0.187-21.453-4.173-28.767-9.349
		c-7.49-5.302-13.487-11.854-17.619-20.736c-3.906-8.395-6.891-20.281-3.835-31.643c2.632-9.791,8.91-16.925,16.78-21.455
		c8.251-4.749,21.006-6.394,30.325-1.318c7.567,4.122,14.027,13.058,13.425,24.691c-0.303,5.83-2.949,10.359-7.672,11.506
		c-6.335,1.54-10.101-2.966-10.428-8.27c-0.15-2.446,0.39-4.497,0-6.353c-1.213-5.782-7.251-8.141-13.783-5.873
		c-6.46,2.242-11.801,8.21-11.627,16.9c0.326,16.27,10.857,28.026,24.212,32.243c16.75,5.289,34.604-2.437,44.349-9.23
		c11.197-7.806,19.544-18.553,23.853-33.201c4.615-15.693,1.823-35.76-2.518-49.383c-4.635-14.544-12.286-26.068-20.735-36.318
		c-8.487-10.294-19.497-18.548-32.123-24.811c-14.207-7.046-33.149-12.106-53.937-10.308c-7.38,0.639-14.18,1.821-20.736,3.716
		c-24.99,7.225-44.316,21.943-57.533,41.112c-9.057,13.136-15.613,28.631-17.979,47.584c-2.513,20.132,1.745,39.153,8.51,54.657
		c6.273,14.374,16.392,27.464,28.407,37.396c12.092,9.996,27.182,17.869,44.349,21.455c18.996,3.968,41.405,2.523,57.293-3.476
		c14.864-5.612,27.968-13.395,37.996-23.613c0.576-0.587,1.43-1.263,1.559-2.157C187.332,199.006,177.005,201.312,165.295,201.121z
		 M169.611,233.364c0.383,0.169,0.303-0.717,0.12-0.719C169.592,232.786,169.595,233.068,169.611,233.364z"/>
</g>
<g id="Layer_1">
</g>
</svg>
