<?xml version="1.0" encoding="iso-8859-1"?>
<!-- Generator: Adobe Illustrator 21.0.2, SVG Export Plug-In . SVG Version: 6.00 Build 0)  -->
<svg version="1.1" xmlns="http://www.w3.org/2000/svg" xmlns:xlink="http://www.w3.org/1999/xlink" x="0px" y="0px"
	 viewBox="0 0 16.086 15.907" style="enable-background:new 0 0 16.086 15.907;" xml:space="preserve">
<g id="Thornton">
	<path d="M0,0.005C5.361,0.002,10.722,0.011,16.083,0c-0.008,2.843-0.001,5.687-0.003,8.53c0.004,0.946-0.01,1.893,0.007,2.84
		c-2.298-0.002-4.595,0-6.892,0c0.005-2.279,0.004-4.558,0-6.837c0.766,0.019,1.533,0.013,2.298,0.003c0,1.515,0.001,3.029,0,4.543
		c0.764-0.001,1.528-0.001,2.292,0c-0.003-2.268-0.005-4.536,0-6.805c-3.589,0.002-7.176,0-10.765,0.001
		C2.785,2.272,2.55,2.283,2.316,2.269C2.33,3.791,2.317,5.313,2.321,6.836C1.548,6.833,0.775,6.835,0.002,6.835
		C0.002,4.558,0.006,2.282,0,0.005z"/>
	<path d="M4.58,4.536c0.775,0.01,1.551,0.01,2.326,0c-0.002,2.277,0.002,4.554-0.002,6.832c-1.529-0.001-3.059,0.006-4.588-0.004
		c0.012,0.75,0.003,1.5,0.004,2.249c4.587,0,9.175,0,13.762,0c-0.003,0.764-0.007,1.528,0.003,2.292
		c-5.36-0.001-10.721-0.005-16.081,0.002c-0.001-2.277,0.002-4.554-0.002-6.83C1.533,9.081,3.065,9.075,4.597,9.08
		C4.575,7.566,4.608,6.05,4.58,4.536z"/>
</g>
<g id="Layer_1">
</g>
</svg>
