<?xml version="1.0" encoding="iso-8859-1"?>
<!-- Generator: Adobe Illustrator 21.0.2, SVG Export Plug-In . SVG Version: 6.00 Build 0)  -->
<svg version="1.1" xmlns="http://www.w3.org/2000/svg" xmlns:xlink="http://www.w3.org/1999/xlink" x="0px" y="0px"
	 viewBox="0 0 14.885 11.25" style="enable-background:new 0 0 14.885 11.25;" xml:space="preserve">
<g id="Tia_x5F_Lola">
	<g>
		<g>
			<g>
				<circle cx="8.947" cy="6.13" r="0.572"/>
				<circle cx="5.95" cy="6.13" r="0.572"/>
				<g>
					<path d="M6.554,4.705C6.466,4.828,6.323,4.902,6.172,4.902c-0.15,0-0.293-0.074-0.382-0.197L5.539,4.886
						c0.147,0.204,0.383,0.325,0.633,0.325c0.25,0,0.487-0.122,0.633-0.325L6.554,4.705z"/>
					<path d="M8.724,5.211c0.25,0,0.487-0.122,0.633-0.325L9.106,4.705C9.018,4.828,8.875,4.902,8.724,4.902
						c-0.151,0-0.293-0.074-0.382-0.197L8.092,4.886C8.238,5.089,8.474,5.211,8.724,5.211z"/>
					<path d="M8.282,6.799L8.108,6.543C7.913,6.676,7.685,6.746,7.448,6.746c-0.237,0-0.465-0.07-0.66-0.203L6.615,6.799
						C6.861,6.967,7.15,7.056,7.448,7.056C7.747,7.056,8.035,6.967,8.282,6.799z"/>
					<path d="M11.148,6.168c-0.331-0.722-0.605-1.169-0.605-2.078c0-0.532,0.097-1.257-0.184-2.118C10.121,1.246,9.131,0,7.448,0
						c-1.682,0-2.673,1.246-2.91,1.972c-0.28,0.86-0.184,1.586-0.184,2.118c0,0.909-0.275,1.356-0.606,2.078
						c-0.367,0.803-0.322,1.86,0.284,2.414c0.511,0.467,1.553,0.722,2.333,0.102c0.223-0.177,0.464-0.478,0.464-0.723
						c0-0.133-0.047-0.191-0.187-0.239c-0.115-0.04-0.234-0.09-0.353-0.152C6.289,7.57,6.288,7.57,6.287,7.57h0
						C5.629,7.228,4.964,6.615,4.964,4.735c0-0.224,0.041-0.409,0.114-0.581c0.25-0.192,0.545-0.312,0.857-0.343
						c0.32-0.033,0.642,0.026,0.932,0.171l0.139-0.277C6.663,3.534,6.281,3.463,5.903,3.503C5.737,3.52,5.576,3.559,5.422,3.615
						c0.031-0.039,0.062-0.078,0.096-0.119C5.853,3.09,5.85,2.691,5.902,2.201c0.051-0.49,0.135-0.851,0.486-0.883
						c0.352-0.032,0.429,0.257,0.429,0.554c0,0.442,0.032,1.427,1.044,1.64c-0.093,0.069-0.168,0.142-0.227,0.21
						C7.42,3.971,7.294,4.307,7.294,4.622v1.401h0.309V4.622c0-0.332,0.205-0.918,0.928-1.07c0.651-0.011,1.402-0.005,1.402,0.931
						v0.252c0,1.88-0.665,2.493-1.324,2.835H8.61c-0.001,0-0.002,0.001-0.002,0.002C8.492,7.63,8.378,7.679,8.267,7.718H8.266
						C8.262,7.72,8.258,7.721,8.254,7.723C8.114,7.77,8.067,7.828,8.067,7.961c0,0.245,0.242,0.546,0.464,0.723
						c0.78,0.619,1.802,0.367,2.323-0.102C11.434,8.06,11.515,6.971,11.148,6.168z"/>
				</g>
			</g>
			<g>
				<path d="M1.261,8.684C1.772,9.05,2.536,9.48,2.545,9.484v0l0,0l0,0l0.274-0.142c-0.485-0.936-0.765-1.81-0.905-2.605
					C2.05,6.777,2.26,6.808,2.522,6.739c0.581-0.153,0.696-0.948,0.232-1.097c-0.474-0.153-0.78,0.362-0.906,0.64
					C1.801,5.873,1.79,5.488,1.806,5.128C1.93,5.196,2.128,5.27,2.397,5.257c0.601-0.027,0.881-0.78,0.46-1.023
					C2.431,3.988,2.028,4.412,1.842,4.658c0.043-0.383,0.113-0.73,0.198-1.04c0.105,0.094,0.282,0.21,0.546,0.259
					c0.591,0.11,1.035-0.56,0.679-0.893C2.906,2.648,2.416,2.972,2.18,3.17c0.139-0.396,0.305-0.726,0.419-0.931
					c0.087,0.111,0.237,0.254,0.483,0.35c0.56,0.218,1.121-0.357,0.834-0.75C3.599,1.404,2.984,1.714,2.749,1.856H2.749
					C2.685,1.893,2.626,1.937,2.575,1.918C2.528,1.9,2.556,1.828,2.546,1.667C2.527,1.359,2.432,0.783,1.941,0.749
					c-0.485-0.033-0.673,0.748-0.19,1.105C1.98,2.023,2.196,2.07,2.336,2.08C2.213,2.297,2.037,2.643,1.887,3.071
					c-0.074-0.3-0.277-0.847-0.765-0.788C0.639,2.341,0.6,3.144,1.141,3.404c0.25,0.121,0.466,0.128,0.606,0.113
					C1.656,3.848,1.58,4.221,1.534,4.632C1.395,4.357,1.073,3.868,0.61,4.036C0.153,4.202,0.297,4.993,0.883,5.124
					c0.27,0.061,0.482,0.02,0.615-0.027C1.481,5.472,1.491,5.875,1.539,6.301c-0.198-0.24-0.611-0.636-1.021-0.377
					C0.105,6.183,0.413,6.924,1.014,6.929c0.274,0.002,0.472-0.082,0.593-0.155C1.701,7.319,1.86,7.899,2.1,8.51
					C1.939,8.327,1.806,8.19,1.755,8.139C1.128,7.516,0.179,7.014,0.026,7.172C-0.136,7.339,0.487,8.128,1.261,8.684z"/>
				<path d="M14.86,7.172c-0.153-0.158-1.102,0.343-1.728,0.966c-0.052,0.051-0.184,0.188-0.346,0.371
					c0.24-0.61,0.399-1.19,0.493-1.735c0.121,0.073,0.319,0.157,0.593,0.155c0.601-0.005,0.909-0.747,0.497-1.006
					c-0.411-0.258-0.824,0.137-1.022,0.377c0.048-0.426,0.059-0.829,0.041-1.204c0.133,0.046,0.346,0.087,0.615,0.027
					c0.586-0.131,0.73-0.922,0.273-1.088c-0.463-0.168-0.785,0.321-0.924,0.596c-0.046-0.412-0.123-0.784-0.213-1.115
					c0.14,0.015,0.357,0.007,0.606-0.113c0.542-0.261,0.502-1.063,0.019-1.121c-0.487-0.059-0.69,0.488-0.765,0.788
					c-0.15-0.428-0.326-0.774-0.449-0.992c0.14-0.01,0.356-0.056,0.584-0.225c0.483-0.358,0.295-1.139-0.19-1.105
					c-0.491,0.034-0.586,0.61-0.604,0.918c-0.01,0.161,0.019,0.233-0.029,0.251c-0.05,0.019-0.11-0.025-0.174-0.062l0,0
					c-0.235-0.142-0.85-0.452-1.167-0.018c-0.287,0.393,0.273,0.968,0.833,0.75c0.246-0.096,0.396-0.238,0.483-0.35
					c0.115,0.206,0.28,0.535,0.419,0.931c-0.236-0.198-0.726-0.521-1.085-0.185c-0.356,0.333,0.088,1.003,0.679,0.893
					c0.264-0.049,0.441-0.166,0.546-0.259c0.084,0.309,0.155,0.656,0.198,1.04c-0.186-0.247-0.588-0.67-1.014-0.424
					c-0.421,0.244-0.141,0.997,0.459,1.023c0.269,0.012,0.467-0.061,0.591-0.129c0.016,0.359,0.005,0.745-0.042,1.154
					c-0.127-0.278-0.432-0.793-0.906-0.64c-0.464,0.149-0.349,0.944,0.232,1.097c0.262,0.069,0.473,0.039,0.608-0.001
					c-0.14,0.795-0.419,1.669-0.905,2.605l0.274,0.142v0l0,0l0,0c0.008-0.004,0.772-0.435,1.283-0.801
					C14.399,8.128,15.021,7.339,14.86,7.172z"/>
			</g>
		</g>
		<path d="M10.541,9.517C10.3,9.479,10.246,9.722,9.724,9.722c-0.748,0-1.192-0.67-2.282-0.67c-1.089,0-1.534,0.67-2.281,0.67
			c-0.522,0-0.575-0.243-0.817-0.205c-0.287,0.046-0.34,0.31-0.185,0.556l0.657,1.176h5.252l0.657-1.176
			C10.881,9.827,10.828,9.563,10.541,9.517z M9.887,10.94h-4.89l-0.273-0.489c0.083,0.011,0.182,0.018,0.306,0.018
			c0.603,0,0.603-0.165,1.206-0.165c0.603,0,0.603,0.165,1.206,0.165c0.603,0,0.603-0.165,1.205-0.165
			c0.604,0,0.604,0.165,1.207,0.165c0.125,0,0.224-0.007,0.307-0.019L9.887,10.94z"/>
	</g>
</g>
<g id="Layer_1">
</g>
</svg>
