<?xml version="1.0" encoding="iso-8859-1"?>
<!-- Generator: Adobe Illustrator 19.2.0, SVG Export Plug-In . SVG Version: 6.00 Build 0)  -->
<svg version="1.1" xmlns="http://www.w3.org/2000/svg" xmlns:xlink="http://www.w3.org/1999/xlink" x="0px" y="0px"
	 viewBox="0 0 69.252 68.831" style="enable-background:new 0 0 69.252 68.831;" xml:space="preserve">
<g id="Tikkaustuote">
	<path style="fill-rule:evenodd;clip-rule:evenodd;" d="M54.542,29.837c4.7,0.258,9.998,0.045,14.533,0.199
		c0.27,1.223,0.15,2.772,0.15,4.26c0,1.492,0.116,3.033-0.15,4.26c-4.71,0.31-9.982-0.107-14.533,0.201
		c-0.273,1.158-0.15,2.402-0.15,3.607c0,6.186-0.049,12.33-0.05,18.441c0,2.473,0.092,4.912-0.101,7.268
		c-2.791,0.113-5.688,0.15-8.569-0.051c-0.183-4.766-0.1-9.76-0.1-14.732c0-4.932,0.194-9.885-0.101-14.484
		c-0.852-0.264-2.005-0.15-3.107-0.15c-1.101,0-2.225-0.113-3.057,0.102c-0.24,0.758-0.151,1.59-0.151,2.404
		c0,2.586,0,5.285,0,7.969c0,3.57,0.354,7.242-0.3,10.223c-0.608,2.77-2.186,4.947-4.009,6.615c-1.736,1.59-4.53,2.961-7.768,2.857
		c-6.307-0.203-10.495-3.998-11.827-9.322c-0.725-2.896-0.351-6.803-0.351-10.273c0-3.549,0.083-7.117-0.1-10.473
		c-0.528-0.264-1.16-0.15-1.754-0.15c-4.183,0-8.788-0.016-12.93-0.15c-0.155-2.689-0.159-5.773,0-8.471
		c1.051-0.25,2.28-0.149,3.508-0.149c3.626-0.002,7.689,0.082,11.175-0.101c0.245-1.084,0.15-2.242,0.15-3.408
		c0-8.104-0.109-17.314,0.15-25.258c2.609-0.164,5.911-0.166,8.52,0c0.267,9.92,0.025,18.975,0.25,28.666
		c0.91,0.266,2.093,0.15,3.257,0.15c1.13,0,2.314,0.08,3.257-0.1c0.156-4.918,0.151-9.672,0.151-14.683c0-1.639-0.148-3.33,0-4.912
		c0.274-2.941,2.078-5.236,3.758-6.916c1.771-1.77,4.404-3.072,7.567-3.256c3.396-0.199,6.057,1.223,7.918,2.756
		c1.902,1.566,3.502,3.789,4.21,6.465c0.779,2.949,0.45,6.652,0.45,10.223C54.441,23.034,54.281,26.609,54.542,29.837z
		 M45.622,16.757c-0.008-1.555,0.123-3.115,0-4.512c-0.168-1.912-1.665-3.678-3.809-3.307c-2.259,0.391-2.672,2.494-2.606,5.262
		c0.124,5.184-0.194,10.809,0.101,15.586c0.962,0.104,2.086,0.193,3.157,0.15c1.053-0.043,2.168,0.137,3.057-0.15
		C45.703,25.884,45.643,20.657,45.622,16.757z M23.972,38.655c-0.349,0.654-0.2,1.455-0.2,2.205c0,4.217-0.05,7.568-0.05,11.877
		c0,1.58-0.224,3.516,0.15,4.711c0.463,1.48,1.985,2.785,3.859,2.355c2.552-0.584,2.656-3.043,2.656-6.264
		c0-3.508,0.101-6.604,0.101-9.922c0-1.752,0.106-3.459-0.15-4.861C28.52,38.45,25.954,38.632,23.972,38.655z"/>
</g>
<g id="Layer_1">
</g>
</svg>
