<?xml version="1.0" encoding="iso-8859-1"?>
<!-- Generator: Adobe Illustrator 19.2.0, SVG Export Plug-In . SVG Version: 6.00 Build 0)  -->
<svg version="1.1" xmlns="http://www.w3.org/2000/svg" xmlns:xlink="http://www.w3.org/1999/xlink" x="0px" y="0px"
	 viewBox="0 0 80.112 55.42" style="enable-background:new 0 0 80.112 55.42;" xml:space="preserve">
<g id="Titeflex_x5F_60s">
	<path style="fill-rule:evenodd;clip-rule:evenodd;" d="M79.451,0.308c0.129,2.302,0.175,5.264,0,7.736
		C67.905,8.513,55.64,7.899,44.356,8.197c-0.042,0.01-0.052,0.052-0.103,0.052c-0.272,4.159-0.154,8.425-0.154,12.655
		c0,4.33-0.236,8.599,0.41,12.399c0.939,5.521,3.869,8.807,7.891,11.322c1.405,0.88,2.581,1.301,4.662,1.691
		c4.16,0.78,7.627-0.629,9.99-2.408c1.195-0.899,2.425-1.952,3.023-3.382c0.628-1.5,1.305-2.988,1.537-4.867
		c0.516-4.171-1.237-7.179-3.484-9.12c-2.153-1.861-6.516-2.975-9.785-1.332c-1.586,0.796-3.311,3.007-3.741,4.97
		c-0.611,2.793,1.038,5.111,3.126,5.995c1.729,0.73,3.668-0.055,4.048-1.64c0.168-0.701-0.206-1.446,0.103-2.203
		c1.089-0.36,2.639-0.205,4.047-0.205c1.431,0,2.885-0.072,3.997,0.205c0.385,1.042,0.177,2.292,0.153,3.381
		c-0.068,3.302-2.189,5.375-3.894,7.02c-2.517,2.312-6.829,2.948-10.555,1.845c-3.161-0.936-5.905-3.458-7.583-5.995
		c-1.841-2.784-2.665-7.115-1.588-11.016c0.492-1.786,1.189-3.365,2.049-4.765c0.858-1.398,2.019-2.499,3.228-3.535
		c1.246-1.067,2.612-1.891,4.304-2.511c1.679-0.615,3.669-1.101,5.739-1.076c2.024,0.024,4.21,0.408,5.841,0.974
		c1.691,0.587,3.059,1.439,4.406,2.357c5.026,3.423,9.164,9.692,7.839,18.803c-0.547,3.761-2.173,6.777-4.201,9.428
		c-3.072,4.014-6.805,6.645-12.553,7.839c-3.908,0.812-8.566,0.08-11.682-1.179c-4.85-1.958-8.476-4.947-11.374-9.018
		c-1.906-2.675-3.392-5.897-3.895-9.683c-0.282-2.127-0.153-4.397-0.153-6.661c-0.001-6.737,0.043-13.496-0.052-20.289
		c-0.678-0.275-1.455-0.154-2.152-0.153C22.745,8.099,11.06,7.988,0.139,7.839c-0.185-1.753-0.103-4.044-0.103-6.046
		C0.036,1.151-0.142,0.4,0.292,0C26.594,0.018,53.498,0.077,79.451,0.308z"/>
</g>
<g id="Layer_1">
</g>
</svg>
