<?xml version="1.0" encoding="iso-8859-1"?>
<!-- Generator: Adobe Illustrator 19.2.0, SVG Export Plug-In . SVG Version: 6.00 Build 0)  -->
<svg version="1.1" xmlns="http://www.w3.org/2000/svg" xmlns:xlink="http://www.w3.org/1999/xlink" x="0px" y="0px"
	 viewBox="0 0 34.949 69.895" style="enable-background:new 0 0 34.949 69.895;" xml:space="preserve">
<g id="Torniotecnica">
	<path style="fill-rule:evenodd;clip-rule:evenodd;" d="M9.617,0.002c0.042-0.009,0.046,0.019,0.049,0.05c0.033,0,0.066,0,0.1,0
		c1.883,3.555,3.937,7.52,5.898,11.203c0.666,1.251,1.432,2.526,1.934,3.767c0.365,0.905,0.38,2.371,0.545,3.52
		c2.404,16.775,5.184,33.81,7.237,50.759c-0.407,0.001-0.501-0.489-0.595-0.743c-0.369-0.99-0.853-1.926-1.388-2.875
		c-1.37-2.43-2.499-4.962-3.916-7.485c-0.331-0.589-0.671-1.248-0.991-1.883c-0.322-0.64-0.766-1.3-0.942-1.884
		c-0.303-1.002-0.322-2.254-0.496-3.42c-2.329-15.674-4.804-31.503-7.039-47.389c-0.168-1.195-0.375-2.369-0.446-3.47
		C9.553,0.071,9.614,0.065,9.617,0.002z"/>
	<path style="fill-rule:evenodd;clip-rule:evenodd;" d="M27.016,0.052c0.049,0,0.099,0,0.149,0
		c2.659,4.859,5.181,9.854,7.782,14.772c0.018,8.963-0.099,18.289-0.099,27.511c0,3.063,0.113,6.144-0.149,9.121
		c-0.407-0.991-0.437-2.077-0.595-3.123c-0.473-3.135-0.986-6.38-1.438-9.617c-0.592-4.247-1.203-8.55-1.933-12.789
		C30,21.668,29.524,17.374,28.85,13.088C28.176,8.81,27.553,4.5,27.016,0.2C27.016,0.151,27.016,0.101,27.016,0.052z"/>
	<path style="fill-rule:evenodd;clip-rule:evenodd;" d="M0.843,0.151c0.771,0.993,1.513,2.566,2.131,3.816
		c1.558,3.149,3.289,6.237,4.957,9.419c0.343,0.654,0.813,1.307,0.991,1.883c0.307,0.99,0.335,2.267,0.496,3.42
		c1.731,12.418,3.745,25.013,5.502,37.425c0.651,4.598,1.401,9.156,1.883,13.632c-0.581-0.394-0.783-1.136-1.09-1.735
		c-1.901-3.702-3.93-7.522-5.899-11.352c-0.334-0.65-0.799-1.258-0.991-1.883c-0.308-1.002-0.323-2.239-0.496-3.42
		c-1.134-7.749-2.364-16-3.569-23.744C3.696,20.783,2.778,13.97,1.735,7.189C1.56,6.049,1.396,4.897,1.239,3.769
		c-0.163-1.172-0.335-2.328-0.446-3.47C0.819,0.26,0.845,0.219,0.843,0.151z"/>
	<path style="fill-rule:evenodd;clip-rule:evenodd;" d="M18.589,0.2c0.033,0,0.066,0,0.099,0c2.236,4.096,4.588,8.755,6.791,13.136
		c0.295,0.587,0.714,1.187,0.892,1.784c0.31,1.04,0.318,2.293,0.496,3.47c1.882,12.483,3.674,25.087,5.502,37.574
		c0.672,4.588,1.445,9.143,1.933,13.731c-0.562-0.419-0.822-1.119-1.14-1.735c-1.898-3.675-3.803-7.423-5.8-11.153
		c-0.33-0.618-0.768-1.307-0.941-1.884c-0.305-1.013-0.321-2.255-0.496-3.42c-0.169-1.129-0.387-2.295-0.545-3.371
		c-0.341-2.324-0.569-4.622-0.892-6.939c-1.911-13.714-4.137-27.507-5.949-41.044C18.535,0.279,18.531,0.208,18.589,0.2z"/>
	<path style="fill-rule:evenodd;clip-rule:evenodd;" d="M0.248,18.095c0.042-0.009,0.047,0.019,0.049,0.05
		c-0.009,0.042,0.02,0.047,0.05,0.05c2.581,17.049,5.161,34.1,7.535,51.354c-0.378,0.007-0.455-0.478-0.595-0.743
		C6.824,67.923,6.24,66.922,5.8,66.029C3.886,62.259,1.84,58.62,0,54.777c0.078-12.134-0.019-24.434,0.198-36.533
		C0.225,18.203,0.25,18.163,0.248,18.095z"/>
</g>
<g id="Layer_1">
</g>
</svg>
