<?xml version="1.0" encoding="iso-8859-1"?>
<!-- Generator: Adobe Illustrator 21.0.2, SVG Export Plug-In . SVG Version: 6.00 Build 0)  -->
<svg version="1.1" xmlns="http://www.w3.org/2000/svg" xmlns:xlink="http://www.w3.org/1999/xlink" x="0px" y="0px"
	 viewBox="0 0 17.941 17.945" style="enable-background:new 0 0 17.941 17.945;" xml:space="preserve">
<g id="Toronto_x5F_Zoo">
	<path d="M3.25,2.055c1.469-1.228,3.345-1.961,5.258-2.053c0.438,0.016,0.881-0.03,1.317,0.03c1.952,0.176,3.838,1.024,5.262,2.37
		c2.005,1.838,3.081,4.641,2.814,7.348c-0.191,2.443-1.466,4.774-3.402,6.271c-0.781,0.622-1.676,1.088-2.613,1.429
		c0-1.23,0-2.46,0-3.69c0.925,0.004,1.85-0.001,2.775,0.003c0.282,0.01,0.585-0.126,0.718-0.383
		c0.195-0.303,0.101-0.743-0.204-0.939c-1.094-0.78-2.188-1.563-3.29-2.331c0.001-2.731-0.002-5.463,0.001-8.194
		c0.03-0.315-0.198-0.626-0.497-0.714c-0.242-0.096-0.512,0.019-0.701,0.173c-0.118,0.154-0.207,0.342-0.202,0.54
		c0.005,1.315-0.007,2.63,0.006,3.945c-0.435-0.338-0.879-0.667-1.33-0.983c0.002-1.071,0-2.141,0.001-3.212
		C9.163,1.354,8.938,1.066,8.641,0.98C8.29,0.876,7.893,1.108,7.792,1.455c-0.058,0.148-0.038,0.308-0.04,0.463
		c0.002,0.644,0,1.288,0.002,1.932C7.698,3.8,7.644,3.746,7.586,3.698C6.954,3.239,6.332,2.767,5.701,2.306
		C5.506,2.146,5.26,1.98,4.996,2.044C4.68,2.101,4.403,2.395,4.414,2.725c0,0.221,0.095,0.461,0.291,0.578
		C6.54,4.661,8.374,6.019,10.21,7.374c0.096,0.077,0.22,0.133,0.279,0.245c0.004,0.498-0.01,0.998,0.007,1.496
		C8.262,7.53,6.029,5.945,3.795,4.36c-0.38-0.3-1.026-0.052-1.087,0.435C2.649,5.071,2.775,5.351,3.005,5.508
		c0.756,0.538,1.512,1.076,2.269,1.611c0.13,0.096,0.271,0.178,0.389,0.291c-1.085-0.024-2.17-0.003-3.255-0.011
		C2.116,7.375,1.83,7.572,1.733,7.846C1.569,8.245,1.864,8.765,2.308,8.779C4.055,8.78,5.802,8.782,7.55,8.778
		c0.082-0.01,0.138,0.062,0.203,0.1c0.599,0.434,1.215,0.846,1.806,1.291c-1.122-0.031-2.246-0.006-3.368-0.014
		c-1.176,0-2.353,0-3.53,0c-0.267-0.005-0.581-0.004-0.77,0.218c-0.332,0.304-0.232,0.929,0.181,1.111
		c0.149,0.087,0.325,0.059,0.49,0.063c2.644,0,5.288,0,7.932,0c-0.014,1.528-0.002,3.057-0.006,4.585
		c0.005,0.552-0.009,1.105,0.007,1.657c-0.721,0.127-1.461,0.207-2.192,0.116c-1.916-0.144-3.781-0.917-5.224-2.188
		c-0.15-0.155-0.33-0.277-0.478-0.433c-0.304-0.352-0.633-0.682-0.894-1.069C0.355,12.368-0.242,9.984,0.09,7.719
		c0.242-1.794,1.053-3.505,2.282-4.832C2.664,2.611,2.926,2.298,3.25,2.055z"/>
	<path d="M12.111,11.214c0.183-0.054,0.414-0.042,0.546,0.116c0.212,0.18,0.211,0.554,0,0.735c-0.22,0.239-0.674,0.169-0.81-0.127
		C11.69,11.682,11.831,11.313,12.111,11.214z"/>
</g>
<g id="Layer_1">
</g>
</svg>
