<?xml version="1.0" encoding="iso-8859-1"?>
<!-- Generator: Adobe Illustrator 19.2.0, SVG Export Plug-In . SVG Version: 6.00 Build 0)  -->
<svg version="1.1" xmlns="http://www.w3.org/2000/svg" xmlns:xlink="http://www.w3.org/1999/xlink" x="0px" y="0px"
	 viewBox="0 0 73.169 72.517" style="enable-background:new 0 0 73.169 72.517;" xml:space="preserve">
<g id="Tourism_x5F_Association_x5F_ES">
	<path style="fill-rule:evenodd;clip-rule:evenodd;" d="M63.565,63.615c-1.882,2.023-4.071,3.495-6.479,4.897
		c-2.395,1.395-5.121,2.544-8.214,3.163c-1.503,0.301-3.185,0.681-4.949,0.766c-1.75,0.084-3.699,0.15-5.459-0.103
		c-0.871-0.125-1.631-0.385-2.449-0.408c-0.816-0.022-1.63,0.142-2.551,0.256c-1.782,0.219-3.551,0.256-5.357,0.102
		c-6.554-0.561-11.825-3.203-16.071-6.632c-4.221-3.409-7.818-7.817-9.795-12.908c-1.077-2.772-1.892-5.853-2.143-9.234
		c-0.705-9.48,2.501-16.157,6.429-21.632c0.439-0.613,0.812-1.119,1.071-1.786c0.253-0.65,0.42-1.333,0.715-2.092
		c3.081-7.935,9.601-13.45,17.754-16.325c3.485-1.229,8.174-2.022,12.754-1.531c0.972,0.104,1.99,0.102,2.857,0.256
		c0.852,0.149,1.674,0.458,2.5,0.663c4.168,1.035,7.593,2.891,10.561,5.051c4.38,3.188,7.366,6.964,9.795,12.091
		c0.333,0.701,0.549,1.486,0.919,2.194c0.419,0.801,1.066,1.47,1.684,2.143c1.752,1.908,3.127,4.503,4.133,7.193
		c0.95,2.542,1.925,5.9,1.888,9.49c-0.013,1.223,0.061,2.454-0.051,3.622C72.225,51.987,68.664,58.378,63.565,63.615z M57.851,14.79
		c-0.897-1.174-2.026-2.142-3.061-3.112c-3.298-2.792-7.793-4.593-13.01-5.459c-1.781-0.296-3.726-0.622-5.714-0.459
		c-1.587,0.13-3.217,0.333-4.49,0.562c-4.149,0.743-7.392,2.253-10.306,4.234c-3.643,2.477-6.785,6.389-8.265,11.173
		c-0.872,2.82-0.62,5.857,0.306,8.265c0.902,2.347,2.436,4.217,4.336,5.408c2.142,1.343,4.967,1.782,7.704,0.766
		c2.308-0.857,4.415-2.239,4.847-4.897c0.444-2.736-0.967-4.539-2.704-5.153c-1.586-0.56-2.992,0.578-3.418,1.734
		c-0.736,1.997,0.543,2.288,0.816,4.082c-0.539,1.051-2.002,0.759-2.857,0.459c-2.25-0.791-3.757-3.55-2.857-6.53
		c0.98-3.245,4.095-5.76,8.265-5.561c2.14,0.102,3.789,0.746,5.051,1.888c2.002,1.811,3.687,4.18,3.673,7.908
		c-0.015,4.293-1.953,7.204-4.49,9.285c-1.267,1.04-2.701,1.712-4.54,2.348c-1.755,0.605-3.742,1.084-5.867,0.918
		c-4.114-0.321-7.127-2.128-9.388-4.388c-1.161-1.161-2.238-2.403-3.01-3.878c-0.801-1.53-1.29-3.209-1.837-5.102
		c-0.59,0.195-0.799,0.908-1.02,1.429c-0.249,0.585-0.489,1.171-0.664,1.785c-1.135,3.994-0.884,9.023,0.153,12.959
		c1.338,5.078,3.842,9.358,6.938,12.704c3.04,3.284,7.021,6.165,12.091,7.551c2.678,0.732,5.81,1.07,8.826,0.612
		c2.833-0.432,4.975-1.564,6.734-3.112c1.945-1.923,3.606-4.063,3.979-7.296c0.394-3.404-1.708-6.64-3.826-8.214
		c-1.178-0.875-2.848-1.641-4.49-1.479c-2.142,0.21-4.381,1.573-4.745,3.826c-0.5,3.101,3.378,4.452,5.153,2.449
		c0.607-0.383,0.599-1.716,1.429-1.734c0.578-0.015,0.954,0.744,1.173,1.275c1.12,2.71-0.61,5.16-2.296,6.071
		c-1.782,0.962-4.232,0.815-5.969,0.152c-3.76-1.436-6.404-5.645-4.949-10.611c0.711-2.428,2.066-3.95,3.928-5.408
		c1.495-0.911,3.014-1.688,5.051-1.939c2.239-0.274,4.207,0.207,5.918,0.868c3.199,1.235,5.758,3.832,7.397,6.633
		c1.701,2.904,2.497,7.33,1.429,11.428c-0.826,3.165-2.72,5.58-4.541,7.704c-0.249,0.289-0.722,0.554-0.664,1.02
		c2.047-0.011,3.814-0.484,5.357-1.02c1.59-0.553,3.01-1.351,4.336-2.194c3.938-2.505,7.263-5.846,9.643-9.847
		c2.396-4.028,4.063-9.406,4.03-15.51c-0.021-3.907-1.263-7.403-2.755-10.255c-1.457-2.783-3.712-5.226-6.428-6.581
		c-1.565-0.781-3.244-1.122-5.357-1.122c-2.426,0-3.79,0.404-5.357,1.173c-2.62,1.285-4.803,4.377-4.541,8.52
		c0.103,1.626,0.897,3.135,1.99,4.133c1.025,0.937,3.427,1.925,5.153,0.969c0.667-0.369,1.311-0.931,1.582-1.837
		c0.521-1.747-1.02-3.032-2.143-3.418c-0.817-0.28-2.362,0.058-2.602-0.816c-0.293-1.068,1.227-2.04,1.633-2.551
		c1.303-1.245,3.7-0.88,4.949-0.204c1.34,0.726,2.517,2.009,3.112,3.418c1.578,3.738-0.019,7.973-2.551,9.898
		c-1.706,1.287-3.79,2.203-6.53,1.989c-2.277-0.178-4.553-1.375-5.969-2.551c-3.028-2.515-5.184-6.891-4.132-12.448
		c0.883-4.667,3.552-7.804,7.041-10.051c2.549-1.643,6.268-2.646,10.357-2.144c1.225,0.151,2.369,0.469,3.571,0.612
		C58.521,15.588,58.124,15.147,57.851,14.79z"/>
</g>
<g id="Layer_1">
</g>
</svg>
