<?xml version="1.0" encoding="iso-8859-1"?>
<!-- Generator: Adobe Illustrator 19.2.0, SVG Export Plug-In . SVG Version: 6.00 Build 0)  -->
<svg version="1.1" xmlns="http://www.w3.org/2000/svg" xmlns:xlink="http://www.w3.org/1999/xlink" x="0px" y="0px"
	 viewBox="0 0 79.79 79.415" style="enable-background:new 0 0 79.79 79.415;" xml:space="preserve">
<g id="towa_x5F_shoko">
	<path style="fill-rule:evenodd;clip-rule:evenodd;" d="M44.321,79.379c-0.263-0.54-0.15-1.243-0.15-1.899
		c0.001-1.925-0.081-4.239,0.101-6.048c1.477-0.53,2.979-0.724,4.398-1.1c2.839-0.752,5.244-2.023,7.598-3.398
		c5.738-3.355,9.997-8.356,12.695-14.745c2.13-5.044,3.102-12.143,1.749-18.794c-1.206-5.928-4.191-10.637-7.348-14.595
		c-3.48-3.75-7.78-6.862-13.245-8.697c-1.794-0.602-3.731-1.319-5.848-1.249c-0.348,0.788-0.2,1.8-0.2,2.749
		c0,2.817,0.081,6.021-0.1,8.696c-1.173,0.321-2.74,0.2-4.249,0.2c-0.741,0-1.515,0-2.249,0c-0.729,0-1.492,0.111-2.1-0.149
		c-0.204-2.619-0.149-5.675-0.149-8.647c0-0.972,0.113-1.945-0.15-2.799c-1.042-0.151-2.04,0.204-2.999,0.45
		c-2.8,0.716-5.602,1.712-7.797,3.148c-1.535,1.004-2.971,1.896-4.349,2.949c-1.334,1.021-2.476,2.3-3.648,3.599
		c-2.225,2.463-4.299,5.513-5.599,8.997c-0.327,0.876-0.763,1.713-1.05,2.599c-0.301,0.931-0.471,1.939-0.699,2.949
		c-1.448,6.388-0.276,13.744,1.899,18.644c1.521,3.425,3.384,6.36,5.648,8.896c2.329,2.608,5.076,4.569,8.098,6.448
		c1.524,0.947,3.214,1.683,4.998,2.299c1.803,0.622,3.753,0.893,5.698,1.55c0.267,2.387,0.194,5.543,0,7.947
		c-1.44,0.161-2.811-0.257-4.099-0.5c-3.938-0.742-7.258-2.348-10.396-3.898c-2.052-1.015-3.914-2.456-5.697-3.849
		c-5.35-4.177-9.401-9.516-12.196-16.444C1.557,51.394,0.499,47.5,0.136,43.091c-0.642-7.823,1.062-14.558,3.549-19.892
		C7.704,14.579,14.128,8.144,22.628,3.955c3.811-1.879,7.848-3.186,12.945-3.749c3.729-0.411,8.138-0.179,11.546,0.45
		c2.782,0.514,5.25,1.35,7.598,2.199c2.366,0.856,4.598,1.981,6.548,3.249c1.998,1.298,3.84,2.687,5.498,4.298
		c2.46,2.323,4.866,4.929,6.748,7.997c2.794,4.56,5.061,9.675,5.947,16.145c0.938,6.84-0.219,14.08-2.149,19.193
		C73.95,62.636,68.44,69.264,60.815,74.03c-3.044,1.903-6.432,3.353-10.296,4.398C48.618,78.944,46.479,79.459,44.321,79.379z"/>
	<path style="fill-rule:evenodd;clip-rule:evenodd;" d="M60.366,23.897c1.08-0.088,2.281,0.27,2.998,0.75
		c1.488,0.997,2.77,3.489,1.949,6.198c-0.336,1.111-1.398,2.161-2.398,2.649c-0.919,0.447-1.903,0.574-3.149,0.399
		c-2.594-0.365-4.698-3.123-3.948-6.298C56.263,25.708,58.001,24.092,60.366,23.897z"/>
	<path style="fill-rule:evenodd;clip-rule:evenodd;" d="M40.522,23.948c2.218,0.56,4.115,1.954,4.349,4.498
		c0.068,0.742-0.159,1.976-0.5,2.749c-0.988,2.248-4.364,3.5-6.848,2.149c-1.253-0.681-2.286-1.988-2.549-3.448
		C34.367,26.527,36.737,23.713,40.522,23.948z"/>
	<path style="fill-rule:evenodd;clip-rule:evenodd;" d="M16.43,24.798c3.573-2.213,8.325,0.878,7.647,5.048
		c-0.399,2.457-2.487,4.421-5.298,4.249c-2.251-0.138-4.692-2.079-4.698-4.898C14.077,27.178,15.074,25.871,16.43,24.798z"/>
	<path style="fill-rule:evenodd;clip-rule:evenodd;" d="M65.263,36.193c0.014,1.274-0.617,2.412-0.999,3.549
		c-2.278,6.786-4.754,13.637-7.048,20.593c-0.171,0.519-0.367,1.08-0.6,1.7c-0.223,0.592-0.431,1.369-0.75,1.549
		c-0.604,0.341-2.332,0.15-3.148,0.15c-1.192,0-2.346-0.043-3.249-0.05c-0.487-0.005-1.094,0.108-1.45-0.051
		c-0.438-0.195-0.896-1.417-1.149-2.049c-1.817-4.542-3.89-8.823-5.798-13.346c-0.304-0.72-0.568-1.506-1.1-2.049
		c-0.618,0.477-0.887,1.303-1.199,1.999c-2.282,5.085-4.353,10.547-6.798,15.495c-2.364,0.185-5.253,0.11-7.697,0.05
		c-0.7-0.973-0.961-2.179-1.35-3.299c-2.37-6.838-4.868-13.705-7.298-20.593c-0.404-1.147-0.988-2.263-1.05-3.499
		c0.593-0.338,1.392-0.2,2.149-0.2c2.247,0,4.806-0.04,6.998,0.05c0.482,0.55,0.497,1.315,0.649,2c0.449,2.017,1.182,4.08,1.8,6.098
		c0.628,2.048,1.221,4.085,1.849,6.098c0.194,0.621,0.329,1.331,0.75,1.85c0.557-0.452,0.781-1.22,1.05-1.85
		c1.418-3.328,2.811-6.907,4.249-10.246c0.582-1.354,1.024-2.771,1.849-3.949c2.464-0.17,5.41-0.12,7.948-0.05
		c0.837,1.135,1.235,2.548,1.799,3.849c1.403,3.243,2.876,6.512,4.349,9.797c0.275,0.614,0.44,1.36,0.999,1.8
		c0.468-0.485,0.519-1.224,0.7-1.85c0.919-3.161,1.929-6.57,2.849-9.797c0.374-1.309,0.629-2.646,1.25-3.799
		c2.227-0.142,4.822-0.149,7.298-0.149C63.873,35.993,64.662,35.871,65.263,36.193z"/>
</g>
<g id="Layer_1">
</g>
</svg>
