<?xml version="1.0" encoding="iso-8859-1"?>
<!-- Generator: Adobe Illustrator 19.2.0, SVG Export Plug-In . SVG Version: 6.00 Build 0)  -->
<svg version="1.1" xmlns="http://www.w3.org/2000/svg" xmlns:xlink="http://www.w3.org/1999/xlink" x="0px" y="0px"
	 viewBox="0 0 47.693 68.489" style="enable-background:new 0 0 47.693 68.489;" xml:space="preserve">
<g id="Towarzystwo_x5F_Przyjaciol_x5F_Warszawy">
	<path style="fill-rule:evenodd;clip-rule:evenodd;" d="M12.524,0.052c0.298,0.756-0.305,1.564-0.093,2.383
		c0.642,0.383,1.451,0.129,2.196,0c1.424-0.247,3.008-0.366,4.627-0.514c0.765-0.07,1.523-0.224,2.243-0.28
		c1.812-0.141,3.696-0.151,5.562-0.28c3.687-0.256,6.977-0.396,11.028-0.187c1.393,0.072,2.845-0.007,4.159,0.14
		c0.492,0.055,0.967,0.021,1.309,0.14c1.007,0.35,1.641,1.832,2.104,2.804c0.28,0.589,0.491,1.17,0.747,1.73
		c0.253,0.55,0.656,1.092,0.654,1.776c-0.573,0.397-1.358,0.28-2.056,0.28C36.438,8.044,28.686,8.091,20.376,8.09
		c-2.062,0-4.488,0.126-6.589,0.187c-0.841,0.024-1.756-0.098-2.104,0.187c-0.569,0.466-0.542,2.953-0.654,3.925
		c-0.177,1.543-0.2,2.746-0.28,4.3c-0.067,1.307-0.113,2.886-0.047,4.346c0.064,1.422-0.039,3.465,0.888,3.833
		c0.462,0.183,1.373-0.146,2.01-0.234c0.754-0.104,1.357-0.311,1.916-0.42c3.884-0.761,8.219-1.19,12.478-1.449
		c2.948-0.179,6.067-0.268,8.785,0.14c2.69,0.404,5.381,0.814,7.011,2.243c0.741,0.65,1.285,1.476,1.729,2.336
		c0.453,0.88,0.805,1.966,0.748,3.365c-0.099,2.446-1.445,4.396-2.897,5.795c-1.485,1.431-3.659,2.609-5.608,3.084
		c-3.664,0.893-8.108,0.368-11.355-0.654c-1.72-0.54-3.557-1.167-4.206-2.757c-0.197-0.482-0.315-1.091-0.047-1.87
		c0.521-0.173,0.959,0.285,1.401,0.467c1.34,0.553,3.544,0.701,5.141,0.047c2.331-0.955,4.241-4.48,2.524-7.197
		c-1.964-1.885-5.451-0.684-7.104,0.514c-0.875,0.634-1.944,1.825-2.569,2.804c-0.716,1.119-1.296,2.311-1.683,3.692
		c-0.392,1.397-0.633,2.899-0.888,4.486c-0.252,1.565-0.495,3.192-0.608,4.767c-0.135,1.892-0.03,3.841,0,5.748
		c0.077,4.819,0.474,9.339,1.496,13.459c0.2,0.808,0.399,1.891,1.075,1.916c1.202,0.044,1.22-2.957,1.401-4.066
		c0.549-3.352,0.885-6.287,1.028-9.861c0.071-1.778,0.16-3.58,0.047-5.281c-0.035-0.524-0.284-1.221,0.046-1.589
		c1.512-0.113,3.434,0.308,5.281,0.327c1.254,0.013,2.484-0.207,3.646-0.047c0.281,0.829-0.001,1.735-0.094,2.617
		c-0.275,2.627-0.414,5.488-0.607,8.271c-0.195,2.817,0.001,5.614,0.374,8.319c0.113,0.821,0.45,1.851,1.075,1.869
		c0.671,0.02,1.048-1.243,1.308-1.963c0.852-2.351,1.574-5.167,2.01-7.804c0.15-0.908,0.251-1.887,0.421-2.851
		c0.403-2.294,0.604-4.869,0.561-7.524c-0.01-0.625-0.05-1.27,0.094-1.542c0.319-0.606,2.002-0.897,2.71-1.122
		c0.875-0.277,1.935-0.899,2.571-1.262c1.276-0.726,2.423-1.365,3.551-2.196c0.344-0.253,0.67-0.654,1.169-0.701
		c0.259,0.845,0.135,1.749,0.14,2.617c0.006,0.836-0.021,1.705-0.093,2.523c-0.152,1.724-0.132,3.425-0.327,5.094
		c-0.558,4.761-1.891,9.027-3.879,12.384c-0.669,1.13-1.538,2.005-2.478,2.944c-1.806,1.806-4.147,3.282-7.057,3.785
		c-1.941,0.336-4.105,0.44-6.215,0.374c-2.095-0.065-4.216-0.105-6.075-0.514c-1.808-0.397-3.511-0.965-5.001-1.682
		c-1.511-0.727-2.929-1.513-3.692-2.944c-2.479-2.895-3.817-7.372-4.299-12.384c-0.163-1.698-0.375-3.439-0.327-5.141
		c0.101-3.644,0.322-7.048,0.841-10.282c0.256-1.593,0.699-3.086,0.981-4.58c0.144-0.759,0.286-1.528,0.515-2.243
		c0.222-0.694,0.612-1.363,0.561-2.103c-0.456-0.326-1.101-0.187-1.636-0.187c-2.99,0-6.346,0.605-7.524-1.542
		c-0.541-0.988-0.607-2.51-0.608-3.926c0-1.482-0.003-3.083,0.188-4.299c0.416-2.659,0.851-5.38,1.355-7.664
		C2.364,8.422,0.675,9.02,0,8.605C0.104,6.386,2.473,6.03,4.16,5.239C5.01,3.94,5.842,2.717,7.197,1.828
		c1.278-0.839,2.935-1.44,4.627-1.776C11.973,0.023,12.269-0.049,12.524,0.052z"/>
	<path style="fill-rule:evenodd;clip-rule:evenodd;" d="M16.731,19.961c-0.902-1.7-0.399-5.514,0.561-7.057
		c1.014-1.631,5.698-1.873,7.01-0.28c0.351,0.426,0.593,1.168,0.654,1.682c0.266,2.222-1.097,4.714-2.804,5.702
		c-0.5,0.289-1.845,0.801-2.478,0.888C18.49,21.058,17.498,20.658,16.731,19.961z"/>
</g>
<g id="Layer_1">
</g>
</svg>
