<?xml version="1.0" encoding="iso-8859-1"?>
<!-- Generator: Adobe Illustrator 19.2.0, SVG Export Plug-In . SVG Version: 6.00 Build 0)  -->
<svg version="1.1" xmlns="http://www.w3.org/2000/svg" xmlns:xlink="http://www.w3.org/1999/xlink" x="0px" y="0px"
	 viewBox="0 0 79.122 44" style="enable-background:new 0 0 79.122 44;" xml:space="preserve">
<g id="Toyota_x5F_Publica_x5F_61">
	<path style="fill-rule:evenodd;clip-rule:evenodd;" d="M30.441,33.908c-0.203-1.343-0.113-3.246,0-4.606
		c4.266-0.185,8.793-0.102,13.262-0.102c4.416,0,8.311-0.025,12.957,0c2.941,0.016,5.898,0.201,8.25-0.455
		c4.566-1.275,7.729-4.346,8.809-9.01c0.645-2.79,0.035-5.524-0.912-7.491c-1.803-3.747-5.525-6.827-10.934-6.883
		C53.132,5.269,43.952,5.31,35.3,5.31c-10.385,0-20.549-0.202-30.875-0.202c-1.435,0-2.896,0.122-4.303-0.152
		c-0.232-1.398-0.037-3.196,0-4.656c0.028-0.234,0.269-0.229,0.405-0.253c0.649-0.116,1.591,0.017,2.429,0.05
		c2.485,0.1,5.114,0.051,7.492,0.051c16.545,0,33.91,0.202,50.31,0.202c3.432,0,6.188,0.442,8.555,1.62
		c2.316,1.153,4.178,2.58,5.77,4.404c3.039,3.358,5.168,9.525,3.393,15.589c-1.832,6.253-6.682,10.594-13.516,11.945
		c-1.504,0.297-3.119,0.202-4.91,0.202c-4.953,0-9.9-0.05-15.031-0.05C40.019,34.06,35.154,34.101,30.441,33.908z"/>
	<path style="fill-rule:evenodd;clip-rule:evenodd;" d="M15.003,9.866c0.326,4.208-0.064,8.56,0.051,12.856
		c0.109,4.069,0,8.43,0,12.755c0,2.824,0.108,5.644-0.152,8.352c-1.209,0.083-3.264,0.169-4.453-0.101
		c-0.221-9.366,0.134-19.561-0.102-29.104c-3.205-0.372-7.106,0.04-10.225-0.304c-0.176-0.538-0.102-1.339-0.102-2.277
		c0-0.73-0.104-2,0.152-2.278C0.21,9.717,0.265,9.688,0.325,9.663C5.22,9.729,10.331,9.577,15.003,9.866z"/>
	<path style="fill-rule:evenodd;clip-rule:evenodd;" d="M30.491,24.595c-0.17-1.373-0.166-3.436,0-4.809
		c7.707-0.181,16.238-0.101,24.244-0.101c1.297,0,2.691-0.059,4.1,0c2.477,0.104,4.979,0.068,5.164-2.176
		c0.101-1.234-0.773-2.109-1.771-2.43c-1.158-0.372-2.979-0.166-4.506-0.202c-4.688-0.112-9.26-0.051-13.867-0.051
		c-6.32,0-12.396-0.072-18.525,0.051c-0.267,0.476-0.156,1.08-0.152,1.62c0.055,8.704-0.119,18.609-0.202,27.383
		c-1.378,0.189-3.405,0.13-4.657,0c-0.238-2.7-0.102-5.471-0.102-8.301c0.002-8.685-0.025-17.099,0.152-25.662
		c12.328-0.079,25.324-0.066,37.709,0c2.23,0.012,4.344-0.127,6.023,0.405c1.641,0.52,2.857,1.563,3.744,2.784
		c0.92,1.266,1.563,2.893,1.367,5.112c-0.135,1.523-1.031,2.994-1.822,3.897c-0.867,0.99-2.102,1.803-3.441,2.227
		c-1.488,0.472-3.287,0.405-5.264,0.405C49.312,24.746,39.732,24.774,30.491,24.595z"/>
</g>
<g id="Layer_1">
</g>
</svg>
