<?xml version="1.0" encoding="iso-8859-1"?>
<!-- Generator: Adobe Illustrator 21.0.2, SVG Export Plug-In . SVG Version: 6.00 Build 0)  -->
<svg version="1.1" xmlns="http://www.w3.org/2000/svg" xmlns:xlink="http://www.w3.org/1999/xlink" x="0px" y="0px"
	 viewBox="0 0 20.659 20.894" style="enable-background:new 0 0 20.659 20.894;" xml:space="preserve">
<g id="Tracktivity">
	<path d="M3.101,0C7.7,0,12.297,0.065,16.896,0.084c0.791,0.014,1.615-0.067,2.362,0.251c1.08,0.457,1.615,1.735,1.323,2.845
		c-0.3,1.063-0.537,2.239-1.406,3.005c-1.56,1.431-3.824,1.151-5.76,1.509c-0.039,0.162-0.041,0.329-0.057,0.495
		c-0.932,3.123-1.845,6.253-2.719,9.394c-0.219,0.755-0.435,1.566-1.034,2.119c-0.811,0.965-2.124,1.309-3.34,1.16
		c-0.782,0.01-1.637,0.089-2.317-0.376c-0.755-0.522-1.047-1.567-0.738-2.421c0.624-2.413,1.37-4.789,2.016-7.195
		c0.222-0.83,0.47-1.697,1.077-2.336C6.93,7.946,7.735,7.569,8.586,7.448c1.3-0.159,2.601-0.302,3.901-0.466
		c-0.142-0.79-0.985-1.274-1.746-1.252c-2.845-0.045-5.692-0.031-8.537-0.07C1.223,5.73,0.245,5.053,0.036,4.077
		C-0.242,2.204,1.118,0.119,3.101,0z M1.018,2.639C0.763,3.26,0.632,4.094,1.231,4.567C1.768,4.979,2.478,4.8,3.102,4.843
		c2.595,0.069,5.195,0.002,7.79,0.073c1.143,0.022,2.17,0.86,2.446,1.968c1.583-0.28,3.286-0.141,4.759-0.873
		c1.144-0.621,1.427-1.96,1.713-3.116c0.234-0.893-0.435-1.881-1.362-1.954c-1.812-0.085-3.632-0.018-5.445-0.07
		C9.888,0.862,6.774,0.818,3.659,0.812C2.496,0.685,1.244,1.454,1.018,2.639z M8.448,8.296C7.55,8.394,6.775,9.032,6.399,9.837
		c-0.913,2.858-1.638,5.774-2.487,8.65c-0.196,0.733,0.343,1.487,1.096,1.546c0.786,0.04,1.577,0.016,2.365,0.021
		c1.029-0.147,1.951-0.914,2.276-1.904c0.916-3.462,2.034-6.872,2.922-10.338C11.193,7.936,9.82,8.117,8.448,8.296z"/>
</g>
<g id="Layer_1">
</g>
</svg>
