<?xml version="1.0" encoding="iso-8859-1"?>
<!-- Generator: Adobe Illustrator 19.2.0, SVG Export Plug-In . SVG Version: 6.00 Build 0)  -->
<svg version="1.1" xmlns="http://www.w3.org/2000/svg" xmlns:xlink="http://www.w3.org/1999/xlink" x="0px" y="0px"
	 viewBox="0 0 72.034 74.364" style="enable-background:new 0 0 72.034 74.364;" xml:space="preserve">
<g id="Traders_x5F_International">
	<path style="fill-rule:evenodd;clip-rule:evenodd;" d="M50.618,11.369c0.412-0.599,0.262-1.491,0.242-2.281
		c-0.041-1.667,0.057-3.354,0.049-4.999c-0.004-0.825-0.115-1.658,0.146-2.378c0.705-0.09,1.283,0.454,1.844,0.776
		c2.895,1.669,5.93,3.46,8.783,5.29c1.15,0.738,2.439,1.276,3.447,2.184c0.041,8.351,0.172,16.293-0.049,24.266
		c-0.393,0.557-1.076,0.772-1.65,1.068c-2.904,1.494-5.801,3.271-8.785,4.805c-0.596,0.307-1.209,0.598-1.795,0.922
		c-0.578,0.319-1.129,0.756-1.795,0.874c-0.375-0.996-0.15-2.469-0.146-3.543c0.006-2.347-0.049-4.942-0.049-7.474
		c0-0.859,0.104-1.769-0.145-2.33c-0.244-0.55-1.293-1.037-1.99-1.456c-2.133-1.279-4.301-2.701-6.406-3.883
		c-3.76-2.11-7.221-4.182-10.775-6.358c-2.041-1.25-4.15-2.688-6.309-3.931c-2.178-1.255-4.328-2.511-6.455-3.834
		c-0.676-0.42-1.539-0.715-1.941-1.456c0.369-0.522,1.021-0.723,1.553-1.019c1.596-0.888,3.197-1.991,4.902-2.815
		c2.131-1.212,4.447-2.633,6.553-3.737c0.662-0.348,2.373,0.904,2.912,1.213c2.516,1.444,5.211,3.049,7.57,4.417
		c2.641,1.376,5.033,2.906,7.619,4.368C48.784,10.53,49.602,11.182,50.618,11.369z"/>
	<path style="fill-rule:evenodd;clip-rule:evenodd;" d="M22.905,29.568c-0.275,12.096,0.199,24.667-0.049,36.933
		c-0.014,0.716,0.144,1.49-0.193,2.135c-1.291-0.455-2.434-1.138-3.543-1.795c-1.105-0.655-2.229-1.293-3.396-1.941
		c-1.555-0.863-3.396-1.859-5.145-2.863c-0.486-0.279-1.367-0.724-1.506-1.117c-0.236-0.677-0.047-1.989-0.047-2.961
		c0-5.966-0.002-11.929,0-17.908c0-0.929,0.154-1.91-0.195-2.767c-0.826,0.028-1.512,0.591-2.184,0.971
		c-1.391,0.785-2.807,1.508-4.223,2.281c-0.688,0.375-1.375,0.882-2.184,0.971c-0.264-1.2-0.146-2.544-0.146-3.883
		c0-2.687,0-5.231,0-8.056c0-1.017-0.267-3.138,0.098-3.883c0.24-0.488,1.951-1.227,2.475-1.553c1.754-1.092,3.285-1.969,5-3.057
		c0.848-0.539,1.773-0.923,2.572-1.456c3.193-2.13,6.861-3.923,10.094-5.97c0.037-0.045,0.088-0.073,0.146-0.097
		c0.559-0.018,1.453,0.585,1.99,0.922c3.527,2.221,6.992,4.272,10.627,6.503c0.43,0.263,1.592,0.76,1.604,1.213
		c0.01,0.426-0.943,0.74-1.408,1.019c-1.131,0.681-1.924,1.135-3.059,1.747c-0.537,0.291-0.986,0.673-1.455,0.922
		c-1.066,0.566-2.094,1.141-3.105,1.698C24.677,28.125,23.6,28.691,22.905,29.568z"/>
	<path style="fill-rule:evenodd;clip-rule:evenodd;" d="M52.073,60.774c0.266,0.608,0.922,0.847,1.457,1.165
		c1.588,0.946,3.313,1.924,4.854,2.96c0.404,0.151,0.697,0.362,1.115,0.631c0.277,0.178,0.906,0.435,0.922,0.776
		c0.025,0.527-1.156,0.906-1.602,1.165c-0.633,0.368-1.189,0.789-1.746,1.019c-2.879,1.76-6.299,3.356-9.318,5.241
		c-0.461,0.289-0.936,0.631-1.408,0.631c-0.391,0-0.938-0.344-1.406-0.631c-5.488-3.354-10.955-6.193-16.404-9.658
		c-0.537-0.341-2.125-1.01-2.379-1.602c-0.238-0.555-0.076-1.537-0.049-2.33c0.1-2.868,0-5.465,0-8.396c0-1.008,0-2.003,0-3.009
		c0-0.936-0.113-1.924,0.146-2.814c1.143,0.36,2.016,1.047,2.912,1.602c1.797,1.111,3.66,2.172,5.629,3.349
		c0.383,0.229,0.883,0.615,1.359,0.874c0.439,0.238,1.18,0.677,1.553,0.679c0.576,0.004,1.617-0.771,2.232-1.067
		c0.777-0.375,1.479-0.799,2.088-1.165c1.436-0.861,2.914-1.587,4.221-2.33c2.803-1.59,5.723-3.17,8.396-4.659
		c5.754-3.203,11.492-6.197,16.793-9.367c0.75-0.449,0.521,0.846,0.533,1.65c0.064,4.096,0.049,7.531,0.049,11.842
		c0,0.711,0.068,1.583-0.098,1.941c-0.127,0.274-0.738,0.567-1.164,0.825c-2.772,1.68-5.988,3.426-8.736,4.951
		c-2.645,1.468-4.998,2.771-7.619,4.173C53.614,59.643,52.755,60.097,52.073,60.774z"/>
</g>
<g id="Layer_1">
</g>
</svg>
