<?xml version="1.0" encoding="iso-8859-1"?>
<!-- Generator: Adobe Illustrator 19.2.0, SVG Export Plug-In . SVG Version: 6.00 Build 0)  -->
<svg version="1.1" xmlns="http://www.w3.org/2000/svg" xmlns:xlink="http://www.w3.org/1999/xlink" x="0px" y="0px"
	 viewBox="0 0 78.831 54.651" style="enable-background:new 0 0 78.831 54.651;" xml:space="preserve">
<g id="Traduction_x5F_OEcumenique_x5F_de_x5F_la_x5F_Bible">
	<path style="fill-rule:evenodd;clip-rule:evenodd;" d="M21.722,0.222c0.144,1.82-0.089,4.168,0,6.542
		c0.053,1.426,0.014,3.293,0.048,5.003c0.011,0.553-0.033,1.189,0.145,1.395c0.237,0.274,1.606,0.192,2.453,0.192
		c5.98,0,12.194,0.009,17.992,0c3.267-0.005,6.809,0.038,10.15-0.096c1.668-0.067,3.339,0.094,5.003,0.048
		c5.113-0.142,10.52,0.117,13.854,1.731c2.339,1.132,4.022,3.022,5.1,5.34c1.26,2.708,0.802,6.181-0.529,8.371
		c-1.354,2.23-3.409,3.399-6.014,4.426c0.198,0.391,0.688,0.338,1.011,0.433c2.459,0.726,4.602,2.033,6.062,3.896
		c1.628,2.079,2.412,5.75,1.347,9.092c-0.998,3.133-3.568,5.03-6.734,6.158c-3.204,1.142-7.361,1.308-11.546,1.154
		c-0.251-0.813-0.145-1.75-0.145-2.646c0-2.604-0.025-5.411-0.096-8.13c-0.534,0.025-0.612,0.655-0.77,0.962
		c-2.981,5.801-8.28,9.832-16.5,10.487c-2.385,0.19-4.606-0.032-6.687-0.433c-1.924-0.371-3.665-1.164-5.244-1.924
		c-2.321-1.119-4.386-2.842-5.965-4.859c-0.526-0.672-1.136-1.379-1.491-2.068c-0.336-0.651-0.362-1.415-1.059-1.78
		c-0.257,0.789-0.145,1.706-0.145,2.598c0,2.584,0.219,5.478,0.048,7.938c-0.994,0.155-2.437,0.248-3.367,0
		c-0.049-3.045,0-6.179,0-9.333c0-6.313-0.111-12.517-0.145-18.617c-0.008-1.552,0.074-3.128,0-4.667
		c-0.071-1.498,0.039-3.017-0.24-4.474c-0.42-0.237-0.903-0.086-1.395-0.096c-5.262-0.117-11.355,0.028-16.693-0.096
		c-0.259-0.836-0.18-2.454-0.048-3.367c5.833-0.164,12.365,0.121,18.088-0.144c0.268-0.833,0.18-2.076,0.192-3.271
		c0.029-2.75,0.012-5.797-0.097-8.515c-0.023-0.612-0.179-1.168,0.337-1.347C19.58-0.201,20.773,0.211,21.722,0.222z M29.323,16.77
		c-2.391,0.113-5.131-0.008-7.312,0.192c-0.159,0.247-0.189,0.616-0.191,0.914c-0.01,1.284,0.048,2.779,0.048,4.233
		c-0.001,1.485-0.102,2.953,0.144,4.186c0.805-0.653,0.934-1.764,1.348-2.646c0.365-0.778,0.972-1.425,1.491-2.069
		c0.547-0.676,1.118-1.307,1.732-1.876c0.679-0.499,1.385-0.986,2.117-1.443c0.753-0.471,1.603-0.765,2.261-1.347
		C30.475,16.721,29.886,16.744,29.323,16.77z M50.73,16.866c0.28,0.447,0.786,0.503,1.203,0.722
		c1.189,0.625,2.348,1.545,3.367,2.502c1.53,1.435,2.552,2.944,3.512,4.811c0.261,0.507,0.364,1.166,0.866,1.539
		c0.159-3.026,0.148-6.494-0.048-9.525c-2.652-0.271-5.74-0.088-8.708-0.145C50.852,16.795,50.802,16.841,50.73,16.866z
		 M67.519,31.298c2.85-0.915,5.33-2.89,5.821-6.013c0.408-2.597-0.622-4.706-1.924-6.014c-1.866-1.631-4.759-2.745-8.323-2.357
		c-0.308,0.62-0.192,1.421-0.192,2.165c0.001,2.499,0.049,4.973,0.049,7.505c0,1.738-0.035,3.455,0.192,5.051
		C64.616,31.91,66.206,31.72,67.519,31.298z M28.073,23.216c-2.574,2.722-4.748,7.128-4.33,12.508
		c0.397,5.099,2.654,8.759,5.629,11.305c3.101,2.655,6.974,4.491,12.604,4.233c5.243-0.241,8.579-2.518,11.497-5.436
		c1.354-1.354,2.482-3.165,3.271-5.196c0.805-2.071,1.325-4.521,1.107-7.264c-0.201-2.525-0.84-4.612-1.876-6.591
		c-0.936-1.789-2.267-3.493-3.753-4.714c-2.922-2.403-7.112-4.78-12.604-4.33C34.43,18.158,30.753,20.383,28.073,23.216z
		 M68.867,50.012c3.489-1.03,6.735-3.27,6.206-7.986c-0.286-2.542-2.243-4.499-4.282-5.58c-1.721-0.913-4.789-1.414-7.36-1.347
		c-0.402,0.179-0.279,0.687-0.288,1.059c-0.092,3.849,0.048,7.896,0.048,11.834c0,0.859-0.127,1.772,0.192,2.55
		C65.345,50.745,67.268,50.483,68.867,50.012z"/>
</g>
<g id="Layer_1">
</g>
</svg>
