<?xml version="1.0" encoding="iso-8859-1"?>
<!-- Generator: Adobe Illustrator 21.0.2, SVG Export Plug-In . SVG Version: 6.00 Build 0)  -->
<svg version="1.1" xmlns="http://www.w3.org/2000/svg" xmlns:xlink="http://www.w3.org/1999/xlink" x="0px" y="0px"
	 viewBox="0 0 70.584 79.273" style="enable-background:new 0 0 70.584 79.273;" xml:space="preserve">
<g id="Travolta_x5F_Fish_x5F_Tavern">
	<path d="M24.587,45.535c1.322,4.708,3.729,9.077,7.087,12.759c0.079,0.086,0.162,0.172,0.241,0.257
		c-3.287,2.473-7.175,4.214-11.443,4.976c-1.056-1.554-2.023-3.257-2.901-5.109c-2.059-4.345-3.094-8.487-3.575-10.901
		C17.64,46.644,21.148,45.982,24.587,45.535 M35.358,18.517c4.658,4.98,7.284,11.561,7.284,18.444c0,1.174-0.077,2.331-0.22,3.467
		c-4.738-0.401-9.394-0.403-14.13-0.01c-0.143-1.132-0.219-2.286-0.219-3.456C28.073,30.077,30.7,23.497,35.358,18.517 M35.36,4.665
		c1.762,0,3.196,1.434,3.196,3.197c0,1.762-1.434,3.196-3.196,3.196c-1.764,0-3.198-1.434-3.198-3.196
		C32.162,6.099,33.596,4.665,35.36,4.665 M56.712,47.548c-0.482,2.416-1.518,6.542-3.568,10.87
		c-0.877,1.851-1.845,3.555-2.901,5.109c-4.267-0.762-8.155-2.502-11.443-4.976c0.081-0.085,0.162-0.171,0.241-0.257
		c3.356-3.677,5.761-8.042,7.083-12.744C49.562,46.003,53.069,46.668,56.712,47.548 M29.293,45.05c4.06-0.303,8.064-0.3,12.126,0.01
		c-1.221,3.928-3.312,7.473-6.061,10.404C32.605,52.531,30.514,48.983,29.293,45.05 M35.358,74.461
		c-4.469-1.204-8.349-3.51-11.612-6.887c4.231-1.116,8.181-3.102,11.612-5.834c3.43,2.733,7.381,4.718,11.612,5.834
		C43.706,70.951,39.825,73.257,35.358,74.461 M1.475,51.147c2.755-0.919,5.413-1.737,7.994-2.455
		c0.549,2.69,1.666,6.999,3.823,11.59c4.714,10.029,12.151,16.549,21.508,18.854l0.558,0.137l0.558-0.137
		c9.356-2.304,16.794-8.824,21.508-18.854c2.146-4.57,3.264-8.861,3.815-11.555c2.542,0.709,5.158,1.515,7.871,2.42l1.475-4.426
		c-8.549-2.85-16.197-4.774-23.529-5.778c0.165-1.313,0.251-2.642,0.251-3.981c0-7.459-2.628-14.615-7.336-20.266h5.484V12.03
		h-3.434c0.76-1.209,1.201-2.638,1.201-4.168C43.222,3.526,39.695,0,35.36,0c-4.336,0-7.863,3.526-7.863,7.862
		c0,1.53,0.441,2.959,1.2,4.168H25.26v4.665h5.484c-4.708,5.651-7.337,12.808-7.337,20.266c0,1.332,0.086,2.656,0.249,3.964
		C16.286,41.923,8.599,43.854,0,46.721L1.475,51.147z"/>
</g>
<g id="Layer_1">
</g>
</svg>
