<?xml version="1.0" encoding="iso-8859-1"?>
<!-- Generator: Adobe Illustrator 19.2.0, SVG Export Plug-In . SVG Version: 6.00 Build 0)  -->
<svg version="1.1" xmlns="http://www.w3.org/2000/svg" xmlns:xlink="http://www.w3.org/1999/xlink" x="0px" y="0px"
	 viewBox="0 0 78.014 77.318" style="enable-background:new 0 0 78.014 77.318;" xml:space="preserve">
<g id="Tre_x5F_B_x5F_Design">
	<path style="fill-rule:evenodd;clip-rule:evenodd;" d="M66.142,38.684c0.291,0.425,0.809,0.599,1.22,0.829
		c2.932,1.645,5.61,3.853,7.415,6.732c2.084,3.324,3.582,7.389,3.123,12.83c-0.396,4.676-2.353,8.449-4.927,11.221
		c-2.681,2.886-5.679,5.001-9.952,6.195c-4.354,1.217-9.726,0.73-15.074,0.731c-14.862,0.003-30.551,0.053-45.905,0.049
		c-0.603,0-1.279,0.109-1.854-0.147c-0.157-0.963-0.162-2.55,0-3.512c3.73-0.179,7.51-0.098,11.269-0.098
		c14.688-0.001,30.064,0,44.979,0c7.408,0,12.187-2.954,15.171-7.562c1.494-2.308,2.634-5.045,2.634-8.732
		c0-6.985-3.794-11.792-8.391-14.343c-2.563-1.422-5.521-2.099-9.269-2.098c-18.592,0.004-37.994,0.127-56.394-0.049
		c-0.264-1.105-0.179-2.992,0-4c6.756-0.092,14.115-0.099,21.172-0.098c3.429,0,7.705,0.468,10.098-0.683
		c2.376-1.144,4.306-3.095,4.342-6.488c0.035-3.278-1.777-5.67-4.146-6.733c-1.298-0.582-2.981-0.586-4.878-0.586
		c-8.97,0.002-17.909,0.15-26.636-0.098c-0.154-0.985-0.162-2.576,0-3.56C2.12,18.31,4.379,18.39,6.675,18.39
		c2.171,0,4.56,0.209,6.586,0c3.216-0.331,3.331-4.878,0.195-5.317c-2.064-0.29-4.54-0.049-6.732-0.049
		c-2.251,0-4.434,0.011-6.586-0.098c-0.161-1.051-0.161-2.754,0-3.805C3.23,8.943,6.746,9.022,10.09,9.023
		c1.127,0,2.281,0.115,3.317,0c2.812-0.314,3.099-4.351,0.585-5.122c-0.98-0.301-2.25-0.098-3.464-0.099
		c-2.582,0-4.684-0.048-7.074-0.049c-1.155,0-2.323,0.132-3.366-0.145c-0.172-0.524-0.042-1.201-0.049-1.854
		C0.034,1.19-0.097,0.464,0.236,0.096c16.145-0.001,31.677-0.051,48.003-0.049c5.282,0.001,11.204-0.345,15.22,0.829
		C69.45,2.628,73.85,6.72,76.289,12.145c0.825,1.833,1.475,3.99,1.659,6.342c0.417,5.327-1.188,9.496-3.22,12.732
		c-1.554,2.476-3.683,4.35-6.098,5.951C67.83,37.702,66.947,38.088,66.142,38.684z M41.361,36.684c4.436,0.001,8.993,0.03,13.123,0
		c3.03-0.022,5.792,0.005,8.098-0.731c2.221-0.71,4.14-1.748,5.756-3.122c3.094-2.632,5.659-6.563,5.903-11.806
		c0.272-5.844-2.3-9.783-5.122-12.636c-1.93-1.944-4.341-3.367-7.61-4.195c-1.591-0.403-3.476-0.439-5.464-0.439
		c-4.281,0.001-8.25,0-12.537,0c-1.673,0.001-3.294,0-4.878,0c-0.5,0.001-1.063-0.117-1.513,0.148
		c-0.057,0.357,0.273,0.593,0.439,0.829c1.277,1.812,2.263,4.747,1.951,7.464c-0.267,2.324-1.086,4.206-2.342,5.805
		c-0.706,0.9-1.579,1.396-2.244,2.244c0.987,0.933,1.996,1.839,2.78,3.073c0.774,1.218,1.39,2.507,1.708,4.146
		c0.553,2.851-0.276,5.523-1.268,7.221c-0.375,0.64-0.888,1.212-1.025,1.854C38.488,36.794,39.931,36.683,41.361,36.684z
		 M24.238,18.39c1.687,0,3.436,0.114,5.122-0.049c0.866-0.084,1.777-0.391,2.439-0.731c2.895-1.492,5.039-5.475,3.464-9.318
		c-0.847-2.065-2.711-3.812-5.122-4.341c-1.341-0.295-2.858-0.196-4.537-0.196c-2.243,0.001-4.438-0.06-6.391,0.148
		c0.016,0.673,0.298,1.295,0.341,2c0.083,1.335-0.286,2.785-0.878,3.756c-0.315,0.518-0.798,0.837-0.976,1.366
		c0.827,1.124,1.843,2.564,1.854,4.488c0.005,0.995-0.277,1.831-0.341,2.732C20.913,18.392,22.578,18.39,24.238,18.39z"/>
</g>
<g id="Layer_1">
</g>
</svg>
