<?xml version="1.0" encoding="iso-8859-1"?>
<!-- Generator: Adobe Illustrator 19.2.0, SVG Export Plug-In . SVG Version: 6.00 Build 0)  -->
<svg version="1.1" xmlns="http://www.w3.org/2000/svg" xmlns:xlink="http://www.w3.org/1999/xlink" x="0px" y="0px"
	 viewBox="0 0 73.484 61.025" style="enable-background:new 0 0 73.484 61.025;" xml:space="preserve">
<g id="TV2_x5F_AR">
	<path style="fill-rule:evenodd;clip-rule:evenodd;" d="M25.977,19.767c-0.324-0.944-0.366-1.856-0.65-2.699
		c-0.579-1.723-1.644-3.146-3.099-3.999c-1.802-1.057-4.521-1.287-6.548-0.351c-2.783,1.288-5.072,4.186-3.898,8.448
		c0.924,3.354,3.308,5.915,5.498,8.197c2.271,2.367,4.317,4.832,6.548,7.148c4.528,4.702,8.829,9.476,13.096,14.297
		c0.11,2.522-0.105,5.192,0,7.697c0.034,0.819,0.186,1.653-0.15,2.35c-5.976,0.016-12.331,0.336-18.345,0.05
		c-1.49-0.07-3.033,0.096-4.549,0.05c-2.986-0.09-6.021-0.027-9.147-0.1c-1.452-0.033-2.938,0.236-4.349-0.1
		c-0.238-2.459-0.162-5.223-0.1-7.799c0.021-0.88-0.133-1.768,0.15-2.549c5.776-0.207,12.212-0.102,18.344-0.1
		c0.826,0,1.681,0.117,2.449-0.15c-0.052-0.698-0.699-1.088-1.1-1.549c-1.203-1.389-2.514-2.731-3.749-4.149
		c-1.836-2.03-3.803-4.078-5.699-6.148c-0.625-0.683-1.172-1.45-1.799-2.149C6.411,33.409,3.7,30.65,1.933,27.314
		c-1.41-2.662-2.203-6.072-1.849-9.746c0.332-3.451,1.34-6.393,2.949-8.848c1.576-2.403,3.511-4.392,5.899-5.898
		c2.522-1.592,5.28-2.548,9.197-2.799c2.139-0.138,4.49,0.357,6.198,0.999c3.448,1.295,6.418,3.219,8.448,5.948
		c1.782,2.396,3.208,4.781,3.849,8.348c0.107,0.597,0.186,1.349,0.3,2.199c0.07,0.527,0.359,1.77,0.1,2.1
		c-0.312,0.396-1.762,0.231-2.549,0.25C31.573,19.936,28.667,19.895,25.977,19.767z"/>
	<path style="fill-rule:evenodd;clip-rule:evenodd;" d="M53.168,49.808c0.672,0.433,1.522,0.187,2.299,0.199
		c4.067,0.066,8.389,0.052,12.647,0.051c1.714-0.001,3.411-0.107,4.998,0.1c0.264,0.809,0.15,1.73,0.15,2.649
		c0,1.711,0,3.527,0,5.398c0,0.883,0.111,1.815-0.15,2.6c-0.653,0.213-1.405,0.196-2.1,0.2c-10.404,0.055-22.359-0.008-33.19-0.15
		c-0.192-2.455-0.1-4.99-0.1-7.697c0-0.811-0.143-1.931,0.05-2.6c0.167-0.58,1.062-1.302,1.55-1.8
		c1.678-1.714,3.1-3.673,4.648-5.349c3.011-3.422,6.286-6.924,9.347-10.597c1.534-1.84,3.172-3.409,4.749-5.249
		c2.046-2.387,4.413-4.372,4.299-8.797c-0.068-2.674-1.56-4.965-3.499-6.049c-2.076-1.16-5.218-0.922-7.348,0.4
		c-1.159,1.227-2.254,2.614-2.699,4.599c-0.146,0.649-0.017,1.384-0.35,2.05c-2.56,0.159-5.469,0.1-8.497,0.1
		c-0.821,0-2.387,0.16-2.649-0.25c-0.227-0.355,0.083-1.472,0.15-1.999c0.618-4.924,2.336-8.503,4.898-11.347
		c2.925-3.248,7.133-5.74,12.546-5.999C62.081-0.07,66.704,3.358,69.864,7.52c1.923,2.79,3.391,5.976,3.599,10.247
		c0.207,4.234-1.125,8.047-2.799,10.896c-1.658,2.824-3.967,5.244-6.099,7.698c-2.168,2.496-4.318,4.983-6.448,7.348
		c-1.225,1.538-2.575,2.925-3.798,4.499C53.928,48.711,53.344,49.14,53.168,49.808z"/>
</g>
<g id="Layer_1">
</g>
</svg>
