<?xml version="1.0" encoding="iso-8859-1"?>
<!-- Generator: Adobe Illustrator 21.0.2, SVG Export Plug-In . SVG Version: 6.00 Build 0)  -->
<svg version="1.1" xmlns="http://www.w3.org/2000/svg" xmlns:xlink="http://www.w3.org/1999/xlink" x="0px" y="0px"
	 viewBox="0 0 15.877 20.763" style="enable-background:new 0 0 15.877 20.763;" xml:space="preserve">
<g id="u_x5F_Bear">
	<path d="M7.538,0.135c0.688-0.406,1.608,0.16,1.69,0.921c0.992,0.182,1.983,0.376,2.971,0.583c0.473,0.028,0.308,0.637,0.435,0.952
		c0.972,0.21,1.946,0.415,2.916,0.633c0.11,0.022,0.176,0.139,0.157,0.246c-0.03,0.319-0.065,0.637-0.097,0.956
		c-0.053,0.5-0.405,0.984-0.913,1.095c-1.083,0.333-2.22,0.951-2.636,2.073c1.02,0.542,1.936,1.302,2.591,2.26
		c1.707,2.414,1.618,5.918-0.204,8.246c-1.038,1.373-2.609,2.319-4.297,2.636c-0.751,0.116-1.576-0.146-2.045-0.762
		c-0.767-0.897-0.467-2.41,0.546-2.992c0.63-0.312,1.332-0.536,1.858-1.02c0.652-0.673,1.038-1.601,1.024-2.54
		c-0.01-1.245,0.022-2.493-0.02-3.737c-0.462-0.021-0.926-0.004-1.389,0.002c0.03,1.26,0.008,2.522,0.01,3.783
		c-0.013,0.737-0.405,1.459-1.032,1.853c-0.729,0.485-1.755,0.451-2.453-0.076c-0.587-0.427-0.948-1.145-0.924-1.872
		c-0.006-1.224,0.017-2.448-0.017-3.671c-0.464-0.01-0.927,0.005-1.391,0.007c0.009,0.949,0.018,1.899,0.012,2.849
		c0.009,0.632-0.053,1.279,0.142,1.891c0.388,1.43,1.742,2.506,3.213,2.607c-0.7,0.833-0.8,2.123-0.204,3.038
		c-0.472,0.532-1.236,0.773-1.929,0.612c-1.105-0.244-2.177-0.726-3.038-1.468c-2.337-1.89-3.179-5.372-1.953-8.12
		c0.608-1.525,1.792-2.794,3.256-3.531c0.25-2.346,1.598-4.518,3.551-5.832C6.949,1.295,6.962,0.461,7.538,0.135z"/>
</g>
<g id="Layer_1">
</g>
</svg>
