<?xml version="1.0" encoding="iso-8859-1"?>
<!-- Generator: Adobe Illustrator 19.2.0, SVG Export Plug-In . SVG Version: 6.00 Build 0)  -->
<svg version="1.1" xmlns="http://www.w3.org/2000/svg" xmlns:xlink="http://www.w3.org/1999/xlink" x="0px" y="0px"
	 viewBox="0 0 73.758 74.333" style="enable-background:new 0 0 73.758 74.333;" xml:space="preserve">
<g id="union_x5F_carbide_x5F_corporation">
	<path style="fill-rule:evenodd;clip-rule:evenodd;" d="M36.072,0.201c0.199,5.166,0.145,11.3,0.145,17.207c0,0.987,0,1.985,0,2.949
		c0,0.996,0.12,1.975,0.049,2.9c-0.208,2.696-2.122,4.438-4.447,4.979c-4.369,0.23-5.63-2.99-7.105-5.8
		c-0.436-0.83-0.948-1.579-1.401-2.369c-0.473-0.824-1.06-1.669-1.305-2.465c-0.608-1.976,1.148-4.119,3.239-3.19
		c1.304,0.579,2.009,2.478,2.803,3.818c0.411,0.693,0.856,1.392,1.257,2.079c0.397,0.679,0.657,1.593,1.45,1.837
		c0.806-0.306,0.532-1.518,0.532-2.32c0-6.465-0.1-13.329,0.145-19.624c0.695-0.313,1.813-0.174,2.852-0.145
		C34.929,0.074,35.605-0.057,36.072,0.201z"/>
	<path style="fill-rule:evenodd;clip-rule:evenodd;" d="M42.212,0.201c0.167,3.359,0.106,7.596,0.145,11.117
		c0.03,2.736,0.013,5.617,0,8.362c-0.004,0.806,0.016,2.257,0.483,2.369c0.764,0.182,1.372-1.42,1.644-1.885
		c0.46-0.786,0.827-1.526,1.257-2.224c0.84-1.365,1.622-3.385,3.239-3.722c1.372-0.286,2.567,0.869,2.803,1.789
		c0.08,0.31,0.063,0.845,0,1.208c-0.203,1.156-1.107,2.304-1.692,3.287c-0.651,1.095-1.087,1.994-1.74,3.19
		c-1.227,2.245-2.467,4.49-5.559,4.544c-0.93,0.016-1.987-0.248-2.659-0.628c-1.56-0.883-2.755-2.575-2.852-4.882
		c-0.214-5.095,0-10.122,0-15.226c0-1.953,0.01-3.872,0-5.704c-0.003-0.533-0.035-1.166,0.242-1.643
		C38.867,0.008,40.941-0.05,42.212,0.201z"/>
	<path style="fill-rule:evenodd;clip-rule:evenodd;" d="M73.581,31.716c0.223,1.347,0.247,3.588,0,4.93
		c-6.87,0.222-13.928-0.009-20.688,0.097c-0.943,0.015-1.971,0.081-2.852-0.048c-1.116-0.164-2.079-0.855-2.707-1.499
		c-1.39-1.423-2.058-4.2-0.918-6.332c0.94-1.759,2.807-2.833,4.833-3.867c1.002-0.511,1.902-1.039,2.803-1.547
		c0.948-0.533,1.957-1.378,3.094-1.45c1.787-0.112,3.007,1.702,2.417,3.384c-0.471,1.342-2.33,2.135-3.722,2.948
		c-0.723,0.423-1.328,0.74-2.127,1.208c-0.565,0.331-3.146,1.728-0.822,1.934c3.093,0.272,6.612,0.097,9.619,0.097
		c1.857,0,3.764,0,5.607,0C70.01,31.571,71.934,31.455,73.581,31.716z"/>
	<path style="fill-rule:evenodd;clip-rule:evenodd;" d="M0.159,36.742c-0.285-0.688-0.103-1.695-0.097-2.659
		c0.005-0.806-0.148-1.668,0.145-2.271c0.824-0.259,1.766-0.145,2.706-0.145c5.677,0,10.682,0.063,16.435-0.097
		c0.999-0.028,2.308,0.141,2.417-0.387c0.089-0.435-0.545-0.823-0.773-0.967c-1.087-0.685-2.162-1.304-3.238-1.934
		c-1.451-0.849-3.445-1.62-3.819-3.045c-0.498-1.9,1.055-3.491,2.852-3.142c0.912,0.177,1.823,0.858,2.707,1.353
		c0.867,0.486,1.695,0.939,2.562,1.45c2.112,1.247,4.394,2.207,5.317,4.302c1.578,3.582-0.969,7.254-4.157,7.637
		c-0.97,0.117-2.011-0.024-2.997,0c-5.226,0.129-11.376,0.047-17.256,0.048C2.041,36.887,1.069,37.004,0.159,36.742z"/>
	<path style="fill-rule:evenodd;clip-rule:evenodd;" d="M36.218,28.864c0.973-0.089,2.328,0.109,3.142,0.387
		c2.25,0.768,4.169,2.655,5.027,4.979c2.142,5.8-2.18,11.349-7.589,11.408c-3.819,0.041-6.639-2.344-7.782-5.607
		c-1.019-2.908-0.211-6.136,1.354-8.072c0.273-0.338,0.639-0.662,0.966-0.967C32.581,29.834,33.814,29.085,36.218,28.864z"/>
	<path style="fill-rule:evenodd;clip-rule:evenodd;" d="M73.581,37.903c0.245,0.676,0.145,1.639,0.145,2.562
		c0,0.908,0.103,1.851-0.145,2.513c-6.677,0.179-13.058,0.048-19.624,0.048c-0.806,0-1.865-0.087-1.934,0.483
		c-0.078,0.65,1.416,1.149,1.837,1.402c0.755,0.454,1.286,0.787,2.03,1.208c1.15,0.652,3.162,1.6,3.674,2.755
		c0.704,1.587-0.366,3.514-2.127,3.577c-0.861,0.031-1.919-0.602-2.707-1.063c-0.87-0.51-1.571-0.903-2.369-1.354
		c-1.533-0.865-3.614-1.856-4.689-2.804c-0.909-0.801-1.757-2.095-1.837-3.625c-0.136-2.629,1.347-4.434,3.045-5.317
		c1.795-0.934,5.193-0.479,7.879-0.532C62.295,37.648,68.179,37.75,73.581,37.903z"/>
	<path style="fill-rule:evenodd;clip-rule:evenodd;" d="M0.208,43.026c-0.29-0.872-0.145-2.064-0.145-3.142
		c0-0.652-0.195-1.356,0.145-1.837c1.116-0.258,2.351-0.145,3.577-0.145c1.201,0,2.433,0,3.673,0c4.495,0,8.258-0.048,12.761-0.048
		c2.002,0,3.691-0.068,4.93,0.677c1.463,0.878,2.715,2.466,2.707,4.833c-0.005,1.639-0.704,2.919-1.595,3.867
		c-1.959,1.468-4.478,2.759-6.767,4.06c-0.9,0.511-2.067,1.476-3.48,1.16c-1.326-0.296-2.303-1.936-1.691-3.383
		c0.557-1.321,2.365-2.075,3.673-2.804c0.613-0.341,1.3-0.753,2.03-1.208c0.446-0.278,1.852-0.863,1.74-1.499
		c-0.102-0.583-1.547-0.435-2.417-0.435c-2.833,0-5.729,0.173-8.411,0.048C7.337,43.004,3.541,43.299,0.208,43.026z"/>
	<path style="fill-rule:evenodd;clip-rule:evenodd;" d="M42.453,74.203c-0.664,0.218-1.552,0.097-2.417,0.096
		c-0.846,0-1.764,0.104-2.417-0.145c-0.247-0.696-0.145-1.465-0.145-2.223c0-4.927-0.085-10.796-0.145-15.854
		c-0.025-2.063-0.345-4.307,0.193-6.042c0.626-2.019,2.574-3.555,4.882-3.722c1.4-0.101,3.039,0.676,3.867,1.402
		c1.153,1.012,2.021,2.838,2.996,4.592c0.443,0.795,0.955,1.679,1.402,2.417c0.636,1.051,1.643,2.246,1.209,3.77
		c-0.34,1.195-1.761,2.215-3.287,1.595c-1.349-0.548-2.13-2.465-2.9-3.771c-0.395-0.669-0.814-1.387-1.257-2.078
		c-0.289-0.452-0.933-1.825-1.498-1.789c-0.806,0.052-0.532,2.26-0.532,3.287c0,5,0.145,9.572,0.145,14.839
		C42.55,71.864,42.705,73.122,42.453,74.203z"/>
	<path style="fill-rule:evenodd;clip-rule:evenodd;" d="M36.315,74.203c-1.325,0.136-3.393,0.211-4.641-0.049
		c-0.351-1.364-0.181-3.737-0.193-5.413c-0.032-4.289-0.113-8.949-0.145-13.292c-0.006-0.878,0.043-2.803-0.483-2.9
		c-0.674-0.125-1.261,1.358-1.547,1.837c-0.483,0.807-0.799,1.351-1.257,2.127c-0.794,1.346-1.576,3.314-3.045,3.673
		c-1.595,0.39-3.048-0.824-3.093-2.32c-0.031-1.017,0.594-2.029,1.063-2.803c0.511-0.843,0.906-1.577,1.402-2.417
		c0.922-1.564,1.836-3.637,2.948-4.737c0.961-0.951,2.528-1.736,4.398-1.499c1.971,0.25,3.687,1.871,4.254,3.577
		c0.468,1.411,0.287,3.409,0.338,5.172c0.059,2.039,0,4.187,0,6.284c0,2.151,0.195,4.311,0.097,6.38
		C36.305,70.053,36.684,72.203,36.315,74.203z"/>
</g>
<g id="Layer_1">
</g>
</svg>
