<?xml version="1.0" encoding="iso-8859-1"?>
<!-- Generator: Adobe Illustrator 21.0.2, SVG Export Plug-In . SVG Version: 6.00 Build 0)  -->
<svg version="1.1" xmlns="http://www.w3.org/2000/svg" xmlns:xlink="http://www.w3.org/1999/xlink" x="0px" y="0px"
	 viewBox="0 0 16.365 21.38" style="enable-background:new 0 0 16.365 21.38;" xml:space="preserve">
<g id="Unistream">
	<path d="M0.926,0.004c0.329-0.032,0.683,0.107,0.865,0.392C2.071,0.782,1.99,1.37,1.617,1.668C1.324,1.911,0.877,1.94,0.547,1.755
		C0.137,1.541-0.051,0.994,0.143,0.573C0.271,0.257,0.589,0.037,0.926,0.004z"/>
	<path d="M15.318,0.07c0.521-0.085,1.041,0.356,1.045,0.883c0.032,0.407-0.241,0.808-0.628,0.935
		c-0.541,0.206-1.196-0.211-1.224-0.792C14.444,0.609,14.831,0.121,15.318,0.07z"/>
	<path d="M2.591,1.905c0.443-0.061,0.86,0.374,0.772,0.814c-0.063,0.54-0.815,0.804-1.183,0.39C1.753,2.735,2.027,1.944,2.591,1.905
		z"/>
	<path d="M13.717,1.951c0.43-0.039,0.802,0.4,0.717,0.818c-0.05,0.325-0.352,0.609-0.69,0.586c-0.369,0.021-0.695-0.322-0.687-0.685
		C13.037,2.305,13.348,1.956,13.717,1.951z"/>
	<path d="M0.893,3.125c0.334-0.035,0.695,0.104,0.886,0.387c0.237,0.339,0.203,0.83-0.064,1.142c-0.3,0.377-0.897,0.435-1.281,0.153
		C-0.021,4.501-0.084,3.792,0.3,3.404C0.465,3.257,0.672,3.151,0.893,3.125z"/>
	<path d="M15.286,3.19c0.603-0.108,1.19,0.484,1.041,1.088c-0.072,0.429-0.476,0.78-0.915,0.765
		c-0.409,0.014-0.798-0.288-0.897-0.682C14.35,3.837,14.739,3.244,15.286,3.19z"/>
	<path d="M3.881,3.52C4.303,3.469,4.605,4,4.356,4.34C4.179,4.626,3.728,4.661,3.515,4.4C3.221,4.095,3.459,3.528,3.881,3.52z"/>
	<path d="M12.43,3.568c0.273-0.069,0.572,0.13,0.62,0.406c0.069,0.297-0.165,0.63-0.476,0.639c-0.233,0.022-0.466-0.134-0.529-0.36
		C11.94,3.97,12.133,3.625,12.43,3.568z"/>
	<path d="M2.543,4.939c0.561-0.115,1.032,0.593,0.704,1.065C3.096,6.26,2.773,6.4,2.484,6.324C2.169,6.249,1.933,5.935,1.95,5.611
		C1.951,5.282,2.219,4.984,2.543,4.939z"/>
	<path d="M13.602,4.99c0.485-0.114,0.942,0.409,0.797,0.876c-0.101,0.508-0.82,0.71-1.16,0.313
		C12.837,5.817,13.064,5.063,13.602,4.99z"/>
	<path d="M5.035,5.332C5.45,5.204,5.707,5.841,5.343,6.054c-0.229,0.165-0.6-0.012-0.607-0.297C4.708,5.564,4.847,5.375,5.035,5.332
		z"/>
	<path d="M11.274,5.353c0.3-0.07,0.561,0.284,0.426,0.553c-0.094,0.261-0.481,0.32-0.648,0.098
		C10.855,5.793,10.983,5.395,11.274,5.353z"/>
	<path d="M0.973,6.227c0.708-0.05,1.214,0.836,0.814,1.42C1.479,8.192,0.628,8.238,0.247,7.75c-0.269-0.294-0.283-0.77-0.065-1.096
		C0.35,6.388,0.662,6.23,0.973,6.227z"/>
	<path d="M15.302,6.294c0.335-0.038,0.681,0.126,0.866,0.407c0.389,0.521,0.033,1.349-0.607,1.436
		c-0.511,0.109-1.062-0.304-1.09-0.828C14.41,6.817,14.807,6.329,15.302,6.294z"/>
	<path d="M3.781,6.655c0.482-0.143,0.866,0.523,0.511,0.873c-0.243,0.251-0.758,0.195-0.88-0.154
		C3.28,7.087,3.468,6.712,3.781,6.655z"/>
	<path d="M12.397,6.687c0.218-0.045,0.464,0.065,0.562,0.268c0.136,0.238,0.048,0.597-0.215,0.705
		c-0.258,0.144-0.643,0.021-0.732-0.27C11.9,7.102,12.085,6.74,12.397,6.687z"/>
	<path d="M2.593,8.092c0.289-0.023,0.574,0.158,0.69,0.421c0.221,0.46-0.197,1.051-0.707,0.984C2.234,9.475,1.95,9.165,1.937,8.827
		C1.914,8.46,2.222,8.105,2.593,8.092z"/>
	<path d="M13.649,8.142c0.492-0.072,0.9,0.477,0.722,0.932c-0.121,0.392-0.613,0.595-0.973,0.396
		c-0.32-0.161-0.474-0.588-0.317-0.912C13.176,8.329,13.401,8.159,13.649,8.142z"/>
	<path d="M5.035,8.421c0.291-0.08,0.556,0.244,0.452,0.518C5.405,9.233,4.978,9.298,4.802,9.055
		C4.619,8.836,4.754,8.469,5.035,8.421z"/>
	<path d="M11.34,8.438c0.327-0.01,0.502,0.431,0.284,0.662c-0.179,0.229-0.581,0.142-0.659-0.135
		C10.872,8.72,11.077,8.426,11.34,8.438z"/>
	<path d="M0.96,9.33C1.285,9.327,1.62,9.492,1.778,9.784c0.239,0.388,0.144,0.939-0.214,1.221c-0.36,0.292-0.929,0.263-1.259-0.062
		c-0.247-0.236-0.353-0.61-0.252-0.938C0.164,9.612,0.554,9.33,0.96,9.33z"/>
	<path d="M15.318,9.395c0.317-0.029,0.639,0.126,0.821,0.387c0.281,0.379,0.214,0.97-0.157,1.266
		c-0.295,0.26-0.761,0.29-1.091,0.081c-0.385-0.23-0.541-0.752-0.368-1.161C14.651,9.649,14.973,9.413,15.318,9.395z"/>
	<path d="M3.764,9.759c0.423-0.124,0.815,0.392,0.587,0.767c-0.184,0.387-0.811,0.354-0.955-0.049
		C3.267,10.191,3.454,9.817,3.764,9.759z"/>
	<path d="M12.413,9.79c0.401-0.096,0.755,0.374,0.572,0.737c-0.133,0.362-0.684,0.421-0.893,0.1
		C11.862,10.337,12.041,9.843,12.413,9.79z"/>
	<path d="M2.543,11.211c0.359-0.048,0.722,0.227,0.773,0.586c0.07,0.393-0.263,0.798-0.663,0.804
		c-0.462,0.039-0.857-0.465-0.695-0.904C2.036,11.439,2.277,11.242,2.543,11.211z"/>
	<path d="M13.619,11.261c0.475-0.082,0.906,0.439,0.744,0.89c-0.124,0.509-0.858,0.676-1.183,0.26
		C12.803,12.027,13.085,11.298,13.619,11.261z"/>
	<path d="M5.018,11.525c0.202-0.053,0.429,0.093,0.466,0.298c0.051,0.193-0.083,0.401-0.269,0.456
		c-0.206,0.071-0.456-0.069-0.498-0.285C4.658,11.788,4.812,11.566,5.018,11.525z"/>
	<path d="M11.292,11.542c0.328-0.04,0.546,0.396,0.325,0.637c-0.177,0.245-0.609,0.154-0.67-0.143
		C10.874,11.81,11.058,11.554,11.292,11.542z"/>
	<path d="M0.973,12.433c0.482-0.007,0.925,0.413,0.917,0.9c0.031,0.425-0.266,0.851-0.686,0.945C0.648,14.452,0.006,14,0.002,13.413
		C-0.036,12.883,0.446,12.406,0.973,12.433z"/>
	<path d="M15.269,12.5c0.311-0.035,0.632,0.1,0.826,0.346c0.359,0.426,0.219,1.15-0.275,1.408c-0.47,0.279-1.151,0.037-1.324-0.485
		C14.267,13.224,14.676,12.539,15.269,12.5z"/>
	<path d="M3.864,12.846c0.279-0.008,0.544,0.235,0.533,0.519c0.018,0.284-0.236,0.552-0.522,0.54
		c-0.255,0.014-0.49-0.192-0.528-0.441C3.288,13.158,3.549,12.84,3.864,12.846z"/>
	<path d="M12.38,12.896c0.204-0.047,0.43,0.041,0.545,0.217c0.167,0.24,0.09,0.606-0.161,0.757
		c-0.245,0.152-0.612,0.057-0.732-0.212C11.87,13.369,12.053,12.959,12.38,12.896z"/>
	<path d="M5.134,13.653c0.261-0.051,0.499,0.218,0.44,0.472c-0.037,0.273-0.393,0.419-0.609,0.246
		C4.67,14.187,4.79,13.688,5.134,13.653z"/>
	<path d="M11.01,13.687c0.232-0.072,0.496,0.13,0.487,0.372c0.02,0.209-0.166,0.413-0.376,0.408
		c-0.188,0.009-0.369-0.139-0.399-0.325C10.68,13.945,10.817,13.738,11.01,13.687z"/>
	<path d="M2.708,14.065c0.438-0.1,0.897,0.303,0.831,0.754c-0.012,0.563-0.786,0.855-1.175,0.453
		C1.95,14.913,2.162,14.147,2.708,14.065z"/>
	<path d="M13.42,14.1c0.302-0.033,0.611,0.159,0.71,0.447c0.11,0.278,0.018,0.618-0.214,0.806c-0.231,0.193-0.588,0.2-0.832,0.025
		c-0.302-0.2-0.385-0.649-0.192-0.951C13.003,14.243,13.207,14.12,13.42,14.1z"/>
	<path d="M4.458,14.826c0.416-0.045,0.718,0.48,0.474,0.819c-0.173,0.278-0.603,0.323-0.827,0.081
		C3.793,15.425,4.016,14.824,4.458,14.826z"/>
	<path d="M11.769,14.875c0.417-0.12,0.79,0.389,0.579,0.758c-0.124,0.26-0.478,0.373-0.723,0.215
		C11.229,15.634,11.323,14.961,11.769,14.875z"/>
	<path d="M5.977,14.958c0.244-0.035,0.473,0.202,0.431,0.445c-0.019,0.28-0.384,0.454-0.608,0.279
		C5.515,15.492,5.627,14.984,5.977,14.958z"/>
	<path d="M10.298,14.974c0.262-0.015,0.472,0.28,0.377,0.523c-0.069,0.25-0.408,0.358-0.608,0.192
		C9.779,15.484,9.934,14.959,10.298,14.974z"/>
	<path d="M7.346,15.767c0.217-0.01,0.414,0.188,0.402,0.405c-0.001,0.203-0.189,0.38-0.391,0.374
		c-0.213,0.007-0.411-0.193-0.392-0.407C6.964,15.938,7.15,15.769,7.346,15.767z"/>
	<path d="M8.864,15.78c0.235-0.053,0.482,0.169,0.453,0.409c-0.001,0.264-0.32,0.453-0.552,0.324
		C8.431,16.372,8.503,15.826,8.864,15.78z"/>
	<path d="M1.801,15.849c0.259-0.025,0.525,0.067,0.713,0.248c0.38,0.313,0.383,0.943,0.056,1.296
		c-0.409,0.512-1.315,0.356-1.549-0.249C0.743,16.585,1.187,15.877,1.801,15.849z"/>
	<path d="M14.378,15.899c0.282-0.019,0.553,0.114,0.75,0.309c0.308,0.336,0.3,0.906-0.013,1.236
		c-0.226,0.269-0.617,0.38-0.952,0.276c-0.316-0.091-0.563-0.366-0.641-0.683C13.376,16.495,13.819,15.909,14.378,15.899z"/>
	<path d="M5.944,16.395c0.409-0.079,0.741,0.411,0.539,0.767c-0.15,0.323-0.64,0.385-0.857,0.097
		C5.362,16.969,5.553,16.443,5.944,16.395z"/>
	<path d="M4.111,16.444c0.319-0.067,0.663,0.124,0.78,0.427c0.162,0.363-0.056,0.827-0.437,0.937
		c-0.342,0.12-0.751-0.078-0.876-0.417C3.408,16.997,3.689,16.507,4.111,16.444z"/>
	<path d="M10.285,16.46c0.246-0.008,0.477,0.186,0.518,0.427c0.071,0.301-0.182,0.628-0.492,0.632
		c-0.284,0.017-0.551-0.235-0.54-0.521C9.756,16.717,10.003,16.456,10.285,16.46z"/>
	<path d="M11.918,16.476c0.543-0.126,1.011,0.538,0.734,1.014c-0.127,0.271-0.45,0.433-0.743,0.371
		c-0.284-0.049-0.514-0.3-0.555-0.583C11.286,16.918,11.555,16.532,11.918,16.476z"/>
	<path d="M8.072,17.02c0.254-0.058,0.531,0.109,0.602,0.359c0.099,0.277-0.088,0.613-0.377,0.673
		c-0.286,0.077-0.6-0.136-0.639-0.428C7.603,17.353,7.8,17.067,8.072,17.02z"/>
	<path d="M6.619,17.91c0.55-0.132,1.027,0.541,0.741,1.022c-0.124,0.247-0.407,0.402-0.681,0.373
		c-0.316-0.024-0.584-0.298-0.624-0.609C5.998,18.341,6.264,17.97,6.619,17.91z"/>
	<path d="M9.575,17.912c0.312-0.028,0.619,0.187,0.708,0.485c0.119,0.341-0.075,0.757-0.417,0.878
		c-0.313,0.129-0.701-0.02-0.85-0.324C8.767,18.533,9.082,17.927,9.575,17.912z"/>
	<path d="M4.441,18.572c0.282-0.041,0.581,0.059,0.781,0.262c0.325,0.307,0.365,0.856,0.104,1.216
		c-0.188,0.279-0.534,0.414-0.864,0.371c-0.43-0.011-0.791-0.399-0.831-0.817C3.56,19.117,3.953,18.625,4.441,18.572z"/>
	<path d="M11.605,18.606c0.338-0.064,0.696,0.103,0.892,0.381c0.257,0.357,0.222,0.896-0.097,1.204
		c-0.262,0.283-0.702,0.323-1.049,0.19c-0.432-0.204-0.643-0.761-0.457-1.2C11.01,18.883,11.286,18.652,11.605,18.606z"/>
	<path d="M7.99,19.531c0.577-0.13,1.166,0.414,1.08,0.999c-0.029,0.517-0.554,0.938-1.066,0.834
		c-0.398-0.057-0.73-0.403-0.775-0.802C7.162,20.09,7.518,19.607,7.99,19.531z"/>
</g>
<g id="Layer_1">
</g>
</svg>
