<?xml version="1.0" encoding="iso-8859-1"?>
<!-- Generator: Adobe Illustrator 19.2.0, SVG Export Plug-In . SVG Version: 6.00 Build 0)  -->
<svg version="1.1" xmlns="http://www.w3.org/2000/svg" xmlns:xlink="http://www.w3.org/1999/xlink" x="0px" y="0px"
	 viewBox="0 0 72.678 90.428" style="enable-background:new 0 0 72.678 90.428;" xml:space="preserve">
<g id="United_x5F_Banks_x5F_of_x5F_Colorado">
	<path style="fill-rule:evenodd;clip-rule:evenodd;" d="M53.369,34.3c-3.07,3.446-6.379,6.653-9.954,9.595
		C36.134,36.603,29.28,29.42,21.587,22.187c-0.752-0.707-2.377-2.97-3.118-2.999c-1.068-0.042-2.708,2.366-3.718,3.358
		c-0.939,0.922-2.889,3.408-3.718,3.358c-0.391-0.024-2.012-1.8-2.519-2.279c-2.427-2.3-4.869-5.127-7.196-7.075
		C6.629,10.706,12.907,5.832,18.229,0C30.232,11.144,41.913,22.61,53.369,34.3z"/>
	<path style="fill-rule:evenodd;clip-rule:evenodd;" d="M72.558,36.579c-6.238-5.516-11.789-11.718-17.749-17.51
		c-2.629,2.128-4.679,4.835-7.316,6.955c-3.545-2.812-6.365-6.348-9.714-9.354c5.312-5.881,11.547-10.839,17.03-16.55
		c5.938,5.854,12.154,11.432,17.87,17.51C72.536,23.519,72.539,30.602,72.558,36.579z"/>
	<path style="fill-rule:evenodd;clip-rule:evenodd;" d="M0.24,17.63c5.906,5.407,11.477,11.15,17.15,16.79
		c-2.893,3.503-6.557,6.236-9.594,9.595c-1.362-1.064-2.459-2.282-3.838-3.599c-1-0.954-3.242-2.503-3.718-3.718
		c-0.381-0.972-0.018-2.732,0-3.838C0.309,28.649,0.141,22.65,0.24,17.63z"/>
	<path style="fill-rule:evenodd;clip-rule:evenodd;" d="M71.358,37.778c-7.801,8.269-15.871,16.271-24.106,24.105
		c-3.417-3.059-6.587-6.365-9.714-9.714c8.033-7.958,16.092-15.89,24.106-23.866C65.142,31.201,68.078,34.662,71.358,37.778z"/>
	<path style="fill-rule:evenodd;clip-rule:evenodd;" d="M35.379,37.897c-7.833,8.118-16.023,15.88-24.106,23.747
		c-3.523-2.834-6.399-6.314-9.714-9.354c7.878-8.152,16.084-15.978,24.225-23.866C29.045,31.519,32.203,34.718,35.379,37.897z"/>
	<path style="fill-rule:evenodd;clip-rule:evenodd;" d="M54.568,71.238c1.733-1.625,3.508-3.268,5.397-5.157
		c0.422-0.422,1.344-1.686,1.799-1.679c0.609,0.01,1.875,1.84,2.399,2.398c2.267,2.418,4.918,4.609,7.076,6.956
		c-5.296,5.858-11.371,10.937-16.79,16.671c-11.687-11.42-23.308-22.905-34.78-34.54c2.99-3.327,6.447-6.825,9.714-9.475
		C37.968,54.497,46.13,63.006,54.568,71.238z"/>
	<path style="fill-rule:evenodd;clip-rule:evenodd;" d="M72.318,72.318c-5.298-4.654-11.252-10.961-16.55-16.431
		c2.901-3.415,6.338-6.294,9.355-9.595c1.251,0.894,2.305,2.075,3.838,3.718c0.949,1.018,3.2,2.596,3.478,3.479
		c0.358,1.138,0,3.34,0,4.797C72.438,62.93,72.537,67.813,72.318,72.318z"/>
	<path style="fill-rule:evenodd;clip-rule:evenodd;" d="M0.24,53.369c6.349,5.524,11.938,11.808,18.109,17.51
		c2.544-2.133,4.696-4.658,7.196-6.836c3.422,3.054,6.484,6.468,9.835,9.594c-5.598,5.756-11.588,11.119-17.39,16.671
		C12.061,84.323,5.841,78.629,0,72.558C0.206,67.066,0.006,59.749,0.24,53.369z"/>
</g>
<g id="Layer_1">
</g>
</svg>
