<?xml version="1.0" encoding="iso-8859-1"?>
<!-- Generator: Adobe Illustrator 19.2.0, SVG Export Plug-In . SVG Version: 6.00 Build 0)  -->
<svg version="1.1" xmlns="http://www.w3.org/2000/svg" xmlns:xlink="http://www.w3.org/1999/xlink" x="0px" y="0px"
	 viewBox="0 0 84.186 83.095" style="enable-background:new 0 0 84.186 83.095;" xml:space="preserve">
<g id="Universitat_x5F_der_x5F_Kunste_x5F_Berlin">
	<path style="fill-rule:evenodd;clip-rule:evenodd;" d="M84.015,0.176c0.124,6.956,0.103,13.973,0.103,20.943
		c-0.001,20.536,0.184,41.464-0.052,61.751c-13.818,0.264-27.901,0.155-41.836,0.154c-13.943-0.001-28.033,0.188-41.991-0.051
		c-0.271-0.792-0.154-1.643-0.154-2.47c0-19.784-0.053-39.746-0.051-59.692C0.035,13.863-0.091,6.959,0.137,0.228
		c25.247-0.181,50.919-0.154,76.777-0.154c1.787,0,3.678,0.025,5.3-0.052C82.833-0.007,83.539-0.043,84.015,0.176z M75.061,5.888
		c-8.075,0-16.899,0-25.06,0.155c-0.203,1.553-0.103,3.202-0.103,4.837c0,4.753-0.126,9.879,0.103,14.82
		c1.093,0.277,2.247,0.154,3.396,0.154c8.287,0,16.816,0.036,24.803-0.154c0.144-6.317,0.229-13.476-0.051-19.657
		C77.16,5.766,76.108,5.888,75.061,5.888z M27.976,5.991C26.241,6.07,24.513,5.86,22.83,5.94C17.26,6.203,11.546,5.764,5.952,6.094
		C5.694,6.835,5.775,7.663,5.797,8.461c0.156,5.606-0.199,11.657,0.154,17.291c0.713,0.273,1.509,0.154,2.264,0.154
		c10.765-0.001,20.782-0.16,31.185-0.103c1.536,0.008,3.101,0.22,4.58-0.103c0.148-6.717,0.201-13.272-0.051-19.657
		C38.658,5.976,33.202,5.754,27.976,5.991z M6.003,31.823c-0.292,0.728-0.129,1.523-0.154,2.316c-0.124,3.968,0,8.363,0,12.453
		c0,1.678-0.125,3.35,0.154,4.889c0.711,0.273,1.514,0.154,2.265,0.154c9.024,0,17.649-0.052,26.295-0.052
		c3.17,0,6.326,0.052,9.417-0.103c0.274-0.743,0.154-1.564,0.154-2.368c0-5.868,0.026-11.584-0.154-17.341
		C31.468,31.501,18.601,31.689,6.003,31.823z M51.544,31.618c-0.441,0.001-1.066,0.03-1.492,0.154
		c-0.278,1.219-0.154,2.518-0.154,3.808c0,5.045-0.061,10.063,0.154,14.717c0.706-0.114,1.279-0.599,1.801-1.029
		c1.59-1.31,3.412-2.357,5.095-3.499c6.524-4.43,13.096-8.912,19.554-13.328c0.265-0.181,0.739-0.292,0.721-0.721
		C68.639,31.573,59.883,31.603,51.544,31.618z M75.01,40.571c-2.944,1.972-5.911,4.034-8.748,5.918
		c-3.441,2.285-6.775,4.712-10.189,6.896c-0.485,0.31-1.09,0.561-1.338,1.132c1.831,1.476,3.856,2.695,5.815,4.014
		c5.368,3.614,10.861,7.211,16.158,10.857c0.463,0.319,0.926,0.811,1.543,0.823c0.206-9.575,0.102-20.542,0.052-29.846
		c-0.003-0.595,0.14-1.249-0.154-1.801c-0.035,0-0.069,0-0.103,0C77.033,39.09,76.046,39.877,75.01,40.571z M27.461,57.347
		c-7.308,0-14.585-0.019-21.458,0.154C5.795,62.358,5.9,67.246,5.9,72.322c0,1.647-0.109,3.289,0.102,4.785
		c0.712,0.274,1.522,0.155,2.265,0.155c10.466,0,20.969-0.053,31.081-0.051c1.566,0,3.16,0.219,4.683-0.104
		c0.188-4.728,0.103-9.97,0.103-14.82c0-1.648,0.125-3.305-0.154-4.837C38.628,57.19,33.16,57.347,27.461,57.347z M50.001,58.737
		c-0.1,1.371-0.044,3.09-0.052,4.683c-0.017,3.161,0.049,6.134,0,9.16c-0.025,1.563-0.104,3.13,0.154,4.58
		c4.435,0.188,9.09,0.103,13.689,0.103c4.596,0,9.194-0.009,13.533-0.155c-0.345-0.59-0.992-0.927-1.543-1.286
		c-0.563-0.366-1.146-0.746-1.698-1.132c-6.741-4.711-13.675-9.04-20.48-13.791c-0.932-0.65-2.415-1.933-3.448-2.315
		C50.081,58.611,50.029,58.662,50.001,58.737z"/>
</g>
<g id="Layer_1">
</g>
</svg>
