<?xml version="1.0" encoding="iso-8859-1"?>
<!-- Generator: Adobe Illustrator 19.2.0, SVG Export Plug-In . SVG Version: 6.00 Build 0)  -->
<svg version="1.1" xmlns="http://www.w3.org/2000/svg" xmlns:xlink="http://www.w3.org/1999/xlink" x="0px" y="0px"
	 viewBox="0 0 78.219 77.498" style="enable-background:new 0 0 78.219 77.498;" xml:space="preserve">
<g id="University_x5F_of_x5F_Notre_x5F_Dame">
	<path style="fill-rule:evenodd;clip-rule:evenodd;" d="M0.345,0c7.094,2.347,12.741,6.636,17.691,11.019
		c2.579,2.283,4.722,4.84,6.824,7.481c2.144,2.693,3.729,5.757,5.409,8.896c1.605,3,3.015,6.56,3.993,10.362
		c0.982,3.82,1.928,7.991,1.77,12.535c-0.158,4.514-0.011,9.114-0.051,13.648c-0.03,3.44,0.165,6.898,0.051,10.21
		c-0.036,1.041,0.108,2.12-0.202,3.134c-0.934,0.243-2.809,0.25-3.741,0c-0.358-4.262-0.019-8.565-0.152-12.788
		c-0.199-6.365,0.485-12.841-0.252-18.854c-0.722-5.884-2.33-10.962-4.499-15.518c-2.895-6.08-6.634-11.147-11.171-15.517
		c-2.27-2.187-4.655-4.262-7.33-6.016C7.336,7.708,5.92,6.919,4.49,6.116c-1.408-0.79-2.983-1.327-4.347-2.325
		c-0.052-1.083-0.149-2.64,0.05-3.639C0.221,0.079,0.272,0.028,0.345,0z"/>
	<path style="fill-rule:evenodd;clip-rule:evenodd;" d="M46.039,77.286c-0.93,0.252-2.809,0.242-3.74,0
		c-0.274-1.665-0.152-3.422-0.151-5.156c0-5.194,0-10.635,0-15.872c0-3.646-0.165-7.131,0.202-10.362
		c1.073-9.456,4.302-16.807,8.239-23.454c1.623-2.74,3.768-5.084,5.662-7.582c1.094-1.444,2.624-2.667,3.942-3.942
		c3.54-3.188,7.776-6.222,12.485-8.644c1.16-0.597,2.319-1.145,3.64-1.668c0.456-0.181,0.938-0.515,1.364-0.556
		c0.875-0.085,0.321,3.101,0.404,3.69c-0.483,0.711-1.367,0.918-2.072,1.264c-5.086,2.496-9.782,5.662-13.698,9.402
		c-1.75,1.561-3.292,3.305-4.802,5.105c-1.499,1.787-2.751,3.861-3.994,5.914c-3.703,6.12-6.571,13.331-7.278,22.392
		c-0.242,3.1-0.051,6.448-0.051,9.856c0,5.714,0,11.569,0,17.338C46.191,75.77,46.308,76.568,46.039,77.286z"/>
	<path style="fill-rule:evenodd;clip-rule:evenodd;" d="M0.395,5.763c4.459,1.886,8.712,4.332,12.08,7.278
		c2.291,2.004,4.423,4.181,6.42,6.47c0.998,1.143,1.807,2.447,2.73,3.69c1.842,2.481,3.25,5.28,4.65,8.189
		c2.148,4.464,3.558,9.308,4.196,15.114c0.214,1.95,0.149,3.994,0.202,6.217c0.164,6.875-0.04,14.248,0,21.634
		c0.005,0.979,0.131,1.981-0.152,2.932c-0.884,0.241-2.707,0.252-3.589,0c-0.273-0.915-0.152-1.898-0.152-2.831
		c0.001-6.636,0-13.785,0-20.471c0.001-7.826-1.277-14.271-3.74-19.916c-1.796-4.116-4.023-7.768-6.672-11.07
		c-0.443-0.552-0.832-1.148-1.315-1.668c-0.485-0.523-0.844-1.113-1.314-1.618c-0.91-0.976-2.038-1.881-3.083-2.83
		c-2.632-2.39-5.311-4.276-8.694-6.065c-0.596-0.315-1.643-0.745-1.819-1.112c-0.189-0.393-0.081-1.17-0.102-1.92
		C0.022,7.092,0.014,6.08,0.244,5.864C0.281,5.816,0.336,5.787,0.395,5.763z"/>
	<path style="fill-rule:evenodd;clip-rule:evenodd;" d="M78.086,9.655c-0.403,0.63-1.172,0.895-1.769,1.213
		c-1.924,1.025-3.758,2.146-5.51,3.387c-2.312,1.636-4.331,3.522-6.318,5.51c-1.983,1.983-3.722,4.17-5.257,6.571
		c-0.774,1.21-1.597,2.374-2.274,3.64c-0.689,1.287-1.198,2.662-1.82,4.094c-1.174,2.708-2.167,5.722-2.83,8.997
		c-1.332,6.576-0.91,14.838-0.91,22.746c0,2.952,0,5.945,0,8.795c0,0.907,0.141,1.873-0.202,2.729
		c-0.97,0.139-2.701,0.223-3.589-0.051c-0.25-0.947-0.152-1.957-0.152-2.932c0.001-7.265-0.001-15.018,0-22.19
		c0-4.297,0.342-8.025,1.213-11.525c1.5-6.028,3.801-10.935,6.672-15.619c0.421-0.688,0.728-1.421,1.163-2.022
		c1.774-2.452,3.668-4.79,5.864-6.874c3.224-3.06,6.709-5.832,10.969-8.138c0.628-0.34,1.329-0.739,2.072-1.112
		c0.528-0.266,2-1.113,2.375-1.062C78.501,5.912,78.125,9.07,78.086,9.655z"/>
	<path style="fill-rule:evenodd;clip-rule:evenodd;" d="M0.294,11.626c0.461-0.014,1.438,0.498,2.073,0.859
		c4.213,2.398,7.999,5.437,11.069,8.846c1.774,1.969,3.367,4.242,4.852,6.521c1.559,2.391,2.761,4.895,3.842,7.531
		c1.102,2.688,2.085,5.587,2.628,8.795c0.533,3.149,0.606,6.729,0.606,10.766c0.001,6.321,0,13.08,0,19.713
		c0,0.761,0.133,2.321-0.202,2.628c-0.289,0.265-1.226,0.152-1.87,0.152c-0.71,0-1.435,0.082-1.82-0.152
		c-0.266-0.786-0.152-1.658-0.152-2.477c0.001-5.935,0-12.228,0-18.197c0.001-3.578,0.102-6.931-0.353-10.059
		c-0.883-6.064-2.784-10.924-5.358-15.417c-2.562-4.47-5.644-8.03-9.503-11.271c-0.888-0.746-1.972-1.488-2.983-2.224
		c-0.444-0.323-0.975-0.667-1.567-1.011c-0.552-0.321-1.333-0.726-1.466-1.112c-0.153-0.444-0.075-1.224-0.051-1.92
		c0.025-0.704-0.055-1.339,0.102-1.82C0.171,11.705,0.221,11.654,0.294,11.626z"/>
	<path style="fill-rule:evenodd;clip-rule:evenodd;" d="M56.502,77.337c-0.946,0.257-2.607,0.183-3.538-0.051
		c-0.276-1.776-0.162-3.592-0.152-5.408c0.039-7.254-0.078-15.057,0-22.544c0.037-3.549,0.805-6.724,1.668-9.654
		c0.422-1.433,1.077-2.776,1.466-4.196c0.382-1.391,1.022-2.64,1.719-3.942c2.015-3.766,4.203-7.036,6.976-10.008
		c3.144-3.37,6.644-6.406,10.969-8.846c0.561-0.316,1.618-0.986,2.072-1.011c0.668-0.037,0.422,0.979,0.455,1.769
		c0.037,0.884,0.032,1.644-0.051,2.072c-0.814,0.965-1.998,1.541-3.032,2.275c-1.033,0.733-2.106,1.4-3.033,2.224
		c-1.95,1.555-3.771,3.239-5.308,5.206c-4.614,5.687-8.638,12.544-9.755,21.836c-0.292,2.427-0.352,4.921-0.303,7.48
		c0.122,6.483,0,12.481,0,19.107C56.654,74.869,56.79,76.139,56.502,77.337z"/>
	<path style="fill-rule:evenodd;clip-rule:evenodd;" d="M0.294,17.691c1.547,0.345,2.717,1.294,3.943,2.325
		c0.921,0.775,1.901,1.446,2.679,2.224c1.695,1.695,3.313,3.322,4.65,5.105c0.7,0.934,1.439,1.852,2.072,2.83
		s1.09,2.089,1.668,3.184c1.205,2.282,2.156,4.456,2.932,6.824c0.792,2.42,1.425,5.133,1.617,8.138
		c0.19,2.97,0.101,6.238,0.101,9.655c0,5.313-0.001,11.464,0,17.084c0,0.578,0.118,1.943-0.202,2.224
		c-0.3,0.265-1.242,0.152-1.87,0.152c-0.715,0-1.422,0.018-1.82-0.203c-0.274-1.402-0.151-2.867-0.151-4.347
		c0-7.276-0.001-15.113,0-22.392c0-2.826-0.51-5.418-1.112-7.835c-0.59-2.37-1.348-4.488-2.426-6.521
		c-1.061-2-2.017-3.999-3.336-5.611c-2.047-2.504-4.062-4.822-6.622-6.824c-0.816-0.638-1.756-1.182-2.376-2.072
		c0.034-1.313-0.077-2.747,0.102-3.791C0.171,17.771,0.221,17.72,0.294,17.691z"/>
	<path style="fill-rule:evenodd;clip-rule:evenodd;" d="M75.609,23.858c-6.01,5.117-10.904,11.663-12.89,20.926
		c-1.024,4.778-0.606,10.538-0.606,16.175c0,2.843-0.02,5.642-0.051,8.391c-0.015,1.374,0.114,2.76,0.051,4.094
		c-0.063,1.319,0.11,2.602-0.152,3.841c-0.971,0.254-2.763,0.221-3.689,0.051c-0.336-0.698-0.203-1.509-0.203-2.275
		c0-5.641,0-11.602,0-17.337c0-3.439-0.239-6.786,0.051-9.857c0.544-5.766,2.526-10.819,4.852-14.962
		c1.164-2.072,2.468-4.048,3.993-5.914c0.755-0.923,1.434-1.838,2.274-2.679c1.655-1.655,3.257-3.159,5.206-4.701
		c0.859-0.679,2.17-1.626,3.134-1.819c0.044-0.009,0.093-0.116,0.202-0.102c0.522,0.071,0.354,1.161,0.354,1.921
		c0,0.826,0.124,1.654-0.051,2.174c-0.147,0.439-0.928,0.939-1.162,1.112C76.271,23.377,76.215,23.336,75.609,23.858z"/>
	<path style="fill-rule:evenodd;clip-rule:evenodd;" d="M0.345,23.959c0.043-0.009,0.048,0.02,0.05,0.05
		c1.696,1.1,3.267,2.402,4.65,3.842c4.126,4.295,7.361,9.555,8.947,16.428c1.092,4.731,0.657,10.668,0.657,16.276
		c0,4.955,0,9.892,0,14.861c0,0.61,0.125,1.31-0.202,1.87c-0.993,0.17-2.646,0.163-3.64,0c-0.284-1.125-0.154-2.307-0.151-3.487
		c0.007-3.391,0-7.237,0-11.02c0.001-5.017,0.283-10.049-0.202-14.709c-0.709-6.814-3.525-11.396-6.824-15.568
		c-0.48-0.607-1.123-1.325-1.769-1.972c-0.521-0.521-1.59-1.266-1.769-1.92c-0.157-0.577-0.051-1.409-0.051-2.325
		c0-0.755-0.1-1.924,0.152-2.224C0.23,24.013,0.285,23.984,0.345,23.959z"/>
	<path style="fill-rule:evenodd;clip-rule:evenodd;" d="M77.833,24.01c0.517,0.43,0.304,1.457,0.304,2.275
		c0,0.822,0.161,1.77,0,2.375c-0.168,0.628-1.244,1.446-1.77,1.972c-1.9,1.9-3.483,3.881-4.853,6.318
		c-1.778,3.167-3.326,6.363-3.791,11.069c-0.458,4.647-0.202,9.642-0.202,14.659c0,3.716-0.07,7.455-0.05,11.121
		c0.006,1.176,0.221,2.357-0.102,3.487c-0.962,0.247-2.88,0.247-3.842,0c-0.272-1.749-0.151-3.556-0.151-5.358
		c0-5.391,0-11.109,0-16.478c0-1.871-0.083-3.752,0-5.51c0.16-3.394,0.851-6.382,1.819-9.149c1.674-4.779,3.879-8.614,7.178-11.98
		c1.224-1.248,2.408-2.479,3.842-3.69C76.76,24.662,77.281,24.242,77.833,24.01z"/>
	<path style="fill-rule:evenodd;clip-rule:evenodd;" d="M0.244,31.137c0.48,0.042,1.455,1.145,1.92,1.668
		c3.822,4.3,6.74,9.895,7.178,17.337c0.27,4.596,0.002,9.291,0.051,13.85c0.037,3.418-0.097,6.762-0.051,10.059
		c0.016,1.093,0.231,2.206-0.151,3.235c-1.023,0.143-2.797,0.218-3.741-0.051c-0.219-7.538-0.102-15.238-0.101-22.847
		c0.001-2.025,0.025-3.824-0.202-5.51c-0.578-4.28-2.016-7.615-3.942-10.615c-0.354-0.551-0.981-1.213-1.112-1.769
		c-0.157-0.666-0.051-1.624-0.051-2.628c0.001-0.944-0.068-2.104,0.102-2.578C0.14,31.202,0.18,31.158,0.244,31.137z"/>
	<path style="fill-rule:evenodd;clip-rule:evenodd;" d="M77.782,31.187c0.568-0.031,0.354,1.941,0.354,2.578
		c0,1.045,0.116,2.076-0.051,2.78c-0.15,0.635-0.745,1.164-1.162,1.82c-1.13,1.774-2.138,3.665-2.882,5.914
		c-2.008,6.068-0.957,14.126-1.213,21.533c-0.098,2.819,0,5.724,0,8.694c0,0.912,0.121,1.888-0.151,2.78
		c-0.959,0.247-2.78,0.234-3.69,0.051c-0.264-1.041-0.202-2.16-0.202-3.235c0-1.163,0-2.323,0-3.487c0-2.228,0.146-4.48,0.051-6.672
		c-0.095-2.16-0.104-4.403,0-6.622c0.105-2.271-0.121-4.583-0.051-6.824c0.139-4.402,1.372-8.001,2.882-11.171
		c1.515-3.182,3.654-5.813,5.964-8.037C77.668,31.242,77.722,31.212,77.782,31.187z"/>
	<path style="fill-rule:evenodd;clip-rule:evenodd;" d="M0.294,39.477c0.043-0.01,0.048,0.02,0.051,0.05
		c0.769,0.986,1.463,2.15,1.92,3.386c0.461,1.245,0.923,2.565,1.264,3.994c0.691,2.901,0.556,6.317,0.556,9.856
		c0,6.044-0.083,11.895-0.05,18.096c0.004,0.796,0.123,1.633-0.152,2.375c-0.903,0.273-2.654,0.19-3.639,0.051
		c-0.345-0.663-0.203-1.457-0.203-2.173c0.001-10.991,0-22.093,0-33.26c0.001-0.836-0.066-1.766,0.102-2.275
		C0.18,39.531,0.235,39.502,0.294,39.477z"/>
	<path style="fill-rule:evenodd;clip-rule:evenodd;" d="M77.934,39.528c0.349,0.223,0.202,0.709,0.202,1.011
		c0,11.288-0.001,22.952,0,34.523c0,0.738,0.12,1.523-0.151,2.224c-0.908,0.265-2.653,0.198-3.64,0.051
		c-0.301-0.753-0.202-1.602-0.202-2.426c0.001-5.877-0.001-12.145,0-18.096c0-3.415-0.128-6.843,0.556-9.806
		c0.475-2.057,1.21-3.98,2.072-5.712C77.112,40.614,77.4,39.907,77.934,39.528z"/>
</g>
<g id="Layer_1">
</g>
</svg>
