<?xml version="1.0" encoding="iso-8859-1"?>
<!-- Generator: Adobe Illustrator 19.2.0, SVG Export Plug-In . SVG Version: 6.00 Build 0)  -->
<svg version="1.1" xmlns="http://www.w3.org/2000/svg" xmlns:xlink="http://www.w3.org/1999/xlink" x="0px" y="0px"
	 viewBox="0 0 99.838 99.61" style="enable-background:new 0 0 99.838 99.61;" xml:space="preserve">
<g id="Unlimited_x5F_Travel_x5F_Group">
	<g>
		<path style="fill-rule:evenodd;clip-rule:evenodd;" d="M77.031,7.446c-0.938,1.2-1.874,2.113-3.114,3.354
			c-0.702,0.702-2.391,2.943-3.354,3.115c-1.149,0.205-5.129-1.125-6.469-1.437c-5.248-1.225-10.331-2.574-15.694-3.834
			c-0.992-0.232-2.551-0.793-3.115-0.719c-1.545,0.204-2.343,2.572-3.474,3.354c6.621,3.802,13.733,7.112,20.486,10.782
			c-2.251,2.57-4.127,4.453-6.589,6.948c-0.504,0.511-1.863,1.91-2.396,2.036c-1.873,0.444-3.991-0.987-6.23-0.478
			c-1.223,0.278-1.763,1.857-2.755,2.636c1.981,1.824,4.918,1.799,6.829,3.474c1.743,1.528,2.131,5.099,3.714,6.948
			c0.914-0.841,2.457-1.469,2.755-2.635c0.569-2.226-1.102-4.638-0.719-6.35c0.162-0.725,1.556-1.616,2.276-2.276
			c2.417-2.213,4.194-4.489,6.589-6.709c3.983,6.479,7.261,13.664,11.021,20.366c0.586-0.369,3.386-2.205,3.594-3.354
			c0.267-1.467-1.229-4.557-1.677-6.229c-1.458-5.455-2.46-9.934-3.953-15.694c-0.229-0.883-0.922-2.466-0.839-2.994
			c0.146-0.926,2.884-3.002,3.594-3.714c1.41-1.414,2.125-2.561,3.714-3.595c12.649,9.519,22.46,29.243,17.132,51.754
			c-1.963-1.423-4.798-1.579-6.35-3.234c-1.742-1.857-1.85-4.731-3.595-6.709c-1.11,0.646-1.767,1.746-2.755,2.516
			c-0.095,2.304,1.114,4.401,0.719,6.35c-0.258,1.268-3.397,3.757-4.312,4.672c-1.699,1.699-3.143,3.209-4.673,4.313
			c-3.522-6.86-7.17-13.595-10.781-20.365c-1.505,0.811-2.414,2.218-3.595,3.354c2.181,8.282,4.309,16.616,6.47,24.918
			c-3.065,2.879-6.306,6.497-9.704,9.823c-0.983,0.963-2.834,2.149-2.995,3.475c-0.171,1.408,1.309,2.894,2.516,2.875
			c1.38-0.021,2.805-1.889,3.713-2.875c3.181-3.451,6.644-6.456,9.824-9.704c4.155,1.076,8.581,1.882,12.579,3.115
			c-8.237,9.152-22.801,16.426-41.451,14.615c-0.161-1.185,2.068-1.702,2.276-2.875c0.236-1.331-1.123-4.494-1.558-6.229
			c-1.11-4.437-1.951-7.576-3.234-12.34c-0.435-1.613-1.773-4.661-1.558-6.109c0.143-0.962,2.503-2.887,3.115-3.475
			c2.427-2.331,4.061-4.105,6.589-6.589c0.983-0.967,2.796-2.34,2.875-3.594c0.089-1.415-1.095-2.518-2.037-2.636
			c-1.781-0.224-2.869,1.552-3.953,2.636c-2.445,2.444-4.092,4.199-6.589,6.589c-0.705,0.674-2.545,2.945-3.474,3.115
			c-1.355,0.247-4.663-1.035-6.349-1.438c-5.758-1.376-10.079-2.388-15.813-3.714c-1.064-0.246-2.415-0.835-3.115-0.719
			c-1.459,0.241-2.191,2.426-3.475,3.234c6.623,3.84,13.702,7.224,20.606,10.782c-2.997,2.992-6.046,5.934-9.105,8.865
			c-1.138-0.473-3.531,0.051-5.032-0.479c-1.123-0.397-2.402-2.495-3.354-3.714C6.47,75.123,3.373,69.565,1.318,61.355
			c-0.41-1.636-1.411-4.916-1.078-6.109c0.177-0.636,1.184-0.976,1.677-1.437c3.914-3.666,7.198-7.588,11.021-11.142
			c6.76,1.542,14.942,3.565,22.283,5.391c0.848,0.211,2.634,0.796,3.115,0.719c1.436-0.23,2.363-2.787,3.474-3.354
			c-6.508-3.955-13.915-7.011-20.486-10.902c2.131-2.406,4.153-4.393,6.589-6.828c0.698-0.698,1.612-1.993,2.276-2.156
			c1.878-0.463,4.221,0.91,6.229,0.479c1.293-0.277,1.707-1.58,2.755-2.516c-1.582-1.795-5.268-2.014-6.948-3.714
			c-1.581-1.6-2.01-4.814-3.474-6.709c-0.982,0.984-2.557,1.441-2.875,2.636c-0.541,2.029,1.193,4.387,0.719,6.35
			c-0.277,1.145-3.675,3.712-4.553,4.553c-1.556,1.49-2.934,3.38-4.552,4.312c-2.12-4.149-4.295-8.244-6.469-12.34
			c7.663-9.959,19.584-17.18,36.059-18.449c8.571-0.66,16.339,1.141,22.283,3.714C71.825,4.916,74.63,6.079,77.031,7.446z
			 M47.081,0.976C35.23,1.785,26.438,5.879,19.168,11.518c-1.193,0.926-2.636,1.989-3.833,3.235c-0.883,0.919-3.2,3.155-3.235,3.953
			c-0.026,0.589,1.044,2.015,1.438,2.756c1.546,2.907,2.799,5.736,4.432,8.145c2.488-2.742,5.399-5.063,7.787-7.906
			c-0.005-2.144-1.134-4.593-0.719-6.23c0.417-1.645,3.029-2.792,3.833-3.954c0.648,1.311,1.351,2.503,2.037,3.834
			c0.618,1.198,1.099,2.934,2.037,3.834c0.892,0.854,2.638,1.397,3.833,2.036c1.303,0.697,2.713,1.069,3.833,2.037
			c-1.072,0.819-2.4,3.409-3.833,3.714c-1.83,0.389-3.972-0.779-6.229-0.6c-2.576,2.735-5.629,4.993-7.787,8.147
			c6.921,3.422,13.674,7.012,20.486,10.543c-1.401,1.713-2.924,3.305-4.672,4.672c-5.874-1.606-11.947-2.946-18.21-4.433
			c-1.403-0.333-5.602-1.956-7.068-1.678c-0.979,0.187-2.224,2.232-2.995,2.995c-2.308,2.283-3.819,3.88-6.11,6.11
			c-0.782,0.762-2.788,1.982-2.995,3.114c-0.363,1.986,1.094,6.021,1.797,8.386c2.01,6.757,4.889,12.033,8.985,16.772
			c0.714,0.826,1.894,2.422,2.516,2.636c0.888,0.306,3.766,0.412,4.433,0.239c0.928-0.24,2.268-2.148,3.115-2.995
			c1.916-1.915,3.139-2.971,4.792-4.672C19.973,72.61,12.921,69.2,6.229,65.428c1.609-0.684,2.987-4.153,4.672-4.433
			c0.545-0.09,2.126,0.476,3.115,0.719c5.52,1.359,10.183,2.455,15.694,3.834c1.333,0.333,5.316,1.668,6.469,1.438
			c0.86-0.172,2.349-2.229,3.115-2.995c1.185-1.185,2.198-2.058,3.115-2.995c1.908-1.949,3.983-4.91,6.229-5.989
			c2.242-1.078,4.996,0.608,4.672,3.354c-0.2,1.697-2.142,2.854-3.115,3.834c-3.127,3.152-6.621,6.843-9.464,9.704
			c1.846,6.491,3.792,14.707,5.63,21.684c0.682,2.589,1.041,3.585-0.599,5.031c17.449,1.168,29.532-5.03,38.096-13.537
			c-1.887-0.591-3.336-0.704-5.392-1.198c-1.421-0.342-3.969-1.653-5.391-1.317c-0.921,0.218-2.434,2.346-3.234,3.114
			c-2.43,2.334-4.303,4.304-6.47,6.47c-0.966,0.966-2.344,2.606-3.713,2.755c-2.425,0.265-4.09-2.097-3.594-4.073
			c0.291-1.158,1.942-2.541,2.875-3.474c2.401-2.401,3.993-3.824,6.469-6.47c0.799-0.853,2.963-1.98,3.114-3.354
			c0.069-0.621-0.585-2.005-0.838-2.994c-1.907-7.462-3.73-14.662-5.631-21.685c0.738-0.814,1.308-1.453,2.276-2.396
			c0.206-0.201,2.107-2.331,2.396-2.276c0.273,0.052,1.007,1.921,1.318,2.516c3.107,5.946,6.74,12.721,9.703,17.97
			c1.52-1.034,2.636-2.486,3.954-3.833c0.898-0.918,3.593-2.774,3.833-3.953c0.43-2.111-1.245-4.056-0.719-6.23
			c0.404-1.668,2.873-2.559,3.954-3.833c1.419,2.177,2.16,5.557,3.713,7.428c1.237,1.49,3.627,1.532,5.271,2.755
			c4.566-21.521-4.38-40.403-16.771-49.357c-2.036,2.077-4.091,4.136-6.11,6.23c2.107,8.396,4.333,16.673,6.47,25.038
			c-1.468,1.688-2.968,3.342-4.792,4.673c-3.483-6.94-7.137-13.709-10.782-20.486c-1.685,1.135-2.703,2.413-4.073,3.834
			c-0.81,0.839-3.592,2.862-3.833,4.192c-0.321,1.771,1.144,4.433,0.719,6.11c-0.315,1.242-3.302,2.996-3.954,3.834
			c-1.682-2.132-2.16-5.755-3.953-7.548c-1.926-1.926-5.795-2.251-7.787-4.073c1.156-0.657,2.376-3.363,3.714-3.714
			c1.979-0.517,4.172,0.662,6.35,0.599c2.677-2.713,5.62-5.162,8.026-8.146c-7.05-3.412-13.892-7.033-20.726-10.663
			c1.527-1.547,2.945-3.204,4.672-4.552c8.414,2.088,16.952,4.053,25.398,6.109c1.768-1.825,3.802-3.386,5.271-5.511
			C68.266,3.792,58.833,0.175,47.081,0.976z"/>
		<path style="fill-rule:evenodd;clip-rule:evenodd;" d="M6.11,25.655c1.36,4.31,2.504,8.837,3.474,13.537
			C6.402,42.36,3.252,45.559,0,48.657C0.175,39.606,2.749,31.918,6.11,25.655z M0.958,46.38c1.572-0.943,2.471-2.447,3.953-3.834
			c0.774-0.724,3.683-2.823,3.834-3.953c0.169-1.263-0.874-3.499-1.318-5.151c-0.537-2-0.985-4.124-1.558-5.271
			C3.279,33.287,1.403,39.118,0.958,46.38z"/>
		<path style="fill-rule:evenodd;clip-rule:evenodd;" d="M97.397,65.428c-1.497,5.092-3.664,9.514-6.589,13.178
			c-3.415-1.457-6.509-3.234-9.823-4.792c2.65-2.558,5.818-6.421,8.745-8.864C90.914,63.959,95.08,65.748,97.397,65.428z
			 M90.209,65.668c-2.718,1.674-5.367,5.729-7.668,7.906c1.296,0.64,2.356,1.366,3.834,2.156c0.662,0.354,3.428,2.097,4.193,1.917
			c0.388-0.091,1.53-1.9,1.797-2.396c1.638-3.042,2.939-5.791,3.833-9.105C94.164,66.406,91.373,64.951,90.209,65.668z"/>
		<path style="fill-rule:evenodd;clip-rule:evenodd;" d="M42.05,98.972c-5.464-0.911-10.114-2.455-14.735-4.672
			c-2.327-1.116-5.244-2.153-4.433-5.87c0.254-1.165,2.742-3.222,4.073-4.553c1.828-1.827,3.422-3.076,4.672-4.433
			C35.382,85.673,38.681,92.358,42.05,98.972z M31.388,80.763c-1.091,1.255-2.404,2.362-4.073,4.073
			c-1.917,1.963-4.568,3.451-3.235,6.589c4.703,2.884,9.939,5.235,16.413,6.349C37.56,92,34.703,86.153,31.388,80.763z"/>
	</g>
</g>
<g id="Layer_1">
</g>
</svg>
