<?xml version="1.0" encoding="iso-8859-1"?>
<!-- Generator: Adobe Illustrator 19.2.0, SVG Export Plug-In . SVG Version: 6.00 Build 0)  -->
<svg version="1.1" xmlns="http://www.w3.org/2000/svg" xmlns:xlink="http://www.w3.org/1999/xlink" x="0px" y="0px"
	 viewBox="0 0 83.428 83.608" style="enable-background:new 0 0 83.428 83.608;" xml:space="preserve">
<g id="Urania_x5F_Bank">
	<path style="fill-rule:evenodd;clip-rule:evenodd;" d="M50.11,0.177c0.274,1.305,0.155,2.682,0.155,4.039
		c0,8.149,0.1,17.148-0.052,24.806c-0.026,1.3-0.073,2.634,0.155,3.885c0.611,0.275,1.33,0.155,1.968,0.155
		c8.873,0,18.07,0,27.033,0c1.305,0,2.638-0.104,3.884,0.155c0.261,8.279,0.126,16.664,0.052,24.961
		c-0.019,2.084,0.104,4.204,0.104,6.318c0,6.319,0.086,12.711-0.104,19.005c-27.752,0.194-55.359,0.079-83.118,0
		c-0.158-4.087-0.226-8.26-0.155-12.429c0.207-12.38-0.196-25.194,0.051-37.855c0.594-0.311,1.3-0.188,1.968-0.155
		c2.118,0.101,4.229,0.01,6.318,0c2.873-0.014,5.856-0.183,8.7,0.052c0.273,1.318,0.155,2.724,0.155,4.091
		c0,6.955,0,14.219,0,21.232c0,2.781-0.142,5.496,0.104,8.079c1.159,0.362,2.519,0.207,3.833,0.207
		c3.873,0,7.988-0.027,11.755-0.155c0.219-0.597,0.213-1.284,0.207-1.916c-0.017-1.874-0.052-4.01-0.052-6.111
		c0-18.015,0-37.857,0-56.602c0-0.636-0.114-1.32,0.155-1.916C38.433,0.096,44.819-0.155,50.11,0.177z M62.901,49.996
		c-4.242,0.001-8.587-0.079-12.481,0.155c-0.256,4.781-0.104,9.767-0.104,14.501c0,0.652-0.12,1.362,0.155,1.968
		c4.834,0.203,10.501,0.152,15.433,0c0.215-1.235,0.104-2.596,0.104-3.988c0-4.161,0.085-8.57-0.104-12.48
		C64.96,49.872,63.923,49.996,62.901,49.996z"/>
</g>
<g id="Layer_1">
</g>
</svg>
