<?xml version="1.0" encoding="iso-8859-1"?>
<!-- Generator: Adobe Illustrator 19.2.0, SVG Export Plug-In . SVG Version: 6.00 Build 0)  -->
<svg version="1.1" xmlns="http://www.w3.org/2000/svg" xmlns:xlink="http://www.w3.org/1999/xlink" x="0px" y="0px"
	 viewBox="0 0 71.131 83.174" style="enable-background:new 0 0 71.131 83.174;" xml:space="preserve">
<g id="Urban_x5F_Renewal_x5F_Development">
	<path style="fill-rule:evenodd;clip-rule:evenodd;" d="M70.9,54.892c0.319,1.093,0.297,3.096,0,4.145
		c-5.126,0.186-10.18,0.151-15.113,0.152c-2.808,0-5.211,0.141-6.975-0.91c-1.584-0.944-2.899-2.393-3.235-4.65
		c-0.359-2.415-0.102-5.163-0.102-7.784c0-5.239,0.058-10.587-0.101-15.67c-0.077-2.451-0.493-4.713-1.112-6.773
		C41.87,15.436,36.489,9.854,29.402,6.721c-1.856-0.82-3.888-1.38-6.116-1.769c-2.307-0.403-4.814-0.354-7.532-0.354
		c-3.842,0-7.921-0.051-11.777-0.051c-1.268,0-2.574,0.123-3.791-0.152c-0.168-1.163-0.163-2.981,0-4.145
		C0.657,0.016,1.54,0.093,2.106,0.049C4.197-0.114,6.275,0.19,8.324,0.099c3.922-0.172,8.533-0.066,12.485,0.051
		c1.972,0.058,3.781,0.46,5.459,0.859c6.731,1.602,11.705,5.007,15.821,9.503c1.989,2.172,3.636,4.809,5.004,7.683
		c1.362,2.86,2.291,6.337,2.628,10.008c0.335,3.648,0.05,8.232,0.051,12.435c0,1.766,0.05,4.219,0.05,6.268
		c0,3.48-0.583,7.202,2.376,7.784c1.352,0.266,3.074,0.05,4.701,0.05c3.16,0,6.359,0.037,9.452,0.05
		C67.934,54.798,69.468,54.561,70.9,54.892z"/>
	<path style="fill-rule:evenodd;clip-rule:evenodd;" d="M70.9,60.857c0.251,1.125,0.246,3.221,0,4.347
		c-1.262,0.263-2.556,0.151-3.841,0.151c-3.794,0-7.634,0-11.525,0c-2.799,0-5.297,0.026-7.329-0.607
		c-3.788-1.179-6.752-4.043-8.088-7.734c-0.347-0.958-0.661-1.984-0.708-3.235c-0.046-1.236,0-2.575,0-3.942
		c0-5.141-0.05-10.443-0.05-15.619c0-2.88-0.025-5.245-0.506-7.431c-1.38-6.283-4.901-10.842-10.059-13.647
		c-1.712-0.931-3.644-1.651-5.813-2.123c-2.177-0.474-4.745-0.435-7.43-0.455c-5.02-0.037-10.446,0.14-15.316-0.152
		c-0.245-0.3-0.151-1.343-0.151-2.275c0-1.123-0.224-1.901,0.606-2.022c0.55-0.08,1.245,0,1.87,0c4.523,0,8.978,0.05,13.546,0.05
		c2.773,0,5.241,0.003,7.481,0.404c6.643,1.192,11.053,4.625,14.76,8.896c2.491,2.871,4.053,6.608,5.004,10.767
		c0.478,2.09,0.534,4.678,0.556,7.228c0.022,2.571,0.036,5.296,0,7.683c-0.037,2.437,0.117,5.201,0,7.784
		c-0.122,2.683-0.058,5.215,0.809,6.975c0.932,1.893,2.231,3.11,3.942,3.942c1.767,0.86,4.253,0.946,6.875,0.91
		C60.476,60.687,65.877,60.627,70.9,60.857z"/>
	<path style="fill-rule:evenodd;clip-rule:evenodd;" d="M70.9,66.922c0.272,1.121,0.193,3.095,0.051,4.296
		c-0.045,0.023-0.09,0.044-0.101,0.101c-5.006,0.237-10.378-0.128-15.417,0.101c-5.52,0.251-9.721-0.725-13.092-2.73
		c-3.309-1.968-5.938-4.81-7.481-8.34c-0.8-1.831-1.508-3.863-1.567-6.318c-0.172-7.185,0.023-16.163-0.05-23.251
		c-0.049-4.756-2.364-8.504-5.106-10.716c-2.267-1.829-4.73-3.278-8.542-3.336c-5.124-0.078-10.311-0.05-15.619-0.05
		c-1.255,0-2.561,0.122-3.791-0.152c-0.252-1.043-0.243-3.05,0-4.094c2.538-0.258,5.888-0.141,8.542-0.101
		c4.719,0.071,10.843-0.514,14.962,0.556c6.129,1.593,10.271,5.62,12.536,11.02c0.784,1.87,1.328,3.935,1.466,6.369
		c0.134,2.357,0.152,4.913,0.152,7.581c0,5.553,0.023,10.223,0.05,15.467c0.025,4.71,2.639,8.192,5.358,10.362
		c1.582,1.263,3.269,2.112,5.257,2.628c2.042,0.531,4.494,0.505,7.329,0.505C60.579,66.821,65.74,66.674,70.9,66.922z"/>
	<path style="fill-rule:evenodd;clip-rule:evenodd;" d="M70.951,73.089c0.164,1.092,0.169,2.853,0,3.943
		c-0.559,0.288-1.219,0.123-1.819,0.152c-4.349,0.206-9.282,0.05-13.749,0.05c-2.744,0-5.223,0.039-7.532-0.354
		c-2.231-0.38-4.26-0.977-6.066-1.82c-6.998-3.266-12.171-8.918-14.052-17.438c-0.486-2.201-0.505-4.692-0.505-7.38
		c0-5.242,0.05-9.984,0.05-15.417c0-2.805,0.016-5.128-0.859-6.976c-1.259-2.657-3.361-4.606-6.976-4.852
		c-1.176-0.081-2.461-0.042-3.791-0.051c-3.685-0.023-7.802,0-11.727,0c-1.26,0-2.537,0.122-3.74-0.151
		c-0.274-1.14-0.189-3.126-0.051-4.347c0.29-0.231,0.912-0.253,1.314-0.253c5.564,0.006,11.589,0.051,17.388,0.051
		c5.48,0,9.095,3.017,11.12,6.47c0.73,1.244,1.294,2.695,1.567,4.296c0.281,1.649,0.202,3.525,0.202,5.662
		c0,3.987-0.088,7.762,0,11.726c0.082,3.666-0.272,7.807,0.505,11.02c1.502,6.205,5.26,10.373,10.312,13.142
		c1.704,0.889,3.579,1.645,5.812,2.022c3.333,0.562,7.489,0.354,11.373,0.354c2.567,0,4.988,0,7.482,0
		C68.463,72.937,69.759,72.815,70.951,73.089z"/>
	<path style="fill-rule:evenodd;clip-rule:evenodd;" d="M70.951,79.003c0.14,1.099,0.225,2.976-0.051,3.993
		c-2.073,0.327-4.139,0.101-6.217,0.101c-2.097,0-4.226,0.051-6.369,0.05c-4.345,0-8.693,0.18-12.283-0.505
		c-3.473-0.664-6.587-1.917-9.301-3.488c-2.69-1.558-5.167-3.484-7.177-5.611c-4.095-4.332-7.247-9.997-8.138-17.439
		c-0.224-1.873-0.101-3.973-0.101-6.116c0-4.287,0.001-8.212,0-12.687c0-1.038,0.046-2.129,0-3.185
		c-0.044-1.01,0.081-2.078-0.101-2.982c-0.177-0.878-0.955-1.746-1.668-2.022c-1.165-0.451-3.184-0.202-4.751-0.202
		c-4.111,0-8.224-0.101-12.283-0.101c-0.798,0-1.604,0.117-2.325-0.151c-0.24-0.315-0.152-1.374-0.152-2.325
		c0-1.164-0.203-1.902,0.657-2.022c1.253-0.175,2.678-0.042,3.942,0c3.594,0.121,7.558,0.051,11.474,0.051
		c2.928,0,4.925-0.042,6.672,1.162c1.485,1.024,2.69,2.67,2.982,4.853c0.304,2.273,0.05,5.146,0.05,7.684c0,5.082,0,10.578,0,15.669
		c0,7.504,3.129,12.561,6.824,16.63c3.791,4.173,8.714,7.061,15.367,8.138c2.291,0.371,4.812,0.303,7.531,0.304
		c3.828,0,7.843,0.05,11.676,0.05C68.456,78.851,69.742,78.727,70.951,79.003z"/>
</g>
<g id="Layer_1">
</g>
</svg>
