<?xml version="1.0" encoding="iso-8859-1"?>
<!-- Generator: Adobe Illustrator 19.2.0, SVG Export Plug-In . SVG Version: 6.00 Build 0)  -->
<svg version="1.1" xmlns="http://www.w3.org/2000/svg" xmlns:xlink="http://www.w3.org/1999/xlink" x="0px" y="0px"
	 viewBox="0 0 76.677 68.23" style="enable-background:new 0 0 76.677 68.23;" xml:space="preserve">
<g id="Urban_x5F_Research_x5F_Corporation">
	<path style="fill-rule:evenodd;clip-rule:evenodd;" d="M31.704,0.222c-0.101,0.961-0.534,1.861-0.882,2.745
		c-2.061,5.235-4.196,10.486-6.275,15.785c-0.342,0.872-0.788,1.784-0.833,2.745c1.076,0.295,2.359,0.111,3.677,0.147
		c2.47,0.068,5.022,0.098,7.549,0.098c1.269,0,2.528-0.117,3.677,0.147c-0.075,1.021-0.623,1.913-0.98,2.843
		c-0.357,0.929-0.716,1.866-1.079,2.794c-0.376,0.964-0.619,1.965-0.98,2.941c-1.016,2.743-2.186,5.561-3.333,8.334
		c-0.379,0.917-0.697,1.883-1.078,2.794c-0.384,0.917-0.864,1.84-0.932,2.843c0.447,0.389,1.135,0.245,1.716,0.245
		c3.166,0,6.213,0.049,9.51,0.049c1.276,0,2.555-0.135,3.676,0.196c-0.427,2.077-1.408,3.952-2.157,5.882
		c-1.87,4.822-3.649,9.702-5.588,14.51c-0.37,0.916-0.578,1.986-1.324,2.696c-10.369,0.093-21.263-0.056-31.569,0
		c-1.472,0.008-2.944,0.209-4.363-0.098c-0.229-2.769-0.098-5.586-0.098-8.432c0-20.189-0.081-39.685,0.147-59.315
		c0.78-0.263,1.641-0.147,2.451-0.147c4.244,0,8.647,0,12.99,0c4.728,0,8.767,0,13.481,0C29.977,0.025,30.884-0.014,31.704,0.222z"
		/>
	<path style="fill-rule:evenodd;clip-rule:evenodd;" d="M76.559,0.369c0.192,22.486,0.132,45.28-0.049,67.698
		c-1.079,0.298-2.27,0.098-3.48,0.098c-2.389,0-4.905,0-7.353,0c-1.201,0-2.407,0.119-3.481-0.147
		c0.062-0.977,0.498-1.905,0.833-2.794c2.021-5.351,4.134-10.777,6.177-16.177c0.33-0.872,0.865-1.757,0.833-2.745
		c-0.5-0.333-1.164-0.196-1.765-0.196c-3.82,0.001-7.595-0.049-11.52-0.049c-0.58,0-1.232,0.132-1.716-0.196
		c0.133-1.028,0.615-1.965,0.98-2.892c1.794-4.551,3.678-9.079,5.49-13.677c0.718-1.821,1.54-3.665,2.01-5.637
		c-0.421-0.363-1.053-0.238-1.618-0.245c-3.121-0.042-6.509,0-9.706,0c-1.305,0-2.577,0.113-3.726-0.148
		c-0.089-0.548,0.278-1.027,0.441-1.519c1.133-3.418,2.775-6.772,3.971-10.245c0.667-1.94,1.544-3.878,2.402-5.735
		c0.871-1.887,1.193-4.014,2.5-5.589c5.232,0.135,11.18-0.188,16.618,0C75.118,0.197,75.889,0.14,76.559,0.369z"/>
</g>
<g id="Layer_1">
</g>
</svg>
