<?xml version="1.0" encoding="iso-8859-1"?>
<!-- Generator: Adobe Illustrator 21.0.2, SVG Export Plug-In . SVG Version: 6.00 Build 0)  -->
<svg version="1.1" xmlns="http://www.w3.org/2000/svg" xmlns:xlink="http://www.w3.org/1999/xlink" x="0px" y="0px"
	 viewBox="0 0 16.645 16.617" style="enable-background:new 0 0 16.645 16.617;" xml:space="preserve">
<g id="Urbania_x5F_2000">
	<path d="M4.915,0.001C5.449,0,5.983,0,6.517,0.001C6.52,1.118,6.515,2.235,6.52,3.353c0.503,0.493,0.999,0.995,1.496,1.495
		c0.101,0.108,0.217,0.205,0.302,0.327c0.596-0.608,1.208-1.2,1.798-1.813c0.013-0.918,0.001-1.837,0.006-2.756
		c-0.002-0.201,0.006-0.402-0.009-0.603C10.655-0.001,11.198,0,11.74,0.001c-0.001,1.305,0.001,2.61-0.001,3.915
		C10.593,5.05,9.457,6.194,8.314,7.329c-0.248-0.302-0.548-0.558-0.818-0.84C7.239,6.287,7.023,6.04,6.79,5.813
		c-0.622-0.62-1.24-1.243-1.867-1.857C4.911,2.638,4.927,1.32,4.915,0.001z"/>
	<path d="M0,4.89c1.267,0.02,2.535,0.005,3.802,0.007c0.052,0.007,0.12-0.016,0.16,0.029c1.125,1.131,2.254,2.257,3.379,3.388
		c-1.136,1.119-2.26,2.25-3.385,3.381c-1.319,0.009-2.637-0.011-3.955,0.01c-0.001-0.535,0-1.071,0-1.606
		c1.119-0.001,2.237,0.002,3.356-0.001c0.284-0.295,0.578-0.58,0.866-0.87c0.346-0.279,0.639-0.616,0.96-0.922
		c-0.486-0.47-0.955-0.958-1.441-1.428C3.614,6.758,3.507,6.615,3.363,6.515C2.243,6.521,1.122,6.516,0.001,6.517
		C-0.001,5.975,0.002,5.433,0,4.89z"/>
	<path d="M12.707,4.895c1.311,0.01,2.622,0.005,3.933,0.002c0,0.539-0.006,1.078,0.003,1.617c-1.126,0.009-2.251-0.001-3.377,0.006
		c-0.59,0.599-1.186,1.193-1.789,1.78c0.591,0.604,1.197,1.194,1.79,1.797c1.126,0.009,2.252-0.001,3.378,0.005
		c-0.01,0.531-0.008,1.062-0.001,1.592c-1.314,0.008-2.628-0.002-3.942,0.005c-1.124-1.145-2.273-2.265-3.397-3.41
		C10.44,7.159,11.566,6.019,12.707,4.895z"/>
	<path d="M4.923,12.661c1.136-1.124,2.261-2.26,3.394-3.387c0.517,0.54,1.056,1.058,1.581,1.591
		c0.089,0.098,0.206,0.166,0.298,0.262c0.474,0.476,0.949,0.949,1.424,1.424c0.048,0.055,0.131,0.098,0.121,0.183
		c0.001,1.294,0.002,2.588,0,3.882c-0.54-0.003-1.079,0.007-1.619-0.006c0.004-1.119,0-2.237,0.003-3.356
		c-0.599-0.61-1.213-1.205-1.809-1.818c-0.32,0.322-0.643,0.642-0.963,0.964c-0.122,0.123-0.254,0.238-0.353,0.381
		c-0.152,0.168-0.318,0.323-0.478,0.483c-0.005,1.117,0.001,2.234-0.003,3.351c-0.533,0-1.065,0.001-1.598,0
		C4.921,15.298,4.914,13.979,4.923,12.661z"/>
</g>
<g id="Layer_1">
</g>
</svg>
