<?xml version="1.0" encoding="iso-8859-1"?>
<!-- Generator: Adobe Illustrator 19.2.0, SVG Export Plug-In . SVG Version: 6.00 Build 0)  -->
<svg version="1.1" xmlns="http://www.w3.org/2000/svg" xmlns:xlink="http://www.w3.org/1999/xlink" x="0px" y="0px"
	 viewBox="0 0 93.544 106.787" style="enable-background:new 0 0 93.544 106.787;" xml:space="preserve">
<g id="Ursos_x5F_Lusos">
	<path style="fill-rule:evenodd;clip-rule:evenodd;" d="M0,90.959c5.479-6.237,9.585-11.954,17.266-15.828
		c2.309-1.164,4.819-2.801,7.794-2.997c5.85-0.386,12.02,2.4,17.506,4.557c5.54,2.177,11.035,4.976,15.947,6.114
		c1.782,0.413,4.709-0.506,6.715,0.12c2.099,0.655,6.23,4.845,6.354-0.719c0.663,0.815,0.612,2.346,1.199,3.237
		c1.899,0.227,4.793-0.198,7.074-1.079c1.627-0.629,4.791-2.188,5.156-3.718c0.371-1.554-0.684-4.27-1.079-5.875
		c-0.992-4.02-1.989-6.789-3.357-10.552c-0.569-1.564-1.96-3.985-1.919-5.036c0.045-1.136,1.938-2.738,1.799-4.915
		c-0.121-1.898-1.476-4.364-2.278-5.995c-1.902-3.871-3.774-6.859-6.234-10.312c-0.97-1.36-3.009-3.16-3.478-4.676
		c-0.273-0.882-0.2-2.24-0.359-3.237c-0.479-2.993-1.6-6.874-3.598-7.314c-2.556-0.563-4.776,2.203-6.834,2.278
		c-1.392,0.051-3.43-1.348-4.677-2.158c-9.79-6.366-15.494-16.543-26.499-21.343C43.819-2.621,63.44,2.231,74.22,9.904
		c8.834,6.288,15.223,16.239,17.866,28.058C94.98,50.9,93.37,67.472,88.969,77.77c-3.408,7.97-8.184,14.832-15.108,19.424
		c-2.283,1.515-4.863,3.22-7.314,4.077c-8.282,2.896-15.529,5.515-26.259,5.516c-10.435,0-18.106-2.807-26.259-5.636
		C8.23,99.139,4.03,95.224,0,90.959z"/>
</g>
<g id="Layer_1">
</g>
</svg>
