<?xml version="1.0" encoding="iso-8859-1"?>
<!-- Generator: Adobe Illustrator 19.2.0, SVG Export Plug-In . SVG Version: 6.00 Build 0)  -->
<svg version="1.1" xmlns="http://www.w3.org/2000/svg" xmlns:xlink="http://www.w3.org/1999/xlink" x="0px" y="0px"
	 viewBox="0 0 89.218 87.231" style="enable-background:new 0 0 89.218 87.231;" xml:space="preserve">
<g id="US_x5F_Bureau_x5F_of_x5F_Indian_x5F_Affairs">
	<path style="fill-rule:evenodd;clip-rule:evenodd;" d="M46.35,87.178c-0.213-6.68-0.107-14-0.053-20.82
		c3.009-1.207,6.858-1.575,9.342-3.309c-0.222-0.782-0.73-1.473-1.175-2.136c-2.159-3.225-4.63-6.311-7.1-9.289
		c-0.988-1.191-1.8-2.517-2.99-3.523c-1.203,1.007-2.034,2.342-2.989,3.577c-1.892,2.445-3.773,4.935-5.658,7.474
		c-0.931,1.253-1.908,2.495-2.616,3.897c0.472,0.573,1.266,0.828,1.975,1.121c1.447,0.598,3.048,1.085,4.698,1.495
		c0.81,0.201,1.696,0.263,2.402,0.694c0.154,5.667,0.053,12.281,0.054,18.472c0,0.811,0.145,1.671-0.16,2.402
		c-6.726-0.226-12.243-2.031-17.084-4.324c-9.507-4.504-17.094-11.905-21.3-21.728c-1.628-3.802-3.001-7.75-3.471-12.652
		c-0.46-4.804-0.233-10.245,0.854-14.628c2.141-8.621,6.209-15.338,11.531-20.66c5.419-5.419,12.099-9.514,20.5-11.745
		c2.868-0.762,6.041-1.278,9.502-1.442c10.679-0.503,19.63,2.673,26.266,6.833c1.091,0.683,2.173,1.491,3.257,2.296
		c3.154,2.342,5.794,5.203,8.274,8.274c1.62,2.005,2.974,4.359,4.218,6.833c1.19,2.367,2.361,5.01,3.149,7.901
		c0.783,2.872,1.44,6.147,1.441,9.609c0.001,3.852-0.181,7.127-0.801,10.304C86.674,61.04,82.367,68.35,76.94,73.778
		c-0.476,0.477-0.862,0.998-1.335,1.441c-5.139,4.823-11.744,8.577-19.646,10.73c-1.455,0.396-3.043,0.673-4.645,0.907
		C49.735,87.089,48.058,87.3,46.35,87.178z M43.841,0.587c-0.776,0.508-1.451,1.283-2.19,1.922c-4.854,4.207-9.469,8.5-14.2,12.866
		c-0.381,0.352-0.965,0.723-1.067,1.015c-0.218,0.619,0.002,1.569,0,2.349c-0.002,0.66-0.178,1.254,0.106,1.602
		c0.486-0.007,0.758-0.471,1.067-0.747c2.285-2.034,4.572-3.977,6.727-6.086c1.361-1.076,2.6-2.276,3.951-3.363
		c0.606-0.604,1.276-1.143,1.922-1.708c0.713-0.515,1.135-1.32,2.082-1.602c0.319,4.859-0.105,10.462,0.214,15.322
		c1.063,0.074,2.539,0.126,3.523-0.054c0.02-4.619,0.16-9.481,0.159-13.987c0-0.508-0.148-1.124,0.214-1.548
		c2.831,2.063,5.235,4.552,7.901,6.78c1.984,1.699,3.958,3.409,5.926,5.125c0.719,0.509,1.144,1.312,2.082,1.601
		c0.246-1.009,0.18-2.582,0.106-3.737c-1.328-1.515-2.954-2.745-4.484-4.057c-1.528-1.31-3.027-2.674-4.537-4.004
		c-2.313-1.958-4.595-3.948-6.888-5.926C45.893,2.172,44.584,0.1,43.841,0.587z M42.346,39.238c0-5.295,0.08-10.749,0-15.962
		c-0.004-0.277,0.146-0.835-0.267-0.961c-3.621,0.366-6.789,1.646-9.503,3.097c-1.802,1.348-3.644,2.655-5.071,4.378
		c-0.788,0.816-1.405,1.764-2.029,2.723c-0.611,0.94-1.326,1.917-1.601,3.15c0.626,0.45,1.405,0.599,2.135,0.854
		c3.742,1.311,7.637,2.549,11.479,3.737c1.553,0.48,3.088,1.087,4.697,1.281C42.472,40.83,42.346,40.015,42.346,39.238z
		 M46.03,22.421c-0.095,1.374-0.062,3.091-0.107,4.698c-0.093,3.322-0.042,6.69,0.107,9.823c0.077,1.628-0.11,3.241,0.214,4.751
		c0.841,0.054,1.583-0.399,2.349-0.64c4.794-1.508,9.401-2.946,14.094-4.645c0.679-0.245,2.042-0.604,2.136-1.014
		c0.139-0.611-0.961-2.027-1.335-2.616c-3.591-5.647-9.237-9.718-17.351-10.517C46.07,22.283,46.028,22.33,46.03,22.421z
		 M49.233,47.726c2.848,3.707,5.549,7.424,8.596,10.944c0.396,0.457,1.109,1.651,1.601,1.655c0.327,0.002,1.129-0.835,1.495-1.228
		c1.43-1.533,2.41-3.02,3.417-4.912c1.721-3.235,3.025-7.143,2.455-11.958c-0.126-1.068-0.361-2.717-1.281-2.456
		c-1.444,0.411-2.893,0.996-4.377,1.495c-3.711,1.246-7.456,2.495-11.051,3.684c-0.717,0.237-1.535,0.362-2.136,0.854
		C48.202,46.569,48.774,47.128,49.233,47.726z M38.662,44.79c-3.737-1.177-7.406-2.328-11.157-3.523
		c-1.42-0.453-3.493-1.145-4.805-1.335c-0.55,1.296-0.705,3.129-0.694,4.858c0.034,5.519,2.183,9.848,4.698,13.026
		c0.895,1.13,1.928,2.155,3.096,2.83c0.657-0.417,0.992-1.156,1.441-1.762c0.467-0.628,0.991-1.209,1.389-1.869
		c1.613-2.677,3.621-5.124,5.445-7.58c0.93-1.253,2.009-2.412,2.669-3.844C40.189,45.091,39.384,45.017,38.662,44.79z"/>
</g>
<g id="Layer_1">
</g>
</svg>
