<?xml version="1.0" encoding="iso-8859-1"?>
<!-- Generator: Adobe Illustrator 19.2.0, SVG Export Plug-In . SVG Version: 6.00 Build 0)  -->
<svg version="1.1" xmlns="http://www.w3.org/2000/svg" xmlns:xlink="http://www.w3.org/1999/xlink" x="0px" y="0px"
	 viewBox="0 0 102.69 98.257" style="enable-background:new 0 0 102.69 98.257;" xml:space="preserve">
<g id="US_x5F_Canoe_x5F_and_x5F_Kayak_x5F_Team">
	<path style="fill-rule:evenodd;clip-rule:evenodd;" d="M66.383,0c0.223,7.901-0.085,15.573,0.12,23.126
		c16.877-0.053,29.023,5.64,36.188,15.697c-1.328,0.788-2.559,1.676-4.074,2.276c-3.618-3.89-7.756-7.596-13.181-10.065
		c-5.331-2.427-11.455-4.327-18.933-4.194c-0.319,0.449,0.055,1.344-0.12,1.677c14.496,0.323,24.656,4.981,30.915,13.54
		c-1.19,0.087-2.515,2.305-3.834,2.276c-0.745-0.016-1.879-1.792-2.517-2.396c-5.81-5.506-13.853-9.387-24.324-9.826
		c-0.238,0.361-0.377,1.326-0.12,1.797c11.72,0.074,19.992,4.605,25.643,11.144c-1.192,1.004-2.653,1.74-4.074,2.516
		c-5.862-6.122-13.915-10.425-24.684-10.425c-14.121,0-23.209,6.381-34.51,9.826c-1.725,0.526-3.755,1.003-6.111,1.318
		c-3.363,0.45-7.195,1.173-8.148-1.198c7.768-0.09,15.109-2.138,20.97-4.793c2.933-1.329,6.148-2.23,7.069-5.392
		c-7.568,2.663-17.222,7.684-27.919,6.83c-2.377-0.19-5.377-0.618-6.111-2.756c12.353,2.79,24.496-1.933,33.192-6.471
		c2.403-1.254,4.396-1.867,5.152-4.434c-9.138,3.557-20.078,9.79-34.031,8.148C7.807,37.621,2.503,35.821,0,32.593
		c7.112,4.034,18.124,5,26.961,2.756c6.209-1.577,11.954-4.045,17.494-6.83c1.767-0.888,4.218-1.652,5.393-2.636
		c0.686-0.575,1.271-2.081,2.036-3.235C56.491,15.701,62.247,7.09,66.023,0.24C66.069,0.157,66.455,0.217,66.383,0z"/>
	<path style="fill-rule:evenodd;clip-rule:evenodd;" d="M86.873,48.17c-0.802,0.366-2.998,2.669-4.193,2.636
		c-0.627-0.018-1.382-1.237-1.917-1.678c-3.47-2.852-8.443-5.077-13.301-5.991c-12.287-2.313-22.442,2.561-31.395,6.231
		c-2.111,0.866-4.172,1.717-6.95,2.636c-2.725,0.902-8.662,2.904-9.466-0.12c16.047-1.559,24.886-11.814,41.819-12.702
		C72.552,38.602,81.397,42.14,86.873,48.17z"/>
	<path style="fill-rule:evenodd;clip-rule:evenodd;" d="M81.361,51.525c-1.291,0.554-2.606,2.537-4.074,2.517
		c-0.598-0.008-2.157-1.474-2.995-2.037c-2.802-1.881-6.936-3.744-10.904-4.074c-13.958-1.162-21.955,4.974-32.233,8.388
		c-2.342,0.778-6.562,2.836-7.069,0c13.268-2.475,22.128-11.82,37.745-11.983C69.464,44.256,77.127,46.859,81.361,51.525z"/>
	<path style="fill-rule:evenodd;clip-rule:evenodd;" d="M75.97,54.76c-1.305,0.543-2.646,2.494-4.074,2.517
		c-1.066,0.017-2.265-1.426-2.996-1.797c-6.576-3.336-15.67-2.5-22.407-0.12c-6.631,2.342-12.666,5.903-19.771,7.07
		c0.427-2.751,2.953-2.53,5.632-3.475c8.566-3.021,15.933-8.746,26.841-9.347C65.767,49.246,71.855,51.172,75.97,54.76z"/>
	<path style="fill-rule:evenodd;clip-rule:evenodd;" d="M70.577,57.996c-1.231,1.126-3.004,1.71-4.314,2.756
		c-0.183,12.471-0.031,25.735-0.24,37.266c-0.664,0.237-1.207-0.588-1.558-0.959c-6.974-7.376-14.748-14.897-22.048-22.048
		C29.307,82.629,16.562,90.614,3.475,98.257c6.887-10.808,13.533-21.855,20.85-32.233C36.233,64.498,43.699,55.918,56.198,55
		C61.301,54.625,67.425,55.264,70.577,57.996z"/>
</g>
<g id="Layer_1">
</g>
</svg>
