<?xml version="1.0" encoding="iso-8859-1"?>
<!-- Generator: Adobe Illustrator 19.2.0, SVG Export Plug-In . SVG Version: 6.00 Build 0)  -->
<svg version="1.1" xmlns="http://www.w3.org/2000/svg" xmlns:xlink="http://www.w3.org/1999/xlink" x="0px" y="0px"
	 viewBox="0 0 75.309 64.283" style="enable-background:new 0 0 75.309 64.283;" xml:space="preserve">
<g id="Vance_x5F_Industries">
	<path style="fill-rule:evenodd;clip-rule:evenodd;" d="M0.191,0c12.215,0.13,24.464,0.101,36.816,0.288
		c0.536,4.791-1.034,8.285-2.733,11.313c-1.716,3.061-3.825,5.785-5.033,9.3c-1.25,3.641-1.429,8.511,0.192,12.032
		c1.401,3.046,3.895,5.956,8.436,5.848c4.608-0.11,6.854-2.606,8.437-5.896c0.788-1.636,1.277-3.664,1.391-5.8
		c0.231-4.356-1.493-8.224-3.164-11.074c-1.757-2.996-3.751-5.648-4.842-9.443c-0.521-1.813-0.953-3.938-0.575-6.28
		c11.855-0.153,24.363-0.189,36.192,0.048c-0.16,0.802-0.715,1.416-1.103,2.109C67.814,13.861,60.905,25.06,54.312,36.384
		c-0.394,0.676-0.704,1.382-1.103,2.062c-4.643,7.915-9.356,15.993-14.046,23.92c-0.384,0.65-0.643,1.418-1.246,1.917
		c-0.561-0.471-0.885-1.251-1.294-1.917c-2.807-4.572-5.602-9.312-8.341-13.998c-3.926-6.712-7.995-13.315-11.937-20.038
		c-0.395-0.672-0.749-1.398-1.15-2.061c-0.413-0.681-0.696-1.399-1.103-2.062c-1.625-2.649-3.174-5.331-4.746-8.005
		C6.599,11.528,3.875,6.816,1.055,2.109C0.672,1.469,0.141,0.856,0,0.096C0.071,0.071,0.121,0.025,0.191,0z"/>
</g>
<g id="Layer_1">
</g>
</svg>
