<?xml version="1.0" encoding="iso-8859-1"?>
<!-- Generator: Adobe Illustrator 19.2.0, SVG Export Plug-In . SVG Version: 6.00 Build 0)  -->
<svg version="1.1" xmlns="http://www.w3.org/2000/svg" xmlns:xlink="http://www.w3.org/1999/xlink" x="0px" y="0px"
	 viewBox="0 0 75.214 71.974" style="enable-background:new 0 0 75.214 71.974;" xml:space="preserve">
<g id="Vargas_x5F_construction">
	<path style="fill-rule:evenodd;clip-rule:evenodd;" d="M69.591,0.475c0.117,0.413-0.335,0.637-0.553,0.855
		c-2.666,2.666-5.533,5.356-8.201,8.101c-4.838,4.975-9.927,9.907-14.894,14.793c-2.324,2.349-4.609,4.458-6.993,6.843
		c-0.246,0.245-0.759,0.889-1.057,0.905c-0.536,0.03-1.759-1.507-2.113-1.862c-4.619-4.618-9.371-9.32-13.938-13.886
		c-2.675-2.676-5.181-5.484-7.798-8.101c-1.998-1.998-3.982-3.932-5.988-5.938C7.408,1.536,6.651,0.945,6.196,0.123
		c2.609-0.244,6.089-0.051,8.905-0.051C33.147,0.072,52.151,0.309,69.591,0.475z"/>
	<path style="fill-rule:evenodd;clip-rule:evenodd;" d="M0.359,0.274c0.648,0.259,1.648,1.442,2.365,2.113
		C3.52,3.133,4.257,3.906,4.938,4.551c3.833,3.637,7.338,7.188,11.069,10.918c2.171,2.17,4.274,4.487,6.591,6.591
		c0.768,0.697,1.441,1.519,2.163,2.264c3.566,3.673,7.654,7.088,11.02,10.919c-0.024,12.392,0.056,24.666-0.151,36.679
		c-0.41,0.039-0.711-0.359-0.956-0.604c-4.088-4.087-8.4-8.149-12.528-12.277c-4.415-4.414-8.854-8.826-13.333-13.132
		c-2.656-2.51-5.006-5.139-7.748-7.697c-0.363-0.34-0.919-0.748-1.006-1.158c-0.136-0.632,0.012-1.554,0-2.364
		c-0.149-9.763,0.1-19.857,0.1-29.786c0.001-1.51,0.047-3.149,0.102-4.478C0.257,0.339,0.296,0.294,0.359,0.274z"/>
	<path style="fill-rule:evenodd;clip-rule:evenodd;" d="M75.026,0.777c0.033,0,0.066,0,0.101,0c0.162,2.876,0.05,5.915,0.05,9.007
		c0,9.057-0.062,18.399-0.1,27.823c-2.732,2.938-5.719,5.618-8.553,8.453c-1.407,1.406-2.85,2.829-4.328,4.176
		c-1.485,1.354-2.809,2.879-4.276,4.227c-5.906,5.427-11.522,11.155-17.358,16.653c-0.411,0.252-0.653,0.911-1.207,0.855
		c-0.123-8.8-0.093-18.595,0-27.672c0.019-1.979-0.032-4.35,0-6.592c0.011-0.787-0.123-1.655,0-2.314
		c0.175-0.938,1.652-1.568,2.113-2.314c0.732-0.727,1.507-1.411,2.214-2.163c4.572-4.239,9.009-8.874,13.685-13.132
		c0.66-0.601,1.343-1.263,1.912-1.912c2.327-2.649,5.102-5.052,7.698-7.648c1.846-1.844,3.959-3.656,5.887-5.584
		C73.546,1.954,74.414,1.135,75.026,0.777z"/>
</g>
<g id="Layer_1">
</g>
</svg>
