<?xml version="1.0" encoding="iso-8859-1"?>
<!-- Generator: Adobe Illustrator 19.2.0, SVG Export Plug-In . SVG Version: 6.00 Build 0)  -->
<svg version="1.1" xmlns="http://www.w3.org/2000/svg" xmlns:xlink="http://www.w3.org/1999/xlink" x="0px" y="0px"
	 viewBox="0 0 70.296 60.569" style="enable-background:new 0 0 70.296 60.569;" xml:space="preserve">
<g id="VEB_x5F_Uhrenkombinat">
	<path style="fill-rule:evenodd;clip-rule:evenodd;" d="M32.569,0.286c0.272,0.631,0.043,1.296,0,1.982
		c-0.191,3.074-0.035,6.798-0.496,9.566c0.687,11.473-3.023,19.233-8.576,24.785c-2.742,2.742-6.241,4.845-9.666,7.139
		c-2.731,1.828-5.945,3.899-8.972,5.7c-0.419,0.249-1.062,0.77-1.338,0.743c-0.351-0.033-0.814-0.923-1.041-1.338
		c-0.629-1.152-1.029-1.872-1.685-2.975c-0.221-0.372-0.833-1.138-0.794-1.537c0.059-0.582,1.997-1.6,2.479-1.933
		c2.596-1.794,5.236-3.597,7.783-5.304c5.344-3.584,10.274-7.095,12.64-13.533c0.792-2.155,1.146-4.562,1.338-7.386
		c0.311-4.567,0.641-9.555,0.992-14.275c0.044-0.598,0.03-1.282,0.396-1.785c0.934-0.087,2.423-0.049,3.668-0.05
		C30.491,0.087,31.696-0.061,32.569,0.286z"/>
	<path style="fill-rule:evenodd;clip-rule:evenodd;" d="M44.317,0.286c0.372,1.23,0.325,2.592,0.446,3.915
		c0.362,3.938,0.645,8.15,0.942,12.046c0.402,5.278,2.039,9.661,4.61,12.739c2.43,3.292,6.359,5.291,9.716,7.634
		c3.059,2.135,5.941,3.916,9.121,6.048c0.433,0.29,1.098,0.66,1.14,0.991c0.056,0.446-0.547,1.211-0.793,1.636
		c-0.521,0.899-1.181,2.077-1.735,3.024c-0.172,0.293-0.622,1.282-1.041,1.338c-0.334,0.044-1.16-0.537-1.636-0.843
		c-5.565-3.573-11.54-6.744-16.507-10.757c-5.419-4.378-9.492-10.369-10.36-19.382c-0.294-3.041-0.373-6.254-0.496-9.418
		c-0.071-1.829-0.259-4.707-0.396-7.039c-0.064-1.09-0.256-1.99,0.496-2.132c1.013-0.19,2.272-0.011,3.371,0
		C42.294,0.098,43.385,0.064,44.317,0.286z"/>
	<path style="fill-rule:evenodd;clip-rule:evenodd;" d="M64.443,53.969c-0.181,0.636-0.516,1.098-0.793,1.586
		c-0.569,1.004-1.092,1.901-1.735,3.024c-0.229,0.398-0.624,1.314-0.992,1.388c-0.326,0.064-1.229-0.396-1.636-0.595
		c-3.473-1.704-7.085-3.426-10.559-5.007c-4.131-1.88-8.323-3.998-13.83-3.916c-5.597,0.084-9.441,2.504-13.434,4.362
		c-2.93,1.364-5.794,2.963-8.922,4.411c-0.506,0.234-0.936,0.393-1.537,0.694c-0.442,0.223-1.157,0.712-1.537,0.645
		c-0.435-0.078-0.742-0.998-0.991-1.438c-0.623-1.098-1.175-1.999-1.785-3.024c-0.287-0.482-0.673-0.971-0.743-1.636
		c0.908-0.889,2.161-1.243,3.222-1.833c1.098-0.611,2.211-1.165,3.321-1.735c6.643-3.416,12.536-7.734,22.108-8.18
		c6.755-0.313,11.855,2.168,16.308,4.313c4.098,1.975,7.91,4.013,11.947,5.997C63.406,53.298,64.046,53.467,64.443,53.969z"/>
</g>
<g id="Layer_1">
</g>
</svg>
