<?xml version="1.0" encoding="iso-8859-1"?>
<!-- Generator: Adobe Illustrator 19.2.0, SVG Export Plug-In . SVG Version: 6.00 Build 0)  -->
<svg version="1.1" xmlns="http://www.w3.org/2000/svg" xmlns:xlink="http://www.w3.org/1999/xlink" x="0px" y="0px"
	 viewBox="0 0 75.344 56.069" style="enable-background:new 0 0 75.344 56.069;" xml:space="preserve">
<g id="Verde_x5F_Japan">
	<path style="fill-rule:evenodd;clip-rule:evenodd;" d="M52.382,0.264c0.259,0.821,0.2,2.423,0.051,3.321
		c-1.211,0.446-2.45,0.398-3.628,0.562c-6.073,0.847-10.648,3.199-14.664,6.131c-1.59,1.161-2.873,2.629-4.19,4.139
		c-2.61,2.994-4.33,6.789-6.183,10.475c-1.854,3.689-3.985,7.055-6.795,9.861c-1.244,1.101-2.439,2.298-3.832,3.321
		c-0.42,0.308-0.916,0.796-1.533,0.716c-0.447-0.627-0.256-1.493-0.256-2.249c0-5.776,0.052-11.289,0.051-17.066
		c0-5.417-0.161-11.185,0-17.015c0.022-0.786,0.042-1.88,0.307-2.146c0.611-0.61,2.667-0.147,3.628-0.153
		c0.525,0.959,0.358,2.204,0.358,3.372c0.001,6.218-0.103,12.446-0.102,18.854c0,1.913-0.002,3.81,0,5.569
		c0,0.553-0.127,1.207,0.204,1.686c0.531-0.047,0.852-0.589,1.124-0.971c1.949-2.738,3.438-6.125,5.008-9.299
		c1.808-3.655,4.036-6.643,6.898-9.503c1.374-1.374,2.796-2.698,4.394-3.832c1.557-1.104,3.414-2.008,5.313-2.861
		c2.693-1.209,5.918-2.341,9.453-2.81c1.206-0.16,2.521-0.4,3.679-0.307C52.008,0.088,52.157,0.049,52.382,0.264z"/>
	<path style="fill-rule:evenodd;clip-rule:evenodd;" d="M3.841,0.316C4.134,1.284,3.987,2.323,3.995,3.33
		c0.024,3.037-0.15,6.262,0,9.453c0.296,6.285,0,12.572,0,19.109c-0.001,5.284,0.024,10.217,0.153,15.584
		c0.023,0.983-0.21,2.063,0.255,2.963c1.167,0.074,2.201-0.472,3.22-0.817c2.934-0.995,5.669-2.603,8.072-4.19
		c6.497-4.29,11.558-10.405,14.92-17.883c0.235-0.522,0.307-1.063,0.512-1.584c1.291-3.281,3.455-6.102,5.824-8.482
		c2.752-2.656,6.274-4.622,10.679-5.723c0.754-0.188,1.515-0.335,2.352-0.409c0.754-0.066,1.621-0.324,2.401,0
		c0.257,0.847,0.237,2.624,0,3.475c-1.302,0.411-2.625,0.382-3.833,0.715c-3.545,0.978-6.514,2.549-8.788,4.854
		c-2.842,2.59-4.711,5.933-5.519,10.373c-0.896,4.934,0.678,9.517,2.607,12.773c1.841,3.108,4.988,5.691,8.737,7.154
		c1.868,0.729,4.113,1.28,6.591,1.379c2.398,0.097,4.824-0.283,6.898-1.021c5.642-2.01,10.029-6.22,11.752-12.109
		c0.602-2.058,0.795-4.313,0.767-7.154c-0.091-8.822-0.052-18.473-0.052-27.591c0-1.253-0.086-2.52,0.204-3.73
		c0.717-0.386,2.524-0.451,3.321-0.051c0.244,1.163,0.176,2.391,0.204,3.577c0.209,8.645-0.128,17.754,0,26.058
		c0.041,2.591,0.202,4.996-0.152,7.204c-0.35,2.172-0.917,4.024-1.737,5.774c-0.437,0.929-0.754,1.782-1.227,2.555
		c-3.164,5.168-8.751,9.195-16.095,10.27c-4.393,0.643-9.284-0.242-12.825-1.737c-5.076-2.142-9.148-6.171-11.343-11.241
		c-0.387-0.892-0.835-1.774-1.023-2.759c-0.193-1.016-0.333-2.077-0.767-2.963c-0.438,0.016-0.565,0.484-0.766,0.766
		c-0.592,0.834-1.331,1.672-2.045,2.453c-0.887,1.123-1.882,2.137-2.912,3.117c-5.315,5.126-11.879,9.132-20.183,11.343
		c-1.157,0.309-2.449,0.667-3.73,0.562c-0.365-1.045-0.182-2.164-0.256-3.27c-0.072-1.079,0.001-2.174-0.051-3.271
		c-0.107-2.267,0-4.629,0-6.949c0-4.624-0.104-9.329-0.102-13.949c0.001-4.601,0.268-9.253,0.051-13.847
		c-0.109-2.32-0.158-4.701-0.051-7c0.105-2.253-0.019-4.5,0.205-6.694c0.3-0.304,0.938-0.304,1.481-0.307
		C2.485,0.108,3.352,0.042,3.841,0.316z"/>
	<path style="fill-rule:evenodd;clip-rule:evenodd;" d="M64.083,0.367c0.27,0.984,0.153,2.037,0.153,3.065
		c0.002,7.304,0.051,14.782,0.051,21.869c0.001,4.274,0.463,8.98-0.664,12.059c-1.126,3.077-3.201,5.177-6.132,6.591
		c-1.561,0.754-3.463,1.138-5.364,1.022c-1.942-0.118-3.58-0.725-4.905-1.431c-2.709-1.443-4.816-3.961-5.569-7.153
		c-1.419-6.015,1.783-10.688,5.672-12.723c1.37-0.717,3.081-1.336,4.956-1.175c0.352,0.816,0.234,2.555,0.103,3.525
		c-0.866,0.494-1.789,0.576-2.607,0.971c-2.629,1.271-5.219,4.392-4.139,8.584c0.55,2.133,2.27,3.831,4.139,4.701
		c2.074,0.965,5.033,0.824,7.051-0.511c1.368-1.098,2.747-2.439,3.22-4.497c0.262-1.141,0.204-2.721,0.204-4.292
		c0-4.196,0.055-8.769-0.051-13.183c-0.106-4.429,0.051-8.672,0.051-13.131c0-1.222-0.247-3.713,0.204-4.241
		c0.265-0.31,1.041-0.306,1.482-0.307C62.587,0.11,63.567,0.107,64.083,0.367z"/>
</g>
<g id="Layer_1">
</g>
</svg>
