<?xml version="1.0" encoding="iso-8859-1"?>
<!-- Generator: Adobe Illustrator 19.2.0, SVG Export Plug-In . SVG Version: 6.00 Build 0)  -->
<svg version="1.1" xmlns="http://www.w3.org/2000/svg" xmlns:xlink="http://www.w3.org/1999/xlink" x="0px" y="0px"
	 viewBox="0 0 58.385 76.074" style="enable-background:new 0 0 58.385 76.074;" xml:space="preserve">
<g id="Vereinigung_x5F_Karster_x5F_Kunstler">
	<path style="fill-rule:evenodd;clip-rule:evenodd;" d="M28.696,0.054c0.328-0.026,0.573,0.031,0.806,0.101
		C29.372,0.343,28.763,0.253,28.696,0.054z"/>
	<path style="fill-rule:evenodd;clip-rule:evenodd;" d="M12.938,3.88c1.352,1.284,2.402,2.868,3.574,4.33
		c0.124,0.146,0.395,0.143,0.504,0.302c-0.099,0.579-0.59,0.97-0.906,1.409c-0.32,0.447-0.632,0.887-0.957,1.309
		c-0.651,0.848-1.283,1.745-2.114,2.416c0.679-1.377,1.371-3.046,1.359-4.833c-0.012-1.831-0.751-3.464-1.46-4.782
		C12.938,3.981,12.938,3.931,12.938,3.88z"/>
	<path style="fill-rule:evenodd;clip-rule:evenodd;" d="M35.291,4.183c-0.009-0.043,0.021-0.048,0.051-0.051
		c0.041,0.01,0.05,0.051,0.101,0.051c3.428,3.972,6.411,8.304,9.717,12.384c3.301,4.075,6.304,8.369,9.615,12.485
		c1.633,2.03,3.416,3.999,3.574,7.502c0.081,1.772,0,3.543,0,5.336c0,6.922-0.077,14.782-0.1,21.749
		c-0.007,1.745,0.098,3.469-0.202,5.085c-0.541,2.916-2.518,5.088-4.782,6.293c-1.237,0.657-2.704,1.057-4.48,1.057
		c-9.051,0.001-17.987-0.051-27.136-0.101c-3.412-0.018-5.643-1.668-7.351-3.726c-1.699-2.048-3.268-4.223-4.833-6.192
		c-0.831-1.045-1.532-2.15-2.366-3.171c-1.646-2.016-3.217-4.144-4.782-6.243C1.544,55.606,0.604,54.672,0,53.469
		c1.503,0.999,2.885,2.176,5.034,2.417c3.927,0.44,6.961-1.654,8.408-4.179c1.486-2.594,1.587-6.488-0.051-9.112
		c0.163-0.029,0.456,0.281,0.654,0.504c0.612,0.682,1.233,1.484,1.812,2.266c1.538,2.073,3.078,4.048,4.733,6.142
		c0.84,1.062,1.566,2.059,2.567,2.819c1.971,1.496,5.498,2.382,8.509,1.157c2.529-1.028,4.409-2.853,5.235-5.588
		c0.401-1.331,0.507-3.346,0.151-4.884c-0.444-1.922-1.631-3.349-2.719-4.782c-1.102-1.451-2.306-2.774-3.323-4.179
		c-1.901-2.408-3.756-4.874-5.789-7.351c-0.262-0.318-0.746-0.802-0.755-1.107c-0.01-0.302,0.488-0.917,0.805-1.309
		c2.183-2.697,4.363-5.607,6.444-8.307c2.466-3.2,6.05-6.245,4.481-11.63c-0.216-0.742-0.532-1.252-0.855-2.064
		C35.35,4.224,35.331,4.194,35.291,4.183z"/>
	<path style="fill-rule:evenodd;clip-rule:evenodd;" d="M27.689,0.054c-1.287,0.224-2.663,0.357-3.625,0.906
		c0.214-0.44,0.834-0.402,1.31-0.554C26.074,0.184,26.7-0.126,27.689,0.054z"/>
</g>
<g id="Layer_1">
</g>
</svg>
