<?xml version="1.0" encoding="iso-8859-1"?>
<!-- Generator: Adobe Illustrator 19.2.0, SVG Export Plug-In . SVG Version: 6.00 Build 0)  -->
<svg version="1.1" xmlns="http://www.w3.org/2000/svg" xmlns:xlink="http://www.w3.org/1999/xlink" x="0px" y="0px"
	 viewBox="0 0 94.273 93.907" style="enable-background:new 0 0 94.273 93.907;" xml:space="preserve">
<g id="Verein_x5F_Oberlinhaus">
	<path style="fill-rule:evenodd;clip-rule:evenodd;" d="M44.259,43.741c-9.355-0.343-18.644,1.039-25.907-0.239
		c-7.151-1.26-12.526-5.7-15.472-10.915c-3.752-6.643-2.792-15.962,0.36-21.469C6.434,5.537,12.612,0.846,19.911,0.203
		c11.367-1,18.477,4.863,22.188,12.114C46.086,20.105,43.774,32.887,44.259,43.741z M37.542,19.274
		C36.179,11.961,29.987,6.232,21.11,6.8C13.901,7.262,8.542,13.002,7.317,18.794c-1.728,8.176,2.926,14.546,8.516,17.031
		c5.954,2.647,13.246,0.801,21.709,1.319C37.186,30.867,38.583,24.857,37.542,19.274z"/>
	<path style="fill-rule:evenodd;clip-rule:evenodd;" d="M94.033,0.203c-0.713,10.95,2.183,23.914-2.519,32.384
		c-3.153,5.681-9.416,10.629-17.391,11.274c-7.629,0.617-15.589-0.463-23.628,0c-0.285-4.785-0.12-9.722-0.12-14.393
		c0-5.013-0.24-9.692,0.96-13.553c2.548-8.206,9.214-14.862,19.19-15.713C78.051-0.437,86.046,0.685,94.033,0.203z M71.725,6.8
		c-4.089,0.263-7.651,1.949-9.955,4.198c-5.765,5.627-4.791,14.935-4.677,26.146c9.619,0.054,20.044,1.435,25.787-3.838
		c6.112-5.61,4.578-16.437,4.558-26.387C82.725,7.026,76.753,6.479,71.725,6.8z"/>
	<path style="fill-rule:evenodd;clip-rule:evenodd;" d="M44.139,49.859c-0.342,10.844,1.558,22.82-1.679,30.465
		c-3.09,7.297-9.526,12.854-18.83,13.433c-7.627,0.475-15.404-0.355-23.388,0c0.154-8.735-0.613-16.025,0-24.107
		c0.728-9.598,7.768-16.793,16.191-19.07C23.838,48.575,34.833,50.584,44.139,49.859z M21.59,56.575
		C13.8,57.026,8.529,61.963,7.078,68.568c-1.174,5.344,0.216,12.117-0.12,18.591c10.258-0.23,19.189,1.306,24.947-3.358
		c1.556-1.26,2.996-2.975,3.958-4.797c3.12-5.908,1.337-15.094,1.56-22.549C32.404,56.546,26.604,56.284,21.59,56.575z"/>
	<path style="fill-rule:evenodd;clip-rule:evenodd;" d="M50.496,49.859c11.225,0.681,23.684-1.725,31.304,2.159
		c6.628,3.378,12.806,10.657,12.113,21.229c-0.708,10.82-8.197,18.459-17.751,20.15C64.66,95.432,55.77,89.025,52.055,80.683
		c-1.86-4.176-1.904-9.594-1.679-15.353c0.196-5.014-0.382-11.021,0-15.112C50.365,50.048,50.356,49.879,50.496,49.859z
		 M56.972,56.815c0.276,5.699-0.375,11.077,0,15.952c0.552,7.163,5.134,12.116,10.674,13.793c7.628,2.309,14.291-1.27,17.392-6.356
		c4.509-7.398,1.587-17.26-4.558-21.35c-6.083-4.049-14.157-1.7-23.148-2.398C57.159,56.523,57.04,56.642,56.972,56.815z"/>
</g>
<g id="Layer_1">
</g>
</svg>
