<?xml version="1.0" encoding="iso-8859-1"?>
<!-- Generator: Adobe Illustrator 19.2.0, SVG Export Plug-In . SVG Version: 6.00 Build 0)  -->
<svg version="1.1" xmlns="http://www.w3.org/2000/svg" xmlns:xlink="http://www.w3.org/1999/xlink" x="0px" y="0px"
	 viewBox="0 0 68.897 76.113" style="enable-background:new 0 0 68.897 76.113;" xml:space="preserve">
<g id="Verkehrsverein_x5F_Dusseldorf">
	<path style="fill-rule:evenodd;clip-rule:evenodd;" d="M19.933,0.193C20.341,1.182,20.58,2.26,20.8,3.327
		c0.676,3.274,1.348,6.562,2.121,9.833c0.764,3.233,1.395,6.508,2.121,9.833c0.116,0.532,0.247,1.058,0.385,1.591
		c0.124,0.476,0.159,1.066,0.53,1.446c0.455-0.239,0.523-0.886,0.626-1.35c0.842-3.78,1.628-7.559,2.507-11.328
		c0.722-3.094,1.471-6.377,2.121-9.737c0.142-0.734,0.306-2.993,0.867-3.229c0.676-0.284,2.036-0.096,3.133-0.096
		c1.172,0,2.421-0.154,3.037,0.289c0.193,0.69-0.159,1.407-0.385,2.024c-0.688,1.879-1.358,3.868-1.977,5.833
		c-1.66,5.277-3.188,10.656-4.772,16.051c-0.395,1.344-0.821,2.688-1.157,4.049c-0.166,0.672-0.378,1.359-0.579,2.024
		c-0.197,0.658-0.492,1.36-0.337,2.073c0.707,0.339,1.597,0.207,2.41,0.144c0.861-0.066,1.729-0.007,2.603-0.048
		c4.169-0.194,8.26-0.495,12.244-0.916c0.719-0.076,1.926-0.086,2.217-0.386c0.3-0.31,0.192-1.692,0.192-2.362
		c0.001-2.397-0.027-5.096,0-7.327c0.007-0.541-0.145-1.177,0.097-1.591c1.135-0.409,2.39-0.328,3.615-0.482
		c3.893-0.489,7.673,0.224,10.219,1.639c3.377,1.877,5.9,5.287,6.218,10.026c0.379,5.653-2.043,9.445-5.494,11.666
		c-1.716,1.102-3.901,1.849-6.508,2.072c-1.283,0.11-2.685,0.219-4.049,0.241c-1.314,0.021-2.688,0.001-3.953-0.337
		c-0.416-1.817,0.127-4.593-0.289-6.411c-0.009-0.039-0.048-0.048-0.048-0.096c-1.515-0.3-3.149-0.212-4.772-0.337
		c-3.911-0.303-8.287-0.257-12.388-0.386c-0.825-0.026-2.136-0.094-2.41,0.145c-0.487,0.424-0.118,2.716-0.145,3.856
		c-0.097,4.053,0.193,7.979,0.192,12.147c0,4.073,0.219,8.169,0.241,12.34c0.007,1.309-0.016,2.651,0.386,3.76
		c0.039,0.009,0.048,0.048,0.096,0.048c4.303,0.333,7.967-0.909,10.749-2.555c1.372-0.811,2.672-1.81,3.76-2.988
		c1.068-1.157,1.99-2.646,2.169-4.435c-0.332-0.576-1.12-0.555-1.735-0.723c-1.238-0.339-2.583-0.655-3.953-0.964
		c-0.644-0.145-1.355-0.167-1.832-0.579c0.19-0.811,1.011-1.166,1.542-1.639c0.561-0.5,1.064-1.035,1.687-1.446
		c1.084-1.021,2.325-1.885,3.374-2.941c1.728-1.425,3.354-2.904,4.965-4.483c0.508-0.497,1.069-1.125,1.832-1.301
		c0.814,1.13,0.919,2.823,0.964,4.435c0.149,5.384-1.122,9.623-2.844,13.256c-2.264,4.777-6.423,8.336-11.328,10.267
		c-3.808,1.498-8.577,2.112-14.027,2.169c-1.673,0.018-3.425-0.155-4.965-0.434c-6.082-1.099-11.015-3.435-14.219-7.327
		c-2.771-3.067-4.573-7.413-5.254-12.726c-0.136-1.063-0.155-2.16-0.289-3.278c-0.128-1.07-0.254-2.195-0.29-3.326
		c-0.035-1.105-0.083-2.282,0.241-3.326c0.945,0.099,1.191,0.897,1.832,1.301c3.359,2.875,6.558,5.911,9.737,8.966
		c0.445,0.583,1.209,0.848,1.398,1.687c-0.322,0.55-1.057,0.575-1.687,0.771c-1.214,0.378-2.304,0.83-3.615,1.302
		c-0.472,0.17-1.446,0.43-1.543,0.916c-0.15,0.764,0.652,1.711,0.964,2.217c0.45,0.732,0.846,1.29,1.253,1.928
		c2.516,3.021,5.862,4.968,11.183,5.399c0.738,0.06,1.913,0.26,2.266-0.096c0.333-0.336,0.25-1.92,0.289-2.748
		c0.138-2.912,0.265-6.011,0.337-8.772c0.146-5.561,0.019-12.193,0.289-17.883c0.038-0.789,0.222-1.646-0.192-2.314
		c-3.593-0.111-7.181,0.342-10.749,0.627c-2.654,0.212-5.276,0.458-7.954,0.723c-0.829,0.082-1.735,0.27-2.555,0
		c-0.477-1.192-0.203-2.829-0.29-4.338c-0.043-0.755-0.048-1.531-0.048-2.314c0-0.749-0.132-1.571,0.193-2.169
		c0.862-0.135,1.783,0.086,2.651,0.241c5.101,0.91,10.663,1.407,16.534,1.687c0.899,0.042,1.915,0.322,2.651-0.193
		c-0.023-1.442-0.666-2.759-1.061-4.097c-1.178-3.998-2.595-7.94-3.856-11.906c-1.267-3.982-2.544-7.94-3.857-11.906
		c-0.433-1.308-1.054-2.592-1.157-4.001c0.635-0.435,1.583-0.348,2.506-0.434c0.412-0.039,0.861-0.104,1.302-0.145
		C18.088,0.051,19.041-0.151,19.933,0.193z M56.711,40.684c2.06-0.157,3.554-0.588,4.627-1.735c1.36-1.454,2.031-4.467,1.88-6.893
		c-0.175-2.819-1.29-5.364-3.181-6.652c-0.982-0.669-3.441-1.516-4.965-1.205c-0.74,0.151-0.435,2.754-0.435,3.808
		c0,3.673-0.053,7.147,0,10.604c0.011,0.685-0.023,1.473,0.193,1.977C55.445,40.854,56.13,40.728,56.711,40.684z"/>
</g>
<g id="Layer_1">
</g>
</svg>
