<?xml version="1.0" encoding="iso-8859-1"?>
<!-- Generator: Adobe Illustrator 19.2.0, SVG Export Plug-In . SVG Version: 6.00 Build 0)  -->
<svg version="1.1" xmlns="http://www.w3.org/2000/svg" xmlns:xlink="http://www.w3.org/1999/xlink" x="0px" y="0px"
	 viewBox="0 0 77.442 68.503" style="enable-background:new 0 0 77.442 68.503;" xml:space="preserve">
<g id="VH_x5F_Verlag">
	<path style="fill-rule:evenodd;clip-rule:evenodd;" d="M67.088,0.131c-0.049,0.831-0.336,1.663-0.586,2.439
		c-0.742,2.307-1.498,4.649-2.244,6.976c-0.752,2.348-1.438,4.707-2.146,7.074c-0.232,0.775-0.659,1.508-0.634,2.341
		c0.605,0.09,1.161-0.332,1.707-0.586c1.622-0.754,3.473-1.369,5.416-1.902c2.523-0.693,5.972-0.89,8.732-0.195
		c0.158,8.437,0.099,17.343,0.098,26.051c-0.001,8.618,0.061,17.259-0.146,26.002c-1.135,0.261-2.399,0.146-3.659,0.146
		c-3.677,0-7.752,0.094-11.123-0.146c0.078-0.959,0.475-1.869,0.781-2.781c1.499-4.466,2.969-9.258,4.439-13.806
		c0.303-0.938,0.558-1.882,0.83-2.829c0.261-0.911,0.645-1.782,0.927-2.683c0.545-1.742,1.118-3.703,1.708-5.61
		c0.578-1.872,1.436-3.64,1.512-5.756c0.163-4.554-3.279-7.024-8.098-5.806c-7.424,1.878-9.581,10.042-11.952,17.221
		c-1.214,3.675-2.203,7.451-3.512,11.074c-0.653,1.808-1.194,3.658-1.756,5.513c-0.561,1.848-0.876,3.801-1.756,5.513
		c-5.912,0.074-11.594,0.049-17.416,0.049c-0.776,0-1.604,0.111-2.342-0.146c0.265-1.479,0.896-2.859,1.317-4.293
		c1.255-4.276,2.717-8.533,4-12.83c1.705-5.71,3.668-11.33,5.366-17.026c1.701-5.706,3.544-11.374,5.415-17.025
		c0.939-2.839,1.695-5.749,2.634-8.586c0.703-2.123,1.356-4.19,2-6.391c0.206-0.705,0.253-1.468,0.683-2.098
		C53.85,0.097,60.847-0.135,67.088,0.131z"/>
	<path style="fill-rule:evenodd;clip-rule:evenodd;" d="M39.037,17.839c-0.065,1.122-0.549,2.159-0.878,3.22
		c-2.276,7.342-4.516,14.847-6.879,22.196c-2.367,7.361-4.628,14.723-6.976,22.148c-0.318,1.005-0.53,2.105-1.171,2.976
		c-7.408,0.068-15.576,0.128-23.026-0.098c-0.189-12.313-0.076-24.86-0.049-37.32c0.009-4.188-0.097-8.35,0.098-12.489
		c0.462,0.581,0.629,1.351,0.83,2.049c0.625,2.18,1.325,4.347,2,6.537c1.116,3.621,2.399,7.168,3.366,10.928
		c1.16,4.512,2.438,8.977,3.415,13.66c0.156,0.75,0.176,1.564,0.585,2.244c0.455-0.661,0.505-1.492,0.683-2.244
		c1.291-5.473,2.674-10.926,4.293-16.196c0.919-2.991,1.788-6.005,2.781-8.928c0.755-2.223,1.328-4.407,2.049-6.732
		c0.215-0.692,0.411-1.438,0.83-2.049C26.975,17.739,33.295,17.542,39.037,17.839z"/>
</g>
<g id="Layer_1">
</g>
</svg>
