<?xml version="1.0" encoding="iso-8859-1"?>
<!-- Generator: Adobe Illustrator 19.2.0, SVG Export Plug-In . SVG Version: 6.00 Build 0)  -->
<svg version="1.1" xmlns="http://www.w3.org/2000/svg" xmlns:xlink="http://www.w3.org/1999/xlink" x="0px" y="0px"
	 viewBox="0 0 81.139 61.82" style="enable-background:new 0 0 81.139 61.82;" xml:space="preserve">
<g id="Vibrodyne">
	<path style="fill-rule:evenodd;clip-rule:evenodd;" d="M66.524,2.377c-0.132,0.799-0.703,1.396-1.062,2.073
		c-2.465,4.648-5.088,9.274-7.683,13.9c-2.592,4.623-5.11,9.27-7.733,13.9c-0.366,0.645-0.85,1.264-1.163,1.92
		c-0.201,0.422-0.272,0.849-0.506,1.264c-0.602,1.073-1.231,2.164-1.87,3.286c-0.834,1.465-1.477,3.104-2.527,4.347
		c-1.075,1.271-3.378,1.983-5.206,0.91c-1.575-0.925-2.494-2.952-3.488-4.701c-2.982-5.249-5.873-10.247-8.896-15.67
		c-0.948-1.7-2.051-3.387-3.033-5.156c-2.448-4.411-4.858-8.553-7.43-13.041c-0.21-0.367-0.457-0.753-0.758-1.314
		c-0.266-0.495-0.675-1.097-0.657-1.365c0.042-0.617,1.141-1.009,1.719-1.365c0.306-0.189,0.578-0.383,0.96-0.606
		c0.267-0.156,0.734-0.499,1.062-0.455c0.561,0.075,1.144,1.699,1.516,2.325c1.455,2.445,2.744,4.865,4.145,7.279
		c2.767,4.766,5.617,9.521,8.34,14.507c0.858,1.571,1.81,3.291,2.729,4.853c1.355,2.301,2.775,4.724,4.195,7.228
		c0.322,0.567,1.059,2.18,1.617,2.174c0.545-0.006,1.196-1.571,1.567-2.224c0.968-1.702,1.765-3.204,2.729-4.852
		c2.296-3.926,4.432-8.335,6.672-12.182c2.681-4.604,5.428-9.689,8.088-14.558c0.396-0.725,0.928-1.564,1.364-2.426
		c0.295-0.582,1.188-2.488,1.668-2.426c0.678,0.087,1.304,0.679,1.971,1.061C65.531,1.45,66.268,1.77,66.524,2.377z"/>
	<path style="fill-rule:evenodd;clip-rule:evenodd;" d="M70.163,4.399c0.545,0.086,1.573,0.699,2.072,0.961
		c0.706,0.37,1.345,0.766,1.668,1.314c-1.517,3.348-3.532,6.439-5.257,9.705c-1.708,3.233-3.633,6.371-5.358,9.604
		c-1.725,3.232-3.582,6.404-5.358,9.604c-1.778,3.202-3.54,6.411-5.358,9.553c-1.838,3.175-3.791,6.106-7.582,7.38
		c-2.078,0.698-4.249,0.88-6.521,0.556c-2.013-0.287-3.71-1.247-5.156-2.275c-2.851-2.026-4.376-5.468-6.268-8.694
		c-1.859-3.171-3.676-6.416-5.409-9.503c-3.503-6.166-7.279-12.55-10.918-18.955c-0.852-1.5-1.644-3.227-2.628-4.852
		c-0.259-0.429-0.85-1.16-0.809-1.668c0.049-0.609,1.082-1.038,1.618-1.365c0.541-0.33,1.396-1.053,1.92-1.011
		c0.585,0.046,1.614,2.218,1.921,2.729c0.642,1.07,1.162,1.999,1.668,2.932c5.401,9.946,11.178,19.38,16.731,29.267
		c0.511,0.909,1.076,1.949,1.668,2.932c1.71,2.837,3.659,5.716,8.138,5.661c4.039-0.049,6.534-2.88,7.784-5.914
		c0.428-1.039,1.126-1.995,1.618-2.932c1.024-1.955,2.235-3.841,3.336-5.762C59.238,23.976,64.324,14.183,70.011,4.5
		C70.078,4.482,70.091,4.411,70.163,4.399z"/>
	<path style="fill-rule:evenodd;clip-rule:evenodd;" d="M77.593,8.594c0.639,0.226,1.26,0.559,1.971,1.011
		c0.502,0.319,1.496,0.75,1.567,1.264c0.083,0.608-0.607,1.4-0.91,1.971c-6.264,11.81-12.904,23.358-19.41,34.827
		c-0.701,1.235-1.344,2.477-2.073,3.639c-1.408,2.246-3.182,4.514-5.307,6.116c-3.17,2.39-7.257,4.397-12.687,4.398
		c-7.23,0-12.188-3.195-15.72-7.127c-1.828-2.035-3.08-4.472-4.498-6.925c-4.226-7.31-8.279-14.387-12.435-21.786
		c-0.69-1.23-1.257-2.547-1.971-3.741c-1.438-2.404-2.675-4.725-4.145-7.278c-0.316-0.549-0.647-1.089-1.011-1.82
		c-0.218-0.438-1.028-1.365-0.961-1.87c0.064-0.476,1.194-1.013,1.668-1.264c0.327-0.174,0.608-0.285,0.96-0.505
		c0.284-0.178,0.613-0.499,1.011-0.455c0.434,0.049,0.833,0.893,1.163,1.516c0.663,1.255,1.323,2.189,1.971,3.387
		c0.323,0.597,0.537,1.228,0.859,1.769c1.408,2.367,2.545,4.632,3.792,6.824c2.601,4.572,5.286,8.997,7.784,13.445
		c1.267,2.255,2.538,4.522,3.892,6.773c2.672,4.441,4.653,9.27,9.3,11.929c2.252,1.288,5.083,2.299,8.34,2.275
		c6.473-0.049,11.073-3.521,13.647-7.633c2.731-4.36,5.113-9.177,7.683-13.546c3.918-6.66,7.524-13.674,11.474-20.371
		c1.323-2.242,2.404-4.606,3.842-6.773C77.497,8.666,77.525,8.61,77.593,8.594z"/>
</g>
<g id="Layer_1">
</g>
</svg>
