<?xml version="1.0" encoding="iso-8859-1"?>
<!-- Generator: Adobe Illustrator 21.0.2, SVG Export Plug-In . SVG Version: 6.00 Build 0)  -->
<svg version="1.1" xmlns="http://www.w3.org/2000/svg" xmlns:xlink="http://www.w3.org/1999/xlink" x="0px" y="0px"
	 viewBox="0 0 41.923 42.101" style="enable-background:new 0 0 41.923 42.101;" xml:space="preserve">
<g id="Victor_x5F_Martinez">
	<g>
		<g>
			<path d="M0.077,0.076C13.995,0.041,27.917,0.116,41.833,0c0.012,13.787,0.057,27.57,0.09,41.355
				c0.005,0.218-0.026,0.436-0.064,0.652c-1.356-0.039-2.705,0.102-4.059,0.063c-0.465,0.026-0.932,0.017-1.397,0.003
				c-4.492-0.034-8.982,0.032-13.474-0.016c-0.49,0.053-0.985,0.031-1.476,0.005c-4.202,0.047-8.408,0.028-12.611,0.01
				c-0.241,0.017-0.482,0.013-0.722,0.003c-2.656,0.028-5.312,0-7.967,0.024C-0.023,30.577,0.156,19.036,0.009,7.508
				C0.123,5.034-0.113,2.55,0.077,0.076z M2.057,2.16c0.032,9.585-0.003,19.17,0.043,28.755c-0.025,0.982-0.016,1.965-0.003,2.947
				c-0.015,0.993-0.008,1.987,0.006,2.98c0.042,1.055-0.106,2.151,0.103,3.175c12.54,0.035,25.086-0.017,37.632-0.005
				c0.03-11.71-0.026-23.42-0.005-35.13c-0.032-0.933,0.05-1.872-0.077-2.799C27.194,2.204,14.624,2.12,2.057,2.16z"/>
		</g>
		<path d="M11.032,12.687c0.781-0.015,1.565-0.031,2.347,0.004c0.013,5.59,0.045,11.185,0.008,16.771
			c-0.734,0.011-1.467-0.017-2.2,0.003c-0.051-0.062-0.103-0.124-0.154-0.184C11.071,23.751,11.035,18.218,11.032,12.687z"/>
		<path d="M14.327,12.681c0.814,0.004,1.632-0.035,2.443,0.012c1.478,4.246,2.804,8.553,4.258,12.81
			c1.523-4.211,2.744-8.555,4.245-12.77c0.755-0.168,1.618-0.016,2.415-0.067c-1.751,5.589-3.653,11.127-5.379,16.725
			c-0.801,0.105-1.607,0.011-2.403,0.08C17.973,23.905,16.221,18.266,14.327,12.681z"/>
		<path d="M28.7,12.679c0.779-0.019,1.56-0.037,2.339-0.004c0.023,5.573,0.018,11.147,0.022,16.72
			c-0.785,0.013-1.57-0.001-2.354,0.014C28.715,23.832,28.693,18.256,28.7,12.679z"/>
	</g>
</g>
<g id="Layer_1">
</g>
</svg>
