<?xml version="1.0" encoding="iso-8859-1"?>
<!-- Generator: Adobe Illustrator 19.2.0, SVG Export Plug-In . SVG Version: 6.00 Build 0)  -->
<svg version="1.1" xmlns="http://www.w3.org/2000/svg" xmlns:xlink="http://www.w3.org/1999/xlink" x="0px" y="0px"
	 viewBox="0 0 76.11 76.724" style="enable-background:new 0 0 76.11 76.724;" xml:space="preserve">
<g id="Victor_x5F_Kemp_x5F_Company">
	<path style="fill-rule:evenodd;clip-rule:evenodd;" d="M32.566,0.119c0.323,1.098,0.166,2.244,0.196,3.387
		c0.2,7.415-0.135,16.113,0.147,23.956c0.446-0.298,0.578-0.932,0.737-1.423c1.279-3.963,2.379-8.117,3.583-12.126
		c1.047-3.484,1.902-7.008,3.043-10.456c0.371-1.119,0.671-2.272,1.129-3.338c9.567-0.086,19.803-0.179,29.406,0
		c-0.094,0.832-0.593,1.651-0.982,2.454c-0.38,0.787-0.78,1.545-1.178,2.308c-0.806,1.544-1.437,3.175-2.258,4.713
		c-1.63,3.056-3.092,6.234-4.565,9.376c-2.581,5.506-5.318,10.977-8.051,16.397c-0.381,0.756-0.623,1.623-1.227,2.258
		c-12.771,0.092-26.385,0.049-39.42,0.049c-2.202,0-4.415,0.084-6.578,0.049c-2.155-0.035-4.282,0.042-6.382-0.196
		c-0.26-11.925-0.148-24.843-0.098-37.31C1.379-0.001,2.742,0.08,4.142,0.119C5.55,0.159,7.029,0.139,8.511,0.07
		c2.935-0.136,6.139-0.028,8.983-0.049C22.573-0.016,27.712,0.089,32.566,0.119z"/>
	<path style="fill-rule:evenodd;clip-rule:evenodd;" d="M56.179,35.416c0.033,0,0.065,0,0.098,0
		c0.636,0.688,1.027,1.576,1.424,2.406c4.501,9.427,9.035,18.85,13.598,28.276c0.818,1.689,1.752,3.382,2.503,5.105
		c0.384,0.881,0.751,1.796,1.178,2.651c0.43,0.858,0.96,1.685,1.129,2.651c-0.625,0.263-1.357,0.147-2.013,0.147
		c-2.11,0-4.151,0.049-6.234,0.049c-8.071-0.001-16.888,0.109-25.037-0.147c-0.484-0.519-0.558-1.258-0.736-1.915
		c-1.282-4.731-2.738-9.54-4.173-14.335c-1.223-4.089-2.44-8.179-3.583-12.273c-0.371-1.33-0.708-2.699-1.325-3.927
		c-0.271,1.228-0.165,2.629-0.099,4.025c0.066,1.374-0.048,2.797-0.048,4.173c-0.001,2.754-0.042,5.499,0,8.199
		c0.041,2.708-0.107,5.433,0,8.1c0.053,1.346-0.054,2.684,0,4.025c0.051,1.307,0.108,2.652-0.148,3.928
		c-7.747,0.238-16.148,0.148-24.447,0.147c-2.089,0-4.146-0.049-6.186-0.049c-0.635,0-1.312,0.11-1.914-0.147
		c-0.119-11.461-0.193-24.321,0-36.229c17.12-0.308,35.959-0.029,53.117-0.196c1.305-1.133,1.663-3.213,2.749-4.565
		C56.067,35.468,56.121,35.44,56.179,35.416z"/>
</g>
<g id="Layer_1">
</g>
</svg>
