<?xml version="1.0" encoding="iso-8859-1"?>
<!-- Generator: Adobe Illustrator 19.2.0, SVG Export Plug-In . SVG Version: 6.00 Build 0)  -->
<svg version="1.1" xmlns="http://www.w3.org/2000/svg" xmlns:xlink="http://www.w3.org/1999/xlink" x="0px" y="0px"
	 viewBox="0 0 79.507 80.39" style="enable-background:new 0 0 79.507 80.39;" xml:space="preserve">
<g id="Viktoria_x5F_Verlag">
	<path style="fill-rule:evenodd;clip-rule:evenodd;" d="M10.726,0.014c5.771-0.05,11.649,0.05,17.47,0.05
		c5.848,0.001,11.673-0.089,17.269,0.151c-0.111,0.725-0.532,1.39-0.903,2.008c-0.371,0.616-0.74,1.244-1.104,1.857
		c-2.203,3.703-4.375,7.513-6.576,11.295c-1.84,3.161-3.644,6.27-5.472,9.488c-0.702,1.235-1.52,2.386-2.259,3.665
		c-0.343,0.593-0.576,1.385-1.255,1.707c-0.961-1.099-1.494-2.487-2.259-3.716c-2.265-3.633-4.356-7.413-6.577-11.194
		c-1.763-3.003-3.63-6.265-5.472-9.388c-0.366-0.62-0.639-1.308-1.004-1.958c-0.329-0.584-0.67-1.181-1.104-1.857
		c-0.352-0.549-1.019-1.59-0.904-2.008C10.612,0.068,10.666,0.038,10.726,0.014z"/>
	<path style="fill-rule:evenodd;clip-rule:evenodd;" d="M79.351,0.215c0.279,6.498,0.101,13.13,0.1,19.728
		c0,19.777,0.047,40.097-0.2,60.292c-3.597,0.272-7.423,0.102-11.195,0.101c-3.778-0.002-7.526,0.166-11.044-0.101
		c0.01-0.469,0.367-0.826,0.603-1.205c1.682-2.705,3.327-5.566,4.92-8.434c1.787-3.22,3.793-6.356,5.622-9.589
		c1.828-3.231,3.762-6.428,5.572-9.689c1.363-2.454,2.592-4.951,4.017-7.43c0.452-0.787,0.981-1.59,1.154-2.51
		c-0.667-0.273-1.494-0.151-2.259-0.151c-2.308,0-4.839,0-7.179,0c-0.82,0.883-1.394,2.025-2.059,3.113
		c-0.649,1.061-1.271,2.178-1.907,3.263c-3.155,5.381-6.318,10.852-9.539,16.265c-0.639,1.075-1.409,2.095-1.958,3.163
		c-0.309,0.602-0.533,1.301-0.954,2.008c-0.238,0.4-0.918,1.637-1.305,1.657c-0.503,0.025-1.062-1.382-1.305-1.808
		c-2.571-4.485-5.282-9.282-7.932-13.604c-2.357-3.844-4.434-7.704-6.827-11.646c-0.34-0.561-0.703-1.237-1.104-1.958
		c-0.342-0.613-1.086-1.433-1.104-1.958c-0.012-0.336,0.381-0.848,0.652-1.305c3.625-6.118,7.216-12.297,10.793-18.475
		c2.867-4.95,5.8-9.844,8.584-14.859c0.925-1.667,1.728-3.4,2.862-4.92C63.727,0.115,72.019,0.015,79.351,0.215z"/>
	<path style="fill-rule:evenodd;clip-rule:evenodd;" d="M0.233,1.972C0.84,2.263,1.417,3.617,1.84,4.331
		c1.435,2.427,3.066,4.894,4.367,7.279c6.716,11.42,13.314,22.896,20.031,34.287c2.511,4.26,5.089,8.486,7.58,12.801
		c3.287,5.694,6.726,11.366,9.99,17.17c0.396,0.705,0.815,1.467,1.255,2.158c0.433,0.68,0.985,1.363,1.054,2.209
		c-14.185,0.16-28.807,0.002-43.324,0c-0.902,0-1.837,0.113-2.71-0.151c-0.15-9.465-0.051-19.112-0.05-29.217
		c0.001-15.853,0.071-32.986,0.1-48.745C0.176,2.082,0.163,1.985,0.233,1.972z"/>
</g>
<g id="Layer_1">
</g>
</svg>
