<?xml version="1.0" encoding="iso-8859-1"?>
<!-- Generator: Adobe Illustrator 19.2.0, SVG Export Plug-In . SVG Version: 6.00 Build 0)  -->
<svg version="1.1" xmlns="http://www.w3.org/2000/svg" xmlns:xlink="http://www.w3.org/1999/xlink" x="0px" y="0px"
	 viewBox="0 0 69.587 64.211" style="enable-background:new 0 0 69.587 64.211;" xml:space="preserve">
<g id="Vinsavod_x5F_63">
	<path style="fill-rule:evenodd;clip-rule:evenodd;" d="M50.836,64.056c-0.516,0.234-1.168,0.133-1.823,0.134
		c-1.235,0-2.534-0.001-3.868,0c-0.729,0-1.502,0.052-1.956-0.089c-0.506-0.859-0.606-1.808-0.934-2.623
		c-1.003-2.504-2.504-4.46-5.246-5.335c-4.103-1.309-7.962,0.938-9.558,3.734c-0.696,1.221-0.867,2.793-1.467,4.179
		c-1.729,0.16-3.843,0.089-5.779,0.089c-0.624,0-1.265,0.102-1.778-0.134c-0.127-0.904,0.278-1.777,0.489-2.622
		c0.437-1.748,0.884-3.461,1.333-5.246c0.22-0.871,0.504-1.784,0.489-2.712c-0.506-0.451-1.199-0.449-1.778-0.622
		c-4.1-1.227-7.667-3.472-10.625-5.957c-1.731-1.454-3.319-3.124-4.49-5.023c-0.607-0.985-0.99-2.115-1.512-3.245
		c-1.909-4.134-2.897-10.392-2-16.36c0.208-1.379,0.43-2.775,0.8-3.911c0.776-2.38,1.623-4.758,2.756-6.758
		c1.154-2.037,2.458-3.852,3.956-5.512c1.229-1.387,2.478-2.864,4.002-4.135c0.473-0.396,1.033-0.974,1.556-1.111
		c0.547-0.144,1.296-0.045,1.956-0.045c1.912,0,4.023-0.059,5.779,0.045c0.002,0.42-0.445,0.627-0.711,0.845
		c-3.029,2.477-5.948,5.224-8.224,8.624c-0.344,0.514-0.841,1.094-1.245,1.822c-0.345,0.622-0.867,1.567-0.756,2.223
		c0.085,0.499,0.493,0.894,0.978,0.89c0.745-0.007,1.419-1.118,1.823-1.778c0.501-0.82,0.932-1.545,1.378-2.179
		c1.034-1.467,2.169-2.639,3.29-3.867c1.612-1.767,3.555-3.653,5.557-5.201c0.552-0.427,1.5-1.263,2.134-1.423
		c0.722-0.182,1.689-0.044,2.534-0.044c2.538,0,5.052-0.074,7.513,0.089c-0.228,0.601-0.903,0.816-1.378,1.156
		c-1.426,1.02-2.802,2.224-4.179,3.334c-3.467,2.889-6.46,5.798-9.202,9.646c-2.55,3.577-4.883,8.152-4.179,14.359
		c0.295,2.603,1.284,5.03,2.49,6.935c1.25,1.975,2.606,3.584,4.356,5.023c3.291,2.706,8.48,4.681,14.67,3.69
		c2.392-0.383,4.933-1.579,6.668-2.756c1.899-1.287,3.55-2.758,4.845-4.579c2.473-3.474,4.36-9.16,2.934-14.892
		c-1.214-4.883-3.994-8.521-7.824-10.98c-2.682-1.722-6.456-3.316-11.114-2.934c-0.722,0.06-1.428,0.098-2.134,0.222
		c-0.619,0.109-1.262,0.369-1.912,0.223c0.082-0.764,0.924-1.148,1.423-1.644c1.609-1.503,3.354-2.87,5.201-4.135
		c2.575-1.684,5.311-3.191,9.247-3.423c6.192-0.363,10.703,1.758,14.092,4.445c1.147,0.909,2.288,1.981,3.157,3.023
		c3.85,4.618,6.592,10.154,6.98,17.693c0.203,3.952-0.495,7.608-1.601,10.669c-1.108,3.067-2.614,5.68-4.445,7.869
		c-1.947,2.325-4.056,4.294-6.624,5.734c-2.317,1.299-4.667,2.467-7.38,3.423c-0.328,0.116-0.766,0.188-0.978,0.533
		c0.028,0.908,0.315,1.792,0.533,2.667c0.429,1.727,0.84,3.491,1.289,5.291C50.564,62.26,50.792,63.154,50.836,64.056z
		 M43.812,6.842c2.571,2.45,6.796-0.698,4.934-3.823c-0.498-0.837-1.762-1.659-3.201-1.467C43.028,1.887,41.999,5.115,43.812,6.842z
		"/>
	<path style="fill-rule:evenodd;clip-rule:evenodd;" d="M36.254,10.22c-0.008,1.328,0.259,3.311-0.178,4.357
		c-0.671,0.194-2.197,0.371-2.712-0.089c-0.041-1.402-0.317-3.201,0.089-4.401C34.184,9.875,35.725,9.738,36.254,10.22z"/>
	<path style="fill-rule:evenodd;clip-rule:evenodd;" d="M34.076,15.822c2.326-0.341,4.268,0.936,4.979,2.312
		c0.748,1.449,0.798,3.443,0.044,5.024c-1.307,2.739-5.445,3.017-7.558,1.155c-0.792-0.698-1.492-1.919-1.6-3.156
		c-0.149-1.69,0.619-3.232,1.467-4.046C32.036,16.509,33.009,16.006,34.076,15.822z"/>
	<path style="fill-rule:evenodd;clip-rule:evenodd;" d="M24.918,15.911c2.461,0.651,4.095,2.24,4.134,4.891
		c0.009,0.575-0.2,1.527-0.489,2.134c-0.732,1.535-2.451,2.931-4.801,2.756c-2.493-0.186-4.523-2.126-4.535-4.712
		C19.214,17.978,21.41,15.568,24.918,15.911z"/>
	<path style="fill-rule:evenodd;clip-rule:evenodd;" d="M44.79,16.088c0.833-0.078,1.964,0.067,2.667,0.4
		c1.767,0.838,3.357,3.154,2.579,5.868c-0.51,1.778-2.186,3.269-4.312,3.468c-2.799,0.261-5.169-1.819-5.291-4.579
		c-0.099-2.267,1.143-3.998,2.756-4.757C43.606,16.294,44.207,16.144,44.79,16.088z"/>
	<path style="fill-rule:evenodd;clip-rule:evenodd;" d="M28.697,25.203c1.833-0.212,3.135,0.486,4.045,1.422
		c0.786,0.809,1.562,2.249,1.333,4.09c-0.284,2.288-2.438,4.062-4.579,4.135c-2.962,0.102-5.944-2.543-4.934-6.18
		c0.182-0.657,0.588-1.346,0.977-1.822C26.214,26.024,27.401,25.352,28.697,25.203z"/>
	<path style="fill-rule:evenodd;clip-rule:evenodd;" d="M39.322,25.247c1.614-0.193,3.152,0.557,4.001,1.467
		c0.766,0.82,1.462,2.15,1.245,4.001c-0.231,1.97-1.985,3.692-3.823,4.046c-0.501,0.097-1.271,0.113-1.867,0
		c-1.899-0.36-3.786-2.192-3.868-4.579c-0.052-1.533,0.622-2.851,1.378-3.601C37.048,25.925,37.986,25.407,39.322,25.247z"/>
	<path style="fill-rule:evenodd;clip-rule:evenodd;" d="M34.609,34.494c2.387-0.019,4.269,1.601,4.712,3.646
		c0.696,3.202-1.389,5.455-3.645,5.957c-2.616,0.58-5.632-1.262-5.913-4.135c-0.248-2.543,1.054-4.306,2.712-5.068
		C33.067,34.622,33.551,34.502,34.609,34.494z"/>
</g>
<g id="Layer_1">
</g>
</svg>
