<?xml version="1.0" encoding="iso-8859-1"?>
<!-- Generator: Adobe Illustrator 19.2.0, SVG Export Plug-In . SVG Version: 6.00 Build 0)  -->
<svg version="1.1" xmlns="http://www.w3.org/2000/svg" xmlns:xlink="http://www.w3.org/1999/xlink" x="0px" y="0px"
	 viewBox="0 0 78.609 79.435" style="enable-background:new 0 0 78.609 79.435;" xml:space="preserve">
<g id="Vitamine">
	<path style="fill-rule:evenodd;clip-rule:evenodd;" d="M78.424,0.254c0.022,0.045,0.045,0.091,0.102,0.102
		c0.189,19.571-0.006,39.443,0,59.366c0.002,6.608,0.101,13.348-0.152,19.619c-13.057,0.212-26.012,0.001-39.035,0
		c-12.909-0.002-26.164-0.15-39.187-0.306c-0.022-0.045-0.045-0.09-0.102-0.102C-0.087,53.367,0.103,27.721,0.1,2.287
		C0.1,1.54-0.061,0.691,0.303,0C26.615,0.022,52.344,0.145,78.424,0.254z M32.071,4.879C19.666,4.289,9.831,7.479,6.352,16.061
		c-0.785,1.938-1.399,3.926-1.475,6.303c-0.078,2.506,0.58,4.466,1.576,6.252c1.731,3.106,4.768,5.913,8.894,6.709
		c7.691,1.483,13.105-2.396,16.163-6.557c1.11-1.51,2.188-3.06,3.101-4.727c1.882-3.441,3.272-7.126,5.438-10.166
		c2.179-3.058,4.533-5.657,7.675-7.929c0.3-0.296,1.037-0.414,0.966-0.915C43.335,4.663,37.485,5.137,32.071,4.879z M42.845,48.794
		c2.067-2.887,4.593-5.3,7.573-7.269c1.706-1.127,3.779-1.785,5.947-2.541c2.101-0.734,4.23-1.474,6.303-2.186
		c4.171-1.434,7.152-4.138,9.25-7.726c0.509-0.871,0.815-1.899,1.169-3.05c0.825-2.687,0.925-6.743,0.102-9.403
		c-0.175-0.565-0.273-1.193-0.457-1.677c-0.4-1.056-1.306-2.176-2.084-3.05c-2.368-2.661-5.882-5.097-10.775-4.778
		c-4.709,0.307-8.37,1.871-11.08,4.219c-4.077,3.533-6.389,9.135-6.964,15.96c-0.192,2.296-0.101,4.78-0.102,7.37
		c0,4.927-0.084,10.159,0.102,15.196C42.335,49.7,42.574,49.172,42.845,48.794z M36.696,29.327c-1.293,1.808-2.71,3.546-4.32,5.031
		c-1.635,1.508-3.188,3.008-5.337,4.016c-4.235,1.985-9.335,2.994-13.521,5.185c-3.907,2.045-6.935,5.885-8.081,10.623
		c-0.647,2.672-0.589,5.932,0.152,8.386c0.688,2.275,2.063,4.229,3.609,5.744c1.629,1.596,3.553,2.777,5.946,3.405
		c2.613,0.686,5.476,0.467,8.132-0.305c3.886-1.131,6.415-2.724,8.59-5.439c3.487-4.353,5.187-10.439,5.185-18.094
		c-0.002-6.042,0.085-12.579-0.102-18.653c-0.034,0-0.067,0-0.102,0C36.789,29.25,36.733,29.279,36.696,29.327z M43.048,74.562
		c4.353-0.001,8.847,0.243,12.91-0.305c3.729-0.502,7.355-1.717,10.063-3.354c2.614-1.581,5.136-4.174,6.253-7.167
		c0.208-0.56,0.299-1.205,0.508-1.829c0.863-2.572,1.213-6.172,0.406-8.895c-0.556-1.876-1.293-3.383-2.439-4.677
		c-2.222-2.506-5.805-4.803-10.623-4.727c-4.987,0.079-8.055,2.127-10.826,4.523c-5.489,4.643-7.244,13.019-11.69,18.704
		c-1.806,2.63-4.305,4.603-6.709,6.557c-0.335,0.272-0.816,0.509-0.965,0.966C34.24,74.599,38.668,74.563,43.048,74.562z"/>
</g>
<g id="Layer_1">
</g>
</svg>
