<?xml version="1.0" encoding="iso-8859-1"?>
<!-- Generator: Adobe Illustrator 19.2.0, SVG Export Plug-In . SVG Version: 6.00 Build 0)  -->
<svg version="1.1" xmlns="http://www.w3.org/2000/svg" xmlns:xlink="http://www.w3.org/1999/xlink" x="0px" y="0px"
	 viewBox="0 0 125.697 178.951" style="enable-background:new 0 0 125.697 178.951;" xml:space="preserve">
<g id="Vita_x5F_Formac">
	<path style="fill-rule:evenodd;clip-rule:evenodd;" d="M122.617,42.532c-0.383,0.781-1.158,1.169-1.695,1.795
		c-1.768,1.691-3.626,3.291-5.387,4.988C101.88,61.877,88.272,74.502,74.484,87.124c-1.043,0.955-1.985,2.017-3.043,2.993
		c-2.042,1.885-5.231,3.427-8.828,3.292c-3.735-0.14-6.426-1.643-8.579-3.591c-2.164-1.958-4.265-3.926-6.285-5.836
		c-2.095-1.98-4.241-3.87-6.334-5.786c-1.059-0.969-2.031-2.029-3.093-2.993c-3.146-2.857-6.259-5.844-9.427-8.729
		c-2.115-1.926-4.202-3.9-6.285-5.836c-4.197-3.899-8.476-7.674-12.619-11.622c-1.862-1.589-3.627-3.263-5.438-4.938
		c-0.588-0.544-1.298-1.02-1.695-1.746c2.419-1.845,4.898-3.641,7.432-5.337c2.527-1.692,4.962-3.522,7.481-5.237
		c3.746-2.55,7.433-5.35,11.223-7.931c1.257-0.856,2.577-1.655,3.741-2.594c2.34-1.888,4.994-3.47,7.482-5.288
		c6.767-4.943,13.504-9.618,20.4-14.614c0.607-0.44,1.336-1.125,1.846-1.297c0.541-0.183,1.05,0.395,1.695,0.848
		c2.868,2.013,5.596,3.957,8.43,5.985c0.469,0.335,0.862,0.742,1.297,1.097c0.872,0.713,1.939,1.276,2.893,1.945
		c0.942,0.66,1.878,1.329,2.794,1.995c1.873,1.365,3.709,2.795,5.486,4.09c1.872,1.364,3.822,2.618,5.686,3.94
		c5.608,3.98,11.447,7.798,16.959,11.871c1.905,1.292,3.786,2.588,5.686,3.94c1.825,1.299,3.643,2.777,5.537,4.09
		C120.18,40.707,121.486,41.503,122.617,42.532z"/>
	<path style="fill-rule:evenodd;clip-rule:evenodd;" d="M62.961,165.783c0.534-0.473,0.777-1.196,1.098-1.796
		c2.293-4.297,4.606-8.788,6.833-13.218c7.629-15.176,15.614-30.267,23.344-45.39c5.154-10.084,10.296-20.232,15.562-30.276
		c3.949-7.532,7.628-15.214,11.622-22.745c1.152-2.174,2.328-4.332,3.441-6.584c0.115-0.234,0.212-0.711,0.599-0.698
		c0.174,25.168,0.201,50.943,0.199,76.913c0,3.807,0.132,7.691-0.1,11.272c-10.37,7.732-20.858,15.208-31.424,22.895
		c-5.154,3.749-10.549,7.604-15.712,11.422c-4.458,3.298-9.062,6.713-13.717,10.026c-0.556,0.396-1.611,1.327-2.045,1.347
		c-0.505,0.022-1.349-0.812-1.945-1.247c-18.938-13.773-37.785-28.088-56.712-41.849c-1.258-1.004-2.687-1.836-3.841-2.942
		c0.008-0.058-0.011-0.089-0.05-0.1c0-3.721-0.001-7.457,0-11.173c0-7.053-0.051-14.131-0.051-21.747
		c0.001-18.238-0.101-36.762-0.05-54.867c0.043-0.04,0.03-0.137,0.101-0.149c0.033,0,0.066,0,0.099,0
		c2.81,4.925,5.273,10.05,7.932,15.064c2.658,5.012,5.28,10.039,7.831,15.113c2.545,5.062,5.268,10.053,7.831,15.113
		c2.566,5.067,5.184,10.1,7.831,15.113c0.678,1.284,1.179,2.645,1.845,3.94c3.199,6.22,6.525,12.611,9.826,18.854
		c5.292,10.007,10.343,20.206,15.612,30.276c0.99,1.892,1.958,3.727,2.943,5.686C62.166,164.635,62.461,165.303,62.961,165.783z"/>
</g>
<g id="Layer_1">
</g>
</svg>
