<?xml version="1.0" encoding="iso-8859-1"?>
<!-- Generator: Adobe Illustrator 19.2.0, SVG Export Plug-In . SVG Version: 6.00 Build 0)  -->
<svg version="1.1" xmlns="http://www.w3.org/2000/svg" xmlns:xlink="http://www.w3.org/1999/xlink" x="0px" y="0px"
	 viewBox="0 0 74.584 74.426" style="enable-background:new 0 0 74.584 74.426;" xml:space="preserve">
<g id="vollstadt">
	<path style="fill-rule:evenodd;clip-rule:evenodd;" d="M36.182,0.026c2.825-0.134,6.055,0.269,8.537,0.797
		c5.202,1.107,9.438,3.014,13.135,5.488c0.946,0.634,1.897,1.203,2.72,1.923c0.801,0.7,1.506,1.552,2.299,2.346
		c0.809,0.808,1.674,1.487,2.393,2.298c4.931,5.561,8.832,13.227,9.288,23.267c0.139,3.053-0.195,6.026-0.704,8.631
		c-1.498,7.688-5.229,13.496-9.663,18.248c-0.725,0.777-1.588,1.551-2.439,2.251c-0.851,0.701-1.657,1.46-2.533,2.111
		c-1.757,1.305-3.753,2.465-5.817,3.472c-4.128,2.014-9.38,3.506-15.011,3.565c-9.284,0.097-16.079-2.463-21.672-6.192
		c-3.63-2.421-6.889-5.554-9.522-9.101c-1.32-1.778-2.561-3.757-3.471-5.816c-1.932-4.368-3.542-9.018-3.706-14.917
		C-0.151,32.407,1.121,27,2.97,22.73c1.92-4.434,4.246-8.046,7.412-11.211c1.562-1.562,3.127-3.079,4.925-4.409
		c1.757-1.299,3.702-2.485,5.817-3.472c2.079-0.97,4.231-1.948,6.755-2.533C30.432,0.513,33.142,0.171,36.182,0.026z M44.484,12.457
		c1.499-1.878,2.797-3.622,4.269-5.535c0.349-0.453,1.398-1.466,1.267-2.017c-0.086-0.357-1.389-0.787-1.97-0.985
		c-2.354-0.8-4.673-1.456-7.225-1.689c-0.758-0.069-1.092,1.754-1.313,2.486c-0.578,1.908-1.164,3.534-1.735,5.301
		c-0.139,0.429-0.334,0.877-0.469,1.313c-0.13,0.418-0.089,1.044-0.563,1.22c-0.389-0.236-0.461-0.733-0.609-1.126
		c-0.972-2.576-1.977-5.33-2.861-7.834c-0.145-0.406-0.158-0.972-0.61-1.172c-2.736,0.188-5.152,0.908-7.411,1.829
		c-0.35,0.143-1.934,0.667-1.971,1.173c-0.021,0.285,0.488,0.802,0.751,1.126c0.9,1.114,1.683,2.167,2.439,3.189
		c1.102,1.488,2.394,2.739,3.425,4.082c1.937,2.524,3.894,4.898,5.863,7.271c0.264,0.317,0.687,0.673,0.657,1.126
		c-0.549,0.149-0.929-0.335-1.36-0.563c-3.17-1.676-6.126-3.187-9.288-4.878c-1.668-0.892-3.389-1.922-5.16-2.908
		c-1.201-0.669-2.682-1.393-3.987-2.064c-0.451-0.232-1.064-0.643-1.454-0.609c-0.311,0.026-0.754,0.457-1.032,0.751
		c-0.933,0.986-1.772,1.969-2.485,2.955c-0.515,0.71-1.098,1.371-1.502,2.111c-0.215,0.395-0.386,0.824-0.609,1.22
		c-0.22,0.391-0.566,0.76-0.562,1.267c0.427,0.423,1.089,0.41,1.642,0.516c3.604,0.69,7.391,1.483,10.977,2.251
		c0.559,0.12,1.231,0.141,1.642,0.563c-1.134,0.685-2.559,0.866-3.893,1.313c-2.657,0.891-5.355,1.721-7.975,2.486
		c-1.336,0.39-2.7,0.739-3.893,1.36c-0.476,1.568-0.319,3.41-0.048,5.113c0.308,1.928,0.868,3.356,1.549,4.878
		c0.25,0.561,0.79,1.917,1.267,1.97c0.377,0.042,1.279-0.721,1.688-0.985c0.538-0.348,1.168-0.731,1.642-1.032
		c5.573-3.539,10.773-7.284,16.23-10.695c1.651-1.032,3.221-2.236,4.832-3.237c0.542-0.337,1.102-0.823,1.782-0.844
		c-0.551,1.181-1.474,2.125-2.252,3.143c-3.152,4.125-6.241,8.301-9.429,12.337c-2.007,2.542-3.835,5.277-5.769,7.834
		c-0.391,0.517-0.923,0.978-1.079,1.642c0.721,0.806,1.824,1.188,2.861,1.642c3.077,1.347,6.709,2.478,10.695,2.721
		c0.451-0.529,0.574-1.271,0.798-1.923c0.715-2.085,1.39-4.119,2.063-6.239c0.428-1.344,0.949-2.602,1.407-4.128
		c0.199-0.662,0.376-1.357,0.657-2.111c0.15-0.403,0.452-1.923,0.844-1.923c0.39,0,0.664,1.341,0.892,1.923
		c1.601,4.108,3.151,8.093,4.644,12.243c0.235,0.654,0.556,1.772,0.939,1.923c0.367,0.145,1.307-0.156,1.83-0.281
		c3.917-0.94,7.058-1.81,9.991-3.518c0.4-0.233,1.226-0.539,1.267-0.985c0.045-0.489-0.84-1.336-1.079-1.642
		c-1.288-1.647-2.424-2.99-3.706-4.503c-1.574-2.068-3.224-4.062-4.925-6.004c-2.394-3.043-4.889-6.103-7.272-9.1
		c-0.608-0.766-1.22-1.542-1.829-2.252c-0.188-0.218-0.515-0.497-0.469-0.844c0.598,0.006,1.114,0.403,1.595,0.704
		c3.467,2.168,6.911,4.352,10.366,6.474c3.475,2.133,6.928,4.382,10.414,6.379c0.503,0.289,0.916,0.723,1.407,1.032
		c0.437,0.274,0.945,0.482,1.501,0.844c0.394,0.257,1.095,0.837,1.502,0.75c0.354-0.076,0.645-0.713,0.844-1.079
		c1.174-2.155,2.151-4.47,2.299-7.553c0.055-1.141,0.111-3.035-0.329-3.612c-0.289-0.379-1.215-0.465-1.923-0.657
		c-0.718-0.194-1.468-0.424-2.065-0.563c-3.671-0.854-6.843-1.939-10.413-2.674c-0.688-0.142-1.584-0.179-1.924-0.704
		c0.501-0.308,1.107-0.414,1.689-0.562c3.568-0.914,7.315-1.827,10.883-2.674c0.58-0.138,1.239-0.191,1.688-0.61
		c-0.16-0.944-0.776-1.601-1.22-2.298c-0.457-0.719-0.983-1.38-1.454-2.111c-0.579-0.581-1.03-1.238-1.642-1.923
		c-0.424-0.475-1.269-1.556-1.971-1.595c-0.366-0.02-0.959,0.389-1.407,0.61c-0.563,0.278-0.959,0.475-1.36,0.704
		c-5.792,3.3-11.449,6.517-17.215,9.616c-0.412,0.221-0.844,0.704-1.36,0.516c0.283-0.952,0.999-1.471,1.454-2.252
		C40.758,17.528,42.512,14.927,44.484,12.457z"/>
</g>
<g id="Layer_1">
</g>
</svg>
