<?xml version="1.0" encoding="iso-8859-1"?>
<!-- Generator: Adobe Illustrator 19.2.0, SVG Export Plug-In . SVG Version: 6.00 Build 0)  -->
<svg version="1.1" xmlns="http://www.w3.org/2000/svg" xmlns:xlink="http://www.w3.org/1999/xlink" x="0px" y="0px"
	 viewBox="0 0 80.503 80.69" style="enable-background:new 0 0 80.503 80.69;" xml:space="preserve">
<g id="Von_x5F_Siebenthal">
	<path style="fill-rule:evenodd;clip-rule:evenodd;" d="M56.874,3.774c-0.254,0.804-0.959,1.332-1.475,1.933
		c-1.548,1.804-3.183,3.617-4.831,5.39c-1.963,2.563-4.17,4.881-6.306,7.272c-2.159,2.366-4.253,4.799-6.458,7.12
		c-1.774,2.47-4.905,4.333-5.696,7.882c-0.774,3.476,0.806,6.171,2.797,7.628c1.377,0.938,3.496,1.166,5.543,1.374
		c2.124,0.215,3.755,0.792,4.323,2.593c0.592,1.878-0.553,3.713-1.678,4.424c-1.843,1.164-4.599,1.019-6.407,0.305
		c-3.804-1.502-5.848-4.529-5.848-9.764c0-12.722,0.021-26.141,0.152-38.801C39.257-1.247,50.821,0.361,56.874,3.774z"/>
	<path style="fill-rule:evenodd;clip-rule:evenodd;" d="M26.413,2.451c0.043-0.009,0.048,0.02,0.051,0.051
		c0.429,0.254,0.254,0.861,0.254,1.221c0,9.549-0.001,19.001,0,28.884c0,2.45,0.224,4.935-0.102,7.323
		c-0.632-0.165-0.949-0.797-1.373-1.22c-2.972-2.973-6.046-6.031-9-9.103c-2.596-2.61-5.117-5.111-7.73-7.831
		c-0.345-0.359-0.675-0.909-1.169-1.424c-0.445-0.463-1.156-0.904-1.17-1.373c-0.015-0.492,0.71-1.274,1.017-1.729
		c0.961-1.423,1.725-2.526,2.848-3.814c2.95-3.38,6.622-6.341,10.832-8.594c0.79-0.422,1.71-0.909,2.593-1.271
		C24.49,3.148,25.476,2.722,26.413,2.451z"/>
	<path style="fill-rule:evenodd;clip-rule:evenodd;" d="M60.891,5.859c4.021,2.075,7.554,5.458,10.272,8.746
		c1.411,1.707,2.914,3.538,3.966,5.543c1.089,2.074,2.283,4.158,2.899,6.56c-1.068,0.274-2.193,0.153-3.306,0.153
		c-7.816,0-15.993,0.017-23.901-0.051c-2.837-0.024-5.637,0.203-8.289-0.101c0.121-0.558,0.616-0.969,0.966-1.373
		c1.108-1.279,2.308-2.557,3.458-3.865c1.53-1.74,3.017-3.516,4.526-5.238c2.141-2.451,4.584-5.169,6.916-7.73
		C59.173,7.653,60.061,6.403,60.891,5.859z"/>
	<path style="fill-rule:evenodd;clip-rule:evenodd;" d="M3.834,23.301c0.511,0.102,1.258,1.055,1.78,1.576
		c0.61,0.61,1.142,1.132,1.627,1.627c0.56,0.571,0.996,1.238,1.526,1.78c1.604,1.639,3.297,3.246,4.933,4.882
		c5.16,5.16,10.286,10.437,15.409,15.663c0.246,0.251,0.668,0.496,0.61,0.915c-9.202,0.16-19.49,0.194-28.528-0.051
		c-0.508-0.808-0.587-1.997-0.763-3.152c-1.085-7.128,0.001-14.929,2.085-20.392C2.91,25.105,3.317,23.965,3.834,23.301z"/>
	<path style="fill-rule:evenodd;clip-rule:evenodd;" d="M49.856,79.442c-0.881,0.523-2.006,0.581-3.102,0.763
		c-6.923,1.149-14.895,0.14-20.341-1.83c-0.954-0.346-1.917-0.642-2.644-1.221c0.812-1.477,2.153-2.424,3.102-3.763
		c1.101-1.17,2.17-2.373,3.204-3.611c5.071-5.612,9.621-10.531,14.697-16.12c1.596-1.757,3.413-3.659,3.966-6.255
		c0.433-2.028-0.047-4.188-0.813-5.594c-0.894-1.638-2.653-2.825-4.831-3.153c-2.917-0.44-5.856-0.212-6.865-2.645
		c-0.391-0.944-0.294-1.992,0.051-2.746c0.74-1.617,2.402-2.577,4.628-2.695c2.325-0.124,4.312,0.752,5.594,1.78
		c1.356,1.088,2.383,2.499,2.949,4.373c0.578,1.914,0.522,4.413,0.509,6.865C49.892,55.664,50.032,67.435,49.856,79.442z"/>
	<path style="fill-rule:evenodd;clip-rule:evenodd;" d="M79.299,31.082c0.688,1.93,0.965,4.276,1.119,6.712
		c0.49,7.744-1.208,14.732-3.763,19.629c-0.7-0.362-1.236-0.982-1.78-1.525c-7.857-7.857-15.648-16.004-23.545-23.901
		c-0.233-0.234-0.691-0.54-0.559-0.966C60.178,30.998,69.515,30.959,79.299,31.082z"/>
	<path style="fill-rule:evenodd;clip-rule:evenodd;" d="M54.025,40.845c0.357,0.085,1.015,0.812,1.424,1.221
		c2.981,2.981,5.979,6.129,8.95,9.001c2.712,2.894,5.921,6.074,8.899,9.052c0.33,0.33,1.102,1.018,1.119,1.424
		c0.019,0.468-0.596,1.079-0.864,1.475c-0.971,1.43-1.945,2.712-3,3.967c-3.876,4.239-8.4,7.81-14.086,10.323
		c-0.774,0.342-1.581,0.843-2.492,0.865c-0.082-10.506-0.24-21.747-0.102-32.648c0.02-1.542-0.055-3.222,0.051-4.526
		C53.921,40.911,53.962,40.866,54.025,40.845z"/>
	<path style="fill-rule:evenodd;clip-rule:evenodd;" d="M38.668,54.118c0.159,0.336-0.234,0.565-0.407,0.763
		c-3.658,4.193-7.546,8.295-11.239,12.561c-1.92,2.219-3.856,4.223-5.95,6.509c-0.378,0.414-0.853,1.197-1.271,1.221
		c-0.336,0.019-1.139-0.581-1.577-0.864c-4.394-2.846-8.013-6.393-10.984-10.679c-1.312-1.893-2.475-3.92-3.509-6.103
		c-0.511-1.079-1.082-2.186-1.271-3.407c1.012-0.138,2.154-0.142,3.204-0.153C16.419,53.861,27.93,54.066,38.668,54.118z"/>
</g>
<g id="Layer_1">
</g>
</svg>
