<?xml version="1.0" encoding="iso-8859-1"?>
<!-- Generator: Adobe Illustrator 19.2.0, SVG Export Plug-In . SVG Version: 6.00 Build 0)  -->
<svg version="1.1" xmlns="http://www.w3.org/2000/svg" xmlns:xlink="http://www.w3.org/1999/xlink" x="0px" y="0px"
	 viewBox="0 0 83.431 48.969" style="enable-background:new 0 0 83.431 48.969;" xml:space="preserve">
<g id="w_x5F_euler">
	<path style="fill-rule:evenodd;clip-rule:evenodd;" d="M48.297,41.149c0.629-0.928,1.271-1.79,1.82-2.985
		c0.156-0.337,0.336-0.897,0.607-0.961c0.484-0.113,1.457,0.723,1.873,0.911c1.934,0.873,4.025,1.417,6.83,1.417
		c3.484,0,6.252-1.131,8.295-2.732c3.906-3.059,7.221-8.083,5.92-15.379c-0.506-2.84-2.033-5.199-3.846-7.184
		c-2.621-2.872-6.174-4.865-11.736-4.755c-3.355,0.066-5.98,1.36-8.144,2.884c-0.439,0.309-0.951,0.7-1.518,1.214
		c-0.412,0.374-1.172,1.068-1.215,1.518c-0.035,0.366,0.332,1.19,0.506,1.72c0.549,1.669,1.016,3.591,1.215,5.463
		c0.764,7.221-1.803,13.276-4.908,17.15c-0.637,0.794-1.27,1.683-2.225,2.226c-3.135-2.944-5.324-6.596-6.578-11.231
		c-0.979-3.621-0.961-8.244-0.102-11.939c0.117-0.5,0.326-1.095,0.508-1.72c0.139-0.482,0.578-1.233,0.555-1.619
		c-0.029-0.511-0.902-1.156-1.264-1.518c-2.193-2.193-5.434-4.035-9.562-4.199c-5.256-0.209-9.127,1.817-11.787,4.655
		c-1.822,1.942-3.174,4.28-3.744,7.234c-1.361,7.052,2.172,12.535,6.172,15.278c2.219,1.521,4.828,2.588,8.197,2.833
		c3.389,0.247,6.019-1.047,8.6-2.277c0.9,1.307,1.545,2.62,2.479,3.946c0.605,0.861,1.281,1.824,2.074,2.732
		c0.26,0.296,0.686,0.578,0.658,0.911c-0.045,0.527-1.688,1.232-2.176,1.467c-2.363,1.137-5.144,2.226-8.246,2.53
		c-4.93,0.482-9.029-0.419-12.293-1.821C8.642,44.073,3.668,39.178,1.298,32.093c-1.246-3.723-1.723-8.41-0.861-12.647
		c0.783-3.843,2.5-7.217,4.553-9.814c4.293-5.428,9.896-9.182,19.176-9.612c3.758-0.174,7.516,0.925,10.117,2.074
		c2.059,0.91,3.91,2.041,5.666,3.441c0.438,0.349,1.236,1.304,1.67,1.315c0.283,0.007,0.619-0.41,0.961-0.708
		c1.992-1.738,4.445-3.31,7.133-4.3c3.096-1.141,6.775-2.072,11.232-1.669C68.74,0.874,74.05,4.603,77.943,9.378
		c3.299,4.147,5.766,9.244,5.463,16.391c-0.275,6.558-2.932,11.579-6.424,15.38c-3.291,3.579-8.102,6.808-14.217,7.588
		c-3.188,0.407-6.912,0.303-9.916-0.506c-2.018-0.543-4.02-1.435-5.768-2.428c-0.383-0.218-1.557-0.672-1.619-1.062
		c-0.072-0.455,1.189-1.535,1.418-1.821C47.416,42.249,47.83,41.739,48.297,41.149z"/>
	<path style="fill-rule:evenodd;clip-rule:evenodd;" d="M23.963,18.282c2.248-0.259,4.383,1.111,5.312,2.277
		c2.379,2.985,1.152,7.769-2.074,9.309c-4.027,1.92-8.797-1.245-8.752-5.565c0.008-0.879,0.426-2.312,0.809-2.984
		C19.972,20.059,21.49,18.566,23.963,18.282z"/>
	<path style="fill-rule:evenodd;clip-rule:evenodd;" d="M58.213,18.383c5.516-0.611,8.818,5.66,5.564,9.916
		c-1.58,2.133-5.6,2.993-8.297,1.164c-2.941-1.995-3.365-6.086-1.365-8.753C54.961,19.581,56.379,18.648,58.213,18.383z"/>
</g>
<g id="Layer_1">
</g>
</svg>
