<?xml version="1.0" encoding="iso-8859-1"?>
<!-- Generator: Adobe Illustrator 19.2.0, SVG Export Plug-In . SVG Version: 6.00 Build 0)  -->
<svg version="1.1" xmlns="http://www.w3.org/2000/svg" xmlns:xlink="http://www.w3.org/1999/xlink" x="0px" y="0px"
	 viewBox="0 0 53.501 79.641" style="enable-background:new 0 0 53.501 79.641;" xml:space="preserve">
<g id="W_x5F_Girardet_x5F_Buchverlag">
	<path style="fill-rule:evenodd;clip-rule:evenodd;" d="M10.636,0.062c0.459,0.789,0.706,1.626,1.085,2.418
		c1.111,2.315,2.737,4.243,4.639,5.824c3.125,2.603,7.986,4.297,13.522,3.355c4.809-0.817,8.225-3.717,10.561-6.909
		c0.468-0.689,0.893-1.435,1.283-2.221c0.391-0.788,0.605-1.645,1.085-2.369c3.164-0.166,7.109-0.174,10.068,0.049
		c0.052,0.847-0.205,1.697-0.444,2.467c-1.694,5.445-4.451,9.426-8.242,12.832c-2.066,1.856-4.548,3.418-7.452,4.59
		c-2.862,1.154-6.403,2.028-10.117,1.925c-7.629-0.214-13.201-2.88-17.471-6.613C5.484,12.199,2.433,7.927,1.012,2.48
		C0.815,1.726,0.428,0.904,0.617,0.062C3.842-0.02,7.411-0.021,10.636,0.062z"/>
	<path style="fill-rule:evenodd;clip-rule:evenodd;" d="M51.548,42.997c-0.801,0.228-1.762,0.163-2.714,0.148
		c-1.805-0.027-3.525,0.021-5.577,0c-0.917-0.01-1.941,0.133-2.665-0.049c-0.548-0.138-1.43-1.421-1.826-1.826
		c-2.833-2.891-6.888-5.53-12.782-5.28c-2.238,0.095-4.042,0.638-5.823,1.382c-3.406,1.421-5.886,3.638-7.749,6.711
		c-1.721,2.84-3.001,7.14-2.122,11.795c0.746,3.951,2.696,6.958,5.182,9.278c2.491,2.324,5.748,3.97,10.067,4.343
		c4.632,0.4,8.475-1.18,11.153-3.207c1.365-1.033,2.582-2.273,3.554-3.652c0.972-1.38,1.891-2.955,2.27-4.836
		c-0.517-0.352-1.254-0.197-1.875-0.197c-4.702,0-9.424,0.079-14.016-0.148c-0.144-2.463-0.153-5.135-0.049-7.6
		c0.034-0.808-0.141-1.628,0.099-2.319c8.517-0.142,17.833-0.098,26.206,0.049c1.529,5.932,0.023,13.136-2.221,17.224
		c-3.466,6.579-8.997,11.893-17.076,13.967c-4.241,1.089-9.532,1.214-13.621,0c-4.016-1.193-7.405-2.97-10.216-5.281
		c-2.754-2.273-5.083-5.148-6.909-8.636c-1.757-3.358-3.034-7.719-2.813-12.585c0.116-2.559,0.36-4.74,0.938-6.81
		c1.663-5.956,5.06-10.5,9.376-13.868c3.975-3.011,8.702-5.293,15.2-5.675c3.481-0.205,6.719,0.427,9.426,1.382
		c6.653,2.348,11.579,6.322,14.904,11.993C50.541,40.44,51.143,41.691,51.548,42.997z"/>
</g>
<g id="Layer_1">
</g>
</svg>
