<?xml version="1.0" encoding="iso-8859-1"?>
<!-- Generator: Adobe Illustrator 19.2.0, SVG Export Plug-In . SVG Version: 6.00 Build 0)  -->
<svg version="1.1" xmlns="http://www.w3.org/2000/svg" xmlns:xlink="http://www.w3.org/1999/xlink" x="0px" y="0px"
	 viewBox="0 0 84.83 50.699" style="enable-background:new 0 0 84.83 50.699;" xml:space="preserve">
<g id="Wacoal_x5F_Corporation">
	<path style="fill-rule:evenodd;clip-rule:evenodd;" d="M73.957,0.168c-0.567,0.529-1.244,0.822-1.839,1.261
		c-4.076,3.001-6.002,8.143-8.404,12.921c-2.013,4.003-4.107,8.167-6.041,12.291c-0.648,1.382-1.463,2.689-2.049,4.045
		c-0.166,0.384-0.208,0.831-0.368,1.208c-0.318,0.753-0.757,1.462-1.103,2.206c-1.031,2.216-2.078,4.479-3.309,6.565
		c-0.573-0.4-0.816-1.126-1.103-1.732c-1.799-3.814-3.61-7.545-5.515-11.504c-0.285-0.593-0.888-1.44-0.893-1.943
		c-0.005-0.477,0.739-1.599,1.104-2.363c1.86-3.909,3.754-7.669,5.777-11.451c0.774-1.445,1.363-3.131,2.259-4.622
		c1.12-1.863,3.097-3.559,4.99-4.675c2.074-1.224,4.668-2.16,7.511-2.312C68.028-0.1,71.127,0.098,73.957,0.168z"/>
	<path style="fill-rule:evenodd;clip-rule:evenodd;" d="M57.253,49.91c-0.772,0.399-1.698,0.263-2.574,0.315
		c-2.459,0.146-5.661,0.553-8.142,0.368c-3.468-0.259-6.015-1.579-8.089-3.361c-4.158-3.572-6.071-9.067-8.772-14.183
		c-0.656-1.243-1.279-2.585-1.891-3.887c-3.016-6.411-6.463-12.691-9.455-19.172c-1.194-2.587-2.313-5.254-4.413-7.039
		c-0.596-0.42-1.081-0.949-1.733-1.312c-0.39-0.625-1.351-0.68-1.733-1.314c2.978-0.188,6.371-0.172,9.559-0.053
		c4.064,0.152,6.919,1.765,9.192,3.835c1.137,1.034,2.285,2.218,3.046,3.467c0.524,0.859,0.943,1.891,1.418,2.836
		c3.292,6.548,6.451,13.043,9.77,19.644c2.298,4.571,4.532,9.529,6.934,14.13C51.771,46.864,54.258,48.762,57.253,49.91z"/>
	<path style="fill-rule:evenodd;clip-rule:evenodd;" d="M84.83,13.089c-0.29,0.44-0.805,0.614-1.209,0.841
		c-1.323,0.742-2.404,1.564-3.414,2.731c-1.312,1.517-2.203,3.155-3.151,5.042c-3.629,7.219-7.218,14.48-10.925,21.851
		c-0.862,1.716-2.158,3.321-3.887,4.308c-1.788,1.021-4.762,0.974-6.566-0.106c-0.841-0.502-1.56-1.253-2.311-2.101
		c-0.585-0.66-1.522-1.819-1.471-2.889c0.024-0.515,0.501-1.28,0.788-1.892c0.8-1.701,2.004-3.599,2.679-5.305
		c0.93-2.35,2.133-4.594,3.31-6.934c1.123-2.233,2.214-4.529,3.414-6.828c1.214-2.326,2.387-4.309,4.36-5.883
		c1.839-1.468,4.441-2.815,7.511-2.941C77.346,12.843,81.237,13.035,84.83,13.089z"/>
	<path style="fill-rule:evenodd;clip-rule:evenodd;" d="M40.235,50.592c-3.056,0.074-6.038,0.059-8.93,0.104
		c-5.776,0.093-9.774-2.568-12.449-6.093c-1.349-1.776-2.197-3.934-3.256-6.04c-1.04-2.069-2.298-4.121-3.099-6.146
		c-1.467-3.709-3.531-7.209-5.2-10.716c-1.505-3.161-3.234-5.961-6.146-7.773C0.779,13.695,0.221,13.624,0,13.141
		c1.919-0.212,3.872-0.096,5.726-0.053c1.901,0.045,3.903-0.169,5.778-0.052c4.582,0.283,7.822,3.785,9.665,6.933
		c2.101,3.588,3.782,7.419,5.568,11.031c1.838,3.718,3.697,7.502,5.568,11.03c1.708,3.22,3.729,5.904,6.829,7.721
		C39.493,49.964,40.091,50.074,40.235,50.592z"/>
</g>
<g id="Layer_1">
</g>
</svg>
