<?xml version="1.0" encoding="iso-8859-1"?>
<!-- Generator: Adobe Illustrator 19.2.0, SVG Export Plug-In . SVG Version: 6.00 Build 0)  -->
<svg version="1.1" xmlns="http://www.w3.org/2000/svg" xmlns:xlink="http://www.w3.org/1999/xlink" x="0px" y="0px"
	 viewBox="0 0 80.592 80.813" style="enable-background:new 0 0 80.592 80.813;" xml:space="preserve">
<g id="Walter_x5F_Nievergelt_x5F_Klischeeanstalt">
	<path style="fill-rule:evenodd;clip-rule:evenodd;" d="M80.309,0.161c0.27,20.266,0.206,40.334,0.206,60.516
		c0,5.1,0.052,10.25,0,15.078c-0.018,1.633,0.242,3.289-0.103,4.889c-0.042,0.01-0.052,0.051-0.103,0.051
		c-23.589,0.1-46.482,0.047-70.19,0.051c-3.315,0-6.643,0.209-9.932-0.102C0.017,67.169,0.032,54.34,0.032,40.555
		c0-13.728-0.073-26.973,0-40.344c0.042-0.01,0.051-0.053,0.103-0.051c17.639-0.287,36.1-0.102,54.444-0.103
		C63.254,0.057,71.88-0.064,80.309,0.161z M52.058,7.725c-6.832-0.002-13.674-0.17-20.532-0.104
		C23.578,7.7,15.638,7.583,7.803,7.827c-0.273,0.59-0.154,1.289-0.154,1.904c0,2.105,0,4.158,0,6.227
		c0,8.391-0.135,16.553,0.051,24.34c0.063,2.631,0.07,5.353-0.051,8.029C7.524,51.059,7.7,53.858,7.7,56.61
		c0,4.133,0,8.324,0,12.352c0,1.336-0.123,2.703,0.154,4.014c21.355,0.115,43.569,0.168,64.89,0
		c0.279-1.301,0.154-2.637,0.154-3.963c0-4.129-0.088-8.014,0-11.99c0.121-5.447-0.052-10.926-0.051-16.467
		c0-5.527,0.105-11.09-0.052-16.57c-0.136-4.742,0.07-9.695,0-14.254c-0.01-0.633,0.127-1.342-0.154-1.955
		C65.765,7.534,58.915,7.725,52.058,7.725z"/>
	<path style="fill-rule:evenodd;clip-rule:evenodd;" d="M15.882,8.085c14.224,1.711,28.294,3.941,42.454,5.764
		c3.547,0.457,7.079,1.01,10.6,1.441c1.142,0.141,2.348,0.178,3.448,0.566c-0.457,4.723-1.268,9.436-1.852,14.201
		c-1.459,11.889-3.231,23.812-4.734,35.662c-0.226,1.777-0.447,3.512-0.669,5.352c-0.064,0.533-0.078,1.137-0.412,1.596
		c-14.167-1.75-28.216-3.963-42.505-5.713c-3.529-0.432-7.01-0.965-10.601-1.441c-1.146-0.15-2.359-0.121-3.448-0.565
		c0.439-4.695,1.286-9.393,1.852-14.152c0.56-4.707,1.197-9.439,1.853-14.203c1.199-8.713,2.365-17.717,3.55-26.604
		c0.085-0.639,0.089-1.381,0.309-1.75C15.757,8.165,15.808,8.114,15.882,8.085z M58.696,21.671c-1.714-0.234-3.456-0.443-5.197-0.67
		c-8.666-1.127-17.084-2.49-25.729-3.602c-1.502-0.193-4.108-0.648-5.403-0.566c-0.286,0.275-0.421,1.707-0.515,2.471
		c-0.336,2.736-0.66,5.361-0.978,7.873c-1.115,8.809-2.373,17.268-3.499,25.936c-0.228,1.754-0.508,3.504-0.566,5.248
		c0.754,0.315,1.611,0.414,2.418,0.516c11.418,1.443,22.505,3.018,33.706,4.527c1.735,0.234,3.487,0.578,5.249,0.566
		c0.421-1.637,0.63-3.35,0.823-5.043c0.6-5.262,1.376-10.463,2.007-15.695c0.834-6.924,2.151-13.832,2.727-20.738
		C62.132,21.915,60.389,21.901,58.696,21.671z"/>
	<path style="fill-rule:evenodd;clip-rule:evenodd;" d="M39.605,19.766c3.047-0.197,6.349,0.641,8.696,1.646
		c2.403,1.029,4.528,2.504,6.175,4.117c3.462,3.389,5.996,7.74,6.381,14.254c0.2,3.383-0.582,6.158-1.595,8.645
		c-1.007,2.473-2.453,4.492-4.065,6.227c-3.287,3.539-8.058,6.242-14.151,6.434c-6.598,0.207-11.548-2.521-14.923-5.713
		c-3.389-3.205-6.213-7.859-6.432-14.203c-0.23-6.645,2.383-11.629,5.66-14.975c2.474-2.523,5.498-4.762,9.674-5.762
		C36.518,20.077,38.024,19.868,39.605,19.766z M52.984,42.872c0.526-2.883,0.043-5.801-1.081-8.131
		c-1.865-3.863-6.313-7.582-12.145-7.307c-4.06,0.192-6.839,1.91-8.954,4.168c-2.002,2.199-3.694,5.268-3.448,9.469
		c0.233,3.947,2.059,6.801,4.117,8.85c2.263,1.945,5.273,3.654,9.418,3.5c3.944-0.146,6.848-2.059,8.851-4.117
		C51.265,47.616,52.502,45.514,52.984,42.872z"/>
</g>
<g id="Layer_1">
</g>
</svg>
