<?xml version="1.0" encoding="iso-8859-1"?>
<!-- Generator: Adobe Illustrator 19.2.0, SVG Export Plug-In . SVG Version: 6.00 Build 0)  -->
<svg version="1.1" xmlns="http://www.w3.org/2000/svg" xmlns:xlink="http://www.w3.org/1999/xlink" x="0px" y="0px"
	 viewBox="0 0 77.106 76.561" style="enable-background:new 0 0 77.106 76.561;" xml:space="preserve">
<g id="Walter_x5F_Herzog">
	<path style="fill-rule:evenodd;clip-rule:evenodd;" d="M38.485,0.003c5.997-0.078,11.643,1.451,15.881,3.332
		c8.844,3.922,15.305,10.438,19.357,19.066c2.072,4.414,3.299,9.709,3.379,15.834c0.08,6.064-1.293,11.414-3.379,15.736
		c-0.545,1.129-0.997,2.229-1.593,3.234c-4.13,6.961-9.866,12.518-17.668,15.93c-4.483,1.959-9.675,3.428-15.736,3.426
		c-6.082,0-11.433-1.326-15.833-3.379c-4.441-2.07-8.26-4.59-11.44-7.771C4.987,58.944,0.355,50.753,0.012,38.427
		c-0.168-6.029,1.394-11.545,3.331-15.881c2.969-6.644,7.371-11.726,13.081-15.736c1.886-1.324,3.965-2.586,6.131-3.475
		c4.539-1.865,9.503-3.33,15.833-3.332C38.421,0.003,38.453,0.003,38.485,0.003z M74.64,44.993
		c1.636-8.293-0.134-17.164-3.234-22.93c-1.654-3.076-3.379-5.723-5.551-8.158c-4.14-4.641-9.872-8.721-16.896-10.523
		c-3.636-0.934-7.591-1.76-12.165-1.545c-8.766,0.414-15.664,3.637-20.95,7.725c-3.256,2.517-5.884,5.519-8.158,8.978
		c-3.081,4.684-5.162,10.207-5.696,17.137C1.414,43.173,3.399,49.599,5.757,54.55c2.316,4.865,6.096,9.274,10.378,12.455
		c2.23,1.656,4.513,3.137,7.096,4.297c2.696,1.209,5.542,2.1,8.688,2.75c3.371,0.697,7.172,0.727,10.572,0.436
		c3.424-0.295,6.52-1.229,9.22-2.221c5.594-2.057,9.894-5.141,13.709-9.123C69.769,58.429,73.148,52.558,74.64,44.993z"/>
	<path style="fill-rule:evenodd;clip-rule:evenodd;" d="M26.272,21.677c0.595,0.049,1.394-0.106,1.834,0.098
		c0.245,2.32,0.096,4.98,0.096,7.578c0,1.314,0,2.621,0,3.91c0,1.258-0.147,2.529,0.097,3.668c0.796,0.26,1.679,0.144,2.51,0.144
		c5.797,0,12.165,0.168,18.005,0.049c0.261-1.203,0.144-2.52,0.144-3.812c0-2.42,0.048-4.922,0.048-7.627
		c0-1.281-0.113-2.568,0.145-3.766c0.476-0.139,1.576-0.193,1.979,0.049c0.161,10.875,0.061,21.553-0.097,32.728
		c-0.405,0.244-1.548,0.188-2.027,0.047c-0.323-4.98,0.154-10.205-0.145-15.156c-0.797-0.283-1.666-0.108-2.51-0.145
		c-2.514-0.115-5.206-0.043-7.82-0.098c-3.456-0.07-6.937-0.061-10.233,0.049c-0.261,1.205-0.145,2.527-0.145,3.812
		c0,3.67,0.005,7.676-0.144,11.393c-0.509,0.15-1.519,0.15-2.027,0c-0.187-2.668-0.048-5.367-0.048-8.109
		c0-8.354,0.006-16.49,0.145-24.668C26.177,21.808,26.174,21.692,26.272,21.677z"/>
</g>
<g id="Layer_1">
</g>
</svg>
