<?xml version="1.0" encoding="iso-8859-1"?>
<!-- Generator: Adobe Illustrator 21.0.2, SVG Export Plug-In . SVG Version: 6.00 Build 0)  -->
<svg version="1.1" xmlns="http://www.w3.org/2000/svg" xmlns:xlink="http://www.w3.org/1999/xlink" x="0px" y="0px"
	 viewBox="0 0 22.427 22.347" style="enable-background:new 0 0 22.427 22.347;" xml:space="preserve">
<g id="Wedding_x5F_Ring_x5F_Shop">
	<path d="M1.383,5.913c2.039-3.837,6.427-6.241,10.755-5.877c3.839,0.21,7.462,2.656,9.142,6.108
		c2.268,4.502,1.096,10.456-2.848,13.646c-2.063,1.675-4.732,2.629-7.397,2.553c-3.314-0.055-6.605-1.611-8.639-4.255
		C0.86,16.145-0.007,13.677,0,11.199C-0.01,9.356,0.508,7.527,1.383,5.913z M10.446,1.019C6.513,1.34,2.877,4.083,1.604,7.833
		c-1.088,2.953-0.665,6.415,1.111,9.016c1.477,2.21,3.84,3.861,6.477,4.29c3.07,0.656,6.469-0.161,8.815-2.28
		c3.161-2.678,4.327-7.378,2.861-11.242C19.396,3.407,14.875,0.571,10.446,1.019z"/>
	<path d="M4.945,5.973C5.21,5.897,5.518,5.476,5.774,5.691c1.346,2.589,2.054,5.447,2.558,8.308
		c-0.027,0.394,0.107,0.784,0.162,1.173c0.54-1.11,1.278-2.111,1.945-3.147c0.072-0.145,0.312-0.279,0.171-0.456
		c-0.506-0.682-1.005-1.374-1.598-1.985C8.91,9.495,8.839,9.337,8.912,9.209c0.328-0.548,0.65-1.103,0.91-1.686
		c0.977-0.117,2.047-0.142,3.022,0.009c0.24,0.459,0.457,0.93,0.692,1.391c0.092,0.174,0.303,0.399,0.137,0.591
		c-0.583,0.634-1.09,1.331-1.641,1.991c-0.101,0.106-0.069,0.269,0.016,0.375c0.742,1.049,1.438,2.133,2.023,3.278
		c0.475-3.27,1.291-6.524,2.753-9.498c0.309-0.027,0.829,0.17,0.855,0.503c-1.785,3.618-2.559,7.644-2.853,11.636
		c-0.309,0.074-0.656,0.079-0.96-0.027c-0.262-1.941-1.469-3.573-2.503-5.178c-0.02-0.001-0.062-0.004-0.082-0.006
		c-0.846,1.054-1.477,2.265-2.111,3.451c-0.209,0.534-0.484,1.072-0.458,1.662c-0.257,0.245-0.634,0.101-0.949,0.143
		c-0.412-4.01-1.037-8.103-2.864-11.756C4.909,6.059,4.933,6.002,4.945,5.973z M10.517,8.419c-0.223,0.219-0.331,0.524-0.466,0.799
		c0.371,0.541,0.811,1.033,1.203,1.561c0.472-0.254,0.679-0.859,1.093-1.215c0.413-0.325,0.03-0.841-0.222-1.122
		C11.596,8.38,11.052,8.422,10.517,8.419z"/>
</g>
<g id="Layer_1">
</g>
</svg>
