<?xml version="1.0" encoding="iso-8859-1"?>
<!-- Generator: Adobe Illustrator 19.2.0, SVG Export Plug-In . SVG Version: 6.00 Build 0)  -->
<svg version="1.1" xmlns="http://www.w3.org/2000/svg" xmlns:xlink="http://www.w3.org/1999/xlink" x="0px" y="0px"
	 viewBox="0 0 141.335 141.586" style="enable-background:new 0 0 141.335 141.586;" xml:space="preserve">
<g id="Welsh_x5F_Development_x5F_Agency">
	<path style="fill-rule:evenodd;clip-rule:evenodd;" d="M141.318,0.198c0.131,45.857-0.539,92.073-0.72,141.318
		c-22.439,0.158-45.925-0.001-70.659,0c-23.611,0.001-47.059-0.099-69.939-0.12C0.331,118.053,0.75,2.81,0.839,0.198
		C21.931-0.267,117.347,0.238,141.318,0.198z M77.257,11.115c-5.201,0.364-9.113,6.184-14.275,6.238
		c-2.103,0.023-3.851-0.961-5.759-1.08c-4.054-0.252-7.039,0.635-10.077,1.8c-2.252,0.863-3.83,2.999-6.357,3.239
		c-4.237,0.402-9.268,0.225-10.797,4.319c0.748,0.329,1.483-0.226,2.398-0.12c1.383,0.16,2.306,1.569,4.199,1.799
		c2.564,0.312,4.356-1.622,6.598-1.919c2.587-0.343,4.362,1.065,3.72,3.119c-1.524,4.873-12.305,2.297-17.275,1.92
		c0.949,1.897,0.759,4.622,0.12,6.718c3.109-1.501,6.498-3.684,11.276-3.239c1.513,0.141,3.667,0.61,3.719,2.04
		c0.056,1.528-2.338,3.319-3.478,4.559c-1.432,1.556-2.695,2.932-3.839,4.199c-3.7,4.102-7.324,8.407-7.558,14.276
		c1.708-1.028,2.583-2.859,3.959-4.199c4.205-4.095,8.708-7.293,14.275-10.317c6.258-3.398,15.854-7.364,19.074-13.676
		c1.844-3.613,1.736-9.367-0.72-11.876c7.837,1.633,8.598-5.656,14.876-6.358C80.556,11.195,78.642,11.017,77.257,11.115z
		 M102.569,13.514c-11.607,1.328-18.611,8.515-25.312,14.996c-9.579,9.265-18.24,19.441-30.711,25.433
		c-2.473,1.188-5.117,2.137-7.798,3.479c0.943,0.531,2.491,0.354,3.839,0.24c13.621-1.15,23.089-8.155,30.831-15.835
		c7.956-7.892,14.839-16.796,23.273-23.513c2.362-1.04,4.397-2.862,6.958-3.719c0.726-0.243,1.764-0.029,2.159-0.959
		C104.847,13.122,103.247,13.436,102.569,13.514z M123.684,29.709c2.855,0.663,4.737,2.301,6.718,3.839
		c1.89-3.629,4.046-8.269,3.599-13.436C130.689,23.439,127.616,27.004,123.684,29.709z M19.794,27.43
		c1.691,2.028,2.908,4.53,4.679,6.478c0.308-2.051,1.786-2.932,2.999-4.079C24.847,29.172,22.212,27.894,19.794,27.43z
		 M104.009,56.461c3.056-0.825,6.699-1.307,10.197-1.44c3.85-0.146,7.502-0.301,10.197-1.799c4.045-2.249,7.041-8.132,4.679-14.276
		c-1.313-3.413-5.781-6.56-10.917-6.358c-4.372,0.172-9.657,3.404-7.678,8.518c1.309,3.379,7.77,4.169,8.758,0.6
		c-2.608,1.809-7.323,0.597-6.238-3.359c0.53-1.934,3.361-2.964,5.398-2.639c5.382,0.857,7.134,8.173,3.839,12.116
		c-5.508,6.59-22.093,2.88-24.833,11.757C99.805,58.728,101.191,57.222,104.009,56.461z M100.65,33.308
		c-9.101,1.737-16.408,7.908-23.273,13.076c-10.375,7.81-21.17,15.542-37.31,16.435c-1.104,0.061-2.234-0.37-3.118,0.6
		c2.286,1.281,4.887,2.232,7.797,2.639c9.94,1.39,17.254-2.32,23.514-6.119c11.442-6.944,19.82-17.462,30.951-24.352
		c0.98-0.607,2.373-0.948,2.879-2.159C101.76,32.922,100.887,33.263,100.65,33.308z M28.791,85.013
		c-1.393-1.296-2.675-2.693-3.599-4.559c-2.782-5.616-2.5-13.661-3.839-20.754c-1.104-5.845-4.985-10.347-11.997-9.717
		c-0.134,0.025-0.187,0.133-0.239,0.24c3.761,2.422,6.304,6.065,6.718,11.517c0.399,5.264-1.552,10.247-4.439,13.196
		c-0.935,0.954-2.157,1.398-2.64,2.639c3.892,0.727,5.793-1.56,7.798-3.119c2.885,7.275,7.4,14.189,16.795,14.156
		C31.829,87.127,30.166,86.292,28.791,85.013z M93.572,53.342c-6.921,1.844-13.166,5.951-19.674,9.357
		c-6.421,3.361-13.339,6.721-21.354,7.678c-6.707,0.8-12.231-0.499-17.515-2.16c3.546,5.491,11.099,9.655,20.394,7.917
		c7.998-1.495,14.964-5.849,21.113-10.077c4.736-3.257,9.268-6.45,13.916-9.478c1.539-1.002,3.472-1.692,4.559-3.239
		C94.479,53.071,93.889,53.258,93.572,53.342z M97.651,64.979c-4.396,0.325-8.697,2.315-12.477,4.079
		c-3.636,1.696-7.304,3.481-10.917,5.278c-7.294,3.628-16.381,7.792-24.952,6.718c-7.311-0.916-12.118-4.496-15.836-8.758
		c-1.242-1.424-2.058-3.245-3.719-4.559c0.3,12.214,7.451,18.86,18.715,19.914c12.003,1.124,20.995-3.937,28.671-8.757
		c8.058-5.06,14.963-11.013,25.913-11.997C102.177,65.072,99.64,64.831,97.651,64.979z M105.688,81.534
		c-5.849-0.8-10.254-4.445-11.396-9.717c-0.12,0-0.143-0.097-0.24-0.12c-1.115,0.915-2.219,4.348-1.919,6.598
		c0.769,5.785,8.63,7.321,13.796,9.117c4.509,1.568,8.872,3.787,11.637,6.478c4.291,4.178,3.737,14.161-1.8,16.315
		c-1.389,0.541-2.97,0.319-4.799,0.48c-3.529,0.309-7.381,1.52-9.717,3.119c-0.965,0.661-2.24,1.752-2.399,3.239
		c9.629-4.069,19.341,3.709,29.751,2.639c1.724-0.177,3.788-0.553,4.799-1.919c-4.204-0.1-9.06-0.641-12.236-2.279
		c-0.873-0.45-3.253-1.805-3.239-2.639c0.009-0.503,2.224-2.425,2.76-2.999c0.958-1.028,2.154-2.184,2.759-3.119
		c4.064-6.286,1.682-14.052-2.759-18.595c-1.265-1.294-2.744-2.056-4.079-3.479c2.793-1.126,5.062-2.775,5.759-5.998
		C118.149,81.214,111.879,82.381,105.688,81.534z M75.218,89.932c0.052,4.077,4.071,5.432,7.558,6.718
		c2.146,0.791,5.931,1.667,5.998,4.079c0.049,1.734-1.759,3.24-2.879,4.079c-4.716,3.531-11.25,5.513-19.435,5.638
		c-3.607,0.055-7.473,0.292-10.797,1.2c-3.137,0.857-6.487,2.064-7.437,5.159c8.764-3.389,16.976,2.241,25.553,2.879
		c3.347,0.249,7.175-0.063,9.237-1.919c-5.857-0.322-13.109-0.837-15.716-5.158c12.359-0.419,27.618-3.333,30.352-12.836
		c0.75-2.609-0.156-5.248-1.68-6.118c-3.771-2.155-10.478-2.558-13.676-5.519c-2.896-2.68-1.081-6.572,0.359-9.357
		c-0.08,0-0.16,0-0.24,0C79.763,79.958,75.157,85.256,75.218,89.932z M43.067,93.53c-6.74,3.963-8.657,15.94-18.595,16.796
		c-7.634,0.656-15.715,0.676-18.235,6.598c9.198-3.962,18.968,3.045,28.433,2.759c2.344-0.071,5.07-0.478,6.598-2.04
		c-6.939-0.099-13.009-1.067-15.955-5.158c5.144-0.581,10.015-1.571,13.196-3.839c5.191-3.7,6.67-9.612,10.557-14.516
		c0.979-1.235,2.343-1.972,2.759-3.599C48.966,90.562,45.454,92.127,43.067,93.53z"/>
	<path style="fill-rule:evenodd;clip-rule:evenodd;fill:#FFFFFF;" d="M81.336,12.554c-6.278,0.702-7.039,7.991-14.876,6.358
		c2.456,2.51,2.563,8.264,0.72,11.876c-3.221,6.312-12.816,10.278-19.074,13.676c-5.567,3.024-10.07,6.222-14.275,10.317
		c-1.376,1.339-2.251,3.17-3.959,4.199c0.233-5.869,3.857-10.174,7.558-14.276c1.144-1.267,2.407-2.643,3.839-4.199
		c1.141-1.24,3.534-3.031,3.478-4.559c-0.052-1.429-2.206-1.898-3.719-2.04c-4.778-0.445-8.167,1.738-11.276,3.239
		c0.639-2.096,0.829-4.821-0.12-6.718c4.971,0.377,15.751,2.954,17.275-1.92c0.642-2.055-1.133-3.462-3.72-3.119
		c-2.242,0.297-4.033,2.231-6.598,1.919c-1.894-0.23-2.816-1.639-4.199-1.799c-0.915-0.106-1.65,0.449-2.398,0.12
		c1.529-4.094,6.56-3.917,10.797-4.319c2.527-0.24,4.106-2.376,6.357-3.239c3.038-1.164,6.023-2.052,10.077-1.8
		c1.908,0.119,3.656,1.102,5.759,1.08c5.162-0.054,9.074-5.874,14.275-6.238C78.642,11.017,80.556,11.195,81.336,12.554z
		 M44.746,22.391c4.73,2.227,8.369-1.627,10.797-3.959C51.266,18.611,48.579,21.372,44.746,22.391z"/>
	<path style="fill-rule:evenodd;clip-rule:evenodd;fill:#FFFFFF;" d="M105.809,13.634c-0.396,0.93-1.434,0.717-2.159,0.959
		c-2.561,0.857-4.596,2.679-6.958,3.719c-8.435,6.717-15.317,15.621-23.273,23.513c-7.742,7.68-17.21,14.685-30.831,15.835
		c-1.348,0.114-2.896,0.291-3.839-0.24c2.681-1.342,5.325-2.291,7.798-3.479c12.471-5.992,21.132-16.168,30.711-25.433
		c6.701-6.48,13.705-13.668,25.312-14.996C103.247,13.436,104.847,13.122,105.809,13.634z"/>
	<path style="fill-rule:evenodd;clip-rule:evenodd;" d="M55.543,18.432c-2.428,2.332-6.067,6.186-10.797,3.959
		C48.579,21.372,51.266,18.611,55.543,18.432z"/>
	<path style="fill-rule:evenodd;clip-rule:evenodd;fill:#FFFFFF;" d="M134,20.112c0.447,5.167-1.709,9.807-3.599,13.436
		c-1.98-1.538-3.862-3.176-6.718-3.839C127.616,27.004,130.689,23.439,134,20.112z"/>
	<path style="fill-rule:evenodd;clip-rule:evenodd;fill:#FFFFFF;" d="M27.472,29.829c-1.213,1.147-2.691,2.028-2.999,4.079
		c-1.771-1.948-2.987-4.45-4.679-6.478C22.212,27.894,24.847,29.172,27.472,29.829z"/>
	<path style="fill-rule:evenodd;clip-rule:evenodd;fill:#FFFFFF;" d="M97.411,59.58c2.74-8.877,19.325-5.167,24.833-11.757
		c3.295-3.943,1.543-11.259-3.839-12.116c-2.037-0.325-4.868,0.705-5.398,2.639c-1.085,3.956,3.63,5.167,6.238,3.359
		c-0.988,3.569-7.449,2.78-8.758-0.6c-1.979-5.114,3.306-8.346,7.678-8.518c5.136-0.202,9.604,2.945,10.917,6.358
		c2.362,6.144-0.634,12.027-4.679,14.276c-2.695,1.499-6.348,1.653-10.197,1.799c-3.498,0.133-7.142,0.615-10.197,1.44
		C101.191,57.222,99.805,58.728,97.411,59.58z"/>
	<path style="fill-rule:evenodd;clip-rule:evenodd;fill:#FFFFFF;" d="M102.09,33.428c-0.506,1.211-1.898,1.552-2.879,2.159
		C88.08,42.478,79.702,52.996,68.26,59.94c-6.26,3.799-13.573,7.508-23.514,6.119c-2.91-0.407-5.511-1.358-7.797-2.639
		c0.884-0.97,2.015-0.539,3.118-0.6c16.14-0.894,26.935-8.625,37.31-16.435c6.865-5.168,14.173-11.339,23.273-13.076
		C100.887,33.263,101.76,32.922,102.09,33.428z"/>
	<path style="fill-rule:evenodd;clip-rule:evenodd;fill:#FFFFFF;" d="M33.35,88.612c-9.395,0.033-13.91-6.881-16.795-14.156
		c-2.005,1.559-3.905,3.846-7.798,3.119c0.482-1.241,1.705-1.685,2.64-2.639c2.887-2.95,4.838-7.933,4.439-13.196
		c-0.414-5.452-2.957-9.095-6.718-11.517c0.053-0.107,0.106-0.215,0.239-0.24c7.012-0.63,10.894,3.872,11.997,9.717
		c1.339,7.093,1.057,15.138,3.839,20.754c0.924,1.866,2.205,3.262,3.599,4.559C30.166,86.292,31.829,87.127,33.35,88.612z"/>
	<path style="fill-rule:evenodd;clip-rule:evenodd;fill:#FFFFFF;" d="M95.012,53.342c-1.087,1.546-3.02,2.236-4.559,3.239
		c-4.648,3.028-9.18,6.221-13.916,9.478c-6.149,4.228-13.115,8.582-21.113,10.077c-9.296,1.737-16.849-2.427-20.394-7.917
		c5.283,1.661,10.808,2.96,17.515,2.16c8.016-0.957,14.934-4.317,21.354-7.678c6.508-3.406,12.753-7.513,19.674-9.357
		C93.889,53.258,94.479,53.071,95.012,53.342z"/>
	<path style="fill-rule:evenodd;clip-rule:evenodd;fill:#FFFFFF;" d="M103.05,66.898c-10.95,0.983-17.855,6.937-25.913,11.997
		c-7.676,4.82-16.668,9.881-28.671,8.757c-11.264-1.054-18.415-7.7-18.715-19.914c1.661,1.314,2.477,3.135,3.719,4.559
		c3.718,4.262,8.525,7.842,15.836,8.758c8.571,1.074,17.658-3.09,24.952-6.718c3.613-1.797,7.281-3.582,10.917-5.278
		c3.779-1.764,8.08-3.754,12.477-4.079C99.64,64.831,102.177,65.072,103.05,66.898z"/>
	<path style="fill-rule:evenodd;clip-rule:evenodd;fill:#FFFFFF;" d="M122.364,78.655c-0.696,3.223-2.966,4.872-5.759,5.998
		c1.335,1.423,2.814,2.185,4.079,3.479c4.44,4.543,6.823,12.309,2.759,18.595c-0.604,0.936-1.801,2.091-2.759,3.119
		c-0.536,0.574-2.751,2.496-2.76,2.999c-0.014,0.834,2.366,2.189,3.239,2.639c3.177,1.638,8.032,2.18,12.236,2.279
		c-1.011,1.366-3.075,1.742-4.799,1.919c-10.41,1.07-20.122-6.708-29.751-2.639c0.159-1.487,1.435-2.579,2.399-3.239
		c2.336-1.599,6.188-2.81,9.717-3.119c1.829-0.161,3.41,0.061,4.799-0.48c5.537-2.154,6.091-12.138,1.8-16.315
		c-2.765-2.691-7.128-4.91-11.637-6.478c-5.166-1.796-13.027-3.332-13.796-9.117c-0.3-2.251,0.804-5.684,1.919-6.598
		c0.098,0.023,0.12,0.12,0.24,0.12c1.143,5.271,5.548,8.917,11.396,9.717C111.879,82.381,118.149,81.214,122.364,78.655z"/>
	<path style="fill-rule:evenodd;clip-rule:evenodd;fill:#FFFFFF;" d="M82.415,78.775c0.08,0,0.16,0,0.24,0
		c-1.44,2.785-3.256,6.677-0.359,9.357c3.198,2.96,9.904,3.364,13.676,5.519c1.523,0.87,2.43,3.509,1.68,6.118
		c-2.733,9.503-17.992,12.417-30.352,12.836c2.606,4.321,9.858,4.836,15.716,5.158c-2.063,1.856-5.891,2.168-9.237,1.919
		c-8.577-0.638-16.789-6.268-25.553-2.879c0.95-3.094,4.301-4.301,7.437-5.159c3.324-0.908,7.19-1.145,10.797-1.2
		c8.185-0.125,14.719-2.107,19.435-5.638c1.12-0.839,2.928-2.345,2.879-4.079c-0.067-2.411-3.852-3.287-5.998-4.079
		c-3.486-1.286-7.506-2.641-7.558-6.718C75.157,85.256,79.763,79.958,82.415,78.775z"/>
	<path style="fill-rule:evenodd;clip-rule:evenodd;fill:#FFFFFF;" d="M51.824,90.531c-0.416,1.628-1.78,2.364-2.759,3.599
		c-3.887,4.903-5.365,10.816-10.557,14.516c-3.182,2.268-8.052,3.258-13.196,3.839c2.946,4.091,9.017,5.06,15.955,5.158
		c-1.527,1.562-4.254,1.969-6.598,2.04c-9.465,0.286-19.234-6.721-28.433-2.759c2.521-5.921,10.602-5.941,18.235-6.598
		c9.937-0.855,11.854-12.832,18.595-16.796C45.454,92.127,48.966,90.562,51.824,90.531z"/>
</g>
<g id="Layer_1">
</g>
</svg>
