<?xml version="1.0" encoding="iso-8859-1"?>
<!-- Generator: Adobe Illustrator 19.2.0, SVG Export Plug-In . SVG Version: 6.00 Build 0)  -->
<svg version="1.1" xmlns="http://www.w3.org/2000/svg" xmlns:xlink="http://www.w3.org/1999/xlink" x="0px" y="0px"
	 viewBox="0 0 92.238 88.07" style="enable-background:new 0 0 92.238 88.07;" xml:space="preserve">
<g id="Wembley_x5F_Stadium">
	<path style="fill-rule:evenodd;clip-rule:evenodd;" d="M3.956,0.18c2.936-0.405,7.707,0,10.672,0c19.263,0,42.688,0.001,64.993,0
		c4.645,0,10.84-0.854,12.11,2.039c0.891,2.027,0.36,7.217,0.24,9.953c-0.171,3.881,0.053,7.64,0,9.832
		c-0.445,18.377-0.052,36.337-0.24,53.841c-0.047,4.428,0.744,9.956-1.679,11.512c-1.712,1.099-7.309,0.6-10.432,0.6
		c-22.317-0.001-43.987,0.001-66.552,0c-4.52,0-10.807,0.713-12.351-1.679c-1.061-1.643-0.646-7.417-0.6-10.313
		c0.151-9.275,0.12-21.423,0.12-31.897c0-12.291,0.165-25.163,0.24-36.453C0.506,3.424,0.286,0.687,3.956,0.18z M41.968,24.403
		c-3.552-3.187-7.81-7.195-13.311-7.674c-10.451-0.912-6.196,14.075-4.316,19.785c0.429,1.302,0.644,3.035,1.919,3.358
		c-1.068-4.553-5.167-16.726,0.959-18.347c5.116-1.354,10.154,3.454,12.95,5.756c3.199,2.633,6.034,5.489,8.154,8.154
		c-7.112,0.482-14.271,0.917-19.546,3.238c3.08-0.001,6.391-0.767,9.953-1.079c3.529-0.309,7.291-0.45,11.151-0.36
		c4.813,5.416,9.227,11.531,13.19,17.628c1.316,2.024,2.197,4.625,4.438,5.875c-3.656-8.735-8.891-15.892-13.79-23.383
		c7.831,0.672,16.153,1.66,20.984,5.516c1.815,1.449,3.44,4.004,3.478,6.715c0.078,5.711-5.31,7.383-8.394,9.833
		c2.614,0.072,5.551-1.672,8.034-3.238c2.533-1.598,4.959-3.497,6.115-5.756c1.809-3.534-0.082-7.024-2.158-8.754
		c-6.521-5.434-18.274-6.219-29.738-6.355C49.027,31.913,45.915,27.944,41.968,24.403z M22.303,40.591
		c-4.778,1.583-11.797,4.449-13.91,8.873c-1.739,3.642,0.413,7.427,2.638,9.233c5.559,4.515,15.344,5.792,25.422,6.235
		c10.304,0.454,20.765-0.79,28.06-3.477c-3.632,0.043-7.895,1.069-12.591,1.319c-4.387,0.233-9.069,0.201-13.55-0.12
		c-9.89-0.708-20.675-2.711-23.384-9.593c-2.759-7.009,4.857-10.011,8.274-12.351C22.687,40.58,22.703,40.458,22.303,40.591z"/>
</g>
<g id="Layer_1">
</g>
</svg>
