<?xml version="1.0" encoding="iso-8859-1"?>
<!-- Generator: Adobe Illustrator 19.2.0, SVG Export Plug-In . SVG Version: 6.00 Build 0)  -->
<svg version="1.1" xmlns="http://www.w3.org/2000/svg" xmlns:xlink="http://www.w3.org/1999/xlink" x="0px" y="0px"
	 viewBox="0 0 76.413 76.053" style="enable-background:new 0 0 76.413 76.053;" xml:space="preserve">
<g id="Werkzeugmaschinen_x5F_Oerlikon_x5F_Buhrle_x5F_und_x5F_Co">
	<path style="fill-rule:evenodd;clip-rule:evenodd;" d="M11.736,65.321c-4.967-4.621-8.635-10.476-10.585-17.98
		c-1.013-3.898-1.467-8.783-0.912-13.067c1.09-8.424,4.03-14.856,8.458-20.056c4.339-5.097,9.918-9.278,16.713-11.851
		c2.598-0.984,5.434-1.778,8.61-2.077c1.1-0.103,2.356-0.199,3.495-0.253c5.964-0.282,10.91,1.082,15.093,2.785
		c1.427,0.582,2.852,1.1,4.102,1.824c6.269,3.628,11.442,8.537,14.941,14.839c2.098,3.779,3.639,8.255,4.406,13.421
		c1.135,7.639-0.611,14.961-2.938,20.208C69.571,61.12,63.465,67.348,55.799,71.5c-3.992,2.162-8.184,3.634-13.573,4.305
		c-5.719,0.711-10.97-0.202-15.65-1.57c-1.454-0.425-2.887-1.122-4.254-1.722C18.178,70.697,14.771,68.288,11.736,65.321z
		 M67.296,46.328c0.533-2.188,0.811-4.528,0.811-7.04c0-5.013-1.153-9.201-2.836-12.814c-1.195-2.565-2.715-5.114-4.558-7.141
		c-0.526-0.578-1.676-1.555-1.671-2.279c0.007-1.161,2.348-2.022,2.33-2.988c-0.012-0.614-1.436-1.56-1.975-1.975
		c-4.448-3.426-9.865-6.215-16.967-6.787c-9.223-0.743-16.01,2.135-21.272,5.926c-3.325,2.601-6.255,5.396-8.407,9.066
		c-2.139,3.646-3.958,7.858-4.508,13.016c-1.089,10.223,2.623,17.794,7.04,23.197c0.528,0.645,1.941,1.691,1.925,2.481
		c-0.024,1.125-2.345,1.901-2.279,3.039c0.038,0.656,1.322,1.488,1.925,1.975c2.168,1.752,4.66,3.393,7.293,4.407
		c3.879,1.494,7.959,2.684,13.067,2.583c4.933-0.097,9.133-1.408,12.611-3.039c3.583-1.68,6.621-3.923,9.167-6.482
		C63.025,57.446,65.741,52.713,67.296,46.328z"/>
	<path style="fill-rule:evenodd;clip-rule:evenodd;" d="M55.85,19.789c3.825,3.857,6.617,8.35,7.445,14.789
		c0.463,3.603,0.073,6.997-0.709,9.978c-0.759,2.894-2.122,5.358-3.545,7.547c-2.749,4.227-7.208,7.912-12.409,9.774
		c-2.87,1.028-5.912,1.683-9.521,1.57c-6.735-0.211-12.003-3.014-15.802-6.382c-3.922-3.478-6.853-7.907-8.104-14.08
		c-0.643-3.175-0.586-6.738,0.102-10.079c0.607-2.948,1.83-5.578,3.19-7.901c1.299-2.217,3.033-4.379,5.014-6.078
		c3.932-3.37,9.275-5.957,16.106-6.28c4.032-0.191,7.852,0.86,10.636,2.077C51.253,16.036,53.751,17.676,55.85,19.789z
		 M52.406,22.98c-0.015-0.424-0.763-1.007-1.114-1.266c-3.264-2.404-7.321-4.364-12.864-4.103c-3.336,0.158-6.883,1.499-9.269,3.089
		c-2.459,1.64-4.61,3.793-5.977,6.23c-1.436,2.56-2.657,6.001-2.633,9.471c0.026,3.93,0.863,6.913,2.583,9.623
		c0.448,0.806,0.803,1.361,1.368,2.127c0.368,0.498,1.45,1.324,1.418,2.076c-0.047,1.121-2.193,1.908-2.178,2.938
		c0.006,0.387,0.659,0.933,1.064,1.266c3.001,2.467,7.063,4.232,12.256,4.153c2.918-0.045,5.456-0.871,7.496-1.874
		c2.126-1.045,4.028-2.362,5.47-3.95c3.191-3.294,5.204-7.363,5.419-13.32c0.106-2.938-0.702-5.598-1.621-7.647
		c-0.707-1.577-1.672-3.057-2.735-4.305c-0.425-0.5-0.935-0.91-0.912-1.469c0.031-0.756,0.768-0.987,1.063-1.57
		C51.546,24.021,52.43,23.691,52.406,22.98z"/>
	<path style="fill-rule:evenodd;clip-rule:evenodd;" d="M28.196,30.07c2.668-3.186,7.817-5.886,13.472-4.153
		c3.092,0.948,5.062,2.592,6.787,4.963c1.003,1.379,1.919,3.317,2.127,5.217c0.542,4.943-1.248,8.49-3.697,10.939
		c-1.706,1.706-3.699,2.883-6.027,3.444c-4.181,1.007-8.67-0.412-10.94-2.634c-0.39-0.381-0.724-0.868-1.114-1.266
		c-0.412-0.419-0.854-0.724-1.165-1.164c-1.995-2.835-2.974-7.879-1.418-11.852C26.738,32.246,27.514,31.148,28.196,30.07z
		 M33.16,36.249c-0.065,1.694,0.426,2.83,1.013,3.798c0.272,0.449,0.684,0.894,0.658,1.317c-0.07,1.125-2.261,1.828-2.178,2.887
		c0.056,0.712,1.637,1.258,2.178,1.418c3.393,1.002,6.216-1.188,7.243-3.241c0.859-1.718,0.792-4.096-0.051-5.825
		c-0.278-0.572-0.719-0.694-0.81-1.621c0.179-0.666,0.599-0.995,1.114-1.469c0.348-0.32,1.16-0.894,1.114-1.469
		c-0.035-0.437-0.824-0.886-1.316-1.114c-0.931-0.433-2.433-0.72-3.647-0.507C35.544,30.853,33.276,33.226,33.16,36.249z"/>
</g>
<g id="Layer_1">
</g>
</svg>
