<?xml version="1.0" encoding="iso-8859-1"?>
<!-- Generator: Adobe Illustrator 19.2.0, SVG Export Plug-In . SVG Version: 6.00 Build 0)  -->
<svg version="1.1" xmlns="http://www.w3.org/2000/svg" xmlns:xlink="http://www.w3.org/1999/xlink" x="0px" y="0px"
	 viewBox="0 0 72.588 69.525" style="enable-background:new 0 0 72.588 69.525;" xml:space="preserve">
<g id="Werner_x5F_Quack_x5F_Verlag">
	<path style="fill-rule:evenodd;clip-rule:evenodd;" d="M54.023,23.241c0.713,0.273,1.517,0.151,2.276,0.151
		c5.132,0,11.039,0.108,16.288,0.152c-0.053,0.637-0.615,1.106-1.012,1.568c-0.417,0.485-0.845,0.975-1.264,1.416
		c-5.677,6.767-11.542,13.346-17.249,20.082c-4.801,5.525-9.868,11.443-14.821,17.198c-0.818,0.951-1.609,1.719-2.428,2.934
		c-0.311,0.461-0.739,0.92-1.214,1.467c-0.324,0.372-1.015,1.304-1.315,1.315c-0.573,0.022-0.769-0.861-1.164-1.163
		c-5.184-6.231-10.377-12.453-15.63-18.615c-4.093-5.011-8.38-9.924-12.545-14.922c-1.032-1.238-2.013-2.492-3.085-3.743
		C0.541,30.709-0.001,30.335,0,29.766c1.029-0.174,2.33-0.101,3.692-0.101c1.24,0,2.727-0.23,3.743,0.051
		c0.554,0.153,1.311,1.206,1.771,1.771c3.653,4.485,7.437,8.995,11.179,13.354c3.712,4.325,7.514,8.823,11.229,13.354
		c0.402,0.491,1.224,1.804,1.669,1.821c0.507,0.019,1.489-1.445,1.77-1.771c0.582-0.674,1.097-1.477,1.568-1.973
		c5.432-6.288,10.84-12.597,16.288-18.868c1.576-1.943,3.224-3.794,4.856-5.716c0.528-0.623,1.177-1.198,1.518-1.973
		c-1.023-0.268-2.29-0.152-3.491-0.152c-1.193,0-2.41-0.052-3.49,0.051c-0.601,0.664-0.939,1.466-1.366,2.175
		c-3.023,5.025-7.915,8.717-15.074,9.712c-4.525,0.629-8.58-0.5-11.786-2.074c-3.126-1.534-5.732-3.808-7.638-6.475
		c-2.039-2.853-3.38-6.047-3.844-10.319c-0.493-4.539,0.71-8.49,2.428-11.635c2.405-4.403,6.25-8.117,11.382-9.864
		c1.784-0.607,3.854-1.005,6.121-1.113c5.486-0.26,9.666,1.753,12.848,3.996C50.754,7.812,54.512,13.963,54.023,23.241z
		 M46.84,15.299c-0.927-2.149-2.292-4.108-3.895-5.514c-2.413-2.117-6.058-3.953-10.572-3.642c-4.398,0.304-7.43,2.171-9.763,4.654
		c-2.243,2.506-4.053,5.583-3.996,10.268c0.084,6.937,4.701,11.519,9.712,13.557c3.036,1.234,6.807,1.121,9.813,0.101
		c2.126-0.721,3.935-2.015,5.362-3.389c0.487-0.47,1.111-0.946,1.265-1.67c-3.609-0.381-7.693,0.014-11.331-0.303
		c-0.184-1.777-0.157-4.198,0.051-5.918c4.417-0.235,9.825,0.168,14.164-0.152C48.315,20.398,47.788,17.493,46.84,15.299z"/>
</g>
<g id="Layer_1">
</g>
</svg>
