<?xml version="1.0" encoding="iso-8859-1"?>
<!-- Generator: Adobe Illustrator 19.2.0, SVG Export Plug-In . SVG Version: 6.00 Build 0)  -->
<svg version="1.1" xmlns="http://www.w3.org/2000/svg" xmlns:xlink="http://www.w3.org/1999/xlink" x="0px" y="0px"
	 viewBox="0 0 83.117 73.533" style="enable-background:new 0 0 83.117 73.533;" xml:space="preserve">
<g id="Werner_x5F_Herterich">
	<path style="fill-rule:evenodd;clip-rule:evenodd;" d="M66.632,0.157c0.411,4.791-0.152,10.411,0.254,15.241
		c3.771,0.145,8.069,0.152,12.092,0.153c1.357,0,2.726-0.124,3.962,0.152c0.232,8.127,0.009,16.279,0.152,24.487
		c0.057,3.213,0,6.39,0,9.653c0,1.575,0.113,3.19-0.152,4.674c0.24,2.898,0.152,6.1,0.152,9.348c0,3.23,0.085,6.542-0.101,9.603
		c-27.731,0.139-54.876,0.042-82.76-0.152c-0.273-1.146-0.153-2.33-0.153-3.506c0-17.076-0.053-33.842-0.05-50.905
		c0-1.152-0.125-2.333,0.151-3.455c3.881-0.17,7.774-0.051,11.686-0.051c11.4,0.002,23.528,0.133,35.105-0.051
		c0.274-1.159,0.152-2.454,0.152-3.759c0.001-3.209-0.001-6.534,0-9.805c0-0.581-0.144-1.25,0.203-1.728
		C53.754-0.008,60.214-0.06,66.632,0.157z M51.035,3.917c-0.289,1.012-0.186,2.101-0.152,3.15c0.035,1.109,0,2.229,0,3.353
		c0,6.751,0.035,13.779,0,20.423c-0.048,8.821,0.12,18.238-0.101,27.079c-0.952,0.141-2.687,0.224-3.557-0.051
		c-0.111-11.192-0.1-22.381-0.102-33.785c0-1.598,0.123-3.221-0.152-4.775c-4.513-0.186-9.22-0.101-13.87-0.101
		c-2.298,0-4.606,0.09-6.857,0c-1.137-0.045-2.29,0.053-3.404,0c-1.121-0.054-2.243-0.186-3.303,0.101
		c-0.188,9.413-0.101,19.442-0.101,29.263c0,2.467-0.106,4.984,0,7.315c0.034,0.755,0.196,1.538-0.153,2.235
		c-0.915,0.052-2.569,0.189-3.454-0.102c-0.314-13.032,0.127-26.361-0.254-38.763c-3.924-0.17-8.046-0.174-11.685,0
		C3.451,34.456,4.075,51.227,3.787,66.608c-0.019,0.994-0.081,2.006,0.203,2.947c8.916,0.184,18.222,0.187,27.333,0.102
		c0.011-0.057,0.057-0.079,0.101-0.102c0.224-12.693-0.147-26.437,0.152-38.865c1.053-0.032,2.666-0.197,3.557,0.102
		c0.065,8.095,0.101,16.072,0.101,24.182c0.001,3.249,0,6.55,0,9.856c0.001,1.627-0.109,3.254,0.153,4.775
		c4.303,0.15,8.991,0.152,13.666,0.152c4.687,0,9.431,0.084,13.92-0.102c0.187-11.767,0.102-24.738,0.102-36.579
		c0-0.759-0.19-1.56,0.102-2.286c0.925-0.141,2.611-0.223,3.455,0.051c0.009,11.473,0.052,22.577,0.051,33.988
		c0,1.698-0.122,3.348,0.152,4.826c1.865,0.274,4.062,0.152,6.198,0.152c1.066,0,2.151,0,3.201,0c1.059,0,2.125,0.123,3.048-0.152
		c0.135-12.135,0.051-24.97,0.051-37.696c0-4.252,0.101-8.489-0.152-12.549c-5.07-0.333-10.805,0.111-16.055-0.254
		c-0.169-3.65-0.101-7.665-0.102-11.481c0-1.29,0.119-2.578-0.152-3.76C59.16,3.75,54.746,3.746,51.035,3.917z"/>
</g>
<g id="Layer_1">
</g>
</svg>
