<?xml version="1.0" encoding="iso-8859-1"?>
<!-- Generator: Adobe Illustrator 19.2.0, SVG Export Plug-In . SVG Version: 6.00 Build 0)  -->
<svg version="1.1" xmlns="http://www.w3.org/2000/svg" xmlns:xlink="http://www.w3.org/1999/xlink" x="0px" y="0px"
	 viewBox="0 0 100.918 99.864" style="enable-background:new 0 0 100.918 99.864;" xml:space="preserve">
<g id="Werribee_x5F_Open_x5F_Range_x5F_Zoo">
	<path style="fill-rule:evenodd;clip-rule:evenodd;" d="M59.928,17.278c-0.346-1.95,0.079-5.103,0.359-7.91
		c0.382-3.837,3.051-7.223,5.872-9.108c1.76-1.176,1.9,1.93,1.438,3.715C67.361,4.89,66.888,6.525,66.4,7.81
		c-0.424,1.115-1.358,1.959-1.559,2.637c-0.103,0.348-0.061,0.922-0.119,1.078c-0.604,1.595-1.933,2.546-2.877,3.836
		C61.307,16.095,61.204,17.481,59.928,17.278z"/>
	<path style="fill-rule:evenodd;clip-rule:evenodd;" d="M59.088,19.675c0.418,1.187-0.927,1.514-1.318,2.277
		c0.145,0.294,0.559,0.32,0.6,0.719c-3.034,4.307,3.56,8.15,3.476,12.345c-0.028,1.414-1.013,3.15-1.438,4.314
		c-1.326,3.628-2.942,8.187-3.715,12.345c-0.415,2.229-0.371,6.098-2.277,6.112c-1.865,0.016-1.75-3.794-1.318-5.513
		c0.526-2.092,1.825-4.186,2.637-6.472c1.243-3.502,3.569-7.262,2.397-12.105c-0.274-1.131-1.23-1.891-1.679-2.996
		c-1.129-2.791,0.287-5.407,0.959-8.39c-1.181,0.297-1.817,1.139-3.235,1.198c-1.938-1.938-3.219-4.532-3.356-8.269
		c-0.87,0.541-1.52,1.95-1.558,3.476c-0.07,2.764,3.009,4.642,2.157,7.551c-0.27,0.922-1.088,1.735-1.438,2.757
		c-1.761,5.124-0.254,13.771-3.236,18.696c-0.5-1.852-0.17-3.812-0.119-5.753c0.09-3.45,0.42-7.556,0.719-10.667
		c0.386-4.011-1.932-6.715-1.917-9.947c0.004-0.831,0.446-1.526,0.719-2.517c0.249-0.906,0.097-1.9,0.359-2.637
		c0.179-0.502,1.08-1.088,1.079-1.678c-0.003-0.795-1.341-1.457-1.798-2.038c-0.74-0.941-1.261-2.471-2.038-4.075
		c-0.421-0.869-1.443-2.125-1.318-2.876c0.34-2.043,4.86-2.489,6.832-2.037c0.376,1.577-0.363,3.31-0.24,5.033
		c0.161,2.238,1.308,4.162,1.678,5.993c0.489-1.029,0.837-2.2,1.798-2.757c0.341-2.913-1.01-8.968,2.518-9.109
		c1.509-0.06,5.009,1.105,5.153,1.918c0.231,1.298-1.911,2.382-2.877,3.355c-0.497,0.503-1.269,1.819-2.037,2.877
		c-1.429,1.969-2.618,2.311-1.678,4.914c0.267,0.737,1.778,4.333,2.637,4.554C57.428,20.588,58.108,18.879,59.088,19.675z"/>
	<path style="fill-rule:evenodd;clip-rule:evenodd;" d="M41.95,18.116c-3.256-2.539-6.669-5.553-7.311-10.307
		c2.448,0.566,3.641-2.477,5.633-2.277C40.824,5.588,42.2,7.27,42.31,8.408c0.165,1.708,0.825,4.374,0.839,5.394
		c0.007,0.495-0.27,0.735-0.24,1.079c0.062,0.708,0.596,1.399,0.6,2.037c0.012,2.31-0.967,4.566-1.079,6.712
		c-0.133,2.567,1.593,4.566,1.918,7.311c0.477,4.035-2.047,7.862-1.918,11.626c0.048,1.401,0.368,3.039,0.6,4.314
		c0.319,1.764,1.437,3.153,1.678,4.675c0.153,0.968,0.045,3.185-1.079,3.476c-1.247,0.322-2.086-1.845-2.517-2.877
		c-1.728-4.142-0.472-11.82-0.359-16.18c0.063-2.429-0.839-5.129-0.959-7.071C39.533,24.677,41.073,21.292,41.95,18.116z"/>
	<path style="fill-rule:evenodd;clip-rule:evenodd;" d="M66.759,29.503c-1.78,0.528-1.635-1.213-2.037-2.397
		c-0.516-1.517-2.179-3.754-2.397-6.112c-0.128-1.383,0.114-3.724,0.479-5.034c0.302-1.081,1.315-2.081,1.678-2.876
		c0.748-1.641,1.177-4.638,2.277-5.154c1.771-0.831,3.441,0.834,3.596,1.679c0.578,3.167-4.227,4.468-5.153,6.472
		C62.905,21.046,68.88,24.997,66.759,29.503z"/>
	<path style="fill-rule:evenodd;clip-rule:evenodd;" d="M33.081,62.582c-2.829-2.999-1.066-7.965-1.558-12.944
		c-0.343-3.472-2.718-6.984-2.997-10.067c-0.228-2.532-0.024-4.986,0-7.312c0.022-2.1,0.989-5.206,0.479-6.951
		c-0.554-1.899-3.423-3.025-5.153-4.435c-0.828-0.674-4.768-3.22-4.795-4.674c-0.018-1.011,3.052-3.174,4.075-3.476
		c2.446-0.722,2.576,1.061,3.476,2.517c0.401,0.648,1.295,1.217,1.798,2.037c0.866,1.415,1.397,2.547,2.038,4.435
		c1.098,3.236,0.566,8.271,1.438,11.985c0.709,3.021,1.709,5.535,2.997,7.79c0.859-6.055-1.409-12.789-0.839-18.936
		c0.046-0.5,0.359-1.28,0.24-1.678c-0.179-0.595-0.916-0.564-1.438-0.959c-1.001-0.754-2.498-2.095-3.596-3.355
		c-0.954-1.096-2.762-3.507-2.637-4.435c0.073-0.539,4.279-2.916,5.394-2.876c1.494,0.052,2.198,2.851,2.756,4.434
		c0.655,1.856,1.904,3.444,2.038,5.154c0.192,2.458-0.46,5.28-0.24,7.67c0.224,2.429,1.279,4.742,1.438,7.311
		c0.146,2.338,0.285,5.1-0.239,7.431c-0.379,1.682-0.969,3.003-1.079,4.674c-0.109,1.668,0.133,3.396,0,5.154
		c-0.107,1.426-0.771,2.943-0.719,4.314c0.035,0.922,0.675,1.95,0.599,2.876C36.402,60.147,34.184,61.358,33.081,62.582z"/>
	<path style="fill-rule:evenodd;clip-rule:evenodd;" d="M66.879,17.518c0.821,2.764,3.3,4.806,4.554,6.951
		c0.586,1.002,1.933,7.008-0.958,5.153c-0.959-0.615-0.851-2.587-1.559-4.074c-0.442-0.93-2.584-3.827-2.876-4.795
		c-0.227-0.752-0.64-3.203-0.479-3.835c0.29-1.145,3.92-2.98,4.914-4.314c0.372-0.5,0.714-1.37,1.558-0.719
		c0.319,0.246,0.952,1.61,0.839,2.397c-0.154,1.073-2.292,1.55-2.876,1.798C68.756,16.604,68.086,17.033,66.879,17.518z"/>
	<path style="fill-rule:evenodd;clip-rule:evenodd;" d="M9.59,20.514c0.584-1.247,1.962-1.138,3.236-1.678
		c1.034-0.438,2.746-2.875,4.674-2.157c0.567,0.21,0.313,0.807,0.839,1.678c0.454,0.753,1.801,1.519,2.517,2.637
		c0.475,0.742,0.58,1.661,0.959,2.277c0.704,1.145,2.586,1.809,2.756,3.235c0.392,3.286,0.028,7.713,0.6,11.985
		c0.243,1.815,1.226,4.971,1.198,7.312c-0.019,1.648-0.477,3.123-0.359,4.554c0.307,3.733,2.438,6.887,2.756,11.026
		c0.077,0.995-0.162,1.961-0.12,2.996c0.065,1.595,0.371,2.996,0,4.795c-0.342,1.66-1.644,4.365-2.397,4.554
		c-3.559,0.891-3.686-5.411-4.075-8.27c-0.302-2.225-0.254-4.598-0.719-6.831c-0.695-3.344-1.509-5.724-1.798-9.349
		c-0.081-1.021,0.054-2.021,0-2.997c-0.159-2.873-1.465-5.242-2.038-7.79c-0.588-2.615,0.624-6.046,0-8.39
		c-0.189-0.712-1.628-1.651-2.277-2.277C12.998,25.567,10.863,23.284,9.59,20.514z M18.219,27.825
		c0.516,0.518,1.189,0.604,1.438,1.199c0.203,0.484,0.065,1.362,0.24,2.037c0.814,3.148,1.157,6.39,1.678,9.828
		c0.606-4.286,0.412-8.538,0.719-13.184c-2.565-2.07-4.935-4.334-7.791-6.113C15.49,23.544,16.519,26.116,18.219,27.825z"/>
	<path style="fill-rule:evenodd;clip-rule:evenodd;" d="M12.706,42.567c0.243-2.766,1.418-5.604,0.959-8.15
		c-0.131-0.726-1.198-2.084-1.798-2.756c-0.815-0.913-2.342-2.037-3.476-3.236c-0.773-0.817-3.178-2.401-3.236-3.355
		c-0.057-0.925,2.581-3.195,3.835-2.997c1.485,0.235,1.62,1.896,2.277,3.116c0.984,1.829,4.381,6.562,4.435,8.75
		c0.019,0.781-0.607,1.483-0.719,2.157c-0.139,0.829,0.038,1.851,0,2.756c-0.079,1.874-0.439,3.869-0.36,5.634
		c0.144,3.182,1.541,6.292,1.918,9.827c0.466,4.375-1.128,8.703-0.959,12.225c0.112,2.325,1.898,4.285,2.157,6.232
		c0.415,3.11-0.382,7.264-2.517,8.03c-0.743,0.268-2.781,0.169-3.116,0c-1.161-0.584-0.654-3.169-1.079-5.033
		c-0.88-3.863-2.602-9.422-2.637-14.024C8.35,56.246,8.907,50.65,8.751,44.724c-0.032-1.201-0.342-3.503-0.24-4.914
		c0.042-0.579,0.346-1.321,0.24-1.678c-0.225-0.757-1.31-0.629-2.038-1.079c-1.999-1.235-3.65-4.517-5.034-6.472
		c-0.515-0.727-1.737-1.493-1.678-2.396c0.06-0.933,2.308-2.931,3.476-2.877c1.313,0.059,3.581,4.791,4.195,5.633
		c1.125,1.544,4.109,3.541,4.314,5.393c0.061,0.55-0.317,1.156-0.359,1.798C11.508,39.924,11.764,41.808,12.706,42.567z"/>
	<path style="fill-rule:evenodd;clip-rule:evenodd;" d="M86.535,46.402c-1.099-1.181-1.938-2.601-3.355-3.715
		c-2.045-1.608-5.334-3.481-6.951-5.394c-1.069-1.265-1.124-3.765-1.679-5.753c-0.482-1.731-1.895-3.217-1.318-5.034
		c3.549,2.364,3.474,8.352,6.952,10.787c3.779,6.009,10.748,9.466,12.584,17.019c-1.207-0.736-1.583-2.273-2.397-3.356
		c-0.839-1.117-1.664-2.188-2.756-2.996c0.312,2.216,3.214,4.09,2.157,6.112c0.869,0.602,3.173,3.347,0.599,2.876
		c-0.961,3.149-4.557,3.152-8.629,3.476c-2.069,0.165-5.659,0.006-6.951,0.84c-1.229,0.792-0.714,2.239-1.079,3.715
		c-1.041,0.008-3.07-0.475-3.235-1.198c-0.18-0.783,1.005-0.862,1.198-1.559c0.312-1.122-0.735-2.363,0.12-3.235
		c3.335-1.124,8.021,0.285,11.506-0.839c1.769-0.571,3.853-2.981,5.513-2.518c0.651,0.183,0.627,1.413,1.438,1.079
		c0.013-1.102-1.326-1.245-2.518-1.918c-0.612-0.346-1.274-1.361-1.917-1.439c-0.658-0.079-2.271,0.677-3.116,1.079
		c-1.301,0.618-2.572,1.712-3.835,2.037c-2.375,0.612-5.077-0.104-7.191,0.479c-1.724,0.476-1.743,2.593-2.517,3.476
		c-0.521-0.39-1.886-1.855-1.559-3.115c0.171-0.658,3.595-2.239,5.153-2.517c0.577-0.103,1.406,0.05,1.798,0
		c2.279-0.286,4.689-1.943,7.071-2.876c0.614-0.241,1.253-0.199,1.679-0.479c0.548-0.361,0.748-1.075,1.198-1.079
		c1.73-0.014,3.104,2.806,4.435,2.996c-1.043-2.513-2.404-4.707-3.955-6.711c-2.267-2.119-6.41-3.074-9.589-4.675
		c-0.653-0.329-1.234-1.063-1.797-1.198c-0.719-0.172-1.819,0.136-2.637,0.12c-1.819-0.034-3.513-0.823-4.315,0.599
		c-0.62,1.101-1.215,4.69-1.318,6.113c-0.111,1.535-0.164,3.411,0,4.794c0.088,0.735,0.519,1.427,0.6,2.157
		c0.093,0.837-0.101,1.685,0,2.517c0.247,2.046,1.809,3.544,0.719,5.514c-1.429-0.448-3.076-1.057-3.355-2.397
		c-0.591-2.831,1.569-6.783-0.12-9.349c-1.632,2.051-1.565,5.816-1.198,8.989c-0.771,0.971-3.353,0.015-3.596-0.959
		c-0.273-1.095,0.96-2.664,1.318-3.596c0.224-0.581,0.205-1.232,0.359-1.678c1.003-2.884,2.131-4.948,2.637-8.51
		c0.3-2.111,1.801-4.37,1.918-6.112c0.097-1.442-1.221-2.906-1.918-4.674c-0.521-1.323-0.627-3.349-1.318-4.435
		c-0.898-1.411-3.415-3.289-3.116-5.873c0.346-2.987,3.333,1.238,3.836,2.157c1.05,1.922,0.393,4.508,1.318,6.832
		c0.803,2.016,2.46,5.155,5.153,5.153c1.673-0.001,2.631-1.507,4.314-1.198c0.831,0.152,2.643,2.234,3.835,3.116
		c1.246,0.92,3.216,1.461,4.555,2.276C83.495,43.688,84.69,45.258,86.535,46.402z M87.374,47.601
		C87.453,47.679,87.324,47.55,87.374,47.601L87.374,47.601z"/>
	<path style="fill-rule:evenodd;clip-rule:evenodd;" d="M53.456,30.461c-0.021-0.102,0.047-0.112,0.12-0.119
		c0.989,1.062,2.506,2.353,2.637,4.074c0.256,3.371-1.614,7.073-2.277,11.146c-0.229,1.401-0.539,2.894-0.839,3.955
		c-0.268,0.948-1.148,1.973-1.318,2.877c-0.141,0.75,0.198,1.361,0.12,1.798c-0.157,0.874-1.953,3.068-3.476,1.917
		c-0.473-0.356-0.721-1.465-0.72-1.678c0.012-1.686,1.651-3.724,2.157-5.633c0.235-0.886,0.336-1.8,0.72-2.877
		c0.453-1.275,1.243-2.901,1.198-4.794C51.7,37.854,51.085,32.113,53.456,30.461z"/>
	<path style="fill-rule:evenodd;clip-rule:evenodd;" d="M73.951,34.896c-0.459,0.349-1.127-0.247-1.678-0.239
		c-1.266,0.018-2.384,1.109-3.716,0.959c-2.248-0.255-3.791-2.497-3.596-4.914C68.878,30.378,73.859,30.634,73.951,34.896z"/>
	<path style="fill-rule:evenodd;clip-rule:evenodd;" d="M95.165,52.634c-2.116-0.932-3.18-3.153-4.555-4.914
		c-1.407-1.802-3.228-3.195-4.914-4.794c-3.332-3.158-5.67-7.251-8.03-11.266c-0.015-0.215,0.147-0.253,0.12-0.479
		c1-0.213,1.978,1.674,2.517,2.637c1.723,3.072,4.662,5.337,6.712,7.79C90.106,45.307,93.499,48.491,95.165,52.634z"/>
	<path style="fill-rule:evenodd;clip-rule:evenodd;" d="M86.894,50.836c-1.246,0.452-1.604-0.933-2.276-1.438
		c-0.543-0.406-2.706-1.648-3.356-1.797c-1.835-0.42-3.706,0.331-5.873,0.479c-1.215,0.083-3.078-0.188-4.074,0.12
		c-1.242,0.386-1.713,2.865-2.996,2.517c-1.012-0.274-0.708-4.098-0.24-4.913c1.537-2.683,5.241-1.629,8.629-1.079
		c1.782,0.289,3.929,0.076,5.393,0.719c1.134,0.498,2.011,1.513,2.877,2.397C85.754,48.634,87.001,49.582,86.894,50.836z"/>
	<path style="fill-rule:evenodd;clip-rule:evenodd;" d="M82.939,49.398c0.295,1.379-1.381,1.126-2.277,1.318
		c-1.168,0.251-2.783,0.677-3.955,1.079c-0.553,0.189-1.015,0.679-1.558,0.839c-1.526,0.451-3.192,0.218-4.435,0.719
		c-1.334,0.539-2.219,2.2-3.476,0.959c-0.135-1.173,0.24-1.837,0.719-2.397c1.521,0.784,2.643-0.236,4.435-0.839
		c1.197-0.403,2.454-0.589,3.357-0.959C77.366,49.453,79.888,48.861,82.939,49.398z"/>
	<path style="fill-rule:evenodd;clip-rule:evenodd;" d="M96.363,53.593c1.701-0.456,2.396,1.695,3.116,2.876
		c0.894,1.467,1.456,2.469,1.438,3.955c-0.053,4.312-3.738,10.44-7.071,11.746c-0.949,0.371-1.819-0.124-2.637-0.12
		c-0.645,0.003-1.271,0.535-1.918,0.6c-1.481,0.146-4.029-0.05-5.273-0.72c-2.061-1.109-4.111-5.262-2.397-8.749
		c0.686-1.395,2.757-2.098,4.794-2.637c2.019-0.534,2.994-0.746,4.795-1.438c2.314-0.89,2.933-4.171,4.913-5.393
		C96.212,53.658,96.217,53.632,96.363,53.593z"/>
	<path style="fill-rule:evenodd;clip-rule:evenodd;" d="M45.186,71.211c-4.481-2.074-3.065-8.916-1.199-12.824
		c1.031-2.159,2.875,0.606,3.476,1.918C49.269,64.253,47.05,69.231,45.186,71.211z"/>
	<path style="fill-rule:evenodd;clip-rule:evenodd;" d="M42.07,71.93c1.954-0.202,1.745,2.193,3.116,2.277
		c1.415,0.087,3.247-3.409,3.596-5.633c0.171-1.093,0.031-2.048,0.839-2.517c0.491-1.83-2.095-6.723-0.359-7.551
		c0.945-0.452,2.49,0.406,2.637,1.078c0.386,1.775-1.034,4.559-0.839,6.832c0.062,0.737,0.608,1.337,0.479,2.277
		c-0.205,1.493-1.606,4.492-2.397,5.872c-0.698,1.219-2.134,3.159-2.996,3.236c-1.249,0.111-2.232-1.514-2.876-2.277
		C42.405,74.502,41.761,73.377,42.07,71.93z"/>
	<path style="fill-rule:evenodd;clip-rule:evenodd;" d="M51.539,81.519c-0.218,1.566-0.602,3.316-0.84,5.033
		c-0.233,1.689,0.153,4.052-1.797,4.314c-1.893-6.398,0.863-12.282,2.517-17.378c0.431-1.328,0.39-2.625,0.719-3.716
		c0.171-0.566,0.674-0.996,0.839-1.558c0.819-2.778-0.287-5.082-0.119-8.39c2.454-1.443,6.622,0.633,5.153,3.596
		c-0.826,1.664-2.671,3.765-2.877,5.992c-0.069,0.761,0.218,1.414,0.24,2.157C55.505,75.931,52.622,78.867,51.539,81.519z"/>
	<path style="fill-rule:evenodd;clip-rule:evenodd;" d="M39.314,74.327c-0.21-2.545,1.404-3.58,1.318-5.514
		c-0.039-0.871-1.218-2.647-1.798-3.595c-0.286-0.467-1.721-1.636-1.798-2.277c-0.195-1.623,2.916-3.326,4.195-2.038
		c0.596,0.601,0.112,2.787,0.12,4.435c0.006,1.243,0.519,2.294,0.479,3.116c-0.067,1.396-1.192,3.653-1.318,5.753
		c-0.076,1.27-4.663,5.474-5.273,3.356C34.598,75.344,38.448,74.906,39.314,74.327z"/>
	<path style="fill-rule:evenodd;clip-rule:evenodd;" d="M81.741,62.103c-0.099,1.301-1.695,0.889-2.637,1.078
		c-0.607,1.226-0.164,3.256-0.12,4.315c-1.317,0.03-3.112-0.476-3.955-1.318c0.97-0.709,0.528-1.965,0.839-2.996
		C76.651,60.584,79.429,61.016,81.741,62.103z"/>
	<path style="fill-rule:evenodd;clip-rule:evenodd;" d="M61.965,62.462c0.949-0.218,3.26,1.525,3.236,2.637
		c-0.026,1.193-2.065,1.987-2.518,2.396c-0.693,0.629-2.244,2.877-2.277,3.476c-0.053,0.983,0.908,1.302,0.6,2.756
		c-0.502,2.368-2.34,4.511-3.476,6.952c-1.077,2.313-2.425,5.114-3.236,8.509c-0.361,1.513-0.849,2.724-1.437,4.435
		c-0.356,1.03-0.79,3.774-1.918,3.955c-0.84,0.135-1.357-0.68-1.439-1.078c-0.268-1.332,0.971-2.092,1.439-3.356
		c0.633-1.714,0.123-4.371,0.719-6.232c0.4-1.249,0.688-3.153,1.199-4.435c0.584-1.463,1.561-2.856,2.157-4.315
		c0.672-1.647,1.722-3.07,2.157-4.314c0.316-0.906,0.139-1.701,0.479-2.277c0.312-0.53,1.084-0.799,1.318-1.198
		c0.662-1.13,0.045-2.73,0.48-4.195C59.736,65.207,61.068,62.667,61.965,62.462z"/>
	<path style="fill-rule:evenodd;clip-rule:evenodd;" d="M32.721,76.005c-1.404-2.457,4.658-3.57,5.034-5.513
		c-2.119-0.016-2.798-2.355-4.794-2.877c-0.127-1.771,1.02-3.556,2.158-3.596c1.01-0.035,1.955,1.59,2.517,2.517
		c0.628,1.036,1.724,2.576,1.798,3.235c0.132,1.181-1.283,2.576-2.157,3.356C35.804,74.443,34.88,75.727,32.721,76.005z"/>
	<path style="fill-rule:evenodd;clip-rule:evenodd;" d="M57.171,86.911c-0.052-1.475,0.472-3.017,1.078-4.314
		c0.448-0.957,1.588-2.178,2.398-3.355c0.835-1.217,1.597-2.53,2.277-3.475c0.656-0.913,0.724-0.768,0.959-2.398
		c0.296-2.057,3.326-7.281,6.231-6.712c0.737,0.145,2.178,1.493,2.158,2.637c-0.027,1.545-3.182,2.274-4.316,3.236
		c-0.604,0.514-2.192,2.411-2.396,3.116c-0.118,0.408,0.07,1.023,0,1.438c-0.303,1.788-1.714,3.37-2.757,4.674
		C61.208,83.754,59.566,85.992,57.171,86.911z"/>
	<path style="fill-rule:evenodd;clip-rule:evenodd;" d="M69.396,78.403c-0.216,3.485-2.69,7.499-4.914,9.708
		c-2.67,2.652-5.906,4.429-7.79,6.831c-0.594,0.757-1.351,3.536-2.277,3.476c-0.999-0.065-0.664-1.852-0.359-2.637
		c0.239-0.614,0.997-2.401,1.438-3.235c1.419-2.688,4.946-4.03,6.831-6.592c2.038-2.77,2.506-6.855,5.633-8.51
		c1.105-1.879,2.606-4.991,4.555-6.472c0.292-0.223,1.147-0.693,1.438-0.72c1.108-0.099,4.188,1.86,3.955,2.877
		c-0.285,1.238-2.889,1.11-4.195,1.558C71.772,75.351,70.928,77.525,69.396,78.403z"/>
	<path style="fill-rule:evenodd;clip-rule:evenodd;" d="M31.643,75.046c-0.663,2.853-2.978,4.054-4.674,5.873
		c-3.434,2.068-7.552,3.328-11.146,5.394c-1.064,0.611-2.176,2.04-3.596,1.437c1.028-2.511,4.293-3.775,7.071-5.273
		c2.761-1.488,5.569-2.701,7.791-4.435C28.42,77.005,30.032,74.171,31.643,75.046z"/>
	<path style="fill-rule:evenodd;clip-rule:evenodd;" d="M82.58,77.324c-0.593,0.75-1.591,0.477-2.277,0.839
		c-1.459,0.771-1.948,2.785-3.476,3.476c0.076,0.443,0.325,0.714,0.24,1.318c-2.796,2.459-2.973,6.684-6.473,8.51
		c-0.449,0.234-1.013,0.199-1.438,0.479c-0.874,0.575-1.051,1.938-1.918,2.996c-0.419,0.511-1.704,1.136-2.517,1.798
		c-1.676,1.366-2.466,3.558-5.154,2.996c-0.332-2.041,1.684-3.044,2.877-4.435c1.117-1.301,2.058-2.895,3.235-4.314
		c1.254-1.51,2.525-2.74,3.477-4.435c1.003-1.786,1.849-3.998,3.355-5.153c0.68-0.522,1.655-0.497,2.277-0.959
		c1.587-1.179,2.597-5.993,5.393-5.753C81.338,74.786,82.481,76.054,82.58,77.324z"/>
	<path style="fill-rule:evenodd;clip-rule:evenodd;" d="M40.272,77.203c0.061,1.355-1.127,2.558-1.918,3.716
		c-1.283,1.882-2.283,4.308-4.914,4.674c-1.554,0.217-2.943-0.391-4.435-0.479c-1.824-0.108-4.45,0.154-6.352,0.6
		c-0.661,0.155-1.585,0.893-2.397,1.318c-1.713,0.899-2.899,1.068-3.596,2.757c-4.446-1.432,1.679-3.978,3.835-4.675
		c2.133-0.688,4.683-2.657,6.352-2.876c1.642-0.215,4.339,1.271,5.873,1.318C36.78,83.683,37.451,77.873,40.272,77.203z"/>
	<path style="fill-rule:evenodd;clip-rule:evenodd;" d="M42.19,77.803c1.044,1.352-0.443,2.64-0.839,4.075
		c-1.029,3.73,0.185,9.081-0.958,12.704c-0.285,0.901-1.05,2.247-2.277,2.157c0.514-2.77-0.208-6.006-0.12-9.108
		c0.05-1.779,0.825-3.396,1.319-5.154C39.901,80.384,40.16,77.918,42.19,77.803z"/>
	<path style="fill-rule:evenodd;clip-rule:evenodd;" d="M82.46,85.474c0,0.399,0,0.799,0,1.198
		c-1.333,2.127-3.905,3.701-5.872,5.513c-1.599,1.473-3.055,2.684-4.914,4.075c-0.727,0.544-1.682,1.576-2.637,0.959
		c0.237-1.419,1.563-2.287,2.517-3.355c0.922-1.034,1.688-2.25,2.637-3.477c1.85-2.388,3.669-5.938,6.951-6.711
		c1.404-1.397,0.789-5.594,3.716-5.394c0.968,0.066,3.416,2.159,3.355,2.876c-0.065,0.784-2.297,1.568-2.996,2.038
		C84.062,83.971,83.403,84.81,82.46,85.474z"/>
	<path style="fill-rule:evenodd;clip-rule:evenodd;" d="M36.077,79.721c-0.209,1.438-1.669,2.172-3.116,2.157
		c-1.304-0.014-2.228-1.14-3.955-0.959C29.552,78.291,34.033,78.616,36.077,79.721z"/>
	<path style="fill-rule:evenodd;clip-rule:evenodd;" d="M45.785,79.601c0.609,1.006,0.102,2.126,0,3.476
		c-0.355,4.703,2.878,12.809-2.277,14.022c0.406-3.417,0.124-6.303-0.6-9.229c-0.764-3.089,0.237-6.18,1.798-8.39
		C45.143,79.444,45.486,79.5,45.785,79.601z"/>
	<path style="fill-rule:evenodd;clip-rule:evenodd;" d="M36.077,86.432c0.064,1.229-0.641,1.889-0.719,2.997
		c-0.099,1.407,0.601,3.615,0.24,5.393c-0.477,2.35-3.879,5.195-3.955,1.079c-0.047-2.602,1.735-5.438,1.678-7.671
		c-2.129,0.21-5.058,0.211-7.071-0.239c-1.181-0.264-3.177,0.017-2.997-1.318c0.827-0.776,2.115-0.184,3.236-0.12
		C29.817,86.741,33.545,85.936,36.077,86.432z"/>
	<path style="fill-rule:evenodd;clip-rule:evenodd;" d="M28.647,97.458c-0.491-2.731,1.419-4.091,1.678-6.472
		c-3.867-0.123-8.784,0.148-12.464-0.719c0.686-4.129,5.211-1.316,8.15-1.199c1.429,0.058,4.597-0.811,5.393,0.12
		c0.339,0.395,0.069,1.248,0,2.038C31.197,93.575,31.328,99.146,28.647,97.458z"/>
	<path style="fill-rule:evenodd;clip-rule:evenodd;" d="M11.148,88.35c1.658-0.729,4.783,1.784,5.393,3.355
		c0.126,0.325,0.016,0.755,0.12,1.079c0.729,2.287,4.549,2.606,2.517,5.514c-0.616,0.881-2.012,1.653-3.475,1.558
		c-1.134-0.074-3.182-0.435-3.955-0.839c-1.549-0.809-2.702-5.965-2.158-7.91c0.044-0.158,0.532-0.412,0.839-1.079
		C10.844,89.125,10.322,88.713,11.148,88.35z"/>
	<path style="fill-rule:evenodd;clip-rule:evenodd;" d="M28.407,92.185c-0.093,2.394-0.601,5.386-3.116,5.753
		c-0.967-1.329,0.816-2.477,0.599-4.194c-1.677,0.312-4.003-0.797-5.873-0.839c-0.532-0.012-1.996,0.518-2.157-0.359
		c-0.324-1.762,5.58-0.259,7.79-0.479C26.958,91.935,27.612,91.409,28.407,92.185z"/>
	<path style="fill-rule:evenodd;clip-rule:evenodd;" d="M21.216,98.298c-0.439-0.999,0.056-2.933-0.719-3.596
		c-0.636-0.124-1.39-0.128-1.918-0.36c0.118-1.884,4.491-0.524,4.914,0.72C24.076,96.779,23.017,99.7,21.216,98.298z"/>
</g>
<g id="Layer_1">
</g>
</svg>
