<?xml version="1.0" encoding="iso-8859-1"?>
<!-- Generator: Adobe Illustrator 21.0.2, SVG Export Plug-In . SVG Version: 6.00 Build 0)  -->
<svg version="1.1" xmlns="http://www.w3.org/2000/svg" xmlns:xlink="http://www.w3.org/1999/xlink" x="0px" y="0px"
	 viewBox="0 0 21.695 8.856" style="enable-background:new 0 0 21.695 8.856;" xml:space="preserve">
<g id="Westpac_x5F_Bank">
	<path d="M0,0.007c1.368,0.028,2.737-0.001,4.105,0.016c0.36,0.004,0.727,0.122,0.985,0.381c0.17,0.194,0.298,0.42,0.386,0.661
		c0.745,2.276,1.482,4.554,2.23,6.829c0.133,0.358,0.302,0.719,0.609,0.962c-1.42-0.002-2.84,0.002-4.26-0.001
		C3.623,8.819,3.17,8.678,2.873,8.347C2.645,8.137,2.509,7.846,2.427,7.551C1.768,5.287,1.109,3.022,0.453,0.757
		C0.354,0.481,0.246,0.187,0,0.007z"/>
	<path d="M21.088,0.019C21.291,0.017,21.493,0.021,21.695,0c-0.342,0.279-0.453,0.722-0.564,1.129
		c-0.618,2.123-1.233,4.246-1.851,6.368c-0.108,0.397-0.312,0.797-0.666,1.027c-0.274,0.212-0.622,0.297-0.961,0.332
		c-1.43,0.001-2.86-0.001-4.29,0c0.253-0.157,0.386-0.434,0.509-0.693c0.09-0.186,0.158-0.381,0.216-0.58
		c0.697-2.141,1.399-4.282,2.094-6.425c0.121-0.389,0.348-0.775,0.719-0.971c0.244-0.135,0.529-0.155,0.801-0.175
		C18.832,0.024,19.96,0.016,21.088,0.019z"/>
	<path d="M8.52,0.044c1.549-0.003,3.099-0.002,4.649-0.001c0.003,2.938,0.002,5.875,0.001,8.813
		c-1.552-0.002-3.104,0.002-4.656-0.002C8.522,5.918,8.509,2.981,8.52,0.044z"/>
</g>
<g id="Layer_1">
</g>
</svg>
