<?xml version="1.0" encoding="iso-8859-1"?>
<!-- Generator: Adobe Illustrator 19.2.0, SVG Export Plug-In . SVG Version: 6.00 Build 0)  -->
<svg version="1.1" xmlns="http://www.w3.org/2000/svg" xmlns:xlink="http://www.w3.org/1999/xlink" x="0px" y="0px"
	 viewBox="0 0 80.141 44.557" style="enable-background:new 0 0 80.141 44.557;" xml:space="preserve">
<g id="west_x5F_coast_x5F_landscape_x5F_construction">
	<path style="fill-rule:evenodd;clip-rule:evenodd;" d="M26.15,0.133c0.283,1.924-0.09,4.504,0.193,6.429
		c1.623,0.18,3.793,0.097,5.752,0.097c0.611,0,1.274-0.106,1.74,0.193c-2.171,6.466-4.304,12.889-6.67,19.286
		c-0.782,2.114-1.355,4.302-2.32,6.332c-0.451-0.34-0.554-0.968-0.725-1.45c-2.068-5.824-4.224-11.784-6.235-17.691
		c-0.734-2.158-1.593-4.288-2.126-6.477c0.504-0.253,1.162-0.146,1.788-0.145c1.791,0,4.008,0.114,5.607-0.145
		c0.171-1.466,0.081-3.332,0.145-4.93c0.022-0.545-0.119-1.124,0.145-1.547C24.235-0.017,25.41-0.055,26.15,0.133z"/>
	<path style="fill-rule:evenodd;clip-rule:evenodd;" d="M56.988,0.133c0.284,1.922-0.092,4.506,0.193,6.429
		c1.056,0.26,2.412,0.145,3.722,0.145c1.31,0,2.666-0.115,3.722,0.145c-0.126,1.136-0.658,2.159-1.015,3.238
		c-2.12,6.406-4.513,12.931-6.767,19.334c-0.369,1.049-0.624,2.151-1.208,3.093c-0.403-0.372-0.549-0.961-0.725-1.45
		c-0.961-2.655-1.845-5.347-2.804-8.072c-1.478-4.199-3.055-8.6-4.543-12.857c-0.374-1.068-0.798-2.161-0.967-3.287
		c1.054-0.26,2.414-0.146,3.722-0.145c1.297,0,2.63,0.113,3.674-0.145c0.223-1.156,0.097-2.581,0.097-3.867
		c0-0.949-0.077-1.954,0.242-2.61C55.104,0.031,56.291-0.049,56.988,0.133z"/>
	<path style="fill-rule:evenodd;clip-rule:evenodd;" d="M39.877,12.024c0.04,0.009,0.048,0.048,0.097,0.048
		c1.048,2.608,1.892,5.295,2.852,8.023c0.409,1.162,0.72,2.184,1.063,3.48c0.313,1.183,0.845,2.354,1.256,3.528
		c0.815,2.326,1.676,4.65,2.514,7.009c0.42,1.185,0.859,2.387,1.112,3.625c-1.058,0.261-2.409,0.145-3.673,0.145
		c-1.288,0-2.556-0.088-3.625,0.097c-0.313,1.927,0.15,4.629-0.242,6.477c-0.784,0.053-2.001,0.137-2.707-0.048
		c-0.371-1.836,0.042-4.456-0.241-6.38c-1.057-0.414-2.407-0.085-3.722-0.145c-0.651-0.029-1.293-0.048-1.933-0.048
		c-0.624,0-1.271,0.109-1.789-0.145c-0.037-0.579,0.256-1.108,0.435-1.643c1.24-3.707,2.684-7.378,3.915-11.166
		c1.009-3.104,2.259-6.376,3.384-9.57c0.385-1.093,0.76-2.193,1.16-3.19C39.768,12.075,39.82,12.047,39.877,12.024z"/>
	<path style="fill-rule:evenodd;clip-rule:evenodd;" d="M8.894,12.072c0.041-0.009,0.045,0.019,0.048,0.048
		c0.592,0.964,0.845,2.078,1.208,3.142c2.185,6.394,4.626,12.758,6.767,19.238c0.348,1.055,0.865,2.08,1.015,3.19
		c-0.515,0.254-1.169,0.145-1.788,0.145c-1.731,0-3.775,0.053-5.559,0.097c-0.336,0.85-0.193,2.071-0.193,3.239
		c0,1.16,0.109,2.385-0.146,3.287c-0.784,0.053-2,0.137-2.707-0.048c-0.343-1.864,0.039-4.454-0.242-6.38
		c-0.53-0.25-1.199-0.145-1.837-0.145c-1.252,0-2.539-0.07-3.77-0.048C1.096,37.845,0.474,38.007,0,37.69
		c0.743-2.925,1.953-5.685,2.9-8.507c0.313-0.934,0.728-1.859,0.966-2.804c0.243-0.959,0.463-1.692,0.773-2.562
		c1.34-3.748,2.687-7.927,4.109-11.601C8.776,12.147,8.824,12.099,8.894,12.072z"/>
	<path style="fill-rule:evenodd;clip-rule:evenodd;" d="M71.054,12.072c0.032,0,0.064,0,0.097,0
		c2.764,7.349,5.271,15.004,7.976,22.476c0.382,1.056,0.823,2.125,1.015,3.238c-2.362,0.292-5.227-0.11-7.443,0.193
		c-0.407,1.922,0.128,4.489-0.242,6.429c-0.842,0.151-2.022,0.241-2.755,0c-0.329-1.878,0.031-4.446-0.242-6.38
		c-1.066-0.26-2.45-0.145-3.77-0.145c-1.317,0-2.646,0.096-3.673-0.193c1.275-4.353,2.938-8.526,4.398-12.76
		c1.463-4.244,2.939-8.539,4.495-12.712C70.936,12.147,70.984,12.099,71.054,12.072z"/>
</g>
<g id="Layer_1">
</g>
</svg>
