<?xml version="1.0" encoding="iso-8859-1"?>
<!-- Generator: Adobe Illustrator 19.2.0, SVG Export Plug-In . SVG Version: 6.00 Build 0)  -->
<svg version="1.1" xmlns="http://www.w3.org/2000/svg" xmlns:xlink="http://www.w3.org/1999/xlink" x="0px" y="0px"
	 viewBox="0 0 80.089 63.544" style="enable-background:new 0 0 80.089 63.544;" xml:space="preserve">
<g id="Wilkin_x5F_Service_x5F_73">
	<path style="fill-rule:evenodd;clip-rule:evenodd;" d="M58.669,8.103c-0.032,0-0.064,0-0.098,0
		c-0.952,0.152-1.608,0.734-1.665,1.666c-0.067,1.084,0.846,2.367,1.322,3.33c0.543,1.1,1.074,2.096,1.567,3.086
		c0.531,1.064,0.982,2.16,1.471,3.186c1.928,4.057,4.132,8.162,6.271,12.248c0.549,1.051,1.089,2.144,1.322,3.281
		c0.585,2.844-0.846,5.269-1.96,7.055c-1.223,1.963-2.406,3.873-3.527,5.684c-2.4,3.879-4.543,7.658-7.006,11.416
		c-1.557,2.721-5.946,4.447-9.504,2.449c-2.857-1.605-4.289-5.166-5.83-7.986c-3.25-5.949-6.318-12.139-9.553-18.078
		c-1.616-2.967-3.232-5.99-4.753-9.062c-1.506-3.047-3.154-6.043-4.702-9.113c-0.787-1.559-1.715-3.062-1.764-5.143
		c-0.108-4.498,3.058-6.103,5.977-7.84c1.047-0.623,2.106-1.281,3.282-1.91c0.345-0.184,0.949-0.531,1.225-0.49
		c0.59,0.088,1.38,2.209,1.666,2.744c2.551,4.781,4.989,9.524,7.495,14.305c5.003,9.545,9.816,19.303,14.893,28.709
		c0.574,0.793,1.006,2.264,2.205,2.449c1.11,0.174,1.903-0.48,2.058-1.469c0.169-1.084-0.779-2.434-1.273-3.381
		c-2.741-5.25-5.39-10.301-8.133-15.481c-1.078-2.037-2.015-4.148-3.185-6.271c-0.562-1.02-1.095-2.082-1.617-3.135
		c-0.539-1.088-0.947-2.311-1.077-3.627c-0.443-4.492,2.827-6.795,5.78-8.328c3.079-1.596,6.002-3.357,9.211-4.947
		c2.412-1.102,4.425-3.23,7.545-3.43c2.236-0.145,3.967,0.549,5.192,1.568c1.26,1.047,1.994,2.426,2.793,3.918
		c1.584,2.961,3.178,6.037,4.654,8.818c0.692,1.307,1.416,3.449,1.028,5.537c-0.35,1.885-1.25,3.094-2.155,4.557
		c-1.445,2.334-2.961,4.836-4.508,7.299c-0.193,0.309-0.576,0.883-0.783,0.881c-0.377-0.002-0.674-0.928-0.931-1.42
		c-1.812-3.461-3.746-7.271-5.536-10.631c-1.833-3.439-3.651-7.088-5.536-10.631C60.007,8.929,59.919,8.267,58.669,8.103z"/>
	<path style="fill-rule:evenodd;clip-rule:evenodd;" d="M37.995,56.066c-0.397,1.48-1.338,2.807-2.205,4.016
		c-0.881,1.23-1.927,2.215-3.331,2.842c-3.543,1.586-7.059-0.117-8.77-2.303c-0.892-1.141-1.514-2.625-2.204-4.018
		c-1.992-4.016-4.275-8.359-6.272-12.248c-1.387-2.701-2.812-5.453-4.262-8.131c-1.461-2.697-2.732-5.471-4.164-8.182
		c-1.383-2.619-2.653-5.459-4.214-8.182c-1.31-2.287-3.371-5.733-2.254-9.406c0.657-2.16,2.318-3.256,4.165-4.41
		c1.275-0.797,2.619-1.611,4.066-2.4c0.431-0.236,1.259-0.871,1.518-0.832c0.69,0.1,1.63,2.533,1.96,3.135
		c2.443,4.439,4.597,8.926,6.957,13.375c0.599,1.127,1.05,2.301,1.616,3.43c3.347,6.656,6.991,13.494,10.436,19.988
		c1.767,3.33,3.55,6.588,5.291,9.945C36.905,53.794,37.531,54.898,37.995,56.066z"/>
</g>
<g id="Layer_1">
</g>
</svg>
