<?xml version="1.0" encoding="iso-8859-1"?>
<!-- Generator: Adobe Illustrator 19.2.0, SVG Export Plug-In . SVG Version: 6.00 Build 0)  -->
<svg version="1.1" xmlns="http://www.w3.org/2000/svg" xmlns:xlink="http://www.w3.org/1999/xlink" x="0px" y="0px"
	 viewBox="0 0 63.261 80.502" style="enable-background:new 0 0 63.261 80.502;" xml:space="preserve">
<g id="William_x5F_Kreysler_x5F_Association">
	<path style="fill-rule:evenodd;clip-rule:evenodd;" d="M63.261,0.114c-0.379,1.091-1.251,1.863-1.835,2.826
		c-0.571,0.944-1.282,1.794-1.934,2.678c-3.253,4.419-6.631,8.777-9.867,13.239c-0.638,0.88-1.207,1.847-2.033,2.578
		c-6.214,0.081-12.854,0.049-19.338,0.05c-2.114,0.001-4.24,0.204-6.248-0.099c0.253-0.798,0.89-1.395,1.389-2.033
		c1.521-1.945,2.941-4.04,4.463-6.049c2.011-2.656,4.027-5.324,6.049-7.934c0.604-0.932,1.303-1.791,1.983-2.677
		c0.668-0.869,1.218-1.888,2.083-2.579C46.366,0.029,54.848-0.093,63.261,0.114z"/>
	<path style="fill-rule:evenodd;clip-rule:evenodd;" d="M21.412,0.163c0.273,6.732,0.144,14.452,0.1,21.223
		c-0.866,0.263-1.879,0.148-2.876,0.148c-0.989,0-2.018,0-3.024,0c-2.037,0-4.117-0.103-5.802,0.148
		c-0.167,12.09-0.101,24.555,0.049,36.99c0.926,0.271,1.968,0.149,2.976,0.149c2.038,0,3.867-0.05,5.9-0.05
		c0.982,0.001,2.013-0.115,2.926,0.148c1.922-0.263,4.224-0.148,6.347-0.148c6.204,0.002,12.762-0.1,19.388-0.05
		c0.002,0.049,0.061,0.039,0.1,0.05c2.784,3.414,5.234,7.161,7.982,10.611c1.271,1.821,2.648,3.533,3.918,5.354
		c0.694,0.863,1.359,1.752,2.032,2.629c0.341,0.443,0.561,0.968,0.893,1.438c0.312,0.444,0.794,0.848,0.843,1.438
		c-6.82,0.123-14.606,0.149-21.867,0.149c-0.989,0-2.405,0.237-3.224-0.05c-0.38-0.133-0.785-0.874-1.09-1.289
		c-2.356-3.199-4.783-6.074-7.091-9.322c-2.078-2.608-3.961-5.397-6.05-8.032c-0.681-0.859-1.215-1.879-2.083-2.579
		c-0.285,6.833,0.065,14.414-0.148,21.173c-1.615,0.26-3.448,0.148-5.256,0.149c-5.323,0.001-10.895,0.164-16.115-0.05
		C0.045,67.331,0.04,53.652,0.04,40.129c0.001-13.577-0.119-27.02,0.05-39.866c4.358-0.37,9.057,0.01,13.487-0.199
		C16.214-0.06,18.842,0.103,21.412,0.163z"/>
	<path style="fill-rule:evenodd;clip-rule:evenodd;" d="M45.807,23.716c0.058,0.455-0.354,0.773-0.595,1.091
		c-3.793,5.026-7.728,10.125-11.404,15.322c1.861,2.79,3.944,5.393,5.9,8.082c1.463,2.012,2.961,3.983,4.463,6
		c0.491,0.66,1.1,1.287,1.388,2.082c-0.887,0.267-1.873,0.149-2.875,0.149c-2.024,0-3.885-0.022-5.95,0
		c-0.773,0.008-2.271,0.251-2.926,0c-0.414-0.159-1.241-1.534-1.537-1.935c-2.971-4.015-5.979-7.864-8.876-11.9
		c-0.474-0.659-0.899-1.4-1.587-1.834c-0.327,5.009,0.099,10.623-0.198,15.619c-2.937,0.223-6.619,0.221-9.619,0.05
		c-0.269-1.206-0.148-2.595-0.148-4.017c-0.001-4.132-0.05-8.268-0.05-12.347c-0.001-4.091,0-8.145,0-12.297
		c0-1.346-0.12-2.711,0.148-4.017c1.527-0.152,3.189-0.078,4.81-0.1c1.634-0.021,3.342-0.103,4.81,0.149
		c0.277,4.966-0.091,10.479,0.198,15.52c0.447-0.021,0.673-0.496,0.894-0.793c2.685-3.612,5.488-7.317,8.23-10.958
		c1.006-1.336,1.893-2.762,3.074-3.918C37.852,23.654,41.947,23.499,45.807,23.716z"/>
</g>
<g id="Layer_1">
</g>
</svg>
