<?xml version="1.0" encoding="iso-8859-1"?>
<!-- Generator: Adobe Illustrator 19.2.0, SVG Export Plug-In . SVG Version: 6.00 Build 0)  -->
<svg version="1.1" xmlns="http://www.w3.org/2000/svg" xmlns:xlink="http://www.w3.org/1999/xlink" x="0px" y="0px"
	 viewBox="0 0 82.541 82.656" style="enable-background:new 0 0 82.541 82.656;" xml:space="preserve">
<g id="William_x5F_paton_x5F_Sales">
	<path style="fill-rule:evenodd;clip-rule:evenodd;" d="M82.365,0.449c0.268,1.686,0.15,3.421,0.15,5.12
		c-0.001,25.734,0.004,50.802-0.15,77.009c-9.215,0.175-18.604,0.002-28.113,0c-1.317,0-2.647,0.124-3.916-0.151
		c-0.264-0.826-0.15-1.743-0.15-2.661c0.001-5.551,0.05-11.087,0.05-16.616c0-1.267-0.189-2.506,0.653-2.761
		c0.641-0.194,1.611,0.463,2.209,0.703c2.028,0.813,4.562,1.538,7.479,1.405c3.741-0.17,6.432-1.386,8.735-3.163
		c2.242-1.73,4.114-3.871,5.271-6.626c1.157-2.756,1.587-6.729,0.603-10.04c-1.319-4.439-4.232-7.713-7.981-9.84
		c-1.307-0.741-2.561-1.383-4.217-1.707c-3.629-0.709-7.212-0.348-10.442,0.552c-3.098,0.864-5.564,2.289-8.133,3.715
		c-5.014,2.783-9.42,6.603-14.859,8.936c-1.427,0.612-2.95,1.202-4.518,1.456c-1.935,0.313-3.532-0.012-5.221-0.502
		c-2.87-0.833-5.043-2.904-6.326-5.522c-1.43-2.918-1.353-6.784,0.251-9.539c1.365-2.344,4.008-4.317,6.678-5.17
		c3.545-1.134,7.139,0.598,8.985,2.309c1.048,0.971,1.973,1.986,2.56,3.363c0.591,1.386,0.491,3.119,0.552,5.372
		c0.72,0.348,1.861,0.288,2.912,0.251c1.067-0.037,2.133-0.006,2.962-0.1c0.347-0.611,0.2-1.381,0.2-2.058
		c0.001-11.277,0.084-22.053-0.05-33.083C37.799,0.757,36.67,0.9,35.628,0.9c-1.052,0-2.123-0.069-2.963,0.101
		c-0.267,0.819-0.15,1.754-0.15,2.661c0.001,2.735-0.174,5.225-0.05,8.032c0.106,2.431,0.025,5.443,0.05,8.082
		c0.008,0.801,0.018,2.199-0.352,2.41c-0.529,0.302-1.548-0.471-2.058-0.753c-1.854-1.026-4.387-1.808-7.129-1.807
		c-3.925,0-6.694,1.159-9.186,2.711c-2.386,1.485-4.3,3.523-5.572,6.325c-1.153,2.538-2.033,6.481-1.104,10.09
		C8.649,44.727,12.948,49.255,18.91,50.8c3.461,0.897,7.337,0.423,10.241-0.552c2.929-0.983,5.386-2.575,7.932-3.966
		c5.203-2.842,9.82-6.205,15.361-8.484c2.571-1.057,6.607-2.273,9.89-1.205c2.844,0.926,5.216,2.822,6.526,5.372
		c1.46,2.839,1.301,6.959-0.101,9.689c-1.275,2.484-3.706,4.467-6.827,5.07c-3.925,0.759-7.026-0.496-9.086-2.41
		c-1.036-0.963-1.952-2.088-2.511-3.464c-0.587-1.446-0.35-3.179-0.603-5.321c-0.686-0.299-1.663-0.108-2.56-0.151
		c-0.878-0.042-1.776-0.139-2.511,0.05c-0.341,0.658-0.2,1.432-0.2,2.159c0,8.538-0.207,17.135,0,25.753
		c0.073,3.064,0.068,6.102-0.151,9.037c-1.698,0.37-3.562,0.064-5.472,0.15c-1.776,0.081-3.572,0.001-5.371,0
		c-11.341-0.001-22.339,0.054-33.333-0.251c-0.341-6.754,0.086-13.995-0.051-20.884c-0.136-6.854,0.172-13.676,0-20.783
		c-0.157-6.54,0.028-13.432,0-20.381c-0.012-3.015-0.13-6.861-0.05-10.04c0.064-2.505,0.05-5.969,0.05-9.036
		c0-0.867-0.055-1.002,0.452-1.104c0.598-0.12,1.705,0.024,2.459,0.05c2.361,0.082,5.159,0,7.682,0
		c17.128-0.001,34.466,0.152,51.606,0.15C68.752,0.247,75.813,0.249,82.365,0.449z"/>
</g>
<g id="Layer_1">
</g>
</svg>
