<?xml version="1.0" encoding="iso-8859-1"?>
<!-- Generator: Adobe Illustrator 19.2.0, SVG Export Plug-In . SVG Version: 6.00 Build 0)  -->
<svg version="1.1" xmlns="http://www.w3.org/2000/svg" xmlns:xlink="http://www.w3.org/1999/xlink" x="0px" y="0px"
	 viewBox="0 0 75.488 71.879" style="enable-background:new 0 0 75.488 71.879;" xml:space="preserve">
<g id="wolfgang_x5F_mirbach">
	<path style="fill-rule:evenodd;clip-rule:evenodd;" d="M19.693,0.112c0.375,7.339-0.068,15.623,0.245,23.188
		c0.542-0.256,0.843-0.85,1.174-1.32c0.342-0.487,0.692-0.995,0.979-1.517C26.262,14.72,30.143,8.687,34.271,2.9
		c0.689-0.957,1.214-2.079,2.104-2.837c9.985-0.045,19.242-0.128,28.96,0.049c0.279,1.044,0.129,2.147,0.147,3.229
		c0.051,3.137,0.049,6.504,0.049,9.882c0,6.794-0.049,13.718-0.049,20.497c0,6.861-0.038,13.358,0.147,19.911
		c2.972,0.324,6.612-0.113,9.686,0.195c0.266,1.393,0.147,2.901,0.147,4.402c0,4.415,0.081,9.203-0.098,13.502
		c-15.328,0.165-30.494,0.23-45.74,0c-0.306-4.465-0.026-9.171-0.147-13.502c-0.042-1.5-0.084-3.014,0.147-4.451
		c3.18-0.146,6.702,0.049,9.882-0.098c0.283-0.873,0.146-1.838,0.146-2.789c0-6.827,0.081-14.224-0.098-20.937
		c-0.365,0.024-0.565,0.437-0.734,0.685c-5.337,7.859-10.887,15.807-16.29,23.677c-0.605,0.88-1.205,1.753-1.81,2.642
		c-0.184,0.271-0.333,0.698-0.734,0.733c-0.256-9.104,0.073-19.246-0.196-28.617c-0.381,0.056-0.598,0.463-0.783,0.733
		c-3.029,4.417-6.065,8.99-9.099,13.453c-1.623,2.386-3.26,4.777-4.843,7.19c-1.392,2.122-2.734,4.241-4.207,6.36
		c-0.159,0.228-0.363,0.665-0.734,0.636c-0.049-9.527-0.098-19.08-0.098-28.716c0-8.476,0-16.748,0-25.144
		c0-1.152-0.12-2.344,0.147-3.474C6.665-0.015,13.072-0.057,19.693,0.112z"/>
</g>
<g id="Layer_1">
</g>
</svg>
