<?xml version="1.0" encoding="iso-8859-1"?>
<!-- Generator: Adobe Illustrator 21.0.2, SVG Export Plug-In . SVG Version: 6.00 Build 0)  -->
<svg version="1.1" xmlns="http://www.w3.org/2000/svg" xmlns:xlink="http://www.w3.org/1999/xlink" x="0px" y="0px"
	 viewBox="0 0 33.983 47.717" style="enable-background:new 0 0 33.983 47.717;" xml:space="preserve">
<g id="Women_x5F_and_x5F_Whiskies">
	<g>
		<path d="M32.006,0c0.618,0.011,1.236-0.002,1.854,0c-0.326,1.212-0.758,2.4-1.104,3.609c-0.75,2.38-1.501,4.758-2.229,7.145
			c-0.673,2.398-1.485,4.756-2.197,7.14c-0.958,2.949-1.888,5.905-2.82,8.861c-0.529,1.733-1.116,3.447-1.626,5.186
			c-0.018-0.001-0.053-0.003-0.07-0.004c-0.344-1.089-0.737-2.161-1.092-3.246c-0.547-1.632-1.065-3.273-1.641-4.894
			c-0.407-1.493-0.934-2.953-1.436-4.417c-0.133,0.18-0.151,0.41-0.223,0.616c-0.453,1.331-0.856,2.679-1.291,4.016
			c-0.071,0.126-0.029,0.27,0.016,0.397c0.902,2.755,1.848,5.492,2.732,8.253c0.954,3.075,2.035,6.112,3.027,9.176
			c0.373-0.955,0.614-1.955,0.96-2.919c1.776-5.671,3.597-11.33,5.368-17.003c0.103-0.38,0.273-0.741,0.327-1.134
			c0.53-1.62,1.05-3.243,1.546-4.874c0.618-0.075,1.253-0.019,1.878-0.039c-0.024,0.362-0.218,0.679-0.298,1.027
			c-0.519,1.762-1.132,3.492-1.659,5.251c-0.345,0.992-0.613,2.007-0.96,2.998c-0.165,0.609-0.415,1.192-0.537,1.814
			c-1.729,5.54-3.512,11.063-5.247,16.601c-0.186,0.393-0.238,0.832-0.412,1.231c-0.287,0.955-0.614,1.896-0.901,2.85
			c-0.561-1.564-1.044-3.154-1.589-4.722c-0.426-1.245-0.84-2.494-1.253-3.742c-0.084-0.437-0.258-0.848-0.378-1.275
			c-0.637-1.82-1.219-3.656-1.828-5.485c-0.597-1.748-1.182-3.5-1.746-5.258c-0.253,0.486-0.333,1.045-0.542,1.551
			c-1.561,5.044-3.178,10.066-4.77,15.1c-0.226,0.514-0.282,1.079-0.493,1.597c-0.117,0.337-0.171,0.693-0.319,1.02
			c-0.173,0.421-0.208,0.899-0.446,1.291c-0.418-1.265-0.84-2.528-1.256-3.793c-0.761-2.147-1.437-4.323-2.183-6.475
			c-1.083-3.272-2.178-6.539-3.26-9.812C3.207,25.63,2.579,23.6,1.882,21.594c-0.03-0.093-0.043-0.19-0.065-0.284
			c-0.56-1.715-1.151-3.422-1.702-5.14c0.617-0.009,1.237-0.017,1.851-0.012c2.31,6.867,4.587,13.745,6.881,20.617
			c0.568,1.724,1.175,3.435,1.722,5.166c0.214-0.378,0.25-0.823,0.412-1.222c0.207-0.668,0.449-1.328,0.603-2.011
			c1.173-3.674,2.336-7.353,3.499-11.03c0.35-1.156,0.754-2.297,1.07-3.464c-0.471-1.632-1.07-3.234-1.611-4.848
			c-0.949,2.819-1.806,5.668-2.713,8.5c-0.294,0.815-0.457,1.673-0.757,2.487c-0.159,0.59-0.385,1.159-0.54,1.75
			c-0.088-0.084-0.092-0.213-0.137-0.319c-0.96-2.776-1.839-5.579-2.805-8.353c-0.708-2.265-1.532-4.493-2.248-6.756
			c-0.524-1.655-1.11-3.289-1.637-4.944C3.079,9.74,2.373,7.771,1.751,5.775C1.713,5.515,1.627,5.266,1.536,5.02
			C1.039,3.441,0.469,1.884,0,0.297c0.615-0.015,1.231-0.002,1.847-0.008c0.822,2.59,1.722,5.152,2.537,7.744
			c0.778,2.299,1.516,4.61,2.275,6.916c0.66,1.892,1.234,3.813,1.915,5.698c0.646,1.877,1.234,3.773,1.885,5.649
			c0.754-2.259,1.366-4.563,2.141-6.814c0.09-0.254,0.133-0.523,0.235-0.773c0.201-0.453,0.261-0.953,0.457-1.409
			c0.318-1.108,0.707-2.194,1.018-3.305c0.208-0.462,0.272-0.972,0.47-1.437c0.312-1.116,0.702-2.208,1.009-3.325
			c0.088-0.291,0.285-0.586,0.214-0.897c-0.688-2.067-1.336-4.148-2.054-6.205c-0.187-0.654-0.46-1.285-0.614-1.946
			c0.615-0.044,1.242-0.031,1.862-0.04c0.168,0.373,0.25,0.777,0.404,1.155c0.403,1.377,0.908,2.721,1.338,4.089
			c0.016-0.004,0.048-0.012,0.064-0.016c0.551-1.755,1.092-3.513,1.656-5.264c0.625,0.004,1.25-0.012,1.874,0.007
			c-0.836,2.787-1.747,5.555-2.588,8.341c0.72,2.134,1.395,4.284,2.111,6.419c0.31,0.91,0.621,1.822,0.88,2.746
			c0.375,1.282,0.862,2.53,1.27,3.803c0.526,1.58,1.032,3.167,1.586,4.738c0.479-1.431,0.917-2.872,1.373-4.311
			c1.083-3.351,2.128-6.713,3.184-10.073c0.756-2.509,1.593-4.994,2.299-7.52C31.119,2.846,31.514,1.406,32.006,0z M16.977,11.491
			c-0.407,1.451-0.918,2.87-1.322,4.322c-0.071,0.249-0.263,0.498-0.135,0.764c0.537,1.555,1.022,3.128,1.583,4.674
			c0.523-1.614,1.052-3.223,1.549-4.845c-0.515-1.642-1.094-3.263-1.609-4.905C17.026,11.499,16.993,11.494,16.977,11.491z"/>
	</g>
</g>
<g id="Layer_1">
</g>
</svg>
