<?xml version="1.0" encoding="iso-8859-1"?>
<!-- Generator: Adobe Illustrator 19.2.0, SVG Export Plug-In . SVG Version: 6.00 Build 0)  -->
<svg version="1.1" xmlns="http://www.w3.org/2000/svg" xmlns:xlink="http://www.w3.org/1999/xlink" x="0px" y="0px"
	 viewBox="0 0 81.52 55.149" style="enable-background:new 0 0 81.52 55.149;" xml:space="preserve">
<g id="Wood_x5F_Lighting_x5F_Industries">
	<path style="fill-rule:evenodd;clip-rule:evenodd;" d="M81.52,0.091c-0.127,0.591-0.68,0.97-1.069,1.375
		c-2.813,2.929-5.845,5.845-8.76,8.76c-9.998,9.997-20.047,20.115-30.152,30.049c-3.903,3.907-7.842,7.777-11.816,11.613
		c-0.547,0.556-0.961,1.245-1.783,1.528c-0.154-5.767-0.102-11.757-0.102-18.081c0-0.89-0.136-1.871,0.051-2.598
		c0.169-0.656,1.327-1.582,1.935-2.19c3.357-3.356,6.779-6.74,10.288-10.084c1.424-1.357,2.721-2.823,4.024-4.125
		c4.636-4.636,9.714-9.308,14.311-14.21c0.606-0.646,1.424-1.848,2.037-2.037c0.549-0.17,1.493-0.051,2.343-0.051
		c2.354,0,4.903,0,7.13,0C74.041,0.04,78.035-0.022,81.52,0.091z"/>
	<path style="fill-rule:evenodd;clip-rule:evenodd;" d="M29.366,0.143c0.012,0.486-0.483,0.737-0.764,1.018
		c-2.095,2.095-4.231,4.332-6.366,6.468c-2.45,2.45-4.938,4.876-7.283,7.385C10.422,19.651,5.756,24.16,1.15,28.766
		c-0.291,0.291-0.609,0.717-1.07,0.764C-0.013,21.408,0.03,12.336,0.03,3.707c0-0.995-0.108-3.069,0.153-3.564
		C0.22,0.095,0.275,0.065,0.336,0.04C9.994,0.106,19.919-0.092,29.366,0.143z"/>
	<path style="fill-rule:evenodd;clip-rule:evenodd;" d="M55.494,0.143c0.038,0.458-0.469,0.658-0.713,0.916
		c-5.275,5.58-10.975,10.924-16.451,16.4c-1.156,1.155-2.21,2.404-3.412,3.514c-2.387,2.202-4.682,4.529-6.978,6.825
		c-2.303,2.303-4.542,4.71-6.927,6.927c-2.403,2.233-4.533,4.67-6.875,6.927c-4.391,4.229-8.62,8.64-13.038,12.885
		c-0.252,0.242-0.561,0.629-0.967,0.611c-0.291-5.784,0.015-12.113-0.051-18.131c-0.009-0.861-0.177-1.794,0-2.496
		c0.172-0.682,1.426-1.681,2.038-2.292c2.151-2.152,4.396-4.428,6.468-6.418c1.46-1.403,2.835-2.918,4.329-4.278
		c1.523-1.387,2.833-2.905,4.227-4.38c2.839-3.003,5.959-5.631,8.658-8.557c1.372-1.486,2.899-2.848,4.329-4.278
		c1.42-1.42,2.772-2.937,4.33-4.227C41.084,0.033,48.819-0.032,55.494,0.143z"/>
</g>
<g id="Layer_1">
</g>
</svg>
