<?xml version="1.0" encoding="iso-8859-1"?>
<!-- Generator: Adobe Illustrator 19.2.0, SVG Export Plug-In . SVG Version: 6.00 Build 0)  -->
<svg version="1.1" xmlns="http://www.w3.org/2000/svg" xmlns:xlink="http://www.w3.org/1999/xlink" x="0px" y="0px"
	 viewBox="0 0 90.122 44.488" style="enable-background:new 0 0 90.122 44.488;" xml:space="preserve">
<g id="Works_x5F_Management_x5F_Magazine_x5F_63">
	<path style="fill-rule:evenodd;clip-rule:evenodd;" d="M4.834,0C5.2-0.011,5.491,0.847,5.718,1.351
		c3.176,7.066,6.365,13.875,9.666,20.841c0.21,0.442,0.402,1.003,0.832,1.299c0.514-0.259,0.648-0.893,0.883-1.352
		c1.472-2.864,3.069-5.911,4.522-8.835c0.252-0.504,0.402-1.023,0.625-1.56c0.811-1.956,1.973-3.807,2.91-5.717
		c0.717-1.462,1.439-2.883,2.131-4.366c0.207-0.444,0.401-0.998,0.831-1.299c0.728,0.746,0.969,1.781,1.403,2.703
		c2.127,4.51,4.38,9.213,6.549,13.825c0.865,1.84,1.844,3.644,2.547,5.561c-0.651,1.851-1.63,3.555-2.443,5.301
		c-0.408,0.877-0.853,1.74-1.299,2.599c-0.432,0.831-0.704,1.793-1.403,2.442c-0.717-0.8-1.032-1.89-1.507-2.858
		c-0.941-1.917-1.873-3.9-2.807-5.872c-0.457-0.963-0.838-1.998-1.508-2.807c-0.697,0.555-1.037,1.581-1.455,2.443
		c-1.233,2.548-2.525,5.211-3.846,7.691c-0.356,1.462-1.123,2.618-1.767,3.898c-1.223,2.432-2.375,4.878-3.586,7.328
		c-0.227,0.457-0.396,1.026-0.831,1.351c-0.401-0.125-0.526-0.615-0.676-0.936c-1.14-2.431-2.316-5.014-3.534-7.484
		c-0.703-1.426-1.268-2.926-1.975-4.366C7.223,25.568,4.62,19.778,1.923,14.033C1.251,12.602,0.341,11.246,0,9.667
		c0.97-2.451,2.284-4.788,3.482-7.172c0.409-0.813,0.75-1.749,1.195-2.391C4.716,0.056,4.773,0.026,4.834,0z"/>
	<path style="fill-rule:evenodd;clip-rule:evenodd;" d="M51.297,0.624c0.045-0.009,0.049,0.021,0.052,0.052
		c0.536,0.692,0.869,1.527,1.248,2.339c0.737,1.583,1.412,3.129,2.234,4.833c0.344,0.713,1.092,1.73,1.092,2.442
		c0,0.529-0.664,1.58-0.988,2.235c-4.936,9.983-9.769,19.951-14.811,29.832c-0.352,0.689-0.572,1.483-1.144,2.027
		c-0.447-0.182-0.548-0.706-0.728-1.091c-1.288-2.768-2.803-5.583-3.95-8.523c0.485-1.538,1.343-2.91,2.027-4.366
		c1.993-4.239,4.224-8.4,6.341-12.681c2.383-4.819,4.864-9.928,7.38-14.864c0.369-0.725,0.679-1.544,1.092-2.131
		C51.18,0.679,51.235,0.649,51.297,0.624z"/>
	<path style="fill-rule:evenodd;clip-rule:evenodd;" d="M74.061,0.624c0.484,0.143,0.894,1.371,1.196,2.027
		c4.269,9.273,8.82,18.259,12.992,27.702c0.273,0.617,0.66,1.305,1.04,2.079c0.361,0.736,0.868,1.712,0.831,2.287
		c-0.048,0.752-0.797,1.809-1.144,2.546c-0.799,1.699-1.577,3.242-2.39,4.885c-0.402,0.812-0.678,1.695-1.3,2.339
		c-0.525-0.249-0.625-0.896-0.832-1.351c-0.652-1.436-1.363-2.97-2.078-4.47c-2.348-4.924-4.543-9.966-6.965-14.864
		c-0.47-0.951-0.8-1.999-1.507-2.806c-0.533,0.246-0.647,0.881-0.884,1.351c-1.674,3.335-3.351,6.82-5.041,10.239
		c-0.951,1.924-2.116,3.872-2.858,5.873c-0.577,1.555-1.35,2.994-2.079,4.47c-0.225,0.453-0.383,1.04-0.832,1.352
		c-0.46-0.246-0.614-0.816-0.831-1.248c-0.676-1.343-1.244-2.754-1.923-4.158c-1.766-3.648-3.443-7.206-5.197-11.018
		c-0.603-1.309-1.211-2.74-1.923-4.158c-0.275-0.547-0.616-0.977-0.624-1.404c-0.016-0.785,0.79-1.948,1.144-2.65
		c0.887-1.763,1.695-3.311,2.547-5.041c0.411-0.838,0.667-1.754,1.299-2.443c0.508,0.22,0.561,0.894,0.831,1.352
		c1.175,2.514,2.467,5.069,3.639,7.588c0.385,0.828,0.687,1.719,1.3,2.391c0.602-0.458,0.89-1.258,1.246-1.923
		c0.552-1.024,0.896-2.049,1.404-3.223c0.607-1.406,1.495-2.828,2.234-4.366c1.423-2.957,2.88-5.841,4.365-8.783
		c0.757-1.497,1.285-3.189,2.132-4.418C73.863,0.765,73.984,0.678,74.061,0.624z"/>
</g>
<g id="Layer_1">
</g>
</svg>
