<?xml version="1.0" encoding="iso-8859-1"?>
<!-- Generator: Adobe Illustrator 19.2.0, SVG Export Plug-In . SVG Version: 6.00 Build 0)  -->
<svg version="1.1" xmlns="http://www.w3.org/2000/svg" xmlns:xlink="http://www.w3.org/1999/xlink" x="0px" y="0px"
	 viewBox="0 0 73.58 75.641" style="enable-background:new 0 0 73.58 75.641;" xml:space="preserve">
<g id="World_x5F_Power_x5F_Conference">
	<path style="fill-rule:evenodd;clip-rule:evenodd;" d="M38.824,0.002c0.042-0.009,0.047,0.019,0.049,0.049
		c0.337,4.872,0.085,10.332,0.295,15.294c0.019,0.452-0.085,0.936,0.146,1.373c0.572-1.15,0.945-2.465,1.275-3.774
		c0.659-2.62,1.381-5.321,2.107-7.941c0.363-1.31,0.577-2.66,1.177-3.824c-0.28,5.308-1.494,10.369-1.667,15.785
		c0.554-0.461,0.707-1.226,0.98-1.863c1.635-3.813,3.304-7.933,5-11.814c0.267-0.611,0.477-1.294,0.932-1.765
		c-1.18,5.765-3.037,10.852-4.216,16.618c0.293,0.209,0.475-0.404,0.686-0.588c1.959-3.352,3.999-6.66,6.029-10
		c0.658-1.082,1.255-2.244,2.107-3.186c-0.315,1.312-0.885,2.546-1.422,3.725c-0.549,1.21-1.01,2.42-1.519,3.628
		c-1.011,2.394-2.205,4.717-2.941,7.353c0.514-0.083,0.782-0.615,1.078-0.981c2.148-2.655,4.574-5.366,6.667-8.137
		c0.961-0.917,1.607-2.151,2.696-2.941c-1.129,2.505-2.649,4.686-4.021,6.961c-1.025,1.702-2.01,3.417-3.039,5.196
		c-0.329,0.57-0.814,1.115-0.882,1.813c0.618-0.243,1.097-0.74,1.568-1.176c1.397-1.29,2.826-2.654,4.265-3.971
		c0.977-0.854,1.866-1.795,2.893-2.598c0.911-0.854,1.825-1.964,2.892-2.5c-2.257,3.328-4.974,6.225-7.402,9.412
		c-0.804,1.054-1.727,2.041-2.354,3.235c0.681-0.114,1.217-0.615,1.765-0.98c2.772-1.848,5.598-3.833,8.383-5.785
		c1.113-0.78,2.184-1.643,3.432-2.206c-0.795,1.124-1.894,1.971-2.893,2.893c-1.004,0.927-2.007,1.848-2.99,2.794
		c-1.963,1.892-4.07,3.644-5.833,5.735c0.718,0.037,1.304-0.442,1.911-0.735c4.257-2.048,8.414-4.329,12.795-6.275
		c-0.355,0.573-0.995,0.898-1.52,1.274c-3.17,2.272-6.602,4.502-9.756,6.912c-0.513,0.392-1.135,0.705-1.47,1.274
		c0.644,0.068,1.27-0.243,1.862-0.441c4.223-1.418,8.619-2.953,12.893-4.363c-0.944,0.967-2.269,1.482-3.48,2.107
		c-3.036,1.568-6.106,3.104-9.167,4.706c-0.571,0.299-1.228,0.591-1.666,1.079c1.366,0.062,2.718-0.328,4.068-0.588
		c1.36-0.262,2.755-0.464,4.117-0.735c2.694-0.536,5.357-1.204,7.99-1.568c0.071,0.244-0.397,0.332-0.686,0.441
		c-2.189,0.833-4.526,1.666-6.814,2.451c-1.311,0.45-2.69,0.834-3.971,1.324c-1.305,0.499-2.658,0.822-3.774,1.52
		c0.489,0.256,1.087,0.16,1.618,0.147c4.759-0.114,9.45-0.548,14.216-0.588c-0.515,0.357-1.198,0.457-1.814,0.588
		c-1.903,0.407-3.971,0.768-6.03,1.177c-2.684,0.532-5.44,0.939-7.941,1.618c0.483,0.382,1.21,0.383,1.814,0.441
		c4.727,0.454,9.708,0.813,14.313,1.373c-0.441,0.342-1.199,0.268-1.912,0.294c-3.271,0.122-6.913,0.503-10.343,0.54
		c-1.386,0.015-2.779,0.017-4.02,0.343c0.512,0.41,1.238,0.521,1.862,0.686c1.96,0.52,3.998,0.966,6.029,1.471
		c2.705,0.671,5.461,1.244,7.991,2.059c-0.206,0.289-0.634,0.12-0.883,0.098c-2.18-0.194-4.557-0.452-6.765-0.637
		c-2.603-0.219-5.197-0.589-7.794-0.588c0.396,0.553,1.127,0.686,1.715,0.931c3.575,1.49,7.441,3.002,11.03,4.608
		c0.584,0.262,1.297,0.353,1.715,0.882c-4.053-0.886-7.96-1.835-11.911-2.843c-1.31-0.333-2.603-0.747-3.971-0.833
		c0.244,0.477,0.798,0.673,1.225,0.932c3.005,1.819,6.183,3.692,9.313,5.441c1.042,0.837,2.6,1.159,3.383,2.255
		c-3.859-1.37-7.48-2.815-11.226-4.314c-1.224-0.489-2.427-1.126-3.775-1.373c0.227,0.564,0.82,0.951,1.324,1.373
		c0.512,0.429,1.086,0.816,1.519,1.275c2.367,1.799,4.651,3.697,7.01,5.539c0.772,0.603,1.619,1.169,2.206,1.961
		c-2.47-1.067-4.644-2.611-6.961-3.873c-1.155-0.629-2.296-1.297-3.432-1.961c-1.122-0.656-2.227-1.401-3.48-1.814
		c0.215,0.633,0.78,1.075,1.226,1.52c1.34,1.34,2.647,2.794,4.02,4.167c1.822,1.822,3.646,3.644,5.344,5.588
		c-0.652-0.167-1.192-0.633-1.716-1.029c-2.604-1.971-5.229-4.08-7.844-6.127c-1.039-0.815-2.098-1.686-3.284-2.304
		c0.493,1.273,1.42,2.297,2.157,3.382c2.21,3.255,4.811,6.252,6.912,9.706c-0.836-0.486-1.488-1.243-2.157-1.912
		c-2-2-4.025-4.068-6.029-6.128c-0.936-0.861-1.638-1.957-2.746-2.647c0.085,0.653,0.454,1.24,0.736,1.814
		c1.997,4.07,4.424,7.934,6.372,12.108c-0.982-0.838-1.711-1.959-2.5-2.99c-0.788-1.029-1.529-2.106-2.304-3.137
		c-0.862-0.95-1.561-2.044-2.354-3.088c-0.775-1.023-1.404-2.224-2.45-2.99c0.153,1.282,0.692,2.477,1.127,3.677
		c0.427,1.174,0.905,2.351,1.323,3.529c0.846,2.381,1.819,4.712,2.451,7.157c-0.864-0.983-1.336-2.232-1.961-3.383
		c-1.227-2.26-2.582-4.505-3.823-6.813c-0.612-1.14-1.148-2.34-1.961-3.333c-0.203,0.677,0.116,1.351,0.245,2.01
		c0.91,4.652,2.19,9.258,2.941,13.922c-0.748-1.125-1.046-2.488-1.52-3.774c-1.169-3.171-2.39-6.372-3.628-9.608
		c-0.224-0.584-0.421-1.258-0.882-1.715c-0.232,0.433-0.027,0.991,0,1.421c0.308,4.869,0.792,9.775,0.932,14.706
		c-0.377-0.516-0.444-1.195-0.589-1.814c-0.448-1.911-0.853-3.898-1.323-5.882c-0.312-1.316-0.517-2.666-0.834-3.971
		c-0.313-1.29-0.458-2.635-1.029-3.774c-0.397,1.19-0.334,2.541-0.441,3.873c-0.314,3.902-0.474,8.188-0.882,12.059
		c-0.422-1.209-0.429-2.598-0.49-3.971c-0.124-2.729-0.383-5.562-0.638-8.284c-0.126-1.348-0.077-2.723-0.49-3.922
		c-0.379,0.509-0.45,1.189-0.588,1.814c-0.836,3.789-1.693,7.866-2.451,11.765c-0.121,0.625-0.152,1.305-0.539,1.814
		c0.018-5.326,0.752-10.196,0.687-15.442c-0.663,0.721-0.843,1.786-1.177,2.746c-0.33,0.949-0.846,1.872-1.078,2.843
		c-0.201,0.835-0.4,1.587-0.687,2.402c-0.517,1.469-1.027,3.014-1.569,4.51c-0.263,0.728-0.463,1.511-0.931,2.108
		c0.794-5.399,2.099-10.287,2.892-15.687c-0.376,0.005-0.494,0.439-0.637,0.687c-1.19,2.053-2.268,4.343-3.432,6.471
		c-1.349,2.465-2.488,5.078-4.019,7.304c1.125-3.787,2.573-7.547,3.922-11.373c0.444-1.26,0.922-2.523,1.177-3.824
		c-0.374-0.006-0.511,0.403-0.687,0.637c-2.572,3.416-5.146,7.086-7.696,10.588c-0.368,0.506-0.632,1.177-1.226,1.471
		c1.663-3.736,3.615-7.153,5.441-10.784c0.6-1.194,1.267-2.382,1.716-3.677c-0.59,0.171-1.009,0.812-1.471,1.274
		c-1.39,1.39-2.809,2.879-4.167,4.363c-0.904,0.987-1.828,1.979-2.696,2.991c-0.872,1.016-1.817,1.963-2.843,2.794
		c0.64-1.246,1.447-2.419,2.255-3.53c0.819-1.125,1.573-2.255,2.352-3.382c1.56-2.255,3.28-4.397,4.608-6.863
		c-0.755,0.165-1.228,0.757-1.765,1.176c-0.537,0.419-1.129,0.784-1.618,1.275c-1.609,1.313-3.314,2.506-4.902,3.823
		c-1.58,1.312-3.115,2.696-4.901,3.775c1.644-2.098,3.57-3.913,5.343-5.883c0.905-0.974,1.825-1.933,2.745-2.892
		c0.84-1.023,1.874-1.851,2.599-2.99c-0.687,0.057-1.255,0.51-1.814,0.834c-1.704,0.987-3.433,2.039-5.146,3.088
		c-2.278,1.394-4.593,2.746-7.011,3.971c1.934-1.944,4.234-3.5,6.324-5.295c1.037-0.89,2.117-1.74,3.187-2.598
		c1.059-0.85,2.149-1.722,3.039-2.745c-0.694-0.026-1.315,0.327-1.912,0.588c-4.16,1.821-8.404,3.656-12.745,5.343
		c-0.056-0.194,0.385-0.418,0.638-0.588c0.773-0.522,1.755-1.116,2.598-1.568c2.565-1.603,5.189-3.207,7.794-4.804
		c0.852-0.521,1.807-0.945,2.451-1.716c-1.341,0.146-2.645,0.495-3.921,0.833c-3.787,1.004-7.547,2.065-11.52,2.892
		c0.547-0.5,1.29-0.779,1.961-1.079c0.705-0.315,1.445-0.549,2.157-0.833c1.738-0.696,3.456-1.529,5.196-2.255
		c1.747-0.729,3.48-1.497,5.098-2.353c-0.598-0.248-1.289-0.061-1.911,0c-4.517,0.444-9.181,1.157-13.727,1.422
		c0.503-0.415,1.194-0.484,1.813-0.638c3.121-0.769,6.33-1.695,9.461-2.549c1.256-0.342,2.576-0.502,3.677-1.128
		c-1.127-0.402-2.461-0.231-3.774-0.294c-3.84-0.183-8.081,0.009-11.814-0.343c0.513-0.364,1.238-0.378,1.863-0.441
		c3.356-0.34,6.906-0.755,10.246-1.275c1.327-0.206,2.701-0.222,3.921-0.637c-0.129-0.37-0.608-0.288-0.882-0.343
		C10.38,36.284,4.791,35.615,0,34.464c3.683-0.164,7.47,0.104,11.324,0.196c1.616,0.039,3.186,0.165,4.607-0.049
		c-0.463-0.483-1.199-0.588-1.814-0.784c-4.104-1.308-8.339-2.75-12.5-4.069c-0.242-0.077-0.669-0.117-0.735-0.441
		c5.21,0.607,10.079,1.816,15.294,2.255c-0.35-0.513-1.009-0.752-1.568-1.03c-3.834-1.907-7.946-3.782-11.765-5.784
		c-0.24-0.125-0.648-0.201-0.687-0.539c3.979,1.208,7.811,2.396,11.765,3.676c1.316,0.426,2.63,0.869,4.02,1.127
		c-0.34-0.63-1.045-0.944-1.617-1.323c-2.854-1.896-5.809-3.91-8.677-5.883c-1.153-0.793-2.405-1.415-3.334-2.402
		c3.902,1.562,7.343,3.642,11.128,5.343c1.245,0.56,2.461,1.29,3.824,1.666c-0.001-0.335-0.398-0.544-0.638-0.784
		c-0.25-0.25-0.472-0.543-0.735-0.735c-1.6-1.358-3.028-2.887-4.657-4.216c-0.999-0.977-2.063-1.893-3.088-2.843
		c-1.023-0.948-2.24-1.72-3.039-2.892c1.239,0.544,2.287,1.411,3.383,2.157c2.193,1.494,4.429,2.914,6.666,4.412
		c1.099,0.735,2.142,1.614,3.383,2.157c-0.113-0.696-0.71-1.153-1.128-1.666c-2.128-2.614-4.395-5.241-6.617-7.843
		c-0.888-1.039-1.896-2.017-2.55-3.235c2.279,1.725,4.269,3.738,6.373,5.637c1.107,0.886,2.138,1.85,3.187,2.794
		c1.044,0.939,2.045,1.962,3.284,2.696c-0.055-0.754-0.66-1.277-1.029-1.863c-2.663-4.229-5.418-8.48-7.99-12.843
		c1.111,0.876,1.949,2.044,2.843,3.137c0.886,1.082,1.854,2.108,2.745,3.186c1.335,1.639,2.741,3.207,4.118,4.804
		c0.533,0.447,0.823,1.137,1.52,1.421c-0.333-1.398-1.008-2.647-1.568-3.922c-1.645-3.732-3.434-7.444-5-11.372
		c0.358-0.104,0.514,0.394,0.637,0.588c2.005,3.148,4.036,6.371,6.029,9.559c0.729,1.165,1.358,2.397,2.305,3.333
		c-0.115-1.341-0.554-2.651-0.932-3.921c-0.381-1.279-0.714-2.557-1.079-3.824c-0.733-2.549-1.646-5.033-2.107-7.647
		c0.51,0.437,0.703,1.125,0.98,1.716c1.388,2.961,2.771,6.129,4.118,9.167c0.535,1.207,1.012,2.47,1.813,3.481
		c0.108-2.754-0.457-5.404-0.834-8.039c-0.373-2.612-0.886-5.221-1.029-7.893c0.469,0.868,0.744,1.899,1.029,2.892
		c0.765,2.656,1.445,5.563,2.255,8.235c0.221,0.726,0.474,1.443,0.686,2.157c0.207,0.692,0.315,1.467,0.785,2.01
		c0.202-0.372,0.196-0.817,0.195-1.226c-0.015-5.017-0.224-10.007-0.146-15.147c0.416,0.519,0.391,1.268,0.49,1.912
		c0.304,1.971,0.657,4.067,0.98,6.128c0.434,2.764,0.686,5.571,1.422,8.039c0.376-0.524,0.345-1.241,0.441-1.862
		c0.713-4.557,1.197-9.628,2.01-14.118C38.771,0.08,38.767,0.01,38.824,0.002z M36.275,21.228c-0.198,0.519-0.247,1.201-0.343,1.863
		c-0.094,0.648-0.083,1.397-0.49,1.765c-0.291-0.416-0.463-1.002-0.638-1.569c-0.168-0.546-0.227-1.271-0.637-1.569
		c-0.389,0.936,0.082,2.729-0.393,3.579c-0.92-0.812-1.021-2.443-1.911-3.284c-0.35,1.082,0.472,2.536,0,3.578
		c-1.066-0.683-1.188-2.309-2.207-3.039c-0.026,0.648,0.166,1.319,0.344,1.961c0.167,0.603,0.577,1.28,0.245,1.863
		c-0.983-0.667-1.442-1.859-2.5-2.451c0.174,1.028,0.615,1.932,0.98,2.795c0.102,0.239,0.433,0.634,0.098,0.882
		c-1.013-0.556-1.616-1.52-2.696-2.01c0.157,1.215,1.419,2.045,1.52,3.236c-1.238-0.315-2.074-1.454-3.382-1.863
		c0.336,1.184,1.608,1.854,2.059,3.088c-1.283,0.008-2.018-0.955-3.284-1.128c0.523,1.161,1.823,1.544,2.353,2.696
		c-1.14,0.101-2.168-0.733-3.48-0.785c0.24,0.576,0.834,0.893,1.324,1.226c0.498,0.338,1.131,0.593,1.372,1.176
		c-1.406,0.064-2.697-0.405-4.167-0.441c-0.007,0.384,0.438,0.533,0.735,0.687c0.682,0.352,1.38,0.713,2.011,1.029
		c0.315,0.159,0.833,0.238,0.833,0.637c-0.969,0.273-2.555-0.07-3.529,0.196c0.284,0.484,0.981,0.578,1.568,0.784
		c0.578,0.204,1.322,0.243,1.617,0.735c-0.935,0.487-2.487,0.356-3.529,0.735c0.346,0.484,1.141,0.408,1.814,0.54
		c0.678,0.132,1.45,0.176,1.813,0.588c-0.992,0.692-2.76,0.607-3.726,1.324c0.928,0.461,2.773,0.004,3.726,0.441
		c-0.409,0.486-1.127,0.701-1.765,0.98c-0.627,0.274-1.388,0.445-1.765,0.98c0.604,0.211,1.353-0.026,2.059-0.098
		c0.729-0.074,1.502-0.242,2.059,0c-0.857,1.104-2.535,1.386-3.382,2.5c0.646,0.087,1.306-0.188,1.961-0.343
		c0.63-0.15,1.321-0.471,1.862-0.246c-0.684,1.098-2.042,1.52-2.696,2.647c1.349-0.141,2.519-1.138,3.873-1.274
		c-0.211,0.802-0.991,1.035-1.323,1.716c-0.46,0.57-1.115,0.943-1.373,1.715c1.505-0.374,2.441-1.578,3.873-1.862
		c-0.375,1.275-1.424,1.877-1.766,3.186c1.221-0.463,1.826-1.54,3.04-2.01c0.097,0.61-0.336,1.166-0.589,1.716
		c-0.268,0.583-0.638,1.135-0.735,1.813c0.673-0.195,0.99-0.825,1.422-1.274c0.425-0.442,0.809-1.034,1.471-1.226
		c-0.098,1.424-0.898,2.564-1.078,4.069c0.291,0.049,0.466-0.32,0.637-0.539c0.348-0.445,0.707-0.87,0.883-1.422
		c0.414-0.321,0.494-0.976,1.078-1.128c0.245,1.171-0.547,2.386-0.343,3.677c0.895-0.707,1.011-2.192,1.911-2.893
		c0.48,1.11-0.28,2.837,0.245,3.873c0.725-1.009,0.827-2.638,1.667-3.53c0.444,0.782,0.104,2.347,0.588,3.088
		c0.764-0.642,0.396-2.416,1.128-3.088c0.643,0.975,0.521,2.713,1.226,3.627c0.429-0.976,0.094-2.717,0.588-3.627
		c0.802,0.735,0.815,2.258,1.618,2.99c0.389-1.001-0.36-2.608,0.196-3.333c0.908,0.79,1.154,2.245,2.107,2.99
		c0.183-1.297-0.729-2.437-0.441-3.676c1.165,0.795,1.604,2.317,2.794,3.088c-0.107-1.118-0.611-2.066-0.931-2.99
		c-0.098-0.281-0.308-0.717-0.05-0.98c1.175,0.704,1.751,2.008,2.991,2.647c-0.103-0.76-0.561-1.336-0.883-1.961
		c-0.309-0.597-0.81-1.226-0.687-1.96c1.215,0.453,1.932,1.663,3.138,1.96c-0.146-0.631-0.592-1.078-0.932-1.569
		c-0.325-0.469-0.844-0.913-0.833-1.568c1.242,0.342,1.979,1.19,3.235,1.52c-0.357-1.212-1.798-1.764-2.304-2.99
		c1.553,0.017,2.608,1.214,4.166,1.226c-0.865-1.194-2.329-1.789-3.186-2.99c0.549-0.22,1.237,0.051,1.862,0.196
		c0.655,0.152,1.311,0.444,1.961,0.343c-0.311-0.546-1.003-0.799-1.568-1.127c-0.556-0.322-1.264-0.697-1.472-1.176
		c1.257-0.178,3.041,0.44,4.412,0.147c-0.474-0.477-1.232-0.742-1.911-1.029c-0.703-0.298-1.527-0.457-1.961-1.03
		c0.829-0.461,2.573-0.008,3.333-0.539c-0.44-0.355-1.128-0.428-1.765-0.588c-0.634-0.16-1.349-0.264-1.716-0.686
		c0.47-0.283,1.155-0.405,1.814-0.539c0.655-0.134,1.424-0.1,1.813-0.539c-0.492-0.222-1.196-0.224-1.863-0.294
		c-0.654-0.069-1.419-0.038-1.765-0.441c1.062-0.703,2.717-0.813,3.677-1.618c-0.96-0.244-2.329,0.024-3.333,0
		c-0.226-0.005-0.597,0.021-0.686-0.245c0.993-0.755,2.366-1.13,3.235-2.01c-0.542-0.16-1.221,0.084-1.863,0.196
		c-0.647,0.113-1.353,0.346-1.862,0.098c0.371-0.618,1.126-0.939,1.716-1.373c0.598-0.44,1.272-0.834,1.568-1.421
		c-1.102,0.17-2.167,0.535-3.138,0.834c-0.28,0.086-0.674,0.403-0.931,0.098c0.658-1.139,1.894-1.701,2.549-2.843
		c-0.999,0.101-1.969,0.784-2.844,1.176c-0.265,0.119-0.676,0.387-0.931,0.147c0.554-1.211,1.601-1.928,2.107-3.186
		c-0.665,0.127-1.122,0.591-1.617,0.931c-0.502,0.345-1.013,0.793-1.667,0.833c0.395-1.354,1.43-2.329,1.716-3.628
		c-0.618,0.326-1.106,0.784-1.618,1.226c-0.503,0.434-0.887,1.08-1.617,1.275c0.135-1.355,1.023-2.374,1.226-3.824
		c-0.598,0.297-0.998,0.899-1.422,1.422c-0.425,0.524-0.808,1.177-1.422,1.373c-0.155-0.502,0.106-1.131,0.245-1.716
		c0.142-0.595,0.432-1.25,0.196-1.716c-0.397,0.421-0.714,0.958-1.029,1.471c-0.309,0.501-0.558,1.139-1.128,1.373
		c-0.195-1.228,0.312-2.431,0.147-3.628c-0.534,0.305-0.658,1.004-0.931,1.569c-0.134,0.276-0.317,0.553-0.441,0.834
		c-0.117,0.264-0.15,0.725-0.539,0.735c-0.441-0.77-0.011-2.408-0.393-3.235c-0.712,0.791-0.556,2.451-1.323,3.186
		c-0.535-1.051-0.403-2.766-0.883-3.873c-0.05,0-0.098,0-0.147,0C36.326,21.148,36.302,21.189,36.275,21.228z"/>
</g>
<g id="Layer_1">
</g>
</svg>
