<?xml version="1.0" encoding="iso-8859-1"?>
<!-- Generator: Adobe Illustrator 19.2.0, SVG Export Plug-In . SVG Version: 6.00 Build 0)  -->
<svg version="1.1" xmlns="http://www.w3.org/2000/svg" xmlns:xlink="http://www.w3.org/1999/xlink" x="0px" y="0px"
	 viewBox="0 0 98.964 74.606" style="enable-background:new 0 0 98.964 74.606;" xml:space="preserve">
<g id="World_x5F_Cup_x5F_94">
	<path style="fill-rule:evenodd;clip-rule:evenodd;" d="M17.182,2.419c-1.096,2.792-2.536,4.998-3.837,7.795
		c-2.145-0.073-5.742,1.21-7.914,1.199c-0.386-0.674-0.676-1.261-0.959-2.398C4.115,7.583,3.741,6.969,4.712,5.776
		c1.748-2.148,5.654-4.421,8.034-5.756C14.4,0.26,15.555,1.781,17.182,2.419z"/>
	<path style="fill-rule:evenodd;clip-rule:evenodd;" d="M34.81,11.173c-2.378,0.01-5.031-0.577-7.075-1.079
		c-2.193,0.477-3.209-3.808-4.077-5.397c-0.424-0.775-1.252-1.489-1.079-2.158c0.131-0.506,0.904-0.572,1.319-0.839
		c0.747-0.482,2.159-2.197,3.597-1.56c-0.047,0.679,1.134,0.491,1.56,0.84c0.103,0.084-0.012,0.404,0.12,0.479
		c1.475,0.841,4.019,2.217,5.275,3.477c0.062,0.061-0.059,0.296,0,0.359c0.457,0.495,1.247,0.994,1.319,1.319
		C36.118,8.177,34.549,9.655,34.81,11.173z"/>
	<path style="fill-rule:evenodd;clip-rule:evenodd;" d="M98.723,16.569c-11.933-3.868-23.763-6.803-37.173-5.397
		c-0.535-0.506-2.061,0.158-2.998,0.24c-4.351,0.377-9.529,0.936-13.31,2.397c-0.489-0.406-1.27,0.486-1.56-0.119
		c-0.717-1.765-1.345-4.726-2.758-6.716c18.37-5.953,39.213-4.887,57.559,1.44C98.802,11.194,98.511,13.623,98.723,16.569z"/>
	<path style="fill-rule:evenodd;clip-rule:evenodd;" d="M27.615,21.126c-2.421,1.896-5.061,3.572-7.435,5.516
		c-2.693-1.623-4.957-3.676-7.674-5.276c0.756-2.926,1.896-5.377,2.517-8.514c3.27-0.965,6.354-0.383,9.594-0.359
		C25.73,15.641,26.638,18.306,27.615,21.126z"/>
	<path style="fill-rule:evenodd;clip-rule:evenodd;" d="M36.129,16.209c1.466,0.653,2.124,2.113,3.718,2.639
		c0.009,4.164-1.26,8.101-3.718,11.151c-1.622-0.181-2.921,0.362-4.436,0.12c-0.845-2.465-0.761-5.353-1.439-7.794
		C32.104,20.178,34.244,18.321,36.129,16.209z"/>
	<path style="fill-rule:evenodd;clip-rule:evenodd;" d="M9.629,22.325c-0.586,2.77-0.877,5.55-1.319,8.034
		C7.021,29.495,4.622,31,3.393,29.879c-1.52-1.384-2.371-5.242-2.878-7.674c-0.192-0.919-0.644-2.049-0.48-2.639
		c0.132-0.473,2.924-3.181,3.718-3.117c0.321,0.025,1.565,1.318,1.919,1.679C6.951,19.435,8.263,21.22,9.629,22.325z"/>
	<path style="fill-rule:evenodd;clip-rule:evenodd;" d="M98.603,31.678c-4.198-1.521-8.124-2.962-12.471-3.837
		c-5.923-1.192-13.141-2.059-19.785-2.039c-3.992,0.013-7.625,0.425-12.352,1.08c-1.579,0.219-3.869,1.192-4.677,0.959
		c-0.938-0.271-2.645-3.232-3.478-4.077c-0.576-0.585-1.672-1.416-1.798-2.398c7.273-1.993,14.582-3.336,22.663-3.357
		c1.928-0.005,3.87-0.078,5.516,0c1.067,0.051,2.326,0.056,3.598,0.24c4.152,0.603,12.546,1.907,17.268,3.717
		c1.578,0.605,4.761,0.946,5.396,1.919C99.494,25.43,98.289,30.092,98.603,31.678z"/>
	<path style="fill-rule:evenodd;clip-rule:evenodd;" d="M42.484,27.361c6.423,6.168,11.481,13.7,17.747,20.025
		c0.062,0.338,0.29,0.509,0.36,0.839c6.698,7.531,13.132,15.327,19.785,22.903c-0.951,1.407-2.461,2.256-3.717,3.358
		c-1.552-1.868-3.57-3.574-5.276-5.637c-1.397-1.688-2.55-3.658-3.957-5.275c-0.14-0.16-0.372,0.064-0.6-0.12
		c-0.701-0.569-1.427-2.009-2.158-2.878c-4.094-4.866-8.628-9.68-12.831-14.63c-1.215-1.43-2.155-2.642-3.478-4.196
		c-2.209-2.598-5.134-6.433-7.435-8.994c-1.368-1.524,0.202-2.382,1.199-4.196C42.345,28.158,42.313,27.641,42.484,27.361z"/>
	<path style="fill-rule:evenodd;clip-rule:evenodd;" d="M20.06,29.399c2.175,1.583,5.25,2.265,7.315,3.957
		c-0.369,1.565-1.12,2.604-1.319,3.957c-1.363,1.15-3.889,0.916-6.235,0.96c-1.428,0.026-4.217,0.343-5.516-0.479
		c-1.238-0.784-0.843-3.191-1.919-4.317C14.68,31.853,17.534,30.79,20.06,29.399z M20.78,32.637
		C20.859,32.716,20.73,32.587,20.78,32.637L20.78,32.637z"/>
	<path style="fill-rule:evenodd;clip-rule:evenodd;" d="M98.723,47.866c-9.763-4.661-21.93-7.528-33.216-7.194
		c-1.53,0.045-4.35,1.062-5.276,0.119c-1.979-2.015-3.592-4.586-5.275-6.715c5.127-0.899,10.365-1.021,15.588-0.839
		c1.981,0.068,4.109-0.049,5.876,0.359c0.75,0.173,1.543,0.024,2.278,0.12c2.686,0.35,5.458,0.756,7.914,1.559
		c3.722,1.217,8.346,2.324,12.111,4.077c-0.033,0.273,0.029,0.451,0.24,0.48C98.522,42.547,98.953,44.884,98.723,47.866z"/>
	<path style="fill-rule:evenodd;clip-rule:evenodd;" d="M67.547,71.489c-1.038,1.24-2.316,2.24-3.718,3.117
		C53.886,62.484,43.429,50.88,33.491,38.753c0.941-1.178,2.268-1.97,3.357-2.998c4.871,4.562,8.599,10.268,13.311,14.989
		c-0.003,0.282,0.206,0.354,0.12,0.72C56.33,57.844,61.915,64.689,67.547,71.489z M45.482,46.907
		C45.781,47.375,45.657,46.51,45.482,46.907L45.482,46.907z M58.193,61.297C58.271,61.375,58.142,61.246,58.193,61.297
		L58.193,61.297z"/>
	<path style="fill-rule:evenodd;clip-rule:evenodd;" d="M4.352,37.313c0.08,0,0.16,0,0.239,0c1.046,0.674,2.109,1.329,2.998,2.159
		c1.651,0.556,3.104,1.652,5.156,2.278c1.587,0.484,3.58,0.293,4.917,1.079c1.262,0.742,2.081,3.398,3.597,3.957
		c0.521,1.882,2.734,2.697,3.118,4.316c-7.164,0.724-14.317-1.72-19.786-4.557C4.131,43.247,4.619,40.617,4.352,37.313z"/>
	<path style="fill-rule:evenodd;clip-rule:evenodd;" d="M54.836,71.609c-1.254,0.984-2.213,2.264-3.838,2.878
		c-9.021-10.644-17.938-21.393-27.22-31.777c1.155-0.602,3.218-1.11,4.677-1.559c0.991-0.305,1.276,1.207,1.918,1.918
		c2.066,2.288,3.797,3.64,5.517,6.236c1.321,1.995,3.455,3.701,5.156,5.636c1.749,1.988,3.205,4.309,5.156,6.115
		c0.205,0.189,0.288,0.601,0.479,0.84c0.584,0.729,1.481,1.354,2.038,2.038C50.84,66.538,52.71,69.038,54.836,71.609z"/>
	<path style="fill-rule:evenodd;clip-rule:evenodd;" d="M98.964,55.66c-0.207,3.192-0.044,5.999,0,8.754
		c-3.687-1.672-6.241-4.108-10.433-5.156c-1.212-0.303-2.443-1.148-3.598-1.438c-2.677-0.674-5.122-0.964-8.153-1.44
		c-1.125-0.177-2.466-0.119-3.238-0.359c-0.85-0.265-1.392-1.588-2.158-2.519c-1.547-1.876-3.342-3.377-4.677-5.516
		C77.794,47.648,90.172,50.297,98.964,55.66z"/>
	<path style="fill-rule:evenodd;clip-rule:evenodd;" d="M4.591,54.101c4.194,2.32,8.834,3.058,13.91,3.957
		c2.604,0.462,6.929,0.926,10.073,0.36c0.783-0.142,1.552-0.714,2.158-0.24c2.242,1.751,3.107,4.354,5.516,6.235
		c-0.298,0.822-1.09,0.406-1.559,0.84c-2.927,0.428-7.502,0.974-10.672,1.199c-1.623-0.25-3.917-0.619-5.517-0.36
		c-2.732-0.435-6.865-1.389-9.233-1.799c0-0.119,0-0.239,0-0.359c-2.003-0.235-3.587-0.89-4.796-1.919
		C4.691,59.14,4.399,56.29,4.591,54.101z"/>
</g>
<g id="Layer_1">
</g>
</svg>
