<?xml version="1.0" encoding="iso-8859-1"?>
<!-- Generator: Adobe Illustrator 21.0.2, SVG Export Plug-In . SVG Version: 6.00 Build 0)  -->
<svg version="1.1" xmlns="http://www.w3.org/2000/svg" xmlns:xlink="http://www.w3.org/1999/xlink" x="0px" y="0px"
	 viewBox="0 0 10.769 12.427" style="enable-background:new 0 0 10.769 12.427;" xml:space="preserve">
<g id="World_x5F_Chess_x5F_Chapionship">
	<path d="M0.002,3.102C1.793,2.067,3.585,1.033,5.377,0c1.75,1.009,3.498,2.02,5.249,3.028c0.049,0.034,0.129,0.053,0.141,0.119
		c0.001,2.015,0,4.03,0.001,6.044c-0.004,0.047,0.017,0.11-0.033,0.14c-1.784,1.034-3.573,2.06-5.357,3.095
		c-1.791-1.035-3.582-2.07-5.375-3.101C-0.002,8.175,0.001,7.024,0,5.873C0.001,4.949-0.002,4.026,0.002,3.102z M4.175,1.389
		C4.176,1.62,4.176,1.851,4.176,2.081C4.376,1.96,4.582,1.847,4.783,1.727C4.776,1.498,4.785,1.268,4.779,1.039
		C4.577,1.154,4.374,1.269,4.175,1.389z M5.976,1.04C5.972,1.269,5.978,1.497,5.973,1.726c0.195,0.121,0.4,0.226,0.594,0.35
		C6.564,1.844,6.567,1.612,6.565,1.381C6.367,1.269,6.174,1.15,5.976,1.04z M4.783,1.723c0.139,0.103,0.3,0.172,0.444,0.266
		c0.057,0.03,0.114,0.087,0.184,0.065c0.101-0.051,0.194-0.116,0.294-0.169C5.795,1.83,5.89,1.786,5.972,1.723
		C5.769,1.618,5.577,1.495,5.377,1.385C5.176,1.493,4.987,1.619,4.783,1.723z M2.995,2.07c0,0.231-0.002,0.462,0.001,0.692
		c0.195-0.117,0.391-0.233,0.59-0.343C3.584,2.191,3.587,1.962,3.585,1.734C3.384,1.837,3.191,1.957,2.995,2.07z M7.17,1.736
		C7.168,1.964,7.172,2.192,7.168,2.42c0.198,0.111,0.394,0.225,0.59,0.34C7.761,2.532,7.76,2.304,7.759,2.075
		C7.697,2.024,7.621,1.993,7.553,1.95C7.425,1.879,7.303,1.798,7.17,1.736z M3.585,2.422c0.003,0.228,0,0.456,0.002,0.684
		c0.198-0.111,0.394-0.225,0.59-0.339c-0.005-0.23,0.001-0.46-0.003-0.689C3.978,2.192,3.78,2.304,3.585,2.422z M6.578,2.65
		C6.58,2.687,6.568,2.722,6.56,2.757C6.763,2.875,6.967,2.99,7.169,3.111C7.17,2.882,7.167,2.652,7.171,2.422
		c-0.192-0.124-0.4-0.223-0.59-0.35C6.576,2.265,6.579,2.458,6.578,2.65z M1.851,2.728C1.816,2.745,1.784,2.776,1.787,2.818
		c0,0.21,0.001,0.42,0,0.631c0.206-0.103,0.4-0.23,0.602-0.342c0.002,0.229-0.002,0.458,0.002,0.686
		C2.192,3.914,1.991,4.03,1.788,4.143c-0.001-0.231,0-0.462-0.001-0.693C1.593,3.573,1.391,3.681,1.195,3.8
		C1.194,3.574,1.196,3.348,1.194,3.123C1.132,3.136,1.081,3.176,1.026,3.205C0.882,3.291,0.733,3.369,0.591,3.459
		c0.002,0.229,0,0.457,0.002,0.686C0.789,4.03,0.987,3.92,1.181,3.803C1.191,3.835,1.197,3.867,1.196,3.9c0,0.198,0,0.395,0,0.593
		c0.192-0.122,0.393-0.231,0.59-0.345c0.005,0.229,0,0.459,0.003,0.688C1.59,4.948,1.392,5.062,1.196,5.178
		c-0.003-0.23,0.001-0.46-0.002-0.689c-0.201,0.115-0.402,0.23-0.602,0.348C0.593,5.063,0.591,5.29,0.593,5.516
		C0.8,5.42,0.986,5.282,1.194,5.189c0.004,0.228,0,0.455,0.002,0.683C1.39,5.75,1.593,5.643,1.787,5.521
		C1.79,5.754,1.786,5.986,1.789,6.219C1.587,6.323,1.395,6.445,1.196,6.555c-0.003-0.196,0-0.392-0.001-0.588
		C1.196,5.935,1.188,5.904,1.18,5.874c-0.193,0.117-0.391,0.223-0.583,0.34C0.588,6.442,0.593,6.67,0.594,6.898
		c0.205-0.105,0.4-0.229,0.601-0.34C1.195,6.789,1.197,7.02,1.195,7.25c0.174-0.109,0.356-0.206,0.532-0.313
		C1.766,6.912,1.819,6.915,1.858,6.94c0.178,0.104,0.358,0.205,0.534,0.313c-0.006,0.223,0.001,0.446-0.003,0.67
		c-0.07-0.018-0.128-0.062-0.19-0.096c-0.134-0.08-0.274-0.153-0.405-0.238C1.598,7.711,1.39,7.812,1.197,7.941
		c0.194,0.115,0.393,0.22,0.585,0.337c0.011,0.228,0.005,0.458,0.003,0.687C1.582,8.862,1.394,8.73,1.19,8.628
		C0.992,8.738,0.801,8.86,0.601,8.966C0.7,9.042,0.815,9.093,0.921,9.158c0.082,0.044,0.158,0.099,0.241,0.139
		c0.063,0.02,0.115-0.03,0.166-0.057C1.481,9.146,1.64,9.063,1.792,8.968c0.192,0.126,0.401,0.223,0.59,0.353
		C2.188,9.437,1.985,9.54,1.796,9.665c0.191,0.109,0.38,0.221,0.571,0.328C2.39,10.006,2.416,9.992,2.436,9.98
		C2.591,9.888,2.75,9.802,2.904,9.708C2.939,9.69,2.98,9.653,3.02,9.679c0.184,0.112,0.374,0.214,0.558,0.326
		c-0.192,0.122-0.394,0.227-0.589,0.344c0.195,0.12,0.399,0.226,0.591,0.35c0.201-0.116,0.402-0.231,0.602-0.349
		c0.198,0.113,0.392,0.231,0.593,0.34c-0.188,0.132-0.4,0.226-0.59,0.357c0.186,0.102,0.369,0.209,0.552,0.316
		c0.019,0.01,0.041,0.03,0.063,0.013c0.181-0.106,0.362-0.213,0.546-0.314c0.042-0.026,0.082,0.012,0.118,0.03
		c0.155,0.092,0.315,0.176,0.469,0.271c0.018,0.01,0.04,0.029,0.061,0.013c0.19-0.114,0.386-0.219,0.575-0.334
		c-0.113-0.074-0.234-0.134-0.348-0.205c-0.079-0.05-0.167-0.084-0.237-0.148c0.198-0.11,0.392-0.227,0.589-0.34
		c0.199,0.118,0.4,0.233,0.601,0.349c0.194-0.122,0.395-0.231,0.592-0.349c-0.196-0.115-0.397-0.222-0.589-0.344
		c0.175-0.107,0.355-0.205,0.53-0.311c0.027-0.016,0.06-0.038,0.091-0.016c0.175,0.1,0.348,0.203,0.523,0.302
		c0.019,0.009,0.042,0.026,0.063,0.013C8.577,9.887,8.766,9.772,8.96,9.665C8.77,9.542,8.569,9.437,8.374,9.321
		c0.159-0.111,0.333-0.197,0.497-0.299C8.911,8.995,8.964,8.97,9.01,8.999c0.162,0.093,0.324,0.184,0.484,0.28
		c0.023,0.013,0.046,0.027,0.072,0.035c0.193-0.109,0.381-0.227,0.578-0.329c0-0.006,0.002-0.019,0.002-0.025
		C9.981,8.874,9.824,8.776,9.662,8.684c-0.036-0.019-0.07-0.046-0.11-0.055c-0.194,0.118-0.397,0.222-0.584,0.35
		c-0.002-0.234-0.002-0.467,0-0.701c0.18-0.103,0.359-0.208,0.54-0.311C9.53,7.957,9.557,7.933,9.582,7.95
		c0.194,0.109,0.384,0.224,0.579,0.329c0-0.22,0-0.439,0-0.659c0.004-0.023-0.02-0.034-0.035-0.045
		C9.938,7.462,9.747,7.355,9.558,7.244c0.002-0.228,0-0.457,0.001-0.685c0.205,0.105,0.394,0.239,0.602,0.338
		c0-0.227-0.001-0.453,0.001-0.68C9.964,6.099,9.764,5.982,9.56,5.872C9.558,6.099,9.562,6.327,9.559,6.554
		c-0.2-0.108-0.391-0.231-0.592-0.336c0-0.232-0.002-0.464,0.001-0.696C9.162,5.644,9.365,5.749,9.559,5.87
		c0-0.228-0.001-0.457,0.001-0.685C9.668,5.234,9.767,5.3,9.872,5.356c0.097,0.052,0.184,0.123,0.29,0.157
		c0.001-0.224-0.002-0.448,0.001-0.672C9.966,4.714,9.758,4.607,9.559,4.486C9.561,4.259,9.556,4.031,9.56,3.804
		c0.204,0.106,0.399,0.229,0.601,0.339c0-0.228-0.002-0.455,0.001-0.682c-0.13-0.083-0.265-0.156-0.397-0.235
		C9.698,3.188,9.634,3.142,9.559,3.12c0,0.226,0.001,0.452-0.001,0.679C9.363,3.681,9.161,3.574,8.968,3.451
		c-0.001,0.23-0.001,0.46,0,0.69C8.762,4.034,8.565,3.91,8.363,3.796c0.003-0.229-0.002-0.458,0.002-0.688
		c0.196,0.114,0.391,0.228,0.589,0.34c0.019-0.068,0.011-0.14,0.013-0.21C8.965,3.086,8.97,2.935,8.965,2.783
		C8.944,2.746,8.903,2.73,8.869,2.708C8.7,2.615,8.534,2.514,8.365,2.42C8.361,2.648,8.366,2.876,8.363,3.105
		c-0.197-0.112-0.395-0.222-0.588-0.34c-0.004,0.233,0,0.465-0.003,0.698c0.027,0.011,0.054,0.023,0.08,0.038
		c0.169,0.104,0.345,0.195,0.512,0.302C8.362,4.03,8.366,4.259,8.362,4.487C8.166,4.374,7.971,4.259,7.774,4.148
		c-0.004,0.23,0.001,0.46-0.003,0.69c0.2,0.111,0.396,0.229,0.595,0.341c-0.006,0.23,0,0.461-0.003,0.691
		C8.167,5.749,7.964,5.639,7.767,5.52C7.569,5.64,7.366,5.75,7.17,5.871c-0.003-0.23,0.002-0.46-0.002-0.689
		c0.177-0.108,0.358-0.21,0.538-0.313C7.744,4.851,7.724,4.8,7.691,4.79C7.53,4.695,7.367,4.604,7.207,4.507
		c-0.045-0.033-0.09,0.009-0.128,0.031C6.917,4.641,6.745,4.727,6.584,4.83c-0.007-0.038-0.02-0.075-0.019-0.113
		C6.564,4.53,6.567,4.343,6.564,4.157c0.191-0.132,0.401-0.233,0.597-0.355c-0.191-0.126-0.395-0.231-0.59-0.35
		C6.374,3.564,6.181,3.687,5.978,3.79c0.184,0.136,0.399,0.224,0.586,0.356c-0.171,0.102-0.345,0.198-0.515,0.3
		C6.001,4.479,5.934,4.471,5.888,4.44C5.721,4.341,5.553,4.245,5.385,4.147c0.188-0.131,0.397-0.229,0.591-0.35
		C5.973,3.566,5.975,3.335,5.975,3.104c-0.197,0.122-0.4,0.232-0.597,0.352C5.18,3.335,4.975,3.227,4.779,3.103
		c0,0.233,0.002,0.465,0,0.698c0.102,0.05,0.198,0.113,0.297,0.169c0.098,0.059,0.202,0.11,0.295,0.178
		C5.199,4.246,5.026,4.344,4.856,4.445c-0.027,0.014-0.052,0.034-0.082,0.04C4.578,4.373,4.384,4.26,4.19,4.147
		c-0.004,0.23,0,0.46-0.002,0.691c0.196,0.111,0.39,0.225,0.586,0.335c-0.187,0.13-0.399,0.224-0.585,0.356
		c0.191,0.107,0.38,0.219,0.57,0.329c0.02,0.098,0.001,0.201,0.009,0.3C4.79,6.287,4.776,6.418,4.779,6.549
		C4.602,6.463,4.436,6.357,4.265,6.26C4.23,6.244,4.193,6.2,4.153,6.229C3.976,6.33,3.8,6.434,3.623,6.535
		C3.601,6.552,3.571,6.553,3.549,6.536C3.363,6.432,3.18,6.324,2.996,6.215c-0.004,0.23,0,0.46-0.002,0.69
		C3.188,7.02,3.386,7.127,3.575,7.249C3.381,7.368,3.181,7.474,2.988,7.595C2.843,7.508,2.698,7.422,2.55,7.34
		C2.498,7.31,2.443,7.283,2.4,7.24c0.177-0.1,0.353-0.203,0.531-0.304c0.02-0.008,0.025-0.053,0.004-0.062
		c-0.158-0.095-0.32-0.181-0.476-0.279C2.429,6.579,2.394,6.55,2.36,6.573C2.173,6.679,1.991,6.79,1.803,6.893
		C1.796,6.664,1.802,6.434,1.799,6.205C1.957,6.122,2.108,6.027,2.264,5.94c0.05-0.025,0.104-0.085,0.164-0.049
		c0.187,0.108,0.375,0.214,0.561,0.324c0.195-0.118,0.393-0.231,0.592-0.342C3.389,5.746,3.183,5.643,2.989,5.52
		C2.79,5.639,2.586,5.748,2.391,5.872c-0.005-0.23,0-0.461-0.002-0.691c0.196-0.118,0.395-0.232,0.594-0.346
		C2.979,4.604,2.984,4.373,2.98,4.142C2.787,4.263,2.586,4.369,2.392,4.487c-0.005-0.229,0-0.458-0.003-0.687
		c0.119-0.071,0.24-0.14,0.36-0.208C2.827,3.548,2.9,3.496,2.983,3.462C2.979,3.229,2.984,2.997,2.98,2.765
		C2.785,2.88,2.589,2.994,2.392,3.106c-0.005-0.228,0-0.457-0.003-0.686C2.209,2.522,2.031,2.626,1.851,2.728z M4.741,2.44
		c-0.186,0.107-0.37,0.22-0.559,0.322c0.183,0.113,0.374,0.212,0.556,0.326c0.025,0.018,0.059,0.016,0.084-0.001
		c0.184-0.111,0.371-0.215,0.555-0.324C5.19,2.657,5.005,2.549,4.819,2.44C4.796,2.424,4.764,2.425,4.741,2.44z M5.935,2.439
		C5.751,2.548,5.564,2.654,5.379,2.762c0.182,0.112,0.37,0.216,0.555,0.324c0.025,0.018,0.058,0.019,0.083,0
		c0.182-0.109,0.368-0.212,0.55-0.32C6.405,2.659,6.231,2.572,6.067,2.471C6.028,2.447,5.981,2.41,5.935,2.439z M7.184,3.111
		c-0.004,0.093,0,0.186-0.002,0.279C7.159,3.525,7.176,3.662,7.167,3.798c0.198,0.115,0.399,0.223,0.591,0.348
		c0.003-0.235,0-0.469,0.003-0.703C7.561,3.345,7.375,3.224,7.184,3.111z M2.999,3.444c-0.009,0.233-0.003,0.467-0.002,0.7
		c0.192-0.123,0.393-0.234,0.592-0.347C3.582,3.57,3.589,3.343,3.584,3.115C3.383,3.213,3.197,3.341,2.999,3.444z M3.591,3.803
		c0.198,0.115,0.398,0.226,0.594,0.344c0.19-0.125,0.394-0.228,0.59-0.345c-0.191-0.127-0.397-0.23-0.592-0.351
		C3.987,3.57,3.781,3.674,3.591,3.803z M3.547,4.506C3.362,4.617,3.175,4.725,2.988,4.83c0.174,0.108,0.355,0.204,0.529,0.311
		c0.029,0.019,0.066,0.038,0.099,0.017C3.762,5.078,3.904,4.99,4.05,4.911c0.043-0.023,0.083-0.05,0.119-0.082
		c-0.161-0.103-0.332-0.187-0.493-0.29C3.637,4.518,3.592,4.474,3.547,4.506z M3.587,5.171C3.586,5.406,3.588,5.64,3.586,5.875
		c0.199,0.106,0.395,0.219,0.588,0.336c0.004-0.23,0-0.461,0.003-0.691C3.98,5.403,3.778,5.296,3.587,5.171z M0.593,7.596
		c0.004,0.228-0.008,0.456,0.006,0.683c0.199-0.116,0.402-0.225,0.598-0.346C1.193,7.739,1.196,7.545,1.195,7.351
		C1.196,7.317,1.187,7.284,1.179,7.25C0.987,7.372,0.786,7.478,0.593,7.596z"/>
	<path d="M8.969,4.149c0.198,0.111,0.395,0.224,0.591,0.34c0,0.23,0.001,0.46,0,0.69C9.362,5.063,9.165,4.948,8.966,4.837
		C8.969,4.608,8.964,4.378,8.969,4.149z"/>
	<path d="M1.8,4.826c0.196-0.11,0.39-0.224,0.586-0.336c0.009,0.227,0,0.455,0.004,0.682c-0.194,0.121-0.396,0.226-0.588,0.35
		C1.797,5.291,1.8,5.058,1.8,4.826z"/>
	<path d="M8.365,4.488C8.562,4.6,8.755,4.72,8.955,4.826C8.954,5.059,8.958,5.291,8.953,5.523c-0.192-0.125-0.397-0.228-0.59-0.351
		C8.365,4.944,8.362,4.716,8.365,4.488z"/>
	<path d="M4.781,4.498C4.836,4.52,4.889,4.548,4.94,4.58c0.126,0.079,0.259,0.148,0.387,0.224C5.349,4.82,5.38,4.832,5.407,4.817
		c0.189-0.108,0.375-0.22,0.566-0.324C5.976,4.72,5.974,4.947,5.975,5.174C5.791,5.285,5.602,5.39,5.419,5.502
		c-0.02,0.014-0.048,0.023-0.07,0.007c-0.187-0.116-0.382-0.22-0.57-0.336C4.781,4.948,4.779,4.723,4.781,4.498z"/>
	<path d="M5.982,5.173c0.199-0.109,0.392-0.229,0.591-0.338C6.77,4.945,6.966,5.059,7.161,5.174
		C6.994,5.292,6.807,5.378,6.635,5.488c-0.073,0.053-0.148-0.016-0.211-0.05C6.279,5.346,6.121,5.274,5.982,5.173z"/>
	<path d="M5.337,5.546c0.028-0.02,0.066-0.013,0.092,0.007c0.179,0.108,0.366,0.205,0.542,0.319
		c-0.199,0.111-0.396,0.226-0.594,0.34c-0.128-0.071-0.252-0.148-0.38-0.218c-0.07-0.041-0.145-0.076-0.206-0.132
		C4.972,5.755,5.156,5.651,5.337,5.546z"/>
	<path d="M5.973,5.869C6.169,5.752,6.37,5.643,6.565,5.525c0.001,0.23,0.005,0.46-0.001,0.69C6.37,6.333,6.172,6.443,5.975,6.556
		C5.973,6.327,5.976,6.098,5.973,5.869z"/>
	<path d="M7.131,5.891c0.023-0.015,0.054-0.016,0.077,0.001c0.188,0.106,0.375,0.213,0.56,0.324
		C7.578,6.319,7.392,6.428,7.206,6.537C7.183,6.553,7.153,6.554,7.131,6.536C6.947,6.426,6.759,6.324,6.576,6.212
		C6.759,6.102,6.946,5.997,7.131,5.891z"/>
	<path d="M8.326,5.892C8.38,5.855,8.433,5.91,8.48,5.934C8.639,6.023,8.794,6.12,8.956,6.206c-0.003,0.23,0.004,0.46-0.004,0.69
		C8.769,6.794,8.589,6.686,8.408,6.58C8.386,6.564,8.355,6.557,8.332,6.575C8.147,6.681,7.966,6.795,7.775,6.89
		C7.771,6.664,7.773,6.437,7.773,6.211C7.956,6.102,8.141,5.997,8.326,5.892z"/>
	<path d="M4.744,6.576C4.78,6.543,4.822,6.582,4.856,6.599c0.171,0.102,0.343,0.204,0.518,0.3C5.204,7.01,5.021,7.101,4.849,7.209
		C4.812,7.236,4.761,7.244,4.723,7.216C4.546,7.108,4.362,7.009,4.186,6.9C4.372,6.793,4.559,6.686,4.744,6.576z"/>
	<path d="M5.924,6.585c0.022-0.01,0.049-0.035,0.074-0.016c0.124,0.073,0.248,0.147,0.373,0.219c0.066,0.037,0.139,0.068,0.19,0.126
		c-0.19,0.095-0.368,0.212-0.554,0.314c-0.05,0.021-0.096-0.017-0.138-0.04C5.708,7.09,5.539,7.003,5.381,6.899
		C5.564,6.798,5.744,6.69,5.924,6.585z"/>
	<path d="M6.583,6.897c0.195-0.115,0.393-0.224,0.586-0.343c0.003,0.23-0.001,0.46,0.002,0.69C6.975,7.363,6.769,7.466,6.58,7.597
		C6.578,7.364,6.571,7.13,6.583,6.897z"/>
	<path d="M3.587,6.558C3.763,6.66,3.938,6.765,4.116,6.863C4.141,6.88,4.184,6.891,4.177,6.93C4.175,7.152,4.179,7.374,4.174,7.596
		C3.985,7.468,3.779,7.365,3.585,7.245C3.587,7.016,3.584,6.787,3.587,6.558z"/>
	<path d="M7.177,7.239c0.201-0.106,0.395-0.224,0.59-0.34C7.885,6.976,8.011,7.04,8.132,7.113c0.076,0.046,0.16,0.08,0.225,0.143
		C8.173,7.35,7.997,7.46,7.818,7.564C7.786,7.582,7.745,7.581,7.713,7.562C7.565,7.477,7.419,7.386,7.268,7.304
		C7.234,7.287,7.204,7.264,7.177,7.239z"/>
	<path d="M8.883,6.946C8.929,6.913,8.994,6.91,9.041,6.944c0.171,0.105,0.348,0.2,0.519,0.307c0,0.229,0.001,0.458-0.001,0.688
		C9.363,7.815,9.158,7.71,8.961,7.588c-0.195,0.122-0.398,0.23-0.595,0.348C8.36,7.708,8.367,7.48,8.362,7.252
		C8.534,7.147,8.711,7.05,8.883,6.946z"/>
	<path d="M4.781,7.249c0.202,0.11,0.397,0.231,0.597,0.344C5.575,7.48,5.768,7.358,5.971,7.254C5.98,7.48,5.97,7.707,5.976,7.933
		C5.802,8.04,5.623,8.137,5.447,8.241c-0.029,0.017-0.065,0.049-0.1,0.025C5.159,8.153,4.966,8.049,4.779,7.933
		C4.781,7.705,4.778,7.477,4.781,7.249z"/>
	<path d="M4.124,7.625C4.154,7.603,4.197,7.595,4.23,7.619c0.18,0.107,0.366,0.205,0.542,0.319C4.589,8.053,4.397,8.153,4.214,8.265
		C4.179,8.288,4.142,8.259,4.112,8.242C3.94,8.137,3.761,8.045,3.589,7.938C3.763,7.826,3.947,7.732,4.124,7.625z"/>
	<path d="M6.525,7.619c0.028-0.02,0.067-0.021,0.095,0c0.18,0.109,0.369,0.204,0.545,0.32C6.978,8.048,6.789,8.154,6.603,8.265
		C6.58,8.281,6.549,8.271,6.528,8.257C6.347,8.149,6.162,8.047,5.981,7.94C6.157,7.824,6.345,7.728,6.525,7.619z"/>
	<path d="M2.997,7.599c0.195,0.115,0.395,0.224,0.59,0.34c-0.002,0.235,0,0.47-0.001,0.705C3.549,8.614,3.512,8.584,3.47,8.56
		C3.312,8.469,3.153,8.378,2.996,8.285C2.995,8.056,2.992,7.827,2.997,7.599z"/>
	<path d="M7.172,7.94c0.191-0.122,0.392-0.226,0.586-0.343C7.762,7.826,7.76,8.056,7.76,8.285C7.564,8.403,7.361,8.509,7.17,8.633
		C7.171,8.402,7.165,8.17,7.172,7.94z"/>
	<path d="M2.326,7.974C2.353,7.96,2.383,7.93,2.415,7.952C2.592,8.055,2.77,8.156,2.948,8.259C2.947,8.272,2.945,8.297,2.945,8.31
		C2.769,8.401,2.601,8.506,2.43,8.604C2.408,8.621,2.376,8.622,2.352,8.607C2.166,8.498,1.979,8.39,1.793,8.281
		C1.97,8.177,2.149,8.078,2.326,7.974z"/>
	<path d="M8.313,7.965c0.021-0.012,0.05-0.032,0.074-0.014c0.19,0.11,0.383,0.217,0.571,0.33C8.773,8.39,8.588,8.499,8.403,8.607
		C8.374,8.625,8.337,8.617,8.31,8.598C8.132,8.488,7.948,8.388,7.768,8.28C7.95,8.175,8.134,8.074,8.313,7.965z"/>
	<path d="M4.177,8.279c0.197,0.112,0.392,0.227,0.588,0.34c0.003,0.229,0.005,0.459-0.001,0.689C4.569,9.19,4.369,9.082,4.174,8.966
		C4.179,8.737,4.173,8.508,4.177,8.279z"/>
	<path d="M4.785,8.624c0.199-0.111,0.393-0.233,0.593-0.341c0.198,0.11,0.394,0.225,0.589,0.342c-0.178,0.11-0.36,0.215-0.542,0.319
		C5.37,8.981,5.314,8.932,5.266,8.907C5.106,8.812,4.94,8.726,4.785,8.624z"/>
	<path d="M5.974,8.628c0.197-0.116,0.397-0.226,0.591-0.346c0.004,0.23,0.002,0.46,0.001,0.69C6.371,9.092,6.17,9.2,5.975,9.319
		C5.974,9.089,5.976,8.858,5.974,8.628z"/>
	<path d="M3.527,8.66c0.04-0.024,0.092-0.019,0.129,0.007c0.171,0.1,0.342,0.202,0.515,0.298c-0.071,0.064-0.159,0.101-0.24,0.149
		C3.826,9.172,3.726,9.24,3.618,9.295C3.562,9.318,3.512,9.273,3.466,9.249C3.309,9.151,3.141,9.071,2.989,8.965
		C3.174,8.872,3.346,8.759,3.527,8.66z"/>
	<path d="M7.011,8.717C7.074,8.685,7.14,8.619,7.215,8.654C7.388,8.745,7.55,8.856,7.725,8.943C7.724,8.957,7.723,8.986,7.722,9
		C7.55,9.091,7.384,9.194,7.215,9.291C7.156,9.324,7.099,9.275,7.05,9.248C6.894,9.149,6.725,9.071,6.575,8.963
		C6.727,8.893,6.865,8.798,7.011,8.717z"/>
	<path d="M2.391,8.624c0.194,0.121,0.395,0.23,0.591,0.346C2.981,9.201,2.983,9.431,2.98,9.662C2.787,9.541,2.586,9.431,2.389,9.317
		C2.391,9.086,2.387,8.855,2.391,8.624z"/>
	<path d="M7.779,8.965c0.195-0.11,0.385-0.229,0.584-0.331c0.003,0.227-0.001,0.453,0.002,0.68C8.17,9.435,7.964,9.536,7.775,9.665
		c-0.005-0.19-0.001-0.38-0.003-0.57C7.773,9.052,7.768,9.008,7.779,8.965z"/>
	<path d="M3.587,9.317c0.196,0.116,0.395,0.226,0.59,0.344C4.175,9.89,4.18,10.118,4.174,10.347
		c-0.195-0.114-0.392-0.227-0.588-0.339C3.587,9.778,3.584,9.547,3.587,9.317z"/>
	<path d="M4.742,9.34c0.035-0.023,0.077-0.008,0.108,0.014c0.172,0.107,0.354,0.199,0.523,0.311C5.19,9.768,5.011,9.875,4.828,9.977
		c-0.096,0.035-0.175-0.051-0.255-0.089C4.448,9.806,4.304,9.751,4.195,9.648C4.381,9.553,4.557,9.438,4.742,9.34z"/>
	<path d="M5.881,9.369c0.032-0.017,0.063-0.046,0.102-0.041c0.031,0.005,0.057,0.026,0.084,0.04C6.234,9.47,6.407,9.56,6.571,9.666
		c-0.184,0.1-0.365,0.206-0.545,0.311C6.003,9.989,5.977,10.01,5.952,9.992C5.76,9.887,5.574,9.772,5.384,9.665
		C5.543,9.556,5.717,9.471,5.881,9.369z"/>
	<path d="M6.578,9.661c0.195-0.119,0.396-0.228,0.591-0.347c0.003,0.231,0.001,0.462,0.001,0.693
		c-0.197,0.112-0.393,0.226-0.589,0.34C6.574,10.118,6.579,9.89,6.578,9.661z"/>
	<path d="M4.779,9.995c0.19,0.134,0.402,0.234,0.599,0.358c0.195-0.121,0.399-0.229,0.596-0.348
		c0.004,0.229-0.001,0.458,0.003,0.687c-0.198,0.122-0.405,0.227-0.598,0.356c-0.194-0.127-0.402-0.233-0.599-0.356
		C4.78,10.46,4.781,10.228,4.779,9.995z"/>
</g>
<g id="Layer_1">
</g>
</svg>
