<?xml version="1.0" encoding="iso-8859-1"?>
<!-- Generator: Adobe Illustrator 19.2.0, SVG Export Plug-In . SVG Version: 6.00 Build 0)  -->
<svg version="1.1" xmlns="http://www.w3.org/2000/svg" xmlns:xlink="http://www.w3.org/1999/xlink" x="0px" y="0px"
	 viewBox="0 0 45.291 71.484" style="enable-background:new 0 0 45.291 71.484;" xml:space="preserve">
<g id="Wunderwald-Krawatten">
	<path style="fill-rule:evenodd;clip-rule:evenodd;" d="M9.823,0.202c0.257,1.827,0.124,3.846,0.104,5.906
		c-0.06,6.158,0.169,13.073-0.157,19.027c-0.615-0.521-0.901-1.326-1.307-1.986c-1.224-1.994-2.377-4.182-3.502-6.325
		c-1.49-2.838-3.277-5.516-4.705-8.363c-0.483-4.763,1.785-7.734,5.437-8.363C6.718-0.079,8.799,0.002,9.823,0.202z"/>
	<path style="fill-rule:evenodd;clip-rule:evenodd;" d="M32.039,0.202c0.234,7.824,0.143,16.156,0,24.307
		c-0.392-0.049-0.577-0.507-0.731-0.784c-1.977-3.546-3.99-7.138-5.907-10.769c-0.347-0.656-0.673-1.328-1.046-1.986
		c-0.348-0.614-0.535-1.396-1.149-1.829c-0.655,0.392-0.972,1.186-1.307,1.829c-1.053,2.018-2.155,4.084-3.294,6.116
		c-1.128,2.015-2.278,3.996-3.397,6.012c-0.359,0.647-0.684,1.396-1.307,1.829c-0.24-7.469-0.053-15.613-0.053-23.418
		c0-0.431-0.13-1.001,0.21-1.359C19.511,0.024,26.486,0.042,32.039,0.202z"/>
	<path style="fill-rule:evenodd;clip-rule:evenodd;" d="M36.116,24.247c-0.092-6.987-0.098-15.516,0-22.425
		c0.008-0.565-0.165-1.281,0.262-1.673c3.732-0.409,6.846,0.491,8.259,2.666c1.014,1.562,0.517,3.601,0.627,6.168
		c-2.701,4.832-5.786,9.596-8.468,14.532C36.657,23.77,36.492,24.227,36.116,24.247z"/>
	<path style="fill-rule:evenodd;clip-rule:evenodd;" d="M45.002,16.981c0.043,0.01,0.053,0.053,0.105,0.053
		c0.112,4.75,0.053,9.771,0.053,14.793c0,1.142,0.159,2.394-0.053,3.345c-0.151,0.685-0.684,1.374-1.097,2.091
		c-1.156,2.003-2.291,4.118-3.294,6.116c-1.127,1.99-2.262,4.045-3.345,6.115c-0.336,0.642-0.735,1.372-1.308,1.83
		c-0.189-4.19-0.104-8.94-0.104-13.382c0-2.021-0.245-4.323,0.315-5.802c0.231-0.612,0.675-1.285,1.045-1.935
		c2.117-3.716,4.098-7.551,6.481-11.186c0.435-0.662,0.652-1.446,1.046-1.934C44.884,17.037,44.941,17.007,45.002,16.981z"/>
	<path style="fill-rule:evenodd;clip-rule:evenodd;" d="M9.719,51.69c-0.416-0.059-0.606-0.524-0.784-0.837
		c-2.49-4.364-5.028-8.562-7.632-13.016C0.936,37.21,0.347,36.38,0.205,35.8c-0.304-1.243-0.053-3.201-0.053-4.652
		c0.001-3.13,0.053-6.07,0.053-9.253c0-1.537-0.04-3.357,0.052-4.651c0.029-0.076,0.082-0.128,0.157-0.157c0.035,0,0.069,0,0.104,0
		c0.866,1.328,1.507,2.774,2.352,4.13c0.815,1.307,1.66,2.7,2.353,4.076c1.412,2.81,3.192,5.423,4.651,8.207
		C9.781,39.52,10.071,45.927,9.719,51.69z"/>
	<path style="fill-rule:evenodd;clip-rule:evenodd;" d="M22.996,17.19c0.564-0.039,1.053,1.277,1.358,1.829
		c2.546,4.585,5.195,9.421,7.736,13.852c-0.09,5.988,0.189,12.515-0.156,18.086c-0.618-0.38-0.847-1.132-1.202-1.725
		c-2.148-3.573-4.242-7.271-6.325-11.029c-0.207-0.374-0.774-1.683-1.15-1.726c-0.589-0.065-1.011,1.22-1.307,1.777
		c-0.378,0.713-0.824,1.326-1.149,1.882c-1.87,3.195-3.828,6.306-5.646,9.514c-0.169,0.298-0.373,0.65-0.575,0.941
		c-0.188,0.27-0.434,0.663-0.784,0.732c-0.219-3.058-0.052-6.109-0.053-9.148c0-1.507-0.115-3.034-0.052-4.548
		c0.061-1.435-0.197-3.43,0.104-4.704c0.134-0.566,0.686-1.317,1.098-1.987c2.399-3.892,4.515-7.783,6.796-11.656
		C22.125,18.541,22.404,17.718,22.996,17.19z"/>
	<path style="fill-rule:evenodd;clip-rule:evenodd;" d="M44.898,43.797c0.399-0.127,0.315,0.899,0.315,1.307
		c0,5.348-0.053,10.745-0.053,16.414c0,2.314,0.174,4.556-0.471,6.011c-1.316,2.976-4.041,4.524-8.625,3.764
		c-0.275-0.871-0.156-1.854-0.156-2.822c0-1.896,0-3.893,0-5.855c0-1.094-0.083-2.339,0.156-3.188
		c0.189-0.665,0.673-1.301,1.046-1.986c1.026-1.886,2.273-3.914,3.293-5.75c1.517-2.731,2.95-5.274,4.339-7.736
		C44.771,43.879,44.823,43.826,44.898,43.797z"/>
	<path style="fill-rule:evenodd;clip-rule:evenodd;" d="M9.666,71.187c-0.872,0.258-1.849,0.143-2.718,0.157
		c-1.802,0.029-3.221-0.176-4.339-0.993c-1.282-0.938-2.358-2.536-2.509-4.601c-0.227-3.111,0-6.839,0-10.663
		c0-2.664,0.052-5.16,0.052-7.894c0-1.025-0.038-2.105,0.053-2.874c-0.002-0.09,0.039-0.136,0.104-0.157c0.035,0,0.069,0,0.104,0
		c2.73,4.553,5.425,9.292,8.259,13.957c0.384,0.631,0.953,1.439,1.098,2.038c0.19,0.784,0.053,1.856,0.053,2.771
		C9.823,65.645,9.948,68.685,9.666,71.187z"/>
	<path style="fill-rule:evenodd;clip-rule:evenodd;" d="M22.943,44.32c0.556-0.054,1.054,1.205,1.359,1.725
		c2.596,4.413,5.205,9.066,7.736,13.382c-0.097,3.894,0.198,8.178-0.157,11.814c-2.4,0.341-5.069,0.104-7.632,0.104
		c-3.514,0-7.096,0.157-10.454-0.104c-0.218-2.822-0.096-5.877-0.157-8.991c-0.019-0.973-0.127-2.081,0.053-2.927
		c0.124-0.588,0.659-1.322,1.046-1.986c1.055-1.816,2.349-3.845,3.449-5.488c0.816-1.219,1.534-2.459,2.3-3.712
		c0.359-0.587,0.699-1.276,1.099-1.882C22.05,45.548,22.43,44.841,22.943,44.32z"/>
</g>
<g id="Layer_1">
</g>
</svg>
