<?xml version="1.0" encoding="iso-8859-1"?>
<!-- Generator: Adobe Illustrator 19.2.0, SVG Export Plug-In . SVG Version: 6.00 Build 0)  -->
<svg version="1.1" xmlns="http://www.w3.org/2000/svg" xmlns:xlink="http://www.w3.org/1999/xlink" x="0px" y="0px"
	 viewBox="0 0 69.956 72.032" style="enable-background:new 0 0 69.956 72.032;" xml:space="preserve">
<g id="ximenes_x5F_hnos">
	<path style="fill-rule:evenodd;clip-rule:evenodd;" d="M45.412,0.364c-0.06,0.824-0.781,1.219-1.259,1.66
		c-0.503,0.469-1.062,0.9-1.611,1.311c-2.444,1.848-4.849,3.83-7.35,5.789c-0.708,0.555-2.107,1.258-2.215,2.113
		c-0.091,0.723,0.511,1.553,0.806,2.215c1.807,4.064,3.22,9.076,2.819,14.85c-0.06,0.857-0.252,1.82,0.101,2.67
		c0.716-0.33,0.945-1.131,1.359-1.713c1.225-1.725,2.796-3.332,4.43-4.73c1.573-1.465,3.403-2.525,5.588-3.574
		c0.409-0.197,1.685-0.805,1.762-1.26c0.099-0.58-0.895-1.736-1.158-2.113c-0.955-1.369-1.777-2.52-2.668-3.877
		c-0.411-0.627-1.126-1.213-1.057-2.113c0.293-0.559,1.004-0.357,1.46-0.303c1.519,0.184,3.19,0.549,4.732,0.856
		c2.084,0.416,4.176,0.812,6.242,1.209c3.219,0.615,6.225,1.035,9.565,1.609c0.988,0.172,2.552,0.445,2.819,1.008
		c0.332,0.699,0.101,2.424,0.101,3.574c0,6.158-0.051,11.729-0.051,17.568c0,2.895,0,5.662,0,8.508c0,0.449,0.111,0.959-0.15,1.41
		c-0.495,0.127-0.791-0.422-1.007-0.705c-0.779-1.019-1.449-2.139-2.266-3.172c-1.067-1.35-2.031-2.824-3.021-4.229
		c-0.998-1.416-2.05-2.799-3.021-4.229c-0.484-0.713-0.961-1.465-1.46-2.164c-0.49-0.689-0.975-1.435-1.712-1.863
		c-1.397,0.131-2.72,0.537-3.826,1.057c-3.245,1.525-5.654,4.021-7.249,7.25c-0.936,2.158-1.88,4.623-1.611,7.953
		c0.173,2.143,0.742,3.926,1.51,5.738c0.231,0.547,0.598,1.289,1.057,1.359c0.642,0.1,1.229-0.541,1.661-0.856
		c1.49-1.084,2.94-2.078,4.379-3.121c1.584-0.936,2.804-2.141,4.33-3.172c0.487-0.328,1.021-0.744,1.661-0.805
		c0.78,0.801,0.24,2.072,0.101,3.07c-0.155,1.115-0.245,2.287-0.403,3.373c-0.31,2.141-0.681,4.338-0.956,6.543
		c-0.412,3.297-0.981,6.473-1.51,9.768c-0.182,1.129-0.199,2.594-0.755,2.969c-0.62,0.418-2.767,0.152-3.926,0.152
		c-8.81,0.002-16.998-0.051-25.825-0.051c-0.592,0-1.287,0.142-1.812-0.201c0.04-0.752,0.845-1.109,1.359-1.51
		c1.606-1.256,3.295-2.611,5.034-3.775c1.747-1.17,3.368-2.375,5.135-3.676c0.488-0.359,1.4-0.967,1.46-1.461
		c0.071-0.59-0.649-1.59-0.957-2.164c-1.114-2.074-1.832-4.396-2.467-6.896c-0.654-2.576-0.998-5.367-0.755-8.406
		c0.073-0.912,0.305-1.84,0.151-2.77c-0.401,0.025-0.618,0.451-0.805,0.705c-0.64,0.865-1.198,1.693-1.913,2.518
		c-0.922,1.061-1.901,2.057-2.92,3.02c-1.561,1.393-3.242,2.521-5.336,3.574c-0.537,0.271-1.585,0.701-1.661,1.26
		c-0.108,0.789,0.954,1.889,1.309,2.365c1.085,1.459,1.938,2.85,3.02,4.229c0.503,0.641,1.211,1.385,1.158,2.365
		c-0.388,0.418-1.03,0.229-1.51,0.152c-3.622-0.58-7.24-1.436-10.923-2.065c-2.014-0.344-4.227-0.732-6.292-1.158
		c-0.952-0.195-1.985-0.262-3.222-0.502c-0.923-0.18-2.408-0.439-2.719-0.957c-0.211-0.354-0.139-1.18-0.151-1.965
		c-0.071-4.645-0.478-9.572-0.504-14.244c-0.015-2.736-0.177-5.512-0.251-8.207c-0.056-2.002-0.161-4.006-0.202-6.041
		c-0.01-0.533-0.236-1.27,0.302-1.66c0.761,0.023,1.045,0.857,1.409,1.359c2.652,3.654,5.374,7.559,7.954,11.326
		c0.611,0.707,0.915,1.371,1.51,2.164c0.395,0.527,1.145,1.73,1.812,1.863c0.86,0.17,1.983-0.383,2.819-0.705
		c2.424-0.936,4.536-2.639,5.991-4.48c1.543-1.951,2.617-4.236,3.222-7.248c0.2-1,0.264-2.205,0.202-3.274
		c-0.07-1.185-0.217-2.59-0.554-3.824c-0.246-0.904-0.788-2.719-1.56-2.82c-0.58-0.074-1.228,0.518-1.661,0.855
		c-1.397,1.092-2.863,2.193-4.178,3.223c-0.961,0.752-2.008,1.34-2.819,2.115c-0.829,0.791-1.71,1.664-2.97,1.963
		c-0.63-0.529-0.297-1.652-0.151-2.517c0.719-4.25,1.417-8.723,2.165-13.088c0.302-1.768,0.672-3.565,0.856-5.236
		c0.107-0.979,0.062-1.947,0.302-3.07c0.21-0.984,0.291-2.633,1.007-2.971c9.302-0.139,18.822,0,28.14,0
		C44.358,0.062,45.013-0.069,45.412,0.364z"/>
</g>
<g id="Layer_1">
</g>
</svg>
