<?xml version="1.0" encoding="iso-8859-1"?>
<!-- Generator: Adobe Illustrator 19.2.0, SVG Export Plug-In . SVG Version: 6.00 Build 0)  -->
<svg version="1.1" xmlns="http://www.w3.org/2000/svg" xmlns:xlink="http://www.w3.org/1999/xlink" x="0px" y="0px"
	 viewBox="0 0 82.5 48.42" style="enable-background:new 0 0 82.5 48.42;" xml:space="preserve">
<g id="Yamamoto_x5F_Balster">
	<path style="fill-rule:evenodd;clip-rule:evenodd;" d="M81.351,0.203c-0.277,0.786-0.859,1.439-1.358,2.089
		c-3.42,4.452-7.062,8.862-10.346,13.533c-0.695,0.839-1.277,1.758-1.933,2.611c-0.655,0.852-1.44,1.635-1.881,2.665
		c0.56,0.323,1.338,0.257,1.985,0.261c3.978,0.025,8.411,0,12.644,0c0.689,0,1.41-0.125,2.038,0.157
		c-0.14,0.741-0.769,1.223-1.202,1.776c-1.275,1.63-2.517,3.339-3.814,5.016c-1.687,2.182-3.381,4.422-5.12,6.636
		c-0.853,1.086-1.727,2.182-2.508,3.397c-0.74,1.151-1.722,2.219-2.561,3.344c-1.192,1.6-2.506,3.284-3.813,5.016
		c-0.403,0.535-0.962,1.374-1.411,1.515c-0.664,0.209-1.753,0.053-2.716,0.053c-4.696,0-8.908,0-13.533,0
		c-1.791,0-3.579,0.193-5.277-0.104c-0.289-1.539-0.087-3.185-0.156-4.859c-0.214-5.196,0.154-10.667,0-15.831
		c-0.56-1.217-1.533-2.018-2.247-3.083c-3.774-4.812-7.536-9.635-11.284-14.472c-0.641-1.059-1.452-2.007-2.195-2.978
		c-0.73-0.956-1.446-1.983-2.403-2.717c-3.069-0.105-6.582-0.053-9.771-0.053c-1.054,0-2.185-0.161-3.082,0.21
		c0.139,0.835,0.809,1.464,1.306,2.089c1.512,1.902,3.11,3.864,4.599,5.853c3.037,3.886,6.132,7.642,9.194,11.651
		c1.448,1.895,2.957,3.914,4.546,5.903c1.098,1.375,2.284,2.866,3.449,4.389c0.343,0.448,0.998,1.155,0.992,1.568
		c-0.007,0.486-0.788,1.232-1.097,1.672c-1.536,2.17-3.213,4.104-4.807,6.165c-0.369,0.477-0.63,1.07-1.046,1.672
		c-0.321,0.466-0.759,0.957-1.201,1.516c-0.443,0.56-0.844,1.357-1.359,1.462c-0.857,0.176-1.937,0.053-2.978,0.053
		c-5.001,0-10.156,0.001-15.151,0c-2.002,0-3.984,0.151-5.852-0.104c0.16-0.656,0.648-1.156,1.046-1.672
		c2.688-3.5,5.437-7.156,8.202-10.659c2.772-3.511,5.49-7.087,8.203-10.71c0.382-0.51,0.915-0.961,1.045-1.62
		c-0.382-1.042-1.213-1.83-1.881-2.664c-1.985-2.478-3.961-5.053-5.956-7.576C8.01,10.019,5.378,6.645,2.717,3.285
		C2.322,2.821,1.953,2.348,1.568,1.874C1.206,1.431,0.667,0.993,0.575,0.308c7.627-0.332,16.153-0.076,24.19-0.157
		c1.128,1.085,1.963,2.46,2.926,3.71c0.484,0.628,0.981,1.253,1.463,1.881c0.465,0.604,0.853,1.354,1.567,1.724
		c0.761-0.42,1.119-1.186,1.568-1.776c0.931-1.227,1.956-2.485,2.926-3.762c0.411-0.542,0.996-1.597,1.566-1.776
		c0.965-0.305,2.604-0.053,3.919-0.053c4.481,0.001,8.693,0,13.271,0C63.048,0.099,72.13-0.025,81.351,0.203z M69.646,4.069
		c-1.041-0.003-2.401-0.08-3.292,0c-2.125,0.192-4.41-0.272-6.322,0.157c-0.309,0.612-0.127,1.348-0.155,2.038
		c-0.084,1.968-0.062,4.125-0.053,6.165c0.008,1.808-0.021,3.678,0.053,5.433c0.039,0.937-0.08,1.936,0.261,2.77
		c0.57-0.283,0.933-0.873,1.306-1.358c2.748-3.576,5.515-7.14,8.203-10.712c0.838-1.565,2.227-2.58,2.926-4.284
		C71.749,3.94,70.701,4.072,69.646,4.069z M49.218,4.121c-1.043,0-2.11,0-3.188,0c-2.048,0-4.438-0.233-6.374,0
		c-0.966,0.116-1.517,1.131-1.985,1.777c-0.916,1.261-1.838,2.383-2.716,3.552c-0.314,0.416-1.27,1.379-1.255,1.933
		c0.011,0.41,0.454,0.788,0.731,1.15c0.883,1.154,1.646,2.201,2.455,3.239c0.848,1.031,1.62,2.106,2.508,3.187
		c0.211,0.255,0.647,0.952,0.993,0.941c0.489-0.017,1.318-1.388,1.62-1.776c0.566-0.731,1.015-1.384,1.462-1.985
		c2.501-3.363,5.022-6.49,7.42-9.719c0.486-0.655,1.074-1.33,1.306-2.143C51.265,3.998,50.224,4.121,49.218,4.121z M55.121,8.145
		C55.06,8.169,55.003,8.2,54.965,8.249c-0.464,0.357-0.862,1.043-1.306,1.619c-1.283,1.669-2.695,3.35-3.867,4.911
		c-1.721,2.297-3.427,4.445-4.963,6.688c-0.037,5.604,0,11.43,0,17.085c0,1.929-0.11,3.797,0.156,5.486
		c0.744,0.259,1.651,0.179,2.508,0.209c0.851,0.031,1.7,0.032,2.561,0c1.791-0.066,3.712,0.199,5.277-0.209
		c0.285-11.392,0.105-22.859,0.104-34.64c0-0.399,0.129-0.951-0.262-1.254C55.156,8.145,55.14,8.145,55.121,8.145z M70.222,25.491
		c-3.408,0.018-6.859-0.09-10.084,0.104c-0.367,1.186-0.209,2.531-0.209,3.865c-0.001,4.012-0.052,8.362-0.052,12.174
		c0,0.589,0.004,1.32,0.208,1.829c0.622-0.197,1.006-0.827,1.358-1.307c1.163-1.576,2.401-3.025,3.501-4.598
		c0.823-0.979,1.568-2.007,2.351-3.03c0.777-1.015,1.659-1.988,2.404-3.03c0.35-0.489,0.579-1.046,0.94-1.516
		c0.716-0.934,1.428-1.86,2.142-2.768c0.363-0.463,0.875-0.88,0.94-1.516C72.663,25.364,71.427,25.485,70.222,25.491z
		 M21.317,27.685c-0.485,0.498-1.136,1.299-1.672,1.986c-1.611,2.062-3.171,4.215-4.702,6.165c-1.614,2.054-3.163,4.065-4.702,6.113
		c-0.519,0.689-1.306,1.286-1.464,2.193c0.61,0.299,1.344,0.163,2.038,0.157c3.435-0.03,7.176,0.135,10.763,0
		c1.302-1.197,2.316-2.67,3.396-4.075c1.075-1.4,2.197-2.823,3.03-4.442c-1.346-2.31-3.049-4.266-4.702-6.269
		c-0.574-0.681-0.922-1.586-1.829-1.934C21.412,27.606,21.355,27.637,21.317,27.685z"/>
</g>
<g id="Layer_1">
</g>
</svg>
