<?xml version="1.0" encoding="iso-8859-1"?>
<!-- Generator: Adobe Illustrator 19.2.0, SVG Export Plug-In . SVG Version: 6.00 Build 0)  -->
<svg version="1.1" xmlns="http://www.w3.org/2000/svg" xmlns:xlink="http://www.w3.org/1999/xlink" x="0px" y="0px"
	 viewBox="0 0 70.419 72.315" style="enable-background:new 0 0 70.419 72.315;" xml:space="preserve">
<g id="Yamamura_x5F_Senkaku">
	<path style="fill-rule:evenodd;clip-rule:evenodd;" d="M61.603,0.243c0.231,5.62,0.039,11.111,0.193,16.672
		c0.545,0.328,1.297,0.192,2.018,0.192c2.059,0,4.512-0.078,6.439,0.096c0.227,5.506,0.145,11.554,0.143,17.345
		c0,0.782,0.109,1.614-0.143,2.355c-1.723,0.221-4.096,0.144-6.246,0.144c-0.742,0-1.525-0.101-2.115,0.048
		c-0.955,0.241-2.057,2.269-2.642,3.027c-4.15,5.364-7.979,10.76-12.012,16.192c-1.619,2.181-3.238,4.355-4.805,6.487
		c-1.605,2.183-3.066,4.601-4.998,6.294c-1.941,1.704-4.818,2.848-8.168,3.123c-1.803,0.148-3.664,0.048-5.525,0.048
		c-4.621,0-8.791,0.048-13.358,0.048c-0.412,0-0.824-0.067-1.25-0.048c-0.4,0.018-0.805,0.084-1.152-0.145
		C7.726,70.66,7.954,69.09,7.886,67.51C7.683,62.895,8.23,57.98,7.741,53.625c-1.109-0.258-2.49-0.144-3.795-0.145
		c-1.313,0-2.609-0.019-3.75-0.144c-0.158-5.665-0.158-12.015,0-17.73c2.346-0.295,5.195,0.175,7.496-0.192
		c0.438-0.557,0.289-1.36,0.289-2.066c0-3.616-0.061-7.595-0.049-11.291c0.006-1.483,0.168-2.957-0.145-4.276
		c-1.129-0.255-2.516-0.128-3.746-0.192c-1.305-0.068-2.639,0.017-3.846-0.096c-0.25-1.307-0.082-2.715-0.143-4.18
		c-0.121-2.847,0-5.896,0-8.937c0-0.745,0-1.517,0-2.258c0-0.701-0.154-1.472,0.191-2.066c3.457-0.035,8.144,0,11.725,0
		c2.121-0.001,3.844-0.063,5.236,0.721c1.24,0.697,2.324,1.776,3.172,2.834c2.646,3.302,5.316,6.731,7.783,10.331
		c0.359,0.524,0.814,1.082,1.297,1.73c0.355,0.476,0.975,1.524,1.443,1.538c0.486,0.014,1.197-1.153,1.488-1.538
		c0.488-0.645,0.848-1.276,1.297-1.73c2.17-3.072,4.455-6.044,6.68-9.129c1.412-1.961,3.176-4.012,5.91-4.613
		c1.479-0.325,3.217-0.144,5.094-0.144c2.553-0.001,5.09,0.048,7.783,0.048C59.97,0.098,60.831-0.013,61.603,0.243z M38.108,33.588
		c-0.486-0.683-1.055-1.291-1.539-1.97c-2.926-4.102-5.871-8.194-9.08-11.964c-0.904-0.726-1.934-1.272-3.268-1.633
		c-1.355-0.367-2.996-0.216-4.709-0.241c-2.963-0.042-6.996-0.145-9.945,0.048c-0.426,1.109-0.176,2.405-0.193,3.7
		c-0.027,2.189-0.096,4.549-0.096,6.919c0,2.358-0.111,4.729,0.144,6.871c0.49,0.348,1.17,0.216,1.777,0.192
		c2.008-0.08,4.106,0.104,6.102,0.048c1.152,1.045,1.975,2.403,2.883,3.651c0.924,1.267,1.922,2.479,2.836,3.748
		c0.914,1.268,1.848,2.538,2.787,3.796c0.703,0.943,1.418,1.889,2.017,2.883c0.213,0.353,0.578,0.655,0.576,1.105
		c-0.234,0.621-0.654,1.179-1.152,1.585c-1.814,1.48-5.15,1.153-8.457,1.153c-1.586,0-3.18-0.048-4.709,0
		c-1.621,0.051-3.209-0.164-4.564,0.145c-0.363,0.521-0.24,1.261-0.24,1.921c0,3.644-0.115,7.125-0.096,10.859
		c0.004,0.774-0.274,3.651,0.191,4.132c0.354,0.366,1.773,0.24,2.451,0.24c2.963,0,5.498,0.048,8.168,0.048
		c3.555,0,7.25,0.2,10.475-0.24c3.268-0.446,5.379-1.786,7.16-3.748c1.752-1.931,3.293-4.073,4.805-6.15
		c5.717-7.861,11.555-15.755,17.393-23.544c0.406-0.54,0.838-1.312,1.299-1.441c0.516-0.145,1.27-0.048,1.969-0.048
		c1.953,0,4.383,0.095,5.815-0.145c0.389-1.285,0.117-2.742,0.144-4.132c0.055-2.864,0-5.576,0-8.408
		c-0.002-1.438,0.115-2.918-0.144-4.276c-0.816-0.245-1.744-0.144-2.643-0.144c-2.74,0-5.738,0.008-8.408,0
		c-3.842-0.011-6.51,1.288-8.072,3.651c-3.047,3.755-5.943,7.829-8.793,11.724c-0.399,0.545-0.707,1.252-1.346,1.585
		C38.968,35.023,38.579,34.252,38.108,33.588z"/>
</g>
<g id="Layer_1">
</g>
</svg>
