<?xml version="1.0" encoding="iso-8859-1"?>
<!-- Generator: Adobe Illustrator 19.2.0, SVG Export Plug-In . SVG Version: 6.00 Build 0)  -->
<svg version="1.1" xmlns="http://www.w3.org/2000/svg" xmlns:xlink="http://www.w3.org/1999/xlink" x="0px" y="0px"
	 viewBox="0 0 46.971 78.98" style="enable-background:new 0 0 46.971 78.98;" xml:space="preserve">
<g id="Yashiro_x5F_Kuwayama">
	<path style="fill-rule:evenodd;clip-rule:evenodd;" d="M12.61,2.46c0.914,0.787,1.696,1.707,2.553,2.552
		c1.626,1.76,3.461,3.313,5.007,5.154c0.177,8.18-0.071,16.344,0.098,24.251c0.01,0.446-0.09,0.965,0.148,1.375
		c0.576-0.035,0.874-0.58,1.227-0.933c2.453-2.452,5.034-4.957,7.511-7.461c1.438-1.479,2.749-2.895,4.223-4.37
		c1.441-1.441,2.89-2.992,5.4-3.142c1.625-0.097,3.152,0.562,4.074,1.228c1.867,1.347,3.464,4.566,2.209,7.707
		c-0.76,1.902-2.924,3.808-4.32,5.204c-0.766,0.766-1.593,1.512-2.455,2.308c-0.418,0.386-0.723,0.885-1.129,1.276
		c-3.156,3.041-6.292,6.295-9.475,9.573c-0.381,0.393-1.071,0.891-1.08,1.276c-0.008,0.349,0.738,1.054,1.129,1.473
		c1.256,1.346,2.647,2.598,3.878,3.829c3.607,3.608,6.57,6.815,10.161,10.408c1.167,1.168,2.529,2.578,3.83,3.879
		c0.459,0.458,1.149,0.963,1.276,1.423c0.181,0.653,0.049,1.561,0.049,2.356c0,1.688-0.009,3.112,0,4.713
		c0.004,0.732,0.107,1.524-0.146,2.209c-0.925,0.244-2.755,0.233-3.682,0c-0.306-1.562,0.036-3.675-0.246-5.155
		c-0.78-0.241-1.84-0.151-2.798-0.196c-0.985-0.047-1.997-0.045-2.749,0.147c-0.416,1.545,0.089,3.798-0.343,5.252
		c-1.063,0.163-2.767,0.16-3.83,0c-0.509-1.57,0.183-3.359-0.147-5.056c-0.099-0.507-0.814-1.011-1.276-1.473
		c-3.186-3.186-6.417-6.576-9.573-9.671c-0.598-0.449-0.926-1.168-1.718-1.423c-0.265,0.644-0.173,1.368-0.148,2.062
		c0.026,0.697-0.038,1.436-0.049,2.16c-0.066,4.328,0.15,8.943-0.098,13.353c-0.96,0.295-2.746,0.276-3.829,0.049
		c-0.42-1.429,0.126-3.825-0.295-5.252c-1.916-0.261-3.938-0.062-5.94-0.098c-1.968-0.036-3.984-0.176-5.842,0.098
		c-0.384,1.448-0.015,3.65-0.294,5.204c-0.852,0.338-2.802,0.268-3.731,0.049c-0.196-5.425-0.148-10.985-0.147-16.69
		c0.002-17.337-0.096-34.817,0-52.135c0.595-0.909,1.502-1.698,2.356-2.552c1.994-1.994,4.042-4.14,6.088-6.186
		c0.25-0.25,1.16-1.309,1.473-1.227c0.531,0.14,0.971,0.774,1.374,1.178C11.793,1.642,12.269,2.047,12.61,2.46z M9.664,5.846
		c-0.708,0.683-1.42,1.362-2.111,2.062C7.14,8.435,6.953,8.607,6.572,8.988c-0.29,0.29-0.948,0.677-0.933,1.178
		c0.013,0.422,0.562,0.807,0.933,1.179c0.767,0.766,1.289,1.337,2.111,2.16c0.301,0.301,0.883,0.951,1.228,0.933
		c0.377-0.02,0.896-0.699,1.178-0.981c0.891-0.891,1.372-1.372,2.209-2.209c0.299-0.299,0.991-0.743,0.981-1.227
		c-0.007-0.383-0.642-0.867-0.981-1.178c-0.825-0.758-1.371-1.438-2.16-2.161c-0.343-0.313-0.805-1.116-1.325-0.883
		C9.744,5.795,9.704,5.82,9.664,5.846z M4.019,14.781c-0.081,1.023-0.06,2.189-0.049,3.338c0.011,1.16,0,2.335,0,3.485
		C3.969,32.879,4.019,44.417,4.019,55.722c0,4.52-0.083,8.991,0.147,13.353c0.416,0.268,1.121,0.188,1.816,0.196
		c0.643,0.008,1.688,0.109,1.964-0.196c0.28-0.31,0.148-2.087,0.148-3.044c0-3.444-0.001-6.37,0-9.572
		c0-4.592-0.049-8.212-0.05-12.42c0-7.563-0.084-15.091,0-22.435c0.01-0.878,0.125-2.28-0.048-3.092
		c-0.132-0.619-1.229-1.524-1.767-2.062c-0.536-0.536-1.464-1.541-2.062-1.816C4.096,14.661,4.046,14.71,4.019,14.781z
		 M15.801,14.633c-1.403,1.15-2.66,2.446-3.781,3.879c-0.097,6.18,0.049,12.882,0.05,19.194c0,2.154-0.211,4.29,0.098,6.333
		c0.53,0,0.827-0.484,1.129-0.785c0.99-0.991,1.98-1.874,2.847-2.946c0.007-7.849,0.044-16.25,0-24.3
		c-0.003-0.441,0.126-1.075-0.295-1.374C15.833,14.633,15.817,14.633,15.801,14.633z M36.566,25.679
		c-0.433,1.6,0.727,3.042,1.62,3.338c1.969,0.651,4.191-1.476,3.191-3.682c-0.368-0.812-1.433-1.689-2.798-1.473
		C37.569,24.023,36.765,24.945,36.566,25.679z M34.357,30.784c-0.315-0.363-0.798-1.481-1.276-1.62
		c-0.309-0.089-1.139,0.874-1.375,1.129c-2.158,2.338-4.479,4.577-6.677,6.774c-3.444,3.445-7.069,6.863-10.113,10.064
		c-0.232,0.541-1.055,0.701-1.03,1.375c0.012,0.341,0.768,1.028,1.128,1.423c1.275,1.393,2.642,2.566,3.878,3.829
		c4.367,4.462,8.453,8.502,12.862,12.911c0.613,0.613,1.795,2.279,2.651,2.504c0.441,0.116,0.954-0.007,1.522,0
		c1.498,0.019,3.518,0.202,4.713-0.098c-0.166-0.608-0.715-0.961-1.129-1.374c-1.265-1.266-2.31-2.701-3.632-3.878
		c-4.283-4.24-8.722-8.87-13.058-13.206c-0.353-0.353-1.778-1.486-1.768-2.012c0.008-0.388,0.576-0.747,0.883-1.08
		c2.265-2.454,4.602-4.671,6.824-6.971c2.043-1.897,3.954-3.954,5.891-5.891c0.652-0.652,1.523-1.195,1.866-2.11
		C36.005,31.953,35.057,31.591,34.357,30.784z M12.168,53.023C12,53.432,12.07,54.316,12.07,54.987
		c0,4.814-0.106,9.885,0.147,14.138c0.974,0.243,2.854,0.235,3.829,0c0.274-3.403-0.008-7.498,0.049-10.996
		c0.01-0.576,0.131-1.116,0-1.522c-0.186-0.577-1.351-1.4-1.816-1.866c-0.721-0.722-1.229-1.422-1.963-1.816
		C12.257,52.948,12.204,52.977,12.168,53.023z"/>
</g>
<g id="Layer_1">
</g>
</svg>
