<?xml version="1.0" encoding="iso-8859-1"?>
<!-- Generator: Adobe Illustrator 21.0.2, SVG Export Plug-In . SVG Version: 6.00 Build 0)  -->
<svg version="1.1" xmlns="http://www.w3.org/2000/svg" xmlns:xlink="http://www.w3.org/1999/xlink" x="0px" y="0px"
	 viewBox="0 0 20.868 24.103" style="enable-background:new 0 0 20.868 24.103;" xml:space="preserve">
<g id="Yellow_x5F_Jacket">
	<path d="M10.32,0.068c0.08-0.046,0.18-0.103,0.269-0.042c3.404,2.044,6.818,4.071,10.229,6.101
		c-0.057,4.019-0.05,8.062-0.132,12.085c-3.492,1.911-6.942,3.911-10.398,5.891C6.858,22.052,3.426,19.989,0,17.938
		c0.031-3.686,0.084-7.373,0.115-11.057C0.201,6.555,0.018,6.158,0.21,5.874C3.562,3.909,6.963,2.026,10.32,0.068z M10.47,2.129
		C7.614,3.687,4.84,5.409,1.957,6.915c-0.079,3.344-0.141,6.709-0.097,10.052c2.769,1.595,5.52,3.23,8.251,4.896
		c0.093,0.067,0.226,0.111,0.327,0.033c2.787-1.641,5.633-3.178,8.433-4.791c0.079-3.317,0.086-6.653,0.107-9.973
		C16.099,5.543,13.334,3.734,10.47,2.129z"/>
	<path d="M16.502,0.06c0.556-0.027,1.113,0.009,1.67-0.009c0.013,0.149,0.014,0.298,0.006,0.448c-0.193-0.009-0.39-0.031-0.577,0.03
		c-0.022,0.55,0.039,1.106-0.044,1.652c-0.164-0.004-0.327-0.011-0.491-0.009c-0.008-0.563,0.01-1.126-0.001-1.689
		C16.749,0.537,16.271,0.5,16.502,0.06z"/>
	<path d="M18.442,0.046c0.244,0.072,0.496-0.038,0.738,0.065c0.123,0.424,0.251,0.889,0.483,1.251
		c0.137-0.431,0.354-0.833,0.478-1.27c0.241,0.021,0.5-0.05,0.727,0.046c-0.003,0.241,0.008,0.485-0.021,0.726
		c0.032,0.132,0.023,0.268-0.001,0.402c0.027,0.316,0.035,0.641-0.031,0.953c-0.158-0.008-0.316-0.011-0.473-0.006
		c-0.002-0.459,0.02-0.919-0.015-1.377c-0.166,0.447-0.375,0.878-0.5,1.341c-0.121,0.015-0.241,0.03-0.362,0.042
		c-0.172-0.475-0.312-0.961-0.53-1.418c-0.027,0.458,0.005,0.918-0.022,1.376c-0.157,0.005-0.315,0.006-0.472-0.005
		C18.434,1.464,18.437,0.755,18.442,0.046z"/>
	<path d="M5.629,8.162c1.633,0.833,3.163,1.894,4.78,2.772c1.617-0.877,3.195-1.848,4.832-2.679c0.27,0.54,0.585,1.057,0.868,1.591
		c-1.597,0.889-3.188,1.789-4.78,2.687c-0.122,1.842,0.002,3.708-0.095,5.551c-0.604,0.016-1.209-0.007-1.814,0.001
		c-0.023-1.852,0.06-3.7,0.035-5.552c-1.572-0.929-3.13-1.878-4.7-2.809C4.992,9.177,5.328,8.676,5.629,8.162z"/>
</g>
<g id="Layer_1">
</g>
</svg>
