<svg id="Layer_1" data-name="Layer 1" xmlns="http://www.w3.org/2000/svg" viewBox="0 0 107.3 133.09"><title>yellow-pages_logo</title><path d="M98,75.18s-.86,6.51,2.14,11.14a51.06,51.06,0,0,1,6.53,16.62c1.75,8.35-.47,15.1-1.63,18.92-.92,3-3.3,8.54-8,16.58l-8.94,15.35c.84.37,5.9,10,21.59-5.19C120.5,138.15,128,131.14,128,131.14c1.16-1.05,2.26-1.27,3.12.08,1.06,1.65,25.65,39.58,36.12,55.76,7.27,11.23,8.85,13.13,11.41,16.06,5.46,6.22,13.87,6.15,16.7,3.61L136.64,75.18Z" transform="translate(-88.08 -75.18)"/><path d="M100.18,190.72c-3.68,6.69-1.85,16.4,7.67,16.47l32.88-51.31L129.19,138S128.31,139.68,100.18,190.72Z" transform="translate(-88.08 -75.18)"/></svg>