<?xml version="1.0" encoding="iso-8859-1"?>
<!-- Generator: Adobe Illustrator 21.0.2, SVG Export Plug-In . SVG Version: 6.00 Build 0)  -->
<svg version="1.1" xmlns="http://www.w3.org/2000/svg" xmlns:xlink="http://www.w3.org/1999/xlink" x="0px" y="0px"
	 viewBox="0 0 14.747 16.956" style="enable-background:new 0 0 14.747 16.956;" xml:space="preserve">
<g id="YMCA_x5F_2011">
	<path d="M12.894,0.021c0.422,0.024,0.851-0.077,1.266,0.027c0.48,0.145,0.733,0.748,0.497,1.19c-0.931,1.714-1.928,3.391-2.867,5.1
		c-0.171,0.319-0.319,0.729-0.701,0.842c-0.389,0.145-0.853-0.059-1.034-0.428C9.037,4.996,7.985,3.262,6.961,1.51
		C6.533,0.996,6.877,0.093,7.572,0.081C9.346,0.058,11.119,0.028,12.894,0.021z"/>
	<path d="M2.183,0.139c0.592-0.005,1.185-0.009,1.778-0.01c0.723-0.03,1.437,0.4,1.762,1.045c1.316,2.232,2.642,4.456,3.948,6.693
		c0.44,0.665,0.44,1.582,0.013,2.253c-1.104,1.986-2.247,3.947-3.365,5.925c-0.368,0.596-1.09,0.897-1.773,0.876
		c-1.086-0.003-2.169,0.034-3.255,0.034c-0.496,0.014-0.823-0.625-0.536-1.023c1.167-2.052,2.394-4.068,3.502-6.152
		c0.24-0.603,0.204-1.319-0.151-1.87C2.81,5.659,1.443,3.452,0.119,1.218c-0.267-0.365-0.06-0.95,0.39-1.039
		C1.064,0.12,1.625,0.156,2.183,0.139z"/>
</g>
<g id="Layer_1">
</g>
</svg>
