<?xml version="1.0" encoding="iso-8859-1"?>
<!-- Generator: Adobe Illustrator 19.2.0, SVG Export Plug-In . SVG Version: 6.00 Build 0)  -->
<svg version="1.1" xmlns="http://www.w3.org/2000/svg" xmlns:xlink="http://www.w3.org/1999/xlink" x="0px" y="0px"
	 viewBox="0 0 60.314 73.736" style="enable-background:new 0 0 60.314 73.736;" xml:space="preserve">
<g id="Yokota_x5F_Silk">
	<path style="fill-rule:evenodd;clip-rule:evenodd;" d="M47.087,7.065c-10.954,0.255-23.052,0.119-34.304,0
		c-0.083-0.423,0.401-0.62,0.629-0.823c0.778-0.692,1.613-1.408,2.519-2.036c2.321-1.604,5.386-2.917,8.528-3.634
		c0.85-0.193,1.721-0.345,2.616-0.436c7.861-0.793,14.348,1.998,18.557,5.378C46.139,6.011,46.894,6.256,47.087,7.065z"/>
	<path style="fill-rule:evenodd;clip-rule:evenodd;" d="M43.453,13.218c1.366-0.106,2.437,0.303,3.149,0.775
		c1.723,1.141,3.027,4.088,1.502,6.589c-0.761,1.249-2.617,2.497-4.7,2.326c-1.63-0.134-3.267-1.068-3.973-2.471
		c-0.586-1.165-0.685-3.474,0.048-4.846C40.065,14.497,41.455,13.373,43.453,13.218z"/>
	<path style="fill-rule:evenodd;clip-rule:evenodd;" d="M11.136,17.433c0.606-2.181,1.994-3.878,4.458-4.069
		c2.575-0.201,4.515,1.404,5.184,3.149c0.993,2.59-0.517,5.125-2.374,6.008c-2.585,1.229-5.514,0.062-6.686-1.89
		C11.241,19.837,11.064,18.87,11.136,17.433z"/>
	<path style="fill-rule:evenodd;clip-rule:evenodd;" d="M54.258,27.22c0.589-0.328,1.062,0.747,1.405,1.26
		c1.007,1.505,2.006,3.329,2.665,5.039c0.93,2.415,1.792,5.284,1.938,8.334c0.347,7.225-1.235,12.354-3.682,16.716
		c-2.411,4.298-5.843,7.737-10.126,10.466c-4.179,2.661-9.328,4.762-15.795,4.7c-6.454-0.062-11.873-1.693-16.231-4.361
		C7.97,65.419,3.343,59.89,1.058,51.834c-0.735-2.593-1.202-5.684-1.018-9.158c0.181-3.4,0.821-5.904,1.745-8.527
		c0.643-1.828,1.517-3.449,2.568-5.136c0.261-0.419,0.738-1.341,1.163-1.404c0.586-0.089,2.157,0.776,2.713,0.969
		c4.602,1.586,9.366,2.751,14.923,3.343c2.243,0.239,4.568,0.306,6.929,0.388c4.772,0.165,9.163-0.604,13.034-1.502
		c3.513-0.816,6.632-1.884,9.787-3.004C53.372,27.635,53.815,27.41,54.258,27.22z"/>
</g>
<g id="Layer_1">
</g>
</svg>
