<?xml version="1.0" encoding="iso-8859-1"?>
<!-- Generator: Adobe Illustrator 19.2.0, SVG Export Plug-In . SVG Version: 6.00 Build 0)  -->
<svg version="1.1" xmlns="http://www.w3.org/2000/svg" xmlns:xlink="http://www.w3.org/1999/xlink" x="0px" y="0px"
	 viewBox="0 0 177.399 104.637" style="enable-background:new 0 0 177.399 104.637;" xml:space="preserve">
<g id="Yonex_x5F_75">
	<path style="fill-rule:evenodd;clip-rule:evenodd;" d="M48.259,0.067c0.773,1.027,1.215,2.264,1.818,3.397
		c1.789,3.363,3.429,6.87,5.167,10.335c1.152,2.294,2.187,4.671,3.35,6.985c4.593,9.135,9.063,18.386,13.637,27.704
		c0.803,1.636,1.7,3.382,2.583,5.167c0.282,0.569,0.769,1.387,0.767,1.818c-0.003,0.393-0.391,0.985-0.622,1.483
		c-1.521,3.269-3.237,6.461-4.833,9.57c-0.943,1.838-1.855,3.665-2.775,5.455c-0.938,1.823-1.69,3.723-2.823,5.406
		c-0.618-0.668-0.893-1.553-1.292-2.345c-1.202-2.393-2.435-4.799-3.636-7.225c-1.595-3.224-3.07-6.519-4.737-9.713
		c-1.661-3.184-3.194-6.45-4.784-9.665c-6.36-12.861-12.865-25.727-19.234-38.613c-1.194-2.414-2.45-4.806-3.637-7.225
		c-0.395-0.804-0.891-1.602-1.101-2.488C33.346-0.084,41.268,0.027,48.259,0.067z"/>
	<path style="fill-rule:evenodd;clip-rule:evenodd;" d="M67.494,0.115c18.366,0.07,36.921,0.024,55.264,0.239
		c1.251,2.211,2.403,4.501,3.493,6.842c1.074,2.309,2.32,4.568,3.444,6.89c1.111,2.296,2.345,4.545,3.445,6.89
		c3.29,7.006,6.643,13.878,10.096,20.861c1.689,3.416,3.371,6.905,5.12,10.383c0.583,1.16,1.324,2.313,1.674,3.445
		c0.091,0.292-0.386,1.127-0.621,1.579c-3.088,5.918-5.95,11.9-8.948,17.847c-0.45,0.894-0.809,1.874-1.483,2.632
		c-0.602-0.634-0.863-1.493-1.244-2.249c-0.782-1.558-1.559-3.078-2.344-4.642c-0.395-0.783-0.657-1.653-1.053-2.44
		c-3.879-7.714-7.731-15.505-11.627-23.253c-6.196-12.325-12.291-24.84-18.517-37.225c-0.575-1.144-1.208-2.248-1.771-3.445
		c-0.168-0.357-0.236-0.872-0.67-1.053c-0.48,0.334-0.633,0.953-0.861,1.436c-0.72,1.519-1.53,3.043-2.297,4.593
		c-1.014,2.051-1.979,4.138-2.967,6.22c-1.96,4.138-4.151,8.185-6.076,12.297c-0.684,1.33-1.403,2.692-2.058,4.067
		c-0.66,1.387-1.249,2.805-2.105,4.02c-0.545-0.621-0.876-1.427-1.243-2.153c-4.139-8.183-8.277-16.407-12.44-24.689
		c-1.087-2.161-2.268-4.461-3.398-6.746C68.003,1.842,67.2,0.595,67.35,0.21C67.385,0.166,67.437,0.138,67.494,0.115z"/>
	<path style="fill-rule:evenodd;clip-rule:evenodd;" d="M177.399,0.45c-0.156,0.822-0.582,1.55-0.957,2.297
		c-0.373,0.741-0.732,1.503-1.101,2.248c-0.744,1.504-1.367,3.053-2.106,4.545c-4.049,8.19-8.221,16.298-12.153,24.594
		c-0.338,0.714-0.699,1.475-1.195,2.105c-0.583-0.597-0.875-1.406-1.244-2.153c-1.086-2.195-2.293-4.504-3.398-6.747
		c-3.334-6.74-6.861-13.426-10.239-20.143c-0.853-1.695-1.681-3.371-2.536-5.072c-0.265-0.525-0.677-1.061-0.718-1.675
		C153.343,0.151,165.38,0.439,177.399,0.45z"/>
	<path style="fill-rule:evenodd;clip-rule:evenodd;" d="M26.776,48.153c4.415-0.261,8.712,0.76,11.962,2.105
		c3.369,1.395,6.071,3.35,8.469,5.55c4.774,4.382,8.3,10.613,8.852,19.187c0.296,4.587-0.652,8.657-2.009,11.962
		c-1.39,3.383-3.29,6.157-5.503,8.517c-4.598,4.901-10.701,8.248-19.187,8.852c-4.43,0.315-8.629-0.682-11.866-2.104
		c-6.517-2.866-11.452-7.237-14.546-13.493c-1.526-3.087-2.737-6.791-2.919-11.101c-0.387-9.218,3.148-15.976,7.513-20.574
		c3.891-4.099,8.918-7.401,15.98-8.565C24.61,48.309,25.783,48.212,26.776,48.153z"/>
	<path style="fill-rule:evenodd;clip-rule:evenodd;" d="M102.088,48.393c4.236-0.202,8.67,1.04,11.675,2.392
		c3.319,1.494,6.021,3.391,8.325,5.694c3.509,3.508,6.345,7.806,7.655,13.444c0.44,1.893,0.656,3.864,0.766,6.221
		c0.207,4.428-0.865,8.481-2.296,11.675c-2.899,6.468-7.567,11.202-13.828,14.21c-1.571,0.755-3.362,1.387-5.216,1.818
		c-1.938,0.453-4.036,0.662-6.22,0.766c-4.413,0.21-8.394-0.989-11.579-2.392c-3.303-1.455-6.076-3.347-8.421-5.599
		c-2.395-2.299-4.362-4.983-5.838-8.23c-0.722-1.588-1.231-3.357-1.817-5.216c-0.585-1.853-0.814-4.096-0.814-6.172
		c0-9.243,3.306-15.414,7.943-20.144c2.304-2.35,4.924-4.308,8.182-5.837c3.196-1.501,6.841-2.63,11.388-2.632
		C102.024,48.393,102.056,48.394,102.088,48.393z"/>
</g>
<g id="Layer_1">
</g>
</svg>
