<?xml version="1.0" encoding="iso-8859-1"?>
<!-- Generator: Adobe Illustrator 19.2.0, SVG Export Plug-In . SVG Version: 6.00 Build 0)  -->
<svg version="1.1" xmlns="http://www.w3.org/2000/svg" xmlns:xlink="http://www.w3.org/1999/xlink" x="0px" y="0px"
	 viewBox="0 0 79.78 66.115" style="enable-background:new 0 0 79.78 66.115;" xml:space="preserve">
<g id="Yonen_x5F_Geizyutu">
	<path style="fill-rule:evenodd;clip-rule:evenodd;" d="M29.311,12.248c-1.319,0.323-2.626-0.159-3.528-0.735
		c-1.458-0.931-2.7-2.654-2.843-4.804c-0.224-3.36,2.017-5.813,4.754-6.519c2.702-0.696,5.113,0.63,6.323,2.107
		c0.325,0.398,1.095,1.294,0.981,1.961c-0.087,0.503-0.948,0.624-1.471,0.833c-2.099,0.84-3.839,2.9-4.068,5.539
		C29.412,11.16,29.597,11.768,29.311,12.248z"/>
	<path style="fill-rule:evenodd;clip-rule:evenodd;" d="M30.635,13.131c-1.354-1.709-0.13-4.911,0.979-6.127
		c1.349-1.225,2.658-2.199,5.294-2.01c3.992,0.286,7.17,4.8,5.049,9.019c-0.232,0.46-1.136,1.956-1.862,1.96
		c-0.494,0.003-1.068-0.97-1.422-1.324c-1.182-1.182-2.804-2.058-5.049-2.059C32.545,12.591,31.719,12.974,30.635,13.131z"/>
	<path style="fill-rule:evenodd;clip-rule:evenodd;" d="M22.106,5.386c0.354,0.855,0.251,2.063,0.44,2.745
		c0.571,2.053,2.166,3.574,4.117,4.313c0.529,0.201,1.3,0.36,1.422,0.687c0.116,0.31-0.171,1.02-0.295,1.274
		c-0.479,0.992-1.672,2.051-2.548,2.549c-1.141,0.648-2.997,0.979-4.51,0.588c-2.74-0.708-5.054-3.664-4.559-7.058
		c0.418-2.864,2.287-4.381,5.146-5.147C21.523,5.283,21.803,5.211,22.106,5.386z"/>
	<path style="fill-rule:evenodd;clip-rule:evenodd;" d="M30.096,14.503c0.469-0.866,1.878-1.334,3.137-1.421
		c3.538-0.244,6.103,2.125,6.666,4.951c0.624,3.129-1.229,5.763-3.432,6.813c-1.387,0.662-3.46,0.76-5.048,0.196
		c-0.417-0.148-1.129-0.457-1.177-0.882c-0.062-0.542,0.875-1.408,1.078-1.813c0.903-1.801,0.769-4.318-0.146-5.979
		C30.781,15.654,30.338,15.378,30.096,14.503z"/>
	<path style="fill-rule:evenodd;clip-rule:evenodd;" d="M19.41,17.738c1.043,0.06,2.018,0.469,3.088,0.441
		c2.815-0.074,4.635-1.875,5.882-3.529c0.638-0.248,1.487,0.688,1.813,1.128c0.91,1.228,1.538,3.562,0.932,5.538
		c-0.731,2.381-3.291,4.509-6.52,4.265c-2.896-0.22-5.404-2.58-5.637-5.588C18.917,19.32,18.85,18.411,19.41,17.738z"/>
	<path style="fill-rule:evenodd;clip-rule:evenodd;" d="M79.502,36.314c0.366,0.375,0.245,1.152,0.245,1.863
		c0,0.644,0.104,1.499-0.098,1.961c-0.202,0.462-1.269,0.78-1.912,1.029c-2.139,0.831-4.364,1.542-6.372,2.353
		c-2.159,0.873-4.219,1.593-6.322,2.402c-0.691,0.266-1.489,0.397-1.912,0.98c-0.139,0.674-0.072,1.32-0.098,1.96
		c-0.023,0.59-0.136,1.481,0.098,2.059c0.2,0.495,1.2,0.782,1.863,1.029c4.208,1.57,8.475,2.797,12.743,4.412
		c0.585,0.221,1.719,0.555,1.912,0.931c0.217,0.424,0.098,1.354,0.098,1.96c0,0.691,0.107,1.41-0.196,1.814
		c-0.83,0.063-1.638-0.328-2.401-0.588c-4.459-1.519-9.024-3.101-13.626-4.657c-0.896-0.302-1.492-0.81-2.402-0.784
		c-0.611,0.017-1.379,0.367-2.058,0.637c-4.524,1.798-8.994,3.21-13.627,4.951c-4.622,1.736-8.998,3.139-13.724,4.853
		c-0.688,0.249-1.499,0.634-2.01,0.637c-0.582,0.003-1.256-0.467-1.912-0.735c-4.425-1.811-8.551-3.731-12.891-5.637
		c-4.092-1.797-8.524-3.876-12.842-5.685c-0.393-0.166-1.604-0.565-1.617-0.98c-0.015-0.487,1.214-0.807,1.667-1.029
		c1.299-0.639,2.417-1.093,3.676-1.716c0.587-0.29,1.259-0.489,1.667-0.98c-0.306-0.681-1.138-0.848-1.766-1.127
		c-1.27-0.567-2.568-1.255-3.872-1.862C1.182,46.068,0.427,45.897,0,45.333c0.339-0.517,0.989-0.777,1.52-1.029
		c4.002-1.905,8.144-3.743,12.205-5.637c3.495-1.631,7-3.164,10.489-4.804c1.118-0.526,2.36-0.92,3.283-1.764
		c0.087-0.877,0.05-1.973,0.05-3.088c0-1.086-0.189-2.327,0.098-3.039c0.287-0.712,1.058-0.722,1.617-1.176
		c0.675-0.144,1.977,0.509,2.206,1.029c0.292,0.666,0.082,1.895,0.098,2.99c0.017,1.161-0.052,2.285,0.049,3.088
		c0.285,0.615,1.016,0.752,1.569,0.98c1.779,0.735,3.734,1.272,5.637,1.961c4.934,1.789,9.896,3.511,14.949,5.343
		c1.721,0.624,3.788,1.29,5.685,1.911c0.712,0.233,1.371,0.591,2.01,0.588c0.739-0.003,1.573-0.467,2.353-0.735
		c2.214-0.762,4.572-1.709,6.666-2.5c2.287-0.863,4.413-1.697,6.715-2.5C77.938,36.694,78.689,36.339,79.502,36.314z M27.547,59.4
		c0.001-6.423-0.001-13.066,0-19.704c0-0.789,0.321-2.903-0.687-2.549c-0.751,0.264-1.505,0.637-2.255,0.98
		c-2.297,1.052-4.195,2.102-6.567,3.137c-2.24,0.978-4.362,2.037-6.617,3.088c-0.471,0.219-2.059,0.714-2.059,1.226
		c0,0.384,1.086,0.836,1.471,1.029c1.307,0.657,2.277,1.054,3.431,1.569c0.527,0.235,1.247,0.378,1.519,1.029
		c-0.808,0.806-1.981,1.112-3.186,1.667c-0.471,0.217-0.979,0.546-1.617,0.833c-0.438,0.196-1.492,0.485-1.471,0.98
		c0.02,0.449,1.482,0.985,2.01,1.225c4.544,2.069,8.985,4.071,13.431,5.98c0.76,0.327,1.546,0.749,2.401,0.833
		C27.65,60.389,27.547,59.853,27.547,59.4z M55.877,45.382c-2.252-0.792-4.497-1.616-6.764-2.402
		c-5.039-1.746-10.153-3.705-15.342-5.342c-0.71-0.225-1.527-0.667-1.961-0.441c-0.388,0.218-0.245,2.021-0.245,2.843
		c0.001,6.056,0,12.119,0,18.136c0,0.96-0.176,1.998,0.245,2.793c1.241-0.059,2.386-0.605,3.529-1.029
		c3.459-1.282,6.801-2.461,10.293-3.725c3.846-1.392,8.099-2.855,11.911-4.411c0.61-0.249,1.393-0.456,1.568-0.784
		c0.242-0.453,0.098-1.434,0.098-2.157c0-0.843,0.069-1.626-0.098-2.157C58.173,45.993,56.982,45.771,55.877,45.382z"/>
	<path style="fill-rule:evenodd;clip-rule:evenodd;" d="M20.636,41.412c1.451-0.121,2.788,0.905,3.234,1.96
		c0.807,1.903-0.512,4.007-2.009,4.51c-2.472,0.829-5.117-1.691-4.167-4.363C18.041,42.546,18.979,41.55,20.636,41.412z"/>
</g>
<g id="Layer_1">
</g>
</svg>
