<?xml version="1.0" encoding="iso-8859-1"?>
<!-- Generator: Adobe Illustrator 19.2.0, SVG Export Plug-In . SVG Version: 6.00 Build 0)  -->
<svg version="1.1" xmlns="http://www.w3.org/2000/svg" xmlns:xlink="http://www.w3.org/1999/xlink" x="0px" y="0px"
	 viewBox="0 0 73.711 72.037" style="enable-background:new 0 0 73.711 72.037;" xml:space="preserve">
<g id="Yosemite_x5F_National_x5F_Park">
	<path style="fill-rule:evenodd;clip-rule:evenodd;" d="M61.409,9.59c5.75,5.171,9.765,11.522,11.632,20.254
		c1.001,4.677,0.839,9.958-0.204,14.285c-1.027,4.261-2.764,7.931-4.745,11.173c-1.91,3.125-4.578,6.01-7.55,8.418
		c-2.956,2.395-6.404,4.491-10.051,5.868c-3.945,1.489-8.312,2.449-13.469,2.449c-5.245,0-9.205-1.11-13.265-2.653
		c-3.779-1.437-7.274-3.368-10.153-5.816c-2.849-2.422-5.446-5.092-7.602-8.316c-2.014-3.012-4.1-6.78-4.949-10.969
		C0.15,39.82-0.487,34.837,0.493,29.845c1.754-8.938,5.769-15.312,11.479-20.408c5.815-5.189,12.321-8.45,22.448-9.387
		c1.33-0.123,3.158,0.01,4.592,0.102C48.875,0.783,55.712,4.77,61.409,9.59z M67.225,35.1c-0.297-3.663-0.976-6.921-2.143-9.642
		C61.193,16.389,54.291,9.82,43.756,7.447c-2.167-0.488-4.515-0.974-6.938-0.969C31.672,6.487,27.131,7.736,23.4,9.437
		c-3.787,1.727-6.947,4.051-9.439,6.99c-4.277,4.882-8.176,11.53-7.499,21.02c0.088,1.242-0.042,2.589,0.561,3.571
		c0.683-0.529,0.99-1.423,1.377-2.193c0.392-0.78,0.845-1.548,1.225-2.347c0.38-0.801,0.704-1.669,1.123-2.449
		c0.416-0.775,0.747-1.652,1.429-2.194c1.603,0.013,2.896,0.605,4.489,0.459c0.601-0.548,0.836-1.368,1.173-2.092
		c2.103-4.514,4.11-9.176,6.123-13.673c0.325-0.726,0.566-1.579,1.224-2.092c1.81,0.104,3.584,0.537,5.357,0.816
		c3.528,0.555,7.227,1.053,10.561,1.786c5.074,1.115,8.553,3.797,12.295,6.224c2.514,1.63,4.775,3.596,6.684,5.714
		c2.285,2.509,3.892,5.772,5.816,8.571c0.268,0.389,0.493,0.962,1.021,1.072C67.392,37.504,67.319,36.254,67.225,35.1z
		 M56.052,55.201c-1.746-2.305-3.047-5.107-3.877-8.214c-1.12-4.191-1.943-8.642-3.572-12.551c-0.763-1.832-1.845-3.485-3.061-5
		c-1.752-2.183-3.626-4.641-6.174-5.919c-2.172-1.089-5.438-1.352-8.265-1.786c-0.582-0.089-1.333-0.311-1.786-0.255
		c-0.744,0.092-1.09,1.442-1.429,2.143c-2.195,4.548-4.237,9.163-6.275,13.724c-0.292,0.655-0.823,1.946-1.275,2.092
		c-0.677,0.217-1.556-0.19-2.296-0.307c-0.586-0.092-1.936-0.377-2.449-0.204c-0.396,0.134-0.582,0.758-0.816,1.225
		c-1.191,2.369-2.339,4.483-3.469,6.786c-0.329,0.67-1.314,2.09-1.275,2.857c0.016,0.312,0.469,0.986,0.765,1.429
		c2.107,3.146,4.758,6.043,7.601,8.112c3.495,2.542,7.449,4.422,12.347,5.612c2.443,0.594,5.414,0.892,8.163,0.714
		c6.805-0.438,12.229-2.919,16.479-5.969c0.84-0.603,1.746-1.213,2.347-2.143C57.266,56.707,56.632,55.965,56.052,55.201z
		 M55.134,32.957c0.504,2.15,1.229,4.392,1.786,6.684c0.265,1.094,0.54,2.216,0.867,3.316c0.336,1.129,0.517,2.313,0.867,3.367
		c0.54,1.625,1.461,3.275,2.398,4.592c0.295,0.415,0.783,1.169,1.225,1.122c0.462-0.049,1.251-1.566,1.429-1.888
		c0.307-0.554,1.051-1.622,1.02-2.295c-0.024-0.527-0.673-1.38-1.02-2.041c-1.118-2.129-2.21-3.698-3.368-5.816
		c-0.715-1.309-1.438-2.6-2.245-3.878c-0.654-1.038-1.867-2.847-2.959-3.316C55.154,32.892,55.058,32.935,55.134,32.957z"/>
</g>
<g id="Layer_1">
</g>
</svg>
