<?xml version="1.0" encoding="iso-8859-1"?>
<!-- Generator: Adobe Illustrator 19.2.0, SVG Export Plug-In . SVG Version: 6.00 Build 0)  -->
<svg version="1.1" xmlns="http://www.w3.org/2000/svg" xmlns:xlink="http://www.w3.org/1999/xlink" x="0px" y="0px"
	 viewBox="0 0 20.777 39.241" style="enable-background:new 0 0 20.777 39.241;" xml:space="preserve">
<g id="Yosun_Reklamc&#x131;l&#x131;k">
	<g>
		<path d="M19.708,0c0,0-10.258,0.287-11.306,8.277c0,0-0.821,2.861,1.615,8.472c0,0-4.845-3.825-9.067-0.539v2.975
			c0,0,6.063-3.456,10.2,0.596c0,0,0.505,0.493,0.664,1.184c0,0,0.07,0.228-0.01,0.275c0,0-0.104,0.053-0.318-0.175
			c0,0-2.43-2.062-5.419-1.887c0,0-2.833-0.128-5.117,1.71v4.558c0,0,4.053-5.07,9.719-1.926c0,0,2.72,1.332,2.946,5.497
			c0,0,0,5.043-5.1,5.639c0,0-3.287,0.624-4.902-2.352c0,0-1.246-2.097,0.596-4.335c0,0,2.6-2.557,4.874,0.227
			c0,0,1.189,1.87-0.511,3.174c0,0-0.526,0.46-1.247,0.226c0,0-0.438-0.188,0-0.282c0,0,1.033-0.234,1.111-1.564
			c0,0-0.156-1.926-2.268-1.597c0,0-2.271,0.61-1.284,3.303c0,0,0.8,1.831,3.366,1.596c0,0,3.13-0.328,3.287-3.96
			c0,0,0.204-3.005-3.287-4.398c0,0-3.428-1.656-6.69,1.979c0,0-2.566,2.689-1.114,7.009c0,0,1.271,4.538,6.826,5.337
			c0,0,5.663,1.525,10.311-3.376c0,0,3.268-3.341,3.194-7.624c0,0,0.109-4.103-1.888-7.696l-4.465-8.423
			c0,0-1.634-2.577-0.872-5.555c0,0,0.618-1.997,2.433-2.759c0,0,1.079-0.35,1.12,0.184c0,0-0.041,0.123-0.38,0.205
			c0,0-1.724,0.843-2.104,2.722c0,0-0.228,1.55,0.585,2.957c0,0,1.611,3.569,3.438,5.907l0.713,1.019c0,0,0.351,0.504,0.351,0V0z"/>
	</g>
</g>
<g id="Layer_1">
</g>
</svg>
