<?xml version="1.0" encoding="iso-8859-1"?>
<!-- Generator: Adobe Illustrator 19.2.0, SVG Export Plug-In . SVG Version: 6.00 Build 0)  -->
<svg version="1.1" xmlns="http://www.w3.org/2000/svg" xmlns:xlink="http://www.w3.org/1999/xlink" x="0px" y="0px"
	 viewBox="0 0 60.21 97.194" style="enable-background:new 0 0 60.21 97.194;" xml:space="preserve">
<g id="Yota_x5F_telecoms">
	<path style="fill-rule:evenodd;clip-rule:evenodd;" d="M36.917,41.883c-0.138,4.36-0.089,8.962,0,13.78
		c8.109,2.401,15.472,7.434,19.412,14.259c2.682,4.646,4.802,14.354,3.475,22.048c-1.173,6.801-11.498,6.888-13.061,0.36
		c-0.821-3.427,0.162-7.712-0.359-10.665c-1.559-8.827-10.229-15.583-21.449-12.821c-4.892,1.204-9.626,6.349-11.024,11.743
		c-0.986,3.805,0.575,8.694-0.838,12.462c-2.207,5.881-11.374,5.344-12.821-0.6c-0.479-1.965-0.124-4.497-0.12-6.59
		c0.027-16.991,9.89-26.08,23.246-30.076c0.279-4.354,0.04-9.227,0.12-13.78C11.06,38.236,0.25,28.881,0.25,12.167
		c0-2.404-0.347-5.15,0.239-7.31c1.54-5.672,9.896-6.388,12.462-1.197c1.024,2.07,0.342,6.581,0.479,9.466
		c0.378,7.932,6.116,14.196,12.941,15.936c5.395,1.376,11.462-0.866,14.858-3.954c2.582-2.348,3.967-5.447,5.393-8.987
		c-0.398-0.934,0.055-1.884,0.12-2.875c0.233-3.565-0.516-7.396,0.719-9.706c0.591-1.106,1.631-2.188,2.756-2.756
		c4.321-2.18,8.886,0.513,9.706,4.073c0.444,1.927,0.177,4.138,0.24,6.352C60.648,28.331,50.015,37.891,36.917,41.883z
		 M8.398,89.215C8.537,89.688,8.537,88.742,8.398,89.215L8.398,89.215z"/>
	<path style="fill-rule:evenodd;clip-rule:evenodd;" d="M29.967,73.039c6.137-0.15,10.971,4.379,11.623,9.825
		c1.102,9.205-7.311,14.902-15.098,12.582c-4.703-1.401-9.34-6.681-7.788-13.66c0.844-3.8,3.709-6.744,6.95-8.028
		C26.963,73.239,28.079,73.085,29.967,73.039z"/>
	<path style="fill-rule:evenodd;clip-rule:evenodd;fill:#FFFFFF;" d="M8.398,89.215C8.537,88.742,8.537,89.688,8.398,89.215
		L8.398,89.215z"/>
</g>
<g id="Layer_1">
</g>
</svg>
