<?xml version="1.0" encoding="iso-8859-1"?>
<!-- Generator: Adobe Illustrator 19.2.0, SVG Export Plug-In . SVG Version: 6.00 Build 0)  -->
<svg version="1.1" xmlns="http://www.w3.org/2000/svg" xmlns:xlink="http://www.w3.org/1999/xlink" x="0px" y="0px"
	 viewBox="0 0 52.958 71.548" style="enable-background:new 0 0 52.958 71.548;" xml:space="preserve">
<g id="Young_x5F_Homebuilders_x5F_of_x5F_Northern_x5F_California">
	<path style="fill-rule:evenodd;clip-rule:evenodd;" d="M52.324,14.947c-0.64,0.824-1.68,1.11-2.527,1.636
		c-3.407,2.111-7.019,4.036-10.558,6.097c-2.567,1.495-5.18,3.183-7.881,4.61c-0.452,0.289-0.936,0.566-1.487,0.892
		c-0.46,0.271-1.218,0.516-1.388,0.991c-0.22,0.616-0.023,1.749-0.049,2.677c-0.167,6.017-0.05,12.5-0.05,18.538
		c0,6.059-0.049,12.105-0.049,18.488c0,0.823,0.128,1.706-0.198,2.479c-0.933,0.035-2.397,0.187-3.172-0.1
		c-0.203-13.907,0.091-28.124,0-41.982c-0.529-0.719-1.388-1.09-2.131-1.537c-5.225-3.142-10.742-6.193-15.96-9.418
		c-1.536-0.887-2.976-1.754-4.56-2.726c-0.353-0.217-1.385-0.559-1.388-0.991c-0.002-0.328,1.195-0.927,1.487-1.091
		C9.454,9.567,16.562,5.657,23.576,1.811c1.111-0.609,2.183-1.408,3.271-1.784c0.007-0.002,0.218-0.06,0.198,0
		c3.305,1.645,6.456,3.703,9.616,5.502c3.154,1.796,6.324,3.75,9.467,5.601c1.588,0.935,3.147,1.849,4.758,2.775
		C51.378,14.189,52.045,14.38,52.324,14.947z M26.747,24.463c2.615-0.026,4.846-1.555,5.948-3.618
		c1.922-3.598-0.052-7.717-2.825-9.12c-1.997-1.011-4.986-0.852-6.791,0.248c-1.832,1.115-3.493,3.529-3.271,6.394
		c0.133,1.729,0.996,2.976,1.982,4.114C23.196,23.617,24.702,24.484,26.747,24.463z"/>
	<path style="fill-rule:evenodd;clip-rule:evenodd;" d="M0.328,24.711c1.224,0.461,2.978,1.634,4.114,2.28
		c1.392,0.791,2.718,1.608,3.965,2.329c2.729,1.577,5.424,3.065,7.881,4.759c0.22,4.752,0.049,9.424,0.05,13.829
		c0,6.281-0.05,12.258-0.05,18.736c0,1.532,0.116,3.104-0.148,4.609c-1.242,0.314-2.598,0.049-3.965,0.1
		c-2.594,0.096-5.366-0.001-8.129,0c-1.355,0-2.725,0.113-3.966-0.148c-0.181-13.577,0-26.858,0-40.596c0-1.9,0.045-3.994,0.1-5.75
		C0.207,24.789,0.257,24.739,0.328,24.711z"/>
	<path style="fill-rule:evenodd;clip-rule:evenodd;" d="M52.621,25.009c0.494,0.176,0.298,0.849,0.298,1.19
		c-0.001,7.322-0.051,14.937-0.05,22.008c0,1.89,0.029,3.804-0.05,5.7c-0.082,1.974,0.142,3.944,0.05,5.898
		c-0.091,1.93-0.05,3.863-0.05,5.799c0,1.91,0.119,3.85-0.148,5.75c-1.239,0.212-2.56,0.148-3.866,0.148
		c-2.754,0.001-5.396,0.102-7.931,0c-1.338-0.053-2.678,0.057-3.915-0.198c-0.175-12,0.016-24.717,0.049-36.977
		c0.361-0.668,1.12-1.023,1.735-1.388c1.925-1.141,3.923-2.203,5.898-3.321C47.33,28.097,49.928,26.41,52.621,25.009z"/>
</g>
<g id="Layer_1">
</g>
</svg>
