<?xml version="1.0" encoding="iso-8859-1"?>
<!-- Generator: Adobe Illustrator 21.0.2, SVG Export Plug-In . SVG Version: 6.00 Build 0)  -->
<svg version="1.1" xmlns="http://www.w3.org/2000/svg" xmlns:xlink="http://www.w3.org/1999/xlink" x="0px" y="0px"
	 viewBox="0 0 26.314 26.606" style="enable-background:new 0 0 26.314 26.606;" xml:space="preserve">
<g id="Zamorano">
	<path d="M4.097,1.438c1.507-0.994,3.334-1.452,5.132-1.389c3.229,0.068,6.466-0.179,9.686,0.051
		c2.712,0.404,5.159,2.179,6.407,4.617c1.415,2.655,1.281,6.049-0.309,8.597c-1.639,2.662-4.815,4.082-7.885,3.988
		c-2.407,0.006-4.816,0.003-7.222,0.032c2.871-2.99,5.807-5.923,8.727-8.861c-3.24-0.025-6.476,0.051-9.716,0.044
		C7.741,8.471,6.587,8.754,5.455,9.035c-2.35,0.772-4.347,2.522-5.438,4.741c-0.033-1.587-0.008-3.175-0.013-4.763
		C-0.049,6.012,1.565,3.046,4.097,1.438z"/>
	<path d="M3.817,10.715c1.51-0.961,3.312-1.453,5.1-1.41c2.566,0,5.132-0.023,7.698-0.008c-2.949,2.929-5.84,5.918-8.754,8.884
		c3.263,0.026,6.524-0.03,9.786-0.039c3.596-0.022,7.188-2.112,8.656-5.456c0.006,1.807,0.023,3.617-0.003,5.423
		c-0.07,3.706-2.794,7.141-6.357,8.117c-1.461,0.498-3.021,0.272-4.53,0.368c-2.252-0.001-4.503,0.01-6.755,0.014
		c-2.433-0.012-4.832-1.12-6.425-2.957c-1.521-1.629-2.303-3.895-2.226-6.112C-0.019,14.808,1.523,12.161,3.817,10.715z"/>
</g>
<g id="Layer_1">
</g>
</svg>
