<?xml version="1.0" encoding="iso-8859-1"?>
<!-- Generator: Adobe Illustrator 19.2.0, SVG Export Plug-In . SVG Version: 6.00 Build 0)  -->
<svg version="1.1" xmlns="http://www.w3.org/2000/svg" xmlns:xlink="http://www.w3.org/1999/xlink" x="0px" y="0px"
	 viewBox="0 0 51.335 80.821" style="enable-background:new 0 0 51.335 80.821;" xml:space="preserve">
<g id="ZEE_x5F_60">
	<path style="fill-rule:evenodd;clip-rule:evenodd;" d="M43.814,0.286c0.202,1,0.107,2.565,0.052,3.651
		c-4.042,1.756-8.319,3.156-12.519,4.747c-3.141,1.19-6.253,2.327-9.44,3.547c-1.009,0.386-2.078,0.691-2.974,1.304
		c0.637,0.309,1.401,0.209,2.087,0.209c7.545,0.001,15.492-0.087,22.794,0.156c0.17,0.951,0.175,2.597,0,3.547
		c-10.501,0.208-20.956,0-31.557,0c-1.602,0-3.232,0.127-4.747-0.156c-0.085-1.029-0.089-2.415,0-3.443
		c0.286-0.509,0.938-0.548,1.408-0.73c6.54-2.527,13.385-5.098,19.977-7.668c0.518-0.201,1.044-0.36,1.566-0.573
		c0.452-0.186,1.009-0.341,1.355-0.73c-0.943-0.282-1.981-0.156-2.973-0.156c-7.065,0-14.276,0.014-21.282-0.209
		c-0.199-0.969-0.11-2.493-0.052-3.546c0.258-0.195,0.877-0.204,1.2-0.209c5.715-0.091,11.617,0.104,17.526,0.104
		C32.149,0.129,38.063,0.051,43.814,0.286z"/>
	<path style="fill-rule:evenodd;clip-rule:evenodd;" d="M43.866,20.837c0.074,1.007,0.141,2.51-0.052,3.547
		c-11.04,0.285-21.374-0.126-31.974,0.104c-0.285,0.806-0.189,2.447-0.053,3.338c2.488,0.258,5.092,0.149,7.771,0.209
		c7.993,0.179,16.609-0.257,24.255,0.157c0.172,0.97,0.172,2.629,0,3.599c-10.804,0.148-21.288-0.126-32.026,0.052
		c-0.175,0.866-0.162,2.366,0,3.234c1.265,0.283,2.584,0.157,3.912,0.157c9.185-0.001,19.127,0.004,28.114,0.208
		c0.201,0.966,0.107,2.495,0.052,3.547c-8.881,0.247-18.326,0.053-27.384,0.052c-3.05,0-6.08,0.108-8.919-0.157
		c-0.2-4.352-0.094-9.362-0.104-13.927c-0.001-0.516,0-1.28,0-2.243c0.001-1.012-0.216-1.996,0.469-2.139
		c0.64-0.133,1.553,0,2.348,0c2.282,0,4.657,0.081,6.78,0.052c6.23-0.084,11.767,0.052,17.734,0.052
		C37.86,20.68,40.927,20.57,43.866,20.837z"/>
	<path style="fill-rule:evenodd;clip-rule:evenodd;" d="M43.814,42.483c0.171,0.959,0.171,2.588,0,3.547
		c-10.44,0.297-21.508-0.047-31.974,0.104c-0.314,0.816-0.181,2.356-0.053,3.339c1.059,0.281,2.178,0.156,3.285,0.156
		c9.423,0.001,19.601-0.003,28.741,0.208c0.167,0.975,0.176,2.626,0,3.599c-10.769,0.221-21.55-0.038-31.974,0.052
		c-0.28,0.784-0.196,2.418-0.053,3.286c9.555,0.233,18.709,0.209,28.062,0.209c1.32,0,2.669-0.123,3.964,0.156
		c0.289,0.962-0.079,2.583,0.209,3.547c2.354,0.246,4.855,0.039,7.302,0.208c0.084,0.415-0.413,0.558-0.625,0.73
		c-6.002,4.862-12.468,9.422-18.57,14.292c-1.516,1.21-3.198,2.45-4.851,3.756c-0.399,0.315-1.327,1.144-1.669,1.147
		c-0.393,0.004-1.26-0.887-1.669-1.2c-5.942-4.541-11.669-9.304-17.682-13.771c-1.636-1.214-3.136-2.606-4.799-3.808
		c-0.532-0.384-1.21-0.7-1.46-1.356c2.387-0.168,4.914,0.12,7.25-0.104c0.261-0.587,0.238-1.379,0.208-2.139
		c-0.153-3.833,0.184-7.482,0-11.684c-0.028-0.637-0.045-1.401,0-2.348c0.034-0.696-0.161-2.047,0.26-2.139
		c1.23-0.266,3.276-0.052,4.852-0.052c7.691,0.001,14.781,0.106,22.272,0.105C37.877,42.326,40.91,42.201,43.814,42.483z
		 M38.129,60.792c-10.005-0.097-20.238-0.054-30.097-0.052c-0.182,0.359,0.273,0.624,0.469,0.782
		c1.979,1.599,3.944,3.171,5.895,4.694c2.268,1.771,4.384,3.76,6.676,5.373c1.102,0.955,2.107,1.777,3.287,2.712
		c0.303,0.24,0.932,0.789,1.251,0.782c0.238-0.005,0.865-0.516,1.2-0.782c5.235-4.173,10.431-8.323,15.595-12.362
		c0.35-0.272,0.868-0.502,0.939-0.991C41.628,60.643,39.857,60.808,38.129,60.792z"/>
</g>
<g id="Layer_1">
</g>
</svg>
