<?xml version="1.0" encoding="iso-8859-1"?>
<!-- Generator: Adobe Illustrator 19.2.0, SVG Export Plug-In . SVG Version: 6.00 Build 0)  -->
<svg version="1.1" xmlns="http://www.w3.org/2000/svg" xmlns:xlink="http://www.w3.org/1999/xlink" x="0px" y="0px"
	 viewBox="0 0 52.212 72.803" style="enable-background:new 0 0 52.212 72.803;" xml:space="preserve">
<g id="Zelulosa_x5F_i_x5F_Chartia">
	<path style="fill-rule:evenodd;clip-rule:evenodd;" d="M16.993,21.679c-0.641,0.272-0.719,1.15-1.031,1.722
		c-0.596,1.086-1.465,2.056-2.312,3c-2.131,2.375-4.727,4.053-8.164,5.115c-0.613,0.189-1.361,0.208-1.869,0.737
		c-0.137,0.738-0.23,2.21,0.098,2.805c1.553,0.096,2.834-0.549,4.131-1.033c2.586-0.965,4.578-2.396,6.543-4.181
		c0.408-0.372,0.949-0.873,1.326-1.328c0.281-0.337,0.85-1.405,1.23-1.427c0.643-0.036,1.076,1.492,1.525,1.673
		c0.508,0.541,1.025,1.072,1.574,1.573c2.506,2.144,5.488,4.018,9.441,4.771c1.277,0.243,2.621,0.425,3.984,0.737
		c0.414,1.442,0.111,3.238,0.148,5.017c0.018,0.869,0,1.822,0,2.705c0,0.886,0.137,1.795-0.197,2.509
		c-1.777,0.111-3.404-0.21-4.918-0.541c-3.826-0.838-7.051-2.286-9.887-4.279c-0.455-0.32-1.205-1.12-1.672-1.131
		c-0.443-0.011-1.025,0.58-1.475,0.935c-2.221,1.745-5.006,3.1-8.066,3.934c-1.221,0.333-2.477,0.621-3.738,1.032
		c-0.125,0.808-0.25,2.394,0.098,3.05c1.379,0.039,2.646-0.429,3.838-0.787c1.24-0.372,2.439-0.683,3.541-1.18
		c1.584-0.717,3.047-1.689,4.377-2.706c0.428-0.326,0.879-0.743,1.426-0.885c0.66,0.218,1.182,0.729,1.721,1.132
		c3.172,2.358,7.455,4.044,12.443,4.672c0.795,0.1,1.672,0.044,2.412,0.442c0.047,2.374,0.172,5.224,0.049,7.82
		c-0.041,0.846,0.133,1.736-0.246,2.41c-0.791,0.297-1.658,0.066-2.459,0c-0.836-0.069-1.68-0.143-2.459-0.295
		c-3.863-0.758-6.859-2.132-9.838-3.935c-0.568-0.345-1.149-1.03-1.672-1.033c-0.502-0.003-1.156,0.679-1.477,0.885
		c-1.041,0.673-1.924,1.102-2.951,1.771c-1.395,0.91-3.086,1.429-5.064,1.967c-0.457,0.124-1.186,0.32-1.918,0.442
		c-0.496,0.083-1.547,0.032-1.82,0.492c-0.285,0.479-0.121,2.275,0.098,2.705c2.156,0.072,4.225-0.491,6.051-1.131
		c1.381-0.484,2.568-1.073,3.787-1.722c0.371-0.197,0.807-0.554,1.277-0.442c0.43,0.565,0.246,1.462,0.246,2.262
		c0,0.812,0,1.692,0,2.509c0,1.646-0.17,3.354,0.148,4.722c0.338,0.207,0.9,0.151,1.426,0.196c0.516,0.044,1.107,0.141,1.428-0.098
		c0.402-0.302,0.244-1.536,0.244-2.361c0-1.751,0.049-3.331,0.051-5.065c0-0.894-0.139-1.79,0.195-2.361
		c0.654,0.01,1.17,0.459,1.723,0.738c3.879,1.965,8.6,3.185,14.557,3c4.652-0.145,8.443-1.603,11.166-3.984
		c0.863-0.756,2.072-1.905,2.311-2.853c0.225-0.888,0.051-2.195,0.051-3.345c0-3.351,0.098-6.391,0.098-9.787
		c0-3.728,0.201-7.489,0.049-11.558c-0.021-0.566-0.121-1.151,0-1.574c0.205-0.714,1.168-1.329,1.672-1.869
		c0.301-0.321,0.541-0.675,0.787-0.983c0.242-0.305,0.453-0.756,0.885-0.787c0.144,8.339,0.002,17.785,0,26.51
		c0,1.344,0.189,2.925-0.049,4.083c-0.242,1.187-1.203,2.317-2.016,3.246c-2.435,2.776-5.834,4.733-9.787,5.853
		c-3.453,0.977-7.883,1.104-11.707,0.442c-1.381-0.239-2.859-0.594-4.18-1.033c-0.666-0.221-1.32-0.576-2.018-0.491
		c-0.305,0.445-0.242,1.135-0.246,1.771c-0.002,0.656,0,1.336,0,2.017c0,1.372,0.176,2.825-0.244,3.787
		c-2.26,0.188-4.779,0.099-7.379,0.099c-0.75,0-2.006,0.112-2.311-0.197c-0.301-0.306-0.148-1.093-0.148-1.623
		c0-0.846,0.002-1.971-0.049-3.049c-0.049-1.036,0.078-2.082-0.197-2.804c-0.877,0.023-1.691,0.494-2.557,0.737
		c-2.531,0.711-5.498,1.433-8.756,1.181c-0.377-1.478-0.068-3.285-0.195-5.066c-0.066-0.903-0.004-1.808,0-2.705
		c0.004-0.869-0.141-1.754,0.146-2.508c0.803-0.336,1.668-0.289,2.459-0.394c3.389-0.45,6.148-1.228,8.854-2.41
		c1.281-0.56,2.346-1.208,3.59-2.017c0.51-0.33,1.184-1.069,1.723-1.082c0.486-0.011,1.012,0.525,1.475,0.837
		c1.482,0.991,2.785,1.582,4.476,2.36c2.139,0.984,4.346,1.828,7.082,1.918c0.35-0.229,0.193-0.79,0.197-1.328
		c0.004-0.507,0.158-1.137-0.049-1.476c-0.268-0.434-1.316-0.41-1.82-0.541c-3.211-0.83-5.748-1.878-8.41-3.295
		c-0.438-0.232-0.984-0.509-1.476-0.886c-0.299-0.229-0.926-0.875-1.426-0.885c-0.514-0.01-1.219,0.731-1.721,1.082
		c-0.641,0.446-1.274,0.763-1.772,1.033c-1.238,0.67-2.516,1.289-3.836,1.77c-2.09,0.762-4.174,1.338-6.787,1.623
		c-0.822,0.091-1.725,0.226-2.559-0.049c-0.223-0.777-0.176-1.649-0.197-2.508c-0.057-2.42-0.01-5.22,0.1-7.771
		c0.793-0.475,1.74-0.309,2.557-0.394c3.379-0.35,6.436-1.448,9.002-2.803c0.625-0.331,1.184-0.767,1.818-1.132
		c0.543-0.312,1.174-0.713,1.771-1.181c0.434-0.339,1.238-1.276,1.672-1.278c0.424-0.002,0.885,0.679,1.328,1.082
		c1.233,1.122,2.896,2.083,4.426,2.804c1.121,0.528,2.275,0.991,3.443,1.377c1.201,0.397,2.51,0.788,3.936,0.787
		c0.271-0.749,0.205-1.996,0.098-2.853c-0.598-0.413-1.326-0.42-1.967-0.591c-1.957-0.523-3.69-1.198-5.459-2.164
		c-0.973-0.529-2.178-1.167-3.1-1.968c-0.396-0.343-0.926-0.77-1.377-1.18c-0.289-0.264-0.953-1.17-1.328-1.181
		c-0.734-0.021-1.027,1.271-1.623,1.378c-1.619,1.552-3.811,3.106-6.395,4.082c-1.787,0.675-3.934,1.216-6.344,1.475
		c-0.684,0.074-1.941,0.323-2.313,0c-0.33-0.287-0.195-1.626-0.195-2.36c0-2.604-0.064-5.131,0.098-7.427
		c0.047-0.001,0.039-0.061,0.049-0.099c0.646-0.32,1.357-0.263,2.018-0.393c4.699-0.932,8.178-3.19,10.426-6.64
		c0.957-2.009,2.148-4.342,2.41-7.033c0.068-0.689-0.115-1.634,0.344-2.114c0.869-0.15,2.414-0.206,3.148,0.098
		c0.338,1.199,0.287,2.402,0.492,3.492c0.623,3.302,2.182,5.692,4.131,7.771c1.269,1.354,2.762,2.425,4.672,3.295
		c1.81,0.824,4.068,1.489,6.443,1.476c3.883-0.021,7.504-1.564,9.887-3.689c2.461-2.195,4.209-5.125,4.475-9.1
		c0.131-1.947-0.342-3.643-0.885-5.017c-0.555-1.408-1.357-2.546-2.262-3.64c-1.508-1.615-3.01-2.761-5.41-3.442
		c-0.744-0.211-1.594-0.457-2.41-0.541c-3.666-0.376-6.582,0.881-8.51,2.41c-1.818,1.443-3.607,3.969-3.687,7.229
		c-0.064,2.613,0.986,4.731,2.359,6.197c1.373,1.463,3.168,2.734,5.559,2.951c2.066,0.188,3.83-0.376,5.115-1.132
		c1.881-1.106,3.785-3.629,3.148-6.886c-0.551-2.804-3.881-5.231-7.328-3.885c-1.314,0.512-2.648,2.271-1.869,4.181
		c0.16,0.394,0.664,1.154,1.623,1.032c0.539-0.068,0.918-0.479,1.033-0.934c0.131-0.529-0.197-1.028-0.1-1.624
		c0.82-0.132,1.988-0.262,2.656,0c1.125,0.442,1.158,3.025,0.441,4.181c-0.797,1.287-2.451,2.192-4.77,1.968
		c-2.338-0.227-4.072-2.203-4.525-4.279c-0.369-1.691,0.051-3.535,0.639-4.623c1.274-2.349,4.174-4.114,7.969-3.787
		c3.398,0.293,5.717,2.503,7.033,5.066c0.385,0.747,0.777,1.561,0.885,2.459c0.482,4.01-1.094,6.7-3,8.606
		c-1.936,1.937-4.732,3.236-8.459,3.197c-3.629-0.038-6.147-1.609-8.164-3.492c-1.916-1.786-3.559-4.494-3.787-7.869
		c-0.303-4.441,1.504-7.876,3.688-10.132c2.275-2.349,5.717-4.179,9.592-4.427c4.895-0.312,8.365,1.313,11.018,3.394
		c2.697,2.118,4.641,5.067,5.557,8.805c0.691,2.817,0.418,5.876-0.344,8.41c-0.998,3.316-3.08,5.844-5.607,7.869
		c-2.525,2.024-5.697,3.366-9.492,3.984c-7.744,0.449-12.902-2.498-16.477-6.542c-0.543-0.636-1.096-1.294-1.574-2.017
		C17.839,23.209,17.579,22.337,16.993,21.679z"/>
</g>
<g id="Layer_1">
</g>
</svg>
