<?xml version="1.0" encoding="iso-8859-1"?>
<!-- Generator: Adobe Illustrator 19.2.0, SVG Export Plug-In . SVG Version: 6.00 Build 0)  -->
<svg version="1.1" xmlns="http://www.w3.org/2000/svg" xmlns:xlink="http://www.w3.org/1999/xlink" x="0px" y="0px"
	 viewBox="0 0 79.173 28.299" style="enable-background:new 0 0 79.173 28.299;" xml:space="preserve">
<g id="Zen_x5F_Environmental_x5F_Design">
	<path style="fill-rule:evenodd;clip-rule:evenodd;" d="M78.903,0.129c0.263,1.091,0.147,2.248,0.147,3.395
		c0,6.957,0.099,13.984,0.099,21.012c0,1.119,0.112,2.269-0.148,3.346c-2.327,0.336-5.324,0.056-7.922,0.148
		c-1.098-1.078-1.868-2.431-2.755-3.691c-1.757-2.495-3.506-5.064-5.314-7.577c-0.446-0.62-0.829-1.301-1.279-1.92
		c-0.432-0.592-0.879-1.274-1.525-1.673c-0.317,1.11-0.197,2.341-0.197,3.593c0,3.567,0.183,7.594-0.049,11.12
		c-0.491,0.308-1.13,0.233-1.673,0.246c-4.36,0.106-8.903,0-13.236,0c-14.417,0.001-28.259,0.147-43.105,0.148
		c-0.568,0-1.192,0.111-1.723-0.148c-0.183-1.875-0.126-3.832-0.147-5.855c-0.007-0.646-0.104-1.472,0.049-2.018
		c0.143-0.509,1.028-1.041,1.525-1.427c1.66-1.289,3.478-2.475,5.118-3.642c2.42-1.722,4.543-3.469,6.741-4.97
		c0.571-0.527,1.383-0.814,1.771-1.525c-1.042-0.349-2.41-0.196-3.74-0.197c-2.54,0-5.096-0.081-7.676,0
		c-1.273,0.041-2.612,0.121-3.74-0.196c-0.163-2.414-0.164-5.508,0-7.922c1.191-0.267,2.423-0.148,3.641-0.147
		c18.614,0.001,37.64-0.224,55.998-0.099c0.74,0.347,1.041,1.154,1.476,1.772c2.65,3.758,5.378,7.62,8.021,11.465
		c0.212,0.309,0.404,0.661,0.64,0.984c0.18,0.246,0.398,0.697,0.787,0.689c0.27-0.523,0.148-1.185,0.148-1.772
		c0-3.002,0-6.359,0-9.447c0-1.248-0.118-2.508,0.148-3.642c1.747-0.402,4.051,0.031,6.052-0.147
		C77.504-0.012,78.377-0.031,78.903,0.129z M73.096,2.048c-0.489,0.907-0.262,2.039-0.295,3.1c-0.036,1.131,0.093,2.281,0.098,3.444
		c0.01,2.112-0.158,4.123-0.049,6.398c0.06,1.241-0.102,2.796,0.148,3.69c0.125,0.447,0.59,0.925,0.935,1.427
		c0.706,1.026,1.283,1.886,1.919,2.805c0.302,0.437,0.614,1.122,1.131,1.181c0.262-0.835,0.148-1.772,0.148-2.656
		c-0.001-5.376-0.099-11.17-0.099-16.632c0-0.909,0.115-1.847-0.147-2.707C75.932,1.714,74.183,1.941,73.096,2.048z M47.607,1.998
		c-3.822,0.143-8.19-0.092-12.104,0c-0.331,0.008-0.878,0.046-1.083,0.296c-0.22,0.461-0.193,1.256-0.197,1.968
		c-0.004,0.723-0.091,1.512,0.246,1.919c3.941,0.228,8.56,0.099,12.843,0.099c1.447,0,2.939,0.143,4.231-0.196
		c0.287-1.036,0.164-2.822,0-3.888C50.324,1.891,48.959,1.948,47.607,1.998z M22.364,2.096c-2.927,0.137-5.968-0.003-8.956,0
		C10.355,2.1,7.322,2.164,4.355,2.145C3.617,2.141,2.843,1.946,2.14,2.244C1.706,3.154,1.962,5.065,2.042,6.23
		c0.533,0.373,1.241,0.246,1.87,0.246c3.554,0,7.067,0.08,10.53-0.05c1.276-0.048,3.035,0.238,4.183-0.049
		c0.481-0.12,1.012-0.615,1.525-0.984c0.971-0.697,1.829-1.379,2.706-2.018c0.455-0.33,1.09-0.562,1.181-1.132
		C23.604,1.957,22.88,2.073,22.364,2.096z M29.253,2.096c-0.444,0.023-0.899-0.06-1.181,0.197c-0.299,1.091-0.166,2.685,0,3.838
		c0.424,0.309,1.227,0.197,1.968,0.197c0.752,0,1.584,0.107,2.018-0.197c0.316-1.059,0.068-2.644,0.049-3.838
		C31.482,1.96,30.237,2.045,29.253,2.096z M55.579,2.294c0.136,0.65,0.642,1.127,0.984,1.623c0.351,0.509,0.583,1.204,1.23,1.428
		c0.249-0.763,0.229-2.433,0-3.199C57.232,2.022,55.926,1.887,55.579,2.294z M25.513,4.065c-0.472,0.273-1.003,0.633-1.476,0.984
		c-0.435,0.323-0.978,0.623-1.181,1.082c0.566,0.412,2.255,0.316,2.903,0.049c0.225-0.457,0.398-1.821-0.099-2.115
		C25.612,4.065,25.563,4.065,25.513,4.065z M53.955,4.114c-0.358,0.305-0.238,1.627-0.049,2.018
		c0.303,0.212,1.188,0.232,1.427-0.049C55.046,5.254,54.59,4.593,53.955,4.114z M70.931,20.992
		c-0.003-0.536,0.038-1.226-0.099-1.723c-0.162-0.588-0.858-1.318-1.279-1.918c-1.345-1.92-2.706-3.885-3.937-5.659
		c-1.325-1.753-2.553-3.823-3.937-5.659c-0.392-0.52-1.027-1.62-1.525-1.771c-0.062,0.02-0.101,0.064-0.099,0.147
		c0.013,1.234-0.226,2.809-0.049,4.183c0.083,0.646,0.846,1.529,1.279,2.166c2.647,3.887,5.366,7.574,7.971,11.317
		c0.425,0.61,0.769,1.398,1.477,1.771C70.961,22.977,70.936,21.95,70.931,20.992z M47.656,8.297c-2.568,0-5.118-0.065-7.578,0.049
		c-2.013,0.094-3.955-0.202-5.659,0.246c-0.142,0.228-0.142,0.807,0,1.034c0.486,0.372,1.151,0.245,1.723,0.245
		c4.506-0.001,9.257-0.058,13.679-0.049c0.581,0.001,1.315,0.192,1.772-0.148c0.155-0.303,0.145-0.984-0.049-1.23
		C50.305,8.178,48.986,8.297,47.656,8.297z M57.99,14.841c0.006-1.822,0.351-3.917-0.049-5.265
		c-0.124-0.415-0.635-1.109-0.984-1.231c-0.746-0.259-2.328-0.027-3.051,0.197c-0.3,0.707-0.096,1.556-0.099,2.362
		c-0.011,2.812-0.188,5.938,0.099,8.61c1.032,0.415,2.907,0.396,3.985,0.05C58.113,18.254,57.984,16.602,57.99,14.841z
		 M20.642,8.395c-1.553,0.066-2.17,0.72-3.198,1.476c-3.901,2.868-7.785,5.616-11.563,8.365c-0.622,0.453-1.375,0.879-1.771,1.575
		c0.877,0.206,2.09,0.199,3.149,0.196c1.82-0.004,2.311-0.589,3.346-1.525c0.633-0.572,1.386-0.978,1.919-1.377
		c1.318-0.99,2.629-1.864,3.838-2.756c2.275-1.679,4.428-3.338,6.643-4.921c0.308-0.221,0.774-0.39,0.837-0.837
		C22.891,8.42,21.71,8.348,20.642,8.395z M28.121,8.591c-0.15,0.224-0.15,0.909,0,1.132c0.991,0.269,2.817,0.186,3.887,0.05
		c0.248-0.217,0.278-0.965,0.049-1.231C30.95,8.296,29.12,8.369,28.121,8.591z M26.005,16.859c-0.003-1.385,0.006-3.002,0-4.232
		c-0.003-0.592,0.167-2.791-0.64-2.312c-1.12,0.662-2.129,1.511-3.199,2.312c-2.619,1.964-5.47,3.889-8.021,5.807
		c-0.527,0.396-1.183,0.726-1.476,1.328c0.581,0.338,1.387,0.197,2.116,0.197c3.751,0,7.414-0.02,11.022-0.197
		C26.127,19.071,26.008,17.897,26.005,16.859z M39.094,11.938c-1.403,0-2.995-0.272-4.183-0.05
		c-0.726,0.136-0.669,1.142-0.689,2.018c-0.02,0.908,0.005,1.818,0.246,2.165c1.34,0.259,2.78,0.157,4.232,0.147
		c2.844-0.018,5.754-0.048,8.611-0.049c1.448,0,2.896,0.119,4.231-0.148c0.254-0.97,0.25-3.068,0-4.035
		C47.737,11.758,43.098,11.937,39.094,11.938z M28.17,12.086c-0.219,0.473-0.197,1.184-0.197,1.969c0,0.578-0.125,1.695,0.197,2.017
		c0.325,0.325,1.587,0.198,2.165,0.197c0.591-0.002,1.282-0.038,1.722-0.148c0.338-0.964,0.266-2.994,0.049-4.035
		C31.098,11.835,29.183,11.858,28.17,12.086z M47.902,18.187c-2.53,0-5.095,0-7.578,0c-1.268,0-2.536-0.082-3.74-0.049
		c-0.668,0.018-1.569-0.024-2.116,0.246c-0.146,0.236-0.203,0.75-0.098,1.082c0.698,0.49,1.798,0.285,2.706,0.246
		c3.436-0.148,7.575,0.108,11.022,0c1.225-0.038,2.499,0.217,3.543-0.246c0.149-0.29,0.14-0.898-0.049-1.132
		C50.416,18.068,49.153,18.187,47.902,18.187z M28.17,18.384c-0.178,0.333-0.237,1.069,0.049,1.328
		c1.06,0.143,2.854,0.209,3.838-0.049c0.312-0.301,0.247-1.175-0.098-1.378C30.816,18.248,29.16,18.105,28.17,18.384z M51.79,23.895
		c0-0.539,0.12-1.617-0.197-1.968c-0.242-0.269-1.482-0.197-2.116-0.197c-5.11-0.001-10.407-0.036-14.91,0.197
		c-0.507,0.873-0.338,2.997-0.099,4.034c0.728,0.307,1.564,0.185,2.362,0.197c3.796,0.054,7.498-0.05,11.269-0.05
		c1.199,0.001,2.437,0.146,3.543-0.196C51.857,25.421,51.79,24.648,51.79,23.895z M53.955,21.976
		c-0.191,1.014-0.337,3.077,0.099,3.936c1.055,0.225,2.934,0.326,3.887-0.099c0.1-1.1,0.307-3.116-0.147-3.985
		C56.642,21.812,54.874,21.596,53.955,21.976z M23.151,21.829c-0.606,0.021-1.387,0.063-2.116,0.099
		c-3.068,0.144-6.472,0.08-9.447,0.098c-0.787,0.005-1.519-0.102-2.116,0.05c-0.962,0.243-2.025,1.359-2.805,1.919
		c-0.457,0.327-0.93,0.656-1.378,0.984c-0.443,0.324-1.013,0.632-1.23,1.181c0.729,0.329,1.648,0.196,2.559,0.196
		c5.554,0.001,11.114-0.244,16.534-0.098c0.607,0.016,2.318,0.148,2.657-0.148c0.382-0.333,0.148-1.451,0.147-2.018
		c0-0.771,0.109-1.516-0.147-2.066C25.024,21.837,24.004,21.8,23.151,21.829z M28.121,22.075c-0.205,1.075-0.222,2.7,0,3.887
		c0.925,0.42,3.089,0.337,4.035,0c0.135-1.102,0.219-2.963-0.049-3.985C31.031,21.702,29.098,21.766,28.121,22.075z M2.19,22.174
		c-0.223,0.522-0.34,1.777,0,2.263c0.695-0.108,1.225-0.584,1.722-0.935c0.502-0.353,1.074-0.774,1.377-1.328
		C4.544,21.91,2.945,21.965,2.19,22.174z M73.146,22.911c-0.344,0.707-0.221,2.184-0.049,2.903c0.451,0.207,1.773,0.398,2.116-0.049
		C74.68,24.657,74.068,23.629,73.146,22.911z"/>
</g>
<g id="Layer_1">
</g>
</svg>
