<?xml version="1.0" encoding="iso-8859-1"?>
<!-- Generator: Adobe Illustrator 21.0.2, SVG Export Plug-In . SVG Version: 6.00 Build 0)  -->
<svg version="1.1" xmlns="http://www.w3.org/2000/svg" xmlns:xlink="http://www.w3.org/1999/xlink" x="0px" y="0px"
	 viewBox="0 0 15.111 14.208" style="enable-background:new 0 0 15.111 14.208;" xml:space="preserve">
<g id="Zingg">
	<path d="M0,0.001c4.065-0.002,8.13-0.001,12.195,0C12.17,0.972,12.2,1.945,12.18,2.917c0.977,0.018,1.955,0.006,2.932,0.005
		c-0.007,3.76,0.005,7.521-0.006,11.282c-2.649-0.015-5.299-0.002-7.949-0.006c-1.403,0.006-2.807-0.013-4.21,0.009
		c0.001-0.977,0-1.955,0.001-2.932c-0.982,0-1.964-0.002-2.946,0C0,7.518,0.002,3.76,0,0.001z M2.948,2.943
		C2.948,5.711,2.945,8.479,2.95,11.247c0.242-0.298,0.446-0.626,0.671-0.937c1.727-2.456,3.456-4.911,5.184-7.366
		C6.853,2.949,4.9,2.951,2.948,2.943z M7.245,9.958c-0.319,0.435-0.608,0.893-0.943,1.316c1.954,0,3.908,0.001,5.861,0
		c-0.001-2.767,0.001-5.535,0-8.302C10.519,5.296,8.885,7.63,7.245,9.958z"/>
</g>
<g id="Layer_1">
</g>
</svg>
