<?xml version="1.0" encoding="iso-8859-1"?>
<!-- Generator: Adobe Illustrator 19.2.0, SVG Export Plug-In . SVG Version: 6.00 Build 0)  -->
<svg version="1.1" xmlns="http://www.w3.org/2000/svg" xmlns:xlink="http://www.w3.org/1999/xlink" x="0px" y="0px"
	 viewBox="0 0 77.896 61.832" style="enable-background:new 0 0 77.896 61.832;" xml:space="preserve">
<g id="Zinnober_x5F_Verlag">
	<path style="fill-rule:evenodd;clip-rule:evenodd;" d="M77.884,0.387c0.124,3.175-0.75,6.052-1.615,8.63
		c-0.868,2.586-1.945,5.02-3.18,7.217c-0.636,1.133-1.317,2.197-1.918,3.332c-0.578,1.094-1.4,2.083-2.069,3.129
		c-1.012,1.582-2.013,3.152-3.078,4.744c-0.343,0.512-0.836,0.976-0.959,1.615c1.393,0.407,3.673-0.072,5.147,0.252
		c0.203,11.221,0.111,21.722-0.05,32.401c-1.407,0.196-2.842,0.102-4.29,0.102c-4.415,0-8.854-0.1-13.273-0.102
		c-11.604-0.005-23.132-0.149-35.077-0.151c-5.824-0.001-11.692,0.017-17.513-0.202c-0.106-3.226,0.753-6.102,1.665-8.681
		c0.923-2.606,2.035-4.979,3.281-7.217c1.871-3.361,4.074-6.403,6.207-9.59c0.709-1.058,1.465-2.083,2.02-3.229
		c-0.67-0.353-1.748-0.202-2.726-0.202c-1.005,0-2.037,0.075-2.826-0.101c-0.259-2.561-0.102-5.232-0.102-7.924
		C7.53,16.456,7.448,7.981,7.68,0.134c2.622-0.223,6.228-0.102,9.388-0.101C37.284,0.042,58.183,0.326,77.884,0.387z M11.315,3.668
		c-0.252,0.407-0.152,2.207-0.152,3.078c0.002,7.26-0.187,14.811,0.051,22.005c1.245,0.337,3.101,0.064,4.593,0.151
		c0.956-0.858,1.575-2.003,2.321-3.027c2.266-3.111,4.575-6.185,6.764-9.337c1.555-2.034,3.027-4.124,4.542-6.208
		c0.749-1.031,1.363-2.19,2.12-3.231c0.767-1.056,1.676-2.011,2.17-3.229c-1.711-0.37-3.566-0.151-5.4-0.202
		C22.735,3.513,17.01,3.655,11.465,3.567C11.405,3.59,11.351,3.621,11.315,3.668z M71.373,3.87
		C60.376,3.867,49.591,3.631,38.618,3.768c-2.866,3.559-5.73,7.227-8.378,10.901c-0.396,0.549-0.706,1.128-1.11,1.666
		c-1.566,2.086-3.135,4.219-4.644,6.359c-1.523,2.162-3.125,4.269-4.593,6.46c-1.462,2.184-3.065,4.279-4.491,6.511
		C11.802,41.294,7.841,46.54,5.561,53.43c-0.46,1.392-1.007,2.83-1.06,4.392c0.63,0.266,1.352,0.151,2.019,0.151
		c11.017-0.002,22.113,0.155,32.855,0.151c1.795-1.905,3.239-4.112,4.846-6.157c1.627-2.072,3.222-4.182,4.744-6.309
		c6.152-8.601,12.315-17.054,18.018-26.093c2.856-4.53,5.498-9.465,6.409-15.545C72.762,3.751,72.045,3.87,71.373,3.87z
		 M62.339,32.789c-5.8,7.713-11.482,15.636-17.008,23.519c-0.372,0.531-0.905,1.03-1.01,1.716c3.562,0.188,7.327,0.202,11.053,0.202
		c3.769,0,7.582,0.18,11.154-0.05c0.273-0.966,0.151-2.022,0.151-3.028c-0.001-7.315,0.188-15.074-0.051-22.258
		C65.485,32.599,63.643,32.752,62.339,32.789z"/>
</g>
<g id="Layer_1">
</g>
</svg>
