<?xml version="1.0" encoding="iso-8859-1"?>
<!-- Generator: Adobe Illustrator 19.2.0, SVG Export Plug-In . SVG Version: 6.00 Build 0)  -->
<svg version="1.1" xmlns="http://www.w3.org/2000/svg" xmlns:xlink="http://www.w3.org/1999/xlink" x="0px" y="0px"
	 viewBox="0 0 77.1 76.424" style="enable-background:new 0 0 77.1 76.424;" xml:space="preserve">
<g id="Zorza_x5F_74">
	<path style="fill-rule:evenodd;clip-rule:evenodd;" d="M18.253,70.018c-0.51,0.156-0.977-0.252-1.354-0.501
		c-2.705-1.787-5.123-4.009-7.209-6.458c-3.268-3.604-5.787-7.845-7.609-12.866C0.372,45.478-0.617,38.417,0.428,32.42
		c0.348-1.987,0.654-3.867,1.201-5.607c0.551-1.749,1.223-3.333,1.902-4.906c2.717-6.27,7.111-10.947,12.367-14.92
		c2.666-2.015,5.592-3.322,8.961-4.655c4.748-1.88,11.645-2.896,17.924-2.003c2.027,0.288,4.035,0.564,5.807,1.102
		c1.842,0.559,3.498,1.153,5.107,1.802c1.664,0.672,3.078,1.471,4.555,2.354c5.977,3.572,10.377,8.101,13.767,13.868
		c3.391,5.763,5.641,13.508,4.957,22.378c-0.65,8.439-3.635,14.616-7.711,19.876c-2.885,3.874-6.785,6.981-11.113,9.612
		c-5.869,3.569-13.967,5.893-23.529,4.856c-2.354-0.255-4.703-0.745-6.809-1.452c-2.103-0.706-4.299-1.181-5.658-2.604
		c-0.525-0.55-0.754-1.609-0.5-2.403c0.521-1.629,3.168-2.441,4.305-3.504c1.111-0.773,2.228-1.571,3.455-2.403
		c0.377-0.257,0.867-0.663,1.252-0.701c0.467-0.045,1.26,0.324,1.801,0.451c1.785,0.417,3.734,0.794,5.709,0.801
		c2.84,0.01,5.383-0.202,7.91-0.852c3.371-0.865,6.441-2.523,8.91-4.355c0.84-0.623,1.557-1.356,2.303-2.103
		c4.242-4.241,7.896-10.298,7.66-18.773c-0.193-6.959-2.498-12.333-5.908-16.221c-0.67-0.766-1.422-1.491-2.102-2.304
		c-1.32-1.575-3.15-2.762-5.006-3.854c-2.914-1.716-6.012-2.765-9.914-3.354c-4.123-0.624-8.188-0.127-11.664,0.951
		c-4.48,1.389-7.967,3.739-10.965,6.709c-2.713,2.926-4.979,6.883-6.158,11.564c-0.4,1.595-0.672,3.333-0.701,5.157
		c-0.061,3.947,0.519,7.255,1.603,10.213c0.516,1.408,1.139,2.842,1.852,4.055c0.732,1.246,1.582,2.329,2.402,3.454
		c0.137,4.407,0,9.221,0,13.618C18.401,68.856,18.516,69.478,18.253,70.018z"/>
	<path style="fill-rule:evenodd;clip-rule:evenodd;" d="M20.053,37.676c-0.18-2.767-0.1-5.954-0.1-9.062
		c0-1.102-0.262-2.521,0.602-2.653c0.617-0.094,1.428,0.05,2.201,0.05c9.666,0,19.197,0.148,28.988,0.15
		c0.967,0,3.541-0.338,3.705,0.751c0.143,0.948-0.943,1.586-1.351,1.902c-0.69,0.535-1.385,1.006-1.902,1.353
		c-3.742,2.733-7.646,5.304-11.615,7.81C34.628,37.8,28.7,37.973,22.458,37.876C21.655,37.865,20.811,37.907,20.053,37.676z
		 M23.057,27.713c-0.508,0.164-0.438,1.493-0.15,1.853c0.916,0.02,1.998,0.253,2.805-0.05c0.168-0.363,0.119-1.165,0.049-1.602
		C25.188,27.52,23.944,27.796,23.057,27.713z M29.417,27.814c-0.301,0.356-0.234,1.318-0.051,1.752c0.678,0.201,2.016,0.142,2.805,0
		c0.219-0.349,0.23-1.354,0-1.702C31.421,27.621,30.249,27.714,29.417,27.814z M35.774,27.864c-0.254,0.311-0.188,1.315-0.049,1.702
		c0.816,0.215,2.045,0.144,2.803,0.05c0.238-0.347,0.197-1.333,0.051-1.752C37.852,27.706,36.499,27.696,35.774,27.864z
		 M42.182,27.864c-0.328,0.286-0.233,1.37-0.1,1.803c0.734,0.155,2.07,0.167,2.803,0c0.238-0.31,0.197-1.269,0.051-1.652
		C44.366,27.64,42.985,27.841,42.182,27.864z M48.391,27.964c-0.266,0.298-0.15,1.203-0.102,1.651
		c0.621,0.324,2.211,0.276,2.904,0.051c0.154-0.387,0.154-1.266,0-1.652C50.546,27.763,49.114,27.813,48.391,27.964z"/>
	<path style="fill-rule:evenodd;clip-rule:evenodd;" d="M56.702,28.315c0.508,0.526,0.33,1.612,0.299,2.453
		c-0.109,2.98,0.182,7.142-0.25,10.013c-0.291,1.944-0.791,2.644-2.002,3.854c-0.629,0.629-1.225,1.321-1.852,1.803
		c-1.432,1.098-2.971,2.018-4.357,2.953c-5.916,3.997-11.746,7.796-17.621,11.716c-2.967,1.979-6.033,3.804-8.812,5.857
		c-0.35,0.261-0.711,0.569-1,0.951c-0.268,0.35-0.404,0.967-0.902,0.951c-0.326-2.004-0.1-4.142-0.1-6.308c0-1.071,0-2.163,0-3.255
		c0-1.121-0.105-2.441,0.051-3.404c0.324-2.013,1.66-3.625,3.053-4.706c0.686-0.531,1.537-0.916,2.303-1.452
		c4.394-3.071,8.988-6.023,13.318-9.061c3-2.104,5.955-4.132,8.861-6.107c3.002-2.043,5.93-4.084,8.762-6.158
		C56.546,28.393,56.577,28.307,56.702,28.315z"/>
</g>
<g id="Layer_1">
</g>
</svg>
